<?xml version="1.0" encoding="UTF-8" standalone="no"?>
<svg xmlns="http://www.w3.org/2000/svg"
     width="898.92578125" height="898.92578125"
     viewBox="0 0 898.92578125 898.92578125"
     fill="currentColor">
  <path d="M153.3183 898.9295H745.6083C848.1483 898.9295 898.9283 848.1495 898.9283 747.5595V151.3695C898.9283 50.7795 848.1483 -0.0005 745.6083 -0.0005H153.3183C51.2683 -0.0005 -0.0017 50.2895 -0.0017 151.3695V747.5595C-0.0017 848.6295 51.2683 898.9295 153.3183 898.9295ZM154.2983 820.3095C105.4683 820.3095 78.6183 794.4295 78.6183 743.6495V155.2695C78.6183 104.4895 105.4683 78.6095 154.2983 78.6095H744.6283C792.9683 78.6095 820.3083 104.4895 820.3083 155.2695V743.6495C820.3083 794.4295 792.9683 820.3095 744.6283 820.3095ZM279.7883 659.1795C364.2583 659.1795 419.4383 578.6095 419.4383 448.7295C419.4383 318.8495 364.2583 238.2795 279.7883 238.2795C195.7983 238.2795 140.1383 318.8495 140.1383 448.7295C140.1383 578.6095 195.7983 659.1795 279.7883 659.1795ZM619.1383 659.1795C703.6183 659.1795 758.7883 578.6095 758.7883 448.7295C758.7883 318.8495 703.6183 238.2795 619.1383 238.2795C535.1583 238.2795 479.4883 318.8495 479.4883 448.7295C479.4883 578.6095 535.1583 659.1795 619.1383 659.1795ZM279.7883 600.0995C233.3983 600.0995 204.5883 542.4795 204.5883 448.7295C204.5883 354.9795 233.3983 297.3595 279.7883 297.3595C326.6583 297.3595 355.4683 354.9795 355.4683 448.7295C355.4683 542.4795 327.1483 600.0995 279.7883 600.0995ZM619.1383 600.0995C572.7583 600.0995 543.9483 542.4795 543.9483 448.7295C543.9483 354.9795 572.7583 297.3595 619.1383 297.3595C666.0183 297.3595 694.8283 354.9795 694.8283 448.7295C694.8283 542.4795 666.5083 600.0995 619.1383 600.0995Z"/>
</svg>