<?xml version="1.0" encoding="UTF-8" standalone="no"?>
<svg xmlns="http://www.w3.org/2000/svg"
     width="898.92578125" height="898.92578125"
     viewBox="0 0 898.92578125 898.92578125"
     fill="currentColor">
  <path d="M153.3183 898.9295H745.6083C848.1483 898.9295 898.9283 848.1495 898.9283 747.5595V151.3695C898.9283 50.7795 848.1483 -0.0005 745.6083 -0.0005H153.3183C51.2683 -0.0005 -0.0017 50.2895 -0.0017 151.3695V747.5595C-0.0017 848.6295 51.2683 898.9295 153.3183 898.9295ZM154.2983 820.3095C105.4683 820.3095 78.6183 794.4295 78.6183 743.6495V155.2695C78.6183 104.4895 105.4683 78.6095 154.2983 78.6095H744.6283C792.9683 78.6095 820.3083 104.4895 820.3083 155.2695V743.6495C820.3083 794.4295 792.9683 820.3095 744.6283 820.3095ZM320.3083 659.1795C404.2983 659.1795 459.9583 578.6095 459.9583 448.7295C459.9583 318.8495 404.2983 238.2795 320.3083 238.2795C235.8383 238.2795 180.6683 318.8495 180.6683 448.7295C180.6683 578.6095 235.8383 659.1795 320.3083 659.1795ZM659.1783 653.3195C678.2183 653.3195 690.4283 641.1095 690.4283 622.0695V276.3695C690.4283 255.8595 676.2683 241.2095 655.7583 241.2095C640.1383 241.2095 630.3683 246.0895 613.2783 257.8095L539.0583 308.5895C528.8083 315.9195 522.4583 324.7095 522.4583 337.3995C522.4583 353.9995 536.1283 366.6995 550.2883 366.6995C558.1083 366.6995 562.9883 366.2095 574.2183 357.4195L626.4683 318.8495H629.3983V622.0695C629.3983 641.1095 641.1183 653.3195 659.1783 653.3195ZM320.3083 600.0995C273.4383 600.0995 244.6283 542.4795 244.6283 448.7295C244.6283 354.9795 273.4383 297.3595 320.3083 297.3595C366.6983 297.3595 395.5083 354.9795 395.5083 448.7295C395.5083 542.4795 367.1883 600.0995 320.3083 600.0995Z"/>
</svg>