<?xml version="1.0" encoding="UTF-8" standalone="no"?>
<svg xmlns="http://www.w3.org/2000/svg"
     width="898.92578125" height="898.92578125"
     viewBox="0 0 898.92578125 898.92578125"
     fill="currentColor">
  <path d="M153.3183 898.9295H745.6083C848.1483 898.9295 898.9283 848.1495 898.9283 747.5595V151.3695C898.9283 50.7795 848.1483 -0.0005 745.6083 -0.0005H153.3183C51.2683 -0.0005 -0.0017 50.2895 -0.0017 151.3695V747.5595C-0.0017 848.6295 51.2683 898.9295 153.3183 898.9295ZM285.6483 666.0195C198.7283 666.0195 141.5983 583.0095 141.5983 448.7295C141.5983 314.4495 198.7283 231.4495 285.6483 231.4495C372.0683 231.4495 429.6883 314.4495 429.6883 448.7295C429.6883 583.0095 372.0683 666.0195 285.6483 666.0195ZM519.5283 654.2995C501.9483 654.2995 490.2383 642.5795 490.2383 624.5095C490.2383 614.2595 493.1683 605.4695 501.4683 597.1695L634.2783 440.9195C657.7183 413.0895 684.5683 384.7695 684.5683 352.0495C684.5683 314.9395 658.1983 290.0395 617.6783 290.0395C581.5383 290.0395 556.1483 308.1095 543.4583 346.1895C537.1083 361.3295 529.2983 369.6295 514.6483 369.6295C497.0683 369.6295 486.3283 357.4195 486.3283 339.3595C486.3283 333.4995 487.7883 327.6395 488.7683 321.2895C501.9483 270.0195 555.6683 231.4495 615.2383 231.4495C694.3383 231.4495 745.1183 276.3695 745.1183 346.6795C745.1183 396.9695 717.7783 433.1095 680.1783 476.5595L582.0283 590.8195V594.7295H728.0283C744.1383 594.7295 756.3483 604.9795 756.3483 624.0195C756.3483 642.0895 744.1383 654.2995 728.0283 654.2995ZM285.6483 604.4895C333.9883 604.4895 363.2783 545.4095 363.2783 448.7295C363.2783 352.0495 333.4983 292.9695 285.6483 292.9695C237.7883 292.9695 208.0083 352.0495 208.0083 448.7295C208.0083 545.4095 237.7883 604.4895 285.6483 604.4895Z"/>
</svg>