<?xml version="1.0" encoding="UTF-8" standalone="no"?>
<svg xmlns="http://www.w3.org/2000/svg"
     width="898.92578125" height="898.92578125"
     viewBox="0 0 898.92578125 898.92578125"
     fill="currentColor">
  <path d="M153.3183 898.9295H745.6083C848.1483 898.9295 898.9283 848.1495 898.9283 747.5595V151.3695C898.9283 50.7795 848.1483 -0.0005 745.6083 -0.0005H153.3183C51.2683 -0.0005 -0.0017 50.2895 -0.0017 151.3695V747.5595C-0.0017 848.6295 51.2683 898.9295 153.3183 898.9295ZM276.3683 666.0195C189.4483 666.0195 132.3283 583.0095 132.3283 448.7295C132.3283 314.4495 189.4483 231.4495 276.3683 231.4495C362.7883 231.4495 420.4083 314.4495 420.4083 448.7295C420.4083 583.0095 362.7883 666.0195 276.3683 666.0195ZM692.3783 665.0395C672.3683 665.0395 661.6183 650.3895 661.6183 630.8595V571.7795H515.1383C489.2583 571.7795 472.1683 555.6595 472.1683 528.8095C472.1683 515.1395 474.6083 503.9095 483.3983 488.2795C517.0883 427.2495 567.3783 341.3095 609.3783 270.5095C625.9783 242.6795 643.5583 231.4495 672.8483 231.4495C702.6383 231.4495 723.1483 250.4895 723.1483 279.7895V515.1395H749.9983C767.0883 515.1395 778.8083 525.8795 778.8083 543.9495C778.8083 561.5195 767.5783 571.7795 749.9983 571.7795H723.1483V630.8595C723.1483 650.8795 712.3983 665.0395 692.3783 665.0395ZM276.3683 604.4895C324.7083 604.4895 354.0083 545.4095 354.0083 448.7295C354.0083 352.0495 324.2183 292.9695 276.3683 292.9695C228.5183 292.9695 198.7283 352.0495 198.7283 448.7295C198.7283 545.4095 228.5183 604.4895 276.3683 604.4895ZM661.6183 515.1395V299.8095H659.1783C619.1383 368.1595 567.3783 456.0595 538.0883 513.1795V515.1395Z"/>
</svg>