<?xml version="1.0" encoding="UTF-8" standalone="no"?>
<svg xmlns="http://www.w3.org/2000/svg"
     width="996.09375" height="996.09375"
     viewBox="0 0 996.09375 996.09375"
     fill="currentColor">
  <path d="M498.0477 996.0959C770.5077 996.0959 996.0977 770.0159 996.0977 498.0459C996.0977 225.5859 770.0177 -0.0041 497.5577 -0.0041C225.5877 -0.0041 -0.0023 225.5859 -0.0023 498.0459C-0.0023 770.0159 226.0777 996.0959 498.0477 996.0959ZM498.0477 913.0859C267.5777 913.0859 83.4977 728.5159 83.4977 498.0459C83.4977 267.5759 267.0877 83.0059 497.5577 83.0059C728.0277 83.0059 913.0877 267.5759 913.0877 498.0459C913.0877 728.5159 728.5177 913.0859 498.0477 913.0859ZM332.5177 708.4959C416.5077 708.4959 472.1677 627.9259 472.1677 498.0459C472.1677 368.1659 416.5077 287.5959 332.5177 287.5959C248.5377 287.5959 192.8677 368.1659 192.8677 498.0459C192.8677 627.9259 248.5377 708.4959 332.5177 708.4959ZM663.5777 708.4959C749.5077 708.4959 806.6377 655.7659 806.6377 569.8259C806.6377 494.6259 755.8577 439.9459 680.1777 439.9459C647.4577 439.9459 612.7977 456.0559 598.1477 478.0259H596.1877L604.9777 352.5359H766.5977C780.2777 352.5359 791.0177 341.3059 791.0177 325.1959C791.0177 309.5659 780.7577 297.8559 766.5977 297.8559H599.1177C573.2377 297.8559 556.1477 313.4759 554.6877 339.3559L542.4777 491.6959C541.0177 517.0859 554.6877 533.6959 577.1477 533.6959C591.7977 533.6959 601.0777 529.7859 616.6977 517.0859C636.7177 499.5159 652.3477 492.1859 673.8277 492.1859C716.7977 492.1859 746.0977 526.3659 746.0977 571.2859C746.0977 622.5559 713.8677 653.3159 666.5077 653.3159C633.2977 653.3159 604.4877 635.7459 590.8177 606.4459C583.4977 592.2859 573.7277 585.4459 562.4977 585.4459C546.3877 585.4459 535.1577 597.6559 535.1577 613.7659C535.1577 621.5859 536.6177 628.9059 539.5477 635.7459C553.7077 676.2659 602.0477 708.4959 663.5777 708.4959ZM332.5177 649.4159C286.1377 649.4159 256.8377 591.7959 256.8377 498.0459C256.8377 404.2959 286.1377 346.6759 332.5177 346.6759C378.9077 346.6759 408.2077 404.2959 408.2077 498.0459C408.2077 591.7959 379.3977 649.4159 332.5177 649.4159Z"/>
</svg>