<?xml version="1.0" encoding="UTF-8" standalone="no"?>
<svg xmlns="http://www.w3.org/2000/svg"
     width="996.09375" height="996.09375"
     viewBox="0 0 996.09375 996.09375"
     fill="currentColor">
  <path d="M498.0477 996.0959C770.5077 996.0959 996.0977 770.0159 996.0977 498.0459C996.0977 225.5859 770.0177 -0.0041 497.5577 -0.0041C225.5877 -0.0041 -0.0023 225.5859 -0.0023 498.0459C-0.0023 770.0159 226.0777 996.0959 498.0477 996.0959ZM327.6377 715.3359C241.2077 715.3359 183.5977 632.3259 183.5977 498.0459C183.5977 363.7659 241.2077 280.7659 327.6377 280.7659C414.5477 280.7659 471.6777 363.7659 471.6777 498.0459C471.6777 632.3259 414.5477 715.3359 327.6377 715.3359ZM668.9477 715.3359C605.9577 715.3359 555.6677 682.1259 541.0177 640.1359C538.0877 633.2959 536.6177 625.4859 536.6177 617.1859C536.6177 600.5859 548.3377 587.8859 564.9377 587.8859C576.6577 587.8859 586.9177 595.2159 594.2377 609.8659C608.3977 640.1359 638.1877 658.2059 672.3677 658.2059C720.7077 658.2059 753.9077 626.4659 753.9077 573.7259C753.9077 527.3459 724.1177 492.1859 679.6877 492.1859C657.7177 492.1859 641.5977 499.5159 621.0977 517.5759C604.9777 530.7659 595.2177 535.1559 580.0777 535.1559C556.6377 535.1559 542.4777 517.5759 544.4377 491.2059L556.6377 334.4759C558.1077 307.6159 576.1677 291.5059 603.0277 291.5059H775.3877C790.0377 291.5059 800.7777 303.7059 800.7777 319.8259C800.7777 336.4259 789.5477 348.1459 775.3877 348.1459H608.8877L599.6077 477.5359H602.0477C616.6977 454.5859 652.8277 437.9859 686.5277 437.9859C764.6477 437.9859 816.8977 494.6259 816.8977 572.2659C816.8977 660.6459 757.8077 715.3359 668.9477 715.3359ZM327.6377 653.8059C375.9777 653.8059 405.2777 594.7259 405.2777 498.0459C405.2777 401.3659 375.4877 342.2859 327.6377 342.2859C280.2777 342.2859 249.9977 401.3659 249.9977 498.0459C249.9977 594.7259 280.2777 653.8059 327.6377 653.8059Z"/>
</svg>