<?xml version="1.0" encoding="UTF-8" standalone="no"?>
<svg xmlns="http://www.w3.org/2000/svg"
     width="898.92578125" height="898.92578125"
     viewBox="0 0 898.92578125 898.92578125"
     fill="currentColor">
  <path d="M153.3183 898.9295H745.6083C848.1483 898.9295 898.9283 848.1495 898.9283 747.5595V151.3695C898.9283 50.7795 848.1483 -0.0005 745.6083 -0.0005H153.3183C51.2683 -0.0005 -0.0017 50.2895 -0.0017 151.3695V747.5595C-0.0017 848.6295 51.2683 898.9295 153.3183 898.9295ZM279.2983 666.0195C192.8683 666.0195 135.2583 583.0095 135.2583 448.7295C135.2583 314.4495 192.8683 231.4495 279.2983 231.4495C366.2083 231.4495 423.3383 314.4495 423.3383 448.7295C423.3383 583.0095 366.2083 666.0195 279.2983 666.0195ZM620.6083 666.0195C557.6183 666.0195 507.8083 632.8095 492.6783 590.8195C489.7483 583.9795 488.2783 576.1695 488.2783 567.8695C488.2783 551.2695 499.9983 538.5695 516.5983 538.5695C528.3183 538.5695 538.5783 545.8995 545.8983 560.5495C560.5483 590.8195 589.8483 608.8895 624.0283 608.8895C672.3683 608.8895 705.5683 577.1495 705.5683 524.4095C705.5683 478.0295 675.7783 442.8695 631.3483 442.8695C609.3783 442.8695 593.2583 450.1995 572.7583 468.2595C556.6383 481.4495 547.3683 485.8395 531.7383 485.8395C508.2983 485.8395 494.1383 468.2595 496.0983 441.8895L508.2983 285.1595C509.7683 258.2995 527.8283 242.1895 554.6883 242.1895H727.0483C742.1883 242.1895 752.4383 254.3895 752.4383 270.5095C752.4383 287.1095 741.6983 298.8295 727.0483 298.8295H561.0383L551.2683 428.2195H553.7083C568.3583 405.2695 604.9783 388.6695 638.1883 388.6695C716.3083 388.6695 768.5583 445.3095 768.5583 522.9495C768.5583 611.3295 709.4683 666.0195 620.6083 666.0195ZM279.2983 604.4895C328.1283 604.4895 356.9383 545.4095 356.9383 448.7295C356.9383 352.0495 327.6383 292.9695 279.2983 292.9695C231.9383 292.9695 201.6583 352.0495 201.6583 448.7295C201.6583 545.4095 231.9383 604.4895 279.2983 604.4895Z"/>
</svg>