<?xml version="1.0" encoding="UTF-8" standalone="no"?>
<svg xmlns="http://www.w3.org/2000/svg"
     width="996.09375" height="996.09375"
     viewBox="0 0 996.09375 996.09375"
     fill="currentColor">
  <path d="M498.0477 996.0959C770.5077 996.0959 996.0977 770.0159 996.0977 498.0459C996.0977 225.5859 770.0177 -0.0041 497.5577 -0.0041C225.5877 -0.0041 -0.0023 225.5859 -0.0023 498.0459C-0.0023 770.0159 226.0777 996.0959 498.0477 996.0959ZM498.0477 913.0859C267.5777 913.0859 83.4977 728.5159 83.4977 498.0459C83.4977 267.5759 267.0877 83.0059 497.5577 83.0059C728.0277 83.0059 913.0877 267.5759 913.0877 498.0459C913.0877 728.5159 728.5177 913.0859 498.0477 913.0859ZM332.0277 708.4959C416.5077 708.4959 472.1677 627.9259 472.1677 498.0459C472.1677 368.1659 416.5077 287.5959 332.0277 287.5959C248.0477 287.5959 192.3877 368.1659 192.3877 498.0459C192.3877 627.9259 248.0477 708.4959 332.0277 708.4959ZM672.3677 708.9859C751.9577 708.9859 808.1077 656.7359 808.1077 567.3859C808.1077 483.3959 750.9777 437.0159 687.4977 437.0159C635.7377 437.0159 602.5377 466.3059 590.8177 498.5359H586.9177V494.1359C586.9177 401.8559 624.5077 343.7459 679.1977 343.7459C707.5177 343.7459 727.0477 357.4259 739.2577 376.4659C748.0477 388.6759 755.3677 394.5359 768.5577 394.5359C782.2277 394.5359 792.9677 383.7859 792.9677 367.6759C792.9677 361.3259 791.5077 355.4659 789.0577 349.1259C776.3677 316.4059 737.3077 287.5959 681.6377 287.5959C587.8877 287.5959 529.7877 360.8359 529.7877 509.2759C529.7877 568.8459 539.5477 612.3059 556.1477 643.0659C581.0577 689.9459 623.0477 708.9859 672.3677 708.9859ZM332.0277 649.4159C285.6477 649.4159 256.8377 591.7959 256.8377 498.0459C256.8377 404.2959 285.6477 346.6759 332.0277 346.6759C378.9077 346.6759 407.7177 404.2959 407.7177 498.0459C407.7177 591.7959 379.3977 649.4159 332.0277 649.4159ZM669.9177 655.2759C624.5077 655.2759 592.7777 619.6259 592.7777 569.3359C592.7777 521.4859 624.0277 487.3059 669.9177 487.3059C715.8177 487.3059 746.5777 520.9959 746.5777 569.8259C746.5777 622.0659 716.7977 655.2759 669.9177 655.2759Z"/>
</svg>