<?xml version="1.0" encoding="UTF-8" standalone="no"?>
<svg xmlns="http://www.w3.org/2000/svg"
     width="898.92578125" height="898.92578125"
     viewBox="0 0 898.92578125 898.92578125"
     fill="currentColor">
  <path d="M153.3183 898.9295H745.6083C848.1483 898.9295 898.9283 848.1495 898.9283 747.5595V151.3695C898.9283 50.7795 848.1483 -0.0005 745.6083 -0.0005H153.3183C51.2683 -0.0005 -0.0017 50.2895 -0.0017 151.3695V747.5595C-0.0017 848.6295 51.2683 898.9295 153.3183 898.9295ZM154.2983 820.3095C105.4683 820.3095 78.6183 794.4295 78.6183 743.6495V155.2695C78.6183 104.4895 105.4683 78.6095 154.2983 78.6095H744.6283C792.9683 78.6095 820.3083 104.4895 820.3083 155.2695V743.6495C820.3083 794.4295 792.9683 820.3095 744.6283 820.3095ZM284.6683 659.1795C368.6483 659.1795 424.3183 578.6095 424.3183 448.7295C424.3183 318.8495 368.6483 238.2795 284.6683 238.2795C200.1983 238.2795 145.0183 318.8495 145.0183 448.7295C145.0183 578.6095 200.1983 659.1795 284.6683 659.1795ZM624.5083 659.6695C704.0983 659.6695 760.7383 607.4195 760.7383 518.0695C760.7383 434.0795 703.1283 387.6995 639.6483 387.6995C587.8883 387.6995 554.6883 416.9895 542.9683 449.2195H539.5483V444.8195C539.5483 352.5395 576.6583 294.4295 631.3483 294.4295C659.6683 294.4295 679.1983 308.1095 691.8983 327.1495C700.1983 339.3595 707.5183 345.2195 721.1883 345.2195C734.3783 345.2195 745.1183 334.4695 745.1183 318.3595C745.1183 312.0095 743.6483 306.1495 741.2083 299.8095C728.5183 267.0895 689.4483 238.2795 633.7883 238.2795C540.0383 238.2795 481.9383 311.5195 481.9383 459.9595C481.9383 519.5295 491.6983 562.9895 508.2983 593.7495C533.1983 640.6295 575.1983 659.6695 624.5083 659.6695ZM284.6683 600.0995C237.7883 600.0995 208.9883 542.4795 208.9883 448.7295C208.9883 354.9795 237.7883 297.3595 284.6683 297.3595C331.0583 297.3595 359.8683 354.9795 359.8683 448.7295C359.8683 542.4795 331.5383 600.0995 284.6683 600.0995ZM622.0683 605.9595C576.6583 605.9595 544.9183 570.3095 544.9183 520.0195C544.9183 472.1695 576.1683 437.9895 622.0683 437.9895C667.9683 437.9895 699.2183 471.6795 699.2183 520.5095C699.2183 572.7495 668.9483 605.9595 622.0683 605.9595Z"/>
</svg>