<?xml version="1.0" encoding="UTF-8" standalone="no"?>
<svg xmlns="http://www.w3.org/2000/svg"
     width="996.09375" height="996.09375"
     viewBox="0 0 996.09375 996.09375"
     fill="currentColor">
  <path d="M498.0477 996.0959C770.5077 996.0959 996.0977 770.0159 996.0977 498.0459C996.0977 225.5859 770.0177 -0.0041 497.5577 -0.0041C225.5877 -0.0041 -0.0023 225.5859 -0.0023 498.0459C-0.0023 770.0159 226.0777 996.0959 498.0477 996.0959ZM341.3077 715.3359C254.3977 715.3359 197.2677 632.3259 197.2677 498.0459C197.2677 363.7659 254.3977 280.7659 341.3077 280.7659C427.7377 280.7659 485.3477 363.7659 485.3477 498.0459C485.3477 632.3259 427.7377 715.3359 341.3077 715.3359ZM610.3477 709.4759C590.8177 709.4759 576.1677 695.7959 576.1677 676.7559C576.1677 666.9959 577.6377 661.1359 582.0277 653.3159L737.7977 351.5659V347.6559H561.5277C543.4577 347.6559 532.2277 336.4259 532.2277 319.8259C532.2277 302.7359 543.4577 291.0159 561.5277 291.0159H764.1577C791.5077 291.0159 809.0777 310.5459 809.0777 334.9559C809.0777 345.7059 807.1277 354.9759 799.3177 371.0959L642.5777 684.5659C633.2977 702.1459 624.0277 709.4759 610.3477 709.4759ZM341.3077 653.8059C389.6477 653.8059 418.9477 594.7259 418.9477 498.0459C418.9477 401.3659 388.6677 342.2859 341.3077 342.2859C293.4577 342.2859 263.6677 401.3659 263.6677 498.0459C263.6677 594.7259 293.4577 653.8059 341.3077 653.8059Z"/>
</svg>