<?xml version="1.0" encoding="UTF-8" standalone="no"?>
<svg xmlns="http://www.w3.org/2000/svg"
     width="898.92578125" height="898.92578125"
     viewBox="0 0 898.92578125 898.92578125"
     fill="currentColor">
  <path d="M153.3183 898.9295H745.6083C848.1483 898.9295 898.9283 848.1495 898.9283 747.5595V151.3695C898.9283 50.7795 848.1483 -0.0005 745.6083 -0.0005H153.3183C51.2683 -0.0005 -0.0017 50.2895 -0.0017 151.3695V747.5595C-0.0017 848.6295 51.2683 898.9295 153.3183 898.9295ZM154.2983 820.3095C105.4683 820.3095 78.6183 794.4295 78.6183 743.6495V155.2695C78.6183 104.4895 105.4683 78.6095 154.2983 78.6095H744.6283C792.9683 78.6095 820.3083 104.4895 820.3083 155.2695V743.6495C820.3083 794.4295 792.9683 820.3095 744.6283 820.3095ZM286.6183 659.1795C370.6083 659.1795 426.2683 578.6095 426.2683 448.7295C426.2683 318.8495 370.6083 238.2795 286.6183 238.2795C202.6383 238.2795 146.9683 318.8495 146.9683 448.7295C146.9683 578.6095 202.6383 659.1795 286.6183 659.1795ZM619.1383 659.1795C703.6183 659.1795 761.7183 610.3495 761.7183 539.5495C761.7183 489.7495 731.4483 449.2195 678.7083 438.4795V435.5495C723.6283 423.3395 747.5583 388.1795 747.5583 345.6995C747.5583 282.2295 694.8283 238.2795 620.1183 238.2795C544.9183 238.2795 492.1883 282.2295 492.1883 345.6995C492.1883 388.1795 515.6283 422.3595 561.0383 435.5495V438.4795C508.2983 449.2195 478.0283 490.2295 478.0283 540.0395C478.0283 611.3295 534.6683 659.1795 619.1383 659.1795ZM620.1183 416.0195C581.5383 416.0195 554.6883 388.6695 554.6883 351.5595C554.6883 314.4495 581.5383 289.0595 620.1183 289.0595C658.1983 289.0595 685.0583 314.4495 685.0583 351.5595C685.0583 388.6695 658.1983 416.0195 620.1183 416.0195ZM286.6183 600.0995C240.2383 600.0995 210.9383 542.4795 210.9383 448.7295C210.9383 354.9795 240.2383 297.3595 286.6183 297.3595C333.0083 297.3595 362.3083 354.9795 362.3083 448.7295C362.3083 542.4795 333.4983 600.0995 286.6183 600.0995ZM620.6083 608.3995C573.7283 608.3995 540.0383 578.6095 540.0383 535.6395C540.0383 493.6495 573.7283 462.8895 620.6083 462.8895C667.4783 462.8895 700.1983 493.1595 700.1983 535.6395C700.1983 578.6095 666.5083 608.3995 620.6083 608.3995Z"/>
</svg>