<?xml version="1.0" encoding="UTF-8" standalone="no"?>
<svg xmlns="http://www.w3.org/2000/svg"
     width="898.92578125" height="898.92578125"
     viewBox="0 0 898.92578125 898.92578125"
     fill="currentColor">
  <path d="M153.3183 898.9295H745.6083C848.1483 898.9295 898.9283 848.1495 898.9283 747.5595V151.3695C898.9283 50.7795 848.1483 -0.0005 745.6083 -0.0005H153.3183C51.2683 -0.0005 -0.0017 50.2895 -0.0017 151.3695V747.5595C-0.0017 848.6295 51.2683 898.9295 153.3183 898.9295ZM281.2483 666.0195C194.8283 666.0195 137.2083 583.0095 137.2083 448.7295C137.2083 314.4495 194.8283 231.4495 281.2483 231.4495C368.1683 231.4495 425.2883 314.4495 425.2883 448.7295C425.2883 583.0095 368.1683 666.0195 281.2483 666.0195ZM624.5083 666.0195C536.6183 666.0195 478.5183 616.6995 478.5183 542.9695C478.5183 491.6995 509.7683 449.2195 564.4483 437.9895V435.0595C517.5783 421.3895 493.1683 386.2295 493.1683 342.2895C493.1683 276.8595 547.8483 231.4495 625.4883 231.4495C702.1483 231.4495 756.8383 276.8595 756.8383 342.2895C756.8383 386.2295 731.9383 422.3595 685.5483 435.0595V437.9895C740.2383 449.2195 771.4883 491.2095 771.4883 542.4795C771.4883 615.7195 711.4283 666.0195 624.5083 666.0195ZM625.4883 415.0395C664.5483 415.0395 691.8983 386.7195 691.8983 348.6295C691.8983 310.5495 664.5483 284.1795 625.4883 284.1795C585.4483 284.1795 558.1083 310.5495 558.1083 348.6295C558.1083 386.7195 585.4483 415.0395 625.4883 415.0395ZM281.2483 604.4895C329.5883 604.4895 358.8883 545.4095 358.8883 448.7295C358.8883 352.0495 329.0983 292.9695 281.2483 292.9695C233.8883 292.9695 203.6183 352.0495 203.6183 448.7295C203.6183 545.4095 233.8883 604.4895 281.2483 604.4895ZM625.9783 613.2795C672.8483 613.2795 707.5183 582.5195 707.5183 538.5695C707.5183 494.6295 673.8283 463.3795 625.9783 463.3795C577.6383 463.3795 542.9683 495.1195 542.9683 538.5695C542.9683 582.5195 577.6383 613.2795 625.9783 613.2795Z"/>
</svg>