<?xml version="1.0" encoding="UTF-8" standalone="no"?>
<svg xmlns="http://www.w3.org/2000/svg"
     width="996.09375" height="996.09375"
     viewBox="0 0 996.09375 996.09375"
     fill="currentColor">
  <path d="M498.0477 996.0959C770.5077 996.0959 996.0977 770.0159 996.0977 498.0459C996.0977 225.5859 770.0177 -0.0041 497.5577 -0.0041C225.5877 -0.0041 -0.0023 225.5859 -0.0023 498.0459C-0.0023 770.0159 226.0777 996.0959 498.0477 996.0959ZM330.0777 715.3359C243.6477 715.3359 186.0377 632.3259 186.0377 498.0459C186.0377 363.7659 243.6477 280.7659 330.0777 280.7659C416.9877 280.7659 474.1177 363.7659 474.1177 498.0459C474.1177 632.3259 416.9877 715.3359 330.0777 715.3359ZM663.5777 715.3359C593.7477 715.3359 552.7377 675.7859 544.4377 647.9459C542.4777 642.0859 541.0177 635.2559 541.0177 629.8859C541.0177 612.3059 552.2477 600.0959 567.8677 600.0959C581.0577 600.0959 590.8177 605.4659 598.6377 619.6259C610.8377 642.0859 633.7877 656.7359 662.5977 656.7359C720.7077 656.7359 758.7877 597.6559 757.8077 497.5559H754.8877C741.2077 531.7359 708.9877 561.5259 653.8077 561.5259C587.8877 561.5259 529.2977 513.1859 529.2977 426.7559C529.2977 337.8859 584.4777 280.7659 668.9477 280.7659C763.1877 280.7659 818.3577 352.0459 818.3577 483.8859C818.3577 635.7459 763.6677 715.3359 663.5777 715.3359ZM672.8477 509.2759C719.7277 509.2759 752.4377 473.6359 752.4377 424.3159C752.4377 372.5559 719.2377 335.9359 673.3377 335.9359C624.5077 335.9359 593.2577 370.6059 593.2577 423.3359C593.2577 473.6359 624.9977 509.2759 672.8477 509.2759ZM330.0777 653.8059C378.4177 653.8059 407.7177 594.7259 407.7177 498.0459C407.7177 401.3659 377.9277 342.2859 330.0777 342.2859C282.7177 342.2859 252.4377 401.3659 252.4377 498.0459C252.4377 594.7259 282.7177 653.8059 330.0777 653.8059Z"/>
</svg>