<?xml version="1.0" encoding="UTF-8" standalone="no"?>
<svg xmlns="http://www.w3.org/2000/svg"
     width="898.92578125" height="898.92578125"
     viewBox="0 0 898.92578125 898.92578125"
     fill="currentColor">
  <path d="M153.3183 898.9295H745.6083C848.1483 898.9295 898.9283 848.1495 898.9283 747.5595V151.3695C898.9283 50.7795 848.1483 -0.0005 745.6083 -0.0005H153.3183C51.2683 -0.0005 -0.0017 50.2895 -0.0017 151.3695V747.5595C-0.0017 848.6295 51.2683 898.9295 153.3183 898.9295ZM281.7383 666.0195C195.3083 666.0195 137.6983 583.0095 137.6983 448.7295C137.6983 314.4495 195.3083 231.4495 281.7383 231.4495C368.6483 231.4495 425.7783 314.4495 425.7783 448.7295C425.7783 583.0095 368.6483 666.0195 281.7383 666.0195ZM615.2383 666.0195C545.4083 666.0195 504.8783 626.4695 496.0983 598.6295C494.1383 592.7695 492.6783 585.9395 492.6783 580.5695C492.6783 562.9895 503.9083 550.7795 519.5283 550.7795C532.7183 550.7795 542.4783 556.1495 550.2883 570.3095C562.4983 592.7695 585.4483 607.4195 614.2583 607.4195C672.3683 607.4195 710.4483 548.3395 709.4683 448.2395H706.5383C693.3583 482.4195 661.1283 512.2095 605.4683 512.2095C539.5483 512.2095 480.9583 463.8695 480.9583 377.4395C480.9583 288.5695 536.1283 231.4495 620.6083 231.4495C715.3283 231.4495 770.0183 302.7295 770.0183 434.5695C770.0183 586.4295 715.3283 666.0195 615.2383 666.0195ZM624.9983 459.9595C671.3883 459.9595 704.0983 424.3195 704.0983 374.9995C704.0983 323.2395 670.8983 286.6195 624.9983 286.6195C576.1683 286.6195 544.9183 321.2895 544.9183 374.0195C544.9183 424.3195 577.1483 459.9595 624.9983 459.9595ZM281.7383 604.4895C330.5683 604.4895 359.3783 545.4095 359.3783 448.7295C359.3783 352.0495 330.0783 292.9695 281.7383 292.9695C234.3783 292.9695 204.0983 352.0495 204.0983 448.7295C204.0983 545.4095 234.3783 604.4895 281.7383 604.4895Z"/>
</svg>