<?xml version="1.0" encoding="UTF-8" standalone="no"?>
<svg xmlns="http://www.w3.org/2000/svg"
     width="996.09375" height="996.09375"
     viewBox="0 0 996.09375 996.09375"
     fill="currentColor">
  <path d="M498.0477 996.0959C770.5077 996.0959 996.0977 770.0159 996.0977 498.0459C996.0977 225.5859 770.0177 -0.0041 497.5577 -0.0041C225.5877 -0.0041 -0.0023 225.5859 -0.0023 498.0459C-0.0023 770.0159 226.0777 996.0959 498.0477 996.0959ZM498.0477 913.0859C267.5777 913.0859 83.4977 728.5159 83.4977 498.0459C83.4977 267.5759 267.0877 83.0059 497.5577 83.0059C728.0277 83.0059 913.0877 267.5759 913.0877 498.0459C913.0877 728.5159 728.5177 913.0859 498.0477 913.0859ZM522.4577 720.2159C547.8477 720.2159 562.0077 703.6159 562.0077 676.2659V319.3359C562.0077 291.0159 546.8777 275.3859 520.5077 275.3859C502.4377 275.3859 489.7477 280.2759 469.2377 294.4359L381.3477 354.0059C370.6077 361.8159 366.2077 369.1359 366.2077 381.3459C366.2077 396.4859 377.9277 410.6459 393.5577 410.6459C401.3677 410.6459 406.2477 409.6659 417.4777 401.8559L480.4677 360.3559H484.3777V676.2659C484.3777 703.6159 498.5377 720.2159 522.4577 720.2159Z"/>
</svg>