<?xml version="1.0" encoding="UTF-8" standalone="no"?>
<svg xmlns="http://www.w3.org/2000/svg"
     width="898.92578125" height="735.83984375"
     viewBox="0 0 898.92578125 735.83984375"
     fill="currentColor">
  <path d="M-0.0017 696.2866C-0.0017 717.7766 17.5783 735.8366 39.0583 735.8366C61.0383 735.8366 78.6183 717.7766 78.6183 696.2866V39.0666C78.6183 17.5766 61.0383 -0.0034 39.0583 -0.0034C17.5783 -0.0034 -0.0017 17.5766 -0.0017 39.0666ZM820.3083 696.2866C820.3083 717.7766 838.3783 735.8366 859.8683 735.8366C881.3483 735.8366 898.9283 717.7766 898.9283 696.2866V39.0666C898.9283 17.5766 881.3483 -0.0034 859.8683 -0.0034C838.3783 -0.0034 820.3083 17.5766 820.3083 39.0666ZM474.6083 589.3566C499.9983 589.3566 514.1583 572.7566 514.1583 545.4066V188.4766C514.1583 160.1566 499.0283 144.5266 472.6583 144.5266C455.0783 144.5266 441.8983 149.4166 421.3883 163.5766L333.4983 223.1466C322.7583 230.9566 318.3583 238.2766 318.3583 250.4866C318.3583 265.6266 330.5683 279.7866 346.1883 279.7866C353.5183 279.7866 358.3983 278.8066 369.6283 270.9966L433.1083 229.4966H436.5283V545.4066C436.5283 572.7566 450.6883 589.3566 474.6083 589.3566Z"/>
</svg>