<?xml version="1.0" encoding="UTF-8" standalone="no"?>
<svg xmlns="http://www.w3.org/2000/svg"
     width="898.92578125" height="898.92578125"
     viewBox="0 0 898.92578125 898.92578125"
     fill="currentColor">
  <path d="M153.3183 898.9295H745.6083C848.1483 898.9295 898.9283 848.1495 898.9283 747.5595V151.3695C898.9283 50.7795 848.1483 -0.0005 745.6083 -0.0005H153.3183C51.2683 -0.0005 -0.0017 50.2895 -0.0017 151.3695V747.5595C-0.0017 848.6295 51.2683 898.9295 153.3183 898.9295ZM475.5883 677.7295C450.6883 677.7295 436.0383 660.6395 436.0383 632.3195V307.1295H432.6183L367.1883 349.6095C355.4683 357.9095 350.5883 358.8895 342.7783 358.8895C326.6583 358.8895 313.9683 344.2395 313.9683 328.6095C313.9683 315.9195 318.8483 308.1095 329.5883 300.2895L420.4083 238.7695C441.4083 224.1195 455.0783 219.2395 473.6283 219.2395C500.9783 219.2395 516.5983 235.3495 516.5983 264.6495V632.3195C516.5983 660.6395 501.9483 677.7295 475.5883 677.7295Z"/>
</svg>