<?xml version="1.0" encoding="UTF-8" standalone="no"?>
<svg xmlns="http://www.w3.org/2000/svg"
     width="996.09375" height="996.09375"
     viewBox="0 0 996.09375 996.09375"
     fill="currentColor">
  <path d="M498.0477 996.0959C770.5077 996.0959 996.0977 770.0159 996.0977 498.0459C996.0977 225.5859 770.0177 -0.0041 497.5577 -0.0041C225.5877 -0.0041 -0.0023 225.5859 -0.0023 498.0459C-0.0023 770.0159 226.0777 996.0959 498.0477 996.0959ZM628.9077 715.3359C542.4777 715.3359 484.8677 632.3259 484.8677 498.0459C484.8677 363.7659 542.4777 280.7659 628.9077 280.7659C715.8177 280.7659 772.9477 363.7659 772.9477 498.0459C772.9477 632.3259 715.8177 715.3359 628.9077 715.3359ZM362.3077 708.9859C343.2577 708.9859 331.0577 696.2859 331.0577 676.7559V364.2559H328.1277L274.8977 403.8059C263.1877 413.0859 257.8077 413.5759 249.9977 413.5759C235.3477 413.5759 221.1877 400.3859 221.1877 383.2959C221.1877 370.1159 227.5377 360.8359 238.2777 353.5159L314.4577 301.2659C332.5177 289.0659 342.2877 284.1759 358.3977 284.1759C379.8877 284.1759 394.5277 299.3159 394.5277 320.3159V676.7559C394.5277 696.2859 381.8377 708.9859 362.3077 708.9859ZM628.9077 653.8059C677.2477 653.8059 707.0277 594.7259 707.0277 498.0459C707.0277 401.3659 676.7577 342.2859 628.9077 342.2859C581.5477 342.2859 551.2677 401.3659 551.2677 498.0459C551.2677 594.7259 581.5477 653.8059 628.9077 653.8059Z"/>
</svg>