<?xml version="1.0" encoding="UTF-8" standalone="no"?>
<svg xmlns="http://www.w3.org/2000/svg"
     width="898.92578125" height="898.92578125"
     viewBox="0 0 898.92578125 898.92578125"
     fill="currentColor">
  <path d="M153.3183 898.9295H745.6083C848.1483 898.9295 898.9283 848.1495 898.9283 747.5595V151.3695C898.9283 50.7795 848.1483 -0.0005 745.6083 -0.0005H153.3183C51.2683 -0.0005 -0.0017 50.2895 -0.0017 151.3695V747.5595C-0.0017 848.6295 51.2683 898.9295 153.3183 898.9295ZM580.5683 666.0195C494.1383 666.0195 436.5283 583.0095 436.5283 448.7295C436.5283 314.4495 494.1383 231.4495 580.5683 231.4495C667.4783 231.4495 724.6083 314.4495 724.6083 448.7295C724.6083 583.0095 667.4783 666.0195 580.5683 666.0195ZM313.9683 659.6695C294.9183 659.6695 282.7183 646.9695 282.7183 627.4395V314.9395H279.7883L226.5583 354.4895C214.8483 363.7695 209.9583 364.2595 201.6583 364.2595C187.0083 364.2595 172.8483 351.0695 172.8483 333.9795C172.8483 320.7995 179.1983 311.5195 189.9383 304.1995L266.1183 251.9495C284.1783 239.7495 293.9483 234.8595 310.5483 234.8595C331.5383 234.8595 346.1883 249.9995 346.1883 270.9995V627.4395C346.1883 646.9695 333.4983 659.6695 313.9683 659.6695ZM580.5683 604.4895C628.9083 604.4895 658.6883 545.4095 658.6883 448.7295C658.6883 352.0495 628.4183 292.9695 580.5683 292.9695C533.1983 292.9695 502.9283 352.0495 502.9283 448.7295C502.9283 545.4095 533.1983 604.4895 580.5683 604.4895Z"/>
</svg>