<?xml version="1.0" encoding="UTF-8" standalone="no"?>
<svg xmlns="http://www.w3.org/2000/svg"
     width="898.92578125" height="735.83984375"
     viewBox="0 0 898.92578125 735.83984375"
     fill="currentColor">
  <path d="M-0.0017 696.2866C-0.0017 717.7766 17.5783 735.8366 39.0583 735.8366C61.0383 735.8366 78.6183 717.7766 78.6183 696.2866V39.0666C78.6183 17.5766 61.0383 -0.0034 39.0583 -0.0034C17.5783 -0.0034 -0.0017 17.5766 -0.0017 39.0666ZM820.3083 696.2866C820.3083 717.7766 838.3783 735.8366 859.8683 735.8366C881.3483 735.8366 898.9283 717.7766 898.9283 696.2866V39.0666C898.9283 17.5766 881.3483 -0.0034 859.8683 -0.0034C838.3783 -0.0034 820.3083 17.5766 820.3083 39.0666ZM347.6583 571.7766C366.2083 571.7766 378.4183 559.5666 378.4183 540.5266V194.8266C378.4183 174.3166 364.7483 159.6666 344.2383 159.6666C328.1283 159.6666 318.8483 164.5466 301.2683 176.2666L227.0483 227.0466C216.7983 234.3766 210.9383 243.1666 210.9383 255.8566C210.9383 272.4566 224.6083 285.1566 238.7683 285.1566C246.5783 285.1566 250.9783 284.6666 262.6983 275.8766L314.4483 237.3066H317.3783V540.5266C317.3783 559.5666 329.5883 571.7766 347.6583 571.7766ZM603.5183 571.7766C622.0683 571.7766 634.2783 559.5666 634.2783 540.5266V194.8266C634.2783 174.3166 620.6083 159.6666 600.0983 159.6666C583.9883 159.6666 574.7083 164.5466 557.1283 176.2666L483.3983 227.0466C472.6583 234.3766 466.7983 243.1666 466.7983 255.8566C466.7983 272.4566 480.4683 285.1566 494.6283 285.1566C502.4383 285.1566 507.3283 284.6666 518.5583 275.8766L570.7983 237.3066H573.2383V540.5266C573.2383 559.5666 585.4483 571.7766 603.5183 571.7766Z"/>
</svg>