<?xml version="1.0" encoding="UTF-8" standalone="no"?>
<svg xmlns="http://www.w3.org/2000/svg"
     width="996.09375" height="996.09375"
     viewBox="0 0 996.09375 996.09375"
     fill="currentColor">
  <path d="M498.0477 996.0959C770.5077 996.0959 996.0977 770.0159 996.0977 498.0459C996.0977 225.5859 770.0177 -0.0041 497.5577 -0.0041C225.5877 -0.0041 -0.0023 225.5859 -0.0023 498.0459C-0.0023 770.0159 226.0777 996.0959 498.0477 996.0959ZM498.0477 913.0859C267.5777 913.0859 83.4977 728.5159 83.4977 498.0459C83.4977 267.5759 267.0877 83.0059 497.5577 83.0059C728.0277 83.0059 913.0877 267.5759 913.0877 498.0459C913.0877 728.5159 728.5177 913.0859 498.0477 913.0859ZM683.1077 707.5159C702.6377 707.5159 712.8877 693.8459 712.8877 674.8059V617.1859H739.2577C756.3477 617.1859 767.0877 607.4259 767.0877 590.3359C767.0877 572.7559 755.8577 562.4959 739.2577 562.4959H712.8877V333.9859C712.8877 305.6659 693.3577 287.5959 664.5477 287.5959C636.2277 287.5959 619.1377 298.3359 603.0277 325.1959C562.4977 393.5559 513.1877 477.5359 479.9777 536.6259C472.1677 551.7559 469.7277 562.4959 469.7277 575.6859C469.7277 601.5659 486.3277 617.1859 511.2277 617.1859H653.8077V674.8059C653.8077 693.3559 664.0577 707.5159 683.1077 707.5159ZM362.7977 702.6359C381.8377 702.6359 394.0477 690.4259 394.0477 671.3859V325.6859C394.0477 305.1759 379.8877 290.5259 359.3777 290.5259C343.7477 290.5259 333.9877 295.4059 316.8977 307.1259L242.6777 357.9059C232.4177 365.2359 226.0777 374.0259 226.0777 386.7159C226.0777 403.3159 239.7477 416.0159 253.9077 416.0159C261.7177 416.0159 266.5977 415.5259 277.8277 406.7359L330.0777 368.1659H333.0077V671.3859C333.0077 690.4259 344.7277 702.6359 362.7977 702.6359ZM653.8077 562.4959H533.2077V560.5459C562.0077 505.3759 612.3077 419.4359 651.3677 353.5159H653.8077Z"/>
</svg>