<?xml version="1.0" encoding="UTF-8" standalone="no"?>
<svg xmlns="http://www.w3.org/2000/svg"
     width="898.92578125" height="898.92578125"
     viewBox="0 0 898.92578125 898.92578125"
     fill="currentColor">
  <path d="M153.3183 898.9295H745.6083C848.1483 898.9295 898.9283 848.1495 898.9283 747.5595V151.3695C898.9283 50.7795 848.1483 -0.0005 745.6083 -0.0005H153.3183C51.2683 -0.0005 -0.0017 50.2895 -0.0017 151.3695V747.5595C-0.0017 848.6295 51.2683 898.9295 153.3183 898.9295ZM154.2983 820.3095C105.4683 820.3095 78.6183 794.4295 78.6183 743.6495V155.2695C78.6183 104.4895 105.4683 78.6095 154.2983 78.6095H744.6283C792.9683 78.6095 820.3083 104.4895 820.3083 155.2695V743.6495C820.3083 794.4295 792.9683 820.3095 744.6283 820.3095ZM635.2583 658.1995C654.7883 658.1995 665.0383 644.5295 665.0383 625.4895V567.8695H691.8983C708.4983 567.8695 719.2383 558.1095 719.2383 541.0195C719.2383 523.4395 708.4983 513.1795 691.8983 513.1795H665.0383V284.6695C665.0383 256.3495 645.5083 238.2795 616.6983 238.2795C588.3783 238.2795 571.2883 249.0195 555.6683 275.8795C514.6483 344.2395 465.3283 428.2195 432.6183 487.3095C424.8083 502.4395 421.8783 513.1795 421.8783 526.3695C421.8783 552.2495 438.9683 567.8695 463.3783 567.8695H605.9583V625.4895C605.9583 644.0395 616.2083 658.1995 635.2583 658.1995ZM314.9383 653.3195C333.9883 653.3195 346.1883 641.1095 346.1883 622.0695V276.3695C346.1883 255.8595 332.0283 241.2095 312.0083 241.2095C295.8983 241.2095 286.1283 246.0895 269.0383 257.8095L194.8283 308.5895C184.5683 315.9195 178.2183 324.7095 178.2183 337.3995C178.2183 353.9995 191.8983 366.6995 206.0583 366.6995C214.3583 366.6995 218.7483 366.2095 229.9783 357.4195L282.2283 318.8495H285.1583V622.0695C285.1583 641.1095 296.8783 653.3195 314.9383 653.3195ZM605.9583 513.1795H485.3483V511.2295C514.1583 456.0595 564.4483 370.1195 603.5183 304.1995H605.9583Z"/>
</svg>