<?xml version="1.0" encoding="UTF-8" standalone="no"?>
<svg xmlns="http://www.w3.org/2000/svg"
     width="996.09375" height="996.09375"
     viewBox="0 0 996.09375 996.09375"
     fill="currentColor">
  <path d="M498.0477 996.0959C770.5077 996.0959 996.0977 770.0159 996.0977 498.0459C996.0977 225.5859 770.0177 -0.0041 497.5577 -0.0041C225.5877 -0.0041 -0.0023 225.5859 -0.0023 498.0459C-0.0023 770.0159 226.0777 996.0959 498.0477 996.0959ZM498.0477 913.0859C267.5777 913.0859 83.4977 728.5159 83.4977 498.0459C83.4977 267.5759 267.0877 83.0059 497.5577 83.0059C728.0277 83.0059 913.0877 267.5759 913.0877 498.0459C913.0877 728.5159 728.5177 913.0859 498.0477 913.0859ZM358.8877 702.6359C377.4377 702.6359 389.6477 690.4259 389.6477 671.3859V325.6859C389.6477 305.1759 375.9777 290.5259 355.4677 290.5259C339.3577 290.5259 330.0777 295.4059 312.4977 307.1259L238.2777 357.9059C228.0277 365.2359 222.1677 374.0259 222.1677 386.7159C222.1677 403.3159 235.8377 416.0159 249.9977 416.0159C257.8077 416.0159 262.6977 415.5259 273.9277 406.7359L325.6877 368.1659H328.6177V671.3859C328.6177 690.4259 340.8177 702.6359 358.8877 702.6359ZM613.7677 708.4959C699.7077 708.4959 756.8377 655.7659 756.8377 569.8259C756.8377 494.6259 706.0577 439.9459 630.3677 439.9459C598.1477 439.9459 562.9877 456.0559 548.3377 478.0259H546.3877L555.6677 352.5359H716.7977C730.9577 352.5359 741.2077 341.3059 741.2077 325.1959C741.2077 309.5659 731.4477 297.8559 716.7977 297.8559H549.3177C523.4377 297.8559 506.3477 313.4759 504.8877 339.3559L492.6777 491.6959C491.2077 517.0859 504.8877 533.6959 527.3477 533.6959C542.4777 533.6959 551.2677 529.7859 566.8977 517.0859C586.9177 499.5159 602.5377 492.1859 624.0277 492.1859C666.9877 492.1859 696.2877 526.3659 696.2877 571.2859C696.2877 622.5559 664.0577 653.3159 616.6977 653.3159C583.4977 653.3159 555.1777 635.7459 541.0177 606.4459C533.6877 592.2859 523.9277 585.4459 512.6977 585.4459C496.5777 585.4459 485.3477 597.6559 485.3477 613.7659C485.3477 621.5859 486.8177 628.9059 489.7477 635.7459C504.3977 676.2659 552.2477 708.4959 613.7677 708.4959Z"/>
</svg>