<?xml version="1.0" encoding="UTF-8" standalone="no"?>
<svg xmlns="http://www.w3.org/2000/svg"
     width="898.92578125" height="898.92578125"
     viewBox="0 0 898.92578125 898.92578125"
     fill="currentColor">
  <path d="M153.3183 898.9295H745.6083C848.1483 898.9295 898.9283 848.1495 898.9283 747.5595V151.3695C898.9283 50.7795 848.1483 -0.0005 745.6083 -0.0005H153.3183C51.2683 -0.0005 -0.0017 50.2895 -0.0017 151.3695V747.5595C-0.0017 848.6295 51.2683 898.9295 153.3183 898.9295ZM313.4783 659.6695C294.4383 659.6695 281.7383 646.9695 281.7383 627.4395V314.9395H279.2983L226.0783 354.4895C214.3583 363.7695 208.9883 364.2595 201.1683 364.2595C186.5283 364.2595 172.3683 351.0695 172.3683 333.9795C172.3683 320.7995 178.2183 311.5195 189.4483 304.1995L265.6283 251.9495C283.6883 239.7495 292.9683 234.3795 309.5683 234.3795C331.0583 234.3795 345.2183 249.9995 345.2183 270.9995V627.4395C345.2183 646.9695 333.0083 659.6695 313.4783 659.6695ZM576.1683 666.0195C513.1883 666.0195 463.3783 632.8095 448.2383 590.8195C445.7983 583.9795 443.8483 576.1695 443.8483 567.8695C443.8483 551.2695 455.0783 538.5695 472.1683 538.5695C484.3783 538.5695 493.6483 545.8995 501.4683 560.5495C516.1183 590.3295 544.9183 608.3995 579.0983 608.3995C627.9283 608.3995 661.1283 577.1495 661.1283 524.4095C661.1283 478.0295 630.8583 442.8695 586.9183 442.8695C564.9383 442.8695 549.3183 450.1995 528.3183 468.2595C512.2083 481.4495 502.9283 485.3495 487.3083 485.3495C463.8683 485.3495 449.7083 468.2595 451.6583 441.8895L463.8683 285.1595C465.3283 258.2995 482.9083 242.1895 509.7683 242.1895H683.1083C697.7583 242.1895 707.5183 254.3895 707.5183 270.5095C707.5183 287.1095 697.2683 298.8295 683.1083 298.8295H516.5983L506.8383 427.7295H508.7883C523.9283 405.2695 560.0583 388.6695 593.7483 388.6695C671.3883 388.6695 723.6283 445.3095 723.6283 522.9495C723.6283 611.3295 665.0383 666.0195 576.1683 666.0195Z"/>
</svg>