<?xml version="1.0" encoding="UTF-8" standalone="no"?>
<svg xmlns="http://www.w3.org/2000/svg"
     width="898.92578125" height="898.92578125"
     viewBox="0 0 898.92578125 898.92578125"
     fill="currentColor">
  <path d="M153.3183 898.9295H745.6083C848.1483 898.9295 898.9283 848.1495 898.9283 747.5595V151.3695C898.9283 50.7795 848.1483 -0.0005 745.6083 -0.0005H153.3183C51.2683 -0.0005 -0.0017 50.2895 -0.0017 151.3695V747.5595C-0.0017 848.6295 51.2683 898.9295 153.3183 898.9295ZM154.2983 820.3095C105.4683 820.3095 78.6183 794.4295 78.6183 743.6495V155.2695C78.6183 104.4895 105.4683 78.6095 154.2983 78.6095H744.6283C792.9683 78.6095 820.3083 104.4895 820.3083 155.2695V743.6495C820.3083 794.4295 792.9683 820.3095 744.6283 820.3095ZM311.0383 653.3195C330.0783 653.3195 341.7983 641.1095 341.7983 622.0695V276.3695C341.7983 255.8595 328.1283 241.2095 307.6183 241.2095C291.5083 241.2095 282.2283 246.0895 265.1383 257.8095L190.9183 308.5895C180.1783 315.9195 174.3183 324.7095 174.3183 337.3995C174.3183 353.9995 187.9883 366.6995 202.1483 366.6995C209.9583 366.6995 214.8483 366.2095 226.0783 357.4195L278.3183 318.8495H280.7583V622.0695C280.7583 641.1095 292.9683 653.3195 311.0383 653.3195ZM565.9183 659.1795C651.8583 659.1795 708.9883 606.4495 708.9883 520.5095C708.9883 445.3095 658.1983 390.6295 583.0083 390.6295C550.2883 390.6295 515.1383 406.7395 500.4883 428.7095H498.5383L507.8083 303.2195H669.4383C683.1083 303.2195 693.3583 291.9895 693.3583 275.8795C693.3583 260.2495 683.5983 248.5395 669.4383 248.5395H501.4683C475.5883 248.5395 458.9883 264.1595 457.0283 290.0395L445.3083 442.3795C443.3583 467.7695 457.0283 484.3795 479.4883 484.3795C494.6283 484.3795 503.4183 480.4695 519.0383 467.7695C539.5483 450.1995 554.6883 442.8695 576.1683 442.8695C619.1383 442.8695 648.4383 477.0495 648.4383 521.9695C648.4383 573.2395 616.2083 603.9995 568.8483 603.9995C535.6483 603.9995 507.3283 586.4295 493.1683 557.1295C485.8383 542.9695 476.5583 536.1295 465.3283 536.1295C448.7283 536.1295 437.4983 548.3395 437.4983 564.4495C437.4983 572.2695 439.4483 579.5895 441.8983 586.4295C456.5383 626.9495 504.8783 659.1795 565.9183 659.1795Z"/>
</svg>