<?xml version="1.0" encoding="UTF-8" standalone="no"?>
<svg xmlns="http://www.w3.org/2000/svg"
     width="898.92578125" height="898.92578125"
     viewBox="0 0 898.92578125 898.92578125"
     fill="currentColor">
  <path d="M153.3183 898.9295H745.6083C848.1483 898.9295 898.9283 848.1495 898.9283 747.5595V151.3695C898.9283 50.7795 848.1483 -0.0005 745.6083 -0.0005H153.3183C51.2683 -0.0005 -0.0017 50.2895 -0.0017 151.3695V747.5595C-0.0017 848.6295 51.2683 898.9295 153.3183 898.9295ZM154.2983 820.3095C105.4683 820.3095 78.6183 794.4295 78.6183 743.6495V155.2695C78.6183 104.4895 105.4683 78.6095 154.2983 78.6095H744.6283C792.9683 78.6095 820.3083 104.4895 820.3083 155.2695V743.6495C820.3083 794.4295 792.9683 820.3095 744.6283 820.3095ZM570.7983 659.6695C649.8983 659.6695 706.5383 607.4195 706.5383 518.0695C706.5383 434.0795 649.4183 387.6995 585.9383 387.6995C533.6883 387.6995 500.9783 416.9895 488.7683 449.2195H485.3483V444.8195C485.3483 352.5395 522.4583 294.4295 577.6383 294.4295C605.9583 294.4295 625.4883 308.1095 637.6983 327.1495C645.9983 339.3595 653.8083 345.2195 666.9883 345.2195C680.6683 345.2195 690.9183 334.4695 690.9183 318.3595C690.9183 312.0095 689.9383 306.1495 687.4983 299.8095C674.8083 267.0895 635.7383 238.2795 580.0783 238.2795C485.8383 238.2795 428.2183 311.5195 428.2183 459.9595C428.2183 519.5295 437.4983 562.9895 454.0983 593.7495C479.0083 640.6295 520.9983 659.6695 570.7983 659.6695ZM303.7083 653.3195C322.7583 653.3195 334.9583 641.1095 334.9583 622.0695V276.3695C334.9583 255.8595 320.7983 241.2095 300.2883 241.2095C284.6683 241.2095 274.8983 246.0895 257.8083 257.8095L183.5983 308.5895C173.3383 315.9195 166.9883 324.7095 166.9883 337.3995C166.9883 353.9995 180.6683 366.6995 194.8283 366.6995C202.6383 366.6995 207.5183 366.2095 218.7483 357.4195L270.9983 318.8495H273.9283V622.0695C273.9283 641.1095 285.6483 653.3195 303.7083 653.3195ZM567.8683 605.9595C522.4583 605.9595 490.7183 570.3095 490.7183 520.0195C490.7183 472.1695 522.4583 437.9895 568.3583 437.9895C614.2583 437.9895 645.0183 471.6795 645.0183 520.5095C645.0183 572.7495 615.2383 605.9595 567.8683 605.9595Z"/>
</svg>