<?xml version="1.0" encoding="UTF-8" standalone="no"?>
<svg xmlns="http://www.w3.org/2000/svg"
     width="898.92578125" height="898.92578125"
     viewBox="0 0 898.92578125 898.92578125"
     fill="currentColor">
  <path d="M153.3183 898.9295H745.6083C848.1483 898.9295 898.9283 848.1495 898.9283 747.5595V151.3695C898.9283 50.7795 848.1483 -0.0005 745.6083 -0.0005H153.3183C51.2683 -0.0005 -0.0017 50.2895 -0.0017 151.3695V747.5595C-0.0017 848.6295 51.2683 898.9295 153.3183 898.9295ZM574.7083 666.4995C523.4383 666.4995 479.9783 646.9695 454.0983 598.1395C437.0083 566.8895 427.2483 521.9695 427.2483 460.4495C427.2483 307.1295 486.8183 231.4495 583.9883 231.4495C641.5983 231.4495 681.6383 261.2295 694.8283 294.9195C697.2683 301.7595 698.2383 307.6195 698.2383 314.4495C698.2383 331.0595 687.9883 342.2895 673.8283 342.2895C660.1583 342.2895 651.8583 335.9395 643.0683 323.2395C630.8583 303.7095 610.8383 290.0395 581.5383 290.0395C524.8983 290.0395 486.8183 349.6095 486.8183 444.3395V449.2195H490.2383C502.9283 416.0195 536.1283 385.7395 590.3283 385.7395C655.7583 385.7395 714.3583 433.5895 714.3583 520.0195C714.3583 612.3095 656.2483 666.4995 574.7083 666.4995ZM299.3183 659.6695C280.2783 659.6695 268.0683 646.9695 268.0683 627.4395V314.9395H265.1383L211.9183 354.4895C200.1983 363.7695 194.8283 364.2595 187.0083 364.2595C172.3683 364.2595 158.1983 351.0695 158.1983 333.9795C158.1983 320.7995 164.5483 311.5195 175.2883 304.1995L251.4683 251.9495C269.0383 239.7495 279.2983 234.8595 295.4083 234.8595C316.8983 234.8595 331.5383 249.9995 331.5383 270.9995V627.4395C331.5383 646.9695 318.8483 659.6695 299.3183 659.6695ZM571.2883 610.8395C620.1183 610.8395 650.8783 576.6595 650.8783 522.9495C650.8783 472.6595 619.1383 437.9895 571.7783 437.9895C524.8983 437.9895 492.1883 473.1395 492.1883 522.4595C492.1883 574.2195 524.8983 610.8395 571.2883 610.8395Z"/>
</svg>