<?xml version="1.0" encoding="UTF-8" standalone="no"?>
<svg xmlns="http://www.w3.org/2000/svg"
     width="898.92578125" height="898.92578125"
     viewBox="0 0 898.92578125 898.92578125"
     fill="currentColor">
  <path d="M153.3183 898.9295H745.6083C848.1483 898.9295 898.9283 848.1495 898.9283 747.5595V151.3695C898.9283 50.7795 848.1483 -0.0005 745.6083 -0.0005H153.3183C51.2683 -0.0005 -0.0017 50.2895 -0.0017 151.3695V747.5595C-0.0017 848.6295 51.2683 898.9295 153.3183 898.9295ZM154.2983 820.3095C105.4683 820.3095 78.6183 794.4295 78.6183 743.6495V155.2695C78.6183 104.4895 105.4683 78.6095 154.2983 78.6095H744.6283C792.9683 78.6095 820.3083 104.4895 820.3083 155.2695V743.6495C820.3083 794.4295 792.9683 820.3095 744.6283 820.3095ZM324.7083 653.3195C343.2583 653.3195 355.4683 641.1095 355.4683 622.0695V276.3695C355.4683 255.8595 341.7983 241.2095 321.2883 241.2095C305.1783 241.2095 295.8983 246.0895 278.3183 257.8095L204.0983 308.5895C193.8483 315.9195 187.9883 324.7095 187.9883 337.3995C187.9883 353.9995 201.6583 366.6995 215.8183 366.6995C223.6283 366.6995 228.5183 366.2095 239.7483 357.4195L291.5083 318.8495H294.4383V622.0695C294.4383 641.1095 306.6383 653.3195 324.7083 653.3195ZM512.2083 653.8095C525.3883 653.8095 534.6683 646.4795 543.4583 629.8795L695.7983 325.1995C703.1283 309.5695 705.0783 300.7795 705.0783 290.5295C705.0783 266.5995 687.9883 248.0495 661.6183 248.0495H464.8483C447.7583 248.0495 436.5283 259.2795 436.5283 275.8795C436.5283 291.9895 447.7583 302.7295 464.8483 302.7295H636.2283V306.6395L484.8683 599.6095C480.4683 606.9295 479.4883 612.7895 479.4883 622.0695C479.4883 640.6295 493.6483 653.8095 512.2083 653.8095Z"/>
</svg>