<?xml version="1.0" encoding="UTF-8" standalone="no"?>
<svg xmlns="http://www.w3.org/2000/svg"
     width="996.09375" height="996.09375"
     viewBox="0 0 996.09375 996.09375"
     fill="currentColor">
  <path d="M498.0477 996.0959C770.5077 996.0959 996.0977 770.0159 996.0977 498.0459C996.0977 225.5859 770.0177 -0.0041 497.5577 -0.0041C225.5877 -0.0041 -0.0023 225.5859 -0.0023 498.0459C-0.0023 770.0159 226.0777 996.0959 498.0477 996.0959ZM627.4377 715.3359C540.5277 715.3359 481.9377 666.0159 481.9377 592.2859C481.9377 541.0159 513.1877 498.5359 567.8677 487.3059V484.3759C520.9977 470.7059 497.0677 435.5459 497.0677 391.6059C497.0677 326.1759 551.7577 280.7659 628.4177 280.7659C705.5677 280.7659 760.2577 326.1759 760.2577 391.6059C760.2577 435.5459 735.8377 471.6759 689.4577 484.3759V487.3059C743.6477 498.5359 775.3877 540.5259 775.3877 591.7959C775.3877 665.0359 715.3277 715.3359 627.4377 715.3359ZM354.0077 708.9859C335.4477 708.9859 322.7577 696.2859 322.7577 676.7559V364.2559H319.8277L266.5977 403.8059C254.8877 413.0859 249.9977 413.5759 241.6977 413.5759C227.0477 413.5759 212.8877 400.3859 212.8877 383.2959C212.8877 370.1159 219.2377 360.8359 229.9777 353.5159L306.1477 301.2659C324.2177 289.0659 333.9877 284.1759 350.5877 284.1759C372.0677 284.1759 386.2277 299.3159 386.2277 320.3159V676.7559C386.2277 696.2859 373.5377 708.9859 354.0077 708.9859ZM628.4177 464.3559C667.9677 464.3559 695.7977 436.0359 695.7977 397.9459C695.7977 359.8659 668.4577 333.4959 628.4177 333.4959C589.3577 333.4959 561.5277 359.8659 561.5277 397.9459C561.5277 436.0359 589.3577 464.3559 628.4177 464.3559ZM628.9077 662.5959C676.2677 662.5959 710.9377 631.8359 710.9377 587.8859C710.9377 543.9459 677.2477 512.6959 628.9077 512.6959C581.5477 512.6959 546.8777 544.4359 546.8777 587.8859C546.8777 631.8359 581.5477 662.5959 628.9077 662.5959Z"/>
</svg>