<?xml version="1.0" encoding="UTF-8" standalone="no"?>
<svg xmlns="http://www.w3.org/2000/svg"
     width="898.92578125" height="898.92578125"
     viewBox="0 0 898.92578125 898.92578125"
     fill="currentColor">
  <path d="M153.3183 898.9295H745.6083C848.1483 898.9295 898.9283 848.1495 898.9283 747.5595V151.3695C898.9283 50.7795 848.1483 -0.0005 745.6083 -0.0005H153.3183C51.2683 -0.0005 -0.0017 50.2895 -0.0017 151.3695V747.5595C-0.0017 848.6295 51.2683 898.9295 153.3183 898.9295ZM579.0983 666.0195C492.1883 666.0195 433.5983 616.6995 433.5983 542.9695C433.5983 491.6995 464.8483 449.2195 519.5283 437.9895V435.0595C472.6583 421.3895 448.7283 386.2295 448.7283 342.2895C448.7283 276.8595 503.4183 231.4495 580.0783 231.4495C657.2283 231.4495 711.9183 276.8595 711.9183 342.2895C711.9183 386.2295 687.4983 422.3595 641.1183 435.0595V437.9895C695.3083 449.2195 727.0483 491.2095 727.0483 542.4795C727.0483 615.7195 666.9883 666.0195 579.0983 666.0195ZM305.6683 659.6695C287.1083 659.6695 274.4183 646.9695 274.4183 627.4395V314.9395H271.9683L218.2583 354.4895C206.5383 363.7695 201.6583 364.2595 193.3583 364.2595C178.7083 364.2595 164.5483 351.0695 164.5483 333.9795C164.5483 320.7995 170.8983 311.5195 182.1283 304.1995L258.2983 251.9495C275.8783 239.7495 285.6483 234.8595 302.2483 234.8595C323.7283 234.8595 337.8883 249.9995 337.8883 270.9995V627.4395C337.8883 646.9695 325.6883 659.6695 305.6683 659.6695ZM580.0783 415.0395C619.6283 415.0395 647.4583 386.7195 647.4583 348.6295C647.4583 310.5495 620.1183 284.1795 580.0783 284.1795C541.0183 284.1795 513.6683 310.5495 513.6683 348.6295C513.6683 386.7195 541.0183 415.0395 580.0783 415.0395ZM580.5683 613.2795C628.4183 613.2795 663.0883 582.5195 663.0883 538.5695C663.0883 494.6295 629.3983 463.3795 580.5683 463.3795C533.1983 463.3795 498.5383 495.1195 498.5383 538.5695C498.5383 582.5195 533.1983 613.2795 580.5683 613.2795Z"/>
</svg>