<?xml version="1.0" encoding="UTF-8" standalone="no"?>
<svg xmlns="http://www.w3.org/2000/svg"
     width="996.09375" height="996.09375"
     viewBox="0 0 996.09375 996.09375"
     fill="currentColor">
  <path d="M498.0477 996.0959C770.5077 996.0959 996.0977 770.0159 996.0977 498.0459C996.0977 225.5859 770.0177 -0.0041 497.5577 -0.0041C225.5877 -0.0041 -0.0023 225.5859 -0.0023 498.0459C-0.0023 770.0159 226.0777 996.0959 498.0477 996.0959ZM622.0677 715.3359C552.7377 715.3359 511.2277 675.7859 503.4177 647.9459C501.4677 642.0859 499.9977 635.2559 499.9977 629.8859C499.9977 612.3059 510.2577 600.0959 526.3677 600.0959C539.5477 600.0959 549.3177 605.4659 557.6177 619.6259C569.3377 642.0859 592.2877 656.7359 621.0977 656.7359C678.7077 656.7359 717.7777 597.6559 716.7977 497.5559H713.3777C700.1977 531.7359 667.4777 561.5259 612.3077 561.5259C546.8777 561.5259 487.7977 513.1859 487.7977 426.7559C487.7977 337.8859 542.9677 280.7659 627.9277 280.7659C722.1677 280.7659 776.8577 352.0459 776.8577 483.8859C776.8577 635.7459 722.6577 715.3359 622.0677 715.3359ZM346.1877 708.9859C327.6377 708.9859 314.9377 696.2859 314.9377 676.7559V364.2559H312.0077L258.7877 403.8059C246.5777 413.0859 242.1877 413.5759 233.8877 413.5759C219.2377 413.5759 205.0777 400.3859 205.0777 383.2959C205.0777 370.1159 211.4277 360.8359 221.6777 353.5159L298.3377 301.2659C316.4077 289.0659 326.1677 284.1759 342.7777 284.1759C363.2777 284.1759 377.9277 299.3159 377.9277 320.3159V676.7559C377.9277 696.2859 365.7277 708.9859 346.1877 708.9859ZM631.3477 509.2759C678.7077 509.2759 710.9377 473.6359 710.9377 424.3159C710.9377 372.5559 677.7377 335.9359 631.8377 335.9359C583.0077 335.9359 551.7577 370.6059 551.7577 423.3359C551.7577 473.6359 583.4977 509.2759 631.3477 509.2759Z"/>
</svg>