<?xml version="1.0" encoding="UTF-8" standalone="no"?>
<svg xmlns="http://www.w3.org/2000/svg"
     width="996.09375" height="996.09375"
     viewBox="0 0 996.09375 996.09375"
     fill="currentColor">
  <path d="M498.0477 996.0959C770.5077 996.0959 996.0977 770.0159 996.0977 498.0459C996.0977 225.5859 770.0177 -0.0041 497.5577 -0.0041C225.5877 -0.0041 -0.0023 225.5859 -0.0023 498.0459C-0.0023 770.0159 226.0777 996.0959 498.0477 996.0959ZM498.0477 913.0859C267.5777 913.0859 83.4977 728.5159 83.4977 498.0459C83.4977 267.5759 267.0877 83.0059 497.5577 83.0059C728.0277 83.0059 913.0877 267.5759 913.0877 498.0459C913.0877 728.5159 728.5177 913.0859 498.0477 913.0859ZM617.6777 708.4959C714.8477 708.4959 767.5777 631.3459 767.5777 484.3759C767.5777 356.4459 714.3577 287.5959 623.0477 287.5959C541.0177 287.5959 487.3077 342.7759 487.3077 428.7059C487.3077 512.6959 544.4377 559.5659 608.3977 559.5659C661.6177 559.5659 693.3577 530.7659 706.5477 497.5559H709.4777C710.4477 594.7259 672.8477 652.3459 616.6977 652.3459C588.3777 652.3459 566.4077 637.6959 554.6877 616.2059C546.8777 602.5359 537.5977 597.1659 524.8977 597.1659C509.2777 597.1659 499.0277 608.8859 499.0277 625.9759C499.0277 630.8559 500.4877 637.6959 502.4377 643.5559C510.2577 670.4059 550.2977 708.4959 617.6777 708.4959ZM350.0977 702.6359C368.6477 702.6359 380.8577 690.4259 380.8577 671.3859V325.6859C380.8577 305.1759 366.6977 290.5259 346.6777 290.5259C330.5677 290.5259 320.7977 295.4059 303.7077 307.1259L229.4877 357.9059C219.2377 365.2359 213.3777 374.0259 213.3777 386.7159C213.3777 403.3159 227.0477 416.0159 241.2077 416.0159C249.0277 416.0159 253.4177 415.5259 265.1377 406.7359L316.8977 368.1659H319.8277V671.3859C319.8277 690.4259 332.0277 702.6359 350.0977 702.6359ZM626.4677 509.2759C580.0777 509.2759 549.3177 474.6059 549.3177 425.7859C549.3177 374.5159 579.5877 340.8159 626.9577 340.8159C671.8777 340.8159 704.0977 376.4659 704.0977 426.7559C704.0977 474.6059 672.3677 509.2759 626.4677 509.2759Z"/>
</svg>