<?xml version="1.0" encoding="UTF-8" standalone="no"?>
<svg xmlns="http://www.w3.org/2000/svg"
     width="898.92578125" height="898.92578125"
     viewBox="0 0 898.92578125 898.92578125"
     fill="currentColor">
  <path d="M153.3183 898.9295H745.6083C848.1483 898.9295 898.9283 848.1495 898.9283 747.5595V151.3695C898.9283 50.7795 848.1483 -0.0005 745.6083 -0.0005H153.3183C51.2683 -0.0005 -0.0017 50.2895 -0.0017 151.3695V747.5595C-0.0017 848.6295 51.2683 898.9295 153.3183 898.9295ZM573.7283 666.0195C504.3983 666.0195 462.8883 626.4695 455.0783 598.6295C453.1283 592.7695 451.6583 585.9395 451.6583 580.5695C451.6583 562.9895 462.3983 550.7795 478.0283 550.7795C491.2083 550.7795 500.9783 556.1495 509.2783 570.3095C520.9983 592.7695 544.4383 607.4195 572.7583 607.4195C630.8583 607.4195 669.4383 548.3395 668.4583 448.2395H665.0383C652.3483 482.4195 619.1383 512.2095 563.9683 512.2095C498.5383 512.2095 439.4483 463.8695 439.4483 377.4395C439.4483 288.5695 494.6283 231.4495 579.5883 231.4495C673.8283 231.4495 728.5183 302.7295 728.5183 434.5695C728.5183 586.4295 674.3183 666.0195 573.7283 666.0195ZM297.8483 659.6695C279.2983 659.6695 266.5983 646.9695 266.5983 627.4395V314.9395H264.1583L210.4483 354.4895C198.7283 363.7695 193.8483 364.2595 185.5483 364.2595C170.8983 364.2595 156.7383 351.0695 156.7383 333.9795C156.7383 320.7995 163.0883 311.5195 173.3383 304.1995L249.9983 251.9495C268.0683 239.7495 277.8283 234.8595 294.4383 234.8595C315.4283 234.8595 329.5883 249.9995 329.5883 270.9995V627.4395C329.5883 646.9695 317.3783 659.6695 297.8483 659.6695ZM583.0083 459.9595C630.3683 459.9595 662.5983 424.3195 662.5983 374.9995C662.5983 323.2395 629.3983 286.6195 583.4983 286.6195C534.6683 286.6195 503.4183 321.2895 503.4183 374.0195C503.4183 424.3195 535.6483 459.9595 583.0083 459.9595Z"/>
</svg>