<?xml version="1.0" encoding="UTF-8" standalone="no"?>
<svg xmlns="http://www.w3.org/2000/svg"
     width="1393.5546875" height="952.1484375"
     viewBox="0 0 1393.5546875 952.1484375"
     fill="currentColor">
  <path d="M696.7777 952.1533C957.0277 952.1533 1173.3377 736.3233 1173.3377 476.0733C1173.3377 215.8233 957.0277 0.0033 696.2877 0.0033C436.0377 0.0033 220.7077 215.3333 220.7077 476.0733C220.7077 736.3233 436.5277 952.1533 696.7777 952.1533ZM1393.5577 476.0733C1393.5577 321.2933 1343.7477 178.7133 1258.2977 62.9833C1243.1677 42.4833 1217.2877 40.0433 1197.7577 55.6633C1179.6877 70.8033 1178.2277 94.7233 1191.8977 113.2833C1266.5977 215.3333 1310.0577 340.3333 1310.0577 476.0733C1310.0577 611.3233 1266.5977 736.8133 1191.8977 837.8933C1178.2277 857.4233 1180.1777 880.8633 1197.7577 895.9933C1217.2877 911.6233 1243.1677 909.6633 1258.2977 888.6733C1343.7477 772.9533 1393.5577 630.8633 1393.5577 476.0733ZM-0.0023 476.0733C-0.0023 630.8633 50.2977 772.9533 135.2577 888.6733C150.3877 909.6633 176.2677 911.6233 195.7977 895.9933C213.3777 880.8633 215.8177 857.4233 201.6577 837.8933C127.4377 736.8133 83.4977 611.3233 83.4977 476.0733C83.4977 340.3333 127.4377 215.3333 201.6577 113.2833C215.8177 94.7233 213.8677 70.8033 195.7977 55.6633C176.2677 40.0433 150.3877 42.4833 135.2577 62.9833C50.2977 178.7133 -0.0023 321.2933 -0.0023 476.0733ZM696.7777 869.1433C479.0077 869.1433 304.1977 694.3333 304.1977 476.0733C304.1977 257.3233 478.5177 82.5233 696.2877 82.5233C914.5477 82.5233 1089.8477 257.3233 1090.3277 476.0733C1090.8177 693.8433 915.5277 869.1433 696.7777 869.1433ZM585.4477 697.2633H836.4277C854.9777 697.2633 869.1377 685.0633 869.1377 665.5233C869.1377 645.0233 854.9777 633.3033 836.4277 633.3033H658.2077V629.8833L773.9277 506.3433C817.3877 459.9633 847.6577 421.3833 847.6577 367.1833C847.6577 292.9733 788.0877 243.6533 697.7577 243.6533C628.4177 243.6533 566.8977 285.6433 551.2677 340.3333C549.3177 347.6533 548.3377 353.5133 548.3377 359.8633C548.3377 378.9033 561.5277 391.1133 580.0777 391.1133C597.6577 391.1133 606.4477 380.3733 614.7477 366.7033C627.9277 336.9133 653.3177 305.6633 701.1677 305.6633C747.5577 305.6633 778.3177 332.5233 778.3177 373.0433C778.3177 408.6933 748.5377 438.4733 719.7277 468.7533L563.4777 636.2333C555.1777 645.5033 550.7777 655.2733 550.7777 665.5233C550.7777 685.0633 563.4777 697.2633 585.4477 697.2633Z"/>
</svg>