<?xml version="1.0" encoding="UTF-8" standalone="no"?>
<svg xmlns="http://www.w3.org/2000/svg"
     width="996.09375" height="996.09375"
     viewBox="0 0 996.09375 996.09375"
     fill="currentColor">
  <path d="M498.0477 996.0959C770.5077 996.0959 996.0977 770.0159 996.0977 498.0459C996.0977 225.5859 770.0177 -0.0041 497.5577 -0.0041C225.5877 -0.0041 -0.0023 225.5859 -0.0023 498.0459C-0.0023 770.0159 226.0777 996.0959 498.0477 996.0959ZM498.0477 913.0859C267.5777 913.0859 83.4977 728.5159 83.4977 498.0459C83.4977 267.5759 267.0877 83.0059 497.5577 83.0059C728.0277 83.0059 913.0877 267.5759 913.0877 498.0459C913.0877 728.5159 728.5177 913.0859 498.0477 913.0859ZM386.2277 719.2359H637.6977C656.2477 719.2359 669.9177 707.0359 669.9177 687.4959C669.9177 666.9959 656.2477 655.2759 637.6977 655.2759H459.4777V651.8559L575.1977 528.3159C618.6477 481.9359 648.9277 443.3559 648.9277 389.1559C648.9277 314.9459 589.3577 265.6259 499.0277 265.6259C429.6877 265.6259 368.1677 307.6159 352.5377 362.3059C350.5877 369.6259 349.6077 375.4859 349.6077 381.8359C349.6077 400.8759 362.7977 413.0859 381.3477 413.0859C398.9277 413.0859 407.7177 402.3459 416.0177 388.6759C429.1977 358.8859 454.5877 327.6359 502.4377 327.6359C548.8277 327.6359 579.5877 354.4959 579.5877 395.0159C579.5877 430.6659 549.3177 460.4459 520.9977 490.7259L364.7477 658.2059C355.9577 667.4759 352.0477 677.2459 352.0477 687.4959C352.0477 707.0359 364.7477 719.2359 386.2277 719.2359Z"/>
</svg>