<?xml version="1.0" encoding="UTF-8" standalone="no"?>
<svg xmlns="http://www.w3.org/2000/svg"
     width="996.09375" height="996.09375"
     viewBox="0 0 996.09375 996.09375"
     fill="currentColor">
  <path d="M498.0477 996.0959C770.5077 996.0959 996.0977 770.0159 996.0977 498.0459C996.0977 225.5859 770.0177 -0.0041 497.5577 -0.0041C225.5877 -0.0041 -0.0023 225.5859 -0.0023 498.0459C-0.0023 770.0159 226.0777 996.0959 498.0477 996.0959ZM383.2977 726.5659C360.8377 726.5659 347.6577 713.8659 347.6577 693.3559C347.6577 683.1059 352.0477 672.8559 360.8377 663.0859L521.9777 490.7259C551.2677 459.4759 582.5177 428.7059 582.5177 392.0859C582.5177 350.5859 550.7777 322.7559 502.9277 322.7559C454.0977 322.7559 427.7377 354.9759 414.0577 385.2559C405.7577 399.4159 396.4877 410.6459 378.4177 410.6459C358.8877 410.6459 345.2177 397.9459 345.2177 378.4159C345.2177 371.5859 346.1877 365.7259 348.6377 357.9059C364.7477 301.7559 428.2277 258.2959 499.5077 258.2959C592.7777 258.2959 654.2977 309.5659 654.2977 385.7459C654.2977 441.8959 623.0477 481.9359 578.1277 529.2959L459.4777 656.7359V660.1559H642.5777C662.1077 660.1559 676.2677 672.3659 676.2677 693.3559C676.2677 713.8659 662.1077 726.5659 642.5777 726.5659Z"/>
</svg>