<?xml version="1.0" encoding="UTF-8" standalone="no"?>
<svg xmlns="http://www.w3.org/2000/svg"
     width="898.92578125" height="735.83984375"
     viewBox="0 0 898.92578125 735.83984375"
     fill="currentColor">
  <path d="M-0.0017 696.2866C-0.0017 717.7766 17.5783 735.8366 39.0583 735.8366C61.0383 735.8366 78.6183 717.7766 78.6183 696.2866V39.0666C78.6183 17.5766 61.0383 -0.0034 39.0583 -0.0034C17.5783 -0.0034 -0.0017 17.5766 -0.0017 39.0666ZM820.3083 696.2866C820.3083 717.7766 838.3783 735.8366 859.8683 735.8366C881.3483 735.8366 898.9283 717.7766 898.9283 696.2866V39.0666C898.9283 17.5766 881.3483 -0.0034 859.8683 -0.0034C838.3783 -0.0034 820.3083 17.5766 820.3083 39.0666ZM338.8683 588.3766H589.8483C608.3983 588.3766 622.5583 576.1766 622.5583 556.6366C622.5583 536.1366 608.3983 524.4166 589.8483 524.4166H411.6183V520.9966L527.3483 397.4566C570.7983 351.0766 601.0783 312.4966 601.0783 258.2966C601.0783 184.0866 541.5083 134.7666 451.1683 134.7666C381.8383 134.7666 320.3083 176.7566 304.6883 231.4466C302.7383 238.7666 302.2483 244.6266 302.2483 250.9766C302.2483 270.0166 314.9383 282.2266 333.4983 282.2266C351.0783 282.2266 359.8683 271.4866 368.1683 257.8166C381.3483 228.0266 406.7383 196.7766 454.5883 196.7766C500.9783 196.7766 531.7383 223.6366 531.7383 264.1566C531.7383 299.8066 501.9483 329.5866 473.1483 359.8666L316.8983 527.3466C308.5983 536.6166 304.1983 546.3866 304.1983 556.6366C304.1983 576.1766 316.8983 588.3766 338.8683 588.3766Z"/>
</svg>