<?xml version="1.0" encoding="UTF-8" standalone="no"?>
<svg xmlns="http://www.w3.org/2000/svg"
     width="996.09375" height="996.09375"
     viewBox="0 0 996.09375 996.09375"
     fill="currentColor">
  <path d="M498.0477 996.0959C770.5077 996.0959 996.0977 770.0159 996.0977 498.0459C996.0977 225.5859 770.0177 -0.0041 497.5577 -0.0041C225.5877 -0.0041 -0.0023 225.5859 -0.0023 498.0459C-0.0023 770.0159 226.0777 996.0959 498.0477 996.0959ZM239.7477 703.6159C221.6777 703.6159 209.9577 691.8959 209.9577 673.8259C209.9577 663.5759 213.8677 654.7859 221.1877 646.4859L354.0077 490.2359C377.4377 462.4059 404.2977 434.0859 404.2977 401.3659C404.2977 364.2559 378.4177 339.3559 337.3977 339.3559C301.7577 339.3559 276.3677 357.4259 263.1877 395.5059C256.8377 410.6459 249.0277 418.9459 234.3777 418.9459C217.2877 418.9459 206.0577 406.7359 206.0577 388.6759C206.0577 382.8159 207.5177 376.9559 208.4977 370.6059C221.6777 319.3359 275.3877 280.7659 334.9577 280.7659C414.0577 280.7659 465.8177 325.6859 465.8177 395.9959C465.8177 446.2859 437.9877 482.4259 400.3877 525.8759L302.2477 640.1359V644.0459H447.7577C463.8677 644.0459 476.0777 654.2959 476.0777 673.3359C476.0777 691.4059 463.8677 703.6159 447.7577 703.6159ZM666.0177 715.3359C579.0977 715.3359 521.9777 632.3259 521.9777 498.0459C521.9777 363.7659 579.0977 280.7659 666.0177 280.7659C752.4377 280.7659 810.0577 363.7659 810.0577 498.0459C810.0577 632.3259 752.4377 715.3359 666.0177 715.3359ZM666.0177 653.8059C714.3577 653.8059 743.6477 594.7259 743.6477 498.0459C743.6477 401.3659 713.8677 342.2859 666.0177 342.2859C618.1677 342.2859 588.3777 401.3659 588.3777 498.0459C588.3777 594.7259 618.1677 653.8059 666.0177 653.8059Z"/>
</svg>