<?xml version="1.0" encoding="UTF-8" standalone="no"?>
<svg xmlns="http://www.w3.org/2000/svg"
     width="898.92578125" height="898.92578125"
     viewBox="0 0 898.92578125 898.92578125"
     fill="currentColor">
  <path d="M153.3183 898.9295H745.6083C848.1483 898.9295 898.9283 848.1495 898.9283 747.5595V151.3695C898.9283 50.7795 848.1483 -0.0005 745.6083 -0.0005H153.3183C51.2683 -0.0005 -0.0017 50.2895 -0.0017 151.3695V747.5595C-0.0017 848.6295 51.2683 898.9295 153.3183 898.9295ZM154.2983 820.3095C105.4683 820.3095 78.6183 794.4295 78.6183 743.6495V155.2695C78.6183 104.4895 105.4683 78.6095 154.2983 78.6095H744.6283C792.9683 78.6095 820.3083 104.4895 820.3083 155.2695V743.6495C820.3083 794.4295 792.9683 820.3095 744.6283 820.3095ZM199.2183 647.9495H400.8783C416.5083 647.9495 428.2183 636.2295 428.2183 618.6495C428.2183 600.5895 416.5083 590.3295 400.8783 590.3295H259.2783V586.9095L354.9783 475.5895C391.1183 433.5895 417.9683 398.4395 417.9683 349.6095C417.9683 281.7395 368.1683 238.2795 291.5083 238.2795C233.3983 238.2795 181.6383 275.3895 168.9483 325.1995C167.9683 331.5395 166.9883 336.9095 166.9883 342.7695C166.9883 360.3495 177.2483 372.0695 193.8483 372.0695C208.0083 372.0695 215.3283 363.7695 221.6783 349.1195C234.3783 312.4995 258.7883 294.4295 293.9483 294.4295C333.4983 294.4295 358.8883 318.8495 358.8883 354.9795C358.8883 386.7195 333.4983 414.0595 310.0583 441.4095L181.1483 592.7695C173.8283 601.0695 170.4083 609.3795 170.4083 619.1395C170.4083 636.7195 181.6383 647.9495 199.2183 647.9495ZM612.3083 659.1795C696.7783 659.1795 751.9483 578.6095 751.9483 448.7295C751.9483 318.8495 696.7783 238.2795 612.3083 238.2795C528.3183 238.2795 472.6583 318.8495 472.6583 448.7295C472.6583 578.6095 528.3183 659.1795 612.3083 659.1795ZM612.3083 600.0995C565.9183 600.0995 537.1083 542.4795 537.1083 448.7295C537.1083 354.9795 565.9183 297.3595 612.3083 297.3595C659.1783 297.3595 687.9883 354.9795 687.9883 448.7295C687.9883 542.4795 659.6683 600.0995 612.3083 600.0995Z"/>
</svg>