<?xml version="1.0" encoding="UTF-8" standalone="no"?>
<svg xmlns="http://www.w3.org/2000/svg"
     width="898.92578125" height="898.92578125"
     viewBox="0 0 898.92578125 898.92578125"
     fill="currentColor">
  <path d="M153.3183 898.9295H745.6083C848.1483 898.9295 898.9283 848.1495 898.9283 747.5595V151.3695C898.9283 50.7795 848.1483 -0.0005 745.6083 -0.0005H153.3183C51.2683 -0.0005 -0.0017 50.2895 -0.0017 151.3695V747.5595C-0.0017 848.6295 51.2683 898.9295 153.3183 898.9295ZM191.4083 654.2995C173.3383 654.2995 161.6183 642.5795 161.6183 624.5095C161.6183 614.2595 165.5283 605.4695 172.8483 597.1695L305.6683 440.9195C329.5883 413.0895 355.9583 384.7695 355.9583 352.0495C355.9583 314.9395 330.0783 290.0395 289.0583 290.0395C253.4183 290.0395 228.0283 308.1095 214.8483 346.1895C208.4983 361.3295 200.6883 369.6295 186.0383 369.6295C168.9483 369.6295 158.1983 357.4195 158.1983 339.3595C158.1983 333.4995 159.1783 327.6395 160.1583 321.2895C173.3383 270.0195 227.0483 231.4495 286.6183 231.4495C365.7183 231.4495 417.4783 276.3695 417.4783 346.6795C417.4783 396.9695 389.6483 433.1095 352.0483 476.5595L253.9083 590.8195V594.7295H399.4183C415.5283 594.7295 427.7383 604.9795 427.7383 624.0195C427.7383 642.0895 415.5283 654.2995 399.4183 654.2995ZM617.6783 666.0195C530.7583 666.0195 473.6283 583.0095 473.6283 448.7295C473.6283 314.4495 530.7583 231.4495 617.6783 231.4495C704.5883 231.4495 761.7183 314.4495 761.7183 448.7295C761.7183 583.0095 704.5883 666.0195 617.6783 666.0195ZM617.6783 604.4895C666.0183 604.4895 695.3083 545.4095 695.3083 448.7295C695.3083 352.0495 665.5283 292.9695 617.6783 292.9695C569.8283 292.9695 540.5283 352.0495 540.5283 448.7295C540.5283 545.4095 569.8283 604.4895 617.6783 604.4895Z"/>
</svg>