<?xml version="1.0" encoding="UTF-8" standalone="no"?>
<svg xmlns="http://www.w3.org/2000/svg"
     width="898.92578125" height="898.92578125"
     viewBox="0 0 898.92578125 898.92578125"
     fill="currentColor">
  <path d="M153.3183 898.9295H745.6083C848.1483 898.9295 898.9283 848.1495 898.9283 747.5595V151.3695C898.9283 50.7795 848.1483 -0.0005 745.6083 -0.0005H153.3183C51.2683 -0.0005 -0.0017 50.2895 -0.0017 151.3695V747.5595C-0.0017 848.6295 51.2683 898.9295 153.3183 898.9295ZM223.1483 654.2995C205.0783 654.2995 193.3583 642.5795 193.3583 624.5095C193.3583 614.2595 196.7783 605.9595 204.5883 597.1695L337.3983 441.4095C361.3283 413.0895 387.6983 384.7695 387.6983 352.0495C387.6983 314.9395 361.8183 290.0395 320.7983 290.0395C284.6683 290.0395 259.7683 308.5895 247.0683 346.1895C240.2383 361.3295 232.4183 369.6295 218.2583 369.6295C200.6883 369.6295 189.9383 357.9095 189.9383 339.3595C189.9383 333.4995 190.9183 327.6395 191.8983 321.2895C205.0783 270.0195 258.2983 231.9295 318.3583 231.9295C397.4583 231.9295 448.7283 276.3695 448.7283 346.6795C448.7283 396.9695 421.3883 433.1095 383.7883 476.5595L285.6483 591.3095V594.7295H431.6383C447.2683 594.7295 459.4683 605.4695 459.4683 624.0195C459.4683 642.0895 447.2683 654.2995 431.6383 654.2995ZM661.6183 659.6695C642.5783 659.6695 630.3683 647.4595 630.3683 627.4395V315.4295H627.4383L573.7283 354.9795C562.4983 363.7695 557.6183 364.2595 549.3183 364.2595C534.6683 364.2595 520.5083 351.0695 520.5083 333.9795C520.5083 320.7995 526.8583 312.0095 537.5983 304.1995L613.7683 251.9495C631.3483 239.7495 641.5983 234.8595 658.1983 234.8595C679.1983 234.8595 693.8483 249.9995 693.8483 270.9995V627.4395C693.8483 647.4595 681.1483 659.6695 661.6183 659.6695Z"/>
</svg>