<?xml version="1.0" encoding="UTF-8" standalone="no"?>
<svg xmlns="http://www.w3.org/2000/svg"
     width="996.09375" height="996.09375"
     viewBox="0 0 996.09375 996.09375"
     fill="currentColor">
  <path d="M498.0477 996.0959C770.5077 996.0959 996.0977 770.0159 996.0977 498.0459C996.0977 225.5859 770.0177 -0.0041 497.5577 -0.0041C225.5877 -0.0041 -0.0023 225.5859 -0.0023 498.0459C-0.0023 770.0159 226.0777 996.0959 498.0477 996.0959ZM498.0477 913.0859C267.5777 913.0859 83.4977 728.5159 83.4977 498.0459C83.4977 267.5759 267.0877 83.0059 497.5577 83.0059C728.0277 83.0059 913.0877 267.5759 913.0877 498.0459C913.0877 728.5159 728.5177 913.0859 498.0477 913.0859ZM247.0677 697.2659H449.2177C464.3577 697.2659 476.0777 685.5459 476.0777 667.9659C476.0777 649.9059 464.3577 639.6459 449.2177 639.6459H307.1277V636.2259L402.8277 524.9059C438.9677 482.9059 465.8177 447.7559 465.8177 398.9259C465.8177 331.0559 416.0177 287.5959 339.3577 287.5959C281.2477 287.5959 229.4877 324.7059 216.7977 374.5159C215.8177 380.8559 214.8477 386.2259 214.8477 392.0859C214.8477 409.6659 225.0977 421.3859 242.1877 421.3859C255.8577 421.3859 263.1877 413.0859 270.0177 398.4359C282.2277 361.8159 307.1277 343.7459 341.7977 343.7459C381.3477 343.7459 406.7377 368.1659 406.7377 404.2959C406.7377 436.0359 381.3477 463.3759 357.9077 490.7259L229.0077 642.0859C221.6777 650.3859 218.2577 658.6959 218.2577 668.4559C218.2577 686.0359 229.4877 697.2659 247.0677 697.2659ZM571.2877 697.2659H772.9477C788.5777 697.2659 800.2977 685.5459 800.2977 667.9659C800.2977 649.9059 788.5777 639.6459 772.9477 639.6459H631.3477V636.2259L727.0477 524.9059C763.1877 482.9059 790.0377 447.7559 790.0377 398.9259C790.0377 331.0559 740.2377 287.5959 663.5777 287.5959C605.4677 287.5959 553.7077 324.7059 541.0177 374.5159C540.0377 380.8559 539.0577 386.2259 539.0577 392.0859C539.0577 409.6659 549.3177 421.3859 565.9177 421.3859C580.0777 421.3859 587.3977 413.0859 593.7477 398.4359C606.4477 361.8159 630.8577 343.7459 666.0177 343.7459C705.5677 343.7459 730.9577 368.1659 730.9577 404.2959C730.9577 436.0359 705.5677 463.3759 682.1277 490.7259L553.2277 642.0859C545.8977 650.3859 542.4777 658.6959 542.4777 668.4559C542.4777 686.0359 553.7077 697.2659 571.2877 697.2659Z"/>
</svg>