<?xml version="1.0" encoding="UTF-8" standalone="no"?>
<svg xmlns="http://www.w3.org/2000/svg"
     width="898.92578125" height="898.92578125"
     viewBox="0 0 898.92578125 898.92578125"
     fill="currentColor">
  <path d="M153.3183 898.9295H745.6083C848.1483 898.9295 898.9283 848.1495 898.9283 747.5595V151.3695C898.9283 50.7795 848.1483 -0.0005 745.6083 -0.0005H153.3183C51.2683 -0.0005 -0.0017 50.2895 -0.0017 151.3695V747.5595C-0.0017 848.6295 51.2683 898.9295 153.3183 898.9295ZM190.4283 654.2995C172.3683 654.2995 161.1283 642.5795 161.1283 624.5095C161.1283 614.2595 164.0583 605.4695 171.8783 597.1695L304.6883 440.9195C328.6183 413.0895 354.9783 384.7695 354.9783 352.0495C354.9783 314.9395 328.6183 290.0395 288.0883 290.0395C252.4383 290.0395 227.0483 308.1095 214.3583 346.1895C207.5183 361.3295 200.1983 369.6295 185.5483 369.6295C167.9683 369.6295 157.2283 357.4195 157.2283 339.3595C157.2283 333.4995 158.1983 327.6395 159.6683 321.2895C172.3683 270.0195 225.5883 231.4495 285.6483 231.4495C364.7483 231.4495 416.0183 276.3695 416.0183 346.6795C416.0183 396.9695 388.1883 433.1095 351.0783 476.5595L252.9283 590.8195V594.7295H398.9283C414.5483 594.7295 426.7583 604.9795 426.7583 624.0195C426.7583 642.0895 414.5483 654.2995 398.9283 654.2995ZM624.9983 666.0195C556.6383 666.0195 502.4383 624.0195 489.2583 577.6395C487.7883 571.2895 486.8183 565.9195 486.8183 559.0795C486.8183 541.4995 499.0283 528.8095 516.1183 528.8095C530.2783 528.8095 539.0583 536.6195 544.9183 552.7295C558.5983 587.8895 585.9383 607.4195 625.4883 607.4195C673.8283 607.4195 707.5183 578.1295 707.5183 539.0595C707.5183 498.0495 676.7583 471.1895 628.9083 471.1895H599.6083C582.5183 471.1895 571.7783 458.4995 571.7783 442.3795C571.7783 423.8295 582.5183 412.1095 599.6083 412.1095H626.4683C666.5083 412.1095 694.3383 385.7395 694.3383 349.1195C694.3383 313.9695 666.5083 290.0395 626.9483 290.0395C587.8883 290.0395 563.4783 309.5695 552.2483 344.7295C547.3683 360.8395 539.5483 368.6495 524.4183 368.6495C506.8383 368.6495 495.6083 355.9595 495.6083 337.8895C495.6083 331.5395 495.6083 326.1695 496.5783 319.8195C509.7683 270.5095 560.0583 231.4495 628.4183 231.4495C703.6183 231.4495 756.3483 276.3695 756.3483 340.8195C756.3483 388.1795 723.6283 430.1795 682.6183 437.0095V439.9395C733.3983 445.3095 770.0183 488.2795 770.0183 541.9895C770.0183 614.2595 710.4483 666.0195 624.9983 666.0195Z"/>
</svg>