<?xml version="1.0" encoding="UTF-8" standalone="no"?>
<svg xmlns="http://www.w3.org/2000/svg"
     width="898.92578125" height="898.92578125"
     viewBox="0 0 898.92578125 898.92578125"
     fill="currentColor">
  <path d="M153.3183 898.9295H745.6083C848.1483 898.9295 898.9283 848.1495 898.9283 747.5595V151.3695C898.9283 50.7795 848.1483 -0.0005 745.6083 -0.0005H153.3183C51.2683 -0.0005 -0.0017 50.2895 -0.0017 151.3695V747.5595C-0.0017 848.6295 51.2683 898.9295 153.3183 898.9295ZM191.4083 654.2995C173.3383 654.2995 161.6183 642.5795 161.6183 624.5095C161.6183 614.2595 165.0383 605.4695 172.8483 597.1695L305.6683 440.9195C329.0983 413.0895 355.9583 384.7695 355.9583 352.0495C355.9583 314.9395 329.0983 290.0395 289.0583 290.0395C252.9283 290.0395 228.0283 308.1095 214.8483 346.1895C208.0083 361.3295 200.6883 369.6295 186.0383 369.6295C168.9483 369.6295 157.7183 357.4195 157.7183 339.3595C157.7183 333.4995 159.1783 327.6395 160.1583 321.2895C173.3383 270.0195 226.5583 231.4495 286.6183 231.4495C365.7183 231.4495 416.9883 276.3695 416.9883 346.6795C416.9883 396.9695 389.1583 433.1095 352.0483 476.5595L252.9283 590.8195V594.7295H399.4183C415.5283 594.7295 427.7383 604.9795 427.7383 624.0195C427.7383 642.0895 415.5283 654.2995 399.4183 654.2995ZM686.5283 665.0395C666.5083 665.0395 656.7383 650.3895 656.7383 630.8595V571.7795H509.7683C483.8883 571.7795 466.3083 555.6595 466.3083 528.8095C466.3083 515.1395 469.2383 503.9095 477.5383 488.2795C511.7183 427.2495 562.0083 341.3095 604.0083 270.5095C620.6083 242.6795 638.1883 231.4495 667.4783 231.4495C697.2683 231.4495 717.7783 250.4895 717.7783 279.7895V515.1395H744.6283C761.7183 515.1395 772.9483 525.8795 772.9483 543.9495C772.9483 561.5195 761.7183 571.7795 744.6283 571.7795H717.7783V630.8595C717.7783 650.8795 707.0283 665.0395 686.5283 665.0395ZM656.7383 515.1395V299.8095H653.3183C613.7683 368.1595 562.4983 456.0595 532.7183 513.1795V515.1395Z"/>
</svg>