<?xml version="1.0" encoding="UTF-8" standalone="no"?>
<svg xmlns="http://www.w3.org/2000/svg"
     width="898.92578125" height="898.92578125"
     viewBox="0 0 898.92578125 898.92578125"
     fill="currentColor">
  <path d="M153.3183 898.9295H745.6083C848.1483 898.9295 898.9283 848.1495 898.9283 747.5595V151.3695C898.9283 50.7795 848.1483 -0.0005 745.6083 -0.0005H153.3183C51.2683 -0.0005 -0.0017 50.2895 -0.0017 151.3695V747.5595C-0.0017 848.6295 51.2683 898.9295 153.3183 898.9295ZM154.2983 820.3095C105.4683 820.3095 78.6183 794.4295 78.6183 743.6495V155.2695C78.6183 104.4895 105.4683 78.6095 154.2983 78.6095H744.6283C792.9683 78.6095 820.3083 104.4895 820.3083 155.2695V743.6495C820.3083 794.4295 792.9683 820.3095 744.6283 820.3095ZM199.2183 647.9495H400.8783C416.5083 647.9495 428.2183 636.2295 428.2183 618.6495C428.2183 600.5895 416.5083 590.3295 400.8783 590.3295H258.7883V586.9095L354.9783 475.5895C391.1183 433.5895 417.9683 398.4395 417.9683 349.6095C417.9683 281.7395 368.1683 238.2795 291.5083 238.2795C233.3983 238.2795 181.6383 275.3895 168.9483 325.1995C167.9683 331.5395 166.5083 336.9095 166.5083 342.7695C166.5083 360.3495 177.2483 372.0695 193.8483 372.0695C208.0083 372.0695 215.3283 363.7695 221.6783 349.1195C234.3783 312.4995 258.7883 294.4295 293.9483 294.4295C333.0083 294.4295 358.8883 318.8495 358.8883 354.9795C358.8883 386.7195 333.0083 414.0595 310.0583 441.4095L181.1483 592.7695C173.8283 601.0695 170.4083 609.3795 170.4083 619.1395C170.4083 636.7195 181.6383 647.9495 199.2183 647.9495ZM679.1983 658.1995C699.2183 658.1995 709.4683 644.5295 709.4683 625.4895V567.8695H735.8383C752.4383 567.8695 763.1883 558.1095 763.1883 541.0195C763.1883 523.4395 752.4383 513.1795 735.8383 513.1795H709.4683V284.6695C709.4683 256.3495 689.4483 238.2795 661.1283 238.2795C632.8083 238.2795 615.7183 249.0195 599.6083 275.8795C559.0783 344.2395 509.7683 428.2195 476.5583 487.3095C468.7483 502.4395 465.8183 513.1795 465.8183 526.3695C465.8183 552.2495 482.9083 567.8695 507.8083 567.8695H650.3883V625.4895C650.3883 644.0395 660.1583 658.1995 679.1983 658.1995ZM650.3883 513.1795H529.7883V511.2295C558.5983 456.0595 608.8883 370.1195 647.4583 304.1995H650.3883Z"/>
</svg>