<?xml version="1.0" encoding="UTF-8" standalone="no"?>
<svg xmlns="http://www.w3.org/2000/svg"
     width="996.09375" height="996.09375"
     viewBox="0 0 996.09375 996.09375"
     fill="currentColor">
  <path d="M498.0477 996.0959C770.5077 996.0959 996.0977 770.0159 996.0977 498.0459C996.0977 225.5859 770.0177 -0.0041 497.5577 -0.0041C225.5877 -0.0041 -0.0023 225.5859 -0.0023 498.0459C-0.0023 770.0159 226.0777 996.0959 498.0477 996.0959ZM498.0477 913.0859C267.5777 913.0859 83.4977 728.5159 83.4977 498.0459C83.4977 267.5759 267.0877 83.0059 497.5577 83.0059C728.0277 83.0059 913.0877 267.5759 913.0877 498.0459C913.0877 728.5159 728.5177 913.0859 498.0477 913.0859ZM242.1877 697.2659H444.3377C459.4777 697.2659 471.1877 685.5459 471.1877 667.9659C471.1877 649.9059 459.4777 639.6459 444.3377 639.6459H302.2477V636.2259L397.9477 524.9059C434.0777 482.9059 460.9377 447.7559 460.9377 398.9259C460.9377 331.0559 411.1377 287.5959 334.4777 287.5959C276.3677 287.5959 224.6077 324.7059 211.9177 374.5159C210.9377 380.8559 209.9577 386.2259 209.9577 392.0859C209.9577 409.6659 220.2177 421.3859 236.8177 421.3859C250.9777 421.3859 258.2977 413.0859 265.1377 398.4359C277.3477 361.8159 301.7577 343.7459 336.9177 343.7459C376.4677 343.7459 401.8577 368.1659 401.8577 404.2959C401.8577 436.0359 376.4677 463.3759 353.0277 490.7259L224.1177 642.0859C216.7977 650.3859 213.3777 658.6959 213.3777 668.4559C213.3777 686.0359 224.6077 697.2659 242.1877 697.2659ZM658.6877 708.4959C744.6277 708.4959 801.7577 655.7659 801.7577 569.8259C801.7577 494.6259 750.9777 439.9459 675.7777 439.9459C643.0677 439.9459 607.9077 456.0559 593.2577 478.0259H591.3077L600.5877 352.5359H762.2077C775.8777 352.5359 786.1377 341.3059 786.1377 325.1959C786.1377 309.5659 776.3677 297.8559 762.2077 297.8559H594.2377C568.3577 297.8559 551.7577 313.4759 549.8077 339.3559L538.0877 491.6959C536.1377 517.0859 549.8077 533.6959 572.2677 533.6959C587.3977 533.6959 596.1877 529.7859 611.8177 517.0859C632.3277 499.5159 647.4577 492.1859 669.4377 492.1859C711.9177 492.1859 741.2077 526.3659 741.2077 571.2859C741.2077 622.5559 708.9877 653.3159 661.6177 653.3159C628.4177 653.3159 600.0977 635.7459 585.9377 606.4459C578.6177 592.2859 569.3377 585.4459 558.1077 585.4459C541.5077 585.4459 530.2777 597.6559 530.2777 613.7659C530.2777 621.5859 532.2277 628.9059 534.6677 635.7459C549.3177 676.2659 597.6577 708.4959 658.6877 708.4959Z"/>
</svg>