<?xml version="1.0" encoding="UTF-8" standalone="no"?>
<svg xmlns="http://www.w3.org/2000/svg"
     width="898.92578125" height="898.92578125"
     viewBox="0 0 898.92578125 898.92578125"
     fill="currentColor">
  <path d="M153.3183 898.9295H745.6083C848.1483 898.9295 898.9283 848.1495 898.9283 747.5595V151.3695C898.9283 50.7795 848.1483 -0.0005 745.6083 -0.0005H153.3183C51.2683 -0.0005 -0.0017 50.2895 -0.0017 151.3695V747.5595C-0.0017 848.6295 51.2683 898.9295 153.3183 898.9295ZM186.5283 654.2995C168.4583 654.2995 156.7383 642.5795 156.7383 624.5095C156.7383 614.2595 160.1583 605.4695 167.9683 597.1695L300.7783 440.9195C324.7083 413.0895 351.0783 384.7695 351.0783 352.0495C351.0783 314.9395 324.7083 290.0395 284.1783 290.0395C248.5383 290.0395 223.1483 308.1095 210.4483 346.1895C203.6183 361.3295 196.2883 369.6295 181.6383 369.6295C164.0583 369.6295 153.3183 357.4195 153.3183 339.3595C153.3183 333.4995 154.2983 327.6395 155.2783 321.2895C168.4583 270.0195 221.6783 231.4495 281.7383 231.4495C360.8383 231.4495 412.1083 276.3695 412.1083 346.6795C412.1083 396.9695 384.2783 433.1095 347.1683 476.5595L249.0283 590.8195V594.7295H395.0183C410.6483 594.7295 422.8483 604.9795 422.8483 624.0195C422.8483 642.0895 410.6483 654.2995 395.0183 654.2995ZM616.2083 666.0195C553.2183 666.0195 503.4183 632.8095 488.2783 590.8195C485.3483 583.9795 483.3983 576.1695 483.3983 567.8695C483.3983 551.2695 495.1183 538.5695 512.2083 538.5695C523.9283 538.5695 533.6883 545.8995 541.0183 560.5495C555.6683 590.8195 584.9583 608.8895 619.6283 608.8895C667.9683 608.8895 701.1683 577.1495 701.1683 524.4095C701.1683 478.0295 670.8983 442.8695 626.9483 442.8695C604.4883 442.8695 588.8683 450.1995 567.8683 468.2595C552.2483 481.4495 542.4783 485.8395 526.8583 485.8395C503.9083 485.8395 489.7483 468.2595 491.6983 441.8895L503.9083 285.1595C505.8583 258.2995 522.9483 242.1895 549.8083 242.1895H722.6583C737.3083 242.1895 747.5583 254.3895 747.5583 270.5095C747.5583 287.1095 736.8183 298.8295 722.6583 298.8295H556.1483L546.8783 428.2195H548.8283C563.9683 405.2695 600.0983 388.6695 633.7883 388.6695C711.4283 388.6695 764.1583 445.3095 764.1583 522.9495C764.1583 611.3295 704.5883 666.0195 616.2083 666.0195Z"/>
</svg>