<?xml version="1.0" encoding="UTF-8" standalone="no"?>
<svg xmlns="http://www.w3.org/2000/svg"
     width="898.92578125" height="898.92578125"
     viewBox="0 0 898.92578125 898.92578125"
     fill="currentColor">
  <path d="M153.3183 898.9295H745.6083C848.1483 898.9295 898.9283 848.1495 898.9283 747.5595V151.3695C898.9283 50.7795 848.1483 -0.0005 745.6083 -0.0005H153.3183C51.2683 -0.0005 -0.0017 50.2895 -0.0017 151.3695V747.5595C-0.0017 848.6295 51.2683 898.9295 153.3183 898.9295ZM154.2983 820.3095C105.4683 820.3095 78.6183 794.4295 78.6183 743.6495V155.2695C78.6183 104.4895 105.4683 78.6095 154.2983 78.6095H744.6283C792.9683 78.6095 820.3083 104.4895 820.3083 155.2695V743.6495C820.3083 794.4295 792.9683 820.3095 744.6283 820.3095ZM194.3383 647.9495H396.4883C411.6183 647.9495 423.3383 636.2295 423.3383 618.6495C423.3383 600.5895 411.6183 590.3295 396.4883 590.3295H254.3983V586.9095L350.0983 475.5895C386.2283 433.5895 413.0883 398.4395 413.0883 349.6095C413.0883 281.7395 363.2783 238.2795 286.6183 238.2795C228.5183 238.2795 176.7583 275.3895 164.0583 325.1995C163.0883 331.5395 162.1083 336.9095 162.1083 342.7695C162.1083 360.3495 172.3683 372.0695 189.4483 372.0695C203.1283 372.0695 210.4483 363.7695 217.2883 349.1195C229.4883 312.4995 253.9083 294.4295 289.0583 294.4295C328.6183 294.4295 354.0083 318.8495 354.0083 354.9795C354.0083 386.7195 328.6183 414.0595 305.1783 441.4095L176.2683 592.7695C168.9483 601.0695 165.5283 609.3795 165.5283 619.1395C165.5283 636.7195 176.7583 647.9495 194.3383 647.9495ZM610.8383 659.1795C696.7783 659.1795 754.3983 606.4495 754.3983 520.5095C754.3983 445.3095 703.1283 390.6295 627.9283 390.6295C595.2183 390.6295 560.0583 406.7395 545.4083 428.7095H543.4583L552.7383 303.2195H714.3583C728.0283 303.2195 738.2783 291.9895 738.2783 275.8795C738.2783 260.2495 728.5183 248.5395 714.3583 248.5395H546.3883C520.5083 248.5395 503.9083 264.1595 501.9483 290.0395L490.2383 442.3795C488.2783 467.7695 501.9483 484.3795 524.4183 484.3795C539.5483 484.3795 548.8283 480.4695 563.9683 467.7695C584.4683 450.1995 599.6083 442.8695 621.5783 442.8695C664.0583 442.8695 693.8483 477.0495 693.8483 521.9695C693.8483 573.2395 661.1283 603.9995 614.2583 603.9995C580.5683 603.9995 552.2483 586.4295 538.0883 557.1295C530.7583 542.9695 521.4883 536.1295 510.2583 536.1295C493.6483 536.1295 482.4183 548.3395 482.4183 564.4495C482.4183 572.2695 484.3783 579.5895 486.8183 586.4295C501.4683 626.9495 549.8083 659.1795 610.8383 659.1795Z"/>
</svg>