<?xml version="1.0" encoding="UTF-8" standalone="no"?>
<svg xmlns="http://www.w3.org/2000/svg"
     width="898.92578125" height="898.92578125"
     viewBox="0 0 898.92578125 898.92578125"
     fill="currentColor">
  <path d="M153.3183 898.9295H745.6083C848.1483 898.9295 898.9283 848.1495 898.9283 747.5595V151.3695C898.9283 50.7795 848.1483 -0.0005 745.6083 -0.0005H153.3183C51.2683 -0.0005 -0.0017 50.2895 -0.0017 151.3695V747.5595C-0.0017 848.6295 51.2683 898.9295 153.3183 898.9295ZM182.1283 654.2995C164.0583 654.2995 152.3483 642.5795 152.3483 624.5095C152.3483 614.2595 155.7583 605.4695 163.5783 597.1695L296.3883 440.9195C320.3083 413.0895 346.6783 384.7695 346.6783 352.0495C346.6783 314.9395 320.3083 290.0395 279.7883 290.0395C244.1383 290.0395 218.7483 308.1095 206.0583 346.1895C199.2183 361.3295 191.8983 369.6295 177.2483 369.6295C159.6683 369.6295 148.9283 357.4195 148.9283 339.3595C148.9283 333.4995 149.8983 327.6395 151.3683 321.2895C164.0583 270.0195 217.2883 231.4495 277.3483 231.4495C356.4483 231.4495 407.7183 276.3695 407.7183 346.6795C407.7183 396.9695 379.8783 433.1095 342.7783 476.5595L244.6283 590.8195V594.7295H390.6283C406.2483 594.7295 418.4583 604.9795 418.4583 624.0195C418.4583 642.0895 406.2483 654.2995 390.6283 654.2995ZM622.0683 666.4995C570.7983 666.4995 527.8283 646.9695 501.9483 598.1395C484.8683 566.8895 474.6083 521.9695 474.6083 460.4495C474.6083 307.1295 534.6683 231.4495 631.8383 231.4495C688.9683 231.4495 729.4883 261.2295 742.1883 294.9195C745.1183 301.7595 746.0983 307.6195 746.0983 314.4495C746.0983 331.0595 734.8683 342.2895 721.1883 342.2895C707.0283 342.2895 699.7083 335.9395 690.9183 323.2395C678.2183 303.7095 657.7183 290.0395 629.3983 290.0395C572.7583 290.0395 534.1783 349.6095 534.1783 444.3395V449.2195H538.0883C549.8083 416.0195 583.9883 385.7395 637.6983 385.7395C702.6383 385.7395 762.2083 433.5895 762.2083 520.0195C762.2083 612.3095 703.6183 666.4995 622.0683 666.4995ZM619.1383 610.8395C667.4783 610.8395 698.7283 576.6595 698.7283 522.9495C698.7283 472.6595 666.5083 437.9895 619.1383 437.9895C572.2683 437.9895 540.0383 473.1395 540.0383 522.4595C540.0383 574.2195 572.7583 610.8395 619.1383 610.8395Z"/>
</svg>