<?xml version="1.0" encoding="UTF-8" standalone="no"?>
<svg xmlns="http://www.w3.org/2000/svg"
     width="996.09375" height="996.09375"
     viewBox="0 0 996.09375 996.09375"
     fill="currentColor">
  <path d="M498.0477 996.0959C770.5077 996.0959 996.0977 770.0159 996.0977 498.0459C996.0977 225.5859 770.0177 -0.0041 497.5577 -0.0041C225.5877 -0.0041 -0.0023 225.5859 -0.0023 498.0459C-0.0023 770.0159 226.0777 996.0959 498.0477 996.0959ZM498.0477 913.0859C267.5777 913.0859 83.4977 728.5159 83.4977 498.0459C83.4977 267.5759 267.0877 83.0059 497.5577 83.0059C728.0277 83.0059 913.0877 267.5759 913.0877 498.0459C913.0877 728.5159 728.5177 913.0859 498.0477 913.0859ZM252.4377 697.2659H454.0977C469.7277 697.2659 481.4477 685.5459 481.4477 667.9659C481.4477 649.9059 469.7277 639.6459 454.0977 639.6459H312.4977V636.2259L408.2077 524.9059C444.3377 482.9059 471.1877 447.7559 471.1877 398.9259C471.1877 331.0559 421.3877 287.5959 344.7277 287.5959C286.6177 287.5959 234.8677 324.7059 222.1677 374.5159C221.1877 380.8559 220.2177 386.2259 220.2177 392.0859C220.2177 409.6659 230.4677 421.3859 247.0677 421.3859C261.2277 421.3859 268.5577 413.0859 274.8977 398.4359C287.5977 361.8159 312.0077 343.7459 347.1677 343.7459C386.7177 343.7459 412.1077 368.1659 412.1077 404.2959C412.1077 436.0359 386.7177 463.3759 363.2777 490.7259L234.3777 642.0859C227.0477 650.3859 223.6377 658.6959 223.6377 668.4559C223.6377 686.0359 234.8677 697.2659 252.4377 697.2659ZM607.4177 703.1259C620.6077 703.1259 629.8877 695.7959 638.6677 679.1959L791.0177 374.5159C798.3377 358.8859 800.2977 350.0959 800.2977 339.8459C800.2977 315.9159 783.2077 297.3659 756.8377 297.3659H559.5677C542.9677 297.3659 531.7377 308.5959 531.7377 325.1959C531.7377 341.3059 542.9677 352.0459 559.5677 352.0459H731.4477V355.9559L580.0777 648.9259C575.6877 656.2459 574.7077 662.1059 574.7077 671.3859C574.7077 689.9459 588.8677 703.1259 607.4177 703.1259Z"/>
</svg>