<?xml version="1.0" encoding="UTF-8" standalone="no"?>
<svg xmlns="http://www.w3.org/2000/svg"
     width="898.92578125" height="898.92578125"
     viewBox="0 0 898.92578125 898.92578125"
     fill="currentColor">
  <path d="M153.3183 898.9295H745.6083C848.1483 898.9295 898.9283 848.1495 898.9283 747.5595V151.3695C898.9283 50.7795 848.1483 -0.0005 745.6083 -0.0005H153.3183C51.2683 -0.0005 -0.0017 50.2895 -0.0017 151.3695V747.5595C-0.0017 848.6295 51.2683 898.9295 153.3183 898.9295ZM154.2983 820.3095C105.4683 820.3095 78.6183 794.4295 78.6183 743.6495V155.2695C78.6183 104.4895 105.4683 78.6095 154.2983 78.6095H744.6283C792.9683 78.6095 820.3083 104.4895 820.3083 155.2695V743.6495C820.3083 794.4295 792.9683 820.3095 744.6283 820.3095ZM204.5883 647.9495H406.7383C421.8783 647.9495 433.5983 636.2295 433.5983 618.6495C433.5983 600.5895 421.8783 590.3295 406.7383 590.3295H264.6483V586.9095L360.3483 475.5895C396.4883 433.5895 423.3383 398.4395 423.3383 349.6095C423.3383 281.7395 373.5383 238.2795 296.8783 238.2795C238.7683 238.2795 187.0083 275.3895 174.3183 325.1995C173.3383 331.5395 172.3683 336.9095 172.3683 342.7695C172.3683 360.3495 182.6183 372.0695 199.7083 372.0695C213.3783 372.0695 220.6983 363.7695 227.5383 349.1195C239.7483 312.4995 264.1583 294.4295 299.3183 294.4295C338.8683 294.4295 364.2583 318.8495 364.2583 354.9795C364.2583 386.7195 338.8683 414.0595 315.4283 441.4095L186.5283 592.7695C179.1983 601.0695 175.7783 609.3795 175.7783 619.1395C175.7783 636.7195 187.0083 647.9495 204.5883 647.9495ZM559.5683 653.8095C572.7583 653.8095 582.0283 646.4795 590.8183 629.8795L743.1683 325.1995C750.4883 309.5695 752.4383 300.7795 752.4383 290.5295C752.4383 266.5995 735.3483 248.0495 708.9883 248.0495H511.7183C495.1183 248.0495 483.8883 259.2795 483.8883 275.8795C483.8883 291.9895 495.1183 302.7295 511.7183 302.7295H683.5983V306.6395L532.2283 599.6095C527.8283 606.9295 526.8583 612.7895 526.8583 622.0695C526.8583 640.6295 541.0183 653.8095 559.5683 653.8095Z"/>
</svg>