<?xml version="1.0" encoding="UTF-8" standalone="no"?>
<svg xmlns="http://www.w3.org/2000/svg"
     width="996.09375" height="996.09375"
     viewBox="0 0 996.09375 996.09375"
     fill="currentColor">
  <path d="M498.0477 996.0959C770.5077 996.0959 996.0977 770.0159 996.0977 498.0459C996.0977 225.5859 770.0177 -0.0041 497.5577 -0.0041C225.5877 -0.0041 -0.0023 225.5859 -0.0023 498.0459C-0.0023 770.0159 226.0777 996.0959 498.0477 996.0959ZM498.0477 913.0859C267.5777 913.0859 83.4977 728.5159 83.4977 498.0459C83.4977 267.5759 267.0877 83.0059 497.5577 83.0059C728.0277 83.0059 913.0877 267.5759 913.0877 498.0459C913.0877 728.5159 728.5177 913.0859 498.0477 913.0859ZM239.2577 697.2659H440.9177C456.5477 697.2659 468.2577 685.5459 468.2577 667.9659C468.2577 649.9059 456.5477 639.6459 440.9177 639.6459H299.3177V636.2259L395.0177 524.9059C431.1477 482.9059 458.0077 447.7559 458.0077 398.9259C458.0077 331.0559 408.2077 287.5959 331.5477 287.5959C273.4377 287.5959 221.6777 324.7059 208.9877 374.5159C208.0077 380.8559 207.0277 386.2259 207.0277 392.0859C207.0277 409.6659 217.2877 421.3859 233.8877 421.3859C248.0477 421.3859 255.3677 413.0859 261.7177 398.4359C274.4177 361.8159 298.8277 343.7459 333.9877 343.7459C373.5377 343.7459 398.9277 368.1659 398.9277 404.2959C398.9277 436.0359 373.5377 463.3759 350.0977 490.7259L221.1877 642.0859C213.8677 650.3859 210.4477 658.6959 210.4477 668.4559C210.4477 686.0359 221.6777 697.2659 239.2577 697.2659ZM660.6477 708.4959C745.6077 708.4959 803.7077 659.6659 803.7077 588.8659C803.7077 539.0659 772.9477 498.5359 720.7077 487.7959V484.8659C765.6277 472.6559 789.0577 437.4959 789.0577 395.0159C789.0577 331.5459 736.8177 287.5959 661.6177 287.5959C586.9177 287.5959 534.1777 331.5459 534.1777 395.0159C534.1777 437.4959 557.6177 471.6759 603.0277 484.8659V487.7959C549.8077 498.5359 520.0177 539.5459 520.0177 589.3559C520.0177 660.6459 576.1677 708.4959 660.6477 708.4959ZM661.6177 465.3359C623.5377 465.3359 596.6777 437.9859 596.6777 400.8759C596.6777 363.7659 623.5377 338.3759 661.6177 338.3759C700.1977 338.3759 727.0477 363.7659 727.0477 400.8759C727.0477 437.9859 699.7077 465.3359 661.6177 465.3359ZM662.1077 657.7159C615.7277 657.7159 582.0277 627.9259 582.0277 584.9559C582.0277 542.9659 615.7277 512.2059 662.1077 512.2059C709.4777 512.2059 742.1877 542.4759 742.1877 584.9559C742.1877 627.9259 708.4977 657.7159 662.1077 657.7159Z"/>
</svg>