<?xml version="1.0" encoding="UTF-8" standalone="no"?>
<svg xmlns="http://www.w3.org/2000/svg"
     width="898.92578125" height="898.92578125"
     viewBox="0 0 898.92578125 898.92578125"
     fill="currentColor">
  <path d="M153.3183 898.9295H745.6083C848.1483 898.9295 898.9283 848.1495 898.9283 747.5595V151.3695C898.9283 50.7795 848.1483 -0.0005 745.6083 -0.0005H153.3183C51.2683 -0.0005 -0.0017 50.2895 -0.0017 151.3695V747.5595C-0.0017 848.6295 51.2683 898.9295 153.3183 898.9295ZM154.2983 820.3095C105.4683 820.3095 78.6183 794.4295 78.6183 743.6495V155.2695C78.6183 104.4895 105.4683 78.6095 154.2983 78.6095H744.6283C792.9683 78.6095 820.3083 104.4895 820.3083 155.2695V743.6495C820.3083 794.4295 792.9683 820.3095 744.6283 820.3095ZM191.4083 647.9495H393.5583C408.6883 647.9495 420.4083 636.2295 420.4083 618.6495C420.4083 600.5895 408.6883 590.3295 393.5583 590.3295H251.4683V586.9095L347.1683 475.5895C383.2983 433.5895 410.1583 398.4395 410.1583 349.6095C410.1583 281.7395 360.3483 238.2795 283.6883 238.2795C225.5883 238.2795 173.8283 275.3895 161.1283 325.1995C160.1583 331.5395 159.1783 336.9095 159.1783 342.7695C159.1783 360.3495 169.4383 372.0695 186.5283 372.0695C200.1983 372.0695 207.5183 363.7695 214.3583 349.1195C226.5583 312.4995 250.9783 294.4295 286.1283 294.4295C325.6883 294.4295 351.0783 318.8495 351.0783 354.9795C351.0783 386.7195 325.6883 414.0595 302.2483 441.4095L173.3383 592.7695C166.0183 601.0695 162.5983 609.3795 162.5983 619.1395C162.5983 636.7195 173.8283 647.9495 191.4083 647.9495ZM612.7883 659.1795C697.7583 659.1795 755.8583 610.3495 755.8583 539.5495C755.8583 489.7495 725.0983 449.2195 672.8483 438.4795V435.5495C717.7783 423.3395 741.6983 388.1795 741.6983 345.6995C741.6983 282.2295 688.9683 238.2795 613.7683 238.2795C539.0583 238.2795 486.3283 282.2295 486.3283 345.6995C486.3283 388.1795 509.7683 422.3595 555.1783 435.5495V438.4795C501.9483 449.2195 472.1683 490.2295 472.1683 540.0395C472.1683 611.3295 528.3183 659.1795 612.7883 659.1795ZM613.7683 416.0195C575.6883 416.0195 548.8283 388.6695 548.8283 351.5595C548.8283 314.4495 575.6883 289.0595 613.7683 289.0595C652.3483 289.0595 679.1983 314.4495 679.1983 351.5595C679.1983 388.6695 652.3483 416.0195 613.7683 416.0195ZM614.2583 608.3995C567.8683 608.3995 534.1783 578.6095 534.1783 535.6395C534.1783 493.6495 567.8683 462.8895 614.2583 462.8895C661.6183 462.8895 694.3383 493.1595 694.3383 535.6395C694.3383 578.6095 660.6483 608.3995 614.2583 608.3995Z"/>
</svg>