<?xml version="1.0" encoding="UTF-8" standalone="no"?>
<svg xmlns="http://www.w3.org/2000/svg"
     width="898.92578125" height="898.92578125"
     viewBox="0 0 898.92578125 898.92578125"
     fill="currentColor">
  <path d="M153.3183 898.9295H745.6083C848.1483 898.9295 898.9283 848.1495 898.9283 747.5595V151.3695C898.9283 50.7795 848.1483 -0.0005 745.6083 -0.0005H153.3183C51.2683 -0.0005 -0.0017 50.2895 -0.0017 151.3695V747.5595C-0.0017 848.6295 51.2683 898.9295 153.3183 898.9295ZM154.2983 820.3095C105.4683 820.3095 78.6183 794.4295 78.6183 743.6495V155.2695C78.6183 104.4895 105.4683 78.6095 154.2983 78.6095H744.6283C792.9683 78.6095 820.3083 104.4895 820.3083 155.2695V743.6495C820.3083 794.4295 792.9683 820.3095 744.6283 820.3095ZM195.7983 647.9495H397.9483C413.5783 647.9495 425.2883 636.2295 425.2883 618.6495C425.2883 600.5895 413.5783 590.3295 397.9483 590.3295H255.8583V586.9095L351.5583 475.5895C387.6983 433.5895 414.5483 398.4395 414.5483 349.6095C414.5483 281.7395 365.2383 238.2795 288.5783 238.2795C230.4683 238.2795 178.7083 275.3895 166.0183 325.1995C165.0383 331.5395 163.5783 336.9095 163.5783 342.7695C163.5783 360.3495 173.8283 372.0695 190.9183 372.0695C205.0783 372.0695 212.3983 363.7695 218.7483 349.1195C230.9583 312.4995 255.8583 294.4295 291.0183 294.4295C330.0783 294.4295 355.9583 318.8495 355.9583 354.9795C355.9583 386.7195 330.0783 414.0595 307.1283 441.4095L178.2183 592.7695C170.4083 601.0695 167.4783 609.3795 167.4783 619.1395C167.4783 636.7195 178.7083 647.9495 195.7983 647.9495ZM609.3783 659.1795C706.5383 659.1795 759.2783 582.0295 759.2783 435.0595C759.2783 307.1295 706.5383 238.2795 614.7483 238.2795C532.7183 238.2795 479.0083 293.4595 479.0083 379.3895C479.0083 463.3795 536.1283 510.2495 600.0983 510.2495C653.8083 510.2495 685.5483 481.4495 698.2383 448.2395H701.1683C702.1483 545.4095 665.0383 603.0295 608.3983 603.0295C580.5683 603.0295 558.1083 588.3795 546.3883 566.8895C538.5783 553.2195 529.2983 547.8495 516.5983 547.8495C501.4683 547.8495 490.7183 559.5695 490.7183 576.6595C490.7183 581.5395 492.1883 588.3795 494.1383 594.2395C502.4383 621.0895 541.9883 659.1795 609.3783 659.1795ZM618.6483 459.9595C572.2683 459.9595 541.0183 425.2895 541.0183 376.4695C541.0183 325.1995 571.2883 291.4995 618.6483 291.4995C663.5783 291.4995 695.7983 327.1495 695.7983 377.4395C695.7983 425.2895 664.0583 459.9595 618.6483 459.9595Z"/>
</svg>