<?xml version="1.0" encoding="UTF-8" standalone="no"?>
<svg xmlns="http://www.w3.org/2000/svg"
     width="996.09375" height="996.09375"
     viewBox="0 0 996.09375 996.09375"
     fill="currentColor">
  <path d="M498.0477 996.0959C770.5077 996.0959 996.0977 770.0159 996.0977 498.0459C996.0977 225.5859 770.0177 -0.0041 497.5577 -0.0041C225.5877 -0.0041 -0.0023 225.5859 -0.0023 498.0459C-0.0023 770.0159 226.0777 996.0959 498.0477 996.0959ZM498.0477 913.0859C267.5777 913.0859 83.4977 728.5159 83.4977 498.0459C83.4977 267.5759 267.0877 83.0059 497.5577 83.0059C728.0277 83.0059 913.0877 267.5759 913.0877 498.0459C913.0877 728.5159 728.5177 913.0859 498.0477 913.0859ZM494.1377 730.4659C598.6377 730.4659 663.5777 675.2959 663.5777 598.6359C663.5777 541.0159 620.6077 495.1159 561.0377 489.7459V485.8359C609.8677 478.5159 647.9477 433.5959 647.9477 382.3259C647.9477 314.4559 585.9377 265.6259 498.5377 265.6259C418.9477 265.6259 358.8877 302.7359 345.7077 360.3559C344.2377 367.1859 343.2577 372.5559 343.2577 379.8859C343.2577 398.9259 357.4177 412.1059 376.9577 412.1059C394.5277 412.1059 404.7877 403.8059 410.1577 386.7159C421.3877 350.0959 451.6577 327.1459 497.0677 327.1459C545.8977 327.1459 575.6877 351.5659 575.6877 391.1159C575.6877 431.1559 541.9877 460.9359 495.1177 460.9359H464.3577C446.7777 460.9359 434.0777 473.1459 434.0777 491.2059C434.0777 508.2959 446.7777 520.9959 464.3577 520.9959H498.0477C553.2277 520.9959 590.8177 551.2659 590.8177 595.7059C590.8177 639.6459 552.7377 668.4559 495.6077 668.4559C442.8677 668.4559 413.0877 642.5759 401.3677 608.8859C394.5277 591.7959 384.2777 583.9859 367.6777 583.9859C348.1477 583.9859 333.9877 597.6559 333.9877 617.1859C333.9877 624.5159 334.4777 628.9059 336.4277 635.7459C351.0777 691.8959 414.5477 730.4659 494.1377 730.4659Z"/>
</svg>