<?xml version="1.0" encoding="UTF-8" standalone="no"?>
<svg xmlns="http://www.w3.org/2000/svg"
     width="898.92578125" height="898.92578125"
     viewBox="0 0 898.92578125 898.92578125"
     fill="currentColor">
  <path d="M153.3183 898.9295H745.6083C848.1483 898.9295 898.9283 848.1495 898.9283 747.5595V151.3695C898.9283 50.7795 848.1483 -0.0005 745.6083 -0.0005H153.3183C51.2683 -0.0005 -0.0017 50.2895 -0.0017 151.3695V747.5595C-0.0017 848.6295 51.2683 898.9295 153.3183 898.9295ZM154.2983 820.3095C105.4683 820.3095 78.6183 794.4295 78.6183 743.6495V155.2695C78.6183 104.4895 105.4683 78.6095 154.2983 78.6095H744.6283C792.9683 78.6095 820.3083 104.4895 820.3083 155.2695V743.6495C820.3083 794.4295 792.9683 820.3095 744.6283 820.3095ZM446.2883 681.1495C551.2683 681.1495 615.7183 625.9795 615.7183 549.3195C615.7183 491.6995 572.7583 445.7995 513.1883 440.4295V436.5195C562.0083 429.1995 600.0983 384.2795 600.0983 333.0095C600.0983 265.1395 538.0883 216.3095 450.6883 216.3095C371.0983 216.3095 311.0383 253.4195 297.8483 311.0395C296.3883 317.8695 295.8983 323.2395 295.8983 330.5695C295.8983 349.6095 309.5683 362.7895 329.0983 362.7895C346.6783 362.7895 356.9383 354.4895 362.3083 337.3995C373.5383 300.7795 403.8083 277.8295 449.2183 277.8295C498.0483 277.8295 527.8283 302.2495 527.8283 341.7995C527.8283 381.8395 494.1383 411.6195 447.2683 411.6195H416.9883C398.9283 411.6195 386.2283 423.8295 386.2283 441.8895C386.2283 458.9795 398.9283 471.6795 416.9883 471.6795H450.1983C505.3683 471.6795 542.9683 501.9495 542.9683 546.3895C542.9683 590.3295 504.8783 619.1395 447.7583 619.1395C395.0183 619.1395 365.2383 593.2595 353.5183 559.5695C346.6783 542.4795 336.4283 534.6695 319.8283 534.6695C300.2883 534.6695 286.1283 548.3395 286.1283 567.8695C286.1283 575.1995 286.6183 579.5895 288.5783 586.4295C303.2183 642.5795 366.6983 681.1495 446.2883 681.1495Z"/>
</svg>