<?xml version="1.0" encoding="UTF-8" standalone="no"?>
<svg xmlns="http://www.w3.org/2000/svg"
     width="898.92578125" height="898.92578125"
     viewBox="0 0 898.92578125 898.92578125"
     fill="currentColor">
  <path d="M153.3183 898.9295H745.6083C848.1483 898.9295 898.9283 848.1495 898.9283 747.5595V151.3695C898.9283 50.7795 848.1483 -0.0005 745.6083 -0.0005H153.3183C51.2683 -0.0005 -0.0017 50.2895 -0.0017 151.3695V747.5595C-0.0017 848.6295 51.2683 898.9295 153.3183 898.9295ZM446.2883 688.4795C363.7683 688.4795 298.3383 648.9295 283.1983 590.8195C281.2483 583.4995 280.7583 579.0995 280.7583 571.7795C280.7583 551.2695 295.4083 537.1095 315.9183 537.1095C333.0083 537.1095 343.7483 545.4095 350.5883 562.9895C362.7883 597.6595 393.0683 624.0195 447.7583 624.0195C506.3483 624.0195 545.8983 594.7295 545.8983 549.3195C545.8983 503.9095 506.8383 472.6595 450.1983 472.6595H416.0183C397.4583 472.6595 384.2783 459.4695 384.2783 441.8895C384.2783 422.8495 397.4583 410.1595 416.0183 410.1595H447.2683C495.6083 410.1595 530.2783 379.8795 530.2783 338.3795C530.2783 297.8495 499.5083 272.9495 449.2183 272.9495C402.3483 272.9495 371.0983 296.3895 359.8683 333.9795C354.0083 351.5595 343.2583 360.3495 325.1983 360.3495C305.1783 360.3495 291.0183 346.6795 291.0183 326.6595C291.0183 319.3395 291.5083 313.9695 292.9683 306.6395C306.6383 247.0695 368.6483 208.9795 450.6883 208.9795C541.0183 208.9795 604.9783 259.2795 604.9783 329.5895C604.9783 382.3195 565.9183 428.7095 515.1383 436.0395V439.9395C576.6583 445.7995 621.0983 493.1595 621.0983 552.2495C621.0983 631.8395 554.6883 688.4795 446.2883 688.4795Z"/>
</svg>