<?xml version="1.0" encoding="UTF-8" standalone="no"?>
<svg xmlns="http://www.w3.org/2000/svg"
     width="996.09375" height="996.09375"
     viewBox="0 0 996.09375 996.09375"
     fill="currentColor">
  <path d="M498.0477 996.0959C770.5077 996.0959 996.0977 770.0159 996.0977 498.0459C996.0977 225.5859 770.0177 -0.0041 497.5577 -0.0041C225.5877 -0.0041 -0.0023 225.5859 -0.0023 498.0459C-0.0023 770.0159 226.0777 996.0959 498.0477 996.0959ZM498.0477 913.0859C267.5777 913.0859 83.4977 728.5159 83.4977 498.0459C83.4977 267.5759 267.0877 83.0059 497.5577 83.0059C728.0277 83.0059 913.0877 267.5759 913.0877 498.0459C913.0877 728.5159 728.5177 913.0859 498.0477 913.0859ZM332.0277 707.5159C415.0377 707.5159 472.6577 657.7159 472.6577 587.4059C472.6577 535.6459 437.0077 493.6559 387.6977 489.2559V486.3259C427.7377 479.4959 459.4777 438.9659 459.4777 393.0659C459.4777 330.5659 408.2077 287.1059 335.4477 287.1059C269.5277 287.1059 220.2177 324.7059 207.5177 372.5559C206.5477 378.9059 206.5477 383.2959 206.5477 390.1359C206.5477 407.7159 217.2877 419.9259 234.3777 419.9259C249.0277 419.9259 256.8377 412.1059 261.2277 396.4859C272.4577 361.8159 295.8977 343.2659 333.9877 343.2659C372.5577 343.2659 399.8977 366.6959 399.8977 400.8759C399.8977 436.5259 372.5577 462.4059 333.4977 462.4059H307.1277C291.5077 462.4059 280.2777 473.6359 280.2777 491.2059C280.2777 506.8359 291.0177 519.0459 307.1277 519.0459H335.9377C382.3277 519.0459 412.1077 544.9259 412.1077 584.4759C412.1077 622.5559 379.3977 651.3659 332.5177 651.3659C293.9477 651.3659 267.5777 632.8159 254.3977 598.1459C248.5377 583.0059 240.2377 575.1959 226.5577 575.1959C209.9577 575.1959 198.2377 586.9159 198.2377 604.4959C198.2377 611.3259 199.2177 616.2059 200.6877 622.0659C213.8677 666.9959 265.6277 707.5159 332.0277 707.5159ZM660.6477 707.5159C744.6277 707.5159 800.2977 627.4459 800.2977 497.5559C800.2977 367.1859 744.6277 287.1059 660.6477 287.1059C576.6577 287.1059 520.9977 367.1859 520.9977 497.5559C520.9977 627.4459 576.6577 707.5159 660.6477 707.5159ZM660.6477 648.4359C614.2577 648.4359 584.9577 590.8159 584.9577 497.5559C584.9577 403.8059 614.2577 346.1959 660.6477 346.1959C707.0277 346.1959 736.3277 403.8059 736.3277 497.5559C736.3277 590.8159 707.5177 648.4359 660.6477 648.4359Z"/>
</svg>