<?xml version="1.0" encoding="UTF-8" standalone="no"?>
<svg xmlns="http://www.w3.org/2000/svg"
     width="996.09375" height="996.09375"
     viewBox="0 0 996.09375 996.09375"
     fill="currentColor">
  <path d="M498.0477 996.0959C770.5077 996.0959 996.0977 770.0159 996.0977 498.0459C996.0977 225.5859 770.0177 -0.0041 497.5577 -0.0041C225.5877 -0.0041 -0.0023 225.5859 -0.0023 498.0459C-0.0023 770.0159 226.0777 996.0959 498.0477 996.0959ZM327.1477 714.3559C258.7877 714.3559 205.5677 672.3659 191.8977 625.9759C190.4277 620.1159 189.4577 614.7459 189.4577 607.9059C189.4577 589.8459 201.1677 577.6359 218.7477 577.6359C232.9077 577.6359 241.2077 585.4459 247.5577 601.0759C261.2277 636.7159 288.0877 655.7659 327.6377 655.7659C375.9777 655.7659 409.6677 626.4659 409.6677 587.4059C409.6677 546.3859 378.9077 520.0159 331.5477 520.0159H301.7577C285.1577 520.0159 273.9277 507.3259 273.9277 491.2059C273.9277 472.6559 285.6477 460.9359 301.7577 460.9359H328.6177C369.1377 460.9359 396.9777 434.5659 396.9777 397.9459C396.9777 362.7959 369.1377 338.8659 329.0977 338.8659C290.0377 338.8659 266.1177 357.9059 254.8877 393.5559C249.9977 409.6659 241.6977 417.4759 226.5577 417.4759C208.9877 417.4759 197.7577 404.7859 197.7577 386.7159C197.7577 379.8859 197.7577 374.9959 198.7277 368.6559C211.9177 319.3359 262.6977 280.2759 331.0577 280.2759C405.7577 280.2759 458.9877 325.1959 458.9877 389.6459C458.9877 437.0159 426.2677 479.0059 384.7677 485.8359V488.7659C435.5477 493.6559 472.6577 536.6259 472.6577 590.3359C472.6577 662.5959 413.0877 714.3559 327.1477 714.3559ZM666.0177 714.3559C579.5877 714.3559 521.9777 631.8359 521.9777 497.5559C521.9777 362.7959 579.5877 280.2759 666.0177 280.2759C752.9277 280.2759 810.0577 362.7959 810.0577 497.5559C810.0577 631.8359 752.9277 714.3559 666.0177 714.3559ZM666.0177 652.8359C714.3577 652.8359 744.1377 593.7459 744.1377 497.5559C744.1377 400.8759 713.8677 341.7959 666.0177 341.7959C618.6477 341.7959 588.3777 400.8759 588.3777 497.5559C588.3777 593.7459 618.6477 652.8359 666.0177 652.8359Z"/>
</svg>