<?xml version="1.0" encoding="UTF-8" standalone="no"?>
<svg xmlns="http://www.w3.org/2000/svg"
     width="898.92578125" height="898.92578125"
     viewBox="0 0 898.92578125 898.92578125"
     fill="currentColor">
  <path d="M153.3183 898.9295H745.6083C848.1483 898.9295 898.9283 848.1495 898.9283 747.5595V151.3695C898.9283 50.7795 848.1483 -0.0005 745.6083 -0.0005H153.3183C51.2683 -0.0005 -0.0017 50.2895 -0.0017 151.3695V747.5595C-0.0017 848.6295 51.2683 898.9295 153.3183 898.9295ZM154.2983 820.3095C105.4683 820.3095 78.6183 794.4295 78.6183 743.6495V155.2695C78.6183 104.4895 105.4683 78.6095 154.2983 78.6095H744.6283C792.9683 78.6095 820.3083 104.4895 820.3083 155.2695V743.6495C820.3083 794.4295 792.9683 820.3095 744.6283 820.3095ZM284.1783 658.1995C367.1883 658.1995 425.2883 608.3995 425.2883 538.0895C425.2883 486.3295 389.1583 444.3395 339.8483 439.9395V437.0095C380.3683 430.1795 412.1083 389.6495 412.1083 343.7495C412.1083 281.2495 360.3483 237.7895 287.5983 237.7895C221.6783 237.7895 172.8483 275.3895 160.1583 323.2395C158.6883 329.5895 158.6883 333.9795 158.6883 340.8195C158.6883 358.3995 169.4383 370.6095 186.5283 370.6095C201.1683 370.6095 208.9883 362.7895 213.8683 347.1695C224.6083 312.4995 248.0483 293.9495 286.1283 293.9495C324.7083 293.9495 352.0483 317.3795 352.0483 351.5595C352.0483 387.2095 324.7083 413.0895 285.6483 413.0895H259.2783C243.6483 413.0895 232.4183 424.3195 232.4183 441.8895C232.4183 457.5195 243.1683 469.7295 259.2783 469.7295H288.0883C334.4683 469.7295 364.2583 495.6095 364.2583 535.1595C364.2583 573.2395 331.5383 602.0495 284.6683 602.0495C246.0983 602.0495 219.7283 583.4995 206.5383 548.8295C200.6883 533.6895 192.3783 525.8795 178.7083 525.8795C162.1083 525.8795 150.3883 537.5995 150.3883 555.1795C150.3883 562.0095 151.3683 566.8895 152.8283 572.7495C166.0183 617.6795 217.7783 658.1995 284.1783 658.1995ZM612.7883 658.1995C696.7783 658.1995 752.4383 578.1295 752.4383 448.2395C752.4383 317.8695 696.7783 237.7895 612.7883 237.7895C528.8083 237.7895 473.1483 317.8695 473.1483 448.2395C473.1483 578.1295 528.8083 658.1995 612.7883 658.1995ZM612.7883 599.1195C566.4083 599.1195 537.1083 541.4995 537.1083 448.2395C537.1083 354.4895 566.4083 296.8795 612.7883 296.8795C659.6683 296.8795 688.4783 354.4895 688.4783 448.2395C688.4783 541.4995 660.1583 599.1195 612.7883 599.1195Z"/>
</svg>