<?xml version="1.0" encoding="UTF-8" standalone="no"?>
<svg xmlns="http://www.w3.org/2000/svg"
     width="898.92578125" height="898.92578125"
     viewBox="0 0 898.92578125 898.92578125"
     fill="currentColor">
  <path d="M153.3183 898.9295H745.6083C848.1483 898.9295 898.9283 848.1495 898.9283 747.5595V151.3695C898.9283 50.7795 848.1483 -0.0005 745.6083 -0.0005H153.3183C51.2683 -0.0005 -0.0017 50.2895 -0.0017 151.3695V747.5595C-0.0017 848.6295 51.2683 898.9295 153.3183 898.9295ZM278.8083 665.0395C210.4483 665.0395 157.2283 623.0495 143.5583 576.6595C142.0883 570.7995 141.1183 565.4295 141.1183 558.5895C141.1183 540.5295 152.8283 528.3195 170.4083 528.3195C184.5683 528.3195 192.8683 536.1295 199.2183 551.7595C212.8883 587.3995 239.7483 606.4495 279.2983 606.4495C327.6383 606.4495 361.3283 577.1495 361.3283 538.0895C361.3283 497.0695 330.5683 470.6995 283.1983 470.6995H253.4183C236.8183 470.6995 225.5883 458.0095 225.5883 441.8895C225.5883 423.3395 237.3083 411.6195 253.4183 411.6195H280.2783C320.7983 411.6195 348.6283 385.2495 348.6283 348.6295C348.6283 313.4795 320.7983 289.5495 280.7583 289.5495C241.6983 289.5495 217.7783 308.5895 206.5383 344.2395C201.6583 360.3495 193.3583 368.1595 178.2183 368.1595C160.6483 368.1595 149.4183 355.4695 149.4183 337.3995C149.4183 330.5695 149.4183 325.6795 150.8783 319.3395C164.0583 270.0195 214.3583 230.9595 282.7183 230.9595C357.4183 230.9595 411.1283 275.8795 411.1283 340.3295C411.1283 387.6995 378.4183 429.6895 336.4283 436.5195V439.4495C387.2083 444.3395 424.8083 487.3095 424.8083 541.0195C424.8083 613.2795 364.7483 665.0395 278.8083 665.0395ZM617.6783 665.0395C531.2483 665.0395 473.6283 582.5195 473.6283 448.2395C473.6283 313.4795 531.2483 230.9595 617.6783 230.9595C704.5883 230.9595 761.7183 313.4795 761.7183 448.2395C761.7183 582.5195 704.5883 665.0395 617.6783 665.0395ZM617.6783 603.5195C666.5083 603.5195 695.7983 544.4295 695.7983 448.2395C695.7983 351.5595 666.0183 292.4795 617.6783 292.4795C570.3083 292.4795 540.0383 351.5595 540.0383 448.2395C540.0383 544.4295 570.3083 603.5195 617.6783 603.5195Z"/>
</svg>