<?xml version="1.0" encoding="UTF-8" standalone="no"?>
<svg xmlns="http://www.w3.org/2000/svg"
     width="898.92578125" height="898.92578125"
     viewBox="0 0 898.92578125 898.92578125"
     fill="currentColor">
  <path d="M153.3183 898.9295H745.6083C848.1483 898.9295 898.9283 848.1495 898.9283 747.5595V151.3695C898.9283 50.7795 848.1483 -0.0005 745.6083 -0.0005H153.3183C51.2683 -0.0005 -0.0017 50.2895 -0.0017 151.3695V747.5595C-0.0017 848.6295 51.2683 898.9295 153.3183 898.9295ZM318.8483 666.0195C249.9983 666.0195 196.2883 624.0195 183.5983 577.6395C181.6383 571.2895 180.6683 565.9195 180.6683 559.0795C180.6683 541.4995 192.8683 528.8095 209.9583 528.8095C224.6083 528.8095 232.4183 536.6195 238.7683 552.7295C251.9483 587.8895 279.2983 607.4195 319.3383 607.4195C367.6783 607.4195 400.8783 578.1295 400.8783 539.0595C400.8783 498.0495 370.1183 471.1895 322.2683 471.1895H292.9683C276.8583 471.1895 265.6283 458.4995 265.6283 442.3795C265.6283 423.8295 276.8583 412.1095 292.9683 412.1095H319.8283C360.3483 412.1095 388.1883 385.7395 388.1883 349.1195C388.1883 313.9695 360.8383 290.0395 320.3083 290.0395C281.2483 290.0395 257.3283 309.5695 246.0983 344.7295C241.2083 360.8395 232.9083 368.6495 217.7783 368.6495C200.6883 368.6495 188.9683 355.9595 188.9683 337.8895C188.9683 331.5395 188.9683 326.1695 190.4283 319.8195C203.6183 270.5095 253.9083 231.4495 322.2683 231.4495C397.4583 231.4495 450.6883 276.3695 450.6883 340.8195C450.6883 388.1795 417.9683 430.1795 375.9783 437.0095V439.9395C426.7583 445.3095 463.8683 488.2795 463.8683 541.9895C463.8683 614.2595 404.2983 666.0195 318.8483 666.0195ZM668.9483 659.6695C650.3883 659.6695 637.6983 646.9695 637.6983 627.4395V314.9395H635.2583L581.5383 354.4895C569.8283 363.7695 564.9383 364.2595 556.6383 364.2595C541.9883 364.2595 527.8283 351.0695 527.8283 333.9795C527.8283 320.7995 534.1783 311.5195 544.4383 304.1995L621.0983 251.9495C639.1583 239.7495 648.9283 234.8595 665.5283 234.8595C686.5283 234.8595 700.6883 249.9995 700.6883 270.9995V627.4395C700.6883 646.9695 688.4783 659.6695 668.9483 659.6695Z"/>
</svg>