<?xml version="1.0" encoding="UTF-8" standalone="no"?>
<svg xmlns="http://www.w3.org/2000/svg"
     width="898.92578125" height="898.92578125"
     viewBox="0 0 898.92578125 898.92578125"
     fill="currentColor">
  <path d="M153.3183 898.9295H745.6083C848.1483 898.9295 898.9283 848.1495 898.9283 747.5595V151.3695C898.9283 50.7795 848.1483 -0.0005 745.6083 -0.0005H153.3183C51.2683 -0.0005 -0.0017 50.2895 -0.0017 151.3695V747.5595C-0.0017 848.6295 51.2683 898.9295 153.3183 898.9295ZM154.2983 820.3095C105.4683 820.3095 78.6183 794.4295 78.6183 743.6495V155.2695C78.6183 104.4895 105.4683 78.6095 154.2983 78.6095H744.6283C792.9683 78.6095 820.3083 104.4895 820.3083 155.2695V743.6495C820.3083 794.4295 792.9683 820.3095 744.6283 820.3095ZM322.7583 659.1795C405.2783 659.1795 463.3783 609.3795 463.3783 539.0595C463.3783 487.3095 427.2483 445.3095 377.9283 440.4295V437.4995C418.4583 430.6595 450.1983 390.1395 450.1983 344.2395C450.1983 281.7395 398.9283 238.2795 325.6883 238.2795C259.7683 238.2795 210.9383 275.8795 198.2383 323.7295C196.7783 330.0795 196.7783 334.9595 196.7783 341.3095C196.7783 358.8895 208.0083 371.0895 224.6083 371.0895C239.2583 371.0895 247.0683 363.2795 251.9483 347.6595C262.6983 313.4795 286.1283 294.4295 324.2183 294.4295C363.2783 294.4295 390.1383 317.8695 390.1383 352.0495C390.1383 387.6995 362.7883 413.5695 323.7283 413.5695H297.3683C281.7383 413.5695 270.9983 424.8095 270.9983 442.3795C270.9983 458.0095 281.7383 470.2195 297.3683 470.2195H326.1683C372.5583 470.2195 402.3483 496.5795 402.3483 536.1295C402.3483 574.2195 370.1183 603.0295 323.2383 603.0295C284.1783 603.0295 257.8083 583.9795 244.6283 549.8095C238.7683 534.1795 230.9583 526.3695 216.7983 526.3695C200.6883 526.3695 188.4783 538.5695 188.4783 555.6595C188.4783 562.4995 189.4483 567.3795 191.4083 573.7295C204.0983 618.6495 255.8583 659.1795 322.7583 659.1795ZM662.1083 653.3195C680.6683 653.3195 692.8683 641.1095 692.8683 622.0695V276.3695C692.8683 255.8595 679.1983 241.2095 658.6883 241.2095C642.5783 241.2095 633.2983 246.0895 615.7183 257.8095L541.5083 308.5895C531.2483 315.9195 525.3883 324.7095 525.3883 337.3995C525.3883 353.9995 539.0583 366.6995 553.2183 366.6995C561.0383 366.6995 565.9183 366.2095 577.1483 357.4195L629.3983 318.8495H631.8383V622.0695C631.8383 641.1095 644.0383 653.3195 662.1083 653.3195Z"/>
</svg>