<?xml version="1.0" encoding="UTF-8" standalone="no"?>
<svg xmlns="http://www.w3.org/2000/svg"
     width="898.92578125" height="898.92578125"
     viewBox="0 0 898.92578125 898.92578125"
     fill="currentColor">
  <path d="M153.3183 898.9295H745.6083C848.1483 898.9295 898.9283 848.1495 898.9283 747.5595V151.3695C898.9283 50.7795 848.1483 -0.0005 745.6083 -0.0005H153.3183C51.2683 -0.0005 -0.0017 50.2895 -0.0017 151.3695V747.5595C-0.0017 848.6295 51.2683 898.9295 153.3183 898.9295ZM154.2983 820.3095C105.4683 820.3095 78.6183 794.4295 78.6183 743.6495V155.2695C78.6183 104.4895 105.4683 78.6095 154.2983 78.6095H744.6283C792.9683 78.6095 820.3083 104.4895 820.3083 155.2695V743.6495C820.3083 794.4295 792.9683 820.3095 744.6283 820.3095ZM287.1083 659.1795C370.1183 659.1795 428.2183 609.3795 428.2183 539.0595C428.2183 487.3095 392.0883 445.3095 342.7783 440.4295V437.4995C383.2983 430.6595 415.0383 390.1395 415.0383 344.2395C415.0383 281.7395 363.2783 238.2795 290.5283 238.2795C224.6083 238.2795 175.7783 275.8795 163.0883 323.7295C161.6183 330.0795 161.6183 334.9595 161.6183 341.3095C161.6183 358.8895 172.3683 371.0895 189.4483 371.0895C204.0983 371.0895 211.9183 363.2795 216.7983 347.6595C227.5383 313.4795 250.9783 294.4295 289.0583 294.4295C327.6383 294.4295 354.9783 317.8695 354.9783 352.0495C354.9783 387.6995 327.6383 413.5695 288.5783 413.5695H262.2083C246.5783 413.5695 235.8383 424.8095 235.8383 442.3795C235.8383 458.0095 246.0983 470.2195 262.2083 470.2195H291.0183C337.3983 470.2195 367.1883 496.5795 367.1883 536.1295C367.1883 574.2195 334.4683 603.0295 287.5983 603.0295C249.0283 603.0295 222.6583 583.9795 209.4683 549.8095C203.6183 534.1795 195.3083 526.3695 181.6383 526.3695C165.0383 526.3695 153.3183 538.5695 153.3183 555.6595C153.3183 562.4995 154.2983 567.3795 155.7583 573.7295C168.9483 618.6495 220.6983 659.1795 287.1083 659.1795ZM521.9683 647.9495H724.1183C739.7483 647.9495 751.4683 636.2295 751.4683 618.6495C751.4683 600.5895 739.7483 590.3295 724.1183 590.3295H582.0283V586.9095L677.7383 475.5895C713.8683 433.5895 740.7183 398.4395 740.7183 349.6095C740.7183 281.7395 691.4083 238.2795 614.7483 238.2795C556.6383 238.2795 504.8783 275.3895 492.1883 325.1995C490.7183 331.5395 489.7483 336.9095 489.7483 342.7695C489.7483 360.3495 499.9983 372.0695 517.0883 372.0695C531.2483 372.0695 538.5783 363.7695 544.9183 349.1195C557.1283 312.4995 582.0283 294.4295 617.1883 294.4295C656.2483 294.4295 681.6383 318.8495 681.6383 354.9795C681.6383 386.7195 656.2483 414.0595 632.8083 441.4095L504.3983 592.7695C496.5783 601.0695 493.6483 609.3795 493.6483 619.1395C493.6483 636.7195 504.8783 647.9495 521.9683 647.9495Z"/>
</svg>