<?xml version="1.0" encoding="UTF-8" standalone="no"?>
<svg xmlns="http://www.w3.org/2000/svg"
     width="898.92578125" height="898.92578125"
     viewBox="0 0 898.92578125 898.92578125"
     fill="currentColor">
  <path d="M153.3183 898.9295H745.6083C848.1483 898.9295 898.9283 848.1495 898.9283 747.5595V151.3695C898.9283 50.7795 848.1483 -0.0005 745.6083 -0.0005H153.3183C51.2683 -0.0005 -0.0017 50.2895 -0.0017 151.3695V747.5595C-0.0017 848.6295 51.2683 898.9295 153.3183 898.9295ZM281.7383 666.0195C213.3783 666.0195 160.1583 624.0195 146.4883 577.6395C145.0183 571.2895 144.0383 565.9195 144.0383 559.0795C144.0383 541.4995 156.2483 528.8095 173.3383 528.8095C187.4983 528.8095 195.7983 536.6195 202.1483 552.7295C215.8183 587.8895 242.6783 607.4195 282.2283 607.4195C330.5683 607.4195 364.2583 578.1295 364.2583 539.0595C364.2583 498.0495 333.4983 471.1895 286.1283 471.1895H256.3483C239.7483 471.1895 229.0083 458.4995 229.0083 442.3795C229.0083 423.8295 240.2383 412.1095 256.3483 412.1095H283.6883C323.7283 412.1095 351.5583 385.7395 351.5583 349.1195C351.5583 313.9695 323.7283 290.0395 284.1783 290.0395C244.6283 290.0395 220.6983 309.5695 209.4683 344.7295C204.5883 360.8395 196.2883 368.6495 181.1483 368.6495C163.5783 368.6495 152.3483 355.9595 152.3483 337.8895C152.3483 331.5395 152.3483 326.1695 153.8083 319.8195C166.9883 270.5095 217.2883 231.4495 285.6483 231.4495C360.3483 231.4495 414.0583 276.3695 414.0583 340.8195C414.0583 388.1795 381.3483 430.1795 339.3583 437.0095V439.9395C390.1383 445.3095 427.7383 488.2795 427.7383 541.9895C427.7383 614.2595 367.6783 666.0195 281.7383 666.0195ZM523.9283 654.2995C506.3483 654.2995 494.6283 642.5795 494.6283 624.5095C494.6283 614.2595 498.0483 605.4695 505.8583 597.1695L638.1883 440.9195C662.1083 413.0895 688.4783 384.7695 688.4783 352.0495C688.4783 314.9395 662.5983 290.0395 622.5583 290.0395C586.4283 290.0395 560.5483 308.1095 547.8483 346.1895C541.5083 361.3295 533.6883 369.6295 519.0383 369.6295C501.4683 369.6295 490.7183 357.4195 490.7183 339.3595C490.7183 333.4995 491.6983 327.6395 493.1683 321.2895C506.3483 270.0195 560.0583 231.4495 619.6283 231.4495C698.7283 231.4495 749.9983 276.3695 749.9983 346.6795C749.9983 396.9695 722.1683 433.1095 685.0583 476.5595L586.4283 590.8195V594.7295H732.4183C748.5383 594.7295 760.7383 604.9795 760.7383 624.0195C760.7383 642.0895 748.5383 654.2995 732.4183 654.2995Z"/>
</svg>