<?xml version="1.0" encoding="UTF-8" standalone="no"?>
<svg xmlns="http://www.w3.org/2000/svg"
     width="898.92578125" height="898.92578125"
     viewBox="0 0 898.92578125 898.92578125"
     fill="currentColor">
  <path d="M153.3183 898.9295H745.6083C848.1483 898.9295 898.9283 848.1495 898.9283 747.5595V151.3695C898.9283 50.7795 848.1483 -0.0005 745.6083 -0.0005H153.3183C51.2683 -0.0005 -0.0017 50.2895 -0.0017 151.3695V747.5595C-0.0017 848.6295 51.2683 898.9295 153.3183 898.9295ZM154.2983 820.3095C105.4683 820.3095 78.6183 794.4295 78.6183 743.6495V155.2695C78.6183 104.4895 105.4683 78.6095 154.2983 78.6095H744.6283C792.9683 78.6095 820.3083 104.4895 820.3083 155.2695V743.6495C820.3083 794.4295 792.9683 820.3095 744.6283 820.3095ZM283.1983 659.1795C365.7183 659.1795 423.8283 609.3795 423.8283 539.0595C423.8283 487.3095 387.6983 445.3095 338.3783 440.4295V437.4995C378.9083 430.6595 410.6483 390.1395 410.6483 344.2395C410.6483 281.7395 359.3783 238.2795 286.1283 238.2795C220.2183 238.2795 171.3883 275.8795 158.6883 323.7295C157.2283 330.0795 157.2283 334.9595 157.2283 341.3095C157.2283 358.8895 168.4583 371.0895 185.0583 371.0895C199.7083 371.0895 207.5183 363.2795 212.3983 347.6595C223.1483 313.4795 247.0683 294.4295 284.6683 294.4295C323.7283 294.4295 350.5883 317.8695 350.5883 352.0495C350.5883 387.6995 323.2383 413.5695 284.6683 413.5695H257.8083C242.1883 413.5695 231.4483 424.8095 231.4483 442.3795C231.4483 458.0095 242.1883 470.2195 257.8083 470.2195H286.6183C333.0083 470.2195 362.7883 496.5795 362.7883 536.1295C362.7883 574.2195 330.5683 603.0295 283.6883 603.0295C244.6283 603.0295 218.2583 583.9795 205.0783 549.8095C199.2183 534.1795 191.4083 526.3695 177.2483 526.3695C161.1283 526.3695 149.4183 538.5695 149.4183 555.6595C149.4183 562.4995 149.8983 567.3795 151.8583 573.7295C164.5483 618.6495 216.3083 659.1795 283.1983 659.1795ZM621.0983 659.1795C703.6183 659.1795 761.7183 609.3795 761.7183 539.0595C761.7183 487.3095 725.5883 445.3095 676.2683 440.4295V437.4995C716.7983 430.6595 748.5383 390.1395 748.5383 344.2395C748.5383 281.7395 697.2683 238.2795 624.0283 238.2795C558.1083 238.2795 509.2783 275.8795 496.5783 323.7295C495.1183 330.0795 495.1183 334.9595 495.1183 341.3095C495.1183 358.8895 506.3483 371.0895 522.9483 371.0895C537.5983 371.0895 545.4083 363.2795 550.2883 347.6595C561.0383 313.4795 584.9583 294.4295 622.5583 294.4295C661.6183 294.4295 688.4783 317.8695 688.4783 352.0495C688.4783 387.6995 661.1283 413.5695 622.5583 413.5695H595.6983C580.0783 413.5695 569.3383 424.8095 569.3383 442.3795C569.3383 458.0095 580.0783 470.2195 595.6983 470.2195H624.5083C670.8983 470.2195 700.6883 496.5795 700.6883 536.1295C700.6883 574.2195 668.4583 603.0295 621.5783 603.0295C583.0083 603.0295 556.1483 583.9795 542.9683 549.8095C537.1083 534.1795 529.2983 526.3695 515.1383 526.3695C499.0283 526.3695 487.3083 538.5695 487.3083 555.6595C487.3083 562.4995 487.7883 567.3795 489.7483 573.7295C502.4383 618.6495 554.1983 659.1795 621.0983 659.1795Z"/>
</svg>