<?xml version="1.0" encoding="UTF-8" standalone="no"?>
<svg xmlns="http://www.w3.org/2000/svg"
     width="996.09375" height="996.09375"
     viewBox="0 0 996.09375 996.09375"
     fill="currentColor">
  <path d="M498.0477 996.0959C770.5077 996.0959 996.0977 770.0159 996.0977 498.0459C996.0977 225.5859 770.0177 -0.0041 497.5577 -0.0041C225.5877 -0.0041 -0.0023 225.5859 -0.0023 498.0459C-0.0023 770.0159 226.0777 996.0959 498.0477 996.0959ZM325.1977 715.3359C256.3477 715.3359 202.6377 673.3359 189.4577 626.9559C187.4977 620.6059 187.0077 615.2359 187.0077 608.3959C187.0077 590.8159 199.2177 578.1259 216.3077 578.1259C230.4677 578.1259 239.2577 585.9359 245.1177 602.0459C258.2977 637.2059 285.6477 656.7359 325.6877 656.7359C373.5377 656.7359 406.7377 627.4459 406.7377 588.3759C406.7377 547.3659 376.9577 520.5059 328.6177 520.5059H299.3177C282.7177 520.5059 271.4877 507.8159 271.4877 491.6959C271.4877 473.1459 282.7177 461.4259 299.3177 461.4259H326.6577C366.2077 461.4259 394.5277 435.0559 394.5277 398.4359C394.5277 363.2859 366.6977 339.3559 327.1477 339.3559C288.0877 339.3559 263.1877 358.8859 252.4377 394.0459C247.0677 410.1559 239.7477 417.9659 224.1177 417.9659C206.5477 417.9659 194.8277 405.2759 194.8277 387.2059C194.8277 380.8559 195.3077 375.4859 196.7777 369.1359C209.4777 319.8259 260.2577 280.7659 328.6177 280.7659C403.8077 280.7659 456.5477 325.6859 456.5477 390.1359C456.5477 437.4959 423.8277 479.4959 382.8077 486.3259V489.2559C433.5977 494.6259 470.2177 537.5959 470.2177 591.3059C470.2177 663.5759 410.6477 715.3359 325.1977 715.3359ZM740.2377 714.3559C720.2177 714.3559 709.4777 699.7059 709.4777 680.1759V621.0959H562.9877C537.5977 621.0959 520.0177 604.9759 520.0177 578.1259C520.0177 564.4559 522.9477 553.2259 531.2477 537.5959C564.9377 476.5659 615.2377 390.6259 657.7177 319.8259C673.8277 291.9959 691.8977 280.7659 721.1877 280.7659C750.4877 280.7659 770.9977 299.8059 770.9977 329.1059V564.4559H798.3377C815.4277 564.4559 826.6577 575.1959 826.6577 593.2659C826.6577 610.8359 815.4277 621.0959 798.3377 621.0959H770.9977V680.1759C770.9977 700.1959 760.2577 714.3559 740.2377 714.3559ZM709.4777 564.4559V349.1259H707.0277C666.9877 417.4759 615.2377 505.3759 585.4477 562.4959V564.4559Z"/>
</svg>