<?xml version="1.0" encoding="UTF-8" standalone="no"?>
<svg xmlns="http://www.w3.org/2000/svg"
     width="996.09375" height="996.09375"
     viewBox="0 0 996.09375 996.09375"
     fill="currentColor">
  <path d="M498.0477 996.0959C770.5077 996.0959 996.0977 770.0159 996.0977 498.0459C996.0977 225.5859 770.0177 -0.0041 497.5577 -0.0041C225.5877 -0.0041 -0.0023 225.5859 -0.0023 498.0459C-0.0023 770.0159 226.0777 996.0959 498.0477 996.0959ZM498.0477 913.0859C267.5777 913.0859 83.4977 728.5159 83.4977 498.0459C83.4977 267.5759 267.0877 83.0059 497.5577 83.0059C728.0277 83.0059 913.0877 267.5759 913.0877 498.0459C913.0877 728.5159 728.5177 913.0859 498.0477 913.0859ZM330.0777 708.4959C413.0877 708.4959 470.7077 658.6959 470.7077 588.3759C470.7077 536.6259 435.0577 494.6259 385.7377 489.7459V486.8159C425.7777 479.9759 457.5177 439.4559 457.5177 393.5559C457.5177 331.0559 406.2477 287.5959 333.4977 287.5959C267.0877 287.5959 218.2577 325.1959 205.5677 373.0459C204.5877 379.3959 204.0977 384.2759 204.0977 390.6259C204.0977 408.2059 215.3277 420.4059 231.9377 420.4059C247.0677 420.4059 254.3977 412.5959 259.2777 396.9759C270.0177 362.7959 293.9477 343.7459 332.0277 343.7459C370.6077 343.7459 397.4577 367.1859 397.4577 401.3659C397.4577 437.0159 370.1177 462.8859 331.5477 462.8859H305.1777C289.0577 462.8859 278.3177 474.1259 278.3177 491.6959C278.3177 507.3259 289.0577 519.5359 305.1777 519.5359H333.4977C380.3677 519.5359 409.6677 545.8959 409.6677 585.4459C409.6677 623.5359 377.4377 652.3459 330.5677 652.3459C291.9877 652.3459 265.1377 633.2959 252.4377 599.1259C246.5777 583.4959 238.2777 575.6859 224.6077 575.6859C208.0077 575.6859 196.2877 587.8859 196.2877 604.9759C196.2877 611.8159 196.7777 616.6959 198.7277 623.0459C211.4277 667.9659 263.6677 708.4959 330.0777 708.4959ZM732.4177 707.5159C751.9577 707.5159 762.2077 693.8459 762.2077 674.8059V617.1859H789.0577C805.6677 617.1859 816.4077 607.4259 816.4077 590.3359C816.4077 572.7559 805.6677 562.4959 789.0577 562.4959H762.2077V333.9859C762.2077 305.6659 742.6777 287.5959 714.3577 287.5959C686.0377 287.5959 668.4577 298.3359 652.8277 325.1959C611.8177 393.5559 562.4977 477.5359 529.7877 536.6259C521.9777 551.7559 519.0477 562.4959 519.0477 575.6859C519.0477 601.5659 536.1377 617.1859 560.5477 617.1859H703.1277V674.8059C703.1277 693.3559 713.3777 707.5159 732.4177 707.5159ZM703.1277 562.4959H582.5177V560.5459C611.3277 505.3759 661.6177 419.4359 700.6877 353.5159H703.1277Z"/>
</svg>