<?xml version="1.0" encoding="UTF-8" standalone="no"?>
<svg xmlns="http://www.w3.org/2000/svg"
     width="996.09375" height="996.09375"
     viewBox="0 0 996.09375 996.09375"
     fill="currentColor">
  <path d="M498.0477 996.0959C770.5077 996.0959 996.0977 770.0159 996.0977 498.0459C996.0977 225.5859 770.0177 -0.0041 497.5577 -0.0041C225.5877 -0.0041 -0.0023 225.5859 -0.0023 498.0459C-0.0023 770.0159 226.0777 996.0959 498.0477 996.0959ZM322.7577 715.3359C254.3977 715.3359 200.1977 673.3359 187.0077 626.9559C185.0577 620.6059 184.5677 615.2359 184.5677 608.3959C184.5677 590.3359 196.7777 578.1259 213.8677 578.1259C228.0277 578.1259 236.8177 585.9359 242.6777 602.0459C255.8577 637.2059 283.6877 656.7359 323.2377 656.7359C371.5777 656.7359 404.7877 627.4459 404.7877 588.3759C404.7877 547.3659 374.5077 520.5059 326.1677 520.5059H297.3677C280.2777 520.5059 269.5277 507.8159 269.5277 491.6959C269.5277 473.1459 280.2777 461.4259 297.3677 461.4259H324.2177C363.7677 461.4259 392.0877 435.0559 392.0877 398.4359C392.0877 363.2859 364.2577 339.3559 324.7077 339.3559C285.6477 339.3559 261.2277 358.8859 249.9977 394.0459C245.1177 410.1559 236.8177 417.9659 221.6777 417.9659C204.5877 417.9659 192.8677 405.2759 192.8677 387.2059C192.8677 380.8559 193.3577 375.4859 194.3377 369.1359C207.5177 319.8259 257.8077 280.7659 326.1677 280.7659C401.3677 280.7659 454.0977 325.6859 454.0977 390.1359C454.0977 437.4959 421.3877 479.4959 380.3677 486.3259V489.2559C431.1477 494.6259 467.7777 537.5959 467.7777 591.3059C467.7777 663.5759 408.2077 715.3359 322.7577 715.3359ZM675.2977 715.8159C624.0277 715.8159 580.5677 696.2859 554.6877 647.4559C537.5977 616.2059 527.8277 571.2859 527.8277 509.7659C527.8277 356.4459 587.3977 280.7659 685.0577 280.7659C742.1877 280.7659 782.2277 310.5459 795.4077 344.2359C798.3377 351.0759 799.3177 356.9359 799.3177 363.7659C799.3177 380.3759 788.0877 391.6059 774.4177 391.6059C760.2577 391.6059 752.4377 385.2559 744.1377 372.5559C731.4477 353.0259 710.9377 339.3559 682.1277 339.3559C625.4877 339.3559 587.3977 398.9259 587.3977 493.6559V498.5359H590.8177C603.0277 465.3359 637.2077 435.0559 690.4277 435.0559C755.8577 435.0559 815.4277 482.9059 815.4277 569.3359C815.4277 661.6259 756.8377 715.8159 675.2977 715.8159ZM672.3677 660.1559C720.7077 660.1559 751.4677 625.9759 751.4677 572.2659C751.4677 521.9759 719.2377 487.3059 672.3677 487.3059C624.9977 487.3059 592.7777 522.4559 592.7777 571.7759C592.7777 623.5359 625.4877 660.1559 672.3677 660.1559Z"/>
</svg>