<?xml version="1.0" encoding="UTF-8" standalone="no"?>
<svg xmlns="http://www.w3.org/2000/svg"
     width="898.92578125" height="898.92578125"
     viewBox="0 0 898.92578125 898.92578125"
     fill="currentColor">
  <path d="M153.3183 898.9295H745.6083C848.1483 898.9295 898.9283 848.1495 898.9283 747.5595V151.3695C898.9283 50.7795 848.1483 -0.0005 745.6083 -0.0005H153.3183C51.2683 -0.0005 -0.0017 50.2895 -0.0017 151.3695V747.5595C-0.0017 848.6295 51.2683 898.9295 153.3183 898.9295ZM154.2983 820.3095C105.4683 820.3095 78.6183 794.4295 78.6183 743.6495V155.2695C78.6183 104.4895 105.4683 78.6095 154.2983 78.6095H744.6283C792.9683 78.6095 820.3083 104.4895 820.3083 155.2695V743.6495C820.3083 794.4295 792.9683 820.3095 744.6283 820.3095ZM279.7883 659.1795C362.7883 659.1795 420.4083 609.3795 420.4083 539.0595C420.4083 487.3095 384.7683 445.3095 335.4483 440.4295V437.4995C375.4883 430.6595 407.2283 390.1395 407.2283 344.2395C407.2283 281.7395 355.9583 238.2795 283.1983 238.2795C216.7983 238.2795 167.9683 275.8795 155.2783 323.7295C154.2983 330.0795 154.2983 334.9595 154.2983 341.3095C154.2983 358.8895 165.0383 371.0895 182.1283 371.0895C196.7783 371.0895 204.5883 363.2795 208.9883 347.6595C219.7283 313.4795 243.6483 294.4295 281.7383 294.4295C320.3083 294.4295 347.1683 317.8695 347.1683 352.0495C347.1683 387.6995 320.3083 413.5695 281.2483 413.5695H254.8783C238.7683 413.5695 228.0283 424.8095 228.0283 442.3795C228.0283 458.0095 238.7683 470.2195 254.8783 470.2195H283.6883C330.0783 470.2195 359.3783 496.5795 359.3783 536.1295C359.3783 574.2195 327.1483 603.0295 280.2783 603.0295C241.6983 603.0295 215.3283 583.9795 202.1483 549.8095C196.2883 534.1795 187.9883 526.3695 174.3183 526.3695C157.7183 526.3695 145.9983 538.5695 145.9983 555.6595C145.9983 562.4995 146.4883 567.3795 148.4383 573.7295C161.1283 618.6495 213.3783 659.1795 279.7883 659.1795ZM621.5783 659.6695C700.6883 659.6695 757.3283 607.4195 757.3283 518.0695C757.3283 434.0795 700.1983 387.6995 636.2283 387.6995C584.4683 387.6995 551.7583 416.9895 539.5483 449.2195H536.1283V444.8195C536.1283 352.5395 573.2383 294.4295 628.4183 294.4295C656.7383 294.4295 676.2683 308.1095 688.4783 327.1495C696.7783 339.3595 704.5883 345.2195 717.7783 345.2195C731.4483 345.2195 741.6983 334.4695 741.6983 318.3595C741.6983 312.0095 740.7183 306.1495 738.2783 299.8095C725.5883 267.0895 686.5283 238.2795 630.8583 238.2795C536.6183 238.2795 479.0083 311.5195 479.0083 459.9595C479.0083 519.5295 488.2783 562.9895 504.8783 593.7495C529.7883 640.6295 571.7783 659.6695 621.5783 659.6695ZM618.6483 605.9595C573.2383 605.9595 541.5083 570.3095 541.5083 520.0195C541.5083 472.1695 572.7583 437.9895 618.6483 437.9895C664.5483 437.9895 695.7983 471.6795 695.7983 520.5095C695.7983 572.7495 666.0183 605.9595 618.6483 605.9595Z"/>
</svg>