<?xml version="1.0" encoding="UTF-8" standalone="no"?>
<svg xmlns="http://www.w3.org/2000/svg"
     width="996.09375" height="996.09375"
     viewBox="0 0 996.09375 996.09375"
     fill="currentColor">
  <path d="M498.0477 996.0959C770.5077 996.0959 996.0977 770.0159 996.0977 498.0459C996.0977 225.5859 770.0177 -0.0041 497.5577 -0.0041C225.5877 -0.0041 -0.0023 225.5859 -0.0023 498.0459C-0.0023 770.0159 226.0777 996.0959 498.0477 996.0959ZM498.0477 913.0859C267.5777 913.0859 83.4977 728.5159 83.4977 498.0459C83.4977 267.5759 267.0877 83.0059 497.5577 83.0059C728.0277 83.0059 913.0877 267.5759 913.0877 498.0459C913.0877 728.5159 728.5177 913.0859 498.0477 913.0859ZM341.3077 708.4959C424.3177 708.4959 482.4177 658.6959 482.4177 588.3759C482.4177 536.6259 446.2877 494.6259 396.9777 489.7459V486.8159C437.4977 479.9759 469.2377 439.4559 469.2377 393.5559C469.2377 331.0559 417.4777 287.5959 344.7277 287.5959C278.8077 287.5959 229.9777 325.1959 217.2877 373.0459C215.8177 379.3959 215.8177 384.2759 215.8177 390.6259C215.8177 408.2059 226.5577 420.4059 243.6477 420.4059C258.2977 420.4059 266.1177 412.5959 270.9977 396.9759C281.7377 362.7959 305.1777 343.7459 343.2577 343.7459C381.8377 343.7459 409.1777 367.1859 409.1777 401.3659C409.1777 437.0159 381.8377 462.8859 342.7777 462.8859H316.4077C300.7777 462.8859 289.5477 474.1259 289.5477 491.6959C289.5477 507.3259 300.2977 519.5359 316.4077 519.5359H345.2177C391.5977 519.5359 421.3877 545.8959 421.3877 585.4459C421.3877 623.5359 388.6677 652.3459 341.7977 652.3459C303.2277 652.3459 276.8577 633.2959 263.6677 599.1259C257.8077 583.4959 249.5077 575.6859 235.8377 575.6859C219.2377 575.6859 207.5177 587.8859 207.5177 604.9759C207.5177 611.8159 208.4977 616.6959 209.9577 623.0459C223.1477 667.9659 274.8977 708.4959 341.3077 708.4959ZM607.4177 703.1259C620.1177 703.1259 629.8877 695.7959 638.1877 679.1959L791.0177 374.5159C798.3377 358.8859 800.2977 350.0959 800.2977 339.8459C800.2977 315.9159 783.2077 297.3659 756.8377 297.3659H559.5677C542.9677 297.3659 531.2477 308.5959 531.2477 325.1959C531.2477 341.3059 542.9677 352.0459 559.5677 352.0459H731.4477V355.9559L580.0777 648.9259C575.6877 656.2459 574.7077 662.1059 574.7077 671.3859C574.7077 689.9459 588.8677 703.1259 607.4177 703.1259Z"/>
</svg>