<?xml version="1.0" encoding="UTF-8" standalone="no"?>
<svg xmlns="http://www.w3.org/2000/svg"
     width="898.92578125" height="898.92578125"
     viewBox="0 0 898.92578125 898.92578125"
     fill="currentColor">
  <path d="M153.3183 898.9295H745.6083C848.1483 898.9295 898.9283 848.1495 898.9283 747.5595V151.3695C898.9283 50.7795 848.1483 -0.0005 745.6083 -0.0005H153.3183C51.2683 -0.0005 -0.0017 50.2895 -0.0017 151.3695V747.5595C-0.0017 848.6295 51.2683 898.9295 153.3183 898.9295ZM288.0883 666.0195C219.7283 666.0195 166.5083 624.0195 152.8283 577.6395C151.3683 571.2895 150.3883 565.9195 150.3883 559.0795C150.3883 541.4995 163.0883 528.8095 179.6883 528.8095C193.8483 528.8095 202.1483 536.6195 208.4983 552.7295C222.1683 587.8895 249.0283 607.4195 289.0583 607.4195C336.9183 607.4195 370.6083 578.1295 370.6083 539.0595C370.6083 498.0495 339.8483 471.1895 292.4783 471.1895H262.6983C246.5783 471.1895 235.3483 458.4995 235.3483 442.3795C235.3483 423.8295 246.5783 412.1095 262.6983 412.1095H290.0383C330.0783 412.1095 357.9083 385.7395 357.9083 349.1195C357.9083 313.9695 330.0783 290.0395 290.5283 290.0395C250.9783 290.0395 227.0483 309.5695 215.8183 344.7295C210.9383 360.8395 202.6383 368.6495 187.4983 368.6495C170.4083 368.6495 158.6883 355.9595 158.6883 337.8895C158.6883 331.5395 158.6883 326.1695 160.1583 319.8195C173.3383 270.5095 223.6283 231.4495 291.9883 231.4495C367.6783 231.4495 420.4083 276.3695 420.4083 340.8195C420.4083 388.1795 387.6983 430.1795 345.6983 437.0095V439.9395C396.4883 445.3095 434.0783 488.2795 434.0783 541.9895C434.0783 614.2595 374.0283 666.0195 288.0883 666.0195ZM562.9883 660.1595C543.9483 660.1595 528.8083 646.4795 528.8083 627.4395C528.8083 617.6795 530.2783 611.8195 534.6683 603.9995L690.4283 302.2495V298.3395H513.6683C496.5783 298.3395 484.8683 287.1095 484.8683 270.5095C484.8683 253.4195 496.5783 241.6995 513.6683 241.6995H716.7983C744.1383 241.6995 761.7183 261.2295 761.7183 285.6395C761.7183 296.3895 759.7683 305.6595 752.4383 321.7795L595.2183 635.2495C586.4283 652.8295 576.6583 660.1595 562.9883 660.1595Z"/>
</svg>