<?xml version="1.0" encoding="UTF-8" standalone="no"?>
<svg xmlns="http://www.w3.org/2000/svg"
     width="996.09375" height="996.09375"
     viewBox="0 0 996.09375 996.09375"
     fill="currentColor">
  <path d="M498.0477 996.0959C770.5077 996.0959 996.0977 770.0159 996.0977 498.0459C996.0977 225.5859 770.0177 -0.0041 497.5577 -0.0041C225.5877 -0.0041 -0.0023 225.5859 -0.0023 498.0459C-0.0023 770.0159 226.0777 996.0959 498.0477 996.0959ZM333.9877 708.4959C267.0877 708.4959 215.3277 667.9659 202.6377 623.0459C200.6877 616.6959 200.1977 611.8159 200.1977 604.9759C200.1977 587.8859 211.9177 575.6859 228.0277 575.6859C242.1877 575.6859 249.9977 583.4959 256.3477 599.1259C269.0477 633.2959 295.8977 652.3459 334.4777 652.3459C381.3477 652.3459 413.5777 623.5359 413.5777 585.4459C413.5777 545.8959 383.7877 519.5359 337.3977 519.5359H308.5977C292.9677 519.5359 282.2277 507.3259 282.2277 491.6959C282.2277 474.1259 292.9677 462.8859 308.5977 462.8859H335.4477C374.0277 462.8859 401.3677 437.0159 401.3677 401.3659C401.3677 367.1859 374.5077 343.7459 335.4477 343.7459C297.8477 343.7459 273.9277 362.7959 263.1877 396.9759C258.2977 412.5959 250.4877 420.4059 235.8377 420.4059C219.2377 420.4059 208.0077 408.2059 208.0077 390.6259C208.0077 384.2759 208.4977 379.3959 209.4777 373.0459C222.1677 325.1959 270.9977 287.5959 336.9177 287.5959C410.1577 287.5959 461.4277 331.0559 461.4277 393.5559C461.4277 439.4559 429.6877 479.9759 389.1577 486.8159V489.7459C438.4777 494.6259 474.6077 536.6259 474.6077 588.3759C474.6077 658.6959 416.5077 708.4959 333.9877 708.4959ZM670.4077 708.4959C585.9377 708.4959 529.2977 660.6459 529.2977 589.3559C529.2977 539.5459 559.5677 498.5359 612.7977 487.7959V484.8659C567.3877 471.6759 543.9477 437.4959 543.9477 395.0159C543.9477 331.5459 596.6777 287.5959 671.3877 287.5959C746.5777 287.5959 798.8277 331.5459 798.8277 395.0159C798.8277 437.4959 775.3877 472.6559 730.4677 484.8659V487.7959C782.7177 498.5359 813.4777 539.0659 813.4777 588.8659C813.4777 659.6659 755.3677 708.4959 670.4077 708.4959ZM671.3877 465.3359C709.4777 465.3359 736.8177 437.9859 736.8177 400.8759C736.8177 363.7659 709.9577 338.3759 671.3877 338.3759C633.2977 338.3759 606.4477 363.7659 606.4477 400.8759C606.4477 437.9859 633.2977 465.3359 671.3877 465.3359ZM671.8777 657.7159C718.2577 657.7159 751.9577 627.9259 751.9577 584.9559C751.9577 542.4759 719.2377 512.2059 671.8777 512.2059C625.4877 512.2059 591.7977 542.9659 591.7977 584.9559C591.7977 627.9259 625.4877 657.7159 671.8777 657.7159Z"/>
</svg>