<?xml version="1.0" encoding="UTF-8" standalone="no"?>
<svg xmlns="http://www.w3.org/2000/svg"
     width="898.92578125" height="898.92578125"
     viewBox="0 0 898.92578125 898.92578125"
     fill="currentColor">
  <path d="M153.3183 898.9295H745.6083C848.1483 898.9295 898.9283 848.1495 898.9283 747.5595V151.3695C898.9283 50.7795 848.1483 -0.0005 745.6083 -0.0005H153.3183C51.2683 -0.0005 -0.0017 50.2895 -0.0017 151.3695V747.5595C-0.0017 848.6295 51.2683 898.9295 153.3183 898.9295ZM285.6483 659.1795C219.2383 659.1795 166.9883 618.6495 154.2983 573.7295C152.3483 567.3795 151.8583 562.4995 151.8583 555.6595C151.8583 538.5695 163.5783 526.3695 180.1783 526.3695C193.8483 526.3695 202.1483 534.1795 208.0083 549.8095C220.6983 583.9795 247.5583 603.0295 286.1283 603.0295C333.0083 603.0295 365.2383 574.2195 365.2383 536.1295C365.2383 496.5795 335.9383 470.2195 289.0583 470.2195H260.7383C244.6283 470.2195 233.8883 458.0095 233.8883 442.3795C233.8883 424.8095 244.6283 413.5695 260.7383 413.5695H287.1083C325.6883 413.5695 353.0283 387.6995 353.0283 352.0495C353.0283 317.8695 326.1683 294.4295 287.5983 294.4295C249.5083 294.4295 225.5883 313.4795 214.8483 347.6595C209.9583 363.2795 202.1483 371.0895 187.4983 371.0895C170.8983 371.0895 159.6683 358.8895 159.6683 341.3095C159.6683 334.9595 160.1583 330.0795 161.1283 323.7295C173.8283 275.8795 222.6583 238.2795 289.0583 238.2795C361.8183 238.2795 413.0883 281.7395 413.0883 344.2395C413.0883 390.1395 381.3483 430.6595 341.3083 437.4995V440.4295C390.6283 445.3095 426.2683 487.3095 426.2683 539.0595C426.2683 609.3795 368.6483 659.1795 285.6483 659.1795ZM622.0683 659.1795C537.5983 659.1795 481.4483 611.3295 481.4483 540.0395C481.4483 490.2295 511.2283 449.2195 564.4483 438.4795V435.5495C519.0383 422.3595 495.6083 388.1795 495.6083 345.6995C495.6083 282.2295 548.3383 238.2795 623.0483 238.2795C698.2383 238.2795 750.9783 282.2295 750.9783 345.6995C750.9783 388.1795 727.0483 423.3395 682.1283 435.5495V438.4795C734.3783 449.2195 765.1383 489.7495 765.1383 539.5495C765.1383 610.3495 707.0283 659.1795 622.0683 659.1795ZM623.0483 416.0195C661.6183 416.0195 688.4783 388.6695 688.4783 351.5595C688.4783 314.4495 661.6183 289.0595 623.0483 289.0595C584.9583 289.0595 558.1083 314.4495 558.1083 351.5595C558.1083 388.6695 584.9583 416.0195 623.0483 416.0195ZM623.5383 608.3995C669.9183 608.3995 703.6183 578.6095 703.6183 535.6395C703.6183 493.1595 670.8983 462.8895 623.5383 462.8895C577.1483 462.8895 543.4583 493.6495 543.4583 535.6395C543.4583 578.6095 577.1483 608.3995 623.5383 608.3995Z"/>
</svg>