<?xml version="1.0" encoding="UTF-8" standalone="no"?>
<svg xmlns="http://www.w3.org/2000/svg"
     width="996.09375" height="996.09375"
     viewBox="0 0 996.09375 996.09375"
     fill="currentColor">
  <path d="M498.0477 996.0959C770.5077 996.0959 996.0977 770.0159 996.0977 498.0459C996.0977 225.5859 770.0177 -0.0041 497.5577 -0.0041C225.5877 -0.0041 -0.0023 225.5859 -0.0023 498.0459C-0.0023 770.0159 226.0777 996.0959 498.0477 996.0959ZM332.0277 708.4959C265.1377 708.4959 213.3777 667.9659 200.6877 623.0459C198.7277 616.6959 198.2377 611.8159 198.2377 604.9759C198.2377 587.8859 209.9577 575.6859 226.5577 575.6859C240.2377 575.6859 248.0477 583.4959 254.3977 599.1259C267.0877 633.2959 293.9477 652.3459 332.5177 652.3459C379.3977 652.3459 411.6177 623.5359 411.6177 585.4459C411.6177 545.8959 381.8377 519.5359 335.4477 519.5359H307.1277C291.0177 519.5359 280.2777 507.3259 280.2777 491.6959C280.2777 474.1259 291.0177 462.8859 307.1277 462.8859H333.4977C372.0677 462.8859 399.4177 437.0159 399.4177 401.3659C399.4177 367.1859 372.5577 343.7459 333.9877 343.7459C295.8977 343.7459 271.9777 362.7959 261.2277 396.9759C256.3477 412.5959 248.5377 420.4059 233.8877 420.4059C217.2877 420.4059 206.0577 408.2059 206.0577 390.6259C206.0577 384.2759 206.5477 379.3959 207.5177 373.0459C220.2177 325.1959 269.0477 287.5959 335.4477 287.5959C408.2077 287.5959 459.4777 331.0559 459.4777 393.5559C459.4777 439.4559 427.7377 479.9759 387.2077 486.8159V489.7459C436.5277 494.6259 472.6577 536.6259 472.6577 588.3759C472.6577 658.6959 415.0377 708.4959 332.0277 708.4959ZM656.7377 708.4959C589.3577 708.4959 549.3177 670.4059 541.5077 643.5559C539.5477 637.6959 537.5977 630.8559 537.5977 625.9759C537.5977 608.8859 548.3377 597.1659 563.4777 597.1659C576.1677 597.1659 585.9377 602.5359 593.2577 616.2059C605.4677 637.6959 627.4377 652.3459 655.7577 652.3459C711.9177 652.3459 749.5077 594.7259 748.5377 497.5559H745.6077C732.4177 530.7659 700.6877 559.5659 646.9777 559.5659C583.4977 559.5659 526.3677 512.6959 526.3677 428.7059C526.3677 342.7759 580.0777 287.5959 662.1077 287.5959C753.4177 287.5959 806.1477 356.4459 806.1477 484.3759C806.1477 631.3459 753.9077 708.4959 656.7377 708.4959ZM665.5277 509.2759C711.4277 509.2759 743.1677 474.6059 743.1677 426.7559C743.1677 376.4659 710.9377 340.8159 666.0177 340.8159C618.6477 340.8159 588.3777 374.5159 588.3777 425.7859C588.3777 474.6059 619.1377 509.2759 665.5277 509.2759Z"/>
</svg>