<?xml version="1.0" encoding="UTF-8" standalone="no"?>
<svg xmlns="http://www.w3.org/2000/svg"
     width="996.09375" height="996.09375"
     viewBox="0 0 996.09375 996.09375"
     fill="currentColor">
  <path d="M498.0477 996.0959C770.5077 996.0959 996.0977 770.0159 996.0977 498.0459C996.0977 225.5859 770.0177 -0.0041 497.5577 -0.0041C225.5877 -0.0041 -0.0023 225.5859 -0.0023 498.0459C-0.0023 770.0159 226.0777 996.0959 498.0477 996.0959ZM498.0477 913.0859C267.5777 913.0859 83.4977 728.5159 83.4977 498.0459C83.4977 267.5759 267.0877 83.0059 497.5577 83.0059C728.0277 83.0059 913.0877 267.5759 913.0877 498.0459C913.0877 728.5159 728.5177 913.0859 498.0477 913.0859ZM311.5277 588.3759C311.5277 612.7959 327.6377 628.9059 354.4877 628.9059H538.0877V679.1959C538.0877 705.0759 551.2677 720.2159 573.2377 720.2159C596.6777 720.2159 609.8677 705.5659 609.8677 679.1959V628.9059H642.5777C664.0577 628.9059 677.7377 615.7259 677.7377 595.2159C677.7377 576.6559 664.0577 564.4559 642.5777 564.4559H609.8677V458.9859C609.8677 432.6159 596.6777 417.9659 573.2377 417.9659C551.2677 417.9659 538.0877 433.1059 538.0877 458.9859V564.4559H402.3477C446.2877 482.4259 488.7677 409.1759 534.1777 325.6859C538.0877 317.3859 540.5277 310.0559 540.5277 302.7359C540.5277 283.2059 528.8077 267.0859 506.3477 267.0859C491.2077 267.0859 480.4677 274.4159 471.1877 290.5259C419.9177 381.8359 372.0677 465.8159 319.8277 557.6159C313.9677 567.3859 311.5277 578.1259 311.5277 588.3759Z"/>
</svg>