<?xml version="1.0" encoding="UTF-8" standalone="no"?>
<svg xmlns="http://www.w3.org/2000/svg"
     width="898.92578125" height="898.92578125"
     viewBox="0 0 898.92578125 898.92578125"
     fill="currentColor">
  <path d="M153.3183 898.9295H745.6083C848.1483 898.9295 898.9283 848.1495 898.9283 747.5595V151.3695C898.9283 50.7795 848.1483 -0.0005 745.6083 -0.0005H153.3183C51.2683 -0.0005 -0.0017 50.2895 -0.0017 151.3695V747.5595C-0.0017 848.6295 51.2683 898.9295 153.3183 898.9295ZM154.2983 820.3095C105.4683 820.3095 78.6183 794.4295 78.6183 743.6495V155.2695C78.6183 104.4895 105.4683 78.6095 154.2983 78.6095H744.6283C792.9683 78.6095 820.3083 104.4895 820.3083 155.2695V743.6495C820.3083 794.4295 792.9683 820.3095 744.6283 820.3095ZM263.6683 539.0595C263.6683 563.4795 279.7883 579.5895 306.6383 579.5895H490.2383V629.8795C490.2383 655.7595 503.4183 670.8995 525.3883 670.8995C548.8283 670.8995 562.0083 656.2495 562.0083 629.8795V579.5895H594.7283C616.6983 579.5895 629.8783 566.4095 629.8783 545.8995C629.8783 527.3395 616.6983 515.1395 594.7283 515.1395H562.0083V409.6695C562.0083 383.2995 548.8283 368.6495 525.3883 368.6495C503.4183 368.6495 490.2383 383.7895 490.2383 409.6695V515.1395H354.4883C398.4383 433.1095 440.9183 359.8595 486.3283 276.3695C490.2383 268.0695 493.1683 260.7395 493.1683 253.4195C493.1683 233.8895 480.9583 217.7695 458.4983 217.7695C443.3583 217.7695 432.6183 225.0995 423.8283 241.2095C372.0683 332.5195 324.2183 416.4995 271.9683 508.2995C266.1183 518.0695 263.6683 528.8095 263.6683 539.0595Z"/>
</svg>