<?xml version="1.0" encoding="UTF-8" standalone="no"?>
<svg xmlns="http://www.w3.org/2000/svg"
     width="898.92578125" height="898.92578125"
     viewBox="0 0 898.92578125 898.92578125"
     fill="currentColor">
  <path d="M153.3183 898.9295H745.6083C848.1483 898.9295 898.9283 848.1495 898.9283 747.5595V151.3695C898.9283 50.7795 848.1483 -0.0005 745.6083 -0.0005H153.3183C51.2683 -0.0005 -0.0017 50.2895 -0.0017 151.3695V747.5595C-0.0017 848.6295 51.2683 898.9295 153.3183 898.9295ZM154.2983 820.3095C105.4683 820.3095 78.6183 794.4295 78.6183 743.6495V155.2695C78.6183 104.4895 105.4683 78.6095 154.2983 78.6095H744.6283C792.9683 78.6095 820.3083 104.4895 820.3083 155.2695V743.6495C820.3083 794.4295 792.9683 820.3095 744.6283 820.3095ZM513.1883 670.8995C536.6183 670.8995 549.8083 655.7595 549.8083 629.8795V580.0795H586.9183C606.4483 580.0795 619.6283 567.3795 619.6283 548.3395C619.6283 529.2995 606.9383 516.1095 586.9183 516.1095H549.8083V267.5795C549.8083 236.8195 526.3683 216.3095 491.2083 216.3095C457.0283 216.3095 436.0383 228.5195 416.5083 257.8095C366.2083 333.9795 305.6683 423.8295 265.1383 489.7495C255.3683 505.8595 251.9483 517.5795 251.9483 532.2295C251.9483 561.0395 271.4883 580.0795 302.7383 580.0795H478.0283V629.8795C478.0283 655.2695 491.2083 670.8995 513.1883 670.8995ZM478.0283 516.1095H323.7283V513.1795C360.8383 449.2195 423.3383 356.4495 474.6083 279.2995H478.0283Z"/>
</svg>