<?xml version="1.0" encoding="UTF-8" standalone="no"?>
<svg xmlns="http://www.w3.org/2000/svg"
     width="996.09375" height="996.09375"
     viewBox="0 0 996.09375 996.09375"
     fill="currentColor">
  <path d="M498.0477 996.0959C770.5077 996.0959 996.0977 770.0159 996.0977 498.0459C996.0977 225.5859 770.0177 -0.0041 497.5577 -0.0041C225.5877 -0.0041 -0.0023 225.5859 -0.0023 498.0459C-0.0023 770.0159 226.0777 996.0959 498.0477 996.0959ZM396.9777 714.3559C376.9577 714.3559 366.6977 699.7059 366.6977 680.1759V621.0959H219.7277C194.3377 621.0959 176.7577 604.9759 176.7577 578.1259C176.7577 564.4559 179.6877 553.2259 187.9877 537.5959C221.6777 476.5659 271.9777 390.6259 314.4577 319.8259C330.5677 291.9959 348.6377 280.7659 377.9277 280.7659C407.2277 280.7659 427.7377 299.8059 427.7377 329.1059V564.4559H455.0777C472.1677 564.4559 483.3977 575.1959 483.3977 593.2659C483.3977 610.8359 472.1677 621.0959 455.0777 621.0959H427.7377V680.1759C427.7377 700.1959 416.9877 714.3559 396.9777 714.3559ZM676.7577 715.3359C590.3277 715.3359 532.7177 632.3259 532.7177 498.0459C532.7177 363.7659 590.3277 280.7659 676.7577 280.7659C763.6677 280.7659 820.7977 363.7659 820.7977 498.0459C820.7977 632.3259 763.6677 715.3359 676.7577 715.3359ZM676.7577 653.8059C725.0977 653.8059 754.3977 594.7259 754.3977 498.0459C754.3977 401.3659 724.6077 342.2859 676.7577 342.2859C628.9077 342.2859 599.1177 401.3659 599.1177 498.0459C599.1177 594.7259 628.9077 653.8059 676.7577 653.8059ZM366.6977 564.4559V349.1259H363.7677C323.7277 417.4759 272.4577 505.3759 242.6777 562.4959V564.4559Z"/>
</svg>