<?xml version="1.0" encoding="UTF-8" standalone="no"?>
<svg xmlns="http://www.w3.org/2000/svg"
     width="996.09375" height="996.09375"
     viewBox="0 0 996.09375 996.09375"
     fill="currentColor">
  <path d="M498.0477 996.0959C770.5077 996.0959 996.0977 770.0159 996.0977 498.0459C996.0977 225.5859 770.0177 -0.0041 497.5577 -0.0041C225.5877 -0.0041 -0.0023 225.5859 -0.0023 498.0459C-0.0023 770.0159 226.0777 996.0959 498.0477 996.0959ZM498.0477 913.0859C267.5777 913.0859 83.4977 728.5159 83.4977 498.0459C83.4977 267.5759 267.0877 83.0059 497.5577 83.0059C728.0277 83.0059 913.0877 267.5759 913.0877 498.0459C913.0877 728.5159 728.5177 913.0859 498.0477 913.0859ZM399.4177 707.5159C418.9477 707.5159 429.1977 693.8459 429.1977 674.8059V617.1859H456.0577C472.6577 617.1859 483.3977 607.4259 483.3977 590.3359C483.3977 572.7559 472.6577 562.4959 456.0577 562.4959H429.1977V333.9859C429.1977 305.6659 409.6677 287.5959 381.3477 287.5959C353.0277 287.5959 335.4477 298.3359 319.8277 325.1959C278.8077 393.5559 229.4877 477.5359 196.7777 536.6259C188.9677 551.7559 186.0377 562.4959 186.0377 575.6859C186.0377 601.5659 203.1277 617.1859 227.5377 617.1859H370.1177V674.8059C370.1177 693.3559 380.3677 707.5159 399.4177 707.5159ZM670.8977 708.4959C754.8877 708.4959 810.5477 627.9259 810.5477 498.0459C810.5477 368.1659 754.8877 287.5959 670.8977 287.5959C586.9177 287.5959 531.2477 368.1659 531.2477 498.0459C531.2477 627.9259 586.9177 708.4959 670.8977 708.4959ZM670.8977 649.4159C624.5077 649.4159 595.2177 591.7959 595.2177 498.0459C595.2177 404.2959 624.5077 346.6759 670.8977 346.6759C717.2877 346.6759 746.5777 404.2959 746.5777 498.0459C746.5777 591.7959 717.7777 649.4159 670.8977 649.4159ZM370.1177 562.4959H249.5077V560.5459C278.3177 505.3759 328.6177 419.4359 367.6777 353.5159H370.1177Z"/>
</svg>