<?xml version="1.0" encoding="UTF-8" standalone="no"?>
<svg xmlns="http://www.w3.org/2000/svg"
     width="996.09375" height="996.09375"
     viewBox="0 0 996.09375 996.09375"
     fill="currentColor">
  <path d="M498.0477 996.0959C770.5077 996.0959 996.0977 770.0159 996.0977 498.0459C996.0977 225.5859 770.0177 -0.0041 497.5577 -0.0041C225.5877 -0.0041 -0.0023 225.5859 -0.0023 498.0459C-0.0023 770.0159 226.0777 996.0959 498.0477 996.0959ZM498.0477 913.0859C267.5777 913.0859 83.4977 728.5159 83.4977 498.0459C83.4977 267.5759 267.0877 83.0059 497.5577 83.0059C728.0277 83.0059 913.0877 267.5759 913.0877 498.0459C913.0877 728.5159 728.5177 913.0859 498.0477 913.0859ZM425.2977 707.5159C445.3077 707.5159 455.5677 693.8459 455.5677 674.8059V617.1859H481.9377C499.0277 617.1859 509.7677 607.4259 509.7677 590.3359C509.7677 572.7559 498.5377 562.4959 481.9377 562.4959H455.5677V333.9859C455.5677 305.6659 435.5477 287.5959 407.2277 287.5959C378.9077 287.5959 361.8177 298.3359 345.7077 325.1959C305.1777 393.5559 255.8577 477.5359 222.6577 536.6259C214.8477 551.7559 211.9177 562.4959 211.9177 575.6859C211.9177 601.5659 229.0077 617.1859 253.9077 617.1859H396.4877V674.8059C396.4877 693.3559 406.2477 707.5159 425.2977 707.5159ZM694.3377 702.6359C712.8877 702.6359 725.0977 690.4259 725.0977 671.3859V325.6859C725.0977 305.1759 710.9377 290.5259 690.9177 290.5259C674.8077 290.5259 665.5277 295.4059 647.9477 307.1259L573.7277 357.9059C563.4777 365.2359 557.6177 374.0259 557.6177 386.7159C557.6177 403.3159 571.2877 416.0159 585.4477 416.0159C593.2577 416.0159 597.6577 415.5259 609.3777 406.7359L661.1377 368.1659H664.0577V671.3859C664.0577 690.4259 676.2677 702.6359 694.3377 702.6359ZM396.4877 562.4959H275.8777V560.5459C304.6877 505.3759 354.9777 419.4359 393.5577 353.5159H396.4877Z"/>
</svg>