<?xml version="1.0" encoding="UTF-8" standalone="no"?>
<svg xmlns="http://www.w3.org/2000/svg"
     width="996.09375" height="996.09375"
     viewBox="0 0 996.09375 996.09375"
     fill="currentColor">
  <path d="M498.0477 996.0959C770.5077 996.0959 996.0977 770.0159 996.0977 498.0459C996.0977 225.5859 770.0177 -0.0041 497.5577 -0.0041C225.5877 -0.0041 -0.0023 225.5859 -0.0023 498.0459C-0.0023 770.0159 226.0777 996.0959 498.0477 996.0959ZM423.8277 714.3559C403.8077 714.3559 393.5577 699.7059 393.5577 680.1759V621.0959H246.5777C220.7077 621.0959 203.1277 604.9759 203.1277 578.1259C203.1277 564.4559 206.0577 553.2259 214.3577 537.5959C248.5377 476.5659 298.8277 390.6259 340.8177 319.8259C357.4177 291.9959 375.4877 280.7659 404.7877 280.7659C434.0777 280.7659 454.5877 299.8059 454.5877 329.1059V564.4559H481.4477C499.0277 564.4559 510.7377 575.1959 510.7377 593.2659C510.7377 610.8359 499.5077 621.0959 481.4477 621.0959H454.5877V680.1759C454.5877 700.1959 444.3377 714.3559 423.8277 714.3559ZM700.6877 708.9859C682.1277 708.9859 669.4377 696.2859 669.4377 676.7559V364.2559H666.5077L613.2777 403.8059C601.0777 413.0859 596.6777 413.5759 588.3777 413.5759C573.7277 413.5759 559.5677 400.3859 559.5677 383.2959C559.5677 370.1159 565.9177 360.8359 576.6577 353.5159L652.8277 301.2659C670.8977 289.0659 680.6677 284.1759 697.2677 284.1759C718.2577 284.1759 732.9077 299.3159 732.9077 320.3159V676.7559C732.9077 696.2859 720.2177 708.9859 700.6877 708.9859ZM393.5577 564.4559V349.1259H390.6277C350.5877 417.4759 299.3177 505.3759 269.5277 562.4959V564.4559Z"/>
</svg>