<?xml version="1.0" encoding="UTF-8" standalone="no"?>
<svg xmlns="http://www.w3.org/2000/svg"
     width="898.92578125" height="898.92578125"
     viewBox="0 0 898.92578125 898.92578125"
     fill="currentColor">
  <path d="M153.3183 898.9295H745.6083C848.1483 898.9295 898.9283 848.1495 898.9283 747.5595V151.3695C898.9283 50.7795 848.1483 -0.0005 745.6083 -0.0005H153.3183C51.2683 -0.0005 -0.0017 50.2895 -0.0017 151.3695V747.5595C-0.0017 848.6295 51.2683 898.9295 153.3183 898.9295ZM375.4883 665.0395C355.9583 665.0395 345.2183 650.3895 345.2183 630.8595V571.7795H198.2383C172.3683 571.7795 155.2783 555.6595 155.2783 528.8095C155.2783 515.1395 157.7183 503.9095 166.5083 488.2795C200.1983 427.2495 250.4883 341.3095 292.4783 270.5095C309.0783 242.6795 327.1483 231.4495 356.4483 231.4495C386.2283 231.4495 406.2483 250.4895 406.2483 279.7895V515.1395H433.1083C451.1683 515.1395 462.3983 525.8795 462.3983 543.9495C462.3983 561.5195 451.1683 571.7795 433.1083 571.7795H406.2483V630.8595C406.2483 650.8795 395.9983 665.0395 375.4883 665.0395ZM652.3483 659.6695C633.7883 659.6695 621.0983 646.9695 621.0983 627.4395V314.9395H618.6483L564.9383 354.4895C553.2183 363.7695 548.3383 364.2595 540.0383 364.2595C525.3883 364.2595 511.2283 351.0695 511.2283 333.9795C511.2283 320.7995 517.5783 311.5195 528.3183 304.1995L604.4883 251.9495C622.5583 239.7495 632.3283 234.8595 648.9283 234.8595C670.4083 234.8595 684.5683 249.9995 684.5683 270.9995V627.4395C684.5683 646.9695 671.8783 659.6695 652.3483 659.6695ZM345.2183 515.1395V299.8095H342.7783C302.2483 368.1595 250.9783 456.0595 221.1883 513.1795V515.1395Z"/>
</svg>