<?xml version="1.0" encoding="UTF-8" standalone="no"?>
<svg xmlns="http://www.w3.org/2000/svg"
     width="996.09375" height="996.09375"
     viewBox="0 0 996.09375 996.09375"
     fill="currentColor">
  <path d="M498.0477 996.0959C770.5077 996.0959 996.0977 770.0159 996.0977 498.0459C996.0977 225.5859 770.0177 -0.0041 497.5577 -0.0041C225.5877 -0.0041 -0.0023 225.5859 -0.0023 498.0459C-0.0023 770.0159 226.0777 996.0959 498.0477 996.0959ZM398.9277 714.3559C379.3977 714.3559 369.1377 699.7059 369.1377 680.1759V621.0959H222.1677C196.7777 621.0959 178.7077 604.9759 178.7077 578.1259C178.7077 564.4559 182.1277 553.2259 189.9377 537.5959C224.1177 476.5659 274.8977 390.6259 316.4077 319.8259C333.0077 291.9959 351.0777 280.7659 380.3677 280.7659C409.6677 280.7659 430.1777 299.8059 430.1777 329.1059V564.4559H457.5177C474.6077 564.4559 485.8377 575.1959 485.8377 593.2659C485.8377 610.8359 474.6077 621.0959 457.5177 621.0959H430.1777V680.1759C430.1777 700.1959 419.9177 714.3559 398.9277 714.3559ZM568.3577 703.6159C550.2977 703.6159 539.0577 691.8959 539.0577 673.8259C539.0577 663.5759 541.9877 654.7859 549.8077 646.4859L682.1277 490.2359C706.5477 462.4059 732.9077 434.0859 732.9077 401.3659C732.9077 364.2559 706.5477 339.3559 666.5077 339.3559C630.3677 339.3559 604.9777 357.4259 592.2877 395.5059C585.4477 410.6459 578.1277 418.9459 563.4777 418.9459C545.4077 418.9459 535.1577 406.7359 535.1577 388.6759C535.1577 382.8159 536.1377 376.9559 537.5977 370.6059C550.7777 319.3359 604.0077 280.7659 664.0577 280.7659C743.1677 280.7659 793.9477 325.6859 793.9477 395.9959C793.9477 446.2859 766.1177 482.4259 729.0077 525.8759L630.3677 640.1359V644.0459H776.8577C792.9677 644.0459 805.1777 654.2959 805.1777 673.3359C805.1777 691.4059 792.9677 703.6159 776.8577 703.6159ZM369.1377 564.4559V349.1259H366.2077C326.1677 417.4759 274.8977 505.3759 245.1177 562.4959V564.4559Z"/>
</svg>