<?xml version="1.0" encoding="UTF-8" standalone="no"?>
<svg xmlns="http://www.w3.org/2000/svg"
     width="996.09375" height="996.09375"
     viewBox="0 0 996.09375 996.09375"
     fill="currentColor">
  <path d="M498.0477 996.0959C770.5077 996.0959 996.0977 770.0159 996.0977 498.0459C996.0977 225.5859 770.0177 -0.0041 497.5577 -0.0041C225.5877 -0.0041 -0.0023 225.5859 -0.0023 498.0459C-0.0023 770.0159 226.0777 996.0959 498.0477 996.0959ZM498.0477 913.0859C267.5777 913.0859 83.4977 728.5159 83.4977 498.0459C83.4977 267.5759 267.0877 83.0059 497.5577 83.0059C728.0277 83.0059 913.0877 267.5759 913.0877 498.0459C913.0877 728.5159 728.5177 913.0859 498.0477 913.0859ZM401.3677 707.5159C421.3877 707.5159 431.6377 693.8459 431.6377 674.8059V617.1859H458.0077C474.6077 617.1859 485.3477 607.4259 485.3477 590.3359C485.3477 572.7559 474.6077 562.4959 458.0077 562.4959H431.6377V333.9859C431.6377 305.6659 411.6177 287.5959 383.2977 287.5959C354.9777 287.5959 337.8877 298.3359 321.7777 325.1959C281.2477 393.5559 231.9377 477.5359 198.7277 536.6259C190.9177 551.7559 187.9877 562.4959 187.9877 575.6859C187.9877 601.5659 205.0777 617.1859 229.9777 617.1859H372.5577V674.8059C372.5577 693.3559 382.3277 707.5159 401.3677 707.5159ZM565.4277 697.2659H767.5777C783.2077 697.2659 794.9177 685.5459 794.9177 667.9659C794.9177 649.9059 783.2077 639.6459 767.5777 639.6459H625.4877V636.2259L721.1877 524.9059C757.3277 482.9059 784.1777 447.7559 784.1777 398.9259C784.1777 331.0559 734.8677 287.5959 658.2077 287.5959C600.0977 287.5959 548.3377 324.7059 535.6477 374.5159C534.1777 380.8559 533.2077 386.2259 533.2077 392.0859C533.2077 409.6659 543.4577 421.3859 560.5477 421.3859C574.7077 421.3859 582.0277 413.0859 588.3777 398.4359C600.5877 361.8159 625.4877 343.7459 660.6477 343.7459C699.7077 343.7459 725.0977 368.1659 725.0977 404.2959C725.0977 436.0359 699.7077 463.3759 676.2677 490.7259L547.8477 642.0859C540.0377 650.3859 537.1077 658.6959 537.1077 668.4559C537.1077 686.0359 548.3377 697.2659 565.4277 697.2659ZM372.5577 562.4959H251.9577V560.5459C280.7577 505.3759 331.0577 419.4359 369.6277 353.5159H372.5577Z"/>
</svg>