<?xml version="1.0" encoding="UTF-8" standalone="no"?>
<svg xmlns="http://www.w3.org/2000/svg"
     width="996.09375" height="996.09375"
     viewBox="0 0 996.09375 996.09375"
     fill="currentColor">
  <path d="M498.0477 996.0959C770.5077 996.0959 996.0977 770.0159 996.0977 498.0459C996.0977 225.5859 770.0177 -0.0041 497.5577 -0.0041C225.5877 -0.0041 -0.0023 225.5859 -0.0023 498.0459C-0.0023 770.0159 226.0777 996.0959 498.0477 996.0959ZM498.0477 913.0859C267.5777 913.0859 83.4977 728.5159 83.4977 498.0459C83.4977 267.5759 267.0877 83.0059 497.5577 83.0059C728.0277 83.0059 913.0877 267.5759 913.0877 498.0459C913.0877 728.5159 728.5177 913.0859 498.0477 913.0859ZM402.8277 707.5159C422.8477 707.5159 433.1077 693.8459 433.1077 674.8059V617.1859H459.4777C476.0777 617.1859 486.8177 607.4259 486.8177 590.3359C486.8177 572.7559 476.0777 562.4959 459.4777 562.4959H433.1077V333.9859C433.1077 305.6659 413.0877 287.5959 384.7677 287.5959C356.4477 287.5959 339.3577 298.3359 323.2377 325.1959C282.7177 393.5559 233.3977 477.5359 200.1977 536.6259C192.3877 551.7559 189.4577 562.4959 189.4577 575.6859C189.4577 601.5659 206.5477 617.1859 231.4477 617.1859H374.0277V674.8059C374.0277 693.3559 383.7877 707.5159 402.8277 707.5159ZM665.0377 708.4959C747.5577 708.4959 805.6677 658.6959 805.6677 588.3759C805.6677 536.6259 769.5277 494.6259 720.2177 489.7459V486.8159C760.7377 479.9759 792.4777 439.4559 792.4777 393.5559C792.4777 331.0559 741.2077 287.5959 667.9677 287.5959C602.0477 287.5959 553.2277 325.1959 540.5277 373.0459C539.0577 379.3959 539.0577 384.2759 539.0577 390.6259C539.0577 408.2059 550.2977 420.4059 566.8977 420.4059C581.5477 420.4059 589.3577 412.5959 594.2377 396.9759C604.9777 362.7959 628.9077 343.7459 666.5077 343.7459C705.5677 343.7459 732.4177 367.1859 732.4177 401.3659C732.4177 437.0159 705.0777 462.8859 666.5077 462.8859H639.6477C624.0277 462.8859 613.2777 474.1259 613.2777 491.6959C613.2777 507.3259 624.0277 519.5359 639.6477 519.5359H668.4577C714.8477 519.5359 744.6277 545.8959 744.6277 585.4459C744.6277 623.5359 712.3977 652.3459 665.5277 652.3459C626.9577 652.3459 600.0977 633.2959 586.9177 599.1259C581.0577 583.4959 573.2377 575.6859 559.0777 575.6859C542.9677 575.6859 531.2477 587.8859 531.2477 604.9759C531.2477 611.8159 531.7377 616.6959 533.6877 623.0459C546.3877 667.9659 598.1477 708.4959 665.0377 708.4959ZM374.0277 562.4959H253.4177V560.5459C282.2277 505.3759 332.5177 419.4359 371.0977 353.5159H374.0277Z"/>
</svg>