<?xml version="1.0" encoding="UTF-8" standalone="no"?>
<svg xmlns="http://www.w3.org/2000/svg"
     width="898.92578125" height="898.92578125"
     viewBox="0 0 898.92578125 898.92578125"
     fill="currentColor">
  <path d="M153.3183 898.9295H745.6083C848.1483 898.9295 898.9283 848.1495 898.9283 747.5595V151.3695C898.9283 50.7795 848.1483 -0.0005 745.6083 -0.0005H153.3183C51.2683 -0.0005 -0.0017 50.2895 -0.0017 151.3695V747.5595C-0.0017 848.6295 51.2683 898.9295 153.3183 898.9295ZM154.2983 820.3095C105.4683 820.3095 78.6183 794.4295 78.6183 743.6495V155.2695C78.6183 104.4895 105.4683 78.6095 154.2983 78.6095H744.6283C792.9683 78.6095 820.3083 104.4895 820.3083 155.2695V743.6495C820.3083 794.4295 792.9683 820.3095 744.6283 820.3095ZM354.9783 658.1995C374.9983 658.1995 385.2583 644.5295 385.2583 625.4895V567.8695H411.6183C428.2183 567.8695 438.9683 558.1095 438.9683 541.0195C438.9683 523.4395 428.2183 513.1795 411.6183 513.1795H385.2583V284.6695C385.2583 256.3495 365.2383 238.2795 336.9183 238.2795C308.5983 238.2795 291.5083 249.0195 275.3883 275.8795C234.8683 344.2395 185.5483 428.2195 152.3483 487.3095C144.5283 502.4395 141.5983 513.1795 141.5983 526.3695C141.5983 552.2495 158.6883 567.8695 183.5983 567.8695H326.1683V625.4895C326.1683 644.0395 335.9383 658.1995 354.9783 658.1995ZM617.1883 659.1795C700.1983 659.1795 757.8083 609.3795 757.8083 539.0595C757.8083 487.3095 721.6783 445.3095 672.8483 440.4295V437.4995C712.8883 430.6595 744.6283 390.1395 744.6283 344.2395C744.6283 281.7395 693.3583 238.2795 620.6083 238.2795C554.1983 238.2795 505.3683 275.8795 492.6783 323.7295C491.6983 330.0795 491.2083 334.9595 491.2083 341.3095C491.2083 358.8895 502.4383 371.0895 519.0383 371.0895C533.6883 371.0895 541.5083 363.2795 546.3883 347.6595C557.1283 313.4795 581.0583 294.4295 619.1383 294.4295C657.7183 294.4295 684.5683 317.8695 684.5683 352.0495C684.5683 387.6995 657.2283 413.5695 618.6483 413.5695H592.2883C576.1683 413.5695 565.4283 424.8095 565.4283 442.3795C565.4283 458.0095 576.1683 470.2195 592.2883 470.2195H620.6083C666.9883 470.2195 696.7783 496.5795 696.7783 536.1295C696.7783 574.2195 664.5483 603.0295 617.6783 603.0295C579.0983 603.0295 552.2483 583.9795 539.5483 549.8095C533.1983 534.1795 525.3883 526.3695 511.7183 526.3695C495.1183 526.3695 483.3983 538.5695 483.3983 555.6595C483.3983 562.4995 483.8883 567.3795 485.8383 573.7295C498.5383 618.6495 550.2883 659.1795 617.1883 659.1795ZM326.1683 513.1795H205.5683V511.2295C234.3783 456.0595 284.6683 370.1195 323.2383 304.1995H326.1683Z"/>
</svg>