<?xml version="1.0" encoding="UTF-8" standalone="no"?>
<svg xmlns="http://www.w3.org/2000/svg"
     width="898.92578125" height="898.92578125"
     viewBox="0 0 898.92578125 898.92578125"
     fill="currentColor">
  <path d="M153.3183 898.9295H745.6083C848.1483 898.9295 898.9283 848.1495 898.9283 747.5595V151.3695C898.9283 50.7795 848.1483 -0.0005 745.6083 -0.0005H153.3183C51.2683 -0.0005 -0.0017 50.2895 -0.0017 151.3695V747.5595C-0.0017 848.6295 51.2683 898.9295 153.3183 898.9295ZM338.8683 665.0395C319.3383 665.0395 308.5983 650.3895 308.5983 630.8595V571.7795H162.1083C136.2283 571.7795 119.1383 555.6595 119.1383 528.8095C119.1383 515.1395 121.5783 503.9095 129.3983 488.2795C163.5783 427.2495 214.3583 341.3095 255.8583 270.5095C272.9483 242.6795 290.5283 231.4495 319.8283 231.4495C349.1183 231.4495 370.1183 250.4895 370.1183 279.7895V515.1395H396.9683C414.0583 515.1395 425.7783 525.8795 425.7783 543.9495C425.7783 561.5195 414.5483 571.7795 396.9683 571.7795H370.1183V630.8595C370.1183 650.8795 359.3783 665.0395 338.8683 665.0395ZM686.0383 665.0395C666.5083 665.0395 655.7583 650.3895 655.7583 630.8595V571.7795H508.7883C483.3983 571.7795 465.8183 555.6595 465.8183 528.8095C465.8183 515.1395 468.7483 503.9095 477.0483 488.2795C510.7383 427.2495 561.0383 341.3095 603.5183 270.5095C619.6283 242.6795 637.6983 231.4495 666.9883 231.4495C696.7783 231.4495 716.7983 250.4895 716.7983 279.7895V515.1395H744.1383C761.7183 515.1395 772.4583 525.8795 772.4583 543.9495C772.4583 561.5195 761.7183 571.7795 744.1383 571.7795H716.7983V630.8595C716.7983 650.8795 706.0583 665.0395 686.0383 665.0395ZM308.5983 515.1395V299.8095H305.6683C265.6283 368.1595 214.3583 456.0595 184.5683 513.1795V515.1395ZM655.7583 515.1395V299.8095H653.3183C612.7883 368.1595 561.5283 456.0595 531.7383 513.1795V515.1395Z"/>
</svg>