<?xml version="1.0" encoding="UTF-8" standalone="no"?>
<svg xmlns="http://www.w3.org/2000/svg"
     width="898.92578125" height="898.92578125"
     viewBox="0 0 898.92578125 898.92578125"
     fill="currentColor">
  <path d="M153.3183 898.9295H745.6083C848.1483 898.9295 898.9283 848.1495 898.9283 747.5595V151.3695C898.9283 50.7795 848.1483 -0.0005 745.6083 -0.0005H153.3183C51.2683 -0.0005 -0.0017 50.2895 -0.0017 151.3695V747.5595C-0.0017 848.6295 51.2683 898.9295 153.3183 898.9295ZM154.2983 820.3095C105.4683 820.3095 78.6183 794.4295 78.6183 743.6495V155.2695C78.6183 104.4895 105.4683 78.6095 154.2983 78.6095H744.6283C792.9683 78.6095 820.3083 104.4895 820.3083 155.2695V743.6495C820.3083 794.4295 792.9683 820.3095 744.6283 820.3095ZM342.2883 658.1995C361.8183 658.1995 372.0683 644.5295 372.0683 625.4895V567.8695H398.4383C415.5283 567.8695 426.2683 558.1095 426.2683 541.0195C426.2683 523.4395 415.0383 513.1795 398.4383 513.1795H372.0683V284.6695C372.0683 256.3495 352.0483 238.2795 323.7283 238.2795C295.4083 238.2795 278.3183 249.0195 262.2083 275.8795C221.6783 344.2395 172.3683 428.2195 139.1583 487.3095C131.3483 502.4395 128.9083 513.1795 128.9083 526.3695C128.9083 552.2495 145.5083 567.8695 170.4083 567.8695H312.9883V625.4895C312.9883 644.0395 323.2383 658.1995 342.2883 658.1995ZM678.7083 658.1995C698.2383 658.1995 708.4983 644.5295 708.4983 625.4895V567.8695H735.3483C751.9483 567.8695 762.6983 558.1095 762.6983 541.0195C762.6983 523.4395 751.9483 513.1795 735.3483 513.1795H708.4983V284.6695C708.4983 256.3495 688.9683 238.2795 660.1583 238.2795C632.3283 238.2795 614.7483 249.0195 599.1183 275.8795C558.1083 344.2395 508.7883 428.2195 476.0783 487.3095C468.2583 502.4395 465.3283 513.1795 465.3283 526.3695C465.3283 552.2495 482.4183 567.8695 506.8383 567.8695H649.4183V625.4895C649.4183 644.0395 659.6683 658.1995 678.7083 658.1995ZM312.9883 513.1795H192.3783V511.2295C221.1883 456.0595 271.4883 370.1195 310.0583 304.1995H312.9883ZM649.4183 513.1795H528.8083V511.2295C557.6183 456.0595 607.9083 370.1195 646.9683 304.1995H649.4183Z"/>
</svg>