<?xml version="1.0" encoding="UTF-8" standalone="no"?>
<svg xmlns="http://www.w3.org/2000/svg"
     width="996.09375" height="996.09375"
     viewBox="0 0 996.09375 996.09375"
     fill="currentColor">
  <path d="M498.0477 996.0959C770.5077 996.0959 996.0977 770.0159 996.0977 498.0459C996.0977 225.5859 770.0177 -0.0041 497.5577 -0.0041C225.5877 -0.0041 -0.0023 225.5859 -0.0023 498.0459C-0.0023 770.0159 226.0777 996.0959 498.0477 996.0959ZM498.0477 913.0859C267.5777 913.0859 83.4977 728.5159 83.4977 498.0459C83.4977 267.5759 267.0877 83.0059 497.5577 83.0059C728.0277 83.0059 913.0877 267.5759 913.0877 498.0459C913.0877 728.5159 728.5177 913.0859 498.0477 913.0859ZM395.5077 707.5159C415.5277 707.5159 425.7777 693.8459 425.7777 674.8059V617.1859H452.1477C468.7477 617.1859 479.4877 607.4259 479.4877 590.3359C479.4877 572.7559 468.7477 562.4959 452.1477 562.4959H425.7777V333.9859C425.7777 305.6659 405.7577 287.5959 377.4377 287.5959C349.1177 287.5959 332.0277 298.3359 315.9177 325.1959C275.3877 393.5559 226.0777 477.5359 192.8677 536.6259C185.0577 551.7559 182.1277 562.4959 182.1277 575.6859C182.1277 601.5659 199.2177 617.1859 224.1177 617.1859H366.6977V674.8059C366.6977 693.3559 376.4677 707.5159 395.5077 707.5159ZM656.7377 708.4959C742.6777 708.4959 799.8077 655.7659 799.8077 569.8259C799.8077 494.6259 749.0277 439.9459 673.8277 439.9459C641.1177 439.9459 605.9577 456.0559 591.3077 478.0259H589.3577L598.6377 352.5359H760.2577C773.9277 352.5359 784.1777 341.3059 784.1777 325.1959C784.1777 309.5659 774.4177 297.8559 760.2577 297.8559H592.2877C566.4077 297.8559 549.3177 313.4759 547.8477 339.3559L536.1377 491.6959C534.1777 517.0859 547.8477 533.6959 570.3077 533.6959C585.4477 533.6959 594.2377 529.7859 609.8677 517.0859C630.3677 499.5159 645.5077 492.1859 666.9877 492.1859C709.9577 492.1859 739.2577 526.3659 739.2577 571.2859C739.2577 622.5559 707.0277 653.3159 659.6677 653.3159C626.4677 653.3159 598.1477 635.7459 583.9877 606.4459C576.6577 592.2859 567.3877 585.4459 555.6677 585.4459C539.5477 585.4459 528.3177 597.6559 528.3177 613.7659C528.3177 621.5859 530.2777 628.9059 532.7177 635.7459C547.3677 676.2659 595.7077 708.4959 656.7377 708.4959ZM366.6977 562.4959H246.0977V560.5459C274.8977 505.3759 325.1977 419.4359 363.7677 353.5159H366.6977Z"/>
</svg>