<?xml version="1.0" encoding="UTF-8" standalone="no"?>
<svg xmlns="http://www.w3.org/2000/svg"
     width="996.09375" height="996.09375"
     viewBox="0 0 996.09375 996.09375"
     fill="currentColor">
  <path d="M498.0477 996.0959C770.5077 996.0959 996.0977 770.0159 996.0977 498.0459C996.0977 225.5859 770.0177 -0.0041 497.5577 -0.0041C225.5877 -0.0041 -0.0023 225.5859 -0.0023 498.0459C-0.0023 770.0159 226.0777 996.0959 498.0477 996.0959ZM393.0677 714.3559C373.0477 714.3559 363.2777 699.7059 363.2777 680.1759V621.0959H216.3077C190.4277 621.0959 172.8477 604.9759 172.8477 578.1259C172.8477 564.4559 175.7777 553.2259 184.0777 537.5959C218.2577 476.5659 268.5577 390.6259 310.5477 319.8259C327.1477 291.9959 344.7277 280.7659 374.0277 280.7659C403.8077 280.7659 424.3177 299.8059 424.3177 329.1059V564.4559H451.1677C468.7477 564.4559 479.4877 575.1959 479.4877 593.2659C479.4877 610.8359 468.7477 621.0959 451.1677 621.0959H424.3177V680.1759C424.3177 700.1959 413.5777 714.3559 393.0677 714.3559ZM662.5977 715.3359C599.6077 715.3359 549.8077 682.1259 534.6677 640.1359C531.7377 633.2959 529.7877 625.4859 529.7877 617.1859C529.7877 600.5859 541.5077 587.8859 558.1077 587.8859C570.3077 587.8859 580.0777 595.2159 587.3977 609.8659C602.0477 640.1359 631.3477 658.2059 665.5277 658.2059C714.3577 658.2059 747.0677 626.4659 747.0677 573.7259C747.0677 527.3459 717.2877 492.1859 672.8477 492.1859C650.8777 492.1859 635.2577 499.5159 614.2577 517.5759C598.1477 530.7659 588.8677 535.1559 573.2377 535.1559C550.2977 535.1559 536.1377 517.5759 538.0877 491.2059L549.8077 334.4759C551.7577 307.6159 569.3377 291.5059 596.1877 291.5059H769.0477C783.6877 291.5059 793.9477 303.7059 793.9477 319.8259C793.9477 336.4259 783.2077 348.1459 769.0477 348.1459H602.5377L593.2577 477.5359H595.2177C610.3477 454.5859 646.4877 437.9859 680.1777 437.9859C757.8077 437.9859 810.0577 494.6259 810.0577 572.2659C810.0577 660.6459 750.9777 715.3359 662.5977 715.3359ZM363.2777 564.4559V349.1259H359.8677C320.3077 417.4759 269.0477 505.3759 239.2577 562.4959V564.4559Z"/>
</svg>