<?xml version="1.0" encoding="UTF-8" standalone="no"?>
<svg xmlns="http://www.w3.org/2000/svg"
     width="898.92578125" height="898.92578125"
     viewBox="0 0 898.92578125 898.92578125"
     fill="currentColor">
  <path d="M153.3183 898.9295H745.6083C848.1483 898.9295 898.9283 848.1495 898.9283 747.5595V151.3695C898.9283 50.7795 848.1483 -0.0005 745.6083 -0.0005H153.3183C51.2683 -0.0005 -0.0017 50.2895 -0.0017 151.3695V747.5595C-0.0017 848.6295 51.2683 898.9295 153.3183 898.9295ZM344.7283 665.0395C324.7083 665.0395 314.9383 650.3895 314.9383 630.8595V571.7795H167.9683C142.0883 571.7795 124.5083 555.6595 124.5083 528.8095C124.5083 515.1395 127.4383 503.9095 135.7383 488.2795C169.9183 427.2495 220.2183 341.3095 262.2083 270.5095C278.8083 242.6795 296.3883 231.4495 325.6883 231.4495C355.4683 231.4495 375.9783 250.4895 375.9783 279.7895V515.1395H402.8283C420.4083 515.1395 431.6383 525.8795 431.6383 543.9495C431.6383 561.5195 420.8983 571.7795 402.8283 571.7795H375.9783V630.8595C375.9783 650.8795 365.2383 665.0395 344.7283 665.0395ZM614.2583 666.0195C551.2683 666.0195 501.4683 632.8095 486.3283 590.8195C483.3983 583.9795 481.4483 576.1695 481.4483 567.8695C481.4483 551.2695 493.1683 538.5695 510.2583 538.5695C521.9683 538.5695 531.7383 545.8995 539.0583 560.5495C553.7083 590.8195 583.0083 608.8895 617.1883 608.8895C666.0183 608.8895 699.2183 577.1495 699.2183 524.4095C699.2183 478.0295 668.9483 442.8695 624.9983 442.8695C602.5383 442.8695 586.9183 450.1995 565.9183 468.2595C549.8083 481.4495 540.5283 485.8395 524.8983 485.8395C501.9483 485.8395 487.7883 468.2595 489.7483 441.8895L501.4683 285.1595C503.9083 258.2995 520.9983 242.1895 547.8483 242.1895H720.6983C735.3483 242.1895 745.6083 254.3895 745.6083 270.5095C745.6083 287.1095 734.8683 298.8295 720.6983 298.8295H554.1983L544.9183 428.2195H546.8783C562.0083 405.2695 598.1483 388.6695 631.8383 388.6695C709.4683 388.6695 762.2083 445.3095 762.2083 522.9495C762.2083 611.3295 702.6383 666.0195 614.2583 666.0195ZM314.9383 515.1395V299.8095H311.5283C271.9683 368.1595 220.6983 456.0595 190.9183 513.1795V515.1395Z"/>
</svg>