<?xml version="1.0" encoding="UTF-8" standalone="no"?>
<svg xmlns="http://www.w3.org/2000/svg"
     width="996.09375" height="996.09375"
     viewBox="0 0 996.09375 996.09375"
     fill="currentColor">
  <path d="M498.0477 996.0959C770.5077 996.0959 996.0977 770.0159 996.0977 498.0459C996.0977 225.5859 770.0177 -0.0041 497.5577 -0.0041C225.5877 -0.0041 -0.0023 225.5859 -0.0023 498.0459C-0.0023 770.0159 226.0777 996.0959 498.0477 996.0959ZM397.4577 714.3559C377.4377 714.3559 367.1877 699.7059 367.1877 680.1759V621.0959H220.2177C194.8277 621.0959 177.2477 604.9759 177.2477 578.1259C177.2477 564.4559 180.1777 553.2259 188.4777 537.5959C222.1677 476.5659 272.4577 390.6259 314.9377 319.8259C331.0577 291.9959 348.6377 280.7659 378.4177 280.7659C408.2077 280.7659 428.2277 299.8059 428.2277 329.1059V564.4559H455.5677C473.1477 564.4559 483.8877 575.1959 483.8877 593.2659C483.8877 610.8359 473.1477 621.0959 455.5677 621.0959H428.2277V680.1759C428.2277 700.1959 417.4777 714.3559 397.4577 714.3559ZM674.8077 715.8159C624.0277 715.8159 580.5677 696.2859 554.6877 647.4559C537.5977 616.2059 527.8277 571.2859 527.8277 509.7659C527.8277 356.4459 587.3977 280.7659 684.5677 280.7659C741.6977 280.7659 782.2277 310.5459 795.4077 344.2359C797.8477 351.0759 798.8277 356.9359 798.8277 363.7659C798.8277 380.3759 788.0877 391.6059 773.9277 391.6059C760.2577 391.6059 752.4377 385.2559 743.6477 372.5559C730.9577 353.0259 710.9377 339.3559 682.1277 339.3559C624.9977 339.3559 586.9177 398.9259 586.9177 493.6559V498.5359H590.3277C603.0277 465.3359 636.7177 435.0559 690.4277 435.0559C755.8577 435.0559 814.9377 482.9059 814.9377 569.3359C814.9377 661.6259 756.3477 715.8159 674.8077 715.8159ZM367.1877 564.4559V349.1259H364.7477C324.2177 417.4759 272.9477 505.3759 243.1677 562.4959V564.4559ZM671.8777 660.1559C720.7077 660.1559 750.9777 625.9759 750.9777 572.2659C750.9777 521.9759 719.7277 487.3059 672.3677 487.3059C624.9977 487.3059 592.7777 522.4559 592.7777 571.7759C592.7777 623.5359 624.9977 660.1559 671.8777 660.1559Z"/>
</svg>