<?xml version="1.0" encoding="UTF-8" standalone="no"?>
<svg xmlns="http://www.w3.org/2000/svg"
     width="898.92578125" height="898.92578125"
     viewBox="0 0 898.92578125 898.92578125"
     fill="currentColor">
  <path d="M153.3183 898.9295H745.6083C848.1483 898.9295 898.9283 848.1495 898.9283 747.5595V151.3695C898.9283 50.7795 848.1483 -0.0005 745.6083 -0.0005H153.3183C51.2683 -0.0005 -0.0017 50.2895 -0.0017 151.3695V747.5595C-0.0017 848.6295 51.2683 898.9295 153.3183 898.9295ZM154.2983 820.3095C105.4683 820.3095 78.6183 794.4295 78.6183 743.6495V155.2695C78.6183 104.4895 105.4683 78.6095 154.2983 78.6095H744.6283C792.9683 78.6095 820.3083 104.4895 820.3083 155.2695V743.6495C820.3083 794.4295 792.9683 820.3095 744.6283 820.3095ZM352.0483 658.1995C371.5783 658.1995 381.8383 644.5295 381.8383 625.4895V567.8695H408.6883C425.2883 567.8695 436.0383 558.1095 436.0383 541.0195C436.0383 523.4395 425.2883 513.1795 408.6883 513.1795H381.8383V284.6695C381.8383 256.3495 362.3083 238.2795 333.9883 238.2795C305.6683 238.2795 288.0883 249.0195 272.4583 275.8795C231.4483 344.2395 182.1283 428.2195 149.4183 487.3095C141.5983 502.4395 138.6683 513.1795 138.6683 526.3695C138.6683 552.2495 155.7583 567.8695 180.1783 567.8695H322.7583V625.4895C322.7583 644.0395 333.0083 658.1995 352.0483 658.1995ZM621.0983 659.6695C700.6883 659.6695 756.8383 607.4195 756.8383 518.0695C756.8383 434.0795 699.7083 387.6995 636.2283 387.6995C583.9883 387.6995 551.2683 416.9895 539.5483 449.2195H535.6483V444.8195C535.6483 352.5395 573.2383 294.4295 627.9283 294.4295C656.2483 294.4295 675.7783 308.1095 687.9883 327.1495C696.2883 339.3595 704.0983 345.2195 717.2883 345.2195C730.9583 345.2195 741.6983 334.4695 741.6983 318.3595C741.6983 312.0095 740.2383 306.1495 737.7883 299.8095C725.0983 267.0895 686.0383 238.2795 630.3683 238.2795C536.6183 238.2795 478.5183 311.5195 478.5183 459.9595C478.5183 519.5295 488.2783 562.9895 504.8783 593.7495C529.7883 640.6295 571.7783 659.6695 621.0983 659.6695ZM322.7583 513.1795H202.6383V511.2295C230.9583 456.0595 281.2483 370.1195 320.3083 304.1995H322.7583ZM618.1683 605.9595C573.2383 605.9595 541.5083 570.3095 541.5083 520.0195C541.5083 472.1695 572.7583 437.9895 618.6483 437.9895C664.5483 437.9895 695.3083 471.6795 695.3083 520.5095C695.3083 572.7495 665.5283 605.9595 618.1683 605.9595Z"/>
</svg>