<?xml version="1.0" encoding="UTF-8" standalone="no"?>
<svg xmlns="http://www.w3.org/2000/svg"
     width="996.09375" height="996.09375"
     viewBox="0 0 996.09375 996.09375"
     fill="currentColor">
  <path d="M498.0477 996.0959C770.5077 996.0959 996.0977 770.0159 996.0977 498.0459C996.0977 225.5859 770.0177 -0.0041 497.5577 -0.0041C225.5877 -0.0041 -0.0023 225.5859 -0.0023 498.0459C-0.0023 770.0159 226.0777 996.0959 498.0477 996.0959ZM498.0477 913.0859C267.5777 913.0859 83.4977 728.5159 83.4977 498.0459C83.4977 267.5759 267.0877 83.0059 497.5577 83.0059C728.0277 83.0059 913.0877 267.5759 913.0877 498.0459C913.0877 728.5159 728.5177 913.0859 498.0477 913.0859ZM397.9477 707.5159C417.4777 707.5159 427.7377 693.8459 427.7377 674.8059V617.1859H454.5877C471.1877 617.1859 481.9377 607.4259 481.9377 590.3359C481.9377 572.7559 471.1877 562.4959 454.5877 562.4959H427.7377V333.9859C427.7377 305.6659 408.2077 287.5959 379.8877 287.5959C351.5577 287.5959 333.9877 298.3359 318.3577 325.1959C277.3477 393.5559 228.0277 477.5359 195.3077 536.6259C187.4977 551.7559 184.5677 562.4959 184.5677 575.6859C184.5677 601.5659 201.6577 617.1859 226.0777 617.1859H368.6477V674.8059C368.6477 693.3559 378.9077 707.5159 397.9477 707.5159ZM603.0277 703.1259C616.2077 703.1259 625.4877 695.7959 634.2777 679.1959L786.6177 374.5159C793.9477 358.8859 795.8977 350.0959 795.8977 339.8459C795.8977 315.9159 778.8077 297.3659 752.4377 297.3659H555.6677C538.5777 297.3659 527.3477 308.5959 527.3477 325.1959C527.3477 341.3059 538.5777 352.0459 555.6677 352.0459H727.0477V355.9559L575.6877 648.9259C571.7777 656.2459 570.3077 662.1059 570.3077 671.3859C570.3077 689.9459 584.4777 703.1259 603.0277 703.1259ZM368.6477 562.4959H248.0477V560.5459C276.8577 505.3759 327.1477 419.4359 366.2077 353.5159H368.6477Z"/>
</svg>