<?xml version="1.0" encoding="UTF-8" standalone="no"?>
<svg xmlns="http://www.w3.org/2000/svg"
     width="996.09375" height="996.09375"
     viewBox="0 0 996.09375 996.09375"
     fill="currentColor">
  <path d="M498.0477 996.0959C770.5077 996.0959 996.0977 770.0159 996.0977 498.0459C996.0977 225.5859 770.0177 -0.0041 497.5577 -0.0041C225.5877 -0.0041 -0.0023 225.5859 -0.0023 498.0459C-0.0023 770.0159 226.0777 996.0959 498.0477 996.0959ZM395.5077 714.3559C375.9777 714.3559 365.2377 699.7059 365.2377 680.1759V621.0959H218.2577C192.8677 621.0959 175.2977 604.9759 175.2977 578.1259C175.2977 564.4559 178.2277 553.2259 186.5277 537.5959C220.2177 476.5659 270.5077 390.6259 312.9877 319.8259C329.0977 291.9959 347.6577 280.7659 376.9577 280.7659C406.2477 280.7659 426.2677 299.8059 426.2677 329.1059V564.4559H453.6177C471.1877 564.4559 482.4177 575.1959 482.4177 593.2659C482.4177 610.8359 471.1877 621.0959 453.6177 621.0959H426.2677V680.1759C426.2677 700.1959 416.0177 714.3559 395.5077 714.3559ZM606.9377 709.4759C587.8877 709.4759 573.2377 695.7959 573.2377 676.7559C573.2377 666.9959 574.7077 661.1359 578.6177 653.3159L734.8677 351.5659V347.6559H558.1077C540.5277 347.6559 528.8077 336.4259 528.8077 319.8259C528.8077 302.7359 540.5277 291.0159 558.1077 291.0159H761.2277C788.5777 291.0159 806.1477 310.5459 806.1477 334.9559C806.1477 345.7059 804.1977 354.9759 796.3877 371.0959L639.6477 684.5659C630.3677 702.1459 620.6077 709.4759 606.9377 709.4759ZM365.2377 564.4559V349.1259H362.7977C322.2677 417.4759 270.9977 505.3759 241.2077 562.4959V564.4559Z"/>
</svg>