<?xml version="1.0" encoding="UTF-8" standalone="no"?>
<svg xmlns="http://www.w3.org/2000/svg"
     width="898.92578125" height="898.92578125"
     viewBox="0 0 898.92578125 898.92578125"
     fill="currentColor">
  <path d="M153.3183 898.9295H745.6083C848.1483 898.9295 898.9283 848.1495 898.9283 747.5595V151.3695C898.9283 50.7795 848.1483 -0.0005 745.6083 -0.0005H153.3183C51.2683 -0.0005 -0.0017 50.2895 -0.0017 151.3695V747.5595C-0.0017 848.6295 51.2683 898.9295 153.3183 898.9295ZM347.1683 665.0395C327.6383 665.0395 316.8983 650.3895 316.8983 630.8595V571.7795H170.4083C144.5283 571.7795 126.9483 555.6595 126.9483 528.8095C126.9483 515.1395 129.8783 503.9095 138.1883 488.2795C171.8783 427.2495 222.1683 341.3095 264.6483 270.5095C280.7583 242.6795 299.3183 231.4495 328.6183 231.4495C357.9083 231.4495 377.9283 250.4895 377.9283 279.7895V515.1395H405.2783C422.8483 515.1395 434.0783 525.8795 434.0783 543.9495C434.0783 561.5195 422.8483 571.7795 405.2783 571.7795H377.9283V630.8595C377.9283 650.8795 368.1683 665.0395 347.1683 665.0395ZM558.5983 660.1595C539.5483 660.1595 524.8983 646.4795 524.8983 627.4395C524.8983 617.6795 526.3683 611.8195 530.2783 603.9995L686.5283 302.2495V298.3395H509.7683C492.1883 298.3395 480.4683 287.1095 480.4683 270.5095C480.4683 253.4195 492.1883 241.6995 509.7683 241.6995H712.8883C740.2383 241.6995 757.8083 261.2295 757.8083 285.6395C757.8083 296.3895 756.3483 305.6595 748.0483 321.7795L591.3083 635.2495C582.5183 652.8295 572.2683 660.1595 558.5983 660.1595ZM316.8983 515.1395V299.8095H314.4483C273.9283 368.1595 223.1483 456.0595 193.3583 513.1795V515.1395Z"/>
</svg>