<?xml version="1.0" encoding="UTF-8" standalone="no"?>
<svg xmlns="http://www.w3.org/2000/svg"
     width="996.09375" height="996.09375"
     viewBox="0 0 996.09375 996.09375"
     fill="currentColor">
  <path d="M498.0477 996.0959C770.5077 996.0959 996.0977 770.0159 996.0977 498.0459C996.0977 225.5859 770.0177 -0.0041 497.5577 -0.0041C225.5877 -0.0041 -0.0023 225.5859 -0.0023 498.0459C-0.0023 770.0159 226.0777 996.0959 498.0477 996.0959ZM392.5777 714.3559C373.0477 714.3559 362.3077 699.7059 362.3077 680.1759V621.0959H215.8177C190.4277 621.0959 172.8477 604.9759 172.8477 578.1259C172.8477 564.4559 175.2977 553.2259 183.5977 537.5959C217.2877 476.5659 268.0677 390.6259 310.0577 319.8259C326.6577 291.9959 344.2377 280.7659 373.5377 280.7659C403.3177 280.7659 423.8277 299.8059 423.8277 329.1059V564.4559H451.1677C468.2577 564.4559 479.4877 575.1959 479.4877 593.2659C479.4877 610.8359 468.2577 621.0959 451.1677 621.0959H423.8277V680.1759C423.8277 700.1959 413.0877 714.3559 392.5777 714.3559ZM676.7577 715.3359C589.8477 715.3359 531.2477 666.0159 531.2477 592.2859C531.2477 541.0159 562.4977 498.5359 616.6977 487.3059V484.3759C569.8277 470.7059 546.3877 435.5459 546.3877 391.6059C546.3877 326.1759 600.5877 280.7659 677.7377 280.7659C754.8877 280.7659 809.0777 326.1759 809.0777 391.6059C809.0777 435.5459 784.6677 471.6759 738.2777 484.3759V487.3059C792.9677 498.5359 824.2177 540.5259 824.2177 591.7959C824.2177 665.0359 764.6477 715.3359 676.7577 715.3359ZM677.7377 464.3559C716.7977 464.3559 744.6277 436.0359 744.6277 397.9459C744.6277 359.8659 716.7977 333.4959 677.7377 333.4959C638.1877 333.4959 610.8377 359.8659 610.8377 397.9459C610.8377 436.0359 638.6677 464.3559 677.7377 464.3559ZM362.3077 564.4559V349.1259H359.8677C319.3377 417.4759 268.0677 505.3759 238.2777 562.4959V564.4559ZM678.2277 662.5959C725.5877 662.5959 760.2577 631.8359 760.2577 587.8859C760.2577 543.9459 726.5577 512.6959 678.2277 512.6959C630.3677 512.6959 595.7077 544.4359 595.7077 587.8859C595.7077 631.8359 630.3677 662.5959 678.2277 662.5959Z"/>
</svg>