<?xml version="1.0" encoding="UTF-8" standalone="no"?>
<svg xmlns="http://www.w3.org/2000/svg"
     width="898.92578125" height="898.92578125"
     viewBox="0 0 898.92578125 898.92578125"
     fill="currentColor">
  <path d="M153.3183 898.9295H745.6083C848.1483 898.9295 898.9283 848.1495 898.9283 747.5595V151.3695C898.9283 50.7795 848.1483 -0.0005 745.6083 -0.0005H153.3183C51.2683 -0.0005 -0.0017 50.2895 -0.0017 151.3695V747.5595C-0.0017 848.6295 51.2683 898.9295 153.3183 898.9295ZM343.7483 665.0395C323.7283 665.0395 313.4783 650.3895 313.4783 630.8595V571.7795H166.9883C141.1183 571.7795 123.5383 555.6595 123.5383 528.8095C123.5383 515.1395 126.4683 503.9095 134.7683 488.2795C168.9483 427.2495 219.2383 341.3095 261.2283 270.5095C277.8283 242.6795 295.4083 231.4495 324.7083 231.4495C354.0083 231.4495 374.9983 250.4895 374.9983 279.7895V515.1395H401.8583C418.9483 515.1395 430.1783 525.8795 430.1783 543.9495C430.1783 561.5195 418.9483 571.7795 401.8583 571.7795H374.9983V630.8595C374.9983 650.8795 364.2583 665.0395 343.7483 665.0395ZM618.6483 666.0195C548.8283 666.0195 507.8083 626.4695 499.9983 598.6295C498.0483 592.7695 496.0983 585.9395 496.0983 580.5695C496.0983 562.9895 507.3283 550.7795 522.9483 550.7795C536.1283 550.7795 545.4083 556.1495 553.7083 570.3095C565.9183 592.7695 588.8683 607.4195 617.6783 607.4195C675.7783 607.4195 713.8683 548.3395 712.8883 448.2395H709.9583C696.7783 482.4195 664.0583 512.2095 608.8883 512.2095C543.4583 512.2095 483.8883 463.8695 483.8883 377.4395C483.8883 288.5695 539.5483 231.4495 624.0283 231.4495C718.7483 231.4495 772.9483 302.7295 772.9483 434.5695C772.9483 586.4295 718.7483 666.0195 618.6483 666.0195ZM627.9283 459.9595C674.8083 459.9595 707.5183 424.3195 707.5183 374.9995C707.5183 323.2395 674.3183 286.6195 627.9283 286.6195C579.5883 286.6195 548.3383 321.2895 548.3383 374.0195C548.3383 424.3195 580.5683 459.9595 627.9283 459.9595ZM313.4783 515.1395V299.8095H310.5483C270.9983 368.1595 219.2383 456.0595 189.4483 513.1795V515.1395Z"/>
</svg>