<?xml version="1.0" encoding="UTF-8" standalone="no"?>
<svg xmlns="http://www.w3.org/2000/svg"
     width="1220.703125" height="975.5859375"
     viewBox="0 0 1220.703125 975.5859375"
     fill="currentColor">
  <path d="M125.4883 810.0622H1095.2183C1177.7383 810.0622 1220.6983 767.5822 1220.6983 684.5722V125.0022C1220.6983 42.4822 1177.7383 0.0022 1095.2183 0.0022H125.4883C42.9683 0.0022 -0.0017 42.4822 -0.0017 125.0022V684.5722C-0.0017 767.5822 42.9683 810.0622 125.4883 810.0622ZM126.9483 731.4422C94.7283 731.4422 78.6183 715.3322 78.6183 683.5922V126.4622C78.6183 94.2422 94.7283 78.6122 126.9483 78.6122H1093.7483C1125.9783 78.6122 1142.0883 94.2422 1142.0883 126.4622V683.5922C1142.0883 715.3322 1125.9783 731.4422 1093.7483 731.4422ZM467.7783 619.6322C489.7483 619.6322 501.9483 605.9522 501.9483 581.5422V532.2222H537.1083C555.1783 532.2222 567.3783 520.5122 567.3783 502.4422C567.3783 484.8622 555.6683 472.6522 537.1083 472.6522H501.9483V237.7922C501.9483 209.4722 479.9783 189.9422 447.2683 189.9422C415.5283 189.9422 395.9983 201.1722 377.9283 229.0022C330.5683 300.7822 272.4583 385.2522 234.8683 447.7522C225.5883 462.4022 222.1683 474.1222 222.1683 487.3022C222.1683 514.1622 240.7183 532.2222 270.0183 532.2222H435.0583V581.5422C435.0583 605.4722 447.2683 619.6322 467.7783 619.6322ZM663.0883 617.1922C685.0583 617.1922 697.7583 603.5122 697.7583 579.1022V481.9322L756.3483 420.4122L892.0883 600.5822C901.3683 612.3022 910.6483 617.1922 922.3683 617.1922C940.9183 617.1922 954.5883 604.0022 954.5883 585.4522C954.5883 576.6622 950.6883 567.3822 944.8283 559.0822L805.1783 377.9322L933.5983 245.6022C940.9183 238.7722 944.3383 231.4422 944.3383 221.6822C944.3383 205.5622 931.1483 193.3622 914.0583 193.3622C902.8283 193.3622 896.4883 197.2622 886.2283 207.5222L703.1283 393.0622H697.7583V231.9322C697.7583 207.0322 685.0583 193.3622 663.0883 193.3622C642.0883 193.3622 629.8783 207.5222 629.8783 231.9322V579.1022C629.8783 603.0322 642.0883 617.1922 663.0883 617.1922ZM435.0583 472.6522H289.5483V469.7222C324.2183 409.1822 383.7883 321.2922 431.1483 249.0222H435.0583ZM364.7483 975.5822H855.9583C877.4383 975.5822 895.5083 958.0122 895.5083 936.0322C895.5083 914.0622 877.4383 896.4822 855.9583 896.4822H364.7483C343.2583 896.4822 325.1983 914.0622 325.1983 936.0322C325.1983 958.0122 343.2583 975.5822 364.7483 975.5822Z"/>
</svg>