<?xml version="1.0" encoding="UTF-8" standalone="no"?>
<svg xmlns="http://www.w3.org/2000/svg"
     width="1220.703125" height="975.5859375"
     viewBox="0 0 1220.703125 975.5859375"
     fill="currentColor">
  <path d="M125.4883 810.0622H1095.2183C1178.7083 810.0622 1220.6983 770.5122 1220.6983 684.5722V125.0022C1220.6983 39.5522 1178.7083 0.0022 1095.2183 0.0022H125.4883C41.9883 0.0022 -0.0017 39.5522 -0.0017 125.0022V684.5722C-0.0017 770.5122 41.9883 810.0622 125.4883 810.0622ZM464.3583 626.4622C442.8683 626.4622 430.1783 611.8122 430.1783 586.9122V536.1322H260.2583C229.9783 536.1322 210.9383 517.5822 210.9383 489.7422C210.9383 476.0722 213.8683 463.8622 223.6283 448.7322C262.6983 384.2822 321.7783 297.8522 371.0983 223.6322C389.6483 194.8222 410.1583 183.1022 443.3583 183.1022C476.5583 183.1022 499.9983 203.6122 499.9983 232.9122V474.6122H536.1283C554.6883 474.6122 566.8983 487.3022 566.8983 505.3722C566.8983 524.4122 554.1983 536.1322 536.1283 536.1322H499.9983V586.9122C499.9983 612.3022 486.8183 626.4622 464.3583 626.4622ZM665.5283 623.5322C644.0383 623.5322 630.8583 608.8822 630.8583 584.4722V226.5622C630.8583 201.6622 644.0383 187.0122 665.5283 187.0122C688.9683 187.0122 701.1683 201.1722 701.1683 226.5622V392.5822H707.5183L895.5083 201.6622C906.7383 190.9222 913.0883 187.0122 924.3183 187.0122C941.8983 187.0122 955.5683 199.2222 955.5683 216.3122C955.5683 226.0722 952.6383 233.8822 944.3383 240.7222L812.9883 376.9522L956.5383 563.4722C962.8883 572.2622 966.3083 581.5422 966.3083 590.8222C966.3083 609.8622 952.1483 623.5322 932.6183 623.5322C920.8983 623.5322 911.1283 618.6522 901.8583 606.4422L761.7183 420.9022L701.1683 484.3722V584.4722C701.1683 609.3722 688.9683 623.5322 665.5283 623.5322ZM430.1783 474.6122V244.6322H426.7583C376.9483 319.3322 316.4083 409.1822 280.2783 471.6822V474.6122ZM364.7483 975.5822H855.9583C877.4383 975.5822 895.5083 958.0122 895.5083 936.0322C895.5083 914.0622 877.4383 896.4822 855.9583 896.4822H364.7483C343.2583 896.4822 325.1983 914.0622 325.1983 936.0322C325.1983 958.0122 343.2583 975.5822 364.7483 975.5822Z"/>
</svg>