<?xml version="1.0" encoding="UTF-8" standalone="no"?>
<svg xmlns="http://www.w3.org/2000/svg"
     width="898.92578125" height="898.92578125"
     viewBox="0 0 898.92578125 898.92578125"
     fill="currentColor">
  <path d="M153.3183 898.9295H745.6083C848.1483 898.9295 898.9283 848.1495 898.9283 747.5595V151.3695C898.9283 50.7795 848.1483 -0.0005 745.6083 -0.0005H153.3183C51.2683 -0.0005 -0.0017 50.2895 -0.0017 151.3695V747.5595C-0.0017 848.6295 51.2683 898.9295 153.3183 898.9295ZM154.2983 820.3095C105.4683 820.3095 78.6183 794.4295 78.6183 743.6495V155.2695C78.6183 104.4895 105.4683 78.6095 154.2983 78.6095H744.6283C792.9683 78.6095 820.3083 104.4895 820.3083 155.2695V743.6495C820.3083 794.4295 792.9683 820.3095 744.6283 820.3095ZM446.2883 681.1495C545.8983 681.1495 613.7683 619.1395 613.7683 524.8995C613.7683 438.4795 551.7583 378.4195 462.3983 378.4195C422.8483 378.4195 381.8383 395.9995 364.2583 420.4095H360.8383L372.0683 287.5995H566.8983C583.9883 287.5995 596.1883 274.8995 596.1883 257.3195C596.1883 239.7495 584.4683 227.5395 566.8983 227.5395H365.2383C333.4983 227.5395 312.4983 245.1195 310.0583 273.4395L296.8783 436.0395C294.9183 463.8695 311.0383 482.4195 338.3783 482.4195C356.4483 482.4195 367.1883 478.5195 386.2283 463.8695C409.6683 443.8495 428.2183 436.5195 453.6183 436.5195C505.3683 436.5195 540.0383 472.6595 540.0383 526.3695C540.0383 580.0795 499.5083 620.1195 445.3083 620.1195C405.2783 620.1195 371.0983 600.0995 354.9783 567.8695C346.1883 552.2495 334.4683 544.4295 320.3083 544.4295C300.7783 544.4295 287.5983 558.1095 287.5983 576.6595C287.5983 584.9595 289.5483 592.7695 292.4783 600.0995C312.0083 649.8995 368.6483 681.1495 446.2883 681.1495Z"/>
</svg>