<?xml version="1.0" encoding="UTF-8" standalone="no"?>
<svg xmlns="http://www.w3.org/2000/svg"
     width="996.09375" height="996.09375"
     viewBox="0 0 996.09375 996.09375"
     fill="currentColor">
  <path d="M498.0477 996.0959C770.5077 996.0959 996.0977 770.0159 996.0977 498.0459C996.0977 225.5859 770.0177 -0.0041 497.5577 -0.0041C225.5877 -0.0041 -0.0023 225.5859 -0.0023 498.0459C-0.0023 770.0159 226.0777 996.0959 498.0477 996.0959ZM498.0477 913.0859C267.5777 913.0859 83.4977 728.5159 83.4977 498.0459C83.4977 267.5759 267.0877 83.0059 497.5577 83.0059C728.0277 83.0059 913.0877 267.5759 913.0877 498.0459C913.0877 728.5159 728.5177 913.0859 498.0477 913.0859ZM671.3877 708.9859C755.3677 708.9859 811.0377 628.4159 811.0377 498.5359C811.0377 368.6559 755.3677 288.0859 671.3877 288.0859C586.9177 288.0859 531.2477 368.6559 531.2477 498.5359C531.2477 628.4159 586.9177 708.9859 671.3877 708.9859ZM335.4477 708.9859C421.3877 708.9859 479.0077 656.2459 479.0077 570.7959C479.0077 495.1159 427.7377 440.4259 352.5377 440.4259C319.8277 440.4259 284.6677 456.5459 270.0177 478.5159H268.0677L277.3477 353.0259H438.9677C452.6377 353.0259 462.8877 341.7959 462.8877 325.6859C462.8877 310.0559 453.1277 298.8259 438.9677 298.8259H270.9977C245.1177 298.8259 228.5177 314.4559 226.5577 339.8459L214.8477 492.1859C213.3777 518.0659 226.5577 534.6659 249.0277 534.6659C264.1577 534.6659 273.4377 530.7659 288.5777 517.5759C309.0777 500.4859 324.2177 493.1659 346.1877 493.1659C389.1577 493.1659 418.4577 526.8559 418.4577 571.7759C418.4577 623.0459 385.7377 653.8059 338.8677 653.8059C305.1777 653.8059 276.8577 636.2259 262.6977 606.9359C255.3677 592.7759 246.0977 585.9359 234.8677 585.9359C218.2577 585.9359 207.0277 598.1459 207.0277 614.2559C207.0277 622.5559 208.9877 629.8859 211.4277 636.2259C226.0777 676.7559 274.4177 708.9859 335.4477 708.9859ZM671.3877 649.9059C624.5077 649.9059 595.7077 592.2859 595.7077 498.5359C595.7077 404.7859 624.5077 347.1659 671.3877 347.1659C717.7777 347.1659 746.5777 404.7859 746.5777 498.5359C746.5777 592.2859 718.2577 649.9059 671.3877 649.9059Z"/>
</svg>