<?xml version="1.0" encoding="UTF-8" standalone="no"?>
<svg xmlns="http://www.w3.org/2000/svg"
     width="898.92578125" height="898.92578125"
     viewBox="0 0 898.92578125 898.92578125"
     fill="currentColor">
  <path d="M153.3183 898.9295H745.6083C848.1483 898.9295 898.9283 848.1495 898.9283 747.5595V151.3695C898.9283 50.7795 848.1483 -0.0005 745.6083 -0.0005H153.3183C51.2683 -0.0005 -0.0017 50.2895 -0.0017 151.3695V747.5595C-0.0017 848.6295 51.2683 898.9295 153.3183 898.9295ZM628.9083 666.4995C541.9883 666.4995 484.8683 583.4995 484.8683 449.2195C484.8683 314.9395 541.9883 231.9295 628.9083 231.9295C715.8183 231.9295 772.9483 314.9395 772.9483 449.2195C772.9483 583.4995 715.8183 666.4995 628.9083 666.4995ZM282.7183 666.4995C219.7283 666.4995 169.9183 633.2995 154.7883 591.3095C152.3483 584.9595 150.8783 577.1495 150.8783 568.3595C150.8783 551.7595 161.6183 539.0595 179.1983 539.0595C190.4283 539.0595 200.6883 546.3895 208.0083 561.0395C222.6583 591.3095 251.9483 609.3795 286.1283 609.3795C334.9583 609.3795 368.1683 577.6395 368.1683 524.8995C368.1683 478.5195 337.8883 443.8495 293.9483 443.8495C271.9683 443.8495 255.8583 451.1695 235.3483 468.7495C218.7483 482.4195 209.4683 486.8195 193.8483 486.8195C170.4083 486.8195 156.7383 469.2395 158.1983 442.3795L170.8983 285.6395C172.3683 259.2795 189.9383 243.1595 216.3083 243.1595H389.6483C404.2983 243.1595 414.0583 254.8795 414.0583 270.9995C414.0583 287.5995 403.8083 299.3195 389.6483 299.3195H223.1483L213.3783 428.7095H215.8183C230.4683 405.7595 266.5983 389.1595 300.2883 389.1595C378.4183 389.1595 430.6683 445.7995 430.6683 523.9295C430.6683 611.8195 371.5783 666.4995 282.7183 666.4995ZM628.9083 604.9795C677.2483 604.9795 706.5383 545.8995 706.5383 449.2195C706.5383 352.5395 676.7583 293.4595 628.9083 293.4595C581.0583 293.4595 551.2683 352.5395 551.2683 449.2195C551.2683 545.8995 581.0583 604.9795 628.9083 604.9795Z"/>
</svg>