<?xml version="1.0" encoding="UTF-8" standalone="no"?>
<svg xmlns="http://www.w3.org/2000/svg"
     width="996.09375" height="996.09375"
     viewBox="0 0 996.09375 996.09375"
     fill="currentColor">
  <path d="M498.0477 996.0959C770.5077 996.0959 996.0977 770.0159 996.0977 498.0459C996.0977 225.5859 770.0177 -0.0041 497.5577 -0.0041C225.5877 -0.0041 -0.0023 225.5859 -0.0023 498.0459C-0.0023 770.0159 226.0777 996.0959 498.0477 996.0959ZM499.0277 737.7959C394.5277 737.7959 323.2377 671.3859 323.2377 574.7059C323.2377 520.0159 345.2177 464.8459 397.4577 395.9959C423.3377 361.3259 454.0977 322.7559 486.8177 279.2959C494.6277 269.5359 504.8877 258.7859 520.5077 258.7859C545.4077 258.7859 555.1777 274.4159 555.1777 289.5459C555.1777 299.3159 550.7777 307.1259 543.4577 317.3859C518.5577 349.1259 485.8377 390.1359 459.9577 423.3359C444.3377 443.8459 437.9877 452.6359 432.6177 461.4259L437.9877 462.8859C454.5877 445.7959 489.7477 432.6159 523.4377 432.6159C611.3277 432.6159 673.8277 494.6259 673.8277 577.6359C673.8277 671.3859 603.0277 737.7959 499.0277 737.7959ZM499.0277 674.3159C559.0777 674.3159 603.0277 633.7859 603.0277 581.5459C603.0277 528.3159 559.0777 489.7459 498.5377 489.7459C439.4577 489.7459 394.5277 528.3159 394.5277 580.5659C394.5277 633.7859 439.9377 674.3159 499.0277 674.3159Z"/>
</svg>