<?xml version="1.0" encoding="UTF-8" standalone="no"?>
<svg xmlns="http://www.w3.org/2000/svg"
     width="898.92578125" height="898.92578125"
     viewBox="0 0 898.92578125 898.92578125"
     fill="currentColor">
  <path d="M153.3183 898.9295H745.6083C848.1483 898.9295 898.9283 848.1495 898.9283 747.5595V151.3695C898.9283 50.7795 848.1483 -0.0005 745.6083 -0.0005H153.3183C51.2683 -0.0005 -0.0017 50.2895 -0.0017 151.3695V747.5595C-0.0017 848.6295 51.2683 898.9295 153.3183 898.9295ZM154.2983 820.3095C105.4683 820.3095 78.6183 794.4295 78.6183 743.6495V155.2695C78.6183 104.4895 105.4683 78.6095 154.2983 78.6095H744.6283C792.9683 78.6095 820.3083 104.4895 820.3083 155.2695V743.6495C820.3083 794.4295 792.9683 820.3095 744.6283 820.3095ZM450.6883 681.1495C551.2683 681.1495 620.6083 616.6995 620.6083 525.8795C620.6083 445.3095 559.5683 385.2495 474.1183 385.2495C441.4083 385.2495 407.2283 397.9495 391.1183 414.5495L386.2283 413.0895C391.1183 404.7895 397.4583 395.9995 412.5983 376.4695C437.4983 344.2395 469.7283 304.1995 493.6483 273.4395C500.9783 263.6695 504.8783 255.8595 504.8783 246.5795C504.8783 231.9295 495.6083 216.7995 472.1683 216.7995C456.5383 216.7995 446.7783 227.0495 439.4483 236.8195C407.2283 278.8095 377.4383 316.4095 352.5383 350.0995C302.2483 416.4995 280.2783 470.2195 280.2783 522.9495C280.2783 616.6995 349.6083 681.1495 450.6883 681.1495ZM450.6883 619.6295C393.0683 619.6295 349.1183 580.5695 349.1183 528.8095C349.1183 478.0295 392.5783 440.4295 450.6883 440.4295C509.2783 440.4295 552.2483 478.0295 552.2483 529.7895C552.2483 580.5695 509.2783 619.6295 450.6883 619.6295Z"/>
</svg>