<?xml version="1.0" encoding="UTF-8" standalone="no"?>
<svg xmlns="http://www.w3.org/2000/svg"
     width="898.92578125" height="898.92578125"
     viewBox="0 0 898.92578125 898.92578125"
     fill="currentColor">
  <path d="M153.3183 898.9295H745.6083C848.1483 898.9295 898.9283 848.1495 898.9283 747.5595V151.3695C898.9283 50.7795 848.1483 -0.0005 745.6083 -0.0005H153.3183C51.2683 -0.0005 -0.0017 50.2895 -0.0017 151.3695V747.5595C-0.0017 848.6295 51.2683 898.9295 153.3183 898.9295ZM381.8383 687.9895C359.8683 687.9895 341.7983 672.8495 341.7983 651.3695C341.7983 641.1095 343.7483 634.2795 348.6283 625.4895L533.6883 286.6195V282.7195H319.8283C302.7383 282.7195 290.0383 269.5295 290.0383 251.4695C290.0383 232.9095 302.2483 220.2195 319.8283 220.2195H566.4083C599.1183 220.2195 621.0983 241.2095 621.0983 269.0395C621.0983 279.7895 619.1383 290.0395 608.8883 308.5895L421.3883 660.1595C411.6183 679.6895 399.4183 687.9895 381.8383 687.9895Z"/>
</svg>