<?xml version="1.0" encoding="UTF-8" standalone="no"?>
<svg xmlns="http://www.w3.org/2000/svg"
     width="996.09375" height="996.09375"
     viewBox="0 0 996.09375 996.09375"
     fill="currentColor">
  <path d="M498.0477 996.0959C770.5077 996.0959 996.0977 770.0159 996.0977 498.0459C996.0977 225.5859 770.0177 -0.0041 497.5577 -0.0041C225.5877 -0.0041 -0.0023 225.5859 -0.0023 498.0459C-0.0023 770.0159 226.0777 996.0959 498.0477 996.0959ZM498.0477 913.0859C267.5777 913.0859 83.4977 728.5159 83.4977 498.0459C83.4977 267.5759 267.0877 83.0059 497.5577 83.0059C728.0277 83.0059 913.0877 267.5759 913.0877 498.0459C913.0877 728.5159 728.5177 913.0859 498.0477 913.0859ZM496.5777 730.4659C600.0977 730.4659 670.8977 676.7559 670.8977 598.1459C670.8977 543.9459 631.3477 499.0259 572.7577 487.3059V484.3759C621.5777 470.2159 652.3477 431.1559 652.3477 383.7859C652.3477 313.9659 588.3777 265.6259 497.5577 265.6259C406.2477 265.6259 342.7777 313.9659 342.7777 383.7859C342.7777 431.1559 372.0677 469.2359 421.8777 484.3759V487.3059C363.2777 499.0259 323.7277 544.4359 323.7277 598.6359C323.7277 677.7359 393.0677 730.4659 496.5777 730.4659ZM497.5577 462.4059C448.7277 462.4059 414.0577 432.1259 414.0577 390.1359C414.0577 349.1259 448.7277 319.3359 497.5577 319.3359C546.3877 319.3359 580.5677 349.1259 580.5677 390.1359C580.5677 432.1259 545.8977 462.4059 497.5577 462.4059ZM498.0477 676.7559C439.9377 676.7559 397.9477 642.5759 397.9477 594.7259C397.9477 548.3359 440.4277 513.6759 498.0477 513.6759C556.1477 513.6759 597.1677 547.8559 597.1677 594.7259C597.1677 642.5759 555.1777 676.7559 498.0477 676.7559Z"/>
</svg>