<?xml version="1.0" encoding="UTF-8" standalone="no"?>
<svg xmlns="http://www.w3.org/2000/svg"
     width="898.92578125" height="898.92578125"
     viewBox="0 0 898.92578125 898.92578125"
     fill="currentColor">
  <path d="M153.3183 898.9295H745.6083C848.1483 898.9295 898.9283 848.1495 898.9283 747.5595V151.3695C898.9283 50.7795 848.1483 -0.0005 745.6083 -0.0005H153.3183C51.2683 -0.0005 -0.0017 50.2895 -0.0017 151.3695V747.5595C-0.0017 848.6295 51.2683 898.9295 153.3183 898.9295ZM448.7283 688.4795C341.7983 688.4795 270.0183 634.2795 270.0183 552.7295C270.0183 496.5795 311.0383 449.7095 371.5783 437.4995V434.5695C320.7983 418.9495 290.0383 379.8795 290.0383 331.5395C290.0383 258.7895 355.9583 208.9795 449.7083 208.9795C543.4583 208.9795 609.3783 258.7895 609.3783 331.5395C609.3783 379.8795 577.6383 419.9195 527.8283 434.5695V437.4995C587.8883 449.7095 628.9083 496.0895 628.9083 552.2495C628.9083 633.2995 556.1483 688.4795 448.7283 688.4795ZM449.7083 411.6195C499.5083 411.6195 535.1583 380.8595 535.1583 337.3995C535.1583 295.4095 499.9983 265.1395 449.7083 265.1395C399.4183 265.1395 364.2583 295.4095 364.2583 337.3995C364.2583 380.8595 399.4183 411.6195 449.7083 411.6195ZM450.1983 632.8095C508.7883 632.8095 552.2483 597.6595 552.2483 548.3395C552.2483 499.9995 510.2583 464.8395 450.1983 464.8395C391.5983 464.8395 347.1683 500.4895 347.1683 548.3395C347.1683 597.6595 391.1183 632.8095 450.1983 632.8095Z"/>
</svg>