<?xml version="1.0" encoding="UTF-8" standalone="no"?>
<svg xmlns="http://www.w3.org/2000/svg"
     width="996.09375" height="996.09375"
     viewBox="0 0 996.09375 996.09375"
     fill="currentColor">
  <path d="M498.0477 996.0959C770.5077 996.0959 996.0977 770.0159 996.0977 498.0459C996.0977 225.5859 770.0177 -0.0041 497.5577 -0.0041C225.5877 -0.0041 -0.0023 225.5859 -0.0023 498.0459C-0.0023 770.0159 226.0777 996.0959 498.0477 996.0959ZM332.5177 733.8859C309.5677 733.8859 294.9177 719.7259 294.9177 699.2159C294.9177 691.4059 295.8977 684.0859 300.2977 672.8559L441.4077 292.9659C451.6577 266.6059 470.2177 252.9259 497.5577 252.9259C525.3877 252.9259 544.4377 266.6059 554.1977 292.9659L695.7977 672.8559C699.7077 684.0859 701.1677 691.4059 701.1677 699.2159C701.1677 719.7259 686.0377 733.8859 663.5777 733.8859C645.0177 733.8859 632.3277 725.0959 624.5077 701.6559L587.8877 594.7259H408.2077L371.5777 701.6559C363.7677 725.5859 350.5877 733.8859 332.5177 733.8859ZM428.2277 533.6959H567.3877L500.4877 339.3559H495.1177Z"/>
</svg>