<?xml version="1.0" encoding="UTF-8" standalone="no"?>
<svg xmlns="http://www.w3.org/2000/svg"
     width="996.09375" height="996.09375"
     viewBox="0 0 996.09375 996.09375"
     fill="currentColor">
  <path d="M498.0477 996.0959C770.5077 996.0959 996.0977 770.0159 996.0977 498.0459C996.0977 225.5859 770.0177 -0.0041 497.5577 -0.0041C225.5877 -0.0041 -0.0023 225.5859 -0.0023 498.0459C-0.0023 770.0159 226.0777 996.0959 498.0477 996.0959ZM498.0477 913.0859C267.5777 913.0859 83.4977 728.5159 83.4977 498.0459C83.4977 267.5759 267.0877 83.0059 497.5577 83.0059C728.0277 83.0059 913.0877 267.5759 913.0877 498.0459C913.0877 728.5159 728.5177 913.0859 498.0477 913.0859ZM336.9177 728.0259C354.4877 728.0259 367.1877 719.7259 374.5077 696.7759L410.1577 592.7759H584.9577L620.6077 696.7759C627.9277 719.2359 640.1377 728.0259 658.2077 728.0259C679.6877 728.0259 694.3377 713.8659 694.3377 694.3359C694.3377 686.5259 692.3877 679.6859 688.9677 668.9459L551.7577 300.2959C542.4777 274.9059 523.9277 261.7159 497.0677 261.7159C470.7077 261.7159 452.6377 274.9059 442.8677 300.2959L306.1477 668.9459C302.2477 679.6859 300.7777 686.5259 300.7777 693.8459C300.7777 714.3559 314.9377 728.0259 336.9177 728.0259ZM429.6877 534.1759L494.6277 345.2159H499.9977L564.9377 534.1759Z"/>
</svg>