<?xml version="1.0" encoding="UTF-8" standalone="no"?>
<svg xmlns="http://www.w3.org/2000/svg"
     width="1176.26953125" height="946.2890625"
     viewBox="0 0 1176.26953125 946.2890625"
     fill="currentColor">
  <path d="M703.1283 946.2936C961.4283 946.2936 1176.2683 731.4436 1176.2683 473.1436C1176.2683 214.8436 960.9383 0.0036 702.6383 0.0036C555.1783 0.0036 421.8783 69.8236 334.9583 178.2236C316.4083 174.8036 296.3883 173.3436 275.3883 173.3436C166.9883 173.3436 76.1683 223.6336 41.5083 297.8536C34.1783 312.5036 29.7883 327.6336 29.7883 339.8436C29.7883 364.7436 46.3883 380.8636 69.8283 380.8636C87.3983 380.8636 99.6083 373.5336 107.4183 357.4236C140.6283 284.1836 194.8283 252.9336 273.4383 252.9336C277.8283 252.9336 281.7383 252.9336 285.6483 252.9336C251.9483 315.4336 232.4183 385.7436 230.4683 460.4536C83.0083 473.1436 -0.0017 537.5936 -0.0017 646.9736C-0.0017 760.2536 86.4283 836.4236 212.8883 836.4236C265.1383 836.4236 314.9383 819.8236 355.4683 791.5036C442.3783 886.2336 566.4083 946.2936 703.1283 946.2936ZM835.9383 340.8236C835.9383 208.9836 759.7683 115.7236 629.8783 85.9336C653.3183 81.5436 677.7383 79.1036 702.6383 79.1036C921.8783 79.1036 1096.1883 253.9036 1097.1683 473.1436C1097.6583 645.5036 988.7683 790.5236 835.9383 844.7236ZM310.0583 473.1436C310.0583 356.4436 358.8883 252.4436 437.9883 180.6636C464.8483 173.3436 494.1383 169.9236 528.8083 169.9236C652.3483 169.9236 725.5883 237.7936 725.5883 352.0536V423.8236L474.6083 438.9636C409.1783 443.3636 353.5183 456.5436 310.0583 479.0036C310.0583 477.0536 310.0583 475.0936 310.0583 473.1436ZM488.2783 524.4136L725.5883 508.7936V594.7236C725.5883 710.4536 634.2783 803.2236 512.2083 818.3636C423.3383 769.0436 355.9583 687.0136 326.6583 587.4036C358.8883 551.2736 414.0583 529.7836 488.2783 524.4136ZM91.7983 645.9936C91.7983 581.5436 142.5783 539.5536 233.8883 531.2536C243.6483 608.8836 272.9483 681.1536 315.9183 742.6736C290.5283 753.4136 262.6983 759.2736 232.4183 759.2736C148.9283 759.2736 91.7983 714.3536 91.7983 645.9936ZM703.1283 866.7036C680.6683 866.7036 658.6883 865.2336 637.2083 861.3236C675.7783 837.4036 706.5383 805.6636 725.0983 769.0436H731.4483V865.7236C722.1683 866.7036 712.8883 866.7036 703.1283 866.7036Z"/>
</svg>