<?xml version="1.0" encoding="UTF-8" standalone="no"?>
<svg xmlns="http://www.w3.org/2000/svg"
     width="898.92578125" height="898.92578125"
     viewBox="0 0 898.92578125 898.92578125"
     fill="currentColor">
  <path d="M153.3183 898.9295H745.6083C848.1483 898.9295 898.9283 848.1495 898.9283 747.5595V151.3695C898.9283 50.7795 848.1483 -0.0005 745.6083 -0.0005H153.3183C51.2683 -0.0005 -0.0017 50.2895 -0.0017 151.3695V747.5595C-0.0017 848.6295 51.2683 898.9295 153.3183 898.9295ZM284.1783 684.5695C261.7183 684.5695 246.5783 670.4095 246.5783 649.8995C246.5783 642.0895 248.0483 634.7695 251.9483 623.5395L393.0683 243.6495C403.3183 217.2895 421.8783 203.6095 449.2183 203.6095C477.0483 203.6095 496.0983 217.2895 506.3483 243.6495L647.4583 623.5395C651.3683 634.7695 652.8283 642.0895 652.8283 649.8995C652.8283 670.4095 637.6983 684.5695 615.2383 684.5695C597.1683 684.5695 583.9883 675.7795 576.1683 652.3395L539.5483 545.4095H359.8683L323.2383 652.3395C315.4283 676.2695 302.2483 684.5695 284.1783 684.5695ZM379.8783 484.3795H519.5283L452.1483 290.0395H447.2683Z"/>
</svg>