<?xml version="1.0" encoding="UTF-8" standalone="no"?>
<svg xmlns="http://www.w3.org/2000/svg"
     width="1493.1640625" height="818.359375"
     viewBox="0 0 1493.1640625 818.359375"
     fill="currentColor">
  <path d="M1291.5083 818.3622C1425.7783 818.3622 1493.1683 724.1222 1493.1683 597.1722C1493.1683 480.9522 1440.9183 425.2922 1335.9383 370.6022L1296.3883 349.6122C1234.3783 316.8922 1191.4083 279.2922 1191.4083 205.5622C1191.4083 139.6522 1223.1483 83.0122 1287.5983 83.0122C1349.6083 83.0122 1384.7683 133.7922 1395.0183 199.7022C1399.4183 225.5822 1417.9683 236.3322 1438.9683 236.3322C1463.3783 236.3322 1478.5183 217.7722 1478.5183 193.3622C1478.5183 125.0022 1421.3883 0.0022 1287.5983 0.0022C1171.8783 0.0022 1099.6083 91.7922 1099.6083 211.9122C1099.6083 324.7022 1157.2283 383.7922 1255.3683 435.0622L1295.8983 455.5622C1362.3083 490.7222 1401.8583 529.2922 1401.8583 604.4922C1401.8583 677.2422 1365.7183 735.3522 1293.4583 735.3522C1226.0783 735.3522 1187.4983 680.6622 1177.2483 611.8122C1172.3683 584.9622 1152.3483 575.1922 1133.7883 575.1922C1107.9083 575.1922 1093.7483 595.7022 1093.7483 622.5622C1093.7483 696.2922 1152.3483 818.3622 1291.5083 818.3622ZM44.4383 814.4522C70.3083 814.4522 85.9383 800.7822 91.3083 774.9022L129.8783 597.6522H339.3583L378.9083 775.3922C384.2783 801.2722 400.3883 814.4522 426.2683 814.4522C451.1683 814.4522 471.1883 796.3822 471.1883 771.4822C471.1883 767.0922 470.2183 761.7222 469.2383 757.3222L307.6183 68.8522C298.8283 30.2722 274.8983 4.3922 234.8683 4.3922C192.8683 4.3922 172.3683 28.8122 163.0883 69.3322L3.9083 747.5622C1.9483 754.3922 -0.0017 765.1322 -0.0017 771.4822C-0.0017 799.3122 18.0683 814.4522 44.4383 814.4522ZM626.4683 803.2222H795.8983C922.3683 803.2222 991.6983 715.8222 991.6983 584.4722C991.6983 495.1122 949.7083 403.3222 860.8383 390.1322V386.2322C929.6883 369.6322 966.3083 281.7422 966.3083 210.9422C966.3083 98.6322 902.3483 15.1322 792.4783 15.1322H626.4683C596.6783 15.1322 581.0583 35.6422 581.0583 64.9422V753.9022C581.0583 781.2522 594.7283 803.2222 626.4683 803.2222ZM672.3683 358.8822V96.1922H768.5583C842.2883 96.1922 874.0283 148.9222 874.0283 222.6522C874.0283 303.2222 836.9183 358.8822 756.8383 358.8822ZM146.4883 519.5322L231.4483 126.4622H235.8383L322.2683 519.5322ZM672.3683 722.6522V436.0322H767.5783C855.4683 436.0322 896.9683 491.7022 896.9683 579.1022C896.9683 663.5722 858.8883 722.6522 772.9483 722.6522Z"/>
</svg>