<?xml version="1.0" encoding="UTF-8" standalone="no"?>
<svg xmlns="http://www.w3.org/2000/svg"
     width="1393.5546875" height="952.1484375"
     viewBox="0 0 1393.5546875 952.1484375"
     fill="currentColor">
  <path d="M696.7777 952.1533C957.0277 952.1533 1173.3377 736.3233 1173.3377 476.0733C1173.3377 215.8233 957.0277 0.0033 696.2877 0.0033C436.0377 0.0033 220.7077 215.3333 220.7077 476.0733C220.7077 736.3233 436.5277 952.1533 696.7777 952.1533ZM1393.5577 476.0733C1393.5577 321.2933 1343.7477 178.7133 1258.2977 62.9833C1243.1677 42.4833 1217.2877 40.0433 1197.7577 55.6633C1179.6877 70.8033 1178.2277 94.7233 1191.8977 113.2833C1266.5977 215.3333 1310.0577 340.3333 1310.0577 476.0733C1310.0577 611.3233 1266.5977 736.8133 1191.8977 837.8933C1178.2277 857.4233 1180.1777 880.8633 1197.7577 895.9933C1217.2877 911.6233 1243.1677 909.6633 1258.2977 888.6733C1343.7477 772.9533 1393.5577 630.8633 1393.5577 476.0733ZM-0.0023 476.0733C-0.0023 630.8633 50.2977 772.9533 135.2577 888.6733C150.3877 909.6633 176.2677 911.6233 195.7977 895.9933C213.3777 880.8633 215.8177 857.4233 201.6577 837.8933C127.4377 736.8133 83.4977 611.3233 83.4977 476.0733C83.4977 340.3333 127.4377 215.3333 201.6577 113.2833C215.8177 94.7233 213.8677 70.8033 195.7977 55.6633C176.2677 40.0433 150.3877 42.4833 135.2577 62.9833C50.2977 178.7133 -0.0023 321.2933 -0.0023 476.0733ZM696.7777 869.1433C479.0077 869.1433 304.1977 694.3333 304.1977 476.0733C304.1977 257.3233 478.5177 82.5233 696.2877 82.5233C914.5477 82.5233 1089.8477 257.3233 1090.3277 476.0733C1090.8177 693.8433 915.5277 869.1433 696.7777 869.1433ZM914.0577 626.9533C964.8477 626.9533 999.9977 597.1633 999.9977 541.0133C999.9977 501.4633 984.3777 478.5133 943.3577 457.5233L926.2677 448.7333C904.7877 437.9833 890.6277 427.2433 890.6277 403.8133C890.6277 387.6933 897.4577 372.5633 914.0577 372.5633C930.1777 372.5633 939.4577 387.2033 941.8977 402.8333C944.3377 415.0433 955.0777 422.3633 969.7277 422.3633C984.8677 422.3633 994.1377 412.1133 994.1377 396.9733C994.1377 391.1133 993.1677 384.7633 990.2377 378.4133C980.9577 349.1233 953.1277 324.7033 914.0577 324.7033C864.7477 324.7033 831.5477 356.9333 831.5477 409.1833C831.5477 450.6833 852.5377 474.6133 887.6977 492.6733L905.2777 501.4633C925.7777 511.7233 941.4077 521.9733 941.4077 545.9033C941.4077 564.9433 932.1277 579.1033 915.0377 579.1033C898.4377 579.1033 889.1577 566.4033 885.7377 550.2933C880.8577 533.6933 869.6277 528.8133 857.4177 528.8133C844.2377 528.8133 832.0277 539.5533 832.0277 555.6633C832.0277 560.5433 833.0077 566.8933 834.4777 571.7733C844.7277 606.9333 871.5777 626.9533 914.0577 626.9533ZM420.4077 625.0033C438.9677 625.0033 446.7777 615.2333 450.1977 596.6833L457.5177 559.5733H520.0177L527.8277 597.6533C531.2477 615.7233 540.5277 625.0033 558.5977 625.0033C575.6877 625.0033 586.9177 612.7933 586.9177 595.7033C586.9177 590.8233 585.4477 581.5433 584.4777 576.1733L536.1377 364.7433C530.2777 336.9133 512.6977 327.1533 488.2777 327.1533C464.3577 327.1533 447.7577 338.8633 442.3877 364.7433L395.0177 576.1733C392.5777 585.4533 392.0877 590.8233 392.0877 595.7033C392.0877 613.2833 403.3177 625.0033 420.4077 625.0033ZM654.7877 620.6033H726.5577C773.4377 620.6033 799.3177 585.4533 799.3177 538.0833C799.3177 503.9033 778.3177 469.7233 747.5577 468.7533V466.3133C774.8977 461.9133 792.9677 431.6433 792.9677 403.3233C792.9677 366.7033 773.4377 331.5433 724.1177 331.5433H654.7877C634.2777 331.5433 624.5077 343.2633 624.5077 363.2833V588.3833C624.5077 607.9133 635.2577 620.6033 654.7877 620.6033ZM684.0777 452.1533V375.4833H706.0577C727.5377 375.4833 735.3477 391.6033 735.3477 413.0833C735.3477 435.5433 725.5877 452.1533 703.1277 452.1533ZM464.8477 515.6233L487.3077 396.4833H488.7677L512.2077 515.6233ZM684.0777 576.6633V490.7233H705.0777C728.5177 490.7233 738.7677 509.2733 738.7677 533.2033C738.7677 556.6433 729.0077 576.6633 705.5677 576.6633Z"/>
</svg>