<?xml version="1.0" encoding="UTF-8" standalone="no"?>
<svg xmlns="http://www.w3.org/2000/svg"
     width="1393.5546875" height="1132.5080745501918"
     viewBox="0 0 1393.5546875 1132.5080745501918"
     fill="currentColor">
  <path d="M1201.6577 1121.5202C1216.3077 1136.1702 1240.7277 1136.1702 1254.8877 1121.5202C1269.5277 1106.8702 1269.5277 1082.9502 1254.8877 1068.3002L197.7577 11.1702C183.1077 -3.4798 159.1777 -3.9698 144.0477 11.1702C129.8877 25.3302 129.8877 49.7402 144.0477 64.3902ZM696.2877 171.3302C914.5477 171.3302 1090.3277 346.1302 1090.3277 564.8802C1090.3277 635.1902 1071.2877 701.1102 1039.0577 757.7502L1098.1477 817.3202C1145.5077 744.5702 1173.3377 657.1702 1173.3377 564.8802C1173.3377 304.6302 957.0277 88.8102 696.2877 88.8102C604.0077 88.8102 517.0877 116.1502 444.3377 163.0302L503.9077 223.0802C560.5477 190.3702 625.9777 171.3302 696.2877 171.3302ZM1197.7577 144.4702C1179.6877 159.6102 1178.2277 183.5302 1191.8977 202.5802C1266.5977 304.1402 1310.0577 429.1402 1310.0577 564.8802C1310.0577 694.7602 1269.5277 815.3702 1200.6877 914.4902L1260.7377 974.5502C1346.6777 855.4102 1393.5577 716.2502 1393.5577 564.8802C1393.5577 410.1002 1343.7477 267.5202 1258.2977 151.7902C1243.1677 131.2902 1217.2877 128.3602 1197.7577 144.4702ZM195.7977 984.8002C213.3777 969.6702 215.8177 946.2302 201.6577 926.7002C127.4377 825.6202 83.4977 700.1302 83.4977 564.8802C83.4977 433.5302 124.5077 312.9302 194.3377 213.3202L134.2777 153.2602C48.3377 270.9402 -0.0023 413.5102 -0.0023 564.8802C-0.0023 719.6702 50.2977 861.7602 135.2577 977.4802C150.3877 998.4702 176.2677 1000.4302 195.7977 984.8002ZM696.7777 1040.9602C790.0377 1040.9602 877.4377 1013.1202 951.1677 965.2702L891.5977 906.1902C834.4777 938.9002 768.0677 957.9502 696.7777 957.9502C479.0077 957.9502 304.1977 783.1402 304.1977 564.8802C304.1977 493.5902 322.7577 427.1902 355.9577 370.5402L295.8977 310.0002C248.5377 384.2202 220.7077 471.6202 220.7077 564.8802C220.7077 825.1302 436.5277 1040.9602 696.7777 1040.9602ZM947.7577 657.6502L984.3777 694.2802C1006.8377 679.6302 1020.5077 656.1902 1020.5077 624.9402C1020.5077 573.6702 987.7977 554.1402 935.5477 533.1402C907.2277 521.9102 891.1177 513.1202 891.1177 489.2002C891.1177 469.1802 904.2977 456.4802 925.7777 456.4802C946.2877 456.4802 958.0077 467.7102 961.4277 486.2702C964.8477 498.4702 975.5877 504.3302 986.8177 504.3302C1000.4877 504.3302 1014.1577 496.0302 1014.1577 479.9202C1014.1577 476.0102 1013.6677 472.1102 1012.6977 468.2002C1004.3977 435.4902 974.6077 409.6102 925.2977 409.6102C870.1177 409.6102 833.4977 443.3002 833.4977 492.6202C833.4977 542.4202 866.2077 562.4402 905.2777 578.0602C943.3577 592.2202 964.3577 604.9202 964.3577 629.3302C964.3577 642.0302 958.0077 652.2802 947.7577 657.6502ZM402.8277 709.9002C414.5477 709.9002 426.7577 703.0602 429.6877 690.3702L441.4077 639.1002H515.6277L527.3477 690.3702C530.2777 703.0602 542.9677 709.4102 554.6877 709.4102C574.2177 709.4102 587.3977 694.2802 581.5477 671.8102L556.6377 580.0202L487.3077 510.6802L507.3277 597.1102H450.1977L473.1477 496.5202L433.5977 456.4802L375.4877 671.8102C370.1177 692.8102 380.8577 709.9002 402.8277 709.9002Z"/>
</svg>