<?xml version="1.0" encoding="UTF-8" standalone="no"?>
<svg xmlns="http://www.w3.org/2000/svg"
     width="996.09375" height="996.09375"
     viewBox="0 0 996.09375 996.09375"
     fill="currentColor">
  <path d="M498.0477 996.0959C770.5077 996.0959 996.0977 770.0159 996.0977 498.0459C996.0977 225.5859 770.0177 -0.0041 497.5577 -0.0041C225.5877 -0.0041 -0.0023 225.5859 -0.0023 498.0459C-0.0023 770.0159 226.0777 996.0959 498.0477 996.0959ZM722.6577 653.3159C678.7077 653.3159 650.8777 632.8159 640.6277 596.6759C638.6677 591.7959 638.1877 584.9559 638.1877 580.0759C638.1877 563.4759 650.3877 552.2459 664.0577 552.2459C676.2677 552.2459 688.4777 557.1259 693.3577 574.7059C697.2677 590.8159 706.5477 604.0059 723.6377 604.0059C740.7277 604.0059 749.9977 589.3559 749.9977 569.8259C749.9977 545.4059 734.3777 534.6659 713.3777 524.4159L695.3077 515.1359C659.1777 496.5859 637.2077 472.1659 637.2077 429.1959C637.2077 375.4859 671.8777 342.2859 722.6577 342.2859C762.6977 342.2859 791.5077 367.1859 801.2677 397.4559C804.1977 403.8059 805.1777 410.6459 805.1777 416.5059C805.1777 432.1259 795.4077 442.8759 779.7877 442.8759C764.6477 442.8759 753.4177 435.5459 750.9777 422.8559C748.0477 406.7359 739.2577 391.6059 722.6577 391.6059C705.5677 391.6059 698.7277 407.2259 698.7277 423.8259C698.7277 447.7559 713.3777 458.9859 735.3477 469.7259L752.9277 479.0059C794.9177 500.4859 811.0377 523.9259 811.0377 564.9459C811.0377 622.5559 774.4177 653.3159 722.6577 653.3159ZM213.8677 651.3659C195.7977 651.3659 184.5677 639.1559 184.5677 621.0959C184.5677 616.2059 185.0577 610.3559 187.0077 600.5859L235.8377 383.7859C241.6977 356.9359 258.7877 344.7259 283.6877 344.7259C309.0777 344.7259 327.1477 354.9759 333.0077 383.7859L382.3277 600.5859C383.7877 606.4459 385.2577 616.2059 385.2577 621.0959C385.2577 638.6759 373.5377 651.3659 355.9577 651.3659C337.3977 651.3659 327.6377 641.6059 324.2177 623.0459L316.4077 584.4759H251.9577L244.6277 622.0659C241.2077 641.1159 232.9077 651.3659 213.8677 651.3659ZM455.5677 646.9759C435.0577 646.9759 423.8277 633.7859 423.8277 613.2859V382.3259C423.8277 361.3259 434.0777 349.1259 455.5677 349.1259H526.8577C577.6377 349.1259 597.6577 385.2559 597.6577 423.3359C597.6577 452.1459 579.0977 483.3959 550.7777 487.7959V490.7259C582.5177 491.6959 604.4877 526.8559 604.4877 562.0159C604.4877 610.8359 577.6377 646.9759 529.2977 646.9759ZM485.8377 473.1459H504.8877C528.3177 473.1459 538.0877 456.5459 538.0877 433.1059C538.0877 411.1359 530.2777 394.5359 508.2977 394.5359H485.8377ZM259.7677 538.5759H308.1077L284.1777 416.5059H282.7177ZM485.8377 601.5659H507.8077C531.7377 601.5659 541.5077 581.0559 541.5077 556.6359C541.5077 532.2259 531.2477 513.1859 507.3277 513.1859H485.8377Z"/>
</svg>