<?xml version="1.0" encoding="UTF-8" standalone="no"?>
<svg xmlns="http://www.w3.org/2000/svg"
     width="1173.33984375" height="1152.9806185435364"
     viewBox="0 0 1173.33984375 1152.9806185435364"
     fill="currentColor">
  <path d="M-0.0017 110.8423V413.5723C-0.0017 480.9523 42.9683 524.4123 108.8883 524.4123H1064.4483C1130.3683 524.4123 1173.3383 480.9523 1173.3383 413.5723V110.8423C1173.3383 43.4523 1130.3683 0.0023 1064.4483 0.0023H108.8883C42.9683 0.0023 -0.0017 43.4523 -0.0017 110.8423ZM78.6183 112.3023C78.6183 91.3123 91.7983 78.6123 113.2783 78.6123H1060.0583C1081.5383 78.6123 1094.7283 91.3123 1094.7283 112.3023V412.1123C1094.7283 433.1023 1081.5383 445.8023 1060.0583 445.8023H113.2783C91.7983 445.8023 78.6183 433.1023 78.6183 412.1123ZM786.1283 271.4823C786.1283 284.6723 797.3683 295.9023 811.0383 295.9023H1003.9083C1017.5783 295.9023 1028.8083 284.6723 1028.8083 271.4823C1028.8083 257.3223 1017.5783 246.0923 1003.9083 246.0923H811.0383C797.3683 246.0923 786.1283 257.3223 786.1283 271.4823ZM467.2883 271.4823C467.2883 284.6723 478.0283 295.9023 492.1883 295.9023H685.0583C698.2383 295.9023 709.4683 284.6723 709.4683 271.4823C709.4683 257.3223 698.2383 246.0923 685.0583 246.0923H492.1883C478.0283 246.0923 467.2883 257.3223 467.2883 271.4823ZM147.4583 271.4823C147.4583 284.6723 158.6883 295.9023 171.8783 295.9023H364.7483C378.9083 295.9023 389.6483 284.6723 389.6483 271.4823C389.6483 257.3223 378.9083 246.0923 364.7483 246.0923H171.8783C158.6883 246.0923 147.4583 257.3223 147.4583 271.4823ZM786.1283 372.0723C786.1283 385.7423 797.3683 396.4823 811.0383 396.4823H1003.9083C1017.5783 396.4823 1028.8083 385.7423 1028.8083 372.0723C1028.8083 357.9123 1017.5783 347.1723 1003.9083 347.1723H811.0383C797.3683 347.1723 786.1283 357.9123 786.1283 372.0723ZM467.2883 372.0723C467.2883 385.7423 478.0283 396.4823 492.1883 396.4823H685.0583C698.2383 396.4823 709.4683 385.7423 709.4683 372.0723C709.4683 357.9123 698.2383 347.1723 685.0583 347.1723H492.1883C478.0283 347.1723 467.2883 357.9123 467.2883 372.0723ZM147.4583 372.0723C147.4583 385.7423 158.6883 396.4823 171.8783 396.4823H364.7483C378.9083 396.4823 389.6483 385.7423 389.6483 372.0723C389.6483 357.9123 378.9083 347.1723 364.7483 347.1723H171.8783C158.6883 347.1723 147.4583 357.9123 147.4583 372.0723ZM645.5083 717.2823C645.5083 847.6523 751.4683 915.5223 751.4683 1029.2923C751.4683 1055.6623 746.0983 1077.6323 730.4683 1105.4723C720.6983 1123.0423 727.5383 1138.6723 738.7683 1146.9723C752.9283 1156.2523 774.4183 1155.7623 786.6183 1133.7923C805.6683 1101.5623 814.9383 1066.4023 814.9383 1029.2923C814.9383 896.4823 708.4983 829.1023 708.4983 717.2823C708.4983 690.9223 714.3583 668.9423 730.4683 640.1323C739.7483 623.5323 733.3983 607.4223 720.6983 599.1223C707.0283 590.8223 685.5483 591.3123 673.8283 611.8123C653.8083 644.0423 645.5083 680.1723 645.5083 717.2823ZM358.3983 717.2823C358.3983 847.6523 464.3583 915.5223 464.3583 1029.2923C464.3583 1055.6623 458.9883 1077.6323 442.8683 1105.4723C433.1083 1123.0423 440.4283 1138.6723 451.6583 1146.9723C465.8183 1156.2523 487.3083 1155.7623 499.5083 1133.7923C518.5583 1101.5623 527.8283 1066.4023 527.8283 1029.2923C527.8283 896.4823 421.3883 829.1023 421.3883 717.2823C421.3883 690.9223 427.2483 668.9423 442.8683 640.1323C452.6383 623.5323 445.7983 607.4223 433.5983 599.1223C419.9183 590.8223 397.9483 591.3123 386.2283 611.8123C366.6983 644.0423 358.3983 680.1723 358.3983 717.2823ZM501.9483 717.7723C501.9483 847.6523 607.9083 916.0123 607.9083 1029.2923C607.9083 1056.1523 602.5383 1078.1223 586.4283 1105.9523C577.1483 1123.0423 583.9883 1139.1623 595.2183 1147.4623C609.3783 1156.2523 630.8583 1156.2523 643.0683 1134.7623C662.1083 1102.0523 671.3883 1066.4023 671.3883 1029.2923C671.3883 896.9723 564.9383 829.5923 564.9383 717.7723C564.9383 690.9223 570.7983 668.9423 586.4283 640.6223C596.1883 624.0223 589.8483 607.4223 577.1483 599.1223C563.4783 590.8223 541.5083 591.3123 530.2783 612.3023C510.2583 644.5323 501.9483 680.6623 501.9483 717.7723ZM797.3683 739.7423C797.3683 750.4923 806.6383 758.3023 817.8683 757.3223L858.3983 754.8823L835.4483 788.5723C830.0783 796.8723 832.0283 809.5723 841.3083 815.4323C850.5883 821.7723 863.2783 817.3823 867.6783 806.6423L885.7383 770.0223L904.2983 807.6123C909.1783 816.8923 920.8983 821.2923 930.6683 815.9223C939.4483 811.0323 942.3783 797.3623 936.0383 788.0823L913.0883 754.8823L953.6183 757.8123C964.3583 758.7923 974.1183 750.9723 974.1183 739.7423C974.1183 728.0223 965.3283 720.2123 954.0983 721.1923L912.5983 723.6323L936.0383 689.4523C941.8983 680.1723 940.4283 668.4523 930.6683 663.0823C920.8983 657.7123 909.1783 661.1323 904.2983 670.9023L885.7383 707.5223L868.1683 671.3823C863.7683 661.1323 851.5583 656.7423 841.3083 662.6023C832.0283 667.4823 829.5883 680.1723 835.4483 689.4523L858.3983 723.6323L817.8683 721.6823C806.1483 721.1923 797.3683 728.5123 797.3683 739.7423ZM203.1283 1006.3523C203.1283 1017.5823 211.9183 1025.8823 223.1483 1024.9023L264.1583 1022.4623L240.7183 1056.6423C234.8683 1065.4323 236.8183 1077.6323 246.0983 1082.5223C256.3483 1088.3823 268.0683 1084.4723 272.4583 1074.7023L291.0183 1038.0823L309.5683 1074.2223C313.4783 1084.9623 325.6883 1088.8623 335.9383 1083.4923C345.2183 1078.6123 347.6583 1065.4323 341.7983 1056.6423L318.8483 1022.4623L359.3783 1024.4123C370.6083 1024.9023 379.3983 1017.0923 379.3983 1006.3523C379.3983 995.6023 370.1183 987.7923 359.3783 988.7723L318.3583 991.2123L341.3083 957.5223C346.6783 949.2223 344.7283 936.5223 335.9383 930.6623C326.6583 924.3123 313.4783 928.7123 309.0783 939.4523L291.0183 975.5823L272.4583 938.4723C267.5783 929.2023 256.3483 924.8023 246.0983 930.1723C237.3083 935.0623 234.3783 948.7323 240.7183 958.0123L263.6683 991.2123L223.6283 988.2823C212.8883 987.3023 203.1283 995.1123 203.1283 1006.3523Z"/>
</svg>