<?xml version="1.0" encoding="UTF-8" standalone="no"?>
<svg xmlns="http://www.w3.org/2000/svg"
     width="955.7442846039701" height="1147.94921875"
     viewBox="0 0 955.7442846039701 1147.94921875"
     fill="currentColor">
  <path d="M141.5983 1147.9478C165.0383 1147.9478 180.6683 1131.8378 180.6683 1108.3978V1062.0078H561.0383V1108.3978C561.0383 1131.8378 576.6583 1147.9478 600.0983 1147.9478C624.0283 1147.9478 639.6483 1131.8378 639.6483 1108.3978V1057.1278C707.0283 1042.4778 741.6983 993.6478 741.6983 913.0878V442.3778C769.5283 429.6878 798.8283 420.8978 832.0283 420.8978C858.3983 420.8978 880.3683 426.2678 908.6883 441.8978C926.2683 451.6578 941.8983 444.8278 949.7083 433.5978C958.9883 419.4378 958.4983 397.9478 937.0083 385.7378C904.2983 366.6978 869.1383 357.4178 832.0283 357.4178C798.3383 357.4178 768.5583 364.2578 741.6983 374.5078V442.3778C673.3383 473.6278 612.7883 526.8578 520.0183 526.8578C482.9083 526.8578 447.2683 518.5578 415.0383 498.5378C394.5283 486.8178 393.5583 465.3278 402.3483 451.6578C410.1583 438.9678 426.7583 432.6178 443.3583 441.8978C471.6783 458.0078 493.6483 463.8678 520.0183 463.8678C603.5183 463.8678 662.1083 404.7878 741.6983 374.5078V306.6378C769.5283 293.9478 798.8283 284.6678 832.0283 284.6678C858.8883 284.6678 880.8583 290.0378 909.1783 306.1478C926.2683 315.9178 942.3783 309.0778 950.1983 297.3678C958.9883 283.6878 958.9883 261.7178 937.9883 249.5078C904.7883 230.4678 869.1383 221.1878 832.0283 221.1878C798.3383 221.1878 768.5583 228.0278 741.6983 238.7678V306.6378C673.8283 337.8878 612.7883 391.1178 520.5083 391.1178C483.3983 391.1178 447.7583 382.3278 415.5283 362.7978C394.5283 351.0778 393.5583 329.5878 402.3483 315.9178C410.1583 303.2178 427.2483 296.3878 443.8483 306.1478C471.6783 321.7778 493.6483 328.1278 520.5083 328.1278C604.0083 328.1278 662.5983 269.0478 741.6983 238.7678V170.4078C769.5283 157.7178 798.8283 148.9278 832.0283 148.9278C858.3983 148.9278 880.3683 154.2978 908.6883 169.9178C926.2683 179.6878 941.8983 172.8478 949.7083 161.6178C958.9883 147.4578 958.4983 125.9778 937.0083 113.7678C904.2983 94.7278 869.1383 85.4478 832.0283 85.4478C796.3883 85.4478 765.6283 92.7778 737.3083 104.0078C740.2383 117.6778 741.6983 132.3278 741.6983 148.4378V170.4078C673.3383 201.6578 612.7883 254.8778 520.0183 254.8778C482.9083 254.8778 447.2683 246.5778 415.0383 226.5578C394.5283 214.8478 393.5583 193.3578 402.3483 179.6878C410.1583 166.9878 426.7583 160.6478 443.3583 169.9178C471.6783 186.0378 493.6483 191.8978 520.0183 191.8978C602.0483 191.8978 660.1583 134.7678 737.3083 104.0078C723.6283 35.1578 673.8283 -0.0022 591.3083 -0.0022H150.8783C52.2483 -0.0022 -0.0017 49.8078 -0.0017 148.4378V913.0878C-0.0017 993.6478 34.6683 1042.4778 102.0483 1057.1278V1108.3978C102.0483 1131.8378 118.1683 1147.9478 141.5983 1147.9478ZM197.7583 270.5078C158.6883 270.5078 126.9483 238.2778 126.9483 198.7278C126.9483 160.1578 158.6883 128.4178 197.7583 128.4178C236.8183 128.4178 269.0383 160.1578 269.0383 198.7278C269.0383 238.2778 236.8183 270.5078 197.7583 270.5078ZM155.7583 679.1978C138.1883 679.1978 124.0283 665.5278 124.0283 647.4578C124.0283 629.8778 138.1883 615.7178 155.7583 615.7178H302.2483C320.3083 615.7178 334.4683 629.8778 334.4683 647.4578C334.4683 665.5278 320.3083 679.1978 302.2483 679.1978ZM439.4483 679.1978C421.3883 679.1978 407.2283 665.5278 407.2283 647.4578C407.2283 629.8778 421.3883 615.7178 439.4483 615.7178H585.9383C603.5183 615.7178 617.6783 629.8778 617.6783 647.4578C617.6783 665.5278 603.5183 679.1978 585.9383 679.1978ZM155.7583 805.1778C138.1883 805.1778 124.0283 791.5078 124.0283 773.4378C124.0283 755.3678 138.1883 741.6978 155.7583 741.6978H302.2483C320.3083 741.6978 334.4683 755.3678 334.4683 773.4378C334.4683 791.5078 320.3083 805.1778 302.2483 805.1778ZM439.4483 805.1778C421.3883 805.1778 407.2283 791.5078 407.2283 773.4378C407.2283 755.3678 421.3883 741.6978 439.4483 741.6978H585.9383C603.5183 741.6978 617.6783 755.3678 617.6783 773.4378C617.6783 791.5078 603.5183 805.1778 585.9383 805.1778ZM155.7583 931.1478C138.1883 931.1478 124.0283 916.9878 124.0283 899.4178C124.0283 881.3478 138.1883 867.1878 155.7583 867.1878H302.2483C320.3083 867.1878 334.4683 881.3478 334.4683 899.4178C334.4683 916.9878 320.3083 931.1478 302.2483 931.1478ZM439.4483 931.1478C421.3883 931.1478 407.2283 916.9878 407.2283 899.4178C407.2283 881.3478 421.3883 867.1878 439.4483 867.1878H585.9383C603.5183 867.1878 617.6783 881.3478 617.6783 899.4178C617.6783 916.9878 603.5183 931.1478 585.9383 931.1478Z"/>
</svg>