<?xml version="1.0" encoding="UTF-8" standalone="no"?>
<svg xmlns="http://www.w3.org/2000/svg"
     width="793.9453125" height="969.7265625"
     viewBox="0 0 793.9453125 969.7265625"
     fill="currentColor">
  <path d="M-0.0017 275.8823H207.0283C215.8183 255.8623 236.8183 242.1923 261.7183 242.1923H532.2283C558.1083 242.1923 578.6183 255.8623 587.3983 275.8823H793.9483V246.0923C793.9483 80.0823 713.8683 0.0023 547.8483 0.0023H246.0983C80.0783 0.0023 -0.0017 80.0823 -0.0017 246.0923ZM246.0983 969.7223H547.8483C713.8683 969.7223 793.9483 889.6523 793.9483 723.6323V325.1923H587.3983C578.6183 344.7223 558.1083 358.4023 532.2283 358.4023H261.7183C236.8183 358.4023 215.8183 344.7223 207.0283 325.1923H-0.0017V723.6323C-0.0017 889.6523 80.0783 969.7223 246.0983 969.7223ZM396.9683 557.6123C372.5583 558.1023 352.0483 537.1123 352.0483 513.1823C352.0483 488.7723 372.5583 468.2623 396.9683 468.2623C421.3883 468.2623 441.8983 488.7723 441.8983 513.1823C441.8983 536.1323 421.3883 557.1323 396.9683 557.6123Z"/>
</svg>