<?xml version="1.0" encoding="UTF-8" standalone="no"?>
<svg xmlns="http://www.w3.org/2000/svg"
     width="996.09375" height="996.09375"
     viewBox="0 0 996.09375 996.09375"
     fill="currentColor">
  <path d="M498.0477 996.0959C770.5077 996.0959 996.0977 770.0159 996.0977 498.0459C996.0977 225.5859 770.0177 -0.0041 497.5577 -0.0041C225.5877 -0.0041 -0.0023 225.5859 -0.0023 498.0459C-0.0023 770.0159 226.0777 996.0959 498.0477 996.0959ZM498.0477 913.0859C267.5777 913.0859 83.4977 728.5159 83.4977 498.0459C83.4977 267.5759 267.0877 83.0059 497.5577 83.0059C728.0277 83.0059 913.0877 267.5759 913.0877 498.0459C913.0877 728.5159 728.5177 913.0859 498.0477 913.0859ZM815.4277 498.5359C815.4277 465.8159 772.4577 440.9159 719.2377 440.9159H614.7477C602.0477 440.9159 598.1477 439.4559 589.8477 430.6659L416.0177 241.2059C409.6677 233.8859 401.8577 230.4659 393.0677 230.4659H362.7977C352.5377 230.4659 346.6777 239.7459 351.0777 249.9959L437.9877 441.8959L316.4077 456.0559L270.9977 373.0459C266.5977 365.2359 259.7677 361.3259 249.0277 361.3259H237.7977C228.5177 361.3259 222.1677 367.6759 222.1677 376.9559V619.6259C222.1677 628.9059 228.5177 635.2559 237.7977 635.2559H249.0277C259.7677 635.2559 266.5977 631.3459 270.9977 624.0259L316.4077 541.0159L437.9877 554.6859L351.0777 746.5859C346.6777 756.8359 352.5377 766.1159 362.7977 766.1159H393.0677C401.8577 766.1159 409.6677 762.6959 416.0177 755.8559L589.8477 566.4059C598.1477 557.6159 602.0477 555.6659 614.7477 555.6659H719.2377C772.4577 555.6659 815.4277 530.7659 815.4277 498.5359Z"/>
</svg>