<?xml version="1.0" encoding="UTF-8" standalone="no"?>
<svg xmlns="http://www.w3.org/2000/svg"
     width="996.09375" height="996.09375"
     viewBox="0 0 996.09375 996.09375"
     fill="currentColor">
  <path d="M498.0477 996.0977C770.5077 996.0977 996.0977 770.5077 996.0977 498.0477C996.0977 226.0777 770.0177 -0.0023 497.5577 -0.0023C225.5877 -0.0023 -0.0023 226.0777 -0.0023 498.0477C-0.0023 770.5077 226.0777 996.0977 498.0477 996.0977ZM498.0477 240.7177C639.6477 240.7177 755.8577 356.9377 755.8577 498.0477C755.8577 566.4077 728.5177 631.3477 679.6877 679.1977L652.8277 648.9277C692.3877 608.3977 714.8477 553.7077 714.8477 498.0477C714.8477 379.8877 616.6977 281.7377 498.0477 281.7377C379.8877 281.7377 282.2277 379.8877 282.2277 498.0477C282.2277 553.7077 304.1977 608.3977 343.2577 648.9277L316.4077 679.1977C267.5777 631.3477 241.2077 566.4077 241.2077 498.0477C241.2077 356.9377 356.4477 240.7177 498.0477 240.7177ZM498.0477 312.0077C600.0977 312.0077 684.0777 395.9977 684.0777 498.0477C684.0777 545.8977 666.0177 590.8177 632.8077 625.9777L604.9777 594.7277C629.3977 568.3577 642.5777 533.6877 642.5777 498.0477C642.5777 418.4577 577.1477 353.0277 498.0477 353.0277C418.9477 353.0277 354.0077 418.4577 354.0077 498.0477C354.0077 533.6877 366.6977 567.8677 390.6277 595.2177L363.2777 625.9777C330.0777 591.3077 312.4977 545.8977 312.4977 498.0477C312.4977 395.9977 395.9977 312.0077 498.0477 312.0077ZM498.0477 383.2977C560.5477 383.2977 612.7977 435.5477 612.7977 498.0477C612.7977 525.8777 602.5377 551.2677 584.9577 571.7777L556.6377 539.5477C565.9177 527.8277 571.2877 512.6977 571.2877 498.0477C571.2877 458.0077 538.0877 424.8077 498.0477 424.8077C458.0077 424.8077 425.2977 458.0077 425.2977 498.0477C425.2977 512.6977 430.1777 527.8277 439.4577 540.0377L411.1377 572.2677C393.5577 551.2677 383.7877 526.3677 383.7877 498.0477C383.7877 435.5477 435.5477 383.2977 498.0477 383.2977ZM351.0777 751.4677C335.4477 751.4677 326.6577 732.9077 337.8877 720.7077L483.3977 556.6377C491.6977 548.3377 505.8577 548.3377 513.1877 556.6377L658.2077 720.7077C669.4377 732.9077 661.6177 751.4677 645.0177 751.4677Z"/>
</svg>