<?xml version="1.0" encoding="UTF-8" standalone="no"?>
<svg xmlns="http://www.w3.org/2000/svg"
     width="1005.3103376827737" height="1071.2890625"
     viewBox="0 0 1005.3103376827737 1071.2890625"
     fill="currentColor">
  <path d="M14.6231 504.8811C14.6231 519.5311 20.9631 530.7611 31.2231 537.1111V602.5411C8.7631 615.7211 -2.4669 641.6011 0.4531 673.3411C10.2231 731.4411 49.2831 824.2211 96.6531 900.3911C171.3531 1026.8511 214.8131 1071.2911 262.1731 1071.2911C323.2131 1071.2911 351.5331 1015.1411 318.3331 955.5711L135.7131 632.8111C121.5531 608.4011 101.0431 596.1911 75.6531 594.2411V534.6711C84.4431 528.8111 88.8331 518.0711 88.8331 504.8811C91.2831 241.7011 248.0131 74.7111 502.4131 74.7111C757.2931 74.7111 913.5431 241.7011 915.9831 504.8811C915.9831 518.0711 920.8731 528.8111 929.6531 534.6711V594.2411C903.7831 596.1911 883.7631 608.4011 869.6031 632.8111L686.9831 955.5711C653.2931 1015.1411 682.1031 1071.2911 743.1331 1071.2911C790.4931 1071.2911 833.9531 1026.8511 908.6631 900.3911C955.5331 824.2211 995.0831 731.4411 1004.8531 673.3411C1007.7831 641.6011 996.5531 615.7211 974.0931 602.5411V537.1111C984.3431 530.7611 990.2031 519.5311 990.2031 504.8811C990.2031 205.5711 806.1231 0.0011 502.4131 0.0011C198.7031 0.0011 14.6231 205.5711 14.6231 504.8811ZM217.2531 244.6311C297.3331 201.1711 391.0831 179.6911 502.4131 179.6911C614.2231 179.6911 707.9731 201.1711 787.5631 244.6311C723.6031 162.6011 632.2931 121.5811 502.4131 121.5811C373.0131 121.5811 281.7031 162.6011 217.2531 244.6311ZM408.1731 974.6111C439.4231 956.5411 447.7231 916.0111 427.7031 881.3511L263.1531 590.8211C243.1331 556.1511 204.0731 543.4611 173.3131 561.5211C154.2631 571.7811 149.8731 589.8411 159.6331 606.9311L361.7831 962.4011C372.0431 979.9811 389.6231 984.8611 408.1731 974.6111ZM597.1331 974.6111C615.6931 984.8611 633.2731 979.9811 643.0331 962.4011L845.1831 606.9311C855.4431 589.8411 851.0431 571.7811 832.0031 561.5211C800.7531 543.4611 762.1731 556.1511 741.6731 590.8211L577.1231 881.3511C557.1031 916.0111 565.8831 956.5411 597.1331 974.6111Z"/>
</svg>