<?xml version="1.0" encoding="UTF-8" standalone="no"?>
<svg xmlns="http://www.w3.org/2000/svg"
     width="425.7974397125057" height="951.171875"
     viewBox="0 0 425.7974397125057 951.171875"
     fill="currentColor">
  <path d="M210.9545 395.9933C315.9345 394.5333 381.8545 331.0533 411.1445 285.6433C420.9145 270.0233 425.7945 252.9333 425.7945 233.8833V162.1133C425.7945 143.0633 421.4045 125.9733 411.1445 110.3533C380.8745 64.9433 315.9345 0.0033 210.9545 0.0033C96.6945 0.0033 1.4845 88.8633 0.0145 197.2633C-1.4455 307.1333 96.6945 396.9733 210.9545 395.9933ZM336.9345 275.3933C323.7445 275.3933 313.4945 265.1333 313.4945 251.9533V143.5533C313.4945 130.3733 323.7445 120.1133 336.9345 120.1133C350.1145 120.1133 359.8845 130.3733 359.8845 143.5533V251.9533C359.8845 265.1333 350.1145 275.3933 336.9345 275.3933ZM186.0545 790.0433V441.8933C134.7845 437.9833 86.9345 418.4533 48.3545 388.6733V790.0433ZM138.2045 951.1733C167.4945 951.1733 186.0545 936.5233 186.0545 907.7133V838.8633H48.3545V907.7133C48.3545 936.5233 66.9145 951.1733 96.6945 951.1733Z"/>
</svg>