<?xml version="1.0" encoding="UTF-8" standalone="no"?>
<svg xmlns="http://www.w3.org/2000/svg"
     width="1100.5859375" height="994.140625"
     viewBox="0 0 1100.5859375 994.140625"
     fill="currentColor">
  <path d="M1100.5883 497.0694C1100.0983 439.9394 1022.4583 398.4394 929.1983 398.4394H732.4183C705.0783 398.4394 694.8283 394.0394 678.7083 375.4894L350.5883 17.5794C340.3283 5.8594 327.6383 -0.0006 312.9883 -0.0006H256.3483C243.6483 -0.0006 236.3283 11.2294 242.6783 24.8994L411.6183 398.4394L163.5783 426.7594L75.1983 264.6494C68.8483 252.4394 58.1083 247.0694 41.9883 247.0694H20.9983C8.2983 247.0694 -0.0017 255.3694 -0.0017 268.0694V726.0694C-0.0017 738.7694 8.2983 746.5794 20.9983 746.5794H41.9883C58.1083 746.5794 68.8483 741.2094 75.1983 729.4894L163.5783 567.3794L411.6183 595.6994L242.6783 969.2394C236.3283 982.4194 243.6483 994.1394 256.3483 994.1394H312.9883C327.6383 994.1394 340.3283 987.7894 350.5883 976.5594L678.7083 618.1594C694.8283 600.0994 705.0783 595.6994 732.4183 595.6994H929.1983C1022.4583 595.6994 1100.0983 553.7094 1100.5883 497.0694Z"/>
</svg>