<?xml version="1.0" encoding="UTF-8" standalone="no"?>
<svg xmlns="http://www.w3.org/2000/svg"
     width="996.09375" height="996.09375"
     viewBox="0 0 996.09375 996.09375"
     fill="currentColor">
  <path d="M498.0477 996.0959C770.5077 996.0959 996.0977 770.0159 996.0977 498.0459C996.0977 225.5859 770.0177 -0.0041 497.5577 -0.0041C225.5877 -0.0041 -0.0023 225.5859 -0.0023 498.0459C-0.0023 770.0159 226.0777 996.0959 498.0477 996.0959ZM498.0477 913.0859C267.5777 913.0859 83.4977 728.5159 83.4977 498.0459C83.4977 267.5759 267.0877 83.0059 497.5577 83.0059C728.0277 83.0059 913.0877 267.5759 913.0877 498.0459C913.0877 728.5159 728.5177 913.0859 498.0477 913.0859ZM498.0477 248.0459C360.8377 248.0459 249.0277 360.8359 249.0277 498.0459C249.0277 564.4559 274.4177 627.4459 321.7777 673.8259L348.1477 644.5359C310.0577 604.9759 288.5777 552.2459 288.5777 498.0459C288.5777 382.8159 383.2977 287.5959 498.0477 287.5959C613.2777 287.5959 708.4977 382.8159 708.4977 498.0459C708.4977 552.2459 686.5277 604.9759 647.9477 644.5359L674.3177 673.8259C721.6777 627.4459 748.0477 564.4559 748.0477 498.0459C748.0477 360.8359 635.2577 248.0459 498.0477 248.0459ZM498.0477 317.3859C398.9277 317.3859 318.3577 398.9259 318.3577 498.0459C318.3577 544.4359 335.4477 587.8859 367.6777 622.0659L394.0477 591.7959C370.6077 565.9159 358.3977 532.7159 358.3977 498.0459C358.3977 420.8959 421.3877 357.4259 498.0477 357.4259C574.7077 357.4259 638.1877 420.8959 638.1877 498.0459C638.1877 532.7159 625.4877 566.4059 601.5577 591.3059L628.4177 622.0659C661.1377 587.4059 678.2277 544.4359 678.2277 498.0459C678.2277 398.9259 597.1677 317.3859 498.0477 317.3859ZM498.0477 386.7159C437.4977 386.7159 387.2077 437.4959 387.2077 498.0459C387.2077 525.3859 396.9777 549.8059 414.0577 569.8259L441.4077 539.0659C432.1277 526.8559 427.2477 512.2059 427.2477 498.0459C427.2477 458.9859 458.9877 426.7559 498.0477 426.7559C537.1077 426.7559 569.3377 458.9859 569.3377 498.0459C569.3377 512.2059 563.9677 526.8559 554.6877 538.5759L582.0277 569.3359C599.1177 549.8059 609.3777 524.9059 609.3777 498.0459C609.3777 437.4959 558.5977 386.7159 498.0477 386.7159ZM355.4677 743.1659H640.6277C656.7377 743.1659 664.0577 725.5859 653.3177 713.8659L512.6977 554.6859C505.8577 546.3859 491.6977 546.3859 483.8877 554.6859L342.7777 713.8659C332.0277 725.5859 340.3277 743.1659 355.4677 743.1659Z"/>
</svg>