<?xml version="1.0" encoding="UTF-8" standalone="no"?>
<svg xmlns="http://www.w3.org/2000/svg"
     width="1105.46875" height="851.5625"
     viewBox="0 0 1105.46875 851.5625"
     fill="currentColor">
  <path d="M-0.0017 280.7603H301.7583C309.5683 258.3003 331.0583 244.6303 356.4483 244.6303H748.0483C773.4383 244.6303 794.4383 258.3003 802.2483 280.7603H1104.0083V265.1403C1104.0083 86.9103 998.5383 0.0003 808.1083 0.0003H295.8983C105.9583 0.0003 -0.0017 86.9103 -0.0017 265.1403ZM295.8983 851.5603H809.5683C1009.2783 851.5603 1105.4683 755.8603 1105.4683 557.1303V325.1903H803.2183C794.9183 347.1703 774.4183 361.3303 748.5383 361.3303H357.4183C332.0283 361.3303 310.5483 347.1703 302.7383 325.1903H-0.0017V557.1303C-0.0017 755.8603 96.6783 851.5603 295.8983 851.5603ZM552.7383 547.3603C528.3183 547.8503 508.2983 527.3403 508.2983 503.4203C508.2983 479.0003 528.3183 458.5003 552.7383 458.5003C577.1483 458.5003 597.6583 479.0003 597.6583 503.4203C597.6583 526.3703 577.1483 546.8703 552.7383 547.3603Z"/>
</svg>