<?xml version="1.0" encoding="UTF-8" standalone="no"?>
<svg xmlns="http://www.w3.org/2000/svg"
     width="636.71875" height="863.7865581804754"
     viewBox="0 0 636.71875 863.7865581804754"
     fill="currentColor">
  <path d="M195.3083 0.0167C87.8883 0.9967 -0.0017 71.7967 -0.0017 196.3067C-0.0017 304.2167 63.4783 379.4067 144.0383 425.7967C180.6683 446.3067 220.6983 460.9567 285.1583 470.2367C274.8983 445.8167 269.0383 418.4767 269.0383 388.6867C269.0383 284.1967 354.9783 190.4467 460.9383 171.4067C452.1483 151.8767 443.8483 138.6867 434.5683 126.9667C372.5583 40.0567 279.2983 -0.9633 195.3083 0.0167ZM176.7583 209.4867L104.4883 148.9467C94.2383 140.6467 93.7483 125.9967 102.0483 116.2267C110.3483 105.9767 124.9983 104.5067 134.7683 112.8067L206.5383 173.3567C216.7983 181.6567 218.2583 196.3067 209.9583 206.5567C201.6583 216.8167 186.5283 217.7867 176.7583 209.4867ZM458.9883 530.2867C546.3883 530.2867 636.7183 460.9567 636.7183 354.9967C636.7183 284.1967 586.9183 214.8567 499.0283 214.8567C395.5083 214.8567 316.4083 304.2167 316.4083 388.6867C316.4083 483.4167 383.2983 530.2867 458.9883 530.2867ZM483.3983 456.0667C469.7283 444.3567 477.0483 420.9167 504.8783 385.2667C534.1783 350.1167 557.1283 338.3967 571.2883 351.0867C584.9583 362.8067 577.6383 386.7367 549.3183 421.4067C520.5083 456.0667 497.0683 468.2767 483.3983 456.0667ZM266.1183 863.7867C296.3883 863.7867 316.4083 848.1567 316.4083 817.8867V523.9467C265.6283 520.5267 219.2383 511.2467 177.7383 496.1067V817.8867C177.7383 848.1567 197.2683 863.7867 227.5383 863.7867Z"/>
</svg>