<?xml version="1.0" encoding="UTF-8" standalone="no"?>
<svg xmlns="http://www.w3.org/2000/svg"
     width="1140.13671875" height="925.29296875"
     viewBox="0 0 1140.13671875 925.29296875"
     fill="currentColor">
  <path d="M770.5083 664.5497L839.8483 743.1597H1034.6683C1102.5383 743.1597 1140.1383 705.5697 1140.1383 638.6697V104.9797C1140.1383 38.5697 1102.5383 -0.0003 1034.6683 -0.0003H104.9783C39.0583 -0.0003 -0.0017 40.0397 -0.0017 104.9797V638.6697C-0.0017 705.5697 37.1083 743.1597 104.9783 743.1597H304.6883L374.0283 664.5497H117.1883C94.2383 664.5497 83.0083 652.8297 83.0083 629.8797V113.7697C83.0083 90.8197 94.2383 78.6097 117.1883 78.6097H1022.4583C1045.4083 78.6097 1057.1283 90.8197 1057.1283 113.7697V629.8797C1057.1283 652.8297 1045.4083 664.5497 1022.4583 664.5497ZM868.1683 925.2897C891.1183 925.2897 899.8983 901.8597 885.2583 885.2497L590.8183 551.7597C579.5883 539.0597 560.0583 539.0597 548.8283 551.7597L254.3983 885.2497C239.7483 901.8597 248.5383 925.2897 271.4883 925.2897Z"/>
</svg>