<?xml version="1.0" encoding="UTF-8" standalone="no"?>
<svg xmlns="http://www.w3.org/2000/svg"
     width="804.19921875" height="1032.2265625"
     viewBox="0 0 804.19921875 1032.2265625"
     fill="currentColor">
  <path d="M153.3183 1032.2258H650.8783C752.9283 1032.2258 804.1983 981.9358 804.1983 881.3458V151.3658C804.1983 50.7858 752.9283 -0.0042 650.8783 -0.0042H153.3183C51.2683 -0.0042 -0.0017 50.7858 -0.0017 151.3658V881.3458C-0.0017 981.9358 51.2683 1032.2258 153.3183 1032.2258ZM154.2983 78.6158H242.6783V244.6258C242.6783 279.7858 222.6583 299.8058 187.9883 299.8058H78.6183V155.7658C78.6183 104.9758 105.4683 78.6158 154.2983 78.6158ZM154.2983 953.6158C105.4683 953.6158 78.6183 927.7358 78.6183 876.9558V358.8858H189.4483C264.6483 358.8858 301.7583 322.2658 301.7583 248.5358V78.6158H649.8983C698.2383 78.6158 725.5883 104.9758 725.5883 155.7658V876.9558C725.5883 927.7358 698.2383 953.6158 649.8983 953.6158Z"/>
</svg>