<?xml version="1.0" encoding="UTF-8" standalone="no"?>
<svg xmlns="http://www.w3.org/2000/svg"
     width="1030.76171875" height="851.5625"
     viewBox="0 0 1030.76171875 851.5625"
     fill="currentColor">
  <path d="M295.8983 851.5603H734.8683C934.0783 851.5603 1030.7583 755.8603 1030.7583 557.1303V294.4303C1030.7583 95.7003 934.0783 0.0003 734.8683 0.0003H295.8983C96.6783 0.0003 -0.0017 95.7003 -0.0017 294.4303V557.1303C-0.0017 755.8603 96.6783 851.5603 295.8983 851.5603ZM710.9383 244.6303H319.8283C295.4083 244.6303 274.8983 257.8103 266.1183 278.3203H79.0983C83.4983 140.6203 151.3683 78.6103 295.8983 78.6103H734.8683C879.3983 78.6103 947.2683 140.6203 952.1483 278.3203H765.1383C756.3483 257.8103 736.3283 244.6303 710.9383 244.6303ZM295.8983 772.9503C145.9983 772.9503 78.6183 706.0503 78.6183 557.1303V327.6403H266.1183C274.8983 348.1403 295.4083 361.3303 319.8283 361.3303H710.9383C736.3283 361.3303 756.3483 348.1403 765.1383 327.6403H952.1483V557.1303C952.1483 706.0503 884.7683 772.9503 734.8683 772.9503ZM515.6283 527.8303C541.5083 527.3403 562.4983 505.8603 562.4983 481.4403C562.4983 455.5703 541.5083 434.0803 515.6283 434.0803C489.2583 434.0803 468.2583 455.5703 468.2583 481.4403C468.2583 506.8403 489.2583 528.3203 515.6283 527.8303Z"/>
</svg>