<?xml version="1.0" encoding="UTF-8" standalone="no"?>
<svg xmlns="http://www.w3.org/2000/svg"
     width="655.76171875" height="1125.48828125"
     viewBox="0 0 655.76171875 1125.48828125"
     fill="currentColor">
  <path d="M-0.0017 974.1259C-0.0017 1075.1959 51.2683 1125.4859 153.3183 1125.4859H502.9283C604.4883 1125.4859 655.7583 1075.1959 655.7583 974.1259V240.2359C655.7583 202.1459 647.4583 177.2459 624.5083 149.4159L548.8283 57.1259C517.5783 19.0459 485.3483 -0.0041 445.7983 -0.0041H209.9583C170.4083 -0.0041 138.6683 19.0459 106.9383 57.1259L31.2483 149.4159C8.2983 177.2459 -0.0017 202.1459 -0.0017 240.2359ZM102.5383 176.7559L164.0583 101.5659C186.0383 75.6859 197.7583 61.5259 230.4683 61.5259H425.2883C458.4983 61.5259 470.2183 75.6859 491.6983 101.5659L553.2183 176.7559C563.4783 188.9659 561.5283 212.4059 535.1583 212.4059H120.6083C94.2383 212.4059 92.7783 188.9659 102.5383 176.7559ZM78.6183 970.2159V281.2459C91.7983 288.5759 105.9583 291.0159 123.0483 291.0159H532.7183C550.2883 291.0159 564.4483 288.5759 577.1483 281.2459V970.2159C577.1483 1020.9959 550.2883 1046.8759 501.4683 1046.8759H154.2983C105.4683 1046.8759 78.6183 1020.9959 78.6183 970.2159ZM473.1483 984.8659C496.0983 984.8659 515.1383 965.8159 515.1383 941.8959C515.1383 918.9459 496.0983 899.9059 473.1483 899.9059C449.2183 899.9059 430.6683 918.9459 430.6683 941.8959C430.6683 965.8159 449.2183 984.8659 473.1483 984.8659Z"/>
</svg>