<?xml version="1.0" encoding="UTF-8" standalone="no"?>
<svg xmlns="http://www.w3.org/2000/svg"
     width="996.09375" height="996.09375"
     viewBox="0 0 996.09375 996.09375"
     fill="currentColor">
  <path d="M498.0477 996.0977C770.5077 996.0977 996.0977 770.5077 996.0977 498.0477C996.0977 226.0777 770.0177 -0.0023 497.5577 -0.0023C225.5877 -0.0023 -0.0023 226.0777 -0.0023 498.0477C-0.0023 770.5077 226.0777 996.0977 498.0477 996.0977ZM498.0477 898.4377C275.8777 898.4377 97.6577 720.2177 97.6577 497.5577C97.6577 274.4177 275.3877 96.6777 497.5577 96.6777C720.2177 96.6777 898.4377 274.4177 898.9277 497.5577C899.4177 719.7277 720.7077 898.4377 498.0477 898.4377ZM498.0477 854.0077C696.2877 854.0077 854.9777 694.8277 854.4877 497.5577C854.0077 298.8277 695.3077 141.1177 497.5577 141.1177C299.8077 141.1177 142.0877 299.3177 142.0877 497.5577C142.0877 695.3077 300.2977 854.0077 498.0477 854.0077ZM549.3177 342.2877C537.1077 357.4177 516.5977 368.6477 499.9977 368.6477C497.5577 368.6477 496.0977 368.1677 494.6277 368.1677C494.6277 367.1877 494.1377 364.2577 494.1377 361.8177C494.1377 342.2877 504.3977 324.2177 514.1577 312.0077C527.8277 296.3877 549.3177 285.1577 567.8677 284.6677C568.3577 286.6177 568.3577 289.0577 568.3577 291.5077C568.3577 310.5477 560.5477 328.6177 549.3177 342.2877ZM502.4377 633.2977C474.6077 633.2977 464.8477 648.4377 442.3877 648.4377C418.9477 648.4377 403.8077 627.9277 385.2577 602.5377C364.7477 572.2677 347.1677 525.8777 347.1677 481.4477C347.1677 411.1377 393.5577 373.0477 438.9677 373.0477C462.8877 373.0477 482.9077 389.1577 497.5577 389.1577C512.2077 389.1577 534.6677 372.5577 562.0077 372.5577C572.7577 372.5577 609.8677 373.0477 634.2777 408.2077C632.3277 410.6477 595.2177 431.1477 595.2177 478.0277C595.2177 532.2277 642.5777 551.2677 644.0477 551.7577C644.0477 552.7377 636.7177 578.1277 619.1377 603.5177C603.5177 625.4877 586.4277 647.9477 562.0077 647.9477C537.1077 647.9477 531.2477 633.2977 502.4377 633.2977Z"/>
</svg>