<?xml version="1.0" encoding="UTF-8" standalone="no"?>
<svg xmlns="http://www.w3.org/2000/svg"
     width="1099.609375" height="1131.8359375"
     viewBox="0 0 1099.609375 1131.8359375"
     fill="currentColor">
  <path d="M35.6483 1131.8353C55.1783 1131.8353 71.7783 1117.1853 71.7783 1098.1453V33.6953C71.7783 14.6453 55.1783 -0.0047 35.6483 -0.0047C16.5983 -0.0047 -0.0017 14.6453 -0.0017 33.6953V1098.1453C-0.0017 1117.1853 16.5983 1131.8353 35.6483 1131.8353ZM273.4383 519.0453H642.0883C714.8483 519.0453 753.9083 480.4653 753.9083 409.1753V239.2553C753.9083 167.9653 714.8483 129.3953 642.0883 129.3953H273.4383C201.1683 129.3953 161.6183 167.9653 161.6183 239.2553V409.1753C161.6183 480.4653 201.1683 519.0453 273.4383 519.0453ZM273.4383 1002.9253H987.7883C1060.5483 1002.9253 1099.6083 964.3553 1099.6083 893.0653V723.1453C1099.6083 652.3453 1060.5483 613.2853 987.7883 613.2853H273.4383C201.1683 613.2853 161.6183 652.3453 161.6183 723.1453V893.0653C161.6183 964.3553 201.1683 1002.9253 273.4383 1002.9253Z"/>
</svg>