<?xml version="1.0" encoding="UTF-8" standalone="no"?>
<svg xmlns="http://www.w3.org/2000/svg"
     width="1131.8359375" height="1101.07421875"
     viewBox="0 0 1131.8359375 1101.07421875"
     fill="currentColor">
  <path d="M239.2583 937.9838H409.1783C480.4683 937.9838 519.0383 898.9238 519.0383 826.1738V111.8138C519.0383 39.0638 480.4683 0.0037 409.1783 0.0037H239.2583C167.9683 0.0037 129.3983 39.0638 129.3983 111.8138V826.1738C129.3983 898.9238 167.9683 937.9838 239.2583 937.9838ZM243.6483 864.2538C217.2883 864.2538 203.1283 850.0938 203.1283 824.7038V113.2838C203.1283 87.8937 217.2883 73.7337 243.6483 73.7337H404.7883C431.1483 73.7337 445.3083 87.8937 445.3083 113.2838V824.7038C445.3083 850.0938 431.1483 864.2538 404.7883 864.2538ZM723.6283 937.9838H893.5583C964.3583 937.9838 1003.4183 898.9238 1003.4183 826.1738V457.5238C1003.4183 385.2537 964.3583 345.7038 893.5583 345.7038H723.6283C652.3483 345.7038 613.2783 385.2537 613.2783 457.5238V826.1738C613.2783 898.9238 652.3483 937.9838 723.6283 937.9838ZM727.5383 864.2538C701.6583 864.2538 687.0083 850.0938 687.0083 824.7038V458.9838C687.0083 433.5938 701.6583 419.4338 727.5383 419.4338H889.1583C915.0383 419.4338 929.6883 433.5938 929.6883 458.9838V824.7038C929.6883 850.0938 915.0383 864.2538 889.1583 864.2538ZM34.1783 1101.0738H1098.1483C1117.1883 1101.0738 1131.8383 1084.4738 1131.8383 1065.4338C1131.8383 1046.3838 1117.1883 1029.2938 1098.1483 1029.2938H34.1783C14.6483 1029.2938 -0.0017 1046.3838 -0.0017 1065.4338C-0.0017 1084.4738 14.6483 1101.0738 34.1783 1101.0738Z"/>
</svg>