<?xml version="1.0" encoding="UTF-8" standalone="no"?>
<svg xmlns="http://www.w3.org/2000/svg"
     width="1099.609375" height="1131.8359375"
     viewBox="0 0 1099.609375 1131.8359375"
     fill="currentColor">
  <path d="M35.6483 1131.8353C55.1783 1131.8353 71.7783 1117.1853 71.7783 1098.1453V33.6953C71.7783 14.6453 55.1783 -0.0047 35.6483 -0.0047C16.5983 -0.0047 -0.0017 14.6453 -0.0017 33.6953V1098.1453C-0.0017 1117.1853 16.5983 1131.8353 35.6483 1131.8353ZM273.4383 519.0453H642.0883C714.8483 519.0453 753.9083 480.4653 753.9083 409.1753V239.2553C753.9083 167.9653 714.8483 129.3953 642.0883 129.3953H273.4383C201.1683 129.3953 161.6183 167.9653 161.6183 239.2553V409.1753C161.6183 480.4653 201.1683 519.0453 273.4383 519.0453ZM274.8983 445.3153C249.5083 445.3153 235.3483 431.1553 235.3483 404.7853V243.1653C235.3483 217.2853 249.5083 203.1253 274.8983 203.1253H640.6283C666.0183 203.1253 680.1783 217.2853 680.1783 243.1653V404.7853C680.1783 431.1553 666.0183 445.3153 640.6283 445.3153ZM273.4383 1002.9253H987.7883C1060.5483 1002.9253 1099.6083 964.3553 1099.6083 893.0653V723.1453C1099.6083 652.3453 1060.5483 613.2853 987.7883 613.2853H273.4383C201.1683 613.2853 161.6183 652.3453 161.6183 723.1453V893.0653C161.6183 964.3553 201.1683 1002.9253 273.4383 1002.9253ZM274.8983 929.1953C249.5083 929.1953 235.3483 915.0353 235.3483 889.1553V727.5353C235.3483 701.1753 249.5083 687.0153 274.8983 687.0153H986.3283C1011.7183 687.0153 1025.8783 701.1753 1025.8783 727.5353V889.1553C1025.8783 915.0353 1011.7183 929.1953 986.3283 929.1953Z"/>
</svg>