<?xml version="1.0" encoding="UTF-8" standalone="no"?>
<svg xmlns="http://www.w3.org/2000/svg"
     width="1131.8359375" height="1101.07421875"
     viewBox="0 0 1131.8359375 1101.07421875"
     fill="currentColor">
  <path d="M34.1783 71.7737H1098.1483C1117.1883 71.7737 1131.8383 55.1738 1131.8383 36.1337C1131.8383 17.0938 1117.1883 0.0037 1098.1483 0.0037H34.1783C14.6483 0.0037 -0.0017 17.0938 -0.0017 36.1337C-0.0017 55.1738 14.6483 71.7737 34.1783 71.7737ZM239.2583 1101.0738H409.1783C480.4683 1101.0738 519.0383 1062.0138 519.0383 989.2538V274.9037C519.0383 202.6337 480.4683 163.0838 409.1783 163.0838H239.2583C167.9683 163.0838 129.3983 202.6337 129.3983 274.9037V989.2538C129.3983 1062.0138 167.9683 1101.0738 239.2583 1101.0738ZM723.6283 755.3738H893.5583C964.3583 755.3738 1003.4183 716.3038 1003.4183 643.5538V274.9037C1003.4183 202.6337 964.3583 163.0838 893.5583 163.0838H723.6283C652.3483 163.0838 613.2783 202.6337 613.2783 274.9037V643.5538C613.2783 716.3038 652.3483 755.3738 723.6283 755.3738Z"/>
</svg>