<?xml version="1.0" encoding="UTF-8" standalone="no"?>
<svg xmlns="http://www.w3.org/2000/svg"
     width="1256.8359375" height="1258.7890625"
     viewBox="0 0 1256.8359375 1258.7890625"
     fill="currentColor">
  <path d="M806.6377 118.163C839.3577 118.163 865.7277 91.793 865.7277 59.083C865.7277 26.363 839.3577 0.003 806.6377 0.003C773.9277 0.003 747.5577 26.363 747.5577 59.083C747.5577 91.793 773.9277 118.163 806.6377 118.163ZM534.1777 222.653C566.8977 222.653 593.2577 196.293 593.2577 163.083C593.2577 130.373 566.8977 104.003 534.1777 104.003C500.9777 104.003 475.0977 130.373 475.0977 163.083C475.0977 196.293 500.9777 222.653 534.1777 222.653ZM1093.7477 235.843C1126.4677 235.843 1152.8277 209.473 1152.8277 176.753C1152.8277 144.043 1126.4677 117.673 1093.7477 117.673C1060.5477 117.673 1034.1777 144.043 1034.1777 176.753C1034.1777 209.473 1060.5477 235.843 1093.7477 235.843ZM806.6377 694.333C940.9177 694.333 1050.7777 583.983 1050.7777 449.703C1050.7777 315.433 940.9177 206.053 806.6377 206.053C672.8477 206.053 562.4977 315.433 562.4977 449.703C562.4977 583.983 672.8477 694.333 806.6377 694.333ZM806.6377 613.283C717.7777 613.283 643.5577 539.063 643.5577 449.703C643.5577 360.353 717.2877 287.593 806.6377 287.593C896.4877 287.593 969.7277 360.353 969.7277 449.703C969.7277 539.063 895.9977 613.283 806.6377 613.283ZM428.2277 508.793C460.9377 508.793 487.3077 482.423 487.3077 449.703C487.3077 416.503 460.9377 390.133 428.2277 390.133C395.0177 390.133 369.1377 416.503 369.1377 449.703C369.1377 482.423 395.0177 508.793 428.2277 508.793ZM1197.7577 510.743C1230.4677 510.743 1256.8377 484.373 1256.8377 451.173C1256.8377 418.453 1230.4677 392.093 1197.7577 392.093C1165.0377 392.093 1138.6677 418.453 1138.6677 451.173C1138.6677 484.373 1165.0377 510.743 1197.7577 510.743ZM177.7377 625.973C210.4477 625.973 236.8177 599.613 236.8177 566.893C236.8177 533.693 210.4477 507.323 177.7377 507.323C144.5277 507.323 118.6477 533.693 118.6477 566.893C118.6477 599.613 144.5277 625.973 177.7377 625.973ZM428.2277 1042.483C545.4077 1042.483 640.1377 947.753 640.1377 829.593C640.1377 713.383 544.9177 618.653 428.2277 618.653C311.5277 618.653 216.3077 713.383 216.3077 829.593C216.3077 947.263 311.5277 1042.483 428.2277 1042.483ZM1079.0977 796.873C1112.3077 796.873 1138.6677 770.503 1138.6677 737.793C1138.6677 704.593 1112.3077 678.223 1079.0977 678.223C1046.3877 678.223 1020.0177 704.593 1020.0177 737.793C1020.0177 770.503 1046.3877 796.873 1079.0977 796.873ZM428.2277 961.423C355.9577 961.423 297.3677 902.343 297.3677 829.593C297.3677 758.303 356.4477 699.703 428.2277 699.703C499.9977 699.703 559.0777 758.303 559.0777 829.593C559.0777 902.343 500.4877 961.423 428.2277 961.423ZM806.6377 888.673C839.3577 888.673 865.7277 862.303 865.7277 829.593C865.7277 796.383 839.3577 770.503 806.6377 770.503C773.9277 770.503 747.5577 796.383 747.5577 829.593C747.5577 862.303 773.9277 888.673 806.6377 888.673ZM59.0777 889.653C91.7977 889.653 118.1677 863.283 118.1677 830.563C118.1677 797.853 91.7977 771.483 59.0777 771.483C26.3677 771.483 -0.0023 797.853 -0.0023 830.563C-0.0023 863.283 26.3677 889.653 59.0777 889.653ZM693.8477 1140.133C726.5577 1140.133 752.9277 1113.773 752.9277 1081.053C752.9277 1048.343 726.5577 1021.973 693.8477 1021.973C661.1377 1021.973 634.7677 1048.343 634.7677 1081.053C634.7677 1113.773 661.1377 1140.133 693.8477 1140.133ZM177.7377 1153.323C210.4477 1153.323 236.8177 1126.953 236.8177 1094.243C236.8177 1061.033 210.4477 1034.673 177.7377 1034.673C144.5277 1034.673 118.6477 1061.033 118.6477 1094.243C118.6477 1126.953 144.5277 1153.323 177.7377 1153.323ZM428.2277 1258.793C460.9377 1258.793 487.3077 1232.423 487.3077 1199.703C487.3077 1166.503 460.9377 1140.133 428.2277 1140.133C395.0177 1140.133 369.1377 1166.503 369.1377 1199.703C369.1377 1232.423 395.0177 1258.793 428.2277 1258.793Z"/>
</svg>