<?xml version="1.0" encoding="UTF-8" standalone="no"?>
<svg xmlns="http://www.w3.org/2000/svg"
     width="1091.30859375" height="818.4814453125"
     viewBox="0 0 1091.30859375 818.4814453125"
     fill="currentColor">
  <path d="M-0.0017 779.4177C-0.0017 800.9077 18.0683 818.4777 39.0583 818.4777H1051.7583C1073.2383 818.4777 1091.3083 800.9077 1091.3083 779.4177C1091.3083 757.9377 1073.2383 739.8677 1051.7583 739.8677H646.4883C638.1883 601.6877 583.0083 475.2177 496.5783 377.5677L807.1283 67.0177C822.2683 51.8777 822.2683 26.4877 807.1283 11.3477C791.9883 -3.7823 767.0883 -3.7823 751.4683 11.3477L11.2283 751.5877C4.8783 758.4277 -0.0017 768.6777 -0.0017 779.4177ZM134.2783 739.8677L440.9183 433.2277C513.1883 516.7277 559.5683 623.1677 567.8683 739.8677Z"/>
</svg>