<?xml version="1.0" encoding="UTF-8" standalone="no"?>
<svg xmlns="http://www.w3.org/2000/svg"
     width="813.9943821009801" height="1166.50390625"
     viewBox="0 0 813.9943821009801 1166.50390625"
     fill="currentColor">
  <path d="M406.7655 1166.5025C544.9455 1166.5025 665.5555 1018.0625 665.5555 858.4025C665.5555 833.4925 661.1555 812.5025 652.3755 795.4125C666.5355 799.3125 680.6955 802.7325 694.3655 806.6425C728.0555 815.9225 737.8155 829.1025 733.4255 858.4025L697.7855 1092.2825C693.3855 1120.1125 710.4755 1136.7225 733.4255 1136.7225C757.3555 1136.7225 768.0955 1122.0725 771.9955 1097.6525L812.0355 844.2425C821.3155 787.1125 797.8755 755.8625 735.3755 741.2125L515.1655 689.9425L514.6755 685.0625C535.6755 674.8025 549.8355 654.7825 556.1755 632.8125L706.0855 611.3325C767.1155 603.0225 794.4655 568.8525 794.4655 508.7925V339.8425C794.4655 315.9225 780.7855 302.2425 757.3555 302.2425C733.9155 302.2425 720.2455 316.4025 720.2455 339.8425V493.6525C720.2455 528.3225 701.6855 539.5525 669.9455 543.9425L558.1355 559.0825C552.7655 543.9425 542.9955 530.2725 529.8155 521.4825V516.6025C613.3055 501.9525 659.6955 451.1725 659.6955 376.9525C659.6955 314.4525 636.2555 257.3225 598.1755 213.3825L602.5655 209.9625C649.9255 175.7825 658.7155 125.4925 627.9555 71.2925L599.1455 23.9225C589.8755 7.3225 579.1255 0.0025 563.9955 0.0025C543.4855 0.0025 528.8355 14.6525 528.8355 33.6925C528.8355 42.4825 530.3055 47.3625 535.6755 57.1325L561.0655 95.7025C576.6855 121.0925 576.6855 143.0625 556.6655 160.6425C553.7355 163.0825 551.2955 165.0425 548.3655 166.9925C507.8355 139.6525 459.0155 123.5325 406.7655 123.5325C355.4955 123.5325 307.1555 139.6525 267.1155 166.5025C264.1855 165.0425 261.2555 162.6025 258.8155 160.1525C239.2855 143.0625 238.7955 121.0925 254.9055 95.7025L280.3055 57.1325C285.6755 47.3625 287.1355 42.4825 287.1355 33.6925C287.1355 14.6525 271.9955 0.0025 251.9755 0.0025C236.8455 0.0025 226.1055 7.3225 216.8255 23.9225L188.0155 71.2925C157.2555 125.4925 166.0455 175.7825 213.4055 209.9625L216.8255 212.4025C178.2455 256.3525 153.8355 313.9625 153.8355 376.9525C153.8355 451.1725 200.7155 501.9525 284.2055 516.6025V521.4825C270.5355 530.2725 261.2555 543.9425 255.8855 559.0825L144.0655 543.9425C111.8455 539.5525 93.7755 528.3225 93.7755 493.6525V339.8425C93.7755 316.4025 80.1055 302.2425 56.6655 302.2425C33.2255 302.2425 19.5555 315.9225 19.5555 339.8425V508.7925C19.5555 568.8525 46.9055 603.0225 107.9355 611.3325L257.8355 632.8125C264.1855 654.7825 277.8555 674.8025 299.3455 685.0625V689.9425L78.6455 741.2125C15.6555 755.8625 -7.2945 787.1125 1.9755 844.2425L42.0155 1097.6525C45.4355 1122.0725 56.6655 1136.7225 80.5955 1136.7225C103.5455 1136.7225 120.6355 1120.1125 116.2355 1092.2825L80.5955 858.4025C75.7155 829.1025 85.9655 815.9225 119.6555 806.6425C133.3255 802.7325 147.4855 799.3125 161.1555 795.4125C152.8555 812.5025 148.4655 833.4925 148.4655 858.4025C148.4655 1018.0625 269.0655 1166.5025 406.7655 1166.5025Z"/>
</svg>