<?xml version="1.0" encoding="UTF-8" standalone="no"?>
<svg xmlns="http://www.w3.org/2000/svg"
     width="996.09375" height="996.09375"
     viewBox="0 0 996.09375 996.09375"
     fill="currentColor">
  <path d="M498.0477 996.0959C770.5077 996.0959 996.0977 770.0159 996.0977 498.0459C996.0977 225.5859 770.0177 -0.0041 497.5577 -0.0041C225.5877 -0.0041 -0.0023 225.5859 -0.0023 498.0459C-0.0023 770.0159 226.0777 996.0959 498.0477 996.0959ZM498.0477 913.0859C267.5777 913.0859 83.4977 728.5159 83.4977 498.0459C83.4977 267.5759 267.0877 83.0059 497.5577 83.0059C728.0277 83.0059 913.0877 267.5759 913.0877 498.0459C913.0877 728.5159 728.5177 913.0859 498.0477 913.0859ZM277.3477 628.9059L298.3377 766.1159C300.7777 780.2759 307.6177 788.5759 320.7977 788.5759C333.9877 788.5759 343.7477 778.8059 341.3077 762.6959L322.2677 636.2259C319.8277 621.0959 324.7077 614.7459 342.2877 609.8659C348.6377 607.9059 354.9777 606.4459 361.8177 604.4959C358.3977 613.7659 356.9377 624.0259 356.9377 636.7159C356.9377 723.1459 422.3677 804.6859 498.0477 804.6859C573.7277 804.6859 639.1577 723.1459 639.1577 636.7159C639.1577 624.0259 637.6977 613.7659 634.2777 604.4959C640.6277 606.4459 646.9777 607.9059 653.8077 609.8659C671.3877 614.7459 675.7777 621.0959 673.8277 636.2259L654.2977 762.6959C651.8577 778.8059 661.6177 788.5759 675.2977 788.5759C688.4777 788.5759 695.3077 780.2759 697.2677 766.1159L718.7477 628.9059C724.1177 597.6559 710.9377 580.5659 676.7577 571.7759L561.5277 544.4359C569.8277 541.0159 580.0777 529.7859 584.4777 514.6459L660.6477 503.9059C693.8477 499.0259 709.4777 480.4659 709.4777 447.2659V355.4659C709.4777 342.2859 701.6577 333.9859 687.4977 333.9859C674.3177 333.9859 666.5077 342.2859 666.5077 355.4659V438.9659C666.5077 457.0359 656.7377 462.4059 640.1377 464.8459L583.4977 473.1459C581.0577 464.3559 575.6877 456.5459 570.3077 452.1459C613.7677 443.3559 635.7377 416.5059 635.7377 375.4859C635.7377 342.2859 624.0277 311.5259 603.5177 287.5959L604.9777 286.1359C630.8577 267.5759 636.2277 239.2559 618.6477 209.4759L603.5177 184.0859C598.1477 174.8059 592.2877 170.4059 583.0077 170.4059C571.7777 170.4059 562.9877 178.7059 562.9877 189.9459C562.9877 194.8259 563.9677 198.2459 566.8977 203.1259L580.5677 223.6359C587.8877 236.3259 590.8177 247.0659 581.0577 254.8859L574.7077 260.2559C551.7577 245.6059 522.9477 236.8159 498.0477 236.8159C472.6577 236.8159 443.8477 245.6059 420.8977 260.2559L414.5477 254.8859C405.2777 247.0659 408.2077 236.3259 415.5277 223.6359L428.7077 203.1259C432.1277 198.2459 432.6177 194.8259 432.6177 189.9459C432.6177 178.7059 424.3177 170.4059 412.5977 170.4059C403.8077 170.4059 396.9777 174.3159 392.0877 184.0859L376.9577 209.4759C360.3477 239.7459 364.7477 267.5759 391.1177 286.1359L392.0877 287.5959C371.5777 311.5259 359.8677 342.2859 359.8677 375.4859C359.8677 416.0159 382.3277 443.3559 425.7777 451.6559C420.4077 456.0559 414.5477 464.3559 412.5977 473.1459L355.4677 464.8459C339.3577 462.8859 329.0977 457.0359 329.0977 438.9659V355.4659C329.0977 342.2859 321.7777 333.9859 308.1077 333.9859C294.4377 333.9859 286.6177 342.2859 286.6177 355.4659V447.2659C286.6177 480.4659 301.7577 499.0259 335.4477 503.9059L411.6177 514.6459C415.5277 529.7859 425.7777 540.5259 434.5677 544.4359L319.3377 571.7759C285.1577 580.0759 271.9777 597.6559 277.3477 628.9059Z"/>
</svg>