<?xml version="1.0" encoding="UTF-8" standalone="no"?>
<svg xmlns="http://www.w3.org/2000/svg"
     width="996.09375" height="996.09375"
     viewBox="0 0 996.09375 996.09375"
     fill="currentColor">
  <path d="M498.0477 996.0977C770.5077 996.0977 996.0977 770.5077 996.0977 498.0477C996.0977 226.0777 770.0177 -0.0023 497.5577 -0.0023C225.5877 -0.0023 -0.0023 226.0777 -0.0023 498.0477C-0.0023 770.5077 226.0777 996.0977 498.0477 996.0977ZM181.6377 481.4477C181.6377 405.7577 209.4777 333.9877 259.7677 279.2977C272.4577 264.1577 292.4777 263.6677 304.6877 277.8277C315.4277 289.5477 313.9677 307.1277 301.2677 322.2677C262.2077 364.2577 240.7277 420.8977 240.7277 481.4477C240.7277 543.4577 262.2077 599.1177 301.2677 642.0877C313.9677 657.7177 315.4277 674.3177 304.1977 686.5277C292.4777 700.1977 272.4577 699.2177 259.7677 685.0577C208.9877 629.8877 181.6377 558.5977 181.6377 481.4477ZM755.8577 481.4477C755.8577 420.8977 734.3777 364.2577 695.3077 322.2677C682.1277 307.1277 680.6677 289.5477 691.4077 277.8277C703.6177 263.6677 723.6377 264.1577 736.3277 279.2977C786.6177 333.9877 814.9377 405.7577 814.9377 481.4477C814.9377 558.5977 787.1077 629.8877 736.3277 685.0577C723.6377 699.2177 703.6177 700.1977 691.8977 686.5277C680.6677 674.3177 682.1277 657.7177 695.3077 642.0877C734.3777 599.1177 755.8577 543.4577 755.8577 481.4477ZM304.6877 481.4477C304.6877 438.4777 319.8277 396.9677 346.1877 363.7677C357.9077 348.1477 379.8877 347.1677 392.5777 361.3277C402.3477 373.0477 401.3677 388.1877 389.1577 404.7877C373.0477 426.7577 363.7677 453.6177 363.7677 481.4477C363.7677 511.7177 372.5577 538.0877 388.6677 559.0777C401.3677 576.1677 402.8277 590.8177 392.5777 603.0277C380.3677 616.6977 357.9077 616.2077 346.1877 600.5877C319.8277 567.3877 304.6877 525.3877 304.6877 481.4477ZM632.3277 481.4477C632.3277 453.6177 623.0477 426.7577 607.4177 404.7877C595.2177 388.1877 593.7477 373.0477 603.5177 361.3277C616.2077 347.1677 638.1877 348.1477 649.8977 363.7677C676.2677 396.9677 691.4077 438.4777 691.4077 481.4477C691.4077 525.3877 676.2677 567.3877 649.8977 600.5877C638.1877 616.2077 615.7277 616.6977 603.5177 603.0277C593.2577 590.8177 594.7277 576.1677 607.4177 559.0777C623.5377 538.0877 632.3277 511.7177 632.3277 481.4477ZM439.4577 481.4477C439.4577 449.2177 465.8177 423.3377 498.0477 423.3377C530.7577 423.3377 556.6377 449.2177 556.6377 481.4477C556.6377 503.4177 543.9477 522.4577 526.3677 532.2277V793.4577C526.3677 812.0077 514.6477 824.2177 498.0477 824.2177C481.9377 824.2177 470.2177 811.5277 470.2177 793.4577V532.7177C452.1477 522.9477 439.4577 503.9077 439.4577 481.4477Z"/>
</svg>