<?xml version="1.0" encoding="UTF-8" standalone="no"?>
<svg xmlns="http://www.w3.org/2000/svg"
     width="996.09375" height="996.09375"
     viewBox="0 0 996.09375 996.09375"
     fill="currentColor">
  <path d="M498.0477 996.0959C770.5077 996.0959 996.0977 770.0159 996.0977 498.0459C996.0977 225.5859 770.0177 -0.0041 497.5577 -0.0041C225.5877 -0.0041 -0.0023 225.5859 -0.0023 498.0459C-0.0023 770.0159 226.0777 996.0959 498.0477 996.0959ZM498.0477 913.0859C267.5777 913.0859 83.4977 728.5159 83.4977 498.0459C83.4977 267.5759 267.0877 83.0059 497.5577 83.0059C728.0277 83.0059 913.0877 267.5759 913.0877 498.0459C913.0877 728.5159 728.5177 913.0859 498.0477 913.0859ZM747.5577 483.3959C747.5577 542.9659 727.0477 597.6559 688.9677 638.6759C676.2677 653.8059 674.8077 669.9259 685.5477 681.6359C696.7777 694.8259 716.3077 693.8459 728.5177 680.1759C777.8277 626.9559 804.6877 557.6159 804.6877 483.3959C804.6877 409.1759 777.3477 339.8459 728.5177 286.6259C716.3077 272.4559 696.7777 271.9759 685.0577 285.1559C674.8077 296.8759 676.2677 313.4759 688.9677 328.1259C727.0477 369.6259 747.5577 423.8259 747.5577 483.3959ZM190.9177 483.3959C190.9177 557.6159 217.2877 626.9559 266.5977 680.1759C278.8077 693.8459 298.3377 694.8259 309.5677 681.6359C320.3077 669.9259 318.8477 653.8059 306.6377 638.6759C268.5577 597.6559 248.0477 542.9659 248.0477 483.3959C248.0477 423.8259 268.5577 369.6259 306.6377 328.1259C318.8477 313.4759 320.3077 296.8759 310.0577 285.1559C298.3377 271.9759 278.8077 272.4559 266.5977 286.6259C217.7777 339.8459 190.9177 409.1759 190.9177 483.3959ZM310.0577 483.3959C310.0577 525.3859 324.7077 565.9159 350.5877 598.1459C361.8177 613.2859 383.2977 614.2559 395.0177 600.5859C405.2777 589.3559 403.8077 574.7059 391.5977 558.1059C375.4877 538.0859 367.1877 512.6959 367.1877 483.3959C367.1877 455.5659 375.9777 429.6859 392.0877 408.2059C403.8077 392.0859 404.7877 377.4459 395.0177 366.2059C382.8077 352.5359 361.8177 353.5159 350.5877 368.6559C324.7077 400.8759 310.0577 441.4059 310.0577 483.3959ZM627.9277 483.3959C627.9277 512.6959 619.6277 538.0859 603.5177 558.1059C591.3077 574.7059 589.8477 589.3559 600.0977 600.5859C611.8177 614.2559 633.2977 613.2859 644.5277 598.1459C670.4077 565.9159 685.0577 525.3859 685.0577 483.3959C685.0577 441.4059 670.4077 400.8759 644.5277 368.6559C633.2977 353.5159 612.3077 352.5359 600.0977 366.2059C590.3277 377.4459 591.7977 392.0859 603.5177 408.2059C619.1377 429.6859 627.9277 455.5659 627.9277 483.3959ZM440.9177 483.3959C440.9177 504.8859 453.1277 522.9459 470.7077 532.2259V786.1359C470.7077 803.2259 481.9377 815.4259 497.5577 815.4259C513.6677 815.4259 524.8977 803.7059 524.8977 786.1359V532.2259C541.9877 522.9459 554.1977 504.3959 554.1977 483.3959C554.1977 451.6559 529.2977 426.7559 497.5577 426.7559C466.3077 426.7559 440.9177 451.6559 440.9177 483.3959Z"/>
</svg>