<?xml version="1.0" encoding="UTF-8" standalone="no"?>
<svg xmlns="http://www.w3.org/2000/svg"
     width="888.671875" height="888.18359375"
     viewBox="0 0 888.671875 888.18359375"
     fill="currentColor">
  <path d="M831.5383 57.615C881.3483 106.935 888.6683 176.755 888.6683 260.255V428.715H653.8083C719.7283 399.415 765.6283 344.725 765.6283 279.295C765.6283 203.125 709.4683 146.485 634.2783 146.485C568.8483 146.485 510.2583 187.495 476.0783 254.395V-0.005H627.9283C711.4283 -0.005 781.7383 7.815 831.5383 57.615ZM387.2083 420.895C284.1783 420.895 196.7783 350.585 196.7783 284.665C196.7783 246.095 220.6983 221.195 258.2983 221.195C335.4483 221.195 402.8283 307.125 402.8283 405.765V420.895ZM501.4683 420.895H485.8383V405.765C485.8383 307.125 552.7383 221.195 630.3683 221.195C667.9683 221.195 691.4083 246.095 691.4083 284.665C691.4083 350.585 604.0083 420.895 501.4683 420.895ZM-0.0017 428.715V258.785C-0.0017 177.245 7.3283 107.425 57.1283 57.615C106.9383 7.815 177.2483 -0.005 259.2783 -0.005H412.1083V254.395C377.9283 187.495 319.3383 146.485 254.3983 146.485C178.7083 146.485 123.0483 203.125 123.0483 279.295C123.0483 344.725 168.4583 399.415 234.3783 428.715ZM729.4883 650.875C657.2283 643.555 557.1283 549.315 526.8583 486.815H888.6683V627.925C888.6683 711.425 881.3483 780.765 831.5383 830.565C781.7383 880.375 711.4283 888.185 627.9283 888.185H476.0783V522.945H479.9783C514.1583 630.375 643.0683 724.605 723.1483 736.325C752.9283 740.235 771.4883 718.745 771.4883 696.285C771.4883 670.415 756.3483 653.325 729.4883 650.875ZM57.1283 830.565C7.3283 780.765 -0.0017 711.425 -0.0017 627.925V486.815H361.3283C331.0583 549.315 231.4483 642.575 159.1783 650.875C131.8383 653.805 116.6983 670.415 116.6983 696.285C116.6983 718.745 135.2583 740.235 165.0383 736.325C245.6083 724.605 374.5083 630.375 408.6883 522.945H412.1083V888.185H260.2583C177.2483 888.185 106.9383 880.375 57.1283 830.565Z"/>
</svg>