<?xml version="1.0" encoding="UTF-8" standalone="no"?>
<svg xmlns="http://www.w3.org/2000/svg"
     width="875" height="874.0234375"
     viewBox="0 0 875 874.0234375"
     fill="currentColor">
  <path d="M563.4783 0.0008H311.5283C296.8783 0.0008 284.6683 12.2108 284.6683 26.8508C284.6683 41.5008 296.8783 54.2008 311.5283 54.2008H563.4783C578.1283 54.2008 590.3283 41.5008 590.3283 26.8508C590.3283 12.2108 578.1283 0.0008 563.4783 0.0008ZM70.3083 69.8208C34.1783 105.9608 7.3283 161.6208 5.8583 207.0308C5.3683 223.6308 15.1383 235.3508 31.2483 235.3508C45.8983 235.3508 55.6683 227.0508 58.5983 212.4008C65.9183 170.9008 79.5883 136.7208 107.9083 107.4208C140.6283 76.1708 171.3883 66.4108 215.3283 57.1308C229.0083 53.7108 237.3083 44.4308 237.3083 31.7408C237.3083 16.1108 226.0783 5.3708 209.9583 5.3708C167.4783 5.8608 109.3783 30.7608 70.3083 69.8208ZM804.1983 69.8208C765.6283 30.7608 707.5183 5.8608 665.0383 5.3708C648.4383 5.3708 637.6983 16.1108 637.6983 31.7408C637.6983 44.4308 645.5083 53.7108 659.1783 57.1308C701.6583 65.9208 733.8883 75.6808 767.0883 107.4208C795.4083 136.7208 808.5983 170.9008 816.4083 212.4008C819.3383 227.0508 828.6183 235.3508 843.7483 235.3508C859.3783 235.3508 869.6283 223.6308 869.1383 207.0308C867.6783 161.6208 840.8183 105.9608 804.1983 69.8208ZM718.7483 156.2508C682.1283 119.6308 631.3483 114.2608 570.7983 114.2608H303.2183C243.6483 114.2608 192.8683 120.1208 156.2483 156.2508C120.1183 192.3808 114.7483 242.6708 114.7483 302.2508V570.3108C114.7483 630.8608 120.1183 681.1508 156.2483 717.2808C192.8683 753.4208 243.6483 759.2808 304.1983 759.2808H570.7983C631.3483 759.2808 682.6183 753.4208 718.7483 717.2808C754.8783 681.1508 760.2583 630.8608 760.2583 570.3108V303.2208C760.2583 242.6708 754.8783 191.8908 718.7483 156.2508ZM874.9983 563.9608V311.5208C874.9983 296.8708 862.3083 284.6708 847.6583 284.6708C833.0083 284.6708 820.7983 296.8708 820.7983 311.5208V563.9608C820.7983 578.6108 833.0083 590.8208 847.6583 590.8208C862.3083 590.8208 874.9983 578.6108 874.9983 563.9608ZM-0.0017 311.5208V563.9608C-0.0017 578.6108 12.2083 590.8208 27.3483 590.8208C41.9883 590.8208 54.1983 578.6108 54.1983 563.9608V311.5208C54.1983 296.8708 41.9883 284.6708 27.3483 284.6708C12.2083 284.6708 -0.0017 296.8708 -0.0017 311.5208ZM804.1983 804.2008C840.8183 768.0708 867.6783 712.4008 869.1383 666.9908C869.6283 650.3908 859.3783 638.6708 843.7483 638.6708C828.6183 638.6708 819.3383 646.9708 816.4083 661.6208C808.5983 703.1208 795.4083 736.8208 767.0883 766.6008C734.3783 797.8508 703.1283 807.6208 659.1783 816.8908C645.5083 819.8208 637.6983 829.5908 637.6983 842.2808C637.6983 857.9108 648.4383 868.6508 665.0383 868.6508C707.5183 868.1608 765.6283 843.2608 804.1983 804.2008ZM70.3083 804.2008C109.3783 843.2608 167.4783 868.1608 209.9583 868.6508C226.0783 868.6508 237.3083 857.9108 237.3083 842.2808C237.3083 829.5908 229.0083 819.8208 215.3283 816.8908C172.8483 808.1008 141.1183 798.3408 107.9083 766.6008C79.5883 736.8208 65.9183 703.1208 58.5983 661.6208C55.6683 646.9708 45.8983 638.6708 31.2483 638.6708C15.1383 638.6708 5.3683 650.3908 5.8583 666.9908C7.3283 712.4008 34.1783 768.0708 70.3083 804.2008ZM311.5283 874.0208H563.4783C578.1283 874.0208 590.3283 861.8208 590.3283 847.1708C590.3283 832.5208 578.1283 819.8208 563.4783 819.8208H311.5283C296.8783 819.8208 284.6683 832.5208 284.6683 847.1708C284.6683 861.8208 296.8783 874.0208 311.5283 874.0208Z"/>
</svg>