<?xml version="1.0" encoding="UTF-8" standalone="no"?>
<svg xmlns="http://www.w3.org/2000/svg"
     width="950.1953125" height="1025.390625"
     viewBox="0 0 950.1953125 1025.390625"
     fill="currentColor">
  <path d="M482.9077 1025.3944C741.2077 1025.3944 950.1977 795.8944 950.1977 512.6944C950.1977 229.4944 741.2077 0.0044 482.9077 0.0044C344.2377 0.0044 218.2577 66.4044 132.3277 174.3144C123.5377 185.0544 120.1177 195.3144 120.1177 205.0744C120.1177 226.0744 139.1577 240.7244 159.6677 240.7244C171.3877 240.7244 183.5977 235.8444 192.3877 224.6044C263.6677 133.7844 369.1377 78.6144 482.9077 78.6144C697.2677 78.6144 871.0977 272.9444 871.0977 512.6944C871.0977 752.4444 697.2677 946.7744 482.9077 946.7744C369.1377 946.7744 263.6677 891.1144 192.3877 800.7844C183.5977 789.5544 171.3877 784.6644 159.6677 784.6644C139.1577 784.6644 120.1177 799.3144 120.1177 820.3144C120.1177 829.5944 123.5377 840.3344 132.3277 851.0744C218.2577 958.9844 344.2377 1025.3944 482.9077 1025.3944ZM-0.0023 762.6944C-0.0023 824.7044 49.3177 873.5344 107.9077 876.4644C92.2877 856.9344 84.4777 838.3744 84.4777 821.2844C84.4777 780.7644 122.0677 749.0244 161.1377 749.0244C191.8977 749.0244 207.5177 764.6444 228.0277 789.5544C229.9777 780.7644 230.9577 771.9744 230.9577 762.6944V262.2044C230.9577 252.9344 229.9777 244.6244 228.0277 235.8444C208.4977 259.2744 192.8677 275.8744 161.6177 275.8744C122.0677 275.8744 84.4777 244.6244 84.4777 204.1044C84.4777 187.0144 92.2877 168.9444 107.9077 148.9244C49.8077 151.8544 -0.0023 200.1944 -0.0023 262.2044ZM116.2077 506.3444C72.7577 506.3444 37.1077 471.1944 37.1077 428.2244C37.1077 384.7644 72.7577 349.6044 116.2077 349.6044C158.2077 349.6044 193.8477 385.2544 193.8477 428.2244C193.8477 471.1944 158.6877 506.3444 116.2077 506.3444ZM116.2077 467.7744C138.1877 467.7744 155.2777 450.6844 155.2777 428.2244C155.2777 405.7644 138.1877 388.1844 116.2077 388.1844C92.7777 388.1844 75.6877 405.7644 75.6877 428.2244C75.6877 450.6844 92.7777 467.7744 116.2077 467.7744Z"/>
</svg>