<?xml version="1.0" encoding="UTF-8" standalone="no"?>
<svg xmlns="http://www.w3.org/2000/svg"
     width="475.5859375" height="1078.61328125"
     viewBox="0 0 475.5859375 1078.61328125"
     fill="currentColor">
  <path d="M127.4383 1078.6164H348.6283C426.2683 1078.6164 475.5883 1030.7664 475.5883 957.0264V121.5864C475.5883 47.8564 426.2683 -0.0036 348.6283 -0.0036H127.4383C49.3183 -0.0036 -0.0017 47.8564 -0.0017 121.5864V957.0264C-0.0017 1030.7664 49.3183 1078.6164 127.4383 1078.6164ZM135.7383 1007.3264C96.6783 1007.3264 72.2683 983.8864 72.2683 946.7764V132.3264C72.2683 94.7264 96.6783 71.2864 135.7383 71.2864H339.8483C379.3983 71.2864 403.3183 94.7264 403.3183 132.3264V946.7764C403.3183 983.8864 379.3983 1007.3264 339.8483 1007.3264ZM237.7883 411.1364C314.9383 411.1364 377.4383 348.6364 377.4383 271.9764C377.4383 194.3364 314.9383 132.3264 237.7883 132.3264C160.6483 132.3264 98.6283 194.3364 98.6283 271.9764C98.6283 348.6364 160.6483 411.1364 237.7883 411.1364ZM167.9683 552.7364C197.7583 552.7364 221.6783 528.3164 221.6783 499.0264C221.6783 469.2364 197.7583 445.3164 167.9683 445.3164C138.1883 445.3164 114.2583 469.2364 114.2583 499.0264C114.2583 528.3164 138.1883 552.7364 167.9683 552.7364ZM308.1083 552.7364C337.8883 552.7364 361.3283 528.3164 361.3283 499.0264C361.3283 469.2364 337.8883 445.3164 308.1083 445.3164C278.3183 445.3164 254.3983 469.2364 254.3983 499.0264C254.3983 528.3164 278.3183 552.7364 308.1083 552.7364ZM167.9683 688.4764C197.7583 688.4764 221.6783 664.0664 221.6783 634.2764C221.6783 604.9764 197.7583 580.5664 167.9683 580.5664C138.1883 580.5664 114.2583 604.9764 114.2583 634.2764C114.2583 664.0664 138.1883 688.4764 167.9683 688.4764ZM307.6183 823.7264C335.9383 823.7264 358.8883 801.2664 358.8883 772.9464V631.3464C358.8883 603.0264 335.9383 580.5664 307.6183 580.5664C279.7883 580.5664 257.3283 603.0264 257.3283 631.3464V772.9464C257.3283 800.2964 279.7883 823.7264 307.6183 823.7264ZM167.9683 823.7264C197.7583 823.7264 221.6783 799.3164 221.6783 770.0164C221.6783 740.2364 197.7583 715.8164 167.9683 715.8164C138.1883 715.8164 114.2583 740.2364 114.2583 770.0164C114.2583 799.3164 138.1883 823.7264 167.9683 823.7264Z"/>
</svg>