<?xml version="1.0" encoding="UTF-8" standalone="no"?>
<svg xmlns="http://www.w3.org/2000/svg"
     width="833.4358343529726" height="1045.41015625"
     viewBox="0 0 833.4358343529726 1045.41015625"
     fill="currentColor">
  <path d="M302.6101 0C269.9001 0 247.9201 15.14 238.6501 46.39L223.0201 99.12C215.2101 125 201.0501 142.09 184.4501 155.27L253.7801 224.61C266.9701 221.19 281.6201 219.24 297.2401 219.24H559.9401C631.2301 219.24 673.7101 263.18 673.7101 335.94V620.12C673.7101 627.93 673.7101 635.74 673.7101 643.55L744.0201 714.36C744.5101 703.12 745.0001 691.89 745.0001 680.18V488.28H751.8301C777.2201 488.28 793.8201 471.19 793.8201 443.36V377.44C793.8201 349.61 777.2201 332.52 751.8301 332.52H745.0001V325.2C745.0001 249.51 715.2101 194.34 660.0301 163.57C633.1801 149.41 617.0701 131.35 607.7901 99.12L591.6701 46.39C582.8901 15.62 561.4001 0 528.2001 0ZM769.4101 928.22C784.0601 943.36 807.9801 943.36 822.6301 928.22C836.7901 913.57 837.2801 890.14 822.6301 875L64.3301 117.19C49.6801 102.54 25.7601 102.05 10.6201 117.19C-3.5399 131.35 -3.5399 156.25 10.6201 170.41ZM302.6101 1045.41H528.2001C561.8901 1045.41 582.8901 1030.76 591.6701 999.02L607.7901 946.78C614.6201 922.85 624.8801 907.71 641.4801 895.02C643.4301 893.55 645.3901 892.09 647.3401 890.14L577.5101 820.8C561.4001 824.22 543.3301 826.17 523.8001 826.17H270.8701C199.5801 826.17 157.1001 782.23 157.1001 709.96V416.5C157.1001 411.13 157.1001 405.76 157.5901 400.88L86.3001 330.08C86.3001 335.45 85.8201 341.31 85.8201 347.17V720.21C85.8201 795.9 115.6001 851.56 170.7801 881.84C197.6301 896 213.7501 914.06 223.0201 946.78L238.6501 999.02C247.9201 1030.27 269.9001 1045.41 302.6101 1045.41Z"/>
</svg>