<?xml version="1.0" encoding="UTF-8" standalone="no"?>
<svg xmlns="http://www.w3.org/2000/svg"
     width="507.32421875" height="1078.61328125"
     viewBox="0 0 507.32421875 1078.61328125"
     fill="currentColor">
  <path d="M127.4383 1078.6164H380.3683C458.0083 1078.6164 507.3283 1030.7664 507.3283 957.0264V121.5864C507.3283 47.8564 458.0083 -0.0036 380.3683 -0.0036H127.4383C49.3183 -0.0036 -0.0017 47.8564 -0.0017 121.5864V957.0264C-0.0017 1030.7664 49.3183 1078.6164 127.4383 1078.6164ZM135.7383 1007.3264C96.6783 1007.3264 72.2683 983.8864 72.2683 946.7764V132.3264C72.2683 94.7264 96.6783 71.2864 135.7383 71.2864H371.5783C410.6483 71.2864 435.0583 94.7264 435.0583 132.3264V946.7764C435.0583 983.8864 410.6483 1007.3264 371.5783 1007.3264ZM174.8083 442.8664C206.5383 442.8664 231.9383 416.9964 231.9383 385.7464C231.9383 354.4964 206.5383 328.6164 174.8083 328.6164C143.5583 328.6164 117.6783 354.4964 117.6783 385.7464C117.6783 416.9964 143.5583 442.8664 174.8083 442.8664ZM333.4983 442.8664C364.7483 442.8664 390.6283 416.9964 390.6283 385.7464C390.6283 354.4964 364.7483 328.6164 333.4983 328.6164C301.7583 328.6164 276.3683 354.4964 276.3683 385.7464C276.3683 416.9964 301.7583 442.8664 333.4983 442.8664ZM174.8083 597.6564C206.5383 597.6564 231.9383 571.7764 231.9383 540.5264C231.9383 508.7864 206.5383 483.3964 174.8083 483.3964C143.5583 483.3964 117.6783 508.7864 117.6783 540.5264C117.6783 571.7764 143.5583 597.6564 174.8083 597.6564ZM333.0083 751.9564C363.2783 751.9564 388.1883 728.0264 388.1883 697.2664V537.5964C388.1883 507.3264 363.2783 483.3964 333.0083 483.3964C303.2183 483.3964 279.2983 507.3264 279.2983 537.5964V697.2664C279.2983 728.0264 303.2183 751.9564 333.0083 751.9564ZM174.8083 751.9564C206.5383 751.9564 231.9383 726.5664 231.9383 694.8264C231.9383 663.5764 206.5383 637.6964 174.8083 637.6964C143.5583 637.6964 117.6783 663.5764 117.6783 694.8264C117.6783 726.5664 143.5583 751.9564 174.8083 751.9564Z"/>
</svg>