<?xml version="1.0" encoding="UTF-8" standalone="no"?>
<svg xmlns="http://www.w3.org/2000/svg"
     width="490.234375" height="1078.61328125"
     viewBox="0 0 490.234375 1078.61328125"
     fill="currentColor">
  <path d="M-0.0017 973.1464C-0.0017 1037.5964 42.9683 1078.6164 111.3283 1078.6164H378.9083C446.7783 1078.6164 490.2383 1037.5964 490.2383 973.1464V105.4664C490.2383 41.5064 446.7783 -0.0036 378.9083 -0.0036H111.3283C42.9683 -0.0036 -0.0017 41.5064 -0.0017 105.4664ZM72.2683 962.8864V115.7264C72.2683 88.3764 90.3283 71.2864 119.6283 71.2864H370.6083C399.8983 71.2864 417.9683 88.3764 417.9683 115.7264V962.8864C417.9683 990.2364 399.8983 1007.3264 370.6083 1007.3264H119.6283C90.3283 1007.3264 72.2683 990.2364 72.2683 962.8864ZM245.1183 403.8064C320.3083 403.8064 380.8583 343.2664 380.8583 268.0664C380.8583 192.8664 320.3083 132.3264 245.1183 132.3264C170.4083 132.3264 109.3783 192.8664 109.3783 268.0664C109.3783 343.2664 170.4083 403.8064 245.1183 403.8064ZM245.6083 322.7564C215.3283 322.7564 190.4283 298.3364 190.4283 268.0664C190.4283 237.7964 215.3283 213.3764 245.6083 213.3764C275.8783 213.3764 300.2883 237.7964 300.2883 268.0664C300.2883 298.3364 275.8783 322.7564 245.6083 322.7564ZM166.9883 579.1064C198.2383 579.1064 223.6283 553.2264 223.6283 521.9764C223.6283 490.7264 198.2383 464.8464 166.9883 464.8464C135.2583 464.8464 109.3783 490.7264 109.3783 521.9764C109.3783 553.2264 135.2583 579.1064 166.9883 579.1064ZM324.2183 579.1064C355.4683 579.1064 380.8583 553.2264 380.8583 521.9764C380.8583 490.7264 355.4683 464.8464 324.2183 464.8464C292.4783 464.8464 266.5983 490.7264 266.5983 521.9764C266.5983 553.2264 292.4783 579.1064 324.2183 579.1064Z"/>
</svg>