<?xml version="1.0" encoding="UTF-8" standalone="no"?>
<svg xmlns="http://www.w3.org/2000/svg"
     width="431.640625" height="1078.61328125"
     viewBox="0 0 431.640625 1078.61328125"
     fill="currentColor">
  <path d="M114.7483 1078.6098H317.3783C389.6483 1078.6098 431.6383 1036.1298 431.6383 963.8698V114.7498C431.6383 42.4798 389.6483 -0.0002 317.3783 -0.0002H114.7483C41.9883 -0.0002 -0.0017 42.4798 -0.0017 114.7498V963.8698C-0.0017 1036.1298 41.9883 1078.6098 114.7483 1078.6098ZM215.8183 391.5998C131.8383 391.5998 63.9683 324.2198 63.9683 239.7498C63.9683 155.7598 131.8383 88.3798 215.8183 88.3798C300.2883 88.3798 368.1683 155.7598 368.1683 239.7498C368.1683 324.2198 300.2883 391.5998 215.8183 391.5998ZM140.6283 541.0198C110.3483 541.0198 85.9383 516.5998 85.9383 485.8398C85.9383 455.5698 109.8683 431.1498 140.6283 431.1498C171.3883 431.1498 196.2883 455.5698 196.2883 485.8398C196.2883 516.5998 170.8983 541.0198 140.6283 541.0198ZM291.9883 541.0198C260.7383 541.0198 235.8383 516.5998 235.8383 485.8398C235.8383 455.5698 260.7383 431.1498 291.9883 431.1498C322.2683 431.1498 346.1883 455.5698 346.1883 485.8398C346.1883 516.1098 321.7783 541.0198 291.9883 541.0198ZM140.6283 686.0398C110.3483 686.0398 85.9383 661.6198 85.9383 631.3498C85.9383 601.0698 110.3483 576.1698 140.6283 576.1698C171.3883 576.1698 196.2883 600.5898 196.2883 631.3498C196.2883 662.1098 171.3883 686.0398 140.6283 686.0398ZM291.0183 831.5398C262.6983 831.5398 239.2583 808.1098 239.2583 780.2698V627.9298C239.2583 599.1198 262.2083 576.1698 291.0183 576.1698C319.8283 576.1698 343.7483 599.6098 343.7483 627.9298V780.2698C343.7483 808.5898 319.8283 831.5398 291.0183 831.5398ZM140.6283 831.5398C110.3483 831.5398 85.9383 807.1298 85.9383 776.8598C85.9383 746.0898 110.3483 720.6998 140.6283 720.6998C170.8983 720.6998 196.2883 746.0898 196.2883 776.8598C196.2883 807.6198 171.3883 831.5398 140.6283 831.5398Z"/>
</svg>