<?xml version="1.0" encoding="UTF-8" standalone="no"?>
<svg xmlns="http://www.w3.org/2000/svg"
     width="776.5515314687548" height="1200.68359375"
     viewBox="0 0 776.5515314687548 1200.68359375"
     fill="currentColor">
  <path d="M113.7683 363.765C208.0083 363.765 275.8783 429.685 275.8783 514.645C275.8783 516.605 275.8783 520.995 275.3883 523.925C274.8983 541.015 292.9683 542.965 300.2883 535.645L582.5183 253.415C611.3283 224.605 626.9483 188.475 627.4383 149.905C627.4383 59.575 558.1083 -0.005 483.3983 -0.005C425.2883 -0.005 382.3283 26.855 336.9183 72.265L18.5583 390.135C47.3683 373.535 79.5883 363.765 113.7683 363.765ZM721.1883 832.035C799.8083 752.925 794.9183 660.155 705.0783 570.805L531.7383 396.975L280.2783 649.415C247.5583 681.645 199.7083 654.785 213.3783 610.835C220.2183 591.795 221.1883 571.285 221.1883 550.295C221.1883 471.195 169.4383 430.665 113.7683 430.665C39.0583 430.175 -0.0017 478.025 -0.0017 532.225C-0.0017 570.805 20.0183 607.425 46.8783 633.785L366.2083 953.125C406.2483 993.165 433.5983 1030.275 433.5983 1086.915C433.5983 1099.605 432.1283 1112.305 425.2883 1126.465C440.9183 1113.285 454.0983 1100.585 466.7983 1087.895ZM258.2983 1200.685C318.3583 1200.685 365.7183 1153.805 365.7183 1095.215C365.7183 1058.595 349.6083 1029.785 311.0383 990.725L249.0283 928.225C189.4483 969.725 143.5583 1015.625 143.5583 1090.335C143.5583 1154.785 191.8983 1200.685 258.2983 1200.685Z"/>
</svg>