<?xml version="1.0" encoding="UTF-8" standalone="no"?>
<svg xmlns="http://www.w3.org/2000/svg"
     width="1561.5234375" height="1045.41015625"
     viewBox="0 0 1561.5234375 1045.41015625"
     fill="currentColor">
  <path d="M437.4977 720.2117C437.4977 795.9017 467.2877 851.5617 522.9477 881.8317C549.3177 895.9917 564.9377 914.0617 575.1977 946.7817L590.8177 999.0217C599.6077 1030.2717 621.5777 1045.4117 654.2977 1045.4117H879.8877C914.0577 1045.4117 934.0777 1030.7617 943.8477 999.0217L959.4777 946.7817C969.7277 914.0617 984.8677 895.9917 1011.7177 881.8317C1066.8977 851.5617 1096.6777 795.9017 1096.6777 720.2117V488.2817H1104.0077C1128.9077 488.2817 1145.5077 471.1917 1145.5077 443.3617V377.4417C1145.5077 349.6117 1128.9077 332.5217 1104.0077 332.5217H1096.6777V325.1917C1096.6777 249.5117 1066.8977 194.3317 1011.7177 163.5717C984.8677 149.4117 969.7277 131.3517 959.4777 99.1217L943.8477 46.3817C935.0577 15.6217 913.5777 0.0017 879.8877 0.0017H654.2977C621.5777 0.0017 599.6077 15.1317 590.8177 46.3817L575.1977 99.1217C565.4277 130.8617 549.8077 149.9017 522.9477 163.5717C467.7777 192.8717 437.4977 248.5317 437.4977 325.1917ZM1373.0477 855.9617C1388.6677 874.0217 1416.0177 874.0217 1435.0577 853.5117C1516.1177 765.1317 1561.5277 648.4417 1561.5277 521.9717C1561.5277 395.5117 1516.1177 278.3217 1435.0577 190.4317C1416.0177 169.9217 1388.6677 169.4317 1373.0477 187.9917C1357.4177 205.5617 1362.3077 228.5117 1379.8877 248.5317C1445.3077 321.2917 1481.9377 416.9917 1481.9377 521.9717C1481.9377 626.9517 1445.3077 722.6517 1379.8877 795.4117C1362.3077 815.4317 1357.4177 838.3817 1373.0477 855.9617ZM188.4777 855.9617C204.0977 838.3817 199.2177 815.4317 181.6377 795.4117C116.2077 722.6517 79.5877 626.9517 79.5877 521.9717C79.5877 416.9917 116.2077 321.2917 181.6377 248.5317C199.2177 228.5117 204.0977 205.5617 188.4777 187.9917C172.8477 169.4317 145.5077 169.9217 126.9577 190.4317C45.8977 278.3217 -0.0023 395.5117 -0.0023 521.9717C-0.0023 648.4417 45.8977 765.1317 126.9577 853.5117C145.5077 874.0217 172.8477 874.0217 188.4777 855.9617ZM508.7877 709.9617V335.9417C508.7877 263.1817 551.2677 219.2417 622.5577 219.2417H912.1077C982.9077 219.2417 1025.3877 263.1817 1025.3877 335.9417V709.9617C1025.3877 782.2217 982.9077 826.1717 912.1077 826.1717H622.5577C551.2677 826.1717 508.7877 782.2217 508.7877 709.9617ZM325.1977 716.8017C340.8177 699.2217 334.4777 677.2417 318.8477 656.2517C289.5477 619.6317 275.3877 572.7517 275.3877 521.9717C275.3877 471.1917 289.5477 423.8317 318.8477 387.6917C334.4777 366.7017 340.8177 344.7217 325.1977 327.1517C309.0777 308.5917 279.7877 308.5917 262.6977 330.5617C220.2177 383.3017 195.7977 450.1917 195.7977 521.9717C195.7977 593.7517 220.2177 660.6417 262.6977 713.3817C279.7877 735.3517 309.0777 734.8617 325.1977 716.8017ZM1236.3277 716.8017C1252.4377 734.8617 1281.7377 735.3517 1298.8277 713.3817C1341.3077 660.6417 1366.2077 593.7517 1366.2077 521.9717C1366.2077 450.1917 1341.3077 383.3017 1298.8277 330.5617C1281.7377 308.5917 1252.4377 308.5917 1236.3277 327.1517C1220.7077 344.7217 1227.5377 366.7017 1242.6777 387.6917C1271.9777 423.8317 1286.6177 471.1917 1286.6177 521.9717C1286.6177 572.7517 1271.9777 619.6317 1242.6777 656.2517C1227.5377 677.2417 1220.7077 699.2217 1236.3277 716.8017Z"/>
</svg>