<?xml version="1.0" encoding="UTF-8" standalone="no"?>
<svg xmlns="http://www.w3.org/2000/svg"
     width="1034.1796875" height="1186.5234375"
     viewBox="0 0 1034.1796875 1186.5234375"
     fill="currentColor">
  <path d="M518.067 103.5108C547.367 103.5108 569.337 81.0508 569.337 51.7608C569.337 22.9508 546.877 0.0008 518.067 0.0008C489.747 0.0008 466.307 23.4408 466.307 51.7608C466.307 80.5708 489.257 103.5108 518.067 103.5108ZM284.667 237.7908C313.967 237.7908 336.427 215.3308 336.427 186.0308C336.427 157.2308 313.477 134.2808 284.667 134.2808C256.837 134.2808 232.907 157.7108 232.907 186.0308C232.907 214.8408 255.857 237.7908 284.667 237.7908ZM750.977 237.7908C780.277 237.7908 802.737 215.3308 802.737 186.0308C802.737 157.2308 779.787 134.2808 750.977 134.2808C723.147 134.2808 699.217 157.7108 699.217 186.0308C699.217 214.8408 722.167 237.7908 750.977 237.7908ZM518.067 392.0908C556.637 392.0908 587.407 361.3308 587.407 322.2608C587.407 284.1808 556.157 252.9308 518.067 252.9308C479.977 252.9308 448.247 284.6708 448.247 322.2608C448.247 360.8408 479.497 392.0908 518.067 392.0908ZM51.757 374.0208C81.057 374.0208 103.027 351.5608 103.027 322.2608C103.027 293.9408 80.567 271.0008 51.757 271.0008C23.437 271.0008 -0.003 294.4308 -0.003 322.2608C-0.003 351.0708 22.947 374.0208 51.757 374.0208ZM982.417 374.0208C1011.717 374.0208 1034.177 351.5608 1034.177 322.2608C1034.177 293.4608 1011.227 271.0008 982.417 271.0008C954.097 271.0008 930.667 294.4308 930.667 322.2608C930.667 351.0708 953.617 374.0208 982.417 374.0208ZM284.667 527.3408C323.727 527.3408 354.497 496.5808 354.497 457.5208C354.497 418.9408 323.247 387.6908 284.667 387.6908C247.067 387.6908 215.337 419.9208 215.337 457.5208C215.337 496.0908 246.587 527.3408 284.667 527.3408ZM750.977 527.3408C790.037 527.3408 820.797 496.5808 820.797 457.5208C820.797 418.9408 789.547 387.6908 750.977 387.6908C713.377 387.6908 681.637 419.9208 681.637 457.5208C681.637 496.0908 712.887 527.3408 750.977 527.3408ZM518.067 674.8008C563.477 674.8008 599.607 638.6708 599.607 593.2608C599.607 548.3408 562.497 511.7208 518.067 511.7208C473.637 511.7208 436.527 548.8308 436.527 593.2608C436.527 637.6908 473.147 674.8008 518.067 674.8008ZM51.757 645.0208C80.567 645.0208 103.027 622.0708 103.027 593.2608C103.027 564.4508 80.567 541.5008 51.757 541.5008C23.437 541.5008 -0.003 564.9408 -0.003 593.2608C-0.003 622.0708 22.947 645.0208 51.757 645.0208ZM982.417 645.0208C1011.717 645.0208 1034.177 622.5608 1034.177 593.2608C1034.177 564.4508 1011.227 541.5008 982.417 541.5008C954.097 541.5008 930.667 564.9408 930.667 593.2608C930.667 622.0708 953.617 645.0208 982.417 645.0208ZM284.667 798.8308C323.727 798.8308 354.497 768.0708 354.497 729.0008C354.497 690.4308 323.247 659.1808 284.667 659.1808C247.067 659.1808 215.337 690.9208 215.337 729.0008C215.337 767.0908 246.587 798.8308 284.667 798.8308ZM750.977 798.8308C790.037 798.8308 820.797 768.0708 820.797 729.0008C820.797 690.4308 789.547 659.1808 750.977 659.1808C713.377 659.1808 681.637 690.9208 681.637 729.0008C681.637 767.0908 712.887 798.8308 750.977 798.8308ZM518.067 933.5908C556.637 933.5908 587.407 902.8308 587.407 863.7708C587.407 825.6808 556.157 794.4308 518.067 794.4308C480.467 794.4308 448.247 826.1708 448.247 863.7708C448.247 902.3408 479.497 933.5908 518.067 933.5908ZM51.757 915.5308C81.057 915.5308 103.027 893.0708 103.027 863.7708C103.027 835.4508 80.567 812.5008 51.757 812.5008C23.437 812.5008 -0.003 835.9408 -0.003 863.7708C-0.003 892.5808 22.947 915.5308 51.757 915.5308ZM982.417 915.5308C1011.717 915.5308 1034.177 893.5508 1034.177 863.7708C1034.177 835.4508 1011.227 812.5008 982.417 812.5008C954.097 812.5008 930.667 835.9408 930.667 863.7708C930.667 892.5808 953.617 915.5308 982.417 915.5308ZM284.667 1051.7608C313.967 1051.7608 336.427 1029.7808 336.427 1000.4908C336.427 971.6808 313.477 948.7308 284.667 948.7308C256.837 948.7308 232.907 972.1708 232.907 1000.4908C232.907 1029.3008 255.857 1051.7608 284.667 1051.7608ZM750.977 1051.7608C780.277 1051.7608 802.737 1029.7808 802.737 1000.4908C802.737 971.6808 779.787 948.7308 750.977 948.7308C723.147 948.7308 699.217 972.1708 699.217 1000.4908C699.217 1029.3008 722.167 1051.7608 750.977 1051.7608ZM518.067 1186.5208C547.367 1186.5208 569.337 1164.0608 569.337 1134.7608C569.337 1105.9608 546.877 1083.0108 518.067 1083.0108C489.747 1083.0108 466.307 1106.4408 466.307 1134.7608C466.307 1163.5708 489.257 1186.5208 518.067 1186.5208Z"/>
</svg>