<?xml version="1.0" encoding="UTF-8" standalone="no"?>
<svg xmlns="http://www.w3.org/2000/svg"
     width="1272.4609375" height="1211.42578125"
     viewBox="0 0 1272.4609375 1211.42578125"
     fill="currentColor">
  <path d="M530.2723 128.4161C566.8923 128.4161 594.7223 100.5861 594.7223 64.4561C594.7223 28.8061 565.9223 -0.0039 530.2723 -0.0039C495.6023 -0.0039 466.3123 29.2961 466.3123 64.4561C466.3123 100.0961 495.1123 128.4161 530.2723 128.4161ZM297.3623 263.1861C333.4923 263.1861 361.3323 234.8661 361.3323 198.7261C361.3323 163.0861 333.0123 134.7661 297.3623 134.7661C262.2023 134.7661 233.4023 163.5761 233.4023 198.7261C233.4023 234.3761 261.7223 263.1861 297.3623 263.1861ZM763.6723 263.1861C799.8023 263.1861 827.6323 234.8661 827.6323 198.7261C827.6323 163.0861 799.3123 134.7661 763.6723 134.7661C728.5123 134.7661 699.7023 163.5761 699.7023 198.7261C699.7023 234.3761 728.0323 263.1861 763.6723 263.1861ZM530.2723 417.4761C576.1723 417.4761 612.7923 380.8561 612.7923 334.9561C612.7923 290.0361 575.6823 252.9261 530.2723 252.9261C485.8423 252.9261 448.2423 290.5261 448.2423 334.9561C448.2423 380.3661 485.3523 417.4761 530.2723 417.4761ZM64.4523 399.4161C100.5823 399.4161 128.4223 371.0961 128.4223 334.9561C128.4223 299.3161 99.6123 270.9961 64.4523 270.9961C29.2923 270.9961 0.0023 299.8061 0.0023 334.9561C0.0023 370.6061 28.8123 399.4161 64.4523 399.4161ZM995.1123 399.4161C1031.2523 399.4161 1059.0823 371.0961 1059.0823 334.9561C1059.0823 299.3161 1030.7623 270.9961 995.1123 270.9961C959.9623 270.9961 930.6623 300.2961 930.6623 334.9561C930.6623 370.6061 959.4723 399.4161 995.1123 399.4161ZM297.3623 552.2461C343.2623 552.2461 379.3923 516.1161 379.3923 470.2161C379.3923 424.8061 342.2823 388.1861 297.3623 388.1861C252.9323 388.1861 215.3323 425.7861 215.3323 470.2161C215.3323 515.6261 251.9523 552.2461 297.3623 552.2461ZM763.6723 552.2461C809.5723 552.2461 845.7023 516.1161 845.7023 470.2161C845.7023 424.8061 808.5923 388.1861 763.6723 388.1861C719.2423 388.1861 681.6423 425.7861 681.6423 470.2161C681.6423 515.6261 718.2623 552.2461 763.6723 552.2461ZM530.2723 699.7061C582.5223 699.7061 624.5123 658.2061 624.5123 605.9561C624.5123 554.1961 582.0323 512.2061 530.2723 512.2061C479.4923 512.2061 436.5223 554.6861 436.5223 605.9561C436.5223 657.7161 479.0023 699.7061 530.2723 699.7061ZM64.4523 669.9261C100.5823 669.9261 128.4223 642.0861 128.4223 605.9561C128.4223 570.3161 99.6123 541.9961 64.4523 541.9961C29.2923 541.9961 0.0023 570.7961 0.0023 605.9561C0.0023 641.6061 28.8123 669.9261 64.4523 669.9261ZM1053.7123 631.3461C1057.1323 623.5361 1059.0823 614.7461 1059.0823 605.9561C1059.0823 570.3161 1030.7623 541.9961 995.1123 541.9961C959.9623 541.9961 930.6623 570.7961 930.6623 605.9561C930.6623 613.7661 932.6123 622.0661 936.0323 630.8561C954.1023 622.5561 974.1223 617.1861 995.1123 617.1861C1015.6223 617.1861 1036.1323 622.5561 1053.7123 631.3461ZM297.3623 823.7261C342.7723 823.7261 379.3923 787.5961 379.3923 741.6961C379.3923 696.2861 342.2823 659.1761 297.3623 659.1761C252.9323 659.1761 215.3323 696.7761 215.3323 741.6961C215.3323 786.6161 252.4423 823.7261 297.3623 823.7261ZM763.6723 823.7261C776.8523 823.7261 789.0623 820.3161 799.8023 814.9461L844.7223 733.8861V731.4461C839.8423 690.9161 805.6623 659.1761 763.6723 659.1761C719.2423 659.1761 681.6423 696.7761 681.6423 741.6961C681.6423 786.6161 718.7523 823.7261 763.6723 823.7261ZM783.2023 1193.3561H1206.0523C1246.5823 1193.3561 1272.4623 1165.0361 1272.4623 1127.9261C1272.4623 1116.6961 1269.5323 1105.9561 1263.1823 1095.2161L1051.2723 717.2861C1038.5723 694.8261 1016.6023 684.0861 995.1123 684.0861C972.6523 684.0861 950.1923 694.8261 937.9923 717.2861L726.5623 1095.7061C720.2123 1105.9561 717.2823 1116.6961 717.2823 1127.9261C717.2823 1165.0361 742.6723 1193.3561 783.2023 1193.3561ZM530.2723 958.9861C576.1723 958.9861 612.7923 922.3661 612.7923 876.4661C612.7923 831.5461 575.6823 794.4361 530.2723 794.4361C485.8423 794.4361 448.2423 832.0361 448.2423 876.4661C448.2423 921.8761 485.3523 958.9861 530.2723 958.9861ZM995.1123 1002.4461C978.0323 1002.4461 965.8223 990.7261 965.3323 974.1261L961.4223 834.9561C960.9423 814.9461 974.6123 801.2661 995.1123 801.2661C1015.1323 801.2661 1028.8123 814.9461 1028.3223 834.9561L1024.4123 974.1261C1023.9223 990.7261 1012.2023 1002.4461 995.1123 1002.4461ZM64.4523 940.9161C100.5823 940.9161 128.4223 913.0861 128.4223 876.4661C128.4223 841.3061 99.6123 812.4961 64.4523 812.4961C29.2923 812.4961 0.0023 841.7961 0.0023 876.4661C0.0023 912.5961 28.3223 940.9161 64.4523 940.9161ZM297.3623 1077.1461C333.4923 1077.1461 361.3323 1049.3161 361.3323 1013.1861C361.3323 977.5361 333.0123 948.7261 297.3623 948.7261C262.2023 948.7261 233.4023 978.0261 233.4023 1013.1861C233.4023 1048.8261 261.7223 1077.1461 297.3623 1077.1461ZM994.6323 1119.1361C972.1723 1119.1361 953.6123 1100.5861 953.6123 1077.6361C953.6123 1055.1761 972.6523 1036.6261 994.6323 1036.6261C1017.5823 1036.6261 1036.1323 1055.6661 1036.1323 1077.6361C1036.1323 1100.5861 1017.5823 1119.1361 994.6323 1119.1361ZM530.2723 1211.4261C566.8923 1211.4261 594.7223 1183.5961 594.7223 1147.4561C594.7223 1111.8161 565.9223 1083.4961 530.2723 1083.4961C495.6023 1083.4961 466.3123 1112.3061 466.3123 1147.4561C466.3123 1183.1061 495.1123 1211.4261 530.2723 1211.4261Z"/>
</svg>