<?xml version="1.0" encoding="UTF-8" standalone="no"?>
<svg xmlns="http://www.w3.org/2000/svg"
     width="976.07421875" height="898.92578125"
     viewBox="0 0 976.07421875 898.92578125"
     fill="currentColor">
  <path d="M83.0083 219.2395H893.0683C948.2383 219.2395 976.0783 186.5195 976.0783 131.8395V87.3995C976.0783 32.7195 948.2383 -0.0005 893.0683 -0.0005H83.0083C30.7583 -0.0005 -0.0017 32.7195 -0.0017 87.3995V131.8395C-0.0017 186.5195 27.8283 219.2395 83.0083 219.2395ZM220.2183 898.9295H755.8583C852.0483 898.9295 903.3183 849.1195 903.3183 753.4195V286.1295H72.7583V753.4195C72.7583 849.6095 124.0283 898.9295 220.2183 898.9295ZM327.1483 462.3995C306.6383 462.3995 292.4783 448.2395 292.4783 426.7595V411.6195C292.4783 390.1395 306.6383 376.4695 327.1483 376.4695H649.4183C669.9183 376.4695 684.5683 390.1395 684.5683 411.6195V426.7595C684.5683 448.2395 669.9183 462.3995 649.4183 462.3995Z"/>
</svg>