<?xml version="1.0" encoding="UTF-8" standalone="no"?>
<svg xmlns="http://www.w3.org/2000/svg"
     width="996.09375" height="996.09375"
     viewBox="0 0 996.09375 996.09375"
     fill="currentColor">
  <path d="M498.0477 996.0959C770.5077 996.0959 996.0977 770.0159 996.0977 498.0459C996.0977 225.5859 770.0177 -0.0041 497.5577 -0.0041C225.5877 -0.0041 -0.0023 225.5859 -0.0023 498.0459C-0.0023 770.0159 226.0777 996.0959 498.0477 996.0959ZM498.0477 913.0859C267.5777 913.0859 83.4977 728.5159 83.4977 498.0459C83.4977 267.5759 267.0877 83.0059 497.5577 83.0059C728.0277 83.0059 913.0877 267.5759 913.0877 498.0459C913.0877 728.5159 728.5177 913.0859 498.0477 913.0859ZM702.6377 713.3759C722.1677 713.3759 735.8377 700.1959 735.8377 681.1559V314.4559C735.8377 295.4059 722.1677 282.2259 702.6377 282.2259C684.0777 282.2259 670.4077 295.4059 670.4077 314.4559V681.1559C670.4077 700.1959 684.0777 713.3759 702.6377 713.3759ZM190.9177 498.5359C190.9177 518.0659 204.5877 531.2459 223.1477 531.2459H447.2677L537.1077 525.8759L437.9877 613.7659L406.7377 642.5759C399.8977 648.4359 396.9777 656.2459 396.9777 666.0159C396.9777 685.0559 410.6477 697.7559 429.1977 697.7559C437.0077 697.7559 447.2677 693.3559 454.0977 687.0159L622.0677 522.9459C629.3977 516.1159 632.8077 507.3259 632.8077 498.5359C632.8077 489.2559 628.9077 480.9559 622.0677 473.6359L453.6177 308.1059C446.2877 300.7859 437.9877 297.8559 429.1977 297.8559C411.6177 297.8559 396.9777 310.5459 396.9777 329.1059C396.9777 337.8859 399.8977 346.6759 406.7377 353.0259L437.4977 383.2959L536.6177 471.1959L447.2677 465.8159H223.1477C204.5877 465.8159 190.9177 479.4959 190.9177 498.5359Z"/>
</svg>