<?xml version="1.0" encoding="UTF-8" standalone="no"?>
<svg xmlns="http://www.w3.org/2000/svg"
     width="1052.734375" height="895.5078125"
     viewBox="0 0 1052.734375 895.5078125"
     fill="currentColor">
  <path d="M477.0509 895.503C510.2509 895.503 534.1809 871.093 534.1809 838.383V651.853H548.3409C737.7909 651.853 856.9309 699.703 942.3809 859.373C959.4709 890.623 981.9309 895.503 1002.4409 895.503C1028.3209 895.503 1052.7309 872.073 1052.7309 830.083C1052.7309 469.243 899.9009 244.143 548.3409 244.143H534.1809V59.573C534.1809 26.853 510.2509 0.003 476.0709 0.003C452.1509 0.003 436.0309 10.253 410.1609 34.663L24.9009 395.023C5.8609 413.083 0.0009 431.153 0.0009 447.753C0.0009 463.863 6.3509 482.423 24.9009 500.003L410.1609 863.773C433.5909 885.743 453.1209 895.503 477.0509 895.503Z"/>
</svg>