<?xml version="1.0" encoding="UTF-8" standalone="no"?>
<svg xmlns="http://www.w3.org/2000/svg"
     width="1151.3671875" height="898.92578125"
     viewBox="0 0 1151.3671875 898.92578125"
     fill="currentColor">
  <path d="M153.3183 898.9278H998.0483C1100.5883 898.9278 1151.3683 848.6378 1151.3683 748.0478V151.3678C1151.3683 50.7778 1100.5883 -0.0022 998.0483 -0.0022H153.3183C51.2683 -0.0022 -0.0017 50.7778 -0.0017 151.3678V748.0478C-0.0017 848.6378 51.2683 898.9278 153.3183 898.9278ZM154.2983 820.3078C105.4683 820.3078 78.6183 794.4378 78.6183 743.6478V155.7578C78.6183 104.9778 105.4683 78.6178 154.2983 78.6178H997.0683C1045.4083 78.6178 1072.7583 104.9778 1072.7583 155.7578V743.6478C1072.7583 794.4378 1045.4083 820.3078 997.0683 820.3078ZM177.2483 521.9678C177.2483 540.5278 193.8483 557.1278 212.8883 557.1278C221.1883 557.1278 229.4883 553.2178 238.7683 543.9478L445.3083 337.8878L479.9783 299.8078L475.5883 414.0578V461.4278C475.5883 482.9078 489.2583 497.0678 509.7683 497.0678C530.2783 497.0678 544.4383 482.9078 544.4383 461.4278V226.0778C544.4383 205.0778 529.7883 190.9178 508.2983 190.9178H266.1183C244.6283 190.9178 230.4683 204.5878 230.4683 225.0978C230.4683 245.6078 245.6083 259.7678 266.1183 259.7678H313.9683L434.0783 254.8778L396.4883 289.5478L190.4283 495.6078C181.1483 504.8778 177.2483 513.1878 177.2483 521.9678ZM980.9583 376.9578C980.9583 358.3978 964.8483 341.7978 945.7983 341.7978C937.4983 341.7978 929.1983 345.7078 919.4383 354.9778L713.3783 561.0378L678.7083 599.1178L683.1083 484.8678V437.4978C683.1083 416.0178 669.4383 401.8578 648.9283 401.8578C628.4183 401.8578 614.2583 416.0178 614.2583 437.4978V672.8478C614.2583 693.8478 628.9083 708.4978 650.3883 708.4978H892.5783C913.5783 708.4978 928.2183 694.3378 928.2183 673.8278C928.2183 653.3178 912.5983 639.6478 892.5783 639.6478H844.7283L724.6083 644.0478L761.7183 609.8678L968.2583 403.3178C977.5383 394.0478 980.9583 385.7378 980.9583 376.9578Z"/>
</svg>