<?xml version="1.0" encoding="UTF-8" standalone="no"?>
<svg xmlns="http://www.w3.org/2000/svg"
     width="1052.734375" height="895.5078125"
     viewBox="0 0 1052.734375 895.5078125"
     fill="currentColor">
  <path d="M575.6873 895.503C599.6073 895.503 619.1373 885.743 642.5773 863.773L1027.8273 500.003C1046.3873 482.423 1052.7373 463.863 1052.7373 447.753C1052.7373 431.153 1046.8773 413.083 1027.8273 395.023L642.5773 34.663C616.6973 10.253 600.5873 0.003 576.6573 0.003C542.4773 0.003 518.0673 26.853 518.0673 59.573V244.143H503.9073C152.8273 244.143 -0.0027 469.243 -0.0027 830.083C-0.0027 872.073 23.9273 895.503 50.2973 895.503C70.7973 895.503 93.2573 890.623 110.3473 859.373C195.3173 699.703 314.9373 651.853 503.9073 651.853H518.0673V838.383C518.0673 871.093 542.4773 895.503 575.6873 895.503Z"/>
</svg>