<?xml version="1.0" encoding="UTF-8" standalone="no"?>
<svg xmlns="http://www.w3.org/2000/svg"
     width="996.09375" height="996.09375"
     viewBox="0 0 996.09375 996.09375"
     fill="currentColor">
  <path d="M498.0477 996.0959C770.5077 996.0959 996.0977 770.0159 996.0977 498.0459C996.0977 225.5859 770.0177 -0.0041 497.5577 -0.0041C225.5877 -0.0041 -0.0023 225.5859 -0.0023 498.0459C-0.0023 770.0159 226.0777 996.0959 498.0477 996.0959ZM498.0477 913.0859C267.5777 913.0859 83.4977 728.5159 83.4977 498.0459C83.4977 267.5759 267.0877 83.0059 497.5577 83.0059C728.0277 83.0059 913.0877 267.5759 913.0877 498.0459C913.0877 728.5159 728.5177 913.0859 498.0477 913.0859ZM386.7177 698.7259C404.2977 698.7259 416.5077 687.4959 416.5077 676.7559V664.0659L255.8577 516.6059C240.2377 501.9559 231.9377 483.8859 231.9377 464.8459C231.9377 445.7959 239.7477 428.2259 255.8577 413.5759L416.5077 266.6059V254.3959C416.5077 242.1859 404.2977 231.4459 386.2277 231.4459C374.0277 231.4459 365.7277 236.3259 352.5377 249.0259L150.8777 437.9859C141.1177 447.2659 138.1877 456.0559 138.1877 464.8459C138.1877 473.6359 141.1177 482.9059 150.8777 492.1859L352.5377 681.6359C365.2377 693.3559 374.5077 698.7259 386.7177 698.7259ZM515.6277 698.7259C532.2277 698.7259 544.9177 686.0359 544.9177 668.4559V570.7959H552.7377C651.8577 570.7959 715.8177 596.1959 758.7877 679.6859C767.0877 695.3159 778.8077 698.7259 790.0377 698.7259C804.1977 698.7259 815.9177 686.5259 815.9177 665.0359C815.9177 475.5859 734.8677 359.8659 552.7377 359.8659H544.9177V262.6959C544.9177 245.6059 532.2277 231.4459 515.1377 231.4459C502.9277 231.4459 494.6277 236.8159 481.4477 249.0259L280.2777 437.9859C270.0177 447.7559 266.5977 456.0559 266.5977 464.8459C266.5977 473.6359 270.0177 482.4259 280.2777 492.1859L481.4477 681.6359C493.6477 693.3559 503.9077 698.7259 515.6277 698.7259Z"/>
</svg>