<?xml version="1.0" encoding="UTF-8" standalone="no"?>
<svg xmlns="http://www.w3.org/2000/svg"
     width="996.09375" height="996.09375"
     viewBox="0 0 996.09375 996.09375"
     fill="currentColor">
  <path d="M498.0477 996.0977C770.5077 996.0977 996.0977 770.5077 996.0977 498.0477C996.0977 226.0777 770.0177 -0.0023 497.5577 -0.0023C225.5877 -0.0023 -0.0023 226.0777 -0.0023 498.0477C-0.0023 770.5077 226.0777 996.0977 498.0477 996.0977ZM497.5577 658.6877C488.2777 658.6877 479.4877 654.7877 472.1677 646.9677L302.2477 473.1477C295.8977 466.3077 291.9877 456.0577 291.9877 448.2377C291.9877 428.7077 305.1777 415.0377 324.2177 415.0377C334.9577 415.0377 342.7777 417.9677 349.1177 424.8077L377.4377 456.0577L469.2377 559.0777L463.3777 466.7977V235.8377C463.3777 216.3077 477.0477 202.1477 497.5577 202.1477C516.5977 202.1477 531.2477 216.3077 531.2477 235.8377V466.7977L525.8777 558.5977L616.2077 456.5477L646.9777 424.8077C653.8077 417.9677 662.5977 415.0377 672.3677 415.0377C690.9177 415.0377 704.0977 429.6877 704.0977 448.2377C704.0977 457.5177 701.1677 465.3277 693.3577 473.6377L522.9477 646.9677C516.1177 654.2977 506.8377 658.6877 497.5577 658.6877ZM309.0777 764.6477C289.5477 764.6477 275.3877 750.4877 275.3877 730.4677C275.3877 711.4277 289.5477 696.7777 309.0777 696.7777H687.4977C707.0277 696.7777 720.7077 711.4277 720.7077 730.4677C720.7077 750.4877 707.0277 764.6477 687.4977 764.6477Z"/>
</svg>