<?xml version="1.0" encoding="UTF-8" standalone="no"?>
<svg xmlns="http://www.w3.org/2000/svg"
     width="996.09375" height="996.09375"
     viewBox="0 0 996.09375 996.09375"
     fill="currentColor">
  <path d="M498.0477 996.0959C770.5077 996.0959 996.0977 770.0159 996.0977 498.0459C996.0977 225.5859 770.0177 -0.0041 497.5577 -0.0041C225.5877 -0.0041 -0.0023 225.5859 -0.0023 498.0459C-0.0023 770.0159 226.0777 996.0959 498.0477 996.0959ZM498.0477 913.0859C267.5777 913.0859 83.4977 728.5159 83.4977 498.0459C83.4977 267.5759 267.0877 83.0059 497.5577 83.0059C728.0277 83.0059 913.0877 267.5759 913.0877 498.0459C913.0877 728.5159 728.5177 913.0859 498.0477 913.0859ZM650.3877 619.1359C671.8777 619.1359 686.5277 602.5359 686.5277 580.0759V349.6059C686.5277 320.7959 670.4077 309.5659 645.5077 309.5659H414.0577C391.1177 309.5659 376.4677 323.7259 376.4677 345.2159C376.4677 366.6959 391.5977 380.8559 415.0377 380.8559H503.9077L576.1677 373.0459L499.9977 443.8459L319.8277 624.0259C312.9877 630.8559 308.1077 640.6259 308.1077 650.3859C308.1077 672.3659 322.7577 686.5259 344.2377 686.5259C355.9577 686.5259 364.7477 682.1259 372.0677 675.2959L551.7577 495.6059L622.0677 420.4059L614.7477 496.5859V581.0559C614.7477 604.0059 628.9077 619.1359 650.3877 619.1359Z"/>
</svg>