<?xml version="1.0" encoding="UTF-8" standalone="no"?>
<svg xmlns="http://www.w3.org/2000/svg"
     width="996.09375" height="996.09375"
     viewBox="0 0 996.09375 996.09375"
     fill="currentColor">
  <path d="M498.0477 996.0908C770.5077 996.0908 996.0977 770.5108 996.0977 498.0508C996.0977 226.0708 770.0177 0.0008 497.5577 0.0008C225.5877 0.0008 -0.0023 226.0708 -0.0023 498.0508C-0.0023 770.5108 226.0777 996.0908 498.0477 996.0908ZM446.7777 742.1908C330.5677 742.1908 253.9077 663.0908 253.9077 544.9208V479.4908C253.9077 456.0508 268.5577 439.9408 290.5277 439.9408C312.0077 439.9408 326.6577 455.5708 326.6577 478.5108V544.9208C326.6577 618.6508 374.9977 668.9408 446.7777 668.9408C513.6677 668.9408 558.1077 619.6308 558.1077 545.4108V402.8308L560.5477 352.5408L543.9477 375.4908L486.8177 435.0608C479.9777 441.8908 470.7077 446.2908 459.9577 446.2908C438.9677 446.2908 422.8477 430.6608 422.8477 410.1608C422.8477 399.4108 426.2677 390.1408 433.1077 383.7908L563.9677 255.3708C573.2377 246.5808 583.9877 242.1908 595.2177 242.1908C605.9577 242.1908 616.6977 247.0708 625.9777 255.3708L755.3677 383.3008C762.6977 390.1408 766.1177 398.9208 766.1177 409.6708C766.1177 430.6608 749.5077 446.2908 729.0077 446.2908C718.7477 446.2908 708.9877 441.8908 702.6377 435.0608L654.7877 385.2508L628.9077 352.0508L630.8577 402.8308V545.4108C630.8577 663.5708 557.6177 742.1908 446.7777 742.1908Z"/>
</svg>