<?xml version="1.0" encoding="UTF-8" standalone="no"?>
<svg xmlns="http://www.w3.org/2000/svg"
     width="721.19140625" height="720.703125"
     viewBox="0 0 721.19140625 720.703125"
     fill="currentColor">
  <path d="M-0.0017 538.5741C-0.0017 564.9441 20.5083 584.9641 44.4383 584.9641C68.3583 584.9641 88.3783 563.4741 88.3783 540.5241V359.8641L79.5883 131.8341L160.1583 223.1441L644.5283 707.5241C653.8083 716.7941 664.5483 720.7041 675.2883 720.7041C699.7083 720.7041 721.1883 698.7341 721.1883 675.2941C721.1883 664.5541 716.3083 653.3241 707.5183 644.5341L223.6283 159.6641L132.8083 80.0741L371.0983 87.8941H541.0183C563.9683 87.8941 584.9583 67.8741 584.9583 44.4341C584.9583 20.9941 566.4083 0.0041 539.0583 0.0041H47.8483C18.5583 0.0041 0.4883 19.5341 0.4883 47.3641Z"/>
</svg>