<?xml version="1.0" encoding="UTF-8" standalone="no"?>
<svg xmlns="http://www.w3.org/2000/svg"
     width="1324.70703125" height="1033.69140625"
     viewBox="0 0 1324.70703125 1033.69140625"
     fill="currentColor">
  <path d="M830.0783 1033.6889H1191.8983C1271.4883 1033.6889 1324.7083 982.9089 1324.7083 906.7389V126.9489C1324.7083 50.7789 1271.4883 -0.0011 1191.8983 -0.0011H830.0783C750.4883 -0.0011 696.7783 50.7789 696.7783 126.9489V906.7389C696.7783 982.9089 750.4883 1033.6889 830.0783 1033.6889ZM839.8483 955.0789C798.8283 955.0789 775.3883 933.1089 775.3883 894.0389V139.6489C775.3883 100.5889 798.8283 78.6089 839.8483 78.6089H1181.6383C1222.6583 78.6089 1246.0983 100.5889 1246.0983 139.6489V894.0389C1246.0983 933.1089 1222.6583 955.0789 1181.6383 955.0789ZM43.4583 917.4789C68.8483 917.4789 86.9183 899.8989 86.9183 874.5089V800.2889C86.9183 618.6489 197.7583 560.0589 339.8483 560.0589H372.0683L476.5583 556.6389L374.5083 649.4189L320.7983 695.3089C309.5683 704.5889 306.6383 716.7989 306.6383 728.5189C306.6383 752.4389 325.1983 770.5089 349.1183 770.5089C360.8383 770.5089 371.0983 766.1089 381.8383 755.8589L588.3783 549.8089C598.1483 540.5289 603.5183 529.2989 603.5183 517.0889C603.5183 504.8789 598.1483 493.6489 588.3783 484.3789L380.8583 277.3389C371.0983 267.5789 360.8383 263.6689 349.1183 263.6689C325.1983 263.6689 306.6383 281.2489 306.6383 305.6689C306.6383 317.3789 309.5683 329.5889 320.7983 338.8689L374.5083 384.7689L476.5583 477.5389L372.0683 474.1189H339.8483C166.5083 474.1189 -0.0017 553.7089 -0.0017 800.2889V874.5089C-0.0017 899.8989 18.0683 917.4789 43.4583 917.4789Z"/>
</svg>