<?xml version="1.0" encoding="UTF-8" standalone="no"?>
<svg xmlns="http://www.w3.org/2000/svg"
     width="996.09375" height="996.09375"
     viewBox="0 0 996.09375 996.09375"
     fill="currentColor">
  <path d="M498.0477 996.0977C770.5077 996.0977 996.0977 770.5077 996.0977 498.0477C996.0977 226.0777 770.0177 -0.0023 497.5577 -0.0023C225.5877 -0.0023 -0.0023 226.0777 -0.0023 498.0477C-0.0023 770.5077 226.0777 996.0977 498.0477 996.0977ZM451.6577 715.3277C438.4777 715.3277 428.2277 709.4677 415.5277 697.7577L201.1677 496.5777C190.9177 486.8177 187.4977 477.0477 187.4977 467.2877C187.4977 458.0077 190.9177 448.2377 201.1677 438.4777L415.5277 238.7677C429.6877 225.0977 437.9877 219.7277 451.1677 219.7277C470.2177 219.7277 483.8877 234.3777 483.8877 252.4377V354.9777H491.6977C685.5477 354.9777 770.9977 479.0077 770.9977 679.6877C770.9977 703.1277 756.8377 715.3277 742.6777 715.3277C730.9577 715.3277 718.7477 712.3977 709.4777 695.3077C662.5977 606.9377 596.1877 580.0777 491.6977 580.0777H483.8877V684.0777C483.8877 701.6577 470.2177 715.3277 451.6577 715.3277Z"/>
</svg>