<?xml version="1.0" encoding="UTF-8" standalone="no"?>
<svg xmlns="http://www.w3.org/2000/svg"
     width="898.92578125" height="898.92578125"
     viewBox="0 0 898.92578125 898.92578125"
     fill="currentColor">
  <path d="M153.3183 898.9295H745.6083C848.1483 898.9295 898.9283 848.1495 898.9283 747.5595V151.3695C898.9283 50.7795 848.1483 -0.0005 745.6083 -0.0005H153.3183C51.2683 -0.0005 -0.0017 50.2895 -0.0017 151.3695V747.5595C-0.0017 848.6295 51.2683 898.9295 153.3183 898.9295ZM191.4083 448.2395C191.4083 437.0095 195.3083 429.1995 205.5683 418.9495L375.4883 248.0495C382.3283 241.2095 391.5983 237.7895 401.8583 237.7895C423.3383 237.7895 438.4783 253.4195 438.4783 274.4095C438.4783 285.1595 434.0783 294.4295 427.2483 301.7595L364.7483 363.7695L304.1983 414.5495L410.6483 410.1595H671.8783C693.8483 410.1595 709.9583 425.7795 709.9583 448.2395C709.9583 470.2195 694.3383 485.8395 671.8783 485.8395H410.6483L303.7083 481.9295L364.7483 532.7195L427.2483 594.7295C434.5683 601.5595 438.4783 610.8395 438.4783 621.5795C438.4783 642.5795 423.3383 658.6895 401.8583 658.6895C391.5983 658.6895 382.3283 654.7895 375.4883 647.9495L205.5683 477.5395C196.2883 468.2595 191.4083 459.4695 191.4083 448.2395Z"/>
</svg>