<?xml version="1.0" encoding="UTF-8" standalone="no"?>
<svg xmlns="http://www.w3.org/2000/svg"
     width="1107.3672103163326" height="1107.3672103163324"
     viewBox="0 0 1107.3672103163326 1107.3672103163324"
     fill="currentColor">
  <path d="M54.7573 661.6849L445.8673 1052.7949C518.1273 1125.0649 589.4173 1125.5549 661.1973 1054.2649L1054.2673 660.7049C1125.5573 589.4249 1125.0673 517.6449 1052.7973 445.3749L662.1773 54.7549C589.9073 -17.5151 518.6173 -18.4851 446.8473 53.2849L53.2873 446.3549C-18.4927 518.1349 -17.5127 589.4249 54.7573 661.6849ZM335.0273 696.8449V568.4249C335.0273 470.7649 381.4173 423.8949 479.5573 423.8949H618.2273V359.4349C618.2273 326.7249 651.9173 312.5649 677.7973 332.5849L796.9373 424.8649C828.1873 449.7749 828.1873 479.5549 796.9373 504.4549L677.7973 597.2349C651.9173 617.2549 618.2273 603.0949 618.2273 570.3749V505.4349H480.5373C437.5673 505.4349 416.0773 526.9249 416.0773 572.3349V696.8449C416.0773 725.6549 400.9473 741.7649 375.5573 742.2549C349.1873 742.7449 335.0273 725.6549 335.0273 696.8449Z"/>
</svg>