<?xml version="1.0" encoding="UTF-8" standalone="no"?>
<svg xmlns="http://www.w3.org/2000/svg"
     width="961.9140625" height="603.02734375"
     viewBox="0 0 961.9140625 603.02734375"
     fill="currentColor">
  <path d="M-0.0017 301.7569C-0.0017 313.4769 4.8783 324.7069 14.6483 333.9869L275.3883 589.8469C283.6883 598.1469 296.3883 603.0269 307.1283 603.0269C333.0083 603.0269 350.0983 585.4469 350.0983 560.0569C350.0983 547.3669 346.1883 538.0869 338.3783 530.2769L223.6283 419.4369L132.3283 340.3369L245.6083 345.2169H715.8183L829.0983 340.3369L737.7883 419.4369L623.5383 530.2769C615.7183 538.0869 611.8183 547.3669 611.8183 560.0569C611.8183 585.4469 628.9083 603.0269 654.7883 603.0269C665.5283 603.0269 678.2183 598.1469 686.5283 589.8469L947.2683 333.9869C957.0283 324.7069 961.9183 313.4769 961.9183 301.7569C961.9183 289.5469 957.0283 278.3169 947.2683 269.0469L686.5283 13.1869C678.2183 4.8869 665.5283 -0.0031 654.7883 -0.0031C628.9083 -0.0031 611.8183 17.5769 611.8183 42.9669C611.8183 55.6669 615.7183 64.9369 623.5383 72.7569L737.7883 184.0869L829.0983 262.6969L715.8183 257.8169H245.6083L132.3283 262.6969L223.6283 184.0869L338.3783 72.7569C346.1883 64.9369 350.0983 55.6669 350.0983 42.9669C350.0983 17.5769 333.0083 -0.0031 307.1283 -0.0031C296.3883 -0.0031 283.6883 4.8869 275.3883 13.1869L14.6483 269.0469C4.8783 278.3169 -0.0017 289.5469 -0.0017 301.7569Z"/>
</svg>