<?xml version="1.0" encoding="UTF-8" standalone="no"?>
<svg xmlns="http://www.w3.org/2000/svg"
     width="970.21484375" height="896.484375"
     viewBox="0 0 970.21484375 896.484375"
     fill="currentColor">
  <path d="M484.8683 896.4888C495.1183 896.4888 509.7683 889.6488 520.5083 883.2988C795.8983 707.5188 970.2183 502.9288 970.2183 294.9188C970.2183 122.0688 851.5583 -0.0013 697.7583 -0.0013C602.5383 -0.0013 529.2983 52.7387 484.8683 133.2988C441.4083 53.2188 367.6783 -0.0013 271.9683 -0.0013C118.6483 -0.0013 -0.0017 122.0688 -0.0017 294.9188C-0.0017 502.9288 174.3183 707.5188 449.7083 883.2988C459.9583 889.6488 475.0983 896.4888 484.8683 896.4888ZM307.1283 479.4888C307.1283 395.0188 370.6083 322.2688 449.7083 310.5488V269.5287C449.7083 250.4888 470.2183 243.6487 484.3783 255.8588L565.9183 325.1988C579.5883 336.9188 579.5883 353.0288 565.9183 365.2388L484.3783 435.5488C470.2183 447.7588 449.7083 440.4288 449.7083 421.8788V373.5388C403.3183 387.2088 369.1383 429.6888 369.1383 480.4688C369.1383 542.4788 418.9483 592.2887 480.9583 592.2887C542.9683 592.2887 592.7783 542.4788 592.7783 480.4688C592.7783 463.3788 606.9383 449.2188 624.0283 449.2188C640.6283 449.2188 654.7883 463.3788 654.7883 480.4688C654.7883 577.1488 577.6383 655.2688 480.9583 655.2688C384.2783 655.2688 307.1283 577.1488 307.1283 479.4888Z"/>
</svg>