<?xml version="1.0" encoding="UTF-8" standalone="no"?>
<svg xmlns="http://www.w3.org/2000/svg"
     width="1227.5390625" height="848.6328125"
     viewBox="0 0 1227.5390625 848.6328125"
     fill="currentColor">
  <path d="M964.8477 848.6363C1112.3077 848.6363 1227.5377 740.7262 1227.5377 606.4463C1227.5377 503.9063 1168.4577 415.0363 1073.2377 374.9962C1074.2177 157.2263 917.4777 -0.0037 717.7777 -0.0037C585.4477 -0.0037 491.2077 70.7962 432.6177 156.2463C312.4977 121.0963 181.6377 212.4063 179.1977 349.1163C68.8477 366.6963 -0.0023 465.3363 -0.0023 584.4762C-0.0023 728.0263 125.4877 848.6363 292.4777 848.6363ZM964.8477 770.0163H292.4777C169.4377 770.0163 78.6177 684.0863 78.6177 584.4762C78.6177 486.8163 137.6977 409.1763 241.2077 409.1763C248.0477 409.1763 250.4877 405.7663 250.4877 399.4163C250.4877 249.0263 358.8877 204.5862 458.9877 237.3063C464.8477 239.2563 468.2577 237.7963 471.1877 232.4263C518.5577 147.9462 591.3077 78.6163 717.7777 78.6163C877.9277 78.6163 988.7677 205.5662 997.0677 350.5863C998.5377 373.0463 997.0677 399.4163 995.1177 422.3663C994.6277 428.7063 997.0677 432.1263 1002.9277 433.5963C1091.7977 453.1263 1148.9277 518.0663 1148.9277 606.4463C1148.9277 697.2663 1068.8477 770.0163 964.8477 770.0163ZM440.4277 484.3763C440.4277 595.2162 527.8277 683.1063 636.7177 683.1063C746.0977 683.1063 833.4977 595.2162 833.4977 485.8363C833.4977 469.7263 819.3377 456.0563 803.2277 456.0563C786.6177 456.0563 772.9477 469.7263 772.9477 485.8363C772.9477 561.5263 712.3977 622.5563 636.7177 622.5563C561.5277 622.5563 500.9777 561.5263 500.9777 485.8363C500.9777 410.6463 561.5277 350.0963 636.7177 350.0963C642.5777 350.0963 648.4377 350.5863 652.3477 351.5663L610.3477 393.5563C604.9777 398.9263 601.5577 405.7663 601.5577 413.5763C601.5577 429.1963 613.7677 441.4063 629.3977 441.4063C636.7177 441.4063 644.0477 438.4763 648.9277 433.5963L734.3777 348.1463C745.1177 337.4063 744.6277 317.8663 734.3777 307.1263L649.8977 221.1962C645.0177 215.3362 637.2077 211.9163 629.3977 211.9163C613.7677 211.9163 601.5577 225.0963 601.5577 240.7263C601.5577 248.0463 604.4877 255.8563 609.3777 260.7463L640.1377 292.4763C636.7177 291.9963 632.3277 291.5063 628.4177 291.5063C529.2977 291.5063 440.4277 375.9763 440.4277 484.3763Z"/>
</svg>