<?xml version="1.0" encoding="UTF-8" standalone="no"?>
<svg xmlns="http://www.w3.org/2000/svg"
     width="910.64453125" height="1163.0859375"
     viewBox="0 0 910.64453125 1163.0859375"
     fill="currentColor">
  <path d="M455.5683 487.3011C480.9583 487.3011 499.0283 469.7311 499.0283 443.8511V237.7911L496.0983 136.7211L625.4883 274.9011C633.7883 284.1811 645.0183 287.1111 656.7383 287.1111C681.1483 287.1111 699.2183 268.5511 699.2183 244.6311C699.2183 232.4211 694.3383 222.1711 684.5683 211.9111L488.2783 14.6511C479.0083 4.8811 467.2883 0.0011 455.5683 0.0011C443.3583 0.0011 432.1283 4.8811 422.8483 14.6511L226.5583 211.9111C216.7983 222.1711 211.9183 232.4211 211.9183 244.6311C211.9183 268.5511 229.9783 287.1111 254.3983 287.1111C266.1183 287.1111 277.3483 284.1811 285.6483 274.9011L415.0383 136.7211L411.6183 237.7911V443.8511C411.6183 469.7311 430.1783 487.3011 455.5683 487.3011ZM-0.0017 581.5411C-0.0017 606.9311 17.5783 625.0011 42.9683 625.0011H868.1683C893.0683 625.0011 910.6483 606.9311 910.6483 581.5411C910.6483 556.1511 893.0683 537.6011 868.1683 537.6011H42.9683C17.5783 537.6011 -0.0017 556.1511 -0.0017 581.5411ZM455.5683 675.2911C430.1783 675.2911 411.6183 692.8711 411.6183 718.7511V925.2911L415.0383 1025.8811L285.6483 887.6911C277.3483 878.9111 266.1183 875.4911 254.3983 875.4911C229.9783 875.4911 211.9183 894.0411 211.9183 917.9711C211.9183 930.1711 216.7983 940.9211 226.5583 951.1711L422.8483 1147.9511C432.1283 1157.7111 443.3583 1163.0811 455.5683 1163.0811C467.2883 1163.0811 479.0083 1157.7111 488.2783 1147.9511L684.5683 951.1711C694.3383 940.9211 699.2183 930.1711 699.2183 917.9711C699.2183 894.0411 681.1483 875.4911 656.7383 875.4911C645.0183 875.4911 633.7883 878.9111 625.4883 887.6911L496.0983 1025.8811L499.0283 925.2911V718.7511C499.0283 692.8711 480.9583 675.2911 455.5683 675.2911Z"/>
</svg>