<?xml version="1.0" encoding="UTF-8" standalone="no"?>
<svg xmlns="http://www.w3.org/2000/svg"
     width="1161.62109375" height="898.92578125"
     viewBox="0 0 1161.62109375 898.92578125"
     fill="currentColor">
  <path d="M83.0083 222.1695H1078.6183C1133.7883 222.1695 1161.6183 189.4495 1161.6183 134.7695V87.3995C1161.6183 32.7195 1133.7883 -0.0005 1078.6183 -0.0005H83.0083C30.7583 -0.0005 -0.0017 32.7195 -0.0017 87.3995V134.7695C-0.0017 189.4495 27.8283 222.1695 83.0083 222.1695ZM324.2183 898.9295H836.9183C933.1083 898.9295 971.6783 848.1495 985.8383 753.4195L1055.1783 288.5695H105.9583L175.7783 753.4195C189.9383 848.6295 228.5183 898.9295 324.2183 898.9295ZM619.6283 749.5095C619.6283 770.0195 602.0483 787.1095 581.0583 787.1095C560.0583 787.1095 541.9883 770.0195 541.9883 749.5095V569.3395L545.4083 487.3095L503.4183 531.2495L458.9883 576.1695C451.6583 583.4995 441.8983 587.8895 432.1283 587.8895C411.1283 587.8895 396.4883 573.2395 396.4883 552.7295C396.4883 541.0195 401.3683 532.7195 409.1783 525.3895L552.7383 393.5595C563.4783 383.7895 571.2883 380.3695 581.0583 380.3695C590.8183 380.3695 598.6283 383.7895 609.3783 393.5595L752.9283 525.3895C760.7383 532.7195 765.6283 541.0195 765.6283 552.7295C765.6283 573.2395 749.9983 587.8895 729.9783 587.8895C719.7283 587.8895 709.9583 583.4995 703.1283 576.1695L658.6883 531.2495L616.6983 487.3095L619.6283 569.3395Z"/>
</svg>