<?xml version="1.0" encoding="UTF-8" standalone="no"?>
<svg xmlns="http://www.w3.org/2000/svg"
     width="898.92578125" height="898.92578125"
     viewBox="0 0 898.92578125 898.92578125"
     fill="currentColor">
  <path d="M153.3183 898.9295H745.6083C848.1483 898.9295 898.9283 848.1495 898.9283 747.5595V151.3695C898.9283 50.7795 848.1483 -0.0005 745.6083 -0.0005H153.3183C51.2683 -0.0005 -0.0017 50.2895 -0.0017 151.3695V747.5595C-0.0017 848.6295 51.2683 898.9295 153.3183 898.9295ZM154.2983 820.3095C105.4683 820.3095 78.6183 794.4295 78.6183 743.6495V155.2695C78.6183 104.4895 105.4683 78.6095 154.2983 78.6095H744.6283C792.9683 78.6095 820.3083 104.4895 820.3083 155.2695V743.6495C820.3083 794.4295 792.9683 820.3095 744.6283 820.3095ZM450.6883 145.0195C439.9383 145.0195 431.1483 149.8995 421.8783 159.1795L280.7583 299.8095C274.4183 306.1495 270.5083 314.9395 270.5083 325.1995C270.5083 345.2195 286.1283 360.3495 306.1483 360.3495C316.8983 360.3495 325.6883 356.4495 332.5183 349.6095L368.6483 312.4995L417.9683 253.4195L414.0583 356.9295V540.5295L417.9683 644.0395L368.6483 584.9595L332.5183 547.8495C325.6883 540.5295 316.8983 537.1095 306.1483 537.1095C286.1283 537.1095 270.5083 552.2495 270.5083 572.2695C270.5083 582.0295 274.4183 591.3095 280.7583 597.6595L421.8783 738.2795C431.1483 747.5595 439.9383 752.4395 450.6883 752.4395C460.9383 752.4395 469.2383 747.5595 479.0083 738.2795L620.6083 597.6595C626.9483 591.3095 630.3683 582.0295 630.3683 572.2695C630.3683 552.2495 615.2383 537.1095 595.2183 537.1095C584.4683 537.1095 575.6883 541.0195 569.3383 547.8495L532.7183 584.9595L483.3983 643.5595L487.3083 540.5295V356.9295L483.3983 253.9095L532.7183 312.4995L569.3383 349.6095C575.6883 355.9595 584.4683 360.3495 595.2183 360.3495C615.2383 360.3495 630.3683 345.2195 630.3683 325.1995C630.3683 314.9395 626.9483 306.1495 620.6083 299.8095L479.0083 159.1795C469.2383 149.8995 460.9383 145.0195 450.6883 145.0195Z"/>
</svg>