<?xml version="1.0" encoding="UTF-8" standalone="no"?>
<svg xmlns="http://www.w3.org/2000/svg"
     width="996.09375" height="996.09375"
     viewBox="0 0 996.09375 996.09375"
     fill="currentColor">
  <path d="M498.0477 996.0959C770.5077 996.0959 996.0977 770.0159 996.0977 498.0459C996.0977 225.5859 770.0177 -0.0041 497.5577 -0.0041C225.5877 -0.0041 -0.0023 225.5859 -0.0023 498.0459C-0.0023 770.0159 226.0777 996.0959 498.0477 996.0959ZM275.8777 491.6959C255.8577 491.6959 239.7477 475.5859 239.7477 455.5659C239.7477 436.0359 255.8577 420.4059 275.8777 420.4059H300.2977L377.4377 425.2959L241.6977 295.4059C227.0477 280.2759 226.0777 256.3459 241.2077 241.6959C255.8577 226.5659 279.7877 226.5659 294.4377 242.1859L425.7777 378.4159L420.8977 298.8259V274.4159C420.8977 254.3959 436.5277 238.7659 456.0577 238.7659C476.0777 238.7659 492.1877 254.3959 492.1877 274.4159V449.7059C492.1877 479.9759 476.5577 491.6959 450.1977 491.6959ZM540.0377 756.8359C520.0177 756.8359 503.9077 741.2059 503.9077 721.1959V545.4059C503.9077 515.6259 519.5277 503.9059 545.8977 503.9059H720.2177C740.2377 503.9059 756.3477 519.5359 756.3477 540.0359C756.3477 559.5659 740.2377 575.1959 720.2177 575.1959H695.7977L618.6477 570.3159L754.3977 700.1959C769.0477 714.8459 770.0177 739.2559 754.8877 753.9059C740.2377 769.0459 716.3077 769.0459 701.6577 753.4159L570.3077 617.1859L575.1977 696.7759V721.1959C575.1977 741.2059 559.5677 756.8359 540.0377 756.8359Z"/>
</svg>