<?xml version="1.0" encoding="UTF-8" standalone="no"?>
<svg xmlns="http://www.w3.org/2000/svg"
     width="898.92578125" height="898.92578125"
     viewBox="0 0 898.92578125 898.92578125"
     fill="currentColor">
  <path d="M153.3183 898.9295H745.6083C848.1483 898.9295 898.9283 848.1495 898.9283 747.5595V151.3695C898.9283 50.7795 848.1483 -0.0005 745.6083 -0.0005H153.3183C51.2683 -0.0005 -0.0017 50.2895 -0.0017 151.3695V747.5595C-0.0017 848.6295 51.2683 898.9295 153.3183 898.9295ZM154.2983 820.3095C105.4683 820.3095 78.6183 794.4295 78.6183 743.6495V155.2695C78.6183 104.4895 105.4683 78.6095 154.2983 78.6095H744.6283C792.9683 78.6095 820.3083 104.4895 820.3083 155.2695V743.6495C820.3083 794.4295 792.9683 820.3095 744.6283 820.3095ZM221.1883 279.2995C208.0083 291.9895 208.4983 314.4495 221.1883 326.6595L343.7483 446.7795C350.0983 452.1495 359.3783 456.0595 366.6983 456.0595C385.2583 456.0595 397.9483 443.3595 397.9483 425.2895C397.9483 416.4995 394.5283 408.6895 388.6683 402.8295L336.9183 352.5395L316.4083 333.4995L339.3583 334.9595H656.7383C674.8083 334.9595 687.9883 320.7995 687.9883 302.7295C687.9883 284.6695 674.8083 271.4795 656.7383 271.4795H339.8483L316.8983 271.9695L336.9183 253.9095L388.6683 203.6095C394.5283 197.7495 397.9483 189.4495 397.9483 181.1495C397.9483 162.5995 385.2583 149.8995 366.6983 149.8995C358.8883 149.8995 349.6083 153.8095 343.7483 160.1595ZM678.2183 618.6495C691.4083 605.4695 690.9183 585.4495 678.2183 572.7495L555.1783 452.6395C549.8083 446.7795 540.5283 442.8695 532.2283 442.8695C513.6683 442.8695 500.9783 455.5695 500.9783 473.6295C500.9783 482.4195 504.3983 490.2295 510.2583 496.0895L562.9883 546.3895L583.0083 565.4295L559.5683 563.9695H242.6783C225.0983 563.9695 211.4283 577.1495 211.4283 595.6995C211.4283 613.7695 224.6083 627.4395 242.6783 627.4395H559.0783L583.0083 626.9495L562.9883 645.0195L510.7383 695.3095C504.8783 701.6595 500.9783 708.9795 500.9783 717.7695C500.9783 735.8395 514.6483 749.0195 532.2283 749.0195C539.5483 749.0195 548.8283 745.1195 555.1783 739.2595Z"/>
</svg>