<?xml version="1.0" encoding="UTF-8" standalone="no"?>
<svg xmlns="http://www.w3.org/2000/svg"
     width="1149.4140625" height="1014.8838389023192"
     viewBox="0 0 1149.4140625 1014.8838389023192"
     fill="currentColor">
  <path d="M75.6883 159.4159L206.5383 256.5859C233.3983 277.0859 265.6283 264.8859 265.6283 231.1959V161.3659H883.2983V231.1959C883.2983 264.8859 916.0183 277.0859 942.8683 256.5859L1073.7283 159.4159C1091.7983 145.7459 1091.3083 120.8359 1073.7283 107.6559L942.8683 10.0059C916.9883 -9.5341 883.2983 0.7259 883.2983 35.8759V104.7259H265.6283V35.8759C265.6283 1.6959 233.3983 -10.5041 206.5383 10.0059L75.6883 107.6559C57.6183 120.8359 58.1083 146.2359 75.6883 159.4159ZM73.7283 1014.8859H461.9183C520.0183 1014.8859 546.3883 989.0059 546.3883 930.8959V347.4059C546.3883 304.4359 514.1583 281.4859 479.4883 281.4859C456.0583 281.4859 433.5983 292.2259 417.4783 314.6859L15.1383 898.6759C4.3983 914.2959 -0.0017 932.3659 -0.0017 948.9659C-0.0017 984.6059 23.4383 1014.8859 73.7283 1014.8859ZM687.4983 1014.8859H1075.1983C1125.9783 1014.8859 1149.4183 984.6059 1149.4183 948.9659C1149.4183 932.3659 1144.5283 914.2959 1133.7883 898.6759L731.4483 314.6859C715.8183 292.2259 692.8683 281.4859 669.4383 281.4859C634.7683 281.4859 603.0283 304.4359 603.0283 347.4059V930.8959C603.0283 989.0059 629.3983 1014.8859 687.4983 1014.8859ZM104.4883 935.2959C101.5583 935.2959 98.6283 933.8259 98.6283 930.4159C98.6283 928.9459 99.1183 927.4859 100.0983 925.0359L458.0083 388.4159C459.4683 386.4659 460.9383 385.4859 462.3983 385.4859C464.8483 385.4859 466.3083 387.9259 466.3083 390.3759V921.1359C466.3083 932.3659 462.8883 935.2959 451.6583 935.2959ZM697.7583 935.2959C686.0383 935.2959 683.1083 932.3659 683.1083 921.1359V390.8559C683.1083 387.9259 684.5683 385.4859 686.5283 385.4859C687.9883 385.4859 689.9383 386.4659 691.4083 388.9059L1048.8283 925.0359C1050.2883 927.4859 1050.7783 928.9459 1050.7783 930.4159C1050.7783 933.8259 1047.8483 935.2959 1044.4383 935.2959Z"/>
</svg>