<?xml version="1.0" encoding="UTF-8" standalone="no"?>
<svg xmlns="http://www.w3.org/2000/svg"
     width="998.53515625" height="1228.515625"
     viewBox="0 0 998.53515625 1228.515625"
     fill="currentColor">
  <path d="M-0.0017 1075.1952C-0.0017 1177.2452 50.2883 1228.5152 151.3683 1228.5152H610.3483C711.4283 1228.5152 761.7183 1176.7552 761.7183 1075.1952V984.8652H847.1683C947.7583 984.8652 998.5383 933.1052 998.5383 831.5452V153.3252C998.5383 51.7552 947.7583 -0.0048 847.1683 -0.0048H388.1883C287.5983 -0.0048 236.8183 51.2652 236.8183 153.3252V243.6552H151.3683C50.2883 243.6552 -0.0017 294.4352 -0.0017 396.9752ZM467.2883 138.6752V128.4152C467.2883 113.2852 477.0483 99.6052 498.5383 99.6052H736.8183C757.8083 99.6052 768.0683 113.2852 768.0683 128.4152V138.6752C768.0683 153.3252 757.8083 167.4852 736.8183 167.4852H498.5383C477.0483 167.4852 467.2883 153.3252 467.2883 138.6752ZM78.6183 1073.7352V397.9452C78.6183 349.6052 104.4883 322.2652 154.7883 322.2652H606.4483C656.7383 322.2652 683.1083 349.6052 683.1083 397.9452V1073.7352C683.1083 1122.5552 656.7383 1149.9052 606.4483 1149.9052H154.7883C104.4883 1149.9052 78.6183 1122.5552 78.6183 1073.7352ZM382.8083 520.0152C334.9583 520.0152 286.6183 537.1052 253.4183 564.4552C235.3483 579.1052 230.9583 598.6352 244.1383 613.2852C257.3283 627.4452 274.8983 624.9952 290.0383 613.7652C317.8683 592.2852 345.6983 580.5652 382.8083 580.5652C458.9883 580.5652 522.4583 631.8352 539.5483 699.7052H496.5783C479.0083 699.7052 475.0983 716.7952 484.8683 730.4652L546.8783 817.3852C557.1283 831.5452 574.7083 832.5152 585.9383 817.3852L646.9683 730.4652C657.2283 716.7952 653.3183 699.7052 635.2583 699.7052H597.1683C578.6183 593.2652 492.1883 520.0152 382.8083 520.0152ZM383.2983 949.7052C431.1483 949.7052 479.4883 933.1052 512.6983 905.2752C530.7583 891.1152 535.1583 871.0952 521.9683 856.9352C508.7883 842.2852 491.2083 844.7252 476.0783 855.9552C448.2383 877.4452 420.8983 889.1552 383.2983 889.1552C307.1283 889.1552 244.1383 837.8952 226.5583 770.0152H267.0883C285.1583 770.0152 289.0583 752.9252 279.2983 739.2552L216.7983 652.8352C206.5383 638.6752 188.9683 637.2052 178.2183 652.8352L116.6983 739.2552C106.9383 752.9252 110.8383 770.0152 128.4183 770.0152H168.9483C187.9883 876.4652 273.9283 949.7052 383.2983 949.7052Z"/>
</svg>