<?xml version="1.0" encoding="UTF-8" standalone="no"?>
<svg xmlns="http://www.w3.org/2000/svg"
     width="1199.21875" height="931.15234375"
     viewBox="0 0 1199.21875 931.15234375"
     fill="currentColor">
  <path d="M153.3183 931.1561H1045.8983C1147.4583 931.1561 1199.2183 880.3761 1199.2183 779.7861V268.5561C1199.2183 167.9661 1147.4583 117.6761 1045.8983 117.6761H906.2483C867.6783 117.6761 855.9583 109.8661 833.9883 85.4461L794.9183 41.5061C770.5083 14.6461 745.6083 -0.0039 695.3083 -0.0039H500.4883C450.1983 -0.0039 425.2883 14.6461 400.8783 41.5061L361.8183 85.4461C339.8483 109.3761 327.6383 117.6761 289.5483 117.6761H153.3183C51.2683 117.6761 -0.0017 167.9661 -0.0017 268.5561V779.7861C-0.0017 880.3761 51.2683 931.1561 153.3183 931.1561ZM423.3383 339.8461C405.7583 321.7761 411.6183 296.3861 435.0583 278.3161C477.5383 243.1661 538.5783 221.6761 599.6083 221.6761C738.7683 221.6761 848.6283 314.9461 872.5583 450.6861H921.3883C944.3383 450.6861 948.7283 472.1661 936.5283 489.7461L858.3983 600.0961C844.2383 619.6261 821.7783 618.1661 808.5983 600.0961L729.4883 489.7461C716.7983 472.6561 722.1683 450.6861 744.6283 450.6861H799.3183C777.3483 364.2561 696.7783 298.8261 599.6083 298.8261C552.2483 298.8261 516.5983 312.9861 481.9383 341.3061C462.3983 355.9561 440.9183 358.3961 423.3383 339.8461ZM260.7383 500.4861L338.8683 390.6261C353.0283 371.0961 375.4883 372.5561 388.1883 390.6261L467.7783 500.4861C480.4683 518.0661 475.0983 539.5461 452.1483 539.5461H400.8783C422.8483 626.4661 503.4183 691.8961 600.5883 691.8961C647.9483 691.8961 683.1083 676.7561 718.2583 648.9261C737.7883 634.7661 759.7683 631.8361 776.8583 650.3861C794.4383 668.4561 788.5783 694.3361 765.1383 712.4061C722.6583 747.5561 661.6183 768.5561 600.5883 768.5561C461.4283 768.5561 351.5583 675.2961 327.6383 539.5461H275.8783C252.9283 539.5461 248.5383 518.0661 260.7383 500.4861Z"/>
</svg>