<?xml version="1.0" encoding="UTF-8" standalone="no"?>
<svg xmlns="http://www.w3.org/2000/svg"
     width="1198.73046875" height="792.96875"
     viewBox="0 0 1198.73046875 792.96875"
     fill="currentColor">
  <path d="M156.738 792.9734H681.148C779.298 792.9734 837.888 736.3234 837.888 638.1834V154.2934C837.888 56.6434 784.178 0.0034 686.038 0.0034H156.738C62.988 0.0034 -0.002 56.6434 -0.002 154.2934V638.1834C-0.002 736.3234 58.598 792.9734 156.738 792.9734ZM904.298 540.5234L1082.028 694.3334C1098.628 708.9834 1118.168 718.2634 1135.738 718.2634C1173.828 718.2634 1198.728 690.4334 1198.728 650.3934V142.5734C1198.728 102.5434 1173.828 74.7034 1135.738 74.7034C1118.168 74.7034 1098.628 83.9834 1082.028 98.6334L904.298 251.9534ZM586.918 193.3634C608.398 193.3634 624.508 208.4934 624.508 228.5134C624.508 239.2534 621.098 248.0434 612.308 256.3434L406.738 462.8934L321.778 540.0434L465.818 531.7334H534.178C553.708 531.7334 570.798 545.8934 570.798 565.9134C570.798 586.9134 554.688 603.5134 534.178 603.5134H253.908C227.048 603.5134 213.868 590.3334 213.868 563.4734V283.6934C213.868 263.1834 230.958 247.5634 251.468 247.5634C270.998 247.5634 285.648 264.1634 285.648 283.6934V351.0734L277.348 495.1134L354.978 410.6434L560.548 204.5934C568.358 196.7734 576.168 193.3634 586.918 193.3634Z"/>
</svg>