<?xml version="1.0" encoding="UTF-8" standalone="no"?>
<svg xmlns="http://www.w3.org/2000/svg"
     width="898.92578125" height="898.92578125"
     viewBox="0 0 898.92578125 898.92578125"
     fill="currentColor">
  <path d="M153.3183 898.9295H745.6083C848.1483 898.9295 898.9283 848.1495 898.9283 747.5595V151.3695C898.9283 50.7795 848.1483 -0.0005 745.6083 -0.0005H153.3183C51.2683 -0.0005 -0.0017 50.2895 -0.0017 151.3695V747.5595C-0.0017 848.6295 51.2683 898.9295 153.3183 898.9295ZM450.1983 192.3795C472.6583 192.3795 488.2783 208.0095 488.2783 230.4695V480.9595L483.8883 588.3795L535.1583 527.3395L594.2383 467.2895C601.0783 459.4695 610.3483 456.0595 621.0983 456.0595C642.0883 456.0595 658.1983 471.6795 658.1983 492.6795C658.1983 503.4195 654.7883 512.2095 647.4583 519.0395L479.9783 686.0395C470.2183 695.7995 461.9183 700.6795 450.1983 700.6795C439.4483 700.6795 431.1483 696.2895 420.8983 686.0395L252.9283 519.0395C246.0983 512.2095 243.1683 503.4195 243.1683 492.6795C243.1683 471.6795 258.7883 456.0595 279.7883 456.0595C290.5283 456.0595 299.8083 459.9595 306.6383 467.2895L366.2083 527.3395L416.5083 587.8895L412.1083 480.9595V230.4695C412.1083 208.0095 428.2183 192.3795 450.1983 192.3795Z"/>
</svg>