<?xml version="1.0" encoding="UTF-8" standalone="no"?>
<svg xmlns="http://www.w3.org/2000/svg"
     width="996.09375" height="996.09375"
     viewBox="0 0 996.09375 996.09375"
     fill="currentColor">
  <path d="M498.0477 996.0959C770.5077 996.0959 996.0977 770.0159 996.0977 498.0459C996.0977 225.5859 770.0177 -0.0041 497.5577 -0.0041C225.5877 -0.0041 -0.0023 225.5859 -0.0023 498.0459C-0.0023 770.0159 226.0777 996.0959 498.0477 996.0959ZM499.0277 184.5659C509.7677 184.5659 518.0677 189.4559 528.3177 199.2159L674.3177 344.2359C681.1477 350.5859 684.5677 359.8659 684.5677 370.6059C684.5677 391.1159 668.9477 406.7359 647.9477 406.7359C636.7177 406.7359 627.9277 402.3459 621.0977 395.9959L583.4977 357.9059L532.7177 297.3659L537.1077 403.8059V592.2859L532.7177 698.7259L583.4977 638.1859L621.0977 600.0959C627.9277 593.2659 636.7177 589.3559 647.9477 589.3559C668.9477 589.3559 684.5677 604.9759 684.5677 625.4859C684.5677 635.7459 681.1477 645.5059 674.3177 651.8559L528.3177 796.8759C518.0677 806.6359 509.7677 811.5259 499.0277 811.5259C487.7977 811.5259 479.0077 806.6359 469.2377 796.8759L323.7277 651.8559C316.8977 645.5059 312.9877 635.7459 312.9877 625.4859C312.9877 604.9759 329.0977 589.3559 350.0977 589.3559C361.3277 589.3559 370.1177 592.7759 376.9577 600.0959L414.0577 638.1859L465.3277 699.2159L460.9377 592.2859V403.8059L465.3277 296.8759L414.0577 357.9059L376.9577 395.9959C370.1177 402.8359 361.3277 406.7359 350.0977 406.7359C329.0977 406.7359 312.9877 391.1159 312.9877 370.6059C312.9877 359.8659 316.8977 350.5859 323.7277 344.2359L469.2377 199.2159C479.0077 189.4559 487.7977 184.5659 499.0277 184.5659Z"/>
</svg>