<?xml version="1.0" encoding="UTF-8" standalone="no"?>
<svg xmlns="http://www.w3.org/2000/svg"
     width="1209.0059168198527" height="898.92578125"
     viewBox="0 0 1209.0059168198527 898.92578125"
     fill="currentColor">
  <path d="M427.2608 39.0595C427.7408 63.9695 442.8808 78.6095 470.7108 78.6095H867.2008C916.0308 78.6095 942.8808 104.4895 942.8808 155.2695V685.5495L870.1308 607.4195L823.2508 561.5195C806.6508 545.4095 783.7008 543.4595 766.6108 560.0595C750.0108 576.6595 750.9908 600.5895 767.5908 617.1895L932.1408 780.7595C964.3708 812.4995 999.5208 812.4995 1031.7508 780.7595L1195.8108 617.1895C1212.9008 600.5895 1213.3908 576.6595 1197.2808 560.0595C1180.6708 543.4595 1157.2408 544.9195 1140.6408 561.5195L1093.7608 607.4195L1021.4908 684.5695V151.3695C1021.4908 50.2895 970.2208 -0.0005 868.1708 -0.0005H470.7108C442.8808 -0.0005 426.7708 14.1595 427.2608 39.0595ZM11.7308 338.3795C28.8208 355.4695 51.7708 353.5195 68.3708 337.3995L115.2408 291.0195L187.5108 214.3595V747.5595C187.5108 848.6295 239.2708 898.9295 340.8308 898.9295H738.2908C766.1208 898.9295 782.2408 884.7695 781.7508 859.8595C781.2608 834.4695 766.1208 820.3095 738.2908 820.3095H342.3008C293.4708 820.3095 266.1208 794.4295 266.1208 743.6495V213.3795L338.8808 291.0195L385.7508 337.3995C402.3508 353.5195 425.7908 355.4695 442.3908 338.3795C458.9908 322.2695 458.0208 298.3395 441.4208 281.7395L276.8708 117.6795C245.1308 86.4295 209.4808 86.4295 177.7408 117.6795L13.1908 281.7395C-3.8992 298.3395 -4.3792 322.2695 11.7308 338.3795Z"/>
</svg>