<?xml version="1.0" encoding="UTF-8" standalone="no"?>
<svg xmlns="http://www.w3.org/2000/svg"
     width="970.21484375" height="896.484375"
     viewBox="0 0 970.21484375 896.484375"
     fill="currentColor">
  <path d="M484.8683 896.4845C495.1183 896.4845 509.7683 889.6445 520.5083 883.3045C795.8983 707.5145 970.2183 502.9345 970.2183 294.9245C970.2183 122.0745 851.5583 0.0045 697.7583 0.0045C602.5383 0.0045 529.2983 52.7345 484.8683 133.3045C441.4083 53.2245 367.6783 0.0045 271.9683 0.0045C118.6483 0.0045 -0.0017 122.0745 -0.0017 294.9245C-0.0017 502.9345 174.3183 707.5145 449.7083 883.3045C459.9583 889.6445 475.0983 896.4845 484.8683 896.4845ZM520.0183 629.8845C520.0183 650.3945 501.9483 667.4845 480.9583 667.4845C459.9583 667.4845 442.3783 650.3945 442.3783 629.8845V449.2145L445.3083 367.6745L403.3183 411.1345L358.8883 456.5445C352.0483 463.3745 341.7983 467.7745 332.0283 467.7745C311.0383 467.7745 296.3883 453.6145 296.3883 432.6145C296.3883 421.3845 301.2683 413.0845 309.0783 405.7645L452.6383 273.9245C463.3783 264.1645 471.1883 260.7445 480.9583 260.7445C490.7183 260.7445 498.5383 264.1645 509.2783 273.9245L652.8283 405.7645C660.6483 413.0845 665.5283 421.3845 665.5283 432.6145C665.5283 453.6145 649.8983 467.7745 629.8783 467.7745C619.6283 467.7745 610.3483 463.3745 603.0283 456.5445L558.5983 411.1345L516.5983 367.6745L520.0183 449.2145Z"/>
</svg>