<?xml version="1.0" encoding="UTF-8" standalone="no"?>
<svg xmlns="http://www.w3.org/2000/svg"
     width="898.92578125" height="898.92578125"
     viewBox="0 0 898.92578125 898.92578125"
     fill="currentColor">
  <path d="M153.3183 898.9295H745.6083C848.1483 898.9295 898.9283 848.1495 898.9283 747.5595V151.3695C898.9283 50.7795 848.1483 -0.0005 745.6083 -0.0005H153.3183C51.2683 -0.0005 -0.0017 50.2895 -0.0017 151.3695V747.5595C-0.0017 848.6295 51.2683 898.9295 153.3183 898.9295ZM154.2983 820.3095C105.4683 820.3095 78.6183 794.4295 78.6183 743.6495V155.2695C78.6183 104.4895 105.4683 78.6095 154.2983 78.6095H744.6283C792.9683 78.6095 820.3083 104.4895 820.3083 155.2695V743.6495C820.3083 794.4295 792.9683 820.3095 744.6283 820.3095ZM450.1983 200.1995C429.1983 200.1995 413.5783 215.3295 413.5783 236.8195V480.9595L417.4783 583.9795L368.6483 525.3895L310.5483 466.7995C304.1983 459.9595 295.4083 456.0595 284.6683 456.0595C264.6483 456.0595 249.5083 471.1895 249.5083 491.2095C249.5083 501.4695 252.4383 510.2495 258.7883 516.5995L421.8783 678.7095C431.6383 688.4795 439.9383 692.8695 450.1983 692.8695C461.4283 692.8695 469.7283 687.9895 479.0083 678.7095L641.5983 516.5995C648.4383 510.2495 651.8583 501.4695 651.8583 491.2095C651.8583 471.1895 636.2283 456.0595 616.2083 456.0595C605.4683 456.0595 596.6783 459.4695 590.3283 466.7995L532.7183 525.3895L482.9083 584.4695L486.8183 480.9595V236.8195C486.8183 215.3295 471.6783 200.1995 450.1983 200.1995Z"/>
</svg>