<?xml version="1.0" encoding="UTF-8" standalone="no"?>
<svg xmlns="http://www.w3.org/2000/svg"
     width="996.09375" height="996.09375"
     viewBox="0 0 996.09375 996.09375"
     fill="currentColor">
  <path d="M498.0477 996.0959C770.5077 996.0959 996.0977 770.0159 996.0977 498.0459C996.0977 225.5859 770.0177 -0.0041 497.5577 -0.0041C225.5877 -0.0041 -0.0023 225.5859 -0.0023 498.0459C-0.0023 770.0159 226.0777 996.0959 498.0477 996.0959ZM498.0477 913.0859C267.5777 913.0859 83.4977 728.5159 83.4977 498.0459C83.4977 267.5759 267.0877 83.0059 497.5577 83.0059C728.0277 83.0059 913.0877 267.5759 913.0877 498.0459C913.0877 728.5159 728.5177 913.0859 498.0477 913.0859ZM344.2377 619.1359C365.7277 619.1359 379.8877 604.0059 379.8877 581.0559V496.5859L372.5577 420.4059L442.8677 495.6059L622.5577 675.2959C629.3977 682.1259 638.6677 686.5259 650.3877 686.5259C671.8777 686.5259 686.5277 672.3659 686.5277 650.3859C686.5277 640.6259 681.6377 630.8559 674.8077 624.0259L494.6277 443.8459L418.4577 373.0459L490.7277 380.8559H579.5877C603.0277 380.8559 618.1677 366.6959 618.1677 345.2159C618.1677 323.7259 603.5177 309.5659 580.5677 309.5659H349.1177C324.2177 309.5659 308.1077 320.7959 308.1077 349.6059V580.0759C308.1077 602.5359 322.7577 619.1359 344.2377 619.1359Z"/>
</svg>