<?xml version="1.0" encoding="UTF-8" standalone="no"?>
<svg xmlns="http://www.w3.org/2000/svg"
     width="898.92578125" height="898.92578125"
     viewBox="0 0 898.92578125 898.92578125"
     fill="currentColor">
  <path d="M153.3183 898.9255H745.6083C848.1483 898.9255 898.9283 848.1455 898.9283 747.5555V151.3655C898.9283 50.7855 848.1483 -0.0045 745.6083 -0.0045H153.3183C51.2683 -0.0045 -0.0017 50.2955 -0.0017 151.3655V747.5555C-0.0017 848.6355 51.2683 898.9255 153.3183 898.9255ZM502.4383 192.8755C619.1383 192.8755 695.3083 271.9755 695.3083 389.6455V455.5655C695.3083 479.0055 680.6683 494.6255 659.1783 494.6255C637.2083 494.6255 622.5583 479.4955 622.5583 456.5455V389.6455C622.5583 315.9155 574.7083 265.6255 502.4383 265.6255C435.5483 265.6255 391.1183 314.9455 391.1183 389.1555V532.2255L389.1583 582.0355L405.2783 559.0855L462.3983 499.9955C469.2383 492.6755 478.5183 488.2855 489.2583 488.2855C510.2583 488.2855 526.8583 504.3955 526.8583 524.4155C526.8583 535.6455 522.9483 544.4355 516.1183 551.2655L385.2583 679.1955C375.9783 688.4755 365.2383 692.3855 354.4883 692.3855C343.2583 692.3855 332.5183 687.9855 323.2383 679.1955L193.8483 551.7555C186.5283 544.4355 183.1083 536.1355 183.1083 524.9055C183.1083 504.3955 199.7083 488.2855 220.6983 488.2855C230.4683 488.2855 240.2383 492.6755 246.5783 499.9955L294.4383 549.3155L320.7983 582.5155L318.3583 532.2255V389.1555C318.3583 271.4855 392.0883 192.8755 502.4383 192.8755Z"/>
</svg>