<?xml version="1.0" encoding="UTF-8" standalone="no"?>
<svg xmlns="http://www.w3.org/2000/svg"
     width="916.50390625" height="768.5546875"
     viewBox="0 0 916.50390625 768.5546875"
     fill="currentColor">
  <path d="M870.6083 768.5533C896.4883 768.5533 908.1983 751.9533 912.5983 731.9333C915.5283 717.2833 916.5083 692.8733 916.5083 664.5533C916.5083 428.2233 822.2683 326.6633 590.3283 326.6633H249.0283L129.3983 333.4933L293.9483 183.1033L402.3483 72.7533C410.1583 64.9433 414.0583 53.7133 414.0583 41.9933C414.0583 17.5733 395.5083 0.0033 371.5783 0.0033C359.8683 0.0033 349.1183 3.9033 338.3783 14.6533L15.1383 337.4033C5.3683 346.6833 -0.0017 358.4033 -0.0017 370.1133C-0.0017 382.3233 5.3683 393.5533 15.1383 403.3233L339.3583 727.0533C349.6083 736.3233 359.8683 740.7233 371.5783 740.7233C395.5083 740.7233 414.0583 723.1433 414.0583 698.7333C414.0583 687.0133 410.1583 675.2933 402.3483 667.4833L293.9483 557.1333L128.9083 406.7333L249.0283 414.0633H585.9383C765.1383 414.0633 828.1283 487.7933 828.1283 668.9433C828.1283 691.8933 827.1483 708.0033 827.1483 725.0933C827.1483 750.9733 845.2183 768.5533 870.6083 768.5533Z"/>
</svg>