<?xml version="1.0" encoding="UTF-8" standalone="no"?>
<svg xmlns="http://www.w3.org/2000/svg"
     width="898.92578125" height="898.92578125"
     viewBox="0 0 898.92578125 898.92578125"
     fill="currentColor">
  <path d="M153.3183 898.9295H745.6083C848.1483 898.9295 898.9283 848.1495 898.9283 747.5595V151.3695C898.9283 50.7795 848.1483 -0.0005 745.6083 -0.0005H153.3183C51.2683 -0.0005 -0.0017 50.2895 -0.0017 151.3695V747.5595C-0.0017 848.6295 51.2683 898.9295 153.3183 898.9295ZM213.8683 273.9295L340.3283 151.3695C346.6783 144.5295 355.9583 140.6295 364.2583 140.6295C382.8083 140.6295 396.4883 153.8095 396.4883 172.8495C396.4883 181.6395 393.0683 189.9395 386.7183 196.2895L333.9883 248.0495L313.4783 266.1095L336.9183 265.6295H662.5983C681.6383 265.6295 695.3083 279.2995 695.3083 298.3395C695.3083 316.8895 681.1483 331.5395 662.5983 331.5395H336.4283L312.9883 330.0795L333.9883 349.6095L386.7183 400.8795C393.0683 407.2295 396.4883 415.0395 396.4883 424.3195C396.4883 442.8695 382.8083 456.0595 364.2583 456.0595C355.9583 456.0595 347.1683 452.1495 340.3283 446.7795L213.8683 322.7495C200.6883 310.0595 200.6883 287.1095 213.8683 273.9295ZM684.5683 624.0195L558.5983 748.0495C551.7583 754.3895 542.4783 758.2995 534.6683 758.2995C516.5983 758.2995 502.4383 744.6295 502.4383 726.0695C502.4383 716.7995 506.3483 709.4695 512.6983 702.6395L565.4283 650.8795L586.4283 632.8095L562.0083 633.2995H236.3283C217.7783 633.2995 204.0983 619.1395 204.0983 600.0995C204.0983 581.0595 218.2583 567.3795 236.3283 567.3795H562.4983L586.4283 568.8495L565.4283 549.3195L511.7183 498.0495C505.8583 491.6995 502.4383 483.8895 502.4383 474.6095C502.4383 456.0595 515.6283 442.8695 534.6683 442.8695C543.4583 442.8695 552.7383 446.7795 558.5983 452.6395L684.5683 576.6595C697.7583 589.8395 698.7283 610.3495 684.5683 624.0195Z"/>
</svg>