<?xml version="1.0" encoding="UTF-8" standalone="no"?>
<svg xmlns="http://www.w3.org/2000/svg"
     width="1247.1251554157816" height="1046.875"
     viewBox="0 0 1247.1251554157816 1046.875"
     fill="currentColor">
  <path d="M425.8331 894.0466C425.8331 996.0966 476.6131 1046.8766 577.2031 1046.8766H1095.7531C1196.8331 1046.8766 1247.1231 996.0966 1247.1231 894.0466V153.3166C1247.1231 51.7566 1196.8331 -0.0034 1095.7531 -0.0034H577.2031C476.6131 -0.0034 425.8331 51.7566 425.8331 153.3166ZM504.4531 892.5766V154.7866C504.4531 105.9566 530.8131 78.6166 581.5931 78.6166H1091.8531C1142.6331 78.6166 1168.5131 105.9566 1168.5131 154.7866V892.5766C1168.5131 941.4066 1142.6331 968.2666 1091.8531 968.2666H581.5931C530.8131 968.2666 504.4531 941.4066 504.4531 892.5766ZM836.4831 508.2966C906.3031 508.7866 961.9731 449.7066 961.9731 371.5866C961.9731 298.3366 906.3031 237.3066 836.4831 237.3066C767.1431 237.3066 711.4831 298.3366 711.4831 371.5866C711.4831 449.7066 767.1431 507.8166 836.4831 508.2966ZM11.7731 440.9166C-12.6369 468.2666 2.9831 505.3666 39.6031 505.3666H122.6131V719.2366C122.6131 740.7266 139.2131 757.3266 161.1831 757.3266C182.1831 757.3266 198.7831 740.7266 198.7831 719.2366V505.3666H280.8131C319.3931 505.3666 332.5731 466.7966 309.1331 440.9166L188.0431 304.1966C171.9331 285.6466 148.9831 285.6466 132.3831 304.1966ZM613.3331 770.9966H1059.6231C1079.1531 770.9966 1088.4331 758.2966 1088.4331 740.2366C1088.4331 687.0166 1007.8631 548.3366 836.4831 548.3366C665.0931 548.3366 584.5231 687.0166 584.5231 740.2366C584.5231 758.2966 594.2931 770.9966 613.3331 770.9966Z"/>
</svg>