<?xml version="1.0" encoding="UTF-8" standalone="no"?>
<svg xmlns="http://www.w3.org/2000/svg"
     width="898.92578125" height="898.92578125"
     viewBox="0 0 898.92578125 898.92578125"
     fill="currentColor">
  <path d="M153.3183 898.9295H745.6083C848.1483 898.9295 898.9283 848.1495 898.9283 747.5595V151.3695C898.9283 50.7795 848.1483 -0.0005 745.6083 -0.0005H153.3183C51.2683 -0.0005 -0.0017 50.2895 -0.0017 151.3695V747.5595C-0.0017 848.6295 51.2683 898.9295 153.3183 898.9295ZM291.5083 573.7295C269.5283 573.7295 254.8783 556.6395 254.8783 533.1995V295.8995C254.8783 266.1095 270.9983 254.3895 296.8783 254.3895H535.1583C559.0783 254.3895 574.2183 269.0395 574.2183 291.4995C574.2183 313.4795 558.5983 328.1295 534.1783 328.1295H443.3583L368.6483 320.3095L447.2683 393.5595L632.3283 578.1295C639.6483 585.4495 644.5283 595.6995 644.5283 605.4695C644.5283 628.4195 629.3983 643.0695 607.4183 643.0695C595.2183 643.0695 585.9383 638.6695 578.1283 631.3495L394.0383 446.7795L321.2883 369.1395L328.6183 447.7495V534.1795C328.6183 558.1095 313.9683 573.7295 291.5083 573.7295Z"/>
</svg>