<?xml version="1.0" encoding="UTF-8" standalone="no"?>
<svg xmlns="http://www.w3.org/2000/svg"
     width="906.73828125" height="740.234375"
     viewBox="0 0 906.73828125 740.234375"
     fill="currentColor">
  <path d="M906.7383 370.1163C906.7383 357.9063 901.8583 346.6763 892.0883 337.4063L568.3583 14.6463C557.6183 3.9063 547.3683 -0.0037 535.6483 -0.0037C511.7183 -0.0037 493.1683 17.5762 493.1683 41.9963C493.1683 53.7062 497.0683 64.9462 504.8783 72.7563L614.2583 184.0862L778.3183 333.9863L660.6483 326.6563H42.9683C17.5783 326.6563 -0.0017 344.7263 -0.0017 370.1163C-0.0017 395.5063 17.5783 413.5763 42.9683 413.5763H660.6483L778.8083 406.2462L614.2583 556.1563L504.8783 667.4763C497.0683 674.8063 493.1683 686.5263 493.1683 698.2463C493.1683 722.6563 511.7183 740.2363 535.6483 740.2363C547.3683 740.2363 557.6183 735.8362 567.3783 726.5663L892.0883 402.8363C901.8583 393.5563 906.7383 382.3263 906.7383 370.1163Z"/>
</svg>