<?xml version="1.0" encoding="UTF-8" standalone="no"?>
<svg xmlns="http://www.w3.org/2000/svg"
     width="762.20703125" height="922.36328125"
     viewBox="0 0 762.20703125 922.36328125"
     fill="currentColor">
  <path d="M103.0283 -0.0034C75.1983 -0.0034 51.2683 0.9766 36.6183 3.4166C17.0883 7.3266 -0.0017 20.0166 -0.0017 44.9266C-0.0017 70.3166 18.0683 86.4266 43.4583 86.4266C60.0583 86.4266 76.1683 85.4466 98.6283 85.4466C272.4583 85.4466 349.1183 144.5266 348.6283 321.2866L348.1483 655.2766L352.5383 788.0866L254.3983 680.6666L94.7283 520.5066C86.9183 512.6966 75.1983 508.7866 63.4783 508.7866C39.5483 508.7866 21.4883 527.3466 21.4883 551.2666C21.4883 562.9866 25.8783 573.2466 35.1583 583.0066L359.3783 907.7166C368.6483 917.4766 379.8783 922.3666 391.5983 922.3666C403.8083 922.3666 415.0383 917.4766 424.3183 907.7166L748.5383 583.0066C757.8083 573.2466 762.2083 562.9866 762.2083 551.2666C762.2083 527.3466 744.1383 508.7866 719.7283 508.7866C708.4983 508.7866 696.7783 512.6966 688.9683 520.5066L528.8083 680.6666L431.6383 787.5966L435.5483 655.2766V316.8966C435.5483 89.8466 329.0983 -0.0034 103.0283 -0.0034Z"/>
</svg>