<?xml version="1.0" encoding="UTF-8" standalone="no"?>
<svg xmlns="http://www.w3.org/2000/svg"
     width="996.09375" height="996.09375"
     viewBox="0 0 996.09375 996.09375"
     fill="currentColor">
  <path d="M498.0477 996.0959C770.5077 996.0959 996.0977 770.0159 996.0977 498.0459C996.0977 225.5859 770.0177 -0.0041 497.5577 -0.0041C225.5877 -0.0041 -0.0023 225.5859 -0.0023 498.0459C-0.0023 770.0159 226.0777 996.0959 498.0477 996.0959ZM498.0477 913.0859C267.5777 913.0859 83.4977 728.5159 83.4977 498.0459C83.4977 267.5759 267.0877 83.0059 497.5577 83.0059C728.0277 83.0059 913.0877 267.5759 913.0877 498.0459C913.0877 728.5159 728.5177 913.0859 498.0477 913.0859ZM749.9977 557.6159C749.9977 440.4259 665.0377 369.1359 551.2677 369.1359H405.2777L347.6577 370.6059L386.2277 340.3359L436.5277 291.5059C443.3577 285.6459 447.7577 276.3659 447.7577 266.1159C447.7577 246.0959 432.6177 230.9559 412.5977 230.9559C402.3477 230.9559 394.5277 233.8859 387.6977 241.2059L257.8077 373.0459C249.9977 381.3459 244.6277 391.6059 244.6277 402.8359C244.6277 414.5459 249.9977 424.3159 257.8077 432.6159L388.1877 565.4259C395.0177 572.2659 402.8277 575.6859 413.0877 575.6859C432.6177 575.6859 447.7577 560.5459 447.7577 540.0359C447.7577 531.2459 444.3377 521.4859 437.0077 515.1359L375.9777 456.5459L347.6577 435.0559L405.2777 437.4959H551.2677C623.0477 437.4959 678.2277 478.5159 678.2277 553.7059C678.2277 630.8559 624.5077 678.2259 550.7777 678.2259H482.9077C461.9177 678.2259 445.7977 690.4259 445.7977 713.3759C445.7977 735.8359 461.9177 748.0459 483.8877 748.0459H550.7777C664.5477 748.0459 749.9977 674.8059 749.9977 557.6159Z"/>
</svg>