<?xml version="1.0" encoding="UTF-8" standalone="no"?>
<svg xmlns="http://www.w3.org/2000/svg"
     width="996.09375" height="996.09375"
     viewBox="0 0 996.09375 996.09375"
     fill="currentColor">
  <path d="M498.0477 996.0959C770.5077 996.0959 996.0977 770.0159 996.0977 498.0459C996.0977 225.5859 770.0177 -0.0041 497.5577 -0.0041C225.5877 -0.0041 -0.0023 225.5859 -0.0023 498.0459C-0.0023 770.0159 226.0777 996.0959 498.0477 996.0959ZM498.0477 913.0859C267.5777 913.0859 83.4977 728.5159 83.4977 498.0459C83.4977 267.5759 267.0877 83.0059 497.5577 83.0059C728.0277 83.0059 913.0877 267.5759 913.0877 498.0459C913.0877 728.5159 728.5177 913.0859 498.0477 913.0859ZM281.7377 491.6959H451.1677C476.5577 491.6959 491.2077 480.4659 491.2077 451.1759V281.2459C491.2077 262.2059 476.0777 247.0659 457.0277 247.0659C437.9877 247.0659 422.3677 262.2059 422.3677 281.2459V305.1759L427.7377 382.3259L300.2977 249.9959C286.1377 234.8659 262.6977 234.8659 248.5377 249.5159C234.3777 263.6759 234.8677 287.1059 249.0277 301.2659L380.8577 427.7359L306.1477 422.8559H281.7377C262.6977 422.8559 247.5577 437.9859 247.5577 457.0359C247.5577 476.0759 262.6977 491.6959 281.7377 491.6959ZM538.0877 748.5359C557.1277 748.5359 572.2677 733.3959 572.2677 714.3559V690.4259L567.3877 613.2859L694.8277 745.6059C708.9877 760.7459 732.4177 760.7459 746.5777 746.0959C760.7377 731.9359 760.2577 708.0059 746.0977 694.3359L614.2577 567.8759L688.9677 572.7559H712.8877C731.9377 572.7559 747.5577 557.6159 747.5577 538.5759C747.5577 519.0459 731.9377 503.9059 712.8877 503.9059H543.9477C518.5577 503.9059 503.4177 515.1359 503.4177 543.9459V714.3559C503.4177 733.3959 519.0477 748.5359 538.0877 748.5359Z"/>
</svg>