<?xml version="1.0" encoding="UTF-8" standalone="no"?>
<svg xmlns="http://www.w3.org/2000/svg"
     width="996.09375" height="996.09375"
     viewBox="0 0 996.09375 996.09375"
     fill="currentColor">
  <path d="M498.0477 996.0959C770.5077 996.0959 996.0977 770.0159 996.0977 498.0459C996.0977 225.5859 770.0177 -0.0041 497.5577 -0.0041C225.5877 -0.0041 -0.0023 225.5859 -0.0023 498.0459C-0.0023 770.0159 226.0777 996.0959 498.0477 996.0959ZM678.7077 733.8859C665.5277 747.0659 642.5777 747.0659 629.3977 733.8859L505.8577 607.9059C499.9977 600.5859 496.5777 591.7959 496.5777 583.9859C496.5777 564.9459 509.2777 551.7559 528.3177 551.7559C537.5977 551.7559 545.4077 554.6859 551.7577 561.5259L603.5177 614.2559L622.0677 635.2559L621.0977 611.8159V285.1559C621.0977 266.6059 635.2577 252.9259 654.2977 252.9259C672.8477 252.9259 687.0077 266.6059 687.0077 285.1559V611.3259L686.0377 634.7659L705.0777 614.2559L756.8377 561.5259C762.6977 555.6659 770.9977 551.7559 779.7877 551.7559C798.8277 551.7559 812.4977 564.9459 812.4977 583.9859C812.4977 592.2859 807.6177 601.0759 801.7577 607.9059ZM317.8677 263.1859C332.0277 249.0259 353.0277 249.9959 366.2077 263.1859L489.7477 389.6459C495.6077 395.5059 499.5077 404.7859 499.5077 413.0859C499.5077 432.1259 486.3277 445.7959 467.7777 445.7959C458.9877 445.7959 450.6877 442.3859 444.8277 436.5259L392.5777 382.3259L374.0277 361.8159L374.9977 385.7459V711.9159C374.9977 729.9759 361.3277 743.6559 341.7977 743.6559C323.2377 743.6559 309.0777 729.9759 309.0777 711.9159V386.2259L310.0577 361.8159L291.0177 382.3259L239.2577 435.5459C233.3977 441.8959 225.0977 445.7959 216.7977 445.7959C197.7577 445.7959 183.5977 431.6359 183.5977 413.0859C183.5977 405.7659 188.4777 396.4859 193.8477 389.6459Z"/>
</svg>