<?xml version="1.0" encoding="UTF-8" standalone="no"?>
<svg xmlns="http://www.w3.org/2000/svg"
     width="898.92578125" height="898.92578125"
     viewBox="0 0 898.92578125 898.92578125"
     fill="currentColor">
  <path d="M153.3183 898.9295H745.6083C848.1483 898.9295 898.9283 848.1495 898.9283 747.5595V151.3695C898.9283 50.7795 848.1483 -0.0005 745.6083 -0.0005H153.3183C51.2683 -0.0005 -0.0017 50.2895 -0.0017 151.3695V747.5595C-0.0017 848.6295 51.2683 898.9295 153.3183 898.9295ZM450.6883 135.2495C461.4283 135.2495 469.7283 140.1395 479.9783 149.8995L625.9783 294.9195C632.8083 301.2695 636.2283 310.5495 636.2283 321.2895C636.2283 341.7995 620.6083 357.4195 599.6083 357.4195C588.3783 357.4195 579.5883 353.0295 572.7583 346.6795L535.1583 308.5895L484.3783 248.0495L488.7683 354.4895V542.9695L484.3783 649.4095L535.1583 588.8695L572.7583 550.7795C579.5883 543.9495 588.3783 540.0395 599.6083 540.0395C620.6083 540.0395 636.2283 555.6595 636.2283 576.1695C636.2283 586.4295 632.8083 596.1895 625.9783 602.5395L479.9783 747.5595C469.7283 757.3195 461.4283 762.2095 450.6883 762.2095C439.4483 762.2095 430.6683 757.3195 420.8983 747.5595L275.3883 602.5395C268.5583 596.1895 264.6483 586.4295 264.6483 576.1695C264.6483 555.6595 280.7583 540.0395 301.7583 540.0395C312.9883 540.0395 321.7783 543.4595 329.0983 550.7795L366.2083 588.8695L416.9883 649.8995L412.5983 542.9695V354.4895L416.9883 247.5595L366.2083 308.5895L329.0983 346.6795C321.7783 353.5195 312.9883 357.4195 301.7583 357.4195C280.7583 357.4195 264.6483 341.7995 264.6483 321.2895C264.6483 310.5495 268.5583 301.2695 275.3883 294.9195L420.8983 149.8995C430.6683 140.1395 439.4483 135.2495 450.6883 135.2495Z"/>
</svg>