<?xml version="1.0" encoding="UTF-8" standalone="no"?>
<svg xmlns="http://www.w3.org/2000/svg"
     width="898.92578125" height="898.92578125"
     viewBox="0 0 898.92578125 898.92578125"
     fill="currentColor">
  <path d="M153.3183 898.9295H745.6083C848.1483 898.9295 898.9283 848.1495 898.9283 747.5595V151.3695C898.9283 50.7795 848.1483 -0.0005 745.6083 -0.0005H153.3183C51.2683 -0.0005 -0.0017 50.2895 -0.0017 151.3695V747.5595C-0.0017 848.6295 51.2683 898.9295 153.3183 898.9295ZM154.2983 820.3095C105.4683 820.3095 78.6183 794.4295 78.6183 743.6495V155.2695C78.6183 104.4895 105.4683 78.6095 154.2983 78.6095H744.6283C792.9683 78.6095 820.3083 104.4895 820.3083 155.2695V743.6495C820.3083 794.4295 792.9683 820.3095 744.6283 820.3095ZM602.5383 327.6395C581.0583 327.6395 566.8983 342.2895 566.8983 365.7195V450.1995L574.2183 526.3695L503.9083 451.1695L324.2183 271.4795C317.3783 264.6495 308.1083 260.2495 296.3883 260.2495C274.8983 260.2495 260.7383 274.4095 260.7383 296.3895C260.7383 306.1495 265.1383 315.9195 271.9683 322.7495L452.1483 502.4395L528.3183 573.7295L456.0583 565.9195H367.1883C343.7483 565.9195 328.6183 580.0795 328.6183 601.5595C328.6183 623.0495 343.2583 637.2095 366.2083 637.2095H597.6583C622.5583 637.2095 638.6683 625.9795 638.6683 597.1695V366.6995C638.6683 343.7495 624.0283 327.6395 602.5383 327.6395Z"/>
</svg>