<?xml version="1.0" encoding="UTF-8" standalone="no"?>
<svg xmlns="http://www.w3.org/2000/svg"
     width="898.92578125" height="898.92578125"
     viewBox="0 0 898.92578125 898.92578125"
     fill="currentColor">
  <path d="M153.3183 898.9255H745.6083C848.1483 898.9255 898.9283 848.1455 898.9283 747.5555V151.3655C898.9283 50.7855 848.1483 -0.0045 745.6083 -0.0045H153.3183C51.2683 -0.0045 -0.0017 50.2955 -0.0017 151.3655V747.5555C-0.0017 848.6355 51.2683 898.9255 153.3183 898.9255ZM199.2183 503.4155C199.2183 392.5755 277.8283 319.3355 395.9983 319.3355H538.5783L588.8683 321.7755L555.6683 295.4055L506.3483 247.5555C499.0283 241.2155 495.1183 231.4455 495.1183 221.6755C495.1183 200.1955 510.2583 184.0855 531.2483 184.0855C542.4783 184.0855 550.7783 187.4955 558.1083 194.8255L685.5483 324.2155C694.3383 333.4955 698.7283 344.2355 698.7283 355.4655C698.7283 366.2155 694.8283 376.9555 685.5483 386.2255L557.6183 517.0855C550.7783 523.9255 541.9883 527.8355 530.7583 527.8355C510.7383 527.8355 495.1183 511.2255 495.1183 490.2355C495.1183 479.4955 499.0283 470.7055 506.3483 463.3755L565.4283 406.2455L588.3783 390.1355L538.5783 392.0855H395.9983C321.2883 392.0855 271.9683 436.5255 271.9683 503.4155C271.9683 575.6855 322.2683 623.5355 396.4883 623.5355H462.8883C485.8383 623.5355 500.9783 638.1855 500.9783 659.6655C500.9783 681.6455 485.3483 696.2855 461.9183 696.2855H396.4883C278.3183 696.2855 199.2183 620.1155 199.2183 503.4155Z"/>
</svg>