<?xml version="1.0" encoding="UTF-8" standalone="no"?>
<svg xmlns="http://www.w3.org/2000/svg"
     width="998.53515625" height="1228.515625"
     viewBox="0 0 998.53515625 1228.515625"
     fill="currentColor">
  <path d="M-0.0017 1075.1952C-0.0017 1177.2452 50.2883 1228.5152 151.3683 1228.5152H610.3483C711.4283 1228.5152 761.7183 1176.7552 761.7183 1075.1952V984.8652H847.1683C947.7583 984.8652 998.5383 933.1052 998.5383 831.5452V153.3252C998.5383 51.7552 947.7583 -0.0048 847.1683 -0.0048H388.1883C287.5983 -0.0048 236.8183 51.2652 236.8183 153.3252V243.6552H151.3683C50.2883 243.6552 -0.0017 294.4352 -0.0017 396.9752ZM467.2883 138.6752V128.4152C467.2883 113.2852 477.0483 99.6052 498.5383 99.6052H736.8183C757.8083 99.6052 768.0683 113.2852 768.0683 128.4152V138.6752C768.0683 153.3252 757.8083 167.4852 736.8183 167.4852H498.5383C477.0483 167.4852 467.2883 153.3252 467.2883 138.6752ZM78.6183 1073.7352V397.9452C78.6183 349.6052 104.4883 322.2652 154.7883 322.2652H606.4483C656.7383 322.2652 683.1083 349.6052 683.1083 397.9452V1073.7352C683.1083 1122.5552 656.7383 1149.9052 606.4483 1149.9052H154.7883C104.4883 1149.9052 78.6183 1122.5552 78.6183 1073.7352ZM167.4783 735.3552C167.4783 753.4152 180.1783 766.6052 198.2383 766.6052H409.6683L497.0683 763.1852L446.2883 806.6452L398.4383 853.5152C392.5783 859.3752 389.1583 866.6952 389.1583 875.4852C389.1583 892.0852 401.8583 905.7652 418.9483 905.7652C427.2483 905.7652 434.5683 902.3452 439.9383 896.9752L576.6583 759.7652C584.4683 751.9552 588.8683 745.1152 588.8683 735.3552C588.8683 727.0552 584.9583 720.2152 576.6583 711.9152L439.9383 574.2152C434.5683 568.8452 427.2483 565.9152 418.9483 565.9152C401.8583 565.9152 389.1583 579.1052 389.1583 595.7052C389.1583 604.4952 393.0683 611.8152 398.4383 617.6752L446.2883 665.0352L497.0683 708.0052L409.6683 705.0752H198.2383C180.6683 705.0752 167.4783 717.2852 167.4783 735.3552Z"/>
</svg>