<?xml version="1.0" encoding="UTF-8" standalone="no"?>
<svg xmlns="http://www.w3.org/2000/svg"
     width="898.92578125" height="898.92578125"
     viewBox="0 0 898.92578125 898.92578125"
     fill="currentColor">
  <path d="M153.3183 898.9295H745.6083C848.1483 898.9295 898.9283 848.1495 898.9283 747.5595V151.3695C898.9283 50.7795 848.1483 -0.0005 745.6083 -0.0005H153.3183C51.2683 -0.0005 -0.0017 50.2895 -0.0017 151.3695V747.5595C-0.0017 848.6295 51.2683 898.9295 153.3183 898.9295ZM154.2983 820.3095C105.4683 820.3095 78.6183 794.4295 78.6183 743.6495V155.2695C78.6183 104.4895 105.4683 78.6095 154.2983 78.6095H744.6283C792.9683 78.6095 820.3083 104.4895 820.3083 155.2695V743.6495C820.3083 794.4295 792.9683 820.3095 744.6283 820.3095ZM752.9283 449.2195C752.9283 437.9895 748.5383 429.6895 739.2583 420.4095L598.1483 279.2995C591.7983 272.4595 583.0083 269.0395 572.7583 269.0395C552.7383 269.0395 537.5983 284.6695 537.5983 304.6895C537.5983 314.9395 541.5083 324.2195 548.3383 330.5695L585.4483 366.6995L645.0183 416.4995L541.5083 412.5995H357.9083L254.3983 416.4995L313.4783 366.6995L350.5883 330.5695C357.4183 324.2195 361.3283 314.9395 361.3283 304.6895C361.3283 284.6695 346.1883 269.0395 326.1683 269.0395C315.9183 269.0395 307.1283 272.4595 300.7783 279.2995L159.6683 420.4095C150.3883 429.6895 145.9983 437.9895 145.9983 449.2195C145.9983 459.4695 150.3883 467.2895 159.6683 477.0495L300.7783 619.1395C307.1283 625.4895 315.9183 628.9095 326.1683 628.9095C346.1883 628.9095 361.3283 613.2795 361.3283 593.7495C361.3283 583.0095 356.9383 574.2195 350.5883 567.3795L313.4783 530.7595L254.8783 481.9295L357.9083 485.3495H541.5083L644.5283 481.9295L585.4483 530.7595L548.3383 567.3795C541.9883 574.2195 537.5983 583.0095 537.5983 593.7495C537.5983 613.2795 552.7383 628.9095 572.7583 628.9095C583.0083 628.9095 591.7983 625.4895 598.1483 619.1395L739.2583 477.0495C748.5383 467.2895 752.9283 459.4695 752.9283 449.2195Z"/>
</svg>