<?xml version="1.0" encoding="UTF-8" standalone="no"?>
<svg xmlns="http://www.w3.org/2000/svg"
     width="1107.421875" height="1022.94921875"
     viewBox="0 0 1107.421875 1022.94921875"
     fill="currentColor">
  <path d="M211.9177 1022.9495C277.8277 1022.9495 412.5977 956.5395 511.7177 885.7395C852.0477 895.0195 1107.4177 699.7095 1107.4177 443.8495C1107.4177 198.2395 861.3277 -0.0005 553.7077 -0.0005C246.0977 -0.0005 -0.0023 198.2395 -0.0023 443.8495C-0.0023 603.9995 102.5377 746.0895 256.8377 817.3795C234.8677 859.8595 193.8477 917.4795 171.8777 946.2895C145.9977 980.4695 161.6177 1022.9495 211.9177 1022.9495ZM263.1877 941.8995C259.2777 943.3595 257.8077 940.4295 260.2577 937.0095C287.5977 903.3195 326.6577 852.5395 343.2577 821.2895C356.9377 795.8995 353.5177 773.4395 322.2677 758.7895C168.9477 687.4995 81.0577 573.7295 81.0577 443.8495C81.0577 243.6495 290.5277 80.5695 553.7077 80.5695C817.3877 80.5695 1026.8577 243.6495 1026.8577 443.8495C1026.8577 643.5595 817.3877 806.6395 553.7077 806.6395C543.9477 806.6395 528.8077 806.1495 509.2777 805.6595C488.7677 805.6595 473.1477 812.0095 454.5877 826.6595C394.5277 870.1195 307.6177 923.8295 263.1877 941.8995ZM554.1977 199.7095C533.2077 199.7095 517.5777 215.3295 517.5777 236.3295V480.9595L521.4877 583.4995L472.6577 524.8995L414.5477 466.7995C408.2077 459.9595 398.9277 456.0595 388.6677 456.0595C368.6477 456.0595 353.5177 471.1895 353.5177 491.2095C353.5177 500.9795 356.4477 509.7695 362.7977 516.1095L525.8777 678.7095C535.6477 688.4795 543.9477 692.3795 554.1977 692.3795C565.4277 692.3795 573.7277 687.9895 583.0077 678.7095L745.6077 516.1095C751.9577 509.7695 755.8577 500.9795 755.8577 491.2095C755.8577 471.1895 740.2377 456.0595 720.2177 456.0595C709.4777 456.0595 700.6877 459.4695 694.3377 466.7995L636.7177 524.8995L586.9177 584.4695L590.8177 480.9595V236.3295C590.8177 215.3295 575.6877 199.7095 554.1977 199.7095Z"/>
</svg>