<?xml version="1.0" encoding="UTF-8" standalone="no"?>
<svg xmlns="http://www.w3.org/2000/svg"
     width="1195.3125" height="895.99609375"
     viewBox="0 0 1195.3125 895.99609375"
     fill="currentColor">
  <path d="M120.6083 893.0713H415.0383C499.5083 893.0713 535.6483 857.9113 535.6483 774.9013V663.5713H661.1283V838.8713C661.1283 871.5813 685.0583 895.9913 718.2583 895.9913C742.1883 895.9913 761.7183 886.2313 785.1583 864.2613L1170.4083 500.4913C1189.4483 482.9113 1195.3083 464.3513 1195.3083 448.2413C1195.3083 431.6413 1189.4483 413.0813 1170.4083 395.5113L785.1583 35.1513C759.2783 10.7413 743.1683 0.0013 719.2383 0.0013C685.0583 0.0013 661.1283 27.3412 661.1283 60.0612V249.5113H344.2383C259.7683 249.5113 223.6283 284.6713 223.6283 367.6713V469.7313H120.6083C36.1283 469.7313 -0.0017 504.3913 -0.0017 587.4013V774.9013C-0.0017 857.9113 36.1283 893.0713 120.6083 893.0713ZM746.5783 791.0113C742.1883 791.0113 739.7483 788.0813 739.7483 783.6913V594.7313C739.7483 583.4913 734.3783 578.6113 723.1483 578.6113H350.0983C317.8683 578.6113 302.2483 561.0313 302.2483 525.3913V371.5813C302.2483 335.4513 317.8683 318.3613 350.0983 318.3613H723.1483C734.3783 318.3613 739.7483 313.4813 739.7483 302.2413V108.4013C739.7483 104.4913 742.1883 101.5612 746.5783 101.5612C749.5083 101.5612 752.4383 103.5113 754.8783 105.4713L1102.5383 438.9613C1106.4483 442.3813 1107.9083 445.3113 1107.9083 448.2413C1107.9083 451.1713 1106.4483 453.6113 1102.5383 457.5213L754.8783 786.6213C751.9483 789.5513 749.0283 791.0113 746.5783 791.0113ZM126.4683 816.4113C94.2383 816.4113 78.6183 798.8313 78.6183 763.1813V599.1213C78.6183 563.4813 94.2383 546.3913 126.4683 546.3913H224.6083V569.8213C224.6083 599.6113 233.8883 621.0912 261.2283 638.1813L457.0283 757.8113V763.1813C457.0283 798.8313 441.4083 816.4113 409.1783 816.4113Z"/>
</svg>