<?xml version="1.0" encoding="UTF-8" standalone="no"?>
<svg xmlns="http://www.w3.org/2000/svg"
     width="910.64453125" height="1163.0859375"
     viewBox="0 0 910.64453125 1163.0859375"
     fill="currentColor">
  <path d="M455.5683 0.0011C430.1783 0.0011 411.6183 17.5811 411.6183 42.9711V249.5111L415.0383 350.5811L285.6483 211.9111C277.3483 203.1211 266.1183 199.7111 254.3983 199.7111C229.9783 199.7111 211.9183 218.2611 211.9183 242.1911C211.9183 254.3911 216.7983 265.1411 226.5583 275.3911L422.8483 472.1711C432.1283 481.9311 443.3583 487.3011 455.5683 487.3011C467.2883 487.3011 479.0083 481.9311 488.2783 472.1711L684.5683 275.3911C694.3383 265.1411 699.2183 254.3911 699.2183 242.1911C699.2183 218.2611 681.1483 199.7111 656.7383 199.7111C645.0183 199.7111 633.7883 203.1211 625.4883 211.9111L496.0983 350.5811L499.0283 249.5111V42.9711C499.0283 17.5811 480.9583 0.0011 455.5683 0.0011ZM-0.0017 581.5411C-0.0017 606.9311 17.5783 625.0011 42.9683 625.0011H868.1683C893.0683 625.0011 910.6483 606.9311 910.6483 581.5411C910.6483 556.1511 893.0683 537.6011 868.1683 537.6011H42.9683C17.5783 537.6011 -0.0017 556.1511 -0.0017 581.5411ZM455.5683 1163.0811C480.9583 1163.0811 499.0283 1145.5111 499.0283 1119.6311V913.0811L496.0983 812.5011L625.4883 950.6811C633.7883 959.4711 645.0183 962.8911 656.7383 962.8911C681.1483 962.8911 699.2183 944.3311 699.2183 920.4111C699.2183 908.2011 694.3383 897.4611 684.5683 887.2111L488.2783 690.4311C479.0083 680.6611 467.2883 675.2911 455.5683 675.2911C443.3583 675.2911 432.1283 680.6611 422.8483 690.4311L226.5583 887.2111C216.7983 897.4611 211.9183 908.2011 211.9183 920.4111C211.9183 944.3311 229.9783 962.8911 254.3983 962.8911C266.1183 962.8911 277.3483 959.4711 285.6483 950.6811L415.0383 812.5011L411.6183 913.0811V1119.6311C411.6183 1145.5111 430.1783 1163.0811 455.5683 1163.0811Z"/>
</svg>