<?xml version="1.0" encoding="UTF-8" standalone="no"?>
<svg xmlns="http://www.w3.org/2000/svg"
     width="762.20703125" height="922.36328125"
     viewBox="0 0 762.20703125 922.36328125"
     fill="currentColor">
  <path d="M103.0283 922.3666C329.0983 922.3666 435.5483 832.5166 435.5483 605.4666V267.0866L431.6383 134.7666L528.8083 241.6966L688.9683 401.8566C696.7783 409.6666 708.4983 413.5766 719.7283 413.5766C744.1383 413.5766 762.2083 395.0166 762.2083 371.0966C762.2083 359.3766 757.8083 349.1166 748.5383 339.3566L424.3183 14.6466C415.0383 4.8866 403.8083 -0.0034 391.5983 -0.0034C379.8783 -0.0034 368.6483 4.8866 359.3783 14.6466L35.1583 339.3566C25.8783 349.1166 21.4883 359.3766 21.4883 371.0966C21.4883 395.0166 39.5483 413.5766 63.4783 413.5766C75.1983 413.5766 86.9183 409.6666 94.7283 401.8566L254.3983 241.6966L352.5383 134.2766L348.1483 267.0866L348.6283 601.0766C349.1183 777.8366 272.4583 836.9166 98.6283 836.9166C76.1683 836.9166 60.0583 835.9366 43.4583 835.9366C18.0683 835.9366 -0.0017 852.0466 -0.0017 877.4366C-0.0017 902.3466 17.0883 914.5466 36.6183 918.9466C51.2683 921.8766 75.1983 922.3666 103.0283 922.3666Z"/>
</svg>