<?xml version="1.0" encoding="UTF-8" standalone="no"?>
<svg xmlns="http://www.w3.org/2000/svg"
     width="898.92578125" height="898.92578125"
     viewBox="0 0 898.92578125 898.92578125"
     fill="currentColor">
  <path d="M153.3183 898.9244H745.6083C848.1483 898.9244 898.9283 848.1444 898.9283 747.5544V151.3644C898.9283 50.7844 848.1483 0.0044 745.6083 0.0044H153.3183C51.2683 0.0044 -0.0017 50.2944 -0.0017 151.3644V747.5544C-0.0017 848.6344 51.2683 898.9244 153.3183 898.9244ZM398.4383 692.3844C282.2283 692.3844 205.5683 613.2844 205.5683 495.1144V429.6844C205.5683 406.2544 220.2183 390.6244 242.1883 390.6244C263.6683 390.6244 278.3183 405.7644 278.3183 428.7144V495.1144C278.3183 569.3344 326.6583 619.6244 398.4383 619.6244C465.3283 619.6244 509.7683 570.3144 509.7683 495.6044V353.0244L512.2083 303.2244L495.6083 326.1744L438.4783 385.2544C431.6383 392.5744 422.3683 396.4844 411.6183 396.4844C390.6283 396.4844 374.5083 380.8544 374.5083 360.8444C374.5083 349.6044 377.9283 340.8244 385.2583 333.9844L515.6283 206.0544C524.8983 196.7744 535.6483 192.8744 546.8783 192.8744C557.6183 192.8744 568.3583 197.2644 577.6383 206.0544L707.0283 333.4944C714.3583 340.8244 718.2583 349.1244 718.2583 360.3544C718.2583 380.8544 701.6583 396.4844 680.6683 396.4844C670.4083 396.4844 661.1283 392.5744 654.2983 385.2544L606.4483 335.9344L580.5683 302.7344L582.5183 353.0244V495.6044C582.5183 613.7744 509.2783 692.3844 398.4383 692.3844Z"/>
</svg>