<?xml version="1.0" encoding="UTF-8" standalone="no"?>
<svg xmlns="http://www.w3.org/2000/svg"
     width="776.85546875" height="796.875"
     viewBox="0 0 776.85546875 796.875"
     fill="currentColor">
  <path d="M776.8506 737.7883C776.8506 718.2583 768.0706 702.6383 757.8106 682.1283L453.6106 55.1783C433.1006 13.1883 414.0606 -0.0017 388.1806 -0.0017C362.3006 -0.0017 343.7506 13.1883 323.2406 55.1783L18.5506 682.1283C8.7906 703.1283 0.0006 718.7483 0.0006 738.2783C0.0006 774.4183 27.3406 796.8783 69.8206 796.8783L706.5406 796.3883C749.0206 796.3883 776.8506 773.9283 776.8506 737.7883ZM683.5906 713.3783C683.5906 716.3083 681.6406 718.2583 677.7306 718.2583H98.6306C94.7306 718.2583 93.2606 716.3083 93.2606 713.3783C93.2606 711.4283 94.2406 709.4683 95.2106 707.5183L382.8106 109.3783C384.2806 106.9383 385.7406 104.9783 388.1806 104.9783C391.1106 104.9783 392.5806 106.9383 394.0406 109.3783L681.6406 707.5183C682.6206 709.4683 683.5906 711.4283 683.5906 713.3783Z"/>
</svg>