<?xml version="1.0" encoding="UTF-8" standalone="no"?>
<svg xmlns="http://www.w3.org/2000/svg"
     width="1052.734375" height="895.5078125"
     viewBox="0 0 1052.734375 895.5078125"
     fill="currentColor">
  <path d="M1052.7373 447.753C1052.7373 431.153 1046.8773 413.083 1027.8273 395.023L642.5773 34.663C616.6973 10.253 600.5873 0.003 576.6573 0.003C542.4773 0.003 518.0673 26.853 518.0673 59.573V244.143H122.0673C44.9173 244.143 -0.0027 288.083 -0.0027 363.773V532.223C-0.0027 607.913 44.9173 651.853 122.0673 651.853H518.0673V838.383C518.0673 871.093 542.4773 895.503 575.6873 895.503C599.6073 895.503 619.1373 885.743 642.5773 863.773L1027.8273 500.003C1046.3873 482.423 1052.7373 463.863 1052.7373 447.753ZM964.8473 447.753C964.8473 450.683 963.8673 453.123 959.9573 457.033L611.8173 786.133C609.3773 789.063 606.4473 790.523 603.5173 790.523C599.6073 790.523 596.6773 787.593 596.6773 783.203V594.243C596.6773 583.003 591.7973 578.123 580.5673 578.123H123.0473C91.7973 578.123 73.7273 560.063 73.7273 528.323V367.673C73.7273 335.933 91.7973 317.873 123.0473 317.873H580.5673C591.7973 317.873 596.6773 312.993 596.6773 301.753V107.913C596.6773 104.003 599.6073 101.073 604.0073 101.073C606.9373 101.073 609.8673 103.023 612.3073 104.983L959.9573 438.473C963.3773 441.893 964.8473 444.823 964.8473 447.753Z"/>
</svg>