<?xml version="1.0" encoding="UTF-8" standalone="no"?>
<svg xmlns="http://www.w3.org/2000/svg"
     width="888.671875" height="888.18359375"
     viewBox="0 0 888.671875 888.18359375"
     fill="currentColor">
  <path d="M831.5383 57.615C781.7383 7.815 711.4283 -0.005 627.9283 -0.005H259.2783C177.2483 -0.005 106.9383 7.815 57.1283 57.615C7.3283 107.425 -0.0017 177.245 -0.0017 258.785V627.925C-0.0017 711.425 7.3283 780.765 57.1283 830.565C106.9383 880.375 177.2483 888.185 260.2583 888.185H627.9283C711.4283 888.185 781.7383 880.375 831.5383 830.565C881.3483 780.765 888.6683 711.425 888.6683 627.925V260.255C888.6683 176.755 881.3483 106.935 831.5383 57.615ZM444.8283 187.985C467.2883 187.985 482.9083 203.615 482.9083 226.075V476.565L479.0083 583.985L529.7883 522.945L588.8683 462.895C595.6983 455.075 604.9783 451.665 615.7183 451.665C636.7183 451.665 652.8283 467.285 652.8283 488.285C652.8283 499.025 649.4183 507.815 642.5783 514.645L474.6083 681.645C464.8483 691.405 456.5383 696.285 444.8283 696.285C434.0783 696.285 426.2683 691.895 416.0183 681.645L248.0483 514.645C240.7183 507.815 237.7883 499.025 237.7883 488.285C237.7883 467.285 253.4183 451.665 274.4183 451.665C285.1583 451.665 294.4383 455.565 301.2683 462.895L360.8383 522.945L411.1283 583.495L407.2283 476.565V226.075C407.2283 203.615 422.8483 187.985 444.8283 187.985Z"/>
</svg>