<?xml version="1.0" encoding="UTF-8" standalone="no"?>
<svg xmlns="http://www.w3.org/2000/svg"
     width="740.234375" height="1010.25390625"
     viewBox="0 0 740.234375 1010.25390625"
     fill="currentColor">
  <path d="M740.2383 458.4953C740.2383 446.7753 736.3283 436.5253 727.0483 426.7553L402.8283 102.0553C394.5283 93.7453 385.2583 88.8653 374.9983 87.4053H698.2383C723.1483 87.4053 740.2383 69.3353 740.2383 43.9453C740.2383 18.5553 723.1483 -0.0047 698.2383 -0.0047H42.9683C17.5783 -0.0047 -0.0017 18.5553 -0.0017 43.9453C-0.0017 69.3353 17.5783 87.4053 42.9683 87.4053H365.7183C355.4683 88.8653 345.6983 93.7453 337.3983 102.0553L13.6683 426.7553C4.3983 436.5253 -0.0017 446.7753 -0.0017 458.4953C-0.0017 482.4253 17.5783 500.9753 41.9883 500.9753C53.7083 500.9753 65.4283 497.0653 72.7583 489.2553L184.0783 379.8853L330.0783 219.7253L326.6583 323.7353V967.2853C326.6583 992.6753 344.7283 1010.2553 370.1183 1010.2553C395.5083 1010.2553 413.5783 992.6753 413.5783 967.2853V323.7353L410.1583 219.2353L556.1483 379.8853L667.4783 489.2553C675.2883 497.0653 686.5283 500.9753 698.2383 500.9753C722.6583 500.9753 740.2383 482.4253 740.2383 458.4953Z"/>
</svg>