<?xml version="1.0" encoding="UTF-8" standalone="no"?>
<svg xmlns="http://www.w3.org/2000/svg"
     width="911.1328125" height="925.29296875"
     viewBox="0 0 911.1328125 925.29296875"
     fill="currentColor">
  <path d="M599.6083 -0.0037C413.0883 -0.0037 284.1783 126.4662 284.1783 349.6063V679.6863L289.5483 793.9463L210.4483 701.6563L72.7583 561.0363C65.4283 553.2262 55.6683 548.8263 42.9683 548.8263C17.5783 548.8263 -0.0017 566.4063 -0.0017 592.2863C-0.0017 603.0263 5.3683 615.7262 13.6683 624.0263L295.4083 911.1363C304.6883 920.8963 315.9183 925.2963 328.1283 925.2963C339.8483 925.2963 351.0783 920.8963 360.3483 911.1363L642.0883 624.0263C650.8783 615.7262 655.7583 603.0263 655.7583 592.2863C655.7583 566.4063 638.1883 548.8263 612.7883 548.8263C600.0983 548.8263 590.8183 553.2262 583.0083 561.0363L445.7983 701.6563L366.6983 793.9463L371.5783 679.6863V341.7963C371.5783 175.2962 463.3783 87.4063 594.7283 87.4063C726.5583 87.4063 824.2183 175.2962 824.2183 341.7963V454.1063C824.2183 480.9563 843.7483 498.5363 867.6783 498.5363C891.5983 498.5363 911.1283 480.9563 911.1283 454.1063V341.7963C911.1283 123.0462 786.6183 -0.0037 599.6083 -0.0037Z"/>
</svg>