<?xml version="1.0" encoding="UTF-8" standalone="no"?>
<svg xmlns="http://www.w3.org/2000/svg"
     width="996.09375" height="996.09375"
     viewBox="0 0 996.09375 996.09375"
     fill="currentColor">
  <path d="M498.0477 996.0959C770.5077 996.0959 996.0977 770.0159 996.0977 498.0459C996.0977 225.5859 770.0177 -0.0041 497.5577 -0.0041C225.5877 -0.0041 -0.0023 225.5859 -0.0023 498.0459C-0.0023 770.0159 226.0777 996.0959 498.0477 996.0959ZM655.7577 373.0459C677.7377 373.0459 692.8677 389.6459 692.8677 413.5759V650.8759C692.8677 680.6659 676.2677 692.3859 650.3877 692.3859H412.1077C388.1877 692.3859 373.0477 677.7359 373.0477 655.2759C373.0477 633.2959 388.6677 618.6559 413.0877 618.6559H503.9077L578.6177 626.4659L499.9977 552.7359L314.9377 368.6559C307.6177 361.3259 302.7377 351.0759 302.7377 341.3059C302.7377 318.3559 317.8677 303.7059 339.8477 303.7059C352.0477 303.7059 361.3277 308.1059 369.1377 315.4259L553.2277 499.9959L625.9777 577.6359L618.6477 499.0259V412.5959C618.6477 388.1859 633.2977 373.0459 655.7577 373.0459Z"/>
</svg>