<?xml version="1.0" encoding="UTF-8" standalone="no"?>
<svg xmlns="http://www.w3.org/2000/svg"
     width="996.09375" height="996.09375"
     viewBox="0 0 996.09375 996.09375"
     fill="currentColor">
  <path d="M498.0477 996.0959C770.5077 996.0959 996.0977 770.0159 996.0977 498.0459C996.0977 225.5859 770.0177 -0.0041 497.5577 -0.0041C225.5877 -0.0041 -0.0023 225.5859 -0.0023 498.0459C-0.0023 770.0159 226.0777 996.0959 498.0477 996.0959ZM498.0477 913.0859C267.5777 913.0859 83.4977 728.5159 83.4977 498.0459C83.4977 267.5759 267.0877 83.0059 497.5577 83.0059C728.0277 83.0059 913.0877 267.5759 913.0877 498.0459C913.0877 728.5159 728.5177 913.0859 498.0477 913.0859ZM268.5577 328.6159C255.8577 341.3059 256.3477 363.7659 268.5577 375.9759L391.5977 496.0959C397.9477 501.4659 406.7377 505.3759 414.5477 505.3759C432.6177 505.3759 445.7977 492.6759 445.7977 474.6059C445.7977 465.8159 442.3877 458.0059 436.5277 452.1459L384.7677 401.8559L364.2577 382.8159L387.2077 384.2759H704.0977C722.1677 384.2759 735.8377 370.1159 735.8377 352.0459C735.8377 333.9859 722.6577 320.7959 704.0977 320.7959H387.6977L364.7477 321.2859L384.7677 303.2259L436.5277 252.9259C442.3877 247.0659 445.7977 238.7659 445.7977 230.4659C445.7977 211.9159 432.6177 199.2159 414.5477 199.2159C406.7377 199.2159 397.4577 203.1259 391.5977 209.4759ZM726.0777 667.9659C739.2577 654.7859 738.2777 634.7659 726.0777 622.0659L603.0277 501.9559C597.6577 496.0959 588.3777 492.1859 580.0777 492.1859C561.5277 492.1859 548.8277 504.8859 548.8277 522.9459C548.8277 531.7359 552.2477 539.5459 558.1077 545.4059L610.3477 595.7059L630.8577 614.7459L607.4177 613.2859H290.5277C272.9477 613.2859 259.2777 626.4659 259.2777 645.0159C259.2777 663.0859 272.4577 676.7559 290.5277 676.7559H606.9377L630.8577 676.2659L610.3477 694.3359L558.5977 744.6259C552.7377 750.9759 548.8277 758.2959 548.8277 767.0859C548.8277 785.1559 562.4977 798.3359 580.0777 798.3359C587.3977 798.3359 596.6777 794.4359 603.0277 788.5759Z"/>
</svg>