<?xml version="1.0" encoding="UTF-8" standalone="no"?>
<svg xmlns="http://www.w3.org/2000/svg"
     width="942.2025745361277" height="1153.3203125"
     viewBox="0 0 942.2025745361277 1153.3203125"
     fill="currentColor">
  <path d="M14.6506 259.7609C-5.3694 278.8109 -4.3894 307.1309 14.6506 325.1909L266.1206 571.2909C274.9006 580.0809 287.6006 585.4509 298.3406 585.4509C324.2206 585.4509 341.8006 567.3809 341.8006 541.9909C341.8006 529.7809 337.4006 520.0209 329.1006 511.7209L224.1206 410.1609L133.3006 331.5409L246.1006 336.4209H898.4406C923.8306 336.4209 941.9006 318.3609 941.9006 292.4809C941.9006 267.0909 923.8306 249.0209 898.4406 249.0209H246.1006L133.3006 253.4209L224.1206 175.2909L329.1006 73.2409C337.4006 64.9409 341.8006 55.6609 341.8006 42.9709C341.8006 17.5809 324.2206 0.0009 298.3406 0.0009C287.6006 0.0009 274.9006 4.8809 266.1206 13.6709ZM927.7406 893.5509C947.2706 874.5109 946.7806 846.1909 927.7406 827.6409L676.2706 581.5409C667.4806 573.2409 654.7906 567.8709 643.5606 567.8709C617.6806 567.8709 600.5906 585.4509 600.5906 610.8409C600.5906 623.5309 604.4906 633.3009 612.7906 641.1109L718.2606 743.1609L809.0806 821.7809L696.2906 816.8909H43.9506C18.5606 816.8909 0.0006 834.9609 0.0006 860.3509C0.0006 886.2309 18.5606 904.3009 43.9506 904.3009H696.2906L809.0806 899.4109L718.2606 978.0309L612.7906 1079.5909C604.4906 1087.8909 600.5906 1097.6609 600.5906 1110.3509C600.5906 1135.7409 617.6806 1153.3209 643.5606 1153.3209C654.7906 1153.3209 667.4806 1147.9509 676.2706 1139.6509Z"/>
</svg>