<?xml version="1.0" encoding="UTF-8" standalone="no"?>
<svg xmlns="http://www.w3.org/2000/svg"
     width="1052.734375" height="895.5078125"
     viewBox="0 0 1052.734375 895.5078125"
     fill="currentColor">
  <path d="M575.6873 895.503C599.6073 895.503 619.1373 885.743 642.5773 863.773L1027.8273 500.003C1046.3873 482.423 1052.7373 463.863 1052.7373 447.753C1052.7373 431.153 1046.8773 413.083 1027.8273 395.023L642.5773 34.663C616.6973 10.253 600.5873 0.003 576.6573 0.003C542.4773 0.003 518.0673 26.853 518.0673 59.573V244.143H503.9073C152.8273 244.143 -0.0027 469.243 -0.0027 830.083C-0.0027 872.073 23.9273 895.503 50.2973 895.503C70.7973 895.503 93.2573 890.623 110.3473 859.373C195.3173 699.703 314.9373 651.853 503.9073 651.853H518.0673V838.383C518.0673 871.093 542.4773 895.503 575.6873 895.503ZM603.5173 790.523C599.6073 790.523 596.6773 787.593 596.6773 783.203V594.243C596.6773 583.003 591.7973 578.123 580.5673 578.123H515.1373C283.2073 578.123 135.2573 658.693 77.6373 781.253C76.1673 784.663 75.1973 786.133 72.7573 786.133C70.7973 786.133 69.3373 784.663 69.3373 780.763C79.0973 550.293 179.6873 317.873 515.1373 317.873H580.5673C591.7973 317.873 596.6773 312.993 596.6773 301.753V107.913C596.6773 104.003 599.6073 101.073 604.0073 101.073C606.9373 101.073 609.8673 103.023 612.3073 104.983L959.9573 438.473C963.3773 441.893 964.8473 444.823 964.8473 447.753C964.8473 450.683 963.8673 453.123 959.9573 457.033L611.8173 786.133C609.3773 789.063 606.4473 790.523 603.5173 790.523Z"/>
</svg>