<?xml version="1.0" encoding="UTF-8" standalone="no"?>
<svg xmlns="http://www.w3.org/2000/svg"
     width="916.50390625" height="768.5546875"
     viewBox="0 0 916.50390625 768.5546875"
     fill="currentColor">
  <path d="M45.8983 768.5533C71.2883 768.5533 89.8483 750.9733 89.8483 725.0933C89.8483 708.0033 88.3783 691.8933 88.3783 668.9433C88.3783 487.7933 151.3683 414.0633 330.5683 414.0633H667.4783L787.5983 406.7333L622.5583 557.1333L514.1583 667.4833C506.8383 675.2933 502.4383 687.0133 502.4383 698.7333C502.4383 723.1433 520.9983 740.7233 545.4083 740.7233C556.6383 740.7233 567.3783 736.3233 577.1483 727.0533L901.3683 403.3233C911.6183 393.5533 916.5083 382.3233 916.5083 370.1133C916.5083 358.4033 911.6183 346.6833 901.3683 337.4033L578.1283 14.6533C567.3783 3.9033 556.6383 0.0033 545.4083 0.0033C520.9983 0.0033 502.4383 17.5733 502.4383 41.9933C502.4383 53.7133 506.3483 64.9433 514.1583 72.7533L622.5583 183.1033L787.1083 333.4933L667.4783 326.6633H326.1683C94.7283 326.6633 -0.0017 428.2233 -0.0017 664.5533C-0.0017 692.8733 0.9783 717.2833 4.3983 731.9333C8.2983 751.9533 20.0183 768.5533 45.8983 768.5533Z"/>
</svg>