<?xml version="1.0" encoding="UTF-8" standalone="no"?>
<svg xmlns="http://www.w3.org/2000/svg"
     width="996.09375" height="996.09375"
     viewBox="0 0 996.09375 996.09375"
     fill="currentColor">
  <path d="M498.0477 996.0959C770.5077 996.0959 996.0977 770.0159 996.0977 498.0459C996.0977 225.5859 770.0177 -0.0041 497.5577 -0.0041C225.5877 -0.0041 -0.0023 225.5859 -0.0023 498.0459C-0.0023 770.0159 226.0777 996.0959 498.0477 996.0959ZM498.0477 913.0859C267.5777 913.0859 83.4977 728.5159 83.4977 498.0459C83.4977 267.5759 267.0877 83.0059 497.5577 83.0059C728.0277 83.0059 913.0877 267.5759 913.0877 498.0459C913.0877 728.5159 728.5177 913.0859 498.0477 913.0859ZM715.3277 520.5059C715.3277 400.3859 616.6977 306.1559 506.8377 306.1559C502.4377 306.1559 497.0677 307.1259 493.6477 307.1259L528.3177 271.9759C533.2077 266.6059 536.6177 258.2959 536.6177 249.9959C536.6177 232.4259 523.4377 218.7459 505.8577 218.7459C497.0677 218.7459 489.2577 222.6559 483.3977 228.5159L389.6477 323.7259C378.4177 335.4459 377.9277 357.4259 389.6477 369.1359L484.3777 463.8659C489.7477 468.7459 498.0477 472.6559 505.8577 472.6559C523.4377 472.6559 536.6177 459.4759 536.6177 442.3859C536.6177 433.1059 533.2077 425.7859 527.3477 419.4359L479.9777 373.0459C484.8677 372.0659 491.2077 371.5859 497.5577 371.5859C581.5477 371.5859 647.9477 438.4759 647.9477 521.9759C647.9477 605.9559 581.5477 672.8559 497.5577 672.8559C414.0577 672.8559 347.1677 605.4659 347.1677 521.9759C347.1677 503.9059 332.0277 488.7659 313.4777 488.7659C295.4077 488.7659 279.7877 503.9059 279.7877 521.9759C279.7877 642.5759 376.9577 740.2359 497.5577 740.2359C618.1677 740.2359 715.3277 642.5759 715.3277 520.5059Z"/>
</svg>