<?xml version="1.0" encoding="UTF-8" standalone="no"?>
<svg xmlns="http://www.w3.org/2000/svg"
     width="1149.4140625" height="1012.4424326523192"
     viewBox="0 0 1149.4140625 1012.4424326523192"
     fill="currentColor">
  <path d="M75.6883 159.4145L206.5383 256.5845C233.3983 277.0945 265.6283 264.8845 265.6283 231.1945V161.3645H883.2983V231.1945C883.2983 264.8845 916.0183 277.0945 942.8683 256.5845L1073.7283 159.4145C1091.7983 145.7445 1091.3083 120.8445 1073.7283 107.6545L942.8683 10.0045C916.9883 -9.5255 883.2983 0.7245 883.2983 35.8845V104.7245H265.6283V35.8845C265.6283 1.7045 233.3983 -10.5055 206.5383 10.0045L75.6883 107.6545C57.6183 120.8445 58.1083 146.2345 75.6883 159.4145ZM-0.0017 946.5245C-0.0017 982.1645 23.4383 1012.4445 73.7283 1012.4445H461.9183C520.0183 1012.4445 546.3883 986.5645 546.3883 928.4545V344.9645C546.3883 301.9945 514.1583 279.0445 479.4883 279.0445C456.0583 279.0445 433.5983 289.7845 417.4783 312.2445L15.1383 896.2345C4.3983 911.8545 -0.0017 929.9245 -0.0017 946.5245ZM603.0283 928.4545C603.0283 986.5645 629.3983 1012.4445 687.4983 1012.4445H1075.1983C1125.9783 1012.4445 1149.4183 982.1645 1149.4183 946.5245C1149.4183 929.9245 1144.5283 911.8545 1133.7883 896.2345L731.4483 312.2445C715.8183 289.7845 692.8683 279.0445 669.4383 279.0445C634.7683 279.0445 603.0283 301.9945 603.0283 344.9645Z"/>
</svg>