<?xml version="1.0" encoding="UTF-8" standalone="no"?>
<svg xmlns="http://www.w3.org/2000/svg"
     width="743.65234375" height="860.83984375"
     viewBox="0 0 743.65234375 860.83984375"
     fill="currentColor">
  <path d="M41.9883 773.4348C17.0883 773.4348 -0.0017 791.5048 -0.0017 816.8948C-0.0017 842.2848 17.0883 860.8448 41.9883 860.8448H700.6883C726.0783 860.8448 743.6483 842.2848 743.6483 816.8948C743.6483 791.5048 726.0783 773.4348 700.6883 773.4348H381.8383C390.1383 770.9948 397.9483 766.6048 404.7883 759.2748L727.5383 436.0348C737.3083 425.7848 742.1883 415.0348 742.1883 403.3248C742.1883 378.9048 724.1183 360.3548 699.7083 360.3548C687.9883 360.3548 676.2683 364.7448 668.4583 372.5548L559.0783 480.4648L412.1083 641.1148L415.5283 536.6248V43.4548C415.5283 18.0648 397.4583 0.0048 372.0683 0.0048C346.1883 0.0048 328.1283 18.0648 328.1283 43.4548V536.6248L332.0283 641.6048L185.0583 480.4648L75.6883 372.5548C67.3783 364.7448 56.1483 360.3548 44.4383 360.3548C19.5283 360.3548 1.9483 378.9048 1.9483 403.3248C1.9483 415.0348 6.8383 425.7848 16.1183 436.0348L339.3583 759.2748C345.6983 766.6048 353.5183 770.9948 361.8183 773.4348Z"/>
</svg>