<?xml version="1.0" encoding="UTF-8" standalone="no"?>
<svg xmlns="http://www.w3.org/2000/svg"
     width="1020.99609375" height="1068.4843970917243"
     viewBox="0 0 1020.99609375 1068.4843970917243"
     fill="currentColor">
  <path d="M744.1406 435.0572C760.7406 439.4572 773.4406 439.4572 786.1306 431.6372C798.8306 423.8272 805.6606 413.5772 810.0606 396.9772L850.5906 234.3772C856.4406 213.8672 845.2106 194.3372 824.7106 189.4572C804.6906 184.0772 783.6906 195.3172 779.3006 216.3072L758.3006 303.7072L626.4606 67.8672C601.5606 22.9472 556.1506 -0.0028 510.7406 -0.0028C464.8406 -0.0028 419.9206 23.4372 394.5306 67.8672L259.7706 308.5972C247.0706 330.5672 253.9106 351.5672 272.9506 362.7972C292.4806 373.5372 315.4306 366.6972 326.6606 347.1672L461.4306 105.4672C472.6606 85.9372 491.7006 77.6372 510.7406 77.6372C529.7806 77.6372 548.3406 85.9372 559.0806 105.4672L693.3606 345.2172L602.5406 318.3572C582.5206 312.0072 562.5006 323.7272 556.6406 344.2372C551.2706 363.7672 562.0106 383.7872 583.0106 389.6472ZM134.7706 940.9172H396.4806C419.4306 940.9172 436.5206 924.8072 436.5206 902.8272C436.5206 880.8572 419.4306 864.2572 396.4806 864.2572H135.2506C101.5606 864.2572 79.1006 836.4272 79.1006 806.1572C79.1006 797.3672 80.5706 786.6172 85.9406 777.3472L210.9406 553.7072L231.4406 641.1172C235.8406 662.1072 256.8406 673.3372 276.8506 667.9672C297.3606 663.0872 309.0806 643.5572 303.2206 623.0472L262.2106 460.4472C257.8106 444.3372 250.9806 433.1072 238.2806 425.7772C225.5906 417.9672 212.8906 417.4772 196.2906 422.3672L35.6406 467.7772C14.1606 473.6372 3.4206 493.6572 9.2806 513.1872C14.6506 533.6872 34.6706 545.8972 55.1806 539.0672L145.5106 512.2072L18.0706 739.7472C6.3506 761.2272 0.0006 784.1772 0.0006 806.1572C0.0006 881.8372 51.7606 940.9172 134.7706 940.9172ZM646.0006 1057.1272C661.1306 1072.7572 684.0806 1071.7772 698.2406 1057.1272C713.3806 1042.9672 713.3806 1019.5272 697.7506 1004.3972L630.8606 940.9172H886.2306C969.2406 940.9172 1021.0006 881.8372 1021.0006 806.1572C1021.0006 784.1772 1015.1406 761.7172 1002.9306 739.7472L873.5306 508.7872C862.3006 487.7972 839.3506 482.9072 820.8006 494.1372C801.7606 505.3672 795.4106 528.3172 806.1506 547.8472L934.5706 777.3472C939.9406 786.6172 942.3806 797.3672 942.3806 806.1572C942.3806 836.4272 918.9406 864.2572 885.2506 864.2572H630.8606L697.7506 801.2672C713.3806 786.1372 713.3806 762.6972 698.2406 748.5372C684.0806 733.3972 661.1306 732.9072 646.0006 748.5372L525.8806 864.7472C513.6706 876.4672 508.3006 888.1872 508.3006 902.8272C508.3006 917.4772 513.6706 928.7072 525.8806 940.4272Z"/>
</svg>