<?xml version="1.0" encoding="UTF-8" standalone="no"?>
<svg xmlns="http://www.w3.org/2000/svg"
     width="898.92578125" height="898.92578125"
     viewBox="0 0 898.92578125 898.92578125"
     fill="currentColor">
  <path d="M153.3183 898.9244H745.6083C848.1483 898.9244 898.9283 848.1444 898.9283 747.5544V151.3644C898.9283 50.7844 848.1483 0.0044 745.6083 0.0044H153.3183C51.2683 0.0044 -0.0017 50.2944 -0.0017 151.3644V747.5544C-0.0017 848.6344 51.2683 898.9244 153.3183 898.9244ZM154.2983 820.3144C105.4683 820.3144 78.6183 794.4344 78.6183 743.6544V155.2744C78.6183 104.9844 105.4683 78.6144 154.2983 78.6144H744.6283C792.9683 78.6144 820.3083 104.9844 820.3083 155.2744V743.6544C820.3083 794.4344 792.9683 820.3144 744.6283 820.3144ZM702.1483 508.3044C702.1483 391.1144 617.1883 319.8244 503.4183 319.8244H357.4183L299.8083 321.7744L338.3783 291.0144L388.6683 242.1844C395.5083 236.3244 399.8983 227.0544 399.8983 217.2844C399.8983 196.7744 384.7683 181.6444 364.7483 181.6444C354.4883 181.6444 346.6783 185.0544 339.8483 192.3844L209.9583 323.7344C202.1483 332.0344 197.2683 342.2844 197.2683 354.0044C197.2683 365.2344 202.1483 375.0044 209.9583 383.3044L340.3283 516.6044C347.1683 523.4344 354.9783 526.3644 365.2383 526.3644C384.7683 526.3644 399.8983 511.2344 399.8983 491.2144C399.8983 481.9344 396.4883 472.1644 389.1583 465.8244L328.1283 407.2244L299.8083 386.2344L357.4183 388.1844H503.4183C575.1983 388.1844 630.3683 429.1944 630.3683 504.3944C630.3683 581.5444 576.6583 628.9044 502.9283 628.9044H435.0583C414.0583 628.9044 397.9483 641.6044 397.9483 664.0644C397.9483 686.5244 414.0583 698.7344 436.0383 698.7344H502.9283C616.6983 698.7344 702.1483 625.9744 702.1483 508.3044Z"/>
</svg>