<?xml version="1.0" encoding="UTF-8" standalone="no"?>
<svg xmlns="http://www.w3.org/2000/svg"
     width="1198.73046875" height="792.96875"
     viewBox="0 0 1198.73046875 792.96875"
     fill="currentColor">
  <path d="M156.738 792.9734H681.148C779.298 792.9734 837.888 736.3234 837.888 638.1834V154.2934C837.888 56.6434 784.178 0.0034 686.038 0.0034H156.738C62.988 0.0034 -0.002 56.6434 -0.002 154.2934V638.1834C-0.002 736.3234 58.598 792.9734 156.738 792.9734ZM904.298 540.5234L1082.028 694.3334C1098.628 708.9834 1118.168 718.2634 1135.738 718.2634C1173.828 718.2634 1198.728 690.4334 1198.728 650.3934V142.5734C1198.728 102.5434 1173.828 74.7034 1135.738 74.7034C1118.168 74.7034 1098.628 83.9834 1082.028 98.6334L904.298 251.9534ZM251.468 603.5134C229.978 603.5134 213.868 588.3834 213.868 568.3634C213.868 557.6134 217.778 548.8234 226.078 540.5234L431.638 333.9834L517.088 256.3434L372.558 265.1334H304.198C284.668 265.1334 268.068 250.4834 268.068 230.9534C268.068 209.9634 283.688 193.3634 304.198 193.3634H584.958C611.818 193.3634 624.508 206.5434 624.508 233.3934V513.1834C624.508 533.6934 607.908 549.3134 586.918 549.3134C567.378 549.3134 552.738 532.7134 552.738 513.1834V445.8034L561.528 301.7534L483.888 386.2334L278.318 592.2834C270.508 600.0934 262.698 603.5134 251.468 603.5134Z"/>
</svg>