<?xml version="1.0" encoding="UTF-8" standalone="no"?>
<svg xmlns="http://www.w3.org/2000/svg"
     width="996.09375" height="996.09375"
     viewBox="0 0 996.09375 996.09375"
     fill="currentColor">
  <path d="M498.0477 996.0959C770.5077 996.0959 996.0977 770.0159 996.0977 498.0459C996.0977 225.5859 770.0177 -0.0041 497.5577 -0.0041C225.5877 -0.0041 -0.0023 225.5859 -0.0023 498.0459C-0.0023 770.0159 226.0777 996.0959 498.0477 996.0959ZM498.0477 913.0859C267.5777 913.0859 83.4977 728.5159 83.4977 498.0459C83.4977 267.5759 267.0877 83.0059 497.5577 83.0059C728.0277 83.0059 913.0877 267.5759 913.0877 498.0459C913.0877 728.5159 728.5177 913.0859 498.0477 913.0859ZM800.7777 498.5359C800.7777 487.3059 796.3877 479.0059 787.1077 469.7259L645.9977 328.6159C639.6477 321.7759 630.8577 318.3559 620.6077 318.3559C600.5877 318.3559 585.4477 333.9859 585.4477 354.0059C585.4477 364.2559 589.3577 373.5359 596.1877 379.8859L633.2977 416.0159L692.3877 465.8159L588.8677 461.9159H405.2777L301.7577 465.8159L361.3277 416.0159L398.4377 379.8859C405.2777 373.5359 409.1777 364.2559 409.1777 354.0059C409.1777 333.9859 394.0477 318.3559 374.0277 318.3559C363.7677 318.3559 354.9777 321.7759 348.6377 328.6159L207.5177 469.7259C198.2377 479.0059 193.8477 487.3059 193.8477 498.5359C193.8477 508.7859 198.2377 516.6059 207.5177 526.3659L348.6377 668.4559C354.9777 674.8059 363.7677 678.2259 374.0277 678.2259C394.0477 678.2259 409.1777 662.5959 409.1777 643.0659C409.1777 632.3259 404.7877 623.5359 398.4377 616.6959L361.3277 580.0759L302.2477 531.2459L405.2777 534.6659H588.8677L691.8977 531.2459L633.2977 580.0759L596.1877 616.6959C589.8477 623.5359 585.4477 632.3259 585.4477 643.0659C585.4477 662.5959 600.5877 678.2259 620.6077 678.2259C630.8577 678.2259 639.6477 674.8059 645.9977 668.4559L787.1077 526.3659C796.3877 516.6059 800.7777 508.7859 800.7777 498.5359Z"/>
</svg>