<?xml version="1.0" encoding="UTF-8" standalone="no"?>
<svg xmlns="http://www.w3.org/2000/svg"
     width="898.92578125" height="898.92578125"
     viewBox="0 0 898.92578125 898.92578125"
     fill="currentColor">
  <path d="M153.3183 898.9295H745.6083C848.1483 898.9295 898.9283 848.1495 898.9283 747.5595V151.3695C898.9283 50.7795 848.1483 -0.0005 745.6083 -0.0005H153.3183C51.2683 -0.0005 -0.0017 50.2895 -0.0017 151.3695V747.5595C-0.0017 848.6295 51.2683 898.9295 153.3183 898.9295ZM762.6983 448.7295C762.6983 459.4695 758.2983 467.7695 748.5383 478.0295L603.0283 624.0195C596.6783 630.8595 587.3983 634.2795 576.6583 634.2795C556.1483 634.2795 540.5283 618.6495 540.5283 597.6595C540.5283 586.4295 544.9183 577.6395 551.2683 570.7995L589.3583 533.1995L650.3883 482.4195L543.9483 486.8195H355.4683L249.0283 482.4195L309.5683 533.1995L347.6583 570.7995C354.0083 577.6395 358.3983 586.4295 358.3983 597.6595C358.3983 618.6495 342.7783 634.2795 322.2683 634.2795C311.5283 634.2795 302.2483 630.8595 295.8983 624.0195L150.3883 478.0295C140.6283 467.7695 136.2283 459.4695 136.2283 448.7295C136.2283 437.4995 140.6283 429.1995 150.3883 418.9495L295.8983 273.4395C302.2483 266.5995 311.5283 262.6995 322.2683 262.6995C342.7783 262.6995 358.3983 279.2995 358.3983 299.8095C358.3983 311.0395 354.4883 319.8195 347.6583 327.1495L309.5683 364.2595L248.5383 415.0395L355.4683 411.1295H543.9483L650.8783 415.0395L589.3583 364.2595L551.2683 327.1495C544.4383 319.8195 540.5283 311.0395 540.5283 299.8095C540.5283 279.2995 556.1483 262.6995 576.6583 262.6995C587.3983 262.6995 596.6783 266.5995 603.0283 273.4395L748.5383 418.9495C758.2983 429.1995 762.6983 437.4995 762.6983 448.7295Z"/>
</svg>