<?xml version="1.0" encoding="UTF-8" standalone="no"?>
<svg xmlns="http://www.w3.org/2000/svg"
     width="1208.0078125" height="802.734375"
     viewBox="0 0 1208.0078125 802.734375"
     fill="currentColor">
  <path d="M190.4308 802.7363H700.6808C819.8208 802.7363 891.1108 733.3963 891.1108 614.2563V547.3663L1075.6808 703.6163C1095.2108 719.7263 1116.7008 730.9563 1136.7208 730.9563C1179.6908 730.9563 1208.0108 699.2162 1208.0108 653.8063V148.9262C1208.0108 103.5163 1179.6908 71.7763 1136.7208 71.7763C1116.7008 71.7763 1095.2108 83.0063 1075.6808 99.1163L891.1108 255.3663V187.9863C891.1108 69.3362 819.8208 -0.0037 700.6808 -0.0037H190.4308C76.6608 -0.0037 0.0008 69.3362 0.0008 187.9863V614.2563C0.0008 733.3963 71.2908 802.7363 190.4308 802.7363ZM204.1008 729.0063C124.0208 729.0063 78.6108 687.4963 78.6108 603.0263V199.7062C78.6108 114.7463 124.0208 73.2463 204.1008 73.2463H687.0108C766.6008 73.2463 812.5008 114.7463 812.5008 199.7062V603.0263C812.5008 687.4963 766.6008 729.0063 687.0108 729.0063ZM1112.3008 637.2063L891.1108 454.5863V348.1463L1112.3008 165.5263C1116.7008 162.1063 1119.6308 159.6663 1124.0208 159.6663C1129.8808 159.6663 1132.3208 164.5462 1132.3208 171.3863V631.3463C1132.3208 638.1863 1129.8808 642.5763 1124.0208 642.5763C1119.6308 642.5763 1116.7008 640.1363 1112.3008 637.2063ZM608.4008 204.5862C598.1408 204.5862 590.3308 208.0063 583.0108 215.3362L382.8108 415.5263L307.6208 497.5563L315.9208 357.9063V291.9962C315.9208 272.9463 301.7608 257.3263 282.7108 257.3263C262.6908 257.3263 246.5808 271.9763 246.5808 291.9962V563.4762C246.5808 589.3563 258.7908 602.0463 285.1608 602.0463H557.1308C577.1508 602.0463 592.2808 585.9363 592.2808 565.9163C592.2808 546.3863 576.1708 532.7162 557.1308 532.7162H490.2308L350.5908 541.0163L433.1008 465.8163L632.8108 265.1363C641.1108 257.3263 644.5308 249.0263 644.5308 238.2763C644.5308 219.2363 628.9108 204.5862 608.4008 204.5862Z"/>
</svg>