<?xml version="1.0" encoding="UTF-8" standalone="no"?>
<svg xmlns="http://www.w3.org/2000/svg"
     width="996.09375" height="996.09375"
     viewBox="0 0 996.09375 996.09375"
     fill="currentColor">
  <path d="M498.0477 996.0959C770.5077 996.0959 996.0977 770.0159 996.0977 498.0459C996.0977 225.5859 770.0177 -0.0041 497.5577 -0.0041C225.5877 -0.0041 -0.0023 225.5859 -0.0023 498.0459C-0.0023 770.0159 226.0777 996.0959 498.0477 996.0959ZM498.0477 913.0859C267.5777 913.0859 83.4977 728.5159 83.4977 498.0459C83.4977 267.5759 267.0877 83.0059 497.5577 83.0059C728.0277 83.0059 913.0877 267.5759 913.0877 498.0459C913.0877 728.5159 728.5177 913.0859 498.0477 913.0859ZM254.8877 708.0059C266.1177 708.0059 278.3177 705.0759 287.1077 688.4759C333.0077 602.5359 396.9777 576.6559 499.0277 576.6559H506.8377V677.2459C506.8377 694.8259 519.5277 708.0059 537.1077 708.0059C550.2977 708.0059 560.5477 702.1459 572.7577 690.9159L780.2777 495.6059C790.5277 486.3259 793.9477 476.0759 793.9477 467.2859C793.9477 458.4959 790.5277 448.2459 780.2777 438.9659L572.7577 245.1159C559.0777 232.4259 550.7777 226.5659 537.5977 226.5659C519.5277 226.5659 506.8377 241.2059 506.8377 258.7859V358.3959H499.0277C311.0377 358.3959 228.0277 478.5159 228.0277 672.8559C228.0277 695.7959 241.2077 708.0059 254.8877 708.0059Z"/>
</svg>