<?xml version="1.0" encoding="UTF-8" standalone="no"?>
<svg xmlns="http://www.w3.org/2000/svg"
     width="1199.21875" height="931.15234375"
     viewBox="0 0 1199.21875 931.15234375"
     fill="currentColor">
  <path d="M153.3183 931.1561H1045.8983C1147.4583 931.1561 1199.2183 880.3761 1199.2183 779.7861V268.5561C1199.2183 167.9661 1147.4583 117.6761 1045.8983 117.6761H906.2483C867.6783 117.6761 855.9583 109.8661 833.9883 85.4461L794.9183 41.5061C770.5083 14.6461 745.6083 -0.0039 695.3083 -0.0039H500.4883C450.1983 -0.0039 425.2883 14.6461 400.8783 41.5061L361.8183 85.4461C339.8483 109.3761 327.6383 117.6761 289.5483 117.6761H153.3183C51.2683 117.6761 -0.0017 167.9661 -0.0017 268.5561V779.7861C-0.0017 880.3761 51.2683 931.1561 153.3183 931.1561ZM154.2983 852.5361C106.4483 852.5361 78.6183 826.6561 78.6183 775.8761V272.9461C78.6183 222.1661 106.4483 196.2861 154.2983 196.2861H309.0783C353.0283 196.2861 376.9483 187.9861 401.3683 160.6461L439.4483 117.6761C467.2883 86.4261 481.9383 78.6161 524.8983 78.6161H670.8983C713.8683 78.6161 728.5183 86.4261 756.3483 117.6761L794.4383 160.6461C818.8483 187.9861 842.7783 196.2861 886.7183 196.2861H1044.4383C1092.7783 196.2861 1120.6083 222.1661 1120.6083 272.9461V775.8761C1120.6083 826.6561 1092.7783 852.5361 1044.4383 852.5361ZM428.7083 344.7261C444.8283 362.3061 466.3083 359.8661 484.8683 345.7061C519.0383 318.3561 553.7083 304.6861 599.6083 304.6861C693.8483 304.6861 771.9683 368.1661 793.4583 452.1461H740.2383C718.7483 452.1461 713.3783 473.1461 725.5883 489.7461L802.2483 596.6761C814.9383 614.2561 836.9183 615.7261 850.5883 596.6761L926.2683 489.7461C937.9883 472.6561 933.5983 452.1461 911.6183 452.1461H864.2583C840.8183 320.7961 734.3783 229.9761 599.6083 229.9761C540.5283 229.9761 480.9583 250.9761 439.9383 285.1561C417.4783 302.7361 411.6183 327.1461 428.7083 344.7261ZM270.9983 500.4861C259.2783 517.5761 263.6683 538.0861 285.6483 538.0861H335.4483C358.8883 669.4361 465.3283 760.2561 600.5883 760.2561C659.6683 760.2561 718.7483 739.7461 760.2583 705.5661C782.7183 687.9861 788.5783 663.0861 771.4883 645.5061C754.8783 627.9261 733.8883 630.8561 714.8483 644.5361C680.6683 671.3861 646.4883 686.0361 600.5883 686.0361C506.3483 686.0361 427.7383 622.5561 406.2483 538.0861H456.5383C478.5183 538.0861 483.8883 517.5761 471.6783 500.4861L394.5283 394.0461C382.3283 376.4661 360.3483 374.9961 346.6783 394.0461Z"/>
</svg>