<?xml version="1.0" encoding="UTF-8" standalone="no"?>
<svg xmlns="http://www.w3.org/2000/svg"
     width="821.2890625" height="1046.875"
     viewBox="0 0 821.2890625 1046.875"
     fill="currentColor">
  <path d="M151.3683 1046.8766H669.9183C770.9983 1046.8766 821.2883 995.6066 821.2883 894.0466V450.6866H467.7783C405.2783 450.6866 375.4883 420.8966 375.4883 358.3966V-0.0034H151.3683C50.7783 -0.0034 -0.0017 51.7566 -0.0017 153.3166V894.0466C-0.0017 996.0966 50.2883 1046.8766 151.3683 1046.8766ZM469.2383 383.7866H815.4283C812.4983 363.7666 798.3383 344.2366 774.8983 320.3166L505.8583 46.3866C482.9083 22.9466 462.8883 8.7866 442.3783 5.3666V357.4266C442.3783 374.9966 451.1683 383.7866 469.2383 383.7866ZM410.6483 919.9266C391.1183 919.9266 374.9983 904.2966 374.9983 885.2566V712.4066L377.9283 635.2566L336.9183 677.2466L294.4383 720.7066C287.5983 727.5366 277.8283 731.4466 269.0383 731.4466C249.5083 731.4466 235.8383 717.7766 235.8383 699.2166C235.8383 688.4766 240.2383 680.1766 247.5583 673.8266L384.2783 547.8466C394.0383 539.0666 401.8583 535.6466 410.6483 535.6466C419.4383 535.6466 427.2483 539.0666 437.0083 547.8466L573.7283 673.8266C581.0583 680.1766 585.4483 688.4766 585.4483 699.2166C585.4483 717.7766 571.2883 731.4466 552.2483 731.4466C542.9683 731.4466 533.6883 727.5366 526.8583 720.7066L484.3783 677.2466L443.3583 635.2566L446.7783 712.4066V885.2566C446.7783 904.2966 430.1783 919.9266 410.6483 919.9266Z"/>
</svg>