<?xml version="1.0" encoding="UTF-8" standalone="no"?>
<svg xmlns="http://www.w3.org/2000/svg"
     width="898.92578125" height="898.92578125"
     viewBox="0 0 898.92578125 898.92578125"
     fill="currentColor">
  <path d="M153.3183 898.9295H745.6083C848.1483 898.9295 898.9283 848.1495 898.9283 747.5595V151.3695C898.9283 50.7795 848.1483 -0.0005 745.6083 -0.0005H153.3183C51.2683 -0.0005 -0.0017 50.2895 -0.0017 151.3695V747.5595C-0.0017 848.6295 51.2683 898.9295 153.3183 898.9295ZM154.2983 820.3095C105.4683 820.3095 78.6183 794.4295 78.6183 743.6495V155.2695C78.6183 104.4895 105.4683 78.6095 154.2983 78.6095H744.6283C792.9683 78.6095 820.3083 104.4895 820.3083 155.2695V743.6495C820.3083 794.4295 792.9683 820.3095 744.6283 820.3095ZM624.5083 677.7295L744.1383 555.1795C749.9983 548.8295 754.3983 540.0395 754.3983 532.2295C754.3983 513.6695 741.6983 500.9795 723.1483 500.9795C714.3583 500.9795 706.0583 504.3895 700.6883 510.2495L650.3883 562.0095L631.8383 582.0295L632.8083 559.0795V242.1895C632.8083 224.1195 619.1383 210.9395 601.0783 210.9395C583.0083 210.9395 569.3383 224.1195 569.3383 242.1895V559.5695L570.3083 582.5195L551.7583 562.0095L501.4683 510.2495C495.1183 503.9095 487.7883 500.9795 479.0083 500.9795C460.4483 500.9795 448.2383 513.6695 448.2383 532.2295C448.2383 539.5495 451.6583 548.3395 457.5183 555.1795L577.6383 677.7295C588.8683 689.4495 611.3283 691.4095 624.5083 677.7295ZM275.3883 220.6995L154.7883 343.7495C149.4183 350.0995 145.0183 359.3795 145.0183 366.2095C145.0183 384.2795 158.6883 397.9495 176.7583 397.9495C185.0583 397.9495 192.8683 394.0395 198.7283 388.1795L249.0283 335.9395L267.5783 315.9195L266.5983 339.8395V656.2495C266.5983 673.8295 280.2783 687.0095 298.3383 687.0095C316.8983 687.0095 330.5683 673.8295 330.5683 656.2495V339.3595L329.0983 315.9195L348.1483 335.9395L398.4383 388.6695C404.2983 394.5295 412.1083 397.9495 420.4083 397.9495C438.4783 397.9495 451.6583 384.7695 451.6583 366.2095C451.6583 358.3995 447.2683 349.1195 441.8983 343.7495L321.7783 220.6995C310.0583 208.4995 289.5483 206.5395 275.3883 220.6995Z"/>
</svg>