<?xml version="1.0" encoding="UTF-8" standalone="no"?>
<svg xmlns="http://www.w3.org/2000/svg"
     width="996.09375" height="996.09375"
     viewBox="0 0 996.09375 996.09375"
     fill="currentColor">
  <path d="M498.0477 996.0959C770.5077 996.0959 996.0977 770.0159 996.0977 498.0459C996.0977 225.5859 770.0177 -0.0041 497.5577 -0.0041C225.5877 -0.0041 -0.0023 225.5859 -0.0023 498.0459C-0.0023 770.0159 226.0777 996.0959 498.0477 996.0959ZM339.8477 373.0459C362.3077 373.0459 376.9577 388.1859 376.9577 412.5959V499.0259L369.6277 577.6359L442.3877 499.9959L626.4677 315.4259C633.7877 308.1059 643.5577 303.7059 655.7577 303.7059C677.7377 303.7059 692.8677 318.3559 692.8677 341.3059C692.8677 351.0759 687.9877 361.3259 680.6677 368.6559L495.6077 552.7359L416.9877 626.4659L491.6977 618.6559H582.5177C606.9377 618.6559 622.5577 633.2959 622.5577 655.2759C622.5577 677.7359 607.4177 692.3859 583.4977 692.3859H345.2177C319.3377 692.3859 302.7377 680.6659 302.7377 650.8759V413.5759C302.7377 389.6459 317.8677 373.0459 339.8477 373.0459Z"/>
</svg>