<?xml version="1.0" encoding="UTF-8" standalone="no"?>
<svg xmlns="http://www.w3.org/2000/svg"
     width="898.92578125" height="898.92578125"
     viewBox="0 0 898.92578125 898.92578125"
     fill="currentColor">
  <path d="M153.3183 898.9295H745.6083C848.1483 898.9295 898.9283 848.1495 898.9283 747.5595V151.3695C898.9283 50.7795 848.1483 -0.0005 745.6083 -0.0005H153.3183C51.2683 -0.0005 -0.0017 50.2895 -0.0017 151.3695V747.5595C-0.0017 848.6295 51.2683 898.9295 153.3183 898.9295ZM607.4183 573.7295C584.9583 573.7295 570.3083 558.1095 570.3083 534.1795V447.7495L577.6383 369.1395L504.8783 446.7795L320.7983 631.3495C313.4783 638.6695 303.7083 643.0695 291.5083 643.0695C269.5283 643.0695 254.8783 628.4195 254.8783 605.4695C254.8783 595.6995 259.2783 585.4495 266.5983 578.1295L451.6583 393.5595L530.2783 320.3095L455.5683 328.1295H364.7483C340.3283 328.1295 324.7083 313.4795 324.7083 291.4995C324.7083 269.0395 339.8483 254.3895 363.7683 254.3895H602.0483C627.9283 254.3895 644.5283 266.1095 644.5283 295.8995V533.1995C644.5283 556.6395 629.3983 573.7295 607.4183 573.7295Z"/>
</svg>