<?xml version="1.0" encoding="UTF-8" standalone="no"?>
<svg xmlns="http://www.w3.org/2000/svg"
     width="898.92578125" height="898.92578125"
     viewBox="0 0 898.92578125 898.92578125"
     fill="currentColor">
  <path d="M153.3183 898.9295H745.6083C848.1483 898.9295 898.9283 848.1495 898.9283 747.5595V151.3695C898.9283 50.7795 848.1483 -0.0005 745.6083 -0.0005H153.3183C51.2683 -0.0005 -0.0017 50.2895 -0.0017 151.3695V747.5595C-0.0017 848.6295 51.2683 898.9295 153.3183 898.9295ZM154.2983 820.3095C105.4683 820.3095 78.6183 794.4295 78.6183 743.6495V155.2695C78.6183 104.4895 105.4683 78.6095 154.2983 78.6095H744.6283C792.9683 78.6095 820.3083 104.4895 820.3083 155.2695V743.6495C820.3083 794.4295 792.9683 820.3095 744.6283 820.3095ZM701.1683 448.2395C701.1683 437.4995 696.7783 429.6895 687.0083 419.9195L521.9683 253.9095C515.6283 247.5595 506.8383 244.1395 496.5783 244.1395C476.5583 244.1395 461.4283 259.2795 461.4283 279.2995C461.4283 290.0395 465.8183 298.8295 472.1683 305.6595L533.6883 366.2095L592.2883 415.5295L489.2583 411.6195H234.3783C213.3783 411.6195 198.2383 426.7595 198.2383 448.2395C198.2383 469.2395 213.3783 484.3795 234.3783 484.3795H489.2583L592.2883 480.9595L533.6883 530.2695L472.1683 590.8195C465.3283 597.1695 461.4283 605.9595 461.4283 616.6995C461.4283 636.7195 476.5583 652.3395 496.5783 652.3395C506.8383 652.3395 515.6283 648.4395 521.9683 642.0895L687.0083 476.5595C696.2883 467.7695 701.1683 458.9795 701.1683 448.2395Z"/>
</svg>