<?xml version="1.0" encoding="UTF-8" standalone="no"?>
<svg xmlns="http://www.w3.org/2000/svg"
     width="1285.5734327462173" height="914.2462324834496"
     viewBox="0 0 1285.5734327462173 914.2462324834496"
     fill="currentColor">
  <path d="M158.6172 901.0589L256.2772 770.1989C275.8072 743.8389 265.5572 710.6289 230.8872 710.6289H161.5472V203.3089H230.8872C264.5772 203.3089 276.7872 171.0789 256.2772 143.7389L158.6172 13.3689C145.4372 -4.7011 120.0472 -4.2111 107.3472 13.3689L9.6972 143.7389C-10.3228 171.0789 1.8772 203.3089 35.0872 203.3089H104.9072V710.6289H35.0872C1.8772 710.6289 -10.3228 742.8589 9.6972 770.1989L107.3472 901.0589C120.5372 918.6389 145.4372 918.6389 158.6172 901.0589ZM463.7972 110.5389H1248.4672C1268.9672 110.5389 1285.5772 94.4189 1285.5772 73.4289C1285.5772 52.9189 1268.9672 36.8089 1248.4672 36.8089H463.7972C442.7972 36.8089 426.6872 52.9189 426.6872 73.4289C426.6872 94.4189 442.7972 110.5389 463.7972 110.5389ZM463.7972 366.3989H1248.4672C1268.9672 366.3989 1285.5772 350.2789 1285.5772 329.2889C1285.5772 308.7789 1268.9672 292.6689 1248.4672 292.6689H463.7972C442.7972 292.6689 426.6872 308.7789 426.6872 329.2889C426.6872 350.2789 442.7972 366.3989 463.7972 366.3989ZM463.7972 622.2589H1248.4672C1268.9672 622.2589 1285.5772 605.6489 1285.5772 585.1489C1285.5772 564.6389 1268.9672 548.5189 1248.4672 548.5189H463.7972C442.7972 548.5189 426.6872 564.6389 426.6872 585.1489C426.6872 605.6489 442.7972 622.2589 463.7972 622.2589ZM463.7972 877.6289H935.4772C955.9872 877.6289 972.5872 861.5089 972.5872 841.0089C972.5872 820.4989 955.9872 803.8989 935.4772 803.8989H463.7972C442.7972 803.8989 426.6872 820.4989 426.6872 841.0089C426.6872 861.5089 442.7972 877.6289 463.7972 877.6289Z"/>
</svg>