<?xml version="1.0" encoding="UTF-8" standalone="no"?>
<svg xmlns="http://www.w3.org/2000/svg"
     width="996.09375" height="996.09375"
     viewBox="0 0 996.09375 996.09375"
     fill="currentColor">
  <path d="M498.0477 996.0959C770.5077 996.0959 996.0977 770.0159 996.0977 498.0459C996.0977 225.5859 770.0177 -0.0041 497.5577 -0.0041C225.5877 -0.0041 -0.0023 225.5859 -0.0023 498.0459C-0.0023 770.0159 226.0777 996.0959 498.0477 996.0959ZM498.0477 913.0859C267.5777 913.0859 83.4977 728.5159 83.4977 498.0459C83.4977 267.5759 267.0877 83.0059 497.5577 83.0059C728.0277 83.0059 913.0877 267.5759 913.0877 498.0459C913.0877 728.5159 728.5177 913.0859 498.0477 913.0859ZM244.6277 557.6159C244.6277 674.8059 330.0777 748.0459 443.8477 748.0459H510.7377C532.7177 748.0459 548.8277 735.8359 548.8277 713.3759C548.8277 690.4259 532.7177 678.2259 511.7177 678.2259H443.8477C370.1177 678.2259 316.4077 630.8559 316.4077 553.7059C316.4077 478.5159 371.5777 437.4959 443.3577 437.4959H589.3577L646.9777 435.0559L618.6477 456.5459L557.6177 515.1359C550.2977 521.4859 546.8777 531.2459 546.8777 540.0359C546.8777 560.5459 562.0077 575.6859 581.5477 575.6859C591.7977 575.6859 599.6077 572.2659 606.4477 565.4259L736.8177 432.6159C744.6277 424.3159 749.9977 414.5459 749.9977 402.8359C749.9977 391.6059 744.6277 381.3459 736.8177 373.0459L606.9377 241.2059C600.0977 233.8859 592.2877 230.9559 582.0277 230.9559C562.0077 230.9559 546.8777 246.0959 546.8777 266.1159C546.8777 276.3659 551.2677 285.6459 558.1077 291.5059L608.3977 340.3359L646.9777 370.6059L589.3577 369.1359H443.3577C329.5877 369.1359 244.6277 440.4259 244.6277 557.6159Z"/>
</svg>