<?xml version="1.0" encoding="UTF-8" standalone="no"?>
<svg xmlns="http://www.w3.org/2000/svg"
     width="996.09375" height="996.09375"
     viewBox="0 0 996.09375 996.09375"
     fill="currentColor">
  <path d="M498.0477 996.0959C770.5077 996.0959 996.0977 770.0159 996.0977 498.0459C996.0977 225.5859 770.0177 -0.0041 497.5577 -0.0041C225.5877 -0.0041 -0.0023 225.5859 -0.0023 498.0459C-0.0023 770.0159 226.0777 996.0959 498.0477 996.0959ZM498.0477 913.0859C267.5777 913.0859 83.4977 728.5159 83.4977 498.0459C83.4977 267.5759 267.0877 83.0059 497.5577 83.0059C728.0277 83.0059 913.0877 267.5759 913.0877 498.0459C913.0877 728.5159 728.5177 913.0859 498.0477 913.0859ZM285.6477 651.8559C285.6477 679.6859 299.8077 696.2859 324.7077 695.7959C349.6077 695.3159 363.7677 679.6859 363.7677 651.8559V516.1159C363.7677 471.6759 385.2577 451.1759 427.2477 451.1759H554.6877V527.8359C554.6877 559.5659 590.3277 574.2159 617.1877 551.2659L733.3977 450.1959C762.6977 424.8059 762.6977 398.9259 733.3977 373.5359L617.1877 272.9459C590.3277 249.5159 554.6877 264.6459 554.6877 295.8959V372.5559H425.7777C331.0577 372.5559 285.6477 417.9659 285.6477 512.2059Z"/>
</svg>