<?xml version="1.0" encoding="UTF-8" standalone="no"?>
<svg xmlns="http://www.w3.org/2000/svg"
     width="970.21484375" height="896.484375"
     viewBox="0 0 970.21484375 896.484375"
     fill="currentColor">
  <path d="M-0.0017 294.9245C-0.0017 502.9345 174.3183 707.5145 449.7083 883.3045C459.9583 889.6445 475.0983 896.4845 484.8683 896.4845C495.1183 896.4845 509.7683 889.6445 520.5083 883.3045C795.8983 707.5145 970.2183 502.9345 970.2183 294.9245C970.2183 122.0745 851.5583 0.0045 692.8683 0.0045C602.5383 0.0045 529.2983 42.9645 484.8683 108.8845C441.4083 43.4545 367.6783 0.0045 276.8583 0.0045C118.6483 0.0045 -0.0017 122.0745 -0.0017 294.9245ZM78.6183 294.9245C78.6183 165.0345 162.5983 78.6145 275.8783 78.6145C368.1683 78.6145 420.4083 135.7445 452.1483 184.5745C465.3283 204.1045 473.6283 209.4745 484.8683 209.4745C496.5783 209.4745 503.9083 203.6145 518.0683 184.5745C551.7583 136.7145 602.5383 78.6145 693.8483 78.6145C807.6183 78.6145 891.5983 165.0345 891.5983 294.9245C891.5983 476.5645 699.7083 672.3645 495.1183 808.1045C490.2383 811.5245 486.8183 813.9645 484.8683 813.9645C483.3983 813.9645 479.9783 811.5245 475.0983 808.1045C270.5083 672.3645 78.6183 476.5645 78.6183 294.9245ZM312.4983 485.8445C312.4983 580.5645 387.2083 656.2545 480.9583 656.2545C574.7083 656.2545 649.4183 580.5645 649.4183 486.8145C649.4183 470.7045 635.7383 457.0345 619.6283 457.0345C603.0283 457.0345 589.3583 470.7045 589.3583 486.8145C589.3583 547.3645 541.0183 595.7045 480.9583 595.7045C420.8983 595.7045 372.5583 547.3645 372.5583 486.8145C372.5583 437.5045 405.7583 396.4845 450.6883 383.3045V430.1745C450.6883 448.2445 470.2183 455.0745 483.8883 443.3545L563.4783 375.0045C576.6583 363.2845 576.6583 347.6545 563.4783 336.4245L483.8883 269.0445C470.2183 257.3245 450.6883 264.1645 450.6883 282.2245V322.2645C374.0283 333.9845 312.4983 404.2945 312.4983 485.8445Z"/>
</svg>