<?xml version="1.0" encoding="UTF-8" standalone="no"?>
<svg xmlns="http://www.w3.org/2000/svg"
     width="898.92578125" height="898.92578125"
     viewBox="0 0 898.92578125 898.92578125"
     fill="currentColor">
  <path d="M153.3183 898.9295H745.6083C848.1483 898.9295 898.9283 848.1495 898.9283 747.5595V151.3695C898.9283 50.7795 848.1483 -0.0005 745.6083 -0.0005H153.3183C51.2683 -0.0005 -0.0017 50.2895 -0.0017 151.3695V747.5595C-0.0017 848.6295 51.2683 898.9295 153.3183 898.9295ZM607.4183 323.7295C629.3983 323.7295 644.5283 340.3295 644.5283 364.2595V601.5595C644.5283 631.3495 627.9283 643.0695 602.0483 643.0695H363.7683C339.8483 643.0695 324.7083 628.4195 324.7083 605.9595C324.7083 583.9795 340.3283 569.3395 364.7483 569.3395H455.5683L530.2783 577.1495L451.6583 503.4195L266.5983 319.3395C259.2783 312.0095 254.8783 301.7595 254.8783 291.9895C254.8783 269.0395 269.5283 254.3895 291.5083 254.3895C303.7083 254.3895 313.4783 258.7895 320.7983 266.1095L504.8783 450.6795L577.6383 528.3195L570.3083 449.7095V363.2795C570.3083 338.8695 584.9583 323.7295 607.4183 323.7295Z"/>
</svg>