<?xml version="1.0" encoding="UTF-8" standalone="no"?>
<svg xmlns="http://www.w3.org/2000/svg"
     width="527.1882153941302" height="943.4209131628832"
     viewBox="0 0 527.1882153941302 943.4209131628832"
     fill="currentColor">
  <path d="M147.0342 943.417C174.3842 943.417 189.5142 927.307 189.5142 899.477V594.297C245.1842 678.777 343.3242 747.127 465.3942 787.657C493.2342 797.917 515.6942 783.757 523.5042 764.707C532.2942 745.667 525.9442 721.737 498.1142 709.047C316.9642 634.827 189.5142 519.597 189.5142 342.347V223.207H258.8542C293.5242 223.207 302.3142 199.277 283.7542 172.427L174.3842 16.667C158.7542 -5.313 135.3242 -5.793 119.2042 16.667L9.8342 171.937C-9.2158 199.277 -0.4258 223.207 34.7342 223.207H104.0742V899.477C104.0742 927.307 119.2042 943.417 147.0342 943.417Z"/>
</svg>