<?xml version="1.0" encoding="UTF-8" standalone="no"?>
<svg xmlns="http://www.w3.org/2000/svg"
     width="1107.3672103163326" height="1107.3672103163324"
     viewBox="0 0 1107.3672103163326 1107.3672103163324"
     fill="currentColor">
  <path d="M54.7573 661.6849L445.8673 1052.7949C518.1273 1125.0649 589.4173 1125.5549 661.1973 1054.2649L1054.2673 660.7049C1125.5573 589.4249 1125.0673 517.6449 1052.7973 445.3749L662.1773 54.7549C589.9073 -17.5151 518.6173 -18.4851 446.8473 53.2849L53.2873 446.3549C-18.4927 518.1349 -17.5127 589.4249 54.7573 661.6849ZM111.3973 607.4849C76.7273 572.3349 75.7473 535.7049 111.8773 499.5749L499.5773 111.8849C535.7073 75.7449 572.3273 76.2349 607.4873 111.3949L996.1573 500.0649C1030.8273 534.7349 1031.8073 571.8449 995.6673 607.9749L607.9773 995.6749C571.8473 1031.8049 534.2473 1030.8249 500.0673 996.6449ZM341.8573 707.5849C341.8573 735.4149 355.5373 752.0149 380.9273 751.5249C405.8273 751.0449 419.9873 735.4149 419.9873 707.5849V571.8449C419.9873 527.4049 440.9873 506.9049 482.9773 506.9049H610.4173V583.5649C610.4173 615.2949 646.0573 629.9449 672.9173 606.9949L789.6173 505.9249C818.9173 480.5349 818.9173 454.6549 789.6173 429.2649L672.9173 328.6749C646.0573 305.2449 610.4173 320.3749 610.4173 351.6249V428.2849H481.9973C386.7873 428.2849 341.8573 473.6949 341.8573 567.9349Z"/>
</svg>