<?xml version="1.0" encoding="UTF-8" standalone="no"?>
<svg xmlns="http://www.w3.org/2000/svg"
     width="996.09375" height="996.09375"
     viewBox="0 0 996.09375 996.09375"
     fill="currentColor">
  <path d="M498.0477 996.0959C770.5077 996.0959 996.0977 770.0159 996.0977 498.0459C996.0977 225.5859 770.0177 -0.0041 497.5577 -0.0041C225.5877 -0.0041 -0.0023 225.5859 -0.0023 498.0459C-0.0023 770.0159 226.0777 996.0959 498.0477 996.0959ZM239.7477 497.5559C239.7477 486.3259 243.6477 478.5159 253.9077 468.2659L423.8277 297.3659C430.6677 290.5259 439.4577 287.1059 450.1977 287.1059C471.1877 287.1059 486.8177 302.7359 486.8177 323.7259C486.8177 334.4759 481.9377 343.7459 475.5877 351.0759L413.0877 413.0859L352.5377 463.8659L458.9877 459.4759H720.2177C742.1877 459.4759 758.2977 475.0959 758.2977 497.5559C758.2977 519.5359 742.6777 535.1559 720.2177 535.1559H458.9877L352.0477 531.2459L413.0877 582.0359L475.5877 644.0459C482.4177 650.8759 486.8177 660.1559 486.8177 670.8959C486.8177 691.8959 471.1877 708.0059 450.1977 708.0059C439.4577 708.0059 430.6677 704.1059 423.8277 697.2659L253.9077 526.8559C244.6277 517.5759 239.7477 508.7859 239.7477 497.5559Z"/>
</svg>