<?xml version="1.0" encoding="UTF-8" standalone="no"?>
<svg xmlns="http://www.w3.org/2000/svg"
     width="996.09375" height="996.09375"
     viewBox="0 0 996.09375 996.09375"
     fill="currentColor">
  <path d="M498.0477 996.0977C770.5077 996.0977 996.0977 770.5077 996.0977 498.0477C996.0977 226.0777 770.0177 -0.0023 497.5577 -0.0023C225.5877 -0.0023 -0.0023 226.0777 -0.0023 498.0477C-0.0023 770.5077 226.0777 996.0977 498.0477 996.0977ZM273.4377 520.9977C273.4377 397.4577 374.9977 300.7777 488.2777 300.7777C492.6777 300.7777 498.0477 301.2677 501.9577 301.7577L466.7977 265.6277C461.4277 259.7677 457.5177 250.9777 457.5177 242.1877C457.5177 224.1177 471.1877 209.9577 489.7477 209.9577C498.5377 209.9577 507.3277 213.8677 512.6977 220.2177L609.3777 318.3577C621.0977 331.0577 622.0677 353.0277 609.3777 365.2377L511.7177 462.8877C506.3477 468.2577 498.0477 472.6577 489.7477 472.6577C471.6777 472.6577 457.5177 458.4977 457.5177 440.4277C457.5177 431.6377 461.4277 423.3377 467.2877 417.4777L516.1177 369.1377C511.2277 368.1677 504.3977 367.6777 498.0477 367.6777C412.1077 367.6777 343.2577 437.0077 343.2577 522.9477C343.2577 609.3777 412.1077 678.7077 498.0477 678.7077C583.9877 678.7077 652.8277 609.3777 652.8277 522.9477C652.8277 503.9077 668.9477 488.2777 687.9877 488.2777C706.5477 488.2777 722.6577 503.9077 722.6577 522.9477C722.6577 646.9677 622.5577 748.0477 498.0477 748.0477C373.5377 748.0477 273.4377 646.9677 273.4377 520.9977Z"/>
</svg>