<?xml version="1.0" encoding="UTF-8" standalone="no"?>
<svg xmlns="http://www.w3.org/2000/svg"
     width="900.390625" height="895.99609375"
     viewBox="0 0 900.390625 895.99609375"
     fill="currentColor">
  <path d="M843.2583 57.6147C793.4583 7.8147 723.1483 0.0047 639.6483 0.0047H259.2783C177.2483 0.0047 106.9383 7.8147 57.1283 57.6147C7.3283 107.4247 -0.0017 177.2447 -0.0017 258.7847V635.7447C-0.0017 719.2347 7.3283 788.5747 57.1283 838.3747C106.9383 888.1847 177.2483 895.9947 260.2583 895.9947H639.6483C723.1483 895.9947 793.4583 888.1847 843.2583 838.3747C893.0683 788.5747 900.3883 719.2347 900.3883 635.7447V260.2547C900.3883 176.7547 893.0683 106.9347 843.2583 57.6147ZM821.7783 246.5847V648.9247C821.7783 699.7047 815.4283 751.4647 785.6483 781.2547C756.3483 810.5447 703.6183 817.3847 653.3183 817.3847H247.0683C196.7783 817.3847 144.0383 810.5447 114.2583 781.2547C84.9583 751.4647 78.6183 699.7047 78.6183 648.9247V248.0447C78.6183 196.7747 84.9583 144.0447 114.2583 114.7447C144.0383 84.9647 197.2683 78.6147 248.5383 78.6147H653.3183C703.6183 78.6147 756.3483 85.4447 785.6483 114.7447C815.4283 144.5347 821.7783 196.2847 821.7783 246.5847ZM450.6883 198.7347C429.6883 198.7347 414.5483 213.8647 414.5483 235.3547V479.4947L417.9683 582.5147L369.1383 523.9247L311.0383 465.3347C304.6883 458.4947 295.8983 454.5947 285.1583 454.5947C265.1383 454.5947 249.9983 469.7247 249.9983 489.7447C249.9983 500.0047 252.9283 508.7847 259.7683 515.1347L422.8483 677.2447C432.6183 687.0147 440.4283 691.4047 450.6883 691.4047C461.9183 691.4047 470.2183 686.5247 479.4883 677.2447L642.5783 515.1347C648.9283 508.7847 652.3483 500.0047 652.3483 489.7447C652.3483 469.7247 636.7183 454.5947 616.6983 454.5947C605.9583 454.5947 597.1683 458.0047 590.8183 465.3347L533.1983 523.9247L483.8883 583.0047L487.3083 479.4947V235.3547C487.3083 213.8647 472.1683 198.7347 450.6883 198.7347Z"/>
</svg>