<?xml version="1.0" encoding="UTF-8" standalone="no"?>
<svg xmlns="http://www.w3.org/2000/svg"
     width="996.09375" height="996.09375"
     viewBox="0 0 996.09375 996.09375"
     fill="currentColor">
  <path d="M498.0477 996.0959C770.5077 996.0959 996.0977 770.0159 996.0977 498.0459C996.0977 225.5859 770.0177 -0.0041 497.5577 -0.0041C225.5877 -0.0041 -0.0023 225.5859 -0.0023 498.0459C-0.0023 770.0159 226.0777 996.0959 498.0477 996.0959ZM498.0477 913.0859C267.5777 913.0859 83.4977 728.5159 83.4977 498.0459C83.4977 267.5759 267.0877 83.0059 497.5577 83.0059C728.0277 83.0059 913.0877 267.5759 913.0877 498.0459C913.0877 728.5159 728.5177 913.0859 498.0477 913.0859ZM498.5377 223.6359C437.9877 223.6359 376.4677 244.6259 334.4777 279.7859C311.0377 298.3359 305.6677 323.7259 322.2677 341.7959C339.3577 359.8659 361.8177 356.9359 380.8577 342.7759C416.0177 315.4259 451.1677 300.2959 498.5377 300.2959C595.7077 300.2959 676.2677 365.7259 698.2377 452.1459H644.0477C621.0977 452.1459 616.2077 474.1259 628.4177 491.2059L708.0077 601.5659C721.1877 619.6259 743.6477 621.0959 757.3277 601.5659L835.4477 491.2059C848.1477 474.1259 843.2577 452.1459 820.3077 452.1459H771.4877C748.0477 316.8959 638.1877 223.6359 498.5377 223.6359ZM499.5077 770.5059C560.5477 770.5059 621.5777 749.0259 664.0577 713.8659C687.4977 695.3159 692.8677 669.9259 676.2677 651.8559C659.1777 633.7859 636.7177 636.7159 617.1877 650.8759C582.0277 678.7059 546.8777 693.3559 499.5077 693.3559C402.3477 693.3559 321.7777 627.9259 300.2977 541.5059H351.5577C374.0277 541.5059 379.3977 519.5359 366.6977 502.4459L287.5977 392.0859C274.4177 374.0259 251.9577 372.5559 238.2777 392.0859L160.1577 502.4459C147.4577 520.0159 152.3477 541.5059 174.8077 541.5059H226.5577C250.4877 676.7559 360.3477 770.5059 499.5077 770.5059Z"/>
</svg>