<?xml version="1.0" encoding="UTF-8" standalone="no"?>
<svg xmlns="http://www.w3.org/2000/svg"
     width="740.234375" height="922.36328125"
     viewBox="0 0 740.234375 922.36328125"
     fill="currentColor">
  <path d="M370.1183 -0.0034C344.7283 -0.0034 326.6583 17.5766 326.6583 42.9666V686.0366L330.5683 790.5266L184.0783 629.8866L72.7583 520.5066C65.4283 512.6966 53.7083 508.7866 41.9883 508.7866C17.5783 508.7866 -0.0017 527.3466 -0.0017 551.2666C-0.0017 562.9866 4.3983 573.2466 13.6683 583.0066L337.3983 907.7166C346.6783 917.4766 357.9083 922.3666 370.1183 922.3666C382.3283 922.3666 393.5583 917.4766 402.8283 907.7166L727.0483 583.0066C736.3283 573.2466 740.2383 562.9866 740.2383 551.2666C740.2383 527.3466 722.6583 508.7866 698.2383 508.7866C686.5283 508.7866 675.2883 512.6966 667.4783 520.5066L556.1483 629.8866L410.1583 790.0366L413.5783 686.0366V42.9666C413.5783 17.5766 395.5083 -0.0034 370.1183 -0.0034Z"/>
</svg>