<?xml version="1.0" encoding="UTF-8" standalone="no"?>
<svg xmlns="http://www.w3.org/2000/svg"
     width="1312.5" height="957.51953125"
     viewBox="0 0 1312.5 957.51953125"
     fill="currentColor">
  <path d="M-0.0017 690.4247C-0.0017 701.1747 5.3683 713.8647 13.6683 722.1647L229.0083 942.8747C238.2783 952.6347 249.5083 957.5147 261.7183 957.5147C273.4383 957.5147 284.6683 952.6347 293.9483 942.8747L509.7683 722.1647C518.0683 713.8647 522.9483 701.1747 522.9483 690.4247C522.9483 664.5547 505.3683 647.4647 479.9783 647.4647C467.2883 647.4647 457.5183 651.3647 450.1983 659.1747L379.3983 733.8847L300.2883 824.7047L305.1783 711.9147V245.6047L300.2883 132.8147L379.3983 223.6347L450.1983 298.3447C457.5183 306.1547 467.2883 310.0547 479.9783 310.0547C505.3683 310.0547 522.9483 292.9647 522.9483 267.0947C522.9483 256.3447 518.0683 243.6547 509.7683 235.3547L293.9483 14.6447C284.6683 4.8847 273.4383 0.0047 261.7183 0.0047C249.5083 0.0047 238.2783 4.8847 229.0083 14.6447L13.6683 235.3547C5.3683 243.6547 -0.0017 256.3447 -0.0017 267.0947C-0.0017 292.9647 17.5783 310.0547 42.9683 310.0547C55.6683 310.0547 65.9183 305.6647 72.7583 298.3447L144.0383 223.6347L222.6583 132.8147L217.7783 245.6047V711.9147L222.6583 824.7047L144.0383 733.8847L72.7583 659.1747C65.9183 651.8547 55.6683 647.4647 42.9683 647.4647C17.5783 647.4647 -0.0017 664.5547 -0.0017 690.4247ZM618.1683 349.6047C618.1683 363.7647 628.9083 375.0047 644.0383 376.9547C874.0283 402.8347 907.7183 435.0547 938.4783 672.3647C940.9183 687.0147 952.1483 696.7747 965.3283 696.7747C979.0083 696.7747 990.2383 687.0147 992.6783 672.3647C1023.4383 435.0547 1056.6383 402.8347 1286.6183 376.9547C1302.2483 375.0047 1312.4983 363.7647 1312.4983 349.6047C1312.4983 335.4447 1302.2483 324.2147 1286.6183 322.2647C1057.1283 296.3847 1023.4383 263.6747 992.6783 26.8547C990.2383 12.6947 979.4883 2.9247 965.3283 2.9247C951.6583 2.9247 940.9183 12.6947 938.4783 26.8547C905.7583 262.2047 874.5083 291.5047 644.0383 322.2647C628.9083 324.2147 618.1683 335.4447 618.1683 349.6047ZM571.7783 774.9047C571.7783 784.6647 578.6183 792.9647 589.3583 795.4147C713.8683 818.8447 716.3083 817.3847 730.4683 934.5747C732.4183 945.8047 740.2383 954.1047 750.9783 954.1047C762.2083 954.1047 770.0183 946.2847 771.9683 935.0547C787.5983 812.5047 792.9683 812.5047 912.1083 795.4147C923.3383 793.4547 930.6683 785.1547 930.6683 774.9047C930.6683 765.1347 923.8283 756.3447 912.5983 754.3947C791.5083 730.9547 788.0883 733.8847 771.9683 614.2547C770.0183 603.5147 761.7183 595.7047 750.9783 595.7047C740.2383 595.7047 732.4183 604.0047 730.4683 615.2347C716.3083 732.4247 713.3783 734.3747 591.3083 754.3947C579.0983 756.3447 571.7783 764.1647 571.7783 774.9047Z"/>
</svg>