<?xml version="1.0" encoding="UTF-8" standalone="no"?>
<svg xmlns="http://www.w3.org/2000/svg"
     width="996.09375" height="996.09375"
     viewBox="0 0 996.09375 996.09375"
     fill="currentColor">
  <path d="M498.0477 996.0959C770.5077 996.0959 996.0977 770.0159 996.0977 498.0459C996.0977 225.5859 770.0177 -0.0041 497.5577 -0.0041C225.5877 -0.0041 -0.0023 225.5859 -0.0023 498.0459C-0.0023 770.0159 226.0777 996.0959 498.0477 996.0959ZM498.0477 913.0859C267.5777 913.0859 83.4977 728.5159 83.4977 498.0459C83.4977 267.5759 267.0877 83.0059 497.5577 83.0059C728.0277 83.0059 913.0877 267.5759 913.0877 498.0459C913.0877 728.5159 728.5177 913.0859 498.0477 913.0859ZM344.2377 376.9559C322.7577 376.9559 308.1077 393.0659 308.1077 416.0159V646.4859C308.1077 675.2959 324.2177 686.5259 349.1177 686.5259H580.5677C603.5177 686.5259 618.1677 672.3659 618.1677 650.8759C618.1677 629.3959 603.0277 615.2359 579.5877 615.2359H490.7277L418.4577 623.0459L494.6277 551.7559L674.8077 372.0659C681.6377 365.2359 686.5277 355.4659 686.5277 345.7059C686.5277 323.7259 671.8777 309.5659 650.3877 309.5659C638.6677 309.5659 629.3977 313.9659 622.5577 320.7959L442.8677 500.4859L372.5577 575.6859L379.8877 499.5159V415.0359C379.8877 391.6059 365.7277 376.9559 344.2377 376.9559Z"/>
</svg>