<?xml version="1.0" encoding="UTF-8" standalone="no"?>
<svg xmlns="http://www.w3.org/2000/svg"
     width="996.09375" height="996.09375"
     viewBox="0 0 996.09375 996.09375"
     fill="currentColor">
  <path d="M498.0477 996.0959C770.5077 996.0959 996.0977 770.0159 996.0977 498.0459C996.0977 225.5859 770.0177 -0.0041 497.5577 -0.0041C225.5877 -0.0041 -0.0023 225.5859 -0.0023 498.0459C-0.0023 770.0159 226.0777 996.0959 498.0477 996.0959ZM499.0277 757.8159C472.1677 757.8159 456.0577 741.2059 456.5477 714.3559L460.9377 563.4759L324.7077 651.8559C317.3877 656.7359 308.5977 659.6659 298.3377 659.6659C277.8277 659.6659 258.2977 643.5559 258.2977 617.6759C258.2977 600.5859 266.1177 589.8459 282.7177 580.5659L424.8077 500.9759L282.7177 422.3659C266.1177 413.0859 258.2977 401.3659 258.2977 385.2559C258.2977 358.8859 277.8277 343.2659 298.3377 343.2659C308.5977 343.2659 317.3877 345.7059 324.7077 350.5859L460.9377 437.4959L456.5477 281.7359C456.0577 254.8859 472.1677 238.2859 499.0277 238.2859C525.3877 238.2859 540.0377 253.9059 539.5477 281.7359L535.1577 437.4959L671.3877 350.0959C678.7077 345.2159 687.4977 342.2859 697.7577 342.2859C718.2577 342.2859 737.7977 358.3959 737.7977 384.2759C737.7977 400.8759 729.9777 412.5959 713.3777 421.8759L570.3077 500.4859L713.3777 581.0559C729.9777 590.3359 737.7977 601.0759 737.7977 618.1659C737.7977 644.0459 718.2577 660.1559 697.7577 660.1559C687.4977 660.1559 678.7077 657.2259 671.3877 652.3459L535.1577 563.4759L539.5477 714.3559C540.0377 742.1859 525.3877 757.8159 499.0277 757.8159Z"/>
</svg>