<?xml version="1.0" encoding="UTF-8" standalone="no"?>
<svg xmlns="http://www.w3.org/2000/svg"
     width="1012.6953125" height="1039.0625"
     viewBox="0 0 1012.6953125 1039.0625"
     fill="currentColor">
  <path d="M-0.0023 521.9725C-0.0023 843.7525 217.7777 1039.0625 517.5777 1039.0625C598.6377 1039.0625 675.7777 1027.8325 723.6377 1012.2025C757.3277 1001.4625 768.0677 983.8825 768.0677 965.8225C768.0677 947.7525 753.9077 934.0825 735.8377 934.0825C729.9777 934.0825 722.1677 935.0625 712.8877 937.5025C653.3177 952.1525 602.0477 961.9125 533.2077 961.9125C266.1177 961.9125 83.9877 800.7825 83.9877 524.9025C83.9877 260.7425 255.8577 76.6625 514.6477 76.6625C743.6477 76.6625 935.0577 217.7725 935.0577 471.1925C935.0577 619.1425 885.2577 718.7525 804.6877 718.7525C750.9777 718.7525 720.7077 687.5025 720.7077 634.2725V303.2225C720.7077 276.8525 706.0577 260.7425 681.1477 260.7425C656.7377 260.7425 641.5977 276.8525 641.5977 303.2225V358.8825H637.2077C612.3077 298.8325 551.2677 260.7425 478.5177 260.7425C352.0477 260.7425 263.1877 368.6525 263.1877 523.4325C263.1877 679.6825 351.5577 788.5725 480.4677 788.5725C556.1477 788.5725 614.7477 747.5625 643.0677 678.2225H647.4577C656.7377 747.0725 714.8477 789.0625 791.9877 789.0625C928.2277 789.0625 1012.6977 655.2725 1012.6977 467.7725C1012.6977 184.0825 804.1977 0.0025 515.6277 0.0025C212.3977 0.0025 -0.0023 207.5225 -0.0023 521.9725ZM493.6477 711.4225C406.2477 711.4225 350.5877 638.6725 350.5877 522.9525C350.5877 409.1825 406.7377 336.4225 494.1377 336.4225C583.9877 336.4225 640.6277 407.7125 640.6277 520.9925C640.6277 636.7225 582.5177 711.4225 493.6477 711.4225Z"/>
</svg>