<?xml version="1.0" encoding="UTF-8" standalone="no"?>
<svg xmlns="http://www.w3.org/2000/svg"
     width="1054.9852101448046" height="1177.24609375"
     viewBox="0 0 1054.9852101448046 1177.24609375"
     fill="currentColor">
  <path d="M17.1323 887.6997C62.0523 964.8397 175.8223 979.9797 330.1223 937.0097C370.1623 1088.3797 439.0123 1177.2497 527.3923 1177.2497C615.7723 1177.2497 685.1023 1088.3797 724.6523 937.0097C879.4423 979.9797 992.7223 964.8397 1037.6423 887.6997C1081.5923 810.5497 1038.1323 705.5697 924.3623 594.2397C1038.6223 482.4197 1082.5623 376.9497 1037.6423 299.3197C992.7223 222.1697 880.4123 207.0297 727.0923 249.5097C687.5423 92.2897 617.7223 -0.0003 527.3923 -0.0003C437.5423 -0.0003 367.2323 92.2897 327.6823 249.5097C174.8523 207.0297 62.0523 222.1697 17.1323 299.3197C-27.2977 376.9497 16.1623 482.4197 130.4123 594.2397C16.6423 705.5697 -26.8077 810.5497 17.1323 887.6997ZM527.3923 71.7797C585.0023 71.7797 630.4123 145.0197 657.7623 271.4797C616.2523 286.6197 572.8023 304.6897 527.3923 326.6597C481.9823 304.6897 438.5223 286.6197 397.5023 271.4797C424.8523 145.5097 470.2623 71.7797 527.3923 71.7797ZM80.1223 335.9397C108.4423 286.6197 192.4323 283.1997 312.5423 320.7997C305.2223 364.2597 299.3623 410.6397 295.9423 460.9397C254.9323 488.7697 217.8223 517.0897 185.1023 544.9197C91.3523 459.4697 51.8023 384.2797 80.1223 335.9397ZM974.6523 335.9397C1003.4623 384.2797 963.9123 459.4697 870.1623 544.9197C836.9623 517.0897 799.8523 488.7697 759.3223 460.9397C755.4123 410.6397 750.0423 364.2597 742.2323 320.7997C862.3523 283.1997 946.8223 286.6197 974.6523 335.9397ZM644.5723 389.1597C633.8323 382.8097 623.5823 376.9497 613.3223 371.0897C632.8523 362.2997 652.3923 353.9997 670.9423 346.6797C673.3823 366.2097 675.8223 387.2097 678.2723 408.6897C667.0323 402.3397 655.8023 395.5097 644.5723 389.1597ZM410.2023 389.1597C398.9723 395.5097 387.7423 402.3397 377.0023 408.6897C378.9523 387.2097 381.3923 366.2097 384.3223 346.6797C402.8723 353.9997 421.9223 362.2997 441.9423 371.0897C431.1923 376.9497 420.9423 382.8097 410.2023 389.1597ZM447.8023 729.4897C420.9423 714.3597 395.5523 698.7297 371.1423 683.5897C370.1623 652.8297 369.1823 621.0897 369.1823 587.8897C369.1823 559.0797 369.6723 530.7597 370.6523 503.9097C395.5523 488.2797 421.9223 472.1697 449.2623 456.5397C476.1223 440.9197 502.0023 426.7597 527.3923 413.0897C552.7823 426.7597 579.1423 440.9197 606.0023 456.5397C633.3423 472.1697 659.2223 488.2797 684.1223 503.9097C685.1023 530.7597 686.0823 559.0797 686.0823 587.8897C686.0823 621.0897 685.1023 652.8297 683.6423 683.5897C659.7123 698.7297 634.3223 714.3597 607.4623 729.4897C580.1223 745.1197 553.2723 759.7697 527.3923 773.4397C501.5123 759.7697 474.6523 745.1197 447.8023 729.4897ZM527.8723 692.3797C585.0023 692.3797 631.3923 645.9997 631.3923 588.3797C631.3923 531.2497 585.0023 484.8597 527.8723 484.8597C470.2623 484.8597 423.8723 531.2497 423.8723 588.3797C423.8723 645.9997 470.2623 692.3797 527.8723 692.3797ZM291.5523 587.8897C291.5523 602.0497 292.0323 616.6997 292.0323 630.3697C274.9423 618.1597 258.3423 605.9597 242.7223 593.7497C258.3423 581.5397 274.4623 569.3397 292.0323 557.1297C292.0323 566.8897 291.5523 577.1497 291.5523 587.8897ZM763.2323 587.8897C763.2323 577.6397 763.2323 566.8897 763.2323 557.1297C780.3223 569.3397 796.9223 581.5397 812.0523 593.7497C796.4323 605.9597 780.3223 618.1597 762.7423 630.3697C763.2323 616.2097 763.2323 602.0497 763.2323 587.8897ZM974.6523 851.5597C946.3323 900.8797 861.8623 903.8097 740.7723 865.2297C748.5823 822.7497 754.4423 776.8597 758.3423 727.0497C799.8523 699.2197 836.9623 670.8997 870.6523 643.0697C963.9123 728.5197 1002.9723 802.7297 974.6523 851.5597ZM80.1223 851.5597C51.8023 802.7297 91.3523 728.5197 184.6123 643.0697C217.8223 670.8997 255.4123 699.2197 296.9223 727.5397C300.8223 776.8597 306.6823 822.7497 314.5023 865.2297C193.4023 903.8097 108.4423 900.8797 80.1223 851.5597ZM645.5523 797.3597C656.2923 791.4997 666.5523 785.1597 676.8023 778.8097C674.8523 800.2897 672.4123 820.3097 669.4823 839.3597C651.4123 832.5197 632.8523 824.2197 613.3223 815.4297C624.0723 809.5697 634.8123 803.7097 645.5523 797.3597ZM409.2223 797.3597C419.9623 803.7097 430.7123 809.5697 441.4523 815.4297C422.4123 824.2197 403.8523 832.5197 385.7823 839.3597C382.8523 820.3097 380.4123 800.2897 377.9723 779.2997C388.2323 785.1597 398.4823 791.4997 409.2223 797.3597ZM527.3923 1105.4697C471.7223 1105.4697 426.8023 1035.6397 399.4623 914.5497C439.9823 899.8997 482.9523 881.8397 527.3923 859.8597C572.3123 881.8397 614.7923 899.8997 655.8023 914.5497C627.9723 1035.6397 583.5423 1105.4697 527.3923 1105.4697Z"/>
</svg>