<?xml version="1.0" encoding="UTF-8" standalone="no"?>
<svg xmlns="http://www.w3.org/2000/svg"
     width="996.09375" height="996.09375"
     viewBox="0 0 996.09375 996.09375"
     fill="currentColor">
  <path d="M498.0477 996.0959C770.5077 996.0959 996.0977 770.0159 996.0977 498.0459C996.0977 225.5859 770.0177 -0.0041 497.5577 -0.0041C225.5877 -0.0041 -0.0023 225.5859 -0.0023 498.0459C-0.0023 770.0159 226.0777 996.0959 498.0477 996.0959ZM498.0477 913.0859C267.5777 913.0859 83.4977 728.5159 83.4977 498.0459C83.4977 267.5759 267.0877 83.0059 497.5577 83.0059C728.0277 83.0059 913.0877 267.5759 913.0877 498.0459C913.0877 728.5159 728.5177 913.0859 498.0477 913.0859ZM298.8277 598.6359C298.8277 612.3059 308.1077 622.5559 322.7577 622.5559H349.1177L324.7077 694.3359C322.7577 701.6559 322.2677 706.5459 322.2677 710.4459C322.2677 727.0459 334.9577 739.2559 353.5177 739.2559C369.1377 739.2559 379.8877 731.9359 384.7677 715.3359L414.0577 622.5559H580.5677L609.8677 715.8159C614.7477 732.4259 624.5077 739.2559 640.6277 739.2559C659.1777 739.2559 672.3677 727.0459 672.3677 710.4459C672.3677 706.5459 671.3877 701.6559 668.9477 694.3359L644.5277 622.5559H671.8777C686.5277 622.5559 695.7977 612.3059 695.7977 598.6359C695.7977 584.9559 686.5277 574.2159 671.8777 574.2159H629.3977L615.7277 533.2059H671.8777C686.5277 533.2059 695.7977 522.4559 695.7977 508.7859C695.7977 495.1159 686.5277 484.8659 671.8777 484.8659H599.6077L534.6677 289.5459C528.8077 271.9759 517.0877 261.2259 497.0677 261.2259C476.5577 261.2259 464.8477 271.4859 458.9877 289.5459L394.5277 484.8659H322.7577C308.1077 484.8659 298.8277 495.1159 298.8277 508.7859C298.8277 522.4559 308.1077 533.2059 322.7577 533.2059H378.4177L364.7477 574.2159H322.7577C308.1077 574.2159 298.8277 584.9559 298.8277 598.6359ZM456.0577 484.8659L497.0677 354.0059L538.0877 484.8659ZM428.2277 574.2159L441.4077 533.2059H552.7377L565.9177 574.2159Z"/>
</svg>