<?xml version="1.0" encoding="UTF-8" standalone="no"?>
<svg xmlns="http://www.w3.org/2000/svg"
     width="996.09375" height="1014.7269285584925"
     viewBox="0 0 996.09375 1014.7269285584925"
     fill="currentColor">
  <path d="M-0.0023 498.0459C-0.0023 662.5959 83.9877 808.1059 208.4977 900.8759C229.9777 917.4759 256.8377 912.1059 269.0477 892.0859C281.2477 872.0659 274.8977 848.6359 254.8877 833.9859C150.8777 759.2759 83.4977 637.2059 83.0077 498.0459C82.0277 267.5759 267.5777 83.0059 498.0477 83.0059C728.5177 83.0059 914.0577 267.5759 913.0877 498.0459C912.5977 627.4459 854.0077 742.1859 762.2077 817.8759L719.7277 773.4359C695.3077 748.0459 671.8777 758.7859 665.5277 790.5259L627.4377 974.1259C622.0677 1001.4659 638.1877 1018.0659 666.5077 1014.1559L853.5177 987.7959C887.2077 982.9059 897.9477 960.4459 874.0277 934.5659L818.3577 876.4659C925.7777 783.2059 996.0977 648.4359 996.0977 498.0459C996.0977 225.5859 770.5077 -0.0041 498.0477 -0.0041C226.0777 -0.0041 -0.0023 225.5859 -0.0023 498.0459ZM337.3977 698.2459C354.9777 698.2459 367.6777 689.4559 374.9977 666.9959L410.6477 562.9859H585.4477L621.0977 666.9959C628.4177 689.4559 640.6277 698.2459 658.6877 698.2459C680.1777 698.2459 694.8277 684.0859 694.8277 664.5459C694.8277 656.7359 692.8677 649.9059 689.4577 639.1559L552.2477 270.5059C542.9677 245.1159 524.4177 231.9359 497.5577 231.9359C471.1877 231.9359 453.1277 245.1159 443.3577 270.5059L306.6377 639.1559C302.7377 649.9059 301.2677 656.7359 301.2677 664.0659C301.2677 684.5659 315.4277 698.2459 337.3977 698.2459ZM430.1777 504.3959L495.1177 315.4259H500.4877L565.4277 504.3959Z"/>
</svg>