<?xml version="1.0" encoding="UTF-8" standalone="no"?>
<svg xmlns="http://www.w3.org/2000/svg"
     width="996.09375" height="1014.7269285584925"
     viewBox="0 0 996.09375 1014.7269285584925"
     fill="currentColor">
  <path d="M498.0477 83.0059C728.5177 83.0059 914.0577 267.5759 913.0877 498.0459C912.5977 578.1259 890.1377 652.3459 850.5877 715.3359L909.6677 773.9259C963.3777 694.3359 996.0977 600.0959 996.0977 498.0459C996.0977 225.5859 770.5077 -0.0041 498.0477 -0.0041C395.9977 -0.0041 300.7777 31.7359 221.1877 85.4459L280.7577 145.0159C343.7477 105.9559 417.9677 83.0059 498.0477 83.0059ZM919.4377 973.1459C934.0777 987.7959 958.0077 987.3059 972.6577 972.6559C986.8177 958.0059 987.3077 934.0859 972.6577 919.4359L76.6577 23.9259C62.0077 9.2759 38.0877 8.7859 22.9477 23.9259C8.7877 38.0859 8.7877 62.4959 22.9477 77.1459ZM-0.0023 498.0459C-0.0023 662.5959 83.9877 808.1059 208.4977 900.8759C229.9777 917.4759 256.8377 912.1059 269.0477 892.0859C281.2477 872.0659 274.8977 848.6359 254.8877 833.9859C150.8777 759.2759 83.4977 637.2059 83.0077 498.0459C82.5177 417.9659 104.9777 343.7459 144.0477 280.7659L85.4477 221.6759C31.7377 301.2659 -0.0023 395.9959 -0.0023 498.0459ZM433.5977 297.8559L483.3977 347.6559L495.1177 315.4259H500.4877L527.8277 392.0859L639.1577 503.4159L552.2477 270.5059C542.9677 245.1159 524.4177 231.9359 497.5577 231.9359C471.1877 231.9359 453.1277 245.1159 443.3577 270.5059ZM374.9977 666.9959L415.0377 551.7559L359.8677 496.5859L306.6377 639.1559C302.7377 649.4159 301.2677 657.2259 301.2677 664.5459C301.2677 684.5659 315.9177 698.2459 337.3977 698.2459C354.9777 698.2459 367.6777 689.4559 374.9977 666.9959ZM663.5777 800.2959L627.4377 974.1259C622.0677 1001.4659 638.1877 1018.0659 666.5077 1014.1559L850.5877 987.3059Z"/>
</svg>