<?xml version="1.0" encoding="UTF-8" standalone="no"?>
<svg xmlns="http://www.w3.org/2000/svg"
     width="557.6171875" height="1144.04296875"
     viewBox="0 0 557.6171875 1144.04296875"
     fill="currentColor">
  <path d="M127.4383 1144.0464H430.1783C508.2983 1144.0464 557.6183 1096.1964 557.6183 1022.4564V121.0964C557.6183 47.3664 508.2983 -0.0036 430.1783 -0.0036H127.4383C49.3183 -0.0036 -0.0017 47.3664 -0.0017 121.0964V1022.4564C-0.0017 1096.1964 49.3183 1144.0464 127.4383 1144.0464ZM309.5683 176.2664C291.9883 176.2664 277.8283 162.5964 277.8283 145.0164C277.8283 127.4364 291.9883 113.2764 309.5683 113.2764H416.9883C434.5683 113.2764 448.2383 127.4364 448.2383 145.0164C448.2383 162.5964 434.5683 176.2664 416.9883 176.2664ZM155.7583 363.7664C128.9083 363.7664 106.9383 342.2864 106.9383 314.4564C106.9383 288.0864 128.9083 265.6264 155.7583 265.6264C183.1083 265.6264 205.0783 288.0864 205.0783 314.4564C205.0783 342.2864 183.1083 363.7664 155.7583 363.7664ZM278.8083 363.7664C251.4683 363.7664 229.9783 342.2864 229.9783 314.4564C229.9783 288.0864 251.4683 265.6264 278.8083 265.6264C306.1483 265.6264 327.6383 288.0864 327.6383 314.4564C327.6383 342.2864 306.1483 363.7664 278.8083 363.7664ZM402.3483 363.7664C374.9983 363.7664 353.5183 342.2864 353.5183 314.4564C353.5183 288.0864 374.9983 265.6264 402.3483 265.6264C429.1983 265.6264 451.1683 288.0864 451.1683 314.4564C451.1683 342.2864 429.1983 363.7664 402.3483 363.7664ZM155.7583 504.3964C128.9083 504.3964 106.9383 482.9064 106.9383 455.5664C106.9383 429.1964 128.9083 406.7364 155.7583 406.7364C183.1083 406.7364 205.0783 429.1964 205.0783 455.5664C205.0783 482.9064 183.1083 504.3964 155.7583 504.3964ZM278.8083 504.3964C251.4683 504.3964 229.9783 482.9064 229.9783 455.5664C229.9783 429.1964 251.4683 406.7364 278.8083 406.7364C306.1483 406.7364 327.6383 429.1964 327.6383 455.5664C327.6383 482.9064 306.1483 504.3964 278.8083 504.3964ZM402.3483 504.3964C374.9983 504.3964 353.5183 482.9064 353.5183 455.5664C353.5183 429.1964 374.9983 406.7364 402.3483 406.7364C429.1983 406.7364 451.1683 429.1964 451.1683 455.5664C451.1683 482.9064 429.1983 504.3964 402.3483 504.3964ZM155.7583 645.0164C128.9083 645.0164 106.9383 624.0264 106.9383 596.1864C106.9383 569.3364 128.9083 547.3664 155.7583 547.3664C183.1083 547.3664 205.0783 569.3364 205.0783 596.1864C205.0783 624.0264 183.1083 645.0164 155.7583 645.0164ZM278.8083 645.0164C251.4683 645.0164 229.9783 623.0464 229.9783 596.1864C229.9783 568.8464 251.4683 547.3664 278.8083 547.3664C306.1483 547.3664 327.6383 568.8464 327.6383 596.1864C327.6383 623.0464 306.1483 645.0164 278.8083 645.0164ZM402.3483 645.0164C374.9983 645.0164 353.5183 623.0464 353.5183 596.1864C353.5183 568.8464 374.9983 547.3664 402.3483 547.3664C429.1983 547.3664 451.1683 568.8464 451.1683 596.1864C451.1683 623.0464 429.1983 645.0164 402.3483 645.0164ZM145.0183 979.4964C124.0283 979.4964 106.9383 962.4064 106.9383 941.4064V763.1864C106.9383 742.1864 124.0283 725.5864 145.0183 725.5864C166.0183 725.5864 182.6183 742.1864 182.6183 763.1864V941.4064C182.6183 962.4064 166.0183 979.4964 145.0183 979.4964ZM413.0883 979.4964C392.0883 979.4964 375.4883 962.4064 375.4883 941.4064V763.1864C375.4883 742.1864 392.0883 725.5864 413.0883 725.5864C434.0783 725.5864 451.1683 742.1864 451.1683 763.1864V941.4064C451.1683 962.4064 434.0783 979.4964 413.0883 979.4964ZM253.9083 833.4964C237.7883 833.4964 228.0283 823.2464 228.0283 807.1264V774.4164C228.0283 757.8164 237.7883 747.5564 253.9083 747.5564H303.2183C320.3083 747.5564 329.5883 757.8164 329.5883 774.4164V807.1264C329.5883 823.2464 320.3083 833.4964 303.2183 833.4964ZM253.9083 956.5464C237.7883 956.5464 228.0283 947.2664 228.0283 930.6664V897.9464C228.0283 881.3464 237.7883 871.5864 253.9083 871.5864H303.2183C320.3083 871.5864 329.5883 881.3464 329.5883 897.9464V930.6664C329.5883 947.2664 320.3083 956.5464 303.2183 956.5464Z"/>
</svg>