<?xml version="1.0" encoding="UTF-8" standalone="no"?>
<svg xmlns="http://www.w3.org/2000/svg"
     width="557.6171875" height="1144.04296875"
     viewBox="0 0 557.6171875 1144.04296875"
     fill="currentColor">
  <path d="M127.4383 1144.0464H430.1783C508.2983 1144.0464 557.6183 1096.1964 557.6183 1022.4564V121.0964C557.6183 47.3664 508.2983 -0.0036 430.1783 -0.0036H127.4383C49.3183 -0.0036 -0.0017 47.3664 -0.0017 121.0964V1022.4564C-0.0017 1096.1964 49.3183 1144.0464 127.4383 1144.0464ZM135.7383 1072.7564C96.6783 1072.7564 72.2683 1049.3164 72.2683 1012.2064V131.8364C72.2683 94.7264 96.6783 71.2864 135.7383 71.2864H421.8783C460.9383 71.2864 485.3483 94.7264 485.3483 131.8364V1012.2064C485.3483 1049.3164 460.9383 1072.7564 421.8783 1072.7564ZM308.5983 187.4964H412.5983C429.6883 187.4964 443.3583 174.3164 443.3583 157.2264C443.3583 139.6464 429.6883 126.4664 412.5983 126.4664H308.5983C291.5083 126.4664 277.8283 139.6464 277.8283 157.2264C277.8283 174.3164 291.5083 187.4964 308.5983 187.4964ZM159.6683 369.1364C186.0383 369.1364 207.0283 348.6364 207.0283 321.7764C207.0283 295.8964 186.0383 274.4164 159.6683 274.4164C133.2983 274.4164 112.3083 295.8964 112.3083 321.7764C112.3083 348.6364 133.2983 369.1364 159.6683 369.1364ZM278.8083 369.1364C305.1783 369.1364 326.1683 348.6364 326.1683 321.7764C326.1683 295.8964 305.1783 274.4164 278.8083 274.4164C252.4383 274.4164 231.4483 295.8964 231.4483 321.7764C231.4483 348.6364 252.4383 369.1364 278.8083 369.1364ZM398.4383 369.1364C424.8083 369.1364 445.7983 348.6364 445.7983 321.7764C445.7983 295.8964 424.8083 274.4164 398.4383 274.4164C372.0683 274.4164 351.0783 295.8964 351.0783 321.7764C351.0783 348.6364 372.0683 369.1364 398.4383 369.1364ZM159.6683 505.8564C186.0383 505.8564 207.0283 484.8664 207.0283 458.4964C207.0283 432.6164 186.0383 411.1364 159.6683 411.1364C133.2983 411.1364 112.3083 432.6164 112.3083 458.4964C112.3083 484.8664 133.2983 505.8564 159.6683 505.8564ZM278.8083 505.8564C305.1783 505.8564 326.1683 484.8664 326.1683 458.4964C326.1683 432.6164 305.1783 411.1364 278.8083 411.1364C252.4383 411.1364 231.4483 432.6164 231.4483 458.4964C231.4483 484.8664 252.4383 505.8564 278.8083 505.8564ZM398.4383 505.8564C424.8083 505.8564 445.7983 484.8664 445.7983 458.4964C445.7983 432.6164 424.8083 411.1364 398.4383 411.1364C372.0683 411.1364 351.0783 432.6164 351.0783 458.4964C351.0783 484.8664 372.0683 505.8564 398.4383 505.8564ZM159.6683 642.0864C186.0383 642.0864 207.0283 621.5864 207.0283 594.7264C207.0283 568.8464 186.0383 547.3664 159.6683 547.3664C133.2983 547.3664 112.3083 568.8464 112.3083 594.7264C112.3083 621.5864 133.2983 642.0864 159.6683 642.0864ZM278.8083 642.0864C305.1783 642.0864 326.1683 620.6064 326.1683 594.7264C326.1683 568.3564 305.1783 547.3664 278.8083 547.3664C252.4383 547.3664 231.4483 568.3564 231.4483 594.7264C231.4483 620.6064 252.4383 642.0864 278.8083 642.0864ZM398.4383 642.0864C424.8083 642.0864 445.7983 620.6064 445.7983 594.7264C445.7983 568.3564 424.8083 547.3664 398.4383 547.3664C372.0683 547.3664 351.0783 568.3564 351.0783 594.7264C351.0783 620.6064 372.0683 642.0864 398.4383 642.0864ZM148.9283 966.3064C169.4383 966.3064 185.5483 949.7064 185.5483 929.6864V756.8364C185.5483 736.3264 169.4383 720.2164 148.9283 720.2164C128.9083 720.2164 112.3083 736.3264 112.3083 756.8364V929.6864C112.3083 949.7064 128.9083 966.3064 148.9283 966.3064ZM409.1783 966.3064C429.1983 966.3064 445.7983 949.7064 445.7983 929.6864V756.8364C445.7983 736.3264 429.1983 720.2164 409.1783 720.2164C388.6683 720.2164 372.5583 736.3264 372.5583 756.8364V929.6864C372.5583 949.7064 388.6683 966.3064 409.1783 966.3064ZM254.8783 824.7064H302.2483C318.8483 824.7064 328.1283 814.9364 328.1283 799.3164V767.5764C328.1283 751.4664 318.8483 741.6964 302.2483 741.6964H254.8783C239.2583 741.6964 229.4883 751.4664 229.4883 767.5764V799.3164C229.4883 814.9364 239.2583 824.7064 254.8783 824.7064ZM254.8783 944.3364H302.2483C318.8483 944.3364 328.1283 935.0564 328.1283 918.9464V887.2064C328.1283 871.0964 318.8483 861.8164 302.2483 861.8164H254.8783C239.2583 861.8164 229.4883 871.0964 229.4883 887.2064V918.9464C229.4883 935.0564 239.2583 944.3364 254.8783 944.3364Z"/>
</svg>