<?xml version="1.0" encoding="UTF-8" standalone="no"?>
<svg xmlns="http://www.w3.org/2000/svg"
     width="996.09375" height="996.09375"
     viewBox="0 0 996.09375 996.09375"
     fill="currentColor">
  <path d="M498.0477 996.0959C770.5077 996.0959 996.0977 770.0159 996.0977 498.0459C996.0977 225.5859 770.0177 -0.0041 497.5577 -0.0041C225.5877 -0.0041 -0.0023 225.5859 -0.0023 498.0459C-0.0023 770.0159 226.0777 996.0959 498.0477 996.0959ZM498.0477 913.0859C267.5777 913.0859 83.4977 728.5159 83.4977 498.0459C83.4977 267.5759 267.0877 83.0059 497.5577 83.0059C728.0277 83.0059 913.0877 267.5759 913.0877 498.0459C913.0877 728.5159 728.5177 913.0859 498.0477 913.0859ZM380.8577 716.7959H523.4377C624.5077 716.7959 689.4577 667.9659 689.4577 591.3059C689.4577 531.7359 649.4177 489.7459 584.4777 481.9359V479.0059C632.8077 467.2859 662.5977 429.1959 662.5977 380.3759C662.5977 313.4759 608.3977 270.0159 524.4177 270.0159H380.8577C353.5177 270.0159 337.3977 286.1359 337.3977 313.9659V673.3359C337.3977 700.1959 353.5177 716.7959 380.8577 716.7959ZM413.0877 459.9559V327.6359H508.7877C558.1077 327.6359 587.8877 352.5359 587.8877 392.5759C587.8877 435.5459 552.2477 459.9559 486.8177 459.9559ZM413.0877 659.1759V513.6759H517.0877C576.6577 513.6759 611.3277 541.0159 611.3277 587.8859C611.3277 636.7159 573.7277 659.1759 492.6777 659.1759Z"/>
</svg>