<?xml version="1.0" encoding="UTF-8" standalone="no"?>
<svg xmlns="http://www.w3.org/2000/svg"
     width="996.09375" height="996.09375"
     viewBox="0 0 996.09375 996.09375"
     fill="currentColor">
  <path d="M498.0477 996.0959C770.5077 996.0959 996.0977 770.0159 996.0977 498.0459C996.0977 225.5859 770.0177 -0.0041 497.5577 -0.0041C225.5877 -0.0041 -0.0023 225.5859 -0.0023 498.0459C-0.0023 770.0159 226.0777 996.0959 498.0477 996.0959ZM377.9277 723.6359C349.6077 723.6359 332.5177 706.5459 332.5177 678.7059V308.5959C332.5177 279.7859 349.6077 263.1859 377.9277 263.1859H525.8777C612.3077 263.1859 668.4577 307.6159 668.4577 376.9559C668.4577 427.2459 637.6977 466.3059 587.8877 478.5159V481.4459C654.7877 489.7459 696.2877 532.7159 696.2877 594.2359C696.2877 673.3359 628.9077 723.6359 524.8977 723.6359ZM411.1377 458.9859H486.8177C554.1977 458.9859 590.8177 433.5959 590.8177 389.6459C590.8177 348.1459 560.5477 322.7559 509.7677 322.7559H411.1377ZM411.1377 664.0659H492.6777C576.6577 664.0659 615.2377 641.1159 615.2377 590.8159C615.2377 542.4759 579.5877 514.6459 518.0677 514.6459H411.1377Z"/>
</svg>