<?xml version="1.0" encoding="UTF-8" standalone="no"?>
<svg xmlns="http://www.w3.org/2000/svg"
     width="1344.23828125" height="767.08984375"
     viewBox="0 0 1344.23828125 767.08984375"
     fill="currentColor">
  <path d="M603.0247 767.0916C641.1147 767.0916 673.3447 737.7916 673.3447 683.5916V402.3416C678.7147 422.8516 693.8447 440.4316 720.2147 456.0516L1217.7747 749.0216C1237.3047 760.7416 1253.9047 767.0916 1273.9247 767.0916C1312.0147 767.0916 1344.2347 737.7916 1344.2347 683.5916V83.4916C1344.2347 29.3016 1312.0147 0.0016 1273.9247 0.0016C1253.9047 0.0016 1237.7947 6.3516 1217.7747 18.0616L720.2147 311.0316C693.3547 326.6616 678.7147 344.2416 673.3447 364.7416V83.4916C673.3447 29.3016 641.1147 0.0016 603.0247 0.0016C583.0047 0.0016 566.8947 6.3516 546.8747 18.0616L49.3147 311.0316C14.6447 331.5416 0.0047 355.4716 0.0047 383.3016C0.0047 411.6216 14.6447 435.5516 49.3147 456.0516L546.8747 749.0216C566.4047 760.7416 583.0047 767.0916 603.0247 767.0916Z"/>
</svg>