<?xml version="1.0" encoding="UTF-8" standalone="no"?>
<svg xmlns="http://www.w3.org/2000/svg"
     width="996.09375" height="996.09375"
     viewBox="0 0 996.09375 996.09375"
     fill="currentColor">
  <path d="M498.0477 996.0959C770.5077 996.0959 996.0977 770.0159 996.0977 498.0459C996.0977 225.5859 770.0177 -0.0041 497.5577 -0.0041C225.5877 -0.0041 -0.0023 225.5859 -0.0023 498.0459C-0.0023 770.0159 226.0777 996.0959 498.0477 996.0959ZM498.0477 913.0859C267.5777 913.0859 83.4977 728.5159 83.4977 498.0459C83.4977 267.5759 267.0877 83.0059 497.5577 83.0059C728.0277 83.0059 913.0877 267.5759 913.0877 498.0459C913.0877 728.5159 728.5177 913.0859 498.0477 913.0859ZM421.3877 794.9259H573.7277C659.6677 794.9259 702.1477 751.4659 701.6577 664.0659C700.1977 563.9659 699.7077 491.2059 697.2677 437.4959C691.8977 311.0359 662.5977 255.3759 578.1277 237.7959C572.7577 199.2159 541.0177 171.8759 497.5577 171.8759C454.0977 171.8759 422.3677 199.2159 416.9877 237.7959C332.5177 255.3759 303.7077 311.0359 297.8477 437.4959C295.4077 491.2059 294.9177 563.9659 293.4577 664.0659C292.9677 751.4659 335.4477 794.9259 421.3877 794.9259ZM497.5577 208.4959C516.1177 208.4959 531.7377 217.7759 538.5777 232.4259C525.8777 231.4459 512.2077 230.9559 497.5577 230.9559C482.9077 230.9559 469.2377 231.4459 456.5477 232.4259C463.3777 217.7759 479.0077 208.4959 497.5577 208.4959ZM379.8877 533.6959C379.8877 512.6959 393.5577 498.5359 415.0377 498.5359H580.5677C602.0477 498.5359 615.2377 512.6959 615.2377 533.6959V565.4259H379.8877ZM415.0377 696.2859C393.5577 696.2859 379.8877 682.6159 379.8877 661.6259V596.1959H615.2377V661.6259C615.2377 682.6159 602.0477 696.2859 580.5677 696.2859Z"/>
</svg>