<?xml version="1.0" encoding="UTF-8" standalone="no"?>
<svg xmlns="http://www.w3.org/2000/svg"
     width="1066.89453125" height="795.41015625"
     viewBox="0 0 1066.89453125 795.41015625"
     fill="currentColor">
  <path d="M890.6241 795.41H1001.4641C1044.4341 795.41 1066.8941 772.95 1066.8941 729.98V64.94C1066.8941 20.51 1044.4341 0 1001.4641 0H890.6241C847.6541 0 825.6841 22.46 825.6841 64.94V729.98C825.6841 772.95 847.6541 795.41 890.6241 795.41ZM603.0241 780.76C641.1141 780.76 673.3441 751.95 673.3441 697.27V97.66C673.3441 42.97 641.1141 13.67 603.0241 13.67C583.0041 13.67 566.8941 20.02 546.8741 31.74L49.3141 324.71C14.6441 345.21 0.0041 369.14 0.0041 397.46C0.0041 425.29 14.6441 449.71 49.3141 470.21L546.8741 762.7C566.4041 774.41 583.0041 780.76 603.0241 780.76Z"/>
</svg>