<?xml version="1.0" encoding="UTF-8" standalone="no"?>
<svg xmlns="http://www.w3.org/2000/svg"
     width="803.2603230457587" height="1224.609375"
     viewBox="0 0 803.2603230457587 1224.609375"
     fill="currentColor">
  <path d="M252.4571 1224.6061H550.7971C720.7171 1224.6061 804.7071 1138.6761 803.2371 966.7961C801.2871 770.5061 800.3071 627.9261 795.4271 520.9961C784.1971 272.9461 726.5771 163.0861 560.0771 127.9261C549.8271 53.2261 486.8371 -0.0039 401.8771 -0.0039C316.4271 -0.0039 253.9271 53.2261 243.6671 127.9261C76.6771 163.0861 19.0571 272.4561 7.8271 520.9961C2.9471 627.9261 1.9671 770.5061 0.0171 966.7961C-1.4429 1138.6761 82.5371 1224.6061 252.4571 1224.6061ZM401.8771 114.2561C371.5971 114.2561 343.7671 115.2361 317.3971 117.1861C330.5871 87.8861 361.8371 68.8461 401.8771 68.8461C441.9171 68.8461 473.1671 87.8861 485.8571 117.1861C459.9771 115.2361 431.6571 114.2561 401.8771 114.2561ZM169.4571 710.4461C169.4571 668.9461 196.3071 641.6061 238.2971 641.6061H565.4471C606.9571 641.6061 633.8071 668.9461 633.8071 710.4461V771.4861H169.4571ZM169.4571 829.5861H633.8071V962.4061C633.8071 1003.4161 606.9571 1030.7661 565.4471 1030.7661H238.2971C196.3071 1030.7661 169.4571 1003.4161 169.4571 962.4061Z"/>
</svg>