<?xml version="1.0" encoding="UTF-8" standalone="no"?>
<svg xmlns="http://www.w3.org/2000/svg"
     width="754.39453125" height="806.640625"
     viewBox="0 0 754.39453125 806.640625"
     fill="currentColor">
  <path d="M41.5083 806.6411C64.9383 806.6411 83.4983 789.0611 83.4983 766.1111V422.3611C88.8683 442.3811 104.0083 460.4511 130.3683 476.0711L627.9283 769.0411C647.9483 780.7611 664.0583 787.1111 684.0783 787.1111C722.6583 787.1111 754.3983 757.8111 754.3983 703.1211V103.5111C754.3983 48.8311 722.6583 19.5311 684.0783 19.5311C664.0583 19.5311 647.9483 25.8811 627.9283 37.6011L130.3683 330.5711C104.0083 346.1911 88.8683 364.2611 83.4983 384.2811V41.0111C83.4983 18.0711 64.9383 0.0011 41.5083 0.0011C18.5583 0.0011 -0.0017 18.0711 -0.0017 41.0111V766.1111C-0.0017 789.0611 18.5583 806.6411 41.5083 806.6411ZM663.0883 696.7811C659.6683 696.7811 655.7583 695.3111 650.8783 692.3811L187.0083 416.9911C180.1783 413.0811 176.2683 409.6711 176.2683 403.3211C176.2683 396.4811 179.6883 393.5511 187.0083 389.6511L650.8783 114.2611C655.7583 111.3311 659.6683 109.8611 663.0883 109.8611C669.9183 109.8611 676.2683 114.7411 676.2683 124.5111V682.1311C676.2683 691.8911 669.9183 696.7811 663.0883 696.7811Z"/>
</svg>