<?xml version="1.0" encoding="UTF-8" standalone="no"?>
<svg xmlns="http://www.w3.org/2000/svg"
     width="996.09375" height="996.09375"
     viewBox="0 0 996.09375 996.09375"
     fill="currentColor">
  <path d="M498.0477 996.0959C770.5077 996.0959 996.0977 770.0159 996.0977 498.0459C996.0977 225.5859 770.0177 -0.0041 497.5577 -0.0041C225.5877 -0.0041 -0.0023 225.5859 -0.0023 498.0459C-0.0023 770.0159 226.0777 996.0959 498.0477 996.0959ZM139.6477 498.5359C139.6477 485.3559 146.9777 473.6359 163.5777 463.8659L403.3177 322.7559C413.0877 316.8959 420.4077 314.4559 430.1777 314.4559C448.7277 314.4559 463.8677 327.6359 463.8677 354.0059V483.3959C467.7777 476.0759 474.1177 469.7259 483.8877 463.8659L723.6377 322.7559C733.3977 316.8959 741.2077 314.4559 750.9777 314.4559C769.0477 314.4559 784.6677 327.6359 784.6677 354.0059V643.5559C784.6677 669.9259 769.0477 683.1059 750.9777 683.1059C741.2077 683.1059 733.3977 680.6659 723.6377 674.8059L483.8877 533.6959C474.1177 527.8359 467.7777 521.4859 463.8677 514.1559V643.5559C463.8677 669.9259 448.7277 683.1059 430.1777 683.1059C420.4077 683.1059 413.0877 680.6659 403.3177 674.8059L163.5777 533.6959C146.9777 523.9259 139.6477 512.2059 139.6477 498.5359Z"/>
</svg>