<?xml version="1.0" encoding="UTF-8" standalone="no"?>
<svg xmlns="http://www.w3.org/2000/svg"
     width="1344.23828125" height="767.08984375"
     viewBox="0 0 1344.23828125 767.08984375"
     fill="currentColor">
  <path d="M603.0247 767.0916C641.1147 767.0916 673.3447 737.7916 673.3447 683.5916V402.3416C678.7147 422.8516 693.8447 440.4316 720.2147 456.0516L1217.7747 749.0216C1237.3047 760.7416 1253.9047 767.0916 1273.9247 767.0916C1312.0147 767.0916 1344.2347 737.7916 1344.2347 683.5916V83.4916C1344.2347 29.3016 1312.0147 0.0016 1273.9247 0.0016C1253.9047 0.0016 1237.7947 6.3516 1217.7747 18.0616L720.2147 311.0316C693.3547 326.6616 678.7147 344.2416 673.3447 364.7416V83.4916C673.3447 29.3016 641.1147 0.0016 603.0247 0.0016C583.0047 0.0016 566.8947 6.3516 546.8747 18.0616L49.3147 311.0316C14.6447 331.5416 0.0047 355.4716 0.0047 383.3016C0.0047 411.6216 14.6447 435.5516 49.3147 456.0516L546.8747 749.0216C566.4047 760.7416 583.0047 767.0916 603.0247 767.0916ZM581.5447 676.7616C578.1247 676.7616 574.2147 675.7816 569.8247 672.8516L105.4647 397.4616C98.6347 393.5516 94.7247 390.1416 94.7247 383.3016C94.7247 376.9516 98.6347 373.5316 105.4647 369.6316L569.8247 94.2416C574.7047 91.8016 578.1247 90.3316 581.5447 90.3316C588.8647 90.3316 594.7247 94.7216 594.7247 104.9816V662.1116C594.7247 672.3616 588.8647 676.7616 581.5447 676.7616ZM1252.4447 676.7616C1249.5147 676.7616 1245.6047 675.7816 1240.7247 672.8516L776.3647 397.4616C769.5347 393.5516 766.1147 390.1416 766.1147 383.3016C766.1147 376.9516 769.5347 373.5316 776.3647 369.6316L1240.7247 94.2416C1245.6047 91.8016 1249.5147 90.3316 1252.4447 90.3316C1259.7647 90.3316 1265.6247 94.7216 1265.6247 104.9816V662.1116C1265.6247 672.3616 1259.7647 676.7616 1252.4447 676.7616Z"/>
</svg>