<?xml version="1.0" encoding="UTF-8" standalone="no"?>
<svg xmlns="http://www.w3.org/2000/svg"
     width="898.92578125" height="898.92578125"
     viewBox="0 0 898.92578125 898.92578125"
     fill="currentColor">
  <path d="M153.3183 898.9295H745.6083C848.1483 898.9295 898.9283 848.1495 898.9283 747.5595V151.3695C898.9283 50.7795 848.1483 -0.0005 745.6083 -0.0005H153.3183C51.2683 -0.0005 -0.0017 50.2895 -0.0017 151.3695V747.5595C-0.0017 848.6295 51.2683 898.9295 153.3183 898.9295ZM458.0083 746.0895C444.3383 746.0895 433.5983 735.8395 433.5983 721.1895V687.4995H357.9083C334.4683 687.4995 318.3583 671.3895 318.3583 647.9495V258.7895C318.3583 234.8595 334.9583 218.7495 357.9083 218.7495H433.5983V180.6595C433.5983 166.4995 444.3383 156.2495 458.0083 156.2495C472.1683 156.2495 482.4183 166.4995 482.4183 180.6595V218.7495H489.2583C566.8983 218.7495 619.6283 269.0395 619.6283 338.8695C619.6283 381.8395 593.2583 421.3895 556.1483 439.4495C608.3983 455.0795 642.0883 497.5595 642.0883 554.6895C642.0883 636.2295 583.0083 687.4995 489.2583 687.4995H482.4183V721.1895C482.4183 735.8395 472.1683 746.0895 458.0083 746.0895ZM383.2983 416.9895H433.5983V277.3395H383.2983ZM482.4183 414.0595C530.2783 407.7195 554.1983 383.2995 554.1983 343.7495C554.1983 305.1795 529.2983 282.7195 482.4183 278.8095ZM383.2983 628.4195L433.5983 627.9295V475.5895H383.2983ZM482.4183 627.4395C545.8983 624.9995 577.6383 599.1195 577.6383 551.7595C577.6383 505.3695 545.8983 479.4895 482.4183 476.0695Z"/>
</svg>