<?xml version="1.0" encoding="UTF-8" standalone="no"?>
<svg xmlns="http://www.w3.org/2000/svg"
     width="996.09375" height="996.09375"
     viewBox="0 0 996.09375 996.09375"
     fill="currentColor">
  <path d="M498.0477 996.0959C770.5077 996.0959 996.0977 770.0159 996.0977 498.0459C996.0977 225.5859 770.0177 -0.0041 497.5577 -0.0041C225.5877 -0.0041 -0.0023 225.5859 -0.0023 498.0459C-0.0023 770.0159 226.0777 996.0959 498.0477 996.0959ZM506.3477 795.4059C492.6777 795.4059 481.9377 785.1559 481.9377 770.5059V736.8159H406.2477C382.8077 736.8159 366.6977 720.7059 366.6977 697.2659V308.1059C366.6977 284.1759 383.2977 268.0659 406.2477 268.0659H481.9377V229.9759C481.9377 215.8159 492.6777 205.5659 506.3477 205.5659C520.5077 205.5659 530.7577 215.8159 530.7577 229.9759V268.0659H537.5977C615.2377 268.0659 667.4777 318.3559 667.4777 388.1859C667.4777 431.1559 641.1177 470.7059 604.4877 488.7659C656.7377 504.3959 690.4277 546.8759 690.4277 604.0059C690.4277 685.5459 631.3477 736.8159 537.5977 736.8159H530.7577V770.5059C530.7577 785.1559 520.5077 795.4059 506.3477 795.4059ZM431.1477 466.3059H481.9377V326.6559H431.6377ZM530.7577 463.3759C578.6177 457.0359 602.5377 432.6159 602.5377 393.0659C602.5377 354.4959 577.6377 332.0359 530.7577 328.1259ZM431.6377 677.7359L481.9377 677.2459V524.9059H431.6377ZM530.7577 676.7559C594.2377 674.3159 625.9777 648.4359 625.9777 601.0759C625.9777 554.6859 594.2377 528.8059 530.7577 525.3859Z"/>
</svg>