<?xml version="1.0" encoding="UTF-8" standalone="no"?>
<svg xmlns="http://www.w3.org/2000/svg"
     width="939.453125" height="1335.44921875"
     viewBox="0 0 939.453125 1335.44921875"
     fill="currentColor">
  <path d="M617.6783 1328.6095C636.7183 1328.6095 652.8283 1312.4995 652.8283 1293.4595C652.8283 1186.5195 749.9983 1161.6195 749.9983 1053.2195C749.9983 949.7095 668.4583 924.3195 657.7183 842.7695H685.0583C709.9583 842.7695 720.6983 821.7795 715.3283 802.2495L697.7583 736.8195C837.8883 692.8695 939.4483 525.3895 939.4483 324.2195C939.4483 139.1595 810.0583 -0.0005 623.5383 -0.0005C437.0083 -0.0005 308.5983 139.1595 308.5983 324.2195C308.5983 525.3895 409.6683 692.3795 549.3183 736.8195L532.2283 802.2495C527.3483 821.7795 537.5983 842.7695 562.4983 842.7695H587.8883C596.1883 958.4995 681.1483 980.9595 681.1483 1053.2195C681.1483 1130.8595 583.4983 1142.5795 583.4983 1293.4595C583.4983 1312.4995 598.6283 1328.6095 617.6783 1328.6095ZM248.0483 1335.4495C265.6283 1335.4495 279.7883 1321.2895 279.7883 1304.6895C279.7883 1211.4295 361.8183 1198.7295 361.8183 1105.9595C361.8183 1015.6295 294.4383 1004.3895 284.1783 935.5495H308.1083C331.0583 935.5495 339.8483 916.9895 335.4483 899.4095L321.2883 845.6995C368.1683 831.5395 409.6683 800.7795 442.8683 757.8095C320.7983 675.2895 242.1883 509.7695 242.1883 324.2195C242.1883 291.9895 245.6083 261.7195 251.4683 231.9295C104.0083 237.3095 -0.0017 352.0495 -0.0017 503.9095C-0.0017 661.6195 76.1683 795.8995 185.5483 839.3595L169.9183 899.4095C165.0383 916.9895 174.8083 935.5495 197.2683 935.5495H222.1683C229.4883 1035.1595 300.7783 1043.9495 300.7783 1105.9595C300.7783 1170.8995 218.2583 1171.8795 218.2583 1304.6895C218.2583 1321.2895 230.9583 1335.4495 248.0483 1335.4495Z"/>
</svg>