<?xml version="1.0" encoding="UTF-8" standalone="no"?>
<svg xmlns="http://www.w3.org/2000/svg"
     width="630.37109375" height="1328.61328125"
     viewBox="0 0 630.37109375 1328.61328125"
     fill="currentColor">
  <path d="M309.0783 1328.6095C328.1283 1328.6095 343.7483 1312.4995 343.7483 1293.4595C343.7483 1186.5195 440.9183 1161.6195 440.9183 1053.2195C440.9183 949.7095 359.8683 924.3195 349.1183 842.7695H376.4683C401.3683 842.7695 412.1083 821.7795 406.7383 802.2495L389.1583 736.8195C529.2983 692.8695 630.3683 525.3895 630.3683 324.2195C630.3683 139.1595 501.4683 -0.0005 314.9383 -0.0005C128.4183 -0.0005 -0.0017 139.1595 -0.0017 324.2195C-0.0017 525.3895 101.0783 692.3795 240.7183 736.8195L223.6283 802.2495C218.7483 821.7795 229.0083 842.7695 253.9083 842.7695H279.2983C287.5983 958.4995 372.0683 980.9595 372.0683 1053.2195C372.0683 1130.8595 274.4183 1142.5795 274.4183 1293.4595C274.4183 1312.4995 290.0383 1328.6095 309.0783 1328.6095Z"/>
</svg>