<?xml version="1.0" encoding="UTF-8" standalone="no"?>
<svg xmlns="http://www.w3.org/2000/svg"
     width="1013.7251969504788" height="1013.7816919319248"
     viewBox="0 0 1013.7251969504788 1013.7816919319248"
     fill="currentColor">
  <path d="M75.6229 938.1603C179.1329 1041.1903 325.6229 1040.2103 438.9029 927.4203L587.8329 777.5203L777.7729 588.0603L927.1829 438.6503C1040.4629 325.8603 1040.9529 179.3703 937.9229 75.8603C834.4129 -27.1697 687.9229 -26.6797 575.1329 86.1103L425.7229 236.0103L236.2629 425.9503L86.3629 574.8803C-26.4271 688.1603 -27.4071 834.6403 75.6229 938.1603ZM778.2629 417.1603L596.1329 235.5203C585.3829 224.7803 574.6429 215.9903 563.9029 209.1603L630.3129 142.7503C708.4329 64.1403 811.4629 53.3903 886.1729 127.1203C961.3629 201.3403 949.6429 305.3503 871.0329 383.4703L804.6229 449.8803C797.7929 439.1403 789.0029 428.3903 778.2629 417.1603ZM551.2029 294.6103L719.1729 462.5703C747.0129 490.4103 744.0829 510.9103 714.7829 539.7203L539.4929 715.0203C510.6829 744.3103 490.1729 747.2403 462.3429 719.4103L294.3729 551.4403C266.5429 523.6103 269.4729 502.6103 298.7629 473.8003L474.0629 299.0003C502.8629 269.7003 523.3729 266.7703 551.2029 294.6103ZM506.2829 452.3203C530.2129 452.3203 547.7929 433.7703 547.7929 411.3003C548.7629 388.8403 529.7229 369.8003 506.7729 369.8003C483.8229 369.8003 465.7629 388.8403 465.7629 412.2803C465.7629 433.2803 484.8029 452.3203 506.2829 452.3203ZM412.5329 548.0203C434.9929 548.0203 453.0629 528.4903 453.0629 507.5003C453.0629 484.0603 434.9929 465.5003 412.0429 465.5003C388.6129 465.5003 370.5429 484.0603 370.5429 507.0103C370.5429 529.4703 388.6129 548.0203 412.5329 548.0203ZM601.5029 548.0203C624.4529 548.0203 643.4929 528.9803 643.0029 506.5203C643.0029 484.0603 624.9329 465.5003 601.0129 465.5003C579.5229 465.5003 560.4829 484.5503 560.4829 505.5403C560.4829 528.9803 579.0429 548.0203 601.5029 548.0203ZM506.7729 643.2403C529.7229 643.2403 547.7929 624.6803 547.7929 601.2503C547.7929 580.2503 529.7229 560.7203 507.2629 560.7203C483.3329 560.7203 465.2729 579.2703 465.2729 601.7303C465.2729 624.6803 483.3329 643.2403 506.7729 643.2403ZM127.3829 886.4003C52.1829 812.1803 63.9029 708.6703 142.5129 630.0503L208.9229 563.6503C215.7629 574.8803 224.5429 585.6203 235.2929 596.3603L417.4229 778.4903C428.1629 789.2303 438.9029 798.0203 449.6429 804.8603L383.7229 871.2703C305.1129 949.3903 202.0829 960.6203 127.3829 886.4003Z"/>
</svg>