<?xml version="1.0" encoding="UTF-8" standalone="no"?>
<svg xmlns="http://www.w3.org/2000/svg"
     width="996.09375" height="996.09375"
     viewBox="0 0 996.09375 996.09375"
     fill="currentColor">
  <path d="M498.0477 996.0959C770.5077 996.0959 996.0977 770.0159 996.0977 498.0459C996.0977 225.5859 770.0177 -0.0041 497.5577 -0.0041C225.5877 -0.0041 -0.0023 225.5859 -0.0023 498.0459C-0.0023 770.0159 226.0777 996.0959 498.0477 996.0959ZM498.0477 913.0859C267.5777 913.0859 83.4977 728.5159 83.4977 498.0459C83.4977 267.5759 267.0877 83.0059 497.5577 83.0059C728.0277 83.0059 913.0877 267.5759 913.0877 498.0459C913.0877 728.5159 728.5177 913.0859 498.0477 913.0859ZM496.5777 606.4459C556.1477 606.4459 604.9777 557.6159 604.9777 498.0459C604.9777 482.9059 602.0477 468.2659 596.1877 455.0759L749.5077 301.7559C765.1377 286.6259 765.1377 261.7159 749.5077 246.0959C734.3777 230.9559 709.4777 230.9559 694.3377 246.0959L541.5077 399.4159C527.8277 393.0659 512.6977 389.6459 496.5777 389.6459C437.0077 389.6459 388.1877 437.9859 388.1877 498.0459C388.1877 513.6759 391.5977 529.2959 397.9477 542.4759L347.1677 593.2659C332.0277 608.3959 332.0277 633.7859 347.1677 648.9259C362.3077 664.0659 387.2077 664.0659 402.8277 648.9259L454.0977 597.6559C466.7977 603.0259 481.4477 606.4459 496.5777 606.4459ZM496.5777 544.9259C470.7077 544.9259 449.7077 523.9259 449.7077 498.0459C449.7077 471.6759 470.7077 451.1759 496.5777 451.1759C522.4577 451.1759 543.4577 471.6759 543.4577 498.0459C543.4577 523.9259 522.4577 544.9259 496.5777 544.9259Z"/>
</svg>