<?xml version="1.0" encoding="UTF-8" standalone="no"?>
<svg xmlns="http://www.w3.org/2000/svg"
     width="996.09375" height="996.09375"
     viewBox="0 0 996.09375 996.09375"
     fill="currentColor">
  <path d="M498.0477 996.0959C705.0777 996.0959 885.7377 865.2359 959.4777 683.1059C912.5977 674.8059 866.6977 659.1759 823.7277 638.6759L812.4977 659.1759C807.1277 670.8959 791.9877 674.3159 781.2477 668.4559C770.5077 662.1059 766.1177 647.9459 772.9477 636.7159L783.6877 617.1859C756.8377 601.0759 731.4477 583.4959 707.5177 562.9859L691.8977 578.6159C683.1077 587.8859 668.9477 587.4059 660.1577 578.6159C650.3877 569.8259 649.8977 555.1759 659.1777 546.8759L674.8077 530.7659C652.8277 508.2959 633.2977 482.9059 615.2377 455.0759L592.7777 467.7759C581.5477 475.0959 567.3877 469.7259 562.4977 459.4759C556.1477 448.2459 559.0777 434.0859 570.3077 428.2259L592.2877 415.5259C576.6577 385.7459 564.4577 354.9759 555.6677 323.7259L528.8077 330.0759C516.1177 333.4959 503.9077 326.6559 501.9577 313.9659C498.0477 301.7559 503.9077 289.0659 517.0877 285.6459L544.9177 278.8059C539.0577 249.9959 536.1377 220.2159 535.6477 190.9159L513.6677 189.9459C500.4877 189.9459 490.7277 180.1759 491.6977 167.4759C491.6977 154.2959 501.4677 144.0459 514.6477 143.5559L536.6177 144.5359C541.0177 96.6759 549.8077 49.3159 566.8977 4.8859C543.9477 1.9559 520.9977 -0.0041 497.5577 -0.0041C290.5277 -0.0041 111.3277 130.3759 36.6177 312.0159C83.0077 320.7959 128.4177 334.4759 170.8977 355.9559L181.6377 336.9159C187.4977 325.1959 201.6577 322.2659 213.3777 329.1059C224.6077 334.4759 228.0277 348.1459 221.6777 359.3759L211.4277 377.9259C236.3277 393.0659 260.2577 409.6659 282.7177 429.1959L302.2477 409.1759C311.5277 399.9059 325.6877 400.8759 334.9577 410.6459C343.2577 419.4359 344.7277 432.6159 334.9577 442.3859L315.9177 461.4259C338.8677 485.3559 359.8677 510.7459 377.9277 539.0659L400.3877 526.8559C411.6177 520.0159 425.2977 524.9059 431.6377 535.6459C437.9877 546.3859 435.0577 560.5459 422.8477 566.8959L400.8777 579.1059C416.0177 607.9059 427.7377 637.6959 437.0077 667.4759L458.0077 662.1059C471.1877 658.6959 482.9077 666.0159 486.3277 678.7059C489.7477 690.9159 482.4177 703.6159 470.2177 707.0359L448.2377 712.8859C454.0977 743.6559 457.0277 774.4159 457.5177 805.1759L480.9577 806.1559C493.6477 806.6359 503.9077 816.8959 503.4177 829.1059C503.4177 841.7959 493.1677 852.5359 479.9777 852.0459L456.0577 851.0759C452.6377 898.9259 442.8677 945.7959 426.2677 990.7259C449.2177 994.1359 473.6377 996.0959 498.0477 996.0959ZM996.0977 498.0459C996.0977 266.6059 832.5177 68.8459 616.2077 14.6459C601.5577 56.1559 591.3077 101.0759 588.3777 145.5059L610.8377 146.4859C623.5377 146.9759 633.7877 157.7159 633.2977 170.4059C633.2977 183.5959 623.5377 192.8759 610.3477 192.3859L587.8877 191.4059C588.3777 215.8159 590.8177 240.7259 595.7077 265.1359L610.8377 261.7159C623.5377 258.2959 634.7677 265.6259 638.1877 278.3159C641.1177 290.5259 635.2577 302.7359 622.5577 306.1559L606.9377 309.5659C615.2377 336.4259 625.4877 362.7959 638.6677 388.6759L654.7877 379.8859C666.0177 373.0459 679.6877 377.9259 685.5477 388.6759C691.8977 400.8759 688.4777 413.5759 677.2477 419.9259L661.1377 428.7059C676.7577 452.1459 693.3577 473.6359 711.4277 493.1659L727.0477 477.5359C736.3277 468.2659 750.9777 468.7459 759.7677 477.0459C769.0477 485.8359 769.5277 500.4859 760.2577 510.7459L745.1177 525.8759C765.1377 543.4559 786.1377 559.0859 809.0777 572.2659L819.3377 552.2459C824.7077 541.0159 838.8677 537.1059 850.0977 542.9659C861.3277 549.8059 865.7277 563.4759 859.3777 575.1959L849.1177 594.7259C889.1577 614.2559 932.1277 627.4459 976.5577 634.2759C989.2577 590.8159 996.0977 545.4059 996.0977 498.0459ZM-0.0023 498.0459C-0.0023 728.5159 161.6177 925.7859 376.4677 980.4659C391.5977 939.4559 401.3677 895.0159 404.2977 850.5859L383.7877 849.6059C371.0977 849.1259 360.8377 838.8659 360.8377 826.1759C361.3277 813.4759 371.5777 803.2259 384.7677 803.7059L405.2777 804.6859C404.7877 778.3159 401.8577 752.4459 396.9777 726.0759L376.4677 731.4459C363.7677 734.3759 351.5577 726.5659 348.1477 714.3559C345.2177 702.1459 352.5377 689.4559 364.7477 686.5259L385.2577 681.1559C377.4377 655.7659 367.6777 630.3759 354.9777 605.9559L338.8677 614.7459C327.1477 620.6059 314.4577 616.6959 308.1077 605.4659C300.7777 594.7259 304.6877 580.0759 315.9177 573.7259L331.5477 565.4259C315.9177 541.5059 298.3377 519.0459 278.8077 499.0259L267.5777 511.2259C257.8077 520.5059 244.6277 520.0159 234.8677 510.7459C226.0777 502.4459 225.0977 487.7959 234.3777 478.5159L245.6077 466.7959C227.0477 450.1959 207.0277 436.5259 186.0377 423.3359L175.2977 444.3359C168.9477 456.0559 155.7577 459.4759 144.5277 453.1259C132.8077 447.2659 128.9077 433.1059 135.2577 421.3859L145.9977 400.8759C106.4477 381.3459 62.9877 367.6759 20.0177 360.3559C6.8377 404.2959 -0.0023 450.1959 -0.0023 498.0459Z"/>
</svg>