<?xml version="1.0" encoding="UTF-8" standalone="no"?>
<svg xmlns="http://www.w3.org/2000/svg"
     width="996.09375" height="996.09375"
     viewBox="0 0 996.09375 996.09375"
     fill="currentColor">
  <path d="M498.0477 996.0959C770.5077 996.0959 996.0977 770.0159 996.0977 498.0459C996.0977 225.5859 770.0177 -0.0041 497.5577 -0.0041C225.5877 -0.0041 -0.0023 225.5859 -0.0023 498.0459C-0.0023 770.0159 226.0777 996.0959 498.0477 996.0959ZM498.0477 913.0859C267.5777 913.0859 83.4977 728.5159 83.4977 498.0459C83.4977 267.5759 267.0877 83.0059 497.5577 83.0059C728.0277 83.0059 913.0877 267.5759 913.0877 498.0459C913.0877 728.5159 728.5177 913.0859 498.0477 913.0859ZM498.0477 760.2559C605.4677 760.2559 699.7077 692.3859 739.7477 598.1459C718.7477 593.7459 698.7277 586.9159 679.6877 578.1259L674.3177 587.8859C669.9177 596.1959 659.6677 599.6059 651.3677 595.2159C643.5577 590.3359 640.6277 580.0759 645.0177 571.7759L650.3877 562.4959C638.1877 555.1759 626.4677 546.3859 615.2377 537.5959L607.4177 545.4059C601.0777 551.7559 590.8177 550.7859 583.9877 544.9259C577.6377 538.5759 576.6577 528.3159 583.0077 521.9759L590.8177 514.1559C580.5677 502.9259 571.2877 491.2059 562.9877 478.5159L552.2477 484.8659C543.9477 489.7459 534.1777 486.3259 529.7877 478.5159C525.8777 470.2159 527.8277 459.9559 535.6477 456.0559L546.3877 449.7059C539.5477 435.5459 533.6877 421.3859 529.2977 406.7359L516.1177 410.1559C506.8377 412.5959 498.5377 407.2259 496.0977 397.9459C493.6477 389.6459 498.0477 380.3759 507.8077 377.9259L521.4877 374.5159C519.0477 361.3259 518.0677 347.6559 517.5777 333.9859H506.3477C497.0677 333.4959 490.7277 325.6859 490.7277 316.4059C490.7277 307.6159 498.0477 299.8059 507.8077 299.8059L518.0677 300.2959C520.0177 279.2959 524.4177 258.7859 530.7577 238.2859C520.0177 236.8159 508.2977 235.8359 497.5577 235.8359C390.6277 235.8359 296.8777 303.7059 257.3277 396.9759C277.3477 401.3659 296.8777 408.2059 315.9177 416.9959L320.7977 408.2059C325.6877 399.4159 335.4477 397.4559 343.7477 401.3659C351.5577 405.2759 354.9777 416.0159 350.0977 424.3159L345.2177 433.1059C356.9377 439.9459 367.6777 448.2459 377.9277 456.5459L388.1877 446.7759C395.0177 440.4259 403.8077 440.9159 411.6177 447.2659C418.4577 453.6159 418.4577 463.8659 412.1077 470.2159L402.3477 479.9759C413.0877 491.2059 422.8477 502.9259 431.1477 516.1159L442.8677 509.7659C451.1677 504.8859 460.4477 508.2959 465.3277 516.6059C470.2177 523.9259 467.7777 535.1559 459.4777 539.5459L448.2377 545.8959C455.0777 559.0859 460.4477 572.7559 464.8477 586.9159L475.5877 583.9859C484.3777 581.5459 493.1677 586.9159 495.6077 595.7059C497.5577 604.9759 492.1877 614.2559 483.8877 616.6959L473.1477 619.6259C475.5877 633.2959 476.5577 647.9459 477.0477 662.1059H488.7677C498.0477 662.5959 504.8877 670.8959 504.8877 679.6859C504.8877 688.9659 497.5577 696.2859 488.2777 696.2859L476.0777 695.7959C473.6377 716.7959 469.7277 737.7959 462.8877 757.3259C474.6077 759.2759 486.3277 760.2559 498.0477 760.2559ZM760.2577 498.0459C760.2577 377.4459 674.3177 273.4359 561.5277 243.6559C555.1777 262.6959 551.2677 281.7359 549.3177 300.7859L560.5477 301.2659C569.3377 301.7559 576.6577 309.5659 576.1677 318.3559C576.1677 328.1259 569.3377 335.4459 559.5677 335.4459L548.8277 334.9559C549.3177 345.2159 550.2977 355.4659 552.2477 366.2059L558.5977 364.7459C567.8677 362.3059 576.6577 367.6759 579.0977 376.9559C581.5477 385.7459 576.1677 394.5359 567.3877 396.9759L560.5477 398.9259C564.4577 410.6459 568.8477 421.8759 575.1977 433.1059L581.5477 429.6859C589.8477 424.8059 600.0977 428.2259 604.4877 436.0359C608.8877 445.3159 606.4477 454.1059 598.1477 458.4959L591.3077 462.4059C598.1477 472.6559 605.4677 481.9359 613.2777 491.2059L620.6077 483.8859C627.9277 476.5659 637.2077 477.5359 644.5277 483.8859C650.3877 489.7459 651.8577 500.4859 644.5277 507.8159L637.6977 514.6459C646.4877 522.4559 655.7577 529.2959 665.5277 535.1559L670.4077 526.3659C674.8077 518.5559 685.5477 514.6459 692.3877 519.5359C701.1677 523.9259 704.0977 533.6959 699.2177 541.9959L694.3377 551.2659C712.3977 559.5659 730.9577 565.4259 749.9977 568.8459C756.8377 546.3859 760.2577 522.4559 760.2577 498.0459ZM236.3277 498.0459C236.3277 618.1659 320.7977 721.6759 433.1077 751.4659C439.4577 732.9059 442.8677 714.3559 445.3077 695.3159L435.0577 694.8259C425.7777 694.3359 418.9477 686.5259 418.9477 677.7359C419.4377 668.9459 426.2677 660.6459 436.0377 660.6459L445.7977 661.1359C445.3077 649.9059 443.8477 639.1559 442.3877 627.4459L432.1277 629.8859C423.3377 632.3259 414.5477 626.4659 412.5977 618.1659C410.1577 608.8859 415.5277 599.1259 423.8277 597.1659L433.5977 594.7259C429.6877 583.0059 425.2977 572.2659 419.4377 561.5259L412.5977 565.4259C404.7877 569.8259 395.0177 567.3859 390.1377 559.0859C385.7377 551.2659 388.1877 540.5259 396.4877 536.1359L403.3177 532.2259C395.9977 521.9759 388.6677 512.2059 379.8877 502.9259L374.5077 508.2959C368.1677 514.6459 357.9077 514.1559 351.0777 507.8159C344.7277 501.9559 344.2377 490.7259 350.5877 484.3759L355.4677 479.4959C347.6577 472.6559 338.8677 466.3059 330.0777 460.9359L324.7077 470.7059C320.3077 479.0059 310.0577 481.4459 302.7377 477.0459C293.9477 473.1459 291.0177 462.8859 295.8977 454.1059L300.7777 444.8259C283.2077 436.0359 265.1377 430.1759 246.5777 426.2659C240.2377 448.7259 236.3277 473.6359 236.3277 498.0459Z"/>
</svg>