<?xml version="1.0" encoding="UTF-8" standalone="no"?>
<svg xmlns="http://www.w3.org/2000/svg"
     width="996.09375" height="996.09375"
     viewBox="0 0 996.09375 996.09375"
     fill="currentColor">
  <path d="M498.0477 996.0959C770.5077 996.0959 996.0977 770.0159 996.0977 498.0459C996.0977 225.5859 770.0177 -0.0041 497.5577 -0.0041C225.5877 -0.0041 -0.0023 225.5859 -0.0023 498.0459C-0.0023 770.0159 226.0777 996.0959 498.0477 996.0959ZM498.5377 768.5559C486.3277 768.5559 474.6077 767.5759 462.3977 765.6259C469.2377 745.1159 473.1477 723.6359 476.0777 702.1459L488.2777 702.6359C498.0477 702.6359 505.3677 694.8259 505.3677 685.5459C505.3677 676.2659 498.5377 667.4759 488.7677 666.9959H477.0477C476.5577 652.8359 475.0977 637.6959 472.6577 623.5359L483.8877 620.6059C492.6777 618.1659 498.0477 608.3959 496.0977 598.6359C493.6477 589.8459 484.3777 583.9859 475.0977 586.4259L464.3577 589.8459C459.4777 575.1959 454.0977 561.0359 447.2677 547.3659L458.4977 541.0159C467.2877 536.1359 469.7277 524.9059 464.8477 517.0859C459.9577 508.7859 450.1977 504.8859 441.4077 510.2559L429.6877 516.6059C420.8977 502.9259 410.6477 491.2059 399.8977 479.4959L409.6677 469.2359C416.5077 462.8859 416.5077 452.1459 409.1777 445.7959C401.3677 438.9659 392.0877 438.4759 385.2577 445.3159L374.5077 455.0759C364.2577 446.7759 353.0277 437.9859 340.8177 431.1559L346.1877 421.8759C351.0777 413.5759 347.6577 402.3459 339.3577 398.4359C331.0577 394.0459 320.7977 396.4859 315.9177 405.2759L310.5477 414.5459C291.0177 405.2759 270.9977 398.4359 249.9977 393.5559C291.0177 297.3659 387.6977 227.5359 498.0477 227.5359C509.2777 227.5359 520.9977 228.5159 532.2277 229.9759C525.8777 251.4659 520.9977 272.4559 519.0477 293.9459L508.7877 293.4559C498.5377 293.4559 490.7277 301.7559 490.7277 310.5459C490.7277 320.3159 497.5577 328.6159 507.3277 329.1059H518.5577C519.0477 342.7759 520.0177 356.9359 522.9477 370.6059L508.7877 374.0259C498.5377 376.4659 494.1377 386.2259 496.5777 395.0159C499.0277 404.2959 507.8077 410.1559 517.0877 407.2259L530.7577 403.8059C535.1577 418.9459 541.5077 433.5959 548.3377 448.2459L537.1077 454.5859C529.2977 458.4959 527.3477 469.2359 531.2477 478.0259C535.6477 485.8359 545.8977 489.2559 554.6877 484.3759L565.4277 478.0259C574.2177 490.7259 583.4977 502.9259 594.2377 514.6459L585.9377 522.4559C579.5877 529.2959 580.5677 540.0359 587.3977 546.3859C594.2377 552.2459 604.9777 553.2259 611.3277 546.8759L619.6277 538.5759C630.8577 547.8559 643.0677 557.1259 655.7577 564.4559L649.8977 574.2159C645.5077 582.5159 648.4377 593.2659 656.7377 598.1459C665.0377 603.0259 675.7777 599.1259 680.1777 590.8159L686.0377 580.5659C705.5677 589.8459 726.0777 596.6759 748.0477 601.0759C706.5477 698.7259 609.3777 768.5559 498.5377 768.5559ZM769.0477 498.0459C769.0477 523.4359 765.6277 547.8559 758.2977 570.7959C738.7677 567.3859 719.7277 561.5259 701.1677 552.7359L706.0577 543.4559C710.9377 534.6659 708.0077 524.9059 699.2177 520.0159C691.8977 515.1359 680.6677 519.0459 676.2677 527.3459L671.3877 536.1359C661.1377 530.2759 651.8577 522.9459 642.5777 515.1359L649.8977 507.8159C657.2277 500.4859 655.7577 489.2559 649.8977 483.3959C642.0877 476.5659 632.8077 475.5859 624.9977 483.3959L617.6777 490.7259C609.3777 481.4459 602.0477 471.6759 594.7277 461.4259L602.0477 457.0359C610.3477 452.6359 612.7977 443.3559 608.3977 434.0859C604.0077 425.7859 593.2577 422.3659 584.9577 427.2459L578.1277 431.1559C571.7777 419.4359 567.3877 407.7159 562.9877 395.9959L570.3077 393.5559C579.0977 391.1159 584.9577 382.3259 582.0277 373.0459C579.5877 363.2859 570.7977 357.9059 561.0377 360.3559L554.6877 361.8159C552.7377 351.0759 551.7577 340.3359 550.7777 330.0759L562.0077 330.5659C571.7777 330.5659 579.0977 322.7559 579.0977 312.4959C579.5877 303.7059 572.2677 295.4059 562.9877 294.9259L551.2677 294.4359C553.7077 274.9059 557.6177 255.3759 563.9677 235.8359C680.1777 266.6059 769.0477 373.5359 769.0477 498.0459ZM228.5177 498.0459C228.5177 472.6559 232.4177 447.2659 239.2577 423.8259C258.2977 428.2259 276.8577 434.0859 294.9177 443.3559L290.0377 452.6359C284.6677 461.9159 288.0877 472.6559 296.8777 476.5659C304.6877 480.9559 314.9377 478.5159 319.8277 469.7259L325.1977 459.9559C334.4777 465.3359 343.2577 472.1659 351.5577 479.0059L346.1877 483.8859C339.8477 490.7259 340.3277 501.9559 346.6777 508.2959C354.0077 514.6459 364.2577 515.1359 371.0977 508.7859L376.4677 503.4159C385.7377 512.6959 393.0677 522.9459 400.8777 533.2059L393.5577 537.5959C385.2577 541.9959 382.3277 553.2259 387.2077 561.0359C392.0877 569.8259 402.3477 572.2659 410.1577 567.8759L417.4777 563.4759C423.3377 574.7059 427.7377 585.9359 432.1277 597.6559L421.8777 600.0959C413.0877 602.5359 407.7177 612.3059 410.1577 622.0659C412.1077 630.3759 421.3877 636.7159 430.6677 634.2759L440.9177 631.3459C442.3877 643.5559 443.8477 654.7859 444.3377 666.0159L434.5677 665.5259C424.3177 665.5259 417.4777 674.3159 416.9877 683.5959C416.9877 692.3859 423.8277 700.6859 433.5977 701.1759L443.8477 701.6559C441.4077 721.1959 437.9877 740.2359 431.6377 759.2759C315.9177 728.5159 228.5177 622.0659 228.5177 498.0459Z"/>
</svg>