<?xml version="1.0" encoding="UTF-8" standalone="no"?>
<svg xmlns="http://www.w3.org/2000/svg"
     width="1143.5546875" height="1046.4070059891992"
     viewBox="0 0 1143.5546875 1046.4070059891992"
     fill="currentColor">
  <path d="M-0.0017 482.4412C-0.0017 528.3412 28.3183 557.1512 74.7083 557.1512H75.1983L148.4383 909.6912C163.0883 980.4912 197.7583 1046.4112 310.5483 1046.4112H833.0083C945.7983 1046.4112 980.4683 980.4912 995.1183 909.6912L1068.3583 557.1512C1114.7483 557.1512 1143.5583 528.3412 1143.5583 482.4412V411.6412C1143.5583 365.7412 1114.7483 336.4412 1068.3583 336.4412H973.6283L786.6183 19.5512C773.9283 -1.9288 750.4883 -3.3988 732.4183 5.3912C714.8483 15.1612 703.6183 35.6612 716.7983 59.1012L875.9783 336.4412H267.5783L426.7583 59.1012C439.9383 35.6612 429.1983 15.1612 411.1283 5.3912C393.5583 -3.8888 370.1183 -2.4188 356.9383 19.5512L169.9183 336.4412H74.7083C28.3183 336.4412 -0.0017 365.7412 -0.0017 411.6412ZM93.7483 414.0812H1049.3183C1060.0583 414.0812 1066.4083 420.4312 1066.4083 431.1712V462.4212C1066.4083 473.1612 1060.0583 480.0012 1049.3183 480.0012H93.7483C83.0083 480.0012 77.1483 473.1612 77.1483 462.4212V431.1712C77.1483 420.4312 83.0083 414.0812 93.7483 414.0812ZM324.2183 968.2812C252.9283 968.2812 233.3983 942.4012 220.2183 879.9012L153.8083 557.1512H989.7483L923.3383 879.9012C910.1583 942.4012 890.6283 968.2812 819.3383 968.2812ZM640.1383 912.1312C657.7183 913.5912 670.8983 902.8512 671.8783 886.2512L687.4983 633.8112C688.4783 617.2112 676.7583 605.4912 659.1783 604.0212C641.1183 602.5612 628.9083 613.7912 627.4383 630.3912L611.8183 883.3212C610.8383 899.4312 622.5583 911.1512 640.1383 912.1312ZM503.9083 912.1312C521.4883 911.1512 533.1983 899.4312 532.2283 883.3212L516.5983 630.3912C515.1383 613.7912 502.9283 602.5612 484.8683 604.0212C467.2883 605.4912 455.5683 617.2112 456.5383 633.8112L472.1683 886.2512C473.1483 902.8512 486.3283 913.5912 503.9083 912.1312ZM779.7883 915.0612C797.3683 917.9912 811.0383 908.7112 813.9683 892.6012L854.9783 637.2312C857.4183 621.6012 847.1683 608.9112 829.0983 605.4912C811.5283 603.0512 797.8483 611.8412 794.9183 627.9512L754.3983 883.3212C751.9483 898.9412 761.7183 912.1312 779.7883 915.0612ZM363.7683 915.0612C381.8383 912.1312 391.5983 898.9412 389.1583 883.3212L348.6283 627.9512C345.6983 611.8412 332.0283 603.0512 314.4483 605.4912C296.3883 608.9112 286.1283 621.6012 289.0583 637.2312L329.5883 892.6012C332.5183 908.7112 345.6983 917.9912 363.7683 915.0612Z"/>
</svg>