<?xml version="1.0" encoding="UTF-8" standalone="no"?>
<svg xmlns="http://www.w3.org/2000/svg"
     width="996.09375" height="996.09375"
     viewBox="0 0 996.09375 996.09375"
     fill="currentColor">
  <path d="M498.0477 996.0959C770.5077 996.0959 996.0977 770.0159 996.0977 498.0459C996.0977 225.5859 770.0177 -0.0041 497.5577 -0.0041C225.5877 -0.0041 -0.0023 225.5859 -0.0023 498.0459C-0.0023 770.0159 226.0777 996.0959 498.0477 996.0959ZM498.0477 913.0859C267.5777 913.0859 83.4977 728.5159 83.4977 498.0459C83.4977 267.5759 267.0877 83.0059 497.5577 83.0059C728.0277 83.0059 913.0877 267.5759 913.0877 498.0459C913.0877 728.5159 728.5177 913.0859 498.0477 913.0859ZM396.4877 359.8659C408.6877 354.0059 421.8777 349.1259 434.5677 344.2359C434.0777 339.8459 434.0777 334.4759 434.0777 329.1059C434.0777 291.0159 452.6377 258.2959 482.9077 236.8159C461.9177 237.3059 428.2277 244.1359 402.3477 254.3959C396.9777 274.9059 391.5977 310.0559 396.4877 359.8659ZM466.7977 335.4459C499.0277 326.6559 533.2077 322.7559 567.8677 322.7559C617.6777 322.7559 667.4777 331.5459 711.4277 348.6359C672.8477 293.9459 613.7677 253.9059 545.8977 240.7259C494.6277 258.2959 463.3777 288.5759 466.7977 335.4459ZM343.2577 388.6759C351.0777 383.7859 358.8877 378.9059 367.1877 374.5159C362.3077 331.0559 363.7677 295.4059 369.6277 270.5059C344.2377 285.1559 321.2877 303.7059 301.7577 325.6859C324.2177 333.9859 337.8877 364.7459 343.2577 388.6759ZM236.3277 486.3259C258.7877 457.5159 284.6677 432.1259 313.9677 409.6659C313.4777 391.1159 301.7577 355.4659 282.7177 350.0959C255.3677 389.1559 237.3077 442.3859 236.3277 486.3259ZM474.6077 365.7259C516.1177 449.2159 691.8977 487.7959 735.8377 605.9559C750.9777 572.7559 759.7677 536.6259 759.7677 498.0459C759.7677 461.9159 751.9577 427.2459 737.7977 395.5059C684.5677 368.1659 629.3977 354.4959 567.8677 354.4959C536.1377 354.4959 504.8877 358.3959 474.6077 365.7259ZM400.3877 393.0659C416.5077 490.2359 466.3077 624.0259 570.3077 749.5159C628.4177 732.4259 678.2277 695.7959 711.9177 646.9759C702.1477 523.9259 491.2077 484.8659 443.3577 375.4859C428.7077 379.8859 414.5477 386.2259 400.3877 393.0659ZM346.1877 425.2959C346.6777 541.0159 295.8977 671.8759 402.8277 737.7959C431.1477 751.4659 463.8677 759.7659 498.0477 759.7659C510.7377 759.7659 523.4377 759.2759 536.1377 757.3259C438.9677 636.7159 390.1377 508.7859 372.0677 408.6959C363.2777 413.5759 354.4877 419.4359 346.1877 425.2959ZM239.2577 537.5959C248.0477 593.7459 275.3877 644.5359 314.4577 683.1059C289.5477 612.3059 309.0777 525.8759 313.4777 451.1759C285.1577 476.5659 260.2577 504.8859 239.2577 537.5959Z"/>
</svg>