<?xml version="1.0" encoding="UTF-8" standalone="no"?>
<svg xmlns="http://www.w3.org/2000/svg"
     width="1151.3671875" height="898.92578125"
     viewBox="0 0 1151.3671875 898.92578125"
     fill="currentColor">
  <path d="M153.3183 898.9261H998.0483C1100.5883 898.9261 1151.3683 848.6361 1151.3683 748.0461V275.8761C1151.3683 175.2961 1100.5883 124.9961 998.0483 124.9961H930.6683V59.5661C930.6683 22.4561 909.1783 -0.0039 871.5783 -0.0039H727.5383C690.4283 -0.0039 668.9483 22.4561 668.9483 59.5661V124.9961H482.9083V59.5661C482.9083 22.4561 461.4283 -0.0039 423.8283 -0.0039H279.7883C242.1883 -0.0039 221.1883 22.4561 221.1883 59.5661V124.9961H153.3183C51.2683 124.9961 -0.0017 175.2961 -0.0017 275.8761V748.0461C-0.0017 848.6361 51.2683 898.9261 153.3183 898.9261ZM78.6183 743.6561V280.2761C78.6183 229.4961 105.4683 203.6161 154.2983 203.6161H997.0683C1045.4083 203.6161 1072.7583 229.4961 1072.7583 280.2761V743.6561C1072.7583 794.4361 1045.4083 820.3161 997.0683 820.3161H154.2983C105.4683 820.3161 78.6183 794.4361 78.6183 743.6561Z"/>
</svg>