<?xml version="1.0" encoding="UTF-8" standalone="no"?>
<svg xmlns="http://www.w3.org/2000/svg"
     width="996.09375" height="996.09375"
     viewBox="0 0 996.09375 996.09375"
     fill="currentColor">
  <path d="M498.0477 996.0959C770.5077 996.0959 996.0977 770.0159 996.0977 498.0459C996.0977 225.5859 770.0177 -0.0041 497.5577 -0.0041C225.5877 -0.0041 -0.0023 225.5859 -0.0023 498.0459C-0.0023 770.0159 226.0777 996.0959 498.0477 996.0959ZM498.0477 913.0859C267.5777 913.0859 83.4977 728.5159 83.4977 498.0459C83.4977 267.5759 267.0877 83.0059 497.5577 83.0059C728.0277 83.0059 913.0877 267.5759 913.0877 498.0459C913.0877 728.5159 728.5177 913.0859 498.0477 913.0859ZM319.3377 649.9059H647.4577C684.0777 649.9059 717.7777 646.4859 741.2077 623.0459C765.1377 598.6359 769.0477 565.4259 769.0477 529.2959V466.7959C769.0477 430.6659 765.1377 396.9759 741.2077 373.0459C717.7777 349.6059 683.5977 345.7059 647.4577 345.7059H319.3377C283.2077 345.7059 249.0277 349.6059 224.6077 373.0459C201.1677 396.9759 197.7577 430.6659 197.7577 466.7959V529.2959C197.7577 565.4259 201.1677 598.6359 224.6077 623.0459C249.0277 646.4859 282.7177 649.9059 319.3377 649.9059ZM312.9877 595.7059C289.0577 595.7059 272.9477 591.3059 264.6477 583.0059C256.3477 575.1959 252.9277 559.0859 252.9277 535.1559V460.4459C252.9277 436.5259 256.3477 420.4059 264.6477 412.5959C272.9477 404.2959 289.5477 399.9059 312.9877 399.9059H653.8077C676.7577 399.9059 693.8477 404.2959 702.1477 413.0859C709.9577 420.8959 714.8477 437.4959 714.8477 460.4459V535.1559C714.8477 558.5959 709.9577 575.1959 702.1477 583.0059C693.8477 591.3059 677.2477 595.7059 653.8077 595.7059ZM315.4277 566.8959H651.8577C665.0377 566.8959 672.8477 565.4259 678.2277 560.0559C683.5977 554.6859 686.0377 546.3859 686.0377 533.6959V461.4259C686.0377 448.7259 683.5977 440.4259 678.2277 435.0559C672.8477 430.1759 665.0377 428.2259 651.8577 428.2259H315.4277C302.2477 428.2259 293.9477 430.1759 288.5777 435.0559C283.6877 440.4259 281.2477 448.2459 281.2477 461.4259V533.6959C281.2477 546.8759 283.6877 555.1759 288.5777 560.0559C293.9477 565.4259 302.2477 566.8959 315.4277 566.8959ZM790.5277 555.6659C807.6177 554.1959 831.5477 531.7359 831.5477 498.0459C831.5477 464.3559 807.6177 441.4059 790.5277 440.4259Z"/>
</svg>