<?xml version="1.0" encoding="UTF-8" standalone="no"?>
<svg xmlns="http://www.w3.org/2000/svg"
     width="985.5752415388674" height="1156.3237780698973"
     viewBox="0 0 985.5752415388674 1156.3237780698973"
     fill="currentColor">
  <path d="M3.282 394.8015C-6.478 422.6415 6.702 445.5815 27.212 452.9115C42.842 458.7715 57.972 451.4415 70.672 441.1915C115.102 408.4815 157.582 393.8315 208.362 412.3815C259.142 430.4515 279.652 468.0515 288.442 520.2915C290.882 537.3815 296.742 551.0515 311.392 556.4215C327.012 562.2815 340.202 555.4515 353.382 544.2215C382.682 519.3215 422.232 506.6215 459.832 508.5715L243.522 1101.3515C235.712 1122.3415 246.942 1146.2715 268.422 1154.0815C288.932 1161.4115 313.342 1150.1715 321.162 1129.1815L536.982 536.4115C566.762 559.3515 588.252 594.5115 594.592 632.6015C598.012 648.7115 603.382 662.8715 618.522 668.2415C633.662 673.6115 646.842 666.2915 660.022 655.5515C700.552 621.3715 739.612 605.7415 790.392 623.8115C841.182 642.8515 864.612 680.9415 877.312 735.6215C881.212 751.2515 887.562 766.3915 903.192 771.7615C923.692 779.0815 949.572 770.2915 958.852 742.4615C1025.262 560.3315 979.852 256.6215 685.902 126.7415L711.292 57.8915C719.592 33.4815 710.322 11.5015 686.882 2.7115C664.422 -5.5885 642.442 5.6415 633.662 29.5715L608.752 98.9115C300.162 9.0615 69.692 211.7015 3.282 394.8015ZM117.542 338.1615C200.552 210.7215 356.802 130.1615 531.602 159.9415C452.992 211.7015 377.312 302.5215 327.992 419.7115C308.462 382.1115 276.722 356.2315 234.732 341.5815C195.182 327.4215 156.602 325.9615 117.542 338.1615ZM387.072 444.1215C442.742 311.8015 536.492 216.5815 621.452 182.4015C665.392 263.4615 676.142 396.2715 633.662 534.4515C610.222 493.9215 570.672 461.2115 526.232 444.6115C481.802 428.5015 430.532 428.5015 387.072 444.1215ZM694.202 553.0115C732.292 431.4215 732.782 313.7515 705.922 223.4215C858.262 313.2615 926.142 475.3715 907.582 625.7615C885.612 591.5815 854.852 567.6615 816.272 553.0115C774.282 537.8715 733.262 536.8915 694.202 553.0115Z"/>
</svg>