<?xml version="1.0" encoding="UTF-8" standalone="no"?>
<svg xmlns="http://www.w3.org/2000/svg"
     width="985.9573896700329" height="1156.3312573668245"
     viewBox="0 0 985.9573896700329 1156.3312573668245"
     fill="currentColor">
  <path d="M244.2206 1101.4099C236.4006 1122.8899 247.1506 1146.3299 268.6306 1154.1399C289.6306 1161.4599 314.0406 1149.7399 321.3606 1129.2399L537.1806 537.9299C553.7906 552.0899 567.9506 571.6199 580.1506 594.0799C589.9206 611.6599 606.0306 612.1499 614.3306 596.5199C681.2306 462.2399 701.2506 294.7599 678.3006 148.7699L711.5006 57.9499C720.2906 34.0199 710.5206 11.5599 687.5706 2.7699C664.6306 -5.5301 643.1406 5.2099 634.3506 29.6299L603.5906 114.0999C489.3306 210.7799 394.6106 353.8499 358.4706 503.2599C354.5706 519.8599 367.2606 531.0899 386.7906 523.7699C412.1806 513.5099 436.6006 507.6499 460.0406 508.1399ZM563.0606 87.7299C277.4206 29.1399 65.9906 221.0299 3.4906 394.8599C-6.7594 422.2099 6.9106 445.1499 26.9306 452.9699C43.0406 458.8299 57.2006 451.9899 69.9006 441.7399C115.3106 408.0499 157.7906 393.8899 208.0806 412.4399C241.7706 424.6499 261.3106 447.5999 273.0206 470.5499C280.3506 484.7099 294.5106 485.1899 298.4106 469.5699C339.9206 306.9699 439.5306 170.7399 563.0606 87.7299ZM727.6106 147.2999C768.6306 289.8799 756.9106 457.8499 685.1306 610.6799C678.3006 624.8399 688.5506 634.1199 703.6906 627.2799C728.1006 617.0299 757.4006 612.1499 790.6006 624.3499C841.3806 642.9099 864.8206 681.4799 878.0006 735.6799C880.9306 751.7999 888.2606 766.4399 903.4006 771.8199C923.9006 779.1399 949.2906 770.3499 959.0606 742.5199C1022.5406 569.1799 984.4506 286.4599 727.6106 147.2999Z"/>
</svg>