<?xml version="1.0" encoding="UTF-8" standalone="no"?>
<svg xmlns="http://www.w3.org/2000/svg"
     width="801.373607799864" height="864.74609375"
     viewBox="0 0 801.373607799864 864.74609375"
     fill="currentColor">
  <path d="M178.8141 629.8863C276.9641 629.8863 350.2041 545.4063 332.1341 436.5263L300.3941 244.6263C296.0041 217.7763 305.7641 199.7062 332.1341 187.4963C398.5441 156.2463 461.0441 139.6463 543.0741 126.9562C593.8541 119.6263 619.7341 82.0263 619.7341 31.7363C619.7341 11.2263 609.4841 -0.0037 577.7441 -0.0037C473.7341 -0.0037 370.7141 16.6063 265.2441 53.2263C87.5041 114.7463 -22.8459 223.6363 4.0141 369.6263L29.8941 509.7663C45.0241 591.7963 114.3641 629.8863 178.8141 629.8863ZM178.8141 677.2463C103.6241 677.2463 39.1641 639.1563 5.4741 579.1063C15.7341 741.6963 162.7041 822.7563 329.2041 822.7563C373.1541 822.7563 405.3741 816.8963 436.1441 801.2663C499.1241 691.4063 543.5641 576.6563 571.8841 452.6363C539.6541 384.7663 463.9741 340.3363 359.4841 313.4763L379.0141 428.7063C401.4741 563.4762 309.1841 677.2463 178.8141 677.2463ZM178.8141 555.1763C132.9141 555.1763 96.7841 519.5263 96.7841 473.6363C96.7841 427.7363 132.9141 392.0863 178.8141 392.0863C224.2241 392.0863 259.8741 428.2263 259.8741 473.6363C259.8741 519.0463 224.2241 555.1763 178.8141 555.1763ZM178.8141 520.5063C204.6941 520.5063 225.2041 499.9963 225.2041 473.6363C225.2041 447.7563 204.6941 426.7563 178.8141 426.7563C151.9641 426.7563 131.4541 447.7563 131.4541 473.6363C131.4541 499.9963 151.9641 520.5063 178.8141 520.5063ZM801.3741 656.7363C801.3741 542.9662 711.5341 467.2863 619.2441 458.0063C589.4641 589.8463 541.6041 713.8663 473.7341 829.5862C501.0841 848.6363 545.5141 864.7463 594.8341 864.7463C718.8541 864.7463 801.3741 781.2463 801.3741 656.7363Z"/>
</svg>