<?xml version="1.0" encoding="UTF-8" standalone="no"?>
<svg xmlns="http://www.w3.org/2000/svg"
     width="975.09765625" height="969.7265625"
     viewBox="0 0 975.09765625 969.7265625"
     fill="currentColor">
  <path d="M299.3183 969.7223H674.3183C872.0683 969.7223 975.0983 867.1923 975.0983 670.4123V299.3123C975.0983 102.5423 872.0683 0.0023 674.3183 0.0023H299.3183C102.5383 0.0023 -0.0017 102.5423 -0.0017 299.3123V670.4123C-0.0017 867.1923 102.5383 969.7223 299.3183 969.7223ZM487.3083 723.1423C355.9583 723.1423 249.5083 617.1923 249.5083 484.8623C249.5083 396.4823 297.3683 318.3623 373.0483 275.8823V484.8623C373.0483 548.3423 423.3383 598.1423 487.3083 598.1423C550.2883 598.1423 602.0483 547.3623 602.0483 484.8623C602.0483 422.3623 549.3183 369.1423 487.3083 369.1423C465.3283 369.1423 442.8683 376.4623 424.3183 390.1323V255.3723C442.8683 249.5123 464.3583 247.5623 487.3083 247.5623C616.6983 247.5623 725.5883 353.5123 725.5883 484.8623C725.5883 614.7423 619.1383 723.1423 487.3083 723.1423ZM487.3083 547.8523C453.6183 547.8523 425.2883 519.5323 425.2883 484.8623C425.2883 451.1723 454.5883 422.8523 487.3083 422.8523C520.0183 422.8523 549.8083 452.6323 549.8083 484.8623C549.8083 518.0623 520.9983 547.8523 487.3083 547.8523Z"/>
</svg>