<?xml version="1.0" encoding="UTF-8" standalone="no"?>
<svg xmlns="http://www.w3.org/2000/svg"
     width="1398.4375" height="990.234375"
     viewBox="0 0 1398.4375 990.234375"
     fill="currentColor">
  <path d="M232.9083 759.2763H521.9683L513.1883 841.3063C511.7183 856.9363 517.5783 868.1663 526.3683 874.9963L514.6483 990.2363H561.0383L572.7583 877.4463C583.4983 872.0663 591.7983 861.8163 593.2583 847.6563L602.0483 759.2763H617.1883C637.2083 759.2763 652.8283 746.5863 655.2783 725.5863L671.3883 556.6363C673.3383 531.2462 656.2483 513.1863 631.3483 513.1863H626.9483L649.4183 289.0662C667.9683 103.5163 589.8483 -0.0037 437.0083 -0.0037C210.4483 -0.0037 -0.0017 202.6363 -0.0017 490.7263C-0.0017 681.1563 61.5283 943.3563 162.5983 944.3363C187.9883 944.3363 206.5383 918.9463 206.5383 861.3263C206.5383 844.7263 205.5683 829.1063 201.6583 803.7063C123.0483 789.0663 62.9883 719.7262 62.9883 636.7162C62.9883 604.9762 71.7783 575.6863 86.9183 549.8063C83.4983 528.3163 81.5383 504.8863 81.5383 486.8163C81.5383 261.7162 267.0883 81.5462 431.6383 81.5462C532.7183 81.5462 583.9883 160.1563 570.3083 292.4763L547.3683 513.1863H232.9083C165.0383 513.1863 110.3483 568.3563 110.3483 636.7162C110.3483 704.5863 165.0383 759.2763 232.9083 759.2763ZM883.7883 990.2363L871.5783 874.9963C880.8583 868.1663 886.7183 856.9363 884.7683 841.3063L876.4683 759.2763H1165.0383C1233.3983 759.2763 1288.0883 704.5863 1288.0883 636.7162C1288.0883 568.3563 1233.3983 513.1863 1165.0383 513.1863H851.0783L828.1283 292.4763C813.9683 160.1563 865.7183 81.5462 966.7983 81.5462C1130.8583 81.5462 1316.4083 261.7162 1316.4083 486.8163C1316.4083 504.8863 1314.4483 528.3163 1311.5283 549.8063C1326.1683 575.6863 1334.9583 604.9762 1334.9583 636.7162C1334.9583 719.7262 1275.3883 789.0663 1196.7783 803.7063C1192.8683 829.1063 1191.4083 844.7263 1191.4083 861.3263C1191.4083 918.9463 1209.9583 944.3363 1235.3483 944.3363C1336.9183 943.3563 1398.4383 681.1563 1398.4383 490.7263C1398.4383 202.6363 1187.4983 -0.0037 961.4283 -0.0037C808.1083 -0.0037 729.9783 103.5163 749.0283 289.0662L771.4883 513.1863H767.0883C741.6983 513.1863 724.6083 531.2462 727.0483 556.6363L743.1683 725.5863C745.6083 746.5863 761.2283 759.2763 780.7583 759.2763H795.8983L805.1783 847.6563C806.6383 861.8163 814.9383 872.0663 825.6883 877.4463L837.3983 990.2363ZM232.9083 717.2863C187.9883 717.2863 151.8583 681.6363 151.8583 636.7162C151.8583 591.7963 187.9883 555.1763 232.9083 555.1763C278.3183 555.1763 314.4483 591.7963 314.4483 636.7162C314.4483 681.6363 278.3183 717.2863 232.9083 717.2863ZM1165.0383 717.2863C1120.1183 717.2863 1083.4983 681.6363 1083.4983 636.7162C1083.4983 591.7963 1120.1183 555.1763 1165.0383 555.1763C1210.4483 555.1763 1246.0983 591.7963 1246.0983 636.7162C1246.0983 681.6363 1210.4483 717.2863 1165.0383 717.2863ZM232.9083 682.6163C258.7883 682.6163 279.7883 662.5963 279.7883 636.7162C279.7883 610.8363 258.7883 589.8463 232.9083 589.8463C207.0283 589.8463 186.5283 610.8363 186.5283 636.7162C186.5283 662.5963 207.0283 682.6163 232.9083 682.6163ZM1165.0383 682.6163C1191.4083 682.6163 1211.4283 662.5963 1211.4283 636.7162C1211.4283 610.8363 1191.4083 589.8463 1165.0383 589.8463C1139.1583 589.8463 1118.6483 610.8363 1118.6483 636.7162C1118.6483 662.5963 1139.1583 682.6163 1165.0383 682.6163Z"/>
</svg>