<?xml version="1.0" encoding="UTF-8" standalone="no"?>
<svg xmlns="http://www.w3.org/2000/svg"
     width="668.45703125" height="943.84765625"
     viewBox="0 0 668.45703125 943.84765625"
     fill="currentColor">
  <path d="M232.9083 -0.003C79.0983 -0.003 -0.0017 113.277 -0.0017 292.967V406.737C-0.0017 534.667 32.2283 595.217 123.0483 645.017L330.5683 759.277C384.2783 788.087 409.1783 797.847 446.7783 797.847C524.4183 797.847 587.8883 733.887 587.8883 656.737C587.8883 604.007 560.0583 555.177 499.9983 523.437L87.3983 308.107C87.3983 165.037 134.2783 87.887 237.7883 87.887C411.1283 87.887 561.0383 291.507 578.6183 523.437C615.2383 559.567 635.2583 605.467 635.2583 656.737C635.2583 742.187 576.6583 814.937 498.5383 837.887C502.4383 891.117 535.1583 943.847 574.7083 943.847C625.9783 943.847 668.4583 769.047 668.4583 610.837C668.4583 274.417 471.6783 -0.003 232.9083 -0.003ZM450.1983 745.117C401.8583 745.117 361.8183 705.077 361.8183 656.247C361.8183 607.417 401.8583 567.387 450.1983 567.387C499.5083 567.387 539.5483 607.417 539.5483 656.247C539.5483 705.077 499.5083 745.117 450.1983 745.117ZM450.1983 710.447C480.4683 710.447 504.8783 686.037 504.8783 656.247C504.8783 626.957 480.4683 602.047 450.1983 602.047C420.8983 602.047 396.4883 626.957 396.4883 656.247C396.4883 686.037 420.8983 710.447 450.1983 710.447Z"/>
</svg>