<?xml version="1.0" encoding="UTF-8" standalone="no"?>
<svg xmlns="http://www.w3.org/2000/svg"
     width="668.45703125" height="943.84765625"
     viewBox="0 0 668.45703125 943.84765625"
     fill="currentColor">
  <path d="M435.5483 -0.003C196.7783 -0.003 -0.0017 274.417 -0.0017 610.837C-0.0017 769.047 42.4783 943.847 93.7483 943.847C133.2983 943.847 166.0183 891.117 169.9183 837.887C91.3083 814.937 33.1983 742.187 33.1983 656.737C33.1983 605.467 53.2183 559.567 89.8483 523.437C107.4183 291.507 257.3283 87.887 430.1783 87.887C533.6883 87.887 581.0583 165.037 581.0583 308.107L168.4583 523.437C108.3983 555.177 80.5683 604.007 80.5683 656.737C80.5683 733.887 144.0383 797.847 221.1883 797.847C259.2783 797.847 284.1783 788.087 337.8883 759.277L545.4083 645.017C636.2283 595.217 668.4583 534.667 668.4583 406.737V292.967C668.4583 113.277 589.3583 -0.003 435.5483 -0.003ZM217.7783 745.117C168.4583 745.117 128.9083 705.077 128.9083 656.247C128.9083 607.417 168.4583 567.387 217.7783 567.387C266.5983 567.387 306.6383 607.417 306.6383 656.247C306.6383 705.077 266.5983 745.117 217.7783 745.117ZM217.7783 710.447C247.5583 710.447 271.9683 686.037 271.9683 656.247C271.9683 626.957 247.5583 602.047 217.7783 602.047C187.4983 602.047 163.5783 626.957 163.5783 656.247C163.5783 686.037 187.4983 710.447 217.7783 710.447Z"/>
</svg>