<?xml version="1.0" encoding="UTF-8" standalone="no"?>
<svg xmlns="http://www.w3.org/2000/svg"
     width="972.65625" height="1032.71484375"
     viewBox="0 0 972.65625 1032.71484375"
     fill="currentColor">
  <path d="M-0.0017 490.7203C-0.0017 575.6803 21.4883 663.5703 61.5283 745.6103C48.3383 759.7703 45.4083 786.6203 59.0783 813.9603L153.8083 1006.3503C162.1083 1023.4403 181.6383 1032.7103 200.6883 1032.7103C221.1883 1032.7103 240.7183 1021.4803 243.6483 996.0903L136.7183 777.8303C103.0283 709.4703 73.7283 598.1403 73.7283 491.2103C73.7283 247.5603 240.2383 83.0103 486.3283 83.0103C731.9383 83.0103 898.9283 247.5603 898.9283 491.2103C898.9283 598.1403 869.6283 709.4703 835.9383 777.8303L728.5183 996.0903C731.9383 1021.4803 751.4683 1032.7103 771.9683 1032.7103C790.5283 1032.7103 810.0583 1023.4403 818.8483 1006.3503L913.0883 813.9603C926.7583 786.6203 924.3183 759.7703 911.1283 745.6103C951.1683 663.5703 972.6583 575.6803 972.6583 490.7203C972.6583 217.2803 784.1783 0.0003 486.3283 0.0003C188.4783 0.0003 -0.0017 217.2803 -0.0017 490.7203ZM250.9783 668.4603C233.3983 632.3203 200.1983 624.5103 174.8083 634.7703C145.9983 646.0003 125.9783 680.1803 147.4583 724.1203L271.9683 977.5403C291.0183 1016.1103 325.1983 1029.7803 358.3983 1013.1803C387.2083 999.5103 397.9483 966.8003 381.3483 932.1303ZM721.1883 668.4603L591.3083 932.1303C574.7083 966.8003 585.4483 999.5103 613.7683 1013.1803C646.9683 1029.7803 681.6383 1016.1103 700.6883 977.5403L825.1983 724.1203C846.6783 680.1803 826.1683 646.0003 797.8483 634.7703C771.9683 624.5103 739.2583 632.3203 721.1883 668.4603Z"/>
</svg>