<?xml version="1.0" encoding="UTF-8" standalone="no"?>
<svg xmlns="http://www.w3.org/2000/svg"
     width="1335.44921875" height="898.4375"
     viewBox="0 0 1335.44921875 898.4375"
     fill="currentColor">
  <path d="M414.55 -0.0005C187.01 -0.0005 0 260.7395 0 581.0595C0 731.9295 40.53 898.4395 89.36 898.4395C126.95 898.4395 157.71 847.6595 161.62 797.3595C86.91 775.3895 31.74 706.0595 31.74 624.5095C31.74 575.6795 50.78 532.2295 85.45 498.0495C102.05 276.8595 245.12 83.0095 409.67 83.0095C508.3 83.0095 553.22 156.7395 553.22 292.9695L160.16 498.0495C103.03 527.8295 76.66 574.7095 76.66 624.5095C76.66 698.2395 137.21 758.7895 210.94 758.7895C246.58 758.7895 270.51 749.9995 321.78 722.1695L519.04 613.7695C605.47 566.4095 636.23 508.7895 636.23 386.7195V278.8095C636.23 107.4195 561.04 -0.0005 414.55 -0.0005ZM920.9 -0.0005C774.41 -0.0005 699.22 107.4195 699.22 278.8095V386.7195C699.22 508.7895 729.98 566.4095 815.92 613.7695L1013.67 722.1695C1064.94 749.9995 1088.87 758.7895 1124.51 758.7895C1198.24 758.7895 1258.79 698.2395 1258.79 624.5095C1258.79 574.7095 1232.42 527.8295 1174.8 498.0495L782.23 292.9695C782.23 156.7395 827.15 83.0095 925.78 83.0095C1090.33 83.0095 1233.4 276.8595 1250 498.0495C1284.67 532.2295 1303.71 575.6795 1303.71 624.5095C1303.71 706.0595 1248.05 775.3895 1173.34 797.3595C1177.25 847.6595 1208.5 898.4395 1246.09 898.4395C1294.92 898.4395 1335.45 731.9295 1335.45 581.0595C1335.45 260.7395 1148.44 -0.0005 920.9 -0.0005ZM207.52 708.9795C160.64 708.9795 122.56 670.8995 122.56 624.5095C122.56 578.1295 160.64 540.0395 207.52 540.0395C253.91 540.0395 291.99 578.1295 291.99 624.5095C291.99 670.8995 253.91 708.9795 207.52 708.9795ZM1127.93 708.9795C1081.54 708.9795 1043.46 670.8995 1043.46 624.5095C1043.46 578.1295 1081.54 540.0395 1127.93 540.0395C1174.8 540.0395 1212.89 578.1295 1212.89 624.5095C1212.89 670.8995 1174.8 708.9795 1127.93 708.9795ZM207.52 676.2695C235.84 676.2695 258.79 652.8295 258.79 624.5095C258.79 596.1895 235.84 572.7495 207.52 572.7495C178.71 572.7495 155.76 596.1895 155.76 624.5095C155.76 652.8295 178.71 676.2695 207.52 676.2695ZM1127.93 676.2695C1156.74 676.2695 1179.69 652.8295 1179.69 624.5095C1179.69 596.1895 1156.74 572.7495 1127.93 572.7495C1099.61 572.7495 1076.17 596.1895 1076.17 624.5095C1076.17 652.8295 1099.61 676.2695 1127.93 676.2695Z"/>
</svg>