<?xml version="1.0" encoding="UTF-8" standalone="no"?>
<svg xmlns="http://www.w3.org/2000/svg"
     width="1540.52734375" height="792.96875"
     viewBox="0 0 1540.52734375 792.96875"
     fill="currentColor">
  <path d="M571.29 577.6334C630.37 577.6334 693.85 542.4834 707.52 467.7734L731.45 338.8634C755.86 205.0734 654.79 104.9834 491.7 48.8234C395.02 15.1334 300.78 0.0034 205.57 0.0034C176.27 0.0034 166.99 10.2534 166.99 29.2934C166.99 75.1934 190.92 109.8634 237.3 116.7034C312.5 127.9334 369.63 143.5534 430.66 171.8734C454.59 183.1034 463.87 199.7034 459.47 224.1234L430.18 400.3934C414.06 500.0034 480.96 577.6334 571.29 577.6334ZM969.73 577.6334C1059.57 577.6334 1126.95 500.0034 1110.35 400.3934L1081.05 224.1234C1077.15 199.7034 1085.94 183.1034 1110.35 171.8734C1170.9 143.5534 1228.52 127.9334 1303.71 116.7034C1350.1 109.8634 1374.02 75.1934 1374.02 29.2934C1374.02 10.2534 1364.26 0.0034 1335.45 0.0034C1240.23 0.0034 1145.51 15.1334 1049.32 48.8234C886.23 104.9834 785.16 205.0734 809.57 338.8634L833.5 467.7734C847.17 542.4834 910.64 577.6334 969.73 577.6334ZM571.29 620.6034C451.66 620.6034 367.19 516.6034 387.7 393.0634L405.27 287.5934C309.57 312.0134 240.23 353.0234 210.94 415.0434C236.82 528.8134 277.83 633.7934 335.45 734.8634C363.77 749.0234 393.07 753.9034 433.11 753.9034C585.94 753.9034 720.7 679.6834 729.98 530.7634C699.22 586.4234 640.14 620.6034 571.29 620.6034ZM969.73 620.6034C900.88 620.6034 841.8 586.4234 810.55 530.7634C819.82 679.6834 955.08 753.9034 1107.91 753.9034C1147.95 753.9034 1177.25 749.0234 1205.57 734.8634C1263.18 633.7934 1304.2 528.8134 1330.08 415.0434C1300.29 353.0234 1231.45 312.0134 1135.25 287.5934L1153.32 393.0634C1173.83 516.6034 1089.36 620.6034 969.73 620.6034ZM571.29 508.7934C529.79 508.7934 496.58 476.0734 496.58 434.5734C496.58 392.5734 529.79 359.3734 571.29 359.3734C613.28 359.3734 646 392.5734 646 434.5734C646 476.5634 613.28 508.7934 571.29 508.7934ZM969.73 508.7934C927.73 508.7934 894.53 476.5634 894.53 434.5734C894.53 392.5734 927.73 359.3734 969.73 359.3734C1011.23 359.3734 1043.95 392.5734 1043.95 434.5734C1043.95 476.0734 1011.23 508.7934 969.73 508.7934ZM571.29 477.0534C595.7 477.0534 614.26 458.4934 614.26 434.5734C614.26 410.1534 595.7 391.1134 571.29 391.1134C547.36 391.1134 528.32 410.1534 528.32 434.5734C528.32 458.4934 547.36 477.0534 571.29 477.0534ZM969.73 477.0534C993.65 477.0534 1012.21 458.4934 1012.21 434.5734C1012.21 410.1534 993.65 391.1134 969.73 391.1134C945.31 391.1134 926.27 410.1534 926.27 434.5734C926.27 458.4934 945.31 477.0534 969.73 477.0534ZM0 602.5434C0 716.3134 76.17 792.9734 189.94 792.9734C234.86 792.9734 275.88 777.8334 300.78 760.2534C238.77 654.2934 194.82 541.0134 167.48 419.9234C82.52 428.2234 0 497.5634 0 602.5434ZM1540.53 602.5434C1540.53 497.5634 1458.01 428.2234 1373.54 419.9234C1346.19 541.0134 1302.25 654.2934 1240.23 760.2534C1265.14 777.8334 1306.15 792.9734 1351.07 792.9734C1464.84 792.9734 1540.53 716.3134 1540.53 602.5434Z"/>
</svg>