<?xml version="1.0" encoding="UTF-8" standalone="no"?>
<svg xmlns="http://www.w3.org/2000/svg"
     width="841.2417364545602" height="782.791188113891"
     viewBox="0 0 841.2417364545602 782.791188113891"
     fill="currentColor">
  <path d="M482.3514 484.9396C551.2014 455.1496 583.9214 376.0496 554.1314 307.6896L455.9914 83.0796C425.2214 13.7496 346.6114 -18.4804 277.7614 10.8196C209.4014 40.5996 176.6914 120.6796 206.4714 188.5496L305.1114 413.1596C334.8914 480.5496 413.9914 514.2396 482.3514 484.9396ZM10.6714 341.3896C-25.9486 467.3596 33.6214 583.5696 159.1114 632.8896L251.4014 669.5096C404.7214 729.5696 560.4814 697.3396 622.0014 525.9596C655.6914 433.1796 645.4414 351.1496 600.5214 297.4396C635.1914 387.2796 591.2414 488.8496 501.4014 528.3996C409.1114 566.9696 302.6714 524.4896 262.1414 432.2096L163.5114 207.5996C158.1314 195.8796 154.2314 184.6496 151.7914 172.4396C98.0814 217.3596 35.5814 257.3996 10.6714 341.3896ZM433.0414 444.8996C385.6714 444.8996 348.5614 407.7896 348.5614 360.9196C348.5614 314.5296 385.6714 276.9296 433.0414 276.9296C479.4214 276.9296 516.5314 314.5296 516.5314 360.9196C516.5314 407.7896 479.9114 444.8996 433.0414 444.8996ZM433.0414 410.2296C460.8714 410.2296 481.8714 388.2596 481.8714 360.9196C481.8714 334.0596 460.8714 311.5996 433.0414 311.5996C404.2314 311.5996 383.2314 334.0596 383.2314 360.9196C383.2314 388.2596 404.2314 410.2296 433.0414 410.2296ZM666.4414 542.0696C631.7714 638.7496 566.8314 702.7096 484.3114 729.5696C521.9014 763.2596 571.2214 782.7896 625.4214 782.7896C744.5614 782.7896 841.2414 686.1096 841.2414 566.4796C841.2414 466.3896 773.3714 382.3996 681.5714 357.4996C694.2714 418.0496 689.3814 479.5696 666.4414 542.0696Z"/>
</svg>