<?xml version="1.0" encoding="UTF-8" standalone="no"?>
<svg xmlns="http://www.w3.org/2000/svg"
     width="975.09765625" height="969.7265625"
     viewBox="0 0 975.09765625 969.7265625"
     fill="currentColor">
  <path d="M299.3183 969.7223H674.3183C872.0683 969.7223 975.0983 867.1923 975.0983 670.4123V299.3123C975.0983 102.5423 872.0683 0.0023 674.3183 0.0023H299.3183C102.5383 0.0023 -0.0017 102.5423 -0.0017 299.3123V670.4123C-0.0017 867.1923 102.5383 969.7223 299.3183 969.7223ZM288.5783 891.1123C150.3883 891.1123 78.6183 818.8523 78.6183 681.1523V288.5723C78.6183 150.3923 150.3883 78.6123 288.5783 78.6123H687.9883C824.7083 78.6123 896.4883 149.9023 896.4883 285.6423V684.0823C896.4883 819.8223 824.7083 891.1123 687.9883 891.1123ZM487.3083 715.8223C615.2383 715.8223 718.2583 610.8423 718.2583 484.8623C718.2583 357.4223 612.7883 254.8823 487.3083 254.8823C464.8483 254.8823 444.3383 256.8323 426.2683 262.2023V393.0623C444.3383 379.8823 465.8183 372.5623 487.3083 372.5623C547.3683 372.5623 598.6283 424.3123 598.6283 484.8623C598.6283 545.4123 548.3383 594.7223 487.3083 594.7223C425.2883 594.7223 376.4683 546.3823 376.4683 484.8623V282.2223C303.2183 323.2423 256.8383 399.4123 256.8383 484.8623C256.8383 613.2823 359.8683 715.8223 487.3083 715.8223ZM487.3083 545.9023C520.0183 545.9023 547.8483 517.0923 547.8483 484.8623C547.8483 453.6123 519.0383 424.8023 487.3083 424.8023C455.5683 424.8023 427.2483 452.1523 427.2483 484.8623C427.2483 518.5523 454.5883 545.9023 487.3083 545.9023Z"/>
</svg>