<?xml version="1.0" encoding="UTF-8" standalone="no"?>
<svg xmlns="http://www.w3.org/2000/svg"
     width="996.09375" height="996.09375"
     viewBox="0 0 996.09375 996.09375"
     fill="currentColor">
  <path d="M498.0477 996.0959C770.5077 996.0959 996.0977 770.0159 996.0977 498.0459C996.0977 225.5859 770.0177 -0.0041 497.5577 -0.0041C225.5877 -0.0041 -0.0023 225.5859 -0.0023 498.0459C-0.0023 770.0159 226.0777 996.0959 498.0477 996.0959ZM498.0477 913.0859C267.5777 913.0859 83.4977 728.5159 83.4977 498.0459C83.4977 267.5759 267.0877 83.0059 497.5577 83.0059C728.0277 83.0059 913.0877 267.5759 913.0877 498.0459C913.0877 728.5159 728.5177 913.0859 498.0477 913.0859ZM259.2777 433.1059H318.3577V400.3859C318.3577 378.4159 330.0777 366.2059 352.5377 366.2059H439.4577C460.9377 366.2059 473.1477 378.4159 473.1477 400.3859V433.1059H525.8777V400.3859C525.8777 378.4159 538.0877 366.2059 561.0377 366.2059H642.0877C666.0177 366.2059 678.2277 378.4159 678.2277 400.3859V433.1059H737.3077V366.6959C737.3077 324.2159 713.8677 302.2459 672.3677 302.2459H323.7277C282.2277 302.2459 259.2777 324.2159 259.2777 366.6959ZM203.1277 673.8259C203.1277 685.5459 211.4277 693.3559 223.1477 693.3559H236.8177C248.5377 693.3559 256.3477 685.5459 256.3477 673.8259V639.6459C259.2777 640.1359 266.5977 640.1359 272.4577 640.1359H723.6377C729.4877 640.1359 736.8177 640.1359 739.7477 639.6459V673.8259C739.7477 685.5459 747.5577 693.3559 759.2777 693.3559H772.9477C785.1577 693.3559 792.9677 685.5459 792.9677 673.8259V535.1559C792.9677 490.7259 768.0677 466.3059 723.6377 466.3059H272.4577C228.0277 466.3059 203.1277 490.7259 203.1277 535.1559Z"/>
</svg>