<?xml version="1.0" encoding="UTF-8" standalone="no"?>
<svg xmlns="http://www.w3.org/2000/svg"
     width="996.09375" height="996.09375"
     viewBox="0 0 996.09375 996.09375"
     fill="currentColor">
  <path d="M498.0477 996.0959C770.5077 996.0959 996.0977 770.0159 996.0977 498.0459C996.0977 225.5859 770.0177 -0.0041 497.5577 -0.0041C225.5877 -0.0041 -0.0023 225.5859 -0.0023 498.0459C-0.0023 770.0159 226.0777 996.0959 498.0477 996.0959ZM498.0477 913.0859C267.5777 913.0859 83.4977 728.5159 83.4977 498.0459C83.4977 267.5759 267.0877 83.0059 497.5577 83.0059C728.0277 83.0059 913.0877 267.5759 913.0877 498.0459C913.0877 728.5159 728.5177 913.0859 498.0477 913.0859ZM283.2077 674.3159H713.3777C738.2777 674.3159 752.9277 661.1359 752.9277 642.0859C752.9277 614.7459 726.0777 590.8159 702.1477 566.4059C683.5977 547.3659 680.1777 508.7859 678.2277 478.0259C675.7777 374.0259 647.9477 302.7359 576.6577 276.3659C565.9177 241.6959 537.5977 213.3759 498.0477 213.3759C458.4977 213.3759 430.6677 241.6959 419.4377 276.3659C348.1477 302.7359 320.3077 374.0259 318.3577 478.0259C315.9177 508.7859 312.0077 547.3659 293.9477 566.4059C270.9977 591.3059 243.1677 614.7459 243.1677 642.0859C243.1677 661.1359 257.8077 674.3159 283.2077 674.3159ZM498.0477 787.1059C543.9477 787.1059 577.6377 754.3959 580.5677 714.8459H415.5277C418.9477 754.3959 452.1477 787.1059 498.0477 787.1059Z"/>
</svg>