<?xml version="1.0" encoding="UTF-8" standalone="no"?>
<svg xmlns="http://www.w3.org/2000/svg"
     width="921.38671875" height="1008.7890625"
     viewBox="0 0 921.38671875 1008.7890625"
     fill="currentColor">
  <path d="M0.0044 772.9536C0.0044 808.5936 27.3444 832.0336 73.7344 832.0336H279.7844C283.6944 926.2736 357.4244 1008.7936 460.4444 1008.7936C563.9644 1008.7936 637.6944 926.7536 641.6044 832.0336H847.6544C893.5544 832.0336 921.3844 808.5936 921.3844 772.9536C921.3844 724.1236 871.5844 680.1736 829.5944 636.7236C797.3644 603.0236 788.5744 533.6936 784.6644 477.5436C781.2544 285.1536 731.4444 161.1336 601.5644 114.2536C584.9644 50.2936 532.7144 0.0036 460.4444 0.0036C388.6744 0.0036 335.9344 50.2936 319.8244 114.2536C189.9444 161.1336 140.1344 285.1536 136.7144 477.5436C132.8144 533.6936 124.0244 603.0236 91.7944 636.7236C49.3144 680.1736 0.0044 724.1236 0.0044 772.9536ZM94.7244 758.3036V752.4436C103.5144 738.2836 132.8144 709.4736 158.2044 681.1536C193.3644 642.0936 209.9644 579.1036 214.3544 483.8836C218.2644 270.5036 281.7344 202.6336 365.2344 179.6836C377.4444 176.7536 384.2744 170.8936 384.7644 158.2036C386.2344 107.4236 415.5244 71.7736 460.4444 71.7736C505.8644 71.7736 534.6644 107.4236 536.6244 158.2036C537.1144 170.8936 543.4544 176.7536 555.6644 179.6836C639.6444 202.6336 703.1244 270.5036 707.0344 483.8836C711.4244 579.1036 728.0244 642.0936 762.6944 681.1536C788.5744 709.4736 817.3844 738.2836 826.1744 752.4436V758.3036ZM355.9544 832.0336H565.4344C561.5244 898.4336 519.5344 939.9436 460.4444 939.9436C401.8544 939.9436 359.3744 898.4336 355.9544 832.0336Z"/>
</svg>