<?xml version="1.0" encoding="UTF-8" standalone="no"?>
<svg xmlns="http://www.w3.org/2000/svg"
     width="1741.69921875" height="1027.83203125"
     viewBox="0 0 1741.69921875 1027.83203125"
     fill="currentColor">
  <path d="M483.8877 832.0309H1257.8077C1303.7077 832.0309 1331.5477 808.5909 1331.5477 772.9509C1331.5477 724.1209 1281.7377 680.1709 1239.7477 636.7209C1207.5177 603.0309 1198.7277 533.6909 1194.8277 477.5409C1191.4077 290.0409 1141.5977 161.1309 1011.7177 114.2609C993.1677 50.2909 942.8677 0.0009 870.6077 0.0009C798.8277 0.0009 748.0477 50.2909 729.9777 114.2609C600.0977 161.1309 550.2977 290.0409 546.8777 477.5409C542.9677 533.6909 534.1777 603.0309 501.9577 636.7209C459.4777 680.1709 410.1577 724.1209 410.1577 772.9509C410.1577 808.5909 437.4977 832.0309 483.8877 832.0309ZM1553.2277 847.6609C1568.8477 865.7209 1596.1877 865.7209 1614.7477 845.2109C1695.7977 756.8309 1741.6977 640.1409 1741.6977 513.6709C1741.6977 387.2109 1695.7977 270.0209 1614.7477 182.1309C1596.1877 161.6209 1568.8477 161.1309 1553.2277 179.6909C1537.5977 197.2609 1542.4777 220.2109 1560.0577 240.2309C1625.4877 312.9909 1662.1077 408.6909 1662.1077 513.6709C1662.1077 618.6509 1625.4877 714.3509 1560.0577 787.1109C1542.4777 807.1309 1537.5977 830.0809 1553.2277 847.6609ZM188.4777 847.6609C204.0977 830.0809 199.2177 807.1309 181.6377 787.1109C116.2077 714.3509 79.5877 618.6509 79.5877 513.6709C79.5877 408.6909 116.2077 312.9909 181.6377 240.2309C199.2177 220.2109 204.0977 197.2609 188.4777 179.6909C172.8477 161.1309 145.5077 161.6209 126.9577 182.1309C45.8977 270.0209 -0.0023 387.2109 -0.0023 513.6709C-0.0023 640.1409 45.8977 756.8309 126.9577 845.2109C145.5077 865.7209 172.8477 865.7209 188.4777 847.6609ZM325.1977 708.5009C340.8177 690.9209 334.4777 668.9409 318.8477 647.9509C289.5477 611.3309 275.3877 564.4509 275.3877 513.6709C275.3877 462.8909 289.5477 415.5309 318.8477 379.3909C334.4777 358.4009 340.8177 336.4209 325.1977 318.8509C309.0777 300.2909 279.7877 300.2909 262.6977 322.2609C220.2177 375.0009 195.7977 441.8909 195.7977 513.6709C195.7977 585.4509 220.2177 652.3409 262.6977 705.0809C279.7877 727.0509 309.0777 726.5609 325.1977 708.5009ZM1416.0177 708.5009C1432.6177 726.5609 1461.4277 727.0509 1479.0077 705.0809C1521.4877 652.3409 1545.8977 585.4509 1545.8977 513.6709C1545.8977 441.8909 1521.4877 375.0009 1479.0077 322.2609C1461.4277 300.2909 1432.6177 300.2909 1416.0177 318.8509C1400.8777 336.4209 1407.2277 358.4009 1422.8477 379.3909C1451.6577 415.5309 1466.3077 462.8909 1466.3077 513.6709C1466.3077 564.4509 1451.6577 611.3309 1422.8477 647.9509C1407.2277 668.9409 1400.8777 690.9209 1416.0177 708.5009ZM870.6077 1027.8309C953.6177 1027.8309 1014.1577 967.2809 1020.5077 898.9209H721.1877C727.5377 967.2809 788.0877 1027.8309 870.6077 1027.8309Z"/>
</svg>