<?xml version="1.0" encoding="UTF-8" standalone="no"?>
<svg xmlns="http://www.w3.org/2000/svg"
     width="1012.6953125" height="1093.26171875"
     viewBox="0 0 1012.6953125 1093.26171875"
     fill="currentColor">
  <path d="M755.8609 461.4306C771.4809 461.4306 783.6909 449.7106 783.6909 434.0806V28.3206C783.6909 12.2106 771.4809 0.0006 755.8609 0.0006C740.7209 0.0006 728.5109 12.2106 728.5109 28.3206V434.0806C728.5109 450.1906 740.2309 461.4306 755.8609 461.4306ZM870.1209 413.0906C885.7409 413.0906 897.9509 400.8806 897.9509 385.2506V75.6806C897.9509 61.0306 885.7409 48.8306 870.1209 48.8306C854.9809 48.8306 843.2609 61.0306 843.2609 75.6806V385.2506C843.2609 400.8806 854.9809 413.0906 870.1209 413.0906ZM73.7309 897.4606H847.6609C894.0409 897.4606 921.3909 874.0206 921.3909 838.3806C921.3909 789.5506 872.0709 745.6006 829.5909 702.1506C799.8009 671.8706 788.5709 611.3306 786.6209 561.5206C786.6209 551.7606 786.6209 542.9706 786.1309 534.1806C777.3409 538.5706 767.0909 540.5306 755.8609 540.5306C706.5409 540.5306 666.5009 508.7906 654.3009 464.3506L652.8309 454.1006C649.4109 455.5706 645.5109 456.5406 641.6009 456.5406C593.7509 456.5406 551.7609 423.8306 539.5509 379.8806L538.5709 371.5806C534.6709 373.0506 530.7609 374.0206 526.3709 374.0206C467.7709 374.0206 420.4109 326.6606 420.4109 268.0706V193.8506C420.4109 134.7606 467.7709 86.9106 526.3709 86.9106C528.3209 86.9106 531.2509 86.9106 533.2009 87.4006L533.6909 85.4506C513.1809 73.2406 488.2809 65.4306 460.9409 65.4306C388.6709 65.4306 338.3809 115.7206 319.8209 179.6906C189.9409 226.5606 140.1409 355.4706 136.7209 542.9706C132.8109 599.1206 124.5109 668.4606 92.2809 702.1506C49.8009 745.6006 0.0009 789.5506 0.0009 838.3806C0.0009 874.0206 27.8309 897.4606 73.7309 897.4606ZM641.6009 376.9506C656.7409 376.9506 668.9409 365.2306 668.9409 349.1206V111.8206C668.9409 96.6806 656.7409 84.4706 641.6009 84.4706C625.9809 84.4706 614.2609 96.6806 614.2609 111.8206V349.1206C614.2609 365.2306 625.9809 376.9506 641.6009 376.9506ZM984.8609 320.8006C1000.9809 320.8006 1012.6909 309.0806 1012.6909 293.4606V167.9706C1012.6909 152.3406 1000.9809 140.6206 984.8609 140.6206C969.7309 140.6206 957.5209 152.8306 957.5209 167.9706V293.4606C957.5209 308.5906 969.7309 320.8006 984.8609 320.8006ZM526.3709 294.9206C542.4809 294.9206 554.6909 282.7106 554.6909 268.0706V193.8506C554.6909 178.2206 542.4809 166.0106 526.3709 166.0106C511.7209 166.0106 499.5109 178.2206 499.5109 193.8506V268.0706C499.5109 282.7106 511.7209 294.9206 526.3709 294.9206ZM460.9409 1093.2606C543.4609 1093.2606 604.0009 1032.7106 610.8409 964.3506H311.0309C317.3809 1032.7106 377.9309 1093.2606 460.9409 1093.2606Z"/>
</svg>