<?xml version="1.0" encoding="UTF-8" standalone="no"?>
<svg xmlns="http://www.w3.org/2000/svg"
     width="996.09375" height="996.09375"
     viewBox="0 0 996.09375 996.09375"
     fill="currentColor">
  <path d="M498.0477 996.0959C770.5077 996.0959 996.0977 770.0159 996.0977 498.0459C996.0977 225.5859 770.0177 -0.0041 497.5577 -0.0041C225.5877 -0.0041 -0.0023 225.5859 -0.0023 498.0459C-0.0023 770.0159 226.0777 996.0959 498.0477 996.0959ZM498.0477 913.0859C267.5777 913.0859 83.4977 728.5159 83.4977 498.0459C83.4977 267.5759 267.0877 83.0059 497.5577 83.0059C728.0277 83.0059 913.0877 267.5759 913.0877 498.0459C913.0877 728.5159 728.5177 913.0859 498.0477 913.0859ZM381.8377 297.3659L744.6277 660.1559C749.0277 655.7659 751.9577 649.4159 751.9577 641.6059C751.9577 614.7459 725.0977 590.8159 701.1677 566.4059C682.6177 547.3659 679.1977 508.7859 677.2477 478.0259C675.2977 374.0259 646.9777 302.7359 575.6877 276.3659C564.9377 241.6959 536.6177 213.3759 497.0677 213.3759C458.0077 213.3759 429.6877 241.6959 418.9477 276.3659C404.2977 281.2459 392.0877 288.5759 381.8377 297.3659ZM727.5377 759.7659C735.8377 768.0659 750.4877 768.0659 758.7877 759.7659C767.5777 750.4859 767.5777 737.3059 758.7877 728.5159L267.0877 236.3259C258.2977 227.5359 244.1377 227.5359 235.3477 236.3259C226.5577 244.6259 227.0477 259.2759 235.3477 267.5759ZM587.8877 674.3159L322.7577 409.1759C319.3377 430.1759 317.3877 452.6359 317.3877 478.0259C315.4277 508.7859 311.0377 547.3659 293.4577 566.4059C270.0177 591.3059 242.1877 614.7459 242.1877 642.0859C242.1877 661.1359 257.3277 674.3159 282.2277 674.3159ZM497.0677 787.1059C542.9677 787.1059 576.6577 754.3959 580.0777 714.8459H414.5477C417.9677 754.3959 451.1677 787.1059 497.0677 787.1059Z"/>
</svg>