<?xml version="1.0" encoding="UTF-8" standalone="no"?>
<svg xmlns="http://www.w3.org/2000/svg"
     width="996.09375" height="996.09375"
     viewBox="0 0 996.09375 996.09375"
     fill="currentColor">
  <path d="M498.0477 996.0977C770.5077 996.0977 996.0977 770.5077 996.0977 498.0477C996.0977 226.0777 770.0177 -0.0023 497.5577 -0.0023C225.5877 -0.0023 -0.0023 226.0777 -0.0023 498.0477C-0.0023 770.5077 226.0777 996.0977 498.0477 996.0977ZM132.8077 559.0777C132.8077 480.4677 196.2877 417.9677 274.4177 417.9677C303.2277 417.9677 329.5877 426.2677 352.0477 440.9177L388.1877 398.9277L353.0277 334.9577H324.2177C312.9877 334.9577 303.7077 326.1677 303.7077 315.4277C303.7077 303.2177 312.9877 294.4377 324.2177 294.4377H418.9477C430.6677 294.4377 440.4277 303.7077 440.4277 315.4277C440.4277 326.1677 430.1777 334.9577 418.9477 334.9577H398.9277L428.7077 388.6677L620.6077 363.7677L589.8477 287.5977H533.6877C521.4877 287.5977 512.6977 277.8277 512.6977 266.5977C512.6977 255.3677 521.9777 246.5777 533.6877 246.5777H595.7077C610.3477 246.5777 617.6777 250.9777 623.0477 263.1877L687.9877 422.3677C698.7277 418.9477 710.9377 417.9677 722.6577 417.9677C800.7777 417.9677 864.2577 480.4677 864.2577 559.0777C864.2577 637.2077 800.7777 700.6877 722.6577 700.6877C644.5277 700.6877 581.0577 637.2077 581.0577 559.0777C581.0577 506.8377 609.3777 461.9177 650.8777 437.4977L637.6977 405.7577L510.2577 554.6877C499.0277 566.8977 488.7677 571.7777 468.2577 571.7777H415.5277C408.6877 644.0477 348.1477 700.6877 274.4177 700.6877C196.2877 700.6877 132.8077 637.2077 132.8077 559.0777ZM449.7077 426.7577L496.5777 510.2577L589.3577 402.8277ZM383.7877 468.7477C398.4377 486.8177 409.1777 508.7877 413.5777 532.7177H463.3777L411.1377 438.4777ZM174.3177 558.1077C174.3177 614.7477 219.2377 658.6877 274.8977 658.6877C330.0777 658.6877 374.9977 614.7477 374.9977 558.1077C374.9977 536.1377 367.6777 515.6277 355.9577 499.0277L307.6177 552.7377C307.6177 553.2177 308.1077 556.1477 308.1077 558.5977C308.1077 578.1277 293.4577 592.7777 274.8977 592.7777C255.3677 592.7777 240.7277 578.1277 240.7277 558.5977C240.7277 540.0377 255.8577 523.9277 278.3177 525.3877L324.7077 471.6777C310.0577 463.3777 292.9677 458.0077 274.8977 458.0077C219.2377 458.0077 174.3177 502.9277 174.3177 558.1077ZM622.5577 558.1077C622.5577 614.7477 667.4777 658.6877 723.6377 658.6877C778.8077 658.6877 823.7277 614.7477 823.7277 558.1077C823.7277 502.9277 778.8077 458.0077 723.6377 458.0077C716.3077 458.0077 709.9577 458.9877 703.6177 460.4477L729.9777 525.3877C745.1177 528.8077 756.8377 541.9877 756.8377 558.5977C756.8377 578.1277 742.1877 592.7777 723.6377 592.7777C704.0977 592.7777 689.4577 578.1277 689.4577 558.5977C689.4577 553.2177 690.9177 547.8477 693.3577 543.4577L666.0177 476.0777C640.1377 494.1377 622.5577 523.9277 622.5577 558.1077Z"/>
</svg>