<?xml version="1.0" encoding="UTF-8" standalone="no"?>
<svg xmlns="http://www.w3.org/2000/svg"
     width="1583.0078125" height="980.95703125"
     viewBox="0 0 1583.0078125 980.95703125"
     fill="currentColor">
  <path d="M311.0383 980.9534C467.2883 980.9534 596.6783 865.2334 618.6483 714.8434H697.2683C713.3783 750.0034 749.0283 774.4134 791.0183 774.4134C847.6583 774.4134 893.5583 728.5134 893.5583 672.3634C893.5583 645.0234 882.8083 620.1134 865.2383 601.5634L1104.9783 344.7234L1124.9983 396.4834C1027.3483 449.2234 960.9383 551.7534 960.9383 670.4134C960.9383 842.2834 1100.5883 980.9534 1272.4583 980.9534C1443.8483 980.9534 1583.0083 841.7934 1583.0083 670.4134C1583.0083 498.5334 1443.8483 359.8634 1272.4583 359.8634C1245.6083 359.8634 1219.2383 363.2834 1194.3383 369.6334L1063.4783 32.7134C1054.6883 9.2734 1038.5783 0.0034 1010.2583 0.0034H870.6083C849.6083 0.0034 832.5183 17.0934 832.5183 38.0834C832.5183 59.0834 849.6083 75.6834 870.6083 75.6834H997.0683C1000.9783 75.6834 1001.9483 76.6634 1003.4183 79.1034L1077.6383 272.9534L648.4383 336.4234L584.9583 215.8234H635.7383C656.7383 215.8234 673.8283 199.2234 673.8283 178.2234C673.8283 157.7134 656.2483 140.1334 635.7383 140.1334H443.8483C423.3383 140.1334 405.7583 157.7134 405.7583 178.2234C405.7583 199.2234 422.8483 215.8234 443.8483 215.8234H503.4183L570.7983 346.6834L498.0483 421.8734C446.2883 382.8134 381.3483 359.8634 311.0383 359.8634C139.1583 359.8634 -0.0017 498.5334 -0.0017 670.4134C-0.0017 842.2834 139.1583 980.9534 311.0383 980.9534ZM791.0183 570.3134C784.6683 570.3134 778.8083 570.8034 772.9483 571.7734L683.1083 401.3634L1003.9083 354.4934L798.3383 570.3134C795.8983 570.3134 793.4583 570.3134 791.0183 570.3134ZM620.6083 644.5334C615.2383 579.1034 589.8483 519.5334 550.2883 471.6834L605.9583 414.5534L708.0083 611.8134C701.1683 621.5834 695.7983 632.8134 692.3783 644.5334ZM311.0383 904.2934C181.1483 904.2934 77.1483 800.2934 77.1483 670.4134C77.1483 541.0134 181.6383 436.5234 311.0383 436.5234C360.8383 436.5234 406.2483 451.6634 444.3383 478.0234L319.8283 606.9334C316.8983 606.9334 313.9683 606.4434 311.0383 606.4434C275.3883 606.4434 248.0483 634.2734 247.5583 670.4134C247.0683 705.5634 274.8983 733.8834 311.0383 733.8834C329.0983 733.8834 344.7283 726.5634 356.4483 714.8434H541.0183C520.0183 823.2434 425.2883 904.2934 311.0383 904.2934ZM1272.4583 904.2934C1142.5783 904.2934 1038.0883 800.2934 1038.0883 670.4134C1038.0883 584.9634 1083.9883 509.7634 1152.8283 469.2334L1217.7783 637.6934C1211.9183 646.9734 1208.4983 658.2034 1208.4983 670.4134C1208.0083 705.5634 1236.3283 734.3734 1272.4583 734.3734C1308.1083 734.3734 1335.9383 705.5634 1335.9383 670.4134C1335.9383 639.6434 1315.4283 614.2534 1286.6183 608.3934L1222.1683 441.8934C1238.2783 438.4734 1255.3683 436.5234 1272.4583 436.5234C1401.3683 436.5234 1506.3483 541.9934 1506.3483 670.4134C1506.3483 799.8034 1401.3683 904.2934 1272.4583 904.2934ZM380.8583 644.5334L496.0983 526.8534C521.9683 560.0634 539.0583 600.5834 543.9483 644.5334ZM791.5083 707.5234C771.4883 707.5234 755.8583 691.4034 755.8583 672.8534C755.8583 653.3234 771.4883 637.2034 791.5083 637.2034C811.0383 637.2034 826.1683 652.8334 826.1683 672.8534C826.1683 691.8934 811.0383 707.5234 791.5083 707.5234Z"/>
</svg>