<?xml version="1.0" encoding="UTF-8" standalone="no"?>
<svg xmlns="http://www.w3.org/2000/svg"
     width="1246.58203125" height="926.7578125"
     viewBox="0 0 1246.58203125 926.7578125"
     fill="currentColor">
  <path d="M-0.0017 688.4802C-0.0017 824.7102 122.0683 926.7602 271.4883 926.7602C420.4083 926.7602 541.9883 824.7102 541.9883 688.4802V562.5002C565.9183 553.7102 594.2383 548.8302 623.5383 548.8302C656.7383 548.8302 682.6183 551.7602 704.5883 559.0802V688.4802C704.5883 824.7102 826.1683 926.7602 975.0983 926.7602C1124.0283 926.7602 1246.5783 824.7102 1246.5783 688.4802C1246.5783 652.8302 1241.2083 619.6302 1221.1883 573.2402L1018.5583 100.5902C990.7183 37.1102 932.6183 0.0002 859.3783 0.0002C765.6283 0.0002 704.5883 59.5702 704.5883 148.9302V195.3102C680.1783 189.4502 653.8083 186.5202 623.5383 186.5202C595.2183 186.5202 567.8683 190.9202 541.9883 197.7502V148.9302C541.9883 59.5702 480.9583 0.0002 387.2083 0.0002C313.9683 0.0002 255.3683 37.1102 228.0283 100.5902L24.8983 573.2402C4.8783 619.6302 -0.0017 652.8302 -0.0017 688.4802ZM145.5083 479.4902L294.4383 133.3002C311.0383 94.2402 344.2383 71.2902 384.2783 71.2902C436.0383 71.2902 469.2383 105.4702 469.2383 156.7402V527.8302C420.4083 479.4902 348.1483 450.2002 271.4883 450.2002C228.0283 450.2002 183.5983 460.9402 145.5083 479.4902ZM1101.0783 479.4902C1062.9883 460.9402 1018.5583 450.2002 975.0983 450.2002C898.4383 450.2002 825.6883 479.4902 776.8583 527.8302V156.7402C776.8583 105.4702 810.5483 71.2902 862.3083 71.2902C901.8583 71.2902 935.0583 94.2402 951.6583 133.3002ZM623.5383 250.4902C656.7383 250.4902 682.6183 253.9102 704.5883 260.7402V344.2402C680.1783 338.3802 653.8083 335.9402 623.5383 335.9402C595.2183 335.9402 567.8683 339.8402 541.9883 347.1702V264.6502C565.9183 255.8602 594.2383 250.4902 623.5383 250.4902ZM623.5383 399.9002C656.7383 399.9002 682.6183 402.8302 704.5883 410.1602V493.1602C680.1783 487.3002 653.8083 484.8602 623.5383 484.8602C595.2183 484.8602 567.8683 488.7702 541.9883 496.0902V413.5702C565.9183 404.7802 594.2383 399.9002 623.5383 399.9002ZM76.6583 688.4802C76.6583 590.3302 161.1283 523.4402 271.4883 523.4402C381.3483 523.4402 468.7483 590.3302 468.7483 688.4802C468.7483 786.6202 381.3483 853.5202 271.4883 853.5202C161.1283 853.5202 76.6583 786.6202 76.6583 688.4802ZM1169.4383 688.4802C1169.4383 786.6202 1084.9583 853.5202 975.0983 853.5202C864.7483 853.5202 777.8283 786.6202 777.8283 688.4802C777.8283 590.3302 864.7483 523.4402 975.0983 523.4402C1084.9583 523.4402 1169.4383 590.3302 1169.4383 688.4802Z"/>
</svg>