<?xml version="1.0" encoding="UTF-8" standalone="no"?>
<svg xmlns="http://www.w3.org/2000/svg"
     width="1246.58203125" height="926.7578125"
     viewBox="0 0 1246.58203125 926.7578125"
     fill="currentColor">
  <path d="M-0.0017 688.4802C-0.0017 824.7102 122.0683 926.7602 271.4883 926.7602C420.4083 926.7602 541.9883 824.7102 541.9883 688.4802V563.4802C565.9183 554.2002 594.7283 548.8302 623.5383 548.8302C655.2783 548.8302 682.6183 552.2502 704.5883 560.0602V688.4802C704.5883 824.7102 826.1683 926.7602 975.0983 926.7602C1124.0283 926.7602 1246.5783 824.7102 1246.5783 688.4802C1246.5783 652.8302 1241.2083 619.6302 1221.1883 573.2402L1018.5583 100.5902C990.7183 37.1102 932.6183 0.0002 859.3783 0.0002C765.6283 0.0002 704.5883 59.5702 704.5883 148.9302V196.2902C680.1783 189.9402 653.3183 186.5202 623.5383 186.5202C595.2183 186.5202 567.8683 190.9202 541.9883 199.2202V148.9302C541.9883 59.5702 480.9583 0.0002 387.2083 0.0002C313.9683 0.0002 255.3683 37.1102 228.0283 100.5902L24.8983 573.2402C4.8783 619.6302 -0.0017 652.8302 -0.0017 688.4802ZM541.9883 414.5502V348.1402C567.8683 339.8402 595.2183 335.9402 623.5383 335.9402C653.3183 335.9402 680.1783 338.8702 704.5883 345.2102V410.6402C682.6183 403.3202 655.7583 399.9002 623.5383 399.9002C594.7283 399.9002 565.9183 405.2702 541.9883 414.5502ZM76.6583 688.4802C76.6583 590.3302 161.1283 523.4402 271.4883 523.4402C381.3483 523.4402 468.7483 590.3302 468.7483 688.4802C468.7483 786.6202 381.3483 853.5202 271.4883 853.5202C161.1283 853.5202 76.6583 786.6202 76.6583 688.4802ZM777.8283 688.4802C777.8283 590.3302 864.7483 523.4402 975.0983 523.4402C1084.9583 523.4402 1169.4383 590.3302 1169.4383 688.4802C1169.4383 786.6202 1084.9583 853.5202 975.0983 853.5202C864.7483 853.5202 777.8283 786.6202 777.8283 688.4802Z"/>
</svg>