<?xml version="1.0" encoding="UTF-8" standalone="no"?>
<svg xmlns="http://www.w3.org/2000/svg"
     width="1147.1392381277847" height="1280.5641857161547"
     viewBox="0 0 1147.1392381277847 1280.5641857161547"
     fill="currentColor">
  <path d="M816.8209 313.25C804.6109 313.25 792.8909 314.72 781.6609 316.67C715.2509 176.53 626.3909 77.41 507.7309 9.54C470.1409 -11.94 432.0509 4.17 421.8009 44.7C401.2909 118.43 391.0409 189.23 394.9409 261.98C290.9409 207.78 175.2109 169.7 59.9809 160.91C10.1809 157.49 1.8709 196.06 0.9009 224.87C-14.7291 469.5 175.2109 682.39 419.3609 710.22C354.9009 853.78 267.9909 990.5 147.3809 1104.76C127.8509 1122.82 133.2209 1148.21 145.4309 1166.28C203.0509 1255.15 383.2209 1307.88 504.8009 1265.89C534.1009 1255.63 538.9809 1239.52 538.9809 1217.06V1035.91C672.2909 1028.58 883.2209 940.69 848.5509 669.7L843.6709 635.52C900.3109 621.36 946.2109 594.5 976.0009 561.79L1113.2009 581.32C1146.4109 586.2 1162.0309 536.88 1128.3409 522.72L1011.1509 472.92C1006.7609 395.28 920.3309 313.25 816.8209 313.25ZM482.3409 94.5C483.8109 85.71 492.6009 82.78 499.9209 87.18C592.7009 147.72 662.5209 229.27 718.6709 346.45C691.3309 367.94 667.8909 401.14 648.3609 446.55C597.5809 395.77 537.0309 347.43 469.6509 304.95C459.8809 231.71 465.2509 164.81 482.3409 94.5ZM821.2109 383.56C891.0409 383.56 941.3309 434.35 941.3309 479.76C941.3309 516.86 892.0109 559.83 797.2909 573.02C782.6409 574.48 771.8909 585.22 773.3609 598.9L779.7109 671.65C800.7009 922.63 606.3709 958.27 493.0909 963.64C478.9309 964.13 468.1809 973.9 468.1809 988.54V1202.41C468.1809 1207.29 466.2309 1211.2 460.8609 1211.69C366.1309 1228.78 263.1109 1194.6 214.2809 1144.31C210.8609 1140.89 209.3909 1135.52 213.3009 1132.1C345.1409 1005.63 434.9809 852.31 502.3609 691.18C511.6409 668.72 502.8509 650.65 479.9009 649.68C247.4809 643.82 73.1609 472.92 71.2109 241.96C71.2109 234.64 72.6809 232.69 80.4909 233.66C286.5409 259.05 481.3709 375.75 593.1809 491.47C613.2009 511.49 627.3609 521.75 646.8909 521.75C678.6309 521.75 693.7709 506.12 709.8809 473.41C738.2009 414.81 763.1109 383.56 821.2109 383.56ZM853.4409 492.45C869.5509 492.45 883.2209 479.27 883.2209 462.67C883.2209 446.55 869.5509 432.39 853.4409 432.39C836.3509 432.39 823.1609 446.55 823.1609 462.67C823.1609 479.27 836.3509 492.45 853.4409 492.45Z"/>
</svg>