<?xml version="1.0" encoding="UTF-8" standalone="no"?>
<svg xmlns="http://www.w3.org/2000/svg"
     width="1124.51171875" height="1106.0479922678546"
     viewBox="0 0 1124.51171875 1106.0479922678546"
     fill="currentColor">
  <path d="M243.6483 560.6413H881.3483V526.4613C881.3483 429.7813 831.5383 380.4613 733.3983 380.4613H588.8683V178.3113C611.3283 167.0813 626.4683 141.6913 626.4683 111.9113C626.4683 69.9113 613.2783 42.5713 589.8483 15.2313C574.2183 -4.2987 553.2183 -4.7887 537.1083 12.3013C513.6683 40.6213 498.5383 68.4513 498.5383 111.9113C498.5383 141.2013 513.1883 166.1113 534.6683 177.8213V380.4613H391.5983C293.9483 380.4613 243.6483 429.7813 243.6483 526.4613ZM899.8983 627.0413H225.0983C127.4383 627.0413 77.1483 676.3613 77.1483 773.0413V858.0013H95.6983C165.0383 858.0013 198.7283 801.3613 265.1383 801.3613C330.0783 801.3613 356.4483 858.0013 409.6683 858.0013C472.1683 858.0013 495.6083 801.3613 562.0083 801.3613C628.4183 801.3613 651.8583 858.0013 714.8483 858.0013C768.0683 858.0013 793.9483 801.3613 859.3783 801.3613C924.8083 801.3613 958.9883 858.0013 1027.8283 858.0013H1047.3683V773.0413C1047.3683 676.3613 997.5583 627.0413 899.8983 627.0413ZM39.0583 1106.0513H1085.4483C1106.9383 1106.0513 1124.5083 1087.9813 1124.5083 1066.5013C1124.5083 1045.0113 1106.9383 1027.4313 1085.4483 1027.4313H1047.3683V922.4513H1027.8283C937.0083 922.4513 904.2983 865.8113 859.3783 865.8113C813.4783 865.8113 781.7383 922.4513 714.8483 922.4513C644.5283 922.4513 609.8683 865.8113 562.0083 865.8113C513.6683 865.8113 479.4883 922.4513 409.6683 922.4513C342.2883 922.4513 310.0583 865.8113 265.1383 865.8113C219.2383 865.8113 187.0083 922.4513 95.6983 922.4513H77.1483V1027.4313H39.0583C17.5783 1027.4313 -0.0017 1045.0113 -0.0017 1066.5013C-0.0017 1087.9813 17.5783 1106.0513 39.0583 1106.0513Z"/>
</svg>