<?xml version="1.0" encoding="UTF-8" standalone="no"?>
<svg xmlns="http://www.w3.org/2000/svg"
     width="996.09375" height="996.09375"
     viewBox="0 0 996.09375 996.09375"
     fill="currentColor">
  <path d="M498.0477 996.0959C770.5077 996.0959 996.0977 770.0159 996.0977 498.0459C996.0977 225.5859 770.0177 -0.0041 497.5577 -0.0041C225.5877 -0.0041 -0.0023 225.5859 -0.0023 498.0459C-0.0023 770.0159 226.0777 996.0959 498.0477 996.0959ZM498.0477 913.0859C267.5777 913.0859 83.4977 728.5159 83.4977 498.0459C83.4977 267.5759 267.0877 83.0059 497.5577 83.0059C728.0277 83.0059 913.0877 267.5759 913.0877 498.0459C913.0877 728.5159 728.5177 913.0859 498.0477 913.0859ZM359.8677 694.3359C359.8677 716.7959 375.4877 732.4259 398.4377 732.4259H418.9477V770.9959C418.9477 785.1559 428.7077 794.9259 442.3877 794.9259C456.0577 794.9259 465.8177 785.1559 465.8177 770.9959V732.4259H497.5577V770.9959C497.5577 785.1559 507.8077 794.9259 520.9977 794.9259C534.6677 794.9259 544.9177 785.1559 544.9177 770.9959V730.9559C625.9777 722.1659 673.3377 675.2959 673.3377 603.5159C673.3377 548.3359 640.6277 507.3259 590.3277 492.1859C626.4677 474.6059 651.3677 436.0359 651.3677 394.5359C651.3677 333.9859 609.8677 290.0359 544.9177 280.2759V240.7259C544.9177 226.5659 534.6677 216.7959 520.9977 216.7959C507.8077 216.7959 497.5577 226.5659 497.5577 240.7259V278.3159H465.8177V240.7259C465.8177 226.5659 456.0577 216.7959 442.3877 216.7959C428.7077 216.7959 418.9477 226.5659 418.9477 240.7259V278.3159H398.4377C375.9777 278.3159 359.8677 293.9459 359.8677 316.8959ZM422.3677 469.7259V334.9559H505.8577C558.5977 334.9559 588.8677 357.9059 588.8677 399.4159C588.8677 445.3159 554.6877 470.7059 492.1877 470.2159ZM422.3677 675.2959V526.8559H504.8877C574.7077 526.8559 610.8377 551.7559 610.8377 601.0759C610.8377 649.4159 576.1677 674.3159 510.2577 674.8059Z"/>
</svg>