<?xml version="1.0" encoding="UTF-8" standalone="no"?>
<svg xmlns="http://www.w3.org/2000/svg"
     width="898.92578125" height="898.92578125"
     viewBox="0 0 898.92578125 898.92578125"
     fill="currentColor">
  <path d="M153.3183 898.9295H745.6083C848.1483 898.9295 898.9283 848.1495 898.9283 747.5595V151.3695C898.9283 50.7795 848.1483 -0.0005 745.6083 -0.0005H153.3183C51.2683 -0.0005 -0.0017 50.2895 -0.0017 151.3695V747.5595C-0.0017 848.6295 51.2683 898.9295 153.3183 898.9295ZM312.0083 645.0195V267.5795C312.0083 244.6295 328.1283 228.9995 350.5883 228.9995H371.0983V191.4095C371.0983 177.2495 381.3483 167.4795 394.5283 167.4795C408.1983 167.4795 418.4583 177.2495 418.4583 191.4095V228.9995H449.7083V191.4095C449.7083 177.2495 459.9583 167.4795 473.6283 167.4795C486.8183 167.4795 497.0683 177.2495 497.0683 191.4095V230.9595C562.4983 240.7195 604.0083 284.6695 604.0083 345.2195C604.0083 386.7195 578.6183 425.2895 542.4783 442.8695C593.2583 458.0095 625.4883 499.0195 625.4883 554.1995C625.4883 625.9795 578.1283 672.8495 497.0683 681.6395V721.6795C497.0683 735.8395 486.8183 745.6095 473.6283 745.6095C459.9583 745.6095 449.7083 735.8395 449.7083 721.6795V683.1095H418.4583V721.6795C418.4583 735.8395 408.1983 745.6095 394.5283 745.6095C381.3483 745.6095 371.0983 735.8395 371.0983 721.6795V683.1095H350.5883C327.6383 683.1095 312.0083 667.4795 312.0083 645.0195ZM374.9983 420.4095L444.3383 420.8995C506.8383 421.3895 541.0183 395.9995 541.0183 350.0995C541.0183 308.5895 510.7383 285.6395 458.4983 285.6395H374.9983ZM374.9983 625.9795L462.8883 625.4895C528.3183 624.9995 562.9883 600.0995 562.9883 551.7595C562.9883 502.4395 526.8583 477.5395 457.0283 477.5395H374.9983Z"/>
</svg>