<?xml version="1.0" encoding="UTF-8" standalone="no"?>
<svg xmlns="http://www.w3.org/2000/svg"
     width="1036.62109375" height="997.5502403874577"
     viewBox="0 0 1036.62109375 997.5502403874577"
     fill="currentColor">
  <path d="M0.0034 39.0642C0.0034 60.5442 18.0634 78.6142 39.5534 78.6142H997.0734C1018.5534 78.6142 1036.6234 60.5442 1036.6234 39.0642C1036.6234 17.5742 1018.5534 0.0042 997.0734 0.0042H39.5534C18.0634 0.0042 0.0034 17.5742 0.0034 39.0642ZM158.6934 896.9742C158.6934 920.4142 164.0634 935.5442 176.2734 947.7542L217.7734 990.2342C230.9534 1003.4142 258.3034 999.0242 258.3034 975.0942V223.6342C258.3034 199.7042 252.9334 185.0542 240.7234 172.3642L199.2234 130.3742C186.0334 116.6942 158.6934 121.0942 158.6934 145.0242ZM405.2734 896.9742C405.2734 920.4142 410.1534 935.5442 422.8534 947.7542L464.3534 990.2342C477.5434 1003.4142 504.3934 999.0242 504.3934 975.0942V223.6342C504.3934 199.7042 499.5134 185.0542 486.8134 172.3642L445.3134 130.3742C432.1334 116.6942 405.2734 121.0942 405.2734 145.0242ZM651.3634 896.9742C651.3634 920.4142 656.7334 935.5442 668.9434 947.7542L710.4534 990.2342C723.6334 1003.4142 750.9734 999.0242 750.9734 975.0942V223.6342C750.9734 199.7042 745.6034 185.0542 733.4034 172.3642L691.8934 130.3742C678.7134 116.6942 651.3634 121.0942 651.3634 145.0242ZM897.9534 896.9742C897.9534 920.4142 902.8334 935.5442 915.5234 947.7542L957.0334 990.2342C970.2134 1003.4142 997.0734 999.0242 997.0734 975.0942V223.6342C997.0734 199.7042 992.1834 185.0542 979.4934 172.3642L937.9834 130.3742C924.8034 116.6942 897.9534 121.0942 897.9534 145.0242ZM39.5534 191.8942C57.6134 191.8942 72.7534 176.7542 72.7534 158.6942C72.7534 140.1342 57.6134 125.4842 39.5534 125.4842C20.9934 125.4842 5.8634 140.1342 5.8634 158.6942C5.8634 176.7542 20.9934 191.8942 39.5534 191.8942ZM39.5534 305.1742C57.6134 305.1742 72.7534 289.5542 72.7534 271.4842C72.7534 253.4142 57.6134 238.2842 39.5534 238.2842C20.9934 238.2842 5.8634 253.4142 5.8634 271.4842C5.8634 289.5542 20.9934 305.1742 39.5534 305.1742ZM39.5534 417.9642C57.6134 417.9642 72.7534 402.8342 72.7534 384.7642C72.7534 366.2142 57.6134 351.5642 39.5534 351.5642C20.9934 351.5642 5.8634 366.2142 5.8634 384.7642C5.8634 402.8342 20.9934 417.9642 39.5534 417.9642ZM39.5534 531.2542C57.6134 531.2542 72.7534 515.6242 72.7534 497.5542C72.7534 479.4942 57.6134 464.3542 39.5534 464.3542C20.9934 464.3542 5.8634 479.4942 5.8634 497.5542C5.8634 515.6242 20.9934 531.2542 39.5534 531.2542ZM39.5534 644.0442C57.6134 644.0442 72.7534 628.9042 72.7534 610.8442C72.7534 592.2842 57.6134 577.6342 39.5534 577.6342C20.9934 577.6342 5.8634 592.2842 5.8634 610.8442C5.8634 628.9042 20.9934 644.0442 39.5534 644.0442ZM39.5534 757.3242C57.6134 757.3242 72.7534 741.6942 72.7534 723.6342C72.7534 705.5642 57.6134 690.4342 39.5534 690.4342C20.9934 690.4342 5.8634 705.5642 5.8634 723.6342C5.8634 741.6942 20.9934 757.3242 39.5534 757.3242ZM39.5534 997.0742C60.5434 997.0742 78.6134 979.4942 78.6134 958.0042V842.7742C78.6134 821.2842 61.0334 803.7142 39.5534 803.7142C18.0634 803.7142 0.0034 821.2842 0.0034 842.7742V958.0042C0.0034 979.4942 18.0634 997.0742 39.5534 997.0742Z"/>
</svg>