<?xml version="1.0" encoding="UTF-8" standalone="no"?>
<svg xmlns="http://www.w3.org/2000/svg"
     width="1036.62109375" height="997.0703125"
     viewBox="0 0 1036.62109375 997.0703125"
     fill="currentColor">
  <path d="M0.0034 39.0642C0.0034 60.5442 18.0634 78.6142 39.5534 78.6142H997.0734C1018.5534 78.6142 1036.6234 60.5442 1036.6234 39.0642C1036.6234 17.5742 1018.5534 0.0042 997.0734 0.0042H39.5534C18.0634 0.0042 0.0034 17.5742 0.0034 39.0642ZM192.8734 997.0742H298.8234C319.8234 997.0742 333.4934 983.3942 333.4934 961.9142V157.7142C333.4934 136.2342 319.8234 122.5542 298.8234 122.5542H192.8734C172.3634 122.5542 158.6934 136.2342 158.6934 157.7142V961.9142C158.6934 983.3942 172.3634 997.0742 192.8734 997.0742ZM414.0634 997.0742H520.5034C540.5234 997.0742 554.2034 983.3942 554.2034 961.9142V157.7142C554.2034 136.2342 540.5234 122.5542 520.5034 122.5542H414.0634C393.0634 122.5542 379.3934 136.2342 379.3934 157.7142V961.9142C379.3934 983.3942 393.0634 997.0742 414.0634 997.0742ZM634.7634 997.0742H741.2134C762.2034 997.0742 775.8834 983.3942 775.8834 961.9142V157.7142C775.8834 136.2342 762.2034 122.5542 741.2134 122.5542H634.7634C614.7434 122.5542 601.0734 136.2342 601.0734 157.7142V961.9142C601.0734 983.3942 614.7434 997.0742 634.7634 997.0742ZM856.4434 997.0742H962.4034C982.9134 997.0742 996.5834 983.3942 996.5834 961.9142V157.7142C996.5834 136.2342 982.9134 122.5542 962.4034 122.5542H856.4434C835.9334 122.5542 821.7734 136.2342 821.7734 157.7142V961.9142C821.7734 983.3942 835.9334 997.0742 856.4434 997.0742ZM39.5534 191.8942C57.6134 191.8942 72.7534 176.7542 72.7534 158.6942C72.7534 140.1342 57.6134 125.4842 39.5534 125.4842C20.9934 125.4842 5.8634 140.1342 5.8634 158.6942C5.8634 176.7542 20.9934 191.8942 39.5534 191.8942ZM39.5534 305.1742C57.6134 305.1742 72.7534 289.5542 72.7534 271.4842C72.7534 253.4142 57.6134 238.2842 39.5534 238.2842C20.9934 238.2842 5.8634 253.4142 5.8634 271.4842C5.8634 289.5542 20.9934 305.1742 39.5534 305.1742ZM39.5534 417.9642C57.6134 417.9642 72.7534 402.8342 72.7534 384.7642C72.7534 366.2142 57.6134 351.5642 39.5534 351.5642C20.9934 351.5642 5.8634 366.2142 5.8634 384.7642C5.8634 402.8342 20.9934 417.9642 39.5534 417.9642ZM39.5534 531.2542C57.6134 531.2542 72.7534 515.6242 72.7534 497.5542C72.7534 479.4942 57.6134 464.3542 39.5534 464.3542C20.9934 464.3542 5.8634 479.4942 5.8634 497.5542C5.8634 515.6242 20.9934 531.2542 39.5534 531.2542ZM39.5534 644.0442C57.6134 644.0442 72.7534 628.9042 72.7534 610.8442C72.7534 592.2842 57.6134 577.6342 39.5534 577.6342C20.9934 577.6342 5.8634 592.2842 5.8634 610.8442C5.8634 628.9042 20.9934 644.0442 39.5534 644.0442ZM39.5534 757.3242C57.6134 757.3242 72.7534 741.6942 72.7534 723.6342C72.7534 705.5642 57.6134 690.4342 39.5534 690.4342C20.9934 690.4342 5.8634 705.5642 5.8634 723.6342C5.8634 741.6942 20.9934 757.3242 39.5534 757.3242ZM39.5534 997.0742C60.5434 997.0742 78.6134 979.4942 78.6134 958.0042V842.7742C78.6134 821.2842 61.0334 803.7142 39.5534 803.7142C18.0634 803.7142 0.0034 821.2842 0.0034 842.7742V958.0042C0.0034 979.4942 18.0634 997.0742 39.5534 997.0742Z"/>
</svg>