<?xml version="1.0" encoding="UTF-8" standalone="no"?>
<svg xmlns="http://www.w3.org/2000/svg"
     width="1036.62109375" height="997.0703125"
     viewBox="0 0 1036.62109375 997.0703125"
     fill="currentColor">
  <path d="M0.0034 39.0642C0.0034 60.5442 18.0634 78.6142 39.5534 78.6142H997.0734C1018.5534 78.6142 1036.6234 60.5442 1036.6234 39.0642C1036.6234 17.5742 1018.5534 0.0042 997.0734 0.0042H39.5534C18.0634 0.0042 0.0034 17.5742 0.0034 39.0642ZM39.5534 191.8942C57.6134 191.8942 72.7534 176.7542 72.7534 158.6942C72.7534 140.1342 57.6134 125.4842 39.5534 125.4842C20.9934 125.4842 5.8634 140.1342 5.8634 158.6942C5.8634 176.7542 20.9934 191.8942 39.5534 191.8942ZM153.3234 230.9542H895.5034C919.4334 230.9542 934.0834 225.5842 946.7734 213.3742L988.7734 171.8742C1002.4434 158.6942 998.0434 131.3442 974.1234 131.3442H231.9334C208.0034 131.3442 193.3634 136.7142 180.6634 148.9242L138.6734 190.4342C125.0034 203.6142 129.3934 230.9542 153.3234 230.9542ZM39.5534 305.1742C57.6134 305.1742 72.7534 289.5542 72.7534 271.4842C72.7534 253.4142 57.6134 238.2842 39.5534 238.2842C20.9934 238.2842 5.8634 253.4142 5.8634 271.4842C5.8634 289.5542 20.9934 305.1742 39.5534 305.1742ZM39.5534 417.9642C57.6134 417.9642 72.7534 402.8342 72.7534 384.7642C72.7534 366.2142 57.6134 351.5642 39.5534 351.5642C20.9934 351.5642 5.8634 366.2142 5.8634 384.7642C5.8634 402.8342 20.9934 417.9642 39.5534 417.9642ZM153.3234 482.9142H895.5034C919.4334 482.9142 934.0834 478.0242 946.7734 465.8242L988.7734 423.8242C1002.4434 411.1342 998.0434 383.7842 974.1234 383.7842H231.9334C208.0034 383.7842 193.3634 389.1642 180.6634 401.3642L138.6734 442.8742C125.0034 456.0542 129.3934 482.9142 153.3234 482.9142ZM39.5534 531.2542C57.6134 531.2542 72.7534 515.6242 72.7534 497.5542C72.7534 479.4942 57.6134 464.3542 39.5534 464.3542C20.9934 464.3542 5.8634 479.4942 5.8634 497.5542C5.8634 515.6242 20.9934 531.2542 39.5534 531.2542ZM39.5534 644.0442C57.6134 644.0442 72.7534 628.9042 72.7534 610.8442C72.7534 592.2842 57.6134 577.6342 39.5534 577.6342C20.9934 577.6342 5.8634 592.2842 5.8634 610.8442C5.8634 628.9042 20.9934 644.0442 39.5534 644.0442ZM153.3234 733.8842H895.5034C919.4334 733.8842 934.0834 728.5142 946.7734 715.8242L988.7734 674.3142C1002.4434 661.6242 998.0434 634.7642 974.1234 634.7642H231.9334C208.0034 634.7642 193.3634 639.6442 180.6634 652.3442L138.6734 693.8442C125.0034 707.0342 129.3934 733.8842 153.3234 733.8842ZM39.5534 757.3242C57.6134 757.3242 72.7534 741.6942 72.7534 723.6342C72.7534 705.5642 57.6134 690.4342 39.5534 690.4342C20.9934 690.4342 5.8634 705.5642 5.8634 723.6342C5.8634 741.6942 20.9934 757.3242 39.5534 757.3242ZM39.5534 997.0742C60.5434 997.0742 78.6134 979.4942 78.6134 958.0042V842.7742C78.6134 821.2842 61.0334 803.7142 39.5534 803.7142C18.0634 803.7142 0.0034 821.2842 0.0034 842.7742V958.0042C0.0034 979.4942 18.0634 997.0742 39.5534 997.0742ZM153.3234 986.3242H895.5034C919.4334 986.3242 934.0834 980.4642 946.7734 967.7742L988.7734 926.2742C1002.4434 913.5742 998.0434 886.2342 974.1234 886.2342H231.9334C208.0034 886.2342 193.3634 891.6042 180.6634 904.2942L138.6734 945.8042C125.0034 958.9842 129.3934 986.3242 153.3234 986.3242Z"/>
</svg>