<?xml version="1.0" encoding="UTF-8" standalone="no"?>
<svg xmlns="http://www.w3.org/2000/svg"
     width="1306.15234375" height="872.0703125"
     viewBox="0 0 1306.15234375 872.0703125"
     fill="currentColor">
  <path d="M1021.9683 722.1706C1197.7583 722.1706 1306.1483 616.7006 1306.1483 463.3806V44.9206C1306.1483 17.5806 1288.0883 0.0006 1260.7383 0.0006C1233.3983 0.0006 1215.8183 17.5806 1215.8183 44.9206V456.0506C1215.8183 564.9406 1144.0383 638.6706 1021.9683 638.6706C899.8983 638.6706 828.1283 564.9406 828.1283 456.0506V44.9206C828.1283 17.5806 809.5683 0.0006 782.2283 0.0006C754.8783 0.0006 737.7883 17.5806 737.7883 44.9206V463.3806C737.7883 616.7006 846.1883 722.1706 1021.9683 722.1706ZM82.5183 709.4706H336.9183C486.3283 709.4706 580.5683 630.8606 580.5683 510.2506C580.5683 415.0406 511.7183 346.1906 412.5983 340.8206V336.9106C493.6483 325.6806 548.8283 264.6506 548.8283 187.0106C548.8283 78.1206 465.3283 11.2306 330.0783 11.2306H82.5183C30.2783 11.2306 -0.0017 41.9906 -0.0017 95.7006V625.4906C-0.0017 678.7106 30.2783 709.4706 82.5183 709.4706ZM161.1283 301.2706V125.9806H281.2483C349.6083 125.9806 390.1383 157.2306 390.1383 210.9406C390.1383 267.5806 345.2183 301.2706 269.0383 301.2706ZM161.1283 596.6806V402.8306H283.6883C369.1383 402.8306 416.9883 436.0306 416.9883 498.5306C416.9883 562.5006 371.0983 596.6806 287.1083 596.6806ZM766.5983 872.0706H1277.3483C1292.9683 872.0706 1306.1483 859.8606 1306.1483 843.2606C1306.1483 826.6606 1292.9683 813.9606 1277.3483 813.9606H766.5983C750.9783 813.9606 737.7883 826.6606 737.7883 843.2606C737.7883 859.8606 750.9783 872.0706 766.5983 872.0706Z"/>
</svg>