<?xml version="1.0" encoding="UTF-8" standalone="no"?>
<svg xmlns="http://www.w3.org/2000/svg"
     width="970.21484375" height="896.484375"
     viewBox="0 0 970.21484375 896.484375"
     fill="currentColor">
  <path d="M484.8683 896.4845C495.1183 896.4845 509.7683 889.6445 520.5083 883.3045C795.8983 707.5145 970.2183 502.9345 970.2183 294.9245C970.2183 122.0745 851.5583 0.0045 697.7583 0.0045C602.5383 0.0045 529.2983 52.7345 484.8683 133.3045C441.4083 53.2245 367.6783 0.0045 271.9683 0.0045C118.6483 0.0045 -0.0017 122.0745 -0.0017 294.9245C-0.0017 502.9345 174.3183 707.5145 449.7083 883.3045C459.9583 889.6445 475.0983 896.4845 484.8683 896.4845ZM321.2883 498.0445C321.2883 492.6745 323.7283 488.2845 327.6383 483.3945L529.2983 229.9845C544.4383 210.9345 569.8283 223.6345 561.0383 247.5545L494.6283 425.7845H619.1383C628.4183 425.7845 636.7183 433.1045 636.7183 441.8945C636.7183 446.7745 634.2783 452.1445 629.8783 456.5445L428.7083 709.9645C413.0883 729.0045 387.6983 715.8245 396.4883 692.3845L463.3783 513.6745H338.3783C329.0983 513.6745 321.2883 506.8345 321.2883 498.0445Z"/>
</svg>