<?xml version="1.0" encoding="UTF-8" standalone="no"?>
<svg xmlns="http://www.w3.org/2000/svg"
     width="1155.2734375" height="905.76171875"
     viewBox="0 0 1155.2734375 905.76171875"
     fill="currentColor">
  <path d="M89.8483 905.7623H146.9683C183.5983 905.7623 211.9183 877.4423 211.9183 841.3123V761.2323C318.3583 767.0923 461.4283 771.4823 577.6383 771.4823C693.8483 771.4823 836.9183 767.0923 943.8483 761.2323V841.3123C943.8483 877.4423 971.6783 905.7623 1008.2983 905.7623H1065.9183C1102.5383 905.7623 1130.3683 877.4423 1130.3683 841.3123V717.7723C1146.9683 700.1923 1155.2783 676.2723 1155.2783 645.9923V560.0623C1155.2783 477.5423 1138.6683 431.6423 1093.7483 373.0423L1052.2483 319.8223C1034.6683 231.9323 1001.9483 139.6523 985.3483 103.5123C958.9883 48.3423 908.6883 15.6223 843.7483 6.8323C811.0383 2.4423 704.0983 0.0023 577.6383 0.0023C451.6583 0.0023 344.7283 2.9323 312.0083 6.8323C247.0683 14.6523 196.2883 48.3423 170.4083 103.5123C153.3183 139.6523 121.0983 231.9323 103.0283 319.8223L62.0083 373.0423C16.5983 431.6423 -0.0017 477.5423 -0.0017 560.0623V645.9923C-0.0017 676.2723 8.7883 700.1923 24.8983 717.7723V841.3123C24.8983 877.4423 53.2183 905.7623 89.8483 905.7623ZM577.6383 707.5223C411.6183 707.5223 198.7283 699.7023 120.1183 689.9423C78.6183 685.0623 63.9683 663.5723 63.9683 626.4623V560.0623C63.9683 493.1623 74.7083 461.9123 112.7883 412.1123L162.5983 346.6823C175.7783 275.8823 207.5183 177.2423 228.5183 132.3223C244.1383 98.6323 274.8983 77.6323 319.3383 72.2623C350.5883 68.3623 449.7083 63.9623 577.6383 63.9623C706.0583 63.9623 806.6383 68.3623 834.9583 72.2623C880.8583 78.1223 911.1283 99.1223 927.2483 132.3223C948.2383 177.2423 979.9783 275.8823 992.6783 346.6823L1042.9683 412.1123C1080.5683 461.9123 1091.3083 493.1623 1091.3083 560.0623V626.4623C1091.3083 663.5723 1076.6583 685.0623 1035.1583 689.9423C957.0283 699.7023 743.6483 707.5223 577.6383 707.5223ZM423.3383 415.0423C423.3383 423.8323 430.6683 430.1723 439.9383 430.1723H561.0383L496.0983 603.5123C487.3083 626.4623 512.2083 639.1623 527.3483 620.6023L722.1683 375.0023C726.5583 370.6023 729.0083 365.2323 729.0083 360.8423C729.0083 352.0523 721.1883 345.2123 711.9183 345.2123H591.3083L655.7583 172.3623C664.0583 148.9223 639.6483 136.7223 624.9983 155.2723L429.1983 400.8823C425.7783 405.7623 423.3383 410.1523 423.3383 415.0423Z"/>
</svg>