<?xml version="1.0" encoding="UTF-8" standalone="no"?>
<svg xmlns="http://www.w3.org/2000/svg"
     width="996.09375" height="996.09375"
     viewBox="0 0 996.09375 996.09375"
     fill="currentColor">
  <path d="M498.0477 996.0959C770.5077 996.0959 996.0977 770.0159 996.0977 498.0459C996.0977 225.5859 770.0177 -0.0041 497.5577 -0.0041C225.5877 -0.0041 -0.0023 225.5859 -0.0023 498.0459C-0.0023 770.0159 226.0777 996.0959 498.0477 996.0959ZM498.0477 913.0859C267.5777 913.0859 83.4977 728.5159 83.4977 498.0459C83.4977 267.5759 267.0877 83.0059 497.5577 83.0059C728.0277 83.0059 913.0877 267.5759 913.0877 498.0459C913.0877 728.5159 728.5177 913.0859 498.0477 913.0859ZM283.6877 531.7359C283.6877 543.9459 293.4577 552.7359 306.1477 552.7359H471.6777L383.2977 790.0359C371.5777 821.2859 404.7877 838.3759 425.2977 812.9859L692.8677 477.0459C698.2377 471.1959 701.1677 464.3559 701.1677 458.0059C701.1677 445.7959 691.4077 437.0159 678.7077 437.0159H513.1877L601.5577 199.7059C613.2777 168.4559 580.0777 151.3659 559.5677 176.2659L291.9877 512.2059C286.6177 518.5559 283.6877 525.3859 283.6877 531.7359Z"/>
</svg>