<?xml version="1.0" encoding="UTF-8" standalone="no"?>
<svg xmlns="http://www.w3.org/2000/svg"
     width="687.98828125" height="1091.1646852923095"
     viewBox="0 0 687.98828125 1091.1646852923095"
     fill="currentColor">
  <path d="M231.4413 1070.9078L675.2913 500.0978C683.5912 489.8478 687.9913 480.0778 687.9913 468.8478C687.9913 450.2978 673.3412 436.1378 652.8313 436.1378H376.9512L522.4612 56.2578C541.9913 5.9578 488.2813 -21.3822 456.5413 20.6078L12.6912 590.9178C4.3913 601.6678 0.0012 611.4278 0.0012 622.1678C0.0012 641.2178 14.6513 655.3778 35.1612 655.3778H311.0313L165.5313 1034.7678C145.9912 1085.0678 199.7113 1112.4078 231.4413 1070.9078ZM423.8313 582.6178H122.0713L397.4612 216.8978L264.1613 508.8878H565.4313L290.0413 874.6178Z"/>
</svg>