<?xml version="1.0" encoding="UTF-8" standalone="no"?>
<svg xmlns="http://www.w3.org/2000/svg"
     width="1345.797437091286" height="603.515625"
     viewBox="0 0 1345.797437091286 603.515625"
     fill="currentColor">
  <path d="M16.6708 488.2825C-29.7192 547.8525 29.8508 596.1925 83.5708 564.9425L437.5708 362.7925L857.4908 587.8925C877.0208 597.6525 893.6208 603.5125 909.7408 603.5125C932.2008 603.5125 952.7108 593.2625 972.2408 568.3625L1331.6108 114.2625C1370.6708 64.9425 1322.8208 3.9025 1263.7408 37.1125L909.7408 240.7225L489.3308 15.6225C470.2808 4.8825 452.7108 0.0025 437.0808 0.0025C414.1308 0.0025 394.6008 10.2525 375.0708 35.1525ZM127.5108 469.2425C121.6508 472.1725 118.7208 467.2825 122.6308 462.8925L431.7108 88.3825C438.5508 79.5925 444.8908 78.6125 454.1708 83.4925L892.1608 317.3825C912.6708 328.1225 919.0108 325.1925 935.1308 314.9425L1221.2608 132.8125C1225.6608 129.8825 1230.5408 134.7625 1226.6308 139.1625L916.0908 515.1325C909.2508 523.4325 902.4108 524.9025 893.6208 520.0225L455.1508 286.1325C434.6408 275.3925 428.2908 277.8325 412.1808 288.0825Z"/>
</svg>