<?xml version="1.0" encoding="UTF-8" standalone="no"?>
<svg xmlns="http://www.w3.org/2000/svg"
     width="997.55859375" height="997.0703125"
     viewBox="0 0 997.55859375 997.0703125"
     fill="currentColor">
  <path d="M-0.0023 498.5342C-0.0023 773.4342 223.6377 997.0742 498.5377 997.0742C773.4377 997.0742 997.5577 773.4342 997.5577 498.5342C997.5577 249.0242 812.9877 41.5042 573.2377 5.8642C583.0077 20.0242 589.3577 37.5942 589.3577 56.6442C589.3577 81.0542 579.5877 102.5342 563.9677 118.6542C745.1177 150.3942 883.7877 308.5942 883.7877 498.5342C883.7877 710.9342 711.4277 883.7842 498.5377 883.7842C286.1377 883.7842 113.2777 710.9342 113.2777 498.5342C113.2777 286.1342 286.1377 113.2842 498.5377 113.2842C529.7877 113.2842 555.1777 87.8942 555.1777 56.6442C555.1777 25.3942 529.7877 0.0042 498.5377 0.0042C223.6377 0.0042 -0.0023 223.6342 -0.0023 498.5342ZM297.8477 529.2942C297.8477 541.0142 307.1277 549.8042 318.8477 549.8042H472.6577L390.6277 770.0242C379.8877 799.3142 411.1377 815.9142 430.1777 791.9942L679.6877 479.0042C684.0777 473.1442 687.0077 466.7942 687.0077 461.4242C687.0077 449.7042 677.7377 440.9142 666.0177 440.9142H512.2077L594.2377 220.2142C604.9777 190.9142 573.7277 174.8042 554.6877 198.2442L305.1777 511.7142C300.7777 517.5742 297.8477 523.9242 297.8477 529.2942Z"/>
</svg>