<?xml version="1.0" encoding="UTF-8" standalone="no"?>
<svg xmlns="http://www.w3.org/2000/svg"
     width="996.09375" height="996.09375"
     viewBox="0 0 996.09375 996.09375"
     fill="currentColor">
  <path d="M498.0477 996.0959C770.5077 996.0959 996.0977 770.0159 996.0977 498.0459C996.0977 225.5859 770.0177 -0.0041 497.5577 -0.0041C225.5877 -0.0041 -0.0023 225.5859 -0.0023 498.0459C-0.0023 770.0159 226.0777 996.0959 498.0477 996.0959ZM498.0477 913.0859C267.5777 913.0859 83.4977 728.5159 83.4977 498.0459C83.4977 267.5759 267.0877 83.0059 497.5577 83.0059C728.0277 83.0059 913.0877 267.5759 913.0877 498.0459C913.0877 728.5159 728.5177 913.0859 498.0477 913.0859ZM182.1277 590.8159C159.6677 619.6259 188.9677 645.5059 216.7977 630.8559L378.4177 543.4559L590.8177 657.2259C600.0977 662.5959 609.3777 665.5259 617.1877 665.5259C628.4177 665.5259 638.6677 659.6659 648.9277 647.4559L813.9677 434.0859C834.4777 407.2259 808.5977 379.3959 779.2977 395.0159L616.6977 482.4259L404.7877 368.1659C395.0177 363.2859 386.2277 359.8659 377.9277 359.8659C366.6977 359.8659 356.4477 365.7259 346.6777 378.4159Z"/>
</svg>