<?xml version="1.0" encoding="UTF-8" standalone="no"?>
<svg xmlns="http://www.w3.org/2000/svg"
     width="1155.2734375" height="905.76171875"
     viewBox="0 0 1155.2734375 905.76171875"
     fill="currentColor">
  <path d="M64.9383 905.7623H122.0683C158.6883 905.7623 187.0083 877.4423 187.0083 841.3123V759.7623C295.4083 766.6023 452.1483 771.4823 577.6383 771.4823C703.1283 771.4823 860.3483 766.6023 968.7483 759.7623V841.3123C968.7483 877.4423 996.5783 905.7623 1033.1983 905.7623H1090.8183C1127.4383 905.7623 1155.2783 877.4423 1155.2783 841.3123V560.0623C1155.2783 477.5423 1138.6683 431.6423 1093.7483 373.0423L1052.2483 319.8223C1034.6683 231.9323 1001.9483 139.6523 985.3483 103.5123C958.9883 48.3423 908.6883 15.6223 843.7483 6.8323C811.0383 2.4423 704.0983 0.0023 577.6383 0.0023C451.6583 0.0023 344.7283 2.9323 312.0083 6.8323C247.0683 14.6523 196.2883 48.3423 170.4083 103.5123C153.3183 139.6523 121.0983 231.9323 103.0283 319.8223L62.0083 373.0423C16.5983 431.6423 -0.0017 477.5423 -0.0017 560.0623V841.3123C-0.0017 877.4423 28.3183 905.7623 64.9383 905.7623ZM418.4583 416.9923C418.4583 411.6223 420.8983 407.2223 424.8083 402.3423L626.4683 148.9223C641.5983 129.8823 666.9883 142.5823 658.1983 166.5023L591.7983 344.7223H716.3083C725.5883 344.7223 733.8883 352.0523 733.8883 360.8423C733.8883 365.7223 731.4483 371.0923 726.5583 375.4923L525.8783 628.9023C510.2583 647.9523 484.3783 634.7623 493.6483 611.3323L560.5483 432.6123H435.5483C426.2683 432.6123 418.4583 425.7823 418.4583 416.9923Z"/>
</svg>