<?xml version="1.0" encoding="UTF-8" standalone="no"?>
<svg xmlns="http://www.w3.org/2000/svg"
     width="996.09375" height="996.09375"
     viewBox="0 0 996.09375 996.09375"
     fill="currentColor">
  <path d="M498.0477 996.0977C770.5077 996.0977 996.0977 770.5077 996.0977 498.0477C996.0977 226.0777 770.0177 -0.0023 497.5577 -0.0023C225.5877 -0.0023 -0.0023 226.0777 -0.0023 498.0477C-0.0023 770.5077 226.0777 996.0977 498.0477 996.0977ZM277.8277 532.7177C277.8277 526.3677 280.7577 519.0477 286.1377 513.1877L562.0077 166.5077C583.0077 140.6277 617.6777 158.2077 605.4677 190.4277L514.1577 435.0577H685.0577C698.2377 435.0577 708.0077 444.3377 708.0077 457.0277C708.0077 463.3777 705.0777 470.7077 699.7077 477.0477L423.8277 823.2377C402.8277 849.1177 368.1677 831.5477 380.3677 799.3177L471.6777 554.6877H300.7777C287.5977 554.6877 277.8277 545.4077 277.8277 532.7177Z"/>
</svg>