<?xml version="1.0" encoding="UTF-8" standalone="no"?>
<svg xmlns="http://www.w3.org/2000/svg"
     width="812.1337890625" height="1090.8439435057035"
     viewBox="0 0 812.1337890625 1090.8439435057035"
     fill="currentColor">
  <path d="M636.5992 642.084L737.6692 516.114C745.9692 505.854 750.3692 496.094 750.3692 484.864C750.3692 466.304 736.2092 452.144 715.6992 451.654L447.1392 447.754L585.3292 56.154C602.9092 5.374 552.1192 -20.996 518.9192 20.504L294.7992 300.784ZM747.9292 940.424C762.5692 955.074 786.9892 955.074 801.1492 940.424C815.7992 926.264 815.7992 902.344 801.1492 887.204L64.3292 150.394C49.6792 135.744 24.7792 135.744 10.6192 150.394C-3.5408 164.554 -3.5408 189.454 10.6192 203.614ZM294.3092 1070.804L517.4592 791.014L175.6592 449.214L75.5592 574.704C67.2592 585.444 62.3792 595.214 62.3792 605.954C62.3792 624.994 77.0292 639.154 97.5392 639.154L365.5992 643.064L227.9092 1034.664C210.3292 1084.964 261.1092 1111.814 294.3092 1070.804Z"/>
</svg>