<?xml version="1.0" encoding="UTF-8" standalone="no"?>
<svg xmlns="http://www.w3.org/2000/svg"
     width="1227.5390625" height="848.6328125"
     viewBox="0 0 1227.5390625 848.6328125"
     fill="currentColor">
  <path d="M964.8477 848.6363C1112.3077 848.6363 1227.5377 740.7262 1227.5377 606.4463C1227.5377 503.9063 1168.4577 415.0363 1073.2377 374.9962C1074.2177 157.2263 917.4777 -0.0037 717.7777 -0.0037C585.4477 -0.0037 491.2077 70.7962 432.6177 156.2463C312.4977 121.0963 181.6377 212.4063 179.1977 349.1163C68.8477 366.6963 -0.0023 465.3363 -0.0023 584.4762C-0.0023 728.0263 125.4877 848.6363 292.4777 848.6363ZM288.0877 559.0863L457.5177 339.8463C468.2577 326.6563 479.0077 320.7963 489.7477 320.7963C499.0277 320.7963 507.8077 324.7063 517.5777 329.5863L736.8177 447.2663L904.2977 356.9362C934.0777 340.8163 960.9377 369.6263 939.9377 397.4563L769.5277 617.6763C759.2777 630.3663 748.0477 636.2262 736.8177 636.2262C728.5177 636.2262 719.7277 632.8163 709.4777 627.4463L490.2377 510.2563L323.7277 600.5863C294.9177 615.7262 265.1377 588.8663 288.0877 559.0863Z"/>
</svg>