<?xml version="1.0" encoding="UTF-8" standalone="no"?>
<svg xmlns="http://www.w3.org/2000/svg"
     width="1097.16796875" height="991.2109375"
     viewBox="0 0 1097.16796875 991.2109375"
     fill="currentColor">
  <path d="M222.1677 191.4058C274.8977 191.4058 317.8677 148.9258 317.8677 95.7058C317.8677 42.9658 274.8977 -0.0042 222.1677 -0.0042C168.9477 -0.0042 125.9777 42.9658 125.9777 95.7058C125.9777 148.9258 168.9477 191.4058 222.1677 191.4058ZM-0.0023 265.1358C-0.0023 385.2558 105.9577 507.3258 291.9877 565.4258C275.8777 615.2358 267.0877 663.5758 267.0877 707.5158C267.0877 737.3058 270.9977 767.5758 279.7877 797.3658C302.2477 764.6458 347.6577 743.6558 383.7877 742.6758C375.4877 717.7758 370.6077 688.9658 370.6077 659.1758C370.6077 635.7458 373.0477 611.3258 377.9277 586.4258C426.7577 595.2158 479.4877 600.0958 536.1377 600.0958C590.8177 600.0958 643.5577 595.7058 692.8677 586.4258C697.7577 610.8358 700.1977 635.2558 700.1977 659.1758C700.1977 773.4358 633.2977 852.5358 544.9177 852.5358C548.3377 866.6958 550.2977 881.3458 550.2977 895.5058C550.2977 929.1958 539.5477 961.4258 519.5277 987.7958C523.9277 988.2858 529.7877 988.2858 535.1577 988.2858C691.4077 988.2858 804.1977 870.6058 804.1977 707.5158C804.1977 663.5758 794.9177 615.2358 778.8077 565.4258C839.8477 546.3858 894.0477 520.0158 939.4577 486.8158C910.6477 474.1258 886.2277 452.6358 870.1177 425.2958C838.8677 455.5658 799.3177 479.9758 752.9277 498.0458C714.3577 409.1758 655.7577 319.3358 585.9377 243.6558C649.4177 191.4058 721.6777 158.6958 793.4577 158.6958C851.0777 158.6958 895.5077 179.6858 918.4577 218.2658C943.3577 202.1458 971.6777 193.8458 1001.4677 193.8458C1023.9277 193.8458 1045.8977 199.2158 1065.9177 208.0058C1042.9677 110.3558 958.0077 50.7858 838.3777 50.7858C735.3477 50.7858 628.9077 108.3958 535.6477 193.8458C485.3477 147.4658 430.6677 108.8858 374.5077 83.4958C374.9977 87.8858 374.9977 91.7958 374.9977 95.7058C374.9977 122.5558 368.1677 148.4358 355.4677 170.8958C400.3877 184.5658 444.8277 209.9658 485.8377 243.6558C416.0177 318.8458 357.4177 408.6958 318.3577 497.5558C188.4777 446.2858 135.7377 352.5358 135.7377 289.0658C135.7377 266.6058 139.1577 246.5858 146.4877 229.4958C100.5877 203.6158 70.3077 153.8058 69.3377 100.0958C23.4377 143.0658 -0.0023 198.7258 -0.0023 265.1358ZM1001.4677 442.8758C1054.6877 442.8758 1097.1677 399.9058 1097.1677 347.1658C1097.1677 293.9458 1054.6877 250.9758 1001.4677 250.9758C948.7277 250.9758 905.7577 293.9458 905.7577 347.1658C905.7577 399.9058 948.7277 442.8758 1001.4677 442.8758ZM536.1377 534.1758C483.3977 534.1758 436.5277 529.2958 395.5077 520.5058C423.8277 437.4958 474.1177 354.9758 536.1377 290.0358C597.6577 354.4958 647.9477 436.5258 675.7777 520.5058C632.8077 529.7858 585.9377 534.1758 536.1377 534.1758ZM397.4577 991.2158C450.6877 991.2158 493.1677 948.7258 493.1677 895.5058C493.1677 842.2858 450.1977 799.8058 397.4577 799.8058C344.2377 799.8058 301.7577 842.2858 301.7577 895.5058C301.7577 948.7258 344.2377 991.2158 397.4577 991.2158Z"/>
</svg>