<?xml version="1.0" encoding="UTF-8" standalone="no"?>
<svg xmlns="http://www.w3.org/2000/svg"
     width="1168.114630723725" height="1083.7324484533137"
     viewBox="0 0 1168.114630723725 1083.7324484533137"
     fill="currentColor">
  <path d="M704.5883 1080.568H825.1983C864.2583 1080.568 885.2583 1058.598 885.2583 1020.508V291.018L970.6983 1029.788C975.0983 1067.868 998.0483 1087.888 1036.6183 1083.008L1115.2383 1071.778C1153.3183 1066.898 1171.8783 1043.458 1167.4783 1004.878L1074.2183 194.828C1069.8283 156.738 1046.8783 136.718 1007.8083 142.088L929.6883 153.318C908.6883 155.758 894.0383 164.058 885.2583 176.758V60.548C885.2583 21.968 864.2583 -0.002 825.1983 -0.002H704.5883C665.5283 -0.002 644.5283 21.968 644.5283 60.548V1020.508C644.5283 1058.598 665.5283 1080.568 704.5883 1080.568ZM60.0583 1080.568H152.3483C190.9183 1080.568 212.3983 1058.598 212.3983 1020.508V195.798C212.3983 157.228 190.9183 135.258 152.3483 135.258H60.0583C20.9983 135.258 -0.0017 157.228 -0.0017 195.798V1020.508C-0.0017 1058.598 20.9983 1080.568 60.0583 1080.568ZM329.5883 1080.568H527.3483C566.4083 1080.568 587.3983 1058.598 587.3983 1020.508V362.308C587.3983 324.218 566.4083 302.248 527.3483 302.248H329.5883C290.5283 302.248 269.0383 324.218 269.0383 362.308V1020.508C269.0383 1058.598 290.5283 1080.568 329.5883 1080.568ZM375.9783 476.558C358.3983 476.558 345.2183 463.378 345.2183 446.288C345.2183 429.688 358.3983 416.508 375.9783 416.508H481.9383C499.0283 416.508 511.7183 429.688 511.7183 446.288C511.7183 463.378 499.0283 476.558 481.9383 476.558ZM375.9783 966.798C358.3983 966.798 345.2183 953.618 345.2183 936.528C345.2183 919.918 358.3983 906.738 375.9783 906.738H481.9383C499.0283 906.738 511.7183 919.918 511.7183 936.528C511.7183 953.618 499.0283 966.798 481.9383 966.798Z"/>
</svg>