<?xml version="1.0" encoding="UTF-8" standalone="no"?>
<svg xmlns="http://www.w3.org/2000/svg"
     width="898.92578125" height="898.92578125"
     viewBox="0 0 898.92578125 898.92578125"
     fill="currentColor">
  <path d="M153.3183 898.925H745.6083C848.1483 898.925 898.9283 848.145 898.9283 747.555V151.365C898.9283 50.785 848.1483 -0.005 745.6083 -0.005H153.3183C51.2683 -0.005 -0.0017 50.295 -0.0017 151.365V747.555C-0.0017 848.635 51.2683 898.925 153.3183 898.925ZM154.2983 820.315C105.4683 820.315 78.6183 794.435 78.6183 743.655V155.275C78.6183 104.495 105.4683 78.615 154.2983 78.615H744.6283C792.9683 78.615 820.3083 104.495 820.3083 155.275V743.655C820.3083 794.435 792.9683 820.315 744.6283 820.315ZM305.1783 707.515C317.8683 707.515 325.1983 700.195 347.6583 678.225L447.2683 580.075C448.7283 578.615 450.6883 578.615 452.1483 580.075L552.2483 678.225C574.2183 700.195 581.5383 707.515 594.2383 707.515C610.8383 707.515 621.0983 695.805 621.0983 676.265V265.135C621.0983 217.775 596.6783 192.875 548.8283 192.875H350.5883C303.2183 192.875 278.8083 217.775 278.8083 265.135V676.265C278.8083 695.805 289.0583 707.515 305.1783 707.515Z"/>
</svg>