<?xml version="1.0" encoding="UTF-8" standalone="no"?>
<svg xmlns="http://www.w3.org/2000/svg"
     width="996.09375" height="996.09375"
     viewBox="0 0 996.09375 996.09375"
     fill="currentColor">
  <path d="M498.0477 996.0977C770.5077 996.0977 996.0977 770.5077 996.0977 498.0477C996.0977 226.0777 770.0177 -0.0023 497.5577 -0.0023C225.5877 -0.0023 -0.0023 226.0777 -0.0023 498.0477C-0.0023 770.5077 226.0777 996.0977 498.0477 996.0977ZM349.1177 765.1377C332.5177 765.1377 321.7777 752.9277 321.7777 732.9077V308.5977C321.7777 259.7677 347.1677 233.8877 395.9977 233.8877H600.0977C648.9277 233.8877 674.3177 259.7677 674.3177 308.5977V732.9077C674.3177 752.9277 663.5777 765.1377 646.9777 765.1377C633.7877 765.1377 626.4677 757.3277 603.5177 734.8677L500.4877 633.7877C499.0277 632.3277 497.0677 632.3277 495.6077 633.7877L393.0677 734.8677C369.6277 757.3277 362.3077 765.1377 349.1177 765.1377Z"/>
</svg>