<?xml version="1.0" encoding="UTF-8" standalone="no"?>
<svg xmlns="http://www.w3.org/2000/svg"
     width="996.09375" height="996.09375"
     viewBox="0 0 996.09375 996.09375"
     fill="currentColor">
  <path d="M498.0477 996.0977C770.5077 996.0977 996.0977 770.5077 996.0977 498.0477C996.0977 226.0777 770.0177 -0.0023 497.5577 -0.0023C225.5877 -0.0023 -0.0023 226.0777 -0.0023 498.0477C-0.0023 770.5077 226.0777 996.0977 498.0477 996.0977ZM365.7277 764.1577C314.9377 764.1577 289.0577 738.2777 289.0577 686.5277V311.5277C289.0577 258.2977 314.9377 232.4177 366.2077 232.4177H628.9077C680.6677 232.4177 706.5477 258.7877 706.5477 311.5277V594.7277C706.5477 618.6477 695.3077 631.8377 685.5477 641.5977C655.7577 670.8977 661.6177 710.4477 692.3877 723.1477C700.1977 725.5877 706.5477 734.3777 706.5477 743.1677C706.5477 754.8877 696.7777 764.1577 685.5477 764.1577ZM360.3477 609.3777C369.1377 609.3777 376.4677 603.0277 376.4677 594.2377V290.0377C376.4677 281.7377 369.1377 274.4177 360.3477 274.4177C352.0477 274.4177 345.7077 281.2477 345.7077 290.0377V594.2377C345.7077 603.0277 352.0477 609.3777 360.3477 609.3777ZM368.1677 722.1677H632.8077C621.5777 700.6877 620.1177 675.2977 629.8877 650.3877C627.9277 650.8777 625.9777 650.8777 623.5377 650.8777H370.1177C346.6777 650.8777 331.0577 665.0377 331.0577 686.0377C331.0577 708.9877 344.2377 722.1677 368.1677 722.1677Z"/>
</svg>