<?xml version="1.0" encoding="UTF-8" standalone="no"?>
<svg xmlns="http://www.w3.org/2000/svg"
     width="1421.875" height="1041.9921875"
     viewBox="0 0 1421.875 1041.9921875"
     fill="currentColor">
  <path d="M132.8083 905.7619H197.7583C212.3983 983.4019 280.7583 1041.9919 362.3083 1041.9919C443.8483 1041.9919 511.7183 983.4019 525.8783 905.7619H901.8583C916.0183 983.4019 984.3783 1041.9919 1065.9183 1041.9919C1147.4583 1041.9919 1215.3283 983.4019 1229.4883 905.7619H1289.0583C1375.9783 905.7619 1421.8783 860.3519 1421.8783 773.4419V601.0719C1421.8783 553.2219 1414.0583 530.7619 1387.2083 500.4919L1221.1883 312.9919C1192.3783 280.7619 1160.1583 269.5319 1112.3083 269.5319H982.4183V132.8119C982.4183 45.9019 936.5283 0.0019 849.6083 0.0019H132.8083C45.4083 0.0019 -0.0017 45.9019 -0.0017 132.8119V773.4419C-0.0017 860.3519 45.4083 905.7619 132.8083 905.7619ZM362.3083 708.4919C286.6183 708.4919 222.6583 758.7919 202.1483 827.1519H133.7883C97.1683 827.1519 78.6183 808.5919 78.6183 771.9719V134.2819C78.6183 97.6519 97.1683 78.6119 133.7883 78.6119H848.1483C884.2783 78.6119 903.8083 97.6519 903.8083 134.2819V827.1519H521.9683C501.4683 758.7919 437.4983 708.4919 362.3083 708.4919ZM1065.9183 708.4919C1035.6483 708.4919 1006.8383 716.7919 982.4183 730.9619V348.1419H1107.4183C1132.3283 348.1419 1149.8983 352.5419 1169.9183 374.5119L1323.2383 546.8719C1336.4283 561.5219 1343.2583 582.0319 1343.2583 599.6119V771.9719C1343.2583 808.5919 1324.2183 827.1519 1287.5983 827.1519H1225.5883C1205.0783 758.7919 1141.5983 708.4919 1065.9183 708.4919ZM1073.7283 605.4719H1286.6183C1286.6183 593.7519 1282.2283 587.4019 1274.8983 579.1019L1129.3983 415.5319C1118.6483 404.2919 1105.9583 396.9719 1092.2883 396.9719H1031.7383V563.9619C1031.7383 589.8419 1047.8483 605.4719 1073.7283 605.4719ZM362.3083 975.5819C306.6383 975.5819 261.2283 930.6619 261.2283 875.0019C261.2283 819.8219 306.6383 774.4119 362.3083 774.4119C417.4783 774.4119 462.3983 819.8219 462.3983 875.0019C462.3983 930.6619 417.4783 975.5819 362.3083 975.5819ZM1065.9183 975.5819C1010.7383 975.5819 965.3283 930.6619 965.3283 875.0019C965.3283 855.9619 970.6983 837.8919 979.9783 822.7519L982.4183 821.7819V819.3319C1000.4883 791.9919 1031.2483 774.4119 1065.9183 774.4119C1120.6083 774.4119 1166.0183 819.8219 1166.0183 875.0019C1166.0183 930.6619 1121.5783 975.5819 1065.9183 975.5819Z"/>
</svg>