<?xml version="1.0" encoding="UTF-8" standalone="no"?>
<svg xmlns="http://www.w3.org/2000/svg"
     width="1285.15625" height="1080.078125"
     viewBox="0 0 1285.15625 1080.078125"
     fill="currentColor">
  <path d="M-0.0023 502.9333C-0.0023 681.1533 122.0677 799.3133 305.1777 799.3133C333.0077 799.3133 359.3777 796.8733 384.2777 791.9933C437.9877 840.3333 519.0477 871.5833 612.7977 871.5833C646.9777 871.5833 685.0577 867.1833 723.1477 857.9133C758.2977 895.9933 812.4977 917.4833 874.5077 917.4833C886.2277 917.4833 898.9277 916.9933 911.6177 916.5033C922.8477 999.5133 975.0977 1080.0733 1059.5677 1080.0733C1181.6377 1080.0733 1241.2077 931.6433 1241.2077 787.1133C1241.2077 735.8433 1238.7677 698.2433 1235.8377 664.5533C1267.5777 623.5333 1285.1577 569.8233 1285.1577 506.8333C1285.1577 383.7933 1202.1477 288.0833 1075.1977 263.1833C1049.8077 146.9733 952.1477 72.7533 842.7777 72.7533C833.0077 72.7533 819.3377 74.2233 805.6677 77.6333C766.5977 29.2933 704.0977 0.0033 635.7377 0.0033C561.0377 0.0033 497.5577 28.3233 454.0977 75.6833C417.9677 59.5733 380.8577 51.7533 344.7277 51.7533C226.5577 51.7533 131.8377 132.8133 131.8377 248.5333C131.8377 250.0033 131.8377 251.4633 131.8377 253.4133C49.8077 308.1033 -0.0023 402.8333 -0.0023 502.9333ZM392.0877 235.3533C391.1177 260.7433 408.2077 277.8333 430.6677 277.8333C452.1477 277.8333 468.7477 263.6733 469.7277 238.7733C473.1477 145.9933 540.5277 78.1233 635.2577 78.1233C692.3877 78.1233 742.1877 108.4033 762.2077 153.3233C766.1177 160.1533 771.4877 160.6433 780.7577 158.2033C796.8777 153.8133 814.9377 151.3633 832.5177 151.3633C919.9177 152.3433 1002.9277 217.7733 1002.9277 323.2433C1002.9277 552.2433 680.6677 520.9933 680.6677 744.6333C680.6677 759.2733 682.6177 772.9533 685.5477 786.1333C664.5477 791.0133 642.0877 792.9733 621.0977 792.9733C569.3377 792.9733 517.0877 780.2733 477.5377 758.3033C558.1077 713.3833 605.9577 634.2733 605.9577 533.6933C605.9577 522.9533 605.4677 512.6933 604.0077 502.9333C713.8677 475.0933 763.1877 399.9033 763.1877 291.9933C763.1877 270.5033 745.1177 252.9333 723.6377 252.9333C702.1477 252.9333 684.5677 270.5033 684.5677 291.9933C684.5677 365.2333 656.2477 411.1333 582.0277 428.7133C571.7777 409.6633 559.0777 393.0633 543.4577 379.8833C525.3877 364.7433 515.1377 359.8633 498.0477 359.8633C475.5877 359.8633 459.9577 373.5333 459.9577 393.5533C459.9577 417.9733 474.1177 424.3133 496.5777 444.8233C517.0877 464.8433 528.8077 495.1133 528.8077 532.2233C528.8077 645.5033 439.9377 721.1933 306.6377 721.1933C169.9177 721.1933 78.6177 633.7933 78.6177 502.4433C78.6177 438.9633 105.4677 378.4133 151.3677 336.9133C181.1477 397.4633 243.6477 435.0633 327.1477 435.0633C348.1477 435.0633 366.2077 416.9933 366.2077 395.9933C366.2077 374.5133 348.1477 356.4433 327.1477 356.4433C254.8877 356.4433 210.4477 311.0333 210.4477 248.5333C210.4477 179.2033 267.5777 130.3733 344.2377 130.3733C366.2077 130.3733 389.1577 134.7633 411.6177 143.5533C400.3877 171.3833 393.5577 202.1533 392.0877 235.3533ZM966.3077 714.3533C966.3077 736.3233 983.8877 751.9533 1005.8577 753.4133C1065.4277 757.3233 1117.6777 747.0733 1160.6477 725.5833C1162.1077 744.6333 1163.0877 764.1633 1163.0877 786.1333C1163.0877 904.7833 1118.1677 1001.4633 1059.5677 1001.4633C999.0277 1001.4633 974.6077 920.9033 974.6077 856.4433C974.6077 851.5633 971.6777 848.1433 964.8477 848.6333C951.1677 848.6333 932.6177 848.6333 920.4077 848.6333C823.2377 848.6333 759.2777 818.8433 759.2777 743.1633C759.2777 568.8433 1066.4077 603.0233 1081.0577 342.2833C1157.7177 358.4033 1206.5477 420.4133 1206.5477 506.8333C1206.5477 617.1833 1125.9777 684.5733 1005.8577 675.2933C983.8877 673.3433 966.3077 692.8733 966.3077 714.3533Z"/>
</svg>