<?xml version="1.0" encoding="UTF-8" standalone="no"?>
<svg xmlns="http://www.w3.org/2000/svg"
     width="898.92578125" height="898.92578125"
     viewBox="0 0 898.92578125 898.92578125"
     fill="currentColor">
  <path d="M153.3183 898.9295H745.6083C848.1483 898.9295 898.9283 848.1495 898.9283 747.5595V151.3695C898.9283 50.7795 848.1483 -0.0005 745.6083 -0.0005H153.3183C51.2683 -0.0005 -0.0017 50.2895 -0.0017 151.3695V747.5595C-0.0017 848.6295 51.2683 898.9295 153.3183 898.9295ZM614.2583 710.4495C603.0283 710.4495 593.2583 700.6795 593.2583 688.9695V654.7895C534.6683 647.9495 498.5383 610.8395 491.2083 558.5895C487.3083 532.7195 503.9083 518.0695 520.9983 518.0695C534.6683 518.0695 546.3883 526.8595 548.3383 543.4595C551.2683 573.7295 565.4283 594.2395 593.2583 599.6095V470.6995L576.1683 461.9095C522.9483 434.5695 491.2083 400.3895 491.2083 345.6995C491.2083 286.6195 533.1983 245.6095 593.2583 239.2595V206.0595C593.2583 194.8195 603.0283 185.0595 614.2583 185.0595C625.4883 185.0595 635.2583 194.8195 635.2583 206.0595V239.7495C689.9383 248.0495 723.1483 285.6395 729.0083 334.4695C733.3983 362.7895 716.3083 375.4895 698.7283 375.4895C685.0583 375.4895 672.3683 366.2095 670.8983 349.6095C668.9483 323.7295 657.2283 303.2195 635.2583 295.8995V421.3895L651.8583 430.6595C710.4483 462.3995 737.3083 496.5795 737.3083 544.9195C737.3083 607.4195 696.7783 647.9495 635.2583 655.2695V688.9695C635.2583 700.6795 625.4883 710.4495 614.2583 710.4495ZM237.3083 676.2695C217.7783 676.2695 204.0983 663.0895 204.0983 643.5595V264.6495C204.0983 237.3095 217.7783 218.7495 242.6783 218.7495H324.2183C409.1783 218.7495 449.2183 265.1395 449.2183 346.1895C449.2183 398.9295 426.7583 452.1495 384.2783 468.2595L449.7083 630.8595C461.4283 660.1595 439.4483 676.2695 417.9683 676.2695C404.7883 676.2695 392.5783 670.4095 387.2083 655.7595L320.3083 480.9595C316.4083 481.4495 313.4783 481.4495 310.0583 481.4495H270.5083V643.5595C270.5083 663.0895 256.8383 676.2695 237.3083 676.2695ZM270.5083 430.1795H317.3783C362.3083 430.1795 381.8383 396.4795 381.8383 348.6295C381.8383 301.2695 361.3283 272.4595 316.8983 272.4595H270.5083ZM593.2583 293.9495C568.8483 299.8095 553.7083 317.3795 553.7083 343.2595C553.7083 370.1195 571.2883 385.7395 590.8183 397.4595L593.2583 398.9295ZM635.2583 599.6095C661.1283 594.2395 675.7783 575.1995 675.7783 549.3195C675.7783 525.8795 658.6883 507.8095 637.2083 494.1395L635.2583 493.6495Z"/>
</svg>