<?xml version="1.0" encoding="UTF-8" standalone="no"?>
<svg xmlns="http://www.w3.org/2000/svg"
     width="1142.08984375" height="1102.05078125"
     viewBox="0 0 1142.08984375 1102.05078125"
     fill="currentColor">
  <path d="M868.6483 1102.0516C889.1583 1102.0516 905.7583 1085.9416 905.7583 1065.4316V960.4516C1036.1283 948.2416 1142.0883 868.1616 1142.0883 730.9616C1142.0883 616.2116 1073.7283 547.8516 919.9183 508.3016L905.7583 504.3916V226.0716C974.1183 236.3316 1021.4883 278.8116 1041.9883 348.6316C1051.2683 375.9716 1064.9383 387.2116 1087.3983 387.2116C1113.2783 387.2116 1129.8783 369.6316 1129.8783 340.3316C1129.8783 333.4916 1128.9083 325.6816 1126.9483 316.4016C1103.0283 218.7516 1016.5983 150.8816 905.7583 138.6716V37.1116C905.7583 16.6016 889.1583 0.0016 868.6483 0.0016C848.1483 0.0016 832.0283 16.6016 832.0283 37.1116V139.1616C700.6883 153.3216 610.8383 240.2316 610.8383 360.8416C610.8383 471.1916 679.1983 540.0416 824.7083 577.1516L832.0283 579.1016V873.0516C751.9483 862.3016 700.6883 818.3616 683.1083 745.6016C674.8083 719.7216 659.6683 706.5416 637.2083 706.5416C611.8183 706.5416 595.2183 725.5816 595.2183 753.9016C595.2183 761.7216 596.1883 769.0416 598.6283 777.3416C623.5383 882.3216 718.7483 947.7516 832.0283 959.9616V1065.4316C832.0283 1085.9416 848.1483 1102.0516 868.6483 1102.0516ZM44.9183 993.6516C72.2683 993.6516 89.8483 975.5816 89.8483 946.7816V623.5316H244.6283C247.5583 623.5316 251.4683 623.5316 254.3983 623.5316L444.3383 964.3516C456.5383 985.8416 468.2583 994.1416 489.2583 994.1416C515.6283 994.1416 534.6683 976.0716 534.6683 952.1516C534.6683 941.8916 532.2283 932.6216 525.3883 919.9216L347.6583 609.3716C461.9183 577.1516 530.2783 485.3516 530.2783 362.7916C530.2783 207.5216 421.8783 108.4016 253.4183 108.4016H46.3883C17.5783 108.4016 -0.0017 126.9516 -0.0017 156.7416V946.7816C-0.0017 975.5816 17.5783 993.6516 44.9183 993.6516ZM89.8483 543.4616V188.9616H241.6983C363.7683 188.9616 437.0083 253.9016 437.0083 365.7216C437.0083 479.0016 366.6983 543.4616 245.6083 543.4616ZM700.1983 355.4716C700.1983 293.9416 748.0483 239.2616 832.0283 226.0716V485.3516C742.1883 460.9416 700.1983 419.4316 700.1983 355.4716ZM906.2483 598.1416C1012.6983 625.9716 1053.2183 664.0616 1053.2183 737.3016C1053.2183 815.4316 999.5083 864.7416 905.7583 874.0216V598.1416Z"/>
</svg>