<?xml version="1.0" encoding="UTF-8" standalone="no"?>
<svg xmlns="http://www.w3.org/2000/svg"
     width="898.92578125" height="898.92578125"
     viewBox="0 0 898.92578125 898.92578125"
     fill="currentColor">
  <path d="M153.3183 898.9295H745.6083C848.1483 898.9295 898.9283 848.1495 898.9283 747.5595V151.3695C898.9283 50.7795 848.1483 -0.0005 745.6083 -0.0005H153.3183C51.2683 -0.0005 -0.0017 50.2895 -0.0017 151.3695V747.5595C-0.0017 848.6295 51.2683 898.9295 153.3183 898.9295ZM154.2983 820.3095C105.4683 820.3095 78.6183 794.4295 78.6183 743.6495V155.2695C78.6183 104.4895 105.4683 78.6095 154.2983 78.6095H744.6283C792.9683 78.6095 820.3083 104.4895 820.3083 155.2695V743.6495C820.3083 794.4295 792.9683 820.3095 744.6283 820.3095ZM600.0983 701.6595C610.8383 701.6595 620.1183 692.3795 620.1183 681.6395V648.4395C679.6883 641.5995 719.2383 602.5395 719.2383 541.9895C719.2383 494.6295 693.8483 460.9395 636.2283 430.6595L620.1183 422.3595V299.3195C642.0883 307.1295 653.3183 327.1495 655.2783 352.5395C656.7383 368.1595 668.9483 377.4395 682.1283 377.4395C699.2183 377.4395 715.3283 364.7495 711.4283 337.8895C705.0783 291.0195 673.3383 253.9095 620.1183 245.6095V213.3795C620.1183 202.1495 610.8383 192.8695 600.0983 192.8695C589.3583 192.8695 579.5883 202.1495 579.5883 213.3795V245.1195C521.9683 251.4695 480.9583 291.0195 480.9583 348.1395C480.9583 401.3695 511.2283 435.5495 562.9883 460.9395L579.5883 469.2395V595.6995C552.2483 589.3595 539.0583 569.8195 536.1283 540.5295C534.1783 523.9295 522.9483 515.6295 509.7683 515.6295C493.1683 515.6295 477.0483 529.7895 480.9583 555.1795C488.2783 604.9795 523.4383 641.1095 579.5883 648.4395V681.6395C579.5883 692.3795 589.3583 701.6595 600.0983 701.6595ZM234.8683 669.4295C253.4183 669.4295 266.5983 656.2495 266.5983 637.2095V479.9795H305.1783C308.5983 479.9795 311.5283 479.9795 315.4283 479.9795L380.3683 648.9295C385.7383 663.5695 397.4583 669.4295 410.1583 669.4295C430.6683 669.4295 451.6583 653.3195 440.4283 625.4895L376.9483 467.7695C418.4583 451.6595 439.9383 399.8995 439.9383 348.6295C439.9383 270.5095 401.3683 225.5895 318.8483 225.5895H239.7483C215.8183 225.5895 202.6383 243.6495 202.6383 270.0195V637.2095C202.6383 656.2495 215.8183 669.4295 234.8683 669.4295ZM266.5983 430.1795V277.3395H312.0083C354.9783 277.3395 374.9983 305.1795 374.9983 351.0695C374.9983 397.4595 355.9583 430.1795 312.4983 430.1795ZM541.0183 345.6995C541.0183 321.2895 556.1483 303.2195 579.5883 297.8495V400.8795C559.0783 388.6695 541.0183 372.5595 541.0183 345.6995ZM659.6683 546.3895C659.6683 571.2895 645.5083 589.8395 620.1183 595.6995V490.2295C642.0883 503.9095 659.6683 522.4595 659.6683 546.3895Z"/>
</svg>