<?xml version="1.0" encoding="UTF-8" standalone="no"?>
<svg xmlns="http://www.w3.org/2000/svg"
     width="1076.171875" height="1010.25390625"
     viewBox="0 0 1076.171875 1010.25390625"
     fill="currentColor">
  <path d="M775.8783 1010.2519C810.0583 1010.2519 829.0983 985.8419 829.0983 948.2419V821.2919H852.5383C998.0483 821.2919 1076.1683 741.2119 1076.1683 597.6519V223.6319C1076.1683 80.0819 998.0483 0.0019 852.5383 0.0019H223.6283C78.1283 0.0019 -0.0017 80.5619 -0.0017 223.6319V597.6519C-0.0017 740.7219 78.1283 821.2919 223.6283 821.2919H537.1083L705.5683 971.1919C735.3483 997.5619 751.9483 1010.2519 775.8783 1010.2519ZM755.8583 920.9019L599.6083 765.6219C581.0583 746.5819 567.3783 742.6719 540.0383 742.6719H223.6283C125.4883 742.6719 78.6183 692.3819 78.6183 597.1719V223.6319C78.6183 128.4219 125.4883 78.6119 223.6283 78.6119H852.5383C951.1683 78.6119 997.5583 128.4219 997.5583 223.6319V597.1719C997.5583 692.3819 951.1683 742.6719 852.5383 742.6719H792.4783C766.1183 742.6719 755.8583 752.9319 755.8583 779.2919Z"/>
</svg>