<?xml version="1.0" encoding="UTF-8" standalone="no"?>
<svg xmlns="http://www.w3.org/2000/svg"
     width="996.09375" height="996.09375"
     viewBox="0 0 996.09375 996.09375"
     fill="currentColor">
  <path d="M498.0477 996.0977C770.5077 996.0977 996.0977 770.5077 996.0977 498.0477C996.0977 226.0777 770.0177 -0.0023 497.5577 -0.0023C225.5877 -0.0023 -0.0023 226.0777 -0.0023 498.0477C-0.0023 770.5077 226.0777 996.0977 498.0477 996.0977ZM498.0477 913.0877C374.9977 913.0877 265.6277 860.8377 189.9377 776.8577V331.5477C189.9377 297.8477 209.4777 275.8777 241.2077 275.8777H568.8477C601.0777 275.8777 620.1177 297.8477 620.1177 331.5477V895.0177C581.5477 906.7377 540.5277 913.0877 498.0477 913.0877ZM304.6877 438.9677H357.9077C364.2577 438.9677 369.6277 434.0777 369.6277 427.2477V375.4877C369.6277 368.6477 364.2577 363.7677 357.9077 363.7677H304.6877C297.8477 363.7677 293.4577 368.6477 293.4577 375.4877V427.2477C293.4577 434.0777 297.8477 438.9677 304.6877 438.9677ZM451.1677 438.9677H504.3977C511.2277 438.9677 516.1177 434.0777 516.1177 427.2477V375.4877C516.1177 368.6477 511.2277 363.7677 504.3977 363.7677H451.1677C444.3377 363.7677 439.9377 368.6477 439.9377 375.4877V427.2477C439.9377 434.0777 444.3377 438.9677 451.1677 438.9677ZM658.2077 881.3477V400.8777H799.8077C831.5477 400.8777 851.0777 421.8777 851.0777 455.5677V716.3077C806.1477 789.5477 738.7677 848.1477 658.2077 881.3477ZM731.4477 544.9177H777.3477C782.2277 544.9177 786.1377 541.0177 786.1377 535.6477V491.2077C786.1377 486.3277 782.2277 481.9377 777.3477 481.9377H731.4477C725.5877 481.9377 721.6777 486.3277 721.6777 491.2077V535.6477C721.6777 541.0177 725.5877 544.9177 731.4477 544.9177ZM304.6877 562.0077H357.9077C364.2577 562.0077 369.6277 556.6377 369.6277 550.2977V498.5377C369.6277 491.6977 364.2577 486.8177 357.9077 486.8177H304.6877C297.8477 486.8177 293.4577 491.6977 293.4577 498.5377V550.2977C293.4577 556.6377 297.8477 562.0077 304.6877 562.0077ZM451.1677 562.0077H504.3977C511.2277 562.0077 516.1177 556.6377 516.1177 550.2977V498.5377C516.1177 491.6977 511.2277 486.8177 504.3977 486.8177H451.1677C444.3377 486.8177 439.9377 491.6977 439.9377 498.5377V550.2977C439.9377 556.6377 444.3377 562.0077 451.1677 562.0077ZM731.4477 656.2477H777.3477C782.2277 656.2477 786.1377 652.3477 786.1377 646.9677V603.0277C786.1377 597.6577 782.2277 593.7477 777.3477 593.7477H731.4477C725.5877 593.7477 721.6777 597.6577 721.6777 603.0277V646.9677C721.6777 652.3477 725.5877 656.2477 731.4477 656.2477ZM304.6877 685.5477H357.9077C364.2577 685.5477 369.6277 680.6677 369.6277 673.8277V622.5577C369.6277 615.7177 364.2577 610.8377 357.9077 610.8377H304.6877C297.8477 610.8377 293.4577 615.7177 293.4577 622.5577V673.8277C293.4577 680.6677 297.8477 685.5477 304.6877 685.5477ZM451.1677 685.5477H504.3977C511.2277 685.5477 516.1177 680.6677 516.1177 673.8277V622.5577C516.1177 615.7177 511.2277 610.8377 504.3977 610.8377H451.1677C444.3377 610.8377 439.9377 615.7177 439.9377 622.5577V673.8277C439.9377 680.6677 444.3377 685.5477 451.1677 685.5477ZM731.4477 768.0677H777.3477C782.2277 768.0677 786.1377 763.6677 786.1377 758.7877V714.3577C786.1377 709.4677 782.2277 705.0777 777.3477 705.0777H731.4477C725.5877 705.0777 721.6777 709.4677 721.6777 714.3577V758.7877C721.6777 763.6677 725.5877 768.0677 731.4477 768.0677ZM304.6877 809.5677H357.9077C364.2577 809.5677 369.6277 805.1777 369.6277 797.8477V746.0977C369.6277 739.7477 364.2577 734.3777 357.9077 734.3777H304.6877C297.8477 734.3777 293.4577 739.7477 293.4577 746.0977V797.8477C293.4577 805.1777 297.8477 809.5677 304.6877 809.5677ZM451.1677 809.5677H504.3977C511.2277 809.5677 516.1177 805.1777 516.1177 797.8477V746.0977C516.1177 739.7477 511.2277 734.3777 504.3977 734.3777H451.1677C444.3377 734.3777 439.9377 739.7477 439.9377 746.0977V797.8477C439.9377 805.1777 444.3377 809.5677 451.1677 809.5677Z"/>
</svg>