<?xml version="1.0" encoding="UTF-8" standalone="no"?>
<svg xmlns="http://www.w3.org/2000/svg"
     width="996.09375" height="996.09375"
     viewBox="0 0 996.09375 996.09375"
     fill="currentColor">
  <path d="M498.0477 996.0959C770.5077 996.0959 996.0977 770.0159 996.0977 498.0459C996.0977 225.5859 770.0177 -0.0041 497.5577 -0.0041C225.5877 -0.0041 -0.0023 225.5859 -0.0023 498.0459C-0.0023 770.0159 226.0777 996.0959 498.0477 996.0959ZM231.9377 361.8159C231.9377 354.4959 235.8377 347.1659 245.6077 341.7959L465.8177 215.3359C476.5577 208.9859 486.3277 206.0559 497.5577 206.0559C508.7877 206.0559 519.0477 208.9859 529.7877 215.3359L749.5077 341.7959C759.7677 347.1659 763.6677 354.4959 763.6677 361.8159C763.6677 373.0459 755.3677 383.7859 741.2077 383.7859H254.3977C240.2377 383.7859 231.9377 373.0459 231.9377 361.8159ZM265.1377 653.3159V646.9759C265.1377 637.2059 271.4877 629.8859 282.7177 629.8859H295.4077V454.5859H282.7177C271.4877 454.5859 265.1377 448.7259 265.1377 437.9859V431.6359C265.1377 420.8959 271.4877 414.5459 282.7177 414.5459H348.6377C359.3777 414.5459 365.7277 420.8959 365.7277 431.6359V437.9859C365.7277 448.7259 359.3777 454.5859 348.6377 454.5859H335.9377V629.8859H348.6377C359.3777 629.8859 365.7277 637.2059 365.7277 646.9759V653.3159C365.7277 664.0659 359.3777 670.4059 348.6377 670.4059H282.7177C271.4877 670.4059 265.1377 664.0659 265.1377 653.3159ZM387.6977 653.3159V646.9759C387.6977 637.2059 394.0477 629.8859 404.2977 629.8859H417.4777V454.5859H404.2977C394.0477 454.5859 387.6977 448.7259 387.6977 437.9859V431.6359C387.6977 420.8959 394.0477 414.5459 404.2977 414.5459H470.7077C481.4477 414.5459 488.7677 420.8959 488.7677 431.6359V437.9859C488.7677 448.7259 481.9377 454.5859 470.7077 454.5859H458.4977V629.8859H470.7077C481.4477 629.8859 488.7677 637.2059 488.7677 646.9759V653.3159C488.7677 664.0659 481.9377 670.4059 470.7077 670.4059H404.2977C394.0477 670.4059 387.6977 664.0659 387.6977 653.3159ZM510.2577 653.3159V646.9759C510.2577 637.2059 516.5977 629.8859 527.8277 629.8859H540.0377V454.5859H527.8277C516.5977 454.5859 510.2577 448.7259 510.2577 437.9859V431.6359C510.2577 420.8959 516.5977 414.5459 527.8277 414.5459H593.7477C603.5177 414.5459 611.3277 420.8959 611.3277 431.6359V437.9859C611.3277 448.7259 603.5177 454.5859 593.7477 454.5859H580.5677V629.8859H593.7477C603.5177 629.8859 611.3277 637.2059 611.3277 646.9759V653.3159C611.3277 664.0659 603.5177 670.4059 593.7477 670.4059H527.8277C516.5977 670.4059 510.2577 664.0659 510.2577 653.3159ZM632.3277 653.3159V646.9759C632.3277 637.2059 638.6677 629.8859 649.8977 629.8859H663.0877V454.5859H649.8977C638.6677 454.5859 632.3277 448.7259 632.3277 437.9859V431.6359C632.3277 420.8959 638.6677 414.5459 649.8977 414.5459H715.8177C726.0777 414.5459 733.3977 420.8959 733.3977 431.6359V437.9859C733.3977 448.7259 726.5577 454.5859 715.8177 454.5859H703.6177V629.8859H715.8177C726.0777 629.8859 733.3977 637.2059 733.3977 646.9759V653.3159C733.3977 664.0659 726.5577 670.4059 715.8177 670.4059H649.8977C638.6677 670.4059 632.3277 664.0659 632.3277 653.3159ZM220.7077 723.1459C220.7077 710.9359 230.4677 701.1759 241.6977 701.1759H753.9077C765.6277 701.1759 774.8977 710.9359 774.8977 723.1459C774.8977 734.8659 765.1377 744.1359 753.9077 744.1359H241.6977C230.4677 744.1359 220.7077 734.8659 220.7077 723.1459Z"/>
</svg>