<?xml version="1.0" encoding="UTF-8" standalone="no"?>
<svg xmlns="http://www.w3.org/2000/svg"
     width="1050.29296875" height="1018.06640625"
     viewBox="0 0 1050.29296875 1018.06640625"
     fill="currentColor">
  <path d="M64.4483 334.4681H985.3483C1012.2083 334.4681 1027.8283 314.9381 1027.8283 294.9181C1027.8283 280.2781 1020.0183 267.5781 1001.9483 257.3281L584.9583 17.0881C565.4283 5.8581 544.9183 -0.0019 524.8983 -0.0019C504.8783 -0.0019 484.3783 5.8581 464.8483 17.0881L47.8483 257.3281C29.7883 267.5781 21.9683 280.2781 21.9683 294.9181C21.9683 314.9381 37.1083 334.4681 64.4483 334.4681ZM85.4483 865.2381C85.4483 885.2581 96.6783 896.4881 116.6983 896.4881H241.6983C261.7183 896.4881 273.4383 885.2581 273.4383 865.2381V853.5181C273.4383 834.4681 261.7183 822.7581 241.6983 822.7581H216.3083V450.6881H241.6983C261.7183 450.6881 273.4383 439.4481 273.4383 419.4381V407.7181C273.4383 388.6681 261.7183 376.9481 241.6983 376.9481H116.6983C96.6783 376.9481 85.4483 388.6681 85.4483 407.7181V419.4381C85.4483 439.4481 96.6783 450.6881 116.6983 450.6881H142.5783V822.7581H116.6983C96.6783 822.7581 85.4483 834.4681 85.4483 853.5181ZM317.3783 865.2381C317.3783 885.2581 329.0983 896.4881 348.6283 896.4881H474.1183C493.6483 896.4881 505.3683 885.2581 505.3683 865.2381V853.5181C505.3683 834.4681 493.6483 822.7581 474.1183 822.7581H448.7283V450.6881H474.1183C493.6483 450.6881 505.3683 439.4481 505.3683 419.4381V407.7181C505.3683 388.6681 493.6483 376.9481 474.1183 376.9481H348.6283C329.0983 376.9481 317.3783 388.6681 317.3783 407.7181V419.4381C317.3783 439.4481 329.0983 450.6881 348.6283 450.6881H374.9983V822.7581H348.6283C329.0983 822.7581 317.3783 834.4681 317.3783 853.5181ZM549.8083 865.2381C549.8083 885.2581 561.5283 896.4881 581.0583 896.4881H706.5383C726.0783 896.4881 737.7883 885.2581 737.7883 865.2381V853.5181C737.7883 834.4681 726.0783 822.7581 706.5383 822.7581H681.1483V450.6881H706.5383C726.0783 450.6881 737.7883 439.4481 737.7883 419.4381V407.7181C737.7883 388.6681 726.0783 376.9481 706.5383 376.9481H581.0583C561.5283 376.9481 549.8083 388.6681 549.8083 407.7181V419.4381C549.8083 439.4481 561.5283 450.6881 581.0583 450.6881H607.4183V822.7581H581.0583C561.5283 822.7581 549.8083 834.4681 549.8083 853.5181ZM782.2283 865.2381C782.2283 885.2581 793.4583 896.4881 813.4783 896.4881H938.4783C958.4983 896.4881 969.7283 885.2581 969.7283 865.2381V853.5181C969.7283 834.4681 958.4983 822.7581 938.4783 822.7581H913.0883V450.6881H938.4783C958.4983 450.6881 969.7283 439.4481 969.7283 419.4381V407.7181C969.7283 388.6681 958.4983 376.9481 938.4783 376.9481H813.4783C793.4583 376.9481 782.2283 388.6681 782.2283 407.7181V419.4381C782.2283 439.4481 793.4583 450.6881 813.4783 450.6881H839.3583V822.7581H813.4783C793.4583 822.7581 782.2283 834.4681 782.2283 853.5181ZM-0.0017 978.5181C-0.0017 999.9981 17.5783 1018.0681 39.0583 1018.0681H1010.7383C1032.2283 1018.0681 1050.2883 999.9981 1050.2883 978.5181C1050.2883 957.0281 1032.2283 939.4581 1010.7383 939.4581H39.0583C17.5783 939.4581 -0.0017 957.0281 -0.0017 978.5181Z"/>
</svg>