<?xml version="1.0" encoding="UTF-8" standalone="no"?>
<svg xmlns="http://www.w3.org/2000/svg"
     width="996.09375" height="996.09375"
     viewBox="0 0 996.09375 996.09375"
     fill="currentColor">
  <path d="M498.0477 996.0959C770.5077 996.0959 996.0977 770.0159 996.0977 498.0459C996.0977 225.5859 770.0177 -0.0041 497.5577 -0.0041C225.5877 -0.0041 -0.0023 225.5859 -0.0023 498.0459C-0.0023 770.0159 226.0777 996.0959 498.0477 996.0959ZM620.1177 331.0559C620.1177 297.8559 601.0777 275.8759 568.8477 275.8759H241.2077C209.4777 275.8759 189.9377 297.8559 189.9377 331.0559V776.8559C123.5377 703.1259 83.4977 605.4659 83.4977 498.0459C83.4977 267.5759 267.0877 83.0059 497.5577 83.0059C728.0277 83.0059 913.0877 267.5759 913.0877 498.0459C913.0877 578.6159 890.6277 653.8059 851.0777 717.7759V455.5659C851.0777 421.8759 831.5477 400.3859 799.8077 400.3859H658.2077V881.3459C645.9977 886.7159 633.2977 891.1159 620.1177 895.0159ZM304.6877 438.9659C297.8477 438.9659 293.4577 433.5959 293.4577 427.2459V375.4859C293.4577 368.1659 297.8477 363.7659 304.6877 363.7659H357.9077C364.2577 363.7659 369.6277 368.1659 369.6277 375.4859V427.2459C369.6277 433.5959 364.2577 438.9659 357.9077 438.9659ZM451.1677 438.9659C444.3377 438.9659 439.9377 433.5959 439.9377 427.2459V375.4859C439.9377 368.1659 444.3377 363.7659 451.1677 363.7659H504.3977C511.2277 363.7659 516.1177 368.1659 516.1177 375.4859V427.2459C516.1177 433.5959 511.2277 438.9659 504.3977 438.9659ZM731.4477 544.9259C725.5877 544.9259 721.6777 541.0159 721.6777 535.1559V491.2059C721.6777 485.8359 725.5877 481.9359 731.4477 481.9359H777.3477C782.2277 481.9359 786.1377 485.8359 786.1377 491.2059V535.1559C786.1377 541.0159 782.2277 544.9259 777.3477 544.9259ZM304.6877 566.4059C297.8477 566.4059 293.4577 561.5259 293.4577 554.6859V503.4159C293.4577 496.5859 297.8477 491.2059 304.6877 491.2059H357.9077C364.2577 491.2059 369.6277 496.5859 369.6277 503.4159V554.6859C369.6277 561.5259 364.2577 566.4059 357.9077 566.4059ZM451.1677 566.4059C444.3377 566.4059 439.9377 561.5259 439.9377 554.6859V503.4159C439.9377 496.5859 444.3377 491.2059 451.1677 491.2059H504.3977C511.2277 491.2059 516.1177 496.5859 516.1177 503.4159V554.6859C516.1177 561.5259 511.2277 566.4059 504.3977 566.4059ZM731.4477 656.2459C725.5877 656.2459 721.6777 652.3459 721.6777 646.4859V603.0259C721.6777 597.1659 725.5877 593.7459 731.4477 593.7459H777.3477C782.2277 593.7459 786.1377 597.1659 786.1377 603.0259V646.4859C786.1377 652.3459 782.2277 656.2459 777.3477 656.2459ZM304.6877 695.3159C297.8477 695.3159 293.4577 690.4259 293.4577 683.5959V631.8359C293.4577 625.4859 297.8477 620.1159 304.6877 620.1159H357.9077C364.2577 620.1159 369.6277 625.4859 369.6277 631.8359V683.5959C369.6277 690.4259 364.2577 695.3159 357.9077 695.3159ZM451.1677 695.3159C444.3377 695.3159 439.9377 690.4259 439.9377 683.5959V631.8359C439.9377 625.4859 444.3377 620.1159 451.1677 620.1159H504.3977C511.2277 620.1159 516.1177 625.4859 516.1177 631.8359V683.5959C516.1177 690.4259 511.2277 695.3159 504.3977 695.3159ZM731.4477 767.5759C725.5877 767.5759 721.6777 763.6759 721.6777 758.7859V714.3559C721.6777 709.4759 725.5877 704.5859 731.4477 704.5859H777.3477C782.2277 704.5859 786.1377 709.4759 786.1377 714.3559V758.7859C786.1377 763.6759 782.2277 767.5759 777.3477 767.5759ZM304.6877 824.2159C297.8477 824.2159 293.4577 819.3359 293.4577 812.4959V760.7459C293.4577 753.9059 297.8477 749.0259 304.6877 749.0259H357.9077C364.2577 749.0259 369.6277 753.9059 369.6277 760.7459V812.4959C369.6277 819.3359 364.2577 824.2159 357.9077 824.2159ZM451.1677 824.2159C444.3377 824.2159 439.9377 819.3359 439.9377 812.4959V760.7459C439.9377 753.9059 444.3377 749.0259 451.1677 749.0259H504.3977C511.2277 749.0259 516.1177 753.9059 516.1177 760.7459V812.4959C516.1177 819.3359 511.2277 824.2159 504.3977 824.2159Z"/>
</svg>