<?xml version="1.0" encoding="UTF-8" standalone="no"?>
<svg xmlns="http://www.w3.org/2000/svg"
     width="996.09375" height="996.09375"
     viewBox="0 0 996.09375 996.09375"
     fill="currentColor">
  <path d="M498.0477 996.0959C770.5077 996.0959 996.0977 770.0159 996.0977 498.0459C996.0977 225.5859 770.0177 -0.0041 497.5577 -0.0041C225.5877 -0.0041 -0.0023 225.5859 -0.0023 498.0459C-0.0023 770.0159 226.0777 996.0959 498.0477 996.0959ZM498.0477 913.0859C267.5777 913.0859 83.4977 728.5159 83.4977 498.0459C83.4977 267.5759 267.0877 83.0059 497.5577 83.0059C728.0277 83.0059 913.0877 267.5759 913.0877 498.0459C913.0877 728.5159 728.5177 913.0859 498.0477 913.0859ZM239.7477 365.2359C239.7477 375.9759 248.0477 386.2259 261.7177 386.2259H733.8877C747.5577 386.2259 755.8577 375.9759 755.8577 365.2359C755.8577 357.9059 751.9577 351.0759 742.1877 345.7059L528.8077 223.1459C518.5577 216.7959 508.2977 213.8659 497.5577 213.8659C486.8177 213.8659 477.0477 216.7959 466.7977 223.1459L252.9277 345.7059C243.6477 351.0759 239.7477 357.9059 239.7477 365.2359ZM271.9777 648.4359C271.9777 658.6959 278.3177 665.0359 289.0577 665.0359H353.0277C363.2777 665.0359 369.6277 658.6959 369.6277 648.4359V642.0859C369.6277 632.8159 363.2777 625.4859 353.0277 625.4859H340.8177V455.0759H353.0277C363.2777 455.0759 369.6277 449.2159 369.6277 438.9659V432.6159C369.6277 422.3659 363.2777 416.0159 353.0277 416.0159H289.0577C278.3177 416.0159 271.9777 422.3659 271.9777 432.6159V438.9659C271.9777 449.2159 278.3177 455.0759 289.0577 455.0759H301.2677V625.4859H289.0577C278.3177 625.4859 271.9777 632.8159 271.9777 642.0859ZM391.1177 648.4359C391.1177 658.6959 396.9777 665.0359 407.2277 665.0359H471.6777C482.4177 665.0359 488.7677 658.6959 488.7677 648.4359V642.0859C488.7677 632.8159 481.9377 625.4859 471.6777 625.4859H459.4777V455.0759H471.6777C482.4177 455.0759 488.7677 449.2159 488.7677 438.9659V432.6159C488.7677 422.3659 481.9377 416.0159 471.6777 416.0159H407.2277C396.9777 416.0159 391.1177 422.3659 391.1177 432.6159V438.9659C391.1177 449.2159 396.9777 455.0759 407.2277 455.0759H419.9177V625.4859H407.2277C396.9777 625.4859 391.1177 632.8159 391.1177 642.0859ZM509.7677 648.4359C509.7677 658.6959 516.1177 665.0359 526.8577 665.0359H590.8177C600.5877 665.0359 607.9077 658.6959 607.9077 648.4359V642.0859C607.9077 632.8159 600.5877 625.4859 590.8177 625.4859H578.1277V455.0759H590.8177C600.5877 455.0759 607.9077 449.2159 607.9077 438.9659V432.6159C607.9077 422.3659 600.5877 416.0159 590.8177 416.0159H526.8577C516.1177 416.0159 509.7677 422.3659 509.7677 432.6159V438.9659C509.7677 449.2159 516.1177 455.0759 526.8577 455.0759H539.0577V625.4859H526.8577C516.1177 625.4859 509.7677 632.8159 509.7677 642.0859ZM628.4177 648.4359C628.4177 658.6959 634.7677 665.0359 645.5077 665.0359H709.4777C719.7277 665.0359 726.5577 658.6959 726.5577 648.4359V642.0859C726.5577 632.8159 719.2377 625.4859 709.4777 625.4859H697.2677V455.0759H709.4777C719.7277 455.0759 726.5577 449.2159 726.5577 438.9659V432.6159C726.5577 422.3659 719.2377 416.0159 709.4777 416.0159H645.5077C634.7677 416.0159 628.4177 422.3659 628.4177 432.6159V438.9659C628.4177 449.2159 634.7677 455.0759 645.5077 455.0759H658.2077V625.4859H645.5077C634.7677 625.4859 628.4177 632.8159 628.4177 642.0859ZM229.0077 715.8159C229.0077 727.0459 238.2777 736.3259 249.5077 736.3259H746.0977C757.3277 736.3259 766.5977 727.0459 766.5977 715.8159C766.5977 704.1059 757.8077 694.8259 746.0977 694.8259H249.5077C238.2777 694.8259 229.0077 704.1059 229.0077 715.8159Z"/>
</svg>