<?xml version="1.0" encoding="UTF-8" standalone="no"?>
<svg xmlns="http://www.w3.org/2000/svg"
     width="777.34375" height="1041.015625"
     viewBox="0 0 777.34375 1041.015625"
     fill="currentColor">
  <path d="M-0.0017 952.1486C-0.0017 1006.3486 31.2483 1041.0186 81.0583 1041.0186H696.7783C746.0983 1041.0186 777.3483 1006.3486 777.3483 952.1486V88.8686C777.3483 34.6686 746.0983 -0.0014 696.7783 -0.0014H81.0583C31.2483 -0.0014 -0.0017 34.6686 -0.0017 88.8686ZM78.6183 934.0786V106.9286C78.6183 87.3986 87.3983 78.6086 106.9383 78.6086H670.8983C689.9383 78.6086 698.7283 87.3986 698.7283 106.9286V934.0786C698.7283 953.1286 689.9383 962.3986 670.8983 962.3986H558.5983V818.3586C558.5983 776.3686 540.0383 756.8386 499.9983 756.8386H277.3483C237.3083 756.8386 218.7483 776.3686 218.7483 818.3586V962.3986H106.9383C87.3983 962.3986 78.6183 953.1286 78.6183 934.0786ZM226.5583 291.9886H321.7783C333.4983 291.9886 341.7983 284.1786 341.7983 271.9686V179.6886C341.7983 167.9686 333.4983 159.6686 321.7783 159.6686H226.5583C214.8483 159.6686 207.5183 167.9686 207.5183 179.6886V271.9686C207.5183 284.1786 214.8483 291.9886 226.5583 291.9886ZM455.5683 291.9886H550.2883C562.0083 291.9886 570.3083 284.1786 570.3083 271.9686V179.6886C570.3083 167.9686 562.0083 159.6686 550.2883 159.6686H455.5683C443.3583 159.6686 436.0383 167.9686 436.0383 179.6886V271.9686C436.0383 284.1786 443.3583 291.9886 455.5683 291.9886ZM226.5583 485.3486H321.7783C333.4983 485.3486 341.7983 477.5386 341.7983 465.3286V373.0486C341.7983 361.3286 333.4983 353.0286 321.7783 353.0286H226.5583C214.8483 353.0286 207.5183 361.3286 207.5183 373.0486V465.3286C207.5183 477.5386 214.8483 485.3486 226.5583 485.3486ZM455.5683 485.3486H550.2883C562.0083 485.3486 570.3083 477.5386 570.3083 465.3286V373.0486C570.3083 361.3286 562.0083 353.0286 550.2883 353.0286H455.5683C443.3583 353.0286 436.0383 361.3286 436.0383 373.0486V465.3286C436.0383 477.5386 443.3583 485.3486 455.5683 485.3486ZM226.5583 678.7086H321.7783C333.4983 678.7086 341.7983 670.4086 341.7983 658.6886V566.4086C341.7983 554.1986 333.4983 546.3886 321.7783 546.3886H226.5583C214.8483 546.3886 207.5183 554.1986 207.5183 566.4086V658.6886C207.5183 670.4086 214.8483 678.7086 226.5583 678.7086ZM455.5683 678.7086H550.2883C562.0083 678.7086 570.3083 670.4086 570.3083 658.6886V566.4086C570.3083 554.1986 562.0083 546.3886 550.2883 546.3886H455.5683C443.3583 546.3886 436.0383 554.1986 436.0383 566.4086V658.6886C436.0383 670.4086 443.3583 678.7086 455.5683 678.7086ZM282.7183 836.4286C282.7183 826.1686 288.0883 820.7986 298.3383 820.7986H479.0083C489.7483 820.7986 494.6283 826.1686 494.6283 836.4286V962.3986H282.7183Z"/>
</svg>