<?xml version="1.0" encoding="UTF-8" standalone="no"?>
<svg xmlns="http://www.w3.org/2000/svg"
     width="996.09375" height="996.09375"
     viewBox="0 0 996.09375 996.09375"
     fill="currentColor">
  <path d="M498.0477 996.0959C770.5077 996.0959 996.0977 770.0159 996.0977 498.0459C996.0977 225.5859 770.0177 -0.0041 497.5577 -0.0041C225.5877 -0.0041 -0.0023 225.5859 -0.0023 498.0459C-0.0023 770.0159 226.0777 996.0959 498.0477 996.0959ZM498.0477 913.0859C267.5777 913.0859 83.4977 728.5159 83.4977 498.0459C83.4977 267.5759 267.0877 83.0059 497.5577 83.0059C728.0277 83.0059 913.0877 267.5759 913.0877 498.0459C913.0877 728.5159 728.5177 913.0859 498.0477 913.0859ZM498.0477 727.0459C584.4777 727.0459 653.3177 686.0359 676.7577 620.1159C680.1777 611.3259 681.1477 604.9759 681.1477 597.6559C681.1477 577.1459 667.9677 564.4559 647.4577 564.4559C632.8077 564.4559 623.0477 571.7759 615.2377 588.3759C595.2177 636.2259 554.1977 662.5959 499.0277 662.5959C421.3877 662.5959 369.1377 594.7259 369.1377 493.6559C369.1377 392.5759 421.3877 324.2159 499.0277 324.2159C554.1977 324.2159 595.2177 350.5859 615.2377 398.9259C623.0477 415.5259 632.8077 422.3659 647.4577 422.3659C667.9677 422.3659 681.1477 409.6659 681.1477 389.1559C681.1477 381.3459 680.1777 375.4859 676.7577 366.6959C652.8277 301.2659 584.4777 259.7659 498.0477 259.7659C371.5777 259.7659 290.5277 351.0759 290.5277 493.6559C290.5277 636.2259 371.0977 727.0459 498.0477 727.0459Z"/>
</svg>