<?xml version="1.0" encoding="UTF-8" standalone="no"?>
<svg xmlns="http://www.w3.org/2000/svg"
     width="898.92578125" height="898.92578125"
     viewBox="0 0 898.92578125 898.92578125"
     fill="currentColor">
  <path d="M153.3183 898.9295H745.6083C848.1483 898.9295 898.9283 848.1495 898.9283 747.5595V151.3695C898.9283 50.7795 848.1483 -0.0005 745.6083 -0.0005H153.3183C51.2683 -0.0005 -0.0017 50.2895 -0.0017 151.3695V747.5595C-0.0017 848.6295 51.2683 898.9295 153.3183 898.9295ZM154.2983 820.3095C105.4683 820.3095 78.6183 794.4295 78.6183 743.6495V155.2695C78.6183 104.4895 105.4683 78.6095 154.2983 78.6095H744.6283C792.9683 78.6095 820.3083 104.4895 820.3083 155.2695V743.6495C820.3083 794.4295 792.9683 820.3095 744.6283 820.3095ZM450.1983 677.7295C537.1083 677.7295 605.4683 636.7195 628.9083 570.7995C632.3283 562.0095 633.2983 555.6595 633.2983 548.3395C633.2983 527.8295 620.1183 515.1395 600.0983 515.1395C584.9583 515.1395 575.1983 522.4595 567.3783 539.0595C547.3683 586.9095 506.3483 613.2795 451.1683 613.2795C373.5383 613.2795 321.2883 545.4095 321.2883 444.3395C321.2883 343.2595 373.5383 274.8995 451.1683 274.8995C506.3483 274.8995 547.3683 301.2695 567.3783 349.6095C575.1983 366.2095 584.9583 373.0495 600.0983 373.0495C620.1183 373.0495 633.2983 360.3495 633.2983 339.8395C633.2983 332.0295 632.3283 326.1695 628.9083 317.3795C605.4683 251.9495 536.6183 210.4495 450.1983 210.4495C323.7283 210.4495 242.6783 301.7595 242.6783 444.3395C242.6783 586.9095 323.2383 677.7295 450.1983 677.7295Z"/>
</svg>