<?xml version="1.0" encoding="UTF-8" standalone="no"?>
<svg xmlns="http://www.w3.org/2000/svg"
     width="793.45703125" height="1119.140625"
     viewBox="0 0 793.45703125 1119.140625"
     fill="currentColor">
  <path d="M143.0683 1119.1394C167.4783 1119.1394 183.5983 1102.5394 183.5983 1078.1294V1028.8094H609.8683V1078.1294C609.8683 1102.5394 625.9783 1119.1394 650.3883 1119.1394C674.8083 1119.1394 690.9183 1102.5394 690.9183 1078.1294V1028.3194C752.9283 1023.9294 793.4583 978.5194 793.4583 912.1094V116.6994C793.4583 46.3894 748.0483 -0.0006 680.6683 -0.0006H112.7883C45.4083 -0.0006 -0.0017 46.3894 -0.0017 116.6994V912.1094C-0.0017 978.5194 40.5283 1023.9294 102.5383 1028.3194V1078.1294C102.5383 1102.5394 118.6483 1119.1394 143.0683 1119.1394ZM116.6983 950.1994C93.7483 950.1994 78.6183 935.0594 78.6183 911.6194V117.1894C78.6183 93.7494 93.7483 78.6094 116.6983 78.6094H364.7483V950.1994ZM676.7583 78.6094C699.7083 78.6094 714.8483 93.7494 714.8483 117.1894V911.6194C714.8483 935.0594 699.7083 950.1994 676.7583 950.1994H428.7083V78.6094ZM270.0183 583.9794C298.3383 583.9794 321.7783 561.0394 321.7783 532.7194C321.7783 503.9094 298.3383 480.9594 270.0183 480.9594C241.6983 480.9594 218.2583 503.9094 218.2583 532.7194C218.2583 561.0394 241.6983 583.9794 270.0183 583.9794ZM522.9483 583.9794C551.2683 583.9794 574.7083 561.0394 574.7083 532.7194C574.7083 503.9094 551.2683 480.9594 522.9483 480.9594C494.6283 480.9594 471.1883 503.9094 471.1883 532.7194C471.1883 561.0394 494.6283 583.9794 522.9483 583.9794Z"/>
</svg>