<?xml version="1.0" encoding="UTF-8" standalone="no"?>
<svg xmlns="http://www.w3.org/2000/svg"
     width="973.14453125" height="898.92578125"
     viewBox="0 0 973.14453125 898.92578125"
     fill="currentColor">
  <path d="M153.3183 898.9295H820.3083C922.3683 898.9295 973.1483 848.1495 973.1483 747.5595V151.3695C973.1483 50.7795 922.3683 -0.0005 820.3083 -0.0005H153.3183C51.2683 -0.0005 -0.0017 50.2895 -0.0017 151.3695V747.5595C-0.0017 848.6295 51.2683 898.9295 153.3183 898.9295ZM145.9983 820.3095C102.5383 820.3095 78.6183 797.3595 78.6183 751.9495V291.4995C78.6183 246.5795 102.5383 223.1395 145.9983 223.1395H826.6583C870.1183 223.1395 894.5283 246.5795 894.5283 291.4995V751.9495C894.5283 797.3595 870.1183 820.3095 826.6583 820.3095ZM391.5983 398.4395H420.4083C437.4983 398.4395 442.8683 393.5595 442.8683 376.4695V347.6595C442.8683 330.5695 437.4983 325.1995 420.4083 325.1995H391.5983C374.5083 325.1995 368.6483 330.5695 368.6483 347.6595V376.4695C368.6483 393.5595 374.5083 398.4395 391.5983 398.4395ZM553.7083 398.4395H582.5183C599.6083 398.4395 605.4683 393.5595 605.4683 376.4695V347.6595C605.4683 330.5695 599.6083 325.1995 582.5183 325.1995H553.7083C536.6183 325.1995 530.7583 330.5695 530.7583 347.6595V376.4695C530.7583 393.5595 536.6183 398.4395 553.7083 398.4395ZM715.8183 398.4395H744.6283C761.7183 398.4395 767.5783 393.5595 767.5783 376.4695V347.6595C767.5783 330.5695 761.7183 325.1995 744.6283 325.1995H715.8183C698.7283 325.1995 693.3583 330.5695 693.3583 347.6595V376.4695C693.3583 393.5595 698.7283 398.4395 715.8183 398.4395ZM229.4883 558.1095H257.8083C275.3883 558.1095 280.7583 553.2195 280.7583 536.1295V507.3195C280.7583 490.2295 275.3883 485.3495 257.8083 485.3495H229.4883C211.9183 485.3495 206.5383 490.2295 206.5383 507.3195V536.1295C206.5383 553.2195 211.9183 558.1095 229.4883 558.1095ZM391.5983 558.1095H420.4083C437.4983 558.1095 442.8683 553.2195 442.8683 536.1295V507.3195C442.8683 490.2295 437.4983 485.3495 420.4083 485.3495H391.5983C374.5083 485.3495 368.6483 490.2295 368.6483 507.3195V536.1295C368.6483 553.2195 374.5083 558.1095 391.5983 558.1095ZM553.7083 558.1095H582.5183C599.6083 558.1095 605.4683 553.2195 605.4683 536.1295V507.3195C605.4683 490.2295 599.6083 485.3495 582.5183 485.3495H553.7083C536.6183 485.3495 530.7583 490.2295 530.7583 507.3195V536.1295C530.7583 553.2195 536.6183 558.1095 553.7083 558.1095ZM715.8183 558.1095H744.6283C761.7183 558.1095 767.5783 553.2195 767.5783 536.1295V507.3195C767.5783 490.2295 761.7183 485.3495 744.6283 485.3495H715.8183C698.7283 485.3495 693.3583 490.2295 693.3583 507.3195V536.1295C693.3583 553.2195 698.7283 558.1095 715.8183 558.1095ZM229.4883 718.2595H257.8083C275.3883 718.2595 280.7583 712.8895 280.7583 695.7995V666.9895C280.7583 649.8995 275.3883 645.0195 257.8083 645.0195H229.4883C211.9183 645.0195 206.5383 649.8995 206.5383 666.9895V695.7995C206.5383 712.8895 211.9183 718.2595 229.4883 718.2595ZM391.5983 718.2595H420.4083C437.4983 718.2595 442.8683 712.8895 442.8683 695.7995V666.9895C442.8683 649.8995 437.4983 645.0195 420.4083 645.0195H391.5983C374.5083 645.0195 368.6483 649.8995 368.6483 666.9895V695.7995C368.6483 712.8895 374.5083 718.2595 391.5983 718.2595ZM553.7083 718.2595H582.5183C599.6083 718.2595 605.4683 712.8895 605.4683 695.7995V666.9895C605.4683 649.8995 599.6083 645.0195 582.5183 645.0195H553.7083C536.6183 645.0195 530.7583 649.8995 530.7583 666.9895V695.7995C530.7583 712.8895 536.6183 718.2595 553.7083 718.2595Z"/>
</svg>