<?xml version="1.0" encoding="UTF-8" standalone="no"?>
<svg xmlns="http://www.w3.org/2000/svg"
     width="996.09375" height="996.09375"
     viewBox="0 0 996.09375 996.09375"
     fill="currentColor">
  <path d="M498.0477 996.0977C770.5077 996.0977 996.0977 770.5077 996.0977 498.0477C996.0977 226.0777 770.0177 -0.0023 497.5577 -0.0023C225.5877 -0.0023 -0.0023 226.0777 -0.0023 498.0477C-0.0023 770.5077 226.0777 996.0977 498.0477 996.0977ZM313.9677 747.0677C257.3277 747.0677 229.0077 719.2377 229.0077 663.0877V333.0077C229.0077 277.3477 257.3277 249.0277 313.9677 249.0277H682.1277C738.7677 249.0277 767.0877 277.3477 767.0877 333.0077V663.0877C767.0877 719.2377 738.7677 747.0677 682.1277 747.0677ZM310.0577 700.6877H685.5477C708.9877 700.6877 720.7077 689.4577 720.7077 665.5277V410.6477C720.7077 385.7377 707.0277 373.0477 683.5977 373.0477H312.4977C288.5777 373.0477 275.3877 385.7377 275.3877 410.6477V665.5277C275.3877 689.4577 287.5977 700.6877 310.0577 700.6877ZM443.8477 474.1177C432.1277 474.1177 428.7077 470.7077 428.7077 459.9577V440.4277C428.7077 429.1977 432.1277 425.2977 443.8477 425.2977H462.3977C474.1177 425.2977 478.0277 429.1977 478.0277 440.4277V459.9577C478.0277 470.7077 474.1177 474.1177 462.3977 474.1177ZM533.6877 474.1177C521.9777 474.1177 518.5577 470.7077 518.5577 459.9577V440.4277C518.5577 429.1977 521.9777 425.2977 533.6877 425.2977H552.2477C563.9677 425.2977 567.3877 429.1977 567.3877 440.4277V459.9577C567.3877 470.7077 563.9677 474.1177 552.2477 474.1177ZM623.5377 474.1177C611.3277 474.1177 607.9077 470.7077 607.9077 459.9577V440.4277C607.9077 429.1977 611.3277 425.2977 623.5377 425.2977H641.5977C653.3177 425.2977 657.2277 429.1977 657.2277 440.4277V459.9577C657.2277 470.7077 653.3177 474.1177 641.5977 474.1177ZM354.4877 562.0077C342.7777 562.0077 338.8677 559.0777 338.8677 547.8477V528.8077C338.8677 517.0877 342.7777 513.6677 354.4877 513.6677H373.0477C384.7677 513.6677 388.1877 517.0877 388.1877 528.8077V547.8477C388.1877 559.0777 384.7677 562.0077 373.0477 562.0077ZM443.8477 562.0077C432.1277 562.0077 428.7077 559.0777 428.7077 547.8477V528.8077C428.7077 517.0877 432.1277 513.6677 443.8477 513.6677H462.3977C474.1177 513.6677 478.0277 517.0877 478.0277 528.8077V547.8477C478.0277 559.0777 474.1177 562.0077 462.3977 562.0077ZM533.6877 562.0077C521.9777 562.0077 518.5577 559.0777 518.5577 547.8477V528.8077C518.5577 517.0877 521.9777 513.6677 533.6877 513.6677H552.2477C563.9677 513.6677 567.3877 517.0877 567.3877 528.8077V547.8477C567.3877 559.0777 563.9677 562.0077 552.2477 562.0077ZM623.5377 562.0077C611.3277 562.0077 607.9077 559.0777 607.9077 547.8477V528.8077C607.9077 517.0877 611.3277 513.6677 623.5377 513.6677H641.5977C653.3177 513.6677 657.2277 517.0877 657.2277 528.8077V547.8477C657.2277 559.0777 653.3177 562.0077 641.5977 562.0077ZM354.4877 650.3877C342.7777 650.3877 338.8677 646.9677 338.8677 635.2577V616.2077C338.8677 604.9777 342.7777 602.0477 354.4877 602.0477H373.0477C384.7677 602.0477 388.1877 604.9777 388.1877 616.2077V635.2577C388.1877 646.9677 384.7677 650.3877 373.0477 650.3877ZM443.8477 650.3877C432.1277 650.3877 428.7077 646.9677 428.7077 635.2577V616.2077C428.7077 604.9777 432.1277 602.0477 443.8477 602.0477H462.3977C474.1177 602.0477 478.0277 604.9777 478.0277 616.2077V635.2577C478.0277 646.9677 474.1177 650.3877 462.3977 650.3877ZM533.6877 650.3877C521.9777 650.3877 518.5577 646.9677 518.5577 635.2577V616.2077C518.5577 604.9777 521.9777 602.0477 533.6877 602.0477H552.2477C563.9677 602.0477 567.3877 604.9777 567.3877 616.2077V635.2577C567.3877 646.9677 563.9677 650.3877 552.2477 650.3877Z"/>
</svg>