<?xml version="1.0" encoding="UTF-8" standalone="no"?>
<svg xmlns="http://www.w3.org/2000/svg"
     width="996.09375" height="996.09375"
     viewBox="0 0 996.09375 996.09375"
     fill="currentColor">
  <path d="M498.0477 996.0959C770.5077 996.0959 996.0977 770.0159 996.0977 498.0459C996.0977 225.5859 770.0177 -0.0041 497.5577 -0.0041C225.5877 -0.0041 -0.0023 225.5859 -0.0023 498.0459C-0.0023 770.0159 226.0777 996.0959 498.0477 996.0959ZM498.0477 913.0859C267.5777 913.0859 83.4977 728.5159 83.4977 498.0459C83.4977 267.5759 267.0877 83.0059 497.5577 83.0059C728.0277 83.0059 913.0877 267.5759 913.0877 498.0459C913.0877 728.5159 728.5177 913.0859 498.0477 913.0859ZM279.7877 718.7459H715.3277C766.5977 718.7459 792.9677 693.3559 792.9677 642.5759V384.2759C792.9677 333.0059 766.5977 307.6159 715.3277 307.6159H652.3477C633.2977 307.6159 626.9577 303.7059 615.7277 291.5059L596.1877 269.0459C583.9877 255.8559 571.2877 248.5359 545.8977 248.5359H447.2677C422.3677 248.5359 409.6677 255.8559 396.9777 269.0459L376.9577 291.5059C365.7277 303.2259 360.3477 307.6159 340.8177 307.6159H279.7877C228.0277 307.6159 202.1477 333.0059 202.1477 384.2759V642.5759C202.1477 693.3559 228.0277 718.7459 279.7877 718.7459ZM498.0477 657.2259C416.9877 657.2259 351.5577 592.2859 351.5577 510.7459C351.5577 429.6859 416.9877 364.7459 498.0477 364.7459C579.0977 364.7459 644.0477 429.6859 644.0477 510.7459C644.0477 593.7459 579.0977 657.2259 498.0477 657.2259ZM692.8677 440.4259C674.8077 440.4259 659.6677 426.2659 659.6677 407.2259C659.6677 389.1559 674.8077 374.5159 692.8677 374.5159C710.9377 374.5159 725.5877 389.1559 725.5877 407.2259C726.0777 426.2659 710.9377 440.4259 692.8677 440.4259ZM497.5577 615.2359C555.1777 615.2359 602.0477 568.8459 602.0477 510.7459C602.0477 453.1259 555.1777 406.7359 497.5577 406.7359C439.9377 406.7359 393.0677 453.1259 393.0677 510.7459C393.0677 568.8459 439.9377 615.2359 497.5577 615.2359Z"/>
</svg>