<?xml version="1.0" encoding="UTF-8" standalone="no"?>
<svg xmlns="http://www.w3.org/2000/svg"
     width="1151.3671875" height="898.92578125"
     viewBox="0 0 1151.3671875 898.92578125"
     fill="currentColor">
  <path d="M1072.7583 416.5078H1151.3683V151.3678C1151.3683 50.7778 1100.5883 -0.0022 998.0483 -0.0022H609.8683V78.6178H997.0683C1045.4083 78.6178 1072.7583 104.9778 1072.7583 155.7578ZM-0.0017 416.5078H78.6183V155.7578C78.6183 104.9778 105.4683 78.6178 154.2983 78.6178H542.9683V-0.0022H153.3183C51.2683 -0.0022 -0.0017 50.7778 -0.0017 151.3678ZM576.1683 315.4278C614.2583 315.4278 644.5283 284.6678 644.5283 246.5778C644.5283 209.4678 614.2583 178.2178 576.1683 178.2178C538.5783 178.2178 507.8083 209.4678 507.8083 246.5778C507.8083 284.6678 538.5783 315.4278 576.1683 315.4278ZM576.1683 517.5778C614.2583 517.5778 644.5283 486.8178 644.5283 449.2178C644.5283 411.1278 614.2583 380.8578 576.1683 380.8578C538.5783 380.8578 507.8083 411.1278 507.8083 449.2178C507.8083 486.8178 538.5783 517.5778 576.1683 517.5778ZM779.2983 517.5778C816.4083 517.5778 847.6583 486.8178 847.6583 449.2178C847.6583 411.1278 816.4083 380.8578 779.2983 380.8578C740.7183 380.8578 709.9583 411.1278 709.9583 449.2178C709.9583 486.8178 740.7183 517.5778 779.2983 517.5778ZM373.5383 517.5778C412.1083 517.5778 442.3783 486.8178 442.3783 449.2178C442.3783 411.1278 412.1083 380.8578 373.5383 380.8578C336.4283 380.8578 305.1783 411.1278 305.1783 449.2178C305.1783 486.8178 336.4283 517.5778 373.5383 517.5778ZM153.3183 898.9278H542.9683V820.3078H154.2983C105.4683 820.3078 78.6183 794.4378 78.6183 743.6478V482.9078H-0.0017V748.0478C-0.0017 848.6378 51.2683 898.9278 153.3183 898.9278ZM609.8683 898.9278H998.0483C1100.5883 898.9278 1151.3683 848.6378 1151.3683 748.0478V482.9078H1072.7583V743.6478C1072.7583 794.4378 1045.4083 820.3078 997.0683 820.3078H609.8683ZM576.1683 720.2178C614.2583 720.2178 644.5283 688.9678 644.5283 651.8578C644.5283 613.2778 614.2583 583.0078 576.1683 583.0078C538.5783 583.0078 507.8083 613.2778 507.8083 651.8578C507.8083 688.9678 538.5783 720.2178 576.1683 720.2178Z"/>
</svg>