<?xml version="1.0" encoding="UTF-8" standalone="no"?>
<svg xmlns="http://www.w3.org/2000/svg"
     width="1151.3671875" height="898.92578125"
     viewBox="0 0 1151.3671875 898.92578125"
     fill="currentColor">
  <path d="M1072.7583 416.5078H1151.3683V151.3678C1151.3683 50.7778 1100.5883 -0.0022 998.0483 -0.0022H609.8683V78.6178H997.0683C1045.4083 78.6178 1072.7583 104.9778 1072.7583 155.7578ZM-0.0017 416.5078H78.6183V155.7578C78.6183 104.9778 105.4683 78.6178 154.2983 78.6178H542.9683V-0.0022H153.3183C51.2683 -0.0022 -0.0017 50.7778 -0.0017 151.3678ZM577.6383 721.6778C726.0783 721.6778 848.6283 598.6278 848.6283 448.7278C848.6283 300.2978 725.5883 178.2178 577.6383 178.2178C427.7383 178.2178 304.6883 300.2978 304.6883 448.7278C304.6883 599.1178 427.2483 721.6778 577.6383 721.6778ZM577.6383 658.6878C461.9183 658.6878 367.6783 563.9678 367.6783 448.7278C367.6783 334.9578 462.3983 241.2078 577.6383 241.2078C691.4083 241.2078 785.6483 334.9578 785.6483 448.7278C785.6483 563.9678 691.8983 658.6878 577.6383 658.6878ZM577.1483 588.8678C652.8283 588.8678 715.8183 526.3678 715.8183 449.2178C715.8183 373.5378 652.8283 311.0378 577.1483 311.0378C500.4883 311.0378 437.4983 373.5378 437.4983 449.2178C437.4983 526.3678 500.4883 588.8678 577.1483 588.8678ZM153.3183 898.9278H542.9683V820.3078H154.2983C105.4683 820.3078 78.6183 794.4378 78.6183 743.6478V482.9078H-0.0017V748.0478C-0.0017 848.6378 51.2683 898.9278 153.3183 898.9278ZM609.8683 898.9278H998.0483C1100.5883 898.9278 1151.3683 848.6378 1151.3683 748.0478V482.9078H1072.7583V743.6478C1072.7583 794.4378 1045.4083 820.3078 997.0683 820.3078H609.8683Z"/>
</svg>