<?xml version="1.0" encoding="UTF-8" standalone="no"?>
<svg xmlns="http://www.w3.org/2000/svg"
     width="1026.3671875" height="1021.97265625"
     viewBox="0 0 1026.3671875 1021.97265625"
     fill="currentColor">
  <path d="M362.3006 708.4953H664.0606C732.4206 708.4953 768.5506 668.4553 768.5506 604.0053V520.5053H953.6106C994.1406 520.5053 1026.3706 496.5853 1026.3706 458.9853C1026.3706 436.0353 1014.6506 417.9653 992.6806 398.9253L573.7306 29.2953C553.2206 11.7153 535.1606 -0.0047 513.1806 -0.0047C491.2106 -0.0047 473.1406 11.7153 452.6406 29.2953L33.6906 399.4153C10.7406 419.4353 0.0006 436.0353 0.0006 458.9853C0.0006 496.5853 32.2306 520.5053 72.7506 520.5053H257.8106V604.0053C257.8106 668.4553 293.9406 708.4953 362.3006 708.4953ZM370.1206 634.7653C352.0506 634.7653 339.3506 622.5553 339.3506 604.0053V463.3753C339.3506 451.6553 334.9606 446.7753 322.7506 446.7753H110.3506C106.9306 446.7753 104.9806 445.3153 104.9806 442.8753C104.9806 440.9153 105.9606 438.9653 107.9106 437.0153L502.9306 94.2353C506.8406 90.3353 509.7706 88.8653 513.1806 88.8653C516.6006 88.8653 519.5306 90.3353 523.4406 94.2353L918.4606 437.0153C920.4106 438.9653 921.3906 440.9153 921.3906 442.8753C921.3906 445.3153 919.4306 446.7753 916.0206 446.7753H703.6106C691.8906 446.7753 687.0106 451.6553 687.0106 463.3753V604.0053C687.0106 622.0653 673.8306 634.7653 656.2506 634.7653ZM341.3106 1021.9753H680.6606C737.3006 1021.9753 769.5306 990.7253 769.5306 934.0853V864.2553C769.5306 807.1253 737.3006 774.9053 680.6606 774.9053H341.3106C285.1606 774.9053 252.9306 807.6153 252.9306 864.2553V934.0853C252.9306 990.2353 285.1606 1021.9753 341.3106 1021.9753ZM352.5406 953.1253C335.4506 953.1253 326.6606 944.3353 326.6606 927.2453V871.0953C326.6606 854.0053 335.4506 843.7453 352.5406 843.7453H669.4306C686.5206 843.7453 695.8006 854.0053 695.8006 871.0953V927.2453C695.8006 944.3353 686.5206 953.1253 669.4306 953.1253Z"/>
</svg>