<?xml version="1.0" encoding="UTF-8" standalone="no"?>
<svg xmlns="http://www.w3.org/2000/svg"
     width="1076.171875" height="1010.25390625"
     viewBox="0 0 1076.171875 1010.25390625"
     fill="currentColor">
  <path d="M300.2883 1010.2519C324.2183 1010.2519 340.8183 997.5619 370.6083 971.1919L539.0583 821.2919H852.5383C998.0483 821.2919 1076.1683 740.7219 1076.1683 597.6519V223.6319C1076.1683 80.5619 998.0483 0.0019 852.5383 0.0019H223.6283C78.1283 0.0019 -0.0017 80.0819 -0.0017 223.6319V597.6519C-0.0017 741.2119 78.1283 821.2919 223.6283 821.2919H247.0683V948.2419C247.0683 985.8419 266.1183 1010.2519 300.2883 1010.2519ZM320.3083 920.9019V779.2919C320.3083 752.9319 310.0583 742.6719 283.6883 742.6719H223.6283C124.9983 742.6719 78.6183 692.3819 78.6183 597.1719V223.6319C78.6183 128.4219 124.9983 78.6119 223.6283 78.6119H852.5383C950.6883 78.6119 997.5583 128.4219 997.5583 223.6319V597.1719C997.5583 692.3819 950.6883 742.6719 852.5383 742.6719H536.1283C508.7883 742.6719 495.1183 746.5819 476.5583 765.6219ZM229.4883 467.2819H430.6683C446.2883 467.2819 458.9883 454.5919 458.9883 438.4719C458.9883 423.3419 446.2883 410.6419 430.6683 410.6419H229.4883C213.8683 410.6419 201.1683 423.3419 201.1683 438.4719C201.1683 454.5919 213.8683 467.2819 229.4883 467.2819ZM531.7383 467.2819H847.6583C863.2783 467.2819 875.4883 454.5919 875.4883 438.4719C875.4883 423.3419 863.2783 410.6419 847.6583 410.6419H531.7383C516.1183 410.6419 503.4183 423.3419 503.4183 438.4719C503.4183 454.5919 516.1183 467.2819 531.7383 467.2819ZM229.4883 594.7219H312.4983C328.1283 594.7219 340.3283 582.5219 340.3283 566.8919C340.3283 550.7819 328.1283 538.0819 312.4983 538.0819H229.4883C213.8683 538.0819 201.1683 550.7819 201.1683 566.8919C201.1683 582.5219 213.8683 594.7219 229.4883 594.7219ZM413.0883 594.7219H657.7183C673.3383 594.7219 686.0383 582.5219 686.0383 566.8919C686.0383 550.7819 673.3383 538.0819 657.7183 538.0819H413.0883C397.4583 538.0819 385.2583 550.7819 385.2583 566.8919C385.2583 582.5219 397.4583 594.7219 413.0883 594.7219ZM758.7883 594.7219H847.6583C863.2783 594.7219 875.4883 582.5219 875.4883 566.8919C875.4883 550.7819 863.2783 538.0819 847.6583 538.0819H758.7883C743.1683 538.0819 730.4683 550.7819 730.4683 566.8919C730.4683 582.5219 743.1683 594.7219 758.7883 594.7219Z"/>
</svg>