<?xml version="1.0" encoding="UTF-8" standalone="no"?>
<svg xmlns="http://www.w3.org/2000/svg"
     width="1076.171875" height="1013.18359375"
     viewBox="0 0 1076.171875 1013.18359375"
     fill="currentColor">
  <path d="M290.0383 1013.1819C309.0783 1013.1819 323.2383 1003.4219 346.1883 981.9319L522.4583 820.8019H852.5383C998.0483 820.8019 1076.1683 740.7219 1076.1683 597.6519V223.6319C1076.1683 80.5619 998.0483 0.0019 852.5383 0.0019H223.6283C78.1283 0.0019 -0.0017 80.0819 -0.0017 223.6319V597.6519C-0.0017 741.2119 78.1283 820.8019 223.6283 820.8019H246.5783V962.8919C246.5783 993.1619 262.2083 1013.1819 290.0383 1013.1819ZM220.2183 465.8219C204.0983 465.8219 190.9183 452.6319 190.9183 436.0319C190.9183 420.4119 204.0983 407.2219 220.2183 407.2219H427.2483C443.3583 407.2219 456.5383 420.4119 456.5383 436.0319C456.5383 452.6319 443.3583 465.8219 427.2483 465.8219ZM531.2483 465.8219C515.1383 465.8219 501.9483 452.6319 501.9483 436.0319C501.9483 420.4119 515.1383 407.2219 531.2483 407.2219H856.9383C873.0483 407.2219 885.7383 420.4119 885.7383 436.0319C885.7383 452.6319 873.0483 465.8219 856.9383 465.8219ZM220.2183 597.1719C204.0983 597.1719 190.9183 584.4719 190.9183 568.3619C190.9183 551.7619 204.0983 538.5719 220.2183 538.5719H305.6683C321.7783 538.5719 334.4683 551.7619 334.4683 568.3619C334.4683 584.4719 321.7783 597.1719 305.6683 597.1719ZM409.1783 597.1719C393.0683 597.1719 380.3683 584.4719 380.3683 568.3619C380.3683 551.7619 393.0683 538.5719 409.1783 538.5719H661.6183C677.7383 538.5719 690.9183 551.7619 690.9183 568.3619C690.9183 584.4719 677.7383 597.1719 661.6183 597.1719ZM765.6283 597.1719C749.5083 597.1719 736.3283 584.4719 736.3283 568.3619C736.3283 551.7619 749.5083 538.5719 765.6283 538.5719H856.9383C873.0483 538.5719 885.7383 551.7619 885.7383 568.3619C885.7383 584.4719 873.0483 597.1719 856.9383 597.1719Z"/>
</svg>