<?xml version="1.0" encoding="UTF-8" standalone="no"?>
<svg xmlns="http://www.w3.org/2000/svg"
     width="1084.6031710359973" height="1147.94921875"
     viewBox="0 0 1084.6031710359973 1147.94921875"
     fill="currentColor">
  <path d="M167.5453 662.1075H209.5353C236.3953 662.1075 256.9053 641.5975 256.9053 615.2375V555.1775C336.0053 560.5475 450.7453 563.9675 542.5453 563.9675C633.8553 563.9675 748.6053 560.5475 828.1953 555.1775V615.2375C828.1953 641.5975 848.6953 662.1075 875.0653 662.1075H917.0553C943.9153 662.1075 964.4253 641.5975 964.4253 615.2375V409.1775C964.4253 349.1175 952.2153 315.4275 919.4953 272.9475L889.2253 233.8875C876.0453 169.4375 852.1153 102.0475 839.9053 75.6875C820.8653 35.1575 783.7553 11.7175 736.3953 5.3675C712.9553 1.9575 634.3453 -0.0025 542.5453 -0.0025C450.2653 -0.0025 372.1353 2.4375 348.2053 5.3675C300.8453 10.7375 263.7353 35.1575 244.6953 75.6875C232.4853 102.0475 208.5653 169.4375 195.3753 233.8875L165.5953 272.9475C132.3853 315.4275 120.1853 349.1175 120.1853 409.1775V615.2375C120.1853 641.5975 140.6953 662.1075 167.5453 662.1075ZM267.1553 204.0975C275.9453 164.5475 293.0353 113.7675 304.7553 93.2575C314.5153 76.6575 325.2653 68.8475 344.3053 66.4075C371.6453 62.4975 432.1953 60.5475 542.5453 60.5475C652.4053 60.5475 713.4453 62.0075 740.2953 66.4075C759.8353 69.3375 770.0853 76.6575 779.8553 93.2575C792.0553 113.2775 808.1753 164.5475 817.4453 204.0975C820.8653 217.2875 815.0053 222.1675 801.3353 221.6775C742.2553 217.7775 671.4553 213.8675 542.5453 213.8675C413.1553 213.8675 342.8353 217.7775 283.2653 221.6775C269.5953 222.1675 264.2253 217.2875 267.1553 204.0975ZM284.7353 467.2875C252.5053 467.2875 227.6053 442.8675 227.6053 410.1575C227.6053 377.4375 252.5053 353.0275 284.7353 353.0275C317.4453 353.0275 341.8653 377.4375 341.8653 410.1575C341.8653 442.8675 317.4453 467.2875 284.7353 467.2875ZM799.8653 467.2875C767.1553 467.2875 742.7453 442.8675 742.7453 410.1575C742.7453 377.4375 767.1553 353.0275 799.8653 353.0275C832.5853 353.0275 856.9953 377.4375 856.9953 410.1575C856.9953 442.8675 832.5853 467.2875 799.8653 467.2875ZM447.8153 453.6175C423.8953 453.6175 406.8053 436.5275 406.8053 412.1075C406.8053 387.6975 423.8953 371.0975 447.8153 371.0975H636.7853C661.1953 371.0975 677.7953 387.6975 677.7953 412.1075C677.7953 436.5275 661.1953 453.6175 636.7853 453.6175ZM21.5453 847.6575L128.4853 989.7475C133.8553 986.3275 139.7153 981.9375 146.0653 977.5375C201.7253 937.0075 249.5753 913.5775 310.6153 913.5775C373.6053 913.5775 420.9653 938.4775 478.5853 980.4675C512.7653 1006.8375 522.5253 1012.6975 542.5453 1012.6975C561.1053 1012.6975 570.8653 1006.8375 600.1653 985.3475C660.2253 939.4575 709.0453 913.5775 773.9953 913.5775C835.5153 913.5775 882.8753 937.0075 938.5453 977.5375C944.8853 981.9375 950.7453 986.3275 956.6053 989.7475L1063.0553 847.6575C1107.9753 789.0575 1080.1453 721.6775 1002.9953 721.6775H81.6053C4.4553 721.6775 -23.3747 789.0575 21.5453 847.6575ZM63.5453 1147.9475H65.9853C218.3253 1147.9475 231.0253 1048.8275 310.6153 1048.8275C387.7653 1048.8275 409.2453 1147.9475 542.5453 1147.9475C675.3553 1147.9475 696.8453 1048.8275 773.9953 1048.8275C853.5853 1048.8275 866.2753 1147.9475 1018.6153 1147.9475H1021.0653C1040.1053 1147.9475 1055.2453 1132.8175 1055.2453 1113.7675C1055.2453 1094.7275 1040.1053 1079.0975 1021.0653 1079.0975H1018.6153C965.8853 1079.0975 936.5853 1057.6175 899.4753 1031.2475C867.7453 1008.2975 828.1953 979.9775 773.9953 979.9775C718.3253 979.9775 678.2853 1010.2575 646.5453 1033.6875C612.8553 1059.5675 586.0053 1079.0975 542.5453 1079.0975C498.6053 1079.0975 472.2353 1059.5675 438.5453 1033.6875C406.8053 1010.2575 366.2753 979.9775 310.6153 979.9775C256.4153 979.9775 216.8653 1008.2975 185.1253 1031.2475C148.0153 1057.6175 118.7153 1079.0975 65.9853 1079.0975H63.5453C44.4953 1079.0975 29.3653 1094.7275 29.3653 1113.7675C29.3653 1132.8175 44.4953 1147.9475 63.5453 1147.9475Z"/>
</svg>