<?xml version="1.0" encoding="UTF-8" standalone="no"?>
<svg xmlns="http://www.w3.org/2000/svg"
     width="996.09375" height="996.09375"
     viewBox="0 0 996.09375 996.09375"
     fill="currentColor">
  <path d="M498.0477 996.0977C770.5077 996.0977 996.0977 770.5077 996.0977 498.0477C996.0977 226.0777 770.0177 -0.0023 497.5577 -0.0023C225.5877 -0.0023 -0.0023 226.0777 -0.0023 498.0477C-0.0023 770.5077 226.0777 996.0977 498.0477 996.0977ZM222.1677 665.5277V531.2477C222.1677 492.6777 229.9777 470.2177 251.9577 442.3877L271.9777 416.9877C280.7577 374.5077 295.4077 330.5677 303.7077 313.4777C316.4077 287.1077 340.3277 271.4877 371.0977 267.5777C387.2077 265.6277 437.9877 264.1577 498.5377 264.1577C558.5977 264.1577 609.8677 265.6277 625.4877 267.5777C656.7377 271.9677 680.6677 287.1077 692.8677 313.4777C701.1677 330.5677 715.8177 374.5077 725.0977 416.9877L744.6277 442.3877C766.5977 470.2177 774.4177 492.6777 774.4177 531.2477V665.5277C774.4177 682.6177 760.7377 696.2877 743.6477 696.2877H715.8177C698.2377 696.2877 684.5677 682.6177 684.5677 665.5277V626.9577C632.8077 629.8877 558.5977 631.8377 498.5377 631.8377C438.4777 631.8377 363.7677 629.8877 312.0077 626.9577V665.5277C312.0077 682.6177 298.3377 696.2877 281.2477 696.2877H253.4177C235.8377 696.2877 222.1677 682.6177 222.1677 665.5277ZM331.5477 395.0177C329.5877 402.3477 332.5177 405.7577 341.3077 405.2777C377.4377 402.3477 419.9177 400.3877 498.5377 400.3877C576.6577 400.3877 619.6277 402.3477 655.2777 405.2777C664.0577 405.7577 667.4777 402.3477 665.0377 395.0177C660.1577 370.6077 649.8977 339.3577 643.0677 327.6377C636.2277 316.8977 630.3677 312.4977 618.1677 311.0377C601.5577 308.1077 564.4577 307.6177 498.5377 307.6177C432.1277 307.6177 395.0177 308.5977 378.9077 311.0377C366.6977 312.4977 360.3477 316.8977 354.0077 327.6377C347.1677 339.8477 336.9177 370.6077 331.5477 395.0177ZM292.4777 531.7377C292.4777 552.7377 309.0777 569.3377 330.0777 569.3377C351.0777 569.3377 367.6777 552.7377 367.6777 531.7377C367.6777 510.7377 351.0777 494.6277 330.0777 494.6277C309.0777 494.6277 292.4777 510.7377 292.4777 531.7377ZM629.3977 531.7377C629.3977 552.7377 645.5077 569.3377 666.5077 569.3377C687.9877 569.3377 704.5877 552.7377 704.5877 531.7377C704.5877 510.7377 687.9877 494.6277 666.5077 494.6277C645.5077 494.6277 629.3977 510.7377 629.3977 531.7377ZM409.6677 533.2077C409.6677 549.3177 420.8977 560.5477 437.0077 560.5477H560.0577C575.6877 560.5477 586.9177 549.3177 586.9177 533.2077C586.9177 517.5777 575.6877 506.3477 560.0577 506.3477H437.0077C420.8977 506.3477 409.6677 517.5777 409.6677 533.2077Z"/>
</svg>