<?xml version="1.0" encoding="UTF-8" standalone="no"?>
<svg xmlns="http://www.w3.org/2000/svg"
     width="670.8984375" height="1336.9140625"
     viewBox="0 0 670.8984375 1336.9140625"
     fill="currentColor">
  <path d="M335.4483 73.2461C421.8783 73.2461 499.9983 104.9761 560.0583 158.6961C581.0583 176.7561 603.0283 178.2261 617.6783 164.0661C633.7883 147.9461 632.8083 124.5161 615.7183 106.4461C542.9683 33.6961 441.8983 -0.0039 335.4483 -0.0039C229.4883 -0.0039 128.4183 33.6961 55.6683 106.4461C38.0883 124.5161 37.1083 147.9461 53.7083 164.0661C67.8683 178.2261 89.8483 176.7561 110.8383 158.6961C170.8983 104.9761 249.5083 73.2461 335.4483 73.2461ZM335.4483 244.6261C378.4183 244.6261 416.0183 257.8161 444.8283 281.7361C469.7283 299.3161 490.2383 298.3361 503.9083 284.1761C519.0383 269.5361 518.0683 248.0461 502.4383 231.9361C472.6583 202.1461 406.7383 171.3861 335.4483 171.3861C264.6483 171.3861 198.7283 202.1461 168.4583 231.9361C152.8283 248.0461 151.8583 269.5361 166.9883 284.1761C180.6683 298.3361 201.1683 299.3161 226.0783 281.7361C255.3683 257.8161 292.9683 244.6261 335.4483 244.6261ZM335.4483 1336.9161C522.9483 1336.9161 607.4183 1294.4361 607.4183 1186.5261V760.2561H627.9283C652.3483 760.2561 670.8983 741.6961 670.8983 718.7461V700.1961C670.8983 676.7561 652.3483 658.6961 627.9283 658.6961H607.4183V552.7361C607.4183 441.4061 504.3983 375.4861 335.4483 375.4861C166.5083 375.4861 63.9683 441.4061 63.9683 552.7361V658.6961H42.9683C19.0383 658.6961 -0.0017 676.7561 -0.0017 700.1961V718.7461C-0.0017 741.6961 19.0383 760.2561 42.9683 760.2561H63.9683V1186.5261C63.9683 1294.4361 147.9483 1336.9161 335.4483 1336.9161ZM335.4483 1260.7461C195.7983 1260.7461 141.1183 1239.2561 141.1183 1184.0861V552.7361C141.1183 488.7661 208.9883 452.6361 335.4483 452.6361C462.3983 452.6361 530.2783 488.7661 530.2783 552.7361V1184.0861C530.2783 1239.2561 475.5883 1260.7461 335.4483 1260.7461ZM335.4483 780.2761C371.0983 780.2761 424.3183 783.2061 442.3783 783.2061C472.1683 783.2061 485.3483 770.9961 488.2783 740.2361L494.1383 671.8761C499.0283 615.7261 461.4283 594.2361 335.4483 594.2361C209.4683 594.2361 172.3683 615.7261 177.2483 671.8761L183.1083 740.2361C186.0383 770.9961 199.2183 783.2061 228.5183 783.2061C247.0683 783.2061 302.2483 780.2761 335.4483 780.2761ZM335.4483 1172.3661C461.4283 1172.3661 501.4683 1153.8061 492.6783 1095.7061L487.3083 1062.4961C479.9783 1016.1161 444.3383 1001.4661 335.4483 1001.4661C227.0483 1001.4661 190.9183 1016.1161 183.5983 1062.4961L178.7083 1095.7061C169.9183 1153.8061 209.4683 1172.3661 335.4483 1172.3661Z"/>
</svg>