<?xml version="1.0" encoding="UTF-8" standalone="no"?>
<svg xmlns="http://www.w3.org/2000/svg"
     width="1731.93359375" height="988.28125"
     viewBox="0 0 1731.93359375 988.28125"
     fill="currentColor">
  <path d="M127.4383 903.8058H203.6183C200.6883 889.1558 198.2383 874.0258 198.2383 857.9058C198.2383 752.9258 281.2483 670.4058 385.7383 670.4058C490.7183 670.4058 573.2383 752.9258 573.2383 857.9058C573.2383 874.0258 571.2883 889.1558 567.8683 903.8058H1189.9383C1187.0083 889.1558 1184.5683 874.0258 1184.5683 857.9058C1184.5683 752.9258 1267.5783 670.4058 1372.0683 670.4058C1477.0483 670.4058 1559.5683 752.9258 1559.5683 857.9058C1559.5683 874.0258 1557.6183 889.1558 1554.1983 903.8058H1618.6483C1688.9683 903.8058 1731.9383 859.3758 1731.9383 787.1058V590.8158C1731.9383 522.4658 1711.4283 464.3558 1620.6083 436.0358L1520.0183 405.2758C1456.5383 329.5858 1345.6983 221.6758 1144.0383 221.6758H1029.2983C1002.9283 221.6758 978.5183 222.1658 955.5683 223.1458L949.7083 410.1558C948.7283 436.0358 931.6383 453.6158 906.7383 453.6158C881.8383 453.6158 864.2583 436.0358 863.2783 410.1558L857.9083 229.9758C887.2083 226.5658 918.9483 224.1258 955.5683 223.1458L960.4483 53.7158C961.4283 21.4858 939.9383 -0.0042 906.7383 -0.0042C873.5383 -0.0042 852.0483 21.4858 853.0283 53.7158L857.9083 229.9758C768.0683 241.6958 706.5383 267.0858 627.9283 316.4058L431.1483 439.9458L214.3583 466.3058C79.5883 482.9058 -0.0017 560.5458 -0.0017 676.7558V773.4358C-0.0017 856.4458 46.3883 903.8058 127.4383 903.8058ZM906.7383 677.7358C870.6083 677.7358 840.3283 647.9458 840.3283 613.2858C840.3283 578.6158 869.6283 549.8058 906.7383 549.8058C943.3583 549.8058 973.1483 578.6158 973.1483 613.2858C973.1483 647.9458 942.8683 677.7358 906.7383 677.7358ZM385.7383 988.2858C458.9883 988.2858 516.5983 930.6658 516.5983 857.9058C516.5983 785.1558 458.4983 727.0458 385.7383 727.0458C313.4783 727.0458 255.3683 785.1558 255.3683 857.9058C255.3683 930.1758 313.4783 988.2858 385.7383 988.2858ZM1372.0683 988.2858C1444.8283 988.2858 1502.9283 930.1758 1502.9283 857.9058C1502.9283 785.1558 1444.8283 727.0458 1372.0683 727.0458C1300.2883 727.0458 1241.6983 785.6458 1241.6983 857.9058C1241.6983 930.1758 1299.8083 988.2858 1372.0683 988.2858Z"/>
</svg>