<?xml version="1.0" encoding="UTF-8" standalone="no"?>
<svg xmlns="http://www.w3.org/2000/svg"
     width="1406.7927273069151" height="730.95703125"
     viewBox="0 0 1406.7927273069151 730.95703125"
     fill="currentColor">
  <path d="M322.2543 129.8852H357.4043C379.3843 129.8852 388.6543 121.5852 395.9843 103.0252L424.7943 30.2752C431.6243 14.1552 424.3043 -0.0048 407.2143 -0.0048H374.9843C358.3843 -0.0048 348.1343 8.3052 340.3143 22.9452L301.7443 97.1652C293.9343 111.8152 301.7443 129.8852 322.2543 129.8852ZM1049.3043 129.8852H1084.4543C1104.9643 129.8852 1112.7743 111.8152 1104.9643 97.1652L1066.3943 22.9452C1059.0643 8.3052 1048.3243 -0.0048 1031.7243 -0.0048H999.4943C982.4043 -0.0048 975.0843 14.1552 981.9243 30.2752L1010.7243 103.0252C1018.0543 121.5852 1027.3343 129.8852 1049.3043 129.8852ZM394.0243 569.3352C394.0243 588.3752 408.6743 603.5152 428.2043 603.5152H458.4843C478.0143 603.5152 493.1543 588.3752 493.1543 569.3352V531.7352H908.1843V569.3352C908.1843 588.3752 922.8343 603.5152 942.3643 603.5152H973.1343C992.1743 603.5152 1007.3143 588.3752 1007.3143 569.3352V395.9952C1007.3143 352.5352 1001.4543 326.1752 974.5943 296.8752L948.7143 268.5552L921.3743 190.4252C906.2343 147.9452 877.9143 130.3752 841.7843 125.9752C824.2043 124.0252 767.5643 122.5552 700.6743 122.5552C633.7743 122.5552 576.6443 124.0252 559.5543 125.9752C523.4243 130.3752 494.6143 147.9452 479.9643 190.4252L452.6243 268.5552L426.7443 296.8752C399.8843 326.1752 394.0243 352.5352 394.0243 395.9952ZM523.9143 270.0152C511.2143 270.0152 507.3143 260.7452 511.2143 249.5152L527.3343 201.1752C533.1843 183.1052 542.4643 177.2452 558.0943 175.2952C576.1543 172.8552 626.4543 170.8952 700.6743 170.8952C774.8843 170.8952 824.6943 172.8552 842.7643 175.2952C858.3843 177.2452 867.6643 183.1052 874.0143 201.1752L890.1243 249.5152C894.0243 260.7452 889.6343 270.0152 876.9343 270.0152ZM188.4643 401.3652H242.6643C265.1243 401.3652 278.3043 393.5552 286.6043 372.5552L329.0843 268.0652C335.9243 250.9752 325.1843 234.3752 306.1343 234.3752H257.7943C241.1943 234.3752 227.5243 242.6752 219.7143 257.8152L165.5143 363.2852C155.7443 381.8352 167.4643 401.3652 188.4643 401.3652ZM1164.5343 401.3652H1218.2443C1239.2443 401.3652 1250.9643 381.8352 1241.6843 363.2852L1187.4843 257.8152C1179.1843 242.6752 1165.5143 234.3752 1148.9143 234.3752H1100.5743C1081.5243 234.3752 1070.7843 250.9752 1077.6243 268.0652L1120.1043 372.5552C1128.8943 393.5552 1141.5843 401.3652 1164.5343 401.3652ZM487.7743 432.1252C471.6643 432.1252 459.9443 420.4052 459.9443 404.2952V363.7652C459.9443 348.1452 471.6643 336.4252 487.7743 336.4252C503.4043 336.4252 515.1243 347.6552 515.1243 363.7652V404.2952C515.1243 420.4052 503.4043 432.1252 487.7743 432.1252ZM916.0043 432.1252C900.3743 432.1252 888.6543 419.9252 888.6543 404.2952V363.7652C888.6543 348.1452 900.3743 336.4252 916.0043 336.4252C932.1143 336.4252 943.8343 347.6552 943.8343 363.7652V404.2952C943.8343 420.4052 932.1143 432.1252 916.0043 432.1252ZM641.5843 419.4352C628.8943 419.4352 620.5943 411.1352 620.5943 397.4652V371.0952C620.5943 357.4252 628.8943 349.1252 641.5843 349.1252H758.7743C771.4743 349.1252 779.7743 357.4252 779.7743 371.0952V397.4652C779.7743 411.1352 771.4743 419.4352 758.7743 419.4352ZM39.5343 730.9552H103.5043C132.7943 730.9552 147.4443 716.7952 155.2643 695.8052L214.8343 549.8052C223.6143 528.3252 209.9443 507.3252 186.5143 507.3252H131.3343C100.5743 507.3252 85.4343 519.0452 74.6943 539.5552L5.3543 676.7552C-7.3357 701.6552 1.9343 730.9552 39.5343 730.9552ZM1303.2043 730.9552H1367.1743C1405.2643 730.9552 1414.0443 701.6552 1401.3543 676.7552L1332.0143 539.5552C1321.2743 519.0452 1306.1343 507.3252 1275.3743 507.3252H1220.6843C1196.7643 507.3252 1183.0943 528.3252 1191.8843 549.8052L1251.4543 695.8052C1259.7543 716.7952 1273.9143 730.9552 1303.2043 730.9552Z"/>
</svg>