<?xml version="1.0" encoding="UTF-8" standalone="no"?>
<svg xmlns="http://www.w3.org/2000/svg"
     width="996.09375" height="996.09375"
     viewBox="0 0 996.09375 996.09375"
     fill="currentColor">
  <path d="M498.0477 996.0959C770.5077 996.0959 996.0977 770.0159 996.0977 498.0459C996.0977 225.5859 770.0177 -0.0041 497.5577 -0.0041C225.5877 -0.0041 -0.0023 225.5859 -0.0023 498.0459C-0.0023 770.0159 226.0777 996.0959 498.0477 996.0959ZM498.0477 913.0859C267.5777 913.0859 83.4977 728.5159 83.4977 498.0459C83.4977 267.5759 267.0877 83.0059 497.5577 83.0059C728.0277 83.0059 913.0877 267.5759 913.0877 498.0459C913.0877 728.5159 728.5177 913.0859 498.0477 913.0859ZM229.9777 659.6659C229.9777 676.7559 243.1677 689.4559 260.2577 689.4559H287.1077C303.7077 689.4559 316.8977 676.7559 316.8977 659.6659V622.0659C367.1877 624.9959 439.9377 627.4459 498.0477 627.4459C556.1477 627.4459 628.4177 624.9959 678.7077 622.0659V659.6659C678.7077 676.7559 691.8977 689.4559 708.9877 689.4559H735.8377C752.4377 689.4559 765.6277 676.7559 765.6277 659.6659V529.2959C765.6277 491.6959 757.8077 470.2159 736.8177 442.8759L717.7777 418.4559C708.9877 377.4459 694.3377 334.4759 687.0077 317.8759C674.8077 292.4759 651.3677 277.8359 621.0977 273.4359C605.9577 271.4859 556.1477 270.5059 498.0477 270.5059C439.4577 270.5059 390.1377 271.4859 374.5077 273.4359C344.7277 277.3459 321.2877 292.4759 309.0777 317.8759C301.2677 334.4759 286.6177 377.4459 278.3177 418.4559L258.7877 442.8759C237.7977 470.2159 229.9777 491.6959 229.9777 529.2959ZM335.9377 396.9759C341.3077 373.5359 351.0777 343.7459 357.9077 331.5459C363.7677 321.2859 370.1177 316.8959 381.8377 315.4259C397.4577 312.9859 433.5977 312.0159 498.0477 312.0159C562.0077 312.0159 598.1477 312.4959 614.2577 315.4259C625.9777 316.8959 631.8377 321.2859 638.1877 331.5459C645.0177 343.2659 654.7877 373.5359 659.6677 396.9759C662.1077 404.2959 658.6877 407.7159 650.3877 407.2259C615.7277 404.2959 573.7277 402.8359 498.0477 402.8359C421.8777 402.8359 380.3677 404.2959 345.2177 407.2259C336.9177 407.7159 333.9877 404.2959 335.9377 396.9759ZM298.3377 530.2759C298.3377 509.2759 314.4577 493.6559 334.4777 493.6559C354.9777 493.6559 371.0977 509.2759 371.0977 530.2759C371.0977 550.7859 354.9777 565.9159 334.4777 565.9159C314.4577 565.9159 298.3377 550.7859 298.3377 530.2759ZM624.9977 530.2759C624.9977 509.2759 640.6277 493.6559 661.1377 493.6559C681.6377 493.6559 697.7577 509.2759 697.7577 530.2759C697.7577 550.7859 681.6377 565.9159 661.1377 565.9159C640.6277 565.9159 624.9977 550.7859 624.9977 530.2759ZM412.1077 531.7359C412.1077 516.1159 422.8477 505.3759 438.4777 505.3759H557.6177C572.7577 505.3759 583.4977 516.1159 583.4977 531.7359C583.4977 546.8759 572.7577 557.6159 557.6177 557.6159H438.4777C422.8477 557.6159 412.1077 546.8759 412.1077 531.7359Z"/>
</svg>