<?xml version="1.0" encoding="UTF-8" standalone="no"?>
<svg xmlns="http://www.w3.org/2000/svg"
     width="1731.93359375" height="1018.9823868028957"
     viewBox="0 0 1731.93359375 1018.9823868028957"
     fill="currentColor">
  <path d="M127.4383 682.1261H203.6183C200.6883 667.4761 198.2383 652.3461 198.2383 636.2261C198.2383 531.2461 281.2483 448.7261 385.7383 448.7261C490.7183 448.7261 573.2383 531.2461 573.2383 636.2261C573.2383 652.3461 571.2883 667.4761 567.8683 682.1261H1189.9383C1187.0083 667.4761 1184.5683 652.3461 1184.5683 636.2261C1184.5683 531.2461 1267.5783 448.7261 1372.0683 448.7261C1477.0483 448.7261 1559.5683 531.2461 1559.5683 636.2261C1559.5683 652.3461 1557.6183 667.4761 1554.1983 682.1261H1618.6483C1688.9683 682.1261 1731.9383 637.6961 1731.9383 565.4261V369.1361C1731.9383 300.7861 1711.4283 242.6761 1620.6083 214.3561L1520.0183 183.5961C1456.5383 107.9061 1345.6983 -0.0039 1144.0383 -0.0039H1029.2983C828.1283 -0.0039 748.0483 19.5361 627.9283 94.7261L431.1483 218.2661L214.3583 244.6261C79.5883 261.2261 -0.0017 338.8661 -0.0017 455.0761V551.7561C-0.0017 634.7661 46.3883 682.1261 127.4383 682.1261ZM385.7383 766.6061C458.9883 766.6061 516.5983 708.9861 516.5983 636.2261C516.5983 563.4761 458.4983 505.3661 385.7383 505.3661C313.4783 505.3661 255.3683 563.4761 255.3683 636.2261C255.3683 708.4961 313.4783 766.6061 385.7383 766.6061ZM1372.0683 766.6061C1444.8283 766.6061 1502.9283 708.4961 1502.9283 636.2261C1502.9283 563.4761 1444.8283 505.3661 1372.0683 505.3661C1300.2883 505.3661 1241.6983 563.9661 1241.6983 636.2261C1241.6983 708.4961 1299.8083 766.6061 1372.0683 766.6061ZM1028.3183 807.1261C1043.9483 782.2261 1032.2283 756.8361 1001.9483 756.8361H759.2783C729.0083 756.8361 716.7983 782.2261 732.4183 807.1261L851.5583 1000.4861C866.6983 1025.3861 895.0183 1024.9061 909.6683 1000.4861Z"/>
</svg>