<?xml version="1.0" encoding="UTF-8" standalone="no"?>
<svg xmlns="http://www.w3.org/2000/svg"
     width="1056.8683345168045" height="989.2578125"
     viewBox="0 0 1056.8683345168045 989.2578125"
     fill="currentColor">
  <path d="M458.9883 886.2345C608.8883 972.1645 695.7983 977.5345 745.6083 891.6045L941.8983 550.7845L958.4983 560.5445C977.5383 571.7745 1001.4683 565.4345 1011.7183 547.3645L1020.0183 532.2245C1030.2783 513.6745 1024.4183 490.7245 1004.8783 479.4945L988.2783 470.2145L1037.1083 385.7445C1074.7083 321.2845 1057.6183 251.4645 994.6283 188.4745V28.8045C994.6283 12.2045 982.4183 0.0045 965.8183 0.0045H939.9383C923.3383 0.0045 911.1283 12.2045 911.1283 28.8045V125.0045C908.1983 123.0445 905.2783 121.5845 901.8583 119.6245C767.5783 42.4845 655.7583 46.8745 604.4883 135.7445L555.6683 220.2145L539.0583 210.9345C520.0183 199.7045 497.0683 205.5645 486.3283 224.1245L477.5383 238.7645C466.7983 256.8345 473.6283 280.7645 492.1883 291.5045L509.2783 300.7845L312.4983 641.6045C262.6983 727.5345 310.0583 800.2945 458.9883 886.2345ZM28.8083 264.6445H55.1783C71.2883 264.6445 83.4983 252.4445 83.4983 235.8445V28.8045C83.4983 12.2045 71.2883 0.0045 55.1783 0.0045H28.8083C12.2083 0.0045 -0.0017 12.2045 -0.0017 28.8045V235.8445C-0.0017 252.4445 12.2083 264.6445 28.8083 264.6445ZM494.1383 826.6645C382.3283 762.2045 348.6283 719.2345 374.5083 674.3145L665.0383 170.8945C694.8283 119.6245 765.6283 121.5845 866.6983 179.6845C968.7483 238.7645 1006.3483 299.3145 976.5583 351.0745L685.5483 854.4945C660.1583 898.9245 605.9583 891.1145 494.1383 826.6645ZM715.8183 441.8945C742.1883 457.5145 785.6483 485.8445 800.2883 494.6245C823.2383 507.8145 839.8483 504.8845 856.4483 480.9545L892.5783 429.1945C922.3683 386.7145 902.8283 352.5345 801.2683 293.9445C700.6883 235.8445 661.1283 235.8445 638.6683 283.2045L612.3083 340.3345C600.5883 365.7245 604.9783 381.8345 628.9083 395.0145C643.5583 404.2945 687.9883 425.7845 715.8183 441.8945ZM28.8083 626.4645H55.1783C71.2883 626.4645 83.4983 614.2545 83.4983 597.6545V391.1145C83.4983 375.0045 71.2883 362.7945 55.1783 362.7945H28.8083C12.2083 362.7945 -0.0017 375.0045 -0.0017 391.1145V597.6545C-0.0017 614.2545 12.2083 626.4645 28.8083 626.4645ZM534.6683 755.8545C635.2583 813.9645 676.2683 817.3845 695.7983 767.0945L707.0283 738.2845C723.1483 697.7545 700.6883 669.4345 613.2783 619.6245C526.8583 569.3345 490.7183 563.9645 463.8683 598.1445L444.8283 622.0745C411.1283 664.5545 434.5683 697.7545 534.6683 755.8545ZM939.9383 988.7745H965.8183C982.4183 988.7745 994.6283 976.5645 994.6283 960.4445V753.4145C994.6283 736.8145 982.4183 724.6045 965.8183 724.6045H939.9383C923.3383 724.6045 911.1283 736.8145 911.1283 753.4145V960.4445C911.1283 976.5645 923.3383 988.7745 939.9383 988.7745ZM28.8083 989.2545H55.1783C71.2883 989.2545 83.4983 977.0545 83.4983 960.4445V753.4145C83.4983 736.8145 71.2883 724.6045 55.1783 724.6045H28.8083C12.2083 724.6045 -0.0017 736.8145 -0.0017 753.4145V960.4445C-0.0017 977.0545 12.2083 989.2545 28.8083 989.2545Z"/>
</svg>