<?xml version="1.0" encoding="UTF-8" standalone="no"?>
<svg xmlns="http://www.w3.org/2000/svg"
     width="1130.859375" height="1260.7421875"
     viewBox="0 0 1130.859375 1260.7421875"
     fill="currentColor">
  <path d="M565.4283 1260.7402C812.0083 1260.7402 916.9883 1206.5402 916.9883 1073.7302V491.7002L1061.0383 635.7402C1077.6383 651.8602 1103.0283 651.3702 1119.1383 635.7402C1134.7683 619.6302 1134.7683 593.7502 1119.1383 577.6402L916.9883 376.9502V226.0702C916.9883 83.5002 787.5983 0.0002 565.4283 0.0002C343.7483 0.0002 213.8683 83.5002 213.8683 226.0702V376.4602L11.7183 577.6402C-3.9017 593.7502 -3.9017 619.6302 11.7183 635.7402C27.8283 651.3702 53.7083 651.8602 69.8283 635.7402L213.8683 491.7002V745.6102L11.7183 946.7802C-3.9017 962.4002 -3.9017 988.7702 11.7183 1004.8802C27.8283 1020.5102 53.7083 1021.0002 69.8283 1004.8802L213.8683 860.8402V1073.7302C213.8683 1206.5402 319.3383 1260.7402 565.4283 1260.7402ZM565.4283 520.0202C517.5783 520.0202 444.3383 523.4402 418.9483 523.4402C380.8583 523.4402 364.7483 508.7902 360.8383 469.7302L353.0283 375.0002C346.1883 302.2502 397.4583 272.9502 565.4283 272.9502C733.8883 272.9502 785.1583 302.2502 778.3183 375.0002L770.0183 469.7302C766.5983 508.7902 749.9983 523.4402 712.3983 523.4402C686.5283 523.4402 610.8383 520.0202 565.4283 520.0202ZM565.4283 1057.6202C395.9983 1057.6202 344.2383 1032.2302 354.9783 958.0102L361.3283 912.1102C369.6283 852.0502 419.9183 831.5402 565.4283 831.5402C711.4283 831.5402 761.7183 852.0502 770.0183 912.1102L776.3683 958.0102C787.1083 1032.2302 735.3483 1057.6202 565.4283 1057.6202Z"/>
</svg>