<?xml version="1.0" encoding="UTF-8" standalone="no"?>
<svg xmlns="http://www.w3.org/2000/svg"
     width="1731.93359375" height="775.390625"
     viewBox="0 0 1731.93359375 775.390625"
     fill="currentColor">
  <path d="M127.4383 690.9152H203.6183C200.6883 676.2652 198.2383 661.1352 198.2383 645.0152C198.2383 540.0352 281.2483 457.5152 385.7383 457.5152C490.7183 457.5152 573.2383 540.0352 573.2383 645.0152C573.2383 661.1352 571.2883 676.2652 567.8683 690.9152H1189.9383C1187.0083 676.2652 1184.5683 661.1352 1184.5683 645.0152C1184.5683 540.0352 1267.5783 457.5152 1372.0683 457.5152C1477.0483 457.5152 1559.5683 540.0352 1559.5683 645.0152C1559.5683 661.1352 1557.6183 676.2652 1554.1983 690.9152H1618.6483C1688.9683 690.9152 1731.9383 646.4852 1731.9383 574.2152V377.9252C1731.9383 309.5752 1711.4283 251.4652 1620.6083 223.1452L1520.0183 192.3852C1456.5383 116.6952 1345.6983 8.7852 1144.0383 8.7852H1029.2983C828.1283 8.7852 748.0483 28.3252 627.9283 103.5152L460.9383 208.4952L292.9683 40.0352C264.6483 11.7152 227.5383 -0.0048 183.1083 -0.0048H36.1283C13.6683 -0.0048 -0.0017 13.6752 -0.0017 34.6652C-0.0017 55.6652 13.6683 70.3152 36.1283 70.3152H191.8983C209.9583 70.3152 224.1183 74.7052 235.8383 86.4252L382.3283 232.9052L214.3583 253.4152C79.5883 270.0152 -0.0017 347.6552 -0.0017 463.8652V560.5452C-0.0017 643.5552 46.3883 690.9152 127.4383 690.9152ZM385.7383 775.3952C458.9883 775.3952 516.5983 717.7752 516.5983 645.0152C516.5983 572.2652 458.4983 514.1552 385.7383 514.1552C313.4783 514.1552 255.3683 572.2652 255.3683 645.0152C255.3683 717.2852 313.4783 775.3952 385.7383 775.3952ZM1372.0683 775.3952C1444.8283 775.3952 1502.9283 717.2852 1502.9283 645.0152C1502.9283 572.2652 1444.8283 514.1552 1372.0683 514.1552C1300.2883 514.1552 1241.6983 572.7552 1241.6983 645.0152C1241.6983 717.2852 1299.8083 775.3952 1372.0683 775.3952Z"/>
</svg>