<?xml version="1.0" encoding="UTF-8" standalone="no"?>
<svg xmlns="http://www.w3.org/2000/svg"
     width="1073.751545414361" height="1078.125"
     viewBox="0 0 1073.751545414361 1078.125"
     fill="currentColor">
  <path d="M666.9475 502.4367H807.0875V548.8267C807.0875 572.2667 825.1575 590.3367 849.0775 590.3367H886.1875C910.6075 590.3367 928.6675 572.2667 928.6675 548.8267V335.9367C928.6675 282.2267 921.8375 249.5067 888.1475 213.8667L856.4075 179.1967L823.1975 83.4967C805.1375 31.7367 769.4875 9.7667 725.5475 4.3967C704.0575 1.9567 634.2375 -0.0033 552.2075 -0.0033C469.6875 -0.0033 399.8575 1.9567 378.8675 4.3967C334.9175 9.7667 298.7875 31.7367 280.7175 83.4967L272.4175 108.3967L320.2675 156.2467C320.2675 153.8067 320.7575 152.8367 321.7375 150.3867L339.3175 96.6767C346.6375 74.7067 357.8675 67.8667 376.9075 64.9367C398.8875 62.4967 460.8975 59.5667 552.2075 59.5667C643.0275 59.5667 704.5475 62.4967 726.5175 64.9367C745.5675 67.8667 756.7975 74.7067 764.1175 96.6767L784.6275 155.7567C789.5075 170.4067 784.1375 181.6367 768.5175 181.6367H345.6575L457.4775 292.9667V291.5067C461.3875 283.2067 468.7075 278.3167 479.4475 278.3167H623.4975C639.1175 278.3167 649.3775 288.5767 649.3775 305.1767V337.4067C649.3775 354.4967 639.1175 364.7467 623.4975 364.7467H528.7675ZM1009.7275 1045.8967C1024.3775 1060.5467 1048.2975 1060.5467 1062.9475 1045.8967C1077.1075 1030.7667 1077.5975 1007.3267 1062.9475 992.6767L95.6575 25.3867C81.0175 10.7467 57.0875 10.2567 41.9475 25.3867C27.7875 39.5467 27.3075 63.9667 41.9475 78.6167ZM816.3675 380.3667C797.3275 380.3667 782.6775 365.7267 782.6775 346.1867V296.3867C782.6775 277.3467 797.3275 262.6967 816.3675 262.6967C835.8975 262.6967 850.5475 276.8567 850.5475 296.3867V346.1867C850.5475 365.7267 835.8975 380.3667 816.3675 380.3667ZM217.7375 590.3367H254.8375C278.7675 590.3367 297.3275 572.2667 297.3275 548.8267V502.4367H371.5375L183.5575 314.9367C178.6675 326.6567 175.2475 336.9167 175.2475 354.4967V548.8267C175.2475 572.2667 193.8075 590.3367 217.7375 590.3367ZM425.2475 672.3667L388.1475 644.5267C374.4675 634.7667 358.8475 629.8867 342.2475 629.8867H263.1475C243.6075 629.8867 236.2875 653.3167 251.9075 664.5467L326.6175 719.2367C350.0575 736.3267 346.6375 758.7867 319.7875 770.9967L76.6175 875.9767C-16.6425 916.0167 -24.9425 977.0467 52.6975 1035.1567L89.8075 1062.4967C103.4775 1072.7567 119.0975 1077.6367 135.6975 1077.6367H214.8075C234.3375 1077.6367 241.6575 1054.1967 226.0375 1042.9667L151.3275 987.7967C128.3775 971.1867 131.3075 948.2467 158.1575 936.5267L401.3275 831.0567C494.5875 791.0167 502.8875 730.4667 425.2475 672.3667ZM936.4875 673.3367L899.3775 645.5067C885.6975 635.2567 870.0775 630.8567 852.9875 630.8567H804.1575L968.7075 794.9267C1003.8675 759.2767 993.1275 715.3367 936.4875 673.3367ZM698.1975 829.0967L587.8475 876.9567C494.5875 916.9967 486.2875 977.5367 563.9275 1035.6467L601.0375 1062.9867C614.7075 1073.2467 630.3275 1078.1267 646.9275 1078.1267H726.0375C745.5675 1078.1267 752.8875 1054.6867 737.2675 1043.4567L662.5575 988.7667C639.6075 971.6767 642.0475 949.2167 669.3975 937.0167L764.6075 895.9967Z"/>
</svg>