<?xml version="1.0" encoding="UTF-8" standalone="no"?>
<svg xmlns="http://www.w3.org/2000/svg"
     width="954.243312202558" height="1265.625"
     viewBox="0 0 954.243312202558 1265.625"
     fill="currentColor">
  <path d="M619.28 961.4216C806.78 961.4216 890.28 918.9416 890.28 811.0316V384.7616H911.27C935.69 384.7616 954.24 366.2116 954.24 343.2616V324.7116C954.24 301.2716 935.69 283.2016 911.27 283.2016H890.28V177.2416C890.28 65.9216 787.74 0.0016 619.28 0.0016C449.85 0.0016 347.31 65.9216 347.31 177.2416V283.2016H326.31C301.9 283.2016 283.34 301.2716 283.34 324.7116V343.2616C283.34 366.2116 301.9 384.7616 326.31 384.7616H347.31V811.0316C347.31 918.9416 431.29 961.4216 619.28 961.4216ZM619.28 885.2516C478.66 885.2516 423.97 863.7716 423.97 808.5916V177.2416C423.97 113.2816 491.84 77.1516 619.28 77.1516C745.75 77.1516 813.13 113.2816 813.13 177.2416V808.5916C813.13 863.7716 758.93 885.2516 619.28 885.2516ZM618.79 404.7816C653.95 404.7816 707.17 407.7116 725.73 407.7116C755.02 407.7116 768.7 395.5116 771.14 364.7416L777 296.3916C781.88 240.2316 744.77 218.7516 618.79 218.7516C492.82 218.7516 455.71 240.2316 460.59 296.3916L466.45 364.7416C468.89 395.5116 482.56 407.7116 511.86 407.7116C529.93 407.7116 585.59 404.7816 618.79 404.7816ZM618.79 796.8716C744.77 796.8716 784.81 778.3216 775.53 720.2116L770.65 687.0116C763.33 640.6216 727.19 625.9716 618.79 625.9716C510.4 625.9716 474.26 640.6216 466.94 687.0116L461.57 720.2116C452.78 778.3216 492.82 796.8716 618.79 796.8716ZM243.31 1021.4816C293.6 1071.7816 361.96 1096.6816 403.95 1096.6816C426.9 1096.6816 442.52 1082.0316 442.52 1061.0316C442.52 1041.5016 428.85 1025.8816 398.58 1021.4816C360.98 1017.5816 325.83 1000.0016 295.06 969.7216C265.77 939.9416 248.68 903.8116 243.31 862.3016C238.91 834.9616 228.17 823.7316 204.24 823.7316C182.76 823.7316 165.67 840.3316 169.09 866.7016C175.43 926.2716 200.83 979.0016 243.31 1021.4816ZM122.21 1143.0616C196.92 1218.2616 292.13 1265.6216 395.65 1265.6216C420.55 1265.6216 437.64 1249.5116 437.64 1226.5616C437.64 1205.5616 421.04 1191.8916 393.21 1189.9416C313.13 1185.0616 235.01 1151.8516 173.97 1091.3116C113.42 1030.2716 80.22 952.6416 75.34 872.0716C72.9 840.8216 60.2 828.6116 35.79 828.6116C16.74 828.6116 -1.81 842.2816 0.14 869.1416C6.49 972.6516 46.53 1068.3616 122.21 1143.0616Z"/>
</svg>