<?xml version="1.0" encoding="UTF-8" standalone="no"?>
<svg xmlns="http://www.w3.org/2000/svg"
     width="1559.5703125" height="905.76171875"
     viewBox="0 0 1559.5703125 905.76171875"
     fill="currentColor">
  <path d="M89.8483 905.7623H146.9683C183.5983 905.7623 211.9183 877.4423 211.9183 841.3123V761.2323C275.3883 765.1323 352.5383 767.5823 429.1983 769.5323V841.3123C429.1983 877.4423 457.0283 905.7623 493.6483 905.7623H551.2683C587.8883 905.7623 615.7183 877.4423 615.7183 841.3123V761.2323C722.6583 767.0923 865.7183 771.4823 981.9383 771.4823C1098.1483 771.4823 1241.2083 767.0923 1347.6583 761.2323V841.3123C1347.6583 877.4423 1375.9783 905.7623 1412.5983 905.7623H1469.7283C1506.3483 905.7623 1534.6683 877.4423 1534.6683 841.3123V717.7723C1550.7783 700.1923 1559.5683 676.2723 1559.5683 645.9923V560.0623C1559.5683 477.5423 1542.9683 431.6423 1497.5583 373.0423L1456.5383 319.8223C1438.4783 231.9323 1406.2483 139.6523 1389.1583 103.5123C1363.2783 48.3423 1312.4983 15.6223 1247.5583 6.8323C1214.8483 2.4423 1107.9083 0.0023 981.9383 0.0023C903.3183 0.0023 832.5183 0.9723 782.2283 2.9323C732.9083 0.9723 659.6683 0.0023 577.6383 0.0023C451.6583 0.0023 344.7283 2.9323 312.0083 6.8323C247.0683 14.6523 196.2883 48.3423 170.4083 103.5123C153.3183 139.6523 121.0983 231.9323 103.0283 319.8223L62.0083 373.0423C16.5983 431.6423 -0.0017 477.5423 -0.0017 560.0623V636.2323C-0.0017 669.9223 8.2983 696.2923 24.8983 715.8223V841.3123C24.8983 877.4423 53.2183 905.7623 89.8483 905.7623ZM120.1183 689.9423C78.6183 685.5423 63.9683 663.5723 63.9683 626.4623V560.0623C63.9683 493.1623 74.7083 461.9123 112.7883 412.1123L162.5983 346.6823C175.7783 275.8823 207.5183 177.2423 228.5183 132.3223C244.1383 98.6323 274.8983 77.6323 319.3383 72.2623C350.5883 68.3623 449.7083 63.9623 577.6383 63.9623C585.4483 63.9623 592.7783 63.9623 600.0983 63.9623C589.8483 75.6823 581.0583 88.8623 574.2183 103.5123C572.2683 107.4223 570.3083 112.3023 567.8683 117.6723C442.8683 117.6723 365.7183 121.0923 331.0583 125.9723C305.6683 129.3923 291.5083 139.1623 278.8083 161.1323C263.1883 187.9923 240.7183 255.3723 229.0083 307.1323C225.0983 324.2223 232.4183 331.0523 250.9783 330.0823C316.4083 325.6823 392.0883 321.7723 506.3483 320.3123L465.8183 373.0423C420.4083 431.6423 403.8083 477.5423 403.8083 560.0623V645.9923C403.8083 669.4323 409.1783 688.9623 419.4383 705.0823C294.9183 702.1523 174.8083 696.2923 120.1183 689.9423ZM981.9383 707.5223C815.9183 707.5223 602.5383 699.7023 524.4183 689.9423C482.9083 685.0623 467.7783 663.5723 467.7783 626.4623V560.0623C467.7783 493.1623 479.0083 461.9123 516.5983 412.1123L566.8983 346.6823C579.5883 275.8823 611.8183 177.2423 632.3283 132.3223C648.4383 98.6323 679.1983 77.6323 723.6283 72.2623C754.8783 68.3623 853.5183 63.9623 981.9383 63.9623C1109.8683 63.9623 1210.9383 68.3623 1239.2583 72.2623C1285.1583 78.1223 1315.4283 99.1223 1331.0583 132.3223C1352.5383 177.2423 1383.7883 275.8823 1396.9683 346.6823L1446.7783 412.1123C1484.8683 461.9123 1495.6083 493.1623 1495.6083 560.0623V626.4623C1495.6083 663.5723 1480.9583 685.0623 1438.9683 689.9423C1360.8383 699.7023 1147.9483 707.5223 981.9383 707.5223ZM633.2983 307.1323C629.3983 324.2223 636.7183 331.0523 654.7883 330.0823C732.9083 324.7023 825.6883 320.3123 981.9383 320.3123C1137.6983 320.3123 1230.4683 324.7023 1308.5983 330.0823C1327.1483 331.0523 1333.9883 324.2223 1330.0783 307.1323C1318.3583 255.3723 1296.3883 187.9923 1280.7583 161.1323C1268.0683 139.1623 1253.9083 129.3923 1228.5183 125.9723C1192.8683 121.0923 1112.7883 117.6723 981.9383 117.6723C850.5883 117.6723 770.5083 121.0923 735.3483 125.9723C709.9583 129.3923 695.3083 139.1623 682.6183 161.1323C667.4783 187.9923 645.0183 255.3723 633.2983 307.1323ZM225.5883 639.6523C270.0183 639.6523 304.1983 605.4723 304.1983 561.0323C304.1983 516.1123 270.0183 482.4223 225.5883 482.4223C181.1483 482.4223 146.9683 516.1123 146.9683 561.0323C146.9683 605.4723 181.1483 639.6523 225.5883 639.6523ZM629.8783 639.6523C674.3183 639.6523 708.0083 605.4723 708.0083 561.0323C708.0083 516.1123 674.3183 482.4223 629.8783 482.4223C584.9583 482.4223 551.2683 516.1123 551.2683 561.0323C551.2683 605.4723 584.9583 639.6523 629.8783 639.6523ZM1333.9883 639.6523C1378.4183 639.6523 1412.5983 605.4723 1412.5983 561.0323C1412.5983 516.1123 1378.4183 482.4223 1333.9883 482.4223C1289.0583 482.4223 1255.3683 516.1123 1255.3683 561.0323C1255.3683 605.4723 1289.0583 639.6523 1333.9883 639.6523ZM852.5383 620.1123H1110.8383C1144.5283 620.1123 1167.4783 597.1723 1167.4783 563.4723C1167.4783 530.2723 1144.5283 507.3223 1110.8383 507.3223H852.5383C819.3383 507.3223 795.8983 530.2723 795.8983 563.4723C795.8983 597.1723 819.3383 620.1123 852.5383 620.1123Z"/>
</svg>