<?xml version="1.0" encoding="UTF-8" standalone="no"?>
<svg xmlns="http://www.w3.org/2000/svg"
     width="1731.93359375" height="766.6015625"
     viewBox="0 0 1731.93359375 766.6015625"
     fill="currentColor">
  <path d="M127.4383 682.1261H203.6183C200.6883 667.4761 198.2383 652.3461 198.2383 636.2261C198.2383 531.2461 281.2483 448.7261 385.7383 448.7261C490.7183 448.7261 573.2383 531.2461 573.2383 636.2261C573.2383 652.3461 571.2883 667.4761 567.8683 682.1261H1189.9383C1187.0083 667.4761 1184.5683 652.3461 1184.5683 636.2261C1184.5683 531.2461 1267.5783 448.7261 1372.0683 448.7261C1477.0483 448.7261 1559.5683 531.2461 1559.5683 636.2261C1559.5683 652.3461 1557.6183 667.4761 1554.1983 682.1261H1618.6483C1688.9683 682.1261 1731.9383 637.6961 1731.9383 565.4261V369.1361C1731.9383 300.7861 1711.4283 242.6761 1620.6083 214.3561L1520.0183 183.5961C1456.5383 107.9061 1345.6983 -0.0039 1144.0383 -0.0039H1029.2983C828.1283 -0.0039 748.0483 19.5361 627.9283 94.7261L431.1483 218.2661L214.3583 244.6261C79.5883 261.2261 -0.0017 338.8661 -0.0017 455.0761V551.7561C-0.0017 634.7661 46.3883 682.1261 127.4383 682.1261ZM639.1583 317.8661C639.1583 231.9361 702.1483 173.3361 795.4083 173.3361H1088.8683C1110.3483 173.3361 1124.9983 188.4761 1124.9983 208.4961C1124.9983 228.5161 1110.3483 242.1861 1089.3583 242.1861H795.4083C744.1383 242.1861 709.9583 274.4161 709.9583 321.7761C709.9583 363.7661 743.6483 392.0861 794.9183 392.0861H995.6083V348.6361C995.6083 319.3361 1016.1183 309.5661 1041.0183 326.1761L1157.7183 402.8361C1177.2483 416.5061 1176.2683 439.9461 1157.7183 451.6561L1040.5283 528.8061C1015.6283 544.9261 995.6083 534.6661 995.6083 506.3461V460.4461H794.9183C702.1483 460.4461 639.1583 403.3161 639.1583 317.8661ZM385.7383 766.6061C458.9883 766.6061 516.5983 708.9861 516.5983 636.2261C516.5983 563.4761 458.4983 505.3661 385.7383 505.3661C313.4783 505.3661 255.3683 563.4761 255.3683 636.2261C255.3683 708.4961 313.4783 766.6061 385.7383 766.6061ZM1372.0683 766.6061C1444.8283 766.6061 1502.9283 708.4961 1502.9283 636.2261C1502.9283 563.4761 1444.8283 505.3661 1372.0683 505.3661C1300.2883 505.3661 1241.6983 563.9661 1241.6983 636.2261C1241.6983 708.4961 1299.8083 766.6061 1372.0683 766.6061Z"/>
</svg>