<?xml version="1.0" encoding="UTF-8" standalone="no"?>
<svg xmlns="http://www.w3.org/2000/svg"
     width="1130.859375" height="1260.7421875"
     viewBox="0 0 1130.859375 1260.7421875"
     fill="currentColor">
  <path d="M565.4283 1260.7402C812.0083 1260.7402 916.9883 1206.5402 916.9883 1073.7302V860.8402L1061.0383 1004.8802C1077.6383 1021.0002 1103.0283 1020.5102 1119.1383 1004.8802C1134.7683 988.7702 1134.7683 962.4002 1119.1383 946.7802L916.9883 746.0902V226.0702C916.9883 83.5002 787.5983 0.0002 565.4283 0.0002C343.7483 0.0002 213.8683 83.5002 213.8683 226.0702V376.4602L11.7183 577.6402C-3.9017 593.7502 -3.9017 619.6302 11.7183 635.7402C27.8283 651.3702 53.7083 651.8602 69.8283 635.7402L213.8683 491.7002V1073.7302C213.8683 1206.5402 319.3383 1260.7402 565.4283 1260.7402ZM565.4283 1179.6902C376.9483 1179.6902 295.4083 1147.9502 295.4083 1069.8202V226.0702C295.4083 134.7702 395.0183 81.5402 565.4283 81.5402C736.3283 81.5402 835.4483 134.7702 835.4483 226.0702V1069.8202C835.4483 1147.9502 754.3983 1179.6902 565.4283 1179.6902ZM565.4283 524.4102C609.3783 524.4102 683.1083 527.8302 708.0083 527.8302C744.6283 527.8302 760.7383 513.6702 763.6683 475.5902L771.9683 383.7902C778.3183 313.4802 729.0083 285.1602 565.4283 285.1602C402.3483 285.1602 353.0283 313.4802 359.3783 383.7902L367.1883 475.5902C370.6083 513.6702 386.2283 527.8302 423.3383 527.8302C447.7583 527.8302 519.0383 524.4102 565.4283 524.4102ZM565.4283 1045.4102C729.9783 1045.4102 780.2783 1021.0002 770.0183 949.2202L763.6683 904.7802C755.8583 846.1902 707.0283 826.6602 565.4283 826.6602C424.3183 826.6602 375.4883 846.1902 367.6783 904.7802L361.3283 949.2202C351.0783 1021.0002 401.3683 1045.4102 565.4283 1045.4102Z"/>
</svg>