<?xml version="1.0" encoding="UTF-8" standalone="no"?>
<svg xmlns="http://www.w3.org/2000/svg"
     width="1554.19921875" height="976.5625"
     viewBox="0 0 1554.19921875 976.5625"
     fill="currentColor">
  <path d="M313.9683 260.252H339.8483C356.4483 260.252 368.6483 248.042 368.6483 231.442V28.812C368.6483 12.202 356.4483 0.002 339.8483 0.002H313.9683C297.3683 0.002 285.1583 12.202 285.1583 28.812V231.442C285.1583 248.042 297.3683 260.252 313.9683 260.252ZM1214.3583 260.252H1240.2383C1256.8383 260.252 1269.0383 248.042 1269.0383 231.442V28.812C1269.0383 12.202 1256.8383 0.002 1240.2383 0.002H1214.3583C1197.7583 0.002 1185.5483 12.202 1185.5483 28.812V231.442C1185.5483 248.042 1197.7583 260.252 1214.3583 260.252ZM776.3683 930.662C949.2183 930.662 1026.8583 891.602 1026.8583 791.992V398.922H1046.3883C1068.3583 398.922 1085.4483 381.832 1085.4483 360.842L1084.9583 343.752C1084.9583 322.262 1068.3583 305.662 1045.8983 305.662H1026.8583V208.012C1026.3683 105.472 932.6183 44.922 776.8583 45.412C622.0683 45.412 527.3483 104.982 527.3483 208.012V305.662H508.2983C485.8383 305.662 469.2383 322.262 469.2383 343.262L468.7483 360.842C468.7483 381.832 485.8383 398.922 507.8083 398.922H527.3483V791.992C527.3483 891.602 604.4883 930.662 776.3683 930.662ZM776.8583 414.552C743.6483 415.042 693.3583 417.972 675.2883 417.482C646.9683 417.972 634.7683 406.742 632.3283 376.952L626.4683 312.502C622.0683 259.282 657.2283 238.282 777.3483 238.282C897.4583 239.262 932.1283 259.282 927.7383 312.012L922.3683 377.442C919.9183 406.742 906.2483 417.972 878.9083 417.972C861.8183 417.482 808.5983 415.042 776.8583 414.552ZM42.4783 610.842L204.0983 511.722C224.6083 499.022 225.0983 475.102 204.0983 462.402L42.4783 362.792C20.5083 349.612 -0.0017 360.352 -0.0017 385.742V588.382C-0.0017 614.262 20.5083 624.022 42.4783 610.842ZM1511.7183 610.842C1533.6883 624.022 1554.1983 614.262 1554.1983 588.382V385.742C1554.1983 360.352 1533.6883 349.612 1511.7183 362.792L1350.0983 462.402C1329.0983 475.102 1329.0983 499.022 1350.0983 511.722ZM313.9683 618.162H339.8483C356.4483 618.162 368.6483 605.952 368.6483 589.352V387.202C368.6483 370.602 356.4483 358.402 339.8483 358.402H313.9683C297.3683 358.402 285.1583 370.602 285.1583 387.202V589.352C285.1583 605.952 297.3683 618.162 313.9683 618.162ZM1214.3583 618.162H1240.2383C1256.8383 618.162 1269.0383 605.952 1269.0383 589.352V387.202C1269.0383 370.602 1256.8383 358.402 1240.2383 358.402H1214.3583C1197.7583 358.402 1185.5483 370.602 1185.5483 387.202V589.352C1185.5483 605.952 1197.7583 618.162 1214.3583 618.162ZM776.8583 788.572C657.7183 787.602 619.6283 770.512 627.9283 714.842L632.3283 683.592C639.6483 639.652 673.8283 625.972 777.3483 626.462C880.3683 625.972 914.5483 639.162 921.8783 683.592L926.7583 715.332C934.5683 770.022 896.4883 787.602 776.8583 788.572ZM313.9683 976.562H339.8483C356.4483 976.562 368.6483 964.352 368.6483 948.242V745.122C368.6483 728.512 356.4483 716.312 339.8483 716.312H313.9683C297.3683 716.312 285.1583 728.512 285.1583 745.122V948.242C285.1583 964.352 297.3683 976.562 313.9683 976.562ZM1214.3583 976.562H1240.2383C1256.8383 976.562 1269.0383 964.352 1269.0383 948.242V745.122C1269.0383 728.512 1256.8383 716.312 1240.2383 716.312H1214.3583C1197.7583 716.312 1185.5483 728.512 1185.5483 745.122V948.242C1185.5483 964.352 1197.7583 976.562 1214.3583 976.562Z"/>
</svg>