<?xml version="1.0" encoding="UTF-8" standalone="no"?>
<svg xmlns="http://www.w3.org/2000/svg"
     width="951.66015625" height="1170.8984375"
     viewBox="0 0 951.66015625 1170.8984375"
     fill="currentColor">
  <path d="M473.6283 79.5917C579.0983 79.5917 674.3183 116.2117 747.0683 181.6417C767.0883 199.7117 790.0383 204.1017 807.6183 188.9617C826.1683 172.8517 826.1683 145.9917 805.1783 126.9517C717.2883 45.9017 600.0983 0.0017 473.6283 0.0017C347.1683 0.0017 229.9783 45.9017 142.0883 126.9517C121.5783 145.9917 121.5783 172.8517 139.6483 188.9617C157.7183 204.1017 180.1783 199.7117 200.1983 181.6417C272.9483 116.2117 368.6483 79.5917 473.6283 79.5917ZM474.6083 275.3917C525.3883 275.3917 572.2683 290.0417 608.8883 319.3317C629.8783 334.4717 651.8583 341.3117 669.4383 325.6817C687.4983 309.5717 687.9883 280.2717 666.0183 262.6917C613.2783 220.2117 546.3883 195.8017 474.6083 195.8017C402.8283 195.8017 335.9383 220.2117 283.1983 262.6917C260.7383 280.2717 261.2283 309.5717 279.7883 325.6817C297.3683 341.3117 318.8483 334.4717 340.3283 319.3317C377.9283 291.0117 423.8283 275.3917 474.6083 275.3917ZM-0.0017 972.1717C-0.0017 1001.9517 9.2783 1027.8317 27.3483 1044.9217V1118.6517C27.3483 1147.9517 50.7783 1170.9017 80.0783 1170.9017H126.9483C156.7383 1170.9017 179.6883 1147.9517 179.6883 1118.6517V1068.8517H771.9683V1118.6517C771.9683 1147.9517 794.4383 1170.9017 824.2183 1170.9017H871.5783C900.8783 1170.9017 923.8283 1147.9517 923.8283 1118.6517V1045.4117C941.8983 1027.8317 951.6583 1001.9517 951.6583 972.1717V854.0017C951.6583 787.1117 942.3783 744.1417 899.4183 697.7517L860.3483 655.2717L819.8283 538.0817C796.3883 470.2117 749.0283 440.9217 691.8983 434.5717C665.0383 431.1517 577.6383 428.7117 475.5883 428.7117C373.0483 428.7117 286.6183 431.1517 259.2783 434.5717C202.1483 440.9217 155.2783 470.7017 131.8383 538.0817L90.3283 655.2717L52.2483 697.7517C9.2783 744.6317 -0.0017 787.1117 -0.0017 854.0017ZM67.3783 956.5417V854.0017C67.3783 800.7817 73.2383 776.3717 104.9783 739.7417L152.3483 685.5517L193.3583 566.8917C208.9883 521.4817 232.4183 507.3217 267.5783 502.9317C292.4783 500.0017 371.5783 496.5817 475.5883 496.5817C579.5883 496.5817 659.1783 500.0017 684.0783 502.9317C719.2383 507.3217 742.6783 521.4817 758.2983 566.8917L798.8283 685.5517L846.6783 739.7417C878.4183 776.3717 884.2783 800.7817 884.2783 854.0017V956.5417C884.2783 985.8417 874.5083 1001.4617 845.2183 1001.4617H106.4483C77.1483 1001.4617 67.3783 985.8417 67.3783 956.5417ZM221.6783 674.8017H729.4883C748.0483 674.8017 753.9083 661.6217 748.0483 645.5117L725.0983 575.6817C716.3083 550.2917 702.1483 541.0117 679.1983 538.0817C653.3183 534.1817 582.0283 531.2517 475.5883 531.2517C369.1383 531.2517 297.8483 534.1817 271.9683 538.0817C249.5083 541.0117 235.3483 550.2917 226.5583 575.6817L203.1283 645.5117C197.2683 661.6217 203.6183 674.8017 221.6783 674.8017ZM170.4083 904.3017C193.3583 904.3017 210.4483 887.6917 210.4483 864.2617V806.1517C210.4483 782.7117 193.3583 766.6017 170.4083 766.6017C147.4583 766.6017 130.3683 783.2017 130.3683 806.1517V864.2617C130.3683 887.2117 147.4583 904.3017 170.4083 904.3017ZM784.6683 904.3017C808.1083 904.3017 825.1983 887.6917 825.1983 864.2617V806.1517C825.1983 782.7117 808.1083 766.6017 784.6683 766.6017C762.6983 766.6017 745.1183 783.6917 745.1183 806.1517V864.2617C745.1183 887.2117 762.6983 904.3017 784.6683 904.3017ZM391.1183 886.7217H559.0783C577.6383 886.7217 590.3283 874.5117 590.3283 854.0017V815.9217C590.3283 796.3817 577.6383 784.6717 559.0783 784.6717H391.1183C372.5583 784.6717 360.3483 796.3817 360.3483 815.9217V854.0017C360.3483 874.5117 372.5583 886.7217 391.1183 886.7217Z"/>
</svg>