<?xml version="1.0" encoding="UTF-8" standalone="no"?>
<svg xmlns="http://www.w3.org/2000/svg"
     width="954.243312202558" height="1265.625"
     viewBox="0 0 954.243312202558 1265.625"
     fill="currentColor">
  <path d="M334.9583 961.4216C522.9483 961.4216 606.9383 918.9416 606.9383 811.0316V384.7616H627.9283C652.3483 384.7616 670.8983 366.2116 670.8983 343.2616V324.7116C670.8983 301.2716 652.3483 283.2016 627.9283 283.2016H606.9383V177.2416C606.9383 65.9216 504.3983 0.0016 334.9583 0.0016C166.5083 0.0016 63.9683 65.9216 63.9683 177.2416V283.2016H42.9683C18.5583 283.2016 -0.0017 301.2716 -0.0017 324.7116V343.2616C-0.0017 366.2116 18.5583 384.7616 42.9683 384.7616H63.9683V811.0316C63.9683 918.9416 147.4583 961.4216 334.9583 961.4216ZM334.9583 885.2516C195.3083 885.2516 141.1183 863.7716 141.1183 808.5916V177.2416C141.1183 113.2816 208.4983 77.1516 334.9583 77.1516C462.3983 77.1516 530.2783 113.2816 530.2783 177.2416V808.5916C530.2783 863.7716 475.5883 885.2516 334.9583 885.2516ZM335.4483 404.7816C368.6483 404.7816 424.3183 407.7116 442.3783 407.7116C471.6783 407.7116 485.3483 395.5116 487.7883 364.7416L493.6483 296.3916C498.5383 240.2316 461.4283 218.7516 335.4483 218.7516C209.4683 218.7516 172.3683 240.2316 177.2483 296.3916L183.1083 364.7416C185.5483 395.5116 199.2183 407.7116 228.5183 407.7116C247.0683 407.7116 300.2883 404.7816 335.4483 404.7816ZM335.4483 796.8716C461.4283 796.8716 501.4683 778.3216 492.1883 720.2116L487.3083 687.0116C479.9783 640.6216 443.8483 625.9716 335.4483 625.9716C227.0483 625.9716 190.9183 640.6216 183.5983 687.0116L178.7083 720.2116C169.4383 778.3216 209.4683 796.8716 335.4483 796.8716ZM710.9383 1021.4816C753.4183 979.0016 778.8083 926.2716 785.1583 866.7016C788.5783 840.3316 771.4883 823.7316 749.9983 823.7316C726.0783 823.7316 715.3283 834.9616 710.9383 862.3016C705.5683 903.8116 688.4783 939.9416 659.1783 969.7216C628.4183 1000.0016 593.2583 1017.5816 555.6683 1021.4816C525.3883 1025.8816 511.7183 1041.5016 511.7183 1061.0316C511.7183 1082.0316 527.3483 1096.6816 550.2883 1096.6816C592.2883 1096.6816 660.6483 1071.7816 710.9383 1021.4816ZM832.0283 1143.0616C907.7183 1068.3616 947.7583 972.6516 954.0983 869.1416C956.0583 842.2816 937.4983 828.6116 918.4583 828.6116C894.0383 828.6116 881.3483 840.8216 878.9083 872.0716C874.0283 952.6416 840.8183 1030.2716 780.2783 1091.3116C719.2383 1151.8516 641.1183 1185.0616 561.0383 1189.9416C533.1983 1191.8916 516.5983 1205.5616 516.5983 1226.5616C516.5983 1249.5116 533.6883 1265.6216 558.5983 1265.6216C662.1083 1265.6216 757.3283 1218.2616 832.0283 1143.0616Z"/>
</svg>