<?xml version="1.0" encoding="UTF-8" standalone="no"?>
<svg xmlns="http://www.w3.org/2000/svg"
     width="989.5285771990116" height="1080.56640625"
     viewBox="0 0 989.5285771990116 1080.56640625"
     fill="currentColor">
  <path d="M175.4028 548.3381C175.4028 572.2681 193.9628 590.3281 218.3728 590.3281H255.4828C279.4128 590.3281 297.4728 572.2681 297.4728 548.3381V502.4381H807.2428V548.3381C807.2428 572.2681 825.3128 590.3281 849.2328 590.3281H886.3428C910.7528 590.3281 928.8228 572.2681 928.8228 548.3381V335.4481C928.8228 282.2281 922.4728 249.5081 888.7828 213.8681L856.5628 179.1981L823.3528 83.4981C805.2928 31.2481 769.6428 9.7681 725.7028 4.3981C704.2128 1.4681 634.8828 -0.0019 552.3628 -0.0019C469.8428 -0.0019 400.0128 1.4681 379.0228 4.3981C335.0728 9.7681 298.9428 31.2481 281.3628 83.4981L248.1628 179.1981L215.9328 213.8681C182.2428 249.5081 175.4028 282.2281 175.4028 335.4481ZM335.5628 181.6381C320.4228 181.6381 315.0528 169.9181 319.9328 155.7581L339.4728 96.1881C346.7928 74.7081 358.5128 67.3781 377.5528 64.4481C399.5228 62.0081 461.0528 59.5681 552.3628 59.5681C643.6628 59.5681 704.7028 62.0081 726.6728 64.4481C745.7228 67.3781 757.4328 74.7081 764.7628 96.1881L784.7828 155.7581C789.6628 169.9181 784.2928 181.6381 769.1528 181.6381ZM291.1328 379.8781C271.1128 379.8781 256.4628 365.7181 256.4628 345.6981V295.8981C256.4628 276.8581 271.1128 262.6981 291.1328 262.6981C310.6628 262.6981 324.8228 276.3681 324.8228 295.8981V345.6981C324.8228 365.7181 310.6628 379.8781 291.1328 379.8781ZM816.5228 379.8781C797.4728 379.8781 782.8228 365.7181 782.8228 345.6981V295.8981C782.8228 277.3481 797.4728 262.6981 816.5228 262.6981C836.5428 262.6981 850.7028 276.3681 850.7028 295.8981V345.6981C850.7028 365.7181 836.5428 379.8781 816.5228 379.8781ZM479.6028 364.7481C463.9828 364.7481 454.2128 354.0081 454.2128 336.9181V305.1781C454.2128 288.5781 463.9828 278.3181 479.6028 278.3181H623.6528C639.2728 278.3181 650.0128 288.5781 650.0128 305.1781V336.9181C650.0128 354.0081 639.2728 364.7481 623.6528 364.7481ZM425.4028 674.8081L388.2928 646.9681C374.6228 637.2081 359.0028 632.3281 342.4028 632.3281H263.2928C243.7628 632.3281 236.4428 655.7581 252.0628 666.9881L326.7728 721.6781C350.2128 738.7681 347.2828 761.2281 319.9328 773.4381L77.2628 878.4181C-16.4872 918.4581 -25.2772 979.9781 52.8428 1037.5981L89.9528 1064.9381C103.6328 1075.1981 119.2528 1080.0781 136.3428 1080.0781H214.9528C234.9728 1080.0781 241.8128 1056.6381 226.6728 1045.4081L151.9728 990.2381C128.5328 973.6281 131.4628 950.6881 158.3128 938.9681L401.4828 833.4981C494.7428 793.4581 503.5328 732.4181 425.4028 674.8081ZM936.6328 675.7781L899.5228 647.9481C885.8528 637.6981 870.2328 633.2981 853.6328 633.2981H774.5228C754.9928 633.2981 747.6728 656.2481 763.2928 667.9681L838.0028 722.6581C860.9528 739.2581 858.0228 762.2081 831.1628 773.9281L588.0028 879.3981C494.7428 919.4381 485.9528 980.4681 564.0728 1038.0881L601.1828 1065.4281C614.8628 1075.6881 630.4828 1080.5681 647.0828 1080.5681H726.1828C745.7228 1080.5681 753.0428 1057.1281 737.4128 1045.8981L662.7128 991.2081C639.7628 974.1181 642.6928 951.6581 669.5428 939.4581L912.7128 834.4681C1005.9728 794.4381 1014.7628 732.9081 936.6328 675.7781Z"/>
</svg>