<?xml version="1.0" encoding="UTF-8" standalone="no"?>
<svg xmlns="http://www.w3.org/2000/svg"
     width="1173.828125" height="922.36328125"
     viewBox="0 0 1173.828125 922.36328125"
     fill="currentColor">
  <path d="M784.1783 128.4148C819.3383 128.4148 848.1483 99.6048 848.1483 64.4548C848.1483 29.2948 819.3383 0.0048 784.1783 0.0048C749.0283 0.0048 720.2183 29.2948 720.2183 64.4548C720.2183 99.6048 749.0283 128.4148 784.1783 128.4148ZM989.7483 297.3648C1042.4783 297.3648 1084.9583 254.8848 1084.9583 201.1748C1084.9583 147.9448 1042.4783 105.4648 989.7483 105.4648C936.0383 105.4648 893.0683 147.9448 893.0683 201.1748C893.0683 254.8848 936.0383 297.3648 989.7483 297.3648ZM246.0983 922.3648H881.8383C1046.3883 922.3648 1173.8283 797.8548 1173.8283 638.6748C1173.8283 478.0248 1043.9483 356.9348 866.2083 356.9348C801.2683 228.0248 682.1283 149.4148 537.5983 149.4148C348.1483 149.4148 187.4983 296.3848 170.4083 491.2148C72.7583 519.0448 6.8383 601.0748 6.8383 704.5848C6.8383 825.1948 94.2383 922.3648 246.0983 922.3648ZM68.3583 444.3348C105.9583 444.3348 136.2283 414.0648 136.2283 375.9748C136.2283 338.3748 105.9583 308.1048 68.3583 308.1048C30.2783 308.1048 -0.0017 338.3748 -0.0017 375.9748C-0.0017 414.0648 30.2783 444.3348 68.3583 444.3348ZM418.9483 758.7848C332.0283 758.7848 297.8483 683.5948 297.8483 597.6548C297.8483 510.2548 334.9583 438.4748 417.4783 438.4748C482.9083 438.4748 523.4383 485.3548 524.8983 536.6248C525.3883 554.6848 514.6483 566.4048 499.0283 566.4048C483.8883 566.4048 476.0783 558.1048 471.6783 540.5248C466.3083 515.1348 452.6383 488.7648 418.4583 488.7648C370.1183 488.7648 353.5183 543.4548 353.5183 597.6548C353.5183 655.2748 369.1383 708.4948 418.9483 708.4948C453.1283 708.4948 467.7783 681.6448 473.1483 656.2548C477.5383 638.6748 485.3483 630.3748 500.4883 630.3748C516.1183 630.3748 526.8583 642.5748 526.3683 660.1548C524.8983 711.4248 484.3783 758.7848 418.9483 758.7848ZM667.4783 758.7848C593.7483 758.7848 547.3683 696.2848 547.3683 598.6348C547.3683 500.4848 593.7483 438.4748 666.9883 438.4748C740.7183 438.4748 786.6183 500.4848 786.6183 598.6348C786.6183 696.2848 740.7183 758.7848 667.4783 758.7848ZM667.4783 708.4948C707.0283 708.4948 731.4483 667.9648 731.4483 598.6348C731.4483 529.2948 707.0283 488.7648 666.9883 488.7648C627.4383 488.7648 603.0283 529.2948 603.0283 598.6348C603.0283 667.9648 627.4383 708.4948 667.4783 708.4948ZM825.1983 777.8348C815.4283 777.8348 808.1083 770.0148 808.1083 759.7648C808.1083 753.9048 811.0383 746.0948 815.4283 741.6948L854.4883 702.1448C865.2383 690.9148 876.4683 677.7348 876.4683 666.5048C876.4683 659.1748 871.0983 653.8048 863.2783 653.8048C855.4683 653.8048 850.5883 658.6948 847.6583 668.4548C844.2383 675.2948 838.8683 684.0848 826.6583 684.0848C816.4083 684.0848 807.6183 676.2648 807.6183 663.5748C807.6183 642.0848 828.6183 616.2148 862.7883 616.2148C895.0183 616.2148 918.4583 637.2048 918.4583 665.5248C918.4583 685.5448 904.2983 704.1048 884.2783 723.6348L868.1683 740.7248H906.7383C916.5083 740.7248 924.8083 749.5148 924.8083 758.7848C924.8083 769.0448 916.9883 777.8348 906.7383 777.8348Z"/>
</svg>