<?xml version="1.0" encoding="UTF-8" standalone="no"?>
<svg xmlns="http://www.w3.org/2000/svg"
     width="1126.953125" height="959.9609375"
     viewBox="0 0 1126.953125 959.9609375"
     fill="currentColor">
  <path d="M0.0006 36.6216C0.0006 56.6416 16.6006 73.7316 36.1306 73.7316H201.1706L279.3006 609.8616C289.5506 679.2016 326.1706 722.6516 396.9706 722.6516H966.8006C985.8406 722.6516 1002.4406 707.0316 1002.4406 686.0316C1002.4406 665.0416 985.8406 649.4116 966.8006 649.4116H405.2706C377.4406 649.4116 360.3506 629.8816 355.9606 600.1016L348.1406 548.8316H967.7706C1039.0606 548.8316 1075.6806 504.8816 1085.9406 435.0616L1125.0006 176.7616C1125.9806 170.4116 1126.9506 162.6016 1126.9506 158.2016C1126.9506 134.7616 1109.3706 118.6516 1082.5206 118.6516H285.6406L275.8806 56.6416C271.0006 19.0416 257.3206 0.0016 207.5206 0.0016H36.1306C16.6006 0.0016 0.0006 17.0916 0.0006 36.6216ZM355.9606 880.8616C355.9606 925.2916 391.1106 959.9616 435.5506 959.9616C479.4906 959.9616 514.6506 925.2916 514.6506 880.8616C514.6506 836.9116 479.4906 801.7616 435.5506 801.7616C391.1106 801.7616 355.9606 836.9116 355.9606 880.8616ZM812.5006 880.8616C812.5006 925.2916 848.1406 959.9616 892.0906 959.9616C936.5206 959.9616 971.6806 925.2916 971.6806 880.8616C971.6806 836.9116 936.5206 801.7616 892.0906 801.7616C848.1406 801.7616 812.5006 836.9116 812.5006 880.8616Z"/>
</svg>