<?xml version="1.0" encoding="UTF-8" standalone="no"?>
<svg xmlns="http://www.w3.org/2000/svg"
     width="898.92578125" height="898.92578125"
     viewBox="0 0 898.92578125 898.92578125"
     fill="currentColor">
  <path d="M153.3183 898.9295H745.6083C848.1483 898.9295 898.9283 848.1495 898.9283 747.5595V151.3695C898.9283 50.7795 848.1483 -0.0005 745.6083 -0.0005H153.3183C51.2683 -0.0005 -0.0017 50.2895 -0.0017 151.3695V747.5595C-0.0017 848.6295 51.2683 898.9295 153.3183 898.9295ZM247.0683 449.7095C247.0683 313.9695 315.4283 223.6295 422.3683 209.9595V169.9195C422.3683 154.7895 433.1083 145.0195 447.7583 145.0195C461.9183 145.0195 472.1683 154.7895 472.1683 169.9195V209.4695C543.9483 216.3095 601.0783 259.2795 623.0483 319.3395C625.9783 327.6395 627.9283 336.4295 627.9283 344.7295C627.9283 363.2795 615.7183 375.4895 597.1683 375.4895C579.5883 375.4895 570.3083 368.6495 564.4483 349.1195C553.2183 309.5695 517.5783 278.8095 472.1683 270.9995V629.8795C520.5083 623.5395 556.6383 593.7495 567.8683 552.7295C573.2383 535.1595 583.4983 525.8795 600.5883 525.8795C619.6283 525.8795 631.3483 538.5695 631.3483 556.6395C631.3483 565.9195 629.3983 574.2195 626.4683 582.5195C604.9783 642.5795 549.3183 685.0595 472.1683 690.9195V730.9595C472.1683 746.0895 461.9183 756.3495 447.7583 756.3495C433.5983 756.3495 422.3683 746.0895 422.3683 730.9595V690.4295C314.9383 677.2495 247.0683 587.3995 247.0683 449.7095ZM314.9383 449.7095C314.9383 547.3595 355.4683 613.7695 422.3683 628.4195V272.4595C355.9583 286.6195 314.9383 353.5195 314.9383 449.7095Z"/>
</svg>