<?xml version="1.0" encoding="UTF-8" standalone="no"?>
<svg xmlns="http://www.w3.org/2000/svg"
     width="1317.3828125" height="847.65625"
     viewBox="0 0 1317.3828125 847.65625"
     fill="currentColor">
  <path d="M1147.9483 847.6572H1266.5983C1296.8783 847.6572 1317.3783 826.1672 1317.3783 794.4372V53.2272C1317.3783 21.4872 1296.8783 -0.0028 1266.5983 -0.0028H1147.9483C1117.6783 -0.0028 1096.6783 21.4872 1096.6783 53.2272V794.4372C1096.6783 826.1672 1117.6783 847.6572 1147.9483 847.6572ZM782.7183 847.6572H900.3883C930.6683 847.6572 951.6583 826.1672 951.6583 794.4372V246.0972C951.6583 214.3572 930.6683 192.8672 900.3883 192.8672H782.7183C751.9483 192.8672 731.4483 214.3572 731.4483 246.0972V794.4372C731.4483 826.1672 751.9483 847.6572 782.7183 847.6572ZM416.9883 847.6572H534.6683C565.4283 847.6572 585.9383 826.1672 585.9383 794.4372V422.8472C585.9383 391.1172 565.4283 369.6272 534.6683 369.6272H416.9883C386.2283 369.6272 365.7183 391.1172 365.7183 422.8472V794.4372C365.7183 826.1672 386.2283 847.6572 416.9883 847.6572ZM51.2683 847.6572H168.9483C199.7083 847.6572 220.2183 826.1672 220.2183 794.4372V575.1972C220.2183 543.4572 199.7083 522.4572 168.9483 522.4572H51.2683C20.5083 522.4572 -0.0017 543.4572 -0.0017 575.1972V794.4372C-0.0017 826.1672 20.5083 847.6572 51.2683 847.6572Z"/>
</svg>