<?xml version="1.0" encoding="UTF-8" standalone="no"?>
<svg xmlns="http://www.w3.org/2000/svg"
     width="898.92578125" height="898.92578125"
     viewBox="0 0 898.92578125 898.92578125"
     fill="currentColor">
  <path d="M153.3183 898.9295H745.6083C848.1483 898.9295 898.9283 848.1495 898.9283 747.5595V151.3695C898.9283 50.7795 848.1483 -0.0005 745.6083 -0.0005H153.3183C51.2683 -0.0005 -0.0017 50.2895 -0.0017 151.3695V747.5595C-0.0017 848.6295 51.2683 898.9295 153.3183 898.9295ZM154.2983 820.3095C105.4683 820.3095 78.6183 794.4295 78.6183 743.6495V155.2695C78.6183 104.4895 105.4683 78.6095 154.2983 78.6095H744.6283C792.9683 78.6095 820.3083 104.4895 820.3083 155.2695V743.6495C820.3083 794.4295 792.9683 820.3095 744.6283 820.3095ZM287.1083 448.7295C287.1083 549.8095 341.3083 616.2095 425.2883 627.4395V664.0595C425.2883 678.2195 435.5483 687.9895 449.2183 687.9895C463.3783 687.9895 473.6283 678.2195 473.6283 664.0595V627.9295C535.6483 620.6095 579.5883 585.4495 593.7483 541.9895C595.2183 536.6195 596.6783 530.7595 596.6783 524.8995C596.6783 507.8095 584.4683 496.0895 567.3783 496.0895C554.1983 496.0895 544.4383 503.9095 539.0583 516.5995C528.3183 544.4295 506.3483 563.9695 473.6283 570.3095V327.1495C505.8583 333.4995 527.8283 353.5195 538.5783 380.3695C544.4383 394.5295 554.1983 401.8595 567.8683 401.8595C584.9583 401.8595 596.1883 390.1395 596.1883 372.5595C596.1883 366.6995 594.7283 361.3295 593.2583 356.4495C579.0983 312.9895 535.1583 277.3395 473.6283 270.0195V233.8895C473.6283 219.7295 463.3783 209.4695 449.2183 209.4695C435.5483 209.4695 425.2883 219.7295 425.2883 233.8895V270.5095C341.3083 281.7395 287.1083 348.6295 287.1083 448.7295ZM349.1183 448.7295C349.1183 382.8095 378.4183 339.8395 425.2883 328.1295V569.3395C378.4183 558.1095 349.1183 515.6295 349.1183 448.7295Z"/>
</svg>