<?xml version="1.0" encoding="UTF-8" standalone="no"?>
<svg xmlns="http://www.w3.org/2000/svg"
     width="996.09375" height="996.09375"
     viewBox="0 0 996.09375 996.09375"
     fill="currentColor">
  <path d="M498.0477 996.0959C770.5077 996.0959 996.0977 770.0159 996.0977 498.0459C996.0977 225.5859 770.0177 -0.0041 497.5577 -0.0041C225.5877 -0.0041 -0.0023 225.5859 -0.0023 498.0459C-0.0023 770.0159 226.0777 996.0959 498.0477 996.0959ZM498.0477 913.0859C267.5777 913.0859 83.4977 728.5159 83.4977 498.0459C83.4977 267.5759 267.0877 83.0059 497.5577 83.0059C728.0277 83.0059 913.0877 267.5759 913.0877 498.0459C913.0877 728.5159 728.5177 913.0859 498.0477 913.0859ZM334.9577 498.0459C334.9577 599.1259 389.1577 665.5259 473.1477 676.7559V713.3759C473.1477 727.5359 483.3977 737.3059 497.0677 737.3059C511.2277 737.3059 521.4877 727.5359 521.4877 713.3759V677.2459C583.4977 669.9259 627.4377 634.7659 641.5977 591.3059C643.0677 585.9359 644.5277 580.0759 644.5277 574.2159C644.5277 557.1259 632.3277 545.4059 615.2377 545.4059C601.5577 545.4059 592.2877 553.2259 586.9177 565.9159C575.6877 593.7459 553.7077 613.2859 521.4877 619.6259V376.4659C553.2277 382.8159 575.1977 402.8359 586.4277 429.6859C592.2877 443.8459 602.0477 451.1759 615.7277 451.1759C632.8077 451.1759 644.0477 439.4559 644.0477 421.8759C644.0477 416.0159 642.5777 410.6459 641.1177 405.7659C626.9577 362.3059 582.5177 326.6559 521.4877 319.3359V283.2059C521.4877 269.0459 511.2277 258.7859 497.0677 258.7859C483.3977 258.7859 473.1477 269.0459 473.1477 283.2059V319.8259C389.1577 331.0559 334.9577 397.9459 334.9577 498.0459ZM396.9777 498.0459C396.9777 432.1259 426.2677 389.1559 473.1477 377.4459V618.6559C426.2677 607.4259 396.9777 564.9459 396.9777 498.0459Z"/>
</svg>