<?xml version="1.0" encoding="UTF-8" standalone="no"?>
<svg xmlns="http://www.w3.org/2000/svg"
     width="898.92578125" height="898.92578125"
     viewBox="0 0 898.92578125 898.92578125"
     fill="currentColor">
  <path d="M153.3183 898.9295H745.6083C848.1483 898.9295 898.9283 848.1495 898.9283 747.5595V151.3695C898.9283 50.7795 848.1483 -0.0005 745.6083 -0.0005H153.3183C51.2683 -0.0005 -0.0017 50.2895 -0.0017 151.3695V747.5595C-0.0017 848.6295 51.2683 898.9295 153.3183 898.9295ZM281.7383 448.7295C281.7383 345.2195 337.3983 276.3695 424.3183 264.6495V227.0495C424.3183 212.3995 435.0583 201.6595 449.2183 201.6595C463.8683 201.6595 474.1183 212.3995 474.1183 227.0495V264.1595C537.5983 271.9695 583.0083 308.5895 597.6583 353.5195C599.1183 358.3995 600.5883 363.7695 600.5883 370.1195C600.5883 388.1795 588.8683 400.3895 571.2883 400.3895C557.1283 400.3895 546.8783 393.0695 541.0183 378.4195C529.7883 350.5895 507.3283 330.0795 474.1183 323.2395V574.2195C507.8083 567.3795 530.2783 547.3595 541.5083 518.5595C546.8783 505.8595 557.1283 497.5595 570.7983 497.5595C588.3783 497.5595 601.0783 509.7695 601.0783 527.3395C601.0783 533.6895 599.6083 539.5495 598.1483 544.9195C583.4983 589.8395 538.0883 625.9795 474.1183 633.7895V670.8995C474.1183 685.5495 463.8683 695.7995 449.2183 695.7995C435.0583 695.7995 424.3183 685.5495 424.3183 670.8995V633.2995C337.3983 621.5795 281.7383 553.2195 281.7383 448.7295ZM345.6983 448.7295C345.6983 517.5795 375.9783 561.5195 424.3183 572.7495V324.7095C375.9783 336.4295 345.6983 380.8595 345.6983 448.7295Z"/>
</svg>