<?xml version="1.0" encoding="UTF-8" standalone="no"?>
<svg xmlns="http://www.w3.org/2000/svg"
     width="706.0546875" height="1057.12890625"
     viewBox="0 0 706.0546875 1057.12890625"
     fill="currentColor">
  <path d="M92.2883 1057.1277H107.4183C131.3483 1057.1277 147.9483 1040.5277 147.9483 1016.5977V839.8477H558.1083V1016.5977C558.1083 1040.5277 574.7083 1057.1277 598.6283 1057.1277H613.7683C637.6983 1057.1277 654.2983 1040.5277 654.2983 1016.5977V723.1477C688.9683 715.3277 706.0583 690.4277 706.0583 648.4377V574.2177C706.0583 521.9677 679.1983 496.5777 625.4883 496.5777H566.8983V362.3077H582.0283C639.6483 362.3077 666.9883 335.9377 666.9883 279.7877V82.5177C666.9883 26.3677 639.6483 -0.0023 582.0283 -0.0023H124.0283C66.4083 -0.0023 39.0583 26.3677 39.0583 82.5177V279.7877C39.0583 335.9377 66.4083 362.3077 124.0283 362.3077H139.1583V496.5777H80.5683C26.8583 496.5777 -0.0017 521.9677 -0.0017 574.2177V648.4377C-0.0017 690.4277 17.0883 715.3277 51.7583 723.1477V1016.5977C51.7583 1040.5277 68.3583 1057.1277 92.2883 1057.1277ZM151.3683 280.2777C131.8383 280.2777 121.0983 270.5077 121.0983 251.4677V110.3477C121.0983 92.2877 131.8383 82.0277 151.3683 82.0277H554.6883C574.2183 82.0277 584.9583 92.2877 584.9583 110.3477V251.4677C584.9583 270.5077 574.2183 280.2777 554.6883 280.2777ZM232.4183 496.5777V362.3077H473.6283V496.5777ZM103.0283 644.0477C90.8183 644.0477 82.0283 636.2277 82.0283 624.9977V597.6577C82.0283 586.4277 90.8183 578.6177 103.0283 578.6177H603.0283C615.2383 578.6177 624.0283 586.4277 624.0283 597.6577V624.9977C624.0283 636.2277 615.2383 644.0477 603.0283 644.0477ZM147.9483 766.1177V726.0777H558.1083V766.1177Z"/>
</svg>