<?xml version="1.0" encoding="UTF-8" standalone="no"?>
<svg xmlns="http://www.w3.org/2000/svg"
     width="1504.8828125" height="1244.140625"
     viewBox="0 0 1504.8828125 1244.140625"
     fill="currentColor">
  <path d="M752.9283 1244.1442C821.2883 1244.1442 877.9283 1187.9842 877.9283 1119.1442C877.9283 1061.5242 837.8883 1012.6942 784.6683 998.0442V891.1142C797.3683 888.6742 809.0783 885.2542 820.7983 880.8642C912.5983 951.6642 1024.8983 944.3342 1092.2883 886.2342C1209.9583 983.8842 1396.4883 913.5742 1420.8983 777.3442C1468.2583 769.0442 1504.8783 726.5642 1504.8783 676.7542C1504.8783 620.6042 1458.9883 574.7042 1402.8283 574.7042C1346.1883 574.7042 1300.7783 620.6042 1300.7783 676.7542C1300.7783 717.2842 1323.7283 751.9542 1357.4183 768.5542C1339.8483 858.3942 1210.4483 903.8042 1130.8583 837.8942C1140.6283 819.3342 1147.4583 798.3442 1149.8983 774.9042C1204.0983 761.2342 1244.1383 711.4242 1244.1383 653.3242C1244.1383 583.9842 1187.4983 526.8542 1118.6483 526.8542C1049.3183 526.8542 992.1883 583.9842 992.1883 653.3242C992.1883 710.9342 1031.7383 759.7642 1085.4483 774.4142C1070.3083 861.8142 965.8183 897.4642 878.4183 843.2642C912.1083 810.5442 933.1083 764.6442 933.1083 713.8642C933.1083 625.0042 869.1383 551.2742 784.6683 536.1342V271.4842C892.5783 258.7842 991.6983 183.1042 991.6983 88.3742C991.6983 56.1542 974.1183 34.1842 932.6183 21.4842C880.8583 6.3442 816.8983 0.0042 752.4383 0.0042C688.4783 0.0042 624.5083 6.3442 572.7583 21.4842C531.2483 34.1842 513.6683 56.1542 513.6683 88.3742C513.6683 183.1042 612.7883 258.7842 720.6983 271.4842V536.1342C636.2283 551.2742 572.2683 625.0042 572.2683 713.8642C572.2683 764.6442 593.2583 810.0542 626.9483 842.7742C539.0583 897.4642 434.5683 861.8142 419.4383 774.4142C473.1483 759.7642 512.6983 710.9342 512.6983 653.3242C512.6983 583.9842 455.5683 526.8542 386.2283 526.8542C317.3783 526.8542 260.7383 583.9842 260.7383 653.3242C260.7383 711.4242 300.7783 761.2342 354.9783 774.9042C357.4183 798.3442 364.2583 819.3342 374.0283 837.8942C294.4383 903.8042 165.0383 858.3942 147.4583 768.5542C181.1483 751.9542 204.0983 717.2842 204.0983 676.7542C204.0983 620.6042 158.6883 574.7042 102.0483 574.7042C45.8983 574.7042 -0.0017 620.6042 -0.0017 676.7542C-0.0017 726.5642 36.6183 769.0442 83.9883 777.3442C108.3983 913.5742 294.9183 983.8842 412.5983 886.2342C479.9783 944.3342 592.2883 951.6642 684.0783 880.3742C695.7983 885.2542 708.0083 888.6742 720.6983 891.1142V998.0442C667.4783 1012.6942 627.4383 1061.5242 627.4383 1119.1442C627.4383 1187.9842 684.0783 1244.1442 752.9283 1244.1442Z"/>
</svg>