<?xml version="1.0" encoding="UTF-8" standalone="no"?>
<svg xmlns="http://www.w3.org/2000/svg"
     width="1509.765625" height="1246.58203125"
     viewBox="0 0 1509.765625 1246.58203125"
     fill="currentColor">
  <path d="M755.3683 1246.5842C825.1983 1246.5842 882.8083 1189.4542 882.8083 1119.1442C882.8083 1060.0542 841.7983 1009.7642 787.1083 995.6042V893.5542C800.2883 891.1142 813.4783 887.6942 825.1983 882.3242C916.9883 951.6642 1028.3183 943.8442 1094.7283 886.2342C1211.4283 983.3942 1396.4883 914.5542 1422.8483 780.2742C1471.6783 771.4842 1509.7683 728.0242 1509.7683 676.7542C1509.7683 619.1442 1462.3983 572.2642 1405.2783 572.2642C1347.1683 572.2642 1300.7783 619.1442 1300.7783 676.7542C1300.7783 717.7742 1324.7083 753.9042 1359.3783 770.9942C1339.8483 859.3742 1212.3983 902.8342 1133.2983 837.8942C1142.5783 819.8242 1149.4183 799.8042 1151.8583 777.8342C1207.5183 763.6742 1249.0283 713.3742 1249.0283 653.3242C1249.0283 582.5242 1191.4083 524.4142 1121.0983 524.4142C1050.2883 524.4142 992.1883 582.5242 992.1883 653.3242C992.1883 712.4042 1032.7183 762.2042 1087.3983 776.8542C1071.2883 861.8142 969.2383 896.4842 882.8083 844.2342C916.9883 811.5242 937.9883 765.1342 937.9883 713.8642C937.9883 623.5342 873.0483 548.8242 787.1083 533.6942V271.4842C895.0183 258.7842 994.1383 183.1042 994.1383 88.3742C994.1383 56.1542 976.5583 34.1842 935.0583 21.4842C883.2983 6.3442 819.3383 0.0042 754.8783 0.0042C690.9183 0.0042 626.9483 6.3442 575.1983 21.4842C533.6883 34.1842 516.1183 56.1542 516.1183 88.3742C516.1183 183.1042 615.2383 258.7842 723.1483 271.4842V533.6942C637.2083 548.8242 572.2683 623.5342 572.2683 713.8642C572.2683 765.1342 593.2583 811.0342 626.9483 844.2342C540.5283 896.4842 438.4783 861.8142 422.3683 776.8542C477.0483 762.2042 517.5783 712.4042 517.5783 653.3242C517.5783 582.5242 459.4683 524.4142 388.6683 524.4142C318.3583 524.4142 260.7383 582.5242 260.7383 653.3242C260.7383 713.3742 302.2483 763.6742 357.9083 777.8342C360.3483 799.8042 367.1883 819.8242 376.4683 837.8942C297.3683 902.8342 169.9183 859.3742 150.3883 770.9942C185.0583 753.9042 208.9883 717.7742 208.9883 676.7542C208.9883 619.1442 162.5983 572.2642 104.4883 572.2642C47.3683 572.2642 -0.0017 619.1442 -0.0017 676.7542C-0.0017 728.0242 38.0883 771.4842 86.9183 780.2742C113.2783 914.5542 298.3383 983.3942 415.0383 886.2342C481.4483 943.8442 592.7783 951.6642 684.5683 882.3242C696.7783 887.2042 709.4683 891.1142 723.1483 893.5542V995.6042C668.4583 1009.7642 627.4383 1060.0542 627.4383 1119.1442C627.4383 1189.4542 685.0583 1246.5842 755.3683 1246.5842ZM754.8783 209.4742C664.5483 209.4742 592.7783 160.1542 580.5683 91.7942C580.0783 88.8642 582.5183 85.9342 586.9183 83.9842C638.6683 70.3142 696.2883 63.4742 754.8783 63.4742C813.4783 63.4742 871.0983 70.3142 923.3383 83.9842C927.7383 85.9342 930.1783 88.8642 929.6883 91.7942C917.4783 160.1542 845.6983 209.4742 754.8783 209.4742ZM388.6683 717.7742C353.5183 717.7742 324.7083 688.4742 324.7083 653.3242C324.7083 617.6742 353.5183 588.3742 388.6683 588.3742C424.3183 588.3742 453.6183 617.6742 453.6183 653.3242C453.6183 688.4742 424.3183 717.7742 388.6683 717.7742ZM1121.0983 717.7742C1085.4483 717.7742 1056.1483 688.4742 1056.1483 653.3242C1056.1483 617.6742 1085.4483 588.3742 1121.0983 588.3742C1156.2483 588.3742 1185.0583 617.6742 1185.0583 653.3242C1185.0583 688.4742 1156.2483 717.7742 1121.0983 717.7742ZM754.8783 832.5242C688.9683 832.5242 636.2283 779.7842 636.2283 713.8642C636.2283 647.4642 688.9683 594.7242 754.8783 594.7242C820.7983 594.7242 874.0283 647.4642 874.0283 713.8642C874.0283 779.7842 820.7983 832.5242 754.8783 832.5242ZM104.4883 727.5342C77.1483 727.5342 54.1983 704.5942 54.1983 676.7542C54.1983 649.4142 77.1483 626.4642 104.4883 626.4642C132.8083 626.4642 154.7883 648.9242 154.7883 676.7542C154.7883 704.5942 131.8383 727.5342 104.4883 727.5342ZM1405.2783 727.5342C1377.9283 727.5342 1354.9783 704.5942 1354.9783 676.7542C1354.9783 648.9242 1376.9483 626.4642 1405.2783 626.4642C1432.6183 626.4642 1455.5683 649.4142 1455.5683 676.7542C1455.5683 704.5942 1432.6183 727.5342 1405.2783 727.5342ZM755.3683 1182.6142C720.2183 1182.6142 691.4083 1154.2942 691.4083 1119.1442C691.4083 1083.9842 720.2183 1055.6642 755.3683 1055.6642C790.0383 1055.6642 818.8483 1083.9842 818.8483 1119.1442C818.8483 1154.2942 790.0383 1182.6142 755.3683 1182.6142Z"/>
</svg>