<?xml version="1.0" encoding="UTF-8" standalone="no"?>
<svg xmlns="http://www.w3.org/2000/svg"
     width="700.1953125" height="1004.8828125"
     viewBox="0 0 700.1953125 1004.8828125"
     fill="currentColor">
  <path d="M323.7283 1004.8788C504.8783 1004.8788 647.9483 861.8188 647.9483 680.6688V178.2188C678.7083 162.5988 700.1983 130.8587 700.1983 93.7487C700.1983 41.9887 658.6883 -0.0013 606.4483 -0.0013C554.6883 -0.0013 512.6983 41.9887 512.6983 93.7487C512.6983 130.8587 534.1783 163.0888 565.4283 178.2188V462.3988C506.3483 396.9688 420.4083 356.4488 323.2383 356.4488C142.0883 356.4488 -0.0017 499.0188 -0.0017 680.6688C-0.0017 861.8188 142.5783 1004.8788 323.7283 1004.8788ZM323.7283 922.3588C187.9883 922.3588 82.5183 816.8987 82.5183 680.6688C82.5183 544.9188 187.9883 438.9688 323.2383 438.9688C459.4683 438.9688 565.4283 544.9188 565.4283 680.6688C565.4283 816.8987 459.9583 922.3588 323.7283 922.3588Z"/>
</svg>