<?xml version="1.0" encoding="UTF-8" standalone="no"?>
<svg xmlns="http://www.w3.org/2000/svg"
     width="1049.8046875" height="902.83203125"
     viewBox="0 0 1049.8046875 902.83203125"
     fill="currentColor">
  <path d="M-0.0017 864.2613C-0.0017 887.6913 15.6283 902.8313 39.0583 902.8313H1010.2583C1031.7383 902.8313 1049.8083 885.7413 1049.8083 863.7713C1049.8083 842.2813 1031.7383 824.7112 1010.2583 824.7112H92.2883C82.0283 824.7112 78.6183 821.2913 78.6183 811.0313V271.9713L230.9583 426.2713C253.4183 448.7313 273.9283 458.4913 296.8783 458.4913C319.8283 458.4913 341.3083 448.2413 362.7883 426.2713L542.4783 242.1912C546.8783 237.7913 551.7583 235.3513 555.6683 235.3513C560.0583 235.3513 564.9383 237.7913 569.3383 242.1912L761.7183 437.0113L681.1483 517.5813C663.5783 535.1513 674.3183 557.6213 699.2183 563.9613L984.8683 636.2313C1006.8383 642.0912 1026.3683 623.5313 1020.5083 601.0713L948.2383 314.9413C941.8983 290.0413 918.9483 279.3013 901.3683 296.8712L821.2883 377.4413L622.0683 177.2413C600.0983 155.2713 579.0983 145.0213 555.6683 145.0213C532.7183 145.0213 510.7383 155.2713 489.7483 177.2413L310.0583 361.3313C305.6683 365.7213 301.2683 368.1613 296.8783 368.1613C292.4783 368.1613 288.0883 365.7213 283.6883 361.3313L78.6183 152.3412V39.0612C78.6183 18.0712 61.0383 0.0013 39.5483 0.0013C17.5783 0.0013 -0.0017 18.0712 -0.0017 39.0612Z"/>
</svg>