<?xml version="1.0" encoding="UTF-8" standalone="no"?>
<svg xmlns="http://www.w3.org/2000/svg"
     width="1227.05078125" height="913.0859375"
     viewBox="0 0 1227.05078125 913.0859375"
     fill="currentColor">
  <path d="M979.4883 913.09H1124.9983C1192.3783 913.09 1227.0483 880.86 1227.0483 816.89V96.68C1227.0483 32.71 1192.3783 0 1124.9983 0H979.4883C913.0883 0 878.4183 32.71 878.4183 96.68V816.89C878.4183 880.86 913.0883 913.09 979.4883 913.09ZM540.5283 913.09H686.0383C753.4183 913.09 787.5983 880.86 787.5983 816.89V239.26C787.5983 175.29 753.4183 142.58 686.0383 142.58H540.5283C473.6283 142.58 438.9683 175.29 438.9683 239.26V816.89C438.9683 880.86 473.6283 913.09 540.5283 913.09ZM101.5583 913.09H246.5783C313.9683 913.09 348.6283 880.86 348.6283 816.89V381.35C348.6283 317.38 313.9683 284.67 246.5783 284.67H101.5583C34.6683 284.67 -0.0017 317.38 -0.0017 381.35V816.89C-0.0017 880.86 34.6683 913.09 101.5583 913.09Z"/>
</svg>