<?xml version="1.0" encoding="UTF-8" standalone="no"?>
<svg xmlns="http://www.w3.org/2000/svg"
     width="821.2890625" height="1046.38671875"
     viewBox="0 0 821.2890625 1046.38671875"
     fill="currentColor">
  <path d="M149.8983 1046.3883H782.2283C803.7083 1046.3883 821.2883 1029.2983 821.2883 1007.3283C821.2883 990.2383 809.5683 975.0983 793.9483 969.7283C732.4183 945.3083 719.7283 865.7183 780.2783 804.6883C798.8283 786.1283 821.2883 762.2083 821.2883 713.3783V153.3183C821.2883 51.7583 770.9983 -0.0017 669.9183 -0.0017H151.3683C50.2883 -0.0017 -0.0017 51.2683 -0.0017 153.3183V895.5083C-0.0017 996.0983 50.7783 1046.3883 149.8983 1046.3883ZM139.6483 748.5383C124.5083 748.5383 111.8183 735.8383 111.8183 720.2183V103.5183C111.8183 87.8883 124.5083 75.6883 139.6483 75.6883C154.7883 75.6883 167.9683 87.8883 167.9683 103.5183V720.2183C167.9683 735.8383 154.7883 748.5383 139.6483 748.5383ZM330.0783 602.0483C310.5483 602.0483 297.8483 589.8483 297.8483 571.7783C297.8483 565.4283 298.8283 559.0783 302.2483 549.3183L424.3183 220.6983C433.1083 198.2383 449.2183 186.5283 472.6583 186.5283C496.5783 186.5283 513.1883 198.2383 521.9683 220.6983L644.0383 549.3183C647.9483 559.0783 648.9283 565.4283 648.9283 572.2683C648.9283 589.8483 635.7383 602.0483 616.2083 602.0483C600.5883 602.0483 589.3583 594.7283 582.5183 574.2183L550.7783 481.9383H395.5083L363.7683 574.2183C356.9383 594.7283 345.6983 602.0483 330.0783 602.0483ZM413.0883 429.1983H533.1983L475.5883 261.2283H470.6983ZM154.2983 967.7783C104.9783 967.7783 78.6183 941.4083 78.6183 895.0183C78.6183 851.0783 109.8683 822.7583 158.6883 822.7583H659.6683C666.0183 822.7583 671.8783 822.2683 676.7583 821.2883C653.8083 872.0683 657.7183 925.7783 683.5983 967.7783Z"/>
</svg>