<?xml version="1.0" encoding="UTF-8" standalone="no"?>
<svg xmlns="http://www.w3.org/2000/svg"
     width="821.2890625" height="1046.875"
     viewBox="0 0 821.2890625 1046.875"
     fill="currentColor">
  <path d="M-0.0017 894.0466C-0.0017 996.0966 50.2883 1046.8766 151.3683 1046.8766H669.9183C770.9983 1046.8766 821.2883 996.0966 821.2883 894.0466V153.3166C821.2883 51.7566 770.9983 -0.0034 669.9183 -0.0034H151.3683C50.2883 -0.0034 -0.0017 51.7566 -0.0017 153.3166ZM180.1783 162.1066H479.4883C499.0283 162.1066 510.7383 174.8066 510.7383 195.3166V276.8566C510.7383 296.8766 499.0283 310.0566 479.4883 310.0566H180.1783C160.1583 310.0566 148.4383 296.8766 148.4383 276.8566V195.3166C148.4383 174.8066 160.1583 162.1066 180.1783 162.1066ZM180.1783 353.5166H642.0883C661.6183 353.5166 673.3383 366.2066 673.3383 386.7166V468.2666C673.3383 488.7666 661.6183 501.4666 642.0883 501.4666H180.1783C160.1583 501.4666 148.4383 488.7666 148.4383 468.2666V386.7166C148.4383 366.2066 160.1583 353.5166 180.1783 353.5166ZM180.1783 545.8966H561.5283C581.0583 545.8966 592.7783 558.1066 592.7783 578.1266V660.1566C592.7783 680.6666 581.0583 692.8666 561.5283 692.8666H180.1783C160.1583 692.8666 148.4383 680.6666 148.4383 660.1566V578.1266C148.4383 558.1066 160.1583 545.8966 180.1783 545.8966ZM180.1783 737.3066H400.8783C419.9183 737.3066 432.1283 749.9966 432.1283 770.5066V852.0466C432.1283 872.0666 419.9183 885.2566 400.8783 885.2566H180.1783C160.1583 885.2566 148.4383 872.0666 148.4383 852.0466V770.5066C148.4383 749.9966 160.1583 737.3066 180.1783 737.3066Z"/>
</svg>