<?xml version="1.0" encoding="UTF-8" standalone="no"?>
<svg xmlns="http://www.w3.org/2000/svg"
     width="1049.8046875" height="902.83203125"
     viewBox="0 0 1049.8046875 902.83203125"
     fill="currentColor">
  <path d="M-0.0017 864.2613C-0.0017 887.6913 15.6283 902.8313 39.0583 902.8313H1010.2583C1031.7383 902.8313 1049.8083 885.7413 1049.8083 863.7713C1049.8083 842.2813 1031.7383 824.7112 1010.2583 824.7112H92.2883C82.0283 824.7112 78.6183 821.2913 78.6183 811.0313V544.9213L296.8783 418.4613C312.4983 434.5713 334.4683 444.8213 358.8883 444.8213C380.8583 444.8213 401.3683 436.5213 416.5083 422.8513L509.7683 502.9313C504.8783 513.1813 502.4383 524.9013 502.4383 537.1112C502.4383 584.9613 541.5083 624.0213 589.3583 624.0213C637.2083 624.0213 675.7783 584.9613 675.7783 537.1112C675.7783 532.2313 675.7783 527.8313 674.8083 522.9513L906.2483 385.2513C920.8983 395.5113 938.4783 401.8513 957.5183 401.8513C1005.3683 401.8513 1044.4383 362.7913 1044.4383 314.9413C1044.4383 267.0912 1005.3683 228.0313 957.5183 228.0313C909.6683 228.0313 870.6083 267.0912 870.6083 314.9413C870.6083 322.2613 871.5783 329.5913 873.5383 336.4213L646.4883 472.1713C631.3483 458.4913 611.3283 450.6813 589.3583 450.6813C574.2183 450.6813 559.5683 454.5913 547.3683 461.4213L444.3383 373.0513C445.3083 368.1613 445.7983 363.2813 445.7983 357.9113C445.7983 310.0612 406.7383 271.4813 358.8883 271.4813C311.0383 271.4813 271.9683 310.0612 271.9683 357.9113C271.9683 360.8413 272.4583 363.2813 272.4583 365.7213L78.6183 478.0313V39.0612C78.6183 18.0712 61.0383 0.0013 39.5483 0.0013C17.5783 0.0013 -0.0017 18.0712 -0.0017 39.0612Z"/>
</svg>