<?xml version="1.0" encoding="UTF-8" standalone="no"?>
<svg xmlns="http://www.w3.org/2000/svg"
     width="1049.8046875" height="902.83203125"
     viewBox="0 0 1049.8046875 902.83203125"
     fill="currentColor">
  <path d="M39.0583 902.8313H1010.2583C1031.7383 902.8313 1049.8083 885.7413 1049.8083 863.7713C1049.8083 842.2813 1031.7383 824.7112 1010.2583 824.7112H92.2883C82.0283 824.7112 78.6183 821.2913 78.6183 811.0313V39.0612C78.6183 18.0712 61.0383 0.0013 39.5483 0.0013C17.5783 0.0013 -0.0017 18.0712 -0.0017 39.0612V864.2613C-0.0017 887.6913 15.6283 902.8313 39.0583 902.8313ZM903.8083 270.0213C945.7983 270.0213 981.4483 233.8913 981.4483 192.3813C981.4483 151.3713 945.7983 114.7413 903.8083 114.7413C861.3283 114.7413 825.6883 151.3713 825.6883 192.3813C825.6883 233.8913 861.3283 270.0213 903.8083 270.0213ZM490.2383 344.7313C532.2283 344.7313 567.8683 308.5913 567.8683 267.0912C567.8683 226.0712 532.2283 189.4512 490.2383 189.4512C447.7583 189.4512 412.1083 226.0712 412.1083 267.0912C412.1083 308.5913 447.7583 344.7313 490.2383 344.7313ZM716.7983 581.5413C758.7883 581.5413 794.4383 545.4113 794.4383 503.9013C794.4383 462.8913 758.7883 426.2713 716.7983 426.2713C674.3183 426.2713 638.6683 462.8913 638.6683 503.9013C638.6683 545.4113 674.3183 581.5413 716.7983 581.5413ZM303.2183 656.7413C345.6983 656.7413 380.8583 620.6012 380.8583 579.1012C380.8583 538.0813 345.6983 501.4613 303.2183 501.4613C260.7383 501.4613 225.0983 538.0813 225.0983 579.1012C225.0983 620.6012 260.7383 656.7413 303.2183 656.7413Z"/>
</svg>