<?xml version="1.0" encoding="UTF-8" standalone="no"?>
<svg xmlns="http://www.w3.org/2000/svg"
     width="996.09375" height="996.09375"
     viewBox="0 0 996.09375 996.09375"
     fill="currentColor">
  <path d="M498.0477 996.0977C770.5077 996.0977 996.0977 770.5077 996.0977 498.0477C996.0977 226.0777 770.0177 -0.0023 497.5577 -0.0023C225.5877 -0.0023 -0.0023 226.0777 -0.0023 498.0477C-0.0023 770.5077 226.0777 996.0977 498.0477 996.0977ZM266.1177 728.0277C242.1877 728.0277 226.0777 712.3977 226.0777 687.9877V282.7177C226.0777 267.5777 239.2577 254.3977 254.3977 254.3977C270.0177 254.3977 282.2277 267.5777 282.2277 282.7177V435.0577H607.9077V383.2977C607.9077 365.7177 625.9777 357.9077 643.0677 367.6777L771.4877 444.3377C785.6477 452.6377 785.6477 473.1477 770.9977 481.4477L643.5577 558.5977C626.9577 568.3577 607.9077 560.0577 607.9077 542.4777V491.2077H282.2277V665.5277C282.2277 669.4377 284.6677 671.8777 288.5777 671.8777H746.0977C761.2277 671.8777 773.9277 684.5677 773.9277 700.1977C773.9277 715.3277 761.2277 728.0277 746.0977 728.0277Z"/>
</svg>