<?xml version="1.0" encoding="UTF-8" standalone="no"?>
<svg xmlns="http://www.w3.org/2000/svg"
     width="898.92578125" height="898.92578125"
     viewBox="0 0 898.92578125 898.92578125"
     fill="currentColor">
  <path d="M153.3183 898.9295H745.6083C848.1483 898.9295 898.9283 848.1495 898.9283 747.5595V151.3695C898.9283 50.7795 848.1483 -0.0005 745.6083 -0.0005H153.3183C51.2683 -0.0005 -0.0017 50.2895 -0.0017 151.3695V747.5595C-0.0017 848.6295 51.2683 898.9295 153.3183 898.9295ZM154.2983 820.3095C105.4683 820.3095 78.6183 794.4295 78.6183 743.6495V155.2695C78.6183 104.4895 105.4683 78.6095 154.2983 78.6095H744.6283C792.9683 78.6095 820.3083 104.4895 820.3083 155.2695V743.6495C820.3083 794.4295 792.9683 820.3095 744.6283 820.3095ZM396.4883 680.6595C412.5983 680.6595 426.2683 672.8495 436.0383 657.7195L659.1783 306.6395C665.0383 296.8795 670.8983 286.1295 670.8983 275.3895C670.8983 253.4195 651.3683 239.2595 631.3483 239.2595C618.6483 239.2595 606.4483 247.0695 597.1683 261.2295L394.5283 586.4295L298.3383 461.9095C286.6183 446.2895 275.8783 442.3795 262.6983 442.3795C241.2083 442.3795 224.6083 459.4695 224.6083 480.9595C224.6083 491.6995 229.0083 501.9495 235.8383 511.2295L354.9783 657.7195C367.1883 673.8295 380.3683 680.6595 396.4883 680.6595Z"/>
</svg>