<?xml version="1.0" encoding="UTF-8" standalone="no"?>
<svg xmlns="http://www.w3.org/2000/svg"
     width="1107.3672103163326" height="1107.3672103163324"
     viewBox="0 0 1107.3672103163326 1107.3672103163324"
     fill="currentColor">
  <path d="M54.7573 661.6849L445.8673 1052.7949C518.1273 1125.0649 589.4173 1125.5549 661.1973 1054.2649L1054.2673 660.7049C1125.5573 589.4249 1125.0673 517.6449 1052.7973 445.3749L662.1773 54.7549C589.9073 -17.5151 518.6173 -18.4851 446.8473 53.2849L53.2873 446.3549C-18.4927 518.1349 -17.5127 589.4249 54.7573 661.6849ZM111.3973 607.4849C76.7273 572.3349 75.7473 535.7049 111.8773 499.5749L499.5773 111.8849C535.7073 75.7449 572.3273 76.2349 607.4873 111.3949L996.1573 500.0649C1030.8273 534.7349 1031.8073 571.8449 995.6673 607.9749L607.9773 995.6749C571.8473 1031.8049 534.2473 1030.8249 500.0673 996.6449ZM500.5573 785.7049C516.6673 785.7049 530.3373 777.8949 539.6173 762.7649L763.2473 411.6849C768.6173 401.9249 774.9673 391.1749 774.9673 380.4349C774.9673 358.4649 755.4373 344.3049 734.9273 344.3049C722.2373 344.3049 710.0273 352.1149 701.2373 366.2749L498.5973 691.4749L401.9173 566.9549C390.6873 551.3349 379.4573 547.4249 366.2773 547.4249C344.7873 547.4249 328.6773 564.5149 328.6773 586.0049C328.6773 596.7449 332.5873 606.9949 339.9073 616.2749L458.5573 762.7649C471.2573 778.8749 483.9473 785.7049 500.5573 785.7049Z"/>
</svg>