<?xml version="1.0" encoding="UTF-8" standalone="no"?>
<svg xmlns="http://www.w3.org/2000/svg"
     width="898.92578125" height="898.92578125"
     viewBox="0 0 898.92578125 898.92578125"
     fill="currentColor">
  <path d="M153.3183 898.9295H745.6083C848.1483 898.9295 898.9283 848.1495 898.9283 747.5595V151.3695C898.9283 50.7795 848.1483 -0.0005 745.6083 -0.0005H153.3183C51.2683 -0.0005 -0.0017 50.2895 -0.0017 151.3695V747.5595C-0.0017 848.6295 51.2683 898.9295 153.3183 898.9295ZM395.0183 687.4995C378.4183 687.4995 364.7483 680.6595 352.0483 663.5695L229.4883 513.1795C222.1683 503.4195 217.7783 492.6795 217.7783 481.4495C217.7783 459.4695 234.8683 441.4095 257.3283 441.4095C270.9983 441.4095 281.7383 445.7995 293.9483 461.9095L393.0683 589.8395L601.5583 254.8795C610.8383 240.2295 623.5383 232.4195 636.7183 232.4195C657.7183 232.4195 677.7383 247.0695 677.7383 270.0195C677.7383 280.7595 671.8783 291.9895 665.5283 302.2495L436.0383 663.5695C425.7783 679.6895 411.6183 687.4995 395.0183 687.4995Z"/>
</svg>