<?xml version="1.0" encoding="UTF-8" standalone="no"?>
<svg xmlns="http://www.w3.org/2000/svg"
     width="1107.421875" height="1018.06640625"
     viewBox="0 0 1107.421875 1018.06640625"
     fill="currentColor">
  <path d="M193.3577 1018.0681C251.9577 1018.0681 397.9477 954.0981 480.9577 894.5281C489.2577 888.6681 496.0977 886.2281 502.9277 886.2281C509.2777 886.7181 515.6277 887.2081 521.9777 887.2081C874.0277 887.2081 1107.4177 687.0081 1107.4177 443.8481C1107.4177 198.2381 861.3277 -0.0019 553.7077 -0.0019C246.0977 -0.0019 -0.0023 198.2381 -0.0023 443.8481C-0.0023 600.0981 96.1877 737.3081 252.9277 821.2881C260.2577 825.1981 262.6977 832.5181 258.7877 839.8481C231.4477 884.7681 182.6177 938.4781 164.0577 962.8881C145.0177 987.3081 155.7577 1018.0681 193.3577 1018.0681ZM499.0277 687.0081C482.4177 687.0081 468.7477 680.6681 456.0577 663.5781L333.4977 513.1881C326.1677 503.4181 321.7777 492.1881 321.7777 481.4481C321.7777 458.9881 338.8677 440.9181 361.3277 440.9181C374.9977 440.9181 385.7377 445.7981 397.9477 461.9181L497.0677 589.3581L705.5677 254.8781C714.8477 239.7481 727.5377 232.4181 740.7277 232.4181C761.7177 232.4181 781.7377 247.0681 781.7377 269.5281C781.7377 280.2781 775.3877 291.9881 769.5277 301.7581L540.0377 663.5781C529.7877 679.1981 515.6277 687.0081 499.0277 687.0081Z"/>
</svg>