<?xml version="1.0" encoding="UTF-8" standalone="no"?>
<svg xmlns="http://www.w3.org/2000/svg"
     width="1151.3671875" height="898.92578125"
     viewBox="0 0 1151.3671875 898.92578125"
     fill="currentColor">
  <path d="M153.3183 898.9278H998.0483C1100.5883 898.9278 1151.3683 848.6378 1151.3683 748.0478V151.3678C1151.3683 50.7778 1100.5883 -0.0022 998.0483 -0.0022H153.3183C51.2683 -0.0022 -0.0017 50.7778 -0.0017 151.3678V748.0478C-0.0017 848.6378 51.2683 898.9278 153.3183 898.9278ZM78.6183 449.7078H276.8583V263.6678H78.6183V155.7578C78.6183 104.9778 105.4683 78.6178 154.2983 78.6178H276.8583V263.6678H477.0483V78.6178H674.3183V263.6678H874.5083V78.6178H997.0683C1045.4083 78.6178 1072.7583 104.9778 1072.7583 155.7578V263.6678H874.5083V449.7078H1072.7583V634.7678H874.5083V820.3078H276.8583V634.7678H78.6183ZM477.0483 449.7078H674.3183V263.6678H477.0483ZM276.8583 634.7678H477.0483V449.7078H276.8583ZM674.3183 634.7678H874.5083V449.7078H674.3183ZM477.0483 820.3078H674.3183V634.7678H477.0483Z"/>
</svg>