<?xml version="1.0" encoding="UTF-8" standalone="no"?>
<svg xmlns="http://www.w3.org/2000/svg"
     width="1108.7650103031888" height="1109.2532915531888"
     viewBox="0 0 1108.7650103031888 1109.2532915531888"
     fill="currentColor">
  <path d="M258.7268 977.9688H364.1968C374.4468 977.9688 381.7768 980.8988 389.0968 988.2188L464.2968 1062.9288C525.8168 1124.9388 582.9468 1124.4488 644.4668 1062.9288L719.6668 988.2188C726.9868 980.8988 734.3168 977.9688 744.5668 977.9688H850.0368C937.4368 977.9688 977.9668 937.9288 977.9668 850.0388V744.5688C977.9668 734.3188 980.8968 727.4788 988.2168 719.6688L1062.4368 644.4688C1124.4468 582.9488 1123.9668 526.3088 1062.4368 464.2988L988.2168 389.0988C980.8968 381.7788 977.9668 374.4488 977.9668 364.6888V258.7288C977.9668 171.8188 937.9268 130.7988 850.0368 130.7988H744.5668C734.3168 130.7988 726.9868 128.3588 719.6668 121.0288L644.4668 46.3288C582.9468 -15.6812 525.8168 -15.2012 464.2968 46.3288L389.0968 121.0288C381.7768 128.3588 374.4468 130.7988 364.1968 130.7988H258.7268C171.3268 130.7988 130.7968 170.8388 130.7968 258.7288V364.6888C130.7968 374.4488 128.3568 381.7788 121.0368 389.0988L46.3268 464.2988C-15.6832 526.3088 -15.1932 582.9488 46.3268 644.4688L121.0368 719.6688C128.3568 727.4788 130.7968 734.3188 130.7968 744.5688V850.0388C130.7968 937.4388 171.3268 977.9688 258.7268 977.9688ZM258.7268 900.3288C215.2668 900.3288 208.4368 893.4888 208.4368 850.0388V718.6888C208.4368 704.0388 204.0368 692.8088 193.2968 682.0688L101.0168 590.2688C70.2468 559.0188 70.2468 550.2288 101.0168 518.9788L193.2968 427.1888C204.0368 416.4388 208.4368 405.2088 208.4368 390.0788V258.7288C208.4368 214.7788 214.7868 208.4388 258.7268 208.4388H390.0768C405.2168 208.4388 416.4468 204.5288 427.1868 193.2988L518.9868 101.0088C550.2368 70.2488 559.0168 70.2488 589.7868 101.0088L682.0668 193.2988C692.3268 204.5288 704.0368 208.4388 718.6868 208.4388H850.0368C893.4968 208.4388 900.3268 215.2688 900.3268 258.7288V390.0788C900.3268 405.2088 905.2168 416.4388 915.9568 427.1888L1008.2368 518.9788C1038.9968 550.2288 1038.9968 559.0188 1008.2368 590.2688L915.9568 682.0688C905.2168 692.8088 900.3268 704.0388 900.3268 718.6888V850.0388C900.3268 893.4888 893.4968 900.3288 850.0368 900.3288H718.6868C704.0368 900.3288 692.3268 904.7288 682.0668 915.9588L589.7868 1008.2388C559.0168 1038.9988 550.2368 1038.9988 518.9868 1008.2388L427.1868 915.9588C416.4468 904.7288 405.2168 900.3288 390.0768 900.3288ZM501.4068 786.0688C517.5168 786.0688 531.1868 778.2588 540.9568 763.6088L764.0968 412.0488C769.4668 402.7688 775.8168 392.0288 775.8168 380.7988C775.8168 359.3188 756.2868 345.1588 736.2668 345.1588C723.5768 345.1588 711.3668 352.4788 702.0868 367.1288L499.4468 692.3188L403.2568 567.8088C391.5368 552.1888 380.7968 547.7888 367.6168 547.7888C346.1268 547.7888 329.5268 564.8788 329.5268 586.8488C329.5268 597.1088 333.9268 607.8488 340.7568 617.1288L459.8968 763.6088C472.1068 779.7288 485.2868 786.0688 501.4068 786.0688Z"/>
</svg>