<?xml version="1.0" encoding="UTF-8" standalone="no"?>
<svg xmlns="http://www.w3.org/2000/svg"
     width="996.09375" height="996.09375"
     viewBox="0 0 996.09375 996.09375"
     fill="currentColor">
  <path d="M498.0477 996.0959C770.5077 996.0959 996.0977 770.0159 996.0977 498.0459C996.0977 225.5859 770.0177 -0.0041 497.5577 -0.0041C225.5877 -0.0041 -0.0023 225.5859 -0.0023 498.0459C-0.0023 770.0159 226.0777 996.0959 498.0477 996.0959ZM443.3577 736.8159C426.7577 736.8159 413.0877 729.9759 400.3877 712.8859L277.8277 562.4959C270.5077 552.7359 266.1177 541.9959 266.1177 530.7659C266.1177 508.7859 283.2077 490.7259 305.1777 490.7259C319.3377 490.7259 330.0777 495.1159 342.2877 511.2259L441.4077 639.1559L649.8977 304.1959C659.1777 289.5459 671.8777 281.7359 684.5677 281.7359C706.0577 281.7359 726.0777 296.3859 726.0777 319.3359C726.0777 330.0759 719.7277 341.3059 713.8677 351.5659L484.3777 712.8859C474.1177 729.0059 459.9577 736.8159 443.3577 736.8159Z"/>
</svg>