<?xml version="1.0" encoding="UTF-8" standalone="no"?>
<svg xmlns="http://www.w3.org/2000/svg"
     width="1107.3672103163326" height="1107.3672103163324"
     viewBox="0 0 1107.3672103163326 1107.3672103163324"
     fill="currentColor">
  <path d="M54.7573 661.6849L445.8673 1052.7949C518.1273 1125.0649 589.4173 1125.5549 661.1973 1054.2649L1054.2673 660.7049C1125.5573 589.4249 1125.0673 517.6449 1052.7973 445.3749L662.1773 54.7549C589.9073 -17.5151 518.6173 -18.4851 446.8473 53.2849L53.2873 446.3549C-18.4927 518.1349 -17.5127 589.4249 54.7573 661.6849ZM499.0873 792.5449C481.9973 792.5449 468.8173 785.7049 455.6273 768.6149L333.5573 618.2249C325.7473 608.4649 321.8473 597.7249 321.8473 586.4949C321.8473 564.5149 338.4473 546.4549 360.9073 546.4549C374.5773 546.4549 385.8073 550.8449 397.5273 566.9549L497.1373 694.8849L705.6273 359.9249C714.4173 345.2749 727.1173 337.4649 740.2973 337.4649C761.7873 337.4649 781.8073 352.1149 781.8073 375.0649C781.8073 385.8049 775.4573 397.0349 769.5973 407.2949L539.6173 768.6149C529.8473 784.7349 515.6873 792.5449 499.0873 792.5449Z"/>
</svg>