<?xml version="1.0" encoding="UTF-8" standalone="no"?>
<svg xmlns="http://www.w3.org/2000/svg"
     width="841.30859375" height="834.47265625"
     viewBox="0 0 841.30859375 834.47265625"
     fill="currentColor">
  <path d="M318.3583 834.4694C339.3583 834.4694 355.9583 825.1994 367.6783 807.1294L829.0983 80.5694C837.8883 66.4094 841.3083 55.6594 841.3083 44.4294C841.3083 17.5794 823.7283 -0.0006 796.8783 -0.0006C777.3483 -0.0006 766.5983 6.3494 754.8783 24.8994L316.4083 723.6294L88.8683 425.7794C76.6583 408.6894 64.4483 401.8594 46.8783 401.8594C19.0383 401.8594 -0.0017 420.8994 -0.0017 447.7494C-0.0017 458.9794 4.8783 471.6794 14.1583 483.3994L267.5783 806.1494C282.2283 825.1994 297.3683 834.4694 318.3583 834.4694Z"/>
</svg>