<?xml version="1.0" encoding="UTF-8" standalone="no"?>
<svg xmlns="http://www.w3.org/2000/svg"
     width="821.2890625" height="1046.875"
     viewBox="0 0 821.2890625 1046.875"
     fill="currentColor">
  <path d="M-0.0017 894.0466C-0.0017 996.0966 50.2883 1046.8766 151.3683 1046.8766H669.9183C770.9983 1046.8766 821.2883 996.0966 821.2883 894.0466V153.3166C821.2883 51.7566 770.9983 -0.0034 669.9183 -0.0034H151.3683C50.2883 -0.0034 -0.0017 51.7566 -0.0017 153.3166ZM78.6183 892.5766V154.7866C78.6183 105.9566 104.4883 78.6166 155.2783 78.6166H666.0183C716.7983 78.6166 742.6783 105.9566 742.6783 154.7866V892.5766C742.6783 941.4066 716.7983 968.2666 666.0183 968.2666H155.2783C104.4883 968.2666 78.6183 941.4066 78.6183 892.5766ZM357.9083 755.3666C374.0283 755.3666 387.6983 747.5566 396.9683 732.4266L620.1183 381.3466C625.9783 371.5866 632.3283 360.8366 632.3283 350.0966C632.3283 328.1266 612.7883 313.9666 592.2883 313.9666C579.5883 313.9666 567.3783 321.7766 558.5983 335.9366L355.4683 661.1366L259.2783 536.6166C248.0483 520.9966 236.8183 517.0866 223.6283 517.0866C202.1483 517.0866 186.0383 534.1766 186.0383 555.6666C186.0383 566.4066 189.9383 576.6566 196.7783 585.9366L315.9183 732.4266C328.6183 748.5366 341.3083 755.3666 357.9083 755.3666Z"/>
</svg>