<?xml version="1.0" encoding="UTF-8" standalone="no"?>
<svg xmlns="http://www.w3.org/2000/svg"
     width="996.09375" height="996.09375"
     viewBox="0 0 996.09375 996.09375"
     fill="currentColor">
  <path d="M498.0477 996.0959C770.5077 996.0959 996.0977 770.0159 996.0977 498.0459C996.0977 225.5859 770.0177 -0.0041 497.5577 -0.0041C225.5877 -0.0041 -0.0023 225.5859 -0.0023 498.0459C-0.0023 770.0159 226.0777 996.0959 498.0477 996.0959ZM498.0477 913.0859C267.5777 913.0859 83.4977 728.5159 83.4977 498.0459C83.4977 267.5759 267.0877 83.0059 497.5577 83.0059C728.0277 83.0059 913.0877 267.5759 913.0877 498.0459C913.0877 728.5159 728.5177 913.0859 498.0477 913.0859ZM546.3877 655.2759L737.7977 452.1459C752.4377 436.5259 752.9277 414.0659 739.2577 400.3859C724.1177 385.2559 700.6877 384.7659 687.0077 399.4159L498.0477 599.6059L309.0777 399.4159C294.9177 384.7659 270.9977 384.7659 256.3477 400.3859C243.1677 414.5459 243.6477 436.5259 257.8077 452.1459L449.7077 655.2759C479.9777 687.9859 515.6277 687.9859 546.3877 655.2759Z"/>
</svg>