<?xml version="1.0" encoding="UTF-8" standalone="no"?>
<svg xmlns="http://www.w3.org/2000/svg"
     width="898.92578125" height="898.92578125"
     viewBox="0 0 898.92578125 898.92578125"
     fill="currentColor">
  <path d="M153.3183 898.9295H745.6083C848.1483 898.9295 898.9283 848.1495 898.9283 747.5595V151.3695C898.9283 50.7795 848.1483 -0.0005 745.6083 -0.0005H153.3183C51.2683 -0.0005 -0.0017 50.2895 -0.0017 151.3695V747.5595C-0.0017 848.6295 51.2683 898.9295 153.3183 898.9295ZM500.4883 609.8595C468.7483 643.5595 432.1283 643.5595 400.3883 609.8595L203.1283 400.3895C187.4983 384.2795 187.4983 361.3295 201.1683 346.6795C216.7983 330.5695 241.2083 330.5695 255.3683 345.6995L450.6883 552.2495L645.5083 345.6995C659.6683 330.5695 683.5983 331.0595 699.7083 346.6795C713.8683 360.8395 713.3783 384.2795 697.7583 400.3895Z"/>
</svg>