<?xml version="1.0" encoding="UTF-8" standalone="no"?>
<svg xmlns="http://www.w3.org/2000/svg"
     width="914.0625" height="848.14453125"
     viewBox="0 0 914.0625 848.14453125"
     fill="currentColor">
  <path d="M44.4383 848.1455C57.1283 848.1455 67.8683 843.2655 76.6583 834.9655L463.3783 457.0355C472.6583 447.7555 477.5383 436.5255 477.5383 424.3155C477.5383 411.6255 472.6583 399.4155 463.3783 391.6055L76.1683 13.1855C67.8683 4.8855 57.1283 -0.0045 44.4383 -0.0045C19.0383 -0.0045 -0.0017 19.5355 -0.0017 44.9255C-0.0017 56.6455 4.8783 68.3555 12.6983 76.6555L368.1683 424.3155L12.6983 771.9755C4.8783 780.2755 -0.0017 791.5055 -0.0017 803.7155C-0.0017 829.1055 19.0383 848.1455 44.4383 848.1455ZM480.9583 848.1455C493.6483 848.1455 504.3983 843.2655 512.6983 834.9655L899.4183 457.0355C908.6883 447.7555 914.0583 436.5255 914.0583 424.3155C914.0583 411.6255 908.6883 399.4155 899.4183 391.6055L512.6983 13.1855C503.9083 4.8855 493.6483 -0.0045 480.9583 -0.0045C455.5683 -0.0045 436.0383 19.5355 436.0383 44.9255C436.0383 56.6455 441.4083 68.3555 449.2183 76.6555L804.6883 424.3155L449.2183 771.9755C441.4083 780.2755 436.0383 791.5055 436.0383 803.7155C436.0383 829.1055 455.5683 848.1455 480.9583 848.1455Z"/>
</svg>