<?xml version="1.0" encoding="UTF-8" standalone="no"?>
<svg xmlns="http://www.w3.org/2000/svg"
     width="898.92578125" height="898.92578125"
     viewBox="0 0 898.92578125 898.92578125"
     fill="currentColor">
  <path d="M153.3183 898.9295H745.6083C848.1483 898.9295 898.9283 848.1495 898.9283 747.5595V151.3695C898.9283 50.7795 848.1483 -0.0005 745.6083 -0.0005H153.3183C51.2683 -0.0005 -0.0017 50.2895 -0.0017 151.3695V747.5595C-0.0017 848.6295 51.2683 898.9295 153.3183 898.9295ZM201.1683 566.4095C187.0083 552.7295 187.4983 528.8095 203.1283 513.1795L399.8983 303.2195C431.6383 270.0195 468.2583 270.0195 500.4883 303.2195L697.2683 513.1795C712.8883 528.8095 713.3783 552.7295 699.2183 566.4095C683.5983 582.5195 659.1783 582.5195 645.0183 567.3795L450.1983 360.8395L255.3683 567.3795C240.7183 582.5195 216.7983 582.5195 201.1683 566.4095Z"/>
</svg>