<?xml version="1.0" encoding="UTF-8" standalone="no"?>
<svg xmlns="http://www.w3.org/2000/svg"
     width="898.92578125" height="898.92578125"
     viewBox="0 0 898.92578125 898.92578125"
     fill="currentColor">
  <path d="M153.3183 898.9295H745.6083C848.1483 898.9295 898.9283 848.1495 898.9283 747.5595V151.3695C898.9283 50.7795 848.1483 -0.0005 745.6083 -0.0005H153.3183C51.2683 -0.0005 -0.0017 50.2895 -0.0017 151.3695V747.5595C-0.0017 848.6295 51.2683 898.9295 153.3183 898.9295ZM154.2983 820.3095C105.4683 820.3095 78.6183 794.4295 78.6183 743.6495V155.2695C78.6183 104.4895 105.4683 78.6095 154.2983 78.6095H744.6283C792.9683 78.6095 820.3083 104.4895 820.3083 155.2695V743.6495C820.3083 794.4295 792.9683 820.3095 744.6283 820.3095ZM338.8683 690.4295C351.5583 702.6395 376.9483 701.6595 390.6283 688.9695L593.7483 497.0695C621.5783 471.6795 621.5783 426.7595 593.7483 401.3695L390.6283 209.4695C375.4883 195.3095 353.0283 194.8195 339.3583 208.0095C324.2183 222.1695 323.7283 246.5795 338.3783 260.2495L539.0583 448.7295L338.3783 638.1795C324.2183 651.8595 323.7283 675.2895 338.8683 690.4295Z"/>
</svg>