<?xml version="1.0" encoding="UTF-8" standalone="no"?>
<svg xmlns="http://www.w3.org/2000/svg"
     width="848.14453125" height="477.5390625"
     viewBox="0 0 848.14453125 477.5390625"
     fill="currentColor">
  <path d="M424.3183 477.5342C436.5283 477.5342 448.7283 472.6542 457.0283 463.3742L834.9583 76.1742C843.2583 67.8742 848.1483 57.1242 848.1483 44.9242C848.1483 19.5342 829.0983 0.0042 803.7083 0.0042C791.5083 0.0042 780.2783 4.8842 771.9683 12.6942L424.3183 368.1642L76.1683 12.6942C68.3583 4.8842 57.1283 0.0042 44.4383 0.0042C19.0383 0.0042 -0.0017 19.5342 -0.0017 44.9242C-0.0017 57.1242 4.8783 67.8742 13.1883 76.6642L391.1183 463.3742C400.3883 472.6542 411.6183 477.5342 424.3183 477.5342Z"/>
</svg>