<?xml version="1.0" encoding="UTF-8" standalone="no"?>
<svg xmlns="http://www.w3.org/2000/svg"
     width="1368.65234375" height="924.1999397482604"
     viewBox="0 0 1368.65234375 924.1999397482604"
     fill="currentColor">
  <path d="M550.7783 922.4899C576.6583 929.3199 600.0983 915.1599 607.9083 889.2899L851.0783 55.7899C857.9083 32.3499 846.6783 8.9099 820.7983 2.0799C795.4083 -4.7601 773.4383 5.0099 764.6483 35.2799L522.9483 864.3799C515.1383 890.7499 523.4383 915.1599 550.7783 922.4899ZM1368.6483 461.5499C1368.6483 447.8799 1363.2783 434.6999 1352.0483 424.4399L1025.8783 130.4999C1004.8783 111.9399 978.0283 111.9399 960.9383 130.9799C943.8483 150.0299 946.2883 177.8599 965.8183 195.4399L1259.7683 461.5499L965.8183 727.6599C946.2883 745.2399 943.8483 772.5899 960.9383 792.1199C978.0283 811.1599 1004.8783 811.1599 1025.8783 792.6099L1352.0483 498.1699C1363.2783 488.4099 1368.6483 475.2199 1368.6483 461.5499ZM-0.0017 461.5499C-0.0017 475.2199 5.8583 488.4099 17.0883 498.1699L343.2583 792.6099C363.7683 811.1599 391.1183 811.1599 408.1983 792.1199C425.2883 772.5899 422.3683 745.2399 402.8283 727.6599L109.3783 461.5499L402.8283 195.4399C422.3683 177.8599 425.2883 150.0299 408.1983 130.9799C391.1183 111.9399 363.7683 111.9399 343.2583 130.4999L17.0883 424.4399C5.8583 434.6999 -0.0017 447.8799 -0.0017 461.5499Z"/>
</svg>