<?xml version="1.0" encoding="UTF-8" standalone="no"?>
<svg xmlns="http://www.w3.org/2000/svg"
     width="996.09375" height="996.09375"
     viewBox="0 0 996.09375 996.09375"
     fill="currentColor">
  <path d="M498.0477 996.0959C770.5077 996.0959 996.0977 770.0159 996.0977 498.0459C996.0977 225.5859 770.0177 -0.0041 497.5577 -0.0041C225.5877 -0.0041 -0.0023 225.5859 -0.0023 498.0459C-0.0023 770.0159 226.0777 996.0959 498.0477 996.0959ZM498.0477 913.0859C267.5777 913.0859 83.4977 728.5159 83.4977 498.0459C83.4977 267.5759 267.0877 83.0059 497.5577 83.0059C728.0277 83.0059 913.0877 267.5759 913.0877 498.0459C913.0877 728.5159 728.5177 913.0859 498.0477 913.0859ZM386.7177 739.7459C399.4177 751.9559 424.8077 750.9759 438.4777 738.2859L641.5977 546.3859C669.4377 520.9959 669.4377 476.0759 641.5977 450.6859L438.4777 258.7859C423.3377 244.6259 400.8777 244.1359 387.2077 257.3259C371.5777 271.4859 371.0977 295.8959 386.2277 309.5659L586.9177 498.0459L386.2277 687.4959C371.5777 701.1759 371.5777 724.6059 386.7177 739.7459Z"/>
</svg>