<?xml version="1.0" encoding="UTF-8" standalone="no"?>
<svg xmlns="http://www.w3.org/2000/svg"
     width="898.92578125" height="898.92578125"
     viewBox="0 0 898.92578125 898.92578125"
     fill="currentColor">
  <path d="M153.3183 898.9295H745.6083C848.1483 898.9295 898.9283 848.1495 898.9283 747.5595V151.3695C898.9283 50.7795 848.1483 -0.0005 745.6083 -0.0005H153.3183C51.2683 -0.0005 -0.0017 50.2895 -0.0017 151.3695V747.5595C-0.0017 848.6295 51.2683 898.9295 153.3183 898.9295ZM334.4683 698.2395C318.8483 682.6195 318.8483 658.1995 333.9883 644.0395L541.0183 449.2195L333.9883 254.8795C318.3583 240.2295 318.8483 215.3295 334.9583 200.6795C349.1183 186.5195 372.5583 187.9895 388.1883 202.6395L597.6583 399.4095C626.4683 426.2695 626.4683 472.6595 597.6583 499.0195L388.1883 696.2895C374.0283 709.9595 347.6583 710.9395 334.4683 698.2395Z"/>
</svg>