<?xml version="1.0" encoding="UTF-8" standalone="no"?>
<svg xmlns="http://www.w3.org/2000/svg"
     width="477.5390625" height="847.65625"
     viewBox="0 0 477.5390625 847.65625"
     fill="currentColor">
  <path d="M0 423.8272C0 436.0372 4.39 446.7772 13.67 456.0572L400.88 834.4772C409.18 843.2572 419.92 847.6572 432.62 847.6572C458.01 847.6572 477.54 828.6172 477.54 803.2272C477.54 790.5272 472.17 779.7872 464.36 771.4872L108.89 423.8272L464.36 76.1672C472.17 67.8672 477.54 56.6372 477.54 44.4372C477.54 19.0472 458.01 -0.0028 432.62 -0.0028C419.92 -0.0028 409.18 4.3972 400.88 12.6972L13.67 391.5972C4.39 400.3872 0 411.6172 0 423.8272Z"/>
</svg>