<?xml version="1.0" encoding="UTF-8" standalone="no"?>
<svg xmlns="http://www.w3.org/2000/svg"
     width="477.5390625" height="847.65625"
     viewBox="0 0 477.5390625 847.65625"
     fill="currentColor">
  <path d="M477.5383 423.8272C477.5383 411.6172 472.6583 400.3872 463.3783 391.5972L76.6583 12.6972C67.8683 4.3972 57.1283 -0.0028 44.4383 -0.0028C19.5283 -0.0028 -0.0017 19.0472 -0.0017 44.4372C-0.0017 56.6372 4.8783 67.8672 12.6983 76.1672L368.1683 423.8272L12.6983 771.4872C4.8783 779.7872 -0.0017 790.5272 -0.0017 803.2272C-0.0017 828.6172 19.5283 847.6572 44.4383 847.6572C57.1283 847.6572 67.8683 843.2572 76.6583 834.4772L463.3783 456.0572C472.6583 446.7772 477.5383 436.0372 477.5383 423.8272Z"/>
</svg>