<?xml version="1.0" encoding="UTF-8" standalone="no"?>
<svg xmlns="http://www.w3.org/2000/svg"
     width="563.96484375" height="848.6328125"
     viewBox="0 0 563.96484375 848.6328125"
     fill="currentColor">
  <path d="M87.3983 806.1555V434.5655C89.3583 442.8755 93.7483 450.6855 100.5883 457.0355L487.3083 834.9655C496.0983 844.2355 506.3483 848.6355 519.0383 848.6355C544.4383 848.6355 563.9683 829.1055 563.9683 803.7155C563.9683 791.5055 559.5683 780.7655 550.7783 771.9755L195.3083 424.3155L550.7783 76.6555C559.5683 68.3555 563.9683 57.1255 563.9683 44.9255C563.9683 19.0455 544.4383 -0.0045 519.5283 -0.0045C506.3483 -0.0045 496.5783 4.8855 487.3083 13.1855L100.0983 391.6055C93.7483 397.9455 89.3583 405.2755 87.3983 413.5755V43.4555C87.3983 18.0655 69.3383 -0.0045 43.4583 -0.0045C18.0683 -0.0045 -0.0017 18.0655 -0.0017 43.4555V806.1555C-0.0017 831.0555 18.0683 848.6355 43.4583 848.6355C69.3383 848.6355 87.3983 831.0555 87.3983 806.1555Z"/>
</svg>