<?xml version="1.0" encoding="UTF-8" standalone="no"?>
<svg xmlns="http://www.w3.org/2000/svg"
     width="996.09375" height="996.09375"
     viewBox="0 0 996.09375 996.09375"
     fill="currentColor">
  <path d="M498.0477 996.0959C770.5077 996.0959 996.0977 770.0159 996.0977 498.0459C996.0977 225.5859 770.0177 -0.0041 497.5577 -0.0041C225.5877 -0.0041 -0.0023 225.5859 -0.0023 498.0459C-0.0023 770.0159 226.0777 996.0959 498.0477 996.0959ZM548.8277 659.1759C517.0877 692.8759 480.4677 692.8759 448.7277 659.1759L251.4677 449.7059C235.8377 433.5959 235.8377 410.6459 249.5077 395.9959C265.1377 379.8859 289.5477 379.8859 303.7077 395.0159L498.5377 601.5659L693.3577 395.0159C708.0077 379.8859 731.9377 380.3759 748.0477 395.9959C762.2077 410.1559 761.2277 433.5959 746.0977 449.7059Z"/>
</svg>