<?xml version="1.0" encoding="UTF-8" standalone="no"?>
<svg xmlns="http://www.w3.org/2000/svg"
     width="750.9765625" height="864.2578125"
     viewBox="0 0 750.9765625 864.2578125"
     fill="currentColor">
  <path d="M375.4883 0.0025C364.2583 0.0025 354.0083 4.3925 342.2883 14.1625L13.1883 281.2525C4.8783 288.5725 -0.0017 298.8325 -0.0017 313.4725C-0.0017 338.8625 19.0383 357.9125 44.4383 357.9125C55.1783 357.9125 65.4283 354.0025 77.1483 345.2125L375.4883 102.0525L673.8283 345.2125C685.0583 354.0025 695.7983 357.9125 706.0583 357.9125C731.9383 357.9125 750.9783 338.8625 750.9783 313.4725C750.9783 298.8325 746.0983 288.5725 737.7883 281.2525L408.6883 13.6725C396.9683 4.3925 386.2283 0.0025 375.4883 0.0025ZM375.4883 864.2625C386.2283 864.2625 396.9683 859.8625 408.6883 850.5825L737.7883 583.0125C746.0983 575.6825 750.9783 565.4325 750.9783 550.7825C750.9783 525.3925 731.9383 505.8625 706.0583 505.8625C695.7983 505.8625 685.0583 510.2525 673.8283 519.0425L375.4883 762.2025L77.1483 519.0425C65.4283 510.2525 55.1783 505.8625 44.4383 505.8625C19.0383 505.8625 -0.0017 525.3925 -0.0017 550.7825C-0.0017 565.4325 4.8783 575.6825 13.1883 583.0125L342.2883 850.1025C354.0083 859.8625 364.2583 864.2625 375.4883 864.2625Z"/>
</svg>