<?xml version="1.0" encoding="UTF-8" standalone="no"?>
<svg xmlns="http://www.w3.org/2000/svg"
     width="914.0625" height="848.14453125"
     viewBox="0 0 914.0625 848.14453125"
     fill="currentColor">
  <path d="M401.3683 834.9655C409.6683 843.2655 420.4083 848.1455 433.1083 848.1455C458.4983 848.1455 477.5383 829.1055 477.5383 803.7155C477.5383 791.5055 472.6583 780.2755 464.8483 771.9755L109.3783 424.3155L464.8483 76.6555C472.6583 68.3555 477.5383 56.6455 477.5383 44.9255C477.5383 19.5355 458.4983 -0.0045 433.1083 -0.0045C420.4083 -0.0045 409.6683 4.8855 401.3683 13.1855L14.6483 391.6055C5.3683 399.4155 -0.0017 411.6255 -0.0017 424.3155C-0.0017 436.5255 4.8783 447.7555 14.1583 457.0355ZM837.3983 834.9655C845.6983 843.2655 856.9383 848.1455 869.1383 848.1455C894.5283 848.1455 914.0583 829.1055 914.0583 803.7155C914.0583 791.5055 908.6883 780.2755 900.8783 771.9755L545.8983 424.3155L900.8783 76.6555C908.6883 68.3555 914.0583 56.6455 914.0583 44.9255C914.0583 19.5355 894.5283 -0.0045 869.1383 -0.0045C856.9383 -0.0045 846.1883 4.8855 837.3983 13.1855L450.6883 391.6055C441.4083 399.4155 436.0383 411.6255 436.0383 424.3155C436.0383 436.5255 441.4083 447.7555 450.6883 457.0355Z"/>
</svg>