<?xml version="1.0" encoding="UTF-8" standalone="no"?>
<svg xmlns="http://www.w3.org/2000/svg"
     width="1135.25390625" height="1157.71484375"
     viewBox="0 0 1135.25390625 1157.71484375"
     fill="currentColor">
  <path d="M567.3877 425.2906C684.0777 425.2906 780.2777 329.1006 780.2777 212.4006C780.2777 95.7006 684.0777 0.0006 567.3877 0.0006C450.1977 0.0006 354.4877 95.7006 354.4877 212.4006C354.4877 329.1006 450.1977 425.2906 567.3877 425.2906ZM212.8877 791.5006C329.5877 791.5006 425.7777 695.3106 425.7777 578.6106C425.7777 462.4006 329.5877 366.2106 212.8877 366.2106C95.2177 366.2106 -0.0023 462.4006 -0.0023 578.6106C-0.0023 695.3106 95.2177 791.5006 212.8877 791.5006ZM922.8477 791.5006C1039.0577 791.5006 1135.2577 695.3106 1135.2577 578.6106C1135.2577 462.4006 1039.0577 366.2106 922.8477 366.2106C805.1777 366.2106 709.4777 462.4006 709.4777 578.6106C709.4777 695.3106 805.1777 791.5006 922.8477 791.5006ZM567.3877 1157.7106C684.0777 1157.7106 780.2777 1061.5206 780.2777 944.8206C780.2777 828.6106 684.0777 732.4206 567.3877 732.4206C450.1977 732.4206 354.4877 828.6106 354.4877 944.8206C354.4877 1061.5206 450.1977 1157.7106 567.3877 1157.7106Z"/>
</svg>