<?xml version="1.0" encoding="UTF-8" standalone="no"?>
<svg xmlns="http://www.w3.org/2000/svg"
     width="988.76953125" height="943.3621732788072"
     viewBox="0 0 988.76953125 943.3621732788072"
     fill="currentColor">
  <path d="M494.6283 281.2533C571.2883 281.2533 635.2583 217.2833 635.2583 140.6233C635.2583 62.9933 571.2883 -0.4867 494.6283 0.0033C417.4783 0.4933 353.5183 62.9933 353.5183 140.6233C353.5183 217.2833 417.4783 281.2533 494.6283 281.2533ZM848.6283 281.2533C925.7783 281.2533 988.7683 217.2833 988.7683 140.6233C988.7683 62.9933 925.7783 -0.4867 848.6283 0.0033C770.9983 0.4933 708.4983 62.5033 708.4983 140.6233C708.4983 217.2833 771.4883 281.2533 848.6283 281.2533ZM140.1383 280.7633C217.2883 280.7633 280.2783 217.2833 280.2783 141.1133C280.2783 63.9633 217.2883 0.0033 140.1383 0.0033C62.9883 0.0033 -0.0017 63.9633 -0.0017 141.1133C-0.0017 217.2833 62.9883 280.7633 140.1383 280.7633ZM494.6283 612.3033C571.2883 612.3033 635.2583 548.3433 635.2583 471.6833C635.2583 394.5333 571.2883 331.0533 494.6283 331.5433C417.4783 332.0333 353.5183 394.5333 353.5183 471.6833C353.5183 548.3433 417.4783 612.3033 494.6283 612.3033ZM140.1383 612.3033C217.2883 612.3033 280.2783 548.3433 280.2783 471.6833C280.2783 394.5333 216.7983 331.0533 140.1383 331.5433C62.9883 332.0333 -0.0017 394.5333 -0.0017 471.6833C-0.0017 548.3433 62.9883 612.3033 140.1383 612.3033ZM848.6283 612.3033C925.7783 612.3033 988.7683 548.3433 988.7683 471.6833C988.7683 394.5333 925.7783 331.0533 848.6283 331.5433C771.4883 332.0333 708.4983 394.5333 708.4983 471.6833C708.4983 548.3433 771.4883 612.3033 848.6283 612.3033ZM140.1383 943.3633C217.2883 943.3633 280.2783 880.3733 280.2783 802.7333C280.2783 726.0733 216.7983 662.6033 140.1383 662.6033C62.9883 662.6033 -0.0017 725.5933 -0.0017 802.7333C-0.0017 879.3933 62.9883 943.3633 140.1383 943.3633ZM494.6283 943.3633C571.2883 943.3633 635.2583 879.3933 635.2583 802.7333C635.2583 725.5933 571.2883 662.6033 494.6283 662.6033C417.4783 662.6033 353.5183 725.5933 353.5183 802.7333C353.5183 879.3933 417.4783 943.3633 494.6283 943.3633ZM848.6283 943.3633C925.7783 943.3633 988.7683 879.3933 988.7683 802.7333C988.7683 725.5933 925.7783 662.6033 848.6283 662.6033C771.4883 662.6033 708.4983 725.5933 708.4983 802.7333C708.4983 879.3933 771.4883 943.3633 848.6283 943.3633Z"/>
</svg>