<?xml version="1.0" encoding="UTF-8" standalone="no"?>
<svg xmlns="http://www.w3.org/2000/svg"
     width="1042.48046875" height="967.7734375"
     viewBox="0 0 1042.48046875 967.7734375"
     fill="currentColor">
  <path d="M342.2877 325.6858C431.1477 325.6858 505.3677 251.9558 505.3677 163.0858C505.3677 74.2158 431.1477 -0.0042 342.2877 -0.0042C253.4177 -0.0042 179.1977 74.2158 179.1977 163.0858C179.1977 251.9558 253.4177 325.6858 342.2877 325.6858ZM700.1977 325.6858C789.0577 325.6858 863.2777 251.9558 863.2777 163.0858C863.2777 74.2158 789.0577 -0.0042 700.1977 -0.0042C611.3277 -0.0042 537.1077 74.2158 537.1077 163.0858C537.1077 251.9558 611.3277 325.6858 700.1977 325.6858ZM342.2877 247.0658C296.3877 247.0658 257.8077 208.4958 257.8077 163.0858C257.8077 117.1858 296.3877 78.6158 342.2877 78.6158C388.1877 78.6158 426.7577 117.1858 426.7577 163.0858C426.7577 208.4958 388.1877 247.0658 342.2877 247.0658ZM700.1977 247.0658C654.2977 247.0658 615.7277 208.4958 615.7277 163.0858C615.7277 117.1858 654.2977 78.6158 700.1977 78.6158C746.0977 78.6158 784.6677 117.1858 784.6677 163.0858C784.6677 208.4958 746.0977 247.0658 700.1977 247.0658ZM163.0877 646.9758C252.4377 646.9758 326.6577 572.7558 326.6577 483.8858C326.6577 395.0158 252.4377 320.7958 163.0877 320.7958C74.2177 320.7958 -0.0023 395.0158 -0.0023 483.8858C-0.0023 572.7558 74.2177 646.9758 163.0877 646.9758ZM521.4877 646.9758C610.3477 646.9758 684.5677 572.7558 684.5677 483.8858C684.5677 395.0158 610.3477 320.7958 521.4877 320.7958C432.1277 320.7958 357.9077 395.0158 357.9077 483.8858C357.9077 572.7558 432.1277 646.9758 521.4877 646.9758ZM879.3977 646.9758C968.2577 646.9758 1042.4777 572.7558 1042.4777 483.8858C1042.4777 395.0158 968.2577 320.7958 879.3977 320.7958C790.5277 320.7958 715.8177 395.0158 715.8177 483.8858C715.8177 572.7558 790.5277 646.9758 879.3977 646.9758ZM163.0877 568.3558C117.1877 568.3558 78.6177 529.7858 78.6177 483.8858C78.6177 437.9858 117.1877 399.4158 163.0877 399.4158C208.9877 399.4158 248.0477 437.9858 248.0477 483.8858C248.0477 529.7858 208.9877 568.3558 163.0877 568.3558ZM521.4877 568.3558C475.0977 568.3558 436.5277 529.7858 436.5277 483.8858C436.5277 437.9858 475.0977 399.4158 521.4877 399.4158C567.3877 399.4158 605.9577 437.9858 605.9577 483.8858C605.9577 529.7858 567.3877 568.3558 521.4877 568.3558ZM879.3977 568.3558C833.4977 568.3558 794.4377 529.7858 794.4377 483.8858C794.4377 437.9858 833.4977 399.4158 879.3977 399.4158C925.2977 399.4158 963.8677 437.9858 963.8677 483.8858C963.8677 529.7858 925.2977 568.3558 879.3977 568.3558ZM342.2877 967.7758C431.1477 967.7758 505.3677 893.0658 505.3677 804.6858C505.3677 715.3358 431.1477 641.6058 342.2877 641.6058C253.4177 641.6058 179.1977 715.3358 179.1977 804.6858C179.1977 893.5558 253.4177 967.7758 342.2877 967.7758ZM700.1977 967.7758C789.0577 967.7758 863.2777 893.5558 863.2777 804.6858C863.2777 715.3358 789.0577 641.6058 700.1977 641.6058C611.3277 641.6058 537.1077 715.3358 537.1077 804.6858C537.1077 893.5558 611.3277 967.7758 700.1977 967.7758ZM342.2877 889.1558C296.3877 889.1558 257.8077 850.5858 257.8077 804.6858C257.8077 758.7858 296.3877 720.2158 342.2877 720.2158C388.1877 720.2158 426.7577 758.7858 426.7577 804.6858C426.7577 850.5858 388.1877 889.1558 342.2877 889.1558ZM700.1977 889.1558C654.2977 889.1558 615.7277 850.5858 615.7277 804.6858C615.7277 758.7858 654.2977 720.2158 700.1977 720.2158C746.0977 720.2158 784.6677 758.7858 784.6677 804.6858C784.6677 850.5858 746.0977 889.1558 700.1977 889.1558Z"/>
</svg>