<?xml version="1.0" encoding="UTF-8" standalone="no"?>
<svg xmlns="http://www.w3.org/2000/svg"
     width="996.09375" height="996.09375"
     viewBox="0 0 996.09375 996.09375"
     fill="currentColor">
  <path d="M498.0477 996.0959C770.5077 996.0959 996.0977 770.0159 996.0977 498.0459C996.0977 225.5859 770.0177 -0.0041 497.5577 -0.0041C225.5877 -0.0041 -0.0023 225.5859 -0.0023 498.0459C-0.0023 770.0159 226.0777 996.0959 498.0477 996.0959ZM498.0477 913.0859C267.5777 913.0859 83.4977 728.5159 83.4977 498.0459C83.4977 267.5759 267.0877 83.0059 497.5577 83.0059C728.0277 83.0059 913.0877 267.5759 913.0877 498.0459C913.0877 728.5159 728.5177 913.0859 498.0477 913.0859ZM497.5577 760.2559C640.1377 760.2559 759.2777 641.1159 759.2777 498.5359C759.2777 356.4459 639.6477 236.8159 497.5577 236.8159C354.9777 236.8159 236.3277 355.9559 236.3277 498.5359C236.3277 640.6259 355.4677 760.2559 497.5577 760.2559ZM497.5577 684.0859C396.9777 684.0859 312.4977 599.6059 312.4977 498.5359C312.4977 396.9759 395.9977 312.9859 497.5577 312.9859C598.6377 312.9859 682.6177 397.4559 682.6177 498.5359C682.6177 600.0959 599.1177 684.0859 497.5577 684.0859Z"/>
</svg>