<?xml version="1.0" encoding="UTF-8" standalone="no"?>
<svg xmlns="http://www.w3.org/2000/svg"
     width="996.09375" height="996.09375"
     viewBox="0 0 996.09375 996.09375"
     fill="currentColor">
  <path d="M909.1777 776.3659C963.8677 696.7759 996.0977 600.5859 996.0977 498.0459C996.0977 225.5859 770.0177 -0.0041 497.5577 -0.0041C395.0177 -0.0041 299.8077 32.2259 220.2177 86.4259ZM918.9477 973.1459C933.5977 987.7959 958.0077 987.3059 972.1677 972.6559C986.8177 957.5159 986.8177 934.0859 972.1677 919.4359L76.6577 23.4359C62.0077 8.7859 38.0877 8.7859 22.9477 23.4359C8.7877 37.5959 8.7877 62.4959 22.9477 76.6559ZM86.9177 220.2159C31.7377 299.3159 -0.0023 395.5059 -0.0023 498.0459C-0.0023 770.0159 226.0777 996.0959 498.0477 996.0959C600.5877 996.0959 695.3077 963.8659 775.3877 909.6659Z"/>
</svg>