<?xml version="1.0" encoding="UTF-8" standalone="no"?>
<svg xmlns="http://www.w3.org/2000/svg"
     width="1368.1640625" height="996.09375"
     viewBox="0 0 1368.1640625 996.09375"
     fill="currentColor">
  <path d="M-0.0017 498.0459C-0.0017 519.0459 17.0883 537.1059 37.5983 537.1059H187.9883C208.0083 791.5059 425.2883 996.0959 684.5683 996.0959C943.3583 996.0959 1160.6483 791.5059 1180.6683 537.1059H1330.5683C1351.0783 537.1059 1368.1683 519.0459 1368.1683 498.0459C1368.1683 477.0459 1351.0783 459.4759 1330.5683 459.4759H1180.6683C1160.6483 204.5859 943.3583 -0.0041 684.0783 -0.0041C424.8083 -0.0041 208.0083 204.5859 187.9883 459.4759H37.5983C17.0883 459.4759 -0.0017 477.0459 -0.0017 498.0459ZM684.0783 83.0059C901.3683 83.0059 1078.1283 247.5559 1097.6583 459.4759H271.4883C290.5283 247.5559 466.3083 83.0059 684.0783 83.0059ZM684.5683 913.0859C467.2883 913.0859 291.0183 749.0259 271.4883 537.1059H1097.6583C1078.1283 749.0259 901.3683 913.0859 684.5683 913.0859Z"/>
</svg>