<?xml version="1.0" encoding="UTF-8" standalone="no"?>
<svg xmlns="http://www.w3.org/2000/svg"
     width="996.09375" height="996.09375"
     viewBox="0 0 996.09375 996.09375"
     fill="currentColor">
  <path d="M909.1777 775.8759C963.8677 696.2859 996.0977 600.5859 996.0977 498.0459C996.0977 225.5859 770.0177 -0.0041 497.5577 -0.0041C395.0177 -0.0041 299.3177 32.2259 220.2177 86.9159L279.2977 145.5059C341.7977 105.9559 416.5077 83.0059 497.0677 83.0059C727.5377 83.0059 912.5977 267.5759 912.5977 498.0459C912.5977 578.6159 889.6477 653.3159 850.0977 716.7959ZM918.9477 973.1459C933.5977 987.7959 958.0077 987.3059 972.1677 972.6559C986.8177 958.0059 986.8177 934.0859 972.1677 919.4359L76.6577 23.9259C62.0077 9.2759 38.0877 8.7859 22.9477 23.9259C8.7877 38.0859 8.7877 62.4959 22.9477 77.1459ZM716.3077 850.5859C653.3177 890.1359 578.1277 913.0859 497.5577 913.0859C267.0877 913.0859 83.0077 728.5159 83.0077 498.0459C83.0077 417.4759 105.9577 342.2859 145.5077 279.2959L86.9177 220.2159C31.7377 299.3159 -0.0023 395.5059 -0.0023 498.0459C-0.0023 770.0159 226.0777 996.0959 498.0477 996.0959C600.5877 996.0959 695.7977 963.8659 775.3877 909.6659Z"/>
</svg>