<?xml version="1.0" encoding="UTF-8" standalone="no"?>
<svg xmlns="http://www.w3.org/2000/svg"
     width="1151.3671875" height="898.92578125"
     viewBox="0 0 1151.3671875 898.92578125"
     fill="currentColor">
  <path d="M153.3183 898.9278H998.0483C1100.5883 898.9278 1151.3683 848.6378 1151.3683 748.0478V151.3678C1151.3683 50.7778 1100.5883 -0.0022 998.0483 -0.0022H153.3183C51.2683 -0.0022 -0.0017 50.7778 -0.0017 151.3678V748.0478C-0.0017 848.6378 51.2683 898.9278 153.3183 898.9278ZM154.2983 820.3078C105.4683 820.3078 78.6183 794.4378 78.6183 743.6478V155.7578C78.6183 104.9778 105.4683 78.6178 154.2983 78.6178H997.0683C1045.4083 78.6178 1072.7583 104.9778 1072.7583 155.7578V743.6478C1072.7583 794.4378 1045.4083 820.3078 997.0683 820.3078ZM409.6683 234.8678L455.0783 280.2778C480.9583 261.7178 510.2583 249.0278 542.9683 243.6478V180.1778C493.1683 186.0378 447.7583 206.0578 409.6683 234.8678ZM609.3783 180.1778V243.6478C641.5983 249.0278 671.3883 261.7178 696.7783 279.7878L741.6983 235.3478C704.5883 206.0578 658.6883 186.5278 609.3783 180.1778ZM305.6683 416.5078H369.1383C374.5083 383.2978 387.6983 352.5378 407.2283 326.6578L362.7883 281.7378C332.0283 319.8278 311.5283 366.2078 305.6683 416.5078ZM789.5483 282.2278L744.6283 327.1478C763.6683 353.0278 777.3483 383.2978 782.2283 416.5078H845.6983C839.3583 366.2078 819.3383 320.3078 789.5483 282.2278ZM845.6983 483.3978H781.7383C776.3683 515.1378 763.6683 544.9178 745.6083 570.3078L790.5283 615.2378C819.8283 578.1278 839.3583 532.2278 845.6983 483.3978ZM361.3283 616.2078L406.2483 570.7978C387.6983 545.4078 374.9983 515.6278 369.6283 483.3978H305.6683C312.0083 532.7178 331.5383 578.6178 361.3283 616.2078ZM743.1683 662.5978L698.2383 617.6778C672.8483 637.2078 642.5783 650.8778 609.3783 655.2778V719.7278C659.6683 713.3778 706.0583 692.8678 743.1683 662.5978ZM542.9683 719.7278V655.2778C509.7683 650.8778 479.4883 637.2078 453.6183 618.1678L408.1983 663.0878C446.2883 693.3578 492.6783 713.3778 542.9683 719.7278Z"/>
</svg>