<?xml version="1.0" encoding="UTF-8" standalone="no"?>
<svg xmlns="http://www.w3.org/2000/svg"
     width="1279.78515625" height="568.359375"
     viewBox="0 0 1279.78515625 568.359375"
     fill="currentColor">
  <path d="M284.1777 568.3588C439.9377 568.3588 567.8677 440.4288 567.8677 284.1788C567.8677 128.4188 439.9377 -0.0013 284.1777 -0.0013C126.9577 -0.0013 -0.0023 128.4188 -0.0023 284.1788C-0.0023 440.4288 126.9577 568.3588 284.1777 568.3588ZM996.0977 568.3588C1151.8577 568.3588 1279.7877 440.4288 1279.7877 284.1788C1279.7877 128.4188 1151.8577 -0.0013 996.0977 -0.0013C839.3577 -0.0013 711.9177 128.4188 711.9177 284.1788C711.9177 440.4288 839.3577 568.3588 996.0977 568.3588ZM284.1777 489.7488C170.8977 489.7488 78.6177 397.9488 78.6177 284.1788C78.6177 170.8988 170.8977 78.6087 284.1777 78.6087C396.4877 78.6087 489.2577 171.8788 489.2577 284.1788C489.2577 396.9688 396.4877 489.7488 284.1777 489.7488Z"/>
</svg>