<?xml version="1.0" encoding="UTF-8" standalone="no"?>
<svg xmlns="http://www.w3.org/2000/svg"
     width="1013.18359375" height="938.4765625"
     viewBox="0 0 1013.18359375 938.4765625"
     fill="currentColor">
  <path d="M327.6377 296.3873C408.6877 296.3873 476.0777 229.0073 476.0777 148.4373C476.0777 67.3873 408.6877 -0.0027 327.6377 -0.0027C246.5777 -0.0027 179.1977 67.3873 179.1977 148.4373C179.1977 228.5173 246.0977 296.3873 327.6377 296.3873ZM685.5477 296.3873C766.5977 296.3873 834.4777 229.0073 834.4777 148.4373C834.4777 67.3873 766.5977 -0.0027 685.5477 -0.0027C604.4877 -0.0027 537.1077 67.3873 537.1077 148.4373C537.1077 229.0073 604.4877 296.3873 685.5477 296.3873ZM148.4377 617.6773C229.9777 617.6773 297.3677 550.2973 297.3677 469.2373C297.3677 388.1873 229.9777 320.7973 148.4377 320.7973C67.3877 320.7973 -0.0023 388.1873 -0.0023 469.2373C-0.0023 549.8073 66.8977 617.6773 148.4377 617.6773ZM864.7477 617.6773C945.7977 617.6773 1013.1877 550.2973 1013.1877 469.2373C1013.1877 388.1873 945.7977 320.7973 864.7477 320.7973C783.6877 320.7973 715.8177 388.1873 715.8177 469.2373C715.8177 550.2973 783.6877 617.6773 864.7477 617.6773ZM327.6377 938.4773C408.6877 938.4773 476.0777 871.0973 476.0777 790.0373C476.0777 708.9873 408.6877 641.5973 327.6377 641.5973C246.5777 641.5973 179.1977 708.9873 179.1977 790.0373C179.1977 870.6073 246.0977 938.4773 327.6377 938.4773ZM685.5477 938.4773C766.5977 938.4773 834.4777 871.0973 834.4777 790.0373C834.4777 708.9873 766.5977 641.5973 685.5477 641.5973C604.4877 641.5973 537.1077 708.9873 537.1077 790.0373C537.1077 871.0973 604.4877 938.4773 685.5477 938.4773Z"/>
</svg>