<?xml version="1.0" encoding="UTF-8" standalone="no"?>
<svg xmlns="http://www.w3.org/2000/svg"
     width="1090.886194188912" height="996.09375"
     viewBox="0 0 1090.886194188912 996.09375"
     fill="currentColor">
  <path d="M34.7335 403.8059C-0.4265 403.8059 -9.2065 427.7359 9.8335 455.0759L119.2035 610.3559C135.3235 632.8159 158.7535 632.3259 174.3835 610.3559L283.7535 454.5859C302.3135 427.7359 293.5235 403.8059 258.8535 403.8059H188.0535C230.5335 219.2359 394.5935 83.4959 592.8435 83.4959C823.3035 83.4959 1007.8735 267.5759 1007.8735 498.0459C1007.8735 728.5159 823.3035 914.0659 592.8435 913.0859C453.6835 912.5959 331.6135 845.2159 256.9035 741.2059C241.7635 721.1959 218.8135 714.8459 198.3035 727.0459C178.7735 739.2559 173.4035 766.1159 190.0035 787.5959C282.7835 912.1059 428.2935 996.0959 592.8435 996.0959C864.8135 996.0959 1090.8835 770.0159 1090.8835 498.0459C1090.8835 225.5859 864.8135 -0.0041 592.8435 -0.0041C352.6035 -0.0041 148.5035 175.2959 103.5835 403.8059ZM574.2835 211.9159C552.8035 211.9159 535.2235 229.0059 535.2235 250.4859V522.9459C535.2235 534.1759 538.6435 543.9459 546.9435 554.6859L667.5435 713.8659C683.6635 734.8659 706.1235 738.2859 726.1435 724.6059C744.2035 711.9159 745.6735 688.9659 731.0235 668.9459L612.8635 509.7659V250.4859C612.8635 229.0059 595.7735 211.9159 574.2835 211.9159Z"/>
</svg>