<?xml version="1.0" encoding="UTF-8" standalone="no"?>
<svg xmlns="http://www.w3.org/2000/svg"
     width="996.09375" height="996.09375"
     viewBox="0 0 996.09375 996.09375"
     fill="currentColor">
  <path d="M498.0477 996.0959C770.5077 996.0959 996.0977 770.0159 996.0977 498.0459C996.0977 225.5859 770.0177 -0.0041 497.5577 -0.0041C225.5877 -0.0041 -0.0023 225.5859 -0.0023 498.0459C-0.0023 770.0159 226.0777 996.0959 498.0477 996.0959ZM498.0477 913.0859C267.5777 913.0859 83.4977 728.5159 83.4977 498.0459C83.4977 267.5759 267.0877 83.0059 497.5577 83.0059C728.0277 83.0059 913.0877 267.5759 913.0877 498.0459C913.0877 728.5159 728.5177 913.0859 498.0477 913.0859ZM242.6777 550.7859H497.5577C516.5977 550.7859 531.7377 536.1359 531.7377 516.6059V187.4959C531.7377 168.4559 516.5977 153.8059 497.5577 153.8059C478.5177 153.8059 463.8677 168.4559 463.8677 187.4959V482.9059H242.6777C223.1477 482.9059 208.4977 497.5559 208.4977 516.6059C208.4977 536.1359 223.1477 550.7859 242.6777 550.7859Z"/>
</svg>