<?xml version="1.0" encoding="UTF-8" standalone="no"?>
<svg xmlns="http://www.w3.org/2000/svg"
     width="996.09375" height="996.09375"
     viewBox="0 0 996.09375 996.09375"
     fill="currentColor">
  <path d="M498.0477 996.0977C770.5077 996.0977 996.0977 770.5077 996.0977 498.0477C996.0977 226.0777 770.0177 -0.0023 497.5577 -0.0023C225.5877 -0.0023 -0.0023 226.0777 -0.0023 498.0477C-0.0023 770.5077 226.0777 996.0977 498.0477 996.0977ZM339.8477 562.9877C268.0677 562.9877 226.0777 516.1177 226.0777 458.9877C226.0777 408.2077 259.7677 370.6077 303.2277 357.9077C311.5277 268.0677 386.2277 196.2877 477.0477 196.2877C546.8777 196.2877 602.5377 235.8377 632.8077 294.9177C714.3577 294.9177 777.3477 351.0777 777.3477 428.2177C777.3477 502.4377 717.7777 562.9877 639.1577 562.9877ZM322.2677 667.9677C310.0577 667.9677 299.8077 658.2077 299.8077 645.5077C299.8077 632.8077 310.0577 622.0677 322.2677 622.0677H673.3377C686.0377 622.0677 696.2877 632.3277 696.2877 645.5077C696.2877 658.2077 686.0377 667.9677 673.3377 667.9677ZM322.2677 770.9977C310.0577 770.9977 299.8077 760.7377 299.8077 747.5577C299.8077 734.8677 310.0577 725.0977 322.2677 725.0977H673.3377C686.0377 725.0977 696.2877 734.8677 696.2877 747.5577C696.2877 760.7377 686.0377 770.9977 673.3377 770.9977Z"/>
</svg>