<?xml version="1.0" encoding="UTF-8" standalone="no"?>
<svg xmlns="http://www.w3.org/2000/svg"
     width="996.09375" height="996.09375"
     viewBox="0 0 996.09375 996.09375"
     fill="currentColor">
  <path d="M498.0477 996.0959C770.5077 996.0959 996.0977 770.0159 996.0977 498.0459C996.0977 225.5859 770.0177 -0.0041 497.5577 -0.0041C225.5877 -0.0041 -0.0023 225.5859 -0.0023 498.0459C-0.0023 770.0159 226.0777 996.0959 498.0477 996.0959ZM498.0477 913.0859C267.5777 913.0859 83.4977 728.5159 83.4977 498.0459C83.4977 267.5759 267.0877 83.0059 497.5577 83.0059C728.0277 83.0059 913.0877 267.5759 913.0877 498.0459C913.0877 728.5159 728.5177 913.0859 498.0477 913.0859ZM606.9377 313.4759C620.1177 313.4759 630.3677 302.7359 630.3677 290.0359V238.2859C630.3677 225.0959 620.1177 214.8459 606.9377 214.8459C594.2377 214.8459 583.0077 225.0959 583.0077 238.2859V290.0359C583.0077 302.7359 594.2377 313.4759 606.9377 313.4759ZM712.8877 357.4259C721.6777 366.2059 737.7977 367.1859 746.5777 357.9059L783.2077 320.7959C791.5077 311.5259 791.5077 296.3859 783.2077 288.0859C773.9277 279.2959 758.7877 278.8059 749.5077 288.0859L712.8877 324.7059C704.0977 333.4959 704.5877 348.6359 712.8877 357.4259ZM467.7777 357.9059C476.5577 367.1859 492.1877 366.2059 501.4677 357.4259C509.2777 348.6359 509.7677 333.4959 501.4677 324.7059L463.8677 288.0859C454.5877 279.2959 439.9377 279.2959 431.1477 288.0859C422.8477 296.3859 422.8477 311.5259 431.1477 320.7959ZM727.5377 463.3759C727.5377 395.9959 673.8277 343.2659 606.9377 343.2659C565.4277 343.2659 528.8077 363.7659 507.8077 395.5059C518.5577 405.2759 527.8277 416.0159 535.6477 428.7059C609.8677 438.4759 666.9877 492.1859 674.3177 563.4759C707.5177 540.0359 727.5377 503.9059 727.5377 463.3759ZM261.2277 702.1459H517.0877C586.9177 702.1459 639.6477 649.9059 639.6477 581.5459C639.6477 515.1359 586.4277 464.3559 514.6477 462.8859C486.8177 411.1359 437.9877 378.9059 378.4177 378.9059C299.8077 378.9059 233.8877 439.9459 225.5877 517.5759C186.5277 530.2759 158.6877 564.9459 158.6877 608.3959C158.6877 662.5959 200.1977 702.1459 261.2277 702.1459ZM780.7577 486.8159H831.5477C844.7277 486.8159 854.9777 476.0759 854.9777 463.3759C854.9777 450.1959 844.7277 440.4259 831.5477 440.4259H780.7577C767.5777 440.4259 756.8377 450.1959 756.8377 463.3759C756.8377 476.0759 767.5777 486.8159 780.7577 486.8159ZM749.5077 639.6459C758.7877 649.4159 773.9277 647.9459 783.2077 639.1559C791.5077 629.8859 791.9877 614.7459 783.2077 606.4459L746.5777 570.3159C737.3077 561.0359 722.1677 561.0359 712.8877 570.3159C704.5877 579.1059 704.0977 593.7459 712.8877 603.0259Z"/>
</svg>