<?xml version="1.0" encoding="UTF-8" standalone="no"?>
<svg xmlns="http://www.w3.org/2000/svg"
     width="996.09375" height="996.09375"
     viewBox="0 0 996.09375 996.09375"
     fill="currentColor">
  <path d="M498.0477 996.0959C770.5077 996.0959 996.0977 770.0159 996.0977 498.0459C996.0977 225.5859 770.0177 -0.0041 497.5577 -0.0041C225.5877 -0.0041 -0.0023 225.5859 -0.0023 498.0459C-0.0023 770.0159 226.0777 996.0959 498.0477 996.0959ZM498.0477 913.0859C267.5777 913.0859 83.4977 728.5159 83.4977 498.0459C83.4977 267.5759 267.0877 83.0059 497.5577 83.0059C728.0277 83.0059 913.0877 267.5759 913.0877 498.0459C913.0877 728.5159 728.5177 913.0859 498.0477 913.0859ZM594.7277 260.7459C607.4177 260.7459 617.1877 250.9759 617.1877 238.7659V189.9459C617.1877 177.7359 607.4177 167.9659 594.7277 167.9659C583.0077 167.9659 572.7577 177.7359 572.7577 189.9459V238.7659C572.7577 250.9759 583.0077 260.7459 594.7277 260.7459ZM695.3077 302.2459C703.6177 311.0359 718.7477 312.0159 727.5377 302.7359L761.7177 268.0659C770.0177 259.2759 769.5277 244.6259 761.7177 236.8159C752.9277 228.5159 739.2577 228.0259 730.4677 236.8159L695.3077 271.4859C686.5277 279.7859 687.4977 294.4359 695.3077 302.2459ZM463.3777 302.7359C472.1677 312.0159 486.8177 311.0359 495.1177 302.7359C502.9277 294.4359 503.9077 279.7859 495.1177 271.4859L459.9577 236.8159C451.1677 228.5159 437.4977 228.5159 428.7077 236.8159C420.4077 244.6259 420.4077 259.2759 428.7077 268.0659ZM709.4777 402.8359C709.4777 339.3559 658.6877 289.0659 594.7277 289.0659C556.1477 289.0659 521.4877 308.5959 501.4677 338.3759C511.7177 348.1459 520.0177 358.3959 527.8277 370.6059C598.1477 379.3959 651.8577 430.1759 659.1777 498.0459C690.4277 475.5859 709.4777 441.4059 709.4777 402.8359ZM268.0677 629.3959H510.2577C576.1677 629.3959 626.4677 579.1059 626.4677 514.6459C626.4677 452.1459 575.6877 403.8059 507.8077 402.3459C481.4477 353.5159 435.0577 322.7559 378.9077 322.7559C304.6877 322.7559 242.1877 380.3759 233.8877 454.1059C197.2677 466.7959 171.3877 499.0259 171.3877 540.5259C171.3877 591.7959 209.9577 629.3959 268.0677 629.3959ZM759.2777 424.8059H807.6177C820.3077 424.8059 830.0777 415.0359 830.0777 402.8359C830.0777 390.1359 820.3077 380.8559 807.6177 380.8559H759.2777C747.5577 380.8559 737.3077 390.1359 737.3077 402.8359C737.3077 415.0359 747.5577 424.8059 759.2777 424.8059ZM730.4677 569.8259C739.2577 578.6159 752.9277 577.6359 761.7177 569.3359C769.5277 560.5459 770.0177 545.8959 761.7177 538.0859L727.5377 503.9059C718.7477 495.6059 704.0977 495.6059 695.3077 503.9059C687.4977 512.2059 686.5277 526.8559 695.3077 535.6459ZM330.0777 737.7959C327.6377 743.6559 330.0777 748.5359 336.9177 748.5359H378.9077L346.1877 827.6359C343.7477 833.9859 351.0777 837.8859 355.9577 832.5159L463.8677 722.6559C469.2377 717.2859 466.7977 709.9559 459.4777 709.9559H410.1577L433.5977 665.5259C436.5277 660.1559 434.0777 655.2759 428.2277 655.2759H375.4877C368.1677 655.2759 365.2377 657.7159 362.7977 663.0859Z"/>
</svg>