<?xml version="1.0" encoding="UTF-8" standalone="no"?>
<svg xmlns="http://www.w3.org/2000/svg"
     width="996.09375" height="996.09375"
     viewBox="0 0 996.09375 996.09375"
     fill="currentColor">
  <path d="M498.0477 996.0959C770.5077 996.0959 996.0977 770.0159 996.0977 498.0459C996.0977 225.5859 770.0177 -0.0041 497.5577 -0.0041C225.5877 -0.0041 -0.0023 225.5859 -0.0023 498.0459C-0.0023 770.0159 226.0777 996.0959 498.0477 996.0959ZM498.0477 913.0859C267.5777 913.0859 83.4977 728.5159 83.4977 498.0459C83.4977 267.5759 267.0877 83.0059 497.5577 83.0059C728.0277 83.0059 913.0877 267.5759 913.0877 498.0459C913.0877 728.5159 728.5177 913.0859 498.0477 913.0859ZM806.6377 376.4659C806.6377 367.6759 802.7377 361.8159 795.4077 361.8159C784.6677 361.8159 766.5977 375.4859 735.3477 375.4859C678.2277 375.4859 642.0877 342.2859 642.0877 289.5459C642.0877 259.2759 659.1777 237.3059 659.1777 224.6059C659.1777 217.7759 653.3177 212.8859 644.5277 213.3759C598.1477 215.3359 540.5277 270.0159 532.7177 337.4059C538.0877 343.2659 542.4777 349.6059 547.3677 355.9559C619.6277 364.7459 672.8477 418.4559 679.6877 487.7959C758.2977 479.4959 806.6377 417.4759 806.6377 376.4659ZM287.5977 615.7259H529.7877C595.7077 615.7259 645.9977 565.4259 645.9977 500.9759C645.9977 437.9859 595.2177 390.1359 527.8277 388.6759C501.4677 339.3559 454.5877 309.0859 398.4377 309.0859C324.2177 309.0859 261.7177 366.6959 253.9077 440.4259C216.7977 453.1259 190.9177 485.3559 190.9177 526.8559C190.9177 578.1259 229.9777 615.7259 287.5977 615.7259ZM306.6377 719.2359L334.4777 671.3859C339.8477 663.0859 336.9177 652.3459 327.6377 647.4559C319.3377 642.0859 308.5977 645.5059 304.1977 653.8059L276.3677 701.6559C271.4877 709.9559 273.9277 721.1959 282.7177 725.5859C291.0177 730.4659 302.2477 727.5359 306.6377 719.2359ZM464.3577 719.2359L492.1877 671.8759C497.5577 663.0859 494.1377 652.8359 485.3477 647.4559C476.5577 642.5759 465.8177 645.0159 460.9377 653.3159L433.5977 701.1759C429.1977 709.4759 431.1477 720.7059 440.4277 725.5859C449.2177 729.9759 459.4777 727.0459 464.3577 719.2359ZM369.1377 770.9959L395.0177 726.0759C399.8977 717.7759 397.4577 706.5459 388.1877 701.6559C379.3977 697.2659 369.1377 699.7059 363.7677 708.4959L337.3977 753.4159C332.5177 762.2059 335.9377 772.9459 345.2177 777.8359C353.0277 782.7159 364.2577 779.2959 369.1377 770.9959ZM526.3677 771.4859L552.7377 726.0759C557.1277 717.7759 554.6877 706.0559 545.8977 701.6559C537.1077 697.2659 526.8577 700.1959 521.4877 708.4959L495.1177 753.4159C490.2377 762.2059 493.6477 772.9459 502.4377 777.8359C510.7377 782.7159 521.4877 779.2959 526.3677 771.4859Z"/>
</svg>