<?xml version="1.0" encoding="UTF-8" standalone="no"?>
<svg xmlns="http://www.w3.org/2000/svg"
     width="1114.74609375" height="1172.2127188787767"
     viewBox="0 0 1114.74609375 1172.2127188787767"
     fill="currentColor">
  <path d="M229.4877 739.7411H835.4477C995.6077 739.7411 1114.7477 618.1611 1114.7477 467.7711C1114.7477 312.0111 987.7977 198.2411 822.2677 198.2411C761.2277 77.6411 647.9477 0.0011 506.8377 0.0011C323.2377 0.0011 171.8777 144.0411 155.7577 325.1911C67.3877 351.0711 -0.0023 427.7311 -0.0023 530.7611C-0.0023 646.4811 83.9877 739.7411 229.4877 739.7411ZM674.8077 920.9011H574.7077L622.5577 828.6111C628.4177 817.8711 624.0277 809.5711 613.2777 809.5711H507.3277C493.1677 809.5711 488.2777 814.4511 483.8877 824.7111L417.4777 976.0711C412.1077 988.2811 417.4777 995.6011 430.1777 995.6011H515.1377L448.2377 1157.7111C445.7977 1164.0611 447.2677 1169.4311 451.6577 1171.3911C456.0577 1173.3411 461.4277 1171.8711 466.7977 1166.5011L682.6177 945.3111C692.8677 934.5711 688.9677 920.9011 674.8077 920.9011ZM127.4377 979.4911C142.0877 987.7911 159.6677 982.9111 167.9677 968.2611L231.4477 858.4011C240.2377 843.2611 235.3477 826.1711 220.7077 817.3811C206.0577 809.0811 189.4577 813.9611 180.6677 828.6111L116.6977 939.9411C108.3977 954.1011 112.3077 971.1911 127.4377 979.4911ZM806.1477 979.4911C820.7977 987.7911 838.3777 982.9111 846.6777 968.2611L910.1577 858.4011C918.9477 843.2611 914.0577 826.1711 899.8977 817.3811C884.7677 809.0811 868.1677 813.9611 859.3777 828.6111L795.4077 939.9411C787.1077 954.1011 791.0177 971.1911 806.1477 979.4911ZM222.1677 1116.2111C236.8177 1124.0211 254.3977 1119.1411 262.6977 1104.9811L326.1677 994.6311C334.9577 979.9811 330.0777 962.8911 315.4277 954.1011C300.7777 945.3111 284.1777 950.1911 275.3877 965.3311L210.9377 1076.1711C203.1277 1090.3311 207.0277 1107.4211 222.1677 1116.2111ZM900.8777 1116.2111C915.5277 1124.0211 933.1077 1119.1411 941.4077 1104.9811L1004.8877 994.6311C1013.6677 979.9811 1008.7877 962.8911 994.6277 954.1011C979.4877 945.3111 962.8877 950.1911 954.0977 965.3311L890.1377 1076.1711C881.8377 1090.3311 885.7377 1107.4211 900.8777 1116.2111Z"/>
</svg>