<?xml version="1.0" encoding="UTF-8" standalone="no"?>
<svg xmlns="http://www.w3.org/2000/svg"
     width="996.09375" height="996.09375"
     viewBox="0 0 996.09375 996.09375"
     fill="currentColor">
  <path d="M498.0477 996.0977C770.5077 996.0977 996.0977 770.5077 996.0977 498.0477C996.0977 226.0777 770.0177 -0.0023 497.5577 -0.0023C225.5877 -0.0023 -0.0023 226.0777 -0.0023 498.0477C-0.0023 770.5077 226.0777 996.0977 498.0477 996.0977ZM597.6577 260.2577C585.4477 260.2577 574.7077 249.9977 574.7077 237.7977V187.4977C574.7077 174.8077 585.4477 164.5477 597.6577 164.5477C610.8377 164.5477 621.0977 174.8077 621.0977 187.4977V237.7977C621.0977 249.9977 610.8377 260.2577 597.6577 260.2577ZM701.1677 303.7077C693.3577 294.9177 692.3877 279.7877 701.1677 271.4877L737.3077 235.8377C746.5777 226.5577 760.7377 227.0477 769.5277 235.8377C777.8277 243.6477 778.3177 258.7877 769.5277 268.0677L734.3777 304.1977C725.5877 312.9877 709.9577 312.0077 701.1677 303.7077ZM461.9177 304.1977L426.2677 268.0677C417.9677 258.7877 417.9677 243.6477 426.2677 235.8377C435.5477 227.0477 449.7077 227.0477 458.9877 235.8377L495.1177 271.4877C503.9077 279.7877 502.9277 294.9177 495.1177 303.7077C486.3277 312.0077 471.1877 312.9877 461.9177 304.1977ZM715.8177 406.7377C715.8177 446.2877 696.2877 481.9377 664.0577 504.8877C656.7377 435.0577 601.0777 382.3277 528.8077 373.5377C520.5077 360.8377 512.2077 350.0977 501.4677 340.3277C521.9777 309.5677 558.1077 289.5477 597.6577 289.5477C663.5777 289.5477 715.8177 341.3077 715.8177 406.7377ZM260.7377 640.1377C201.1677 640.1377 161.1377 601.5577 161.1377 548.8277C161.1377 505.8577 187.9877 472.6577 225.5877 459.4677C234.3777 383.7877 298.8277 324.2177 374.9977 324.2177C433.1077 324.2177 480.9577 355.9577 507.8077 406.2477C578.1277 407.7177 630.3677 457.5177 630.3677 521.9677C630.3677 588.3777 578.6177 640.1377 510.7377 640.1377ZM767.0877 429.6877C755.3677 429.6877 744.6277 419.4377 744.6277 406.7377C744.6277 393.5577 755.3677 383.7877 767.0877 383.7877H816.8977C830.0777 383.7877 840.3277 393.5577 840.3277 406.7377C840.3277 419.4377 830.0777 429.6877 816.8977 429.6877ZM737.3077 579.5877L701.1677 543.9477C692.3877 534.6677 693.3577 519.5277 701.1677 510.7377C710.4477 502.4377 725.5877 502.4377 734.3777 510.7377L769.5277 545.8977C778.3177 554.1977 777.8277 569.3377 769.5277 579.0977C760.7377 586.9177 746.5777 587.8877 737.3077 579.5877ZM443.3577 746.5777C438.4777 755.3677 427.7377 757.8077 417.9677 753.4177C409.1777 748.5377 407.2277 736.8177 411.6177 728.0277L439.4577 678.7077C444.8277 670.4077 456.0577 667.9677 464.8477 672.8477C473.6377 678.2177 477.0477 688.9677 472.1677 698.2377ZM280.7577 747.0677C275.8777 755.3677 264.6477 758.2977 255.8577 753.4177C247.0677 749.0277 244.1377 737.3077 249.0277 728.5177L277.3477 679.6877C282.7177 670.8977 293.4577 667.4777 302.2477 672.8477C312.0077 677.7377 314.9377 688.9677 309.0777 697.7577ZM345.2177 800.2977C340.3277 809.0777 328.6177 812.4977 319.8277 807.6177C311.0377 802.2477 307.1277 791.0177 312.4977 782.2277L339.3577 735.8377C345.2177 727.0477 355.4677 724.1177 364.7477 729.0077C374.5077 733.8877 376.4677 745.6077 371.5777 753.9077ZM507.3277 800.7777C502.4377 809.0777 491.2077 812.4977 482.4177 807.6177C473.1477 802.2477 469.7277 791.0177 475.0977 782.2277L501.9577 735.8377C507.8077 727.5377 518.5577 724.1177 526.8577 729.0077C536.1377 733.3977 539.0577 745.6077 534.6677 753.9077Z"/>
</svg>