<?xml version="1.0" encoding="UTF-8" standalone="no"?>
<svg xmlns="http://www.w3.org/2000/svg"
     width="1280.76171875" height="1210.5940481166265"
     viewBox="0 0 1280.76171875 1210.5940481166265"
     fill="currentColor">
  <path d="M1037.5956 575.6997C1189.9456 548.8497 1280.7656 425.3097 1280.7656 345.2297C1280.7656 326.1897 1271.9756 312.0297 1256.3456 312.0297C1232.9056 312.0297 1197.2656 343.2797 1129.8856 343.2797C1010.2556 343.2797 935.0556 271.4997 935.0556 162.1297C935.0556 97.6697 969.7256 50.7997 969.7256 24.4297C969.7256 9.2997 959.4756 -0.4703 939.9456 0.0197C849.6056 3.9197 734.8656 104.5097 709.4756 234.3897C724.6056 248.5497 739.2556 267.5997 750.9756 293.4697C915.5256 306.1697 1034.6656 430.1897 1037.5956 575.6997ZM202.6356 823.7497H730.9556C869.1456 823.7497 976.5656 719.2597 976.5656 583.9997C976.5656 449.2397 867.1856 347.6697 721.1956 346.6997C664.0656 237.8097 562.4956 174.3297 444.3356 174.3297C285.6456 174.3297 150.8756 297.8697 136.2256 458.0297C53.2256 482.9297 -0.0044 553.2397 -0.0044 639.1797C-0.0044 748.5497 82.5156 823.7497 202.6356 823.7497ZM581.0556 1057.1497L644.5356 947.2797C653.3156 932.1497 648.4356 915.0597 634.2756 906.7597C619.1456 897.9697 602.5356 902.8497 593.7456 917.9897L529.7856 1028.8297C521.4856 1042.9897 525.3956 1060.0797 540.5256 1068.8697C555.1756 1076.6797 572.7556 1071.7997 581.0556 1057.1497ZM192.3856 1057.6397L256.3456 947.7697C265.1356 932.6297 260.2556 915.5497 245.6056 907.2397C230.9556 898.4597 214.3556 903.3397 205.0756 918.4697L141.1156 1029.3097C132.8156 1043.4697 137.2056 1060.5597 152.3456 1069.3497C166.5056 1077.1697 184.0856 1072.2797 192.3856 1057.6397ZM733.8856 1194.8397L797.3656 1084.4897C806.1556 1069.8397 801.2656 1052.7497 786.6256 1043.9597C771.9756 1035.6597 755.3756 1040.5497 746.5856 1055.1897L682.6156 1166.5197C674.3156 1180.1897 678.2256 1197.2797 693.3556 1206.0697C708.0056 1214.3697 725.5856 1209.4897 733.8856 1194.8397ZM345.2156 1195.3297L408.6956 1084.9797C417.9656 1070.3297 413.0856 1053.2397 398.4356 1044.4497C383.7856 1036.1497 367.1856 1041.0297 357.9056 1055.6797L293.9456 1167.0097C285.6456 1180.6797 290.0356 1197.7697 305.1756 1206.5597C319.3356 1214.8597 336.9156 1209.9797 345.2156 1195.3297Z"/>
</svg>