<?xml version="1.0" encoding="UTF-8" standalone="no"?>
<svg xmlns="http://www.w3.org/2000/svg"
     width="996.09375" height="996.09375"
     viewBox="0 0 996.09375 996.09375"
     fill="currentColor">
  <path d="M498.0477 996.0977C770.5077 996.0977 996.0977 770.5077 996.0977 498.0477C996.0977 226.0777 770.0177 -0.0023 497.5577 -0.0023C225.5877 -0.0023 -0.0023 226.0777 -0.0023 498.0477C-0.0023 770.5077 226.0777 996.0977 498.0477 996.0977ZM833.4977 446.2877C833.4977 490.2377 781.7377 558.1077 695.7977 566.8977C689.4577 491.2077 630.8577 434.0777 552.7377 423.8277C547.8477 416.5077 542.9677 410.1577 537.1077 403.8077C545.4077 330.0777 608.3977 271.4877 658.2077 269.0477C667.4777 269.0477 673.8277 273.9277 673.8277 281.2477C673.8277 294.4377 655.7577 319.3377 655.7577 352.0477C655.7577 408.6877 694.8277 445.3077 756.8377 445.3077C791.0177 445.3077 809.5677 429.6877 821.7777 429.6877C829.5877 429.6877 833.4977 437.0077 833.4977 446.2877ZM270.5077 704.5877C208.0077 704.5877 165.5277 664.0577 165.5277 607.9077C165.5277 563.4777 193.3577 527.8277 233.8877 514.6477C242.6777 434.5677 310.5477 371.5777 391.5977 371.5777C452.6377 371.5777 503.4177 404.7877 531.7377 458.0077C605.9577 459.4677 661.1377 512.2077 661.1377 580.5677C661.1377 650.8777 605.9577 704.5877 534.6677 704.5877Z"/>
</svg>