<?xml version="1.0" encoding="UTF-8" standalone="no"?>
<svg xmlns="http://www.w3.org/2000/svg"
     width="996.09375" height="996.09375"
     viewBox="0 0 996.09375 996.09375"
     fill="currentColor">
  <path d="M498.0477 996.0959C770.5077 996.0959 996.0977 770.0159 996.0977 498.0459C996.0977 225.5859 770.0177 -0.0041 497.5577 -0.0041C225.5877 -0.0041 -0.0023 225.5859 -0.0023 498.0459C-0.0023 770.0159 226.0777 996.0959 498.0477 996.0959ZM498.0477 913.0859C267.5777 913.0859 83.4977 728.5159 83.4977 498.0459C83.4977 267.5759 267.0877 83.0059 497.5577 83.0059C728.0277 83.0059 913.0877 267.5759 913.0877 498.0459C913.0877 728.5159 728.5177 913.0859 498.0477 913.0859ZM320.7977 677.2459H648.4377C732.9077 677.2459 798.8277 613.7659 798.8277 531.7359C798.8277 448.2459 730.9577 386.2259 640.1377 387.2059C607.4177 320.3159 545.8977 280.2759 471.1877 280.2759C372.5577 280.2759 290.5277 356.9359 282.2277 455.5659C231.9377 469.7259 197.2677 512.6959 197.2677 565.4259C197.2677 630.8559 246.5777 677.2459 320.7977 677.2459Z"/>
</svg>