<?xml version="1.0" encoding="UTF-8" standalone="no"?>
<svg xmlns="http://www.w3.org/2000/svg"
     width="1283.3047552795385" height="1226.165656685827"
     viewBox="0 0 1283.3047552795385 1226.165656685827"
     fill="currentColor">
  <path d="M207.0333 844.2047H735.3533C876.4633 844.2047 986.3233 737.7547 986.3233 600.0647C986.3233 598.5947 986.3233 597.1347 985.8433 595.6647C1143.5533 590.2947 1241.7033 501.4247 1277.8333 407.1947C1293.9433 368.1247 1272.9533 332.4847 1234.8633 332.4847C1205.5633 332.4847 1181.6433 345.1747 1129.8833 345.1747C1005.3733 345.1747 939.4533 275.8447 939.4533 163.0547C939.4533 107.3847 956.5433 77.6047 956.5433 50.2547C956.5433 9.7247 921.8733 -9.8053 878.9033 4.8447C775.3933 39.0247 687.5033 149.3747 687.5033 284.1447C687.5033 288.5347 687.9933 292.9347 687.9933 297.3247C628.9033 226.5247 544.9233 185.5147 449.2233 185.5147C287.5933 185.5147 152.3433 310.5147 136.2333 470.6647C55.1733 496.0547 0.0033 566.3747 0.0033 655.2347C0.0033 765.5847 83.0033 844.2047 207.0333 844.2047ZM759.2733 282.6747C759.2733 188.4447 815.4333 114.7147 879.3933 79.5547L884.7633 83.4647C876.4633 106.8947 869.1433 139.6147 869.1433 177.6947C869.1433 317.8347 971.6833 414.5147 1113.2833 414.5147C1147.9533 414.5147 1180.1733 408.1647 1202.6333 400.8447L1206.0533 404.2647C1175.7833 461.8747 1098.1433 524.3747 974.1233 524.8647C945.8033 438.9247 869.6333 376.9147 771.4833 361.7847C763.1833 336.8747 759.2733 310.0247 759.2733 282.6747ZM205.0733 766.0747C122.0733 766.0747 78.1233 718.2247 78.1233 657.1947C78.1233 605.9247 108.4033 560.0247 180.1733 540.9747C203.6133 534.6347 212.4033 523.8947 214.3533 499.4747C225.5833 362.2647 327.1533 263.6347 449.2233 263.6347C543.9433 263.6347 617.6733 315.8847 663.0833 407.1947C673.8233 428.1847 685.5433 435.0247 710.4533 435.0247C836.9133 435.0247 907.7133 511.1947 907.7133 602.0147C907.7133 693.3247 833.4933 766.0747 736.8133 766.0747ZM587.4033 1072.7147L650.8833 962.8547C659.6633 947.7147 654.7833 930.6247 640.1333 922.3247C625.4933 913.5347 608.8833 918.4247 600.0933 933.5547L536.1333 1044.3947C527.8333 1058.5547 531.7433 1075.6447 546.8733 1084.4347C561.5233 1092.2447 579.1033 1087.3647 587.4033 1072.7147ZM198.7333 1073.2047L262.2033 963.3447C270.9933 948.2047 266.6033 931.1147 251.9533 922.8147C236.8133 914.0247 220.2133 918.9047 211.4233 934.0447L147.4633 1044.8847C139.1633 1059.0447 143.5533 1076.1347 158.2033 1084.9247C172.8533 1092.7347 190.4333 1087.8547 198.7333 1073.2047ZM739.7433 1210.4147L803.7133 1100.0647C812.5033 1085.4147 807.6133 1068.3247 792.9733 1059.5347C778.3233 1051.2347 761.7233 1056.1147 752.4433 1070.7647L688.4733 1182.0947C680.1733 1195.7647 684.5733 1212.8547 699.7033 1221.6447C713.8633 1229.9447 731.9333 1225.0647 739.7433 1210.4147ZM351.5633 1210.9047L415.0433 1100.5547C423.8233 1085.9047 418.9433 1068.8147 404.7833 1060.0247C389.6533 1051.7247 373.0433 1056.6047 364.2533 1071.2547L300.2933 1182.5847C291.9933 1196.2547 296.3833 1213.3447 311.0333 1222.1347C325.6833 1230.4347 343.2633 1225.5547 351.5633 1210.9047Z"/>
</svg>