<?xml version="1.0" encoding="UTF-8" standalone="no"?>
<svg xmlns="http://www.w3.org/2000/svg"
     width="996.09375" height="996.09375"
     viewBox="0 0 996.09375 996.09375"
     fill="currentColor">
  <path d="M498.0477 996.0977C770.5077 996.0977 996.0977 770.5077 996.0977 498.0477C996.0977 226.0777 770.0177 -0.0023 497.5577 -0.0023C225.5877 -0.0023 -0.0023 226.0777 -0.0023 498.0477C-0.0023 770.5077 226.0777 996.0977 498.0477 996.0977ZM336.4277 561.0377C264.6477 561.0377 223.1477 514.1577 223.1477 457.5177C223.1477 406.7377 256.3477 368.6477 299.8077 355.9577C308.1077 266.1177 383.2977 194.3377 473.6377 194.3377C543.4577 194.3377 599.1177 233.8877 629.8877 292.9677C711.4277 292.9677 774.4177 349.1177 774.4177 426.2677C774.4177 500.4877 714.3577 561.0377 636.2277 561.0377ZM503.4177 692.8677C497.5577 703.6177 482.9077 708.0077 472.1677 701.6577C460.9377 695.3077 457.5177 680.1777 463.8677 669.9177L493.1677 619.1377C499.0277 608.3977 513.6677 604.4877 524.4177 610.3477C535.6477 617.1877 539.0577 631.8377 532.7177 642.0877ZM365.2377 692.8677C359.3777 703.6177 345.2177 708.0077 333.9877 701.6577C322.7577 695.3077 319.3377 680.1777 325.1977 669.9177L354.9777 619.1377C360.8377 608.3977 374.9977 604.4877 386.2277 610.3477C397.4577 617.1877 400.8777 631.8377 395.0177 642.0877ZM641.1177 692.8677C635.2577 703.6177 621.0977 708.0077 609.8677 701.6577C598.6377 695.3077 595.2177 680.1777 601.0777 669.9177L630.8577 619.1377C636.7177 608.3977 650.8777 604.4877 662.1077 610.3477C673.8277 617.1877 676.7577 631.8377 670.8977 642.0877ZM305.6677 792.4777C287.1077 792.4777 271.9777 777.3477 271.9777 758.7877C271.9777 740.7177 287.1077 725.5877 305.6677 725.5877C323.7277 725.5877 338.8677 740.7177 338.8677 758.7877C338.8677 777.3477 323.7277 792.4777 305.6677 792.4777ZM443.8477 792.4777C425.2977 792.4777 410.1577 777.3477 410.1577 758.7877C410.1577 740.7177 425.2977 725.5877 443.8477 725.5877C462.3977 725.5877 477.5377 740.7177 477.5377 758.7877C477.5377 777.3477 462.3977 792.4777 443.8477 792.4777ZM581.5477 792.4777C563.4777 792.4777 547.8477 777.3477 547.8477 758.7877C547.8477 740.7177 563.4777 725.5877 581.5477 725.5877C599.6077 725.5877 615.2377 740.7177 615.2377 758.7877C615.2377 777.3477 599.6077 792.4777 581.5477 792.4777Z"/>
</svg>