<?xml version="1.0" encoding="UTF-8" standalone="no"?>
<svg xmlns="http://www.w3.org/2000/svg"
     width="1276.85546875" height="825.7003091342028"
     viewBox="0 0 1276.85546875 825.7003091342028"
     fill="currentColor">
  <path d="M1033.6936 576.1919C1186.0336 549.3319 1276.8536 425.3119 1276.8536 345.2319C1276.8536 326.1919 1268.5536 312.5119 1252.9336 312.5119C1229.0036 312.5119 1193.3636 343.7619 1125.9736 343.7619C1006.8336 343.7619 931.6436 271.5019 931.6436 162.6119C931.6436 97.6719 965.8236 50.8019 965.8236 24.9219C965.8236 9.7819 955.5636 -0.4681 936.0336 0.0119C845.7036 3.9219 731.4436 105.0019 705.5636 234.8819C720.7036 249.0419 735.3536 268.0819 747.5636 293.4719C911.6236 306.1719 1030.7636 430.1919 1033.6936 576.1919ZM202.6336 825.7019H730.9536C869.6336 825.7019 977.0536 720.7219 977.0536 585.4619C977.0536 451.1919 867.6736 349.6219 721.6836 348.6519C664.5536 239.2719 562.5036 175.8019 444.8236 175.8019C285.6436 175.8019 151.3636 299.3319 136.2336 459.9819C53.2236 484.8819 0.0036 555.1919 0.0036 641.1319C0.0036 750.5019 82.5236 825.7019 202.6336 825.7019Z"/>
</svg>