<?xml version="1.0" encoding="UTF-8" standalone="no"?>
<svg xmlns="http://www.w3.org/2000/svg"
     width="1114.74609375" height="1122.2151741790267"
     viewBox="0 0 1114.74609375 1122.2151741790267"
     fill="currentColor">
  <path d="M229.4877 739.7411H835.4477C995.6077 739.7411 1114.7477 618.1611 1114.7477 467.7711C1114.7477 312.0111 987.7977 198.2411 822.2677 198.2411C761.2277 77.6411 647.9477 0.0011 506.8377 0.0011C323.2377 0.0011 171.8777 144.0411 155.7577 325.1911C67.3877 351.0711 -0.0023 427.7311 -0.0023 530.7611C-0.0023 646.4811 83.9877 739.7411 229.4877 739.7411ZM228.5177 661.6211C128.4177 661.6211 78.1277 605.4711 78.1277 533.2011C78.1277 474.6111 112.3077 421.8711 195.3077 399.9011C222.1677 392.5811 231.9377 379.8811 234.3777 352.5411C245.6077 192.8711 365.2377 78.1211 506.8377 78.1211C616.6977 78.1211 703.1277 138.6711 755.8577 246.5811C767.0877 270.5111 781.7377 278.8111 810.5477 278.8111C955.0777 278.8111 1036.6177 365.7211 1036.6177 469.7311C1036.6177 576.1711 951.6577 661.6211 840.3277 661.6211ZM142.0877 1106.9311L285.6477 858.4011C294.4377 842.7711 289.5477 826.1711 274.8977 817.8711C260.2577 809.0811 243.6477 813.4811 234.8677 829.1011L90.8177 1078.6111C83.0077 1092.2811 86.9177 1109.3711 101.5577 1118.1611C116.2077 1126.4611 133.7877 1121.5811 142.0877 1106.9311ZM336.9177 1106.9311L479.9777 858.4011C488.7677 842.7711 484.3777 826.1711 469.7277 817.8711C454.5877 809.0811 437.9877 813.4811 429.1977 829.1011L285.6477 1078.6111C277.8277 1092.2811 281.2477 1109.3711 296.3877 1118.1611C311.0377 1126.4611 328.6177 1121.5811 336.9177 1106.9311ZM531.2477 1106.9311L674.3177 858.4011C683.1077 842.7711 678.7077 826.1711 664.0577 817.8711C648.9277 809.0811 632.3277 813.4811 623.5377 829.1011L479.9777 1078.6111C472.1677 1092.2811 475.5877 1109.3711 490.7277 1118.1611C505.3677 1126.4611 522.9477 1121.5811 531.2477 1106.9311ZM724.1177 1107.4211L868.6477 857.4211C876.9577 842.7711 872.5577 825.1911 857.9077 817.8711C843.7477 810.0611 826.6577 813.4811 818.3577 828.6111L674.8077 1077.6411C666.0177 1092.2811 670.4077 1109.3711 684.5677 1118.1611C698.2377 1126.4611 716.3077 1121.5811 724.1177 1107.4211Z"/>
</svg>