<?xml version="1.0" encoding="UTF-8" standalone="no"?>
<svg xmlns="http://www.w3.org/2000/svg"
     width="996.09375" height="996.09375"
     viewBox="0 0 996.09375 996.09375"
     fill="currentColor">
  <path d="M498.0477 996.0977C770.5077 996.0977 996.0977 770.5077 996.0977 498.0477C996.0977 226.0777 770.0177 -0.0023 497.5577 -0.0023C225.5877 -0.0023 -0.0023 226.0777 -0.0023 498.0477C-0.0023 770.5077 226.0777 996.0977 498.0477 996.0977ZM335.9377 565.4277C264.1577 565.4277 222.6577 519.0477 222.6577 462.3977C222.6577 411.6177 255.8577 373.5377 299.3177 360.8377C307.6177 270.9977 382.8077 199.2177 473.1477 199.2177C542.9677 199.2177 598.6377 238.7677 629.3977 297.8477C710.9377 297.8477 773.9277 354.0077 773.9277 431.1477C773.9277 505.3677 713.8677 565.4277 635.7377 565.4277ZM400.8777 786.1377C394.5277 796.8777 380.8577 801.2677 370.1177 794.9177C358.3977 788.5777 354.9777 774.4177 360.8377 763.1877L441.8977 624.0277C448.7277 612.3077 462.3977 609.3777 472.6577 615.2377C484.3777 622.0677 487.7977 635.7377 481.9377 646.9677ZM632.8077 786.1377C626.4677 796.8777 612.3077 801.2677 602.0477 794.9177C590.3277 788.5777 586.9177 774.4177 593.2577 763.1877L673.8277 624.0277C680.1777 612.3077 693.8477 609.3777 705.0777 615.2377C716.3077 622.0677 720.2177 635.7377 713.8677 646.9677ZM330.0777 708.4977C323.2377 719.7277 309.5677 723.6377 298.3377 716.7977C287.1077 710.9377 283.2077 696.2877 290.0377 685.5477L325.6877 624.0277C332.0277 612.7977 345.7077 609.3777 356.9377 615.2377C368.1677 622.0677 371.5777 636.2277 365.7277 646.9677ZM561.5277 708.4977C555.1777 719.7277 541.5077 723.6377 530.7577 716.7977C519.0477 710.9377 515.6277 696.2877 521.9777 685.5477L558.1077 624.0277C563.9677 612.7977 578.1277 609.3777 588.8677 615.2377C600.5877 622.0677 604.0077 636.2277 597.1677 646.9677Z"/>
</svg>