<?xml version="1.0" encoding="UTF-8" standalone="no"?>
<svg xmlns="http://www.w3.org/2000/svg"
     width="996.09375" height="996.09375"
     viewBox="0 0 996.09375 996.09375"
     fill="currentColor">
  <path d="M498.0477 996.0977C770.5077 996.0977 996.0977 770.5077 996.0977 498.0477C996.0977 226.0777 770.0177 -0.0023 497.5577 -0.0023C225.5877 -0.0023 -0.0023 226.0777 -0.0023 498.0477C-0.0023 770.5077 226.0777 996.0977 498.0477 996.0977ZM339.8477 548.3377C268.0677 548.3377 226.5577 502.4377 226.5577 445.3077C226.5577 394.5277 259.7677 356.4477 303.2277 344.2377C311.5277 253.9077 386.7177 182.6177 477.0477 182.6177C546.8777 182.6177 602.5377 221.1877 633.2977 280.7577C714.8477 280.7577 777.8277 336.9177 777.8277 414.0577C777.8277 488.2777 717.7777 548.3377 639.6477 548.3377ZM409.1777 762.6977C402.8277 773.9277 389.1577 778.3177 377.9277 771.4877C366.6977 765.6277 362.7977 750.9777 369.6277 740.2377L446.7777 606.9377C453.6177 595.2177 466.7977 591.7977 477.5377 598.1477C489.2577 604.4877 493.6477 618.6477 486.3277 629.8877ZM638.1877 762.6977C632.3277 773.9277 618.6477 778.3177 607.4177 771.4877C595.7077 765.6277 592.2877 750.9777 598.6377 740.2377L675.7777 606.9377C682.6177 595.2177 695.7977 591.7977 707.0277 598.1477C718.7477 604.4877 722.6577 618.6477 715.8177 629.8877ZM523.9277 762.6977C517.0877 773.9277 503.4177 778.3177 492.6777 771.4877C480.9577 765.6277 477.5377 750.9777 483.8877 740.2377L561.0377 606.9377C567.8677 595.2177 581.0577 591.7977 592.2877 598.1477C604.0077 604.4877 607.9077 618.6477 600.5877 629.8877ZM294.4377 762.6977C288.0877 773.9277 274.4177 778.3177 263.1877 771.4877C251.9577 765.6277 248.0477 750.9777 254.3977 740.2377L332.0277 606.9377C338.3777 595.2177 352.0477 591.7977 362.7977 598.1477C374.5077 604.4877 378.4177 618.6477 371.5777 629.8877Z"/>
</svg>