<?xml version="1.0" encoding="UTF-8" standalone="no"?>
<svg xmlns="http://www.w3.org/2000/svg"
     width="1114.74609375" height="1199.70703125"
     viewBox="0 0 1114.74609375 1199.70703125"
     fill="currentColor">
  <path d="M229.4877 739.7411H835.4477C995.6077 739.7411 1114.7477 618.1611 1114.7477 467.7711C1114.7477 312.0111 987.7977 198.2411 822.2677 198.2411C761.2277 77.6411 647.9477 0.0011 506.8377 0.0011C323.2377 0.0011 171.8777 144.0411 155.7577 325.1911C67.3877 351.0711 -0.0023 427.7311 -0.0023 530.7611C-0.0023 646.4811 83.9877 739.7411 229.4877 739.7411ZM228.5177 661.6211C128.4177 661.6211 78.1277 605.4711 78.1277 533.2011C78.1277 474.6111 112.3077 421.8711 195.3077 399.9011C222.1677 392.5811 231.9377 379.8811 234.3777 352.5411C245.6077 192.8711 365.2377 78.1211 506.8377 78.1211C616.6977 78.1211 703.1277 138.6711 755.8577 246.5811C767.0877 270.5111 781.7377 278.8111 810.5477 278.8111C955.0777 278.8111 1036.6177 365.7211 1036.6177 469.7311C1036.6177 576.1711 951.6577 661.6211 840.3277 661.6211ZM292.4777 915.5311L325.1977 857.9111C333.9877 843.2611 329.5877 825.6811 314.9377 816.8911C300.2977 808.5911 283.2077 813.9611 274.4177 828.1211L241.2077 887.2111C233.3977 900.8811 236.8177 917.9711 251.9577 926.7611C266.5977 935.0611 284.1777 930.1711 292.4777 915.5311ZM505.3677 990.2311L581.5477 858.4011C589.8477 843.2611 585.4477 826.1711 571.2877 817.8711C556.1477 809.0811 539.0577 813.9611 530.7577 829.1011L454.0977 961.9111C445.7977 976.0711 450.1977 993.1611 465.3277 1001.4611C479.4877 1009.7611 497.5577 1004.8811 505.3677 990.2311ZM804.1977 917.4811L836.9177 859.8611C845.7077 845.2111 841.3077 827.6411 826.6577 818.8511C812.0077 810.5511 794.9177 815.9211 786.1377 830.0811L752.9277 889.1611C745.1177 902.8311 748.5377 919.9211 763.6677 928.7111C778.3177 937.0111 795.8977 931.6411 804.1977 917.4811ZM202.1477 1125.0011C210.9377 1125.0011 217.2877 1116.7011 216.7977 1107.9111L213.3777 1061.0311L252.4377 1087.4011C259.2777 1092.2811 270.5077 1090.3311 274.8977 1083.0111C279.7877 1075.6811 276.8577 1064.4511 267.5777 1060.0611L225.5877 1039.5511L268.0677 1018.5511C276.8577 1014.1611 279.2977 1003.9111 275.3877 996.0911C271.4877 988.2811 259.2777 986.8211 252.4377 991.7011L213.3777 1018.5511L217.2877 971.6811C218.2577 962.4011 210.9377 954.5911 202.1477 954.5911C191.8977 954.5911 185.5477 962.4011 186.0377 971.6811L189.4577 1018.5511L149.8977 991.7011C143.0677 986.8211 132.8077 987.7911 127.9277 996.0911C123.5377 1003.9111 125.4877 1014.1611 134.7677 1018.5511L176.7577 1039.5511L134.7677 1060.0611C125.4877 1064.4511 123.0477 1075.1911 127.4377 1083.0111C131.8377 1091.3111 143.0677 1092.7711 149.8977 1087.8911L189.4577 1061.5211L186.5277 1107.9111C186.0377 1116.7011 191.8977 1125.0011 202.1477 1125.0011ZM713.8677 1126.9511C722.6577 1126.9511 729.0077 1118.6511 728.5177 1109.3711L725.0977 1062.9911L764.1577 1089.3511C770.9977 1094.2411 781.7377 1092.2811 786.6177 1084.9611C791.5077 1077.6411 788.5777 1066.4111 779.2977 1062.0111L737.3077 1041.5011L779.7877 1020.5111C788.5777 1016.1111 791.0177 1005.3711 787.1077 998.0511C782.7177 990.2311 770.9977 988.7711 764.1577 993.6511L725.0977 1020.5111L729.0077 973.6311C729.9777 963.8711 722.6577 956.0511 713.8677 956.0511C703.6177 956.0511 697.2677 963.8711 697.7577 973.6311L701.1677 1020.5111L661.6177 993.6511C654.7877 988.7711 644.5277 989.7511 639.6477 998.0511C635.2577 1005.3711 637.2077 1016.1111 646.4877 1020.5111L688.4777 1041.5011L646.4877 1062.0111C637.2077 1066.4111 634.7677 1077.1511 639.1577 1084.9611C643.5577 1092.7711 654.7877 1094.2411 661.6177 1089.3511L701.1677 1063.4811L698.2377 1109.3711C697.7577 1118.6511 703.6177 1126.9511 713.8677 1126.9511ZM435.0577 1199.7111C444.3377 1199.7111 450.1977 1191.4111 449.7077 1182.6211L446.7777 1136.2311L485.3477 1162.1111C492.6777 1166.9911 503.4177 1165.0411 508.2977 1157.7111C513.1877 1150.3911 510.2577 1139.1611 500.9777 1134.7611L458.9877 1114.7511L501.4677 1093.7511C510.2577 1089.3511 512.6977 1078.6111 508.7877 1070.8011C504.3977 1062.9911 492.6777 1061.5211 485.3477 1066.4111L446.7777 1093.7511L450.1977 1046.3911C451.1677 1037.1111 444.3377 1029.3011 435.0577 1029.3011C424.8077 1029.3011 418.9477 1037.1111 419.4377 1046.3911L422.3677 1093.7511L383.2977 1066.4111C375.9777 1061.5211 365.7277 1062.5011 360.8377 1070.8011C356.4477 1078.6111 358.3977 1088.8711 367.6777 1093.7511L410.1577 1114.7511L367.6777 1135.2511C358.3977 1139.6511 355.9577 1149.9011 360.3477 1157.7111C364.7477 1166.0111 375.9777 1167.4811 383.2977 1162.6011L422.3677 1136.2311L419.9177 1182.6211C419.4377 1191.4111 424.8077 1199.7111 435.0577 1199.7111Z"/>
</svg>