<?xml version="1.0" encoding="UTF-8" standalone="no"?>
<svg xmlns="http://www.w3.org/2000/svg"
     width="1114.74609375" height="1080.56640625"
     viewBox="0 0 1114.74609375 1080.56640625"
     fill="currentColor">
  <path d="M229.4877 739.7411H835.4477C995.6077 739.7411 1114.7477 618.1611 1114.7477 467.7711C1114.7477 312.0111 987.7977 198.2411 822.2677 198.2411C761.2277 77.6411 647.9477 0.0011 506.8377 0.0011C323.2377 0.0011 171.8777 144.0411 155.7577 325.1911C67.3877 351.0711 -0.0023 427.7311 -0.0023 530.7611C-0.0023 646.4811 83.9877 739.7411 229.4877 739.7411ZM879.8877 853.0311H244.6277C227.5377 853.0311 213.8677 866.2111 213.8677 883.7911C213.8677 901.3711 227.5377 914.5511 244.6277 914.5511H879.8877C896.9777 914.5511 910.6477 901.3711 910.6477 883.7911C910.6477 866.2111 896.9777 853.0311 879.8877 853.0311ZM879.8877 1018.5511H244.6277C227.5377 1018.5511 213.8677 1031.7411 213.8677 1049.3211C213.8677 1066.8911 227.5377 1080.5711 244.6277 1080.5711H879.8877C896.9777 1080.5711 910.6477 1066.8911 910.6477 1049.3211C910.6477 1031.7411 896.9777 1018.5511 879.8877 1018.5511Z"/>
</svg>