<?xml version="1.0" encoding="UTF-8" standalone="no"?>
<svg xmlns="http://www.w3.org/2000/svg"
     width="996.09375" height="996.09375"
     viewBox="0 0 996.09375 996.09375"
     fill="currentColor">
  <path d="M498.0477 996.0959C770.5077 996.0959 996.0977 770.0159 996.0977 498.0459C996.0977 225.5859 770.0177 -0.0041 497.5577 -0.0041C225.5877 -0.0041 -0.0023 225.5859 -0.0023 498.0459C-0.0023 770.0159 226.0777 996.0959 498.0477 996.0959ZM498.0477 913.0859C267.5777 913.0859 83.4977 728.5159 83.4977 498.0459C83.4977 267.5759 267.0877 83.0059 497.5577 83.0059C728.0277 83.0059 913.0877 267.5759 913.0877 498.0459C913.0877 728.5159 728.5177 913.0859 498.0477 913.0859ZM340.8177 563.4759H631.8377C707.5177 563.4759 765.6277 504.8859 765.6277 433.1059C765.6277 358.3959 704.5877 303.7059 625.4877 303.7059C595.7077 246.0959 541.5077 208.4959 474.1177 208.4959C386.2277 208.4959 313.4777 277.8359 305.1777 365.2359C263.1877 377.4459 230.9577 414.0659 230.9577 463.3759C230.9577 518.5559 270.9977 563.4759 340.8177 563.4759ZM562.0077 702.1459L596.6777 642.0859C603.0277 631.8359 599.6077 617.6759 588.3777 611.8159C578.1277 605.4659 564.4577 609.3759 558.5977 620.1159L523.9277 679.6859C517.5777 690.4259 520.9977 704.5859 532.2277 710.4459C542.4777 716.7959 556.1477 712.8859 562.0077 702.1459ZM355.4677 702.6359L390.1377 642.5759C396.4877 632.3259 393.0677 618.1659 381.8377 612.3059C371.5777 605.9559 357.9077 609.8659 352.0477 620.6059L317.3877 680.1759C311.0377 690.9159 314.4577 705.0759 325.6877 710.9359C335.9377 717.2859 349.6077 713.3759 355.4677 702.6359ZM437.0077 774.9059L471.6777 715.3359C478.0277 704.5859 474.6077 690.9159 463.3777 684.5659C453.1277 678.7059 439.4577 682.6159 433.5977 692.8759L398.4377 752.9259C392.5777 763.6759 395.9977 777.3459 407.2277 783.6959C417.4777 789.5459 430.6677 785.6459 437.0077 774.9059ZM643.5577 774.9059L678.7077 715.3359C684.5677 704.5859 681.1477 690.9159 669.9177 684.5659C659.6677 678.7059 645.9977 682.6159 640.1377 692.8759L605.4677 752.9259C599.1177 763.6759 602.5377 777.3459 613.7677 783.6959C624.0277 789.5459 637.6977 785.6459 643.5577 774.9059Z"/>
</svg>