<?xml version="1.0" encoding="UTF-8" standalone="no"?>
<svg xmlns="http://www.w3.org/2000/svg"
     width="1166.9921875" height="772.94921875"
     viewBox="0 0 1166.9921875 772.94921875"
     fill="currentColor">
  <path d="M239.2577 772.9475H874.9977C1039.5477 772.9475 1166.9877 648.4375 1166.9877 489.2575C1166.9877 328.6175 1036.6177 207.5175 859.3777 207.5175C794.4377 78.6175 675.2977 -0.0025 530.2777 -0.0025C340.8177 -0.0025 180.6677 146.9775 163.5777 341.7975C65.9177 369.6275 -0.0023 451.6575 -0.0023 555.6675C-0.0023 675.7775 87.3977 772.9475 239.2577 772.9475ZM238.2777 694.3375C138.1877 694.3375 78.6177 640.1375 78.6177 558.1075C78.6177 487.7975 123.5377 437.0075 202.6377 416.0175C229.9777 409.1775 240.2377 396.4875 242.1877 368.1675C253.9077 202.6375 377.9277 78.6175 530.2777 78.6175C647.9477 78.6175 738.7677 144.0475 793.4577 256.3475C805.1777 280.2775 819.3377 288.5775 849.1177 288.5775C1001.9577 288.5775 1087.8877 380.8575 1087.8877 491.2075C1087.8877 604.9775 997.0677 694.3375 880.3677 694.3375Z"/>
</svg>