<?xml version="1.0" encoding="UTF-8" standalone="no"?>
<svg xmlns="http://www.w3.org/2000/svg"
     width="1280.76171875" height="1240.1480330573024"
     viewBox="0 0 1280.76171875 1240.1480330573024"
     fill="currentColor">
  <path d="M1037.5956 575.7513C1189.9456 548.8913 1280.7656 425.3613 1280.7656 344.7913C1280.7656 326.2313 1271.9756 312.0713 1256.3456 312.0713C1232.9056 312.0713 1197.2656 343.3213 1129.8856 343.3213C1010.2556 343.3213 935.0556 271.0613 935.0556 162.1713C935.0556 97.2313 969.7256 50.3613 969.7256 24.4813C969.7256 9.3413 959.4756 -0.9087 939.9456 0.0613C849.6056 3.4813 734.8656 104.5613 709.4756 234.4413C724.6056 248.6013 739.2556 267.6413 750.9756 293.5213C915.5256 306.2213 1034.6656 429.7513 1037.5956 575.7513ZM202.6356 823.7913H730.9556C869.1456 823.7913 976.5656 718.8113 976.5656 583.5613C976.5656 449.2813 867.1856 347.7213 721.1956 346.7413C664.0656 237.3713 562.4956 174.3813 444.3356 174.3813C285.6456 174.3813 150.8756 297.4313 136.2256 458.0713C53.2256 482.9713 -0.0044 553.2913 -0.0044 639.2213C-0.0044 748.6013 82.5156 823.7913 202.6356 823.7913ZM609.8656 1002.0213H512.6956L557.6156 917.5413C563.4756 906.8013 559.0856 898.9913 548.3356 898.9913H446.2856C432.6156 898.9913 428.2256 903.8713 423.8256 913.6413L361.3256 1055.7313C356.4456 1067.4513 361.8156 1074.7713 374.0256 1074.7713H455.5656L393.0656 1225.6513C390.1356 1232.4813 391.6056 1237.3713 396.4856 1239.3213C400.8756 1241.2713 406.2456 1239.8113 410.6456 1234.4413L617.1856 1025.4513C627.4456 1015.2013 624.0256 1002.0213 609.8656 1002.0213Z"/>
</svg>