<?xml version="1.0" encoding="UTF-8" standalone="no"?>
<svg xmlns="http://www.w3.org/2000/svg"
     width="996.09375" height="996.09375"
     viewBox="0 0 996.09375 996.09375"
     fill="currentColor">
  <path d="M498.0477 996.0977C770.5077 996.0977 996.0977 770.5077 996.0977 498.0477C996.0977 226.0777 770.0177 -0.0023 497.5577 -0.0023C225.5877 -0.0023 -0.0023 226.0777 -0.0023 498.0477C-0.0023 770.5077 226.0777 996.0977 498.0477 996.0977ZM815.9177 373.0477C815.9177 415.0377 766.1177 479.4877 685.0577 487.3077C678.2277 416.0177 623.5377 361.3277 548.8277 351.5577C543.9477 345.2177 539.0577 338.3777 533.6877 332.5177C541.9877 262.6977 601.5577 207.0277 648.9277 204.5877C658.2077 204.5877 664.0577 208.9877 664.0577 216.7977C664.0577 229.4877 646.4877 251.9577 646.4877 283.2077C646.4877 337.3977 683.5977 372.0677 742.6777 372.0677C774.8977 372.0677 793.4577 357.4177 804.6877 357.4177C812.0077 357.4177 815.9177 363.7677 815.9177 373.0477ZM281.2477 619.6277C221.6777 619.6277 181.6377 580.5677 181.6377 527.8277C181.6377 484.8677 208.0077 451.6577 246.0977 438.4777C254.3977 363.2777 318.8477 303.2177 395.5077 303.2177C453.1277 303.2177 501.4677 334.9577 528.8077 385.2577C598.1477 386.7177 650.3877 436.5277 650.3877 501.4677C650.3877 567.8677 598.6377 619.6277 530.7577 619.6277ZM300.7777 726.5577C296.3877 734.3777 284.6677 737.7977 276.3677 732.4177C267.0877 728.0277 264.6477 716.3077 269.5277 708.0077L298.3377 658.6877C302.7377 649.8977 314.4577 646.9677 322.2677 651.8577C332.0277 657.7177 334.9577 667.9677 329.5877 677.2477ZM463.3777 726.0777C458.4977 734.3777 447.7577 737.7977 438.9677 732.4177C429.1977 728.0277 427.2477 715.8177 431.6377 707.5177L459.9577 658.2077C464.8477 649.8977 476.0777 646.9677 484.8677 651.8577C494.1377 657.7177 497.5577 667.9677 492.1877 677.2477ZM365.2377 779.7877C360.3477 788.0877 348.6377 791.5077 340.8177 786.6177C331.0577 781.7377 327.6377 770.5077 332.5177 761.2277L359.8677 714.8477C365.2377 706.5477 375.9777 703.6177 384.7677 708.0077C394.5277 712.8877 396.9777 724.6077 392.0877 733.3977ZM527.3477 779.7877C522.4577 788.5777 511.2277 791.5077 502.9277 786.6177C493.6477 781.7377 490.2377 770.5077 495.1177 761.2277L522.4577 715.3277C527.8277 706.5477 538.5777 703.6177 547.3677 708.0077C556.6377 712.8877 559.0777 724.6077 554.6877 733.3977Z"/>
</svg>