<?xml version="1.0" encoding="UTF-8" standalone="no"?>
<svg xmlns="http://www.w3.org/2000/svg"
     width="996.09375" height="996.09375"
     viewBox="0 0 996.09375 996.09375"
     fill="currentColor">
  <path d="M498.0477 996.0959C770.5077 996.0959 996.0977 770.0159 996.0977 498.0459C996.0977 225.5859 770.0177 -0.0041 497.5577 -0.0041C225.5877 -0.0041 -0.0023 225.5859 -0.0023 498.0459C-0.0023 770.0159 226.0777 996.0959 498.0477 996.0959ZM498.0477 913.0859C267.5777 913.0859 83.4977 728.5159 83.4977 498.0459C83.4977 267.5759 267.0877 83.0059 497.5577 83.0059C728.0277 83.0059 913.0877 267.5759 913.0877 498.0459C913.0877 728.5159 728.5177 913.0859 498.0477 913.0859ZM344.7277 546.3859H635.7377C711.4277 546.3859 769.5277 487.7959 769.5277 416.0159C769.5277 340.8159 708.4977 286.6259 629.3977 286.6259C599.6077 229.0059 545.4077 191.4059 478.0277 191.4059C390.1377 191.4059 317.3877 260.7459 309.0777 347.6559C267.0877 360.3559 234.8677 396.4859 234.8677 446.2859C234.8677 501.4659 274.8977 546.3859 344.7277 546.3859ZM412.1077 754.3959L486.8177 624.9959C493.6477 613.7659 489.7477 600.5859 478.5177 594.2359C467.7777 588.3759 455.0777 591.7959 448.7277 603.0259L373.5377 731.9359C367.1877 742.6759 370.6077 756.3459 381.8377 762.6959C392.5777 768.5559 405.7577 765.1359 412.1077 754.3959ZM633.7877 754.3959L708.9877 624.9959C715.8177 613.7659 711.9177 600.5859 700.6877 594.2359C689.9377 588.3759 677.2477 591.7959 670.4077 603.0259L595.7077 731.9359C589.3577 742.6759 592.7777 756.3459 604.0077 762.6959C614.7477 768.5559 627.9277 765.1359 633.7877 754.3959ZM522.9477 754.3959L597.6577 624.9959C604.4877 613.7659 600.5877 600.5859 589.3577 594.2359C578.6177 588.3759 565.9177 591.7959 559.0777 603.0259L484.3777 731.9359C478.0277 742.6759 481.4477 756.3459 492.6777 762.6959C503.4177 768.5559 516.5977 765.1359 522.9477 754.3959ZM300.7777 754.3959L375.4877 624.9959C382.3277 613.7659 378.4177 600.5859 367.1877 594.2359C356.9377 588.3759 343.7477 591.7959 337.3977 603.0259L262.2077 731.9359C255.8577 742.6759 259.2777 756.3459 270.5077 762.6959C281.2477 768.5559 294.4377 765.1359 300.7777 754.3959Z"/>
</svg>