<?xml version="1.0" encoding="UTF-8" standalone="no"?>
<svg xmlns="http://www.w3.org/2000/svg"
     width="898.92578125" height="898.92578125"
     viewBox="0 0 898.92578125 898.92578125"
     fill="currentColor">
  <path d="M153.3183 898.9295H745.6083C848.1483 898.9295 898.9283 848.1495 898.9283 747.5595V151.3695C898.9283 50.7795 848.1483 -0.0005 745.6083 -0.0005H153.3183C51.2683 -0.0005 -0.0017 50.2895 -0.0017 151.3695V747.5595C-0.0017 848.6295 51.2683 898.9295 153.3183 898.9295ZM244.6283 453.6095C244.6283 313.4795 317.8683 221.1895 431.6383 212.8895L441.4083 175.2895C444.8283 161.6195 454.5883 155.7595 467.2883 155.7595C481.9383 155.7595 491.6983 165.5295 491.6983 180.1795C491.6983 184.0795 490.7183 187.9895 489.7483 191.4095L483.8883 214.8395C499.5083 218.2595 514.1583 222.1695 527.8283 228.0295L541.0183 175.2895C544.9183 161.6195 554.1983 155.7595 566.8983 155.7595C581.5383 155.7595 591.3083 165.5295 591.3083 180.1795C591.3083 184.0795 590.8183 187.4995 589.3583 191.4095L573.2383 255.8595C594.2383 273.9295 610.8383 296.8795 620.6083 323.7295C623.5383 332.0295 625.4883 340.3295 625.4883 348.6295C625.4883 367.6795 613.2783 379.8795 594.7283 379.8795C577.1483 379.8795 569.3383 367.6795 564.4483 355.4695C562.0083 346.6795 557.6183 339.3595 553.2183 334.9595L477.5383 632.3195C521.4883 625.4895 554.1983 595.6995 565.4283 556.1495C570.3083 541.0195 580.5683 528.8095 597.6583 528.8095C617.1883 528.8095 628.9083 542.4795 628.9083 561.0395C628.9083 569.3395 626.9483 578.6095 624.0283 586.4295C602.0483 649.4095 542.9683 691.8895 461.9183 695.7995L449.7083 741.6995C446.7783 755.3695 437.0083 761.2295 424.3183 761.2295C409.1783 761.2295 400.3883 751.4695 400.3883 736.3295C400.3883 732.4195 400.8783 729.4895 401.8583 725.5895L409.6683 692.8695C394.0383 690.4295 379.3983 686.0395 365.7183 679.6895L350.0983 741.6995C347.1683 755.3695 337.3983 761.2295 324.7083 761.2295C310.0583 761.2295 300.2883 751.4695 300.2883 736.3295C300.2883 732.4195 300.7783 728.9995 301.7583 725.0995L320.3083 651.8595C271.9683 610.3495 244.6283 541.4995 244.6283 453.6095ZM381.3483 617.1895C394.5283 625.4895 408.1983 631.3495 424.8083 633.7895L511.7183 290.5295C499.0283 282.7195 484.3783 277.3395 468.7483 275.3895ZM312.4983 453.6095C312.4983 501.4695 322.2683 541.4995 340.8183 571.2895L415.0383 278.3195C351.0783 294.4295 312.4983 359.8595 312.4983 453.6095Z"/>
</svg>