<?xml version="1.0" encoding="UTF-8" standalone="no"?>
<svg xmlns="http://www.w3.org/2000/svg"
     width="996.09375" height="996.09375"
     viewBox="0 0 996.09375 996.09375"
     fill="currentColor">
  <path d="M498.0477 996.0959C770.5077 996.0959 996.0977 770.0159 996.0977 498.0459C996.0977 225.5859 770.0177 -0.0041 497.5577 -0.0041C225.5877 -0.0041 -0.0023 225.5859 -0.0023 498.0459C-0.0023 770.0159 226.0777 996.0959 498.0477 996.0959ZM498.0477 913.0859C267.5777 913.0859 83.4977 728.5159 83.4977 498.0459C83.4977 267.5759 267.0877 83.0059 497.5577 83.0059C728.0277 83.0059 913.0877 267.5759 913.0877 498.0459C913.0877 728.5159 728.5177 913.0859 498.0477 913.0859ZM298.8277 502.4459C298.8277 587.8859 325.6877 654.2959 372.5577 694.8259L354.4877 765.6259C353.5177 769.5359 353.0277 772.9459 353.0277 776.3659C353.0277 791.0159 362.3077 800.7859 376.4677 800.7859C388.6677 800.7859 397.4577 794.9259 400.8777 781.7359L416.0177 721.6759C429.6877 727.5359 443.8477 731.9359 458.9877 734.3759L451.1677 766.1159C449.7077 770.0159 449.2177 772.9459 449.2177 776.3659C449.2177 791.0159 458.4977 800.7859 473.1477 800.7859C484.8677 800.7859 494.1377 794.9259 497.5577 781.7359L508.7877 737.3059C587.8877 733.3959 645.0177 692.3859 666.5077 631.3459C669.4377 623.5359 671.3877 614.7459 671.3877 606.4459C671.3877 588.8659 659.6677 575.6859 641.1177 575.6859C624.5077 575.6859 614.7477 587.4059 609.8677 602.0459C599.1177 640.6259 567.3877 669.4359 524.4177 675.7859L598.1477 387.2059C602.5377 391.6059 606.4477 398.9259 608.8877 407.7159C613.7677 419.4359 621.0977 431.1559 638.1877 431.1559C656.2477 431.1559 667.9677 419.4359 667.9677 400.8759C667.9677 393.0659 666.0177 384.7659 663.0877 376.9559C653.8077 351.0759 637.6977 328.6159 617.1877 311.0359L632.8077 248.5359C634.2777 244.6259 634.7677 241.2059 634.7677 237.7959C634.7677 223.6359 625.4877 213.8659 610.8377 213.8659C599.1177 213.8659 589.8477 219.7259 586.4277 232.9059L572.7577 284.1759C560.0577 278.3159 545.8977 274.4159 530.7577 271.4859L536.1377 248.5359C537.5977 245.1159 538.0877 241.2059 538.0877 237.7959C538.0877 223.6359 528.8077 213.8659 514.1577 213.8659C502.4377 213.8659 493.1677 219.7259 489.7477 232.9059L480.4677 269.5359C370.1177 277.3459 298.8277 366.6959 298.8277 502.4459ZM431.1477 661.1359L516.1177 329.5859C531.2477 331.5459 545.4077 336.9159 558.1077 344.2359L473.6377 677.2459C457.5177 674.8059 443.8477 669.4359 431.1477 661.1359ZM364.2577 502.4459C364.2577 411.6259 401.8577 348.1459 464.3577 332.5159L392.0877 617.1859C374.0277 587.8859 364.2577 549.3159 364.2577 502.4459Z"/>
</svg>