<?xml version="1.0" encoding="UTF-8" standalone="no"?>
<svg xmlns="http://www.w3.org/2000/svg"
     width="898.92578125" height="898.92578125"
     viewBox="0 0 898.92578125 898.92578125"
     fill="currentColor">
  <path d="M153.3183 898.9295H745.6083C848.1483 898.9295 898.9283 848.1495 898.9283 747.5595V151.3695C898.9283 50.7795 848.1483 -0.0005 745.6083 -0.0005H153.3183C51.2683 -0.0005 -0.0017 50.2895 -0.0017 151.3695V747.5595C-0.0017 848.6295 51.2683 898.9295 153.3183 898.9295ZM154.2983 820.3095C105.4683 820.3095 78.6183 794.4295 78.6183 743.6495V155.2695C78.6183 104.4895 105.4683 78.6095 154.2983 78.6095H744.6283C792.9683 78.6095 820.3083 104.4895 820.3083 155.2695V743.6495C820.3083 794.4295 792.9683 820.3095 744.6283 820.3095ZM250.9783 453.1295C250.9783 538.5695 277.8283 604.9795 324.7083 645.5095L306.6383 716.3095C305.6683 720.2195 305.1783 723.6295 305.1783 727.0495C305.1783 741.6995 314.4483 751.4695 328.6183 751.4695C340.8183 751.4695 350.0983 745.6095 353.0283 732.4195L368.1683 672.3595C381.8383 678.2195 395.9983 682.6195 411.1283 685.0595L403.3183 716.7995C402.3483 720.6995 401.8583 723.6295 401.8583 727.0495C401.8583 741.6995 410.6483 751.4695 425.2883 751.4695C437.4983 751.4695 446.7783 745.6095 449.7083 732.4195L461.4283 687.9895C540.0383 684.0795 597.1683 643.0695 618.6483 582.0295C621.5783 574.2195 623.5383 565.4295 623.5383 557.1295C623.5383 539.5495 611.8183 526.3695 593.2583 526.3695C576.6583 526.3695 566.8983 538.0895 562.0083 552.7295C551.2683 591.3095 519.5283 620.1195 476.5583 626.4695L550.2883 337.8895C554.6883 342.2895 558.5983 349.6095 561.0383 358.3995C565.9183 370.1195 573.2383 381.8395 590.3283 381.8395C608.3983 381.8395 620.1183 370.1195 620.1183 351.5595C620.1183 343.7495 618.1683 335.4495 615.2383 327.6395C605.9583 301.7595 589.8483 279.2995 569.3383 261.7195L584.9583 199.2195C586.4283 195.3095 586.9183 191.8895 586.9183 188.4795C586.9183 174.3195 577.6383 164.5495 563.4783 164.5495C551.2683 164.5495 541.9883 170.4095 538.5783 183.5895L525.3883 234.8595C512.2083 228.9995 498.0483 225.0995 482.9083 222.1695L488.7683 199.2195C489.7483 195.7995 490.2383 191.8895 490.2383 188.4795C490.2383 174.3195 480.9583 164.5495 466.7983 164.5495C454.5883 164.5495 445.3083 170.4095 441.8983 183.5895L432.6183 220.2195C322.2683 228.0295 250.9783 317.3795 250.9783 453.1295ZM383.2983 611.8195L468.2583 280.2695C483.3983 282.2295 497.5583 287.5995 510.2583 294.9195L425.7783 627.9295C409.6683 625.4895 395.9983 620.1195 383.2983 611.8195ZM316.4083 453.1295C316.4083 362.3095 354.0083 298.8295 416.5083 283.1995L344.2383 567.8695C326.1683 538.5695 316.4083 499.9995 316.4083 453.1295Z"/>
</svg>