<?xml version="1.0" encoding="UTF-8" standalone="no"?>
<svg xmlns="http://www.w3.org/2000/svg"
     width="898.92578125" height="898.92578125"
     viewBox="0 0 898.92578125 898.92578125"
     fill="currentColor">
  <path d="M153.3183 898.9295H745.6083C848.1483 898.9295 898.9283 848.1495 898.9283 747.5595V151.3695C898.9283 50.7795 848.1483 -0.0005 745.6083 -0.0005H153.3183C51.2683 -0.0005 -0.0017 50.2895 -0.0017 151.3695V747.5595C-0.0017 848.6295 51.2683 898.9295 153.3183 898.9295ZM331.5383 402.8295H293.9483C234.3783 402.8295 187.0083 355.4695 187.0083 296.3895C187.0083 237.3095 234.3783 189.4495 293.9483 189.4495C352.5383 189.4495 400.8783 237.7895 400.8783 296.3895V334.4695H491.6983V296.3895C491.6983 237.7895 539.5483 189.4495 598.6283 189.4495C657.7183 189.4495 705.5683 237.3095 705.5683 296.3895C705.5683 355.4695 657.7183 402.8295 598.6283 402.8295H560.5483V495.1195H598.6283C657.7183 495.1195 705.5683 542.4795 705.5683 601.0695C705.5683 660.6395 657.7183 708.4995 598.6283 708.4995C539.5483 708.4995 491.6983 660.1595 491.6983 601.0695V562.9895H400.8783V601.0695C400.8783 660.1595 352.5383 708.4995 293.9483 708.4995C234.3783 708.4995 187.0083 660.6395 187.0083 601.0695C187.0083 542.4795 234.3783 495.1195 293.9483 495.1195H331.5383ZM293.9483 334.9595H331.5383V296.3895C331.5383 275.8795 314.4483 257.8095 293.9483 257.8095C272.9483 257.8095 255.3683 275.8795 255.3683 296.3895C255.3683 317.8695 272.4583 334.9595 293.9483 334.9595ZM598.6283 334.9595C619.6283 334.9595 637.2083 317.8695 637.2083 296.3895C637.2083 275.8795 619.1383 257.8095 598.6283 257.8095C577.6383 257.8095 560.5483 275.8795 560.5483 296.3895V334.9595ZM400.8783 495.6095H491.6983V402.3395H400.8783ZM293.9483 562.0095C272.9483 562.0095 255.3683 580.0795 255.3683 600.5895C255.3683 622.0695 272.4583 639.1595 293.9483 639.1595C314.4483 639.1595 331.5383 622.0695 331.5383 600.5895V562.0095ZM598.6283 562.0095H560.5483V600.5895C560.5483 622.0695 577.6383 639.1595 598.6283 639.1595C619.6283 639.1595 637.2083 622.0695 637.2083 600.5895C637.2083 580.0795 619.1383 562.0095 598.6283 562.0095Z"/>
</svg>