<?xml version="1.0" encoding="UTF-8" standalone="no"?>
<svg xmlns="http://www.w3.org/2000/svg"
     width="898.92578125" height="898.92578125"
     viewBox="0 0 898.92578125 898.92578125"
     fill="currentColor">
  <path d="M153.3183 898.9295H745.6083C848.1483 898.9295 898.9283 848.1495 898.9283 747.5595V151.3695C898.9283 50.7795 848.1483 -0.0005 745.6083 -0.0005H153.3183C51.2683 -0.0005 -0.0017 50.2895 -0.0017 151.3695V747.5595C-0.0017 848.6295 51.2683 898.9295 153.3183 898.9295ZM154.2983 820.3095C105.4683 820.3095 78.6183 794.4295 78.6183 743.6495V155.2695C78.6183 104.4895 105.4683 78.6095 154.2983 78.6095H744.6283C792.9683 78.6095 820.3083 104.4895 820.3083 155.2695V743.6495C820.3083 794.4295 792.9683 820.3095 744.6283 820.3095ZM334.9583 403.8095V494.1395H298.3383C240.7183 494.1395 194.8283 540.0395 194.8283 596.6795C194.8283 654.2995 240.7183 700.6795 298.3383 700.6795C354.9783 700.6795 401.8583 653.8095 401.8583 596.6795V559.5695H490.7183V596.6795C490.7183 653.8095 537.1083 700.6795 594.2383 700.6795C651.3683 700.6795 697.7583 654.2995 697.7583 596.6795C697.7583 540.0395 651.3683 494.1395 594.2383 494.1395H557.1283V403.8095H594.2383C651.3683 403.8095 697.7583 357.9095 697.7583 300.7795C697.7583 243.6495 651.3683 197.2695 594.2383 197.2695C537.1083 197.2695 490.7183 244.1395 490.7183 300.7795V337.8895H401.8583V300.7795C401.8583 244.1395 354.9783 197.2695 298.3383 197.2695C240.7183 197.2695 194.8283 243.6495 194.8283 300.7795C194.8283 357.9095 240.7183 403.8095 298.3383 403.8095ZM298.3383 338.3795C277.3483 338.3795 260.7383 321.7795 260.7383 300.7795C260.7383 280.7595 277.8283 263.1795 298.3383 263.1795C318.3583 263.1795 334.9583 280.7595 334.9583 300.7795V338.3795ZM594.2383 338.3795H557.1283V300.7795C557.1283 280.7595 574.2183 263.1795 594.2383 263.1795C614.2583 263.1795 631.8383 280.7595 631.8383 300.7795C631.8383 321.7795 614.7483 338.3795 594.2383 338.3795ZM401.8583 494.6295V403.3195H490.7183V494.6295ZM298.3383 558.5895H334.9583V596.1895C334.9583 617.1895 318.3583 633.7895 298.3383 633.7895C277.3483 633.7895 260.7383 617.1895 260.7383 596.1895C260.7383 576.1695 277.8283 558.5895 298.3383 558.5895ZM594.2383 558.5895C614.2583 558.5895 631.8383 576.1695 631.8383 596.1895C631.8383 617.1895 614.7483 633.7895 594.2383 633.7895C574.2183 633.7895 557.1283 617.1895 557.1283 596.1895V558.5895Z"/>
</svg>