<?xml version="1.0" encoding="UTF-8" standalone="no"?>
<svg xmlns="http://www.w3.org/2000/svg"
     width="996.09375" height="996.09375"
     viewBox="0 0 996.09375 996.09375"
     fill="currentColor">
  <path d="M498.0477 996.0977C770.5077 996.0977 996.0977 770.5077 996.0977 498.0477C996.0977 226.0777 770.0177 -0.0023 497.5577 -0.0023C225.5877 -0.0023 -0.0023 226.0777 -0.0023 498.0477C-0.0023 770.5077 226.0777 996.0977 498.0477 996.0977ZM379.8877 452.1477H342.2877C282.7177 452.1477 234.8677 404.7877 234.8677 346.1877C234.8677 286.6177 282.7177 238.7677 342.2877 238.7677C400.8777 238.7677 449.2177 287.1077 449.2177 346.1877V384.2777H540.0377V346.1877C540.0377 287.1077 587.8877 238.7677 646.9777 238.7677C706.0577 238.7677 753.9077 286.6177 753.9077 346.1877C753.9077 404.7877 706.0577 452.1477 646.9777 452.1477H608.8877V544.4377H646.9777C706.0577 544.4377 753.9077 591.7977 753.9077 650.8777C753.9077 709.9577 706.0577 757.8077 646.9777 757.8077C587.8877 757.8077 540.0377 709.4677 540.0377 650.8777V612.7977H449.2177V650.8777C449.2177 709.4677 400.8777 757.8077 342.2877 757.8077C282.7177 757.8077 234.8677 709.9577 234.8677 650.8777C234.8677 591.7977 282.7177 544.4377 342.2877 544.4377H379.8877ZM342.2877 384.7677H379.8877V346.1877C379.8877 325.1977 362.7977 307.6177 342.2877 307.6177C321.2877 307.6177 303.7077 325.1977 303.7077 346.1877C303.7077 367.1877 320.7977 384.7677 342.2877 384.7677ZM646.9777 384.7677C667.9677 384.7677 685.5477 367.1877 685.5477 346.1877C685.5477 325.1977 667.4777 307.6177 646.9777 307.6177C625.9777 307.6177 608.8877 325.1977 608.8877 346.1877V384.7677ZM449.2177 544.9177H540.0377V451.6577H449.2177ZM342.2877 611.8177C321.2877 611.8177 303.7077 629.3977 303.7077 650.3877C303.7077 671.3877 320.7977 688.9677 342.2877 688.9677C362.7977 688.9677 379.8877 671.3877 379.8877 650.3877V611.8177ZM646.9777 611.8177H608.8877V650.3877C608.8877 671.3877 625.9777 688.9677 646.9777 688.9677C667.9677 688.9677 685.5477 671.3877 685.5477 650.3877C685.5477 629.3977 667.4777 611.8177 646.9777 611.8177Z"/>
</svg>