<?xml version="1.0" encoding="UTF-8" standalone="no"?>
<svg xmlns="http://www.w3.org/2000/svg"
     width="922.36328125" height="922.8515625"
     viewBox="0 0 922.36328125 922.8515625"
     fill="currentColor">
  <path d="M272.4583 347.6548V575.6848H174.3183C78.1283 575.6848 -0.0017 651.3648 -0.0017 748.0448C-0.0017 844.7248 78.1283 922.8548 174.3183 922.8548C270.5083 922.8548 348.6283 844.7248 348.6283 748.0448V650.3948H573.7283V748.0448C573.7283 844.7248 651.8583 922.8548 748.0483 922.8548C844.2383 922.8548 922.3683 844.7248 922.3683 748.0448C922.3683 651.3648 844.2383 575.6848 748.0483 575.6848H649.8983V347.6548H748.0483C844.2383 347.6548 922.3683 271.9748 922.3683 175.2948C922.3683 78.6148 844.2383 0.0048 748.0483 0.0048C651.8583 0.0048 573.7283 78.6148 573.7283 175.2948V272.9448H348.6283V175.2948C348.6283 78.6148 270.5083 0.0048 174.3183 0.0048C78.1283 0.0048 -0.0017 78.6148 -0.0017 175.2948C-0.0017 271.9748 78.1283 347.6548 174.3183 347.6548ZM174.3183 273.9248C120.6083 273.9248 76.1683 229.4948 76.1683 175.2948C76.1683 121.0948 120.6083 76.1748 174.3183 76.1748C228.0283 76.1748 272.4583 121.0948 272.4583 175.2948V273.9248ZM748.0483 273.9248H649.8983V175.2948C649.8983 121.0948 694.3383 76.1748 748.0483 76.1748C801.7583 76.1748 846.1883 121.0948 846.1883 175.2948C846.1883 229.4948 801.7583 273.9248 748.0483 273.9248ZM348.6283 576.6648V346.6748H573.7283V576.6648ZM174.3183 648.9248H272.4583V747.5548C272.4583 801.7548 228.0283 846.1948 174.3183 846.1948C120.6083 846.1948 76.1683 801.7548 76.1683 747.5548C76.1683 693.3548 120.6083 648.9248 174.3183 648.9248ZM748.0483 648.9248C801.7583 648.9248 846.1883 693.3548 846.1883 747.5548C846.1883 801.7548 801.7583 846.1948 748.0483 846.1948C694.3383 846.1948 649.8983 801.7548 649.8983 747.5548V648.9248Z"/>
</svg>