<?xml version="1.0" encoding="UTF-8" standalone="no"?>
<svg xmlns="http://www.w3.org/2000/svg"
     width="982.421875" height="1062.01171875"
     viewBox="0 0 982.421875 1062.01171875"
     fill="currentColor">
  <path d="M0.0006 861.3245C0.0006 977.0545 206.5406 1062.0145 491.2106 1062.0145C775.8806 1062.0145 982.4206 977.0545 982.4206 861.3245C982.4206 845.7045 975.1006 822.2645 963.8706 801.2645L537.1106 28.3245C523.9306 4.3945 507.3206 0.0045 491.2106 0.0045C475.1006 0.0045 458.5006 4.3945 445.3106 28.3245L18.5506 801.2645C7.3206 822.2645 0.0006 845.7045 0.0006 861.3245ZM76.1706 861.3245C76.1706 855.9545 81.5406 844.7245 87.8906 833.4945L482.4206 121.0945C484.3706 116.6945 487.3006 115.2345 491.2106 115.2345C495.1206 115.2345 498.0506 116.6945 500.0006 121.0945L894.5306 833.4945C900.8806 844.7245 906.2506 855.9545 906.2506 861.3245C906.2506 920.4145 710.9406 985.3545 491.2106 985.3545C271.4806 985.3545 76.1706 920.4145 76.1706 861.3245Z"/>
</svg>