<?xml version="1.0" encoding="UTF-8" standalone="no"?>
<svg xmlns="http://www.w3.org/2000/svg"
     width="858.3984375" height="1298.33984375"
     viewBox="0 0 858.3984375 1298.33984375"
     fill="currentColor">
  <path d="M428.7083 0.0031C407.2283 0.0031 390.6283 17.0931 390.6283 38.0831V224.6131H466.7983V38.0831C466.7983 17.0931 450.1983 0.0031 428.7083 0.0031ZM153.3183 1073.7331H390.6283V224.6131H153.3183C51.2683 224.6131 -0.0017 275.3931 -0.0017 375.9731V922.8531C-0.0017 1023.4331 51.2683 1073.7331 153.3183 1073.7331ZM705.0783 1073.7331C807.6183 1073.7331 858.3983 1022.9531 858.3983 922.8531V375.9731C858.3983 275.3931 807.6183 224.6131 705.0783 224.6131H466.7983V1073.7331ZM154.2983 995.1131C105.4683 995.1131 78.6183 969.2431 78.6183 918.4531V380.3731C78.6183 329.5931 105.4683 303.2231 154.2983 303.2231H312.0083V995.1131ZM704.0983 995.1131H545.4083V303.2231H704.0983C751.9483 303.2231 779.7883 329.5931 779.7883 380.3731V918.4531C779.7883 969.2431 751.9483 995.1131 704.0983 995.1131ZM428.7083 1298.3431C450.1983 1298.3431 466.7983 1281.7431 466.7983 1260.2531V1073.7331H390.6283V1260.2531C390.6283 1281.7431 407.2283 1298.3431 428.7083 1298.3431Z"/>
</svg>