<?xml version="1.0" encoding="UTF-8" standalone="no"?>
<svg xmlns="http://www.w3.org/2000/svg"
     width="1178.22265625" height="958.984375"
     viewBox="0 0 1178.22265625 958.984375"
     fill="currentColor">
  <path d="M145.5083 958.983H1032.7183C1129.3983 958.983 1178.2183 909.673 1178.2183 814.943V144.043C1178.2183 49.313 1129.3983 0.003 1032.7183 0.003H145.5083C49.3183 0.003 -0.0017 49.313 -0.0017 144.043V814.943C-0.0017 909.673 49.3183 958.983 145.5083 958.983ZM300.2883 441.403C217.2883 441.403 149.4183 373.043 149.4183 290.043C149.4183 207.033 217.2883 138.673 300.2883 138.673C383.7883 138.673 451.6583 207.033 451.6583 290.043C451.6583 373.043 383.7883 441.403 300.2883 441.403ZM690.9183 441.403C607.4183 441.403 539.5483 373.043 539.5483 290.043C539.5483 207.033 607.4183 138.673 690.9183 138.673C774.4183 138.673 841.7983 207.033 841.7983 290.043C841.7983 373.043 774.4183 441.403 690.9183 441.403ZM300.2883 393.063C357.4183 393.063 403.8083 347.163 403.8083 290.043C403.8083 232.913 357.4183 187.013 300.2883 187.013C243.6483 187.013 197.7583 232.913 197.7583 290.043C197.7583 347.163 243.6483 393.063 300.2883 393.063ZM690.9183 393.063C748.0483 393.063 793.9483 347.163 793.9483 290.043C793.9483 232.913 748.0483 187.013 690.9183 187.013C634.2783 187.013 587.8883 232.913 587.8883 290.043C587.8883 347.163 634.2783 393.063 690.9183 393.063ZM300.2883 369.633C256.3483 369.633 221.6783 334.963 221.6783 290.043C221.6783 245.113 256.3483 210.933 300.2883 210.933C345.2183 210.933 379.3983 245.113 379.3983 290.043C379.3983 334.963 345.2183 369.633 300.2883 369.633ZM690.9183 369.633C645.9983 369.633 611.3283 334.963 611.3283 290.043C611.3283 245.113 645.9983 210.933 690.9183 210.933C735.3483 210.933 770.0183 245.113 770.0183 290.043C770.0183 334.963 735.3483 369.633 690.9183 369.633ZM1001.4683 306.153C976.5583 306.153 957.0283 286.623 957.0283 261.723C957.0283 237.793 976.5583 217.773 1001.4683 217.773C1025.8783 217.773 1045.4083 237.793 1045.4083 261.723C1045.4083 286.623 1025.8783 306.153 1001.4683 306.153ZM1001.4683 450.683C976.5583 450.683 957.0283 431.643 957.0283 406.253C957.0283 382.323 976.5583 362.303 1001.4683 362.303C1025.8783 362.303 1045.4083 382.323 1045.4083 406.253C1045.4083 431.643 1025.8783 450.683 1001.4683 450.683ZM1001.4683 596.193C976.5583 596.193 957.0283 576.173 957.0283 551.753C957.0283 526.853 976.5583 507.813 1001.4683 507.813C1025.8783 507.813 1045.4083 526.853 1045.4083 551.753C1045.4083 576.173 1025.8783 596.193 1001.4683 596.193ZM300.2883 818.843C217.2883 818.843 149.4183 750.973 149.4183 667.483C149.4183 584.473 217.2883 516.603 300.2883 516.603C383.7883 516.603 451.6583 584.473 451.6583 667.483C451.6583 750.973 383.7883 818.843 300.2883 818.843ZM690.9183 818.843C607.4183 818.843 539.5483 750.973 539.5483 667.483C539.5483 584.473 607.4183 516.603 690.9183 516.603C774.4183 516.603 841.7983 584.473 841.7983 667.483C841.7983 750.973 774.4183 818.843 690.9183 818.843ZM300.2883 770.503C357.4183 770.503 403.8083 725.093 403.8083 667.483C403.8083 610.353 357.4183 564.943 300.2883 564.943C243.6483 564.943 197.7583 610.353 197.7583 667.483C197.7583 725.093 243.6483 770.503 300.2883 770.503ZM690.9183 770.503C748.0483 770.503 793.9483 725.093 793.9483 667.483C793.9483 610.353 748.0483 564.943 690.9183 564.943C634.2783 564.943 587.8883 610.353 587.8883 667.483C587.8883 725.093 634.2783 770.503 690.9183 770.503ZM300.2883 747.073C256.3483 747.073 221.6783 712.403 221.6783 667.483C221.6783 623.043 256.3483 588.383 300.2883 588.383C345.2183 588.383 379.3983 623.043 379.3983 667.483C379.3983 712.403 345.2183 747.073 300.2883 747.073ZM690.9183 747.073C645.9983 747.073 611.3283 712.403 611.3283 667.483C611.3283 623.043 645.9983 588.383 690.9183 588.383C735.3483 588.383 770.0183 623.043 770.0183 667.483C770.0183 712.403 735.3483 747.073 690.9183 747.073ZM1001.4683 740.723C976.5583 740.723 957.0283 720.703 957.0283 696.293C957.0283 671.873 976.5583 652.343 1001.4683 652.343C1025.8783 652.343 1045.4083 671.873 1045.4083 696.293C1045.4083 720.703 1025.8783 740.723 1001.4683 740.723Z"/>
</svg>