<?xml version="1.0" encoding="UTF-8" standalone="no"?>
<svg xmlns="http://www.w3.org/2000/svg"
     width="1178.22265625" height="958.984375"
     viewBox="0 0 1178.22265625 958.984375"
     fill="currentColor">
  <path d="M145.5083 958.983H1032.7183C1129.3983 958.983 1178.2183 909.673 1178.2183 814.943V144.043C1178.2183 49.313 1129.3983 0.003 1032.7183 0.003H145.5083C49.3183 0.003 -0.0017 49.313 -0.0017 144.043V814.943C-0.0017 909.673 49.3183 958.983 145.5083 958.983ZM145.9983 880.373C103.0283 880.373 78.6183 855.953 78.6183 811.033V147.953C78.6183 103.023 103.0283 78.613 145.9983 78.613H1032.2283C1075.1983 78.613 1099.6083 103.023 1099.6083 147.953V811.033C1099.6083 855.953 1075.1983 880.373 1032.2283 880.373ZM314.4483 442.383C395.0183 442.383 460.9383 376.463 460.9383 295.903C460.9383 215.333 395.0183 149.413 314.4483 149.413C233.8883 149.413 167.9683 215.333 167.9683 295.903C167.9683 376.463 233.8883 442.383 314.4483 442.383ZM692.8683 442.383C773.4383 442.383 838.8683 376.463 838.8683 295.903C838.8683 215.333 773.4383 149.413 692.8683 149.413C611.8183 149.413 546.3883 215.333 546.3883 295.903C546.3883 376.463 611.8183 442.383 692.8683 442.383ZM314.4483 395.993C259.2783 395.993 214.8483 351.073 214.8483 295.903C214.8483 240.723 259.2783 195.803 314.4483 195.803C369.6283 195.803 414.5483 240.723 414.5483 295.903C414.5483 351.073 369.6283 395.993 314.4483 395.993ZM692.8683 395.993C637.6983 395.993 592.7783 351.073 592.7783 295.903C592.7783 240.723 637.6983 195.803 692.8683 195.803C748.0483 195.803 792.4783 240.723 792.4783 295.903C792.4783 351.073 748.0483 395.993 692.8683 395.993ZM314.4483 373.043C357.9083 373.043 391.1183 339.353 391.1183 295.903C391.1183 252.443 357.9083 219.243 314.4483 219.243C271.4883 219.243 237.7883 252.443 237.7883 295.903C237.7883 339.353 271.4883 373.043 314.4483 373.043ZM692.8683 373.043C735.8383 373.043 769.5283 339.353 769.5283 295.903C769.5283 252.443 735.8383 219.243 692.8683 219.243C649.4183 219.243 615.7183 252.443 615.7183 295.903C615.7183 339.353 649.4183 373.043 692.8683 373.043ZM988.7683 311.523C1012.6983 311.523 1031.2483 292.483 1031.2483 268.553C1031.2483 245.113 1012.6983 226.073 988.7683 226.073C964.8483 226.073 945.7983 245.113 945.7983 268.553C945.7983 292.483 964.8483 311.523 988.7683 311.523ZM988.7683 451.663C1012.6983 451.663 1031.2483 433.103 1031.2483 408.693C1031.2483 385.253 1012.6983 366.213 988.7683 366.213C964.8483 366.213 945.7983 385.253 945.7983 408.693C945.7983 433.103 964.8483 451.663 988.7683 451.663ZM988.7683 592.283C1012.6983 592.283 1031.2483 573.243 1031.2483 549.313C1031.2483 525.393 1012.6983 506.833 988.7683 506.833C964.8483 506.833 945.7983 525.393 945.7983 549.313C945.7983 573.243 964.8483 592.283 988.7683 592.283ZM314.4483 808.103C395.0183 808.103 460.9383 742.673 460.9383 661.623C460.9383 581.053 395.0183 515.623 314.4483 515.623C233.8883 515.623 167.9683 581.053 167.9683 661.623C167.9683 742.673 233.8883 808.103 314.4483 808.103ZM692.8683 808.103C773.4383 808.103 838.8683 742.673 838.8683 661.623C838.8683 581.053 773.4383 515.623 692.8683 515.623C611.8183 515.623 546.3883 581.053 546.3883 661.623C546.3883 742.673 611.8183 808.103 692.8683 808.103ZM314.4483 761.723C259.2783 761.723 214.8483 717.283 214.8483 661.623C214.8483 606.443 259.2783 562.013 314.4483 562.013C369.6283 562.013 414.5483 606.443 414.5483 661.623C414.5483 717.283 369.6283 761.723 314.4483 761.723ZM692.8683 761.723C637.6983 761.723 592.7783 717.283 592.7783 661.623C592.7783 606.443 637.6983 562.013 692.8683 562.013C748.0483 562.013 792.4783 606.443 792.4783 661.623C792.4783 717.283 748.0483 761.723 692.8683 761.723ZM314.4483 738.773C357.9083 738.773 391.1183 705.083 391.1183 661.623C391.1183 618.653 357.9083 584.963 314.4483 584.963C271.4883 584.963 237.7883 618.653 237.7883 661.623C237.7883 705.083 271.4883 738.773 314.4483 738.773ZM692.8683 738.773C735.8383 738.773 769.5283 705.083 769.5283 661.623C769.5283 618.653 735.8383 584.963 692.8683 584.963C649.4183 584.963 615.7183 618.653 615.7183 661.623C615.7183 705.083 649.4183 738.773 692.8683 738.773ZM988.7683 732.423C1012.6983 732.423 1031.2483 713.383 1031.2483 689.453C1031.2483 666.013 1012.6983 646.973 988.7683 646.973C964.8483 646.973 945.7983 666.013 945.7983 689.453C945.7983 713.383 964.8483 732.423 988.7683 732.423Z"/>
</svg>