<?xml version="1.0" encoding="UTF-8" standalone="no"?>
<svg xmlns="http://www.w3.org/2000/svg"
     width="980.95703125" height="975.09765625"
     viewBox="0 0 980.95703125 975.09765625"
     fill="currentColor">
  <path d="M130.3683 889.1555H291.9883V936.0355C291.9883 959.4755 307.6183 975.0955 331.0583 975.0955C354.4883 975.0955 370.6083 959.4755 370.6083 936.0355V889.1555H453.6183V936.0355C453.6183 959.4755 469.7283 975.0955 493.1683 975.0955C516.5983 975.0955 532.2283 959.4755 532.2283 936.0355V889.1555H617.1883V936.0355C617.1883 959.4755 632.8083 975.0955 656.2483 975.0955C679.6883 975.0955 695.7983 959.4755 695.7983 936.0355V889.1555H855.9583C879.3983 889.1555 895.0183 874.0255 895.0183 850.5855V687.9855H941.4083C964.8483 687.9855 980.9583 671.8755 980.9583 648.4355C980.9583 624.9955 964.8483 609.3755 941.4083 609.3755H895.0183V525.8755H941.4083C964.8483 525.8755 980.9583 510.2555 980.9583 486.8155C980.9583 463.3755 964.8483 447.2655 941.4083 447.2655H895.0183V364.2555H941.4083C964.8483 364.2555 980.9583 348.1455 980.9583 324.7055C980.9583 301.2655 964.8483 285.6455 941.4083 285.6455H895.0183V124.5155C895.0183 101.0755 879.3983 85.4455 855.9583 85.4455H694.3383V39.0655C694.3383 15.6255 678.2183 -0.0045 654.7883 -0.0045C631.3483 -0.0045 615.7183 15.6255 615.7183 39.0655V85.4455H532.2283V39.0655C532.2283 15.6255 516.5983 -0.0045 493.1683 -0.0045C469.7283 -0.0045 453.6183 15.6255 453.6183 39.0655V85.4455H370.6083V39.0655C370.6083 15.6255 354.4883 -0.0045 331.0583 -0.0045C307.6183 -0.0045 291.9883 15.6255 291.9883 39.0655V85.4455H130.3683C106.4483 85.4455 91.3083 101.0755 91.3083 124.5155V286.1355H39.0583C15.6283 286.1355 -0.0017 301.7555 -0.0017 325.1955C-0.0017 348.6355 15.6283 364.7455 39.0583 364.7455H91.3083V447.7555H39.0583C15.6283 447.7555 -0.0017 463.8655 -0.0017 487.3055C-0.0017 510.7455 15.6283 526.3655 39.0583 526.3655H91.3083V609.8655H39.0583C15.6283 609.8655 -0.0017 625.4855 -0.0017 648.9255C-0.0017 672.3655 15.6283 688.4755 39.0583 688.4755H91.3083V850.5855C91.3083 874.0255 106.4483 889.1555 130.3683 889.1555ZM184.0783 810.5455C173.8283 810.5455 169.9183 807.1255 169.9183 796.3855V178.7155C169.9183 167.9655 173.8283 164.0655 184.0783 164.0655H802.2483C812.4983 164.0655 816.4083 167.9655 816.4083 178.7155V796.3855C816.4083 807.1255 812.4983 810.5455 802.2483 810.5455ZM311.5283 706.0555H674.8083C699.7083 706.0555 711.9183 694.3355 711.9183 668.4555V306.1555C711.9183 280.7655 699.7083 269.0455 674.8083 269.0455H311.5283C286.6183 269.0455 274.4183 280.7655 274.4183 306.1555V668.4555C274.4183 694.3355 286.6183 706.0555 311.5283 706.0555ZM350.0983 642.0855C343.2583 642.0855 338.3783 637.2055 338.3783 630.3755V344.7255C338.3783 337.4055 343.2583 333.0055 350.0983 333.0055H635.7383C643.0683 333.0055 647.9483 337.4055 647.9483 344.7255V630.3755C647.9483 637.2055 643.0683 642.0855 635.7383 642.0855Z"/>
</svg>