<?xml version="1.0" encoding="UTF-8" standalone="no"?>
<svg xmlns="http://www.w3.org/2000/svg"
     width="980.95703125" height="975.09765625"
     viewBox="0 0 980.95703125 975.09765625"
     fill="currentColor">
  <path d="M130.3683 889.1555H291.9883V936.0355C291.9883 959.4755 307.6183 975.0955 331.0583 975.0955C354.4883 975.0955 370.6083 959.4755 370.6083 936.0355V889.1555H453.6183V936.0355C453.6183 959.4755 469.7283 975.0955 493.1683 975.0955C516.5983 975.0955 532.2283 959.4755 532.2283 936.0355V889.1555H617.1883V936.0355C617.1883 959.4755 632.8083 975.0955 656.2483 975.0955C679.6883 975.0955 695.7983 959.4755 695.7983 936.0355V889.1555H855.9583C879.3983 889.1555 895.0183 874.0255 895.0183 850.5855V687.9855H941.4083C964.8483 687.9855 980.9583 671.8755 980.9583 648.4355C980.9583 624.9955 964.8483 609.3755 941.4083 609.3755H895.0183V525.8755H941.4083C964.8483 525.8755 980.9583 510.2555 980.9583 486.8155C980.9583 463.3755 964.8483 447.2655 941.4083 447.2655H895.0183V364.2555H941.4083C964.8483 364.2555 980.9583 348.1455 980.9583 324.7055C980.9583 301.2655 964.8483 285.6455 941.4083 285.6455H895.0183V124.5155C895.0183 101.0755 879.3983 85.4455 855.9583 85.4455H694.3383V39.0655C694.3383 15.6255 678.2183 -0.0045 654.7883 -0.0045C631.3483 -0.0045 615.7183 15.6255 615.7183 39.0655V85.4455H532.2283V39.0655C532.2283 15.6255 516.5983 -0.0045 493.1683 -0.0045C469.7283 -0.0045 453.6183 15.6255 453.6183 39.0655V85.4455H370.6083V39.0655C370.6083 15.6255 354.4883 -0.0045 331.0583 -0.0045C307.6183 -0.0045 291.9883 15.6255 291.9883 39.0655V85.4455H130.3683C106.4483 85.4455 91.3083 101.0755 91.3083 124.5155V286.1355H39.0583C15.6283 286.1355 -0.0017 301.7555 -0.0017 325.1955C-0.0017 348.6355 15.6283 364.7455 39.0583 364.7455H91.3083V447.7555H39.0583C15.6283 447.7555 -0.0017 463.8655 -0.0017 487.3055C-0.0017 510.7455 15.6283 526.3655 39.0583 526.3655H91.3083V609.8655H39.0583C15.6283 609.8655 -0.0017 625.4855 -0.0017 648.9255C-0.0017 672.3655 15.6283 688.4755 39.0583 688.4755H91.3083V850.5855C91.3083 874.0255 106.4483 889.1555 130.3683 889.1555ZM306.1483 712.8955C280.2783 712.8955 267.5783 700.6855 267.5783 673.8255V300.7855C267.5783 274.4155 280.2783 262.2055 306.1483 262.2055H680.1783C706.0583 262.2055 718.7483 274.4155 718.7483 300.7855V673.8255C718.7483 700.6855 706.0583 712.8955 680.1783 712.8955ZM346.1883 646.4855H639.6483C647.4583 646.4855 652.3483 641.6055 652.3483 634.2755V340.8155C652.3483 333.0055 647.4583 328.6155 639.6483 328.6155H346.1883C338.8683 328.6155 333.9883 333.0055 333.9883 340.8155V634.2755C333.9883 641.6055 338.8683 646.4855 346.1883 646.4855Z"/>
</svg>