<?xml version="1.0" encoding="UTF-8" standalone="no"?>
<svg xmlns="http://www.w3.org/2000/svg"
     width="1147.4609375" height="833.984375"
     viewBox="0 0 1147.4609375 833.984375"
     fill="currentColor">
  <path d="M153.3183 833.983H994.1383C1096.6783 833.983 1147.4583 783.693 1147.4583 683.103V151.363C1147.4583 50.783 1096.6783 0.003 994.1383 0.003H153.3183C51.2683 0.003 -0.0017 50.783 -0.0017 151.363V683.103C-0.0017 783.693 51.2683 833.983 153.3183 833.983ZM78.6183 155.763C78.6183 104.983 105.4683 78.613 154.2983 78.613H993.1683C1041.0183 78.613 1068.8483 104.983 1068.8483 155.763V194.333H78.6183ZM154.2983 755.373C105.4683 755.373 78.6183 729.493 78.6183 678.713V305.173H1068.8483V678.713C1068.8483 729.493 1041.0183 755.373 993.1683 755.373ZM219.2383 663.083H338.8683C367.6783 663.083 386.7183 643.553 386.7183 616.213V525.883C386.7183 498.043 367.6783 479.003 338.8683 479.003H219.2383C190.4283 479.003 171.3883 498.043 171.3883 525.883V616.213C171.3883 643.553 190.4283 663.083 219.2383 663.083Z"/>
</svg>