<?xml version="1.0" encoding="UTF-8" standalone="no"?>
<svg xmlns="http://www.w3.org/2000/svg"
     width="1147.4609375" height="833.984375"
     viewBox="0 0 1147.4609375 833.984375"
     fill="currentColor">
  <path d="M994.1383 0.003H153.3183C51.2683 0.003 -0.0017 50.783 -0.0017 151.363V196.773H1147.4583V151.363C1147.4583 50.783 1096.6783 0.003 994.1383 0.003ZM199.7083 682.613C170.8983 682.613 151.8583 663.083 151.8583 635.743V545.413C151.8583 517.583 170.8983 498.533 199.7083 498.533H319.3383C348.1483 498.533 367.1883 517.583 367.1883 545.413V635.743C367.1883 663.083 348.1483 682.613 319.3383 682.613ZM153.3183 833.983H994.1383C1096.6783 833.983 1147.4583 783.693 1147.4583 683.103V307.613H-0.0017V683.103C-0.0017 783.693 51.2683 833.983 153.3183 833.983Z"/>
</svg>