<?xml version="1.0" encoding="UTF-8" standalone="no"?>
<svg xmlns="http://www.w3.org/2000/svg"
     width="1070.80078125" height="1067.87109375"
     viewBox="0 0 1070.80078125 1067.87109375"
     fill="currentColor">
  <path d="M-0.0017 271.4855C-0.0017 294.9255 15.1383 308.5955 38.5783 308.5955H234.8683V794.4355C234.8683 817.8755 249.9983 833.0055 273.4383 833.0055H757.3283V1026.8555C757.3283 1051.2655 772.9483 1067.8755 796.3883 1067.8755C820.3083 1067.8755 835.9383 1051.2655 835.9383 1026.8555V833.0055H1031.7383C1055.6683 833.0055 1070.7983 818.8455 1070.7983 796.3855C1070.7983 773.4355 1055.6683 759.2755 1031.7383 759.2755H835.9383V273.9255C835.9383 250.4855 820.7983 234.8655 797.3683 234.8655H313.4783V41.0155C313.4783 16.6055 297.8483 -0.0045 273.9283 -0.0045C250.4883 -0.0045 234.8683 16.6055 234.8683 41.0155V234.8655H38.5783C15.1383 234.8655 -0.0017 249.0255 -0.0017 271.4855ZM327.6383 759.2755C316.8983 759.2755 313.4783 755.8555 313.4783 745.1155V308.5955H743.1683C753.9083 308.5955 757.3283 312.4955 757.3283 322.7555V759.2755Z"/>
</svg>