<?xml version="1.0" encoding="UTF-8" standalone="no"?>
<svg xmlns="http://www.w3.org/2000/svg"
     width="996.09375" height="996.09375"
     viewBox="0 0 996.09375 996.09375"
     fill="currentColor">
  <path d="M498.0477 996.0959C770.5077 996.0959 996.0977 770.0159 996.0977 498.0459C996.0977 225.5859 770.0177 -0.0041 497.5577 -0.0041C225.5877 -0.0041 -0.0023 225.5859 -0.0023 498.0459C-0.0023 770.0159 226.0777 996.0959 498.0477 996.0959ZM498.0477 913.0859C267.5777 913.0859 83.4977 728.5159 83.4977 498.0459C83.4977 267.5759 267.0877 83.0059 497.5577 83.0059C728.0277 83.0059 913.0877 267.5759 913.0877 498.0459C913.0877 728.5159 728.5177 913.0859 498.0477 913.0859ZM296.3877 714.8459H698.7277C749.9977 714.8459 775.8777 689.9459 775.8777 639.1559V395.5059C775.8777 344.2359 749.9977 319.3359 698.7277 319.3359H646.4877V294.4359C646.4877 255.8559 621.0977 232.4259 581.0577 232.4259H414.0577C374.0277 232.4259 348.6377 255.8559 348.6377 294.4359V319.3359H296.3877C245.1177 319.3359 219.7277 344.2359 219.7277 395.5059V639.1559C219.7277 689.9459 245.1177 714.8459 296.3877 714.8459ZM395.5077 296.8759C395.5077 284.1759 403.8077 276.3659 417.4777 276.3659H578.6177C591.7977 276.3659 600.0977 284.1759 600.0977 296.8759V319.3359H395.5077ZM382.3277 538.5759V494.6259C382.3277 481.4459 390.6277 472.6559 403.8077 472.6559H454.0977V423.3359C454.0977 409.6659 462.8877 401.8559 475.5877 401.8559H519.5277C532.7177 401.8559 541.0177 409.6659 541.0177 423.3359V472.6559H591.7977C604.4877 472.6559 612.7977 481.4459 612.7977 494.6259V538.5759C612.7977 552.2459 604.4877 560.5459 591.7977 560.5459H541.0177V610.8359C541.0177 623.5359 532.7177 632.3259 519.5277 632.3259H475.5877C462.8877 632.3259 454.0977 623.5359 454.0977 610.8359V560.5459H403.8077C390.6277 560.5459 382.3277 552.2459 382.3277 538.5759Z"/>
</svg>