<?xml version="1.0" encoding="UTF-8" standalone="no"?>
<svg xmlns="http://www.w3.org/2000/svg"
     width="669.43359375" height="1168.9453125"
     viewBox="0 0 669.43359375 1168.9453125"
     fill="currentColor">
  <path d="M157.7183 1168.95H511.7183C606.9383 1168.95 669.4383 1105.96 669.4383 1008.79V455.08C669.4383 357.91 606.9383 294.92 511.7183 294.92H492.1883V224.12H498.0483C551.2683 224.12 583.0083 191.89 583.0083 137.7V86.43C583.0083 32.23 551.2683 0 498.0483 0H170.8983C118.1683 0 86.4283 32.23 86.4283 86.43V137.7C86.4283 191.89 118.1683 224.12 170.8983 224.12H177.2483V294.92H157.7183C62.4983 294.92 -0.0017 357.91 -0.0017 455.08V1008.79C-0.0017 1105.96 62.4983 1168.95 157.7183 1168.95ZM146.4883 767.58V696.29C146.4883 674.8 160.6483 661.62 181.1483 661.62H264.1583V579.1C264.1583 558.11 277.3483 544.43 298.8283 544.43H370.1183C391.5983 544.43 404.7883 558.11 404.7883 579.1V661.62H487.7883C507.8083 661.62 522.9483 674.8 522.9483 696.29V767.58C522.9483 789.06 507.8083 802.25 487.7883 802.25H404.7883V884.77C404.7883 905.76 391.5983 919.92 370.1183 919.92H298.8283C277.3483 919.92 264.1583 905.76 264.1583 884.77V802.25H181.1483C160.6483 802.25 146.4883 789.06 146.4883 767.58Z"/>
</svg>