<?xml version="1.0" encoding="UTF-8" standalone="no"?>
<svg xmlns="http://www.w3.org/2000/svg"
     width="669.43359375" height="1168.9453125"
     viewBox="0 0 669.43359375 1168.9453125"
     fill="currentColor">
  <path d="M-0.0017 1008.79C-0.0017 1105.96 62.4983 1168.95 157.7183 1168.95H511.7183C606.9383 1168.95 669.4383 1105.96 669.4383 1008.79V455.08C669.4383 357.91 606.9383 294.92 511.7183 294.92V223.63C556.6383 218.75 583.0083 187.01 583.0083 137.7V86.43C583.0083 32.23 551.2683 0 498.0483 0H170.8983C118.1683 0 86.4283 32.23 86.4283 86.43V137.7C86.4283 187.01 112.7883 218.75 157.7183 223.63V294.92C62.4983 294.92 -0.0017 357.91 -0.0017 455.08ZM155.2783 136.72V87.4C155.2783 75.68 162.1083 68.36 174.3183 68.36H494.6283C506.8383 68.36 514.1583 75.68 514.1583 87.4V136.72C514.1583 147.95 506.8383 155.76 494.6283 155.76H174.3183C162.1083 155.76 155.2783 147.95 155.2783 136.72ZM226.5583 294.92V224.12H442.8683V294.92ZM74.7083 1007.81V456.05C74.7083 403.81 108.8883 370.12 161.6183 370.12H507.8083C560.5483 370.12 594.7283 403.81 594.7283 456.05V1007.81C594.7283 1060.55 560.5483 1094.24 507.8083 1094.24H161.6183C108.8883 1094.24 74.7083 1060.55 74.7083 1007.81ZM152.3483 766.6C152.3483 787.11 166.0183 800.29 186.0383 800.29H266.1183V879.88C266.1183 900.39 279.2983 914.06 299.8083 914.06H369.1383C389.6483 914.06 402.8283 900.39 402.8283 879.88V800.29H482.9083C502.4383 800.29 517.0883 787.11 517.0883 766.6V697.27C517.0883 676.76 502.4383 663.57 482.9083 663.57H402.8283V583.98C402.8283 563.48 389.6483 550.29 369.1383 550.29H299.8083C279.2983 550.29 266.1183 563.48 266.1183 583.98V663.57H186.0383C166.0183 663.57 152.3483 676.76 152.3483 697.27Z"/>
</svg>