<?xml version="1.0" encoding="UTF-8" standalone="no"?>
<svg xmlns="http://www.w3.org/2000/svg"
     width="1014.6484375" height="1014.16015625"
     viewBox="0 0 1014.6484375 1014.16015625"
     fill="currentColor">
  <path d="M-0.0017 604.4933C-0.0017 660.6433 38.5783 698.2433 95.2183 698.2433H315.9183V919.4333C315.9183 976.0733 353.5183 1014.1633 409.6683 1014.1633H604.9783C661.1283 1014.1633 698.7283 976.0733 698.7283 919.4333V698.2433H919.9183C976.5583 698.2433 1014.6483 660.6433 1014.6483 604.4933V409.1833C1014.6483 353.0233 976.5583 315.4333 919.9183 315.4333H698.7283V94.7233C698.7283 38.0833 661.1283 0.0033 604.9783 0.0033H409.6683C353.5183 0.0033 315.9183 38.0833 315.9183 94.7233V315.4333H94.7283C38.0883 315.4333 -0.0017 353.0233 -0.0017 409.1833Z"/>
</svg>