<?xml version="1.0" encoding="UTF-8" standalone="no"?>
<svg xmlns="http://www.w3.org/2000/svg"
     width="1130.37109375" height="946.2890625"
     viewBox="0 0 1130.37109375 946.2890625"
     fill="currentColor">
  <path d="M150.8783 946.2936H979.4883C1080.5683 946.2936 1130.3683 897.4636 1130.3683 797.3636V322.2636C1130.3683 222.1636 1080.5683 173.3436 979.4883 173.3436H812.4983V134.7636C812.4983 42.9736 764.1583 0.0036 675.7783 0.0036H454.0983C370.6083 0.0036 317.3783 42.9736 317.3783 134.7636V173.3436H150.8783C50.2883 173.3436 -0.0017 222.1636 -0.0017 322.2636V797.3636C-0.0017 897.4636 50.2883 946.2936 150.8783 946.2936ZM393.0683 129.3936C393.0683 92.2836 415.0383 71.2936 453.1283 71.2936H677.2483C715.3283 71.2936 736.8183 92.2836 736.8183 129.3936V173.3436H393.0683ZM335.4483 603.5136V515.1336C335.4483 489.7436 352.5383 472.1636 378.4183 472.1636H478.5183V373.0436C478.5183 346.6836 495.6083 329.5936 521.4883 329.5936H609.3783C634.7683 329.5936 652.3483 346.6836 652.3483 373.0436V472.1636H751.9483C777.8283 472.1636 795.4083 489.7436 795.4083 515.1336V603.5136C795.4083 628.9036 777.8283 646.4836 751.9483 646.4836H652.3483V746.0936C652.3483 771.9736 634.7683 789.0636 609.3783 789.0636H521.4883C495.6083 789.0636 478.5183 771.9736 478.5183 746.0936V646.4836H378.4183C353.0283 646.4836 335.4483 628.9036 335.4483 603.5136Z"/>
</svg>