<?xml version="1.0" encoding="UTF-8" standalone="no"?>
<svg xmlns="http://www.w3.org/2000/svg"
     width="1252.44140625" height="955.078125"
     viewBox="0 0 1252.44140625 955.078125"
     fill="currentColor">
  <path d="M192.8683 714.3598H1060.5483L1128.4183 435.5498C1130.8583 436.0398 1133.2983 436.0398 1135.7383 436.0398C1199.7083 436.0398 1252.4383 383.7898 1252.4383 318.8498C1252.4383 254.8798 1200.1983 202.6398 1135.7383 202.6398C1071.7783 202.6398 1019.5283 255.3698 1019.5283 318.8498C1019.5283 338.8698 1024.4183 357.4198 1032.7183 373.5398L887.2083 479.4898C870.6083 491.2098 859.3783 486.8198 850.0983 473.6298L681.6383 218.7498C717.7783 199.2198 742.6783 160.6398 742.6783 116.2098C742.6783 52.7298 690.4283 -0.0002 626.4683 -0.0002C561.5283 -0.0002 509.7683 52.2498 509.7683 116.2098C509.7683 160.6398 534.6683 199.2198 570.7983 218.7498L400.8783 475.0998C392.5783 487.7898 382.8083 491.6998 366.2083 479.9798L219.7283 373.0498C228.5183 356.9298 232.9083 338.8698 232.9083 318.8498C232.9083 255.3698 181.1483 202.6398 116.6983 202.6398C52.2483 202.6398 -0.0017 254.8798 -0.0017 318.8498C-0.0017 383.7898 52.7383 436.0398 116.6983 436.0398C119.1383 436.0398 121.5783 436.0398 124.0283 435.5498ZM208.9883 781.2498L223.6283 839.8398C242.1883 916.0198 282.7183 955.0798 363.2783 955.0798H889.1583C970.2183 955.0798 1010.2583 916.9898 1029.2983 839.8398L1043.9483 781.2498Z"/>
</svg>