<?xml version="1.0" encoding="UTF-8" standalone="no"?>
<svg xmlns="http://www.w3.org/2000/svg"
     width="1252.44140625" height="955.078125"
     viewBox="0 0 1252.44140625 955.078125"
     fill="currentColor">
  <path d="M126.4683 455.5698H128.9083L223.6283 839.8398C242.1883 916.4998 282.7183 955.0798 363.2783 955.0798H889.1583C970.2183 955.0798 1010.2583 916.4998 1029.2983 839.8398L1123.5383 455.5698C1124.5083 455.5698 1124.9983 455.5698 1125.9783 455.5698C1195.3083 455.5698 1252.4383 398.9298 1252.4383 328.6098C1252.4383 259.2798 1195.7983 202.6398 1125.9783 202.6398C1056.6383 202.6398 999.9983 259.7698 999.9983 328.6098C999.9983 344.2398 1002.4383 359.3798 1007.8083 373.0498L887.2083 447.2698C869.6283 458.4998 859.8683 455.0798 850.0983 441.8898L694.8283 232.4198C729.4883 209.9598 752.4383 170.4098 752.4383 125.9798C752.4383 57.1298 695.7983 -0.0002 626.4683 -0.0002C556.1483 -0.0002 499.9983 56.6398 499.9983 125.9798C499.9983 170.8998 523.4383 209.9598 558.5983 232.4198L400.8783 443.8498C392.0883 456.5398 382.8083 458.9798 366.2083 448.7298L244.6283 374.0198C249.5083 359.8598 252.4383 344.7298 252.4383 328.6098C252.4383 259.7698 195.7983 202.6398 126.4683 202.6398C56.6383 202.6398 -0.0017 259.2798 -0.0017 328.6098C-0.0017 398.9298 57.1283 455.5698 126.4683 455.5698ZM626.4683 176.2698C599.1183 176.2698 576.1683 153.3198 576.1683 125.9798C576.1683 98.1398 599.1183 76.1698 626.4683 76.1698C653.3183 76.1698 676.2683 99.1198 676.2683 125.9798C676.2683 153.3198 654.2983 176.2698 626.4683 176.2698ZM339.3583 518.5498C370.6083 537.5998 422.3683 538.5698 454.5883 495.1198L626.4683 264.1598L798.8283 495.6098C830.0783 537.5998 881.3483 537.5998 909.6683 520.0198L1052.7383 432.1298H1053.2183L985.8383 707.5198H266.5983L199.7083 433.1098ZM126.4683 379.3898C99.1183 379.3898 76.1683 356.4498 76.1683 328.6098C76.1683 300.7798 99.1183 278.8098 126.4683 278.8098C153.3183 278.8098 176.2683 301.7598 176.2683 328.6098C176.2683 356.4498 154.2983 379.3898 126.4683 379.3898ZM1125.9783 379.3898C1098.1483 379.3898 1076.1683 356.4498 1076.1683 328.6098C1076.1683 301.7598 1099.1183 278.8098 1125.9783 278.8098C1153.3183 278.8098 1176.2683 300.7798 1176.2683 328.6098C1176.2683 356.4498 1153.3183 379.3898 1125.9783 379.3898ZM362.7883 881.3498C326.1683 881.3498 305.1783 865.2298 296.8783 830.5698L284.6683 781.2498H967.7783L956.0583 830.5698C947.7583 865.2298 926.7583 881.3498 890.1383 881.3498Z"/>
</svg>