<?xml version="1.0" encoding="UTF-8" standalone="no"?>
<svg xmlns="http://www.w3.org/2000/svg"
     width="898.92578125" height="898.92578125"
     viewBox="0 0 898.92578125 898.92578125"
     fill="currentColor">
  <path d="M153.3183 898.9295H745.6083C848.1483 898.9295 898.9283 848.1495 898.9283 747.5595V151.3695C898.9283 50.7795 848.1483 -0.0005 745.6083 -0.0005H153.3183C51.2683 -0.0005 -0.0017 50.2895 -0.0017 151.3695V747.5595C-0.0017 848.6295 51.2683 898.9295 153.3183 898.9295ZM245.6083 449.2195C245.6083 301.7595 326.6583 207.0295 450.1983 207.0295C530.2783 207.0295 598.6283 252.4395 622.0683 318.3595C624.9983 326.6595 626.4683 335.4495 626.4683 344.2395C626.4683 362.7895 614.7483 374.9995 595.6983 374.9995C577.6383 374.9995 568.8483 364.2595 563.4783 348.6295C547.3683 302.2495 503.9083 268.5595 449.7083 268.5595C366.6983 268.5595 313.4783 339.3595 313.4783 448.7295C313.4783 542.4795 351.0783 607.4195 413.5783 625.4895V448.7295C413.5783 433.5895 423.8283 422.8495 438.4783 422.8495C453.1283 422.8495 463.3783 432.6195 463.3783 448.7295V469.7295C479.0083 439.9395 507.8083 424.3195 538.0883 424.3195C565.4283 424.3195 583.9883 436.5195 583.9883 454.5895C583.9883 467.7695 573.7283 477.0495 559.0783 477.0495C553.2183 477.0495 546.3883 475.0995 536.1283 475.0995C493.6483 475.0995 463.8683 508.7895 463.8683 557.1295V629.8795C515.1383 625.4895 554.6883 594.7295 566.8983 551.7595C572.2683 534.1795 582.0283 525.3895 599.1183 525.3895C618.1683 525.3895 630.3683 537.5995 630.3683 555.6595C629.8783 564.4495 628.4183 572.2695 625.9783 580.0795C602.0483 646.9695 539.0583 691.4095 450.1983 691.4095C326.6583 691.4095 245.6083 598.6295 245.6083 449.2195Z"/>
</svg>