<?xml version="1.0" encoding="UTF-8" standalone="no"?>
<svg xmlns="http://www.w3.org/2000/svg"
     width="996.09375" height="996.09375"
     viewBox="0 0 996.09375 996.09375"
     fill="currentColor">
  <path d="M498.0477 996.0959C770.5077 996.0959 996.0977 770.0159 996.0977 498.0459C996.0977 225.5859 770.0177 -0.0041 497.5577 -0.0041C225.5877 -0.0041 -0.0023 225.5859 -0.0023 498.0459C-0.0023 770.0159 226.0777 996.0959 498.0477 996.0959ZM498.0477 913.0859C267.5777 913.0859 83.4977 728.5159 83.4977 498.0459C83.4977 267.5759 267.0877 83.0059 497.5577 83.0059C728.0277 83.0059 913.0877 267.5759 913.0877 498.0459C913.0877 728.5159 728.5177 913.0859 498.0477 913.0859ZM299.8077 498.5359C299.8077 643.0659 378.4177 732.9059 497.5577 732.9059C583.9877 732.9059 645.5077 689.9459 667.9677 624.9959C670.8977 617.6759 672.3677 609.8659 672.8477 601.5659C672.8477 583.9859 660.6477 572.2659 642.5777 572.2659C625.9777 572.2659 616.6977 581.0559 611.3277 597.6559C599.1177 639.6459 560.5477 669.4359 511.2277 673.8259V603.0259C511.2277 556.1559 540.0377 523.4359 581.5477 523.4359C591.3077 523.4359 598.1477 525.3859 604.0077 525.3859C618.1677 525.3859 627.9277 516.6059 627.9277 503.9059C627.9277 486.3259 609.8677 474.6059 583.4977 474.6059C554.1977 474.6059 525.8777 489.7459 510.7377 518.5559V498.0459C510.7377 482.4259 500.4877 473.1459 486.8177 473.1459C472.6577 473.1459 462.8877 483.3959 462.8877 498.0459V669.4359C401.8577 652.3459 365.2377 588.8659 365.2377 498.0459C365.2377 392.0859 416.9877 323.2459 497.0677 323.2459C550.2977 323.2459 592.7777 355.9559 607.9077 401.3659C613.2777 416.5059 621.5777 426.7559 639.1577 426.7559C657.7177 426.7559 668.9477 415.0359 668.9477 396.9759C668.9477 388.6759 667.4777 379.8859 664.5477 372.0659C642.0877 308.1059 575.6877 264.1559 497.5577 264.1559C378.4177 264.1559 299.8077 355.4659 299.8077 498.5359Z"/>
</svg>