<?xml version="1.0" encoding="UTF-8" standalone="no"?>
<svg xmlns="http://www.w3.org/2000/svg"
     width="990.72265625" height="1062.5"
     viewBox="0 0 990.72265625 1062.5"
     fill="currentColor">
  <path d="M495.6083 502.9297L955.5683 241.6997C948.2383 234.3797 939.4483 228.5197 928.7083 222.6597L583.9883 26.3697C554.1983 9.2797 524.4183 -0.0003 495.6083 -0.0003C466.3083 -0.0003 436.5283 9.2797 406.7383 26.3697L62.4983 222.6597C51.7583 228.5197 42.9683 234.3797 35.1583 241.6997ZM461.9183 1062.4997V561.5197L3.9083 299.7997C0.9783 310.5497 -0.0017 322.2697 -0.0017 336.9097V717.2897C-0.0017 788.0897 24.8983 814.4497 69.8283 840.3297L452.6383 1058.1097C455.5683 1060.0597 458.4983 1061.5197 461.9183 1062.4997ZM528.8083 1062.4997C532.2283 1061.5197 535.1583 1060.0597 538.5783 1058.1097L920.8983 840.3297C966.3083 814.4497 990.7183 788.0897 990.7183 717.2897V336.9097C990.7183 322.2697 989.7483 310.5497 986.8183 299.7997L528.8083 561.5197Z"/>
</svg>