<?xml version="1.0" encoding="UTF-8" standalone="no"?>
<svg xmlns="http://www.w3.org/2000/svg"
     width="1268.5546875" height="947.75390625"
     viewBox="0 0 1268.5546875 947.75390625"
     fill="currentColor">
  <path d="M-0.0017 688.9619C-0.0017 842.2819 263.6683 947.7519 634.2783 947.7519C1005.3683 947.7519 1268.5583 842.2819 1268.5583 688.9619C1268.5583 617.1919 1211.4283 555.6619 1111.8183 510.7419C1195.3083 495.6019 1243.6483 440.4319 1243.6483 357.4219C1243.6483 264.6519 1181.6383 206.0519 1078.6183 201.1719C1078.6183 81.5419 899.4183 0.0019 634.2783 0.0019C369.1383 0.0019 189.9383 81.5419 189.9383 201.6619V303.7119C189.9383 370.1219 201.6583 431.1519 223.1483 485.3519C83.0083 531.2519 -0.0017 602.5419 -0.0017 688.9619ZM634.2783 324.2219C423.8283 324.2219 268.5583 270.9919 268.5583 201.6619C268.5583 132.3219 423.8283 78.6119 634.2783 78.6119C844.7283 78.6119 999.9983 132.3219 999.9983 201.6619C999.9983 270.9919 844.7283 324.2219 634.2783 324.2219ZM1078.6183 303.7119V279.7819C1133.2983 284.1819 1165.0383 312.5019 1165.0383 357.4219C1165.0383 406.2519 1127.4383 436.0319 1063.9683 436.0319H1061.5283C1072.7583 395.0219 1078.6183 350.5819 1078.6183 303.7119ZM634.2783 402.8319C793.9483 402.8319 922.3683 373.5319 999.5083 323.7319C991.2083 523.4419 858.8883 658.2019 656.7383 658.2019H611.3283C408.6883 658.2019 277.3483 524.4119 269.0383 323.7319C346.1883 373.5319 474.6083 402.8319 634.2783 402.8319ZM75.6883 688.9619C75.6883 637.6919 144.0383 589.3519 258.2983 554.6919C330.0783 667.9719 455.0783 736.8119 611.3283 736.8119H656.7383C812.9883 736.8119 937.9883 667.9719 1009.7683 554.6919C1124.0283 589.3519 1192.8683 638.1819 1192.8683 688.9619C1192.8683 784.1819 949.7083 872.0719 634.2783 872.0719C318.8483 872.0719 75.6883 784.1819 75.6883 688.9619Z"/>
</svg>