<?xml version="1.0" encoding="UTF-8" standalone="no"?>
<svg xmlns="http://www.w3.org/2000/svg"
     width="898.92578125" height="898.92578125"
     viewBox="0 0 898.92578125 898.92578125"
     fill="currentColor">
  <path d="M153.3183 898.9295H745.6083C848.1483 898.9295 898.9283 848.1495 898.9283 747.5595V151.3695C898.9283 50.7795 848.1483 -0.0005 745.6083 -0.0005H153.3183C51.2683 -0.0005 -0.0017 50.2895 -0.0017 151.3695V747.5595C-0.0017 848.6295 51.2683 898.9295 153.3183 898.9295ZM154.2983 820.3095C105.4683 820.3095 78.6183 794.4295 78.6183 743.6495V155.2695C78.6183 104.4895 105.4683 78.6095 154.2983 78.6095H744.6283C792.9683 78.6095 820.3083 104.4895 820.3083 155.2695V743.6495C820.3083 794.4295 792.9683 820.3095 744.6283 820.3095ZM353.0283 715.3295C382.3283 715.3295 398.4383 701.6595 398.4383 681.6395C398.4383 662.1095 384.2783 649.4095 364.7483 649.4095C331.5383 649.4095 319.3383 635.2495 319.3383 594.7295V527.8295C319.3383 490.7195 299.3183 461.4295 265.6283 449.2195C299.3183 437.0095 319.3383 408.1995 319.3383 370.6095V304.1995C319.3383 263.6695 331.5383 249.0195 364.7483 249.0195C384.2783 249.0195 398.4383 236.8195 398.4383 217.2895C398.4383 197.2695 382.3283 183.1095 353.0283 183.1095C287.1083 183.1095 248.0483 221.6795 248.0483 297.3595V358.3995C248.0483 393.5595 239.7483 401.8595 214.8483 408.1995C173.8283 418.9495 174.3183 479.4895 214.8483 490.2295C239.7483 497.0695 248.0483 505.3695 248.0483 540.5295V601.5595C248.0483 677.2495 287.1083 715.3295 353.0283 715.3295ZM547.3683 715.3295C612.7883 715.3295 652.3483 677.2495 652.3483 601.5595V540.5295C652.3483 505.3695 660.6483 497.0695 685.0583 490.2295C726.0783 479.9795 726.0783 418.4595 685.0583 408.1995C660.6483 401.8595 652.3483 393.5595 652.3483 358.3995V297.3595C652.3483 221.6795 612.7883 183.1095 547.3683 183.1095C518.0683 183.1095 501.4683 197.2695 501.4683 217.2895C501.4683 236.8195 516.1183 249.0195 535.6483 249.0195C568.3583 249.0195 581.0583 263.6695 581.0583 304.1995V370.6095C581.0583 408.1995 600.5883 437.0095 634.2783 449.2195C600.5883 461.4295 581.0583 490.7195 581.0583 527.8295V594.7295C581.0583 635.2495 568.3583 649.4095 535.6483 649.4095C516.1183 649.4095 501.4683 662.1095 501.4683 681.6395C501.4683 701.6595 518.0683 715.3295 547.3683 715.3295Z"/>
</svg>