<?xml version="1.0" encoding="UTF-8" standalone="no"?>
<svg xmlns="http://www.w3.org/2000/svg"
     width="1230.95703125" height="1033.69140625"
     viewBox="0 0 1230.95703125 1033.69140625"
     fill="currentColor">
  <path d="M215.3283 1033.6953H300.2883C320.3083 1033.6953 334.9583 1019.0453 334.9583 998.5353V123.0453H895.9983V998.5353C895.9983 1019.0453 910.6483 1033.6953 930.6683 1033.6953H1015.6283C1035.6483 1033.6953 1050.2883 1019.0453 1050.2883 998.5353V123.0453H1091.3083C1104.0083 145.0153 1128.4183 159.6653 1155.2783 159.6653C1196.7783 159.6653 1230.9583 125.4853 1230.9583 83.4953C1230.9583 41.9953 1196.7783 7.8153 1155.2783 7.8153C1128.4183 7.8153 1104.0083 22.9453 1091.3083 44.4353H1050.2883V35.6453C1050.2883 15.1353 1035.6483 -0.0047 1015.6283 -0.0047H930.6683C910.6483 -0.0047 895.9983 15.1353 895.9983 35.6453V44.4353H334.9583V35.6453C334.9583 15.1353 320.3083 -0.0047 300.2883 -0.0047H215.3283C195.3083 -0.0047 180.6683 15.1353 180.6683 35.6453V44.4353H139.6483C126.9483 22.9453 102.5383 7.8153 75.6883 7.8153C34.1783 7.8153 -0.0017 41.9953 -0.0017 83.4953C-0.0017 125.4853 34.1783 159.6653 75.6883 159.6653C102.5383 159.6653 126.9483 145.0153 139.6483 123.0453H180.6683V998.5353C180.6683 1019.0453 195.3083 1033.6953 215.3283 1033.6953Z"/>
</svg>