<?xml version="1.0" encoding="UTF-8" standalone="no"?>
<svg xmlns="http://www.w3.org/2000/svg"
     width="996.09375" height="996.09375"
     viewBox="0 0 996.09375 996.09375"
     fill="currentColor">
  <path d="M498.0477 996.0959C770.5077 996.0959 996.0977 770.0159 996.0977 498.0459C996.0977 225.5859 770.0177 -0.0041 497.5577 -0.0041C225.5877 -0.0041 -0.0023 225.5859 -0.0023 498.0459C-0.0023 770.0159 226.0777 996.0959 498.0477 996.0959ZM498.0477 913.0859C267.5777 913.0859 83.4977 728.5159 83.4977 498.0459C83.4977 267.5759 267.0877 83.0059 497.5577 83.0059C728.0277 83.0059 913.0877 267.5759 913.0877 498.0459C913.0877 728.5159 728.5177 913.0859 498.0477 913.0859ZM369.6277 715.8159H494.1377C632.8077 715.8159 710.9377 636.7159 710.9377 492.1859C710.9377 349.6059 633.7877 270.9959 494.1377 270.9959H369.6277C344.7277 270.9959 331.5477 288.5759 331.5477 314.9459V671.8759C331.5477 698.2459 344.7277 715.8159 369.6277 715.8159ZM406.7377 655.2759V331.5459H485.3477C580.5677 331.5459 632.8077 388.1859 632.8077 493.6559C632.8077 601.0759 581.0577 655.2759 485.3477 655.2759Z"/>
</svg>