<?xml version="1.0" encoding="UTF-8" standalone="no"?>
<svg xmlns="http://www.w3.org/2000/svg"
     width="996.09375" height="996.09375"
     viewBox="0 0 996.09375 996.09375"
     fill="currentColor">
  <path d="M498.0477 996.0959C770.5077 996.0959 996.0977 770.0159 996.0977 498.0459C996.0977 225.5859 770.0177 -0.0041 497.5577 -0.0041C225.5877 -0.0041 -0.0023 225.5859 -0.0023 498.0459C-0.0023 770.0159 226.0777 996.0959 498.0477 996.0959ZM366.2077 722.6559C340.3277 722.6559 326.6577 704.5859 326.6577 677.2459V309.5659C326.6577 282.2259 340.3277 264.1559 366.2077 264.1559H494.6277C639.1577 264.1559 718.7477 345.2159 718.7477 492.1859C718.7477 641.1159 637.6977 722.6559 494.6277 722.6559ZM404.7877 660.1559H485.8377C584.4777 660.1559 637.6977 604.4959 637.6977 493.6559C637.6977 385.2559 583.9877 326.6559 485.8377 326.6559H404.7877Z"/>
</svg>