<?xml version="1.0" encoding="UTF-8" standalone="no"?>
<svg xmlns="http://www.w3.org/2000/svg"
     width="898.92578125" height="898.92578125"
     viewBox="0 0 898.92578125 898.92578125"
     fill="currentColor">
  <path d="M153.3183 898.9295H745.6083C848.1483 898.9295 898.9283 848.1495 898.9283 747.5595V151.3695C898.9283 50.7795 848.1483 -0.0005 745.6083 -0.0005H153.3183C51.2683 -0.0005 -0.0017 50.2895 -0.0017 151.3695V747.5595C-0.0017 848.6295 51.2683 898.9295 153.3183 898.9295ZM154.2983 820.3095C105.4683 820.3095 78.6183 794.4295 78.6183 743.6495V155.2695C78.6183 104.4895 105.4683 78.6095 154.2983 78.6095H744.6283C792.9683 78.6095 820.3083 104.4895 820.3083 155.2695V743.6495C820.3083 794.4295 792.9683 820.3095 744.6283 820.3095ZM321.7783 666.4995H446.2883C584.9583 666.4995 663.0883 587.3995 663.0883 442.8695C663.0883 300.2895 585.9383 221.6795 446.2883 221.6795H321.7783C296.8783 221.6795 283.6883 239.2595 283.6883 265.6295V622.5595C283.6883 648.9295 296.8783 666.4995 321.7783 666.4995ZM358.8883 605.9595V282.2295H437.4983C532.7183 282.2295 584.9583 338.8695 584.9583 444.3395C584.9583 551.7595 533.1983 605.9595 437.4983 605.9595Z"/>
</svg>