<?xml version="1.0" encoding="UTF-8" standalone="no"?>
<svg xmlns="http://www.w3.org/2000/svg"
     width="898.92578125" height="898.92578125"
     viewBox="0 0 898.92578125 898.92578125"
     fill="currentColor">
  <path d="M153.3183 898.9295H745.6083C848.1483 898.9295 898.9283 848.1495 898.9283 747.5595V151.3695C898.9283 50.7795 848.1483 -0.0005 745.6083 -0.0005H153.3183C51.2683 -0.0005 -0.0017 50.2895 -0.0017 151.3695V747.5595C-0.0017 848.6295 51.2683 898.9295 153.3183 898.9295ZM317.8683 673.3395C291.9883 673.3395 278.3183 655.2695 278.3183 627.9295V260.2495C278.3183 232.9095 291.9883 214.8395 317.8683 214.8395H446.2883C590.8183 214.8395 670.4083 295.8995 670.4083 442.8695C670.4083 591.7995 589.3583 673.3395 446.2883 673.3395ZM356.4483 610.8395H437.4983C536.1283 610.8395 589.3583 555.1795 589.3583 444.3395C589.3583 335.9395 535.6483 277.3395 437.4983 277.3395H356.4483Z"/>
</svg>