<?xml version="1.0" encoding="UTF-8" standalone="no"?>
<svg xmlns="http://www.w3.org/2000/svg"
     width="1058.10546875" height="898.92578125"
     viewBox="0 0 1058.10546875 898.92578125"
     fill="currentColor">
  <path d="M904.7806 898.9295C1006.8406 898.9295 1058.1006 848.6295 1058.1006 747.5595V151.3695C1058.1006 50.2895 1006.8406 -0.0005 904.7806 -0.0005H480.4706C423.3406 -0.0005 374.0206 14.6495 333.9806 57.1295L46.3906 355.9595C14.6506 388.6695 0.0006 417.9695 0.0006 448.7295C0.0006 478.9995 14.1606 508.7895 46.3906 541.4995L334.4706 838.8695C375.0006 880.8595 423.8306 898.4395 480.9606 898.4395ZM454.5906 654.2995C432.1306 654.2995 414.0606 636.2295 414.0606 613.2795C414.0606 602.5395 418.4606 592.7695 425.7806 584.9595L561.5206 449.7095L425.7806 313.9695C418.4606 306.1495 414.0606 296.3895 414.0606 285.6395C414.0606 263.1795 432.1306 245.6095 454.5906 245.6095C465.8206 245.6095 474.6106 249.9995 482.4206 257.3195L618.6506 393.0695L755.8606 256.8395C764.1606 248.5395 772.9506 244.6295 783.6906 244.6295C806.1506 244.6295 823.7306 262.6995 823.7306 284.6695C823.7306 295.8995 820.8006 304.6895 812.0106 313.4795L676.2706 449.7095L811.5206 584.4695C819.8206 592.2895 823.2406 602.0495 823.2406 613.2795C823.2406 636.2295 805.6606 654.2995 782.7106 654.2995C771.4806 654.2995 761.2306 649.8995 753.9106 642.5795L618.6506 506.3495L483.8906 642.5795C476.0706 649.8995 465.8206 654.2995 454.5906 654.2995Z"/>
</svg>