<?xml version="1.0" encoding="UTF-8" standalone="no"?>
<svg xmlns="http://www.w3.org/2000/svg"
     width="1058.10546875" height="898.92578125"
     viewBox="0 0 1058.10546875 898.92578125"
     fill="currentColor">
  <path d="M904.7806 898.9295C1006.8406 898.9295 1058.1006 848.6295 1058.1006 747.5595V151.3695C1058.1006 50.2895 1006.8406 -0.0005 904.7806 -0.0005H480.4706C423.3406 -0.0005 374.0206 14.6495 333.9806 57.1295L46.3906 355.9595C14.6506 388.6695 0.0006 417.9695 0.0006 448.7295C0.0006 478.9995 14.1606 508.7895 46.3906 541.4995L334.4706 838.8695C375.0006 880.8595 423.8306 898.4395 480.9606 898.4395ZM903.8106 820.3095H479.4906C442.3806 820.3095 419.4306 811.5195 393.5506 785.1595L107.4206 489.7495C90.8206 472.6595 85.9406 460.9395 85.9406 448.7295C85.9406 436.0395 91.3106 424.3195 107.4206 407.2295L393.0706 110.8395C418.4606 84.9595 442.3806 78.6095 479.0006 78.6095H903.8106C952.6406 78.6095 979.4906 104.4895 979.4906 155.2695V743.6495C979.4906 794.4295 952.6406 820.3095 903.8106 820.3095ZM452.1506 655.7595C462.8906 655.7595 472.6606 651.3695 479.9806 643.5595L618.6506 504.3895L757.3206 643.5595C764.6506 650.8795 774.4106 655.7595 785.6406 655.7595C807.1306 655.7595 824.7106 637.6995 824.7106 616.2095C824.7106 604.9795 820.3106 595.6995 812.9906 588.3795L674.3206 449.7095L813.4806 310.0595C821.2906 301.7595 825.1906 293.4595 825.1906 282.7195C825.1906 260.7395 807.6206 243.6495 786.1306 243.6495C775.8806 243.6495 767.0906 247.0695 758.7906 255.3695L618.6506 395.0195L479.0006 255.8595C471.6806 248.0495 462.8906 244.6295 452.1506 244.6295C430.6606 244.6295 413.0906 261.2295 413.0906 283.1995C413.0906 293.9495 416.9906 303.2195 424.8006 310.5495L563.4806 449.7095L424.8006 588.8695C416.9906 595.6995 413.0906 605.4695 413.0906 616.2095C413.0906 637.6995 430.6606 655.7595 452.1506 655.7595Z"/>
</svg>