<?xml version="1.0" encoding="UTF-8" standalone="no"?>
<svg xmlns="http://www.w3.org/2000/svg"
     width="1058.10546875" height="898.92578125"
     viewBox="0 0 1058.10546875 898.92578125"
     fill="currentColor">
  <path d="M153.3183 898.9295L577.1483 898.4395C634.2783 898.4395 683.5983 880.8595 723.6283 838.8695L1011.7183 541.4995C1043.9483 508.7895 1058.1083 478.9995 1058.1083 448.7295C1058.1083 417.9695 1043.9483 388.6695 1011.7183 355.9595L724.1183 57.1295C684.0783 14.6495 634.7683 -0.0005 577.6383 -0.0005H153.3183C51.7583 -0.0005 -0.0017 50.2895 -0.0017 151.3695V747.5595C-0.0017 848.6295 51.7583 898.9295 153.3183 898.9295ZM276.3683 654.2995C253.9083 654.2995 236.3283 636.2295 236.3283 613.2795C236.3283 602.5395 240.2383 592.7695 248.0483 584.9595L383.2983 449.7095L248.0483 313.9695C240.2383 306.1495 236.3283 296.3895 236.3283 285.6395C236.3283 263.1795 253.9083 245.6095 276.3683 245.6095C287.5983 245.6095 296.3883 249.9995 304.1983 257.3195L440.4283 393.0695L577.6383 256.8395C585.9383 248.5395 595.2183 244.6295 605.4683 244.6295C627.9283 244.6295 645.9983 262.6995 645.9983 284.6695C645.9983 295.8995 642.5783 304.6895 634.2783 313.4795L498.0483 449.7095L633.7883 584.4695C641.5983 592.2895 645.5083 602.0495 645.5083 613.2795C645.5083 636.2295 627.4383 654.2995 604.4883 654.2995C593.7483 654.2995 583.0083 649.8995 575.6883 642.5795L440.4283 506.3495L305.6683 642.5795C297.8483 649.8995 287.5983 654.2995 276.3683 654.2995Z"/>
</svg>