<?xml version="1.0" encoding="UTF-8" standalone="no"?>
<svg xmlns="http://www.w3.org/2000/svg"
     width="1003.90625" height="1183.10546875"
     viewBox="0 0 1003.90625 1183.10546875"
     fill="currentColor">
  <path d="M320.7983 836.9108H682.1283C720.6983 836.9108 748.0483 810.5508 748.0483 773.4408C748.0483 757.8108 738.7683 737.7908 725.5883 722.6608L629.3983 608.8908H642.5783C733.8883 608.8908 788.0883 553.2208 788.0883 461.9108V146.9708C788.0883 60.5508 734.8683 0.0008 642.5783 0.0008H360.3483C270.0183 0.0008 214.8483 56.1508 214.8483 146.9708V461.9108C214.8483 553.2208 270.0183 608.8908 360.3483 608.8908H373.5383L277.8283 722.6608C264.1583 738.2808 255.3683 758.3008 255.3683 773.4408C255.3683 810.5508 282.2283 836.9108 320.7983 836.9108ZM368.6483 530.2708C312.4983 530.2708 289.5483 504.8808 289.5483 452.6408V157.2308C289.5483 104.0008 312.4983 78.6108 368.6483 78.6108H634.2783C690.4283 78.6108 713.8683 104.0008 713.8683 157.2308V452.6408C713.8683 504.8808 690.4283 530.2708 634.2783 530.2708ZM361.8183 758.3008C354.4883 758.3008 350.5883 751.9508 355.9583 745.6008L469.2383 608.8908H533.6883L647.4583 745.6008C652.3483 751.9508 648.4383 758.3008 641.5983 758.3008ZM40.0383 1183.1008H962.8883C985.8383 1183.1008 1003.9083 1165.0408 1003.9083 1142.5808C1003.9083 1119.6308 985.8383 1102.0508 962.8883 1102.0508H40.0383C17.5783 1102.0508 -0.0017 1119.6308 -0.0017 1142.5808C-0.0017 1165.0408 17.5783 1183.1008 40.0383 1183.1008Z"/>
</svg>