<?xml version="1.0" encoding="UTF-8" standalone="no"?>
<svg xmlns="http://www.w3.org/2000/svg"
     width="1177.734375" height="1021.484375"
     viewBox="0 0 1177.734375 1021.484375"
     fill="currentColor">
  <path d="M588.8677 121.5772C622.5577 121.5772 649.4177 94.2372 649.4177 60.5472C649.4177 26.8572 622.0677 -0.0028 588.8677 -0.0028C554.6877 -0.0028 528.3177 27.3472 528.3177 60.5472C528.3177 94.7272 555.1777 121.5772 588.8677 121.5772ZM962.8877 276.8572C996.5777 276.8572 1023.4377 249.5072 1023.4377 216.3072C1023.4377 182.1272 996.0977 155.7572 962.8877 155.7572C928.7077 155.7572 901.8577 182.6172 901.8577 216.3072C901.8577 249.9972 929.1977 276.8572 962.8877 276.8572ZM214.3577 277.8272C248.0477 277.8272 274.8977 250.4872 274.8977 217.2872C274.8977 183.1072 247.5577 156.7372 214.3577 156.7372C180.6677 156.7372 153.8077 183.5972 153.8077 217.2872C153.8077 250.9772 181.1477 277.8272 214.3577 277.8272ZM588.8677 943.8472C784.6677 943.8472 943.8477 785.1572 943.8477 588.3772C943.8477 392.0872 784.6677 233.8872 588.8677 233.8872C393.0677 233.8872 233.3977 392.0872 233.3977 588.3772C233.3977 785.6472 393.0677 943.8472 588.8677 943.8472ZM588.8677 631.8372C607.4177 632.3272 624.5077 615.2372 624.5077 595.7072V314.9372C759.7677 333.0072 864.7477 448.7272 864.7477 588.3772C864.7477 740.7272 741.2077 864.2572 588.8677 864.2572C436.5277 864.2572 312.4977 740.7272 312.4977 588.3772C312.4977 449.2172 417.4777 333.0072 552.2477 315.4272V594.7272C552.2477 615.7272 567.3877 630.8572 588.8677 631.8372ZM61.0377 649.4172C94.7277 649.4172 121.5777 621.5772 121.5777 588.3772C121.5777 554.1972 93.7477 527.8272 61.0377 527.8272C27.3477 527.8272 -0.0023 555.1772 -0.0023 588.3772C-0.0023 622.0672 27.8277 649.4172 61.0377 649.4172ZM1116.6977 649.4172C1150.3877 649.4172 1177.7377 621.5772 1177.7377 588.3772C1177.7377 554.1972 1149.8977 527.8272 1116.6977 527.8272C1082.5177 527.8272 1055.6677 555.1772 1055.6677 588.3772C1055.6677 622.0672 1083.4977 649.4172 1116.6977 649.4172ZM214.3577 1020.9972C248.0477 1020.9972 274.8977 994.1372 274.8977 960.4472C274.8977 926.7572 247.5577 899.9072 214.3577 899.9072C180.6677 899.9072 153.8077 927.2472 153.8077 960.4472C153.8077 994.6272 181.1477 1020.9972 214.3577 1020.9972ZM962.3977 1021.4872C996.0977 1021.4872 1022.9477 994.6272 1022.9477 960.9372C1022.9477 927.2472 995.6077 900.3872 962.3977 900.3872C928.2277 900.3872 901.3677 927.7372 901.3677 960.9372C901.3677 995.1172 928.7077 1021.4872 962.3977 1021.4872Z"/>
</svg>