<?xml version="1.0" encoding="UTF-8" standalone="no"?>
<svg xmlns="http://www.w3.org/2000/svg"
     width="1107.3672103163326" height="1107.3672103163324"
     viewBox="0 0 1107.3672103163326 1107.3672103163324"
     fill="currentColor">
  <path d="M54.7573 661.6849L445.8673 1052.7949C518.1273 1125.0649 589.4173 1125.5549 661.1973 1054.2649L1054.2673 660.7049C1125.5573 589.4249 1125.0673 517.6449 1052.7973 445.3749L662.1773 54.7549C589.9073 -17.5151 518.6173 -18.4851 446.8473 53.2849L53.2873 446.3549C-18.4927 518.1349 -17.5127 589.4249 54.7573 661.6849ZM111.3973 607.4849C76.7273 572.3349 75.7473 535.7049 111.8773 499.5749L499.5773 111.8849C535.7073 75.7449 572.3273 76.2349 607.4873 111.3949L996.1573 500.0649C1030.8273 534.7349 1031.8073 571.8449 995.6673 607.9749L607.9773 995.6749C571.8473 1031.8049 534.2473 1030.8249 500.0673 996.6449ZM177.7973 579.6549L527.8973 929.7549C545.9673 947.8149 561.5873 947.8149 580.1473 929.2649L929.7573 579.6549C947.8173 562.0749 947.3273 545.9649 928.7773 527.4049L580.1473 178.2849C561.5873 159.7349 545.9673 159.7349 527.8973 177.7949L178.2873 527.4049C159.7373 545.9649 159.7373 561.5849 177.7973 579.6549Z"/>
</svg>