<?xml version="1.0" encoding="UTF-8" standalone="no"?>
<svg xmlns="http://www.w3.org/2000/svg"
     width="1033.203125" height="1022.94921875"
     viewBox="0 0 1033.203125 1022.94921875"
     fill="currentColor">
  <path d="M-0.0017 645.5113C-0.0017 746.0912 50.7783 796.8713 153.3183 796.8713H169.9183V377.4413C169.9183 239.2613 250.9783 159.6712 390.1383 159.6712H796.3883V151.3713C796.3883 50.7813 745.1183 0.0013 643.5583 0.0013H153.3183C50.7783 0.0013 -0.0017 50.7813 -0.0017 151.3713ZM390.1383 1022.9513H880.3683C981.9383 1022.9513 1033.1983 972.1713 1033.1983 871.5813V377.4413C1033.1983 276.8513 981.9383 226.0712 880.3683 226.0712H390.1383C287.5983 226.0712 236.8183 276.3713 236.8183 377.4413V871.5813C236.8183 972.1713 287.5983 1022.9513 390.1383 1022.9513ZM437.9883 499.0213C398.4383 498.5313 366.6983 467.2813 366.6983 427.2413C366.6983 388.1813 398.4383 356.4413 437.9883 356.4413C477.0483 356.4413 509.2783 388.1813 509.2783 427.2413C509.2783 467.2813 477.0483 500.0013 437.9883 499.0213ZM832.0283 499.0213C792.9683 498.5313 760.7383 467.2813 760.7383 427.2413C760.7383 388.1813 792.9683 356.4413 832.0283 356.4413C871.0983 356.4413 903.3183 388.1813 903.3183 427.2413C903.3183 467.2813 871.0983 500.0013 832.0283 499.0213ZM634.7683 696.7813C595.6983 696.7813 563.9683 664.5513 563.9683 624.5113C563.9683 585.4513 595.6983 554.2013 634.7683 554.2013C673.8283 554.2013 706.0583 585.4513 706.0583 624.5113C706.0583 664.5513 673.8283 696.7813 634.7683 696.7813ZM437.9883 894.0413C398.4383 894.0413 367.1883 861.8213 367.1883 822.2613C367.1883 782.7113 398.4383 751.4613 437.9883 751.4613C477.0483 751.4613 508.7883 782.7113 508.7883 822.2613C508.7883 861.8213 477.0483 894.0413 437.9883 894.0413ZM832.0283 894.0413C792.9683 894.0413 761.2283 861.8213 761.2283 822.2613C761.2283 782.7113 792.9683 751.4613 832.0283 751.4613C871.0983 751.4613 903.3183 782.7113 903.3183 822.2613C903.3183 861.8213 871.0983 894.0413 832.0283 894.0413Z"/>
</svg>