<?xml version="1.0" encoding="UTF-8" standalone="no"?>
<svg xmlns="http://www.w3.org/2000/svg"
     width="987.3046875" height="1096.4201992311805"
     viewBox="0 0 987.3046875 1096.4201992311805"
     fill="currentColor">
  <path d="M493.6483 722.1706C800.7783 722.1706 987.3083 636.7206 987.3083 432.1306V237.7906C987.3083 95.2106 789.5483 0.0006 493.6483 0.0006C197.2683 0.0006 -0.0017 95.2106 -0.0017 237.7906V432.1306C-0.0017 636.7206 186.0383 722.1706 493.6483 722.1706ZM493.6483 396.4806C244.6283 396.4806 78.6183 332.5206 78.6183 237.7906C78.6183 143.0706 244.6283 78.6106 493.6483 78.6106C742.6783 78.6106 908.6883 143.0706 908.6883 237.7906C908.6883 332.5206 742.6783 396.4806 493.6483 396.4806ZM208.0083 490.2306V437.9906C234.3783 446.2906 263.1883 453.1206 293.9483 458.5006V523.4406C293.9483 541.0106 308.1083 555.6606 325.6883 555.6606C343.2583 555.6606 357.9083 541.0106 357.9083 523.4406V467.7706C388.6683 471.6806 421.3883 473.6306 455.5683 474.6106V536.1306C455.5683 553.7106 470.2183 567.8706 487.7883 567.8706C505.3683 567.8706 519.5283 553.7106 519.5283 536.1306V475.1006C553.7083 474.1206 586.4283 472.1706 617.6783 469.2406V523.4406C617.6783 541.0106 632.3283 555.6606 649.8983 555.6606C667.4783 555.6606 681.6383 541.0106 681.6383 523.4406V460.4506C712.3983 455.5706 740.7183 449.2206 767.5783 441.4106V490.2306C767.5783 507.8106 781.7383 522.4606 799.3183 522.4606C816.8983 522.4606 831.5383 507.8106 831.5383 490.2306V418.9406C860.8383 406.2506 886.7183 392.0906 908.6883 375.9806V432.1306C908.6883 587.4006 751.9483 643.5506 493.6483 643.5506C235.3483 643.5506 78.6183 587.4006 78.6183 432.1306V375.9806C97.6583 389.6506 119.1383 402.3406 144.0383 414.0606V490.2306C144.0383 507.8106 158.6883 522.4606 176.2683 522.4606C193.8483 522.4606 208.0083 507.8106 208.0083 490.2306ZM260.2583 1072.7506L284.6683 1003.4206C364.2583 1023.9306 450.1983 1034.6706 538.0883 1034.6706C650.8783 1034.6706 760.2583 1016.1106 857.4183 983.8906C875.4883 978.0306 881.8383 962.4006 881.8383 947.7506C881.8383 925.2906 862.7883 903.3206 833.4983 914.0606C744.1383 944.3406 643.0683 960.9406 538.0883 960.9406C458.4983 960.9406 380.8583 951.6606 309.0783 933.5906L333.9883 861.8206C345.2183 830.0806 313.9683 806.6406 287.5983 815.9206L118.1683 875.0006C94.7283 882.8106 86.4283 906.2506 99.6083 927.2506L196.2883 1079.5906C211.4283 1103.5206 249.5083 1102.5406 260.2583 1072.7506Z"/>
</svg>