<?xml version="1.0" encoding="UTF-8" standalone="no"?>
<svg xmlns="http://www.w3.org/2000/svg"
     width="1082.4791840754697" height="987.3046875"
     viewBox="0 0 1082.4791840754697 987.3046875"
     fill="currentColor">
  <path d="M373.0079 493.6514C373.0079 800.7814 458.4579 987.3014 663.0479 987.3014H718.2179C677.2079 951.1714 643.0279 898.4414 618.1279 831.5414H552.2079C534.6279 831.5414 519.9779 816.8914 519.9779 799.3114C519.9779 781.7414 534.6279 767.5814 552.2079 767.5814H597.6179C589.8079 739.2614 583.9479 708.9814 579.5479 681.6414H518.9979C501.4279 681.6414 486.7779 667.4814 486.7779 649.9014C486.7779 632.3214 501.4279 617.6714 518.9979 617.6714H571.7379C568.3179 585.9414 566.3679 549.8014 565.8779 519.5314H506.3079C488.7279 519.5314 474.5679 505.3714 474.5679 487.7914C474.5679 470.2114 488.7279 455.5614 506.3079 455.5614H566.3679C566.8579 423.3414 568.8079 389.6514 572.7179 357.9114H518.9979C501.4279 357.9114 486.7779 343.2614 486.7779 325.6814C486.7779 308.1014 501.4279 293.9414 518.9979 293.9414H581.4979C586.3879 263.6714 592.7379 235.3514 601.0379 208.0114H552.2079C534.6279 208.0114 519.9779 193.8514 519.9779 176.2714C519.9779 158.6914 534.6279 144.0414 552.2079 144.0414H622.5179C646.9279 82.5214 679.6479 33.6914 718.2179 0.0014H663.0479C458.4579 0.0014 373.0079 186.0314 373.0079 493.6514ZM632.2879 493.6514C632.2879 782.2314 723.5879 974.6114 857.3779 974.6114C991.1679 974.6114 1082.4779 782.2314 1082.4779 493.6514C1082.4779 205.0814 991.1679 12.2114 857.3779 12.2114C723.5879 12.2114 632.2879 205.0814 632.2879 493.6514ZM151.3279 884.7614C174.2779 884.7614 196.2479 865.7214 185.0179 835.9414C151.3279 744.1414 134.2379 645.9914 134.2379 538.0814C134.2379 456.0514 144.4879 379.8814 164.0179 307.6214L233.3579 333.0114C265.0979 344.2414 288.5379 312.9914 279.7479 286.6214L222.6179 116.2114C215.2879 93.2614 191.8579 84.4714 170.8579 97.1714L17.0479 192.3814C-6.8721 207.0314 -6.3921 245.6014 23.3979 256.3514L94.1979 282.2314C72.2279 362.7914 60.5079 447.7514 60.5079 538.0814C60.5079 654.3014 80.0379 761.2314 115.6779 860.8414C121.5379 877.9314 136.6779 884.7614 151.3279 884.7614Z"/>
</svg>