<?xml version="1.0" encoding="UTF-8" standalone="no"?>
<svg xmlns="http://www.w3.org/2000/svg"
     width="987.3046875" height="1083.7248867311805"
     viewBox="0 0 987.3046875 1083.7248867311805"
     fill="currentColor">
  <path d="M493.6483 450.193C782.2283 450.193 974.6083 358.883 974.6083 225.093C974.6083 91.313 782.2283 0.003 493.6483 0.003C205.0783 0.003 12.6983 91.313 12.6983 225.093C12.6983 358.883 205.0783 450.193 493.6483 450.193ZM493.6483 709.963C800.7783 709.963 987.3083 624.023 987.3083 419.923V364.253C951.1683 405.763 898.4383 439.453 831.5383 464.353V530.763C831.5383 548.343 816.8983 562.503 799.3183 562.503C781.7383 562.503 767.5783 548.343 767.5783 530.763V485.353C739.2583 492.673 708.9883 498.533 681.6383 502.933V563.963C681.6383 581.543 667.4783 595.703 649.8983 595.703C632.3283 595.703 617.6783 581.543 617.6783 563.963V511.233C585.9383 514.163 549.8083 516.603 519.5283 517.093V576.173C519.5283 593.753 505.3683 608.403 487.7883 608.403C470.2183 608.403 455.5683 593.753 455.5683 576.173V516.603C423.3383 516.113 389.6483 513.673 357.9083 510.253V563.963C357.9083 581.543 343.2583 595.703 325.6883 595.703C308.1083 595.703 293.9483 581.543 293.9483 563.963V500.973C263.6683 496.093 235.3483 489.743 208.0083 481.933V530.763C208.0083 548.343 193.8483 562.503 176.2683 562.503C158.6883 562.503 144.0383 548.343 144.0383 530.763V459.963C82.5183 435.543 33.6883 403.323 -0.0017 364.253V419.923C-0.0017 624.023 186.0383 709.963 493.6483 709.963ZM257.8083 1060.063L282.7183 988.283C362.7883 1010.743 447.7583 1021.973 538.0883 1021.973C654.2983 1021.973 761.2283 1002.933 860.8383 966.793C877.9283 960.933 884.7683 945.803 884.7683 931.153C884.7683 908.693 865.7183 886.233 835.9383 897.463C744.1383 931.153 645.9983 948.243 538.0883 948.243C456.0583 948.243 379.3983 938.473 307.1283 918.943L331.5383 849.123C342.7783 817.383 311.5283 793.943 285.1583 803.223L115.2383 862.793C92.2883 870.603 83.9883 893.553 96.6783 914.553L193.3583 1066.893C208.4983 1090.823 247.0683 1089.843 257.8083 1060.063Z"/>
</svg>