<?xml version="1.0" encoding="UTF-8" standalone="no"?>
<svg xmlns="http://www.w3.org/2000/svg"
     width="1137.20703125" height="987.3046875"
     viewBox="0 0 1137.20703125 987.3046875"
     fill="currentColor">
  <path d="M-0.0017 493.6514C-0.0017 800.7814 85.9383 987.3014 290.0383 987.3014H484.8683C591.3083 987.3014 671.3883 875.0014 704.5883 693.8514L635.7383 632.3214C616.6983 801.7614 560.5483 908.6914 484.8683 908.6914C390.1383 908.6914 325.6883 742.1914 325.6883 493.6514C325.6883 244.6314 390.1383 78.6114 484.8683 78.6114C560.5483 78.6114 616.6983 185.0614 635.7383 354.9814L704.0983 292.9714C671.3883 111.8114 591.3083 0.0014 484.8683 0.0014H290.0383C85.9383 0.0014 -0.0017 186.0314 -0.0017 493.6514ZM231.9383 831.5414H303.2183C315.9183 860.8414 330.5683 886.7214 346.6783 908.6914H290.0383C134.7683 908.6914 78.6183 751.9514 78.6183 493.6514C78.6183 235.3514 134.7683 78.6114 290.0383 78.6114H346.6783C332.5183 97.1714 319.8283 119.1414 308.5983 144.0414H231.9383C214.3583 144.0414 200.1983 158.6914 200.1983 176.2714C200.1983 193.8514 214.3583 208.0114 231.9383 208.0114H284.6683C276.3683 234.3714 269.5283 263.1814 263.6683 293.9414H198.7283C181.1483 293.9414 166.9883 308.1014 166.9883 325.6814C166.9883 343.2614 181.1483 357.9114 198.7283 357.9114H254.3983C250.9783 388.6714 248.5383 421.3914 247.5583 455.5614H186.5283C168.9483 455.5614 154.2983 470.2114 154.2983 487.7914C154.2983 505.3714 168.9483 519.5314 186.5283 519.5314H247.5583C248.0483 553.7114 249.9983 586.4214 252.9283 617.6714H198.7283C181.1483 617.6714 166.9883 632.3214 166.9883 649.9014C166.9883 667.4814 181.1483 681.6414 198.7283 681.6414H261.7183C267.0883 712.4014 273.4383 740.7214 280.7583 767.5814H231.9383C214.3583 767.5814 200.1983 781.7414 200.1983 799.3114C200.1983 816.8914 214.3583 831.5414 231.9383 831.5414ZM613.2783 523.4414L761.2283 654.3014C789.5483 680.1714 831.5383 665.5314 831.5383 624.0214V535.6414H1095.2183C1119.1383 535.6414 1137.2083 517.0914 1137.2083 494.1414C1137.2083 470.2114 1119.1383 452.1514 1095.2183 452.1514H831.5383V362.7914C831.5383 322.7514 791.0183 305.6614 761.2283 332.0314L613.2783 463.3814C593.2583 480.9614 592.7783 505.3714 613.2783 523.4414Z"/>
</svg>