<?xml version="1.0" encoding="UTF-8" standalone="no"?>
<svg xmlns="http://www.w3.org/2000/svg"
     width="1095.1744965754697" height="987.3046875"
     viewBox="0 0 1095.1744965754697 987.3046875"
     fill="currentColor">
  <path d="M373.0079 493.6514C373.0079 800.7814 458.4579 987.3014 663.0479 987.3014H857.3779C999.9579 987.3014 1095.1779 789.5514 1095.1779 493.6514C1095.1779 197.2614 999.9579 0.0014 857.3779 0.0014H663.0479C458.4579 0.0014 373.0079 186.0314 373.0079 493.6514ZM571.7379 681.6414H634.7279C639.6079 712.4014 645.9579 740.7214 653.7679 767.5814H604.9379C587.3579 767.5814 572.7179 781.7414 572.7179 799.3114C572.7179 816.8914 587.3579 831.5414 604.9379 831.5414H676.2279C688.9279 860.8414 703.0879 886.7214 719.1979 908.6914H663.0479C507.7679 908.6914 451.6179 751.9514 451.6179 493.6514C451.6179 235.3514 507.7679 78.6114 663.0479 78.6114H719.1979C705.5279 97.1714 692.8279 119.1414 681.5979 144.0414H604.9379C587.3579 144.0414 572.7179 158.6914 572.7179 176.2714C572.7179 193.8514 587.3579 208.0114 604.9379 208.0114H657.1879C649.3779 234.3714 642.0479 263.1814 636.6779 293.9414H571.7379C554.1579 293.9414 539.5079 308.1014 539.5079 325.6814C539.5079 343.2614 554.1579 357.9114 571.7379 357.9114H627.3979C623.9879 388.6714 621.5379 421.3914 620.5679 455.5614H559.0379C541.4679 455.5614 527.3079 470.2114 527.3079 487.7914C527.3079 505.3714 541.4679 519.5314 559.0379 519.5314H620.0779C621.0579 553.7114 623.0079 586.4214 625.9379 617.6714H571.7379C554.1579 617.6714 539.5079 632.3214 539.5079 649.9014C539.5079 667.4814 554.1579 681.6414 571.7379 681.6414ZM698.6879 493.6514C698.6879 244.6314 762.6579 78.6114 857.3779 78.6114C952.1079 78.6114 1016.5579 244.6314 1016.5579 493.6514C1016.5579 742.1914 952.1079 908.6914 857.3779 908.6914C762.6579 908.6914 698.6879 742.1914 698.6879 493.6514ZM23.3979 717.2814C-6.3921 728.5114 -6.8721 766.6014 17.0479 781.2514L170.8579 876.4614C191.8579 889.1614 215.2879 880.3714 222.6179 857.4214L279.7479 687.0114C288.5379 660.6414 265.0979 629.3914 233.3579 641.1114L161.5779 666.9914C143.9979 595.2114 134.2379 518.0614 134.2379 438.4814C134.2379 333.4914 150.8379 232.4214 181.1079 143.0614C191.8579 113.2814 169.8779 94.2414 147.4179 94.2414C132.7679 94.2414 117.1479 101.0714 111.2879 118.6514C79.0579 215.8214 60.5079 325.1914 60.5079 438.4814C60.5079 526.3714 71.7379 612.7914 91.7579 692.3814Z"/>
</svg>