<?xml version="1.0" encoding="UTF-8" standalone="no"?>
<svg xmlns="http://www.w3.org/2000/svg"
     width="1082.4791840754697" height="987.3046875"
     viewBox="0 0 1082.4791840754697 987.3046875"
     fill="currentColor">
  <path d="M373.0079 493.6514C373.0079 800.7814 458.4579 987.3014 663.0479 987.3014H718.2179C677.2079 951.1714 643.0279 898.4414 618.1279 831.5414H552.2079C534.6279 831.5414 519.9779 816.8914 519.9779 799.3114C519.9779 781.7414 534.6279 767.5814 552.2079 767.5814H597.6179C589.8079 739.2614 583.9479 708.9814 579.5479 681.6414H518.9979C501.4279 681.6414 486.7779 667.4814 486.7779 649.9014C486.7779 632.3214 501.4279 617.6714 518.9979 617.6714H571.7379C568.3179 585.9414 566.3679 549.8014 565.8779 519.5314H506.3079C488.7279 519.5314 474.5679 505.3714 474.5679 487.7914C474.5679 470.2114 488.7279 455.5614 506.3079 455.5614H566.3679C566.8579 423.3414 568.8079 389.6514 572.7179 357.9114H518.9979C501.4279 357.9114 486.7779 343.2614 486.7779 325.6814C486.7779 308.1014 501.4279 293.9414 518.9979 293.9414H581.4979C586.3879 263.6714 592.7379 235.3514 601.0379 208.0114H552.2079C534.6279 208.0114 519.9779 193.8514 519.9779 176.2714C519.9779 158.6914 534.6279 144.0414 552.2079 144.0414H622.5179C646.9279 82.5214 679.6479 33.6914 718.2179 0.0014H663.0479C458.4579 0.0014 373.0079 186.0314 373.0079 493.6514ZM632.2879 493.6514C632.2879 782.2314 723.5879 974.6114 857.3779 974.6114C991.1679 974.6114 1082.4779 782.2314 1082.4779 493.6514C1082.4779 205.0814 991.1679 12.2114 857.3779 12.2114C723.5879 12.2114 632.2879 205.0814 632.2879 493.6514ZM23.3979 720.2114C-6.3921 730.9614 -6.8721 769.5314 17.0479 784.1814L170.8579 879.3914C191.8579 892.0914 215.2879 883.3014 222.6179 860.3514L279.7479 689.9414C288.5379 663.5714 265.0979 632.3214 233.3579 643.5514L164.0179 668.9414C144.4879 596.6814 134.2379 520.0214 134.2379 438.4814C134.2379 330.5614 151.3279 232.4214 185.0179 140.6214C196.2479 110.8414 174.2779 91.8014 151.3279 91.8014C136.6779 91.8014 121.5379 98.6314 115.6779 115.7214C80.0379 215.3314 60.5079 322.2614 60.5079 438.4814C60.5079 528.8114 72.2279 613.7714 94.1979 694.3314Z"/>
</svg>