<?xml version="1.0" encoding="UTF-8" standalone="no"?>
<svg xmlns="http://www.w3.org/2000/svg"
     width="971.6796875" height="320.3125"
     viewBox="0 0 971.6796875 320.3125"
     fill="currentColor">
  <path d="M-0.0017 41.9953C-0.0017 64.9453 18.5583 83.4953 41.5083 83.4953H929.6883C952.6383 83.4953 971.6783 64.9453 971.6783 41.9953C971.6783 19.0453 952.6383 -0.0047 929.6883 -0.0047H41.5083C18.5583 -0.0047 -0.0017 19.0453 -0.0017 41.9953ZM-0.0017 278.3153C-0.0017 301.2653 18.5583 320.3153 41.5083 320.3153H213.8683C236.8183 320.3153 255.3683 301.2653 255.3683 278.3153C255.3683 255.3753 236.8183 236.8153 213.8683 236.8153H41.5083C18.5583 236.8153 -0.0017 255.3753 -0.0017 278.3153ZM357.9083 278.3153C357.9083 301.2653 376.9483 320.3153 399.8983 320.3153H571.2883C594.2383 320.3153 612.7883 301.2653 612.7883 278.3153C612.7883 255.3753 594.2383 236.8153 571.2883 236.8153H399.8983C376.9483 236.8153 357.9083 255.3753 357.9083 278.3153ZM715.3283 278.3153C715.3283 301.2653 733.8883 320.3153 756.8383 320.3153H925.7783C948.7283 320.3153 967.7783 301.2653 967.7783 278.3153C967.7783 255.3753 948.7283 236.8153 925.7783 236.8153H756.8383C733.8883 236.8153 715.3283 255.3753 715.3283 278.3153Z"/>
</svg>