<?xml version="1.0" encoding="UTF-8" standalone="no"?>
<svg xmlns="http://www.w3.org/2000/svg"
     width="926.26953125" height="1067.3828125"
     viewBox="0 0 926.26953125 1067.3828125"
     fill="currentColor">
  <path d="M-0.0017 245.1189H847.1683V116.6989C847.1683 46.8789 801.7583 -0.0011 734.3783 -0.0011H113.2783C45.4083 -0.0011 -0.0017 46.8789 -0.0017 116.6989ZM176.7583 190.9189C152.3483 190.9189 132.3283 170.4089 132.3283 146.4889C132.3283 121.5789 152.3483 101.5589 176.7583 101.5589C201.1683 101.5589 220.6983 121.5789 220.6983 146.4889C220.6983 170.4089 201.1683 190.9189 176.7583 190.9189ZM305.1783 190.9189C280.7583 190.9189 261.2283 170.4089 261.2283 146.4889C261.2283 121.5789 280.7583 101.5589 305.1783 101.5589C329.5883 101.5589 349.1183 121.5789 349.1183 146.4889C349.1183 170.4089 329.5883 190.9189 305.1783 190.9189ZM-0.0017 835.9389H256.3483C255.8583 828.6089 255.3683 822.2689 255.3683 814.9389C255.3683 643.5589 393.0683 505.8589 564.9383 505.8589C581.0583 505.8589 597.1683 506.8389 612.3083 509.2789C631.3483 506.8389 651.8583 505.8589 673.8283 505.8589C738.2783 505.8589 797.8483 525.3889 847.1683 558.5889V311.5189H-0.0017ZM304.6883 431.6389C289.5483 431.6389 279.2983 420.8989 279.2983 405.7589C279.2983 390.6289 289.5483 380.3689 304.6883 380.3689H542.9683C558.1083 380.3689 567.8683 390.6289 567.8683 405.7589C567.8683 420.8989 558.1083 431.6389 542.9683 431.6389ZM564.9383 1067.3789C583.9883 1067.3789 602.0483 1065.4289 620.1183 1061.5189C637.2083 1065.4289 655.2783 1067.3789 673.8283 1067.3789C813.4783 1067.3789 926.2683 955.0789 926.2683 814.9389C926.2683 674.8089 813.4783 562.4989 673.8283 562.4989C655.2783 562.4989 637.2083 564.4489 619.6283 568.3589C602.0483 564.4489 583.4983 562.4989 564.9383 562.4989C424.8083 562.4989 312.0083 674.8089 312.0083 814.9389C312.0083 955.0789 424.8083 1067.3789 564.9383 1067.3789ZM564.9383 1013.1789C451.1683 1013.1789 366.2083 928.2189 366.2083 814.9389C366.2083 701.6589 451.1683 616.6989 564.9383 616.6989C677.7383 616.6989 762.6983 701.6589 762.6983 814.9389C762.6983 928.2189 677.7383 1013.1789 564.9383 1013.1789ZM816.8983 814.9389C816.8983 738.7689 783.6883 670.4089 730.4683 624.5089C813.9683 647.4589 872.0683 721.6789 872.0683 814.9389C872.0683 908.6889 813.9683 982.9089 730.4683 1005.8589C783.6883 959.4689 816.8983 891.1089 816.8983 814.9389ZM564.9383 961.9189C645.5083 961.9189 711.4283 895.9989 711.4283 814.9389C711.4283 733.8889 645.5083 668.4589 564.9383 668.4589C483.3983 668.4589 417.9683 733.8889 417.9683 814.9389C417.9683 895.9989 483.3983 961.9189 564.9383 961.9189ZM564.9383 917.4789C504.8783 917.4789 462.3983 874.5089 462.3983 814.9389C462.3983 755.3689 504.8783 712.8889 564.9383 712.8889C624.5083 712.8889 666.9883 755.3689 666.9883 814.9389C666.9883 874.9989 624.0283 917.4789 564.9383 917.4789ZM113.2783 1025.3889H337.8883C305.6683 991.2089 281.2483 949.2189 267.5783 902.3389H-0.0017V909.1789C-0.0017 979.0089 45.4083 1025.3889 113.2783 1025.3889Z"/>
</svg>