<?xml version="1.0" encoding="UTF-8" standalone="no"?>
<svg xmlns="http://www.w3.org/2000/svg"
     width="989.74609375" height="1131.8359375"
     viewBox="0 0 989.74609375 1131.8359375"
     fill="currentColor">
  <path d="M109.8683 1006.837H159.1783V1098.147C159.1783 1117.187 176.2683 1131.837 195.3083 1131.837C214.3583 1131.837 230.9583 1117.187 230.9583 1098.147V1006.837H279.7883C351.0783 1006.837 389.6483 967.287 389.6483 894.527V237.307C389.6483 164.547 351.0783 125.487 279.7883 125.487H230.9583V33.687C230.9583 14.647 214.3583 -0.003 195.3083 -0.003C176.2683 -0.003 159.1783 14.647 159.1783 33.687V125.487H109.8683C38.5783 125.487 -0.0017 164.547 -0.0017 237.307V894.527C-0.0017 967.287 38.5783 1006.837 109.8683 1006.837ZM709.9583 861.817H759.2783V1098.147C759.2783 1117.187 775.8783 1131.837 794.9183 1131.837C813.9683 1131.837 831.0583 1117.187 831.0583 1098.147V861.817H879.8783C951.1683 861.817 989.7483 822.757 989.7483 749.997V381.837C989.7483 309.077 951.1683 270.017 879.8783 270.017H831.0583V33.687C831.0583 14.647 813.9683 -0.003 794.9183 -0.003C775.8783 -0.003 759.2783 14.647 759.2783 33.687V270.017H709.9583C638.6683 270.017 600.0983 309.077 600.0983 381.837V749.997C600.0983 822.757 638.6683 861.817 709.9583 861.817ZM114.2583 933.107C87.8883 933.107 73.7283 918.457 73.7283 893.557V238.277C73.7283 213.377 87.8883 199.217 114.2583 199.217H275.8783C301.7583 199.217 315.9183 213.377 315.9183 238.277V893.557C315.9183 918.457 301.7583 933.107 275.8783 933.107ZM713.8683 788.087C687.9883 788.087 673.8283 773.927 673.8283 749.027V383.297C673.8283 357.907 687.9883 343.747 713.8683 343.747H875.4883C901.8583 343.747 916.0183 357.907 916.0183 383.297V749.027C916.0183 773.927 901.8583 788.087 875.4883 788.087Z"/>
</svg>