<?xml version="1.0" encoding="UTF-8" standalone="no"?>
<svg xmlns="http://www.w3.org/2000/svg"
     width="1250.9765625" height="1131.8359375"
     viewBox="0 0 1250.9765625 1131.8359375"
     fill="currentColor">
  <path d="M505.8583 1131.837C524.8983 1131.837 541.5083 1117.187 541.5083 1098.147V33.687C541.5083 14.647 524.8983 -0.003 505.8583 -0.003C486.8183 -0.003 469.7283 14.647 469.7283 33.687V1098.147C469.7283 1117.187 486.8183 1131.837 505.8583 1131.837ZM1214.8483 1131.837C1233.8883 1131.837 1250.9783 1117.187 1250.9783 1098.147V33.687C1250.9783 14.647 1233.8883 -0.003 1214.8483 -0.003C1195.7983 -0.003 1179.1983 14.647 1179.1983 33.687V1098.147C1179.1983 1117.187 1195.7983 1131.837 1214.8483 1131.837ZM109.8683 1035.157H279.7883C351.0783 1035.157 389.6483 995.607 389.6483 922.847V208.987C389.6483 136.227 351.0783 97.167 279.7883 97.167H109.8683C38.5783 97.167 -0.0017 136.227 -0.0017 208.987V922.847C-0.0017 995.607 38.5783 1035.157 109.8683 1035.157ZM819.3383 861.817H988.7683C1060.0583 861.817 1099.1183 822.757 1099.1183 749.997V381.837C1099.1183 309.077 1060.0583 270.017 988.7683 270.017H819.3383C748.0483 270.017 708.9883 309.077 708.9883 381.837V749.997C708.9883 822.757 748.0483 861.817 819.3383 861.817Z"/>
</svg>