<?xml version="1.0" encoding="UTF-8" standalone="no"?>
<svg xmlns="http://www.w3.org/2000/svg"
     width="1187.5" height="1026.3671875"
     viewBox="0 0 1187.5 1026.3671875"
     fill="currentColor">
  <path d="M34.1783 228.5127H299.8083V275.3927C299.8083 346.6827 338.8683 385.2527 411.6183 385.2527H775.8783C848.6283 385.2527 887.6983 346.6827 887.6983 275.3927V228.5127H1134.7683C1153.8083 228.5127 1168.9483 211.9127 1168.9483 192.8727C1168.9483 173.8327 1153.8083 156.7427 1134.7683 156.7427H887.6983V109.8627C887.6983 38.5727 848.6283 0.0027 775.8783 0.0027H411.6183C338.8683 0.0027 299.8083 38.5727 299.8083 109.8627V156.7427H34.1783C14.6483 156.7427 -0.0017 173.8327 -0.0017 192.8727C-0.0017 211.9127 14.6483 228.5127 34.1783 228.5127ZM34.1783 869.6327H126.9483V916.5027C126.9483 987.3027 166.0183 1026.3627 238.7683 1026.3627H948.7283C1021.4883 1026.3627 1060.5483 987.3027 1060.5483 916.5027V869.6327H1153.3183C1172.3683 869.6327 1187.4983 852.5427 1187.4983 833.4927C1187.4983 814.4527 1172.3683 797.8527 1153.3183 797.8527H1060.5483V750.9727C1060.5483 679.6827 1021.4883 640.6227 948.7283 640.6227H238.7683C166.0183 640.6227 126.9483 679.6827 126.9483 750.9727V797.8527H34.1783C14.6483 797.8527 -0.0017 814.4527 -0.0017 833.4927C-0.0017 852.5427 14.6483 869.6327 34.1783 869.6327Z"/>
</svg>