<?xml version="1.0" encoding="UTF-8" standalone="no"?>
<svg xmlns="http://www.w3.org/2000/svg"
     width="898.92578125" height="898.92578125"
     viewBox="0 0 898.92578125 898.92578125"
     fill="currentColor">
  <path d="M153.3183 898.9295H745.6083C848.1483 898.9295 898.9283 848.1495 898.9283 747.5595V151.3695C898.9283 50.7795 848.1483 -0.0005 745.6083 -0.0005H153.3183C51.2683 -0.0005 -0.0017 50.2895 -0.0017 151.3695V747.5595C-0.0017 848.6295 51.2683 898.9295 153.3183 898.9295ZM448.7283 323.7295C415.0383 323.7295 388.6683 299.3195 388.6683 268.0695C388.6683 232.4195 415.0383 207.0295 448.7283 207.0295C485.8383 207.0295 510.7383 231.9295 510.7383 268.0695C510.7383 299.3195 485.3483 323.7295 448.7283 323.7295ZM253.9083 491.6995C225.5883 491.6995 206.0583 476.5595 206.0583 449.7095C206.0583 422.3595 224.6083 407.2295 253.9083 407.2295H645.9983C675.2883 407.2295 693.3583 422.3595 693.3583 449.7095C693.3583 476.5595 674.3183 491.6995 645.9983 491.6995ZM448.7283 691.4095C415.0383 691.4095 388.6683 666.4995 388.6683 635.2495C388.6683 599.6095 415.0383 574.7095 448.7283 574.7095C485.8383 574.7095 510.7383 599.6095 510.7383 635.2495C510.7383 666.4995 485.3483 691.4095 448.7283 691.4095Z"/>
</svg>