<?xml version="1.0" encoding="UTF-8" standalone="no"?>
<svg xmlns="http://www.w3.org/2000/svg"
     width="996.09375" height="996.09375"
     viewBox="0 0 996.09375 996.09375"
     fill="currentColor">
  <path d="M498.0477 996.0959C770.5077 996.0959 996.0977 770.0159 996.0977 498.0459C996.0977 225.5859 770.0177 -0.0041 497.5577 -0.0041C225.5877 -0.0041 -0.0023 225.5859 -0.0023 498.0459C-0.0023 770.0159 226.0777 996.0959 498.0477 996.0959ZM497.0677 373.0459C463.3777 373.0459 437.0077 348.6359 437.0077 317.3859C437.0077 281.7359 463.3777 256.3459 497.0677 256.3459C534.1777 256.3459 559.0777 281.2459 559.0777 317.3859C559.0777 348.6359 533.6877 373.0459 497.0677 373.0459ZM302.2477 541.0159C273.4377 541.0159 254.3977 525.8759 254.3977 499.0259C254.3977 471.6759 272.4577 456.5459 302.2477 456.5459H694.3377C723.6377 456.5459 741.6977 471.6759 741.6977 499.0259C741.6977 525.8759 722.6577 541.0159 694.3377 541.0159ZM497.0677 740.7259C463.3777 740.7259 437.0077 715.8159 437.0077 684.5659C437.0077 648.9259 463.3777 624.0259 497.0677 624.0259C534.1777 624.0259 559.0777 648.9259 559.0777 684.5659C559.0777 715.8159 533.6877 740.7259 497.0677 740.7259Z"/>
</svg>