<?xml version="1.0" encoding="UTF-8" standalone="no"?>
<svg xmlns="http://www.w3.org/2000/svg"
     width="821.2890625" height="1046.875"
     viewBox="0 0 821.2890625 1046.875"
     fill="currentColor">
  <path d="M-0.0017 894.0466C-0.0017 996.0966 50.2883 1046.8766 151.3683 1046.8766H669.9183C770.9983 1046.8766 821.2883 996.0966 821.2883 894.0466V153.3166C821.2883 51.7566 770.9983 -0.0034 669.9183 -0.0034H151.3683C50.2883 -0.0034 -0.0017 51.7566 -0.0017 153.3166ZM78.6183 892.5766V154.7866C78.6183 105.9566 104.4883 78.6166 155.2783 78.6166H666.0183C716.7983 78.6166 742.6783 105.9566 742.6783 154.7866V892.5766C742.6783 941.4066 716.7983 968.2666 666.0183 968.2666H155.2783C104.4883 968.2666 78.6183 941.4066 78.6183 892.5766ZM538.5783 494.6266C597.6583 494.6266 639.1583 453.6166 639.1583 395.0166C639.1583 337.8866 604.0083 299.8066 552.2483 299.8066C525.8783 299.8066 504.8783 308.1066 489.7483 327.1466H479.4883C483.3983 309.5666 494.6283 292.9666 510.2583 278.8066C525.8783 264.6466 545.4083 256.3466 566.8983 251.4666C584.9583 247.0666 590.8183 241.6966 590.8183 230.9566C590.8183 220.7066 583.4983 212.8866 569.8283 212.8866C538.0883 212.8866 497.0683 233.3966 471.1883 261.7166C443.3583 291.5066 429.6883 329.5866 429.6883 371.0966C429.6883 449.2166 478.0283 494.6266 538.5783 494.6266ZM291.0183 495.1166C350.5883 495.1166 391.5983 454.0966 391.5983 395.5066C391.5983 338.3766 356.4483 300.2966 304.6883 300.2966C278.8083 300.2966 257.3283 308.5966 242.1883 327.6366H232.4183C236.3283 309.5666 247.5583 292.4766 264.6483 278.3166C279.7883 265.1366 298.3383 256.3466 319.8283 251.9566C337.8883 247.5566 343.2583 242.1866 343.2583 231.4466C343.2583 221.1866 335.9383 213.3766 322.2683 213.3766C290.5283 213.3766 250.9783 232.9066 223.6283 262.2066C196.2883 291.9966 182.6183 330.0766 182.6183 371.5866C182.6183 449.7066 230.9583 495.1166 291.0183 495.1166ZM225.5883 659.6666H596.1883C613.7683 659.6666 626.4683 645.9966 626.4683 628.9066C626.4683 612.3066 613.7683 599.6066 596.1883 599.6066H225.5883C208.0083 599.6066 194.8283 612.3066 194.8283 628.9066C194.8283 645.9966 208.0083 659.6666 225.5883 659.6666ZM225.5883 829.5866H400.8783C418.4583 829.5866 431.1483 816.8966 431.1483 800.2966C431.1483 783.2066 418.4583 769.5266 400.8783 769.5266H225.5883C208.0083 769.5266 194.8283 783.2066 194.8283 800.2966C194.8283 816.8966 208.0083 829.5866 225.5883 829.5866Z"/>
</svg>