<?xml version="1.0" encoding="UTF-8" standalone="no"?>
<svg xmlns="http://www.w3.org/2000/svg"
     width="906.73828125" height="1137.20703125"
     viewBox="0 0 906.73828125 1137.20703125"
     fill="currentColor">
  <path d="M151.3683 1046.873H418.9483C393.5583 1024.903 371.5783 998.043 355.4683 968.263H155.7583C105.4683 968.263 78.6183 942.383 78.6183 893.553V154.293C78.6183 106.443 104.9783 78.613 155.7583 78.613H666.0183C714.8483 78.613 742.6783 105.953 742.6783 154.293V580.563C772.4583 596.683 799.3183 618.163 821.2883 644.043V153.323C821.2883 50.783 770.9983 0.003 669.9183 0.003H151.3683C50.7783 0.003 -0.0017 51.273 -0.0017 153.323V893.553C-0.0017 996.093 50.7783 1046.873 151.3683 1046.873ZM226.0783 277.833H596.1883C613.2783 277.833 626.4683 264.163 626.4683 247.073C626.4683 230.473 613.2783 217.773 596.1883 217.773H226.0783C208.0083 217.773 195.3083 230.473 195.3083 247.073C195.3083 264.163 208.0083 277.833 226.0783 277.833ZM226.0783 447.753H596.1883C613.2783 447.753 626.4683 434.573 626.4683 417.483C626.4683 400.883 613.2783 387.693 596.1883 387.693H226.0783C208.0083 387.693 195.3083 400.883 195.3083 417.483C195.3083 434.573 208.0083 447.753 226.0783 447.753ZM602.0483 1046.873C645.9983 1046.873 687.4983 1033.693 721.6783 1011.233L831.5383 1121.093C843.2583 1132.813 854.0083 1137.203 867.1883 1137.203C889.6483 1137.203 906.7383 1119.633 906.7383 1094.723C906.7383 1083.983 901.3683 1073.243 893.0683 1064.943L781.7383 953.123C806.6383 917.483 821.2883 874.513 821.2883 827.633C821.2883 705.563 723.1483 607.423 602.0483 607.423C480.9583 607.423 381.8383 706.543 381.8383 827.633C381.8383 948.733 480.9583 1046.873 602.0483 1046.873ZM602.0483 977.053C519.0383 977.053 451.6583 909.673 451.6583 827.633C451.6583 745.603 519.0383 677.733 602.0483 677.733C683.5983 677.733 750.9783 745.603 750.9783 827.633C750.9783 909.673 684.0783 977.053 602.0483 977.053Z"/>
</svg>