<?xml version="1.0" encoding="UTF-8" standalone="no"?>
<svg xmlns="http://www.w3.org/2000/svg"
     width="998.53515625" height="1228.515625"
     viewBox="0 0 998.53515625 1228.515625"
     fill="currentColor">
  <path d="M-0.0017 1075.1952C-0.0017 1177.2452 50.2883 1228.5152 151.3683 1228.5152H610.3483C711.4283 1228.5152 761.7183 1176.7552 761.7183 1075.1952V984.8652H847.1683C947.7583 984.8652 998.5383 933.1052 998.5383 831.5452V153.3252C998.5383 51.7552 947.7583 -0.0048 847.1683 -0.0048H388.1883C287.5983 -0.0048 236.8183 51.2652 236.8183 153.3252V243.6552H151.3683C50.7783 243.6552 -0.0017 294.9252 -0.0017 396.9752ZM498.5383 167.4852C477.0483 167.4852 467.2883 153.3252 467.2883 138.6752V128.4152C467.2883 113.2852 477.0483 99.6052 498.5383 99.6052H736.8183C757.8083 99.6052 768.0683 113.2852 768.0683 128.4152V138.6752C768.0683 153.3252 757.8083 167.4852 736.8183 167.4852ZM78.6183 1073.7352V397.9452C78.6183 350.0952 104.4883 322.2652 155.2783 322.2652H315.4283V605.4652C315.4283 666.9952 346.6783 697.7552 407.2283 697.7552H683.1083V1073.7352C683.1083 1122.5552 656.7383 1149.9052 606.4483 1149.9052H154.7883C104.4883 1149.9052 78.6183 1122.5552 78.6183 1073.7352ZM416.5083 624.0252C396.9683 624.0252 389.1583 616.2152 389.1583 596.6752V340.3352L667.9683 624.0252Z"/>
</svg>