<?xml version="1.0" encoding="UTF-8" standalone="no"?>
<svg xmlns="http://www.w3.org/2000/svg"
     width="821.2890625" height="1094.23828125"
     viewBox="0 0 821.2890625 1094.23828125"
     fill="currentColor">
  <path d="M-0.0017 941.4098C-0.0017 1043.4598 50.2883 1094.2398 151.3683 1094.2398H669.9183C770.9983 1094.2398 821.2883 1043.4598 821.2883 941.4098V200.6798C821.2883 99.1198 770.9983 47.3598 669.9183 47.3598H482.9083L478.5183 28.3198C474.1183 11.2298 459.4683 -0.0002 441.4083 -0.0002H379.8783C361.8183 -0.0002 347.1683 11.2298 342.7783 28.3198L338.3783 47.3598H151.3683C50.2883 47.3598 -0.0017 99.1198 -0.0017 200.6798ZM78.6183 939.9398V202.1498C78.6183 153.3198 104.4883 125.9798 155.2783 125.9798H320.3083L296.8783 228.5198C293.9483 242.1898 292.4783 255.8598 292.4783 269.5298C292.4783 330.0798 324.7083 370.1198 380.3683 380.3698V502.9298H295.4083C278.3183 502.9298 265.1383 515.6298 265.1383 532.2298C265.1383 549.3198 278.3183 562.9898 295.4083 562.9898H380.3683V635.2498H295.4083C278.3183 635.2498 265.1383 647.9498 265.1383 664.5498C265.1383 681.6398 278.3183 695.3098 295.4083 695.3098H380.3683V767.5798H295.4083C278.3183 767.5798 265.1383 780.2698 265.1383 796.8798C265.1383 813.9598 278.3183 827.6398 295.4083 827.6398H380.3683V899.8998H295.4083C278.3183 899.8998 265.1383 913.0898 265.1383 929.6898C265.1383 946.7798 278.3183 959.9598 295.4083 959.9598H380.3683V1015.6298H155.2783C104.4883 1015.6298 78.6183 988.7698 78.6183 939.9398ZM525.8783 893.5498C542.9683 893.5498 556.1483 880.3698 556.1483 863.2798C556.1483 846.6798 542.9683 833.4998 525.8783 833.4998H440.9183V761.2298H525.8783C542.9683 761.2298 556.1483 748.0498 556.1483 730.9598C556.1483 714.3598 542.9683 701.1698 525.8783 701.1698H440.9183V628.9098H525.8783C542.9683 628.9098 556.1483 615.7198 556.1483 598.6298C556.1483 582.0298 542.9683 568.8498 525.8783 568.8498H440.9183V496.5798H525.8783C542.9683 496.5798 556.1483 483.3998 556.1483 466.3098C556.1483 449.7098 542.9683 436.5198 525.8783 436.5198H440.9183V380.3698C496.5783 370.1198 528.8083 330.0798 528.8083 269.5298C528.8083 255.8598 527.3483 242.1898 524.4183 228.5198L500.9783 125.9798H666.0183C716.7983 125.9798 742.6783 153.3198 742.6783 202.1498V939.9398C742.6783 988.7698 716.7983 1015.6298 666.0183 1015.6298H440.9183V893.5498ZM410.6483 318.3598C380.3683 318.3598 357.4183 294.9198 357.4183 264.6498C357.4183 234.8598 380.8583 211.4298 410.6483 211.4298C440.4283 211.4298 463.8683 234.8598 463.8683 264.6498C463.8683 294.9198 441.4083 318.3598 410.6483 318.3598Z"/>
</svg>