<?xml version="1.0" encoding="UTF-8" standalone="no"?>
<svg xmlns="http://www.w3.org/2000/svg"
     width="821.2890625" height="1046.875"
     viewBox="0 0 821.2890625 1046.875"
     fill="currentColor">
  <path d="M151.3683 1046.8766H669.9183C770.9983 1046.8766 821.2883 995.6066 821.2883 894.0466V450.6866H467.7783C405.2783 450.6866 375.4883 420.8966 375.4883 358.3966V-0.0034H151.3683C50.7783 -0.0034 -0.0017 51.7566 -0.0017 153.3166V894.0466C-0.0017 996.0966 50.2883 1046.8766 151.3683 1046.8766ZM469.2383 383.7866H815.4283C812.4983 363.7666 798.3383 344.2366 774.8983 320.3166L505.8583 46.3866C482.9083 22.9466 462.8883 8.7866 442.3783 5.3666V357.4266C442.3783 374.9966 451.1683 383.7866 469.2383 383.7866ZM219.2383 663.0866C200.1983 663.0866 186.0383 649.4166 186.0383 631.3466C186.0383 613.2766 200.1983 599.1166 219.2383 599.1166H603.5183C622.0683 599.1166 636.2283 613.2766 636.2283 631.3466C636.2283 649.4166 622.0683 663.0866 603.5183 663.0866ZM219.2383 848.1466C200.1983 848.1466 186.0383 834.4766 186.0383 816.4066C186.0383 798.3366 200.1983 784.1766 219.2383 784.1766H603.5183C622.0683 784.1766 636.2283 798.3366 636.2283 816.4066C636.2283 834.4766 622.0683 848.1466 603.5183 848.1466Z"/>
</svg>