<?xml version="1.0" encoding="UTF-8" standalone="no"?>
<svg xmlns="http://www.w3.org/2000/svg"
     width="1090.886194188912" height="996.09375"
     viewBox="0 0 1090.886194188912 996.09375"
     fill="currentColor">
  <path d="M34.7335 403.8059C-0.4265 403.8059 -9.2065 427.7359 9.8335 455.0759L119.2035 610.3559C135.3235 632.8159 158.7535 632.3259 174.3835 610.3559L283.7535 454.5859C302.3135 427.7359 293.5235 403.8059 258.8535 403.8059H188.0535C230.5335 219.2359 394.5935 83.4959 592.8435 83.4959C823.3035 83.4959 1007.8735 267.5759 1007.8735 498.0459C1007.8735 728.5159 823.3035 914.0659 592.8435 913.0859C453.6835 912.5959 331.6135 845.2159 256.9035 741.2059C241.7635 721.1959 218.8135 714.8459 198.3035 727.0459C178.7735 739.2559 173.4035 766.1159 190.0035 787.5959C282.7835 912.1059 428.2935 996.0959 592.8435 996.0959C864.8135 996.0959 1090.8835 770.0159 1090.8835 498.0459C1090.8835 225.5859 864.8135 -0.0041 592.8435 -0.0041C352.6035 -0.0041 148.5035 175.2959 103.5835 403.8059ZM563.5435 788.0859C563.5435 804.1959 576.7235 817.8759 592.8435 817.8759C608.9535 817.8759 622.6235 804.1959 622.6235 788.0859V738.7659C711.0035 728.5159 772.0435 674.3159 772.0435 601.0759C772.0435 532.7159 734.4435 496.0959 641.1835 473.6359L622.6235 468.7459V325.6859C654.3635 333.9859 674.8735 355.4659 688.0535 390.6259C695.8635 407.7159 709.0535 415.5259 722.7235 415.5259C748.1135 415.5259 762.7635 393.0659 753.9735 363.7659C742.2535 318.8459 695.8635 271.4859 622.6235 259.7659V208.4959C622.6235 192.3859 608.9535 178.7059 592.8435 178.7059C576.7235 178.7059 563.5435 192.3859 563.5435 208.4959V258.2959C478.0935 267.0859 418.5235 321.2859 418.5235 394.0459C418.5235 460.9359 461.4935 501.9559 550.8435 522.9459L563.5435 525.8759V673.8259C523.5035 667.4759 497.6235 645.9959 482.9735 607.9059C475.6535 591.3059 462.4635 583.4959 448.7935 583.4959C423.8935 583.4959 410.7135 603.5159 416.0835 632.8159C426.3335 686.5259 483.9535 730.4659 563.5435 738.7659ZM493.7135 391.1159C493.7135 356.4459 521.0635 331.0559 563.5435 323.7259V454.1059C514.7135 440.9159 493.7135 421.8759 493.7135 391.1159ZM695.8635 606.4459C695.8635 641.1159 668.0335 666.0159 622.6235 673.8259V540.0359C675.3635 552.2459 695.8635 570.7959 695.8635 606.4459Z"/>
</svg>