<?xml version="1.0" encoding="UTF-8" standalone="no"?>
<svg xmlns="http://www.w3.org/2000/svg"
     width="898.92578125" height="898.92578125"
     viewBox="0 0 898.92578125 898.92578125"
     fill="currentColor">
  <path d="M153.3183 898.9295H745.6083C848.1483 898.9295 898.9283 848.1495 898.9283 747.5595V151.3695C898.9283 50.7795 848.1483 -0.0005 745.6083 -0.0005H153.3183C51.2683 -0.0005 -0.0017 50.2895 -0.0017 151.3695V747.5595C-0.0017 848.6295 51.2683 898.9295 153.3183 898.9295ZM449.7083 736.3295C436.0383 736.3295 425.7783 726.5595 425.7783 712.3995V676.2695C358.3983 669.9195 302.2483 632.8095 288.0883 574.7095C286.6183 569.8195 285.6483 564.4495 285.6483 559.0795C285.6483 541.4995 297.8483 529.2995 314.9383 529.2995C330.0783 529.2995 340.8183 537.1095 346.1883 554.6895C354.4883 587.8895 380.8583 613.2795 425.7783 619.6295V471.1895L422.3683 470.2195C338.3783 450.1995 295.4083 412.1095 295.4083 348.1395C295.4083 279.2995 349.6083 231.4495 425.7783 223.1395V188.4795C425.7783 174.3195 436.0383 164.5495 449.7083 164.5495C463.3783 164.5495 474.1183 174.3195 474.1183 188.4795V223.1395C538.5783 230.4695 589.8483 268.0695 603.0283 322.2695C604.0083 327.6395 605.4683 333.0095 605.4683 337.8895C605.4683 355.4695 592.7783 367.6795 575.6883 367.6795C559.5683 367.6795 549.8083 357.9095 544.9183 342.7695C534.6683 309.0795 509.7683 287.5995 474.1183 281.2495V421.3895L480.4683 422.8495C567.8683 438.4795 612.3083 479.9795 612.3083 548.3395C612.3083 624.5095 551.7583 669.9195 474.1183 677.2495V712.3995C474.1183 726.5595 463.3783 736.3295 449.7083 736.3295ZM425.7783 408.6895V281.2495C383.2983 288.5695 357.9083 314.4495 357.9083 344.7295C357.9083 374.5095 377.9283 394.5295 422.3683 407.7195ZM474.1183 482.9095V619.6295C525.3883 613.7695 550.2883 586.9095 550.2883 551.7595C550.2883 520.0195 533.1983 499.0195 484.3783 485.8395Z"/>
</svg>