<?xml version="1.0" encoding="UTF-8" standalone="no"?>
<svg xmlns="http://www.w3.org/2000/svg"
     width="655.2734375" height="951.171875"
     viewBox="0 0 655.2734375 951.171875"
     fill="currentColor">
  <path d="M257.8083 814.94C354.0083 814.94 426.2683 770.02 461.4283 698.24H463.8683V782.23C463.8683 808.59 481.4483 825.68 506.8383 825.68C531.7383 825.68 548.8283 808.59 548.8283 782.23V157.71H624.5083C641.1183 157.71 655.2783 143.55 655.2783 126.46C655.2783 109.86 641.1183 95.7 624.5083 95.7H548.8283V45.41C548.8283 17.09 530.7583 0 504.3983 0C478.0283 0 459.4683 17.09 459.4683 45.41V95.7H269.0383C251.9483 95.7 238.2783 109.86 238.2783 126.46C238.2783 143.55 251.9483 157.71 269.0383 157.71H459.4683V364.75H457.5183C425.7783 293.46 354.0083 248.54 257.8083 248.54C119.1383 248.54 -0.0017 355.47 -0.0017 531.74C-0.0017 708.01 119.1383 814.94 257.8083 814.94ZM277.8283 735.35C172.3683 735.35 92.2883 657.23 92.2883 531.74C92.2883 406.74 172.3683 328.61 277.8283 328.61C379.8783 328.61 460.4483 411.62 460.4483 531.74C460.4483 651.86 379.8783 735.35 277.8283 735.35ZM47.3683 918.95C47.3683 936.52 61.5283 951.17 79.0983 951.17H546.3883C563.9683 951.17 578.1283 936.52 578.1283 918.95C578.1283 901.86 563.9683 887.21 546.3883 887.21H79.0983C61.5283 887.21 47.3683 901.86 47.3683 918.95Z"/>
</svg>