<?xml version="1.0" encoding="UTF-8" standalone="no"?>
<svg xmlns="http://www.w3.org/2000/svg"
     width="996.09375" height="996.09375"
     viewBox="0 0 996.09375 996.09375"
     fill="currentColor">
  <path d="M498.0477 996.0959C770.5077 996.0959 996.0977 770.0159 996.0977 498.0459C996.0977 225.5859 770.0177 -0.0041 497.5577 -0.0041C225.5877 -0.0041 -0.0023 225.5859 -0.0023 498.0459C-0.0023 770.0159 226.0777 996.0959 498.0477 996.0959ZM317.8677 516.1159C317.8677 423.3359 378.4177 359.3759 461.4277 359.3759C502.4377 359.3759 537.5977 375.4859 559.5677 402.3459V322.2659H467.7777C454.0977 322.2659 443.8477 312.0159 443.8477 298.3359C443.8477 284.6659 453.6177 273.9259 467.7777 273.9259H559.5677V250.4859C559.5677 230.4659 572.2677 218.2659 590.8177 218.2659C609.8677 218.2659 622.5577 230.4659 622.5577 250.4859V273.9259H654.7877C668.9477 273.9259 678.7077 284.6659 678.7077 298.3359C678.7077 312.0159 668.4577 322.2659 654.7877 322.2659H622.5577V647.9459C622.5577 666.5059 610.3477 678.7059 592.7777 678.7059C574.7077 678.7059 562.0077 666.5059 562.0077 647.9459V627.9259C539.0577 656.7359 502.9277 672.8559 461.9177 672.8559C378.9077 672.8559 317.8677 608.3959 317.8677 516.1159ZM382.8077 516.6059C382.8077 576.1759 418.9477 615.2359 472.1677 615.2359C523.9277 615.2359 561.0377 573.7259 561.0377 516.6059C561.0377 459.4759 523.9277 417.9659 472.1677 417.9659C418.9477 417.9659 382.8077 457.0359 382.8077 516.6059ZM343.7477 730.4659C343.7477 716.7959 354.0077 706.0559 368.1677 706.0559H613.7677C627.9277 706.0559 638.1877 716.3059 638.1877 730.4659C638.1877 744.1359 627.4377 754.8859 613.7677 754.8859H368.1677C354.4877 754.8859 343.7477 744.1359 343.7477 730.4659Z"/>
</svg>