<?xml version="1.0" encoding="UTF-8" standalone="no"?>
<svg xmlns="http://www.w3.org/2000/svg"
     width="898.92578125" height="898.92578125"
     viewBox="0 0 898.92578125 898.92578125"
     fill="currentColor">
  <path d="M153.3183 898.9295H745.6083C848.1483 898.9295 898.9283 848.1495 898.9283 747.5595V151.3695C898.9283 50.7795 848.1483 -0.0005 745.6083 -0.0005H153.3183C51.2683 -0.0005 -0.0017 50.2895 -0.0017 151.3695V747.5595C-0.0017 848.6295 51.2683 898.9295 153.3183 898.9295ZM154.2983 820.3095C105.4683 820.3095 78.6183 794.4295 78.6183 743.6495V155.2695C78.6183 104.4895 105.4683 78.6095 154.2983 78.6095H744.6283C792.9683 78.6095 820.3083 104.4895 820.3083 155.2695V743.6495C820.3083 794.4295 792.9683 820.3095 744.6283 820.3095ZM275.3883 466.3095C275.3883 555.6595 334.9583 618.1595 414.5483 618.1595C454.5883 618.1595 489.7483 602.5395 511.7183 574.7095V594.2395C511.7183 611.8195 523.9283 624.0195 541.5083 624.0195C558.5983 624.0195 570.3083 611.8195 570.3083 594.2395V278.3195H601.5583C614.7483 278.3195 624.5083 268.5595 624.5083 255.3695C624.5083 242.1895 615.2383 231.9295 601.5583 231.9295H570.3083V208.9795C570.3083 189.9395 558.1083 177.7295 540.0383 177.7295C521.4883 177.7295 509.2783 189.9395 509.2783 208.9795V231.9295H420.4083C406.7383 231.9295 397.9483 242.1895 397.9483 255.3695C397.9483 268.5595 407.2283 278.3195 420.4083 278.3195H509.2783V356.4495C488.2783 330.0795 454.0983 314.4495 414.0583 314.4495C334.4683 314.4495 275.3883 376.4695 275.3883 466.3095ZM337.8883 466.7995C337.8883 409.1795 373.0483 371.0895 424.8083 371.0895C474.6083 371.0895 510.7383 411.6195 510.7383 466.7995C510.7383 522.4595 474.6083 562.4995 424.8083 562.4995C373.0483 562.4995 337.8883 524.8995 337.8883 466.7995ZM300.2883 673.8295C300.2883 687.0095 310.5483 697.7495 323.7283 697.7495H562.0083C575.1983 697.7495 585.4483 687.0095 585.4483 673.8295C585.4483 660.1595 575.6883 650.3895 562.0083 650.3895H323.7283C310.0583 650.3895 300.2883 660.6395 300.2883 673.8295Z"/>
</svg>