<?xml version="1.0" encoding="UTF-8" standalone="no"?>
<svg xmlns="http://www.w3.org/2000/svg"
     width="996.09375" height="996.09375"
     viewBox="0 0 996.09375 996.09375"
     fill="currentColor">
  <path d="M498.0477 996.0959C770.5077 996.0959 996.0977 770.0159 996.0977 498.0459C996.0977 225.5859 770.0177 -0.0041 497.5577 -0.0041C225.5877 -0.0041 -0.0023 225.5859 -0.0023 498.0459C-0.0023 770.0159 226.0777 996.0959 498.0477 996.0959ZM498.0477 913.0859C267.5777 913.0859 83.4977 728.5159 83.4977 498.0459C83.4977 267.5759 267.0877 83.0059 497.5577 83.0059C728.0277 83.0059 913.0877 267.5759 913.0877 498.0459C913.0877 728.5159 728.5177 913.0859 498.0477 913.0859ZM323.2377 515.6259C323.2377 604.9759 382.3277 667.4759 462.3977 667.4759C502.4377 667.4759 537.5977 651.8559 559.5677 624.0259V643.5559C559.5677 661.1359 571.7777 673.3359 589.3577 673.3359C606.4477 673.3359 618.1677 661.1359 618.1677 643.5559V327.6359H649.4177C662.5977 327.6359 672.3677 317.8759 672.3677 304.6859C672.3677 291.5059 663.0877 281.2459 649.4177 281.2459H618.1677V258.2959C618.1677 239.2559 605.9577 227.0459 587.3977 227.0459C569.3377 227.0459 557.1277 239.2559 557.1277 258.2959V281.2459H468.2577C454.5877 281.2459 445.3077 291.5059 445.3077 304.6859C445.3077 317.8759 455.0777 327.6359 468.2577 327.6359H557.1277V405.7659C536.1377 379.3959 501.9577 363.7659 461.9177 363.7659C381.8377 363.7659 323.2377 425.7859 323.2377 515.6259ZM385.7377 516.1159C385.7377 458.4959 420.8977 420.4059 472.6577 420.4059C522.4577 420.4059 558.5977 460.9359 558.5977 516.1159C558.5977 571.7759 522.4577 611.8159 472.6577 611.8159C420.8977 611.8159 385.7377 574.2159 385.7377 516.1159ZM348.1477 723.1459C348.1477 736.3259 358.3977 747.0659 371.5777 747.0659H609.8677C623.0477 747.0659 633.2977 736.3259 633.2977 723.1459C633.2977 709.4759 623.5377 699.7059 609.8677 699.7059H371.5777C357.9077 699.7059 348.1477 709.9559 348.1477 723.1459Z"/>
</svg>