<?xml version="1.0" encoding="UTF-8" standalone="no"?>
<svg xmlns="http://www.w3.org/2000/svg"
     width="744.140625" height="1036.1328125"
     viewBox="0 0 744.140625 1036.1328125"
     fill="currentColor">
  <path d="M-0.0017 997.0655C-0.0017 1018.5555 17.5783 1036.1355 39.0583 1036.1355C61.0383 1036.1355 78.6183 1018.5555 78.6183 997.0655V104.4955C78.6183 88.8655 88.8683 78.6155 103.5183 78.6155H640.6283C655.2783 78.6155 665.5283 88.8655 665.5283 104.4955V997.0655C665.5283 1018.5555 683.1083 1036.1355 705.0783 1036.1355C726.5583 1036.1355 744.1383 1018.5555 744.1383 997.0655V99.6055C744.1383 40.0355 703.6183 -0.0045 642.0883 -0.0045H102.0483C41.0183 -0.0045 -0.0017 40.0355 -0.0017 99.6055ZM135.7383 1008.3055C135.7383 1017.5755 143.5583 1022.4655 152.8283 1018.5555L306.1483 950.6855C318.3583 945.3155 323.2383 941.4055 323.2383 928.7155V225.0955C323.2383 212.8955 318.3583 208.4955 306.6383 203.6155L152.8283 135.2555C143.5583 131.3455 135.7383 136.2255 135.7383 145.9955Z"/>
</svg>