<?xml version="1.0" encoding="UTF-8" standalone="no"?>
<svg xmlns="http://www.w3.org/2000/svg"
     width="1193.84765625" height="1036.1328125"
     viewBox="0 0 1193.84765625 1036.1328125"
     fill="currentColor">
  <path d="M39.0583 1036.1355C61.0383 1036.1355 78.6183 1018.5555 78.6183 997.0655V104.4955C78.6183 88.8655 88.8683 78.6155 103.5183 78.6155H1090.3283C1104.9783 78.6155 1115.2383 88.8655 1115.2383 104.4955V997.0655C1115.2383 1018.5555 1132.8083 1036.1355 1154.2983 1036.1355C1176.2683 1036.1355 1193.8483 1018.5555 1193.8483 997.0655V99.6055C1193.8483 40.0355 1152.8283 -0.0045 1091.3083 -0.0045H102.0483C41.0183 -0.0045 -0.0017 40.0355 -0.0017 99.6055V997.0655C-0.0017 1018.5555 17.5783 1036.1355 39.0583 1036.1355ZM135.7383 999.5155C135.7383 1008.7855 143.5583 1017.5755 152.8283 1015.6255L456.5383 947.7555C465.8183 945.8055 473.6283 939.4555 473.6283 929.6855V204.5855C473.6283 195.3155 466.3083 188.9655 457.0283 187.0155L152.3483 118.6555C143.5583 117.1855 135.7383 125.4855 135.7383 135.2555ZM1058.1083 999.5155V135.2555C1058.1083 125.4855 1050.2883 117.1855 1041.5083 118.6555L736.8183 187.0155C727.5383 188.9655 720.2183 195.3155 720.2183 204.5855V929.6855C720.2183 939.4555 727.5383 945.8055 737.3083 947.7555L1041.0183 1015.6255C1050.2883 1017.5755 1058.1083 1008.7855 1058.1083 999.5155ZM391.1183 414.5555L218.7483 401.8555C212.3983 401.3655 208.0083 398.4355 208.0083 390.6255V217.2855C208.0083 209.4755 212.8883 206.0555 219.2383 207.5155L391.1183 240.2355C397.4583 241.2155 402.3483 244.6255 402.3483 252.4455V402.3455C402.3483 409.6655 397.9483 415.0355 391.1183 414.5555ZM802.7383 414.5555C795.8983 415.0355 791.5083 409.6655 791.5083 402.3455V252.4455C791.5083 244.6255 796.3883 241.2155 802.7383 240.2355L974.6083 207.5155C980.4683 206.0555 985.8383 209.4755 985.8383 217.2855V390.6255C985.8383 398.4355 981.4483 401.3655 975.0983 401.8555ZM208.0083 659.1755V475.5855C208.0083 467.7755 212.8883 463.8655 219.2383 464.3555L391.1183 473.6355C397.9483 474.1255 402.3483 478.5155 402.3483 485.8355V648.9255C402.3483 656.2455 397.4583 660.1555 391.1183 660.6455L219.2383 670.4055C212.3983 670.8955 208.0083 666.5055 208.0083 659.1755ZM985.8383 659.1755C985.8383 666.5055 981.4483 670.8955 974.6083 670.4055L802.7383 660.6455C795.8983 660.1555 791.5083 656.2455 791.5083 648.9255V485.8355C791.5083 478.5155 795.8983 474.1255 802.7383 473.6355L974.6083 464.3555C980.9583 463.8655 985.8383 467.7755 985.8383 475.5855ZM803.2183 720.2155L974.1183 732.4255C980.9583 732.9055 985.8383 737.3055 985.8383 744.6255V916.9955C985.8383 924.8055 980.9583 928.2255 974.6083 926.7555L802.2483 892.5755C795.8983 891.1155 791.5083 887.6955 791.5083 880.3755V730.9555C791.5083 723.6355 796.3883 719.7255 803.2183 720.2155ZM390.6283 720.2155C397.4583 719.7255 402.3483 723.6355 402.3483 730.9555V880.3755C402.3483 887.6955 397.9483 891.1155 391.5983 892.5755L219.2383 926.7555C212.8883 928.2255 208.0083 924.8055 208.0083 916.9955V744.6255C208.0083 737.3055 212.8883 732.9055 219.2383 732.4255Z"/>
</svg>