<?xml version="1.0" encoding="UTF-8" standalone="no"?>
<svg xmlns="http://www.w3.org/2000/svg"
     width="1193.84765625" height="1036.1328125"
     viewBox="0 0 1193.84765625 1036.1328125"
     fill="currentColor">
  <path d="M39.0583 1036.1355C61.0383 1036.1355 78.6183 1018.5555 78.6183 997.0655V104.4955C78.6183 88.8655 88.8683 78.6155 103.5183 78.6155H1090.3283C1104.9783 78.6155 1115.2383 88.8655 1115.2383 104.4955V997.0655C1115.2383 1018.5555 1132.8083 1036.1355 1154.2983 1036.1355C1176.2683 1036.1355 1193.8483 1018.5555 1193.8483 997.0655V99.6055C1193.8483 40.0355 1152.8283 -0.0045 1091.3083 -0.0045H102.0483C41.0183 -0.0045 -0.0017 40.0355 -0.0017 99.6055V997.0655C-0.0017 1018.5555 17.5783 1036.1355 39.0583 1036.1355ZM152.3483 342.7755H1041.5083C1050.7783 342.7755 1058.1083 335.4455 1058.1083 326.6555V151.8555C1058.1083 142.5755 1050.7783 135.2555 1041.5083 135.2555H152.3483C143.0683 135.2555 135.7383 142.5755 135.7383 151.8555V326.6555C135.7383 335.4455 143.0683 342.7755 152.3483 342.7755ZM501.4683 262.6955C487.3083 262.6955 478.0283 252.9255 478.0283 239.2555C478.0283 225.0955 487.3083 215.3355 501.4683 215.3355H692.3783C706.5383 215.3355 715.8183 225.0955 715.8183 239.2555C715.8183 252.9255 706.5383 262.6955 692.3783 262.6955Z"/>
</svg>