<?xml version="1.0" encoding="UTF-8" standalone="no"?>
<svg xmlns="http://www.w3.org/2000/svg"
     width="1271.97265625" height="876.2850146654108"
     viewBox="0 0 1271.97265625 876.2850146654108"
     fill="currentColor">
  <path d="M1271.9777 438.1728C1271.9777 274.5928 1210.4477 124.6928 1104.0077 13.3628C1086.4277 -5.1872 1062.4977 -3.2372 1048.8277 11.9028C1034.6677 27.5228 1037.5977 49.5028 1054.1977 67.0828C1147.4577 164.7328 1198.7277 295.5928 1198.7277 438.1728C1198.7277 580.7528 1147.4577 711.6128 1054.1977 809.2628C1037.5977 826.3528 1034.6677 848.8128 1048.8277 863.9528C1062.4977 879.5828 1086.4277 881.5328 1104.0077 862.9728C1210.4477 751.6528 1271.9777 601.7428 1271.9777 438.1728ZM-0.0023 438.1728C-0.0023 601.7428 61.5277 751.6528 167.9677 862.9728C185.5477 881.5328 209.4777 879.5828 223.1477 863.9528C237.3077 848.8128 234.3777 826.3528 217.7777 809.2628C124.0277 711.6128 73.2377 580.7528 73.2377 438.1728C73.2377 295.5928 124.0277 164.7328 217.7777 67.0828C234.3777 49.5028 237.3077 27.5228 223.1477 11.9028C209.4777 -3.2372 185.5477 -5.1872 167.9677 13.3628C61.5277 124.6928 -0.0023 274.5928 -0.0023 438.1728ZM174.8077 438.1728C174.8077 553.8928 216.3077 661.8028 291.0177 742.3728C308.1077 761.4128 333.0077 761.9028 347.6577 744.8128C361.8177 728.7028 357.9077 707.7028 341.3077 689.6328C280.7577 621.7628 247.5577 533.8728 247.5577 438.1728C247.5577 342.4728 280.7577 254.5828 341.3077 186.7028C357.9077 168.6428 361.8177 147.6428 347.6577 131.0428C333.0077 114.4428 308.1077 114.4428 291.0177 133.4828C216.3077 214.5428 174.8077 321.9628 174.8077 438.1728ZM1097.1677 438.1728C1097.1677 321.9628 1055.6677 214.5428 980.9577 133.4828C963.8677 114.4428 938.9677 114.4428 924.3177 131.0428C909.6677 147.6428 914.0577 168.6428 930.1777 186.7028C991.2077 254.5828 1024.4177 342.4728 1024.4177 438.1728C1024.4177 533.8728 991.2077 621.7628 930.1777 689.6328C914.0577 707.7028 909.6677 728.7028 924.3177 744.8128C938.9677 761.9028 963.8677 761.4128 980.9577 742.3728C1055.6677 661.8028 1097.1677 553.8928 1097.1677 438.1728ZM349.1177 438.1728C349.1177 503.6028 371.5777 565.1228 410.6477 613.4628C426.7577 633.9728 453.6177 633.9728 468.2577 617.3728C482.9077 600.7728 476.5577 581.2428 462.3977 561.2228C436.0377 528.0128 422.3677 485.0428 422.3677 438.1728C422.3677 391.2928 436.0377 348.3328 462.3977 314.6328C476.5577 295.1028 482.9077 275.5728 468.2577 258.9728C453.6177 242.3728 426.7577 242.3728 410.6477 262.3928C371.5777 310.7328 349.1177 372.2528 349.1177 438.1728ZM922.8477 438.1728C922.8477 372.2528 900.3877 310.7328 861.3277 262.3928C845.2177 242.3728 818.3577 242.3728 803.7077 258.9728C789.0577 275.5728 794.9177 295.1028 809.5677 314.6328C835.9377 348.3328 849.6077 391.2928 849.6077 438.1728C849.6077 485.0428 835.9377 528.0128 809.5677 561.2228C794.9177 581.2428 789.0577 600.7728 803.7077 617.3728C818.3577 633.9728 845.2177 633.9728 861.3277 613.4628C900.3877 565.1228 922.8477 503.6028 922.8477 438.1728ZM546.8777 439.1528C546.8777 486.5128 588.3777 526.5528 636.7177 526.5528C685.0577 526.5528 724.6077 486.5128 724.6077 438.1728C724.6077 389.3428 685.5477 349.3028 636.7177 349.3028C587.3977 349.3028 546.8777 390.3228 546.8777 439.1528Z"/>
</svg>