<?xml version="1.0" encoding="UTF-8" standalone="no"?>
<svg xmlns="http://www.w3.org/2000/svg"
     width="737.3046875" height="737.3046875"
     viewBox="0 0 737.3046875 737.3046875"
     fill="currentColor">
  <path d="M7.3283 39.0628C7.3283 60.5428 25.3883 78.6128 46.8783 78.6128C384.2783 78.6128 658.6883 353.0228 658.6883 690.4328C658.6883 711.9128 676.7583 729.9828 698.2383 729.9828C719.7283 729.9828 737.3083 711.9128 737.3083 690.4328C737.3083 310.0628 427.2483 0.0028 46.8783 0.0028C25.3883 0.0028 7.3283 17.5828 7.3283 39.0628ZM7.3283 245.6028C7.3283 267.0928 25.3883 284.6728 46.8783 284.6728C270.9983 284.6728 452.6383 466.3128 452.6383 690.4328C452.6383 711.9128 470.2183 729.9828 491.6983 729.9828C513.1883 729.9828 531.2483 711.9128 531.2483 690.4328C531.2483 423.3428 313.9683 206.0528 46.8783 206.0528C25.3883 206.0528 7.3283 224.1228 7.3283 245.6028ZM7.3283 439.4528C7.3283 460.9328 25.3883 478.5128 46.8783 478.5128C163.5783 478.5128 258.7883 573.7328 258.7883 690.4328C258.7883 711.9128 276.3683 729.9828 297.8483 729.9828C319.3383 729.9828 337.3983 711.9128 337.3983 690.4328C337.3983 530.2728 206.5383 399.9028 46.8783 399.9028C25.3883 399.9028 7.3283 417.9728 7.3283 439.4528ZM69.8283 737.3028C107.9083 737.3028 138.6683 706.0528 138.6683 668.4528C138.6683 629.8828 108.3983 599.1228 69.8283 599.1228C31.7383 599.1228 -0.0017 631.3428 -0.0017 669.9228C-0.0017 706.0528 32.7183 737.3028 69.8283 737.3028Z"/>
</svg>