<?xml version="1.0" encoding="UTF-8" standalone="no"?>
<svg xmlns="http://www.w3.org/2000/svg"
     width="996.09375" height="996.09375"
     viewBox="0 0 996.09375 996.09375"
     fill="currentColor">
  <path d="M498.0477 996.0959C770.5077 996.0959 996.0977 770.0159 996.0977 498.0459C996.0977 225.5859 770.0177 -0.0041 497.5577 -0.0041C225.5877 -0.0041 -0.0023 225.5859 -0.0023 498.0459C-0.0023 770.0159 226.0777 996.0959 498.0477 996.0959ZM498.0477 913.0859C267.5777 913.0859 83.4977 728.5159 83.4977 498.0459C83.4977 267.5759 267.0877 83.0059 497.5577 83.0059C728.0277 83.0059 913.0877 267.5759 913.0877 498.0459C913.0877 728.5159 728.5177 913.0859 498.0477 913.0859ZM584.9577 223.1459L517.5777 138.6759C507.8077 125.9759 490.2377 125.9759 479.4877 138.6759L411.6177 223.1459C395.9977 242.1859 405.2777 266.6059 430.6677 266.6059H565.9177C590.8177 266.6059 600.0977 241.2059 584.9577 223.1459ZM497.5577 681.6359C598.6377 681.6359 681.6377 598.1459 681.6377 498.0459C681.6377 397.4559 598.6377 314.4559 497.5577 314.4559C397.9477 314.4559 314.4577 397.4559 314.4577 498.0459C314.4577 598.1459 397.9477 681.6359 497.5577 681.6359ZM773.4377 584.9559L857.9077 517.5759C870.6077 507.8159 870.6077 489.7459 857.9077 479.4959L773.4377 411.6259C754.3977 395.9959 729.9777 404.7859 729.9777 430.6659V565.4259C729.9777 590.3359 755.3677 599.6059 773.4377 584.9559ZM223.1477 584.9559C241.6977 599.6059 266.5977 590.3359 266.5977 565.4259V430.6659C266.5977 404.7859 242.6777 395.9959 223.1477 411.6259L138.6677 479.4959C125.9777 489.7459 125.9777 507.8159 138.6677 517.5759ZM584.9577 773.4359C600.0977 755.3759 590.8177 729.9759 565.9177 729.9759H430.6677C405.2777 729.9759 395.9977 754.3959 411.6177 773.4359L479.4877 857.9059C490.2377 870.6059 507.8077 870.6059 517.5777 857.9059Z"/>
</svg>