<?xml version="1.0" encoding="UTF-8" standalone="no"?>
<svg xmlns="http://www.w3.org/2000/svg"
     width="676.7578125" height="988.76953125"
     viewBox="0 0 676.7578125 988.76953125"
     fill="currentColor">
  <path d="M338.3777 988.768C541.5077 988.768 676.7577 856.448 676.7577 658.208C676.7577 560.548 638.6677 463.378 609.8677 398.438C557.6177 280.758 475.5877 151.368 404.2977 41.018C387.2077 15.138 367.1877 -0.002 338.3777 -0.002C309.5677 -0.002 289.5477 15.138 272.4577 41.018C201.1677 151.368 119.1377 280.758 66.8977 398.438C38.5777 463.378 -0.0023 560.548 -0.0023 658.208C-0.0023 856.448 135.2577 988.768 338.3777 988.768ZM338.3777 908.688C183.1077 908.688 80.0777 808.598 80.0777 658.208C80.0777 578.128 110.8377 500.488 138.1877 437.008C192.8677 308.598 265.1377 203.128 333.4977 100.098C336.9177 95.218 340.8177 95.218 343.7477 100.098C411.6177 203.128 484.3777 308.598 538.0877 436.528C565.9177 500.488 597.1677 578.128 597.1677 658.208C597.1677 808.598 493.6477 908.688 338.3777 908.688Z"/>
</svg>