<?xml version="1.0" encoding="UTF-8" standalone="no"?>
<svg xmlns="http://www.w3.org/2000/svg"
     width="834.9609375" height="1109.86328125"
     viewBox="0 0 834.9609375 1109.86328125"
     fill="currentColor">
  <path d="M685.5477 298.3417C769.5277 298.3417 834.9577 232.9117 834.9577 149.4117C834.9577 65.4317 769.5277 0.0017 685.5477 0.0017C602.0477 0.0017 536.6177 65.4317 536.6177 149.4117C536.6177 232.9117 602.0477 298.3417 685.5477 298.3417ZM685.5477 229.4917C640.6277 229.4917 605.4677 194.3317 605.4677 149.4117C605.4677 104.0017 640.6277 68.8517 685.5477 68.8517C730.9577 68.8517 766.1177 104.0017 766.1177 149.4117C766.1177 194.3317 730.9577 229.4917 685.5477 229.4917ZM338.3777 1109.8617C541.5077 1109.8617 676.7577 977.5417 676.7577 779.3017C676.7577 681.6417 638.1877 584.4717 609.8677 519.5317C557.6177 401.8517 475.5877 272.4617 404.2977 162.1117C387.2077 136.2317 366.6977 121.0917 338.3777 121.0917C309.0777 121.0917 289.5477 136.2317 272.4577 162.1117C201.1677 272.4617 119.1377 401.8517 66.8977 519.5317C38.0877 584.4717 -0.0023 681.6417 -0.0023 779.3017C-0.0023 977.5417 135.2577 1109.8617 338.3777 1109.8617Z"/>
</svg>