<?xml version="1.0" encoding="UTF-8" standalone="no"?>
<svg xmlns="http://www.w3.org/2000/svg"
     width="913.57421875" height="1071.540322556886"
     viewBox="0 0 913.57421875 1071.540322556886"
     fill="currentColor">
  <path d="M-0.0017 246.0944H847.1683V116.6944C847.1683 46.3844 801.7583 0.0044 734.3783 0.0044H113.2783C45.4083 0.0044 -0.0017 46.3844 -0.0017 116.6944ZM176.7583 195.3144C152.3483 195.3144 132.3283 174.8044 132.3283 150.8744C132.3283 125.9744 152.3483 106.4444 176.7583 106.4444C201.1683 106.4444 220.6983 125.9744 220.6983 150.8744C220.6983 174.8044 201.1683 195.3144 176.7583 195.3144ZM305.1783 195.3144C280.7583 195.3144 261.2283 174.8044 261.2283 150.8744C261.2283 125.9744 280.7583 106.4444 305.1783 106.4444C329.5883 106.4444 349.1183 125.9744 349.1183 150.8744C349.1183 174.8044 329.5883 195.3144 305.1783 195.3144ZM568.3583 176.2744C553.2183 176.2744 543.4583 166.0144 543.4583 150.8744C543.4583 135.7444 553.2183 125.0044 568.3583 125.0044H688.4783C704.0983 125.0044 713.8683 135.7444 713.8683 150.8744C713.8683 166.0144 704.0983 176.2744 688.4783 176.2744ZM113.2783 1025.3944H475.0983C479.4883 1006.8344 493.6483 991.2144 493.6483 967.7744C493.6483 946.7744 471.6783 922.3644 451.1683 882.3244H234.3783C195.7983 882.3244 169.4383 855.9544 169.4383 816.8944V487.3044C169.4383 448.2444 195.7983 421.8744 234.3783 421.8744H612.7883C651.3683 421.8744 678.2183 448.2444 678.2183 487.3044V557.6144C708.0083 558.1044 727.5383 569.8244 746.5783 587.8944C772.4583 562.5044 810.5483 549.3144 847.1683 561.0344V312.5044H-0.0017V908.6944C-0.0017 979.0044 45.4083 1025.3944 113.2783 1025.3944ZM243.1683 828.1244H430.1783C420.8983 801.2744 412.5983 769.5344 412.5983 730.4644C412.5983 651.3644 450.6883 557.1244 535.1583 557.1244C568.3583 557.1244 594.7283 573.7344 605.9583 588.3744C610.3483 581.5444 616.2083 575.6844 623.5383 572.2644V496.0944C623.5383 483.8844 615.7183 476.0744 604.0083 476.0744H243.1683C231.4483 476.0744 223.6283 483.8844 223.6283 496.0944V808.1044C223.6283 820.3144 231.4483 828.1244 243.1683 828.1244ZM840.3283 1064.4544C855.9583 1074.7044 878.9083 1073.2444 890.6283 1052.2444C905.2783 1026.3644 913.5783 996.5844 913.5783 967.2844C913.5783 860.3544 832.0283 808.1044 832.0283 729.4944C832.0283 709.9644 835.9383 695.8044 847.6583 674.8044C857.9083 657.7144 849.6083 640.1344 836.4283 631.8344C821.7783 623.0444 799.3183 624.0244 787.5983 644.0444C772.4583 669.9244 765.1383 699.7044 765.1383 729.4944C765.1383 834.4744 846.1883 886.2344 846.1883 967.2844C846.1883 986.8144 842.7783 1000.0044 830.5683 1020.9944C820.3083 1039.0644 828.6183 1056.6444 840.3283 1064.4544ZM557.1283 1065.4344C571.7783 1075.1944 594.7283 1074.7044 607.9083 1053.2244C622.0683 1027.3444 630.3683 997.0744 630.3683 967.7744C630.3683 861.3244 548.8283 809.0844 548.8283 730.4644C548.8283 710.4444 552.7383 696.2844 564.9383 675.7844C574.7083 658.6944 566.8983 640.6244 553.7083 632.3244C539.0583 623.0444 516.5983 624.5144 504.8783 645.0244C489.7483 670.4144 481.9383 700.6844 481.9383 730.4644C481.9383 834.9644 562.9883 887.2044 562.9883 967.7744C562.9883 987.7944 559.5683 1000.9744 547.3683 1021.9744C537.1083 1039.5544 545.8983 1057.6144 557.1283 1065.4344ZM698.7283 1064.9444C714.3583 1075.1944 737.3083 1073.7344 749.0283 1052.7344C763.6683 1026.8544 771.9683 997.0744 771.9683 967.7744C771.9683 860.8444 690.4283 808.5944 690.4283 729.9844C690.4283 710.4444 694.3383 696.2844 706.0583 675.2944C716.3083 658.2044 708.0083 640.6244 694.8283 632.3244C680.6683 623.5344 657.7183 624.5144 645.9983 644.5344C631.3483 670.4144 623.5383 700.1944 623.5383 729.9844C623.5383 834.9644 704.5883 886.7144 704.5883 967.7744C704.5883 987.3044 701.1683 1000.4844 689.4483 1021.4844C679.1983 1039.5544 687.0083 1057.1244 698.7283 1064.9444Z"/>
</svg>