<?xml version="1.0" encoding="UTF-8" standalone="no"?>
<svg xmlns="http://www.w3.org/2000/svg"
     width="898.92578125" height="898.92578125"
     viewBox="0 0 898.92578125 898.92578125"
     fill="currentColor">
  <path d="M153.3183 898.9295H745.6083C848.1483 898.9295 898.9283 848.1495 898.9283 747.5595V151.3695C898.9283 50.7795 848.1483 -0.0005 745.6083 -0.0005H153.3183C51.2683 -0.0005 -0.0017 50.2895 -0.0017 151.3695V747.5595C-0.0017 848.6295 51.2683 898.9295 153.3183 898.9295ZM333.9883 673.3395C307.6183 673.3395 294.4383 655.2695 294.4383 627.9295V260.2495C294.4383 232.9095 307.6183 214.8395 333.9883 214.8395H572.2683C591.7983 214.8395 605.4683 226.5595 605.4683 247.5595C605.4683 267.5795 591.7983 280.7595 572.2683 280.7595H374.9983V409.1795H559.0783C578.6183 409.1795 592.2883 420.4095 592.2883 441.4095C592.2883 460.9395 578.6183 472.1695 559.0783 472.1695H374.9983V607.4195H572.2683C591.7983 607.4195 605.4683 619.6295 605.4683 640.6295C605.4683 660.6395 591.7983 673.3395 572.2683 673.3395Z"/>
</svg>