<?xml version="1.0" encoding="UTF-8" standalone="no"?>
<svg xmlns="http://www.w3.org/2000/svg"
     width="750" height="1041.015625"
     viewBox="0 0 750 1041.015625"
     fill="currentColor">
  <path d="M-0.0017 820.3119C-0.0017 955.0819 83.9883 1041.0119 215.3283 1041.0119C313.4783 1041.0119 386.7183 998.0519 433.1083 915.0419L477.0483 836.4219C580.0783 647.9519 749.9983 623.5319 749.9983 381.3519C749.9983 152.8319 602.0483 0.0019 380.3683 0.0019C153.3183 0.0019 -0.0017 153.8119 -0.0017 383.3019ZM73.7283 815.4319V383.3019C73.7283 197.2619 196.2883 73.7319 380.3683 73.7319C558.1083 73.7319 676.2683 197.2619 676.2683 381.3519C676.2683 583.9819 517.5783 619.1419 411.1283 803.2219L368.6483 875.9719C333.9883 936.5219 285.6483 965.3319 218.7483 965.3319C128.4183 965.3319 73.7283 908.6919 73.7283 815.4319ZM177.7383 631.8319C197.7583 631.8319 214.8483 614.7419 214.8483 594.7219V486.8119H338.8683C372.0683 486.8119 393.0683 506.8319 393.0683 536.1319C393.0683 551.2719 385.2583 571.7819 373.5383 585.9419L314.9383 659.6719C308.5983 667.9719 305.1783 676.7619 305.1783 686.0319C305.1783 706.0519 322.2683 722.6519 342.2883 722.6519C353.5183 722.6519 364.2583 716.7919 372.5583 706.5419L436.0383 625.9719C456.0583 600.5819 469.2383 563.4719 469.2383 533.2019C469.2383 461.4219 416.9883 413.0819 337.8883 413.0819H214.8483V380.3719C214.8483 286.6219 280.2783 224.6119 379.8783 224.6119C474.6083 224.6119 535.6483 286.1319 535.6483 380.3719C535.6483 400.3919 552.2483 417.4819 572.2683 417.4819C592.2883 417.4819 609.3783 400.3919 609.3783 380.3719C609.3783 243.1619 517.5783 150.8819 379.8783 150.8819C237.3083 150.8819 141.1183 243.1619 141.1183 380.3719V594.7219C141.1183 614.7419 157.7183 631.8319 177.7383 631.8319Z"/>
</svg>