<?xml version="1.0" encoding="UTF-8" standalone="no"?>
<svg xmlns="http://www.w3.org/2000/svg"
     width="865.234375" height="1125"
     viewBox="0 0 865.234375 1125"
     fill="currentColor">
  <path d="M215.3283 1041.0119C260.7383 1041.0119 300.7783 1031.7419 335.4483 1014.1619C311.5283 1001.4619 293.9483 979.0019 288.0883 952.1519C267.5783 961.4219 244.6283 965.3319 218.7483 965.3319C128.4183 965.3319 73.7283 908.6919 73.7283 815.4319V383.3019C73.7283 197.2619 196.2883 73.7319 380.3683 73.7319C558.1083 73.7319 676.2683 197.2619 676.2683 381.3519C676.2683 487.3019 632.8083 547.3619 576.1683 606.9319C604.9783 594.7219 637.2083 597.1719 663.5783 614.7419C712.8883 557.1319 749.9983 493.6519 749.9983 381.3519C749.9983 152.8319 602.0483 0.0019 380.3683 0.0019C153.3183 0.0019 -0.0017 153.8119 -0.0017 383.3019V820.3119C-0.0017 955.0819 83.9883 1041.0119 215.3283 1041.0119ZM177.7383 631.8319C197.7583 631.8319 214.8483 614.7419 214.8483 594.7219V486.8119H338.8683C372.0683 486.8119 393.0683 506.8319 393.0683 536.1319C393.0683 551.2719 385.2583 571.7819 373.5383 585.9419L314.9383 659.6719C308.5983 667.9719 305.1783 676.7619 305.1783 686.0319C305.1783 706.0519 322.2683 722.6519 342.2883 722.6519C353.5183 722.6519 364.2583 716.7919 372.5583 706.5419L436.0383 625.9719C456.0583 600.5819 469.2383 563.4719 469.2383 533.2019C469.2383 461.4219 416.9883 413.0819 337.8883 413.0819H214.8483V380.3719C214.8483 286.6219 280.2783 224.6119 379.8783 224.6119C474.6083 224.6119 535.6483 286.1319 535.6483 380.3719C535.6483 400.3919 552.2483 417.4819 572.2683 417.4819C592.2883 417.4819 609.3783 400.3919 609.3783 380.3719C609.3783 243.1619 517.5783 150.8819 379.8783 150.8819C237.3083 150.8819 141.1183 243.1619 141.1183 380.3719V594.7219C141.1183 614.7419 157.7183 631.8319 177.7383 631.8319ZM608.8883 1125.0019C624.0283 1125.0019 636.2283 1112.7919 636.2283 1097.6519V691.4019C636.2283 675.7819 624.0283 663.5719 608.8883 663.5719C593.2583 663.5719 581.0583 675.7819 581.0583 691.4019V1097.6519C581.0583 1113.2819 592.7783 1125.0019 608.8883 1125.0019ZM722.6583 1076.1719C738.7683 1076.1719 750.9783 1063.9619 750.9783 1048.8319V739.2619C750.9783 724.1219 738.7683 711.9119 722.6583 711.9119C708.0083 711.9119 695.7983 724.1219 695.7983 739.2619V1048.8319C695.7983 1063.9619 708.0083 1076.1719 722.6583 1076.1719ZM494.1383 1040.5319C509.7683 1040.5319 521.9683 1028.3219 521.9683 1012.6919V775.3919C521.9683 759.7619 509.7683 747.5619 494.1383 747.5619C479.0083 747.5619 466.7983 759.7619 466.7983 775.3919V1012.6919C466.7983 1028.3219 479.0083 1040.5319 494.1383 1040.5319ZM837.8883 983.8819C853.5183 983.8819 865.2383 972.6519 865.2383 956.5419V831.0519C865.2383 815.9219 853.5183 803.7119 837.8883 803.7119C822.2683 803.7119 810.0583 816.4019 810.0583 831.0519V956.5419C810.0583 972.1719 822.2683 983.8819 837.8883 983.8819ZM379.3983 958.4919C395.0183 958.4919 407.2283 946.2919 407.2283 931.1519V856.9319C407.2283 841.7919 395.0183 829.5919 379.3983 829.5919C364.2583 829.5919 352.5383 841.7919 352.5383 856.9319V931.1519C352.5383 946.2919 364.2583 958.4919 379.3983 958.4919Z"/>
</svg>