<?xml version="1.0" encoding="UTF-8" standalone="no"?>
<svg xmlns="http://www.w3.org/2000/svg"
     width="1165.0390625" height="774.4140625"
     viewBox="0 0 1165.0390625 774.4140625"
     fill="currentColor">
  <path d="M-0.0017 278.8061H1165.0383V264.1561C1165.0383 86.9161 1058.5983 -0.0039 864.7483 -0.0039H301.2683C107.4183 -0.0039 -0.0017 86.9161 -0.0017 264.1561ZM301.2683 774.4161H863.7683C1066.8983 774.4161 1165.0383 678.7061 1165.0383 480.9561V328.1261H-0.0017V480.9561C-0.0017 678.7061 98.1483 774.4161 301.2683 774.4161ZM582.5183 509.2761C556.6383 509.2761 535.6483 488.2861 535.6483 462.4061C535.6483 436.5261 556.6383 415.0361 582.5183 415.0361C608.3983 415.0361 629.8783 436.5261 629.8783 462.4061C629.8783 488.2861 608.3983 509.2761 582.5183 509.2761Z"/>
</svg>