<?xml version="1.0" encoding="UTF-8" standalone="no"?>
<svg xmlns="http://www.w3.org/2000/svg"
     width="1328.125" height="884.27734375"
     viewBox="0 0 1328.125 884.27734375"
     fill="currentColor">
  <path d="M-0.0017 199.2236C-0.0017 295.8936 68.3583 376.4636 159.1783 395.0236C136.2283 354.0036 122.5583 306.6436 122.5583 255.8636C122.5583 151.3636 180.1783 59.5736 265.1383 11.2336C244.6283 3.9036 222.6583 0.0036 200.1983 0.0036C89.3583 0.0036 -0.0017 89.3536 -0.0017 199.2236ZM1128.4183 398.9236C1238.2783 398.9236 1328.1283 309.5736 1328.1283 199.2236C1328.1283 89.3536 1238.2783 0.0036 1128.4183 0.0036C1018.0683 0.0036 928.7083 89.3536 928.7083 199.2236C928.7083 309.5736 1018.0683 398.9236 1128.4183 398.9236ZM379.8783 884.2736H430.6683C470.6983 884.2736 494.1383 861.3236 494.1383 821.7736V566.8936C494.1383 508.3036 508.7883 478.5136 556.6383 436.5236C607.9083 391.6036 640.6283 328.6136 640.6283 255.8636C640.6283 125.9736 535.6483 20.9936 405.2783 20.9936C274.8983 20.9936 169.9183 125.9736 169.9183 255.8636C169.9183 328.6136 202.6383 391.6036 253.4183 436.5236C301.7583 478.5136 316.4083 508.3036 316.4083 566.8936V821.7736C316.4083 861.3236 339.8483 884.2736 379.8783 884.2736ZM911.1283 884.2736H961.9183C1001.9483 884.2736 1025.3883 861.3236 1025.3883 821.7736V566.8936C1025.3883 509.2736 1040.5283 479.9836 1082.5183 441.4036C968.2583 419.9236 881.3483 319.3336 881.3483 199.2236C881.3483 128.9036 911.1283 65.4336 958.4983 20.9936H936.5283C806.1483 20.9936 701.1683 125.9736 701.1683 255.8636C701.1683 328.6136 733.8883 391.6036 785.1583 436.5236C833.0083 478.5136 847.6583 508.3036 847.6583 566.8936V821.7736C847.6583 861.3236 871.0983 884.2736 911.1283 884.2736ZM1227.0483 283.2036C1201.6583 283.2036 1182.1283 246.5836 1182.1283 199.2236C1182.1283 152.8336 1201.6583 115.7236 1227.0483 115.7236C1251.4683 115.7236 1270.9983 152.8336 1270.9983 199.2236C1270.9983 246.5836 1251.4683 283.2036 1227.0483 283.2036ZM458.0083 314.4536C444.3383 314.4536 433.1083 303.2236 433.1083 289.0636V196.2936C433.1083 183.1036 444.3383 171.8736 458.0083 171.8736C471.6783 171.8736 482.9083 183.1036 482.9083 196.2936V289.0636C482.9083 303.2236 471.6783 314.4536 458.0083 314.4536Z"/>
</svg>