<?xml version="1.0" encoding="UTF-8" standalone="no"?>
<svg xmlns="http://www.w3.org/2000/svg"
     width="970.703125" height="951.171875"
     viewBox="0 0 970.703125 951.171875"
     fill="currentColor">
  <path d="M214.8483 395.9933C329.0983 396.9733 427.2483 307.1333 427.2483 197.2633C427.2483 88.8633 329.0983 0.0033 214.8483 0.0033C109.8683 0.0033 45.4083 64.9433 14.6483 110.3533C4.3983 125.9733 -0.0017 143.0633 -0.0017 162.1133V233.8833C-0.0017 252.9333 4.8783 270.0233 14.6483 285.6433C44.4383 331.0533 109.8683 394.5333 214.8483 395.9933ZM755.8583 395.9933C860.8383 394.5333 926.2683 331.0533 956.0583 285.6433C965.8183 270.0233 970.6983 252.9333 970.6983 233.8833V162.1133C970.6983 143.0633 966.3083 125.9733 956.0583 110.3533C925.2883 64.9433 860.8383 0.0033 755.8583 0.0033C641.5983 0.0033 543.4583 88.8633 543.4583 197.2633C543.4583 307.1333 641.5983 396.9733 755.8583 395.9933ZM88.8683 275.3933C76.6583 275.3933 66.8983 265.6233 66.8983 252.9333V142.5733C66.8983 129.8833 76.6583 120.1133 88.8683 120.1133C102.0483 120.1133 111.3283 129.8833 111.3283 142.5733V252.9333C111.3283 265.6233 102.0483 275.3933 88.8683 275.3933ZM881.3483 275.3933C868.6483 275.3933 859.3783 265.6233 859.3783 252.9333V142.5733C859.3783 129.8833 868.6483 120.1133 881.3483 120.1133C894.0383 120.1133 903.8083 129.8833 903.8083 142.5733V252.9333C903.8083 265.6233 894.0383 275.3933 881.3483 275.3933ZM283.6883 951.1733H333.0083V766.6033C360.3483 765.1333 377.4383 750.4833 377.4383 722.6533V388.6733C338.8683 418.4533 291.0183 437.9833 239.7483 441.8933V722.6533C239.7483 750.4833 256.8383 765.1333 283.6883 766.6033ZM687.0083 951.1733V766.6033C713.8683 765.1333 730.9583 750.4833 730.9583 722.6533V441.8933C679.6883 437.9833 631.8383 418.4533 593.2583 388.6733V722.6533C593.2583 750.4833 610.3483 765.1333 637.6983 766.6033V951.1733Z"/>
</svg>