<?xml version="1.0" encoding="UTF-8" standalone="no"?>
<svg xmlns="http://www.w3.org/2000/svg"
     width="996.09375" height="996.09375"
     viewBox="0 0 996.09375 996.09375"
     fill="currentColor">
  <path d="M498.0477 996.0959C770.5077 996.0959 996.0977 770.0159 996.0977 498.0459C996.0977 225.5859 770.0177 -0.0041 497.5577 -0.0041C225.5877 -0.0041 -0.0023 225.5859 -0.0023 498.0459C-0.0023 770.0159 226.0777 996.0959 498.0477 996.0959ZM498.0477 913.0859C267.5777 913.0859 83.4977 728.5159 83.4977 498.0459C83.4977 267.5759 267.0877 83.0059 497.5577 83.0059C728.0277 83.0059 913.0877 267.5759 913.0877 498.0459C913.0877 728.5159 728.5177 913.0859 498.0477 913.0859ZM294.9177 515.1359H699.7077C719.7277 515.1359 731.4477 504.8859 731.4477 486.8159C731.4477 478.5159 727.0477 470.2159 720.2177 462.4059L528.3177 250.4859C520.0177 240.7259 509.7677 234.8659 497.5577 234.8659C485.3477 234.8659 474.6077 241.6959 466.7977 250.4859L274.4177 462.4059C267.0877 469.7259 263.1877 478.5159 263.6677 486.8159C265.1377 504.8859 274.4177 515.1359 294.9177 515.1359ZM306.6377 699.2159H688.4777C718.7477 699.2159 736.3277 683.1059 736.3277 653.3159V622.5559C736.3277 592.7759 718.7477 576.6559 688.4777 576.6559H306.6377C276.3677 576.6559 258.7877 592.7759 258.7877 622.5559V653.3159C258.7877 683.1059 276.3677 699.2159 306.6377 699.2159Z"/>
</svg>