<?xml version="1.0" encoding="UTF-8" standalone="no"?>
<svg xmlns="http://www.w3.org/2000/svg"
     width="996.09375" height="996.09375"
     viewBox="0 0 996.09375 996.09375"
     fill="currentColor">
  <path d="M498.0477 996.0959C770.5077 996.0959 996.0977 770.0159 996.0977 498.0459C996.0977 225.5859 770.0177 -0.0041 497.5577 -0.0041C225.5877 -0.0041 -0.0023 225.5859 -0.0023 498.0459C-0.0023 770.0159 226.0777 996.0959 498.0477 996.0959ZM289.0577 516.6059C268.0677 516.6059 258.2977 505.8559 256.8377 487.3059C256.3477 478.5159 260.2577 469.7259 268.0677 461.9159L466.3077 243.6559C474.1177 234.8659 485.3477 227.5359 498.0477 227.5359C510.7377 227.5359 521.4877 233.3959 529.7877 243.6559L727.5377 461.9159C734.8677 470.2159 739.2577 478.5159 739.2577 487.3059C739.2577 505.8559 727.0477 516.6059 706.5477 516.6059ZM301.2677 706.5459C270.0177 706.5459 251.9577 689.9459 251.9577 659.1759V627.4459C251.9577 596.6759 270.0177 580.0759 301.2677 580.0759H694.8277C726.0777 580.0759 744.1377 596.6759 744.1377 627.4459V659.1759C744.1377 689.9459 726.0777 706.5459 694.8277 706.5459Z"/>
</svg>