<?xml version="1.0" encoding="UTF-8" standalone="no"?>
<svg xmlns="http://www.w3.org/2000/svg"
     width="1076.171875" height="1010.25390625"
     viewBox="0 0 1076.171875 1010.25390625"
     fill="currentColor">
  <path d="M300.2883 1010.2519C324.2183 1010.2519 340.8183 997.5619 370.6083 971.1919L539.0583 821.2919H852.5383C998.0483 821.2919 1076.1683 740.7219 1076.1683 597.6519V223.6319C1076.1683 80.5619 998.0483 0.0019 852.5383 0.0019H223.6283C78.1283 0.0019 -0.0017 80.0819 -0.0017 223.6319V597.6519C-0.0017 741.2119 78.1283 821.2919 223.6283 821.2919H247.0683V948.2419C247.0683 985.8419 266.1183 1010.2519 300.2883 1010.2519ZM320.3083 920.9019V779.2919C320.3083 752.9319 310.0583 742.6719 283.6883 742.6719H223.6283C124.9983 742.6719 78.6183 692.3819 78.6183 597.1719V223.6319C78.6183 128.4219 124.9983 78.6119 223.6283 78.6119H852.5383C950.6883 78.6119 997.5583 128.4219 997.5583 223.6319V597.1719C997.5583 692.3819 950.6883 742.6719 852.5383 742.6719H536.1283C508.7883 742.6719 495.1183 746.5819 476.5583 765.6219ZM538.5783 275.8819C575.6883 275.8819 605.4683 245.6019 605.4683 208.9819C605.4683 171.8719 575.6883 141.6019 538.5783 141.6019C501.4683 141.6019 471.6783 171.8719 471.6783 208.9819C471.6783 245.6019 501.4683 275.8819 538.5783 275.8819ZM538.5783 477.5419C575.6883 477.5419 605.4683 447.7519 605.4683 410.6419C605.4683 373.5319 575.6883 343.7519 538.5783 343.7519C501.4683 343.7519 471.6783 373.5319 471.6783 410.6419C471.6783 447.7519 501.4683 477.5419 538.5783 477.5419ZM538.5783 679.2019C575.6883 679.2019 605.4683 649.4119 605.4683 612.3019C605.4683 575.1919 575.6883 545.4119 538.5783 545.4119C501.4683 545.4119 471.6783 575.1919 471.6783 612.3019C471.6783 649.4119 501.4683 679.2019 538.5783 679.2019Z"/>
</svg>