<?xml version="1.0" encoding="UTF-8" standalone="no"?>
<svg xmlns="http://www.w3.org/2000/svg"
     width="795.41015625" height="1023.92578125"
     viewBox="0 0 795.41015625 1023.92578125"
     fill="currentColor">
  <path d="M685.5483 838.8644H606.9383V868.6544C606.9383 919.4344 579.5883 945.3144 531.2483 945.3144H154.7883C105.9583 945.3144 78.6183 919.4344 78.6183 868.6544V155.2744C78.6183 104.4944 105.9583 78.6144 154.7883 78.6144H531.2483C579.5883 78.6144 606.9383 104.4944 606.9383 155.2744V653.3244H685.5483V151.3644C685.5483 50.7844 634.7683 0.0044 532.7183 0.0044H153.3183C51.7583 0.0044 -0.0017 50.2944 -0.0017 151.3644V872.5544C-0.0017 973.6344 51.7583 1023.9244 153.3183 1023.9244H532.7183C634.7683 1023.9244 685.5483 973.1444 685.5483 872.5544ZM194.3383 249.5144C226.5583 249.5144 252.4383 223.1444 252.4383 191.8944C252.4383 159.1844 226.5583 133.3044 194.3383 133.3044C162.1083 133.3044 136.2283 159.1844 136.2283 191.8944C136.2283 223.1444 162.1083 249.5144 194.3383 249.5144ZM342.7783 249.5144C375.9783 249.5144 401.3683 223.1444 401.3683 191.8944C401.3683 159.1844 375.9783 133.3044 342.7783 133.3044C310.5483 133.3044 285.1583 159.1844 285.1583 191.8944C285.1583 223.1444 310.5483 249.5144 342.7783 249.5144ZM492.1883 249.5144C524.4183 249.5144 549.8083 223.1444 549.8083 191.8944C549.8083 159.1844 524.4183 133.3044 492.1883 133.3044C459.4683 133.3044 434.0783 159.1844 434.0783 191.8944C434.0783 223.1444 459.4683 249.5144 492.1883 249.5144ZM194.3383 392.5744C226.5583 392.5744 252.4383 366.6944 252.4383 334.4744C252.4383 301.7544 226.5583 275.8744 194.3383 275.8744C162.1083 275.8744 136.2283 301.7544 136.2283 334.4744C136.2283 366.6944 162.1083 392.5744 194.3383 392.5744ZM342.7783 392.5744C375.9783 392.5744 401.3683 366.6944 401.3683 334.4744C401.3683 301.7544 375.9783 275.8744 342.7783 275.8744C310.5483 275.8744 285.1583 301.7544 285.1583 334.4744C285.1583 366.6944 310.5483 392.5744 342.7783 392.5744ZM492.1883 392.5744C524.4183 392.5744 549.8083 366.6944 549.8083 334.4744C549.8083 301.7544 524.4183 275.8744 492.1883 275.8744C459.4683 275.8744 434.0783 301.7544 434.0783 334.4744C434.0783 366.6944 459.4683 392.5744 492.1883 392.5744ZM194.3383 536.1344C226.5583 536.1344 252.4383 510.2544 252.4383 477.5344C252.4383 445.8044 226.5583 419.4344 194.3383 419.4344C162.1083 419.4344 136.2283 445.8044 136.2283 477.5344C136.2283 510.2544 162.1083 536.1344 194.3383 536.1344ZM342.7783 536.1344C375.9783 536.1344 401.3683 510.2544 401.3683 477.5344C401.3683 445.8044 375.9783 419.4344 342.7783 419.4344C310.5483 419.4344 285.1583 445.8044 285.1583 477.5344C285.1583 510.2544 310.5483 536.1344 342.7783 536.1344ZM492.1883 536.1344C524.4183 536.1344 549.8083 510.2544 549.8083 477.5344C549.8083 445.8044 524.4183 419.4344 492.1883 419.4344C459.4683 419.4344 434.0783 445.8044 434.0783 477.5344C434.0783 510.2544 459.4683 536.1344 492.1883 536.1344ZM342.7783 889.6444C402.8283 889.6444 453.6183 853.5144 475.5883 802.2444H739.2583C769.5283 802.2444 795.4083 777.3444 795.4083 746.0944C795.4083 714.8444 769.5283 689.9444 739.2583 689.9444H475.0983C453.6183 638.6744 402.3483 603.0244 342.7783 603.0244C263.1883 603.0244 199.2183 666.9944 199.2183 746.0944C199.2183 825.6844 263.1883 889.6444 342.7783 889.6444Z"/>
</svg>