<?xml version="1.0" encoding="UTF-8" standalone="no"?>
<svg xmlns="http://www.w3.org/2000/svg"
     width="1078.125" height="1098.6347181961737"
     viewBox="0 0 1078.125 1098.6347181961737"
     fill="currentColor">
  <path d="M187.9883 112.3071L288.5783 217.7771C310.0583 239.2571 333.0083 232.9071 338.3783 204.1071L348.1483 151.8571C451.6583 169.4371 500.9783 231.9371 500.9783 307.6171V321.2871C500.9783 350.0971 515.6283 366.6971 540.0383 366.6971C564.4483 366.6971 578.6183 350.0971 578.6183 321.2871V307.6171C578.6183 231.9371 628.4183 169.4371 731.9383 151.8571L741.6983 204.1071C747.0683 232.9071 770.0183 239.2571 791.0183 217.7771L892.0883 112.3071C909.1783 95.2171 904.2983 73.7371 882.3283 63.4771L749.5083 4.3971C722.1683 -7.8129 704.0983 6.3471 709.4683 35.1571L719.2383 86.4271C643.0683 101.5671 558.5983 150.8771 540.0383 206.0571C521.4883 150.8771 437.0083 101.5671 360.8383 86.4271L370.6083 35.1571C375.9783 6.3471 357.9083 -7.8129 330.0783 4.3971L197.7583 63.4771C175.7783 73.7371 170.8983 95.2171 187.9883 112.3071ZM51.7583 333.9871L481.4483 711.9171C503.4183 731.4471 520.0183 742.1871 540.0383 742.1871C559.5683 742.1871 576.1683 731.4471 598.6283 711.9171L1027.3483 334.4771C1009.2783 320.3171 979.4883 309.5771 939.4483 309.5771H589.8483V527.8371C589.8483 554.1971 566.8983 576.6571 540.0383 576.6571C512.6983 576.6571 489.7483 554.1971 489.7483 527.8371V309.5771H138.6683C99.6083 309.5771 69.8283 320.3171 51.7583 333.9871ZM-0.0017 947.2671C-0.0017 978.5171 3.4183 1001.9571 11.2283 1017.5771L343.2583 687.9871L9.7683 395.5071C3.9083 410.6471 -0.0017 431.6471 -0.0017 460.9371ZM736.3283 687.9871L1067.3783 1016.6071C1074.7083 1000.9771 1078.1283 978.0271 1078.1283 947.2671V460.9371C1078.1283 432.1271 1074.2183 411.6271 1068.8483 396.4871ZM58.1083 1075.6871C78.1283 1088.8671 109.3783 1098.6371 153.3183 1098.6371H924.8083C969.2383 1098.6371 1000.4883 1088.8671 1020.9983 1074.7071L680.6683 737.7971L642.5783 771.9771C605.9583 802.7371 575.6883 819.8271 540.0383 819.8271C504.3983 819.8271 473.6283 802.7371 437.4983 771.9771L398.9283 737.7971Z"/>
</svg>