<?xml version="1.0" encoding="UTF-8" standalone="no"?>
<svg xmlns="http://www.w3.org/2000/svg"
     width="898.92578125" height="898.92578125"
     viewBox="0 0 898.92578125 898.92578125"
     fill="currentColor">
  <path d="M153.3183 898.9295H745.6083C848.1483 898.9295 898.9283 848.1495 898.9283 747.5595V151.3695C898.9283 50.7795 848.1483 -0.0005 745.6083 -0.0005H153.3183C51.2683 -0.0005 -0.0017 50.2895 -0.0017 151.3695V747.5595C-0.0017 848.6295 51.2683 898.9295 153.3183 898.9295ZM154.2983 820.3095C105.4683 820.3095 78.6183 794.4295 78.6183 743.6495V155.2695C78.6183 104.4895 105.4683 78.6095 154.2983 78.6095H744.6283C792.9683 78.6095 820.3083 104.4895 820.3083 155.2695V743.6495C820.3083 794.4295 792.9683 820.3095 744.6283 820.3095ZM227.5383 521.9695H273.9283C294.4383 618.6495 359.3783 684.5695 460.4483 684.5695C543.4583 684.5695 608.8883 649.4095 634.2783 578.1295C637.2083 570.3095 639.1583 562.0095 639.1583 553.2195C639.1583 535.6395 626.9483 523.4395 609.3783 523.4395C592.7783 523.4395 583.0083 532.7195 577.6383 549.3195C563.9683 599.1195 516.1183 625.9795 462.3983 625.9795C399.8983 625.9795 358.8883 582.5195 341.3083 521.9695H471.1883C484.8683 521.9695 495.1183 511.2295 495.1183 497.5595C495.1183 483.3995 484.8683 473.6295 471.1883 473.6295H333.0083C332.0283 465.8195 332.0283 457.5195 332.0283 449.7095C332.0283 440.4295 332.0283 431.6395 333.0083 422.8495H471.1883C484.8683 422.8495 495.1183 412.1095 495.1183 398.9295C495.1183 384.2795 484.8683 374.5095 471.1883 374.5095H342.7783C360.8383 315.9195 401.8583 274.4095 462.3983 274.4095C512.2083 274.4095 559.0783 302.2495 574.2183 352.5395C580.0783 371.0895 588.3783 377.9295 605.4683 377.9295C624.0283 377.9295 635.7383 366.2095 635.7383 348.1395C635.7383 339.8395 633.7883 331.5395 630.8583 323.7295C607.4183 257.8095 539.5483 215.8195 460.4483 215.8195C364.7483 215.8195 296.8783 277.3395 274.4183 374.5095H227.5383C213.8683 374.5095 204.0983 384.2795 204.0983 398.9295C204.0983 412.1095 213.8683 422.8495 227.5383 422.8495H267.5783C266.5983 431.6395 266.5983 440.4295 266.5983 449.7095C266.5983 457.5195 266.5983 465.8195 267.0883 473.6295H227.5383C213.8683 473.6295 204.0983 483.3995 204.0983 497.5595C204.0983 511.2295 213.8683 521.9695 227.5383 521.9695Z"/>
</svg>