<?xml version="1.0" encoding="UTF-8" standalone="no"?>
<svg xmlns="http://www.w3.org/2000/svg"
     width="499.51171875" height="928.22265625"
     viewBox="0 0 499.51171875 928.22265625"
     fill="currentColor">
  <path d="M69.8283 659.1783C95.6983 659.1783 113.2783 642.0883 113.7683 615.7183L118.1683 46.8783C118.1683 19.0383 95.6983 -0.0017 69.3383 -0.0017C42.9683 -0.0017 20.5083 19.0383 20.5083 46.8783L25.8783 615.7183C26.3683 642.0883 43.9483 659.1783 69.8283 659.1783ZM430.1783 659.1783C456.0583 659.1783 473.6283 642.0883 474.1183 615.7183L478.5183 46.8783C478.5183 19.0383 456.0583 -0.0017 429.6883 -0.0017C403.8083 -0.0017 380.8583 19.0383 380.8583 46.8783L386.2283 615.7183C386.7183 642.0883 404.7883 659.1783 430.1783 659.1783ZM69.3383 928.2183C107.9083 928.2183 138.6683 896.9683 138.6683 858.8883C138.6683 820.3083 107.9083 789.5483 69.3383 789.5483C31.2483 789.5483 -0.0017 820.3083 -0.0017 858.8883C-0.0017 896.9683 31.2483 928.2183 69.3383 928.2183ZM429.6883 928.2183C468.7483 928.2183 499.5083 896.9683 499.5083 858.8883C499.5083 820.3083 468.7483 789.5483 429.6883 789.5483C391.5983 789.5483 360.3483 820.3083 360.3483 858.8883C360.3483 896.9683 391.5983 928.2183 429.6883 928.2183Z"/>
</svg>