<?xml version="1.0" encoding="UTF-8" standalone="no"?>
<svg xmlns="http://www.w3.org/2000/svg"
     width="898.92578125" height="898.92578125"
     viewBox="0 0 898.92578125 898.92578125"
     fill="currentColor">
  <path d="M153.3183 898.9295H745.6083C848.1483 898.9295 898.9283 848.1495 898.9283 747.5595V151.3695C898.9283 50.7795 848.1483 -0.0005 745.6083 -0.0005H153.3183C51.2683 -0.0005 -0.0017 50.2895 -0.0017 151.3695V747.5595C-0.0017 848.6295 51.2683 898.9295 153.3183 898.9295ZM449.7083 539.5495C424.3183 539.5495 410.6483 525.3895 410.1583 499.5095L403.3183 233.3995C402.8283 207.5195 421.8783 188.9695 449.2183 188.9695C476.0783 188.9695 496.0983 208.0095 495.6083 233.8895L488.7683 499.5095C488.2783 525.8795 474.1183 539.5495 449.7083 539.5495ZM449.7083 703.1295C420.4083 703.1295 395.0183 679.6895 395.0183 650.8795C395.0183 622.0695 419.9183 598.1395 449.7083 598.1395C479.4883 598.1395 504.3983 621.5795 504.3983 650.8795C504.3983 680.1795 479.0083 703.1295 449.7083 703.1295Z"/>
</svg>