<?xml version="1.0" encoding="UTF-8" standalone="no"?>
<svg xmlns="http://www.w3.org/2000/svg"
     width="666.50390625" height="957.51953125"
     viewBox="0 0 666.50390625 957.51953125"
     fill="currentColor">
  <path d="M109.8612 957.52H556.6413C628.4213 957.52 666.5013 918.46 666.5013 841.31V504.88C666.5013 437.5 637.2112 398.93 581.0513 390.62V272.46C581.0513 88.87 460.9413 0 333.0113 0C205.5713 0 85.4513 88.87 85.4513 272.46V390.62C29.7813 398.93 0.0012 437.01 0.0012 504.88V841.31C0.0012 918.46 38.0813 957.52 109.8612 957.52ZM163.0813 262.21C163.0813 138.67 241.7013 73.73 333.0113 73.73C424.3213 73.73 503.9113 138.67 503.9113 262.21V389.16H163.0813ZM112.3012 883.79C91.3112 883.79 79.1012 870.61 79.1012 846.68V499.51C79.1012 475.59 91.3112 462.89 112.3012 462.89H554.2013C575.6813 462.89 587.4013 475.59 587.4013 499.51V846.68C587.4013 870.61 575.6813 883.79 554.2013 883.79ZM333.0113 722.66C350.5812 722.66 360.3513 711.91 360.8412 694.34L365.7213 538.09C366.2112 520.02 352.0513 506.35 333.0113 506.35C313.4813 506.35 299.8013 519.53 300.2913 537.6L305.1713 694.34C305.6613 711.91 315.4313 722.66 333.0113 722.66ZM333.0113 830.08C354.4913 830.08 372.0712 812.99 372.0712 792.48C372.0712 771 354.4913 754.39 333.0113 754.39C312.0113 754.39 294.9213 771.48 294.9213 792.48C294.9213 812.99 312.5013 830.08 333.0113 830.08Z"/>
</svg>