<?xml version="1.0" encoding="UTF-8" standalone="no"?>
<svg xmlns="http://www.w3.org/2000/svg"
     width="1227.5390625" height="848.6328125"
     viewBox="0 0 1227.5390625 848.6328125"
     fill="currentColor">
  <path d="M964.8477 848.6363C1112.3077 848.6363 1227.5377 740.7262 1227.5377 606.4463C1227.5377 503.9063 1168.4577 415.0363 1073.2377 374.9962C1074.2177 157.2263 917.4777 -0.0037 717.7777 -0.0037C585.4477 -0.0037 491.2077 70.7962 432.6177 156.2463C312.4977 121.0963 181.6377 212.4063 179.1977 349.1163C68.8477 366.6963 -0.0023 465.3363 -0.0023 584.4762C-0.0023 728.0263 125.4877 848.6363 292.4777 848.6363ZM614.2577 516.1163C588.8677 516.1163 575.6877 501.4663 574.7077 475.5863L567.8677 291.0163C566.8977 263.1862 586.4277 244.1363 613.7677 244.1363C640.6277 244.1363 661.1377 263.6763 660.1577 291.5063L653.3177 475.5863C652.3477 501.9563 638.6677 516.1163 614.2577 516.1163ZM613.7677 677.2463C584.4777 677.2463 559.0777 653.3163 559.0777 624.5163C559.0777 595.7063 583.9877 571.7763 613.7677 571.7763C643.5577 571.7763 668.4577 595.2162 668.4577 624.5163C668.4577 653.8063 643.0677 677.2463 613.7677 677.2463Z"/>
</svg>