<?xml version="1.0" encoding="UTF-8" standalone="no"?>
<svg xmlns="http://www.w3.org/2000/svg"
     width="996.09375" height="996.09375"
     viewBox="0 0 996.09375 996.09375"
     fill="currentColor">
  <path d="M498.0477 996.0959C770.5077 996.0959 996.0977 770.0159 996.0977 498.0459C996.0977 225.5859 770.0177 -0.0041 497.5577 -0.0041C225.5877 -0.0041 -0.0023 225.5859 -0.0023 498.0459C-0.0023 770.0159 226.0777 996.0959 498.0477 996.0959ZM498.0477 913.0859C267.5777 913.0859 83.4977 728.5159 83.4977 498.0459C83.4977 267.5759 267.0877 83.0059 497.5577 83.0059C728.0277 83.0059 913.0877 267.5759 913.0877 498.0459C913.0877 728.5159 728.5177 913.0859 498.0477 913.0859ZM497.5577 585.9359C520.5077 585.9359 534.1777 572.7559 534.6677 547.3659L541.9877 289.5459C542.4777 264.6459 522.9477 246.0959 497.0677 246.0959C470.7077 246.0959 452.1477 264.1559 452.6377 289.0659L458.9877 547.3659C459.4777 572.2659 473.1477 585.9359 497.5577 585.9359ZM497.5577 744.6259C525.3877 744.6259 549.8077 722.1659 549.8077 693.8459C549.8077 665.5259 525.8777 643.0659 497.5577 643.0659C468.7477 643.0659 444.8277 666.0159 444.8277 693.8459C444.8277 721.6759 469.2377 744.6259 497.5577 744.6259Z"/>
</svg>