<?xml version="1.0" encoding="UTF-8" standalone="no"?>
<svg xmlns="http://www.w3.org/2000/svg"
     width="898.92578125" height="898.92578125"
     viewBox="0 0 898.92578125 898.92578125"
     fill="currentColor">
  <path d="M153.3183 898.9295H745.6083C848.1483 898.9295 898.9283 848.1495 898.9283 747.5595V151.3695C898.9283 50.7795 848.1483 -0.0005 745.6083 -0.0005H153.3183C51.2683 -0.0005 -0.0017 50.2895 -0.0017 151.3695V747.5595C-0.0017 848.6295 51.2683 898.9295 153.3183 898.9295ZM154.2983 820.3095C105.4683 820.3095 78.6183 794.4295 78.6183 743.6495V155.2695C78.6183 104.4895 105.4683 78.6095 154.2983 78.6095H744.6283C792.9683 78.6095 820.3083 104.4895 820.3083 155.2695V743.6495C820.3083 794.4295 792.9683 820.3095 744.6283 820.3095ZM449.7083 536.6195C473.1483 536.6195 486.3283 523.4395 486.8183 498.0495L494.1383 240.2295C494.6283 215.3295 475.0983 196.7795 449.2183 196.7795C422.8483 196.7795 404.2983 214.8395 404.7883 239.7495L411.1283 498.0495C411.6183 522.9495 425.2883 536.6195 449.7083 536.6195ZM449.7083 695.3095C477.5383 695.3095 501.9483 672.8495 501.9483 644.5295C501.9483 616.2095 478.0283 593.7495 449.7083 593.7495C420.8983 593.7495 396.9683 616.6995 396.9683 644.5295C396.9683 672.3595 421.3883 695.3095 449.7083 695.3095Z"/>
</svg>