<?xml version="1.0" encoding="UTF-8" standalone="no"?>
<svg xmlns="http://www.w3.org/2000/svg"
     width="996.09375" height="996.09375"
     viewBox="0 0 996.09375 996.09375"
     fill="currentColor">
  <path d="M498.0477 996.0977C770.5077 996.0977 996.0977 770.5077 996.0977 498.0477C996.0977 226.0777 770.0177 -0.0023 497.5577 -0.0023C225.5877 -0.0023 -0.0023 226.0777 -0.0023 498.0477C-0.0023 770.5077 226.0777 996.0977 498.0477 996.0977ZM372.0677 788.0877C358.3977 788.0877 350.0977 777.8277 350.0977 762.6977V690.9177H337.8877C265.1377 690.9177 224.6077 649.8977 224.6077 577.1477V387.2077C224.6077 315.4277 265.1377 274.4177 337.8877 274.4177H658.2077C730.9577 274.4177 771.4877 315.4277 771.4877 387.2077V577.1477C771.4877 649.8977 730.9577 690.9177 658.2077 690.9177H490.2377L400.3877 772.4577C388.6677 783.6877 381.8377 788.0877 372.0677 788.0877ZM498.0477 529.2977C510.7377 529.2977 518.0677 521.4877 518.0677 508.2977L521.9777 373.5377C522.4577 359.8677 511.7177 350.0977 497.5577 350.0977C483.8877 350.0977 473.6377 359.8677 474.1177 373.5377L477.5377 508.2977C478.0277 521.4877 484.8677 529.2977 498.0477 529.2977ZM498.0477 612.3077C513.1877 612.3077 526.8577 600.0977 526.8577 584.9577C526.8577 569.3377 513.6677 557.1277 498.0477 557.1277C482.4177 557.1277 469.2377 569.8277 469.2377 584.9577C469.2377 600.0977 482.9077 612.3077 498.0477 612.3077Z"/>
</svg>