<?xml version="1.0" encoding="UTF-8" standalone="no"?>
<svg xmlns="http://www.w3.org/2000/svg"
     width="1152.83203125" height="833.49609375"
     viewBox="0 0 1152.83203125 833.49609375"
     fill="currentColor">
  <path d="M-0.0017 613.2847C-0.0017 737.3047 96.1883 833.4947 231.9383 833.4947H920.8983C1056.6383 833.4947 1152.8283 737.3047 1152.8283 613.2847C1152.8283 576.6647 1142.0883 543.9447 1129.3983 513.1847L964.8483 118.1647C932.6183 40.0347 866.2083 0.0047 778.8083 0.0047H374.0283C286.6183 0.0047 220.2183 40.0347 187.9883 118.1647L22.9483 513.1847C10.7383 543.4547 -0.0017 576.6647 -0.0017 613.2847ZM157.7183 405.7647L264.1583 138.1847C282.7183 91.7947 322.7583 68.3547 377.9283 68.3547H774.8983C830.0783 68.3547 870.6083 91.7947 888.6683 138.1847L995.1183 405.7647C972.1683 397.4647 947.7583 393.0647 920.8983 393.0647H231.9383C205.0783 393.0647 180.1783 397.4647 157.7183 405.7647ZM78.6183 613.2847C78.6183 532.7147 139.6483 471.6747 231.9383 471.6747H920.8983C1013.1883 471.6747 1074.2183 532.7147 1074.2183 613.2847C1074.2183 703.6147 1013.1883 754.8847 920.8983 754.8847H231.9383C139.6483 754.8847 78.6183 693.8447 78.6183 613.2847ZM859.3783 613.2847C859.3783 647.4647 887.2083 673.8247 920.8983 673.8247C953.1283 673.8247 981.4483 646.9747 981.4483 613.2847C981.4483 580.5647 953.1283 552.7347 920.8983 552.7347C887.2083 552.7347 859.3783 580.5647 859.3783 613.2847Z"/>
</svg>