<?xml version="1.0" encoding="UTF-8" standalone="no"?>
<svg xmlns="http://www.w3.org/2000/svg"
     width="1334.47265625" height="836.9140625"
     viewBox="0 0 1334.47265625 836.9140625"
     fill="currentColor">
  <path d="M667.4806 836.9178C1062.0106 836.9178 1334.4706 518.0678 1334.4706 418.4578C1334.4706 318.3578 1061.5206 -0.0022 667.4806 -0.0022C278.3206 -0.0022 0.0006 318.3578 0.0006 418.4578C0.0006 518.0678 277.8306 836.9178 667.4806 836.9178ZM667.4806 759.7678C345.7006 759.7678 85.4506 487.3078 85.4506 418.4578C85.4506 360.3478 345.7006 77.1478 667.4806 77.1478C987.7906 77.1478 1249.0206 360.3478 1249.0206 418.4578C1249.0206 487.3078 987.7906 759.7678 667.4806 759.7678ZM667.4806 691.8978C819.3406 691.8978 941.4106 567.3778 941.4106 418.4578C941.4106 265.6278 819.3406 145.0178 667.4806 145.0178C514.6506 145.0178 392.0906 265.6278 392.5806 418.4578C393.5506 567.3778 514.6506 691.8978 667.4806 691.8978ZM667.4806 509.2778C616.7006 509.2778 575.6806 468.2578 575.6806 418.4578C575.6806 368.1678 616.7006 327.6378 667.4806 327.6378C717.7706 327.6378 758.7906 368.1678 758.7906 418.4578C758.7906 468.2578 717.7706 509.2778 667.4806 509.2778Z"/>
</svg>