<?xml version="1.0" encoding="UTF-8" standalone="no"?>
<svg xmlns="http://www.w3.org/2000/svg"
     width="996.09375" height="996.09375"
     viewBox="0 0 996.09375 996.09375"
     fill="currentColor">
  <path d="M498.0477 996.0959C770.5077 996.0959 996.0977 770.0159 996.0977 498.0459C996.0977 225.5859 770.0177 -0.0041 497.5577 -0.0041C225.5877 -0.0041 -0.0023 225.5859 -0.0023 498.0459C-0.0023 770.0159 226.0777 996.0959 498.0477 996.0959ZM498.0477 913.0859C267.5777 913.0859 83.4977 728.5159 83.4977 498.0459C83.4977 267.5759 267.0877 83.0059 497.5577 83.0059C728.0277 83.0059 913.0877 267.5759 913.0877 498.0459C913.0877 728.5159 728.5177 913.0859 498.0477 913.0859ZM727.5377 759.2759C735.8377 767.5759 750.4877 767.5759 758.7877 759.2759C767.5777 750.4859 767.5777 736.8159 758.7877 728.0259L266.5977 235.8359C257.8077 227.0459 244.1377 227.0459 234.8677 235.8359C226.5577 244.6259 226.5577 258.7859 234.8677 267.0859ZM628.9077 545.4059L722.6577 639.6459C795.4077 589.3559 838.8677 526.3659 838.8677 498.5359C838.8677 447.2659 698.7277 284.1759 497.5577 284.1759C457.5177 284.1759 420.4077 291.0159 385.7377 302.2459L450.1977 366.6959C464.8477 361.3259 480.9577 357.9059 497.5577 357.9059C575.1977 357.9059 638.1877 419.9259 638.1877 498.5359C638.1877 514.6459 634.7677 530.7659 628.9077 545.4059ZM610.3477 694.3359L544.9177 629.3959C530.2777 635.2559 514.6477 638.6759 497.5577 638.6759C419.4377 638.6759 356.9377 574.7059 356.9377 498.5359C356.9377 481.4459 359.8677 464.8459 365.7277 450.6859L272.9477 356.9359C199.7077 407.2259 155.7577 470.2159 155.7577 498.5359C155.7577 549.3159 298.3377 712.4059 497.5577 712.4059C537.5977 712.4059 575.6877 705.5659 610.3477 694.3359ZM508.2977 424.8059L570.3077 486.8159C570.3077 454.5859 542.9677 424.8059 508.2977 424.8059ZM486.8177 571.2859L423.8277 508.2959C422.8477 541.0159 451.6577 571.7759 486.8177 571.2859Z"/>
</svg>