<?xml version="1.0" encoding="UTF-8" standalone="no"?>
<svg xmlns="http://www.w3.org/2000/svg"
     width="1323.73046875" height="891.8485627524979"
     viewBox="0 0 1323.73046875 891.8485627524979"
     fill="currentColor">
  <path d="M1041.9895 880.1262C1056.6395 895.2662 1080.0795 896.2362 1095.2195 880.1262C1111.3295 864.0162 1109.8595 842.0362 1095.2195 826.9062L278.8095 10.9862C264.1595 -3.6638 240.2295 -3.6638 225.0995 10.9862C210.9395 25.1462 210.9395 50.0462 225.0995 64.2062ZM1087.8895 739.0162C1230.4695 644.7762 1323.7295 515.3762 1323.7295 457.2762C1323.7295 358.1562 1052.7295 42.2362 662.1095 42.2362C579.0995 42.2362 500.9795 56.3962 430.1795 79.8362L557.1295 206.7862C589.3595 193.1162 624.5095 185.3062 662.1095 185.3062C812.9895 185.3062 935.0595 304.9362 935.0595 457.2762C935.0595 494.3862 926.7595 530.0262 912.1095 561.2762ZM662.1095 872.3162C752.4395 872.3162 836.4295 855.7162 910.1595 828.3662L782.2295 700.4362C746.0895 718.9962 705.0795 729.2462 662.1095 729.2462C509.7695 729.2462 389.1595 605.7162 388.6695 457.2762C388.6695 413.3262 398.9295 371.8262 416.9895 335.2062L249.9995 167.2362C96.1895 263.4262 -0.0005 398.6862 -0.0005 457.2762C-0.0005 555.9062 275.8795 872.3162 662.1095 872.3162ZM817.3795 447.0262C817.3795 361.5762 748.5395 292.2362 662.1095 292.2362C655.7595 292.2362 649.4095 292.7262 643.5595 293.2162L816.4095 466.0662C816.8995 460.2062 817.3795 453.3662 817.3795 447.0262ZM506.3495 446.0462C506.3495 531.9862 577.1495 601.3162 662.5995 601.3162C669.4295 601.3162 675.7795 600.8262 682.6195 600.3462L507.3195 425.0462C506.8395 431.8862 506.3495 439.2062 506.3495 446.0462Z"/>
</svg>