<?xml version="1.0" encoding="UTF-8" standalone="no"?>
<svg xmlns="http://www.w3.org/2000/svg"
     width="996.09375" height="996.09375"
     viewBox="0 0 996.09375 996.09375"
     fill="currentColor">
  <path d="M498.0477 996.0977C770.5077 996.0977 996.0977 770.5077 996.0977 498.0477C996.0977 226.0777 770.0177 -0.0023 497.5577 -0.0023C225.5877 -0.0023 -0.0023 226.0777 -0.0023 498.0477C-0.0023 770.5077 226.0777 996.0977 498.0477 996.0977ZM498.0477 704.5877C306.1477 704.5877 168.9477 547.3677 168.9477 498.5377C168.9477 449.2177 304.6877 292.4777 498.0477 292.4777C691.4077 292.4777 826.6577 449.2177 826.6577 498.5377C826.6577 547.3677 691.8977 704.5877 498.0477 704.5877ZM498.0477 633.2977C572.7577 633.2977 633.2977 571.7777 633.2977 498.5377C633.2977 423.3377 572.7577 363.7677 498.0477 363.7677C422.8477 363.7677 362.3077 423.3377 362.7977 498.5377C362.7977 571.7777 422.8477 633.2977 498.0477 633.2977ZM498.5377 558.1077C466.3077 558.1077 438.4777 529.7877 438.4777 498.5377C438.4777 466.7977 466.3077 438.9677 498.5377 438.9677C530.2777 438.9677 557.6177 466.7977 557.6177 498.5377C557.6177 529.7877 530.2777 558.1077 498.5377 558.1077Z"/>
</svg>