<?xml version="1.0" encoding="UTF-8" standalone="no"?>
<svg xmlns="http://www.w3.org/2000/svg"
     width="996.09375" height="996.09375"
     viewBox="0 0 996.09375 996.09375"
     fill="currentColor">
  <path d="M498.0477 996.0977C770.5077 996.0977 996.0977 770.5077 996.0977 498.0477C996.0977 226.0777 770.0177 -0.0023 497.5577 -0.0023C225.5877 -0.0023 -0.0023 226.0777 -0.0023 498.0477C-0.0023 770.5077 226.0777 996.0977 498.0477 996.0977ZM734.8677 767.5777L227.0477 260.7377C218.7477 251.4677 218.7477 236.8177 227.0477 228.0277C236.8177 218.7477 250.9777 218.7477 260.2577 228.0277L767.5777 734.8677C776.3677 744.1377 776.3677 758.2977 767.5777 767.5777C758.7877 776.3677 743.6477 775.8777 734.8677 767.5777ZM633.7877 547.3677C639.6477 531.7377 643.0677 515.6277 643.0677 498.5377C643.0677 417.9677 578.1277 354.0077 498.0477 354.0077C480.9577 354.0077 464.3577 356.9377 449.2177 362.3077L382.8077 295.8977C418.4577 284.6677 457.0277 277.8277 498.0477 277.8277C705.5677 277.8277 850.0977 445.7977 850.0977 498.5377C850.0977 527.3477 805.1777 592.2877 730.4677 644.0477ZM614.2577 700.6877C578.6177 711.9177 539.0577 719.2377 498.0477 719.2377C292.4777 719.2377 145.5077 550.7777 145.5077 498.5377C145.5077 469.2377 190.9177 404.7877 266.1177 352.5377L361.8177 449.2177C355.9577 464.3577 353.0277 480.9577 353.0277 498.5377C353.0277 577.1477 417.4777 643.0677 498.0477 643.0677C515.6277 643.0677 531.7377 639.6477 546.8777 633.7877ZM509.2777 422.3677C544.9177 422.3677 573.2377 453.1277 573.2377 486.3277ZM486.8177 573.7277C450.6877 574.2177 420.8977 542.4777 421.8777 509.2777Z"/>
</svg>