<?xml version="1.0" encoding="UTF-8" standalone="no"?>
<svg xmlns="http://www.w3.org/2000/svg"
     width="1133.7890625" height="876.46484375"
     viewBox="0 0 1133.7890625 876.46484375"
     fill="currentColor">
  <path d="M261.7177 876.4673C408.2077 876.4673 524.8977 698.7273 524.8977 437.9873C524.8977 177.2473 408.2077 -0.0027 261.7177 -0.0027C124.5077 -0.0027 13.1877 156.7373 -0.0023 392.0873C22.9477 347.1673 66.8977 320.3173 124.5077 320.3173C209.4777 320.3173 265.6277 379.8873 265.6277 467.7773C265.6277 557.1273 209.4777 616.2073 124.5077 616.2073C72.7577 616.2073 31.7377 594.7273 7.3277 557.6173C37.1077 751.4673 139.1577 876.4673 261.7177 876.4673ZM870.6077 876.4673C1017.0877 876.4673 1133.7877 698.7273 1133.7877 437.9873C1133.7877 177.2473 1017.0877 -0.0027 870.6077 -0.0027C733.3977 -0.0027 622.0677 156.7373 608.8877 392.0873C631.8377 347.1673 675.7777 320.3173 732.9077 320.3173C818.3577 320.3173 874.5077 379.8873 874.5077 467.7773C874.5077 557.1273 818.3577 616.2073 732.9077 616.2073C681.6377 616.2073 640.6277 594.7273 616.2077 557.6173C645.9977 751.4673 748.0477 876.4673 870.6077 876.4673ZM84.4777 450.1973C102.0477 453.6173 118.1677 437.4973 123.0477 415.5273C127.4377 393.5573 116.6977 372.5573 98.1477 369.1373C81.0577 365.7273 62.9877 381.8373 59.0777 403.8073C55.1777 426.2673 66.8977 447.2673 84.4777 450.1973ZM693.3577 450.1973C710.4477 453.6173 727.5377 437.4973 731.9377 415.5273C735.8377 393.5573 725.0977 372.0673 707.0277 369.1373C689.9377 365.7273 671.8777 381.8373 667.9677 403.8073C664.0577 426.2673 675.2977 446.7773 693.3577 450.1973Z"/>
</svg>