<?xml version="1.0" encoding="UTF-8" standalone="no"?>
<svg xmlns="http://www.w3.org/2000/svg"
     width="996.09375" height="996.09375"
     viewBox="0 0 996.09375 996.09375"
     fill="currentColor">
  <path d="M498.0477 996.0959C770.5077 996.0959 996.0977 770.0159 996.0977 498.0459C996.0977 225.5859 770.0177 -0.0041 497.5577 -0.0041C225.5877 -0.0041 -0.0023 225.5859 -0.0023 498.0459C-0.0023 770.0159 226.0777 996.0959 498.0477 996.0959ZM498.0477 913.0859C267.5777 913.0859 83.4977 728.5159 83.4977 498.0459C83.4977 267.5759 267.0877 83.0059 497.5577 83.0059C728.0277 83.0059 913.0877 267.5759 913.0877 498.0459C913.0877 728.5159 728.5177 913.0859 498.0477 913.0859ZM292.9677 734.3759C292.9677 761.2259 321.2877 774.9059 375.4877 774.9059C453.1277 774.9059 501.4677 729.4959 513.1877 645.0159L531.7377 511.2259H661.1377C682.1277 511.2259 697.2677 496.5859 697.2677 477.0459C697.2677 456.5459 681.6377 441.8959 660.6477 441.8959H541.9877L552.7377 362.3059C559.5677 311.0359 579.0977 290.0359 616.6977 290.0359C646.9777 290.0359 656.2477 293.4559 670.4077 293.4559C689.9377 293.4559 703.1277 280.2759 703.1277 261.2259C703.1277 234.3759 673.8277 220.7059 620.6077 220.7059C542.9677 220.7059 494.6277 266.6059 483.3977 350.0959L470.7077 441.8959H359.3777C339.3577 441.8959 323.7277 456.5459 323.7277 477.0459C323.7277 496.5859 339.3577 511.2259 359.8677 511.2259H460.9377L443.8477 633.2959C437.0077 684.0859 417.4777 705.0759 379.3977 705.0759C350.0977 705.0759 341.3077 701.1759 325.6877 701.1759C306.1477 701.1759 292.9677 714.8459 292.9677 734.3759Z"/>
</svg>