<?xml version="1.0" encoding="UTF-8" standalone="no"?>
<svg xmlns="http://www.w3.org/2000/svg"
     width="898.92578125" height="898.92578125"
     viewBox="0 0 898.92578125 898.92578125"
     fill="currentColor">
  <path d="M153.3183 898.9295H745.6083C848.1483 898.9295 898.9283 848.1495 898.9283 747.5595V151.3695C898.9283 50.7795 848.1483 -0.0005 745.6083 -0.0005H153.3183C51.2683 -0.0005 -0.0017 50.2895 -0.0017 151.3695V747.5595C-0.0017 848.6295 51.2683 898.9295 153.3183 898.9295ZM338.8683 679.6895C312.4983 679.6895 298.8283 660.6395 298.8283 633.7895V260.2495C298.8283 232.9095 312.4983 214.3595 338.3783 214.3595H580.5683C600.0983 214.3595 614.2583 226.5595 614.2583 247.5595C614.2583 267.5795 600.0983 280.7595 580.5683 280.7595H379.8783V415.0395H561.0383C580.5683 415.0395 594.7283 426.7595 594.7283 447.2695C594.7283 467.7695 580.5683 478.0295 561.0383 478.0295H379.8783V633.7895C379.8783 661.6195 365.2383 679.6895 338.8683 679.6895Z"/>
</svg>