<?xml version="1.0" encoding="UTF-8" standalone="no"?>
<svg xmlns="http://www.w3.org/2000/svg"
     width="996.09375" height="996.09375"
     viewBox="0 0 996.09375 996.09375"
     fill="currentColor">
  <path d="M497.5577 83.0059C541.9877 83.0059 584.9577 89.8459 625.4877 103.0259L656.7377 26.8559C606.4477 9.7659 552.7377 -0.0041 497.5577 -0.0041C442.3877 -0.0041 388.1877 9.7659 337.8877 26.8559L370.1177 103.0259C410.1577 89.8459 453.1277 83.0059 497.5577 83.0059ZM867.6777 308.5959L943.3577 277.3459C894.5277 180.6659 814.9377 101.0759 718.2577 52.2459L687.0077 127.9259C764.1577 167.4759 828.1277 230.9559 867.6777 308.5959ZM308.1077 127.9259L276.8577 52.7359C180.1777 101.0759 100.5877 180.6659 52.2477 277.3459L128.4177 309.0859C167.4777 231.4459 230.9577 167.9659 308.1077 127.9259ZM497.0677 838.8659C687.0077 838.8659 838.3777 687.4959 837.8877 498.0459C837.3977 308.5959 686.0377 157.2259 496.5777 157.2259C307.1277 157.2259 156.7377 308.1059 156.7377 498.0459C156.7377 687.9859 307.6177 838.8659 497.0677 838.8659ZM373.5377 452.1459C347.1677 452.1459 324.2177 428.7059 324.2177 395.5059C324.2177 361.3259 347.1677 337.8859 373.5377 337.8859C399.8977 337.8859 422.8477 361.3259 422.8477 395.5059C422.8477 428.7059 399.4177 452.1459 373.5377 452.1459ZM622.5577 452.1459C596.1877 452.1459 573.2377 428.7059 573.2377 395.5059C573.2377 361.3259 596.1877 337.8859 622.5577 337.8859C648.9277 337.8859 671.8777 361.3259 671.8777 395.5059C671.8777 428.7059 648.4377 452.1459 622.5577 452.1459ZM913.0877 498.0459C913.0877 542.4759 906.2477 585.4459 893.5577 625.4859L969.2377 657.7159C986.3277 607.4259 996.0977 553.2259 996.0977 498.0459C996.0977 442.3859 986.3277 388.6759 969.2377 338.3759L893.0677 370.6059C906.2477 410.6459 913.0877 453.6159 913.0877 498.0459ZM83.4977 498.0459C83.4977 453.6159 90.3277 410.6459 103.0277 371.0959L26.3677 338.8659C9.7677 389.1559 -0.0023 442.3859 -0.0023 498.0459C-0.0023 553.2259 9.7677 606.9359 26.8577 657.2259L103.0277 624.9959C90.3277 585.4459 83.4977 542.4759 83.4977 498.0459ZM497.5577 700.1959C410.1577 700.1959 351.5577 641.6059 351.5577 613.7659C351.5577 604.0059 361.3277 600.0959 369.6277 604.0059C399.8977 620.6059 436.5277 639.6459 497.5577 639.6459C559.0777 639.6459 595.2177 620.6059 625.9777 604.0059C634.2777 600.0959 643.5577 604.0059 643.5577 613.7659C643.5577 641.6059 585.4477 700.1959 497.5577 700.1959ZM687.0077 867.6759L718.2577 943.8459C815.4277 895.0159 895.0177 815.4259 942.8677 718.7459L868.1677 687.4959C828.6177 765.1359 764.6477 828.1259 687.0077 867.6759ZM128.4177 687.4959L52.7377 718.7459C101.5577 815.4259 180.1777 895.0159 276.8577 943.3559L308.1077 867.1859C230.9577 827.6359 167.4777 764.6459 128.4177 687.4959ZM498.0477 913.0859C453.1277 913.0859 410.1577 906.2459 370.1177 893.0659L338.3777 969.2359C388.6677 986.3259 442.8677 996.0959 498.0477 996.0959C553.2277 996.0959 606.9377 986.3259 656.7377 969.7259L624.9977 893.5559C584.9577 906.2459 542.4777 913.0859 498.0477 913.0859Z"/>
</svg>