<?xml version="1.0" encoding="UTF-8" standalone="no"?>
<svg xmlns="http://www.w3.org/2000/svg"
     width="1492.67578125" height="749.0234375"
     viewBox="0 0 1492.67578125 749.0234375"
     fill="currentColor">
  <path d="M-0.0023 320.7991C-0.0023 478.0291 114.2577 587.8891 285.6477 587.8891H290.5277C363.2777 687.4991 532.2277 749.0191 746.5777 749.0191C960.4477 749.0191 1129.3977 687.4991 1202.1477 587.8891H1207.5177C1378.4177 587.8891 1492.6777 478.0291 1492.6777 320.7991C1492.6777 217.2891 1434.5677 154.7891 1333.0077 154.7891H1225.5877C1175.2977 54.1991 1009.7677 -0.0009 746.5777 -0.0009C482.9077 -0.0009 317.3877 54.1991 267.0877 154.7891H159.6677C58.5977 154.7891 -0.0023 217.2891 -0.0023 320.7991ZM746.5777 670.4091C504.8877 670.4091 329.5877 584.9591 329.5877 470.6991V226.5591C329.5877 131.3491 477.5377 78.6091 746.5777 78.6091C1015.1377 78.6091 1163.5777 131.3491 1163.5777 226.5591V470.6991C1163.5777 584.9591 987.7977 670.4091 746.5777 670.4091ZM490.2377 272.4591C490.2377 293.9491 507.8077 312.0091 529.2977 312.0091H964.3577C985.8377 312.0091 1003.4177 293.9491 1003.4177 272.4591C1003.4177 251.4691 985.8377 233.3991 964.3577 233.3991H529.2977C507.8077 233.3991 490.2377 251.4691 490.2377 272.4591ZM1242.1877 470.6991V233.3991H1333.0077C1385.2577 233.3991 1414.0577 266.5991 1414.0577 320.7991C1414.0577 422.8491 1344.2377 498.5391 1238.2777 508.2991C1240.7277 496.0891 1242.1877 483.3991 1242.1877 470.6991ZM78.6177 320.7991C78.6177 266.5991 107.4177 233.3991 159.6677 233.3991H250.4877V470.6991C250.4877 483.3991 251.9577 496.0891 254.3977 508.2991C148.4377 498.5391 78.6177 422.8491 78.6177 320.7991ZM490.2377 455.0791C490.2377 476.5591 507.8077 494.1391 529.2977 494.1391H964.3577C985.8377 494.1391 1003.4177 476.5591 1003.4177 455.0791C1003.4177 433.5891 985.8377 415.5291 964.3577 415.5291H529.2977C507.8077 415.5291 490.2377 433.5891 490.2377 455.0791Z"/>
</svg>