<?xml version="1.0" encoding="UTF-8" standalone="no"?>
<svg xmlns="http://www.w3.org/2000/svg"
     width="996.09375" height="996.09375"
     viewBox="0 0 996.09375 996.09375"
     fill="currentColor">
  <path d="M498.0477 996.0959C770.5077 996.0959 996.0977 770.0159 996.0977 498.0459C996.0977 225.5859 770.0177 -0.0041 497.5577 -0.0041C225.5877 -0.0041 -0.0023 225.5859 -0.0023 498.0459C-0.0023 770.0159 226.0777 996.0959 498.0477 996.0959ZM348.6377 452.1459C316.8977 452.1459 289.5477 423.3359 289.5477 383.2959C289.5477 342.2859 316.8977 313.4759 348.6377 313.4759C380.8577 313.4759 409.1777 342.2859 409.1777 383.2959C409.1777 423.3359 380.8577 452.1459 348.6377 452.1459ZM646.9777 452.1459C615.2377 452.1459 587.8877 423.3359 587.8877 383.2959C587.8877 342.2859 615.2377 313.4759 646.9777 313.4759C679.1977 313.4759 707.5177 342.2859 707.5177 383.2959C707.5177 423.3359 679.1977 452.1459 646.9777 452.1459ZM498.0477 749.5159C392.5777 749.5159 321.7777 679.1959 321.7777 645.9959C321.7777 633.7859 333.9877 628.4159 344.2377 633.2959C381.3477 652.8359 424.3177 676.2659 498.0477 676.2659C571.2877 676.2659 614.7477 653.3159 651.3677 633.2959C662.1077 628.4159 673.8277 633.7859 673.8277 645.9959C673.8277 679.1959 603.0277 749.5159 498.0477 749.5159Z"/>
</svg>