<?xml version="1.0" encoding="UTF-8" standalone="no"?>
<svg xmlns="http://www.w3.org/2000/svg"
     width="779.78515625" height="1137.20703125"
     viewBox="0 0 779.78515625 1137.20703125"
     fill="currentColor">
  <path d="M170.4083 1137.2084H609.3783C627.4383 1137.2084 639.1583 1124.0284 639.1583 1104.9784C639.1583 1068.3584 609.3783 1042.4784 562.9883 1042.4784H429.6883V777.3484C625.9783 757.8084 779.7883 591.3084 779.7883 390.1384C779.7883 175.2884 604.4883 -0.0016 389.6483 -0.0016C174.8083 -0.0016 -0.0017 175.2884 -0.0017 390.1384C-0.0017 592.2884 154.2983 758.2984 351.0783 777.8284V1042.4784H216.3083C169.9183 1042.4784 140.1383 1068.3584 140.1383 1104.9784C140.1383 1124.0284 151.8583 1137.2084 170.4083 1137.2084ZM266.1183 637.6984C198.2383 637.6984 125.9783 558.1084 125.9783 477.5384C125.9783 434.5684 150.3883 411.6184 194.8283 411.6184H281.7383C280.2783 405.2684 279.7883 395.9984 279.7883 388.6684C192.3783 355.9584 144.0383 325.6884 144.0383 267.5784C144.0383 200.1984 224.6083 127.4384 305.1783 127.4384C348.1483 127.4384 371.0983 152.3484 371.0983 196.2884V280.7584C378.4183 278.8084 387.6983 278.8084 395.0183 278.8084C426.7583 193.3584 458.0083 146.4884 514.6483 146.4884C582.5183 146.4884 654.2983 226.5584 654.2983 306.1484C654.2983 349.6084 629.8783 372.5584 585.9383 372.5584H500.4883C500.9783 380.8584 501.4683 388.1884 500.9783 395.9984C587.8883 428.2184 636.2283 458.4984 636.2283 517.0884C636.2283 584.4684 556.1483 656.7384 475.5883 656.7384C432.6183 656.7384 409.6683 632.3284 409.6683 588.3784V498.5384C402.8283 500.4884 395.9983 500.4884 388.1883 499.9984C354.9783 588.8684 324.2183 637.6984 266.1183 637.6984ZM390.1383 447.7584C421.3883 447.7584 445.7983 423.3384 445.7983 392.5784C445.7983 360.8384 421.3883 336.4284 390.1383 336.4284C358.8883 336.4284 334.4683 360.8384 334.4683 392.5784C334.4683 423.3384 358.8883 447.7584 390.1383 447.7584Z"/>
</svg>