<?xml version="1.0" encoding="UTF-8" standalone="no"?>
<svg xmlns="http://www.w3.org/2000/svg"
     width="988.76953125" height="1137.20703125"
     viewBox="0 0 988.76953125 1137.20703125"
     fill="currentColor">
  <path d="M235.3483 1137.2084H753.4183C771.9683 1137.2084 783.6883 1124.0284 783.6883 1104.9784C783.6883 1068.3584 753.9083 1042.4784 707.5183 1042.4784H533.6883V987.3084C788.5783 967.2884 988.7683 754.3984 988.7683 494.6284C988.7683 221.6784 767.5783 -0.0016 494.6283 -0.0016C221.1883 -0.0016 -0.0017 221.1884 -0.0017 494.6284C-0.0017 754.3984 200.1983 967.2884 455.0783 987.3084V1042.4784H281.7383C235.3483 1042.4784 205.5683 1068.3584 205.5683 1104.9784C205.5683 1124.0284 217.2883 1137.2084 235.3483 1137.2084ZM494.6283 910.1584C264.6483 910.1584 78.6183 724.1184 78.6183 494.6284C78.6183 264.6484 264.6483 78.6084 494.6283 78.6084C724.1183 78.6084 910.1583 264.6484 910.1583 494.6284C910.1583 724.1184 724.1183 910.1584 494.6283 910.1584ZM338.8683 805.1784C411.6183 805.1784 450.1983 744.1384 492.1883 632.8084C501.9483 633.2984 510.2583 632.8084 519.0383 631.3484V742.1884C519.0383 798.3384 547.3683 828.6084 602.0483 828.6084C701.6583 828.6084 802.2483 738.2784 802.2483 653.3184C802.2483 580.5684 742.1883 542.9684 633.2983 501.9484C633.7883 492.1884 633.2983 482.9084 632.3283 472.6584H739.2583C794.9183 472.6584 825.6883 444.3384 825.6883 389.6484C825.6883 290.0384 735.3483 189.4484 650.3883 189.4484C578.6183 189.4484 540.5283 248.5384 499.9983 355.4684C491.2083 355.4684 479.9783 355.4684 470.2183 357.9084V252.4384C470.2183 196.7784 441.8983 166.5084 387.2083 166.5084C287.1083 166.5084 186.5283 256.3484 186.5283 341.7984C186.5283 414.0584 247.0683 452.1484 355.9583 493.1684C355.9583 502.4384 356.9383 513.1884 358.8883 521.9684H249.5083C193.8483 521.9684 163.5783 550.2884 163.5783 604.9784C163.5783 705.0784 253.4183 805.1784 338.8683 805.1784ZM494.6283 566.8984C455.5683 566.8984 424.8083 536.1284 424.8083 497.5584C424.8083 458.4984 455.5683 427.7384 494.6283 427.7384C533.1983 427.7384 563.9683 458.4984 563.9683 497.5584C563.9683 536.1284 533.1983 566.8984 494.6283 566.8984Z"/>
</svg>