<?xml version="1.0" encoding="UTF-8" standalone="no"?>
<svg xmlns="http://www.w3.org/2000/svg"
     width="1005.37109375" height="1197.75390625"
     viewBox="0 0 1005.37109375 1197.75390625"
     fill="currentColor">
  <path d="M874.5083 576.6636C874.5083 480.4736 784.6683 427.7336 640.6283 374.0236C640.6283 373.0436 640.1383 372.0736 640.1383 371.0936H785.1583C856.9383 371.0936 895.9983 333.9836 895.9983 264.6436C895.9983 145.9936 788.5783 21.9736 685.5483 21.9736C589.8483 21.9736 536.6183 111.3236 483.3983 255.8636C482.4183 255.8636 481.4483 255.8636 480.9583 255.8636V110.8436C480.9583 38.5736 443.8483 0.0036 373.5383 0.0036C255.3683 0.9736 131.3483 106.9336 131.3483 209.9636C131.3483 306.6436 220.6983 358.8836 365.2383 413.0836V415.0436H220.2183C147.9483 415.0436 109.8683 452.6336 109.8683 521.9736C109.8683 641.1136 216.3083 764.6436 319.8283 764.6436C416.0183 764.6436 468.7483 675.2936 522.4583 530.2736C523.4383 530.2736 524.4183 530.2736 525.3883 530.2736V676.2736C525.3883 748.5336 562.0083 786.1336 631.8383 786.1336C750.4883 786.1336 874.5083 679.6836 874.5083 576.6636ZM205.0783 209.9636C205.0783 147.4636 294.4383 73.7336 373.5383 73.7336C402.3483 73.7336 406.7383 77.6336 406.7383 110.8436V292.9736C394.0383 305.1736 383.7883 319.8236 376.4683 335.9336C264.6483 292.9736 205.0783 263.6736 205.0783 209.9636ZM685.5483 95.7036C748.5383 95.7036 821.7783 184.5736 821.7783 264.6436C821.7783 293.4536 818.8483 296.8736 785.1583 296.8736H602.5383C590.8183 284.1836 576.1683 273.9236 560.5483 267.0936C603.0283 155.2736 632.3283 95.7036 685.5483 95.7036ZM502.4383 458.9836C465.8183 458.9836 436.5283 430.1736 436.5283 393.5536C436.5283 356.4436 465.8183 327.1436 502.4383 327.1436C539.0583 327.1436 569.3383 356.4436 569.3383 393.5536C569.3383 430.1736 539.0583 458.9836 502.4383 458.9836ZM631.8383 711.9136C602.5383 711.9136 599.6083 708.9836 599.6083 676.2736V493.1636C611.8183 480.9536 622.0683 466.7936 629.3983 451.1736C740.2383 494.1436 800.7783 523.4336 800.7783 576.6636C800.7783 639.1636 710.9383 712.8936 631.8383 711.9136ZM319.8283 690.4336C256.3483 690.4336 184.0783 602.0536 184.0783 521.9736C184.0783 492.6736 187.4983 489.2536 220.2183 489.2536H402.3483C414.5483 501.9536 429.1983 512.2036 445.3083 519.5336C402.3483 631.3436 373.0483 690.4336 319.8283 690.4336ZM187.4983 870.6036L198.2383 895.9936C75.6883 924.3136 -0.0017 970.7036 -0.0017 1032.2236C-0.0017 1136.7236 216.7983 1197.7536 502.4383 1197.7536C788.5783 1197.7536 1005.3683 1136.7236 1005.3683 1032.2236C1005.3683 970.7036 929.6883 924.3136 806.6383 895.9936L817.8683 870.6036C825.1983 853.0236 813.4783 833.0036 790.0383 837.4036L682.6183 855.9536C660.1583 860.3536 655.7583 880.3736 666.9883 897.4636L728.0283 985.8436C741.2083 1005.3736 761.2283 1001.9536 768.5583 985.3536L778.3183 962.8936C874.9983 980.4736 931.6383 1006.3436 931.6383 1032.2236C931.6383 1077.1436 758.2983 1124.0236 502.4383 1124.0236C247.0683 1124.0236 73.7283 1077.1436 73.7283 1032.2236C73.7283 1006.3436 130.3683 980.4736 227.0483 962.8936L236.3283 985.3536C243.6483 1001.9536 264.1583 1005.3736 277.3483 985.8436L337.8883 897.4636C349.6083 880.3736 345.2183 860.3536 322.7583 855.9536L215.3283 837.4036C191.4083 833.0036 180.1783 853.0236 187.4983 870.6036Z"/>
</svg>