<?xml version="1.0" encoding="UTF-8" standalone="no"?>
<svg xmlns="http://www.w3.org/2000/svg"
     width="1005.37109375" height="1197.75390625"
     viewBox="0 0 1005.37109375 1197.75390625"
     fill="currentColor">
  <path d="M109.8683 521.9736C109.8683 641.1136 216.3083 764.6436 319.8283 764.6436C409.6683 764.6436 461.4283 687.0136 510.2583 552.7336C516.5983 552.7336 520.5083 552.2436 525.3883 551.2736V676.2736C525.3883 748.5336 562.0083 786.1336 631.8383 786.1336C750.4883 786.1336 874.5083 679.6836 874.5083 576.6636C874.5083 491.2136 804.1983 434.5736 662.5983 386.2336C662.5983 380.3736 662.1083 375.9736 660.6483 371.0936H785.1583C856.9383 371.0936 895.9983 333.9836 895.9983 264.6436C895.9983 145.9936 788.5783 21.9736 685.5483 21.9736C597.6583 21.9736 545.4083 104.4936 495.6083 233.3936C489.2583 233.3936 485.3483 233.8836 480.9583 234.8636V110.8436C480.9583 38.5736 443.8483 0.0036 373.5383 0.0036C255.3683 0.9736 131.3483 106.9336 131.3483 209.9636C131.3483 299.8036 209.4683 351.5636 341.7983 400.3936C341.7983 406.2536 342.2883 410.6436 343.2583 415.0436H220.2183C147.9483 415.0436 109.8683 452.6336 109.8683 521.9736ZM502.4383 469.7236C460.4483 469.7236 425.7783 436.0336 425.7783 393.5536C425.7783 350.5836 460.4483 316.4036 502.4383 316.4036C544.9183 316.4036 580.0783 350.5836 580.0783 393.5536C580.0783 436.0336 544.9183 469.7236 502.4383 469.7236ZM187.4983 870.6036L198.2383 895.9936C75.6883 924.3136 -0.0017 970.7036 -0.0017 1032.2236C-0.0017 1136.7236 216.7983 1197.7536 502.4383 1197.7536C788.5783 1197.7536 1005.3683 1136.7236 1005.3683 1032.2236C1005.3683 970.7036 929.6883 924.3136 806.6383 895.9936L817.8683 870.6036C825.1983 853.0236 813.4783 833.0036 790.0383 837.4036L682.6183 855.9536C660.1583 860.3536 655.2783 880.3736 666.9883 897.4636L728.0283 985.8436C741.6983 1005.3736 761.2283 1001.9536 768.5583 985.3536L778.3183 962.8936C874.9983 980.4736 931.6383 1006.3436 931.6383 1032.2236C931.6383 1077.1436 758.2983 1124.0236 502.4383 1124.0236C247.0683 1124.0236 73.7283 1077.1436 73.7283 1032.2236C73.7283 1006.3436 130.3683 980.4736 227.0483 962.8936L236.3283 985.3536C243.6483 1001.9536 263.6683 1005.3736 277.3483 985.8436L337.8883 897.4636C350.0983 880.3736 345.2183 860.3536 322.7583 855.9536L215.3283 837.4036C191.4083 833.0036 180.1783 853.0236 187.4983 870.6036Z"/>
</svg>