<?xml version="1.0" encoding="UTF-8" standalone="no"?>
<svg xmlns="http://www.w3.org/2000/svg"
     width="1299.4097622764543" height="1128.6107121500138"
     viewBox="0 0 1299.4097622764543 1128.6107121500138"
     fill="currentColor">
  <path d="M649.465 979.0008C688.525 979.0008 723.675 974.1208 754.445 965.3308L1045.945 1113.7708C1185.105 1184.5708 1293.505 982.9108 1140.675 911.6208L882.855 791.5008L1232.465 621.0908C1371.145 553.7108 1275.435 347.1708 1117.725 427.7308L823.285 578.6108C788.135 553.2208 741.255 535.1608 689.015 528.8108V271.0008C793.995 255.3708 888.715 181.1508 888.715 88.8708C888.715 55.1708 871.145 34.6708 829.635 21.9708C777.875 6.3508 713.915 0.0008 649.465 0.0008C585.495 0.0008 521.535 6.3508 469.775 21.9708C428.265 34.6708 410.695 55.1708 410.695 88.8708C410.695 181.1508 505.415 255.3708 610.395 271.0008V528.8108C558.155 535.1608 511.275 553.2208 476.125 578.6108L181.685 427.7308C23.975 347.1708 -71.735 553.7108 66.945 621.0908L416.555 791.5008L158.245 911.6208C5.415 982.9108 114.305 1184.5708 253.465 1113.7708L544.965 965.3308C575.735 974.1208 610.885 979.0008 649.465 979.0008ZM649.465 209.9608C559.125 209.9608 487.355 160.6408 475.145 92.2808C474.655 88.8708 476.125 86.4208 481.495 84.4708C533.245 70.8008 591.355 63.4808 649.465 63.4808C708.055 63.4808 765.675 70.8008 817.915 84.4708C823.285 86.4208 824.755 88.8708 824.265 92.2808C812.055 160.6408 740.285 209.9608 649.465 209.9608ZM1147.015 485.3508C1230.515 442.8708 1272.015 530.2708 1204.635 563.4808L850.145 735.8408C828.665 712.4008 798.385 694.8208 760.785 683.1008ZM94.775 563.4808C27.395 530.2708 68.895 442.8708 152.395 485.3508L538.135 683.1008C501.025 694.8208 470.265 712.4008 449.265 735.8408ZM649.465 667.4808L548.875 616.2108C577.685 603.5108 613.325 595.7008 649.465 595.7008C686.085 595.7008 721.725 603.5108 750.535 615.7208ZM649.465 910.1608C549.365 910.1608 483.445 875.0008 483.445 823.2408C483.445 771.4808 549.365 736.3308 649.465 736.3308C749.555 736.3308 815.475 771.4808 815.475 823.2408C815.475 875.0008 749.555 910.1608 649.465 910.1608ZM186.575 969.7308L420.455 860.8408C428.755 888.1808 446.335 911.6208 471.235 930.1708L223.675 1056.1508C156.785 1090.3308 112.835 1003.4208 186.575 969.7308ZM1075.245 1056.1508L828.175 930.1708C853.075 911.6208 870.655 888.1808 878.955 860.8408L1112.835 969.7308C1186.575 1003.4208 1142.135 1090.3308 1075.245 1056.1508Z"/>
</svg>