<?xml version="1.0" encoding="UTF-8" standalone="no"?>
<svg xmlns="http://www.w3.org/2000/svg"
     width="1050.29296875" height="1050.78125"
     viewBox="0 0 1050.29296875 1050.78125"
     fill="currentColor">
  <path d="M1015.1383 770.9997C1015.1383 648.4397 903.8083 578.6097 709.9583 513.1797C709.4683 504.8797 708.4983 497.5597 707.0283 489.7497H911.1283C1000.9783 489.7497 1050.2883 441.8897 1050.2883 354.9797C1050.2883 198.7297 908.6883 35.1597 770.5083 35.1597C647.9483 35.1597 578.1283 146.9697 512.6983 340.3297C504.8783 340.8197 497.0683 341.7997 489.7483 343.2597V139.6497C489.7483 49.7997 441.4083 -0.0003 354.4883 -0.0003C198.2383 0.4897 35.1583 141.5997 35.1583 279.7897C35.1583 402.3397 146.4883 472.6597 340.3283 538.0897C340.8183 545.8997 341.7983 553.2197 343.2583 560.5497H138.6683C49.3183 560.5497 -0.0017 608.8897 -0.0017 695.7997C-0.0017 852.5397 141.1183 1015.6297 279.2983 1015.6297C401.8583 1015.6297 472.1683 903.8097 537.5983 709.9597C545.4083 709.4697 553.2183 708.4997 560.5483 707.0297V911.6197C560.5483 1001.4697 608.3983 1050.7797 695.3083 1050.7797C852.0483 1050.7797 1015.1383 909.1797 1015.1383 770.9997ZM109.8683 279.7897C109.8683 182.1297 239.2583 74.7097 354.4883 74.7097C399.8983 74.7097 415.0383 91.3097 415.0383 139.6497V375.9797C386.7183 397.4597 364.2583 426.2697 351.5583 460.4497C194.8283 406.2497 109.8683 360.8397 109.8683 279.7897ZM770.5083 109.8597C868.1683 109.8597 975.5883 239.7497 975.5883 354.9797C975.5883 400.3897 959.4683 415.0397 911.1283 415.0397H673.8283C652.8283 386.7197 624.0283 364.2597 590.3283 351.5597C644.0383 195.3097 689.4483 109.8597 770.5083 109.8597ZM524.8983 635.2497C464.3583 635.2497 415.0383 585.9397 415.0383 525.3897C415.0383 464.8397 464.3583 415.0397 524.8983 415.0397C585.4483 415.0397 635.2583 464.8397 635.2583 525.3897C635.2583 585.9397 585.4483 635.2497 524.8983 635.2497ZM524.8983 594.7297C563.9683 594.7297 594.7283 563.9697 594.7283 525.3897C594.7283 486.8197 563.4783 455.0797 524.8983 455.0797C485.8383 455.0797 455.0783 485.8397 455.0783 525.3897C455.0783 564.4497 485.8383 594.7297 524.8983 594.7297ZM635.2583 911.6197V674.3197C663.5783 653.3197 686.0383 624.5097 698.7283 590.8197C854.9783 644.5297 940.4283 690.4297 940.4283 770.9997C940.4283 868.6497 811.0383 976.0697 695.3083 975.5897C649.8983 975.5897 635.2583 959.9597 635.2583 911.6197ZM279.2983 940.4297C181.6383 940.4297 74.7083 811.5197 74.7083 695.7997C74.7083 650.3897 90.3283 635.2497 138.6683 635.2497H375.9783C396.9683 664.0597 426.2683 686.0397 459.9583 698.7297C405.7583 855.4697 360.3483 940.4297 279.2983 940.4297Z"/>
</svg>