<?xml version="1.0" encoding="UTF-8" standalone="no"?>
<svg xmlns="http://www.w3.org/2000/svg"
     width="1043.45703125" height="1043.9453125"
     viewBox="0 0 1043.45703125 1043.9453125"
     fill="currentColor">
  <path d="M-0.0017 692.3817C-0.0017 849.6117 142.0883 1008.7917 276.3683 1008.7917C397.9483 1008.7917 458.0083 898.4417 531.7383 703.6117C535.6483 703.6117 540.0383 703.1217 543.9483 702.6317C549.8083 702.1517 555.1783 701.6617 560.5483 700.1917V907.7117C560.5483 997.0717 605.9583 1043.9417 691.8983 1043.9417C849.1183 1043.9417 1008.7883 901.8517 1008.7883 767.5817C1008.7883 645.9917 897.9483 585.9417 703.1283 512.2117C703.1283 508.3017 702.6383 503.9017 702.1483 500.0017C701.6583 494.1417 701.1683 488.7717 699.7083 482.9117H907.7183C996.5783 482.9117 1043.4583 437.5017 1043.4583 351.5617C1043.4583 194.3317 901.3683 34.6717 767.0883 34.6717C645.5083 34.6717 585.4483 145.5117 511.7183 340.3317C507.8083 340.3317 503.4183 340.8217 499.5083 341.3117C493.6483 341.8017 488.2783 342.2817 482.9083 343.7517V136.2317C482.9083 46.8717 437.4983 0.0017 351.5583 0.0017C194.3383 0.0017 34.6683 142.0917 34.6683 276.3717C34.6683 397.9517 145.5083 458.0117 339.8483 531.7417C340.3283 536.1317 340.3283 541.0117 340.8183 544.9217C341.3083 550.2917 342.7783 555.6617 343.2583 561.0317H135.7383C46.8783 561.0317 -0.0017 605.9617 -0.0017 692.3817ZM408.6883 521.9717C408.6883 459.4717 458.9883 408.6917 521.4883 408.6917C583.9883 408.6917 634.7683 459.4717 634.7683 521.9717C634.7683 584.4717 583.9883 635.2517 521.4883 635.2517C459.4683 635.2517 408.6883 584.4717 408.6883 521.9717ZM454.5883 521.9717C454.5883 559.0817 483.8883 588.3817 521.4883 588.3817C558.5983 588.3817 587.8883 559.0817 587.8883 521.9717C587.8883 484.8617 558.1083 455.0817 521.4883 455.0817C483.8883 455.0817 454.5883 484.3717 454.5883 521.9717Z"/>
</svg>