<?xml version="1.0" encoding="UTF-8" standalone="no"?>
<svg xmlns="http://www.w3.org/2000/svg"
     width="1103.02734375" height="1051.7578125"
     viewBox="0 0 1103.02734375 1051.7578125"
     fill="currentColor">
  <path d="M145.5083 906.7372H196.7783V958.4972C196.7783 1023.4372 228.0283 1051.7572 290.0383 1051.7572H812.9883C874.9983 1051.7572 906.2483 1023.4372 906.2483 958.4972V906.7372H958.0083C1052.7383 906.7372 1103.0283 858.8872 1103.0283 763.6672V306.6372C1103.0283 211.9172 1052.7383 163.5772 958.0083 163.5772H909.6683V137.6972C909.6683 42.4772 862.3083 -0.0028 771.4883 -0.0028H331.5383C245.6083 -0.0028 193.3583 42.4772 193.3583 137.6972V163.5772H145.5083C55.1783 163.5772 -0.0017 211.9172 -0.0017 306.6372V763.6672C-0.0017 858.8872 50.2883 906.7372 145.5083 906.7372ZM269.0383 132.3272C269.0383 91.3072 290.0383 71.2872 330.5683 71.2872H772.4583C813.4783 71.2872 833.9883 91.3072 833.9883 132.3272V163.5772H269.0383ZM812.9883 659.6672H290.0383C230.9583 659.6672 196.7783 688.4772 196.7783 752.9272V833.0072H144.5283C101.0783 833.0072 79.0983 810.5472 79.0983 767.5772V302.7372C79.0983 259.7672 101.0783 237.3072 144.5283 237.3072H958.9883C1001.9483 237.3072 1024.4183 259.7672 1024.4183 302.7372V767.5772C1024.4183 810.5472 1001.9483 833.0072 958.9883 833.0072H906.2483V752.9272C906.2483 688.4772 874.9983 659.6672 812.9883 659.6672ZM288.5783 410.6472H333.4983C347.1683 410.6472 355.4683 402.3472 355.4683 388.6672V344.2372C355.4683 330.5672 347.1683 322.2672 333.4983 322.2672H288.5783C275.3883 322.2672 267.0883 330.5672 267.0883 344.2372V388.6672C267.0883 402.3472 275.3883 410.6472 288.5783 410.6472ZM449.2183 410.6472H493.6483C507.3283 410.6472 515.6283 402.3472 515.6283 388.6672V344.2372C515.6283 330.5672 507.3283 322.2672 493.6483 322.2672H449.2183C435.5483 322.2672 427.2483 330.5672 427.2483 344.2372V388.6672C427.2483 402.3472 435.5483 410.6472 449.2183 410.6472ZM609.3783 410.6472H654.2983C667.4783 410.6472 675.7783 402.3472 675.7783 388.6672V344.2372C675.7783 330.5672 667.4783 322.2672 654.2983 322.2672H609.3783C595.6983 322.2672 587.3983 330.5672 587.3983 344.2372V388.6672C587.3983 402.3472 595.6983 410.6472 609.3783 410.6472ZM769.5283 410.6472H814.4483C828.1283 410.6472 836.4283 402.3472 836.4283 388.6672V344.2372C836.4283 330.5672 828.1283 322.2672 814.4483 322.2672H769.5283C756.3483 322.2672 748.0483 330.5672 748.0483 344.2372V388.6672C748.0483 402.3472 756.3483 410.6472 769.5283 410.6472ZM288.5783 575.1972H333.4983C347.1683 575.1972 355.4683 566.8972 355.4683 553.2272V508.2972C355.4683 494.6272 347.1683 486.3272 333.4983 486.3272H288.5783C275.3883 486.3272 267.0883 494.6272 267.0883 508.2972V553.2272C267.0883 566.8972 275.3883 575.1972 288.5783 575.1972ZM449.2183 575.1972H493.6483C507.3283 575.1972 515.6283 566.8972 515.6283 553.2272V508.2972C515.6283 494.6272 507.3283 486.3272 493.6483 486.3272H449.2183C435.5483 486.3272 427.2483 494.6272 427.2483 508.2972V553.2272C427.2483 566.8972 435.5483 575.1972 449.2183 575.1972ZM609.3783 575.1972H654.2983C667.4783 575.1972 675.7783 566.8972 675.7783 553.2272V508.2972C675.7783 494.6272 667.4783 486.3272 654.2983 486.3272H609.3783C595.6983 486.3272 587.3983 494.6272 587.3983 508.2972V553.2272C587.3983 566.8972 595.6983 575.1972 609.3783 575.1972ZM769.5283 575.1972H814.4483C828.1283 575.1972 836.4283 566.8972 836.4283 553.2272V508.2972C836.4283 494.6272 828.1283 486.3272 814.4483 486.3272H769.5283C756.3483 486.3272 748.0483 494.6272 748.0483 508.2972V553.2272C748.0483 566.8972 756.3483 575.1972 769.5283 575.1972ZM314.4483 978.0272C288.5783 978.0272 275.3883 965.3272 275.3883 938.9672V771.9772C275.3883 746.0972 288.5783 733.3972 314.4483 733.3972H789.0583C815.4283 733.3972 827.6383 746.0972 827.6383 771.9772V938.9672C827.6383 965.3272 815.4283 978.0272 789.0583 978.0272ZM348.1483 854.9772C348.1483 875.9772 364.2583 892.5772 385.2583 892.5772H718.2583C738.7683 892.5772 754.8783 875.9772 754.8783 854.9772C754.8783 834.9572 738.7683 818.3572 718.2583 818.3572H385.2583C364.2583 818.3572 348.1483 834.9572 348.1483 854.9772Z"/>
</svg>