<?xml version="1.0" encoding="UTF-8" standalone="no"?>
<svg xmlns="http://www.w3.org/2000/svg"
     width="1097.16796875" height="1048.828125"
     viewBox="0 0 1097.16796875 1048.828125"
     fill="currentColor">
  <path d="M193.3583 112.7975H903.8083V104.4875C903.8083 32.2275 847.6583 -0.0025 768.5583 -0.0025H328.6183C252.9283 -0.0025 193.3583 32.2275 193.3583 104.4875ZM272.4583 1048.8275H824.7083C886.7183 1048.8275 917.9683 1020.5075 917.9683 955.5675V861.8175H951.6583C1046.8783 861.8175 1097.1683 813.9675 1097.1683 718.7475V321.2875C1097.1683 226.0775 1046.8783 177.7375 951.6583 177.7375H145.0183C55.1783 177.7375 -0.0017 226.0775 -0.0017 321.2875V718.7475C-0.0017 813.9675 50.2883 861.8175 145.0183 861.8175H179.1983V955.5675C179.1983 1020.5075 210.4483 1048.8275 272.4583 1048.8275ZM280.2783 406.2475C266.1183 406.2475 257.3283 397.4575 257.3283 383.2975V337.3975C257.3283 323.2375 266.1183 314.9375 280.2783 314.9375H326.6583C340.3283 314.9375 348.6283 323.2375 348.6283 337.3975V383.2975C348.6283 397.4575 340.3283 406.2475 326.6583 406.2475ZM445.3083 406.2475C431.6383 406.2475 423.3383 397.4575 423.3383 383.2975V337.3975C423.3383 323.2375 431.6383 314.9375 445.3083 314.9375H491.6983C505.8583 314.9375 514.6483 323.2375 514.6483 337.3975V383.2975C514.6483 397.4575 505.8583 406.2475 491.6983 406.2475ZM611.3283 406.2475C597.1683 406.2475 588.3783 397.4575 588.3783 383.2975V337.3975C588.3783 323.2375 597.1683 314.9375 611.3283 314.9375H657.2283C671.3883 314.9375 679.6883 323.2375 679.6883 337.3975V383.2975C679.6883 397.4575 671.3883 406.2475 657.2283 406.2475ZM776.3683 406.2475C762.2083 406.2475 753.9083 397.4575 753.9083 383.2975V337.3975C753.9083 323.2375 762.2083 314.9375 776.3683 314.9375H822.7583C836.4283 314.9375 845.2183 323.2375 845.2183 337.3975V383.2975C845.2183 397.4575 836.4283 406.2475 822.7583 406.2475ZM280.2783 575.1975C266.1183 575.1975 257.3283 566.8975 257.3283 553.2275V506.8375C257.3283 492.6775 266.1183 483.8875 280.2783 483.8875H326.6583C340.3283 483.8875 348.6283 492.6775 348.6283 506.8375V553.2275C348.6283 566.8975 340.3283 575.1975 326.6583 575.1975ZM445.3083 575.1975C431.6383 575.1975 423.3383 566.8975 423.3383 553.2275V506.8375C423.3383 492.6775 431.6383 483.8875 445.3083 483.8875H491.6983C505.8583 483.8875 514.6483 492.6775 514.6483 506.8375V553.2275C514.6483 566.8975 505.8583 575.1975 491.6983 575.1975ZM611.3283 575.1975C597.1683 575.1975 588.3783 566.8975 588.3783 553.2275V506.8375C588.3783 492.6775 597.1683 483.8875 611.3283 483.8875H657.2283C671.3883 483.8875 679.6883 492.6775 679.6883 506.8375V553.2275C679.6883 566.8975 671.3883 575.1975 657.2283 575.1975ZM776.3683 575.1975C762.2083 575.1975 753.9083 566.8975 753.9083 553.2275V506.8375C753.9083 492.6775 762.2083 483.8875 776.3683 483.8875H822.7583C836.4283 483.8875 845.2183 492.6775 845.2183 506.8375V553.2275C845.2183 566.8975 836.4283 575.1975 822.7583 575.1975ZM296.8783 975.0975C270.5083 975.0975 257.8083 962.3975 257.8083 936.0375V769.0475C257.8083 743.1675 270.9983 730.4675 296.8783 730.4675H800.7783C826.6583 730.4675 839.3583 743.1675 839.3583 769.0475V936.0375C839.3583 962.3975 826.6583 975.0975 800.7783 975.0975ZM385.2583 889.6475H718.2583C738.7683 889.6475 754.8783 873.0475 754.8783 852.0475C754.8783 832.0275 738.7683 815.4275 718.2583 815.4275H385.2583C364.2583 815.4275 348.1483 832.0275 348.1483 852.0475C348.1483 873.0475 364.2583 889.6475 385.2583 889.6475Z"/>
</svg>