<?xml version="1.0" encoding="UTF-8" standalone="no"?>
<svg xmlns="http://www.w3.org/2000/svg"
     width="1030.3536934787653" height="1204.1015625"
     viewBox="0 0 1030.3536934787653 1204.1015625"
     fill="currentColor">
  <path d="M515.0058 356.4405C558.9558 356.4405 587.2758 366.2105 632.6858 387.2105L888.5458 504.8805L846.5558 193.3605C839.2258 140.1405 806.0258 102.5405 753.2858 102.5405H718.1358V75.6805C718.1358 28.3205 690.3058 0.0005 642.9358 0.0005H387.5658C340.2058 0.0005 312.3758 28.3205 312.3758 75.6805V102.5405H277.7058C224.9658 102.5405 193.2358 140.1405 184.4458 203.1205L142.4458 504.3905L397.3358 387.2105C442.7458 366.2105 471.0658 356.4405 515.0058 356.4405ZM299.6758 304.6905C287.9558 304.6905 280.1458 296.3905 280.1458 284.6705V206.5405C280.1458 194.8205 287.9558 186.5205 299.6758 186.5205H451.0458C465.6958 186.5205 475.4558 194.8205 475.4558 206.5405V284.6705C475.4558 296.3905 465.6958 304.6905 451.0458 304.6905ZM574.0958 304.6905C562.8558 304.6905 555.0458 296.3905 555.0458 284.6705V206.5405C555.0458 194.8205 562.8558 186.5205 574.0958 186.5205H725.9458C740.5958 186.5205 750.3558 194.8205 750.3558 206.5405V284.6705C750.3558 296.3905 740.5958 304.6905 725.9458 304.6905ZM515.0058 1078.1205C537.4658 1078.1205 548.6958 1071.7805 584.8358 1043.9405C616.5758 1020.5105 672.2358 979.0005 746.9458 979.0005C790.8858 979.0005 827.0158 991.2105 869.0158 1016.6005L1008.1758 770.0205C1049.6758 697.2705 1032.5858 644.0405 959.8358 610.8405L604.8558 447.7505C584.3458 438.4805 555.5358 422.8505 515.0058 422.8505C474.9658 422.8505 446.1658 438.4805 425.1658 447.7505L70.1858 610.8405C-2.0842 644.0405 -19.1742 697.2705 21.8458 770.0205L161.0058 1016.6005C202.9958 991.2105 239.1258 979.0005 283.0758 979.0005C357.7858 979.0005 413.4458 1020.5105 445.1858 1043.9405C481.3158 1071.7805 492.5458 1078.1205 515.0058 1078.1205ZM515.0058 1204.1005C648.3058 1204.1005 669.3058 1104.9805 746.9458 1104.9805C826.0458 1104.9805 838.7358 1204.1005 991.0858 1204.1005H993.5258C1012.5658 1204.1005 1028.1958 1188.4805 1028.1958 1169.4305C1028.1958 1150.3905 1012.5658 1135.2505 993.5258 1135.2505H991.0858C938.8358 1135.2505 909.0558 1113.2805 872.4258 1087.4005C840.6958 1064.4505 801.1458 1036.1305 746.9458 1036.1305C690.7858 1036.1305 650.7558 1065.9205 619.0158 1089.8405C585.3258 1115.2305 558.9558 1135.2505 515.0058 1135.2505C471.0658 1135.2505 444.6958 1115.2305 411.0058 1089.8405C379.2658 1065.9205 339.2258 1036.1305 283.0758 1036.1305C228.8758 1036.1305 189.3258 1064.4505 157.5858 1087.4005C120.9658 1113.2805 91.6658 1135.2505 38.9358 1135.2505H36.4958C17.4458 1135.2505 1.8258 1150.3905 1.8258 1169.4305C1.8258 1188.4805 17.4458 1204.1005 36.4958 1204.1005H38.9358C191.2758 1204.1005 203.9758 1104.9805 283.0758 1104.9805C360.7158 1104.9805 381.7058 1204.1005 515.0058 1204.1005Z"/>
</svg>