<?xml version="1.0" encoding="UTF-8" standalone="no"?>
<svg xmlns="http://www.w3.org/2000/svg"
     width="1224.609375" height="928.7109375"
     viewBox="0 0 1224.609375 928.7109375"
     fill="currentColor">
  <path d="M-0.0017 39.5545C-0.0017 61.0345 17.5783 78.6145 39.0583 78.6145H1185.5483C1207.0283 78.6145 1224.6083 61.0345 1224.6083 39.5545C1224.6083 18.0645 1207.0283 0.0045 1185.5483 0.0045H39.0583C17.5783 0.0045 -0.0017 18.0645 -0.0017 39.5545ZM146.9683 505.3745H845.6983V676.7545C845.6983 711.4245 889.1583 729.0045 914.5483 702.6345L1110.3483 503.4145C1138.6683 474.6045 1129.3983 423.8245 1078.1283 423.8245H379.3983V252.4445C379.3983 217.7745 335.9383 200.1945 310.5483 226.5645L115.2383 425.7845C86.4283 454.5945 95.6983 505.3745 146.9683 505.3745ZM-0.0017 889.1645C-0.0017 910.6445 17.5783 928.7145 39.0583 928.7145H1185.5483C1207.0283 928.7145 1224.6083 910.6445 1224.6083 889.1645C1224.6083 867.6745 1207.0283 850.0945 1185.5483 850.0945H39.0583C17.5783 850.0945 -0.0017 867.6745 -0.0017 889.1645Z"/>
</svg>