<?xml version="1.0" encoding="UTF-8" standalone="no"?>
<svg xmlns="http://www.w3.org/2000/svg"
     width="657.8942371374244" height="1070.747746058629"
     viewBox="0 0 657.8942371374244 1070.747746058629"
     fill="currentColor">
  <path d="M328.7977 212.8955C387.3877 212.8955 434.7477 165.0355 434.7477 106.4455C434.7477 47.3655 387.3877 -0.0045 328.7977 -0.0045C269.7077 -0.0045 222.3477 47.3655 222.3477 106.4455C222.3477 165.0355 269.7077 212.8955 328.7977 212.8955ZM439.1477 1039.0655C469.4177 1100.0955 559.2577 1062.4955 526.5477 996.0955L426.9377 794.4355C419.1277 779.2955 408.8677 762.6955 399.5977 749.5155L336.6077 660.1555L340.9977 646.9755C357.5977 596.1955 363.9477 565.9155 367.8577 515.6255L377.6177 374.5155C382.5077 307.6155 342.9577 256.8355 274.1077 256.8355C222.8377 256.8355 187.6777 282.7155 140.3177 329.1055L65.6077 402.8355C41.1977 426.7555 33.3777 446.2855 30.9377 478.0255L22.1477 593.2655C19.7077 622.5555 35.8277 643.0655 62.6777 644.0455C90.0277 645.9955 106.6277 629.8855 109.0677 598.6355L120.2977 472.1655L155.9377 439.9455C169.1277 428.2255 185.7277 436.0355 185.2377 449.2155L177.4277 556.1555C173.0277 610.3555 185.7277 636.2255 222.8377 682.6155L321.9577 806.6455C331.7177 819.3355 332.6977 824.2155 337.0977 832.0355ZM609.0677 447.2655H496.2777L425.4677 368.6555L417.1677 486.3255L445.4877 514.6455C461.1177 530.2755 474.7877 535.1555 504.0877 535.1555H609.0677C638.3677 535.1555 657.8977 518.5555 657.8977 491.2155C657.8977 464.8455 637.8777 447.2655 609.0677 447.2655ZM81.7177 1053.7155L228.6977 878.9055C242.8577 861.8155 245.2977 857.9055 251.1577 839.8455L261.8977 806.6455L183.2877 708.0055L159.3577 818.3555L14.3377 990.2355C-31.5623 1045.4055 44.1277 1099.1255 81.7177 1053.7155Z"/>
</svg>