<?xml version="1.0" encoding="UTF-8" standalone="no"?>
<svg xmlns="http://www.w3.org/2000/svg"
     width="942.4208196147843" height="1155.6339296717172"
     viewBox="0 0 942.4208196147843 1155.6339296717172"
     fill="currentColor">
  <path d="M107.4183 213.3789C165.5283 213.3789 213.3783 165.5289 213.3783 105.9589C213.3783 47.3589 165.5283 -0.0011 107.4183 -0.0011C47.8483 -0.0011 -0.0017 47.3589 -0.0017 105.9589C-0.0017 165.5289 47.8483 213.3789 107.4183 213.3789ZM51.2683 610.8389H253.4183L265.6283 623.0489C290.0383 647.4589 323.2383 659.6689 355.4683 659.6689C382.3283 659.6689 408.1983 651.3689 431.1483 634.2789L675.2883 451.6589L917.9683 305.6689C941.4083 291.9889 949.2183 261.7189 936.0383 238.2789C921.3883 214.8389 891.1183 207.5189 867.6783 221.6789L405.2783 498.5389L276.8583 369.6289C273.4383 366.6989 275.3883 362.3089 279.7883 362.3089H397.4583C424.8083 362.3089 447.2683 340.3289 447.2683 312.9889V166.4989C476.0783 156.7389 497.0683 129.3989 497.0683 97.1689C497.0683 55.6689 463.3783 22.9489 422.3683 22.9489C381.8383 22.9489 348.6283 55.1789 348.1483 96.6789V97.1689V264.1589H100.0983C46.3883 264.1589 1.9483 308.1089 1.9483 362.3089V561.5189C1.9483 587.8889 23.4383 610.8389 51.2683 610.8389ZM96.6783 514.1589V467.2889C96.6783 460.4489 104.4883 457.0289 109.3783 461.9189L161.6183 514.1589ZM362.7883 1154.7889C388.1883 1159.6689 416.5083 1143.0689 421.8783 1115.7189L471.1883 868.1689C472.6583 861.8189 472.6583 856.9289 471.6783 850.0989L462.3983 669.9189C428.7083 695.3089 391.5983 706.5389 355.4683 706.5389C351.0783 706.5389 346.1883 706.5389 341.3083 706.0589L371.5783 858.3989L324.2183 1096.1889C318.8483 1123.0489 336.4283 1149.4189 362.7883 1154.7889Z"/>
</svg>