<?xml version="1.0" encoding="UTF-8" standalone="no"?>
<svg xmlns="http://www.w3.org/2000/svg"
     width="1157.4924754302858" height="1177.39043747729"
     viewBox="0 0 1157.4924754302858 1177.39043747729"
     fill="currentColor">
  <path d="M404.38 915.1826C426.35 930.3226 458.09 925.4326 474.2 903.4626L589.44 742.3326L698.32 760.8826L590.9 921.0426C575.77 944.4826 581.14 976.7026 605.06 990.3826C633.38 1006.9826 660.73 997.7026 674.4 976.7026L819.91 757.9526C838.46 729.1526 828.7 684.2226 786.7 673.9726L587 626.1226C567.46 621.2426 560.14 604.6326 571.37 587.5426L655.84 461.5726C661.7 452.2926 672.93 450.3426 681.72 456.6826L804.28 540.6726C810.63 544.5826 816.49 547.5026 823.81 548.4826L1098.23 598.7726C1122.64 603.1726 1151.94 587.5426 1156.82 558.2526C1161.21 531.3926 1143.64 505.0226 1116.78 500.6326L852.62 452.2926L445.39 173.9726L562.09 90.4726C585.04 74.3626 589.93 43.1126 574.3 21.1426C557.7 -1.3174 526.45 -6.6874 504.48 8.9326L329.67 133.9326C300.86 154.9326 300.37 195.9426 330.16 215.9626L479.09 318.0126C487.39 324.3626 489.83 335.1026 483.48 343.4026L359.46 524.0726C307.7 599.2626 339.93 701.3126 441.49 717.9226L479.09 724.2626L392.66 844.8726C376.55 867.3326 381.43 899.0726 404.38 915.1826ZM735.92 283.8326C794.52 283.8326 842.86 235.9826 842.86 177.3926C842.86 118.7926 794.52 70.4526 735.92 70.4526C677.33 70.4526 629.48 118.7926 629.48 177.3926C629.48 235.9826 677.33 283.8326 735.92 283.8326ZM40.12 965.4726C77.23 965.4726 130.94 951.8026 180.75 922.9926C416.59 1068.5026 742.76 1177.3926 1072.84 1177.3926C1087.97 1177.3926 1099.69 1165.6726 1099.69 1150.5326C1099.69 1135.4026 1087.97 1123.1926 1072.84 1123.1926C665.61 1123.1926 268.15 954.7326 45.98 756.4926C33.28 745.2626 19.12 747.2126 9.85 755.5126C-1.87 765.7726 -4.8 784.3226 10.34 797.9926C36.21 820.4526 64.05 842.9226 93.83 864.8926C75.28 884.4226 58.19 896.6326 29.38 912.7426C14.73 921.5326 8.87 934.2226 12.78 946.9226C15.22 956.6826 25.47 965.4726 40.12 965.4726Z"/>
</svg>