<?xml version="1.0" encoding="UTF-8" standalone="no"?>
<svg xmlns="http://www.w3.org/2000/svg"
     width="656.1892287524463" height="1088.8671875"
     viewBox="0 0 656.1892287524463 1088.8671875"
     fill="currentColor">
  <path d="M328.1469 210.4486C386.7369 210.4486 433.6169 164.0586 433.6169 105.4686C433.6169 46.8786 386.7369 -0.0014 328.1469 -0.0014C269.5469 -0.0014 222.6769 46.8786 222.6769 105.4686C222.6769 164.0586 269.5469 210.4486 328.1469 210.4486ZM328.1469 683.1086C348.1669 683.1086 355.9769 696.7786 367.2069 731.9286C383.8069 781.2486 433.1269 985.8386 449.7269 1045.8986C458.0269 1076.1686 473.6469 1088.8686 496.5969 1088.8686C527.8469 1088.8686 546.8969 1060.5486 538.1069 1029.7886C534.6869 1016.5986 463.8869 720.6986 453.6369 659.6686C445.3269 605.9586 443.3769 497.5586 443.3769 446.2886C443.3769 438.4786 452.1669 435.5486 457.0469 442.3786C493.6669 493.6486 560.5669 589.3586 573.7469 604.9786C588.3969 621.5786 611.8369 624.5086 630.8769 613.7686C655.7769 600.5886 661.6369 573.7286 651.3869 555.1786C647.4769 547.8486 642.1069 540.5286 637.2269 533.1986L510.7569 347.1686C470.7169 288.0886 420.9169 261.7186 328.1469 261.7186C235.3669 261.7186 185.5669 288.0886 145.5269 347.1686L19.0569 533.1986C14.1769 540.5286 8.8069 547.8486 4.8969 555.1786C-5.3531 573.7286 0.0169 600.5886 25.4069 613.7686C44.4569 624.5086 67.8869 621.5786 82.0469 604.9786C95.2369 589.3586 162.6169 494.1386 199.2369 442.3786C203.6369 436.0386 212.9069 438.4786 212.9069 446.7786C212.9069 498.0486 210.4669 605.9586 202.1669 659.6686C192.3969 720.6986 121.5969 1016.5986 118.1869 1029.7886C109.3969 1060.5486 128.4369 1088.8686 159.6869 1088.8686C182.6369 1088.8686 198.2569 1076.1686 206.5569 1045.8986C223.1669 985.8386 272.4769 781.2486 289.0769 731.9286C300.3069 696.7786 308.1269 683.1086 328.1469 683.1086Z"/>
</svg>