<?xml version="1.0" encoding="UTF-8" standalone="no"?>
<svg xmlns="http://www.w3.org/2000/svg"
     width="854.00390625" height="1181.640625"
     viewBox="0 0 854.00390625 1181.640625"
     fill="currentColor">
  <path d="M471.1883 879.8791L622.5583 671.8791L718.2583 846.6791C750.4883 996.5791 754.3983 1111.3291 754.3983 1128.9091C754.3983 1159.1791 776.8583 1181.6391 804.1983 1181.6391C832.5183 1181.6391 854.0083 1159.1791 854.0083 1130.3691C854.0083 1125.4891 851.5583 994.6291 815.9183 818.8491L813.9683 810.0591C772.9483 608.3991 644.5283 235.3491 312.9883 15.1391C296.3883 4.8791 281.7383 -0.0009 264.6483 -0.0009H49.8083C22.4583 -0.0009 -0.0017 22.4591 -0.0017 49.8091C-0.0017 78.6091 22.4583 101.0791 49.8083 101.0791H260.7383C312.9883 137.2091 358.3983 176.2691 399.8983 218.2591C405.7583 223.6291 406.2483 232.4191 402.3483 238.7691L233.3983 527.3391C212.8883 563.4791 237.7883 603.0291 276.8583 603.0291H507.3283L386.2283 825.6791L381.3483 834.4691L232.4183 1106.9291C218.7483 1131.3491 227.5383 1162.5991 251.9483 1175.2891C274.8983 1187.4991 306.1483 1182.1291 320.7983 1155.2691ZM205.0783 368.6491C263.6683 368.6491 311.0383 321.2891 311.0383 261.7191C311.0383 203.1291 263.6683 155.7591 205.0783 155.7591C145.9983 155.7591 98.1483 203.1291 98.1483 261.7191C98.1483 321.2891 145.9983 368.6491 205.0783 368.6491ZM363.7683 502.9291L401.3683 438.9691C407.2283 427.7391 418.9483 430.1791 423.8283 437.4991L467.7783 502.9291Z"/>
</svg>