<?xml version="1.0" encoding="UTF-8" standalone="no"?>
<svg xmlns="http://www.w3.org/2000/svg"
     width="953.61328125" height="1159.0760963627845"
     viewBox="0 0 953.61328125 1159.0760963627845"
     fill="currentColor">
  <path d="M127.9283 15.0305C56.1483 15.0305 -0.0017 71.6705 -0.0017 143.9405C-0.0017 201.0705 41.9883 263.0805 100.5883 294.3305V454.4905C100.5883 471.0905 105.4683 485.2505 118.1683 495.5005L255.8583 604.8805C272.9483 618.0605 291.5083 617.0805 312.9883 608.2905L465.8183 544.3305C487.3083 535.0505 498.0483 547.2605 500.4883 561.9105L576.1683 979.3905L366.2083 1063.3705C341.3083 1073.1405 328.6183 1101.9505 338.3783 1127.8305C350.0983 1156.6305 378.4183 1164.4505 402.8283 1154.6805L650.3883 1056.0505C671.8783 1047.2605 683.1083 1026.2605 681.6383 1003.8005L667.4783 811.4205C666.0183 789.9305 689.4483 777.7305 706.0583 788.9605L854.9783 888.5705V1109.7605C854.9783 1136.6105 876.4683 1159.0805 904.2983 1159.0805C931.6383 1159.0805 953.6183 1136.6105 953.6183 1109.7605V862.2005C953.6183 844.6205 944.3383 831.4405 931.6383 820.7005L739.7483 662.4905L701.6583 456.4405C698.2383 435.4405 700.6883 414.9305 710.9383 394.4305L872.5583 71.6705C884.7683 47.2605 874.5083 17.4705 850.0983 5.2705C825.6883 -6.9395 795.8983 2.8305 783.6883 26.7505L624.9983 345.1105C613.7683 367.5705 597.6583 382.2205 573.7283 391.9905L293.9483 508.2005L181.1483 417.8605C172.8483 411.5205 163.0883 409.0805 154.7883 409.0805V294.3305C213.3783 263.0805 255.3683 201.0705 255.3683 143.9405C255.3683 71.6705 199.2183 15.0305 127.9283 15.0305ZM127.9283 69.2305C168.9483 69.2305 201.1683 102.4305 201.1683 145.4005C201.1683 187.4005 170.4083 232.8105 127.9283 247.4505C85.4483 232.8105 54.1983 187.4005 54.1983 145.4005C54.1983 102.4305 86.4283 69.2305 127.9283 69.2305ZM472.6583 368.5505C531.7383 368.5505 579.5883 320.7005 579.5883 261.6105C579.5883 202.5305 531.7383 155.1705 472.6583 155.1705C413.5783 155.1705 366.2083 202.5305 366.2083 261.6105C366.2083 320.7005 413.5783 368.5505 472.6583 368.5505Z"/>
</svg>