<?xml version="1.0" encoding="UTF-8" standalone="no"?>
<svg xmlns="http://www.w3.org/2000/svg"
     width="1236.81640625" height="937.98828125"
     viewBox="0 0 1236.81640625 937.98828125"
     fill="currentColor">
  <path d="M971.6783 213.3787C1030.2783 213.3787 1077.6383 165.5287 1077.6383 106.4488C1077.6383 47.8487 1030.2783 -0.0013 971.6783 -0.0013C912.1083 -0.0013 864.2583 47.8487 864.2583 106.4488C864.2583 165.5287 912.1083 213.3787 971.6783 213.3787ZM618.6483 745.6088C645.5083 745.6088 667.4783 723.6288 667.4783 696.7787V451.1688C667.4783 439.4488 663.0883 428.7088 653.8083 417.9688L525.8783 275.3887C518.0683 266.5988 523.4383 253.4188 535.6483 253.4188H692.3783C711.4283 253.4188 717.2883 267.0888 717.2883 280.2687V401.8588C717.2883 428.7088 739.2583 450.1988 766.1183 450.1988H962.8883C989.7483 450.1988 1011.2283 428.7088 1011.2283 401.8588C1011.2283 374.9987 989.7483 353.0288 962.8883 353.0288H814.9383V180.1788C814.9383 125.4887 771.4883 82.0287 716.7983 82.0287H477.0483C427.2483 82.0287 383.2983 112.3088 363.7683 157.7188C344.7283 204.0988 355.4683 255.8588 390.6283 291.5087L569.8283 471.6788V696.7787C569.8283 723.6288 591.7983 745.6088 618.6483 745.6088ZM265.1383 937.9888C412.5983 937.9888 530.7583 819.8288 530.7583 672.3588C530.7583 525.3888 412.5983 406.7388 265.1383 406.7388C118.1683 406.7388 -0.0017 525.3888 -0.0017 672.3588C-0.0017 819.8288 118.1683 937.9888 265.1383 937.9888ZM1102.5383 526.3688C1142.0883 562.0088 1167.9683 614.2588 1167.9683 672.3588C1167.9683 780.7588 1079.5883 869.1388 971.6783 869.1388C863.2783 869.1388 774.8983 780.7588 774.8983 672.3588C774.8983 645.0188 780.2783 618.1688 790.5283 594.7288C801.7583 568.3588 790.5283 549.8087 773.4383 543.9488C757.3283 537.5988 738.2783 542.9688 729.4883 563.9688C714.3583 597.6588 706.0583 633.7887 706.0583 672.3588C706.0583 819.8288 824.2183 937.9888 971.6783 937.9888C1118.6483 937.9888 1236.8183 819.8288 1236.8183 672.3588C1236.8183 592.2887 1202.1483 521.9688 1145.9983 472.6588C1127.9283 457.0288 1107.4183 460.9388 1095.2183 474.1188C1083.4983 487.3088 1081.5383 507.8088 1102.5383 526.3688ZM265.1383 869.1388C157.2283 869.1388 68.8483 780.7588 68.8483 672.3588C68.8483 563.9688 157.2283 475.5888 265.1383 475.5888C373.5383 475.5888 461.9183 563.9688 461.9183 672.3588C461.9183 780.7588 373.5383 869.1388 265.1383 869.1388Z"/>
</svg>