<?xml version="1.0" encoding="UTF-8" standalone="no"?>
<svg xmlns="http://www.w3.org/2000/svg"
     width="1007.2163682968812" height="1004.6468634051961"
     viewBox="0 0 1007.2163682968812 1004.6468634051961"
     fill="currentColor">
  <path d="M482.8004 285.4965L609.2704 173.6865C625.8704 158.5465 625.8704 137.5465 609.2704 122.4165L482.8004 11.0865C456.9204 -11.8635 423.2304 2.7865 423.2304 36.9665V112.1565H277.2404C257.2204 112.1565 240.6104 128.2765 240.6104 148.2965C240.6104 168.7965 257.2204 183.9365 277.2404 183.9365H423.2304V258.6465C423.2304 294.2865 458.8804 306.4965 482.8004 285.4965ZM875.8704 288.4265C948.6204 288.4265 1007.2204 227.3965 1007.2204 156.5965C1007.2204 82.8665 948.6204 22.8065 875.8704 22.8065C801.6504 22.8065 743.0604 82.8665 743.0604 156.5965C743.0604 228.8565 801.6504 288.4265 875.8704 288.4265ZM10.6304 459.8165L121.9604 586.2765C137.1004 603.3665 158.5804 602.8865 173.2304 586.2765L284.5604 459.8165C307.5104 434.4265 292.8604 400.2465 258.6804 400.2465H183.4904V254.2465C183.4904 234.2265 167.8604 218.1165 147.3504 218.1165C127.3304 218.1165 111.7104 234.2265 111.7104 254.2465V400.2465H37.0004C1.3604 400.2465 -10.8496 436.3765 10.6304 459.8165ZM89.2504 986.1865C114.1504 1013.0365 157.6104 1010.5965 188.8604 978.8565L398.8204 762.0665C406.1404 754.7365 410.5404 752.7865 421.2804 757.1765L585.3404 819.1865C690.8104 859.7165 790.4204 825.0465 836.3204 741.0665L941.7904 549.1765C983.2904 473.9765 969.6204 397.3165 898.8204 359.2265C829.9704 321.1465 758.1904 349.9565 716.6904 426.6165L579.9704 676.1265L463.2704 633.6465C406.1404 612.6465 357.8004 619.4865 311.4204 667.3365L93.6404 892.9265C63.3704 924.1765 65.8104 963.2365 89.2504 986.1865Z"/>
</svg>