<?xml version="1.0" encoding="UTF-8" standalone="no"?>
<svg xmlns="http://www.w3.org/2000/svg"
     width="770.8058364214762" height="1145.01953125"
     viewBox="0 0 770.8058364214762 1145.01953125"
     fill="currentColor">
  <path d="M658.8735 213.383C716.9835 213.383 764.8335 165.523 764.8335 105.953C764.8335 47.363 716.9835 0.003 658.8735 0.003C599.3035 0.003 551.4535 47.363 551.4535 105.953C551.4535 165.523 599.3035 213.383 658.8735 213.383ZM413.7535 967.283C442.0735 967.283 465.0235 944.333 465.0235 916.993V661.133C465.0235 648.923 460.6335 638.183 453.3135 629.393L337.5835 487.303C330.2635 478.023 332.7035 468.263 341.9835 463.383L482.6035 390.133C492.8635 384.763 503.6035 388.673 505.0635 400.883L517.2735 487.303C520.2035 506.343 530.9435 519.533 550.9635 529.293L690.1235 599.123C727.7235 618.163 757.5035 602.543 767.2735 578.613C776.0635 556.153 769.2235 526.853 737.9735 511.233L613.9535 447.753L593.9335 300.293C582.7035 221.683 496.2735 173.343 413.2735 216.793L229.6735 312.503C145.6935 356.443 133.9735 452.633 196.9635 515.623L364.4435 682.613V916.993C364.4435 944.333 386.9035 967.283 413.7535 967.283ZM23.1335 651.363C42.1735 685.543 77.3335 695.803 112.4835 687.993L118.8335 686.523L237.9735 1040.523L144.2235 1102.053C124.2035 1115.233 130.0635 1145.023 153.5035 1145.023H671.5735C695.0035 1145.023 700.8635 1114.253 681.8235 1102.053L589.5435 1041.503L708.6835 679.203C714.0535 664.553 705.7535 647.953 692.0735 643.553C675.4735 638.673 661.3135 646.973 656.4335 661.623L587.0935 867.183C569.5235 830.563 540.2235 800.293 504.0935 780.763V854.003C530.4535 877.933 545.5935 912.593 545.5935 950.683C545.5935 1023.923 486.0235 1083.003 412.7835 1083.003C341.0035 1083.003 280.4535 1022.463 280.4535 950.683C280.4535 912.113 298.0335 876.463 324.8935 852.053V779.783C287.7835 798.343 257.5035 829.103 239.4435 866.703L174.9835 674.313L217.9535 664.553C232.6035 661.623 241.8835 650.883 241.8835 635.253C241.8835 620.113 231.6335 609.373 216.9835 606.933L36.8035 575.683C6.5335 570.313 -8.6065 594.723 5.0635 619.633Z"/>
</svg>