<?xml version="1.0" encoding="UTF-8" standalone="no"?>
<svg xmlns="http://www.w3.org/2000/svg"
     width="918.581136259486" height="1041.015625"
     viewBox="0 0 918.581136259486 1041.015625"
     fill="currentColor">
  <path d="M170.5341 213.3817C229.6141 213.3817 276.9841 166.0117 276.9841 106.9317C276.9841 47.8517 229.6141 0.0017 170.5341 0.0017C111.4541 0.0017 63.6041 47.8517 63.6041 106.9317C63.6041 166.0117 111.4541 213.3817 170.5341 213.3817ZM463.0141 1041.0117H737.9141C765.7541 1041.0117 773.5641 1005.8617 751.1041 990.7217L654.4241 926.7617C664.1841 911.1317 670.5341 894.0417 674.9241 875.4917L785.7641 432.6217C858.5241 432.6217 918.5841 372.5617 918.5841 299.3117C918.5841 226.0717 858.5241 166.9917 785.7641 166.9917C712.0341 166.9917 652.4641 226.0717 652.4641 299.3117C652.4641 353.5117 685.1841 400.3917 731.5741 420.9017L621.2141 862.7917C603.1541 936.0317 539.1841 985.8417 463.0141 985.8417C447.3941 985.8417 435.6741 998.5317 435.6741 1013.6717C435.6741 1028.3217 447.3941 1041.0117 463.0141 1041.0117ZM785.7641 378.4217C740.8441 378.4217 706.6641 344.2417 706.6641 299.3117C706.6641 255.3717 740.8441 221.1917 785.7641 221.1917C830.2041 221.1917 864.3841 255.3717 864.3841 299.3117C864.3841 344.2417 830.2041 378.4217 785.7641 378.4217ZM338.5041 1036.6217C362.4241 1043.4617 391.2341 1031.2517 399.0541 1001.9517L472.7841 734.3717C482.0541 700.1917 467.8941 675.7817 433.7141 666.0117L218.8741 604.9817L235.4741 416.5017C236.4541 410.6417 243.2841 407.2217 247.6841 411.1317L347.2941 482.4217C364.8741 495.1217 387.3341 495.1217 405.3941 482.4217L578.7341 358.4017C601.1941 342.7717 606.5741 311.5217 590.4541 289.0617C574.8341 266.6017 543.5841 261.7217 521.1241 277.3417L376.5841 381.3517L257.4441 295.9017C232.5441 277.3417 202.2741 264.6517 164.6741 264.6517C101.6841 264.6517 54.3241 304.2017 50.4141 360.3517L33.8141 592.7717C28.9341 662.1117 62.6241 713.3817 139.7741 724.6117L362.9141 756.8317L303.3441 975.5817C295.5341 1004.8817 311.6441 1029.3017 338.5041 1036.6217ZM99.7341 855.4717L102.1741 854.9817L116.8241 922.3617L13.3041 990.7217C-9.6459 1005.8617 -1.8259 1041.0117 28.4441 1041.0117H239.8741C255.9841 1041.0117 267.7041 1028.3217 267.7041 1013.6717C267.7041 998.5317 255.9841 985.8417 239.8741 985.8417C208.1341 985.8417 184.6941 973.1417 176.3941 935.0617L156.3741 843.2617L197.3941 834.4717C209.5941 832.5217 216.9241 821.2917 216.9241 809.0817C216.9241 796.3817 207.6441 786.6217 196.4141 785.1517L31.8641 756.8317C4.5141 752.4417 -3.7859 775.8817 4.5141 793.9417L13.7941 812.0117C30.8841 847.1717 58.7141 864.2617 99.7341 855.4717Z"/>
</svg>