<?xml version="1.0" encoding="UTF-8" standalone="no"?>
<svg xmlns="http://www.w3.org/2000/svg"
     width="996.09375" height="996.09375"
     viewBox="0 0 996.09375 996.09375"
     fill="currentColor">
  <path d="M498.0477 996.0959C770.5077 996.0959 996.0977 770.0159 996.0977 498.0459C996.0977 225.5859 770.0177 -0.0041 497.5577 -0.0041C225.5877 -0.0041 -0.0023 225.5859 -0.0023 498.0459C-0.0023 770.0159 226.0777 996.0959 498.0477 996.0959ZM498.0477 913.0859C267.5777 913.0859 83.4977 728.5159 83.4977 498.0459C83.4977 267.5759 267.0877 83.0059 497.5577 83.0059C728.0277 83.0059 913.0877 267.5759 913.0877 498.0459C913.0877 728.5159 728.5177 913.0859 498.0477 913.0859ZM523.4377 287.1059C558.5977 287.1059 587.3977 258.2959 587.3977 224.1259C587.3977 188.4759 558.5977 160.6459 523.4377 160.6459C488.2777 160.6459 460.4477 188.4759 460.4477 224.1259C460.4477 258.2959 488.2777 287.1059 523.4377 287.1059ZM612.7977 795.8959C628.4177 795.8959 643.0677 785.6459 643.0677 767.0859C643.0677 759.7659 641.5977 753.4159 637.6977 745.6059L580.0777 627.9259C573.7277 615.7259 567.8677 607.4259 562.9877 600.5859L528.3177 551.2659L531.2477 542.9659C541.5077 513.1859 546.3877 493.6559 548.3377 464.3559L553.7077 386.2259C556.6377 344.2359 533.2077 310.0559 486.8177 310.0559C456.0577 310.0559 428.7077 325.1959 398.9277 354.0059L354.0077 397.4559C338.8677 412.1059 334.9577 423.8259 333.0077 442.3859L327.6377 507.8159C325.6877 527.3459 336.9177 540.0359 354.9777 541.5059C371.0977 542.4759 383.2977 532.7159 385.2577 511.7159L391.1177 441.4059L415.0377 420.4059C422.3677 414.0659 431.1477 417.9659 430.1777 428.7059L425.7777 488.2859C423.3377 520.9959 438.9677 544.4359 455.0777 564.4559L511.7177 635.2559C516.5977 641.6059 517.5777 644.0459 520.5077 649.4159L583.0077 775.8759C589.3577 789.5459 599.6077 795.8959 612.7977 795.8959ZM628.9077 481.4459H698.2377C718.7477 481.4459 730.4677 470.2159 730.4677 452.1459C730.4677 435.0559 718.7477 423.3359 698.2377 423.3359H624.9977L579.0977 372.5559L573.7277 448.7259L593.7477 468.7459C604.0077 479.0059 612.3077 481.4459 628.9077 481.4459ZM347.1677 795.8959C356.4477 795.8959 365.2377 792.4759 370.6077 785.6459L459.9577 679.1959C469.7277 667.4759 471.1877 666.9959 473.6377 656.2459L478.5177 635.2559L429.1977 573.7259L415.0377 642.5759L332.5177 740.2359C325.6877 748.0459 319.3377 755.8559 319.3377 767.5759C319.3377 785.1559 331.0577 795.8959 347.1677 795.8959Z"/>
</svg>