<?xml version="1.0" encoding="UTF-8" standalone="no"?>
<svg xmlns="http://www.w3.org/2000/svg"
     width="968.0791926825216" height="1225.09765625"
     viewBox="0 0 968.0791926825216 1225.09765625"
     fill="currentColor">
  <path d="M574.0358 213.3837C632.6258 213.3837 680.4858 166.0137 680.4858 105.9538C680.4858 47.3637 632.6258 0.0037 574.0358 0.0037C514.9558 0.0037 467.1058 47.3637 467.1058 105.9538C467.1058 166.0137 514.9558 213.3837 574.0358 213.3837ZM98.9358 801.2738H420.7158C465.6358 801.2738 485.1658 751.4638 459.7758 720.7038L359.1958 597.1637L647.2758 578.1238H917.7858C945.1258 578.1238 968.0758 556.1537 968.0758 528.8038C968.0758 501.9538 945.1258 479.0038 917.7858 479.0038H417.2958L535.4658 360.3538C540.8358 355.4638 547.6658 352.0538 554.9958 353.0237L909.4858 398.9238C938.2958 402.3438 964.6658 380.3737 964.6658 350.0938C964.6658 325.6838 946.5958 304.2038 921.6958 301.2737L179.5058 207.5237C163.8758 205.5638 149.7158 210.9338 138.4858 221.1938L14.4658 345.2138C-5.0642 364.7438 -4.5742 394.5338 14.4658 414.5538C32.0458 433.1038 64.2658 435.0538 84.2858 414.5538L191.2258 308.1038L306.9458 322.7537C317.6858 323.7338 322.0858 335.4538 314.2658 343.2637L204.8958 451.1738C162.4158 493.1638 159.9758 561.0338 204.8958 605.9538L300.5958 702.6338H98.9358C71.5958 702.6338 49.6258 724.6138 49.6258 751.9538C49.6258 778.8038 71.5958 801.2738 98.9358 801.2738ZM579.4058 1225.0938C594.5458 1225.0938 606.2658 1213.3838 606.2658 1198.2438V689.4538C606.2658 674.3138 594.5458 662.5938 579.4058 662.5938C564.2658 662.5938 552.0658 674.3138 552.0658 689.4538V1198.2438C552.0658 1213.3838 564.2658 1225.0938 579.4058 1225.0938Z"/>
</svg>