<?xml version="1.0" encoding="UTF-8" standalone="no"?>
<svg xmlns="http://www.w3.org/2000/svg"
     width="915.4075057672794" height="1144.1063447029185"
     viewBox="0 0 915.4075057672794 1144.1063447029185"
     fill="currentColor">
  <path d="M191.4083 122.0683C224.6083 122.0683 252.4383 95.2183 252.4383 61.0383C252.4383 27.3483 224.6083 -0.0017 191.4083 -0.0017C156.7383 -0.0017 130.8583 27.3483 130.8583 61.0383C130.8583 95.2183 156.7383 122.0683 191.4083 122.0683ZM86.4283 1068.3583L379.8783 1142.0883C421.3883 1152.3483 449.2183 1122.0683 443.8483 1083.4983L416.5083 896.4883H648.9283L830.5683 1080.5683C849.6083 1099.6083 881.3483 1099.6083 900.3883 1080.5683C920.8983 1061.5283 919.9183 1029.2983 900.3883 1009.7683L708.4983 816.8983C695.3083 803.7083 689.9383 799.8083 667.9683 797.3583L457.5183 776.3683L404.2983 615.7183C400.3883 604.4883 409.1783 593.2583 421.3883 595.6983L806.1483 672.3583C831.0583 677.2483 858.8883 664.0583 863.7683 634.2783C868.1683 607.4183 852.5383 581.5383 825.6883 576.1683L293.9483 470.2183C247.0683 460.9383 222.1683 454.0983 201.1683 433.5983L98.6283 332.0283V104.9783C98.6283 77.6383 76.6583 55.6683 49.8083 55.6683C21.4883 55.6683 -0.0017 77.6383 -0.0017 104.9783V344.2383C-0.0017 364.7483 2.4383 376.4683 17.0883 391.1083L131.3483 504.8783C154.7883 528.8083 157.7183 537.1083 166.0183 561.0383L320.3083 1024.8983L110.3483 972.1683C83.9883 965.3283 57.1283 981.9383 51.2683 1008.7883C45.4083 1034.6683 60.5483 1061.5283 86.4283 1068.3583ZM346.1883 426.7583C405.2783 426.7583 453.1283 378.9083 453.1283 319.8283C453.1283 260.7383 405.2783 213.3783 346.1883 213.3783C287.1083 213.3783 239.7483 260.7383 239.7483 319.8283C239.7483 378.9083 287.1083 426.7583 346.1883 426.7583Z"/>
</svg>