<?xml version="1.0" encoding="UTF-8" standalone="no"?>
<svg xmlns="http://www.w3.org/2000/svg"
     width="957.03125" height="1269.6112141859785"
     viewBox="0 0 957.03125 1269.6112141859785"
     fill="currentColor">
  <path d="M414.0583 854.4964L595.2183 986.8164L489.7483 1197.2664C477.5383 1221.1964 487.3083 1251.9564 512.2083 1264.6464C534.6683 1275.3864 564.9383 1269.0464 578.1283 1242.1864L701.6583 995.1164C712.3983 973.1464 708.4983 951.1764 691.4083 934.5664L598.1483 847.1664H756.8383C785.6483 847.1664 806.6383 824.7064 806.6383 797.3664V598.6364C806.6383 517.0864 740.7183 450.1964 658.1983 450.1964H486.8183V409.1764L506.8383 338.8664C512.6983 317.8664 504.3983 295.4064 486.8183 284.1764V209.9564C514.1583 173.8264 542.4783 120.6064 542.4783 83.4964C542.4783 34.1764 508.2983 -0.0036 459.9583 -0.0036C410.6483 -0.0036 375.9783 34.1764 375.9783 83.4964C375.9783 124.0264 403.8083 177.2464 431.6383 209.9564V284.6664C422.3683 291.0164 415.5283 300.2964 412.1083 311.5264L362.7883 485.3564C353.5183 518.5564 373.0483 548.8264 408.1983 548.8264H431.6383V632.3264C345.2183 675.7764 334.4683 795.8964 414.0583 854.4964ZM851.0783 471.6764C909.6683 471.6764 957.0283 423.8264 957.0283 364.2564C957.0283 305.6664 909.6683 258.2964 851.0783 258.2964C791.5083 258.2964 743.6483 305.6664 743.6483 364.2564C743.6483 423.8264 791.5083 471.6764 851.0783 471.6764ZM586.4283 548.8264C588.3783 548.8264 589.8483 551.7564 587.8883 553.2264L486.8183 604.0064V548.8264ZM602.0483 749.9964L700.6883 703.1264C705.0783 701.1764 710.4483 704.1064 710.4483 708.9864V749.9964ZM341.7983 845.7064L299.3183 970.7064H50.7783C22.4583 970.7064 -0.0017 993.1664 -0.0017 1020.5064C-0.0017 1048.8264 22.4583 1071.2864 50.7783 1071.2864H334.9583C353.5183 1071.2864 372.0683 1060.5464 380.3683 1042.4764L437.0083 929.1964L386.2283 892.5764C368.1683 878.9064 353.0283 862.7964 341.7983 845.7064Z"/>
</svg>