<?xml version="1.0" encoding="UTF-8" standalone="no"?>
<svg xmlns="http://www.w3.org/2000/svg"
     width="958.4833642997771" height="1171.875"
     viewBox="0 0 958.4833642997771 1171.875"
     fill="currentColor">
  <path d="M454.0856 212.8948C512.6856 212.8948 560.0456 165.5248 560.0456 105.9548C560.0456 47.3648 512.6856 0.0048 454.0856 0.0048C394.5156 0.0048 347.1556 47.3648 347.1556 105.9548C347.1556 165.5248 394.5156 212.8948 454.0856 212.8948ZM17.5656 1159.1748C38.0756 1176.7548 69.8156 1175.7848 88.8556 1154.2948L262.6856 955.5648C271.9556 944.8248 277.3356 933.1048 278.7956 919.4348L300.7656 705.5648C301.2556 698.2448 309.0656 695.3148 313.9556 701.1748L454.0856 862.7948V1121.0948C454.0856 1148.9248 476.5456 1171.8748 504.8656 1171.8748C532.2156 1171.8748 555.6556 1148.9248 555.6556 1121.0948V846.1948C555.6556 832.5148 551.2556 823.2448 544.9056 813.9648L396.4756 597.1648L468.7356 381.3448C472.6456 369.6248 480.4556 365.2348 492.1756 365.2348H810.0456C820.7856 395.0148 849.1056 416.5048 882.7956 416.5048C924.3056 416.5048 958.4856 382.3248 958.4856 339.8448C958.4856 298.3348 924.3056 264.1648 882.7956 264.1648H294.4256C253.4056 264.1648 220.2056 275.8748 186.9956 308.5948L90.8056 405.7648C58.5856 438.4748 76.1556 491.6948 120.5956 491.6948H211.4156L191.8856 549.8048C181.6256 581.0548 176.7456 613.2848 176.7456 645.0148V900.8748L12.6856 1087.8948C-5.8744 1108.8848 -3.9144 1140.6248 17.5656 1159.1748Z"/>
</svg>