<?xml version="1.0" encoding="UTF-8" standalone="no"?>
<svg xmlns="http://www.w3.org/2000/svg"
     width="1155.76171875" height="708.4695256574817"
     viewBox="0 0 1155.76171875 708.4695256574817"
     fill="currentColor">
  <path d="M577.6383 443.8167C664.0583 443.8167 688.4783 390.5967 765.1383 371.0667L426.7583 19.0167C404.7883 -3.4433 372.5583 -6.3733 346.1883 12.1767L154.7883 148.4067C121.5783 171.8467 124.9983 206.5167 144.0383 227.0267C159.6683 244.6067 188.4783 251.9267 215.8183 232.3967L371.0983 122.5367L458.9883 212.8667C468.7483 223.1167 471.6783 238.7467 456.5383 248.9967L275.8783 367.6467C296.8783 365.6967 319.3383 365.2067 345.2183 366.1867C456.0583 371.0667 476.5583 443.8167 577.6383 443.8167ZM772.4583 246.0667C831.5383 246.0667 879.3983 198.7067 879.3983 139.6267C879.3983 80.5367 831.5383 32.6867 772.4583 32.6867C713.3783 32.6867 666.0183 80.5367 666.0183 139.6267C666.0183 198.7067 713.3783 246.0667 772.4583 246.0667ZM27.3483 572.7267H76.6583C207.0283 572.7267 236.8183 492.6467 327.1483 492.6467C417.4783 492.6467 447.2683 572.7267 577.6383 572.7267C708.4983 572.7267 737.7883 492.6467 828.6183 492.6467C918.9483 492.6467 948.2383 572.7267 1079.0983 572.7267H1128.4183C1143.5583 572.7267 1155.7583 561.0067 1155.7583 545.8767C1155.7583 530.7367 1143.5583 518.5267 1128.4183 518.5267H1079.0983C985.3483 518.5267 953.6183 438.4467 828.6183 438.4467C703.1283 438.4467 671.3883 518.5267 577.6383 518.5267C483.8883 518.5267 452.6383 438.4467 327.1483 438.4467C202.1483 438.4467 170.4083 518.5267 76.6583 518.5267H27.3483C11.7183 518.5267 -0.0017 530.7367 -0.0017 545.8767C-0.0017 561.0067 11.7183 572.7267 27.3483 572.7267ZM309.5683 629.8567C325.6883 629.8567 338.3783 617.1567 338.3783 601.5367C338.3783 585.4267 325.6883 572.7267 309.5683 572.7267C293.9483 572.7267 281.2483 585.4267 281.2483 601.5367C281.2483 617.1567 293.9483 629.8567 309.5683 629.8567ZM847.1683 629.8567C863.2783 629.8567 875.4883 617.1567 875.4883 601.5367C875.4883 585.4267 863.2783 572.7267 847.1683 572.7267C831.0583 572.7267 818.8483 585.4267 818.8483 601.5367C818.8483 617.1567 831.0583 629.8567 847.1683 629.8567ZM217.2883 651.8267C233.3983 651.8267 246.0983 639.1367 246.0983 623.0167C246.0983 607.3967 233.3983 594.6967 217.2883 594.6967C201.6583 594.6967 188.9683 607.3967 188.9683 623.0167C188.9683 639.1367 201.6583 651.8267 217.2883 651.8267ZM401.8583 651.8267C417.9683 651.8267 430.1783 639.1367 430.1783 623.0167C430.1783 607.3967 417.9683 594.6967 401.8583 594.6967C385.7383 594.6967 373.5383 607.3967 373.5383 623.0167C373.5383 639.1367 385.7383 651.8267 401.8583 651.8267ZM754.8783 651.8267C770.9983 651.8267 783.6883 639.1367 783.6883 623.0167C783.6883 607.3967 770.9983 594.6967 754.8783 594.6967C739.2583 594.6967 726.5583 607.3967 726.5583 623.0167C726.5583 639.1367 739.2583 651.8267 754.8783 651.8267ZM939.4483 651.8267C955.5683 651.8267 967.7783 639.1367 967.7783 623.0167C967.7783 607.3967 955.5683 594.6967 939.4483 594.6967C923.3383 594.6967 911.1283 607.3967 911.1283 623.0167C911.1283 639.1367 923.3383 651.8267 939.4483 651.8267ZM131.8383 691.8667C147.4583 691.8667 160.1583 679.6567 160.1583 663.5467C160.1583 647.4367 147.4583 635.2267 131.8383 635.2267C115.7183 635.2267 103.0283 647.4367 103.0283 663.5467C103.0283 679.6567 115.7183 691.8667 131.8383 691.8667ZM488.2783 691.8667C504.3983 691.8667 517.0883 679.6567 517.0883 663.5467C517.0883 647.4367 504.3983 635.2267 488.2783 635.2267C472.6583 635.2267 459.9583 647.4367 459.9583 663.5467C459.9583 679.6567 472.6583 691.8667 488.2783 691.8667ZM668.4583 691.8667C684.5683 691.8667 696.7783 679.6567 696.7783 663.5467C696.7783 647.4367 684.5683 635.2267 668.4583 635.2267C652.3483 635.2267 640.1383 647.4367 640.1383 663.5467C640.1383 679.6567 652.3483 691.8667 668.4583 691.8667ZM1025.3883 691.8667C1041.5083 691.8667 1053.7083 679.6567 1053.7083 663.5467C1053.7083 647.4367 1041.5083 635.2267 1025.3883 635.2267C1009.2783 635.2267 997.0683 647.4367 997.0683 663.5467C997.0683 679.6567 1009.2783 691.8667 1025.3883 691.8667ZM40.0383 708.4667C56.1483 708.4667 68.8483 695.7767 68.8483 680.1467C68.8483 664.0367 56.1483 651.3367 40.0383 651.3367C24.4183 651.3367 11.7183 664.0367 11.7183 680.1467C11.7183 695.7767 24.4183 708.4667 40.0383 708.4667ZM578.6183 708.4667C594.2383 708.4667 606.9383 695.7767 606.9383 680.1467C606.9383 664.0367 594.2383 651.3367 578.6183 651.3367C562.4983 651.3367 549.8083 664.0367 549.8083 680.1467C549.8083 695.7767 562.4983 708.4667 578.6183 708.4667ZM1116.2083 708.4667C1132.3283 708.4667 1145.0183 695.7767 1145.0183 680.1467C1145.0183 664.0367 1132.3283 651.3367 1116.2083 651.3367C1100.5883 651.3367 1087.8883 664.0367 1087.8883 680.1467C1087.8883 695.7767 1100.5883 708.4667 1116.2083 708.4667Z"/>
</svg>