<?xml version="1.0" encoding="UTF-8" standalone="no"?>
<svg xmlns="http://www.w3.org/2000/svg"
     width="1165.52734375" height="1181.8229016255136"
     viewBox="0 0 1165.52734375 1181.8229016255136"
     fill="currentColor">
  <path d="M583.0083 213.3742C641.5983 213.3742 689.9383 166.0142 689.9383 105.9542C689.9383 47.3642 641.5983 0.0042 583.0083 0.0042C523.9283 0.0042 476.5583 47.3642 476.5583 105.9542C476.5583 166.0142 523.9283 213.3742 583.0083 213.3742ZM100.0983 816.8942H128.4183C147.9483 816.8942 161.1283 803.2242 161.1283 783.6942V679.6842H240.2383L233.8883 692.8742C221.6783 717.2842 231.9383 747.0742 255.3683 758.7842C279.7883 771.4842 308.5983 761.2342 320.7983 736.8142L349.1183 679.6842H817.3783L845.2183 736.8142C857.4183 761.2342 886.7183 771.4842 911.1283 758.7842C934.5683 747.0742 944.8283 717.2842 932.6183 692.8742L926.2683 679.6842H1004.3983V783.6942C1004.3983 803.2242 1017.5783 816.8942 1037.1083 816.8942H1065.9183C1085.4483 816.8942 1098.1483 803.2242 1098.1483 783.6942V679.6842H1138.6683C1153.8083 679.6842 1165.5283 667.9642 1165.5283 652.8342C1165.5283 637.6942 1153.8083 625.4842 1138.6683 625.4842H1098.1483V521.4842C1098.1483 501.9542 1085.4483 488.7742 1065.9183 488.7742H1037.1083C1017.5783 488.7742 1004.3983 501.9542 1004.3983 521.4842V625.4842H899.4183L753.4183 330.0742C731.9383 287.1142 691.8983 261.7142 641.5983 261.7142H524.8983C474.6083 261.7142 434.5683 287.1142 413.0883 330.0742L267.0883 625.4842H161.1283V521.4842C161.1283 501.9542 147.9483 488.7742 128.4183 488.7742H100.0983C80.5683 488.7742 67.3783 501.9542 67.3783 521.4842V625.4842H27.3483C11.7183 625.4842 -0.0017 637.6942 -0.0017 652.8342C-0.0017 667.9642 11.7183 679.6842 27.3483 679.6842H67.3783V783.6942C67.3783 803.2242 80.5683 816.8942 100.0983 816.8942ZM476.0783 578.6142H690.9183V461.9142C690.9183 453.6142 704.0983 449.7042 708.9883 459.9642L790.5283 625.4842H375.9783L458.0083 459.9642C462.8883 449.7042 476.0783 452.6342 476.0783 461.4242ZM385.2583 1180.6642C408.6883 1185.5442 435.5483 1173.3442 442.8683 1140.1342L488.7683 930.1742L583.0083 756.3442L677.7383 930.1742L723.6283 1140.1342C730.9583 1174.8042 760.2583 1186.5242 784.1783 1180.1742C807.1283 1173.8242 825.6883 1151.8542 818.3583 1118.6542L771.9683 902.3442C771.4883 897.9442 770.9983 895.0242 769.0383 890.6242L711.4283 727.0542H455.5683L396.9683 890.6242C395.5083 895.0242 395.0183 897.9442 394.0383 902.3442L347.6583 1118.6542C340.3283 1153.3242 361.3283 1175.7842 385.2583 1180.6642Z"/>
</svg>