<?xml version="1.0" encoding="UTF-8" standalone="no"?>
<svg xmlns="http://www.w3.org/2000/svg"
     width="1107.3672103163326" height="1107.3672103163324"
     viewBox="0 0 1107.3672103163326 1107.3672103163324"
     fill="currentColor">
  <path d="M54.7573 661.6849L445.8673 1052.7949C518.1273 1125.0649 589.4173 1125.5549 661.1973 1054.2649L1054.2673 660.7049C1125.5573 589.4249 1125.0673 517.6449 1052.7973 445.3749L662.1773 54.7549C589.9073 -17.5151 518.6173 -18.4851 446.8473 53.2849L53.2873 446.3549C-18.4927 518.1349 -17.5127 589.4249 54.7573 661.6849ZM111.3973 607.4849C76.7273 572.3349 75.7473 535.7049 111.8773 499.5749L499.5773 111.8849C535.7073 75.7449 572.3273 76.2349 607.4873 111.3949L996.1573 500.0649C1030.8273 534.7349 1031.8073 571.8449 995.6673 607.9749L607.9773 995.6749C571.8473 1031.8049 534.2473 1030.8249 500.0673 996.6449ZM579.6573 342.8349C614.3273 342.8349 643.1273 314.0249 643.1273 279.8549C643.1273 244.2049 614.3273 216.3749 579.6573 216.3749C544.4973 216.3749 516.6673 244.2049 516.6673 279.8549C516.6673 314.0249 544.4973 342.8349 579.6573 342.8349ZM669.0073 851.6249C684.1473 851.6249 699.2873 841.3749 699.2873 822.8149C699.2873 815.4949 697.3273 809.1449 693.4273 801.3349L635.8073 683.6549C629.9473 671.4549 623.5973 663.1549 618.7173 656.3149L584.5373 606.9949L587.4673 598.6949C597.7173 568.9149 602.6073 549.3849 604.5573 520.0849L609.9273 441.9549C612.8573 399.9649 588.9273 365.7849 542.5473 365.7849C512.2673 365.7849 484.4373 380.9249 455.1473 409.7349L410.2173 453.1849C395.0873 467.8349 390.6873 479.5549 389.2273 498.1149L383.3673 563.5449C381.8973 583.0749 393.1273 595.7649 410.7073 597.2349C427.3073 598.2049 439.5173 588.4449 441.4673 567.4449L446.8473 497.1349L471.2573 476.1349C478.5773 469.7949 487.3673 473.6949 486.3973 484.4349L481.9973 544.0149C479.0673 576.7249 495.1773 600.1649 511.2973 620.1849L567.4473 690.9849C572.8173 697.3349 573.7973 699.7749 576.7273 705.1449L638.7373 831.6049C645.0873 845.2749 655.8273 851.6249 669.0073 851.6249ZM685.1273 537.1749H754.4573C774.9673 537.1749 786.6873 525.9449 786.6873 507.8749C786.6873 490.7849 774.9673 479.0649 754.4573 479.0649H680.7273L635.3173 428.2849L629.9473 504.4549L649.9673 524.4749C659.7373 534.7349 668.5173 537.1749 685.1273 537.1749ZM403.3873 851.6249C412.6673 851.6249 420.9673 848.2049 426.8273 841.3749L516.1773 734.9249C525.9473 723.2049 526.9173 722.7249 529.3573 711.9749L534.2473 690.9849L485.4173 629.4549L470.7673 698.3049L388.2473 795.9649C381.8973 803.7749 375.5573 811.5849 375.5573 823.3049C375.5573 840.8849 387.2673 851.6249 403.3873 851.6249Z"/>
</svg>