<?xml version="1.0" encoding="UTF-8" standalone="no"?>
<svg xmlns="http://www.w3.org/2000/svg"
     width="459.9609375" height="1086.9140625"
     viewBox="0 0 459.9609375 1086.9140625"
     fill="currentColor">
  <path d="M229.9783 212.8889C289.0583 212.8889 336.4283 165.5289 336.4283 106.4489C336.4283 47.3589 289.0583 -0.0011 229.9783 -0.0011C170.8983 -0.0011 123.5383 47.3589 123.5383 106.4489C123.5383 165.5289 170.8983 212.8889 229.9783 212.8889ZM-0.0017 658.1989C-0.0017 682.6189 19.0383 701.6589 43.4583 701.6589C67.3783 701.6589 86.4283 682.6189 86.4283 658.1989V470.2189C86.4283 461.4289 93.7483 454.5889 102.5383 454.5889C111.3283 454.5889 118.1683 461.4289 118.1683 470.2189V1039.5489C118.1683 1065.9189 139.6483 1086.9189 166.0183 1086.9189C192.3783 1086.9189 213.8683 1065.9189 213.8683 1039.5489V693.3589C213.8683 684.5689 221.1883 676.7589 229.9783 676.7589C238.7683 676.7589 246.5783 684.5689 246.5783 693.3589V1039.5489C246.5783 1065.9189 267.5783 1086.9189 293.9483 1086.9189C320.3083 1086.9189 341.7983 1065.9189 341.7983 1039.5489V470.2189C341.7983 461.4289 348.6283 454.5889 357.4183 454.5889C366.2083 454.5889 373.5383 461.4289 373.5383 470.2189V658.1989C373.5383 682.6189 392.5783 701.6589 416.5083 701.6589C440.9183 701.6589 459.9583 682.6189 459.9583 658.1989V448.2389C459.9583 340.3289 380.8583 269.0389 265.1383 269.0389H194.8283C79.0983 269.0389 -0.0017 340.3289 -0.0017 448.2389Z"/>
</svg>