<?xml version="1.0" encoding="UTF-8" standalone="no"?>
<svg xmlns="http://www.w3.org/2000/svg"
     width="1045.6986967904047" height="889.2708900527329"
     viewBox="0 0 1045.6986967904047 889.2708900527329"
     fill="currentColor">
  <path d="M525.2414 213.3764C583.8414 213.3764 631.6914 165.5264 631.6914 105.9564C631.6914 47.3664 583.8414 -0.0036 525.2414 -0.0036C465.6714 -0.0036 418.3114 47.3664 418.3114 105.9564C418.3114 165.5264 465.6714 213.3764 525.2414 213.3764ZM71.1414 665.0364L316.2614 685.5464C360.2014 689.4564 369.4814 692.3864 411.4714 704.1064L710.3014 788.0864L978.8614 886.2264C1002.2914 894.5264 1034.0314 886.2264 1043.3114 856.4464C1051.1214 830.5664 1039.4014 802.2464 1013.5214 792.9664L745.4614 695.3164C741.0614 693.8464 732.2714 690.4264 728.8614 688.9664L520.3614 613.7664C548.1914 560.5464 585.7914 475.0964 595.5514 382.3264C596.5314 371.5864 603.3714 366.2064 613.1314 366.2064H971.5314C999.3614 366.2064 1020.8514 343.7464 1020.8514 316.4064C1020.8514 288.5764 999.3614 266.6064 971.5314 266.6064H578.4714C512.5514 266.6064 506.6914 266.1164 434.9114 246.5864L63.3314 143.5564C36.4714 136.2264 9.6214 151.8564 1.8014 178.2264C-5.5186 205.0764 10.1114 232.4264 36.4714 239.7464L383.1514 335.4464C391.9414 337.8864 397.8014 344.7264 396.8214 354.9764C385.5914 442.3864 343.1114 526.8564 320.6514 565.4264H124.8514V366.2064C124.8514 338.8664 101.4114 316.4064 74.5614 316.4064C47.2214 316.4064 24.7514 338.8664 24.7514 366.2064V614.7464C24.7514 644.0464 37.9414 661.6164 71.1414 665.0364Z"/>
</svg>