<?xml version="1.0" encoding="UTF-8" standalone="no"?>
<svg xmlns="http://www.w3.org/2000/svg"
     width="1194.82421875" height="1084.00679870679"
     viewBox="0 0 1194.82421875 1084.00679870679"
     fill="currentColor">
  <path d="M594.7283 213.3775C652.8283 213.3775 701.1683 165.0375 701.1683 106.4475C701.1683 48.3375 652.8283 -0.0025 594.7283 -0.0025C536.1283 -0.0025 487.7883 48.3375 487.7883 106.4475C487.7883 165.0375 536.1283 213.3775 594.7283 213.3775ZM437.9883 848.1475C457.5183 867.6775 488.2783 867.6775 507.8083 848.1475L708.9883 646.9775C736.8183 619.6275 718.7483 568.3575 677.2483 564.4575L451.1683 540.0375C432.1283 538.0875 429.6883 526.3675 437.9883 514.1575L518.0683 393.0675C526.3683 381.3475 541.5083 378.4175 552.7383 386.2275L695.3083 480.4675C702.6383 485.3475 711.9183 489.2575 722.1683 489.2575H946.2883C973.1483 489.2575 995.6083 466.7975 995.6083 439.9375C995.6083 412.1075 973.1483 389.6475 946.2883 389.6475H736.3283L301.2683 99.6075C293.4583 94.2375 284.1783 90.8175 273.9283 90.8175H49.3183C22.4583 90.8175 -0.0017 113.7675 -0.0017 141.1175C-0.0017 167.9675 22.4583 190.4275 49.3183 190.4275H259.2783L339.3583 243.6475C351.0783 251.4675 354.4883 266.5975 346.1883 278.3175L230.4683 452.1475C176.7583 532.7175 223.6283 640.1375 327.1483 645.9975L558.1083 658.2075L437.9883 778.3175C417.9683 797.8475 417.9683 828.6175 437.9883 848.1475ZM946.2883 302.7375C946.2883 336.9175 1002.4383 364.7475 1070.7983 364.7475C1139.1583 364.7475 1194.8283 336.9175 1194.8283 302.7375C1194.8283 268.5575 1139.1583 240.2375 1070.7983 240.2375C1002.4383 240.2375 946.2883 268.5575 946.2883 302.7375ZM251.9483 673.3375V840.8175L113.7683 1000.4875C96.1883 1021.4875 98.1483 1054.1975 119.6283 1072.2675C144.0383 1091.7975 174.3183 1084.9575 190.4283 1066.4075L339.3583 892.0875C347.6583 882.3275 350.0983 871.5775 351.5583 861.3275L379.3983 695.3075L325.1983 692.8675C297.8483 691.4075 272.9483 684.5675 251.9483 673.3375Z"/>
</svg>