<?xml version="1.0" encoding="UTF-8" standalone="no"?>
<svg xmlns="http://www.w3.org/2000/svg"
     width="989.9297643160248" height="1118.5784280750295"
     viewBox="0 0 989.9297643160248 1118.5784280750295"
     fill="currentColor">
  <path d="M781.7383 212.8925C840.3283 212.8925 887.6983 165.5225 887.6983 105.9525C887.6983 47.3625 840.3283 0.0025 781.7383 0.0025C722.1683 0.0025 674.8083 47.3625 674.8083 105.9525C674.8083 165.5225 722.1683 212.8925 781.7383 212.8925ZM109.8683 534.1825C169.9183 534.1825 219.7283 484.8625 219.7283 424.3125C219.7283 402.8325 212.8883 382.3225 202.1483 365.2325H497.0683C514.1583 365.2325 521.9683 382.8125 509.7683 395.0225L412.1083 492.6725C368.1683 536.6225 374.5083 602.0525 404.2983 624.5125L652.8283 813.9625L575.6883 1052.2425C564.4483 1086.4225 585.9383 1110.8425 611.8183 1117.1925C634.7683 1122.5625 661.6183 1112.7925 671.8783 1080.5625L758.2983 813.4725C764.6483 793.9425 761.2283 772.9525 747.5583 759.7625L580.5683 592.7725L772.4583 400.3925C780.7583 392.0925 793.4583 392.0925 801.7583 400.3925L868.1683 466.3125L777.3483 557.1325C757.3283 577.6325 757.8083 609.3725 777.3483 628.9025C795.8983 646.9725 828.6183 648.9225 848.6283 628.9025L975.0983 502.4425C995.1183 482.4225 994.6283 451.1725 975.0983 431.1525L853.0283 308.1025C823.7283 278.8125 788.5783 264.1625 746.5783 264.1625H160.1583C132.8083 264.1625 109.8683 286.6225 109.8683 314.4525C49.3183 314.4525 -0.0017 364.2625 -0.0017 424.3125C-0.0017 484.8625 49.3183 534.1825 109.8683 534.1825ZM389.6483 672.3625L365.2383 820.8025H131.3483C102.5383 820.8025 80.0783 843.2625 80.0783 871.5825C80.0783 899.4125 102.5383 921.8725 131.3483 921.8725H405.7583C432.1283 921.8725 449.7083 908.6925 456.5383 885.2525L496.0983 753.9025Z"/>
</svg>