<?xml version="1.0" encoding="UTF-8" standalone="no"?>
<svg xmlns="http://www.w3.org/2000/svg"
     width="1155.76171875" height="870.1171875"
     viewBox="0 0 1155.76171875 870.1171875"
     fill="currentColor">
  <path d="M419.4383 27.3477C419.4383 42.4777 431.6383 54.6877 446.7783 54.6877C490.7183 54.6877 517.5783 62.4977 545.4083 93.2577C556.1483 104.9777 566.8983 109.8677 577.6383 109.8677C588.8683 109.8677 599.6083 104.9777 610.3483 93.2577C638.1883 62.4977 665.0383 54.6877 708.9883 54.6877C724.1183 54.6877 736.3283 42.4777 736.3283 27.3477C736.3283 12.2077 724.1183 -0.0023 708.4983 -0.0023C654.2983 -0.0023 618.1683 13.1877 577.6383 49.8077C537.5983 13.1877 501.4683 -0.0023 446.7783 -0.0023C431.6383 -0.0023 419.4383 12.2077 419.4383 27.3477ZM577.6383 606.4477C664.0583 606.4477 688.4783 553.2177 765.1383 533.6877L426.7583 181.6377C404.7883 159.1777 372.5583 155.7577 346.1883 174.8077L154.7883 311.0377C121.5783 333.9877 124.9983 369.1377 144.0383 389.6477C159.6683 407.2277 188.4783 414.5477 215.8183 395.0177L371.0983 285.1577L458.9883 375.4877C468.7483 385.7377 471.6783 401.3677 456.5383 411.6177L275.8783 530.2777C296.8783 528.3177 319.3383 527.3477 345.2183 528.3177C456.0583 533.2077 476.5583 606.4477 577.6383 606.4477ZM772.4583 408.6877C831.5383 408.6877 879.3983 360.8377 879.3983 301.7577C879.3983 243.1677 831.5383 195.3077 772.4583 195.3077C713.3783 195.3077 666.0183 243.1677 666.0183 301.7577C666.0183 360.8377 713.3783 408.6877 772.4583 408.6877ZM27.3483 735.3477H76.6583C207.0283 735.3477 236.8183 655.2777 327.1483 655.2777C417.4783 655.2777 447.2683 735.3477 577.6383 735.3477C708.4983 735.3477 737.7883 655.2777 828.6183 655.2777C918.9483 655.2777 948.2383 735.3477 1079.0983 735.3477H1128.4183C1143.5583 735.3477 1155.7583 723.6377 1155.7583 708.4977C1155.7583 693.3577 1143.5583 681.1477 1128.4183 681.1477H1079.0983C985.3483 681.1477 953.6183 601.0777 828.6183 601.0777C703.1283 601.0777 671.3883 681.1477 577.6383 681.1477C483.8883 681.1477 452.6383 601.0777 327.1483 601.0777C202.1483 601.0777 170.4083 681.1477 76.6583 681.1477H27.3483C11.7183 681.1477 -0.0017 693.3577 -0.0017 708.4977C-0.0017 723.6377 11.7183 735.3477 27.3483 735.3477ZM27.3483 870.1177H76.6583C207.0283 870.1177 236.8183 789.5477 327.1483 789.5477C417.4783 789.5477 447.2683 870.1177 577.6383 870.1177C708.4983 870.1177 737.7883 789.5477 828.6183 789.5477C918.9483 789.5477 948.2383 870.1177 1079.0983 870.1177H1128.4183C1143.5583 870.1177 1155.7583 857.9077 1155.7583 842.7777C1155.7583 827.6377 1143.5583 815.4277 1128.4183 815.4277H1079.0983C985.3483 815.4277 953.6183 735.3477 828.6183 735.3477C703.1283 735.3477 671.3883 815.4277 577.6383 815.4277C483.8883 815.4277 452.6383 735.3477 327.1483 735.3477C202.1483 735.3477 170.4083 815.4277 76.6583 815.4277H27.3483C11.7183 815.4277 -0.0017 827.6377 -0.0017 842.7777C-0.0017 857.9077 11.7183 870.1177 27.3483 870.1177Z"/>
</svg>