<?xml version="1.0" encoding="UTF-8" standalone="no"?>
<svg xmlns="http://www.w3.org/2000/svg"
     width="947.2727404907939" height="1139.7899994348486"
     viewBox="0 0 947.2727404907939 1139.7899994348486"
     fill="currentColor">
  <path d="M880.8654 335.9378C877.9354 333.0078 875.4954 331.0578 872.5654 329.0978V269.0478L920.4154 244.1378C937.0154 235.8378 947.2754 219.7278 947.2754 202.1478V48.8278C947.2754 21.9678 926.7654 -0.0022 899.4254 -0.0022H791.0254C764.1654 -0.0022 742.6854 21.9678 742.6854 48.8278V202.1478C742.6854 219.7278 752.9354 235.8378 770.0254 244.1378L818.3654 269.0478V329.0978C815.4354 331.0578 812.5054 333.0078 810.0654 335.9378L690.9254 454.0978L571.7854 333.9878C548.3454 310.0578 511.2354 295.4078 474.1254 295.4078H153.3254C131.3554 295.4078 113.2854 308.5978 105.4754 330.0778L28.8154 560.5478C17.0954 596.1878 37.6054 620.6078 62.5054 626.4678C85.4554 632.8078 112.7954 623.0478 123.5454 591.7978L189.4554 395.5078H295.4154C305.1854 395.5078 312.0154 404.2978 308.6054 414.0578L243.6554 609.3778C222.1754 672.8478 241.7054 733.8878 312.9954 765.1378L521.4954 856.4478L591.8054 1103.0278C600.5954 1133.7878 628.9154 1143.0678 652.8354 1136.7178C677.2554 1130.3678 697.2754 1107.9078 687.9954 1075.1978L610.8454 805.6678C606.4554 791.5078 599.6154 781.2478 583.0154 773.9278L420.4154 702.1478L506.8454 441.8978C510.7454 431.1478 523.4454 427.2478 531.7454 435.5478L655.2854 560.5478C674.8154 580.0778 707.0354 580.0778 726.5654 560.5478L880.8654 406.7378C900.8854 386.2278 900.8854 355.9578 880.8654 335.9378ZM474.1254 244.1378C533.2054 244.1378 580.5754 196.7778 580.5754 137.6978C580.5754 78.6178 533.2054 30.7578 474.1254 30.7578C415.0454 30.7578 367.1954 78.6178 367.1954 137.6978C367.1954 196.7778 415.0454 244.1378 474.1254 244.1378ZM260.2654 789.5478L235.8454 928.2178L25.8854 1045.4078C-3.8946 1062.0078 -5.3646 1093.2578 8.3054 1115.2378C21.0054 1135.7378 47.3754 1148.4378 75.2054 1132.8078L306.1554 1004.8878C320.3154 996.5778 325.2054 987.3078 330.0854 972.1678L373.5454 842.7778L293.9554 808.1078C281.7454 802.7378 270.5154 796.3878 260.2654 789.5478Z"/>
</svg>