<?xml version="1.0" encoding="UTF-8" standalone="no"?>
<svg xmlns="http://www.w3.org/2000/svg"
     width="996.09375" height="996.09375"
     viewBox="0 0 996.09375 996.09375"
     fill="currentColor">
  <path d="M498.0477 996.0959C770.5077 996.0959 996.0977 770.0159 996.0977 498.0459C996.0977 225.5859 770.0177 -0.0041 497.5577 -0.0041C225.5877 -0.0041 -0.0023 225.5859 -0.0023 498.0459C-0.0023 770.0159 226.0777 996.0959 498.0477 996.0959ZM498.0477 913.0859C267.5777 913.0859 83.4977 728.5159 83.4977 498.0459C83.4977 267.5759 267.0877 83.0059 497.5577 83.0059C728.0277 83.0059 913.0877 267.5759 913.0877 498.0459C913.0877 728.5159 728.5177 913.0859 498.0477 913.0859ZM453.1277 829.1059C471.6777 829.1059 484.8677 817.3859 484.8677 794.9259V594.7259C484.8677 584.4759 489.2577 578.6159 497.5577 578.6159C504.8877 578.6159 509.2777 583.9859 509.2777 594.7259V794.9259C509.2777 817.3859 523.4377 829.1059 542.4777 829.1059C561.0377 829.1059 573.7277 817.3859 573.7277 794.9259V445.7959C573.7277 437.9859 578.6177 432.6159 584.9577 432.6159C591.3077 432.6159 595.2177 437.4959 595.2177 445.7959V588.3759C595.2177 608.3959 607.9077 619.6259 625.4877 619.6259C642.0877 619.6259 653.8077 608.3959 653.8077 588.3759V453.6159C653.8077 366.2059 604.4877 342.2859 498.0477 342.2859H457.0277C437.0077 342.2859 427.7377 338.3759 412.5977 328.1259L370.1177 297.8559L363.7677 200.6859C362.3077 180.1759 349.6077 169.9259 332.5177 170.8959C315.4277 172.3659 304.1977 183.5959 305.6677 204.5859L311.5277 301.7559C312.9877 322.7559 322.7577 335.4459 336.4277 345.2159L406.7377 397.4559C416.5077 404.2959 420.4077 412.1059 420.4077 423.3359V794.9259C420.4077 817.3859 434.0777 829.1059 453.1277 829.1059ZM498.0477 313.4759C533.2077 313.4759 562.0077 284.1759 562.0077 250.9759C562.0077 215.3359 533.2077 187.0159 498.0477 187.0159C462.3977 187.0159 435.0577 215.3359 435.0577 250.9759C435.0577 284.1759 462.3977 313.4759 498.0477 313.4759Z"/>
</svg>