<?xml version="1.0" encoding="UTF-8" standalone="no"?>
<svg xmlns="http://www.w3.org/2000/svg"
     width="774.4461020171385" height="1221.4447303365432"
     viewBox="0 0 774.4461020171385 1221.4447303365432"
     fill="currentColor">
  <path d="M402.6458 213.3834C461.2458 213.3834 508.6058 165.5234 508.6058 105.9534C508.6058 47.3634 461.2458 0.0034 402.6458 0.0034C343.0758 0.0034 295.2258 47.3634 295.2258 105.9534C295.2258 165.5234 343.0758 213.3834 402.6458 213.3834ZM150.6958 649.9034H212.7058C206.8458 699.7034 216.1258 731.9334 256.6558 773.4334L447.0858 964.8434L521.7858 1187.0134C532.5358 1219.2334 561.3458 1225.5834 584.7758 1219.2334C611.1458 1211.4234 624.8158 1182.1334 616.0258 1155.7634L538.3958 921.8734C535.9458 914.5534 533.5058 911.6234 529.1158 905.2734L398.7458 755.8634L426.0858 458.4934C426.5758 448.7334 438.2958 445.8034 443.6658 454.1034L506.6558 551.2734C515.9358 564.9434 529.6058 577.1434 543.2758 584.9634L700.9858 669.9234C725.4058 682.6134 755.1858 673.8234 768.8558 649.9034C781.0658 625.4834 772.7658 595.2134 748.8458 582.0334L590.6358 497.5634L485.6558 335.4534C456.8458 291.0134 414.8558 264.6434 356.7558 264.6434H304.0158C294.7358 234.3734 265.9358 212.4034 230.7758 212.4034H176.0858C114.0758 212.4034 77.9458 249.0234 77.9458 312.0134V577.1434C77.9458 620.1134 107.7258 649.9034 150.6958 649.9034ZM721.4958 398.4334C706.3558 398.4334 694.6458 410.1534 694.6458 425.2934V499.5134L748.8458 528.8134V425.2934C748.8458 410.1534 736.6358 398.4334 721.4958 398.4334ZM721.4958 1220.7034C736.6358 1220.7034 748.8458 1208.4934 748.8458 1193.3634V719.7234C731.2658 724.6134 712.7058 724.1234 694.6458 718.2634V1193.3634C694.6458 1208.4934 706.3558 1220.7034 721.4958 1220.7034ZM14.4658 1206.0534C34.4858 1226.5634 64.7558 1225.5834 84.2858 1206.0534L266.9058 1024.4134C270.3258 1020.5034 274.2358 1017.0934 276.1858 1012.6934L326.4758 910.6434L239.0758 823.2434L188.2958 962.4034L14.4658 1137.2034C-4.5742 1156.7334 -5.0642 1187.0134 14.4658 1206.0534Z"/>
</svg>