<?xml version="1.0" encoding="UTF-8" standalone="no"?>
<svg xmlns="http://www.w3.org/2000/svg"
     width="955.2724299408721" height="1088.8671875"
     viewBox="0 0 955.2724299408721 1088.8671875"
     fill="currentColor">
  <path d="M328.1469 210.4486C386.7369 210.4486 433.6169 164.0586 433.6169 105.4686C433.6169 46.8786 386.7369 -0.0014 328.1469 -0.0014C269.5469 -0.0014 222.6769 46.8786 222.6769 105.4686C222.6769 164.0586 269.5469 210.4486 328.1469 210.4486ZM159.6869 1088.8686C182.6369 1088.8686 198.2569 1076.1686 206.5569 1045.8986C223.1669 985.8386 272.4769 781.2486 289.0769 731.9286C300.3069 696.7786 308.1269 683.1086 328.1469 683.1086C348.1669 683.1086 355.9769 696.7786 367.2069 731.9286C383.8069 781.2486 433.1269 985.8386 449.7269 1045.8986C458.0269 1076.1686 473.6469 1088.8686 496.5969 1088.8686C527.8469 1088.8686 546.8969 1060.5486 538.1069 1029.7886C534.6869 1016.5986 463.8869 720.6986 453.6369 659.6686C445.3269 605.9586 443.3769 497.5586 443.3769 446.2886C443.3769 438.4786 452.1669 435.5486 457.0469 442.3786L512.2269 519.5286C518.0869 490.2386 545.4269 458.4986 586.4469 457.5186L510.7569 347.1686C469.7469 287.5986 420.9169 261.7186 328.1469 261.7186C235.3669 261.7186 185.5669 288.0886 145.5269 347.1686L19.0569 533.1986C14.1769 540.5286 8.8069 547.8486 4.8969 555.1786C-5.3531 573.7286 0.0169 600.5886 25.4069 613.7686C44.4569 624.5086 67.8869 621.5786 82.0469 604.9786C95.2369 589.3586 162.6169 494.1386 199.2369 442.3786C203.6369 436.0386 212.9069 438.4786 212.9069 446.7786C212.9069 498.0486 210.4669 605.9586 202.1669 659.6686C192.3969 720.6986 121.5969 1016.5986 118.1869 1029.7886C109.3969 1060.5486 128.4369 1088.8686 159.6869 1088.8686ZM738.7869 547.8486C781.7569 547.8486 817.3969 512.6986 817.3969 469.7286C817.3969 426.7586 781.7569 391.5986 738.7869 391.5986C695.8169 391.5986 660.6669 426.7586 660.6669 469.7286C660.6669 512.6986 695.8169 547.8486 738.7869 547.8486ZM630.3869 1088.8686C648.9469 1088.8686 664.0769 1078.1286 670.4269 1053.7086C680.6869 1017.0886 710.4669 891.1086 720.2369 860.3486C727.0669 840.3286 728.5369 838.8686 733.9069 838.8686C739.2769 838.8686 740.2569 840.3286 747.0869 860.3486C756.8569 891.1086 786.6369 1017.0886 797.3869 1053.7086C803.2369 1078.1286 818.8669 1088.8686 837.4169 1088.8686C865.2569 1088.8686 881.3669 1062.9886 874.5269 1037.5986C872.0869 1029.2986 829.6069 848.1486 822.7769 810.0586C818.8669 786.6186 816.9169 745.6086 816.9169 728.5186C816.9169 720.6986 826.1869 718.2586 830.5869 724.6086L893.0869 814.9386C906.2669 833.9886 927.7569 834.4686 941.4269 824.2186C954.6069 815.4286 960.9569 797.3586 948.7469 778.8086L867.6969 653.8086C839.8669 610.8386 795.9169 593.7486 750.9969 593.7486H733.9069C701.1869 593.7486 687.0269 583.4986 665.0569 560.0586L613.2969 504.8786C600.1169 491.2086 574.2369 490.7186 559.5869 507.8086C545.9169 521.4886 542.0069 541.5086 553.2369 558.5986C558.6169 566.8986 603.5369 617.1886 638.6869 661.1286C646.5069 670.8986 650.8969 680.1786 650.8969 694.3386C650.8969 718.7486 649.9169 779.7886 645.0369 810.0586C638.2069 848.1486 595.7169 1029.2986 592.7969 1037.5986C586.4469 1062.9886 602.5569 1088.8686 630.3869 1088.8686Z"/>
</svg>