<?xml version="1.0" encoding="UTF-8" standalone="no"?>
<svg xmlns="http://www.w3.org/2000/svg"
     width="856.4453125" height="1133.30078125"
     viewBox="0 0 856.4453125 1133.30078125"
     fill="currentColor">
  <path d="M191.4083 62.987H665.0383C662.1083 21.487 638.1883 -0.003 593.2583 -0.003H262.6983C217.7783 -0.003 194.3383 21.487 191.4083 62.987ZM106.4483 198.247H749.5083C742.1883 153.807 721.1883 129.397 672.3683 129.397H183.5983C134.7683 129.397 113.7683 153.807 106.4483 198.247ZM153.3183 1133.297H717.7783C805.1783 1133.297 856.4483 1082.517 856.4483 981.937V428.227C856.4483 327.637 804.6883 276.857 703.1283 276.857H153.3183C51.2683 276.857 -0.0017 327.147 -0.0017 428.227V981.937C-0.0017 1082.517 51.2683 1133.297 153.3183 1133.297ZM493.6483 525.387C458.9883 525.387 431.6383 497.557 431.6383 464.357C431.6383 429.197 458.9883 401.857 493.6483 401.857C527.8283 401.857 556.1483 429.197 556.1483 464.357C556.1483 497.557 527.8283 525.387 493.6483 525.387ZM219.7283 1020.507C203.1283 1020.507 192.3783 1007.327 192.3783 992.677C192.3783 984.867 195.3083 978.027 202.6383 970.217L295.4083 877.927L370.6083 613.277C373.0483 603.517 368.1683 598.147 358.8883 598.637L316.8983 601.077L305.6683 681.157C303.2183 699.217 291.5083 708.007 276.3683 706.547C258.2983 705.567 249.5083 692.387 251.9483 674.807L265.1383 573.247C267.5783 556.157 279.2983 546.387 294.4383 545.407L405.2783 536.617C452.1483 533.207 484.3783 547.367 508.2983 581.547L558.1083 651.857L629.3983 620.117C645.9983 613.277 659.1783 618.167 666.5083 632.327C673.3383 646.487 667.4783 660.647 650.8783 667.477L558.1083 708.987C545.4083 713.867 531.7383 710.937 524.8983 699.707L497.5583 660.647C491.2083 651.857 481.9383 653.317 479.4883 662.597L459.9583 732.417L561.0383 798.337C572.7583 806.637 577.1483 813.967 577.1483 822.757C577.1483 832.027 574.7083 838.377 565.9183 845.217L471.6783 926.757C462.3983 934.087 454.0983 938.477 444.3383 938.477C429.1983 938.477 417.9683 924.807 417.9683 910.647C417.9683 901.857 422.8483 893.557 429.6883 887.697L499.0283 828.617L424.3183 784.667C408.6883 774.907 395.5083 779.297 389.6483 793.947L350.0983 897.457C345.6983 908.687 343.7483 911.617 335.4483 918.947L247.0683 1006.837C237.7883 1015.137 229.4883 1020.507 219.7283 1020.507Z"/>
</svg>