<?xml version="1.0" encoding="UTF-8" standalone="no"?>
<svg xmlns="http://www.w3.org/2000/svg"
     width="1043.9971280365974" height="1123.7458510477625"
     viewBox="0 0 1043.9971280365974 1123.7458510477625"
     fill="currentColor">
  <path d="M488.8201 212.8905C547.4201 212.8905 594.7801 165.5305 594.7801 105.9605C594.7801 47.3605 547.4201 0.0005 488.8201 0.0005C429.2501 0.0005 381.8901 47.3605 381.8901 105.9605C381.8901 165.5305 429.2501 212.8905 488.8201 212.8905ZM39.1101 1108.8905C57.6701 1126.9505 88.4301 1130.3705 109.9201 1108.8905L323.7801 895.5105C336.9701 882.8105 339.4101 872.5605 337.9401 853.5205L325.7401 715.8205C324.7601 707.0305 333.0601 703.1205 338.9201 708.5005L492.2401 840.3305L571.8301 1087.8905C581.1101 1116.7005 610.4001 1127.9305 635.3101 1120.6105C663.6301 1112.3005 676.8101 1083.9805 668.0201 1057.1305L585.5001 796.3905C583.0601 789.0605 578.6701 780.7605 572.8101 775.3905L407.7701 612.3005L513.7201 400.3905C518.1201 391.6005 528.8601 389.6505 536.1801 396.9705L654.8401 516.6005C660.2101 521.9705 668.0201 526.3705 675.8301 528.8105L913.6301 600.1005C933.1601 605.9605 965.8701 598.1405 976.1301 565.4305C983.9401 539.0605 968.8001 510.2505 941.9501 502.4405L716.8501 436.0305L588.4301 306.1505C559.1301 276.8505 525.4401 264.1605 485.4001 264.1605H145.5601C126.0301 264.1605 108.9401 274.9005 100.6401 291.9905L5.4201 481.4405C-6.7799 505.8605 2.0001 536.6205 27.8801 548.8305C53.7601 561.0305 83.0601 551.7605 95.7501 525.8805L176.3201 365.2305H276.9101C288.1401 365.2305 294.9701 375.9805 289.6001 386.7205L215.8701 534.6705C189.5001 586.9105 182.1801 647.9505 196.8301 705.5705L231.9901 843.7505L38.1401 1036.6205C18.6101 1055.6605 19.0901 1088.8705 39.1101 1108.8905ZM927.7901 886.7205C992.2401 886.7205 1044.0001 834.4705 1044.0001 770.5105C1044.0001 706.5405 992.2401 654.7805 927.7901 654.7805C863.8201 654.7805 812.0601 706.5405 812.0601 770.5105C812.0601 834.4705 863.8201 886.7205 927.7901 886.7205Z"/>
</svg>