<?xml version="1.0" encoding="UTF-8" standalone="no"?>
<svg xmlns="http://www.w3.org/2000/svg"
     width="1475.09765625" height="985.83984375"
     viewBox="0 0 1475.09765625 985.83984375"
     fill="currentColor">
  <path d="M208.5 192.8728C262.21 192.8728 305.18 149.9028 305.18 96.1928C305.18 42.9728 262.21 0.0028 208.5 0.0028C155.27 0.0028 112.3 42.9728 112.3 96.1928C112.3 149.9028 155.27 192.8728 208.5 192.8728ZM1266.6 192.8728C1320.31 192.8728 1363.28 149.9028 1363.28 96.1928C1363.28 42.9728 1320.31 0.0028 1266.6 0.0028C1213.38 0.0028 1170.41 42.9728 1170.41 96.1928C1170.41 149.9028 1213.38 192.8728 1266.6 192.8728ZM0 597.1728C0 618.6528 17.58 636.2328 39.06 636.2328C61.04 636.2328 78.61 618.6528 78.61 597.1728V426.2728C78.61 418.4528 84.96 412.1128 92.77 412.1128C101.07 412.1128 107.42 418.4528 107.42 426.2728V942.8728C107.42 966.7928 126.46 985.8428 150.39 985.8428C174.8 985.8428 193.85 966.7928 193.85 942.8728V628.4228C193.85 620.6028 200.68 613.7728 208.5 613.7728C216.8 613.7728 223.63 620.6028 223.63 628.4228V942.8728C223.63 966.7928 242.68 985.8428 266.6 985.8428C290.53 985.8428 310.06 966.7928 310.06 942.8728V426.2728C310.06 418.4528 316.41 412.1128 324.22 412.1128C332.03 412.1128 338.87 418.4528 338.87 426.2728V597.1728C338.87 618.6528 355.96 636.2328 377.93 636.2328C399.9 636.2328 416.99 618.6528 416.99 597.1728V406.2528C416.99 308.1028 345.7 243.6528 240.72 243.6528H176.76C71.78 243.6528 0 308.1028 0 406.2528ZM1058.11 597.1728C1058.11 618.6528 1075.68 636.2328 1097.17 636.2328C1119.14 636.2328 1136.72 618.6528 1136.72 597.1728V426.2728C1136.72 418.4528 1143.07 412.1128 1150.88 412.1128C1159.18 412.1128 1165.53 418.4528 1165.53 426.2728V942.8728C1165.53 966.7928 1184.57 985.8428 1208.5 985.8428C1232.42 985.8428 1251.95 966.7928 1251.95 942.8728V628.4228C1251.95 620.6028 1258.79 613.7728 1266.6 613.7728C1274.41 613.7728 1281.74 620.6028 1281.74 628.4228V942.8728C1281.74 966.7928 1300.78 985.8428 1324.71 985.8428C1348.63 985.8428 1367.68 966.7928 1367.68 942.8728V426.2728C1367.68 418.4528 1374.51 412.1128 1382.32 412.1128C1390.14 412.1128 1396.48 418.4528 1396.48 426.2728V597.1728C1396.48 618.6528 1414.06 636.2328 1436.04 636.2328C1458.01 636.2328 1475.1 618.6528 1475.1 597.1728V406.2528C1475.1 308.1028 1403.81 243.6528 1298.83 243.6528H1234.38C1129.88 243.6528 1058.11 308.1028 1058.11 406.2528ZM544.43 560.5428C580.08 560.5428 608.89 531.7428 608.89 496.0928C608.89 459.9628 580.08 431.6428 544.43 431.6428C508.3 431.6428 479.49 459.9628 479.49 496.0928C479.49 531.7428 508.3 560.5428 544.43 560.5428ZM738.77 560.5428C774.41 560.5428 803.22 531.7428 803.22 496.0928C803.22 459.9628 774.41 431.6428 738.77 431.6428C702.64 431.6428 674.32 459.9628 674.32 496.0928C674.32 531.7428 702.64 560.5428 738.77 560.5428ZM932.62 560.5428C968.26 560.5428 997.07 531.7428 997.07 496.0928C997.07 459.9628 968.26 431.6428 932.62 431.6428C896.48 431.6428 868.16 459.9628 868.16 496.0928C868.16 531.7428 896.48 560.5428 932.62 560.5428Z"/>
</svg>