<?xml version="1.0" encoding="UTF-8" standalone="no"?>
<svg xmlns="http://www.w3.org/2000/svg"
     width="856.4453125" height="1133.30078125"
     viewBox="0 0 856.4453125 1133.30078125"
     fill="currentColor">
  <path d="M191.4083 62.987H665.0383C662.1083 21.487 638.1883 -0.003 593.2583 -0.003H262.6983C217.7783 -0.003 194.3383 21.487 191.4083 62.987ZM106.4483 198.247H749.5083C742.1883 153.807 721.1883 129.397 672.3683 129.397H183.5983C134.7683 129.397 113.7683 153.807 106.4483 198.247ZM153.3183 1133.297H717.7783C805.1783 1133.297 856.4483 1082.517 856.4483 981.937V428.227C856.4483 327.637 804.6883 276.857 703.1283 276.857H153.3183C51.2683 276.857 -0.0017 327.147 -0.0017 428.227V981.937C-0.0017 1082.517 51.2683 1133.297 153.3183 1133.297ZM154.2983 1054.687C105.4683 1054.687 78.6183 1028.317 78.6183 977.537V432.127C78.6183 381.837 105.4683 355.467 154.2983 355.467H701.6583C749.9983 355.467 777.8283 381.837 777.8283 432.127V977.537C777.8283 1028.317 749.9983 1054.687 716.3083 1054.687ZM492.1883 531.247C525.3883 531.247 552.7383 503.907 552.7383 471.677C552.7383 437.987 525.3883 411.137 492.1883 411.137C458.4983 411.137 432.1283 437.987 432.1283 471.677C432.1283 503.907 458.4983 531.247 492.1883 531.247ZM226.0783 1011.227C236.3283 1011.227 244.1383 1005.857 252.9283 997.557L338.8683 912.597C347.1683 905.277 348.6283 902.827 353.0283 892.087L391.1183 791.507C396.9683 777.347 409.6683 773.437 424.8083 782.227L497.5583 824.707L430.1783 882.327C423.3383 888.187 418.9483 895.997 418.9483 904.787C418.9483 918.457 429.1983 931.157 444.3383 931.157C454.0983 931.157 461.4283 927.247 470.2183 919.917L562.4983 841.307C570.3083 834.477 573.2383 827.637 573.2383 819.337C573.2383 811.037 568.3583 803.707 557.1283 795.897L458.9883 731.447L478.0283 664.067C480.9583 654.787 489.7483 653.317 496.0983 662.107L521.9683 700.197C529.2983 710.937 542.4783 713.867 554.1983 708.987L644.5283 668.947C660.1583 662.107 666.5083 648.437 659.1783 634.767C652.8283 621.097 640.1383 616.207 623.5383 623.047L554.1983 653.317L506.3483 585.447C482.9083 552.247 452.1483 538.577 406.7383 541.997L298.8283 550.297C284.1783 551.267 272.9483 561.527 270.5083 577.637L257.8083 675.777C255.3683 692.867 263.6683 705.567 281.7383 706.547C295.8983 708.007 307.1283 699.707 309.5683 682.127L320.3083 604.497L361.8183 602.047C370.1183 601.567 375.4883 606.937 373.0483 615.727L300.2883 873.047L209.4683 962.887C202.6383 969.727 199.7083 976.567 199.7083 984.377C199.7083 998.047 210.4483 1011.227 226.0783 1011.227Z"/>
</svg>