<?xml version="1.0" encoding="UTF-8" standalone="no"?>
<svg xmlns="http://www.w3.org/2000/svg"
     width="812.0902572112311" height="1199.6553928665573"
     viewBox="0 0 812.0902572112311 1199.6553928665573"
     fill="currentColor">
  <path d="M405.7732 265.1333C479.5032 265.1333 538.1032 204.5933 538.1032 133.3033C538.1032 60.0633 479.5032 0.0033 405.7732 0.0033C332.0432 0.0033 274.4332 60.0633 274.4332 133.3033C274.4332 206.0533 332.0432 265.1333 405.7732 265.1333ZM606.9532 378.4133L720.2332 252.9333C739.7632 230.4733 738.2932 206.5433 719.2532 190.4333C701.6732 174.8033 678.7232 174.8033 657.7332 197.7533L530.2932 339.3533C558.6132 349.6133 584.0032 363.7733 606.9532 378.4133ZM151.3832 759.2733L530.2932 339.3533C493.1832 325.6833 452.1632 319.3333 405.7732 319.3333C235.3632 319.3333 134.2932 401.8533 134.2932 539.5533C134.2932 572.2633 136.2432 616.7033 141.1332 662.5933ZM660.6632 759.7633L670.9132 662.5933C675.7932 616.7033 677.7532 572.2633 677.7532 539.5533C677.7532 471.6833 653.8232 416.5033 606.9532 378.9033L307.1432 713.8633C339.8632 708.0033 373.0632 706.5433 405.7732 706.5433C490.2532 706.5433 574.7232 717.2833 660.6632 759.7633ZM11.2432 916.0133C28.8232 934.0833 52.7532 933.5933 73.2532 912.5933C100.6032 886.7233 127.9432 864.7433 161.6332 847.6533L151.3832 759.2733C101.0932 782.7133 57.1432 816.4033 15.6432 855.4733C-3.8868 874.0233 -4.8668 898.4333 11.2432 916.0133ZM800.7932 916.0133C816.9132 898.9233 815.9332 874.5133 796.8932 855.9533C754.8932 816.4033 710.9532 783.2033 660.6632 759.7633L650.4032 847.6533C684.0932 864.7433 711.4432 886.7233 738.7832 912.5933C759.2932 933.5933 783.2132 934.0833 800.7932 916.0133ZM259.7832 1199.2233C294.9332 1194.3333 317.8832 1169.4333 313.4932 1125.9733L289.5632 905.7633H522.4732L498.5532 1125.9733C494.1532 1169.4333 517.1032 1194.3333 551.7732 1199.2233C587.9032 1203.1233 615.7332 1180.6633 620.1332 1138.1833L650.4032 847.6533C573.2532 803.2233 487.8032 786.1333 405.7732 786.1333C324.2332 786.1333 238.7832 803.2233 161.6332 847.6533L191.9132 1138.1833C196.3032 1180.6633 224.1332 1203.1233 259.7832 1199.2233Z"/>
</svg>