<?xml version="1.0" encoding="UTF-8" standalone="no"?>
<svg xmlns="http://www.w3.org/2000/svg"
     width="1334.2758449391677" height="832.51953125"
     viewBox="0 0 1334.2758449391677 832.51953125"
     fill="currentColor">
  <path d="M223.1483 642.0947C204.0983 690.9147 222.6583 741.2147 263.1883 769.5347C329.0983 815.4347 390.6283 832.5147 488.7683 832.5147H644.5283C764.6483 832.5147 796.8783 738.2847 755.8583 659.1747L630.3683 416.9947V50.7847C630.3683 21.9747 607.9083 0.0047 578.6183 0.0047C550.2883 0.0047 528.8083 21.9747 528.8083 50.7847V429.1947C528.8083 436.0347 529.2983 441.4047 530.7583 446.2847L601.5583 648.9247H509.7683C450.6883 648.9247 416.5083 632.3247 370.1183 604.4947C357.9083 597.1647 354.4883 585.9347 359.8683 571.7747L473.6283 280.7647C483.8883 254.8847 470.6983 224.6047 444.3383 214.8447C416.9883 204.5947 388.6683 217.2847 378.4183 244.1447ZM106.9383 607.9147C165.5283 607.9147 213.3783 560.5447 213.3783 501.4647C213.3783 442.3847 165.5283 394.5347 106.9383 394.5347C47.8483 394.5347 -0.0017 442.3847 -0.0017 501.4647C-0.0017 560.5447 47.8483 607.9147 106.9383 607.9147ZM822.7583 753.4147L1003.4183 694.3347L1291.9883 642.0947C1319.8283 637.2047 1338.3783 611.8147 1333.4983 583.0047C1328.1283 555.1747 1301.7583 537.1047 1273.9283 541.9947L972.1683 596.6747L797.8483 628.4147L801.7583 635.2547C825.1983 674.3147 829.0983 717.2847 822.7583 753.4147Z"/>
</svg>