<?xml version="1.0" encoding="UTF-8" standalone="no"?>
<svg xmlns="http://www.w3.org/2000/svg"
     width="847.0122042487836" height="1186.8377197779928"
     viewBox="0 0 847.0122042487836 1186.8377197779928"
     fill="currentColor">
  <path d="M115.2527 1186.0353C142.5927 1190.9153 167.9827 1172.8553 173.3527 1144.5353L219.7427 895.0153L414.0727 789.5553C419.4527 786.1353 424.3327 787.5953 426.7727 792.9653L524.9127 1029.7853C530.7727 1042.4853 539.5627 1051.2653 550.7927 1057.1253L771.5027 1179.6853C799.3327 1195.8053 828.6327 1182.6153 840.3427 1160.6453C854.5027 1136.7153 845.2327 1104.9853 820.8127 1091.3053L615.2527 977.5353L476.0927 420.4053C467.7927 387.2053 438.9827 363.2853 403.3327 363.2853H104.9927L244.6427 66.4053C263.6827 26.3653 234.8827 -0.0047 205.5827 -0.0047C188.9827 -0.0047 172.8627 8.3053 164.5627 28.8053L3.4327 448.7353C-4.3773 468.7453 1.9627 487.3053 14.1727 499.5153L138.6827 624.5153C157.7327 643.0653 190.4427 643.0653 209.4827 624.5153L264.6627 568.8453C271.9827 561.5253 283.2127 561.5253 286.1427 572.2653L315.9327 691.8953L143.5727 821.2853C131.3627 830.5653 125.9927 845.2153 123.0627 858.8853L74.7227 1126.9553C69.8427 1153.3253 87.9027 1180.6653 115.2527 1186.0353ZM384.7827 312.0153C443.3727 312.0153 490.7327 264.6453 490.7327 205.5653C490.7327 146.9753 443.3727 99.6053 384.7827 99.6053C325.2127 99.6053 277.8427 146.9753 277.8427 205.5653C277.8427 264.6453 325.2127 312.0153 384.7827 312.0153ZM225.6027 463.8653L173.8427 515.6253L122.0827 463.8653Z"/>
</svg>