<?xml version="1.0" encoding="UTF-8" standalone="no"?>
<svg xmlns="http://www.w3.org/2000/svg"
     width="1159.66796875" height="1070.747746058629"
     viewBox="0 0 1159.66796875 1070.747746058629"
     fill="currentColor">
  <path d="M830.5683 212.8955C889.6483 212.8955 937.0083 165.0355 937.0083 106.4455C937.0083 47.3655 889.6483 -0.0045 830.5683 -0.0045C771.4883 -0.0045 724.1183 47.3655 724.1183 106.4455C724.1183 165.0355 771.4883 212.8955 830.5683 212.8955ZM205.0783 180.6655H486.8183C503.9083 180.6655 517.5783 166.5055 517.5783 148.9255C517.5783 131.3455 503.9083 116.6955 486.8183 116.6955H205.0783C187.4983 116.6955 174.3183 131.3455 174.3183 148.9255C174.3183 166.5055 187.4983 180.6655 205.0783 180.6655ZM941.4083 1039.0655C971.1883 1100.0955 1061.5283 1062.4955 1028.8083 996.0955L929.1983 794.4355C921.3883 779.2955 910.6483 762.6955 901.3683 749.5155L838.3783 660.1555L842.7783 646.9755C859.8683 596.1955 866.2083 565.9155 869.6283 515.6255L879.3983 374.5155C884.2783 307.6155 844.7283 256.8355 776.3683 256.8355C724.6083 256.8355 689.9383 282.7155 642.5783 329.1055L567.8683 402.8355C543.4583 426.7555 535.6483 446.2855 533.1983 478.0255L523.9283 593.2655C521.4883 622.5555 537.5983 643.0655 564.9383 644.0455C592.2883 645.9955 608.8883 629.8855 611.3283 598.6355L622.0683 472.1655L658.1983 439.9455C670.8983 428.2255 687.9883 436.0355 687.0083 449.2155L679.1983 556.1555C674.8083 610.3555 687.4983 636.2255 725.0983 682.6155L823.7283 806.6455C833.9883 819.3355 834.9583 824.2155 839.3583 832.0355ZM30.2783 425.2955H364.7483C382.3283 425.2955 395.5083 411.1355 395.5083 393.5555C395.5083 375.9755 382.3283 361.3255 364.7483 361.3255H30.2783C13.1883 361.3255 -0.0017 376.4655 -0.0017 393.5555C-0.0017 410.6455 13.1883 425.2955 30.2783 425.2955ZM1110.8383 447.2655H998.5383L927.2483 368.6555L918.9483 486.3255L947.2683 514.6455C962.8883 530.2755 977.0483 535.1555 1005.8583 535.1555H1110.8383C1140.6283 535.1555 1159.6683 518.5555 1159.6683 491.2155C1159.6683 464.8455 1140.1383 447.2655 1110.8383 447.2655ZM176.2683 669.9255H362.3083C379.3983 669.9255 392.5783 655.7655 392.5783 638.1855C392.5783 620.6055 379.3983 605.9555 362.3083 605.9555H176.2683C158.6883 605.9555 145.5083 620.6055 145.5083 638.1855C145.5083 655.7655 158.6883 669.9255 176.2683 669.9255ZM583.9883 1053.7155L730.4683 878.9055C745.1183 861.8155 747.0683 857.9055 752.9283 839.8455L763.6683 806.6455L685.0583 708.0055L661.6183 818.3555L516.5983 990.2355C470.6983 1045.4055 545.8983 1099.1255 583.9883 1053.7155ZM47.8483 911.6255H302.7383C319.8283 911.6255 333.0083 897.4655 333.0083 879.8855C333.0083 862.3055 319.8283 847.6555 302.7383 847.6555H47.8483C30.7583 847.6555 17.5783 862.3055 17.5783 879.8855C17.5783 897.4655 30.7583 911.6255 47.8483 911.6255Z"/>
</svg>