<?xml version="1.0" encoding="UTF-8" standalone="no"?>
<svg xmlns="http://www.w3.org/2000/svg"
     width="805.3783142753039" height="1198.73046875"
     viewBox="0 0 805.3783142753039 1198.73046875"
     fill="currentColor">
  <path d="M286.1212 213.3802C344.7212 213.3802 393.0612 165.5302 393.0612 106.9302C393.0612 48.3402 344.7212 0.0002 286.1212 0.0002C227.5312 0.0002 179.6812 48.3402 179.6812 106.9302C179.6812 165.5302 227.5312 213.3802 286.1212 213.3802ZM359.8612 958.5002C382.3212 962.4002 406.7312 951.6602 415.5212 921.8702L481.4412 701.1702C490.2312 670.9002 477.5312 645.0202 449.2112 634.7702L278.3112 573.2402L303.7012 396.4802C305.1712 386.7202 312.9812 383.7902 322.2612 387.7002L408.1912 426.7602C419.4312 432.1302 428.2112 433.5902 442.8612 435.0602L658.6812 457.0302C686.0312 459.9602 710.4412 440.4302 712.3912 413.5702C714.8412 387.2102 695.3012 362.7902 668.4512 360.3502L448.2312 338.8702L281.7312 262.2102C210.4412 229.9802 136.7112 266.1102 127.4312 337.4002L100.0912 545.4102C92.2812 606.4502 130.3612 661.6202 189.9312 675.7802L375.4812 718.2602L321.7712 894.0402C311.0312 929.6902 333.9812 954.1002 359.8612 958.5002ZM802.7312 309.5702C795.4012 294.9202 779.7812 289.5502 765.6212 296.3902C742.6712 307.6202 726.0712 316.4102 709.4612 325.2002C727.0412 334.4702 741.2012 349.1202 749.5012 366.7002C760.7312 360.3502 772.4512 354.4902 790.0312 345.2102C803.7012 338.3802 809.0712 322.7502 802.7312 309.5702ZM140.6212 1198.7302H322.2612C337.3912 1198.7302 349.6012 1187.0102 349.6012 1171.8702V1083.9802H504.3912C519.0312 1083.9802 531.2412 1071.2902 531.2412 1056.1502V968.2602H631.3412C645.9912 968.2602 658.1912 956.5402 658.6812 941.4102L675.7712 501.9502C670.8912 501.9502 667.9612 502.4402 664.0512 502.4402C649.8912 503.4202 634.7612 501.9502 621.5712 500.0002L604.9712 913.5702H504.3912C488.7612 913.5702 477.0412 924.8002 477.0412 940.4302V1029.3002H322.2612C307.1212 1029.3002 295.4012 1041.0202 295.4012 1056.1502V1144.5302H140.6212C125.4812 1144.5302 112.7812 1157.2302 112.7812 1171.8702C112.7812 1186.5202 125.9712 1198.7302 140.6212 1198.7302ZM23.9212 1112.3002C44.4312 1123.5402 73.2312 1120.6102 91.7912 1092.7702L224.1112 895.0202C229.4812 887.2102 232.4112 877.9302 234.3712 866.2102L254.8712 739.7502L180.1712 722.6602C168.4512 720.2102 157.2212 716.3102 145.9912 710.9402L136.7112 850.5902L11.2212 1038.5702C-10.2588 1071.2902 1.9412 1100.1002 23.9212 1112.3002Z"/>
</svg>