<?xml version="1.0" encoding="UTF-8" standalone="no"?>
<svg xmlns="http://www.w3.org/2000/svg"
     width="918.45703125" height="1268.06640625"
     viewBox="0 0 918.45703125 1268.06640625"
     fill="currentColor">
  <path d="M369.1383 213.3764C427.2483 213.3764 475.5883 165.0364 475.5883 106.9364C475.5883 48.3364 427.2483 -0.0036 369.1383 -0.0036C310.5483 -0.0036 262.2083 48.3364 262.2083 106.9364C262.2083 165.0364 310.5483 213.3764 369.1383 213.3764ZM432.1283 1014.6464C451.1683 1019.5264 483.3983 1012.6964 492.6783 981.4464L563.4783 746.5864C570.7983 721.1864 559.5683 695.3164 532.7183 686.0364L340.8183 619.6264L364.7483 456.0564C365.7183 446.2864 378.4183 443.8464 382.8083 453.1264L423.8283 532.7164C433.1083 550.7764 449.2183 559.5664 467.7783 559.5664H664.0583C690.9183 559.5664 713.3783 538.5764 713.3783 510.7464C713.3783 484.3764 690.9183 461.9164 664.0583 461.9164H498.0483L434.0783 335.4464C413.5783 294.4364 376.9483 265.6264 331.0583 256.8364L303.7083 251.4664C253.4183 241.6964 212.8883 252.4364 181.6383 271.9764L22.9483 370.6064C9.2783 379.8864 -0.0017 395.5064 -0.0017 413.0864V608.8864C-0.0017 635.7464 22.4583 658.6864 49.3183 658.6864C76.1683 658.6864 98.6283 635.7464 98.6283 608.8864V439.4564L166.9883 396.9764C173.3383 393.5564 180.6683 397.4564 179.1983 404.7864L156.7383 585.9364C147.9483 655.2764 170.8983 702.6364 250.4883 721.1864L454.0983 769.0464L398.9283 954.1064C391.5983 979.4964 401.3683 1005.8564 432.1283 1014.6464ZM71.7783 1191.4064C89.3583 1203.1264 121.0983 1203.1264 139.1583 1176.7564L283.6883 961.4264C290.5283 951.1764 293.9483 943.3564 295.8983 931.1564L316.4083 787.1064L239.7483 769.0464C228.0283 766.6064 217.7783 762.6964 208.0083 759.2764L197.7583 914.0664L58.1083 1123.0464C42.9683 1145.5064 48.3383 1176.2664 71.7783 1191.4064ZM266.1183 1268.0664H423.3383C438.4783 1268.0664 451.1683 1255.3664 451.1683 1240.2364V1145.9964H581.0583C595.6983 1145.9964 607.9083 1134.2764 607.9083 1118.6564V1023.9264H738.7683C753.9083 1023.9264 765.6283 1012.2064 765.6283 997.0664V902.3464H890.6283C905.7583 902.3464 918.4583 890.1364 918.4583 874.9964C918.4583 860.3564 905.7583 847.6564 890.6283 847.6564H738.7683C723.6283 847.6564 711.9183 860.3564 711.9183 874.9964V969.7264H581.0583C565.4283 969.7264 554.1983 982.4264 554.1983 997.0664V1091.7964H423.3383C408.6883 1091.7964 396.9683 1103.5164 396.9683 1118.6564V1213.8664H266.1183C250.4883 1213.8664 239.2583 1225.5864 239.2583 1240.2364C239.2583 1255.3664 250.4883 1268.0664 266.1183 1268.0664Z"/>
</svg>