<?xml version="1.0" encoding="UTF-8" standalone="no"?>
<svg xmlns="http://www.w3.org/2000/svg"
     width="1063.2940364325216" height="1234.6439107193542"
     viewBox="0 0 1063.2940364325216 1234.6439107193542"
     fill="currentColor">
  <path d="M531.7383 31.2139C485.8383 -15.1761 431.1483 -12.7361 359.8683 58.0639C320.3083 98.5939 299.3183 180.1339 286.6183 238.2439L214.3583 310.9939C191.8983 333.4539 196.7783 364.2139 216.7983 384.2339L360.8383 527.7939C370.1183 536.0939 381.8383 541.4639 395.5083 541.4639H493.1683C496.5783 541.4639 498.0483 546.8339 495.1183 548.2939L393.5583 599.0839C307.1283 641.5639 287.1083 756.3039 374.9983 821.2439L555.6683 953.0839L450.6883 1163.0439C438.4783 1187.4639 448.2383 1217.7339 472.1683 1229.4539C494.6283 1240.6839 524.8983 1233.8439 538.5783 1207.4739L659.6683 965.2939C669.4383 945.2739 671.3883 920.8539 649.4183 898.8839L503.9083 753.8639L693.3583 659.6239C702.6383 654.7439 712.8883 656.6939 719.2383 663.5339L979.4883 923.2939C999.0283 942.8339 1031.2483 941.8539 1048.8283 923.2939C1067.8683 903.7639 1068.3583 873.0039 1048.8283 853.4739L665.0383 469.6839C647.9483 452.5939 629.8783 442.8339 605.9583 442.8339H416.0183L287.5983 314.4139L325.6883 276.3239C383.7883 264.1239 465.8183 243.1239 504.8783 203.0839C576.6583 132.2839 579.0983 77.1039 531.7383 31.2139ZM494.1383 69.7839C519.5283 94.6839 511.2283 119.5839 466.7983 164.9939C438.9683 192.3439 386.7183 205.0339 347.1683 216.7539C357.9083 176.2239 371.0983 124.9639 398.9283 96.6339C443.8483 51.7139 467.7783 44.3939 494.1383 69.7839ZM806.6383 491.1739C865.7183 491.1739 913.5783 443.3139 913.5783 384.2339C913.5783 325.1539 865.7183 277.3039 806.6383 277.3039C747.5583 277.3039 700.1983 325.1539 700.1983 384.2339C700.1983 443.3139 747.5583 491.1739 806.6383 491.1739ZM49.3183 1036.5839H296.8783C317.8683 1036.5839 334.9583 1021.4439 343.7483 1003.3739L396.9683 897.4239L346.1883 859.8239C328.1283 846.6339 313.4783 831.5039 301.7583 815.3839L260.7383 937.4639H49.3183C22.4583 937.4639 -0.0017 959.9239 -0.0017 986.7739C-0.0017 1015.0939 22.4583 1036.5839 49.3183 1036.5839Z"/>
</svg>