<?xml version="1.0" encoding="UTF-8" standalone="no"?>
<svg xmlns="http://www.w3.org/2000/svg"
     width="1089.132033079149" height="1123.53515625"
     viewBox="0 0 1089.132033079149 1123.53515625"
     fill="currentColor">
  <path d="M528.9304 212.4025C588.0104 212.4025 635.8604 164.0625 635.8604 106.4425C635.8604 47.3625 588.0104 0.0025 528.9304 0.0025C470.3404 0.0025 422.9704 47.3625 422.9704 106.4425C422.9704 164.0625 470.3404 212.4025 528.9304 212.4025ZM149.0504 1006.3525C122.6804 1032.7125 128.5404 1064.9425 148.0704 1082.5225C165.6504 1098.1425 195.9204 1101.5625 220.3404 1077.1525L406.3704 891.1125C410.2804 887.2025 411.7404 885.7425 415.1604 879.3925L506.9604 707.0325C520.1404 681.6425 556.2704 680.6625 578.7404 697.2625L786.7404 854.9825V1069.8225C786.7404 1103.0225 807.2504 1123.5325 837.5204 1123.5325C867.8004 1123.5325 888.3104 1103.0225 888.3104 1069.8225V830.5625C888.3104 815.9225 882.4504 803.2225 869.2604 791.5025L634.8904 590.3325V371.5825C634.8904 359.3725 643.1904 349.6125 657.8404 347.1725L1046.5104 288.0825C1073.8504 283.6925 1092.9004 257.3225 1088.5004 229.9825C1084.5904 202.6325 1058.7204 183.5925 1031.3704 187.9925L256.9604 305.1725V186.0325C284.7904 173.8325 309.6904 156.7425 328.2504 135.7425C340.9404 121.5825 340.9404 103.0225 328.2504 88.3825C290.6504 45.9025 226.6804 19.0425 169.0704 19.0425C111.9404 19.0425 47.9704 45.9025 9.8904 88.3825C-3.2996 103.0225 -3.2996 121.5825 9.8904 136.2325C45.0404 175.2925 102.6604 201.1725 156.3704 204.5925V364.2625C156.3704 395.9925 182.2504 418.4525 214.4804 413.5725L381.9604 388.1825C397.0904 385.7425 408.3204 395.5125 408.3204 410.6425V608.4025L327.7604 827.6325Z"/>
</svg>