<?xml version="1.0" encoding="UTF-8" standalone="no"?>
<svg xmlns="http://www.w3.org/2000/svg"
     width="950.9187948426465" height="1083.0078125"
     viewBox="0 0 950.9187948426465 1083.0078125"
     fill="currentColor">
  <path d="M-0.0017 1042.4803C-0.0017 1064.9403 18.5583 1083.0103 40.5283 1083.0103C62.9883 1083.0103 81.5383 1064.9403 81.5383 1042.4803V40.5303C81.5383 18.0703 62.9883 0.0003 40.5283 0.0003C18.5583 0.0003 -0.0017 18.0703 -0.0017 40.5303ZM622.5583 214.3603C681.6383 214.3603 729.0083 166.5003 729.0083 107.9103C729.0083 48.8303 681.6383 1.4603 622.5583 1.4603C563.4783 1.4603 516.1183 48.8303 516.1183 107.9103C516.1183 166.5003 563.4783 214.3603 622.5583 214.3603ZM511.7183 1040.5303L613.7683 833.5003C618.1683 825.6803 619.1383 820.8003 629.3983 808.1103L728.0283 684.0803C765.6283 637.6903 778.3183 611.8203 773.9283 557.6203L766.1183 450.6803C765.1383 437.5003 782.2283 429.6903 794.9183 441.4103L831.0583 473.6303L841.7983 600.1003C844.2383 631.3503 860.8383 647.4603 888.1883 645.5103C915.0383 644.5303 931.6383 624.0203 929.1983 594.7303L919.9183 479.4903C917.4783 447.7503 909.6683 428.2203 885.2583 404.3003L810.5483 330.5703C763.1883 284.1803 728.5183 258.3003 676.7583 258.3003C608.3983 258.3003 568.8483 309.0803 573.7283 375.9803L583.4983 517.0903C586.9183 567.3803 593.2583 597.6603 610.3483 648.4403L614.7483 661.6203L551.7583 750.9803C541.9883 764.1603 531.7383 780.7603 523.9283 795.9003L424.3183 997.5603C391.5983 1063.9603 481.4483 1101.5603 511.7183 1040.5303ZM342.2883 448.7303C312.9883 448.7303 293.4583 466.3103 293.4583 492.6803C293.4583 520.0203 312.4983 536.6203 342.2883 536.6203H447.2683C476.0783 536.6203 490.2383 531.7403 505.8583 516.1103L534.1783 487.7903L525.8783 370.1203L454.5883 448.7303ZM869.1383 1055.1803C907.2283 1100.5903 982.4183 1046.8703 936.5283 991.7003L791.5083 819.8203L768.0683 709.4703L689.4483 808.1103L700.1983 841.3103C706.0583 859.3703 708.0083 863.2803 722.6583 880.3703Z"/>
</svg>