<?xml version="1.0" encoding="UTF-8" standalone="no"?>
<svg xmlns="http://www.w3.org/2000/svg"
     width="1069.3976598119623" height="967.7734375"
     viewBox="0 0 1069.3976598119623 967.7734375"
     fill="currentColor">
  <path d="M710.0837 213.3741C769.1637 213.3741 816.5337 166.0141 816.5337 106.9341C816.5337 47.8541 769.1637 0.0041 710.0837 0.0041C651.0037 0.0041 603.1537 47.8541 603.1537 106.9341C603.1537 166.0141 651.0037 213.3741 710.0837 213.3741ZM327.7637 853.0241C350.7137 867.1841 383.9137 859.8641 398.5637 836.4241L518.6837 644.0441L649.0537 651.3641L567.5037 781.7341C551.8837 806.1541 558.7237 838.8641 583.6237 853.0241C608.0337 867.1841 639.2837 860.3541 653.9337 836.4241L780.4037 634.2741C800.9037 600.5841 783.8137 558.1041 737.4337 553.2241L524.0537 529.2941C503.5437 526.8541 495.2437 504.8841 505.9837 489.7441L594.3637 356.9341C599.7337 348.1441 610.4737 346.1941 619.2637 351.0741L942.9937 545.8941C966.9237 560.0541 999.6337 552.7341 1013.3137 528.8041C1026.9837 503.9041 1019.6537 472.6541 995.2437 458.0041L355.5937 73.7341C347.2937 69.3341 338.5037 67.3841 329.7137 67.3841H124.6337C95.8237 67.3841 72.8837 89.8441 72.8837 117.6741C72.8837 145.9941 95.8237 168.9441 124.6337 168.9441H315.0637L404.4237 222.6541C414.1837 228.0241 416.6337 239.7441 410.7737 249.5141L299.9337 415.5241C239.8737 504.3941 289.1837 624.0241 401.4937 637.6941L311.1637 781.7341C296.0237 806.1541 302.8637 837.8941 327.7637 853.0241ZM145.6337 967.7741H923.9537C978.6437 967.7741 1023.0737 956.5441 1057.7437 926.7541C1072.3937 914.5541 1071.9037 898.9241 1063.6037 888.1841C1055.3037 876.9541 1038.2137 872.5541 1023.0737 884.2741C996.7037 905.2741 969.8537 913.5741 923.9537 913.5741H145.6337C99.7337 913.5741 72.8837 905.2741 46.5137 884.2741C32.3537 873.5341 17.2137 875.9741 8.4237 885.2541C-2.3163 895.9941 -4.2663 913.0841 11.3537 926.7541C46.5137 956.5441 90.9437 967.7741 145.6337 967.7741Z"/>
</svg>