<?xml version="1.0" encoding="UTF-8" standalone="no"?>
<svg xmlns="http://www.w3.org/2000/svg"
     width="970.1441852110289" height="981.842041015625"
     viewBox="0 0 970.1441852110289 981.842041015625"
     fill="currentColor">
  <path d="M838.3128 265.6217C911.5528 265.6217 970.1428 204.5917 970.1428 133.7917C970.1428 60.0617 911.5528 0.0017 838.3128 0.0017C764.5828 0.0017 705.4928 60.0617 705.4928 133.7917C705.4928 206.0517 764.5828 265.6217 838.3128 265.6217ZM309.0128 158.2017L188.4028 20.9917C171.8028 2.4417 148.8528 2.4417 132.7428 20.9917L11.6528 158.2017C-11.7872 184.0817 1.3928 222.1717 39.9728 222.1717H122.0028V466.3117C122.0028 487.7917 138.6028 504.3917 159.5928 504.3917C181.5728 504.3917 198.1728 487.7917 198.1728 466.3117V222.1717H281.1828C317.8028 222.1717 333.4228 185.5517 309.0128 158.2017ZM51.6828 963.3817C77.0828 990.2317 120.5328 987.7917 151.7828 956.0517L361.7428 739.2617C369.0728 731.9317 373.4628 729.9817 384.2028 734.3717L548.2728 796.3817C653.7428 836.9117 752.8628 802.2417 799.2428 718.2617L904.7128 526.3717C946.2228 451.1717 932.5428 374.5117 861.7428 336.4217C792.9028 298.3417 721.1228 327.1517 679.6128 403.8117L542.4128 653.3217L426.2028 610.8417C369.0728 589.8417 320.7328 596.6817 274.3428 644.5317L56.0828 870.1217C26.2928 901.3717 28.7428 940.4317 51.6828 963.3817Z"/>
</svg>