<?xml version="1.0" encoding="UTF-8" standalone="no"?>
<svg xmlns="http://www.w3.org/2000/svg"
     width="735.3165192626333" height="1145.5078125"
     viewBox="0 0 735.3165192626333 1145.5078125"
     fill="currentColor">
  <path d="M306.1132 212.403C364.7132 212.403 412.5632 164.553 412.5632 106.443C412.5632 47.853 364.7132 0.003 306.1132 0.003C247.5232 0.003 199.6732 47.853 199.6732 106.443C199.6732 164.553 247.5232 212.403 306.1132 212.403ZM23.8932 462.893C-33.7268 542.973 17.0532 651.363 131.3132 634.273L310.5132 607.423L241.1732 813.473C217.7432 881.833 313.4432 910.153 334.9232 845.703L427.2132 565.913C438.4432 532.223 417.4432 499.023 377.8932 499.023H201.1332L293.9132 375.493C303.1832 362.793 309.0432 361.333 321.2532 361.333H686.4932C713.3432 361.333 735.3132 339.843 735.3132 312.503C735.3132 285.643 713.8332 263.673 686.4932 263.673H222.1332C187.9532 263.673 154.7532 281.253 133.2632 310.543ZM66.8632 1108.403C66.8632 1130.863 82.4832 1145.503 105.4332 1145.503H471.6432C494.5932 1145.503 509.7332 1130.863 509.7332 1108.403V961.423C509.7332 939.453 494.5932 924.803 471.6432 924.803H105.4332C82.4832 924.803 66.8632 939.453 66.8632 961.423Z"/>
</svg>