<?xml version="1.0" encoding="UTF-8" standalone="no"?>
<svg xmlns="http://www.w3.org/2000/svg"
     width="656.2666047902707" height="1187.01171875"
     viewBox="0 0 656.2666047902707 1187.01171875"
     fill="currentColor">
  <path d="M245.1183 213.3791C303.7083 213.3791 352.0483 165.0391 352.0483 106.4491C352.0483 48.3391 303.7083 -0.0009 245.1183 -0.0009C186.5283 -0.0009 138.6683 48.3391 138.6683 106.4491C138.6683 165.0391 186.5283 213.3791 245.1183 213.3791ZM499.0283 988.2791C519.5283 978.5191 532.7183 954.5891 519.5283 921.3891L433.5983 706.0591C431.1483 699.2191 426.2683 693.8491 415.5283 686.0391L258.2983 569.8291L270.0183 396.4891C270.5083 386.7191 277.8283 383.7891 287.1083 386.7191L389.1583 421.3891C398.9283 424.3191 411.1283 425.7791 421.8783 424.3191L611.3283 403.3191C678.7083 395.5091 666.5083 297.3591 600.0983 304.6891L416.5083 325.6791L229.4883 263.6691C161.1283 240.7191 102.0483 279.2991 96.1883 347.6591L82.5183 518.5591C78.1283 569.8291 104.9783 619.6291 148.9283 645.0191L348.6283 760.7391L427.7383 958.0091C441.4083 992.6791 475.5883 999.9991 499.0283 988.2791ZM420.4083 1142.5791L611.8183 1079.0991C625.9783 1074.2191 633.2983 1064.4491 633.2983 1047.8491V446.7791C627.4383 448.2391 621.0983 449.7091 614.2583 450.6791L579.0983 454.5891V1032.7191L404.2983 1090.8191C385.2583 1097.6591 380.3683 1114.2591 385.7383 1127.4391C389.6483 1139.1591 402.8283 1148.4391 420.4083 1142.5791ZM41.9883 1076.1691C62.0083 1085.4491 87.3983 1082.5191 104.9783 1056.6391L234.3783 863.7691C238.2783 857.4191 241.6983 848.6291 242.1883 837.8891L247.5583 750.9791L136.7183 686.5191L143.0683 822.7491L23.9283 1001.4691C2.9283 1033.6891 18.0683 1064.9391 41.9883 1076.1691ZM26.8583 1187.0091H227.0483C242.1883 1187.0091 254.8783 1174.3191 254.8783 1159.6691C254.8783 1144.5291 242.1883 1132.8091 227.0483 1132.8091H26.8583C11.7183 1132.8091 -0.0017 1144.5291 -0.0017 1159.6691C-0.0017 1174.3191 11.7183 1187.0091 26.8583 1187.0091Z"/>
</svg>