<?xml version="1.0" encoding="UTF-8" standalone="no"?>
<svg xmlns="http://www.w3.org/2000/svg"
     width="936.0419472655801" height="989.654541015625"
     viewBox="0 0 936.0419472655801 989.654541015625"
     fill="currentColor">
  <path d="M291.0251 495.6042C428.7151 495.6042 536.6251 381.8342 536.6251 249.5142C536.6251 111.3242 428.7151 0.0042 291.0251 0.0042C152.8351 0.0042 41.9951 111.3242 41.9951 249.5142C41.9951 381.8342 152.8351 495.6042 291.0251 495.6042ZM804.2051 273.4342C877.4451 273.4342 936.0451 212.4042 936.0451 141.6042C936.0451 67.8742 877.4451 7.8142 804.2051 7.8142C730.4751 7.8142 671.3951 67.8742 671.3951 141.6042C671.3951 213.8642 730.4751 273.4342 804.2051 273.4342ZM719.2451 779.2942C740.7251 762.2042 761.2351 733.3942 780.7651 697.2642L870.6151 534.1842C912.1151 458.9842 898.4451 382.3242 827.6451 344.2342C758.3051 306.1542 687.5051 335.4442 645.5151 411.6242L552.7451 579.1042ZM17.5851 971.1942C42.9751 998.0442 86.4351 995.6042 117.6851 963.8642L327.6451 747.0742C334.9651 739.7442 339.3651 737.7942 350.1051 742.1842L527.3551 809.0842C565.9251 823.7342 607.9151 820.8042 638.6751 814.9442L516.6051 664.0642L392.0951 618.6542C334.9651 597.6542 286.6251 604.4942 240.2451 652.3442L21.9751 877.9342C-7.8049 909.1842 -5.3649 948.2442 17.5851 971.1942ZM824.7151 977.0542C844.7351 961.4242 846.1951 937.0142 827.1551 914.0642L719.2451 779.2942C694.3451 796.8742 666.9951 809.0842 638.6751 814.9442L763.1951 967.7742C781.2551 989.7442 804.2051 994.1442 824.7151 977.0542Z"/>
</svg>