<?xml version="1.0" encoding="UTF-8" standalone="no"?>
<svg xmlns="http://www.w3.org/2000/svg"
     width="996.09375" height="996.09375"
     viewBox="0 0 996.09375 996.09375"
     fill="currentColor">
  <path d="M498.0477 996.0959C770.5077 996.0959 996.0977 770.0159 996.0977 498.0459C996.0977 225.5859 770.0177 -0.0041 497.5577 -0.0041C225.5877 -0.0041 -0.0023 225.5859 -0.0023 498.0459C-0.0023 770.0159 226.0777 996.0959 498.0477 996.0959ZM208.4977 481.4459C205.5677 462.8859 213.3777 449.2159 232.9077 439.9459L268.0677 422.8559C351.0777 383.7859 415.5277 355.4659 461.4277 337.4059L504.3977 319.8259L535.1577 214.3559C547.3677 171.3859 606.9377 187.9859 594.2377 231.4459L560.5477 346.6759C556.1477 362.3059 541.0177 367.1859 527.8277 373.5359L477.5377 396.4859C473.1477 398.9259 471.6777 401.3659 473.6377 405.7659L532.2277 525.8759C535.1577 531.2459 541.0177 532.7159 547.3677 529.2959L615.2377 488.2859C631.3477 478.5159 647.4577 478.0259 665.0377 485.8359L808.1077 551.2659C855.9577 573.7259 822.2677 633.7859 783.2077 615.2359L649.8977 551.7559L551.2677 609.3759C544.9177 612.7959 544.9177 620.1159 550.2977 624.0259L697.2677 736.8159C736.3277 766.6059 695.3077 817.8759 659.1777 791.5059L465.8177 650.3859C451.6577 639.6459 436.0377 627.9259 417.4777 591.7959L355.9577 469.7259C354.0077 464.8459 350.5877 463.3759 344.7277 465.3359L274.4177 493.1659L289.5477 589.8459C295.8977 633.7859 235.8377 644.0459 229.0077 599.6059ZM339.3577 354.0059C301.2677 354.0059 270.0177 322.7559 270.0177 284.1759C270.0177 244.1359 300.7777 212.4059 339.3577 212.4059C378.9077 212.4059 410.6477 244.1359 410.6477 284.1759C410.6477 322.2659 378.4177 354.0059 339.3577 354.0059Z"/>
</svg>