<?xml version="1.0" encoding="UTF-8" standalone="no"?>
<svg xmlns="http://www.w3.org/2000/svg"
     width="1217.5542366184404" height="1088.8671875"
     viewBox="0 0 1217.5542366184404 1088.8671875"
     fill="currentColor">
  <path d="M328.1469 210.4486C386.7369 210.4486 433.6169 164.0586 433.6169 105.4686C433.6169 46.8786 386.7369 -0.0014 328.1469 -0.0014C269.5469 -0.0014 222.6769 46.8786 222.6769 105.4686C222.6769 164.0586 269.5469 210.4486 328.1469 210.4486ZM889.6669 210.4486C948.2569 210.4486 995.1369 164.0586 995.1369 105.4686C995.1369 46.8786 948.2569 -0.0014 889.6669 -0.0014C831.0769 -0.0014 784.1969 46.8786 784.1969 105.4686C784.1969 164.0586 831.0769 210.4486 889.6669 210.4486ZM328.1469 683.1086C348.1669 683.1086 355.9769 696.7786 367.2069 731.9286C383.8069 781.2486 433.1269 985.8386 449.7269 1045.8986C458.0269 1076.1686 473.6469 1088.8686 496.5969 1088.8686C527.8469 1088.8686 546.8969 1060.5486 538.1069 1029.7886C534.6869 1016.5986 463.8869 720.6986 453.6369 659.6686C445.3269 605.9586 443.3769 497.5586 443.3769 446.2886C443.3769 438.4786 452.1669 435.5486 457.0469 442.3786C493.6669 493.6486 560.5669 589.3586 573.7469 604.9786C583.0269 615.2386 595.7169 620.6086 608.9069 620.1186C621.5969 620.6086 634.2969 615.7186 643.5769 604.9786C656.7569 589.3586 723.6469 494.1386 760.7569 442.3786C765.1569 436.0386 774.4369 438.4786 774.4369 446.7786C774.4369 498.0486 771.9869 605.9586 763.6869 659.6686C753.9269 720.6986 683.1269 1016.5986 679.7069 1029.7886C670.4269 1060.5486 689.9569 1088.8686 721.2069 1088.8686C744.1569 1088.8686 759.2969 1076.1686 767.5969 1045.8986C784.1969 985.8386 834.0069 781.2486 850.1169 731.9286C861.3469 696.7786 869.6469 683.1086 889.6669 683.1086C909.1969 683.1086 917.4969 696.7786 928.7269 731.9286C944.8469 781.2486 994.6469 985.8386 1011.2469 1045.8986C1019.5469 1076.1686 1035.1769 1088.8686 1058.1269 1088.8686C1089.3769 1088.8686 1108.4169 1060.5486 1099.6269 1029.7886C1095.7169 1016.5986 1024.9169 720.6986 1015.1569 659.6686C1006.8569 605.9586 1004.4169 497.5586 1004.4169 446.2886C1004.4169 438.4786 1013.6869 435.5486 1018.0869 442.3786C1055.1969 493.6486 1122.0869 589.3586 1135.2769 604.9786C1149.9169 621.5786 1172.8669 624.5086 1192.3969 613.7686C1217.3069 600.5886 1223.1669 573.7286 1212.4169 555.1786C1208.5169 547.8486 1203.6369 540.5286 1198.2569 533.1986L1072.2869 347.1686C1031.7569 288.0886 982.4369 261.7186 889.6669 261.7186C796.8969 261.7186 747.0869 288.0886 707.0469 347.1686L608.9069 491.6986L510.7569 347.1686C470.7169 288.0886 420.9169 261.7186 328.1469 261.7186C235.3669 261.7186 185.5669 288.0886 145.5269 347.1686L19.0569 533.1986C14.1769 540.5286 8.8069 547.8486 4.8969 555.1786C-5.3531 573.7286 0.0169 600.5886 25.4069 613.7686C44.4569 624.5086 67.8869 621.5786 82.0469 604.9786C95.2369 589.3586 162.6169 494.1386 199.2369 442.3786C203.6369 436.0386 212.9069 438.4786 212.9069 446.7786C212.9069 498.0486 210.4669 605.9586 202.1669 659.6686C192.3969 720.6986 121.5969 1016.5986 118.1869 1029.7886C109.3969 1060.5486 128.4369 1088.8686 159.6869 1088.8686C182.6369 1088.8686 198.2569 1076.1686 206.5569 1045.8986C223.1669 985.8386 272.4769 781.2486 289.0769 731.9286C300.3069 696.7786 308.1269 683.1086 328.1469 683.1086Z"/>
</svg>