<?xml version="1.0" encoding="UTF-8" standalone="no"?>
<svg xmlns="http://www.w3.org/2000/svg"
     width="1027.83203125" height="1079.58984375"
     viewBox="0 0 1027.83203125 1079.58984375"
     fill="currentColor">
  <path d="M205.5683 62.9847H821.7783C818.8483 21.4847 795.4083 0.0047 749.9983 0.0047H276.8583C231.9383 0.0047 208.4983 21.4847 205.5683 62.9847ZM104.9783 198.2447H922.3683C915.0383 153.8047 894.0383 129.3947 845.2183 129.3947H182.1283C133.2983 129.3947 112.3083 153.8047 104.9783 198.2447ZM88.3783 1079.5947H938.9683C993.6483 1079.5947 1027.8283 1045.4147 1027.8283 992.6747V364.2547C1027.8283 311.5247 993.6483 276.8547 938.9683 276.8547H88.3783C34.1783 276.8547 -0.0017 311.5247 -0.0017 364.2547V992.6747C-0.0017 1045.4147 34.1783 1079.5947 88.3783 1079.5947ZM87.3983 439.4547C74.2183 439.4547 65.9183 430.6647 65.9183 419.4347V370.1147C65.9183 356.4447 74.7083 347.1647 88.8683 347.1647H143.5583C156.2483 347.1647 164.0583 355.9547 164.0583 368.6547V419.4347C164.0583 430.6647 156.2483 439.4547 143.5583 439.4547ZM246.0983 643.0647C234.3783 643.0647 226.5583 636.2347 226.5583 623.0447V367.1847C226.5583 354.4947 234.3783 347.1647 246.0983 347.1647H781.2483C793.4583 347.1647 801.2683 354.4947 801.2683 367.1847V623.0447C801.2683 636.2347 793.4583 643.0647 781.2483 643.0647ZM883.7883 439.4547C872.0683 439.4547 863.7683 430.6647 863.7683 419.4347V368.6547C863.7683 355.9547 872.0683 347.1647 883.7883 347.1647H938.9683C953.1283 347.1647 961.9183 356.4447 961.9183 370.1147V419.4347C961.9183 430.6647 953.1283 439.4547 940.4283 439.4547ZM87.3983 583.4947C74.2183 583.4947 65.9183 574.2147 65.9183 563.9647V513.1847C65.9183 501.4647 73.7283 492.1847 87.3983 492.1847H143.5583C156.2483 492.1847 164.0583 501.4647 164.0583 513.1847V563.9647C164.0583 574.2147 156.2483 583.4947 143.5583 583.4947ZM883.7883 583.4947C872.0683 583.4947 863.7683 574.2147 863.7683 563.9647V513.1847C863.7683 501.4647 872.0683 492.1847 883.7883 492.1847H940.4283C953.6183 492.1847 961.9183 501.4647 961.9183 513.1847V563.9647C961.9183 574.2147 953.1283 583.4947 940.4283 583.4947ZM87.3983 724.6047C74.2183 724.6047 65.9183 714.8447 65.9183 703.1247V654.7847C65.9183 641.1147 73.7283 632.3247 87.3983 632.3247H143.5583C156.2483 632.3247 164.0583 641.1147 164.0583 654.7847V703.1247C164.0583 714.8447 156.2483 724.6047 143.5583 724.6047ZM883.7883 724.6047C872.0683 724.6047 863.7683 714.8447 863.7683 703.1247V654.7847C863.7683 641.1147 872.0683 632.3247 883.7883 632.3247H940.4283C953.6183 632.3247 961.9183 641.1147 961.9183 654.7847V703.1247C961.9183 714.8447 953.1283 724.6047 940.4283 724.6047ZM246.0983 1009.2747C234.3783 1009.2747 226.5583 1001.4647 226.5583 989.2547V734.8647C226.5583 722.1647 234.3783 714.8447 246.0983 714.8447H781.2483C793.4583 714.8447 801.2683 722.1647 801.2683 734.8647V989.2547C801.2683 1001.4647 793.4583 1009.2747 781.2483 1009.2747ZM87.3983 864.7447C74.2183 864.7447 65.9183 855.4647 65.9183 844.7247V794.9247C65.9183 782.2247 73.7283 773.9247 87.3983 773.9247H143.5583C156.2483 773.9247 164.0583 782.2247 164.0583 794.9247V844.7247C164.0583 855.4647 156.2483 864.7447 143.5583 864.7447ZM883.7883 864.7447C872.0683 864.7447 863.7683 855.4647 863.7683 844.7247V794.9247C863.7683 782.2247 872.0683 773.9247 883.7883 773.9247H940.4283C953.6183 773.9247 961.9183 782.2247 961.9183 794.9247V844.7247C961.9183 855.4647 953.1283 864.7447 940.4283 864.7447ZM88.8683 1009.2747C74.7083 1009.2747 65.9183 1000.0047 65.9183 986.8147V937.9847C65.9183 925.2947 74.2183 916.9947 87.3983 916.9947H143.5583C156.2483 916.9947 164.0583 925.2947 164.0583 937.9847V988.7647C164.0583 1000.4847 156.2483 1009.2747 143.5583 1009.2747ZM883.7883 1009.2747C872.0683 1009.2747 863.7683 1000.4847 863.7683 988.7647V937.9847C863.7683 925.2947 872.0683 916.9947 883.7883 916.9947H940.4283C953.1283 916.9947 961.9183 925.2947 961.9183 937.9847V986.8147C961.9183 1000.0047 953.1283 1009.2747 938.9683 1009.2747Z"/>
</svg>