<?xml version="1.0" encoding="UTF-8" standalone="no"?>
<svg xmlns="http://www.w3.org/2000/svg"
     width="1116.2109375" height="979.4921875"
     viewBox="0 0 1116.2109375 979.4921875"
     fill="currentColor">
  <path d="M51.7583 211.9117H1064.4483C1095.2183 211.9117 1116.2083 190.9217 1116.2083 159.6717V51.2717C1116.2083 20.9917 1095.2183 0.0017 1064.4483 0.0017H51.7583C20.9983 0.0017 -0.0017 20.9917 -0.0017 51.2717V159.6717C-0.0017 190.9217 20.9983 211.9117 51.7583 211.9117ZM41.0183 979.4917H1075.1983C1096.6783 979.4917 1114.7483 961.4217 1114.7483 939.9417C1114.7483 918.4617 1096.6783 900.8817 1075.1983 900.8817H1003.9083V268.5517H112.3083V900.8817H41.0183C19.5283 900.8817 1.4683 918.4617 1.4683 939.9417C1.4683 961.4217 19.5283 979.4917 41.0183 979.4917ZM273.9283 900.8817V428.7117C273.9283 386.2317 300.2883 360.3517 342.2883 360.3517H773.9283C815.9183 360.3517 842.2883 386.2317 842.2883 428.7117V900.8817H780.7583V446.2917C780.7583 430.6617 771.4883 421.3817 756.3483 421.3817H359.8683C344.7283 421.3817 335.4483 430.6617 335.4483 446.2917V900.8817ZM552.7383 851.0717C478.0283 851.0717 428.2183 808.1017 428.2183 742.1917C428.2183 685.0617 455.0783 664.0617 455.0783 624.0217C455.0783 618.1617 454.5883 609.8617 454.5883 605.9617C454.5883 600.1017 458.4983 596.1917 464.3583 596.1917C478.5183 596.1917 496.0983 608.4017 504.8783 625.9717C506.3483 587.4017 488.7683 559.5717 468.7483 533.6917C457.5183 519.0417 466.3083 506.3517 487.7883 506.3517C572.2683 506.3517 693.3583 565.9217 693.3583 708.9817C693.3583 794.4317 637.6983 851.0717 552.7383 851.0717ZM557.6183 806.1517C595.2183 806.1517 613.2783 778.8117 613.2783 747.0717C613.2783 707.0317 584.4683 674.3117 558.5983 664.5517C563.4783 693.3617 558.1083 715.3317 549.3183 728.5117C544.9183 717.7717 539.5483 709.4717 531.2483 703.6117C527.8283 723.6317 507.8083 733.4017 507.8083 761.2317C507.8083 788.5717 527.8283 806.1517 557.6183 806.1517Z"/>
</svg>