<?xml version="1.0" encoding="UTF-8" standalone="no"?>
<svg xmlns="http://www.w3.org/2000/svg"
     width="996.09375" height="996.09375"
     viewBox="0 0 996.09375 996.09375"
     fill="currentColor">
  <path d="M498.0477 996.0977C770.5077 996.0977 996.0977 770.5077 996.0977 498.0477C996.0977 226.0777 770.0177 -0.0023 497.5577 -0.0023C225.5877 -0.0023 -0.0023 226.0777 -0.0023 498.0477C-0.0023 770.5077 226.0777 996.0977 498.0477 996.0977ZM194.3377 627.9277C189.9377 579.5877 211.9177 527.8277 246.0977 498.0477C211.9177 466.7977 188.9677 415.5277 194.3377 367.1877C194.8277 358.3977 201.1677 353.5177 210.9377 353.5177C266.1177 353.5177 312.0077 380.3677 352.0477 427.7377C384.7677 395.0177 420.8977 373.0477 459.4777 358.8877C455.5677 335.9377 447.7577 319.3377 427.2477 291.9877C418.9477 281.2477 419.9177 272.9477 429.6877 268.0677C520.9977 217.7777 649.4177 262.6977 678.2277 359.8677C757.8077 387.2077 828.1277 437.4977 828.1277 498.0477C828.1277 561.0377 751.9577 612.7977 668.4577 638.6677C635.2577 687.0077 571.7777 727.5377 514.6477 736.8177C495.1177 739.7477 485.8377 730.4677 487.7977 713.3777L496.0977 647.9477C444.3377 636.2277 395.0177 610.8377 352.0477 568.3577C312.0077 615.7177 266.1177 641.1177 210.9377 642.0877C201.1677 642.0877 194.8277 637.6977 194.3377 627.9277ZM707.0277 514.6477C722.1677 514.6477 733.8877 503.4177 733.8877 487.7977C733.8877 472.6577 722.1677 460.9377 707.0277 460.9377C691.8977 460.9377 680.1777 472.6577 680.1777 487.7977C680.1777 503.4177 691.8977 514.6477 707.0277 514.6477Z"/>
</svg>