<?xml version="1.0" encoding="UTF-8" standalone="no"?>
<svg xmlns="http://www.w3.org/2000/svg"
     width="867.1875" height="958.0078125"
     viewBox="0 0 867.1875 958.0078125"
     fill="currentColor">
  <path d="M37.108 958.0047C57.618 958.0047 74.218 941.8947 74.218 921.3847V649.9047C86.428 644.5347 132.328 626.9547 204.098 626.9547C384.768 626.9547 498.048 715.3347 669.918 715.3347C746.098 715.3347 774.418 707.0347 811.528 690.4247C845.218 675.2947 867.188 649.9047 867.188 604.9847V109.3747C867.188 83.0047 844.728 67.8747 816.408 67.8747C792.478 67.8747 747.558 88.3747 663.578 88.3747C491.698 88.3747 378.908 0.0047 197.758 0.0047C121.578 0.0047 92.778 8.3047 55.668 24.9047C21.968 40.0347 -0.002 65.4247 -0.002 109.8647V921.3847C-0.002 941.4047 17.088 958.0047 37.108 958.0047ZM74.218 426.7547V261.2347C81.058 245.1147 121.578 222.6547 197.758 222.6547C213.378 222.6547 234.868 223.6347 251.958 225.5847V76.6647C317.868 83.4947 375.978 102.5347 435.548 120.1147V269.0447C496.098 287.5947 552.738 303.2247 618.648 309.0847V160.1547C633.298 161.6247 647.948 162.1047 663.578 162.1047C716.798 162.1047 760.738 155.7647 793.458 146.4847V295.4147C769.048 302.2447 722.168 311.0347 663.578 311.0347C648.438 311.0347 632.808 310.0547 618.648 309.0847V474.6047C632.808 476.0747 646.488 476.5647 663.578 476.5647C716.798 476.5647 760.738 470.2147 793.458 460.9347V603.0247C786.618 619.1447 746.098 641.6047 669.918 641.6047C652.348 641.6047 635.258 640.6247 618.648 638.6747V474.6047C552.738 467.2847 498.048 455.0747 435.548 434.5747V594.2347C378.908 577.1447 320.308 560.5447 251.958 554.6847V391.1147C233.398 389.1647 220.708 388.1847 197.758 388.1847C121.578 388.1847 81.058 410.6447 74.218 426.7547ZM251.958 391.1147C319.338 398.4347 370.608 415.5247 435.548 434.5747V269.0447C374.508 250.9747 319.828 232.4247 251.958 225.5847Z"/>
</svg>