<?xml version="1.0" encoding="UTF-8" standalone="no"?>
<svg xmlns="http://www.w3.org/2000/svg"
     width="1744.051283784536" height="1009.0256563063796"
     viewBox="0 0 1744.051283784536 1009.0256563063796"
     fill="currentColor">
  <path d="M905.7615 418.0602L948.2415 491.3002L965.3315 461.5202C988.2815 470.3102 1023.9315 482.5102 1063.9715 504.9702C1182.1315 573.8202 1228.5215 682.2202 1350.5915 753.0202C1385.7415 774.0202 1423.8315 789.1502 1452.6415 792.5702C1487.7915 795.9902 1518.5615 785.2502 1540.5315 747.1602L1737.3115 406.8302C1752.4415 379.9702 1740.7215 355.5602 1715.8215 340.9102C1694.3415 328.7002 1648.9315 317.4702 1597.1715 287.6902C1478.5215 219.3302 1432.6215 110.4402 1310.5515 39.6402C1275.3915 19.1302 1236.8215 4.0002 1208.5015 0.5802C1173.3415 -2.8398 1142.5815 8.3902 1120.6115 46.4802ZM1147.9515 953.2202L623.5415 46.4802C601.5615 8.3902 570.8015 -2.8398 535.6515 0.5802C506.8415 4.0002 468.7515 19.1302 433.6015 39.6402C311.5315 110.4402 265.1415 219.3302 146.4915 287.6902C94.7315 317.4702 49.8115 328.7002 28.3215 340.9102C2.9315 355.5602 -8.2985 379.9702 6.8415 406.8302L203.1315 747.1602C225.1015 785.2502 256.3515 795.9902 291.0215 792.5702C319.8315 789.1502 358.4015 774.0202 393.0715 753.0202C515.6315 682.2202 561.5315 573.8202 680.1815 504.9702C719.7315 482.5102 755.8615 470.3102 778.8115 461.5202L1083.9915 990.3302C1094.2415 1008.3902 1116.2115 1014.2502 1134.2815 1004.0002C1151.3715 993.7402 1157.7215 970.7902 1147.9515 953.2202ZM838.3815 681.7302L795.4115 608.0002L596.1915 953.2202C585.9415 970.7902 592.7815 993.7402 609.8715 1004.0002C627.9315 1014.2502 649.9015 1008.3902 659.6715 990.3302Z"/>
</svg>