<?xml version="1.0" encoding="UTF-8" standalone="no"?>
<svg xmlns="http://www.w3.org/2000/svg"
     width="898.92578125" height="898.92578125"
     viewBox="0 0 898.92578125 898.92578125"
     fill="currentColor">
  <path d="M153.3183 898.9295H745.6083C848.1483 898.9295 898.9283 848.1495 898.9283 747.5595V151.3695C898.9283 50.7795 848.1483 -0.0005 745.6083 -0.0005H153.3183C51.2683 -0.0005 -0.0017 50.2895 -0.0017 151.3695V747.5595C-0.0017 848.6295 51.2683 898.9295 153.3183 898.9295ZM258.2983 719.2395C246.0983 719.2395 234.8683 708.0095 234.8683 695.7995V273.4395C234.8683 251.9495 245.1183 235.8395 265.6283 226.5595C283.6883 218.2595 299.8083 213.8695 338.8683 213.8695C429.1983 213.8695 486.8183 258.7895 571.7783 258.7895C613.2783 258.7895 635.2583 248.0495 649.8983 248.0495C670.4083 248.0495 678.2183 258.7895 678.2183 273.4395V521.4795C678.2183 544.4295 668.4583 559.0795 647.4583 568.8495C628.9083 577.6395 612.7883 581.5395 574.2183 581.5395C487.3083 581.5395 430.6683 537.5995 341.3083 537.5995C310.5483 537.5995 290.5283 543.4595 281.2483 547.3595V695.7995C281.2483 708.4995 271.9683 719.2395 258.2983 719.2395Z"/>
</svg>