<?xml version="1.0" encoding="UTF-8" standalone="no"?>
<svg xmlns="http://www.w3.org/2000/svg"
     width="867.1875" height="958.0078125"
     viewBox="0 0 867.1875 958.0078125"
     fill="currentColor">
  <path d="M37.108 958.0047C57.618 958.0047 74.218 941.8947 74.218 921.3847V649.9047C86.428 644.5347 132.328 626.9547 204.098 626.9547C384.768 626.9547 498.048 715.3347 669.918 715.3347C746.098 715.3347 774.418 707.0347 811.528 690.4247C845.218 675.2947 867.188 649.9047 867.188 604.9847V109.3747C867.188 83.0047 844.728 67.8747 816.408 67.8747C792.478 67.8747 747.558 88.3747 663.578 88.3747C491.698 88.3747 378.908 0.0047 197.758 0.0047C121.578 0.0047 92.778 8.3047 55.668 24.9047C21.968 40.0347 -0.002 65.4247 -0.002 109.8647V921.3847C-0.002 941.4047 17.088 958.0047 37.108 958.0047ZM669.918 641.6047C507.328 641.6047 392.088 553.2247 204.098 553.2247C150.388 553.2247 101.558 559.5747 74.218 570.8047V112.3047C81.058 96.1947 121.578 73.7347 197.758 73.7347C369.628 73.7347 484.378 162.1047 663.578 162.1047C716.798 162.1047 760.738 155.7647 793.458 146.4847V603.0247C786.618 619.1447 746.098 641.6047 669.918 641.6047Z"/>
</svg>