<?xml version="1.0" encoding="UTF-8" standalone="no"?>
<svg xmlns="http://www.w3.org/2000/svg"
     width="996.09375" height="996.09375"
     viewBox="0 0 996.09375 996.09375"
     fill="currentColor">
  <path d="M498.0477 996.0977C770.5077 996.0977 996.0977 770.5077 996.0977 498.0477C996.0977 226.0777 770.0177 -0.0023 497.5577 -0.0023C225.5877 -0.0023 -0.0023 226.0777 -0.0023 498.0477C-0.0023 770.5077 226.0777 996.0977 498.0477 996.0977ZM306.6377 768.5577C293.9477 768.5577 282.7177 757.8077 282.7177 745.1177V322.7577C282.7177 301.2677 293.4577 285.6477 313.9677 276.3677C332.0277 267.5777 347.6577 263.1877 387.2077 263.1877C477.5377 263.1877 534.6677 308.1077 620.1177 308.1077C661.6177 308.1077 683.5977 297.3677 698.2377 297.3677C718.7477 297.3677 726.5577 308.1077 726.5577 323.2377V570.7977C726.5577 593.7477 716.7977 608.3977 695.7977 618.6477C676.7577 626.9577 661.1377 630.8577 622.5577 630.8577C535.6477 630.8577 479.0077 586.9177 389.6477 586.9177C358.3977 586.9177 338.8677 592.7777 329.0977 596.6777V745.1177C329.0977 758.2977 320.3077 768.5577 306.6377 768.5577ZM321.7777 482.4177C325.6877 473.6377 346.1877 462.8877 384.7677 462.8877C396.9777 462.8877 403.8077 463.3777 412.5977 464.3577V547.3677C446.7777 550.2977 477.0477 558.5977 505.8577 567.3877V485.8377C537.5977 496.5777 565.9177 502.9277 599.6077 506.3477V589.3577C606.9377 591.3077 615.7277 591.7977 625.4877 591.7977C664.0577 591.7977 684.5677 580.0777 688.4777 571.2877V499.5077C670.8977 504.3977 648.9277 507.3277 622.0677 507.3277C613.2777 507.3277 605.9577 506.8377 599.6077 506.3477V421.8777C605.9577 422.3677 613.7677 422.8477 622.0677 422.8477C651.3677 422.8477 675.2977 418.4577 688.4777 415.0377V339.3577C670.8977 344.2377 648.9277 347.6577 622.0677 347.6577C614.2577 347.6577 606.4477 347.6577 599.6077 346.6777V421.8777C565.9177 419.4377 536.6177 411.1377 505.8577 401.8577V326.6577C475.5877 316.8977 445.7977 307.6177 412.5977 304.1977V380.3677C403.8077 378.4177 393.0677 377.9277 384.7677 377.9277C346.1877 377.9277 325.6877 389.6477 321.7777 397.9477ZM412.5977 464.3577V380.3677C446.7777 383.2977 474.6077 392.5777 505.8577 401.8577V485.8377C472.6577 476.0777 446.7777 467.7777 412.5977 464.3577Z"/>
</svg>