<?xml version="1.0" encoding="UTF-8" standalone="no"?>
<svg xmlns="http://www.w3.org/2000/svg"
     width="996.09375" height="996.09375"
     viewBox="0 0 996.09375 996.09375"
     fill="currentColor">
  <path d="M498.0477 996.0959C770.5077 996.0959 996.0977 770.0159 996.0977 498.0459C996.0977 225.5859 770.0177 -0.0041 497.5577 -0.0041C225.5877 -0.0041 -0.0023 225.5859 -0.0023 498.0459C-0.0023 770.0159 226.0777 996.0959 498.0477 996.0959ZM498.0477 913.0859C267.5777 913.0859 83.4977 728.5159 83.4977 498.0459C83.4977 267.5759 267.0877 83.0059 497.5577 83.0059C728.0277 83.0059 913.0877 267.5759 913.0877 498.0459C913.0877 728.5159 728.5177 913.0859 498.0477 913.0859ZM312.0077 760.7459C325.1977 760.7459 333.9877 750.4859 333.9877 738.2859V594.2359C343.2577 590.3359 362.3077 584.4759 392.5777 584.4759C479.4877 584.4759 534.1777 627.4459 618.6477 627.4459C655.7577 627.4459 670.8977 623.5359 689.4577 614.7459C709.9577 605.4659 719.2377 591.3059 719.2377 569.3359V328.6159C719.2377 314.4559 711.9177 304.1959 691.8977 304.1959C677.7377 304.1959 656.2477 314.4559 616.2077 314.4559C533.2077 314.4559 478.0277 270.9959 390.1377 270.9959C352.0477 270.9959 336.9177 275.3859 319.3377 283.2059C299.3177 291.9959 289.0577 307.6159 289.0577 328.6159V738.2859C289.0577 749.9959 299.8077 760.7459 312.0077 760.7459ZM326.6577 482.9059V401.3659C330.5677 393.5559 350.5877 382.3259 388.1877 382.3259C395.9977 382.3259 406.2477 382.8159 414.5477 383.7859V310.5459C447.2677 313.4759 476.0777 322.7559 505.3677 332.0359V405.2759C535.1577 414.5459 563.4777 421.8759 596.1877 424.8059V351.5659C603.0277 352.0459 610.3477 352.0459 618.1677 352.0459C644.0477 352.0459 666.0177 349.6059 682.6177 344.7259V417.9659C669.9177 421.3859 646.4877 425.7859 618.1677 425.7859C609.8677 425.7859 602.5377 425.2959 596.1877 424.8059V506.8359C602.5377 507.3259 609.3777 507.8159 618.1677 507.8159C644.0477 507.8159 666.0177 504.8859 682.6177 499.9959V569.8259C678.7077 578.1259 658.6877 589.3559 621.0977 589.3559C611.8177 589.3559 603.5177 588.8659 596.1877 587.4059V506.8359C563.4777 503.4159 536.1377 497.0659 505.3677 486.8159V565.9159C477.5377 557.1259 448.2377 548.8259 414.5477 546.3859V465.8159C406.2477 464.8459 399.8977 463.8659 388.1877 463.8659C350.5877 463.8659 330.5677 475.0959 326.6577 482.9059ZM414.5477 465.8159C448.2377 469.2359 473.1477 477.5359 505.3677 486.8159V405.2759C475.0977 395.9959 448.2377 387.2059 414.5477 383.7859Z"/>
</svg>