<?xml version="1.0" encoding="UTF-8" standalone="no"?>
<svg xmlns="http://www.w3.org/2000/svg"
     width="1744.051283784536" height="1009.0256563063796"
     viewBox="0 0 1744.051283784536 1009.0256563063796"
     fill="currentColor">
  <path d="M905.7615 418.0602L948.2415 491.3002L965.3315 461.5202C988.2815 470.3102 1023.9315 482.5102 1063.9715 504.9702C1182.1315 573.8202 1228.5215 682.2202 1350.5915 753.0202C1385.7415 774.0202 1423.8315 789.1502 1452.6415 792.5702C1487.7915 795.9902 1518.5615 785.2502 1540.5315 747.1602L1737.3115 406.8302C1752.4415 379.9702 1740.7215 355.5602 1715.8215 340.9102C1694.3415 328.7002 1648.9315 317.4702 1597.1715 287.6902C1478.5215 219.3302 1432.6215 110.4402 1310.5515 39.6402C1275.3915 19.1302 1236.8215 4.0002 1208.5015 0.5802C1173.3415 -2.8398 1142.5815 8.3902 1120.6115 46.4802ZM1134.2815 1004.0002C1151.3715 993.7402 1157.7215 970.7902 1147.9515 953.2202L623.5415 46.4802C601.5615 8.3902 570.8015 -2.8398 535.6515 0.5802C506.8415 4.0002 468.7515 19.1302 433.6015 39.6402C311.5315 110.4402 265.1415 219.3302 146.4915 287.6902C94.7315 317.4702 49.8115 328.7002 28.3215 340.9102C2.9315 355.5602 -8.2985 379.9702 6.8415 406.8302L203.1315 747.1602C225.1015 785.2502 256.3515 795.9902 291.0215 792.5702C319.8315 789.1502 358.4015 774.0202 393.0715 753.0202C515.6315 682.2202 561.5315 573.8202 680.1815 504.9702C719.7315 482.5102 755.8615 470.3102 778.8115 461.5202L1083.9915 990.3302C1094.2415 1008.3902 1116.2115 1014.2502 1134.2815 1004.0002ZM488.7715 231.5402L430.6715 129.4902C442.8715 120.7002 456.5415 111.9102 470.2215 103.6102C482.9115 96.2802 519.5315 75.2902 554.6915 73.8202L616.2115 180.7602C598.6315 177.3402 566.4115 183.6902 525.8815 207.1202C515.6315 213.4702 500.9815 223.2402 488.7715 231.5402ZM1127.9315 180.7602L1189.4515 73.8202C1224.6115 75.2902 1260.7415 96.2802 1273.4415 103.6102C1287.6015 111.9102 1300.7815 120.7002 1312.9915 129.4902L1254.8815 231.5402C1243.1715 223.2402 1228.5215 213.4702 1217.7815 207.1202C1177.2515 183.6902 1145.5115 177.3402 1127.9315 180.7602ZM445.8015 450.2902L378.9115 334.5602C414.5515 297.9402 444.8315 263.2802 488.7715 231.5402L556.1515 346.2802C512.7015 378.5102 483.4015 411.2202 445.8015 450.2902ZM1187.9915 346.2802L1254.8815 231.5402C1299.3215 263.2802 1329.5915 297.9402 1364.7515 334.5602L1298.3415 450.2902C1260.7415 411.2202 1231.4515 378.5102 1187.9915 346.2802ZM268.0715 436.6102L209.9615 335.5402C255.3715 305.2702 289.5515 270.6002 321.7815 235.9302L378.9115 334.5602C344.7315 372.1602 311.0415 406.3402 268.0715 436.6102ZM1364.7515 334.5602L1422.3715 235.9302C1454.5915 270.6002 1488.7715 305.2702 1534.1815 335.5402L1476.0815 436.6102C1433.1115 406.3402 1399.4215 372.1602 1364.7515 334.5602ZM1003.9115 395.1102L1061.5315 295.9902C1078.6215 293.0602 1110.3515 299.4102 1151.3715 322.8502C1167.4815 331.6302 1175.7815 337.4902 1187.9915 346.2802L1124.5115 455.6602C1116.7015 450.2902 1108.8915 445.8902 1100.5915 441.0102C1073.2415 425.3802 1035.6515 403.9002 1003.9115 395.1102ZM619.1415 455.6602L556.1515 346.2802C568.3615 337.4902 576.6615 331.6302 592.2915 322.8502C633.7915 299.4102 665.5315 293.0602 682.6215 295.9902L740.2415 395.1102C708.5015 403.9002 670.9015 425.3802 643.0715 441.0102C634.7715 445.8902 626.9515 450.2902 619.1415 455.6602ZM209.9615 611.4202L143.5615 496.1902C163.5815 490.8102 198.2415 478.6102 237.3115 455.6602C248.0515 449.8002 257.8115 442.4702 268.0715 436.6102L334.4715 551.8502C325.2015 558.6902 315.9215 564.0602 303.7115 570.8902C268.0715 591.4002 236.8215 604.5802 209.9615 611.4202ZM1409.6715 551.8502L1476.0815 436.6102C1486.3315 442.4702 1496.1015 449.8002 1506.8415 455.6602C1545.9015 478.6102 1580.5715 490.8102 1600.5915 496.1902L1534.1815 611.4202C1507.3315 604.5802 1475.5915 591.4002 1440.4315 570.8902C1428.2215 564.0602 1418.9515 558.6902 1409.6715 551.8502ZM397.9515 661.7102L334.4715 551.8502C377.4415 520.1102 410.6515 489.3502 445.8015 450.2902L506.3515 555.7602C472.1715 592.8602 439.4515 630.4602 397.9515 661.7102ZM1237.3115 555.7602L1298.3415 450.2902C1333.5015 489.3502 1366.2115 520.1102 1409.6715 551.8502L1346.1915 661.7102C1304.6915 630.4602 1271.9715 592.8602 1237.3115 555.7602ZM609.8715 1004.0002C627.9315 1014.2502 649.9015 1008.3902 659.6715 990.3302L838.3815 681.7302L795.4115 608.0002L596.1915 953.2202C585.9415 970.7902 592.7815 993.7402 609.8715 1004.0002Z"/>
</svg>