<?xml version="1.0" encoding="UTF-8" standalone="no"?>
<svg xmlns="http://www.w3.org/2000/svg"
     width="996.09375" height="996.09375"
     viewBox="0 0 996.09375 996.09375"
     fill="currentColor">
  <path d="M498.0477 996.0959C770.5077 996.0959 996.0977 770.0159 996.0977 498.0459C996.0977 225.5859 770.0177 -0.0041 497.5577 -0.0041C225.5877 -0.0041 -0.0023 225.5859 -0.0023 498.0459C-0.0023 770.0159 226.0777 996.0959 498.0477 996.0959ZM609.3777 708.0059C599.1177 713.8659 586.4277 710.9359 580.5677 699.7059L456.5477 485.8359C447.2677 489.7459 435.0577 493.6559 421.3877 501.9559C374.5077 528.3159 354.9777 573.7259 302.2477 604.0059C288.0877 612.7959 270.5077 621.5859 252.4377 621.5859C235.3477 621.5859 223.6377 613.7659 215.3277 598.6359L134.2777 458.9859C125.4877 444.3359 132.8077 430.1759 145.9977 422.8559C154.7877 417.9659 172.8477 413.0859 194.3377 400.3859C242.1877 373.0459 260.7377 329.1059 313.4777 298.3359C328.6177 289.5459 345.7077 281.7359 359.3777 281.7359C374.9977 281.7359 389.6477 285.6459 400.3877 303.2259L617.1877 678.7059C623.0477 688.9659 619.6277 702.1459 609.3777 708.0059ZM741.2077 621.5859C723.1477 621.5859 706.0577 612.7959 691.4077 604.0059C640.6277 575.1959 607.9077 512.6959 550.2977 490.7259L517.5777 435.0559L593.7477 303.7059C604.0077 285.6459 619.1377 281.7359 634.7677 281.7359C648.4377 281.7359 665.0377 289.5459 680.6677 298.3359C733.3977 329.1059 751.4677 373.0459 799.8077 400.3859C820.7977 413.0859 839.3577 417.9659 848.1477 422.8559C861.3277 430.6659 868.6477 444.3359 859.8677 458.9859L778.8077 598.6359C770.0177 613.7659 758.7877 621.5859 741.2077 621.5859ZM384.7677 708.0059C374.0277 702.1459 371.0977 688.9659 376.9577 678.7059L452.1477 549.3159L476.5577 591.3059L413.5777 699.7059C407.7177 710.9359 395.0177 714.3559 384.7677 708.0059Z"/>
</svg>