<?xml version="1.0" encoding="UTF-8" standalone="no"?>
<svg xmlns="http://www.w3.org/2000/svg"
     width="813.4765625" height="1056.15234375"
     viewBox="0 0 813.4765625 1056.15234375"
     fill="currentColor">
  <path d="M383.7877 1056.1547C641.5977 1056.1547 813.4777 881.8347 813.4777 619.1447C813.4777 182.1247 441.4077 0.0047 183.1077 0.0047C137.2077 0.0047 107.9077 16.1147 107.9077 47.3647C107.9077 59.5747 113.2777 72.2647 123.5377 83.9847C181.6377 153.3247 239.7477 235.8447 240.7277 332.0347C240.7277 344.2347 239.7477 355.9547 236.3277 368.6547C209.4777 311.5247 159.1777 273.4347 114.2577 273.4347C94.2377 273.4347 80.5677 288.0847 80.5677 310.0547C80.5677 322.7547 83.9877 352.5347 83.9877 374.0247C83.9877 483.3947 -0.0023 547.3647 -0.0023 723.6347C-0.0023 923.3447 152.8277 1056.1547 383.7877 1056.1547ZM395.0177 918.9447C303.7077 918.9447 243.1677 863.7647 243.1677 781.7347C243.1677 695.8047 304.1977 665.0347 312.0077 609.8647C312.9877 605.4647 315.9177 604.0047 319.3377 606.9347C341.7977 626.9547 356.4477 651.3647 368.6477 679.6847C394.5277 644.5347 406.7377 570.3147 398.4377 490.2347C397.9477 485.8447 400.8777 483.3947 405.2777 484.8647C512.2077 535.1547 567.8677 641.6047 567.8677 736.8147C567.8677 833.4947 511.2277 918.9447 395.0177 918.9447Z"/>
</svg>