<?xml version="1.0" encoding="UTF-8" standalone="no"?>
<svg xmlns="http://www.w3.org/2000/svg"
     width="813.4765625" height="1056.15234375"
     viewBox="0 0 813.4765625 1056.15234375"
     fill="currentColor">
  <path d="M383.7877 1056.1547C641.5977 1056.1547 813.4777 881.8347 813.4777 619.1447C813.4777 182.1247 441.4077 0.0047 183.1077 0.0047C137.2077 0.0047 107.9077 16.1147 107.9077 47.3647C107.9077 59.5747 113.2777 72.2647 123.5377 83.9847C181.6377 153.3247 239.7477 235.8447 240.7277 332.0347C240.7277 344.2347 239.7477 355.9547 236.3277 368.6547C209.4777 311.5247 159.1777 273.4347 114.2577 273.4347C94.2377 273.4347 80.5677 288.0847 80.5677 310.0547C80.5677 322.7547 83.9877 352.5347 83.9877 374.0247C83.9877 483.3947 -0.0023 547.3647 -0.0023 723.6347C-0.0023 923.3447 152.8277 1056.1547 383.7877 1056.1547ZM388.6677 987.7947C197.2677 987.7947 68.8477 881.3447 68.8477 723.6347C68.8477 563.4747 155.2777 509.2747 155.2777 382.3247C155.2777 375.9747 155.2777 370.1147 154.2977 364.2547C184.0777 389.6447 205.5677 429.1947 218.7477 485.3547C220.7077 495.6047 226.5577 500.4847 233.8877 500.4847C273.4377 500.4847 301.7577 402.3447 301.7577 340.3347C301.7577 236.8147 260.2577 137.6947 191.8977 65.9147C525.8777 85.4447 741.6977 313.9647 741.6977 616.6947C741.6977 838.3747 600.0977 987.7947 388.6677 987.7947ZM395.0177 918.9447C511.2277 918.9447 567.8677 833.4947 567.8677 736.8147C567.8677 641.6047 512.2077 535.1547 405.2777 484.8647C400.8777 483.3947 397.9477 485.8447 398.4377 490.2347C406.7377 570.3147 394.5277 644.5347 368.6477 679.6847C356.4477 651.3647 341.7977 626.9547 319.3377 606.9347C315.9177 604.0047 312.9877 605.4647 312.0077 609.8647C304.1977 665.0347 243.1677 695.8047 243.1677 781.7347C243.1677 863.7647 303.7077 918.9447 395.0177 918.9447Z"/>
</svg>