<?xml version="1.0" encoding="UTF-8" standalone="no"?>
<svg xmlns="http://www.w3.org/2000/svg"
     width="494.140625" height="1093.26171875"
     viewBox="0 0 494.140625 1093.26171875"
     fill="currentColor">
  <path d="M-0.0017 114.2606H494.1383V90.8206C494.1383 29.3006 463.8683 0.0006 405.2783 0.0006H88.8683C30.2783 0.0006 -0.0017 29.3006 -0.0017 90.8206ZM188.4783 1093.2606H305.6683C364.2583 1093.2606 394.0383 1063.9606 394.0383 1002.4406V483.8906C394.0383 432.6206 406.2483 395.5106 424.8083 367.1906L456.5383 320.3106C479.0083 285.6406 494.1383 252.9306 494.1383 211.4306V171.3906H-0.0017V211.4306C-0.0017 252.9306 15.1383 285.6406 37.5983 320.3106L68.8483 367.1906C87.8883 395.5106 99.6083 432.6206 99.6083 483.8906V1002.4406C99.6083 1063.9606 129.8783 1093.2606 188.4783 1093.2606ZM247.0683 445.3106C286.6183 445.3106 312.9883 474.6106 312.9883 515.6206V649.4106C312.9883 689.4506 286.6183 717.2806 247.0683 717.7706C207.0283 718.2606 181.1483 690.4306 181.1483 649.4106V515.6206C181.1483 474.6106 207.0283 445.3106 247.0683 445.3106ZM247.0683 479.9806C225.0983 479.9806 206.5383 498.0506 206.5383 520.0206C206.5383 541.5006 225.0983 560.0606 247.0683 560.0606C268.5583 560.0606 287.1083 541.5006 287.1083 520.0206C287.1083 498.0506 268.5583 479.9806 247.0683 479.9806Z"/>
</svg>