<?xml version="1.0" encoding="UTF-8" standalone="no"?>
<svg xmlns="http://www.w3.org/2000/svg"
     width="935.546875" height="1073.73046875"
     viewBox="0 0 935.546875 1073.73046875"
     fill="currentColor">
  <path d="M83.9883 625.9742C83.9883 842.2842 243.1683 1073.7342 560.0583 1073.7342C696.7783 1073.7342 801.2683 1009.2742 801.2683 928.2242C801.2683 890.1342 774.4183 861.3242 723.1483 855.4642C709.9583 853.5142 696.7783 858.8842 694.3383 875.0042C686.0383 942.3842 639.6483 990.2342 577.1483 990.2342C532.7183 990.2342 505.3683 963.8642 505.3683 929.6842C505.3683 814.9442 845.6983 790.0342 845.6983 573.7342C845.6983 467.2842 770.5083 393.5542 670.4083 393.5542C612.3083 393.5542 562.0083 414.0642 524.4183 448.2442C543.4583 390.6242 573.2383 340.8242 596.1883 289.5542C641.1183 307.6142 689.4483 318.8442 742.6783 318.8442C865.2383 318.8442 935.5483 242.1842 935.5483 143.5542C935.5483 110.8442 927.2483 74.7042 909.6683 41.0142C888.1883 -0.4858 824.2183 26.8542 848.1483 72.7542C861.8183 99.1242 869.1383 125.9742 869.1383 149.9042C869.1383 210.4442 825.6883 250.0042 742.6783 250.0042C699.7083 250.0042 659.1783 239.2542 619.6283 222.1642C624.9983 201.1742 628.4183 178.7142 628.4183 154.7842C628.4183 69.3342 569.3383 0.0042 491.2083 0.0042C438.9683 0.0042 394.5283 29.7842 374.9983 74.2142C319.8283 42.4842 263.1883 19.5342 202.1483 19.5342C75.6883 19.5342 -0.0017 103.0242 -0.0017 200.6842C-0.0017 232.4242 7.3283 264.6442 23.9283 296.3842C45.4083 337.4042 108.3983 309.0842 85.4483 264.6442C72.7583 240.2342 66.8983 216.3042 66.8983 194.8242C66.8983 133.7842 114.7483 88.3742 202.1483 88.3742C305.6683 88.3742 406.7383 190.4342 531.7383 258.7842C508.7883 309.5742 477.0483 364.2542 457.0283 433.5942C432.1283 372.5542 375.9783 339.8442 312.0083 339.8442C163.5783 339.8442 83.9883 471.1942 83.9883 625.9742ZM491.2083 68.8442C531.2483 68.8442 559.5683 103.5142 559.5683 154.7842C559.5683 166.5042 558.1083 178.2242 555.6683 189.4542C514.6483 165.5242 474.1183 137.2042 433.5983 110.3542C442.8683 84.4742 463.3783 68.8442 491.2083 68.8442ZM157.7183 625.9742C157.7183 492.6742 214.3583 413.5742 306.6383 413.5742C385.7383 413.5742 431.6383 484.3742 434.5683 574.2142C435.5483 608.3942 477.5383 609.3742 489.2583 585.9342C529.7883 506.8342 599.6083 467.2842 668.9483 467.2842C729.4883 467.2842 771.9683 509.7642 771.9683 578.6142C771.9683 739.2542 433.1083 760.2542 433.1083 929.6842C433.1083 952.6342 441.8983 974.1242 457.0283 990.7242C255.8583 951.6642 157.7183 795.4142 157.7183 625.9742Z"/>
</svg>