<?xml version="1.0" encoding="UTF-8" standalone="no"?>
<svg xmlns="http://www.w3.org/2000/svg"
     width="898.92578125" height="898.92578125"
     viewBox="0 0 898.92578125 898.92578125"
     fill="currentColor">
  <path d="M153.3183 898.9295H745.6083C848.1483 898.9295 898.9283 848.1495 898.9283 747.5595V151.3695C898.9283 50.7795 848.1483 -0.0005 745.6083 -0.0005H153.3183C51.2683 -0.0005 -0.0017 50.2895 -0.0017 151.3695V747.5595C-0.0017 848.6295 51.2683 898.9295 153.3183 898.9295ZM329.5883 691.4095C308.1083 691.4095 291.5083 689.9395 279.2983 684.5695C262.2083 678.7095 253.9083 667.9695 253.9083 653.3195C253.9083 638.1795 264.6483 626.4695 282.7183 626.4695C289.0583 626.4695 292.9683 626.9495 297.3683 627.9295C305.6683 629.3895 311.5283 631.3495 326.6583 631.3495C371.0983 631.3495 391.5983 610.3495 400.3883 559.5695L416.0183 463.3795H322.7583C306.1483 463.3795 295.4083 453.1295 295.4083 437.4995C295.4083 420.4095 306.1483 409.6695 322.7583 409.6695H423.8283L437.0083 327.1495C450.6883 243.6495 493.1683 203.1295 569.8283 203.1295C590.8183 203.1295 607.9083 205.0795 620.1183 209.9595C637.2083 215.8195 645.5083 227.0495 645.5083 241.2095C645.5083 256.3495 634.7683 268.0695 616.6983 268.0695C610.3483 268.0695 606.4483 267.5795 602.0483 266.5995C593.7483 265.1395 587.8883 263.6695 572.7583 263.6695C528.3183 263.6695 507.8083 284.1795 499.5083 333.0095L487.7883 409.6695H584.4683C602.0483 409.6695 612.3083 420.4095 612.3083 437.4995C612.3083 453.1295 602.0483 463.3795 584.4683 463.3795H479.0083L462.3983 567.8695C448.7283 651.3695 406.2483 691.4095 329.5883 691.4095Z"/>
</svg>