<?xml version="1.0" encoding="UTF-8" standalone="no"?>
<svg xmlns="http://www.w3.org/2000/svg"
     width="716.796875" height="892.578125"
     viewBox="0 0 716.796875 892.578125"
     fill="currentColor">
  <path d="M129.8783 892.5781C267.0883 892.5781 341.7983 820.3081 365.7183 669.9181L399.4183 458.9881H615.7183C638.1883 458.9881 652.3483 445.7981 652.3483 424.3181C652.3483 401.8581 638.1883 387.6981 615.7183 387.6981H411.1283L437.0083 224.6081C453.1283 125.9781 502.4383 82.0281 594.2383 82.0281C627.9283 82.0281 656.2483 89.3581 677.2483 91.3081C691.4083 91.7981 701.6583 87.8881 708.4983 80.0781C713.8683 75.1981 716.7983 67.3781 716.7983 58.1081C716.7983 36.6181 701.6583 21.9681 677.7383 13.1881C656.7383 5.3681 624.0283 -0.0019 588.3783 -0.0019C451.1683 -0.0019 371.0983 73.7281 347.6583 218.2581L320.3083 387.6981H116.6983C93.7483 387.6981 79.5883 401.8581 79.5883 424.3181C79.5883 445.3081 93.7483 458.9881 116.6983 458.9881H309.0783L276.8583 659.6681C259.7683 765.1381 215.3283 809.5681 122.0683 809.5681C104.4883 809.5681 87.8883 806.6381 78.6183 804.6881C64.9383 801.7581 51.7583 799.3181 39.0583 799.3181C14.1583 799.3181 -0.0017 814.4581 -0.0017 834.9581C-0.0017 856.4481 13.1883 871.5781 37.5983 879.8781C60.5483 888.1881 91.3083 892.5781 129.8783 892.5781Z"/>
</svg>