<?xml version="1.0" encoding="UTF-8" standalone="no"?>
<svg xmlns="http://www.w3.org/2000/svg"
     width="996.09375" height="996.09375"
     viewBox="0 0 996.09375 996.09375"
     fill="currentColor">
  <path d="M498.0477 996.0959C770.5077 996.0959 996.0977 770.0159 996.0977 498.0459C996.0977 225.5859 770.0177 -0.0041 497.5577 -0.0041C225.5877 -0.0041 -0.0023 225.5859 -0.0023 498.0459C-0.0023 770.0159 226.0777 996.0959 498.0477 996.0959ZM377.9277 740.7259C356.4477 740.7259 339.8477 739.2559 327.6377 733.8859C310.5477 728.0259 302.2477 717.2859 302.2477 702.6359C302.2477 687.4959 312.9877 675.7859 331.0577 675.7859C337.3977 675.7859 341.3077 676.2659 345.7077 677.2459C354.0077 678.7059 359.8677 680.6659 374.9977 680.6659C419.4377 680.6659 439.9377 659.6659 448.7277 608.8859L464.3577 512.6959H371.0977C354.0077 512.6959 343.7477 502.4459 343.7477 486.8159C343.7477 469.7259 354.4877 458.9859 371.0977 458.9859H472.1677L485.3477 376.4659C499.0277 292.9659 541.5077 252.4459 618.1677 252.4459C639.1577 252.4459 655.7577 254.3959 667.9677 259.2759C685.0577 265.1359 693.3577 276.3659 693.3577 290.5259C693.3577 305.6659 682.6177 317.3859 664.5477 317.3859C658.6877 317.3859 654.2977 316.8959 650.3877 315.9159C642.0877 314.4559 635.7377 312.9859 621.0977 312.9859C576.6577 312.9859 556.1477 333.4959 547.8477 382.3259L536.1377 458.9859H632.8077C649.8977 458.9859 660.6477 469.7259 660.6477 486.8159C660.6477 502.4459 649.8977 512.6959 632.8077 512.6959H527.3477L510.7377 617.1859C497.0677 700.6859 454.5877 740.7259 377.9277 740.7259Z"/>
</svg>