<?xml version="1.0" encoding="UTF-8" standalone="no"?>
<svg xmlns="http://www.w3.org/2000/svg"
     width="791.015625" height="725.09765625"
     viewBox="0 0 791.015625 725.09765625"
     fill="currentColor">
  <path d="M120.6083 725.0955C145.0183 725.0955 161.6183 708.0055 161.6183 682.1255V273.9255H242.1883C263.6683 273.9255 277.8283 260.2555 277.8283 239.2555C277.8283 218.7455 263.1883 204.5855 242.1883 204.5855H161.6183V147.9455C161.6183 94.2355 181.1483 71.2855 227.5383 71.2855C241.2083 71.2855 251.4683 70.3155 258.2983 67.8755C272.9483 62.4955 279.7883 53.7155 279.7883 39.0655C279.7883 14.1555 255.8583 -0.0045 211.9183 -0.0045C125.4883 -0.0045 79.5883 50.2955 79.5883 144.5355V204.5855H35.6483C14.6483 204.5855 -0.0017 218.7455 -0.0017 239.2555C-0.0017 260.2555 14.1583 273.9255 35.6483 273.9255H79.5883V682.1255C79.5883 708.0055 96.1883 725.0955 120.6083 725.0955ZM400.8783 725.0955C424.8083 725.0955 442.3783 707.0355 442.3783 681.6455V413.0855C442.3783 321.7755 497.5583 261.2255 582.5183 261.2255C663.5783 261.2255 708.9883 309.5655 708.9883 395.5055V681.6455C708.9883 707.5155 726.0783 725.0955 749.9983 725.0955C773.9283 725.0955 791.0183 707.0355 791.0183 681.6455V383.7855C791.0183 262.6955 719.7283 187.4955 604.0083 187.4955C525.3883 187.4955 459.9583 231.4455 437.9883 297.3655V229.4955C437.9883 205.0755 421.3883 187.4955 398.9283 187.4955C376.4683 187.4955 359.8683 205.0755 359.8683 229.4955V681.6455C359.8683 707.0355 376.9483 725.0955 400.8783 725.0955Z"/>
</svg>