<?xml version="1.0" encoding="UTF-8" standalone="no"?>
<svg xmlns="http://www.w3.org/2000/svg"
     width="1108.88671875" height="893.5546875"
     viewBox="0 0 1108.88671875 893.5546875"
     fill="currentColor">
  <path d="M153.3183 893.5561H970.2183C1057.6183 893.5561 1108.8883 842.7761 1108.8883 742.1861V240.7261C1108.8883 140.1361 1057.1283 89.3561 955.5683 89.3561H486.8183C453.6183 89.3561 433.5983 81.5461 409.1783 60.5461L379.3983 36.1361C347.1683 8.7861 322.2683 -0.0039 273.9283 -0.0039H134.7683C49.3183 -0.0039 -0.0017 48.8261 -0.0017 146.9761V742.1861C-0.0017 843.2661 51.2683 893.5561 153.3183 893.5561ZM78.6183 151.3661C78.6183 103.0261 104.0083 78.1261 150.8783 78.1261H253.9083C286.1283 78.1261 305.6683 86.4261 330.5683 107.4261L360.3483 132.3261C392.0883 158.6961 417.9683 167.9661 466.3083 167.9661H954.0983C1002.4383 167.9661 1030.2783 194.3361 1030.2783 245.1161V272.9461H78.6183ZM154.2983 814.9461C105.4683 814.9461 78.6183 789.0661 78.6183 738.2861V346.6761H1030.2783V738.7661C1030.2783 789.0661 1002.4383 814.9461 954.0983 814.9461Z"/>
</svg>