<?xml version="1.0" encoding="UTF-8" standalone="no"?>
<svg xmlns="http://www.w3.org/2000/svg"
     width="996.09375" height="996.09375"
     viewBox="0 0 996.09375 996.09375"
     fill="currentColor">
  <path d="M498.0477 996.0959C770.5077 996.0959 996.0977 770.0159 996.0977 498.0459C996.0977 225.5859 770.0177 -0.0041 497.5577 -0.0041C225.5877 -0.0041 -0.0023 225.5859 -0.0023 498.0459C-0.0023 770.0159 226.0777 996.0959 498.0477 996.0959ZM746.0977 295.8959C759.7677 342.7759 761.2277 395.5059 750.4877 448.2459L547.3677 245.1159C600.0977 234.8659 652.8277 235.8359 699.7077 249.5159C728.0277 258.7859 736.8177 267.5759 746.0977 295.8959ZM644.0477 644.0459C601.5577 687.0159 552.7377 717.7759 500.9777 735.8359L259.7677 494.6259C278.3177 443.3559 308.5977 394.0459 351.5577 352.0459C393.5577 309.0859 442.8677 278.3159 494.1377 260.2559L735.8377 501.4659C717.2877 553.2259 687.0077 602.0459 644.0477 644.0459ZM462.8877 603.5159C466.7977 598.6359 466.7977 591.3059 462.8877 586.4259L444.8277 567.8759L462.8877 550.2959L479.9777 567.8759C485.3477 573.7259 493.1677 573.2459 497.5577 567.8759C502.9277 563.4759 502.9277 555.1759 497.5577 550.2959L479.4877 532.7159L498.0477 515.1359L516.1177 532.2259C520.5077 537.1059 528.8077 537.5959 533.2077 532.2259C538.5777 528.3159 537.5977 519.5359 533.2077 515.1359L515.1377 497.0659L533.2077 479.0059L551.2677 496.5859C556.6377 501.4659 563.9677 501.9559 568.8477 497.0659C573.7277 492.1859 573.7277 483.8859 568.8477 479.9759L550.7777 461.9159L568.8477 443.8459L586.4277 461.4259C592.2877 466.3059 599.6077 466.3059 604.4877 461.9159C608.8877 456.5459 609.3777 448.7259 604.4877 443.8459L551.2677 391.1159C546.3877 386.2259 539.5477 386.7159 533.6877 391.1159C529.2977 395.9959 529.7877 403.8059 533.6877 409.1759L551.7577 426.7559L533.2077 444.3359L515.6277 426.7559C511.7177 421.8759 503.9077 421.8759 498.5377 426.7559C493.6477 431.6359 493.6477 439.9459 498.5377 444.3359L516.5977 461.9159L498.0477 480.4659L479.9777 462.4059C475.5877 457.0359 467.7777 457.0359 463.3777 462.8859C458.0077 466.7959 458.4977 475.0959 463.3777 479.4959L480.4677 497.0659L462.8877 515.6259L445.3077 497.5559C440.4277 492.6759 432.1277 492.6759 427.7377 498.0459C422.3677 502.4459 422.3677 511.2259 427.7377 515.6259L445.3077 532.7159L427.2477 550.7859L409.6677 533.2059C404.7877 528.8059 397.4577 528.8059 392.0877 533.2059C387.2077 538.5759 387.2077 546.3859 392.0877 550.7859L444.8277 603.0259C450.1977 607.9059 457.5177 608.3959 462.8877 603.5159ZM295.8977 746.5859C267.0877 737.3059 258.2977 728.5159 249.5077 700.1959C235.8377 653.3159 234.3777 600.0959 244.6277 547.8559L448.2377 750.9759C395.5077 761.2259 342.7777 760.2559 295.8977 746.5859Z"/>
</svg>