<?xml version="1.0" encoding="UTF-8" standalone="no"?>
<svg xmlns="http://www.w3.org/2000/svg"
     width="996.09375" height="996.09375"
     viewBox="0 0 996.09375 996.09375"
     fill="currentColor">
  <path d="M498.0477 996.0959C770.5077 996.0959 996.0977 770.0159 996.0977 498.0459C996.0977 225.5859 770.0177 -0.0041 497.5577 -0.0041C225.5877 -0.0041 -0.0023 225.5859 -0.0023 498.0459C-0.0023 770.0159 226.0777 996.0959 498.0477 996.0959ZM389.1577 827.6359C365.7277 827.6359 350.5877 814.9459 351.0777 791.5059L356.9377 472.1659C356.9377 462.4059 352.5377 454.5859 343.7477 450.6859C305.6677 434.5659 289.5477 417.4759 291.9877 367.1859L299.8077 192.8759C300.2977 180.1759 307.6177 172.8559 318.8477 172.8559C330.5677 172.8559 337.3977 180.6659 337.3977 193.3559L334.9577 363.7659C334.9577 373.0459 341.7977 379.8859 350.5877 379.8859C360.8377 379.8859 367.1877 373.0459 367.1877 364.2559L370.1177 188.9659C370.1177 176.2659 377.9277 169.4359 389.1577 169.4359C400.3877 169.4359 408.6877 176.2659 408.6877 188.9659L410.6477 364.2559C410.6477 373.0459 417.4777 379.8859 427.2477 379.8859C437.0077 379.8859 443.8477 373.0459 443.8477 363.7659L441.4077 193.3559C441.4077 180.6659 448.2377 172.8559 459.4777 172.8559C471.1877 172.8559 477.5377 180.1759 478.5177 192.8759L486.8177 367.1859C489.2577 417.4759 472.6577 434.5659 435.0577 450.6859C426.2677 454.5859 422.3677 462.4059 422.3677 472.1659L427.2477 791.5059C428.2277 814.9459 413.0877 827.6359 389.1577 827.6359ZM592.7777 585.9359C593.2577 575.1959 588.3777 567.3859 578.1277 560.5459L562.0077 548.8259C547.8477 538.5759 540.0377 524.9059 540.0377 504.8859V485.8359C540.0377 372.5559 570.3077 252.4459 616.2077 188.4759C624.9977 175.2959 632.8077 169.4359 643.0677 169.4359C653.3177 169.4359 663.5777 175.7859 663.5777 190.4259V792.9659C663.5777 815.9159 648.9277 827.6359 624.5077 827.6359C601.5577 827.6359 585.9377 814.9459 586.4277 790.0359Z"/>
</svg>