<?xml version="1.0" encoding="UTF-8" standalone="no"?>
<svg xmlns="http://www.w3.org/2000/svg"
     width="912.109375" height="795.41015625"
     viewBox="0 0 912.109375 795.41015625"
     fill="currentColor">
  <path d="M70.3083 780.76C90.3283 780.76 106.4483 774.41 126.4683 762.7L624.0283 470.21C650.3883 454.1 665.5283 436.52 670.8983 416.02V729.98C670.8983 772.95 693.3583 795.41 735.8383 795.41H847.1683C890.1383 795.41 912.1083 772.95 912.1083 729.98V64.94C912.1083 20.51 890.1383 0 847.1683 0H735.8383C693.3583 0 670.8983 22.46 670.8983 64.94V378.42C665.5283 358.4 650.3883 340.33 624.0283 324.71L126.4683 31.74C106.4483 20.02 90.3283 13.67 70.3083 13.67C31.7383 13.67 -0.0017 42.97 -0.0017 97.66V697.27C-0.0017 751.95 31.7383 780.76 70.3083 780.76Z"/>
</svg>