<?xml version="1.0" encoding="UTF-8" standalone="no"?>
<svg xmlns="http://www.w3.org/2000/svg"
     width="1344.7265625" height="767.08984375"
     viewBox="0 0 1344.7265625 767.08984375"
     fill="currentColor">
  <path d="M70.3083 767.0916C90.3283 767.0916 106.9383 760.7416 126.4683 749.0216L624.0283 456.0516C650.8783 440.4316 665.5283 422.8516 670.8983 402.3416V683.5916C670.8983 737.7916 703.1283 767.0916 741.2083 767.0916C761.2283 767.0916 777.8283 760.7416 797.3683 749.0216L1295.4083 456.0516C1329.5883 435.5516 1344.7283 411.6216 1344.7283 383.3016C1344.7283 355.4716 1329.5883 331.5416 1295.4083 311.0316L797.3683 18.0616C777.8283 6.3516 761.2283 0.0016 741.2083 0.0016C703.1283 0.0016 670.8983 29.3016 670.8983 83.4916V364.7416C665.5283 344.2416 650.8783 326.6616 624.0283 311.0316L126.4683 18.0616C106.4483 6.3516 90.3283 0.0016 70.3083 0.0016C32.2283 0.0016 -0.0017 29.3016 -0.0017 83.4916V683.5916C-0.0017 737.7916 32.2283 767.0916 70.3083 767.0916ZM91.7983 676.7616C84.4683 676.7616 78.6183 672.3616 78.6183 662.1116V104.9816C78.6183 94.7216 84.4683 90.3316 91.7983 90.3316C95.2183 90.3316 98.6283 91.8016 103.5183 94.2416L567.8683 369.6316C574.7083 373.5316 578.6183 376.9516 578.6183 383.3016C578.6183 390.1416 574.7083 393.5516 567.8683 397.4616L103.5183 672.8516C99.1183 675.7816 95.2183 676.7616 91.7983 676.7616ZM762.6983 676.7616C755.3683 676.7616 749.5083 672.3616 749.5083 662.1116V104.9816C749.5083 94.7216 755.3683 90.3316 762.6983 90.3316C766.1183 90.3316 769.5283 91.8016 774.4183 94.2416L1238.7683 369.6316C1245.6083 373.5316 1249.5083 376.9516 1249.5083 383.3016C1249.5083 390.1416 1245.6083 393.5516 1238.7683 397.4616L774.4183 672.8516C770.0183 675.7816 766.1183 676.7616 762.6983 676.7616Z"/>
</svg>