<?xml version="1.0" encoding="UTF-8" standalone="no"?>
<svg xmlns="http://www.w3.org/2000/svg"
     width="996.09375" height="996.09375"
     viewBox="0 0 996.09375 996.09375"
     fill="currentColor">
  <path d="M498.0477 996.0959C770.5077 996.0959 996.0977 770.0159 996.0977 498.0459C996.0977 225.5859 770.0177 -0.0041 497.5577 -0.0041C225.5877 -0.0041 -0.0023 225.5859 -0.0023 498.0459C-0.0023 770.0159 226.0777 996.0959 498.0477 996.0959ZM716.3077 658.6959C716.3077 679.6859 705.0777 689.9459 685.0577 689.9459H630.8577C610.8377 689.9459 599.6077 679.6859 599.6077 658.6959V513.1859C596.1877 520.9959 589.8477 527.8359 579.5877 533.6959L339.3577 674.8059C330.5677 680.1759 321.7777 683.1059 312.9877 683.1059C293.9477 683.1059 278.8077 669.9259 278.8077 643.5559V354.0059C278.8077 328.1259 293.9477 314.4559 312.9877 314.4559C321.7777 314.4559 330.5677 317.3859 339.3577 322.7559L579.5877 463.8659C589.8477 469.7259 596.1877 476.5659 599.6077 484.3759V337.4059C599.6077 316.4059 610.8377 306.1559 630.8577 306.1559H685.0577C705.0777 306.1559 716.3077 316.8959 716.3077 337.4059Z"/>
</svg>