<?xml version="1.0" encoding="UTF-8" standalone="no"?>
<svg xmlns="http://www.w3.org/2000/svg"
     width="1066.89453125" height="795.41015625"
     viewBox="0 0 1066.89453125 795.41015625"
     fill="currentColor">
  <path d="M176.2663 795.41C219.2363 795.41 241.2063 772.95 241.2063 729.98V64.94C241.2063 22.46 219.2363 0 176.2663 0H65.4263C22.4563 0 -0.0037 20.51 -0.0037 64.94V729.98C-0.0037 772.95 22.4563 795.41 65.4263 795.41ZM463.8663 780.76C483.8863 780.76 500.4863 774.41 520.0163 762.7L1017.5763 470.21C1052.2463 449.71 1066.8963 425.29 1066.8963 397.46C1066.8963 369.14 1052.2463 345.21 1017.5763 324.71L520.0163 31.74C499.9963 20.02 483.8863 13.67 463.8663 13.67C425.7863 13.67 393.5563 42.97 393.5563 97.66V697.27C393.5563 751.95 425.7863 780.76 463.8663 780.76Z"/>
</svg>