<?xml version="1.0" encoding="UTF-8" standalone="no"?>
<svg xmlns="http://www.w3.org/2000/svg"
     width="898.92578125" height="898.92578125"
     viewBox="0 0 898.92578125 898.92578125"
     fill="currentColor">
  <path d="M153.3183 898.9295H745.6083C848.1483 898.9295 898.9283 848.1495 898.9283 747.5595V151.3695C898.9283 50.7795 848.1483 -0.0005 745.6083 -0.0005H153.3183C51.2683 -0.0005 -0.0017 50.2895 -0.0017 151.3695V747.5595C-0.0017 848.6295 51.2683 898.9295 153.3183 898.9295ZM154.2983 820.3095C105.4683 820.3095 78.6183 794.4295 78.6183 743.6495V155.2695C78.6183 104.4895 105.4683 78.6095 154.2983 78.6095H744.6283C792.9683 78.6095 820.3083 104.4895 820.3083 155.2695V743.6495C820.3083 794.4295 792.9683 820.3095 744.6283 820.3095ZM364.2583 693.3595C382.8083 693.3595 395.5083 680.1795 395.5083 661.6195V610.3495H496.0983C510.2583 610.3495 520.0183 599.6095 520.0183 585.9395C520.0183 572.2695 510.2583 562.0095 496.0983 562.0095H395.5083V482.4195H558.5983C576.1683 482.4195 588.8683 470.6995 588.8683 453.1295C588.8683 435.5495 576.1683 424.3195 558.5983 424.3195H395.5083V286.1295H576.6583C593.7483 286.1295 606.9383 274.4095 606.9383 256.8395C606.9383 238.7695 593.7483 227.0495 576.6583 227.0495H363.7683C344.2383 227.0495 332.0283 239.7495 332.0283 259.7695V562.0095H292.9683C278.8083 562.0095 269.5283 572.2695 269.5283 585.9395C269.5283 599.6095 278.8083 610.3495 292.9683 610.3495H332.0283V662.1095C332.0283 681.1495 345.6983 693.3595 364.2583 693.3595Z"/>
</svg>