<?xml version="1.0" encoding="UTF-8" standalone="no"?>
<svg xmlns="http://www.w3.org/2000/svg"
     width="996.09375" height="996.09375"
     viewBox="0 0 996.09375 996.09375"
     fill="currentColor">
  <path d="M498.0477 996.0959C770.5077 996.0959 996.0977 770.0159 996.0977 498.0459C996.0977 225.5859 770.0177 -0.0041 497.5577 -0.0041C225.5877 -0.0041 -0.0023 225.5859 -0.0023 498.0459C-0.0023 770.0159 226.0777 996.0959 498.0477 996.0959ZM409.6677 750.4859C390.6277 750.4859 376.4677 737.7959 376.4677 718.2659V665.0359H335.9377C321.2877 665.0359 312.0077 653.8059 312.0077 639.6459C312.0077 625.4859 321.2877 614.7459 335.9377 614.7459H376.4677V303.2259C376.4677 282.7159 389.1577 269.5359 409.1777 269.5359H628.9077C646.4877 269.5359 659.6677 281.2459 659.6677 300.2959C659.6677 318.3559 646.4877 330.5659 628.9077 330.5659H442.3877V472.6559H610.3477C627.9277 472.6559 641.5977 484.3759 641.5977 502.9259C641.5977 520.9959 627.9277 533.2059 610.3477 533.2059H442.3877V614.7459H545.8977C560.5477 614.7459 570.7977 625.4859 570.7977 639.6459C570.7977 653.8059 560.5477 665.0359 545.8977 665.0359H442.3877V717.7759C442.3877 736.8159 429.1977 750.4859 409.6677 750.4859Z"/>
</svg>