<?xml version="1.0" encoding="UTF-8" standalone="no"?>
<svg xmlns="http://www.w3.org/2000/svg"
     width="1518.1415134866616" height="893.3607503362185"
     viewBox="0 0 1518.1415134866616 893.3607503362185"
     fill="currentColor">
  <path d="M-0.0017 458.7872C-0.0017 719.5372 245.1183 893.3572 615.7183 893.3572C986.8183 893.3572 1231.9383 719.5372 1231.9383 458.7872C1231.9383 431.4472 1215.8183 405.0772 1186.5283 381.6372L1456.0583 216.6072C1602.5383 127.7372 1466.3083 -87.1128 1291.0183 38.3772L942.8683 288.8672C850.0983 271.2872 739.2583 260.5472 615.7183 260.5472C253.4183 260.5472 -0.0017 349.4172 -0.0017 458.7872ZM1347.1683 93.0672C1418.4583 43.7472 1463.3783 119.4372 1407.7183 154.1072L1110.8383 338.1872C1086.9183 327.4472 1060.0583 318.1672 1029.7883 309.3772ZM78.6183 458.7872C78.6183 406.0572 334.4683 334.2772 615.7183 334.2772C896.9683 334.2772 1153.3183 406.0572 1153.3183 458.7872C1153.3183 494.9272 1032.2283 539.3572 855.4683 562.3072C841.7983 476.8572 765.6283 422.6572 678.7083 422.6572C615.2383 422.6572 559.5683 450.9772 526.8583 494.9272C509.7683 489.0672 494.1383 486.6272 475.0983 486.6272C417.4783 486.6272 367.6783 515.9172 344.2383 557.4272C185.0583 533.9872 78.6183 492.4772 78.6183 458.7872ZM93.7483 556.9372C189.9383 614.0672 398.4383 655.5672 615.7183 655.5672C833.4983 655.5672 1041.9883 614.0672 1138.1883 556.9372C1097.6583 712.2072 890.1383 814.7472 615.7183 814.7472C341.7983 814.7472 134.2783 712.2072 93.7483 556.9372Z"/>
</svg>