<?xml version="1.0" encoding="UTF-8" standalone="no"?>
<svg xmlns="http://www.w3.org/2000/svg"
     width="980.46875" height="1089.35546875"
     viewBox="0 0 980.46875 1089.35546875"
     fill="currentColor">
  <path d="M-0.0017 1049.3127C-0.0017 1071.2927 17.0883 1089.3527 38.5783 1089.3527H754.8783C776.3683 1089.3527 794.4383 1071.2927 794.4383 1049.3127C794.4383 1028.3227 776.3683 1010.7427 754.8783 1010.7427H717.2883V643.0627H722.1683C744.6283 643.0627 758.7883 655.7627 758.7883 680.1727V841.7927C758.7883 911.1327 800.7783 953.1227 870.1183 953.1227C938.9683 953.1227 980.4683 911.1327 980.4683 841.7927V243.6527C980.4683 214.3527 972.6583 191.8927 958.4983 169.4327L891.5983 61.0327C866.6983 21.4827 808.5983 57.1327 833.4983 97.1727L890.6283 189.9427C895.9983 198.7327 895.5083 208.9827 889.6483 217.7727L825.6883 307.1327C804.6883 335.9327 807.6183 363.2827 829.5883 389.1627L911.6183 484.3727V841.7927C911.6183 868.1627 895.9983 884.2727 870.1183 884.2727C843.2583 884.2727 827.6383 868.1627 827.6383 841.7927V680.1727C827.6383 612.7927 787.5983 574.2227 722.1683 574.2227H717.2883V124.0227C717.2883 43.9427 673.3383 0.0027 593.7483 0.0027H200.1983C119.6283 0.0027 77.1483 43.9427 77.1483 124.0227V1010.7427H38.5783C17.5783 1010.7427 -0.0017 1027.8327 -0.0017 1049.3127ZM216.3083 509.7627C180.6683 509.7627 159.1783 490.2327 159.1783 457.5227V135.2527C159.1783 102.5427 180.6683 82.5227 216.3083 82.5227H577.6383C613.2783 82.5227 635.2583 102.5427 635.2583 135.2527V457.5227C635.2583 490.2327 613.2783 509.7627 577.6383 509.7627Z"/>
</svg>