<?xml version="1.0" encoding="UTF-8" standalone="no"?>
<svg xmlns="http://www.w3.org/2000/svg"
     width="1303.22265625" height="722.16796875"
     viewBox="0 0 1303.22265625 722.16796875"
     fill="currentColor">
  <path d="M649.4183 722.1689C666.0183 722.1689 677.7383 712.8889 677.7383 696.2889C677.7383 688.9689 676.2683 685.0589 670.8983 674.8089C611.3283 582.5189 577.1483 476.5589 577.1483 361.8189C577.1483 250.9789 609.3783 140.1389 670.8983 47.3589C676.2683 37.1089 677.7383 33.1989 677.7383 25.8789C677.7383 10.2489 666.0183 -0.0011 649.4183 -0.0011C633.2983 -0.0011 620.6083 7.3289 604.9783 28.8089C531.2483 122.0689 494.6283 238.2789 494.6283 361.3289C494.6283 484.3789 530.2783 597.1689 604.9783 693.3589C620.6083 714.8389 633.2983 722.1689 649.4183 722.1689ZM1148.4383 722.1689C1164.5483 722.1689 1177.2483 714.8389 1192.8683 693.3589C1267.5783 597.1689 1303.2183 484.3789 1303.2183 361.3289C1303.2183 238.2789 1266.5983 122.0689 1192.8683 28.8089C1177.2483 7.3289 1164.5483 -0.0011 1148.4383 -0.0011C1131.8383 -0.0011 1120.1183 10.2489 1120.1183 25.8789C1120.1183 33.1989 1121.5783 37.1089 1126.9483 47.3589C1188.4783 140.1389 1220.6983 250.9789 1220.6983 361.8189C1220.6983 476.5589 1186.5283 582.5189 1126.9483 674.8089C1121.5783 685.0589 1120.1183 688.9689 1120.1183 696.2889C1120.1183 711.9189 1131.8383 722.1689 1148.4383 722.1689ZM65.9183 721.1889C161.6183 721.1889 205.5683 680.1789 229.0083 570.3089L284.6683 303.2189H373.0483C401.3683 303.2189 419.4383 288.0889 419.4383 263.6689C419.4383 242.6789 405.7583 229.4889 383.2983 229.4889H300.2883L313.9683 163.0889C327.1483 101.0789 346.6783 75.6789 400.3883 75.6789C408.6883 75.6789 416.5083 75.1989 421.8783 74.7089C445.7983 72.2689 457.0283 61.0389 457.0283 40.0389C457.0283 12.6989 434.0783 0.4889 387.2083 0.4889C293.9483 0.4889 246.0983 46.8789 224.1183 151.3689L208.0083 229.4889H147.4583C118.6483 229.4889 100.5883 244.6289 100.5883 269.0389C100.5883 290.0389 114.2583 303.2189 137.2083 303.2189H192.3783L138.6683 558.5889C124.9983 622.5589 104.9783 645.9989 52.7383 645.9989C45.8983 645.9989 39.0583 646.4889 34.6683 646.9689C12.2083 649.8989 -0.0017 662.1089 -0.0017 682.6189C-0.0017 708.9889 22.4583 721.1889 65.9183 721.1889ZM751.9483 592.7689C767.5783 592.7689 778.8083 587.3989 791.0183 569.8289L897.9483 417.4789H899.8983L1009.2783 572.2689C1021.4883 589.3589 1033.1983 592.7689 1044.9183 592.7689C1068.3583 592.7689 1083.4983 576.1689 1083.4983 556.1489C1083.4983 546.8789 1081.0583 538.0889 1074.7083 529.7889L949.7083 359.8589L1074.7083 192.3789C1080.5683 184.0789 1083.9883 175.2889 1083.9883 165.0389C1083.9883 144.0389 1066.4083 129.3989 1046.3883 129.3989C1028.8083 129.3989 1019.0383 138.1789 1009.7683 152.3389L906.7383 303.2189H904.2983L800.7783 151.8589C791.0183 137.6989 779.7883 129.3989 761.2283 129.3989C738.2783 129.3989 721.1883 147.4589 721.1883 166.9889C721.1883 181.1489 725.5883 189.9389 731.9383 198.2389L851.0783 357.4189L724.6083 531.7389C717.7783 541.0189 716.3083 549.3189 716.3083 559.0789C716.3083 578.1289 732.4183 592.7689 751.9483 592.7689Z"/>
</svg>