<?xml version="1.0" encoding="UTF-8" standalone="no"?>
<svg xmlns="http://www.w3.org/2000/svg"
     width="1409.66796875" height="884.765625"
     viewBox="0 0 1409.66796875 884.765625"
     fill="currentColor">
  <path d="M186.0383 884.7636C252.9283 884.7636 298.8283 860.3536 339.8483 809.5736L428.2183 702.6336C440.9183 687.5036 455.5683 680.1736 470.2183 680.1736H939.4483C954.0983 680.1736 968.7483 687.5036 981.4483 702.6336L1069.8283 809.5736C1110.8383 860.3536 1156.7383 884.7636 1223.6283 884.7636C1335.4483 884.7636 1409.6683 810.5436 1409.6683 696.2936C1409.6683 647.4636 1398.4383 591.3036 1379.3983 528.3236C1349.6083 428.2236 1297.3683 291.9936 1247.5583 186.5236C1205.5683 98.6336 1184.0783 58.5936 1080.5683 35.1536C988.7683 14.1636 861.3283 0.0036 705.0783 0.0036C548.8283 0.0036 420.8983 14.1636 329.0983 35.1536C225.5883 58.5936 204.0983 98.6336 162.1083 186.5236C112.3083 291.9936 60.0583 428.2236 30.2783 528.3236C11.2283 591.3036 -0.0017 647.4636 -0.0017 696.2936C-0.0017 810.5436 74.2183 884.7636 186.0383 884.7636ZM309.5683 344.2336C309.5683 319.8236 324.7083 304.6836 350.0983 304.6836H437.9883V219.2336C437.9883 194.3336 452.1483 179.2036 476.5583 179.2036C500.4883 179.2036 515.1383 194.3336 515.1383 219.2336V304.6836H597.6583C624.9983 304.6836 641.1183 319.8236 641.1183 344.2336C641.1183 369.6336 624.9983 385.2536 597.6583 385.2536H515.1383V470.7036C515.1383 495.6036 500.4883 511.2336 476.5583 511.2336C452.1483 511.2336 437.9883 495.6036 437.9883 470.7036V385.2536H350.0983C324.7083 385.2536 309.5683 369.6336 309.5683 344.2336ZM933.5983 268.0636C933.5983 228.0236 964.3583 197.2636 1003.4183 197.2636C1043.4583 197.2636 1073.7283 228.0236 1073.7283 268.0636C1073.7283 307.6136 1043.4583 337.8936 1003.4183 337.8936C964.3583 337.8936 933.5983 307.6136 933.5983 268.0636ZM789.5483 412.5936C789.5483 372.5536 820.7983 341.7936 859.8683 341.7936C899.4183 341.7936 930.1783 372.5536 930.1783 412.5936C930.1783 452.1436 899.4183 482.9136 859.8683 482.9136C820.7983 482.9136 789.5483 452.1436 789.5483 412.5936Z"/>
</svg>