<?xml version="1.0" encoding="UTF-8" standalone="no"?>
<svg xmlns="http://www.w3.org/2000/svg"
     width="996.09375" height="996.09375"
     viewBox="0 0 996.09375 996.09375"
     fill="currentColor">
  <path d="M498.0477 996.0959C770.5077 996.0959 996.0977 770.0159 996.0977 498.0459C996.0977 225.5859 770.0177 -0.0041 497.5577 -0.0041C225.5877 -0.0041 -0.0023 225.5859 -0.0023 498.0459C-0.0023 770.0159 226.0777 996.0959 498.0477 996.0959ZM498.0477 913.0859C267.5777 913.0859 83.4977 728.5159 83.4977 498.0459C83.4977 267.5759 267.0877 83.0059 497.5577 83.0059C728.0277 83.0059 913.0877 267.5759 913.0877 498.0459C913.0877 728.5159 728.5177 913.0859 498.0477 913.0859ZM472.1677 784.1759H522.9477C537.1077 784.1759 547.3677 775.3859 550.2977 761.2259L564.9377 701.1759C575.1977 697.7559 585.9377 693.3559 594.7277 688.9659L647.4577 721.1959C659.1777 729.4959 672.8477 728.0259 682.6177 718.2659L717.2877 683.1059C727.5377 673.3359 729.0077 659.1759 720.7077 646.9759L688.9677 594.7259C693.3577 585.4459 697.2677 575.6859 700.6877 565.4259L761.2277 551.7559C775.3877 548.3359 783.6877 538.0859 783.6877 523.4359V474.1259C783.6877 459.9559 775.3877 449.7059 761.2277 446.7759L701.1677 432.1259C697.2677 420.8959 692.8677 411.1359 689.4577 402.3459L721.6777 349.6059C729.0077 337.8859 728.5177 324.7059 718.2577 313.9659L682.6177 279.2959C672.8477 270.0159 660.6477 268.0659 647.9477 274.9059L594.7277 307.6159C585.9377 303.7059 575.6877 299.3159 564.9377 295.8959L550.2977 234.8659C547.3677 220.7059 537.1077 212.4059 522.9477 212.4059H472.1677C458.0077 212.4059 447.7577 220.7059 444.8277 234.8659L430.1777 295.4059C419.9177 298.8259 409.1777 302.7359 399.8977 307.6159L347.1677 274.9059C334.9577 268.0659 322.7577 269.5359 312.4977 279.2959L276.8577 313.9659C266.5977 324.7059 266.1177 337.8859 273.4377 349.6059L305.6677 402.3459C302.2477 411.1359 297.8477 420.8959 293.9477 432.1259L233.8877 446.7759C219.7277 449.7059 211.9177 459.9559 211.9177 474.1259V523.4359C211.9177 538.0859 219.7277 548.3359 233.8877 551.7559L294.4377 565.4259C297.8477 575.6859 301.7577 585.4459 306.1477 594.7259L274.4177 646.9759C266.1177 659.1759 267.5777 673.3359 277.8277 683.1059L312.4977 718.2659C322.7577 728.0259 336.4277 729.4959 347.6577 721.1959L400.3877 688.9659C409.1777 693.3559 419.9177 697.7559 430.1777 701.1759L444.8277 761.2259C447.7577 775.3859 458.0077 784.1759 472.1677 784.1759ZM497.5577 594.7259C444.3377 594.7259 400.8777 550.7859 400.8777 497.5559C400.8777 444.8259 444.3377 401.8559 497.5577 401.8559C550.7777 401.8559 594.2377 444.8259 594.2377 497.5559C594.2377 550.7859 550.7777 594.7259 497.5577 594.7259Z"/>
</svg>