<?xml version="1.0" encoding="UTF-8" standalone="no"?>
<svg xmlns="http://www.w3.org/2000/svg"
     width="996.09375" height="996.09375"
     viewBox="0 0 996.09375 996.09375"
     fill="currentColor">
  <path d="M498.0477 996.0977C770.5077 996.0977 996.0977 770.5077 996.0977 498.0477C996.0977 226.0777 770.0177 -0.0023 497.5577 -0.0023C225.5877 -0.0023 -0.0023 226.0777 -0.0023 498.0477C-0.0023 770.5077 226.0777 996.0977 498.0477 996.0977ZM498.0477 780.7577C492.1877 780.7577 485.3477 780.2777 479.9777 780.2777L464.8477 806.6377C460.9377 815.9177 451.6577 820.7977 441.4077 818.8477C431.6377 817.3877 424.3177 810.0577 422.3677 799.3177L418.9477 769.0477C406.7377 766.1177 395.5077 761.2277 383.7877 756.8377L361.8177 776.3677C354.4877 784.1777 343.7477 785.1577 334.9577 780.2777C326.1677 774.8977 322.2677 766.1177 323.7277 755.3677L330.0777 725.5877C319.3377 717.7777 309.5677 709.4677 302.2477 702.6377L274.4177 713.8677C264.6477 718.2577 254.8877 715.8177 247.5577 706.5477C241.6977 700.1977 240.2377 689.4577 245.6077 680.6677L261.7177 654.7877C255.3677 643.5577 249.5077 633.7877 244.1377 622.5577L213.3777 624.5077C203.6177 624.5077 194.8277 618.6477 191.4077 609.3777C187.9877 599.6077 190.9177 589.8477 198.7277 583.4977L223.1477 564.4577C219.7277 551.7577 218.2577 539.5477 216.3077 527.8277L187.9877 519.0477C177.7377 515.1377 171.8777 507.8077 171.8777 497.5577C171.8777 487.3077 177.7377 479.4877 187.9877 475.5877L216.3077 466.7977C218.2577 455.0777 219.7277 443.8477 223.1477 430.6677L198.7277 411.6177C190.9177 404.2977 187.9877 395.0177 191.8977 386.2277C194.8277 375.9777 204.0977 370.6077 213.8677 371.0977L244.1377 372.0677C249.5077 362.3077 255.3677 351.0777 262.2077 340.3277L245.6077 313.9677C240.2377 305.6677 241.6977 294.9177 248.0477 288.0877C254.8877 279.7877 264.1577 277.3477 273.9277 281.2477L302.2477 292.4777C310.0577 284.6677 320.3077 276.8577 330.0777 269.5277L323.7277 239.7477C322.2677 228.5177 326.6577 219.7277 334.9577 214.8477C343.7477 209.4677 354.4877 211.4277 361.8177 218.7477L383.7877 237.7977C395.5077 233.8877 406.2477 229.0077 418.9477 225.5877L422.3677 194.8277C424.3177 185.5477 431.6377 177.7377 440.9177 176.2677C451.1677 174.3177 460.9377 178.7077 464.8477 187.9877L479.9777 215.3277C485.3477 214.8477 492.1877 214.3577 498.0477 214.3577C504.8877 214.3577 510.2577 214.8477 516.5977 215.3277L530.7577 187.9877C535.1577 179.6877 544.9177 174.3177 555.1777 176.2677C564.4577 177.7377 571.7777 185.5477 573.2377 194.8277L577.6377 225.5877C589.8477 229.0077 601.0777 233.3977 612.3077 237.7977L634.2777 218.7477C641.5977 210.9377 652.3477 209.4677 661.6177 214.8477C669.9177 219.7277 673.3377 228.5177 671.8777 239.7477L665.0377 269.5277C675.7777 276.8577 685.5477 284.6677 693.3577 292.4777L722.1677 281.2477C731.9377 277.3477 740.7277 280.2777 748.0477 288.0877C754.3977 295.4077 755.3677 306.1477 749.9977 314.4577L733.8877 340.3277C739.7477 349.6077 745.6077 359.8677 751.9577 372.0677L782.2277 371.0977C791.9877 370.6077 801.2677 375.9777 804.6877 386.2277C808.1077 395.5077 805.1777 404.7877 796.8777 411.6177L772.9477 430.6677C775.3877 442.3877 778.3177 454.0977 779.7877 466.7977L808.1077 476.0777C818.3577 479.4877 824.2177 487.3077 824.2177 497.5577C824.2177 507.8077 818.8477 515.1377 808.1077 519.0477L779.7877 527.8277C778.3177 541.0177 775.3877 553.2177 772.9477 564.4577L796.8777 583.4977C804.6877 589.3577 808.1077 599.1177 804.6877 609.3777C801.2677 618.6477 792.4777 624.5077 782.7177 624.5077L751.9577 622.5577C746.5777 633.7877 740.7277 644.0477 733.8877 654.7877L749.9977 680.6677C755.3677 688.9677 754.8877 699.7077 748.5377 706.5477C740.7277 715.8177 731.9377 718.2577 721.6777 713.8677L693.3577 702.6377C686.0377 709.4677 676.7577 717.7777 665.0377 725.5877L671.8777 755.3677C673.3377 766.5977 669.9177 775.3877 661.6177 780.2777C651.3677 785.1577 641.5977 784.1777 634.2777 776.3677L612.3077 756.8377C601.0777 761.2277 589.3577 765.6277 577.6377 769.0477L573.2377 799.8077C571.7777 810.0577 564.4577 817.3877 555.1777 818.8477C544.4377 820.7977 535.1577 815.9177 530.7577 806.6377L516.5977 780.2777C510.2577 780.2777 504.3977 780.7577 498.0477 780.7577ZM498.0477 270.5077C464.8477 270.5077 433.5977 277.3477 405.2777 290.0377L480.9577 419.4377C487.7977 417.9677 493.1677 417.4777 497.0677 417.4777C531.7377 417.4777 559.5677 437.4977 574.2177 472.6577H720.7077C708.9877 357.4177 615.7277 270.5077 498.0477 270.5077ZM273.9277 498.0477C273.9277 571.7777 307.1277 636.2277 359.8677 677.2477L437.9877 550.2977C423.8277 534.6677 416.9877 517.0877 416.9877 498.5377C416.9877 479.4877 423.8277 461.9177 437.9877 446.2877L361.8177 315.9177C308.1077 357.4177 273.9277 422.8477 273.9277 498.0477ZM469.2377 498.0477C469.2377 513.6677 482.4177 526.8577 497.5577 526.8577C514.1577 526.8577 527.3477 513.6677 527.3477 498.0477C527.3477 482.9077 514.1577 471.1877 497.5577 471.1877C482.4177 471.1877 469.2377 483.3977 469.2377 498.0477ZM498.0477 724.6077C615.7277 724.6077 708.9877 637.6977 720.7077 522.9477H574.2177C559.5677 559.0777 531.7377 579.5877 497.0677 579.5877C493.6477 579.5877 487.7977 579.0977 480.9577 577.6377L403.3177 704.5877C432.1277 717.2877 463.8677 724.6077 498.0477 724.6077Z"/>
</svg>