<?xml version="1.0" encoding="UTF-8" standalone="no"?>
<svg xmlns="http://www.w3.org/2000/svg"
     width="1339.84375" height="1061.5234375"
     viewBox="0 0 1339.84375 1061.5234375"
     fill="currentColor">
  <path d="M348.1477 767.0908H419.4377C450.1977 767.0908 474.1177 748.5308 480.9577 719.2408L494.6277 657.2308C496.0977 656.7408 498.0477 655.7608 499.5077 655.2708L554.6877 688.4808C579.5877 703.1208 610.3477 700.1908 631.3477 679.2008L681.1477 628.9108C703.1277 606.9308 706.0577 576.6608 690.4277 551.7608L656.7377 498.5308C657.2277 496.5808 658.2077 495.1208 658.6877 493.1608L719.7277 478.5108C748.5377 471.6808 767.5777 447.2608 767.5777 416.5008V350.1008C767.5777 319.8208 749.0277 295.4108 719.7277 288.0908L658.6877 273.4408C658.2077 271.4808 657.2277 270.0208 656.7377 268.0708L690.4277 214.8408C706.0577 189.9408 703.1277 160.1608 681.1477 137.6908L631.3477 87.8908C610.3477 66.8908 579.5877 63.4808 554.6877 78.6108L499.5077 111.3308C497.5577 110.8408 496.0977 110.3508 494.1377 109.8608L480.9577 47.3608C474.6077 18.5508 450.1977 0.0008 419.4377 0.0008H348.1477C317.3877 0.0008 293.4577 18.5508 286.6177 47.3608L272.9477 109.8608C270.9977 110.3508 269.5277 110.8408 267.5777 111.3308L212.8877 78.6108C187.9877 63.4808 157.2277 66.8908 136.2277 87.8908L86.4277 137.6908C64.4577 160.1608 62.0077 190.4308 77.1477 214.8408L110.8377 268.0708C110.3477 270.0208 109.3777 271.4808 108.8877 273.4408L47.3677 288.0908C18.5577 295.4108 -0.0023 319.8208 -0.0023 350.1008V416.5008C-0.0023 447.2608 18.5577 471.6808 47.3677 478.5108L108.8877 493.1608C109.3777 495.1208 110.3477 496.5808 110.8377 498.5308L77.1477 551.7608C61.5277 576.6608 64.4577 606.9308 86.4277 628.9108L136.2277 679.2008C157.2277 700.1908 187.4977 703.1208 212.3977 688.4808L268.0677 655.2708C269.5277 655.7608 271.4877 656.7408 272.9477 657.2308L286.6177 719.2408C293.4577 748.5308 317.3877 767.0908 348.1477 767.0908ZM357.4177 698.7308C352.5377 698.7308 350.0977 696.2908 348.6377 691.4108L327.6377 604.0008C304.1977 598.6308 282.7177 587.8908 265.6277 578.6108L189.4577 625.0008C184.5677 627.9308 181.1477 627.4408 177.7377 624.0208L140.6277 587.4008C137.2077 583.9808 136.7177 581.0508 139.6477 576.1708L185.5477 500.4908C179.6877 485.8408 166.9877 463.8708 161.1377 438.4808L75.1977 417.9708C70.3077 416.9908 67.8677 414.0608 67.8677 409.1808V357.4208C67.8677 352.5408 70.3077 350.1008 75.1977 349.1208L161.1377 328.6108C166.9877 302.7308 179.6877 281.2508 185.5477 266.1108L139.6477 190.4308C136.7177 186.0308 137.2077 183.1008 140.6277 179.2008L177.7377 143.0708C181.1477 139.6508 184.5677 139.1608 189.4577 141.6008L265.6277 187.9908C282.7177 178.7108 304.1977 167.9708 327.6377 162.6008L348.6377 75.6808C350.0977 70.8008 352.5377 68.3608 357.4177 68.3608H410.1577C415.0377 68.3608 417.4777 70.8008 418.9477 75.6808L439.9377 162.6008C463.3777 167.9708 484.8677 178.7108 501.9577 187.9908L578.1277 141.6008C582.5177 139.1608 586.4277 139.6508 589.8477 143.0708L626.9577 179.2008C630.3677 183.1008 630.8577 186.0308 627.9277 190.4308L582.0277 266.1108C587.8877 281.2508 600.5877 302.7308 606.4477 328.6108L692.3877 349.1208C697.2677 350.1008 699.7077 352.5408 699.7077 357.4208V409.1808C699.7077 414.0608 697.2677 416.9908 692.3877 417.9708L606.4477 438.4808C600.5877 463.8708 587.8877 485.8408 582.0277 500.4908L627.9277 576.1708C630.8577 581.0508 630.3677 583.9808 626.9577 587.4008L589.8477 624.0208C586.4277 627.4408 582.5177 627.9308 578.1277 625.0008L501.9577 578.6108C484.8677 587.8908 463.3777 598.6308 439.9377 604.0008L418.9477 691.4108C417.4777 696.2908 415.0377 698.7308 410.1577 698.7308ZM383.7877 531.7408C464.3577 531.7408 530.7577 464.8408 530.7577 383.3008C530.7577 302.7308 464.3577 236.3308 383.7877 236.3308C301.7577 236.3308 235.8377 302.7308 235.8377 383.3008C235.8377 464.3508 301.7577 531.7408 383.7877 531.7408ZM383.7877 459.4708C342.2877 459.4708 307.6177 425.7808 307.6177 383.3008C307.6177 342.2808 342.2877 308.1008 383.7877 308.1008C424.8077 308.1008 458.4977 342.2808 458.4977 383.3008C458.4977 425.2908 424.8077 459.4708 383.7877 459.4708ZM988.7677 1061.5208H1044.9177C1072.7577 1061.5208 1096.1877 1045.4108 1100.5877 1020.0208L1109.8677 970.7008C1112.3077 970.2108 1113.7677 969.7308 1115.2377 969.2408L1156.7377 995.1208C1179.1977 1009.2808 1207.0277 1006.3508 1226.5577 985.8408L1266.1177 946.2908C1285.6477 926.2708 1289.5477 898.4408 1274.4177 875.9808L1248.0477 835.9408C1248.5377 833.9808 1249.0277 833.0108 1249.9977 831.0508L1298.3377 820.8008C1323.2377 815.4308 1339.8477 792.9708 1339.8477 765.1408V710.4508C1339.8477 683.1008 1323.2377 660.1608 1298.3377 654.7808L1249.9977 645.0208C1249.0277 643.0708 1248.5377 641.6008 1248.0477 639.6508L1274.4177 599.6108C1289.5477 577.1508 1285.6477 549.8008 1266.1177 529.7808L1226.5577 489.7508C1207.0277 469.7308 1179.1977 466.3108 1156.7377 480.4708L1115.2377 506.3508C1113.7677 505.8608 1112.3077 505.3708 1109.8677 504.8808L1100.5877 456.0508C1096.1877 430.1708 1072.7577 414.0608 1044.9177 414.0608H988.7677C960.9377 414.0608 937.4977 430.1708 932.6177 456.0508L923.3377 504.8808C921.3877 505.3708 919.9177 505.8608 917.9677 506.3508L876.4677 480.4708C854.0077 466.3108 826.6577 469.7308 807.1277 489.7508L767.5777 529.7808C748.0477 549.8008 744.1377 577.1508 758.7877 599.6108L785.1577 639.6508C784.6677 641.6008 784.1777 643.0708 783.6877 645.0208L735.3477 654.7808C709.9577 660.1608 693.3577 683.1008 693.3577 710.4508V765.1408C693.3577 792.9708 709.9577 815.4308 735.3477 820.8008L783.6877 831.0508C784.1777 833.0108 784.6677 833.9808 785.1577 835.9408L758.7877 875.9808C744.1377 898.4408 748.0477 926.2708 767.5777 946.2908L807.1277 985.8408C826.6577 1006.3508 854.0077 1009.2808 876.4677 995.1208L917.9677 969.2408C919.9177 969.7308 921.3877 970.2108 923.3377 970.7008L932.6177 1020.0208C937.4977 1045.4108 960.9377 1061.5208 988.7677 1061.5208ZM1001.4677 996.5808C995.6077 996.5808 992.6777 993.6508 991.2077 988.7708L974.1177 918.4608C954.5877 914.0608 937.0077 907.2308 918.4577 895.0208L856.9377 933.5908C853.0277 936.0308 848.1477 935.5508 844.2377 932.1308L822.2677 909.1808C817.8677 904.7808 817.3877 900.8808 820.3077 896.4808L857.4177 836.4208C853.5177 824.7108 840.3277 803.7108 835.4477 779.7808L765.6277 763.6708C760.7377 762.6908 757.8077 758.7908 757.8077 753.9108V721.6808C757.8077 716.8008 760.7377 712.8908 765.6277 711.9108L835.4477 695.8008C840.3277 671.8708 853.5177 651.3708 857.4177 639.1608L820.3077 579.1008C817.3877 575.1908 817.8677 570.8008 822.2677 566.4108L844.2377 543.9408C848.1477 540.0408 853.0277 539.5508 856.9377 542.4808L918.4577 580.5708C937.0077 568.8508 954.5877 561.5208 974.1177 557.1308L991.2077 486.8208C992.6777 481.9308 995.6077 479.0008 1001.4677 479.0008H1031.7377C1037.5977 479.0008 1040.5277 481.9308 1041.9877 486.8208L1059.0777 557.1308C1078.6177 561.5208 1096.1877 568.8508 1114.7477 580.5708L1176.2677 542.4808C1180.6677 539.5508 1185.0577 540.0408 1188.9677 543.9408L1211.4277 566.4108C1215.3277 570.8008 1215.8177 575.1908 1213.3777 579.1008L1175.7777 639.1608C1180.1777 651.3708 1192.8677 671.8708 1197.7577 695.8008L1267.5777 711.9108C1272.4577 712.8908 1275.3877 716.8008 1275.3877 721.6808V753.9108C1275.3877 758.7908 1272.4577 762.6908 1267.5777 763.6708L1197.7577 779.7808C1192.8677 803.7108 1180.1777 824.7108 1175.7777 836.4208L1213.3777 896.4808C1215.8177 900.8808 1215.3277 904.7808 1211.4277 909.1808L1188.9677 932.1308C1185.0577 935.5508 1180.6677 936.0308 1176.2677 933.5908L1114.7477 895.0208C1096.1877 907.2308 1078.6177 914.0608 1059.0777 918.4608L1041.9877 988.7708C1040.5277 993.6508 1037.5977 996.5808 1031.7377 996.5808ZM1016.5977 852.5408C1079.0977 852.5408 1130.8577 800.7808 1130.8577 737.7908C1130.8577 675.2908 1079.0977 624.0208 1016.5977 624.0208C953.1277 624.0208 901.8577 675.2908 901.8577 737.7908C901.8577 800.2908 953.1277 852.5408 1016.5977 852.5408ZM1016.5977 791.0108C987.3077 791.0108 963.8677 767.0908 963.8677 737.7908C963.8677 708.9808 987.3077 686.0308 1016.5977 686.0308C1044.4377 686.0308 1068.3577 708.9808 1068.3577 737.7908C1068.3577 766.6008 1044.4377 791.0108 1016.5977 791.0108Z"/>
</svg>