<?xml version="1.0" encoding="UTF-8" standalone="no"?>
<svg xmlns="http://www.w3.org/2000/svg"
     width="996.09375" height="996.09375"
     viewBox="0 0 996.09375 996.09375"
     fill="currentColor">
  <path d="M498.0477 996.0959C770.5077 996.0959 996.0977 770.0159 996.0977 498.0459C996.0977 225.5859 770.0177 -0.0041 497.5577 -0.0041C225.5877 -0.0041 -0.0023 225.5859 -0.0023 498.0459C-0.0023 770.0159 226.0777 996.0959 498.0477 996.0959ZM498.0477 913.0859C267.5777 913.0859 83.4977 728.5159 83.4977 498.0459C83.4977 267.5759 267.0877 83.0059 497.5577 83.0059C728.0277 83.0059 913.0877 267.5759 913.0877 498.0459C913.0877 728.5159 728.5177 913.0859 498.0477 913.0859ZM497.5577 771.9759C503.9077 771.9759 509.2777 770.9959 515.6277 770.9959L529.2977 796.8759C533.6877 805.6659 542.4777 810.5459 552.7377 809.0859C562.0077 807.1259 568.8477 799.8059 570.3077 790.0359L574.7077 760.2559C585.9377 757.3259 597.6577 752.9259 608.3977 748.5359L629.8877 767.5759C636.7177 774.9059 645.9977 775.8759 656.2477 770.9959C664.0577 766.6059 667.4777 757.8159 666.0177 747.5559L659.6677 718.2659C670.8977 710.4459 679.6877 702.6359 687.0077 695.7959L714.3577 706.5459C724.1177 710.9359 732.9077 708.4959 740.2377 700.1959C746.5777 692.8759 747.0677 682.6159 741.6977 674.8059L726.0777 649.4159C732.9077 639.1559 738.7677 628.9059 743.6477 618.1659L773.4377 620.1159C783.2077 620.1159 791.9877 614.7459 794.9177 605.4659C798.3377 595.7059 794.9177 586.4259 787.1077 580.5659L764.1577 562.4959C766.5977 551.2659 769.5277 539.0659 770.5077 526.3659L798.3377 518.0659C808.5977 514.6459 813.9677 506.8359 813.9677 497.0659C813.9677 487.3059 808.1077 479.4959 798.3377 476.0759L770.5077 467.2859C769.5277 455.0759 766.5977 443.3559 764.1577 432.1259L787.1077 413.5759C795.4077 407.2259 798.3377 397.9459 794.9177 389.1559C791.9877 379.3959 782.7177 374.0259 772.9477 374.5159L743.6477 375.9759C737.7977 364.2559 731.9377 353.5159 726.0777 344.7259L741.6977 319.3359C747.0677 311.5259 746.0977 301.2659 739.7477 293.9459C732.9077 286.6259 724.1177 283.6959 714.8477 287.5959L687.0077 298.3359C679.1977 290.5259 669.9177 283.2059 659.6677 275.8759L666.0177 247.0659C667.4777 236.3259 664.0577 227.5359 656.2477 223.1459C646.9777 218.2659 636.7177 219.2359 629.8877 226.5659L608.3977 245.1159C597.6577 240.7259 586.4277 236.8159 574.7077 233.8859L570.3077 204.1059C568.8477 194.3359 562.0077 187.0159 552.7377 185.5459C542.9677 184.0859 533.6877 188.9659 529.2977 196.7759L515.6277 223.6359C509.2777 223.1459 504.3977 222.6559 497.5577 222.6559C491.6977 222.6559 485.3477 223.1459 479.9777 223.6359L465.3277 196.7759C461.4277 187.9859 452.1477 184.0859 442.3877 185.5459C433.1077 187.0159 426.2677 194.3359 424.3177 204.1059L420.8977 233.3959C408.6877 236.8159 397.9477 241.2059 386.7177 245.1159L365.2377 227.0459C358.3977 219.7259 348.1477 218.2659 339.3577 223.1459C331.5477 227.5359 327.1477 236.3259 328.6177 247.0659L334.9577 275.8759C325.1977 283.2059 315.4277 290.5259 307.6177 298.3359L280.2777 287.5959C270.9977 283.6959 261.7177 286.6259 255.3677 293.9459C249.0277 300.7859 247.5577 311.0359 252.9277 318.8459L269.0477 344.7259C262.2077 354.9759 256.3477 365.7259 251.4677 375.9759L222.1677 374.5159C212.3977 374.0259 203.6177 379.3959 200.6877 389.1559C196.7777 397.9459 199.7077 406.7359 207.5177 413.5759L230.9577 432.1259C227.5377 444.8259 226.0777 456.0559 224.6077 467.2859L196.7777 476.0759C187.0077 479.4959 181.1477 487.3059 181.1477 497.0659C181.1477 506.8359 187.0077 514.6459 196.7777 518.0659L224.6077 526.8559C226.0777 537.5959 227.5377 549.8059 230.9577 562.4959L207.5177 580.5659C199.7077 586.4259 196.7777 596.1959 200.1977 605.4659C203.6177 614.7459 211.9177 620.1159 221.6777 620.1159L251.4677 618.1659C256.3477 628.9059 262.2077 638.6759 268.5577 649.4159L252.9277 674.8059C247.5577 683.1059 249.0277 693.3559 254.8877 700.1959C261.7177 708.4959 271.4877 710.9359 280.7577 706.5459L307.6177 695.7959C314.9377 702.6359 324.2177 710.4459 334.9577 718.2659L328.6177 747.0659C327.1477 757.3259 331.0577 766.6059 339.3577 770.9959C348.1477 775.8759 358.3977 774.9059 365.2377 767.5759L386.7177 748.5359C397.9477 752.9259 409.1777 757.3259 420.8977 760.7459L424.3177 789.5459C426.2677 799.8059 433.1077 807.1259 442.8677 809.0859C452.6377 810.5459 461.4277 805.6659 465.3277 796.8759L479.9777 770.9959C485.3477 770.9959 491.6977 771.9759 497.5577 771.9759ZM571.2877 473.1459C557.1277 438.9659 530.2777 419.9259 496.5777 419.9259C492.6777 419.9259 487.7977 419.9259 480.9577 421.3859L407.7177 295.8959C435.0577 283.6959 465.3277 276.8559 497.5577 276.8559C611.8177 276.8559 702.6377 361.3259 714.3577 473.1459ZM279.7877 497.5559C279.7877 424.8059 312.9877 360.8359 365.2377 321.2859L439.4577 447.2659C425.7777 462.8859 418.9477 479.4959 418.9477 498.5359C418.9477 516.1159 425.7777 533.2059 439.4577 548.3359L363.2777 671.8759C312.0077 631.8359 279.7877 568.8459 279.7877 497.5559ZM469.7277 498.0459C469.7277 483.3959 482.4177 471.1959 497.0677 471.1959C513.1877 471.1959 525.8777 482.9059 525.8777 498.0459C525.8777 512.6959 513.1877 525.3859 497.0677 525.3859C482.4177 525.3859 469.7277 512.6959 469.7277 498.0459ZM497.5577 717.7759C464.3577 717.7759 433.5977 710.4459 405.7577 697.7559L480.9577 574.7059C487.7977 576.6559 493.1677 576.6559 496.5777 576.6559C530.2777 576.6559 557.1277 556.6359 571.2877 521.4859H714.3577C702.6377 632.8159 611.8177 717.7759 497.5577 717.7759Z"/>
</svg>