<?xml version="1.0" encoding="UTF-8" standalone="no"?>
<svg xmlns="http://www.w3.org/2000/svg"
     width="1347.65625" height="1070.3125"
     viewBox="0 0 1347.65625 1070.3125"
     fill="currentColor">
  <path d="M352.0477 770.017H418.4577C438.9677 770.017 452.1477 758.297 457.0277 739.747L476.5577 659.177C490.2377 654.297 503.4177 649.417 515.1377 642.577L585.9377 686.527C602.0477 696.287 621.0977 694.827 634.7677 681.157L681.6377 633.787C694.8277 620.117 697.2677 600.587 687.0077 583.987L643.5577 514.647C649.4177 502.437 655.2777 489.747 659.1777 476.567L739.7477 457.027C759.2777 452.637 770.5077 438.967 770.5077 418.947V353.027C770.5077 333.497 759.2777 319.337 739.7477 314.937L660.1577 294.917C655.2777 280.277 649.4177 267.577 644.5277 256.837L687.0077 186.037C696.7777 168.947 696.7777 150.877 682.6177 137.207L634.7677 90.327C621.0977 77.637 603.0277 74.217 586.9177 83.987L515.1377 128.417C503.9077 122.067 490.7277 116.697 476.5577 112.307L457.0277 30.277C452.1477 11.717 438.9677 -0.003 418.4577 -0.003H352.0477C331.5477 -0.003 317.8677 11.717 313.4777 30.277L293.9477 111.327C280.2777 116.207 266.5977 121.097 254.8877 127.927L183.5977 83.987C167.4777 74.217 149.4177 77.147 135.7377 90.327L87.8877 137.207C73.7277 150.877 73.7277 168.947 83.4977 186.037L125.9777 256.837C121.0977 267.577 115.2377 280.277 110.3477 294.917L30.2777 314.937C11.2277 319.337 -0.0023 333.497 -0.0023 353.027V418.947C-0.0023 438.967 11.2277 452.637 30.2777 457.027L111.3277 476.567C115.2377 489.747 121.0977 502.437 126.9577 514.647L83.4977 583.987C73.2377 600.587 75.6877 620.117 88.8677 633.787L135.7377 681.157C149.4177 694.827 168.4577 696.287 184.5677 686.527L255.3677 642.577C267.0877 649.417 280.2777 654.297 293.9477 659.177L313.4777 739.747C317.8677 758.297 331.5477 770.017 352.0477 770.017ZM385.2577 507.817C317.8677 507.817 262.2077 452.147 262.2077 384.277C262.2077 317.387 317.8677 262.207 385.2577 262.207C452.6377 262.207 508.2977 317.387 508.2977 384.277C508.2977 452.147 452.6377 507.817 385.2577 507.817ZM989.2577 1070.317H1044.9177C1062.9877 1070.317 1075.1977 1060.057 1078.6177 1044.437L1094.7277 974.607C1107.4177 969.727 1118.6477 965.817 1128.9077 959.957L1189.9377 998.047C1203.6177 1006.837 1219.7277 1005.857 1231.9377 993.657L1270.9977 954.097C1283.2077 941.897 1285.1577 924.807 1275.8777 911.137L1238.2777 850.587C1243.6477 840.327 1248.0477 829.097 1251.9577 817.867L1322.2677 801.267C1338.3777 797.847 1347.6577 785.647 1347.6577 768.067V712.887C1347.6577 695.317 1338.3777 683.107 1322.2677 679.197L1252.4377 662.597C1248.0477 649.907 1243.6477 638.667 1238.7677 629.397L1275.8777 567.867C1285.1577 553.227 1284.6677 538.087 1271.9777 525.877L1231.9377 486.817C1219.7277 475.587 1204.0977 472.657 1190.4277 480.957L1128.9077 519.527C1119.1377 514.647 1107.4177 509.277 1094.7277 505.857L1078.6177 434.567C1075.1977 418.947 1062.9877 408.207 1044.9177 408.207H989.2577C971.6777 408.207 959.4777 418.947 955.5677 434.567L938.9677 504.887C927.2477 509.277 915.0377 513.187 904.7877 519.047L843.2577 480.957C830.0777 473.147 814.4577 475.097 802.2477 486.817L762.6977 525.877C749.9977 538.087 749.5077 553.227 758.2977 567.867L794.9177 629.397C790.5277 638.667 786.1377 649.907 781.7377 662.597L712.3977 679.197C695.7977 683.107 686.0377 695.317 686.0377 712.887V768.067C686.0377 785.647 695.7977 797.847 712.3977 801.267L782.7177 817.867C786.1377 829.097 790.5277 840.327 795.8977 850.587L758.2977 911.137C749.0277 924.807 751.4677 941.897 763.1877 954.097L802.2477 993.657C814.4577 1005.857 830.5677 1006.837 844.2377 998.047L905.2777 959.957C915.5277 965.817 927.2477 969.727 938.9677 974.607L955.5677 1044.437C959.4777 1060.057 971.6777 1070.317 989.2577 1070.317ZM1017.0877 836.917C963.3777 836.917 919.4377 792.967 919.4377 738.767C919.4377 685.547 963.3777 641.597 1017.0877 641.597C1070.7977 641.597 1114.7477 685.547 1114.7477 738.767C1114.7477 792.967 1070.7977 836.917 1017.0877 836.917Z"/>
</svg>