<?xml version="1.0" encoding="UTF-8" standalone="no"?>
<svg xmlns="http://www.w3.org/2000/svg"
     width="1099.609375" height="1083.9699849662254"
     viewBox="0 0 1099.609375 1083.9699849662254"
     fill="currentColor">
  <path d="M549.8077 1017.3302C562.4977 1017.3302 574.7077 1016.3502 587.8877 1015.3702L615.7277 1068.6002C621.5777 1079.8302 631.8377 1085.2002 645.5077 1083.7302C657.7177 1081.2902 666.0177 1072.0102 667.9677 1059.3202L676.2677 1000.2402C700.6877 993.4002 724.6077 984.1202 747.5577 974.3602L791.5077 1013.9102C800.7777 1022.7002 812.4977 1024.1602 824.7077 1017.8202C835.4477 1011.4702 839.8477 1000.2402 837.3977 987.0502L825.1977 928.9502C845.7077 914.7902 865.7277 898.6702 883.7877 880.6102L937.9877 903.0702C950.1977 908.4402 961.9177 905.5102 971.1877 894.7702C979.4877 885.4902 979.9777 873.2802 973.1477 862.0502L941.4077 811.2702C956.0577 791.2502 967.7777 768.7902 979.0077 745.3502L1039.0577 748.2802C1051.7577 749.2602 1062.0077 741.9402 1066.4077 730.2202C1070.3077 718.0102 1066.8977 706.2902 1056.6377 698.4802L1009.7677 661.3702C1016.1177 637.4402 1020.9977 612.5402 1023.4377 586.1702L1079.5877 568.1102C1092.2877 564.2002 1099.6077 554.9202 1099.6077 541.7402C1099.6077 528.5602 1092.2877 519.2802 1079.5877 514.8902L1023.4377 497.3102C1020.9977 470.9402 1016.1177 446.5302 1009.7677 422.1102L1056.6377 385.0002C1066.4077 377.1902 1070.3077 365.9602 1066.4077 353.7502C1062.0077 342.0302 1051.7577 334.7102 1039.0577 335.6902L979.0077 337.6402C967.7777 314.2002 956.0577 292.7202 941.4077 271.7202L973.1477 220.9402C979.9777 210.6902 979.0077 198.4802 971.1877 189.2002C961.9177 178.4602 950.1977 176.0202 937.9877 180.9002L883.7877 202.8702C865.7277 185.3002 845.7077 168.6902 825.1977 154.5302L837.3977 96.9202C840.3277 83.2402 835.4477 72.0102 824.7077 66.1502C812.4977 59.3202 800.7777 60.7802 791.5077 70.0602L747.5577 109.1202C724.6077 98.8702 700.6877 90.5702 676.2677 83.2402L667.9677 24.6502C666.0177 11.9602 657.2277 2.6802 645.0177 0.2402C631.8377 -1.2298 621.0977 4.1402 615.7277 14.8902L587.8877 68.1102C574.7077 67.1302 562.4977 66.6402 549.8077 66.6402C536.6177 66.6402 524.8977 67.1302 511.7177 68.1102L483.3977 14.8902C478.0277 4.1402 467.2877 -1.2298 454.0977 0.2402C441.8977 2.6802 433.1077 11.9602 431.6377 24.6502L422.8477 83.2402C398.4377 90.5702 374.9977 98.3802 351.5577 109.1202L307.6177 70.0602C298.3377 60.7802 286.6177 59.8102 274.4177 66.1502C263.6677 72.0102 258.7877 83.2402 261.7177 96.9202L273.9277 154.5302C253.9077 168.6902 233.3977 185.3002 215.3277 202.8702L161.1377 180.9002C148.9277 176.0202 137.6977 178.4602 128.4177 189.2002C120.1177 198.4802 119.1377 210.6902 125.9777 220.9402L157.7177 271.7202C143.5577 292.7202 131.3477 314.2002 120.1177 337.6402L60.5477 335.6902C47.8477 334.7102 37.1077 342.0302 32.7177 353.7502C28.8077 365.9602 32.7177 377.1902 42.4777 385.0002L89.3577 422.1102C83.0077 446.5302 78.1277 470.9402 76.6577 496.8202L19.5277 514.8902C6.8377 519.2802 -0.0023 528.5602 -0.0023 541.7402C-0.0023 554.9202 6.8377 564.2002 19.5277 568.1102L76.6577 586.1702C78.1277 612.5402 83.0077 637.4402 89.3577 661.3702L42.4777 698.4802C32.7177 705.8002 29.2977 717.5202 32.7177 730.2202C37.1077 741.9402 47.8477 749.2602 60.5477 748.2802L120.1177 745.3502C131.3477 768.7902 143.5577 791.2502 157.7177 811.2702L125.9777 862.0502C119.1377 873.2802 120.1177 885.4902 128.4177 894.7702C137.6977 905.5102 148.9277 908.4402 161.1377 903.0702L215.3277 880.6102C233.3977 898.6702 253.9077 914.7902 273.9277 928.9502L261.7177 987.0502C259.2777 1000.2402 263.6677 1011.4702 274.4177 1017.8202C286.6177 1024.1602 298.3377 1022.7002 307.6177 1013.9102L351.5577 974.3602C374.9977 984.1202 398.4377 993.4002 422.8477 1000.2402L431.6377 1059.3202C433.1077 1072.0102 441.8977 1081.2902 454.0977 1083.7302C467.2877 1085.2002 477.5377 1079.8302 483.3977 1068.6002L511.7177 1015.3702C524.4177 1016.3502 536.6177 1017.3302 549.8077 1017.3302ZM548.8277 414.7902C536.6177 414.7902 524.8977 416.2502 513.6677 419.6702L374.0277 180.9002C426.7577 155.0202 486.3277 140.3702 549.8077 140.3702C762.6977 140.3702 929.1977 301.9902 944.8277 510.0002H672.3677C657.7177 454.8302 607.9077 414.7902 548.8277 414.7902ZM153.3177 542.2302C153.3177 406.0002 217.7777 286.3702 318.8477 213.6202L458.4977 451.9002C435.0577 474.8502 420.8977 507.0702 420.8977 542.7202C420.8977 578.3602 435.0577 610.1002 458.4977 633.5402L315.4277 867.4202C216.3077 794.6702 153.3177 676.5102 153.3177 542.2302ZM548.8277 601.8002C515.1377 601.8002 489.7477 575.9202 489.7477 542.7202C489.7477 509.5102 515.1377 483.6402 548.8277 483.6402C582.0277 483.6402 607.4177 509.5102 607.4177 542.7202C607.4177 575.9202 582.0277 601.8002 548.8277 601.8002ZM549.8077 943.6002C484.8677 943.6002 423.8277 928.4602 370.1177 901.1202L514.1577 665.7602C524.8977 668.6902 536.6177 670.6502 548.8277 670.6502C608.8877 670.6502 659.1777 629.1402 672.8477 572.9902H945.3077C930.1777 781.0002 763.1877 943.6002 549.8077 943.6002Z"/>
</svg>