<?xml version="1.0" encoding="UTF-8" standalone="no"?>
<svg xmlns="http://www.w3.org/2000/svg"
     width="996.09375" height="996.09375"
     viewBox="0 0 996.09375 996.09375"
     fill="currentColor">
  <path d="M498.0477 996.0977C770.5077 996.0977 996.0977 770.5077 996.0977 498.0477C996.0977 226.0777 770.0177 -0.0023 497.5577 -0.0023C225.5877 -0.0023 -0.0023 226.0777 -0.0023 498.0477C-0.0023 770.5077 226.0777 996.0977 498.0477 996.0977ZM471.6777 793.4577C457.5177 793.4577 446.7777 784.6677 443.8477 770.0177L428.7077 708.0077C417.9677 704.0977 406.7377 699.7077 397.9477 695.3077L343.2577 728.5177C332.0277 736.8177 317.8677 735.8377 307.1277 725.5877L271.4877 689.4577C260.7377 679.1977 259.2777 664.5477 268.0677 652.3477L300.7777 598.1477C295.8977 588.8677 291.9877 578.6177 288.5777 567.8677L226.0777 553.2177C211.4277 549.8077 203.6177 539.5477 203.6177 524.8977V473.6377C203.6177 459.4677 211.4277 448.7277 226.0777 445.7977L288.0877 430.6677C291.9877 418.9477 296.8777 408.2077 300.2977 399.8977L267.0877 345.2177C259.2777 333.4977 259.7677 319.8277 270.5077 308.5977L307.1277 272.9477C317.8677 262.6977 330.0777 261.2277 342.7777 268.5577L397.4577 302.2477C406.7377 297.3677 417.9677 292.9677 428.7077 289.0577L443.8477 227.0477C446.7777 212.3977 457.5177 204.0977 471.6777 204.0977H524.4177C538.5777 204.0977 549.3177 212.3977 552.2477 227.0477L567.3877 289.5477C578.6177 293.4577 589.3577 298.3377 598.1477 302.2477L653.3177 268.5577C666.5077 261.2277 678.7077 263.1877 688.9677 272.9477L725.5877 308.5977C736.3277 319.8277 736.8177 333.4977 729.0077 345.2177L695.7977 399.8977C699.2177 408.2077 704.0977 418.9477 708.0077 430.6677L770.0177 445.7977C784.6677 448.7277 792.9677 459.4677 792.9677 473.6377V524.8977C792.9677 539.5477 784.6677 549.8077 770.0177 553.2177L707.5177 567.8677C704.0977 578.6177 700.1977 588.8677 695.3077 598.1477L728.0277 652.3477C736.8177 664.5477 735.3477 679.1977 724.6077 689.4577L688.9677 725.5877C678.7077 735.8377 664.5477 736.8177 652.8277 728.5177L598.1477 695.3077C589.3577 699.7077 578.1277 704.0977 567.3877 708.0077L552.2477 770.0177C549.3177 784.6677 538.5777 793.4577 524.4177 793.4577ZM498.0477 598.1477C552.7377 598.1477 597.6577 552.7377 597.6577 498.0477C597.6577 443.8477 552.7377 399.4177 498.0477 399.4177C443.3577 399.4177 398.4377 443.8477 398.4377 498.0477C398.4377 552.7377 443.3577 598.1477 498.0477 598.1477Z"/>
</svg>