<?xml version="1.0" encoding="UTF-8" standalone="no"?>
<svg xmlns="http://www.w3.org/2000/svg"
     width="938.96484375" height="1023.4375"
     viewBox="0 0 938.96484375 1023.4375"
     fill="currentColor">
  <path d="M212.8883 1023.4416H726.0783C817.8683 1023.4416 868.6483 975.1016 868.6483 882.8116V583.0116H872.0683C915.0383 573.7316 938.9683 539.0616 938.9683 489.2616V360.8416C938.9683 301.2716 905.7583 263.6716 846.1883 263.6716H747.5583C773.4383 237.7916 788.5783 202.6416 788.5783 162.1116C788.5783 67.3816 713.8683 0.0016 619.1383 0.0016C550.7783 0.0016 494.1383 37.6016 469.2383 103.0316C444.3383 37.6016 388.1883 0.0016 319.3383 0.0016C225.0983 0.0016 149.8983 67.3816 149.8983 162.1116C149.8983 202.6416 165.0383 237.7916 191.4083 263.6716H92.7783C35.6483 263.6716 -0.0017 301.2716 -0.0017 360.8416V489.2616C-0.0017 539.0616 23.4383 573.7316 66.4083 583.0116H69.8283V882.8116C69.8283 975.1016 120.6083 1023.4416 212.8883 1023.4416ZM429.1983 263.6716H353.0283C276.3683 263.6716 231.4483 220.2116 231.4483 166.5016C231.4483 112.7916 270.5083 81.5416 324.2183 81.5416C382.3283 81.5416 429.1983 125.4916 429.1983 197.7516ZM509.2783 263.6716V197.7516C509.2783 125.4916 556.1483 81.5416 614.2583 81.5416C667.9683 81.5416 707.0283 112.7916 707.0283 166.5016C707.0283 220.2116 662.5983 263.6716 585.4483 263.6716ZM425.7783 512.6916H112.7883C88.3783 512.6916 78.6183 502.4416 78.6183 478.0316V371.5816C78.6183 347.1716 88.3783 337.4016 112.7883 337.4016H425.7783ZM512.6983 512.6916V337.4016H826.6583C851.0783 337.4016 860.3483 347.1716 860.3483 371.5816V478.0316C860.3483 502.4416 851.0783 512.6916 826.6583 512.6916ZM425.7783 950.1916H211.9183C171.3883 950.1916 148.4383 927.2416 148.4383 886.7216V586.4216H425.7783ZM512.6983 950.1916V586.4216H790.0383V886.7216C790.0383 927.2416 767.0883 950.1916 726.5583 950.1916Z"/>
</svg>