<?xml version="1.0" encoding="UTF-8" standalone="no"?>
<svg xmlns="http://www.w3.org/2000/svg"
     width="1147.4609375" height="833.984375"
     viewBox="0 0 1147.4609375 833.984375"
     fill="currentColor">
  <path d="M153.3183 833.983H994.1383C1096.6783 833.983 1147.4583 783.693 1147.4583 683.103V151.363C1147.4583 50.783 1096.6783 0.003 994.1383 0.003H153.3183C51.2683 0.003 -0.0017 50.783 -0.0017 151.363V683.103C-0.0017 783.693 51.2683 833.983 153.3183 833.983ZM154.2983 78.613H543.9483V246.093C512.2083 183.593 457.0283 145.023 395.5083 145.023C325.6883 145.023 272.9483 197.263 272.9483 268.553C272.9483 330.083 316.4083 380.863 377.9283 408.693H78.6183V155.763C78.6183 104.983 105.4683 78.613 154.2983 78.613ZM769.0383 408.693C831.0583 380.863 874.0283 330.083 874.0283 268.553C874.0283 197.263 821.7783 145.023 751.4683 145.023C690.4283 145.023 635.2583 183.593 603.0283 246.093V78.613H993.1683C1041.0183 78.613 1068.8483 104.983 1068.8483 155.763V408.693ZM520.5083 401.363C424.3183 401.363 341.7983 335.453 341.7983 273.923C341.7983 236.813 364.2583 214.353 399.4183 214.353C471.6783 214.353 535.1583 294.923 535.1583 387.693V401.363ZM626.4683 401.363H611.8183V387.693C611.8183 294.923 675.2883 214.353 747.5583 214.353C783.1983 214.353 805.1783 236.813 805.1783 273.923C805.1783 335.453 723.1483 401.363 626.4683 401.363ZM993.1683 755.373H603.0283V496.583H606.9383C639.1583 597.163 759.7683 684.573 834.9583 696.293C862.7883 700.193 879.8783 680.173 879.8783 658.693C879.8783 635.253 865.7183 619.633 840.3283 617.183C772.9483 609.863 678.7083 521.973 650.3883 462.403H1068.8483V678.713C1068.8483 729.493 1041.0183 755.373 993.1683 755.373ZM154.2983 755.373C105.4683 755.373 78.6183 729.493 78.6183 678.713V462.403H497.0683C468.2583 521.973 374.5083 609.863 306.6383 617.183C281.7383 619.633 267.5783 635.253 267.5783 658.693C267.5783 680.173 284.6683 700.193 312.4983 696.293C387.6983 684.573 508.2983 597.163 540.5283 496.583H543.9483V755.373Z"/>
</svg>