<?xml version="1.0" encoding="UTF-8" standalone="no"?>
<svg xmlns="http://www.w3.org/2000/svg"
     width="996.09375" height="996.09375"
     viewBox="0 0 996.09375 996.09375"
     fill="currentColor">
  <path d="M498.0477 996.0977C770.5077 996.0977 996.0977 770.5077 996.0977 498.0477C996.0977 226.0777 770.0177 -0.0023 497.5577 -0.0023C225.5877 -0.0023 -0.0023 226.0777 -0.0023 498.0477C-0.0023 770.5077 226.0777 996.0977 498.0477 996.0977ZM256.8377 458.0077V397.4577C256.8377 371.0977 272.9477 359.8677 299.3177 359.8677H357.4177C342.7777 346.1877 334.4777 326.6577 334.4777 305.1777C334.4777 256.3477 372.5577 221.6777 420.8977 221.6777C456.0577 221.6777 484.8677 241.2077 498.0477 275.3877C511.2277 241.2077 540.5277 221.6777 575.6877 221.6777C623.5377 221.6777 661.6177 256.3477 661.6177 305.1777C661.6177 326.6577 653.8077 346.1877 638.6677 359.8677H697.2677C724.6077 359.8677 739.2577 371.0977 739.2577 397.4577V458.0077C739.2577 485.3477 724.6077 495.6077 697.2677 495.6077H518.5577V359.8677H477.5377V323.7277C477.5377 286.6177 453.6177 263.1877 423.3377 263.1877C395.9977 263.1877 375.4877 279.7877 375.4877 307.1277C375.4877 335.4477 398.9277 359.8677 438.4777 359.8677H477.5377V495.6077H299.3177C271.9777 495.6077 256.8377 485.3477 256.8377 458.0077ZM557.6177 359.8677C597.1677 359.8677 620.6077 335.4477 620.6077 307.1277C620.6077 279.7877 600.5877 263.1877 573.2377 263.1877C542.4777 263.1877 518.5577 286.6177 518.5577 323.7277V359.8677ZM292.4777 684.0777V522.4577H477.5377V748.0477H358.8877C317.3877 748.0477 292.4777 726.0777 292.4777 684.0777ZM518.5577 748.0477V522.4577H703.6177V684.0777C703.6177 726.0777 678.7077 748.0477 637.2077 748.0477Z"/>
</svg>