<?xml version="1.0" encoding="UTF-8" standalone="no"?>
<svg xmlns="http://www.w3.org/2000/svg"
     width="996.09375" height="996.09375"
     viewBox="0 0 996.09375 996.09375"
     fill="currentColor">
  <path d="M498.0477 996.0959C770.5077 996.0959 996.0977 770.0159 996.0977 498.0459C996.0977 225.5859 770.0177 -0.0041 497.5577 -0.0041C225.5877 -0.0041 -0.0023 225.5859 -0.0023 498.0459C-0.0023 770.0159 226.0777 996.0959 498.0477 996.0959ZM498.0477 929.6859C262.2077 929.6859 66.4077 733.8859 66.4077 498.0459C66.4077 404.2959 97.1677 316.8959 149.4177 245.6059C146.9777 295.4059 185.5477 350.0959 251.9577 407.7159L323.2377 469.7259C345.7077 489.7459 358.8877 499.0259 358.8877 511.7159C358.8877 532.7159 335.4477 547.3659 335.4477 574.2159C335.4477 598.6359 347.1677 619.6259 372.5577 638.1859C451.6577 697.7559 470.7077 706.0559 470.7077 724.1259C471.1877 756.3459 452.1477 780.7659 452.1477 810.5459C452.1477 837.4059 486.8177 867.1859 517.5777 867.1859C580.0777 867.1859 750.9777 642.5759 750.9777 558.5959C750.9777 511.2259 645.5077 418.9459 590.3277 418.9459C566.4077 418.9459 527.8277 453.1259 499.9977 453.1259C472.1677 453.1259 409.6677 398.4359 409.6677 374.5159C409.6677 360.8359 421.3877 353.0259 435.0577 353.0259C458.9877 353.0259 496.5777 393.0659 534.6677 393.0659C566.4077 393.0659 583.4977 371.0959 583.4977 339.3559C583.4977 322.7559 574.2177 306.1559 560.5477 284.6659C609.8677 260.7459 708.0077 209.4759 742.6777 144.0459C854.9777 222.1659 929.6877 352.5359 929.6877 498.0459C929.6877 733.8859 733.8877 929.6859 498.0477 929.6859Z"/>
</svg>