<?xml version="1.0" encoding="UTF-8" standalone="no"?>
<svg xmlns="http://www.w3.org/2000/svg"
     width="996.09375" height="996.09375"
     viewBox="0 0 996.09375 996.09375"
     fill="currentColor">
  <path d="M498.0477 996.0959C770.5077 996.0959 996.0977 770.0159 996.0977 498.0459C996.0977 225.5859 770.0177 -0.0041 497.5577 -0.0041C225.5877 -0.0041 -0.0023 225.5859 -0.0023 498.0459C-0.0023 770.0159 226.0777 996.0959 498.0477 996.0959ZM66.4077 498.0459C66.4077 262.2059 261.7177 66.4059 497.5577 66.4059C554.6877 66.4059 609.8677 78.1259 660.1577 98.6359C645.0177 110.3559 635.7377 123.5359 635.7377 138.1859C635.7377 177.2459 708.0077 199.7059 708.0077 223.1459C708.0077 245.6059 666.5077 270.9959 635.7377 287.5959C583.4977 317.3859 587.3977 331.0559 580.5677 346.1959C568.3577 368.1659 544.4377 322.7559 503.9077 322.7559C479.4877 322.7559 460.9377 338.3759 460.9377 362.7959C460.9377 400.3859 505.3677 435.5459 505.3677 461.9159C505.3677 493.1659 469.2377 523.4359 407.2277 523.4359C373.0477 523.4359 354.4877 538.5759 354.4877 564.9459C354.4877 590.8159 386.7177 615.2359 386.7177 627.9259C386.7177 637.2059 379.3977 646.4859 373.5377 646.4859C363.2777 646.4859 340.8177 627.9259 304.6877 582.0359C272.9477 540.5259 243.6477 517.0859 213.8677 517.0859C171.8777 517.0859 145.5077 551.7559 130.3677 579.5859L93.7477 647.4559C76.1677 600.5859 66.4077 550.2959 66.4077 498.0459ZM498.0477 929.6859C335.4477 929.6859 191.8977 836.4259 118.6477 701.6559L166.9877 608.8859C180.6677 583.0059 195.3077 566.4059 210.9377 566.4059C226.0777 566.4059 242.1877 582.0359 265.6277 612.3059C310.5477 670.4059 341.3077 700.1959 372.5577 700.1959C402.8277 700.1959 437.9877 657.2259 437.9877 627.9259C437.9877 606.4459 408.6877 586.4259 408.6877 575.6859C408.6877 570.7959 413.0877 567.8759 421.3877 567.8759C492.6777 567.8759 554.6877 509.2759 554.6877 461.9159C554.6877 417.4759 506.3477 383.7859 506.3477 368.6559C506.3477 365.7259 508.7877 363.2859 511.7177 363.2859C516.1177 363.2859 521.9777 368.1659 533.2077 376.9559C587.8877 420.4059 615.2377 395.9959 620.1177 368.6559C622.0677 357.9059 627.9277 347.1659 654.7877 333.4959C705.5677 307.1259 757.3277 261.2259 757.3277 223.1459C757.3277 173.8259 690.9177 152.8359 690.9177 141.1159C690.9177 135.7459 698.7277 130.8559 713.8677 125.4859C842.2877 201.1759 929.6877 340.8159 929.6877 498.0459C929.6877 542.9659 922.8477 586.4259 909.6677 626.9559C894.5277 602.0459 872.5577 588.3759 846.6777 588.3759C835.4477 588.3759 820.7977 590.3359 807.6177 594.7259C791.5077 600.0959 789.0577 599.1259 776.3677 584.4759C756.3477 561.5259 738.7677 553.2259 710.9377 553.2259C661.6177 553.2259 629.8877 577.1459 606.4477 647.4559C600.5877 666.5059 592.2877 672.8559 558.5977 685.5459L538.0877 692.8759C499.5077 707.5159 488.2777 735.8359 501.9577 795.4059C514.1577 847.6559 539.5477 874.0259 575.1977 874.0259C606.9377 874.0259 625.9777 862.7959 646.9777 862.7959C666.0177 862.3059 678.7077 869.6259 690.9177 883.2959C632.8077 912.5959 567.3877 929.6859 498.0477 929.6859ZM615.7277 468.2659C647.4577 468.2659 661.6177 439.9459 697.2677 429.1959C720.7077 422.3659 733.3977 398.4359 733.3977 377.9259C733.3977 361.3259 725.0977 347.1659 707.0277 347.1659C687.9877 347.1659 670.4077 361.8159 658.6877 386.7159C652.3477 400.8759 641.5977 407.7159 615.7277 415.0359C595.2177 421.3859 587.8877 428.7059 587.8877 444.3359C587.8877 460.9359 601.0777 468.2659 615.7277 468.2659ZM474.1177 693.8459C501.9577 693.8459 529.2977 661.6259 529.2977 632.8159C529.2977 597.1659 514.6477 580.5659 497.5577 580.5659C479.0077 580.5659 467.2877 602.5359 467.2877 635.7459C467.2877 654.7859 450.6877 655.2759 450.6877 674.3159C450.6877 686.0359 459.9577 693.8459 474.1177 693.8459ZM646.9777 812.4959C611.3277 812.4959 604.0077 824.2159 579.5877 824.2159C564.9377 824.2159 557.1277 811.5259 550.7777 784.6659C544.9177 761.2259 542.4777 744.1359 557.6177 737.7959C575.1977 730.9559 634.2777 724.1259 654.2977 661.6259C668.4577 619.1359 681.6377 602.5359 705.0777 602.5359C747.0677 602.5359 740.2377 646.9759 790.5277 646.9759C812.4977 646.9759 824.2177 637.6959 839.8477 637.6959C859.3777 637.6959 873.5377 655.7659 878.9077 699.2159C844.7277 763.1859 794.4377 817.8759 734.3777 857.9059C714.8477 834.4759 688.9677 812.4959 646.9777 812.4959ZM388.6677 783.2059C410.1577 783.2059 423.3377 771.9759 423.3377 754.3959C423.3377 740.7259 413.0877 731.9359 398.4377 731.9359C339.3577 731.9359 336.9177 698.7259 308.5977 698.7259C292.9677 698.7259 282.2277 708.0059 282.2277 721.6759C282.2277 732.4259 292.9677 740.7259 307.6177 740.7259C338.8677 740.7259 324.2177 783.2059 388.6677 783.2059Z"/>
</svg>