<?xml version="1.0" encoding="UTF-8" standalone="no"?>
<svg xmlns="http://www.w3.org/2000/svg"
     width="996.09375" height="996.09375"
     viewBox="0 0 996.09375 996.09375"
     fill="currentColor">
  <path d="M498.0477 996.0959C770.5077 996.0959 996.0977 770.0159 996.0977 498.0459C996.0977 225.5859 770.0177 -0.0041 497.5577 -0.0041C225.5877 -0.0041 -0.0023 225.5859 -0.0023 498.0459C-0.0023 770.0159 226.0777 996.0959 498.0477 996.0959ZM488.2777 603.5159C477.0477 531.2459 440.9177 550.2959 422.3677 501.4659L395.0177 431.6359C384.2777 402.8359 364.7477 392.0859 343.7477 392.0859C321.2877 392.0859 303.2277 408.6959 294.9177 408.6959C288.0877 408.6959 264.1577 387.2059 250.9777 375.4859C229.0077 355.9559 208.4977 339.8459 186.0377 339.8459C150.3877 339.8459 119.6277 374.5159 119.6277 405.7659C119.6277 454.1059 222.6577 497.5559 222.6577 527.8359C222.6577 564.9459 175.2977 560.0559 175.2977 632.3259C175.2977 682.6159 151.3677 690.4259 115.7277 696.7759C84.4777 637.2059 66.4077 569.3359 66.4077 498.0459C66.4077 410.1559 93.7477 328.1259 139.6477 259.2759C153.3177 282.7159 174.8077 298.3359 200.1977 298.3359C230.4677 298.3359 256.3477 278.3159 263.6677 248.0459C267.0877 235.3559 270.5077 229.9759 280.2777 224.1259C301.2677 212.4059 311.0377 199.2159 311.0377 176.2659C311.0377 159.1759 302.2477 142.0859 286.6177 122.5559C349.1177 86.9159 421.3877 66.4059 497.5577 66.4059C733.3977 66.4059 929.6877 262.2059 929.6877 498.0459C929.6877 543.4559 922.3677 587.8859 908.6877 629.3959C789.5477 614.2559 815.4277 483.8859 727.0477 483.8859C670.4077 483.8859 568.8477 580.5659 568.8477 669.9259C568.8477 735.8359 562.9877 758.7859 542.4777 758.7859C517.0877 758.7859 503.9077 708.9859 488.2777 603.5159ZM261.7177 174.3159C261.7177 190.9159 230.9577 188.9659 224.1177 224.1259C220.7077 241.2059 209.4777 249.0259 199.7077 249.0259C190.9177 249.0259 174.8077 238.7659 173.3377 215.3359C195.3077 190.4259 219.7277 167.9659 246.0977 148.9259C256.8377 159.6659 261.7177 166.0159 261.7177 174.3159ZM498.0477 929.6859C352.0477 929.6859 220.7077 854.0059 142.5777 740.7259C195.3077 725.5859 224.6077 696.2859 224.6077 633.7859C224.6077 581.0559 271.9777 577.1459 271.9777 522.4559C271.9777 498.0459 248.5377 478.5159 207.5177 444.8259L175.2977 418.9459C171.3877 416.0159 168.9477 411.1359 168.9477 406.7359C168.9477 397.4559 177.2477 389.1559 186.0377 389.1559C192.8677 389.1559 199.2177 395.5059 220.7077 414.0659C255.3677 443.3559 273.4377 459.4759 295.8977 459.4759C319.3377 459.4759 326.6577 445.7959 338.8677 445.7959C346.1877 445.7959 351.0777 450.1959 354.9777 460.9359L374.5077 514.6459C395.0177 574.2159 433.1077 568.8459 439.9377 611.3259C460.4477 751.4659 484.8677 808.1059 542.4777 808.1059C599.6077 808.1059 618.1677 755.8559 618.1677 669.9259C618.1677 603.0259 697.7577 533.2059 727.0477 533.2059C759.7677 533.2059 774.4177 652.3459 890.6277 675.7859C821.7777 824.7059 670.4077 929.6859 498.0477 929.6859Z"/>
</svg>