<?xml version="1.0" encoding="UTF-8" standalone="no"?>
<svg xmlns="http://www.w3.org/2000/svg"
     width="1426.9397967556413" height="891.6015625"
     viewBox="0 0 1426.9397967556413 891.6015625"
     fill="currentColor">
  <path d="M1284.0426 78.6098C1314.8026 78.6098 1345.0826 82.5198 1374.3726 89.8398C1428.5726 103.5198 1451.0326 28.8098 1391.9526 12.6998C1364.1226 5.3698 1324.0826 -0.0002 1284.0426 -0.0002C1178.5726 -0.0002 1079.9426 37.1098 998.8926 99.6098C917.8326 37.1098 819.2026 -0.0002 713.2426 -0.0002C607.7726 -0.0002 509.1426 37.1098 428.0826 99.6098C347.0326 37.1098 248.4026 -0.0002 142.9326 -0.0002C102.8926 -0.0002 62.8526 5.3698 35.0226 12.6998C-24.0574 28.8098 -1.5974 103.5198 52.1126 89.8398C81.8926 82.5198 112.1726 78.6098 142.9326 78.6098C225.4526 78.6098 303.0826 105.9598 368.5126 153.3198C272.3226 254.3898 212.2626 396.9698 212.2626 553.2198C212.2626 754.8798 297.7126 891.5998 428.5726 891.5998C558.4626 891.5998 643.9026 754.8798 643.9026 553.2198C643.9026 396.9698 583.8526 254.8798 487.6526 153.3198C553.0826 105.9598 630.7226 78.6098 713.2426 78.6098C796.2526 78.6098 873.8926 105.9598 939.3126 153.3198C843.1226 254.8798 782.5826 396.9698 782.5826 553.2198C782.5826 754.8798 868.0326 891.5998 998.4026 891.5998C1129.2626 891.5998 1214.7126 754.8798 1214.7126 553.2198C1214.7126 396.9698 1154.6526 254.3898 1058.4626 153.3198C1123.8926 105.9598 1201.5226 78.6098 1284.0426 78.6098ZM290.8826 553.2198C290.8826 416.4998 344.1026 291.9898 428.0826 205.0798C512.0726 291.9898 565.2926 416.4998 565.2926 553.2198C565.2926 709.9598 509.1426 812.9898 428.5726 812.9898C347.5226 812.9898 290.8826 709.4698 290.8826 553.2198ZM861.1926 553.2198C861.1926 416.4998 914.4126 291.9898 998.8926 205.0798C1082.8726 291.9898 1136.0926 416.4998 1136.0926 553.2198C1136.0926 709.4698 1078.9626 812.9898 998.4026 812.9898C917.8326 812.9898 861.1926 709.9598 861.1926 553.2198Z"/>
</svg>