<?xml version="1.0" encoding="UTF-8" standalone="no"?>
<svg xmlns="http://www.w3.org/2000/svg"
     width="996.09375" height="1090.7726005955958"
     viewBox="0 0 996.09375 1090.7726005955958"
     fill="currentColor">
  <path d="M-0.0023 592.7248C-0.0023 865.1848 226.0777 1090.7748 498.0477 1090.7748C770.5077 1090.7748 996.0977 865.1848 996.0977 592.7248C996.0977 352.4948 820.7977 148.8748 592.2877 103.9548V34.6248C592.2877 -0.0452 568.3577 -9.3252 541.9877 9.7148L386.2277 118.6048C363.7677 134.2248 363.2777 157.6648 386.2277 173.7848L541.5077 283.1548C568.3577 302.6848 592.2877 293.4048 592.2877 258.2548V188.9148C776.8577 230.9048 912.5977 394.9748 912.5977 592.7248C912.5977 823.1948 728.5177 1007.7648 498.0477 1007.7648C267.5777 1007.7648 82.5177 823.1948 83.0077 592.7248C83.4977 454.0548 150.8777 331.4948 254.8877 257.2748C274.8977 242.1348 281.2477 219.1948 269.0477 198.6848C256.8377 178.6648 229.9777 173.2948 208.4977 189.8948C83.0077 281.2048 -0.0023 428.6648 -0.0023 592.7248ZM618.6477 798.2948C699.7077 798.2948 752.9277 721.6348 752.9277 604.4448C752.9277 486.2848 699.7077 408.6448 618.6477 408.6448C537.5977 408.6448 484.3777 486.2848 484.3777 604.4448C484.3777 721.6348 537.5977 798.2948 618.6477 798.2948ZM364.2577 792.4348C383.2977 792.4348 395.5077 779.2448 395.5077 758.7448V451.6148C395.5077 427.6848 382.8077 412.5548 360.8377 412.5548C347.6577 412.5548 338.3777 416.9448 320.3077 428.6648L252.9277 474.0748C242.1877 481.8848 236.8177 490.6748 236.8177 502.3948C236.8177 518.5048 249.5077 532.1748 265.1377 532.1748C274.4177 532.1748 278.8077 530.2248 288.5777 523.3848L333.9877 490.1848V758.7448C333.9877 778.7648 345.7077 792.4348 364.2577 792.4348ZM618.6477 739.2148C575.6877 739.2148 547.8477 687.9448 547.8477 604.4448C547.8477 519.4848 575.1977 467.7248 618.6477 467.7248C662.1077 467.7248 688.9677 518.9948 688.9677 604.4448C688.9677 687.9448 661.6177 739.2148 618.6477 739.2148Z"/>
</svg>