<?xml version="1.0" encoding="UTF-8" standalone="no"?>
<svg xmlns="http://www.w3.org/2000/svg"
     width="996.09375" height="1090.7726005955958"
     viewBox="0 0 996.09375 1090.7726005955958"
     fill="currentColor">
  <path d="M-0.0023 592.7248C-0.0023 865.1848 226.0777 1090.7748 498.0477 1090.7748C770.5077 1090.7748 996.0977 865.1848 996.0977 592.7248C996.0977 352.4948 820.7977 148.8748 592.2877 103.9548V34.6248C592.2877 -0.0452 568.3577 -9.3252 541.9877 9.7148L386.2277 118.6048C363.7677 134.2248 363.2777 157.6648 386.2277 173.7848L541.5077 283.1548C568.3577 302.6848 592.2877 293.4048 592.2877 258.2548V188.9148C776.8577 230.9048 912.5977 394.9748 912.5977 592.7248C912.5977 823.1948 728.5177 1007.7648 498.0477 1007.7648C267.5777 1007.7648 82.5177 823.1948 83.0077 592.7248C83.4977 454.0548 150.8777 331.4948 254.8877 257.2748C274.8977 242.1348 281.2477 219.1948 269.0477 198.6848C256.8377 178.6648 229.9777 173.2948 208.4977 189.8948C83.0077 281.2048 -0.0023 428.6648 -0.0023 592.7248ZM632.8077 798.7848C713.8677 798.7848 767.0877 746.5348 767.0877 667.9248C767.0877 596.1448 718.7477 544.8748 648.9277 544.8748C620.1177 544.8748 588.8677 558.0548 574.7077 580.0348L583.0077 474.5648H729.0077C743.6477 474.5648 755.8577 462.8448 755.8577 446.2448C755.8577 429.6348 743.6477 418.8948 729.0077 418.8948H572.7577C547.3677 418.8948 533.2077 433.5448 531.2477 459.4248L520.5077 600.0548C518.5577 624.4648 531.2477 636.1848 552.2477 636.1848C568.3577 636.1848 575.6877 633.2548 589.3577 622.5148C608.3977 605.4248 623.0477 598.5848 642.5777 598.5848C680.6677 598.5848 706.0577 626.4148 706.0577 668.8948C706.0577 711.8648 675.7777 743.1148 635.7377 743.1148C606.4477 743.1148 582.0277 726.5148 569.3377 701.1248C562.0077 688.4248 553.2277 681.5948 541.0177 681.5948C524.8977 681.5948 513.6677 693.3148 513.6677 709.9148C513.6677 716.7448 515.1377 723.0948 517.5777 729.4448C530.7577 764.6048 573.7277 798.7848 632.8077 798.7848ZM292.9677 797.3148C306.1477 797.3148 315.4277 790.9648 323.7277 774.3648L460.9377 493.1148C467.2877 479.9348 469.7277 471.1448 469.7277 460.8848C469.7277 436.9648 451.6577 419.3848 427.7377 419.3848H246.5777C232.4177 419.3848 222.1677 431.1048 222.1677 446.7248C222.1677 462.8448 232.4177 474.0748 246.5777 474.0748H401.3677L266.5977 744.0948C262.6977 751.4148 260.7377 757.2748 260.7377 765.5748C260.7377 783.6448 274.4177 797.3148 292.9677 797.3148Z"/>
</svg>