<?xml version="1.0" encoding="UTF-8" standalone="no"?>
<svg xmlns="http://www.w3.org/2000/svg"
     width="996.09375" height="1090.6147250863723"
     viewBox="0 0 996.09375 1090.6147250863723"
     fill="currentColor">
  <path d="M-0.0023 592.5669C-0.0023 865.0269 226.0777 1090.6169 498.0477 1090.6169C770.5077 1090.6169 996.0977 865.0269 996.0977 592.5669C996.0977 428.5069 913.0877 281.0469 787.5977 189.7369C766.1177 173.1369 739.2577 178.5069 727.0477 198.5269C714.8477 219.0369 721.1877 241.9769 741.2077 257.1169C845.2177 331.3369 912.5977 453.8969 913.0877 592.5669C913.5777 823.0369 728.5177 1007.6069 498.0477 1007.6069C267.5777 1007.6069 83.4977 823.0369 83.4977 592.5669C83.4977 394.8169 219.2377 230.7469 403.8077 188.7569V258.5869C403.8077 293.2469 427.7377 302.5269 454.5877 283.4869L610.3477 174.1069C632.3277 158.9769 632.8077 135.5369 610.3477 119.4269L455.0777 10.0469C427.7377 -9.4831 403.8077 -0.2031 403.8077 34.9469V103.7969C175.2977 148.7169 -0.0023 352.3369 -0.0023 592.5669ZM343.7477 798.1369C420.4077 798.1369 475.0977 751.7469 475.0977 685.8269C475.0977 640.4169 444.8277 602.8169 401.8577 595.0069C436.5277 585.2469 462.8877 549.1069 462.8877 508.0969C462.8877 449.4969 415.0377 408.4869 346.6777 408.4869C287.5977 408.4869 238.2777 441.6869 228.0277 489.0569C226.5577 494.9069 226.0777 499.7969 226.0777 505.1669C226.0777 522.7469 237.3077 534.9469 253.9077 534.9469C268.0677 534.9469 276.8577 527.6269 282.2277 511.9969C292.4777 481.2369 312.9877 465.1269 345.2177 465.1269C379.3977 465.1269 402.8277 485.6369 402.8277 515.4169C402.8277 546.6669 379.3977 569.6169 344.7277 569.6169H323.7277C307.6177 569.6169 296.8777 580.8469 296.8777 597.9369C296.8777 614.0569 308.1077 626.2569 323.7277 626.2569H347.1677C388.1877 626.2569 414.0577 649.2069 414.0577 683.3869C414.0577 716.5869 384.7677 741.9769 344.2377 741.9769C310.0577 741.9769 285.6477 724.8969 274.8977 694.6169C269.0477 678.5069 260.2577 671.6669 247.0677 671.6669C230.4677 671.6669 218.7477 684.3669 218.7477 701.4569C218.7477 706.8269 219.2377 712.1969 220.7077 717.5669C231.4477 763.4669 284.1777 798.1369 343.7477 798.1369ZM658.6877 798.1369C739.7477 798.1369 792.9677 721.4769 792.9677 604.2869C792.9677 486.1269 739.7477 408.4869 658.6877 408.4869C577.1477 408.4869 524.4177 485.6369 524.4177 604.2869C524.4177 721.4769 577.6377 798.1369 658.6877 798.1369ZM658.6877 739.0569C615.7277 739.0569 587.8877 687.7869 587.8877 604.2869C587.8877 519.3269 615.2377 467.5669 658.6877 467.5669C702.1477 467.5669 729.0077 518.8369 729.0077 604.2869C729.0077 687.7869 701.6577 739.0569 658.6877 739.0569Z"/>
</svg>