<?xml version="1.0" encoding="UTF-8" standalone="no"?>
<svg xmlns="http://www.w3.org/2000/svg"
     width="996.09375" height="1090.6147250863723"
     viewBox="0 0 996.09375 1090.6147250863723"
     fill="currentColor">
  <path d="M-0.0023 592.5669C-0.0023 865.0269 226.0777 1090.6169 498.0477 1090.6169C770.5077 1090.6169 996.0977 865.0269 996.0977 592.5669C996.0977 428.5069 913.0877 281.0469 787.5977 189.7369C766.1177 173.1369 739.2577 178.5069 727.0477 198.5269C714.8477 219.0369 721.1877 241.9769 741.2077 257.1169C845.2177 331.3369 912.5977 453.8969 913.0877 592.5669C913.5777 823.0369 728.5177 1007.6069 498.0477 1007.6069C267.5777 1007.6069 83.4977 823.0369 83.4977 592.5669C83.4977 394.8169 219.2377 230.7469 403.8077 188.7569V258.5869C403.8077 293.2469 427.7377 302.5269 454.5877 283.4869L610.3477 174.1069C632.3277 158.9769 632.8077 135.5369 610.3477 119.4269L455.0777 10.0469C427.7377 -9.4831 403.8077 -0.2031 403.8077 34.9469V103.7969C175.2977 148.7169 -0.0023 352.3369 -0.0023 592.5669ZM353.0277 792.7669C372.0677 792.7669 384.2777 779.5769 384.2777 759.0669V450.9669C384.2777 426.0669 371.5777 412.8769 349.6077 412.8769C335.9377 412.8769 326.1677 417.2769 309.0777 428.9969L241.6977 474.4069C230.4677 482.7069 225.0977 491.4969 225.0977 502.7269C225.0977 518.8369 238.2777 532.5069 253.9077 532.5069C263.1877 532.5069 268.0677 530.5569 277.3477 523.2269L323.2377 489.5369V759.0669C323.2377 779.0869 334.9577 792.7669 353.0277 792.7669ZM601.0777 798.6269C682.1277 798.6269 735.8377 746.3769 735.8377 667.7669C735.8377 595.9869 687.4977 544.7169 617.6777 544.7169C588.8677 544.7169 557.6177 557.8969 542.9677 579.8769L551.2677 474.4069H697.7577C711.9177 474.4069 724.1177 462.6869 724.1177 446.0869C724.1177 429.4769 711.9177 418.7369 697.7577 418.7369H541.5077C516.1177 418.7369 501.9577 433.3869 499.5077 459.2669L489.2577 599.8969C486.8177 624.3069 499.5077 636.0269 520.9977 636.0269C537.1077 636.0269 543.9477 633.0969 558.1077 622.3569C576.6577 605.2669 591.7977 598.4269 611.3277 598.4269C648.9277 598.4269 674.3177 626.2569 674.3177 668.7369C674.3177 711.7069 644.5277 742.9569 604.0077 742.9569C575.1977 742.9569 550.2977 726.3569 537.5977 700.9669C530.2777 688.2669 521.4877 681.4369 509.2777 681.4369C493.1677 681.4369 481.9377 693.1569 481.9377 709.7569C481.9377 716.5869 483.3977 722.9369 486.3277 729.2869C499.0277 764.4469 541.9877 798.6269 601.0777 798.6269Z"/>
</svg>