<?xml version="1.0" encoding="UTF-8" standalone="no"?>
<svg xmlns="http://www.w3.org/2000/svg"
     width="996.09375" height="996.09375"
     viewBox="0 0 996.09375 996.09375"
     fill="currentColor">
  <path d="M498.0477 996.0977C770.5077 996.0977 996.0977 770.5077 996.0977 498.0477C996.0977 226.0777 770.0177 -0.0023 497.5577 -0.0023C225.5877 -0.0023 -0.0023 226.0777 -0.0023 498.0477C-0.0023 770.5077 226.0777 996.0977 498.0477 996.0977ZM181.1477 411.1377C181.1477 399.8977 188.4777 387.2077 203.6177 380.3677L434.5677 274.8977C458.9877 264.1577 478.0277 258.7877 497.5577 259.2777C517.0877 258.7877 536.6177 264.1577 560.5477 274.8977L791.9877 380.3677C807.1277 387.2077 813.9677 399.8977 813.9677 411.1377C813.9677 423.3377 807.1277 435.0577 791.9877 441.8977L560.5477 548.3377C536.6177 559.0777 517.0877 563.9677 497.5577 563.4777C478.0277 563.9677 458.9877 559.0777 434.5677 548.3377L335.4477 502.4377L476.0777 436.5277C482.9077 438.4777 490.7277 439.4577 498.5377 439.4577C524.4177 439.4577 549.8077 427.7377 549.8077 411.1377C549.8077 395.0177 524.4177 384.2777 498.5377 384.2777C473.1477 384.2777 446.7777 395.0177 446.7777 411.1377C446.7777 413.0877 447.2677 415.5277 448.2377 416.9877L299.8077 485.8377L203.6177 441.8977C188.4777 435.0577 181.1477 423.3377 181.1477 411.1377ZM269.5277 588.3777V508.7877L300.7777 523.4377V654.7877C280.7577 633.2977 269.5277 608.8877 269.5277 588.3777ZM334.4777 680.6677V538.5777L420.8977 578.6177C448.7277 591.3077 474.1177 597.6577 497.5577 597.1677C520.9977 597.6577 546.3877 591.3077 574.2177 578.6177L725.5877 508.7877V588.3777C725.5877 658.6877 637.2077 718.2577 497.5577 718.2577C429.6877 718.2577 373.5377 704.5877 334.4777 680.6677ZM284.1777 776.3677V725.5877C284.1777 711.9177 290.5277 702.1477 300.7777 697.7577V654.7877C310.5477 664.5477 321.2877 673.3377 334.4777 680.6677V698.2377C344.2377 702.6377 351.0777 712.3977 351.0777 725.5877V776.3677C351.0777 794.9177 338.8677 806.6377 320.3077 806.6377H314.4577C295.4077 806.6377 284.1777 794.9177 284.1777 776.3677Z"/>
</svg>