<?xml version="1.0" encoding="UTF-8" standalone="no"?>
<svg xmlns="http://www.w3.org/2000/svg"
     width="996.09375" height="996.09375"
     viewBox="0 0 996.09375 996.09375"
     fill="currentColor">
  <path d="M498.0477 996.0959C770.5077 996.0959 996.0977 770.0159 996.0977 498.0459C996.0977 225.5859 770.0177 -0.0041 497.5577 -0.0041C225.5877 -0.0041 -0.0023 225.5859 -0.0023 498.0459C-0.0023 770.0159 226.0777 996.0959 498.0477 996.0959ZM498.0477 913.0859C267.5777 913.0859 83.4977 728.5159 83.4977 498.0459C83.4977 267.5759 267.0877 83.0059 497.5577 83.0059C728.0277 83.0059 913.0877 267.5759 913.0877 498.0459C913.0877 728.5159 728.5177 913.0859 498.0477 913.0859ZM783.2077 384.7659L558.5977 282.7159C535.6477 272.4559 516.5977 267.0859 497.5577 267.5759C478.5177 267.0859 459.9577 272.4559 436.5277 282.7159L212.3977 384.7659C197.7577 391.6059 190.4277 403.8059 190.4277 415.0359C190.4277 426.7559 197.7577 437.9859 212.3977 444.8259L305.6677 487.3059L449.7077 420.4059C448.7277 418.4559 448.2377 416.9959 448.2377 415.0359C448.2377 399.4159 473.6377 388.6759 498.5377 388.6759C523.4377 388.6759 548.3377 399.4159 548.3377 415.0359C548.3377 431.1559 523.4377 442.3859 498.5377 442.3859C490.7277 442.3859 483.3977 441.4059 476.5577 439.4559L340.3277 503.4159L436.5277 547.3659C459.9577 558.5959 478.5177 562.9859 497.5577 562.4959C516.5977 562.9859 535.6477 558.5959 558.5977 547.3659L783.2077 444.8259C797.8477 437.9859 804.6877 426.7559 804.6877 415.0359C804.6877 403.8059 797.8477 391.6059 783.2077 384.7659ZM497.5577 712.8859C632.8077 712.8859 718.7477 654.7859 718.7477 586.9159V509.7659L571.7777 577.1459C544.9177 589.3559 520.5077 595.7059 497.5577 594.7259C474.6077 595.7059 450.1977 589.3559 423.3377 577.1459L338.8677 538.5759V675.7859C377.4377 698.7259 431.6377 712.8859 497.5577 712.8859ZM276.3677 509.7659V586.9159C276.3677 606.4459 287.5977 630.3759 306.6377 650.8759V523.4359ZM290.5277 719.7259V769.0459C290.5277 786.6259 301.7577 798.3359 319.8277 798.3359H325.6877C343.7477 798.3359 355.4677 786.6259 355.4677 769.0459V719.7259C355.4677 706.5459 349.1177 697.2659 338.8677 692.8759V675.7859C326.6577 668.4559 316.4077 660.1559 306.6377 650.8759V692.8759C296.3877 696.7759 290.5277 706.5459 290.5277 719.7259Z"/>
</svg>