<?xml version="1.0" encoding="UTF-8" standalone="no"?>
<svg xmlns="http://www.w3.org/2000/svg"
     width="1310.05859375" height="1180.23681640625"
     viewBox="0 0 1310.05859375 1180.23681640625"
     fill="currentColor">
  <path d="M1263.6683 251.0363L785.6483 32.2863C735.8383 9.8263 695.3083 -0.9137 654.7883 0.0563C614.7483 -0.9137 574.2183 9.8263 523.9283 32.2863L46.3883 251.0363C15.1383 265.1963 -0.0017 290.0963 -0.0017 315.0063C-0.0017 339.9063 15.1383 364.3163 46.3883 378.9663L247.5583 470.7663L556.6383 325.7463C553.7083 322.3263 552.7383 318.4163 552.7383 315.0063C552.7383 284.2363 604.4883 260.8063 656.7383 260.8063C709.4683 260.8063 760.2583 284.2363 760.2583 315.0063C760.2583 346.7363 709.4683 370.6663 656.7383 370.6663C640.6283 370.6663 624.5083 368.2263 610.3483 364.3163L315.4283 502.5063L523.9283 598.2063C574.2183 621.1563 614.7483 630.9163 654.7883 630.4363C695.3083 630.9163 735.8383 621.1563 785.6483 598.2063L1263.6683 378.9663C1294.9183 364.3163 1310.0583 339.9063 1310.0583 315.0063C1310.0583 290.0963 1294.9183 265.1963 1263.6683 251.0363ZM313.4783 574.7663V871.6463C395.5083 921.4463 512.6983 951.7163 654.7883 951.7163C942.8683 951.7163 1128.4183 828.1863 1128.4183 682.1863V514.2163L813.4783 658.2663C756.3483 684.6263 704.5883 697.8163 654.7883 697.3263C605.4683 697.8163 553.2183 684.6263 496.0983 658.2663ZM181.6383 514.2163V682.1863C181.6383 724.6663 206.0583 777.4063 249.9983 822.3263V545.9563ZM211.4283 988.3463V1116.7563C211.4283 1155.3363 236.3283 1180.2363 274.8983 1180.2363H288.0883C326.6583 1180.2363 351.5583 1155.3363 351.5583 1116.7563V988.3463C351.5583 959.0463 336.9183 938.0463 313.4783 929.2563V871.6463C289.0583 856.9963 267.5783 840.3963 249.9983 822.3263V929.2563C226.0783 937.5563 211.4283 959.0463 211.4283 988.3463Z"/>
</svg>