<?xml version="1.0" encoding="UTF-8" standalone="no"?>
<svg xmlns="http://www.w3.org/2000/svg"
     width="1327.63671875" height="1190.4455946972362"
     viewBox="0 0 1327.63671875 1190.4455946972362"
     fill="currentColor">
  <path d="M190.4283 692.3951C190.4283 761.2451 231.4483 825.2151 305.1783 873.0651V939.4651C281.2483 947.7651 266.5983 969.2551 266.5983 998.5551V1126.9651C266.5983 1165.5451 291.5083 1190.4451 330.0783 1190.4451H343.2583C381.8383 1190.4451 406.7383 1165.5451 406.7383 1126.9651V998.5551C406.7383 969.2551 392.0883 948.2551 368.6483 939.4651V907.2451C446.2883 941.4251 546.3883 961.9251 663.5783 961.9251C951.6583 961.9251 1137.2083 838.3951 1137.2083 692.3951V462.9051L1279.7883 397.4751C1311.5283 382.8251 1327.6383 354.5051 1327.6383 325.2151C1327.6383 296.4051 1311.5283 268.0851 1279.7883 253.4351L798.8283 33.7051C747.0683 10.2651 705.5683 -0.4749 663.5783 0.0151C622.0683 -0.4749 580.5683 10.2651 528.3183 33.7051L47.8483 253.4351C16.1183 268.0851 -0.0017 296.4051 -0.0017 325.2151C-0.0017 354.5051 16.1183 382.8251 47.8483 397.4751L190.4283 462.9051ZM663.5783 573.7451C631.3483 573.7451 599.6083 565.4451 558.1083 546.4051L419.4383 482.9251L622.5583 375.5051C636.2283 378.9251 650.8783 380.8751 665.5283 380.8751C718.2583 380.8751 769.0383 356.9451 769.0383 325.2151C769.0383 294.4451 718.2583 271.0151 665.5283 271.0151C613.2783 271.0151 561.5283 294.4451 561.5283 325.2151C561.5283 330.5851 562.9883 335.4651 565.9183 340.3451L351.5583 452.1651L108.3983 341.8151C99.6083 337.9051 95.6983 332.0451 95.6983 325.2151C95.6983 318.8651 99.6083 313.0051 108.3983 309.0951L558.1083 104.5051C599.6083 85.4651 631.3483 77.1651 663.5783 77.1651C696.2883 77.1651 727.5383 85.4651 769.5283 104.5051L1219.2383 309.0951C1227.5383 313.0051 1231.9383 318.8651 1231.9383 325.2151C1231.9383 332.0451 1227.5383 337.9051 1219.2383 341.8151L769.5283 546.4051C727.5383 565.4451 696.2883 573.7451 663.5783 573.7451ZM269.0383 692.3951V498.5551L305.1783 515.1551V775.8951C281.7383 750.0151 269.0383 721.2051 269.0383 692.3951ZM663.5783 650.8951C705.5683 651.3851 747.0683 640.6451 798.8283 617.2051L1058.5983 498.5551V692.3951C1058.5983 794.4451 904.2983 888.1951 663.5783 888.1951C539.0583 888.1951 437.4983 862.8051 368.6483 824.2351V543.9651L528.3183 617.2051C580.5683 640.6451 622.0683 651.3851 663.5783 650.8951Z"/>
</svg>