<?xml version="1.0" encoding="UTF-8" standalone="no"?>
<svg xmlns="http://www.w3.org/2000/svg"
     width="672.8515625" height="648.4375"
     viewBox="0 0 672.8515625 648.4375"
     fill="currentColor">
  <path d="M41.5083 648.4395C55.1783 648.4395 64.4483 644.0395 74.2183 639.1595L623.0483 392.5795C651.3683 379.3895 672.8483 357.9095 672.8483 326.6595C672.8483 295.8995 651.3683 273.4395 623.0483 260.7395L74.2183 8.2995C64.9383 3.4195 56.1483 -0.0005 43.4583 -0.0005C17.5783 -0.0005 -0.0017 17.5795 -0.0017 43.4595C-0.0017 65.9195 11.7183 78.6095 32.2283 88.3795L557.6183 320.3095V325.6795L32.2283 559.5695C11.7183 569.3395 -0.0017 582.0295 -0.0017 604.4895C-0.0017 631.3495 17.0883 648.4395 41.5083 648.4395Z"/>
</svg>