<?xml version="1.0" encoding="UTF-8" standalone="no"?>
<svg xmlns="http://www.w3.org/2000/svg"
     width="898.92578125" height="898.92578125"
     viewBox="0 0 898.92578125 898.92578125"
     fill="currentColor">
  <path d="M153.3183 898.9295H745.6083C848.1483 898.9295 898.9283 848.1495 898.9283 747.5595V151.3695C898.9283 50.7795 848.1483 -0.0005 745.6083 -0.0005H153.3183C51.2683 -0.0005 -0.0017 50.2895 -0.0017 151.3695V747.5595C-0.0017 848.6295 51.2683 898.9295 153.3183 898.9295ZM319.3383 655.2695C295.4083 655.2695 277.3483 637.6995 277.3483 614.7495C277.3483 595.2195 286.1283 583.9795 307.1283 574.2195L562.4983 448.7295V445.7995L307.1283 317.3795C286.6183 307.6195 277.3483 295.4095 277.3483 276.3695C277.3483 253.9095 294.9183 236.3295 318.3583 236.3295C329.5883 236.3295 335.9383 238.7695 344.2383 242.6795L644.5283 404.2995C664.0583 415.5295 674.3183 429.6895 674.3183 448.7295C674.3183 469.7295 665.0383 482.4195 644.5283 493.1595L344.2383 649.4095C336.4283 652.8295 329.5883 655.2695 319.3383 655.2695Z"/>
</svg>