<?xml version="1.0" encoding="UTF-8" standalone="no"?>
<svg xmlns="http://www.w3.org/2000/svg"
     width="780.2734375" height="1085.8544290525429"
     viewBox="0 0 780.2734375 1085.8544290525429"
     fill="currentColor">
  <path d="M225.5883 65.1462L647.9483 139.3662C689.4483 146.6862 724.1183 158.4062 752.4383 173.5462V135.9462C752.4383 32.9162 683.5983 -15.9038 567.8683 4.5962ZM92.2883 988.4862L626.4683 1082.7262C722.1683 1099.8162 780.2783 1046.1062 780.2783 941.6162V352.2562C780.2783 256.5562 731.4483 221.8862 636.2283 204.7962L117.6783 113.4862C46.3883 101.2762 -0.0017 139.8562 -0.0017 209.6762V882.0362C-0.0017 942.0962 30.7583 977.7462 92.2883 988.4862ZM125.9783 404.5062V301.4762C125.9783 265.8262 148.4383 249.7162 185.5483 256.0662L290.5283 274.6162C327.6383 281.4562 318.8483 343.9562 277.3483 336.6262L212.8883 324.9162C197.7583 322.4662 189.9383 328.3262 189.9383 341.5162V406.9462C189.9383 445.5162 125.9783 445.5162 125.9783 404.5062ZM586.4283 484.0962V422.0762C586.4283 407.4362 582.0283 389.8562 553.2183 384.9662L512.6983 377.6462C468.2583 369.8362 479.0083 307.8262 523.4383 315.6362L574.2183 324.4262C628.4183 334.1862 650.3883 357.1362 650.3883 402.5462V484.0962C650.3883 529.0162 586.4283 525.1062 586.4283 484.0962ZM189.9383 715.5362V777.5462C189.9383 792.1962 194.3383 809.7762 223.1483 814.6562L263.6683 821.9862C308.1083 829.3062 297.3683 891.8062 252.9283 883.9962L202.1483 875.2062C147.9483 865.4362 125.9783 842.4862 125.9783 797.0762V715.5362C125.9783 670.6162 189.9383 674.5262 189.9383 715.5362ZM650.3883 795.1262V898.1562C650.3883 933.7962 627.9283 949.9162 590.8183 943.5662L486.3283 925.0062C449.2183 918.1762 457.5183 855.6762 499.0283 862.9962L563.4783 874.7162C578.6183 877.1562 586.4283 871.2962 586.4283 858.1162V792.6862C586.4283 754.1062 650.3883 754.1062 650.3883 795.1262Z"/>
</svg>