<?xml version="1.0" encoding="UTF-8" standalone="no"?>
<svg xmlns="http://www.w3.org/2000/svg"
     width="996.09375" height="996.09375"
     viewBox="0 0 996.09375 996.09375"
     fill="currentColor">
  <path d="M498.0477 996.0959C770.5077 996.0959 996.0977 770.0159 996.0977 498.0459C996.0977 225.5859 770.0177 -0.0041 497.5577 -0.0041C225.5877 -0.0041 -0.0023 225.5859 -0.0023 498.0459C-0.0023 770.0159 226.0777 996.0959 498.0477 996.0959ZM498.0477 913.0859C267.5777 913.0859 83.4977 728.5159 83.4977 498.0459C83.4977 267.5759 267.0877 83.0059 497.5577 83.0059C728.0277 83.0059 913.0877 267.5759 913.0877 498.0459C913.0877 728.5159 728.5177 913.0859 498.0477 913.0859ZM218.2577 593.7459C218.2577 615.7259 231.9377 628.4159 254.3977 628.4159H366.2077V740.7259C366.2077 763.1859 379.3977 776.3659 400.8777 776.3659C421.3877 776.3659 434.5677 763.1859 434.5677 740.7259V628.4159H560.5477V740.7259C560.5477 763.1859 573.2377 776.3659 594.7277 776.3659C615.7277 776.3659 628.9077 763.1859 628.9077 740.7259V628.4159H740.7277C763.1877 628.4159 776.8577 615.7259 776.8577 593.7459C776.8577 573.2459 763.1877 560.0559 740.7277 560.0559H628.9077V435.5459H740.7277C763.1877 435.5459 776.8577 421.8759 776.8577 401.3659C776.8577 379.8859 763.1877 367.1859 740.7277 367.1859H628.9077V254.8859C628.9077 231.9359 615.7277 218.7459 594.7277 218.7459C573.2377 218.7459 560.5477 231.9359 560.5477 254.8859V367.1859H434.5677V254.8859C434.5677 231.9359 421.3877 218.7459 400.8777 218.7459C379.3977 218.7459 366.2077 231.9359 366.2077 254.8859V367.1859H254.3977C231.9377 367.1859 218.2577 379.8859 218.2577 401.3659C218.2577 421.8759 231.9377 435.5459 254.3977 435.5459H366.2077V560.0559H254.3977C231.9377 560.0559 218.2577 573.2459 218.2577 593.7459ZM435.0577 560.0559V435.5459H561.0377V560.0559Z"/>
</svg>