<?xml version="1.0" encoding="UTF-8" standalone="no"?>
<svg xmlns="http://www.w3.org/2000/svg"
     width="996.09375" height="996.09375"
     viewBox="0 0 996.09375 996.09375"
     fill="currentColor">
  <path d="M498.0477 996.0959C770.5077 996.0959 996.0977 770.0159 996.0977 498.0459C996.0977 225.5859 770.0177 -0.0041 497.5577 -0.0041C225.5877 -0.0041 -0.0023 225.5859 -0.0023 498.0459C-0.0023 770.0159 226.0777 996.0959 498.0477 996.0959ZM209.9577 597.1659C209.9577 576.1759 224.1177 562.4959 247.5577 562.4959H362.3077V433.5959H247.5577C224.1177 433.5959 209.9577 419.9259 209.9577 398.4359C209.9577 375.9759 224.1177 362.7959 247.5577 362.7959H362.3077V248.0459C362.3077 224.1259 375.9777 210.4459 398.4377 210.4459C419.4377 210.4459 433.1077 224.1259 433.1077 248.0459V362.7959H562.9877V248.0459C562.9877 224.1259 576.1677 210.4459 598.1477 210.4459C620.1177 210.4459 633.7877 224.1259 633.7877 248.0459V362.7959H748.5377C771.9777 362.7959 786.1377 375.9759 786.1377 398.4359C786.1377 419.9259 771.9777 433.5959 748.5377 433.5959H633.7877V562.4959H748.5377C771.9777 562.4959 786.1377 576.1759 786.1377 597.1659C786.1377 619.6259 771.9777 633.2959 748.5377 633.2959H633.7877V748.0459C633.7877 771.9759 620.1177 785.6459 598.1477 785.6459C576.1677 785.6459 562.9877 771.9759 562.9877 748.0459V633.2959H433.1077V748.0459C433.1077 771.9759 419.4377 785.6459 398.4377 785.6459C375.9777 785.6459 362.3077 771.9759 362.3077 748.0459V633.2959H247.5577C224.1177 633.2959 209.9577 619.6259 209.9577 597.1659ZM433.1077 562.4959H562.9877V433.5959H433.1077Z"/>
</svg>