<?xml version="1.0" encoding="UTF-8" standalone="no"?>
<svg xmlns="http://www.w3.org/2000/svg"
     width="944.3359375" height="925.29296875"
     viewBox="0 0 944.3359375 925.29296875"
     fill="currentColor">
  <path d="M39.0583 674.8063H254.8783V886.7163C254.8783 910.6463 268.5583 925.2963 291.9883 925.2963C314.4483 925.2963 328.6183 910.6463 328.6183 886.7163V674.8063H612.7883V886.7163C612.7883 910.6463 626.4683 925.2963 649.8983 925.2963C672.3683 925.2963 686.5283 910.6463 686.5283 886.7163V674.8063H905.2783C929.6883 674.8063 944.3383 660.6463 944.3383 637.6963C944.3383 614.7463 929.6883 601.0763 905.2783 601.0763H686.5283V326.1763H905.2783C929.6883 326.1763 944.3383 312.0163 944.3383 289.5463C944.3383 266.6063 929.6883 252.4462 905.2783 252.4462H686.5283V39.0662C686.5283 15.1363 672.3683 -0.0037 649.8983 -0.0037C626.4683 -0.0037 612.7883 15.1363 612.7883 39.0662V252.4462H328.6183V39.0662C328.6183 15.1363 314.4483 -0.0037 291.9883 -0.0037C268.5583 -0.0037 254.8783 15.1363 254.8783 39.0662V252.4462H39.0583C14.6483 252.4462 -0.0017 266.6063 -0.0017 289.5463C-0.0017 312.0163 14.6483 326.1763 39.0583 326.1763H254.8783V601.0763H39.0583C14.6483 601.0763 -0.0017 614.7463 -0.0017 637.6963C-0.0017 660.6463 14.6483 674.8063 39.0583 674.8063ZM328.6183 601.0763V326.1763H612.7883V601.0763Z"/>
</svg>