<?xml version="1.0" encoding="UTF-8" standalone="no"?>
<svg xmlns="http://www.w3.org/2000/svg"
     width="996.09375" height="996.09375"
     viewBox="0 0 996.09375 996.09375"
     fill="currentColor">
  <path d="M498.0477 996.0959C770.5077 996.0959 996.0977 770.0159 996.0977 498.0459C996.0977 225.5859 770.0177 -0.0041 497.5577 -0.0041C225.5877 -0.0041 -0.0023 225.5859 -0.0023 498.0459C-0.0023 770.0159 226.0777 996.0959 498.0477 996.0959ZM505.3677 799.3159C491.2077 799.3159 480.4677 789.0659 480.4677 773.9259V739.7459C372.5577 727.0459 304.1977 637.2059 304.1977 498.5359C304.1977 362.7959 373.5377 272.4559 480.4677 259.2759V225.5859C480.4677 210.4459 490.7277 200.6859 505.3677 200.6859C519.5277 200.6859 530.2777 210.4459 530.2777 225.5859V258.2959C601.5577 265.6259 658.2077 308.1059 680.1777 368.1659C682.6177 376.4659 684.5677 384.2759 684.5677 393.0659C684.5677 411.1359 672.3677 423.8259 653.8077 423.8259C635.7377 423.8259 627.4377 416.9959 620.6077 396.9759C609.8677 357.4259 574.7077 327.6359 530.2777 320.3159V484.3759H658.2077C678.7077 484.3759 691.8977 497.0659 691.8977 518.5559V543.9459C691.8977 658.2059 634.7677 731.9359 530.2777 740.2359V773.9259C530.2777 789.0659 519.5277 799.3159 505.3677 799.3159ZM480.4677 677.2459V321.2859C413.5777 335.4459 372.0677 401.8559 372.0677 498.5359C372.0677 596.6759 413.5777 663.0859 480.4677 677.2459ZM530.2777 679.1959C590.8177 669.9259 626.4677 623.0459 626.4677 555.1759V543.9459H530.2777Z"/>
</svg>