<?xml version="1.0" encoding="UTF-8" standalone="no"?>
<svg xmlns="http://www.w3.org/2000/svg"
     width="898.92578125" height="898.92578125"
     viewBox="0 0 898.92578125 898.92578125"
     fill="currentColor">
  <path d="M153.3183 898.9295H745.6083C848.1483 898.9295 898.9283 848.1495 898.9283 747.5595V151.3695C898.9283 50.7795 848.1483 -0.0005 745.6083 -0.0005H153.3183C51.2683 -0.0005 -0.0017 50.2895 -0.0017 151.3695V747.5595C-0.0017 848.6295 51.2683 898.9295 153.3183 898.9295ZM457.0283 749.9995C442.8683 749.9995 432.1283 739.7495 432.1283 724.6095V690.4295C324.2183 677.7295 255.8583 587.8895 255.8583 449.2195C255.8583 313.4795 325.1983 223.1395 432.1283 209.9595V176.2695C432.1283 161.1295 442.8683 151.3695 457.0283 151.3695C471.1883 151.3695 481.9383 161.1295 481.9383 176.2695V208.9795C553.2183 216.3095 609.8683 258.7895 631.8383 318.8495C634.2783 327.1495 636.2283 334.9595 636.2283 343.7495C636.2283 361.8195 624.0283 374.5095 605.4683 374.5095C587.3983 374.5095 579.0983 367.6795 572.2683 347.6595C561.5283 308.1095 526.3683 278.3195 481.9383 270.9995V435.0595H609.8683C630.3683 435.0595 643.5583 447.7495 643.5583 469.2395V494.6295C643.5583 608.8895 586.4283 682.6195 481.9383 690.9195V724.6095C481.9383 739.7495 471.1883 749.9995 457.0283 749.9995ZM432.1283 627.9295V271.9695C365.7183 286.1295 323.7283 352.5395 323.7283 449.2195C323.7283 547.3595 365.2383 613.7695 432.1283 627.9295ZM481.9383 629.8795C542.4783 620.6095 578.1283 573.7295 578.1283 505.8595V494.6295H481.9383Z"/>
</svg>