<?xml version="1.0" encoding="UTF-8" standalone="no"?>
<svg xmlns="http://www.w3.org/2000/svg"
     width="996.09375" height="996.09375"
     viewBox="0 0 996.09375 996.09375"
     fill="currentColor">
  <path d="M498.0477 996.0959C770.5077 996.0959 996.0977 770.0159 996.0977 498.0459C996.0977 375.4859 950.1977 262.2059 875.4877 174.8059L973.1477 77.1459C987.3077 62.4959 987.3077 38.0859 973.1477 23.9259C958.0077 8.7859 934.0777 9.2759 919.4377 23.9259L821.7777 121.0959C734.3777 45.8959 621.0977 -0.0041 498.5377 -0.0041C226.5577 -0.0041 -0.0023 225.5859 -0.0023 498.0459C-0.0023 620.6059 45.8977 734.3759 121.5777 821.7759L23.9277 919.4359C8.7877 934.0859 9.2777 958.0059 23.9277 972.6559C38.0877 987.3059 62.0077 987.7959 77.1477 973.1459L174.8077 874.9959C262.2077 950.1959 375.4877 996.0959 498.0477 996.0959ZM499.0277 83.0059C589.3577 83.0059 672.3677 111.3259 739.7477 159.6659C676.2677 145.9959 591.3077 174.3159 498.0477 238.2859C406.2477 174.8059 321.7777 146.9759 258.2977 159.1759C326.1677 111.3259 409.1777 83.0059 499.0277 83.0059ZM245.6077 246.0959C279.7877 211.4259 349.6077 227.5359 436.5277 284.6659C410.1577 306.6359 383.7877 330.5659 356.9377 357.4259C330.5677 383.7859 306.1477 410.6459 284.6677 436.5259C227.5377 350.0959 211.4277 280.2759 245.6077 246.0959ZM638.6677 356.9359C612.3077 330.5659 585.9377 306.1559 559.5677 284.6659C646.4877 227.5359 716.3077 211.4259 750.4877 246.0959C784.6677 280.2759 768.5577 349.6059 711.4277 436.5259C689.9377 410.1559 665.5277 383.7859 638.6677 356.9359ZM913.0877 498.0459C913.0877 587.8859 884.7677 671.3859 836.9177 739.2559C849.6077 675.2959 821.7777 590.8159 757.8077 498.0459C821.2877 404.7859 849.1177 319.8259 836.9177 256.8359C884.7677 324.7059 913.0877 407.7159 913.0877 498.0459ZM83.4977 498.0459C83.4977 408.6959 111.3277 326.1759 159.1777 258.2959C147.4577 321.7759 175.2977 405.7659 238.2777 497.5559C174.8077 589.8459 146.9777 673.8259 159.1777 737.7959C111.3277 669.9259 83.4977 587.4059 83.4977 498.0459ZM409.6677 585.4459C379.3977 555.6659 353.0277 526.3659 330.0777 498.0459C353.0277 469.7259 379.8877 440.4259 409.6677 410.6459C439.9377 380.3759 469.2377 353.5159 498.0477 330.5659C526.3677 353.5159 555.6677 379.8859 585.4477 410.1559C615.7277 440.4259 642.5777 469.7259 665.5277 498.0459C642.5777 526.8559 615.7277 556.1559 585.4477 586.4259C555.6677 616.6959 526.3677 643.0659 498.0477 666.0159C469.7277 642.5759 439.9377 615.7259 409.6677 585.4459ZM246.0977 750.4859C211.4277 715.8159 227.5377 645.9959 285.1577 559.0859C306.6377 585.4459 330.5677 612.3059 357.4177 638.6759C384.2777 665.5259 410.6477 689.4559 437.0077 711.4259C350.5877 768.5559 280.2777 784.6659 246.0977 750.4859ZM749.9977 750.4859C715.8177 784.6659 645.9977 768.5559 559.5677 711.4259C585.9377 689.9459 612.3077 666.0159 638.6677 639.1559C665.5277 612.3059 689.4577 585.9359 711.4277 559.5659C768.5577 645.9959 784.6677 715.8159 749.9977 750.4859ZM498.5377 913.0859C408.6877 913.0859 326.1677 884.7659 258.2977 836.9159C321.7777 849.1259 405.7577 820.7959 498.5377 757.3259C591.3077 821.2859 675.7777 849.1259 739.2577 836.9159C671.3877 884.7659 588.3777 913.0859 498.5377 913.0859Z"/>
</svg>