<?xml version="1.0" encoding="UTF-8" standalone="no"?>
<svg xmlns="http://www.w3.org/2000/svg"
     width="996.09375" height="996.09375"
     viewBox="0 0 996.09375 996.09375"
     fill="currentColor">
  <path d="M498.0477 996.0959C770.5077 996.0959 996.0977 770.0159 996.0977 498.0459C996.0977 225.5859 770.0177 -0.0041 497.5577 -0.0041C225.5877 -0.0041 -0.0023 225.5859 -0.0023 498.0459C-0.0023 770.0159 226.0777 996.0959 498.0477 996.0959ZM498.0477 913.0859C267.5777 913.0859 83.4977 728.5159 83.4977 498.0459C83.4977 267.5759 267.0877 83.0059 497.5577 83.0059C728.0277 83.0059 913.0877 267.5759 913.0877 498.0459C913.0877 728.5159 728.5177 913.0859 498.0477 913.0859ZM343.2577 721.6759C368.6477 721.6759 382.8077 705.5659 382.8077 678.2259V517.0859H611.3277V678.2259C611.3277 705.0759 625.9777 721.6759 649.8977 721.6759C675.2977 721.6759 689.4577 705.5659 689.4577 678.2259V308.5959C689.4577 281.2459 675.2977 265.1359 649.8977 265.1359C625.9777 265.1359 611.3277 281.7359 611.3277 308.5959V456.0559H382.8077V308.5959C382.8077 281.2459 368.6477 265.1359 343.2577 265.1359C319.3377 265.1359 305.1777 281.7359 305.1777 308.5959V678.2259C305.1777 705.0759 319.3377 721.6759 343.2577 721.6759Z"/>
</svg>