<?xml version="1.0" encoding="UTF-8" standalone="no"?>
<svg xmlns="http://www.w3.org/2000/svg"
     width="1196.6265378279381" height="1133.176123173155"
     viewBox="0 0 1196.6265378279381 1133.176123173155"
     fill="currentColor">
  <path d="M29.6837 1017.3887L114.6437 1102.8387C157.6137 1146.2987 206.9337 1143.3687 253.3137 1092.0987L762.1037 531.5487C775.2937 535.9487 788.9637 534.9687 804.5837 532.0387L857.8037 522.2687L891.0137 555.9687L889.0537 583.7987C887.1037 608.6987 893.4537 627.7387 917.8637 651.6687L955.9537 688.7787C979.8837 712.6987 1010.6437 714.1687 1034.0737 690.7287L1179.5837 544.7387C1203.0237 521.2987 1202.0437 491.5087 1178.1237 467.5887L1139.5437 429.4987C1115.6237 405.5787 1097.0637 397.7587 1073.1437 399.7187L1044.3337 402.1587L1012.1037 370.4187L1024.3137 314.2687C1030.6637 285.9487 1022.8437 263.9687 993.5537 234.6787L883.6837 125.2987C716.6937 -40.7113 495.0137 -36.8113 350.4837 107.7187C329.4837 128.2287 328.0237 157.0387 339.7437 176.5687C351.4637 194.6387 374.4137 206.3587 406.6337 198.0587C479.8837 180.9687 556.0537 178.0387 627.3437 224.9087L598.0437 297.6687C588.2737 321.5887 586.8137 341.6087 593.1637 359.6787L39.9337 879.2087C-9.3763 925.1087 -13.2863 973.9287 29.6837 1017.3887ZM425.1937 126.2787C546.7737 37.4087 711.3237 52.5487 822.6537 163.8787L944.2337 284.4787C955.9537 296.1987 957.9037 305.4787 954.4837 322.5687L938.3737 396.7887L1013.5737 470.9987L1062.8837 468.0787C1075.5837 467.5887 1079.4837 468.5587 1089.2537 478.3287L1118.0637 507.1387L995.9937 629.2087L967.1837 600.3987C957.4137 590.6287 955.9537 586.7287 956.4437 573.5387L959.8637 524.7187L885.1537 450.4987L808.9837 463.1887C792.8637 466.6087 785.5437 465.1487 773.3337 453.4287L673.2337 353.3287C660.5437 341.6087 659.0737 333.3087 666.8937 314.7487L710.8337 210.2587C632.7137 137.5087 531.1437 106.2587 429.5837 136.0387C421.7737 137.9987 418.8437 131.6487 425.1937 126.2787ZM151.2637 1039.3587L92.6737 981.2587C69.2337 958.3087 74.6037 941.2187 94.6237 923.1487L635.1537 414.3587L708.3937 488.5787L208.8837 1037.8987C191.3037 1057.9187 174.7037 1062.7987 151.2637 1039.3587Z"/>
</svg>