<?xml version="1.0" encoding="UTF-8" standalone="no"?>
<svg xmlns="http://www.w3.org/2000/svg"
     width="996.09375" height="996.09375"
     viewBox="0 0 996.09375 996.09375"
     fill="currentColor">
  <path d="M498.0477 996.0959C770.5077 996.0959 996.0977 770.0159 996.0977 498.0459C996.0977 225.5859 770.0177 -0.0041 497.5577 -0.0041C225.5877 -0.0041 -0.0023 225.5859 -0.0023 498.0459C-0.0023 770.0159 226.0777 996.0959 498.0477 996.0959ZM498.0477 913.0859C267.5777 913.0859 83.4977 728.5159 83.4977 498.0459C83.4977 267.5759 267.0877 83.0059 497.5577 83.0059C728.0277 83.0059 913.0877 267.5759 913.0877 498.0459C913.0877 728.5159 728.5177 913.0859 498.0477 913.0859ZM713.3777 539.0659C723.6377 548.8259 734.8677 549.8059 745.1177 540.0359L817.8677 467.7759C827.6377 458.4959 827.1477 446.2859 817.3877 436.0359L799.3177 418.4559C789.5477 408.6959 784.1777 407.2259 773.4377 408.2059L745.6077 411.1359L727.0477 393.5559L735.3477 359.3759C739.7477 342.7759 733.3977 325.6859 715.8177 307.6159L666.9877 259.7659C599.6077 192.8759 475.5877 185.5459 407.2277 254.3959C395.0177 266.1159 396.9777 278.3159 404.2977 287.1059C410.6477 292.4759 419.4377 295.4059 427.7377 291.9959C474.6077 278.3159 515.6277 275.8759 550.7777 296.8759L532.2277 345.7059C524.4177 366.6959 528.3177 381.3459 541.5077 394.5359L595.2177 448.2459C605.4677 458.4959 616.2077 460.9359 631.8377 458.0059L670.4077 449.7059L688.9677 468.7459L686.0377 496.0959C685.0577 506.8359 686.0377 513.6759 695.3077 522.4559ZM282.7177 747.5559C304.6877 769.5359 329.5877 767.5759 351.0777 743.1659L575.6877 487.7959L503.9077 416.0159L248.0477 639.1559C222.6577 661.1359 221.1877 685.5459 243.1677 707.5159Z"/>
</svg>