<?xml version="1.0" encoding="UTF-8" standalone="no"?>
<svg xmlns="http://www.w3.org/2000/svg"
     width="1205.4189096373407" height="1124.7434775267532"
     viewBox="0 0 1205.4189096373407 1124.7434775267532"
     fill="currentColor">
  <path d="M980.0972 674.116C1001.0872 694.136 1025.0172 695.606 1045.0372 675.586L1192.0072 529.586C1211.0472 510.546 1209.5872 485.156 1189.0772 465.136L1153.9172 429.486C1134.8772 410.936 1122.6672 408.006 1102.1672 409.466L1045.0372 416.306L1008.4172 379.686L1025.0172 310.836C1033.3172 277.146 1020.6172 241.496 984.9772 205.856L886.8272 108.686C751.0872 -26.564 501.0872 -41.704 360.9472 97.946C337.5172 121.386 341.9072 147.746 357.0472 164.356C368.7672 175.586 386.8272 181.446 403.9172 176.066C498.6472 147.746 581.1672 142.376 652.4572 184.856L614.8572 283.496C598.7472 324.996 607.5372 354.296 633.8972 381.146L742.7872 490.036C762.8072 510.056 783.8072 515.916 815.5372 509.566L894.1572 493.456L930.2872 530.076L924.9172 587.206C923.4472 608.686 925.4072 621.386 944.9372 639.446ZM111.9272 1094.526C155.3872 1137.986 206.1672 1134.566 250.1072 1084.276L714.4672 555.466L570.9172 411.906L40.6372 874.796C-10.1428 919.236 -13.0728 969.526 30.3872 1013.476Z"/>
</svg>