<?xml version="1.0" encoding="UTF-8" standalone="no"?>
<svg xmlns="http://www.w3.org/2000/svg"
     width="1033.203125" height="1022.94921875"
     viewBox="0 0 1033.203125 1022.94921875"
     fill="currentColor">
  <path d="M-0.0017 645.5113C-0.0017 746.0912 50.7783 796.8713 153.3183 796.8713H169.9183V377.4413C169.9183 239.2613 250.9783 159.6712 390.1383 159.6712H796.3883V151.3713C796.3883 50.7813 745.1183 0.0013 643.5583 0.0013H153.3183C50.7783 0.0013 -0.0017 50.7813 -0.0017 151.3713ZM390.1383 1022.9513H880.3683C981.9383 1022.9513 1033.1983 972.1713 1033.1983 871.5813V377.4413C1033.1983 276.8513 981.9383 226.0712 880.3683 226.0712H390.1383C287.5983 226.0712 236.8183 276.3713 236.8183 377.4413V871.5813C236.8183 972.1713 287.5983 1022.9513 390.1383 1022.9513ZM450.6883 708.4913V467.2813C450.6883 452.1513 463.3783 438.9613 479.9783 438.9613C495.1183 438.9613 508.2983 452.1513 508.2983 467.2813V618.6513C514.6483 614.7413 520.5083 610.3512 529.7883 607.4213V386.7213C529.7883 370.6013 542.9683 357.9113 558.1083 357.9113C573.7283 357.9113 586.4283 370.6013 586.4283 386.7213V588.8712C594.2383 587.4013 602.0483 586.4213 609.3783 585.9413V364.2613C609.3783 348.6313 622.0683 335.9412 638.1883 335.9412C653.8083 335.9412 666.5083 348.6313 666.5083 364.2613V588.3813C673.8283 590.8213 681.6383 592.7713 687.4983 594.7313V401.3712C687.4983 386.2313 700.6883 373.5313 716.7983 373.5313C731.4483 373.5313 745.1183 386.2313 745.1183 401.3712V672.8512C745.1183 680.6613 747.5583 684.5713 753.4183 684.5713C757.8083 684.5713 761.2283 681.1513 764.1583 673.3412L800.7783 597.6513C812.9883 573.2413 822.2683 562.5013 839.3583 562.5013C854.4883 562.5013 864.7483 572.2613 864.7483 586.9113C864.7483 599.1212 855.4683 626.4613 848.1483 648.4413C832.5183 701.1713 817.8683 747.5613 797.3683 786.1313C761.7183 859.8613 708.0083 891.1113 629.3983 891.1113C523.9283 891.1113 450.6883 821.7813 450.6883 708.4913Z"/>
</svg>