<?xml version="1.0" encoding="UTF-8" standalone="no"?>
<svg xmlns="http://www.w3.org/2000/svg"
     width="996.09375" height="996.09375"
     viewBox="0 0 996.09375 996.09375"
     fill="currentColor">
  <path d="M498.0477 996.0959C770.5077 996.0959 996.0977 770.0159 996.0977 498.0459C996.0977 225.5859 770.0177 -0.0041 497.5577 -0.0041C225.5877 -0.0041 -0.0023 225.5859 -0.0023 498.0459C-0.0023 770.0159 226.0777 996.0959 498.0477 996.0959ZM343.2577 578.1259C344.2377 513.6759 361.3277 474.6059 395.9977 428.7059C437.0077 373.5359 491.2077 309.0859 531.7377 230.4659C541.9877 209.9559 551.7577 196.7759 571.2877 196.7759C592.2877 196.7759 608.8877 211.9159 608.8877 236.8159C608.8877 284.1759 563.4777 351.0759 563.4777 387.6959C563.4777 408.2059 579.0977 420.8959 604.4877 420.8959H700.1977C726.5577 420.8959 747.0677 442.3859 747.0677 469.2359C747.0677 483.3959 741.6977 496.5859 733.8877 504.3959C729.0077 507.8159 728.0277 510.2559 732.4177 513.6759C739.7477 520.5059 743.1677 534.6659 743.1677 546.8759C743.1677 565.4259 735.3477 579.5859 722.1677 587.4059C717.7777 589.8459 717.2877 593.7459 720.2177 598.1459C726.5577 605.4659 730.4677 616.6959 730.4677 628.9059C730.4677 650.3859 715.8177 666.5059 699.7077 672.8559C696.2877 673.8259 696.2877 676.7559 698.2377 680.6659C701.1677 686.0359 704.0977 694.8259 704.0977 704.5859C704.0977 730.4659 683.1077 742.6759 661.1377 748.5359C646.4877 751.9559 620.6077 754.3959 585.9377 754.3959L548.3377 753.9059C421.8777 752.9259 341.7977 677.7359 343.2577 578.1259ZM210.4477 580.0759C210.4477 497.0659 256.3477 431.1559 317.8677 431.1559H356.9377C333.9877 461.4259 307.6177 509.2759 306.6377 577.6359C305.6677 639.6459 326.6577 693.3559 376.4677 729.4959H327.6377C259.7677 729.4959 210.4477 661.6259 210.4477 580.0759Z"/>
</svg>