<?xml version="1.0" encoding="UTF-8" standalone="no"?>
<svg xmlns="http://www.w3.org/2000/svg"
     width="1008.7016942116685" height="1038.0859375"
     viewBox="0 0 1008.7016942116685 1038.0859375"
     fill="currentColor">
  <path d="M504.339 596.682C667.429 596.682 811.959 532.222 894.969 364.262C873.489 351.562 847.119 345.702 816.359 345.702H809.029V293.942C809.029 127.442 677.199 0.002 504.339 0.002C331.979 0.002 199.659 127.442 199.659 293.942V345.702H192.329C161.569 345.702 135.199 351.562 113.719 364.262C197.219 532.222 341.259 596.682 504.339 596.682ZM278.269 293.942C278.269 171.872 376.409 78.612 504.339 78.612C632.269 78.612 730.419 171.872 730.419 293.942V345.702H278.269ZM1006.299 841.792L964.309 480.472C961.379 456.542 955.519 437.502 945.749 420.902C863.719 569.332 737.739 644.042 601.999 667.482V702.152C601.999 735.352 582.469 753.902 549.269 753.902H459.419C426.219 753.902 406.689 735.352 406.689 702.152V667.482C270.949 644.042 144.969 569.822 62.939 421.382C53.659 437.502 47.799 456.542 44.869 480.472L2.389 841.792C-12.751 968.752 44.379 1038.082 163.039 1038.082H845.649C964.789 1038.082 1021.429 968.752 1006.299 841.792Z"/>
</svg>