<?xml version="1.0" encoding="UTF-8" standalone="no"?>
<svg xmlns="http://www.w3.org/2000/svg"
     width="1393.5546875" height="1132.5080745501918"
     viewBox="0 0 1393.5546875 1132.5080745501918"
     fill="currentColor">
  <path d="M1254.8877 1121.5202C1269.5277 1106.8702 1269.5277 1082.9502 1254.8877 1068.3002L197.7577 11.1702C183.1077 -3.4798 159.1777 -3.9698 144.0477 11.1702C129.8877 25.3302 129.8877 49.7402 144.0477 64.3902L1201.6577 1121.5202C1216.3077 1136.1702 1240.7277 1136.1702 1254.8877 1121.5202ZM696.2877 88.8102C604.0077 88.8102 517.0877 116.1502 444.3377 163.0302L503.9077 222.6002C560.5477 190.3702 625.9777 171.3302 696.2877 171.3302C914.5477 171.3302 1090.3277 346.1302 1090.3277 564.8802C1090.3277 635.1902 1071.2877 701.1102 1039.0577 757.7502L1098.1477 817.3202C1145.5077 744.5702 1173.3377 657.1702 1173.3377 564.8802C1173.3377 304.6302 957.0277 88.8102 696.2877 88.8102ZM1260.7377 974.5502C1344.7277 859.3102 1393.5577 718.2002 1393.5577 564.8802C1393.5577 410.1002 1343.7477 267.5202 1258.2977 151.7902C1243.1677 131.2902 1217.2877 128.3602 1197.7577 144.4702C1179.6877 159.6102 1178.2277 183.5302 1191.8977 202.5802C1266.5977 304.1402 1310.0577 429.1402 1310.0577 564.8802C1310.0577 694.7602 1270.0177 815.3702 1200.6877 914.4902ZM195.7977 984.8002C213.3777 969.6702 215.8177 946.2302 201.6577 926.7002C127.4377 825.6202 83.4977 700.1302 83.4977 564.8802C83.4977 433.5302 124.5077 312.9302 194.3377 213.3202L134.2777 153.2602C48.3377 270.9402 -0.0023 413.5102 -0.0023 564.8802C-0.0023 719.6702 50.2977 861.7602 135.2577 977.4802C150.3877 998.4702 176.2677 1000.4302 195.7977 984.8002ZM735.3477 446.2302V299.7402C735.3477 283.1402 722.1677 269.9602 705.5677 269.9602C688.9677 269.9602 675.7777 283.1402 675.7777 299.7402V386.1702ZM651.8577 362.2402V310.9702C651.8577 295.8402 639.1577 283.6302 624.5077 283.6302C614.2577 283.6302 605.4677 289.0002 601.5577 297.7902L600.0977 310.4902ZM817.8677 529.2402V339.2902C817.8677 323.1802 804.1977 309.5102 788.0877 309.5102C771.4877 309.5102 758.2977 323.1802 758.2977 339.2902V469.1802ZM696.7777 1040.9602C790.0377 1040.9602 877.9277 1013.1202 951.1677 965.2702L891.1177 905.7002C834.4777 938.9002 768.0677 957.9502 696.7777 957.9502C479.0077 957.9502 304.1977 783.1402 304.1977 564.8802C304.1977 494.0802 323.2377 427.1902 355.9577 370.5402L296.3877 310.4902C248.5377 383.7302 220.7077 471.6202 220.7077 564.8802C220.7077 825.1302 436.5277 1040.9602 696.7777 1040.9602ZM918.4577 628.8502L939.9377 558.5302C947.7577 534.6102 938.4777 518.4902 924.3177 512.6302C910.1577 507.2602 892.0877 512.6302 882.3277 532.6502L863.7677 575.1302ZM695.7977 853.4602C738.2777 853.4602 773.4377 844.1802 802.7377 825.1302L508.7877 531.1902V661.5602C508.7877 780.7002 585.9377 853.4602 695.7977 853.4602Z"/>
</svg>