<?xml version="1.0" encoding="UTF-8" standalone="no"?>
<svg xmlns="http://www.w3.org/2000/svg"
     width="1033.203125" height="1022.94921875"
     viewBox="0 0 1033.203125 1022.94921875"
     fill="currentColor">
  <path d="M153.3183 796.8713H236.8183V871.5813C236.8183 972.1713 287.5983 1022.9513 390.1383 1022.9513H880.3683C981.9383 1022.9513 1033.1983 972.1713 1033.1983 871.5813V377.4413C1033.1983 276.8513 981.9383 226.0712 880.3683 226.0712H796.3883V151.3713C796.3883 50.7813 745.1183 0.0013 643.5583 0.0013H153.3183C50.7783 0.0013 -0.0017 50.7813 -0.0017 151.3713V645.5113C-0.0017 746.0912 50.7783 796.8713 153.3183 796.8713ZM154.2983 718.2613C105.4683 718.2613 78.6183 691.8913 78.6183 641.1113V155.7613C78.6183 104.9813 105.4683 78.6113 154.2983 78.6113H642.0883C690.4283 78.6113 717.7783 104.9813 717.7783 155.7613V226.0712H390.1383C287.5983 226.0712 236.8183 276.3713 236.8183 377.4413V718.2613ZM391.1183 944.3313C342.7783 944.3313 315.4283 917.9713 315.4283 867.1913V381.8313C315.4283 331.0513 342.7783 304.6912 391.1183 304.6912H878.9083C927.2483 304.6912 954.5883 331.0513 954.5883 381.8313V867.1913C954.5883 917.9713 927.2483 944.3313 878.9083 944.3313ZM452.1483 705.0813C452.1483 814.9413 523.4383 882.8113 625.9783 882.8113C702.1483 882.8113 753.9083 851.5613 789.0583 779.7813C808.1083 742.6713 822.7583 698.2413 838.3783 646.4813C844.7283 625.4913 854.0083 599.1212 854.0083 587.8913C854.0083 573.7313 843.7483 563.9613 829.0983 563.9613C812.9883 563.9613 803.2183 574.2213 791.5083 597.6513L756.8383 671.3913C753.4183 679.6913 749.9983 682.1313 745.6083 682.1313C740.7183 682.1313 737.7883 678.7113 737.7883 670.9013V407.7113C737.7883 393.0713 725.0983 380.3712 710.4483 380.3712C694.8283 380.3712 682.6183 393.0713 682.6183 407.7113V594.7313C676.2683 592.7713 669.4383 590.8213 661.6183 588.8712V371.5813C661.6183 356.4413 649.4183 344.2413 634.2783 344.2413C619.1383 344.2413 606.9383 356.4413 606.9383 371.5813V586.4213C599.6083 586.9113 591.7983 587.8913 584.4683 589.3512V393.0713C584.4683 377.4413 572.2683 365.7213 556.1483 365.7213C541.5083 365.7213 528.8083 377.4413 528.8083 393.0713V606.9313C520.5083 610.3512 514.1583 614.7413 508.2983 618.1613V471.1913C508.2983 456.0513 495.1183 443.3613 480.4683 443.3613C465.3283 443.3613 452.1483 456.0513 452.1483 471.1913Z"/>
</svg>