<?xml version="1.0" encoding="UTF-8" standalone="no"?>
<svg xmlns="http://www.w3.org/2000/svg"
     width="1089.7943062408535" height="947.5197534755761"
     viewBox="0 0 1089.7943062408535 947.5197534755761"
     fill="currentColor">
  <path d="M862.3077 922.6438C1056.1477 852.3338 1138.6677 674.5938 1060.5477 459.7538L1024.4177 359.6538C985.8377 253.6938 913.0877 210.2438 827.6377 240.0238C804.6877 210.2438 769.5277 199.9838 731.4477 213.6538C717.2877 219.0338 705.0777 226.3538 693.3577 235.1438C668.4577 202.9138 629.8877 191.1938 589.8477 205.3538C579.0977 209.2638 568.8477 215.1238 559.0777 221.9638L503.4177 69.6138C482.4177 11.5138 429.6877 -12.9062 375.4877 6.6238C320.7977 26.6438 296.3877 78.8938 317.3877 136.9938L456.5477 519.8138C457.5177 522.2538 457.0277 524.2038 454.5877 525.1838C453.1277 526.1538 451.1677 525.1838 449.7077 523.7138L392.5777 461.2138C364.2577 430.9438 330.0777 421.6638 297.3677 433.3838C252.9277 449.9838 224.1177 492.4638 242.6777 542.7638C247.0677 556.9238 256.8377 574.0138 268.0677 588.1738L431.6377 785.9238C555.6677 935.3338 700.1977 981.7238 862.3077 922.6438ZM841.3077 858.6738C713.3777 905.5538 593.7477 881.6238 480.4677 745.3938L316.8977 548.6238C312.0077 542.7638 308.5977 537.3938 305.6677 529.0838C299.8077 513.4638 306.6377 495.3938 325.1977 488.5638C340.8177 483.1938 353.5177 489.0538 365.7277 502.2338L479.0077 618.9338C497.5577 638.4638 514.1577 640.4138 530.7577 634.5538C549.8077 627.7238 557.6177 607.2138 549.8077 586.2138L376.9577 110.6338C369.6277 91.1038 378.4177 72.5438 397.4577 65.7138C416.0177 58.8738 434.0777 68.1538 440.9177 87.6838L564.4577 427.0338C570.3077 443.1538 588.3777 450.4738 604.4877 444.6138C620.1177 438.7538 628.9077 421.6638 623.0477 406.0438L578.6177 283.4838C584.9577 277.1338 594.7277 270.7838 603.5177 267.3738C626.4677 259.0738 645.5077 269.3238 654.2977 293.2438L693.3577 400.1838C699.2177 416.7838 717.7777 423.1338 733.3977 417.2738C748.0477 411.9038 757.8077 395.7838 751.4677 378.6938L719.7277 291.7838C726.5577 285.4338 735.8377 279.0838 745.1177 275.6738C768.0677 267.3738 787.1077 277.6238 795.8977 301.5538L821.7777 372.8338C828.1277 389.9238 846.1877 396.2738 861.8177 390.4138C876.9577 385.0438 886.2277 368.4438 880.3677 351.8438L861.3277 299.1038C901.8577 284.4638 940.4277 317.6638 966.7977 390.9038L997.5577 474.4038C1064.4577 658.9738 1003.9077 799.5938 841.3077 858.6738ZM238.7677 116.4938C95.2177 203.4038 -0.0023 366.0038 -0.0023 566.1938C-0.0023 583.7738 15.1377 598.9138 31.7377 598.4238C48.8277 597.9338 61.0377 584.7538 61.5277 567.1738C65.9177 391.8838 141.1177 254.1838 260.7377 176.5538Z"/>
</svg>