<?xml version="1.0" encoding="UTF-8" standalone="no"?>
<svg xmlns="http://www.w3.org/2000/svg"
     width="1078.125" height="837.454483001244"
     viewBox="0 0 1078.125 837.454483001244"
     fill="currentColor">
  <path d="M-0.0023 475.1531C-0.0023 691.9431 145.5077 837.4531 385.2577 837.4531H497.0677C615.2377 837.4531 684.5677 781.3031 685.5477 686.0831C723.6377 674.3731 746.0977 643.1231 746.0977 600.6331C746.0977 585.0131 743.1677 569.8731 738.7677 555.7131C779.7877 542.5331 805.1777 508.3531 805.1777 463.9231C805.1777 452.2031 803.7077 439.9931 799.8077 427.7831H970.2177C1035.6477 427.7831 1078.1277 384.8131 1078.1277 323.7831C1078.1277 262.7431 1035.6477 219.7831 970.2177 219.7831H542.9677C540.5277 219.7831 538.5777 218.8031 538.5777 215.8731C538.5777 213.9231 539.5477 211.9631 541.9877 211.4731L624.0277 177.3031C664.0577 160.2131 685.0577 130.4231 685.0577 93.8031C685.0577 43.9931 653.3177 0.0531 597.1677 0.0531C581.5477 -0.4369 561.0377 2.4931 543.4577 9.3331L289.5477 99.6631C97.1677 168.0231 -0.0023 293.9931 -0.0023 475.1531ZM70.3077 478.0831C70.3077 334.5231 136.7177 224.6631 311.5277 162.1631L564.9377 71.3431C572.2677 68.4131 579.0977 67.4331 587.8877 67.4331C605.9577 67.4331 621.0977 80.6231 621.0977 101.1231C621.0977 118.7031 610.8377 128.4731 593.2577 136.2831L437.0077 205.6231C411.6177 217.3331 403.3177 233.4531 403.3177 251.5131C403.3177 273.0031 420.4077 288.1331 443.3577 288.1331H975.0977C997.0677 288.1331 1012.2077 302.7831 1012.2077 323.7831C1012.2077 345.2631 997.0677 359.4231 975.0977 359.4231H595.7077C578.1277 359.4231 563.9677 374.5631 563.9677 392.6331C563.9677 409.7231 578.1277 424.8531 595.7077 424.8531H732.4177C736.3277 433.1531 739.2577 445.3631 739.2577 455.1331C739.2577 480.5231 722.1677 496.6331 695.3077 496.6331H576.6577C557.6177 496.6331 544.4377 511.7731 544.4377 528.8631C544.4377 545.9531 557.6177 561.0831 576.6577 561.0831H673.3377C677.2477 569.8731 679.6877 582.0831 679.6877 591.8531C679.6877 617.7231 663.0877 632.8631 636.7177 632.8631H556.6377C538.0877 632.8631 524.8977 648.9731 524.8977 666.0631C524.8977 683.1531 538.0877 697.8031 556.6377 697.8031H615.2377C615.2377 743.7031 568.3577 769.5831 486.8177 769.5831H393.5577C187.0077 769.5831 70.3077 659.2331 70.3077 478.0831Z"/>
</svg>