<?xml version="1.0" encoding="UTF-8" standalone="no"?>
<svg xmlns="http://www.w3.org/2000/svg"
     width="876.953125" height="1263.18359375"
     viewBox="0 0 876.953125 1263.18359375"
     fill="currentColor">
  <path d="M324.2177 152.8286C366.6977 152.8286 400.8777 118.6486 400.8777 76.1686C400.8777 34.6686 366.6977 -0.0014 324.2177 -0.0014C282.7177 -0.0014 248.0477 34.6686 248.0477 76.1686C248.0477 118.6486 282.7177 152.8286 324.2177 152.8286ZM800.2977 152.8286C842.7777 152.8286 876.9577 118.6486 876.9577 76.1686C876.9577 34.6686 842.7777 -0.0014 800.2977 -0.0014C758.7877 -0.0014 724.6077 34.6686 724.6077 76.1686C724.6077 118.6486 758.7877 152.8286 800.2977 152.8286ZM75.1977 374.9986C118.6477 374.9986 151.8577 340.8186 151.8577 298.3386C151.8577 256.3486 118.6477 222.1686 75.1977 222.1686C33.6877 222.1686 -0.0023 256.3486 -0.0023 298.3386C-0.0023 340.8186 33.6877 374.9986 75.1977 374.9986ZM575.6877 374.9986C618.1677 374.9986 652.3477 340.8186 652.3477 298.3386C652.3477 256.3486 618.1677 222.1686 575.6877 222.1686C533.6877 222.1686 499.5077 256.3486 499.5077 298.3386C499.5077 340.8186 533.6877 374.9986 575.6877 374.9986ZM800.2977 374.9986C842.7777 374.9986 876.9577 340.8186 876.9577 298.3386C876.9577 256.3486 842.7777 222.1686 800.2977 222.1686C758.7877 222.1686 724.6077 256.3486 724.6077 298.3386C724.6077 340.8186 758.7877 374.9986 800.2977 374.9986ZM468.2577 1263.1886C674.8077 1263.1886 812.9877 1124.5086 812.9877 895.9986V789.5486C812.9877 676.7586 759.7677 610.8386 668.9477 609.8586C657.7177 574.2186 628.4177 552.2486 587.3977 552.2486C572.7577 552.2486 558.5977 554.6886 544.9177 559.5686C532.2277 520.0186 499.9977 496.0986 457.5177 496.0986C446.2877 496.0986 434.5677 497.5586 422.8477 500.9786V338.3786C422.8477 276.8586 381.8377 235.8386 324.2177 235.8386C266.1177 235.8386 225.0977 276.8586 225.0977 338.3786V746.0986C225.0977 748.5386 223.6377 750.4886 221.1877 750.4886C219.2377 750.4886 217.7777 749.0186 217.2877 747.0686L184.5677 668.9486C168.4577 630.8586 139.6477 610.3486 104.9777 610.3486C57.6177 610.3486 15.6277 640.6286 15.6277 694.3386C15.6277 708.9886 18.5577 728.5186 24.4177 745.6086L110.3477 987.3086C175.2977 1170.4086 295.8977 1263.1886 468.2577 1263.1886ZM470.7077 1195.7986C333.9877 1195.7986 229.4877 1132.8086 169.9177 966.3086L83.9877 725.0986C81.0577 717.7686 79.5877 711.4286 79.5877 703.1286C79.5877 686.0386 92.2877 671.8786 111.8177 671.8786C128.4177 671.8786 138.1877 681.6386 145.5077 698.2386L211.9177 846.6786C222.6577 871.0986 237.7977 878.9086 254.8877 878.9086C275.3877 878.9086 290.0377 862.7886 290.0377 840.3286V333.9886C290.0377 313.4786 304.1977 298.8286 324.2177 298.8286C344.2377 298.8286 357.9077 313.4786 357.9077 333.9886V695.3086C357.9077 712.3986 372.5577 725.5886 389.6477 725.5886C406.2477 725.5886 419.9177 712.3986 419.9177 695.3086V565.4286C428.2277 561.5186 439.4577 559.0786 449.2177 559.0786C473.6377 559.0786 488.2777 574.7086 488.2777 600.5886V713.8686C488.2777 731.9286 502.9277 744.1386 519.5277 744.1386C535.6477 744.1386 550.2977 731.9286 550.2977 713.8686V621.5786C558.5977 617.6786 569.8277 615.2386 579.0977 615.2386C604.0077 615.2386 618.1677 631.3486 618.1677 656.7386V732.9086C618.1677 750.9786 633.2977 762.6986 649.8977 762.6986C666.0177 762.6986 680.1777 750.9786 680.1777 732.9086V676.7586C723.6377 676.7586 748.5377 721.6786 748.5377 799.3186V888.1786C748.5377 1084.4686 643.0677 1195.7986 470.7077 1195.7986Z"/>
</svg>