<?xml version="1.0" encoding="UTF-8" standalone="no"?>
<svg xmlns="http://www.w3.org/2000/svg"
     width="996.09375" height="996.09375"
     viewBox="0 0 996.09375 996.09375"
     fill="currentColor">
  <path d="M498.0477 996.0959C770.5077 996.0959 996.0977 770.0159 996.0977 498.0459C996.0977 225.5859 770.0177 -0.0041 497.5577 -0.0041C225.5877 -0.0041 -0.0023 225.5859 -0.0023 498.0459C-0.0023 770.0159 226.0777 996.0959 498.0477 996.0959ZM498.0477 913.0859C267.5777 913.0859 83.4977 728.5159 83.4977 498.0459C83.4977 267.5759 267.0877 83.0059 497.5577 83.0059C728.0277 83.0059 913.0877 267.5759 913.0877 498.0459C913.0877 728.5159 728.5177 913.0859 498.0477 913.0859ZM302.7377 584.9559C302.7377 708.9859 383.2977 785.1559 498.0477 785.1559C584.4777 785.1559 643.5577 750.4859 683.1077 669.4359C704.5877 627.4459 721.1877 576.6559 738.7677 518.5559C746.0977 494.6259 756.3477 465.3359 756.3477 452.1459C756.3477 436.5259 744.6277 425.7859 728.5177 425.7859C709.9577 425.7859 699.2177 437.0159 686.0377 463.3759L646.4877 546.8759C642.5777 555.6659 638.6677 559.0859 634.2777 559.0859C628.4177 559.0859 624.9977 555.1759 624.9977 546.3859V249.0259C624.9977 232.4259 610.8377 218.2659 594.2377 218.2659C576.6577 218.2659 562.9877 232.4259 562.9877 249.0259V459.9559C555.1777 458.0059 547.3677 455.0759 539.0577 453.6159V208.0059C539.0577 190.9159 525.3877 176.7559 507.8077 176.7559C490.7277 176.7559 477.0477 190.9159 477.0477 208.0059V450.1959C468.2577 451.6559 459.9577 452.1459 452.1477 453.6159V232.4259C452.1477 214.8459 437.4977 201.1759 420.4077 201.1759C403.3177 201.1759 389.1577 214.8459 389.1577 232.4259V473.6359C380.3677 477.5359 373.0477 482.4259 365.7277 486.8159V320.7959C365.7277 303.7059 351.0777 289.5459 334.4777 289.5459C316.8977 289.5459 302.7377 303.7059 302.7377 320.7959Z"/>
</svg>