<?xml version="1.0" encoding="UTF-8" standalone="no"?>
<svg xmlns="http://www.w3.org/2000/svg"
     width="820.7643579436213" height="903.119391168666"
     viewBox="0 0 820.7643579436213 903.119391168666"
     fill="currentColor">
  <path d="M601.1725 879.3053C800.3925 807.0453 866.7925 641.5153 789.1525 428.1353L757.4225 340.2453C728.1225 259.6753 671.4825 224.5253 627.5325 240.1453C617.7725 244.0553 614.3525 251.3753 617.7725 260.6553L631.9325 299.7153C638.7625 318.2753 632.4225 330.4753 621.1925 334.8753C609.4725 338.7753 596.7725 333.4053 589.9425 314.8553L580.6625 289.4653C563.5725 241.6153 521.5825 221.5953 480.5625 236.7253C462.0125 243.5653 456.6425 254.3053 462.4925 269.9353L481.5425 323.1553C488.3725 341.7053 482.5125 353.9153 471.2825 358.3153C459.0825 362.7053 446.3825 356.8453 440.0325 338.2953L421.9725 289.4653C402.4425 235.7553 362.4025 222.0753 322.3625 236.7253C304.7825 243.0753 298.4325 254.7953 304.2925 269.9353L341.8925 373.9353C348.7325 392.4953 342.8725 404.6953 331.6425 409.0953C319.9225 413.4853 307.2225 407.6253 300.3925 389.0753L173.4325 40.9253C161.2325 6.7453 130.9525 -6.9247 102.1425 3.3253C71.3825 14.5653 58.2025 44.3453 70.4025 78.5253L255.9525 588.2953C260.8325 600.9853 254.9825 610.2653 247.1625 613.1953C239.3525 616.1253 231.5425 613.6853 221.2825 602.9353L95.8025 468.1753C77.2425 448.6453 58.2025 443.7553 37.6925 451.5753C5.9525 462.8053 -6.2575 491.6153 3.0225 517.9753C6.9325 528.2353 12.3025 536.0453 17.6725 542.3953L172.4625 737.2153C303.3225 901.2753 454.6825 932.5253 601.1725 879.3053Z"/>
</svg>