<?xml version="1.0" encoding="UTF-8" standalone="no"?>
<svg xmlns="http://www.w3.org/2000/svg"
     width="996.09375" height="996.09375"
     viewBox="0 0 996.09375 996.09375"
     fill="currentColor">
  <path d="M498.0477 996.0959C770.5077 996.0959 996.0977 770.0159 996.0977 498.0459C996.0977 225.5859 770.0177 -0.0041 497.5577 -0.0041C225.5877 -0.0041 -0.0023 225.5859 -0.0023 498.0459C-0.0023 770.0159 226.0777 996.0959 498.0477 996.0959ZM295.8977 588.3759V316.4059C295.8977 298.8259 310.5477 283.6959 329.0977 283.6959C346.1877 283.6959 361.3277 298.8259 361.3277 316.4059V487.3059C368.6477 482.9059 375.9777 478.0259 385.2577 474.1259V224.6059C385.2577 207.0359 399.8977 192.8759 417.4777 192.8759C435.0577 192.8759 450.1977 207.0359 450.1977 224.6059V453.1259C458.4977 451.6559 466.7977 450.6859 475.5877 449.7059V199.7059C475.5877 182.6159 489.7477 167.4759 507.8077 167.4759C525.8777 167.4759 540.0377 182.6159 540.0377 199.7059V452.6359C548.3377 455.0759 556.6377 458.0059 564.4577 459.9559V242.1859C564.4577 224.6059 578.6177 209.9559 596.6777 209.9559C613.7677 209.9559 628.4177 224.6059 628.4177 242.1859V548.8259C628.4177 557.6159 631.8377 561.5259 638.1877 561.5259C642.5777 561.5259 646.4877 558.5959 650.3877 549.3159L691.4077 463.3759C705.0777 435.5459 715.8177 423.8259 735.3477 423.8259C751.9577 423.8259 764.1577 435.0559 764.1577 451.1759C764.1577 464.8459 753.4177 495.6059 745.6077 520.5059C727.5377 580.5659 710.4477 632.3259 687.9877 675.7859C647.4577 758.7859 586.4277 794.4359 497.5577 794.4359C378.9077 794.4359 295.8977 715.8159 295.8977 588.3759Z"/>
</svg>