<?xml version="1.0" encoding="UTF-8" standalone="no"?>
<svg xmlns="http://www.w3.org/2000/svg"
     width="769.53125" height="994.140625"
     viewBox="0 0 769.53125 994.140625"
     fill="currentColor">
  <path d="M331.0577 0.0014C119.1377 0.0014 -0.0023 132.8114 -0.0023 359.3714V453.1214C-0.0023 539.0614 41.0177 591.3114 87.8877 591.3114C98.6377 591.3114 104.0077 585.9414 104.0077 575.6814V534.1814C104.0077 514.6514 114.2577 504.8814 125.9777 504.8814C138.6677 504.8814 148.4377 514.6514 148.4377 534.1814V561.5214C148.4377 611.8114 181.1477 645.0214 224.6077 645.0214C244.6277 645.0214 253.4177 637.2114 253.4177 620.1214V563.4814C253.4177 543.9414 263.1877 534.1814 274.8977 534.1814C287.5977 534.1814 297.8477 543.9414 297.8477 563.4814V615.7214C297.8477 672.3614 330.5677 699.2214 373.0477 699.2214C391.5977 699.2214 401.8577 690.4314 401.8577 674.3114V563.4814C401.8577 543.9414 411.6177 534.1814 423.3377 534.1814C436.0377 534.1814 446.2877 543.9414 446.2877 563.4814V934.0814C446.2877 970.2114 469.7277 994.1414 500.4877 994.1414C533.2077 994.1414 555.6677 970.2114 555.6677 934.0814V391.6014C555.6677 378.4214 564.4577 371.0914 572.7577 371.0914C581.0577 371.0914 587.8877 375.9814 593.7477 389.6514L665.5277 559.0814C676.2677 583.9814 692.3877 595.2114 714.3577 595.2114C748.0477 595.2114 769.5277 572.2614 769.5277 544.4314C769.5277 533.2014 767.0877 523.9214 764.1577 516.1114L685.5477 280.2714C618.1677 81.5414 486.8177 0.0014 331.0577 0.0014Z"/>
</svg>