<?xml version="1.0" encoding="UTF-8" standalone="no"?>
<svg xmlns="http://www.w3.org/2000/svg"
     width="1316.4331034238626" height="1199.7098645630608"
     viewBox="0 0 1316.4331034238626 1199.7098645630608"
     fill="currentColor">
  <path d="M397.8049 201.8243C414.4049 198.4043 426.1249 181.3143 422.2249 165.6943L391.9449 24.5843C388.0449 7.4943 371.4349 -2.7657 355.3249 0.6543C338.7249 4.0743 327.0049 20.1843 330.9149 37.2743L361.1849 177.9043C365.0949 194.0143 380.7149 205.7343 397.8049 201.8243ZM215.6749 250.1643C227.8849 262.3743 247.9049 262.3743 259.6249 250.1643C271.3449 237.9643 271.8349 218.9143 259.6249 206.7143L157.0849 104.6543C144.3849 91.9643 125.8349 92.4543 113.6249 104.6543C101.4149 116.8643 100.9349 135.4243 113.6249 148.1143ZM608.2549 231.6143C599.9549 239.4243 593.6049 249.1943 589.7049 259.4443C554.5449 238.4443 514.9949 243.8143 483.2549 275.5543C469.0949 289.7143 461.2849 307.2943 460.7949 325.8543C420.7549 295.0843 376.3249 296.0643 342.1449 330.7343C308.4549 363.9343 307.4749 409.8343 336.2849 448.8943C318.7049 448.8943 302.1049 456.7143 289.4049 469.4043C253.7649 505.0543 254.7449 553.8743 292.8249 592.4543L331.4049 630.5343C312.3549 630.0543 293.3149 638.8343 278.6649 653.9743C242.5349 689.6243 244.4849 740.8843 283.0649 779.4643L579.9349 1076.3343C714.7049 1211.1043 872.9049 1233.5643 1006.6949 1152.9943C1078.4749 1144.2143 1147.3149 1109.0543 1208.3549 1048.5043C1329.4449 926.9243 1348.9749 775.5543 1265.9749 600.2643L1155.6149 367.8443C1135.5949 324.8743 1101.9049 302.4143 1061.8649 302.4143C1036.4749 302.4143 995.9549 316.5743 981.3049 356.1243C947.6149 338.0543 907.0849 344.8943 878.7649 373.7043L878.2749 374.1943L737.6549 233.5643C696.6349 193.0343 646.8349 193.0343 608.2549 231.6143ZM889.5049 554.3643L636.0849 300.9443C637.5549 294.1143 640.9749 287.7643 646.3449 281.9043C660.5049 267.7443 680.5249 268.7243 695.6549 283.3743L855.8149 444.0143C857.2749 453.2943 859.7249 462.0843 863.6249 471.8443L895.8549 549.4843C896.8349 551.4343 896.8349 553.3843 895.3649 554.8543C893.4149 556.8043 891.4549 556.3143 889.5049 554.3643ZM1034.0349 1046.0643C911.9649 1168.1343 758.6449 1164.2243 619.9749 1025.0643L333.8449 738.9343C318.7049 724.2843 318.2149 704.7543 332.3749 690.1043C346.5349 675.9443 367.0449 675.9443 381.6949 690.5943L558.4549 867.3543C571.1449 880.0543 589.7049 878.0943 601.4149 866.8643C613.1349 855.1443 615.0949 836.1043 602.3949 823.4043L338.2349 559.2443C323.5849 544.6043 322.6149 525.0643 336.7749 510.9043C351.4149 496.7443 371.9249 496.7443 386.5749 511.3943L632.6649 757.4943C645.3649 770.1843 664.4049 768.7243 675.6349 757.0043C687.3549 745.2843 689.3149 726.2443 676.6149 713.5443L387.5549 424.4843C372.9049 409.8343 372.4149 389.3243 386.5749 375.1643C400.2449 361.0043 421.2449 361.9843 435.8949 376.6343L724.9549 665.6943C736.6749 677.4143 755.7149 676.9243 767.4349 665.2043C779.6449 652.9943 780.6149 633.9543 768.9049 621.7443L522.3149 375.1643C507.6649 360.5143 507.1849 340.4943 521.8349 326.3343C535.9949 311.6943 556.0049 312.1743 570.6549 327.3143L910.5049 667.1543C927.5949 684.2443 948.0949 684.2443 962.2549 669.6043C974.4649 657.3943 979.8349 641.2843 970.0749 616.3743L909.0349 455.7343C900.7349 434.2443 908.5449 416.1843 925.1549 408.3743C943.7049 400.0643 959.8149 408.3743 971.0449 431.8043L1084.3349 671.5543C1160.0149 831.7143 1130.2249 949.3843 1034.0349 1046.0643ZM166.3649 412.7643C182.4749 415.6943 199.5649 405.9243 202.4949 388.8343C205.9149 372.2343 195.6549 356.6143 178.5649 352.7043L37.4549 322.4343C19.3849 318.5243 2.7849 330.2443 0.3449 347.8243C-2.0951 363.9343 8.6449 379.5643 24.7549 382.9743ZM1140.9749 644.2143L1032.5749 415.6943C1031.1049 410.8143 1030.1349 405.9243 1030.1349 400.0643C1030.1349 384.4443 1042.8249 368.8143 1063.8249 368.8143C1077.0049 368.8143 1090.6749 378.0943 1098.0049 393.7243L1208.8449 627.6043C1284.5249 787.2743 1255.7149 905.9243 1158.5449 1001.6343C1154.1549 1006.5143 1149.2749 1010.9043 1144.3849 1015.3043C1208.8449 908.8543 1207.8649 784.3443 1140.9749 644.2143Z"/>
</svg>