<?xml version="1.0" encoding="UTF-8" standalone="no"?>
<svg xmlns="http://www.w3.org/2000/svg"
     width="938.9888593930359" height="952.7156771190679"
     viewBox="0 0 938.9888593930359 952.7156771190679"
     fill="currentColor">
  <path d="M830.5572 845.0975C952.1372 723.5175 971.6672 572.6375 888.1772 396.8575L778.3072 165.4075C770.4972 149.2975 761.2172 136.1175 750.9672 125.8575C714.3472 89.2375 661.1272 91.1875 625.9672 126.3475C602.0372 150.2775 594.7172 185.9175 610.3372 224.4875L643.0572 302.6175C644.0372 304.5675 644.0372 306.5275 642.5672 307.9875C640.6172 309.4575 638.6572 308.9675 636.7072 307.4975L359.8572 30.6475C319.8172 -9.8825 269.0372 -9.8825 230.4572 28.6875C216.2972 42.3675 208.4872 60.4275 207.9972 78.9875C167.9572 48.2175 123.5272 49.1975 89.3472 83.3775C55.6572 117.0675 54.6772 162.9675 83.4872 202.0275C65.9072 202.0275 49.3072 209.8475 36.6072 222.5375C0.9672 258.1875 1.9472 307.0075 40.0272 345.0975L78.6072 383.6675C59.5572 383.1875 40.5172 391.9675 25.8672 406.6175C-10.2628 442.7575 -8.3128 494.0275 30.2672 532.5975L327.1372 829.4675C488.7572 991.0975 684.5572 991.0975 830.5572 845.0975ZM781.2372 799.1975C659.1672 921.2675 505.8472 917.3675 367.1772 778.2075L81.0472 492.0675C65.9072 477.4175 65.4172 457.3975 79.5772 443.2375C93.7372 429.0775 114.2472 429.0775 128.8972 443.7275L305.6572 619.9975C318.3472 632.6975 336.9072 631.2275 348.1372 619.9975C360.3372 608.2775 361.8072 589.2375 349.1072 576.5475L85.4372 312.3775C70.7872 297.7375 69.8172 278.2075 83.9772 264.0475C98.1372 249.3975 119.1272 249.3975 133.7772 264.0475L379.8772 510.6275C392.5672 523.3175 411.6072 521.3675 422.8372 510.1375C434.5572 498.4175 436.5172 479.3775 423.8172 466.6775L134.7572 177.6175C120.1072 162.9675 119.1272 142.4575 133.7772 128.2975C147.4472 114.1375 168.4472 114.6275 183.0972 129.2775L472.1572 418.3375C483.8772 430.5475 502.9172 430.0575 514.6372 418.3375C526.8472 406.1275 527.8172 386.5975 516.1072 374.8775L269.5172 128.2975C254.8772 113.6475 254.3872 93.6275 268.5472 78.9875C283.1972 64.8275 303.2172 65.3075 317.8572 79.9575L657.7072 419.8075C674.7972 437.3775 695.2972 436.8975 709.4672 422.7375C721.6672 410.5275 727.0372 394.4175 717.2772 369.0275L656.2372 208.8675C647.9372 186.8975 655.7472 169.3175 672.3572 161.5075C690.9072 153.2075 707.5072 161.9875 718.2472 184.9375L831.5372 424.1975C907.2172 584.3575 877.4272 702.5175 781.2372 799.1975Z"/>
</svg>