<?xml version="1.0" encoding="UTF-8" standalone="no"?>
<svg xmlns="http://www.w3.org/2000/svg"
     width="837.5873101860903" height="1043.9453125"
     viewBox="0 0 837.5873101860903 1043.9453125"
     fill="currentColor">
  <path d="M393.7429 1043.9416C549.0129 1043.9416 645.2029 979.0016 709.6529 848.6316C746.7629 776.3716 775.5729 689.4516 806.3329 588.8716C819.0329 547.8516 837.5829 495.6016 837.5829 472.1716C837.5829 445.8016 818.0529 428.2216 790.7129 428.2216C759.4629 428.2216 741.3929 447.7516 718.4429 494.1416L651.0629 636.7216C643.7429 652.3416 635.9229 658.2016 628.1129 658.2016C618.3529 658.2016 609.0729 652.3416 611.5129 635.2516L670.5929 125.9716C674.0129 93.7516 653.0129 75.1916 629.0929 70.3116C603.2129 65.4316 573.9129 78.1216 568.5429 109.8616L506.5329 489.2616C493.3529 484.3716 478.7029 480.4716 463.0729 477.5416V50.7816C463.0729 22.9516 439.6429 0.0016 410.8329 0.0016C382.0229 0.0016 358.5829 22.9516 358.5829 50.7816V472.1716C342.9629 473.1416 327.3329 475.5816 312.1929 478.0316L261.9029 103.0316C257.5129 68.8516 229.6729 56.1516 203.3129 60.5516C178.4029 64.4516 154.9729 85.4516 158.8729 117.6716L207.7029 511.2316C191.5929 519.0416 177.4329 527.3416 163.7629 536.1316L101.7429 233.8916C94.9129 200.6816 67.5629 188.4716 42.6629 192.3816C18.2529 196.7816 -4.2071 217.7716 0.6729 251.4616L59.2629 701.1716C87.1029 915.5316 199.8929 1043.9416 393.7429 1043.9416Z"/>
</svg>