<?xml version="1.0" encoding="UTF-8" standalone="no"?>
<svg xmlns="http://www.w3.org/2000/svg"
     width="1043.9453125" height="808.10546875"
     viewBox="0 0 1043.9453125 808.10546875"
     fill="currentColor">
  <path d="M-0.0023 460.4531C-0.0023 683.1031 139.1577 808.1031 377.9277 808.1031H476.0777C565.9177 808.1031 621.0977 764.6531 621.0977 715.8231C621.0977 705.0731 615.2377 698.7331 604.4877 698.7331H561.0377C540.5277 698.7331 530.7577 687.9931 530.7577 675.7831C530.7577 662.5931 540.5277 651.8531 561.0377 651.8531H589.8477C642.5777 651.8531 677.2477 618.1631 677.2477 572.2631C677.2477 551.7531 668.9477 542.4831 651.3677 542.4831H592.2877C571.2877 542.4831 561.0377 531.7431 561.0377 519.5331C561.0377 505.8631 571.2877 495.6031 592.2877 495.6031H646.9777C706.0577 495.6031 734.3777 460.4531 734.3777 416.5031C734.3777 396.4831 725.5877 386.7231 708.0077 386.7231H592.2877C571.2877 386.7231 561.0377 375.9731 561.0377 363.7731C561.0377 350.0931 571.2877 339.8431 592.2877 339.8431H980.9577C1019.0477 339.8431 1043.9477 314.9431 1043.9477 282.7131C1043.9477 248.5331 1019.0477 224.6131 980.9577 224.6131H411.1377C397.4577 224.6131 389.6477 215.8231 389.6477 206.5431C389.6477 198.2431 395.0177 190.9131 409.1777 185.0631L586.9177 109.3731C613.2777 98.1431 624.5077 81.0531 624.5077 58.1031C624.5077 22.9531 601.0777 0.0031 571.7777 0.0031C559.5677 0.0031 550.2977 2.4431 541.9877 5.8631L293.9477 88.3831C85.4477 159.1831 -0.0023 296.8731 -0.0023 460.4531Z"/>
</svg>