<?xml version="1.0" encoding="UTF-8" standalone="no"?>
<svg xmlns="http://www.w3.org/2000/svg"
     width="898.92578125" height="898.92578125"
     viewBox="0 0 898.92578125 898.92578125"
     fill="currentColor">
  <path d="M153.3183 898.9284H745.6083C848.1483 898.9284 898.9283 848.6284 898.9283 748.0484V151.3684C898.9283 50.7784 848.1483 -0.0016 745.6083 -0.0016H153.3183C51.2683 -0.0016 -0.0017 50.7784 -0.0017 151.3684V748.0484C-0.0017 848.6284 51.2683 898.9284 153.3183 898.9284ZM154.2983 820.3084C105.4683 820.3084 78.6183 794.4384 78.6183 743.6484V155.7584C78.6183 104.9784 105.4683 78.6084 154.2983 78.6084H744.6283C792.9683 78.6084 820.3083 104.9784 820.3083 155.7584V743.6484C820.3083 794.4384 792.9683 820.3084 744.6283 820.3084ZM243.1683 540.5284C243.1683 665.0384 323.7283 740.7184 438.4783 740.7184C524.8983 740.7184 583.9883 706.0584 623.5383 624.9984C645.0183 583.0084 661.6183 532.7184 679.1983 474.6084C686.5283 450.6884 696.7783 420.8984 696.7783 407.7184C696.7783 392.0884 685.0583 381.3484 668.9483 381.3484C650.3883 381.3484 639.6483 392.5784 626.4683 419.4384L586.9183 502.9284C583.0083 511.7184 579.0983 514.6484 574.7083 514.6484C568.8483 514.6484 565.4283 510.7384 565.4283 502.4384V205.0784C565.4283 187.9884 551.2683 173.8284 534.1783 173.8284C517.0883 173.8284 503.4183 187.9884 503.4183 205.0784V416.0184C495.6083 414.0584 487.7883 411.1284 479.4883 409.6684V163.5784C479.4883 146.9684 465.8183 132.3284 448.2383 132.3284C431.1483 132.3284 416.9883 146.9684 416.9883 163.5784V406.2484C408.6883 407.2284 400.3883 408.1984 392.0883 409.6684V187.9884C392.0883 170.8984 377.9283 157.2284 360.8383 157.2284C343.7483 157.2284 329.5883 170.8984 329.5883 187.9884V429.6884C320.7983 433.5984 313.4783 438.4784 305.6683 442.8684V276.8584C305.6683 259.7684 291.5083 245.1184 274.8983 245.1184C257.3283 245.1184 243.1683 259.7684 243.1683 276.8584Z"/>
</svg>