<?xml version="1.0" encoding="UTF-8" standalone="no"?>
<svg xmlns="http://www.w3.org/2000/svg"
     width="1055.04449779995" height="903.119391168666"
     viewBox="0 0 1055.04449779995 903.119391168666"
     fill="currentColor">
  <path d="M835.4477 879.3053C1034.6677 807.0453 1101.0777 641.5153 1023.4377 428.1353L991.6977 340.2453C961.9177 259.6753 905.7577 224.5253 861.8177 240.1453C851.5577 244.0553 848.1477 251.3753 851.5577 260.6553L865.7277 299.7153C872.5577 318.2753 866.6977 330.4753 855.4677 334.8753C843.7477 338.7753 831.0577 333.4053 824.2177 314.8553L814.9377 289.4653C797.3677 241.6153 755.8577 221.5953 714.8477 236.7253C696.2877 243.5653 690.4277 254.3053 696.2877 269.9353L715.8177 323.1553C722.6577 341.7053 716.3077 353.9153 705.5677 358.3153C693.3577 362.7053 680.6677 356.8453 673.8277 338.2953L656.2477 289.4653C636.7177 235.7553 596.6777 222.0753 556.6377 236.7253C539.0577 243.0753 532.7177 254.7953 538.0877 269.9353L576.1677 373.9353C583.0077 392.4953 576.6577 404.6953 565.9177 409.0953C553.7077 413.4853 541.0177 407.6253 534.1777 389.0753L407.7177 40.9253C395.5077 6.7453 365.2377 -6.9247 336.4277 3.3253C305.6677 14.5653 292.4777 44.3453 304.6877 78.5253L490.2377 588.2953C494.6277 600.9853 489.2577 610.2653 481.4477 613.1953C473.6377 616.1253 465.3277 613.6853 455.5677 602.9353L330.0777 468.1753C311.0377 448.6453 291.9877 443.7553 271.4877 451.5753C240.2377 462.8053 228.0277 491.6153 237.3077 517.9753C241.2077 528.2353 246.5777 536.0453 251.4677 542.3953L406.7377 737.2153C537.5977 901.2753 688.9677 932.5253 835.4477 879.3053ZM238.7677 93.6653C95.2177 180.5753 -0.0023 343.1753 -0.0023 543.3653C-0.0023 560.9453 15.1377 576.0853 31.7377 575.5953C48.8277 575.1053 61.0377 561.9253 61.5277 544.3453C65.9177 369.0553 141.1177 231.3553 260.7377 153.7253Z"/>
</svg>