<?xml version="1.0" encoding="UTF-8" standalone="no"?>
<svg xmlns="http://www.w3.org/2000/svg"
     width="957.8857421875" height="1060.6086859154725"
     viewBox="0 0 957.8857421875 1060.6086859154725"
     fill="currentColor">
  <path d="M845.0959 825.1916C850.9559 812.9916 856.3259 800.2916 860.7159 786.6216C884.1559 726.5616 905.1559 660.6416 927.1259 588.8716C939.8159 547.8516 957.8859 495.6016 957.8859 472.1716C957.8859 445.8016 938.8459 428.2216 911.0059 428.2216C880.2459 428.2216 862.1859 447.7516 839.2359 494.1416L771.3659 636.7216C764.5259 652.3416 756.7159 658.2016 748.9059 658.2016C738.6459 658.2016 731.8159 652.3416 731.8159 635.2516V123.0516C731.8159 94.2416 708.3759 70.8016 679.5659 70.8016C650.7559 70.8016 627.3159 94.2416 627.3159 123.0516V489.2616C614.1359 484.3716 599.4859 480.4716 583.8659 477.5416V52.7316C583.8659 23.9216 560.4259 0.0016 531.6159 0.0016C502.8059 0.0016 478.8859 23.9216 478.8859 52.7316V442.3816C471.5559 442.8716 469.1159 442.8716 463.7459 444.3316ZM328.4959 308.5916L432.9859 413.5716V94.2416C432.9859 65.4316 409.5459 41.9916 380.7359 41.9916C351.9259 41.9916 328.4959 65.4316 328.4959 94.2416ZM878.7859 1049.8016C892.9459 1063.9616 917.8459 1064.4516 932.0059 1049.8016C946.1659 1034.6716 946.6559 1011.2316 932.0059 996.5816L64.3359 129.3916C49.6859 114.7416 25.7559 114.7416 10.6159 129.3916C-3.5441 144.0416 -3.5441 168.4616 10.6159 182.6216ZM218.6259 199.7116L284.5459 265.1416V246.0916C284.5459 217.2816 261.1059 193.8516 232.2959 193.8516C226.4359 193.8516 222.0459 196.2916 218.6259 199.7116ZM514.5259 1043.9416C601.9259 1043.9416 671.2659 1022.9516 725.9559 981.4416L179.5659 435.0616V701.1716C179.5659 916.5016 320.6759 1043.9416 514.5259 1043.9416Z"/>
</svg>