<?xml version="1.0" encoding="UTF-8" standalone="no"?>
<svg xmlns="http://www.w3.org/2000/svg"
     width="1512.20703125" height="1098.14453125"
     viewBox="0 0 1512.20703125 1098.14453125"
     fill="currentColor">
  <path d="M444.8283 1098.1409C536.6183 1098.1409 619.6283 1077.6409 687.9883 1015.6209C714.3583 1034.6709 743.6483 1045.4109 788.0883 1045.4109C829.0983 1045.4109 861.3283 1031.7409 919.4383 1031.7409C972.1683 1031.7409 999.0283 1045.4109 1041.5083 1045.4109C1142.0883 1045.4109 1177.2483 993.6509 1177.2483 936.5209C1177.2483 844.2409 1106.9383 789.0609 966.3083 776.8509C1016.1183 752.4409 1062.4983 733.4009 1094.7283 721.6809C1153.3183 760.7409 1237.7883 784.1809 1300.2883 783.6909C1432.1283 782.7109 1512.2083 741.7009 1512.2083 606.4409C1512.2083 440.4309 1385.7383 315.4309 1237.3083 313.9609L1131.3483 169.9209C1049.8083 61.0309 962.8883 0.0009 851.5583 0.0009C765.1383 0.0009 647.4583 47.8509 647.4583 115.7209C647.4583 172.3609 711.9183 212.8909 774.8983 252.4409C848.1483 298.3409 946.7783 355.4709 1038.5783 408.6909C1026.3683 419.9209 1017.0883 424.8009 1004.8783 424.8009C989.7483 424.8009 969.7283 417.4809 943.8483 402.3409C746.5783 291.0109 628.4183 200.6809 476.5583 200.6809C294.9183 200.6809 164.0583 293.9409 102.0483 472.6609C41.5083 485.3509 -0.0017 524.9009 -0.0017 585.9409C-0.0017 661.6209 61.5283 700.6809 124.5083 704.1009C170.8983 779.7809 300.2883 846.6809 466.7983 833.0109L513.6683 871.5809C500.9783 877.9309 489.2583 879.8809 475.5883 879.8809C443.3583 879.3909 412.1083 869.1409 374.9983 869.1409C307.1283 869.1409 259.7683 908.6909 259.7683 967.7709C259.7683 1051.2709 333.4983 1098.1409 444.8283 1098.1409ZM916.9883 961.9109C855.4683 961.9109 817.3783 971.6809 790.0383 971.6809C767.5783 971.6809 743.1683 968.2609 718.2583 948.2409L499.9983 764.1609C343.7483 771.0009 229.4883 729.9809 163.0883 634.2809C113.2783 640.1409 77.1483 621.0909 77.1483 580.0809C77.1483 542.9709 109.8683 517.0909 163.5783 520.0209C213.8683 354.9809 323.7283 278.3209 475.5883 278.3209C634.7683 278.3209 798.8283 406.7409 918.4583 474.1209C950.6883 493.6509 986.3283 500.0009 1010.7383 500.0009C1063.9683 500.0009 1106.4483 466.3109 1144.5283 397.9509L819.3383 197.7509C784.6683 176.7609 735.8383 139.1609 735.8383 125.9809C735.8383 97.1709 803.2183 75.6809 852.5383 75.6809C929.6883 75.6809 994.1383 122.5609 1053.7083 193.8509L1203.6183 373.0509C1341.3083 366.7009 1445.7983 472.1709 1445.7983 606.9309C1445.7983 693.3609 1405.2783 719.7309 1302.7383 719.7309C1238.7683 719.7309 1168.4583 693.8509 1107.4183 655.2709C1018.0683 677.7309 923.8283 720.2109 848.1483 776.3709C837.8883 777.3409 829.5883 778.3209 822.2683 779.3009L786.6183 693.3609C712.8883 516.1109 595.2183 455.5709 475.0983 455.5709C455.5683 455.5709 433.1083 456.0509 413.0883 460.4509C389.1583 465.8209 379.8783 478.5109 379.8783 494.6309C379.8783 513.1809 393.5583 525.3909 413.5783 524.9009C434.5683 523.9209 447.7583 521.4809 471.6783 521.4809C582.5183 521.4809 661.1283 581.5409 731.9383 741.7009L778.8083 850.5809C815.9183 842.7709 851.0783 836.9109 906.7383 836.9109C1005.8583 836.9109 1104.9783 863.2809 1104.9783 930.6609C1104.9783 956.5409 1082.0283 974.1209 1041.5083 974.1209C993.6483 974.1209 959.4683 961.9109 916.9883 961.9109ZM1270.0183 576.1709C1294.4383 576.1709 1314.4483 556.1509 1314.4483 532.2309C1314.4483 508.3009 1294.4383 488.2809 1270.0183 488.2809C1246.0983 488.2809 1226.0783 508.3009 1226.0783 532.2309C1226.0783 556.1509 1246.0983 576.1709 1270.0183 576.1709ZM330.0783 968.2609C330.0783 948.7309 342.7783 933.5909 371.0983 933.5909C398.9283 933.5909 429.6883 941.4109 463.3783 941.4109C508.2983 941.4109 539.5483 937.5009 569.3383 917.4809L632.8083 970.2109C587.8883 1010.7409 521.9683 1031.7409 442.3783 1031.7409C374.0283 1031.7409 330.0783 1007.3209 330.0783 968.2609Z"/>
</svg>