<?xml version="1.0" encoding="UTF-8" standalone="no"?>
<svg xmlns="http://www.w3.org/2000/svg"
     width="1023.4375" height="927.734375"
     viewBox="0 0 1023.4375 927.734375"
     fill="currentColor">
  <path d="M133.3006 927.7377H890.1406C973.1406 927.7377 1023.4406 870.1177 1023.4406 795.4077C1023.4406 772.4577 1016.6006 748.5377 1004.3906 727.0477L625.4906 66.8977C600.1006 22.4577 556.6406 -0.0023 511.7206 -0.0023C466.8006 -0.0023 422.8506 22.4577 397.9506 66.8977L19.0406 727.0477C5.8606 749.0277 0.0006 772.4577 0.0006 795.4077C0.0006 870.1177 50.2906 927.7377 133.3006 927.7377ZM194.3406 787.5977C173.8306 787.5977 162.1106 769.0477 172.8506 749.5077L489.7506 196.2877C500.0006 177.7377 522.9506 177.7377 533.2006 196.2877L850.1006 749.5077C860.3506 768.0677 849.1206 787.5977 828.6106 787.5977ZM299.8006 708.4977H723.1406C728.5206 708.4977 731.9306 703.1277 729.0006 697.2677L517.5806 328.6177C515.1406 323.2377 508.3006 323.2377 505.8606 328.6177L293.9406 696.7777C291.0206 702.6377 294.4306 708.4977 299.8006 708.4977Z"/>
</svg>