<?xml version="1.0" encoding="UTF-8" standalone="no"?>
<svg xmlns="http://www.w3.org/2000/svg"
     width="1286.1328125" height="869.656559849089"
     viewBox="0 0 1286.1328125 869.656559849089"
     fill="currentColor">
  <path d="M39.0583 581.3173C18.0683 581.3173 -0.0017 599.8673 -0.0017 620.8673C-0.0017 642.3473 18.0683 659.9273 39.0583 659.9273H228.0283C222.6583 717.0573 202.6383 766.3673 168.9483 801.0373C127.9283 840.5873 181.1483 894.7873 223.1483 856.7073C274.4183 808.8473 303.7083 739.0273 310.5483 659.9273L422.8483 660.4173C417.4783 633.5573 414.0583 607.1873 410.6483 581.7973L310.0583 581.3173C306.6383 546.1573 299.3183 510.0273 288.0883 473.8873H404.2983C403.8083 459.7273 403.8083 409.9273 404.2983 395.2773H258.7883C246.0983 359.1473 237.7883 323.4973 233.8883 288.8273H410.6483C414.0583 262.9573 417.4783 236.0973 422.8483 209.7273H232.4183C237.7883 152.5973 257.8083 102.7973 291.5083 68.6173C332.5183 29.0673 279.7883 -25.1327 236.8183 12.9573C185.5483 61.2973 156.2483 131.1173 149.8983 209.7273H39.0583C18.0683 209.7273 -0.0017 227.7973 -0.0017 249.2773C-0.0017 270.7673 18.5583 288.3473 39.0583 288.3473L150.3883 288.8273C153.8083 323.4973 161.1283 359.6373 172.8483 395.2773H39.0583C18.0683 395.2773 -0.0017 414.3173 -0.0017 435.3173C-0.0017 456.7973 18.0683 473.8873 39.0583 473.8873H202.1483C214.8483 510.5073 223.1483 546.6473 227.0483 581.3173ZM470.2183 434.8273C469.2383 529.0673 477.0483 619.3973 502.9283 711.6873C532.7183 812.2673 589.3583 847.9173 708.4983 847.9173H735.8383C1026.8583 847.9173 1286.1283 657.9773 1286.1283 434.8273C1286.1283 211.6873 1026.8583 20.7673 735.8383 20.7673H708.4983C589.8483 20.7673 533.1983 56.8973 502.9283 157.4873C477.0483 250.2573 469.2383 340.5873 470.2183 434.8273ZM548.8283 434.8273C548.3383 329.8473 557.1283 254.1673 578.6183 179.4573C596.1883 120.8673 631.8383 98.8873 708.4983 98.8873H735.8383C981.4483 98.8873 1207.5183 256.6073 1207.5183 434.8273C1207.5183 613.0473 981.4483 769.7873 735.8383 769.7873H708.4983C630.8583 769.7873 595.6983 747.8173 578.6183 690.1973C557.1283 615.4873 548.3383 539.8073 548.8283 434.8273Z"/>
</svg>