<?xml version="1.0" encoding="UTF-8" standalone="no"?>
<svg xmlns="http://www.w3.org/2000/svg"
     width="1425.29296875" height="827.1484375"
     viewBox="0 0 1425.29296875 827.1484375"
     fill="currentColor">
  <path d="M609.3783 414.0616C608.3983 508.3016 616.2083 598.6316 642.0883 690.9216C671.8783 791.5016 728.5183 827.1516 847.6583 827.1516H874.9983C1166.0183 827.1516 1425.2883 637.2116 1425.2883 414.0616C1425.2883 190.9216 1166.0183 0.0016 874.9983 0.0016H847.6583C729.0083 0.0016 672.3683 36.1316 642.0883 136.7216C616.2083 229.4916 608.3983 319.8216 609.3783 414.0616ZM442.3783 244.1416C494.6283 244.1416 537.5983 201.6616 537.5983 148.4416C537.5983 96.1916 494.6283 53.7116 442.3783 53.7116C389.6483 53.7116 346.6783 96.1916 346.6783 148.4416C346.6783 201.6616 389.6483 244.1416 442.3783 244.1416ZM221.1883 219.7216C260.2583 219.7216 291.9883 187.9916 291.9883 148.4416C291.9883 109.8616 260.2583 78.1216 221.1883 78.1216C182.1283 78.1216 150.3883 109.8616 150.3883 148.4416C150.3883 187.9916 182.1283 219.7216 221.1883 219.7216ZM48.3383 196.7816C74.2183 196.7816 95.6983 175.2916 95.6983 148.4416C95.6983 122.5616 74.2183 101.0716 48.3383 101.0716C21.4883 101.0716 -0.0017 122.0716 -0.0017 148.4416C-0.0017 175.2916 21.4883 196.7816 48.3383 196.7816ZM442.3783 509.7616C494.6283 509.7616 537.5983 466.8016 537.5983 414.0616C537.5983 361.8116 494.6283 318.8516 442.3783 318.8516C389.6483 318.8516 346.6783 361.8116 346.6783 414.0616C346.6783 466.8016 389.6483 509.7616 442.3783 509.7616ZM221.1883 485.3516C260.2583 485.3516 291.9883 453.6116 291.9883 414.0616C291.9883 375.0016 260.2583 343.2616 221.1883 343.2616C182.1283 343.2616 150.3883 375.0016 150.3883 414.0616C150.3883 453.6116 182.1283 485.3516 221.1883 485.3516ZM48.3383 462.4016C74.2183 462.4016 95.6983 440.9216 95.6983 414.0616C95.6983 387.6916 74.2183 366.2116 48.3383 366.2116C21.4883 366.2116 -0.0017 387.6916 -0.0017 414.0616C-0.0017 440.9216 21.4883 462.4016 48.3383 462.4016ZM442.3783 774.9016C494.6283 774.9016 537.5983 732.4216 537.5983 679.2016C537.5983 626.9516 494.6283 584.4716 442.3783 584.4716C389.6483 584.4716 346.6783 626.9516 346.6783 679.2016C346.6783 732.4216 389.6483 774.9016 442.3783 774.9016ZM221.1883 750.4916C260.2583 750.4916 291.9883 718.7516 291.9883 679.2016C291.9883 640.6216 260.2583 608.8916 221.1883 608.8916C182.1283 608.8916 150.3883 640.6216 150.3883 679.2016C150.3883 718.7516 182.1283 750.4916 221.1883 750.4916ZM48.3383 727.5416C74.2183 727.5416 95.6983 706.0516 95.6983 679.2016C95.6983 653.3216 74.2183 631.8316 48.3383 631.8316C21.4883 631.8316 -0.0017 653.3216 -0.0017 679.2016C-0.0017 706.0516 21.4883 727.5416 48.3383 727.5416Z"/>
</svg>