<?xml version="1.0" encoding="UTF-8" standalone="no"?>
<svg xmlns="http://www.w3.org/2000/svg"
     width="1015.0146484375" height="965.576171875"
     viewBox="0 0 1015.0146484375 965.576171875"
     fill="currentColor">
  <path d="M891.9664 944.5763C906.6164 959.7163 931.0264 959.7163 945.1864 944.5763C959.3464 929.9363 959.8364 906.4963 945.1864 891.3563L64.3264 10.9863C49.6864 -3.6637 25.2664 -3.6637 10.6164 10.9863C-3.5436 25.1463 -3.5436 50.0463 10.6164 64.2063ZM851.9264 718.9963C955.9364 604.7363 1015.0164 485.1063 1015.0164 364.0163C1015.0164 191.1663 896.3664 69.0963 743.0464 69.0963C647.8264 69.0963 574.5864 121.8263 530.1564 202.3963C486.6964 122.3163 412.4764 69.0963 317.2564 69.0963C283.0764 69.0963 250.3664 74.9463 221.0664 86.6663ZM712.2764 847.8963L80.4464 215.5763C57.9864 258.0563 45.2864 308.3463 45.2864 364.0163C45.2864 572.0263 219.6064 776.6063 494.9964 952.3963C505.2464 958.7363 519.8964 965.5763 530.1564 965.5763C540.4064 965.5763 555.0564 958.7363 565.7964 952.3963C618.0464 918.6963 667.3564 883.5463 712.2764 847.8963Z"/>
</svg>