<?xml version="1.0" encoding="UTF-8" standalone="no"?>
<svg xmlns="http://www.w3.org/2000/svg"
     width="1085.9375" height="1041.50390625"
     viewBox="0 0 1085.9375 1041.50390625"
     fill="currentColor">
  <path d="M335.9383 820.3152C335.9383 955.5652 419.4383 1041.5052 551.2683 1041.5052C649.4183 1041.5052 722.6583 998.0452 768.5583 915.0352L812.4983 836.4252C915.5283 648.4352 1085.9383 623.5352 1085.9383 381.8352C1085.9383 152.8352 937.9883 -0.0048 716.3083 -0.0048C488.7683 -0.0048 335.9383 153.8052 335.9383 383.3052ZM89.8483 235.3552C138.6683 235.3552 178.2183 196.2852 178.2183 146.4852C178.2183 97.6552 138.6683 58.1052 89.8483 58.1052C40.0383 58.1052 -0.0017 97.6552 -0.0017 146.4852C-0.0017 196.2852 39.5483 235.3552 89.8483 235.3552ZM409.6683 815.4252V383.3052C409.6683 197.2652 532.2283 73.7352 716.3083 73.7352C894.0383 73.7352 1012.2083 197.2652 1012.2083 381.8352C1012.2083 583.9852 853.5183 619.1452 747.0683 803.7152L704.5883 875.9752C669.9183 936.5252 621.5783 965.8252 554.6883 965.8252C464.3583 965.8252 409.6683 908.6952 409.6683 815.4252ZM485.8383 678.7152C485.8383 729.4952 524.4183 762.6952 581.5383 762.6952C654.7883 762.2052 705.0783 699.7052 705.0783 621.5852C705.0783 480.9552 559.5683 457.0352 559.5683 357.9052C559.5683 281.2452 622.0683 225.0952 715.3283 225.0952C810.0583 225.0952 871.5783 286.1352 871.5783 380.8552C871.5783 400.8752 888.1883 417.4852 908.1983 417.4852C928.2183 417.4852 945.3083 400.8752 945.3083 380.8552C945.3083 243.1652 853.0283 151.3652 715.3283 151.3652C578.1283 151.3652 485.8383 237.3052 485.8383 357.9052C485.8383 463.8652 585.9383 498.5352 585.9383 546.3852C585.9383 598.6352 485.8383 587.4052 485.8383 678.7152ZM89.8483 490.2352C138.6683 490.2352 178.2183 450.6852 178.2183 401.3652C178.2183 351.5652 138.6683 312.0152 89.8483 312.0152C39.5483 312.0152 -0.0017 351.5652 -0.0017 401.3652C-0.0017 450.6852 39.5483 490.2352 89.8483 490.2352ZM89.8483 745.6052C138.6683 745.6052 178.2183 705.5652 178.2183 655.7652C178.2183 606.9352 138.6683 567.3852 89.8483 567.3852C40.0383 567.3852 -0.0017 606.9352 -0.0017 655.7652C-0.0017 706.0552 39.5483 745.6052 89.8483 745.6052ZM89.8483 999.5152C138.6683 999.5152 178.2183 959.9652 178.2183 911.1352C178.2183 861.3252 138.6683 822.2652 89.8483 822.2652C39.5483 822.2652 -0.0017 861.3252 -0.0017 911.1352C-0.0017 959.9652 40.0383 999.5152 89.8483 999.5152Z"/>
</svg>