<?xml version="1.0" encoding="UTF-8" standalone="no"?>
<svg xmlns="http://www.w3.org/2000/svg"
     width="996.09375" height="996.09375"
     viewBox="0 0 996.09375 996.09375"
     fill="currentColor">
  <path d="M498.0477 996.0959C770.5077 996.0959 996.0977 770.0159 996.0977 498.0459C996.0977 225.5859 770.0177 -0.0041 497.5577 -0.0041C225.5877 -0.0041 -0.0023 225.5859 -0.0023 498.0459C-0.0023 770.0159 226.0777 996.0959 498.0477 996.0959ZM498.0477 913.0859C267.5777 913.0859 83.4977 728.5159 83.4977 498.0459C83.4977 267.5759 267.0877 83.0059 497.5577 83.0059C728.0277 83.0059 913.0877 267.5759 913.0877 498.0459C913.0877 728.5159 728.5177 913.0859 498.0477 913.0859ZM380.8577 282.7159C297.8477 282.7159 238.2777 345.2159 238.2777 431.6359C238.2777 560.0559 373.5377 678.2259 473.6377 741.6959C482.4177 746.5859 492.6777 753.4159 499.0277 753.4159C505.3677 753.4159 515.1377 747.0659 522.4577 741.6959C621.5777 676.7559 757.8077 560.0559 757.8077 431.6359C757.8077 345.2159 698.2377 282.7159 615.2377 282.7159C563.4777 282.7159 522.4577 312.4959 498.0477 356.9359C473.6377 312.4959 433.1077 282.7159 380.8577 282.7159Z"/>
</svg>