<?xml version="1.0" encoding="UTF-8" standalone="no"?>
<svg xmlns="http://www.w3.org/2000/svg"
     width="1151.3671875" height="898.92578125"
     viewBox="0 0 1151.3671875 898.92578125"
     fill="currentColor">
  <path d="M153.3183 898.9278H998.0483C1100.5883 898.9278 1151.3683 848.6378 1151.3683 748.0478V151.3678C1151.3683 50.7778 1100.5883 -0.0022 998.0483 -0.0022H153.3183C51.2683 -0.0022 -0.0017 50.7778 -0.0017 151.3678V748.0478C-0.0017 848.6378 51.2683 898.9278 153.3183 898.9278ZM154.2983 820.3078C105.4683 820.3078 78.6183 794.4378 78.6183 743.6478V155.7578C78.6183 104.9778 105.4683 78.6178 154.2983 78.6178H997.0683C1045.4083 78.6178 1072.7583 104.9778 1072.7583 155.7578V743.6478C1072.7583 794.4378 1045.4083 820.3078 997.0683 820.3078ZM459.4683 233.8878C376.4683 233.8878 316.8983 296.3878 316.8983 382.8078C316.8983 511.2278 452.1483 629.3978 552.2483 692.8678C560.5483 697.7578 571.2883 704.5878 577.6383 704.5878C583.4983 704.5878 593.2583 698.2378 600.5883 692.8678C700.1983 627.9278 836.4283 511.2278 836.4283 382.8078C836.4283 296.3878 776.3683 233.8878 693.8483 233.8878C642.0883 233.8878 600.5883 263.6678 576.6583 308.1078C552.2483 263.6678 511.7183 233.8878 459.4683 233.8878Z"/>
</svg>