<?xml version="1.0" encoding="UTF-8" standalone="no"?>
<svg xmlns="http://www.w3.org/2000/svg"
     width="750" height="1041.015625"
     viewBox="0 0 750 1041.015625"
     fill="currentColor">
  <path d="M-0.0017 820.3119C-0.0017 955.0819 83.9883 1041.0119 215.3283 1041.0119C313.4783 1041.0119 386.7183 998.0519 432.6183 915.0419L476.5583 836.4219C579.5883 647.9519 749.9983 623.5319 749.9983 381.3519C749.9983 152.8319 602.0483 0.0019 380.3683 0.0019C152.8283 0.0019 -0.0017 153.8119 -0.0017 383.3019ZM142.5783 685.0619C142.5783 590.8219 246.5783 602.5419 246.5783 548.3419C246.5783 499.5119 142.5783 463.8719 142.5783 354.9819C142.5783 230.4719 237.7883 141.1119 379.3983 141.1119C521.4883 141.1119 616.6983 236.3319 616.6983 377.9319C616.6983 398.9219 599.1183 416.5019 578.1283 416.5019C557.6183 416.5019 540.0383 398.9219 540.0383 377.9319C540.0383 281.2519 477.0483 217.7719 379.3983 217.7719C283.1983 217.7719 219.2383 275.8819 219.2383 354.9819C219.2383 457.0319 369.1383 480.4719 369.1383 625.9719C369.1383 707.0319 317.8683 771.9719 241.6983 772.4619C182.6183 772.4619 142.5783 737.3019 142.5783 685.0619Z"/>
</svg>