<?xml version="1.0" encoding="UTF-8" standalone="no"?>
<svg xmlns="http://www.w3.org/2000/svg"
     width="898.92578125" height="898.92578125"
     viewBox="0 0 898.92578125 898.92578125"
     fill="currentColor">
  <path d="M153.3183 898.9295H745.6083C848.1483 898.9295 898.9283 848.1495 898.9283 747.5595V151.3695C898.9283 50.7795 848.1483 -0.0005 745.6083 -0.0005H153.3183C51.2683 -0.0005 -0.0017 50.2895 -0.0017 151.3695V747.5595C-0.0017 848.6295 51.2683 898.9295 153.3183 898.9295ZM219.7283 131.3495C246.0983 131.3495 266.1183 146.4795 278.3183 168.9495C290.5283 146.4795 311.5283 131.3495 335.9383 131.3495C377.4383 131.3495 407.2283 162.5995 407.2283 205.5695C407.2283 269.0395 340.3283 328.1295 291.0183 358.8895C286.6183 361.3295 282.2283 364.2595 278.8083 364.2595C275.8783 364.2595 270.9983 361.8195 266.5983 358.8895C218.2583 324.7095 149.8983 269.0395 149.8983 205.5695C149.8983 162.5995 179.6883 131.3495 219.7283 131.3495ZM180.6683 582.5195C162.5983 582.5195 149.8983 569.3395 149.8983 552.2495C149.8983 535.6395 162.5983 522.4595 180.6683 522.4595H671.3883C688.4783 522.4595 701.1683 535.6395 701.1683 552.2495C701.1683 569.3395 688.4783 582.5195 671.3883 582.5195ZM180.6683 749.5095C162.5983 749.5095 149.8983 736.3295 149.8983 719.7295C149.8983 702.6395 162.5983 689.4495 180.6683 689.4495H542.4783C560.0583 689.4495 572.7583 702.6395 572.7583 719.7295C572.7583 736.3295 560.0583 749.5095 542.4783 749.5095Z"/>
</svg>