<?xml version="1.0" encoding="UTF-8" standalone="no"?>
<svg xmlns="http://www.w3.org/2000/svg"
     width="996.09375" height="996.09375"
     viewBox="0 0 996.09375 996.09375"
     fill="currentColor">
  <path d="M498.0477 996.0959C770.5077 996.0959 996.0977 770.0159 996.0977 498.0459C996.0977 225.5859 770.0177 -0.0041 497.5577 -0.0041C225.5877 -0.0041 -0.0023 225.5859 -0.0023 498.0459C-0.0023 770.0159 226.0777 996.0959 498.0477 996.0959ZM728.0277 759.2759L235.8377 267.0859C227.5377 258.7859 227.5377 244.6259 235.8377 235.8359C244.6277 227.0459 258.7877 227.0459 267.5777 235.8359L759.2777 728.0259C768.5577 736.8159 768.5577 750.4859 759.2777 759.2759C750.9777 767.5759 736.8177 767.5759 728.0277 759.2759ZM369.1377 284.1759C373.0477 283.2059 376.9577 282.7159 380.8577 282.7159C433.1077 282.7159 473.6377 312.4959 498.0477 356.9359C521.9777 312.4959 563.4777 282.7159 615.2377 282.7159C697.7577 282.7159 757.8077 345.2159 757.8077 431.6359C757.8077 492.1859 726.5577 548.8259 684.0777 599.6059ZM599.1177 682.6159C572.7577 705.0759 545.4077 725.0959 521.9777 741.6959C514.6477 747.0659 504.8877 753.4159 499.0277 753.4159C492.6777 753.4159 481.9377 746.5859 473.6377 741.6959C372.0677 680.1759 238.2777 560.0559 238.2777 431.6359C238.2777 398.9259 247.0677 369.6259 262.2077 346.1959Z"/>
</svg>