<?xml version="1.0" encoding="UTF-8" standalone="no"?>
<svg xmlns="http://www.w3.org/2000/svg"
     width="1085.9375" height="1041.50390625"
     viewBox="0 0 1085.9375 1041.50390625"
     fill="currentColor">
  <path d="M335.9383 820.3152C335.9383 955.5652 419.4383 1041.5052 551.2683 1041.5052C649.4183 1041.5052 722.6583 998.0452 768.5583 915.0352L812.4983 836.4252C915.5283 648.4352 1085.9383 623.5352 1085.9383 381.8352C1085.9383 152.8352 937.9883 -0.0048 716.3083 -0.0048C488.7683 -0.0048 335.9383 153.8052 335.9383 383.3052ZM89.8483 235.3552C138.6683 235.3552 178.2183 196.2852 178.2183 146.4852C178.2183 97.6552 138.6683 58.1052 89.8483 58.1052C40.0383 58.1052 -0.0017 97.6552 -0.0017 146.4852C-0.0017 196.2852 39.5483 235.3552 89.8483 235.3552ZM478.5183 685.5452C478.5183 591.3052 582.0283 602.5352 582.0283 548.8252C582.0283 499.5152 478.5183 463.8652 478.5183 354.9852C478.5183 230.4652 573.7283 141.6052 715.3283 141.6052C857.4183 141.6052 952.6383 236.3252 952.6383 378.4152C952.6383 399.4152 935.0583 416.5052 914.0583 416.5052C893.5583 416.5052 875.9783 399.4152 875.9783 378.4152C875.9783 281.2452 812.9883 218.2652 715.3283 218.2652C619.1383 218.2652 555.1783 275.8752 555.1783 354.9852C555.1783 457.0352 705.0783 480.9552 705.0783 626.4652C705.0783 707.0352 653.3183 771.9752 577.6383 772.4652C518.5583 772.4652 478.5183 737.7952 478.5183 685.5452ZM89.8483 490.2352C138.6683 490.2352 178.2183 450.6852 178.2183 401.3652C178.2183 351.5652 138.6683 312.0152 89.8483 312.0152C39.5483 312.0152 -0.0017 351.5652 -0.0017 401.3652C-0.0017 450.6852 39.5483 490.2352 89.8483 490.2352ZM89.8483 745.6052C138.6683 745.6052 178.2183 705.5652 178.2183 655.7652C178.2183 606.9352 138.6683 567.3852 89.8483 567.3852C40.0383 567.3852 -0.0017 606.9352 -0.0017 655.7652C-0.0017 706.0552 39.5483 745.6052 89.8483 745.6052ZM89.8483 999.5152C138.6683 999.5152 178.2183 959.9652 178.2183 911.1352C178.2183 861.3252 138.6683 822.2652 89.8483 822.2652C39.5483 822.2652 -0.0017 861.3252 -0.0017 911.1352C-0.0017 959.9652 40.0383 999.5152 89.8483 999.5152Z"/>
</svg>