<?xml version="1.0" encoding="UTF-8" standalone="no"?>
<svg xmlns="http://www.w3.org/2000/svg"
     width="1152.7339150087544" height="1173.33984375"
     viewBox="0 0 1152.7339150087544 1173.33984375"
     fill="currentColor">
  <path d="M110.8383 1173.3448H413.5783C480.9583 1173.3448 524.4183 1130.3748 524.4183 1064.4548V108.8848C524.4183 42.9648 480.9583 0.0048 413.5783 0.0048H110.8383C43.4583 0.0048 -0.0017 42.9648 -0.0017 108.8848V1064.4548C-0.0017 1130.3748 43.4583 1173.3448 110.8383 1173.3448ZM390.6283 380.8548C375.9783 380.8548 365.2383 369.1448 365.2383 354.9848V156.2548C365.2383 142.0848 375.9783 130.3748 390.6283 130.3748C404.7883 130.3748 416.0183 142.0848 416.0183 156.2548V354.9848C416.0183 369.1448 404.7883 380.8548 390.6283 380.8548ZM287.1083 380.8548C272.4583 380.8548 260.7383 369.1448 260.7383 354.9848V156.2548C260.7383 142.0848 272.4583 130.3748 287.1083 130.3748C300.7783 130.3748 312.0083 142.0848 312.0083 156.2548V354.9848C312.0083 369.1448 300.7783 380.8548 287.1083 380.8548ZM717.2883 527.8348C847.6583 527.8348 915.0383 421.8748 1028.8083 421.8748C1055.1783 421.8748 1077.6383 427.2448 1105.4683 442.8748C1123.0483 452.6348 1138.6683 445.8048 1146.4883 434.5748C1156.2483 420.4148 1155.2783 398.9248 1133.7883 386.7148C1101.5583 367.6748 1066.4083 358.3948 1028.8083 358.3948C896.4883 358.3948 829.0983 464.8448 717.2883 464.8448C690.9183 464.8448 668.4583 458.9848 640.1383 442.8748C623.5383 433.5948 607.4183 439.9448 599.1183 452.6348C590.3283 466.3048 591.3083 487.7948 611.8183 499.5148C644.0383 519.5348 679.6883 527.8348 717.2883 527.8348ZM390.6283 709.9648C375.9783 709.9648 365.2383 698.7348 365.2383 684.0848V485.3548C365.2383 471.1948 375.9783 459.9648 390.6283 459.9648C404.7883 459.9648 416.0183 471.1948 416.0183 485.3548V684.0848C416.0183 698.7348 404.7883 709.9648 390.6283 709.9648ZM287.1083 709.9648C272.4583 709.9648 260.7383 698.7348 260.7383 684.0848V485.3548C260.7383 471.1948 272.4583 459.9648 287.1083 459.9648C300.7783 459.9648 312.0083 471.1948 312.0083 485.3548V684.0848C312.0083 698.7348 300.7783 709.9648 287.1083 709.9648ZM717.7783 671.3848C847.6583 671.3848 915.5283 565.4248 1028.8083 565.4248C1055.6683 565.4248 1078.1283 570.8048 1105.9583 586.4248C1123.0483 596.1948 1139.1583 589.3548 1146.9683 578.1248C1156.2483 563.9648 1155.7583 542.4848 1134.7683 530.2748C1102.0483 511.2348 1066.4083 501.9548 1028.8083 501.9548C896.9683 501.9548 829.5883 608.3948 717.7783 608.3948C690.9183 608.3948 668.4583 602.5348 640.6283 586.9148C624.0283 577.1448 607.4183 583.4948 599.1183 596.1948C590.3283 609.8648 591.3083 631.3448 612.3083 643.0648C644.5283 663.0848 680.1783 671.3848 717.7783 671.3848ZM717.2883 814.9448C847.6583 814.9448 915.0383 708.9848 1028.8083 708.9848C1055.1783 708.9848 1077.6383 714.3548 1105.4683 730.4648C1123.0483 740.2348 1138.6683 732.9148 1146.4883 721.6748C1156.2483 707.5148 1155.2783 686.0348 1133.7883 673.8248C1101.5583 654.7848 1066.4083 645.5048 1028.8083 645.5048C896.4883 645.5048 829.0983 751.9548 717.2883 751.9548C690.9183 751.9548 668.4583 746.0948 640.1383 730.4648C623.5383 720.7048 607.4183 727.0548 599.1183 739.7448C590.3283 753.4148 591.3083 775.3948 611.8183 787.1048C644.0383 806.6448 679.6883 814.9448 717.2883 814.9448ZM390.6283 1040.0348C375.9783 1040.0348 365.2383 1028.3248 365.2383 1014.6448V815.9148C365.2383 801.2648 375.9783 789.5548 390.6283 789.5548C404.7883 789.5548 416.0183 801.2648 416.0183 815.9148V1014.6448C416.0183 1028.3248 404.7883 1040.0348 390.6283 1040.0348ZM287.1083 1040.0348C272.4583 1040.0348 260.7383 1028.3248 260.7383 1014.6448V815.9148C260.7383 801.2648 272.4583 789.5548 287.1083 789.5548C300.7783 789.5548 312.0083 801.2648 312.0083 815.9148V1014.6448C312.0083 1028.3248 300.7783 1040.0348 287.1083 1040.0348Z"/>
</svg>