<?xml version="1.0" encoding="UTF-8" standalone="no"?>
<svg xmlns="http://www.w3.org/2000/svg"
     width="1456.54296875" height="650.390625"
     viewBox="0 0 1456.54296875 650.390625"
     fill="currentColor">
  <path d="M361.8183 610.3544V568.8444H1094.7283V610.3544C1094.7283 634.2744 1110.3483 650.3944 1134.7683 650.3944H1307.6183C1332.0283 650.3944 1348.1483 634.2744 1348.1483 610.3544V564.9444C1419.4383 552.2444 1456.5383 502.9344 1456.5383 419.9244V148.9244C1456.5383 50.7844 1405.2783 0.0044 1305.1783 0.0044H150.8783C51.7583 0.0044 -0.0017 50.7844 -0.0017 148.9244V419.9244C-0.0017 502.9344 37.1083 551.7544 108.3983 564.9444V610.3544C108.3983 634.2744 124.5083 650.3944 148.4383 650.3944H321.7783C346.1883 650.3944 361.8183 634.2744 361.8183 610.3544ZM150.8783 490.2344C106.4483 490.2344 78.6183 462.8944 78.6183 419.9244V148.9244C78.6183 105.9544 106.4483 78.6144 150.8783 78.6144H1305.1783C1349.6083 78.6144 1377.9283 105.9544 1377.9283 148.9244V419.9244C1377.9283 462.8944 1349.6083 490.2344 1305.1783 490.2344ZM290.5283 389.6444C349.1183 389.6444 396.4883 342.2844 396.4883 283.6944C396.4883 224.6044 349.1183 177.2444 290.5283 177.2444C231.4483 177.2444 184.0783 224.6044 184.0783 283.6944C184.0783 342.2844 231.4483 389.6444 290.5283 389.6444ZM1166.0183 389.6444C1224.6083 389.6444 1271.9683 342.2844 1271.9683 283.6944C1271.9683 224.6044 1224.6083 177.2444 1166.0183 177.2444C1107.4183 177.2444 1060.0583 224.6044 1060.0583 283.6944C1060.0583 342.2844 1107.4183 389.6444 1166.0183 389.6444ZM532.2283 390.1344H923.8283C948.2383 390.1344 963.8683 374.5144 963.8683 350.5844V218.7544C963.8683 194.8244 948.2383 178.7144 923.8283 178.7144H532.2283C508.2983 178.7144 492.1883 194.8244 492.1883 218.7544V350.5844C492.1883 374.5144 508.2983 390.1344 532.2283 390.1344Z"/>
</svg>