<?xml version="1.0" encoding="UTF-8" standalone="no"?>
<svg xmlns="http://www.w3.org/2000/svg"
     width="1183.10546875" height="1139.16015625"
     viewBox="0 0 1183.10546875 1139.16015625"
     fill="currentColor">
  <path d="M136.7183 854.0064H331.0583V779.7864H140.6283C97.6583 779.7864 74.2183 755.8564 74.2183 714.3564V139.6464C74.2183 98.1464 97.6583 74.2164 140.6283 74.2164H522.4583C536.1283 74.2164 546.3883 80.0764 550.7783 89.8464C553.7083 91.7964 553.7083 95.2164 555.1783 100.5864C583.0083 89.8464 613.2783 81.5464 646.9683 75.1964C645.5083 67.8664 643.5583 62.0164 641.5983 58.5964C622.5583 20.9964 583.0083 -0.0036 526.3683 -0.0036H136.7183C46.3883 -0.0036 -0.0017 47.3664 -0.0017 138.1864V715.8164C-0.0017 807.1264 46.3883 854.0064 136.7183 854.0064ZM234.8683 228.5164C234.8683 288.0864 283.6883 333.9864 345.2183 330.5664C350.5883 310.5464 356.9383 291.0164 364.2583 273.4364C356.4483 278.8064 347.1683 281.7364 336.4283 281.7364C307.1283 281.7364 283.1983 257.8164 283.1983 228.5164C283.1983 199.7064 307.6183 175.2964 336.4283 175.2964C367.1883 175.2964 390.6283 202.1464 387.6983 230.9564C398.4383 213.3764 410.6483 197.7564 424.3183 183.1064C410.1583 149.4164 376.4683 125.9764 336.4283 126.4664C279.7883 126.9564 234.8683 171.3864 234.8683 228.5164ZM790.0383 261.7164C915.5283 261.7164 1016.1183 234.3764 1016.1183 199.2164C1016.1183 163.0864 915.5283 136.2264 790.0383 136.2264C665.0383 136.2264 564.4483 163.0864 564.4483 199.2164C564.4483 234.3764 665.0383 261.7164 790.0383 261.7164ZM790.0383 1139.1564C1059.5683 1139.1564 1183.1083 1043.4564 1183.1083 825.6864V454.1064C1183.1083 362.3064 1161.1283 300.2964 1126.4683 256.3464C1114.7483 241.6964 1096.1883 240.7264 1081.5383 252.4364C1034.6683 293.4564 912.5983 328.6164 790.0383 328.6164C667.9683 328.6164 545.8983 293.4564 499.0283 252.4364C484.3783 240.7264 465.8183 241.6964 454.0983 256.3464C419.4383 300.2964 397.4583 362.3064 397.4583 454.1064V825.6864C397.4583 1043.4564 520.9983 1139.1564 790.0383 1139.1564ZM790.0383 1060.5464C564.4483 1060.5464 476.0783 984.8664 476.0783 817.8664V458.4964C476.0783 415.5264 483.3983 375.4864 501.4683 340.8164C559.5683 386.2264 669.4383 407.2264 790.0383 407.2264C911.1283 407.2264 1020.9983 386.2264 1079.0983 340.8164C1097.1683 375.4864 1104.4883 415.5264 1104.4883 458.4964V817.8664C1104.4883 984.8664 1016.1183 1060.5464 790.0383 1060.5464ZM153.8083 546.3864C153.8083 645.9964 234.3783 724.1164 331.0583 724.6064V621.0964C292.4783 620.6064 256.3483 590.8164 256.3483 545.8964C256.3483 506.3464 287.5983 472.1664 331.0583 470.7064C331.0583 425.7764 332.5183 398.4364 337.3983 368.6564C236.3283 365.7264 153.8083 446.2864 153.8083 546.3864Z"/>
</svg>