<?xml version="1.0" encoding="UTF-8" standalone="no"?>
<svg xmlns="http://www.w3.org/2000/svg"
     width="996.09375" height="996.09375"
     viewBox="0 0 996.09375 996.09375"
     fill="currentColor">
  <path d="M498.0477 996.0959C770.5077 996.0959 996.0977 770.0159 996.0977 498.0459C996.0977 225.5859 770.0177 -0.0041 497.5577 -0.0041C225.5877 -0.0041 -0.0023 225.5859 -0.0023 498.0459C-0.0023 770.0159 226.0777 996.0959 498.0477 996.0959ZM498.0477 536.6259C346.6777 536.6259 227.5377 481.9359 227.5377 412.5959C227.5377 344.7259 346.6777 291.5059 498.0477 291.5059C649.4177 291.5059 768.5577 344.7259 768.5577 412.5959C768.5577 481.9359 649.4177 536.6259 498.0477 536.6259ZM498.0477 704.1059C345.2177 704.1059 227.5377 635.7459 227.5377 551.7559V491.2059C280.2777 542.4759 384.7677 572.7559 498.0477 572.7559C611.8177 572.7559 716.3077 542.4759 768.5577 491.2059V551.7559C768.5577 635.7459 650.3877 704.1059 498.0477 704.1059Z"/>
</svg>