<?xml version="1.0" encoding="UTF-8" standalone="no"?>
<svg xmlns="http://www.w3.org/2000/svg"
     width="1165.52734375" height="1025.5126953125"
     viewBox="0 0 1165.52734375 1025.5126953125"
     fill="currentColor">
  <path d="M140.6283 917.6021C140.6283 985.9621 181.1483 1025.5121 250.9783 1025.5121H915.5283C984.8683 1025.5121 1025.3883 985.9621 1025.3883 917.6021V435.6721L1108.3983 505.4921C1114.2583 510.3721 1121.0983 513.3021 1130.3683 513.3021C1151.3683 513.3021 1165.5283 500.1221 1165.5283 480.5921C1165.5283 467.8921 1160.6483 459.1021 1149.8983 450.3221L1025.3883 345.3321V139.7721C1025.3883 118.2821 1011.7183 104.6121 990.2383 104.6121H937.9883C916.9883 104.6121 902.8283 118.2821 902.8283 139.7721V242.3121L641.5983 23.0721C605.4683 -7.6879 561.0383 -7.6879 524.4183 23.0721L15.6283 450.3221C4.8783 459.1021 -0.0017 467.8921 -0.0017 480.5921C-0.0017 500.1221 14.1583 513.3021 35.6483 513.3021C44.4383 513.3021 51.2683 510.3721 57.6183 505.4921L140.6283 435.1821ZM258.2983 956.6621C227.0483 956.6621 209.9583 939.0821 209.9583 907.3521V377.0721L565.9183 79.2221C576.1683 69.9421 589.3583 69.4621 600.0983 79.2221L956.0583 377.5621V907.3521C956.0583 939.0821 938.9683 956.6621 908.1983 956.6621ZM301.2683 803.8321C301.2683 842.8921 326.1683 866.3321 369.1383 866.3321H797.3683C839.8483 866.3321 865.2383 842.8921 865.2383 803.8321V423.9521L614.7483 213.9921C595.2183 198.3621 570.7983 198.3621 551.7583 213.9921L301.2683 423.9521ZM370.6083 774.0521V457.6421L567.3783 292.1121C576.1683 284.7921 589.8483 284.3021 598.6283 292.1121L795.8983 457.6421V774.0521C795.8983 789.1821 787.5983 797.4821 772.4583 797.4821H393.5583C378.9083 797.4821 370.6083 789.1821 370.6083 774.0521ZM461.4283 660.7621C461.4283 689.0821 479.9783 706.6621 509.7683 706.6621H656.2483C686.5283 706.6621 704.5883 689.0821 704.5883 660.7621V502.0721L610.8383 423.4621C593.7483 409.3021 572.2683 409.3021 555.6683 423.4621L461.4283 502.0721ZM529.2983 628.5421V533.8121L571.2883 498.1721C578.6183 492.3121 587.8883 492.3121 594.7283 498.1721L636.7183 533.8121V628.5421C636.7183 635.8621 633.2983 639.7721 625.4883 639.7721H540.5283C533.1983 639.7721 529.2983 635.8621 529.2983 628.5421Z"/>
</svg>