<?xml version="1.0" encoding="UTF-8" standalone="no"?>
<svg xmlns="http://www.w3.org/2000/svg"
     width="961.42578125" height="877.9296875"
     viewBox="0 0 961.42578125 877.9296875"
     fill="currentColor">
  <path d="M480.9583 124.5159C616.6983 124.5159 711.4283 97.1659 711.4283 62.0159C711.4283 26.3659 616.6983 -0.0041 480.9583 -0.0041C344.7283 -0.0041 249.9983 26.3659 249.9983 62.0159C249.9983 97.1659 344.7283 124.5159 480.9583 124.5159ZM480.9583 877.9259C658.1983 877.9259 732.9083 855.4659 803.7083 789.5459C903.3183 698.7259 961.4283 567.3859 961.4283 427.7359C961.4283 314.9459 923.8283 207.5159 853.5183 128.9059C834.4683 104.4959 802.2483 100.0959 774.8983 117.1859C714.8483 161.1359 634.2783 190.9159 480.9583 190.9159C327.1483 190.9159 246.5783 161.1359 187.0083 117.1859C159.6683 100.0959 126.9483 104.4959 107.9083 128.9059C38.0883 207.5159 -0.0017 314.9459 -0.0017 427.7359C-0.0017 567.3859 58.1083 698.7259 157.7183 789.5459C228.5183 855.4659 303.2183 877.9259 480.9583 877.9259ZM480.9583 799.3159C325.6883 799.3159 266.5983 783.6959 210.9383 731.9359C126.4683 654.2959 78.6183 544.4359 78.6183 427.7359C78.6183 344.2359 103.0283 263.6759 154.2983 196.2859C233.3983 248.0459 349.6083 269.5359 480.9583 269.5359C611.8183 269.5359 728.0283 248.0459 807.1283 196.2859C858.3983 263.6759 882.8083 344.2359 882.8083 427.7359C882.8083 544.4359 834.9583 654.2959 750.4883 731.9359C695.3083 783.6959 635.7383 799.3159 480.9583 799.3159Z"/>
</svg>