<?xml version="1.0" encoding="UTF-8" standalone="no"?>
<svg xmlns="http://www.w3.org/2000/svg"
     width="996.09375" height="996.09375"
     viewBox="0 0 996.09375 996.09375"
     fill="currentColor">
  <path d="M498.0477 996.0959C770.5077 996.0959 996.0977 770.0159 996.0977 498.0459C996.0977 225.5859 770.0177 -0.0041 497.5577 -0.0041C225.5877 -0.0041 -0.0023 225.5859 -0.0023 498.0459C-0.0023 770.0159 226.0777 996.0959 498.0477 996.0959ZM362.7977 791.9959C330.5677 791.9959 310.5477 773.4359 310.5477 739.7459V732.9059C310.5477 656.2459 392.0877 574.2159 437.0077 529.2959C458.9877 507.8159 457.5177 485.3559 437.0077 465.8159C392.0877 421.3859 310.5477 339.3559 310.5477 261.7159V256.3459C310.5477 222.1659 330.5677 203.6159 362.7977 203.6159H633.2977C665.5277 203.6159 685.5477 222.1659 685.5477 256.3459V261.7159C685.5477 339.3559 604.0077 421.3859 559.0777 465.8159C538.5777 485.3559 537.1077 507.8159 559.0777 529.2959C604.0077 574.2159 685.5477 656.2459 685.5477 732.9059V739.7459C685.5477 773.4359 665.5277 791.9959 633.2977 791.9959ZM387.2077 748.5359H608.8877C623.0477 748.5359 625.4877 732.4259 616.2077 724.1259L520.5077 626.4659C517.0877 623.0459 515.6277 621.5859 515.6277 616.2059V474.6059C515.6277 460.4459 518.5577 453.6159 528.8077 443.8459C550.7777 421.8759 574.2177 399.4159 594.2377 378.4159C602.5377 369.6259 598.1477 359.8659 587.8877 359.8659H408.6877C398.4377 359.8659 393.5577 369.6259 402.3477 378.4159C421.8777 399.4159 445.3077 421.8759 467.2877 443.8459C477.5377 453.6159 480.4677 460.4459 480.4677 474.6059V616.2059C480.4677 621.5859 479.0077 623.0459 475.5877 626.4659L379.8877 724.1259C370.6077 732.4259 373.0477 748.5359 387.2077 748.5359Z"/>
</svg>