<?xml version="1.0" encoding="UTF-8" standalone="no"?>
<svg xmlns="http://www.w3.org/2000/svg"
     width="996.09375" height="996.09375"
     viewBox="0 0 996.09375 996.09375"
     fill="currentColor">
  <path d="M498.0477 996.0977C770.5077 996.0977 996.0977 770.5077 996.0977 498.0477C996.0977 226.0777 770.0177 -0.0023 497.5577 -0.0023C225.5877 -0.0023 -0.0023 226.0777 -0.0023 498.0477C-0.0023 770.5077 226.0777 996.0977 498.0477 996.0977ZM271.9777 510.2577C251.4677 526.3677 230.4677 499.5077 247.5577 486.3277L471.1877 309.0777C479.4877 302.7377 488.7677 299.3177 498.0477 299.3177C507.3277 299.3177 516.5977 303.2177 524.4177 309.0777L748.0477 486.3277C765.6277 499.5077 744.6277 526.3677 723.6377 510.2577L505.8577 339.3577C503.9077 337.3977 499.9977 336.4277 498.0477 336.4277C495.6077 336.4277 492.1877 337.3977 489.7477 339.3577ZM324.7077 648.4377C297.8477 648.4377 281.7377 633.2977 281.7377 605.4677V536.6177C288.0877 533.6877 293.9477 529.7877 301.7577 524.8977L498.0477 370.1177L693.8477 524.8977C702.1477 529.7877 707.5177 533.6877 714.3577 536.6177V605.4677C714.3577 633.2977 698.2377 648.4377 671.3877 648.4377ZM229.4877 462.8877C209.9577 477.0477 208.4977 496.5777 215.3277 513.1877H135.2577C118.6477 513.1877 114.2577 494.6277 124.9977 487.3077L253.4177 397.4577C259.7677 393.0677 267.0877 391.1177 274.8977 391.1177H321.2877ZM766.5977 462.8877L674.8077 391.1177H720.7077C729.0077 391.1177 735.3477 393.0677 742.1877 397.4577L870.6077 487.3077C882.3277 495.6077 876.9577 513.1877 860.3477 513.1877H780.2777C787.1077 496.5777 785.6477 477.0477 766.5977 462.8877ZM445.7977 615.7177H549.8077V528.3177C549.8077 520.5077 544.9177 514.6477 536.1377 514.6477H459.9577C451.6577 514.6477 445.7977 520.5077 445.7977 528.3177ZM251.9577 605.4677C251.9577 622.0677 255.8577 636.2277 263.6677 648.4377H200.6877C172.8477 648.4377 156.7377 633.2977 156.7377 605.4677V541.9877L251.9577 541.5077ZM744.1377 605.4677V541.5077L839.3577 541.9877V605.4677C839.3577 633.2977 823.2377 648.4377 795.4077 648.4377H732.4177C739.7477 636.2277 744.1377 622.0677 744.1377 605.4677Z"/>
</svg>