<?xml version="1.0" encoding="UTF-8" standalone="no"?>
<svg xmlns="http://www.w3.org/2000/svg"
     width="996.09375" height="996.09375"
     viewBox="0 0 996.09375 996.09375"
     fill="currentColor">
  <path d="M498.0477 996.0959C770.5077 996.0959 996.0977 770.0159 996.0977 498.0459C996.0977 225.5859 770.0177 -0.0041 497.5577 -0.0041C225.5877 -0.0041 -0.0023 225.5859 -0.0023 498.0459C-0.0023 770.0159 226.0777 996.0959 498.0477 996.0959ZM498.0477 913.0859C267.5777 913.0859 83.4977 728.5159 83.4977 498.0459C83.4977 267.5759 267.0877 83.0059 497.5577 83.0059C728.0277 83.0059 913.0877 267.5759 913.0877 498.0459C913.0877 728.5159 728.5177 913.0859 498.0477 913.0859ZM277.8277 509.2759L489.2577 343.2659C491.2077 341.3059 495.1177 340.3359 497.0677 340.3359C499.5077 340.3359 502.9277 341.3059 505.3677 343.2659L716.7977 509.2759C736.3277 524.9059 756.8377 499.0259 740.2377 485.8359L522.9477 313.9659C515.6277 308.5959 505.8577 304.6859 497.0677 304.6859C488.2777 304.6859 479.4877 308.1059 471.6777 313.9659L253.9077 485.8359C237.3077 499.0259 257.8077 524.9059 277.8277 509.2759ZM329.0977 643.0659H665.0377C691.4077 643.0659 707.0277 627.9259 707.0277 601.0759V534.6659C700.6877 531.7359 694.8277 527.8359 687.0077 522.4559L497.0677 373.0459L306.6377 522.4559C299.3177 527.8359 293.9477 531.7359 287.1077 534.6659V601.0759C287.1077 627.9259 302.7377 643.0659 329.0977 643.0659ZM236.3277 463.3759L325.1977 394.0459H281.2477C273.4377 394.0459 266.1177 395.5059 260.2577 399.9059L135.2577 486.3259C124.9977 494.1359 129.3977 512.2059 145.5077 512.2059H223.1477C216.7977 496.0959 218.2577 477.0459 236.3277 463.3759ZM757.8077 463.3759C776.3677 477.0459 777.8277 496.0959 771.4877 512.2059H849.1177C865.2377 512.2059 869.6277 495.1159 858.3977 486.3259L733.8877 399.9059C728.0277 395.5059 721.6777 394.0459 712.8877 394.0459H668.9477ZM446.7777 610.8359L446.2877 526.8559C446.2877 518.5559 452.1477 513.1859 460.4477 513.1859H534.6677C542.4777 513.1859 547.8477 518.5559 547.8477 526.8559V610.8359ZM258.2977 601.0759V539.5459L166.0177 540.0359V601.0759C166.0177 627.9259 181.6377 643.0659 208.4977 643.0659H270.0177C262.6977 631.3459 258.2977 617.6759 258.2977 601.0759ZM735.8377 601.0759C735.8377 617.6759 731.9377 631.3459 724.1177 643.0659H785.6477C812.4977 643.0659 828.1277 627.9259 828.1277 601.0759V540.0359L735.8377 539.5459Z"/>
</svg>