<?xml version="1.0" encoding="UTF-8" standalone="no"?>
<svg xmlns="http://www.w3.org/2000/svg"
     width="996.09375" height="996.09375"
     viewBox="0 0 996.09375 996.09375"
     fill="currentColor">
  <path d="M498.0477 996.0977C770.5077 996.0977 996.0977 770.5077 996.0977 498.0477C996.0977 226.0777 770.0177 -0.0023 497.5577 -0.0023C225.5877 -0.0023 -0.0023 226.0777 -0.0023 498.0477C-0.0023 770.5077 226.0777 996.0977 498.0477 996.0977ZM215.3277 490.7177C190.4277 502.9277 177.7377 473.1477 197.2677 463.3777L399.8977 356.9377C416.9877 348.1477 430.6677 348.1477 447.7577 356.9377L641.1177 458.0077V273.9277C641.1177 265.6277 645.0177 258.2977 652.8277 255.3677C660.1577 252.4377 666.0177 250.4877 680.6677 250.4877C715.3277 250.4877 737.3077 267.5777 769.0477 267.5777C785.1577 267.5777 792.4777 263.1877 799.3177 263.1877C807.1277 263.1877 810.5477 267.5777 810.5477 273.9277V367.6777C810.5477 376.9577 806.6377 382.8077 798.3377 386.2277C791.0177 390.1377 785.1577 391.5977 770.5077 391.5977C736.8177 391.5977 715.3277 374.9977 681.6377 374.9977C678.7077 374.9977 676.2677 374.9977 674.3177 375.4877V684.0777H740.2377C749.5077 684.0777 756.8377 691.4077 756.8377 700.6877C756.8377 709.9577 749.5077 717.2877 740.2377 717.2877H206.5477C197.7577 717.2877 190.4277 709.9577 190.4277 700.6877C190.4277 691.4077 197.7577 684.0777 206.5477 684.0777H244.6277C243.6477 680.6677 243.1677 677.2477 243.1677 672.8477V506.8377C246.5777 505.3677 249.5077 503.4177 252.9277 501.9577L423.3377 414.0577L593.7477 501.9577C597.1677 503.4177 600.5877 505.3677 604.0077 506.8377V672.8477C604.0077 677.2477 603.5177 680.6677 602.5377 684.0777H641.1177V493.1677C637.2077 492.6777 633.7877 491.2077 629.3977 489.2577L430.6677 387.6977C425.7777 385.7377 420.8977 385.7377 416.5077 387.6977ZM361.3277 684.0777H485.3477V550.2977C485.3477 540.5277 479.4877 534.6677 470.2177 534.6677H376.9577C367.6777 534.6677 361.3277 540.5277 361.3277 550.2977Z"/>
</svg>