<?xml version="1.0" encoding="UTF-8" standalone="no"?>
<svg xmlns="http://www.w3.org/2000/svg"
     width="1997.698666032172" height="850.09765625"
     viewBox="0 0 1997.698666032172 850.09765625"
     fill="currentColor">
  <path d="M444.3465 510.7438L977.0565 93.2637C982.9165 88.3837 991.2165 84.9638 998.5465 84.9638C1006.3565 84.9638 1014.6565 88.3837 1021.0065 93.2637L1553.2265 510.7438C1600.1065 547.8538 1647.9565 485.8438 1608.8965 455.5638L1060.5565 24.4138C1040.5365 8.7938 1020.0265 0.0037 998.5465 0.0037C977.5465 0.0037 957.0365 8.7938 937.0165 24.4138L388.6765 455.5638C349.6165 485.8438 397.4665 547.8538 444.3465 510.7438ZM574.7165 850.0938H1422.8565C1490.7265 850.0938 1529.7965 812.5038 1529.7965 745.6038V571.2938C1515.6365 566.4037 1501.9565 558.5938 1488.2865 547.8538L998.5465 164.0638L508.7965 547.8538C495.6165 558.5938 481.4565 566.4037 467.7865 571.2938V745.6038C467.7865 812.5038 507.3365 850.0938 574.7165 850.0938ZM346.1965 400.3938L575.6965 220.2138H383.7965C362.7965 220.2138 344.7365 225.5838 329.1065 236.3238L15.1465 455.5638C-12.6835 474.6138 -0.9635 521.9738 40.5365 521.9738H312.9965C296.3965 482.9138 302.2565 435.0538 346.1965 400.3938ZM1651.8665 400.3938C1695.3165 435.0538 1701.1765 482.9138 1684.5765 521.9738H1957.0365C1998.5465 521.9738 2010.2665 474.6138 1982.9165 455.5638L1667.9765 236.3238C1652.8365 225.5838 1634.2865 220.2138 1613.7765 220.2138H1421.8865ZM871.5865 773.9238V556.6438C871.5865 536.6238 885.7465 522.9538 905.2865 522.9538H1092.7865C1112.7965 522.9538 1125.9865 536.6238 1125.9865 556.6438V773.9238ZM398.4465 745.6038V591.7938H93.7565V745.6038C93.7565 812.5038 132.8165 850.0938 200.6965 850.0938H428.7165C409.1865 822.7538 398.4465 786.6238 398.4465 745.6038ZM1599.1265 745.6038C1599.1265 786.6238 1587.8965 822.7538 1568.8565 850.0938H1797.3765C1864.2665 850.0938 1903.8165 812.5038 1903.8165 745.6038V591.7938H1599.1265Z"/>
</svg>