<?xml version="1.0" encoding="UTF-8" standalone="no"?>
<svg xmlns="http://www.w3.org/2000/svg"
     width="1165.52734375" height="1025.5126953125"
     viewBox="0 0 1165.52734375 1025.5126953125"
     fill="currentColor">
  <path d="M-0.0017 482.0521C-0.0017 502.0721 15.6283 521.1221 41.9883 521.1221C55.6683 521.1221 66.8983 513.7921 77.1483 505.4921L565.9183 95.3321C576.6583 85.5721 589.8483 85.5721 600.5883 95.3321L1089.3583 505.4921C1099.1183 513.7921 1110.3483 521.1221 1124.0283 521.1221C1146.9683 521.1221 1165.5283 506.9621 1165.5283 483.5221C1165.5283 468.8721 1160.6483 459.1021 1150.3883 450.3221L1013.6683 335.0821V139.7721C1013.6683 118.2821 999.9983 104.6121 978.5183 104.6121H926.2683C905.2783 104.6121 891.1183 118.2821 891.1183 139.7721V232.0521L642.0883 23.0721C605.9583 -7.6879 561.0383 -7.6879 524.4183 23.0721L15.6283 450.3221C4.8783 459.1021 -0.0017 470.8221 -0.0017 482.0521ZM152.3483 917.6021C152.3483 985.4721 193.3583 1025.5121 262.2083 1025.5121H904.2983C973.1483 1025.5121 1013.6683 985.4721 1013.6683 917.6021V530.8821L612.3083 194.4621C593.7483 178.8321 571.7783 179.3221 553.7083 194.4621L152.3483 530.8821ZM708.4983 946.9021H456.5383V624.1421C456.5383 601.6821 471.6783 587.0321 494.1383 587.0321H671.3883C693.8483 587.0321 708.4983 601.6821 708.4983 624.1421Z"/>
</svg>