<?xml version="1.0" encoding="UTF-8" standalone="no"?>
<svg xmlns="http://www.w3.org/2000/svg"
     width="787.109375" height="1129.39453125"
     viewBox="0 0 787.109375 1129.39453125"
     fill="currentColor">
  <path d="M394.0383 85.9338C417.9683 85.9338 437.0083 65.9138 437.0083 43.4538C437.0083 19.5338 417.4783 0.0037 394.0383 0.0037C371.0983 0.0037 352.0483 19.5338 352.0483 43.4538C352.0483 65.9138 370.6083 85.9338 394.0383 85.9338ZM156.7383 123.0438C175.7783 109.3737 179.6883 82.0338 166.9883 62.9837C153.8083 44.4338 127.4383 39.0638 107.4183 52.7337C88.8683 65.9138 83.0083 93.7537 96.1883 112.3038C109.8683 131.3438 137.6983 136.2337 156.7383 123.0438ZM631.3483 123.0438C650.8783 136.2337 677.7383 131.3438 691.8983 112.3038C705.0783 93.7537 700.1983 65.9138 680.6683 52.7337C660.6483 39.0638 634.2783 44.4338 621.0983 62.9837C608.3983 82.0338 612.3083 109.3737 631.3483 123.0438ZM394.0383 242.6738C424.8083 242.6738 450.1983 217.2838 450.1983 187.0137C450.1983 156.7337 424.8083 131.3438 394.0383 131.3438C364.2583 131.3438 339.3583 156.7337 339.3583 187.0137C339.3583 217.2838 364.2583 242.6738 394.0383 242.6738ZM542.4783 250.9738C567.3783 269.5338 601.5583 262.6938 619.1383 237.7938C637.6983 212.4037 630.3683 177.2437 605.4683 160.6437C579.5883 143.5538 545.8983 149.4138 528.3183 173.8238C510.7383 199.7038 517.0883 234.3737 542.4783 250.9738ZM245.6083 250.9738C270.9983 234.3737 276.8583 199.2138 259.7683 173.8238C242.1883 149.4138 208.0083 143.5538 182.6183 160.6437C157.7183 177.2437 150.3883 212.4037 168.9483 237.7938C187.0083 262.6938 220.6983 269.5338 245.6083 250.9738ZM147.4583 505.8638H639.6483C607.9083 458.4938 573.7283 411.1337 537.5983 362.7938C511.2283 328.1237 494.1383 308.5938 446.2883 308.5938H340.8183C293.4583 308.5938 276.3683 328.1237 249.5083 362.7938C213.3783 411.1337 179.1983 458.4938 147.4583 505.8638ZM3.4183 810.5438H287.5983C302.7383 766.6038 343.7483 735.8438 394.0383 735.8438C443.3583 735.8438 484.3783 766.6038 499.9983 810.5438H783.6883C772.4583 743.6537 738.2783 665.5238 689.4483 583.0038H98.1483C48.8283 665.5238 14.6483 743.6537 3.4183 810.5438ZM394.0383 895.9938C420.8983 895.9938 440.9183 875.9738 440.9183 848.6338C440.9183 821.7738 420.8983 801.7538 394.0383 801.7538C366.2083 801.7538 346.6783 821.7738 346.6783 848.6338C346.6783 875.9738 366.2083 895.9938 394.0383 895.9938ZM287.5983 1129.3938H499.5083C678.7083 1129.3938 775.3883 1040.5238 787.1083 887.6938H499.5083C483.8883 931.1538 442.8683 961.9138 394.0383 961.9138C343.7483 961.9138 303.2183 931.1538 288.0883 887.6938H-0.0017C11.7183 1040.5238 108.3983 1129.3938 287.5983 1129.3938Z"/>
</svg>