<?xml version="1.0" encoding="UTF-8" standalone="no"?>
<svg xmlns="http://www.w3.org/2000/svg"
     width="996.09375" height="996.09375"
     viewBox="0 0 996.09375 996.09375"
     fill="currentColor">
  <path d="M498.0477 996.0959C770.5077 996.0959 996.0977 770.0159 996.0977 498.0459C996.0977 225.5859 770.0177 -0.0041 497.5577 -0.0041C225.5877 -0.0041 -0.0023 225.5859 -0.0023 498.0459C-0.0023 770.0159 226.0777 996.0959 498.0477 996.0959ZM498.0477 913.0859C267.5777 913.0859 83.4977 728.5159 83.4977 498.0459C83.4977 267.5759 267.0877 83.0059 497.5577 83.0059C728.0277 83.0059 913.0877 267.5759 913.0877 498.0459C913.0877 728.5159 728.5177 913.0859 498.0477 913.0859ZM323.2377 677.2459H694.3377C752.4377 677.2459 797.8477 630.8559 797.8477 574.2159C797.8477 525.3859 765.1377 484.8659 721.6777 474.1259C722.1677 469.2359 722.1677 464.3559 722.1677 459.9559C722.1677 360.8359 643.5577 280.2759 541.9877 280.2759C482.4177 280.2759 429.6877 308.5959 396.9777 353.5159C390.6277 352.0459 383.2977 351.0759 377.4377 351.0759C327.1477 351.0759 284.6677 387.6959 277.3477 437.9859C231.9377 456.0559 198.2377 500.4859 198.2377 553.7059C198.2377 634.2759 252.4377 677.2459 323.2377 677.2459Z"/>
</svg>