<?xml version="1.0" encoding="UTF-8" standalone="no"?>
<svg xmlns="http://www.w3.org/2000/svg"
     width="898.92578125" height="898.92578125"
     viewBox="0 0 898.92578125 898.92578125"
     fill="currentColor">
  <path d="M153.3183 898.9295H745.6083C848.1483 898.9295 898.9283 848.1495 898.9283 747.5595V151.3695C898.9283 50.7795 848.1483 -0.0005 745.6083 -0.0005H153.3183C51.2683 -0.0005 -0.0017 50.2895 -0.0017 151.3695V747.5595C-0.0017 848.6295 51.2683 898.9295 153.3183 898.9295ZM270.0183 634.2795C196.7783 634.2795 141.1183 589.8395 141.1183 506.8395C141.1183 451.6595 175.7783 406.2495 222.6583 387.2095C229.9783 335.4495 273.9283 297.8495 326.1683 297.8495C332.0283 297.8495 339.3583 298.8295 346.1883 300.2895C379.8783 253.9095 434.0783 224.6095 495.6083 224.6095C600.0983 224.6095 681.6383 308.1095 681.6383 410.1595C681.6383 414.5495 681.1483 419.4295 680.6683 424.8095C725.5883 435.5495 759.2783 477.5395 759.2783 527.8295C759.2783 586.4295 712.3983 634.2795 652.3483 634.2795Z"/>
</svg>