<?xml version="1.0" encoding="UTF-8" standalone="no"?>
<svg xmlns="http://www.w3.org/2000/svg"
     width="996.09375" height="996.09375"
     viewBox="0 0 996.09375 996.09375"
     fill="currentColor">
  <path d="M498.0477 996.0977C770.5077 996.0977 996.0977 770.5077 996.0977 498.0477C996.0977 226.0777 770.0177 -0.0023 497.5577 -0.0023C225.5877 -0.0023 -0.0023 226.0777 -0.0023 498.0477C-0.0023 770.5077 226.0777 996.0977 498.0477 996.0977ZM318.3577 683.5977C245.1177 683.5977 189.4577 639.6477 189.4577 556.6377C189.4577 500.9777 224.1177 456.0577 270.9977 436.5277C278.3177 385.2577 322.2677 347.6577 374.5077 347.6577C380.3677 347.6577 387.6977 348.1477 394.5277 349.6077C428.2277 303.7077 482.4177 273.9277 543.9477 273.9277C648.4377 273.9277 729.4877 357.4177 729.4877 459.4677C729.4877 463.8677 729.4877 469.2377 729.0077 474.6077C773.9277 485.3477 807.6177 526.8577 807.6177 577.1477C807.6177 636.2277 760.7377 683.5977 700.6877 683.5977Z"/>
</svg>