<?xml version="1.0" encoding="UTF-8" standalone="no"?>
<svg xmlns="http://www.w3.org/2000/svg"
     width="1003.1754063858828" height="910.64453125"
     viewBox="0 0 1003.1754063858828 910.64453125"
     fill="currentColor">
  <path d="M36.6183 910.642C57.6183 910.642 73.7283 893.552 73.7283 873.042V37.112C73.7283 16.602 57.6183 0.002 36.6183 0.002C16.1183 0.002 -0.0017 16.602 -0.0017 37.112V873.042C-0.0017 893.552 16.1183 910.642 36.6183 910.642ZM280.2783 910.642C301.2683 910.642 317.3783 893.552 317.3783 873.042V37.112C317.3783 16.602 301.2683 0.002 280.2783 0.002C259.7683 0.002 243.6483 16.602 243.6483 37.112V873.042C243.6483 893.552 259.7683 910.642 280.2783 910.642ZM523.9283 910.642C544.9183 910.642 561.0383 893.552 561.0383 873.042V37.112C561.0383 16.602 544.9183 0.002 523.9283 0.002C503.4183 0.002 487.3083 16.602 487.3083 37.112V873.042C487.3083 893.552 503.4183 910.642 523.9283 910.642ZM820.3083 604.982L981.9383 497.072C1010.7383 477.542 1009.7683 436.032 981.9383 416.502L820.3083 306.642C782.7183 281.252 743.1683 295.412 743.6483 340.332V571.782C743.1683 615.232 784.1783 628.422 820.3083 604.982Z"/>
</svg>