<?xml version="1.0" encoding="UTF-8" standalone="no"?>
<svg xmlns="http://www.w3.org/2000/svg"
     width="600.09765625" height="888.1069331365296"
     viewBox="0 0 600.09765625 888.1069331365296"
     fill="currentColor">
  <path d="M39.06 290.0363H398.44C385.25 382.8163 314.94 430.1763 201.66 430.1763H62.5C26.37 430.1763 8.3 454.5863 8.3 480.4663C8.3 496.0963 14.16 511.7163 27.34 523.9263L397.46 873.0463C444.34 916.9963 504.88 854.9763 458.98 812.0163L141.6 514.1563H204.59C390.63 514.1563 479.49 407.2263 494.14 290.0363H567.87C585.45 290.0363 600.1 275.8763 600.1 257.8162C600.1 240.2363 585.45 226.0762 567.87 226.0762H495.12C489.26 158.6962 461.43 102.0462 412.11 63.9662H567.87C585.45 63.9662 600.1 49.8062 600.1 32.2263C600.1 14.1563 585.45 -0.0037 567.87 -0.0037H41.5C18.55 -0.0037 0 19.0462 0 41.9963C0 64.4562 18.55 83.4963 41.5 83.4963H205.57C314.45 83.4963 385.74 133.2962 398.44 226.0762H39.06C21.48 226.0762 6.84 240.2363 6.84 257.8162C6.84 275.8763 21.48 290.0363 39.06 290.0363Z"/>
</svg>