<?xml version="1.0" encoding="UTF-8" standalone="no"?>
<svg xmlns="http://www.w3.org/2000/svg"
     width="996.09375" height="996.09375"
     viewBox="0 0 996.09375 996.09375"
     fill="currentColor">
  <path d="M498.0477 996.0959C770.5077 996.0959 996.0977 770.0159 996.0977 498.0459C996.0977 225.5859 770.0177 -0.0041 497.5577 -0.0041C225.5877 -0.0041 -0.0023 225.5859 -0.0023 498.0459C-0.0023 770.0159 226.0777 996.0959 498.0477 996.0959ZM559.5677 750.4859C548.8277 750.4859 540.5277 747.5559 529.2977 736.8159L347.1677 565.4259C337.3977 555.6659 329.0977 547.8559 329.0977 530.7659C329.0977 509.2759 344.2377 496.0959 365.2377 496.0959H438.4777C489.2577 496.0959 522.4577 476.5659 531.7377 437.4959H354.0077C339.8477 437.4959 329.0977 426.2659 329.0977 412.5959C329.0977 397.9459 339.8477 387.2059 354.0077 387.2059H530.2777C520.9977 351.0759 489.7477 330.0759 444.8277 330.0759H354.4877C338.3777 330.0759 324.7077 315.9159 324.7077 299.8059C324.7077 282.7159 338.3777 270.0159 354.4877 270.0159H644.0477C658.6877 270.0159 668.9477 279.7859 668.9477 294.4359C668.9477 308.1059 658.6877 319.8259 644.0477 319.8259H570.7977C586.9177 337.8859 596.6777 361.3259 600.5877 387.2059H646.9777C661.6177 387.2059 671.3877 397.9459 671.3877 412.5959C671.3877 426.2659 661.6177 437.4959 646.9777 437.4959H599.6077C589.3577 500.9759 540.5277 556.1559 441.4077 556.1559H427.7377L576.6577 694.8259C583.9877 702.1459 589.8477 710.9359 589.8477 721.1959C589.8477 739.7459 576.1677 750.4859 559.5677 750.4859Z"/>
</svg>