<?xml version="1.0" encoding="UTF-8" standalone="no"?>
<svg xmlns="http://www.w3.org/2000/svg"
     width="996.09375" height="996.09375"
     viewBox="0 0 996.09375 996.09375"
     fill="currentColor">
  <path d="M498.0477 996.0959C770.5077 996.0959 996.0977 770.0159 996.0977 498.0459C996.0977 225.5859 770.0177 -0.0041 497.5577 -0.0041C225.5877 -0.0041 -0.0023 225.5859 -0.0023 498.0459C-0.0023 770.0159 226.0777 996.0959 498.0477 996.0959ZM159.1777 498.0459C159.1777 402.3459 219.7277 338.3759 309.5677 338.3759C357.9077 338.3759 398.4377 358.8859 441.8977 400.3859L498.5377 455.0759L555.6677 400.3859C600.0977 357.4259 640.1377 338.3759 687.4977 338.3759C777.8277 338.3759 838.3777 402.3459 838.3777 498.0459C838.3777 593.2659 777.8277 657.2259 687.4977 657.2259C640.6277 657.2259 600.5877 638.1859 555.6677 595.2159L498.5377 541.0159L441.8977 595.2159C397.9477 637.2059 357.4177 657.2259 309.5677 657.2259C219.7277 657.2259 159.1777 593.2659 159.1777 498.0459ZM221.6777 498.0459C221.6777 557.1259 256.3477 595.2159 309.5677 595.2159C338.8677 595.2159 364.2577 581.5459 397.4577 550.2959L454.0977 498.0459L397.4577 445.7959C363.2777 413.5759 338.3777 400.3859 309.5677 400.3859C256.3477 400.3859 221.6777 438.9659 221.6777 498.0459ZM543.4577 498.0459L599.6077 550.2959C632.8077 581.5459 658.2077 595.2159 687.4977 595.2159C740.7277 595.2159 775.8777 557.1259 775.8777 498.0459C775.8777 438.9659 740.7277 400.3859 687.4977 400.3859C659.1777 400.3859 633.7877 413.5759 599.6077 445.7959Z"/>
</svg>