<?xml version="1.0" encoding="UTF-8" standalone="no"?>
<svg xmlns="http://www.w3.org/2000/svg"
     width="996.09375" height="996.09375"
     viewBox="0 0 996.09375 996.09375"
     fill="currentColor">
  <path d="M498.0477 996.0959C770.5077 996.0959 996.0977 770.0159 996.0977 498.0459C996.0977 225.5859 770.0177 -0.0041 497.5577 -0.0041C225.5877 -0.0041 -0.0023 225.5859 -0.0023 498.0459C-0.0023 770.0159 226.0777 996.0959 498.0477 996.0959ZM498.0477 913.0859C267.5777 913.0859 83.4977 728.5159 83.4977 498.0459C83.4977 267.5759 267.0877 83.0059 497.5577 83.0059C728.0277 83.0059 913.0877 267.5759 913.0877 498.0459C913.0877 728.5159 728.5177 913.0859 498.0477 913.0859ZM493.6477 329.1059C529.2977 329.1059 557.1277 300.7859 557.1277 265.1359C557.1277 229.4959 529.2977 201.1759 493.6477 201.1759C458.4977 201.1759 430.1777 229.4959 430.1777 265.1359C430.1777 300.7859 458.4977 329.1059 493.6477 329.1059ZM412.5977 771.4859H611.3277C631.3477 771.4859 646.9777 756.8359 646.9777 736.8159C646.9777 717.7759 631.3477 702.6359 611.3277 702.6359H550.7777V454.1059C550.7777 427.7359 537.5977 410.1559 512.6977 410.1559H420.8977C400.8777 410.1559 385.2577 425.2959 385.2577 444.3359C385.2577 464.3559 400.8777 479.0059 420.8977 479.0059H473.1477V702.6359H412.5977C392.5777 702.6359 376.9577 717.7759 376.9577 736.8159C376.9577 756.8359 392.5777 771.4859 412.5977 771.4859Z"/>
</svg>