<?xml version="1.0" encoding="UTF-8" standalone="no"?>
<svg xmlns="http://www.w3.org/2000/svg"
     width="1076.171875" height="1013.18359375"
     viewBox="0 0 1076.171875 1013.18359375"
     fill="currentColor">
  <path d="M290.0383 1013.1819C309.0783 1013.1819 323.2383 1003.4219 346.1883 981.9319L522.4583 820.8019H852.5383C998.0483 820.8019 1076.1683 740.7219 1076.1683 597.6519V223.6319C1076.1683 80.5619 998.0483 0.0019 852.5383 0.0019H223.6283C78.1283 0.0019 -0.0017 80.0819 -0.0017 223.6319V597.6519C-0.0017 741.2119 78.1283 820.8019 223.6283 820.8019H246.5783V962.8919C246.5783 993.1619 262.2083 1013.1819 290.0383 1013.1819ZM534.1783 250.0019C500.4883 250.0019 473.1483 222.6519 473.1483 188.4719C473.1483 154.2919 500.4883 126.9519 534.1783 126.9519C568.3583 126.9519 595.2183 154.2919 595.2183 188.4719C595.2183 222.6519 568.3583 250.0019 534.1783 250.0019ZM457.0283 672.3619C437.4983 672.3619 422.8483 658.2019 422.8483 638.6719C422.8483 620.6019 437.4983 605.9619 457.0283 605.9619H514.6483V393.0619H464.8483C445.7983 393.0619 430.6683 379.3919 430.6683 359.8619C430.6683 341.7919 445.7983 327.1519 464.8483 327.1519H552.7383C576.1683 327.1519 588.8683 344.2419 588.8683 369.1419V605.9619H646.4883C666.0183 605.9619 680.6683 620.6019 680.6683 638.6719C680.6683 658.2019 666.0183 672.3619 646.4883 672.3619Z"/>
</svg>