<?xml version="1.0" encoding="UTF-8" standalone="no"?>
<svg xmlns="http://www.w3.org/2000/svg"
     width="1123.53515625" height="817.3828125"
     viewBox="0 0 1123.53515625 817.3828125"
     fill="currentColor">
  <path d="M193.3583 366.2122H930.1783C976.0783 366.2122 1018.0683 376.4622 1054.1983 395.0222L937.4983 113.2822C907.2283 39.5522 843.2583 0.0022 758.7883 0.0022H364.7483C280.2783 0.0022 216.3083 39.5522 186.0383 113.2822L68.8483 395.0222C105.4683 376.4622 147.4583 366.2122 193.3583 366.2122ZM193.3583 817.3822H930.1783C1044.4383 817.3822 1123.5383 738.7722 1123.5383 625.4922C1123.5383 512.2022 1044.4383 433.1022 930.1783 433.1022H193.3583C79.0983 433.1022 -0.0017 512.2022 -0.0017 625.4922C-0.0017 738.7722 79.0983 817.3822 193.3583 817.3822ZM417.9683 677.2422V573.2422C417.9683 558.1022 430.1783 545.4122 446.2883 545.4122C461.4283 545.4122 474.1183 558.1022 474.1183 573.2422V677.2422C474.1183 692.8722 461.4283 705.5622 446.2883 705.5622C430.1783 705.5622 417.9683 692.8722 417.9683 677.2422ZM533.1983 677.2422V573.2422C533.1983 558.1022 545.8983 545.4122 562.0083 545.4122C577.1483 545.4122 589.8483 558.1022 589.8483 573.2422V677.2422C589.8483 692.8722 577.1483 705.5622 562.0083 705.5622C545.8983 705.5622 533.1983 692.8722 533.1983 677.2422ZM648.9283 677.2422V573.2422C648.9283 558.1022 661.6183 545.4122 677.2483 545.4122C692.8683 545.4122 705.5683 558.1022 705.5683 573.2422V677.2422C705.5683 692.8722 692.8683 705.5622 677.2483 705.5622C661.6183 705.5622 648.9283 692.8722 648.9283 677.2422ZM764.6483 677.2422V573.2422C764.6483 558.1022 776.8583 545.4122 792.9683 545.4122C808.5983 545.4122 820.7983 558.1022 820.7983 573.2422V677.2422C820.7983 692.8722 808.5983 705.5622 792.9683 705.5622C776.8583 705.5622 764.6483 692.8722 764.6483 677.2422ZM880.8583 677.2422V573.2422C880.8583 558.1022 893.0683 545.4122 909.1783 545.4122C924.3183 545.4122 936.5283 558.1022 936.5283 573.2422V677.2422C936.5283 692.8722 924.3183 705.5622 909.1783 705.5622C893.0683 705.5622 880.8583 692.8722 880.8583 677.2422Z"/>
</svg>