<?xml version="1.0" encoding="UTF-8" standalone="no"?>
<svg xmlns="http://www.w3.org/2000/svg"
     width="1244.140625" height="1105.6526058001918"
     viewBox="0 0 1244.140625 1105.6526058001918"
     fill="currentColor">
  <path d="M1110.3483 1094.6649C1124.9983 1109.3149 1148.9283 1109.3149 1163.5783 1094.6649C1177.7383 1080.0149 1178.7083 1056.0949 1164.0583 1041.4449L133.7883 11.1749C119.1383 -3.4751 95.2183 -3.9651 80.0783 11.1749C65.9183 25.3349 65.9183 49.7449 80.0783 64.3949ZM387.6983 182.0649H997.0683C1045.4083 182.0649 1072.7583 207.9449 1072.7583 258.7249V276.3049C1101.0783 276.3049 1125.9783 276.3049 1151.3683 276.3049V254.8249C1151.3683 154.2349 1100.5883 103.4549 998.0483 103.4549H309.5683ZM153.3183 1002.3849H934.5683L855.9583 923.7649H154.2983C105.4683 923.7649 78.6183 897.8849 78.6183 847.1049V258.7249C78.6183 221.6149 93.7483 197.6949 122.0683 188.9049L60.5483 127.3849C20.0183 149.8449 -0.0017 192.3249 -0.0017 254.8249V851.0149C-0.0017 952.0849 51.2683 1002.3849 153.3183 1002.3849ZM831.0583 624.9349L895.0183 689.3949V431.0949C895.0183 408.6349 906.2483 396.9149 927.7383 396.9149H1147.4583C1168.9483 396.9149 1180.1783 408.6349 1180.1783 431.0949V904.7249C1180.1783 926.2049 1170.4083 936.9549 1150.8783 938.4149H1143.5583L1195.3083 989.6849H1197.2683C1228.0283 977.4749 1244.1383 950.6249 1244.1383 911.0749V424.7449C1244.1383 366.6349 1208.9883 332.9449 1148.9283 332.9449H926.2683C866.2083 332.9449 831.0583 366.6349 831.0583 424.7449ZM998.5383 468.2049H1075.1983C1087.8883 468.2049 1097.6583 457.9449 1097.6583 445.2549C1097.6583 433.0449 1087.8883 423.2749 1075.1983 423.2749H998.5383C985.8383 423.2749 976.0783 433.0449 976.0783 445.2549C976.0783 457.9449 985.8383 468.2049 998.5383 468.2049ZM387.2083 886.1749H805.1783L759.7683 840.7649H387.2083C374.0283 840.7649 364.2583 850.0349 364.2583 863.7049C364.2583 877.3849 374.0283 886.1749 387.2083 886.1749Z"/>
</svg>