<?xml version="1.0" encoding="UTF-8" standalone="no"?>
<svg xmlns="http://www.w3.org/2000/svg"
     width="1151.3671875" height="898.92578125"
     viewBox="0 0 1151.3671875 898.92578125"
     fill="currentColor">
  <path d="M153.3183 898.9295H998.0483C1100.5883 898.9295 1151.3683 848.1495 1151.3683 747.5595V151.3695C1151.3683 50.7795 1100.5883 -0.0005 998.0483 -0.0005H153.3183C51.2683 -0.0005 -0.0017 50.2895 -0.0017 151.3695V747.5595C-0.0017 848.6295 51.2683 898.9295 153.3183 898.9295ZM154.2983 820.3095C105.4683 820.3095 78.6183 794.4295 78.6183 743.6495V155.2695C78.6183 104.4895 105.4683 78.6095 154.2983 78.6095H997.0683C1045.4083 78.6095 1072.7583 104.4895 1072.7583 155.2695V743.6495C1072.7583 794.4295 1045.4083 820.3095 997.0683 820.3095ZM387.2083 782.7195H764.6483C777.8283 782.7195 787.1083 773.9295 787.1083 760.2495C787.1083 746.5795 777.8283 737.3095 764.6483 737.3095H387.2083C374.0283 737.3095 364.2583 746.5795 364.2583 760.2495C364.2583 773.9295 374.0283 782.7195 387.2083 782.7195Z"/>
</svg>