<?xml version="1.0" encoding="UTF-8" standalone="no"?>
<svg xmlns="http://www.w3.org/2000/svg"
     width="962.890625" height="1100.09765625"
     viewBox="0 0 962.890625 1100.09765625"
     fill="currentColor">
  <path d="M146.9709 651.852V971.192C146.9709 1048.342 201.6609 1100.102 282.2309 1100.102H827.6409C908.6909 1100.102 962.8909 1048.342 962.8909 971.192V129.392C962.8909 52.242 908.6909 0.002 827.6409 0.002H282.2309C201.6609 0.002 146.9709 52.242 146.9709 129.392V448.732H225.5909V142.582C225.5909 102.542 250.4909 78.612 292.4809 78.612H817.8709C859.8609 78.612 884.2809 102.542 884.2809 142.582V958.012C884.2809 998.042 859.8609 1021.482 817.8709 1021.482H292.4809C250.4909 1021.482 225.5909 998.042 225.5909 958.012V651.852ZM35.6409 584.472H354.4909L457.5209 579.592L350.5909 675.292L322.7509 703.122C316.4109 709.962 312.5009 719.242 312.5009 729.492C312.5009 749.512 326.6609 763.182 345.7009 763.182C355.9609 763.182 364.7509 759.282 371.5809 752.442L548.8309 575.682C557.1309 567.382 561.5209 558.102 561.5209 549.802C561.5209 541.502 557.1309 531.252 548.8309 523.442L371.5809 347.172C364.7509 340.332 355.9609 336.422 345.7009 336.422C326.6609 336.422 312.5009 350.102 312.5009 369.632C312.5009 380.372 316.4109 389.162 322.7509 395.992L350.5909 424.312L457.5209 519.532L354.4909 514.652H35.6409C13.6709 514.652 0.0009 531.742 0.0009 549.802C0.0009 567.872 13.6709 584.472 35.6409 584.472Z"/>
</svg>