<?xml version="1.0" encoding="UTF-8" standalone="no"?>
<svg xmlns="http://www.w3.org/2000/svg"
     width="996.09375" height="996.09375"
     viewBox="0 0 996.09375 996.09375"
     fill="currentColor">
  <path d="M498.0477 996.0977C770.5077 996.0977 996.0977 770.5077 996.0977 498.0477C996.0977 226.0777 770.0177 -0.0023 497.5577 -0.0023C225.5877 -0.0023 -0.0023 226.0777 -0.0023 498.0477C-0.0023 770.5077 226.0777 996.0977 498.0477 996.0977ZM398.4377 786.6177C353.5177 786.6177 323.2377 757.3277 323.2377 713.8677V282.2277C323.2377 238.2777 353.5177 209.4677 398.4377 209.4677H597.6577C642.5777 209.4677 672.8477 238.2777 672.8477 282.2277V713.8677C672.8477 757.3277 642.5777 786.6177 597.6577 786.6177ZM403.8077 741.6977H592.2877C615.2377 741.6977 627.9277 729.0077 627.9277 707.5177V288.0877C627.9277 266.5977 615.2377 254.3977 592.2877 254.3977H558.5977C554.6877 254.3977 552.7377 256.3477 552.7377 260.2577V266.1177C552.7377 277.8277 545.4077 286.6177 533.6877 286.6177H462.3977C450.6877 286.6177 443.3577 277.8277 443.3577 266.1177V260.2577C443.3577 256.8377 442.3877 254.3977 437.0077 254.3977H403.8077C380.8577 254.3977 368.1677 266.5977 368.1677 288.0877V707.5177C368.1677 729.0077 380.8577 741.6977 403.8077 741.6977ZM790.0377 647.4577C783.2077 639.6477 785.1577 628.9077 793.4577 619.1377C822.7577 585.9377 838.8677 543.9477 838.8677 498.0477C838.8677 452.1477 822.7577 410.1577 793.4577 376.9577C785.1577 367.1877 783.2077 356.9377 790.0377 348.6377C797.3677 339.3577 810.0577 339.3577 819.3377 349.1177C855.9577 389.1577 875.9777 442.3877 875.9777 498.0477C875.9777 554.1977 855.9577 607.4177 819.3377 646.9677C810.0577 656.7377 797.3677 656.7377 790.0377 647.4577ZM204.5877 647.4577C197.7577 656.7377 185.0577 656.7377 175.2977 646.9677C138.6677 607.4177 119.1377 554.1977 119.1377 498.0477C119.1377 442.3877 138.6677 389.1577 175.2977 349.1177C185.0577 339.3577 197.7577 339.3577 204.5877 348.6377C211.4277 356.9377 209.4777 367.1877 201.6577 376.9577C171.8777 410.1577 156.2477 452.1477 156.2477 498.0477C156.2477 543.9477 171.8777 585.9377 201.6577 619.1377C209.4777 628.9077 211.4277 639.6477 204.5877 647.4577ZM277.3477 585.4477C269.5277 594.7277 255.8577 594.7277 247.0677 584.4677C228.0277 560.5477 217.2877 530.7577 217.2877 498.0477C217.2877 465.8177 228.0277 435.5477 247.0677 412.1077C255.8577 401.8577 269.5277 401.3677 277.3477 410.6477C284.1777 418.9477 281.7377 428.7077 273.9277 438.9677C261.7177 454.5877 255.3677 475.5877 255.3677 498.0477C255.3677 520.5077 261.7177 541.0177 273.9277 557.1277C281.7377 567.3877 284.1777 577.1477 277.3477 585.4477ZM717.2877 585.4477C710.4477 577.1477 712.8877 567.3877 720.7077 557.1277C732.9077 541.0177 739.7477 520.5077 739.7477 498.0477C739.7477 475.5877 732.9077 454.5877 720.7077 438.9677C712.8877 428.7077 710.4477 418.9477 717.2877 410.6477C725.0977 401.3677 739.2577 401.8577 747.5577 412.1077C766.5977 435.5477 777.8277 465.8177 777.8277 498.0477C777.8277 530.7577 766.5977 560.5477 747.5577 584.4677C739.2577 594.7277 725.0977 594.7277 717.2877 585.4477ZM441.4077 722.1677C433.1077 722.1677 427.7377 716.7977 427.7377 708.4977C427.7377 700.1977 433.1077 694.8277 441.4077 694.8277H555.6677C563.4777 694.8277 568.3577 700.1977 568.3577 708.4977C568.3577 716.7977 563.4777 722.1677 555.6677 722.1677Z"/>
</svg>