<?xml version="1.0" encoding="UTF-8" standalone="no"?>
<svg xmlns="http://www.w3.org/2000/svg"
     width="996.09375" height="996.09375"
     viewBox="0 0 996.09375 996.09375"
     fill="currentColor">
  <path d="M498.0477 996.0959C770.5077 996.0959 996.0977 770.0159 996.0977 498.0459C996.0977 225.5859 770.0177 -0.0041 497.5577 -0.0041C225.5877 -0.0041 -0.0023 225.5859 -0.0023 498.0459C-0.0023 770.0159 226.0777 996.0959 498.0477 996.0959ZM498.0477 913.0859C267.5777 913.0859 83.4977 728.5159 83.4977 498.0459C83.4977 267.5759 267.0877 83.0059 497.5577 83.0059C728.0277 83.0059 913.0877 267.5759 913.0877 498.0459C913.0877 728.5159 728.5177 913.0859 498.0477 913.0859ZM311.5277 729.4959C311.5277 775.3859 343.2577 806.1559 391.1177 806.1559H604.9777C652.8277 806.1559 684.5677 775.3859 684.5677 729.4959V266.6059C684.5677 220.7059 652.8277 189.9459 604.9777 189.9459H391.1177C343.2577 189.9459 311.5277 220.7059 311.5277 266.6059ZM442.3877 241.6959C442.3877 234.3759 447.2677 229.9759 454.0977 229.9759H542.4777C549.3177 229.9759 553.7077 234.3759 553.7077 241.6959C553.7077 248.5359 549.3177 253.4159 542.4777 253.4159H454.0977C447.2677 253.4159 442.3877 248.5359 442.3877 241.6959ZM359.3777 706.5459V289.5459H636.7177V706.5459ZM498.5377 776.3659C484.8677 776.3659 473.6377 765.1359 473.6377 751.4659C473.6377 737.7959 484.8677 726.5659 498.5377 726.5659C511.7177 726.5659 522.4577 737.7959 522.4577 751.4659C522.4577 765.1359 511.7177 776.3659 498.5377 776.3659Z"/>
</svg>