<?xml version="1.0" encoding="UTF-8" standalone="no"?>
<svg xmlns="http://www.w3.org/2000/svg"
     width="996.09375" height="996.09375"
     viewBox="0 0 996.09375 996.09375"
     fill="currentColor">
  <path d="M498.0477 996.0959C770.5077 996.0959 996.0977 770.0159 996.0977 498.0459C996.0977 225.5859 770.0177 -0.0041 497.5577 -0.0041C225.5877 -0.0041 -0.0023 225.5859 -0.0023 498.0459C-0.0023 770.0159 226.0777 996.0959 498.0477 996.0959ZM498.0477 913.0859C267.5777 913.0859 83.4977 728.5159 83.4977 498.0459C83.4977 267.5759 267.0877 83.0059 497.5577 83.0059C728.0277 83.0059 913.0877 267.5759 913.0877 498.0459C913.0877 728.5159 728.5177 913.0859 498.0477 913.0859ZM684.0777 600.5859V266.6059C684.0777 220.2159 652.3477 189.9459 604.4877 189.9459H391.1177C355.4677 189.9459 330.5677 206.5459 320.3077 234.3759V236.3259L359.3777 275.3859V268.0659C360.8377 248.0459 374.0277 237.3059 396.9777 237.3059H431.6377C436.5277 237.3059 437.9877 239.2559 437.9877 243.6559V249.9959C437.9877 262.2059 446.2877 270.9959 458.4977 270.9959H537.1077C549.3177 270.9959 557.1277 262.2059 557.1277 249.9959V243.6559C557.1277 239.2559 559.0777 237.3059 563.4777 237.3059H598.1477C623.5377 237.3059 636.7177 249.9959 636.7177 273.4359V553.2259ZM715.3277 746.5859C723.6377 755.3759 737.7977 755.3759 746.5777 746.5859C755.3677 737.7959 755.3677 724.6059 746.5777 715.3359L279.2977 248.5359C270.5077 239.7459 256.3477 239.7459 247.5577 248.5359C239.2577 256.8359 239.2577 271.4859 247.5577 279.7859ZM391.1177 806.1559H604.4877C639.1577 806.1559 663.5777 790.0359 674.3177 762.2059V759.2759L636.2277 721.1959V729.4959C633.2977 748.5359 620.6077 758.2959 598.1477 758.2959H396.9777C372.0677 758.2959 358.8877 745.6059 358.8877 722.1659V443.3559L311.5277 395.9959V729.0059C311.5277 775.3859 343.2577 806.1559 391.1177 806.1559ZM437.0077 737.3059H559.0777C567.3877 737.3059 572.7577 731.9359 572.7577 723.6359C572.7577 714.8459 567.3877 708.9859 559.0777 708.9859H437.0077C428.7077 708.9859 422.8477 714.8459 422.8477 723.6359C422.8477 731.9359 428.7077 737.3059 437.0077 737.3059Z"/>
</svg>