<?xml version="1.0" encoding="UTF-8" standalone="no"?>
<svg xmlns="http://www.w3.org/2000/svg"
     width="996.09375" height="996.09375"
     viewBox="0 0 996.09375 996.09375"
     fill="currentColor">
  <path d="M498.0477 996.0959C770.5077 996.0959 996.0977 770.0159 996.0977 498.0459C996.0977 225.5859 770.0177 -0.0041 497.5577 -0.0041C225.5877 -0.0041 -0.0023 225.5859 -0.0023 498.0459C-0.0023 770.0159 226.0777 996.0959 498.0477 996.0959ZM498.0477 913.0859C267.5777 913.0859 83.4977 728.5159 83.4977 498.0459C83.4977 267.5759 267.0877 83.0059 497.5577 83.0059C728.0277 83.0059 913.0877 267.5759 913.0877 498.0459C913.0877 728.5159 728.5177 913.0859 498.0477 913.0859ZM328.6177 708.0059C328.6177 749.5159 357.4177 777.8359 400.8777 777.8359H595.2177C638.6677 777.8359 667.4777 749.5159 667.4777 708.0059V288.0859C667.4777 246.5859 638.6677 218.2659 595.2177 218.2659H400.8777C357.4177 218.2659 328.6177 246.5859 328.6177 288.0859ZM447.7577 265.6259C447.7577 259.2759 452.6377 254.8859 458.0077 254.8859H538.0877C543.9477 254.8859 548.3377 259.2759 548.3377 265.6259C548.3377 271.9759 543.9477 275.8759 538.0877 275.8759H458.0077C452.6377 275.8759 447.7577 271.9759 447.7577 265.6259ZM372.5577 687.4959V308.5959H623.5377V687.4959ZM216.7977 643.0659C223.6377 634.7659 221.6777 624.9959 213.8677 615.7259C185.0577 583.4959 169.9177 542.4759 169.9177 498.0459C169.9177 453.6159 185.0577 412.5959 213.8677 380.3759C221.6777 371.0959 223.6377 360.8359 216.7977 353.0259C210.4477 344.2359 197.7577 344.2359 188.4777 353.5159C152.8277 392.0859 133.7877 443.3559 133.7877 498.0459C133.7877 552.2459 152.8277 603.5159 188.4777 642.5759C197.7577 651.8559 210.4477 651.8559 216.7977 643.0659ZM779.7877 643.0659C786.6177 651.8559 799.3177 651.8559 808.1077 642.5759C843.7477 603.5159 863.2777 552.2459 863.2777 498.0459C863.2777 443.3559 843.7477 392.0859 808.1077 353.5159C799.3177 344.2359 786.6177 344.2359 779.7877 353.0259C772.9477 360.8359 774.8977 371.0959 783.2077 380.3759C811.5277 412.5959 827.1477 453.6159 827.1477 498.0459C827.1477 542.4759 811.5277 583.4959 783.2077 615.7259C774.8977 624.9959 772.9477 634.7659 779.7877 643.0659ZM287.1077 583.0059C293.9477 574.7059 291.5077 565.4259 284.1777 555.6659C271.9777 540.0359 266.1177 520.0159 266.1177 498.0459C266.1177 476.0759 271.9777 455.5659 284.1777 440.4259C291.5077 430.6659 293.9477 421.3859 287.1077 413.0859C279.7877 404.2959 266.1177 404.2959 258.2977 414.0659C239.7477 437.4959 229.0077 466.3059 229.0077 498.0459C229.0077 529.2959 239.7477 558.5959 258.2977 581.5459C266.1177 591.3059 279.7877 591.7959 287.1077 583.0059ZM709.4777 583.0059C716.7977 591.7959 730.4677 591.3059 738.2777 581.5459C756.8377 558.5959 768.0677 529.2959 768.0677 498.0459C768.0677 466.3059 756.8377 437.4959 738.2777 414.0659C730.4677 404.2959 716.7977 404.2959 709.4777 413.0859C702.6377 421.3859 705.0777 430.6659 712.3977 440.4259C724.6077 455.5659 730.9577 476.0759 730.9577 498.0459C730.9577 520.0159 724.6077 540.0359 712.3977 555.6659C705.0777 565.4259 702.6377 574.7059 709.4777 583.0059ZM498.5377 750.4859C486.3277 750.4859 476.0777 740.2359 476.0777 728.0259C476.0777 715.8159 486.3277 705.5659 498.5377 705.5659C510.7377 705.5659 520.0177 715.8159 520.0177 728.0259C520.0177 740.2359 510.7377 750.4859 498.5377 750.4859Z"/>
</svg>