<?xml version="1.0" encoding="UTF-8" standalone="no"?>
<svg xmlns="http://www.w3.org/2000/svg"
     width="996.09375" height="996.09375"
     viewBox="0 0 996.09375 996.09375"
     fill="currentColor">
  <path d="M498.0477 996.0959C770.5077 996.0959 996.0977 770.0159 996.0977 498.0459C996.0977 225.5859 770.0177 -0.0041 497.5577 -0.0041C225.5877 -0.0041 -0.0023 225.5859 -0.0023 498.0459C-0.0023 770.0159 226.0777 996.0959 498.0477 996.0959ZM498.0477 913.0859C267.5777 913.0859 83.4977 728.5159 83.4977 498.0459C83.4977 267.5759 267.0877 83.0059 497.5577 83.0059C728.0277 83.0059 913.0877 267.5759 913.0877 498.0459C913.0877 728.5159 728.5177 913.0859 498.0477 913.0859ZM391.1177 806.1559H604.4877C652.3477 806.1559 684.5677 775.3859 684.5677 729.0059V266.6059C684.5677 220.2159 652.3477 189.9459 604.4877 189.9459H391.1177C343.7477 189.9459 311.5277 220.2159 311.5277 266.6059V729.0059C311.5277 775.3859 343.7477 806.1559 391.1177 806.1559ZM397.4577 758.2959C372.5577 758.2959 358.8877 745.6059 358.8877 722.1659V273.4359C358.8877 249.9959 372.5577 237.3059 397.4577 237.3059H598.6377C623.5377 237.3059 637.2077 249.9959 637.2077 273.4359V722.1659C637.2077 745.6059 623.5377 758.2959 598.6377 758.2959ZM462.3977 302.7359H533.2077C544.9177 302.7359 554.1977 293.4559 554.1977 281.7359C554.1977 270.5059 544.9177 261.2259 533.2077 261.2259H462.3977C450.6877 261.2259 441.4077 270.5059 441.4077 281.7359C441.4077 293.4559 450.6877 302.7359 462.3977 302.7359ZM437.0077 737.3059H559.0777C567.3877 737.3059 573.2377 731.9359 573.2377 723.6359C573.2377 714.8459 567.3877 708.9859 559.0777 708.9859H437.0077C428.7077 708.9859 422.8477 714.8459 422.8477 723.6359C422.8477 731.9359 428.7077 737.3059 437.0077 737.3059Z"/>
</svg>