<?xml version="1.0" encoding="UTF-8" standalone="no"?>
<svg xmlns="http://www.w3.org/2000/svg"
     width="627.44140625" height="1034.1796875"
     viewBox="0 0 627.44140625 1034.1796875"
     fill="currentColor">
  <path d="M-0.0017 907.2289C-0.0017 983.3989 53.2183 1034.1789 132.8083 1034.1789H494.6283C574.2183 1034.1789 627.4383 983.3989 627.4383 907.2289V126.9489C627.4383 50.7789 574.2183 -0.0011 494.6283 -0.0011H132.8083C53.2183 -0.0011 -0.0017 50.7789 -0.0017 126.9489ZM221.1883 85.4489C221.1883 74.2189 229.0083 66.8989 239.7483 66.8989H388.1883C398.9283 66.8989 406.7383 74.2189 406.7383 85.4489C406.7383 96.6789 398.9283 103.5189 388.1883 103.5189H239.7483C229.0083 103.5189 221.1883 96.6789 221.1883 85.4489ZM78.6183 868.6489V165.5289H548.8283V868.6489ZM314.4483 985.8389C291.0183 985.8389 271.9683 966.7989 271.9683 943.3589C271.9683 920.4089 291.0183 901.3689 314.4483 901.3689C337.3983 901.3689 356.4483 920.4089 356.4483 943.3589C356.4483 966.7989 337.3983 985.8389 314.4483 985.8389Z"/>
</svg>