<?xml version="1.0" encoding="UTF-8" standalone="no"?>
<svg xmlns="http://www.w3.org/2000/svg"
     width="996.09375" height="996.09375"
     viewBox="0 0 996.09375 996.09375"
     fill="currentColor">
  <path d="M498.0477 996.0977C770.5077 996.0977 996.0977 770.5077 996.0977 498.0477C996.0977 226.0777 770.0177 -0.0023 497.5577 -0.0023C225.5877 -0.0023 -0.0023 226.0777 -0.0023 498.0477C-0.0023 770.5077 226.0777 996.0977 498.0477 996.0977ZM398.9277 786.1377C354.0077 786.1377 323.7277 757.3277 323.7277 713.8677V282.2277C323.7277 238.2777 354.0077 209.9577 398.9277 209.9577H598.1477C643.0677 209.9577 673.3377 238.2777 673.3377 282.2277V713.8677C673.3377 757.3277 643.0677 786.1377 598.1477 786.1377ZM404.2977 741.2077H592.7777C615.7277 741.2077 628.4177 729.0077 628.4177 707.5177V288.0877C628.4177 266.5977 615.7277 254.8877 592.7777 254.8877H404.2977C381.3477 254.8877 368.6477 266.5977 368.6477 288.0877V707.5177C368.6477 729.0077 381.3477 741.2077 404.2977 741.2077ZM464.8477 315.4277C453.6177 315.4277 445.7977 306.6377 445.7977 295.8977C445.7977 285.1577 453.6177 276.3677 464.8477 276.3677H531.2477C542.4777 276.3677 550.7777 285.1577 550.7777 295.8977C550.7777 306.6377 542.4777 315.4277 531.2477 315.4277ZM790.5277 647.4577C783.6877 639.6477 785.6477 628.9077 793.9477 619.1377C823.2377 585.9377 839.3577 543.9477 839.3577 498.0477C839.3577 452.1477 823.2377 410.1577 793.9477 376.9577C785.6477 367.1877 783.6877 356.9377 790.5277 348.6377C797.8477 339.3577 810.5477 339.3577 819.8277 349.1177C856.4477 389.1577 876.4677 442.3877 876.4677 498.0477C876.4677 554.1977 856.4477 607.4177 819.8277 646.9677C810.5477 656.7377 797.8477 656.7377 790.5277 647.4577ZM205.0777 647.4577C198.2377 656.7377 185.5477 656.7377 175.7777 646.9677C139.1577 607.4177 119.6277 554.1977 119.6277 498.0477C119.6277 442.3877 139.1577 389.1577 175.7777 349.1177C185.5477 339.3577 198.2377 339.3577 205.0777 348.6377C211.9177 356.9377 209.9577 367.1877 202.1477 376.9577C172.3677 410.1577 156.7377 452.1477 156.7377 498.0477C156.7377 543.9477 172.3677 585.9377 202.1477 619.1377C209.9577 628.9077 211.9177 639.6477 205.0777 647.4577ZM277.8277 585.4477C270.0177 594.7277 256.3477 594.7277 247.5577 584.4677C228.5177 560.5477 217.7777 530.7577 217.7777 498.0477C217.7777 465.8177 228.5177 435.5477 247.5577 412.1077C256.3477 401.8577 270.0177 401.3677 277.8277 410.6477C284.6677 418.9477 282.2277 428.7077 274.4177 438.9677C262.2077 454.5877 255.8577 475.5877 255.8577 498.0477C255.8577 520.5077 262.2077 541.0177 274.4177 557.1277C282.2277 567.3877 284.6677 577.1477 277.8277 585.4477ZM717.7777 585.4477C710.9377 577.1477 713.3777 567.3877 721.1877 557.1277C733.3977 541.0177 740.2377 520.5077 740.2377 498.0477C740.2377 475.5877 733.3977 454.5877 721.1877 438.9677C713.3777 428.7077 710.9377 418.9477 717.7777 410.6477C725.5877 401.3677 739.7477 401.8577 748.0477 412.1077C767.0877 435.5477 778.3177 465.8177 778.3177 498.0477C778.3177 530.7577 767.0877 560.5477 748.0477 584.4677C739.7477 594.7277 725.5877 594.7277 717.7777 585.4477ZM441.8977 722.1677C433.5977 722.1677 428.2277 716.3077 428.2277 708.4977C428.2277 700.1977 433.5977 694.8277 441.8977 694.8277H556.1477C563.9677 694.8277 568.8477 700.1977 568.8477 708.4977C568.8477 716.3077 563.9677 722.1677 556.1477 722.1677Z"/>
</svg>