<?xml version="1.0" encoding="UTF-8" standalone="no"?>
<svg xmlns="http://www.w3.org/2000/svg"
     width="627.44140625" height="1033.69140625"
     viewBox="0 0 627.44140625 1033.69140625"
     fill="currentColor">
  <path d="M132.8083 1033.6889H494.6283C574.2183 1033.6889 627.4383 982.9089 627.4383 906.7389V126.9489C627.4383 50.7789 574.2183 -0.0011 494.6283 -0.0011H132.8083C53.2183 -0.0011 -0.0017 50.7789 -0.0017 126.9489V906.7389C-0.0017 982.9089 53.2183 1033.6889 132.8083 1033.6889ZM143.0683 890.1389C101.5583 890.1389 78.6183 868.1689 78.6183 829.0989V139.6489C78.6183 100.5889 101.5583 78.6089 143.0683 78.6089H484.8683C525.8783 78.6089 548.8283 100.5889 548.8283 139.6489V831.5389C548.8283 871.0889 525.8783 890.1389 484.8683 890.1389H389.6483V873.5389C389.6483 853.5189 376.4683 839.3589 356.4483 839.3589H271.9683C251.4683 839.3589 238.2783 853.5189 238.2783 873.5389V890.1389Z"/>
</svg>