<?xml version="1.0" encoding="UTF-8" standalone="no"?>
<svg xmlns="http://www.w3.org/2000/svg"
     width="996.09375" height="996.09375"
     viewBox="0 0 996.09375 996.09375"
     fill="currentColor">
  <path d="M498.0477 996.0959C770.5077 996.0959 996.0977 770.0159 996.0977 498.0459C996.0977 225.5859 770.0177 -0.0041 497.5577 -0.0041C225.5877 -0.0041 -0.0023 225.5859 -0.0023 498.0459C-0.0023 770.0159 226.0777 996.0959 498.0477 996.0959ZM498.0477 913.0859C267.5777 913.0859 83.4977 728.5159 83.4977 498.0459C83.4977 267.5759 267.0877 83.0059 497.5577 83.0059C728.0277 83.0059 913.0877 267.5759 913.0877 498.0459C913.0877 728.5159 728.5177 913.0859 498.0477 913.0859ZM390.6277 806.1559H604.0077C651.8577 806.1559 684.0777 775.3859 684.0777 729.0059V266.6059C684.0777 220.2159 651.8577 189.9459 604.0077 189.9459H390.6277C343.2577 189.9459 311.0377 220.2159 311.0377 266.6059V729.0059C311.0377 775.3859 343.2577 806.1559 390.6277 806.1559ZM396.9777 758.2959C372.0677 758.2959 358.3977 745.6059 358.3977 722.1659V273.4359C358.3977 249.9959 372.0677 237.3059 396.9777 237.3059H431.6377C436.5277 237.3059 437.9877 239.2559 437.9877 243.6559V249.9959C437.9877 262.2059 445.7977 270.9959 458.4977 270.9959H536.6177C548.8277 270.9959 557.1277 262.2059 557.1277 249.9959V243.6559C557.1277 239.2559 559.0777 237.3059 563.4777 237.3059H598.1477C623.0477 237.3059 636.7177 249.9959 636.7177 273.4359V722.1659C636.7177 745.6059 623.0477 758.2959 598.1477 758.2959ZM436.5277 737.3059H558.5977C566.8977 737.3059 572.7577 731.9359 572.7577 723.6359C572.7577 714.8459 566.8977 708.9859 558.5977 708.9859H436.5277C428.2277 708.9859 422.3677 714.8459 422.3677 723.6359C422.3677 731.9359 428.2277 737.3059 436.5277 737.3059Z"/>
</svg>