<?xml version="1.0" encoding="UTF-8" standalone="no"?>
<svg xmlns="http://www.w3.org/2000/svg"
     width="627.44140625" height="1033.69140625"
     viewBox="0 0 627.44140625 1033.69140625"
     fill="currentColor">
  <path d="M132.8083 1033.6889H494.6283C574.2183 1033.6889 627.4383 982.9089 627.4383 906.7389V126.9489C627.4383 50.7789 574.2183 -0.0011 494.6283 -0.0011H132.8083C53.2183 -0.0011 -0.0017 50.7789 -0.0017 126.9489V906.7389C-0.0017 982.9089 53.2183 1033.6889 132.8083 1033.6889ZM143.0683 955.0789C101.5583 955.0789 78.6183 933.1089 78.6183 894.0389V139.6489C78.6183 100.5889 101.5583 78.6089 143.0683 78.6089H484.8683C525.8783 78.6089 548.8283 100.5889 548.8283 139.6489V894.0389C548.8283 933.1089 525.8783 955.0789 484.8683 955.0789ZM254.8783 186.0389H373.0483C392.0883 186.0389 407.2283 170.8989 407.2283 151.3689C407.2283 132.3289 392.0883 117.1889 373.0483 117.1889H254.8783C235.3483 117.1889 220.2183 132.3289 220.2183 151.3689C220.2183 170.8989 235.3483 186.0389 254.8783 186.0389ZM210.4483 919.4289H417.9683C431.1483 919.4289 440.4283 910.1589 440.4283 896.4889C440.4283 882.8089 431.1483 874.0189 417.9683 874.0189H210.4483C197.2683 874.0189 187.4983 882.8089 187.4983 896.4889C187.4983 910.1589 197.2683 919.4289 210.4483 919.4289Z"/>
</svg>