<?xml version="1.0" encoding="UTF-8" standalone="no"?>
<svg xmlns="http://www.w3.org/2000/svg"
     width="1561.5234375" height="1034.1796875"
     viewBox="0 0 1561.5234375 1034.1796875"
     fill="currentColor">
  <path d="M467.2877 907.2289C467.2877 983.3989 520.5077 1034.1789 600.0977 1034.1789H961.9177C1041.5077 1034.1789 1094.7277 983.3989 1094.7277 907.2289V126.9489C1094.7277 50.7789 1041.5077 -0.0011 961.9177 -0.0011H600.0977C520.5077 -0.0011 467.2877 50.7789 467.2877 126.9489ZM688.4777 85.4489C688.4777 74.2189 696.2877 66.8989 707.0277 66.8989H855.4677C866.6977 66.8989 874.0277 74.2189 874.0277 85.4489C874.0277 96.6789 866.6977 103.5189 855.4677 103.5189H707.0277C696.2877 103.5189 688.4777 96.6789 688.4777 85.4489ZM545.8977 868.6489V165.5289H1016.1177V868.6489ZM1373.0477 851.0789C1388.6677 869.1389 1416.0177 869.1389 1435.0577 848.6289C1516.1177 760.2489 1561.5277 643.5589 1561.5277 517.0889C1561.5277 390.6289 1516.1177 273.4389 1435.0577 185.5489C1416.0177 165.0389 1388.6677 164.5489 1373.0477 183.1089C1357.4177 200.6789 1362.3077 223.6289 1379.8877 243.6489C1445.3077 316.4089 1481.9377 412.1089 1481.9377 517.0889C1481.9377 622.0689 1445.3077 717.7689 1379.8877 790.5289C1362.3077 810.5489 1357.4177 833.4989 1373.0477 851.0789ZM188.4777 851.0789C204.0977 833.4989 199.2177 810.5489 181.6377 790.5289C116.2077 717.7689 79.5877 622.0689 79.5877 517.0889C79.5877 412.1089 116.2077 316.4089 181.6377 243.6489C199.2177 223.6289 204.0977 200.6789 188.4777 183.1089C172.8477 164.5489 145.5077 165.0389 126.9577 185.5489C45.8977 273.4389 -0.0023 390.6289 -0.0023 517.0889C-0.0023 643.5589 45.8977 760.2489 126.9577 848.6289C145.5077 869.1389 172.8477 869.1389 188.4777 851.0789ZM325.1977 711.9189C340.8177 694.3389 334.4777 672.3589 318.8477 651.3689C289.5477 614.7489 275.3877 567.8689 275.3877 517.0889C275.3877 466.3089 289.5477 418.9489 318.8477 382.8089C334.4777 361.8189 340.8177 339.8389 325.1977 322.2689C309.0777 303.7089 279.7877 303.7089 262.6977 325.6789C220.2177 378.4189 195.7977 445.3089 195.7977 517.0889C195.7977 588.8689 220.2177 655.7589 262.6977 708.4989C279.7877 730.4689 309.0777 729.9789 325.1977 711.9189ZM1236.3277 711.9189C1252.4377 729.9789 1281.7377 730.4689 1298.8277 708.4989C1341.3077 655.7589 1366.2077 588.8689 1366.2077 517.0889C1366.2077 445.3089 1341.3077 378.4189 1298.8277 325.6789C1281.7377 303.7089 1252.4377 303.7089 1236.3277 322.2689C1220.7077 339.8389 1227.5377 361.8189 1242.6777 382.8089C1271.9777 418.9489 1286.6177 466.3089 1286.6177 517.0889C1286.6177 567.8689 1271.9777 614.7489 1242.6777 651.3689C1227.5377 672.3589 1220.7077 694.3389 1236.3277 711.9189ZM781.7377 985.8389C758.2977 985.8389 739.2577 966.7989 739.2577 943.3589C739.2577 920.4089 758.2977 901.3689 781.7377 901.3689C804.6877 901.3689 823.7277 920.4089 823.7277 943.3589C823.7277 966.7989 804.6877 985.8389 781.7377 985.8389Z"/>
</svg>