<?xml version="1.0" encoding="UTF-8" standalone="no"?>
<svg xmlns="http://www.w3.org/2000/svg"
     width="658.69140625" height="974.12109375"
     viewBox="0 0 658.69140625 974.12109375"
     fill="currentColor">
  <path d="M-0.0017 847.1655C-0.0017 923.3355 53.2183 974.1255 132.8083 974.1255H525.3883C604.9783 974.1255 658.6883 923.3355 658.6883 847.1655V126.9555C658.6883 50.7855 604.9783 -0.0045 525.3883 -0.0045H132.8083C53.2183 -0.0045 -0.0017 50.7855 -0.0017 126.9555ZM78.6183 372.0655V139.6455C78.6183 100.5855 101.5583 78.6155 143.0683 78.6155H515.6283C556.6383 78.6155 580.0783 100.5855 580.0783 139.6455V372.0655C580.0783 411.6255 556.6383 433.5955 515.6283 433.5955H143.0683C101.5583 433.5955 78.6183 411.6255 78.6183 372.0655ZM329.5883 875.9755C228.0283 875.9755 145.0183 793.9455 145.0183 692.3855C145.0183 590.3355 228.0283 508.3055 329.5883 508.3055C430.6683 508.3055 513.6683 590.3355 513.6683 692.3855C513.6683 793.9455 430.6683 875.9755 329.5883 875.9755ZM329.5883 807.1255C393.0683 807.1255 444.3383 755.3755 444.3383 692.3855C444.3383 628.9055 393.0683 577.1455 329.5883 577.1455C265.6283 577.1455 213.8683 628.9055 213.8683 692.3855C213.8683 755.3755 265.6283 807.1255 329.5883 807.1255Z"/>
</svg>