<?xml version="1.0" encoding="UTF-8" standalone="no"?>
<svg xmlns="http://www.w3.org/2000/svg"
     width="520.5078125" height="1034.1796875"
     viewBox="0 0 520.5078125 1034.1796875"
     fill="currentColor">
  <path d="M132.8083 1034.1789H387.6983C469.2383 1034.1789 520.5083 984.8589 520.5083 907.2289V126.9489C520.5083 49.3189 469.2383 -0.0011 387.6983 -0.0011H132.8083C51.2683 -0.0011 -0.0017 49.3189 -0.0017 126.9489V907.2289C-0.0017 984.8589 51.2683 1034.1789 132.8083 1034.1789ZM143.0683 955.5689C102.0483 955.5689 78.6183 933.1089 78.6183 894.5289V139.6489C78.6183 101.0789 102.0483 78.6089 143.0683 78.6089H377.9283C418.4583 78.6089 441.8983 101.0789 441.8983 139.6489V894.5289C441.8983 933.1089 418.4583 955.5689 377.9283 955.5689Z"/>
</svg>