<?xml version="1.0" encoding="UTF-8" standalone="no"?>
<svg xmlns="http://www.w3.org/2000/svg"
     width="884.3994140625" height="1034.1796875"
     viewBox="0 0 884.3994140625 1034.1796875"
     fill="currentColor">
  <path d="M756.7142 697.7489V126.9489C756.7142 50.7789 703.4942 -0.0011 623.9042 -0.0011H261.1042C200.5642 -0.0011 157.1042 28.8089 140.0142 78.1289V81.0589L228.3942 169.4289V165.5289H677.6142V619.1389ZM442.7442 111.3289C426.6342 111.3289 413.9442 98.1489 413.9442 82.0289C413.9442 66.4089 426.6342 53.7089 442.7442 53.7089C458.8642 53.7089 471.0742 66.4089 471.0742 82.0289C471.0742 98.1489 458.8642 111.3289 442.7442 111.3289ZM820.1942 950.1989C834.8342 965.3289 859.2542 964.8389 873.4142 950.1989C888.0642 936.0389 888.0642 912.1089 873.4142 896.9689L64.3342 88.3789C49.6842 73.7289 25.7542 73.2389 10.6242 88.3789C-3.5358 102.5389 -3.5358 127.4389 10.6242 141.5989ZM261.1042 1034.1789H623.9042C682.9842 1034.1789 725.4642 1006.3489 743.5342 958.9889V956.5389L650.7542 864.2589V868.6489H206.9142V420.8989L128.2942 342.2889V907.2289C128.2942 983.3989 181.5142 1034.1789 261.1042 1034.1789ZM442.7442 985.8389C419.3142 985.8389 400.2642 966.7989 400.2642 943.3589C400.2642 920.4089 419.3142 901.3689 442.7442 901.3689C465.6942 901.3689 484.7442 920.4089 484.7442 943.3589C484.7442 966.7989 465.6942 985.8389 442.7442 985.8389Z"/>
</svg>