<?xml version="1.0" encoding="UTF-8" standalone="no"?>
<svg xmlns="http://www.w3.org/2000/svg"
     width="505.859375" height="698.2421875"
     viewBox="0 0 505.859375 698.2421875"
     fill="currentColor">
  <path d="M39.0583 698.2402H347.6583C370.6083 698.2402 387.2083 684.0802 387.2083 661.1302C387.2083 639.1602 371.0983 625.0002 348.1483 625.0002H238.7683L357.4183 73.2402H466.7983C489.7483 73.2402 505.8583 59.0802 505.8583 36.1302C505.8583 14.1602 490.2383 0.0002 467.2883 0.0002H157.2283C134.2783 0.0002 118.6483 14.1602 118.6483 36.1302C118.6483 59.0802 134.7683 73.2402 157.7183 73.2402H267.0883L148.4383 625.0002H38.5783C15.6283 625.0002 -0.0017 639.1602 -0.0017 661.1302C-0.0017 684.0802 16.1183 698.2402 39.0583 698.2402Z"/>
</svg>