<?xml version="1.0" encoding="UTF-8" standalone="no"?>
<svg xmlns="http://www.w3.org/2000/svg"
     width="526.3671875" height="721.6796875"
     viewBox="0 0 526.3671875 721.6796875"
     fill="currentColor">
  <path d="M44.4383 721.6823C72.2683 721.6823 90.3283 704.1023 90.3283 676.2723V473.6323L173.3383 385.2523L438.9683 697.2623C454.5883 715.3323 465.3283 721.6823 481.9383 721.6823C507.8083 721.6823 526.3683 704.1023 526.3683 680.1723C526.3683 667.9723 520.5083 655.7623 508.7883 642.0923L237.3083 321.2923L482.4183 69.3323C492.1883 59.0823 496.5783 49.8023 496.5783 39.0623C496.5783 17.0923 478.5183 0.0023 456.0583 0.0023C442.8683 0.0023 432.6183 3.9023 419.9183 17.0923L94.7283 357.9123H90.3283V44.9223C90.3283 17.5823 72.2683 0.0023 44.4383 0.0023C17.0883 0.0023 -0.0017 17.5823 -0.0017 44.9223V676.2723C-0.0017 704.1023 17.0883 721.6823 44.4383 721.6823Z"/>
</svg>