<?xml version="1.0" encoding="UTF-8" standalone="no"?>
<svg xmlns="http://www.w3.org/2000/svg"
     width="898.92578125" height="898.92578125"
     viewBox="0 0 898.92578125 898.92578125"
     fill="currentColor">
  <path d="M153.3183 898.9295H745.6083C848.1483 898.9295 898.9283 848.1495 898.9283 747.5595V151.3695C898.9283 50.7795 848.1483 -0.0005 745.6083 -0.0005H153.3183C51.2683 -0.0005 -0.0017 50.2895 -0.0017 151.3695V747.5595C-0.0017 848.6295 51.2683 898.9295 153.3183 898.9295ZM154.2983 820.3095C105.4683 820.3095 78.6183 794.4295 78.6183 743.6495V155.2695C78.6183 104.4895 105.4683 78.6095 154.2983 78.6095H744.6283C792.9683 78.6095 820.3083 104.4895 820.3083 155.2695V743.6495C820.3083 794.4295 792.9683 820.3095 744.6283 820.3095ZM322.2683 672.3595C347.6583 672.3595 361.8183 655.7595 361.8183 628.4195V526.8595L421.3883 465.3295L563.9683 653.3195C573.7283 666.4995 583.9883 672.3595 597.6583 672.3595C619.6283 672.3595 635.2583 656.7395 635.2583 635.7395C635.2583 625.9795 631.3483 615.2295 624.5083 605.9595L478.5183 415.0395L612.7883 277.3395C621.0983 268.0695 624.5083 259.7695 624.5083 249.0195C624.5083 230.9595 608.8883 215.8195 588.8683 215.8195C576.6583 215.8195 568.3583 220.2195 557.1283 231.4495L364.7483 427.7295H361.8183V259.7695C361.8183 232.4195 347.6583 215.8195 322.2683 215.8195C298.3383 215.8195 283.6883 232.4195 283.6883 259.7695V628.4195C283.6883 655.7595 298.3383 672.3595 322.2683 672.3595Z"/>
</svg>