<?xml version="1.0" encoding="UTF-8" standalone="no"?>
<svg xmlns="http://www.w3.org/2000/svg"
     width="623.53515625" height="1204.9990102296633"
     viewBox="0 0 623.53515625 1204.9990102296633"
     fill="currentColor">
  <path d="M312.0083 0.0019C138.1883 0.0019 -0.0017 138.1819 -0.0017 311.0319C-0.0017 441.4019 78.1283 556.6419 200.1983 603.0319V1084.9619C200.1983 1097.1719 204.0983 1106.4419 212.8883 1115.7219L294.4383 1197.7519C302.7383 1206.0519 319.3383 1208.4919 329.5883 1198.2419L484.3783 1043.4619C494.6283 1032.7119 494.1383 1018.5519 484.3783 1008.3019L388.1883 913.5719L520.0183 782.2219C529.2983 772.4619 529.2983 758.3019 519.0383 747.5619L388.6683 616.2119C539.5483 556.1519 623.5383 444.8219 623.5383 311.0319C623.5383 139.1619 484.3783 0.0019 312.0083 0.0019ZM312.0083 286.1319C266.5983 286.1319 230.4683 249.5119 230.4683 204.5919C230.4683 159.1819 266.1183 123.0419 312.0083 123.0419C356.9383 123.0419 393.5583 159.1819 393.5583 204.5919C393.5583 249.5119 356.9383 286.1319 312.0083 286.1319Z"/>
</svg>