<?xml version="1.0" encoding="UTF-8" standalone="no"?>
<svg xmlns="http://www.w3.org/2000/svg"
     width="956.0546875" height="955.56640625"
     viewBox="0 0 956.0546875 955.56640625"
     fill="currentColor">
  <path d="M39.0583 310.5498C64.9383 310.5498 78.6183 295.8998 78.6183 270.5098V155.2698C78.6183 104.4898 105.4683 78.6098 154.2983 78.6098H272.4583C298.3383 78.6098 312.4983 64.4498 312.4983 39.0598C312.4983 13.6698 298.3383 -0.0002 272.4583 -0.0002H153.3183C51.2683 -0.0002 -0.0017 50.2898 -0.0017 150.8798V270.5098C-0.0017 295.8998 14.1583 310.5498 39.0583 310.5498ZM916.5083 310.5498C942.3783 310.5498 956.0583 295.8998 956.0583 270.5098V150.8798C956.0583 50.2898 904.7883 -0.0002 802.7383 -0.0002H683.1083C657.7183 -0.0002 643.5583 13.6698 643.5583 39.0598C643.5583 64.4498 657.7183 78.6098 683.1083 78.6098H801.2683C849.6083 78.6098 877.4383 104.4898 877.4383 155.2698V270.5098C877.4383 295.8998 891.5983 310.5498 916.5083 310.5498ZM478.5183 179.6898C388.1883 179.6898 316.4083 251.9498 316.4083 341.3098C316.4083 409.6698 356.9383 468.7498 419.4383 493.1598V743.6498C419.9183 749.9998 422.3683 754.8798 427.2483 759.7698L469.2383 802.2498C474.6083 807.1298 481.4483 807.6198 486.8183 802.2498L567.3783 722.1698C573.2383 716.7998 573.2383 708.9798 567.3783 704.0998L517.5783 654.2998L586.4283 586.4298C591.3083 582.0298 590.8183 574.2198 585.4483 568.3598L517.5783 499.9998C596.1883 468.7498 639.6483 411.1298 639.6483 341.3098C639.6483 252.4398 567.3783 179.6898 478.5183 179.6898ZM478.0283 255.8598C505.3683 255.8598 527.3483 278.3198 527.3483 305.6598C527.3483 333.9798 505.3683 356.4498 478.0283 356.4498C450.6883 356.4498 427.7383 333.9798 427.7383 305.6598C427.7383 278.3198 450.1983 255.8598 478.0283 255.8598ZM153.3183 955.5698H272.4583C298.3383 955.5698 312.4983 941.4098 312.4983 916.4998C312.4983 891.1098 298.3383 876.9498 272.4583 876.9498H154.2983C105.4683 876.9498 78.6183 851.0698 78.6183 800.2898V685.0598C78.6183 659.1798 64.4483 645.0198 39.0583 645.0198C13.6683 645.0198 -0.0017 659.1798 -0.0017 685.0598V804.1998C-0.0017 905.2698 51.2683 955.5698 153.3183 955.5698ZM683.1083 955.5698H802.7383C904.7883 955.5698 956.0583 904.7898 956.0583 804.1998V685.0598C956.0583 659.1798 941.8983 645.0198 916.5083 645.0198C891.1183 645.0198 877.4383 659.1798 877.4383 685.0598V800.2898C877.4383 851.0698 849.6083 876.9498 801.2683 876.9498H683.1083C657.7183 876.9498 643.5583 891.1098 643.5583 916.4998C643.5583 941.4098 657.7183 955.5698 683.1083 955.5698Z"/>
</svg>