<?xml version="1.0" encoding="UTF-8" standalone="no"?>
<svg xmlns="http://www.w3.org/2000/svg"
     width="1094.7265625" height="1233.5651257166191"
     viewBox="0 0 1094.7265625 1233.5651257166191"
     fill="currentColor">
  <path d="M941.8983 677.7612C959.9583 689.9612 982.4183 686.0612 995.1183 667.0112C1057.6183 581.0812 1094.7283 462.9112 1094.7283 342.3112C1094.7283 221.7012 1058.1083 102.5612 995.1183 17.6012C982.4183 -0.9588 959.9583 -5.3488 941.8983 6.8612C923.8283 19.0612 920.8983 42.0112 935.0583 62.0312C988.2783 137.7212 1019.0383 238.3012 1019.0383 342.3112C1019.0383 446.8012 987.3083 546.9012 935.0583 622.5812C921.3883 642.6012 923.8283 665.5512 941.8983 677.7612ZM292.4783 1219.7512C312.9883 1236.8412 340.8183 1239.2812 360.3483 1220.2412L511.2283 1069.3612C530.2783 1049.8312 529.2983 1020.5312 510.7383 1001.4912L435.0583 926.2912L545.4083 816.4312C564.4483 797.8712 563.4783 768.0912 544.9183 748.5612L442.8683 646.0212C577.1483 581.5612 652.8283 472.1912 652.8283 342.3112C652.8283 162.1312 506.8383 16.6212 326.6583 16.6212C145.0183 16.6212 -0.0017 161.1512 -0.0017 342.3112C-0.0017 473.1712 75.1983 589.3812 193.8483 641.6212V1102.5612C193.8483 1118.6712 198.7283 1137.2312 212.8883 1149.9212ZM326.6583 1142.6012L272.4583 1088.8912V584.9812C157.7183 559.1012 78.1283 459.9812 78.1283 342.3112C78.1283 205.5912 188.9683 95.2412 326.6583 95.2412C463.8683 95.2412 574.2183 205.5912 574.2183 342.3112C574.2183 459.0112 494.1383 559.1012 371.5783 588.4012V687.0312L467.2883 783.2212L363.7683 885.2812V966.3312L433.1083 1034.6912ZM760.7383 550.8012C777.3483 562.0312 800.2883 558.1312 813.4783 539.5712C850.5883 489.7712 873.0483 417.0112 873.0483 342.3112C873.0483 267.6012 850.5883 195.3312 813.4783 145.5312C800.2883 126.4912 777.3483 123.0712 760.7383 134.7912C741.2083 148.4612 737.7883 172.3812 752.9283 192.4012C781.7383 231.4712 797.3683 285.6712 797.3683 342.3112C797.3683 398.9512 781.2483 452.6612 752.9283 492.2112C738.2783 512.7212 741.2083 536.6412 760.7383 550.8012ZM326.6583 327.6612C370.1183 327.6612 405.7583 292.0112 405.7583 248.0712C405.7583 204.6112 370.1183 169.4512 326.6583 169.4512C282.2283 169.4512 247.5583 204.6112 247.5583 248.0712C247.5583 292.0112 282.7183 327.6612 326.6583 327.6612Z"/>
</svg>