<?xml version="1.0" encoding="UTF-8" standalone="no"?>
<svg xmlns="http://www.w3.org/2000/svg"
     width="1205.0477430555557" height="623.53515625"
     viewBox="0 0 1205.0477430555557 623.53515625"
     fill="currentColor">
  <path d="M1205.0479 312.0108C1205.0479 138.6708 1066.3779 0.0008 894.0079 0.0008C763.1579 0.0008 648.4079 78.1208 602.0179 200.1908H120.0879C107.3879 200.1908 98.5979 204.1008 88.8379 213.3808L6.8079 294.9208C-1.0021 302.7308 -3.4521 319.3408 6.8079 329.5908L161.5879 484.3708C172.3379 494.6308 186.4979 494.1408 196.7479 484.3708L291.4779 388.6708L422.8179 520.0208C432.5879 529.7808 446.7479 529.7808 457.4879 519.0408L588.8379 388.6708C648.8979 539.5508 760.2279 623.5308 894.0079 623.5308C1065.8879 623.5308 1205.0479 484.8608 1205.0479 312.0108ZM918.4279 312.0108C918.4279 266.6008 955.0479 230.4708 1000.4579 230.4708C1045.8679 230.4708 1081.9979 266.1108 1081.9979 312.0108C1081.9979 357.4208 1045.8679 394.0408 1000.4579 394.0408C955.0479 394.0408 918.4279 357.4208 918.4279 312.0108Z"/>
</svg>