<?xml version="1.0" encoding="UTF-8" standalone="no"?>
<svg xmlns="http://www.w3.org/2000/svg"
     width="1229.00390625" height="771.484375"
     viewBox="0 0 1229.00390625 771.484375"
     fill="currentColor">
  <path d="M153.3183 771.4813H1075.6883C1177.2483 771.4813 1229.0083 720.7013 1229.0083 620.1213V150.8813C1229.0083 50.7813 1177.2483 0.0013 1075.6883 0.0013H153.3183C50.7783 0.0013 -0.0017 50.2912 -0.0017 150.8813V620.1213C-0.0017 720.7013 50.7783 771.4813 153.3183 771.4813ZM154.2983 692.8713C105.4683 692.8713 78.6183 666.5013 78.6183 615.7213V155.2713C78.6183 104.4913 105.4683 78.6113 154.2983 78.6113H1074.2183C1122.5583 78.6113 1150.3883 104.4913 1150.3883 155.2713V615.7213C1150.3883 666.5013 1122.5583 692.8713 1074.2183 692.8713ZM192.3783 270.9913H228.5183C236.8183 270.9913 242.1883 265.1413 242.1883 255.3712V200.6812C242.1883 190.9212 236.8183 185.0612 228.5183 185.0612H192.3783C183.5983 185.0612 177.7383 190.9212 177.7383 200.6812V255.3712C177.7383 265.1413 183.5983 270.9913 192.3783 270.9913ZM299.8083 270.9913H335.4483C344.2383 270.9913 349.6083 265.1413 349.6083 255.3712V200.6812C349.6083 190.9212 344.2383 185.0612 335.4483 185.0612H299.8083C290.5283 185.0612 285.1583 190.9212 285.1583 200.6812V255.3712C285.1583 265.1413 290.5283 270.9913 299.8083 270.9913ZM406.7383 270.9913H442.8683C451.1683 270.9913 456.5383 265.1413 456.5383 255.3712V200.6812C456.5383 190.9212 451.1683 185.0612 442.8683 185.0612H406.7383C397.9483 185.0612 392.0883 190.9212 392.0883 200.6812V255.3712C392.0883 265.1413 397.9483 270.9913 406.7383 270.9913ZM513.6683 270.9913H549.3183C558.1083 270.9913 563.9683 265.1413 563.9683 255.3712V200.6812C563.9683 190.9212 558.1083 185.0612 549.3183 185.0612H513.6683C504.8783 185.0612 499.5083 190.9212 499.5083 200.6812V255.3712C499.5083 265.1413 504.8783 270.9913 513.6683 270.9913ZM620.6083 270.9913H657.2283C665.5283 270.9913 670.8983 265.1413 670.8983 255.3712V200.6812C670.8983 190.9212 665.5283 185.0612 657.2283 185.0612H620.6083C611.8183 185.0612 606.4483 190.9212 606.4483 200.6812V255.3712C606.4483 265.1413 611.8183 270.9913 620.6083 270.9913ZM728.5183 270.9913H763.6683C772.4583 270.9913 778.3183 265.1413 778.3183 255.3712V200.6812C778.3183 190.9212 772.4583 185.0612 763.6683 185.0612H728.5183C719.2383 185.0612 713.8683 190.9212 713.8683 200.6812V255.3712C713.8683 265.1413 719.2383 270.9913 728.5183 270.9913ZM860.8383 358.4013C842.7783 375.4913 842.7783 395.5113 860.8383 412.6013L1003.9083 549.3213C1020.5083 564.9413 1048.8283 558.5912 1048.8283 532.2313V238.7713C1048.8283 212.8913 1020.5083 206.5413 1003.9083 222.1713ZM192.3783 427.7313H228.5183C236.8183 427.7313 242.1883 422.3613 242.1883 412.1113V357.9113C242.1883 347.6513 236.8183 342.2813 228.5183 342.2813H192.3783C183.5983 342.2813 177.7383 347.6513 177.7383 357.9113V412.1113C177.7383 422.3613 183.5983 427.7313 192.3783 427.7313ZM299.8083 427.7313H335.4483C344.2383 427.7313 349.6083 422.3613 349.6083 412.1113V357.9113C349.6083 347.6513 344.2383 342.2813 335.4483 342.2813H299.8083C290.5283 342.2813 285.1583 347.6513 285.1583 357.9113V412.1113C285.1583 422.3613 290.5283 427.7313 299.8083 427.7313ZM406.7383 427.7313H442.8683C451.1683 427.7313 456.5383 422.3613 456.5383 412.1113V357.9113C456.5383 347.6513 451.1683 342.2813 442.8683 342.2813H406.7383C397.9483 342.2813 392.0883 347.6513 392.0883 357.9113V412.1113C392.0883 422.3613 397.9483 427.7313 406.7383 427.7313ZM513.6683 427.7313H549.3183C558.1083 427.7313 563.9683 422.3613 563.9683 412.1113V357.9113C563.9683 347.6513 558.1083 342.2813 549.3183 342.2813H513.6683C504.8783 342.2813 499.5083 347.6513 499.5083 357.9113V412.1113C499.5083 422.3613 504.8783 427.7313 513.6683 427.7313ZM620.6083 427.7313H657.2283C665.5283 427.7313 670.8983 422.3613 670.8983 412.1113V357.9113C670.8983 347.6513 665.5283 342.2813 657.2283 342.2813H620.6083C611.8183 342.2813 606.4483 347.6513 606.4483 357.9113V412.1113C606.4483 422.3613 611.8183 427.7313 620.6083 427.7313ZM728.5183 427.7313H763.6683C772.4583 427.7313 778.3183 422.3613 778.3183 412.1113V357.9113C778.3183 347.6513 772.4583 342.2813 763.6683 342.2813H728.5183C719.2383 342.2813 713.8683 347.6513 713.8683 357.9113V412.1113C713.8683 422.3613 719.2383 427.7313 728.5183 427.7313ZM192.3783 584.9613H228.5183C236.8183 584.9613 242.1883 579.1012 242.1883 569.3313V514.6513C242.1883 504.8813 236.8183 499.0213 228.5183 499.0213H192.3783C183.5983 499.0213 177.7383 504.8813 177.7383 514.6513V569.3313C177.7383 579.1012 183.5983 584.9613 192.3783 584.9613ZM299.8083 584.9613H657.2283C665.5283 584.9613 670.8983 579.1012 670.8983 569.3313V514.6513C670.8983 504.8813 665.5283 499.0213 657.2283 499.0213H299.8083C290.5283 499.0213 285.1583 504.8813 285.1583 514.6513V569.3313C285.1583 579.1012 290.5283 584.9613 299.8083 584.9613ZM728.5183 584.9613H763.6683C772.4583 584.9613 778.3183 579.1012 778.3183 569.3313V514.6513C778.3183 504.8813 772.4583 499.0213 763.6683 499.0213H728.5183C719.2383 499.0213 713.8683 504.8813 713.8683 514.6513V569.3313C713.8683 579.1012 719.2383 584.9613 728.5183 584.9613Z"/>
</svg>