<?xml version="1.0" encoding="UTF-8" standalone="no"?>
<svg xmlns="http://www.w3.org/2000/svg"
     width="1573.3642578125" height="771.484375"
     viewBox="0 0 1573.3642578125 771.484375"
     fill="currentColor">
  <path d="M497.6804 771.4813H1420.0404C1521.6104 771.4813 1573.3604 720.7013 1573.3604 620.1213V150.8813C1573.3604 50.7813 1521.6104 0.0013 1420.0404 0.0013H497.6804C395.1404 0.0013 344.3604 50.2912 344.3604 150.8813V620.1213C344.3604 720.7013 395.1404 771.4813 497.6804 771.4813ZM150.5104 613.7713C185.6704 662.6012 246.2204 616.7013 217.4104 576.1713L81.6604 385.2513L217.4104 195.3112C246.2204 155.2713 185.6704 108.8913 150.5104 157.7112L11.3504 351.0713C-3.7796 372.5612 -3.7796 398.9213 11.3504 419.9213ZM529.9104 268.5513C515.7504 268.5513 507.4504 259.7613 507.4504 246.0913V199.7112C507.4504 186.0313 515.7504 177.2413 529.9104 177.2413H575.8104C589.9704 177.2413 598.7504 186.0313 598.7504 199.7112V246.0913C598.7504 259.7613 589.9704 268.5513 575.8104 268.5513ZM691.5304 268.5513C677.3704 268.5513 669.0704 259.7613 669.0704 246.0913V199.7112C669.0704 186.0313 677.3704 177.2413 691.5304 177.2413H737.9104C752.0704 177.2413 760.8604 186.0313 760.8604 199.7112V246.0913C760.8604 259.7613 752.0704 268.5513 737.9104 268.5513ZM853.6404 268.5513C839.9704 268.5513 831.1804 259.7613 831.1804 246.0913V199.7112C831.1804 186.0313 839.9704 177.2413 853.6404 177.2413H899.5404C913.7004 177.2413 922.4904 186.0313 922.4904 199.7112V246.0913C922.4904 259.7613 913.7004 268.5513 899.5404 268.5513ZM1016.2404 268.5513C1002.0704 268.5513 993.2904 259.7613 993.2904 246.0913V199.7112C993.2904 186.0313 1002.0704 177.2413 1016.2404 177.2413H1062.1304C1075.8104 177.2413 1084.5904 186.0313 1084.5904 199.7112V246.0913C1084.5904 259.7613 1075.8104 268.5513 1062.1304 268.5513ZM1177.8604 268.5513C1163.7004 268.5513 1154.9104 259.7613 1154.9104 246.0913V199.7112C1154.9104 186.0313 1163.7004 177.2413 1177.8604 177.2413H1224.2404C1237.9104 177.2413 1246.7004 186.0313 1246.7004 199.7112V246.0913C1246.7004 259.7613 1237.9104 268.5513 1224.2404 268.5513ZM1339.9704 268.5513C1325.8104 268.5513 1317.0204 259.7613 1317.0204 246.0913V199.7112C1317.0204 186.0313 1325.8104 177.2413 1339.9704 177.2413H1385.8604C1400.0204 177.2413 1408.3204 186.0313 1408.3204 199.7112V246.0913C1408.3204 259.7613 1400.0204 268.5513 1385.8604 268.5513ZM529.9104 430.6613C515.7504 430.6613 507.4504 421.8713 507.4504 408.2013V361.8213C507.4504 348.1413 515.7504 339.3513 529.9104 339.3513H575.8104C589.9704 339.3513 598.7504 348.1413 598.7504 361.8213V408.2013C598.7504 421.8713 589.9704 430.6613 575.8104 430.6613ZM691.5304 430.6613C677.3704 430.6613 669.0704 421.8713 669.0704 408.2013V361.8213C669.0704 348.1413 677.3704 339.3513 691.5304 339.3513H737.9104C752.0704 339.3513 760.8604 348.1413 760.8604 361.8213V408.2013C760.8604 421.8713 752.0704 430.6613 737.9104 430.6613ZM853.6404 430.6613C839.9704 430.6613 831.1804 421.8713 831.1804 408.2013V361.8213C831.1804 348.1413 839.9704 339.3513 853.6404 339.3513H899.5404C913.7004 339.3513 922.4904 348.1413 922.4904 361.8213V408.2013C922.4904 421.8713 913.7004 430.6613 899.5404 430.6613ZM1016.2404 430.6613C1002.0704 430.6613 993.2904 421.8713 993.2904 408.2013V361.8213C993.2904 348.1413 1002.0704 339.3513 1016.2404 339.3513H1062.1304C1075.8104 339.3513 1084.5904 348.1413 1084.5904 361.8213V408.2013C1084.5904 421.8713 1075.8104 430.6613 1062.1304 430.6613ZM1177.8604 430.6613C1163.7004 430.6613 1154.9104 421.8713 1154.9104 408.2013V361.8213C1154.9104 348.1413 1163.7004 339.3513 1177.8604 339.3513H1224.2404C1237.9104 339.3513 1246.7004 348.1413 1246.7004 361.8213V408.2013C1246.7004 421.8713 1237.9104 430.6613 1224.2404 430.6613ZM1339.9704 430.6613C1325.8104 430.6613 1317.0204 421.8713 1317.0204 408.2013V361.8213C1317.0204 348.1413 1325.8104 339.3513 1339.9704 339.3513H1385.8604C1400.0204 339.3513 1408.3204 348.1413 1408.3204 361.8213V408.2013C1408.3204 421.8713 1400.0204 430.6613 1385.8604 430.6613ZM529.9104 592.7713C515.7504 592.7713 507.4504 583.9813 507.4504 570.3113V523.9213C507.4504 510.2513 515.7504 501.4613 529.9104 501.4613H575.8104C589.9704 501.4613 598.7504 510.2513 598.7504 523.9213V570.3113C598.7504 583.9813 589.9704 592.7713 575.8104 592.7713ZM696.9004 592.7713C679.3204 592.7713 669.0704 582.5213 669.0704 564.9413V528.8113C669.0704 511.7213 679.3204 501.4613 696.9004 501.4613H1218.8704C1235.9604 501.4613 1246.7004 511.7213 1246.7004 528.8113V564.9413C1246.7004 582.5213 1235.9604 592.7713 1218.8704 592.7713ZM1339.9704 592.7713C1325.8104 592.7713 1317.0204 583.9813 1317.0204 570.3113V523.9213C1317.0204 510.2513 1325.8104 501.4613 1339.9704 501.4613H1385.8604C1400.0204 501.4613 1408.3204 510.2513 1408.3204 523.9213V570.3113C1408.3204 583.9813 1400.0204 592.7713 1385.8604 592.7713Z"/>
</svg>