<?xml version="1.0" encoding="UTF-8" standalone="no"?>
<svg xmlns="http://www.w3.org/2000/svg"
     width="1229.00390625" height="771.484375"
     viewBox="0 0 1229.00390625 771.484375"
     fill="currentColor">
  <path d="M153.3183 771.4813H1075.6883C1177.2483 771.4813 1229.0083 720.7013 1229.0083 620.1213V150.8813C1229.0083 50.7813 1177.2483 0.0013 1075.6883 0.0013H153.3183C50.7783 0.0013 -0.0017 50.2912 -0.0017 150.8813V620.1213C-0.0017 720.7013 50.7783 771.4813 153.3183 771.4813ZM154.2983 692.8713C105.4683 692.8713 78.6183 666.5013 78.6183 615.7213V155.2713C78.6183 104.4913 105.4683 78.6113 154.2983 78.6113H1074.2183C1122.5583 78.6113 1150.3883 104.4913 1150.3883 155.2713V615.7213C1150.3883 666.5013 1122.5583 692.8713 1074.2183 692.8713ZM464.8483 270.9913H500.9783C509.7683 270.9913 515.1383 265.1413 515.1383 255.3712V200.6812C515.1383 190.9212 509.7683 185.0612 500.9783 185.0612H464.8483C456.0583 185.0612 450.6883 190.9212 450.6883 200.6812V255.3712C450.6883 265.1413 456.0583 270.9913 464.8483 270.9913ZM572.2683 270.9913H607.9083C616.6983 270.9913 622.0683 265.1413 622.0683 255.3712V200.6812C622.0683 190.9212 616.6983 185.0612 607.9083 185.0612H572.2683C563.4783 185.0612 557.6183 190.9212 557.6183 200.6812V255.3712C557.6183 265.1413 563.4783 270.9913 572.2683 270.9913ZM679.6883 270.9913H715.3283C723.6283 270.9913 729.4883 265.1413 729.4883 255.3712V200.6812C729.4883 190.9212 723.6283 185.0612 715.3283 185.0612H679.6883C670.4083 185.0612 665.0383 190.9212 665.0383 200.6812V255.3712C665.0383 265.1413 670.4083 270.9913 679.6883 270.9913ZM786.6183 270.9913H821.7783C831.0583 270.9913 836.4283 265.1413 836.4283 255.3712V200.6812C836.4283 190.9212 831.0583 185.0612 821.7783 185.0612H786.6183C777.3483 185.0612 771.9683 190.9212 771.9683 200.6812V255.3712C771.9683 265.1413 777.3483 270.9913 786.6183 270.9913ZM893.0683 270.9913H929.6883C937.9883 270.9913 943.8483 265.1413 943.8483 255.3712V200.6812C943.8483 190.9212 937.9883 185.0612 929.6883 185.0612H893.0683C884.7683 185.0612 879.3983 190.9212 879.3983 200.6812V255.3712C879.3983 265.1413 884.7683 270.9913 893.0683 270.9913ZM1000.9783 270.9913H1036.1283C1045.4083 270.9913 1050.7783 265.1413 1050.7783 255.3712V200.6812C1050.7783 190.9212 1045.4083 185.0612 1036.1283 185.0612H1000.9783C991.6983 185.0612 986.3283 190.9212 986.3283 200.6812V255.3712C986.3283 265.1413 991.6983 270.9913 1000.9783 270.9913ZM365.7183 358.4013L222.6583 222.1713C206.0583 206.5413 177.7383 212.8913 177.7383 238.7713V532.2313C177.7383 558.5912 206.0583 564.9413 222.6583 549.3213L365.7183 412.6013C383.7883 395.5113 383.7883 375.4913 365.7183 358.4013ZM464.8483 427.7313H500.9783C509.7683 427.7313 515.1383 422.3613 515.1383 412.1113V357.9113C515.1383 347.6513 509.7683 342.2813 500.9783 342.2813H464.8483C456.0583 342.2813 450.6883 347.6513 450.6883 357.9113V412.1113C450.6883 422.3613 456.0583 427.7313 464.8483 427.7313ZM572.2683 427.7313H607.9083C616.6983 427.7313 622.0683 422.3613 622.0683 412.1113V357.9113C622.0683 347.6513 616.6983 342.2813 607.9083 342.2813H572.2683C563.4783 342.2813 557.6183 347.6513 557.6183 357.9113V412.1113C557.6183 422.3613 563.4783 427.7313 572.2683 427.7313ZM679.6883 427.7313H715.3283C723.6283 427.7313 729.4883 422.3613 729.4883 412.1113V357.9113C729.4883 347.6513 723.6283 342.2813 715.3283 342.2813H679.6883C670.4083 342.2813 665.0383 347.6513 665.0383 357.9113V412.1113C665.0383 422.3613 670.4083 427.7313 679.6883 427.7313ZM786.6183 427.7313H821.7783C831.0583 427.7313 836.4283 422.3613 836.4283 412.1113V357.9113C836.4283 347.6513 831.0583 342.2813 821.7783 342.2813H786.6183C777.3483 342.2813 771.9683 347.6513 771.9683 357.9113V412.1113C771.9683 422.3613 777.3483 427.7313 786.6183 427.7313ZM893.0683 427.7313H929.6883C937.9883 427.7313 943.8483 422.3613 943.8483 412.1113V357.9113C943.8483 347.6513 937.9883 342.2813 929.6883 342.2813H893.0683C884.7683 342.2813 879.3983 347.6513 879.3983 357.9113V412.1113C879.3983 422.3613 884.7683 427.7313 893.0683 427.7313ZM1000.9783 427.7313H1036.1283C1045.4083 427.7313 1050.7783 422.3613 1050.7783 412.1113V357.9113C1050.7783 347.6513 1045.4083 342.2813 1036.1283 342.2813H1000.9783C991.6983 342.2813 986.3283 347.6513 986.3283 357.9113V412.1113C986.3283 422.3613 991.6983 427.7313 1000.9783 427.7313ZM464.8483 584.9613H500.9783C509.7683 584.9613 515.1383 579.1012 515.1383 569.3313V514.6513C515.1383 504.8813 509.7683 499.0213 500.9783 499.0213H464.8483C456.0583 499.0213 450.6883 504.8813 450.6883 514.6513V569.3313C450.6883 579.1012 456.0583 584.9613 464.8483 584.9613ZM572.2683 584.9613H929.6883C937.9883 584.9613 943.8483 579.1012 943.8483 569.3313V514.6513C943.8483 504.8813 937.9883 499.0213 929.6883 499.0213H572.2683C563.4783 499.0213 557.6183 504.8813 557.6183 514.6513V569.3313C557.6183 579.1012 563.4783 584.9613 572.2683 584.9613ZM1000.9783 584.9613H1036.1283C1045.4083 584.9613 1050.7783 579.1012 1050.7783 569.3313V514.6513C1050.7783 504.8813 1045.4083 499.0213 1036.1283 499.0213H1000.9783C991.6983 499.0213 986.3283 504.8813 986.3283 514.6513V569.3313C986.3283 579.1012 991.6983 584.9613 1000.9783 584.9613Z"/>
</svg>