<?xml version="1.0" encoding="UTF-8" standalone="no"?>
<svg xmlns="http://www.w3.org/2000/svg"
     width="1573.3642578125" height="771.484375"
     viewBox="0 0 1573.3642578125 771.484375"
     fill="currentColor">
  <path d="M497.6804 771.4813H1420.0404C1521.6104 771.4813 1573.3604 720.7013 1573.3604 620.1213V150.8813C1573.3604 50.7813 1521.6104 0.0013 1420.0404 0.0013H497.6804C395.1404 0.0013 344.3604 50.2912 344.3604 150.8813V620.1213C344.3604 720.7013 395.1404 771.4813 497.6804 771.4813ZM498.6604 692.8713C450.3204 692.8713 422.9704 666.5013 422.9704 615.7213V155.2713C422.9704 104.4913 450.3204 78.6113 498.6604 78.6113H1418.5804C1466.9204 78.6113 1494.7504 104.4913 1494.7504 155.2713V615.7213C1494.7504 666.5013 1466.9204 692.8713 1418.5804 692.8713ZM150.5104 613.7713C185.6704 662.6012 246.2204 616.7013 217.4104 576.1713L81.6604 385.2513L217.4104 195.3112C246.2204 155.2713 185.6704 108.8913 150.5104 157.7112L11.3504 351.0713C-3.7796 372.5612 -3.7796 398.9213 11.3504 419.9213ZM543.0904 271.9713H587.5204C601.2004 271.9713 609.5004 263.6713 609.5004 250.4913V205.5712C609.5004 191.8913 601.2004 183.5912 587.5204 183.5912H543.0904C529.4204 183.5912 521.1204 191.8913 521.1204 205.5712V250.4913C521.1204 263.6713 529.4204 271.9713 543.0904 271.9713ZM699.8304 271.9713H744.7504C758.4204 271.9713 766.7204 263.6713 766.7204 250.4913V205.5712C766.7204 191.8913 758.4204 183.5912 744.7504 183.5912H699.8304C686.1604 183.5912 677.8604 191.8913 677.8604 205.5712V250.4913C677.8604 263.6713 686.1604 271.9713 699.8304 271.9713ZM857.0604 271.9713H901.4904C915.1604 271.9713 923.4604 263.6713 923.4604 250.4913V205.5712C923.4604 191.8913 915.1604 183.5912 901.4904 183.5912H857.0604C843.3804 183.5912 835.0804 191.8913 835.0804 205.5712V250.4913C835.0804 263.6713 843.3804 271.9713 857.0604 271.9713ZM1014.2804 271.9713H1058.7204C1072.3904 271.9713 1080.6904 263.6713 1080.6904 250.4913V205.5712C1080.6904 191.8913 1072.3904 183.5912 1058.7204 183.5912H1014.2804C1000.6104 183.5912 992.3104 191.8913 992.3104 205.5712V250.4913C992.3104 263.6713 1000.6104 271.9713 1014.2804 271.9713ZM1171.0204 271.9713H1215.9404C1229.1304 271.9713 1237.9104 263.6713 1237.9104 250.4913V205.5712C1237.9104 191.8913 1229.1304 183.5912 1215.9404 183.5912H1171.0204C1157.3504 183.5912 1149.0504 191.8913 1149.0504 205.5712V250.4913C1149.0504 263.6713 1157.3504 271.9713 1171.0204 271.9713ZM1328.2504 271.9713H1372.6804C1386.3504 271.9713 1394.6504 263.6713 1394.6504 250.4913V205.5712C1394.6504 191.8913 1386.3504 183.5912 1372.6804 183.5912H1328.2504C1314.5704 183.5912 1306.2704 191.8913 1306.2704 205.5712V250.4913C1306.2704 263.6713 1314.5704 271.9713 1328.2504 271.9713ZM543.0904 429.2013H587.5204C601.2004 429.2013 609.5004 420.9013 609.5004 407.2313V362.7913C609.5004 349.1212 601.2004 340.8213 587.5204 340.8213H543.0904C529.4204 340.8213 521.1204 349.1212 521.1204 362.7913V407.2313C521.1204 420.9013 529.4204 429.2013 543.0904 429.2013ZM699.8304 429.2013H744.7504C758.4204 429.2013 766.7204 420.9013 766.7204 407.2313V362.7913C766.7204 349.1212 758.4204 340.8213 744.7504 340.8213H699.8304C686.1604 340.8213 677.8604 349.1212 677.8604 362.7913V407.2313C677.8604 420.9013 686.1604 429.2013 699.8304 429.2013ZM857.0604 429.2013H901.4904C915.1604 429.2013 923.4604 420.9013 923.4604 407.2313V362.7913C923.4604 349.1212 915.1604 340.8213 901.4904 340.8213H857.0604C843.3804 340.8213 835.0804 349.1212 835.0804 362.7913V407.2313C835.0804 420.9013 843.3804 429.2013 857.0604 429.2013ZM1014.2804 429.2013H1058.7204C1072.3904 429.2013 1080.6904 420.9013 1080.6904 407.2313V362.7913C1080.6904 349.1212 1072.3904 340.8213 1058.7204 340.8213H1014.2804C1000.6104 340.8213 992.3104 349.1212 992.3104 362.7913V407.2313C992.3104 420.9013 1000.6104 429.2013 1014.2804 429.2013ZM1171.0204 429.2013H1215.9404C1229.1304 429.2013 1237.9104 420.9013 1237.9104 407.2313V362.7913C1237.9104 349.1212 1229.1304 340.8213 1215.9404 340.8213H1171.0204C1157.3504 340.8213 1149.0504 349.1212 1149.0504 362.7913V407.2313C1149.0504 420.9013 1157.3504 429.2013 1171.0204 429.2013ZM1328.2504 429.2013H1372.6804C1386.3504 429.2013 1394.6504 420.9013 1394.6504 407.2313V362.7913C1394.6504 349.1212 1386.3504 340.8213 1372.6804 340.8213H1328.2504C1314.5704 340.8213 1306.2704 349.1212 1306.2704 362.7913V407.2313C1306.2704 420.9013 1314.5704 429.2013 1328.2504 429.2013ZM543.0904 586.4213H587.5204C601.2004 586.4213 609.5004 578.1213 609.5004 564.4513V519.5313C609.5004 506.3513 601.2004 498.0513 587.5204 498.0513H543.0904C529.4204 498.0513 521.1204 506.3513 521.1204 519.5313V564.4513C521.1204 578.1213 529.4204 586.4213 543.0904 586.4213ZM704.7104 586.4213H1211.0604C1227.6604 586.4213 1237.9104 576.6613 1237.9104 559.5713V524.4113C1237.9104 507.8113 1227.6604 498.0513 1211.0604 498.0513H704.7104C687.6204 498.0513 677.8604 507.8113 677.8604 524.4113V559.5713C677.8604 576.6613 687.6204 586.4213 704.7104 586.4213ZM1328.2504 586.4213H1372.6804C1386.3504 586.4213 1394.6504 578.1213 1394.6504 564.4513V519.5313C1394.6504 506.3513 1386.3504 498.0513 1372.6804 498.0513H1328.2504C1314.5704 498.0513 1306.2704 506.3513 1306.2704 519.5313V564.4513C1306.2704 578.1213 1314.5704 586.4213 1328.2504 586.4213Z"/>
</svg>