<?xml version="1.0" encoding="UTF-8" standalone="no"?>
<svg xmlns="http://www.w3.org/2000/svg"
     width="1229.00390625" height="771.484375"
     viewBox="0 0 1229.00390625 771.484375"
     fill="currentColor">
  <path d="M153.3183 771.4813H1075.6883C1177.2483 771.4813 1229.0083 720.7013 1229.0083 620.1213V150.8813C1229.0083 50.7813 1177.2483 0.0013 1075.6883 0.0013H153.3183C50.7783 0.0013 -0.0017 50.2912 -0.0017 150.8813V620.1213C-0.0017 720.7013 50.7783 771.4813 153.3183 771.4813ZM179.1983 267.5813C169.9183 267.5813 164.0583 261.2313 164.0583 251.4613V194.8212C164.0583 184.5712 169.9183 178.7112 179.1983 178.7112H216.3083C225.0983 178.7112 230.4683 184.5712 230.4683 194.8212V251.4613C230.4683 261.2313 225.0983 267.5813 216.3083 267.5813ZM290.0383 267.5813C280.2783 267.5813 274.8983 261.2313 274.8983 251.4613V194.8212C274.8983 184.5712 280.2783 178.7112 290.0383 178.7112H326.6583C335.9383 178.7112 341.3083 184.5712 341.3083 194.8212V251.4613C341.3083 261.2313 335.9383 267.5813 326.6583 267.5813ZM400.3883 267.5813C391.1183 267.5813 385.2583 261.2313 385.2583 251.4613V194.8212C385.2583 184.5712 391.1183 178.7112 400.3883 178.7112H437.4983C446.2883 178.7112 451.6583 184.5712 451.6583 194.8212V251.4613C451.6583 261.2313 446.2883 267.5813 437.4983 267.5813ZM510.7383 267.5813C501.4683 267.5813 496.0983 261.2313 496.0983 251.4613V194.8212C496.0983 184.5712 501.4683 178.7112 510.7383 178.7112H547.3683C556.6383 178.7112 562.4983 184.5712 562.4983 194.8212V251.4613C562.4983 261.2313 556.6383 267.5813 547.3683 267.5813ZM620.6083 267.5813C611.8183 267.5813 605.9583 261.2313 605.9583 251.4613V194.8212C605.9583 184.5712 611.8183 178.7112 620.6083 178.7112H658.6883C666.9883 178.7112 672.8483 184.5712 672.8483 194.8212V251.4613C672.8483 261.2313 666.9883 267.5813 658.6883 267.5813ZM731.9383 267.5813C722.6583 267.5813 716.7983 261.2313 716.7983 251.4613V194.8212C716.7983 184.5712 722.6583 178.7112 731.9383 178.7112H768.5583C777.3483 178.7112 783.6883 184.5712 783.6883 194.8212V251.4613C783.6883 261.2313 777.3483 267.5813 768.5583 267.5813ZM868.6483 357.4213L1016.1183 217.2813C1033.1983 201.1712 1062.4983 207.5213 1062.4983 234.3712V536.6213C1062.4983 563.9613 1033.1983 570.3113 1016.1183 554.2013L868.6483 413.5713C850.0983 395.9913 850.0983 375.0013 868.6483 357.4213ZM179.1983 429.2013C169.9183 429.2013 164.0583 423.8313 164.0583 413.0813V356.9313C164.0583 346.1913 169.9183 340.8213 179.1983 340.8213H216.3083C225.0983 340.8213 230.4683 346.1913 230.4683 356.9313V413.0813C230.4683 423.8313 225.0983 429.2013 216.3083 429.2013ZM290.0383 429.2013C280.2783 429.2013 274.8983 423.8313 274.8983 413.0813V356.9313C274.8983 346.1913 280.2783 340.8213 290.0383 340.8213H326.6583C335.9383 340.8213 341.3083 346.1913 341.3083 356.9313V413.0813C341.3083 423.8313 335.9383 429.2013 326.6583 429.2013ZM400.3883 429.2013C391.1183 429.2013 385.2583 423.8313 385.2583 413.0813V356.9313C385.2583 346.1913 391.1183 340.8213 400.3883 340.8213H437.4983C446.2883 340.8213 451.6583 346.1913 451.6583 356.9313V413.0813C451.6583 423.8313 446.2883 429.2013 437.4983 429.2013ZM510.7383 429.2013C501.4683 429.2013 496.0983 423.8313 496.0983 413.0813V356.9313C496.0983 346.1913 501.4683 340.8213 510.7383 340.8213H547.3683C556.6383 340.8213 562.4983 346.1913 562.4983 356.9313V413.0813C562.4983 423.8313 556.6383 429.2013 547.3683 429.2013ZM620.6083 429.2013C611.8183 429.2013 605.9583 423.8313 605.9583 413.0813V356.9313C605.9583 346.1913 611.8183 340.8213 620.6083 340.8213H658.6883C666.9883 340.8213 672.8483 346.1913 672.8483 356.9313V413.0813C672.8483 423.8313 666.9883 429.2013 658.6883 429.2013ZM731.9383 429.2013C722.6583 429.2013 716.7983 423.8313 716.7983 413.0813V356.9313C716.7983 346.1913 722.6583 340.8213 731.9383 340.8213H768.5583C777.3483 340.8213 783.6883 346.1913 783.6883 356.9313V413.0813C783.6883 423.8313 777.3483 429.2013 768.5583 429.2013ZM179.1983 591.3113C169.9183 591.3113 164.0583 585.4513 164.0583 575.1913V518.5513C164.0583 508.7913 169.9183 502.4413 179.1983 502.4413H216.3083C225.0983 502.4413 230.4683 508.7913 230.4683 518.5513V575.1913C230.4683 585.4513 225.0983 591.3113 216.3083 591.3113ZM290.0383 591.3113C280.2783 591.3113 274.8983 585.4513 274.8983 575.1913V518.5513C274.8983 508.7913 280.2783 502.4413 290.0383 502.4413H658.6883C666.9883 502.4413 672.8483 508.7913 672.8483 518.5513V575.1913C672.8483 585.4513 666.9883 591.3113 658.6883 591.3113ZM731.9383 591.3113C722.6583 591.3113 716.7983 585.4513 716.7983 575.1913V518.5513C716.7983 508.7913 722.6583 502.4413 731.9383 502.4413H768.5583C777.3483 502.4413 783.6883 508.7913 783.6883 518.5513V575.1913C783.6883 585.4513 777.3483 591.3113 768.5583 591.3113Z"/>
</svg>