<?xml version="1.0" encoding="UTF-8" standalone="no"?>
<svg xmlns="http://www.w3.org/2000/svg"
     width="1229.00390625" height="771.484375"
     viewBox="0 0 1229.00390625 771.484375"
     fill="currentColor">
  <path d="M153.3183 771.4813H1075.6883C1177.2483 771.4813 1229.0083 720.7013 1229.0083 620.1213V150.8813C1229.0083 50.7813 1177.2483 0.0013 1075.6883 0.0013H153.3183C50.7783 0.0013 -0.0017 50.2912 -0.0017 150.8813V620.1213C-0.0017 720.7013 50.7783 771.4813 153.3183 771.4813ZM154.2983 692.8713C105.4683 692.8713 78.6183 666.5013 78.6183 615.7213V155.2713C78.6183 104.4913 105.4683 78.6113 154.2983 78.6113H1074.2183C1122.5583 78.6113 1150.3883 104.4913 1150.3883 155.2713V615.7213C1150.3883 666.5013 1122.5583 692.8713 1074.2183 692.8713ZM198.2383 271.9713H243.1683C256.8383 271.9713 265.1383 263.6713 265.1383 250.4913V205.5712C265.1383 191.8913 256.8383 183.5912 243.1683 183.5912H198.2383C185.0583 183.5912 176.7583 191.8913 176.7583 205.5712V250.4913C176.7583 263.6713 185.0583 271.9713 198.2383 271.9713ZM355.4683 271.9713H400.3883C413.5783 271.9713 421.8783 263.6713 421.8783 250.4913V205.5712C421.8783 191.8913 413.5783 183.5912 400.3883 183.5912H355.4683C341.7983 183.5912 333.4983 191.8913 333.4983 205.5712V250.4913C333.4983 263.6713 341.7983 271.9713 355.4683 271.9713ZM512.6983 271.9713H557.1283C570.7983 271.9713 579.0983 263.6713 579.0983 250.4913V205.5712C579.0983 191.8913 570.7983 183.5912 557.1283 183.5912H512.6983C499.0283 183.5912 490.7183 191.8913 490.7183 205.5712V250.4913C490.7183 263.6713 499.0283 271.9713 512.6983 271.9713ZM669.4383 271.9713H714.3583C728.0283 271.9713 736.3283 263.6713 736.3283 250.4913V205.5712C736.3283 191.8913 728.0283 183.5912 714.3583 183.5912H669.4383C656.2483 183.5912 647.9483 191.8913 647.9483 205.5712V250.4913C647.9483 263.6713 656.2483 271.9713 669.4383 271.9713ZM826.6583 271.9713H871.5783C884.7683 271.9713 893.0683 263.6713 893.0683 250.4913V205.5712C893.0683 191.8913 884.7683 183.5912 871.5783 183.5912H826.6583C812.9883 183.5912 804.6883 191.8913 804.6883 205.5712V250.4913C804.6883 263.6713 812.9883 271.9713 826.6583 271.9713ZM983.8883 271.9713H1028.3183C1041.9883 271.9713 1050.2883 263.6713 1050.2883 250.4913V205.5712C1050.2883 191.8913 1041.9883 183.5912 1028.3183 183.5912H983.8883C970.2183 183.5912 961.9183 191.8913 961.9183 205.5712V250.4913C961.9183 263.6713 970.2183 271.9713 983.8883 271.9713ZM198.2383 429.2013H243.1683C256.8383 429.2013 265.1383 420.9013 265.1383 407.2313V362.7913C265.1383 349.1212 256.8383 340.8213 243.1683 340.8213H198.2383C185.0583 340.8213 176.7583 349.1212 176.7583 362.7913V407.2313C176.7583 420.9013 185.0583 429.2013 198.2383 429.2013ZM355.4683 429.2013H400.3883C413.5783 429.2013 421.8783 420.9013 421.8783 407.2313V362.7913C421.8783 349.1212 413.5783 340.8213 400.3883 340.8213H355.4683C341.7983 340.8213 333.4983 349.1212 333.4983 362.7913V407.2313C333.4983 420.9013 341.7983 429.2013 355.4683 429.2013ZM512.6983 429.2013H557.1283C570.7983 429.2013 579.0983 420.9013 579.0983 407.2313V362.7913C579.0983 349.1212 570.7983 340.8213 557.1283 340.8213H512.6983C499.0283 340.8213 490.7183 349.1212 490.7183 362.7913V407.2313C490.7183 420.9013 499.0283 429.2013 512.6983 429.2013ZM669.4383 429.2013H714.3583C728.0283 429.2013 736.3283 420.9013 736.3283 407.2313V362.7913C736.3283 349.1212 728.0283 340.8213 714.3583 340.8213H669.4383C656.2483 340.8213 647.9483 349.1212 647.9483 362.7913V407.2313C647.9483 420.9013 656.2483 429.2013 669.4383 429.2013ZM826.6583 429.2013H871.5783C884.7683 429.2013 893.0683 420.9013 893.0683 407.2313V362.7913C893.0683 349.1212 884.7683 340.8213 871.5783 340.8213H826.6583C812.9883 340.8213 804.6883 349.1212 804.6883 362.7913V407.2313C804.6883 420.9013 812.9883 429.2013 826.6583 429.2013ZM983.8883 429.2013H1028.3183C1041.9883 429.2013 1050.2883 420.9013 1050.2883 407.2313V362.7913C1050.2883 349.1212 1041.9883 340.8213 1028.3183 340.8213H983.8883C970.2183 340.8213 961.9183 349.1212 961.9183 362.7913V407.2313C961.9183 420.9013 970.2183 429.2013 983.8883 429.2013ZM198.2383 586.4213H243.1683C256.8383 586.4213 265.1383 578.1213 265.1383 564.4513V519.5313C265.1383 506.3513 256.8383 498.0513 243.1683 498.0513H198.2383C185.0583 498.0513 176.7583 506.3513 176.7583 519.5313V564.4513C176.7583 578.1213 185.0583 586.4213 198.2383 586.4213ZM360.3483 586.4213H866.6983C883.2983 586.4213 893.0683 576.6613 893.0683 559.5713V524.4113C893.0683 507.8113 883.2983 498.0513 866.6983 498.0513H360.3483C343.2583 498.0513 333.4983 507.8113 333.4983 524.4113V559.5713C333.4983 576.6613 343.2583 586.4213 360.3483 586.4213ZM983.8883 586.4213H1028.3183C1041.9883 586.4213 1050.2883 578.1213 1050.2883 564.4513V519.5313C1050.2883 506.3513 1041.9883 498.0513 1028.3183 498.0513H983.8883C970.2183 498.0513 961.9183 506.3513 961.9183 519.5313V564.4513C961.9183 578.1213 970.2183 586.4213 983.8883 586.4213Z"/>
</svg>