<?xml version="1.0" encoding="UTF-8" standalone="no"?>
<svg xmlns="http://www.w3.org/2000/svg"
     width="675.78125" height="895.01953125"
     viewBox="0 0 675.78125 895.01953125"
     fill="currentColor">
  <path d="M145.0183 895.0219C172.3683 895.0219 191.4083 875.9719 191.4083 847.1719V476.0719H257.3283L572.2683 872.5619C585.4483 888.6719 597.1683 895.0219 611.3283 895.0219C634.7683 895.0219 654.2983 876.9519 654.2983 854.0019C654.2983 844.2419 650.3883 832.5219 641.5983 821.7819L362.7883 476.0719H644.0383C662.1083 476.0719 675.7783 461.9119 675.7783 444.3319C675.7783 425.7819 662.1083 412.6019 644.0383 412.6019H363.2783L641.5983 72.2619C649.8983 62.0119 653.8083 50.2919 653.8083 41.0119C653.8083 18.0619 635.2583 0.0019 611.3283 0.0019C597.1683 0.0019 584.9583 6.3519 571.7783 22.9519L257.8083 412.6019H191.4083V46.3819C191.4083 17.5819 172.3683 0.0019 145.0183 0.0019C116.6983 0.0019 98.1483 17.5819 98.1483 46.3819V412.6019H31.2483C13.1883 412.6019 -0.0017 425.7819 -0.0017 444.3319C-0.0017 461.9119 13.6683 476.0719 31.2483 476.0719H98.1483V847.1719C98.1483 875.9719 116.6983 895.0219 145.0183 895.0219Z"/>
</svg>