<?xml version="1.0" encoding="UTF-8" standalone="no"?>
<svg xmlns="http://www.w3.org/2000/svg"
     width="996.09375" height="996.09375"
     viewBox="0 0 996.09375 996.09375"
     fill="currentColor">
  <path d="M498.0477 996.0959C770.5077 996.0959 996.0977 770.0159 996.0977 498.0459C996.0977 225.5859 770.0177 -0.0041 497.5577 -0.0041C225.5877 -0.0041 -0.0023 225.5859 -0.0023 498.0459C-0.0023 770.0159 226.0777 996.0959 498.0477 996.0959ZM498.0477 913.0859C267.5777 913.0859 83.4977 728.5159 83.4977 498.0459C83.4977 267.5759 267.0877 83.0059 497.5577 83.0059C728.0277 83.0059 913.0877 267.5759 913.0877 498.0459C913.0877 728.5159 728.5177 913.0859 498.0477 913.0859ZM309.0777 502.9259C309.0777 516.1159 319.3377 527.3459 332.5177 527.3459H363.7677V708.4959C363.7677 728.0259 376.9577 740.2359 395.5077 740.2359C414.0577 740.2359 426.7577 728.0259 426.7577 708.4959V527.3459H449.7077L607.4177 725.5859C615.7277 736.3259 624.0277 740.2359 633.2977 740.2359C649.8977 740.2359 663.0877 727.5359 663.0877 711.4259C663.0877 705.0759 660.6477 697.2659 655.2777 689.9459L523.9277 527.3459H649.8977C664.0577 527.3459 673.8277 516.1159 673.8277 502.9259C673.8277 488.7659 664.0577 479.0059 649.8977 479.0059H523.4377L654.7877 317.8759C660.1577 311.0359 663.0877 303.2259 663.0877 296.8759C663.0877 280.7659 650.3877 268.0659 633.2977 268.0659C624.0277 268.0659 615.7277 271.9759 607.4177 283.2059L449.2177 479.0059H426.7577V300.7859C426.7577 280.7659 414.5477 269.0459 395.5077 269.0459C376.4677 269.0459 363.7677 280.7659 363.7677 300.7859V479.0059H332.5177C319.3377 479.0059 309.0777 488.7659 309.0777 502.9259Z"/>
</svg>