<?xml version="1.0" encoding="UTF-8" standalone="no"?>
<svg xmlns="http://www.w3.org/2000/svg"
     width="996.09375" height="996.09375"
     viewBox="0 0 996.09375 996.09375"
     fill="currentColor">
  <path d="M498.0477 996.0959C770.5077 996.0959 996.0977 770.0159 996.0977 498.0459C996.0977 225.5859 770.0177 -0.0041 497.5577 -0.0041C225.5877 -0.0041 -0.0023 225.5859 -0.0023 498.0459C-0.0023 770.0159 226.0777 996.0959 498.0477 996.0959ZM303.7077 502.9259C303.7077 488.2859 314.4577 478.0259 327.6377 478.0259H359.8677V294.4359C359.8677 273.4359 373.0477 261.2259 393.0677 261.2259C412.5977 261.2259 425.2977 273.4359 425.2977 294.4359V478.0259H448.2377L611.3277 276.3659C620.1177 264.6459 628.9077 260.2559 638.1877 260.2559C656.2477 260.2559 669.4377 273.4359 669.4377 290.5259C669.4377 296.8759 666.0177 305.1759 660.6477 312.0159L525.3877 478.0259H655.7577C670.4077 478.0259 680.1777 488.2859 680.1777 502.9259C680.1777 516.6059 670.4077 528.3159 655.7577 528.3159H525.8777L661.1377 695.7959C666.5077 703.1259 669.4377 711.4259 669.4377 717.7759C669.4377 734.8659 655.7577 748.0459 638.1877 748.0459C628.9077 748.0459 620.1177 743.6559 611.3277 732.4259L449.2177 528.3159H425.2977V714.8459C425.2977 735.3559 412.1077 748.0459 393.0677 748.0459C373.5377 748.0459 359.8677 735.3559 359.8677 714.8459V528.3159H327.6377C314.4577 528.3159 303.7077 516.6059 303.7077 502.9259Z"/>
</svg>