<?xml version="1.0" encoding="UTF-8" standalone="no"?>
<svg xmlns="http://www.w3.org/2000/svg"
     width="898.92578125" height="898.92578125"
     viewBox="0 0 898.92578125 898.92578125"
     fill="currentColor">
  <path d="M153.3183 898.9295H745.6083C848.1483 898.9295 898.9283 848.1495 898.9283 747.5595V151.3695C898.9283 50.7795 848.1483 -0.0005 745.6083 -0.0005H153.3183C51.2683 -0.0005 -0.0017 50.2895 -0.0017 151.3695V747.5595C-0.0017 848.6295 51.2683 898.9295 153.3183 898.9295ZM154.2983 820.3095C105.4683 820.3095 78.6183 794.4295 78.6183 743.6495V155.2695C78.6183 104.4895 105.4683 78.6095 154.2983 78.6095H744.6283C792.9683 78.6095 820.3083 104.4895 820.3083 155.2695V743.6495C820.3083 794.4295 792.9683 820.3095 744.6283 820.3095ZM261.2283 453.6095C261.2283 466.7995 271.4883 478.0295 285.1583 478.0295H315.9183V659.1795C315.9183 678.7095 329.0983 690.9195 347.6583 690.9195C366.2083 690.9195 378.9083 678.7095 378.9083 659.1795V478.0295H401.8583L559.5683 676.2695C567.8683 687.0095 576.1683 690.9195 585.4483 690.9195C602.0483 690.9195 615.7183 678.2195 615.7183 662.1095C615.7183 655.7595 612.7883 647.9495 607.4183 640.6295L476.0783 478.0295H602.0483C616.2083 478.0295 625.9783 466.7995 625.9783 453.6095C625.9783 439.4495 616.2083 429.6895 602.0483 429.6895H475.5883L606.9383 268.5595C612.7883 261.7195 615.2383 253.9095 615.2383 247.5595C615.2383 231.4495 602.5383 218.7495 585.9383 218.7495C576.1683 218.7495 567.8683 222.6595 559.5683 233.8895L401.3683 429.6895H378.9083V251.4695C378.9083 231.4495 366.6983 219.7295 347.6583 219.7295C328.6183 219.7295 315.9183 231.4495 315.9183 251.4695V429.6895H285.1583C271.4883 429.6895 261.2283 439.4495 261.2283 453.6095Z"/>
</svg>