<?xml version="1.0" encoding="UTF-8" standalone="no"?>
<svg xmlns="http://www.w3.org/2000/svg"
     width="996.09375" height="996.09375"
     viewBox="0 0 996.09375 996.09375"
     fill="currentColor">
  <path d="M498.0477 996.0959C770.5077 996.0959 996.0977 770.0159 996.0977 498.0459C996.0977 225.5859 770.0177 -0.0041 497.5577 -0.0041C225.5877 -0.0041 -0.0023 225.5859 -0.0023 498.0459C-0.0023 770.0159 226.0777 996.0959 498.0477 996.0959ZM498.0477 913.0859C267.5777 913.0859 83.4977 728.5159 83.4977 498.0459C83.4977 267.5759 267.0877 83.0059 497.5577 83.0059C728.0277 83.0059 913.0877 267.5759 913.0877 498.0459C913.0877 728.5159 728.5177 913.0859 498.0477 913.0859ZM221.6777 646.4859C241.6977 646.4859 251.9577 634.7659 251.9577 615.2359V559.5659L269.5277 526.3659L316.8977 622.0659C324.2177 637.6959 333.0077 646.4859 349.1177 646.4859C363.2777 646.4859 376.9577 635.2559 376.9577 618.1659C376.9577 609.8659 369.6277 592.7759 365.7277 585.4459L314.9377 486.8159L360.3477 406.2459C365.7277 396.4859 370.6077 387.6959 370.6077 375.9759C370.6077 361.8159 359.8677 349.1259 343.7477 349.1259C327.1477 349.1259 319.3377 360.3559 312.4977 374.5159L254.8877 483.3959H251.9577V380.3759C251.9577 361.3259 241.2077 349.1259 221.1877 349.1259C202.1477 349.1259 191.4077 361.8159 191.4077 380.3759V615.2359C191.4077 632.8159 200.1977 646.4859 221.6777 646.4859ZM650.8777 646.4859C672.3677 646.4859 681.1477 632.8159 681.1477 614.2559V520.5059H743.6477V614.2559C743.6477 634.7659 753.9077 646.4859 773.4377 646.4859C792.9677 646.4859 804.1977 636.2259 804.1977 614.2559V381.3459C804.1977 360.3559 793.9477 349.1259 773.4377 349.1259C754.3977 349.1259 743.6477 360.8359 743.6477 381.3459V471.1959H681.1477V381.3459C681.1477 361.3259 670.8977 349.1259 650.8777 349.1259C630.3677 349.1259 620.6077 360.8359 620.6077 381.3459V614.2559C620.6077 635.2559 630.3677 646.4859 650.8777 646.4859ZM439.9377 645.9959C459.9577 645.9959 470.2177 634.7659 470.2177 614.7459V550.7859H497.5577C552.2477 550.7859 581.5477 506.3459 581.5477 452.6359C581.5477 396.4859 553.2277 353.5159 501.9577 353.5159H439.9377C419.9177 353.5159 409.6677 365.2359 409.6677 385.2559V614.7459C409.6677 634.2759 420.4077 645.9959 439.9377 645.9959ZM470.2177 504.3959V400.8759H485.8377C514.1577 400.8759 521.4877 424.3159 521.4877 452.6359C521.4877 480.9559 513.6677 504.3959 485.3477 504.3959Z"/>
</svg>