<?xml version="1.0" encoding="UTF-8" standalone="no"?>
<svg xmlns="http://www.w3.org/2000/svg"
     width="996.09375" height="996.09375"
     viewBox="0 0 996.09375 996.09375"
     fill="currentColor">
  <path d="M498.0477 996.0959C770.5077 996.0959 996.0977 770.0159 996.0977 498.0459C996.0977 225.5859 770.0177 -0.0041 497.5577 -0.0041C225.5877 -0.0041 -0.0023 225.5859 -0.0023 498.0459C-0.0023 770.0159 226.0777 996.0959 498.0477 996.0959ZM213.8677 650.8759C191.4077 650.8759 182.1277 636.7159 182.1277 618.6559V377.4459C182.1277 357.9059 193.3577 344.7259 213.3777 344.7259C233.8877 344.7259 245.1177 357.4259 245.1177 377.4459V482.9059H248.0477L307.1277 371.0959C313.9677 356.4459 322.2677 344.7259 339.3577 344.7259C355.9577 344.7259 367.1877 357.9059 367.1877 372.5559C367.1877 384.7659 362.3077 393.5559 356.4477 403.8059L310.0577 486.3259L362.3077 587.4059C366.2077 595.2159 373.5377 612.7959 373.5377 621.5859C373.5377 639.1559 359.3777 650.8759 344.7277 650.8759C328.1277 650.8759 319.3377 641.6059 311.5277 625.4859L263.1877 527.3459L245.1177 561.5259V618.6559C245.1177 638.6759 234.3777 650.8759 213.8677 650.8759ZM656.2477 650.8759C634.7677 650.8759 624.9977 639.1559 624.9977 617.6759V377.9259C624.9977 356.9359 634.7677 344.7259 656.2477 344.7259C676.7577 344.7259 687.4977 357.4259 687.4977 377.9259V470.2159H751.4677V377.9259C751.4677 356.9359 762.6977 344.7259 782.2277 344.7259C803.7077 344.7259 814.4577 356.4459 814.4577 377.9259V617.6759C814.4577 640.1359 802.7377 650.8759 782.2277 650.8759C762.2077 650.8759 751.4677 638.6759 751.4677 617.6759V521.4859H687.4977V617.6759C687.4977 636.7159 678.7077 650.8759 656.2477 650.8759ZM438.9677 650.3859C418.4577 650.3859 407.2277 638.1859 407.2277 618.1659V382.3259C407.2277 361.3259 417.9677 349.1259 438.9677 349.1259H502.4377C555.6677 349.1259 584.9577 393.5559 584.9577 451.1759C584.9577 506.8359 554.6877 552.7359 498.0477 552.7359H470.2177V618.1659C470.2177 638.6759 459.4777 650.3859 438.9677 650.3859ZM470.2177 504.3959H485.3477C514.6477 504.3959 522.4577 480.4659 522.4577 451.1759C522.4577 422.3659 515.1377 398.4359 485.8377 398.4359H470.2177Z"/>
</svg>