<?xml version="1.0" encoding="UTF-8" standalone="no"?>
<svg xmlns="http://www.w3.org/2000/svg"
     width="1006.8359375" height="865.72265625"
     viewBox="0 0 1006.8359375 865.72265625"
     fill="currentColor">
  <path d="M503.4177 658.6944C808.1077 658.6944 1006.8377 523.9244 1006.8377 329.1044C1006.8377 134.7644 807.6177 0.0044 502.9277 0.0044C198.7277 0.0044 -0.0023 134.7644 -0.0023 329.1044C-0.0023 523.9244 198.7277 658.6944 503.4177 658.6944ZM503.4177 574.7044C254.8877 574.7044 88.3777 475.0944 88.3777 329.1044C88.3777 183.1044 254.8877 83.9844 502.9277 83.9844C751.4677 83.9844 918.4577 183.1044 918.4577 329.1044C918.4577 475.0944 751.9577 574.7044 503.4177 574.7044ZM435.0577 481.9344H585.4477C604.4877 481.9344 617.6777 468.7544 617.6777 450.6844C617.6777 431.6444 604.4877 418.9444 585.4477 418.9444H471.1877V198.7344C471.1877 174.3144 457.0277 159.6644 435.0577 159.6644C413.5777 159.6644 398.9277 174.8044 398.9277 198.7344V442.8744C398.9277 466.3044 413.0877 481.9344 435.0577 481.9344ZM503.4177 865.7244C622.0677 865.7244 692.3877 810.0544 692.3877 716.3044V696.7744C634.2777 708.9844 571.2877 715.3344 503.4177 715.3344C435.5477 715.3344 372.5577 708.9844 314.9377 696.7744V716.3044C314.9377 810.0544 385.2577 865.7244 503.4177 865.7244Z"/>
</svg>