<?xml version="1.0" encoding="UTF-8" standalone="no"?>
<svg xmlns="http://www.w3.org/2000/svg"
     width="1239.74609375" height="1364.6240234375"
     viewBox="0 0 1239.74609375 1364.6240234375"
     fill="currentColor">
  <path d="M497.0677 144.4042C477.0477 171.2642 488.7677 203.9842 522.4577 203.9842H717.7777C752.9277 203.9842 763.1877 170.2842 743.6477 144.4042L645.9977 13.5542C632.3277 -4.5158 607.4177 -4.5158 594.2377 13.5542ZM619.6277 1364.6242C961.9177 1364.6242 1239.7477 1087.2842 1239.7477 744.9942C1239.7477 472.5342 1063.4777 240.6042 818.3577 158.0842C822.2677 185.9142 814.9377 213.7442 797.8477 234.2542C1009.2777 307.9842 1161.1377 508.6642 1161.1377 744.9942C1161.1377 1043.8242 918.4577 1286.0142 619.6277 1286.0142C320.7977 1286.0142 78.6177 1043.8242 78.6177 744.9942C78.6177 508.1742 230.9577 307.4942 442.3877 234.2542C425.7777 213.2542 417.9677 185.4242 421.8777 157.5942C176.7577 239.6242 -0.0023 472.0442 -0.0023 744.9942C-0.0023 1087.2842 277.3477 1364.6242 619.6277 1364.6242ZM619.6277 1173.7042C856.9377 1173.7042 1048.8277 981.8142 1048.8277 744.9942C1048.8277 508.1742 856.9377 315.7942 619.6277 315.7942C382.8077 315.7942 190.9177 508.1742 190.9177 744.9942C190.9177 981.8142 382.8077 1173.7042 619.6277 1173.7042ZM619.6277 1095.0942C426.2677 1095.0942 269.5277 938.3542 269.5277 744.9942C269.5277 551.6342 426.2677 394.4042 619.6277 394.4042C813.4777 394.4042 970.2177 551.6342 970.2177 744.9942C970.2177 938.3542 813.4777 1095.0942 619.6277 1095.0942ZM533.6877 952.0242H747.0677C765.1377 952.0242 778.3177 940.3042 778.3177 921.7542C778.3177 902.7142 765.1377 891.4842 747.0677 891.4842H571.2877V565.7942C571.2877 539.9142 558.1077 523.8042 533.6877 523.8042C509.7677 523.8042 497.0677 540.8942 497.0677 565.7942V910.5242C497.0677 935.4242 509.7677 952.0242 533.6877 952.0242Z"/>
</svg>