<?xml version="1.0" encoding="UTF-8" standalone="no"?>
<svg xmlns="http://www.w3.org/2000/svg"
     width="999.0234375" height="1108.88671875"
     viewBox="0 0 999.0234375 1108.88671875"
     fill="currentColor">
  <path d="M380.3677 59.5684L477.5377 190.4284C490.7277 208.4984 515.6277 208.4984 528.8077 190.4284L626.9577 59.5684C646.4877 33.6884 636.2277 -0.0016 601.0777 -0.0016H405.2777C372.0677 -0.0016 359.8677 32.7184 380.3677 59.5684ZM499.5077 887.2084C811.5277 887.2084 999.0277 746.5784 999.0277 572.2684C999.0277 398.4384 811.5277 257.8084 499.0277 257.8084C187.4977 257.8084 -0.0023 398.4384 -0.0023 572.2684C-0.0023 746.5784 187.4977 887.2084 499.5077 887.2084ZM432.6177 730.4684C410.1577 730.4684 395.5077 713.8684 395.5077 689.4484V437.9884C395.5077 413.5784 410.6477 397.4584 432.6177 397.4584C455.5677 397.4584 470.2177 413.0884 470.2177 437.9884V665.0384H587.8877C607.4177 665.0384 621.0977 678.2184 621.0977 697.7584C621.0977 716.7984 607.4177 730.4684 587.8877 730.4684ZM499.5077 1108.8884C618.1677 1108.8884 688.4777 1053.2184 688.4777 959.4684V935.0584C629.3977 946.7784 566.4077 953.6084 499.5077 953.6084C432.6177 953.6084 369.6277 946.7784 311.0377 935.0584V959.4684C311.0377 1053.2184 381.3477 1108.8884 499.5077 1108.8884Z"/>
</svg>