<?xml version="1.0" encoding="UTF-8" standalone="no"?>
<svg xmlns="http://www.w3.org/2000/svg"
     width="1364.6240234375" height="1239.2578125"
     viewBox="0 0 1364.6240234375 1239.2578125"
     fill="currentColor">
  <path d="M619.6277 -0.002C277.3477 -0.002 -0.0023 277.348 -0.0023 619.628C-0.0023 961.918 277.3477 1239.258 619.6277 1239.258C892.0877 1239.258 1123.5377 1062.988 1206.5477 818.358C1178.2277 822.268 1150.8777 814.458 1130.3677 797.848C1056.6377 1009.278 855.9577 1160.648 619.6277 1160.648C320.7977 1160.648 78.6177 918.458 78.6177 619.628C78.6177 320.798 320.7977 78.618 619.6277 78.618C856.4477 78.618 1057.1277 230.468 1130.3677 442.378C1151.3677 425.288 1178.7077 417.968 1207.0277 421.878C1124.5077 176.758 892.5777 -0.002 619.6277 -0.002ZM619.6277 1048.338C856.4477 1048.338 1048.8277 856.448 1048.8277 619.628C1048.8277 382.808 856.4477 190.428 619.6277 190.428C382.8077 190.428 190.4277 382.808 190.4277 619.628C190.4277 856.448 382.8077 1048.338 619.6277 1048.338ZM619.6277 969.728C426.2677 969.728 269.0477 812.988 269.0477 619.628C269.0477 426.268 426.2677 269.038 619.6277 269.038C812.9877 269.038 970.2177 426.268 970.2177 619.628C970.2177 812.988 812.9877 969.728 619.6277 969.728ZM533.6877 826.658H747.0677C765.1377 826.658 778.3177 814.938 778.3177 796.388C778.3177 777.348 765.1377 766.118 747.0677 766.118H571.2877V440.428C571.2877 414.548 558.1077 398.438 533.6877 398.438C509.7677 398.438 497.0677 415.528 497.0677 440.428V785.158C497.0677 810.058 509.7677 826.658 533.6877 826.658ZM1220.2177 496.578C1193.3577 476.078 1160.6477 488.278 1160.6477 521.968V717.778C1160.6477 752.438 1194.3377 762.698 1220.2177 743.168L1351.0777 645.508C1369.1377 632.328 1369.1377 607.418 1351.0777 594.238Z"/>
</svg>