<?xml version="1.0" encoding="UTF-8" standalone="no"?>
<svg xmlns="http://www.w3.org/2000/svg"
     width="999.0234375" height="851.07421875"
     viewBox="0 0 999.0234375 851.07421875"
     fill="currentColor">
  <path d="M499.5077 629.3959C811.5277 629.3959 999.0277 488.7659 999.0277 314.4559C999.0277 140.6259 811.5277 -0.0041 499.0277 -0.0041C187.4977 -0.0041 -0.0023 140.6259 -0.0023 314.4559C-0.0023 488.7659 187.4977 629.3959 499.5077 629.3959ZM432.6177 472.6559C410.1577 472.6559 395.5077 456.0559 395.5077 431.6359V180.1759C395.5077 155.7659 410.6477 139.6459 432.6177 139.6459C455.5677 139.6459 470.2177 155.2759 470.2177 180.1759V407.2259H587.8877C607.4177 407.2259 621.0977 420.4059 621.0977 439.9459C621.0977 458.9859 607.4177 472.6559 587.8877 472.6559ZM499.5077 851.0759C618.1677 851.0759 688.4777 795.4059 688.4777 701.6559V677.2459C629.3977 688.9659 566.4077 695.7959 499.5077 695.7959C432.6177 695.7959 369.6277 688.9659 311.0377 677.2459V701.6559C311.0377 795.4059 381.3477 851.0759 499.5077 851.0759Z"/>
</svg>