<?xml version="1.0" encoding="UTF-8" standalone="no"?>
<svg xmlns="http://www.w3.org/2000/svg"
     width="1006.8359375" height="1108.88671875"
     viewBox="0 0 1006.8359375 1108.88671875"
     fill="currentColor">
  <path d="M380.3677 59.5684L477.5377 190.4284C490.7277 208.4984 515.6277 208.4984 528.8077 190.4284L626.9577 59.5684C646.4877 33.6884 636.2277 -0.0016 601.0777 -0.0016H405.2777C372.0677 -0.0016 359.8677 32.7184 380.3677 59.5684ZM503.4177 901.8584C808.1077 901.8584 1006.8377 767.0884 1006.8377 572.2684C1006.8377 377.9284 807.6177 243.1684 502.9277 243.1684C198.7277 243.1684 -0.0023 377.9284 -0.0023 572.2684C-0.0023 767.0884 198.7277 901.8584 503.4177 901.8584ZM503.4177 817.8684C254.8877 817.8684 88.3777 718.2584 88.3777 572.2684C88.3777 426.2684 254.8877 327.1484 502.9277 327.1484C751.4677 327.1484 918.4577 426.2684 918.4577 572.2684C918.4577 718.2584 751.9577 817.8684 503.4177 817.8684ZM435.0577 725.0984H585.4477C604.4877 725.0984 617.6777 711.9184 617.6777 693.8484C617.6777 674.8084 604.4877 662.1084 585.4477 662.1084H471.1877V441.8984C471.1877 417.4784 457.0277 402.8284 435.0577 402.8284C413.5777 402.8284 398.9277 417.9684 398.9277 441.8984V686.0384C398.9277 709.4684 413.0877 725.0984 435.0577 725.0984ZM503.4177 1108.8884C622.0677 1108.8884 692.3877 1053.2184 692.3877 959.4684V939.9384C634.2777 952.1484 571.2877 958.4984 503.4177 958.4984C435.5477 958.4984 372.5577 952.1484 314.9377 939.9384V959.4684C314.9377 1053.2184 385.2577 1108.8884 503.4177 1108.8884Z"/>
</svg>