<?xml version="1.0" encoding="UTF-8" standalone="no"?>
<svg xmlns="http://www.w3.org/2000/svg"
     width="1180.6640625" height="898.92578125"
     viewBox="0 0 1180.6640625 898.92578125"
     fill="currentColor">
  <path d="M419.9177 898.9295H761.2277C1051.7577 898.9295 1180.6677 765.6295 1180.6677 491.6995V151.3695C1180.6677 50.7795 1129.3977 -0.0005 1027.3477 -0.0005H153.3177C51.2677 -0.0005 -0.0023 50.2895 -0.0023 151.3695V491.6995C-0.0023 765.6295 128.9077 898.9295 419.9177 898.9295ZM497.0677 675.2895C470.7077 675.2895 457.0277 656.2495 457.0277 629.3895V255.8595C457.0277 228.5195 470.7077 209.9595 497.0677 209.9595C523.4377 209.9595 538.0877 227.5395 538.0877 255.8595V608.8895H728.5177C748.5377 608.8895 762.6977 621.0895 762.6977 641.5995C762.6977 662.5995 748.5377 675.2895 728.5177 675.2895Z"/>
</svg>