<?xml version="1.0" encoding="UTF-8" standalone="no"?>
<svg xmlns="http://www.w3.org/2000/svg"
     width="898.92578125" height="898.92578125"
     viewBox="0 0 898.92578125 898.92578125"
     fill="currentColor">
  <path d="M153.3183 898.9295H745.6083C848.1483 898.9295 898.9283 848.1495 898.9283 747.5595V151.3695C898.9283 50.7795 848.1483 -0.0005 745.6083 -0.0005H153.3183C51.2683 -0.0005 -0.0017 50.2895 -0.0017 151.3695V747.5595C-0.0017 848.6295 51.2683 898.9295 153.3183 898.9295ZM355.9583 673.3395C330.0783 673.3395 315.9183 654.7895 315.9183 627.9295V253.9095C315.9183 227.0495 330.0783 208.0095 355.9583 208.0095C382.8083 208.0095 396.9683 226.0695 396.9683 253.9095V606.9295H587.8883C607.4183 606.9295 621.5783 619.6295 621.5783 640.1395C621.5783 660.6395 607.4183 673.3395 587.8883 673.3395Z"/>
</svg>