<?xml version="1.0" encoding="UTF-8" standalone="no"?>
<svg xmlns="http://www.w3.org/2000/svg"
     width="1180.6640625" height="898.92578125"
     viewBox="0 0 1180.6640625 898.92578125"
     fill="currentColor">
  <path d="M419.9177 898.9295H761.2277C1051.7577 898.9295 1180.6677 765.6295 1180.6677 491.6995V151.3695C1180.6677 50.7795 1129.3977 -0.0005 1027.3477 -0.0005H153.3177C51.2677 -0.0005 -0.0023 50.2895 -0.0023 151.3695V491.6995C-0.0023 765.6295 128.9077 898.9295 419.9177 898.9295ZM419.9177 819.3395C182.6177 819.3395 78.6177 715.3295 78.6177 496.5795V155.2695C78.6177 104.4895 105.4677 78.6095 154.2977 78.6095H1026.3677C1074.7077 78.6095 1102.0477 104.4895 1102.0477 155.2695V496.5795C1102.0477 715.3295 998.0477 819.3395 760.7377 819.3395ZM378.4177 668.4595H603.0277C622.0677 668.4595 635.7377 656.2495 635.7377 636.2295C635.7377 616.2095 622.0677 604.4895 603.0277 604.4895H417.4777V261.7195C417.4777 234.3795 403.8077 217.7695 378.4177 217.7695C353.0277 217.7695 339.8477 235.3495 339.8477 261.7195V624.5095C339.8477 650.3895 353.0277 668.4595 378.4177 668.4595ZM797.8477 679.6895C822.7577 679.6895 836.9177 663.0895 836.9177 635.7395V262.2095C836.9177 233.8895 821.7777 218.2595 795.8977 218.2595C777.8277 218.2595 765.1377 223.1395 744.1377 237.3095L656.2477 296.8795C645.5077 304.6895 641.1177 312.0095 641.1177 324.2195C641.1177 339.3595 653.3177 353.5195 668.9477 353.5195C676.2677 353.5195 681.6377 352.5395 692.3877 344.7295L755.8577 303.2195H759.2777V635.7395C759.2777 663.0895 773.4377 679.6895 797.8477 679.6895Z"/>
</svg>