<?xml version="1.0" encoding="UTF-8" standalone="no"?>
<svg xmlns="http://www.w3.org/2000/svg"
     width="1180.6640625" height="898.92578125"
     viewBox="0 0 1180.6640625 898.92578125"
     fill="currentColor">
  <path d="M419.9177 -0.0005C128.9077 -0.0005 -0.0023 133.2995 -0.0023 406.7395V747.5595C-0.0023 848.6295 51.2677 898.9295 153.3177 898.9295H1027.3477C1129.3977 898.9295 1180.6677 848.1495 1180.6677 747.5595V406.7395C1180.6677 133.2995 1051.7577 -0.0005 761.2277 -0.0005ZM419.9177 79.5895H760.7377C998.0477 79.5895 1102.0477 183.1095 1102.0477 402.3395V743.6495C1102.0477 794.4295 1074.7077 820.3095 1026.3677 820.3095H154.2977C105.4677 820.3095 78.6177 794.4295 78.6177 743.6495V402.3395C78.6177 183.1095 182.6177 79.5895 419.9177 79.5895ZM328.1277 669.4295H543.4577C562.4977 669.4295 576.1677 657.2295 576.1677 637.2095C576.1677 617.1895 562.0077 605.4695 543.4577 605.4695H367.6777V262.6995C367.6777 235.3495 354.0077 218.7495 328.1277 218.7495C303.2277 218.7495 290.0377 236.3295 290.0377 262.6995V625.4895C290.0377 651.3695 303.2277 669.4295 328.1277 669.4295ZM658.6877 669.4295H904.7877C923.3377 669.4295 937.4977 656.7395 937.4977 637.2095C937.4977 617.1895 923.3377 605.4695 904.7877 605.4695H731.4477V602.0495L847.1677 481.4495C891.1177 435.5495 920.8977 396.4795 920.8977 342.2895C920.8977 268.0695 861.3277 218.7495 770.9977 218.7495C701.6577 218.7495 640.1377 260.7395 624.5077 315.4295C622.5577 322.7495 622.0677 328.6095 622.0677 334.9595C622.0677 353.9995 634.7677 366.2095 653.3177 366.2095C670.8977 366.2095 679.6877 355.4695 687.9877 341.7995C701.6577 312.0095 726.5577 280.7595 774.4177 280.7595C820.7977 280.7595 851.5577 307.6195 851.5577 348.1395C851.5577 383.7895 821.7777 413.5695 792.9677 443.8495L636.7177 608.3995C628.4177 617.6795 624.0277 626.9495 624.0277 637.2095C624.0277 656.7395 637.2077 669.4295 658.6877 669.4295Z"/>
</svg>