<?xml version="1.0" encoding="UTF-8" standalone="no"?>
<svg xmlns="http://www.w3.org/2000/svg"
     width="754.7683869135208" height="1181.640625"
     viewBox="0 0 754.7683869135208 1181.640625"
     fill="currentColor">
  <path d="M302.2322 1181.6394H452.1322C578.1122 1181.6394 652.3322 1116.6994 652.3322 1006.8394C652.3322 937.9894 630.8422 835.4494 593.2422 731.9294C571.2722 671.8794 523.9122 636.7194 456.5222 636.7194H417.9522V576.6594C511.2122 575.1994 602.5222 568.8494 679.1822 557.1294C747.0522 547.3594 771.9522 495.6094 742.6622 428.2194L597.6422 101.5594C567.3622 32.7194 517.0722 -0.0006 440.4122 -0.0006H313.9522C237.7722 -0.0006 187.4822 32.7194 157.2122 101.5594L12.1922 428.2194C-17.1078 495.6094 7.3122 547.3594 75.6722 557.1294C151.8422 568.8494 243.1522 575.1994 336.4122 576.6594V636.7194H297.8322C230.4522 636.7194 183.0922 671.8794 161.1122 731.9294C124.0122 835.4494 102.0322 937.9894 102.0322 1006.8394C102.0322 1116.6994 176.2522 1181.6394 302.2322 1181.6394ZM377.4222 505.3694C288.5622 505.3694 200.1822 500.4894 103.0122 489.2594C75.6722 486.3294 71.2722 470.2194 82.9922 443.8494L221.6622 130.8594C239.7322 90.3294 269.5122 71.2894 313.9522 71.2894H440.4122C484.8522 71.2894 515.1222 90.3294 533.1822 130.8594L671.8622 443.8494C683.5822 470.2194 678.6922 486.3294 651.8422 489.2594C554.6722 500.4894 465.8022 505.3694 377.4222 505.3694ZM302.2322 1110.3494C220.6822 1110.3494 172.8322 1071.7794 172.8322 1006.8394C172.8322 945.3094 193.3422 852.0494 227.5222 756.3494C238.2622 726.0694 261.2122 708.0094 297.8322 708.0094H456.5222C493.1522 708.0094 516.1022 726.0694 526.8422 756.3494C561.0222 852.0494 581.5222 945.3094 581.5222 1006.8394C581.5222 1071.7794 533.6722 1110.3494 452.1322 1110.3494Z"/>
</svg>