<?xml version="1.0" encoding="UTF-8" standalone="no"?>
<svg xmlns="http://www.w3.org/2000/svg"
     width="920.8984375" height="1129.2724609375"
     viewBox="0 0 920.8984375 1129.2724609375"
     fill="currentColor">
  <path d="M460.4483 707.3987C641.1183 707.3987 794.4383 740.5987 887.6983 799.6787C843.7483 710.8187 759.7683 624.3887 660.6483 575.5587C636.7183 494.9987 574.2183 439.8187 499.9983 425.6587V249.3887C596.6783 236.6987 672.3683 175.1687 688.4783 91.1887C694.8283 56.0287 678.2183 30.1487 643.5583 20.8787C539.5483 -6.9613 381.3483 -6.9613 277.8283 20.8787C243.1683 30.1487 226.5583 56.0287 232.9083 91.1887C248.5383 175.1687 324.2183 236.6987 421.3883 249.3887V425.6587C347.1683 439.8187 284.1783 494.9987 260.2583 575.5587C161.1283 624.3887 77.1483 710.8187 33.1983 799.6787C126.4683 740.5987 279.7883 707.3987 460.4483 707.3987ZM460.4483 1129.2687C736.8183 1129.2687 920.8983 1052.6087 920.8983 937.8687C920.8983 832.8887 699.7083 768.9187 460.4483 768.9187C221.1883 768.9187 -0.0017 831.9087 -0.0017 937.8687C-0.0017 1052.6087 184.0783 1129.2687 460.4483 1129.2687ZM460.4483 973.0187C368.6483 973.0187 288.5783 918.8187 285.6483 848.0187C338.8683 839.2287 398.4383 833.8587 460.4483 833.8587C521.9683 833.8587 582.0283 839.2287 635.2583 848.0187C631.8383 918.8187 553.7083 973.0187 460.4483 973.0187Z"/>
</svg>