<?xml version="1.0" encoding="UTF-8" standalone="no"?>
<svg xmlns="http://www.w3.org/2000/svg"
     width="932.4885353219208" height="1167.724609375"
     viewBox="0 0 932.4885353219208 1167.724609375"
     fill="currentColor">
  <path d="M56.1483 1167.7245H575.6883C593.7483 1167.7245 605.9583 1154.5445 605.9583 1135.4945C605.9583 1098.8745 574.2183 1072.9945 524.8983 1072.9945H328.1283V927.0045C350.5883 914.3045 365.2383 890.8645 365.2383 861.0845C365.2383 818.6045 331.0583 784.9145 289.0583 784.9145C287.1083 784.9145 285.6483 784.9145 283.6883 784.9145L150.8783 652.5845C151.8583 647.7045 152.3483 642.3345 152.3483 636.9645C152.3483 631.5945 151.8583 626.7045 150.8783 621.8245L362.7883 427.0045C367.6783 486.0845 377.9283 542.2345 395.0183 597.4145C413.5783 656.4945 480.4683 678.9545 527.3483 631.5945L603.5183 555.4245C630.3683 573.4845 662.1083 582.2745 694.3383 582.2745C784.1783 582.2745 857.9083 509.0345 857.9083 419.6745C857.9083 387.4545 848.6283 356.2045 830.0783 328.8545L907.2283 251.7045C954.0983 205.3245 931.6383 138.4245 873.5383 120.3645C773.9283 88.1345 668.4583 79.3445 548.3383 86.1845L533.1983 70.0645C487.7883 22.7045 425.2883 13.4245 372.0683 45.1645L337.8883 10.9845C323.2383 -3.6655 300.7783 -3.6655 286.1283 10.9845C271.9683 25.1445 271.4883 47.6045 286.1283 62.2545L320.7983 96.9245C289.0583 150.6345 298.3383 214.6045 345.6983 258.0545L361.8183 273.1945C360.8383 290.2845 360.3483 306.8845 359.8683 322.9945L98.1483 564.2045C91.3083 561.7645 83.9883 560.7945 76.1683 560.7945C33.1983 560.7945 -0.0017 594.4845 -0.0017 636.9645C-0.0017 679.9345 33.1983 713.1345 76.1683 713.1345C83.4983 713.1345 90.8183 712.1545 97.6583 710.2045L218.7483 830.8145C214.8483 840.0845 212.8883 850.3445 212.8883 861.0845C212.8883 889.4045 227.0483 913.8145 249.5083 926.5145V1072.9945H106.9383C57.6183 1072.9945 25.8783 1098.8745 25.8783 1135.4945C25.8783 1154.5445 38.0883 1167.7245 56.1483 1167.7245ZM479.0083 582.7645C471.1883 590.5745 464.3583 589.6045 457.5183 567.1345C430.6683 481.6845 423.3383 385.9845 431.6383 269.2845C432.6183 253.1745 425.7783 237.5445 413.5783 226.8045L392.0883 207.2745C364.7483 181.8845 363.2783 146.2445 392.0883 115.9645C422.3683 87.1545 457.5183 88.1345 483.3983 116.4545L502.9283 137.9345C514.1583 150.1445 530.7583 156.9845 547.8483 155.5145C662.1083 148.1945 758.2983 155.5145 843.7483 182.8645C864.7483 189.6945 865.7183 196.0445 858.8883 202.8845ZM788.5783 419.6745C788.5783 471.4345 745.6083 513.4245 694.3383 513.4245C680.6683 513.4245 666.9883 510.0145 654.7883 504.1545L778.8083 380.1245C785.1583 392.3345 788.5783 405.5145 788.5783 419.6745Z"/>
</svg>