<?xml version="1.0" encoding="UTF-8" standalone="no"?>
<svg xmlns="http://www.w3.org/2000/svg"
     width="758.7890625" height="1046.875"
     viewBox="0 0 758.7890625 1046.875"
     fill="currentColor">
  <path d="M-0.0017 894.0466C-0.0017 996.0966 50.2883 1046.8766 151.3683 1046.8766H607.9083C708.4983 1046.8766 758.7883 996.0966 758.7883 894.0466V153.3166C758.7883 51.7566 708.4983 -0.0034 607.9083 -0.0034H151.3683C50.2883 -0.0034 -0.0017 51.7566 -0.0017 153.3166ZM78.6183 892.5766V154.7866C78.6183 105.9566 104.4883 78.6166 155.2783 78.6166H603.5183C654.2983 78.6166 680.1783 105.9566 680.1783 154.7866V892.5766C680.1783 941.4066 654.2983 968.2666 603.5183 968.2666H155.2783C104.4883 968.2666 78.6183 941.4066 78.6183 892.5766ZM263.1883 197.7566H496.0983C513.6683 197.7566 527.8283 183.5966 527.8283 166.0166C527.8283 148.4366 513.6683 134.2766 496.0983 134.2766H263.1883C246.0983 134.2766 231.4483 148.4366 231.4483 166.0166C231.4483 183.5966 246.0983 197.7566 263.1883 197.7566Z"/>
</svg>