<?xml version="1.0" encoding="UTF-8" standalone="no"?>
<svg xmlns="http://www.w3.org/2000/svg"
     width="1408.203125" height="794.43359375"
     viewBox="0 0 1408.203125 794.43359375"
     fill="currentColor">
  <path d="M-0.0017 738.7734C-0.0017 769.5334 24.8983 794.4334 55.1783 794.4334H1353.0283C1383.2983 794.4334 1408.1983 769.5334 1408.1983 738.7734C1408.1983 708.0034 1383.2983 683.1034 1353.0283 683.1034H1246.0983V103.5134C1246.0983 35.1534 1209.4683 0.0034 1141.5983 0.0034H266.5983C202.1483 0.0034 162.1083 35.1534 162.1083 103.5134V683.1034H55.1783C24.8983 683.1034 -0.0017 708.0034 -0.0017 738.7734ZM240.7183 683.1034V125.4834C240.7183 94.2334 256.3483 78.6134 287.5983 78.6134H1120.6083C1151.8583 78.6134 1167.4783 94.2334 1167.4783 125.4834V683.1034Z"/>
</svg>