<?xml version="1.0" encoding="UTF-8" standalone="no"?>
<svg xmlns="http://www.w3.org/2000/svg"
     width="898.92578125" height="898.92578125"
     viewBox="0 0 898.92578125 898.92578125"
     fill="currentColor">
  <path d="M153.3183 898.9295H745.6083C848.1483 898.9295 898.9283 848.1495 898.9283 747.5595V151.3695C898.9283 50.7795 848.1483 -0.0005 745.6083 -0.0005H153.3183C51.2683 -0.0005 -0.0017 50.2895 -0.0017 151.3695V747.5595C-0.0017 848.6295 51.2683 898.9295 153.3183 898.9295ZM154.2983 820.3095C105.4683 820.3095 78.6183 794.4295 78.6183 743.6495V155.2695C78.6183 104.4895 105.4683 78.6095 154.2983 78.6095H744.6283C792.9683 78.6095 820.3083 104.4895 820.3083 155.2695V743.6495C820.3083 794.4295 792.9683 820.3095 744.6283 820.3095ZM285.6483 681.1495H587.8883C604.9783 681.1495 616.2083 669.4295 616.2083 653.3195C616.2083 637.6995 604.4883 626.4695 587.8883 626.4695H513.1883C405.2783 626.4695 321.7783 545.4095 321.7783 438.9695C321.7783 372.0695 344.2383 325.1995 383.7883 300.7795V424.8095C383.7883 438.4795 393.5583 448.2395 407.2283 448.2395C421.3883 448.2395 431.1483 438.4795 431.1483 424.8095V284.1795C439.4483 283.1995 448.2383 282.2295 456.0583 282.2295C463.3783 282.2295 470.2183 283.1995 476.0783 284.1795V424.8095C476.0783 438.4795 486.3283 448.2395 499.9983 448.2395C513.6683 448.2395 523.4383 438.4795 523.4383 424.8095V302.2495C558.5983 326.1695 581.0583 367.6795 582.0283 421.8795C582.5183 440.9195 594.7283 454.0995 612.7883 454.0995C629.8783 454.0995 642.0883 440.9195 642.0883 422.3595C641.5983 336.4295 594.7283 264.1595 523.4383 236.8195V191.8895C523.4383 177.7295 513.6683 167.9695 499.9983 167.9695C486.3283 167.9695 476.0783 177.7295 476.0783 191.8895V225.0995C469.7283 224.1195 462.8883 224.1195 456.5383 224.1195C448.2383 224.1195 439.4483 224.6095 431.1483 225.5895V191.8895C431.1483 177.7295 420.8983 167.9695 407.2283 167.9695C393.5583 167.9695 383.7883 177.7295 383.7883 191.8895V235.3495C306.6383 263.1795 259.2783 334.9595 259.2783 432.1295C259.2783 515.6295 298.3383 587.8895 358.3983 626.4695H286.1283C270.0183 626.4695 258.2983 637.6995 258.2983 653.3195C258.2983 669.9195 269.0383 681.1495 285.6483 681.1495Z"/>
</svg>