<?xml version="1.0" encoding="UTF-8" standalone="no"?>
<svg xmlns="http://www.w3.org/2000/svg"
     width="898.92578125" height="898.92578125"
     viewBox="0 0 898.92578125 898.92578125"
     fill="currentColor">
  <path d="M153.3183 898.9295H745.6083C848.1483 898.9295 898.9283 848.1495 898.9283 747.5595V151.3695C898.9283 50.7795 848.1483 -0.0005 745.6083 -0.0005H153.3183C51.2683 -0.0005 -0.0017 50.2895 -0.0017 151.3695V747.5595C-0.0017 848.6295 51.2683 898.9295 153.3183 898.9295ZM280.2783 688.4795C263.1883 688.4795 251.9483 676.7595 251.9483 659.6695C251.9483 643.5595 264.1583 631.8395 280.7583 631.8395H354.9783C293.4583 591.7995 252.9283 517.5795 252.9283 431.1495C252.9283 331.0595 301.7583 256.8395 381.3483 228.0295V183.5895C381.3483 168.9495 391.5983 158.6895 405.7583 158.6895C419.9183 158.6895 430.6683 168.9495 430.6683 183.5895V218.2595C438.9683 217.2895 448.2383 216.7995 456.5383 216.7995C463.3783 216.7995 470.2183 216.7995 477.0483 217.7695V183.5895C477.0483 168.9495 487.3083 158.6895 501.4683 158.6895C515.6283 158.6895 525.8783 168.9495 525.8783 183.5895V229.4895C599.6083 257.8095 647.9483 332.5195 648.4383 421.3895C648.4383 440.4295 635.7383 454.0995 618.1683 454.0995C599.1183 454.0995 586.4283 440.4295 585.9383 420.8995C584.9583 364.7495 562.0083 322.2695 525.8783 297.3595V423.8295C525.8783 437.9895 515.6283 448.2395 501.4683 448.2395C487.3083 448.2395 477.0483 437.9895 477.0483 423.8295V278.8095C470.6983 277.8295 463.8683 276.8595 456.0583 276.8595C448.2383 276.8595 438.9683 277.8295 430.6683 278.8095V423.8295C430.6683 437.9895 420.4083 448.2395 405.7583 448.2395C391.5983 448.2395 381.3483 437.9895 381.3483 423.8295V295.8995C340.8183 321.2895 317.8683 369.6295 317.8683 438.4795C317.8683 548.3395 403.8083 631.8395 515.1383 631.8395H592.2883C609.3783 631.8395 621.5783 643.5595 621.5783 659.6695C621.5783 676.2695 609.8683 688.4795 592.2883 688.4795Z"/>
</svg>