<?xml version="1.0" encoding="UTF-8" standalone="no"?>
<svg xmlns="http://www.w3.org/2000/svg"
     width="1006.34765625" height="986.328125"
     viewBox="0 0 1006.34765625 986.328125"
     fill="currentColor">
  <path d="M-0.0023 435.5459C-0.0023 659.6659 192.3877 785.6459 432.6177 785.6459C451.6577 785.6459 470.7077 784.6659 489.7477 783.6959C509.2777 791.9959 533.2077 796.8759 560.0577 796.8759C633.7877 796.8759 707.5177 776.3659 773.9277 741.2059C774.8977 748.5359 775.3877 756.3459 775.3877 764.1559C775.3877 822.7559 742.1877 879.8859 687.9877 914.5459C673.8277 924.8059 663.0877 935.0559 663.0877 952.6359C663.0877 970.7059 677.7377 986.3259 701.1677 986.3259C711.4277 986.3259 717.7777 983.3959 727.5377 977.5359C802.2477 928.7159 849.1177 847.1659 849.1177 762.6959C849.1177 740.2359 845.7077 719.2359 839.8477 699.2159C937.9877 624.5159 1006.3477 514.6459 1006.3477 394.0459C1006.3477 161.6259 798.8277 -0.0041 551.2677 -0.0041C280.2777 -0.0041 -0.0023 177.7359 -0.0023 435.5459ZM73.7277 436.0359C73.7277 223.1459 317.8677 73.7259 551.7577 73.7259C756.3477 73.7259 932.6177 200.6859 932.6177 393.5559C932.6177 485.8359 880.8577 571.2859 806.1477 632.3259C765.1377 578.1259 698.2377 543.9459 622.0677 543.9459C509.7677 543.9459 425.7777 602.5359 425.7777 688.9659C425.7777 697.2659 426.7577 705.0759 428.2277 712.4059C233.8877 709.9559 73.7277 618.1659 73.7277 436.0359ZM499.9977 686.5259C499.9977 645.5059 556.6377 618.1659 627.4377 618.1659C676.2677 618.1659 718.7477 639.1559 745.1177 673.3359C687.9877 705.0759 623.5377 723.6359 560.0577 723.6359C525.3877 723.6359 499.9977 709.9559 499.9977 686.5259Z"/>
</svg>