<?xml version="1.0" encoding="UTF-8" standalone="no"?>
<svg xmlns="http://www.w3.org/2000/svg"
     width="504.7708512876509" height="1063.1030938744311"
     viewBox="0 0 504.7708512876509 1063.1030938744311"
     fill="currentColor">
  <path d="M83.0139 0.2124C71.2939 -1.2576 65.4339 5.0924 66.4139 16.3224C70.8039 45.6224 86.9239 78.3324 106.4539 98.8424C126.9639 121.7924 160.1639 137.4124 189.9439 138.8824C199.7139 139.3724 205.0839 133.5124 204.1039 123.7424C200.6939 95.4224 184.5739 61.7324 163.5839 41.7124C143.5639 21.6924 111.3339 4.6024 83.0139 0.2124ZM334.9639 49.5224C328.6239 40.7324 319.3439 39.7624 312.0139 48.5524C293.4639 71.5024 279.7939 104.7024 278.3239 132.5324C275.3939 160.8524 285.1639 196.5024 301.7639 221.4024C307.1339 229.2124 315.4339 230.1924 322.7639 223.3524C344.2439 201.8724 358.8939 168.1724 359.3839 138.3924C361.3339 110.0724 351.5639 74.4224 334.9639 49.5224ZM190.4339 199.9124C162.1139 194.0524 126.4739 198.4524 100.5939 210.1724C90.3339 214.5624 87.8939 223.3524 95.2239 232.1424C114.2639 253.6224 146.0039 272.6724 174.3239 279.0124C203.6239 286.8324 240.2439 281.9424 265.6339 266.8124C273.9339 261.4424 275.3939 253.1424 269.5339 246.3024C250.9839 223.8424 219.7339 205.2824 190.4339 199.9124ZM442.8739 212.6124C437.9939 202.8424 428.7139 200.8924 420.4139 207.7324C400.3939 227.2624 381.8439 258.5124 375.9839 286.8324C369.6339 315.6424 373.5439 351.7724 386.7239 377.1624C391.1239 385.9524 399.4239 388.3924 406.7439 382.5324C430.6739 364.9524 449.7139 333.7024 455.0839 303.9224C460.9439 275.6024 456.0639 239.4624 442.8739 212.6124ZM279.3039 340.5424C252.9339 330.7724 216.8039 330.2824 188.9739 338.1024C178.2339 341.5124 175.3039 349.8224 180.6739 358.6024C195.3139 383.5124 224.1239 406.9424 252.9339 417.6924C280.2839 428.9224 317.3939 428.9224 345.2239 417.6924C354.0139 413.7824 356.4539 405.4824 351.5639 397.6724C335.9439 372.2824 307.1339 350.3024 279.3039 340.5424ZM503.9139 440.6424C502.4439 428.9224 494.6339 424.5224 484.3839 428.9224C458.0139 439.1724 430.1839 462.6124 415.0439 487.0224C399.4239 512.4124 390.6339 548.0624 394.0539 575.8924C395.0239 585.6624 402.3539 590.5424 411.6239 587.6124C439.9439 579.8024 468.7539 556.8524 483.4039 530.4824C499.0339 505.0924 506.8439 469.4424 503.9139 440.6424ZM305.6739 504.6024C284.6739 486.0524 250.9839 473.3524 221.6839 470.9124C210.4539 470.4224 205.0839 477.7524 206.5539 488.4924C212.8939 516.8124 231.9439 548.5524 254.4039 567.5924C275.8839 587.1224 311.0439 600.3024 341.3139 599.3324C350.1039 598.8424 355.4739 592.0024 354.0139 583.2124C348.1539 554.4124 329.1039 523.1624 305.6739 504.6024ZM224.1239 618.8624C213.3839 614.9524 206.0639 619.8324 206.0639 631.5524C204.1039 660.3624 214.3639 695.0324 230.9639 719.9324C246.5839 745.3224 277.3539 766.3224 306.6439 773.1624C315.9239 774.6224 322.7639 769.7424 323.2439 760.4624C324.7139 730.1924 313.9739 695.5224 296.8839 672.5724C280.2839 649.6224 251.4739 628.1424 224.1239 618.8624ZM504.4039 660.8524C506.3539 649.6224 500.4939 643.2724 488.7739 644.7424C460.4539 648.1624 428.2339 663.7824 407.2339 683.8024C386.2339 702.8424 369.1439 734.5824 364.2639 764.3724C362.8039 774.1324 368.1739 780.4824 377.9339 779.9924C408.2139 779.0124 441.9039 764.3724 462.4039 742.8824C483.4039 722.3724 500.4939 689.1724 504.4039 660.8524ZM158.2139 717.0024C149.4239 708.7024 140.6339 710.1724 136.2339 720.9124C123.0539 747.2824 118.1739 783.9024 123.5439 811.7324C128.9139 842.0024 147.9539 873.7424 171.3939 890.8324C179.2039 896.6924 187.5039 895.2324 191.4139 885.9524C204.5939 861.0524 208.5039 824.4224 202.6439 795.1324C196.7839 767.3024 179.2039 736.0524 158.2139 717.0024ZM58.6039 817.1024C52.2539 807.8224 43.4639 807.3324 36.1439 816.1224C16.6039 838.5824 2.4439 872.2824 0.4939 900.6024C-2.4361 930.8724 7.8139 966.5124 26.8639 988.9824C33.2139 996.7924 41.0239 996.7924 47.3739 989.4624C66.4139 968.4724 80.0839 934.2924 81.5539 904.5024C83.0139 876.1824 73.7339 841.0324 58.6039 817.1024ZM298.8339 849.8224C271.4939 859.0924 242.6839 881.5524 227.0539 906.4624C221.6839 915.2524 224.1239 922.5724 233.4039 925.9924C261.2339 937.7124 298.3439 937.7124 325.6939 926.4824C352.5439 916.7124 381.3539 893.7624 397.4639 868.8624C403.3239 859.0924 400.3939 850.7924 389.6539 847.3724C362.3139 839.0724 325.6939 840.0524 298.8339 849.8224ZM161.1439 982.1424C131.8439 984.0924 98.1539 998.2524 76.6639 1018.2724C69.3439 1025.1124 69.8339 1033.4124 77.6439 1038.7824C101.5639 1056.8524 137.2139 1066.1224 166.9939 1062.2224C195.3139 1060.2624 229.0139 1045.1324 251.4739 1025.1124C260.2639 1017.3024 258.7939 1008.0224 248.5439 1002.1624C224.6139 987.5124 189.4639 979.7024 161.1439 982.1424Z"/>
</svg>