<?xml version="1.0" encoding="UTF-8" standalone="no"?>
<svg xmlns="http://www.w3.org/2000/svg"
     width="504.770851287651" height="1063.1030938744314"
     viewBox="0 0 504.770851287651 1063.1030938744314"
     fill="currentColor">
  <path d="M421.7595 0.2124C393.4395 4.6024 361.2095 21.6924 340.6995 41.7124C320.1895 61.7324 304.0795 95.4224 300.6595 123.7424C299.6895 133.5124 305.0595 139.3724 314.8195 138.8824C344.6095 137.4124 377.8095 121.7924 398.3195 98.8424C417.8495 78.3324 433.9595 45.6224 438.3595 16.3224C439.3395 5.0924 433.4795 -1.2576 421.7595 0.2124ZM169.7995 49.5224C153.1995 74.4224 143.4395 110.0724 145.3895 138.3924C145.8795 168.1724 160.5295 201.8724 182.0095 223.3524C189.3395 230.1924 197.6395 229.2124 203.0095 221.4024C219.1195 196.5024 228.8895 160.8524 226.4395 132.5324C224.4895 104.7024 211.3095 71.5024 192.7495 48.5524C184.9395 39.7624 176.1495 40.7324 169.7995 49.5224ZM313.8495 199.9124C285.0395 205.2824 253.2995 223.8424 235.2295 246.3024C229.3695 253.1424 230.8395 261.4424 238.6495 266.8124C264.5295 281.9424 301.1495 286.8324 329.9595 279.0124C358.7695 272.6724 390.5095 253.6224 409.0595 232.1424C416.3895 223.3524 414.4295 214.5624 404.1795 210.1724C378.2995 198.4524 342.6595 194.0524 313.8495 199.9124ZM61.4095 212.6124C48.7095 239.4624 43.8295 275.6024 49.1995 303.9224C54.5695 333.7024 73.6095 364.9524 98.0295 382.5324C105.3495 388.3924 113.1595 385.9524 118.0495 377.1624C130.7395 351.7724 135.1395 315.6424 128.7895 286.8324C122.9295 258.5124 104.3695 227.2624 83.8695 207.7324C76.0495 200.8924 66.7795 202.8424 61.4095 212.6124ZM225.4695 340.5424C197.6395 350.3024 168.8295 372.2824 153.1995 397.6724C147.8295 405.4824 150.7595 413.7824 159.5495 417.6924C187.3795 428.9224 223.9995 428.9224 251.8395 417.6924C280.1595 406.9424 309.4495 383.5124 323.6095 358.6024C329.4695 349.8224 326.5395 341.5124 315.7995 338.1024C287.9695 330.2824 251.8395 330.7724 225.4695 340.5424ZM0.8595 440.6424C-2.0705 469.4424 5.7395 505.0924 21.3695 530.4824C36.0195 556.8524 64.8195 579.8024 93.1395 587.6124C101.9295 590.5424 109.7495 585.6624 110.7195 575.8924C113.6495 548.0624 105.3495 512.4124 89.7295 487.0224C74.0995 462.6124 46.2695 439.1724 20.3895 428.9224C10.1395 424.5224 1.8395 428.9224 0.8595 440.6424ZM198.6095 504.6024C175.6595 523.1624 156.6195 554.4124 150.7595 583.2124C149.2995 592.0024 154.1795 598.8424 163.4595 599.3324C193.7295 600.3024 228.3995 587.1224 250.3695 567.5924C272.3395 548.5524 291.8695 516.8124 298.2195 488.4924C299.6895 477.7524 293.8295 470.4224 283.0895 470.9124C253.7895 473.3524 220.0995 486.0524 198.6095 504.6024ZM280.1595 618.8624C253.2995 628.1424 224.4895 649.6224 207.8895 672.5724C190.3095 695.5224 180.0595 730.1924 181.0295 760.4624C182.0095 769.7424 188.3595 774.6224 198.1195 773.1624C227.4195 766.3224 258.1795 745.3224 273.8095 719.9324C289.9195 695.0324 300.6595 660.3624 298.7095 631.5524C298.7095 619.8324 291.3895 614.9524 280.1595 618.8624ZM0.3695 660.8524C4.2795 689.1724 21.3695 722.3724 42.3595 742.8824C62.8695 764.3724 96.5595 779.0124 126.8395 779.9924C136.5995 780.4824 141.9695 774.1324 140.5095 764.3724C135.6195 734.5824 118.5295 702.8424 97.5395 683.8024C76.5395 663.7824 44.3195 648.1624 15.9995 644.7424C4.2795 643.2724 -1.5805 649.6224 0.3695 660.8524ZM346.5595 717.0024C325.5695 736.0524 307.4995 767.3024 302.1295 795.1324C295.7795 824.4224 300.1795 861.0524 313.3595 885.9524C317.2695 895.2324 325.0795 896.6924 333.3795 890.8324C356.8195 873.7424 375.8595 842.0024 380.7395 811.7324C386.5995 783.9024 381.7195 747.2824 368.5295 720.9124C364.1395 710.1724 354.8595 708.7024 346.5595 717.0024ZM446.1695 817.1024C430.5495 841.0324 421.7595 876.1824 422.7295 904.5024C424.6895 934.2924 438.3595 968.4724 457.3995 989.4624C463.7495 996.7924 471.5595 996.7924 477.9095 988.9824C496.9495 966.5124 507.2095 930.8724 504.2795 900.6024C502.3195 872.2824 488.1595 838.5824 468.6295 816.1224C461.3095 807.3324 452.5195 807.8224 446.1695 817.1024ZM205.9395 849.8224C179.0795 840.0524 142.4595 839.0724 115.1195 847.3724C104.3695 850.7924 101.4395 859.0924 107.2995 868.8624C123.4195 893.7624 152.2295 916.7124 179.0795 926.4824C206.4295 937.7124 243.5295 937.7124 271.3695 925.9924C280.6395 922.5724 283.0895 915.2524 277.7095 906.4624C262.0895 881.5524 233.2795 859.0924 205.9395 849.8224ZM343.6295 982.1424C315.3095 979.7024 280.1595 987.5124 256.2295 1002.1624C245.9795 1008.0224 244.5095 1017.3024 253.2995 1025.1124C275.2695 1045.1324 308.9595 1060.2624 337.7695 1062.2224C367.5595 1066.1224 403.1995 1056.8524 427.1295 1038.7824C434.9395 1033.4124 435.4295 1025.1124 428.1095 1018.2724C406.6195 998.2524 372.9295 984.0924 343.6295 982.1424Z"/>
</svg>