<?xml version="1.0" encoding="UTF-8" standalone="no"?>
<svg xmlns="http://www.w3.org/2000/svg"
     width="1180.6640625" height="898.92578125"
     viewBox="0 0 1180.6640625 898.92578125"
     fill="currentColor">
  <path d="M419.9177 898.9295H761.2277C1051.7577 898.9295 1180.6677 765.6295 1180.6677 491.6995V151.3695C1180.6677 50.7795 1129.3977 -0.0005 1027.3477 -0.0005H153.3177C51.2677 -0.0005 -0.0023 50.2895 -0.0023 151.3695V491.6995C-0.0023 765.6295 128.9077 898.9295 419.9177 898.9295ZM419.9177 819.3395C182.6177 819.3395 78.6177 715.3295 78.6177 496.5795V155.2695C78.6177 104.4895 105.4677 78.6095 154.2977 78.6095H1026.3677C1074.7077 78.6095 1102.0477 104.4895 1102.0477 155.2695V496.5795C1102.0477 715.3295 998.0477 819.3395 760.7377 819.3395ZM300.7777 668.4595H525.8777C544.4377 668.4595 558.1077 656.2495 558.1077 636.2295C558.1077 616.2095 544.4377 604.4895 525.8777 604.4895H340.3277V261.7195C340.3277 234.3795 326.6577 217.7695 300.7777 217.7695C275.3877 217.7695 262.2077 235.3495 262.2077 261.7195V624.5095C262.2077 650.3895 275.8777 668.4595 300.7777 668.4595ZM672.3677 668.9495H814.9377C916.0177 668.9495 980.4677 620.1195 980.4677 543.4595C980.4677 483.8895 940.9177 442.3795 875.9777 434.0795V431.1495C924.3177 419.4295 954.0977 381.3495 954.0977 332.5195C954.0977 266.1095 899.8977 222.6595 815.9177 222.6595H672.3677C645.0177 222.6595 628.9077 238.2795 628.9077 266.1095V625.4895C628.9077 652.8295 645.0177 668.9495 672.3677 668.9495ZM704.5877 412.1095V280.2695H800.2977C849.6077 280.2695 879.3977 304.6895 879.3977 344.7295C879.3977 388.1795 843.7477 412.1095 778.3177 412.1095ZM704.5877 611.3295V465.8195H808.1077C868.1677 465.8195 902.8277 493.1595 902.8277 540.5295C902.8277 588.8695 865.2377 611.3295 784.1777 611.3295Z"/>
</svg>