<?xml version="1.0" encoding="UTF-8" standalone="no"?>
<svg xmlns="http://www.w3.org/2000/svg"
     width="996.09375" height="996.09375"
     viewBox="0 0 996.09375 996.09375"
     fill="currentColor">
  <path d="M498.0477 996.0959C770.5077 996.0959 996.0977 770.0159 996.0977 498.0459C996.0977 225.5859 770.0177 -0.0041 497.5577 -0.0041C225.5877 -0.0041 -0.0023 225.5859 -0.0023 498.0459C-0.0023 770.0159 226.0777 996.0959 498.0477 996.0959ZM252.9277 306.6359C255.8577 291.0159 269.5277 290.0359 279.2977 299.8059C312.4977 333.4959 353.5177 337.8859 390.1377 337.8859C423.8277 337.8859 465.3277 328.6159 502.4377 328.6159C610.8377 328.6159 688.4777 381.8359 688.4777 492.6759C688.4777 502.9259 687.9877 513.6759 687.0077 520.5059C685.0577 527.8359 676.2677 532.2259 668.4577 524.4159C569.8277 435.5459 472.6577 492.6759 391.5977 421.8759C382.8077 415.0359 374.9977 421.3859 377.9277 428.7059C416.9877 530.7659 568.3577 476.5659 668.4577 568.3559C692.3877 589.8459 737.3077 645.0159 737.3077 676.2659C737.3077 696.2859 723.1477 710.9359 706.5477 710.9359C699.2177 710.9359 690.9177 707.0359 687.9877 696.2859C675.7777 657.2259 665.0377 628.9059 645.5077 603.0259C623.5377 630.8559 576.6577 663.5759 501.4677 663.5759C346.6777 663.5759 245.6077 550.2959 245.6077 380.3759C245.6077 359.8659 248.5377 329.5859 252.9277 306.6359Z"/>
</svg>