<?xml version="1.0" encoding="UTF-8" standalone="no"?>
<svg xmlns="http://www.w3.org/2000/svg"
     width="1054.19921875" height="895.7469980866028"
     viewBox="0 0 1054.19921875 895.7469980866028"
     fill="currentColor">
  <path d="M14.1577 28.5572C3.9077 78.3672 -0.0023 143.3072 -0.0023 186.7672C-0.0023 551.9972 217.2877 793.2072 549.3177 793.2072C714.3577 793.2072 812.4977 718.0172 858.3977 664.7872C899.4177 720.9472 922.8477 782.9572 948.7277 864.0072C956.0577 887.4472 972.1677 895.7472 989.2577 895.7472C1025.3877 895.7472 1054.1977 864.4972 1054.1977 821.5272C1054.1977 754.1472 957.5177 636.9572 907.2277 589.5972C693.3577 392.3272 367.6777 509.0272 283.6877 291.2572C277.3477 274.6572 294.9177 260.0072 311.0377 276.6072C479.4877 445.0672 696.2877 302.9772 907.2277 497.3072C923.8277 511.9572 943.3577 504.1472 946.2877 486.5672C948.7277 472.4072 950.1977 449.9472 950.1977 428.4572C950.1977 190.1772 784.1777 75.4372 550.7777 75.4372C472.6577 75.4372 381.3477 94.4772 309.5677 94.4772C230.9577 94.4772 142.5777 88.1272 72.2677 12.9372C52.2477 -7.5728 21.9777 -4.6428 14.1577 28.5572Z"/>
</svg>