<?xml version="1.0" encoding="UTF-8" standalone="no"?>
<svg xmlns="http://www.w3.org/2000/svg"
     width="1034.66796875" height="907.1089672027564"
     viewBox="0 0 1034.66796875 907.1089672027564"
     fill="currentColor">
  <path d="M-0.0023 201.0591C-0.0023 565.3091 218.2577 804.5691 554.1977 804.5691C683.5977 804.5691 792.4777 758.1791 863.7677 680.5491C893.0677 736.6991 906.2477 801.6391 929.1977 875.3691C936.5277 898.8091 952.6377 907.1091 969.7277 907.1091C1005.8577 907.1091 1034.6677 873.4191 1034.6677 832.8891C1034.6677 771.3691 970.2177 668.3391 919.9177 597.0491C942.3877 550.1791 954.5877 496.9491 954.5877 439.3391C954.5877 233.7691 787.1077 85.3291 556.1477 85.3291C476.5577 85.3291 395.9977 107.7891 306.6377 107.7891C231.4477 107.7891 166.5077 84.8391 112.7977 23.8091C84.4777 -9.3909 28.3177 -12.3209 14.6477 43.8291C2.9277 91.1891 -0.0023 174.6891 -0.0023 201.0591ZM285.6477 314.8191C316.4077 410.0391 408.6877 448.1291 523.9277 476.4491C680.1777 513.5591 756.3477 544.3191 820.3077 618.0491C763.1877 688.3591 669.4377 730.8391 554.1977 730.8391C259.7677 730.8391 73.7277 524.7891 73.7277 201.0591C73.7277 168.8291 74.2177 132.6991 78.6177 106.3291C79.5877 99.9791 83.0077 99.4891 87.3977 103.3991C142.0877 153.1991 228.0277 181.5191 306.6377 181.5191C359.3777 181.5191 407.2277 174.6891 450.1977 168.8291C489.2577 163.4591 523.4377 159.0591 556.1477 159.0591C746.5777 159.0591 880.8577 275.7591 880.8577 439.3391C880.8577 473.5191 875.4877 505.2491 865.7277 534.5491C797.3677 473.9991 695.3077 436.4091 548.8277 412.4791C456.0577 396.8591 374.0277 372.4391 317.8677 299.1991C302.2477 278.1991 278.3177 292.8491 285.6477 314.8191Z"/>
</svg>