<?xml version="1.0" encoding="UTF-8" standalone="no"?>
<svg xmlns="http://www.w3.org/2000/svg"
     width="996.09375" height="1090.6147250863723"
     viewBox="0 0 996.09375 1090.6147250863723"
     fill="currentColor">
  <path d="M-0.0023 592.5669C-0.0023 865.0269 226.0777 1090.6169 498.0477 1090.6169C770.5077 1090.6169 996.0977 865.0269 996.0977 592.5669C996.0977 428.5069 913.0877 281.0469 787.5977 189.7369C766.1177 173.1369 739.2577 178.5069 727.0477 198.5269C714.8477 219.0369 721.1877 241.9769 741.2077 257.1169C845.2177 331.3369 912.5977 453.8969 913.0877 592.5669C913.5777 823.0369 728.5177 1007.6069 498.0477 1007.6069C267.5777 1007.6069 83.4977 823.0369 83.4977 592.5669C83.4977 394.8169 219.2377 230.7469 403.8077 188.7569V258.5869C403.8077 293.2469 427.7377 302.5269 454.5877 283.4869L610.3477 174.1069C632.3277 158.9769 632.8077 135.5369 610.3477 119.4269L455.0777 10.0469C427.7377 -9.4831 403.8077 -0.2031 403.8077 34.9469V103.7969C175.2977 148.7169 -0.0023 352.3369 -0.0023 592.5669ZM260.2577 429.9669C255.8577 452.4269 252.9277 481.7269 252.9277 501.2569C252.9277 666.2969 351.0777 775.6769 500.9777 775.6769C576.1677 775.6769 620.1177 741.9769 641.1177 717.5669C659.6677 742.4669 670.4077 770.3069 682.1277 807.8969C685.0577 817.6669 692.8677 822.0569 700.1977 822.0569C716.3077 822.0569 729.9777 807.8969 729.9777 788.3669C729.9777 757.6069 686.5277 704.8769 663.0877 683.3869C565.9177 595.0069 419.4377 646.7669 381.3477 548.6269C378.4177 540.8069 386.2277 534.4669 394.5277 541.2969C473.1477 610.6369 567.3877 554.4769 663.0877 641.3969C670.8977 648.2269 679.1977 644.8169 681.1477 636.9969C682.1277 630.6569 682.6177 620.3969 682.6177 610.6369C682.6177 502.7269 607.4177 450.9669 501.9577 450.9669C466.3077 450.9669 425.7777 459.7569 393.0677 459.7569C357.4177 459.7569 317.8677 455.8469 285.6477 423.1369C276.3677 413.3669 263.1877 414.3469 260.2577 429.9669Z"/>
</svg>