<?xml version="1.0" encoding="UTF-8" standalone="no"?>
<svg xmlns="http://www.w3.org/2000/svg"
     width="996.09375" height="996.09375"
     viewBox="0 0 996.09375 996.09375"
     fill="currentColor">
  <path d="M498.0477 996.0959C770.5077 996.0959 996.0977 770.0159 996.0977 498.0459C996.0977 225.5859 770.0177 -0.0041 497.5577 -0.0041C225.5877 -0.0041 -0.0023 225.5859 -0.0023 498.0459C-0.0023 770.0159 226.0777 996.0959 498.0477 996.0959ZM498.0477 913.0859C267.5777 913.0859 83.4977 728.5159 83.4977 498.0459C83.4977 267.5759 267.0877 83.0059 497.5577 83.0059C728.0277 83.0059 913.0877 267.5759 913.0877 498.0459C913.0877 728.5159 728.5177 913.0859 498.0477 913.0859ZM623.5377 697.7559C646.9777 697.7559 664.0577 681.1559 664.0577 658.6959C664.0577 640.1359 656.2477 629.3959 635.7377 619.6259L388.1877 498.0459V495.1159L635.7377 370.6059C655.7577 360.8359 664.0577 349.1259 664.0577 331.0559C664.0577 309.0859 647.4577 292.4759 624.5077 292.4759C613.7677 292.4759 607.9077 294.4359 600.0977 298.3359L309.0777 455.0759C289.5477 465.8159 280.2777 479.4959 280.2777 498.0459C280.2777 518.0659 288.5777 530.2759 309.0777 541.0159L600.0977 692.3859C607.4177 695.7959 613.7677 697.7559 623.5377 697.7559Z"/>
</svg>