<?xml version="1.0" encoding="UTF-8" standalone="no"?>
<svg xmlns="http://www.w3.org/2000/svg"
     width="898.92578125" height="898.92578125"
     viewBox="0 0 898.92578125 898.92578125"
     fill="currentColor">
  <path d="M153.3183 898.9295H745.6083C848.1483 898.9295 898.9283 848.1495 898.9283 747.5595V151.3695C898.9283 50.7795 848.1483 -0.0005 745.6083 -0.0005H153.3183C51.2683 -0.0005 -0.0017 50.2895 -0.0017 151.3695V747.5595C-0.0017 848.6295 51.2683 898.9295 153.3183 898.9295ZM154.2983 820.3095C105.4683 820.3095 78.6183 794.4295 78.6183 743.6495V155.2695C78.6183 104.4895 105.4683 78.6095 154.2983 78.6095H744.6283C792.9683 78.6095 820.3083 104.4895 820.3083 155.2695V743.6495C820.3083 794.4295 792.9683 820.3095 744.6283 820.3095ZM575.6883 648.4395C599.1183 648.4395 616.2083 631.8395 616.2083 609.3795C616.2083 590.8195 608.3983 580.0795 587.8883 570.3095L340.3283 448.7295V445.7995L587.8883 321.2895C607.9083 311.5195 616.2083 299.8095 616.2083 281.7395C616.2083 259.7695 599.6083 243.1595 576.6583 243.1595C566.4083 243.1595 560.0583 245.1195 552.2483 249.0195L261.2283 405.7595C241.6983 416.4995 232.4183 430.1795 232.4183 448.7295C232.4183 468.7495 240.7183 480.9595 261.2283 491.6995L552.2483 643.0695C559.5683 646.4795 566.4083 648.4395 575.6883 648.4395Z"/>
</svg>