<?xml version="1.0" encoding="UTF-8" standalone="no"?>
<svg xmlns="http://www.w3.org/2000/svg"
     width="898.92578125" height="898.92578125"
     viewBox="0 0 898.92578125 898.92578125"
     fill="currentColor">
  <path d="M153.3183 898.9295H745.6083C848.1483 898.9295 898.9283 848.1495 898.9283 747.5595V151.3695C898.9283 50.7795 848.1483 -0.0005 745.6083 -0.0005H153.3183C51.2683 -0.0005 -0.0017 50.2895 -0.0017 151.3695V747.5595C-0.0017 848.6295 51.2683 898.9295 153.3183 898.9295ZM580.5683 655.2695C570.7983 655.2695 563.9683 652.8295 556.1483 649.4095L255.8583 493.1595C234.8683 482.4195 226.0783 469.7295 226.0783 448.7295C226.0783 429.6895 235.8383 415.5295 255.8583 404.2995L556.1483 242.6795C564.4483 238.7695 570.7983 236.3295 581.5383 236.3295C605.4683 236.3295 622.5583 253.9095 622.5583 276.3695C622.5583 295.4095 613.7683 307.6195 593.2583 317.3795L337.8883 445.7995V448.7295L593.2583 574.2195C614.2583 583.9795 622.5583 595.2195 622.5583 614.7495C622.5583 637.6995 604.9783 655.2695 580.5683 655.2695Z"/>
</svg>