<?xml version="1.0" encoding="UTF-8" standalone="no"?>
<svg xmlns="http://www.w3.org/2000/svg"
     width="1194.3398339491139" height="529.296875"
     viewBox="0 0 1194.3398339491139 529.296875"
     fill="currentColor">
  <path d="M132.8083 529.2992H199.2183V-0.0008H131.8383C44.9183 -0.0008 -0.0017 44.9192 -0.0017 131.3492L0.4883 397.9492C0.4883 484.8592 44.9183 529.2992 132.8083 529.2992ZM246.0983 529.2992H948.2383V-0.0008H864.2583C853.5183 139.6492 744.6283 231.4492 597.6583 231.4492C450.6883 231.4492 341.7983 139.6492 330.5683 -0.0008H246.0983ZM995.1183 529.2992H1061.5283C1148.9283 529.2992 1192.8683 484.8592 1193.3583 397.9492L1194.3383 131.3492C1194.8283 44.9192 1149.4183 -0.0008 1062.0083 -0.0008H995.1183ZM597.6583 186.5192C715.8183 186.5192 803.7083 112.7892 812.0083 -0.0008H736.3283C729.9783 72.7492 673.8283 120.6092 597.6583 120.6092C520.9983 120.6092 465.3283 72.7492 458.9883 -0.0008H382.8083C391.1183 112.7892 479.0083 186.5192 597.6583 186.5192Z"/>
</svg>