<?xml version="1.0" encoding="UTF-8" standalone="no"?>
<svg xmlns="http://www.w3.org/2000/svg"
     width="996.09375" height="996.09375"
     viewBox="0 0 996.09375 996.09375"
     fill="currentColor">
  <path d="M498.0477 996.0977C770.5077 996.0977 996.0977 770.5077 996.0977 498.0477C996.0977 226.0777 770.0177 -0.0023 497.5577 -0.0023C225.5877 -0.0023 -0.0023 226.0777 -0.0023 498.0477C-0.0023 770.5077 226.0777 996.0977 498.0477 996.0977ZM163.0877 252.9277C187.9877 217.7777 217.7777 187.4977 252.4377 162.5977L349.1177 259.2777C313.4777 282.2277 281.7377 312.9877 259.2777 349.1177ZM833.0077 253.4177L736.3277 349.6077C714.3577 313.4777 682.6177 282.7177 646.9777 259.7677L743.6477 163.0877C778.3177 187.9877 808.1077 218.7477 833.0077 253.4177ZM498.5377 678.7077C397.9477 678.7077 317.3877 597.6577 317.3877 497.5577C317.3877 397.4577 397.9477 316.4077 498.5377 316.4077C598.6377 316.4077 679.1977 397.4577 679.1977 497.5577C679.1977 597.6577 598.6377 678.7077 498.5377 678.7077ZM833.0077 740.7177C808.5977 775.3877 778.3177 806.1477 744.1377 831.0577L646.9777 734.3777C683.1077 711.4277 714.3577 680.6677 736.8177 644.5277ZM163.5777 741.2077L259.7677 645.0177C282.2277 681.1477 313.4777 711.9177 349.1177 734.8677L252.4377 831.5477C218.2577 806.6377 187.9877 776.3677 163.5777 741.2077Z"/>
</svg>