<?xml version="1.0" encoding="UTF-8" standalone="no"?>
<svg xmlns="http://www.w3.org/2000/svg"
     width="1384.27734375" height="835.44921875"
     viewBox="0 0 1384.27734375 835.44921875"
     fill="currentColor">
  <path d="M691.8977 835.4478C1103.5177 835.4478 1384.2777 646.4878 1384.2777 417.9678C1384.2777 189.4578 1103.5177 -0.0022 691.8977 -0.0022C280.2777 -0.0022 -0.0023 189.4578 -0.0023 417.9678C-0.0023 646.4878 280.2777 835.4478 691.8977 835.4478ZM691.8977 698.2378C423.3377 698.2378 224.1177 584.9578 224.1177 431.1478C224.1177 278.3178 423.8277 165.0378 691.8977 165.0378C960.4477 165.0378 1160.6477 278.3178 1160.6477 431.1478C1160.6477 584.4678 959.9577 698.2378 691.8977 698.2378ZM691.8977 634.2778C920.4077 634.2778 1096.6777 542.9678 1096.6777 431.1478C1096.6777 385.2578 1066.8977 342.7778 1015.6277 309.0778C961.4277 398.4378 834.9577 460.9378 689.9377 460.9378C545.4077 460.9378 420.4077 399.4178 365.7277 311.0378C316.4077 344.7278 288.0877 385.7378 288.0877 431.1478C288.0877 542.9678 462.3977 634.2778 691.8977 634.2778Z"/>
</svg>