<?xml version="1.0" encoding="UTF-8" standalone="no"?>
<svg xmlns="http://www.w3.org/2000/svg"
     width="996.58203125" height="1072.265625"
     viewBox="0 0 996.58203125 1072.265625"
     fill="currentColor">
  <path d="M687.4983 0.0019C515.1383 0.0019 379.3983 125.4919 379.3983 285.1519C379.3983 461.9119 485.3483 505.8619 514.6483 811.0319C516.1183 828.1219 525.3883 838.8719 543.4583 838.8719H832.0283C850.0983 838.8719 859.3783 828.1219 860.8383 811.0319C890.1383 505.8619 996.5783 461.9119 996.5783 285.1519C996.5783 125.4919 860.3483 0.0019 687.4983 0.0019ZM267.5783 72.2619C118.6483 72.2619 -0.0017 181.6419 -0.0017 320.8019C-0.0017 475.1019 90.8183 513.1819 116.2083 772.4619C117.1883 788.0819 126.9483 799.3119 144.0383 799.3119H391.5983C408.6883 799.3119 417.9683 788.0819 419.4383 772.4619C422.8483 736.3319 427.7383 705.0819 433.5983 675.7819C391.5983 520.0219 322.7583 456.5419 322.7583 285.1519C322.7583 214.3519 344.7283 149.4119 382.8083 95.7019C348.1483 80.5619 309.0783 72.2619 267.5783 72.2619ZM143.0683 892.0919H392.5783C408.1983 892.0919 420.8983 880.3719 420.8983 864.7419C420.8983 848.6319 408.1983 836.9119 392.5783 836.9119H143.0683C127.4383 836.9119 115.7183 849.1219 115.7183 864.7419C115.7183 879.8819 127.4383 892.0919 143.0683 892.0919ZM542.4783 938.4719H833.4983C849.1183 938.4719 861.8183 926.7619 861.8183 910.6419C861.8183 894.5319 849.1183 882.8119 833.4983 882.8119H542.4783C526.3683 882.8119 514.6483 894.5319 514.6483 910.6419C514.6483 926.7619 526.3683 938.4719 542.4783 938.4719ZM268.0683 1014.1619C332.5183 1014.1619 388.1883 979.4919 389.1583 929.6919H147.4583C148.4383 979.4919 203.1283 1014.1619 268.0683 1014.1619ZM687.9883 1072.2619C759.7683 1072.2619 820.3083 1036.1319 824.2183 982.4219H551.7583C554.6883 1036.1319 615.7183 1072.2619 687.9883 1072.2619Z"/>
</svg>