<?xml version="1.0" encoding="UTF-8" standalone="no"?>
<svg xmlns="http://www.w3.org/2000/svg"
     width="1593.26171875" height="954.1015625"
     viewBox="0 0 1593.26171875 954.1015625"
     fill="currentColor">
  <path d="M375.9783 466.7959C589.3583 466.7959 750.9783 367.1859 750.9783 233.8859C750.9783 100.0959 589.3583 -0.0041 375.9783 -0.0041C162.1083 -0.0041 -0.0017 99.6059 -0.0017 233.8859C-0.0017 367.6759 162.1083 466.7959 375.9783 466.7959ZM1218.2583 466.7959C1430.6683 466.7959 1593.2583 367.1859 1593.2583 233.8859C1593.2583 100.0959 1430.6683 -0.0041 1218.2583 -0.0041C1003.9083 -0.0041 842.2883 99.6059 842.2883 233.8859C842.2883 367.6759 1003.9083 466.7959 1218.2583 466.7959ZM375.4883 371.0959C239.7483 371.0959 140.1383 314.9459 140.1383 239.7459C140.1383 163.0859 239.7483 106.9359 375.4883 106.9359C512.2083 106.9359 611.8183 163.0859 611.8183 239.7459C611.8183 314.9459 512.2083 371.0959 375.4883 371.0959ZM1217.2883 371.0959C1081.5383 371.0959 981.9383 314.9459 981.9383 239.7459C981.9383 163.0859 1081.5383 106.9359 1217.2883 106.9359C1354.0083 106.9359 1453.1283 163.0859 1453.1283 239.7459C1453.1283 314.9459 1354.0083 371.0959 1217.2883 371.0959ZM375.4883 262.2059C445.7983 262.2059 509.7683 233.3959 541.5083 190.4259C506.8383 165.0359 443.3583 147.9459 375.4883 147.9459C306.6383 147.9459 243.6483 165.0359 208.9883 191.8959C241.2083 233.3959 305.6683 262.2059 375.4883 262.2059ZM1217.7783 262.2059C1287.5983 262.2059 1352.0483 233.3959 1383.7883 190.4259C1348.6283 165.0359 1285.1583 147.9459 1217.7783 147.9459C1148.4383 147.9459 1085.4483 165.0359 1051.2683 191.8959C1083.0083 233.3959 1147.4583 262.2059 1217.7783 262.2059ZM796.3883 954.1059C1009.7683 954.1059 1171.3883 854.0059 1171.3883 720.7059C1171.3883 586.9159 1009.7683 487.3059 796.3883 487.3059C582.5183 487.3059 420.4083 586.4259 420.4083 720.7059C420.4083 854.4959 582.5183 954.1059 796.3883 954.1059ZM795.8983 858.3959C660.1583 858.3959 560.5483 802.2459 560.5483 726.0759C560.5483 650.3859 660.1583 593.7459 795.8983 593.7459C932.1283 593.7459 1032.2283 650.3859 1032.2283 726.0759C1032.2283 802.2459 932.1283 858.3959 795.8983 858.3959ZM795.8983 748.5359C866.2083 748.5359 930.6683 720.7059 961.9183 677.7359C927.2483 651.8559 863.7683 635.2559 795.8983 635.2559C727.5383 635.2559 664.0583 651.8559 629.3983 679.1959C661.1283 720.7059 726.0783 748.5359 795.8983 748.5359Z"/>
</svg>