<?xml version="1.0" encoding="UTF-8" standalone="no"?>
<svg xmlns="http://www.w3.org/2000/svg"
     width="880.799142814363" height="1136.23046875"
     viewBox="0 0 880.799142814363 1136.23046875"
     fill="currentColor">
  <path d="M463.0744 -0.0031C358.0944 -0.0031 266.7844 43.4569 206.7244 111.8169L699.8944 604.9769C741.8844 485.3469 789.7344 423.3369 789.7344 300.7769C789.7344 132.3269 645.6944 -0.0031 463.0744 -0.0031ZM816.5944 908.2069C831.7244 923.8269 855.1644 923.3369 869.8144 908.2069C884.4644 893.5569 884.4644 870.1169 869.8144 854.9769L64.1444 49.3169C49.5044 34.1769 25.0844 35.1569 10.4344 49.3169C-3.7256 63.4769 -3.2356 88.8669 10.4344 102.5369ZM310.2444 889.1569H615.4144C634.4644 889.1569 644.2244 877.9269 646.1844 860.3469C647.1544 846.6769 649.1144 834.4769 650.5744 823.7269L138.3644 311.0369C137.8744 326.6569 138.3644 341.7969 140.3244 356.4469C158.3844 501.4669 251.6444 567.8669 279.4844 860.3469C281.4344 877.9269 291.2044 889.1569 310.2444 889.1569ZM308.2944 994.6269H617.3744C633.4844 994.6269 646.1844 981.9369 646.1844 965.8169C646.1844 950.1969 633.4844 937.4969 617.3744 937.4969H308.2944C292.1744 937.4969 279.9644 950.1969 279.9644 965.8169C279.9644 981.9369 292.1744 994.6269 308.2944 994.6269ZM463.0744 1136.2269C538.2744 1136.2269 601.7444 1099.1169 606.1444 1042.9669H319.5244C322.9344 1099.1169 386.9044 1136.2269 463.0744 1136.2269Z"/>
</svg>