<?xml version="1.0" encoding="UTF-8" standalone="no"?>
<svg xmlns="http://www.w3.org/2000/svg"
     width="653.3203125" height="1136.23046875"
     viewBox="0 0 653.3203125 1136.23046875"
     fill="currentColor">
  <path d="M653.3183 300.7769C653.3183 132.3269 509.2783 -0.0031 326.6583 -0.0031C144.0383 -0.0031 -0.0017 132.3269 -0.0017 300.7769C-0.0017 340.3369 5.3683 373.5369 14.6483 404.7869H639.1583C647.9483 373.5369 653.3183 340.3369 653.3183 300.7769ZM143.5583 860.3469C144.5283 877.9269 155.2783 889.1569 173.8283 889.1569H479.4883C498.5383 889.1569 508.7883 877.9269 510.2583 860.3469C522.4583 651.8569 578.6183 557.6169 616.2083 468.7469H37.5983C75.1983 557.6169 130.8583 651.8569 143.5583 860.3469ZM172.3683 994.6269H481.4483C497.5583 994.6269 509.7683 981.9369 509.7683 965.8169C509.7683 950.1969 497.5583 937.4969 481.4483 937.4969H172.3683C156.2483 937.4969 143.5583 950.1969 143.5583 965.8169C143.5583 981.9369 156.2483 994.6269 172.3683 994.6269ZM326.6583 1136.2269C402.3483 1136.2269 465.3283 1099.1169 470.2183 1042.9669H183.5983C187.0083 1099.1169 250.4883 1136.2269 326.6583 1136.2269Z"/>
</svg>