<?xml version="1.0" encoding="UTF-8" standalone="no"?>
<svg xmlns="http://www.w3.org/2000/svg"
     width="1200.0187456886904" height="836.9140625"
     viewBox="0 0 1200.0187456886904 836.9140625"
     fill="currentColor">
  <path d="M37.5983 76.6575H139.6483C154.2983 277.8275 300.7783 414.5475 509.2783 414.5475C718.2583 414.5475 864.2583 277.8275 878.9083 76.1675H981.4483C1001.9483 76.1675 1019.0383 59.0775 1019.0383 38.5775C1019.0383 18.0675 1001.9483 -0.0025 981.4483 -0.0025L37.5983 0.4875C16.5983 0.4875 -0.0017 18.5575 -0.0017 38.5775C-0.0017 59.0775 17.0883 76.1675 37.5983 76.6575ZM509.2783 338.3775C346.1883 338.3775 230.4683 232.9075 215.3283 76.6575L803.2183 76.1675C788.0883 232.9075 672.8483 338.3775 509.2783 338.3775ZM1134.2783 470.7075C1150.3883 486.8175 1172.3683 486.3275 1188.9683 470.2175C1204.0983 454.5875 1203.6183 432.6175 1187.9883 416.5075L929.1983 157.2275C922.8483 186.5275 914.0583 213.3775 902.3483 238.7675ZM1016.1183 588.8675C1032.2283 605.4675 1053.7083 604.4875 1070.3083 588.3775C1085.9383 572.7575 1085.4483 550.7775 1069.8283 534.6675L853.5183 318.3575C838.3783 338.8675 821.2883 357.9075 802.2483 374.5075ZM897.9483 707.0275C914.0583 722.6575 935.5483 722.6575 952.1483 707.0275C967.7783 690.4275 967.2883 668.9475 952.1483 652.8275L725.5883 426.7575C701.6583 439.4575 675.7783 449.7075 648.4383 457.5175ZM779.2983 825.1975C795.8983 840.8175 817.3783 840.8175 833.4983 825.1975C849.1183 809.0775 849.6083 787.1075 833.4983 771.4875L537.5983 476.5575C486.8183 476.5575 467.7783 478.0275 424.8083 470.2175Z"/>
</svg>