<?xml version="1.0" encoding="UTF-8" standalone="no"?>
<svg xmlns="http://www.w3.org/2000/svg"
     width="996.09375" height="996.09375"
     viewBox="0 0 996.09375 996.09375"
     fill="currentColor">
  <path d="M498.0477 996.0959C770.5077 996.0959 996.0977 770.0159 996.0977 498.0459C996.0977 225.5859 770.0177 -0.0041 497.5577 -0.0041C225.5877 -0.0041 -0.0023 225.5859 -0.0023 498.0459C-0.0023 770.0159 226.0777 996.0959 498.0477 996.0959ZM498.0477 913.0859C267.5777 913.0859 83.4977 728.5159 83.4977 498.0459C83.4977 267.5759 267.0877 83.0059 497.5577 83.0059C728.0277 83.0059 913.0877 267.5759 913.0877 498.0459C913.0877 728.5159 728.5177 913.0859 498.0477 913.0859ZM327.6377 356.9359C327.6377 454.1059 392.0877 478.0259 402.3477 646.4859C403.3177 656.2459 408.6877 662.1059 417.4777 662.1059H576.6577C586.4277 662.1059 592.2877 656.2459 592.7777 646.4859C602.5377 478.0259 667.4777 456.5459 667.4777 359.3759C667.4777 271.4859 592.2877 202.6359 497.0677 202.6359C402.3477 202.6359 327.6377 269.0459 327.6377 356.9359ZM423.3377 727.0459H571.7777C582.5177 727.0459 591.7977 717.7759 591.7977 707.0359C591.7977 696.2859 582.5177 687.4959 571.7777 687.4959H423.3377C412.5977 687.4959 403.8077 696.2859 403.8077 707.0359C403.8077 717.7759 412.5977 727.0459 423.3377 727.0459ZM497.5577 792.9659C532.7177 792.9659 558.5977 776.8559 561.5277 751.9559H433.5977C436.0377 776.8559 462.3977 792.9659 497.5577 792.9659Z"/>
</svg>