<?xml version="1.0" encoding="UTF-8" standalone="no"?>
<svg xmlns="http://www.w3.org/2000/svg"
     width="715.8203125" height="1080.078125"
     viewBox="0 0 715.8203125 1080.078125"
     fill="currentColor">
  <path d="M151.3683 -0.0019C50.2883 -0.0019 -0.0017 51.7581 -0.0017 153.3181V927.2481C-0.0017 1029.2981 50.2883 1080.0781 151.3683 1080.0781H564.4483C665.0383 1080.0781 715.8183 1029.2981 715.8183 927.2481V153.3181C715.8183 51.7581 665.0383 -0.0019 564.4483 -0.0019ZM172.8483 617.6781H540.5283C573.7283 617.6781 586.9183 630.3681 586.9183 663.0881V904.2981C586.9183 937.0081 573.7283 949.7081 540.5283 949.7081H172.8483C140.1383 949.7081 126.9483 937.0081 126.9483 904.2981V663.0881C126.9483 630.3681 140.1383 617.6781 172.8483 617.6781Z"/>
</svg>