<?xml version="1.0" encoding="UTF-8" standalone="no"?>
<svg xmlns="http://www.w3.org/2000/svg"
     width="996.09375" height="996.09375"
     viewBox="0 0 996.09375 996.09375"
     fill="currentColor">
  <path d="M498.0477 996.0959C770.5077 996.0959 996.0977 770.0159 996.0977 498.0459C996.0977 225.5859 770.0177 -0.0041 497.5577 -0.0041C225.5877 -0.0041 -0.0023 225.5859 -0.0023 498.0459C-0.0023 770.0159 226.0777 996.0959 498.0477 996.0959ZM224.6077 397.9459C202.1477 397.9459 186.0377 383.7859 186.0377 362.3059C186.0377 340.8159 202.1477 326.6559 224.6077 326.6559H773.4377C795.4077 326.6559 812.0077 340.8159 812.0077 362.3059C812.0077 383.7859 795.4077 397.9459 773.4377 397.9459ZM299.3177 564.9459C276.3677 564.9459 260.7377 550.7859 260.7377 528.8059C260.7377 507.3259 276.3677 493.1659 299.3177 493.1659H698.7277C721.1877 493.1659 736.8177 507.3259 736.8177 528.8059C736.8177 550.7859 721.1877 564.9459 698.7277 564.9459ZM376.9577 731.9359C354.4877 731.9359 338.8677 717.2859 338.8677 695.7959C338.8677 674.8059 354.4877 660.6459 376.9577 660.6459H620.6077C643.0677 660.6459 659.1777 674.8059 659.1777 695.7959C659.1777 717.2859 643.0677 731.9359 620.6077 731.9359Z"/>
</svg>