<?xml version="1.0" encoding="UTF-8" standalone="no"?>
<svg xmlns="http://www.w3.org/2000/svg"
     width="987.79296875" height="500"
     viewBox="0 0 987.79296875 500"
     fill="currentColor">
  <path d="M36.6183 73.7325H950.6883C971.1883 73.7325 987.7883 57.6125 987.7883 37.1125C987.7883 16.6025 971.1883 0.0025 950.6883 0.0025H36.6183C16.1183 0.0025 -0.0017 16.6025 -0.0017 37.1125C-0.0017 57.6125 16.1183 73.7325 36.6183 73.7325ZM36.6183 286.6225H950.6883C971.1883 286.6225 987.7883 270.5125 987.7883 250.0025C987.7883 229.0025 971.1883 212.4025 950.6883 212.4025H36.6183C16.1183 212.4025 -0.0017 229.0025 -0.0017 250.0025C-0.0017 270.5125 16.1183 286.6225 36.6183 286.6225ZM36.6183 500.0025H950.6883C971.1883 500.0025 987.7883 483.4025 987.7883 462.4025C987.7883 441.8925 971.1883 425.7825 950.6883 425.7825H36.6183C16.1183 425.7825 -0.0017 441.8925 -0.0017 462.4025C-0.0017 483.4025 16.1183 500.0025 36.6183 500.0025Z"/>
</svg>