<?xml version="1.0" encoding="UTF-8" standalone="no"?>
<svg xmlns="http://www.w3.org/2000/svg"
     width="1224.609375" height="928.7109375"
     viewBox="0 0 1224.609375 928.7109375"
     fill="currentColor">
  <path d="M-0.0017 39.5545C-0.0017 61.0345 17.5783 78.6145 39.0583 78.6145H1185.5483C1207.0283 78.6145 1224.6083 61.0345 1224.6083 39.5545C1224.6083 18.0645 1207.0283 0.0045 1185.5483 0.0045H39.0583C17.5783 0.0045 -0.0017 18.0645 -0.0017 39.5545ZM486.3283 687.9845L612.7883 595.7045L738.7683 687.9845C763.1883 706.0545 791.9883 689.4545 781.2483 657.2245L731.9383 509.2745L860.8383 416.0145C887.2083 397.4645 875.4883 366.6945 845.6983 366.6945H686.0383L639.1583 219.7245C629.8783 190.9145 595.6983 190.9145 586.9183 219.7245L539.0583 366.6945H378.9083C349.1183 366.6945 337.3983 397.4645 363.7683 416.0145L493.6483 509.2745L443.8483 657.2245C432.6183 689.4545 461.9183 706.0545 486.3283 687.9845ZM-0.0017 889.1645C-0.0017 910.6445 17.5783 928.7145 39.0583 928.7145H1185.5483C1207.0283 928.7145 1224.6083 910.6445 1224.6083 889.1645C1224.6083 867.6745 1207.0283 850.0945 1185.5483 850.0945H39.0583C17.5783 850.0945 -0.0017 867.6745 -0.0017 889.1645Z"/>
</svg>