<?xml version="1.0" encoding="UTF-8" standalone="no"?>
<svg xmlns="http://www.w3.org/2000/svg"
     width="833.49609375" height="802.24609375"
     viewBox="0 0 833.49609375 802.24609375"
     fill="currentColor">
  <path d="M25.3883 73.7275H807.6183C823.2383 73.7275 833.4983 63.9675 833.4983 48.3375V24.8975C833.4983 9.7675 823.2383 -0.0025 807.6183 -0.0025H25.3883C9.7683 -0.0025 -0.0017 9.7675 -0.0017 24.8975V48.3375C-0.0017 63.9675 9.7683 73.7275 25.3883 73.7275ZM38.0883 383.2975H795.4083C818.8483 383.2975 833.4983 369.1375 833.4983 345.7075V263.6675C833.4983 239.7475 818.8483 225.5875 795.4083 225.5875H38.0883C14.1583 225.5875 -0.0017 239.7475 -0.0017 263.6675V345.7075C-0.0017 369.1375 14.1583 383.2975 38.0883 383.2975ZM38.0883 802.2475H795.4083C818.8483 802.2475 833.4983 788.0875 833.4983 764.1575V570.3075C833.4983 546.3875 818.8483 532.2275 795.4083 532.2275H38.0883C14.1583 532.2275 -0.0017 546.3875 -0.0017 570.3075V764.1575C-0.0017 788.0875 14.1583 802.2475 38.0883 802.2475Z"/>
</svg>