<?xml version="1.0" encoding="UTF-8" standalone="no"?>
<svg xmlns="http://www.w3.org/2000/svg"
     width="996.09375" height="996.09375"
     viewBox="0 0 996.09375 996.09375"
     fill="currentColor">
  <path d="M498.0477 996.0959C770.5077 996.0959 996.0977 770.0159 996.0977 498.0459C996.0977 225.5859 770.0177 -0.0041 497.5577 -0.0041C225.5877 -0.0041 -0.0023 225.5859 -0.0023 498.0459C-0.0023 770.0159 226.0777 996.0959 498.0477 996.0959ZM498.0477 913.0859C267.5777 913.0859 83.4977 728.5159 83.4977 498.0459C83.4977 267.5759 267.0877 83.0059 497.5577 83.0059C728.0277 83.0059 913.0877 267.5759 913.0877 498.0459C913.0877 728.5159 728.5177 913.0859 498.0477 913.0859ZM232.4177 470.7059H764.6477C786.1377 470.7059 801.7577 456.5459 801.7577 436.0359C801.7577 415.5259 786.1377 401.8559 764.6477 401.8559H232.4177C210.4477 401.8559 195.3077 415.5259 195.3077 436.0359C195.3077 456.5459 210.4477 470.7059 232.4177 470.7059ZM304.6877 632.3259H692.3877C713.8677 632.3259 729.0077 618.1659 729.0077 597.6559C729.0077 577.1459 713.8677 563.4759 692.3877 563.4759H304.6877C282.7177 563.4759 267.5777 577.1459 267.5777 597.6559C267.5777 618.1659 282.7177 632.3259 304.6877 632.3259Z"/>
</svg>