<?xml version="1.0" encoding="UTF-8" standalone="no"?>
<svg xmlns="http://www.w3.org/2000/svg"
     width="1120.1171875" height="876.46484375"
     viewBox="0 0 1120.1171875 876.46484375"
     fill="currentColor">
  <path d="M560.0583 876.4673C592.7783 876.4673 610.3483 859.3773 610.3483 826.6573V49.8073C610.3483 17.0873 592.7783 -0.0027 560.0583 -0.0027C527.3483 -0.0027 509.7683 17.0873 509.7683 49.8073V826.6573C509.7683 859.3773 527.3483 876.4673 560.0583 876.4673ZM50.2883 682.1273C83.0083 682.1273 100.0983 665.0373 100.0983 632.3273V244.1373C100.0983 211.4273 83.0083 194.3373 50.2883 194.3373C17.0883 194.3373 -0.0017 211.4273 -0.0017 244.1373V632.3273C-0.0017 665.0373 17.0883 682.1273 50.2883 682.1273ZM1069.8283 682.1273C1103.0283 682.1273 1120.1183 665.0373 1120.1183 632.3273V244.1373C1120.1183 211.4273 1103.0283 194.3373 1069.8283 194.3373C1037.1083 194.3373 1020.0183 211.4273 1020.0183 244.1373V632.3273C1020.0183 665.0373 1037.1083 682.1273 1069.8283 682.1273ZM305.1783 559.0773C337.8883 559.0773 354.9783 541.9873 354.9783 508.7873V367.6773C354.9783 334.4773 337.8883 317.3873 305.1783 317.3873C272.4583 317.3873 255.3683 334.4773 255.3683 367.6773V508.7873C255.3683 541.9873 272.4583 559.0773 305.1783 559.0773ZM814.9383 559.0773C847.6583 559.0773 864.7483 541.9873 864.7483 508.7873V367.6773C864.7483 334.4773 847.6583 317.3873 814.9383 317.3873C782.2283 317.3873 765.1383 334.4773 765.1383 367.6773V508.7873C765.1383 541.9873 782.2283 559.0773 814.9383 559.0773Z"/>
</svg>