<?xml version="1.0" encoding="UTF-8" standalone="no"?>
<svg xmlns="http://www.w3.org/2000/svg"
     width="1227.5390625" height="848.6328125"
     viewBox="0 0 1227.5390625 848.6328125"
     fill="currentColor">
  <path d="M964.8477 848.6363C1112.3077 848.6363 1227.5377 740.7262 1227.5377 606.4463C1227.5377 503.9063 1168.4577 415.0363 1073.2377 374.9962C1074.2177 157.2263 917.4777 -0.0037 717.7777 -0.0037C585.4477 -0.0037 491.2077 70.7962 432.6177 156.2463C312.4977 121.0963 181.6377 212.4063 179.1977 349.1163C68.8477 366.6963 -0.0023 465.3363 -0.0023 584.4762C-0.0023 728.0263 125.4877 848.6363 292.4777 848.6363ZM834.9577 229.0063C887.6977 281.7363 888.1877 357.9063 834.9577 411.1363L751.4677 494.6263C761.7177 467.7763 762.6977 442.8663 756.3477 419.4363L797.8477 378.4163C831.0577 345.7063 831.5477 298.8262 797.8477 265.6263C764.6477 232.9063 718.7477 232.4263 685.0577 266.1163L590.8177 360.3563C557.1277 394.0463 556.1477 441.4063 590.3277 473.1463C606.9377 488.7663 625.4877 496.5863 644.0477 496.5863C639.6477 503.9063 638.1877 506.3463 629.8877 516.1163L604.4877 541.0163C590.8177 537.1063 571.2877 526.8563 553.7077 510.2563C499.5077 457.5163 499.9977 380.3663 553.2277 327.1463L651.8577 228.5163C705.5677 175.2962 781.2477 175.2962 834.9577 229.0063ZM417.9677 645.0163C364.7477 591.7963 364.7477 515.6263 417.9677 462.4063L501.4677 379.3963C491.2077 406.2462 490.2377 431.1563 496.5777 454.1063L455.0777 495.6063C421.8777 528.8063 421.3877 575.1963 455.0777 608.3963C488.2777 641.1163 534.6677 641.6063 567.8677 608.3963L662.5977 513.6763C696.2877 479.4963 696.7777 432.6163 662.5977 400.8763C645.0177 384.2763 625.9777 376.4663 605.4677 379.3963C612.3077 370.1163 619.1377 362.7963 623.5377 357.9063L648.9277 333.0063C663.5777 336.9163 682.6177 347.1663 699.7077 363.7663C754.3977 416.5063 753.4177 493.6563 699.7077 546.8763L601.0777 645.0163C547.3677 698.2463 471.6777 698.2463 417.9677 645.0163Z"/>
</svg>