<?xml version="1.0" encoding="UTF-8" standalone="no"?>
<svg xmlns="http://www.w3.org/2000/svg"
     width="996.09375" height="996.09375"
     viewBox="0 0 996.09375 996.09375"
     fill="currentColor">
  <path d="M498.0477 996.0959C770.5077 996.0959 996.0977 770.0159 996.0977 498.0459C996.0977 225.5859 770.0177 -0.0041 497.5577 -0.0041C225.5877 -0.0041 -0.0023 225.5859 -0.0023 498.0459C-0.0023 770.0159 226.0777 996.0959 498.0477 996.0959ZM498.0477 913.0859C267.5777 913.0859 83.4977 728.5159 83.4977 498.0459C83.4977 267.5759 267.0877 83.0059 497.5577 83.0059C728.0277 83.0059 913.0877 267.5759 913.0877 498.0459C913.0877 728.5159 728.5177 913.0859 498.0477 913.0859ZM719.2377 266.6059C658.2077 206.0559 582.0277 210.9359 511.2277 282.2259L437.9877 354.4959C365.7277 426.7559 359.8677 502.9259 421.8777 564.4559C438.4777 582.0359 457.5177 593.2659 471.1877 596.1959C484.8677 585.9359 501.4677 567.8759 509.2777 551.2659C486.8177 547.8559 469.7277 540.0359 458.0077 528.3159C419.9177 490.2359 425.7777 438.9659 475.5877 390.1359L546.3877 319.3359C594.2377 271.4859 644.5277 266.1159 683.1077 303.7059C721.1877 341.7959 716.7977 392.5759 667.4777 440.4259L617.1877 490.2359C624.9977 509.2759 625.4877 537.1059 617.6777 561.5259L704.5877 475.0959C775.3877 404.2959 781.2477 328.1259 719.2377 266.6059ZM259.2777 728.0259C320.3077 788.5759 396.4877 783.6959 467.2877 712.4059L540.5277 639.6459C612.7977 567.8759 618.6477 491.2059 556.6377 429.6859C540.0377 412.5959 520.9977 400.8759 507.3277 398.4359C493.6477 408.2059 477.0477 426.2659 469.2377 443.3559C491.6977 446.7759 508.7877 454.5859 520.5077 465.8159C558.5977 504.3959 552.7377 555.1759 502.9277 604.4959L432.1277 675.2959C384.2777 723.1459 333.9877 728.5159 295.4077 690.9159C257.3277 652.8359 261.7177 602.0459 311.0377 554.1959L361.3277 503.9059C353.5177 485.3559 353.0277 457.0359 360.8377 433.1059L273.9277 519.0459C203.1277 590.3359 197.2677 666.5059 259.2777 728.0259Z"/>
</svg>