<?xml version="1.0" encoding="UTF-8" standalone="no"?>
<svg xmlns="http://www.w3.org/2000/svg"
     width="996.09375" height="996.09375"
     viewBox="0 0 996.09375 996.09375"
     fill="currentColor">
  <path d="M498.0477 996.0959C770.5077 996.0959 996.0977 770.0159 996.0977 498.0459C996.0977 225.5859 770.0177 -0.0041 497.5577 -0.0041C225.5877 -0.0041 -0.0023 225.5859 -0.0023 498.0459C-0.0023 770.0159 226.0777 996.0959 498.0477 996.0959ZM498.0477 913.0859C267.5777 913.0859 83.4977 728.5159 83.4977 498.0459C83.4977 267.5759 267.0877 83.0059 497.5577 83.0059C728.0277 83.0059 913.0877 267.5759 913.0877 498.0459C913.0877 728.5159 728.5177 913.0859 498.0477 913.0859ZM319.8277 699.2159C319.8277 716.3059 331.0577 728.0259 348.6377 728.0259H643.5577C661.1377 728.0259 673.3377 716.3059 673.3377 699.2159C673.3377 682.1259 661.1377 670.8959 643.5577 670.8959H432.6177C453.6177 653.8059 468.2577 624.0259 472.6577 592.2859C473.6377 584.4759 474.1177 577.1459 474.1177 569.8259H590.8177C606.9377 569.8259 618.1677 559.0859 618.1677 543.4559C618.1677 527.8359 606.9377 517.5759 590.8177 517.5759H468.7477C465.3277 502.9259 461.4277 488.7659 458.0077 475.0959H590.8177C606.9377 475.0959 618.1677 464.3559 618.1677 448.7259C618.1677 433.1059 606.9377 422.8559 590.8177 422.8559H449.2177C448.7277 417.9659 448.2377 413.0859 448.2377 408.2059C448.2377 355.4659 485.8377 319.3359 550.2977 319.3359C586.4277 319.3359 607.9077 328.1259 623.0477 330.0759C641.1177 331.0559 650.8777 320.3159 650.8777 304.1959C650.8777 291.5059 644.5277 281.2459 627.4377 274.4159C604.4877 265.1359 576.6577 261.7159 546.8777 261.7159C445.7977 261.7159 384.2777 320.3159 384.2777 412.1059C384.2777 416.0159 384.7677 418.9459 385.2577 422.8559H348.1477C332.5177 422.8559 320.7977 433.1059 320.7977 448.7259C320.7977 464.3559 332.5177 475.0959 348.1477 475.0959H393.5577C396.4877 489.2559 400.8777 503.4159 404.2977 517.5759H348.1477C332.5177 517.5759 320.7977 527.8359 320.7977 543.4559C320.7977 559.0859 332.5177 569.8259 348.1477 569.8259H412.1077C412.5977 575.1959 412.1077 580.0759 411.6177 585.9359C406.7377 628.9059 378.4177 658.2059 345.2177 667.4759C327.1477 673.3359 319.8277 683.1059 319.8277 699.2159Z"/>
</svg>