<?xml version="1.0" encoding="UTF-8" standalone="no"?>
<svg xmlns="http://www.w3.org/2000/svg"
     width="996.09375" height="996.09375"
     viewBox="0 0 996.09375 996.09375"
     fill="currentColor">
  <path d="M498.0477 996.0959C770.5077 996.0959 996.0977 770.0159 996.0977 498.0459C996.0977 225.5859 770.0177 -0.0041 497.5577 -0.0041C225.5877 -0.0041 -0.0023 225.5859 -0.0023 498.0459C-0.0023 770.0159 226.0777 996.0959 498.0477 996.0959ZM253.9077 375.4859C229.9777 375.4859 210.9377 355.9559 210.9377 332.0359C210.9377 307.6159 229.9777 288.5759 253.9077 288.5759C278.3177 288.5759 297.3677 307.6159 297.3677 332.0359C297.3677 355.4659 277.8277 375.4859 253.9077 375.4859ZM375.4877 362.7959C358.8877 362.7959 345.2177 348.6359 345.2177 332.0359C345.2177 314.9459 357.9077 301.7559 375.4877 301.7559H752.4377C770.0177 301.7559 783.6877 314.9459 783.6877 332.0359C783.6877 349.1259 770.0177 362.7959 752.4377 362.7959ZM253.9077 541.9959C229.9777 541.9959 210.9377 522.9459 210.9377 498.5359C210.9377 474.1259 229.9777 455.0759 253.9077 455.0759C277.8277 455.0759 297.3677 474.6059 297.3677 498.5359C297.3677 522.4559 277.8277 541.9959 253.9077 541.9959ZM375.4877 529.2959C358.8877 529.2959 345.2177 515.1359 345.2177 498.5359C345.2177 481.9359 358.8877 468.2659 375.4877 468.2659H752.4377C770.0177 468.2659 783.6877 481.4459 783.6877 498.5359C783.6877 515.6259 770.0177 529.2959 752.4377 529.2959ZM253.9077 708.4959C229.9777 708.4959 210.9377 689.4559 210.9377 665.0359C210.9377 641.1159 229.9777 621.5859 253.9077 621.5859C277.8277 621.5859 297.3677 641.6059 297.3677 665.0359C297.3677 689.4559 278.3177 708.4959 253.9077 708.4959ZM375.4877 695.7959C357.9077 695.7959 345.2177 682.1259 345.2177 665.0359C345.2177 648.4359 358.8877 634.7659 375.4877 634.7659H752.4377C770.0177 634.7659 783.6877 647.9459 783.6877 665.0359C783.6877 682.1259 770.0177 695.7959 752.4377 695.7959Z"/>
</svg>