<?xml version="1.0" encoding="UTF-8" standalone="no"?>
<svg xmlns="http://www.w3.org/2000/svg"
     width="1151.3671875" height="898.92578125"
     viewBox="0 0 1151.3671875 898.92578125"
     fill="currentColor">
  <path d="M153.3183 898.9278H998.0483C1100.5883 898.9278 1151.3683 848.6378 1151.3683 748.0478V151.3678C1151.3683 50.7778 1100.5883 -0.0022 998.0483 -0.0022H153.3183C51.2683 -0.0022 -0.0017 50.7778 -0.0017 151.3678V748.0478C-0.0017 848.6378 51.2683 898.9278 153.3183 898.9278ZM220.6983 262.2078C195.7983 262.2078 174.3183 240.2378 174.3183 215.3278C174.3183 189.4578 195.7983 168.4578 220.6983 168.4578C247.0683 168.4578 268.0683 188.9678 268.0683 215.3278C268.0683 240.7178 247.0683 262.2078 220.6983 262.2078ZM372.5583 246.0978C354.4883 246.0978 340.8183 232.4178 340.8183 215.3278C340.8183 197.2678 354.9783 183.1078 372.5583 183.1078H948.2383C965.8183 183.1078 979.9783 197.2678 979.9783 215.3278C979.9783 232.4178 966.3083 246.0978 948.2383 246.0978ZM220.6983 416.0178C195.7983 416.0178 174.3183 394.5278 174.3183 369.1378C174.3183 343.2578 195.7983 322.2678 220.6983 322.2678C247.0683 322.2678 268.0683 342.7778 268.0683 369.1378C268.0683 395.0178 247.0683 416.0178 220.6983 416.0178ZM372.5583 400.3878C354.9783 400.3878 340.8183 386.2278 340.8183 369.1378C340.8183 352.0478 354.9783 337.3978 372.5583 337.3978H691.4083C708.4983 337.3978 722.6583 352.0478 722.6583 369.1378C722.6583 386.2278 708.4983 400.3878 691.4083 400.3878ZM220.6983 569.3378C195.3083 569.3378 174.3183 548.8278 174.3183 522.4578C174.3183 497.5578 195.3083 476.0778 220.6983 476.0778C247.0683 476.0778 268.0683 497.0678 268.0683 522.4578C268.0683 548.8278 247.0683 569.3378 220.6983 569.3378ZM372.5583 554.6878C354.4883 554.6878 340.8183 541.0178 340.8183 522.4578C340.8183 505.3678 354.4883 491.6978 372.5583 491.6978H948.2383C966.3083 491.6978 979.9783 505.3678 979.9783 522.4578C979.9783 541.0178 966.3083 554.6878 948.2383 554.6878ZM220.6983 730.9578C195.7983 730.9578 174.3183 709.4678 174.3183 684.0778C174.3183 658.6878 195.7983 636.7178 220.6983 636.7178C247.0683 636.7178 268.0683 658.2078 268.0683 684.0778C268.0683 709.9578 247.0683 730.9578 220.6983 730.9578ZM372.5583 715.8178C354.9783 715.8178 340.8183 701.6578 340.8183 684.0778C340.8183 666.5078 354.4883 652.8278 372.5583 652.8278H691.4083C708.9883 652.8278 722.6583 666.5078 722.6583 684.0778C722.6583 701.6578 708.4983 715.8178 691.4083 715.8178Z"/>
</svg>