<?xml version="1.0" encoding="UTF-8" standalone="no"?>
<svg xmlns="http://www.w3.org/2000/svg"
     width="934.5703125" height="900.87890625"
     viewBox="0 0 934.5703125 900.87890625"
     fill="currentColor">
  <path d="M135.2583 -0.005C35.6483 -0.005 -0.0017 43.455 -0.0017 138.185V365.235C-0.0017 459.965 35.6483 503.415 135.2583 503.415H799.3183C898.9283 503.415 934.5683 459.965 934.5683 365.235V138.185C934.5683 43.455 898.9283 -0.005 799.3183 -0.005ZM78.6183 367.675V135.745C78.6183 92.285 92.7783 73.245 135.7383 73.245H798.8283C841.7983 73.245 855.9583 92.285 855.9583 135.745V367.675C855.9583 411.135 841.7983 430.175 798.8283 430.175H135.7383C92.7783 430.175 78.6183 411.135 78.6183 367.675ZM115.2383 656.735C115.2383 627.925 91.7983 604.005 62.0083 604.005C33.1983 604.005 9.7683 627.925 9.7683 656.735C9.7683 686.035 33.1983 708.985 62.0083 708.985C91.7983 708.985 115.2383 686.035 115.2383 656.735ZM916.9883 656.735C916.9883 635.255 899.4183 619.145 875.4883 619.145H218.2583C194.3383 619.145 176.7583 635.255 176.7583 656.735C176.7583 678.225 194.3383 694.825 218.2583 694.825H875.4883C899.4183 694.825 916.9883 678.225 916.9883 656.735ZM115.2383 848.145C115.2383 819.335 91.7983 794.925 62.0083 794.925C33.1983 794.925 9.7683 819.335 9.7683 848.145C9.7683 877.445 33.1983 900.875 62.0083 900.875C91.7983 900.875 115.2383 877.445 115.2383 848.145ZM916.9883 848.145C916.9883 826.665 899.4183 810.545 875.4883 810.545H218.2583C194.3383 810.545 176.7583 826.665 176.7583 848.145C176.7583 869.625 194.3383 886.235 218.2583 886.235H875.4883C899.4183 886.235 916.9883 869.625 916.9883 848.145Z"/>
</svg>