<?xml version="1.0" encoding="UTF-8" standalone="no"?>
<svg xmlns="http://www.w3.org/2000/svg"
     width="1151.3671875" height="898.92578125"
     viewBox="0 0 1151.3671875 898.92578125"
     fill="currentColor">
  <path d="M153.3183 898.9278H998.0483C1100.5883 898.9278 1151.3683 848.6378 1151.3683 748.0478V151.3678C1151.3683 50.7778 1100.5883 -0.0022 998.0483 -0.0022H153.3183C51.2683 -0.0022 -0.0017 50.7778 -0.0017 151.3678V748.0478C-0.0017 848.6378 51.2683 898.9278 153.3183 898.9278ZM154.2983 820.3078C105.4683 820.3078 78.6183 794.4378 78.6183 743.6478V155.7578C78.6183 104.9778 105.4683 78.6178 154.2983 78.6178H997.0683C1045.4083 78.6178 1072.7583 104.9778 1072.7583 155.7578V743.6478C1072.7583 794.4378 1045.4083 820.3078 997.0683 820.3078ZM244.1383 278.3178H303.2183C323.7283 278.3178 340.8183 261.2278 340.8183 240.7178C340.8183 220.2178 323.2383 203.1278 303.2183 203.1278H244.1383C223.1483 203.1278 207.0283 220.2178 207.0283 240.7178C207.0283 261.2278 223.6283 278.3178 244.1383 278.3178ZM439.9383 271.4878H913.5783C930.6683 271.4878 943.8483 257.8078 943.8483 240.7178C943.8483 223.6278 930.6683 210.4478 913.5783 210.4478H439.9383C422.8483 210.4478 409.6683 223.6278 409.6683 240.7178C409.6683 257.8078 422.8483 271.4878 439.9383 271.4878ZM244.1383 440.9178H303.2183C323.2383 440.9178 340.8183 424.3178 340.8183 403.8078C340.8183 383.2978 323.7283 366.6978 303.2183 366.6978H244.1383C223.1483 366.6978 207.0283 383.2978 207.0283 403.8078C207.0283 424.3178 223.1483 440.9178 244.1383 440.9178ZM439.9383 434.5678H913.5783C930.6683 434.5678 943.8483 421.3878 943.8483 403.8078C943.8483 386.7178 930.6683 373.0478 913.5783 373.0478H439.9383C423.3383 373.0478 409.6683 386.2278 409.6683 403.8078C409.6683 420.8978 422.8483 434.5678 439.9383 434.5678Z"/>
</svg>