<?xml version="1.0" encoding="UTF-8" standalone="no"?>
<svg xmlns="http://www.w3.org/2000/svg"
     width="983.88671875" height="822.75390625"
     viewBox="0 0 983.88671875 822.75390625"
     fill="currentColor">
  <path d="M106.4483 224.1192C124.9983 224.1192 138.1883 213.3792 138.1883 191.4092V33.6892C138.1883 13.1792 123.5383 -0.0008 102.0483 -0.0008C84.9583 -0.0008 74.2183 5.8592 62.0083 14.1592L27.3483 38.0892C17.5783 44.9192 12.2083 51.2692 12.2083 61.5192C12.2083 74.2192 21.9683 83.0092 33.1983 83.0092C39.5483 83.0092 42.4783 82.0292 50.7783 76.1692L73.2383 61.0392H74.2183V191.4092C74.2183 213.3792 86.9183 224.1192 106.4483 224.1192ZM300.2883 165.0392H944.3383C966.3083 165.0392 983.8883 147.9492 983.8883 125.9792C983.8883 103.5192 966.3083 86.4292 944.3383 86.4292H300.2883C278.3183 86.4292 260.7383 103.5192 260.7383 125.9792C260.7383 147.9492 278.3183 165.0392 300.2883 165.0392ZM27.8283 518.5592H153.3183C166.5083 518.5592 176.7583 509.2792 176.7583 495.6092C176.7583 480.9592 166.9883 471.6792 153.3183 471.6792H83.4983V470.2192L123.5383 437.9892C156.7383 410.6492 169.9183 395.0192 169.9183 366.2092C169.9183 327.1492 137.2083 300.7792 84.4683 300.7792C37.5983 300.7792 3.9083 325.1992 3.9083 356.4492C3.9083 372.0692 14.1583 380.3692 30.7583 380.3692C41.9883 380.3692 49.3183 376.9492 56.1483 365.7192C62.9883 353.9992 71.7783 347.6592 85.4483 347.6592C99.6083 347.6592 109.8683 356.9292 109.8683 370.6092C109.8683 382.3192 104.0083 392.5792 78.6183 412.5992L14.6483 465.3292C4.8783 473.1492 0.9783 481.9292 0.9783 492.6792C0.9783 507.8092 11.7183 518.5592 27.8283 518.5592ZM300.2883 460.4492H944.3383C966.3083 460.4492 983.8883 442.8692 983.8883 420.8992C983.8883 398.9292 966.3083 381.8392 944.3383 381.8392H300.2883C278.3183 381.8392 260.7383 398.9292 260.7383 420.8992C260.7383 442.8692 278.3183 460.4492 300.2883 460.4492ZM85.4483 822.7492C143.5583 822.7492 177.7383 796.8792 177.7383 755.8592C177.7383 728.9992 159.1783 710.4492 125.4883 707.5192V706.0592C149.8983 701.6592 169.4383 685.0592 169.4383 656.7392C169.4383 619.6292 133.2983 599.1192 84.9583 599.1192C46.8783 599.1192 5.3683 617.1892 5.3683 649.4092C5.3683 663.0892 15.1383 672.8492 30.2783 672.8492C41.0183 672.8492 45.8983 668.4592 52.7383 661.1292C63.9683 648.9292 72.7583 645.0192 84.9583 645.0192C100.0983 645.0192 111.3283 652.3392 111.3283 666.9892C111.3283 680.6592 99.6083 687.4992 79.5883 687.4992H74.2183C60.5483 687.4992 51.7583 694.3392 51.7583 708.4992C51.7583 721.6792 60.0583 729.4892 74.2183 729.4892H80.5683C102.5383 729.4892 114.2583 736.8192 114.2583 751.9492C114.2583 765.1392 102.0483 774.8992 85.4483 774.8992C68.3583 774.8992 56.1483 765.1392 46.8783 755.8592C41.0183 750.4892 36.1283 746.5792 26.8583 746.5792C11.2283 746.5792 -0.0017 755.8592 -0.0017 770.9992C-0.0017 804.6892 45.8983 822.7492 85.4483 822.7492ZM300.2883 755.3692H944.3383C966.3083 755.3692 983.8883 738.2792 983.8883 716.3092C983.8883 693.8492 966.3083 676.7592 944.3383 676.7592H300.2883C278.3183 676.7592 260.7383 693.8492 260.7383 716.3092C260.7383 738.2792 278.3183 755.3692 300.2883 755.3692Z"/>
</svg>