<?xml version="1.0" encoding="UTF-8" standalone="no"?>
<svg xmlns="http://www.w3.org/2000/svg"
     width="821.2890625" height="1183.10546875"
     viewBox="0 0 821.2890625 1183.10546875"
     fill="currentColor">
  <path d="M259.7683 248.048H561.5283C589.8483 248.048 606.9383 229.978 606.9383 199.708V148.438C606.9383 118.168 589.8483 100.098 561.5283 100.098H516.5983C513.1883 44.918 467.2883 -0.002 410.6483 -0.002C354.0083 -0.002 308.1083 44.918 304.6883 100.098H259.7683C231.4483 100.098 214.3583 118.168 214.3583 148.438V199.708C214.3583 229.978 231.4483 248.048 259.7683 248.048ZM410.6483 146.488C387.2083 146.488 368.1683 126.958 368.1683 104.008C368.1683 80.078 387.2083 61.038 410.6483 61.038C434.0783 61.038 453.1283 80.078 453.1283 104.008C453.1283 126.958 434.0783 146.488 410.6483 146.488ZM151.3683 1183.108H669.9183C770.9983 1183.108 821.2883 1132.328 821.2883 1029.788V289.548C821.2883 189.458 772.9483 136.228 675.2883 136.228H663.5783C664.0583 140.138 664.0583 144.528 664.0583 148.438V192.378C664.0583 200.198 663.5783 208.008 662.1083 214.848H673.8283C719.7283 214.848 742.6783 244.628 742.6783 290.528V1028.808C742.6783 1077.638 716.7983 1104.488 666.0183 1104.488H155.2783C104.4883 1104.488 78.6183 1077.638 78.6183 1028.808V290.528C78.6183 244.628 101.5583 214.848 147.4583 214.848H159.1783C157.7183 208.008 157.2283 200.198 157.2283 192.378V148.438C157.2283 144.528 157.2283 140.138 157.7183 136.228H145.9983C48.3383 136.228 -0.0017 189.458 -0.0017 289.548V1029.788C-0.0017 1132.328 50.2883 1183.108 151.3683 1183.108ZM195.3083 520.508H625.9783C642.5783 520.508 656.7383 506.838 656.7383 490.238C656.7383 473.628 642.5783 459.468 625.9783 459.468H195.3083C178.7083 459.468 164.5483 473.628 164.5483 490.238C164.5483 506.838 178.7083 520.508 195.3083 520.508ZM195.3083 693.848H625.9783C643.0683 693.848 656.7383 680.178 656.7383 663.088C656.7383 646.488 643.0683 633.298 625.9783 633.298H195.3083C178.2183 633.298 164.5483 646.488 164.5483 663.088C164.5483 680.178 178.2183 693.848 195.3083 693.848ZM195.3083 876.468H412.1083C428.7083 876.468 442.3783 862.788 442.3783 846.188C442.3783 829.588 429.1983 815.918 412.1083 815.918H195.3083C178.2183 815.918 164.5483 829.588 164.5483 846.188C164.5483 862.788 178.7083 876.468 195.3083 876.468Z"/>
</svg>