<?xml version="1.0" encoding="UTF-8" standalone="no"?>
<svg xmlns="http://www.w3.org/2000/svg"
     width="996.09375" height="996.09375"
     viewBox="0 0 996.09375 996.09375"
     fill="currentColor">
  <path d="M498.0477 996.0959C770.5077 996.0959 996.0977 770.0159 996.0977 498.0459C996.0977 225.5859 770.0177 -0.0041 497.5577 -0.0041C225.5877 -0.0041 -0.0023 225.5859 -0.0023 498.0459C-0.0023 770.0159 226.0777 996.0959 498.0477 996.0959ZM498.0477 913.0859C267.5777 913.0859 83.4977 728.5159 83.4977 498.0459C83.4977 267.5759 267.0877 83.0059 497.5577 83.0059C728.0277 83.0059 913.0877 267.5759 913.0877 498.0459C913.0877 728.5159 728.5177 913.0859 498.0477 913.0859ZM261.2277 378.9059C284.1777 378.9059 303.2277 359.3759 303.2277 336.9159C303.2277 313.4759 284.6677 294.9259 261.2277 294.9259C237.7977 294.9259 219.2377 313.4759 219.2377 336.9159C219.2377 359.8659 237.7977 378.9059 261.2277 378.9059ZM378.9077 366.2059H745.1177C761.7177 366.2059 774.8977 353.5159 774.8977 336.9159C774.8977 319.8259 761.7177 307.1259 745.1177 307.1259H378.9077C362.3077 307.1259 349.6077 320.3159 349.6077 336.9159C349.6077 353.0259 362.7977 366.2059 378.9077 366.2059ZM261.2277 540.5259C284.1777 540.5259 303.2277 520.9959 303.2277 498.5359C303.2277 475.5859 284.1777 456.5459 261.2277 456.5459C237.7977 456.5459 219.2377 475.0959 219.2377 498.5359C219.2377 521.4859 237.7977 540.5259 261.2277 540.5259ZM378.9077 527.8359H745.1177C761.7177 527.8359 774.8977 515.1359 774.8977 498.5359C774.8977 481.4459 761.7177 468.7459 745.1177 468.7459H378.9077C362.7977 468.7459 349.6077 482.4259 349.6077 498.5359C349.6077 514.6459 362.7977 527.8359 378.9077 527.8359ZM261.2277 702.1459C284.6677 702.1459 303.2277 683.1059 303.2277 660.1559C303.2277 637.2059 284.1777 618.1659 261.2277 618.1659C237.7977 618.1659 219.2377 636.7159 219.2377 660.1559C219.2377 683.1059 237.7977 702.1459 261.2277 702.1459ZM378.9077 689.4559H745.1177C761.7177 689.4559 774.8977 676.7559 774.8977 660.1559C774.8977 643.0659 761.7177 630.3759 745.1177 630.3759H378.9077C362.7977 630.3759 349.6077 644.0459 349.6077 660.1559C349.6077 676.7559 362.3077 689.4559 378.9077 689.4559Z"/>
</svg>