<?xml version="1.0" encoding="UTF-8" standalone="no"?>
<svg xmlns="http://www.w3.org/2000/svg"
     width="821.2890625" height="1183.10546875"
     viewBox="0 0 821.2890625 1183.10546875"
     fill="currentColor">
  <path d="M259.7683 248.048H561.5283C589.8483 248.048 606.9383 229.978 606.9383 199.708V148.438C606.9383 118.168 589.8483 100.098 561.5283 100.098H516.5983C513.1883 44.918 467.2883 -0.002 410.6483 -0.002C354.0083 -0.002 308.1083 44.918 304.6883 100.098H259.7683C231.4483 100.098 214.3583 118.168 214.3583 148.438V199.708C214.3583 229.978 231.4483 248.048 259.7683 248.048ZM410.6483 146.488C387.2083 146.488 368.1683 126.958 368.1683 104.008C368.1683 80.078 387.2083 61.038 410.6483 61.038C434.0783 61.038 453.1283 80.078 453.1283 104.008C453.1283 126.958 434.0783 146.488 410.6483 146.488ZM151.3683 1183.108H669.9183C770.9983 1183.108 821.2883 1132.328 821.2883 1029.788V289.548C821.2883 189.458 772.9483 136.228 675.2883 136.228H663.5783C664.0583 140.138 664.0583 144.528 664.0583 148.438V192.378C664.0583 200.198 663.5783 208.008 662.1083 214.848H673.8283C719.7283 214.848 742.6783 244.628 742.6783 290.528V1028.808C742.6783 1077.638 716.7983 1104.488 666.0183 1104.488H155.2783C104.4883 1104.488 78.6183 1077.638 78.6183 1028.808V290.528C78.6183 244.628 101.5583 214.848 147.4583 214.848H159.1783C157.7183 208.008 157.2283 200.198 157.2283 192.378V148.438C157.2283 144.528 157.2283 140.138 157.7183 136.228H145.9983C48.3383 136.228 -0.0017 189.458 -0.0017 289.548V1029.788C-0.0017 1132.328 50.2883 1183.108 151.3683 1183.108ZM204.5883 531.738C227.5383 531.738 246.0983 513.188 246.0983 490.238C246.0983 467.288 227.5383 448.728 204.5883 448.728C182.1283 448.728 163.0883 467.778 163.0883 490.238C163.0883 512.698 182.1283 531.738 204.5883 531.738ZM334.9583 520.508H627.9283C644.5283 520.508 658.1983 506.838 658.1983 490.238C658.1983 473.628 644.5283 459.468 627.9283 459.468H334.9583C318.3583 459.468 304.1983 473.628 304.1983 490.238C304.1983 506.838 318.3583 520.508 334.9583 520.508ZM204.5883 704.588C227.5383 704.588 246.0983 686.038 246.0983 663.088C246.0983 640.138 227.5383 622.068 204.5883 622.068C181.6383 622.068 163.0883 640.628 163.0883 663.088C163.0883 686.038 181.6383 704.588 204.5883 704.588ZM334.9583 693.848H627.9283C645.0183 693.848 658.1983 680.178 658.1983 663.088C658.1983 646.488 645.0183 633.298 627.9283 633.298H334.9583C317.8683 633.298 304.1983 646.488 304.1983 663.088C304.1983 680.178 317.8683 693.848 334.9583 693.848ZM204.5883 887.698C227.5383 887.698 246.0983 869.138 246.0983 846.188C246.0983 823.238 227.5383 804.688 204.5883 804.688C182.1283 804.688 163.0883 823.728 163.0883 846.188C163.0883 868.648 182.1283 887.698 204.5883 887.698ZM334.9583 876.468H627.9283C644.5283 876.468 658.1983 862.788 658.1983 846.188C658.1983 829.588 645.0183 815.918 627.9283 815.918H334.9583C317.8683 815.918 304.1983 829.588 304.1983 846.188C304.1983 862.788 318.3583 876.468 334.9583 876.468Z"/>
</svg>