<?xml version="1.0" encoding="UTF-8" standalone="no"?>
<svg xmlns="http://www.w3.org/2000/svg"
     width="1085.44921875" height="1084.9609375"
     viewBox="0 0 1085.44921875 1084.9609375"
     fill="currentColor">
  <path d="M542.9677 50.783C557.1277 50.783 568.3577 39.553 568.3577 25.883C568.3577 12.203 557.1277 0.003 542.9677 0.003C529.7877 0.003 517.5777 12.203 517.5777 25.883C517.5777 39.553 529.7877 50.783 542.9677 50.783ZM452.6377 58.593C466.7977 58.593 477.5377 46.873 477.5377 33.693C477.5377 20.023 466.7977 7.813 452.6377 7.813C439.4577 7.813 427.7377 20.023 427.7377 33.693C427.7377 46.873 439.4577 58.593 452.6377 58.593ZM633.2977 58.593C646.4877 58.593 658.6877 46.873 658.6877 33.693C658.6877 20.023 646.4877 7.813 633.2977 7.813C618.6477 7.813 607.9077 20.023 607.9077 33.693C607.9077 46.873 618.6477 58.593 633.2977 58.593ZM366.2077 81.543C379.8877 81.543 390.6277 70.313 390.6277 57.133C390.6277 43.453 379.8877 31.253 366.2077 31.253C352.5377 31.253 340.8177 43.453 340.8177 57.133C340.8177 70.313 352.5377 81.543 366.2077 81.543ZM720.2177 81.543C733.3977 81.543 745.6077 70.313 745.6077 57.133C745.6077 43.453 733.3977 31.253 720.2177 31.253C705.5677 31.253 694.8277 43.453 694.8277 57.133C694.8277 70.313 705.5677 81.543 720.2177 81.543ZM938.9677 1020.503C953.6177 1034.673 978.0277 1035.153 992.1877 1020.503C1006.8377 1005.373 1007.3277 981.933 992.1877 967.283L90.8177 65.913C76.1677 51.273 51.7577 51.273 37.1077 65.913C22.9477 80.083 22.9477 104.983 37.1077 119.143ZM284.1777 120.113C298.8277 120.113 309.5677 108.883 309.5677 95.213C309.5677 81.543 298.8277 69.823 284.1777 69.823C270.5077 69.823 258.7877 81.543 258.7877 95.213C258.7877 108.883 270.5077 120.113 284.1777 120.113ZM802.2477 120.113C814.9377 120.113 826.6577 108.883 826.6577 95.213C826.6577 81.543 814.9377 69.823 802.2477 69.823C787.5977 69.823 776.8577 81.543 776.8577 95.213C776.8577 108.883 787.5977 120.113 802.2477 120.113ZM875.9777 171.873C889.6477 171.873 901.3677 160.153 901.3677 147.463C901.3677 133.303 889.6477 121.583 875.9777 121.583C861.8177 121.583 851.0777 133.303 851.0777 147.463C851.0777 160.153 861.8177 171.873 875.9777 171.873ZM542.9677 148.433C461.4277 148.433 386.2277 172.853 323.2377 214.353L358.3977 249.023C411.6177 215.823 474.6077 196.293 542.9677 196.293C734.3777 196.293 889.1577 351.563 889.1577 542.483C889.1577 610.843 870.1177 673.833 836.4277 727.053L870.6077 761.723C912.5977 699.223 937.0077 624.023 937.0077 542.483C937.0077 325.683 759.7677 148.433 542.9677 148.433ZM939.4577 235.353C953.1277 235.353 964.8477 224.123 964.8477 210.933C964.8477 196.773 953.1277 185.063 939.4577 185.063C925.2977 185.063 914.5477 196.773 914.5477 210.933C914.5477 224.123 925.2977 235.353 939.4577 235.353ZM94.2377 309.573C108.3977 309.573 119.1377 298.343 119.1377 285.153C119.1377 270.993 108.3977 259.273 94.2377 259.273C81.0577 259.273 68.8477 270.993 68.8477 285.153C68.8477 298.343 81.0577 309.573 94.2377 309.573ZM991.6977 309.573C1004.3977 309.573 1016.1177 298.343 1016.1177 284.663C1016.1177 271.483 1004.3977 259.273 991.6977 259.273C977.0477 259.273 966.3077 271.483 966.3077 284.663C966.3077 298.343 977.0477 309.573 991.6977 309.573ZM1029.2977 391.603C1042.4777 391.603 1054.1977 380.373 1054.1977 366.703C1054.1977 353.023 1042.4777 340.823 1029.2977 340.823C1014.6477 340.823 1003.9077 353.023 1003.9077 366.703C1003.9077 380.373 1014.6477 391.603 1029.2977 391.603ZM56.1477 391.603C70.3077 391.603 81.5477 379.883 81.5477 366.703C81.5477 353.023 70.3077 340.823 56.1477 340.823C42.9677 340.823 31.2477 353.023 31.2477 366.703C31.2477 379.883 42.9677 391.603 56.1477 391.603ZM542.9677 342.283C516.1177 342.283 489.7477 347.163 466.7977 356.933L728.5177 619.143C738.2777 595.703 743.6477 570.313 743.6477 542.483C743.6477 431.643 653.8077 342.283 542.9677 342.283ZM542.9677 937.013C609.8677 937.013 672.3677 919.923 726.5577 890.623L690.9177 854.493C645.9977 876.953 596.1877 889.163 542.9677 889.163C349.6077 889.163 196.2877 735.843 196.2877 542.483C196.2877 489.743 208.9877 439.453 230.9577 395.503L194.8277 358.883C165.0377 413.573 148.4377 476.073 148.4377 542.483C148.4377 762.203 323.2377 937.013 542.9677 937.013ZM1052.2477 478.513C1065.4277 478.513 1077.6377 466.793 1077.6377 453.123C1077.6377 439.943 1065.4277 427.733 1052.2477 427.733C1037.5977 427.733 1026.8577 439.943 1026.8577 453.123C1026.8577 466.793 1037.5977 478.513 1052.2477 478.513ZM33.2077 478.513C47.3677 478.513 58.1077 466.793 58.1077 453.613C58.1077 439.453 47.3677 427.733 33.2077 427.733C20.0177 427.733 7.8077 439.453 7.8077 453.613C7.8077 466.793 20.0177 478.513 33.2077 478.513ZM542.9677 743.163C554.1977 743.163 564.9377 741.703 574.7077 738.773L346.6777 510.743C343.7477 520.993 342.2877 531.743 342.2877 542.483C342.2877 654.293 431.1477 743.163 542.9677 743.163ZM25.3877 567.873C39.5477 567.873 50.2977 556.643 50.2977 542.973C50.2977 529.293 39.5477 517.583 25.3877 517.583C11.7177 517.583 -0.0023 529.293 -0.0023 542.973C-0.0023 556.643 11.7177 567.873 25.3877 567.873ZM1060.0577 567.873C1073.2377 567.873 1085.4477 556.153 1085.4477 543.453C1085.4477 529.293 1073.2377 517.583 1060.0577 517.583C1045.8977 517.583 1035.1577 529.293 1035.1577 543.453C1035.1577 556.153 1045.8977 567.873 1060.0577 567.873ZM1052.2477 657.713C1065.4277 657.713 1077.6377 645.503 1077.6377 631.833C1077.6377 618.653 1065.4277 606.933 1052.2477 606.933C1037.5977 606.933 1026.8577 618.653 1026.8577 631.833C1026.8577 645.503 1037.5977 657.713 1052.2477 657.713ZM33.2077 657.223C47.3677 657.223 58.1077 645.503 58.1077 631.833C58.1077 618.163 47.3677 606.933 33.2077 606.933C20.0177 606.933 7.8077 618.163 7.8077 631.833C7.8077 645.503 20.0177 657.223 33.2077 657.223ZM1029.2977 744.143C1042.4777 744.143 1054.1977 732.423 1054.1977 718.263C1054.1977 705.563 1042.4777 693.363 1029.2977 693.363C1014.6477 693.363 1003.9077 705.563 1003.9077 718.263C1003.9077 732.423 1014.6477 744.143 1029.2977 744.143ZM56.1477 744.143C70.3077 744.143 81.5477 732.423 81.5477 718.263C81.5477 705.083 70.3077 693.843 56.1477 693.843C42.9677 693.843 31.2477 705.083 31.2477 718.263C31.2477 732.423 42.9677 744.143 56.1477 744.143ZM991.6977 826.173C1004.3977 826.173 1016.1177 813.963 1016.1177 800.293C1016.1177 786.623 1004.3977 775.393 991.6977 775.393C977.0477 775.393 966.3077 786.623 966.3077 800.293C966.3077 813.963 977.0477 826.173 991.6977 826.173ZM94.2377 825.683C108.3977 825.683 119.1377 813.963 119.1377 800.293C119.1377 786.623 108.3977 775.393 94.2377 775.393C81.0577 775.393 68.8477 786.623 68.8477 800.293C68.8477 813.963 81.0577 825.683 94.2377 825.683ZM145.5077 899.903C160.1577 899.903 170.8977 888.183 170.8977 874.513C170.8977 860.843 160.1577 849.613 145.5077 849.613C132.3277 849.613 120.6077 860.843 120.6077 874.513C120.6077 888.183 132.3277 899.903 145.5077 899.903ZM209.4777 963.863C223.6377 963.863 234.8677 951.663 234.8677 937.993C234.8677 924.803 223.6377 913.083 209.4777 913.083C196.2877 913.083 184.0777 924.803 184.0777 937.993C184.0777 951.663 196.2877 963.863 209.4777 963.863ZM283.6877 1015.623C297.8477 1015.623 309.0777 1003.423 309.0777 989.743C309.0777 976.563 297.8477 964.843 283.6877 964.843C270.5077 964.843 258.2977 976.563 258.2977 989.743C258.2977 1003.423 270.5077 1015.623 283.6877 1015.623ZM801.2677 1015.623C814.4577 1015.623 826.6577 1003.423 826.6577 989.743C826.6577 976.563 814.4577 964.843 801.2677 964.843C787.1077 964.843 775.8777 976.563 775.8777 989.743C775.8777 1003.423 787.1077 1015.623 801.2677 1015.623ZM365.2377 1053.713C379.3977 1053.713 390.6277 1041.993 390.6277 1028.323C390.6277 1015.133 379.3977 1003.423 365.2377 1003.423C352.0477 1003.423 339.8477 1015.133 339.8477 1028.323C339.8477 1041.993 352.0477 1053.713 365.2377 1053.713ZM719.7277 1053.713C732.9077 1053.713 744.6277 1041.993 744.6277 1028.323C744.6277 1015.133 732.9077 1003.423 719.7277 1003.423C705.0777 1003.423 694.3377 1015.133 694.3377 1028.323C694.3377 1041.993 705.0777 1053.713 719.7277 1053.713ZM632.8077 1077.153C645.9977 1077.153 658.2077 1064.943 658.2077 1051.273C658.2077 1038.083 645.9977 1026.853 632.8077 1026.853C618.1677 1026.853 607.4177 1038.083 607.4177 1051.273C607.4177 1064.943 618.1677 1077.153 632.8077 1077.153ZM452.1477 1077.153C466.3077 1077.153 477.5377 1064.943 477.5377 1051.273C477.5377 1038.083 466.3077 1026.853 452.1477 1026.853C438.9677 1026.853 427.2477 1038.083 427.2477 1051.273C427.2477 1064.943 438.9677 1077.153 452.1477 1077.153ZM542.4777 1084.963C556.6377 1084.963 567.8677 1073.243 567.8677 1059.573C567.8677 1045.903 556.6377 1034.673 542.4777 1034.673C529.2977 1034.673 517.0877 1045.903 517.0877 1059.573C517.0877 1073.243 529.2977 1084.963 542.4777 1084.963Z"/>
</svg>