<?xml version="1.0" encoding="UTF-8" standalone="no"?>
<svg xmlns="http://www.w3.org/2000/svg"
     width="1221.8943741050134" height="1356.93359375"
     viewBox="0 0 1221.8943741050134 1356.93359375"
     fill="currentColor">
  <path d="M558.5983 -0.0031C419.9183 -0.0031 356.9383 210.9369 356.9383 298.3369C356.9383 417.9669 433.5983 427.7369 433.5983 444.8269C433.5983 450.6869 428.2183 454.5869 420.4083 459.9569L267.5783 561.0369L229.0083 512.2069C215.3283 494.1369 221.1883 463.3769 253.9083 463.3769C284.6683 463.3769 304.6883 442.8669 304.6883 415.5269C304.6883 388.1869 282.7183 366.6969 255.8583 366.6969C228.5183 366.6969 206.5383 388.1869 206.5383 415.5269C206.5383 419.4369 207.0283 422.3669 207.5183 425.2969C212.3983 461.9169 156.2483 448.7269 177.2483 420.4069C183.5983 412.1069 187.0083 401.8569 187.0083 391.1169C187.0083 363.7669 165.0383 342.2869 137.6983 342.2869C110.8383 342.2869 88.8683 363.7669 88.8683 391.1169C88.8683 412.5969 102.0483 428.7069 120.6083 437.4969C150.3883 451.1669 116.2083 486.8169 100.0983 463.3769C90.8183 450.1969 75.6883 441.4069 58.5983 441.4069C31.7383 441.4069 9.7683 462.8869 9.7683 490.2369C9.7683 517.5769 31.7383 539.5469 58.5983 539.5469C68.3583 539.5469 77.1483 536.6169 84.9583 531.7369C106.9383 518.0669 124.9983 519.0469 143.0683 541.9969L218.2583 638.1869C236.8183 662.5969 268.0683 673.3369 295.4083 658.2069L331.5383 638.1869C322.7583 672.8469 316.8983 712.8869 316.8983 759.7669L285.6483 742.6769C258.2983 727.5369 227.5383 738.2769 208.4983 762.6969L133.7883 858.8869C115.2383 881.3469 97.6583 882.8169 75.1983 869.1369C67.3783 864.2569 58.5983 861.3269 49.3183 861.3269C21.9683 861.3269 -0.0017 883.2969 -0.0017 910.6469C-0.0017 937.4969 21.9683 959.4769 49.3183 959.4769C65.9183 959.4769 81.5383 950.6869 90.3283 937.0069C106.4483 914.0669 141.1183 949.2169 110.8383 963.3769C92.2883 971.6769 79.0983 988.2769 79.0983 1009.2769C79.0983 1036.6169 101.0783 1058.5969 128.4183 1058.5969C155.2783 1058.5969 177.2483 1036.6169 177.2483 1009.2769C177.2483 998.5369 173.8283 988.7669 167.9683 979.9769C146.4883 952.1469 202.6383 938.9669 197.7583 975.5869C197.2683 978.5169 196.7783 981.9369 196.7783 985.3469C196.7783 1012.2069 218.7483 1034.1769 246.0983 1034.1769C273.4383 1034.1769 294.9183 1012.2069 294.9183 985.3469C294.9183 958.0069 274.8983 937.4969 244.1383 937.4969C211.9183 937.4969 205.5683 906.7369 219.2383 888.6669L258.2983 839.8469L427.7383 975.5869C416.9883 1181.6369 605.9583 1356.9369 852.0483 1356.9369C1076.1683 1356.9369 1186.0383 1213.3769 1212.3983 1157.7169C1250.9783 1075.6869 1163.5783 1020.0169 1101.0783 1073.7269C1039.0583 1126.9569 963.8683 1137.6969 903.8083 1137.6969C817.3783 1137.6969 705.0783 1071.7769 699.2183 966.7969L857.9083 839.8469L896.4883 888.6669C910.6483 906.7369 904.2983 937.4969 872.0683 937.4969C840.8183 937.4969 821.2883 958.0069 821.2883 985.3469C821.2883 1012.2069 842.7783 1034.1769 870.1183 1034.1769C897.4583 1034.1769 919.4383 1012.2069 919.4383 985.3469C919.4383 981.4469 918.9483 978.0269 918.4583 975.0969C914.0583 938.9669 969.7283 952.1469 948.2383 979.9769C942.3783 988.7669 938.9683 998.5369 938.9683 1009.2769C938.9683 1036.6169 960.9383 1058.5969 987.7883 1058.5969C1015.1383 1058.5969 1037.1083 1036.6169 1037.1083 1009.2769C1037.1083 988.2769 1023.9283 971.6769 1005.3683 963.3769C975.0983 949.2169 1009.2783 914.0669 1025.8783 937.0069C1034.6683 950.6869 1050.2883 959.4769 1066.8983 959.4769C1094.2383 959.4769 1116.2083 937.4969 1116.2083 910.6469C1116.2083 883.2969 1094.2383 861.3269 1066.8983 861.3269C1057.6183 861.3269 1048.8283 864.2569 1040.5283 869.1369C1018.5583 882.8169 1000.4883 881.3469 982.4183 858.8869L907.7183 762.6969C888.6683 738.2769 857.9083 727.5369 830.5683 742.6769L799.8083 759.2769C799.8083 712.8869 793.9483 672.8469 785.1583 638.1869L821.2883 658.2069C848.6283 673.3369 879.8783 662.5969 898.4383 638.1869L973.6283 541.9969C991.6983 519.0469 1009.7683 518.0669 1031.7383 531.7369C1039.5483 536.6169 1048.3383 539.5469 1058.1083 539.5469C1084.9583 539.5469 1106.9383 517.5769 1106.9383 490.2369C1106.9383 462.8869 1084.9583 441.4069 1058.1083 441.4069C1041.0183 441.4069 1025.8783 450.1969 1016.5983 463.3769C1000.4883 486.8169 966.3083 451.1669 996.0983 437.4969C1014.6483 428.7069 1027.8283 412.5969 1027.8283 391.1169C1027.8283 363.7669 1005.8583 342.2869 979.0083 342.2869C951.6583 342.2869 929.6883 363.7669 929.6883 391.1169C929.6883 401.8569 933.1083 412.1069 939.4483 420.4069C960.4483 448.7269 904.7883 461.9169 909.1783 425.7769C909.6683 422.8469 910.1583 419.4369 910.1583 415.5269C910.1583 388.1869 888.1883 366.6969 860.8383 366.6969C833.9883 366.6969 812.0083 388.1869 812.0083 415.5269C812.0083 442.8669 832.0283 463.3769 862.7883 463.3769C895.5083 463.3769 901.3683 494.1369 887.6983 512.2069L849.1183 561.0369L695.3083 459.9569C687.0083 454.0969 681.6383 450.6869 681.6383 444.8269C681.6383 427.7369 759.7683 416.9969 759.7683 298.3369C759.7683 210.9369 696.7783 -0.0031 558.5983 -0.0031ZM558.5983 74.7069C637.6983 74.7069 684.5683 226.0769 684.5683 298.3369C684.5683 386.2269 608.3983 380.8569 608.3983 444.3369C608.3983 497.5569 734.3783 571.7769 734.3783 761.2269C734.3783 843.2569 710.4483 875.9769 614.7483 938.4769C609.3783 1111.8169 772.4583 1210.4469 918.4583 1210.4469C968.2583 1210.4469 1058.5983 1200.6869 1129.3983 1141.1169C1135.7383 1135.2569 1143.5583 1141.1169 1138.1883 1150.3869C1105.4683 1199.7069 1017.0883 1284.6669 852.0483 1284.6669C627.9283 1284.6669 471.6783 1127.4369 506.3483 941.8969C406.2483 878.4169 382.3283 844.2369 382.3283 761.2269C382.3283 571.7769 508.2983 497.5569 508.2983 444.3369C508.2983 380.3669 432.1283 386.2269 432.1283 298.3369C432.1283 226.0769 479.0083 74.7069 558.5983 74.7069Z"/>
</svg>