<?xml version="1.0" encoding="UTF-8" standalone="no"?>
<svg xmlns="http://www.w3.org/2000/svg"
     width="898.92578125" height="898.92578125"
     viewBox="0 0 898.92578125 898.92578125"
     fill="currentColor">
  <path d="M153.3183 898.9295H745.6083C848.1483 898.9295 898.9283 848.1495 898.9283 747.5595V151.3695C898.9283 50.7795 848.1483 -0.0005 745.6083 -0.0005H153.3183C51.2683 -0.0005 -0.0017 50.2895 -0.0017 151.3695V747.5595C-0.0017 848.6295 51.2683 898.9295 153.3183 898.9295ZM184.5683 490.7195C140.6283 490.7195 135.7383 443.3595 167.9683 428.2195L643.5583 202.1495C683.1083 183.5895 716.3083 217.2895 698.2383 256.3495L474.6083 732.4195C459.4683 765.1395 412.1083 760.7395 412.1083 715.3295L411.6183 507.3195C411.6183 497.5595 405.2783 490.7195 395.9983 490.7195Z"/>
</svg>