<?xml version="1.0" encoding="UTF-8" standalone="no"?>
<svg xmlns="http://www.w3.org/2000/svg"
     width="996.09375" height="996.09375"
     viewBox="0 0 996.09375 996.09375"
     fill="currentColor">
  <path d="M498.0477 996.0959C770.5077 996.0959 996.0977 770.0159 996.0977 498.0459C996.0977 225.5859 770.0177 -0.0041 497.5577 -0.0041C225.5877 -0.0041 -0.0023 225.5859 -0.0023 498.0459C-0.0023 770.0159 226.0777 996.0959 498.0477 996.0959ZM631.8377 537.1059L449.7077 355.4659L687.4977 242.6759C728.5177 223.1459 762.6977 258.2959 744.1377 298.3359ZM715.3277 745.1159L250.9777 280.7659C241.2077 270.9959 241.2077 256.3459 250.9777 247.5559C260.2577 237.3059 274.4177 237.7959 284.6677 247.5559L749.0277 711.4259C758.7877 720.7059 758.2977 735.3559 749.0277 745.1159C740.2377 753.9059 724.6077 754.3959 715.3277 745.1159ZM215.3277 540.5259C168.9477 540.5259 163.5777 491.6959 197.2677 475.0959L322.7577 415.5259L447.7577 540.5259ZM513.6677 789.5459C498.0477 823.2459 448.7277 818.3559 448.7277 771.9759V541.5059L571.7777 665.0359Z"/>
</svg>