<?xml version="1.0" encoding="UTF-8" standalone="no"?>
<svg xmlns="http://www.w3.org/2000/svg"
     width="934.7514136089869" height="923.818392584769"
     viewBox="0 0 934.7514136089869 923.818392584769"
     fill="currentColor">
  <path d="M870.7201 816.1621C885.3701 830.8121 909.7901 830.8121 923.9501 816.1621C938.1101 801.5121 938.6001 777.5921 923.9501 762.9421L171.9901 10.9821C157.3501 -3.6579 132.9301 -3.6579 118.2801 10.9821C104.1201 25.1421 104.1201 50.0521 118.2801 64.2121ZM732.5401 488.5221L912.2301 102.7821C944.9401 31.4921 888.7901 -15.8679 820.4301 16.3621L437.6201 194.0921ZM252.0701 279.5421L40.1601 378.1721C-22.3399 406.9821 -10.1299 494.8721 64.5701 495.3621L420.5301 496.8221C427.8501 496.8221 430.3001 499.2721 430.3001 506.5921L431.2701 859.6221C431.2701 932.3721 518.6701 949.4621 551.3901 878.6621L646.6001 674.5621Z"/>
</svg>