<?xml version="1.0" encoding="UTF-8" standalone="no"?>
<svg xmlns="http://www.w3.org/2000/svg"
     width="772.94921875" height="1015.625"
     viewBox="0 0 772.94921875 1015.625"
     fill="currentColor">
  <path d="M53.2206 1015.6283C77.1506 1015.6283 93.2606 1006.8383 117.1906 983.3983L379.8806 723.1483C382.3206 720.6983 384.2806 718.7483 386.7206 718.7483C388.6706 718.7483 391.1106 720.6983 393.5506 723.1483L655.7606 983.3983C680.1806 1006.8383 695.8006 1015.6283 719.7306 1015.6283C752.9306 1015.6283 772.9506 990.2383 772.9506 957.0283C772.9506 938.4783 765.6206 916.5083 758.3006 896.4883L453.1206 62.4983C437.5006 19.5283 414.5506 -0.0017 386.7206 -0.0017C358.4006 -0.0017 335.9406 19.5283 320.3106 62.4983L14.6506 896.4883C7.8106 916.5083 0.0006 938.4783 0.0006 957.0283C0.0006 990.2383 20.0206 1015.6283 53.2206 1015.6283ZM86.9106 909.1783C85.4506 908.1983 84.9606 906.2483 85.9406 903.3183L381.8406 105.9583C383.3006 102.0483 384.7706 100.5883 386.7206 100.5883C388.1806 100.5883 390.1406 102.0483 391.1106 105.9583L687.0106 903.3183C687.9906 906.2483 687.5006 908.1983 686.5206 909.1783C685.5506 909.6683 683.5906 909.1783 682.1306 908.1983L411.1306 633.2983C402.3406 624.5083 393.5506 622.5583 386.7206 622.5583C379.3906 622.5583 370.6006 624.5083 362.3006 633.2983L91.3106 908.1983C89.8406 909.1783 87.8906 909.6683 86.9106 909.1783Z"/>
</svg>