<?xml version="1.0" encoding="UTF-8" standalone="no"?>
<svg xmlns="http://www.w3.org/2000/svg"
     width="996.09375" height="996.09375"
     viewBox="0 0 996.09375 996.09375"
     fill="currentColor">
  <path d="M498.0477 996.0959C770.5077 996.0959 996.0977 770.0159 996.0977 498.0459C996.0977 225.5859 770.0177 -0.0041 497.5577 -0.0041C225.5877 -0.0041 -0.0023 225.5859 -0.0023 498.0459C-0.0023 770.0159 226.0777 996.0959 498.0477 996.0959ZM498.0477 913.0859C267.5777 913.0859 83.4977 728.5159 83.4977 498.0459C83.4977 267.5759 267.0877 83.0059 497.5577 83.0059C728.0277 83.0059 913.0877 267.5759 913.0877 498.0459C913.0877 728.5159 728.5177 913.0859 498.0477 913.0859ZM273.9277 708.4959C261.2277 740.2359 295.8977 767.5759 326.1677 737.3059L484.8677 578.1259C492.6777 570.7959 501.9577 570.7959 509.7677 578.1259L668.4577 737.3059C698.7277 767.5759 733.3977 740.2359 720.7077 708.4959L531.7377 227.5359C519.0477 194.3359 475.5877 194.8259 462.3977 228.5159Z"/>
</svg>