<?xml version="1.0" encoding="UTF-8" standalone="no"?>
<svg xmlns="http://www.w3.org/2000/svg"
     width="798.828125" height="970.703125"
     viewBox="0 0 798.828125 970.703125"
     fill="currentColor">
  <path d="M399.4097 970.7081C407.2297 970.7081 419.4297 967.7781 431.6397 961.4281C709.4697 815.9181 798.8297 743.1681 798.8297 567.8681V199.7081C798.8297 149.4181 777.3397 133.2981 736.3297 116.2081C679.1997 92.7781 496.5797 26.3681 439.9397 6.8381C426.7597 2.4381 413.0897 -0.0019 399.4097 -0.0019C385.7397 -0.0019 372.0697 2.9281 359.3797 6.8381C302.2497 25.3881 119.6297 93.2581 62.4997 116.2081C21.9697 132.8081 -0.0003 149.4181 -0.0003 199.7081V567.8681C-0.0003 743.1681 94.2397 807.6181 367.1897 961.4281C379.8797 968.2581 391.5997 970.7081 399.4097 970.7081ZM217.7697 666.5081V466.3081C217.7697 430.6681 232.4197 413.0881 261.7197 411.1281V352.0481C261.7197 259.2781 317.3797 196.7781 399.4097 196.7781C481.4497 196.7781 537.1097 259.2781 537.1097 352.0481V411.1281C566.4097 413.0881 581.0597 430.6681 581.0597 466.3081V666.5081C581.0597 704.0981 564.4497 721.6781 529.7897 721.6781H269.0397C234.3797 721.6781 217.7697 704.0981 217.7697 666.5081ZM314.4497 410.6481H484.3797V346.1881C484.3797 287.1081 450.1997 248.0481 399.4097 248.0481C348.6297 248.0481 314.4497 287.1081 314.4497 346.1881Z"/>
</svg>