<?xml version="1.0" encoding="UTF-8" standalone="no"?>
<svg xmlns="http://www.w3.org/2000/svg"
     width="856.4453125" height="1133.30078125"
     viewBox="0 0 856.4453125 1133.30078125"
     fill="currentColor">
  <path d="M191.4083 62.987H665.0383C662.1083 21.487 638.1883 -0.003 593.2583 -0.003H262.6983C217.7783 -0.003 194.3383 21.487 191.4083 62.987ZM106.4483 198.247H749.5083C742.1883 153.807 721.1883 129.397 672.3683 129.397H183.5983C134.7683 129.397 113.7683 153.807 106.4483 198.247ZM153.3183 1133.297H717.7783C805.1783 1133.297 856.4483 1082.517 856.4483 981.937V428.227C856.4483 327.637 804.6883 276.857 703.1283 276.857H153.3183C51.2683 276.857 -0.0017 327.147 -0.0017 428.227V981.937C-0.0017 1082.517 51.2683 1133.297 153.3183 1133.297ZM154.2983 1054.687C105.4683 1054.687 78.6183 1028.317 78.6183 977.537V432.127C78.6183 381.837 105.4683 355.467 154.2983 355.467H701.6583C749.9983 355.467 777.8283 381.837 777.8283 432.127V977.537C777.8283 1028.317 749.9983 1054.687 716.3083 1054.687ZM251.9483 899.907C251.9483 936.527 268.0683 953.617 301.7583 953.617H554.6883C588.8683 953.617 604.9783 936.527 604.9783 899.907V705.567C604.9783 671.387 590.8183 654.787 561.5283 652.827V594.727C561.5283 504.887 507.8083 444.827 428.2183 444.827C349.1183 444.827 294.9183 504.887 294.9183 594.727V652.827C266.1183 654.787 251.9483 671.387 251.9483 705.567ZM345.6983 652.347V589.357C345.6983 532.227 378.9083 494.137 428.2183 494.137C478.0283 494.137 510.7383 532.227 510.7383 589.357V652.347Z"/>
</svg>