<?xml version="1.0" encoding="UTF-8" standalone="no"?>
<svg xmlns="http://www.w3.org/2000/svg"
     width="1164.0625" height="983.88671875"
     viewBox="0 0 1164.0625 983.88671875"
     fill="currentColor">
  <path d="M112.3083 810.5484H427.7383V904.7884H424.8083C403.3183 904.7884 385.2583 922.3584 385.2583 944.3384C385.2583 966.3084 403.3183 983.8884 424.8083 983.8884H739.2583C760.7383 983.8884 778.3183 966.3084 778.3183 944.3384C778.3183 922.3584 760.7383 904.7884 739.2583 904.7884H736.3283V810.5484H1051.2683C1121.5783 810.5484 1164.0583 768.0684 1164.0583 697.7584V112.3084C1164.0583 41.9884 1121.5783 -0.0016 1051.2683 -0.0016H112.3083C42.4783 -0.0016 -0.0017 41.9884 -0.0017 112.3084V697.7584C-0.0017 768.0684 42.4783 810.5484 112.3083 810.5484ZM99.6083 595.2184C84.9583 595.2184 78.6183 589.8484 78.6183 574.2184V113.7684C78.6183 91.7984 92.2883 78.6084 113.7683 78.6084H1050.2883C1071.7783 78.6084 1085.4483 91.7984 1085.4483 113.7684V574.2184C1085.4483 589.8484 1078.6183 595.2184 1063.9683 595.2184ZM406.7383 465.8184C406.7383 493.6484 420.4083 507.3284 446.7783 507.3284H612.3083C638.6683 507.3284 651.8583 493.6484 651.8583 465.8184V338.8684C651.8583 314.9384 642.0883 301.2684 623.0483 297.8484V255.8584C623.0483 219.7284 642.0883 196.7784 675.2883 196.7784C708.4983 196.7784 728.0283 219.7284 728.0283 255.8584V290.5284C728.0283 303.7084 738.7683 314.9384 752.4383 314.9384C765.1383 314.9384 776.3683 303.7084 776.3683 290.5284V255.8584C776.3683 194.3384 736.8183 149.4184 675.2883 149.4184C614.2583 149.4184 574.7083 194.3384 574.7083 260.2584V296.8784H446.7783C420.4083 296.8784 406.7383 311.0384 406.7383 338.8684Z"/>
</svg>