<?xml version="1.0" encoding="UTF-8" standalone="no"?>
<svg xmlns="http://www.w3.org/2000/svg"
     width="1022.94921875" height="1081.0546875"
     viewBox="0 0 1022.94921875 1081.0546875"
     fill="currentColor">
  <path d="M203.6183 62.9847H819.8283C816.8983 21.4847 793.4583 0.0047 748.0483 0.0047H274.8983C229.9783 0.0047 206.5383 21.4847 203.6183 62.9847ZM103.0283 198.2447H920.4083C913.0883 153.8047 892.0883 129.3947 843.2583 129.3947H180.1783C131.3483 129.3947 110.3483 153.8047 103.0283 198.2447ZM153.3183 1081.0547H869.6283C971.1883 1081.0547 1022.9483 1030.2747 1022.9483 929.6847V428.2247C1022.9483 327.6347 971.1883 276.8547 869.6283 276.8547H153.3183C50.7783 276.8547 -0.0017 327.6347 -0.0017 428.2247V929.6847C-0.0017 1030.2747 50.7783 1081.0547 153.3183 1081.0547ZM154.2983 1002.4447C105.4683 1002.4447 78.6183 976.0747 78.6183 925.2947V432.6147C78.6183 381.8347 105.4683 355.4647 154.2983 355.4647H868.1683C916.5083 355.4647 944.3383 381.8347 944.3383 432.6147V925.2947C944.3383 976.0747 916.5083 1002.4447 868.1683 1002.4447ZM335.4483 871.5847C335.4483 908.2047 351.5583 925.2947 385.2583 925.2947H638.1883C671.8783 925.2947 687.9883 908.2047 687.9883 871.5847V677.2447C687.9883 643.0647 673.8283 625.9747 645.0183 624.0247V566.4047C645.0183 476.5647 591.3083 416.5047 511.7183 416.5047C432.1283 416.5047 378.4183 476.5647 378.4183 566.4047V624.0247C349.6083 625.9747 335.4483 643.0647 335.4483 677.2447ZM429.1983 623.5347V561.0347C429.1983 503.4147 462.3983 465.8247 511.7183 465.8247C561.0383 465.8247 594.2383 503.4147 594.2383 561.0347V623.5347Z"/>
</svg>