<?xml version="1.0" encoding="UTF-8" standalone="no"?>
<svg xmlns="http://www.w3.org/2000/svg"
     width="912.781512050192" height="994.384765625"
     viewBox="0 0 912.781512050192 994.384765625"
     fill="currentColor">
  <path d="M446.5366 73.73C537.8466 73.73 617.4366 138.67 617.4366 262.21V389.16H440.1866L514.4066 462.89H667.7266C689.2066 462.89 700.9266 475.59 700.9266 499.51V649.41L780.0266 728.03V504.88C780.0266 437.5 750.2466 398.93 694.5766 391.11V272.46C694.5766 88.87 574.4666 0 446.5366 0C345.9466 0 252.1966 55.66 216.5566 165.04L279.0566 228.03C291.7466 127.44 363.5266 73.73 446.5366 73.73ZM848.3866 983.4C863.5266 998.05 887.4466 998.05 901.6066 983.4C916.2566 968.75 916.7466 944.82 901.6066 930.18L64.6966 93.26C50.0466 78.61 25.6366 78.61 10.9866 93.26C-3.6634 107.91 -3.6634 132.32 10.9866 146.48ZM223.3866 957.52H670.1666C693.1166 957.52 712.6466 952.15 726.8066 942.87L660.8866 876.95C656.9866 880.86 651.1266 883.79 644.2866 883.79H225.8266C204.8366 883.79 192.6266 870.61 192.6266 846.68V499.51C192.6266 475.59 204.8366 462.89 225.8266 462.89H246.3366L180.9066 397.46H176.5166C136.4766 410.64 113.5266 447.75 113.5266 504.88V841.31C113.5266 918.46 151.6066 957.52 223.3866 957.52Z"/>
</svg>