<?xml version="1.0" encoding="UTF-8" standalone="no"?>
<svg xmlns="http://www.w3.org/2000/svg"
     width="898.92578125" height="898.92578125"
     viewBox="0 0 898.92578125 898.92578125"
     fill="currentColor">
  <path d="M153.3183 898.9295H745.6083C848.1483 898.9295 898.9283 848.1495 898.9283 747.5595V151.3695C898.9283 50.7795 848.1483 -0.0005 745.6083 -0.0005H153.3183C51.2683 -0.0005 -0.0017 50.2895 -0.0017 151.3695V747.5595C-0.0017 848.6295 51.2683 898.9295 153.3183 898.9295ZM268.0683 647.9495V447.7495C268.0683 412.1095 282.7183 394.5295 312.0083 392.5795V333.4995C312.0083 240.7195 367.6783 178.7095 449.7083 178.7095C531.7383 178.7095 587.3983 240.7195 587.3983 333.4995V392.5795C617.1883 394.5295 631.8383 412.1095 631.8383 447.7495V647.9495C631.8383 685.5495 615.2383 703.1295 580.0783 703.1295H319.3383C284.6683 703.1295 268.0683 685.5495 268.0683 647.9495ZM364.7483 392.0895H534.6683V327.6395C534.6683 269.0395 500.4883 229.4895 449.7083 229.4895C398.9283 229.4895 364.7483 269.0395 364.7483 327.6395Z"/>
</svg>