<?xml version="1.0" encoding="UTF-8" standalone="no"?>
<svg xmlns="http://www.w3.org/2000/svg"
     width="627.44140625" height="1033.69140625"
     viewBox="0 0 627.44140625 1033.69140625"
     fill="currentColor">
  <path d="M-0.0017 906.7389C-0.0017 982.9089 53.2183 1033.6889 132.8083 1033.6889H494.6283C574.2183 1033.6889 627.4383 982.9089 627.4383 906.7389V126.9489C627.4383 50.7789 574.2183 -0.0011 494.6283 -0.0011H132.8083C53.2183 -0.0011 -0.0017 50.7789 -0.0017 126.9489ZM78.6183 894.0389V139.6489C78.6183 100.5889 101.5583 78.6089 143.0683 78.6089H484.8683C525.8783 78.6089 548.8283 100.5889 548.8283 139.6489V894.0389C548.8283 933.1089 525.8783 955.0789 484.8683 955.0789H143.0683C101.5583 955.0789 78.6183 933.1089 78.6183 894.0389ZM231.4483 682.6189H396.9683C423.3383 682.6189 436.5283 668.9489 436.5283 641.1089V514.1589C436.5283 492.1889 428.2183 479.4889 412.1083 474.1189V440.9189C412.1083 374.9989 372.5583 330.0789 313.9683 330.0789C255.3683 330.0789 215.8183 374.9989 215.8183 440.9189V474.6089C199.7083 479.4889 191.4083 492.1889 191.4083 514.1589V641.1089C191.4083 668.9489 204.5883 682.6189 231.4483 682.6189ZM264.1583 472.1689V436.5189C264.1583 400.3889 283.6883 376.9489 313.9683 376.9489C343.7483 376.9489 363.7683 400.3889 363.7683 436.5189V472.1689Z"/>
</svg>