<?xml version="1.0" encoding="UTF-8" standalone="no"?>
<svg xmlns="http://www.w3.org/2000/svg"
     width="996.09375" height="996.09375"
     viewBox="0 0 996.09375 996.09375"
     fill="currentColor">
  <path d="M498.0477 996.0959C770.5077 996.0959 996.0977 770.0159 996.0977 498.0459C996.0977 225.5859 770.0177 -0.0041 497.5577 -0.0041C225.5877 -0.0041 -0.0023 225.5859 -0.0023 498.0459C-0.0023 770.0159 226.0777 996.0959 498.0477 996.0959ZM498.0477 913.0859C267.5777 913.0859 83.4977 728.5159 83.4977 498.0459C83.4977 267.5759 267.0877 83.0059 497.5577 83.0059C728.0277 83.0059 913.0877 267.5759 913.0877 498.0459C913.0877 728.5159 728.5177 913.0859 498.0477 913.0859ZM321.2877 690.4259C321.2877 727.0459 337.3977 744.1359 371.0977 744.1359H624.0277C657.7177 744.1359 673.8277 727.0459 673.8277 690.4259V496.0959C673.8277 461.9159 659.6677 445.3159 630.8577 443.3559V385.2559C630.8577 295.4059 577.1477 235.3559 497.5577 235.3559C417.9677 235.3559 364.2577 295.4059 364.2577 385.2559V443.3559C335.4477 445.3159 321.2877 461.9159 321.2877 496.0959ZM415.0377 442.8759V379.8859C415.0377 322.7559 448.2377 284.6659 497.5577 284.6659C546.8777 284.6659 580.0777 322.7559 580.0777 379.8859V442.8759Z"/>
</svg>