<?xml version="1.0" encoding="UTF-8" standalone="no"?>
<svg xmlns="http://www.w3.org/2000/svg"
     width="1151.3671875" height="898.92578125"
     viewBox="0 0 1151.3671875 898.92578125"
     fill="currentColor">
  <path d="M153.3183 898.9278H998.0483C1100.5883 898.9278 1151.3683 848.6378 1151.3683 748.0478V151.3678C1151.3683 50.7778 1100.5883 -0.0022 998.0483 -0.0022H153.3183C51.2683 -0.0022 -0.0017 50.7778 -0.0017 151.3678V748.0478C-0.0017 848.6378 51.2683 898.9278 153.3183 898.9278ZM394.0383 648.9278V448.7278C394.0383 413.0878 408.6883 395.5078 438.4783 393.5578V334.4678C438.4783 241.6978 494.1383 179.6878 576.1683 179.6878C658.1983 179.6878 713.8683 241.6978 713.8683 334.4678V393.5578C743.1683 395.5078 757.8083 413.0878 757.8083 448.7278V648.9278C757.8083 686.5278 741.2083 704.0978 706.5383 704.0978H445.7983C410.6483 704.0978 394.0383 686.5278 394.0383 648.9278ZM491.2083 393.0678H661.1283V328.6178C661.1283 270.0178 626.9483 230.4678 576.1683 230.4678C524.8983 230.4678 491.2083 270.0178 491.2083 328.6178Z"/>
</svg>