<?xml version="1.0" encoding="UTF-8" standalone="no"?>
<svg xmlns="http://www.w3.org/2000/svg"
     width="1004.8828125" height="957.03125"
     viewBox="0 0 1004.8828125 957.03125"
     fill="currentColor">
  <path d="M109.8683 957.0317H556.6383C628.4183 957.0317 666.5083 917.9717 666.5083 840.8217V504.3917C666.5083 438.9617 638.6683 400.8817 586.4283 391.1117V262.2117C586.4283 138.6717 665.5283 73.7317 756.8383 73.7317C848.1483 73.7317 927.2483 138.6717 927.2483 262.2117V370.6017C927.2483 399.4117 944.3383 414.0617 966.3083 414.0617C987.3083 414.0617 1004.8783 400.8817 1004.8783 370.6017V272.4617C1004.8783 88.8717 884.2783 0.0017 756.8383 0.0017C628.9083 0.0017 509.2783 88.8717 509.2783 272.4617V388.6717H109.8683C38.0883 388.6717 -0.0017 427.7317 -0.0017 504.3917V840.8217C-0.0017 917.9717 38.0883 957.0317 109.8683 957.0317ZM112.3083 883.3017C91.3083 883.3017 79.0983 870.1217 79.0983 846.1917V499.0217C79.0983 475.1017 91.3083 462.4017 112.3083 462.4017H554.1983C575.6883 462.4017 587.3983 475.1017 587.3983 499.0217V846.1917C587.3983 870.1217 575.6883 883.3017 554.1983 883.3017Z"/>
</svg>