<?xml version="1.0" encoding="UTF-8" standalone="no"?>
<svg xmlns="http://www.w3.org/2000/svg"
     width="1214.84375" height="989.2578125"
     viewBox="0 0 1214.84375 989.2578125"
     fill="currentColor">
  <path d="M153.3183 763.188H241.2083V837.888C241.2083 938.968 291.9883 989.258 394.5283 989.258H1061.5283C1163.0883 989.258 1214.8483 938.478 1214.8483 837.888V377.438C1214.8483 276.858 1163.0883 226.078 1061.5283 226.078H968.2583V151.368C968.2583 50.778 916.5083 -0.002 814.9383 -0.002H153.3183C50.7783 -0.002 -0.0017 50.778 -0.0017 151.368V611.818C-0.0017 712.888 50.7783 763.188 153.3183 763.188ZM154.2983 684.568C105.4683 684.568 78.6183 658.688 78.6183 607.908V155.758C78.6183 104.978 105.4683 78.618 154.2983 78.618H813.4783C861.8183 78.618 889.6483 104.978 889.6483 155.758V226.078H394.5283C291.9883 226.078 241.2083 276.858 241.2083 377.438V684.568ZM395.5083 910.648C346.6783 910.648 319.8283 884.768 319.8283 833.988V381.838C319.8283 331.058 346.6783 304.688 395.5083 304.688H1060.0583C1108.3983 304.688 1136.2283 331.058 1136.2283 381.838V833.988C1136.2283 884.768 1108.3983 910.648 1060.0583 910.648ZM551.7583 800.288C551.7583 836.918 567.8683 854.008 601.5583 854.008H854.4883C888.6683 854.008 904.7883 836.918 904.7883 800.288V605.958C904.7883 571.778 890.6283 554.688 861.3283 552.738V495.118C861.3283 405.278 807.6183 345.218 728.0283 345.218C648.9283 345.218 594.7283 405.278 594.7283 495.118V552.738C565.9183 554.688 551.7583 571.778 551.7583 605.958ZM645.5083 552.248V489.748C645.5083 432.128 678.7083 394.528 728.0283 394.528C777.8283 394.528 810.5483 432.128 810.5483 489.748V552.248Z"/>
</svg>