<?xml version="1.0" encoding="UTF-8" standalone="no"?>
<svg xmlns="http://www.w3.org/2000/svg"
     width="815.91796875" height="1100.09765625"
     viewBox="0 0 815.91796875 1100.09765625"
     fill="currentColor">
  <path d="M-0.0017 971.192C-0.0017 1048.342 54.1983 1100.102 135.2583 1100.102H680.6683C761.7183 1100.102 815.9183 1048.342 815.9183 971.192V129.392C815.9183 52.242 761.7183 0.002 680.6683 0.002H135.2583C54.1983 0.002 -0.0017 52.242 -0.0017 129.392ZM78.6183 958.012V142.582C78.6183 102.542 103.0283 78.612 145.0183 78.612H670.8983C712.3983 78.612 737.3083 102.542 737.3083 142.582V958.012C737.3083 998.042 712.3983 1021.482 670.8983 1021.482H145.0183C103.0283 1021.482 78.6183 998.042 78.6183 958.012ZM325.6883 715.822H491.2083C517.5783 715.822 530.7583 702.152 530.7583 674.312V547.362C530.7583 525.392 522.4583 512.692 506.3483 507.322V474.122C506.3483 408.202 466.7983 363.282 408.1983 363.282C350.0983 363.282 310.0583 408.202 310.0583 474.122V507.812C294.4383 512.692 285.6483 525.392 285.6483 547.362V674.312C285.6483 702.152 299.3183 715.822 325.6883 715.822ZM358.3983 505.372V469.722C358.3983 433.592 377.9283 410.152 408.1983 410.152C438.4783 410.152 458.0083 433.592 458.0083 469.722V505.372Z"/>
</svg>