<?xml version="1.0" encoding="UTF-8" standalone="no"?>
<svg xmlns="http://www.w3.org/2000/svg"
     width="1180.6640625" height="898.92578125"
     viewBox="0 0 1180.6640625 898.92578125"
     fill="currentColor">
  <path d="M419.9177 -0.0005C128.9077 -0.0005 -0.0023 133.2995 -0.0023 406.7395V747.5595C-0.0023 848.6295 51.2677 898.9295 153.3177 898.9295H1027.3477C1129.3977 898.9295 1180.6677 848.1495 1180.6677 747.5595V406.7395C1180.6677 133.2995 1051.7577 -0.0005 761.2277 -0.0005ZM419.9177 79.5895H760.7377C998.0477 79.5895 1102.0477 183.1095 1102.0477 402.3395V743.6495C1102.0477 794.4295 1074.7077 820.3095 1026.3677 820.3095H154.2977C105.4677 820.3095 78.6177 794.4295 78.6177 743.6495V402.3395C78.6177 183.1095 182.6177 79.5895 419.9177 79.5895ZM331.0577 669.4295H555.6677C574.7077 669.4295 588.3777 657.2295 588.3777 637.2095C588.3777 617.1895 574.2177 605.4695 555.6677 605.4695H370.1177V262.6995C370.1177 235.3495 356.4477 218.7495 331.0577 218.7495C305.6677 218.7495 292.4777 236.3295 292.4777 262.6995V625.4895C292.4777 651.3695 305.6677 669.4295 331.0577 669.4295ZM757.3277 674.8095C783.2077 674.8095 796.8777 658.1995 796.8777 630.8595V288.0895H918.4577C937.0077 288.0895 950.6877 275.8795 950.6877 256.3495C950.6877 235.8395 937.0077 224.1195 918.4577 224.1195H598.6377C580.0777 224.1195 566.4077 235.8395 566.4077 256.3495C566.4077 275.8795 580.0777 288.0895 598.6377 288.0895H719.2377V630.8595C719.2377 657.2295 732.4177 674.8095 757.3277 674.8095Z"/>
</svg>