<?xml version="1.0" encoding="UTF-8" standalone="no"?>
<svg xmlns="http://www.w3.org/2000/svg"
     width="1405.5837058273582" height="1016.9374328028221"
     viewBox="0 0 1405.5837058273582 1016.9374328028221"
     fill="currentColor">
  <path d="M191.5634 1012.2109L405.4334 970.7009C517.7334 948.7309 567.0534 888.1809 567.0534 768.5509V706.5409V626.4609V177.7309C567.0534 70.8009 492.8334 0.0009 381.5034 0.0009C287.2634 0.0009 206.6934 66.8909 179.8434 166.9909L8.4534 816.8909C-27.1866 952.1509 52.8934 1038.5709 191.5634 1012.2109ZM1214.0234 1012.2109C1352.6934 1038.5709 1432.7734 952.1509 1397.1234 816.8909L1225.7434 166.9909C1199.3734 66.8909 1118.3234 0.0009 1024.0834 0.0009C912.7534 0.0009 839.0234 70.8009 839.0234 177.7309V626.4609L742.3434 605.4709V64.4509C742.3434 42.9709 724.7634 24.9009 703.2834 24.9009C681.7934 24.9009 663.7334 42.9709 663.7334 64.4509V605.4709L567.0534 626.4609V706.5409L703.2834 677.2509L839.0234 706.5409V768.5509C839.0234 888.1809 887.8534 948.7309 1000.6434 970.7009ZM488.4334 177.7309V631.8309L330.2334 489.7509C315.0934 476.0709 288.7334 476.5609 275.0534 492.1909C260.4134 508.3009 262.3634 534.1809 277.9834 547.8509L403.9634 660.6409L250.1534 693.8509C230.1334 697.7509 215.9734 718.7509 219.8834 739.7509C224.2734 760.2509 246.2534 774.4109 266.7534 770.0209L488.4334 723.1409V768.5509C488.4334 850.5809 465.4834 878.4209 390.2934 893.0709L175.4434 934.5709C111.9734 947.2609 67.0534 906.7409 86.0934 833.9809L256.5034 187.0109C273.5934 122.0709 323.8834 78.6109 381.5034 78.6109C444.9834 78.6109 488.4334 118.6509 488.4334 177.7309ZM917.6334 177.7309C917.6334 118.6509 960.6034 78.6109 1024.0834 78.6109C1081.6934 78.6109 1131.9934 122.0709 1149.0834 187.0109L1319.9834 833.9809C1338.5334 906.7409 1293.6134 947.2609 1230.1334 934.5709L1015.2934 893.0709C940.5834 878.4209 917.6334 850.5809 917.6334 768.5509V723.1409L1139.3134 770.0209C1159.8234 774.4109 1181.7934 760.2509 1185.7034 739.7509C1190.0934 718.7509 1175.9334 697.7509 1155.4334 693.8509L1001.6234 660.6409L1128.0834 547.8509C1143.7134 534.1809 1145.6634 508.3009 1131.0134 492.1909C1116.8534 476.5609 1090.4834 476.0709 1075.3534 489.7509L917.6334 632.3209Z"/>
</svg>