<?xml version="1.0" encoding="UTF-8" standalone="no"?>
<svg xmlns="http://www.w3.org/2000/svg"
     width="1335.9704358397657" height="995.2148029106992"
     viewBox="0 0 1335.9704358397657 995.2148029106992"
     fill="currentColor">
  <path d="M179.2165 990.7188L379.8965 951.6588C485.8565 931.1488 531.7565 874.5088 531.7565 762.2088V695.7988L667.9865 666.5088L803.7265 695.7988V762.2088C803.7265 874.5088 850.1165 931.1488 955.5865 951.6588L1156.7565 990.7188C1286.6365 1015.6288 1360.3665 934.5688 1328.6265 807.6188L1167.0065 157.2288C1143.0865 62.9887 1066.4265 -0.0013 978.0465 -0.0013C873.5565 -0.0013 803.7265 66.4088 803.7265 166.9887V615.7188L872.5765 630.3688L1040.0565 479.0088C1055.1965 465.3288 1081.5565 465.8188 1095.7165 481.4488C1110.3665 497.5588 1108.4165 523.4388 1092.7865 537.1088L966.3265 649.8988L1120.1365 683.1088C1140.6465 687.0088 1154.8065 708.0088 1150.4065 729.0088C1146.4965 749.5088 1124.5265 763.6688 1104.0165 759.2787L803.7265 695.7988V615.7188L707.0465 594.7288V53.7088C707.0465 32.2287 689.4665 14.1588 667.9865 14.1588C646.4965 14.1588 628.4365 32.2287 628.4365 53.7088V594.7288L531.7565 615.7188V695.7988V615.7188V166.9887C531.7565 66.4088 462.4165 -0.0013 357.9265 -0.0013C269.5465 -0.0013 192.3965 62.9887 168.9665 157.2288L7.3365 807.6188C-24.3935 934.5688 49.3365 1015.6288 179.2165 990.7188ZM231.4665 759.2787C210.9565 763.6688 188.9765 749.5088 184.5865 729.0088C180.6765 708.0088 194.8365 687.0088 214.8565 683.1088L368.6665 649.8988L242.6965 537.1088C227.0665 523.4388 225.1165 497.5588 239.7665 481.4488C253.4365 465.8188 279.8065 465.3288 294.9365 479.0088L462.9065 630.3688L531.7565 615.7188V695.7988Z"/>
</svg>