<?xml version="1.0" encoding="UTF-8" standalone="no"?>
<svg xmlns="http://www.w3.org/2000/svg"
     width="996.09375" height="996.09375"
     viewBox="0 0 996.09375 996.09375"
     fill="currentColor">
  <path d="M498.0477 996.0959C770.5077 996.0959 996.0977 770.0159 996.0977 498.0459C996.0977 225.5859 770.0177 -0.0041 497.5577 -0.0041C225.5877 -0.0041 -0.0023 225.5859 -0.0023 498.0459C-0.0023 770.0159 226.0777 996.0959 498.0477 996.0959ZM498.0477 913.0859C267.5777 913.0859 83.4977 728.5159 83.4977 498.0459C83.4977 267.5759 267.0877 83.0059 497.5577 83.0059C728.0277 83.0059 913.0877 267.5759 913.0877 498.0459C913.0877 728.5159 728.5177 913.0859 498.0477 913.0859ZM307.6177 724.6059C330.0777 724.6059 343.2577 709.9559 343.2577 684.5659V402.8359H347.6577L459.9577 684.0859C467.2877 701.6559 478.5177 709.9559 497.0677 709.9559C515.1377 709.9559 527.3477 701.6559 534.1777 684.0859L647.4577 402.8359H651.3677V684.5659C651.3677 709.4759 664.5477 724.6059 686.0377 724.6059C708.9877 724.6059 722.1677 709.9559 722.1677 684.5659V310.5459C722.1677 283.6959 703.1277 265.1359 676.2677 265.1359C652.8277 265.1359 637.2077 275.8759 628.4177 296.8759L499.0277 621.5859H496.5777L366.2077 296.8759C357.9077 275.8759 342.2877 265.1359 318.8477 265.1359C291.5077 265.1359 272.4577 283.6959 272.4577 310.5459V684.5659C272.4577 709.4759 286.1377 724.6059 307.6177 724.6059Z"/>
</svg>