<?xml version="1.0" encoding="UTF-8" standalone="no"?>
<svg xmlns="http://www.w3.org/2000/svg"
     width="996.09375" height="996.09375"
     viewBox="0 0 996.09375 996.09375"
     fill="currentColor">
  <path d="M498.0477 996.0959C770.5077 996.0959 996.0977 770.0159 996.0977 498.0459C996.0977 225.5859 770.0177 -0.0041 497.5577 -0.0041C225.5877 -0.0041 -0.0023 225.5859 -0.0023 498.0459C-0.0023 770.0159 226.0777 996.0959 498.0477 996.0959ZM302.2477 731.9359C279.7877 731.9359 265.6277 716.3059 265.6277 690.4259V304.6859C265.6277 276.8559 285.1577 257.8159 313.4777 257.8159C337.8877 257.8159 354.0077 269.0459 362.7977 290.5259L497.0677 624.9959H499.5077L632.8077 290.5259C642.0877 269.0459 658.2077 257.8159 682.6177 257.8159C710.4477 257.8159 729.9777 276.8559 729.9777 304.6859V690.4259C729.9777 716.7959 716.3077 731.9359 692.3877 731.9359C670.4077 731.9359 656.7377 716.3059 656.7377 690.4259V400.8759H652.3477L536.1377 689.9459C528.8077 708.0059 516.1177 716.3059 497.5577 716.3059C478.5177 716.3059 466.7977 708.0059 458.9877 689.9459L343.7477 400.8759H338.8677V690.4259C338.8677 716.7959 325.1977 731.9359 302.2477 731.9359Z"/>
</svg>