<?xml version="1.0" encoding="UTF-8" standalone="no"?>
<svg xmlns="http://www.w3.org/2000/svg"
     width="709.9609375" height="1156.25"
     viewBox="0 0 709.9609375 1156.25"
     fill="currentColor">
  <path d="M354.9783 125.4858C466.3083 125.4858 556.6383 97.6558 556.6383 62.4958C556.6383 28.3158 466.3083 -0.0042 354.9783 -0.0042C243.6483 -0.0042 153.3183 28.3158 153.3183 62.4958C153.3183 97.6558 243.6483 125.4858 354.9783 125.4858ZM354.9783 1156.2458C578.1283 1156.2458 709.9583 1071.2858 709.9583 927.7358V228.5158C709.9583 171.8758 689.4483 125.9758 655.2783 93.7458C637.6983 75.1958 615.7183 74.7058 605.9583 92.2858C580.5683 148.4358 474.6083 182.1258 354.9783 182.1258C235.3483 182.1258 128.9083 148.4358 103.5183 92.2858C93.7483 74.7058 71.7783 75.1958 54.6883 93.7458C20.5083 125.9758 -0.0017 171.8758 -0.0017 228.5158V927.7358C-0.0017 1071.2858 131.8383 1156.2458 354.9783 1156.2458ZM354.9783 1077.6358C174.8083 1077.6358 78.1283 1020.0158 78.1283 925.2958V234.3758C78.1283 216.3058 83.0083 201.6558 92.7783 188.9658C148.4383 235.8358 245.1183 261.2258 354.9783 261.2258C464.8483 261.2258 561.5283 235.8358 617.1883 188.9658C626.9483 201.6558 631.8383 216.3058 631.8383 234.3758V925.2958C631.8383 1020.0158 535.1583 1077.6358 354.9783 1077.6358Z"/>
</svg>