<?xml version="1.0" encoding="UTF-8" standalone="no"?>
<svg xmlns="http://www.w3.org/2000/svg"
     width="1008.7890625" height="1153.3203125"
     viewBox="0 0 1008.7890625 1153.3203125"
     fill="currentColor">
  <path d="M-0.0017 1068.3609C-0.0017 1119.6309 31.2483 1153.3209 79.5883 1153.3209H184.0783C212.8883 1153.3209 233.8883 1138.1809 242.1883 1111.3309L266.1183 1028.8109H742.6783L766.5983 1111.3309C774.8983 1138.1809 796.3883 1153.3209 825.1983 1153.3209H929.1983C977.5383 1153.3209 1008.7883 1119.6309 1008.7883 1068.3609V84.9609C1008.7883 33.6909 977.5383 0.0009 929.1983 0.0009H825.1983C796.3883 0.0009 774.8983 15.1409 766.5983 41.9909L742.6783 124.5109H266.1183L242.1883 41.9909C233.8883 15.1409 212.8883 0.0009 184.0783 0.0009H79.5883C31.2483 0.0009 -0.0017 33.6909 -0.0017 84.9609ZM509.7683 456.0509C507.3283 456.0509 505.8583 455.5709 504.8783 454.5909C504.3983 454.1009 504.3983 451.1709 504.3983 448.2409C504.3983 428.7109 513.1883 408.6909 524.4183 396.4809C538.5783 380.8609 561.5283 368.6509 580.5683 368.1609C581.0583 370.1209 581.0583 372.5609 581.0583 375.4909C581.0583 395.0209 572.7583 414.5509 561.5283 428.7109C548.8283 444.3309 526.8583 456.0509 509.7683 456.0509ZM449.2183 746.5809C425.7783 746.5809 409.6683 724.6109 391.1183 698.2409C369.1383 666.9909 351.5583 619.1409 351.5583 573.2409C351.5583 499.0209 398.9283 460.4509 446.2883 460.4509C471.6783 460.4509 491.6983 476.5609 507.3283 476.5609C522.4583 476.5609 545.8983 459.4709 574.2183 459.4709C585.4483 459.4709 623.5383 460.4509 649.4183 497.0709C646.9683 498.5309 608.3983 521.0009 608.3983 569.3309C608.3983 625.4909 657.7183 645.0209 659.1783 645.5109C658.6883 647.4609 651.8583 673.3409 633.2983 699.7109C617.1883 722.1709 600.0983 746.5809 574.2183 746.5809C548.8283 746.5809 541.5083 731.4409 511.7183 731.4409C483.8883 731.4409 472.6583 746.5809 449.2183 746.5809Z"/>
</svg>