<?xml version="1.0" encoding="UTF-8" standalone="no"?>
<svg xmlns="http://www.w3.org/2000/svg"
     width="1008.7890625" height="1227.05078125"
     viewBox="0 0 1008.7890625 1227.05078125"
     fill="currentColor">
  <path d="M153.3183 1082.0323H183.5983V1152.8323H131.3483C111.3283 1152.8323 94.7283 1169.4323 94.7283 1189.9423C94.7283 1210.4523 111.3283 1227.0523 131.3483 1227.0523H309.5683C330.0783 1227.0523 346.1883 1210.4523 346.1883 1189.9423C346.1883 1169.4323 330.0783 1152.8323 309.5683 1152.8323H257.3283V1082.0323H751.4683V1152.8323H699.2183C679.1983 1152.8323 662.5983 1169.4323 662.5983 1189.9423C662.5983 1210.4523 679.1983 1227.0523 699.2183 1227.0523H877.4383C897.9483 1227.0523 914.0583 1210.4523 914.0583 1189.9423C914.0583 1169.4323 897.9483 1152.8323 877.4383 1152.8323H825.1983V1082.0323H855.4683C957.5183 1082.0323 1008.7883 1031.2523 1008.7883 931.1523V290.0423C1008.7883 188.9623 957.5183 138.6723 855.4683 138.6723H825.1983V36.6223C825.1983 16.6023 809.0783 0.0023 788.5783 0.0023C767.5783 0.0023 751.4683 16.6023 751.4683 36.6223V138.6723H257.3283V36.6223C257.3283 16.6023 241.2083 0.0023 220.6983 0.0023C200.1983 0.0023 183.5983 16.6023 183.5983 36.6223V138.6723H153.3183C50.7783 138.6723 -0.0017 188.9623 -0.0017 290.0423V931.1523C-0.0017 1031.7423 50.7783 1082.0323 153.3183 1082.0323ZM509.7683 490.2323C507.3283 490.2323 505.8583 489.2623 504.8783 488.2823C504.3983 487.7923 504.3983 484.8623 504.3983 481.9323C504.3983 462.4023 512.6983 442.3823 523.9283 430.1723C538.5783 414.5523 561.0383 402.8323 580.0783 401.8523C581.0583 403.8123 581.0583 406.2523 581.0583 409.1823C581.0583 429.2023 572.7583 448.2423 561.0383 462.4023C548.8283 478.0223 526.3683 490.2323 509.7683 490.2323ZM449.2183 780.2723C425.7783 780.2723 409.6683 758.3023 391.1183 732.4223C368.6483 701.1723 351.5583 652.8323 351.5583 606.9323C351.5583 532.7123 398.9283 494.1423 446.2883 494.1423C471.1883 494.1423 491.6983 510.7423 507.3283 510.7423C522.4583 510.7423 545.4083 493.1623 573.7283 493.1623C584.9583 493.1623 623.5383 494.1423 649.4183 530.7623C646.9683 532.2223 608.3983 554.6923 608.3983 603.5123C608.3983 659.1823 657.7183 678.7123 659.1783 679.6923C658.1983 681.1523 651.8583 707.0323 633.2983 733.4023C617.1883 756.3523 600.0983 780.2723 573.7283 780.2723C548.8283 780.2723 541.5083 765.1323 511.7183 765.1323C483.8883 765.1323 472.6583 780.2723 449.2183 780.2723Z"/>
</svg>