<?xml version="1.0" encoding="UTF-8" standalone="no"?>
<svg xmlns="http://www.w3.org/2000/svg"
     width="1195.80078125" height="648.4375"
     viewBox="0 0 1195.80078125 648.4375"
     fill="currentColor">
  <path d="M153.3183 648.4392H1042.4783C1144.5283 648.4392 1195.7983 597.6592 1195.7983 497.0692V151.3692C1195.7983 50.7792 1144.5283 -0.0008 1042.4783 -0.0008H153.3183C50.7783 -0.0008 -0.0017 50.2892 -0.0017 151.3692V497.0692C-0.0017 598.1492 50.7783 648.4392 153.3183 648.4392ZM154.2983 569.8192C105.4683 569.8192 78.6183 543.4592 78.6183 493.1592V155.2692C78.6183 104.4892 105.4683 78.6092 154.2983 78.6092H1041.5083C1089.8483 78.6092 1117.1883 104.4892 1117.1883 155.2692V493.1592C1117.1883 543.4592 1089.8483 569.8192 1041.5083 569.8192ZM187.9883 497.0692C206.0583 496.5792 220.2183 482.4192 220.2183 465.3292V386.7192C220.2183 368.6492 205.5683 354.4892 187.9883 354.9792C170.4083 354.4892 156.2483 368.6492 156.2483 386.7192V464.8392C156.2483 482.9092 169.9183 496.5792 187.9883 497.0692ZM306.1483 497.0692C324.2183 496.5792 337.8883 482.4192 337.8883 465.3292V386.7192C337.8883 368.6492 323.7283 354.4892 306.1483 354.9792C288.5783 354.4892 273.9283 368.6492 273.9283 386.7192V464.8392C273.9283 482.9092 288.0883 496.5792 306.1483 497.0692ZM988.7683 483.3992C1019.0383 482.9092 1044.9183 457.0292 1044.9183 426.2692C1044.9183 395.0192 1019.0383 368.6492 988.7683 368.6492C957.5183 368.6492 931.1483 395.0192 931.1483 426.2692C931.1483 457.0292 957.5183 483.8892 988.7683 483.3992ZM432.1283 458.0092H629.8783C647.4583 458.0092 662.1083 443.3592 662.1083 425.7792C662.1083 408.1992 647.4583 394.0392 629.8783 394.0392H432.1283C414.5483 394.0392 399.8983 408.1992 399.8983 425.7792C399.8983 443.3592 414.5483 458.0092 432.1283 458.0092Z"/>
</svg>