<?xml version="1.0" encoding="UTF-8" standalone="no"?>
<svg xmlns="http://www.w3.org/2000/svg"
     width="1195.80078125" height="648.4375"
     viewBox="0 0 1195.80078125 648.4375"
     fill="currentColor">
  <path d="M153.3183 648.4392H1042.4783C1144.5283 648.4392 1195.7983 597.6592 1195.7983 497.0692V151.3692C1195.7983 50.7792 1144.5283 -0.0008 1042.4783 -0.0008H153.3183C50.7783 -0.0008 -0.0017 50.2892 -0.0017 151.3692V497.0692C-0.0017 598.1492 50.7783 648.4392 153.3183 648.4392ZM175.2883 499.5092C156.2483 499.0192 142.0883 484.8592 142.0883 465.8192V385.7392C142.0883 366.6992 156.7383 352.0492 175.2883 352.5392C193.3583 352.0492 208.4983 366.6992 208.4983 385.7392V466.3092C208.4983 484.3792 193.8483 499.0192 175.2883 499.5092ZM297.3683 499.5092C278.3183 499.0192 263.6683 484.8592 263.6683 465.8192V385.7392C263.6683 366.6992 278.8083 352.0492 297.3683 352.5392C315.4283 352.0492 330.0783 366.6992 330.0783 385.7392V466.3092C330.0783 484.3792 315.9183 499.0192 297.3683 499.5092ZM1000.9783 485.3492C968.7483 485.8392 941.4083 458.0092 941.4083 426.2692C941.4083 394.0392 968.7483 366.6992 1000.9783 366.6992C1032.2283 366.6992 1059.0783 394.0392 1059.0783 426.2692C1059.0783 458.0092 1032.2283 484.8592 1000.9783 485.3492ZM427.2483 458.9892C409.1783 458.9892 394.0383 443.8492 394.0383 425.7792C394.0383 407.7192 409.1783 393.0692 427.2483 393.0692H631.3483C649.4183 393.0692 664.5483 407.7192 664.5483 425.7792C664.5483 443.8492 649.4183 458.9892 631.3483 458.9892Z"/>
</svg>