<?xml version="1.0" encoding="UTF-8" standalone="no"?>
<svg xmlns="http://www.w3.org/2000/svg"
     width="600.7189931642577" height="1104.00390625"
     viewBox="0 0 600.7189931642577 1104.00390625"
     fill="currentColor">
  <path d="M300.3548 1104.0052C470.2848 1104.0052 571.8448 1021.9752 587.4648 855.4652C605.5348 656.7352 605.0448 455.0752 586.4948 239.2552C572.3348 82.5152 470.2848 -0.0048 300.3548 -0.0048C130.4348 -0.0048 28.3848 82.5152 14.2248 239.2552C-4.3252 455.0752 -4.8152 656.7352 13.2548 855.4652C28.8748 1021.9752 130.4348 1104.0052 300.3548 1104.0052ZM295.4748 764.6452C295.4748 738.2852 314.5148 718.7452 334.5348 718.7452C338.4448 740.7252 318.9148 765.6252 295.4748 764.6452ZM299.8748 906.7352C284.7348 906.7352 279.3648 914.5552 267.1548 914.5552C254.9448 914.5552 247.1348 903.3252 237.3748 889.6452C225.6548 873.0452 216.8648 848.6352 216.8648 825.1952C216.8648 787.1052 241.7648 767.5752 266.1848 767.5752C277.8948 767.5752 287.1748 775.3952 297.4348 775.3952C307.6848 775.3952 316.4748 767.5752 332.0948 767.5752C337.4648 767.5752 357.4848 767.5752 370.1848 785.6452C369.2048 786.6252 349.6748 797.8552 349.6748 823.2452C349.6748 851.5652 374.5748 861.3252 375.0648 862.3052C375.0648 862.7952 371.6448 876.4652 361.8848 890.1352C353.5848 902.3452 344.7948 914.5552 332.0948 914.5552C318.9148 914.5552 315.0048 906.7352 299.8748 906.7352Z"/>
</svg>