<?xml version="1.0" encoding="UTF-8" standalone="no"?>
<svg xmlns="http://www.w3.org/2000/svg"
     width="996.09375" height="996.09375"
     viewBox="0 0 996.09375 996.09375"
     fill="currentColor">
  <path d="M498.0477 996.0959C770.5077 996.0959 996.0977 770.0159 996.0977 498.0459C996.0977 225.5859 770.0177 -0.0041 497.5577 -0.0041C225.5877 -0.0041 -0.0023 225.5859 -0.0023 498.0459C-0.0023 770.0159 226.0777 996.0959 498.0477 996.0959ZM498.0477 913.0859C267.5777 913.0859 83.4977 728.5159 83.4977 498.0459C83.4977 267.5759 267.0877 83.0059 497.5577 83.0059C728.0277 83.0059 913.0877 267.5759 913.0877 498.0459C913.0877 728.5159 728.5177 913.0859 498.0477 913.0859ZM444.8277 645.0159C484.3777 645.0159 521.4877 633.2959 552.7377 613.7659L677.7377 738.2859C687.4977 748.5359 698.2377 752.9259 712.3977 752.9259C735.8377 752.9259 751.9577 735.8359 751.9577 711.4259C751.9577 700.1959 746.5777 689.9459 738.7677 681.6359L612.7977 555.1759C634.7677 522.9459 647.9477 483.8859 647.9477 441.8959C647.9477 330.0759 556.6377 238.7659 444.8277 238.7659C333.0077 238.7659 241.6977 330.5659 241.6977 441.8959C241.6977 553.2259 333.0077 645.0159 444.8277 645.0159ZM444.8277 578.6159C370.1177 578.6159 308.1077 516.6059 308.1077 441.8959C308.1077 367.1859 370.1177 305.1759 444.8277 305.1759C519.5277 305.1759 581.0577 366.6959 581.0577 441.8959C581.0577 516.6059 519.5277 578.6159 444.8277 578.6159Z"/>
</svg>