<?xml version="1.0" encoding="UTF-8" standalone="no"?>
<svg xmlns="http://www.w3.org/2000/svg"
     width="693.359375" height="1001.953125"
     viewBox="0 0 693.359375 1001.953125"
     fill="currentColor">
  <path d="M135.7383 1001.9556H557.6183C639.1583 1001.9556 693.3583 950.1956 693.3583 873.5356V128.4156C693.3583 51.2656 639.1583 -0.0044 557.6183 -0.0044H135.7383C54.1983 -0.0044 -0.0017 51.2656 -0.0017 128.4156V873.5356C-0.0017 950.1956 54.1983 1001.9556 135.7383 1001.9556ZM145.5083 923.3356C104.9783 923.3356 78.6183 898.4356 78.6183 860.8356V141.1156C78.6183 103.5156 104.9783 78.6156 145.5083 78.6156H547.8483C588.3783 78.6156 614.7483 103.5156 614.7483 141.1156V860.8356C614.7483 898.4356 588.3783 923.3356 547.8483 923.3356ZM347.1683 575.6856C470.2183 575.6856 570.7983 475.5856 570.7983 352.0556C570.7983 228.0256 470.2183 127.9256 347.1683 127.9256C223.1483 127.9256 123.0483 228.0256 123.0483 352.0556C123.0483 475.5856 223.1483 575.6856 347.1683 575.6856ZM347.1683 514.1556C256.8383 514.1556 184.5683 441.8956 184.5683 352.0556C184.5683 261.7156 256.8383 189.4556 347.1683 189.4556C436.5283 189.4556 509.2783 262.2056 509.2783 352.0556C509.2783 441.8956 436.5283 514.1556 347.1683 514.1556ZM347.1683 816.4056C364.7483 816.4056 378.9083 801.7556 378.9083 784.1756V690.9156C378.9083 673.3356 364.7483 658.6956 347.1683 658.6956C329.5883 658.6956 314.9383 673.3356 314.9383 690.9156V784.1756C314.9383 801.7556 329.5883 816.4056 347.1683 816.4056Z"/>
</svg>