<?xml version="1.0" encoding="UTF-8" standalone="no"?>
<svg xmlns="http://www.w3.org/2000/svg"
     width="1151.3671875" height="898.92578125"
     viewBox="0 0 1151.3671875 898.92578125"
     fill="currentColor">
  <path d="M153.3183 898.9278H998.0483C1100.5883 898.9278 1151.3683 848.6378 1151.3683 748.0478V151.3678C1151.3683 50.7778 1100.5883 -0.0022 998.0483 -0.0022H153.3183C51.2683 -0.0022 -0.0017 50.7778 -0.0017 151.3678V748.0478C-0.0017 848.6378 51.2683 898.9278 153.3183 898.9278ZM154.2983 820.3078C105.4683 820.3078 78.6183 794.4378 78.6183 743.6478V155.7578C78.6183 104.9778 105.4683 78.6178 154.2983 78.6178H997.0683C1045.4083 78.6178 1072.7583 104.9778 1072.7583 155.7578V743.6478C1072.7583 794.4378 1045.4083 820.3078 997.0683 820.3078ZM836.4283 439.4578C900.8783 439.4578 953.1283 387.2078 953.1283 322.2678C953.1283 257.3278 900.8783 205.0778 836.4283 205.0778C771.9683 205.0778 719.2383 257.3278 719.2383 322.2678C719.2383 387.2078 771.9683 439.4578 836.4283 439.4578ZM231.9383 295.8978H546.8783C565.9183 295.8978 581.0583 280.2778 581.0583 261.2278C581.0583 242.1878 565.9183 227.5378 546.8783 227.5378H231.9383C212.3983 227.5378 198.2383 242.1878 198.2383 261.2278C198.2383 280.2778 212.3983 295.8978 231.9383 295.8978ZM231.9383 426.2678H462.3983C481.4483 426.2678 496.5783 411.1278 496.5783 392.0878C496.5783 373.0478 481.4483 357.9078 462.3983 357.9078H231.9383C212.3983 357.9078 198.2383 373.0478 198.2383 392.0878C198.2383 411.1278 212.3983 426.2678 231.9383 426.2678Z"/>
</svg>