<?xml version="1.0" encoding="UTF-8" standalone="no"?>
<svg xmlns="http://www.w3.org/2000/svg"
     width="996.09375" height="996.09375"
     viewBox="0 0 996.09375 996.09375"
     fill="currentColor">
  <path d="M498.0477 996.0959C770.5077 996.0959 996.0977 770.0159 996.0977 498.0459C996.0977 225.5859 770.0177 -0.0041 497.5577 -0.0041C225.5877 -0.0041 -0.0023 225.5859 -0.0023 498.0459C-0.0023 770.0159 226.0777 996.0959 498.0477 996.0959ZM351.5577 730.9559C332.0277 730.9559 317.8677 718.2659 317.8677 697.2659V532.7159C317.8677 400.3859 377.9277 325.1959 470.2177 313.4759V261.2259C470.2177 243.6559 481.9377 233.8859 498.0477 233.8859C512.2077 233.8859 525.3877 243.6559 525.3877 261.2259V312.9859C617.6777 324.7059 678.7077 399.9059 678.7077 532.7159V697.2659C678.7077 718.2659 665.0377 730.9559 645.5077 730.9559C626.4677 730.9559 613.2777 718.2659 613.2777 697.2659V537.1059C613.2777 441.8959 579.5877 388.1859 525.3877 375.9759V703.1259C525.3877 719.7259 512.2077 730.9559 498.0477 730.9559C481.9377 730.9559 470.2177 719.7259 470.2177 703.1259V376.4659C416.5077 390.1359 384.2777 443.3559 384.2777 537.1059V697.2659C384.2777 718.2659 371.0977 730.9559 351.5577 730.9559Z"/>
</svg>