<?xml version="1.0" encoding="UTF-8" standalone="no"?>
<svg xmlns="http://www.w3.org/2000/svg"
     width="898.92578125" height="898.92578125"
     viewBox="0 0 898.92578125 898.92578125"
     fill="currentColor">
  <path d="M153.3183 898.9295H745.6083C848.1483 898.9295 898.9283 848.1495 898.9283 747.5595V151.3695C898.9283 50.7795 848.1483 -0.0005 745.6083 -0.0005H153.3183C51.2683 -0.0005 -0.0017 50.2895 -0.0017 151.3695V747.5595C-0.0017 848.6295 51.2683 898.9295 153.3183 898.9295ZM154.2983 820.3095C105.4683 820.3095 78.6183 794.4295 78.6183 743.6495V155.2695C78.6183 104.4895 105.4683 78.6095 154.2983 78.6095H744.6283C792.9683 78.6095 820.3083 104.4895 820.3083 155.2695V743.6495C820.3083 794.4295 792.9683 820.3095 744.6283 820.3095ZM307.6183 674.3195C326.6583 674.3195 339.3583 662.1095 339.3583 641.5995V486.3295C339.3583 395.5095 371.0983 343.7495 422.8483 330.5695V647.4595C422.8483 663.5695 434.0783 674.3195 449.7083 674.3195C463.3783 674.3195 476.0783 663.5695 476.0783 647.4595V330.0795C528.8083 342.2895 561.5283 394.0395 561.5283 486.3295V641.5995C561.5283 662.1095 574.2183 674.3195 592.7783 674.3195C611.8183 674.3195 624.5083 662.1095 624.5083 641.5995V482.4195C624.5083 353.5195 565.4283 280.7595 476.0783 269.5295V219.2395C476.0783 202.1495 463.3783 192.8695 449.7083 192.8695C434.0783 192.8695 422.8483 202.1495 422.8483 219.2395V270.0195C333.4983 281.2495 275.3883 353.9995 275.3883 482.4195V641.5995C275.3883 662.1095 289.0583 674.3195 307.6183 674.3195Z"/>
</svg>