<?xml version="1.0" encoding="UTF-8" standalone="no"?>
<svg xmlns="http://www.w3.org/2000/svg"
     width="1015.625" height="955.56640625"
     viewBox="0 0 1015.625 955.56640625"
     fill="currentColor">
  <path d="M368.6483 808.1047L614.7483 946.2847C622.0683 950.1947 629.8783 953.6147 637.2083 955.5647V158.6947L395.9983 11.2347C387.6983 5.8547 377.9283 1.9547 368.6483 0.0047ZM-0.0017 884.7647C-0.0017 920.4147 20.5083 940.9147 55.6683 940.9147C68.3583 940.9147 80.5683 937.0147 96.6783 928.2247L301.7583 817.3847V8.3047C292.9683 12.6947 283.1983 17.5747 274.4183 22.4647L42.9683 155.2747C13.6683 171.3847 -0.0017 194.8247 -0.0017 227.5347ZM703.6183 954.1047C708.4983 952.6347 713.8683 950.6847 718.2583 947.7547L972.6583 803.2247C1001.9483 787.1047 1015.6283 763.6747 1015.6283 730.9547V73.2447C1015.6283 37.1047 995.1183 17.0947 959.9583 17.0947C947.2683 17.0947 935.0583 20.9947 918.9483 29.7847L703.6183 149.4147Z"/>
</svg>