<?xml version="1.0" encoding="UTF-8" standalone="no"?>
<svg xmlns="http://www.w3.org/2000/svg"
     width="996.09375" height="996.09375"
     viewBox="0 0 996.09375 996.09375"
     fill="currentColor">
  <path d="M498.0477 996.0977C770.5077 996.0977 996.0977 770.5077 996.0977 498.0477C996.0977 226.0777 770.0177 -0.0023 497.5577 -0.0023C225.5877 -0.0023 -0.0023 226.0777 -0.0023 498.0477C-0.0023 770.5077 226.0777 996.0977 498.0477 996.0977ZM531.2477 423.3377L390.6277 283.2077C404.2977 237.3077 446.7777 204.0977 497.0677 204.0977C559.0777 204.0977 609.3777 254.3977 609.3777 316.4077C609.3777 366.6977 576.6577 409.1777 531.2477 423.3377ZM725.5877 756.8377L238.2777 270.5077C229.9777 262.2077 229.9777 247.5577 238.2777 239.2577C247.5577 230.4677 261.2277 230.4677 270.0177 239.2577L756.8377 725.5877C765.6277 734.3777 765.6277 748.0477 756.8377 756.8377C748.0477 765.6277 733.8877 765.1377 725.5877 756.8377ZM433.1077 287.1077C433.1077 305.6677 449.7077 322.2677 468.7477 322.2677C488.2777 322.2677 503.9077 305.6677 503.9077 287.1077C504.3977 267.5777 488.2777 250.9777 468.7477 250.9777C449.7077 250.9777 433.1077 267.5777 433.1077 287.1077ZM463.3777 547.8477L530.7577 615.2377V666.5077C530.7577 739.2577 519.5277 801.7577 497.0677 801.7577C475.0977 801.7577 463.3777 737.7977 463.3777 666.5077Z"/>
</svg>