<?xml version="1.0" encoding="UTF-8" standalone="no"?>
<svg xmlns="http://www.w3.org/2000/svg"
     width="927.24609375" height="1072.265625"
     viewBox="0 0 927.24609375 1072.265625"
     fill="currentColor">
  <path d="M280.2777 184.0819C280.2777 270.0219 338.3777 341.7919 417.9677 361.8119V670.9019C417.9677 814.9419 443.8477 893.5519 463.3777 893.5519C483.3977 893.5519 508.7877 815.4319 508.7877 670.9019V361.8119C588.3777 342.2819 646.9777 270.0219 646.9777 184.0819C646.9777 83.0119 565.4277 0.0019 463.3777 0.0019C361.8177 0.0019 280.2777 83.0119 280.2777 184.0819ZM411.1377 194.3319C377.9277 194.3319 348.6377 165.0419 348.6377 130.8619C348.6377 97.1719 377.9277 68.3619 411.1377 68.3619C445.7977 68.3619 474.1177 97.1719 474.1177 130.8619C474.1177 165.0419 445.7977 194.3319 411.1377 194.3319ZM463.8677 1072.2619C758.2977 1072.2619 927.2477 970.7019 927.2477 863.2819C927.2477 734.3719 722.6577 655.7619 588.3777 654.2919V725.5819C682.6177 727.0519 828.6177 778.3219 828.6177 851.5619C828.6177 935.5519 673.8277 995.1219 463.8677 995.1219C252.9277 995.1219 99.1177 936.5219 99.1177 851.5619C99.1177 778.3219 244.6277 727.0519 338.8677 725.5819V654.2919C204.5877 655.7619 -0.0023 734.3719 -0.0023 863.2819C-0.0023 970.7019 169.4377 1072.2619 463.8677 1072.2619Z"/>
</svg>