<?xml version="1.0" encoding="UTF-8" standalone="no"?>
<svg xmlns="http://www.w3.org/2000/svg"
     width="928.3823113692434" height="1111.328125"
     viewBox="0 0 928.3823113692434 1111.328125"
     fill="currentColor">
  <path d="M464.2555 1111.3303C641.0155 1111.3303 784.0755 968.2603 784.0755 791.5003C784.0755 729.0003 766.4955 670.9003 735.7355 622.0703L921.7755 272.9503C931.0455 256.8403 930.5655 238.2803 920.3055 223.1403L787.9855 20.5103C777.7255 6.3503 765.5255 0.0003 746.4755 0.0003H182.0255C162.4955 0.0003 150.2855 6.3503 140.5255 20.5103L7.7055 223.1403C-2.0545 238.2803 -2.5445 256.8403 6.2455 272.9503L192.2755 622.0703C161.5155 670.9003 143.9355 729.0003 143.9355 791.5003C143.9355 968.2603 287.0055 1111.3303 464.2555 1111.3303ZM206.9255 73.7303H721.0855L640.5255 224.1203H287.9855ZM80.9555 246.0903L159.5655 125.4903L346.0855 493.1603C307.0255 508.7903 271.3855 532.2303 241.5955 561.0303ZM768.4555 125.4903L847.5555 246.0903L686.9055 561.0303C656.6355 532.2303 621.4755 508.7903 581.9255 493.1603ZM464.2555 471.1903C449.6055 471.1903 435.4455 472.1703 421.7755 473.6303L327.5355 297.8503H600.9755L506.2455 473.6303C492.5755 472.1703 478.4155 471.1903 464.2555 471.1903ZM464.2555 1037.6003C328.0255 1037.6003 217.6755 927.7303 217.6755 791.5003C217.6755 655.2703 327.5355 544.9203 464.2555 544.9203C599.9955 544.9203 710.3455 654.7803 710.3455 791.5003C710.3455 927.2503 600.4855 1037.6003 464.2555 1037.6003ZM378.3155 945.8003L464.7455 882.8103L550.1855 945.8003C568.7455 958.9803 587.2955 945.3103 580.4655 924.8003L545.7955 822.7503L633.1955 760.2503C649.3155 749.0203 644.9155 725.5903 621.9655 725.5903L515.0355 726.5603L482.3155 624.0203C475.9755 603.5203 452.5355 603.5203 446.1855 624.0203L413.4755 726.5603L306.5355 725.5903C284.0755 725.5903 278.7055 748.5303 295.7955 760.7403L383.1955 822.7503L348.5255 924.8003C341.6955 945.3103 360.2455 958.9803 378.3155 945.8003Z"/>
</svg>