<?xml version="1.0" encoding="UTF-8" standalone="no"?>
<svg xmlns="http://www.w3.org/2000/svg"
     width="1087.40234375" height="1041.9921875"
     viewBox="0 0 1087.40234375 1041.9921875"
     fill="currentColor">
  <path d="M987.7883 952.6352C1047.3683 952.6352 1087.3983 912.1052 1087.3983 853.5152V99.6052C1087.3983 40.5252 1047.3683 -0.0048 987.7883 -0.0048C929.1983 -0.0048 888.6683 40.5252 888.6683 99.6052V853.5152C888.6683 912.1052 929.1983 952.6352 987.7883 952.6352ZM376.4683 711.9152C514.6483 727.0552 687.4983 767.5752 821.7783 833.4952V122.5552C686.0383 188.9652 502.4383 230.9552 376.4683 244.6252ZM204.5883 711.4252H309.5683V244.6252H204.5883C71.2883 244.6252 -0.0017 313.9652 -0.0017 442.3852V513.6752C-0.0017 641.6052 71.2883 711.4252 204.5883 711.4252ZM398.9283 1041.9952C459.4683 1041.9952 503.9083 999.5152 488.2783 924.3152L460.9383 792.9652C423.8283 786.6252 368.6483 782.2252 245.1183 778.8052C236.3283 778.8052 221.1883 777.8352 205.5683 777.8352L287.5983 957.0352C312.0083 1010.2552 342.2883 1041.9952 398.9283 1041.9952Z"/>
</svg>