<?xml version="1.0" encoding="UTF-8" standalone="no"?>
<svg xmlns="http://www.w3.org/2000/svg"
     width="1151.3671875" height="898.92578125"
     viewBox="0 0 1151.3671875 898.92578125"
     fill="currentColor">
  <path d="M153.3183 898.9278H998.0483C1100.5883 898.9278 1151.3683 848.6378 1151.3683 748.0478V151.3678C1151.3683 50.7778 1100.5883 -0.0022 998.0483 -0.0022H153.3183C51.2683 -0.0022 -0.0017 50.7778 -0.0017 151.3678V748.0478C-0.0017 848.6378 51.2683 898.9278 153.3183 898.9278ZM78.6183 155.7578C78.6183 104.9778 105.4683 78.6178 154.2983 78.6178H997.0683C1045.4083 78.6178 1072.7583 104.9778 1072.7583 155.7578V164.5478H78.6183ZM154.2983 820.3078C105.4683 820.3078 78.6183 794.4378 78.6183 743.6478V233.3978H1072.7583V743.6478C1072.7583 794.4378 1045.4083 820.3078 997.0683 820.3078ZM576.1683 715.8178C597.1683 715.8178 614.7483 698.2378 614.7483 677.7378V516.5978L611.8183 434.5678L653.8083 478.5178L717.2883 541.9878C724.6083 549.3178 733.8883 553.7078 743.6483 553.7078C764.6483 553.7078 779.7883 539.5478 779.7883 519.0478C779.7883 507.8078 775.3883 499.5078 766.5983 492.1878L604.4883 340.8178C594.2383 331.0578 585.9383 327.6378 576.1683 327.6378C565.9183 327.6378 558.1083 331.0578 547.8483 340.8178L385.2583 492.1878C376.9483 499.5078 372.5583 507.8078 372.5583 519.0478C372.5583 539.5478 387.2083 553.7078 407.7183 553.7078C417.4783 553.7078 427.2483 549.3178 435.0583 541.9878L498.5383 478.5178L540.5283 434.5678L537.1083 516.5978V677.7378C537.1083 698.2378 555.1783 715.8178 576.1683 715.8178Z"/>
</svg>