<?xml version="1.0" encoding="UTF-8" standalone="no"?>
<svg xmlns="http://www.w3.org/2000/svg"
     width="1246.58203125" height="1055.17578125"
     viewBox="0 0 1246.58203125 1055.17578125"
     fill="currentColor">
  <path d="M211.9177 1022.9495C277.8277 1022.9495 412.5977 956.5395 511.7177 885.7395C560.0577 888.6695 606.9377 885.2495 655.2777 876.9495C654.7877 872.0695 654.2977 867.1895 654.2977 862.7895V812.0095C654.2977 806.6395 654.7877 801.7595 655.2777 797.3595C620.1177 803.2195 586.9177 806.6395 553.7077 806.6395C543.9477 806.6395 528.8077 806.1495 509.2777 805.6595C488.7677 805.6595 473.1477 812.0095 454.5877 826.6595C394.5277 870.1195 307.6177 923.8295 263.1877 941.8995C259.2777 943.3595 257.8077 940.4295 260.2577 937.0095C287.5977 903.3195 326.6577 852.5395 343.2577 821.2895C356.9377 795.8995 353.5177 773.4395 322.2677 758.7895C168.9477 687.4995 81.0577 573.7295 81.0577 443.8495C81.0577 243.6495 290.5277 80.5695 553.7077 80.5695C817.3877 80.5695 1026.8577 243.6495 1026.8577 443.8495C1026.8577 472.1695 1022.9477 499.5095 1015.1377 525.3895C1041.5077 531.2495 1063.9677 546.8795 1078.6177 568.8495C1081.0577 568.8495 1083.9877 569.8195 1085.9377 570.3095C1099.6077 530.2695 1107.4177 487.7895 1107.4177 443.8495C1107.4177 198.2395 861.3277 -0.0005 553.7077 -0.0005C246.0977 -0.0005 -0.0023 198.2395 -0.0023 443.8495C-0.0023 603.9995 102.5377 746.0895 256.8377 817.3795C234.8677 859.8595 193.8477 917.4795 171.8777 946.2895C145.9977 980.4695 161.6177 1022.9495 211.9177 1022.9495ZM990.2377 1055.1795C1005.3677 1055.1795 1017.5777 1042.9695 1017.5777 1027.8295V621.5795C1017.5777 605.9595 1005.3677 593.7495 990.2377 593.7495C974.6077 593.7495 962.3977 605.9595 962.3977 621.5795V1027.8295C962.3977 1043.4595 974.1177 1055.1795 990.2377 1055.1795ZM1104.0077 1006.3495C1120.1177 1006.3495 1131.8377 994.1395 1131.8377 978.9995V669.4295C1131.8377 654.2995 1120.1177 642.0895 1104.0077 642.0895C1088.8677 642.0895 1077.1477 654.2995 1077.1477 669.4295V978.9995C1077.1477 994.1395 1088.8677 1006.3495 1104.0077 1006.3495ZM875.4877 970.6995C891.1177 970.6995 902.8277 958.4995 902.8277 942.8695V705.5695C902.8277 689.9395 891.1177 677.7295 875.4877 677.7295C859.8677 677.7295 848.1477 689.9395 848.1477 705.5695V942.8695C848.1477 958.4995 859.8677 970.6995 875.4877 970.6995ZM1219.2377 914.0595C1234.8677 914.0595 1246.5777 902.8295 1246.5777 886.7195V761.7195C1246.5777 746.0895 1234.8677 733.8895 1219.2377 733.8895C1203.6177 733.8895 1191.4077 746.5795 1191.4077 761.7195V886.7195C1191.4077 902.3395 1203.6177 914.0595 1219.2377 914.0595ZM760.7377 888.6695C776.3677 888.6695 788.5777 876.4695 788.5777 861.3295V787.1095C788.5777 771.9695 776.3677 759.7695 760.7377 759.7695C745.6077 759.7695 733.3977 771.9695 733.3977 787.1095V861.3295C733.3977 876.4695 745.6077 888.6695 760.7377 888.6695Z"/>
</svg>