<?xml version="1.0" encoding="UTF-8" standalone="no"?>
<svg xmlns="http://www.w3.org/2000/svg"
     width="996.09375" height="996.09375"
     viewBox="0 0 996.09375 996.09375"
     fill="currentColor">
  <path d="M498.0477 996.0977C770.5077 996.0977 996.0977 770.5077 996.0977 498.0477C996.0977 226.0777 770.0177 -0.0023 497.5577 -0.0023C225.5877 -0.0023 -0.0023 226.0777 -0.0023 498.0477C-0.0023 770.5077 226.0777 996.0977 498.0477 996.0977ZM498.0477 697.2677C486.8177 697.2677 476.5577 697.2677 466.7977 696.7777C461.4277 696.2877 458.4977 697.7577 453.1277 701.1677C403.3177 731.4477 353.0277 752.4377 325.1977 752.4377C303.2277 752.4377 299.3177 734.8677 313.4777 718.7477C323.7277 707.0277 338.3777 691.4077 346.6777 674.8077C349.6077 668.9477 349.6077 663.0877 343.2577 660.1577C269.5277 617.1877 219.7277 548.8277 219.7277 470.2177C219.7277 344.2377 341.7977 242.6777 498.0477 242.6777C654.2977 242.6777 776.3677 344.2377 776.3677 470.2177C776.3677 595.7077 654.2977 697.2677 498.0477 697.2677Z"/>
</svg>