<?xml version="1.0" encoding="UTF-8" standalone="no"?>
<svg xmlns="http://www.w3.org/2000/svg"
     width="949.21875" height="945.80078125"
     viewBox="0 0 949.21875 945.80078125"
     fill="currentColor">
  <path d="M153.3206 475.0972L19.0406 738.2772C6.3506 763.1872 0.0006 789.5472 0.0006 814.4572C0.0006 885.2572 50.7806 945.7972 136.7206 945.7972H812.5006C898.4406 945.7972 949.2206 885.2572 949.2206 814.4572C949.2206 789.5472 942.8706 763.1872 930.1806 737.7972L590.8206 72.7572C568.3606 28.3172 520.5106 -0.0028 474.6106 -0.0028C429.2006 -0.0028 380.8606 28.3172 358.4006 72.7572L240.7206 303.2272L298.3406 360.3472L425.2906 107.4172C436.0306 86.4272 454.1006 72.7572 474.6106 72.7572C495.1206 72.7572 513.1806 86.4272 523.9306 107.4172L790.5306 638.6672H500.4906L83.5006 221.6772C66.8906 205.5672 45.4106 205.0772 28.3206 221.6772C10.7406 238.7672 11.7206 261.2272 28.3206 277.8272L389.6506 638.6672H158.6906L211.9106 533.6872ZM515.6206 577.1472V234.8672C515.6206 210.4472 500.9806 194.8272 476.5606 194.8272C452.6406 194.8272 437.9906 210.4472 437.9906 234.8672V499.5072ZM136.7206 869.1372C101.0706 869.1372 80.0806 841.7972 80.0806 811.5272C80.0806 801.2672 82.5206 790.5272 87.4006 779.7872L120.6006 714.3572L828.1206 713.3772L861.8206 779.7872C867.1906 790.0372 869.6306 800.7772 869.6306 811.0372C869.6306 841.7972 848.6306 869.1372 812.5006 869.1372Z"/>
</svg>