<?xml version="1.0" encoding="UTF-8" standalone="no"?>
<svg xmlns="http://www.w3.org/2000/svg"
     width="698.73046875" height="1044.921875"
     viewBox="0 0 698.73046875 1044.921875"
     fill="currentColor">
  <path d="M171.8725 498.538C171.8725 610.838 244.1425 689.938 349.6125 689.938C454.5925 689.938 526.8525 610.838 526.8525 498.538V191.408C526.8525 78.618 454.5925 -0.002 349.6125 -0.002C244.1425 -0.002 171.8725 78.618 171.8725 191.408ZM245.6025 498.538V191.408C245.6025 119.138 287.1125 72.758 349.6125 72.758C412.1125 72.758 453.1225 119.138 453.1225 191.408V498.538C453.1225 570.798 412.1125 617.188 349.6125 617.188C287.1125 617.188 245.6025 570.798 245.6025 498.538ZM0.0025 516.118C0.0025 707.518 126.4625 841.798 312.5025 857.418V971.188H131.3525C110.8425 971.188 94.2425 987.798 94.2425 1008.298C94.2425 1028.808 110.8425 1044.918 131.3525 1044.918H567.3825C587.8925 1044.918 604.4925 1028.808 604.4925 1008.298C604.4925 987.798 587.8925 971.188 567.3825 971.188H386.2325V857.418C572.7525 841.798 698.7325 707.518 698.7325 516.118V416.988C698.7325 396.488 682.6125 380.368 662.1125 380.368C641.6025 380.368 625.0025 396.488 625.0025 416.988V513.188C625.0025 679.688 516.6025 790.038 349.6125 790.038C182.1325 790.038 73.7325 679.688 73.7325 513.188V416.988C73.7325 396.488 57.6125 380.368 36.6225 380.368C16.1125 380.368 0.0025 396.488 0.0025 416.988Z"/>
</svg>