<?xml version="1.0" encoding="UTF-8" standalone="no"?>
<svg xmlns="http://www.w3.org/2000/svg"
     width="830.5061468529726" height="1040.0390625"
     viewBox="0 0 830.5061468529726 1040.0390625"
     fill="currentColor">
  <path d="M408.0842 -0.0048C311.8942 -0.0048 247.4342 69.8252 244.9942 171.3852V190.9152L569.2142 515.1352C570.1942 511.7152 570.6742 507.3252 570.6742 503.4152V176.7552C570.6742 72.2652 505.2442 -0.0048 408.0842 -0.0048ZM766.4842 900.8752C781.1242 915.5252 805.0542 915.5252 819.7042 900.8752C833.8642 885.7452 834.3542 862.3052 819.7042 847.6552L64.3342 92.7752C49.6842 78.6152 25.2642 78.1252 10.6242 92.7752C-3.5358 107.4252 -3.5358 131.8352 10.6242 145.9952ZM58.4742 511.2352C58.4742 702.6352 184.9342 836.9152 370.9742 852.5352V966.3052H189.8242C169.3142 966.3052 152.7142 982.9152 152.7142 1003.4152C152.7142 1023.9252 169.3142 1040.0352 189.8242 1040.0352H625.8542C646.3642 1040.0352 662.9642 1023.9252 662.9642 1003.4152C662.9642 982.9152 646.3642 966.3052 625.8542 966.3052H444.7042V852.5352C499.8742 848.1452 549.1942 833.4952 591.6742 809.5752L539.4242 756.8352C501.8342 774.9052 457.8842 785.1552 408.0842 785.1552C240.6042 785.1552 132.2042 674.8052 132.2042 508.3052V412.1052C132.2042 391.6052 116.0842 375.4852 95.0942 375.4852C74.5842 375.4852 58.4742 391.6052 58.4742 412.1052ZM666.3842 611.8152L723.5142 668.9452C745.4842 623.0452 757.2042 569.8252 757.2042 511.2352V412.1052C757.2042 391.6052 741.0842 375.4852 720.5842 375.4852C700.0742 375.4852 683.4742 391.6052 683.4742 412.1052V508.3052C683.4742 545.8952 677.6142 580.5652 666.3842 611.8152ZM408.0842 680.1752C424.6842 680.1752 440.7942 677.7352 454.9542 672.3652L244.9942 462.4052V503.4152C244.9942 607.4252 310.4242 680.1752 408.0842 680.1752Z"/>
</svg>