<?xml version="1.0" encoding="UTF-8" standalone="no"?>
<svg xmlns="http://www.w3.org/2000/svg"
     width="996.09375" height="996.09375"
     viewBox="0 0 996.09375 996.09375"
     fill="currentColor">
  <path d="M498.0477 996.0959C770.5077 996.0959 996.0977 770.0159 996.0977 498.0459C996.0977 225.5859 770.0177 -0.0041 497.5577 -0.0041C225.5877 -0.0041 -0.0023 225.5859 -0.0023 498.0459C-0.0023 770.0159 226.0777 996.0959 498.0477 996.0959ZM498.0477 913.0859C267.5777 913.0859 83.4977 728.5159 83.4977 498.0459C83.4977 267.5759 267.0877 83.0059 497.5577 83.0059C728.0277 83.0059 913.0877 267.5759 913.0877 498.0459C913.0877 728.5159 728.5177 913.0859 498.0477 913.0859ZM497.5577 592.2859C545.4077 592.2859 578.6177 555.1759 578.6177 505.3759V295.8959C578.6177 246.5859 545.4077 209.9559 497.5577 209.9559C449.7077 209.9559 416.5077 246.5859 416.5077 295.8959V505.3759C416.5077 555.1759 449.7077 592.2859 497.5577 592.2859ZM373.5377 791.5059H622.0677C635.7377 791.5059 647.9477 778.8059 647.9477 765.1359C647.9477 750.9759 636.2277 738.7659 622.0677 738.7659H524.4177V689.4559C621.0977 678.2259 686.5277 604.4959 686.5277 505.3759V442.3859C686.5277 428.7059 674.3177 416.9959 660.6477 416.9959C646.4877 416.9959 634.7677 428.7059 634.7677 442.3859V505.3759C634.7677 585.4459 578.1277 641.6059 497.5577 641.6059C416.9877 641.6059 360.8377 585.4459 360.8377 505.3759V442.3859C360.8377 428.7059 348.6377 416.9959 334.4777 416.9959C320.7977 416.9959 309.0777 428.7059 309.0777 442.3859V505.3759C309.0777 604.4959 374.5077 678.7059 471.6777 689.4559V738.7659H373.5377C359.3777 738.7659 347.1677 750.9759 347.1677 765.1359C347.1677 779.2959 359.3777 791.5059 373.5377 791.5059Z"/>
</svg>