<?xml version="1.0" encoding="UTF-8" standalone="no"?>
<svg xmlns="http://www.w3.org/2000/svg"
     width="996.09375" height="996.09375"
     viewBox="0 0 996.09375 996.09375"
     fill="currentColor">
  <path d="M498.0477 996.0959C770.5077 996.0959 996.0977 770.0159 996.0977 498.0459C996.0977 225.5859 770.0177 -0.0041 497.5577 -0.0041C225.5877 -0.0041 -0.0023 225.5859 -0.0023 498.0459C-0.0023 770.0159 226.0777 996.0959 498.0477 996.0959ZM337.8877 680.1759C319.3377 680.1759 306.1477 667.4759 306.1477 649.4159V363.7659C306.1477 344.7259 318.8477 332.0359 336.4277 332.0359C353.5177 332.0359 366.2077 343.2659 366.2077 365.2359V371.0959C381.3477 343.2659 404.7877 330.5659 433.1077 330.5659C465.3277 330.5659 490.2377 344.2359 504.3977 373.0459L565.9177 223.1459C570.7977 211.9159 578.1277 205.0759 589.3577 205.0759C603.0277 205.0759 614.2577 214.8459 614.2577 228.0259C614.2577 232.9059 612.7977 237.7959 611.3277 241.6959L572.7577 334.4759C579.5877 332.0359 586.4277 330.5659 594.7277 330.5659C653.3177 330.5659 690.9177 371.5859 690.9177 438.9659V647.9459C690.9177 667.4759 677.7377 680.1759 659.6677 680.1759C641.5977 680.1759 628.9077 667.4759 628.9077 647.9459V443.8459C628.9077 409.1759 610.8377 387.2059 580.0777 387.2059C548.8277 387.2059 529.7877 410.1559 529.7877 445.7959V647.9459C529.7877 667.4759 517.0877 680.1759 498.5377 680.1759C480.4677 680.1759 467.7777 667.4759 467.7777 647.9459V604.0059L406.7377 772.9459C402.3477 784.6659 394.0477 791.5059 382.8077 791.5059C369.1377 791.5059 358.8877 781.2459 358.8877 768.0659C358.8877 763.1859 359.8677 758.2959 361.8177 753.9059L467.7777 460.9359V440.4259C467.7777 409.1759 448.2377 386.7159 420.4077 386.7159C388.1877 386.7159 368.6477 411.6259 368.6477 448.2459V647.9459C368.6477 667.4759 355.9577 680.1759 337.8877 680.1759Z"/>
</svg>