<?xml version="1.0" encoding="UTF-8" standalone="no"?>
<svg xmlns="http://www.w3.org/2000/svg"
     width="954.1015625" height="963.37890625"
     viewBox="0 0 954.1015625 963.37890625"
     fill="currentColor">
  <path d="M-0.0047 389.6444C-0.0047 604.4944 174.8053 779.2944 389.6453 779.2944C474.6053 779.2944 552.2453 751.9544 616.2153 706.0544L856.4453 946.7744C867.6753 958.0044 882.3253 963.3744 897.9453 963.3744C931.1553 963.3744 954.1053 938.4744 954.1053 905.7644C954.1053 890.1344 948.2453 875.9744 937.9853 865.7244L699.2153 625.4844C749.5153 560.0544 779.2953 478.5144 779.2953 389.6444C779.2953 174.8044 604.4953 0.0044 389.6453 0.0044C174.8053 0.0044 -0.0047 174.8044 -0.0047 389.6444ZM83.4953 389.6444C83.4953 220.7044 220.7053 83.4944 389.6453 83.4944C558.5953 83.4944 695.8053 220.7044 695.8053 389.6444C695.8053 558.5944 558.5953 695.8044 389.6453 695.8044C220.7053 695.8044 83.4953 558.5944 83.4953 389.6444ZM264.1553 425.2944H515.1353C534.6653 425.2944 550.7853 409.1844 550.7853 389.6444C550.7853 370.1144 534.6653 353.5144 515.1353 353.5144H264.1553C244.6253 353.5144 228.0253 370.1144 228.0253 389.6444C228.0253 409.1844 244.6253 425.2944 264.1553 425.2944Z"/>
</svg>