<?xml version="1.0" encoding="UTF-8" standalone="no"?>
<svg xmlns="http://www.w3.org/2000/svg"
     width="1151.3671875" height="898.92578125"
     viewBox="0 0 1151.3671875 898.92578125"
     fill="currentColor">
  <path d="M153.3183 898.9261H998.0483C1100.5883 898.9261 1151.3683 848.6361 1151.3683 748.0461V275.8761C1151.3683 175.2961 1100.5883 124.9961 998.0483 124.9961H930.6683V59.5661C930.6683 22.4561 909.1783 -0.0039 871.5783 -0.0039H727.5383C690.4283 -0.0039 668.9483 22.4561 668.9483 59.5661V124.9961H482.9083V59.5661C482.9083 22.4561 461.4283 -0.0039 423.8283 -0.0039H279.7883C242.1883 -0.0039 221.1883 22.4561 221.1883 59.5661V124.9961H153.3183C51.2683 124.9961 -0.0017 175.2961 -0.0017 275.8761V748.0461C-0.0017 848.6361 51.2683 898.9261 153.3183 898.9261ZM730.9583 693.3561C720.2183 681.1561 708.0083 680.6661 697.2683 693.3561C669.4383 724.6061 624.9983 744.6261 575.6883 744.6261C526.3683 744.6261 481.9383 724.6061 454.0983 693.3561C443.3583 680.6661 431.6383 681.1561 420.4083 693.3561C391.1183 726.0761 347.1683 744.6261 299.8083 744.6261C252.4383 744.6261 208.9883 726.0761 179.1983 693.3561C168.4583 681.1561 156.2483 680.6661 145.5083 693.3561C128.4183 712.4061 105.9583 727.5361 78.6183 735.8361V280.2761C78.6183 229.4961 105.4683 203.6161 154.2983 203.6161H997.0683C1045.4083 203.6161 1072.7583 229.4961 1072.7583 280.2761V735.8361C1045.8983 727.5361 1022.9483 712.4061 1005.8583 693.3561C995.1183 680.6661 982.9083 681.1561 972.1683 693.3561C942.8683 726.0761 898.9283 744.6261 851.5583 744.6261C804.1983 744.6261 760.2583 726.0761 730.9583 693.3561ZM799.3183 632.8161C819.3383 632.8161 834.9583 617.1861 834.9583 597.1661V521.4861H910.6483C930.6683 521.4861 946.7783 505.8561 946.7783 485.8361C946.7783 465.8161 930.6683 449.7061 910.6483 449.7061H834.9583V374.0261C834.9583 354.0061 819.3383 338.3761 799.3183 338.3761C779.2983 338.3761 763.1883 354.0061 763.1883 374.0261V449.7061H687.4983C667.4783 449.7061 651.8583 465.8161 651.8583 485.8361C651.8583 505.8561 667.4783 521.4861 687.4983 521.4861H763.1883V597.1661C763.1883 617.1861 779.2983 632.8161 799.3183 632.8161ZM249.5083 521.4861H453.1283C473.1483 521.4861 488.7683 505.8561 488.7683 485.8361C488.7683 465.8161 473.1483 449.7061 453.1283 449.7061H249.5083C229.4883 449.7061 213.3783 465.8161 213.3783 485.8361C213.3783 505.8561 229.4883 521.4861 249.5083 521.4861Z"/>
</svg>