<?xml version="1.0" encoding="UTF-8" standalone="no"?>
<svg xmlns="http://www.w3.org/2000/svg"
     width="1434.08203125" height="898.92578125"
     viewBox="0 0 1434.08203125 898.92578125"
     fill="currentColor">
  <path d="M153.3183 898.9261H998.0483C1100.5883 898.9261 1151.3683 848.6361 1151.3683 748.0461V275.8761C1151.3683 175.2961 1100.5883 124.9961 998.0483 124.9961H930.6683V59.5661C930.6683 22.4561 909.1783 -0.0039 871.5783 -0.0039H727.5383C690.4283 -0.0039 668.9483 22.4561 668.9483 59.5661V124.9961H482.9083V59.5661C482.9083 22.4561 461.4283 -0.0039 423.8283 -0.0039H279.7883C242.1883 -0.0039 221.1883 22.4561 221.1883 59.5661V124.9961H153.3183C51.2683 124.9961 -0.0017 175.2961 -0.0017 275.8761V748.0461C-0.0017 848.6361 51.2683 898.9261 153.3183 898.9261ZM1370.1183 560.5461C1394.0383 560.5461 1411.1283 543.9461 1412.1083 519.0461L1421.8783 173.3361C1422.8483 142.0861 1402.3483 121.0961 1370.1183 121.0961C1337.8883 121.0961 1317.3783 142.0861 1318.3583 173.3361L1328.6183 519.0461C1329.5883 543.9461 1346.1883 560.5461 1370.1183 560.5461ZM806.1483 664.0661C785.6483 664.0661 768.5583 647.9461 768.5583 626.9561V549.3161H690.9183C669.9183 549.3161 653.8083 533.2061 653.8083 512.2061C653.8083 490.7261 669.9183 474.6061 690.9183 474.6061H768.5583V396.9761C768.5583 375.9761 785.6483 359.3761 806.1483 359.3761C827.1483 359.3761 843.2583 375.9761 843.2583 396.9761V474.6061H920.8983C941.8983 474.6061 958.4983 490.7261 958.4983 512.2061C958.4983 533.2061 941.8983 549.3161 920.8983 549.3161H843.2583V626.9561C843.2583 647.9461 827.1483 664.0661 806.1483 664.0661ZM239.2583 549.3161C218.2583 549.3161 201.6583 533.2061 201.6583 512.2061C201.6583 490.7261 218.2583 474.6061 239.2583 474.6061H448.7283C469.7283 474.6061 485.8383 490.7261 485.8383 512.2061C485.8383 533.2061 469.7283 549.3161 448.7283 549.3161ZM1370.1183 777.3461C1404.7883 777.3461 1434.0783 749.0261 1434.0783 715.8161C1434.0783 682.1261 1405.2783 654.2961 1370.1183 654.2961C1334.9583 654.2961 1306.1483 682.1261 1306.1483 715.8161C1306.1483 749.0261 1335.4483 777.3461 1370.1183 777.3461Z"/>
</svg>