<?xml version="1.0" encoding="UTF-8" standalone="no"?>
<svg xmlns="http://www.w3.org/2000/svg"
     width="1151.3671875" height="1057.008336600384"
     viewBox="0 0 1151.3671875 1057.008336600384"
     fill="currentColor">
  <path d="M1040.0383 1045.8408C1055.1783 1060.4908 1079.0983 1060.9708 1093.2583 1045.8408C1107.9083 1031.1908 1108.3983 1007.2608 1093.2583 992.6108L111.3283 11.1708C96.6783 -3.4792 72.7583 -3.9692 57.6183 11.1708C43.4583 25.3308 43.4583 49.7408 57.6183 64.3908ZM1130.3683 916.4408C1144.5283 893.0108 1151.3683 863.2208 1151.3683 826.1108V353.9408C1151.3683 253.3608 1100.5883 203.0608 998.0483 203.0608H930.6683V137.6308C930.6683 100.5208 909.1783 78.0608 871.5783 78.0608H727.5383C690.4283 78.0608 668.9483 100.5208 668.9483 137.6308V203.0608H482.9083V137.6308C482.9083 100.5208 461.4283 78.0608 423.8283 78.0608H291.0183L768.5583 555.1108V475.0408C768.5583 454.0408 785.6483 437.4408 806.1483 437.4408C827.1483 437.4408 843.2583 454.0408 843.2583 475.0408V552.6708H920.8983C941.8983 552.6708 958.4983 568.7908 958.4983 590.2708C958.4983 611.2708 941.8983 627.3808 920.8983 627.3808H840.8183ZM153.3183 976.9908H858.8883L505.8583 624.9408C501.9483 626.4008 497.0683 627.3808 492.6783 627.3808H248.0483C227.0483 627.3808 210.4483 611.2708 210.4483 590.2708C210.4483 568.7908 227.0483 552.6708 248.0483 552.6708H433.5983L91.7983 211.3608C30.2783 229.4308 -0.0017 276.7908 -0.0017 353.9408V826.1108C-0.0017 926.7008 51.2683 976.9908 153.3183 976.9908Z"/>
</svg>