<?xml version="1.0" encoding="UTF-8" standalone="no"?>
<svg xmlns="http://www.w3.org/2000/svg"
     width="923.828125" height="922.36328125"
     viewBox="0 0 923.828125 922.36328125"
     fill="currentColor">
  <path d="M175.7783 922.3666C191.8983 922.3666 201.1683 915.5266 213.8683 897.4566L499.9983 473.1466L778.3183 62.0166C785.1583 52.7366 787.5983 44.4366 787.5983 34.6666C787.5983 15.1366 770.5083 -0.0034 750.4883 -0.0034C733.3983 -0.0034 724.1183 5.3666 710.4483 25.3866L431.1483 439.9366L146.4883 859.3766C140.1383 868.6566 136.7183 876.4666 136.7183 887.2066C136.7183 908.2066 154.2983 922.3666 175.7783 922.3666ZM34.6683 276.8566H302.2483C321.2883 276.8566 336.9183 261.7166 336.9183 242.6766C336.9183 223.6366 321.2883 208.0066 302.2483 208.0066H34.6683C15.1383 208.0066 -0.0017 223.6366 -0.0017 242.6766C-0.0017 261.7166 15.1383 276.8566 34.6683 276.8566ZM586.9183 708.9866C586.9183 728.0266 602.0483 743.1666 621.0983 743.1666H721.1883V843.2666C721.1883 862.3066 736.3283 877.4366 755.3683 877.4366C774.4183 877.4366 790.0383 862.3066 790.0383 843.2666V743.1666H889.1583C908.1983 743.1666 923.8283 728.0266 923.8283 708.9866C923.8283 689.9366 908.1983 674.3166 889.1583 674.3166H790.0383V575.1966C790.0383 555.6666 773.9283 540.5266 755.3683 540.5266C735.8383 540.5266 721.1883 556.1566 721.1883 575.1966V674.3166H621.0983C602.0483 674.3166 586.9183 689.9366 586.9183 708.9866Z"/>
</svg>