<?xml version="1.0" encoding="UTF-8" standalone="no"?>
<svg xmlns="http://www.w3.org/2000/svg"
     width="1305.6640625" height="1081.54296875"
     viewBox="0 0 1305.6640625 1081.54296875"
     fill="currentColor">
  <path d="M153.3183 804.6847H869.6283C971.1883 804.6847 1022.9483 753.9047 1022.9483 653.3247V258.7847C1022.9483 158.2047 971.1883 107.4247 869.6283 107.4247H826.6583V52.7347C826.6583 19.5347 807.6183 0.0047 774.4183 0.0047H646.4883C613.2783 0.0047 594.2383 19.5347 594.2383 52.7347V107.4247H429.1983V52.7347C429.1983 19.5347 410.1583 0.0047 376.4683 0.0047H248.5383C215.3283 0.0047 196.2883 19.5347 196.2883 52.7347V107.4247H153.3183C50.7783 107.4247 -0.0017 157.7147 -0.0017 258.7847V653.3247C-0.0017 754.3947 50.7783 804.6847 153.3183 804.6847ZM154.2983 726.0747C105.4683 726.0747 78.6183 699.7047 78.6183 649.4147V262.6947C78.6183 212.4047 105.4683 186.0347 154.2983 186.0347H868.1683C916.5083 186.0347 944.3383 212.4047 944.3383 262.6947V649.4147C944.3383 699.7047 916.5083 726.0747 868.1683 726.0747ZM1241.6983 651.8547C1265.6283 651.8547 1282.7183 635.2547 1283.6883 610.3547L1293.9483 264.6447C1294.9183 233.3947 1273.9283 212.4047 1241.6983 212.4047C1209.4683 212.4047 1188.9683 233.3947 1189.9383 264.6447L1200.1983 610.3547C1201.1683 635.2547 1217.7783 651.8547 1241.6983 651.8547ZM710.4483 585.9347C728.5183 585.9347 742.6783 571.7747 742.6783 553.7147V487.3047H809.5683C827.1483 487.3047 841.3083 472.6547 841.3083 454.5947C841.3083 437.0147 827.1483 422.8547 809.5683 422.8547H742.6783V355.9547C742.6783 337.8947 728.5183 324.2147 710.4483 324.2147C692.3783 324.2147 678.7083 337.8947 678.7083 355.9547V422.8547H611.3283C593.7483 422.8547 579.5883 437.0147 579.5883 454.5947C579.5883 472.6547 593.7483 487.3047 611.3283 487.3047H678.7083V553.7147C678.7083 571.7747 692.3783 585.9347 710.4483 585.9347ZM225.0983 487.3047H400.3883C417.9683 487.3047 432.6183 472.6547 432.6183 454.5947C432.6183 437.0147 417.9683 422.8547 400.3883 422.8547H225.0983C207.0283 422.8547 192.8683 437.0147 192.8683 454.5947C192.8683 472.6547 207.0283 487.3047 225.0983 487.3047ZM1241.6983 868.6547C1276.8583 868.6547 1305.6683 840.3347 1305.6683 807.1247C1305.6683 773.4347 1277.3483 745.6047 1241.6983 745.6047C1206.5383 745.6047 1177.7383 773.4347 1177.7383 807.1247C1177.7383 840.3347 1207.0283 868.6547 1241.6983 868.6547ZM103.0283 883.3047C110.3483 927.7347 131.3483 952.1447 180.1783 952.1447H843.2583C892.0883 952.1447 913.0883 927.7347 920.4083 883.3047ZM203.6183 1018.5547C206.5383 1060.0547 229.9783 1081.5447 274.8983 1081.5447H748.0483C793.4583 1081.5447 816.8983 1060.0547 819.8283 1018.5547Z"/>
</svg>