<?xml version="1.0" encoding="UTF-8" standalone="no"?>
<svg xmlns="http://www.w3.org/2000/svg"
     width="1151.3671875" height="1057.008336600384"
     viewBox="0 0 1151.3671875 1057.008336600384"
     fill="currentColor">
  <path d="M1040.0383 1045.8408C1055.1783 1060.4908 1079.0983 1060.9708 1093.2583 1045.8408C1107.9083 1031.1908 1108.3983 1007.2608 1093.2583 992.6108L111.3283 11.1708C96.6783 -3.4792 72.7583 -3.9692 57.6183 11.1708C43.4583 25.3308 43.4583 49.7408 57.6183 64.3908ZM1130.3683 916.4408C1144.5283 893.0108 1151.3683 863.2208 1151.3683 826.1108V353.9408C1151.3683 253.3608 1100.5883 203.0608 998.0483 203.0608H930.6683V137.6308C930.6683 100.5208 909.1783 78.0608 871.5783 78.0608H727.5383C690.4283 78.0608 668.9483 100.5208 668.9483 137.6308V203.0608H482.9083V137.6308C482.9083 100.5208 461.4283 78.0608 423.8283 78.0608H291.0183L494.6283 281.6808H997.0683C1045.4083 281.6808 1072.7583 307.5608 1072.7583 358.3408V821.7208C1072.7583 833.9208 1070.7983 844.6708 1067.3783 853.4508ZM153.3183 976.9908H858.8883L780.2783 898.3808H154.2983C105.4683 898.3808 78.6183 872.5008 78.6183 821.7208V358.3408C78.6183 307.5608 105.4683 281.6808 154.2983 281.6808H162.1083L91.7983 211.3608H90.8183C30.2783 229.4308 -0.0017 276.7908 -0.0017 353.9408V826.1108C-0.0017 926.7008 51.2683 976.9908 153.3183 976.9908ZM839.3583 625.9208H910.6483C930.6683 625.9208 946.7783 610.2908 946.7783 590.2708C946.7783 569.7608 930.6683 554.1408 910.6483 554.1408H834.9583V478.4508C834.9583 458.4308 819.3383 442.3208 799.3183 442.3208C779.2983 442.3208 763.1883 458.4308 763.1883 478.4508V549.7408ZM297.3683 625.9208H506.8383L435.0583 554.1408H297.3683C277.3483 554.1408 261.2283 569.7608 261.2283 590.2708C261.2283 610.2908 277.3483 625.9208 297.3683 625.9208Z"/>
</svg>