<?xml version="1.0" encoding="UTF-8" standalone="no"?>
<svg xmlns="http://www.w3.org/2000/svg"
     width="1107.3672103163326" height="1107.3672103163324"
     viewBox="0 0 1107.3672103163326 1107.3672103163324"
     fill="currentColor">
  <path d="M54.7573 661.6849L445.8673 1052.7949C518.1273 1125.0649 589.4173 1125.5549 661.1973 1054.2649L1054.2673 660.7049C1125.5573 589.4249 1125.0673 517.6449 1052.7973 445.3749L662.1773 54.7549C589.9073 -17.5151 518.6173 -18.4851 446.8473 53.2849L53.2873 446.3549C-18.4927 518.1349 -17.5127 589.4249 54.7573 661.6849ZM356.5073 596.7449C328.1873 596.7449 308.1673 581.6049 308.1673 554.7549C308.1673 527.4049 327.2173 511.7849 356.5073 511.7849H751.0373C780.8273 511.7849 798.8973 527.4049 798.8973 554.7549C798.8973 581.6049 779.3573 596.7449 751.0373 596.7449Z"/>
</svg>