<?xml version="1.0" encoding="UTF-8" standalone="no"?>
<svg xmlns="http://www.w3.org/2000/svg"
     width="1519.53125" height="745.7918028300163"
     viewBox="0 0 1519.53125 745.7918028300163"
     fill="currentColor">
  <path d="M487.3083 719.7288H1229.0083C1304.1983 719.7288 1368.1683 727.0488 1428.2183 742.1888C1479.4883 754.8788 1519.5283 733.8888 1519.5283 681.6388V447.7588C1519.5283 414.5488 1495.6083 390.1388 1461.9183 390.1388H1335.9383C1294.9183 390.1388 1274.8983 372.5587 1279.2983 334.4688L1293.9483 191.4088C1305.6683 72.2687 1237.7883 -0.0013 1104.9783 -0.0013C951.6583 0.4887 667.9683 5.3687 505.3683 25.3887C329.5883 46.8787 216.3083 135.2587 176.2683 279.7888H262.2083C298.3383 179.6888 383.2983 119.6287 512.2083 104.4887C672.8483 86.4288 951.6583 78.6087 1104.9783 78.6087C1189.9383 78.6087 1224.1183 112.7888 1216.3083 182.6187L1177.2483 529.2988C1167.9683 611.3288 1132.8083 641.1088 1043.4583 641.1088H485.8383C362.7883 641.1088 279.7883 590.3288 250.4883 494.1388H167.4783C197.7583 642.0888 311.0383 719.7288 487.3083 719.7288ZM-0.0017 274.8988C-0.0017 370.6088 59.5683 427.7388 160.6483 427.7388H419.9183V483.8888C419.9183 517.0888 443.3583 528.8088 471.1883 509.7688L607.4183 416.9888C629.3983 401.8588 629.3983 374.9987 607.4183 359.8588L472.1683 267.0888C443.3583 247.0688 419.9183 259.7688 419.9183 292.9688V346.1888H160.6483C111.8183 346.1888 83.4983 319.8288 83.4983 274.8988V210.4488C83.4983 187.4987 64.4483 168.4588 41.5083 168.4588C19.0383 168.4588 -0.0017 187.4987 -0.0017 210.4488Z"/>
</svg>