<?xml version="1.0" encoding="UTF-8" standalone="no"?>
<svg xmlns="http://www.w3.org/2000/svg"
     width="1361.328125" height="745.7918028300163"
     viewBox="0 0 1361.328125 745.7918028300163"
     fill="currentColor">
  <path d="M-0.0017 406.2487C-0.0017 611.8188 120.1183 719.7288 329.0983 719.7288H1070.7983C1145.9983 719.7288 1209.9583 727.0488 1269.5283 742.1888C1320.7983 754.8788 1361.3283 733.8888 1361.3283 681.6388V447.7588C1361.3283 414.5488 1337.3983 390.1388 1303.7083 390.1388H1177.2483C1136.7183 390.1388 1116.6983 372.5587 1120.6083 334.4688L1135.2583 191.4088C1147.4583 72.2687 1079.5883 -0.0013 946.7783 -0.0013C792.9683 0.4887 509.2783 6.3487 347.1683 25.3887C124.9983 52.7387 -0.0017 188.4788 -0.0017 406.2487ZM78.6183 406.2487C78.6183 233.8888 176.7583 124.9987 354.0083 104.4887C514.1583 86.4288 793.4583 78.6087 946.7783 78.6087C1031.2483 78.6087 1065.4283 112.7888 1057.6183 182.6187L1019.0383 529.2988C1009.7683 611.3288 974.6083 641.1088 884.7683 641.1088H327.6383C170.8983 641.1088 78.6183 560.0588 78.6183 406.2487Z"/>
</svg>