<?xml version="1.0" encoding="UTF-8" standalone="no"?>
<svg xmlns="http://www.w3.org/2000/svg"
     width="1519.53125" height="745.7918028300163"
     viewBox="0 0 1519.53125 745.7918028300163"
     fill="currentColor">
  <path d="M1032.2283 719.7288C1208.4983 719.7288 1321.7783 642.0888 1352.0483 494.1388H1269.0383C1239.7483 590.3288 1156.7383 641.1088 1033.6883 641.1088H476.0783C386.7183 641.1088 351.5583 611.3288 342.2883 529.2988L303.2183 182.6187C295.8983 112.7888 329.5883 78.6087 414.5483 78.6087C567.8683 78.6087 847.1683 86.4288 1007.3283 104.4887C1136.2283 119.6287 1221.1883 179.6888 1257.3283 279.7888H1343.2583C1303.2183 135.2587 1189.9383 46.8787 1014.1583 25.3887C851.5583 5.3687 567.8683 0.4887 414.5483 -0.0013C281.7383 -0.0013 213.8683 72.2687 225.5883 191.4088L240.2383 334.4688C244.6283 372.5587 224.6083 390.1388 183.5983 390.1388H57.6183C23.9283 390.1388 -0.0017 414.5488 -0.0017 447.7588V681.6388C-0.0017 733.8888 40.0383 754.8788 91.3083 742.1888C151.3683 727.0488 215.3283 719.7288 290.5283 719.7288ZM1519.5283 274.8988V210.4488C1519.5283 187.4987 1500.4883 168.4588 1478.0283 168.4588C1455.0783 168.4588 1436.5283 187.4987 1436.5283 210.4488V274.8988C1436.5283 319.8288 1407.7183 346.1888 1358.8883 346.1888H1099.6083V292.9688C1099.6083 259.7688 1076.1683 247.0688 1047.3683 267.0888L912.1083 359.8588C890.1383 374.9987 890.1383 401.8588 912.1083 416.9888L1048.3383 509.7688C1076.1683 528.8088 1099.6083 517.0888 1099.6083 483.8888V427.7388H1358.8883C1459.9583 427.7388 1519.5283 370.6088 1519.5283 274.8988Z"/>
</svg>