<?xml version="1.0" encoding="UTF-8" standalone="no"?>
<svg xmlns="http://www.w3.org/2000/svg"
     width="1361.328125" height="745.7918028300163"
     viewBox="0 0 1361.328125 745.7918028300163"
     fill="currentColor">
  <path d="M1361.3283 406.2487C1361.3283 188.4788 1235.8383 52.7387 1014.1583 25.3887C851.5583 6.3487 567.8683 0.4887 414.5483 -0.0013C281.7383 -0.0013 213.8683 72.2687 225.5883 191.4088L240.2383 334.4688C244.6283 372.5587 224.6083 390.1388 183.5983 390.1388H57.6183C23.9283 390.1388 -0.0017 414.5488 -0.0017 447.7588V681.6388C-0.0017 733.8888 40.0383 754.8788 91.3083 742.1888C151.3683 727.0488 215.3283 719.7288 290.5283 719.7288H1032.2283C1239.2583 719.7288 1361.3283 609.8588 1361.3283 406.2487ZM1282.7183 406.2487C1282.7183 558.5888 1188.9683 641.1088 1033.6883 641.1088H476.0783C386.7183 641.1088 351.5583 611.3288 342.2883 529.2988L303.2183 182.6187C295.8983 112.7888 329.5883 78.6087 414.5483 78.6087C567.8683 78.6087 847.1683 86.4288 1007.3283 104.4887C1184.5683 124.9987 1282.7183 233.8888 1282.7183 406.2487Z"/>
</svg>