<?xml version="1.0" encoding="UTF-8" standalone="no"?>
<svg xmlns="http://www.w3.org/2000/svg"
     width="1361.328125" height="898.0039538761918"
     viewBox="0 0 1361.328125 898.0039538761918"
     fill="currentColor">
  <path d="M607.4183 854.4888C587.8883 828.1288 580.0783 812.0088 580.0783 781.7388C580.0783 758.7888 587.3983 738.7688 596.6783 719.7288H772.4583C765.1383 738.2787 759.7683 759.7688 759.7683 785.6487C759.7683 824.7088 771.9683 854.0088 797.3683 886.2288C819.8283 915.0388 863.7683 885.7388 840.3283 854.4888C820.3083 828.1288 812.9883 812.0088 812.9883 781.7388C812.9883 758.7888 820.3083 738.7688 829.5883 719.7288H1004.8783C997.5583 738.2787 992.1883 759.7688 992.1883 785.6487C992.1883 824.7088 1004.3983 854.0088 1029.7883 886.2288C1052.2483 915.0388 1096.6783 885.7388 1073.2383 854.4888C1053.7083 828.1288 1045.8983 812.0088 1045.8983 781.7388C1045.8983 758.2988 1053.2183 738.2787 1062.9883 718.7488C1250.9783 708.0088 1361.3283 599.6088 1361.3283 406.2487C1361.3283 188.4788 1235.8383 52.7387 1014.1583 25.3887C851.5583 6.3487 567.8683 0.4887 414.5483 -0.0013C281.7383 -0.0013 213.8683 72.2687 225.5883 191.4088L240.2383 334.4688C244.6283 372.5587 224.6083 390.1388 183.5983 390.1388H57.6183C23.9283 390.1388 -0.0017 414.5488 -0.0017 447.7588V681.6388C-0.0017 733.8888 40.0383 754.8788 91.3083 742.1888C151.3683 727.0488 215.3283 719.7288 290.5283 719.7288H539.0583C531.7383 738.2787 526.3683 759.7688 526.3683 785.6487C526.3683 824.7088 538.5783 854.0088 563.9683 886.2288C586.4283 915.0388 631.3483 885.7388 607.4183 854.4888ZM470.2183 342.7688C461.4283 355.9588 469.2383 374.5088 486.8183 374.5088H531.2483C533.1983 496.0888 594.7283 511.2288 594.7283 575.6788C594.7283 601.0788 587.8883 621.5788 579.0983 641.1088H476.0783C386.7183 641.1088 351.5583 611.3288 342.2883 529.2988L303.2183 182.6187C295.8983 112.7888 329.5883 78.6087 414.5483 78.6087C567.8683 78.6087 847.1683 86.4288 1007.3283 104.4887C1184.5683 124.9987 1282.7183 233.8888 1282.7183 406.2487C1282.7183 534.1788 1216.7983 612.3088 1104.0083 634.2787C1109.8683 617.1888 1113.7683 598.1488 1113.7683 575.6788C1113.7683 492.1888 1052.7383 470.2188 1050.2883 374.5088H1094.2383C1112.3083 374.5088 1120.6083 355.9588 1111.3283 342.7688L1042.4783 240.7188C1037.1083 233.3988 1031.2483 229.9788 1023.4383 229.9788C1015.1383 229.9788 1009.7683 232.9088 1004.3983 240.7188L936.0383 342.7688C927.2483 355.9588 935.0583 374.5088 952.6383 374.5088H996.5783C998.5383 496.0888 1060.0583 511.2288 1060.0583 575.6788C1060.0583 601.0788 1053.7083 621.5788 1044.9183 640.6288C1041.0183 641.1088 1037.1083 641.1088 1033.6883 641.1088H869.1383C875.9783 622.0688 880.8583 601.0788 880.8583 575.6788C880.8583 492.1888 820.3083 470.2188 817.8683 374.5088H860.8383C878.9083 374.5088 887.2083 355.9588 878.4183 342.7688L809.5683 240.7188C804.1983 233.3988 798.3383 229.9788 790.5283 229.9788C782.7183 229.9788 776.8583 233.3988 771.4883 240.7188L702.6383 342.7688C693.8483 355.9588 702.1483 374.5088 720.2183 374.5088H764.1583C766.1183 496.0888 827.1483 511.2288 827.1483 575.6788C827.1483 601.0788 820.7983 621.5788 812.0083 641.1088H636.2283C643.5583 622.0688 648.4383 601.0788 648.4383 575.6788C648.4383 492.1888 587.3983 470.2188 584.9583 374.5088H628.4183C645.9983 374.5088 654.2983 356.4488 645.0183 342.7688L576.6583 240.7188C571.2883 232.9088 565.9183 229.9788 557.6183 229.9788C549.8083 229.9788 543.9483 233.3988 538.5783 240.7188Z"/>
</svg>