<?xml version="1.0" encoding="UTF-8" standalone="no"?>
<svg xmlns="http://www.w3.org/2000/svg"
     width="996.09375" height="996.09375"
     viewBox="0 0 996.09375 996.09375"
     fill="currentColor">
  <path d="M498.0477 996.0977C770.5077 996.0977 996.0977 770.5077 996.0977 498.0477C996.0977 226.0777 770.0177 -0.0023 497.5577 -0.0023C225.5877 -0.0023 -0.0023 226.0777 -0.0023 498.0477C-0.0023 770.5077 226.0777 996.0977 498.0477 996.0977ZM511.7177 791.0177C346.6777 791.0177 219.7277 672.8477 219.7277 506.8377C219.7277 388.6677 289.5477 276.3677 394.0477 234.8677C400.3877 232.4177 407.2277 231.4477 410.6477 231.4477C420.8977 231.4477 426.7577 240.2377 426.7577 248.0477C426.7577 250.4877 426.7577 254.3977 423.8277 260.7377C414.5477 284.6677 406.2477 329.0977 406.2477 361.3277C406.2477 513.6677 503.4177 609.3777 656.2477 609.3777C690.9177 609.3777 726.5577 601.5577 747.5577 594.7277C752.9277 593.2577 756.3477 592.7777 759.7677 592.7777C768.0677 592.7777 776.3677 599.1177 776.3677 609.8677C776.3677 612.3077 775.8777 619.1377 772.9477 625.4877C737.3077 716.7977 633.2977 791.0177 511.7177 791.0177Z"/>
</svg>