<?xml version="1.0" encoding="UTF-8" standalone="no"?>
<svg xmlns="http://www.w3.org/2000/svg"
     width="942.87109375" height="1113.76953125"
     viewBox="0 0 942.87109375 1113.76953125"
     fill="currentColor">
  <path d="M689.9392 207.5159H579.0992V205.0759L692.8692 55.1759C703.1292 41.5059 707.0292 33.6959 707.0292 24.9059C707.0292 9.2759 695.3092 -0.0041 678.7092 -0.0041H522.4592C507.3292 -0.0041 496.5792 10.2559 496.5792 25.3859C496.5792 41.0159 507.3292 50.7859 522.4592 50.7859H626.9492V53.2259L511.7192 202.6359C501.4692 215.8159 498.0492 223.1459 498.0492 233.3959C498.0492 247.5559 508.7892 257.8159 525.3892 257.8159H689.9392C705.0792 257.8159 715.8192 248.5359 715.8192 232.4259C715.8192 217.2859 705.0792 207.5159 689.9392 207.5159ZM918.4592 394.5359H840.3292V392.5759L921.3892 286.1359C930.6592 273.9259 934.5692 266.6059 934.5692 257.3259C934.5692 243.1659 923.3392 234.3759 908.1992 234.3759H788.5792C774.8992 234.3759 764.6492 244.1359 764.6492 257.8159C764.6492 273.4359 774.8992 282.7159 788.5792 282.7159H858.8892V284.6659L778.8092 390.1359C769.5292 401.8559 766.1092 409.6659 766.1092 419.4359C766.1092 432.6159 776.3692 442.3859 791.4992 442.3859H918.4592C933.1092 442.3859 942.8692 433.5959 942.8692 418.4559C942.8692 403.8059 933.1092 394.5359 918.4592 394.5359ZM421.3892 1113.7659C598.1492 1113.7659 741.2092 1025.8759 806.6392 873.5359C813.9692 856.4459 812.9892 841.3059 804.1992 832.5159C796.8792 825.1959 783.6892 824.2159 768.5592 829.5859C728.5192 845.7059 682.1292 853.5159 628.9092 853.5159C408.1992 853.5159 265.1392 714.8459 265.1392 498.0459C265.1392 442.8759 275.3892 380.8559 291.9892 347.1659C300.7792 330.0759 300.2892 314.9459 292.9692 306.1559C284.6692 296.3859 269.5292 294.9259 249.9992 302.2459C100.0992 361.8159 -0.0008 519.0459 -0.0008 697.7559C-0.0008 935.0559 174.8092 1113.7659 421.3892 1113.7659ZM703.1292 561.0359H636.7192V559.0859L705.5692 467.7759C714.3592 455.5659 718.2592 448.7259 718.2592 440.4259C718.2592 426.7559 707.5192 418.4559 692.8692 418.4559H587.8892C574.7092 418.4559 564.9392 427.2459 564.9392 440.9159C564.9392 455.5659 574.7092 463.8659 587.8892 463.8659H646.4892V466.3059L578.6092 557.1259C569.8292 568.3559 566.4092 575.6859 566.4092 584.9559C566.4092 597.6559 576.1692 606.9359 590.3292 606.9359H703.1292C716.7992 606.9359 726.0792 597.6559 726.0792 583.9859C726.0792 570.3159 716.7992 561.0359 703.1292 561.0359Z"/>
</svg>