<?xml version="1.0" encoding="UTF-8" standalone="no"?>
<svg xmlns="http://www.w3.org/2000/svg"
     width="982.421875" height="987.79296875"
     viewBox="0 0 982.421875 987.79296875"
     fill="currentColor">
  <path d="M767.0877 663.088C498.0477 663.088 331.0577 500.978 331.0577 240.718C331.0577 166.508 343.2577 101.078 361.3277 65.918C368.6477 51.758 370.1177 44.918 370.1177 35.158C370.1177 19.038 354.9777 -0.002 334.4777 -0.002C330.5677 -0.002 321.2877 1.468 307.6177 6.838C126.9577 80.078 -0.0023 270.508 -0.0023 475.588C-0.0023 771.968 215.3277 987.798 511.7177 987.798C724.1177 987.798 896.4877 876.468 975.5877 693.848C981.4477 681.148 982.4177 670.408 982.4177 665.038C982.4177 645.018 965.3277 631.348 950.1977 631.348C942.3877 631.348 936.5277 631.838 924.8077 636.228C885.2577 652.348 825.6877 663.088 767.0877 663.088ZM76.6577 472.168C76.6577 320.308 155.7577 175.778 282.2277 96.188C266.5977 141.598 258.2977 191.898 258.2977 247.558C258.2977 552.738 444.3377 734.378 755.8577 734.378C806.1477 734.378 848.6377 728.518 889.1577 714.358C814.9377 836.918 671.8777 911.618 514.6477 911.618C261.2277 911.618 76.6577 727.048 76.6577 472.168Z"/>
</svg>