<?xml version="1.0" encoding="UTF-8" standalone="no"?>
<svg xmlns="http://www.w3.org/2000/svg"
     width="977.05078125" height="1014.16015625"
     viewBox="0 0 977.05078125 1014.16015625"
     fill="currentColor">
  <path d="M555.6683 237.3058C561.5283 237.3058 564.4483 233.8858 565.4283 228.5158C580.5683 146.9758 580.0783 145.0158 665.0383 128.9058C670.4083 127.9258 674.3183 124.5158 674.3183 118.6558C674.3183 112.7958 670.4083 109.3758 665.0383 108.3958C580.0783 91.3058 583.0083 89.3558 565.4283 8.7858C564.4483 3.4158 561.5283 -0.0042 555.6683 -0.0042C549.8083 -0.0042 546.3883 3.4158 545.4083 8.7858C528.3183 89.3558 531.2483 91.3058 446.2883 108.3958C440.4283 109.3758 437.0083 112.7958 437.0083 118.6558C437.0083 124.5158 440.4283 127.9258 446.2883 128.9058C531.2483 145.9958 530.2783 146.9758 545.4083 228.5158C546.3883 233.8858 549.8083 237.3058 555.6683 237.3058ZM789.0583 567.8758C798.3383 567.8758 804.6883 561.5258 805.6683 551.7558C821.7783 421.3858 828.1283 417.9658 960.4483 396.4858C970.6983 395.0158 977.0483 389.6458 977.0483 380.3758C977.0483 371.0958 970.6983 365.2358 962.3983 363.7658C829.0983 338.3758 821.7783 338.8658 805.6683 208.4958C804.6883 198.7258 798.3383 192.3858 789.0583 192.3858C780.2783 192.3858 773.9283 198.7258 772.4583 208.0058C755.8583 340.3358 750.9783 344.7258 615.7183 363.7658C607.4183 364.7458 601.0783 371.0958 601.0783 380.3758C601.0783 389.1558 607.4183 395.0158 615.7183 396.4858C750.9783 422.3658 755.3683 422.3658 772.4583 552.7358C773.9283 561.5258 780.2783 567.8758 789.0583 567.8758ZM421.8783 1014.1558C598.1483 1014.1558 741.6983 926.2658 806.6383 773.9258C813.9683 756.8358 812.9883 741.6958 804.1983 732.9058C797.3683 725.5858 783.6883 724.6058 769.0383 729.9758C728.5183 746.0958 682.6183 753.9058 629.3983 753.9058C408.1983 753.9058 265.6283 615.2358 265.6283 398.4358C265.6283 343.2658 275.8783 281.2458 292.4783 247.5558C300.7783 230.4658 300.7783 215.3358 292.9683 206.5458C284.6683 196.7758 269.5283 195.3158 250.4883 202.6358C100.5883 262.2058 -0.0017 419.4358 -0.0017 598.1458C-0.0017 835.4458 175.2883 1014.1558 421.8783 1014.1558Z"/>
</svg>