<?xml version="1.0" encoding="UTF-8" standalone="no"?>
<svg xmlns="http://www.w3.org/2000/svg"
     width="996.09375" height="996.09375"
     viewBox="0 0 996.09375 996.09375"
     fill="currentColor">
  <path d="M996.0977 498.0459C996.0977 225.5859 770.9977 -0.0041 498.5377 -0.0041C226.5577 -0.0041 -0.0023 225.5859 -0.0023 498.0459C-0.0023 770.0159 226.0777 996.0959 498.0477 996.0959C770.5077 996.0959 996.0977 770.0159 996.0977 498.0459ZM83.0077 498.0459C83.4977 267.5759 268.0677 83.0059 498.5377 83.0059C514.1577 83.0059 529.7877 83.9859 544.9177 85.9359C407.2277 168.4559 330.0777 313.9659 330.0777 498.0459C330.0777 681.6359 406.7377 826.6559 543.4577 910.1559C528.3177 912.1059 513.1877 913.0859 498.0477 913.0859C267.5777 913.0859 82.5177 728.5159 83.0077 498.0459Z"/>
</svg>