<?xml version="1.0" encoding="UTF-8" standalone="no"?>
<svg xmlns="http://www.w3.org/2000/svg"
     width="996.09375" height="996.09375"
     viewBox="0 0 996.09375 996.09375"
     fill="currentColor">
  <path d="M498.0477 996.0959C770.5077 996.0959 996.0977 770.0159 996.0977 498.0459C996.0977 225.5859 770.0177 -0.0041 497.5577 -0.0041C225.5877 -0.0041 -0.0023 225.5859 -0.0023 498.0459C-0.0023 770.0159 226.0777 996.0959 498.0477 996.0959ZM498.0477 913.0859C267.5777 913.0859 83.4977 728.5159 83.4977 498.0459C83.4977 267.5759 267.0877 83.0059 497.5577 83.0059C728.0277 83.0059 913.0877 267.5759 913.0877 498.0459C913.0877 728.5159 728.5177 913.0859 498.0477 913.0859ZM510.7377 782.7159C628.4177 782.7159 729.4877 710.4459 764.1577 621.5859C767.0877 615.7259 767.5777 609.3759 767.5777 606.9359C767.5777 596.6759 759.2777 589.8459 751.4677 589.8459C748.0477 589.8459 744.6277 590.3359 739.7477 592.2859C719.2377 599.1259 684.5677 606.4459 650.8777 606.4459C502.9277 606.4459 408.2077 513.6759 408.2077 365.2359C408.2077 334.4759 416.5077 291.0159 425.2977 268.0659C428.2277 261.7159 428.2277 257.8159 428.2277 255.3759C428.2277 248.0459 422.8477 239.7459 412.5977 239.7459C409.1777 239.7459 402.8277 240.2359 396.4877 243.1659C295.4077 283.2059 227.5377 392.5759 227.5377 506.8359C227.5377 667.4759 350.5877 782.7159 510.7377 782.7159Z"/>
</svg>