<?xml version="1.0" encoding="UTF-8" standalone="no"?>
<svg xmlns="http://www.w3.org/2000/svg"
     width="1717.3977163319519" height="863.0378136059683"
     viewBox="0 0 1717.3977163319519 863.0378136059683"
     fill="currentColor">
  <path d="M1695.3303 717.5255L1185.0803 47.6055C1137.2303 -15.3845 1063.9903 -16.3545 1015.1603 47.6055L714.8703 442.1355L563.0103 253.6655C512.7203 191.1655 445.3303 191.6555 394.5503 253.6655L27.8503 708.2555C-24.3897 773.1955 -2.9097 863.0355 90.3503 863.0355H1628.9303C1717.8003 863.0355 1739.2803 775.1455 1695.3303 717.5255ZM1100.1203 314.6955C1022.4803 314.6955 984.4003 379.1555 941.4303 379.1555C923.8503 379.1555 907.7403 363.0355 889.1803 343.0155L1076.1903 96.9255C1089.3803 79.8355 1111.8403 80.3255 1123.5603 96.4355L1311.5503 343.0155C1292.9903 363.0355 1276.3903 379.1555 1259.3003 379.1555C1216.3303 379.1555 1178.2403 314.6955 1100.1203 314.6955ZM478.5403 445.5555C408.7103 445.5555 374.0503 503.6655 335.9603 503.6655C326.6803 503.6655 316.9203 497.3155 307.1503 487.5455L455.5903 303.4655C469.2603 286.3755 488.7903 286.3755 501.9703 302.9755L650.9003 488.0355C641.1403 497.3155 631.8603 503.6655 622.0903 503.6655C583.5203 503.6655 549.3403 445.5555 478.5403 445.5555ZM587.9103 784.4255C569.8503 784.4255 564.9603 769.2855 574.2403 756.5955L852.5603 390.8655C876.0003 414.7955 903.8303 438.2355 941.4303 438.2355C1022.4803 438.2355 1055.2003 373.7755 1100.1203 373.7755C1145.5303 373.7755 1178.2403 438.2355 1259.3003 438.2355C1296.9003 438.2355 1324.7303 414.7955 1347.6803 390.8655L1626.0003 756.1055C1635.7603 768.7955 1630.3903 784.4255 1612.3303 784.4255ZM335.9603 557.3755C409.2003 557.3755 438.0103 499.2655 478.5403 499.2655C519.0603 499.2655 548.8503 557.3755 622.0903 557.3755C624.0503 557.3755 626.0003 557.3755 627.4603 556.8855L505.3903 718.0155C489.7703 738.5255 482.4403 761.9655 483.4203 784.4255H102.0703C85.4703 784.4255 80.1003 768.7955 89.8703 756.5955L272.9703 529.5455C290.0603 545.1655 310.5703 557.3755 335.9603 557.3755Z"/>
</svg>