<?xml version="1.0" encoding="UTF-8" standalone="no"?>
<svg xmlns="http://www.w3.org/2000/svg"
     width="912.59765625" height="1143.5546875"
     viewBox="0 0 912.59765625 1143.5546875"
     fill="currentColor">
  <path d="M1.4683 358.3964C1.4683 386.2264 20.9983 412.5964 59.5683 412.5964H853.5183C892.5783 412.5964 911.6183 386.2264 911.6183 358.3964C911.6183 339.8464 903.3183 320.3164 884.2783 306.1564L517.0883 23.4364C496.5783 7.8164 477.0483 -0.0036 456.5383 -0.0036C436.0383 -0.0036 416.5083 7.8164 395.9983 23.4364L28.8083 306.1564C10.2583 320.3164 1.4683 339.8464 1.4683 358.3964ZM0.4883 571.7764C0.4883 597.1664 18.0683 614.2564 44.4383 614.2564H868.6483C895.0183 614.2564 912.5983 597.1664 912.5983 571.7764C912.5983 546.3864 895.0183 528.8064 868.6483 528.8064H44.4383C18.0683 528.8064 0.4883 546.3864 0.4883 571.7764ZM-0.0017 785.1564C-0.0017 803.7064 8.2983 823.2464 27.3483 837.4064L394.5283 1120.1164C415.0383 1135.7464 434.5683 1143.5564 455.0783 1143.5564C475.5883 1143.5564 495.1183 1135.7464 515.6283 1120.1164L882.8083 837.4064C901.8583 823.2464 910.1583 803.7064 910.1583 785.1564C910.1583 756.8364 891.1183 730.4664 852.0483 730.4664H58.1083C19.5283 730.4664 -0.0017 756.8364 -0.0017 785.1564Z"/>
</svg>