<?xml version="1.0" encoding="UTF-8" standalone="no"?>
<svg xmlns="http://www.w3.org/2000/svg"
     width="996.09375" height="996.09375"
     viewBox="0 0 996.09375 996.09375"
     fill="currentColor">
  <path d="M498.0477 996.0959C770.5077 996.0959 996.0977 770.0159 996.0977 498.0459C996.0977 225.5859 770.0177 -0.0041 497.5577 -0.0041C225.5877 -0.0041 -0.0023 225.5859 -0.0023 498.0459C-0.0023 770.0159 226.0777 996.0959 498.0477 996.0959ZM498.0477 913.0859C267.5777 913.0859 83.4977 728.5159 83.4977 498.0459C83.4977 267.5759 267.0877 83.0059 497.5577 83.0059C728.0277 83.0059 913.0877 267.5759 913.0877 498.0459C913.0877 728.5159 728.5177 913.0859 498.0477 913.0859ZM445.7977 422.8559C468.2577 429.1959 483.8877 447.2659 499.0277 447.2659C517.5777 447.2659 534.1777 418.9459 568.8477 418.9459C603.0277 418.9459 620.1177 447.2659 638.6677 447.2659C653.3177 447.2659 668.9477 429.6859 691.8977 422.8559L604.9777 308.1059C584.4777 281.7359 554.1977 280.7659 533.6877 308.1059ZM202.1477 654.2959H278.8077C266.1177 630.3759 267.0877 597.1659 286.6177 571.7759L413.0877 407.2259L402.8277 395.0159C381.8377 369.6259 354.0077 369.6259 333.0077 395.0159L176.2677 589.8459C154.7877 617.1859 164.0577 654.2959 202.1477 654.2959ZM343.7477 654.2959H793.9477C831.0577 654.2959 840.3277 618.1659 821.2877 593.7459L712.8877 451.1759C695.7977 442.3859 671.3877 475.5859 638.6677 475.5859C602.0477 475.5859 588.3777 447.2659 568.8477 447.2659C549.3177 447.2659 535.1577 475.5859 499.0277 475.5859C465.8177 475.5859 441.8977 442.3859 424.8077 451.1759L315.9177 593.7459C296.8777 617.6759 306.6377 654.2959 343.7477 654.2959Z"/>
</svg>