<?xml version="1.0" encoding="UTF-8" standalone="no"?>
<svg xmlns="http://www.w3.org/2000/svg"
     width="1252.5324832586716" height="623.53515625"
     viewBox="0 0 1252.5324832586716 623.53515625"
     fill="currentColor">
  <path d="M34.2232 290.5242C209.0332 500.9742 380.9032 623.5342 626.0232 623.5342C871.6232 623.5342 1043.5032 500.9742 1218.3032 290.5242C1276.4132 220.2142 1260.7832 137.6942 1169.4832 126.9542C1028.3632 110.8442 981.9832 0.0042 833.0532 0.0042C715.8632 0.0042 646.5332 87.4042 626.0232 87.4042C606.0032 87.4042 536.6632 0.0042 419.4832 0.0042C270.5532 0.0042 224.1632 110.8442 83.0532 126.9542C-8.2568 137.6942 -23.8768 220.2142 34.2232 290.5242ZM594.2832 274.4142C567.4332 258.7842 526.9032 231.9342 451.2132 231.9342C427.2932 231.9342 402.8732 235.8442 378.4632 238.2842C283.7332 248.5342 175.8232 249.0242 75.2432 198.2442C78.6632 196.2842 83.0532 194.8242 87.9332 193.8442L125.0432 186.5242C272.9932 158.6942 329.6332 75.1942 424.3632 75.1942C474.1632 75.1942 509.8132 99.6142 543.5032 124.0242C575.7332 147.4642 598.1932 162.5942 626.0232 162.5942C654.3432 162.5942 676.3132 147.4642 709.0332 124.0242C742.7232 99.6142 778.3632 75.1942 828.1732 75.1942C922.8932 75.1942 979.5332 158.6942 1127.4832 186.5242L1164.5932 193.8442C1169.4832 194.8242 1173.8732 196.2842 1177.2932 198.2442C1078.6632 249.5142 970.2632 248.5342 875.5332 238.7742C850.1432 235.3542 825.2432 231.9342 801.3132 231.9342C725.6332 231.9342 685.1032 258.7842 657.7632 274.4142C639.6932 285.1542 633.8332 287.1142 626.0232 287.1142C618.6932 287.1142 612.3532 285.1542 594.2832 274.4142ZM626.0232 357.4242C692.9132 357.4242 705.1232 302.2442 806.1932 302.2442C904.8332 302.7342 1025.9232 345.2142 1177.2932 241.2142C1040.5732 384.2742 871.1432 548.3442 626.0232 548.3442C381.3932 548.3442 211.9632 384.7642 75.2432 240.7242C226.6032 344.7242 347.7032 302.7342 446.3332 302.2442C547.4132 302.2442 559.6132 357.4242 626.0232 357.4242Z"/>
</svg>