<?xml version="1.0" encoding="UTF-8" standalone="no"?>
<svg xmlns="http://www.w3.org/2000/svg"
     width="1023.7167062156342" height="896.3539634952589"
     viewBox="0 0 1023.7167062156342 896.3539634952589"
     fill="currentColor">
  <path d="M5.5102 818.5412C-8.1598 849.7912 4.0502 869.8112 37.2502 873.7212L239.4002 895.6912C284.3202 901.0612 310.6902 873.2312 286.7602 832.2112L252.5802 772.6412L511.8602 642.2712L771.6202 772.6412L736.9602 832.2112C713.0302 873.2312 739.8902 901.0612 784.3202 895.6912L986.4702 873.7212C1019.6702 869.8112 1031.8802 849.7912 1018.2102 818.5412L936.1702 632.5112C918.1102 591.4912 881.0002 583.1912 858.0502 623.2312L810.6902 705.2612L551.4102 574.8912V257.5112H631.9802C679.8302 257.5112 690.0802 220.8912 663.2302 184.2612L543.1102 20.6912C522.6002 -6.6488 500.1402 -7.1388 479.6302 20.6912L360.0002 184.2612C333.1502 220.4012 344.3802 257.5112 391.2502 257.5112H472.8002V574.8912L213.5202 705.2612L166.1602 623.2312C143.2102 583.1912 105.6102 591.4912 88.0302 632.5112Z"/>
</svg>