<?xml version="1.0" encoding="UTF-8" standalone="no"?>
<svg xmlns="http://www.w3.org/2000/svg"
     width="996.09375" height="996.09375"
     viewBox="0 0 996.09375 996.09375"
     fill="currentColor">
  <path d="M498.0477 996.0959C770.5077 996.0959 996.0977 770.0159 996.0977 498.0459C996.0977 225.5859 770.0177 -0.0041 497.5577 -0.0041C225.5877 -0.0041 -0.0023 225.5859 -0.0023 498.0459C-0.0023 770.0159 226.0777 996.0959 498.0477 996.0959ZM498.0477 913.0859C267.5777 913.0859 83.4977 728.5159 83.4977 498.0459C83.4977 267.5759 267.0877 83.0059 497.5577 83.0059C728.0277 83.0059 913.0877 267.5759 913.0877 498.0459C913.0877 728.5159 728.5177 913.0859 498.0477 913.0859ZM183.1077 646.9759C200.6877 646.9759 208.9877 636.2259 208.9877 618.6559V439.4559H211.4277L248.0477 613.2859C251.4677 630.8559 260.2577 641.6059 276.8577 641.6059C293.4577 641.6059 303.2277 629.3959 306.1477 613.2859L342.2877 439.4559H343.7477V618.6559C343.7477 635.2559 351.5577 646.9759 370.6077 646.9759C389.6477 646.9759 397.4577 635.2559 397.4577 618.6559V390.6259C397.4577 369.6259 385.2577 349.1259 354.0077 349.1259C332.0277 349.1259 316.8977 357.9059 312.0077 382.8159L276.8577 557.6159H276.3677L240.7277 382.8159C236.3277 357.9059 221.6777 349.1259 199.2177 349.1259C170.4077 349.1259 156.2477 365.2359 156.2477 390.6259V618.6559C156.2477 635.2559 164.0577 646.9759 183.1077 646.9759ZM686.0377 646.9759C707.0277 646.9759 716.3077 632.8159 716.3077 614.7459V520.9959H778.3177V614.7459C778.3177 634.7659 788.5777 646.9759 808.5977 646.9759C827.6377 646.9759 838.8677 636.7159 838.8677 614.7459V381.3459C838.8677 360.3559 829.0977 349.1259 808.5977 349.1259C789.0577 349.1259 778.3177 360.8359 778.3177 381.3459V471.1959H716.3077V381.3459C716.3077 361.3259 706.0577 349.1259 686.0377 349.1259C665.0377 349.1259 655.2777 360.8359 655.2777 381.3459V614.7459C655.2777 635.2559 665.0377 646.9759 686.0377 646.9759ZM475.0977 645.9959C495.1177 645.9959 505.3677 634.7659 505.3677 614.7459V551.2659H532.7177C588.3777 551.2659 616.2077 504.8859 616.2077 452.6359C616.2077 397.4559 588.3777 353.5159 537.1077 353.5159H475.0977C455.0777 353.5159 444.3377 365.2359 444.3377 385.7459V614.7459C444.3377 636.2259 457.0277 645.9959 475.0977 645.9959ZM505.3677 504.3959V400.8759H520.5077C546.8777 400.8759 556.1477 421.3859 556.1477 452.6359C556.1477 480.9559 548.8277 504.3959 520.0177 504.3959Z"/>
</svg>