<?xml version="1.0" encoding="UTF-8" standalone="no"?>
<svg xmlns="http://www.w3.org/2000/svg"
     width="969.3823792087129" height="992.3529396220983"
     viewBox="0 0 969.3823792087129 992.3529396220983"
     fill="currentColor">
  <path d="M633.6878 66.0829L902.7378 335.1229C988.6678 250.1629 992.0878 141.2829 909.5678 59.2429C827.5378 -21.8071 719.6278 -19.8571 633.6878 66.0829ZM497.4578 992.3529C522.3678 992.3529 541.8978 972.8229 541.8978 948.4029V586.1029L687.8878 451.3329C743.5578 458.6629 802.1478 435.7129 853.4178 384.4429L584.8678 115.4029C533.1078 166.6729 511.6178 224.2829 519.4378 280.4429L65.3278 769.2129C46.7778 789.2229 43.8478 817.0629 66.7978 840.0129L4.2978 920.5729C-1.5622 928.3929 -2.0522 939.6229 6.7378 948.4029L20.8978 963.0529C29.1978 971.3529 40.4278 971.8429 49.2178 965.0129L129.7878 902.0229C151.7578 924.9729 180.0778 922.0429 199.6078 903.4829L453.0278 669.1129V948.4029C453.0278 972.8229 472.5578 992.3529 497.4578 992.3529ZM115.6278 809.2429L546.2878 352.2129C554.5878 366.3729 564.3578 379.5629 576.5578 392.7429C588.2778 404.9529 601.9578 416.1829 614.6478 423.9929L160.5478 854.1729Z"/>
</svg>