<?xml version="1.0" encoding="UTF-8" standalone="no"?>
<svg xmlns="http://www.w3.org/2000/svg"
     width="1220.703125" height="975.5859375"
     viewBox="0 0 1220.703125 975.5859375"
     fill="currentColor">
  <path d="M125.4883 810.0622H1095.2183C1177.7383 810.0622 1220.6983 767.5822 1220.6983 684.5722V125.0022C1220.6983 42.4822 1177.7383 0.0022 1095.2183 0.0022H125.4883C42.9683 0.0022 -0.0017 42.4822 -0.0017 125.0022V684.5722C-0.0017 767.5822 42.9683 810.0622 125.4883 810.0622ZM126.9483 731.4422C94.7283 731.4422 78.6183 715.3322 78.6183 683.5922V126.4622C78.6183 94.2422 94.7283 78.6122 126.9483 78.6122H1093.7483C1125.9783 78.6122 1142.0883 94.2422 1142.0883 126.4622V683.5922C1142.0883 715.3322 1125.9783 731.4422 1093.7483 731.4422ZM757.8083 315.9222C781.2483 310.0622 788.0883 305.1722 788.0883 276.8522V180.6622C788.0883 162.1122 781.7383 153.8122 755.8583 160.1522L612.7883 195.8022C588.8683 201.6622 583.4983 206.5422 583.4983 235.3522V455.5622C583.4983 477.0522 581.5383 481.4422 557.1283 487.7922L512.2083 500.0022C467.7783 511.2322 430.6683 537.6022 430.6683 585.4522C430.6683 626.9522 461.9183 657.2222 510.7383 657.2222C580.5683 657.2222 627.9283 607.4222 627.9283 536.6222V368.6522C627.9283 350.5822 632.3283 345.7022 643.0683 343.7522ZM364.7483 975.5822H855.9583C877.4383 975.5822 895.5083 958.0122 895.5083 936.0322C895.5083 914.0622 877.4383 896.4822 855.9583 896.4822H364.7483C343.2583 896.4822 325.1983 914.0622 325.1983 936.0322C325.1983 958.0122 343.2583 975.5822 364.7483 975.5822Z"/>
</svg>