<?xml version="1.0" encoding="UTF-8" standalone="no"?>
<svg xmlns="http://www.w3.org/2000/svg"
     width="1387.20703125" height="470.703125"
     viewBox="0 0 1387.20703125 470.703125"
     fill="currentColor">
  <path d="M-0.0023 192.38C-0.0023 351.07 163.5777 470.7 364.2577 470.7C508.2977 470.7 624.9977 420.41 693.3577 327.15C762.2077 420.41 878.4177 470.7 1022.4577 470.7C1223.6377 470.7 1387.2077 351.07 1387.2077 192.38C1387.2077 137.7 1371.0977 103.52 1338.3777 103.52C1327.1477 103.52 1314.9377 110.35 1307.1277 122.07C1281.7377 158.69 1239.2577 178.71 1186.5277 178.71C1039.5477 178.71 997.5577 0 821.2877 0C766.5977 0 722.6577 19.04 693.3577 53.22C664.5477 19.04 620.1177 0 565.4277 0C389.6477 0 347.6577 178.71 200.6877 178.71C151.3677 178.71 108.8877 159.18 79.0977 121.58C70.3077 110.35 59.5677 103.52 48.3377 103.52C15.6277 103.52 -0.0023 137.7 -0.0023 192.38Z"/>
</svg>