<?xml version="1.0" encoding="UTF-8" standalone="no"?>
<svg xmlns="http://www.w3.org/2000/svg"
     width="996.09375" height="996.09375"
     viewBox="0 0 996.09375 996.09375"
     fill="currentColor">
  <path d="M498.0477 996.0959C770.5077 996.0959 996.0977 770.0159 996.0977 498.0459C996.0977 225.5859 770.0177 -0.0041 497.5577 -0.0041C225.5877 -0.0041 -0.0023 225.5859 -0.0023 498.0459C-0.0023 770.0159 226.0777 996.0959 498.0477 996.0959ZM498.0477 913.0859C267.5777 913.0859 83.4977 728.5159 83.4977 498.0459C83.4977 267.5759 267.0877 83.0059 497.5577 83.0059C728.0277 83.0059 913.0877 267.5759 913.0877 498.0459C913.0877 728.5159 728.5177 913.0859 498.0477 913.0859ZM350.0977 721.6759C373.5377 721.6759 387.2077 707.5159 387.2077 682.6159V398.4359H390.1377L603.0277 698.2459C616.2077 716.3059 625.9777 721.6759 642.0877 721.6759C666.0177 721.6759 680.6677 707.0359 680.6677 681.1559V304.1959C680.6677 279.7859 666.9877 265.1359 643.5577 265.1359C620.6077 265.1359 607.4177 280.7659 607.4177 304.1959V593.7459H604.0077L391.5977 288.5759C378.9077 270.9959 368.1677 265.1359 352.0477 265.1359C328.1277 265.1359 314.4577 281.2459 314.4577 306.1559V682.6159C314.4577 706.5459 327.6377 721.6759 350.0977 721.6759Z"/>
</svg>