<?xml version="1.0" encoding="UTF-8" standalone="no"?>
<svg xmlns="http://www.w3.org/2000/svg"
     width="996.09375" height="996.09375"
     viewBox="0 0 996.09375 996.09375"
     fill="currentColor">
  <path d="M498.0477 996.0959C770.5077 996.0959 996.0977 770.0159 996.0977 498.0459C996.0977 225.5859 770.0177 -0.0041 497.5577 -0.0041C225.5877 -0.0041 -0.0023 225.5859 -0.0023 498.0459C-0.0023 770.0159 226.0777 996.0959 498.0477 996.0959ZM346.1877 729.0059C322.7577 729.0059 309.0777 713.3759 309.0777 688.4759V300.2959C309.0777 274.4159 323.2377 257.8159 348.1477 257.8159C364.7477 257.8159 375.9777 264.1559 388.6677 282.2259L607.4177 596.1959H611.3277V298.3359C611.3277 273.9259 624.9977 257.8159 648.4377 257.8159C672.8477 257.8159 687.0077 272.9459 687.0077 298.3359V687.0159C687.0077 713.8659 671.8777 729.0059 646.9777 729.0059C630.3677 729.0059 620.1177 723.1459 606.9377 704.5859L387.6977 395.9959H384.2777V688.4759C384.2777 714.3559 370.1177 729.0059 346.1877 729.0059Z"/>
</svg>