<?xml version="1.0" encoding="UTF-8" standalone="no"?>
<svg xmlns="http://www.w3.org/2000/svg"
     width="898.92578125" height="898.92578125"
     viewBox="0 0 898.92578125 898.92578125"
     fill="currentColor">
  <path d="M153.3183 898.9295H745.6083C848.1483 898.9295 898.9283 848.1495 898.9283 747.5595V151.3695C898.9283 50.7795 848.1483 -0.0005 745.6083 -0.0005H153.3183C51.2683 -0.0005 -0.0017 50.2895 -0.0017 151.3695V747.5595C-0.0017 848.6295 51.2683 898.9295 153.3183 898.9295ZM154.2983 820.3095C105.4683 820.3095 78.6183 794.4295 78.6183 743.6495V155.2695C78.6183 104.4895 105.4683 78.6095 154.2983 78.6095H744.6283C792.9683 78.6095 820.3083 104.4895 820.3083 155.2695V743.6495C820.3083 794.4295 792.9683 820.3095 744.6283 820.3095ZM302.2483 672.3595C325.6883 672.3595 339.3583 658.1995 339.3583 633.2995V349.1195H342.2883L555.1783 648.9295C568.3583 666.9895 578.1283 672.3595 594.2383 672.3595C618.1683 672.3595 632.8083 657.7195 632.8083 631.8395V254.8795C632.8083 230.4695 619.1383 215.8195 595.6983 215.8195C573.2383 215.8195 559.5683 231.4495 559.5683 254.8795V544.4295H556.6383L343.7483 239.2595C331.0583 221.6795 320.3083 215.8195 304.1983 215.8195C280.2783 215.8195 266.5983 231.9295 266.5983 256.8395V633.2995C266.5983 657.2295 279.7883 672.3595 302.2483 672.3595Z"/>
</svg>