<?xml version="1.0" encoding="UTF-8" standalone="no"?>
<svg xmlns="http://www.w3.org/2000/svg"
     width="996.09375" height="996.09375"
     viewBox="0 0 996.09375 996.09375"
     fill="currentColor">
  <path d="M498.0477 996.0959C770.5077 996.0959 996.0977 770.0159 996.0977 498.0459C996.0977 225.5859 770.0177 -0.0041 497.5577 -0.0041C225.5877 -0.0041 -0.0023 225.5859 -0.0023 498.0459C-0.0023 770.0159 226.0777 996.0959 498.0477 996.0959ZM286.6177 505.8559C286.6177 491.2059 297.3677 480.4659 311.0377 480.4659H338.8677V301.7559C338.8677 277.8359 354.9777 261.2259 379.8877 261.2259C400.8777 261.2259 415.0377 272.4559 423.8277 291.0159L519.5277 480.9559H591.3077V294.9259C591.3077 274.9059 604.4877 261.7159 623.5377 261.7159C642.5777 261.7159 656.2477 274.9059 656.2477 294.9259V480.9559H685.0577C698.7277 480.9559 709.4777 491.2059 709.4777 505.8559C709.4777 519.5359 698.7277 531.2459 685.0577 531.2459H656.2477V708.0059C656.2477 732.4259 640.1377 749.0259 615.2377 749.0259C594.2377 749.0259 580.0777 737.7959 571.2877 719.2359L476.0777 530.7659H403.8077V715.3359C403.8077 735.3559 390.6277 748.5359 371.5777 748.5359C352.5377 748.5359 338.8677 735.3559 338.8677 715.3359V530.7659H311.0377C296.8777 530.7659 286.6177 519.5359 286.6177 505.8559ZM403.8077 480.4659H451.1677L403.8077 378.9059ZM544.4377 531.2459L591.3077 632.3259V531.2459Z"/>
</svg>