<?xml version="1.0" encoding="UTF-8" standalone="no"?>
<svg xmlns="http://www.w3.org/2000/svg"
     width="733.88671875" height="895.5078125"
     viewBox="0 0 733.88671875 895.5078125"
     fill="currentColor">
  <path d="M126.9483 895.5119C154.2983 895.5119 172.8483 876.4619 172.8483 847.6519V481.4419H335.4483L521.4883 848.6319C535.6483 876.9519 557.1283 895.5119 591.3083 895.5119C628.9083 895.5119 653.3183 871.0919 653.3183 833.9819V481.4419H702.6383C720.2183 481.4419 733.8883 467.2819 733.8883 449.7119C733.8883 431.1519 720.2183 417.9719 702.6383 417.9719H653.3183V47.8519C653.3183 19.0419 634.7683 0.0019 606.9383 0.0019C579.5883 0.0019 561.0383 19.0419 561.0383 47.8519V417.9719H399.8983L212.3983 46.8719C198.2383 19.0419 176.2683 0.0019 142.5783 0.0019C104.4883 0.0019 80.5683 24.4119 80.5683 61.5219V417.9719H31.2483C13.6683 417.9719 -0.0017 431.1519 -0.0017 449.7119C-0.0017 467.2819 13.6683 481.4419 31.2483 481.4419H80.5683V847.6519C80.5683 876.4619 99.1183 895.5119 126.9483 895.5119ZM172.8483 170.4119H177.2483L303.2183 417.9719H172.8483ZM556.1483 727.0519L432.1283 481.4419H561.0383V727.0519Z"/>
</svg>