<?xml version="1.0" encoding="UTF-8" standalone="no"?>
<svg xmlns="http://www.w3.org/2000/svg"
     width="996.09375" height="996.09375"
     viewBox="0 0 996.09375 996.09375"
     fill="currentColor">
  <path d="M498.0477 996.0959C770.5077 996.0959 996.0977 770.0159 996.0977 498.0459C996.0977 225.5859 770.0177 -0.0041 497.5577 -0.0041C225.5877 -0.0041 -0.0023 225.5859 -0.0023 498.0459C-0.0023 770.0159 226.0777 996.0959 498.0477 996.0959ZM361.8177 403.8059C359.8677 384.7659 351.5577 367.6759 338.3777 355.4659C381.3477 246.5859 449.7077 147.9459 539.0577 68.3559C545.8977 68.8459 552.7377 69.8259 559.5677 70.7959C495.6077 178.7059 457.0277 299.8059 447.7577 425.2959C418.4577 420.4059 389.6477 413.0859 361.8177 403.8059ZM136.7177 263.6759C206.5477 157.2259 322.2677 82.0359 454.0977 68.3559C379.8877 145.9959 322.2677 236.3259 283.2077 334.4759C269.5277 334.4759 254.8877 339.3559 242.1877 347.6559C204.0977 324.2159 168.4577 295.8959 136.7177 263.6759ZM589.3577 269.5359C589.8477 313.9659 595.2177 357.9059 605.4677 400.3859C596.6777 409.1759 590.3277 420.4059 586.9177 432.6159C574.7077 433.5959 562.4977 434.0859 549.8077 434.0859C535.1577 434.0859 520.5077 433.5959 506.3477 432.6159C514.6477 312.9859 551.2677 198.7259 612.3077 97.6559C596.1877 152.8359 588.8677 210.4459 589.3577 269.5359ZM648.4377 269.0459C647.9477 212.8859 655.7577 156.7359 672.3677 104.0059C768.0677 146.9759 846.1877 224.6059 890.1377 319.8259C838.8677 358.8859 781.2477 388.1859 719.7277 407.7159C706.5477 389.6459 685.0577 377.9259 660.6477 377.4459C653.3177 342.2859 648.9277 306.1559 648.4377 269.0459ZM66.4077 498.0459C66.4077 434.0859 80.5677 373.5359 106.4477 318.3559C138.1877 348.6359 172.8477 375.4859 210.4477 397.9459C209.4777 401.8559 209.4777 406.2459 209.4777 410.6459C209.4777 436.5259 222.1677 459.4759 242.1877 473.6359C231.9377 524.4159 226.5577 577.1459 226.5577 630.3759C170.4077 603.0259 116.6977 568.3559 67.3877 526.8559C66.8977 517.0859 66.4077 507.8159 66.4077 498.0459ZM929.6877 498.0459C929.6877 540.0359 923.3377 581.0559 911.6177 619.6259C883.2977 634.7659 854.0077 647.9459 823.7277 659.1759C776.8577 616.6959 737.7977 565.9159 708.4977 509.7659C721.6777 498.5359 730.4677 482.9059 733.8877 465.3359C797.3677 445.7959 857.4177 416.5059 912.1077 377.4459C923.3377 416.0159 929.6877 456.5459 929.6877 498.0459ZM445.3077 487.7959C445.3077 551.2659 452.6377 613.7659 466.7977 674.8059C458.4977 681.1559 451.6577 689.4559 446.7777 698.7259C392.0877 690.4259 337.8877 676.2659 285.6477 656.2459C284.1777 598.1459 288.5777 541.0159 299.8077 485.8359C317.3877 482.4259 332.5177 473.1459 343.7477 459.9559C376.4677 471.1959 410.6477 479.4959 445.3077 484.8659C445.3077 485.8359 445.3077 486.8159 445.3077 487.7959ZM549.8077 493.1659C565.4277 493.1659 580.5677 492.6759 595.2177 491.2059C606.9377 510.7459 627.4377 524.4159 651.3677 527.3459C679.1977 583.4959 716.3077 635.2559 760.7377 679.6859C703.1277 695.7959 644.5277 704.5859 585.4477 706.5459C575.1977 680.6659 551.7577 662.1059 523.4377 658.6959C511.2277 604.4959 504.3977 548.3359 504.3977 491.6959C519.5277 492.6759 534.6677 493.1659 549.8077 493.1659ZM82.5177 613.7659C128.4177 646.4859 177.2477 674.3159 228.5177 696.2859C230.4677 748.5359 238.2777 800.2959 251.9577 851.0759C170.8977 793.9459 109.8677 710.4459 82.5177 613.7659ZM498.0477 929.6859C437.9877 929.6859 379.8877 916.9959 327.6377 893.5559C307.1277 837.8859 293.9477 779.7859 289.0577 720.2159C338.8677 737.3059 389.6477 749.9959 441.8977 757.3259C451.1677 787.1059 478.5177 808.5959 511.2277 810.0559C527.8277 849.1259 547.8477 887.2059 570.7977 923.3359C546.8777 927.2459 522.9477 929.6859 498.0477 929.6859ZM566.8977 789.5459C573.7277 782.7159 579.5877 774.4159 583.4977 765.6259C660.6477 763.1859 737.7977 750.4859 812.0077 726.0759C822.7577 734.8659 834.4777 743.1659 845.7077 751.4659C792.4777 823.7259 717.7777 879.3959 630.8577 908.2059C605.9577 870.6059 584.4777 830.5659 566.8977 789.5459Z"/>
</svg>