<?xml version="1.0" encoding="UTF-8" standalone="no"?>
<svg xmlns="http://www.w3.org/2000/svg"
     width="996.09375" height="996.09375"
     viewBox="0 0 996.09375 996.09375"
     fill="currentColor">
  <path d="M498.0477 996.0959C770.5077 996.0959 996.0977 770.0159 996.0977 498.0459C996.0977 225.5859 770.0177 -0.0041 497.5577 -0.0041C225.5877 -0.0041 -0.0023 225.5859 -0.0023 498.0459C-0.0023 770.0159 226.0777 996.0959 498.0477 996.0959ZM498.0477 913.0859C267.5777 913.0859 83.4977 728.5159 83.4977 498.0459C83.4977 267.5759 267.0877 83.0059 497.5577 83.0059C728.0277 83.0059 913.0877 267.5759 913.0877 498.0459C913.0877 728.5159 728.5177 913.0859 498.0477 913.0859ZM317.8677 744.6259H682.1277C730.4677 744.6259 754.3977 721.1959 754.3977 673.8259V322.7559C754.3977 274.9059 730.4677 251.9559 682.1277 251.9559H414.0577C365.7277 251.9559 341.7977 274.9059 341.7977 322.7559V696.7759C341.7977 721.1959 335.9377 734.8659 317.8677 744.6259ZM435.5477 389.6459C426.2677 389.6459 419.4377 383.2959 419.4377 374.0259C419.4377 365.7259 425.7777 359.3759 435.5477 359.3759H661.1377C669.9177 359.3759 676.2677 365.7259 676.2677 374.0259C676.2677 383.2959 669.9177 389.6459 661.1377 389.6459ZM240.2377 476.0759V681.1559C240.2377 698.7259 252.4377 708.9859 268.5577 708.9859C284.6677 708.4959 297.3677 698.2459 297.3677 681.1559V432.6159H286.1377C258.2977 432.6159 240.2377 448.7259 240.2377 476.0759ZM435.5477 470.7059C426.2677 470.7059 419.4377 464.3559 419.4377 455.5659C419.4377 446.7759 425.7777 440.4259 435.5477 440.4259H661.1377C669.9177 440.4259 676.2677 446.7759 676.2677 455.5659C676.2677 464.3559 669.9177 470.7059 661.1377 470.7059ZM578.1277 553.2259C568.8477 553.2259 562.4977 546.8759 562.4977 538.5759C562.4977 529.7859 568.8477 522.4559 578.1277 522.4559H661.1377C669.9177 522.4559 676.2677 529.7859 676.2677 538.5759C676.2677 546.8759 669.9177 553.2259 661.1377 553.2259ZM446.2877 634.7659C429.1977 634.7659 419.4377 624.9959 419.4377 607.9059V549.8059C419.4377 533.2059 429.1977 522.4559 446.2877 522.4559H503.9077C520.9977 522.4559 531.2477 533.2059 531.2477 549.8059V607.9059C531.2477 624.9959 520.9977 634.7659 503.9077 634.7659ZM578.1277 634.7659C568.8477 634.7659 562.4977 628.4159 562.4977 619.6259C562.4977 610.8359 568.8477 604.4959 578.1277 604.4959H661.1377C669.9177 604.4959 676.2677 610.8359 676.2677 619.6259C676.2677 628.4159 669.9177 634.7659 661.1377 634.7659Z"/>
</svg>