<?xml version="1.0" encoding="UTF-8" standalone="no"?>
<svg xmlns="http://www.w3.org/2000/svg"
     width="1110.3515625" height="1046.875"
     viewBox="0 0 1110.3515625 1046.875"
     fill="currentColor">
  <path d="M-0.0017 899.4166C-0.0017 996.5866 48.3383 1046.8766 147.4583 1046.8766H957.0283C1059.5683 1046.8766 1110.3483 996.5866 1110.3483 895.9966V151.3666C1110.3483 50.7766 1059.5683 -0.0034 957.0283 -0.0034H368.6483C266.5983 -0.0034 215.3283 50.7766 215.3283 151.3666V384.2766H98.6283C36.6183 384.2766 -0.0017 417.9666 -0.0017 476.0766ZM277.3483 968.2666C288.0883 947.2666 293.9483 922.8566 293.9483 894.5266V155.7666C293.9483 104.9766 321.2883 78.6166 370.1183 78.6166H955.5683C1004.3983 78.6166 1031.7383 104.9766 1031.7383 155.7666V891.6066C1031.7383 942.3866 1004.3983 968.2666 955.5683 968.2666ZM420.8983 291.0166H905.7583C922.8483 291.0166 936.0383 277.3466 936.0383 260.2566C936.0383 243.6566 922.8483 230.9566 905.7583 230.9566H420.8983C403.3183 230.9566 390.1383 243.6566 390.1383 260.2566C390.1383 277.3466 403.3183 291.0166 420.8983 291.0166ZM420.8983 462.8866H905.7583C922.8483 462.8866 936.0383 449.7066 936.0383 433.1066C936.0383 416.0166 922.8483 402.8366 905.7583 402.8366H420.8983C403.3183 402.8366 390.1383 416.0166 390.1383 433.1066C390.1383 449.7066 403.3183 462.8866 420.8983 462.8866ZM78.6183 899.4166V491.2066C78.6183 473.1466 89.3583 462.8866 107.4183 462.8866H215.3283V899.4166C215.3283 939.9366 185.5483 968.2666 147.4583 968.2666C108.8883 968.2666 78.6183 938.4766 78.6183 899.4166ZM449.7083 811.0366H576.1683C613.2783 811.0366 635.7383 788.5766 635.7383 751.4666V635.2566C635.7383 597.6566 613.2783 575.1966 576.1683 575.1966H449.7083C412.1083 575.1966 389.6483 597.6566 389.6483 635.2566V751.4666C389.6483 788.5766 412.1083 811.0366 449.7083 811.0366ZM723.6283 635.2566H905.2783C922.8483 635.2566 935.5483 622.5566 935.5483 605.9566C935.5483 588.3766 922.8483 575.1966 905.2783 575.1966H723.6283C706.0583 575.1966 693.3583 588.3766 693.3583 605.9566C693.3583 622.5566 706.0583 635.2566 723.6283 635.2566ZM723.6283 811.0366H905.2783C922.8483 811.0366 935.5483 798.3366 935.5483 781.7366C935.5483 764.6466 922.8483 750.9766 905.2783 750.9766H723.6283C706.0583 750.9766 693.3583 764.6466 693.3583 781.7366C693.3583 798.3366 706.0583 811.0366 723.6283 811.0366Z"/>
</svg>