<?xml version="1.0" encoding="UTF-8" standalone="no"?>
<svg xmlns="http://www.w3.org/2000/svg"
     width="982.421875" height="943.84765625"
     viewBox="0 0 982.421875 943.84765625"
     fill="currentColor">
  <path d="M-0.0023 738.2861C-0.0023 861.8161 85.9377 943.8461 215.8177 943.8461C255.3677 943.8461 297.8477 930.1761 325.1977 909.6661C304.1977 894.5361 286.1377 877.9261 260.7377 846.1961C249.5077 851.0761 234.3777 854.4961 219.2377 854.4961C178.7077 854.4961 151.3677 831.0561 151.3677 797.8561C151.3677 766.1161 174.8077 744.1361 209.9577 744.1361C240.7277 744.1361 261.7177 762.2061 284.6677 787.5961C334.4777 841.7961 381.8377 904.7861 491.2077 904.7861C600.5877 904.7861 647.9477 841.7961 697.7577 787.5961C720.7077 762.2061 741.6977 744.1361 772.4577 744.1361C807.1277 744.1361 831.0577 766.1161 831.0577 797.8561C831.0577 831.0561 803.7077 854.4961 762.6977 854.4961C748.0477 854.4961 732.9077 851.0761 721.1877 846.1961C696.2877 877.9261 678.2277 894.5361 657.2277 909.6661C684.5677 930.1761 727.0477 943.8461 766.5977 943.8461C896.4877 943.8461 982.4177 861.8161 982.4177 738.2861C982.4177 620.6061 897.4577 532.7161 768.0677 518.5561C718.7477 402.3461 683.5977 274.4161 655.2777 151.8561C632.8077 52.7361 582.0277 -0.0039 491.2077 -0.0039C400.3877 -0.0039 349.6077 52.7361 327.1477 151.8561C298.8277 274.4161 263.6677 402.3461 214.3577 518.5561C84.9577 532.7161 -0.0023 620.6061 -0.0023 738.2861Z"/>
</svg>