<?xml version="1.0" encoding="UTF-8" standalone="no"?>
<svg xmlns="http://www.w3.org/2000/svg"
     width="900.390625" height="895.99609375"
     viewBox="0 0 900.390625 895.99609375"
     fill="currentColor">
  <path d="M843.2583 57.6147C793.4583 7.8147 723.1483 0.0047 639.6483 0.0047H259.2783C177.2483 0.0047 106.9383 7.8147 57.1283 57.6147C7.3283 107.4247 -0.0017 177.2447 -0.0017 258.7847V635.7447C-0.0017 719.2347 7.3283 788.5747 57.1283 838.3747C106.9383 888.1847 177.2483 895.9947 260.2583 895.9947H639.6483C723.1483 895.9947 793.4583 888.1847 843.2583 838.3747C893.0683 788.5747 900.3883 719.2347 900.3883 635.7447V260.2547C900.3883 176.7547 893.0683 106.9347 843.2583 57.6147ZM821.7783 246.5847V648.9247C821.7783 699.7047 815.4283 751.4647 785.6483 781.2547C756.3483 810.5447 703.6183 817.3847 653.3183 817.3847H247.0683C196.7783 817.3847 144.0383 810.5447 114.2583 781.2547C84.9583 751.4647 78.6183 699.7047 78.6183 648.9247V248.0447C78.6183 196.7747 84.9583 144.0447 114.2583 114.7447C144.0383 84.9647 197.2683 78.6147 248.5383 78.6147H653.3183C703.6183 78.6147 756.3483 85.4447 785.6483 114.7447C815.4283 144.5347 821.7783 196.2847 821.7783 246.5847ZM450.1983 709.4747C593.2583 709.4747 711.9183 590.3347 711.9183 447.7547C711.9183 305.6647 592.2883 186.0347 450.1983 186.0347C307.6183 186.0347 188.9683 305.1747 188.9683 447.7547C188.9683 589.8447 308.5983 709.4747 450.1983 709.4747ZM450.1983 257.3247C553.7083 257.3247 640.6283 344.2347 640.6283 447.7547C640.6283 486.3247 628.4183 522.9447 607.9083 553.2247L344.7283 290.0347C374.9983 269.5347 411.6183 257.3247 450.1983 257.3247ZM450.1983 638.1847C347.1683 638.1847 260.2583 551.2647 260.2583 447.7547C260.2583 409.1747 272.4583 372.5547 292.9683 342.2847L556.1483 605.4647C525.8783 625.9747 489.2583 638.1847 450.1983 638.1847Z"/>
</svg>