<?xml version="1.0" encoding="UTF-8" standalone="no"?>
<svg xmlns="http://www.w3.org/2000/svg"
     width="898.92578125" height="898.92578125"
     viewBox="0 0 898.92578125 898.92578125"
     fill="currentColor">
  <path d="M153.3183 898.9295H745.6083C848.1483 898.9295 898.9283 848.1495 898.9283 747.5595V151.3695C898.9283 50.7795 848.1483 -0.0005 745.6083 -0.0005H153.3183C51.2683 -0.0005 -0.0017 50.2895 -0.0017 151.3695V747.5595C-0.0017 848.6295 51.2683 898.9295 153.3183 898.9295ZM320.3083 694.8195C299.3183 694.8195 284.1783 677.2495 288.0883 656.2495L309.0783 557.1295H263.1883C246.5783 557.1295 234.3783 544.9195 234.3783 527.3395C234.3783 508.2995 248.5383 493.6495 268.5583 493.6495H322.2683L343.2583 391.5995H299.3183C282.2283 391.5995 270.0183 378.9095 270.0183 361.8195C270.0183 342.2895 284.6683 327.6395 304.1983 327.6395H357.4183L378.4183 224.6095C382.3283 205.5695 395.0183 195.3095 415.5283 195.3095C436.0383 195.3095 450.6883 213.3795 446.2883 233.8895L427.2483 327.6395H520.5083L542.4783 224.6095C546.3883 205.5695 559.0783 195.3095 578.6183 195.3095C599.6083 195.3095 614.7483 212.8895 610.8383 233.8895L590.8183 327.6395H635.7383C652.3483 327.6395 664.5483 340.3295 664.5483 357.4195C664.5483 376.9495 650.3883 391.5995 630.3683 391.5995H577.6383L556.1483 493.6495H600.0983C616.6983 493.6495 628.9083 506.3495 628.9083 523.4395C628.9083 542.4795 614.7483 557.1295 594.7283 557.1295H542.4783L520.0183 666.0195C516.1183 684.5695 502.9283 694.8195 482.4183 694.8195C461.9183 694.8195 447.2683 677.2495 451.6583 656.2495L472.1683 557.6195H378.9083L355.9583 666.0195C352.0483 684.5695 339.8483 694.8195 320.3083 694.8195ZM387.6983 499.5095H488.7683L512.6983 386.2295H411.1283Z"/>
</svg>