<?xml version="1.0" encoding="UTF-8" standalone="no"?>
<svg xmlns="http://www.w3.org/2000/svg"
     width="875.48828125" height="951.171875"
     viewBox="0 0 875.48828125 951.171875"
     fill="currentColor">
  <path d="M36.6183 677.7302H185.5483L141.1183 898.4402C140.1383 903.3202 139.1583 909.1802 139.1583 914.0602C139.1583 937.9902 155.7583 951.1702 179.1983 951.1702C202.6383 951.1702 219.7283 938.4802 224.6083 914.5502L272.4583 677.7302H503.4183L458.4983 898.4402C457.5183 903.3202 457.0283 909.1802 457.0283 914.0602C457.0283 937.9902 473.6283 951.1702 496.5783 951.1702C520.5083 951.1702 537.1083 938.4802 541.9883 914.5502L589.8483 677.7302H764.1583C790.5283 677.7302 809.5683 658.2002 809.5683 631.8402C809.5683 610.3502 794.4383 592.7702 772.9483 592.7702H606.9383L659.1783 334.9602H830.0783C856.9383 334.9602 875.4883 315.4302 875.4883 289.0602C875.4883 267.5802 860.8383 250.0002 838.8683 250.0002H676.2683L716.3083 53.2202C716.7983 50.2902 717.7783 43.9502 717.7783 37.6002C717.7783 13.6702 700.1983 0.0002 677.2483 0.0002C649.4183 0.0002 637.2083 15.1402 632.8083 38.0902L589.8483 250.0002H358.8883L398.4383 53.2202C399.4183 50.2902 400.3883 43.9502 400.3883 37.6002C400.3883 13.6702 382.8083 0.0002 359.3783 0.0002C332.0283 0.0002 319.3383 15.1402 314.9383 38.0902L271.9683 250.0002H111.3283C84.9583 250.0002 65.9183 270.5102 65.9183 297.3602C65.9183 319.3402 81.0583 334.9602 102.5383 334.9602H254.8783L202.6383 592.7702H45.4083C18.5583 592.7702 -0.0017 613.2802 -0.0017 640.1402C-0.0017 662.1102 14.6483 677.7302 36.6183 677.7302ZM289.5483 592.7702L341.7983 334.9602H572.7583L520.5083 592.7702Z"/>
</svg>