<?xml version="1.0" encoding="UTF-8" standalone="no"?>
<svg xmlns="http://www.w3.org/2000/svg"
     width="996.09375" height="996.09375"
     viewBox="0 0 996.09375 996.09375"
     fill="currentColor">
  <path d="M498.0477 996.0959C770.5077 996.0959 996.0977 770.0159 996.0977 498.0459C996.0977 225.5859 770.0177 -0.0041 497.5577 -0.0041C225.5877 -0.0041 -0.0023 225.5859 -0.0023 498.0459C-0.0023 770.0159 226.0777 996.0959 498.0477 996.0959ZM498.0477 734.3759C369.6277 734.3759 280.2777 635.7459 280.2777 493.6559C280.2777 351.0759 369.6277 252.4459 498.0477 252.4459C626.9577 252.4459 716.3077 351.0759 716.3077 493.6559C716.3077 635.7459 626.9577 734.3759 498.0477 734.3759ZM498.0477 670.8959C581.0577 670.8959 635.2577 600.5859 635.2577 493.6559C635.2577 386.2259 581.0577 315.9159 498.0477 315.9159C415.0377 315.9159 360.8377 386.2259 360.8377 493.6559C360.8377 600.5859 415.0377 670.8959 498.0477 670.8959Z"/>
</svg>