<?xml version="1.0" encoding="UTF-8" standalone="no"?>
<svg xmlns="http://www.w3.org/2000/svg"
     width="898.92578125" height="898.92578125"
     viewBox="0 0 898.92578125 898.92578125"
     fill="currentColor">
  <path d="M153.3183 898.9295H745.6083C848.1483 898.9295 898.9283 848.1495 898.9283 747.5595V151.3695C898.9283 50.7795 848.1483 -0.0005 745.6083 -0.0005H153.3183C51.2683 -0.0005 -0.0017 50.2895 -0.0017 151.3695V747.5595C-0.0017 848.6295 51.2683 898.9295 153.3183 898.9295ZM449.7083 685.0595C321.2883 685.0595 231.9383 586.4295 231.9383 444.3395C231.9383 301.7595 321.2883 203.1295 449.7083 203.1295C578.6183 203.1295 667.9683 301.7595 667.9683 444.3395C667.9683 586.4295 578.6183 685.0595 449.7083 685.0595ZM449.7083 621.5795C532.7183 621.5795 586.9183 551.2695 586.9183 444.3395C586.9183 336.9095 532.7183 266.5995 449.7083 266.5995C366.6983 266.5995 312.4983 336.9095 312.4983 444.3395C312.4983 551.2695 366.6983 621.5795 449.7083 621.5795Z"/>
</svg>