<?xml version="1.0" encoding="UTF-8" standalone="no"?>
<svg xmlns="http://www.w3.org/2000/svg"
     width="997.0703125" height="895.01953125"
     viewBox="0 0 997.0703125 895.01953125"
     fill="currentColor">
  <path d="M281.2483 0.0047H45.8983C20.0183 0.0047 -0.0017 19.0447 -0.0017 43.9447C-0.0017 68.8447 20.0183 88.3747 45.8983 88.3747H260.7383C278.3183 88.3747 291.0183 96.1947 298.3383 112.3047L620.1183 834.9647C638.1883 875.9747 667.9683 895.0147 712.8883 895.0147H951.1683C976.5583 895.0147 997.0683 875.4847 997.0683 851.0747C997.0683 826.6647 976.5583 806.6447 951.1683 806.6447H734.8683C715.3283 806.6447 703.1283 799.3147 695.3083 783.2047L374.9983 61.0347C358.3983 22.9447 323.2383 0.0047 281.2483 0.0047ZM951.1683 0.0047H635.2583C609.3783 0.0047 589.3583 18.5547 589.3583 43.4547C589.3583 68.3547 609.3783 87.4047 635.2583 87.4047H951.1683C977.0483 87.4047 996.5783 68.3547 996.5783 43.4547C996.5783 18.5547 977.0483 0.0047 951.1683 0.0047Z"/>
</svg>