<?xml version="1.0" encoding="UTF-8" standalone="no"?>
<svg xmlns="http://www.w3.org/2000/svg"
     width="996.09375" height="996.09375"
     viewBox="0 0 996.09375 996.09375"
     fill="currentColor">
  <path d="M498.0477 996.0959C770.5077 996.0959 996.0977 770.0159 996.0977 498.0459C996.0977 225.5859 770.0177 -0.0041 497.5577 -0.0041C225.5877 -0.0041 -0.0023 225.5859 -0.0023 498.0459C-0.0023 770.0159 226.0777 996.0959 498.0477 996.0959ZM83.4977 498.0459C83.4977 267.5759 267.0877 83.0059 497.5577 83.0059C535.1577 83.0059 571.7777 87.8859 606.4477 97.1659L547.3677 279.7859C531.7377 276.3659 515.6277 274.4159 499.0277 274.4159C375.4877 274.4159 273.4377 375.4859 273.4377 498.0459C273.4377 515.6259 275.3877 533.2059 279.2977 549.8059L98.1477 608.3959C88.3777 573.2459 83.4977 536.1359 83.4977 498.0459ZM587.3977 292.9659L646.9777 110.3559C716.3077 136.7159 776.3677 181.1559 821.7777 237.7959L667.9677 351.5659C645.9977 326.6559 618.6477 306.1559 587.3977 292.9659ZM692.3877 385.7459L846.6777 271.9759C863.2777 297.3659 876.9577 325.1959 887.6977 354.4959L706.5477 413.5759C702.6377 403.8059 697.7577 394.5359 692.3877 385.7459ZM498.5377 673.8259C401.8577 673.8259 323.2377 595.7059 323.2377 498.0459C323.2377 403.3159 402.3477 324.2159 498.5377 324.2159C594.7277 324.2159 673.3377 402.8359 673.3377 498.0459C673.3377 594.7259 595.2177 673.8259 498.5377 673.8259ZM498.5377 617.6759C563.4777 617.6759 617.1877 563.9659 617.1877 498.5359C617.1877 434.0859 563.4777 380.3759 498.5377 380.3759C433.1077 380.3759 379.3977 434.0859 379.3977 499.0259C379.3977 563.9659 433.1077 617.6759 498.5377 617.6759ZM498.0477 913.0859C461.4277 913.0859 425.7777 908.2059 392.0877 899.4159L451.1677 718.7459C466.3077 722.1659 482.4177 723.6359 498.5377 723.6359C622.5577 723.1459 723.1477 622.5559 723.1477 498.0459C723.1477 482.4259 721.6777 467.7759 718.7477 453.1259L900.3877 394.5359C908.6877 427.7359 913.0877 462.4059 913.0877 498.0459C913.0877 728.5159 728.5177 913.0859 498.0477 913.0859ZM498.5377 563.4759C462.3977 562.9859 434.0777 534.6659 434.0777 498.5359C434.0777 464.3559 462.3977 434.5659 499.0277 434.5659C533.6877 434.5659 562.4977 463.8659 562.4977 498.5359C562.4977 534.6659 533.6877 563.9659 498.5377 563.4759ZM111.3277 648.4359L292.4777 589.3559C296.8777 598.6359 301.2677 607.4259 306.6377 615.7259L152.8277 729.0059C136.2277 704.1059 122.0677 677.2459 111.3277 648.4359ZM178.2277 763.1859L332.0277 649.9059C354.0077 673.8259 380.8577 693.3559 411.1377 706.0559L352.0477 886.7159C283.6877 861.3259 224.1177 818.3559 178.2277 763.1859Z"/>
</svg>