<?xml version="1.0" encoding="UTF-8" standalone="no"?>
<svg xmlns="http://www.w3.org/2000/svg"
     width="899.4140625" height="1168.9453125"
     viewBox="0 0 899.4140625 1168.9453125"
     fill="currentColor">
  <path d="M450.1977 0.0017C184.0777 0.0017 -0.0023 241.7017 -0.0023 584.4717C-0.0023 927.2417 184.0777 1168.9417 450.1977 1168.9417C716.3077 1168.9417 899.4177 927.7317 899.4177 584.4717C899.4177 241.2117 716.3077 0.0017 450.1977 0.0017ZM450.1977 78.6117C669.4377 78.6117 820.7977 287.6017 820.7977 584.4717C820.7977 881.3517 669.4377 1090.3317 450.1977 1090.3317C230.4677 1090.3317 78.6177 880.8617 78.6177 584.4717C78.6177 287.6017 230.4677 78.6117 450.1977 78.6117ZM450.1977 149.9017C274.4177 149.9017 150.3877 325.6817 150.3877 584.4717C150.3877 842.7717 274.4177 1019.0417 450.1977 1019.0417C625.9777 1019.0417 749.5077 843.2617 749.5077 584.4717C749.5077 325.1917 625.9777 149.9017 450.1977 149.9017Z"/>
</svg>