<?xml version="1.0" encoding="UTF-8" standalone="no"?>
<svg xmlns="http://www.w3.org/2000/svg"
     width="976.07421875" height="842.7734375"
     viewBox="0 0 976.07421875 842.7734375"
     fill="currentColor">
  <path d="M-0.0017 237.7958H976.0783V102.0458C976.0783 41.0158 936.5283 -0.0042 877.9283 -0.0042H98.1483C39.5483 -0.0042 -0.0017 41.0158 -0.0017 102.0458ZM181.1483 172.8558C156.2483 172.8558 136.7183 153.3158 136.7183 128.9058C136.7183 104.4958 156.2483 84.9658 181.1483 84.9658C205.0783 84.9658 225.0983 104.4958 225.0983 128.9058C225.0983 153.3158 205.0783 172.8558 181.1483 172.8558ZM310.5483 172.8558C286.1283 172.8558 266.5983 153.3158 266.5983 128.9058C266.5983 104.4958 286.1283 84.9658 310.5483 84.9658C334.9583 84.9658 354.9783 104.4958 354.9783 128.9058C354.9783 153.3158 334.9583 172.8558 310.5483 172.8558ZM440.4283 172.8558C415.5283 172.8558 395.9983 153.3158 395.9983 128.9058C395.9983 104.4958 415.5283 84.9658 440.4283 84.9658C464.3583 84.9658 484.3783 104.4958 484.3783 128.9058C484.3783 153.3158 464.3583 172.8558 440.4283 172.8558ZM696.2883 154.2958C681.1483 154.2958 670.4083 143.5558 670.4083 128.4158C670.4083 113.2858 681.1483 103.5158 696.2883 103.5158H832.5183C847.6583 103.5158 857.4183 113.2858 857.4183 128.4158C857.4183 143.5558 847.6583 154.2958 832.5183 154.2958ZM98.1483 842.7758H877.9283C936.5283 842.7758 976.0783 801.7558 976.0783 740.7258V291.9958H-0.0017V740.7258C-0.0017 801.7558 39.5483 842.7758 98.1483 842.7758ZM176.2683 736.3258C147.9483 736.3258 129.8783 717.7758 129.8783 689.9458V416.0158C129.8783 387.2058 147.9483 368.6558 176.2683 368.6558H800.2883C828.6183 368.6558 846.6783 387.2058 846.6783 416.0158V689.9458C846.6783 717.7758 828.6183 736.3258 800.2883 736.3258ZM184.0783 480.9558H792.4783V436.5258C792.4783 428.2258 787.1083 422.8558 779.2983 422.8558H197.2683C189.4483 422.8558 184.0783 428.2258 184.0783 436.5258ZM197.2683 682.1258H779.2983C787.1083 682.1258 792.4783 676.7558 792.4783 668.9458V535.1558H184.0783V668.9458C184.0783 676.7558 189.4483 682.1258 197.2683 682.1258Z"/>
</svg>