<?xml version="1.0" encoding="UTF-8" standalone="no"?>
<svg xmlns="http://www.w3.org/2000/svg"
     width="898.92578125" height="898.92578125"
     viewBox="0 0 898.92578125 898.92578125"
     fill="currentColor">
  <path d="M153.3183 898.9295H745.6083C848.1483 898.9295 898.9283 848.1495 898.9283 747.5595V151.3695C898.9283 50.7795 848.1483 -0.0005 745.6083 -0.0005H153.3183C51.2683 -0.0005 -0.0017 50.2895 -0.0017 151.3695V747.5595C-0.0017 848.6295 51.2683 898.9295 153.3183 898.9295ZM154.2983 820.3095C105.4683 820.3095 78.6183 794.4295 78.6183 743.6495V155.2695C78.6183 104.4895 105.4683 78.6095 154.2983 78.6095H744.6283C792.9683 78.6095 820.3083 104.4895 820.3083 155.2695V743.6495C820.3083 794.4295 792.9683 820.3095 744.6283 820.3095ZM344.7283 672.3595C370.6083 672.3595 384.2783 655.2695 384.2783 628.4195V521.4795H480.4683C576.1683 521.4795 639.6483 461.9095 639.6483 372.0695C639.6483 282.2295 575.1983 221.6795 480.9583 221.6795H344.7283C319.3383 221.6795 306.1483 239.2595 306.1483 265.6295V628.4195C306.1483 654.2995 319.8283 672.3595 344.7283 672.3595ZM384.2783 461.9095V281.2495H469.7283C526.8583 281.2495 562.4983 315.9195 562.4983 372.0695C562.4983 427.2495 527.3483 461.9095 469.7283 461.9095Z"/>
</svg>