<?xml version="1.0" encoding="UTF-8" standalone="no"?>
<svg xmlns="http://www.w3.org/2000/svg"
     width="1176.26953125" height="978.02734375"
     viewBox="0 0 1176.26953125 978.02734375"
     fill="currentColor">
  <path d="M631.8377 978.0314C837.3977 978.0314 974.6077 905.2714 974.6077 797.8514C974.6077 701.6614 892.5777 680.1714 892.5777 623.5314C892.5777 545.4114 1176.2677 529.7814 1176.2677 329.1014C1176.2677 130.8614 971.6777 0.0014 667.9677 0.0014C269.0477 0.0014 -0.0023 199.2214 -0.0023 497.5614C-0.0023 784.6714 255.3677 978.0314 631.8377 978.0314ZM678.7077 307.1314C633.7877 307.1314 595.7077 270.5114 595.7077 225.1014C595.7077 179.6914 633.7877 143.0614 678.7077 143.0614C724.6077 143.0614 760.7377 179.6914 760.7377 225.1014C760.7377 270.5114 724.6077 307.1314 678.7077 307.1314ZM418.4577 384.2814C360.8377 384.2814 314.9377 339.3514 314.9377 281.7414C314.9377 225.5814 360.8377 180.6614 418.4577 180.6614C474.1177 180.6614 520.5077 225.5814 520.5077 281.7414C520.5077 339.3514 474.6077 384.2814 418.4577 384.2814ZM908.6877 350.1014C871.5777 350.1014 841.3077 320.8014 841.3077 283.6914C841.3077 247.0714 871.5777 216.8014 908.6877 216.8014C945.3077 216.8014 974.6077 247.0714 974.6077 283.6914C974.6077 320.8014 945.3077 350.1014 908.6877 350.1014ZM230.9577 557.1314C186.5277 557.1314 149.4177 520.0214 149.4177 475.1014C149.4177 432.1314 187.9877 394.5314 230.9577 394.5314C275.8777 394.5314 312.0077 430.1714 312.0077 475.1014C312.0077 520.0214 275.8777 557.1314 230.9577 557.1314ZM621.0977 791.5014C549.8077 791.5014 491.2077 733.4014 491.2077 661.6214C491.2077 590.3314 549.8077 531.7414 621.0977 531.7414C692.8677 531.7414 751.4677 590.3314 751.4677 661.6214C751.4677 733.4014 692.8677 791.5014 621.0977 791.5014Z"/>
</svg>