<?xml version="1.0" encoding="UTF-8" standalone="no"?>
<svg xmlns="http://www.w3.org/2000/svg"
     width="1030.902182710551" height="1159.515286981125"
     viewBox="0 0 1030.902182710551 1159.515286981125"
     fill="currentColor">
  <path d="M801.6368 782.0042L991.0968 592.5542C1045.2968 538.3542 1043.8268 473.9042 988.6568 417.7442L963.7468 392.3542C912.9668 458.2742 767.9468 535.4242 740.1168 507.5942C735.7268 503.1942 735.2368 494.4042 741.5868 487.5742C800.6668 428.4942 839.2368 370.8742 848.0268 277.1242L597.0468 25.6542C550.6668 -20.7258 470.0968 -5.5958 448.1268 82.2942C417.3668 207.2942 389.5268 280.0542 359.2568 340.1142ZM57.9868 1101.3442C134.1568 1178.0042 232.7968 1178.9742 307.9868 1103.7842C368.0468 1043.7242 426.1568 907.9842 470.5868 840.1142L588.7468 958.7642C624.8868 995.3842 668.8268 995.3842 703.0068 960.2242L744.9968 918.2342C780.6468 882.1042 780.1568 841.0842 743.5368 804.4642L355.3568 415.7942C318.2468 379.1742 276.7368 378.6842 241.0968 414.3342L199.1068 456.3242C163.9468 491.4742 163.9468 533.9542 200.5668 570.5842L318.7268 688.7442C251.3468 733.1742 116.0968 791.2842 55.5468 851.3442C-19.1632 926.5342 -18.6732 1025.6542 57.9868 1101.3442ZM188.3568 1037.8642C154.6668 1037.8642 127.8168 1010.5242 127.8168 977.3142C127.8168 944.1142 154.6668 917.2642 188.3568 917.2642C221.5668 917.2642 248.4168 944.1142 248.4168 977.3142C248.4168 1010.5242 221.5668 1037.8642 188.3568 1037.8642Z"/>
</svg>