<?xml version="1.0" encoding="UTF-8" standalone="no"?>
<svg xmlns="http://www.w3.org/2000/svg"
     width="996.09375" height="996.09375"
     viewBox="0 0 996.09375 996.09375"
     fill="currentColor">
  <path d="M498.0477 996.0959C770.5077 996.0959 996.0977 770.0159 996.0977 498.0459C996.0977 225.5859 770.0177 -0.0041 497.5577 -0.0041C225.5877 -0.0041 -0.0023 225.5859 -0.0023 498.0459C-0.0023 770.0159 226.0777 996.0959 498.0477 996.0959ZM498.0477 913.0859C267.5777 913.0859 83.4977 728.5159 83.4977 498.0459C83.4977 267.5759 267.0877 83.0059 497.5577 83.0059C728.0277 83.0059 913.0877 267.5759 913.0877 498.0459C913.0877 728.5159 728.5177 913.0859 498.0477 913.0859ZM281.7377 743.6559C351.0777 811.5259 445.7977 809.0859 512.6977 742.6759L712.3977 543.4559C722.1677 533.6959 723.1477 514.6459 712.3977 504.8859C702.1477 494.6259 683.5977 494.6259 673.3377 505.3759L476.0777 702.1459C430.6677 748.0459 366.2077 748.0459 322.2677 704.5859C276.8577 660.1559 278.3177 596.1959 323.7277 549.8059L592.7777 280.7659C621.5777 251.9559 662.1077 250.4859 687.9877 275.8759C714.3577 302.2459 711.9177 341.3059 682.6177 370.6059L419.9177 633.2959C411.1377 643.0659 400.3877 642.5759 391.5977 634.7659C382.3277 626.9559 382.8077 614.7459 392.0877 605.9559L575.6877 422.3659C586.9177 411.1359 587.8877 395.5059 576.6577 384.7659C565.4277 373.5359 549.8077 374.0259 538.5777 385.2559L354.9777 569.3359C325.1977 599.1259 323.7277 645.5059 352.0477 674.3159C380.8577 703.6159 425.2977 702.6359 456.0577 671.8759L720.2177 407.7159C771.9777 355.9559 773.9277 285.6459 725.5877 237.3059C676.2677 188.9659 605.9577 189.9459 554.1977 241.6959L283.2077 512.2059C216.3077 579.1059 216.3077 679.1959 281.7377 743.6559Z"/>
</svg>