<?xml version="1.0" encoding="UTF-8" standalone="no"?>
<svg xmlns="http://www.w3.org/2000/svg"
     width="930.6915139192789" height="1046.2859245322081"
     viewBox="0 0 930.6915139192789 1046.2859245322081"
     fill="currentColor">
  <path d="M795.7923 545.7824L436.9123 904.6624C343.6423 998.4124 218.1623 989.1424 138.0823 908.0824C57.5123 828.0024 48.2323 703.4924 141.5023 609.7424L631.2423 120.4824C687.3923 64.3324 769.9123 56.5224 823.6323 109.7424C876.8523 163.9424 869.0423 245.9724 813.3723 302.1224L334.8623 780.6424C310.9323 805.5424 281.6323 798.2224 265.0323 781.6224C248.4323 764.5324 241.5923 736.2124 265.5223 711.3024L599.9923 377.8124C614.6423 362.6724 615.6223 341.1924 601.4623 327.0324C587.3023 313.3524 565.8123 314.3324 551.1623 328.9824L215.7223 664.4324C165.9123 714.2324 167.8623 790.4024 211.8123 834.3524C259.6623 882.2024 331.9323 881.2324 382.2223 830.9324L862.6923 350.4624C954.0023 259.1524 950.0923 139.0424 870.5023 59.4524C792.8623 -18.1876 670.7923 -24.0476 579.4823 67.2624L87.3023 559.9424C-33.3077 680.5424 -24.0277 852.9024 84.8623 961.7924C193.7423 1070.1924 366.1123 1079.4724 486.7123 959.3524L848.0423 598.0224C862.2023 583.8624 862.2023 557.9824 847.5523 544.8024C833.3923 529.6624 810.4423 531.6224 795.7923 545.7824Z"/>
</svg>