<?xml version="1.0" encoding="UTF-8" standalone="no"?>
<svg xmlns="http://www.w3.org/2000/svg"
     width="996.09375" height="996.09375"
     viewBox="0 0 996.09375 996.09375"
     fill="currentColor">
  <path d="M498.0477 996.0959C770.5077 996.0959 996.0977 770.0159 996.0977 498.0459C996.0977 225.5859 770.0177 -0.0041 497.5577 -0.0041C225.5877 -0.0041 -0.0023 225.5859 -0.0023 498.0459C-0.0023 770.0159 226.0777 996.0959 498.0477 996.0959ZM498.0477 913.0859C267.5777 913.0859 83.4977 728.5159 83.4977 498.0459C83.4977 267.5759 267.0877 83.0059 497.5577 83.0059C728.0277 83.0059 913.0877 267.5759 913.0877 498.0459C913.0877 728.5159 728.5177 913.0859 498.0477 913.0859ZM507.3277 806.6359C526.8577 806.6359 541.0177 790.0359 550.7777 764.1559L729.4877 296.8759C734.3777 284.1759 736.8177 273.4359 736.8177 264.1559C736.8177 246.5859 726.5577 236.3259 708.9877 236.3259C699.7077 236.3259 688.9677 238.7659 676.2677 243.6559L206.5477 423.3359C184.0777 431.6359 166.5077 445.7959 166.5077 465.3359C166.5077 490.2359 185.0577 498.5359 211.4277 506.8359L359.3777 551.2659C376.9577 557.1259 386.7177 556.6359 398.4377 545.8959L696.7777 266.1159C700.1977 262.6959 704.0977 263.6759 707.0277 266.1159C710.4477 268.5559 710.4477 272.9459 707.0277 276.3659L428.7077 576.1759C417.9677 587.4059 416.9877 596.1959 421.8777 614.7459L465.8177 758.7859C474.6077 786.6259 481.9377 806.6359 507.3277 806.6359Z"/>
</svg>