<?xml version="1.0" encoding="UTF-8" standalone="no"?>
<svg xmlns="http://www.w3.org/2000/svg"
     width="727.05078125" height="1080.56640625"
     viewBox="0 0 727.05078125 1080.56640625"
     fill="currentColor">
  <path d="M205.0783 1080.5664C222.6583 1080.5664 236.8183 1068.3564 236.8183 1052.7364C236.8183 1042.4764 233.3983 1033.2064 225.5883 1020.9964C141.1183 880.3664 95.6983 705.5664 95.6983 540.5264C95.6983 375.4864 141.1183 200.6864 225.5883 60.0564C233.3983 47.3664 236.8183 38.5764 236.8183 28.3164C236.8183 12.6964 222.6583 -0.0036 205.0783 -0.0036C187.4983 -0.0036 174.8083 10.2564 159.1783 33.6864C54.1983 183.1064 -0.0017 364.7464 -0.0017 540.5264C-0.0017 716.3064 54.1983 897.9464 159.1783 1046.8764C174.8083 1070.7964 187.4983 1080.5664 205.0783 1080.5664ZM521.9683 1080.5664C539.5483 1080.5664 551.7583 1070.7964 567.8683 1046.8764C672.8483 897.9464 727.0483 716.3064 727.0483 540.5264C727.0483 364.7464 672.8483 183.1064 567.8683 33.6864C551.7583 10.2564 539.5483 -0.0036 521.9683 -0.0036C504.3983 -0.0036 490.2383 12.6964 490.2383 28.3164C490.2383 38.5764 493.6483 47.3664 501.4683 60.0564C585.9383 200.6864 631.3483 375.4864 631.3483 540.5264C631.3483 705.5664 585.9383 880.3664 501.4683 1020.9964C493.6483 1033.2064 490.2383 1042.4764 490.2383 1052.7364C490.2383 1068.3564 504.3983 1080.5664 521.9683 1080.5664Z"/>
</svg>