<?xml version="1.0" encoding="UTF-8" standalone="no"?>
<svg xmlns="http://www.w3.org/2000/svg"
     width="996.09375" height="996.09375"
     viewBox="0 0 996.09375 996.09375"
     fill="currentColor">
  <path d="M498.0477 996.0959C770.5077 996.0959 996.0977 770.0159 996.0977 498.0459C996.0977 225.5859 770.0177 -0.0041 497.5577 -0.0041C225.5877 -0.0041 -0.0023 225.5859 -0.0023 498.0459C-0.0023 770.0159 226.0777 996.0959 498.0477 996.0959ZM390.1377 729.0059C364.2577 729.0059 350.0977 709.9559 350.0977 683.1059V309.5659C350.0977 282.2259 363.7677 263.6759 389.6477 263.6759H530.2777C627.9277 263.6759 694.3377 326.1759 694.3377 418.9459C694.3377 511.7159 628.4177 573.2459 529.7877 573.2459H431.1477V683.1059C431.1477 710.9359 416.9877 729.0059 390.1377 729.0059ZM431.1477 511.7159H519.0477C578.1277 511.7159 614.2577 476.0759 614.2577 418.9459C614.2577 361.3259 577.6377 325.6859 519.0477 325.6859H431.1477Z"/>
</svg>