<?xml version="1.0" encoding="UTF-8" standalone="no"?>
<svg xmlns="http://www.w3.org/2000/svg"
     width="595.703125" height="795.41015625"
     viewBox="0 0 595.703125 795.41015625"
     fill="currentColor">
  <path d="M64.9383 795.41H176.2683C218.7483 795.41 241.2083 772.95 241.2083 729.98V64.94C241.2083 20.51 218.7483 0 176.2683 0H64.9383C22.4583 0 -0.0017 22.46 -0.0017 64.94V729.98C-0.0017 772.95 22.4583 795.41 64.9383 795.41ZM419.9183 795.41H530.7583C573.7283 795.41 595.6983 772.95 595.6983 729.98V64.94C595.6983 20.51 573.7283 0 530.7583 0H419.9183C376.9483 0 354.4883 22.46 354.4883 64.94V729.98C354.4883 772.95 376.9483 795.41 419.9183 795.41Z"/>
</svg>