<?xml version="1.0" encoding="UTF-8" standalone="no"?>
<svg xmlns="http://www.w3.org/2000/svg"
     width="996.09375" height="996.09375"
     viewBox="0 0 996.09375 996.09375"
     fill="currentColor">
  <path d="M498.0477 996.0959C770.5077 996.0959 996.0977 770.0159 996.0977 498.0459C996.0977 225.5859 770.0177 -0.0041 497.5577 -0.0041C225.5877 -0.0041 -0.0023 225.5859 -0.0023 498.0459C-0.0023 770.0159 226.0777 996.0959 498.0477 996.0959ZM498.0477 913.0859C267.5777 913.0859 83.4977 728.5159 83.4977 498.0459C83.4977 267.5759 267.0877 83.0059 497.5577 83.0059C728.0277 83.0059 913.0877 267.5759 913.0877 498.0459C913.0877 728.5159 728.5177 913.0859 498.0477 913.0859ZM359.8677 688.4759H407.7177C432.1277 688.4759 443.3577 675.2959 443.3577 656.2459V338.8659C443.3577 320.3159 432.1277 307.1259 407.7177 307.1259H359.8677C335.9377 307.1259 324.7077 320.3159 324.7077 338.8659V656.2459C324.7077 675.2959 335.9377 688.4759 359.8677 688.4759ZM588.3777 688.4759H636.2277C659.6677 688.4759 670.8977 675.2959 670.8977 656.2459V338.8659C670.8977 320.3159 659.6677 307.1259 636.2277 307.1259H588.3777C563.9677 307.1259 552.7377 320.3159 552.7377 338.8659V656.2459C552.7377 675.2959 563.9677 688.4759 588.3777 688.4759Z"/>
</svg>