<?xml version="1.0" encoding="UTF-8" standalone="no"?>
<svg xmlns="http://www.w3.org/2000/svg"
     width="1151.3671875" height="898.92578125"
     viewBox="0 0 1151.3671875 898.92578125"
     fill="currentColor">
  <path d="M153.3183 898.9278H998.0483C1100.5883 898.9278 1151.3683 848.6378 1151.3683 748.0478V151.3678C1151.3683 50.7778 1100.5883 -0.0022 998.0483 -0.0022H153.3183C51.2683 -0.0022 -0.0017 50.7778 -0.0017 151.3678V748.0478C-0.0017 848.6378 51.2683 898.9278 153.3183 898.9278ZM154.2983 820.3078C105.4683 820.3078 78.6183 794.4378 78.6183 743.6478V155.7578C78.6183 104.9778 105.4683 78.6178 154.2983 78.6178H997.0683C1045.4083 78.6178 1072.7583 104.9778 1072.7583 155.7578V743.6478C1072.7583 794.4378 1045.4083 820.3078 997.0683 820.3078ZM438.4783 639.6478H486.3283C510.2583 639.6478 521.4883 626.4678 521.4883 607.4178V290.0378C521.4883 271.4878 510.2583 258.2978 486.3283 258.2978H438.4783C414.0583 258.2978 402.8283 271.4878 402.8283 290.0378V607.4178C402.8283 626.4678 414.0583 639.6478 438.4783 639.6478ZM666.5083 639.6478H714.8483C738.2783 639.6478 749.5083 626.4678 749.5083 607.4178V290.0378C749.5083 271.4878 738.2783 258.2978 714.8483 258.2978H666.5083C642.5783 258.2978 630.8583 271.4878 630.8583 290.0378V607.4178C630.8583 626.4678 642.5783 639.6478 666.5083 639.6478Z"/>
</svg>