<?xml version="1.0" encoding="UTF-8" standalone="no"?>
<svg xmlns="http://www.w3.org/2000/svg"
     width="996.09375" height="996.09375"
     viewBox="0 0 996.09375 996.09375"
     fill="currentColor">
  <path d="M498.0477 996.0959C770.5077 996.0959 996.0977 770.0159 996.0977 498.0459C996.0977 225.5859 770.0177 -0.0041 497.5577 -0.0041C225.5877 -0.0041 -0.0023 225.5859 -0.0023 498.0459C-0.0023 770.0159 226.0777 996.0959 498.0477 996.0959ZM355.9577 694.3359C331.0577 694.3359 319.8277 680.6659 319.8277 661.1359V333.9859C319.8277 314.9459 331.0577 301.2659 355.9577 301.2659H405.2777C430.6677 301.2659 441.8977 314.9459 441.8977 333.9859V661.1359C441.8977 680.6659 430.6677 694.3359 405.2777 694.3359ZM591.7977 694.3359C566.4077 694.3359 555.1777 680.6659 555.1777 661.1359V333.9859C555.1777 314.9459 566.4077 301.2659 591.7977 301.2659H641.1177C665.5277 301.2659 676.7577 314.9459 676.7577 333.9859V661.1359C676.7577 680.6659 665.5277 694.3359 641.1177 694.3359Z"/>
</svg>