<?xml version="1.0" encoding="UTF-8" standalone="no"?>
<svg xmlns="http://www.w3.org/2000/svg"
     width="1055.6640625" height="1034.1796875"
     viewBox="0 0 1055.6640625 1034.1796875"
     fill="currentColor">
  <path d="M237.3083 184.5655C237.3083 295.8955 289.5483 369.1455 368.1683 369.1455C447.2683 369.1455 499.5083 294.9255 499.5083 184.5655C499.5083 73.7255 447.2683 -0.0045 368.1683 -0.0045C289.5483 -0.0045 237.3083 73.7255 237.3083 184.5655ZM556.1483 184.5655C556.1483 294.9255 608.3983 369.1455 687.4983 369.1455C766.1183 369.1455 818.3583 295.8955 818.3583 184.5655C818.3583 73.7255 766.1183 -0.0045 687.4983 -0.0045C608.3983 -0.0045 556.1483 73.7255 556.1483 184.5655ZM305.1783 184.5655C305.1783 114.7455 330.0783 67.8755 368.1683 67.8755C406.2483 67.8755 431.6383 114.7455 431.6383 184.5655C431.6383 254.8855 406.2483 301.2655 368.1683 301.2655C330.0783 301.2655 305.1783 254.8855 305.1783 184.5655ZM624.0283 184.5655C624.0283 114.7455 649.4183 67.8755 687.4983 67.8755C725.5883 67.8755 750.4883 114.7455 750.4883 184.5655C750.4883 254.8855 725.5883 301.2655 687.4983 301.2655C649.4183 301.2655 624.0283 254.8855 624.0283 184.5655ZM-0.0017 466.7955C-0.0017 577.6355 51.7583 651.8555 130.8583 651.8555C209.4683 651.8555 262.2083 577.6355 262.2083 466.7955C262.2083 355.9555 209.4683 281.7355 130.8583 281.7355C51.7583 281.7355 -0.0017 355.9555 -0.0017 466.7955ZM793.4583 466.7955C793.4583 577.6355 846.1883 651.8555 924.8083 651.8555C1003.9083 651.8555 1055.6683 577.6355 1055.6683 466.7955C1055.6683 355.9555 1003.9083 281.7355 924.8083 281.7355C846.1883 281.7355 793.4583 355.9555 793.4583 466.7955ZM67.8683 466.7955C67.8683 396.4855 92.7783 349.6055 130.8583 349.6055C168.9483 349.6055 194.3383 396.4855 194.3383 466.7955C194.3383 537.1055 168.9483 583.9855 130.8583 583.9855C92.7783 583.9855 67.8683 537.1055 67.8683 466.7955ZM861.3283 466.7955C861.3283 396.4855 886.7183 349.6055 924.8083 349.6055C962.8883 349.6055 987.7883 396.4855 987.7883 466.7955C987.7883 537.1055 962.8883 583.9855 924.8083 583.9855C886.7183 583.9855 861.3283 537.1055 861.3283 466.7955ZM338.8683 1034.1755C387.6983 1034.1755 421.3883 1022.4655 449.2183 1010.7455C478.0283 998.5355 499.9983 985.8355 527.3483 985.8355C554.1983 985.8355 576.1683 998.5355 605.4683 1010.7455C633.2983 1022.4655 666.5083 1034.1755 715.3283 1034.1755C820.7983 1034.1755 900.8783 958.0055 900.8783 857.9055C900.8783 758.7855 844.7283 712.4055 795.4083 672.8555C769.5283 652.8355 746.5783 634.7655 733.3983 612.3055C720.6983 591.3055 710.4483 567.8755 700.1983 544.4355C668.4583 470.7055 634.2783 394.5355 527.3483 394.5355C419.9183 394.5355 386.2283 470.7055 354.4883 543.9455C343.7483 567.8755 333.9883 590.8155 321.7783 611.3255C308.1083 633.7855 284.6683 652.8355 259.2783 672.8555C209.9583 712.4055 153.8083 759.2755 153.8083 857.9055C153.8083 958.0055 233.8883 1034.1755 338.8683 1034.1755ZM338.8683 963.3755C272.4583 963.3755 224.6083 919.4355 224.6083 857.9055C224.6083 743.6555 318.8483 753.4155 378.9083 650.8755C423.3383 575.6855 438.4783 465.3355 527.3483 465.3355C616.2083 465.3355 630.8583 575.6855 675.7783 651.8555C735.8383 753.4155 830.0783 743.6555 830.0783 857.9055C830.0783 919.4355 782.2283 963.3755 715.3283 963.3755C647.4583 963.3755 603.0283 915.5255 527.3483 915.5255C451.6583 915.5255 407.2283 963.3755 338.8683 963.3755Z"/>
</svg>