<?xml version="1.0" encoding="UTF-8" standalone="no"?>
<svg xmlns="http://www.w3.org/2000/svg"
     width="996.09375" height="996.09375"
     viewBox="0 0 996.09375 996.09375"
     fill="currentColor">
  <path d="M498.0477 996.0959C770.5077 996.0959 996.0977 770.0159 996.0977 498.0459C996.0977 225.5859 770.0177 -0.0041 497.5577 -0.0041C225.5877 -0.0041 -0.0023 225.5859 -0.0023 498.0459C-0.0023 770.0159 226.0777 996.0959 498.0477 996.0959ZM498.0477 913.0859C267.5777 913.0859 83.4977 728.5159 83.4977 498.0459C83.4977 267.5759 267.0877 83.0059 497.5577 83.0059C728.0277 83.0059 913.0877 267.5759 913.0877 498.0459C913.0877 728.5159 728.5177 913.0859 498.0477 913.0859ZM357.4177 317.3859C357.4177 366.2059 383.7877 404.2959 416.9877 404.2959C450.6877 404.2959 476.5577 366.2059 476.5577 317.3859C476.5577 269.0459 450.6877 231.4459 416.9877 231.4459C383.7877 231.4459 357.4177 268.5559 357.4177 317.3859ZM519.0477 317.3859C519.0477 366.2059 544.9177 404.2959 578.1277 404.2959C611.8177 404.2959 638.1877 366.2059 638.1877 317.3859C638.1877 268.5559 611.8177 231.4459 578.1277 231.4459C544.9177 231.4459 519.0477 269.0459 519.0477 317.3859ZM237.3077 460.4459C237.3077 509.2759 263.1877 546.8759 296.8777 546.8759C330.0777 546.8759 356.4477 509.2759 356.4477 460.4459C356.4477 411.6259 330.0777 373.5359 296.8777 373.5359C263.1877 373.5359 237.3077 411.6259 237.3077 460.4459ZM639.1577 460.4459C639.1577 509.2759 665.5277 546.8759 698.7277 546.8759C731.9377 546.8759 757.8077 509.2759 757.8077 460.4459C757.8077 411.6259 731.9377 373.5359 698.7277 373.5359C665.5277 373.5359 639.1577 411.6259 639.1577 460.4459ZM312.0077 651.3659C312.0077 701.6559 345.2177 736.8159 395.0177 736.8159C419.4377 736.8159 437.0077 730.4659 454.0977 724.1259C468.2577 719.2359 481.4477 715.3359 497.5577 715.3359C513.6677 715.3359 527.3477 719.2359 541.0177 724.1259C558.5977 730.4659 576.1677 736.8159 600.0977 736.8159C649.8977 736.8159 683.5977 701.6559 683.5977 651.3659C683.5977 609.3759 658.2077 587.4059 633.7877 567.3859C620.6077 556.6359 607.4177 546.3859 597.6577 532.2259C590.3277 521.4859 584.4777 508.7859 579.0977 497.5559C561.5277 459.4759 547.8477 424.3159 497.5577 424.3159C447.7577 424.3159 433.5977 459.9559 416.5077 497.5559C410.6477 508.7859 404.7877 520.9959 397.9477 531.7359C388.1877 546.3859 374.9977 556.6359 361.8177 567.3859C337.3977 587.4059 312.0077 609.3759 312.0077 651.3659Z"/>
</svg>