<?xml version="1.0" encoding="UTF-8" standalone="no"?>
<svg xmlns="http://www.w3.org/2000/svg"
     width="996.09375" height="996.09375"
     viewBox="0 0 996.09375 996.09375"
     fill="currentColor">
  <path d="M498.0477 996.0959C770.5077 996.0959 996.0977 770.0159 996.0977 498.0459C996.0977 225.5859 770.0177 -0.0041 497.5577 -0.0041C225.5877 -0.0041 -0.0023 225.5859 -0.0023 498.0459C-0.0023 770.0159 226.0777 996.0959 498.0477 996.0959ZM83.4977 498.0459C83.4977 280.7659 247.0677 104.0059 458.9877 84.4759V472.1659L163.5777 744.6259C113.2777 675.7859 83.4977 590.3359 83.4977 498.0459ZM537.5977 473.6359V84.9559C749.0277 104.9759 913.0877 281.2459 913.0877 498.0459C913.0877 590.8159 883.2977 676.2659 832.0277 745.1159ZM458.9877 582.5159V911.1359C365.7277 902.8359 281.2477 863.2859 216.3077 803.7059ZM537.5977 583.9859L779.2977 804.1959C714.3577 863.2859 630.8577 902.3459 537.5977 911.1359Z"/>
</svg>