<?xml version="1.0" encoding="UTF-8" standalone="no"?>
<svg xmlns="http://www.w3.org/2000/svg"
     width="1172.36328125" height="1036.1328125"
     viewBox="0 0 1172.36328125 1036.1328125"
     fill="currentColor">
  <path d="M39.5483 1036.1355C61.0383 1036.1355 78.6183 1018.5555 78.6183 997.0655V39.0655C78.6183 17.5755 61.0383 -0.0045 39.5483 -0.0045C17.5783 -0.0045 -0.0017 17.5755 -0.0017 39.0655V997.0655C-0.0017 1018.5555 17.5783 1036.1355 39.5483 1036.1355ZM170.8983 959.9655H1001.4683C1022.9483 959.9655 1036.6183 946.2855 1036.6183 925.7855V897.4655H1093.7483V997.0655C1093.7483 1018.5555 1111.3283 1036.1355 1133.2983 1036.1355C1154.7883 1036.1355 1172.3683 1018.5555 1172.3683 997.0655V39.0655C1172.3683 17.5755 1154.7883 -0.0045 1133.2983 -0.0045C1111.3283 -0.0045 1093.7483 17.5755 1093.7483 39.0655V140.1355H1036.6183V112.3055C1036.6183 91.7955 1022.9483 77.6355 1001.4683 77.6355H170.8983C149.4183 77.6355 135.7383 91.7955 135.7383 112.3055V232.4255C135.7383 252.9255 149.4183 266.6055 170.8983 266.6055H1001.4683C1022.9483 266.6055 1036.6183 252.9255 1036.6183 232.4255V204.1055H1093.7483V371.5855H1036.6183V343.2655C1036.6183 322.7555 1022.9483 309.0855 1001.4683 309.0855H170.8983C149.4183 309.0855 135.7383 322.7555 135.7383 343.2655V463.3755C135.7383 483.8855 149.4183 498.0455 170.8983 498.0455H1001.4683C1022.9483 498.0455 1036.6183 483.8855 1036.6183 463.3755V435.5455H1093.7483V602.5355H1036.6183V574.2155C1036.6183 553.7155 1022.9483 540.0355 1001.4683 540.0355H170.8983C149.4183 540.0355 135.7383 553.7155 135.7383 574.2155V694.3355C135.7383 715.3355 149.4183 729.0055 170.8983 729.0055H1001.4683C1022.9483 729.0055 1036.6183 715.3355 1036.6183 694.3355V666.5055H1093.7483V833.4955H1036.6183V805.6655C1036.6183 785.1555 1022.9483 770.9955 1001.4683 770.9955H170.8983C149.4183 770.9955 135.7383 785.1555 135.7383 805.6655V925.7855C135.7383 946.2855 149.4183 959.9655 170.8983 959.9655Z"/>
</svg>