<?xml version="1.0" encoding="UTF-8" standalone="no"?>
<svg xmlns="http://www.w3.org/2000/svg"
     width="844.7265625" height="1091.796875"
     viewBox="0 0 844.7265625 1091.796875"
     fill="currentColor">
  <path d="M-0.0017 124.9955H122.5583V55.1755C122.5583 20.0155 104.4883 -0.0045 72.7583 -0.0045H48.8283C17.5783 -0.0045 -0.0017 20.9955 -0.0017 55.1755ZM482.9083 1091.7955H725.0983C795.8983 1091.7955 844.7283 1042.9655 844.7283 971.6755V127.4455C844.7283 56.1555 795.8983 6.8355 725.0983 6.8355H482.9083C412.1083 6.8355 363.7683 56.1555 363.7683 127.9255V971.6755C363.7683 1042.9655 412.1083 1091.7955 482.9083 1091.7955ZM770.9983 139.6455H565.4283C555.1783 139.6455 546.8783 131.8355 546.8783 121.0955C546.8783 111.3255 554.6883 103.5155 564.9383 103.5155H770.9983ZM-0.0017 971.1955L44.4383 1080.5655C49.3183 1091.7955 67.3783 1092.7755 72.7583 1081.0555L122.5583 971.1955V182.1255H-0.0017ZM770.9983 225.0955H642.5783C632.3283 225.0955 624.9983 217.7755 624.9983 207.0355C624.9983 196.7755 631.8383 188.9655 642.0883 188.9655H770.9983ZM770.9983 311.0355H642.5783C632.3283 311.0355 624.9983 303.7155 624.9983 292.9655C624.9983 282.7155 631.8383 274.9055 642.0883 274.9055H770.9983ZM770.9983 396.4855H642.5783C632.3283 396.4855 624.9983 389.6455 624.9983 378.4155C624.9983 368.1655 631.8383 359.8655 642.0883 359.8655H770.9983ZM770.9983 481.9355H642.5783C632.3283 481.9355 624.9983 475.0955 624.9983 464.3555C624.9983 454.5855 631.8383 445.8055 642.0883 445.8055H770.9983ZM770.9983 567.8755H565.4283C555.1783 567.8755 546.8783 560.5455 546.8783 549.8055C546.8783 540.0355 554.6883 531.2455 564.9383 531.2455H770.9983ZM770.9983 653.8055H642.5783C632.3283 653.8055 624.9983 646.4855 624.9983 635.7455C624.9983 625.4855 631.8383 617.1855 642.0883 617.1855H770.9983ZM770.9983 739.7455H642.5783C632.3283 739.7455 624.9983 731.9355 624.9983 721.1955C624.9983 711.4255 631.8383 703.6155 642.0883 703.6155H770.9983ZM770.9983 824.7055H642.5783C632.3283 824.7055 624.9983 817.3855 624.9983 806.6455C624.9983 796.3855 631.8383 788.5755 642.0883 788.5755H770.9983ZM770.9983 910.6455H642.5783C632.3283 910.6455 624.9983 903.3155 624.9983 892.0855C624.9983 882.3255 631.8383 874.5155 642.0883 874.5155H770.9983ZM770.9983 995.6055H565.4283C555.1783 995.6055 546.8783 988.7655 546.8783 978.0255C546.8783 967.7755 554.6883 959.4755 564.9383 959.4755H770.9983Z"/>
</svg>