<?xml version="1.0" encoding="UTF-8" standalone="no"?>
<svg xmlns="http://www.w3.org/2000/svg"
     width="996.09375" height="996.09375"
     viewBox="0 0 996.09375 996.09375"
     fill="currentColor">
  <path d="M498.0477 996.0977C770.5077 996.0977 996.0977 770.5077 996.0977 498.0477C996.0977 226.0777 770.0177 -0.0023 497.5577 -0.0023C225.5877 -0.0023 -0.0023 226.0777 -0.0023 498.0477C-0.0023 770.5077 226.0777 996.0977 498.0477 996.0977ZM697.2677 357.4177L637.2077 297.8477L674.3177 260.7377C690.9177 245.1177 709.4777 243.1677 724.6077 258.2977L735.8377 270.0177C751.4677 285.1577 750.4877 304.1977 733.8877 320.7977ZM336.9177 716.3077L267.0877 742.6777C256.3477 746.5777 244.1377 735.8377 249.5077 723.1477L277.8277 656.7377L606.9377 327.6377L666.9877 387.6977Z"/>
</svg>