<?xml version="1.0" encoding="UTF-8" standalone="no"?>
<svg xmlns="http://www.w3.org/2000/svg"
     width="1006.6267029589587" height="1032.204781195127"
     viewBox="0 0 1006.6267029589587 1032.204781195127"
     fill="currentColor">
  <path d="M188.9784 847.7661C324.2284 983.0161 500.0084 1023.5461 586.4384 1031.8461C611.8284 1034.7761 625.9884 1019.1561 627.9384 1003.0361C629.8984 985.9461 619.1484 967.3961 594.7384 963.9761C516.6084 953.2361 355.4784 918.0761 237.8084 799.4261C46.3984 607.5361 10.2684 317.4961 166.5184 161.2461C293.4684 34.7761 504.8984 50.8961 660.6584 134.8761L711.4384 85.5561C521.9884 -28.2139 267.0984 -37.4839 117.6884 112.4161C-60.0516 290.6361 -36.6116 622.1761 188.9784 847.7661ZM904.7984 155.8761L943.8584 116.8061C962.4084 98.2561 963.3884 70.9061 944.3484 53.3361L931.6484 41.6161C915.0484 25.9861 888.6784 25.9861 871.1084 43.5661L832.5284 83.1161ZM430.6784 629.0161L869.1484 191.0261L796.3984 118.7661L358.4084 556.2661L318.3684 649.5261C313.9784 659.7761 324.2284 670.5161 334.9684 666.6161ZM366.7084 701.7661C526.3784 861.4361 783.2184 924.4261 926.7684 781.3561C1043.9584 663.6861 1028.8184 454.6961 903.3284 275.0161L853.5284 324.8161C953.1384 472.2761 972.6684 637.8061 877.9384 732.5361C762.7084 847.7661 572.2784 793.0761 441.4184 669.5461Z"/>
</svg>