<?xml version="1.0" encoding="UTF-8" standalone="no"?>
<svg xmlns="http://www.w3.org/2000/svg"
     width="1057.3706736654544" height="1032.5927734375"
     viewBox="0 0 1057.3706736654544 1032.5927734375"
     fill="currentColor">
  <path d="M9.3412 479.3709L153.3812 927.1209C175.3512 996.9509 223.6912 1032.5909 297.9112 1032.5909H759.8212C834.0412 1032.5909 882.3812 996.9509 904.3512 927.1209L1047.4212 481.3209C1070.8612 409.0609 1052.7912 351.9309 994.2012 308.9609L620.1712 34.0609C559.1412 -11.3491 498.5912 -11.3491 437.5612 34.0609L63.5312 308.9609C4.9412 351.9309 -13.1288 408.5709 9.3412 479.3709ZM115.2912 554.0809H942.4412L830.6212 903.2009C818.9112 940.3109 799.3712 953.9809 759.8212 953.9809H297.9112C258.3612 953.9809 238.8312 940.3109 227.1112 903.2009Z"/>
</svg>