<?xml version="1.0" encoding="UTF-8" standalone="no"?>
<svg xmlns="http://www.w3.org/2000/svg"
     width="1057.1575615859838" height="1032.5927734375"
     viewBox="0 0 1057.1575615859838 1032.5927734375"
     fill="currentColor">
  <path d="M9.3388 479.3709L153.3788 927.1209C175.3488 996.9509 223.6888 1032.5909 297.9088 1032.5909H759.8288C834.0388 1032.5909 882.3788 996.9509 904.3588 927.1209L1047.4188 481.3209C1070.3688 409.0609 1052.7888 351.9309 994.1988 308.9609L620.1788 34.0609C558.6488 -11.3491 499.0788 -11.3491 437.5588 34.0609L63.5388 308.9609C4.9388 351.9309 -13.1212 408.5709 9.3388 479.3709ZM83.5588 455.4409C71.3488 418.3309 79.1588 395.8709 110.8988 371.9509L484.4388 96.5609C517.1488 72.6309 540.5888 72.6309 572.8088 96.5609L946.3488 371.9509C978.5788 395.8709 985.8988 418.8209 973.6888 456.9109L830.6288 903.2009C818.4188 940.3109 799.3788 953.9809 759.8288 953.9809H297.9088C258.3588 953.9809 239.3188 940.3109 227.1088 903.2009Z"/>
</svg>