<?xml version="1.0" encoding="UTF-8" standalone="no"?>
<svg xmlns="http://www.w3.org/2000/svg"
     width="892.08984375" height="933.1114149458906"
     viewBox="0 0 892.08984375 933.1114149458906"
     fill="currentColor">
  <path d="M133.7883 927.0074C151.8583 937.2574 178.2183 935.7974 193.8483 913.3374L767.5783 65.1874C784.6683 40.7774 774.4183 15.8774 756.3483 5.1374C739.2583 -4.1426 715.3283 -2.1926 698.2383 22.2174L124.5083 867.9274C106.9383 892.8274 115.7183 916.2674 133.7883 927.0074ZM168.9483 455.3274C273.9283 455.3274 337.3983 368.8974 337.3983 231.2074C337.3983 93.5074 273.4383 8.5474 168.9483 8.5474C63.9683 8.5474 -0.0017 93.9974 -0.0017 231.2074C-0.0017 369.3874 63.4783 455.3274 168.9483 455.3274ZM168.9483 386.9674C112.3083 386.9674 78.6183 329.8374 78.6183 231.2074C78.6183 134.0374 112.7883 76.4174 168.9483 76.4174C225.0983 76.4174 258.7883 133.5474 258.7883 231.2074C258.7883 329.8374 225.5883 386.9674 168.9483 386.9674ZM723.6283 925.0574C828.6183 925.0574 892.0883 838.6274 892.0883 701.4174C892.0883 563.2374 828.1283 478.2774 723.6283 478.2774C618.6483 478.2774 554.6883 563.7274 554.6883 701.4174C554.6883 839.1174 618.1683 925.0574 723.6283 925.0574ZM723.6283 857.1874C666.9883 857.1874 633.2983 799.5674 633.2983 701.4174C633.2983 603.7674 667.4783 546.6374 723.6283 546.6374C779.7883 546.6374 813.4783 603.2774 813.4783 701.4174C813.4783 799.5674 780.2783 857.1874 723.6283 857.1874Z"/>
</svg>