<?xml version="1.0" encoding="UTF-8" standalone="no"?>
<svg xmlns="http://www.w3.org/2000/svg"
     width="898.92578125" height="898.92578125"
     viewBox="0 0 898.92578125 898.92578125"
     fill="currentColor">
  <path d="M153.3183 898.9295H745.6083C848.1483 898.9295 898.9283 848.1495 898.9283 747.5595V151.3695C898.9283 50.7795 848.1483 -0.0005 745.6083 -0.0005H153.3183C51.2683 -0.0005 -0.0017 50.2895 -0.0017 151.3695V747.5595C-0.0017 848.6295 51.2683 898.9295 153.3183 898.9295ZM449.7083 530.7595C356.4483 529.7895 283.1983 452.1495 282.7183 347.6595C282.2283 249.5095 356.4483 168.4595 449.7083 168.4595C542.9683 168.4595 616.6983 249.5095 616.6983 347.6595C616.6983 452.1495 542.9683 531.7395 449.7083 530.7595ZM120.6083 825.6795C158.1983 701.6595 290.0383 612.3095 450.1983 612.3095C609.8683 612.3095 741.6983 701.6595 779.2983 825.6795Z"/>
</svg>