<?xml version="1.0" encoding="UTF-8" standalone="no"?>
<svg xmlns="http://www.w3.org/2000/svg"
     width="1227.5390625" height="848.6328125"
     viewBox="0 0 1227.5390625 848.6328125"
     fill="currentColor">
  <path d="M964.8477 848.6363C1112.3077 848.6363 1227.5377 740.7262 1227.5377 606.4463C1227.5377 503.9063 1168.4577 415.0363 1073.2377 374.9962C1074.2177 157.2263 917.4777 -0.0037 717.7777 -0.0037C585.4477 -0.0037 491.2077 70.7962 432.6177 156.2463C312.4977 121.0963 181.6377 212.4063 179.1977 349.1163C68.8477 366.6963 -0.0023 465.3363 -0.0023 584.4762C-0.0023 728.0263 125.4877 848.6363 292.4777 848.6363ZM964.8477 770.0163H922.3677C888.1877 692.3863 796.3877 603.0263 647.9477 603.0263C499.9977 603.0263 407.7177 691.8963 373.5377 770.0163H292.4777C169.4377 770.0163 78.6177 684.0863 78.6177 584.4762C78.6177 486.8163 137.6977 409.1763 241.2077 409.1763C248.0477 409.1763 250.4877 405.7663 250.4877 399.4163C250.4877 249.0263 358.8877 204.5862 458.9877 237.3063C464.8477 239.2563 468.2577 237.7963 471.1877 232.4263C518.5577 147.9462 591.3077 78.6163 717.7777 78.6163C877.9277 78.6163 988.7677 205.5662 997.0677 350.5863C998.5377 373.0463 997.0677 399.4163 995.1177 422.3663C994.6277 428.7063 997.0677 432.1263 1002.9277 433.5963C1091.7977 453.1263 1148.9277 518.0663 1148.9277 606.4463C1148.9277 697.2663 1068.8477 770.0163 964.8477 770.0163ZM647.9477 542.4762C721.1877 542.9662 780.7577 475.5863 780.7577 396.9763C780.7577 319.3363 721.1877 255.3663 647.9477 255.3663C574.2177 255.3663 515.1377 319.3363 515.1377 396.9763C515.6277 475.5863 574.2177 541.9962 647.9477 542.4762Z"/>
</svg>