<?xml version="1.0" encoding="UTF-8" standalone="no"?>
<svg xmlns="http://www.w3.org/2000/svg"
     width="996.09375" height="996.09375"
     viewBox="0 0 996.09375 996.09375"
     fill="currentColor">
  <path d="M498.0477 996.0959C770.5077 996.0959 996.0977 770.0159 996.0977 498.0459C996.0977 225.5859 770.0177 -0.0041 497.5577 -0.0041C225.5877 -0.0041 -0.0023 225.5859 -0.0023 498.0459C-0.0023 770.0159 226.0777 996.0959 498.0477 996.0959ZM498.0477 913.0859C267.5777 913.0859 83.4977 728.5159 83.4977 498.0459C83.4977 267.5759 267.0877 83.0059 497.5577 83.0059C728.0277 83.0059 913.0877 267.5759 913.0877 498.0459C913.0877 728.5159 728.5177 913.0859 498.0477 913.0859ZM169.9177 448.2459C169.9177 528.8059 227.0477 585.9359 307.1277 585.9359H323.7277C320.7977 572.7559 319.3377 548.8259 321.2877 533.2059H310.5477C260.2577 533.2059 225.5877 499.0259 225.5877 448.2459C225.5877 397.9459 260.2577 362.7959 310.5477 362.7959H506.8377C557.1277 362.7959 591.7977 397.9459 591.7977 448.2459C591.7977 499.0259 557.6177 533.2059 506.8377 533.2059H433.5977C428.2277 547.8559 430.1777 571.7759 444.8277 585.9359H509.7677C589.8477 585.9359 646.9777 528.8059 646.9777 448.2459C646.9777 367.6759 589.8477 310.0559 509.7677 310.0559H307.1277C227.0477 310.0559 169.9177 367.6759 169.9177 448.2459ZM348.1477 551.7559C348.1477 632.3259 405.2777 689.9459 485.8377 689.9459H687.9877C768.0677 689.9459 825.6877 632.3259 825.6877 551.7559C825.6877 471.1959 768.5577 414.0659 687.9877 414.0659H671.3877C673.8277 428.2259 676.7577 443.8459 673.8277 466.7959H685.0577C735.3477 466.7959 770.0177 501.4659 770.0177 551.7559C770.0177 602.0459 735.3477 637.2059 685.0577 637.2059H488.2777C437.9877 637.2059 403.3177 602.0459 403.3177 551.7559C403.3177 501.4659 437.9877 466.7959 488.2777 466.7959H561.0377C567.3877 452.6359 565.4277 427.2459 550.2977 414.0659H485.8377C405.2777 414.0659 348.1477 471.1959 348.1477 551.7559Z"/>
</svg>