<?xml version="1.0" encoding="UTF-8" standalone="no"?>
<svg xmlns="http://www.w3.org/2000/svg"
     width="996.09375" height="996.09375"
     viewBox="0 0 996.09375 996.09375"
     fill="currentColor">
  <path d="M498.0477 996.0959C770.5077 996.0959 996.0977 770.0159 996.0977 498.0459C996.0977 225.5859 770.0177 -0.0041 497.5577 -0.0041C225.5877 -0.0041 -0.0023 225.5859 -0.0023 498.0459C-0.0023 770.0159 226.0777 996.0959 498.0477 996.0959ZM497.5577 581.5459C403.8077 580.5659 330.0777 502.4459 330.0777 397.4559C329.5877 298.8259 404.2977 216.7959 497.5577 216.7959C591.3077 216.7959 665.0377 298.8259 665.0377 397.4559C665.0377 502.4459 591.7977 582.5159 497.5577 581.5459ZM497.5577 921.8759C385.7377 921.8759 272.4577 875.9759 197.7577 796.3859C250.4877 713.3759 365.2377 664.5459 497.5577 664.5459C628.9077 664.5459 744.6277 712.4059 797.8477 796.3859C722.6577 875.9759 609.8677 921.8759 497.5577 921.8759Z"/>
</svg>