<?xml version="1.0" encoding="UTF-8" standalone="no"?>
<svg xmlns="http://www.w3.org/2000/svg"
     width="1106.4453125" height="1017.1122486797183"
     viewBox="0 0 1106.4453125 1017.1122486797183"
     fill="currentColor">
  <path d="M953.6183 677.7557C971.6783 689.9657 994.1383 685.5657 1007.3283 667.0157C1069.8283 581.0757 1106.4483 462.9157 1106.4483 342.3057C1106.4483 221.7057 1070.3083 102.5657 1007.3283 17.5957C994.1383 -0.9543 971.6783 -5.3443 953.6183 6.8557C935.5483 19.0657 932.6183 42.0157 946.7783 62.0357C1000.4883 137.2257 1030.7583 238.3057 1030.7583 342.3057C1030.7583 446.3157 999.5083 546.8957 946.7783 622.5857C933.1083 642.5957 935.5483 665.5457 953.6183 677.7557ZM772.9483 550.3157C789.0583 561.5457 812.0083 558.1257 825.1983 539.0857C862.7883 489.7657 885.2583 417.0157 885.2583 342.3057C885.2583 267.5957 862.7883 195.3357 825.1983 145.5257C812.0083 126.4857 789.0583 123.0657 772.9483 134.2957C752.9283 147.9757 749.9983 172.3857 765.1383 192.4057C793.4583 231.4657 809.5683 285.6657 809.5683 342.3057C809.5683 398.9457 792.9683 452.6557 765.1383 492.2057C750.4883 512.7157 752.9283 536.1557 772.9483 550.3157ZM411.1283 564.9657C516.1183 564.9657 606.4483 471.2157 606.4483 349.1457C606.4483 228.5357 515.6283 139.1857 411.1283 139.1857C306.6383 139.1857 215.8183 230.4957 215.8183 350.1157C215.8183 471.2157 306.6383 564.9657 411.1283 564.9657ZM104.4883 1017.1157H717.7783C794.4383 1017.1157 821.7783 995.1357 821.7783 952.1757C821.7783 826.1957 664.0583 652.3657 411.1283 652.3657C157.7183 652.3657 -0.0017 826.1957 -0.0017 952.1757C-0.0017 995.1357 27.3483 1017.1157 104.4883 1017.1157Z"/>
</svg>