<?xml version="1.0" encoding="UTF-8" standalone="no"?>
<svg xmlns="http://www.w3.org/2000/svg"
     width="1331.0546875" height="877.9296875"
     viewBox="0 0 1331.0546875 877.9296875"
     fill="currentColor">
  <path d="M920.4083 425.7831C1024.8983 425.7831 1115.2383 332.0331 1115.2383 209.9631C1115.2383 89.3531 1024.4183 0.0031 920.4083 0.0031C815.9183 0.0031 724.6083 91.3131 725.0983 210.9331C725.0983 332.0331 815.4283 425.7831 920.4083 425.7831ZM357.9083 437.0131C449.2183 437.0131 527.8283 354.9831 527.8283 249.0231C527.8283 144.0431 448.7283 66.4031 357.9083 66.4031C267.5783 66.4031 187.4983 145.9931 187.9883 250.0031C187.9883 354.9831 267.0883 437.0131 357.9083 437.0131ZM85.9383 877.9331H456.5383C405.7583 804.2031 467.7783 655.7631 573.2383 574.7031C518.5583 538.5731 448.7283 511.7231 357.9083 511.7231C137.6983 511.7231 -0.0017 674.3131 -0.0017 809.5731C-0.0017 853.5131 23.9283 877.9331 85.9383 877.9331ZM613.2783 877.9331H1226.5583C1303.7083 877.9331 1331.0583 855.9531 1331.0583 812.9931C1331.0583 687.0131 1173.3383 513.1831 919.9183 513.1831C666.9883 513.1831 509.2783 687.0131 509.2783 812.9931C509.2783 855.9531 536.6183 877.9331 613.2783 877.9331Z"/>
</svg>