<?xml version="1.0" encoding="UTF-8" standalone="no"?>
<svg xmlns="http://www.w3.org/2000/svg"
     width="898.92578125" height="898.92578125"
     viewBox="0 0 898.92578125 898.92578125"
     fill="currentColor">
  <path d="M153.3183 898.9295H745.6083C848.1483 898.9295 898.9283 848.1495 898.9283 747.5595V151.3695C898.9283 50.7795 848.1483 -0.0005 745.6083 -0.0005H153.3183C51.2683 -0.0005 -0.0017 50.2895 -0.0017 151.3695V747.5595C-0.0017 848.6295 51.2683 898.9295 153.3183 898.9295ZM78.6183 743.6495V155.2695C78.6183 104.4895 105.4683 78.6095 154.2983 78.6095H744.6283C792.9683 78.6095 820.3083 104.4895 820.3083 155.2695V743.6495C820.3083 781.7395 804.6883 805.6595 776.3683 815.4295C734.3783 695.7995 605.4683 612.3095 450.1983 612.3095C294.4383 612.3095 165.5283 696.2895 123.0483 815.9195C94.2383 806.1495 78.6183 782.2295 78.6183 743.6495ZM449.7083 530.7595C542.9683 531.7395 616.6983 452.1495 616.6983 347.6595C616.6983 249.5095 542.9683 168.4595 449.7083 168.4595C356.4483 168.4595 282.2283 249.5095 282.7183 347.6595C283.1983 452.1495 356.4483 529.7895 449.7083 530.7595Z"/>
</svg>