<?xml version="1.0" encoding="UTF-8" standalone="no"?>
<svg xmlns="http://www.w3.org/2000/svg"
     width="1121.58203125" height="1030.2958424297183"
     viewBox="0 0 1121.58203125 1030.2958424297183"
     fill="currentColor">
  <path d="M968.7483 677.7557C986.8183 689.9657 1009.2783 685.5657 1022.4583 667.0157C1084.9583 581.0757 1121.5783 462.9157 1121.5783 342.3057C1121.5783 221.7057 1085.4483 102.5657 1022.4583 17.5957C1009.2783 -0.9543 986.8183 -5.3443 968.7483 6.8557C951.1683 19.0657 947.7583 42.0157 962.3983 62.0357C1015.6283 137.2257 1045.8983 238.3057 1045.8983 342.3057C1045.8983 446.3157 1014.6483 546.8957 962.3983 622.5857C948.2383 642.5957 951.1683 665.5457 968.7483 677.7557ZM426.7583 571.7957C542.9683 571.7957 637.6983 468.2857 637.6983 342.3057C637.6983 217.7957 543.9483 119.1657 426.7583 119.1657C311.0383 119.1657 215.8183 219.2557 215.8183 343.2857C216.3083 468.7757 311.0383 571.7957 426.7583 571.7957ZM788.0883 550.3157C804.1983 561.5457 827.6383 558.1257 840.3283 539.0857C877.9283 489.7657 900.3883 417.0157 900.3883 342.3057C900.3883 267.5957 877.9283 195.3357 840.3283 145.5257C827.6383 126.4857 804.1983 123.0657 788.0883 134.2957C768.0683 147.9757 765.1383 172.3857 780.2783 192.4057C809.0783 231.4657 824.7083 285.6657 824.7083 342.3057C824.7083 398.9457 808.5983 452.6557 780.2783 492.2057C765.6283 512.7157 768.0683 536.1557 788.0883 550.3157ZM426.7583 498.0657C355.4683 498.0657 294.4383 429.7057 294.4383 343.2857C294.4383 258.3257 354.4883 192.8957 426.7583 192.8957C499.9983 192.8957 559.0783 257.3457 559.0783 342.3057C559.0783 428.7357 499.0283 498.0657 426.7583 498.0657ZM120.1183 1030.2957H733.3983C814.4483 1030.2957 853.0283 1005.8857 853.0283 952.1757C853.0283 824.2457 691.8983 639.1857 426.7583 639.1857C161.6183 639.1857 -0.0017 824.2457 -0.0017 952.1757C-0.0017 1005.8857 38.5783 1030.2957 120.1183 1030.2957ZM96.6783 956.5657C83.9883 956.5657 78.6183 953.1457 78.6183 942.8957C78.6183 862.8157 202.6383 712.9157 426.7583 712.9157C650.8783 712.9157 774.4183 862.8157 774.4183 942.8957C774.4183 953.1457 769.5283 956.5657 756.8383 956.5657Z"/>
</svg>