<?xml version="1.0" encoding="UTF-8" standalone="no"?>
<svg xmlns="http://www.w3.org/2000/svg"
     width="1158.203125" height="917.96875"
     viewBox="0 0 1158.203125 917.96875"
     fill="currentColor">
  <path d="M501.9483 79.5931C523.4383 79.5931 541.5083 61.5231 541.5083 40.0431C541.5083 18.0631 523.4383 0.0031 501.9483 0.0031C479.9783 0.0031 461.9183 18.0631 461.9183 40.0431C461.9183 61.5231 479.9783 79.5931 501.9483 79.5931ZM655.7583 79.5931C677.2483 79.5931 695.3083 61.5231 695.3083 40.0431C695.3083 18.0631 677.2483 0.0031 655.7583 0.0031C633.7883 0.0031 615.7183 18.0631 615.7183 40.0431C615.7183 61.5231 633.7883 79.5931 655.7583 79.5931ZM40.0383 67.3831C54.6883 67.3831 67.3783 54.6831 67.3783 40.0431C67.3783 24.9031 54.6883 12.6931 40.0383 12.6931C24.8983 12.6931 12.6983 24.9031 12.6983 40.0431C12.6983 54.6831 24.8983 67.3831 40.0383 67.3831ZM193.8483 67.3831C208.9883 67.3831 221.1883 54.6831 221.1883 40.0431C221.1883 24.9031 208.9883 12.6931 193.8483 12.6931C178.7083 12.6931 166.5083 24.9031 166.5083 40.0431C166.5083 54.6831 178.7083 67.3831 193.8483 67.3831ZM347.6583 67.3831C362.7883 67.3831 374.9983 54.6831 374.9983 40.0431C374.9983 24.9031 362.7883 12.6931 347.6583 12.6931C333.0083 12.6931 320.3083 24.9031 320.3083 40.0431C320.3083 54.6831 333.0083 67.3831 347.6583 67.3831ZM810.0583 67.3831C825.1983 67.3831 837.3983 54.6831 837.3983 40.0431C837.3983 24.9031 825.1983 12.6931 810.0583 12.6931C795.4083 12.6931 782.7183 24.9031 782.7183 40.0431C782.7183 54.6831 795.4083 67.3831 810.0583 67.3831ZM964.3583 67.3831C979.0083 67.3831 991.6983 54.6831 991.6983 40.0431C991.6983 24.9031 979.0083 12.6931 964.3583 12.6931C949.2183 12.6931 936.5283 24.9031 936.5283 40.0431C936.5283 54.6831 949.2183 67.3831 964.3583 67.3831ZM1118.1683 67.3831C1132.8083 67.3831 1145.5083 54.6831 1145.5083 40.0431C1145.5083 24.9031 1132.8083 12.6931 1118.1683 12.6931C1103.0283 12.6931 1090.8183 24.9031 1090.8183 40.0431C1090.8183 54.6831 1103.0283 67.3831 1118.1683 67.3831ZM193.8483 248.0431C215.8183 248.0431 233.8883 229.9831 233.8883 208.0031C233.8883 186.5231 215.8183 168.4531 193.8483 168.4531C171.8783 168.4531 153.8083 186.5231 153.8083 208.0031C153.8083 229.9831 171.8783 248.0431 193.8483 248.0431ZM347.6583 248.0431C354.0083 248.0431 360.3483 246.0931 365.7183 243.6531C372.0683 231.4431 379.3983 219.2431 387.6983 208.0031C387.6983 186.5231 369.6283 168.4531 347.6583 168.4531C326.1683 168.4531 308.1083 186.5231 308.1083 208.0031C308.1083 229.9831 326.1683 248.0431 347.6583 248.0431ZM810.0583 248.0431C832.0283 248.0431 850.0983 229.9831 850.0983 208.0031C850.0983 186.5231 832.0283 168.4531 810.0583 168.4531C789.5483 168.4531 772.9483 184.0831 770.5083 203.6131C780.2783 216.7931 789.0583 230.4731 796.3883 245.6031C800.7783 247.5631 805.1783 248.0431 810.0583 248.0431ZM964.3583 248.0431C985.8383 248.0431 1003.9083 229.9831 1003.9083 208.0031C1003.9083 186.5231 985.8383 168.4531 964.3583 168.4531C942.3783 168.4531 924.3183 186.5231 924.3183 208.0031C924.3183 229.9831 942.3783 248.0431 964.3583 248.0431ZM1118.1683 235.8431C1132.8083 235.8431 1145.5083 223.1431 1145.5083 208.0031C1145.5083 193.3631 1132.8083 180.6631 1118.1683 180.6631C1103.0283 180.6631 1090.8183 193.3631 1090.8183 208.0031C1090.8183 223.1431 1103.0283 235.8431 1118.1683 235.8431ZM40.0383 235.8431C54.6883 235.8431 67.3783 223.1431 67.3783 208.0031C67.3783 193.3631 54.6883 180.6631 40.0383 180.6631C24.8983 180.6631 12.6983 193.3631 12.6983 208.0031C12.6983 223.1431 24.8983 235.8431 40.0383 235.8431ZM580.0783 548.3431C669.4383 548.3431 748.5383 466.7931 748.5383 362.7931C748.5383 258.7931 669.4383 183.1031 580.0783 183.1031C491.2083 183.1031 412.1083 260.7431 412.1083 363.7731C412.1083 466.7931 491.2083 548.3431 580.0783 548.3431ZM193.8483 428.7131C222.6583 428.7131 246.0983 405.2731 246.0983 376.4631C246.0983 347.6531 222.6583 324.2231 193.8483 324.2231C165.0383 324.2231 141.5983 347.6531 141.5983 376.4631C141.5983 405.2731 165.0383 428.7131 193.8483 428.7131ZM964.3583 428.7131C992.6783 428.7131 1016.5983 405.2731 1016.5983 376.4631C1016.5983 347.6531 992.6783 324.2231 964.3583 324.2231C935.5483 324.2231 911.6183 347.6531 911.6183 376.4631C911.6183 405.2731 935.5483 428.7131 964.3583 428.7131ZM295.4083 376.4631C295.4083 404.2931 317.8683 427.7331 345.2183 428.7131C339.8483 408.2031 337.3983 386.2331 337.3983 363.7731C337.3983 350.0931 338.3783 337.4031 340.3283 324.7031C314.9383 328.6131 295.4083 350.0931 295.4083 376.4631ZM862.7883 376.4631C862.7883 351.5631 844.7283 330.5631 820.7983 325.1931C822.7583 337.4031 823.2383 349.6131 823.2383 362.7931C823.2383 385.7431 820.7983 407.7131 815.4283 428.7131C841.3083 425.7831 862.7883 403.3231 862.7883 376.4631ZM40.0383 416.5031C61.5283 416.5031 79.5883 398.4331 79.5883 376.4631C79.5883 354.4931 61.5283 336.4231 40.0383 336.4231C18.0683 336.4231 -0.0017 354.4931 -0.0017 376.4631C-0.0017 398.4331 18.0683 416.5031 40.0383 416.5031ZM1118.1683 416.5031C1140.1383 416.5031 1158.1983 398.4331 1158.1983 376.4631C1158.1983 354.4931 1140.1383 336.4231 1118.1683 336.4231C1096.1883 336.4231 1078.1283 354.4931 1078.1283 376.4631C1078.1283 398.4331 1096.1883 416.5031 1118.1683 416.5031ZM193.8483 597.1631C222.6583 597.1631 246.0983 573.2431 246.0983 544.9231C246.0983 516.1131 222.6583 492.1831 193.8483 492.1831C165.0383 492.1831 141.5983 516.1131 141.5983 544.9231C141.5983 573.2431 165.0383 597.1631 193.8483 597.1631ZM325.1983 592.2831C347.6583 577.6331 372.5583 565.9131 398.9283 555.1731C405.2783 522.9531 380.8583 492.1831 347.6583 492.1831C319.3383 492.1831 295.4083 516.1131 295.4083 544.9231C295.4083 565.4331 308.1083 583.4931 325.1983 592.2831ZM834.4683 590.8231C850.5883 582.0331 862.7883 564.4531 862.7883 544.9231C862.7883 516.1131 838.8683 492.1831 810.0583 492.1831C777.3483 492.1831 752.9283 522.4631 759.2783 554.6831C786.1283 564.4531 811.0383 577.1531 834.4683 590.8231ZM964.3583 597.1631C992.6783 597.1631 1016.5983 573.2431 1016.5983 544.9231C1016.5983 516.1131 992.6783 492.1831 964.3583 492.1831C935.5483 492.1831 911.6183 516.1131 911.6183 544.9231C911.6183 573.2431 935.5483 597.1631 964.3583 597.1631ZM40.0383 584.4731C61.5283 584.4731 79.5883 566.4031 79.5883 544.9231C79.5883 522.9531 61.5283 504.8831 40.0383 504.8831C18.0683 504.8831 -0.0017 522.9531 -0.0017 544.9231C-0.0017 566.4031 18.0683 584.4731 40.0383 584.4731ZM1118.1683 584.4731C1140.1383 584.4731 1158.1983 566.4031 1158.1983 544.9231C1158.1983 522.9531 1140.1383 504.8831 1118.1683 504.8831C1096.1883 504.8831 1078.1283 522.9531 1078.1283 544.9231C1078.1283 566.4031 1096.1883 584.4731 1118.1683 584.4731ZM330.0783 917.9731H830.0783C902.3483 917.9731 924.3183 897.4631 924.3183 861.3331C924.3183 755.8631 792.9683 610.3531 580.0783 610.3531C367.6783 610.3531 236.3283 755.8631 236.3283 861.3331C236.3283 897.4631 257.8083 917.9731 330.0783 917.9731ZM176.7583 748.5331C187.9883 726.0731 202.6383 703.6131 219.2383 682.6131C212.3983 676.7531 203.6183 673.3431 193.8483 673.3431C171.8783 673.3431 153.8083 691.4031 153.8083 712.8931C153.8083 728.5131 163.0883 742.1831 176.7583 748.5331ZM983.3983 748.0431C995.1183 741.2131 1003.9083 728.0231 1003.9083 712.8931C1003.9083 691.4031 985.8383 673.3431 964.3583 673.3431C954.5883 673.3431 946.7783 676.2731 939.9383 681.1531C957.5183 702.6331 971.6783 725.0931 983.3983 748.0431ZM40.0383 740.2331C54.6883 740.2331 67.3783 728.0231 67.3783 712.8931C67.3783 698.2431 54.6883 685.5431 40.0383 685.5431C24.8983 685.5431 12.6983 698.2431 12.6983 712.8931C12.6983 728.0231 24.8983 740.2331 40.0383 740.2331ZM1118.1683 740.2331C1132.8083 740.2331 1145.5083 728.0231 1145.5083 712.8931C1145.5083 698.2431 1132.8083 685.5431 1118.1683 685.5431C1103.0283 685.5431 1090.8183 698.2431 1090.8183 712.8931C1090.8183 728.0231 1103.0283 740.2331 1118.1683 740.2331ZM40.0383 908.6931C54.6883 908.6931 67.3783 896.4831 67.3783 881.3431C67.3783 866.2131 54.6883 854.0031 40.0383 854.0031C24.8983 854.0031 12.6983 866.2131 12.6983 881.3431C12.6983 896.4831 24.8983 908.6931 40.0383 908.6931ZM1118.1683 908.6931C1132.8083 908.6931 1145.5083 896.4831 1145.5083 881.3431C1145.5083 866.2131 1132.8083 854.0031 1118.1683 854.0031C1103.0283 854.0031 1090.8183 866.2131 1090.8183 881.3431C1090.8183 896.4831 1103.0283 908.6931 1118.1683 908.6931Z"/>
</svg>