<?xml version="1.0" encoding="UTF-8" standalone="no"?>
<svg xmlns="http://www.w3.org/2000/svg"
     width="1022.94921875" height="1081.0546875"
     viewBox="0 0 1022.94921875 1081.0546875"
     fill="currentColor">
  <path d="M203.6183 62.9847H819.8283C816.8983 21.4847 793.4583 0.0047 748.0483 0.0047H274.8983C229.9783 0.0047 206.5383 21.4847 203.6183 62.9847ZM103.0283 198.2447H920.4083C913.0883 153.8047 892.0883 129.3947 843.2583 129.3947H180.1783C131.3483 129.3947 110.3483 153.8047 103.0283 198.2447ZM153.3183 1081.0547H869.6283C971.1883 1081.0547 1022.9483 1030.2747 1022.9483 929.6847V428.2247C1022.9483 327.6347 971.1883 276.8547 869.6283 276.8547H153.3183C50.7783 276.8547 -0.0017 327.6347 -0.0017 428.2247V929.6847C-0.0017 1030.2747 50.7783 1081.0547 153.3183 1081.0547ZM154.2983 1002.4447C105.4683 1002.4447 78.6183 976.0747 78.6183 925.2947V432.6147C78.6183 381.8347 105.4683 355.4647 154.2983 355.4647H868.1683C916.5083 355.4647 944.3383 381.8347 944.3383 432.6147V925.2947C944.3383 976.0747 916.5083 1002.4447 868.1683 1002.4447H804.6883C763.1883 898.4347 648.9283 826.6647 511.7183 826.6647C374.5083 826.6647 259.7683 898.4347 218.7483 1002.4447ZM511.7183 752.4447C596.1883 753.4147 663.0883 681.6447 663.0883 586.9147C663.0883 497.5547 596.1883 424.3147 511.7183 424.3147C426.7583 424.3147 359.8683 497.5547 360.3483 586.9147C360.8383 681.6447 426.7583 751.4647 511.7183 752.4447Z"/>
</svg>