<?xml version="1.0" encoding="UTF-8" standalone="no"?>
<svg xmlns="http://www.w3.org/2000/svg"
     width="1840.8203125" height="877.9296875"
     viewBox="0 0 1840.8203125 877.9296875"
     fill="currentColor">
  <path d="M920.8983 425.7831C1025.8783 425.7831 1116.2083 332.0331 1116.2083 209.9631C1116.2083 89.3531 1025.3883 0.0031 920.8983 0.0031C816.8983 0.0031 725.5883 91.3131 726.0783 210.9331C726.0783 332.0331 816.4083 425.7831 920.8983 425.7831ZM357.9083 437.0131C449.2183 437.0131 527.8283 354.9831 527.8283 249.0231C527.8283 144.0431 448.7283 66.4031 357.9083 66.4031C267.5783 66.4031 187.4983 145.9931 187.9883 250.0031C187.9883 354.9831 267.0883 437.0131 357.9083 437.0131ZM1482.4183 437.0131C1573.7283 437.0131 1652.8283 354.9831 1652.8283 250.0031C1652.8283 145.9931 1573.2383 66.4031 1482.4183 66.4031C1392.0883 66.4031 1312.4983 144.0431 1312.4983 249.0231C1312.4983 354.9831 1391.5983 437.0131 1482.4183 437.0131ZM85.9383 877.9331H456.5383C405.7583 804.2031 467.7783 655.7631 573.2383 574.7031C518.5583 538.5731 448.7283 511.7231 357.9083 511.7231C137.6983 511.7231 -0.0017 674.3131 -0.0017 809.5731C-0.0017 853.5131 23.9283 877.9331 85.9383 877.9331ZM1754.8783 877.9331C1816.8983 877.9331 1840.8183 853.5131 1840.8183 809.5731C1840.8183 674.3131 1703.1283 511.7231 1482.9083 511.7231C1391.5983 511.7231 1321.7783 538.5731 1267.5783 574.7031C1372.5583 655.7631 1434.5683 804.2031 1383.7883 877.9331ZM614.2583 877.9331H1227.5383C1304.1983 877.9331 1331.5383 855.9531 1331.5383 812.9931C1331.5383 687.0131 1173.8283 513.1831 920.8983 513.1831C667.4783 513.1831 509.7683 687.0131 509.7683 812.9931C509.7683 855.9531 537.1083 877.9331 614.2583 877.9331Z"/>
</svg>