<?xml version="1.0" encoding="UTF-8" standalone="no"?>
<svg xmlns="http://www.w3.org/2000/svg"
     width="1282.5927734375" height="877.9296875"
     viewBox="0 0 1282.5927734375 877.9296875"
     fill="currentColor">
  <path d="M641.6006 425.7831C746.0906 425.7831 836.9106 332.0331 836.9106 209.9631C836.9106 89.3531 746.0906 0.0031 641.6006 0.0031C537.1106 0.0031 446.2906 91.3131 446.2906 210.9331C446.2906 332.0331 536.6206 425.7831 641.6006 425.7831ZM914.5506 209.9631C914.5506 231.4431 931.1506 248.0431 952.6406 248.0431H1078.6106V308.5931C1078.6106 341.7931 1111.3306 354.0031 1138.1806 333.4931L1269.0406 236.3231C1287.1106 223.1431 1287.1106 198.2431 1269.0406 185.0631L1138.1806 86.9131C1112.3006 67.3831 1078.6106 77.6331 1078.6106 112.7931V171.8731H952.6406C931.1506 171.8731 914.5506 188.9631 914.5506 209.9631ZM13.1806 236.3231L144.0406 333.4931C171.3906 354.0031 203.6106 341.7931 203.6106 308.5931V248.0431H329.5906C351.0706 248.0431 368.1606 231.4431 368.1606 209.9631C368.1606 188.9631 351.0706 171.8731 329.5906 171.8731H203.6106V112.7931C203.6106 77.6331 170.4106 67.3831 144.0406 86.9131L13.1806 185.0631C-4.3994 198.2431 -4.3994 223.1431 13.1806 236.3231ZM313.4806 877.9331H968.7506C1021.0006 877.9331 1052.2506 853.5131 1052.2506 812.9931C1052.2506 687.0131 894.5306 513.1831 641.1106 513.1831C388.1806 513.1831 230.4706 687.0131 230.4706 812.9931C230.4706 853.5131 261.7206 877.9331 313.4806 877.9331Z"/>
</svg>