<?xml version="1.0" encoding="UTF-8" standalone="no"?>
<svg xmlns="http://www.w3.org/2000/svg"
     width="996.09375" height="996.09375"
     viewBox="0 0 996.09375 996.09375"
     fill="currentColor">
  <path d="M498.0477 996.0959C770.5077 996.0959 996.0977 770.0159 996.0977 498.0459C996.0977 225.5859 770.0177 -0.0041 497.5577 -0.0041C225.5877 -0.0041 -0.0023 225.5859 -0.0023 498.0459C-0.0023 770.0159 226.0777 996.0959 498.0477 996.0959ZM498.0477 913.0859C267.5777 913.0859 83.4977 728.5159 83.4977 498.0459C83.4977 267.5759 267.0877 83.0059 497.5577 83.0059C728.0277 83.0059 913.0877 267.5759 913.0877 498.0459C913.0877 728.5159 728.5177 913.0859 498.0477 913.0859ZM497.5577 482.9059C566.8977 483.3959 623.0477 423.8259 623.0477 345.7059C623.0477 272.4559 566.8977 211.9159 497.5577 211.9159C428.2277 211.9159 372.0677 272.4559 372.0677 345.7059C372.0677 423.8259 428.2277 482.4259 497.5577 482.9059ZM274.4177 745.6059H720.7077C740.2377 745.6059 749.5077 732.4259 749.5077 714.8459C749.5077 661.1359 668.9477 522.4559 497.5577 522.4559C326.1677 522.4559 245.6077 661.1359 245.6077 714.8459C245.6077 732.4259 254.8877 745.6059 274.4177 745.6059Z"/>
</svg>