<?xml version="1.0" encoding="UTF-8" standalone="no"?>
<svg xmlns="http://www.w3.org/2000/svg"
     width="996.09375" height="996.09375"
     viewBox="0 0 996.09375 996.09375"
     fill="currentColor">
  <path d="M497.5577 83.0059C541.9877 83.0059 584.9577 89.8459 625.4877 103.0259L656.7377 26.8559C606.4477 9.7659 552.7377 -0.0041 497.5577 -0.0041C442.3877 -0.0041 388.1877 9.7659 337.8877 26.8559L370.1177 103.0259C410.1577 89.8459 453.1277 83.0059 497.5577 83.0059ZM867.6777 308.5959L943.3577 277.3459C894.5277 180.6659 814.9377 101.0759 718.2577 52.2459L687.0077 127.9259C764.1577 167.4759 828.1277 230.9559 867.6777 308.5959ZM308.1077 127.9259L276.8577 52.7359C180.1777 101.0759 100.5877 180.6659 52.2477 277.3459L128.4177 309.0859C167.4777 231.4459 230.9577 167.9659 308.1077 127.9259ZM498.0477 581.0559C591.7977 582.0359 665.5277 501.9559 665.5277 396.9759C665.5277 298.3359 591.7977 216.7959 498.0477 216.7959C404.2977 216.7959 330.0777 298.3359 330.5677 396.9759C331.0577 501.9559 404.2977 580.0759 498.0477 581.0559ZM913.0877 498.0459C913.0877 542.4759 906.2477 585.4459 893.5577 625.4859L969.2377 657.7159C986.3277 607.4259 996.0977 553.2259 996.0977 498.0459C996.0977 442.3859 986.3277 388.6759 969.2377 338.3759L893.0677 370.6059C906.2477 410.6459 913.0877 453.6159 913.0877 498.0459ZM83.4977 498.0459C83.4977 453.6159 90.3277 410.6459 103.0277 371.0959L26.3677 338.8659C9.7677 389.1559 -0.0023 442.3859 -0.0023 498.0459C-0.0023 553.2259 9.7677 606.9359 26.8577 657.2259L103.0277 624.9959C90.3277 585.4459 83.4977 542.4759 83.4977 498.0459ZM498.0477 996.0959C689.4577 996.0959 860.3477 883.2959 943.3577 718.7459L867.6777 687.4959C850.5877 719.7259 830.5677 749.5159 806.6377 775.8759C757.8077 718.2659 645.5077 664.0659 498.0477 664.0659C350.5877 664.0659 238.2777 718.2659 189.4577 775.8759C166.0177 749.0259 145.0177 719.7259 128.4177 687.4959L52.7377 718.7459C135.7377 883.2959 306.6377 996.0959 498.0477 996.0959Z"/>
</svg>