<?xml version="1.0" encoding="UTF-8" standalone="no"?>
<svg xmlns="http://www.w3.org/2000/svg"
     width="1151.3671875" height="898.92578125"
     viewBox="0 0 1151.3671875 898.92578125"
     fill="currentColor">
  <path d="M153.3183 898.9278H998.0483C1100.5883 898.9278 1151.3683 848.6378 1151.3683 748.0478V151.3678C1151.3683 50.7778 1100.5883 -0.0022 998.0483 -0.0022H153.3183C51.2683 -0.0022 -0.0017 50.7778 -0.0017 151.3678V748.0478C-0.0017 848.6378 51.2683 898.9278 153.3183 898.9278ZM154.2983 820.3078C105.4683 820.3078 78.6183 794.4378 78.6183 743.6478V155.7578C78.6183 104.9778 105.4683 78.6178 154.2983 78.6178H997.0683C1045.4083 78.6178 1072.7583 104.9778 1072.7583 155.7578V743.6478C1072.7583 794.4378 1045.4083 820.3078 997.0683 820.3078ZM216.3083 654.7878H486.3283C533.6883 654.7878 556.1483 631.8378 556.1483 586.4278V313.4778C556.1483 268.0678 533.6883 245.1178 486.3283 245.1178H216.3083C169.9183 245.1178 146.4883 267.5778 146.4883 313.4778V586.4278C146.4883 631.8378 169.9183 654.7878 216.3083 654.7878ZM815.4283 649.4178C847.1683 649.4178 876.9483 646.4878 895.9983 638.6678C909.1783 633.2978 916.9883 624.9978 916.9883 612.3078C916.9883 600.0978 908.1983 590.3278 895.5083 590.3278C890.6283 590.3278 886.2283 591.7978 879.8783 592.7778C865.2383 594.7278 851.0783 600.5878 820.7983 600.5878C726.0783 600.5878 667.4783 543.4578 667.4783 450.6878C667.4783 359.3778 727.0483 296.8778 813.9683 296.8778C900.3883 296.8778 958.4983 351.5578 958.4983 432.6178C958.4983 480.9578 943.8483 511.2278 920.4083 511.2278C905.7583 511.2278 899.8983 504.8778 899.8983 490.7178V369.6278C899.8983 354.9778 889.6483 343.7478 875.4883 343.7478C864.7483 343.7478 854.9783 351.5578 852.0483 361.3278V365.2378C840.3283 351.5578 824.2183 343.7478 800.7783 343.7478C749.0283 343.7478 712.8883 388.6678 712.8883 450.6878C712.8883 514.6478 749.0283 558.1078 802.2483 558.1078C825.6883 558.1078 846.1883 547.8478 860.3483 529.2978C871.0983 547.8478 891.5983 558.1078 916.0183 558.1078C970.6983 558.1078 1006.8383 507.3278 1006.8383 429.6878C1006.8383 323.2378 927.7383 249.5078 813.9683 249.5078C696.2883 249.5078 615.7183 331.0578 615.7183 450.1978C615.7183 569.8278 695.7983 649.4178 815.4283 649.4178ZM351.5583 489.2578C308.5983 489.2578 274.8983 453.1278 274.8983 405.7578C274.8983 360.3478 308.5983 324.2178 351.5583 324.2178C394.0383 324.2178 427.7383 360.3478 427.7383 405.7578C427.7383 453.1278 394.0383 489.2578 351.5583 489.2578ZM809.5683 508.7878C783.1983 508.7878 767.0883 486.8178 767.0883 449.7078C767.0883 413.0878 783.6883 391.5978 810.0583 391.5978C836.9183 391.5978 853.5183 413.0878 853.5183 448.2378C853.5183 485.8378 836.9183 508.7878 809.5683 508.7878ZM203.1283 608.8878C217.7783 564.9378 272.9483 523.9278 351.5583 523.9278C430.1783 523.9278 485.3483 564.9378 499.9983 608.8878Z"/>
</svg>