<?xml version="1.0" encoding="UTF-8" standalone="no"?>
<svg xmlns="http://www.w3.org/2000/svg"
     width="853.02734375" height="904.296875"
     viewBox="0 0 853.02734375 904.296875"
     fill="currentColor">
  <path d="M426.7583 452.6367C542.9683 452.6367 637.6983 349.1167 637.6983 223.1467C637.6983 98.1467 543.4583 -0.0033 426.7583 -0.0033C311.0383 -0.0033 215.8183 100.0967 215.8183 224.1167C216.3083 349.6067 310.5483 452.6367 426.7583 452.6367ZM426.7583 378.9067C355.4683 378.9067 294.4383 310.5467 294.4383 224.1167C294.4383 139.1567 354.4883 73.7267 426.7583 73.7267C499.5083 73.7267 559.0783 138.1867 559.0783 223.1467C559.0783 309.5667 498.5383 378.9067 426.7583 378.9067ZM119.6283 904.2967H733.3983C814.4483 904.2967 853.0283 879.8867 853.0283 826.1767C853.0283 698.2467 691.4083 513.1867 426.7583 513.1867C161.6183 513.1867 -0.0017 698.2467 -0.0017 826.1767C-0.0017 879.8867 38.5783 904.2967 119.6283 904.2967ZM96.6783 830.5667C83.9883 830.5667 78.6183 827.1467 78.6183 816.8967C78.6183 736.8167 202.6383 586.9167 426.7583 586.9167C650.3883 586.9167 774.4183 736.8167 774.4183 816.8967C774.4183 827.1467 769.5283 830.5667 756.8383 830.5667Z"/>
</svg>