<?xml version="1.0" encoding="UTF-8" standalone="no"?>
<svg xmlns="http://www.w3.org/2000/svg"
     width="1057.6171875" height="916.015625"
     viewBox="0 0 1057.6171875 916.015625"
     fill="currentColor">
  <path d="M887.2083 351.0791C912.1083 351.0791 926.7583 335.4491 926.7583 316.4091V310.5491C926.7583 282.7191 942.8683 265.6291 976.5583 243.1591C1023.9283 211.9091 1057.6183 183.5891 1057.6183 124.9991C1057.6183 43.9491 985.3483 -0.0009 902.3483 -0.0009C818.8483 -0.0009 763.6683 40.0391 749.9983 84.9591C747.5583 92.7691 746.0983 100.5891 746.0983 108.8891C746.0983 130.8591 763.1883 142.5791 779.2983 142.5791C796.3883 142.5791 806.6383 134.7691 815.4283 123.0491L824.2183 111.3291C841.3083 83.0091 867.1883 66.4091 899.4183 66.4091C943.8483 66.4091 972.6583 91.7991 972.6583 128.9091C972.6583 162.1091 952.1483 178.2191 909.6683 208.0091C874.5083 232.4191 848.6283 258.2991 848.6283 306.1491V312.4991C848.6283 337.8891 862.3083 351.0791 887.2083 351.0791ZM411.1283 463.8691C515.6283 463.8691 606.4483 370.1191 606.4483 248.0491C606.4483 127.4391 515.6283 38.0891 411.1283 38.0891C306.6383 38.0891 215.8183 129.3991 215.8183 249.0191C215.8183 370.1191 306.1483 463.8691 411.1283 463.8691ZM886.2283 496.5791C914.5483 496.5791 938.9683 474.1191 938.9683 445.7991C938.9683 417.4791 915.0383 395.0191 886.2283 395.0191C857.4183 395.0191 833.4983 417.9691 833.4983 445.7991C833.4983 473.6291 857.9083 496.5791 886.2283 496.5791ZM83.4983 916.0191H738.2783C790.5283 916.0191 821.7783 891.5991 821.7783 851.0791C821.7783 725.0991 664.0583 551.2691 410.6483 551.2691C157.7183 551.2691 -0.0017 725.0991 -0.0017 851.0791C-0.0017 891.5991 31.2483 916.0191 83.4983 916.0191Z"/>
</svg>