<?xml version="1.0" encoding="UTF-8" standalone="no"?>
<svg xmlns="http://www.w3.org/2000/svg"
     width="1359.86328125" height="1106.1408870501918"
     viewBox="0 0 1359.86328125 1106.1408870501918"
     fill="currentColor">
  <path d="M1210.4483 1095.1596C1225.0983 1109.7996 1249.5083 1109.7996 1263.6683 1095.1596C1278.3183 1080.5096 1278.8083 1057.0696 1263.6683 1041.9296L232.9083 11.1696C217.7783 -3.9704 194.3383 -3.4804 179.1983 11.1696C165.0383 25.3296 165.0383 50.2296 179.1983 64.3896ZM933.5983 517.0296C1049.8083 517.0296 1144.5283 413.5096 1144.5283 287.5396C1144.5283 162.5396 1050.2883 64.3896 933.5983 64.3896C817.3783 64.3896 722.1683 164.4896 722.6583 288.5096C723.1483 413.9996 817.3783 517.0296 933.5983 517.0296ZM933.5983 443.2996C862.3083 443.2996 801.2683 374.9396 801.2683 288.5096C800.7783 203.5496 860.8383 138.1196 933.5983 138.1196C1006.3483 138.1196 1065.9183 202.5796 1065.9183 287.5396C1065.9183 373.9596 1005.3683 443.2996 933.5983 443.2996ZM371.0983 520.9396C420.8983 520.9396 465.3283 498.9596 497.0683 462.8296L445.7983 411.0696C426.7583 434.5096 400.8783 448.1796 371.0983 448.1796C311.0383 448.1796 260.7383 391.0496 260.7383 320.7396C260.7383 293.3996 269.5283 268.4896 283.6883 249.4496L230.9583 196.7196C204.0983 229.9196 187.4983 273.3796 187.9883 320.7396C187.9883 431.0896 270.5083 520.9396 371.0983 520.9396ZM99.1183 968.6896H482.4183C458.9883 955.5096 441.4083 926.2096 444.8283 896.4196H87.3983C77.1483 896.4196 72.7583 892.5196 72.7583 883.2396C72.7583 762.1496 210.9383 648.8696 370.6083 648.8696C431.6383 648.8696 487.3083 663.5096 534.6683 691.3496C549.8083 671.8196 567.8683 654.7296 589.8483 639.5896C526.8583 598.0796 451.1683 576.5996 370.6083 576.5996C166.0183 576.5996 -0.0017 725.0396 -0.0017 887.6396C-0.0017 941.8296 33.1983 968.6896 99.1183 968.6896ZM1197.2683 894.9596L1267.0883 964.7796L1293.9483 962.8296C1338.8683 954.5296 1359.8683 930.1196 1359.8683 890.5696C1359.8683 762.6396 1198.2383 577.5796 933.1083 577.5796C916.0183 577.5796 899.4183 579.0396 883.2983 580.9896L958.0083 655.6996C965.3283 654.7296 971.1883 654.2396 980.4683 654.7296C1174.3183 673.2796 1281.2483 806.5796 1281.2483 881.2896C1281.2483 891.5396 1275.8783 894.9596 1263.1883 894.9596ZM626.4683 968.6896H1003.4183L929.6883 894.9596H603.0283C590.3283 894.9596 585.4483 891.5396 585.4483 881.2896C585.4483 829.5296 636.7183 749.4496 732.9083 698.1796L679.6883 644.9596C569.3383 710.3896 506.8383 810.9796 506.8383 890.5696C506.8383 944.2796 545.4083 968.6896 626.4683 968.6896Z"/>
</svg>