<?xml version="1.0" encoding="UTF-8" standalone="no"?>
<svg xmlns="http://www.w3.org/2000/svg"
     width="996.09375" height="996.09375"
     viewBox="0 0 996.09375 996.09375"
     fill="currentColor">
  <path d="M498.0477 996.0959C770.5077 996.0959 996.0977 770.0159 996.0977 498.0459C996.0977 225.5859 770.0177 -0.0041 497.5577 -0.0041C225.5877 -0.0041 -0.0023 225.5859 -0.0023 498.0459C-0.0023 770.0159 226.0777 996.0959 498.0477 996.0959ZM313.4777 418.4559C313.4777 403.8059 323.7277 394.0459 337.8877 394.0459H368.6477V302.2459C368.6477 282.2259 381.3477 269.0459 401.3677 269.0459H522.9477C605.9577 269.0459 664.5477 318.3559 676.7577 394.0459H701.1677C715.3277 394.0459 725.5877 403.8059 725.5877 418.4559C725.5877 432.6159 715.3277 443.8459 701.1677 443.8459H677.7377C668.4577 522.4559 607.4177 575.6859 522.9477 575.6859H435.0577V717.2859C435.0577 736.8159 421.3877 750.4859 402.3477 750.4859C383.2977 750.4859 368.6477 736.8159 368.6477 717.2859V443.8459H337.8877C323.7277 443.8459 313.4777 432.6159 313.4777 418.4559ZM435.5477 394.0459H608.8877C599.1177 352.0459 564.9377 328.6159 512.2077 328.6159H435.5477ZM435.5477 515.6259H512.2077C567.3877 515.6259 602.5377 489.2559 610.3477 443.8459H435.5477Z"/>
</svg>