<?xml version="1.0" encoding="UTF-8" standalone="no"?>
<svg xmlns="http://www.w3.org/2000/svg"
     width="898.92578125" height="898.92578125"
     viewBox="0 0 898.92578125 898.92578125"
     fill="currentColor">
  <path d="M153.3183 898.9295H745.6083C848.1483 898.9295 898.9283 848.1495 898.9283 747.5595V151.3695C898.9283 50.7795 848.1483 -0.0005 745.6083 -0.0005H153.3183C51.2683 -0.0005 -0.0017 50.2895 -0.0017 151.3695V747.5595C-0.0017 848.6295 51.2683 898.9295 153.3183 898.9295ZM154.2983 820.3095C105.4683 820.3095 78.6183 794.4295 78.6183 743.6495V155.2695C78.6183 104.4895 105.4683 78.6095 154.2983 78.6095H744.6283C792.9683 78.6095 820.3083 104.4895 820.3083 155.2695V743.6495C820.3083 794.4295 792.9683 820.3095 744.6283 820.3095ZM270.5083 420.8995C270.5083 434.0795 280.7583 444.8195 294.4383 444.8195H324.2183V661.6195C324.2183 680.1795 338.3783 693.3595 356.4483 693.3595C374.9983 693.3595 388.1883 680.1795 388.1883 661.6195V536.6195H473.6283C540.0383 536.6195 591.3083 500.9795 613.2783 444.8195H645.9983C660.1583 444.8195 669.9183 434.0795 669.9183 420.8995C669.9183 406.2495 660.1583 396.4795 645.9983 396.4795H624.0283C624.5083 391.5995 624.5083 386.2295 624.5083 381.3495C624.5083 375.9795 624.5083 371.5795 624.0283 365.7195H645.9983C660.1583 365.7195 669.9183 354.9795 669.9183 341.3095C669.9183 327.1495 660.1583 317.3795 645.9983 317.3795H612.7883C591.3083 262.2095 540.0383 226.5595 473.6283 226.5595H355.4683C336.4283 226.5595 324.2183 239.2595 324.2183 259.2795V317.3795H294.4383C280.7583 317.3795 270.5083 327.1495 270.5083 341.3095C270.5083 354.9795 280.7583 365.7195 294.4383 365.7195H324.2183V396.4795H294.4383C280.7583 396.4795 270.5083 406.2495 270.5083 420.8995ZM388.6683 317.3795V284.6695H463.3783C498.5383 284.6695 525.3883 296.3895 541.5083 317.3795ZM388.6683 396.4795V365.7195H561.0383C561.5283 370.6095 561.5283 375.4895 561.5283 381.3495C561.5283 386.2295 561.5283 391.5995 561.0383 396.4795ZM388.6683 478.5195V444.8195H541.9883C525.3883 466.3095 498.5383 478.5195 463.3783 478.5195Z"/>
</svg>