<?xml version="1.0" encoding="UTF-8" standalone="no"?>
<svg xmlns="http://www.w3.org/2000/svg"
     width="898.92578125" height="898.92578125"
     viewBox="0 0 898.92578125 898.92578125"
     fill="currentColor">
  <path d="M153.3183 898.9295H745.6083C848.1483 898.9295 898.9283 848.1495 898.9283 747.5595V151.3695C898.9283 50.7795 848.1483 -0.0005 745.6083 -0.0005H153.3183C51.2683 -0.0005 -0.0017 50.2895 -0.0017 151.3695V747.5595C-0.0017 848.6295 51.2683 898.9295 153.3183 898.9295ZM264.6483 420.4095C264.6483 405.2695 274.8983 395.0195 289.0583 395.0195H319.8283V363.2795H289.0583C274.8983 363.2795 264.6483 352.0495 264.6483 337.8895C264.6483 323.2395 274.8983 313.4795 289.0583 313.4795H319.8283V253.4195C319.8283 232.9095 332.5183 219.7295 352.5383 219.7295H474.1183C542.9683 219.7295 595.6983 256.3495 618.1683 313.4795H652.3483C666.9883 313.4795 676.7583 323.2395 676.7583 337.8895C676.7583 352.0495 666.9883 363.2795 652.3483 363.2795H629.3983C629.8783 369.6295 629.8783 374.0195 629.8783 379.3895C629.8783 384.2795 629.8783 390.1395 629.3983 395.0195H652.3483C666.9883 395.0195 676.7583 405.2695 676.7583 420.4095C676.7583 434.0795 666.9883 444.8195 652.3483 444.8195H618.6483C595.6983 502.9295 542.9683 540.0395 474.1183 540.0395H386.2283V668.4595C386.2283 687.4995 372.5583 701.1695 353.5183 701.1695C334.4683 701.1695 319.8283 687.4995 319.8283 668.4595V444.8195H289.0583C274.8983 444.8195 264.6483 434.0795 264.6483 420.4095ZM386.7183 313.4795H543.9483C527.3483 291.9895 499.9983 279.7895 463.8683 279.7895H386.7183ZM386.7183 395.0195H564.4483C564.9383 390.1395 564.9383 384.2795 564.9383 379.3895C564.9383 373.5395 564.9383 368.1595 564.4483 363.2795H386.7183ZM386.7183 479.4895H463.8683C499.9983 479.4895 527.3483 467.2895 544.4383 444.8195H386.7183Z"/>
</svg>