<?xml version="1.0" encoding="UTF-8" standalone="no"?>
<svg xmlns="http://www.w3.org/2000/svg"
     width="996.09375" height="996.09375"
     viewBox="0 0 996.09375 996.09375"
     fill="currentColor">
  <path d="M498.0477 996.0977C770.5077 996.0977 996.0977 770.5077 996.0977 498.0477C996.0977 226.0777 770.0177 -0.0023 497.5577 -0.0023C225.5877 -0.0023 -0.0023 226.0777 -0.0023 498.0477C-0.0023 770.5077 226.0777 996.0977 498.0477 996.0977ZM155.2777 546.3877V541.5077C155.2777 406.7377 332.5177 343.7477 498.0477 343.7477C663.5777 343.7477 840.8177 406.7377 840.8177 541.5077V546.3877C840.8177 583.9877 822.2677 613.2777 784.1777 613.2777C755.8577 613.2777 722.6577 611.8177 666.0177 594.7277C633.7877 584.9577 619.6277 569.3377 618.6477 533.6877L618.1677 501.9577C618.1677 496.5777 615.2377 492.6777 607.9077 490.2377C590.8177 484.8677 551.2677 478.0277 498.0477 478.0277C444.8277 478.0277 405.2777 484.8677 388.1877 490.2377C380.8577 492.6777 377.9277 496.5777 377.9277 501.9577L377.4377 533.6877C376.9577 569.3377 362.7977 584.9577 330.0777 594.7277C273.4377 611.8177 240.2377 613.2777 211.9177 613.2777C173.8277 613.2777 155.2777 583.9877 155.2777 546.3877Z"/>
</svg>