<?xml version="1.0" encoding="UTF-8" standalone="no"?>
<svg xmlns="http://www.w3.org/2000/svg"
     width="1076.171875" height="1013.18359375"
     viewBox="0 0 1076.171875 1013.18359375"
     fill="currentColor">
  <path d="M290.0383 1013.1819C309.0783 1013.1819 323.2383 1003.4219 346.1883 981.9319L522.4583 820.8019H852.5383C998.0483 820.8019 1076.1683 740.7219 1076.1683 597.6519V223.6319C1076.1683 80.5619 998.0483 0.0019 852.5383 0.0019H223.6283C78.1283 0.0019 -0.0017 80.0819 -0.0017 223.6319V597.6519C-0.0017 741.2119 78.1283 820.8019 223.6283 820.8019H246.5783V962.8919C246.5783 993.1619 262.2083 1013.1819 290.0383 1013.1819ZM416.0183 527.8319C298.3383 410.6419 223.6283 261.2319 312.4983 172.3619C313.9683 170.4119 315.9183 168.4619 319.3383 166.5019C353.0283 141.6019 383.7883 135.7419 404.7883 165.5319L466.7983 252.9319C487.7883 282.7119 482.9083 300.7819 459.9583 324.7119L440.4283 345.7019C433.5983 352.5419 436.0383 361.3319 439.4483 366.7019C449.2183 383.7919 473.6283 414.5519 501.4683 442.3819C530.2783 470.7019 559.0783 494.1419 576.6583 504.8819C583.9883 508.7919 593.7483 509.7619 599.6083 503.9019L619.1383 484.3719C641.5983 461.4219 661.1283 456.5419 690.9183 477.5419C731.9383 506.3519 756.3483 523.4419 780.2783 540.0419C809.5683 562.5019 803.2183 596.6819 780.2783 622.0719C777.8283 625.4919 775.3883 628.9019 771.9683 632.3219C683.1083 720.2119 533.6883 645.9919 416.0183 527.8319Z"/>
</svg>