<?xml version="1.0" encoding="UTF-8" standalone="no"?>
<svg xmlns="http://www.w3.org/2000/svg"
     width="929.2026095435638" height="1101.5625"
     viewBox="0 0 929.2026095435638 1101.5625"
     fill="currentColor">
  <path d="M0.001 550.7803C-0.489 734.8603 51.761 916.5003 157.231 1021.4803C212.401 1076.6603 264.161 1101.5603 347.661 1101.5603C447.761 1101.5603 501.961 1048.3403 485.841 948.2403L455.571 777.8303C445.801 725.1003 411.621 686.5203 353.521 686.0303H304.691C279.301 686.0303 268.071 672.3603 265.631 635.7403C264.651 621.0903 263.671 586.9103 263.671 550.7803C263.671 514.6503 264.651 480.4703 265.631 465.8203C268.071 429.2003 279.301 415.5303 304.691 415.5303H353.521C411.621 415.5303 445.801 376.4603 455.571 323.7303L485.841 153.8103C501.961 54.2003 449.221 0.0003 347.661 0.0003C264.161 0.0003 212.401 24.9003 157.231 80.0803C51.761 185.5503 -0.489 366.7003 0.001 550.7803ZM75.691 550.7803C75.691 384.7703 119.631 220.7003 209.961 132.8103C245.611 98.6303 286.141 78.6103 336.921 78.6103C392.091 78.6103 423.831 97.1703 412.111 148.4403L380.861 305.6603C377.441 323.7303 365.731 335.9403 344.731 335.9403H288.581C234.871 335.9403 209.961 369.1403 200.691 416.0203C194.341 448.2403 191.901 498.5303 191.901 550.7803C191.901 603.0303 194.341 653.3203 200.691 686.0303C209.961 732.4203 234.871 765.6203 288.581 765.6203H344.731C365.731 765.6203 377.441 777.8303 380.861 795.9003L412.111 953.1203C423.341 1003.4203 393.071 1022.9503 336.921 1022.9503C286.141 1022.9503 245.611 1002.9303 209.961 968.7503C119.631 880.8603 75.691 716.8003 75.691 550.7803ZM459.481 585.4503H722.171L824.711 580.5703L718.261 676.2703L666.991 727.5403C660.161 734.3703 656.251 743.6503 656.251 753.9103C656.251 773.9303 670.901 787.6003 689.941 787.6003C699.711 787.6003 708.991 783.6903 715.821 776.8603L916.021 576.6603C924.811 568.3603 929.201 559.0803 929.201 550.7803C929.201 542.4803 924.811 532.7103 916.021 524.4103L715.821 324.7103C708.991 317.8703 699.711 313.9603 689.941 313.9603C670.901 313.9603 656.251 327.6403 656.251 347.1703C656.251 357.9103 660.161 366.7003 666.991 373.5303L718.261 425.2903L824.711 520.5103L722.171 515.6203H459.481C437.501 515.6203 424.321 532.7103 424.321 550.7803C424.321 568.8503 437.501 585.4503 459.481 585.4503Z"/>
</svg>