<?xml version="1.0" encoding="UTF-8" standalone="no"?>
<svg xmlns="http://www.w3.org/2000/svg"
     width="1148.26340967985" height="429.75885043085896"
     viewBox="0 0 1148.26340967985 429.75885043085896"
     fill="currentColor">
  <path d="M573.9835 0.0011C362.5635 0.0011 163.8235 44.4311 64.7035 143.5511C19.7835 188.4811 -2.6765 242.6711 0.2535 308.1011C2.2035 347.6611 14.4135 382.8111 37.3635 405.7611C54.4535 423.3411 78.3835 433.1011 106.2135 428.7111L287.3635 397.9511C314.7035 393.5511 333.7535 385.2511 345.9535 372.5611C362.0735 356.9311 366.9535 333.4911 366.9535 302.7311V253.4211C366.9535 245.6011 370.3735 239.7411 375.2535 234.8611C380.1335 229.0011 387.4635 226.5611 392.8335 225.1011C426.0335 217.2811 493.4135 209.9611 573.9835 209.9611C654.5535 209.9611 721.4435 215.8211 755.1335 225.5811C760.0235 227.0511 766.8535 229.9811 772.2235 234.8611C776.6235 239.7411 779.5535 245.1211 780.0435 252.9311L780.5235 302.7311C781.0135 333.4911 785.9035 356.9311 801.5235 372.5611C814.2235 385.2511 833.2635 393.5511 860.6035 397.9511L1039.3135 428.2211C1068.1235 433.1011 1092.5435 422.8511 1111.5835 404.3011C1134.5335 381.8311 1147.2235 347.6611 1148.2035 307.6211C1149.6635 241.7011 1124.2735 187.5011 1080.3335 143.5511C981.2135 44.4311 785.4135 0.0011 573.9835 0.0011Z"/>
</svg>