<?xml version="1.0" encoding="UTF-8" standalone="no"?>
<svg xmlns="http://www.w3.org/2000/svg"
     width="891.11328125" height="1067.4948690527638"
     viewBox="0 0 891.11328125 1067.4948690527638"
     fill="currentColor">
  <path d="M-0.0023 533.7465C-0.0023 717.3365 42.9677 898.0065 139.6477 995.1765C185.5477 1041.5565 243.1677 1068.9065 315.9177 1067.4365C385.7377 1065.9765 439.4577 1021.5365 427.2477 953.1765L397.4577 779.8365C387.6977 721.7365 363.2777 700.2465 301.7577 700.2465H269.5277C216.7977 700.2465 209.4777 650.9365 209.4777 533.7465C209.4777 416.5565 216.7977 367.2465 269.5277 367.2465H301.7577C362.3077 367.2465 387.2077 346.2465 397.4577 287.6565L427.2477 114.3165C439.4577 45.4665 385.7377 1.5165 315.9177 0.0565C243.1677 -1.4135 185.5477 25.9365 139.6477 71.8365C42.9677 168.9965 -0.0023 349.6665 -0.0023 533.7465ZM421.3877 568.4165H684.0777L786.6177 563.5365L680.1777 659.2365L628.9077 710.5065C622.0677 717.3365 618.6477 726.6165 618.6477 736.8765C618.6477 756.8965 632.8077 770.5665 651.8577 770.5665C661.6177 770.5665 670.8977 766.6565 677.7377 759.8265L878.4177 559.6265C886.7177 551.3265 891.1177 542.0465 891.1177 533.7465C891.1177 525.4465 886.7177 515.6765 878.4177 507.3765L677.7377 307.6765C670.8977 300.8365 661.6177 296.9265 651.8577 296.9265C632.8077 296.9265 618.6477 310.6065 618.6477 330.1365C618.6477 340.8765 622.0677 349.6665 628.9077 356.4965L680.1777 408.2565L786.6177 503.4765L684.0777 498.5865H421.3877C399.4177 498.5865 386.2277 515.6765 386.2277 533.7465C386.2277 551.8165 399.4177 568.4165 421.3877 568.4165Z"/>
</svg>