<?xml version="1.0" encoding="UTF-8" standalone="no"?>
<svg xmlns="http://www.w3.org/2000/svg"
     width="1037.2314453125" height="1036.7431640625"
     viewBox="0 0 1037.2314453125 1036.7431640625"
     fill="currentColor">
  <path d="M803.7153 11.3483C788.5753 26.4883 788.5753 51.3883 803.7153 67.0183L969.7253 233.5183C985.3553 249.1483 1010.7453 249.1483 1025.8753 233.5183C1041.0153 218.3883 1041.0153 193.4783 1025.8753 178.3483L859.3753 11.3483C843.7453 -3.7817 818.3553 -3.7817 803.7153 11.3483ZM709.9653 1036.7383C794.9253 1036.7383 851.0753 1013.7983 900.8753 958.1283C904.7853 954.2283 908.2053 949.8283 912.1053 945.9183C941.4053 913.2083 955.0753 880.9783 955.0753 850.2183C955.0753 815.0683 934.5753 782.3483 891.1153 752.0783L749.0253 653.4383C705.0753 623.1683 653.8053 619.7483 612.7953 660.2783L575.1953 697.8783C563.9653 709.1083 554.1953 709.5983 542.9653 702.7583C517.0853 686.1583 463.8653 639.7683 427.7353 603.6383C389.6453 566.0383 352.5353 524.0483 333.4953 493.2883C326.6553 482.0583 327.6353 472.7783 338.8653 461.5483L375.9753 423.9483C416.9953 382.9383 413.5753 331.1783 383.3053 287.7183L284.1753 145.6283C254.3953 102.1683 221.6753 82.1483 186.5253 81.6683C155.7653 81.1783 123.5353 95.3383 90.8253 124.6383C86.4253 128.5383 82.5153 131.9583 78.1253 135.3783C22.9453 185.1783 -0.0047 241.3283 -0.0047 325.8083C-0.0047 465.4583 85.9353 635.3783 243.6553 793.0883C400.3953 949.8283 570.8053 1036.7383 709.9653 1036.7383ZM710.4453 961.5483C585.9353 963.9883 426.2653 868.2883 299.8053 742.3083C172.3653 615.3583 72.2653 450.3183 74.7053 325.8083C75.6853 272.0983 94.2353 225.7083 132.8153 192.5083C135.7453 189.5783 138.6753 187.1383 142.0853 184.6883C156.2453 171.9983 172.3653 165.1583 186.0353 165.1583C200.6853 165.1583 213.3753 170.5283 222.6553 185.1783L317.3853 327.2683C327.6353 342.4083 328.6153 359.4983 313.4753 374.6383L270.5053 417.5983C236.3253 451.2983 239.2553 492.3083 263.6753 525.0283C291.5053 562.6183 339.8453 617.3083 376.9553 654.4183C414.5553 692.0183 473.6353 744.7483 511.2353 773.0683C543.9453 797.4883 585.4453 799.9283 619.1453 766.2383L662.1053 723.2683C677.2453 708.1283 693.8453 709.1083 708.9853 718.8683L851.0753 813.5983C865.7253 823.3683 871.5853 835.5683 871.5853 850.2183C871.5853 864.3783 864.7453 880.0083 851.5653 894.6483C849.1253 898.0683 847.1653 900.5083 844.2353 903.9283C810.5453 942.0183 764.1553 960.5683 710.4453 961.5483ZM755.3753 282.3483C781.7353 307.2483 823.7353 307.7383 849.6053 281.3683C875.4853 255.4883 875.4853 213.4983 849.6053 187.6183C823.7353 161.2583 781.2453 161.2583 755.3753 187.1383C729.0053 213.4983 729.0053 255.0083 755.3753 282.3483ZM579.5853 234.9883C563.9653 250.1183 563.9653 275.5083 579.5853 290.6483L746.0953 457.6383C761.2353 472.7783 786.6253 472.7783 801.7553 457.6383C816.8953 442.5083 816.8953 417.1183 801.7553 401.9783L634.7653 234.9883C619.6253 219.8483 594.2353 219.8483 579.5853 234.9883ZM531.2453 505.4883C557.6153 531.8583 599.6053 531.8583 625.9753 505.4883C651.8553 479.1283 651.8553 437.1383 625.9753 411.7383C599.6053 384.8883 557.6153 384.8883 531.2453 410.7683C504.8853 437.1383 504.8853 479.1283 531.2453 505.4883Z"/>
</svg>