<?xml version="1.0" encoding="UTF-8" standalone="no"?>
<svg xmlns="http://www.w3.org/2000/svg"
     width="996.09375" height="996.09375"
     viewBox="0 0 996.09375 996.09375"
     fill="currentColor">
  <path d="M498.0477 996.0959C770.5077 996.0959 996.0977 770.0159 996.0977 498.0459C996.0977 225.5859 770.0177 -0.0041 497.5577 -0.0041C225.5877 -0.0041 -0.0023 225.5859 -0.0023 498.0459C-0.0023 770.0159 226.0777 996.0959 498.0477 996.0959ZM498.0477 913.0859C267.5777 913.0859 83.4977 728.5159 83.4977 498.0459C83.4977 267.5759 267.0877 83.0059 497.5577 83.0059C728.0277 83.0059 913.0877 267.5759 913.0877 498.0459C913.0877 728.5159 728.5177 913.0859 498.0477 913.0859ZM165.0377 544.4359C165.0377 580.5659 183.1077 609.3759 220.2177 609.3759C247.5577 609.3759 279.7877 607.9059 334.4777 591.3059C366.2077 581.0559 379.8877 566.4059 380.3677 532.2259L380.8577 501.4659C380.8577 496.0959 383.7877 492.1859 391.1177 489.7459C407.7177 484.3759 445.7977 477.5359 497.5577 477.5359C549.3177 477.5359 587.3977 484.3759 604.0077 489.7459C611.3277 492.1859 614.2577 496.0959 614.2577 501.4659L614.7477 532.2259C615.7277 566.4059 629.3977 581.0559 660.6477 591.3059C715.3277 607.9059 747.5577 609.3759 774.8977 609.3759C812.0077 609.3759 830.0777 580.5659 830.0777 544.4359V539.5459C830.0777 408.6959 658.2077 347.6559 497.5577 347.6559C336.9177 347.6559 165.0377 408.6959 165.0377 539.5459Z"/>
</svg>