<?xml version="1.0" encoding="UTF-8" standalone="no"?>
<svg xmlns="http://www.w3.org/2000/svg"
     width="955.078125" height="955.0903297716301"
     viewBox="0 0 955.078125 955.0903297716301"
     fill="currentColor">
  <path d="M709.9653 955.0855C795.4053 955.0855 851.5653 932.1455 900.8753 876.4755C904.7853 872.5755 908.6953 868.1755 912.1053 864.2655C941.4053 831.5555 955.0753 799.3255 955.0753 768.5655C955.0753 733.4155 934.5753 700.6955 891.1153 670.4255L749.0253 571.7855C705.0753 541.5155 653.8053 538.0955 612.7953 578.6255L575.1953 616.2255C563.9653 627.4555 554.1953 627.9455 543.4553 621.1055C517.0853 604.5055 463.8653 558.1155 427.7353 521.9855C389.6453 484.3855 353.0253 442.3955 333.4953 411.6355C327.1453 400.4055 327.6353 391.1255 338.8653 379.8955L375.9753 342.2955C416.9953 301.2855 413.5753 249.5255 383.3053 206.0655L284.6653 63.9755C254.3953 20.5155 221.6753 0.4955 186.5253 0.0155C155.7653 -0.4745 123.5353 13.6855 90.8253 42.9855C86.4253 46.8855 82.5153 50.3055 78.6153 53.7255C22.9453 103.5255 -0.0047 159.6755 -0.0047 244.1555C-0.0047 383.8055 85.9353 553.7255 243.6553 711.4355C400.3953 868.1755 570.8053 955.0855 709.9653 955.0855ZM710.4453 879.8955C585.9353 882.3355 426.2653 786.6355 299.8053 660.6555C172.3653 533.7055 72.2653 368.6655 74.7053 244.1555C75.6853 190.4455 94.7253 144.0555 132.8153 110.8555C136.2353 107.9255 138.6753 105.4855 142.0853 103.0355C156.7353 90.3455 172.3653 83.5055 186.5253 83.5055C200.6853 83.5055 213.3753 88.8755 222.6553 103.5255L317.3853 245.6155C327.6353 260.7555 328.6153 277.8455 313.4753 292.9855L270.5053 335.9455C236.8153 369.6455 239.2553 410.6555 263.6753 443.3755C291.5053 480.9655 339.8453 535.6555 377.4453 572.7655C414.5553 610.3655 473.6353 663.0955 511.7153 691.4155C544.4353 715.8355 585.4453 718.2755 619.1453 684.5855L662.1053 641.6155C677.2453 626.4755 693.8453 627.4555 709.4753 637.2155L851.5653 731.9455C866.2153 741.7155 871.5853 753.9155 871.5853 768.5655C871.5853 782.7255 864.7453 798.3555 852.0553 812.9955C849.1253 816.4155 847.1653 818.8555 844.2353 822.2755C811.0353 860.3655 764.6453 878.9155 710.4453 879.8955Z"/>
</svg>