<?xml version="1.0" encoding="UTF-8" standalone="no"?>
<svg xmlns="http://www.w3.org/2000/svg"
     width="996.09375" height="996.09375"
     viewBox="0 0 996.09375 996.09375"
     fill="currentColor">
  <path d="M498.0477 996.0959C770.5077 996.0959 996.0977 770.0159 996.0977 498.0459C996.0977 225.5859 770.0177 -0.0041 497.5577 -0.0041C225.5877 -0.0041 -0.0023 225.5859 -0.0023 498.0459C-0.0023 770.0159 226.0777 996.0959 498.0477 996.0959ZM498.0477 913.0859C267.5777 913.0859 83.4977 728.5159 83.4977 498.0459C83.4977 267.5759 267.0877 83.0059 497.5577 83.0059C728.0277 83.0059 913.0877 267.5759 913.0877 498.0459C913.0877 728.5159 728.5177 913.0859 498.0477 913.0859ZM518.0677 506.3459C524.8977 506.3459 531.7377 504.3959 536.1377 499.9959L655.2777 379.8859L686.5277 345.7059L683.1077 411.1359V452.1459C683.1077 465.8159 692.8677 476.5659 706.5477 478.0259C721.1877 478.5159 733.3977 466.7959 733.3977 452.1459V292.9659C733.3977 275.3859 723.6377 265.6259 706.0577 265.6259H545.8977C531.2477 265.6259 520.0177 277.3459 520.9977 291.9959C521.4877 305.6659 531.7377 315.9159 545.8977 315.9159H588.8677L653.3177 312.4959L619.1377 343.7459L500.4877 462.8859C494.6277 468.2659 492.6777 474.6059 492.6777 482.4259C492.6777 496.5859 503.4177 506.3459 518.0677 506.3459ZM344.7277 651.3659C458.9877 765.1359 604.0077 837.8859 689.4577 751.9559C692.8677 749.0259 695.3077 745.6059 698.2377 742.6759C720.2177 717.2859 726.0777 684.5659 697.7577 663.0859C675.2977 646.9759 651.8577 629.8859 611.3277 602.0459C582.5177 582.0359 563.9677 586.9159 541.9877 608.3959L522.4577 627.9259C517.0877 633.2959 507.3277 632.3259 500.9777 628.4159C483.8877 618.1659 455.0777 595.7059 427.7377 568.3559C400.8777 541.0159 376.9577 511.2259 367.1877 495.1159C364.2577 489.7459 361.8177 480.9559 368.1677 474.1259L387.6977 454.1059C409.6677 430.6659 414.0577 413.0859 393.5577 384.7659L333.4977 299.3159C313.4777 270.5059 283.2077 276.8559 250.4877 300.7859C248.0477 302.7359 246.0977 304.6859 244.1377 306.1559C158.2077 392.5759 230.9577 537.5959 344.7277 651.3659Z"/>
</svg>