<?xml version="1.0" encoding="UTF-8" standalone="no"?>
<svg xmlns="http://www.w3.org/2000/svg"
     width="996.09375" height="996.09375"
     viewBox="0 0 996.09375 996.09375"
     fill="currentColor">
  <path d="M498.0477 996.0959C770.5077 996.0959 996.0977 770.0159 996.0977 498.0459C996.0977 225.5859 770.0177 -0.0041 497.5577 -0.0041C225.5877 -0.0041 -0.0023 225.5859 -0.0023 498.0459C-0.0023 770.0159 226.0777 996.0959 498.0477 996.0959ZM498.0477 913.0859C267.5777 913.0859 83.4977 728.5159 83.4977 498.0459C83.4977 267.5759 267.0877 83.0059 497.5577 83.0059C728.0277 83.0059 913.0877 267.5759 913.0877 498.0459C913.0877 728.5159 728.5177 913.0859 498.0477 913.0859ZM378.9077 612.3059C492.6777 726.5659 637.6977 798.8259 723.6377 713.3759C727.0477 709.9559 729.4877 707.0359 731.9377 703.6159C754.3977 678.7059 760.2577 645.9959 731.9377 624.0259C709.4777 607.9059 685.5477 590.8159 645.0177 562.9859C616.6977 542.9659 598.1477 547.8559 576.1677 569.8259L556.6377 588.8659C551.2677 594.2359 541.5077 593.7459 535.1577 589.8459C517.5777 579.5859 489.2577 556.6359 461.9177 529.2959C435.0577 502.4459 411.1377 472.1659 401.3677 456.0559C397.9477 450.6859 395.9977 441.8959 402.3477 435.5459L421.3877 415.0359C443.3577 392.0859 448.2377 374.5159 427.7377 345.7059L367.6777 260.7459C347.1677 231.9359 317.3877 237.7959 284.6677 261.7159C282.2277 263.6759 280.2777 265.6259 278.3177 267.5759C191.8977 353.5159 265.1377 498.5359 378.9077 612.3059Z"/>
</svg>