<?xml version="1.0" encoding="UTF-8" standalone="no"?>
<svg xmlns="http://www.w3.org/2000/svg"
     width="1030.2734375" height="975.09765625"
     viewBox="0 0 1030.2734375 975.09765625"
     fill="currentColor">
  <path d="M773.9253 461.4228C789.5553 461.4228 801.2653 449.2228 801.2653 434.0828V28.3228C801.2653 12.2028 789.5553 0.0028 773.9253 0.0028C758.3053 0.0028 746.5853 12.2028 746.5853 28.3228V434.0828C746.5853 449.7028 757.8153 461.4228 773.9253 461.4228ZM709.9653 975.0928C794.9253 975.0928 851.0753 952.1528 900.8753 896.4828C904.7853 892.5828 908.2053 888.1828 912.1053 884.2728C941.4053 851.5628 955.0753 819.3328 955.0753 788.5728C955.0753 753.4228 934.5753 720.7028 891.1153 690.4328L749.0253 591.7928C705.0753 561.5228 653.8053 558.1028 612.7953 598.6328L575.1953 636.2328C563.9653 647.4628 554.1953 647.9528 542.9653 641.1128C517.0853 624.5128 463.8653 578.1228 427.7353 541.9928C389.6453 504.3928 352.5353 462.4028 333.4953 431.6428C326.6553 420.4128 327.6353 411.1328 338.8653 399.9028L375.9753 362.3028C416.9953 321.2928 413.5753 269.5328 383.3053 226.0728L284.1753 83.9828C254.3953 40.5228 221.6753 20.5028 186.5253 20.0228C155.7653 19.5328 123.5353 33.6928 90.8253 62.9928C86.4253 66.8928 82.5153 70.3128 78.1253 73.7328C22.9453 123.5328 -0.0047 179.6828 -0.0047 264.1628C-0.0047 403.8128 85.9353 573.7328 243.6553 731.4428C400.3953 888.1828 570.8053 975.0928 709.9653 975.0928ZM887.6953 412.5928C903.8053 412.5928 916.0153 400.8828 916.0153 385.2528V75.6828C916.0153 60.5428 903.8053 48.8328 887.6953 48.8328C873.0453 48.8328 860.8353 60.5428 860.8353 75.6828V385.2528C860.8353 400.8828 873.0453 412.5928 887.6953 412.5928ZM659.1753 376.9528C674.8053 376.9528 687.0153 364.7428 687.0153 349.1228V111.8128C687.0153 96.6828 674.8053 84.4728 659.1753 84.4728C644.0453 84.4728 631.8353 96.6828 631.8353 111.8128V349.1228C631.8353 364.7428 644.0453 376.9528 659.1753 376.9528ZM710.4453 899.9028C585.9353 902.3428 426.2653 806.6428 299.8053 680.6628C172.3653 553.7128 72.2653 388.6728 74.7053 264.1628C75.6853 210.4528 94.2353 164.0628 132.8153 130.8628C135.7453 127.9328 138.6753 125.4928 142.0853 123.0428C156.2453 110.3528 172.3653 103.5128 186.0353 103.5128C200.6853 103.5128 213.3753 108.8828 222.6553 123.5328L317.3853 265.6228C327.6353 280.7628 328.6153 297.8528 313.4753 312.9928L270.5053 355.9528C236.3253 389.6528 239.2553 430.6628 263.6753 463.3828C291.5053 500.9728 339.8453 555.6628 376.9553 592.7728C414.5553 630.3728 473.6353 683.1028 511.2353 711.4228C543.9453 735.8428 585.4453 738.2828 619.1453 704.5928L662.1053 661.6228C677.2453 646.4828 693.8453 647.4628 708.9853 657.2228L851.0753 751.9528C865.7253 761.7228 871.5853 773.9228 871.5853 788.5728C871.5853 802.7328 864.7453 818.3628 851.5653 833.0028C849.1253 836.4228 847.1653 838.8628 844.2353 842.2828C810.5453 880.3728 764.1553 898.9228 710.4453 899.9028ZM1002.9253 320.8028C1019.0453 320.8028 1030.2753 309.0828 1030.2753 292.9728V167.9728C1030.2753 152.3428 1019.0453 140.1328 1002.9253 140.1328C987.3053 140.1328 975.5853 152.8328 975.5853 167.9728V292.9728C975.5853 308.5928 987.3053 320.8028 1002.9253 320.8028ZM544.4353 294.9228C560.5453 294.9228 572.2653 282.7128 572.2653 268.0628V193.3628C572.2653 178.2228 560.5453 166.0128 544.4353 166.0128C529.2953 166.0128 517.5753 178.2228 517.5753 193.3628V268.0628C517.5753 282.7128 529.2953 294.9228 544.4353 294.9228Z"/>
</svg>