<?xml version="1.0" encoding="UTF-8" standalone="no"?>
<svg xmlns="http://www.w3.org/2000/svg"
     width="1214.84375" height="989.2578125"
     viewBox="0 0 1214.84375 989.2578125"
     fill="currentColor">
  <path d="M153.3183 763.188H241.2083V837.888C241.2083 938.968 291.9883 989.258 394.5283 989.258H1061.5283C1163.0883 989.258 1214.8483 938.478 1214.8483 837.888V377.438C1214.8483 276.858 1163.0883 226.078 1061.5283 226.078H968.2583V151.368C968.2583 50.778 916.5083 -0.002 814.9383 -0.002H153.3183C50.7783 -0.002 -0.0017 50.778 -0.0017 151.368V611.818C-0.0017 712.888 50.7783 763.188 153.3183 763.188ZM154.2983 684.568C105.4683 684.568 78.6183 658.688 78.6183 607.908V155.758C78.6183 104.978 105.4683 78.618 154.2983 78.618H813.4783C861.8183 78.618 889.6483 104.978 889.6483 155.758V226.078H394.5283C291.9883 226.078 241.2083 276.858 241.2083 377.438V684.568ZM319.8283 381.838C319.8283 331.058 346.6783 304.688 395.5083 304.688H1060.0583C1108.3983 304.688 1136.2283 331.058 1136.2283 381.838V762.208L953.6183 589.848C934.5683 572.268 911.1283 563.478 887.6983 563.478C863.2783 563.478 841.7983 571.288 821.7783 589.358L624.5083 764.158L545.8983 693.358C527.3483 676.268 507.3283 668.458 486.3283 668.458C467.2883 668.458 449.2183 676.268 430.1783 692.378L319.8283 788.578ZM589.3583 600.588C645.9983 600.588 692.3783 553.218 692.3783 496.098C692.3783 439.938 645.9983 392.578 589.3583 392.578C532.2283 392.578 485.8383 439.938 485.8383 496.098C485.8383 553.218 532.2283 600.588 589.3583 600.588Z"/>
</svg>