<?xml version="1.0" encoding="UTF-8" standalone="no"?>
<svg xmlns="http://www.w3.org/2000/svg"
     width="1214.84375" height="989.2578125"
     viewBox="0 0 1214.84375 989.2578125"
     fill="currentColor">
  <path d="M394.5283 159.668H968.2583V151.368C968.2583 50.778 916.5083 -0.002 814.9383 -0.002H153.3183C50.7783 -0.002 -0.0017 50.778 -0.0017 151.368V611.818C-0.0017 712.888 50.7783 763.188 153.3183 763.188H174.3183V377.438C174.3183 239.748 255.3683 159.668 394.5283 159.668ZM394.5283 989.258H1061.5283C1163.0883 989.258 1214.8483 938.478 1214.8483 837.888V377.438C1214.8483 276.858 1163.0883 226.078 1061.5283 226.078H394.5283C291.9883 226.078 241.2083 276.858 241.2083 377.438V837.888C241.2083 938.968 291.9883 989.258 394.5283 989.258ZM589.3583 600.588C532.2283 600.588 485.8383 553.218 485.8383 496.098C485.8383 439.938 532.2283 392.578 589.3583 392.578C645.9983 392.578 692.3783 439.938 692.3783 496.098C692.3783 553.218 645.9983 600.588 589.3583 600.588ZM395.5083 910.648C346.6783 910.648 319.8283 884.768 319.8283 833.988V789.548L430.1783 692.378C449.2183 676.268 467.2883 668.458 486.3283 668.458C507.3283 668.458 527.3483 676.268 545.8983 693.358L624.5083 764.158L821.7783 589.358C841.7983 571.288 863.2783 563.478 887.6983 563.478C911.1283 563.478 934.5683 572.268 953.6183 589.848L1136.2283 762.208V833.988C1136.2283 884.768 1108.3983 910.648 1060.0583 910.648Z"/>
</svg>