<?xml version="1.0" encoding="UTF-8" standalone="no"?>
<svg xmlns="http://www.w3.org/2000/svg"
     width="1022.94921875" height="1081.0546875"
     viewBox="0 0 1022.94921875 1081.0546875"
     fill="currentColor">
  <path d="M203.6183 62.9847H819.8283C816.8983 21.4847 793.4583 0.0047 748.0483 0.0047H274.8983C229.9783 0.0047 206.5383 21.4847 203.6183 62.9847ZM103.0283 198.2447H920.4083C913.0883 153.8047 892.0883 129.3947 843.2583 129.3947H180.1783C131.3483 129.3947 110.3483 153.8047 103.0283 198.2447ZM153.3183 1081.0547H869.6283C971.1883 1081.0547 1022.9483 1030.2747 1022.9483 929.6847V428.2247C1022.9483 327.6347 971.1883 276.8547 869.6283 276.8547H153.3183C50.7783 276.8547 -0.0017 327.6347 -0.0017 428.2247V929.6847C-0.0017 1030.2747 50.7783 1081.0547 153.3183 1081.0547ZM78.6183 432.6147C78.6183 381.8347 105.4683 355.4647 154.2983 355.4647H868.1683C916.5083 355.4647 944.3383 381.8347 944.3383 432.6147V838.3747L760.2583 664.5547C739.7483 645.5047 714.3583 636.2347 688.9683 636.2347C663.0883 636.2347 640.1383 644.5347 618.1683 664.0647L405.7583 851.5647L320.7983 775.8747C300.7783 757.8147 279.7883 748.5347 257.3283 748.5347C236.3283 748.5347 216.7983 758.3047 196.7783 775.3947L78.6183 877.9247ZM367.6783 676.2647C429.1983 676.2647 479.4883 625.0047 479.4883 563.9647C479.4883 502.9247 429.1983 452.6347 367.6783 452.6347C306.1483 452.6347 256.3483 502.9247 256.3483 563.9647C256.3483 625.0047 306.1483 676.2647 367.6783 676.2647Z"/>
</svg>