<?xml version="1.0" encoding="UTF-8" standalone="no"?>
<svg xmlns="http://www.w3.org/2000/svg"
     width="1244.6450477789256" height="1024.464540121105"
     viewBox="0 0 1244.6450477789256 1024.464540121105"
     fill="currentColor">
  <path d="M84.0044 748.0947C102.0644 847.2147 160.1744 887.7447 261.2444 870.1647L271.5044 868.7047V873.0947C271.5044 974.1747 322.2844 1024.4647 424.8244 1024.4647H1091.8144C1193.3744 1024.4647 1244.6444 973.6847 1244.6444 873.0947V412.6447C1244.6444 312.0647 1193.3744 261.2847 1091.8144 261.2847H981.4644L957.0444 126.5147C939.4644 27.3947 880.8744 -13.6253 780.2944 3.9547L128.4344 118.7047C27.8444 136.7647 -13.6556 195.3647 3.9244 294.4847ZM160.6644 730.5147L82.0444 285.2047C73.2544 234.9147 95.2344 204.1547 143.5744 195.8547L792.4944 81.5947C839.8644 73.2947 871.5944 93.8047 880.8744 144.0947L901.8744 261.2847H424.8244C322.2844 261.2847 271.5044 312.0647 271.5044 412.6447V788.6247L249.0444 792.5347C200.7044 801.3247 169.4544 780.3247 160.6644 730.5147ZM350.1144 417.0447C350.1144 366.2647 376.9644 339.8947 425.7944 339.8947H1090.3444C1138.6844 339.8947 1166.0344 366.2647 1166.0344 417.0447V797.4147L983.9044 625.0547C964.8644 607.4747 941.4244 598.6847 917.4944 598.6847C893.5744 598.6847 872.0844 606.4947 851.5744 624.5647L654.3144 799.3647L576.1844 728.5647C557.1444 711.4747 537.6144 703.6647 516.6144 703.6647C497.5744 703.6647 479.5044 711.4747 460.4644 727.5847L350.1144 823.7847ZM619.1544 635.7947C676.2844 635.7947 722.6744 588.4247 722.6744 531.3047C722.6744 475.1447 676.2844 427.7847 619.1544 427.7847C562.0244 427.7847 516.1344 475.1447 516.1344 531.3047C516.1344 588.4247 562.0244 635.7947 619.1544 635.7947Z"/>
</svg>