<?xml version="1.0" encoding="UTF-8" standalone="no"?>
<svg xmlns="http://www.w3.org/2000/svg"
     width="1151.3671875" height="898.92578125"
     viewBox="0 0 1151.3671875 898.92578125"
     fill="currentColor">
  <path d="M153.3183 898.9278H998.0483C1100.5883 898.9278 1151.3683 848.6378 1151.3683 748.0478V151.3678C1151.3683 50.7778 1100.5883 -0.0022 998.0483 -0.0022H153.3183C51.2683 -0.0022 -0.0017 50.7778 -0.0017 151.3678V748.0478C-0.0017 848.6378 51.2683 898.9278 153.3183 898.9278ZM811.0383 449.2178C789.0583 429.6878 763.6683 418.9478 737.3083 418.9478C710.4483 418.9478 686.5283 428.2178 664.0583 448.2378L443.3583 645.5078L353.0283 563.9678C332.5183 545.4078 310.0583 536.1278 287.1083 536.1278C265.1383 536.1278 244.6283 544.9178 224.1183 563.4778L78.6183 694.8278V155.7578C78.6183 104.9778 105.4683 78.6178 154.2983 78.6178H997.0683C1045.4083 78.6178 1072.7583 104.9778 1072.7583 155.7578V694.8278ZM363.7683 454.0978C426.7583 454.0978 478.5183 402.3478 478.5183 338.8678C478.5183 275.8778 426.7583 223.6278 363.7683 223.6278C300.2883 223.6278 248.5383 275.8778 248.5383 338.8678C248.5383 402.3478 300.2883 454.0978 363.7683 454.0978Z"/>
</svg>