<?xml version="1.0" encoding="UTF-8" standalone="no"?>
<svg xmlns="http://www.w3.org/2000/svg"
     width="1151.3671875" height="898.92578125"
     viewBox="0 0 1151.3671875 898.92578125"
     fill="currentColor">
  <path d="M153.3183 898.9278H998.0483C1100.5883 898.9278 1151.3683 848.6378 1151.3683 748.0478V151.3678C1151.3683 50.7778 1100.5883 -0.0022 998.0483 -0.0022H153.3183C51.2683 -0.0022 -0.0017 50.7778 -0.0017 151.3678V748.0478C-0.0017 848.6378 51.2683 898.9278 153.3183 898.9278ZM154.2983 820.3078C105.4683 820.3078 78.6183 794.4378 78.6183 743.6478V155.7578C78.6183 104.9778 105.4683 78.6178 154.2983 78.6178H216.3083V476.0778C216.3083 511.7178 238.7683 525.3878 262.2083 525.3878H274.8983V820.3078ZM333.0083 525.3878C356.4483 525.3878 378.4183 511.7178 378.4183 476.0778V78.6178H494.6283V476.0778C494.6283 511.7178 517.0883 525.3878 540.0383 525.3878H553.2183V820.3078H320.3083V525.3878ZM611.3283 525.3878C634.7683 525.3878 656.7383 511.7178 656.7383 476.0778V78.6178H772.9483V476.0778C772.9483 511.7178 794.9183 525.3878 818.3583 525.3878H831.5383V820.3078H598.6283V525.3878ZM889.6483 525.3878C913.0883 525.3878 935.0583 511.7178 935.0583 476.0778V78.6178H997.0683C1045.4083 78.6178 1072.7583 104.9778 1072.7583 155.7578V743.6478C1072.7583 794.4378 1045.4083 820.3078 997.0683 820.3078H876.9483V525.3878Z"/>
</svg>