<?xml version="1.0" encoding="UTF-8" standalone="no"?>
<svg xmlns="http://www.w3.org/2000/svg"
     width="996.09375" height="996.09375"
     viewBox="0 0 996.09375 996.09375"
     fill="currentColor">
  <path d="M498.0477 996.0977C770.5077 996.0977 996.0977 770.5077 996.0977 498.0477C996.0977 226.0777 770.0177 -0.0023 497.5577 -0.0023C225.5877 -0.0023 -0.0023 226.0777 -0.0023 498.0477C-0.0023 770.5077 226.0777 996.0977 498.0477 996.0977ZM300.2977 593.2577C300.2977 539.5477 343.2577 481.9377 415.0377 456.5477L423.3377 338.3777C387.2077 317.8677 356.9377 294.4377 343.7477 277.3477C336.4277 268.0677 332.5177 258.7877 332.5177 250.4877C332.5177 234.8677 344.7277 223.6377 362.7977 223.6377H634.2777C652.3477 223.6377 664.5477 234.8677 664.5477 250.4877C664.5477 258.7877 660.6477 268.0677 653.8077 276.8577C640.6277 293.9477 610.3477 317.8677 573.7277 338.3777L581.5477 456.5477C653.8077 481.9377 696.7777 539.5477 696.7777 593.2577C696.7777 615.2377 682.1277 629.3977 659.6677 629.3977H529.7877V718.7477C529.7877 773.4377 507.8077 819.3377 498.5377 819.3377C489.2577 819.3377 467.2877 773.4377 467.2877 718.7477V629.3977H336.9177C314.4577 629.3977 300.2977 615.2377 300.2977 593.2577Z"/>
</svg>