<?xml version="1.0" encoding="UTF-8" standalone="no"?>
<svg xmlns="http://www.w3.org/2000/svg"
     width="957.8254573626918" height="1138.18359375"
     viewBox="0 0 957.8254573626918 1138.18359375"
     fill="currentColor">
  <path d="M238.1609 0C203.4909 0 181.0309 21.97 181.0309 51.76C181.0309 65.92 186.4009 82.03 199.1009 98.63C224.0009 131.84 283.0809 178.22 354.8609 218.75L350.4609 282.71L836.3009 768.07C862.1809 757.81 877.3209 735.35 877.3209 704.59C877.3209 601.56 794.8009 492.68 657.5909 442.87L641.4809 218.75C712.7709 178.22 770.8709 132.81 796.2609 100.1C809.4509 83.01 815.8009 66.41 815.8009 51.76C815.8009 21.97 792.8509 0 758.6709 0ZM10.6209 134.77L893.4309 1016.6C908.5709 1031.25 932.4909 1031.25 946.6509 1016.6C961.3009 1001.95 961.7909 978.03 946.6509 963.38L64.3309 81.54C49.6809 66.89 25.2709 66.41 10.6209 81.54C-3.5391 95.7 -3.5391 120.12 10.6209 134.77ZM119.0209 704.59C119.0209 746.09 146.8509 773.44 190.8009 773.44H454.9609V1001.46C454.9609 1076.17 486.2109 1138.18 498.4109 1138.18C510.1309 1138.18 541.3809 1076.17 541.3809 1001.46V780.27H569.7009L268.9209 478.52C174.6809 533.69 119.0209 620.61 119.0209 704.59Z"/>
</svg>