<?xml version="1.0" encoding="UTF-8" standalone="no"?>
<svg xmlns="http://www.w3.org/2000/svg"
     width="898.92578125" height="898.92578125"
     viewBox="0 0 898.92578125 898.92578125"
     fill="currentColor">
  <path d="M153.3183 898.9295H745.6083C848.1483 898.9295 898.9283 848.1495 898.9283 747.5595V151.3695C898.9283 50.7795 848.1483 -0.0005 745.6083 -0.0005H153.3183C51.2683 -0.0005 -0.0017 50.2895 -0.0017 151.3695V747.5595C-0.0017 848.6295 51.2683 898.9295 153.3183 898.9295ZM251.9483 543.4595C251.9483 490.2295 294.9183 432.6195 367.1883 407.2295L374.9983 289.0595C338.8683 268.5595 309.0783 245.1195 295.4083 228.0295C288.0883 218.7495 284.1783 209.4695 284.1783 201.1695C284.1783 185.5495 296.3883 174.3195 314.4483 174.3195H585.9383C604.0083 174.3195 616.2083 185.5495 616.2083 201.1695C616.2083 209.4695 612.3083 218.2595 605.9583 227.5395C592.2883 244.6295 562.0083 268.0695 525.3883 289.0595L533.6883 407.2295C605.4683 432.6195 648.4383 490.2295 648.4383 543.4595C648.4383 565.9195 634.2783 579.5895 611.3283 579.5895H481.4483V669.4295C481.4483 724.1195 459.4683 769.5295 450.1983 769.5295C440.9183 769.5295 418.9483 724.1195 418.9483 669.4295V579.5895H289.0583C266.5983 579.5895 251.9483 565.9195 251.9483 543.4595Z"/>
</svg>