<?xml version="1.0" encoding="UTF-8" standalone="no"?>
<svg xmlns="http://www.w3.org/2000/svg"
     width="996.09375" height="996.09375"
     viewBox="0 0 996.09375 996.09375"
     fill="currentColor">
  <path d="M498.0477 996.0959C770.5077 996.0959 996.0977 770.0159 996.0977 498.0459C996.0977 225.5859 770.0177 -0.0041 497.5577 -0.0041C225.5877 -0.0041 -0.0023 225.5859 -0.0023 498.0459C-0.0023 770.0159 226.0777 996.0959 498.0477 996.0959ZM498.0477 913.0859C267.5777 913.0859 83.4977 728.5159 83.4977 498.0459C83.4977 267.5759 267.0877 83.0059 497.5577 83.0059C728.0277 83.0059 913.0877 267.5759 913.0877 498.0459C913.0877 728.5159 728.5177 913.0859 498.0477 913.0859ZM305.6677 590.8159C305.6677 612.3059 319.3377 625.4859 341.3077 625.4859H467.7777V712.8859C467.7777 766.1159 489.2577 810.0559 498.0477 810.0559C506.8377 810.0559 528.3177 766.1159 528.3177 712.8859V625.4859H654.2977C676.2677 625.4859 690.4277 612.3059 690.4277 590.8159C690.4277 539.0659 648.4377 483.3959 578.6177 458.4959L570.7977 343.7459C606.4477 323.7259 635.7377 300.7859 648.4377 284.1759C655.2777 275.3859 658.6877 266.6059 658.6877 258.7859C658.6877 243.6559 646.9777 232.9059 629.3977 232.9059H366.6977C349.1177 232.9059 337.3977 243.6559 337.3977 258.7859C337.3977 266.6059 340.8177 275.8759 348.1477 284.6659C360.8377 301.2659 390.1377 324.2159 425.2977 343.7459L416.9877 458.4959C347.6577 483.3959 305.6677 539.0659 305.6677 590.8159Z"/>
</svg>