<?xml version="1.0" encoding="UTF-8" standalone="no"?>
<svg xmlns="http://www.w3.org/2000/svg"
     width="758.30078125" height="1138.18359375"
     viewBox="0 0 758.30078125 1138.18359375"
     fill="currentColor">
  <path d="M0.0023 704.59C0.0023 746.09 27.8323 773.44 71.7823 773.44H335.9423V1001.46C335.9423 1076.17 367.1923 1138.18 379.3923 1138.18C391.1123 1138.18 422.3623 1076.17 422.3623 1001.46V773.44H686.5223C730.4723 773.44 758.3023 746.09 758.3023 704.59C758.3023 601.56 675.7823 492.68 538.5723 442.87L522.4623 218.75C593.7523 178.22 652.3423 132.32 677.7323 99.61C690.4323 83.01 696.7823 66.41 696.7823 51.76C696.7823 21.97 673.8323 0 639.6523 0H119.1423C84.4723 0 62.0123 21.97 62.0123 51.76C62.0123 66.41 67.8723 83.01 80.5623 99.61C105.9523 132.32 164.5523 178.22 235.8423 218.75L219.7223 442.87C82.5223 492.68 0.0023 601.56 0.0023 704.59Z"/>
</svg>