<?xml version="1.0" encoding="UTF-8" standalone="no"?>
<svg xmlns="http://www.w3.org/2000/svg"
     width="1265.13671875" height="1022.94921875"
     viewBox="0 0 1265.13671875 1022.94921875"
     fill="currentColor">
  <path d="M153.3183 796.8713H479.0083V871.5813C479.0083 972.1713 530.2783 1022.9513 632.3283 1022.9513H1112.3083C1213.8683 1022.9513 1265.1383 972.1713 1265.1383 871.5813V555.1713C1265.1383 454.5913 1213.8683 403.8112 1112.3083 403.8112H1018.5583V151.3713C1018.5583 50.7813 967.2883 0.0013 865.7183 0.0013H153.3183C50.7783 0.0013 -0.0017 50.7813 -0.0017 151.3713V645.5113C-0.0017 746.0912 50.7783 796.8713 153.3183 796.8713ZM154.2983 718.2613C105.4683 718.2613 78.6183 691.8913 78.6183 641.1113V155.7613C78.6183 104.9813 105.4683 78.6113 154.2983 78.6113H864.2583C912.5983 78.6113 939.9383 104.9813 939.9383 155.7613V403.8112H632.3283C530.2783 403.8112 479.0083 454.1013 479.0083 555.1713V718.2613ZM633.2983 944.3313C584.4683 944.3313 557.6183 917.9713 557.6183 867.1913V559.0813C557.6183 508.3013 584.4683 482.4213 633.2983 482.4213H1110.8383C1159.1783 482.4213 1186.5283 508.3013 1186.5283 559.0813V867.1913C1186.5283 917.9713 1159.1783 944.3313 1110.8383 944.3313Z"/>
</svg>