<?xml version="1.0" encoding="UTF-8" standalone="no"?>
<svg xmlns="http://www.w3.org/2000/svg"
     width="1265.13671875" height="1022.94921875"
     viewBox="0 0 1265.13671875 1022.94921875"
     fill="currentColor">
  <path d="M153.3183 796.8713H479.0083V871.5813C479.0083 972.1713 530.2783 1022.9513 632.3283 1022.9513H1112.3083C1213.8683 1022.9513 1265.1383 972.1713 1265.1383 871.5813V555.1713C1265.1383 454.5913 1213.8683 403.8112 1112.3083 403.8112H1018.5583V151.3713C1018.5583 50.7813 967.2883 0.0013 865.7183 0.0013H153.3183C50.7783 0.0013 -0.0017 50.7813 -0.0017 151.3713V645.5113C-0.0017 746.0912 50.7783 796.8713 153.3183 796.8713ZM154.2983 718.2613C105.4683 718.2613 78.6183 691.8913 78.6183 641.1113V155.7613C78.6183 104.9813 105.4683 78.6113 154.2983 78.6113H864.2583C912.5983 78.6113 939.9383 104.9813 939.9383 155.7613V403.8112H632.3283C530.2783 403.8112 479.0083 454.1013 479.0083 555.1713V718.2613ZM739.2583 885.2513C717.7783 885.2513 700.1983 867.6713 700.1983 845.7013C700.1983 835.4513 705.0783 826.1713 711.9183 818.8513L816.8983 713.3813L711.9183 607.9113C705.0783 600.1012 700.1983 591.3113 700.1983 580.5713C700.1983 559.0813 717.7783 541.9913 739.2583 541.9913C750.4883 541.9913 758.7883 546.3913 766.5983 553.7113L872.0683 658.6913L978.5183 553.2213C986.8183 545.4113 995.1183 541.0113 1005.3683 541.0113C1027.3483 541.0113 1044.9183 558.5912 1044.9183 580.0813C1044.9183 590.8213 1041.0183 599.1212 1032.7183 607.4213L927.7383 713.3813L1032.2283 818.3613C1040.0383 825.6813 1044.4383 834.9612 1044.4383 845.7013C1044.4383 867.6713 1026.8583 885.2513 1004.8783 885.2513C993.6483 885.2513 984.3783 880.8613 977.0483 873.5313L872.0683 768.5513L767.5783 873.5313C760.2583 881.3513 750.4883 885.2513 739.2583 885.2513Z"/>
</svg>