<?xml version="1.0" encoding="UTF-8" standalone="no"?>
<svg xmlns="http://www.w3.org/2000/svg"
     width="1178.7109375" height="935.05859375"
     viewBox="0 0 1178.7109375 935.05859375"
     fill="currentColor">
  <path d="M100.0983 522.4642H161.6183C228.0283 522.4642 261.2283 490.2342 261.2283 425.2942V404.7842H429.6883L467.7783 333.4942H261.2283V186.0342H917.4783V333.4942H711.9183L750.4883 404.7842H917.4783V425.2942C917.4783 490.2342 950.6883 522.4642 1017.5783 522.4642H1078.6183C1145.9983 522.4642 1178.7083 490.2342 1178.7083 425.2942V97.1642C1178.7083 32.2242 1145.9983 0.0042 1078.6183 0.0042H1017.5783C950.6883 0.0042 917.4783 32.2242 917.4783 97.1642V114.7442H261.2283V97.1642C261.2283 32.2242 228.0283 0.0042 161.6183 0.0042H100.0983C33.1983 0.0042 -0.0017 32.2242 -0.0017 97.1642V425.2942C-0.0017 490.2342 33.1983 522.4642 100.0983 522.4642ZM100.0983 448.7342C82.5183 448.7342 73.7283 439.9442 73.7283 421.8742V100.5842C73.7283 82.5242 82.5183 73.7342 100.0983 73.7342H161.6183C178.7083 73.7342 187.4983 82.5242 187.4983 100.5842V421.8742C187.4983 439.9442 178.7083 448.7342 161.6183 448.7342ZM1017.5783 448.7342C999.9983 448.7342 991.2083 439.9442 991.2083 421.8742V100.5842C991.2083 82.5242 999.9983 73.7342 1017.5783 73.7342H1078.6183C1096.1883 73.7342 1104.9783 82.5242 1104.9783 100.5842V421.8742C1104.9783 439.9442 1096.1883 448.7342 1078.6183 448.7342ZM589.8483 935.0542C711.4283 935.0542 808.1083 840.3342 808.1083 721.6842C808.1083 656.7342 775.3883 592.2842 748.0483 541.5042L638.1883 336.9142C625.4883 313.4742 611.3283 302.7342 589.8483 302.7342C568.3583 302.7342 554.1983 313.4742 541.5083 336.4242L432.1283 541.5042C404.7883 592.2842 372.0683 656.7342 372.0683 721.6842C372.0683 840.3342 468.7483 935.0542 589.8483 935.0542ZM589.8483 865.7242C507.3283 865.7242 441.4083 802.2442 441.4083 721.6842C441.4083 672.3642 466.3083 625.0042 493.6483 573.7342L584.9583 403.3242C587.8883 398.4342 592.7783 398.4342 595.6983 403.3242L686.5283 573.7342C713.3783 625.0042 738.7683 672.3642 738.7683 721.6842C738.7683 802.2442 672.8483 865.7242 589.8483 865.7242Z"/>
</svg>