<?xml version="1.0" encoding="UTF-8" standalone="no"?>
<svg xmlns="http://www.w3.org/2000/svg"
     width="1151.3671875" height="898.92578125"
     viewBox="0 0 1151.3671875 898.92578125"
     fill="currentColor">
  <path d="M153.3183 898.9295H998.0483C1100.5883 898.9295 1151.3683 848.1495 1151.3683 747.5595V151.3695C1151.3683 50.7795 1100.5883 -0.0005 998.0483 -0.0005H153.3183C51.2683 -0.0005 -0.0017 50.2895 -0.0017 151.3695V747.5595C-0.0017 848.6295 51.2683 898.9295 153.3183 898.9295ZM154.2983 820.3095C105.4683 820.3095 78.6183 794.4295 78.6183 743.6495V155.2695C78.6183 104.4895 105.4683 78.6095 154.2983 78.6095H997.0683C1045.4083 78.6095 1072.7583 104.4895 1072.7583 155.2695V743.6495C1072.7583 794.4295 1045.4083 820.3095 997.0683 820.3095ZM214.8483 565.4295H484.3783C510.2583 565.4295 527.8283 547.8495 527.8283 520.9995V377.9295C527.8283 350.5895 510.2583 333.4995 484.3783 333.4995H214.8483C188.4783 333.4995 171.3883 350.5895 171.3883 377.9295V520.9995C171.3883 547.8495 188.4783 565.4295 214.8483 565.4295ZM657.2283 565.4295H927.2483C953.1283 565.4295 970.6983 547.8495 970.6983 520.9995V377.9295C970.6983 350.5895 953.1283 333.4995 927.2483 333.4995H657.2283C631.3483 333.4995 613.7683 350.5895 613.7683 377.9295V520.9995C613.7683 547.8495 631.3483 565.4295 657.2283 565.4295Z"/>
</svg>