<?xml version="1.0" encoding="UTF-8" standalone="no"?>
<svg xmlns="http://www.w3.org/2000/svg"
     width="875" height="932.6171875"
     viewBox="0 0 875 932.6171875"
     fill="currentColor">
  <path d="M219.2383 932.6211H591.3083C728.5183 932.6211 810.5483 849.1211 810.5483 709.4711V415.0411H823.7283C854.9783 415.0411 874.9983 393.5511 874.9983 359.8611V278.3211C874.9983 243.6511 854.9783 222.1711 823.7283 222.1711H810.5483C810.5483 83.0111 728.5183 0.0011 591.3083 0.0011H219.2383C82.0283 0.0011 -0.0017 83.0111 -0.0017 222.6611V709.4711C-0.0017 849.1211 82.0283 932.6211 219.2383 932.6211ZM215.8183 854.0011C129.8783 854.0011 78.6183 801.7611 78.6183 712.8911V221.6811C78.6183 133.3011 129.8783 81.0511 215.8183 81.0511H594.7283C681.1483 81.0511 731.9383 133.3011 731.9383 221.6811V712.8911C731.9383 801.7611 681.1483 854.0011 594.7283 854.0011ZM143.5583 719.2411C143.5583 762.2111 168.4583 788.5711 209.4683 788.5711H601.5583C642.0883 788.5711 666.9883 762.2111 666.9883 719.2411V633.3011C666.9883 591.3111 641.1183 563.4811 601.5583 563.4811H209.4683C169.4383 563.4811 143.5583 591.3111 143.5583 633.3011Z"/>
</svg>