<?xml version="1.0" encoding="UTF-8" standalone="no"?>
<svg xmlns="http://www.w3.org/2000/svg"
     width="627.9296875" height="1033.69140625"
     viewBox="0 0 627.9296875 1033.69140625"
     fill="currentColor">
  <path d="M132.8083 1033.6889H495.1183C574.7083 1033.6889 627.9283 982.9089 627.9283 906.7389V126.9489C627.9283 50.7789 574.7083 -0.0011 495.1183 -0.0011H132.8083C53.2183 -0.0011 -0.0017 50.7789 -0.0017 126.9489V906.7389C-0.0017 982.9089 53.2183 1033.6889 132.8083 1033.6889ZM143.0683 955.0789C101.5583 955.0789 78.6183 933.1089 78.6183 894.0389V139.6489C78.6183 100.5889 101.5583 78.6089 143.0683 78.6089H485.3483C526.3683 78.6089 549.3183 100.5889 549.3183 139.6489V894.0389C549.3183 933.1089 526.3683 955.0789 485.3483 955.0789ZM184.5683 414.5489H443.8483C469.7283 414.5489 487.3083 396.9689 487.3083 370.1189V278.8089C487.3083 251.9489 469.7283 234.3789 443.8483 234.3789H184.5683C158.1983 234.3789 141.1183 251.9489 141.1183 278.8089V370.1189C141.1183 396.9689 158.1983 414.5489 184.5683 414.5489ZM184.5683 797.8489H443.8483C469.7283 797.8489 487.3083 780.7589 487.3083 753.4189V662.5989C487.3083 635.2489 469.7283 618.1689 443.8483 618.1689H184.5683C158.1983 618.1689 141.1183 635.2489 141.1183 662.5989V753.4189C141.1183 780.7589 158.1983 797.8489 184.5683 797.8489Z"/>
</svg>