<?xml version="1.0" encoding="UTF-8" standalone="no"?>
<svg xmlns="http://www.w3.org/2000/svg"
     width="627.44140625" height="1033.69140625"
     viewBox="0 0 627.44140625 1033.69140625"
     fill="currentColor">
  <path d="M-0.0017 906.7389C-0.0017 982.9089 53.2183 1033.6889 132.8083 1033.6889H494.6283C574.2183 1033.6889 627.4383 982.9089 627.4383 906.7389V126.9489C627.4383 50.7789 574.2183 -0.0011 494.6283 -0.0011H132.8083C53.2183 -0.0011 -0.0017 50.7789 -0.0017 126.9489ZM78.6183 894.0389V139.6489C78.6183 100.5889 101.5583 78.6089 143.0683 78.6089H484.8683C525.8783 78.6089 548.8283 100.5889 548.8283 139.6489V894.0389C548.8283 933.1089 525.8783 955.0789 484.8683 955.0789H143.0683C101.5583 955.0789 78.6183 933.1089 78.6183 894.0389ZM184.5683 287.5989H443.3583C469.2383 287.5989 486.8183 270.5089 486.8183 243.1689V185.0589C486.8183 158.1989 469.2383 140.6289 443.3583 140.6289H184.5683C158.1983 140.6289 141.1183 158.1989 141.1183 185.0589V243.1689C141.1183 270.5089 158.1983 287.5989 184.5683 287.5989ZM178.7083 462.8889C178.7083 478.5189 189.4483 488.7689 204.0983 488.7689C211.9183 489.2589 217.7783 485.8389 223.1483 480.9589L262.6983 441.8989L289.5483 408.1989L287.1083 470.6989V608.3989C287.1083 623.5389 298.3383 634.7689 313.9683 634.7689C329.5883 634.7689 340.3283 623.5389 340.3283 608.3989V470.6989L338.3783 408.1989L365.2383 441.8989L404.2983 480.9589C409.6683 485.8389 415.5283 489.2589 423.3383 488.7689C438.4783 488.7689 449.2183 478.5189 449.2183 462.8889C449.2183 456.0589 447.2683 449.2189 442.3783 444.3389L333.9883 336.9189C328.1283 331.0589 320.7983 327.6389 313.9683 327.6389C306.6383 327.6389 299.3183 331.0589 293.4583 336.9189L185.0583 444.3389C180.1783 449.2189 178.7083 456.0589 178.7083 462.8889Z"/>
</svg>