<?xml version="1.0" encoding="UTF-8" standalone="no"?>
<svg xmlns="http://www.w3.org/2000/svg"
     width="996.09375" height="996.09375"
     viewBox="0 0 996.09375 996.09375"
     fill="currentColor">
  <path d="M498.0477 996.0959C770.5077 996.0959 996.0977 770.0159 996.0977 498.0459C996.0977 225.5859 770.0177 -0.0041 497.5577 -0.0041C225.5877 -0.0041 -0.0023 225.5859 -0.0023 498.0459C-0.0023 770.0159 226.0777 996.0959 498.0477 996.0959ZM498.0477 913.0859C267.5777 913.0859 83.4977 728.5159 83.4977 498.0459C83.4977 267.5759 267.0877 83.0059 497.5577 83.0059C728.0277 83.0059 913.0877 267.5759 913.0877 498.0459C913.0877 728.5159 728.5177 913.0859 498.0477 913.0859ZM291.0177 427.7359C291.0177 366.6959 322.7577 334.9559 384.2777 334.9559H673.8277V329.5859C673.8277 285.1559 651.3677 263.1859 606.4477 263.1859H280.2777C235.3477 263.1859 212.8877 285.1559 212.8877 329.5859V556.1559C212.8877 600.0959 235.3477 622.5559 280.2777 622.5559H291.0177ZM387.2077 725.5859H713.8677C758.2977 725.5859 780.7577 703.6159 780.7577 659.1759V430.6659C780.7577 387.2059 758.2977 364.2559 713.8677 364.2559H387.2077C342.2877 364.2559 320.3077 387.2059 320.3077 430.6659V659.1759C320.3077 703.6159 342.2877 725.5859 387.2077 725.5859ZM485.3477 628.9059V461.9159C485.3477 450.6859 496.5777 447.2659 505.3677 452.6359L645.0177 534.6659C653.3177 539.5459 653.8077 550.7859 645.5077 555.6659L505.3677 638.6759C496.5777 644.0459 485.3477 639.6459 485.3477 628.9059Z"/>
</svg>