<?xml version="1.0" encoding="UTF-8" standalone="no"?>
<svg xmlns="http://www.w3.org/2000/svg"
     width="996.09375" height="996.09375"
     viewBox="0 0 996.09375 996.09375"
     fill="currentColor">
  <path d="M498.0477 996.0959C770.5077 996.0959 996.0977 770.0159 996.0977 498.0459C996.0977 225.5859 770.0177 -0.0041 497.5577 -0.0041C225.5877 -0.0041 -0.0023 225.5859 -0.0023 498.0459C-0.0023 770.0159 226.0777 996.0959 498.0477 996.0959ZM226.0777 687.4959C203.6177 701.6559 177.2477 690.4259 177.2477 666.5059V330.5659C177.2477 307.1259 205.0777 295.8959 226.0777 309.0859L477.0477 472.6559C496.5777 485.3559 496.5777 511.2259 477.0477 524.9059ZM563.4777 687.0159C539.5477 687.0159 528.3177 673.8259 528.3177 655.2759V340.8159C528.3177 321.7759 539.5477 309.0859 563.4777 309.0859H610.8377C634.7677 309.0859 645.5077 321.7759 645.5077 340.8159V655.2759C645.5077 673.8259 634.7677 687.0159 610.8377 687.0159ZM738.2777 687.0159C714.3577 687.0159 702.6377 673.8259 702.6377 655.2759V340.8159C702.6377 321.7759 714.3577 309.0859 738.2777 309.0859H785.6477C808.5977 309.0859 819.8277 321.7759 819.8277 340.8159V655.2759C819.8277 673.8259 808.5977 687.0159 785.6477 687.0159Z"/>
</svg>