<?xml version="1.0" encoding="UTF-8" standalone="no"?>
<svg xmlns="http://www.w3.org/2000/svg"
     width="738.28125" height="826.66015625"
     viewBox="0 0 738.28125 826.66015625"
     fill="currentColor">
  <path d="M58.5983 826.6567C78.1283 826.6567 94.7283 818.8467 114.2583 807.6167L683.5983 478.5167C724.1183 454.5867 738.2783 438.9667 738.2783 413.0867C738.2783 387.2067 724.1183 371.5867 683.5983 348.1467L114.2583 18.5567C94.7283 7.3267 78.1283 -0.0033 58.5983 -0.0033C22.4583 -0.0033 -0.0017 27.3467 -0.0017 69.8267V756.3467C-0.0017 798.8267 22.4583 826.6567 58.5983 826.6567ZM83.4983 733.3967C80.5683 733.3967 78.6183 731.4467 78.6183 727.5367V98.6367C78.6183 94.7267 80.5683 92.7767 83.4983 92.7767C85.4483 92.7767 87.3983 93.7467 89.3583 95.2167L629.8783 407.7167C632.3283 409.1767 634.2783 410.6467 634.2783 413.0867C634.2783 415.5267 632.3283 417.4767 629.8783 418.4567L89.3583 731.4467C87.3983 732.4267 85.4483 733.3967 83.4983 733.3967Z"/>
</svg>