<?xml version="1.0" encoding="UTF-8" standalone="no"?>
<svg xmlns="http://www.w3.org/2000/svg"
     width="1256.8359375" height="806.640625"
     viewBox="0 0 1256.8359375 806.640625"
     fill="currentColor">
  <path d="M892.5783 806.6411C915.5283 806.6411 934.0783 789.0611 934.0783 766.1111V41.0111C934.0783 18.0711 915.5283 0.0011 892.5783 0.0011C869.6283 0.0011 850.5883 18.0711 850.5883 41.0111V766.1111C850.5883 789.0611 869.6283 806.6411 892.5783 806.6411ZM1214.8483 806.6411C1238.2783 806.6411 1256.8383 789.0611 1256.8383 766.1111V41.0111C1256.8383 18.0711 1238.2783 0.0011 1214.8483 0.0011C1191.8983 0.0011 1173.3383 18.0711 1173.3383 41.0111V766.1111C1173.3383 789.0611 1191.8983 806.6411 1214.8483 806.6411ZM70.3083 787.1111C90.3283 787.1111 106.4483 780.7611 126.4683 769.0411L624.0283 476.0711C658.6883 455.5711 673.3383 431.1511 673.3383 403.3211C673.3383 375.4911 658.6883 351.0711 624.0283 330.5711L126.4683 37.6011C106.4483 25.8811 90.3283 19.5311 70.3083 19.5311C31.7383 19.5311 -0.0017 48.8311 -0.0017 103.5111V703.1211C-0.0017 757.8111 31.7383 787.1111 70.3083 787.1111ZM91.7983 696.7811C84.4683 696.7811 78.1283 691.8911 78.1283 682.1311V124.5111C78.1283 114.7411 84.4683 109.8611 91.7983 109.8611C94.7283 109.8611 98.6283 111.3311 103.5183 114.2611L567.8683 389.6511C574.7083 393.5511 578.1283 396.4811 578.1283 403.3211C578.1283 409.6711 574.2183 413.0811 567.8683 416.9911L103.5183 692.3811C98.6283 695.3111 94.7283 696.7811 91.7983 696.7811Z"/>
</svg>