<?xml version="1.0" encoding="UTF-8" standalone="no"?>
<svg xmlns="http://www.w3.org/2000/svg"
     width="1466.796875" height="795.41015625"
     viewBox="0 0 1466.796875 795.41015625"
     fill="currentColor">
  <path d="M901.3683 795.41H1012.6983C1055.1783 795.41 1077.6383 772.95 1077.6383 729.98V64.94C1077.6383 20.51 1055.1783 0 1012.6983 0H901.3683C858.8883 0 836.4283 22.46 836.4283 64.94V729.98C836.4283 772.95 858.8883 795.41 901.3683 795.41ZM1291.0183 795.41H1401.8583C1444.8283 795.41 1466.7983 772.95 1466.7983 729.98V64.94C1466.7983 20.51 1444.8283 0 1401.8583 0H1291.0183C1248.0483 0 1226.0783 22.46 1226.0783 64.94V729.98C1226.0783 772.95 1248.0483 795.41 1291.0183 795.41ZM70.3083 780.76C90.3283 780.76 106.4483 774.41 126.4683 762.7L624.0283 470.21C658.6883 449.71 673.3383 425.29 673.3383 397.46C673.3383 369.14 658.6883 345.21 624.0283 324.71L126.4683 31.74C106.4483 20.02 90.3283 13.67 70.3083 13.67C31.7383 13.67 -0.0017 42.97 -0.0017 97.66V697.27C-0.0017 751.95 31.7383 780.76 70.3083 780.76Z"/>
</svg>