<?xml version="1.0" encoding="UTF-8" standalone="no"?>
<svg xmlns="http://www.w3.org/2000/svg"
     width="1151.3671875" height="898.92578125"
     viewBox="0 0 1151.3671875 898.92578125"
     fill="currentColor">
  <path d="M153.3183 898.9278H998.0483C1100.5883 898.9278 1151.3683 848.6378 1151.3683 748.0478V151.3678C1151.3683 50.7778 1100.5883 -0.0022 998.0483 -0.0022H153.3183C51.2683 -0.0022 -0.0017 50.7778 -0.0017 151.3678V748.0478C-0.0017 848.6378 51.2683 898.9278 153.3183 898.9278ZM154.2983 820.3078C105.4683 820.3078 78.6183 794.4378 78.6183 743.6478V155.7578C78.6183 104.9778 105.4683 78.6178 154.2983 78.6178H997.0683C1045.4083 78.6178 1072.7583 104.9778 1072.7583 155.7578V743.6478C1072.7583 794.4378 1045.4083 820.3078 997.0683 820.3078ZM349.6083 449.2178C349.6083 473.1478 366.6983 489.2578 391.5983 489.2578H535.1583V633.2978C535.1583 657.7178 551.7583 674.8078 575.1983 674.8078C600.0983 674.8078 617.1883 658.2078 617.1883 633.2978V489.2578H761.2283C785.6483 489.2578 802.2483 473.1478 802.2483 449.2178C802.2483 424.8078 785.6483 407.7178 761.2283 407.7178H617.1883V264.1578C617.1883 239.2578 600.0983 222.1678 575.1983 222.1678C551.7583 222.1678 535.1583 239.2578 535.1583 264.1578V407.7178H391.5983C366.6983 407.7178 349.6083 424.8078 349.6083 449.2178Z"/>
</svg>