<?xml version="1.0" encoding="UTF-8" standalone="no"?>
<svg xmlns="http://www.w3.org/2000/svg"
     width="996.09375" height="996.09375"
     viewBox="0 0 996.09375 996.09375"
     fill="currentColor">
  <path d="M498.0477 996.0959C770.5077 996.0959 996.0977 770.0159 996.0977 498.0459C996.0977 225.5859 770.0177 -0.0041 497.5577 -0.0041C225.5877 -0.0041 -0.0023 225.5859 -0.0023 498.0459C-0.0023 770.0159 226.0777 996.0959 498.0477 996.0959ZM498.0477 913.0859C267.5777 913.0859 83.4977 728.5159 83.4977 498.0459C83.4977 267.5759 267.0877 83.0059 497.5577 83.0059C728.0277 83.0059 913.0877 267.5759 913.0877 498.0459C913.0877 728.5159 728.5177 913.0859 498.0477 913.0859ZM271.4877 498.0459C271.4877 521.9759 288.0877 538.0859 312.9877 538.0859H456.5477V682.1259C456.5477 706.5459 473.1477 723.6359 497.0677 723.6359C521.4877 723.6359 538.5777 707.0359 538.5777 682.1259V538.0859H682.6177C707.0277 538.0859 724.1177 521.9759 724.1177 498.0459C724.1177 473.6359 707.0277 456.5459 682.6177 456.5459H538.5777V312.9859C538.5777 288.0859 521.4877 270.9959 497.0677 270.9959C473.1477 270.9959 456.5477 288.0859 456.5477 312.9859V456.5459H312.9877C288.0877 456.5459 271.4877 473.6359 271.4877 498.0459Z"/>
</svg>