<?xml version="1.0" encoding="UTF-8" standalone="no"?>
<svg xmlns="http://www.w3.org/2000/svg"
     width="1076.171875" height="1010.25390625"
     viewBox="0 0 1076.171875 1010.25390625"
     fill="currentColor">
  <path d="M300.2883 1010.2519C324.2183 1010.2519 340.8183 997.5619 370.6083 971.1919L539.0583 821.2919H852.5383C998.0483 821.2919 1076.1683 740.7219 1076.1683 597.6519V223.6319C1076.1683 80.5619 998.0483 0.0019 852.5383 0.0019H223.6283C78.1283 0.0019 -0.0017 80.0819 -0.0017 223.6319V597.6519C-0.0017 741.2119 78.1283 821.2919 223.6283 821.2919H247.0683V948.2419C247.0683 985.8419 266.1183 1010.2519 300.2883 1010.2519ZM320.3083 920.9019V779.2919C320.3083 752.9319 310.0583 742.6719 283.6883 742.6719H223.6283C124.9983 742.6719 78.6183 692.3819 78.6183 597.1719V223.6319C78.6183 128.4219 124.9983 78.6119 223.6283 78.6119H852.5383C950.6883 78.6119 997.5583 128.4219 997.5583 223.6319V597.1719C997.5583 692.3819 950.6883 742.6719 852.5383 742.6719H536.1283C508.7883 742.6719 495.1183 746.5819 476.5583 765.6219ZM312.0083 410.6419C312.0083 434.5719 329.0983 450.6819 354.0083 450.6819H497.5583V594.7219C497.5583 619.1419 514.1583 636.2319 537.5983 636.2319C562.4983 636.2319 579.0983 619.6319 579.0983 594.7219V450.6819H723.1483C747.5583 450.6819 764.6483 434.5719 764.6483 410.6419C764.6483 386.2319 748.0483 369.1419 723.1483 369.1419H579.0983V225.5819C579.0983 200.6819 562.4983 183.5919 537.5983 183.5919C514.1583 183.5919 497.5583 200.6819 497.5583 225.5819V369.1419H354.0083C329.0983 369.1419 312.0083 386.2319 312.0083 410.6419Z"/>
</svg>