<?xml version="1.0" encoding="UTF-8" standalone="no"?>
<svg xmlns="http://www.w3.org/2000/svg"
     width="888.671875" height="888.18359375"
     viewBox="0 0 888.671875 888.18359375"
     fill="currentColor">
  <path d="M831.5383 57.615C781.7383 7.815 711.4283 -0.005 627.9283 -0.005H259.2783C177.2483 -0.005 106.9383 7.815 57.1283 57.615C7.3283 107.425 -0.0017 177.245 -0.0017 258.785V627.925C-0.0017 711.425 7.3283 780.765 57.1283 830.565C106.9383 880.375 177.2483 888.185 260.2583 888.185H627.9283C711.4283 888.185 781.7383 880.375 831.5383 830.565C881.3483 780.765 888.6683 711.425 888.6683 627.925V260.255C888.6683 176.755 881.3483 106.935 831.5383 57.615ZM206.0583 444.825C206.0583 419.435 223.6283 401.855 249.5083 401.855H402.3483V249.025C402.3483 223.635 418.9483 205.565 443.8483 205.565C469.2383 205.565 486.8183 223.635 486.8183 249.025V401.855H640.1383C665.0383 401.855 683.1083 419.435 683.1083 444.825C683.1083 469.725 665.0383 486.325 640.1383 486.325H486.8183V639.645C486.8183 665.035 469.2383 682.615 443.8483 682.615C418.9483 682.615 402.3483 664.555 402.3483 639.645V486.325H249.5083C224.1183 486.325 206.0583 469.725 206.0583 444.825Z"/>
</svg>