<?xml version="1.0" encoding="UTF-8" standalone="no"?>
<svg xmlns="http://www.w3.org/2000/svg"
     width="898.92578125" height="898.92578125"
     viewBox="0 0 898.92578125 898.92578125"
     fill="currentColor">
  <path d="M153.3183 898.9295H745.6083C848.1483 898.9295 898.9283 848.1495 898.9283 747.5595V151.3695C898.9283 50.7795 848.1483 -0.0005 745.6083 -0.0005H153.3183C51.2683 -0.0005 -0.0017 50.2895 -0.0017 151.3695V747.5595C-0.0017 848.6295 51.2683 898.9295 153.3183 898.9295ZM211.4283 449.2195C211.4283 423.8295 229.0083 406.2495 254.3983 406.2495H407.2283V253.4195C407.2283 228.0295 424.3183 209.9595 449.2183 209.9595C474.6083 209.9595 492.1883 228.0295 492.1883 253.4195V406.2495H645.5083C670.4083 406.2495 688.4783 423.8295 688.4783 449.2195C688.4783 474.1195 670.4083 490.7195 645.5083 490.7195H492.1883V644.0395C492.1883 669.4295 474.6083 687.0095 449.2183 687.0095C424.3183 687.0095 407.2283 668.9495 407.2283 644.0395V490.7195H254.3983C229.0083 490.7195 211.4283 474.1195 211.4283 449.2195Z"/>
</svg>