<?xml version="1.0" encoding="UTF-8" standalone="no"?>
<svg xmlns="http://www.w3.org/2000/svg"
     width="898.92578125" height="898.92578125"
     viewBox="0 0 898.92578125 898.92578125"
     fill="currentColor">
  <path d="M-0.0017 257.3195H78.6183V155.2695C78.6183 104.4895 105.4683 78.6095 154.2983 78.6095H255.3683V-0.0005H153.3183C51.2683 -0.0005 -0.0017 50.2895 -0.0017 151.3695ZM322.2683 78.6095H576.6583V-0.0005H322.2683ZM820.3083 257.3195H898.9283V151.3695C898.9283 50.7795 847.6583 -0.0005 745.6083 -0.0005H643.5583V78.6095H744.6283C792.9683 78.6095 820.3083 104.4895 820.3083 155.2695ZM223.6283 448.7295C223.6283 472.6595 240.2383 488.7695 265.1383 488.7695H408.6883V632.8095C408.6883 657.2295 425.2883 674.3195 449.2183 674.3195C473.6283 674.3195 490.7183 657.7195 490.7183 632.8095V488.7695H634.7683C659.1783 488.7695 676.2683 472.6595 676.2683 448.7295C676.2683 424.3195 659.1783 407.2295 634.7683 407.2295H490.7183V263.6695C490.7183 238.7695 473.6283 221.6795 449.2183 221.6795C425.2883 221.6795 408.6883 238.7695 408.6883 263.6695V407.2295H265.1383C240.2383 407.2295 223.6283 424.3195 223.6283 448.7295ZM820.3083 574.7095H898.9283V324.2195H820.3083ZM-0.0017 574.7095H78.6183V324.2195H-0.0017ZM643.5583 898.9295H745.6083C847.6583 898.9295 898.9283 848.1495 898.9283 747.5595V641.5995H820.3083V743.6495C820.3083 794.4295 792.9683 820.3095 744.6283 820.3095H643.5583ZM153.3183 898.9295H255.3683V820.3095H154.2983C105.4683 820.3095 78.6183 794.4295 78.6183 743.6495V641.5995H-0.0017V747.5595C-0.0017 848.6295 51.2683 898.9295 153.3183 898.9295ZM322.2683 898.9295H576.6583V820.3095H322.2683Z"/>
</svg>