<?xml version="1.0" encoding="UTF-8" standalone="no"?>
<svg xmlns="http://www.w3.org/2000/svg"
     width="1033.203125" height="1022.94921875"
     viewBox="0 0 1033.203125 1022.94921875"
     fill="currentColor">
  <path d="M153.3183 796.8713H236.8183V871.5813C236.8183 972.1713 287.5983 1022.9513 390.1383 1022.9513H880.3683C981.9383 1022.9513 1033.1983 972.1713 1033.1983 871.5813V377.4413C1033.1983 276.8513 981.9383 226.0712 880.3683 226.0712H796.3883V151.3713C796.3883 50.7813 745.1183 0.0013 643.5583 0.0013H153.3183C50.7783 0.0013 -0.0017 50.7813 -0.0017 151.3713V645.5113C-0.0017 746.0912 50.7783 796.8713 153.3183 796.8713ZM154.2983 718.2613C105.4683 718.2613 78.6183 691.8913 78.6183 641.1113V155.7613C78.6183 104.9813 105.4683 78.6113 154.2983 78.6113H642.0883C690.4283 78.6113 717.7783 104.9813 717.7783 155.7613V226.0712H390.1383C287.5983 226.0712 236.8183 276.3713 236.8183 377.4413V718.2613ZM391.1183 944.3313C342.7783 944.3313 315.4283 917.9713 315.4283 867.1913V381.8313C315.4283 331.0513 342.7783 304.6912 391.1183 304.6912H878.9083C927.2483 304.6912 954.5883 331.0513 954.5883 381.8313V867.1913C954.5883 917.9713 927.2483 944.3313 878.9083 944.3313ZM409.1783 624.5113C409.1783 648.4413 426.2683 664.5513 451.1683 664.5513H594.7283V808.5912C594.7283 833.0113 610.8383 850.1013 634.7683 850.1013C659.1783 850.1013 676.2683 833.4913 676.2683 808.5912V664.5513H820.3083C844.7283 664.5513 861.8183 648.4413 861.8183 624.5113C861.8183 600.1012 844.7283 583.0113 820.3083 583.0113H676.2683V439.4513C676.2683 414.5513 659.1783 397.4613 634.7683 397.4613C610.8383 397.4613 594.7283 414.5513 594.7283 439.4513V583.0113H451.1683C425.7783 583.0113 409.1783 600.1012 409.1783 624.5113Z"/>
</svg>