<?xml version="1.0" encoding="UTF-8" standalone="no"?>
<svg xmlns="http://www.w3.org/2000/svg"
     width="821.2890625" height="1046.875"
     viewBox="0 0 821.2890625 1046.875"
     fill="currentColor">
  <path d="M-0.0017 894.0466C-0.0017 996.0966 50.2883 1046.8766 151.3683 1046.8766H669.9183C770.9983 1046.8766 821.2883 996.0966 821.2883 894.0466V153.3166C821.2883 51.7566 770.9983 -0.0034 669.9183 -0.0034H151.3683C50.2883 -0.0034 -0.0017 51.7566 -0.0017 153.3166ZM78.6183 892.5766V154.7866C78.6183 105.9566 104.4883 78.6166 155.2783 78.6166H666.0183C716.7983 78.6166 742.6783 105.9566 742.6783 154.7866V892.5766C742.6783 941.4066 716.7983 968.2666 666.0183 968.2666H155.2783C104.4883 968.2666 78.6183 941.4066 78.6183 892.5766ZM184.5683 523.4366C184.5683 547.3666 201.6583 563.4766 226.5583 563.4766H370.1183V707.5166C370.1183 731.9366 386.7183 749.0266 410.1583 749.0266C435.0583 749.0266 451.6583 732.4266 451.6583 707.5166V563.4766H595.6983C620.1183 563.4766 637.2083 547.3666 637.2083 523.4366C637.2083 499.0266 620.6083 481.9366 595.6983 481.9366H451.6583V338.3766C451.6583 313.4766 435.0583 296.3866 410.1583 296.3866C386.7183 296.3866 370.1183 313.4766 370.1183 338.3766V481.9366H226.5583C201.6583 481.9366 184.5683 499.0266 184.5683 523.4366Z"/>
</svg>