<?xml version="1.0" encoding="UTF-8" standalone="no"?>
<svg xmlns="http://www.w3.org/2000/svg"
     width="1076.171875" height="1013.18359375"
     viewBox="0 0 1076.171875 1013.18359375"
     fill="currentColor">
  <path d="M290.0383 1013.1819C309.0783 1013.1819 323.2383 1003.4219 346.1883 981.9319L522.4583 820.8019H852.5383C998.0483 820.8019 1076.1683 740.7219 1076.1683 597.6519V223.6319C1076.1683 80.5619 998.0483 0.0019 852.5383 0.0019H223.6283C78.1283 0.0019 -0.0017 80.0819 -0.0017 223.6319V597.6519C-0.0017 741.2119 78.1283 820.8019 223.6283 820.8019H246.5783V962.8919C246.5783 993.1619 262.2083 1013.1819 290.0383 1013.1819ZM299.8083 410.6419C299.8083 385.2519 317.8683 367.6719 343.2583 367.6719H496.0983V214.8419C496.0983 189.4519 513.1883 171.3819 537.5983 171.3819C563.4783 171.3819 580.5683 189.4519 580.5683 214.8419V367.6719H733.8883C759.2783 367.6719 776.8583 385.2519 776.8583 410.6419C776.8583 435.5419 758.7883 452.1519 733.8883 452.1519H580.5683V605.4719C580.5683 630.8619 563.4783 648.4419 537.5983 648.4419C513.1883 648.4419 496.0983 630.3719 496.0983 605.4719V452.1519H343.2583C317.8683 452.1519 299.8083 435.5419 299.8083 410.6419Z"/>
</svg>