<?xml version="1.0" encoding="UTF-8" standalone="no"?>
<svg xmlns="http://www.w3.org/2000/svg"
     width="821.2890625" height="1046.875"
     viewBox="0 0 821.2890625 1046.875"
     fill="currentColor">
  <path d="M-0.0017 894.0466C-0.0017 996.0966 50.2883 1046.8766 151.3683 1046.8766H669.9183C770.9983 1046.8766 821.2883 996.0966 821.2883 894.0466V153.3166C821.2883 51.7566 770.9983 -0.0034 669.9183 -0.0034H151.3683C50.2883 -0.0034 -0.0017 51.7566 -0.0017 153.3166ZM172.3683 523.9266C172.3683 498.5366 190.4283 480.9566 215.8183 480.9566H368.6483V328.1266C368.6483 302.7366 385.7383 285.1566 410.1583 285.1566C436.0383 285.1566 453.1283 302.7366 453.1283 328.1266V480.9566H606.4483C631.8383 480.9566 649.4183 498.5366 649.4183 523.9266C649.4183 548.8266 631.3483 565.9166 606.4483 565.9166H453.1283V719.2366C453.1283 744.1366 436.0383 762.2066 410.1583 762.2066C385.7383 762.2066 368.6483 744.1366 368.6483 719.2366V565.9166H215.8183C190.4283 565.9166 172.3683 548.8266 172.3683 523.9266Z"/>
</svg>