<?xml version="1.0" encoding="UTF-8" standalone="no"?>
<svg xmlns="http://www.w3.org/2000/svg"
     width="1107.421875" height="1018.06640625"
     viewBox="0 0 1107.421875 1018.06640625"
     fill="currentColor">
  <path d="M193.3577 1018.0681C251.9577 1018.0681 397.9477 954.0981 480.9577 894.5281C489.2577 888.6681 496.0977 886.2281 502.9277 886.2281C509.2777 886.7181 515.6277 887.2081 521.9777 887.2081C874.0277 887.2081 1107.4177 687.0081 1107.4177 443.8481C1107.4177 198.2381 861.3277 -0.0019 553.7077 -0.0019C246.0977 -0.0019 -0.0023 198.2381 -0.0023 443.8481C-0.0023 600.0981 96.1877 737.3081 252.9277 821.2881C260.2577 825.1981 262.6977 832.5181 258.7877 839.8481C231.4477 884.7681 182.6177 938.4781 164.0577 962.8881C145.0177 987.3081 155.7577 1018.0681 193.3577 1018.0681ZM315.4277 449.2181C315.4277 423.3381 333.0077 405.7581 358.3977 405.7581H511.2277V253.4181C511.2277 228.0281 528.3177 209.9581 553.2277 209.9581C578.6177 209.9581 596.1877 227.5381 596.1877 253.4181V405.7581H749.5077C774.4177 405.7581 792.4777 423.3381 792.4777 449.2181C792.4777 473.6281 774.4177 490.7181 749.5077 490.7181H596.1877V644.0381C596.1877 668.9481 578.6177 687.0081 553.2277 687.0081C528.3177 687.0081 511.2277 668.9481 511.2277 644.0381V490.7181H358.3977C333.0077 490.7181 315.4277 473.6281 315.4277 449.2181Z"/>
</svg>