<?xml version="1.0" encoding="UTF-8" standalone="no"?>
<svg xmlns="http://www.w3.org/2000/svg"
     width="1033.203125" height="1022.4609375"
     viewBox="0 0 1033.203125 1022.4609375"
     fill="currentColor">
  <path d="M-0.0017 645.5113C-0.0017 746.0912 50.7783 796.3913 153.3183 796.3913H169.9183V377.4413C169.9183 239.2613 250.9783 159.1812 390.1383 159.1812H796.3883V151.3713C796.3883 50.7813 745.1183 0.0013 643.5583 0.0013H153.3183C50.7783 0.0013 -0.0017 50.2912 -0.0017 151.3713ZM390.1383 1022.4613H880.3683C981.9383 1022.4613 1033.1983 971.6813 1033.1983 871.0913V377.4413C1033.1983 276.8513 981.9383 226.0712 880.3683 226.0712H390.1383C287.5983 226.0712 236.8183 276.3713 236.8183 377.4413V871.0913C236.8183 972.1713 287.5983 1022.4613 390.1383 1022.4613ZM396.9683 625.0013C396.9683 599.1212 414.5483 582.0313 440.4283 582.0313H593.2583V429.2013C593.2583 403.8112 609.8683 385.7413 634.7683 385.7413C660.1583 385.7413 677.7383 403.3213 677.7383 429.2013V582.0313H831.0583C855.9583 582.0313 874.0283 599.1212 874.0283 625.0013C874.0283 649.4113 855.9583 666.5013 831.0583 666.5013H677.7383V819.8213C677.7383 844.7313 660.1583 862.7913 634.7683 862.7913C609.8683 862.7913 593.2583 844.7313 593.2583 819.8213V666.5013H440.4283C415.0383 666.5013 396.9683 649.4113 396.9683 625.0013Z"/>
</svg>