<?xml version="1.0" encoding="UTF-8" standalone="no"?>
<svg xmlns="http://www.w3.org/2000/svg"
     width="591.30859375" height="815.91796875"
     viewBox="0 0 591.30859375 815.91796875"
     fill="currentColor">
  <path d="M-0.0017 285.6439C-0.0017 309.5739 19.5283 329.1039 43.4583 329.1039H251.9483V530.2739C251.9483 553.7139 271.4883 572.7539 295.4083 572.7539C319.3383 572.7539 339.3583 553.7139 339.3583 530.2739V329.1039H547.8483C571.7783 329.1039 591.3083 309.5739 591.3083 285.6439C591.3083 261.7139 571.7783 241.7039 547.8483 241.7039H339.3583V42.9639C339.3583 19.0439 319.3383 0.0039 295.4083 0.0039C271.4883 0.0039 251.9483 19.0439 251.9483 42.9639V241.7039H43.4583C19.5283 241.7039 -0.0017 261.7139 -0.0017 285.6439ZM-0.0017 771.9739C-0.0017 796.3839 20.0183 815.9139 43.4583 815.9139H547.8483C571.2883 815.9139 591.3083 796.3839 591.3083 771.9739C591.3083 748.0439 571.2883 728.5139 547.8483 728.5139H43.4583C20.0183 728.5139 -0.0017 748.0439 -0.0017 771.9739Z"/>
</svg>