<?xml version="1.0" encoding="UTF-8" standalone="no"?>
<svg xmlns="http://www.w3.org/2000/svg"
     width="1043.9453125" height="851.07421875"
     viewBox="0 0 1043.9453125 851.07421875"
     fill="currentColor">
  <path d="M157.2283 314.9438C244.1383 314.9438 314.4483 244.6337 314.4483 157.2238C314.4483 70.8038 244.1383 0.0037 157.2283 0.0037C70.3083 0.0037 -0.0017 70.8038 -0.0017 157.2238C-0.0017 244.6337 70.3083 314.9438 157.2283 314.9438ZM886.2283 314.9438C973.6283 314.9438 1043.9483 244.6337 1043.9483 157.2238C1043.9483 70.8038 973.6283 0.0037 886.2283 0.0037C799.8083 0.0037 729.0083 70.8038 729.0083 157.2238C729.0083 244.6337 799.8083 314.9438 886.2283 314.9438ZM157.2283 238.2838C112.3083 238.2838 76.6583 202.6337 76.6583 157.2238C76.6583 111.8138 112.3083 76.6638 157.2283 76.6638C202.6383 76.6638 237.7883 111.8138 237.7883 157.2238C237.7883 202.6337 203.1283 238.2838 157.2283 238.2838ZM886.2283 238.2838C841.3083 238.2838 805.6683 202.6337 805.6683 157.2238C805.6683 111.8138 841.7983 76.6638 886.2283 76.6638C932.1283 76.6638 967.2883 111.8138 967.2883 157.2238C967.2883 202.6337 932.1283 238.2838 886.2283 238.2838ZM396.9683 203.1237C418.9483 203.1237 437.9883 184.5738 437.9883 161.6237C437.9883 139.6437 418.9483 120.6038 396.9683 120.6038C374.0283 120.6038 355.4683 139.6437 355.4683 161.6237C355.4683 184.5738 374.0283 203.1237 396.9683 203.1237ZM520.9983 203.1237C543.9483 203.1237 562.4983 184.5738 562.4983 161.6237C562.4983 139.6437 543.9483 120.6038 520.9983 120.6038C499.0283 120.6038 479.9783 139.6437 479.9783 161.6237C479.9783 184.5738 499.0283 203.1237 520.9983 203.1237ZM646.4883 203.1237C668.9483 203.1237 687.9883 184.5738 687.9883 161.6237C687.9883 139.6437 668.9483 120.6038 646.4883 120.6038C624.0283 120.6038 605.4683 139.6437 605.4683 161.6237C605.4683 184.5738 624.0283 203.1237 646.4883 203.1237ZM760.7383 420.8938C783.6883 420.8938 802.2483 401.8538 802.2483 379.3938C802.2483 356.9337 783.6883 338.3838 760.7383 338.3838C738.7683 338.3838 720.2183 356.9337 720.2183 379.3938C720.2183 401.8538 738.7683 420.8938 760.7383 420.8938ZM282.2283 420.8938C304.6883 420.8938 323.2383 401.8538 323.2383 379.3938C323.2383 356.9337 304.6883 338.3838 282.2283 338.3838C259.2783 338.3838 240.7183 356.9337 240.7183 379.3938C240.7183 401.8538 259.2783 420.8938 282.2283 420.8938ZM669.9183 520.9938C692.8683 520.9938 711.4283 502.4438 711.4283 479.4938C711.4283 457.5238 692.8683 438.4738 669.9183 438.4738C647.9483 438.4738 628.9083 457.5238 628.9083 479.4938C628.9083 502.4438 647.9483 520.9938 669.9183 520.9938ZM373.0483 520.9938C395.5083 520.9938 414.0583 502.4438 414.0583 479.4938C414.0583 457.5238 395.5083 438.4738 373.0483 438.4738C350.5883 438.4738 331.5383 457.5238 331.5383 479.4938C331.5383 502.4438 350.5883 520.9938 373.0483 520.9938ZM521.9683 851.0738C608.8883 851.0738 679.1983 780.2737 679.1983 693.3638C679.1983 606.4438 608.8883 536.1338 521.9683 536.1338C435.0583 536.1338 364.7483 606.4438 364.7483 693.3638C364.7483 780.2737 435.0583 851.0738 521.9683 851.0738ZM521.9683 774.4138C477.0483 774.4138 441.4083 738.7737 441.4083 693.3638C441.4083 647.9538 477.0483 612.7938 521.9683 612.7938C567.3783 612.7938 602.5383 647.9538 602.5383 693.3638C602.5383 738.7737 567.3783 774.4138 521.9683 774.4138Z"/>
</svg>