<?xml version="1.0" encoding="UTF-8" standalone="no"?>
<svg xmlns="http://www.w3.org/2000/svg"
     width="884.765625" height="1234.86328125"
     viewBox="0 0 884.765625 1234.86328125"
     fill="currentColor">
  <path d="M21.4834 356.4448C49.8034 340.8248 82.5234 332.5148 115.7234 332.5148C166.9934 332.5148 218.2634 352.5348 251.9534 394.0448C286.6234 343.7548 347.1634 315.9148 408.2034 315.9148C469.2334 315.9148 529.7834 343.7548 564.4534 394.0448C598.1434 352.5348 649.9034 332.5148 702.1534 332.5148C733.4034 332.5148 765.6234 340.3348 793.4534 355.4648C810.5434 331.0548 820.8034 302.2448 820.8034 270.0148C820.8034 186.0348 766.6034 126.9548 689.4534 125.0048C668.9434 77.6348 630.8634 45.8948 578.1234 45.8948C544.4334 45.8948 513.6734 57.6148 490.2334 79.1048C478.0234 75.6848 461.4234 74.7048 447.7534 77.6348C426.2734 30.2748 380.3734 0.0048 328.1234 0.0048C258.7934 0.0048 212.8934 42.4848 204.5934 84.9648C166.9934 81.5448 135.7434 115.7248 135.7434 148.9248C61.5234 146.4848 0.0034 208.0048 0.0034 282.7148C0.0034 308.5948 6.3434 332.5148 21.4834 356.4448ZM348.1434 1156.7348H429.6834V1154.2948C407.2234 1124.5148 394.5334 1087.4048 394.5334 1047.8548C394.5334 978.0248 431.6434 915.0348 493.1634 882.8148L526.8534 504.8848C534.6634 416.9948 460.9334 382.3248 408.2034 382.3248C355.4734 382.3248 281.7334 416.9948 289.5534 504.8848ZM216.7934 1156.7348H284.1834L224.6134 500.4848C218.7534 431.6448 166.0134 398.4348 113.2834 398.4348C49.8034 398.4348 -14.1566 446.7748 3.4134 540.5248L99.6134 1046.8748C112.7934 1116.2148 146.9734 1156.7348 216.7934 1156.7348ZM674.8034 758.7848C708.9834 758.7848 740.2334 767.5748 767.0934 783.2048L812.9834 540.5248C831.0534 446.7748 766.6034 398.4348 703.1234 398.4348C650.8834 398.4348 598.1434 431.6448 591.7934 500.4848L564.4534 799.8048C592.7734 774.4148 631.8334 758.7848 674.8034 758.7848ZM674.8034 1234.8648C722.1634 1234.8648 766.1134 1208.0048 786.6234 1166.9948C852.0534 1152.3448 884.7634 1101.0748 884.7634 1048.3448C884.7634 994.1448 850.0934 942.8748 786.6234 932.6148C784.6634 870.6048 737.7934 825.6848 674.8034 825.6848C612.7934 825.6848 566.4034 869.1448 563.4734 929.1948C498.0434 939.4548 460.9334 992.6748 460.9334 1047.8548C460.9334 1102.5348 497.0734 1154.2948 563.4734 1167.9648C582.5234 1208.0048 626.4634 1234.8648 674.8034 1234.8648Z"/>
</svg>