<?xml version="1.0" encoding="UTF-8" standalone="no"?>
<svg xmlns="http://www.w3.org/2000/svg"
     width="929.6875" height="898.92578125"
     viewBox="0 0 929.6875 898.92578125"
     fill="currentColor">
  <path d="M153.3183 898.9295H776.3683C878.4183 898.9295 929.6883 848.1495 929.6883 747.5595V151.3695C929.6883 50.7795 878.4183 -0.0005 776.3683 -0.0005H153.3183C51.2683 -0.0005 -0.0017 50.2895 -0.0017 151.3695V747.5595C-0.0017 848.6295 51.2683 898.9295 153.3183 898.9295ZM154.2983 820.3095C105.4683 820.3095 78.6183 794.4295 78.6183 743.6495V155.2695C78.6183 104.4895 105.4683 78.6095 154.2983 78.6095H774.8983C823.2383 78.6095 851.0783 104.4895 851.0783 155.2695V743.6495C851.0783 794.4295 823.2383 820.3095 774.8983 820.3095ZM464.8483 389.6495C515.1383 389.6495 555.6683 349.1195 555.6683 298.8295C555.6683 248.5395 515.1383 208.0095 464.8483 208.0095C414.5483 208.0095 374.0283 248.5395 374.0283 298.8295C374.0283 349.1195 414.5483 389.6495 464.8483 389.6495ZM297.8483 689.9395C337.8883 689.9395 370.6083 657.2295 370.6083 616.2095C370.6083 576.1695 337.8883 543.4595 297.8483 543.4595C256.8383 543.4595 224.1183 576.1695 224.1183 616.2095C224.1183 657.2295 256.8383 689.9395 297.8483 689.9395ZM632.3283 689.9395C672.3683 689.9395 705.5683 657.2295 705.5683 616.2095C705.5683 576.1695 672.3683 543.4595 632.3283 543.4595C591.7983 543.4595 559.0783 576.1695 559.0783 616.2095C559.0783 657.2295 591.7983 689.9395 632.3283 689.9395Z"/>
</svg>