<?xml version="1.0" encoding="UTF-8" standalone="no"?>
<svg xmlns="http://www.w3.org/2000/svg"
     width="898.92578125" height="898.92578125"
     viewBox="0 0 898.92578125 898.92578125"
     fill="currentColor">
  <path d="M153.3183 898.9295H745.6083C848.1483 898.9295 898.9283 848.1495 898.9283 747.5595V151.3695C898.9283 50.7795 848.1483 -0.0005 745.6083 -0.0005H153.3183C51.2683 -0.0005 -0.0017 50.2895 -0.0017 151.3695V747.5595C-0.0017 848.6295 51.2683 898.9295 153.3183 898.9295ZM154.2983 820.3095C105.4683 820.3095 78.6183 794.4295 78.6183 743.6495V155.2695C78.6183 104.4895 105.4683 78.6095 154.2983 78.6095H744.6283C792.9683 78.6095 820.3083 104.4895 820.3083 155.2695V743.6495C820.3083 794.4295 792.9683 820.3095 744.6283 820.3095ZM263.1883 678.2195H638.6683C665.0383 678.2195 684.5683 658.6895 684.5683 632.3195V266.1095C684.5683 239.7495 665.0383 220.2195 638.6683 220.2195H263.1883C236.8183 220.2195 217.2883 239.7495 217.2883 266.1095V632.3195C217.2883 658.6895 236.8183 678.2195 263.1883 678.2195ZM594.7283 441.8895C587.3983 451.1695 576.6583 450.6795 568.3583 441.8895L498.5383 373.0495C489.7483 364.7495 489.7483 353.9995 498.5383 345.6995L516.1183 328.1295C523.9283 319.8195 534.6683 320.3095 542.4783 328.6095L612.3083 398.4395C620.6083 406.7395 620.6083 416.4995 612.3083 424.8095ZM289.5483 424.8095C281.2483 416.4995 281.2483 406.7395 289.5483 398.4395L359.3783 329.0995C367.6783 320.3095 377.9283 320.3095 385.7383 328.6095L402.8283 345.6995C412.1083 353.9995 411.6183 364.7495 402.8283 373.0495L333.4983 441.8895C324.7083 451.1695 314.4483 451.1695 307.1283 441.8895ZM438.4783 606.9295C427.7383 606.9295 419.4383 599.6095 419.4383 588.8695V501.9495C419.4383 490.7195 427.7383 482.4195 438.4783 482.4195H462.8883C473.6283 482.4195 482.4183 490.7195 482.4183 501.9495V588.8695C482.4183 600.0995 474.1183 606.9295 462.8883 606.9295Z"/>
</svg>