<?xml version="1.0" encoding="UTF-8" standalone="no"?>
<svg xmlns="http://www.w3.org/2000/svg"
     width="996.09375" height="996.09375"
     viewBox="0 0 996.09375 996.09375"
     fill="currentColor">
  <path d="M498.0477 996.0959C770.5077 996.0959 996.0977 770.0159 996.0977 498.0459C996.0977 225.5859 770.0177 -0.0041 497.5577 -0.0041C225.5877 -0.0041 -0.0023 225.5859 -0.0023 498.0459C-0.0023 770.0159 226.0777 996.0959 498.0477 996.0959ZM292.9677 589.8459C240.2377 589.8459 198.2377 546.8759 198.2377 494.6259C198.2377 441.8959 240.2377 399.4159 292.9677 399.4159C345.7077 399.4159 388.1877 441.8959 388.1877 494.6259C388.1877 546.8759 345.7077 589.8459 292.9677 589.8459ZM703.1277 589.8459C650.3877 589.8459 607.9077 546.8759 607.9077 494.6259C607.9077 441.8959 650.3877 399.4159 703.1277 399.4159C755.8577 399.4159 797.8477 441.8959 797.8477 494.6259C797.8477 546.8759 755.8577 589.8459 703.1277 589.8459ZM437.9877 681.6359H558.1077C573.7277 681.6359 581.5477 689.4559 581.5477 705.0759V741.6959C581.5477 788.0859 544.9177 825.1959 498.0477 825.1959C450.6877 825.1959 414.5477 788.5759 414.5477 741.6959V705.0759C414.5477 689.4559 422.3677 681.6359 437.9877 681.6359Z"/>
</svg>