<?xml version="1.0" encoding="UTF-8" standalone="no"?>
<svg xmlns="http://www.w3.org/2000/svg"
     width="1896.484375" height="559.5703125"
     viewBox="0 0 1896.484375 559.5703125"
     fill="currentColor">
  <path d="M137.6983 559.567H1358.3983C1429.1983 559.567 1482.9083 514.157 1494.1383 448.247H1535.1583C1568.8483 448.247 1593.7483 423.827 1593.7483 390.137V320.797H1896.4883V256.837H1593.7483V180.177C1593.7483 146.487 1568.8483 122.067 1535.1583 122.067H1495.6083C1488.2783 50.777 1433.1083 -0.003 1358.3983 -0.003H137.6983C57.6183 -0.003 -0.0017 58.107 -0.0017 138.187V421.877C-0.0017 501.957 57.6183 559.567 137.6983 559.567ZM471.6783 435.057C386.2283 435.057 316.4083 365.727 316.4083 279.787C316.4083 194.827 386.2283 124.507 471.6783 124.507C557.1283 124.507 626.9483 194.827 626.9483 279.787C626.9483 365.727 557.1283 435.057 471.6783 435.057ZM845.2183 435.057C759.7683 435.057 690.9183 365.727 690.9183 279.787C690.9183 194.827 759.7683 124.507 845.2183 124.507C931.1483 124.507 1000.9783 194.827 1000.9783 279.787C1000.9783 365.727 931.1483 435.057 845.2183 435.057ZM1219.2383 435.057C1133.2983 435.057 1064.4483 365.727 1064.4483 279.787C1064.4483 194.827 1133.2983 124.507 1219.2383 124.507C1304.6883 124.507 1374.5083 194.827 1374.5083 279.787C1374.5083 365.727 1304.6883 435.057 1219.2383 435.057ZM168.9483 394.047C153.8083 394.047 144.0383 384.277 144.0383 369.627V189.457C144.0383 173.827 153.8083 164.547 168.9483 164.547H203.1283C217.2883 164.547 227.5383 173.827 227.5383 189.457V369.627C227.5383 384.277 217.2883 394.047 203.1283 394.047ZM414.5483 361.327C426.7583 361.327 436.0383 351.567 436.0383 339.847V220.217C436.0383 208.497 426.7583 198.247 414.5483 198.247C402.8283 198.247 392.5783 208.987 392.5783 220.217V339.847C392.5783 351.077 402.8283 361.327 414.5483 361.327ZM528.8083 361.327C540.5283 361.327 549.8083 351.567 549.8083 339.847V220.217C549.8083 208.497 540.5283 198.247 528.8083 198.247C516.1183 198.247 506.3483 208.497 506.3483 220.217V339.847C506.3483 351.567 516.5983 361.327 528.8083 361.327ZM788.0883 361.327C800.7783 361.327 810.0583 351.567 810.0583 339.847V220.217C810.0583 208.497 800.7783 198.247 788.0883 198.247C776.3683 198.247 766.1183 208.987 766.1183 220.217V339.847C766.1183 351.567 776.3683 361.327 788.0883 361.327ZM902.3483 361.327C914.0583 361.327 923.8283 351.567 923.8283 339.847V220.217C923.8283 208.497 914.5483 198.247 902.3483 198.247C890.1383 198.247 880.3683 208.497 880.3683 220.217V339.847C880.3683 351.567 890.1383 361.327 902.3483 361.327ZM1162.1083 361.327C1173.8283 361.327 1184.0783 351.567 1184.0783 339.847V220.217C1184.0783 208.497 1174.3183 198.247 1162.1083 198.247C1149.8983 198.247 1140.1383 208.987 1140.1383 220.217V339.847C1140.1383 351.567 1149.8983 361.327 1162.1083 361.327ZM1276.3683 361.327C1288.0883 361.327 1297.3683 351.567 1297.3683 339.847V220.217C1297.3683 208.497 1288.0883 198.247 1276.3683 198.247C1263.6683 198.247 1253.9083 208.497 1253.9083 220.217V339.847C1253.9083 351.567 1264.1583 361.327 1276.3683 361.327Z"/>
</svg>