<?xml version="1.0" encoding="UTF-8" standalone="no"?>
<svg xmlns="http://www.w3.org/2000/svg"
     width="898.92578125" height="898.92578125"
     viewBox="0 0 898.92578125 898.92578125"
     fill="currentColor">
  <path d="M153.3183 898.9295H745.6083C848.1483 898.9295 898.9283 848.1495 898.9283 747.5595V151.3695C898.9283 50.7795 848.1483 -0.0005 745.6083 -0.0005H153.3183C51.2683 -0.0005 -0.0017 50.2895 -0.0017 151.3695V747.5595C-0.0017 848.6295 51.2683 898.9295 153.3183 898.9295ZM290.0383 679.1995C275.3883 679.1995 261.2283 674.8095 250.4883 664.5495C194.8283 611.8195 156.7383 532.2295 156.7383 449.2195C156.7383 365.7195 195.3083 285.6395 251.4683 232.9095C261.7183 223.6295 275.3883 219.7295 290.0383 219.7295H608.8883C623.5383 219.7295 637.6983 224.1195 648.4383 234.3795C704.0983 286.6195 742.1883 366.2095 742.1883 449.2195C742.1883 532.2295 704.0983 611.8195 648.4383 664.5495C637.6983 674.8095 623.5383 679.1995 608.8883 679.1995ZM326.6583 566.8895C342.7783 566.8895 355.4683 554.1995 355.4683 538.0895V359.8595C355.4683 343.7495 342.7783 331.5395 326.6583 331.5395C311.0383 331.5395 298.3383 343.7495 298.3383 359.8595V538.0895C298.3383 554.1995 311.0383 566.8895 326.6583 566.8895ZM572.2683 566.8895C588.3783 566.8895 600.5883 554.1995 600.5883 538.0895V359.8595C600.5883 343.7495 588.3783 331.5395 572.2683 331.5395C556.1483 331.5395 543.9483 343.7495 543.9483 359.8595V538.0895C543.9483 554.1995 556.1483 566.8895 572.2683 566.8895Z"/>
</svg>