<?xml version="1.0" encoding="UTF-8" standalone="no"?>
<svg xmlns="http://www.w3.org/2000/svg"
     width="996.09375" height="996.09375"
     viewBox="0 0 996.09375 996.09375"
     fill="currentColor">
  <path d="M498.0477 996.0959C770.5077 996.0959 996.0977 770.0159 996.0977 498.0459C996.0977 225.5859 770.0177 -0.0041 497.5577 -0.0041C225.5877 -0.0041 -0.0023 225.5859 -0.0023 498.0459C-0.0023 770.0159 226.0777 996.0959 498.0477 996.0959ZM498.0477 913.0859C267.5777 913.0859 83.4977 728.5159 83.4977 498.0459C83.4977 267.5759 267.0877 83.0059 497.5577 83.0059C728.0277 83.0059 913.0877 267.5759 913.0877 498.0459C913.0877 728.5159 728.5177 913.0859 498.0477 913.0859ZM498.0477 333.4959C532.2277 333.4959 560.5477 305.1759 560.5477 270.9959C560.5477 236.8159 532.2277 208.4959 498.0477 208.4959C463.8677 208.4959 435.5477 236.8159 435.5477 270.9959C435.5477 305.1759 463.8677 333.4959 498.0477 333.4959ZM284.1777 590.3359C335.4477 590.3359 376.4677 548.8259 376.4677 498.0459C376.4677 447.2659 335.4477 405.7659 284.1777 405.7659C233.3977 405.7659 192.3877 447.2659 192.3877 498.0459C192.3877 548.8259 233.3977 590.3359 284.1777 590.3359ZM711.9177 590.3359C762.6977 590.3359 803.7077 548.8259 803.7077 498.0459C803.7077 447.2659 762.6977 405.7659 711.9177 405.7659C660.6477 405.7659 619.6277 447.2659 619.6277 498.0459C619.6277 548.8259 660.6477 590.3359 711.9177 590.3359Z"/>
</svg>