<?xml version="1.0" encoding="UTF-8" standalone="no"?>
<svg xmlns="http://www.w3.org/2000/svg"
     width="929.6875" height="898.92578125"
     viewBox="0 0 929.6875 898.92578125"
     fill="currentColor">
  <path d="M153.3183 898.9295H776.3683C878.4183 898.9295 929.6883 848.1495 929.6883 747.5595V151.3695C929.6883 50.7795 878.4183 -0.0005 776.3683 -0.0005H153.3183C51.2683 -0.0005 -0.0017 50.2895 -0.0017 151.3695V747.5595C-0.0017 848.6295 51.2683 898.9295 153.3183 898.9295ZM464.8483 390.6295C422.8483 390.6295 388.6683 356.4495 388.6683 314.4495C388.6683 272.9495 422.8483 238.7695 464.8483 238.7695C506.3483 238.7695 540.5283 272.9495 540.5283 314.4495C540.5283 356.4495 506.3483 390.6295 464.8483 390.6295ZM292.4783 659.1795C250.4883 659.1795 216.3083 624.9995 216.3083 583.0095C216.3083 541.4995 250.4883 507.3195 292.4783 507.3195C333.9883 507.3195 367.6783 541.4995 367.6783 583.0095C367.6783 624.9995 333.9883 659.1795 292.4783 659.1795ZM637.6983 659.1795C595.6983 659.1795 562.0083 624.9995 562.0083 583.0095C562.0083 541.4995 595.6983 507.3195 637.6983 507.3195C678.7083 507.3195 713.3783 541.4995 713.3783 583.0095C713.3783 624.9995 678.7083 659.1795 637.6983 659.1795Z"/>
</svg>