<?xml version="1.0" encoding="UTF-8" standalone="no"?>
<svg xmlns="http://www.w3.org/2000/svg"
     width="898.92578125" height="898.92578125"
     viewBox="0 0 898.92578125 898.92578125"
     fill="currentColor">
  <path d="M153.3183 898.9295H745.6083C848.1483 898.9295 898.9283 848.1495 898.9283 747.5595V151.3695C898.9283 50.7795 848.1483 -0.0005 745.6083 -0.0005H153.3183C51.2683 -0.0005 -0.0017 50.2895 -0.0017 151.3695V747.5595C-0.0017 848.6295 51.2683 898.9295 153.3183 898.9295ZM154.2983 820.3095C105.4683 820.3095 78.6183 794.4295 78.6183 743.6495V155.2695C78.6183 104.4895 105.4683 78.6095 154.2983 78.6095H744.6283C792.9683 78.6095 820.3083 104.4895 820.3083 155.2695V743.6495C820.3083 794.4295 792.9683 820.3095 744.6283 820.3095ZM258.7883 677.7295H640.1383C666.5083 677.7295 686.0383 658.1995 686.0383 631.8395V265.6295C686.0383 239.2595 666.5083 219.7295 640.1383 219.7295H258.7883C232.4183 219.7295 212.8883 239.2595 212.8883 265.6295V631.8395C212.8883 658.1995 232.4183 677.7295 258.7883 677.7295ZM450.1983 413.0895C417.4783 413.0895 391.1183 386.7195 391.1183 353.9995C391.1183 321.2895 417.4783 294.9195 450.1983 294.9195C482.4183 294.9195 508.7883 321.2895 508.7883 353.9995C508.7883 386.7195 482.4183 413.0895 450.1983 413.0895ZM343.2583 601.5595C316.4083 601.5595 293.9483 579.5895 293.9483 552.2495C293.9483 524.8995 316.4083 502.9295 343.2583 502.9295C370.6083 502.9295 393.0683 524.8995 393.0683 552.2495C393.0683 579.5895 370.6083 601.5595 343.2583 601.5595ZM556.6383 601.5595C529.2983 601.5595 506.8383 579.5895 506.8383 552.2495C506.8383 524.8995 529.2983 502.9295 556.6383 502.9295C583.9883 502.9295 605.9583 524.8995 605.9583 552.2495C605.9583 579.5895 583.9883 601.5595 556.6383 601.5595Z"/>
</svg>