<?xml version="1.0" encoding="UTF-8" standalone="no"?>
<svg xmlns="http://www.w3.org/2000/svg"
     width="1896.484375" height="559.5703125"
     viewBox="0 0 1896.484375 559.5703125"
     fill="currentColor">
  <path d="M137.6983 559.567H1358.3983C1429.1983 559.567 1482.9083 514.157 1494.1383 448.247H1535.1583C1568.8483 448.247 1593.7483 423.827 1593.7483 390.137V320.797H1896.4883V256.837H1593.7483V180.177C1593.7483 146.487 1568.8483 122.067 1535.1583 122.067H1495.6083C1488.2783 50.777 1433.1083 -0.003 1358.3983 -0.003H137.6983C57.6183 -0.003 -0.0017 58.107 -0.0017 138.187V421.877C-0.0017 501.957 57.6183 559.567 137.6983 559.567ZM137.6983 490.727C96.6783 490.727 68.8483 462.407 68.8483 421.877V138.187C68.8483 97.167 96.6783 68.847 137.6983 68.847H1358.3983C1398.9283 68.847 1427.2483 97.167 1427.2483 138.187V421.877C1427.2483 462.407 1398.9283 490.727 1358.3983 490.727ZM480.4683 430.177C563.4783 430.177 630.8583 363.277 630.8583 279.787C630.8583 197.267 563.4783 129.397 480.4683 129.397C397.4583 129.397 330.0783 197.267 330.0783 279.787C330.0783 363.277 397.4583 430.177 480.4683 430.177ZM842.7783 430.177C925.7783 430.177 993.6483 363.277 993.6483 279.787C993.6483 197.267 925.7783 129.397 842.7783 129.397C759.7683 129.397 692.8683 197.267 692.8683 279.787C692.8683 363.277 759.7683 430.177 842.7783 430.177ZM1205.0783 430.177C1288.0883 430.177 1355.4683 363.277 1355.4683 279.787C1355.4683 197.267 1288.0883 129.397 1205.0783 129.397C1122.0683 129.397 1055.1783 197.267 1055.1783 279.787C1055.1783 363.277 1122.0683 430.177 1205.0783 430.177ZM187.0083 390.627H220.2183C233.8883 390.627 243.6483 380.857 243.6483 366.697V192.387C243.6483 177.247 233.8883 167.967 220.2183 167.967H187.0083C172.3683 167.967 163.0883 177.247 163.0883 192.387V366.697C163.0883 380.857 172.3683 390.627 187.0083 390.627ZM1518.5583 176.267C1530.7583 176.267 1539.5483 184.567 1539.5483 196.777V373.047C1539.5483 385.747 1530.7583 394.047 1518.5583 394.047H1496.0983V176.267ZM425.2883 358.887C413.5783 358.887 403.8083 349.117 403.8083 337.887V222.167C403.8083 210.937 413.5783 200.687 425.2883 200.687C437.0083 200.687 445.7983 210.447 445.7983 222.167V337.887C445.7983 349.607 437.0083 358.887 425.2883 358.887ZM535.6483 358.887C523.9283 358.887 514.1583 349.607 514.1583 337.887V222.167C514.1583 210.447 523.4383 200.687 535.6483 200.687C547.3683 200.687 556.1483 210.447 556.1483 222.167V337.887C556.1483 349.607 547.3683 358.887 535.6483 358.887ZM787.1083 358.887C775.8783 358.887 766.1183 349.607 766.1183 337.887V222.167C766.1183 210.937 775.8783 200.687 787.1083 200.687C799.3183 200.687 808.5983 210.447 808.5983 222.167V337.887C808.5983 349.607 799.3183 358.887 787.1083 358.887ZM897.9483 358.887C886.2283 358.887 876.4683 349.607 876.4683 337.887V222.167C876.4683 210.447 886.2283 200.687 897.9483 200.687C909.6683 200.687 918.9483 210.447 918.9483 222.167V337.887C918.9483 349.607 909.1783 358.887 897.9483 358.887ZM1149.8983 358.887C1138.1883 358.887 1128.4183 349.607 1128.4183 337.887V222.167C1128.4183 210.937 1138.1883 200.687 1149.8983 200.687C1161.6183 200.687 1170.8983 210.447 1170.8983 222.167V337.887C1170.8983 349.607 1161.1283 358.887 1149.8983 358.887ZM1260.2583 358.887C1248.5383 358.887 1238.7683 349.607 1238.7683 337.887V222.167C1238.7683 210.447 1248.0483 200.687 1260.2583 200.687C1271.9683 200.687 1280.7583 210.447 1280.7583 222.167V337.887C1280.7583 349.607 1271.9683 358.887 1260.2583 358.887Z"/>
</svg>