<?xml version="1.0" encoding="UTF-8" standalone="no"?>
<svg xmlns="http://www.w3.org/2000/svg"
     width="898.92578125" height="898.92578125"
     viewBox="0 0 898.92578125 898.92578125"
     fill="currentColor">
  <path d="M153.3183 898.9295H745.6083C848.1483 898.9295 898.9283 848.1495 898.9283 747.5595V151.3695C898.9283 50.7795 848.1483 -0.0005 745.6083 -0.0005H153.3183C51.2683 -0.0005 -0.0017 50.2895 -0.0017 151.3695V747.5595C-0.0017 848.6295 51.2683 898.9295 153.3183 898.9295ZM252.9283 685.0595C225.5883 685.0595 205.5683 665.0395 205.5683 637.6995V259.7695C205.5683 232.4195 225.5883 212.3995 252.9283 212.3995H645.9983C673.3383 212.3995 693.3583 232.4195 693.3583 259.7695V637.6995C693.3583 665.0395 673.3383 685.0595 645.9983 685.0595ZM353.5183 450.1995C368.6483 450.1995 380.8583 438.9695 380.8583 423.3395V337.3995C380.8583 322.2695 368.6483 310.0595 353.5183 310.0595C338.8683 310.0595 327.1483 322.2695 327.1483 337.3995V423.3395C327.1483 438.9695 338.8683 450.1995 353.5183 450.1995ZM544.9183 450.1995C559.5683 450.1995 571.7783 438.9695 571.7783 423.3395V337.3995C571.7783 322.2695 559.5683 310.0595 544.9183 310.0595C529.7883 310.0595 518.0683 322.2695 518.0683 337.3995V423.3395C518.0683 438.9695 529.7883 450.1995 544.9183 450.1995ZM417.4783 603.5195H481.4483C491.2083 603.5195 495.6083 598.6295 495.6083 589.3595V559.0795C495.6083 532.7195 475.5883 512.6995 449.7083 512.6995C422.8483 512.6995 403.3183 532.7195 403.3183 559.0795V589.3595C403.3183 598.6295 407.7183 603.5195 417.4783 603.5195Z"/>
</svg>