<?xml version="1.0" encoding="UTF-8" standalone="no"?>
<svg xmlns="http://www.w3.org/2000/svg"
     width="1311.2801944076957" height="683.10546875"
     viewBox="0 0 1311.2801944076957 683.10546875"
     fill="currentColor">
  <path d="M359.3706 -0.0041C292.4806 -0.0041 253.4206 28.3159 205.5706 78.1259L37.6006 256.3459C-12.6994 308.5959 -12.2094 370.6059 37.1106 423.3359L205.0806 604.4959C248.5306 650.8759 296.8706 683.1059 359.3706 683.1059H952.1506C1014.6506 683.1059 1062.5006 650.8759 1106.4406 604.4959L1273.9306 423.3359C1323.2406 370.6059 1324.2206 308.5959 1273.9306 256.3459L1105.9606 78.1259C1057.6206 28.3159 1019.0406 -0.0041 952.1506 -0.0041ZM320.8006 252.4459C369.1406 252.4459 408.6906 291.9959 408.6906 339.8459C408.6906 387.6959 369.1406 427.7359 320.8006 427.7359C272.9506 427.7359 233.8906 387.6959 233.8906 339.8459C233.8906 291.9959 272.9506 252.4459 320.8006 252.4459ZM991.2106 252.4459C1039.0606 252.4459 1078.6106 291.9959 1078.6106 339.8459C1078.6106 387.6959 1039.0606 427.7359 991.2106 427.7359C943.3606 427.7359 903.3206 387.6959 903.3206 339.8459C903.3206 291.9959 943.3606 252.4459 991.2106 252.4459ZM656.2506 341.7959C704.1006 341.7959 743.1606 381.8359 743.1606 429.6859C743.1606 477.5359 704.1006 517.0859 656.2506 517.0859C607.9106 517.0859 568.8506 477.5359 568.8506 429.6859C568.8506 381.8359 607.9106 341.7959 656.2506 341.7959Z"/>
</svg>