<?xml version="1.0" encoding="UTF-8" standalone="no"?>
<svg xmlns="http://www.w3.org/2000/svg"
     width="898.92578125" height="898.92578125"
     viewBox="0 0 898.92578125 898.92578125"
     fill="currentColor">
  <path d="M153.3183 898.9295H745.6083C848.1483 898.9295 898.9283 848.1495 898.9283 747.5595V151.3695C898.9283 50.7795 848.1483 -0.0005 745.6083 -0.0005H153.3183C51.2683 -0.0005 -0.0017 50.2895 -0.0017 151.3695V747.5595C-0.0017 848.6295 51.2683 898.9295 153.3183 898.9295ZM154.2983 820.3095C105.4683 820.3095 78.6183 794.4295 78.6183 743.6495V155.2695C78.6183 104.4895 105.4683 78.6095 154.2983 78.6095H744.6283C792.9683 78.6095 820.3083 104.4895 820.3083 155.2695V743.6495C820.3083 794.4295 792.9683 820.3095 744.6283 820.3095ZM449.7083 705.0795C591.7983 705.0795 705.5683 590.8195 705.5683 448.7295C705.5683 306.6395 591.7983 192.3795 449.7083 192.3795C307.1283 192.3795 193.3583 306.6395 193.3583 448.7295C193.3583 590.8195 307.1283 705.0795 449.7083 705.0795ZM328.1283 505.8595C296.8783 505.8595 270.9983 479.9795 270.9983 448.7295C270.9983 417.4795 296.8783 391.5995 328.1283 391.5995C359.8683 391.5995 385.2583 417.4795 385.2583 448.7295C385.2583 479.9795 359.8683 505.8595 328.1283 505.8595ZM570.7983 505.8595C539.5483 505.8595 513.6683 479.9795 513.6683 448.7295C513.6683 417.4795 539.5483 391.5995 570.7983 391.5995C602.0483 391.5995 627.9283 417.4795 627.9283 448.7295C627.9283 479.9795 602.0483 505.8595 570.7983 505.8595Z"/>
</svg>