<?xml version="1.0" encoding="UTF-8" standalone="no"?>
<svg xmlns="http://www.w3.org/2000/svg"
     width="1046.38671875" height="839.35546875"
     viewBox="0 0 1046.38671875 839.35546875"
     fill="currentColor">
  <path d="M258.7883 839.3509H787.1083C822.7583 839.3509 855.9583 827.1509 880.3683 803.7109C984.8683 704.5909 1046.3883 561.0309 1046.3883 419.9209C1046.3883 278.8109 984.8683 135.2509 880.3683 36.1309C855.9583 12.6909 822.7583 0.0009 787.1083 0.0009H258.7883C221.6783 0.0009 186.5283 14.1609 161.1283 40.0409C60.5483 138.6709 -0.0017 280.7609 -0.0017 419.9209C-0.0017 561.0309 61.5283 704.5909 166.0183 803.7109C190.4283 827.1509 223.1483 839.3509 258.7883 839.3509ZM312.9883 623.5309C287.5983 623.5309 269.0383 604.9809 269.0383 579.5909V265.6209C269.0383 240.7209 287.5983 220.2109 312.9883 220.2109C337.8883 220.2109 357.9083 240.7209 357.9083 265.6209V579.5909C357.9083 604.9809 337.8883 623.5309 312.9883 623.5309ZM732.9083 623.5309C707.5183 623.5309 688.4783 603.5109 688.4783 578.6109V266.1109C688.4783 240.7209 707.5183 220.2109 732.9083 220.2109C758.2983 220.2109 777.3483 240.7209 777.3483 266.1109V578.6109C777.3483 604.0009 758.2983 623.5309 732.9083 623.5309Z"/>
</svg>