<?xml version="1.0" encoding="UTF-8" standalone="no"?>
<svg xmlns="http://www.w3.org/2000/svg"
     width="898.92578125" height="898.92578125"
     viewBox="0 0 898.92578125 898.92578125"
     fill="currentColor">
  <path d="M153.3183 898.9295H745.6083C848.1483 898.9295 898.9283 848.1495 898.9283 747.5595V151.3695C898.9283 50.7795 848.1483 -0.0005 745.6083 -0.0005H153.3183C51.2683 -0.0005 -0.0017 50.2895 -0.0017 151.3695V747.5595C-0.0017 848.6295 51.2683 898.9295 153.3183 898.9295ZM252.9283 685.0595C225.5883 685.0595 205.5683 665.0395 205.5683 637.6995V259.7695C205.5683 232.4195 225.5883 212.3995 252.9283 212.3995H645.9983C673.3383 212.3995 693.3583 232.4195 693.3583 259.7695V637.6995C693.3583 665.0395 673.3383 685.0595 645.9983 685.0595ZM450.1983 412.1095C483.3983 412.1095 510.7383 384.7695 510.7383 351.0695C510.7383 317.3795 483.3983 290.0395 450.1983 290.0395C416.5083 290.0395 389.1583 317.3795 389.1583 351.0695C389.1583 384.7695 416.5083 412.1095 450.1983 412.1095ZM339.8483 606.4495C368.1683 606.4495 391.1183 583.9795 391.1183 555.6595C391.1183 527.3395 368.1683 504.3895 339.8483 504.3895C312.0083 504.3895 289.0583 527.3395 289.0583 555.6595C289.0583 583.9795 312.0083 606.4495 339.8483 606.4495ZM560.0583 606.4495C588.3783 606.4495 610.8383 583.9795 610.8383 555.6595C610.8383 527.3395 588.3783 504.3895 560.0583 504.3895C531.7383 504.3895 508.7883 527.3395 508.7883 555.6595C508.7883 583.9795 531.7383 606.4495 560.0583 606.4495Z"/>
</svg>