<?xml version="1.0" encoding="UTF-8" standalone="no"?>
<svg xmlns="http://www.w3.org/2000/svg"
     width="898.92578125" height="898.92578125"
     viewBox="0 0 898.92578125 898.92578125"
     fill="currentColor">
  <path d="M153.3183 898.9295H745.6083C848.1483 898.9295 898.9283 848.1495 898.9283 747.5595V151.3695C898.9283 50.7795 848.1483 -0.0005 745.6083 -0.0005H153.3183C51.2683 -0.0005 -0.0017 50.2895 -0.0017 151.3695V747.5595C-0.0017 848.6295 51.2683 898.9295 153.3183 898.9295ZM252.9283 685.0595C225.5883 685.0595 205.5683 665.0395 205.5683 637.6995V259.7695C205.5683 232.4195 225.5883 212.3995 252.9283 212.3995H645.9983C673.3383 212.3995 693.3583 232.4195 693.3583 259.7695V637.6995C693.3583 665.0395 673.3383 685.0595 645.9983 685.0595ZM450.1983 414.5495C478.0283 414.5495 500.9783 392.0895 500.9783 363.7695C500.9783 335.4495 478.0283 312.9895 450.1983 312.9895C421.8783 312.9895 398.9283 335.4495 398.9283 363.7695C398.9283 392.0895 421.8783 414.5495 450.1983 414.5495ZM339.8483 584.4695C368.1683 584.4695 391.1183 562.0095 391.1183 533.6895C391.1183 505.3695 368.1683 482.4195 339.8483 482.4195C312.0083 482.4195 289.0583 505.3695 289.0583 533.6895C289.0583 562.0095 312.0083 584.4695 339.8483 584.4695ZM560.0583 584.4695C588.3783 584.4695 610.8383 562.0095 610.8383 533.6895C610.8383 505.3695 588.3783 482.4195 560.0583 482.4195C531.7383 482.4195 508.7883 505.3695 508.7883 533.6895C508.7883 562.0095 531.7383 584.4695 560.0583 584.4695Z"/>
</svg>