<?xml version="1.0" encoding="UTF-8" standalone="no"?>
<svg xmlns="http://www.w3.org/2000/svg"
     width="898.92578125" height="898.92578125"
     viewBox="0 0 898.92578125 898.92578125"
     fill="currentColor">
  <path d="M153.3183 898.9295H745.6083C848.1483 898.9295 898.9283 848.1495 898.9283 747.5595V151.3695C898.9283 50.7795 848.1483 -0.0005 745.6083 -0.0005H153.3183C51.2683 -0.0005 -0.0017 50.2895 -0.0017 151.3695V747.5595C-0.0017 848.6295 51.2683 898.9295 153.3183 898.9295ZM154.2983 820.3095C105.4683 820.3095 78.6183 794.4295 78.6183 743.6495V155.2695C78.6183 104.4895 105.4683 78.6095 154.2983 78.6095H744.6283C792.9683 78.6095 820.3083 104.4895 820.3083 155.2695V743.6495C820.3083 794.4295 792.9683 820.3095 744.6283 820.3095ZM263.1883 678.2195H638.6683C665.0383 678.2195 684.5683 658.6895 684.5683 632.3195V266.1095C684.5683 239.7495 665.0383 220.2195 638.6683 220.2195H263.1883C236.8183 220.2195 217.2883 239.7495 217.2883 266.1095V632.3195C217.2883 658.6895 236.8183 678.2195 263.1883 678.2195ZM439.4483 413.5695C427.7383 413.5695 419.4383 406.2495 419.4383 394.0395V313.9695C419.4383 302.2495 427.7383 293.9495 439.4483 293.9495H461.4283C473.1483 293.9495 482.4183 302.2495 482.4183 313.9695V394.0395C482.4183 406.2495 473.1483 413.5695 461.4283 413.5695ZM309.0783 600.0995C296.8783 600.0995 289.0583 591.7995 289.0583 580.0795V557.6195C289.0583 545.8995 296.8783 537.1095 309.0783 537.1095H385.2583C396.9683 537.1095 404.7883 545.8995 404.7883 557.6195V580.0795C404.7883 591.7995 396.9683 600.0995 385.2583 600.0995ZM517.0883 600.0995C504.8783 600.0995 497.0683 591.7995 497.0683 580.0795V557.6195C497.0683 545.8995 504.8783 537.1095 517.0883 537.1095H592.7783C604.9783 537.1095 612.7883 545.8995 612.7883 557.6195V580.0795C612.7883 591.7995 604.9783 600.0995 592.7783 600.0995Z"/>
</svg>