<?xml version="1.0" encoding="UTF-8" standalone="no"?>
<svg xmlns="http://www.w3.org/2000/svg"
     width="929.6875" height="898.92578125"
     viewBox="0 0 929.6875 898.92578125"
     fill="currentColor">
  <path d="M153.3183 898.9295H776.3683C878.4183 898.9295 929.6883 848.1495 929.6883 747.5595V151.3695C929.6883 50.7795 878.4183 -0.0005 776.3683 -0.0005H153.3183C51.2683 -0.0005 -0.0017 50.2895 -0.0017 151.3695V747.5595C-0.0017 848.6295 51.2683 898.9295 153.3183 898.9295ZM464.8483 360.3495C422.8483 360.3495 388.6683 326.1695 388.6683 284.1795C388.6683 242.6795 422.8483 208.9795 464.8483 208.9795C506.3483 208.9795 540.5283 242.6795 540.5283 284.1795C540.5283 326.1695 506.3483 360.3495 464.8483 360.3495ZM292.4783 688.4795C250.4883 688.4795 216.3083 654.2995 216.3083 612.3095C216.3083 571.2895 250.4883 536.6195 292.4783 536.6195C333.9883 536.6195 367.6783 571.2895 367.6783 612.3095C367.6783 654.2995 333.9883 688.4795 292.4783 688.4795ZM637.6983 688.4795C595.6983 688.4795 562.0083 654.2995 562.0083 612.3095C562.0083 571.2895 595.6983 536.6195 637.6983 536.6195C678.7083 536.6195 713.3783 571.2895 713.3783 612.3095C713.3783 654.2995 678.7083 688.4795 637.6983 688.4795Z"/>
</svg>