<?xml version="1.0" encoding="UTF-8" standalone="no"?>
<svg xmlns="http://www.w3.org/2000/svg"
     width="1046.38671875" height="839.35546875"
     viewBox="0 0 1046.38671875 839.35546875"
     fill="currentColor">
  <path d="M258.7883 839.3509H787.1083C822.7583 839.3509 855.9583 827.1509 880.3683 803.7109C984.8683 704.5909 1046.3883 561.0309 1046.3883 419.9209C1046.3883 278.8109 984.8683 135.2509 880.3683 36.1309C855.9583 12.6909 822.7583 0.0009 787.1083 0.0009H258.7883C221.6783 0.0009 186.5283 14.1609 161.1283 40.0409C60.5483 138.6709 -0.0017 280.7609 -0.0017 419.9209C-0.0017 561.0309 61.5283 704.5909 166.0183 803.7109C190.4283 827.1509 223.1483 839.3509 258.7883 839.3509ZM258.7883 763.1809C242.1883 763.1809 229.9783 758.7909 220.2183 749.0209C131.8383 665.5309 78.6183 542.9709 78.6183 422.3609C78.6183 301.7609 132.3283 177.7309 221.1883 94.7309C230.9583 85.4509 242.6783 81.0509 258.7883 81.0509H787.1083C803.7083 81.0509 816.4083 85.9409 826.1683 95.7009C914.0583 179.2009 967.7783 301.7609 967.7783 422.3609C967.7783 542.9709 914.0583 665.5309 826.1683 749.0209C816.4083 758.7909 803.7083 763.1809 787.1083 763.1809ZM319.3383 617.1909C343.2583 617.1909 362.7883 599.1209 362.7883 574.7109V270.5109C362.7883 246.0909 343.2583 226.5609 319.3383 226.5609C294.9183 226.5609 276.8583 246.0909 276.8583 270.5109V574.7109C276.8583 599.1209 294.9183 617.1909 319.3383 617.1909ZM726.5583 617.1909C750.9783 617.1909 769.5283 598.6309 769.5283 574.2209V270.5109C769.5283 246.0909 750.9783 226.5609 726.5583 226.5609C702.1483 226.5609 683.5983 246.0909 683.5983 270.5109V574.2209C683.5983 598.1409 702.1483 617.1909 726.5583 617.1909Z"/>
</svg>