<?xml version="1.0" encoding="UTF-8" standalone="no"?>
<svg xmlns="http://www.w3.org/2000/svg"
     width="898.92578125" height="898.92578125"
     viewBox="0 0 898.92578125 898.92578125"
     fill="currentColor">
  <path d="M153.3183 898.9295H745.6083C848.1483 898.9295 898.9283 848.1495 898.9283 747.5595V151.3695C898.9283 50.7795 848.1483 -0.0005 745.6083 -0.0005H153.3183C51.2683 -0.0005 -0.0017 50.2895 -0.0017 151.3695V747.5595C-0.0017 848.6295 51.2683 898.9295 153.3183 898.9295ZM449.7083 713.3795C302.7383 713.3795 185.0583 595.2195 185.0583 448.7295C185.0583 302.2495 302.7383 184.0795 449.7083 184.0795C596.1883 184.0795 713.8683 302.2495 713.8683 448.7295C713.8683 595.2195 596.1883 713.3795 449.7083 713.3795ZM324.2183 507.8095C356.9383 507.8095 383.2983 480.9595 383.2983 448.7295C383.2983 416.4995 356.9383 389.6495 324.2183 389.6495C291.9883 389.6495 265.1383 416.4995 265.1383 448.7295C265.1383 480.9595 291.9883 507.8095 324.2183 507.8095ZM574.7083 507.8095C606.9383 507.8095 633.7883 480.9595 633.7883 448.7295C633.7883 416.4995 606.9383 389.6495 574.7083 389.6495C542.4783 389.6495 515.6283 416.4995 515.6283 448.7295C515.6283 480.9595 542.4783 507.8095 574.7083 507.8095ZM449.7083 642.0895C481.9383 642.0895 508.2983 615.2295 508.2983 583.0095C508.2983 550.7795 481.9383 523.9295 449.7083 523.9295C416.9883 523.9295 390.6283 550.7795 390.6283 583.0095C390.6283 615.2295 416.9883 642.0895 449.7083 642.0895Z"/>
</svg>