<?xml version="1.0" encoding="UTF-8" standalone="no"?>
<svg xmlns="http://www.w3.org/2000/svg"
     width="1110.3515625" height="1038.57421875"
     viewBox="0 0 1110.3515625 1038.57421875"
     fill="currentColor">
  <path d="M555.1777 1038.5703C789.5477 1038.5703 1005.8577 885.2503 1005.8577 717.2803V670.9003H1048.3377C1085.4477 670.9003 1110.3477 646.0003 1110.3477 609.3703V429.6903C1110.3477 392.5803 1085.4477 367.6803 1048.3377 367.6803H1005.8577V321.7803C1005.8577 153.8103 789.5477 0.0003 555.1777 0.0003C320.7977 0.0003 104.4877 153.8103 104.4877 321.7803V367.6803H62.0077C24.8977 367.6803 -0.0023 392.5803 -0.0023 429.6903V609.3703C-0.0023 646.0003 24.8977 670.9003 62.0077 670.9003H104.4877V717.2803C104.4877 885.2503 320.7977 1038.5703 555.1777 1038.5703ZM555.1777 959.9603C360.8377 959.9603 183.1077 836.9103 183.1077 717.2803V321.7803C183.1077 202.1503 360.8377 78.6103 555.1777 78.6103C749.5077 78.6103 927.2477 202.1503 927.2477 321.7803V717.2803C927.2477 836.9103 749.5077 959.9603 555.1777 959.9603ZM328.6177 611.8203C379.8877 611.8203 420.8977 570.3103 420.8977 519.5303C420.8977 468.7503 379.8877 427.2503 328.6177 427.2503C277.8277 427.2503 236.8177 468.7503 236.8177 519.5303C236.8177 570.3103 277.8277 611.8203 328.6177 611.8203ZM781.2477 611.8203C832.5177 611.8203 873.5377 570.3103 873.5377 519.5303C873.5377 468.7503 832.5177 427.2503 781.2477 427.2503C730.4677 427.2503 689.4577 468.7503 689.4577 519.5303C689.4577 570.3103 730.4677 611.8203 781.2477 611.8203Z"/>
</svg>