<?xml version="1.0" encoding="UTF-8" standalone="no"?>
<svg xmlns="http://www.w3.org/2000/svg"
     width="996.09375" height="996.09375"
     viewBox="0 0 996.09375 996.09375"
     fill="currentColor">
  <path d="M498.0477 996.0959C770.5077 996.0959 996.0977 770.0159 996.0977 498.0459C996.0977 225.5859 770.0177 -0.0041 497.5577 -0.0041C225.5877 -0.0041 -0.0023 225.5859 -0.0023 498.0459C-0.0023 770.0159 226.0777 996.0959 498.0477 996.0959ZM498.5377 509.2759C479.0077 509.2759 465.3277 495.1159 465.3277 475.0959V254.8859C465.3277 234.3759 479.0077 220.2159 498.5377 220.2159C518.0677 220.2159 532.2277 234.3759 532.2277 254.8859V475.0959C532.2277 495.1159 518.0677 509.2759 498.5377 509.2759ZM498.5377 761.7159C354.4877 761.7159 234.3777 641.6059 234.3777 498.0459C234.3777 425.2959 266.5977 353.0259 321.2877 304.6859C355.4677 271.9759 402.8277 321.2859 367.1877 354.4959C327.1477 391.6059 304.6877 442.3859 304.6877 498.0459C304.6877 605.9559 390.6277 692.3859 498.5377 692.3859C606.4477 692.3859 692.8677 605.9559 692.8677 498.0459C692.3877 442.3859 669.4377 391.6059 629.8877 354.9759C594.2377 321.7759 641.5977 272.4559 676.2677 304.6859C730.4677 354.0059 762.6977 425.7859 762.6977 498.0459C762.6977 641.6059 642.5777 761.7159 498.5377 761.7159Z"/>
</svg>