<?xml version="1.0" encoding="UTF-8" standalone="no"?>
<svg xmlns="http://www.w3.org/2000/svg"
     width="996.09375" height="996.09375"
     viewBox="0 0 996.09375 996.09375"
     fill="currentColor">
  <path d="M498.0477 996.0959C770.5077 996.0959 996.0977 770.0159 996.0977 498.0459C996.0977 225.5859 770.0177 -0.0041 497.5577 -0.0041C225.5877 -0.0041 -0.0023 225.5859 -0.0023 498.0459C-0.0023 770.0159 226.0777 996.0959 498.0477 996.0959ZM292.9677 593.2659C240.2377 593.2659 198.2377 550.2959 198.2377 498.0459C198.2377 445.7959 240.2377 402.8359 292.9677 402.8359C345.7077 402.8359 388.1877 445.7959 388.1877 498.0459C388.1877 550.2959 345.7077 593.2659 292.9677 593.2659ZM703.1277 593.2659C650.3877 593.2659 607.9077 550.2959 607.9077 498.0459C607.9077 445.7959 650.3877 402.8359 703.1277 402.8359C755.8577 402.8359 797.8477 445.7959 797.8477 498.0459C797.8477 550.2959 755.8577 593.2659 703.1277 593.2659Z"/>
</svg>