<?xml version="1.0" encoding="UTF-8" standalone="no"?>
<svg xmlns="http://www.w3.org/2000/svg"
     width="898.92578125" height="898.92578125"
     viewBox="0 0 898.92578125 898.92578125"
     fill="currentColor">
  <path d="M153.3183 898.9295H745.6083C848.1483 898.9295 898.9283 848.1495 898.9283 747.5595V151.3695C898.9283 50.7795 848.1483 -0.0005 745.6083 -0.0005H153.3183C51.2683 -0.0005 -0.0017 50.2895 -0.0017 151.3695V747.5595C-0.0017 848.6295 51.2683 898.9295 153.3183 898.9295ZM154.2983 820.3095C105.4683 820.3095 78.6183 794.4295 78.6183 743.6495V155.2695C78.6183 104.4895 105.4683 78.6095 154.2983 78.6095H744.6283C792.9683 78.6095 820.3083 104.4895 820.3083 155.2695V743.6495C820.3083 794.4295 792.9683 820.3095 744.6283 820.3095ZM170.4083 494.1395C170.4083 512.6995 183.1083 524.8995 201.6583 524.8995H223.1483V548.3395C223.1483 632.3195 332.0283 709.4695 449.7083 709.4695C566.8983 709.4695 675.7783 632.3195 675.7783 548.3395V524.8995H697.2683C715.8183 524.8995 728.5183 512.6995 728.5183 494.1395V403.8095C728.5183 385.2495 715.8183 373.0495 697.2683 373.0495H675.7783V349.1195C675.7783 265.6295 566.8983 188.4795 449.7083 188.4795C332.0283 188.4795 223.1483 265.6295 223.1483 349.1195V373.0495H201.6583C183.1083 373.0495 170.4083 385.2495 170.4083 403.8095ZM328.1283 505.8595C296.8783 505.8595 270.9983 480.4695 270.9983 448.7295C270.9983 417.4795 296.8783 392.0895 328.1283 392.0895C359.8683 392.0895 385.2583 417.4795 385.2583 448.7295C385.2583 480.4695 359.8683 505.8595 328.1283 505.8595ZM570.7983 505.8595C539.5483 505.8595 513.6683 480.4695 513.6683 448.7295C513.6683 417.4795 539.5483 392.0895 570.7983 392.0895C602.0483 392.0895 627.9283 417.4795 627.9283 448.7295C627.9283 480.4695 602.0483 505.8595 570.7983 505.8595Z"/>
</svg>