<?xml version="1.0" encoding="UTF-8" standalone="no"?>
<svg xmlns="http://www.w3.org/2000/svg"
     width="1311.2801944076957" height="683.10546875"
     viewBox="0 0 1311.2801944076957 683.10546875"
     fill="currentColor">
  <path d="M359.3706 -0.0041C292.4806 -0.0041 253.4206 28.3159 205.5706 78.1259L37.6006 256.3459C-12.6994 308.5959 -12.2094 370.6059 37.1106 423.3359L205.0806 604.4959C248.5306 650.8759 296.8706 683.1059 359.3706 683.1059H952.1506C1014.6506 683.1059 1062.5006 650.8759 1106.4406 604.4959L1273.9306 423.3359C1323.2406 370.6059 1324.2206 308.5959 1273.9306 256.3459L1105.9606 78.1259C1057.6206 28.3159 1019.0406 -0.0041 952.1506 -0.0041ZM359.3706 78.6159H952.1506C994.6306 78.6159 1012.2106 92.7759 1043.9406 125.4859L1211.9106 302.2459C1237.7906 329.1059 1237.7906 351.5659 1212.4006 377.9259L1043.9406 557.1259C1016.1106 585.9359 990.2306 604.4959 952.1506 604.4959H359.3706C320.8006 604.4959 295.4106 585.9359 267.5806 557.1259L99.1206 377.9259C73.2406 351.5659 73.2406 329.1059 99.6106 302.2459L267.5806 125.4859C299.3206 92.7759 316.4106 78.6159 359.3706 78.6159ZM331.0506 256.3459C284.6706 256.3459 246.5806 294.9259 246.5806 341.3059C246.5806 387.6959 284.6706 426.2659 331.0506 426.2659C377.9306 426.2659 416.0206 387.6959 416.0206 341.3059C416.0206 294.9259 377.9306 256.3459 331.0506 256.3459ZM980.9606 256.3459C934.5706 256.3459 896.0006 294.9259 896.0006 341.3059C896.0006 387.6959 934.5706 426.2659 980.9606 426.2659C1027.3406 426.2659 1065.9206 387.6959 1065.9206 341.3059C1065.9206 294.9259 1027.3406 256.3459 980.9606 256.3459ZM656.2506 343.2659C609.3706 343.2659 571.2906 381.8359 571.2906 428.2259C571.2906 474.6059 609.3706 513.1859 656.2506 513.1859C702.6406 513.1859 740.7206 474.6059 740.7206 428.2259C740.7206 381.8359 702.6406 343.2659 656.2506 343.2659Z"/>
</svg>