<?xml version="1.0" encoding="UTF-8" standalone="no"?>
<svg xmlns="http://www.w3.org/2000/svg"
     width="996.09375" height="1024.4140625"
     viewBox="0 0 996.09375 1024.4140625"
     fill="currentColor">
  <path d="M498.0477 521.4862C521.4877 521.4862 537.5977 504.3963 537.5977 479.9763V41.5063C537.5977 16.6063 521.4877 -0.0037 498.0477 -0.0037C474.6077 -0.0037 458.9877 16.6063 458.9877 41.5063V479.9763C458.9877 504.3963 474.6077 521.4862 498.0477 521.4862ZM498.0477 1024.4163C770.5077 1024.4163 996.0977 798.3363 996.0977 526.3663C996.0977 376.4663 927.7377 246.5862 833.9877 161.1363C791.0177 122.0662 735.8377 180.1762 778.3177 220.7062C861.3277 296.3863 912.5977 404.7863 913.0877 526.3663C913.5777 756.8363 728.5177 941.4063 498.0477 941.4063C267.5777 941.4063 83.4977 756.8363 83.4977 526.3663C83.9877 403.8063 135.2577 295.8963 217.7777 220.2162C260.7377 179.1962 205.0777 121.5862 162.1077 160.6463C67.8677 246.0963 -0.0023 376.4663 -0.0023 526.3663C-0.0023 798.3363 226.0777 1024.4163 498.0477 1024.4163Z"/>
</svg>