<?xml version="1.0" encoding="UTF-8" standalone="no"?>
<svg xmlns="http://www.w3.org/2000/svg"
     width="1356.93359375" height="933.10546875"
     viewBox="0 0 1356.93359375 933.10546875"
     fill="currentColor">
  <path d="M-0.0017 569.8242C-0.0017 645.0242 38.5783 683.1042 115.2383 683.1042H292.4783C368.1683 683.1042 408.6883 703.6142 458.0083 768.0642C541.0183 875.0042 668.4583 933.1042 800.2883 933.1042H971.1883C1008.2983 933.1042 1031.7383 909.6642 1031.7383 873.0442V734.3742H1277.8283C1321.2883 734.3742 1356.9383 698.7342 1356.9383 655.2742C1356.9383 611.8142 1321.2883 576.1742 1277.8283 576.1742H1031.7383V356.9342H1277.8283C1321.2883 356.9342 1356.9383 321.2842 1356.9383 277.8342C1356.9383 234.3742 1321.2883 198.7342 1277.8283 198.7342H1031.7383V58.5942C1031.7383 22.9442 1007.8083 0.0042 971.1883 0.0042H800.2883C668.4583 0.0042 541.0183 58.1042 458.0083 165.0342C408.6883 229.4942 368.1683 250.4842 292.4783 250.4842H115.2383C38.5783 250.4842 -0.0017 288.0842 -0.0017 363.2842ZM73.7283 562.0142V371.0942C73.7283 340.3342 91.3083 324.2142 120.6083 324.2142H292.4783C391.5983 324.2142 452.6383 292.9642 516.1183 210.4442C584.9583 121.0942 690.4283 73.7342 800.2883 73.7342H941.4083C952.1483 73.7342 958.0083 79.5942 958.0083 89.8442V843.2642C958.0083 853.5142 952.1483 859.3742 941.4083 859.3742H800.2883C690.4283 859.3742 584.9583 812.5042 516.1183 722.6542C452.6383 640.1342 391.5983 609.3742 292.4783 609.3742H120.6083C91.3083 609.3742 73.7283 593.2642 73.7283 562.0142Z"/>
</svg>