<?xml version="1.0" encoding="UTF-8" standalone="no"?>
<svg xmlns="http://www.w3.org/2000/svg"
     width="1103.02734375" height="1051.7578125"
     viewBox="0 0 1103.02734375 1051.7578125"
     fill="currentColor">
  <path d="M145.5083 906.7372H196.7783V958.4972C196.7783 1023.4372 228.0283 1051.7572 290.0383 1051.7572H812.9883C874.9983 1051.7572 906.2483 1023.4372 906.2483 958.4972V906.7372H958.0083C1052.7383 906.7372 1103.0283 858.8872 1103.0283 763.6672V306.6372C1103.0283 211.9172 1052.7383 163.5772 958.0083 163.5772H909.6683V137.6972C909.6683 42.4772 862.3083 -0.0028 771.4883 -0.0028H331.5383C245.6083 -0.0028 193.3583 42.4772 193.3583 137.6972V163.5772H145.5083C55.1783 163.5772 -0.0017 211.9172 -0.0017 306.6372V763.6672C-0.0017 858.8872 50.2883 906.7372 145.5083 906.7372ZM269.0383 132.3272C269.0383 91.3072 290.0383 71.2872 330.5683 71.2872H772.4583C813.4783 71.2872 833.9883 91.3072 833.9883 132.3272V163.5772H269.0383ZM812.9883 466.7972H290.0383C230.9583 466.7972 196.7783 495.1172 196.7783 560.0572V833.0072H144.5283C101.0783 833.0072 79.0983 810.5472 79.0983 767.5772V302.7372C79.0983 259.7672 101.0783 237.3072 144.5283 237.3072H958.9883C1001.9483 237.3072 1024.4183 259.7672 1024.4183 302.7372V767.5772C1024.4183 810.5472 1001.9483 833.0072 958.9883 833.0072H906.2483V560.0572C906.2483 495.1172 874.9983 466.7972 812.9883 466.7972ZM788.0883 353.0272C788.0883 387.2072 816.4083 414.0672 849.6083 414.0672C882.3283 414.0672 910.1583 387.2072 910.1583 353.0272C910.1583 320.7972 882.3283 292.4772 849.6083 292.4772C816.4083 292.4772 788.0883 320.7972 788.0883 353.0272ZM314.4483 978.0272C288.5783 978.0272 275.3883 965.3272 275.3883 938.9672V579.0972C275.3883 552.7372 288.5783 540.5272 314.4483 540.5272H789.0583C815.4283 540.5272 827.6383 552.7372 827.6383 579.0972V938.9672C827.6383 965.3272 815.4283 978.0272 789.0583 978.0272ZM395.5083 668.4572C419.9183 668.4572 439.9383 649.4172 439.9383 624.5072C439.9383 600.0972 419.9183 581.0572 395.5083 581.0572C371.5783 581.0572 351.5583 600.0972 351.5583 624.5072C351.5583 649.4172 371.5783 668.4572 395.5083 668.4572ZM708.0083 668.4572C732.4183 668.4572 751.9483 649.4172 751.9483 624.5072C751.9483 600.0972 732.4183 581.0572 708.0083 581.0572C683.5983 581.0572 664.0583 600.0972 664.0583 624.5072C664.0583 649.4172 683.5983 668.4572 708.0083 668.4572ZM395.5083 802.7372C419.9183 802.7372 439.9383 783.6872 439.9383 759.2772C439.9383 734.8672 419.9183 715.3272 395.5083 715.3272C371.5783 715.3272 351.5583 734.8672 351.5583 759.2772C351.5583 783.6872 371.5783 802.7372 395.5083 802.7372ZM708.0083 802.7372C732.4183 802.7372 751.9483 783.6872 751.9483 759.2772C751.9483 734.8672 732.4183 715.3272 708.0083 715.3272C683.5983 715.3272 664.0583 734.8672 664.0583 759.2772C664.0583 783.6872 683.5983 802.7372 708.0083 802.7372ZM395.5083 937.4972C419.9183 937.4972 439.9383 918.4572 439.9383 893.5572C439.9383 869.1372 419.9183 850.0972 395.5083 850.0972C371.5783 850.0972 351.5583 869.1372 351.5583 893.5572C351.5583 918.4572 371.5783 937.4972 395.5083 937.4972ZM708.0083 937.4972C732.4183 937.4972 751.9483 918.4572 751.9483 893.5572C751.9483 869.1372 732.4183 850.0972 708.0083 850.0972C683.5983 850.0972 664.0583 869.1372 664.0583 893.5572C664.0583 918.4572 683.5983 937.4972 708.0083 937.4972Z"/>
</svg>