<?xml version="1.0" encoding="UTF-8" standalone="no"?>
<svg xmlns="http://www.w3.org/2000/svg"
     width="1097.16796875" height="1048.33984375"
     viewBox="0 0 1097.16796875 1048.33984375"
     fill="currentColor">
  <path d="M193.3583 112.7975H903.8083V104.4875C903.8083 32.2275 847.6583 -0.0025 768.5583 -0.0025H328.6183C252.9283 -0.0025 193.3583 32.2275 193.3583 104.4875ZM272.4583 1048.3375H824.7083C886.7183 1048.3375 917.9683 1020.5075 917.9683 955.5675V861.8175H951.6583C1046.8783 861.8175 1097.1683 813.9675 1097.1683 718.7475V321.2875C1097.1683 226.0775 1046.8783 177.7375 951.6583 177.7375H145.0183C55.1783 177.7375 -0.0017 226.0775 -0.0017 321.2875V718.7475C-0.0017 813.9675 50.2883 861.8175 145.0183 861.8175H179.1983V955.5675C179.1983 1020.5075 210.4483 1048.3375 272.4583 1048.3375ZM786.1283 339.3575C786.1283 305.6675 814.9383 276.3675 849.6083 276.3675C882.8083 276.3675 912.1083 305.6675 912.1083 339.3575C912.1083 374.0275 882.8083 401.3675 849.6083 401.8575C814.9383 401.8575 786.1283 374.5075 786.1283 339.3575ZM296.8783 975.0975C270.5083 975.0975 257.8083 962.3975 257.8083 936.0375V573.2375C257.8083 547.3675 270.9983 534.6675 296.8783 534.6675H800.7783C826.6583 534.6675 839.3583 547.3675 839.3583 573.2375V936.0375C839.3583 962.3975 826.6583 975.0975 800.7783 975.0975ZM379.3983 701.1675H718.7483C735.8383 701.1675 749.0283 687.9875 749.0283 670.4075C749.0283 653.8075 735.8383 641.1175 718.7483 641.1175H379.3983C361.3283 641.1175 348.6283 653.8075 348.6283 670.4075C348.6283 687.9875 361.3283 701.1675 379.3983 701.1675ZM379.3983 871.5775H718.7483C735.8383 871.5775 749.0283 858.3975 749.0283 841.7975C749.0283 824.7075 735.8383 811.5275 718.7483 811.5275H379.3983C361.3283 811.5275 348.6283 824.7075 348.6283 841.7975C348.6283 858.3975 361.3283 871.5775 379.3983 871.5775Z"/>
</svg>