<?xml version="1.0" encoding="UTF-8" standalone="no"?>
<svg xmlns="http://www.w3.org/2000/svg"
     width="996.09375" height="996.09375"
     viewBox="0 0 996.09375 996.09375"
     fill="currentColor">
  <path d="M498.0477 996.0959C770.5077 996.0959 996.0977 770.0159 996.0977 498.0459C996.0977 225.5859 770.0177 -0.0041 497.5577 -0.0041C225.5877 -0.0041 -0.0023 225.5859 -0.0023 498.0459C-0.0023 770.0159 226.0777 996.0959 498.0477 996.0959ZM277.3477 637.6959C277.3477 621.0959 290.0377 607.9059 306.1477 607.9059C315.4277 607.9059 323.2377 610.8359 330.5677 618.6559L355.4677 644.0459L389.6477 682.6159L387.2077 604.0059V393.5559C387.2077 286.1359 452.6377 217.2859 555.1777 217.2859C652.8277 217.2859 719.7277 286.1359 719.7277 386.7159C719.7277 485.8359 655.2777 552.2459 557.6177 552.2459C538.0877 552.2459 520.0177 546.8759 510.2577 537.1059C504.3977 531.2459 500.9777 523.9259 500.9777 514.6459C500.9777 499.5159 513.1877 487.7959 529.2977 487.7959C538.5777 487.7959 545.4077 491.2059 559.5677 491.2059C617.1877 491.2059 657.7177 448.7259 658.2077 386.7159C658.2077 323.2459 616.6977 280.7659 555.1777 280.7659C487.7977 280.7659 450.6877 322.7559 450.6877 398.9259V603.5159L448.2377 682.6159L482.9077 643.5559L507.3277 617.6759C514.6477 610.8359 521.4877 607.9059 531.7377 607.9059C547.8477 607.9059 561.0377 621.0959 561.0377 637.6959C561.0377 645.0159 557.6177 652.8359 551.2677 660.1559L453.6177 756.8359C442.3877 768.0659 430.6677 773.4359 418.9477 773.4359C407.7177 773.4359 396.4877 767.5759 384.7677 756.8359L287.5977 660.6459C281.2477 653.8059 277.3477 645.0159 277.3477 637.6959Z"/>
</svg>