<?xml version="1.0" encoding="UTF-8" standalone="no"?>
<svg xmlns="http://www.w3.org/2000/svg"
     width="1414.0625" height="939.94140625"
     viewBox="0 0 1414.0625 939.94140625"
     fill="currentColor">
  <path d="M-0.0017 470.2122C-0.0017 569.8222 70.3083 624.5122 149.4183 624.5122C182.6183 624.5122 207.5183 615.2322 237.3083 596.6822C265.1383 579.5922 285.1583 589.8422 285.1583 613.7722V794.4322C285.1583 890.6222 335.9383 939.9422 433.1083 939.9422H563.4783C586.9183 939.9422 597.1683 920.4122 580.5683 892.5822C561.5283 862.7922 552.2483 837.8922 552.2483 804.6922C552.2483 725.5822 607.4183 655.2722 707.0283 655.2722C806.6383 655.2722 861.3283 725.5822 861.3283 804.6922C861.3283 837.8922 852.0483 862.7922 833.4983 892.5822C816.8983 920.4122 826.6583 939.9422 850.5883 939.9422H980.9583C1078.1283 939.9422 1128.9083 890.6222 1128.9083 794.4322V613.7722C1128.9083 589.8422 1148.9283 579.5922 1176.2683 596.6822C1206.5383 615.2322 1231.4483 624.5122 1264.1583 624.5122C1343.7483 624.5122 1414.0583 569.8222 1414.0583 470.2122C1414.0583 370.1122 1343.7483 315.4322 1264.1583 315.4322C1231.4483 315.4322 1206.5383 324.7022 1176.2683 343.2622C1148.9283 360.3522 1128.9083 350.1022 1128.9083 326.1722V145.5122C1128.9083 49.8022 1078.1283 0.0022 980.9583 0.0022H850.5883C826.6583 0.0022 816.8983 20.0222 833.4983 47.8522C852.0483 77.6322 861.3283 102.5422 861.3283 135.7422C861.3283 214.8422 806.6383 285.1522 707.0283 285.1522C607.4183 285.1522 552.2483 214.8422 552.2483 135.7422C552.2483 102.5422 561.5283 77.6322 580.5683 47.8522C597.1683 20.0222 586.9183 0.0022 563.4783 0.0022H433.1083C335.9383 0.0022 285.1583 49.8022 285.1583 145.5122V326.1722C285.1583 350.1022 265.1383 360.3522 237.3083 343.2622C207.5183 324.7022 182.6183 315.4322 149.4183 315.4322C70.3083 315.4322 -0.0017 370.1122 -0.0017 470.2122Z"/>
</svg>