<?xml version="1.0" encoding="UTF-8" standalone="no"?>
<svg xmlns="http://www.w3.org/2000/svg"
     width="1437.5" height="943.84765625"
     viewBox="0 0 1437.5 943.84765625"
     fill="currentColor">
  <path d="M445.7983 943.8453H607.9083C648.4383 943.8453 674.3183 916.9953 674.3183 883.3053C674.3183 864.7453 666.5083 845.7053 648.9283 826.6553C627.4383 803.2253 614.2583 775.8753 614.2583 747.5553C614.2583 690.9153 654.7883 644.5353 718.7483 644.5353C782.7183 644.5353 823.2383 690.9153 823.2383 747.5553C823.2383 775.8753 809.5683 803.2253 788.0883 826.6553C770.9983 845.7053 763.1883 864.7453 763.1883 883.3053C763.1883 916.9953 789.0583 943.8453 829.5883 943.8453H991.2083C1089.3583 943.8453 1140.6283 893.5553 1140.6283 796.8753V624.5153C1140.6283 616.6953 1145.9983 612.7953 1154.7883 619.1453C1186.0383 641.1153 1221.6783 656.7353 1262.2083 656.7353C1354.4883 656.7353 1437.4983 582.5153 1437.4983 473.6353C1437.4983 365.2353 1354.4883 291.0153 1262.2083 291.0153C1221.6783 291.0153 1186.0383 306.6453 1154.7883 328.6153C1145.9983 334.9653 1140.6283 331.0553 1140.6283 323.2453V146.9753C1140.6283 50.2953 1089.3583 -0.0047 991.2083 -0.0047H829.5883C789.0583 -0.0047 763.1883 26.8553 763.1883 60.5453C763.1883 79.1053 770.9983 98.1453 788.0883 117.1853C809.5683 141.1153 823.2383 167.9653 823.2383 196.7753C823.2383 252.4453 781.7383 299.3153 718.7483 299.3153C655.7583 299.3153 614.2583 252.4453 614.2583 196.7753C614.2583 167.9653 627.4383 141.1153 648.9283 117.1853C666.5083 98.1453 674.3183 79.1053 674.3183 60.5453C674.3183 26.8553 648.4383 -0.0047 607.9083 -0.0047H445.7983C348.1483 -0.0047 296.8783 50.2953 296.8783 146.9753V323.2453C296.8783 331.0553 291.5083 334.9653 282.7183 328.6153C251.4683 306.6453 215.8183 291.0153 174.8083 291.0153C83.0083 291.0153 -0.0017 365.2353 -0.0017 473.6353C-0.0017 582.5153 83.0083 656.7353 174.8083 656.7353C215.8183 656.7353 251.4683 641.1153 282.7183 619.1453C291.5083 612.7953 296.8783 616.6953 296.8783 624.5153V796.8753C296.8783 893.5553 348.1483 943.8453 445.7983 943.8453ZM447.2683 865.2353C402.3483 865.2353 375.4883 839.8453 375.4883 792.9653V584.9653C375.4883 543.9453 348.6283 518.0653 314.9383 518.0653C296.3883 518.0653 277.3483 525.8753 258.2983 543.4553C234.3783 564.9453 207.5183 578.6153 178.7083 578.6153C123.0483 578.6153 76.1683 537.1053 76.1683 473.6353C76.1683 410.6453 123.0483 369.1453 178.7083 369.1453C207.5183 369.1453 234.3783 382.8153 258.2983 404.2953C277.3483 421.8753 296.3883 429.6853 314.9383 429.6853C348.6283 429.6853 375.4883 403.8053 375.4883 362.7953V150.8753C375.4883 104.4953 402.3483 78.6153 447.2683 78.6153H559.5683C582.5183 78.6153 575.1983 90.3353 569.3383 99.6053C550.2883 129.3953 536.1283 162.1053 536.1283 200.6853C536.1283 292.4853 609.8683 375.4853 718.7483 375.4853C827.6383 375.4853 901.3683 292.4853 901.3683 200.6853C901.3683 162.1053 887.2083 129.3953 868.1683 99.6053C862.3083 90.3353 854.9783 78.6153 877.9283 78.6153H990.2383C1035.1583 78.6153 1062.0083 104.4953 1062.0083 150.8753V362.7953C1062.0083 403.8053 1088.8683 429.6853 1122.5583 429.6853C1141.1183 429.6853 1160.1583 421.8753 1179.1983 404.2953C1202.6383 382.8153 1229.9783 369.1453 1258.2983 369.1453C1314.4483 369.1453 1361.3283 410.6453 1361.3283 473.6353C1361.3283 537.1053 1314.4483 578.6153 1258.2983 578.6153C1229.9783 578.6153 1202.6383 564.9453 1179.1983 543.4553C1160.1583 525.8753 1141.1183 518.0653 1122.5583 518.0653C1088.8683 518.0653 1062.0083 543.9453 1062.0083 584.9653V792.9653C1062.0083 839.8453 1035.1583 865.2353 990.2383 865.2353H877.9283C854.9783 865.2353 862.3083 853.5153 868.1683 844.2353C887.2083 814.4553 901.3683 781.7353 901.3683 743.6553C901.3683 650.3953 828.6183 568.3553 718.7483 568.3553C608.8883 568.3553 536.1283 650.3953 536.1283 743.6553C536.1283 781.7353 550.2883 814.4553 569.3383 844.2353C575.1983 853.5153 582.5183 865.2353 559.5683 865.2353Z"/>
</svg>