<?xml version="1.0" encoding="UTF-8" standalone="no"?>
<svg xmlns="http://www.w3.org/2000/svg"
     width="1002.8831257233807" height="1094.300490287903"
     viewBox="0 0 1002.8831257233807 1094.300490287903"
     fill="currentColor">
  <path d="M12.1791 802.2445C-10.2809 841.3045 -1.9809 884.7645 39.5291 902.8345L468.7291 1087.4045C490.2091 1096.6845 511.6991 1096.6845 534.6491 1086.9145L963.3591 902.8345C1004.8591 884.7645 1013.1591 841.3045 990.6991 802.2445L547.3391 28.3245C533.6691 4.3945 517.0691 0.0045 501.4391 0.0045C485.3291 0.0045 468.7291 4.3945 455.0591 28.3245ZM91.2891 816.8945L464.3291 169.4345V1011.2345L99.5891 846.1945C88.3591 840.8245 83.9591 830.0745 91.2891 816.8945ZM911.5991 816.8945C918.9191 830.0745 914.5291 840.8245 902.8091 846.1945L538.0591 1011.2345V169.4345Z"/>
</svg>