<?xml version="1.0" encoding="UTF-8" standalone="no"?>
<svg xmlns="http://www.w3.org/2000/svg"
     width="996.09375" height="996.09375"
     viewBox="0 0 996.09375 996.09375"
     fill="currentColor">
  <path d="M498.0477 996.0959C770.5077 996.0959 996.0977 770.0159 996.0977 498.0459C996.0977 225.5859 770.0177 -0.0041 497.5577 -0.0041C225.5877 -0.0041 -0.0023 225.5859 -0.0023 498.0459C-0.0023 770.0159 226.0777 996.0959 498.0477 996.0959ZM498.0477 734.3759C369.1377 734.3759 279.7877 634.7659 279.7877 493.1659C279.7877 351.0759 369.1377 251.9559 498.0477 251.9559C626.9577 251.9559 716.3077 351.0759 716.3077 493.1659C716.3077 577.1459 685.0577 645.5059 633.2977 687.0159L663.5777 727.5359C672.8477 740.2359 675.2977 746.0959 675.2977 755.3759C675.2977 772.9459 663.5777 785.1559 645.5077 785.1559C632.8077 785.1559 623.5377 780.2759 613.7677 766.6059L578.6177 719.7259C554.1977 729.0059 527.3477 734.3759 498.0477 734.3759ZM498.0477 670.4059C512.6977 670.4059 525.8777 668.4559 538.0877 664.5459L513.6677 630.8559C506.3477 621.5859 503.9077 614.2559 503.9077 605.4659C503.9077 589.3559 517.5777 576.6559 534.1777 576.6559C545.8977 576.6559 553.7077 580.5659 561.5277 590.8159L590.3277 629.3959C619.1377 599.1259 635.7377 551.7559 635.7377 493.1659C635.7377 385.7459 581.0577 315.9159 498.0477 315.9159C415.0377 315.9159 360.8377 385.7459 360.8377 493.1659C360.8377 600.5859 415.0377 670.4059 498.0477 670.4059Z"/>
</svg>