<?xml version="1.0" encoding="UTF-8" standalone="no"?>
<svg xmlns="http://www.w3.org/2000/svg"
     width="898.92578125" height="898.92578125"
     viewBox="0 0 898.92578125 898.92578125"
     fill="currentColor">
  <path d="M153.3183 898.9295H745.6083C848.1483 898.9295 898.9283 848.1495 898.9283 747.5595V151.3695C898.9283 50.7795 848.1483 -0.0005 745.6083 -0.0005H153.3183C51.2683 -0.0005 -0.0017 50.2895 -0.0017 151.3695V747.5595C-0.0017 848.6295 51.2683 898.9295 153.3183 898.9295ZM449.7083 685.0595C320.7983 685.0595 231.4483 585.4495 231.4483 443.8495C231.4483 301.7595 320.7983 202.6395 449.7083 202.6395C578.6183 202.6395 667.9683 301.7595 667.9683 443.8495C667.9683 527.8295 636.7183 596.1895 584.9583 637.6995L615.2383 678.2195C624.5083 690.9195 627.4383 696.7795 627.4383 706.0595C627.4383 723.6295 615.2383 735.8395 597.1683 735.8395C584.4683 735.8395 575.1983 730.9595 565.4283 717.2895L530.2783 670.4095C506.3483 679.6895 479.0083 685.0595 449.7083 685.0595ZM449.7083 621.0895C464.3583 621.0895 477.5383 619.1395 489.7483 615.2295L465.3283 581.5395C458.4983 572.2695 455.5683 564.9395 455.5683 556.1495C455.5683 540.0395 469.2383 527.3395 485.8383 527.3395C497.5583 527.3395 505.3683 531.2495 513.1883 541.4995L541.9883 580.0795C570.7983 549.8095 587.3983 502.4395 587.3983 443.8495C587.3983 336.4295 533.1983 266.5995 449.7083 266.5995C366.6983 266.5995 312.4983 336.4295 312.4983 443.8495C312.4983 551.2695 366.6983 621.0895 449.7083 621.0895Z"/>
</svg>