<?xml version="1.0" encoding="UTF-8" standalone="no"?>
<svg xmlns="http://www.w3.org/2000/svg"
     width="1208.0078125" height="802.734375"
     viewBox="0 0 1208.0078125 802.734375"
     fill="currentColor">
  <path d="M190.4308 802.7363H700.6808C819.8208 802.7363 891.1108 733.3963 891.1108 614.2563V547.3663L1075.6808 703.6163C1095.2108 719.7263 1116.7008 730.9563 1136.7208 730.9563C1179.6908 730.9563 1208.0108 699.2162 1208.0108 653.8063V148.9262C1208.0108 103.5163 1179.6908 71.7763 1136.7208 71.7763C1116.7008 71.7763 1095.2108 83.0063 1075.6808 99.1163L891.1108 255.3663V187.9863C891.1108 69.3362 819.8208 -0.0037 700.6808 -0.0037H190.4308C76.6608 -0.0037 0.0008 69.3362 0.0008 187.9863V614.2563C0.0008 733.3963 71.2908 802.7363 190.4308 802.7363ZM204.1008 729.0063C124.0208 729.0063 78.6108 687.4963 78.6108 603.0263V199.7062C78.6108 114.7463 124.0208 73.2463 204.1008 73.2463H687.0108C766.6008 73.2463 812.5008 114.7463 812.5008 199.7062V603.0263C812.5008 687.4963 766.6008 729.0063 687.0108 729.0063ZM1112.3008 637.2063L891.1108 454.5863V348.1463L1112.3008 165.5263C1116.7008 162.1063 1119.6308 159.6663 1124.0208 159.6663C1129.8808 159.6663 1132.3208 164.5462 1132.3208 171.3863V631.3463C1132.3208 638.1863 1129.8808 642.5763 1124.0208 642.5763C1119.6308 642.5763 1116.7008 640.1363 1112.3008 637.2063ZM432.6208 495.6063C454.5908 495.6063 468.2608 481.9363 468.2608 463.8663V458.4963C468.2608 433.5963 482.4208 418.4563 513.6708 397.9463C556.6408 369.6263 586.9108 343.7462 586.9108 290.5263C586.9108 216.7963 521.4808 177.7363 445.8008 177.7363C369.6308 177.7363 320.8008 213.3763 307.6208 253.9063C305.1808 261.2263 304.2008 268.5563 304.2008 276.3663C304.2008 295.8963 319.8208 306.6363 334.4708 306.6363C359.3708 306.6363 363.7708 292.9663 377.9308 276.3663C392.5808 252.4463 414.0608 237.7963 443.3608 237.7963C483.8908 237.7963 509.7608 260.2563 509.7608 293.9463C509.7608 324.2163 491.2108 338.8663 452.6408 365.7263C420.9008 388.1862 396.9708 411.6163 396.9708 454.5863V460.4463C396.9708 483.8863 409.6708 495.6063 432.6208 495.6063ZM431.1508 627.4463C456.5408 627.4463 479.0008 607.4263 479.0008 581.5463C479.0008 556.1563 457.0308 535.6463 431.1508 535.6463C405.2708 535.6463 383.7908 556.1563 383.7908 581.5463C383.7908 606.9363 405.7608 627.4463 431.1508 627.4463Z"/>
</svg>