<?xml version="1.0" encoding="UTF-8" standalone="no"?>
<svg xmlns="http://www.w3.org/2000/svg"
     width="900.390625" height="895.99609375"
     viewBox="0 0 900.390625 895.99609375"
     fill="currentColor">
  <path d="M57.1283 57.6147C9.2783 105.4647 -0.0017 171.8747 -0.0017 250.9747V255.8547H78.6183V248.0447C78.6183 196.7747 84.9583 144.0447 114.2583 114.7447C144.0383 84.9647 197.2683 78.6147 248.5383 78.6147H257.3283V0.0047H251.4683C172.3683 0.0047 105.4683 9.2747 57.1283 57.6147ZM324.2183 78.6147H576.1683V0.0047H324.2183ZM843.2583 57.6147C794.9183 9.2747 728.0283 0.0047 647.4583 0.0047H642.5783V78.6147H653.3183C703.6183 78.6147 756.3483 85.4447 785.6483 114.7447C815.4283 144.5347 821.7783 196.2847 821.7783 246.5847V255.8547H900.3883V252.4447C900.3883 171.3847 891.1183 104.9847 843.2583 57.6147ZM440.9183 548.3447C465.3283 548.3447 479.9783 532.7147 479.9783 513.6747V507.8147C479.9783 480.4647 496.0983 462.8947 529.7883 440.4247C577.1483 409.1747 610.8383 380.8547 610.8383 322.2647C610.8383 241.2147 539.0583 197.2647 456.0583 197.2647C372.0683 197.2647 316.8983 237.3047 303.2183 282.2247C300.7783 290.0347 299.3183 297.8547 299.3183 306.1547C299.3183 328.1247 316.4083 339.8447 333.0083 339.8447C349.6083 339.8447 359.8683 332.0347 368.6483 320.3147L377.4383 308.5947C394.5283 280.2747 420.4083 263.6747 452.6383 263.6747C497.0683 263.6747 526.3683 289.0647 526.3683 326.1747C526.3683 359.3747 505.3683 375.4847 462.8883 405.2747C427.7383 429.6847 401.8583 455.5647 401.8583 503.4147V509.7647C401.8583 535.1547 415.5283 548.3447 440.9183 548.3447ZM821.7783 573.2447H900.3883V322.7547H821.7783ZM-0.0017 573.2447H78.6183V322.7547H-0.0017ZM439.4483 693.8447C467.7783 693.8447 492.1883 671.3847 492.1883 643.0647C492.1883 614.7447 468.2583 592.2847 439.4483 592.2847C410.6483 592.2847 386.7183 615.2347 386.7183 643.0647C386.7183 670.8947 411.1283 693.8447 439.4483 693.8447ZM843.2583 838.3747C891.1183 790.5247 900.3883 724.6047 900.3883 643.5547V640.1347H821.7783V648.9247C821.7783 699.7047 815.4283 751.4647 785.6483 781.2547C756.3483 810.5447 703.6183 817.3847 653.3183 817.3847H642.5783V895.9947H647.4583C728.0283 895.9947 794.9183 886.7147 843.2583 838.3747ZM57.1283 838.3747C105.4683 886.7147 172.3683 895.9947 252.4383 895.9947H257.3283V817.3847H247.0683C196.7783 817.3847 144.0383 810.5447 114.2583 781.2547C84.9583 751.4647 78.6183 699.7047 78.6183 648.9247V640.1347H-0.0017V643.5547C-0.0017 724.6047 9.2783 790.5247 57.1283 838.3747ZM324.2183 895.9947H576.1683V817.3847H324.2183Z"/>
</svg>