<?xml version="1.0" encoding="UTF-8" standalone="no"?>
<svg xmlns="http://www.w3.org/2000/svg"
     width="996.09375" height="996.09375"
     viewBox="0 0 996.09375 996.09375"
     fill="currentColor">
  <path d="M498.0477 996.0959C770.5077 996.0959 996.0977 770.0159 996.0977 498.0459C996.0977 225.5859 770.0177 -0.0041 497.5577 -0.0041C225.5877 -0.0041 -0.0023 225.5859 -0.0023 498.0459C-0.0023 770.0159 226.0777 996.0959 498.0477 996.0959ZM498.0477 913.0859C267.5777 913.0859 83.4977 728.5159 83.4977 498.0459C83.4977 267.5759 267.0877 83.0059 497.5577 83.0059C728.0277 83.0059 913.0877 267.5759 913.0877 498.0459C913.0877 728.5159 728.5177 913.0859 498.0477 913.0859ZM487.7977 599.1259C512.2077 599.1259 527.3477 583.4959 527.3477 564.4559V558.5959C527.3477 531.2459 542.9677 513.6759 577.1477 491.2059C624.5077 459.9559 658.2077 431.6359 658.2077 373.0459C658.2077 291.9959 585.9377 248.0459 502.9277 248.0459C418.9477 248.0459 363.7677 288.0859 350.5877 333.0059C348.1477 340.8159 346.6777 348.6359 346.6777 356.9359C346.6777 378.9059 363.7677 390.6259 379.8877 390.6259C396.4877 390.6259 407.2277 382.8159 416.0177 371.0959L424.8077 359.3759C441.8977 331.0559 467.2877 314.4559 499.9977 314.4559C544.4377 314.4559 573.2377 339.8459 573.2377 376.9559C573.2377 410.1559 552.7377 426.2659 510.2577 456.0559C475.0977 480.4659 448.7277 506.3459 448.7277 554.1959V560.5459C448.7277 585.9359 462.8877 599.1259 487.7977 599.1259ZM486.8177 744.6259C515.1377 744.6259 539.5477 722.1659 539.5477 693.8459C539.5477 665.5259 515.6277 643.0659 486.8177 643.0659C458.0077 643.0659 434.0777 666.0159 434.0777 693.8459C434.0777 721.6759 458.4977 744.6259 486.8177 744.6259Z"/>
</svg>