<?xml version="1.0" encoding="UTF-8" standalone="no"?>
<svg xmlns="http://www.w3.org/2000/svg"
     width="1107.3672103163326" height="1107.3672103163324"
     viewBox="0 0 1107.3672103163326 1107.3672103163324"
     fill="currentColor">
  <path d="M54.7573 661.6849L445.8673 1052.7949C518.1273 1125.0649 589.4173 1125.5549 661.1973 1054.2649L1054.2673 660.7049C1125.5573 589.4249 1125.0673 517.6449 1052.7973 445.3749L662.1773 54.7549C589.9073 -17.5151 518.6173 -18.4851 446.8473 53.2849L53.2873 446.3549C-18.4927 518.1349 -17.5127 589.4249 54.7573 661.6849ZM111.3973 607.4849C76.7273 572.3349 75.7473 535.7049 111.8773 499.5749L499.5773 111.8849C535.7073 75.7449 572.3273 76.2349 607.4873 111.3949L996.1573 500.0649C1030.8273 534.7349 1031.8073 571.8449 995.6673 607.9749L607.9773 995.6749C571.8473 1031.8049 534.2473 1030.8249 500.0673 996.6449ZM544.0073 654.8549C568.4273 654.8549 583.0773 639.2249 583.0773 620.1849V614.3249C583.0773 586.9749 599.1873 569.4049 633.3673 546.9349C680.7273 515.6849 714.4173 487.3649 714.4173 428.7749C714.4173 347.7249 642.1573 303.7749 559.1473 303.7749C475.1673 303.7749 419.9873 343.8149 406.8073 388.7349C403.8773 396.5449 402.4073 404.3649 402.4073 412.6649C402.4073 434.6349 419.4973 446.3549 436.0973 446.3549C452.6973 446.3549 463.4473 438.5449 472.2373 426.8249L481.0173 415.1049C498.1073 386.7849 523.5073 370.1849 555.7273 370.1849C600.6473 370.1849 629.4573 395.5749 629.4573 432.6849C629.4573 465.8849 608.9473 481.9949 565.9873 511.7849C531.3173 536.1949 504.9473 562.0749 504.9473 609.9249V616.2749C504.9473 641.6649 518.6173 654.8549 544.0073 654.8549ZM542.5473 800.3549C570.8673 800.3549 595.2773 777.8949 595.2773 749.5749C595.2773 721.2549 571.3573 698.7949 542.5473 698.7949C514.2273 698.7949 490.2973 721.7449 490.2973 749.5749C490.2973 777.4049 514.7173 800.3549 542.5473 800.3549Z"/>
</svg>