<?xml version="1.0" encoding="UTF-8" standalone="no"?>
<svg xmlns="http://www.w3.org/2000/svg"
     width="1108.88671875" height="893.5546875"
     viewBox="0 0 1108.88671875 893.5546875"
     fill="currentColor">
  <path d="M153.3183 893.5561H970.2183C1057.6183 893.5561 1108.8883 842.7761 1108.8883 742.1861V240.7261C1108.8883 140.1361 1057.1283 89.3561 955.5683 89.3561H486.8183C453.6183 89.3561 433.5983 81.5461 409.1783 60.5461L379.3983 36.1361C347.1683 8.7861 322.2683 -0.0039 273.9283 -0.0039H134.7683C49.3183 -0.0039 -0.0017 48.8261 -0.0017 146.9761V742.1861C-0.0017 843.2661 51.2683 893.5561 153.3183 893.5561ZM154.2983 814.9461C105.4683 814.9461 78.6183 789.0661 78.6183 738.2861V151.3661C78.6183 103.0261 104.0083 78.1261 150.8783 78.1261H253.9083C286.1283 78.1261 305.6683 86.4261 330.5683 107.4261L360.3483 132.3261C392.0883 158.6961 417.9683 167.9661 466.3083 167.9661H954.0983C1002.4383 167.9661 1030.2783 194.3361 1030.2783 245.1161V738.7661C1030.2783 789.0661 1002.4383 814.9461 954.0983 814.9461ZM545.8983 582.5161C568.8483 582.5161 582.5183 567.8661 582.5183 550.2961V544.4361C582.5183 519.0461 597.1683 503.4161 628.9083 482.4261C672.8483 453.1261 704.0983 426.7561 704.0983 372.5561C704.0983 297.3661 637.2083 256.8361 560.0583 256.8361C482.4183 256.8361 431.1483 293.4561 418.4583 334.9561C416.0183 342.7761 414.5483 349.6061 414.5483 357.4261C414.5483 377.9261 430.6683 388.6761 445.7983 388.6761C461.4283 388.6761 471.1883 381.8361 479.4883 370.6061L487.3083 359.8661C503.4183 333.4961 527.3483 318.3561 557.1283 318.3561C598.6283 318.3561 625.4883 341.7961 625.4883 375.9761C625.4883 406.7361 606.4483 421.8761 566.4083 449.7061C534.1783 472.1661 509.7683 496.0961 509.7683 540.5261V546.3861C509.7683 570.3161 522.9483 582.5161 545.8983 582.5161ZM544.9183 717.7761C571.2883 717.7761 593.7483 696.7761 593.7483 670.4061C593.7483 644.0461 571.7783 623.5361 544.9183 623.5361C518.5583 623.5361 496.0983 644.5361 496.0983 670.4061C496.0983 696.2861 519.0383 717.7761 544.9183 717.7761Z"/>
</svg>