<?xml version="1.0" encoding="UTF-8" standalone="no"?>
<svg xmlns="http://www.w3.org/2000/svg"
     width="1076.171875" height="1013.18359375"
     viewBox="0 0 1076.171875 1013.18359375"
     fill="currentColor">
  <path d="M290.0383 1013.1819C309.0783 1013.1819 323.2383 1003.4219 346.1883 981.9319L522.4583 820.8019H852.5383C998.0483 820.8019 1076.1683 740.7219 1076.1683 597.6519V223.6319C1076.1683 80.5619 998.0483 0.0019 852.5383 0.0019H223.6283C78.1283 0.0019 -0.0017 80.0819 -0.0017 223.6319V597.6519C-0.0017 741.2119 78.1283 820.8019 223.6283 820.8019H246.5783V962.8919C246.5783 993.1619 262.2083 1013.1819 290.0383 1013.1819ZM294.9183 357.4219C294.9183 297.3619 340.3283 255.3719 400.8783 255.3719C466.3083 255.3719 510.2583 307.6219 510.2583 375.9719C510.2583 503.9019 408.1983 564.4519 357.4183 564.4519C343.2583 564.4519 332.5183 553.7119 332.5183 541.0119C332.5183 528.8119 337.8883 520.9919 356.9383 516.1119C389.6483 507.3219 428.2183 480.4719 446.7783 438.9619H442.8683C429.6883 455.5619 408.6883 458.9819 387.6983 458.9819C330.5683 458.9819 294.9183 414.5519 294.9183 357.4219ZM566.8983 357.4219C566.8983 297.3619 611.8183 255.3719 672.3683 255.3719C737.7883 255.3719 782.2283 307.6219 782.2283 375.9719C782.2283 503.9019 680.1783 564.4519 629.3983 564.4519C615.2383 564.4519 604.4883 553.7119 604.4883 541.0119C604.4883 528.8119 610.3483 520.9919 628.4183 516.1119C661.6183 507.3219 700.1983 480.4719 718.7483 438.9619H714.8483C701.6583 455.5619 680.6683 458.9819 659.1783 458.9819C602.5383 458.9819 566.8983 414.5519 566.8983 357.4219Z"/>
</svg>