<?xml version="1.0" encoding="UTF-8" standalone="no"?>
<svg xmlns="http://www.w3.org/2000/svg"
     width="1076.171875" height="1010.25390625"
     viewBox="0 0 1076.171875 1010.25390625"
     fill="currentColor">
  <path d="M300.2883 1010.2519C324.2183 1010.2519 340.8183 997.5619 370.6083 971.1919L539.0583 821.2919H852.5383C998.0483 821.2919 1076.1683 740.7219 1076.1683 597.6519V223.6319C1076.1683 80.5619 998.0483 0.0019 852.5383 0.0019H223.6283C78.1283 0.0019 -0.0017 80.0819 -0.0017 223.6319V597.6519C-0.0017 741.2119 78.1283 821.2919 223.6283 821.2919H247.0683V948.2419C247.0683 985.8419 266.1183 1010.2519 300.2883 1010.2519ZM320.3083 920.9019V779.2919C320.3083 752.9319 310.0583 742.6719 283.6883 742.6719H223.6283C124.9983 742.6719 78.6183 692.3819 78.6183 597.1719V223.6319C78.6183 128.4219 124.9983 78.6119 223.6283 78.6119H852.5383C950.6883 78.6119 997.5583 128.4219 997.5583 223.6319V597.1719C997.5583 692.3819 950.6883 742.6719 852.5383 742.6719H536.1283C508.7883 742.6719 495.1183 746.5819 476.5583 765.6219ZM302.2483 358.4019C302.2483 414.0619 336.9183 457.0319 392.0883 457.0319C412.5983 457.0319 433.1083 453.6119 445.7983 437.5019H449.7083C431.6383 478.0319 394.0383 503.9019 362.3083 512.2119C344.2383 517.0919 338.8683 524.9019 338.8683 536.6219C338.8683 548.8319 349.1183 559.0819 362.7883 559.0819C412.1083 559.0819 511.2283 500.4919 511.2283 376.4619C511.2283 310.0619 468.2583 259.7619 404.7883 259.7619C346.1883 259.7619 302.2483 300.2919 302.2483 358.4019ZM565.9183 358.4019C565.9183 414.0619 600.5883 457.0319 655.7583 457.0319C676.2683 457.0319 696.7783 453.6119 709.4683 437.5019H713.3783C695.3083 478.0319 657.7183 503.9019 625.9783 512.2119C608.3983 517.0919 602.5383 524.9019 602.5383 536.6219C602.5383 548.8319 612.7883 559.0819 626.4683 559.0819C675.7783 559.0819 774.8983 500.4919 774.8983 376.4619C774.8983 310.0619 731.9383 259.7619 668.4583 259.7619C609.8683 259.7619 565.9183 300.2919 565.9183 358.4019Z"/>
</svg>