<?xml version="1.0" encoding="UTF-8" standalone="no"?>
<svg xmlns="http://www.w3.org/2000/svg"
     width="996.09375" height="996.09375"
     viewBox="0 0 996.09375 996.09375"
     fill="currentColor">
  <path d="M498.0477 996.0959C770.5077 996.0959 996.0977 770.0159 996.0977 498.0459C996.0977 225.5859 770.0177 -0.0041 497.5577 -0.0041C225.5877 -0.0041 -0.0023 225.5859 -0.0023 498.0459C-0.0023 770.0159 226.0777 996.0959 498.0477 996.0959ZM498.0477 913.0859C267.5777 913.0859 83.4977 728.5159 83.4977 498.0459C83.4977 267.5759 267.0877 83.0059 497.5577 83.0059C728.0277 83.0059 913.0877 267.5759 913.0877 498.0459C913.0877 728.5159 728.5177 913.0859 498.0477 913.0859ZM372.5577 721.6759C397.9477 721.6759 412.1077 705.0759 412.1077 678.2259V556.6359H502.9277L587.3977 695.7959C599.1177 714.8459 609.3777 721.6759 626.4677 721.6759C647.4577 721.6759 662.1077 708.0059 662.1077 688.4759C662.1077 677.7359 659.1777 669.9259 652.8277 660.1559L579.5877 545.4059C637.2077 526.3659 674.3177 475.0959 674.3177 414.5459C674.3177 326.6559 611.3277 270.9959 512.2077 270.9959H372.0677C347.1677 270.9959 333.9877 288.5759 333.9877 314.9459V678.2259C333.9877 704.1059 347.6577 721.6759 372.5577 721.6759ZM412.1077 499.5159V330.5659H502.9277C559.0777 330.5659 597.1677 361.8159 597.1677 416.5059C597.1677 469.7259 560.0577 499.5159 500.9777 499.5159Z"/>
</svg>