<?xml version="1.0" encoding="UTF-8" standalone="no"?>
<svg xmlns="http://www.w3.org/2000/svg"
     width="1364.6240234375" height="1239.2578125"
     viewBox="0 0 1364.6240234375 1239.2578125"
     fill="currentColor">
  <path d="M619.6277 -0.002C277.3477 -0.002 -0.0023 277.348 -0.0023 619.628C-0.0023 961.918 277.3477 1239.258 619.6277 1239.258C892.0877 1239.258 1123.5377 1062.988 1206.5477 818.358C1178.2277 822.268 1150.8777 814.458 1130.3677 797.848C1056.6377 1009.278 855.9577 1160.648 619.6277 1160.648C320.7977 1160.648 78.6177 918.458 78.6177 619.628C78.6177 320.798 320.7977 78.618 619.6277 78.618C856.4477 78.618 1057.1277 230.468 1130.3677 442.378C1151.3677 425.288 1178.7077 417.968 1207.0277 421.878C1124.5077 176.758 892.5777 -0.002 619.6277 -0.002ZM619.6277 1048.338C856.4477 1048.338 1048.8277 856.448 1048.8277 619.628C1048.8277 382.808 856.4477 190.428 619.6277 190.428C382.8077 190.428 190.4277 382.808 190.4277 619.628C190.4277 856.448 382.8077 1048.338 619.6277 1048.338ZM496.5777 838.868C472.1677 838.868 458.9877 821.778 458.9877 795.898V440.918C458.9877 414.548 472.1677 396.968 496.0977 396.968H634.2777C730.9577 396.968 792.4777 452.148 792.4777 538.088C792.4777 597.658 756.3477 647.458 700.6877 666.018L771.9777 778.318C777.8277 788.088 780.2777 795.408 780.2777 806.148C780.2777 825.688 766.1177 838.868 745.6077 838.868C728.5177 838.868 718.7477 832.028 707.5177 813.968L624.5077 677.248H535.6477V795.898C535.6477 822.758 521.9777 838.868 496.5777 838.868ZM535.6477 621.098H623.0477C680.1777 621.098 716.7977 591.798 716.7977 540.038C716.7977 486.328 679.6877 456.058 624.5077 456.058H535.6477ZM1220.2177 496.578C1193.3577 476.078 1160.6477 488.278 1160.6477 521.968V717.778C1160.6477 752.438 1194.3377 762.698 1220.2177 743.168L1351.0777 645.508C1369.1377 632.328 1369.1377 607.418 1351.0777 594.238Z"/>
</svg>