<?xml version="1.0" encoding="UTF-8" standalone="no"?>
<svg xmlns="http://www.w3.org/2000/svg"
     width="1364.6240234375" height="1239.2578125"
     viewBox="0 0 1364.6240234375 1239.2578125"
     fill="currentColor">
  <path d="M744.9939 -0.002C472.0439 -0.002 240.1139 176.758 157.5939 421.878C185.9139 417.968 213.2539 425.288 234.2539 442.378C307.4939 230.468 508.1739 78.618 744.9939 78.618C1043.8239 78.618 1286.0139 320.798 1286.0139 619.628C1286.0139 918.458 1043.8239 1160.648 744.9939 1160.648C508.6639 1160.648 307.9839 1009.278 234.2539 797.848C213.7439 814.458 186.4039 822.268 158.0839 818.358C241.0939 1062.988 472.5339 1239.258 744.9939 1239.258C1087.2839 1239.258 1364.6239 961.918 1364.6239 619.628C1364.6239 277.348 1087.2839 -0.002 744.9939 -0.002ZM744.9939 1048.338C981.8139 1048.338 1174.1939 856.448 1174.1939 619.628C1174.1939 382.808 981.8139 190.428 744.9939 190.428C508.1739 190.428 315.7939 382.808 315.7939 619.628C315.7939 856.448 508.1739 1048.338 744.9939 1048.338ZM744.9939 969.728C551.6339 969.728 394.4139 812.988 394.4139 619.628C394.4139 426.268 551.6339 269.038 744.9939 269.038C938.3539 269.038 1095.5839 426.268 1095.5839 619.628C1095.5839 812.988 938.3539 969.728 744.9939 969.728ZM626.3439 832.028C650.7539 832.028 663.9439 816.408 663.9439 791.018V675.288H750.3639L830.9339 807.618C841.6739 825.688 851.4439 832.028 867.5539 832.028C887.5739 832.028 901.2439 819.338 901.2439 800.778C901.2439 790.528 898.8039 782.718 892.9439 773.928L823.1239 664.548C877.8039 646.488 912.9639 598.148 912.9639 540.528C912.9639 457.028 853.3939 403.808 759.1539 403.808H626.3439C602.4139 403.808 589.7239 420.898 589.7239 445.798V791.018C589.7239 815.428 602.4139 832.028 626.3439 832.028ZM663.9439 621.098V460.448H750.3639C803.5939 460.448 839.7239 490.238 839.7239 542.478C839.7239 592.778 804.5639 621.098 748.4139 621.098ZM144.4139 496.578L13.5539 594.238C-4.5161 607.418 -4.5161 632.328 13.5539 645.508L144.4139 743.168C170.2839 762.698 203.9839 752.438 203.9839 717.778V521.968C203.9839 488.278 171.2639 476.078 144.4139 496.578Z"/>
</svg>