<?xml version="1.0" encoding="UTF-8" standalone="no"?>
<svg xmlns="http://www.w3.org/2000/svg"
     width="1239.74609375" height="1364.6240234375"
     viewBox="0 0 1239.74609375 1364.6240234375"
     fill="currentColor">
  <path d="M497.0677 144.4042C477.0477 171.2642 488.7677 203.9842 522.4577 203.9842H717.7777C752.9277 203.9842 763.1877 170.2842 743.6477 144.4042L645.9977 13.5542C632.3277 -4.5158 607.4177 -4.5158 594.2377 13.5542ZM619.6277 1364.6242C961.9177 1364.6242 1239.7477 1087.2842 1239.7477 744.9942C1239.7477 472.5342 1063.4777 240.6042 818.3577 158.0842C822.2677 185.9142 814.9377 213.7442 797.8477 234.2542C1009.2777 307.9842 1161.1377 508.6642 1161.1377 744.9942C1161.1377 1043.8242 918.4577 1286.0142 619.6277 1286.0142C320.7977 1286.0142 78.6177 1043.8242 78.6177 744.9942C78.6177 508.1742 230.9577 307.4942 442.3877 234.2542C425.7777 213.2542 417.9677 185.4242 421.8777 157.5942C176.7577 239.6242 -0.0023 472.0442 -0.0023 744.9942C-0.0023 1087.2842 277.3477 1364.6242 619.6277 1364.6242ZM619.6277 1173.7042C856.9377 1173.7042 1048.8277 981.8142 1048.8277 744.9942C1048.8277 508.1742 856.9377 315.7942 619.6277 315.7942C382.8077 315.7942 190.9177 508.1742 190.9177 744.9942C190.9177 981.8142 382.8077 1173.7042 619.6277 1173.7042ZM496.5777 964.2342C472.1677 964.2342 458.9877 947.1442 458.9877 921.2642V566.2842C458.9877 539.9142 472.1677 522.3342 496.0977 522.3342H634.2777C730.9577 522.3342 792.4777 577.5142 792.4777 663.4542C792.4777 723.0242 756.3477 772.8242 700.6877 791.3842L771.9777 903.6842C777.8277 913.4542 780.2777 920.7742 780.2777 931.5142C780.2777 951.0542 766.1177 964.2342 745.6077 964.2342C728.5177 964.2342 718.7477 957.3942 707.5177 939.3342L624.5077 802.6142H535.6477V921.2642C535.6477 948.1242 521.9777 964.2342 496.5777 964.2342ZM535.6477 746.4642H623.0477C680.1777 746.4642 716.7977 717.1642 716.7977 665.4042C716.7977 611.6942 679.6877 581.4242 624.5077 581.4242H535.6477Z"/>
</svg>