<?xml version="1.0" encoding="UTF-8" standalone="no"?>
<svg xmlns="http://www.w3.org/2000/svg"
     width="1239.74609375" height="1364.4415449834496"
     viewBox="0 0 1239.74609375 1364.4415449834496"
     fill="currentColor">
  <path d="M619.6277 -0.002C277.3477 -0.002 -0.0023 277.348 -0.0023 619.628C-0.0023 892.578 176.7577 1124.508 421.8777 1207.028C417.9677 1178.708 425.7777 1151.368 442.3877 1130.368C230.9577 1057.128 78.6177 856.448 78.6177 619.628C78.6177 320.798 320.7977 78.618 619.6277 78.618C918.4577 78.618 1161.1377 320.798 1161.1377 619.628C1161.1377 855.468 1009.2777 1056.638 797.8477 1130.368C814.9377 1150.878 822.2677 1178.218 818.3577 1206.548C1063.4777 1123.538 1239.7477 892.088 1239.7477 619.628C1239.7477 277.348 961.9177 -0.002 619.6277 -0.002ZM619.6277 190.428C382.8077 190.428 190.9177 382.808 190.9177 619.628C190.9177 856.448 382.8077 1048.338 619.6277 1048.338C856.9377 1048.338 1048.8277 856.448 1048.8277 619.628C1048.8277 382.808 856.9377 190.428 619.6277 190.428ZM496.5777 838.868C472.1677 838.868 458.9877 821.778 458.9877 795.898V440.918C458.9877 414.548 472.1677 396.968 496.0977 396.968H634.2777C730.9577 396.968 792.4777 452.148 792.4777 538.088C792.4777 597.658 756.3477 647.458 700.6877 666.018L771.9777 778.318C777.8277 788.088 780.2777 795.408 780.2777 806.148C780.2777 825.688 766.1177 838.868 745.6077 838.868C728.5177 838.868 718.7477 832.028 707.5177 813.968L624.5077 677.248H535.6477V795.898C535.6477 822.758 521.9777 838.868 496.5777 838.868ZM535.6477 621.098H623.0477C680.1777 621.098 716.7977 591.798 716.7977 540.038C716.7977 486.328 679.6877 456.058 624.5077 456.058H535.6477ZM497.0677 1220.218L594.2377 1351.078C607.4177 1369.138 632.3277 1368.648 645.9977 1351.078L743.6477 1220.218C763.1877 1194.338 752.9277 1160.648 717.7777 1160.648H522.4577C488.7677 1160.648 477.0477 1193.358 497.0677 1220.218Z"/>
</svg>