<?xml version="1.0" encoding="UTF-8" standalone="no"?>
<svg xmlns="http://www.w3.org/2000/svg"
     width="999.0234375" height="851.07421875"
     viewBox="0 0 999.0234375 851.07421875"
     fill="currentColor">
  <path d="M499.5077 629.3959C811.5277 629.3959 999.0277 488.7659 999.0277 314.4559C999.0277 140.6259 811.5277 -0.0041 499.0277 -0.0041C187.4977 -0.0041 -0.0023 140.6259 -0.0023 314.4559C-0.0023 488.7659 187.4977 629.3959 499.5077 629.3959ZM419.4377 464.8459C400.8777 464.8459 389.1577 451.6559 389.1577 431.1559V193.3559C389.1577 171.8759 400.8777 158.6959 419.4377 158.6959H511.2277C578.1277 158.6959 622.0677 197.7559 622.0677 258.2959C622.0677 297.8559 599.6077 331.5459 562.9877 346.1959L608.3977 416.9959C612.7977 423.8259 615.2377 430.1759 615.2377 438.4759C615.2377 454.5859 602.0477 465.8159 586.4277 465.8159C573.7277 465.8159 565.4277 460.4459 557.1277 446.2859L501.9577 356.4459H450.6877V431.1559C450.6877 451.6559 438.4777 464.8459 419.4377 464.8459ZM450.6877 308.5959H503.9077C540.5277 308.5959 561.0377 290.5259 561.0377 259.2759C561.0377 228.0259 540.0377 208.4959 504.8877 208.4959H450.6877ZM499.5077 851.0759C618.1677 851.0759 688.4777 795.4059 688.4777 701.6559V677.2459C629.3977 688.9659 566.4077 695.7959 499.5077 695.7959C432.6177 695.7959 369.6277 688.9659 311.0377 677.2459V701.6559C311.0377 795.4059 381.3477 851.0759 499.5077 851.0759Z"/>
</svg>