<?xml version="1.0" encoding="UTF-8" standalone="no"?>
<svg xmlns="http://www.w3.org/2000/svg"
     width="1006.8359375" height="1108.88671875"
     viewBox="0 0 1006.8359375 1108.88671875"
     fill="currentColor">
  <path d="M380.3677 59.5684L477.5377 190.4284C490.7277 208.4984 515.6277 208.4984 528.8077 190.4284L626.9577 59.5684C646.4877 33.6884 636.2277 -0.0016 601.0777 -0.0016H405.2777C372.0677 -0.0016 359.8677 32.7184 380.3677 59.5684ZM503.4177 901.8584C808.1077 901.8584 1006.8377 767.0884 1006.8377 572.2684C1006.8377 377.9284 807.6177 243.1684 502.9277 243.1684C198.7277 243.1684 -0.0023 377.9284 -0.0023 572.2684C-0.0023 767.0884 198.7277 901.8584 503.4177 901.8584ZM503.4177 817.8684C254.8877 817.8684 88.3777 718.2584 88.3777 572.2684C88.3777 426.2684 254.8877 327.1484 502.9277 327.1484C751.4677 327.1484 918.4577 426.2684 918.4577 572.2684C918.4577 718.2584 751.9577 817.8684 503.4177 817.8684ZM421.8777 718.2584C440.4277 718.2584 452.1477 705.5684 452.1477 685.5484V612.7884H501.9577L555.6677 700.1984C563.9677 713.8684 571.7777 718.7484 583.9877 718.7484C599.1177 718.7484 611.8177 708.0084 611.8177 692.3784C611.8177 684.5684 609.3777 678.2184 604.9777 671.8784L561.0377 603.0284C596.6777 588.8684 618.1677 556.1484 618.1677 517.5784C618.1677 458.9884 575.6877 421.3884 511.2277 421.3884H421.8777C404.2977 421.3884 393.0677 434.0784 393.0677 454.5884V685.5484C393.0677 705.5684 404.2977 718.2584 421.8777 718.2584ZM452.1477 566.4084V469.2384H504.8877C539.0577 469.2384 559.5677 488.2784 559.5677 518.5584C559.5677 548.8284 539.5477 566.4084 503.9077 566.4084ZM503.4177 1108.8884C622.0677 1108.8884 692.3877 1053.2184 692.3877 959.4684V939.9384C634.2777 952.1484 571.2877 958.4984 503.4177 958.4984C435.5477 958.4984 372.5577 952.1484 314.9377 939.9384V959.4684C314.9377 1053.2184 385.2577 1108.8884 503.4177 1108.8884Z"/>
</svg>