<?xml version="1.0" encoding="UTF-8" standalone="no"?>
<svg xmlns="http://www.w3.org/2000/svg"
     width="999.0234375" height="1108.88671875"
     viewBox="0 0 999.0234375 1108.88671875"
     fill="currentColor">
  <path d="M380.3677 59.5684L477.5377 190.4284C490.7277 208.4984 515.6277 208.4984 528.8077 190.4284L626.9577 59.5684C646.4877 33.6884 636.2277 -0.0016 601.0777 -0.0016H405.2777C372.0677 -0.0016 359.8677 32.7184 380.3677 59.5684ZM499.5077 887.2084C811.5277 887.2084 999.0277 746.5784 999.0277 572.2684C999.0277 398.4384 811.5277 257.8084 499.0277 257.8084C187.4977 257.8084 -0.0023 398.4384 -0.0023 572.2684C-0.0023 746.5784 187.4977 887.2084 499.5077 887.2084ZM419.4377 722.6584C400.8777 722.6584 389.1577 709.4684 389.1577 688.9684V451.1684C389.1577 429.6884 400.8777 416.5084 419.4377 416.5084H511.2277C578.1277 416.5084 622.0677 455.5684 622.0677 516.1084C622.0677 555.6684 599.6077 589.3584 562.9877 604.0084L608.3977 674.8084C612.7977 681.6384 615.2377 687.9884 615.2377 696.2884C615.2377 712.3984 602.0477 723.6284 586.4277 723.6284C573.7277 723.6284 565.4277 718.2584 557.1277 704.0984L501.9577 614.2584H450.6877V688.9684C450.6877 709.4684 438.4777 722.6584 419.4377 722.6584ZM450.6877 566.4084H503.9077C540.5277 566.4084 561.0377 548.3384 561.0377 517.0884C561.0377 485.8384 540.0377 466.3084 504.8877 466.3084H450.6877ZM499.5077 1108.8884C618.1677 1108.8884 688.4777 1053.2184 688.4777 959.4684V935.0584C629.3977 946.7784 566.4077 953.6084 499.5077 953.6084C432.6177 953.6084 369.6277 946.7784 311.0377 935.0584V959.4684C311.0377 1053.2184 381.3477 1108.8884 499.5077 1108.8884Z"/>
</svg>