<?xml version="1.0" encoding="UTF-8" standalone="no"?>
<svg xmlns="http://www.w3.org/2000/svg"
     width="1364.6240234375" height="1239.2578125"
     viewBox="0 0 1364.6240234375 1239.2578125"
     fill="currentColor">
  <path d="M744.9939 -0.002C472.0439 -0.002 240.1139 176.758 157.5939 421.878C185.9139 417.968 213.2539 425.288 234.2539 442.378C307.4939 230.468 508.1739 78.618 744.9939 78.618C1043.8239 78.618 1286.0139 320.798 1286.0139 619.628C1286.0139 918.458 1043.8239 1160.648 744.9939 1160.648C508.6639 1160.648 307.9839 1009.278 234.2539 797.848C213.7439 814.458 186.4039 822.268 158.0839 818.358C241.0939 1062.988 472.5339 1239.258 744.9939 1239.258C1087.2839 1239.258 1364.6239 961.918 1364.6239 619.628C1364.6239 277.348 1087.2839 -0.002 744.9939 -0.002ZM744.9939 1048.338C981.8139 1048.338 1174.1939 856.448 1174.1939 619.628C1174.1939 382.808 981.8139 190.428 744.9939 190.428C508.1739 190.428 315.7939 382.808 315.7939 619.628C315.7939 856.448 508.1739 1048.338 744.9939 1048.338ZM621.9439 838.868C597.5339 838.868 584.3539 821.778 584.3539 795.898V440.918C584.3539 414.548 597.5339 396.968 621.4639 396.968H759.6439C856.3239 396.968 917.8439 452.148 917.8439 538.088C917.8439 597.658 881.7139 647.458 826.0539 666.018L897.3439 778.318C903.1939 788.088 905.6439 795.408 905.6439 806.148C905.6439 825.688 891.4839 838.868 870.9739 838.868C853.8839 838.868 844.1139 832.028 832.8839 813.968L749.8739 677.248H661.0139V795.898C661.0139 822.758 647.3439 838.868 621.9439 838.868ZM661.0139 621.098H748.4139C805.5439 621.098 842.1639 591.798 842.1639 540.038C842.1639 486.328 805.0539 456.058 749.8739 456.058H661.0139ZM144.4139 496.578L13.5539 594.238C-4.5161 607.418 -4.5161 632.328 13.5539 645.508L144.4139 743.168C170.2839 762.698 203.9839 752.438 203.9839 717.778V521.968C203.9839 488.278 171.2639 476.078 144.4139 496.578Z"/>
</svg>