<?xml version="1.0" encoding="UTF-8" standalone="no"?>
<svg xmlns="http://www.w3.org/2000/svg"
     width="898.92578125" height="898.92578125"
     viewBox="0 0 898.92578125 898.92578125"
     fill="currentColor">
  <path d="M153.3183 898.9295H745.6083C848.1483 898.9295 898.9283 848.1495 898.9283 747.5595V151.3695C898.9283 50.7795 848.1483 -0.0005 745.6083 -0.0005H153.3183C51.2683 -0.0005 -0.0017 50.2895 -0.0017 151.3695V747.5595C-0.0017 848.6295 51.2683 898.9295 153.3183 898.9295ZM154.2983 820.3095C105.4683 820.3095 78.6183 794.4295 78.6183 743.6495V155.2695C78.6183 104.4895 105.4683 78.6095 154.2983 78.6095H744.6283C792.9683 78.6095 820.3083 104.4895 820.3083 155.2695V743.6495C820.3083 794.4295 792.9683 820.3095 744.6283 820.3095ZM324.7083 672.3595C350.5883 672.3595 364.2583 655.7595 364.2583 628.9095V507.3195H455.0783L539.5483 646.4795C551.2683 665.5295 561.5283 672.3595 578.6183 672.3595C599.6083 672.3595 614.2583 658.6895 614.2583 639.1595C614.2583 628.4195 611.3283 620.6095 605.4683 610.8395L532.2283 496.0895C589.3583 477.0495 626.4683 425.7795 626.4683 365.2295C626.4683 277.3395 563.9683 221.6795 464.8483 221.6795H324.2183C299.3183 221.6795 286.1283 239.2595 286.1283 265.6295V628.9095C286.1283 654.7895 299.8083 672.3595 324.7083 672.3595ZM364.2583 450.1995V281.2495H455.0783C511.2283 281.2495 549.3183 312.4995 549.3183 367.1895C549.3183 420.4095 512.2083 450.1995 453.1283 450.1995Z"/>
</svg>