<?xml version="1.0" encoding="UTF-8" standalone="no"?>
<svg xmlns="http://www.w3.org/2000/svg"
     width="898.92578125" height="898.92578125"
     viewBox="0 0 898.92578125 898.92578125"
     fill="currentColor">
  <path d="M153.3183 898.9295H745.6083C848.1483 898.9295 898.9283 848.1495 898.9283 747.5595V151.3695C898.9283 50.7795 848.1483 -0.0005 745.6083 -0.0005H153.3183C51.2683 -0.0005 -0.0017 50.2895 -0.0017 151.3695V747.5595C-0.0017 848.6295 51.2683 898.9295 153.3183 898.9295ZM320.3083 679.6895C294.9183 679.6895 280.7583 661.1295 280.7583 634.2795V260.2495C280.7583 232.9095 294.4383 214.3595 319.8283 214.3595H465.3283C567.3783 214.3595 631.8383 271.9695 631.8383 362.7895C631.8383 425.2895 593.7483 478.0295 534.6683 497.5595L610.3483 615.7195C616.2083 625.9795 619.1383 633.7895 619.1383 645.0195C619.1383 665.5295 604.0083 679.6895 582.5183 679.6895C564.4483 679.6895 554.1983 672.3595 541.9883 652.8295L455.0783 509.2795H361.3283V634.2795C361.3283 662.1095 347.1683 679.6895 320.3083 679.6895ZM361.3283 450.1995H453.1283C513.6683 450.1995 552.2483 419.4295 552.2483 364.7495C552.2483 308.5895 512.6983 276.3695 455.0783 276.3695H361.3283Z"/>
</svg>