<?xml version="1.0" encoding="UTF-8" standalone="no"?>
<svg xmlns="http://www.w3.org/2000/svg"
     width="1180.6640625" height="898.92578125"
     viewBox="0 0 1180.6640625 898.92578125"
     fill="currentColor">
  <path d="M419.9177 898.9295H761.2277C1051.7577 898.9295 1180.6677 765.6295 1180.6677 491.6995V151.3695C1180.6677 50.7795 1129.3977 -0.0005 1027.3477 -0.0005H153.3177C51.2677 -0.0005 -0.0023 50.2895 -0.0023 151.3695V491.6995C-0.0023 765.6295 128.9077 898.9295 419.9177 898.9295ZM862.7977 686.5195C837.8877 686.5195 822.7577 669.9195 822.7577 641.1095V298.8295H819.3377L754.8877 342.2895C743.1677 349.6095 737.3077 350.5895 729.9777 350.5895C713.8677 350.5895 701.6577 336.4295 701.6577 320.7995C701.6577 308.1095 706.0577 300.2895 717.2877 292.4795L807.6177 230.9595C829.0977 215.8195 842.2877 210.9395 860.8377 210.9395C888.1877 210.9395 903.8077 227.5395 903.8077 256.8395V641.1095C903.8077 669.9195 889.1577 686.5195 862.7977 686.5195ZM320.3077 681.1495C294.4377 681.1495 280.2777 663.0895 280.2777 635.7395V261.7195C280.2777 234.8595 293.9477 215.8195 319.8277 215.8195H464.8477C566.8977 215.8195 631.8377 273.9295 631.8377 364.2595C631.8377 427.2495 593.2577 479.9795 534.1777 499.5095L609.3777 617.1895C616.2077 627.4395 619.1377 635.2495 619.1377 646.4795C619.1377 666.9895 604.0077 681.1495 582.0277 681.1495C564.4577 681.1495 553.7077 673.8295 541.5077 654.7895L454.5877 511.2295H361.3277V635.7395C361.3277 664.0595 346.6777 681.1495 320.3077 681.1495ZM361.3277 452.1495H452.6377C513.6677 452.1495 551.7577 421.3895 551.7577 366.2095C551.7577 310.0595 512.6977 277.8295 454.5877 277.8295H361.3277Z"/>
</svg>