<?xml version="1.0" encoding="UTF-8" standalone="no"?>
<svg xmlns="http://www.w3.org/2000/svg"
     width="1151.3671875" height="1115.7243776130176"
     viewBox="0 0 1151.3671875 1115.7243776130176"
     fill="currentColor">
  <path d="M153.3183 1115.7264H998.0483C1100.5883 1115.7264 1151.3683 1065.4364 1151.3683 964.8464V368.1664C1151.3683 267.5764 1100.5883 216.7964 998.0483 216.7964H944.3383L282.7183 1.9564C262.2083 -4.8836 239.7483 6.8364 233.3983 27.3464C226.5583 47.8564 238.2783 70.3164 258.7883 77.1464L689.4483 216.7964H153.3183C51.2683 216.7964 -0.0017 267.5764 -0.0017 368.1664V964.8464C-0.0017 1065.4364 51.2683 1115.7264 153.3183 1115.7264ZM457.5183 454.5964C437.0083 454.5964 420.4083 437.5064 420.4083 416.5064C420.4083 395.9964 437.0083 379.3964 457.5183 379.3964C477.5383 379.3964 493.6483 395.9964 493.6483 416.5064C493.6483 437.5064 477.5383 454.5964 457.5183 454.5964ZM906.7383 552.7364C863.2783 553.2264 827.6383 517.5764 827.6383 474.6064C827.6383 431.6464 863.2783 395.0164 906.7383 395.5064C950.1983 395.9964 985.3483 431.6464 985.3483 474.6064C985.3483 517.5764 950.1983 551.7564 906.7383 552.7364ZM581.5383 489.7464C561.5283 489.7464 545.8983 472.6564 545.8983 452.6364C545.8983 431.6464 561.5283 415.0364 581.5383 415.0364C603.0283 415.0364 618.6483 431.6464 618.6483 452.6364C618.6483 472.6564 603.0283 489.7464 581.5383 489.7464ZM332.5183 489.7464C311.5283 489.7464 295.8983 472.6564 295.8983 452.6364C295.8983 431.6464 311.5283 415.0364 332.5183 415.0364C352.5383 415.0364 368.1683 431.6464 368.1683 452.6364C368.1683 472.6564 352.5383 489.7464 332.5183 489.7464ZM675.7783 579.5964C655.7583 579.5964 639.6483 563.4764 639.6483 543.4564C639.6483 521.9764 655.7583 504.8864 675.7783 504.8864C695.7983 504.8864 712.8883 521.9764 712.8883 543.4564C712.8883 563.4764 695.7983 579.5964 675.7783 579.5964ZM238.7683 579.5964C218.2583 579.5964 201.1683 563.4764 201.1683 543.4564C201.1683 521.9764 218.2583 504.8864 238.7683 504.8864C258.7883 504.8864 274.4183 521.9764 274.4183 543.4564C274.4183 563.4764 258.7883 579.5964 238.7683 579.5964ZM457.5183 582.5164C437.0083 582.5164 420.4083 565.9164 420.4083 545.8964C420.4083 524.9064 437.0083 507.8164 457.5183 507.8164C477.5383 507.8164 493.6483 524.9064 493.6483 545.8964C493.6483 565.9164 477.5383 582.5164 457.5183 582.5164ZM574.2183 632.8164C554.1983 632.8164 537.1083 615.7264 537.1083 596.1964C537.1083 575.6864 554.1983 559.0864 574.2183 559.0864C594.7283 559.0864 610.3483 575.6864 610.3483 596.1964C610.3483 615.7264 594.7283 632.8164 574.2183 632.8164ZM339.8483 632.8164C319.8283 632.8164 303.7083 615.7264 303.7083 596.1964C303.7083 575.6864 319.8283 559.0864 339.8483 559.0864C360.3483 559.0864 377.4383 575.6864 377.4383 596.1964C377.4383 615.7264 360.3483 632.8164 339.8483 632.8164ZM906.7383 782.2264C863.2783 782.2264 827.6383 746.5864 827.6383 703.1264C827.6383 659.6664 863.2783 624.5164 906.7383 624.5164C950.1983 624.5164 985.3483 659.6664 985.3483 703.1264C985.3483 746.5864 950.1983 782.2264 906.7383 782.2264ZM707.5183 700.1964C687.0083 700.1964 670.8983 683.5964 670.8983 663.5764C670.8983 643.0664 687.0083 626.9564 707.5183 626.9564C727.5383 626.9564 743.6483 643.0664 743.6483 663.5764C743.6483 683.5964 727.5383 700.1964 707.5183 700.1964ZM207.0283 700.1964C187.0083 700.1964 170.4083 683.5964 170.4083 663.5764C170.4083 643.0664 187.0083 626.9564 207.0283 626.9564C227.0483 626.9564 243.6483 643.0664 243.6483 663.5764C243.6483 683.5964 227.0483 700.1964 207.0283 700.1964ZM457.5183 702.6364C437.0083 702.6364 420.4083 686.0364 420.4083 666.0164C420.4083 645.9964 437.0083 629.3964 457.5183 629.3964C477.5383 629.3964 493.6483 645.9964 493.6483 666.0164C493.6483 686.0364 477.5383 702.6364 457.5183 702.6364ZM574.2183 772.9464C554.1983 772.9464 537.1083 756.8364 537.1083 736.3264C537.1083 715.3364 554.1983 698.7364 574.2183 698.7364C594.7283 698.7364 610.3483 715.3364 610.3483 736.3264C610.3483 756.8364 594.7283 772.9464 574.2183 772.9464ZM339.8483 772.9464C319.8283 772.9464 303.7083 756.8364 303.7083 736.3264C303.7083 715.3364 319.8283 698.7364 339.8483 698.7364C360.3483 698.7364 377.4383 715.3364 377.4383 736.3264C377.4383 756.8364 360.3483 772.9464 339.8483 772.9464ZM675.7783 821.7764C655.7583 821.7764 639.6483 804.6864 639.6483 783.6964C639.6483 763.1864 655.7583 747.0764 675.7783 747.0764C695.7983 747.0764 712.8883 763.1864 712.8883 783.6964C712.8883 804.6864 695.7983 821.7764 675.7783 821.7764ZM238.7683 821.7764C218.2583 821.7764 201.1683 804.6864 201.1683 783.6964C201.1683 763.1864 218.2583 747.0764 238.7683 747.0764C258.7883 747.0764 274.4183 763.1864 274.4183 783.6964C274.4183 804.6864 258.7883 821.7764 238.7683 821.7764ZM457.5183 824.2164C437.0083 824.2164 420.4083 806.6464 420.4083 786.1364C420.4083 766.1164 437.0083 749.5164 457.5183 749.5164C477.5383 749.5164 493.6483 766.1164 493.6483 786.1364C493.6483 806.6464 477.5383 824.2164 457.5183 824.2164ZM581.5383 914.5564C561.5283 914.5564 545.8983 897.4664 545.8983 876.9564C545.8983 856.9364 561.5283 839.8464 581.5383 839.8464C603.0283 839.8464 618.6483 856.9364 618.6483 876.9564C618.6483 897.4664 603.0283 914.5564 581.5383 914.5564ZM332.5183 914.5564C311.5283 914.5564 295.8983 897.4664 295.8983 876.9564C295.8983 856.9364 311.5283 839.8464 332.5183 839.8464C352.5383 839.8464 368.1683 856.9364 368.1683 876.9564C368.1683 897.4664 352.5383 914.5564 332.5183 914.5564ZM457.5183 952.6364C437.0083 952.6364 420.4083 936.0364 420.4083 915.5264C420.4083 894.5364 437.0083 877.4464 457.5183 877.4464C477.5383 877.4464 493.6483 894.5364 493.6483 915.5264C493.6483 936.0364 477.5383 952.6364 457.5183 952.6364Z"/>
</svg>