<?xml version="1.0" encoding="UTF-8" standalone="no"?>
<svg xmlns="http://www.w3.org/2000/svg"
     width="1060.05859375" height="1059.5703125"
     viewBox="0 0 1060.05859375 1059.5703125"
     fill="currentColor">
  <path d="M572.7577 42.4773C572.7577 19.5273 553.2277 -0.0027 529.7877 -0.0027C506.8377 -0.0027 487.3077 19.5273 487.3077 42.4773V192.8673C487.3077 216.3073 506.8377 235.8373 529.7877 235.8373C553.2277 235.8373 572.7577 216.3073 572.7577 192.8673ZM257.8077 318.3573C273.9277 334.4773 301.2677 334.4773 317.8677 318.3573C333.9877 301.7573 333.9877 274.4173 317.8677 258.2973L211.9177 151.8573C195.7977 135.7373 168.4577 135.2573 151.8577 151.3673C135.7377 167.4773 135.7377 194.8273 151.8577 211.4273ZM736.8177 263.1873C720.2177 279.2973 720.2177 306.6373 736.8177 323.2373C752.9277 339.3573 780.7577 339.3573 797.3677 323.2373L903.3177 216.7973C919.9177 200.1973 919.9177 172.8473 903.3177 156.2473C887.2077 140.1373 859.8677 140.1373 843.7477 156.2473ZM1017.0877 572.2673C1040.5277 572.2673 1060.0577 552.7373 1060.0577 529.7873C1060.0577 506.8373 1040.5277 487.3073 1017.0877 487.3073H866.6977C843.7477 487.3073 824.2177 506.8373 824.2177 529.7873C824.2177 552.7373 843.7477 572.2673 866.6977 572.2673ZM42.4777 487.3073C19.5277 487.3073 -0.0023 506.8373 -0.0023 529.7873C-0.0023 552.7373 19.5277 572.2673 42.4777 572.2673H193.8477C216.7977 572.2673 236.3277 552.7373 236.3277 529.7873C236.3277 506.8373 216.7977 487.3073 193.8477 487.3073ZM797.3677 736.3273C780.7577 720.2173 752.9277 720.2173 736.8177 736.3273C720.2177 752.9273 720.2177 780.2773 736.8177 796.3873L843.7477 903.3173C859.8677 919.4373 887.2077 918.9473 903.3177 903.3173C919.9177 887.2073 919.9177 859.3773 903.3177 842.7773ZM156.2477 842.7773C140.1377 858.8873 140.1377 886.7173 155.7577 902.8273C171.8777 918.9473 199.7077 919.4373 216.3077 903.3173L322.7577 796.8773C338.8677 780.7573 338.8677 753.4173 322.7577 737.3073C307.1277 720.7073 278.8077 720.7073 262.6977 737.3073ZM572.7577 866.6973C572.7577 843.2573 553.2277 823.7273 529.7877 823.7273C506.8377 823.7273 487.3077 843.2573 487.3077 866.6973V1017.0873C487.3077 1040.0373 506.8377 1059.5673 529.7877 1059.5673C553.2277 1059.5673 572.7577 1040.0373 572.7577 1017.0873Z"/>
</svg>