<?xml version="1.0" encoding="UTF-8" standalone="no"?>
<svg xmlns="http://www.w3.org/2000/svg"
     width="1180.6640625" height="898.92578125"
     viewBox="0 0 1180.6640625 898.92578125"
     fill="currentColor">
  <path d="M419.9177 898.9295H761.2277C1051.7577 898.9295 1180.6677 765.6295 1180.6677 491.6995V151.3695C1180.6677 50.7795 1129.3977 -0.0005 1027.3477 -0.0005H153.3177C51.2677 -0.0005 -0.0023 50.2895 -0.0023 151.3695V491.6995C-0.0023 765.6295 128.9077 898.9295 419.9177 898.9295ZM419.9177 819.3395C182.6177 819.3395 78.6177 715.3295 78.6177 496.5795V155.2695C78.6177 104.4895 105.4677 78.6095 154.2977 78.6095H1026.3677C1074.7077 78.6095 1102.0477 104.4895 1102.0477 155.2695V496.5795C1102.0477 715.3295 998.0477 819.3395 760.7377 819.3395ZM688.4777 668.9495H831.0577C932.1277 668.9495 997.0677 620.1195 997.0677 543.4595C997.0677 483.8895 957.0277 442.3795 892.0877 434.0795V431.1495C940.4277 419.4295 970.2177 381.3495 970.2177 332.5195C970.2177 266.1095 916.0177 222.6595 832.0277 222.6595H688.4777C661.1377 222.6595 645.0177 238.2795 645.0177 266.1095V625.4895C645.0177 652.8295 661.1377 668.9495 688.4777 668.9495ZM266.1177 673.8295C291.9877 673.8295 305.6677 657.7195 305.6677 630.3695V509.2795H396.4877L481.4477 648.4395C493.1677 666.9895 502.9277 673.8295 520.0177 673.8295C541.0177 673.8295 555.6677 660.1595 555.6677 640.6295C555.6677 629.8795 553.2277 622.0695 546.8777 612.3095L473.6377 498.0495C530.7577 478.9995 568.3577 427.7295 568.3577 366.6995C568.3577 279.2995 505.3677 223.1395 406.2477 223.1395H266.1177C240.7277 223.1395 228.0277 241.2095 228.0277 267.0895V630.3695C228.0277 656.7395 241.2077 673.8295 266.1177 673.8295ZM720.7077 412.1095V280.2695H816.4077C865.7277 280.2695 895.5077 304.6895 895.5077 344.7295C895.5077 388.1795 859.8677 412.1095 794.4377 412.1095ZM305.6677 452.1495V282.7195H396.4877C453.1277 282.7195 490.7277 313.9695 490.7277 368.6495C490.7277 422.3595 454.0977 452.1495 394.5277 452.1495ZM720.7077 611.3295V465.8195H824.7077C884.2777 465.8195 918.9477 493.1595 918.9477 540.5295C918.9477 588.8695 881.3477 611.3295 800.2977 611.3295Z"/>
</svg>