<?xml version="1.0" encoding="UTF-8" standalone="no"?>
<svg xmlns="http://www.w3.org/2000/svg"
     width="996.09375" height="996.09375"
     viewBox="0 0 996.09375 996.09375"
     fill="currentColor">
  <path d="M498.0477 996.0959C770.5077 996.0959 996.0977 770.0159 996.0977 498.0459C996.0977 225.5859 770.0177 -0.0041 497.5577 -0.0041C225.5877 -0.0041 -0.0023 225.5859 -0.0023 498.0459C-0.0023 770.0159 226.0777 996.0959 498.0477 996.0959ZM176.2677 498.0459C176.2677 416.9959 241.2077 351.0759 322.2677 351.0759C403.8077 351.0759 469.2377 416.9959 469.2377 498.0459C469.2377 531.7359 458.0077 563.9659 436.5277 588.8659H559.0777C537.5977 563.9659 526.3677 531.7359 526.3677 498.0459C526.3677 416.9959 592.2877 351.0759 673.3377 351.0759C754.3977 351.0759 819.8277 416.9959 819.8277 498.0459C819.8277 579.1059 754.3977 645.0159 673.3377 645.0159H322.2677C241.2077 645.0159 176.2677 579.1059 176.2677 498.0459ZM231.9377 497.5559C231.9377 547.8559 272.4577 588.8659 322.7577 588.8659C373.0477 588.8659 413.0877 548.3359 413.0877 497.5559C413.0877 447.7559 372.5577 407.2259 322.7577 407.2259C272.9477 407.2259 231.9377 447.7559 231.9377 497.5559ZM582.5177 497.5559C582.5177 548.3359 622.5577 588.8659 672.8477 588.8659C723.1477 588.8659 763.6677 547.8559 763.6677 497.5559C763.6677 447.7559 722.6577 407.2259 672.8477 407.2259C623.0477 407.2259 582.5177 447.7559 582.5177 497.5559Z"/>
</svg>