<?xml version="1.0" encoding="UTF-8" standalone="no"?>
<svg xmlns="http://www.w3.org/2000/svg"
     width="996.09375" height="996.09375"
     viewBox="0 0 996.09375 996.09375"
     fill="currentColor">
  <path d="M498.0477 996.0959C770.5077 996.0959 996.0977 770.0159 996.0977 498.0459C996.0977 225.5859 770.0177 -0.0041 497.5577 -0.0041C225.5877 -0.0041 -0.0023 225.5859 -0.0023 498.0459C-0.0023 770.0159 226.0777 996.0959 498.0477 996.0959ZM745.6077 753.4159L252.9277 260.7459C244.1377 251.9559 243.6477 237.7959 252.9277 228.5159C261.7177 219.2359 276.3677 219.2359 285.1577 228.5159L777.8277 721.1959C787.1077 730.4659 787.1077 744.6259 777.8277 753.4159C769.0477 763.1859 754.8877 763.1859 745.6077 753.4159ZM442.3877 330.5659L368.6477 256.3459H611.8177C658.2077 256.3459 680.6677 279.2959 680.6677 325.6859V330.5659ZM206.0577 558.5959V325.6859C206.0577 307.1259 209.9577 291.9959 217.7777 281.2459L302.7377 365.7259C291.9877 380.3759 286.6177 400.8759 286.6177 426.2659V626.9559H274.8977C229.0077 626.9559 206.0577 604.4959 206.0577 558.5959ZM786.6177 674.8059L472.6577 361.3259H722.1677C768.5577 361.3259 791.5077 384.7659 791.5077 429.1959V645.5059C791.5077 656.7359 789.5477 666.5059 786.6177 674.8059ZM385.7377 733.3959C339.3577 733.3959 316.4077 710.9359 316.4077 665.0359V429.1959C316.4077 412.5959 319.8277 399.9059 326.1677 389.6459L670.8977 733.3959Z"/>
</svg>