<?xml version="1.0" encoding="UTF-8" standalone="no"?>
<svg xmlns="http://www.w3.org/2000/svg"
     width="1163.1624937553472" height="962.2927983517275"
     viewBox="0 0 1163.1624937553472 962.2927983517275"
     fill="currentColor">
  <path d="M621.5783 616.5865C697.2683 692.2765 812.0083 694.2265 891.1183 615.1265L1130.8583 375.3765C1143.0683 363.1765 1142.0883 344.1265 1130.3683 333.3865C1118.1683 322.1565 1101.5583 322.1565 1089.3583 334.3665L852.0483 572.1565C795.4083 628.3065 716.3083 628.3065 664.5483 574.5965C610.8383 519.9065 609.8683 442.2765 666.0183 386.1165L965.8183 87.2965C1002.9283 50.1865 1053.2183 49.6965 1084.4683 79.9665C1115.2383 110.2465 1114.2583 160.0465 1077.1483 198.1365L785.6483 491.5865C773.4383 503.7965 757.8083 503.3065 747.0683 491.5865C734.8683 479.8665 735.3483 464.7365 747.5583 452.5265L954.0983 245.9865C966.3083 233.7765 965.8183 217.1765 955.5683 205.9465C944.3383 195.2065 928.2183 194.7165 916.0183 207.4065L707.5183 415.4165C673.8283 449.1065 673.3383 501.8465 705.0783 533.0965C738.2783 566.2965 788.0883 566.2965 823.2383 531.1365L1116.6983 237.6865C1178.2183 176.1565 1177.2483 96.0865 1122.0683 40.4165C1067.8683 -13.7835 984.8683 -14.7535 924.8083 45.2965L623.5383 346.5665C544.4383 425.6765 546.8783 541.8865 621.5783 616.5865ZM153.3183 962.2965H998.0483C1100.5883 962.2965 1151.3683 911.5165 1151.3683 810.9265V473.5265L1072.7583 552.1365V807.0165C1072.7583 857.7965 1045.4083 883.6765 997.0683 883.6765H154.2983C105.4683 883.6765 78.6183 857.7965 78.6183 807.0165V218.6365C78.6183 167.8565 105.4683 141.9765 154.2983 141.9765H706.5383L785.1583 63.3665H153.3183C51.2683 63.3665 -0.0017 113.6565 -0.0017 214.7365V810.9265C-0.0017 911.9965 51.2683 962.2965 153.3183 962.2965Z"/>
</svg>