<?xml version="1.0" encoding="UTF-8" standalone="no"?>
<svg xmlns="http://www.w3.org/2000/svg"
     width="950.6233343529725" height="1053.7109375"
     viewBox="0 0 950.6233343529725 1053.7109375"
     fill="currentColor">
  <path d="M274.2909 -0.0016C225.4609 -0.0016 190.3109 19.5284 171.7509 54.6884V55.1784L227.9009 111.3284V105.4684C235.7209 82.5184 253.7809 71.2884 284.0609 71.2884H666.3809C709.8409 71.2884 733.2809 95.2184 733.2809 134.7684V172.8484H806.5209V124.5084C806.5209 51.2684 755.7409 -0.0016 676.1509 -0.0016ZM886.6009 970.6984C900.7609 984.8584 925.6609 985.3484 939.8209 970.6984C953.9809 955.5684 954.4709 932.1284 939.8209 917.4784L64.3309 41.0184C49.6809 26.3684 25.2709 26.3684 10.6209 41.0184C-3.5391 55.6684 -3.5391 80.0784 10.6209 94.2384ZM613.6509 232.9084C593.6309 232.9084 583.3709 248.5384 583.3709 264.1584C583.3709 279.7884 594.1209 295.8984 615.1109 295.8984H691.2809L749.3909 292.4784L693.2409 345.2184L617.0609 420.8984C609.7409 428.7084 606.3209 437.0084 606.3209 444.8284C606.3209 464.3584 624.3909 481.9384 643.9209 481.9384C651.7309 481.9384 660.0309 479.0084 667.3609 471.6784L743.0409 395.5084L795.2909 339.3584L792.3609 396.9684V475.0984C792.3609 496.5784 808.4709 507.3284 824.5809 507.3284C839.7209 507.3284 855.3509 497.0684 855.3509 476.5584V273.4384C855.3509 247.0684 840.7009 232.9084 814.8209 232.9084ZM144.4109 490.7184H218.1409V395.0184L144.4109 321.7784ZM136.1109 820.7984H337.2809C357.7909 820.7984 368.0409 804.6884 368.0409 789.0584C368.0409 772.9484 357.3009 757.3284 335.8109 757.3284H259.6409L201.5409 760.7384L257.6909 708.0084L333.8609 632.3284C341.1909 624.9984 344.6009 616.6984 344.6009 608.3984C344.6009 588.8684 326.5409 571.7784 307.0109 571.7784C299.1909 571.7784 290.8909 574.2184 283.5709 581.5384L207.8809 658.1984L155.6409 713.8684L158.5709 656.2484V578.1284C158.5709 556.6384 142.4609 545.8984 126.8309 545.8984C111.2109 545.8984 95.5809 556.1484 95.5809 576.6584V779.7884C95.5809 806.1484 110.2309 820.7984 136.1109 820.7984ZM807.0109 562.4984H733.7609V617.6784L807.0109 690.9184ZM274.7809 1053.7084H676.6309C737.6709 1053.7084 780.1509 1023.4384 796.2609 974.6084V974.1184L733.7609 910.6484V918.4584C733.7609 958.4984 710.3309 982.4184 666.8709 982.4184H284.5509C241.0909 982.4184 218.1409 958.4984 218.1409 918.4584V880.3684H144.4109V928.7084C144.4109 1001.9484 195.1909 1053.7084 274.7809 1053.7084Z"/>
</svg>