<?xml version="1.0" encoding="UTF-8" standalone="no"?>
<svg xmlns="http://www.w3.org/2000/svg"
     width="1214.84375" height="989.2578125"
     viewBox="0 0 1214.84375 989.2578125"
     fill="currentColor">
  <path d="M394.5283 159.668H968.2583V151.368C968.2583 50.778 916.5083 -0.002 814.9383 -0.002H153.3183C50.7783 -0.002 -0.0017 50.778 -0.0017 151.368V611.818C-0.0017 712.888 50.7783 763.188 153.3183 763.188H174.3183V377.438C174.3183 239.748 255.3683 159.668 394.5283 159.668ZM394.5283 989.258H1061.5283C1163.0883 989.258 1214.8483 938.478 1214.8483 837.888V377.438C1214.8483 276.858 1163.0883 226.078 1061.5283 226.078H394.5283C291.9883 226.078 241.2083 276.858 241.2083 377.438V837.888C241.2083 938.968 291.9883 989.258 394.5283 989.258Z"/>
</svg>