<?xml version="1.0" encoding="UTF-8" standalone="no"?>
<svg xmlns="http://www.w3.org/2000/svg"
     width="1085.9375" height="898.92578125"
     viewBox="0 0 1085.9375 898.92578125"
     fill="currentColor">
  <path d="M93.2583 409.1795H409.1783C471.1883 409.1795 502.4383 377.9295 502.4383 313.4795V95.2195C502.4383 30.7595 471.1883 -0.0005 409.1783 -0.0005H93.2583C31.2483 -0.0005 -0.0017 30.7595 -0.0017 95.2195V313.4795C-0.0017 377.9295 31.2483 409.1795 93.2583 409.1795ZM676.7583 409.1795H992.6783C1054.6883 409.1795 1085.9383 377.9295 1085.9383 313.4795V95.2195C1085.9383 30.7595 1054.6883 -0.0005 992.6783 -0.0005H676.7583C614.7483 -0.0005 583.4983 30.7595 583.4983 95.2195V313.4795C583.4983 377.9295 614.7483 409.1795 676.7583 409.1795ZM93.2583 898.9295H409.1783C471.1883 898.9295 502.4383 868.1595 502.4383 803.7095V584.9595C502.4383 520.9995 471.1883 489.7495 409.1783 489.7495H93.2583C31.2483 489.7495 -0.0017 520.9995 -0.0017 584.9595V803.7095C-0.0017 868.1595 31.2483 898.9295 93.2583 898.9295ZM676.7583 898.9295H992.6783C1054.6883 898.9295 1085.9383 868.1595 1085.9383 803.7095V584.9595C1085.9383 520.9995 1054.6883 489.7495 992.6783 489.7495H676.7583C614.7483 489.7495 583.4983 520.9995 583.4983 584.9595V803.7095C583.4983 868.1595 614.7483 898.9295 676.7583 898.9295Z"/>
</svg>