<?xml version="1.0" encoding="UTF-8" standalone="no"?>
<svg xmlns="http://www.w3.org/2000/svg"
     width="996.09375" height="996.09375"
     viewBox="0 0 996.09375 996.09375"
     fill="currentColor">
  <path d="M498.0477 996.0959C770.5077 996.0959 996.0977 770.0159 996.0977 498.0459C996.0977 225.5859 770.0177 -0.0041 497.5577 -0.0041C225.5877 -0.0041 -0.0023 225.5859 -0.0023 498.0459C-0.0023 770.0159 226.0777 996.0959 498.0477 996.0959ZM498.0477 913.0859C267.5777 913.0859 83.4977 728.5159 83.4977 498.0459C83.4977 267.5759 267.0877 83.0059 497.5577 83.0059C728.0277 83.0059 913.0877 267.5759 913.0877 498.0459C913.0877 728.5159 728.5177 913.0859 498.0477 913.0859ZM738.2777 745.6059C747.0677 754.3959 760.7377 754.3959 769.5277 745.6059C778.3177 736.8159 778.3177 723.1459 769.5277 714.3559L291.5077 236.3259C282.7177 227.5359 268.5577 227.5359 260.2577 236.3259C250.9777 244.6259 251.4677 258.7859 260.2577 267.5759ZM443.8477 335.4459H675.2977V330.0759C675.2977 285.6459 653.3177 263.6759 608.3977 263.6759H372.0677ZM214.8477 556.6359C214.8477 600.5859 237.3077 622.5559 281.7377 622.5559H292.9677V427.7359C292.9677 403.3159 298.3377 383.7859 308.5977 369.1359L226.5577 287.5959C218.7477 297.8559 214.8477 312.0159 214.8477 330.0759ZM777.8277 669.4359C780.7577 661.6259 782.7177 651.3659 782.7177 640.6259V430.6659C782.7177 387.2059 760.2577 364.7459 715.3277 364.7459H473.1477ZM389.1577 726.0759H665.5277L331.5477 392.0859C325.1977 401.8559 321.7777 415.0359 321.7777 430.6659V659.1759C321.7777 704.1059 344.2377 726.0759 389.1577 726.0759Z"/>
</svg>