<?xml version="1.0" encoding="UTF-8" standalone="no"?>
<svg xmlns="http://www.w3.org/2000/svg"
     width="1461.7946076241296" height="945.4789053176362"
     viewBox="0 0 1461.7946076241296 945.4789053176362"
     fill="currentColor">
  <path d="M1412.1083 118.3275L1448.7283 81.2175C1465.8183 63.1575 1466.3083 39.2275 1449.2183 22.6275L1437.4983 10.9075C1421.8783 -4.7125 1397.4583 -3.2525 1380.8583 13.3475L1344.2383 49.4875ZM846.1883 628.5875L945.7983 584.6375L1375.9783 154.9475L1307.1283 87.0775L877.9283 516.7675L831.0583 612.9575C826.6583 621.2575 836.9183 632.9775 846.1883 628.5875ZM142.5783 945.4775H1104.0083C1195.7983 945.4775 1246.5783 897.1375 1246.5783 804.8575V405.9275L1167.9683 484.5375V808.7575C1167.9683 849.2875 1145.0183 872.2375 1104.4883 872.2375H142.0883C101.5583 872.2375 78.6183 849.2875 78.6183 808.7575V398.1175C78.6183 357.5875 101.5583 334.6375 142.0883 334.6375H937.9883L1011.7183 261.3975H142.5783C50.7783 261.3975 -0.0017 309.7375 -0.0017 402.0175V804.8575C-0.0017 897.1375 50.7783 945.4775 142.5783 945.4775ZM259.2783 673.0175C297.8483 673.0175 329.0983 641.7675 329.0983 603.1975C329.0983 564.6175 297.8483 533.3675 259.2783 533.3675C220.6983 533.3675 189.4483 564.6175 189.4483 603.1975C189.4483 641.7675 220.6983 673.0175 259.2783 673.0175ZM469.7283 673.0175C508.2983 673.0175 539.5483 641.7675 539.5483 603.1975C539.5483 564.6175 508.2983 533.3675 469.7283 533.3675C431.1483 533.3675 399.8983 564.6175 399.8983 603.1975C399.8983 641.7675 431.1483 673.0175 469.7283 673.0175ZM680.1783 673.0175C718.7483 673.0175 749.9983 641.7675 749.9983 603.1975C749.9983 564.6175 718.7483 533.3675 680.1783 533.3675C641.5983 533.3675 610.3483 564.6175 610.3483 603.1975C610.3483 641.7675 641.5983 673.0175 680.1783 673.0175Z"/>
</svg>