<?xml version="1.0" encoding="UTF-8" standalone="no"?>
<svg xmlns="http://www.w3.org/2000/svg"
     width="1214.84375" height="1153.1379827904725"
     viewBox="0 0 1214.84375 1153.1379827904725"
     fill="currentColor">
  <path d="M1141.5983 1142.1545C1156.2483 1156.8045 1180.6683 1156.8045 1194.8283 1142.1545C1209.4683 1127.0145 1209.4683 1103.5745 1194.8283 1088.9245L117.6783 10.8045C103.0283 -3.3555 79.0983 -3.8455 63.9683 10.8045C49.8083 25.4545 49.8083 49.8645 63.9683 64.0245ZM814.9383 81.1145H268.0683L346.6783 159.7345H813.4783C861.8183 159.7345 889.6483 186.0945 889.6483 236.8745V307.1945H494.1383L572.2683 385.8045H1060.0583C1108.3983 385.8045 1136.2283 412.1745 1136.2283 462.9545V915.1045C1136.2283 925.8445 1131.3483 933.1645 1123.5383 936.5845L1190.9183 1003.9645C1206.5383 982.9745 1214.8483 955.1445 1214.8483 919.0045V458.5545C1214.8483 357.9745 1163.0883 307.1945 1061.5283 307.1945H968.2583V232.4845C968.2583 131.8945 916.5083 81.1145 814.9383 81.1145ZM394.5283 1070.3745H989.7483L911.1283 991.7645H395.5083C346.6783 991.7645 319.8283 965.8845 319.8283 915.1045V462.9545C319.8283 442.4445 325.1983 425.8445 334.9583 415.5845L273.4383 354.0645C251.9483 377.9945 241.2083 413.1445 241.2083 458.5545V765.6845H154.2983C105.4683 765.6845 78.6183 739.8045 78.6183 689.0245V236.8745C78.6183 210.9945 86.4283 191.9545 101.0783 181.2145L40.5283 121.1545C13.6683 144.5945 -0.0017 181.7045 -0.0017 232.4845V692.9345C-0.0017 794.0045 50.7783 844.3045 153.3183 844.3045H241.2083V919.0045C241.2083 1020.0845 291.9883 1070.3745 394.5283 1070.3745Z"/>
</svg>