<?xml version="1.0" encoding="UTF-8" standalone="no"?>
<svg xmlns="http://www.w3.org/2000/svg"
     width="923.828125" height="1212.40234375"
     viewBox="0 0 923.828125 1212.40234375"
     fill="currentColor">
  <path d="M365.2383 -0.0039C327.6383 -0.0039 315.9183 32.7161 337.3983 63.9661L429.6883 200.1961C445.7983 224.1161 480.9583 224.6061 497.0683 200.1961L587.8883 63.9661C607.9083 34.1761 596.6783 -0.0039 560.0583 -0.0039ZM153.3183 925.7861H770.5083C873.0483 925.7861 923.8283 874.9961 923.8283 774.4161V437.9861C923.8283 337.4061 873.0483 286.6161 770.5083 286.6161H153.3183C50.7783 286.6161 -0.0017 336.9161 -0.0017 437.9861V774.4161C-0.0017 875.4861 50.7783 925.7861 153.3183 925.7861ZM154.2983 847.1661C105.4683 847.1661 78.6183 820.7961 78.6183 770.5061V441.8961C78.6183 391.1161 105.4683 365.2361 154.2983 365.2361H769.5283C817.8683 365.2361 845.2183 391.1161 845.2183 441.8961V770.5061C845.2183 820.7961 817.8683 847.1661 769.5283 847.1661ZM365.2383 1212.4061H560.0583C596.6783 1212.4061 607.9083 1178.2261 587.8883 1148.4361L497.0683 1012.2061C480.9583 987.7961 445.7983 988.2861 429.6883 1012.2061L337.3983 1148.4361C315.9183 1179.6861 327.6383 1212.4061 365.2383 1212.4061Z"/>
</svg>