<?xml version="1.0" encoding="UTF-8" standalone="no"?>
<svg xmlns="http://www.w3.org/2000/svg"
     width="1186.6692172905132" height="1071.5644967782973"
     viewBox="0 0 1186.6692172905132 1071.5644967782973"
     fill="currentColor">
  <path d="M148.4383 786.1359H357.4183L330.5683 752.4459C311.5283 729.4959 300.2883 700.1959 300.2883 668.9459C300.2883 602.5359 351.5583 549.8059 420.4083 549.8059C439.4483 549.8059 457.0283 555.1759 473.6283 564.9459L484.8683 577.1459L373.5383 270.0159C367.6783 253.9059 364.7483 237.7959 364.7483 222.6559C364.7483 153.8059 410.1583 101.5659 486.3283 101.5659C537.1083 101.5659 582.5183 134.2759 601.0783 186.5259L659.1783 344.7259C677.7383 337.4059 695.7983 333.0059 717.2883 333.0059C746.0983 333.0059 771.9683 341.7959 794.4383 358.3959C813.4783 342.2859 845.2183 333.4959 873.5383 333.4959C898.4383 333.4959 921.8783 340.3359 943.3583 353.5159V146.4859C943.3583 48.8259 894.5283 -0.0041 795.4083 -0.0041H148.4383C49.3183 -0.0041 -0.0017 48.3359 -0.0017 146.4859V640.1359C-0.0017 738.2859 49.3183 786.1359 148.4383 786.1359ZM967.2883 1047.8559C1166.5083 975.0959 1232.4183 810.5459 1155.2783 596.6759L1123.0483 508.2959C1094.2383 428.2259 1037.1083 392.5759 993.1683 408.6959C983.3983 412.5959 980.4683 419.4359 983.3983 428.7059L997.5583 468.2659C1003.9083 486.3259 998.0483 499.0259 987.3083 503.4159C975.0983 507.8159 962.3983 501.9559 955.5683 483.3959L946.2883 457.5159C928.7083 410.1559 887.6983 390.1359 846.1883 405.2759C827.6383 412.1059 821.7783 422.3659 827.6383 438.4759L847.1683 491.2059C854.4883 509.7659 847.6583 522.4559 836.9183 526.3659C825.1983 530.7659 812.0083 524.9059 805.6683 506.8359L788.0883 457.5159C769.0383 403.8059 728.0283 390.6259 688.4783 405.2759C670.8983 411.1359 664.5483 423.3359 669.9183 437.9859L707.5183 542.4759C714.3583 561.0359 708.4983 573.2459 697.7583 577.6359C685.5483 582.0359 672.8483 576.1759 666.0183 557.6159L539.5483 209.4759C526.8583 175.2959 496.5783 161.1359 468.2583 171.8759C437.0083 183.5959 423.8283 212.8859 436.0383 247.0659L622.0683 756.8359C626.9483 769.5359 620.6083 778.8059 612.7883 781.7359C604.9783 783.6959 597.1683 782.2259 586.9183 771.4859L461.9183 636.7159C442.8683 616.6959 423.8283 612.3059 403.3183 620.1159C372.0683 631.8359 359.3783 660.1559 369.1383 686.5259C372.5583 696.2859 377.9283 704.5859 383.2983 710.9359L538.5783 905.2759C669.4383 1069.3359 820.3083 1101.0759 967.2883 1047.8559Z"/>
</svg>