<?xml version="1.0" encoding="UTF-8" standalone="no"?>
<svg xmlns="http://www.w3.org/2000/svg"
     width="1152.4658203125" height="1214.84375"
     viewBox="0 0 1152.4658203125 1214.84375"
     fill="currentColor">
  <path d="M319.6992 215.8209C355.3492 188.4809 402.2192 174.8009 458.8592 174.8009H844.6092V153.3209C844.6092 51.2709 794.3092 0.0009 693.2392 0.0009H232.7892C190.7992 0.0009 158.0792 9.7609 133.1792 29.7809ZM1088.2592 1173.8309C1102.9092 1188.4809 1127.3192 1188.4809 1141.4792 1173.8309C1156.1292 1158.6909 1156.1292 1135.2509 1141.4792 1120.6009L64.3292 42.4809C49.6792 28.3209 25.7592 27.8309 10.6192 42.4809C-3.5408 57.1309 -3.5408 81.5409 10.6192 95.7009ZM1070.6792 967.2809V394.5309C1070.6792 292.4809 1020.3892 241.2109 919.3092 241.2109H458.8592C421.2692 241.2109 390.9892 249.0209 368.0392 264.6509ZM81.4192 249.0209V814.9409C81.4192 916.9909 132.1992 968.2609 232.7892 968.2609H240.5992V408.2009ZM307.4992 475.1009V1061.5209C307.4992 1163.5709 358.2792 1214.8409 458.8592 1214.8409H919.3092C961.7892 1214.8409 994.9992 1204.5909 1017.4592 1185.0609Z"/>
</svg>