<?xml version="1.0" encoding="UTF-8" standalone="no"?>
<svg xmlns="http://www.w3.org/2000/svg"
     width="821.2890625" height="1046.875"
     viewBox="0 0 821.2890625 1046.875"
     fill="currentColor">
  <path d="M-0.0017 894.0466C-0.0017 996.0966 50.2883 1046.8766 151.3683 1046.8766H669.9183C770.9983 1046.8766 821.2883 996.0966 821.2883 894.0466V153.3166C821.2883 51.7566 770.9983 -0.0034 669.9183 -0.0034H151.3683C50.2883 -0.0034 -0.0017 51.7566 -0.0017 153.3166ZM78.6183 892.5766V154.7866C78.6183 105.9566 104.4883 78.6166 155.2783 78.6166H666.0183C716.7983 78.6166 742.6783 105.9566 742.6783 154.7866V892.5766C742.6783 941.4066 716.7983 968.2666 666.0183 968.2666H155.2783C104.4883 968.2666 78.6183 941.4066 78.6183 892.5766ZM454.5883 901.8566H632.3283C663.5783 901.8566 675.7783 889.6466 675.7783 858.8866V566.4066C675.7783 535.6466 663.5783 523.4366 632.3283 523.4366H454.5883C423.3383 523.4366 410.6483 535.6466 410.6483 566.4066V858.8866C410.6483 889.6466 423.3383 901.8566 454.5883 901.8566Z"/>
</svg>