<?xml version="1.0" encoding="UTF-8" standalone="no"?>
<svg xmlns="http://www.w3.org/2000/svg"
     width="1151.3671875" height="1057.008336600384"
     viewBox="0 0 1151.3671875 1057.008336600384"
     fill="currentColor">
  <path d="M1041.9883 1045.8408C1057.1283 1060.4908 1081.0583 1060.9708 1095.2183 1045.8408C1109.8683 1031.1908 1110.3483 1007.2608 1095.2183 992.6108L113.2783 11.1708C98.6283 -3.4792 74.7083 -3.9692 59.5683 11.1708C45.4083 25.3308 45.4083 49.7408 59.5683 64.3908ZM998.0483 78.5508H261.7183L340.3283 157.1708H536.6183V353.4508L615.2383 432.0708V157.1708H997.0683C1045.4083 157.1708 1072.7583 183.5308 1072.7583 234.3108V822.2008C1072.7583 844.1808 1065.9183 860.2908 1053.2183 870.0608L1115.7183 932.0708C1139.1583 908.6308 1151.3683 872.9908 1151.3683 826.6008V229.9208C1151.3683 129.3308 1100.5883 78.5508 998.0483 78.5508ZM153.3183 977.4808H893.5583L814.9383 898.8608H615.2383V700.1308L536.6183 621.5208V898.8608H154.2983C105.4683 898.8608 78.6183 872.9908 78.6183 822.2008V234.3108C78.6183 210.8808 85.9383 194.2708 99.1183 184.5108L37.5983 122.9908C12.6983 146.4208 -0.0017 182.0708 -0.0017 229.9208V826.6008C-0.0017 927.1908 51.2683 977.4808 153.3183 977.4808Z"/>
</svg>