<?xml version="1.0" encoding="UTF-8" standalone="no"?>
<svg xmlns="http://www.w3.org/2000/svg"
     width="1151.3671875" height="898.92578125"
     viewBox="0 0 1151.3671875 898.92578125"
     fill="currentColor">
  <path d="M-0.0017 257.3195H78.6183V155.2695C78.6183 104.4895 105.4683 78.6095 154.2983 78.6095H255.3683V-0.0005H153.3183C51.2683 -0.0005 -0.0017 50.2895 -0.0017 151.3695ZM1151.3683 257.3195V151.3695C1151.3683 50.2895 1100.0983 -0.0005 998.0483 -0.0005H895.9983V78.6095H997.0683C1045.8983 78.6095 1072.7583 104.4895 1072.7583 155.2695V257.3195ZM322.2683 78.6095H542.4783V-0.0005H322.2683ZM608.8883 78.6095H829.0983V-0.0005H608.8883ZM-0.0017 574.7095H78.6183V324.2195H-0.0017ZM1151.3683 574.7095V324.2195H1072.7583V574.7095ZM153.3183 898.9295H255.3683V820.3095H154.2983C105.4683 820.3095 78.6183 794.4295 78.6183 743.6495V641.5995H-0.0017V747.5595C-0.0017 848.6295 51.2683 898.9295 153.3183 898.9295ZM998.0483 898.9295C1100.0983 898.9295 1151.3683 848.6295 1151.3683 747.5595V641.5995H1072.7583V743.6495C1072.7583 794.4295 1045.8983 820.3095 997.0683 820.3095H895.9983V898.9295ZM322.2683 898.9295H542.4783V820.3095H322.2683ZM608.8883 898.9295H829.0983V820.3095H608.8883Z"/>
</svg>