<?xml version="1.0" encoding="UTF-8" standalone="no"?>
<svg xmlns="http://www.w3.org/2000/svg"
     width="990.8447265625" height="1046.875"
     viewBox="0 0 990.8447265625 1046.875"
     fill="currentColor">
  <path d="M534.0589 427.7366V78.6166H750.3689C801.1489 78.6166 827.0289 105.9566 827.0289 154.7866V720.7066L905.6389 799.3166V153.3166C905.6389 51.7566 855.3489 -0.0034 754.2689 -0.0034H235.7189C193.2389 -0.0034 160.0389 10.2566 137.0889 29.7866L200.0689 92.7766C208.8589 83.4966 222.0489 78.6166 239.6289 78.6166H455.9289V349.1166ZM926.6389 1007.8166C941.7689 1022.9466 965.6989 1022.9466 979.8589 1007.8166C994.5089 993.1666 994.5089 969.2366 979.8589 954.1066L64.3289 39.0666C49.6789 24.4166 25.7589 24.4166 10.6189 39.0666C-3.5411 53.7066 -3.5411 78.1266 10.6189 92.2866ZM235.7189 1046.8766H754.2689C796.7489 1046.8766 829.9589 1037.5966 852.9089 1018.0666L789.9189 954.5866C781.1289 963.3766 767.9489 968.2666 750.3689 968.2666H534.0589V698.7266L455.9289 620.1166V968.2666H239.6289C188.8389 968.2666 162.9689 941.4066 162.9689 892.5766V327.6366L84.3489 249.0266V894.0466C84.3489 996.0966 134.6389 1046.8766 235.7189 1046.8766Z"/>
</svg>