<?xml version="1.0" encoding="UTF-8" standalone="no"?>
<svg xmlns="http://www.w3.org/2000/svg"
     width="1052.24609375" height="898.92578125"
     viewBox="0 0 1052.24609375 898.92578125"
     fill="currentColor">
  <path d="M93.2583 409.1795H203.6183C265.6283 409.1795 296.8783 377.9295 296.8783 313.4795V95.2195C296.8783 30.7595 265.6283 -0.0005 203.6183 -0.0005H93.2583C31.2483 -0.0005 -0.0017 30.7595 -0.0017 95.2195V313.4795C-0.0017 377.9295 31.2483 409.1795 93.2583 409.1795ZM471.1883 409.1795H581.5383C643.5583 409.1795 674.8083 377.9295 674.8083 313.4795V95.2195C674.8083 30.7595 643.5583 -0.0005 581.5383 -0.0005H471.1883C409.1783 -0.0005 377.9283 30.7595 377.9283 95.2195V313.4795C377.9283 377.9295 409.1783 409.1795 471.1883 409.1795ZM849.1183 409.1795H958.9883C1020.9983 409.1795 1052.2483 377.9295 1052.2483 313.4795V95.2195C1052.2483 30.7595 1020.9983 -0.0005 958.9883 -0.0005H849.1183C786.6183 -0.0005 755.3683 30.7595 755.3683 95.2195V313.4795C755.3683 377.9295 786.6183 409.1795 849.1183 409.1795ZM93.2583 898.9295H203.6183C265.6283 898.9295 296.8783 868.1595 296.8783 803.7095V584.9595C296.8783 520.9995 265.6283 489.7495 203.6183 489.7495H93.2583C31.2483 489.7495 -0.0017 520.9995 -0.0017 584.9595V803.7095C-0.0017 868.1595 31.2483 898.9295 93.2583 898.9295ZM471.1883 898.9295H581.5383C643.5583 898.9295 674.8083 868.1595 674.8083 803.7095V584.9595C674.8083 520.9995 643.5583 489.7495 581.5383 489.7495H471.1883C409.1783 489.7495 377.9283 520.9995 377.9283 584.9595V803.7095C377.9283 868.1595 409.1783 898.9295 471.1883 898.9295ZM849.1183 898.9295H958.9883C1020.9983 898.9295 1052.2483 868.1595 1052.2483 803.7095V584.9595C1052.2483 520.9995 1020.9983 489.7495 958.9883 489.7495H849.1183C786.6183 489.7495 755.3683 520.9995 755.3683 584.9595V803.7095C755.3683 868.1595 786.6183 898.9295 849.1183 898.9295Z"/>
</svg>