<?xml version="1.0" encoding="UTF-8" standalone="no"?>
<svg xmlns="http://www.w3.org/2000/svg"
     width="1266.6015625" height="992.67578125"
     viewBox="0 0 1266.6015625 992.67578125"
     fill="currentColor">
  <path d="M269.5344 856.9306C220.7044 856.9306 193.3644 831.0506 193.3644 780.2706V726.0706C250.9744 759.7606 318.3644 779.3006 389.6444 779.3006C474.6144 779.3006 552.2444 751.9506 616.2144 706.0506L886.2344 976.0706C897.9444 987.7906 912.1144 992.6806 927.2444 992.6806C960.4444 992.6806 983.3944 967.7706 983.3944 935.0606C983.3944 919.4306 977.5344 904.7806 967.7744 895.0206L699.2144 625.4906C749.5144 560.0606 779.2944 478.5106 779.2944 389.6506C779.2944 282.7106 736.3244 185.5506 666.0144 115.2306H1111.8144C1160.1544 115.2306 1187.9844 141.1106 1187.9844 191.8906V780.2706C1187.9844 831.0506 1160.1544 856.9306 1111.8144 856.9306H1004.8844C1025.3944 877.9306 1036.6244 905.2706 1036.6244 935.5506H1113.2844C1215.3344 935.5506 1266.6044 884.7706 1266.6044 784.1806V187.9906C1266.6044 87.4006 1215.3344 36.6206 1113.2844 36.6206H554.6844C504.3944 13.1806 448.7344 0.0006 389.6444 0.0006C174.8044 0.0006 0.0044 174.8006 0.0044 389.6506C0.0044 497.5606 43.9444 595.2106 114.7444 665.5306V784.1806C114.7444 885.2506 166.5044 935.5506 268.0644 935.5506H772.9444L694.3344 856.9306ZM83.4944 389.6506C83.4944 220.7006 220.7044 83.5006 389.6444 83.5006C559.0844 83.5006 695.8044 220.7006 695.8044 389.6506C695.8044 558.5906 559.0844 695.8006 389.6444 695.8006C220.7044 695.8006 83.4944 558.5906 83.4944 389.6506ZM234.8644 358.8906H544.4344C563.4744 358.8906 578.6144 343.2606 578.6144 324.2206C578.6144 305.1806 563.4744 290.5306 544.4344 290.5306H234.8644C215.3344 290.5306 201.1744 305.1806 201.1744 324.2206C201.1744 343.2606 215.3344 358.8906 234.8644 358.8906ZM234.8644 488.7706H459.9644C479.0044 488.7706 494.1444 474.1206 494.1444 455.0806C494.1444 436.0306 479.0044 420.4106 459.9644 420.4106H234.8644C215.3344 420.4106 201.1744 436.0306 201.1744 455.0806C201.1744 474.1206 215.3344 488.7706 234.8644 488.7706Z"/>
</svg>