<?xml version="1.0" encoding="UTF-8" standalone="no"?>
<svg xmlns="http://www.w3.org/2000/svg"
     width="989.2578125" height="1214.84375"
     viewBox="0 0 989.2578125 1214.84375"
     fill="currentColor">
  <path d="M159.1783 394.5309C159.1783 255.3709 239.2583 174.8009 377.4383 174.8009H763.1883V153.3209C763.1883 51.2709 712.8883 0.0009 611.8183 0.0009H151.3683C50.2883 0.0009 -0.0017 51.2709 -0.0017 153.3209V814.9409C-0.0017 916.9909 50.7783 968.2609 151.3683 968.2609H159.1783ZM989.2583 394.5309C989.2583 292.4809 938.9683 241.2109 837.8883 241.2109H377.4383C276.3683 241.2109 226.0783 292.4809 226.0783 394.5309V1061.5209C226.0783 1163.5709 276.8583 1214.8409 377.4383 1214.8409H837.8883C938.4783 1214.8409 989.2583 1163.5709 989.2583 1061.5209Z"/>
</svg>