<?xml version="1.0" encoding="UTF-8" standalone="no"?>
<svg xmlns="http://www.w3.org/2000/svg"
     width="1214.84375" height="989.2578125"
     viewBox="0 0 1214.84375 989.2578125"
     fill="currentColor">
  <path d="M153.3183 763.188H241.2083V837.888C241.2083 938.968 291.9883 989.258 394.5283 989.258H1061.5283C1163.0883 989.258 1214.8483 938.478 1214.8483 837.888V377.438C1214.8483 276.858 1163.0883 226.078 1061.5283 226.078H968.2583V151.368C968.2583 50.778 916.5083 -0.002 814.9383 -0.002H153.3183C50.7783 -0.002 -0.0017 50.778 -0.0017 151.368V611.818C-0.0017 712.888 50.7783 763.188 153.3183 763.188ZM154.2983 684.568C105.4683 684.568 78.6183 658.688 78.6183 607.908V155.758C78.6183 104.978 105.4683 78.618 154.2983 78.618H813.4783C861.8183 78.618 889.6483 104.978 889.6483 155.758V226.078H394.5283C291.9883 226.078 241.2083 276.858 241.2083 377.438V684.568ZM395.5083 910.648C346.6783 910.648 319.8283 884.768 319.8283 833.988V381.838C319.8283 331.058 346.6783 304.688 395.5083 304.688H1060.0583C1108.3983 304.688 1136.2283 331.058 1136.2283 381.838V833.988C1136.2283 884.768 1108.3983 910.648 1060.0583 910.648ZM429.6883 844.238H1026.8583C1057.6183 844.238 1069.8283 831.538 1069.8283 800.288V415.528C1069.8283 384.278 1057.6183 371.578 1026.8583 371.578H429.6883C398.9283 371.578 386.7183 384.278 386.7183 415.528V800.288C386.7183 831.538 398.9283 844.238 429.6883 844.238Z"/>
</svg>