<?xml version="1.0" encoding="UTF-8" standalone="no"?>
<svg xmlns="http://www.w3.org/2000/svg"
     width="1055.17578125" height="898.92578125"
     viewBox="0 0 1055.17578125 898.92578125"
     fill="currentColor">
  <path d="M112.3083 409.1795H942.8683C1017.5783 409.1795 1055.1783 372.5595 1055.1783 297.3595V110.8395C1055.1783 36.1295 1017.5783 -0.0005 942.8683 -0.0005H112.3083C37.5983 -0.0005 -0.0017 36.1295 -0.0017 110.8395V297.3595C-0.0017 372.5595 37.5983 409.1795 112.3083 409.1795ZM112.3083 898.9295H942.8683C1017.5783 898.9295 1055.1783 862.7895 1055.1783 787.5995V600.5895C1055.1783 526.3695 1017.5783 489.7495 942.8683 489.7495H112.3083C37.5983 489.7495 -0.0017 526.3695 -0.0017 600.5895V787.5995C-0.0017 862.7895 37.5983 898.9295 112.3083 898.9295Z"/>
</svg>