<?xml version="1.0" encoding="UTF-8" standalone="no"?>
<svg xmlns="http://www.w3.org/2000/svg"
     width="1202.0910927227035" height="1091.2719943394977"
     viewBox="0 0 1202.0910927227035 1091.2719943394977"
     fill="currentColor">
  <path d="M148.4383 786.1359H425.7783L543.9483 929.1959C667.9683 1079.1059 812.4983 1125.4859 974.1183 1066.4059C1168.4583 995.6059 1250.9783 817.8759 1172.8483 603.0259L1136.2283 502.9259C1098.6283 398.9259 1027.3483 354.9759 943.3583 382.3259V146.4859C943.3583 48.8259 894.5283 -0.0041 795.4083 -0.0041H148.4383C49.3183 -0.0041 -0.0017 48.3359 -0.0017 146.4859V640.1359C-0.0017 738.2859 49.3183 786.1359 148.4383 786.1359ZM953.6183 1002.4459C825.1983 1048.8259 705.5683 1025.3859 592.7783 889.1559L429.1983 691.8959C424.3183 686.0359 420.8983 680.6659 417.9683 672.8559C412.1083 656.7359 418.9483 639.1559 437.4983 632.3259C452.6383 626.4659 464.8483 632.3259 477.5383 645.5059L590.8183 762.2059C609.8683 781.7359 626.4683 783.6959 642.5783 777.8359C661.6183 770.9959 669.9183 750.9759 662.1083 729.9759L489.2583 254.3959C481.9383 234.8659 490.2383 216.3059 509.2783 209.4759C528.3183 202.6359 545.8983 211.4259 553.2183 230.9559L676.7583 570.3159C682.6183 586.4259 700.6883 593.7459 716.7983 587.8859C732.4183 582.0359 740.7183 565.4259 734.8683 549.3159L690.4283 427.2459C696.7783 420.4059 706.5383 414.0659 715.8183 411.1359C738.7683 402.8359 757.8083 412.5959 766.5983 436.5259L805.1783 543.4559C811.5283 560.5459 829.5883 566.8959 845.2183 561.0359C860.3483 555.6659 869.6283 539.0659 863.7683 522.4559L832.0283 435.5459C838.3783 428.7059 848.1483 422.3659 856.9383 419.4359C880.3683 411.1359 899.4183 420.8959 908.1983 444.8259L934.0783 516.6059C940.4283 533.2059 958.4983 539.5459 974.1183 534.1759C989.2583 528.8059 998.5383 512.2059 992.1883 495.1159L973.1483 442.8759C1014.1583 427.7359 1052.7383 461.4259 1079.0983 534.1759L1109.3783 618.1659C1176.7583 802.7359 1115.7183 943.3559 953.6183 1002.4459Z"/>
</svg>