<?xml version="1.0" encoding="UTF-8" standalone="no"?>
<svg xmlns="http://www.w3.org/2000/svg"
     width="1375" height="887.6953125"
     viewBox="0 0 1375 887.6953125"
     fill="currentColor">
  <path d="M112.3083 424.8033H561.5283C636.2283 424.8033 673.8283 388.6733 673.8283 313.4733V110.8433C673.8283 36.1333 636.2283 0.0033 561.5283 0.0033H112.3083C37.5983 0.0033 -0.0017 36.1333 -0.0017 110.8433V313.4733C-0.0017 388.6733 37.5983 424.8033 112.3083 424.8033ZM943.8483 830.5633H1262.6983C1337.3983 830.5633 1374.9983 794.4333 1374.9983 719.2333V176.7533C1374.9983 102.0533 1337.3983 65.9133 1262.6983 65.9133H943.8483C869.1383 65.9133 831.5383 102.0533 831.5383 176.7533V719.2333C831.5383 794.4333 869.1383 830.5633 943.8483 830.5633ZM118.1683 351.0733C89.3583 351.0733 73.7283 335.9333 73.7283 305.6633V119.1433C73.7283 88.3833 89.3583 73.7333 118.1683 73.7333H555.6683C584.4683 73.7333 600.0983 88.3833 600.0983 119.1433V305.6633C600.0983 335.9333 584.4683 351.0733 555.6683 351.0733ZM949.2183 756.8333C920.8983 756.8333 905.2783 741.7033 905.2783 711.4233V185.0633C905.2783 154.2933 920.8983 139.6533 949.2183 139.6533H1256.3483C1285.6483 139.6533 1301.2683 154.2933 1301.2683 185.0633V711.4233C1301.2683 741.7033 1285.6483 756.8333 1256.3483 756.8333ZM236.8183 887.6933H622.0683C696.7783 887.6933 734.3783 851.0733 734.3783 776.3633V638.6733C734.3783 563.9633 696.7783 527.8333 622.0683 527.8333H236.8183C162.1083 527.8333 124.5083 563.9633 124.5083 638.6733V776.3633C124.5083 851.0733 162.1083 887.6933 236.8183 887.6933ZM242.6783 813.9633C213.8683 813.9633 198.2383 798.8233 198.2383 768.5533V646.4833C198.2383 616.2133 213.8683 601.5633 242.6783 601.5633H615.7183C645.0183 601.5633 660.6483 616.2133 660.6483 646.4833V768.5533C660.6483 798.8233 645.0183 813.9633 615.7183 813.9633Z"/>
</svg>