<?xml version="1.0" encoding="UTF-8" standalone="no"?>
<svg xmlns="http://www.w3.org/2000/svg"
     width="1151.3671875" height="899.4140625"
     viewBox="0 0 1151.3671875 899.4140625"
     fill="currentColor">
  <path d="M998.0483 -0.0022C1100.5883 -0.0022 1151.3683 50.7778 1151.3683 151.3678V247.5578H819.8283V0.4878H741.2083V247.5578H410.6483V0.4878H332.0283V247.5578H-0.0017V151.3678C-0.0017 50.7778 51.2683 -0.0022 153.3183 -0.0022ZM410.6483 573.7278V326.1678H741.2083V573.7278ZM741.2083 652.3478V898.9278H819.8283V899.4178H741.2083V898.9278H410.6483V652.3478ZM819.8283 326.1678H1151.3683V573.7278H819.8283ZM332.0283 573.7278H-0.0017V326.1678H332.0283ZM998.0483 898.9278H819.8283V652.3478H1151.3683V748.0478C1151.3683 848.6378 1100.5883 898.9278 998.0483 898.9278ZM-0.0017 652.3478H332.0283V898.9278H410.6483V899.4178H332.0283V898.9278H153.3183C51.2683 898.9278 -0.0017 848.6378 -0.0017 748.0478Z"/>
</svg>