<?xml version="1.0" encoding="UTF-8" standalone="no"?>
<svg xmlns="http://www.w3.org/2000/svg"
     width="1076.171875" height="1010.25390625"
     viewBox="0 0 1076.171875 1010.25390625"
     fill="currentColor">
  <path d="M300.2883 1010.2519C324.2183 1010.2519 340.8183 997.5619 370.6083 971.1919L539.0583 821.2919H852.5383C998.0483 821.2919 1076.1683 740.7219 1076.1683 597.6519V223.6319C1076.1683 80.5619 998.0483 0.0019 852.5383 0.0019H223.6283C78.1283 0.0019 -0.0017 80.0819 -0.0017 223.6319V597.6519C-0.0017 741.2119 78.1283 821.2919 223.6283 821.2919H247.0683V948.2419C247.0683 985.8419 266.1183 1010.2519 300.2883 1010.2519ZM320.3083 920.9019V779.2919C320.3083 752.9319 310.0583 742.6719 283.6883 742.6719H223.6283C124.9983 742.6719 78.6183 692.3819 78.6183 597.1719V223.6319C78.6183 128.4219 124.9983 78.6119 223.6283 78.6119H852.5383C950.6883 78.6119 997.5583 128.4219 997.5583 223.6319V597.1719C997.5583 692.3819 950.6883 742.6719 852.5383 742.6719H536.1283C508.7883 742.6719 495.1183 746.5819 476.5583 765.6219ZM257.3283 398.4419H471.6783C506.8383 398.4419 524.4183 381.3519 524.4183 345.7019V248.5319C524.4183 213.3819 506.8383 196.7819 471.6783 196.7819H257.3283C221.6783 196.7819 203.6183 213.3819 203.6183 248.5319V345.7019C203.6183 381.3519 221.6783 398.4419 257.3283 398.4419ZM661.1283 593.7519H813.4783C848.6283 593.7519 866.2083 576.6619 866.2083 541.5019V282.2219C866.2083 247.0719 848.6283 229.9819 813.4783 229.9819H661.1283C625.4883 229.9819 607.9083 247.0719 607.9083 282.2219V541.5019C607.9083 576.6619 625.4883 593.7519 661.1283 593.7519ZM316.4083 623.0419H500.4883C535.6483 623.0419 553.2183 605.9619 553.2183 570.3119V504.3919C553.2183 469.2419 535.6483 452.1519 500.4883 452.1519H316.4083C281.2483 452.1519 263.6683 469.2419 263.6683 504.3919V570.3119C263.6683 605.9619 281.2483 623.0419 316.4083 623.0419Z"/>
</svg>