<?xml version="1.0" encoding="UTF-8" standalone="no"?>
<svg xmlns="http://www.w3.org/2000/svg"
     width="1186.6692172905132" height="1071.5644967782973"
     viewBox="0 0 1186.6692172905132 1071.5644967782973"
     fill="currentColor">
  <path d="M148.4383 786.1359H356.9383C337.8883 762.6959 324.7083 739.2559 317.3783 717.2859H149.8983C97.6583 717.2859 68.8483 688.4759 68.8483 635.7459V150.8759C68.8483 98.1459 97.6583 68.8459 149.8983 68.8459H793.9483C845.6983 68.8459 874.5083 98.1459 874.5083 150.8759V333.4959C897.9483 333.4959 921.3883 339.8459 943.3583 353.5159V146.4859C943.3583 48.8259 894.5283 -0.0041 795.4083 -0.0041H148.4383C49.3183 -0.0041 -0.0017 48.3359 -0.0017 146.4859V640.1359C-0.0017 738.2859 49.3183 786.1359 148.4383 786.1359ZM967.2883 1047.8559C1166.5083 975.0959 1232.4183 810.5459 1155.2783 596.6759L1123.0483 508.2959C1094.2383 428.2259 1037.1083 392.5759 993.1683 408.6959C983.3983 412.5959 980.4683 419.4359 983.3983 428.7059L997.5583 468.2659C1003.9083 486.3259 998.0483 499.0259 987.3083 503.4159C975.0983 507.8159 962.3983 501.9559 955.5683 483.3959L946.2883 457.5159C928.7083 410.1559 887.6983 390.1359 846.1883 405.2759C827.6383 412.1059 821.7783 422.3659 827.6383 438.4759L847.1683 491.2059C854.4883 509.7659 847.6583 522.4559 836.9183 526.3659C825.1983 530.7659 812.0083 524.9059 805.6683 506.8359L788.0883 457.5159C769.0383 403.8059 728.0283 390.6259 688.4783 405.2759C670.8983 411.1359 664.5483 423.3359 669.9183 437.9859L707.5183 542.4759C714.3583 561.0359 708.4983 573.2459 697.7583 577.6359C685.5483 582.0359 672.8483 576.1759 666.0183 557.6159L539.5483 209.4759C526.8583 175.2959 496.5783 161.1359 468.2583 171.8759C437.0083 183.5959 423.8283 212.8859 436.0383 247.0659L622.0683 756.8359C626.9483 769.5359 620.6083 778.8059 612.7883 781.7359C604.9783 783.6959 597.1683 782.2259 586.9183 771.4859L461.9183 636.7159C442.8683 616.6959 423.8283 612.3059 403.3183 620.1159C372.0683 631.8359 359.3783 660.1559 369.1383 686.5259C372.5583 696.2859 377.9283 704.5859 383.2983 710.9359L538.5783 905.2759C669.4383 1069.3359 820.3083 1101.0759 967.2883 1047.8559Z"/>
</svg>