<?xml version="1.0" encoding="UTF-8" standalone="no"?>
<svg xmlns="http://www.w3.org/2000/svg"
     width="890.625" height="1066.40625"
     viewBox="0 0 890.625 1066.40625"
     fill="currentColor">
  <path d="M39.0583 994.6336H341.7983C357.9083 1036.1336 398.4383 1066.4036 445.3083 1066.4036C492.1883 1066.4036 532.7183 1036.1336 548.3383 994.6336H851.0783C872.5583 994.6336 890.6283 977.0536 890.6283 955.5636C890.6283 933.5936 872.5583 916.0136 851.0783 916.0136H547.8483C536.6183 887.2036 513.6683 864.2536 484.3783 853.0236V730.9536H737.3083C839.3583 730.9536 890.6283 680.1736 890.6283 580.0736V151.3636C890.6283 50.7836 839.3583 0.0036 737.3083 0.0036H153.3183C50.7783 0.0036 -0.0017 50.7836 -0.0017 151.3636V580.0736C-0.0017 680.1736 50.7783 730.9536 153.3183 730.9536H405.7583V853.0236C376.9483 864.2536 354.0083 887.2036 342.7783 916.0136H39.0583C17.5783 916.0136 -0.0017 933.5936 -0.0017 955.5636C-0.0017 977.0536 17.5783 994.6336 39.0583 994.6336ZM154.2983 652.3436C106.4483 652.3436 78.6183 626.4636 78.6183 575.6836V155.7636C78.6183 104.9836 106.4483 78.6136 154.2983 78.6136H735.8383C784.1783 78.6136 812.0083 104.9836 812.0083 155.7636V575.6836C812.0083 626.4636 784.1783 652.3436 735.8383 652.3436Z"/>
</svg>