<?xml version="1.0" encoding="UTF-8" standalone="no"?>
<svg xmlns="http://www.w3.org/2000/svg"
     width="990.8447265625" height="1046.875"
     viewBox="0 0 990.8447265625 1046.875"
     fill="currentColor">
  <path d="M136.5989 29.7866L455.9289 349.1166V-0.0034H235.7189C192.7489 -0.0034 160.0389 10.2566 136.5989 29.7866ZM534.0589 427.7366L905.6389 799.3166V153.3166C905.6389 51.7566 855.3489 -0.0034 754.2689 -0.0034H534.0589ZM926.6389 1007.8166C941.7689 1022.9466 965.6989 1022.9466 979.8589 1007.8166C994.5089 993.1666 994.5089 969.2366 979.8589 954.1066L64.3289 39.0666C49.6789 24.4166 25.7589 24.4166 10.6189 39.0666C-3.5411 53.7066 -3.5411 78.1266 10.6189 92.2866ZM84.3489 249.0266V894.0466C84.3489 996.0966 134.6389 1046.8766 235.7189 1046.8766H455.9289V620.1166ZM534.0589 698.7266V1046.8766H754.2689C797.2389 1046.8766 830.4489 1037.1066 852.9089 1017.5766Z"/>
</svg>