<?xml version="1.0" encoding="UTF-8" standalone="no"?>
<svg xmlns="http://www.w3.org/2000/svg"
     width="898.92578125" height="898.92578125"
     viewBox="0 0 898.92578125 898.92578125"
     fill="currentColor">
  <path d="M153.3183 898.9295H745.6083C848.1483 898.9295 898.9283 848.1495 898.9283 747.5595V151.3695C898.9283 50.7795 848.1483 -0.0005 745.6083 -0.0005H153.3183C51.2683 -0.0005 -0.0017 50.2895 -0.0017 151.3695V747.5595C-0.0017 848.6295 51.2683 898.9295 153.3183 898.9295ZM237.3083 376.4695V577.1495H225.5883C179.6883 577.1495 156.7383 554.1995 156.7383 508.7895V274.8995C156.7383 228.9995 179.6883 206.5395 225.5883 206.5395H562.4983C608.8883 206.5395 631.3483 228.9995 631.3483 274.8995V280.7595H333.4983C270.0183 280.7595 237.3083 313.4795 237.3083 376.4695ZM336.4283 683.5895C290.0383 683.5895 267.0883 661.1295 267.0883 615.2295V379.3895C267.0883 334.4695 290.0383 311.0395 336.4283 311.0395H672.8483C719.2383 311.0395 742.1883 334.4695 742.1883 379.3895V615.2295C742.1883 661.1295 719.2383 683.5895 672.8483 683.5895Z"/>
</svg>