<?xml version="1.0" encoding="UTF-8" standalone="no"?>
<svg xmlns="http://www.w3.org/2000/svg"
     width="1151.3671875" height="898.92578125"
     viewBox="0 0 1151.3671875 898.92578125"
     fill="currentColor">
  <path d="M153.3183 898.9278H998.0483C1100.5883 898.9278 1151.3683 848.6378 1151.3683 748.0478V151.3678C1151.3683 50.7778 1100.5883 -0.0022 998.0483 -0.0022H153.3183C51.2683 -0.0022 -0.0017 50.7778 -0.0017 151.3678V748.0478C-0.0017 848.6378 51.2683 898.9278 153.3183 898.9278ZM154.2983 820.3078C105.4683 820.3078 78.6183 794.4378 78.6183 743.6478V155.7578C78.6183 104.9778 105.4683 78.6178 154.2983 78.6178H997.0683C1045.4083 78.6178 1072.7583 104.9778 1072.7583 155.7578V743.6478C1072.7583 794.4378 1045.4083 820.3078 997.0683 820.3078ZM187.9883 753.9078H533.6883C564.4483 753.9078 576.6583 741.2078 576.6583 709.9578V189.4578C576.6583 158.2078 564.4483 145.5078 533.6883 145.5078H187.9883C157.7183 145.5078 145.5083 158.2078 145.5083 189.4578V709.9578C145.5083 741.2078 157.7183 753.9078 187.9883 753.9078ZM986.3283 449.2178C986.8183 431.6378 971.1883 416.5078 954.0983 416.5078H817.3783L745.1183 418.9478L785.6483 380.3678L838.3783 328.6178C844.7283 322.7578 848.1483 313.9678 848.1483 305.6678C848.1483 288.0878 835.4483 275.3878 818.8483 275.3878C809.0783 275.3878 801.7583 279.2978 795.4083 286.6178L666.0183 425.2978C657.7183 434.0778 654.7883 440.9178 654.7883 449.2178C654.7883 458.0078 657.2283 464.3578 666.0183 473.1478L795.4083 611.8178C801.7583 619.6278 809.0783 623.5378 818.8483 623.5378C835.4483 623.5378 848.1483 610.8378 848.1483 593.2578C848.1483 584.9578 844.7283 576.1678 838.3783 570.3078L785.6483 518.0678L745.1183 479.4878L817.3783 482.4178H954.0983C971.1883 482.4178 985.8383 466.7978 986.3283 449.2178Z"/>
</svg>