<?xml version="1.0" encoding="UTF-8" standalone="no"?>
<svg xmlns="http://www.w3.org/2000/svg"
     width="996.09375" height="996.09375"
     viewBox="0 0 996.09375 996.09375"
     fill="currentColor">
  <path d="M498.0477 996.0959C770.5077 996.0959 996.0977 770.0159 996.0977 498.0459C996.0977 225.5859 770.0177 -0.0041 497.5577 -0.0041C225.5877 -0.0041 -0.0023 225.5859 -0.0023 498.0459C-0.0023 770.0159 226.0777 996.0959 498.0477 996.0959ZM498.0477 913.0859C267.5777 913.0859 83.4977 728.5159 83.4977 498.0459C83.4977 267.5759 267.0877 83.0059 497.5577 83.0059C728.0277 83.0059 913.0877 267.5759 913.0877 498.0459C913.0877 728.5159 728.5177 913.0859 498.0477 913.0859ZM191.8977 453.6159V483.8859C191.8977 501.4659 206.5477 516.1159 224.1177 516.1159C242.6777 516.1159 256.8377 501.4659 256.8377 483.8859V457.0359C256.8377 411.6259 289.0577 381.3459 336.9177 381.3459H528.3177V441.8959C528.3177 458.4959 539.0577 468.7459 554.6877 468.7459C561.5277 468.7459 568.8477 465.8159 575.1977 461.4259L685.5477 369.6259C699.2177 358.3959 699.2177 340.8159 685.5477 329.5859L575.1977 237.3059C568.8477 232.9059 561.5277 229.9759 554.6877 229.9759C539.0577 229.9759 528.3177 240.2359 528.3177 256.3459V316.8959H341.7977C250.9777 316.8959 191.8977 371.0959 191.8977 453.6159ZM803.7077 543.9459V514.1559C803.7077 495.6059 790.0377 481.9359 771.4877 481.9359C752.4377 481.9359 738.7677 495.6059 738.7677 514.1559V540.5259C738.7677 586.4259 706.5477 616.6959 658.6877 616.6959H467.2877V556.1559C467.2877 540.0359 457.0277 529.7859 440.9177 529.7859C434.0777 529.7859 426.7577 532.7159 420.8977 537.1059L310.0577 628.4159C296.3877 639.6459 295.8977 658.2059 310.0577 668.9459L420.8977 761.2259C426.7577 765.6259 434.0777 768.5559 440.9177 768.5559C457.0277 768.5559 467.2877 758.2959 467.2877 741.6959V681.1559H653.8077C744.6277 681.1559 803.7077 626.9559 803.7077 543.9459Z"/>
</svg>