<?xml version="1.0" encoding="UTF-8" standalone="no"?>
<svg xmlns="http://www.w3.org/2000/svg"
     width="996.09375" height="996.09375"
     viewBox="0 0 996.09375 996.09375"
     fill="currentColor">
  <path d="M498.0477 996.0959C770.5077 996.0959 996.0977 770.0159 996.0977 498.0459C996.0977 225.5859 770.0177 -0.0041 497.5577 -0.0041C225.5877 -0.0041 -0.0023 225.5859 -0.0023 498.0459C-0.0023 770.0159 226.0777 996.0959 498.0477 996.0959ZM498.0477 913.0859C267.5777 913.0859 83.4977 728.5159 83.4977 498.0459C83.4977 267.5759 267.0877 83.0059 497.5577 83.0059C728.0277 83.0059 913.0877 267.5759 913.0877 498.0459C913.0877 728.5159 728.5177 913.0859 498.0477 913.0859ZM183.1077 497.0659C183.1077 513.1859 195.7977 526.3659 211.9177 526.3659C228.0277 526.3659 241.2077 513.1859 241.2077 497.0659V472.6559C241.2077 427.2459 272.4577 396.4859 320.3077 396.4859H444.8277V457.5159C444.8277 471.6759 454.0977 480.4659 468.2577 480.4659C475.0977 480.4659 481.4477 478.0259 486.3277 474.1259L592.7777 385.7459C605.4677 375.4859 605.4677 360.3559 592.7777 350.5859L486.3277 261.7159C481.4477 257.8159 475.0977 255.8559 468.2577 255.8559C454.0977 255.8559 444.8277 264.6459 444.8277 278.8059V338.8659H326.1677C238.7677 338.8659 183.1077 388.6759 183.1077 468.2659ZM736.8177 445.7959C755.3677 445.7959 767.0877 433.5959 767.0877 414.5459V294.9259C767.0877 272.9459 752.4377 258.2959 730.9577 258.2959C716.3077 258.2959 706.0577 262.2059 691.8977 273.4359L654.2977 302.2459C646.9777 307.6159 644.5277 313.4759 644.5277 321.2859C644.5277 332.5159 653.8077 341.7959 666.0177 341.7959C670.8977 341.7959 676.2677 340.3359 681.1477 336.4259L705.5677 316.8959V414.5459C705.5677 433.5959 717.7777 445.7959 736.8177 445.7959ZM766.1177 526.3659C766.1177 510.2559 752.9277 497.5559 736.8177 497.5559C720.7077 497.5559 707.5177 510.2559 707.5177 526.3659V550.7859C707.5177 596.6759 676.2677 626.9559 628.4177 626.9559H443.3577V566.8959C443.3577 552.7359 434.0777 543.9459 419.9177 543.9459C413.0877 543.9459 406.7377 545.8959 401.8577 550.2959L294.9177 638.6759C282.7177 647.9459 283.2077 664.0659 295.4077 673.8259L401.8577 762.2059C406.7377 766.1159 413.0877 768.0659 419.9177 768.0659C434.5677 768.0659 443.3577 759.7659 443.3577 745.6059V684.5659H622.5577C710.4477 684.5659 766.1177 634.2759 766.1177 555.1759Z"/>
</svg>