<?xml version="1.0" encoding="UTF-8" standalone="no"?>
<svg xmlns="http://www.w3.org/2000/svg"
     width="737.79296875" height="826.66015625"
     viewBox="0 0 737.79296875 826.66015625"
     fill="currentColor">
  <path d="M679.685 826.6567C715.335 826.6567 737.795 798.8267 737.795 756.3467V69.8267C737.795 27.3467 715.335 -0.0033 679.685 -0.0033C659.665 -0.0033 643.555 7.3267 623.535 18.5567L54.685 348.1467C13.675 371.5867 0.005 387.2067 0.005 413.0867C0.005 438.9667 13.675 454.5867 54.685 478.5167L623.535 807.6167C643.555 818.8467 659.665 826.6567 679.685 826.6567ZM654.295 733.3967C652.345 733.3967 650.395 732.4267 648.435 731.4467L108.395 418.4567C105.955 417.4767 103.515 415.5267 103.515 413.0867C103.515 410.6467 105.955 409.1767 108.395 407.7167L648.435 95.2167C650.395 93.7467 652.345 92.7767 654.295 92.7767C657.225 92.7767 659.175 94.7267 659.175 98.6367V727.5367C659.175 731.4467 657.225 733.3967 654.295 733.3967Z"/>
</svg>