<?xml version="1.0" encoding="UTF-8" standalone="no"?>
<svg xmlns="http://www.w3.org/2000/svg"
     width="1030.2734375" height="896.484375"
     viewBox="0 0 1030.2734375 896.484375"
     fill="currentColor">
  <path d="M333.0083 896.4888C359.3783 896.4888 376.4683 878.9088 376.4683 853.5188C376.4683 840.8188 372.0683 831.5388 364.7483 823.7288L223.6283 686.5188L131.3483 607.4188L245.6083 612.3088H869.1383C982.9083 612.3088 1030.2783 560.0587 1030.2783 449.7088V161.1287C1030.2783 47.3587 982.9083 -0.0013 869.1383 -0.0013H595.6983C568.8483 -0.0013 551.2683 19.5287 551.2683 43.4588C551.2683 67.3787 568.8483 86.9188 595.6983 86.9188H869.1383C920.8983 86.9188 942.8683 109.3787 942.8683 161.1287V449.7088C942.8683 502.9288 920.8983 525.3888 869.1383 525.3888H245.6083L131.3483 530.2688L223.6283 451.1688L364.7483 313.9688C372.0683 306.1487 376.4683 296.3887 376.4683 283.6888C376.4683 258.7888 359.3783 240.7188 333.0083 240.7188C322.7583 240.7188 310.0583 246.0888 301.7583 254.3987L14.6483 536.1288C4.8783 545.4088 -0.0017 556.6388 -0.0017 568.8488C-0.0017 580.5688 4.8783 592.2887 14.6483 601.5588L301.7583 883.2988C310.0583 891.5988 322.7583 896.4888 333.0083 896.4888Z"/>
</svg>