<?xml version="1.0" encoding="UTF-8" standalone="no"?>
<svg xmlns="http://www.w3.org/2000/svg"
     width="1231.9797137394448" height="730.95703125"
     viewBox="0 0 1231.9797137394448 730.95703125"
     fill="currentColor">
  <path d="M479.0709 126.9552H498.1209C520.0909 126.9552 528.3909 106.4452 516.1809 88.3752C494.7009 56.1552 472.7309 28.8052 455.6409 11.2352C447.3409 2.4452 440.0109 -0.0048 426.3409 -0.0048H411.6909C395.0909 -0.0048 384.3509 14.1552 395.0909 30.2752C419.5009 67.3852 433.1809 90.8252 442.4509 107.4252C450.7509 122.5552 460.5209 126.9552 479.0709 126.9552ZM32.3009 730.9552H91.3809C116.2809 730.9552 128.0009 719.2352 131.9109 702.1452C188.5509 478.5152 192.4509 248.0452 118.2309 20.5052C113.3509 5.3752 103.1009 -0.0048 86.9809 -0.0048H67.9409C52.8009 -0.0048 41.0909 9.2752 45.4809 28.8052C100.1709 268.0652 84.0509 471.6752 3.0009 687.0152C-5.7891 711.4252 4.9509 730.9552 32.3009 730.9552ZM1142.1609 730.9552H1196.3609C1226.6309 730.9552 1235.9109 709.9652 1230.5409 687.0152C1161.6909 369.6252 982.0009 153.8052 808.1809 16.6052C790.6009 2.4452 780.8309 -0.0048 768.6209 -0.0048H746.6509C732.0009 -0.0048 722.2409 17.5752 734.4509 30.2752C949.2909 249.0252 1050.3609 447.7552 1094.3109 690.9152C1098.2109 713.3752 1107.9809 730.9552 1142.1609 730.9552ZM569.8909 366.2152H608.9609C632.3909 366.2152 639.2309 350.5852 632.8809 332.0352C621.1609 297.8552 607.9809 264.1552 597.7309 240.2352C589.9109 224.6052 582.1009 218.7452 563.5509 218.7452H533.7609C515.2109 218.7452 502.0209 229.4952 510.3209 252.4452C521.0709 284.6652 529.8609 315.9152 534.7409 338.3752C539.6209 355.9552 548.9009 366.2152 569.8909 366.2152ZM618.7209 730.9552H657.3009C679.2709 730.9552 690.5009 719.2352 690.0109 696.2852C688.0609 630.3752 679.7609 545.4052 666.0909 491.2152C661.2009 471.6752 648.5109 464.3552 630.9309 464.3552H601.6309C578.6809 464.3552 567.9409 472.6552 571.8509 500.9752C578.2009 549.8052 583.0809 621.5852 584.5409 696.7752C584.5409 720.2152 596.7509 730.9552 618.7209 730.9552Z"/>
</svg>