<?xml version="1.0" encoding="UTF-8" standalone="no"?>
<svg xmlns="http://www.w3.org/2000/svg"
     width="1052.734375" height="997.0703125"
     viewBox="0 0 1052.734375 997.0703125"
     fill="currentColor">
  <path d="M210.4483 185.5442H959.9583C1011.2283 185.5442 1052.7383 144.0442 1052.7383 92.7742C1052.7383 41.5042 1011.2283 0.0042 959.9583 0.0042H210.4483C230.4683 25.3942 242.6783 57.6142 242.6783 92.7742C242.6783 127.9342 230.4683 160.1542 210.4483 185.5442ZM92.7783 185.5442C144.0383 185.5442 185.5483 144.0442 185.5483 92.7742C185.5483 41.5042 144.0383 0.0042 92.7783 0.0042C41.5083 0.0042 -0.0017 41.5042 -0.0017 92.7742C-0.0017 144.0442 41.5083 185.5442 92.7783 185.5442ZM92.7783 299.3142C111.3283 299.3142 126.4683 284.1842 126.4683 266.1142C126.4683 248.0442 111.3283 232.9142 92.7783 232.9142C74.7083 232.9142 59.5683 248.0442 59.5683 266.1142C59.5683 284.1842 74.7083 299.3142 92.7783 299.3142ZM92.7783 413.5742C111.3283 413.5742 126.4683 398.4342 126.4683 380.3742C126.4683 361.8142 111.3283 347.1642 92.7783 347.1642C74.7083 347.1642 59.5683 361.8142 59.5683 380.3742C59.5683 398.4342 74.7083 413.5742 92.7783 413.5742ZM92.7783 527.8342C111.3283 527.8342 126.4683 512.2042 126.4683 494.6242C126.4683 476.0742 111.3283 460.9342 92.7783 460.9342C74.7083 460.9342 59.5683 476.0742 59.5683 494.6242C59.5683 512.2042 74.7083 527.8342 92.7783 527.8342ZM92.7783 642.0942C111.3283 642.0942 126.4683 626.4642 126.4683 608.8842C126.4683 590.3342 111.3283 575.1942 92.7783 575.1942C74.7083 575.1942 59.5683 590.3342 59.5683 608.8842C59.5683 626.4642 74.7083 642.0942 92.7783 642.0942ZM92.7783 756.3442C111.3283 756.3442 126.4683 740.7242 126.4683 722.6542C126.4683 704.5942 111.3283 689.4542 92.7783 689.4542C74.7083 689.4542 59.5683 704.5942 59.5683 722.6542C59.5683 740.7242 74.7083 756.3442 92.7783 756.3442ZM92.7783 997.0742C114.2583 997.0742 132.3283 979.4942 132.3283 958.0042V842.7742C132.3283 821.2842 114.2583 803.7142 92.7783 803.7142C71.2883 803.7142 53.7083 821.2842 53.7083 842.7742V958.0042C53.7083 979.4942 71.7783 997.0742 92.7783 997.0742Z"/>
</svg>