<?xml version="1.0" encoding="UTF-8" standalone="no"?>
<svg xmlns="http://www.w3.org/2000/svg"
     width="1090.33203125" height="997.0703125"
     viewBox="0 0 1090.33203125 997.0703125"
     fill="currentColor">
  <path d="M-0.0017 92.7742C-0.0017 144.0442 41.5083 185.5442 92.7783 185.5442C144.0383 185.5442 185.5483 144.0442 185.5483 92.7742C185.5483 41.5042 144.0383 0.0042 92.7783 0.0042C41.5083 0.0042 -0.0017 41.5042 -0.0017 92.7742ZM335.4483 997.0742H997.5583C1048.3383 997.0742 1090.3283 955.5642 1090.3283 904.2942V92.7742C1090.3283 41.5042 1048.3383 0.0042 997.5583 0.0042H210.4483C232.4183 22.4642 242.6783 51.7542 242.6783 92.7742V904.2942C242.6783 955.5642 284.1783 997.0742 335.4483 997.0742ZM59.5683 262.6942C59.5683 280.2742 74.7083 295.8942 92.7783 295.8942C111.3283 295.8942 126.4683 280.2742 126.4683 262.6942C126.4683 244.1442 111.3283 229.0042 92.7783 229.0042C74.7083 229.0042 59.5683 244.1442 59.5683 262.6942ZM59.5683 373.0442C59.5683 390.6242 74.7083 406.2542 92.7783 406.2542C111.3283 406.2542 126.4683 390.6242 126.4683 373.0442C126.4683 354.4942 111.3283 339.3542 92.7783 339.3542C74.7083 339.3542 59.5683 354.4942 59.5683 373.0442ZM53.7083 604.0042C53.7083 625.4842 71.7783 643.5542 92.7783 643.5542C114.2583 643.5542 132.3283 625.4842 132.3283 604.0042V489.2542C132.3283 467.7742 114.2583 449.7042 92.7783 449.7042C71.2883 449.7042 53.7083 467.7742 53.7083 489.2542Z"/>
</svg>