<?xml version="1.0" encoding="UTF-8" standalone="no"?>
<svg xmlns="http://www.w3.org/2000/svg"
     width="996.09375" height="996.09375"
     viewBox="0 0 996.09375 996.09375"
     fill="currentColor">
  <path d="M498.0477 996.0959C770.5077 996.0959 996.0977 770.0159 996.0977 498.0459C996.0977 225.5859 770.0177 -0.0041 497.5577 -0.0041C225.5877 -0.0041 -0.0023 225.5859 -0.0023 498.0459C-0.0023 770.0159 226.0777 996.0959 498.0477 996.0959ZM373.5377 514.1559C373.5377 354.9759 414.0577 196.2859 489.7477 83.0059C492.1877 83.0059 495.1177 83.0059 497.5577 83.0059C722.6577 83.0059 904.7877 259.2759 913.0877 482.4259C799.3177 559.0859 640.1377 599.6059 480.4677 599.6059C445.7977 599.6059 411.1377 597.6559 376.9577 593.7459C374.5077 567.3859 373.5377 540.5259 373.5377 514.1559ZM295.4077 514.1559C295.4077 536.1359 295.8977 558.1059 297.8477 579.5859C217.7777 561.5259 143.5577 530.7659 83.4977 488.2859C87.8877 296.8759 219.2377 138.6759 397.4577 94.7259C330.5677 211.9159 295.4077 362.7959 295.4077 514.1559ZM498.0477 913.0859C494.1377 913.0859 490.2377 913.0859 486.3277 913.0859C438.9677 846.6759 406.2477 763.1859 388.6677 673.3359C418.9477 676.2659 449.7077 677.7359 480.4677 677.7359C634.7677 677.7359 789.0577 641.1159 906.7377 571.2859C872.5577 766.6059 703.1277 913.0859 498.0477 913.0859ZM91.3077 579.1059C154.7877 617.6759 228.5177 645.0159 307.6177 661.1359C322.2677 748.0459 350.5877 830.0759 392.0877 899.4159C239.2577 859.8659 122.0677 735.8359 91.3077 579.1059Z"/>
</svg>