<?xml version="1.0" encoding="UTF-8" standalone="no"?>
<svg xmlns="http://www.w3.org/2000/svg"
     width="978.02734375" height="1077.1836523943598"
     viewBox="0 0 978.02734375 1077.1836523943598"
     fill="currentColor">
  <path d="M30.2723 436.5574C46.8723 436.5574 61.0323 422.8874 61.0323 406.2874V333.5274C61.0323 229.0374 127.9323 155.7974 233.8823 155.7974H243.1623V215.3674C243.1623 250.5274 270.5123 258.8274 297.8523 238.8074L420.9023 148.9574C441.8923 133.8274 441.4023 116.7374 420.9023 101.1074L297.8523 10.7774C270.5123 -9.2426 243.1623 -1.4326 243.1623 34.7074V99.1574H233.4023C92.7723 99.1574 0.0023 193.3974 0.0023 333.0474V406.2874C0.0023 422.8874 13.6723 436.5574 30.2723 436.5574ZM368.6523 1077.1874H852.5423C936.0323 1077.1874 978.0323 1037.1474 978.0323 951.6974V468.7874C978.0323 383.3374 936.0323 343.2974 852.5423 343.2974H368.6523C285.1523 343.2974 243.1623 383.3374 243.1623 468.7874V951.6974C243.1623 1037.1474 285.1523 1077.1874 368.6523 1077.1874ZM370.1123 998.5674C336.9123 998.5674 321.7823 984.8974 321.7823 950.7174V470.2474C321.7823 435.5774 336.9123 421.9074 370.1123 421.9074H851.0723C884.7623 421.9074 899.4123 435.5774 899.4123 470.2474V950.7174C899.4123 984.8974 884.7623 998.5674 851.0723 998.5674Z"/>
</svg>