<?xml version="1.0" encoding="UTF-8" standalone="no"?>
<svg xmlns="http://www.w3.org/2000/svg"
     width="1180.6640625" height="898.92578125"
     viewBox="0 0 1180.6640625 898.92578125"
     fill="currentColor">
  <path d="M419.9177 -0.0005C128.9077 -0.0005 -0.0023 133.2995 -0.0023 406.7395V747.5595C-0.0023 848.6295 51.2677 898.9295 153.3177 898.9295H1027.3477C1129.3977 898.9295 1180.6677 848.1495 1180.6677 747.5595V406.7395C1180.6677 133.2995 1051.7577 -0.0005 761.2277 -0.0005ZM253.4177 682.1295C227.5377 682.1295 213.3777 664.0595 213.3777 636.7195V262.6995C213.3777 235.8395 227.0477 216.7995 252.9277 216.7995H397.9477C499.9977 216.7995 564.9377 274.8995 564.9377 365.2295C564.9377 428.2195 526.8577 480.9595 467.2877 500.4895L543.4577 618.1595C549.3177 628.4195 552.2477 636.2295 552.2477 647.4595C552.2477 667.9695 537.1077 682.1295 515.6277 682.1295C497.5577 682.1295 487.3077 674.8095 475.0977 655.7595L388.1877 512.2095H294.4377V636.7195C294.4377 665.0395 280.2777 682.1295 253.4177 682.1295ZM811.0377 682.1295C785.1577 682.1295 770.9977 663.5695 770.9977 636.2295V283.1995H646.9777C627.9277 283.1995 613.7677 270.5095 613.7677 250.4895C613.7677 228.9995 627.9277 216.7995 646.9777 216.7995H977.0477C996.5777 216.7995 1010.7377 228.9995 1010.7377 250.4895C1010.7377 270.5095 996.5777 283.1995 977.0477 283.1995H852.0477V636.2295C852.0477 664.5495 837.8877 682.1295 811.0377 682.1295ZM294.4377 453.1295H385.7377C446.7777 453.1295 484.8677 422.3595 484.8677 367.1895C484.8677 311.0395 445.7977 278.8095 388.1877 278.8095H294.4377Z"/>
</svg>