<?xml version="1.0" encoding="UTF-8" standalone="no"?>
<svg xmlns="http://www.w3.org/2000/svg"
     width="1180.6640625" height="898.92578125"
     viewBox="0 0 1180.6640625 898.92578125"
     fill="currentColor">
  <path d="M419.9177 -0.0005C128.9077 -0.0005 -0.0023 133.2995 -0.0023 406.7395V747.5595C-0.0023 848.6295 51.2677 898.9295 153.3177 898.9295H1027.3477C1129.3977 898.9295 1180.6677 848.1495 1180.6677 747.5595V406.7395C1180.6677 133.2995 1051.7577 -0.0005 761.2277 -0.0005ZM419.9177 79.5895H760.7377C998.0477 79.5895 1102.0477 183.1095 1102.0477 402.3395V743.6495C1102.0477 794.4295 1074.7077 820.3095 1026.3677 820.3095H154.2977C105.4677 820.3095 78.6177 794.4295 78.6177 743.6495V402.3395C78.6177 183.1095 182.6177 79.5895 419.9177 79.5895ZM264.1577 674.8095C290.0377 674.8095 303.7077 658.6895 303.7077 631.3495V510.2495H394.5277L479.0077 649.4095C490.7277 667.9695 500.9777 674.8095 518.0677 674.8095C539.0577 674.8095 553.7077 661.1295 553.7077 641.5995C553.7077 630.8595 550.7777 623.0495 544.9177 613.2795L471.1877 499.0195C528.8077 479.9795 565.9177 428.7095 565.9177 367.6795C565.9177 280.2695 502.9277 224.1195 404.2977 224.1195H263.6677C238.7677 224.1195 225.5877 242.1895 225.5877 268.0695V631.3495C225.5877 657.7195 239.2577 674.8095 264.1577 674.8095ZM804.1977 674.8095C830.0777 674.8095 843.7477 658.1995 843.7477 630.8595V288.0895H965.3277C983.8877 288.0895 997.5577 275.8795 997.5577 256.3495C997.5577 235.8395 983.8877 224.1195 965.3277 224.1195H645.5077C626.9577 224.1195 613.2777 235.8395 613.2777 256.3495C613.2777 275.8795 626.9577 288.0895 645.5077 288.0895H765.6277V630.8595C765.6277 657.2295 779.2977 674.8095 804.1977 674.8095ZM303.7077 453.1295V283.6895H394.5277C450.6877 283.6895 488.7677 314.9395 488.7677 369.6295C488.7677 423.3395 451.6577 453.1295 392.5777 453.1295Z"/>
</svg>