<?xml version="1.0" encoding="UTF-8" standalone="no"?>
<svg xmlns="http://www.w3.org/2000/svg"
     width="996.09375" height="996.09375"
     viewBox="0 0 996.09375 996.09375"
     fill="currentColor">
  <path d="M498.0477 996.0959C770.5077 996.0959 996.0977 770.0159 996.0977 498.0459C996.0977 225.5859 770.0177 -0.0041 497.5577 -0.0041C225.5877 -0.0041 -0.0023 225.5859 -0.0023 498.0459C-0.0023 770.0159 226.0777 996.0959 498.0477 996.0959ZM413.0877 749.9959C393.5577 749.9959 379.3977 736.3259 379.3977 716.7959V666.0159H335.4477C320.7977 666.0159 310.5477 655.7659 310.5477 641.1159C310.5477 626.9559 320.7977 616.2059 335.4477 616.2059H379.3977V567.3859H334.9577C319.8277 567.3859 310.0577 556.1559 310.0577 541.9959C310.0577 527.8359 319.8277 517.0859 334.9577 517.0859H379.3977V300.7859C379.3977 280.7659 392.5777 267.0859 412.5977 267.0859H531.7377C625.9777 267.0859 685.0577 330.5659 685.0577 416.9959C685.0577 504.3959 625.4877 566.8959 531.2477 566.8959H445.3077V616.2059H562.9877C577.6377 616.2059 587.3977 626.9559 587.3977 641.1159C587.3977 655.7659 577.6377 666.0159 562.9877 666.0159H445.3077V716.7959C445.3077 736.3259 432.1277 749.9959 413.0877 749.9959ZM445.7977 507.8159L520.0177 508.7859C584.9577 508.7859 618.6477 473.6359 618.6477 417.4759C618.6477 362.3059 585.4477 327.6359 520.0177 327.6359H445.7977Z"/>
</svg>