<?xml version="1.0" encoding="UTF-8" standalone="no"?>
<svg xmlns="http://www.w3.org/2000/svg"
     width="898.92578125" height="898.92578125"
     viewBox="0 0 898.92578125 898.92578125"
     fill="currentColor">
  <path d="M153.3183 898.9295H745.6083C848.1483 898.9295 898.9283 848.1495 898.9283 747.5595V151.3695C898.9283 50.7795 848.1483 -0.0005 745.6083 -0.0005H153.3183C51.2683 -0.0005 -0.0017 50.2895 -0.0017 151.3695V747.5595C-0.0017 848.6295 51.2683 898.9295 153.3183 898.9295ZM154.2983 820.3095C105.4683 820.3095 78.6183 794.4295 78.6183 743.6495V155.2695C78.6183 104.4895 105.4683 78.6095 154.2983 78.6095H744.6283C792.9683 78.6095 820.3083 104.4895 820.3083 155.2695V743.6495C820.3083 794.4295 792.9683 820.3095 744.6283 820.3095ZM367.1883 692.8695C385.7383 692.8695 398.9283 679.6895 398.9283 660.6395V611.3295H512.6983C526.8583 611.3295 536.1283 601.0695 536.1283 586.9095C536.1283 573.2395 526.8583 562.9895 512.6983 562.9895H398.9283V515.1395H482.4183C573.2383 515.1395 630.8583 454.5895 630.8583 370.1195C630.8583 286.1295 573.7283 224.6095 482.9083 224.6095H366.6983C347.6583 224.6095 335.4483 237.7895 335.4483 257.3195V467.2895H291.5083C277.3483 467.2895 267.5783 477.5395 267.5783 491.2095C267.5783 504.8795 277.3483 515.6295 291.5083 515.6295H335.4483V562.9895H291.9883C277.8283 562.9895 268.5583 573.2395 268.5583 586.9095C268.5583 601.0695 277.8283 611.3295 291.9883 611.3295H335.4483V660.6395C335.4483 679.6895 348.6283 692.8695 367.1883 692.8695ZM399.4183 458.0095V283.1995H471.6783C534.6683 283.1995 566.8983 316.8895 566.8983 370.6095C566.8983 424.8095 534.1783 458.9795 471.6783 458.9795Z"/>
</svg>