<?xml version="1.0" encoding="UTF-8" standalone="no"?>
<svg xmlns="http://www.w3.org/2000/svg"
     width="898.92578125" height="898.92578125"
     viewBox="0 0 898.92578125 898.92578125"
     fill="currentColor">
  <path d="M153.3183 898.9295H745.6083C848.1483 898.9295 898.9283 848.1495 898.9283 747.5595V151.3695C898.9283 50.7795 848.1483 -0.0005 745.6083 -0.0005H153.3183C51.2683 -0.0005 -0.0017 50.2895 -0.0017 151.3695V747.5595C-0.0017 848.6295 51.2683 898.9295 153.3183 898.9295ZM154.2983 820.3095C105.4683 820.3095 78.6183 794.4295 78.6183 743.6495V155.2695C78.6183 104.4895 105.4683 78.6095 154.2983 78.6095H744.6283C792.9683 78.6095 820.3083 104.4895 820.3083 155.2695V743.6495C820.3083 794.4295 792.9683 820.3095 744.6283 820.3095ZM300.2883 692.3795C316.8983 692.3795 328.6183 680.6595 328.6183 661.1295V495.6095H351.0783L411.6183 672.3595C416.9883 687.4995 426.2683 692.3795 438.9683 692.3795C455.0783 692.3795 465.8183 680.1795 465.8183 664.0595C465.8183 657.7195 464.8483 652.8295 462.3983 645.5095L405.2783 483.8895C444.3383 463.8695 466.3083 413.5695 466.3083 355.4695C466.3083 263.6695 430.1783 218.7495 358.8883 218.7495H301.7583C284.1783 218.7495 272.9483 230.9595 272.9483 250.9795V659.6695C272.9483 679.6895 283.6883 692.3795 300.2883 692.3795ZM328.6183 439.9395V274.8995H354.9783C392.5783 274.8995 409.6683 302.7295 409.6683 356.9295C409.6683 412.1095 392.5783 439.9395 353.5183 439.9395ZM571.2883 692.8695C625.4883 692.8695 661.1283 653.8095 661.1283 593.2595C661.1283 544.4295 644.0383 515.6295 597.1683 489.7495L578.1283 479.4895C552.2483 465.3295 541.5083 451.1695 541.5083 427.7295C541.5083 401.3695 551.7583 385.7395 570.7983 385.7395C593.7483 385.7395 600.0983 402.3395 603.0283 434.0795C604.4883 453.1295 612.7883 464.8395 629.3983 464.8395C646.4883 464.8395 656.2483 452.6395 656.2483 433.1095C656.2483 428.2195 655.7583 423.8295 655.2783 418.9495C650.3883 370.1195 622.0683 332.5195 571.2883 332.5195C520.5083 332.5195 486.8183 371.0895 486.8183 429.6895C486.8183 476.5595 505.3683 507.8095 550.7783 531.7395L570.3083 541.9895C595.2183 554.6895 605.4683 571.2895 605.4683 597.1695C605.4683 625.4895 593.7483 640.6295 571.7783 640.6295C548.3383 640.6295 538.0883 622.0695 535.6483 591.7995C534.1783 572.2695 524.8983 561.0395 508.7883 561.0395C491.6983 561.0395 481.9383 573.2395 481.9383 592.7695C481.9383 598.6295 481.9383 603.9995 482.9083 609.3795C488.7683 659.1795 520.5083 692.8695 571.2883 692.8695Z"/>
</svg>