<?xml version="1.0" encoding="UTF-8" standalone="no"?>
<svg xmlns="http://www.w3.org/2000/svg"
     width="996.09375" height="996.09375"
     viewBox="0 0 996.09375 996.09375"
     fill="currentColor">
  <path d="M498.0477 996.0959C770.5077 996.0959 996.0977 770.0159 996.0977 498.0459C996.0977 225.5859 770.0177 -0.0041 497.5577 -0.0041C225.5877 -0.0041 -0.0023 225.5859 -0.0023 498.0459C-0.0023 770.0159 226.0777 996.0959 498.0477 996.0959ZM343.7477 749.5159C326.6577 749.5159 315.4277 736.3259 315.4277 715.3359V293.9459C315.4277 272.9459 327.1477 260.2559 344.7277 260.2559H404.2977C478.0277 260.2559 515.1377 306.6359 515.1377 401.3659C515.1377 461.4259 492.6777 513.6759 452.1477 534.1759L510.7377 700.6859C513.6677 708.4959 514.6477 713.3759 514.6477 720.2159C514.6477 736.8159 502.9277 749.5159 486.8177 749.5159C473.6377 749.5159 463.8677 744.1359 458.4977 728.5159L395.9977 546.3859H373.0477V716.7959C373.0477 737.3059 360.8377 749.5159 343.7477 749.5159ZM373.0477 488.7659H398.4377C438.9677 488.7659 456.5477 459.9559 456.5477 403.3159C456.5477 347.1659 438.9677 318.3559 400.3877 318.3559H373.0477ZM623.5377 749.9959C570.7977 749.9959 538.0877 714.8459 532.2277 663.5759C531.2477 658.2059 531.2477 652.3459 531.2477 646.4859C531.2477 626.4659 541.5077 613.7659 558.5977 613.7659C575.1977 613.7659 585.4477 625.4859 586.9177 645.5059C588.8677 676.7559 600.0977 695.7959 623.5377 695.7959C646.4877 695.7959 658.6877 680.1759 658.6877 650.8759C658.6877 624.5159 647.9477 607.4259 622.5577 594.2359L602.5377 583.4959C555.6677 559.0859 535.6477 526.8559 535.6477 478.0259C535.6477 417.9659 571.2877 377.9259 623.5377 377.9259C675.2977 377.9259 705.0777 416.5059 710.4477 466.7959C710.9377 472.1659 711.4277 476.5659 711.4277 481.9359C711.4277 501.9559 701.1677 514.6459 683.5977 514.6459C666.5077 514.6459 657.7177 502.4459 656.2477 482.9059C653.3177 450.1959 646.4877 433.1059 623.0477 433.1059C603.5177 433.1059 592.7777 449.2159 592.7777 476.0759C592.7777 500.4859 604.0077 515.1359 630.8577 529.2959L649.8977 540.0359C698.7277 566.8959 716.3077 596.6759 716.3077 646.9759C716.3077 709.4759 679.6877 749.9959 623.5377 749.9959Z"/>
</svg>