<?xml version="1.0" encoding="UTF-8" standalone="no"?>
<svg xmlns="http://www.w3.org/2000/svg"
     width="996.09375" height="996.09375"
     viewBox="0 0 996.09375 996.09375"
     fill="currentColor">
  <path d="M498.0477 996.0959C770.5077 996.0959 996.0977 770.0159 996.0977 498.0459C996.0977 225.5859 770.0177 -0.0041 497.5577 -0.0041C225.5877 -0.0041 -0.0023 225.5859 -0.0023 498.0459C-0.0023 770.0159 226.0777 996.0959 498.0477 996.0959ZM498.0477 913.0859C267.5777 913.0859 83.4977 728.5159 83.4977 498.0459C83.4977 267.5759 267.0877 83.0059 497.5577 83.0059C728.0277 83.0059 913.0877 267.5759 913.0877 498.0459C913.0877 728.5159 728.5177 913.0859 498.0477 913.0859ZM492.6777 727.0459C602.0477 727.0459 673.8277 673.8259 673.8277 589.8459C673.8277 525.3859 626.9577 489.7459 541.0177 466.7959L475.5877 449.2159C428.7077 437.0159 409.1777 418.9459 409.1777 389.1559C409.1777 348.1459 442.8677 322.2659 494.6277 322.2659C543.9477 322.2659 575.1977 341.7959 591.3077 382.3259C598.6377 398.4359 608.8877 407.2259 627.4377 407.2259C647.4577 407.2259 662.1077 395.9959 662.1077 373.5359C662.1077 367.1859 660.6477 358.8859 657.2277 350.0959C639.1577 298.3359 580.5677 260.2559 497.5577 260.2559C397.9477 260.2559 328.1277 315.9159 328.1277 393.5559C328.1277 455.0759 368.1677 490.2359 443.8477 511.2259L514.6477 531.2459C572.7577 547.3659 592.7777 562.0159 592.7777 596.1959C592.7777 639.6459 551.2677 663.5759 497.5577 663.5759C446.2877 663.5759 410.6477 643.5559 393.5577 604.4959C384.7677 586.4259 374.5077 578.1259 356.9377 578.1259C335.4477 578.1259 321.7777 591.7959 321.7777 613.2859C321.7777 620.6059 323.2377 628.4159 327.1477 637.2059C344.7277 684.0859 403.8077 727.0459 492.6777 727.0459Z"/>
</svg>