<?xml version="1.0" encoding="UTF-8" standalone="no"?>
<svg xmlns="http://www.w3.org/2000/svg"
     width="898.92578125" height="898.92578125"
     viewBox="0 0 898.92578125 898.92578125"
     fill="currentColor">
  <path d="M153.3183 898.9295H745.6083C848.1483 898.9295 898.9283 848.1495 898.9283 747.5595V151.3695C898.9283 50.7795 848.1483 -0.0005 745.6083 -0.0005H153.3183C51.2683 -0.0005 -0.0017 50.2895 -0.0017 151.3695V747.5595C-0.0017 848.6295 51.2683 898.9295 153.3183 898.9295ZM444.8283 685.0595C353.0283 685.0595 291.9883 640.6295 273.9283 592.7695C270.0183 583.4995 268.0683 575.1995 268.0683 567.3795C268.0683 545.4095 282.7183 531.2495 304.6883 531.2495C322.7583 531.2495 333.4983 540.0395 342.7783 558.5895C360.3483 598.6295 396.9683 619.1395 449.7083 619.1395C504.8783 619.1395 547.3683 594.7295 547.3683 550.2895C547.3683 515.1395 526.8583 499.9995 467.2883 483.3995L394.0383 462.3995C315.9183 440.9195 274.8983 404.7895 274.8983 341.3095C274.8983 260.7395 346.6783 203.6095 450.1983 203.6095C535.1583 203.6095 595.6983 242.6795 614.7483 296.3895C618.1683 305.1795 619.6283 313.9695 619.6283 320.3095C619.6283 343.7495 604.4883 355.4695 583.9883 355.4695C564.4483 355.4695 553.7083 346.1895 546.8783 329.5895C529.2983 287.5995 497.5583 267.5795 446.7783 267.5795C393.5583 267.5795 358.8883 294.4295 358.8883 336.4295C358.8883 367.1895 378.9083 385.7395 427.2483 398.4395L494.6283 416.4995C583.0083 439.9395 631.8383 477.0495 631.8383 543.4595C631.8383 630.3695 557.6183 685.0595 444.8283 685.0595Z"/>
</svg>