<?xml version="1.0" encoding="UTF-8" standalone="no"?>
<svg xmlns="http://www.w3.org/2000/svg"
     width="1121.0776895500258" height="1248.046875"
     viewBox="0 0 1121.0776895500258 1248.046875"
     fill="currentColor">
  <path d="M4.1071 995.1213L38.2871 1110.8413C39.2571 1114.2613 40.2371 1117.1913 41.2171 1120.1213C69.5371 1118.6512 92.4871 1108.8912 126.6671 1084.9613C158.8871 1061.5213 211.6271 1022.9513 284.8671 1022.9513C349.3171 1022.9513 398.6371 1052.7313 435.7471 1080.0813C483.1071 1115.7213 494.3371 1122.0713 516.7971 1122.0713C539.2571 1122.0713 550.4871 1115.7213 597.8571 1080.0813C634.4771 1053.2213 684.7671 1022.9513 748.7371 1022.9513C821.9771 1022.9513 874.7071 1061.5213 907.4271 1084.9613C941.1171 1108.8912 966.5071 1119.6313 1002.6371 1120.6013L1105.1771 1004.8813C1139.8471 964.3513 1114.9471 910.1513 1058.3071 910.1513H534.3771V783.2013H706.7371C853.7171 783.2013 935.7471 708.0113 935.7471 586.4213C935.7471 384.7613 731.6471 157.7112 534.3771 49.3212V33.2012C534.3771 15.1413 519.7271 0.0013 501.6671 0.0013C483.5971 0.0013 468.4571 15.1413 468.4571 33.2012V62.9913C468.4571 230.4713 314.1671 532.7113 94.9271 691.4013C47.0771 726.0713 73.9271 783.2013 121.7771 783.2013H468.4571V910.1513H65.6271C12.8971 910.1513 -10.0529 946.2913 4.1071 995.1213ZM534.3771 701.6613V123.5313C612.9871 212.8913 646.6871 332.0313 646.6871 434.5713C646.6871 549.3213 605.1771 649.4113 534.3771 701.6613ZM3.6171 1213.3813C3.6171 1232.4212 19.2371 1248.0513 38.2871 1248.0513H40.7271C193.0671 1248.0513 205.7671 1148.9212 284.8671 1148.9212C362.5071 1148.9212 383.4971 1248.0513 516.7971 1248.0513C650.0971 1248.0513 671.0971 1148.9212 748.7371 1148.9212C827.8371 1148.9212 840.5271 1248.0513 992.8771 1248.0513H1042.6771C1061.7171 1248.0513 1076.8571 1232.4212 1076.8571 1213.3813C1076.8571 1194.3313 1061.7171 1179.2013 1042.6771 1179.2013H992.8771C940.6271 1179.2013 910.8471 1157.2313 874.2171 1131.3513C842.4871 1108.4012 802.9371 1080.0813 748.7371 1080.0813C692.5771 1080.0813 652.5471 1109.8613 620.8071 1133.7913C587.1171 1159.1813 560.7471 1179.2013 516.7971 1179.2013C472.8571 1179.2013 446.4871 1159.1813 412.7971 1133.7913C381.0571 1109.8613 341.0171 1080.0813 284.8671 1080.0813C230.6671 1080.0813 191.1171 1108.4012 159.3771 1131.3513C122.7571 1157.2313 92.9671 1179.2013 40.7271 1179.2013H38.2871C19.2371 1179.2013 3.6171 1194.3313 3.6171 1213.3813Z"/>
</svg>