<?xml version="1.0" encoding="UTF-8" standalone="no"?>
<svg xmlns="http://www.w3.org/2000/svg"
     width="996.09375" height="996.09375"
     viewBox="0 0 996.09375 996.09375"
     fill="currentColor">
  <path d="M498.0477 996.0977C770.5077 996.0977 996.0977 770.5077 996.0977 498.0477C996.0977 226.0777 770.0177 -0.0023 497.5577 -0.0023C225.5877 -0.0023 -0.0023 226.0777 -0.0023 498.0477C-0.0023 770.5077 226.0777 996.0977 498.0477 996.0977ZM309.0777 774.4177C280.2777 774.4177 263.6677 761.7177 257.3277 739.2577L235.3477 665.0377C228.0277 640.1377 240.2377 622.5577 263.6677 622.5577H469.2377V559.5677H295.4077C271.4877 559.5677 258.2977 531.2477 281.7377 513.6677C392.5777 434.0777 469.2377 282.7177 469.2377 198.2377V177.2477C469.2377 165.0377 479.0077 154.7877 491.6977 154.7877C504.3977 154.7877 515.1377 165.0377 515.1377 177.2477V202.1477C613.7677 257.3277 709.4777 363.7677 709.4777 455.5677C709.4777 519.5277 664.5477 559.5677 590.3277 559.5677H515.1377V622.5577H751.9577C779.2977 622.5577 791.5077 649.8977 774.8977 668.9477L698.2377 756.3477C687.0077 769.0477 674.3177 774.4177 657.2277 774.4177ZM514.6477 516.5977C552.7377 489.7477 570.3077 444.3377 570.3077 398.4377C570.3077 339.8477 544.9177 279.7877 514.6477 250.4877Z"/>
</svg>