<?xml version="1.0" encoding="UTF-8" standalone="no"?>
<svg xmlns="http://www.w3.org/2000/svg"
     width="1251.46484375" height="951.171875"
     viewBox="0 0 1251.46484375 951.171875"
     fill="currentColor">
  <path d="M196.2883 395.5048C287.5983 395.5048 302.2483 357.9148 342.7783 357.9148C352.0483 357.9148 358.8883 359.8648 371.0983 365.7248L453.6183 409.6648C463.8683 415.0348 472.1683 419.9248 478.5183 424.3148H481.4483C492.6783 383.3048 511.2283 356.9348 541.9883 337.4048V334.4748L431.1483 275.3948C396.4883 256.8348 393.5583 241.6948 393.5583 198.2448C393.5583 87.8948 305.6683 0.0048 196.2883 0.0048C87.3983 0.0048 -0.0017 88.3748 -0.0017 198.2448C-0.0017 307.6148 87.3983 395.5048 196.2883 395.5048ZM196.2883 315.9148C131.8383 315.9148 80.0783 262.6948 80.0783 198.2448C80.0783 132.3248 131.8383 80.0748 196.2883 80.0748C261.7183 80.0748 313.9683 132.3248 313.9683 198.2448C313.9683 262.6948 261.7183 315.9148 196.2883 315.9148ZM196.2883 951.1748C305.6683 951.1748 393.5583 863.2848 393.5583 752.9248C393.5583 712.4048 395.5083 696.2848 425.2883 680.1748L1251.4683 241.2148C1231.4483 167.9648 1151.8583 155.2748 1030.2783 198.7348L613.2783 348.6348C554.6883 369.6248 529.2983 398.4348 513.6683 452.6348L503.9083 488.2848C496.5783 513.6748 485.3483 526.3648 446.7783 545.8948L371.0983 585.9348C358.8883 592.2848 352.0483 594.2348 342.7783 594.2348C301.7583 594.2348 287.1083 556.1548 196.2883 556.1548C87.3983 556.1548 -0.0017 644.0448 -0.0017 752.9248C-0.0017 862.7948 87.3983 951.1748 196.2883 951.1748ZM624.0283 490.2348C602.5383 490.2348 583.4983 472.1648 583.4983 449.7048C583.4983 426.2648 602.5383 408.6948 624.0283 408.6948C646.9683 408.6948 666.0183 426.2648 666.0183 449.7048C666.0183 472.1648 646.9683 490.2348 624.0283 490.2348ZM1030.2783 753.9048C1152.8283 799.3148 1231.4483 784.6648 1251.4683 709.4748L854.0083 499.5148L652.3483 605.4648V611.3248ZM196.2883 871.0948C131.8383 871.0948 80.0783 818.8448 80.0783 752.9248C80.0783 688.4748 131.8383 635.7448 196.2883 635.7448C261.7183 635.7448 313.9683 688.4748 313.9683 752.9248C313.9683 818.8448 261.7183 871.0948 196.2883 871.0948Z"/>
</svg>