<?xml version="1.0" encoding="UTF-8" standalone="no"?>
<svg xmlns="http://www.w3.org/2000/svg"
     width="996.09375" height="996.09375"
     viewBox="0 0 996.09375 996.09375"
     fill="currentColor">
  <path d="M498.0477 996.0977C770.5077 996.0977 996.0977 770.5077 996.0977 498.0477C996.0977 226.0777 770.0177 -0.0023 497.5577 -0.0023C225.5877 -0.0023 -0.0023 226.0777 -0.0023 498.0477C-0.0023 770.5077 226.0777 996.0977 498.0477 996.0977ZM460.9377 424.8077C446.7777 435.5477 436.5277 449.2177 429.6877 467.7777L386.7177 445.7977C381.3477 442.8677 377.9277 441.8977 374.0277 441.8977C354.0077 441.8977 346.6777 459.4677 302.7377 459.4677C249.5077 459.4677 207.0277 417.4777 207.0277 364.2577C207.0277 311.0377 249.5077 268.0677 302.7377 268.0677C355.9577 268.0677 398.4377 310.5477 398.4377 364.2577C398.4377 385.2577 399.8977 391.5977 416.0177 400.8777ZM302.7377 420.4077C333.9877 420.4077 359.3777 395.5077 359.3777 364.2577C359.3777 332.5177 333.9877 307.6177 302.7377 307.6177C271.9777 307.6177 246.5777 332.5177 246.5777 364.2577C246.5777 395.5077 271.9777 420.4077 302.7377 420.4077ZM302.7377 728.0277C249.5077 728.0277 207.0277 685.0577 207.0277 631.8377C207.0277 579.0977 249.5077 536.6177 302.7377 536.6177C346.6777 536.6177 354.0077 554.6877 374.0277 554.6877C377.9277 554.6877 381.3477 553.7077 386.7177 551.2677L423.8277 531.2477C441.8977 521.4877 447.7577 516.1177 450.6877 503.9077L455.5677 486.8177C462.3977 460.9377 476.0777 446.7777 503.9077 436.0377L705.5677 363.7677C766.1177 341.7977 803.7077 349.6077 812.9877 385.2577L413.0877 597.1677C399.4177 604.4877 398.4377 611.8177 398.4377 631.8377C398.4377 685.5477 355.9577 728.0277 302.7377 728.0277ZM509.2777 504.3977C519.5277 504.3977 528.8077 496.0977 528.8077 485.3477C528.8077 474.6077 519.5277 466.7977 509.2777 466.7977C499.0277 466.7977 490.2377 474.6077 490.2377 485.3477C490.2377 496.0977 499.0277 504.3977 509.2777 504.3977ZM533.2077 568.3577L632.3277 516.1177L812.9877 611.3277C803.7077 647.4577 765.6277 655.7577 705.5677 632.8077ZM302.7377 688.4777C333.9877 688.4777 359.3777 663.5777 359.3777 631.8377C359.3777 600.5877 333.9877 575.6877 302.7377 575.6877C271.9777 575.6877 246.5777 600.5877 246.5777 631.8377C246.5777 663.5777 271.9777 688.4777 302.7377 688.4777Z"/>
</svg>