<?xml version="1.0" encoding="UTF-8" standalone="no"?>
<svg xmlns="http://www.w3.org/2000/svg"
     width="821.2890625" height="1046.875"
     viewBox="0 0 821.2890625 1046.875"
     fill="currentColor">
  <path d="M151.3683 1046.8783H669.9183C770.9983 1046.8783 821.2883 996.0983 821.2883 894.0383V153.3183C821.2883 51.7583 770.5083 -0.0017 669.9183 -0.0017H343.7483C299.8083 -0.0017 271.9683 10.7383 243.6483 39.5483L36.1283 246.5783C8.7883 274.4183 -0.0017 298.3383 -0.0017 346.6783V894.0383C-0.0017 995.6083 50.2883 1046.8783 151.3683 1046.8783ZM312.0083 198.2383C312.0083 180.1783 326.1683 166.0183 344.2383 166.0183C361.8183 166.0183 375.4883 179.6883 375.4883 198.2383V356.9383C375.4883 374.9983 361.8183 389.1583 344.2383 389.1583C326.1683 389.1583 312.0083 374.9983 312.0083 356.9383ZM415.0383 198.2383C415.0383 180.1783 429.1983 166.0183 447.7583 166.0183C465.3283 166.0183 479.4883 180.1783 479.4883 198.2383V356.9383C479.4883 374.9983 464.8483 389.1583 447.7583 389.1583C429.6883 389.1583 415.0383 374.9983 415.0383 356.9383ZM519.0383 198.2383C519.0383 180.1783 533.1983 166.0183 550.7783 166.0183C568.8483 166.0183 582.5183 179.6883 582.5183 198.2383L583.0083 356.9383C583.0083 374.5083 568.3583 389.1583 550.7783 389.1583C533.6883 389.1583 519.0383 374.9983 519.0383 356.9383ZM623.0483 198.2383C623.0483 180.1783 636.7183 166.0183 654.7883 166.0183C672.3683 166.0183 686.0383 179.6883 686.0383 198.2383V356.4483C686.0383 374.9983 672.3683 389.1583 654.7883 389.1583C637.2083 389.1583 623.0483 374.9983 623.0483 356.4483Z"/>
</svg>