<?xml version="1.0" encoding="UTF-8" standalone="no"?>
<svg xmlns="http://www.w3.org/2000/svg"
     width="821.2890625" height="1046.875"
     viewBox="0 0 821.2890625 1046.875"
     fill="currentColor">
  <path d="M151.3683 1046.8783H669.9183C770.9983 1046.8783 821.2883 996.0983 821.2883 894.0383V153.3183C821.2883 51.7583 770.5083 -0.0017 669.9183 -0.0017H343.7483C299.8083 -0.0017 271.9683 10.7383 243.6483 39.5483L36.1283 246.5783C8.7883 274.4183 -0.0017 298.3383 -0.0017 346.6783V894.0383C-0.0017 995.6083 50.2883 1046.8783 151.3683 1046.8783ZM155.2783 968.2583C104.4883 968.2583 78.6183 941.4083 78.6183 892.5783V352.5383C78.6183 320.7983 83.9883 305.1783 101.0783 288.0883L282.7183 104.4883C300.2883 85.9383 318.8483 78.6083 346.6783 78.6083H666.0183C716.7983 78.6083 742.6783 106.4483 742.6783 154.7883V892.5783C742.6783 941.4083 716.7983 968.2583 666.5083 968.2583ZM300.2883 200.6883V354.4883C300.2883 372.0683 314.4483 385.7383 331.5383 385.7383C348.6283 385.7383 361.8183 372.0683 361.8183 354.4883V200.6883C361.8183 182.6183 348.6283 169.4383 331.5383 169.4383C314.4483 169.4383 300.2883 183.1083 300.2883 200.6883ZM400.3883 200.6883V354.4883C400.3883 372.0683 414.5483 385.7383 432.1283 385.7383C448.7283 385.7383 462.3983 372.0683 462.3983 354.4883V200.6883C462.3983 183.1083 449.2183 169.4383 432.1283 169.4383C414.0583 169.4383 400.3883 183.1083 400.3883 200.6883ZM501.4683 200.6883V354.4883C501.4683 372.0683 515.1383 385.7383 531.7383 385.7383C548.8283 385.7383 562.4983 371.5783 562.4983 354.4883V200.6883C562.4983 182.6183 549.3183 169.4383 531.7383 169.4383C514.6483 169.4383 501.4683 183.1083 501.4683 200.6883ZM602.0483 200.6883V354.0083C602.0483 372.0683 615.7183 385.7383 632.3283 385.7383C649.4183 385.7383 663.0883 372.0683 663.0883 354.0083V200.6883C663.0883 182.6183 649.4183 169.4383 632.3283 169.4383C615.2383 169.4383 602.0483 183.1083 602.0483 200.6883Z"/>
</svg>