<?xml version="1.0" encoding="UTF-8" standalone="no"?>
<svg xmlns="http://www.w3.org/2000/svg"
     width="1109.2532915531885" height="1109.2532915531885"
     viewBox="0 0 1109.2532915531885 1109.2532915531885"
     fill="currentColor">
  <path d="M258.7268 977.9657H364.6868C374.4468 977.9657 381.7768 980.8957 389.0968 988.2157L464.2968 1062.9257C525.8168 1124.9357 582.9468 1124.4557 644.4668 1062.9257L719.6668 988.2157C727.4768 980.8957 734.3168 977.9657 744.5668 977.9657H850.0368C937.4368 977.9657 977.9668 937.9257 977.9668 850.0357V744.5657C977.9668 734.3157 980.8968 727.4757 988.2168 719.6657L1062.9268 644.4657C1124.9368 582.9457 1124.4468 525.8157 1062.9268 464.2957L988.2168 389.0957C980.8968 381.7757 977.9668 374.4557 977.9668 364.6857V258.7257C977.9668 171.8157 937.9268 130.7957 850.0368 130.7957H744.5668C734.3168 130.7957 727.4768 128.3557 719.6668 121.0357L644.4668 46.3257C582.9468 -15.6843 525.8168 -15.1943 464.2968 46.3257L389.0968 121.0357C381.7768 128.3557 374.4468 130.7957 364.6868 130.7957H258.7268C171.3268 130.7957 130.7968 170.8357 130.7968 258.7257V364.6857C130.7968 374.4557 128.3568 381.7757 121.0368 389.0957L46.3268 464.2957C-15.6832 525.8157 -15.1932 582.9457 46.3268 644.4657L121.0368 719.6657C128.3568 727.4757 130.7968 734.3157 130.7968 744.5657V850.0357C130.7968 937.4357 171.3268 977.9657 258.7268 977.9657Z"/>
</svg>