<?xml version="1.0" encoding="UTF-8" standalone="no"?>
<svg xmlns="http://www.w3.org/2000/svg"
     width="797.36328125" height="1270.5078125"
     viewBox="0 0 797.36328125 1270.5078125"
     fill="currentColor">
  <path d="M187.9883 980.4694H672.8483V1109.3794C645.5083 1123.5394 626.4683 1152.3394 626.4683 1185.0594C626.4683 1232.4194 665.0383 1270.5094 711.9183 1270.5094C759.2783 1270.5094 797.3683 1232.4194 797.3683 1185.0594C797.3683 1152.3394 778.8083 1123.5394 751.4683 1109.3794V423.8294C751.4683 334.4694 705.5683 290.0394 615.7183 290.0394H125.4883V160.6494C152.3483 146.4794 170.8983 118.1594 170.8983 85.4494C170.8983 38.5694 132.8083 -0.0006 85.4483 -0.0006C38.5783 -0.0006 -0.0017 38.5694 -0.0017 85.4494C-0.0017 118.6494 19.0383 147.4594 46.8783 161.6194V841.7994C46.8783 934.0794 94.2383 980.4694 187.9883 980.4694ZM186.5283 906.7394C145.9983 906.7394 125.4883 884.2794 125.4883 845.2194V363.7694H611.8183C652.3483 363.7694 672.8483 386.2294 672.8483 425.2894V906.7394Z"/>
</svg>