<?xml version="1.0" encoding="UTF-8" standalone="no"?>
<svg xmlns="http://www.w3.org/2000/svg"
     width="674.8046875" height="753.1919299004261"
     viewBox="0 0 674.8046875 753.1919299004261"
     fill="currentColor">
  <path d="M45.8983 306.1513H206.0583V109.8613C206.0583 63.9612 185.0583 42.4813 143.5583 31.2513L26.8583 0.0013C38.5783 7.8112 45.8983 20.5113 45.8983 38.0812ZM468.7483 716.3113L591.7983 749.0213C643.5583 763.1813 674.8083 740.7213 674.8083 689.9413V109.8613C674.8083 63.9612 653.3183 41.9913 611.8183 30.7613L495.6083 0.0013C507.3283 7.8112 514.6483 20.5113 514.6483 38.0812V670.9013C514.6483 698.7313 496.5783 716.3113 468.7483 716.3113ZM-0.0017 716.3113L123.0483 749.0213C174.8083 763.1813 206.0583 740.7213 206.0583 689.9413V523.4413H424.3183V387.2113H45.8983V670.9013C45.8983 698.7313 27.8283 716.3113 -0.0017 716.3113Z"/>
</svg>