<?xml version="1.0" encoding="UTF-8" standalone="no"?>
<svg xmlns="http://www.w3.org/2000/svg"
     width="1205.078125" height="1044.1291683001918"
     viewBox="0 0 1205.078125 1044.1291683001918"
     fill="currentColor">
  <path d="M1062.0083 1033.1469C1076.6583 1047.7869 1100.5883 1047.7869 1115.2383 1033.1469C1129.3983 1018.0069 1129.8783 995.0569 1115.2383 979.9169L147.4583 11.1669C132.3283 -3.9631 108.8883 -3.4831 93.7483 11.1669C79.5883 25.3269 79.5883 50.2369 93.7483 64.3969ZM478.0283 263.1269C515.6283 222.5969 566.8983 194.7669 624.5083 190.8569V122.9869C624.5083 77.5769 601.0783 54.6269 554.1983 54.6269H269.0383ZM129.8783 179.6269V360.2869C129.8783 406.1869 153.3183 428.6469 199.7083 428.6469H378.9083ZM760.7383 545.8369C785.6483 515.5669 800.7783 474.5469 800.7783 429.6269C800.7783 330.5069 726.0783 256.7769 640.1383 256.7769C595.6983 256.7769 554.6883 277.7669 525.3883 310.4869ZM990.7183 688.4169H1134.7683C1181.6383 688.4169 1205.0783 665.4669 1205.0783 620.0569V335.3869C1205.0783 289.9769 1181.6383 267.0269 1134.7683 267.0269H990.7183C944.3383 267.0269 920.8983 289.9769 920.8983 335.3869V620.0569C920.8983 665.4669 944.3383 688.4169 990.7183 688.4169ZM69.8283 781.1869H168.4583C214.8483 781.1869 238.2783 758.2369 238.2783 712.3469V611.2669C238.2783 565.8569 214.8483 542.9069 168.4583 542.9069H69.8283C23.4383 542.9069 -0.0017 565.3669 -0.0017 611.2669V712.3469C-0.0017 758.2369 23.4383 781.1869 69.8283 781.1869ZM628.9083 679.1369C440.9183 686.4669 301.2683 814.3969 301.2683 926.6969C301.2683 959.8969 327.1483 979.9169 370.1183 979.9169H909.6683C916.0183 979.9169 921.8783 979.4369 927.7383 978.4569Z"/>
</svg>