<?xml version="1.0" encoding="UTF-8" standalone="no"?>
<svg xmlns="http://www.w3.org/2000/svg"
     width="996.09375" height="996.09375"
     viewBox="0 0 996.09375 996.09375"
     fill="currentColor">
  <path d="M498.0477 996.0959C770.5077 996.0959 996.0977 770.0159 996.0977 498.0459C996.0977 225.5859 770.0177 -0.0041 497.5577 -0.0041C225.5877 -0.0041 -0.0023 225.5859 -0.0023 498.0459C-0.0023 770.0159 226.0777 996.0959 498.0477 996.0959ZM498.0477 913.0859C267.5777 913.0859 83.4977 728.5159 83.4977 498.0459C83.4977 267.5759 267.0877 83.0059 497.5577 83.0059C728.0277 83.0059 913.0877 267.5759 913.0877 498.0459C913.0877 728.5159 728.5177 913.0859 498.0477 913.0859ZM459.4777 292.9659C479.4877 272.9459 479.9777 242.6759 459.9577 223.1459C441.4077 203.6159 410.1577 202.1459 390.1377 220.7059C387.6977 224.6059 314.9377 293.4559 274.4177 338.3759C237.3077 378.4159 219.2377 430.1759 222.6577 482.9059C226.0777 538.0859 251.9577 588.8659 295.4077 625.9759C330.0777 656.2459 375.9777 671.3859 421.8777 671.3859C469.7277 671.3859 516.5977 655.7659 552.2477 622.5559C578.1277 600.0959 607.4177 568.3559 608.3977 567.8759C626.9577 547.3659 625.4877 516.1159 605.9577 498.0459C585.9377 478.5159 554.1977 479.9759 536.1377 500.4859C535.1577 500.4859 509.2777 529.7859 486.3277 549.8059C449.2177 582.5159 390.1377 577.1459 359.3777 551.7559C336.9177 531.2459 324.2177 505.3759 322.2677 477.5359C319.8277 450.6859 329.5877 425.2959 347.6577 405.7659C385.2577 362.7959 458.4977 293.4559 459.4777 292.9659ZM536.1377 713.3759C516.1177 733.3959 515.6277 764.1559 535.1577 783.2059C554.1977 803.2259 584.9577 804.6859 604.9777 786.1359C608.3977 782.2259 680.6677 712.8859 721.1877 667.9659C757.8077 628.4159 775.8777 577.1459 772.9477 523.4359C769.5277 468.7459 743.6477 417.4759 701.1677 380.8559C665.0377 350.0959 619.6277 335.4459 573.2377 335.4459C525.3877 335.4459 479.4877 351.0759 442.8677 383.7859C416.9877 406.2459 387.6977 437.9859 387.2077 438.9659C368.1677 459.9559 369.6277 491.2059 389.6477 508.7859C409.6677 527.8359 441.4077 526.8559 459.4777 506.8359C459.9577 505.8559 486.3277 476.0759 509.2777 457.0359C545.8977 423.8259 604.9777 430.1759 635.7377 455.0759C658.2077 475.5859 671.3877 500.9759 672.8477 529.7859C675.7777 556.1559 665.5277 581.5459 647.4577 602.0459C610.3477 644.0459 536.6177 712.8859 536.1377 713.3759Z"/>
</svg>