<?xml version="1.0" encoding="UTF-8" standalone="no"?>
<svg xmlns="http://www.w3.org/2000/svg"
     width="898.92578125" height="898.92578125"
     viewBox="0 0 898.92578125 898.92578125"
     fill="currentColor">
  <path d="M153.3183 898.9295H745.6083C848.1483 898.9295 898.9283 848.1495 898.9283 747.5595V151.3695C898.9283 50.7795 848.1483 -0.0005 745.6083 -0.0005H153.3183C51.2683 -0.0005 -0.0017 50.2895 -0.0017 151.3695V747.5595C-0.0017 848.6295 51.2683 898.9295 153.3183 898.9295ZM154.2983 820.3095C105.4683 820.3095 78.6183 794.4295 78.6183 743.6495V155.2695C78.6183 104.4895 105.4683 78.6095 154.2983 78.6095H744.6283C792.9683 78.6095 820.3083 104.4895 820.3083 155.2695V743.6495C820.3083 794.4295 792.9683 820.3095 744.6283 820.3095ZM363.7683 649.8995C363.7683 672.8495 377.9283 687.4995 401.3683 687.4995H502.4383C585.4483 687.4995 621.0983 648.9295 621.0983 551.2695V251.4695C621.0983 233.8895 609.8683 221.6795 592.2883 221.6795C574.7083 221.6795 562.9883 233.3995 562.9883 251.4695V551.2695C562.9883 613.7695 545.4083 624.5095 490.7183 624.5095H421.8783V381.8395C421.8783 363.2795 410.1583 352.0495 393.5583 352.0495C375.9783 352.0495 363.7683 363.2795 363.7683 381.8395ZM262.6983 663.0895C262.6983 680.6595 275.8783 692.8695 292.9683 692.8695C310.0583 692.8695 321.2883 680.1795 321.2883 662.5995V289.0595H386.2283C439.4483 289.0595 462.8883 305.1795 462.8883 361.3295V531.2495C462.8883 549.8095 475.0983 561.5195 492.1883 561.5195C509.2783 561.5195 520.9983 549.8095 520.9983 531.2495V353.0295C520.9983 265.1395 481.4483 226.5595 400.3883 226.5595H301.2683C278.3183 226.5595 262.6983 241.6995 262.6983 264.6495Z"/>
</svg>