<?xml version="1.0" encoding="UTF-8" standalone="no"?>
<svg xmlns="http://www.w3.org/2000/svg"
     width="987.1223577904726" height="998.291015625"
     viewBox="0 0 987.1223577904726 998.291015625"
     fill="currentColor">
  <path d="M922.9104 975.3424C937.5604 989.9924 961.9804 989.9924 976.1404 975.3424C990.7804 960.6924 990.7804 936.7724 976.1404 922.1224L64.5104 10.9824C49.8704 -3.6576 25.9404 -3.6576 10.8004 10.9824C-3.8396 25.1424 -3.3596 49.5624 10.8004 64.2124ZM883.3604 746.8224C912.6604 702.3924 924.8704 653.0724 924.8704 588.6224V215.0924C924.8704 163.8224 902.8904 147.7024 861.3904 130.1224C803.7704 106.2024 617.7404 39.3024 560.1204 19.2824C546.9404 14.8924 532.7804 11.9624 519.1004 11.9624C505.4304 11.9624 491.2704 15.8724 478.5804 19.2824C433.6604 33.4424 324.2804 73.0024 241.7604 104.7324L302.8004 166.2624C369.6904 141.3524 451.7204 112.0624 499.5704 94.9724C507.3904 91.5524 513.7304 90.5724 519.1004 90.5724C524.4804 90.5724 530.8204 92.0424 538.6404 94.9724C613.3404 121.8224 755.4304 176.0224 831.1204 201.9024C844.3004 206.7824 847.2304 213.6224 847.2304 230.2224V570.5524C847.2304 617.9224 839.9104 654.5424 822.3304 685.7924ZM113.3404 588.6224C113.3404 766.8424 209.0504 832.2724 486.3904 988.5224C499.0804 995.3624 511.2904 998.2924 519.1004 998.2924C526.9204 998.2924 539.6104 995.3624 551.8204 988.5224C628.4804 945.5524 690.4904 909.4224 740.7804 876.2224L681.2104 816.1624C644.5904 840.0924 601.1404 865.9624 549.3804 898.1924C535.2204 906.9824 526.9204 909.9124 519.1004 909.9124C511.2904 909.9124 503.4804 906.9824 488.8304 898.1924C263.2504 761.4724 190.9804 721.4324 190.9804 570.5524V325.9324L113.3404 248.7824Z"/>
</svg>