<?xml version="1.0" encoding="UTF-8" standalone="no"?>
<svg xmlns="http://www.w3.org/2000/svg"
     width="987.3046875" height="998.291015625"
     viewBox="0 0 987.3046875 998.291015625"
     fill="currentColor">
  <path d="M923.0959 975.3424C937.7459 989.9924 961.6659 989.9924 976.3159 975.3424C990.9659 960.6924 990.9659 936.7724 976.3159 922.1224L64.6959 10.9824C50.0459 -3.6576 25.6359 -3.6576 10.9859 10.9824C-3.6641 25.1424 -3.6641 49.5624 10.9859 64.2124ZM885.4959 746.8224C914.7959 702.3924 927.0059 653.0724 927.0059 588.6224V215.0924C927.0059 163.8224 905.0259 147.7024 863.5259 130.1224C805.9059 106.2024 619.8759 39.3024 562.2559 19.2824C549.0759 14.8924 534.9159 11.9624 521.2359 11.9624C507.5659 11.9624 493.4059 15.8724 480.7159 19.2824C435.7959 32.9624 327.3959 72.5124 243.8959 104.7324L521.7259 382.5724V90.5724C527.0959 90.5724 532.9559 92.0424 540.7759 94.9724C614.5059 124.2724 757.5659 176.0224 833.2559 201.9024C846.4359 206.7824 849.3659 213.6224 849.3659 230.2224V570.5524C849.3659 617.4324 842.0459 653.5624 824.4659 685.3024ZM115.4759 248.7824V588.6224C115.4759 766.8424 211.6659 832.2724 488.5259 988.5224C501.2159 995.3624 513.4259 998.2924 521.2359 998.2924C529.0559 998.2924 541.7459 995.3624 553.9559 988.5224C630.6159 945.5524 692.6259 909.4224 742.9159 876.7124L683.3459 816.6524C646.7259 840.0924 603.2759 865.9624 551.5159 898.1924C537.8459 906.9824 529.5459 909.9124 521.7259 909.9124V655.0324Z"/>
</svg>