<?xml version="1.0" encoding="UTF-8" standalone="no"?>
<svg xmlns="http://www.w3.org/2000/svg"
     width="811.5234375" height="986.328125"
     viewBox="0 0 811.5234375 986.328125"
     fill="currentColor">
  <path d="M-0.0027 576.6595C-0.0027 754.8795 95.7073 820.3095 373.0473 976.5595C385.7373 983.3995 397.9473 986.3295 405.7573 986.3295C413.5773 986.3295 426.2673 983.3995 438.4773 976.5595C716.3073 820.7995 811.5273 754.8795 811.5273 576.6595V203.1295C811.5273 151.8595 789.5473 135.7395 748.0473 118.1595C690.4273 94.2395 504.3973 27.3395 446.7773 7.3195C433.5973 2.9295 419.4373 -0.0005 405.7573 -0.0005C392.0873 -0.0005 377.9273 3.9095 365.2373 7.3195C307.6173 23.9295 121.0973 94.7295 63.4773 118.1595C22.4573 135.2495 -0.0027 151.8595 -0.0027 203.1295ZM416.0173 895.9995V80.0795C418.4573 80.5695 421.3873 81.5395 425.2973 83.0095C499.0273 112.3095 642.0873 164.0595 717.7773 189.9395C730.9573 194.8195 733.8873 201.6595 733.8873 218.2595V558.5895C733.8873 709.4695 661.6173 749.0195 436.0373 886.2295C428.7073 891.1095 421.8773 894.5295 416.0173 895.9995Z"/>
</svg>