<?xml version="1.0" encoding="UTF-8" standalone="no"?>
<svg xmlns="http://www.w3.org/2000/svg"
     width="1418.45703125" height="1065.185546875"
     viewBox="0 0 1418.45703125 1065.185546875"
     fill="currentColor">
  <path d="M432.6206 676.027V714.597C432.6206 784.427 456.5406 810.307 500.9806 835.697L885.2506 1053.467C912.6006 1069.087 938.4806 1069.087 966.3106 1053.467L1350.1006 835.697C1395.0206 810.307 1418.4606 784.427 1418.4606 714.597V327.877C1418.4606 277.097 1399.9006 245.357 1358.8906 221.927L1013.1806 25.637C954.1006 -8.543 896.9706 -8.543 837.8906 25.637L492.6806 221.927C451.1706 245.357 432.6206 277.097 432.6206 327.877V490.477H506.8406V343.507L887.2106 560.787V966.067L544.9206 771.237C516.6006 755.617 506.8406 739.017 506.8406 712.157V676.027ZM1155.2706 362.547L776.8506 148.677L870.6006 95.457C908.2006 73.977 942.8706 73.487 980.9606 95.457L1302.7306 279.057ZM925.7806 492.427L548.8306 279.057L699.7106 192.627L1076.6606 406.987ZM617.6806 583.247C617.6806 557.857 599.6106 539.797 574.7106 539.797H246.5806L127.4406 543.697L229.4906 450.927L296.8706 391.357C307.6206 382.077 311.0306 369.877 311.0306 358.157C311.0306 333.737 292.4806 316.167 268.0706 316.167C256.8406 316.167 246.5806 320.067 236.8206 329.347L15.1406 550.537C5.3706 559.817 0.0006 571.047 0.0006 583.247C0.0006 595.457 5.3706 606.687 15.1406 615.967L235.3506 835.697C246.0906 846.437 256.8406 850.337 268.0706 850.337C292.4806 850.337 311.0306 832.767 311.0306 808.347C311.0306 796.627 308.1006 784.427 296.8706 775.147L229.4906 715.577L127.4406 622.807L246.5806 626.707H574.7106C599.6106 626.707 617.6806 608.647 617.6806 583.247ZM1306.6406 771.237L963.8706 966.067V560.787L1344.2406 343.507V712.157C1344.2406 739.017 1334.4706 755.617 1306.6406 771.237Z"/>
</svg>