<?xml version="1.0" encoding="UTF-8" standalone="no"?>
<svg xmlns="http://www.w3.org/2000/svg"
     width="904.9198892632894" height="1119.4911834867473"
     viewBox="0 0 904.9198892632894 1119.4911834867473"
     fill="currentColor">
  <path d="M201.6583 -0.0033C96.1883 -0.0033 -0.0017 160.6467 -0.0017 285.1567C-0.0017 344.7267 20.0183 461.9167 66.8983 556.1567H336.9183C383.2983 461.9167 403.8083 344.7267 403.8083 285.1567C403.8083 160.6467 307.6183 -0.0033 201.6583 -0.0033ZM794.9183 320.7967C695.3083 284.6667 550.7783 402.3467 507.8083 519.5267C487.7883 575.6867 466.3083 692.8667 477.5383 797.3667L731.4483 889.6467C807.6183 816.8967 866.6983 714.3567 887.2083 657.2267C929.6883 540.5267 894.5283 357.4267 794.9183 320.7967ZM202.1483 843.2567C278.3183 843.2567 319.3383 767.5767 319.3383 660.1567C319.3383 649.9067 318.3583 634.7667 316.4083 623.0467H87.8883C85.9383 634.7667 84.9583 649.9067 84.9583 660.1567C84.9583 767.5767 125.9783 843.2567 202.1483 843.2567ZM506.8383 1113.2767C578.6183 1139.1567 643.0683 1082.0267 679.6883 981.4467C683.1083 971.6767 687.0083 957.0267 689.9383 945.3167L475.0983 866.6967C469.2383 877.4367 462.8883 891.1167 459.4683 900.8767C422.8483 1001.9567 435.5483 1086.9167 506.8383 1113.2767Z"/>
</svg>