<?xml version="1.0" encoding="UTF-8" standalone="no"?>
<svg xmlns="http://www.w3.org/2000/svg"
     width="1150.390625" height="671.9202907190199"
     viewBox="0 0 1150.390625 671.9202907190199"
     fill="currentColor">
  <path d="M1115.7183 19.0692C1106.4483 1.4892 1085.4483 -4.8608 1067.8683 3.9292C1049.8083 13.2092 1042.9683 34.1992 1052.2483 52.2692C1061.5283 69.8492 1082.5183 77.1692 1100.5883 67.8892C1118.6483 58.6192 1124.9983 36.6392 1115.7183 19.0692ZM90.3283 542.0192C153.3183 542.0192 193.3583 508.3192 204.0983 446.7992H269.5283C276.3683 563.4992 354.0083 635.7692 474.6083 635.7692H582.5183C625.9783 635.7692 653.8083 607.9292 653.8083 564.4792V551.7792H656.2483C714.3583 551.7792 750.9783 510.7692 750.9783 445.3392V227.0692C750.9783 160.6692 714.3583 120.1392 656.2483 120.1392H653.8083V107.4492C653.8083 63.9892 625.9783 36.1592 582.5183 36.1592H474.6083C355.4683 36.1592 278.3183 106.4692 269.5283 220.2392H203.1283C190.9183 162.1292 151.8583 129.9092 90.3283 129.9092H45.4083C16.5983 129.9092 -0.0017 146.5092 -0.0017 175.3192V496.6092C-0.0017 525.4092 16.5983 542.0192 45.4083 542.0192ZM998.0483 81.0792C988.7683 63.4992 966.7983 56.6592 949.2183 65.9392C931.6383 75.2192 925.2883 96.6992 934.0783 114.2792C943.3583 131.3692 964.3583 138.6992 982.4183 129.9092C999.9983 120.6292 1007.3283 98.6592 998.0483 81.0792ZM569.3383 566.9192H474.6083C390.6283 566.9192 337.8883 513.6992 337.8883 430.1992V242.2092C337.8883 158.2292 390.6283 105.4892 474.6083 105.4892H569.3383C578.6183 105.4892 584.9583 111.3492 584.9583 120.6292V551.7792C584.9583 560.5692 578.6183 566.9192 569.3383 566.9192ZM879.3983 142.5992C870.1183 125.5092 848.6283 118.6792 831.0583 127.9492C812.9883 137.2292 806.1483 158.2292 815.4283 175.7992C825.1983 194.3592 846.1883 200.7092 864.2583 191.4292C881.8383 182.1492 888.6683 160.6692 879.3983 142.5992ZM90.3283 480.9792H69.3383C64.4483 480.9792 61.0383 477.5592 61.0383 472.1892V199.7292C61.0383 194.3592 64.4483 190.9392 69.3383 190.9392H90.3283C126.4683 190.9392 146.4883 216.8192 146.4883 262.7192V409.1992C146.4883 455.0992 126.4683 480.9792 90.3283 480.9792ZM207.5183 377.9492V289.0892H269.0383V377.9492ZM883.2983 335.4692C883.2983 315.4492 867.1883 299.8292 847.1683 299.8292C827.1483 299.8292 811.5283 315.4492 811.5283 335.4692C811.5283 355.4892 827.1483 371.6092 847.1683 371.6092C867.1883 371.6092 883.2983 355.4892 883.2983 335.4692ZM1016.5983 335.4692C1016.5983 315.4492 1000.4883 299.8292 980.4683 299.8292C960.4483 299.8292 944.8283 315.4492 944.8283 335.4692C944.8283 355.4892 960.4483 371.6092 980.4683 371.6092C1000.4883 371.6092 1016.5983 355.4892 1016.5983 335.4692ZM1150.3883 335.4692C1150.3883 315.4492 1134.2783 299.8292 1114.2583 299.8292C1094.2383 299.8292 1078.6183 315.4492 1078.6183 335.4692C1078.6183 355.4892 1094.2383 371.6092 1114.2583 371.6092C1134.2783 371.6092 1150.3883 355.4892 1150.3883 335.4692ZM879.3983 528.8292C888.6683 511.2492 881.8383 489.7692 864.2583 479.9992C846.1883 470.7292 825.1983 477.5592 815.4283 495.6292C806.1483 513.6992 812.9883 534.1992 831.0583 543.9692C848.6283 553.2492 870.1183 546.4092 879.3983 528.8292ZM998.0483 590.8392C1007.3283 572.7792 999.9983 551.2892 982.4183 542.0192C964.3583 533.2292 943.3583 540.0592 934.0783 557.6392C925.2883 575.2192 931.6383 596.6992 949.2183 605.9792C966.7983 615.2592 988.7683 608.4192 998.0483 590.8392ZM1115.7183 652.8592C1124.9983 635.2792 1118.6483 613.2992 1100.5883 604.0292C1082.5183 594.7492 1061.5283 602.0692 1052.2483 619.6492C1042.9683 637.2292 1049.8083 658.7092 1067.8683 667.9892C1085.4483 676.7792 1106.4483 670.4292 1115.7183 652.8592Z"/>
</svg>