<?xml version="1.0" encoding="UTF-8" standalone="no"?>
<svg xmlns="http://www.w3.org/2000/svg"
     width="1118.0598443932913" height="1059.806973805989"
     viewBox="0 0 1118.0598443932913 1059.806973805989"
     fill="currentColor">
  <path d="M691.41 23.1846L688.96 29.5346C583.01 -7.0854 480.96 10.0046 407.71 74.4546L398.93 71.0346C338.87 49.5546 280.76 82.2646 254.88 152.5846L42.97 735.1046C28.32 775.1346 41.5 815.6646 73.73 839.1046L0 1041.7446L50.78 1059.8046L124.51 857.6546C164.06 860.5846 199.22 837.6346 213.87 798.0846L355.96 409.4146C386.72 464.1046 438.48 510.0046 506.35 532.4646L504.39 538.3246C497.56 556.3846 506.84 576.4046 525.39 583.2446C543.46 590.0846 563.48 580.3146 570.31 562.7346L757.81 47.6046C764.16 29.0446 754.88 9.0246 736.82 2.1946C718.26 -4.6454 697.75 5.1146 691.41 23.1846ZM117.19 791.2546C103.03 785.3946 93.75 771.2346 100.59 753.1646L312.01 173.0846C324.22 138.4246 361.33 121.3346 395.51 133.5346L423.83 143.7946C482.42 75.4346 570.8 55.4146 667.48 88.1246L527.83 473.3846C434.08 437.2446 379.39 368.4046 376.95 280.0246L357.91 273.1846C349.61 269.7646 339.84 274.1646 336.91 282.9546L158.69 771.7246C151.37 791.7446 132.81 797.1146 117.19 791.2546ZM1117.68 132.0746C1114.26 112.0546 1097.17 97.8946 1077.64 100.3346C1057.62 102.2846 1043.95 121.8146 1046.88 140.3746C1049.32 160.3946 1066.89 174.0646 1086.43 171.6246C1106.45 169.6746 1120.61 150.6246 1117.68 132.0746ZM985.35 149.1646C983.4 129.1446 964.36 115.4746 944.82 117.9146C925.78 121.3346 911.13 138.9046 913.57 159.4146C916.5 177.4846 934.57 191.6446 954.59 189.6946C974.12 186.7646 988.28 168.6946 985.35 149.1646ZM853.52 166.7446C849.61 146.7246 833.01 134.5146 812.5 136.9546C791.99 140.3746 778.32 155.9946 781.25 176.0146C783.69 196.0346 801.27 209.2246 821.78 207.2646C842.29 204.3346 855.47 186.7646 853.52 166.7446ZM791.99 345.4546C798.83 327.3846 788.57 306.8746 770.02 300.0446C751.46 293.2046 730.47 301.9946 723.63 321.0346C716.8 340.5646 726.07 362.0546 745.12 368.8846C764.16 375.7246 784.67 365.4746 791.99 345.4546ZM916.99 392.8146C923.83 374.2646 914.06 353.2646 895.02 346.9146C876.46 339.5946 856.93 348.3846 850.1 367.9146C843.26 386.4646 852.05 406.4846 871.09 413.3246C890.14 420.1546 910.16 410.8846 916.99 392.8146ZM1042.97 437.2446C1049.8 418.6946 1040.04 398.6746 1021.48 391.3546C1002.44 384.5146 981.45 393.7946 974.61 412.3446C967.77 431.3846 977.05 453.3646 996.09 460.1946C1015.14 467.0346 1036.13 456.2946 1042.97 437.2446ZM722.17 524.6546C737.79 510.9746 738.77 489.0046 725.59 473.3846C711.43 457.7546 689.45 457.7546 673.83 470.9446C659.18 486.0746 658.2 507.5646 672.36 522.2046C686.04 536.3646 708.01 538.3246 722.17 524.6546ZM812.99 623.2846C828.13 609.1246 828.61 586.1746 814.45 571.0346C801.76 557.3646 779.3 556.8746 764.16 570.0646C750 583.7346 749.02 606.1946 761.72 619.8646C776.37 635.0046 798.34 636.4646 812.99 623.2846ZM902.83 720.9446C916.5 707.2646 918.46 686.2746 905.27 670.6446C891.6 655.5146 868.65 655.5146 854.49 669.6746C840.82 682.8546 838.38 704.8246 851.56 719.9646C865.23 735.1046 888.67 734.6146 902.83 720.9446Z"/>
</svg>