<?xml version="1.0" encoding="UTF-8" standalone="no"?>
<svg xmlns="http://www.w3.org/2000/svg"
     width="996.09375" height="996.09375"
     viewBox="0 0 996.09375 996.09375"
     fill="currentColor">
  <path d="M498.0477 996.0959C770.5077 996.0959 996.0977 770.0159 996.0977 498.0459C996.0977 225.5859 770.0177 -0.0041 497.5577 -0.0041C225.5877 -0.0041 -0.0023 225.5859 -0.0023 498.0459C-0.0023 770.0159 226.0777 996.0959 498.0477 996.0959ZM187.0077 632.8159C187.0077 616.2059 201.1677 603.0259 219.2377 603.0259H279.7877C304.6877 603.0259 320.3077 595.2159 341.3077 569.8259L402.8277 498.0459L341.3077 426.2659C320.7977 401.3659 304.6877 393.0659 279.7877 393.0659H219.2377C201.1677 393.0659 187.0077 379.8859 187.0077 363.2859C187.0077 345.7059 200.1977 333.4959 219.2377 333.4959H278.8077C323.7277 333.4959 352.0477 346.1959 385.2577 384.7659L442.3877 451.6559L499.5077 384.7659C533.2077 346.1959 561.0377 333.4959 606.4477 333.4959H653.3177V277.8359C653.3177 262.6959 662.5977 253.4159 677.7377 253.4159C684.5677 253.4159 691.4077 255.8559 696.2877 259.7659L796.3877 342.2859C808.1077 352.5359 807.6177 370.1159 795.8977 379.8859L696.7777 460.9359C692.8677 465.8159 685.0577 468.2659 677.7377 468.2659C663.0877 468.2659 653.3177 458.4959 653.3177 443.3559V393.0659H608.3977C580.5677 393.0659 564.9377 401.3659 543.9477 426.2659L482.4177 498.0459L543.9477 569.8259C564.9377 594.7259 580.5677 603.0259 608.3977 603.0259H653.3177V554.1959C653.3177 539.0659 663.0877 529.2959 677.7377 529.2959C685.0577 529.2959 692.8677 531.7359 696.7777 536.6259L796.3877 618.6559C808.1077 628.4159 808.1077 645.5059 795.8977 655.7659L696.2877 737.7959C691.4077 741.6959 684.5677 744.1359 677.7377 744.1359C662.5977 744.1359 653.3177 734.8659 653.3177 719.7259V662.5959H606.4477C561.0377 662.5959 533.2077 649.9059 499.5077 611.3259L442.3877 544.4359L385.2577 611.3259C352.0477 649.9059 323.7277 662.5959 278.8077 662.5959H219.2377C200.1977 662.5959 187.0077 649.9059 187.0077 632.8159Z"/>
</svg>