<?xml version="1.0" encoding="UTF-8" standalone="no"?>
<svg xmlns="http://www.w3.org/2000/svg"
     width="1122.0703125" height="884.27734375"
     viewBox="0 0 1122.0703125 884.27734375"
     fill="currentColor">
  <path d="M-0.0017 692.3853C-0.0017 716.7953 18.0683 732.9053 44.9183 732.9053H156.2483C237.3083 732.9053 283.6883 709.9653 342.7783 641.6053L461.4283 503.4153L580.0783 642.0853C638.6683 709.9653 685.5483 732.9053 767.0883 732.9053H869.1383V854.0053C869.1383 873.5353 880.3683 884.2753 900.3883 884.2753C909.6683 884.2753 918.4583 881.3453 925.7783 875.4853L1110.3483 722.6553C1125.9783 709.4753 1125.9783 689.9453 1110.3483 676.2653L925.7783 522.9453C918.4583 517.0853 909.6683 513.6753 900.3883 513.6753C880.3683 513.6753 869.1383 524.9053 869.1383 544.4353V651.8553H769.5283C715.8183 651.8553 680.6683 633.7853 638.6683 584.4753L515.1383 440.4253L638.6683 296.3853C680.6683 247.5553 715.8183 229.4953 769.5283 229.4953H869.1383V339.8453C869.1383 359.3753 880.3683 370.6053 900.3883 370.6053C909.6683 370.6053 918.4583 367.1853 925.7783 361.3253L1110.3483 208.4953C1125.9783 195.8053 1125.9783 175.7853 1110.3483 162.1053L925.7783 8.7853C918.4583 2.9253 909.6683 -0.0047 900.3883 -0.0047C880.3683 -0.0047 869.1383 10.7453 869.1383 30.2753V147.9453H767.0883C685.5483 147.9453 638.6683 170.8953 580.0783 239.2553L461.4283 377.9253L342.7783 239.2553C283.6883 171.3853 237.3083 148.4353 156.2483 148.4353H44.9183C18.0683 148.4353 -0.0017 164.5553 -0.0017 188.9653C-0.0017 212.8953 18.5583 229.4953 44.9183 229.4953H158.6883C208.9883 229.4953 242.6783 247.5553 284.6683 296.8753L407.7183 440.4253L284.6683 584.4753C242.1883 633.7853 208.4983 651.8553 158.6883 651.8553H44.9183C18.5583 651.8553 -0.0017 667.9653 -0.0017 692.3853Z"/>
</svg>