<?xml version="1.0" encoding="UTF-8" standalone="no"?>
<svg xmlns="http://www.w3.org/2000/svg"
     width="996.09375" height="996.09375"
     viewBox="0 0 996.09375 996.09375"
     fill="currentColor">
  <path d="M498.0477 996.0959C770.5077 996.0959 996.0977 770.0159 996.0977 498.0459C996.0977 225.5859 770.0177 -0.0041 497.5577 -0.0041C225.5877 -0.0041 -0.0023 225.5859 -0.0023 498.0459C-0.0023 770.0159 226.0777 996.0959 498.0477 996.0959ZM498.0477 913.0859C267.5777 913.0859 83.4977 728.5159 83.4977 498.0459C83.4977 267.5759 267.0877 83.0059 497.5577 83.0059C728.0277 83.0059 913.0877 267.5759 913.0877 498.0459C913.0877 728.5159 728.5177 913.0859 498.0477 913.0859ZM322.7577 550.7859H470.2177V708.9859H403.3177C388.1877 708.9859 375.9777 720.7059 375.9777 735.8359C375.9777 750.9759 388.1877 763.1859 403.3177 763.1859H591.3077C606.4477 763.1859 618.6477 750.9759 618.6477 735.8359C618.6477 720.7059 606.4477 708.9859 591.3077 708.9859H524.4177V550.7859H642.5777C664.0577 550.7859 674.3177 543.9459 686.5277 532.2259L751.9577 470.2159C777.8277 445.3159 778.8077 420.4059 751.4677 394.5359L686.5277 332.5159C674.3177 320.7959 664.0577 314.4559 642.5777 314.4559H524.4177V259.7659C524.4177 244.6259 512.2077 232.4259 497.5577 232.4259C481.9377 232.4259 470.2177 244.6259 470.2177 259.7659V314.4559H322.7577C290.0377 314.4559 271.4877 332.0359 271.4877 364.2559V499.9959C271.4877 532.7159 290.0377 550.7859 322.7577 550.7859Z"/>
</svg>