<?xml version="1.0" encoding="UTF-8" standalone="no"?>
<svg xmlns="http://www.w3.org/2000/svg"
     width="996.09375" height="996.09375"
     viewBox="0 0 996.09375 996.09375"
     fill="currentColor">
  <path d="M498.0477 996.0977C770.5077 996.0977 996.0977 770.5077 996.0977 498.0477C996.0977 226.0777 770.0177 -0.0023 497.5577 -0.0023C225.5877 -0.0023 -0.0023 226.0777 -0.0023 498.0477C-0.0023 770.5077 226.0777 996.0977 498.0477 996.0977ZM411.6177 433.5977C388.6677 433.5977 375.4877 420.4077 375.4877 397.4577V295.4077C375.4877 271.9677 388.6677 259.2777 411.6177 259.2777H469.2377V217.7777C469.2377 202.6377 481.9377 189.9377 497.5577 189.9377C513.1877 189.9377 525.3877 202.6377 525.3877 217.7777V259.2777H650.8777C665.5277 259.2777 675.7777 263.1877 684.5677 271.9677L733.3977 319.3377C753.4177 337.8877 753.4177 355.4677 733.8877 373.0477L684.5677 419.9177C675.7777 429.6877 665.0377 433.5977 650.8777 433.5977H525.3877V474.1177H583.0077C605.9577 474.1177 619.6277 487.3077 619.6277 510.2577V611.8177C619.6277 635.2577 605.9577 647.9477 583.0077 647.9477H525.3877V729.4877H586.9177C602.5377 729.4877 614.7477 742.1877 614.7477 757.8077C614.7477 772.9477 602.5377 785.6477 586.9177 785.6477H407.7177C392.5777 785.6477 379.8877 772.9477 379.8877 757.8077C379.8877 742.1877 392.5777 729.4877 407.7177 729.4877H469.2377V647.9477H343.7477C329.5877 647.9477 318.8477 644.0477 310.0577 634.7677L260.7377 587.8877C241.2077 569.8277 241.6977 552.7377 261.2277 534.1777L310.0577 486.8177C318.8477 478.0277 329.0977 474.1177 343.7477 474.1177H469.2377V433.5977Z"/>
</svg>