<?xml version="1.0" encoding="UTF-8" standalone="no"?>
<svg xmlns="http://www.w3.org/2000/svg"
     width="880.859375" height="1027.83203125"
     viewBox="0 0 880.859375 1027.83203125"
     fill="currentColor">
  <path d="M212.8883 988.7692C212.8883 1010.2492 230.9583 1027.8292 252.4383 1027.8292H628.4183C650.3883 1027.8292 667.9683 1010.2492 667.9683 988.7692C667.9683 967.2892 650.3883 949.2192 628.4183 949.2192H479.4883V622.5592H777.3483C843.7483 622.5592 880.8583 585.9392 880.8583 520.5092V219.2392C880.8583 153.8092 843.7483 117.6792 777.3483 117.6792H479.4883V39.5492C479.4883 18.0692 461.9183 -0.0008 440.4283 -0.0008C418.9483 -0.0008 400.8783 18.0692 400.8783 39.5492V117.6792H103.5183C37.1083 117.6792 -0.0017 153.8092 -0.0017 219.2392V520.5092C-0.0017 585.9392 37.1083 622.5592 103.5183 622.5592H400.8783V949.2192H252.4383C230.9583 949.2192 212.8883 967.2892 212.8883 988.7692ZM105.4683 196.2892H775.3883C790.5283 196.2892 800.2883 206.0592 800.2883 221.6792V518.0692C800.2883 533.6892 790.5283 543.9492 775.3883 543.9492H105.4683C90.3283 543.9492 80.5683 533.6892 80.5683 518.0692V221.6792C80.5683 206.0592 90.3283 196.2892 105.4683 196.2892ZM326.6583 476.0692H555.1783C589.3583 476.0692 599.1183 451.6592 580.0783 424.8092L468.7483 265.6292C452.6383 243.1592 428.7083 243.1592 413.0883 265.6292L301.7583 424.3192C281.7383 452.1492 291.0183 476.0692 326.6583 476.0692Z"/>
</svg>