<?xml version="1.0" encoding="UTF-8" standalone="no"?>
<svg xmlns="http://www.w3.org/2000/svg"
     width="996.09375" height="996.09375"
     viewBox="0 0 996.09375 996.09375"
     fill="currentColor">
  <path d="M498.0477 996.0977C770.5077 996.0977 996.0977 770.5077 996.0977 498.0477C996.0977 226.0777 770.0177 -0.0023 497.5577 -0.0023C225.5877 -0.0023 -0.0023 226.0777 -0.0023 498.0477C-0.0023 770.5077 226.0777 996.0977 498.0477 996.0977ZM677.7377 552.7377H526.8577V715.3277H595.7077C611.3277 715.3277 624.0277 728.0277 624.0277 743.6477C624.0277 758.7877 611.3277 771.4877 595.7077 771.4877H401.3677C386.2277 771.4877 373.5377 758.7877 373.5377 743.6477C373.5377 728.0277 386.2277 715.3277 401.3677 715.3277H470.7077V552.7377H349.1177C326.6577 552.7377 315.9177 545.8977 303.7077 533.6877L236.3277 469.7277C209.4777 443.8477 208.0077 417.9677 236.8177 391.5977L303.7077 328.1277C315.9177 315.4277 326.6577 309.0777 349.1177 309.0777H470.7077V252.9277C470.7077 236.8177 483.3977 224.1177 498.5377 224.1177C514.6477 224.1177 526.8577 236.8177 526.8577 252.9277V309.0777H677.7377C712.3977 309.0777 731.4477 327.1477 731.4477 360.3477V500.9777C731.4477 534.1777 712.3977 552.7377 677.7377 552.7377Z"/>
</svg>