<?xml version="1.0" encoding="UTF-8" standalone="no"?>
<svg xmlns="http://www.w3.org/2000/svg"
     width="996.09375" height="996.09375"
     viewBox="0 0 996.09375 996.09375"
     fill="currentColor">
  <path d="M498.0477 996.0959C770.5077 996.0959 996.0977 770.0159 996.0977 498.0459C996.0977 225.5859 770.0177 -0.0041 497.5577 -0.0041C225.5877 -0.0041 -0.0023 225.5859 -0.0023 498.0459C-0.0023 770.0159 226.0777 996.0959 498.0477 996.0959ZM498.0477 913.0859C267.5777 913.0859 83.4977 728.5159 83.4977 498.0459C83.4977 267.5759 267.0877 83.0059 497.5577 83.0059C728.0277 83.0059 913.0877 267.5759 913.0877 498.0459C913.0877 728.5159 728.5177 913.0859 498.0477 913.0859ZM672.3677 550.7859C705.0777 550.7859 723.6377 532.7159 723.6377 499.9959V364.2559C723.6377 332.0359 705.0777 314.4559 672.3677 314.4559H525.3877V259.7659C525.3877 244.6259 513.1877 232.4259 497.5577 232.4259C482.9077 232.4259 471.1877 244.6259 471.1877 259.7659V314.4559H353.0277C331.0577 314.4559 320.7977 320.7959 308.5977 332.5159L243.6477 394.5359C216.3077 420.4059 217.2877 445.3159 243.1677 470.2159L308.5977 532.2259C320.7977 543.9459 331.0577 550.7859 353.0277 550.7859H471.1877V708.9859H403.8077C388.6677 708.9859 376.4677 720.7059 376.4677 735.8359C376.4677 750.9759 388.6677 763.1859 403.8077 763.1859H591.7977C606.9377 763.1859 619.6277 750.9759 619.6277 735.8359C619.6277 720.7059 606.9377 708.9859 591.7977 708.9859H525.3877V550.7859Z"/>
</svg>