<?xml version="1.0" encoding="UTF-8" standalone="no"?>
<svg xmlns="http://www.w3.org/2000/svg"
     width="1000.4891134902733" height="1027.83203125"
     viewBox="0 0 1000.4891134902733 1027.83203125"
     fill="currentColor">
  <path d="M776.3715 988.7692C776.3715 967.2892 758.7915 949.2192 737.3015 949.2192H588.3815V622.5592H896.9715C963.3815 622.5592 1000.4915 585.9392 1000.4915 520.5092V248.5392C1000.4915 183.1092 963.3815 146.9692 896.9715 146.9692H588.3815V39.5492C588.3815 18.0692 570.8015 -0.0008 549.3215 -0.0008C527.8315 -0.0008 509.7715 18.0692 509.7715 39.5492V146.9692H259.2815C215.8215 146.9692 195.3115 160.1592 170.4115 184.5692L40.5315 308.1092C-14.1585 360.8392 -12.6985 410.1592 40.0415 460.4492L170.4115 584.9592C195.3115 608.8892 215.8215 622.5592 259.7715 622.5592H509.7715V949.2192H360.8415C339.3515 949.2192 321.7815 967.2892 321.7815 988.7692C321.7815 1010.2492 339.3515 1027.8292 360.8415 1027.8292H737.3015C758.7915 1027.8292 776.3715 1010.2492 776.3715 988.7692Z"/>
</svg>