<?xml version="1.0" encoding="UTF-8" standalone="no"?>
<svg xmlns="http://www.w3.org/2000/svg"
     width="996.09375" height="996.09375"
     viewBox="0 0 996.09375 996.09375"
     fill="currentColor">
  <path d="M498.0477 996.0977C770.5077 996.0977 996.0977 770.5077 996.0977 498.0477C996.0977 226.0777 770.0177 -0.0023 497.5577 -0.0023C225.5877 -0.0023 -0.0023 226.0777 -0.0023 498.0477C-0.0023 770.5077 226.0777 996.0977 498.0477 996.0977ZM317.3877 552.7377C283.2077 552.7377 264.1577 534.1777 264.1577 500.9777V360.3477C264.1577 327.1477 283.2077 309.0777 317.3877 309.0777H468.7477V252.9277C468.7477 236.8177 480.9577 224.1177 497.0677 224.1177C512.2077 224.1177 524.8977 236.8177 524.8977 252.9277V309.0777H646.4877C668.9477 309.0777 679.6877 315.4277 691.8977 328.1277L758.7877 391.5977C787.1077 417.9677 786.1377 443.8477 759.2777 469.7277L691.8977 533.6877C679.6877 545.8977 668.9477 552.7377 646.4877 552.7377H524.8977V715.3277H593.7477C609.3777 715.3277 622.0677 728.0277 622.0677 743.6477C622.0677 758.7877 609.3777 771.4877 593.7477 771.4877H399.8977C384.2777 771.4877 371.5777 758.7877 371.5777 743.6477C371.5777 728.0277 384.2777 715.3277 399.8977 715.3277H468.7477V552.7377Z"/>
</svg>