<?xml version="1.0" encoding="UTF-8" standalone="no"?>
<svg xmlns="http://www.w3.org/2000/svg"
     width="821.2890625" height="1046.875"
     viewBox="0 0 821.2890625 1046.875"
     fill="currentColor">
  <path d="M-0.0017 894.0383C-0.0017 996.0983 50.2883 1046.8783 151.3683 1046.8783H669.9183C770.9983 1046.8783 821.2883 995.6083 821.2883 894.0383V346.6783C821.2883 298.3383 812.4983 274.4183 785.1583 246.5783L577.6383 39.5483C549.3183 10.7383 521.4883 -0.0017 477.5383 -0.0017H151.3683C50.7783 -0.0017 -0.0017 51.7583 -0.0017 153.3183ZM78.6183 892.5783V154.7883C78.6183 106.4483 104.4883 78.6083 155.2783 78.6083H474.6083C502.4383 78.6083 520.9983 85.9383 538.5783 104.4883L720.2183 288.0883C737.3083 305.1783 742.6783 320.7983 742.6783 352.5383V892.5783C742.6783 941.4083 716.7983 968.2583 666.0183 968.2583H154.7883C104.4883 968.2583 78.6183 941.4083 78.6183 892.5783ZM177.7383 582.0283H336.4283C354.9783 582.0283 365.7183 593.2583 365.7183 611.3283V885.7383H459.4683V452.6383H245.1183C203.6183 452.6383 177.7383 478.5183 177.7383 520.9983ZM513.6683 885.7383H576.6583C618.1683 885.7383 644.5283 859.8583 644.5283 817.8683V520.9983C644.5283 478.5183 618.1683 452.6383 576.6583 452.6383H513.6683ZM177.7383 817.8683C177.7383 859.8583 203.6183 885.7383 245.1183 885.7383H311.5283V643.5583C311.5283 638.6683 308.5983 636.2283 303.7083 636.2283H177.7383Z"/>
</svg>