<?xml version="1.0" encoding="UTF-8" standalone="no"?>
<svg xmlns="http://www.w3.org/2000/svg"
     width="993.1640625" height="1052.734375"
     viewBox="0 0 993.1640625 1052.734375"
     fill="currentColor">
  <path d="M-0.0017 773.4377C-0.0017 864.7477 46.3883 911.6177 136.7183 911.6177H201.6583V769.0477H166.9883C129.8783 769.0477 105.9583 745.1177 105.9583 707.0277V559.5677H201.6583V510.2577H105.9583V454.0977C105.9583 416.0177 129.8783 392.5777 166.9883 392.5777H201.6583V249.5077C201.6583 137.6977 273.4383 64.9377 383.7883 64.9377H540.0383L511.2283 35.6477C485.8383 10.2577 460.4483 -0.0023 420.4083 -0.0023H136.7183C46.3883 -0.0023 -0.0017 47.3677 -0.0017 139.1577ZM268.0683 914.0577C268.0683 1005.3677 314.9383 1052.7377 405.2783 1052.7377H856.4483C946.7783 1052.7377 993.1683 1005.3677 993.1683 914.0577V437.9877C993.1683 394.5277 984.8683 372.5577 959.9583 347.6577L779.2983 166.9877C753.9083 141.5977 728.5183 131.3477 688.9683 131.3477H405.2783C314.9383 131.3477 268.0683 178.7077 268.0683 270.5077ZM424.8083 651.3677V595.2177C424.8083 556.6377 449.2183 533.2077 486.3283 533.2077H676.7583V909.6677H594.2383V678.2177C594.2383 661.6177 584.4683 651.3677 566.8983 651.3677ZM726.0783 909.6677V533.2077H773.9283C811.5283 533.2077 834.9583 556.6377 834.9583 595.2177V848.1477C834.9583 885.7377 811.5283 909.6677 773.9283 909.6677ZM424.8083 848.1477V700.6877H537.5983C542.4783 700.6877 544.9183 703.1277 544.9183 707.5177V909.6677H486.3283C449.2183 909.6677 424.8083 885.7377 424.8083 848.1477Z"/>
</svg>