<?xml version="1.0" encoding="UTF-8" standalone="no"?>
<svg xmlns="http://www.w3.org/2000/svg"
     width="996.09375" height="996.09375"
     viewBox="0 0 996.09375 996.09375"
     fill="currentColor">
  <path d="M498.0477 996.0959C770.5077 996.0959 996.0977 770.0159 996.0977 498.0459C996.0977 225.5859 770.0177 -0.0041 497.5577 -0.0041C225.5877 -0.0041 -0.0023 225.5859 -0.0023 498.0459C-0.0023 770.0159 226.0777 996.0959 498.0477 996.0959ZM323.2377 716.7959C298.8277 716.7959 282.2277 697.7559 282.2277 674.8059C282.2277 663.0859 288.0877 650.8759 299.3177 639.1559L636.7177 296.8759C647.4577 285.6459 659.1777 279.7859 671.3877 279.7859C694.8277 279.7859 713.8677 298.3359 713.8677 322.2659C713.8677 333.4959 707.5177 346.1959 696.7777 356.9359L358.8877 699.7059C347.6577 710.9359 337.3977 716.7959 323.2377 716.7959Z"/>
</svg>