<?xml version="1.0" encoding="UTF-8" standalone="no"?>
<svg xmlns="http://www.w3.org/2000/svg"
     width="996.09375" height="996.09375"
     viewBox="0 0 996.09375 996.09375"
     fill="currentColor">
  <path d="M-0.0023 498.0459C-0.0023 770.0159 226.0777 996.0959 498.0477 996.0959C770.5077 996.0959 996.0977 770.0159 996.0977 498.0459C996.0977 225.5859 770.0177 -0.0041 497.5577 -0.0041C225.5877 -0.0041 -0.0023 225.5859 -0.0023 498.0459ZM83.4977 498.0459C83.4977 267.5759 267.0877 83.0059 497.5577 83.0059C728.0277 83.0059 912.5977 267.5759 913.0877 498.0459C913.0877 552.2459 903.3177 603.5159 883.7877 650.3859H112.7977C93.7477 603.5159 83.4977 552.2459 83.4977 498.0459ZM150.3877 724.1259H846.6777C772.9477 838.3759 645.0177 913.0859 498.0477 913.0859C351.0777 913.0859 223.6377 838.3759 150.3877 724.1259Z"/>
</svg>