<?xml version="1.0" encoding="UTF-8" standalone="no"?>
<svg xmlns="http://www.w3.org/2000/svg"
     width="1033.203125" height="1022.94921875"
     viewBox="0 0 1033.203125 1022.94921875"
     fill="currentColor">
  <path d="M153.3183 796.8713H236.8183V871.5813C236.8183 972.1713 287.5983 1022.9513 390.1383 1022.9513H880.3683C981.9383 1022.9513 1033.1983 972.1713 1033.1983 871.5813V377.4413C1033.1983 276.8513 981.9383 226.0712 880.3683 226.0712H796.3883V151.3713C796.3883 50.7813 745.1183 0.0013 643.5583 0.0013H153.3183C50.7783 0.0013 -0.0017 50.7813 -0.0017 151.3713V645.5113C-0.0017 746.0912 50.7783 796.8713 153.3183 796.8713ZM154.2983 718.2613C105.4683 718.2613 78.6183 691.8913 78.6183 641.1113V155.7613C78.6183 104.9813 105.4683 78.6113 154.2983 78.6113H642.0883C690.4283 78.6113 717.7783 104.9813 717.7783 155.7613V226.0712H390.1383C287.5983 226.0712 236.8183 276.3713 236.8183 377.4413V718.2613ZM391.1183 944.3313C342.7783 944.3313 315.4283 917.9713 315.4283 867.1913V381.8313C315.4283 331.0513 342.7783 304.6912 391.1183 304.6912H878.9083C927.2483 304.6912 954.5883 331.0513 954.5883 381.8313V867.1913C954.5883 917.9713 927.2483 944.3313 878.9083 944.3313ZM421.8783 527.8313H618.6483C631.8383 566.4013 668.9483 594.2413 711.9183 594.2413C754.8783 594.2413 791.5083 566.4013 805.1783 527.8313H850.5883C867.1883 527.8313 881.3483 513.1813 881.3483 495.1213C881.3483 477.5413 867.1883 463.3813 850.5883 463.3813H805.1783C791.9883 424.3213 754.8783 396.4813 711.9183 396.4813C668.4583 396.4813 631.3483 424.3213 618.1683 463.3813H421.8783C403.3183 463.3813 389.1583 477.5413 389.1583 495.1213C389.1583 513.1813 403.3183 527.8313 421.8783 527.8313ZM711.9183 543.9413C684.0783 543.9413 663.5783 522.4613 663.5783 495.1213C663.5783 467.2813 684.0783 446.7813 711.9183 446.7813C738.7683 446.7813 760.2583 467.2813 760.2583 495.1213C760.2583 522.4613 738.7683 543.9413 711.9183 543.9413ZM419.9183 789.0613H465.3283C479.0083 827.6413 515.6283 855.4713 558.5983 855.4713C602.0483 855.4713 639.1583 827.6413 652.3483 789.0613H848.6283C867.1883 789.0613 881.3483 774.9013 881.3483 756.3512C881.3483 738.7713 867.1883 724.6113 848.6283 724.6113H652.8283C639.6483 685.5513 602.5383 657.7113 558.5983 657.7113C515.6283 657.7113 478.5183 685.5513 465.3283 724.6113H419.9183C403.3183 724.6113 389.1583 738.7713 389.1583 756.3512C389.1583 774.9013 403.3183 789.0613 419.9183 789.0613ZM558.5983 805.1713C531.7383 805.1713 510.2583 783.6913 510.2583 756.3512C510.2583 728.5113 531.7383 708.0113 558.5983 708.0113C586.4283 708.0113 607.4183 728.5113 607.4183 756.3512C607.4183 783.6913 586.4283 805.1713 558.5983 805.1713Z"/>
</svg>