<?xml version="1.0" encoding="UTF-8" standalone="no"?>
<svg xmlns="http://www.w3.org/2000/svg"
     width="893.5546875" height="859.375"
     viewBox="0 0 893.5546875 859.375"
     fill="currentColor">
  <path d="M117.6783 859.3741C139.6483 859.3741 156.7383 841.7941 156.7383 821.7741V677.2441C202.1483 661.1341 234.8683 617.6741 234.8683 566.8941C234.8683 516.1141 202.1483 472.6541 156.7383 456.5441V39.5541C156.7383 17.5741 139.6483 0.0041 117.6783 0.0041C95.6983 0.0041 78.1283 17.5741 78.1283 39.5541V456.0541C32.7183 472.6541 -0.0017 516.1141 -0.0017 566.8941C-0.0017 617.6741 32.7183 661.1341 78.1283 677.2441V821.7741C78.1283 841.7941 95.6983 859.3741 117.6783 859.3741ZM446.7783 859.3741C468.7483 859.3741 486.3283 841.7941 486.3283 819.8241V395.0241C531.2483 378.9041 563.9683 335.4541 563.9683 284.6641C563.9683 233.8841 531.2483 190.4341 486.3283 174.3141V37.5941C486.3283 17.5741 468.7483 0.0041 446.7783 0.0041C424.8083 0.0041 407.7183 17.5741 407.7183 37.5941V173.8241C361.8183 190.4341 329.0983 233.8841 329.0983 284.6641C329.0983 335.4541 361.8183 378.9041 407.7183 395.0241V819.8241C407.7183 841.7941 424.8083 859.3741 446.7783 859.3741ZM659.1783 566.8941C659.1783 617.6741 691.4083 661.1341 736.8183 677.2441V821.7741C736.8183 841.7941 754.3983 859.3741 776.3683 859.3741C798.3383 859.3741 815.4283 841.7941 815.4283 821.7741V677.2441C860.8383 661.1341 893.5583 617.6741 893.5583 566.8941C893.5583 516.1141 860.8383 472.1641 815.4283 456.0541V39.5541C815.4283 17.5741 798.3383 0.0041 776.3683 0.0041C754.3983 0.0041 736.8183 17.5741 736.8183 39.5541V456.5441C691.4083 472.6541 659.1783 516.1141 659.1783 566.8941ZM389.6483 284.6641C389.6483 252.9341 415.0383 227.5341 446.7783 227.5341C479.0083 227.5341 503.9083 252.9341 503.9083 284.6641C503.9083 316.8941 479.0083 341.7941 446.7783 341.7941C415.0383 341.7941 389.6483 316.8941 389.6483 284.6641ZM60.0583 566.8941C60.0583 534.6641 85.4483 509.7641 117.6783 509.7641C149.8983 509.7641 174.8083 534.6641 174.8083 566.8941C174.8083 599.1241 149.8983 624.0241 117.6783 624.0241C85.4483 624.0241 60.0583 599.1241 60.0583 566.8941ZM719.2383 566.8941C719.2383 534.6641 744.6283 509.7641 776.3683 509.7641C809.0783 509.7641 833.4983 534.6641 833.4983 566.8941C833.4983 599.1241 809.0783 624.0241 776.3683 624.0241C744.6283 624.0241 719.2383 599.1241 719.2383 566.8941Z"/>
</svg>