<?xml version="1.0" encoding="UTF-8" standalone="no"?>
<svg xmlns="http://www.w3.org/2000/svg"
     width="1413.0458016357347" height="991.2109375"
     viewBox="0 0 1413.0458016357347 991.2109375"
     fill="currentColor">
  <path d="M153.3183 898.9295H820.3083C791.9883 874.5095 781.2483 848.1495 774.4183 820.3095H154.2983C106.4483 820.3095 78.6183 794.4295 78.6183 743.6495V155.2695C78.6183 104.4895 106.4483 78.6095 154.2983 78.6095H997.0683C1045.8983 78.6095 1072.7583 104.4895 1072.7583 155.2695V430.6595C1098.6283 427.7295 1123.5383 427.7295 1151.3683 430.6595V151.3695C1151.3683 50.2895 1100.5883 -0.0005 998.0483 -0.0005H153.3183C51.2683 -0.0005 -0.0017 50.7795 -0.0017 151.3695V747.5595C-0.0017 848.1495 51.2683 898.9295 153.3183 898.9295ZM717.7783 353.0295C759.2783 353.0295 795.4083 326.1695 809.0783 288.5695H951.6583C967.7783 288.5695 981.9383 274.4095 981.9383 256.8395C981.9383 238.7695 967.7783 224.6095 951.6583 224.6095H809.0783C795.8983 187.0095 759.2783 159.6695 717.7783 159.6695C675.7783 159.6695 640.1383 187.0095 626.9483 224.6095H201.6583C184.0783 224.6095 169.4383 238.7695 169.4383 256.8395C169.4383 274.4095 184.0783 288.5695 201.6583 288.5695H626.9483C640.1383 326.1695 675.7783 353.0295 717.7783 353.0295ZM717.7783 304.1995C690.4283 304.1995 670.4083 283.1995 670.4083 256.3495C670.4083 228.9995 690.4283 208.9795 717.7783 208.9795C745.1183 208.9795 765.6283 229.4895 765.6283 256.3495C765.6283 283.1995 745.1183 304.1995 717.7783 304.1995ZM200.1983 465.8195C184.0783 465.8195 169.4383 480.4695 169.4383 498.0495C169.4383 515.6295 184.0783 529.7895 200.1983 529.7895H344.2383C357.4183 567.3795 393.0683 594.2395 435.0583 594.2395C477.0483 594.2395 513.1883 567.3795 526.3683 529.7895H883.2983C906.7383 504.3895 933.5983 482.4195 964.3583 465.8195H526.3683C513.1883 428.2195 477.0483 400.8795 435.0583 400.8795C393.0683 400.8795 357.4183 428.2195 344.2383 465.8195ZM435.0583 545.4095C408.1983 545.4095 387.6983 524.8995 387.6983 498.0495C387.6983 470.2195 408.1983 450.1995 435.0583 450.1995C462.3983 450.1995 482.9083 470.2195 482.9083 498.0495C482.9083 524.4095 462.3983 545.4095 435.0583 545.4095ZM966.3083 627.4395C1000.4883 583.9795 1053.2183 555.6595 1112.3083 555.6595C1192.8683 555.6595 1262.6983 608.3995 1288.5783 680.6595H1260.7383C1235.3483 680.6595 1223.6283 703.1295 1239.7483 721.6795L1303.7083 800.2895C1316.8983 816.4095 1333.9883 816.8995 1346.6783 800.2895L1405.7583 721.6795C1421.3883 701.6595 1410.6483 680.6595 1385.2583 680.6595H1352.0483C1324.2183 574.7095 1226.5583 495.1195 1112.3083 495.1195C1035.1583 495.1195 966.3083 531.2495 921.3883 586.4295C892.5783 620.6095 940.4283 658.1995 966.3083 627.4395ZM877.9283 686.0395L818.3583 764.6495C803.2183 784.6695 813.9683 805.6595 839.3583 805.6595H872.0683C900.3883 912.1095 998.0483 991.2095 1112.3083 991.2095C1188.9683 991.2095 1258.2983 955.5695 1303.2183 899.8995C1332.0283 865.7195 1283.6883 828.1295 1258.2983 858.8895C1224.1183 902.3395 1171.3883 930.6595 1112.3083 930.6595C1031.2483 930.6595 961.9183 878.4195 935.5483 805.6595H963.3783C988.7683 805.6595 1000.4883 783.1995 984.8683 764.6495L920.4083 686.0395C907.2283 670.4095 890.6283 669.9195 877.9283 686.0395Z"/>
</svg>