<?xml version="1.0" encoding="UTF-8" standalone="no"?>
<svg xmlns="http://www.w3.org/2000/svg"
     width="1191.40625" height="890.13671875"
     viewBox="0 0 1191.40625 890.13671875"
     fill="currentColor">
  <path d="M750.4883 557.1259H1071.7783C1147.9483 557.1259 1191.4083 514.1559 1191.4083 439.9459V117.6759C1191.4083 42.9659 1147.9483 -0.0041 1071.7783 -0.0041H750.4883C674.8083 -0.0041 631.3483 42.9659 631.3483 117.6759V439.9459C631.3483 514.1559 674.8083 557.1259 750.4883 557.1259ZM115.7183 550.7859H430.6683C504.3983 550.7859 547.3683 508.7859 547.3683 436.0359V121.0959C547.3683 48.3359 504.3983 6.3459 430.6683 6.3459H115.7183C42.4783 6.3459 -0.0017 47.8559 -0.0017 121.0959V436.0359C-0.0017 509.2759 42.4783 550.7859 115.7183 550.7859ZM751.4683 479.9759C722.6583 479.9759 708.4983 465.8159 708.4983 436.5259V120.6059C708.4983 91.3059 722.6583 77.1459 751.4683 77.1459H1070.7983C1100.5883 77.1459 1114.2583 91.3059 1114.2583 120.6059V436.5259C1114.2583 465.8159 1100.5883 479.9759 1070.7983 479.9759ZM37.1083 733.3959C17.0883 733.3959 -0.0017 750.9759 -0.0017 772.9459C-0.0017 794.9259 17.0883 812.0159 37.1083 812.0159H169.4383C185.5483 857.4259 229.0083 890.1359 279.7883 890.1359C330.5683 890.1359 374.0283 857.4259 390.1383 812.0159H1151.8583C1173.8283 812.0159 1191.4083 794.9259 1191.4083 772.9459C1191.4083 750.9759 1173.8283 733.3959 1151.8583 733.3959H390.1383C374.0283 687.9859 330.5683 655.2759 279.7883 655.2759C229.0083 655.2759 185.5483 687.9859 169.4383 733.3959ZM279.7883 830.0759C247.5583 830.0759 222.6583 804.6859 222.6583 772.4559C222.6583 740.2359 247.5583 715.3359 279.7883 715.3359C311.5283 715.3359 336.9183 740.2359 336.9183 772.4559C336.9183 804.6859 311.5283 830.0759 279.7883 830.0759Z"/>
</svg>