<?xml version="1.0" encoding="UTF-8" standalone="no"?>
<svg xmlns="http://www.w3.org/2000/svg"
     width="931.640625" height="918.9453125"
     viewBox="0 0 931.640625 918.9453125"
     fill="currentColor">
  <path d="M145.0183 615.7245H786.1283C881.3483 615.7245 931.6383 567.3845 931.6383 472.6545V143.0645C931.6383 48.3445 881.3483 0.0045 786.1283 0.0045H145.0183C55.1783 0.0045 -0.0017 48.3445 -0.0017 143.0645V472.6545C-0.0017 567.3845 50.2883 615.7245 145.0183 615.7245ZM144.0383 541.9945C101.0783 541.9945 78.6183 519.5345 78.6183 476.5645V139.1645C78.6183 96.1945 101.0783 73.7345 144.0383 73.7345H787.1083C830.5683 73.7345 853.0283 96.1945 853.0283 139.1645V476.5645C853.0283 519.5345 830.5683 541.9945 787.1083 541.9945ZM651.8583 918.9445C702.6383 918.9445 746.0983 886.2345 762.2083 840.8245H894.0383C914.0583 840.8245 931.6383 823.7345 931.6383 801.7545C931.6383 779.7845 914.0583 762.2045 894.0383 762.2045H762.2083C746.0983 716.7945 702.6383 684.0845 651.8583 684.0845C601.0783 684.0845 557.6183 716.7945 541.0183 762.2045H39.0583C17.0883 762.2045 -0.0017 779.7845 -0.0017 801.7545C-0.0017 823.7345 17.0883 840.8245 39.0583 840.8245H541.0183C557.6183 886.2345 601.0783 918.9445 651.8583 918.9445ZM651.8583 858.8845C619.6283 858.8845 594.7283 833.4945 594.7283 801.2645C594.7283 769.0445 619.6283 744.1445 651.8583 744.1445C684.0783 744.1445 708.9883 769.0445 708.9883 801.2645C708.9883 833.4945 684.0783 858.8845 651.8583 858.8845Z"/>
</svg>