<?xml version="1.0" encoding="UTF-8" standalone="no"?>
<svg xmlns="http://www.w3.org/2000/svg"
     width="996.09375" height="996.09375"
     viewBox="0 0 996.09375 996.09375"
     fill="currentColor">
  <path d="M498.0477 996.0959C770.5077 996.0959 996.0977 770.0159 996.0977 498.0459C996.0977 225.5859 770.0177 -0.0041 497.5577 -0.0041C225.5877 -0.0041 -0.0023 225.5859 -0.0023 498.0459C-0.0023 770.0159 226.0777 996.0959 498.0477 996.0959ZM498.0477 913.0859C267.5777 913.0859 83.4977 728.5159 83.4977 498.0459C83.4977 267.5759 267.0877 83.0059 497.5577 83.0059C728.0277 83.0059 913.0877 267.5759 913.0877 498.0459C913.0877 728.5159 728.5177 913.0859 498.0477 913.0859ZM497.5577 684.5659C599.6077 684.5659 684.0777 601.0759 684.0777 497.5559C684.0777 395.5059 599.6077 312.0159 497.5577 312.0159C395.0177 312.0159 310.5477 395.5059 310.5477 497.5559C310.5477 601.0759 395.0177 684.5659 497.5577 684.5659ZM498.0477 607.9059C437.9877 607.9059 388.6677 558.1059 388.6677 497.5559C388.6677 438.4759 438.4777 389.1559 498.0477 389.1559C557.1277 389.1559 606.4477 438.4759 606.4477 497.5559C606.4477 558.1059 557.1277 607.9059 498.0477 607.9059Z"/>
</svg>