<?xml version="1.0" encoding="UTF-8" standalone="no"?>
<svg xmlns="http://www.w3.org/2000/svg"
     width="996.09375" height="996.09375"
     viewBox="0 0 996.09375 996.09375"
     fill="currentColor">
  <path d="M498.0477 996.0977C770.5077 996.0977 996.0977 770.5077 996.0977 498.0477C996.0977 226.0777 770.0177 -0.0023 497.5577 -0.0023C225.5877 -0.0023 -0.0023 226.0777 -0.0023 498.0477C-0.0023 770.5077 226.0777 996.0977 498.0477 996.0977ZM155.2777 469.2377C155.2777 415.5277 193.3577 370.6077 245.6077 360.3477C249.0277 293.4577 305.1777 239.2577 373.0477 239.2577C416.5077 239.2577 455.0777 261.2277 478.5177 296.8777C490.2377 292.9677 500.9777 290.0377 513.6677 290.0377C560.0577 290.0377 588.8677 314.9377 596.1877 341.3077C552.2477 343.2577 512.6977 361.8177 484.8677 393.0677C478.0277 392.0877 470.7077 391.5977 463.8677 391.5977C402.3477 391.5977 351.0777 430.1777 331.0577 485.3477C285.6477 496.0977 248.5377 529.7877 233.8877 573.7277C184.5677 557.6177 155.2777 517.0877 155.2777 469.2377ZM365.7277 716.7977C304.1977 716.7977 262.6977 672.8477 262.6977 616.2077C262.6977 562.9877 305.6677 518.5577 359.8677 517.0877C368.1677 465.8177 411.1377 427.7377 463.8677 427.7377C476.0777 427.7377 486.3277 429.1977 498.5377 433.1077C521.4877 398.4377 560.5477 376.4677 604.9777 376.4677C673.3377 376.4677 728.0277 431.1477 731.9377 497.5577C783.2077 507.8077 821.7777 552.7377 821.7777 606.4477C821.7777 668.4577 774.8977 716.7977 706.0577 716.7977Z"/>
</svg>