<?xml version="1.0" encoding="UTF-8" standalone="no"?>
<svg xmlns="http://www.w3.org/2000/svg"
     width="1187.98828125" height="851.5625"
     viewBox="0 0 1187.98828125 851.5625"
     fill="currentColor">
  <path d="M143.5522 597.1703C169.9222 505.8603 232.9122 449.2203 319.8222 432.6203C355.9522 319.8203 450.1922 264.1603 558.1022 264.1603C570.3122 264.1603 581.5422 265.6203 591.7922 267.0903C634.2822 204.5903 699.7022 174.3203 783.2022 174.3203C766.6022 129.8803 716.3122 90.8203 638.1822 90.8203C615.2322 90.8203 596.6822 95.2103 576.1722 101.5603C533.2022 39.0603 465.3322 0.0003 387.2022 0.0003C266.6022 0.0003 166.9922 96.1903 159.6722 215.3303C67.3822 234.8603 0.0022 314.4503 0.0022 410.1603C0.0022 496.0903 52.2422 570.3103 143.5522 597.1703ZM375.4922 851.5603H982.4222C1104.9822 851.5603 1187.9922 764.1603 1187.9922 654.7803C1187.9922 558.5903 1119.6322 478.5203 1028.3222 459.9603C1020.9922 340.8203 923.8322 244.1403 802.2422 244.1403C722.6522 244.1403 653.8122 283.6903 611.8122 345.7003C590.8222 338.8703 571.7822 335.4503 549.8022 335.4503C456.0522 335.4503 378.9022 403.8103 365.2322 495.1203C268.0622 498.0503 191.4022 577.1503 191.4022 672.8503C191.4022 772.4603 265.1322 851.5603 375.4922 851.5603Z"/>
</svg>