<?xml version="1.0" encoding="UTF-8" standalone="no"?>
<svg xmlns="http://www.w3.org/2000/svg"
     width="996.09375" height="996.09375"
     viewBox="0 0 996.09375 996.09375"
     fill="currentColor">
  <path d="M498.0477 996.0959C770.5077 996.0959 996.0977 770.0159 996.0977 498.0459C996.0977 225.5859 770.0177 -0.0041 497.5577 -0.0041C225.5877 -0.0041 -0.0023 225.5859 -0.0023 498.0459C-0.0023 770.0159 226.0777 996.0959 498.0477 996.0959ZM498.0477 913.0859C267.5777 913.0859 83.4977 728.5159 83.4977 498.0459C83.4977 267.5759 267.0877 83.0059 497.5577 83.0059C728.0277 83.0059 913.0877 267.5759 913.0877 498.0459C913.0877 728.5159 728.5177 913.0859 498.0477 913.0859ZM165.5277 469.7259C165.5277 515.6259 193.8477 555.1759 241.6977 570.7959C255.8577 528.3159 291.5077 495.1159 335.9377 484.8659C354.9777 431.6359 404.7877 394.0459 464.3577 394.0459C471.1877 394.0459 478.0277 395.0159 484.8677 395.9959C512.2077 364.7459 550.2977 347.1659 593.2577 345.7059C585.9377 319.8259 558.1077 295.8959 513.1877 295.8959C500.4877 295.8959 490.2377 298.3359 479.0077 301.7559C456.0577 267.5759 418.9477 246.0959 376.4677 246.0959C310.5477 246.0959 256.3477 298.8259 252.9277 363.2859C202.1477 374.0259 165.5277 417.4759 165.5277 469.7259ZM369.1377 709.4759H699.7077C766.1177 709.4759 811.5277 662.5959 811.5277 602.5359C811.5277 550.7859 774.4177 506.8359 724.6077 497.0659C720.7077 432.1259 667.9677 379.3959 601.5577 379.3959C558.1077 379.3959 520.5077 400.8759 498.0477 434.5659C486.3277 430.6659 476.5577 428.7059 464.3577 428.7059C413.0877 428.7059 371.5777 466.3059 363.7677 516.1159C311.0377 517.5759 269.5277 560.5459 269.5277 612.3059C269.5277 666.9959 309.5677 709.4759 369.1377 709.4759Z"/>
</svg>