<?xml version="1.0" encoding="UTF-8" standalone="no"?>
<svg xmlns="http://www.w3.org/2000/svg"
     width="864.9823657805807" height="987.3046875"
     viewBox="0 0 864.9823657805807 987.3046875"
     fill="currentColor">
  <path d="M432.5984 987.3014C454.0884 987.3014 466.7784 972.1714 466.7784 951.1714V845.2114L550.7684 893.0714C568.8284 902.8314 587.3884 901.3714 597.6384 883.3014C606.4284 868.1614 601.0584 849.1214 582.4984 838.8714L466.7784 772.9514V710.9414L457.0184 536.6214L603.9884 631.8314L658.1884 662.6014L657.2084 795.9014C656.7184 816.8914 670.3884 832.0314 687.4784 832.0314C708.4784 832.0314 719.2184 816.4014 719.2184 795.9014L719.7084 698.2414L811.9984 751.9514C831.0384 763.1814 849.1084 758.3014 859.3584 740.7214C869.6084 722.1714 864.2384 703.1214 846.1784 692.8714L753.8884 639.6514L837.8684 590.3314C855.4484 579.5914 863.2684 562.9914 853.0084 545.4114C843.2484 529.7814 824.6884 525.3914 806.6184 536.1314L691.8784 603.5114L637.6784 572.7514L479.9584 493.6514L638.1684 414.5514L691.3884 383.3014L806.1384 450.6814C824.1984 461.4214 844.2184 457.0314 853.4984 441.8914C863.2684 424.3114 855.4484 407.2314 837.8684 396.4814L753.8884 347.6514L846.1784 294.4314C864.7284 283.6914 870.0984 265.1414 859.8484 246.5814C849.5884 229.0014 830.5484 224.1214 812.4784 235.3514L719.7084 288.0814L718.7284 190.9214C718.7284 169.9214 708.4784 155.2714 687.9684 155.2714C669.9084 155.2714 656.7184 169.9214 657.2084 190.9214L657.6984 323.7314L603.9884 354.9814L457.0184 450.6814L466.7784 275.8814V213.8714L582.4984 148.4414C601.0584 137.6914 606.4284 119.1414 597.6384 103.5114C587.3884 85.9414 568.8284 83.9814 550.7684 94.2414L466.7784 142.0914V35.6414C466.7784 14.6514 454.0884 0.0014 432.5984 0.0014C412.0884 0.0014 398.9084 14.6514 398.9084 35.6414V142.0914L313.4584 94.2414C295.3884 83.9814 277.8184 85.9414 267.0684 103.5114C258.2784 119.1414 264.1384 137.6914 282.6984 147.9514L398.9084 213.8714V275.8814L408.1884 450.6814L261.2084 354.9814L207.0184 323.7314L207.9884 190.9214C208.4784 169.9214 195.2984 155.2714 177.7184 155.2714C156.7184 155.2714 145.9784 170.4114 145.9784 190.9214L145.4884 288.0814L52.7184 235.3514C35.1384 224.6114 15.1184 229.0014 5.3584 246.5814C-5.3916 265.1414 0.4684 284.1814 19.0284 294.4314L110.8184 347.6514L27.3284 396.4814C9.7484 407.2314 1.9384 422.8514 11.6984 441.8914C20.4884 457.5214 40.5084 461.4214 59.0684 450.6814L173.3184 383.7914L227.0284 414.5514L384.7484 493.6514L227.0284 572.7514L173.3184 604.0014L58.5784 536.1314C40.5084 525.3914 20.9784 529.7814 12.6784 544.9214C2.4284 563.9614 9.7484 579.5914 27.3284 590.3314L111.3084 639.6514L19.0284 692.8714C0.9584 703.1214 -4.9016 722.6514 5.3584 740.2314C16.0984 758.7914 35.1384 762.6914 52.7184 751.9514L145.4884 699.2214L145.9784 795.9014C145.9784 816.4014 156.7184 832.0314 177.2284 832.0314C194.8084 832.0314 208.4784 816.8914 207.9884 795.9014L207.4984 662.6014L261.2084 632.3214L408.1884 536.6214L398.9084 710.9414V772.9514L282.6984 838.8714C264.1384 849.1214 258.2784 868.1614 267.0684 883.3014C277.8184 901.3714 295.3884 902.8314 313.4584 893.0714L398.9084 844.7314V951.1714C398.9084 972.1714 412.0884 987.3014 432.5984 987.3014Z"/>
</svg>