<?xml version="1.0" encoding="UTF-8" standalone="no"?>
<svg xmlns="http://www.w3.org/2000/svg"
     width="996.09375" height="996.09375"
     viewBox="0 0 996.09375 996.09375"
     fill="currentColor">
  <path d="M498.0477 996.0977C770.5077 996.0977 996.0977 770.5077 996.0977 498.0477C996.0977 226.0777 770.0177 -0.0023 497.5577 -0.0023C225.5877 -0.0023 -0.0023 226.0777 -0.0023 498.0477C-0.0023 770.5077 226.0777 996.0977 498.0477 996.0977ZM497.5577 812.9877C481.9377 812.9877 470.2177 801.2677 470.2177 784.1777V728.5177L426.7577 753.4177C411.1377 761.7177 396.9777 758.2977 388.6677 744.6277C381.3477 732.4177 386.7177 716.3077 400.3877 708.4977L470.2177 669.4377V634.2777L475.0977 537.5977L393.5577 589.8477L363.2777 607.9077L363.7677 687.4977C363.7677 703.6177 353.0277 716.3077 338.3777 716.3077C322.2677 716.3077 312.0077 704.5877 312.0077 687.4977L311.5277 637.2077L263.6677 665.5277C249.5077 673.8277 233.8877 669.9177 225.0977 655.7577C216.7977 641.1177 221.6777 625.4877 236.3277 616.6977L284.1777 589.8477L241.2077 564.4577C226.0777 555.6677 222.1677 541.5077 229.4877 527.3477C236.8177 514.6477 253.4177 511.2277 267.5777 519.0477L335.9377 560.0577L365.7277 541.9877L453.6177 498.0477L365.7277 454.5877L335.9377 437.0077L267.5777 477.0477C253.4177 484.8677 236.8177 481.9377 229.0077 469.2377C221.6777 454.5877 226.5577 440.9177 241.2077 432.1277L284.1777 406.7377L236.3277 379.3977C221.6777 370.6077 216.3077 354.9777 225.0977 340.3277C233.3977 326.6577 249.5077 322.7577 263.6677 331.0577L311.5277 358.8877L312.0077 308.5977C312.0077 291.5077 322.2677 280.2777 338.3777 280.2777C353.0277 280.2777 363.7677 292.4777 363.7677 308.5977L363.2777 388.6677L393.5577 406.2477L475.0977 458.9877L470.2177 361.8177V326.6577L400.3877 288.0877C386.7177 279.7877 381.3477 263.6677 388.6677 251.4677C396.9777 237.7977 411.1377 234.8677 426.7577 242.6777L470.2177 267.5777V211.9177C470.2177 195.3077 481.9377 183.1077 497.5577 183.1077C513.6677 183.1077 525.3877 194.8277 525.3877 211.9177V267.0877L567.8677 242.6777C583.4977 234.3777 598.1477 237.7977 606.4477 251.4677C613.2777 263.6677 608.3977 279.7877 594.2377 288.0877L524.8977 326.6577V361.8177L520.0177 458.9877L602.5377 405.7577L631.8377 388.6677L631.3477 308.5977C631.3477 292.4777 642.0877 280.2777 657.2277 280.2777C672.3677 280.2777 683.1077 291.9877 683.1077 308.5977L683.5977 359.3777L731.4477 331.0577C745.6077 322.7577 761.7177 326.1677 770.0177 340.3277C777.8277 355.4677 773.4377 370.6077 758.7877 379.3977L710.9377 406.7377L753.4177 432.1277C768.0677 440.9177 773.4377 455.0777 766.1177 468.7477C758.2977 481.4477 741.6977 484.8677 727.5377 477.0477L659.1777 436.5277L629.3977 454.5877L541.5077 498.0477L629.3977 541.9877L659.1777 560.0577L727.5377 519.0477C741.6977 511.7177 757.8077 514.6477 766.1177 527.8277C773.4377 541.5077 768.0677 555.1777 753.4177 564.4577L710.9377 589.8477L758.7877 616.6977C773.4377 625.4877 777.8277 641.1177 770.0177 655.7577C760.7377 669.9177 745.6077 673.3377 731.4477 665.5277L683.5977 636.7177L683.1077 687.4977C683.1077 704.5877 672.3677 716.3077 656.7377 716.3077C642.0877 716.3077 631.3477 703.6177 631.3477 687.4977L631.8377 607.9077L602.5377 589.8477L520.0177 537.5977L524.8977 634.2777V669.4377L594.2377 708.0077C608.3977 716.3077 613.2777 732.4177 606.4477 744.6277C598.1477 758.2977 583.4977 762.2077 567.8677 753.4177L525.3877 729.0077V784.1777C525.3877 801.7577 513.6677 812.9877 497.5577 812.9877Z"/>
</svg>