<?xml version="1.0" encoding="UTF-8" standalone="no"?>
<svg xmlns="http://www.w3.org/2000/svg"
     width="1407.249964446413" height="730.95703125"
     viewBox="0 0 1407.249964446413 730.95703125"
     fill="currentColor">
  <path d="M40.0461 730.9552H103.5261C132.8161 730.9552 147.4661 716.7952 155.7661 695.8052L425.2961 30.2752C432.1361 14.1552 424.3261 -0.0048 407.2361 -0.0048H375.4961C358.4061 -0.0048 347.6661 8.3052 340.3361 22.9452L5.8661 676.7552C-7.8039 701.6552 1.9561 730.9552 40.0461 730.9552ZM1303.7161 730.9552H1367.6861C1405.2761 730.9552 1415.0461 701.6552 1401.3761 676.7552L1067.3861 22.9452C1059.5761 8.3052 1048.8361 -0.0048 1031.7461 -0.0048H1000.0061C982.9161 -0.0048 975.5961 14.1552 981.9361 30.2752L1251.4661 695.8052C1259.7761 716.7952 1274.4161 730.9552 1303.7161 730.9552ZM703.1361 694.8252C718.7561 694.8252 729.9861 683.5952 729.9861 666.9952V613.2852L771.9761 637.2052C786.6261 645.5052 800.7861 642.0852 808.5961 628.9052C815.4361 616.6952 811.0461 601.5652 797.3661 593.2652L729.9861 555.6652V521.4852L724.6161 427.2452L804.6961 478.5152L833.5061 495.6052L833.0161 573.2452C833.0161 588.8652 843.2661 600.5852 857.4261 600.5852C873.0561 600.5852 882.8161 589.8452 882.8161 573.2452L883.3061 523.9252L930.1861 551.2652C943.8561 559.5752 958.5061 556.1552 967.2961 542.4852C975.1061 528.3252 970.7061 513.1852 956.5461 504.8852L909.6761 478.0252L951.6661 453.6152C965.8261 444.8252 970.7061 431.1552 963.3861 418.4552C955.5761 405.7652 939.9461 402.3452 926.2761 410.1552L859.8661 449.2152L830.5761 432.1252L745.6161 389.6452L830.5761 347.1652L859.8661 329.5852L926.2761 369.1452C939.9461 376.4652 956.0561 373.5352 963.3861 361.3252C970.7061 347.6552 965.8261 334.4752 951.6661 325.1952L909.6761 300.7852L956.5461 274.4152C970.7061 266.1152 975.1061 251.4652 967.2961 236.8152C959.4761 223.1452 943.8561 219.7252 930.1861 227.5352L883.3061 254.8852L882.8161 206.0552C882.8161 189.9452 873.0561 178.2252 857.9161 178.2252C843.2661 178.2252 833.0161 190.4252 833.0161 206.0552L833.5061 283.2052L804.6961 300.2952L724.6161 352.0552L729.9861 257.8152V223.6352L797.3661 186.0352C811.0461 177.7352 815.4361 162.5952 808.5961 150.3952C800.7861 137.2052 786.6261 133.7852 771.9761 142.0852L729.9861 166.0152V112.3052C729.9861 95.2152 718.7561 84.4752 703.1361 84.4752C687.9961 84.4752 676.7661 95.7052 676.7661 112.3052V166.5052L634.2861 142.0852C619.1461 134.2752 605.4761 137.2052 597.6661 150.3952C590.8261 162.5952 595.7061 177.7352 608.8961 185.5452L676.7661 223.6352V257.8152L682.1361 352.0552L602.5461 300.7852L572.7561 283.2052L573.2461 206.0552C573.2461 190.4252 562.9961 178.2252 548.8361 178.2252C533.2061 178.2252 523.9361 189.4552 523.9361 206.0552L523.4461 254.8852L476.5661 227.5352C462.4061 219.2352 446.7861 223.6352 438.9661 236.8152C431.1561 250.9752 435.5561 266.1152 449.7161 274.4152L496.5861 300.7852L454.5961 325.1952C440.4361 333.9852 435.5561 347.1652 442.8761 361.3252C450.2061 373.5352 466.3161 376.9552 479.9861 369.1452L546.3961 330.0752L575.6861 347.1652L660.6461 389.6452L575.6861 432.1252L546.3961 449.2152L479.9861 410.1552C466.3161 402.3452 450.2061 405.2752 443.3661 417.4852C436.0461 431.1552 439.9461 445.3152 454.5961 453.6152L496.5861 478.0252L449.7161 504.8852C435.5561 513.1852 431.6461 528.3252 438.9661 542.4852C447.2761 556.1552 462.4061 559.5752 476.5661 551.2652L523.4461 524.4152L523.9361 573.2452C523.9361 589.8452 533.2061 600.5852 548.8361 600.5852C562.9961 600.5852 573.2461 588.8652 573.2461 573.2452L572.7561 495.6052L602.5461 478.5152L682.1361 427.2452L676.7661 521.4852V555.6652L608.8961 593.7452C595.7061 601.5652 590.8261 616.6952 597.6661 628.9052C605.4761 642.0852 619.1461 645.0152 634.2861 637.2052L676.7661 612.7952V666.9952C676.7661 683.1052 687.9961 694.8252 703.1361 694.8252Z"/>
</svg>