<?xml version="1.0" encoding="UTF-8" standalone="no"?>
<svg xmlns="http://www.w3.org/2000/svg"
     width="970.8251953125" height="987.3046875"
     viewBox="0 0 970.8251953125 987.3046875"
     fill="currentColor">
  <path d="M514.0382 374.5114L518.9182 275.8814V213.8714L634.6482 148.4414C653.1982 137.6914 658.5682 119.1414 650.2682 103.5114C639.5282 85.9414 621.4582 83.9814 602.9082 94.2414L518.9182 142.0914V35.6414C518.9182 14.6514 506.2282 0.0014 485.2282 0.0014C464.7182 0.0014 451.0482 14.6514 451.0482 35.6414V142.0914L366.0882 94.2414C348.0182 83.9814 329.9582 85.9414 319.6982 103.5114C310.9082 119.1414 316.7682 137.6914 335.3282 147.9514L451.0482 213.8714V275.8814L452.5182 312.9914ZM906.6182 968.7514C921.2682 983.4014 945.6782 982.9114 959.8382 968.2614C974.4882 953.6114 974.4882 929.6914 959.8382 915.0414L64.3282 19.5314C49.6782 4.8814 25.7582 4.3914 10.6182 19.5314C-3.5418 33.6914 -3.5418 58.1014 10.6182 72.7514ZM599.4882 460.4514L690.7982 414.5514L744.0182 383.3014L858.7682 450.6814C876.8282 461.4214 896.8482 457.0314 905.6382 441.8914C915.8982 424.3114 908.0782 407.2314 890.4982 396.4814L806.5182 347.6514L898.8082 294.4314C917.3582 283.6914 922.7282 265.1414 911.9882 246.5814C902.2182 229.0014 883.6682 224.6114 864.6282 235.3514L771.8482 288.0814L771.3582 190.9214C771.3582 169.9214 761.1082 155.2714 740.5982 155.2714C722.5382 155.2714 709.3482 169.9214 709.3482 190.9214L710.3282 323.7314L656.6182 354.9814L557.9882 418.9414ZM111.6982 450.6814L226.9282 383.3014L98.0182 254.3914L65.7982 240.2314C62.8682 240.7214 59.9382 242.6714 57.9882 246.5814C46.7482 265.1414 53.0982 284.1814 71.1682 294.4314L167.3582 345.2114L79.9582 396.4814C61.8882 407.2314 54.5682 422.8514 64.3282 441.8914C73.1182 457.5214 92.6482 461.4214 111.6982 450.6814ZM370.4882 526.8514L279.6582 572.7514L225.4682 604.0014L111.2082 536.1314C93.1382 525.3914 73.6082 529.7814 65.3082 544.9214C55.0582 563.9614 61.8882 579.5914 79.4682 590.3314L163.4482 639.6514L71.6582 692.8714C53.5882 703.1214 47.2382 722.6514 57.9882 740.2314C68.2382 758.7914 87.2782 762.2114 105.3482 751.9514L198.1182 699.2214L198.6082 795.9014C198.6082 816.4014 208.8582 832.0314 229.8582 832.0314C247.4382 832.0314 260.6182 816.8914 260.6182 795.9014L260.1282 662.6014L313.8382 632.3214L411.9882 568.3614ZM743.0382 603.5114L871.9482 732.4214L903.6882 746.5814C906.6182 745.6014 909.0582 743.6514 911.4982 740.7214C922.7282 723.1414 915.8982 702.6414 897.8282 692.3814L801.6382 641.6014L889.5282 590.3314C907.1082 579.5914 914.9182 562.9914 904.6582 545.4114C895.3882 529.7814 875.8582 525.3914 857.7882 536.1314ZM456.4182 612.7914L451.0482 710.9414V772.9514L335.3282 838.8714C316.7682 849.1214 310.9082 868.1614 319.6982 883.3014C330.4482 901.3714 348.0182 902.8314 366.0882 893.0714L451.0482 844.7314V951.1714C451.0482 972.1714 464.7182 987.3014 485.2282 987.3014C506.2282 987.3014 518.9182 972.1714 518.9182 951.1714V845.2114L602.9082 893.0714C621.4582 902.8314 639.5282 901.3714 650.2682 883.3014C658.5682 868.1614 653.1982 849.1214 634.6482 838.8714L518.9182 772.9514V710.9414L517.9482 674.3114Z"/>
</svg>