<?xml version="1.0" encoding="UTF-8" standalone="no"?>
<svg xmlns="http://www.w3.org/2000/svg"
     width="996.09375" height="996.09375"
     viewBox="0 0 996.09375 996.09375"
     fill="currentColor">
  <path d="M498.0477 996.0959C770.5077 996.0959 996.0977 770.0159 996.0977 498.0459C996.0977 225.5859 770.0177 -0.0041 497.5577 -0.0041C225.5877 -0.0041 -0.0023 225.5859 -0.0023 498.0459C-0.0023 770.0159 226.0777 996.0959 498.0477 996.0959ZM498.0477 913.0859C267.5777 913.0859 83.4977 728.5159 83.4977 498.0459C83.4977 267.5759 267.0877 83.0059 497.5577 83.0059C728.0277 83.0059 913.0877 267.5759 913.0877 498.0459C913.0877 728.5159 728.5177 913.0859 498.0477 913.0859ZM497.0677 803.2259C513.1877 803.2259 523.9277 791.9959 523.9277 775.3859V721.6759L565.9177 745.6059C580.5677 753.4159 595.2177 750.4859 602.5377 737.3059C609.8677 725.0959 604.9777 709.9559 591.3077 701.6559L523.9277 664.0659V629.8859L518.5577 535.6459L599.1177 586.9159L627.4377 604.0059V681.6359C627.4377 697.2659 637.2077 708.9859 651.3677 708.9859C666.9877 708.9859 676.7577 698.2459 676.7577 681.6359L677.2477 631.8359L724.1177 659.6659C737.7977 667.9659 752.9277 664.5459 761.2277 650.8759C769.0477 636.7159 765.1377 621.5859 750.9777 613.2859L704.0977 586.4259L745.6077 562.0159C759.7677 553.2259 764.6477 539.5459 757.8077 526.8559C749.9977 514.1559 734.3777 510.7459 720.7077 518.5559L654.2977 557.6159L624.9977 540.0359L539.5477 498.0459L624.9977 455.5659L654.2977 437.9859L720.7077 477.5359C734.3777 484.8659 750.4877 481.9359 757.8077 469.7259C764.6477 456.0559 759.7677 442.8759 745.6077 433.5959L704.0977 409.1759L750.9777 382.8159C765.1377 374.5159 769.0477 359.8659 761.2277 345.2159C753.9077 331.5459 737.7977 328.1259 724.1177 335.9359L677.2477 363.2859L676.7577 314.4559C676.7577 298.3359 666.9877 286.6259 651.8577 286.6259C637.2077 286.6259 627.4377 298.8259 627.4377 314.4559V391.6059L598.6377 408.6959L518.5577 459.9559L523.9277 366.2059V332.0359L591.3077 294.4359C604.9777 286.1359 609.8677 270.9959 602.5377 258.7859C595.2177 245.6059 580.5677 242.1859 565.9177 250.4859L523.9277 274.4159V220.7059C523.9277 203.6159 513.1877 192.8759 497.0677 192.8759C481.9377 192.8759 470.7077 204.1059 470.7077 220.7059V274.9059L428.2277 250.4859C413.0877 242.6759 399.4177 245.6059 391.5977 258.7859C384.7677 270.9959 389.6477 286.1359 403.3177 293.9459L470.7077 332.0359V366.2059L476.0777 459.9559L396.4877 409.1759L367.1877 391.6059L367.6777 314.4559C367.6777 298.8259 357.4177 286.6259 342.7777 286.6259C327.6377 286.6259 317.8677 297.8559 317.8677 314.4559L317.3877 363.2859L270.5077 335.9359C256.3477 327.6359 240.7277 332.0359 233.3977 345.2159C225.0977 359.3759 229.4877 374.5159 243.6477 382.8159L290.5277 409.1759L249.0277 433.5959C234.8677 442.3859 229.9777 455.5659 236.8177 469.7259C244.1377 481.9359 260.2577 485.3559 274.4177 477.5359L340.3277 438.4759L369.6277 455.5659L455.0777 498.0459L369.6277 540.0359L340.3277 557.6159L274.4177 518.5559C260.2577 510.7459 244.1377 513.6759 237.3077 525.8759C230.4677 539.5459 234.3777 553.2259 249.0277 562.0159L290.5277 586.4259L243.6477 613.2859C229.4877 621.5859 225.5877 636.7159 233.3977 650.8759C241.2077 664.5459 256.3477 667.9659 270.5077 659.6659L317.3877 632.8159L317.8677 681.6359C317.8677 698.2459 327.6377 708.9859 342.7777 708.9859C357.4177 708.9859 367.6777 697.2659 367.6777 681.6359L367.1877 604.0059L396.4877 586.9159L476.0777 535.6459L470.7077 629.8859V664.0659L403.3177 701.6559C389.6477 709.9559 384.7677 725.0959 391.5977 737.3059C399.4177 750.4859 413.0877 752.9259 428.2277 745.6059L470.7077 721.1959V775.3859C470.7077 791.5059 481.9377 803.2259 497.0677 803.2259Z"/>
</svg>