<?xml version="1.0" encoding="UTF-8" standalone="no"?>
<svg xmlns="http://www.w3.org/2000/svg"
     width="996.09375" height="996.09375"
     viewBox="0 0 996.09375 996.09375"
     fill="currentColor">
  <path d="M498.0477 996.0959C770.5077 996.0959 996.0977 770.0159 996.0977 498.0459C996.0977 225.5859 770.0177 -0.0041 497.5577 -0.0041C225.5877 -0.0041 -0.0023 225.5859 -0.0023 498.0459C-0.0023 770.0159 226.0777 996.0959 498.0477 996.0959ZM498.0477 913.0859C267.5777 913.0859 83.4977 728.5159 83.4977 498.0459C83.4977 267.5759 267.0877 83.0059 497.5577 83.0059C728.0277 83.0059 913.0877 267.5759 913.0877 498.0459C913.0877 728.5159 728.5177 913.0859 498.0477 913.0859ZM498.0477 759.2759C640.1377 759.2759 759.2777 640.1359 759.2777 498.0459C759.2777 355.9559 640.1377 236.8159 497.5577 236.8159C355.4677 236.8159 237.3077 355.9559 237.3077 498.0459C237.3077 640.1359 355.9577 759.2759 498.0477 759.2759ZM498.0477 276.3659C525.3877 276.3659 551.7577 281.2459 576.1677 291.0159L513.1877 340.8159V409.1759L581.5477 461.4259L645.9977 435.5459L669.9177 358.3959C700.6877 396.4859 720.2177 444.8259 720.2177 498.5359L657.7177 463.8659L589.8477 491.2059L563.9677 570.3159L601.0777 616.6959L684.0777 617.6759C655.2777 662.5959 611.3277 695.7959 560.0577 710.9359L577.1477 636.2259L543.4577 593.2659H452.1477L418.4577 636.2259L436.0377 710.9359C384.2777 695.7959 340.3277 662.5959 311.5277 617.6759L395.0177 616.6959L431.6377 570.7959L405.7577 491.2059L337.8877 463.8659L275.3877 498.5359C275.3877 444.8259 294.9177 396.4859 326.1677 358.3959L349.6077 435.5459L414.0577 461.4259L482.9077 409.1759V340.8159L419.4377 291.0159C443.8477 281.2459 471.1877 276.3659 498.0477 276.3659Z"/>
</svg>