<?xml version="1.0" encoding="UTF-8" standalone="no"?>
<svg xmlns="http://www.w3.org/2000/svg"
     width="996.09375" height="996.09375"
     viewBox="0 0 996.09375 996.09375"
     fill="currentColor">
  <path d="M498.0477 996.0959C770.5077 996.0959 996.0977 770.0159 996.0977 498.0459C996.0977 225.5859 770.0177 -0.0041 497.5577 -0.0041C225.5877 -0.0041 -0.0023 225.5859 -0.0023 498.0459C-0.0023 770.0159 226.0777 996.0959 498.0477 996.0959ZM498.5377 759.2759C356.4477 759.2759 237.7977 640.1359 237.7977 498.0459C237.7977 355.9559 355.9577 236.8159 498.0477 236.8159C640.6277 236.8159 759.7677 355.9559 759.7677 498.0459C759.7677 640.1359 640.6277 759.2759 498.5377 759.2759ZM498.5377 276.3659C471.6777 276.3659 444.3377 281.2459 419.9177 291.0159L483.3977 340.8159V409.1759L414.5477 461.4259L350.0977 435.5459L326.6577 358.3959C295.4077 396.4859 275.8777 444.8259 275.8777 498.5359L338.3777 463.8659L406.2477 491.2059L432.1277 570.7959L395.5077 616.6959L312.0077 617.6759C340.8177 662.5959 384.7677 695.7959 436.5277 710.9359L418.9477 636.2259L452.6377 593.2659H543.9477L577.6377 636.2259L560.5477 710.9359C611.8177 695.7959 655.7577 662.5959 684.5677 617.6759L601.5577 616.6959L564.4577 570.3159L590.3277 491.2059L658.2077 463.8659L720.7077 498.5359C720.7077 444.8259 701.1677 396.4859 670.4077 358.3959L646.4877 435.5459L582.0277 461.4259L513.6677 409.1759V340.8159L576.6577 291.0159C552.2477 281.2459 525.8777 276.3659 498.5377 276.3659Z"/>
</svg>