<?xml version="1.0" encoding="UTF-8" standalone="no"?>
<svg xmlns="http://www.w3.org/2000/svg"
     width="996.09375" height="996.09375"
     viewBox="0 0 996.09375 996.09375"
     fill="currentColor">
  <path d="M498.0477 996.0959C770.5077 996.0959 996.0977 770.0159 996.0977 498.0459C996.0977 225.5859 770.0177 -0.0041 497.5577 -0.0041C225.5877 -0.0041 -0.0023 225.5859 -0.0023 498.0459C-0.0023 770.0159 226.0777 996.0959 498.0477 996.0959ZM498.0477 913.0859C267.5777 913.0859 83.4977 728.5159 83.4977 498.0459C83.4977 267.5759 267.0877 83.0059 497.5577 83.0059C728.0277 83.0059 913.0877 267.5759 913.0877 498.0459C913.0877 728.5159 728.5177 913.0859 498.0477 913.0859ZM497.5577 760.2559C640.1377 760.2559 759.2777 641.1159 759.2777 498.5359C759.2777 356.4459 639.6477 236.8159 497.5577 236.8159C354.9777 236.8159 236.3277 355.9559 236.3277 498.5359C236.3277 640.6259 355.4677 760.2559 497.5577 760.2559ZM322.7577 360.3559C348.6377 328.6159 382.3277 302.7359 421.8777 289.0659L477.0477 333.0059V407.7159L414.0577 455.5659L343.2577 426.7559ZM672.8477 360.3559L652.8277 426.7559L582.0277 455.5659L519.5277 407.7159V332.0359L573.7277 289.0659C613.2777 302.7359 647.4577 328.6159 672.8477 360.3559ZM311.5277 619.1359C289.0577 584.4759 276.3677 543.9459 275.8777 499.9959L332.0277 467.7759L402.3477 496.5859L425.2977 567.8759L386.7177 617.6759ZM684.0777 620.1159L609.3777 618.6559L570.7977 568.3559L593.7477 496.5859L664.0577 467.7759L720.2177 499.9959C719.7277 543.9459 706.5477 585.4459 684.0777 620.1159ZM498.0477 720.2159C476.5577 720.2159 456.0577 716.7959 436.5277 711.4259L420.4077 643.0659L454.5877 599.1259H540.5277L575.6877 644.5359L559.5677 711.4259C540.0377 717.2859 519.5277 720.2159 498.0477 720.2159Z"/>
</svg>