<?xml version="1.0" encoding="UTF-8" standalone="no"?>
<svg xmlns="http://www.w3.org/2000/svg"
     width="996.09375" height="996.09375"
     viewBox="0 0 996.09375 996.09375"
     fill="currentColor">
  <path d="M498.0477 996.0959C770.5077 996.0959 996.0977 770.0159 996.0977 498.0459C996.0977 225.5859 770.0177 -0.0041 497.5577 -0.0041C225.5877 -0.0041 -0.0023 225.5859 -0.0023 498.0459C-0.0023 770.0159 225.0977 996.0959 498.0477 996.0959ZM377.4377 912.1059C277.3477 882.8159 191.4077 817.3859 135.7377 731.4459L300.7777 729.0059L369.1377 641.6059L316.8977 480.4659L189.9377 429.1959L65.4277 499.5159C65.9177 394.5359 102.5377 300.2959 163.5777 226.0759L209.9577 378.9059L333.0077 428.7059L470.2177 323.2459V194.8259L346.1877 94.2359C393.5577 76.1759 444.8277 66.4059 497.5577 66.4059C550.2977 66.4059 601.5577 76.1759 648.9277 94.2359L525.3877 194.8259V323.2459L662.5977 428.7059L785.1577 378.9059L831.5477 226.0759C892.5777 300.2959 929.1977 394.5359 929.6877 499.5159L805.1777 429.1959L678.2277 480.4659L625.9777 641.6059L694.3377 729.0059L859.3777 731.4459C803.7077 817.3859 717.7777 882.8159 617.6777 912.1059L652.3477 762.6959L589.8477 683.1059H405.2777L343.2577 762.6959Z"/>
</svg>