<?xml version="1.0" encoding="UTF-8" standalone="no"?>
<svg xmlns="http://www.w3.org/2000/svg"
     width="996.09375" height="996.09375"
     viewBox="0 0 996.09375 996.09375"
     fill="currentColor">
  <path d="M498.0477 996.0959C770.5077 996.0959 996.0977 770.0159 996.0977 498.0459C996.0977 225.5859 770.0177 -0.0041 497.5577 -0.0041C225.5877 -0.0041 -0.0023 225.5859 -0.0023 498.0459C-0.0023 770.0159 226.0777 996.0959 498.0477 996.0959ZM498.0477 768.5559C351.5577 768.5559 228.5177 645.0159 228.5177 498.5359C228.5177 351.5659 351.0777 228.5159 498.0477 228.5159C644.5277 228.5159 768.0677 352.0459 768.0677 498.5359C768.0677 645.5059 645.0177 768.5559 498.0477 768.5559ZM317.8677 355.9559L338.8677 424.3159L412.1077 454.1059L477.0477 404.7859V327.6359L419.9177 282.7159C379.3977 296.8759 344.7277 323.2459 317.8677 355.9559ZM678.7077 355.9559C652.8277 323.2459 617.1877 296.8759 576.6577 282.7159L520.9977 326.6559V404.7859L584.9577 454.1059L658.2077 424.3159ZM306.1477 623.0459L383.7877 621.5859L423.3377 569.8259L399.8977 496.5859L327.1477 466.7959L269.5277 499.9959C270.0177 545.4059 283.2077 586.9159 306.1477 623.0459ZM690.4277 624.0259C713.3777 588.3759 727.0477 545.4059 727.5377 499.9959L669.9177 466.7959L597.1677 496.5859L573.7277 570.3159L613.2777 622.5559ZM498.5377 727.0459C520.5077 727.0459 541.9877 724.1259 562.0077 717.7759L578.6177 648.9259L542.4777 602.0459H453.6177L418.4577 647.4559L435.0577 717.7759C455.0777 723.6359 476.5577 727.0459 498.5377 727.0459Z"/>
</svg>