<?xml version="1.0" encoding="UTF-8" standalone="no"?>
<svg xmlns="http://www.w3.org/2000/svg"
     width="1489.74609375" height="856.93359375"
     viewBox="0 0 1489.74609375 856.93359375"
     fill="currentColor">
  <path d="M309.0783 445.31H715.3283V105.96C715.3283 41.99 673.8283 0 612.7883 0H241.2083C179.6883 0 138.6683 41.99 138.6683 105.96V195.8H152.3483C243.6483 195.8 309.0783 261.72 309.0783 354ZM774.4183 445.31H1180.6683V354C1180.6683 261.72 1246.5783 195.8 1337.3983 195.8H1351.0783V105.96C1351.0783 41.99 1310.0583 0 1248.5383 0H876.9483C815.9183 0 774.4183 41.99 774.4183 105.96ZM-0.0017 650.88C-0.0017 711.91 40.0383 752.44 100.0983 752.44H129.3983V813.96C129.3983 840.33 145.9983 856.93 172.3683 856.93H203.1283C229.4883 856.93 246.0983 840.33 246.0983 813.96V752.44H1243.6483V813.96C1243.6483 840.33 1260.7383 856.93 1286.6183 856.93H1317.3783C1343.7483 856.93 1360.3483 840.33 1360.3483 813.96V752.44H1389.6483C1449.7083 752.44 1489.7483 711.91 1489.7483 650.88V354C1489.7483 293.46 1449.7083 252.44 1389.6483 252.44H1337.3983C1277.8283 252.44 1237.7883 293.46 1237.7883 354V501.95H252.4383V354C252.4383 293.46 211.9183 252.44 152.3483 252.44H100.0983C40.0383 252.44 -0.0017 293.46 -0.0017 354Z"/>
</svg>