<?xml version="1.0" encoding="UTF-8" standalone="no"?>
<svg xmlns="http://www.w3.org/2000/svg"
     width="1510.25390625" height="856.93359375"
     viewBox="0 0 1510.25390625 856.93359375"
     fill="currentColor">
  <path d="M-0.0017 640.62C-0.0017 710.94 46.3883 757.32 115.7183 757.32H134.2783V813.96C134.2783 840.33 151.3683 856.93 177.7383 856.93H208.0083C234.3783 856.93 251.4683 840.33 251.4683 813.96V757.32H1258.7883V813.96C1258.7883 840.33 1276.3683 856.93 1302.2483 856.93H1332.5183C1358.8883 856.93 1375.9783 840.33 1375.9783 813.96V757.32H1394.5283C1463.8683 757.32 1510.2583 710.94 1510.2583 640.62V343.75C1510.2583 273.93 1463.8683 227.05 1394.5283 227.05H1372.0683V121.58C1372.0683 48.34 1324.7083 0 1253.9083 0H831.5383C801.2683 0 774.8983 8.79 755.3683 24.9C735.3483 8.79 708.9883 0 678.7083 0H267.0883C196.2883 0 148.9283 48.34 148.9283 121.58V227.05H115.7183C46.3883 227.05 -0.0017 273.93 -0.0017 343.75ZM298.8283 460.94V343.75C298.8283 291.99 272.9483 252.93 231.4483 235.84V122.07C231.4483 97.66 247.5583 82.03 270.5083 82.03H674.8083C698.2383 82.03 713.8683 97.66 713.8683 122.07V460.94ZM796.3883 122.07C796.3883 97.66 812.0083 82.03 835.4483 82.03H1250.4883C1273.4383 82.03 1289.5483 97.66 1289.5483 122.07V232.42C1241.6983 246.09 1211.9183 287.6 1211.9183 343.75V460.94H796.3883ZM83.0083 639.65V344.73C83.0083 323.24 97.6583 309.08 119.6283 309.08H178.7083C201.1683 309.08 215.8183 323.24 215.8183 344.73V542.97H1294.4383V344.73C1294.4383 323.24 1309.5683 309.08 1331.5383 309.08H1390.6283C1412.5983 309.08 1427.7383 323.24 1427.7383 344.73V639.65C1427.7383 661.13 1412.5983 675.29 1390.6283 675.29H119.6283C97.6583 675.29 83.0083 661.13 83.0083 639.65Z"/>
</svg>