<?xml version="1.0" encoding="UTF-8" standalone="no"?>
<svg xmlns="http://www.w3.org/2000/svg"
     width="1639.6730168143206" height="813.96484375"
     viewBox="0 0 1639.6730168143206 813.96484375"
     fill="currentColor">
  <path d="M244.1629 813.9639C396.5129 813.9639 485.3729 723.6339 485.3729 586.4239C485.3729 474.1239 442.4029 419.9239 313.9929 354.4939L266.1429 330.5639C190.4529 291.5039 164.5729 260.7439 164.5729 205.5639C164.5729 157.7139 196.3129 125.9739 244.1629 125.9739C295.9229 125.9739 323.7529 160.1539 330.5929 220.7039C331.5629 231.4439 337.4229 236.8139 347.1929 236.8139H457.0529C466.8229 236.8139 473.6529 230.4639 473.1729 219.2339C466.3329 84.9639 394.0629 0.0039 244.1629 0.0039C97.1929 0.0039 11.2529 90.3339 11.2529 223.1439C11.2529 334.9639 57.1529 396.9739 175.8029 459.4739L223.6529 484.8639C302.2729 526.3639 332.0529 552.2439 332.0529 604.4939C332.0529 658.2039 302.7629 687.9839 247.0929 687.9839C189.4729 687.9839 155.7829 652.3439 148.9529 592.2839C147.9729 581.5439 143.5829 575.6839 133.3229 575.6839H16.1429C6.3729 575.6839 -0.4671 582.0339 0.0229 593.2639C8.3229 734.8639 85.4729 813.9639 244.1629 813.9639ZM1398.4629 813.9639C1550.8029 813.9639 1639.6729 723.6339 1639.6729 586.4239C1639.6729 474.1239 1596.7029 419.4339 1468.2829 354.4939L1420.4329 330.5639C1344.2629 291.5039 1318.8729 260.7439 1318.8729 205.5639C1318.8729 157.7139 1350.6129 125.9739 1398.4629 125.9739C1450.2229 125.9739 1477.5629 160.1539 1484.4029 220.7039C1485.8629 231.4439 1491.7229 236.8139 1501.4929 236.8139H1611.3529C1621.1229 236.8139 1627.9529 230.4639 1627.4629 219.2339C1619.6529 84.9639 1548.3629 0.0039 1398.4629 0.0039C1251.4929 0.0039 1165.5529 90.3339 1165.5529 223.1439C1165.5529 334.9639 1211.4529 396.4839 1330.1029 459.4739L1377.9529 484.8639C1456.5629 526.8539 1486.3529 552.2439 1486.3529 604.4939C1486.3529 658.2039 1457.0529 687.9839 1400.9029 687.9839C1343.7729 687.9839 1310.0829 652.3439 1303.2429 592.2839C1301.7829 581.5439 1297.8729 575.6839 1287.6229 575.6839H1170.4329C1160.6729 575.6839 1153.8329 582.0339 1154.3229 593.2639C1162.6229 734.8639 1239.7729 813.9639 1398.4629 813.9639ZM820.3329 813.9639C1001.0029 813.9639 1097.1929 676.7539 1097.1929 408.2039C1097.1929 141.1139 1001.0029 1.4639 820.3329 1.4639C637.7229 1.4639 542.9929 141.1139 542.9929 408.2039C542.9929 676.7539 637.7229 813.9639 820.3329 813.9639ZM820.3329 681.1539C740.2629 681.1539 700.7129 596.6839 700.7129 408.2039C700.7129 220.7039 740.2629 134.2739 820.3329 134.2739C897.9729 134.2739 938.0129 220.7039 938.0129 408.2039C938.0129 596.6839 897.9729 681.1539 820.3329 681.1539Z"/>
</svg>