<?xml version="1.0" encoding="UTF-8" standalone="no"?>
<svg xmlns="http://www.w3.org/2000/svg"
     width="996.09375" height="996.09375"
     viewBox="0 0 996.09375 996.09375"
     fill="currentColor">
  <path d="M498.0477 996.0959C770.5077 996.0959 996.0977 770.0159 996.0977 498.0459C996.0977 225.5859 770.0177 -0.0041 497.5577 -0.0041C225.5877 -0.0041 -0.0023 225.5859 -0.0023 498.0459C-0.0023 770.0159 226.0777 996.0959 498.0477 996.0959ZM265.1377 663.0859C198.7277 663.0859 164.0577 628.4159 163.5777 570.7959C163.0877 563.9659 167.9677 559.0859 175.2977 559.0859H221.1877C227.0477 559.0859 230.9577 562.4959 231.9377 568.8459C234.8677 592.2859 245.6077 603.0259 265.6277 603.0259C285.6477 603.0259 294.4377 594.7259 294.4377 575.6859C294.4377 556.6359 284.6677 547.8559 253.9077 532.2259L235.3477 522.4559C186.5277 497.5559 167.4777 470.7059 167.4777 424.8059C167.4777 369.6259 203.6177 331.0559 265.1377 331.0559C329.0977 331.0559 359.8677 370.1159 360.3477 422.8559C360.3477 430.1759 355.9577 434.5659 348.6377 434.5659H305.6677C298.8277 434.5659 295.8977 431.1559 294.4377 424.3159C290.0377 401.8559 281.2477 391.1159 265.1377 391.1159C249.0277 391.1159 238.2777 401.8559 238.2777 417.4759C238.2777 435.0559 247.0677 446.7759 275.8777 461.9159L294.9177 472.1659C346.1877 499.5159 364.7477 521.4859 364.7477 568.3559C364.7477 624.9959 327.6377 663.0859 265.1377 663.0859ZM731.9377 663.0859C665.5277 663.0859 630.8577 628.4159 629.8877 570.7959C629.8877 563.9659 634.7677 559.0859 641.1177 559.0859H687.4977C693.8477 559.0859 697.7577 562.4959 698.7277 568.8459C701.6577 592.2859 712.3977 603.0259 732.4177 603.0259C752.9277 603.0259 761.2277 594.7259 761.2277 575.6859C761.2277 556.6359 751.4677 548.3359 720.7077 532.2259L702.1477 522.4559C653.3177 497.5559 634.2777 470.7059 634.2777 424.8059C634.2777 369.6259 670.4077 331.0559 731.9377 331.0559C795.8977 331.0559 826.6577 370.1159 827.1477 422.8559C827.1477 430.1759 822.7577 434.5659 815.4277 434.5659H771.9777C765.6277 434.5659 762.6977 431.1559 761.2277 424.3159C756.8377 401.8559 748.0477 391.1159 731.9377 391.1159C715.8177 391.1159 704.5877 401.8559 704.5877 417.4759C704.5877 435.0559 713.8677 446.7759 742.6777 461.9159L761.7177 472.1659C813.4777 499.5159 831.5477 521.4859 831.5477 568.3559C831.5477 624.9959 794.4377 663.0859 731.9377 663.0859ZM498.0477 663.0859C422.3677 663.0859 382.8077 607.4259 382.8077 498.0459C382.8077 389.6459 421.8777 331.0559 498.0477 331.0559C573.2377 331.0559 612.3077 389.6459 612.3077 498.0459C612.3077 607.4259 572.7577 663.0859 498.0477 663.0859ZM498.0477 600.5859C525.3877 600.5859 538.5777 571.2859 538.5777 498.0459C538.5777 424.8059 525.3877 394.5359 498.0477 394.5359C469.2377 394.5359 455.5677 424.8059 455.5677 498.0459C455.5677 571.2859 469.2377 600.5859 498.0477 600.5859Z"/>
</svg>