<?xml version="1.0" encoding="UTF-8" standalone="no"?>
<svg xmlns="http://www.w3.org/2000/svg"
     width="1033.203125" height="1022.94921875"
     viewBox="0 0 1033.203125 1022.94921875"
     fill="currentColor">
  <path d="M153.3183 796.8713H236.8183V871.5813C236.8183 972.1713 287.5983 1022.9513 390.1383 1022.9513H880.3683C981.9383 1022.9513 1033.1983 972.1713 1033.1983 871.5813V377.4413C1033.1983 276.8513 981.9383 226.0712 880.3683 226.0712H796.3883V151.3713C796.3883 50.7813 745.1183 0.0013 643.5583 0.0013H153.3183C50.7783 0.0013 -0.0017 50.7813 -0.0017 151.3713V645.5113C-0.0017 746.0912 50.7783 796.8713 153.3183 796.8713ZM154.2983 718.2613C105.4683 718.2613 78.6183 691.8913 78.6183 641.1113V155.7613C78.6183 104.9813 105.4683 78.6113 154.2983 78.6113H642.0883C690.4283 78.6113 717.7783 104.9813 717.7783 155.7613V226.0712H390.1383C287.5983 226.0712 236.8183 276.3713 236.8183 377.4413V718.2613ZM660.6483 827.1513C649.8983 827.1513 643.0683 820.3113 641.1183 810.5513C620.1183 663.0813 600.5883 630.3713 446.7783 614.7413C436.5283 613.2813 429.6883 605.9613 429.6883 596.1913C429.6883 586.9113 436.5283 579.5912 446.7783 578.1212C600.0983 557.1313 613.7683 530.7613 641.1183 382.3213C644.0383 372.5612 650.8783 365.7213 660.6483 365.7213C669.4383 365.7213 676.7583 373.0513 678.7083 382.8112C700.1983 527.8313 720.6983 557.1313 874.0283 578.1212C883.7883 579.5912 890.6283 586.9113 890.6283 596.1913C890.6283 605.9613 883.7883 613.7713 874.0283 614.7413C720.2183 635.2513 706.5383 663.0813 678.7083 811.0313C676.2683 820.3113 669.4383 827.1513 660.6483 827.1513ZM461.9183 909.1813C454.5883 909.1813 450.1983 904.3013 447.7583 896.4813C433.5983 824.2213 439.9383 821.2913 360.8383 809.0813C352.5383 807.6213 347.6583 803.2213 347.6583 795.4113C347.6583 788.0813 352.5383 782.7113 359.8683 781.7413C439.9383 768.0713 433.5983 764.6513 447.7583 693.3613C450.1983 685.5513 455.0783 680.6613 461.9183 680.6613C469.7283 680.6613 474.6083 686.0313 476.5583 693.3613C489.7483 764.6513 485.3483 768.0713 564.9383 781.7413C571.7783 782.7113 577.1483 788.0813 577.1483 795.4113C577.1483 802.2413 571.7783 807.6213 564.9383 809.0813C484.8683 821.2913 489.7483 824.2213 476.5583 897.9513C474.6083 904.7813 469.2383 909.1813 461.9183 909.1813Z"/>
</svg>