<?xml version="1.0" encoding="UTF-8" standalone="no"?>
<svg xmlns="http://www.w3.org/2000/svg"
     width="903.3203125" height="1113.76953125"
     viewBox="0 0 903.3203125 1113.76953125"
     fill="currentColor">
  <path d="M424.3206 237.7916C430.6606 237.7916 434.0806 233.8916 435.0606 228.0316C449.7106 148.9216 448.2406 145.0216 533.2006 129.8816C539.0606 128.4216 542.9706 125.0016 542.9706 118.6516C542.9706 112.7916 539.0606 108.8916 533.2006 107.9116C448.2406 92.7716 449.7106 88.8716 435.0606 9.7616C434.0806 3.9016 430.6606 0.0016 424.3206 0.0016C417.9706 0.0016 414.5506 3.9016 413.5706 9.7616C398.9306 88.8716 400.3906 92.7716 315.4306 107.9116C309.0806 108.8916 305.6606 112.7916 305.6606 118.6516C305.6606 125.0016 309.0806 128.4216 315.4306 129.8816C400.3906 145.0216 398.9306 148.9216 413.5706 228.0316C414.5506 233.8916 417.9706 237.7916 424.3206 237.7916ZM187.9906 573.7316C197.2706 573.7316 203.6106 567.3816 204.5906 558.5916C222.1706 428.2216 226.5606 428.2216 361.3306 402.3416C369.6306 400.8816 375.9806 395.0216 375.9806 385.7416C375.9806 376.9516 369.6306 370.6016 361.3306 369.6316C226.5606 350.5816 221.6806 346.1916 204.5906 213.8716C203.6106 204.5916 197.2706 198.2416 187.9906 198.2416C179.2006 198.2416 172.8506 204.5916 171.3906 214.3516C155.7606 344.7216 148.4406 344.2416 14.6506 369.6316C6.3506 371.0916 0.0006 376.9516 0.0006 385.7416C0.0006 395.5116 6.3506 400.8816 16.6006 402.3416C149.4106 423.8316 155.7606 427.2416 171.3906 557.6216C172.8506 567.3816 179.2006 573.7316 187.9906 573.7316ZM519.0406 1113.7716C531.7406 1113.7716 541.0206 1104.4916 543.4606 1091.3116C578.1206 824.2216 615.7206 783.2016 880.3706 753.9016C894.0406 752.4416 903.3206 742.6716 903.3206 729.4916C903.3206 716.8016 894.0406 707.0316 880.3706 705.5616C615.7206 676.2716 578.1206 635.2516 543.4606 367.6716C541.0206 354.4916 531.7406 345.7016 519.0406 345.7016C506.3506 345.7016 497.0706 354.4916 495.1206 367.6716C460.4506 635.2516 422.3606 676.2716 158.2006 705.5616C144.0406 707.0316 134.7706 716.8016 134.7706 729.4916C134.7706 742.6716 144.0406 752.4416 158.2006 753.9016C421.8706 788.5716 458.5006 824.2216 495.1206 1091.3116C497.0706 1104.4916 506.3506 1113.7716 519.0406 1113.7716Z"/>
</svg>