<?xml version="1.0" encoding="UTF-8" standalone="no"?>
<svg xmlns="http://www.w3.org/2000/svg"
     width="1022.94921875" height="1081.0546875"
     viewBox="0 0 1022.94921875 1081.0546875"
     fill="currentColor">
  <path d="M203.6183 62.9847H819.8283C816.8983 21.4847 793.4583 0.0047 748.0483 0.0047H274.8983C229.9783 0.0047 206.5383 21.4847 203.6183 62.9847ZM103.0283 198.2447H920.4083C913.0883 153.8047 892.0883 129.3947 843.2583 129.3947H180.1783C131.3483 129.3947 110.3483 153.8047 103.0283 198.2447ZM153.3183 1081.0547H869.6283C971.1883 1081.0547 1022.9483 1030.2747 1022.9483 929.6847V428.2247C1022.9483 327.6347 971.1883 276.8547 869.6283 276.8547H153.3183C50.7783 276.8547 -0.0017 327.6347 -0.0017 428.2247V929.6847C-0.0017 1030.2747 50.7783 1081.0547 153.3183 1081.0547ZM154.2983 1002.4447C105.4683 1002.4447 78.6183 976.0747 78.6183 925.2947V432.6147C78.6183 381.8347 105.4683 355.4647 154.2983 355.4647H868.1683C916.5083 355.4647 944.3383 381.8347 944.3383 432.6147V925.2947C944.3383 976.0747 916.5083 1002.4447 868.1683 1002.4447ZM535.1583 875.9747C544.4383 875.9747 550.7783 869.6247 552.7383 860.3547C579.5883 716.7947 592.7783 689.9447 742.1883 669.9247C751.9483 668.4547 758.7883 661.6247 758.7883 652.3447C758.7883 643.0647 751.9483 636.2347 742.1883 634.2747C593.2583 614.2547 574.2183 585.9347 552.7383 444.8247C551.2683 435.0547 544.4383 428.7147 535.1583 428.7147C526.3683 428.7147 519.0383 434.5747 517.0883 444.3347C490.2383 588.3747 477.0483 614.2547 327.6383 634.2747C317.8683 636.2347 311.5283 643.0647 311.5283 652.3447C311.5283 661.6247 317.8683 668.4547 327.6383 669.9247C477.5383 685.0547 496.0983 716.7947 517.0883 859.8647C518.5583 869.6247 525.3883 875.9747 535.1583 875.9747ZM343.2583 955.5647C349.6083 955.5647 354.9783 951.1747 356.4483 944.8247C370.1183 873.5347 365.2383 870.1147 442.8683 858.3947C449.7083 857.4247 454.0983 851.5647 454.0983 844.7247C454.0983 838.3747 449.7083 832.5147 442.8683 831.5447C365.2383 818.8447 370.1183 815.4247 356.4483 746.5847C354.9783 739.2547 350.0983 733.8847 343.2583 733.8847C336.4283 733.8847 331.5383 738.7647 329.5883 746.5847C315.4283 815.4247 321.2883 818.8447 243.6483 831.5447C236.3283 832.5147 232.4183 838.3747 232.4183 844.7247C232.4183 852.5347 236.3283 857.4247 244.6283 858.3947C321.2883 870.1147 315.4283 873.5347 329.5883 943.3547C331.5383 950.6847 335.9383 955.5647 343.2583 955.5647Z"/>
</svg>