<?xml version="1.0" encoding="UTF-8" standalone="no"?>
<svg xmlns="http://www.w3.org/2000/svg"
     width="954.1015625" height="963.37890625"
     viewBox="0 0 954.1015625 963.37890625"
     fill="currentColor">
  <path d="M-0.0047 389.6444C-0.0047 604.4944 174.8053 779.2944 389.6453 779.2944C474.6053 779.2944 552.2453 751.9544 616.2153 706.0544L856.4453 946.7744C867.6753 958.0044 882.3253 963.3744 897.9453 963.3744C931.1553 963.3744 954.1053 938.4744 954.1053 905.7644C954.1053 890.1344 948.2453 875.9744 937.9853 865.7244L699.2153 625.4844C749.5153 560.0544 779.2953 478.5144 779.2953 389.6444C779.2953 174.8044 604.4953 0.0044 389.6453 0.0044C174.8053 0.0044 -0.0047 174.8044 -0.0047 389.6444ZM83.4953 389.6444C83.4953 220.7044 220.7053 83.4944 389.6453 83.4944C558.5953 83.4944 695.8053 220.7044 695.8053 389.6444C695.8053 558.5944 558.5953 695.8044 389.6453 695.8044C220.7053 695.8044 83.4953 558.5944 83.4953 389.6444ZM390.1353 594.7244C397.9453 594.7244 404.2953 588.3744 406.2453 580.5644C430.6653 448.2444 442.8753 423.8244 580.0753 405.2744C588.8653 404.2944 594.7253 397.9444 594.7253 389.6444C594.7253 381.3444 588.8653 375.0044 580.0753 373.0444C443.3553 354.4944 425.7853 329.1044 406.2453 199.2144C404.7853 190.4344 397.9453 184.5744 390.1353 184.5744C381.8353 184.5744 375.4853 189.9444 373.5353 198.7344C348.6353 331.5444 336.9153 354.4944 199.7053 373.0444C190.9153 375.0044 185.0553 381.3444 185.0553 389.6444C185.0553 397.9444 190.9153 403.8044 199.7053 405.2744C336.9153 418.9444 354.4953 448.2444 373.5353 580.0744C374.9953 588.3744 381.3453 594.7244 390.1353 594.7244Z"/>
</svg>