<?xml version="1.0" encoding="UTF-8" standalone="no"?>
<svg xmlns="http://www.w3.org/2000/svg"
     width="1003.41796875" height="1061.5234375"
     viewBox="0 0 1003.41796875 1061.5234375"
     fill="currentColor">
  <path d="M193.8483 62.9908H810.0583C807.1283 21.4808 783.6883 0.0008 738.2783 0.0008H265.1383C220.2183 0.0008 196.7783 21.4808 193.8483 62.9908ZM93.2583 198.2408H910.6483C903.3183 153.8108 882.3283 129.3908 833.4983 129.3908H170.4083C121.5783 129.3908 100.5883 153.8108 93.2583 198.2408ZM148.4383 1061.5208H854.9783C953.1283 1061.5208 1003.4183 1011.7208 1003.4183 914.5508V423.3408C1003.4183 326.1708 953.1283 276.8508 854.9783 276.8508H148.4383C49.3183 276.8508 -0.0017 326.1708 -0.0017 423.3408V914.5508C-0.0017 1011.7208 49.3183 1061.5208 148.4383 1061.5208ZM526.8583 871.0908C516.5983 871.0908 509.2783 864.7508 507.8083 854.4908C486.3283 707.5208 467.2883 674.8008 312.9883 659.1808C302.7383 657.7108 296.3883 650.3908 296.3883 640.6208C296.3883 631.3508 302.7383 624.0208 312.9883 622.0708C466.7983 601.5608 480.4683 574.7108 507.8083 426.2708C510.2583 416.5008 517.5783 410.1608 526.8583 410.1608C536.1283 410.1608 543.4583 416.9908 544.9183 426.7608C566.8983 572.2608 586.9183 601.5608 740.2383 622.0708C749.9983 624.0208 757.3283 631.3508 757.3283 640.6208C757.3283 650.3908 749.9983 657.7108 740.2383 659.1808C586.4283 679.6908 572.7583 707.5208 544.9183 854.9808C542.9683 864.7508 536.1283 871.0908 526.8583 871.0908ZM328.6183 953.6108C321.2883 953.6108 316.8983 948.2408 314.4483 940.9208C299.8083 868.6508 306.1483 865.2308 227.0483 853.5108C218.7483 852.0508 214.3583 847.1708 214.3583 839.3508C214.3583 832.5208 218.7483 826.6608 226.0783 825.6808C306.1483 812.5008 299.8083 809.0808 314.4483 737.7908C316.8983 729.9808 321.7783 724.6108 328.6183 724.6108C336.4283 724.6108 340.8183 730.4708 342.7783 737.7908C356.4483 809.0808 351.5583 812.5008 431.6383 825.6808C438.4783 826.6608 443.3583 832.5208 443.3583 839.3508C443.3583 846.1908 438.4783 852.0508 431.6383 853.5108C351.5583 865.2308 356.4483 868.6508 342.7783 942.3808C340.8183 948.7308 335.9383 953.6108 328.6183 953.6108Z"/>
</svg>