<?xml version="1.0" encoding="UTF-8" standalone="no"?>
<svg xmlns="http://www.w3.org/2000/svg"
     width="911.62109375" height="923.583984375"
     viewBox="0 0 911.62109375 923.583984375"
     fill="currentColor">
  <path d="M678.9563 557.6148V57.6148C678.9563 25.8748 656.0063 0.0048 622.8063 0.0048C599.8563 0.0048 584.7163 10.2548 559.3263 33.6948L363.0363 215.8248C360.5963 217.7748 357.6663 219.7248 354.7363 219.7248H340.0863ZM847.4163 912.5948C862.0563 927.2448 886.4763 927.2448 900.6363 912.5948C915.2863 897.4648 915.2863 874.0248 900.6363 859.3748L64.6963 23.4348C50.0463 8.7848 25.6363 8.7848 10.9863 23.4348C-3.6637 37.5948 -3.6637 62.5048 10.9863 76.6648ZM197.0263 628.9048H336.1863C341.0663 628.9048 344.9663 630.3748 348.3863 633.3048L559.3263 830.5648C582.2763 852.0548 600.8263 861.3248 623.2863 861.3248C648.6863 861.3248 667.7263 848.6348 675.5363 820.8048L118.8963 264.6448C104.7363 280.7648 97.4163 305.1748 97.4163 337.8948V524.9048C97.4163 595.7048 130.6163 628.9048 197.0263 628.9048Z"/>
</svg>