<?xml version="1.0" encoding="UTF-8" standalone="no"?>
<svg xmlns="http://www.w3.org/2000/svg"
     width="868.1640625" height="861.328125"
     viewBox="0 0 868.1640625 861.328125"
     fill="currentColor">
  <path d="M526.3642 861.3248C558.5942 861.3248 581.5442 838.3748 581.5442 806.6448V57.6148C581.5442 25.8748 558.5942 0.0048 525.3942 0.0048C502.4442 0.0048 486.8142 9.7648 462.4042 33.6948L253.9042 229.0048C250.9742 231.9348 246.5842 233.3948 241.7042 233.3948H102.0542C35.6442 233.3948 0.0042 270.0148 0.0042 340.3348V521.9748C0.0042 592.7748 35.6442 628.9048 102.0542 628.9048H241.7042C246.5842 628.9048 250.9742 630.3748 253.9042 633.3048L462.4042 830.5648C484.3742 852.0548 503.4142 861.3248 526.3642 861.3248ZM755.8642 638.1848C771.9742 649.4148 794.9242 645.9948 808.1042 626.9548C845.7042 577.6348 868.1642 504.8848 868.1642 430.1748C868.1642 355.4648 845.7042 283.2048 808.1042 233.3948C794.9242 214.3548 771.9742 210.4448 755.8642 222.1648C735.8442 235.8348 732.9142 260.2548 748.0442 280.2748C776.3642 319.3348 792.4842 373.5348 792.4842 430.1748C792.4842 486.8148 775.8742 540.5248 748.0442 580.0748C733.3942 600.5848 735.8442 624.0248 755.8642 638.1848Z"/>
</svg>