<?xml version="1.0" encoding="UTF-8" standalone="no"?>
<svg xmlns="http://www.w3.org/2000/svg"
     width="1310.546875" height="943.1238347412728"
     viewBox="0 0 1310.546875 943.1238347412728"
     fill="currentColor">
  <path d="M1120.1142 936.464C1136.7142 948.674 1160.6442 943.794 1173.8242 924.264C1259.2742 800.724 1310.5442 643.984 1310.5442 471.624C1310.5442 298.774 1257.8142 143.014 1173.8242 18.984C1160.6442 -1.036 1136.7142 -5.426 1120.1142 6.784C1101.5642 19.474 1099.1242 42.424 1112.3042 62.444C1187.9842 174.264 1235.8442 314.884 1235.8442 471.624C1235.8442 627.874 1187.9842 769.474 1112.3042 880.804C1099.1242 900.824 1101.5642 923.774 1120.1142 936.464ZM526.3642 902.774C558.5942 902.774 581.5442 879.824 581.5442 848.094V99.064C581.5442 67.324 558.5942 41.454 525.3942 41.454C502.4442 41.454 486.8142 51.214 462.4042 75.144L253.9042 270.454C250.9742 273.384 246.5842 274.844 241.7042 274.844H102.0542C35.6442 274.844 0.0042 311.464 0.0042 381.784V563.424C0.0042 634.224 35.6442 670.354 102.0542 670.354H241.7042C246.5842 670.354 250.9742 671.824 253.9042 674.754L462.4042 872.014C484.3742 893.504 503.4142 902.774 526.3642 902.774ZM937.0142 807.074C955.0742 819.284 977.5342 814.884 990.7242 796.334C1053.2242 710.394 1089.8442 592.234 1089.8442 471.624C1089.8442 351.024 1053.7142 231.874 990.7242 146.914C977.5342 128.364 955.0742 123.964 937.0142 136.174C918.9442 148.384 916.0142 171.334 930.1742 191.354C983.3942 266.544 1014.1642 367.624 1014.1642 471.624C1014.1642 575.624 982.4242 675.724 930.1742 751.894C916.5042 771.914 918.9442 794.864 937.0142 807.074ZM755.8642 679.634C771.9742 690.864 794.9242 687.444 808.1042 668.404C845.7042 619.084 868.1642 546.334 868.1642 471.624C868.1642 396.914 845.7042 324.654 808.1042 274.844C794.9242 255.804 771.9742 251.894 755.8642 263.614C735.8442 277.284 732.9142 301.704 748.0442 321.724C776.3642 360.784 792.4842 414.984 792.4842 471.624C792.4842 528.264 775.8742 581.974 748.0442 621.524C733.3942 642.034 735.8442 665.474 755.8642 679.634Z"/>
</svg>