<?xml version="1.0" encoding="UTF-8" standalone="no"?>
<svg xmlns="http://www.w3.org/2000/svg"
     width="591.30859375" height="861.328125"
     viewBox="0 0 591.30859375 861.328125"
     fill="currentColor">
  <path d="M99.6142 628.9048H239.2542C243.6542 628.9048 247.5542 630.3748 250.9742 633.3048L471.1942 830.5648C494.6242 851.5648 512.6942 861.3248 536.1342 861.3248C567.8742 861.3248 591.3042 838.3748 591.3042 806.6448V57.6148C591.3042 25.8748 567.8742 0.0048 535.1542 0.0048C511.7142 0.0048 497.0742 10.7448 471.1942 33.6948L250.9742 229.0048C247.5542 231.9348 243.6542 233.3948 239.2542 233.3948H99.6142C33.2042 233.3948 0.0042 267.0848 0.0042 337.8948V524.9048C0.0042 595.7048 33.2042 628.9048 99.6142 628.9048ZM103.0242 557.6148C84.4742 557.6148 76.1742 549.3148 76.1742 531.2548V331.5448C76.1742 312.9848 84.4742 304.6848 103.0242 304.6848H259.2742C271.9742 304.6848 281.2542 302.2448 292.4842 291.9948L500.4842 103.0248C502.9342 100.5848 505.8642 99.1248 508.7842 99.1248C512.2042 99.1248 515.1342 101.5648 515.1342 105.9548V754.8848C515.1342 759.2748 512.2042 762.2048 508.7842 762.2048C506.3442 762.2048 503.4142 760.7448 500.9742 758.3048L292.4842 570.3148C281.2542 560.5448 271.9742 557.6148 259.2742 557.6148Z"/>
</svg>