<?xml version="1.0" encoding="UTF-8" standalone="no"?>
<svg xmlns="http://www.w3.org/2000/svg"
     width="1076.171875" height="1010.25390625"
     viewBox="0 0 1076.171875 1010.25390625"
     fill="currentColor">
  <path d="M300.2883 1010.2519C324.2183 1010.2519 340.8183 997.5619 370.6083 971.1919L539.0583 821.2919H852.5383C998.0483 821.2919 1076.1683 740.7219 1076.1683 597.6519V223.6319C1076.1683 80.5619 998.0483 0.0019 852.5383 0.0019H223.6283C78.1283 0.0019 -0.0017 80.0819 -0.0017 223.6319V597.6519C-0.0017 741.2119 78.1283 821.2919 223.6283 821.2919H247.0683V948.2419C247.0683 985.8419 266.1183 1010.2519 300.2883 1010.2519ZM320.3083 920.9019V779.2919C320.3083 752.9319 310.0583 742.6719 283.6883 742.6719H223.6283C124.9983 742.6719 78.6183 692.3819 78.6183 597.1719V223.6319C78.6183 128.4219 124.9983 78.6119 223.6283 78.6119H852.5383C950.6883 78.6119 997.5583 128.4219 997.5583 223.6319V597.1719C997.5583 692.3819 950.6883 742.6719 852.5383 742.6719H536.1283C508.7883 742.6719 495.1183 746.5819 476.5583 765.6219ZM522.9483 630.8619C538.5783 630.8619 550.7783 618.6519 550.7783 602.5419V219.7219C550.7783 203.6119 538.5783 190.4319 522.4583 190.4319C510.2583 190.4319 502.9283 195.8019 490.2383 207.5219L383.7883 308.1019C381.8383 309.5719 379.8783 310.0619 377.4383 310.0619H305.6683C271.9683 310.0619 253.4183 328.6119 253.4183 364.2619V457.5219C253.4183 493.1619 271.9683 511.7219 305.6683 511.7219H377.4383C379.8783 511.7219 381.8383 512.2119 383.7883 513.6719L490.2383 615.2319C501.4683 625.9719 510.7383 630.8619 522.9483 630.8619ZM720.2183 584.9619C732.4183 592.7719 747.0683 590.3319 754.8783 578.6119C788.0883 532.2219 806.6383 472.6519 806.6383 410.1519C806.6383 349.1219 788.5783 289.5519 755.3683 242.1919C746.5783 229.9819 731.4483 227.0519 720.2183 234.8619C708.4983 244.1419 706.0583 258.7919 715.3283 271.4819C741.6983 308.5919 756.3483 357.9119 756.3483 410.1519C756.3483 461.9119 741.6983 513.1819 714.8483 548.8319C705.5683 561.5219 707.5183 577.1519 720.2183 584.9619ZM633.2983 520.5119C644.5283 528.8119 659.6683 525.3919 668.4583 514.1619C688.4783 488.2819 699.7083 450.1919 699.7083 410.1519C699.7083 371.5819 687.9883 333.4919 668.4583 306.6419C660.1583 294.9219 644.5283 291.9919 633.2983 300.2919C621.0983 309.5719 619.1383 324.7119 627.9283 337.4019C641.1183 354.4919 648.9283 381.8319 648.9283 410.1519C648.9283 437.5019 640.6283 464.8419 627.9283 483.4019C619.1383 496.5819 621.0983 511.2319 633.2983 520.5119Z"/>
</svg>