<?xml version="1.0" encoding="UTF-8" standalone="no"?>
<svg xmlns="http://www.w3.org/2000/svg"
     width="911.62109375" height="923.583984375"
     viewBox="0 0 911.62109375 923.583984375"
     fill="currentColor">
  <path d="M688.7163 557.1248V57.6148C688.7163 25.8748 665.2863 0.0048 632.5663 0.0048C609.1263 0.0048 594.4863 10.7448 568.6063 33.6948L355.2263 223.1448L407.4663 275.8748L597.8963 103.0248C600.3463 100.5848 603.2763 99.1248 606.1963 99.1248C609.6163 99.1248 612.5463 101.5648 612.5463 105.9548V480.9548ZM847.4163 912.5948C862.0563 927.2448 886.4763 927.2448 900.6363 912.5948C915.2863 897.4648 915.2863 874.0248 900.6363 859.3748L64.6963 23.4348C50.0463 8.7848 25.6363 8.7848 10.9863 23.4348C-3.6637 37.5948 -3.6637 62.5048 10.9863 76.6648ZM197.0263 628.9048H336.6663C341.0663 628.9048 344.9663 630.3748 348.3863 633.3048L568.6063 830.5648C592.5263 851.5648 610.1063 861.3248 633.5463 861.3248C652.5863 861.3248 668.2163 852.5348 679.4463 835.9348L622.8063 779.7848L386.9663 568.3548C377.1963 559.5748 371.3363 557.6148 358.6463 557.6148H200.4363C181.8863 557.6148 173.5863 549.3148 173.5863 531.2548V330.0748L114.9863 271.4848C103.7563 287.1048 97.4163 309.0848 97.4163 337.8948V524.9048C97.4163 595.7048 130.6163 628.9048 197.0263 628.9048Z"/>
</svg>