<?xml version="1.0" encoding="UTF-8" standalone="no"?>
<svg xmlns="http://www.w3.org/2000/svg"
     width="898.92578125" height="898.92578125"
     viewBox="0 0 898.92578125 898.92578125"
     fill="currentColor">
  <path d="M153.3183 898.9295H745.6083C848.1483 898.9295 898.9283 848.1495 898.9283 747.5595V151.3695C898.9283 50.7795 848.1483 -0.0005 745.6083 -0.0005H153.3183C51.2683 -0.0005 -0.0017 50.2895 -0.0017 151.3695V747.5595C-0.0017 848.6295 51.2683 898.9295 153.3183 898.9295ZM543.4583 689.9395C530.2783 689.9395 519.5283 685.5495 506.8383 672.8495L391.1183 562.4995C389.6483 561.0395 385.7383 560.0595 383.2983 560.0595H305.6683C268.0683 560.0595 248.0483 540.0395 248.0483 500.4895V398.4395C248.0483 358.8895 268.0683 338.8695 305.6683 338.8695H383.2983C385.7383 338.8695 389.6483 337.8895 391.1183 336.4295L506.8383 226.5595C521.4883 213.3795 529.7883 208.0095 542.9683 208.0095C561.0383 208.0095 573.7283 222.6595 573.7283 240.2295V659.6695C573.7283 677.7295 561.0383 689.9395 543.4583 689.9395Z"/>
</svg>