<?xml version="1.0" encoding="UTF-8" standalone="no"?>
<svg xmlns="http://www.w3.org/2000/svg"
     width="1208.0078125" height="861.328125"
     viewBox="0 0 1208.0078125 861.328125"
     fill="currentColor">
  <path d="M526.3683 861.3248C558.5983 861.3248 581.5383 838.3748 581.5383 806.6448V57.6148C581.5383 25.8748 558.5983 0.0048 525.3883 0.0048C502.4383 0.0048 486.8183 9.7648 462.3983 33.6948L253.9083 229.0048C250.9783 231.9348 246.5783 233.3948 241.6983 233.3948H102.0483C35.6483 233.3948 -0.0017 270.0148 -0.0017 340.3348V521.9748C-0.0017 592.7748 35.6483 628.9048 102.0483 628.9048H241.6983C246.5783 628.9048 250.9783 630.3748 253.9083 633.3048L462.3983 830.5648C484.3783 852.0548 503.4183 861.3248 526.3683 861.3248ZM778.8083 471.1948H1161.6183C1188.9683 471.1948 1208.0083 456.5448 1208.0083 430.6648C1208.0083 404.2948 1190.4283 389.1648 1161.6183 389.1648H778.8083C750.4883 389.1648 731.9383 404.2948 731.9383 430.6648C731.9383 456.5448 751.4683 471.1948 778.8083 471.1948Z"/>
</svg>