<?xml version="1.0" encoding="UTF-8" standalone="no"?>
<svg xmlns="http://www.w3.org/2000/svg"
     width="996.09375" height="996.09375"
     viewBox="0 0 996.09375 996.09375"
     fill="currentColor">
  <path d="M498.0477 996.0959C770.5077 996.0959 996.0977 770.0159 996.0977 498.0459C996.0977 225.5859 770.0177 -0.0041 497.5577 -0.0041C225.5877 -0.0041 -0.0023 225.5859 -0.0023 498.0459C-0.0023 770.0159 226.0777 996.0959 498.0477 996.0959ZM498.0477 913.0859C267.5777 913.0859 83.4977 728.5159 83.4977 498.0459C83.4977 267.5759 267.0877 83.0059 497.5577 83.0059C728.0277 83.0059 913.0877 267.5759 913.0877 498.0459C913.0877 728.5159 728.5177 913.0859 498.0477 913.0859ZM586.9177 731.9359C604.0077 731.9359 616.6977 719.7259 616.6977 702.1459V295.4059C616.6977 278.8059 604.0077 264.6459 586.4277 264.6459C573.7277 264.6459 565.4277 270.0159 551.7577 282.7159L439.4577 388.6759C437.9877 390.6259 434.5677 391.1159 432.1277 391.1159H356.4477C319.8277 391.1159 300.7777 411.1359 300.7777 449.2159V547.8559C300.7777 585.9359 319.8277 605.9559 356.4477 605.9559H432.1277C434.5677 605.9559 437.9877 606.9359 439.4577 608.3959L551.7577 715.3359C563.9677 727.0459 574.2177 731.9359 586.9177 731.9359Z"/>
</svg>