<?xml version="1.0" encoding="UTF-8" standalone="no"?>
<svg xmlns="http://www.w3.org/2000/svg"
     width="1178.7109375" height="861.328125"
     viewBox="0 0 1178.7109375 861.328125"
     fill="currentColor">
  <path d="M99.1242 628.9048H239.2542C243.6542 628.9048 247.5542 630.3748 250.9742 633.3048L471.1942 830.5648C494.6242 851.5648 512.6942 861.3248 536.1342 861.3248C567.3842 861.3248 591.3042 838.3748 591.3042 806.6448V57.6148C591.3042 25.8748 567.3842 0.0048 535.1542 0.0048C511.7142 0.0048 496.5842 10.7448 471.1942 33.6948L250.9742 229.0048C247.5542 231.9348 243.6542 233.3948 239.2542 233.3948H99.1242C32.7142 233.3948 0.0042 267.0848 0.0042 337.8948V524.9048C0.0042 595.7048 33.2042 628.9048 99.1242 628.9048ZM1151.3642 314.4548H1035.6442V311.5248L1154.7842 154.7848C1165.5242 141.1148 1169.4342 132.8148 1169.4342 123.5348C1169.4342 107.4248 1156.7342 97.6548 1140.1342 97.6548H976.0742C959.9642 97.6548 948.7342 107.9148 948.7342 124.0248C948.7342 140.6248 959.9642 150.8748 976.0742 150.8748H1085.4542V152.8348L964.8442 309.5748C954.1042 323.2448 950.6842 331.5448 950.6842 342.2848C950.6842 356.9348 962.4042 367.6748 979.4942 367.6748H1151.3642C1167.4842 367.6748 1178.7142 357.4248 1178.7142 340.8248C1178.7142 325.1948 1167.4842 314.4548 1151.3642 314.4548ZM102.5342 557.6148C84.4742 557.6148 76.1742 549.3148 76.1742 531.2548V331.5448C76.1742 312.9848 84.4742 304.6848 102.5342 304.6848H258.7842C271.4842 304.6848 281.2542 302.2448 292.4842 291.9948L500.4842 103.0248C502.9342 100.5848 505.3742 99.1248 508.7842 99.1248C512.2042 99.1248 515.1342 101.5648 515.1342 105.9548V754.8848C515.1342 759.2748 512.2042 762.2048 508.7842 762.2048C506.3442 762.2048 503.4142 760.7448 500.4842 758.3048L292.4842 570.3148C281.2542 560.5448 271.4842 557.6148 258.7842 557.6148ZM864.2542 509.7648H782.7142V507.8148L867.1842 397.4648C876.9542 384.7648 881.3442 376.4648 881.3442 367.1848C881.3442 352.0548 869.1442 343.2648 853.0242 343.2648H728.5142C713.3742 343.2648 703.1242 353.0248 703.1242 367.6748C703.1242 384.2748 713.3742 393.5548 728.5142 393.5548H801.7542V395.5048L717.7742 505.3748C708.4942 518.0648 704.5942 525.8748 704.5942 536.1348C704.5942 550.2948 715.3342 560.5448 730.9542 560.5448H864.2542C879.3942 560.5448 889.6442 551.2648 889.6442 535.1548C889.6442 520.0148 879.3942 509.7648 864.2542 509.7648ZM1084.9642 689.4548H1015.6242V687.5048L1086.9142 592.2848C1096.6842 579.1048 1100.0942 572.2648 1100.0942 563.4748C1100.0942 548.8248 1088.8642 540.0348 1074.2142 540.0348H964.3542C949.7042 540.0348 939.9442 549.3148 939.9442 563.9648C939.9442 579.1048 949.7042 587.8948 964.3542 587.8948H1024.9042V589.8448L954.1042 685.0548C945.3142 697.2648 940.9142 704.5848 940.9142 713.8648C940.9142 727.5348 952.1442 737.3048 966.7942 737.3048H1084.9642C1098.6342 737.3048 1108.3942 728.0248 1108.3942 712.8948C1108.3942 698.7348 1098.6342 689.4548 1084.9642 689.4548Z"/>
</svg>