<?xml version="1.0" encoding="UTF-8" standalone="no"?>
<svg xmlns="http://www.w3.org/2000/svg"
     width="996.09375" height="996.09375"
     viewBox="0 0 996.09375 996.09375"
     fill="currentColor">
  <path d="M498.0477 996.0977C770.5077 996.0977 996.0977 770.5077 996.0977 498.0477C996.0977 226.0777 770.0177 -0.0023 497.5577 -0.0023C225.5877 -0.0023 -0.0023 226.0777 -0.0023 498.0477C-0.0023 770.5077 226.0777 996.0977 498.0477 996.0977ZM591.3077 739.7477C578.1277 739.7477 567.3877 734.8677 555.1777 722.6577L439.4577 611.8177C437.9877 610.3477 434.0777 609.8677 431.6377 609.8677H354.0077C315.9177 609.8677 296.3877 589.3577 296.3877 549.8077V448.2377C296.3877 408.2077 315.9177 388.1877 354.0077 388.1877H431.6377C434.0777 388.1877 437.9877 387.6977 439.4577 385.7377L555.1777 276.3677C569.3377 262.6977 577.6377 257.8077 590.8177 257.8077C608.8877 257.8077 622.0677 271.9677 622.0677 289.5477V708.9877C622.0677 727.0477 608.8877 739.7477 591.3077 739.7477Z"/>
</svg>