<?xml version="1.0" encoding="UTF-8" standalone="no"?>
<svg xmlns="http://www.w3.org/2000/svg"
     width="1089.84375" height="861.328125"
     viewBox="0 0 1089.84375 861.328125"
     fill="currentColor">
  <path d="M99.1242 628.9048H239.2542C243.6542 628.9048 247.5542 630.3748 250.9742 633.3048L471.1942 830.5648C494.6242 851.5648 512.6942 861.3248 536.1342 861.3248C567.3842 861.3248 591.3042 838.3748 591.3042 806.6448V57.6148C591.3042 25.8748 567.3842 0.0048 535.1542 0.0048C511.7142 0.0048 496.5842 10.7448 471.1942 33.6948L250.9742 229.0048C247.5542 231.9348 243.6542 233.3948 239.2542 233.3948H99.1242C32.7142 233.3948 0.0042 267.0848 0.0042 337.8948V524.9048C0.0042 595.7048 33.2042 628.9048 99.1242 628.9048ZM937.0142 765.6248C955.0742 777.8348 977.5342 773.4348 990.7242 754.8848C1053.2242 668.9448 1089.8442 550.7848 1089.8442 430.1748C1089.8442 309.5748 1053.7142 190.4248 990.7242 105.4648C977.5342 86.9148 955.0742 82.5148 937.0142 94.7248C918.9442 106.9348 916.0142 129.8848 930.1742 149.9048C983.3942 225.0948 1014.1642 326.1748 1014.1642 430.1748C1014.1642 534.1748 982.4242 634.2748 930.1742 710.4448C916.5042 730.4648 918.9442 753.4148 937.0142 765.6248ZM102.5342 557.6148C84.4742 557.6148 76.1742 549.3148 76.1742 531.2548V331.5448C76.1742 312.9848 84.4742 304.6848 102.5342 304.6848H258.7842C271.4842 304.6848 281.2542 302.2448 292.4842 291.9948L500.4842 103.0248C502.9342 100.5848 505.3742 99.1248 508.7842 99.1248C512.2042 99.1248 515.1342 101.5648 515.1342 105.9548V754.8848C515.1342 759.2748 512.2042 762.2048 508.7842 762.2048C506.3442 762.2048 503.4142 760.7448 500.4842 758.3048L292.4842 570.3148C281.2542 560.5448 271.4842 557.6148 258.7842 557.6148ZM756.3442 638.1848C772.4642 649.4148 795.4142 645.9948 808.5942 626.9548C846.1942 577.6348 868.6542 504.8848 868.6542 430.1748C868.6542 355.4648 846.1942 283.2048 808.5942 233.3948C795.4142 214.3548 772.4642 210.4448 756.3442 222.1648C736.3242 235.8348 733.3942 260.2548 748.5342 280.2748C776.8542 319.3348 792.9642 373.5348 792.9642 430.1748C792.9642 486.8148 776.3642 540.5248 748.5342 580.0748C733.8842 600.5848 736.3242 624.0248 756.3442 638.1848Z"/>
</svg>