<?xml version="1.0" encoding="UTF-8" standalone="no"?>
<svg xmlns="http://www.w3.org/2000/svg"
     width="1164.0625" height="923.33984375"
     viewBox="0 0 1164.0625 923.33984375"
     fill="currentColor">
  <path d="M39.0583 845.7073C61.0383 845.7073 78.6183 827.6373 78.6183 806.1473V722.6573H315.9183C346.1883 722.6573 361.3283 726.5673 382.8083 751.4673C430.6683 803.7073 494.6283 842.2873 576.6583 842.2873C658.1983 842.2873 707.5183 809.0773 762.2083 758.7873C784.1783 736.8173 812.9883 725.5873 838.3783 725.5873C886.7183 725.5873 925.2883 761.2273 925.2883 825.6873V893.5573C925.2883 914.0673 934.5683 923.3373 955.0783 923.3373H1133.7883C1154.2983 923.3373 1164.0583 914.0673 1164.0583 893.5573V848.1473C1164.0583 570.3173 999.9983 477.0473 841.7983 477.0473H820.7983C807.1283 477.0473 797.8483 469.2373 793.9483 458.4973L764.1583 377.9273C755.3683 353.5173 747.0683 347.1673 725.5883 347.1673H712.3983V291.5073C712.3983 252.9273 688.4783 229.0073 649.8983 229.0073H620.6083V169.9173C636.2283 161.6173 649.4183 148.4373 657.7183 132.3273L873.5383 156.2473C917.4783 161.1373 948.7283 132.8173 948.7283 90.3273C948.7283 48.3373 917.4783 20.5073 873.5383 25.3873L657.7183 48.8273C642.5783 20.0173 612.3083 -0.0027 577.1483 -0.0027C542.4783 -0.0027 512.2083 20.0173 497.0683 48.8273L281.2483 25.3873C236.8183 20.5073 205.5683 48.3373 205.5683 90.3273C205.5683 132.8173 236.8183 161.1373 281.2483 156.2473L497.0683 132.3273C505.3683 148.4373 518.5583 161.6173 534.1783 170.4073V229.0073H502.9283C464.8483 229.0073 440.9183 252.9273 440.9183 291.5073V347.1673H427.2483C405.7583 347.1673 397.9483 353.5173 388.6683 377.9273L359.3783 458.4973C354.9783 469.2373 345.6983 477.0473 332.5183 477.0473H78.6183V407.2273C78.6183 385.7373 61.0383 367.6773 39.0583 367.6773C17.5783 367.6773 -0.0017 385.7373 -0.0017 407.2273V806.1473C-0.0017 827.6373 17.5783 845.7073 39.0583 845.7073Z"/>
</svg>