<?xml version="1.0" encoding="UTF-8" standalone="no"?>
<svg xmlns="http://www.w3.org/2000/svg"
     width="1178.7109375" height="937.98828125"
     viewBox="0 0 1178.7109375 937.98828125"
     fill="currentColor">
  <path d="M39.0583 845.7073C61.0383 845.7073 78.6183 827.6373 78.6183 806.1473V737.3073H315.9183C343.2583 737.3073 353.5183 740.2373 371.5783 760.7373C421.3883 815.4273 491.2083 856.4473 576.6583 856.4473C662.1083 856.4473 716.3083 820.3173 772.4583 768.5573C791.9883 749.9973 816.4083 739.7473 838.3783 739.7473C878.9083 739.7473 910.6483 769.5273 910.6483 825.1973V893.5573C910.6483 919.9173 928.7083 937.9873 955.0783 937.9873H1133.7883C1160.1583 937.9873 1178.7083 919.9173 1178.7083 893.5573V847.6573C1178.7083 561.0373 1002.9283 461.9173 841.7983 461.9173H820.7983C814.4483 461.9173 809.5683 458.4973 807.6183 453.1273L777.8283 373.0473C767.5783 344.2373 751.9483 332.0273 725.5883 332.0273H722.6583V291.5073C722.6583 249.0273 692.8683 219.2373 650.8783 219.2373H620.6083V169.9173C636.2283 161.6173 649.4183 148.4373 657.7183 132.3273L873.5383 155.7573C917.4783 161.1373 948.7283 132.8173 948.7283 90.3273C948.7283 48.3373 917.4783 20.0173 873.5383 24.8973L657.7183 48.8273C642.5783 20.0173 612.3083 -0.0027 577.1483 -0.0027C542.4783 -0.0027 512.2083 20.0173 497.0683 48.8273L281.2483 24.8973C236.8183 20.0173 205.5683 48.3373 205.5683 90.3273C205.5683 132.8173 236.8183 161.1373 281.2483 155.7573L497.0683 132.3273C505.3683 148.4373 518.5583 161.6173 534.1783 169.9173V219.2373H502.4383C459.9583 219.2373 430.1783 249.0273 430.1783 291.5073V332.0273H427.2483C400.8783 332.0273 385.7383 344.2373 374.9983 373.0473L345.6983 453.1273C343.2583 458.4973 338.3783 461.9173 332.5183 461.9173H78.6183V407.2273C78.6183 385.7373 61.0383 367.6773 39.0583 367.6773C17.5783 367.6773 -0.0017 385.7373 -0.0017 407.2273V806.1473C-0.0017 827.6373 17.5783 845.7073 39.0583 845.7073ZM496.5783 298.8273C496.5783 285.1573 506.3483 275.8773 519.5283 275.8773H633.7883C646.9683 275.8773 656.2483 285.1573 656.2483 298.8273V332.0273H496.5783ZM981.9383 866.6973V825.1973C981.9383 697.7573 905.2783 667.4773 842.7783 667.4773C793.9483 667.4773 757.3283 687.0073 722.6583 720.2173C690.9183 749.0273 650.3883 785.1573 576.6583 785.1573C501.9483 785.1573 458.4983 751.4673 423.8283 712.8873C393.5583 676.7573 369.6283 666.0173 319.8283 666.0173H78.6183V533.2073H337.3983C383.7883 533.2073 399.4183 514.1573 411.6183 480.9573L439.9383 403.3173H713.3783L741.6983 480.9573C753.9083 514.1573 769.0383 533.2073 815.9183 533.2073H841.3083C984.3783 533.2073 1107.9083 614.2573 1107.9083 847.6573V866.6973Z"/>
</svg>