<?xml version="1.0" encoding="UTF-8" standalone="no"?>
<svg xmlns="http://www.w3.org/2000/svg"
     width="996.09375" height="996.09375"
     viewBox="0 0 996.09375 996.09375"
     fill="currentColor">
  <path d="M498.0477 996.0959C770.5077 996.0959 996.0977 770.0159 996.0977 498.0459C996.0977 225.5859 770.0177 -0.0041 497.5577 -0.0041C225.5877 -0.0041 -0.0023 225.5859 -0.0023 498.0459C-0.0023 770.0159 226.0777 996.0959 498.0477 996.0959ZM498.0477 913.0859C267.5777 913.0859 83.4977 728.5159 83.4977 498.0459C83.4977 267.5759 267.0877 83.0059 497.5577 83.0059C728.0277 83.0059 913.0877 267.5759 913.0877 498.0459C913.0877 728.5159 728.5177 913.0859 498.0477 913.0859ZM266.1177 704.5859H479.4877V613.7659C423.8277 605.4659 381.3477 557.1259 381.3477 498.5359C381.3477 440.9159 423.8277 392.5759 479.4877 384.2759V292.9659H266.1177C219.2377 292.9659 195.7977 316.4059 195.7977 362.3059V387.6959H260.7377C290.0377 387.6959 308.5977 406.2459 308.5977 436.0359V561.5259C308.5977 590.8159 290.0377 608.8859 260.7377 608.8859H195.7977V635.2559C195.7977 681.1559 219.2377 704.5859 266.1177 704.5859ZM514.1577 704.5859H729.0077C775.8777 704.5859 799.3177 681.1559 799.3177 635.2559V608.8859H734.3777C705.0777 608.8859 687.0077 590.8159 687.0077 561.5259V436.0359C687.0077 406.2459 705.0777 387.6959 734.3777 387.6959H799.3177V362.3059C799.3177 316.4059 775.8777 292.9659 729.0077 292.9659H514.1577V384.2759C570.3077 392.5759 612.7977 440.9159 612.7977 498.5359C612.7977 557.1259 570.3077 605.4659 514.1577 613.7659ZM479.4877 578.6159V419.4359C442.3877 427.2459 416.0177 458.9859 416.0177 498.5359C416.0177 539.0659 442.3877 570.7959 479.4877 578.6159ZM514.1577 578.6159C551.7577 570.7959 578.1277 539.0659 578.1277 498.5359C578.1277 458.9859 551.7577 427.2459 514.1577 419.4359ZM195.7977 574.2159H259.2777C268.0677 574.2159 273.9277 569.3359 273.9277 559.5659V437.0159C273.9277 428.2259 268.0677 422.3659 259.2777 422.3659H195.7977ZM799.3177 574.2159V422.3659H735.8377C727.5377 422.3659 721.6777 428.2259 721.6777 437.0159V559.5659C721.6777 569.3359 727.5377 574.2159 735.8377 574.2159Z"/>
</svg>