<?xml version="1.0" encoding="UTF-8" standalone="no"?>
<svg xmlns="http://www.w3.org/2000/svg"
     width="996.09375" height="996.09375"
     viewBox="0 0 996.09375 996.09375"
     fill="currentColor">
  <path d="M498.0477 996.0959C770.5077 996.0959 996.0977 770.0159 996.0977 498.0459C996.0977 225.5859 770.0177 -0.0041 497.5577 -0.0041C225.5877 -0.0041 -0.0023 225.5859 -0.0023 498.0459C-0.0023 770.0159 226.0777 996.0959 498.0477 996.0959ZM258.7877 710.9359C210.4477 710.9359 186.0377 687.0159 186.0377 639.6459V612.3059H253.4177C283.2077 612.3059 302.7377 593.7459 302.7377 563.4759V434.0859C302.7377 403.3159 283.2077 384.2759 253.4177 384.2759H186.0377V357.9059C186.0377 310.5459 210.4477 286.6259 258.7877 286.6259H479.0077V380.8559C421.3877 389.1559 377.9277 438.9659 377.9277 498.5359C377.9277 559.0859 421.3877 608.8859 479.0077 617.1859V710.9359ZM514.6477 710.9359V617.1859C572.7577 608.8859 616.2077 559.0859 616.2077 498.5359C616.2077 438.9659 572.7577 389.1559 514.6477 380.8559V286.6259H736.3277C784.6677 286.6259 809.0777 310.5459 809.0777 357.9059V384.2759H741.6977C711.9177 384.2759 692.8677 403.3159 692.8677 434.0859V563.4759C692.8677 593.7459 711.9177 612.3059 741.6977 612.3059H809.0777V639.6459C809.0777 687.0159 784.6677 710.9359 736.3277 710.9359ZM479.0077 581.0559C440.9177 572.7559 413.5777 540.0359 413.5777 498.5359C413.5777 458.0059 440.9177 425.2959 479.0077 416.9959ZM514.6477 581.0559V416.9959C553.2277 425.2959 580.5677 458.0059 580.5677 498.5359C580.5677 540.0359 553.2277 572.7559 514.6477 581.0559ZM186.0377 576.6559V419.9259H251.4677C260.7377 419.9259 266.5977 426.2659 266.5977 435.0559V561.5259C266.5977 571.2859 260.7377 576.6559 251.4677 576.6559ZM809.0777 576.6559H743.6477C734.8677 576.6559 729.0077 571.2859 729.0077 561.5259V435.0559C729.0077 426.2659 734.8677 419.9259 743.6477 419.9259H809.0777Z"/>
</svg>