<?xml version="1.0" encoding="UTF-8" standalone="no"?>
<svg xmlns="http://www.w3.org/2000/svg"
     width="1319.3359375" height="898.92578125"
     viewBox="0 0 1319.3359375 898.92578125"
     fill="currentColor">
  <path d="M153.3183 898.9295H1166.5083C1268.5583 898.9295 1319.3383 848.1495 1319.3383 747.5595V151.3695C1319.3383 50.7795 1268.5583 -0.0005 1166.5083 -0.0005H153.3183C51.2683 -0.0005 -0.0017 50.2895 -0.0017 151.3695V747.5595C-0.0017 848.6295 51.2683 898.9295 153.3183 898.9295ZM154.2983 820.3095C105.4683 820.3095 78.6183 794.4295 78.6183 743.6495V666.4995H199.2183C264.1583 666.4995 301.7583 628.9095 301.7583 564.9395V333.4995C301.7583 269.5295 264.1583 231.9295 199.2183 231.9295H78.6183V155.2695C78.6183 104.4895 105.4683 78.6095 154.2983 78.6095H624.0283V220.6995C506.8383 233.8895 428.2183 323.2395 428.2183 449.2195C428.2183 574.2195 506.8383 663.5695 624.0283 677.7295V820.3095ZM888.6683 449.2195C887.6983 326.6595 809.0783 236.8195 692.8683 221.1895V78.6095H1165.0383C1213.3783 78.6095 1240.7183 104.4895 1240.7183 155.2695V231.9295H1120.1183C1055.1783 231.9295 1018.0683 269.5295 1018.0683 333.4995V564.9395C1018.0683 628.9095 1055.1783 666.4995 1120.1183 666.4995H1240.7183V743.6495C1240.7183 794.4295 1213.3783 820.3095 1165.0383 820.3095H692.8683V677.7295C811.0383 663.0895 890.1383 573.7295 888.6683 449.2195ZM823.7283 448.7295C823.2383 534.1795 770.9983 597.1695 692.8683 611.3295V287.5995C771.4883 301.2695 824.2183 364.2595 823.7283 448.7295ZM493.1683 448.7295C493.1683 364.2595 545.4083 301.7595 624.0283 287.5995V611.3295C545.4083 597.1695 493.1683 534.1795 493.1683 448.7295ZM1120.6083 597.6595C1099.6083 597.6595 1086.9183 584.9595 1086.9183 562.9895V335.4495C1086.9183 313.4795 1099.6083 300.7795 1120.6083 300.7795H1240.7183V597.6595ZM198.7283 300.7795C220.2183 300.7795 232.9083 313.4795 232.9083 335.4495V562.9895C232.9083 584.9595 220.2183 597.6595 198.7283 597.6595H78.6183V300.7795Z"/>
</svg>