<?xml version="1.0" encoding="UTF-8" standalone="no"?>
<svg xmlns="http://www.w3.org/2000/svg"
     width="895.5078125" height="965.33203125"
     viewBox="0 0 895.5078125 965.33203125"
     fill="currentColor">
  <path d="M447.75 80.5619C470.21 80.5619 487.3 62.0119 487.3 40.0419C487.3 17.5819 469.73 0.0019 447.75 0.0019C425.29 0.0019 407.23 17.5819 407.23 40.0419C407.23 62.0119 424.8 80.5619 447.75 80.5619ZM720.7 153.8119C736.33 169.9219 761.72 168.9419 776.86 153.3219C792.97 137.6919 792.97 112.7919 777.34 97.1719C761.23 81.0519 735.84 81.0519 720.21 97.1719C704.59 112.3019 704.1 137.6919 720.7 153.8119ZM174.8 153.8119C191.41 137.6919 190.92 112.3019 175.29 97.1719C159.67 81.0519 134.28 81.0519 118.16 97.1719C102.54 112.7919 102.54 137.6919 118.65 153.3219C133.79 168.9419 159.18 169.9219 174.8 153.8119ZM447.75 234.3719C476.07 234.3719 499.02 210.4519 499.02 182.1319C499.02 153.8119 476.07 129.8819 447.75 129.8819C418.46 129.8819 395.51 153.8119 395.51 182.1319C395.51 210.4519 418.46 234.3719 447.75 234.3719ZM611.82 262.6919C631.35 283.2019 664.55 282.7119 685.06 261.7219C705.08 242.1919 705.08 208.9819 685.06 189.4519C664.55 168.4619 631.35 168.9419 611.82 188.9619C591.31 208.9819 590.82 242.1919 611.82 262.6919ZM283.69 262.6919C304.2 242.1919 303.71 208.9819 283.69 188.9619C264.16 168.9419 230.96 168.4619 210.45 189.4519C190.43 208.9819 190.43 242.1919 210.45 261.7219C230.96 282.7119 264.16 283.2019 283.69 262.6919ZM57.62 965.3319H837.89C858.89 965.3319 876.95 947.7519 876.95 926.7619C876.95 904.7819 858.89 887.6919 837.89 887.6919H540.53V714.3519C572.27 714.3519 595.21 691.4019 595.21 658.6919V585.9419C595.21 553.7119 572.27 531.2519 540.04 531.2519H530.76V480.4719H540.04C572.27 480.4719 595.21 457.5219 595.21 425.2919V391.1119C595.21 338.3819 556.64 301.2719 500.98 301.2719H394.04C338.87 301.2719 300.29 338.3819 300.29 391.1119V425.2919C300.29 457.5219 323.24 480.4719 354.98 480.4719H364.75V531.2519H355.47C323.24 531.2519 300.29 553.7119 300.29 585.9419V658.6919C300.29 691.4019 322.75 713.8719 354.98 714.3519V887.6919H57.62C36.62 887.6919 18.55 904.7819 18.55 926.7619C18.55 947.7519 36.62 965.3319 57.62 965.3319ZM234.38 414.0619C234.38 384.7619 210.94 361.3319 182.13 361.3319C153.81 361.3319 130.37 384.7619 130.37 414.0619C130.37 441.8919 153.81 465.3319 182.13 465.3319C210.94 465.3319 234.38 441.8919 234.38 414.0619ZM661.13 414.0619C661.13 441.8919 684.57 465.3319 713.38 465.3319C741.7 465.3319 765.14 441.8919 765.14 414.0619C765.14 384.7619 741.7 361.3319 713.38 361.3319C684.57 361.3319 661.13 384.7619 661.13 414.0619ZM375.98 419.4319C368.65 419.4319 363.77 414.5519 363.77 406.7419V391.1119C363.77 371.0919 374.51 362.3019 396.48 362.3019H498.54C521 362.3019 531.74 371.0919 531.74 391.1119V406.7419C531.74 414.5519 526.86 419.4319 519.04 419.4319ZM80.57 414.0619C80.57 390.6219 62.01 373.5319 40.53 373.5319C18.07 373.5319 0 391.1119 0 414.0619C0 436.0319 18.07 453.6119 40.53 453.6119C62.01 453.6119 80.57 436.5219 80.57 414.0619ZM814.94 414.0619C814.94 436.5219 833.5 453.6119 854.98 453.6119C877.44 453.6119 895.51 436.0319 895.51 414.0619C895.51 391.1119 877.44 373.5319 854.98 373.5319C833.5 373.5319 814.94 390.6219 814.94 414.0619ZM430.18 531.2519V480.4719H465.33V531.2519ZM374.02 652.8319C366.21 652.8319 361.33 648.4419 361.33 640.6219V604.9819C361.33 597.1719 366.21 592.2819 374.02 592.2819H521.48C529.3 592.2819 534.18 597.1719 534.18 604.9819V640.6219C534.18 648.4419 529.3 652.8319 521.48 652.8319ZM420.41 887.6919V714.3519H475.1V887.6919Z"/>
</svg>