<?xml version="1.0" encoding="UTF-8" standalone="no"?>
<svg xmlns="http://www.w3.org/2000/svg"
     width="1045.3498968529727" height="1083.984375"
     viewBox="0 0 1045.3498968529727 1083.984375"
     fill="currentColor">
  <path d="M673.7109 560.5508L990.1109 376.9508C1029.6609 354.0008 1044.8009 335.9408 1044.8009 309.0808C1044.8009 282.7108 1029.6609 264.6508 990.1109 241.7008L608.2809 20.0208C584.8409 6.3508 565.8009 0.0008 546.2609 0.0008C526.2409 0.0008 507.6909 6.3508 483.7609 20.0208L262.0809 148.4408ZM981.3209 1056.6408C995.4809 1070.8008 1019.9009 1071.2908 1034.5509 1056.6408C1048.7109 1041.5008 1049.1909 1018.0708 1034.5509 1003.4208L64.3309 33.6908C49.6809 19.0408 25.2709 19.0408 10.6209 33.6908C-3.5391 47.8508 -3.5391 72.7508 10.6209 86.9108ZM348.5109 519.5308L83.8609 254.8808C57.0109 273.4408 46.7509 288.5708 46.7509 310.5508C46.7509 335.9408 60.9109 353.0308 98.5109 375.0008ZM546.2609 859.3708C563.8409 859.3708 578.9809 851.0708 599.4909 838.8708L650.2709 808.5908L592.6509 750.9808L564.8209 767.0908C557.4909 771.0008 551.6309 773.9208 546.2609 773.9208C540.4009 773.9208 534.5509 771.0008 527.2209 767.0908L75.0709 505.8608C61.4009 512.2108 46.7509 528.8108 46.7509 548.8308C46.7509 563.9608 55.5409 580.5708 73.6109 591.3108L492.5509 838.8708C513.5509 851.0708 528.2009 859.3708 546.2609 859.3708ZM820.6809 708.0108L1018.9209 591.3108C1036.9909 580.0808 1045.2909 563.9608 1045.2909 548.8308C1045.2909 528.8108 1030.6409 512.2108 1016.9709 505.8608L764.5309 651.3708ZM546.2609 1083.9808C563.8409 1083.9808 578.9809 1075.6808 599.4909 1063.4808L791.8709 950.1908L734.7409 893.5508L564.8209 992.1908C557.4909 996.0908 551.6309 999.0208 546.2609 999.0208C540.4009 999.0208 534.5509 996.0908 527.2209 992.1908L75.0709 730.4708C61.4009 737.3008 46.7509 753.4208 46.7509 773.4408C46.7509 788.5708 55.5409 805.6608 73.6109 815.9208L492.5509 1063.4808C513.5509 1075.6808 528.2009 1083.9808 546.2609 1083.9808ZM962.2809 849.6108L1018.9209 815.9208C1036.5009 805.6608 1045.2909 788.5708 1045.2909 773.4408C1045.2909 753.4208 1030.6409 737.3008 1016.9709 730.4708L907.1009 794.4308Z"/>
</svg>