<?xml version="1.0" encoding="UTF-8" standalone="no"?>
<svg xmlns="http://www.w3.org/2000/svg"
     width="1511.71875" height="1020.99609375"
     viewBox="0 0 1511.71875 1020.99609375"
     fill="currentColor">
  <path d="M755.8583 1020.9947C777.3483 1020.9947 791.9883 1007.3247 791.9883 986.8147V33.6947C791.9883 13.6747 777.3483 0.0047 755.8583 0.0047C734.3783 0.0047 720.2183 13.6747 720.2183 33.6947V986.8147C720.2183 1007.3247 734.3783 1020.9947 755.8583 1020.9947ZM116.6983 796.3847H455.5683C528.8083 796.3847 572.2683 753.4147 572.2683 681.6447V338.8647C572.2683 267.5747 528.8083 224.1247 455.5683 224.1247H116.6983C43.4583 224.1247 -0.0017 267.5747 -0.0017 338.8647V681.6447C-0.0017 753.4147 43.4583 796.3847 116.6983 796.3847ZM1056.1483 796.3847H1395.0183C1468.2583 796.3847 1511.7183 753.4147 1511.7183 681.6447V338.8647C1511.7183 267.5747 1468.2583 224.1247 1395.0183 224.1247H1056.1483C982.9083 224.1247 939.4483 267.5747 939.4483 338.8647V681.6447C939.4483 753.4147 982.9083 796.3847 1056.1483 796.3847ZM118.1683 722.6547C90.3283 722.6547 73.7283 705.5647 73.7283 677.7347V343.2647C73.7283 315.4247 90.3283 297.8547 118.1683 297.8547H454.0983C481.9383 297.8547 498.5383 315.4247 498.5383 343.2647V677.7347C498.5383 705.5647 481.9383 722.6547 454.0983 722.6547Z"/>
</svg>