<?xml version="1.0" encoding="UTF-8" standalone="no"?>
<svg xmlns="http://www.w3.org/2000/svg"
     width="998.046875" height="1019.53125"
     viewBox="0 0 998.046875 1019.53125"
     fill="currentColor">
  <path d="M561.0383 999.5142L942.8683 777.3442C982.4183 754.3942 998.0483 736.8142 998.0483 709.9642C998.0483 683.1042 982.4183 665.5242 942.8683 642.0942L714.8483 509.7642L942.8683 377.4442C982.4183 354.0042 998.0483 336.4242 998.0483 309.5742C998.0483 282.7142 982.4183 265.1342 942.8683 242.1842L561.0383 20.0242C537.5983 6.3442 518.5583 0.0042 499.0283 0.0042C479.0083 0.0042 460.4483 6.3442 437.0083 20.0242L54.6883 242.1842C15.1383 265.1342 -0.0017 282.7142 -0.0017 309.5742C-0.0017 336.4242 15.1383 354.0042 54.6883 377.4442L283.1983 509.7642L54.6883 642.0942C15.1383 665.5242 -0.0017 683.1042 -0.0017 709.9642C-0.0017 736.8142 15.1383 754.3942 54.6883 777.3442L437.0083 999.5142C460.4483 1013.1842 479.0083 1019.5342 499.0283 1019.5342C518.5583 1019.5342 537.5983 1013.1842 561.0383 999.5142ZM499.0283 533.6942C492.1883 533.6942 485.3483 531.7342 477.0483 526.8542L105.4683 314.4542C103.5183 313.4742 102.0483 312.0142 102.0483 309.5742C102.0483 307.1242 103.5183 306.1542 105.4683 304.6842L477.0483 92.2842C485.3483 87.8942 492.1883 85.4442 499.0283 85.4442C505.8583 85.4442 512.6983 87.8942 520.5083 92.2842L892.0883 304.6842C894.5283 306.1542 895.9983 307.1242 895.9983 309.5742C895.9983 312.0142 894.5283 313.4742 892.0883 314.4542L520.5083 526.8542C512.6983 531.7342 505.8583 533.6942 499.0283 533.6942Z"/>
</svg>