<?xml version="1.0" encoding="UTF-8" standalone="no"?>
<svg xmlns="http://www.w3.org/2000/svg"
     width="1389.16015625" height="898.92578125"
     viewBox="0 0 1389.16015625 898.92578125"
     fill="currentColor">
  <path d="M93.2583 409.1795H315.9183C377.9283 409.1795 409.1783 377.9295 409.1783 313.4795V95.2195C409.1783 30.7595 377.9283 -0.0005 315.9183 -0.0005H93.2583C31.2483 -0.0005 -0.0017 30.7595 -0.0017 95.2195V313.4795C-0.0017 377.9295 31.2483 409.1795 93.2583 409.1795ZM583.4983 409.1795H805.6683C867.6783 409.1795 898.9283 377.9295 898.9283 313.4795V95.2195C898.9283 30.7595 867.6783 -0.0005 805.6683 -0.0005H583.4983C520.9983 -0.0005 489.7483 30.7595 489.7483 95.2195V313.4795C489.7483 377.9295 520.9983 409.1795 583.4983 409.1795ZM1073.2383 409.1795H1295.8983C1357.9083 409.1795 1389.1583 377.9295 1389.1583 313.4795V95.2195C1389.1583 30.7595 1357.9083 -0.0005 1295.8983 -0.0005H1073.2383C1011.2283 -0.0005 979.9783 30.7595 979.9783 95.2195V313.4795C979.9783 377.9295 1011.2283 409.1795 1073.2383 409.1795ZM93.2583 898.9295H315.9183C377.9283 898.9295 409.1783 868.1595 409.1783 803.7095V584.9595C409.1783 520.9995 377.9283 489.7495 315.9183 489.7495H93.2583C31.2483 489.7495 -0.0017 520.9995 -0.0017 584.9595V803.7095C-0.0017 868.1595 31.2483 898.9295 93.2583 898.9295ZM583.4983 898.9295H805.6683C867.6783 898.9295 898.9283 868.1595 898.9283 803.7095V584.9595C898.9283 520.9995 867.6783 489.7495 805.6683 489.7495H583.4983C520.9983 489.7495 489.7483 520.9995 489.7483 584.9595V803.7095C489.7483 868.1595 520.9983 898.9295 583.4983 898.9295ZM1073.2383 898.9295H1295.8983C1357.9083 898.9295 1389.1583 868.1595 1389.1583 803.7095V584.9595C1389.1583 520.9995 1357.9083 489.7495 1295.8983 489.7495H1073.2383C1011.2283 489.7495 979.9783 520.9995 979.9783 584.9595V803.7095C979.9783 868.1595 1011.2283 898.9295 1073.2383 898.9295Z"/>
</svg>