<?xml version="1.0" encoding="UTF-8" standalone="no"?>
<svg xmlns="http://www.w3.org/2000/svg"
     width="957.51953125" height="937.98828125"
     viewBox="0 0 957.51953125 937.98828125"
     fill="currentColor">
  <path d="M84.4683 276.8556H192.3783C245.6083 276.8556 276.8583 245.6056 276.8583 190.4256V86.4256C276.8583 31.2456 245.6083 -0.0044 192.3783 -0.0044H84.4683C31.2483 -0.0044 -0.0017 31.2456 -0.0017 86.4256V190.4256C-0.0017 245.6056 31.2483 276.8556 84.4683 276.8556ZM424.3183 276.8556H532.7183C585.9383 276.8556 616.6983 245.6056 616.6983 190.4256V86.4256C616.6983 31.2456 585.9383 -0.0044 532.7183 -0.0044H424.3183C371.0983 -0.0044 340.3283 31.2456 340.3283 86.4256V190.4256C340.3283 245.6056 371.0983 276.8556 424.3183 276.8556ZM765.1383 276.8556H873.0483C926.2683 276.8556 957.5183 245.6056 957.5183 190.4256V86.4256C957.5183 31.2456 926.2683 -0.0044 873.0483 -0.0044H765.1383C711.9183 -0.0044 680.6683 31.2456 680.6683 86.4256V190.4256C680.6683 245.6056 711.9183 276.8556 765.1383 276.8556ZM93.7483 209.9656C76.1683 209.9656 67.3783 200.6856 67.3783 182.1256V94.7256C67.3783 76.6556 76.1683 67.3856 93.7483 67.3856H183.1083C200.1983 67.3856 209.9583 76.6556 209.9583 94.7256V182.1256C209.9583 200.6856 200.1983 209.9656 183.1083 209.9656ZM433.5983 209.9656C416.0183 209.9656 407.2283 200.6856 407.2283 182.1256V94.7256C407.2283 76.6556 416.0183 67.3856 433.5983 67.3856H523.4383C540.5283 67.3856 549.8083 76.6556 549.8083 94.7256V182.1256C549.8083 200.6856 540.5283 209.9656 523.4383 209.9656ZM774.4183 209.9656C756.8383 209.9656 747.5583 200.6856 747.5583 182.1256V94.7256C747.5583 76.6556 756.8383 67.3856 774.4183 67.3856H863.7683C880.8583 67.3856 890.1383 76.6556 890.1383 94.7256V182.1256C890.1383 200.6856 880.8583 209.9656 863.7683 209.9656ZM84.4683 607.4256H192.3783C245.6083 607.4256 276.8583 576.6556 276.8583 521.4856V416.9956C276.8583 361.8156 245.6083 330.5656 192.3783 330.5656H84.4683C31.2483 330.5656 -0.0017 361.8156 -0.0017 416.9956V521.4856C-0.0017 576.6556 31.2483 607.4256 84.4683 607.4256ZM424.3183 607.4256H532.7183C585.9383 607.4256 616.6983 576.6556 616.6983 521.4856V416.9956C616.6983 361.8156 585.9383 330.5656 532.7183 330.5656H424.3183C371.0983 330.5656 340.3283 361.8156 340.3283 416.9956V521.4856C340.3283 576.6556 371.0983 607.4256 424.3183 607.4256ZM765.1383 607.4256H873.0483C926.2683 607.4256 957.5183 576.6556 957.5183 521.4856V416.9956C957.5183 361.8156 926.2683 330.5656 873.0483 330.5656H765.1383C711.9183 330.5656 680.6683 361.8156 680.6683 416.9956V521.4856C680.6683 576.6556 711.9183 607.4256 765.1383 607.4256ZM93.7483 540.5256C76.1683 540.5256 67.3783 531.2456 67.3783 512.6956V424.8056C67.3783 406.7356 76.1683 397.4656 93.7483 397.4656H183.1083C200.1983 397.4656 209.9583 406.7356 209.9583 424.8056V512.6956C209.9583 531.2456 200.1983 540.5256 183.1083 540.5256ZM433.5983 540.5256C416.0183 540.5256 407.2283 531.2456 407.2283 512.6956V424.8056C407.2283 406.7356 416.0183 397.4656 433.5983 397.4656H523.4383C540.5283 397.4656 549.8083 406.7356 549.8083 424.8056V512.6956C549.8083 531.2456 540.5283 540.5256 523.4383 540.5256ZM774.4183 540.5256C756.8383 540.5256 747.5583 531.2456 747.5583 512.6956V424.8056C747.5583 406.7356 756.8383 397.4656 774.4183 397.4656H863.7683C880.8583 397.4656 890.1383 406.7356 890.1383 424.8056V512.6956C890.1383 531.2456 880.8583 540.5256 863.7683 540.5256ZM84.4683 937.9856H192.3783C245.6083 937.9856 276.8583 906.7356 276.8583 851.5656V747.5556C276.8583 692.3856 245.6083 661.1356 192.3783 661.1356H84.4683C31.2483 661.1356 -0.0017 692.3856 -0.0017 747.5556V851.5656C-0.0017 906.7356 31.2483 937.9856 84.4683 937.9856ZM424.3183 937.9856H532.2283C585.4483 937.9856 616.6983 906.7356 616.6983 851.5656V747.5556C616.6983 692.3856 585.4483 661.1356 532.2283 661.1356H424.3183C371.0983 661.1356 339.8483 692.3856 339.8483 747.5556V851.5656C339.8483 906.7356 371.0983 937.9856 424.3183 937.9856ZM765.1383 937.9856H873.0483C926.2683 937.9856 957.5183 906.7356 957.5183 851.5656V747.5556C957.5183 692.3856 926.2683 661.1356 873.0483 661.1356H765.1383C711.9183 661.1356 680.6683 692.3856 680.6683 747.5556V851.5656C680.6683 906.7356 711.9183 937.9856 765.1383 937.9856ZM93.7483 870.6056C76.1683 870.6056 67.3783 861.3256 67.3783 843.2656V755.8556C67.3783 737.3056 76.1683 728.0256 93.7483 728.0256H183.1083C200.1983 728.0256 209.9583 737.3056 209.9583 755.8556V843.2656C209.9583 861.3256 200.1983 870.6056 183.1083 870.6056ZM774.4183 870.6056C756.8383 870.6056 747.5583 861.3256 747.5583 843.2656V755.8556C747.5583 737.3056 756.8383 728.0256 774.4183 728.0256H863.7683C880.8583 728.0256 890.1383 737.3056 890.1383 755.8556V843.2656C890.1383 861.3256 880.8583 870.6056 863.7683 870.6056Z"/>
</svg>