<?xml version="1.0" encoding="UTF-8" standalone="no"?>
<svg xmlns="http://www.w3.org/2000/svg"
     width="983.88671875" height="840.8203125"
     viewBox="0 0 983.88671875 840.8203125"
     fill="currentColor">
  <path d="M84.9583 329.5941H244.6283C298.3383 329.5941 329.5883 298.3441 329.5883 246.5841V82.5241C329.5883 30.7641 298.3383 0.0041 244.6283 0.0041H84.9583C31.2483 0.0041 -0.0017 30.7641 -0.0017 82.5241V246.5841C-0.0017 298.3441 31.2483 329.5941 84.9583 329.5941ZM471.1883 73.7341H946.2883C966.7983 73.7341 983.8883 57.6141 983.8883 36.6241C983.8883 16.1141 966.7983 0.0041 946.2883 0.0041H471.1883C450.1983 0.0041 434.0783 16.1141 434.0783 36.6241C434.0783 57.6141 450.1983 73.7341 471.1883 73.7341ZM471.1883 329.5941H946.2883C966.7983 329.5941 983.8883 313.4741 983.8883 292.4841C983.8883 271.9741 966.7983 255.8641 946.2883 255.8641H471.1883C450.1983 255.8641 434.0783 271.9741 434.0783 292.4841C434.0783 313.4741 450.1983 329.5941 471.1883 329.5941ZM84.9583 840.8241H244.6283C298.3383 840.8241 329.5883 810.0541 329.5883 758.3041V594.2341C329.5883 542.4841 298.3383 511.7141 244.6283 511.7141H84.9583C31.2483 511.7141 -0.0017 542.4841 -0.0017 594.2341V758.3041C-0.0017 810.0541 31.2483 840.8241 84.9583 840.8241ZM471.1883 585.4541H946.2883C966.7983 585.4541 983.8883 568.8441 983.8883 548.3441C983.8883 527.8341 966.7983 511.7141 946.2883 511.7141H471.1883C450.1983 511.7141 434.0783 527.8341 434.0783 548.3441C434.0783 568.8441 450.1983 585.4541 471.1883 585.4541ZM471.1883 840.8241H946.2883C966.7983 840.8241 983.8883 824.7041 983.8883 804.2041C983.8883 783.6941 966.7983 767.0941 946.2883 767.0941H471.1883C450.1983 767.0941 434.0783 783.6941 434.0783 804.2041C434.0783 824.7041 450.1983 840.8241 471.1883 840.8241Z"/>
</svg>