<?xml version="1.0" encoding="UTF-8" standalone="no"?>
<svg xmlns="http://www.w3.org/2000/svg"
     width="1019.8372015404725" height="1083.984375"
     viewBox="0 0 1019.8372015404725 1083.984375"
     fill="currentColor">
  <path d="M672.1152 537.1108L777.0952 476.0708L897.2152 544.9208C899.6552 545.9008 901.1252 547.3608 901.1252 549.8008C901.1252 552.2508 899.6552 553.2208 897.2152 554.6908L765.8652 629.8808L824.9552 688.9608L834.7152 683.5908L983.1552 815.9208C1017.8252 779.7808 1007.0752 741.2108 948.4852 707.0308L871.3352 662.1108L948.4852 617.1908C987.5452 594.2408 1003.1752 576.6608 1003.1752 549.8008C1003.1752 522.9508 987.5452 505.3708 948.4852 481.9308L857.6652 429.6908L948.4852 376.9508C987.5452 354.0008 1003.1752 335.9408 1003.1752 309.0808C1003.1752 282.7108 987.5452 264.6508 948.4852 241.7008L566.1652 20.0208C542.7252 6.3508 523.6852 0.0008 504.1552 0.0008C484.6152 0.0008 465.5752 6.3508 442.1352 20.0208L260.0052 125.4908L320.0652 185.0608L482.6652 91.8008C490.4752 87.4008 497.3152 84.9608 504.1552 84.9608C510.9852 84.9608 517.8252 87.4008 525.6352 91.8008L897.2152 304.6908C899.6552 305.6608 901.1252 307.1308 901.1252 309.0808C901.1252 311.5208 899.6552 312.9908 897.2152 313.9608L612.5452 477.0508ZM955.8152 1009.2808C970.4552 1023.9308 994.3852 1023.9308 1009.0352 1009.2808C1023.1952 994.6308 1023.6852 970.7008 1009.0352 956.0508L64.6952 12.2108C50.0452 -2.4392 25.6352 -2.4392 10.9852 12.2108C-3.6648 26.3708 -3.6648 51.2708 10.9852 65.4308ZM59.8152 376.9508L150.6352 429.6908L59.8152 481.9308C20.7552 505.3708 5.1252 522.9508 5.1252 549.8008C5.1252 576.6608 20.7552 594.2408 59.8152 617.1908L137.4552 662.1108L59.8152 707.0308C20.7552 729.9808 5.1252 748.0508 5.1252 774.4108C5.1252 801.2708 20.7552 819.3408 59.8152 842.2808L442.1352 1063.9608C465.5752 1077.6408 484.6152 1083.9808 504.1552 1083.9808C523.6852 1083.9808 542.7252 1077.6408 566.1652 1063.9608L794.6752 931.6408L735.1052 872.5608L525.6352 992.1908C517.8252 996.5808 510.9852 999.0208 504.1552 999.0208C497.3152 999.0208 490.4752 996.5808 482.6652 992.1908L111.0852 779.3008C108.6452 778.3208 107.1752 776.8508 107.1752 774.4108C107.1752 772.4608 108.6452 771.0008 111.0852 770.0208L218.0152 708.9808L442.1352 839.3508C465.5752 853.0308 484.6152 859.3708 504.1552 859.3708C523.6852 859.3708 542.7252 853.0308 566.1652 839.3508L652.0952 789.0608L592.0452 729.0008L525.6352 767.0908C517.8252 771.4808 510.9852 773.9208 504.1552 773.9208C497.3152 773.9208 490.4752 771.4808 482.6652 767.0908L111.0852 554.6908C108.6452 553.2208 107.1752 552.2508 107.1752 549.8008C107.1752 547.3608 108.6452 545.9008 111.0852 544.9208L231.2052 476.0708L410.8852 580.5708C430.9052 592.7708 448.4852 599.6108 466.0652 603.0308L265.3852 402.3408C213.6252 373.0508 162.8452 343.2608 111.0852 313.9608C105.7152 311.0308 106.6852 307.1308 111.0852 304.6908C122.8052 297.8508 134.5252 290.5308 146.7252 284.1808L87.6452 225.5908L59.8152 241.7008C20.7552 265.1408 5.1252 282.7108 5.1252 309.0808C5.1252 335.9408 20.7552 354.0008 59.8152 376.9508Z"/>
</svg>