<?xml version="1.0" encoding="UTF-8" standalone="no"?>
<svg xmlns="http://www.w3.org/2000/svg"
     width="1110.3515625" height="1279.78515625"
     viewBox="0 0 1110.3515625 1279.78515625"
     fill="currentColor">
  <path d="M-0.0017 902.3417C-0.0017 1003.4217 51.2683 1053.7117 153.3183 1053.7117H713.3783C815.4283 1053.7117 866.6983 1002.9317 866.6983 902.3417V425.2917C866.6983 324.7117 815.4283 273.9217 713.3783 273.9217H472.1683V37.6017C472.1683 17.0917 454.5883 0.0017 433.5983 0.0017C412.5983 0.0017 394.5283 17.0917 394.5283 37.6017V273.9217H153.3183C51.2683 273.9217 -0.0017 324.2217 -0.0017 425.2917ZM433.5983 739.2617C423.3383 739.2617 415.0383 735.8417 405.2783 726.0717L240.2383 566.8917C232.9083 559.5717 228.5183 551.7617 228.5183 541.0117C228.5183 521.4817 243.1683 506.8317 263.6683 506.8317C272.9483 506.8317 283.6883 510.7417 290.5283 518.5517L373.5383 606.4417L397.4583 632.3217L394.5283 559.0817V307.6217C394.5283 285.6417 410.6483 270.9917 433.5983 270.9917C456.5383 270.9917 472.1683 285.6417 472.1683 307.6217V559.0817L469.2383 631.8317L493.1683 606.4417L576.1683 518.5517C583.0083 510.7417 593.2583 506.8317 602.5383 506.8317C622.5583 506.8317 638.1883 521.4817 638.1883 541.0117C638.1883 551.7617 633.7883 559.5717 626.4683 566.8917L461.4283 726.0717C451.6583 735.8417 443.3583 739.2617 433.5983 739.2617ZM438.4783 1279.7817H957.0283C1059.5683 1279.7817 1110.3483 1229.4917 1110.3483 1128.4217V641.6017C1110.3483 540.5317 1059.5683 490.2317 957.0283 490.2317H933.1083V909.6717C933.1083 1048.3417 860.3483 1120.6017 720.6983 1120.6017H285.1583V1125.4917C285.1583 1227.5417 333.4983 1279.7817 438.4783 1279.7817Z"/>
</svg>