<?xml version="1.0" encoding="UTF-8" standalone="no"?>
<svg xmlns="http://www.w3.org/2000/svg"
     width="963.37890625" height="1107.4344853621824"
     viewBox="0 0 963.37890625 1107.4344853621824"
     fill="currentColor">
  <path d="M561.0383 1020.5994V915.1294L650.8783 967.3794C719.7283 1006.4394 768.5583 980.0694 768.5583 898.5294V810.1494L845.6983 854.5794C914.5483 894.1294 963.3783 867.7694 963.3783 785.7294V343.3494C963.3783 292.5694 946.7783 263.7594 903.3183 238.3694L512.2083 12.2994C463.8683 -15.0506 402.3483 2.5294 402.3483 71.8694V173.9194L317.3783 125.0894C269.0383 97.2594 207.5183 115.3194 207.5183 184.1694V303.7994L109.8683 247.1594C61.5283 219.8194 -0.0017 237.3894 -0.0017 306.2394V761.3194C-0.0017 813.0794 13.1883 840.9094 61.0383 868.2494L443.3583 1089.4494C512.2083 1128.9994 561.0383 1102.1394 561.0383 1020.5994ZM876.4683 777.9194L768.5583 715.9094V455.6594C768.5583 405.3594 752.4383 376.5594 708.4983 350.6794L481.9383 219.8194V98.7194C481.9383 93.8394 485.3483 91.3994 490.2383 94.3294L862.3083 309.1694C877.9283 318.4494 883.7883 325.2894 883.7883 346.2794V774.0194C883.7883 778.8994 880.8583 780.3594 876.4683 777.9194ZM561.0383 577.7294C561.0383 527.4294 544.4383 498.6294 500.9783 473.2294L287.1083 349.6994V211.0294C287.1083 206.6294 291.0183 203.6994 295.4083 206.6294L667.4783 421.4794C683.1083 430.7494 688.9683 437.5894 688.9683 458.5894V886.3194C688.9683 891.1994 686.0383 892.6694 681.6383 890.2294L561.0383 820.8894ZM459.9583 543.5494C475.5883 552.8194 481.4483 559.6594 481.4483 580.6594V1008.3894C481.4483 1013.2694 478.5183 1015.2294 474.1183 1012.7894L100.5883 796.9694C83.9883 787.1994 79.5883 779.3894 79.5883 759.8594V333.0994C79.5883 328.6994 83.0083 326.2594 87.8883 328.6994Z"/>
</svg>