<?xml version="1.0" encoding="UTF-8" standalone="no"?>
<svg xmlns="http://www.w3.org/2000/svg"
     width="898.92578125" height="899.4140625"
     viewBox="0 0 898.92578125 899.4140625"
     fill="currentColor">
  <path d="M-0.0017 860.3478C-0.0017 883.7878 15.6283 899.4178 39.0583 899.4178H860.3483C883.7883 899.4178 898.9283 883.7878 898.9283 860.3478V39.0578C898.9283 15.6278 883.7883 0.4878 860.3483 0.4878H456.0583C453.6183 -0.0022 451.6583 -0.0022 449.7083 -0.0022C447.2683 -0.0022 445.3083 -0.0022 442.8683 0.4878H39.0583C15.6283 0.4878 -0.0017 15.6278 -0.0017 39.0578ZM78.6183 806.6378V475.0978C83.9883 467.7778 86.9183 458.9878 86.9183 449.2178C86.9183 439.9378 83.9883 430.6678 78.6183 423.8278V93.2578C78.6183 82.5178 82.5183 79.0978 92.7783 79.0978H425.2883C432.1283 83.4978 440.4283 86.4278 449.7083 86.4278C458.4983 86.4278 466.7983 83.4978 473.6283 79.0978H806.1483C816.8983 79.0978 820.3083 82.5178 820.3083 93.2578V423.8278C814.9383 430.6678 812.0083 439.9378 812.0083 449.2178C812.0083 458.9878 814.9383 467.7778 820.3083 475.0978V806.6378C820.3083 816.8978 816.8983 820.7978 806.1483 820.7978H475.0983C467.7783 815.4278 458.9883 812.4978 449.7083 812.4978C439.9383 812.4978 431.1483 815.4278 423.8283 820.7978H92.7783C82.5183 820.7978 78.6183 816.8978 78.6183 806.6378ZM449.7083 221.6778C473.6283 221.6778 492.6783 202.6378 492.6783 178.7078C492.6783 154.7878 473.6283 135.2578 449.7083 135.2578C425.7783 135.2578 406.2483 154.7878 406.2483 178.7078C406.2483 202.6378 425.7783 221.6778 449.7083 221.6778ZM449.7083 356.9378C473.6283 356.9378 492.6783 337.8878 492.6783 313.9678C492.6783 290.0378 473.6283 270.5078 449.7083 270.5078C425.7783 270.5078 406.2483 290.0378 406.2483 313.9678C406.2483 337.8878 425.7783 356.9378 449.7083 356.9378ZM449.7083 492.6778C473.6283 492.6778 492.6783 473.1478 492.6783 449.2178C492.6783 425.2978 473.6283 406.2478 449.7083 406.2478C425.7783 406.2478 406.2483 425.2978 406.2483 449.2178C406.2483 473.1478 425.7783 492.6778 449.7083 492.6778ZM178.7083 492.6778C202.6383 492.6778 222.1683 473.1478 222.1683 449.2178C222.1683 425.2978 202.6383 406.2478 178.7083 406.2478C154.7883 406.2478 135.7383 425.2978 135.7383 449.2178C135.7383 473.1478 154.7883 492.6778 178.7083 492.6778ZM313.9683 492.6778C337.8883 492.6778 357.4183 473.1478 357.4183 449.2178C357.4183 425.2978 337.8883 406.2478 313.9683 406.2478C290.0383 406.2478 270.9983 425.2978 270.9983 449.2178C270.9983 473.1478 290.0383 492.6778 313.9683 492.6778ZM584.9583 492.6778C608.8883 492.6778 628.4183 473.1478 628.4183 449.2178C628.4183 425.2978 608.8883 406.2478 584.9583 406.2478C561.0383 406.2478 541.9883 425.2978 541.9883 449.2178C541.9883 473.1478 561.0383 492.6778 584.9583 492.6778ZM720.2183 492.6778C744.1383 492.6778 763.6683 473.1478 763.6683 449.2178C763.6683 425.2978 744.1383 406.2478 720.2183 406.2478C696.2883 406.2478 677.2483 425.2978 677.2483 449.2178C677.2483 473.1478 696.2883 492.6778 720.2183 492.6778ZM449.7083 627.9278C473.6283 627.9278 492.6783 608.8878 492.6783 584.9578C492.6783 561.0378 473.6283 541.5078 449.7083 541.5078C425.7783 541.5078 406.2483 561.0378 406.2483 584.9578C406.2483 608.8878 425.7783 627.9278 449.7083 627.9278ZM449.7083 763.1878C473.6283 763.1878 492.6783 744.1378 492.6783 720.2178C492.6783 696.2878 473.6283 676.7578 449.7083 676.7578C425.7783 676.7578 406.2483 696.2878 406.2483 720.2178C406.2483 744.1378 425.7783 763.1878 449.7083 763.1878Z"/>
</svg>