<?xml version="1.0" encoding="UTF-8" standalone="no"?>
<svg xmlns="http://www.w3.org/2000/svg"
     width="1104.00390625" height="1103.515625"
     viewBox="0 0 1104.00390625 1103.515625"
     fill="currentColor">
  <path d="M113.2783 833.4986C164.0583 833.4986 204.0983 802.7386 219.7283 759.2786H343.2583V884.2786C300.2883 900.3886 269.5283 941.8986 269.5283 990.7186C269.5283 1053.2186 319.8283 1103.5186 382.8083 1103.5186C431.1483 1103.5186 472.6583 1073.2386 488.7683 1029.7886H884.7683C900.3883 1073.2386 941.8983 1103.5186 990.7183 1103.5186C1053.2183 1103.5186 1104.0083 1053.2186 1104.0083 990.7186C1104.0083 941.8986 1073.2383 900.3886 1030.2783 884.2786V489.7486C1073.2383 473.6286 1104.0083 432.1286 1104.0083 383.2986C1104.0083 320.7986 1053.2183 270.5086 990.7183 270.5086C941.8983 270.5086 900.3883 300.7786 884.7683 344.2386H760.7383V219.2386C803.7083 203.1286 834.4683 161.6186 834.4683 112.7886C834.4683 50.2886 783.6883 -0.0014 721.1883 -0.0014C672.3683 -0.0014 630.8583 30.7586 615.2383 73.7286H219.2383C203.1283 30.7586 162.1083 -0.0014 113.2783 -0.0014C50.2883 -0.0014 -0.0017 50.2886 -0.0017 112.7886C-0.0017 161.6186 30.7583 203.1286 73.7283 219.2386V614.2586C30.7583 629.8786 -0.0017 671.3886 -0.0017 720.2186C-0.0017 782.7186 50.2883 833.4986 113.2783 833.4986ZM382.8083 270.5086C319.8283 270.5086 269.5283 320.7986 269.5283 383.2986C269.5283 432.1286 300.2883 473.6286 343.2583 489.7486V680.6686H219.2383C208.0083 649.8986 183.1083 625.4886 152.3483 614.2586V219.2386C183.1083 207.5186 208.0083 183.1086 219.2383 152.3486H615.2383C626.4683 183.1086 650.8783 207.5186 682.1283 219.2386V344.2386H488.7683C472.6583 300.7786 431.6383 270.5086 382.8083 270.5086ZM488.7683 951.1686C477.5383 920.4086 452.6383 895.9986 421.8783 884.2786V489.7486C452.6383 478.0286 477.5383 453.6086 488.7683 422.8486H884.7683C895.9983 453.6086 920.4083 478.0286 951.6583 489.7486V884.2786C920.4083 895.9986 895.9983 920.4086 884.7683 951.1686Z"/>
</svg>