<?xml version="1.0" encoding="UTF-8" standalone="no"?>
<svg xmlns="http://www.w3.org/2000/svg"
     width="1019.6533203125" height="1107.4344853621824"
     viewBox="0 0 1019.6533203125 1107.4344853621824"
     fill="currentColor">
  <path d="M727.9004 648.0394L807.4904 728.1194V455.6594C807.4904 405.3594 790.8904 376.5594 747.4404 350.6794L520.3904 219.8194V98.7194C520.3904 93.8394 524.2904 91.3994 528.6904 94.3294L900.7604 309.1694C916.3804 318.4494 922.2404 325.2894 922.2404 346.2794V800.3794C922.2404 803.3094 921.7504 806.2394 920.7804 807.7094L974.9804 861.9094C992.0704 848.2294 1001.8304 822.8394 1001.8304 785.7294V343.3494C1001.8304 292.5694 985.7204 263.7594 941.7704 238.3694L550.6604 12.2994C502.3204 -15.0506 440.8004 2.5294 440.8004 71.8694V173.9194L355.8304 125.0894C316.2804 102.1394 269.9004 110.9294 253.7804 149.9894V156.3394L299.1904 202.7294V191.9794C302.1204 190.5194 307.4904 191.0094 312.8704 193.9394L705.9304 421.4794C721.5604 430.2694 727.9004 437.5894 727.9004 458.5894ZM955.4404 1065.0294C970.5804 1079.6794 994.5104 1079.6794 1008.6704 1065.0294C1023.3204 1050.3794 1023.3204 1026.4594 1008.6704 1011.8094L64.3304 67.9594C49.6804 53.3094 25.7604 53.3094 10.6204 67.9594C-3.5396 82.1194 -3.5396 107.0194 10.6204 121.1794ZM99.9804 868.2494L481.8104 1089.4494C550.6604 1128.9994 599.4904 1102.1394 599.4904 1020.5994V915.1294L689.8204 967.3794C727.9004 989.3494 760.6204 990.8094 781.6204 973.2294L661.9904 854.0894C655.6404 852.1394 647.8304 848.7194 640.5004 843.8394L599.4904 820.8894V791.5894L519.9004 711.9994V1008.3894C519.9004 1013.2694 516.9704 1015.2294 512.5704 1012.7894L139.0404 796.9694C122.4404 787.1994 118.0404 779.3894 118.0404 759.8594V369.2294C118.0404 349.6994 121.4604 332.6094 124.3904 316.4994L60.9104 252.5294C47.7304 263.2694 38.4504 281.8294 38.4504 306.2394V761.3194C38.4504 813.0794 51.6404 840.9094 99.9804 868.2494Z"/>
</svg>