<?xml version="1.0" encoding="UTF-8" standalone="no"?>
<svg xmlns="http://www.w3.org/2000/svg"
     width="898.92578125" height="898.92578125"
     viewBox="0 0 898.92578125 898.92578125"
     fill="currentColor">
  <path d="M-0.0017 859.8595C-0.0017 883.2995 15.6283 898.9295 39.0583 898.9295H860.3483C883.7883 898.9295 898.9283 883.2995 898.9283 859.8595V38.5695C898.9283 15.1395 883.7883 -0.0005 860.3483 -0.0005H39.0583C15.6283 -0.0005 -0.0017 15.1395 -0.0017 38.5695ZM78.6183 92.7695C78.6183 82.0295 82.5183 78.6095 92.7783 78.6095H273.4383V273.4395H78.6183ZM352.0483 273.4395V78.6095H546.8783V273.4395ZM806.1483 78.6095C816.8983 78.6095 820.3083 82.0295 820.3083 92.7695V273.4395H625.4883V78.6095ZM78.6183 546.8795V352.0495H273.4383V546.8795ZM352.0483 546.8795V352.0495H546.8783V546.8795ZM625.4883 546.8795V352.0495H820.3083V546.8795ZM78.6183 806.1495V625.4895H273.4383V820.3095H92.7783C82.5183 820.3095 78.6183 816.4095 78.6183 806.1495ZM352.0483 820.3095V625.4895H546.8783V820.3095ZM820.3083 806.1495C820.3083 816.4095 816.8983 820.3095 806.1483 820.3095H625.4883V625.4895H820.3083Z"/>
</svg>