<?xml version="1.0" encoding="UTF-8" standalone="no"?>
<svg xmlns="http://www.w3.org/2000/svg"
     width="898.92578125" height="898.92578125"
     viewBox="0 0 898.92578125 898.92578125"
     fill="currentColor">
  <path d="M-0.0017 859.8595C-0.0017 883.2995 15.6283 898.9295 39.0583 898.9295H860.3483C883.7883 898.9295 898.9283 883.2995 898.9283 859.8595V38.5695C898.9283 15.1395 883.7883 -0.0005 860.3483 -0.0005H39.0583C15.6283 -0.0005 -0.0017 15.1395 -0.0017 38.5695ZM78.6183 806.1495V92.7695C78.6183 82.0295 82.5183 78.6095 92.7783 78.6095H806.1483C816.8983 78.6095 820.3083 82.0295 820.3083 92.7695V806.1495C820.3083 816.4095 816.8983 820.3095 806.1483 820.3095H92.7783C82.5183 820.3095 78.6183 816.4095 78.6183 806.1495ZM203.1283 240.2295C224.1183 240.2295 241.2083 223.1395 241.2083 202.1495C241.2083 181.1495 224.1183 164.0595 203.1283 164.0595C182.1283 164.0595 165.0383 181.1495 165.0383 202.1495C165.0383 223.1395 182.1283 240.2295 203.1283 240.2295ZM326.6583 240.2295C347.1683 240.2295 364.7483 223.1395 364.7483 202.1495C364.7483 181.1495 347.1683 164.0595 326.6583 164.0595C305.6683 164.0595 288.5783 181.1495 288.5783 202.1495C288.5783 223.1395 305.6683 240.2295 326.6583 240.2295ZM449.7083 240.2295C470.6983 240.2295 487.7883 223.1395 487.7883 202.1495C487.7883 181.1495 470.6983 164.0595 449.7083 164.0595C428.7083 164.0595 411.6183 181.1495 411.6183 202.1495C411.6183 223.1395 428.7083 240.2295 449.7083 240.2295ZM573.2383 240.2295C594.2383 240.2295 611.3283 223.1395 611.3283 202.1495C611.3283 181.1495 594.2383 164.0595 573.2383 164.0595C552.2483 164.0595 535.1583 181.1495 535.1583 202.1495C535.1583 223.1395 552.2483 240.2295 573.2383 240.2295ZM696.7783 240.2295C717.7783 240.2295 734.8683 223.1395 734.8683 202.1495C734.8683 181.1495 717.7783 164.0595 696.7783 164.0595C675.7783 164.0595 658.6883 181.1495 658.6883 202.1495C658.6883 223.1395 675.7783 240.2295 696.7783 240.2295ZM203.1283 363.7695C224.1183 363.7695 241.2083 346.6795 241.2083 325.6795C241.2083 304.6895 224.1183 287.5995 203.1283 287.5995C182.1283 287.5995 165.0383 304.6895 165.0383 325.6795C165.0383 346.6795 182.1283 363.7695 203.1283 363.7695ZM696.7783 363.7695C717.7783 363.7695 734.8683 346.6795 734.8683 325.6795C734.8683 304.6895 717.7783 287.5995 696.7783 287.5995C675.7783 287.5995 658.6883 304.6895 658.6883 325.6795C658.6883 346.6795 675.7783 363.7695 696.7783 363.7695ZM203.1283 486.8195C224.1183 486.8195 241.2083 469.7295 241.2083 448.7295C241.2083 428.2195 224.1183 411.1295 203.1283 411.1295C182.1283 411.1295 165.0383 428.2195 165.0383 448.7295C165.0383 469.7295 182.1283 486.8195 203.1283 486.8195ZM696.7783 486.8195C717.7783 486.8195 734.8683 469.7295 734.8683 448.7295C734.8683 428.2195 717.7783 411.1295 696.7783 411.1295C675.7783 411.1295 658.6883 428.2195 658.6883 448.7295C658.6883 469.7295 675.7783 486.8195 696.7783 486.8195ZM203.1283 610.3495C224.1183 610.3495 241.2083 593.2595 241.2083 572.2695C241.2083 551.2695 224.1183 534.1795 203.1283 534.1795C182.1283 534.1795 165.0383 551.2695 165.0383 572.2695C165.0383 593.2595 182.1283 610.3495 203.1283 610.3495ZM696.7783 610.3495C717.7783 610.3495 734.8683 593.2595 734.8683 572.2695C734.8683 551.2695 717.7783 534.1795 696.7783 534.1795C675.7783 534.1795 658.6883 551.2695 658.6883 572.2695C658.6883 593.2595 675.7783 610.3495 696.7783 610.3495ZM203.1283 733.3995C224.1183 733.3995 241.2083 716.3095 241.2083 695.7995C241.2083 674.8095 224.1183 657.7195 203.1283 657.7195C182.1283 657.7195 165.0383 674.8095 165.0383 695.7995C165.0383 716.3095 182.1283 733.3995 203.1283 733.3995ZM696.7783 733.3995C717.7783 733.3995 734.8683 716.3095 734.8683 695.7995C734.8683 674.8095 717.7783 657.7195 696.7783 657.7195C675.7783 657.7195 658.6883 674.8095 658.6883 695.7995C658.6883 716.3095 675.7783 733.3995 696.7783 733.3995ZM573.2383 733.3995C594.2383 733.3995 611.3283 716.3095 611.3283 695.7995C611.3283 674.8095 594.2383 657.7195 573.2383 657.7195C552.2483 657.7195 535.1583 674.8095 535.1583 695.7995C535.1583 716.3095 552.2483 733.3995 573.2383 733.3995ZM449.7083 733.3995C470.6983 733.3995 487.7883 716.3095 487.7883 695.7995C487.7883 674.8095 470.6983 657.7195 449.7083 657.7195C428.7083 657.7195 411.6183 674.8095 411.6183 695.7995C411.6183 716.3095 428.7083 733.3995 449.7083 733.3995ZM326.6583 733.3995C347.1683 733.3995 364.7483 716.3095 364.7483 695.7995C364.7483 674.8095 347.1683 657.7195 326.6583 657.7195C305.6683 657.7195 288.5783 674.8095 288.5783 695.7995C288.5783 716.3095 305.6683 733.3995 326.6583 733.3995Z"/>
</svg>