<?xml version="1.0" encoding="UTF-8" standalone="no"?>
<svg xmlns="http://www.w3.org/2000/svg"
     width="1026.3069026751918" height="1107.4344853621824"
     viewBox="0 0 1026.3069026751918 1107.4344853621824"
     fill="currentColor">
  <path d="M448.7283 333.0994L667.9683 206.6294C672.8483 203.6994 676.2683 206.6294 676.2683 211.0294V349.2094L541.9883 426.3594L602.5383 486.4194L875.9783 328.6994C880.3683 326.2594 883.7883 328.6994 883.7883 333.0994V726.6494C883.7883 732.9994 883.2983 736.9094 880.8583 740.8094C877.9283 745.6994 874.9983 750.5794 872.0683 755.9494L941.8983 825.7694C946.7783 818.9394 950.1983 811.6094 954.0983 803.7994C961.4283 791.5894 963.3783 778.8994 963.3783 761.3194V306.2394C963.3783 237.3894 902.3483 219.8194 854.0083 247.1594L755.8583 303.3094V184.1694C755.8583 115.3194 694.3383 97.2594 645.9983 125.0894L561.0383 173.9194V71.8694C561.0383 2.5294 499.9983 -15.0506 451.6583 12.2994L246.0983 130.9494L306.1483 191.0094L473.1483 94.3294C478.0283 91.3994 481.4483 93.8394 481.4483 98.7194V219.8194L388.6683 273.0394ZM961.9183 1035.2494C977.0483 1049.8994 1000.9783 1049.8994 1015.1383 1035.2494C1029.7883 1020.5994 1030.2783 996.6694 1015.1383 982.0194L70.7983 38.1794C56.1483 23.5294 32.2283 23.5294 17.0883 38.1794C2.9283 52.3394 2.9283 77.2394 17.0883 91.3994ZM117.6783 854.5794L194.8283 810.1494V898.5294C194.8283 980.0694 244.1383 1006.9294 312.4983 967.3794L402.3483 915.1294V1020.5994C402.3483 1102.1394 451.6583 1128.9994 520.0183 1089.4494L782.7183 937.5894L722.6583 878.0194L489.7483 1012.7894C484.8683 1015.2294 481.9383 1013.2694 481.9383 1008.3894V637.7894L402.3483 559.1694V820.8894L281.7383 890.2294C277.3483 892.6694 274.4183 891.1994 274.4183 886.3194V458.5894C274.4183 452.7294 275.3883 443.9394 280.7583 437.0994L221.1883 378.0194C203.1283 394.1294 194.8283 423.4294 194.8283 455.6594V715.9094L87.3983 777.9194C82.5183 780.3594 79.5883 778.8994 79.5883 774.0194V348.7194C79.5883 328.6994 86.9183 316.9794 102.0483 306.7294C111.8183 300.3794 121.5783 294.0394 131.3483 288.1794L72.7583 230.0694C64.9383 234.9494 56.1483 240.3194 48.3383 245.6994C14.1583 268.1594 -0.0017 294.5194 -0.0017 343.3494V785.7294C-0.0017 867.7694 50.2883 893.6394 117.6783 854.5794Z"/>
</svg>