<?xml version="1.0" encoding="UTF-8" standalone="no"?>
<svg xmlns="http://www.w3.org/2000/svg"
     width="1110.83984375" height="1080.56640625"
     viewBox="0 0 1110.83984375 1080.56640625"
     fill="currentColor">
  <path d="M-0.0023 400.3873C-0.0023 591.7973 134.2777 752.4373 314.4577 791.9873V929.1973C314.4577 1029.7873 365.2377 1080.5673 467.2877 1080.5673H957.5177C1059.5677 1080.5673 1110.8377 1029.7873 1110.8377 929.1973V435.0573C1110.8377 334.4773 1059.5677 283.6873 957.5177 283.6873H783.6877C733.3977 119.6273 580.5677 -0.0027 400.3877 -0.0027C179.1977 -0.0027 -0.0023 179.1973 -0.0023 400.3873ZM74.2177 400.3873C74.2177 220.2173 220.2177 74.2173 400.3877 74.2173C539.5477 74.2173 658.2077 161.1373 705.0777 283.6873H467.2877C365.2377 283.6873 314.4577 334.4773 314.4577 435.0573V714.8473C175.7777 677.2473 74.2177 550.7773 74.2177 400.3873ZM468.7477 1001.9573C419.9177 1001.9573 393.0677 975.5873 393.0677 924.8073V439.4573C393.0677 388.6673 419.9177 362.3073 468.7477 362.3073H956.5477C1005.3677 362.3073 1032.2277 388.6673 1032.2277 439.4573V924.8073C1032.2277 975.5873 1005.3677 1001.9573 956.5477 1001.9573Z"/>
</svg>