<?xml version="1.0" encoding="UTF-8" standalone="no"?>
<svg xmlns="http://www.w3.org/2000/svg"
     width="898.92578125" height="898.92578125"
     viewBox="0 0 898.92578125 898.92578125"
     fill="currentColor">
  <path d="M153.3183 898.9295H745.6083C848.1483 898.9295 898.9283 848.1495 898.9283 747.5595V151.3695C898.9283 50.7795 848.1483 -0.0005 745.6083 -0.0005H153.3183C51.2683 -0.0005 -0.0017 50.2895 -0.0017 151.3695V747.5595C-0.0017 848.6295 51.2683 898.9295 153.3183 898.9295ZM154.2983 820.3095C105.4683 820.3095 78.6183 794.4295 78.6183 743.6495V155.2695C78.6183 104.4895 105.4683 78.6095 154.2983 78.6095H744.6283C792.9683 78.6095 820.3083 104.4895 820.3083 155.2695V743.6495C820.3083 794.4295 792.9683 820.3095 744.6283 820.3095ZM152.3483 268.0695C152.3483 289.0595 165.5283 302.2495 186.5283 302.2495H268.0683C289.0583 302.2495 302.2483 289.0595 302.2483 268.0695V186.0395C302.2483 165.0395 289.0583 151.8595 268.0683 151.8595H186.5283C165.5283 151.8595 152.3483 165.0395 152.3483 186.0395ZM374.9983 268.0695C374.9983 289.0595 388.1883 302.2495 409.1783 302.2495H490.7183C512.2083 302.2495 525.3883 289.0595 525.3883 268.0695V186.0395C525.3883 165.0395 512.2083 151.8595 490.7183 151.8595H409.1783C388.1883 151.8595 374.9983 165.0395 374.9983 186.0395ZM597.1683 268.0695C597.1683 289.0595 610.3483 302.2495 631.3483 302.2495H712.8883C733.8883 302.2495 747.0683 289.0595 747.0683 268.0695V186.0395C747.0683 165.0395 733.8883 151.8595 712.8883 151.8595H631.3483C610.3483 151.8595 597.1683 165.0395 597.1683 186.0395ZM152.3483 490.2295C152.3483 511.2295 165.5283 524.4095 186.5283 524.4095H268.0683C289.0583 524.4095 302.2483 511.2295 302.2483 490.2295V408.1995C302.2483 387.2095 289.0583 374.0195 268.0683 374.0195H186.5283C165.5283 374.0195 152.3483 387.2095 152.3483 408.1995ZM374.9983 490.2295C374.9983 511.2295 388.1883 524.4095 409.1783 524.4095H490.7183C512.2083 524.4095 525.3883 511.2295 525.3883 490.2295V408.1995C525.3883 387.2095 512.2083 374.0195 490.7183 374.0195H409.1783C388.1883 374.0195 374.9983 387.2095 374.9983 408.1995ZM597.1683 490.2295C597.1683 511.2295 610.3483 524.4095 631.3483 524.4095H712.8883C733.8883 524.4095 747.0683 511.2295 747.0683 490.2295V408.1995C747.0683 387.2095 733.8883 374.0195 712.8883 374.0195H631.3483C610.3483 374.0195 597.1683 387.2095 597.1683 408.1995ZM152.3483 712.3995C152.3483 733.3995 165.5283 746.5795 186.5283 746.5795H268.0683C289.0583 746.5795 302.2483 733.3995 302.2483 712.3995V630.3695C302.2483 609.3795 289.0583 596.1895 268.0683 596.1895H186.5283C165.5283 596.1895 152.3483 609.3795 152.3483 630.3695ZM374.9983 712.3995C374.9983 733.3995 388.1883 746.5795 409.1783 746.5795H490.7183C512.2083 746.5795 525.3883 733.3995 525.3883 712.3995V630.3695C525.3883 609.3795 512.2083 596.1895 490.7183 596.1895H409.1783C388.1883 596.1895 374.9983 609.3795 374.9983 630.3695ZM597.1683 712.3995C597.1683 733.3995 610.3483 746.5795 631.3483 746.5795H712.8883C733.8883 746.5795 747.0683 733.3995 747.0683 712.3995V630.3695C747.0683 609.3795 733.8883 596.1895 712.8883 596.1895H631.3483C610.3483 596.1895 597.1683 609.3795 597.1683 630.3695Z"/>
</svg>