<?xml version="1.0" encoding="UTF-8" standalone="no"?>
<svg xmlns="http://www.w3.org/2000/svg"
     width="998.046875" height="1083.984375"
     viewBox="0 0 998.046875 1083.984375"
     fill="currentColor">
  <path d="M561.0383 1063.9608L942.8683 842.2808C982.4183 819.3408 998.0483 801.2708 998.0483 774.4108C998.0483 748.0508 982.4183 729.9808 942.8683 707.0308L866.2083 662.1108L942.8683 617.1908C982.4183 594.2408 998.0483 576.6608 998.0483 549.8008C998.0483 522.9508 982.4183 505.3708 942.8683 481.9308L852.5383 429.6908L942.8683 376.9508C982.4183 354.0008 998.0483 335.9408 998.0483 309.0808C998.0483 282.7108 982.4183 264.6508 942.8683 241.7008L561.0383 20.0208C537.5983 6.3508 518.5583 0.0008 499.0283 0.0008C479.0083 0.0008 460.4483 6.3508 437.0083 20.0208L54.6883 241.7008C15.1383 264.6508 -0.0017 282.7108 -0.0017 309.0808C-0.0017 335.9408 15.1383 354.0008 54.6883 376.9508L145.5083 429.6908L54.6883 481.9308C15.1383 505.3708 -0.0017 522.9508 -0.0017 549.8008C-0.0017 576.6608 15.1383 594.2408 54.6883 617.1908L132.3283 662.1108L54.6883 707.0308C15.1383 729.9808 -0.0017 748.0508 -0.0017 774.4108C-0.0017 801.2708 15.1383 819.3408 54.6883 842.2808L437.0083 1063.9608C460.4483 1077.6408 479.0083 1083.9808 499.0283 1083.9808C518.5583 1083.9808 537.5983 1077.6408 561.0383 1063.9608ZM499.0283 533.6908C492.1883 533.6908 485.3483 531.2508 477.0483 526.8508L105.4683 313.9608C103.5183 312.9908 102.0483 311.5208 102.0483 309.0808C102.0483 307.1308 103.5183 305.6608 105.4683 304.6908L477.0483 91.8008C485.3483 87.4008 492.1883 84.9608 499.0283 84.9608C505.8583 84.9608 512.6983 87.4008 520.5083 91.8008L892.0883 304.6908C894.5283 305.6608 895.9983 307.1308 895.9983 309.0808C895.9983 311.5208 894.5283 312.9908 892.0883 313.9608L520.5083 526.8508C512.6983 531.2508 505.8583 533.6908 499.0283 533.6908ZM477.0483 992.1908L105.4683 779.3008C103.5183 778.3208 102.0483 776.8508 102.0483 774.4108C102.0483 772.4608 103.5183 771.0008 105.4683 770.0208L212.3983 708.9808L437.0083 839.3508C460.4483 853.0308 479.0083 859.3708 499.0283 859.3708C518.5583 859.3708 537.5983 853.0308 561.0383 839.3508L785.1583 708.9808L892.0883 770.0208C894.5283 771.0008 895.9983 772.4608 895.9983 774.4108C895.9983 776.8508 894.5283 778.3208 892.0883 779.3008L520.5083 992.1908C512.6983 996.5808 505.8583 999.0208 499.0283 999.0208C492.1883 999.0208 485.3483 996.5808 477.0483 992.1908Z"/>
</svg>