<?xml version="1.0" encoding="UTF-8" standalone="no"?>
<svg xmlns="http://www.w3.org/2000/svg"
     width="960.44921875" height="1109.86328125"
     viewBox="0 0 960.44921875 1109.86328125"
     fill="currentColor">
  <path d="M50.2883 877.9292C59.0783 877.9292 69.3383 874.9992 79.0983 868.1592V345.6992C79.0983 328.1292 82.5183 321.2892 97.6583 312.9892L550.2883 52.2492C552.2483 20.0192 531.2483 -0.0008 503.9083 -0.0008C491.2083 -0.0008 477.5383 3.4192 462.8883 12.2092L53.2183 247.5592C5.3683 275.3892 -0.0017 284.1792 -0.0017 339.8392V807.1292C-0.0017 849.1192 20.0183 877.9292 50.2883 877.9292ZM245.1183 990.7192C254.3983 990.7192 264.1583 987.7892 273.9283 980.9592V458.4992C273.9283 439.4492 276.8583 434.5692 292.9683 425.7792L745.6083 164.5492C747.0683 132.8092 727.0483 112.3092 698.2383 112.3092C686.0383 112.3092 672.3683 116.2092 657.7183 124.0192L248.0483 359.8592C200.1983 387.2092 194.3383 397.4592 194.3383 452.1492V919.9192C194.3383 961.9092 215.8183 990.7192 245.1183 990.7192ZM454.5883 1109.8592C471.6783 1109.8592 492.1883 1103.0292 516.5983 1089.3592L899.4183 869.6292C944.3383 843.7492 960.4483 816.8992 960.4483 762.2092V319.8192C960.4483 261.2292 939.9383 231.4492 903.3183 231.4492C886.7183 231.4492 866.6983 237.7892 843.7483 250.9792L459.9583 472.1692C414.0583 499.0192 397.9483 526.3692 397.9483 579.5892V1021.9692C397.9483 1078.6092 417.4783 1109.8592 454.5883 1109.8592Z"/>
</svg>