<?xml version="1.0" encoding="UTF-8" standalone="no"?>
<svg xmlns="http://www.w3.org/2000/svg"
     width="898.92578125" height="898.92578125"
     viewBox="0 0 898.92578125 898.92578125"
     fill="currentColor">
  <path d="M-0.0017 152.8295V745.6095C-0.0017 847.6595 50.7783 898.9295 151.3683 898.9295H747.5583C848.1483 898.9295 898.9283 847.6595 898.9283 745.6095V152.8295C898.9283 51.2695 848.6283 -0.0005 747.5583 -0.0005H151.3683C50.2883 -0.0005 -0.0017 51.2695 -0.0017 152.8295ZM78.6183 154.2995C78.6183 105.4695 104.4883 78.6095 155.2783 78.6095H743.6483C794.4383 78.6095 820.3083 105.4695 820.3083 154.2995V410.1595H78.6183ZM155.2783 820.3095C104.4883 820.3095 78.6183 792.4795 78.6183 744.1395V488.7695H820.3083V744.1395C820.3083 792.4795 794.4383 820.3095 743.6483 820.3095Z"/>
</svg>