<?xml version="1.0" encoding="UTF-8" standalone="no"?>
<svg xmlns="http://www.w3.org/2000/svg"
     width="856.4453125" height="1133.30078125"
     viewBox="0 0 856.4453125 1133.30078125"
     fill="currentColor">
  <path d="M191.4083 62.987H665.0383C662.1083 21.487 638.1883 -0.003 593.2583 -0.003H262.6983C217.7783 -0.003 194.3383 21.487 191.4083 62.987ZM106.4483 198.247H749.5083C742.1883 153.807 721.1883 129.397 672.3683 129.397H183.5983C134.7683 129.397 113.7683 153.807 106.4483 198.247ZM153.3183 1133.297H717.7783C805.1783 1133.297 856.4483 1082.517 856.4483 981.937V428.227C856.4483 327.637 804.6883 276.857 703.1283 276.857H153.3183C51.2683 276.857 -0.0017 327.147 -0.0017 428.227V981.937C-0.0017 1082.517 51.2683 1133.297 153.3183 1133.297Z"/>
</svg>