<?xml version="1.0" encoding="UTF-8" standalone="no"?>
<svg xmlns="http://www.w3.org/2000/svg"
     width="940.4296875" height="940.91796875"
     viewBox="0 0 940.4296875 940.91796875"
     fill="currentColor">
  <path d="M39.0583 940.9222C61.0383 940.9222 78.6183 922.8522 78.6183 901.3722V736.8122H249.5083C277.3483 736.8122 297.8483 716.3122 297.8483 688.4722V517.5822H468.7483C496.5783 517.5822 517.5783 497.0722 517.5783 469.2422V298.3422H687.9883C716.3083 298.3422 736.8183 277.8322 736.8183 250.0022V78.6122H900.8783C922.8483 78.6122 940.4283 61.0322 940.4283 39.5522C940.4283 18.0622 922.8483 0.0022 900.8783 0.0022H706.5383C678.7083 0.0022 658.1983 20.9922 658.1983 48.8322V219.7222H487.3083C459.4683 219.7222 438.9683 240.2322 438.9683 268.0622V438.9622H267.5783C239.7483 438.9622 219.2383 459.4722 219.2383 487.7922V658.2022H48.3383C20.5083 658.2022 -0.0017 679.2022 -0.0017 707.0322V901.3722C-0.0017 922.8522 17.5783 940.9222 39.0583 940.9222Z"/>
</svg>