<?xml version="1.0" encoding="UTF-8" standalone="no"?>
<svg xmlns="http://www.w3.org/2000/svg"
     width="996.09375" height="996.09375"
     viewBox="0 0 996.09375 996.09375"
     fill="currentColor">
  <path d="M498.0477 996.0959C770.5077 996.0959 996.0977 770.0159 996.0977 498.0459C996.0977 225.5859 770.0177 -0.0041 497.5577 -0.0041C225.5877 -0.0041 -0.0023 225.5859 -0.0023 498.0459C-0.0023 770.0159 226.0777 996.0959 498.0477 996.0959ZM498.0477 913.0859C267.5777 913.0859 83.4977 728.5159 83.4977 498.0459C83.4977 267.5759 267.0877 83.0059 497.5577 83.0059C728.0277 83.0059 913.0877 267.5759 913.0877 498.0459C913.0877 728.5159 728.5177 913.0859 498.0477 913.0859ZM270.9977 369.6259C255.3677 399.4159 259.7677 414.0659 287.1077 429.1959L410.1577 495.6059L286.6177 567.3859C258.7877 583.4959 254.8877 598.1459 271.4877 627.4459L272.4577 629.3959C289.0577 659.1759 304.1977 663.0859 332.0277 645.9959L450.6877 577.6359V714.8459C450.6877 748.0459 461.9177 758.7859 496.5777 758.7859H499.5077C533.2077 758.7859 544.4377 748.0459 544.4377 714.8459V577.6359L663.0877 645.9959C692.3877 664.0659 707.0277 659.6659 722.6577 629.3959L723.6377 627.4459C738.7677 597.6559 735.3477 583.0059 708.4977 567.3859L584.9577 495.6059L708.0077 429.1959C735.8377 414.0659 739.7477 399.4159 724.1177 369.6259L722.6577 366.2059C707.5177 335.9359 692.3877 331.5459 662.1077 349.6059L544.4377 417.9659V280.7659C544.4377 248.5359 533.2077 237.7959 499.5077 237.7959H496.5777C461.9177 237.7959 450.6877 248.5359 450.6877 280.7659V417.9659L333.0077 349.6059C302.7377 332.0359 287.5977 335.9359 272.4577 366.2059Z"/>
</svg>