<?xml version="1.0" encoding="UTF-8" standalone="no"?>
<svg xmlns="http://www.w3.org/2000/svg"
     width="1033.203125" height="1022.94921875"
     viewBox="0 0 1033.203125 1022.94921875"
     fill="currentColor">
  <path d="M-0.0017 645.5113C-0.0017 746.0912 50.7783 796.8713 153.3183 796.8713H169.9183V377.4413C169.9183 239.2613 250.9783 159.6712 390.1383 159.6712H796.3883V151.3713C796.3883 50.7813 745.1183 0.0013 643.5583 0.0013H153.3183C50.7783 0.0013 -0.0017 50.7813 -0.0017 151.3713ZM390.1383 1022.9513H880.3683C981.9383 1022.9513 1033.1983 972.1713 1033.1983 871.5813V377.4413C1033.1983 276.8513 981.9383 226.0712 880.3683 226.0712H390.1383C287.5983 226.0712 236.8183 276.3713 236.8183 377.4413V871.5813C236.8183 972.1713 287.5983 1022.9513 390.1383 1022.9513ZM514.6483 843.2613C489.7483 862.3013 463.8683 842.7713 473.6283 813.9612L521.4883 670.9013L398.4383 583.0113C375.4883 566.4013 383.2983 533.2013 414.5483 533.6913L565.4283 535.1513L610.8383 391.1113C620.1183 362.7913 652.3483 362.7913 661.1283 391.1113L707.0283 535.1513L857.4183 533.6913C889.1583 533.2013 895.9983 566.4013 873.5383 583.0113L750.9783 670.9013L798.8283 813.9612C808.5983 842.7713 782.2283 862.3013 757.3283 843.2613L636.2283 754.8813Z"/>
</svg>