<?xml version="1.0" encoding="UTF-8" standalone="no"?>
<svg xmlns="http://www.w3.org/2000/svg"
     width="1084.3794872613928" height="1036.3054330604036"
     viewBox="0 0 1084.3794872613928 1036.3054330604036"
     fill="currentColor">
  <path d="M800.3376 638.1834L1047.4076 460.4534C1077.6876 438.9634 1089.8876 416.5034 1082.0776 392.0934C1074.2676 368.6534 1051.3176 356.9334 1013.7176 357.4234L693.8976 359.3734L596.7276 54.2034C585.0076 18.0634 567.4276 0.0034 542.0376 0.0034C517.1376 0.0034 499.5576 18.0634 487.8376 54.2034L421.9176 261.2334L480.0276 319.3334L539.5976 122.5634C540.0876 119.6334 541.0676 118.6534 542.0376 118.6534C543.5076 118.6534 544.4776 119.6334 544.9676 122.5634L629.9276 405.2734C636.2776 425.2934 648.9776 433.5934 668.9876 433.1034L964.3976 427.7334C967.3276 427.7334 968.3076 427.7334 968.7976 429.2034C969.2876 430.6634 968.3076 431.6434 966.3576 433.1034L746.6276 584.9634ZM964.3976 990.7234C979.0476 1005.3734 1003.4676 1005.3734 1017.6276 990.7234C1031.7876 975.5834 1032.2776 952.1534 1017.6276 937.5034L227.0976 149.4134C212.4476 134.7634 188.0376 134.2734 173.3876 149.4134C159.2276 163.5734 159.2276 187.9834 173.3876 202.6334ZM208.0576 1027.3434C228.0776 1042.9734 253.4676 1037.5934 283.7376 1015.6234L542.0376 825.6834L800.8276 1015.6234C831.0976 1037.5934 855.5176 1042.4834 876.5076 1027.3434C882.3676 1022.9534 886.7676 1017.0934 894.0876 1006.3434L566.9376 750.4834C551.3176 738.2834 533.2476 738.2834 517.6276 750.4834L282.7576 929.6834C280.8076 931.1534 279.3476 932.1334 278.3676 930.6634C277.3876 929.6834 277.8776 929.2034 278.3676 926.2734L375.5376 646.9734C382.3676 627.9334 378.4676 612.7934 361.3776 601.0734L118.2076 433.1034C115.7676 431.6434 115.2776 430.6634 115.7676 429.2034C116.2576 427.7334 117.2376 427.7334 120.1676 427.7334L320.3576 431.1534L247.1176 358.3934L70.8476 357.4234C33.2476 356.9334 10.2976 368.6534 2.4876 392.0934C-5.8124 416.5034 6.8876 438.9634 37.1576 460.4534L297.8976 647.9534L195.8476 951.6634C183.6376 987.3034 188.0376 1012.2034 208.0576 1027.3434Z"/>
</svg>