<?xml version="1.0" encoding="UTF-8" standalone="no"?>
<svg xmlns="http://www.w3.org/2000/svg"
     width="1033.203125" height="1022.94921875"
     viewBox="0 0 1033.203125 1022.94921875"
     fill="currentColor">
  <path d="M153.3183 796.8713H236.8183V871.5813C236.8183 972.1713 287.5983 1022.9513 390.1383 1022.9513H880.3683C981.9383 1022.9513 1033.1983 972.1713 1033.1983 871.5813V377.4413C1033.1983 276.8513 981.9383 226.0712 880.3683 226.0712H796.3883V151.3713C796.3883 50.7813 745.1183 0.0013 643.5583 0.0013H153.3183C50.7783 0.0013 -0.0017 50.7813 -0.0017 151.3713V645.5113C-0.0017 746.0912 50.7783 796.8713 153.3183 796.8713ZM154.2983 718.2613C105.4683 718.2613 78.6183 691.8913 78.6183 641.1113V155.7613C78.6183 104.9813 105.4683 78.6113 154.2983 78.6113H642.0883C690.4283 78.6113 717.7783 104.9813 717.7783 155.7613V226.0712H390.1383C287.5983 226.0712 236.8183 276.3713 236.8183 377.4413V718.2613ZM391.1183 944.3313C342.7783 944.3313 315.4283 917.9713 315.4283 867.1913V381.8313C315.4283 331.0513 342.7783 304.6912 391.1183 304.6912H878.9083C927.2483 304.6912 954.5883 331.0513 954.5883 381.8313V867.1913C954.5883 917.9713 927.2483 944.3313 878.9083 944.3313ZM518.0683 836.4213L635.7383 750.0013L753.4183 836.4213C777.3483 854.0013 802.7383 835.4513 793.4583 807.6213L746.5783 668.4613L865.7183 583.4913C887.6983 567.3813 880.8583 535.6413 850.5883 536.1313L704.5883 537.1112L659.6683 397.4613C651.3683 370.1212 620.1183 370.1212 611.3283 397.4613L566.8983 537.1112L420.8983 536.1313C390.6283 535.6413 383.2983 567.3813 405.7583 583.4913L524.4183 668.4613L478.0283 807.6213C468.7483 835.4513 494.1383 854.0013 518.0683 836.4213Z"/>
</svg>