<?xml version="1.0" encoding="UTF-8" standalone="no"?>
<svg xmlns="http://www.w3.org/2000/svg"
     width="1076.171875" height="1013.18359375"
     viewBox="0 0 1076.171875 1013.18359375"
     fill="currentColor">
  <path d="M290.0383 1013.1819C309.0783 1013.1819 323.2383 1003.4219 346.1883 981.9319L522.4583 820.8019H852.5383C998.0483 820.8019 1076.1683 740.7219 1076.1683 597.6519V223.6319C1076.1683 80.5619 998.0483 0.0019 852.5383 0.0019H223.6283C78.1283 0.0019 -0.0017 80.0819 -0.0017 223.6319V597.6519C-0.0017 741.2119 78.1283 820.8019 223.6283 820.8019H246.5783V962.8919C246.5783 993.1619 262.2083 1013.1819 290.0383 1013.1819ZM431.1483 600.5819C410.1583 616.2119 385.2583 602.0519 395.0183 574.2219L437.4983 448.2419L327.1483 369.6319C304.6883 353.5119 314.4483 327.6319 339.8483 327.6319H475.5883L516.1183 202.6319C524.4183 177.7319 553.2183 177.7319 561.0383 202.6319L601.0783 327.6319H736.8183C762.2083 327.6319 771.9683 353.5119 749.5083 369.6319L640.1383 448.2419L682.1283 574.2219C691.4083 602.0519 666.9883 616.2119 645.5083 600.5819L538.5783 521.9719Z"/>
</svg>