<?xml version="1.0" encoding="UTF-8" standalone="no"?>
<svg xmlns="http://www.w3.org/2000/svg"
     width="957.03125" height="1032.71484375"
     viewBox="0 0 957.03125 1032.71484375"
     fill="currentColor">
  <path d="M462.3977 1032.7123H494.1377C573.7277 1032.7123 612.3077 997.5623 612.3077 923.3423V747.0723L764.1577 835.4523C787.1077 848.6323 808.1077 854.9823 827.1477 854.9823C862.3077 854.9823 892.0877 833.0123 917.9677 788.5723L934.0777 760.7423C949.2177 734.3723 957.0277 710.4523 957.0277 688.9623C957.0277 654.7823 937.0077 626.4623 897.9477 604.0023L745.6077 516.1123L897.4577 428.2223C937.0077 405.7623 956.5477 377.4423 956.5477 343.2623C956.5477 322.2623 948.7277 298.3423 933.5977 271.9723L917.9677 244.6323C891.5977 199.7023 861.8177 177.7323 826.1677 177.7323C807.1277 177.7323 786.6177 184.0823 763.6677 197.2623L612.3077 284.6723V109.3723C612.3077 35.1523 573.7277 0.0023 494.1377 0.0023H462.3977C382.8077 0.0023 344.7277 35.1523 344.7277 109.3723V284.6723L193.3577 197.2623C170.8977 184.0823 149.8977 177.7323 130.8577 177.7323C95.2177 177.7323 65.4277 199.7023 39.0577 244.6323L23.4377 271.9723C8.2977 298.3423 0.4877 322.2623 0.4877 343.2623C0.4877 377.4423 20.5077 405.7623 59.5677 428.2223L211.4277 516.1123L59.5677 604.0023C20.0177 626.4623 -0.0023 654.7823 -0.0023 688.9623C-0.0023 710.4523 7.8077 734.3723 22.9477 760.7423L39.0577 788.5723C64.9377 833.0123 94.7277 854.9823 129.8877 854.9823C148.9277 854.9823 170.4077 848.6323 192.8677 835.4523L344.7277 747.0723V923.3423C344.7277 997.5623 382.8077 1032.7123 462.3977 1032.7123ZM475.5877 959.4723C435.5477 959.4723 422.3677 947.7523 422.3677 909.1823V633.3023C422.3677 625.9723 417.9677 621.0923 411.6177 621.0923C409.6677 621.0923 407.7177 621.5823 405.2777 623.0423L166.5077 761.2323C153.8077 768.5523 143.5577 771.9723 134.2777 771.9723C119.6277 771.9723 108.8877 761.7223 96.6777 740.2323L93.2577 735.3523C85.4477 721.1923 81.0577 709.9623 81.0577 700.1923C81.0577 686.0323 89.8477 675.2923 110.3477 664.0623L353.0277 523.4423C357.4177 520.9923 359.8677 517.0923 359.8677 513.1823C359.8677 508.7923 357.4177 504.8823 352.5377 502.4423L110.8377 368.6523C90.8177 356.9323 81.5477 346.1923 81.5477 332.0323C81.5477 322.7523 85.4477 311.5223 93.2577 297.3623L96.6777 291.9923C108.8877 270.0223 120.1177 260.2523 134.7677 260.2523C144.0477 260.2523 154.2977 263.6723 166.9877 270.9923L404.2977 408.6923C406.7377 410.1523 408.6877 410.6423 411.1377 410.6423C417.9677 410.6423 422.3677 405.7623 422.3677 397.9523V123.5323C422.3677 84.9623 435.5477 73.2423 475.5877 73.2423H481.4477C521.4877 73.2423 534.6677 84.9623 534.6677 123.5323V397.9523C534.6677 405.2723 539.0577 410.6423 545.4077 410.6423C547.8477 410.6423 549.8077 410.1523 552.2477 408.6923L790.5277 270.9923C803.2277 263.6723 813.4777 260.2523 822.2677 260.2523C836.9177 260.2523 848.1477 270.0223 860.8377 291.9923L863.7677 297.3623C871.5777 311.5223 875.9777 322.7523 875.9777 332.0323C875.9777 346.1923 866.6977 356.9323 846.6777 368.6523L604.9777 502.4423C600.0977 504.8823 597.1677 508.7923 597.1677 513.1823C597.1677 517.0923 600.0977 520.5123 604.4877 523.4423L847.1677 664.0623C867.1877 675.2923 876.4677 686.0323 876.4677 700.1923C876.4677 709.9623 871.5777 721.1923 863.7677 735.3523L860.8377 740.2323C848.1477 761.7223 837.3977 771.9723 822.7577 771.9723C813.4777 771.9723 803.2277 768.0623 791.0177 761.2323L551.7577 623.0423C549.3177 621.5823 547.8477 621.0923 545.4077 621.0923C539.0577 621.0923 534.6677 625.9723 534.6677 633.3023V909.1823C534.6677 947.7523 521.4877 959.4723 481.4477 959.4723Z"/>
</svg>