<?xml version="1.0" encoding="UTF-8" standalone="no"?>
<svg xmlns="http://www.w3.org/2000/svg"
     width="996.09375" height="996.09375"
     viewBox="0 0 996.09375 996.09375"
     fill="currentColor">
  <path d="M498.0477 996.0959C770.5077 996.0959 996.0977 770.0159 996.0977 498.0459C996.0977 225.5859 770.0177 -0.0041 497.5577 -0.0041C225.5877 -0.0041 -0.0023 225.5859 -0.0023 498.0459C-0.0023 770.0159 226.0777 996.0959 498.0477 996.0959ZM154.7877 268.0659C226.5577 156.7359 353.0277 83.0059 497.0677 83.0059C641.1177 83.0059 767.5777 156.7359 839.8477 267.5759C859.8677 295.4059 850.0977 326.6559 817.3877 326.6559H177.2477C145.0177 326.6559 134.7677 295.4059 154.7877 268.0659ZM497.5577 630.8559C437.0077 630.8559 389.1577 582.5159 389.1577 521.9759C389.1577 462.4059 437.0077 414.0659 497.5577 414.0659C557.6177 414.0659 605.9577 462.4059 605.9577 521.9759C605.9577 582.5159 557.6177 630.8559 497.5577 630.8559ZM97.6577 606.9359C88.8677 576.6559 105.9577 562.9859 131.3477 566.4059C270.9977 582.5159 379.3977 705.0759 374.9977 848.6359C374.5077 873.5359 355.9577 890.1359 329.5877 877.4459C214.3577 825.6859 129.3977 727.0459 97.6577 606.9359ZM897.4577 606.9359C865.7277 727.0459 781.2477 825.6859 665.5277 877.4459C639.6477 890.1359 620.6077 873.5359 620.1177 848.6359C615.7277 705.5659 723.6377 582.5159 863.7677 566.4059C889.1577 562.9859 906.2477 576.6559 897.4577 606.9359Z"/>
</svg>