<?xml version="1.0" encoding="UTF-8" standalone="no"?>
<svg xmlns="http://www.w3.org/2000/svg"
     width="1407.249964446413" height="730.95703125"
     viewBox="0 0 1407.249964446413 730.95703125"
     fill="currentColor">
  <path d="M40.0461 730.9552H103.5261C132.8161 730.9552 147.4661 716.7952 155.7661 695.8052L425.2961 30.2752C432.1361 14.1552 424.3261 -0.0048 407.2361 -0.0048H375.4961C358.4061 -0.0048 347.6661 8.3052 340.3361 22.9452L5.8661 676.7552C-7.8039 701.6552 1.9561 730.9552 40.0461 730.9552ZM1303.7161 730.9552H1367.6861C1405.2761 730.9552 1415.0461 701.6552 1401.3761 676.7552L1067.3861 22.9452C1059.5761 8.3052 1048.8361 -0.0048 1031.7461 -0.0048H1000.0061C982.9161 -0.0048 975.5961 14.1552 981.9361 30.2752L1251.4661 695.8052C1259.7761 716.7952 1274.4161 730.9552 1303.7161 730.9552ZM703.6161 688.4752C867.1961 688.4752 1002.9361 553.2252 1002.9361 389.6452C1002.9361 225.5852 866.7061 90.3352 703.1361 90.3352C540.0461 90.3352 404.7961 225.5852 404.7961 389.6452C404.7961 553.2252 540.0461 688.4752 703.6161 688.4752ZM505.8661 257.8152C547.8561 192.8752 619.6361 150.8752 703.1361 150.8752C786.6261 150.8752 858.4061 192.8752 900.3961 257.3252C910.1661 270.9952 907.2361 282.7152 891.6061 282.7152H514.6561C500.0061 282.7152 496.5861 270.9952 505.8661 257.8152ZM703.1361 461.9152C670.4161 461.9152 645.5161 437.0152 645.5161 404.2952C645.5161 371.0952 670.4161 346.1952 703.1361 346.1952C736.3361 346.1952 761.2361 371.0952 761.2361 404.2952C761.2361 437.0152 736.3361 461.9152 703.1361 461.9152ZM933.5961 452.1452C915.0461 521.4852 867.1961 578.1252 800.2961 607.4252C788.0961 613.7652 781.7461 608.3952 781.7461 596.1952C778.8161 513.6752 839.3661 444.3352 919.9261 435.5452C931.6461 433.5952 937.5061 437.9852 933.5961 452.1452ZM473.6361 452.1452C469.7361 437.9852 474.6161 434.0852 486.8261 435.5452C567.3861 444.3352 627.9361 513.6752 625.0061 596.1952C625.0061 608.3952 619.1461 613.7652 606.9361 607.4252C540.0461 578.1252 491.7061 521.4852 473.6361 452.1452Z"/>
</svg>