<?xml version="1.0" encoding="UTF-8" standalone="no"?>
<svg xmlns="http://www.w3.org/2000/svg"
     width="996.09375" height="996.09375"
     viewBox="0 0 996.09375 996.09375"
     fill="currentColor">
  <path d="M496.5777 83.0059C640.6277 83.0059 767.0877 156.7359 839.3577 267.5759C859.3777 295.4059 849.6077 326.6559 816.8977 326.6559H473.1477L752.9277 606.4459C785.1577 584.4759 822.7577 570.3159 863.2777 566.4059C888.6677 562.9859 905.7577 576.6559 896.9777 606.9359C887.6977 642.5759 873.0477 676.7559 854.0077 707.5159L914.5477 767.5759C965.8177 689.9459 996.0977 597.1659 996.0977 498.0459C996.0977 225.5859 770.0177 -0.0041 497.5577 -0.0041C398.4377 -0.0041 305.6677 30.2759 228.5177 81.5459L287.5977 140.6259C348.6377 104.0059 419.9177 83.0059 496.5777 83.0059ZM919.4377 973.1459C934.0777 987.7959 958.0077 987.3059 972.6577 972.6559C986.8177 958.0059 987.3077 934.0859 972.6577 919.4359L76.6577 23.9259C62.0077 9.2759 38.0877 8.7859 22.9477 23.9259C8.7877 38.0859 8.7877 62.4959 22.9477 77.1459ZM498.0477 996.0959C596.6777 996.0959 688.9677 965.8159 767.0877 915.0359L706.5477 854.4959C693.8477 864.2559 680.1777 871.5859 665.0377 877.4459C639.1577 890.1359 620.1177 873.5359 619.6277 848.6359C618.1677 824.2159 622.0677 799.8059 629.8877 777.8359L81.0577 229.0059C29.7877 306.6359 -0.0023 399.4159 -0.0023 498.0459C-0.0023 770.0159 226.0777 996.0959 498.0477 996.0959ZM97.1677 606.9359C88.3777 576.6559 105.4677 562.9859 130.8577 566.4059C270.5077 582.5159 378.9077 705.0759 374.5077 848.6359C374.0277 873.5359 355.4677 890.1359 329.0977 877.4459C213.8677 825.6859 128.9077 727.0459 97.1677 606.9359Z"/>
</svg>