<?xml version="1.0" encoding="UTF-8" standalone="no"?>
<svg xmlns="http://www.w3.org/2000/svg"
     width="1064.453125" height="1007.2653609555831"
     viewBox="0 0 1064.453125 1007.2653609555831"
     fill="currentColor">
  <path d="M498.0477 996.0959C608.3977 996.0959 711.4277 958.4959 794.4377 895.9959V786.6259C758.7877 823.7259 714.8477 854.9759 665.5277 877.4459C639.1577 890.1359 620.6077 873.5359 620.1177 848.6359C617.6777 766.1159 652.8277 690.4259 709.4777 637.6959C703.1277 619.1359 699.7077 599.6059 699.7077 579.1059C699.7077 460.4459 795.8977 364.2559 915.5277 364.2559C938.4777 364.2559 959.9577 368.1659 979.9777 376.4659C924.8077 162.1059 727.5377 -0.0041 497.5577 -0.0041C225.0977 -0.0041 -0.0023 225.5859 -0.0023 498.0459C-0.0023 770.0159 225.5877 996.0959 498.0477 996.0959ZM154.2977 268.0659C226.0777 156.7359 352.5377 83.0059 497.0677 83.0059C641.1177 83.0059 767.5777 156.7359 839.8477 267.5759C859.3777 295.4059 850.0977 326.6559 816.8977 326.6559H177.2477C144.5277 326.6559 134.7677 295.4059 154.2977 268.0659ZM497.0677 630.8559C437.0077 630.8559 388.6677 582.5159 388.6677 521.9759C388.6677 462.4059 437.0077 414.0659 497.0677 414.0659C557.1277 414.0659 605.4677 462.4059 605.4677 521.9759C605.4677 582.5159 557.1277 630.8559 497.0677 630.8559ZM915.5277 430.6659C832.5177 430.6659 766.5977 497.0659 766.5977 579.1059C766.5977 642.5759 803.7077 696.2859 861.3277 718.7459V949.2159C861.3277 955.5659 863.7677 959.4759 868.1677 964.3559L907.2277 1003.4159C911.6177 1008.2959 918.4577 1008.7859 923.3377 1003.4159L997.5577 929.6859C1002.4377 924.8059 1002.4377 917.9659 997.5577 913.0859L951.6577 867.1859L1015.6277 804.6859C1019.5277 800.2959 1019.5277 793.4559 1014.1577 788.0859L951.6577 725.5859C1023.4377 696.7759 1064.4577 644.0459 1064.4577 579.1059C1064.4577 497.5559 997.5577 430.6659 915.5277 430.6659ZM915.0377 487.3059C940.4277 487.3059 960.9377 508.2959 960.9377 533.2059C960.9377 559.0859 940.4277 579.5859 915.0377 579.5859C889.6477 579.5859 869.1377 559.0859 869.1377 533.2059C869.1377 508.2959 889.1577 487.3059 915.0377 487.3059ZM97.1677 606.9359C88.8677 576.6559 105.9577 562.9859 131.3477 566.4059C270.9977 582.5159 379.3977 705.0759 374.5077 848.6359C374.5077 873.5359 355.4677 890.1359 329.5877 877.4459C213.8677 825.6859 129.3977 727.0459 97.1677 606.9359Z"/>
</svg>