<?xml version="1.0" encoding="UTF-8" standalone="no"?>
<svg xmlns="http://www.w3.org/2000/svg"
     width="898.92578125" height="898.92578125"
     viewBox="0 0 898.92578125 898.92578125"
     fill="currentColor">
  <path d="M153.3183 898.9295H745.6083C848.1483 898.9295 898.9283 848.1495 898.9283 747.5595V151.3695C898.9283 50.7795 848.1483 -0.0005 745.6083 -0.0005H153.3183C51.2683 -0.0005 -0.0017 50.2895 -0.0017 151.3695V747.5595C-0.0017 848.6295 51.2683 898.9295 153.3183 898.9295ZM154.2983 820.3095C105.4683 820.3095 78.6183 794.4295 78.6183 743.6495V155.2695C78.6183 104.4895 105.4683 78.6095 154.2983 78.6095H744.6283C792.9683 78.6095 820.3083 104.4895 820.3083 155.2695V743.6495C820.3083 794.4295 792.9683 820.3095 744.6283 820.3095ZM295.4083 669.9195H592.2883C609.3783 669.9195 621.5783 658.6895 621.5783 641.1095C621.5783 624.0195 609.3783 612.7895 592.2883 612.7895H380.3683C405.2783 591.3095 422.3683 552.2495 422.3683 510.7395C422.3683 493.6495 420.4083 478.5195 416.9883 464.3595H539.0583C554.6883 464.3595 566.4083 454.0995 566.4083 437.9895C566.4083 422.3595 554.6883 412.1095 539.0583 412.1095H404.2983C399.8983 393.5595 395.9983 373.5395 395.9983 350.0995C395.9983 297.3595 433.5983 261.2295 497.5583 261.2295C539.5483 261.2295 559.5683 272.4595 572.7583 272.4595C590.8183 272.4595 599.1183 262.2095 599.1183 246.5795C599.1183 233.3995 592.7783 223.1395 574.2183 216.3095C551.7583 207.5195 524.8983 203.6095 494.1383 203.6095C393.5583 203.6095 332.0283 262.2095 332.0283 353.9995C332.0283 373.5395 335.4483 393.0695 340.3283 412.1095H295.4083C279.7883 412.1095 268.5583 422.3595 268.5583 437.9895C268.5583 454.0995 279.7883 464.3595 295.4083 464.3595H353.0283C357.4183 480.9595 360.3483 497.5595 360.3483 513.1795C360.3483 564.9395 328.6183 599.1195 291.9883 609.3795C274.4183 615.2295 266.5983 624.5095 266.5983 641.1095C266.5983 658.1995 278.3183 669.9195 295.4083 669.9195Z"/>
</svg>