<?xml version="1.0" encoding="UTF-8" standalone="no"?>
<svg xmlns="http://www.w3.org/2000/svg"
     width="996.09375" height="996.09375"
     viewBox="0 0 996.09375 996.09375"
     fill="currentColor">
  <path d="M498.0477 996.0959C770.5077 996.0959 996.0977 770.0159 996.0977 498.0459C996.0977 225.5859 770.0177 -0.0041 497.5577 -0.0041C225.5877 -0.0041 -0.0023 225.5859 -0.0023 498.0459C-0.0023 770.0159 226.0777 996.0959 498.0477 996.0959ZM498.0477 913.0859C267.5777 913.0859 83.4977 728.5159 83.4977 498.0459C83.4977 267.5759 267.0877 83.0059 497.5577 83.0059C728.0277 83.0059 913.0877 267.5759 913.0877 498.0459C913.0877 728.5159 728.5177 913.0859 498.0477 913.0859ZM343.2577 719.2359H639.6477C657.2277 719.2359 669.4377 708.0059 669.4377 690.4259C669.4377 673.3359 657.2277 662.1059 639.6477 662.1059H428.2277C453.1277 640.6259 470.2177 601.5659 470.2177 560.0559C470.2177 542.9659 468.2577 527.8359 464.8477 513.6759H586.9177C602.5377 513.6759 613.7677 503.4159 613.7677 487.3059C613.7677 471.6759 602.5377 461.4259 586.9177 461.4259H452.1477C447.7577 442.8759 443.8477 422.8559 443.8477 399.4159C443.8477 346.6759 481.4477 310.5459 545.4077 310.5459C587.3977 310.5459 606.9377 321.7759 620.6077 321.7759C638.6677 321.7759 646.9777 311.5259 646.9777 295.8959C646.9777 282.7159 640.6277 272.4559 622.0677 265.6259C599.6077 256.8359 572.2677 252.9259 541.9877 252.9259C441.4077 252.9259 379.8877 311.5259 379.8877 403.3159C379.8877 422.8559 383.2977 442.3859 388.1877 461.4259H343.2577C327.6377 461.4259 315.9177 471.6759 315.9177 487.3059C315.9177 503.4159 327.6377 513.6759 343.2577 513.6759H400.8777C405.2777 530.2759 408.2077 546.8759 408.2077 562.4959C408.2077 614.2559 376.4677 648.4359 339.8477 658.6959C321.7777 664.5459 314.4577 673.8259 314.4577 690.4259C314.4577 707.5159 325.6877 719.2359 343.2577 719.2359Z"/>
</svg>