<?xml version="1.0" encoding="UTF-8" standalone="no"?>
<svg xmlns="http://www.w3.org/2000/svg"
     width="898.92578125" height="898.92578125"
     viewBox="0 0 898.92578125 898.92578125"
     fill="currentColor">
  <path d="M153.3183 898.9295H745.6083C848.1483 898.9295 898.9283 848.1495 898.9283 747.5595V151.3695C898.9283 50.7795 848.1483 -0.0005 745.6083 -0.0005H153.3183C51.2683 -0.0005 -0.0017 50.2895 -0.0017 151.3695V747.5595C-0.0017 848.6295 51.2683 898.9295 153.3183 898.9295ZM290.5283 676.7595C272.9483 676.7595 260.7383 665.0395 260.7383 646.9695C260.7383 629.8795 269.0383 620.1195 287.1083 614.2595C324.7083 603.5195 357.4183 568.3595 357.4183 515.1395C357.4183 499.0195 354.4883 481.9295 350.0983 464.8395H290.5283C274.4183 464.8395 262.6983 454.0995 262.6983 437.4995C262.6983 421.3895 274.4183 410.6395 290.5283 410.6395H336.9183C332.0283 391.1095 328.6183 371.0895 328.6183 351.0695C328.6183 255.8595 392.0883 195.7995 495.6083 195.7995C527.3483 195.7995 555.1783 199.7095 578.6183 208.4995C597.6583 215.8195 604.0083 226.5595 604.0083 240.2295C604.0083 256.3495 595.6983 266.5995 576.6583 266.5995C562.9883 266.5995 542.4783 255.3695 499.5083 255.3695C433.5983 255.3695 394.5283 292.4795 394.5283 346.6795C394.5283 371.0895 398.9283 391.5995 403.3183 410.6395H541.9883C558.1083 410.6395 570.3083 421.3895 570.3083 437.4995C570.3083 454.0995 558.1083 464.8395 541.9883 464.8395H416.5083C419.9183 479.4895 421.8783 495.1195 421.8783 512.6995C421.8783 555.1795 404.2983 595.6995 378.4183 617.6795H597.1683C614.7483 617.6795 627.4383 629.3895 627.4383 646.9695C627.4383 665.5295 614.7483 676.7595 597.1683 676.7595Z"/>
</svg>