<?xml version="1.0" encoding="UTF-8" standalone="no"?>
<svg xmlns="http://www.w3.org/2000/svg"
     width="795.41015625" height="795.8984375"
     viewBox="0 0 795.41015625 795.8984375"
     fill="currentColor">
  <path d="M-0.0017 687.9883C-0.0017 755.8583 41.0183 795.8983 109.3783 795.8983H686.0383C754.8783 795.8983 795.4083 755.8583 795.4083 687.9883V107.9083C795.4083 40.0383 754.8783 -0.0017 686.0383 -0.0017H109.3783C41.0183 -0.0017 -0.0017 40.0383 -0.0017 107.9083ZM78.6183 669.4383V126.4683C78.6183 96.6783 96.1883 78.6083 125.4883 78.6083H669.9183C699.7083 78.6083 716.7983 96.6783 716.7983 126.4683V669.4383C716.7983 699.2183 699.7083 717.2883 669.9183 717.2883H125.4883C96.1883 717.2883 78.6183 699.2183 78.6183 669.4383Z"/>
</svg>