<?xml version="1.0" encoding="UTF-8" standalone="no"?>
<svg xmlns="http://www.w3.org/2000/svg"
     width="1051.26953125" height="1060.546875"
     viewBox="0 0 1051.26953125 1060.546875"
     fill="currentColor">
  <path d="M557.6183 327.6377H1004.8783C986.8183 170.8977 851.5583 -0.0023 620.6083 -0.0023C583.4983 -0.0023 557.6183 26.8577 557.6183 65.9177ZM288.0883 1060.5477C354.9783 1060.5477 409.1783 1015.6277 423.3383 953.1277H757.8083C771.9683 1009.2777 822.7583 1050.7777 882.8083 1050.7777C954.0983 1050.7777 1011.7183 993.1677 1011.7183 921.3877C1011.7183 850.0977 954.0983 792.4777 882.8083 792.4777C861.8183 792.4777 841.7983 797.3677 824.2183 806.6377L717.7783 700.1977H744.6283C944.8283 700.1977 999.0283 573.7277 1006.3483 455.0777H1017.0883C1036.1283 455.0777 1051.2683 439.4577 1051.2683 420.4077C1051.2683 401.3677 1036.1283 386.2277 1017.0883 386.2277H403.8083L181.6383 164.0577C170.4083 152.8277 158.1983 147.9477 142.5783 147.9477H36.6183C16.5983 147.9477 -0.0017 164.5477 -0.0017 184.5677C-0.0017 204.5877 16.5983 221.6777 36.6183 221.6777H135.7383L300.2883 386.2277H159.6683C140.6283 386.2277 125.4883 401.3677 125.4883 420.4077C125.4883 439.4577 140.6283 455.0777 159.6683 455.0777H171.3883L192.3783 537.5977C217.7783 637.2077 295.4083 700.1977 433.1083 700.1977H453.1283L354.4883 799.3177C334.9583 788.5777 312.4983 782.7177 288.0883 782.7177C209.9583 782.7177 149.4183 843.7477 149.4183 921.3877C149.4183 999.5077 209.9583 1060.5477 288.0883 1060.5477ZM423.3383 889.1577C419.9183 875.4877 414.5483 862.3077 407.7183 850.0977L557.6183 700.1977H613.7683L770.5083 857.4177C765.1383 867.1877 760.7383 877.9277 757.8083 889.1577ZM288.0883 996.5777C246.5783 996.5777 213.3783 963.3777 213.3783 921.3877C213.3783 879.3977 246.5783 846.6777 288.0883 846.6777C330.0783 846.6777 362.7883 879.3977 362.7883 921.3877C362.7883 963.3777 330.0783 996.5777 288.0883 996.5777ZM882.8083 996.5777C841.3083 996.5777 807.6183 963.3777 807.6183 921.3877C807.6183 879.3977 841.3083 846.6777 882.8083 846.6777C924.8083 846.6777 957.5183 879.3977 957.5183 921.3877C957.5183 963.3777 924.8083 996.5777 882.8083 996.5777Z"/>
</svg>