<?xml version="1.0" encoding="UTF-8" standalone="no"?>
<svg xmlns="http://www.w3.org/2000/svg"
     width="938.96484375" height="1081.0546875"
     viewBox="0 0 938.96484375 1081.0546875"
     fill="currentColor">
  <path d="M307.1283 303.2217H638.1883C695.3083 303.2217 723.1483 276.8517 723.1483 220.7017V82.5217C723.1483 26.3717 695.3083 0.0017 638.1883 0.0017H307.1283C249.5083 0.0017 222.1683 26.3717 222.1683 82.5217V220.7017C222.1683 276.8517 249.5083 303.2217 307.1283 303.2217ZM166.0183 1081.0517C188.9683 1081.0517 198.2383 1068.3617 203.6183 1047.3617L244.6283 892.0917H697.2683L738.2783 1047.3617C744.1383 1068.3617 754.8783 1081.0517 775.8783 1081.0517C801.2683 1081.0517 813.9683 1066.4017 813.9683 1044.9217C813.9683 1040.0417 813.4783 1035.1517 812.0083 1029.7817L733.8883 737.3017H762.2083C793.9483 737.3017 817.8683 717.2817 817.8683 689.4517C817.8683 659.1817 796.3883 639.6517 764.6483 639.6517H207.0283C170.4083 639.6517 149.4183 620.6017 149.4183 585.4517V451.6617H224.6083V487.7917C224.6083 543.4617 251.9483 569.3317 309.0783 569.3317H636.2283C692.8683 569.3317 720.2183 543.4617 720.2183 487.7917V451.6617H895.9983C922.3683 451.6617 938.9683 437.0117 938.9683 414.0617C938.9683 390.6217 922.8483 375.9717 897.9483 375.9717H38.5783C15.1383 375.9717 -0.0017 391.1117 -0.0017 414.0617C-0.0017 437.0117 16.1183 451.6617 41.0183 451.6617H73.7283V634.7617C73.7283 699.2217 113.2783 737.3017 177.7383 737.3017H208.0083L130.3683 1029.7817C128.9083 1034.6717 127.9283 1039.0617 127.9283 1045.4117C127.9283 1065.4317 139.1583 1081.0517 166.0183 1081.0517ZM265.1383 815.9217L285.6483 737.3017H656.2483L676.7583 815.9217Z"/>
</svg>