<?xml version="1.0" encoding="UTF-8" standalone="no"?>
<svg xmlns="http://www.w3.org/2000/svg"
     width="916.50390625" height="945.80078125"
     viewBox="0 0 916.50390625 945.80078125"
     fill="currentColor">
  <path d="M-0.0023 581.5452C-0.0023 697.7552 90.3277 788.0852 206.5477 788.0852C271.4877 788.0852 338.3777 766.6052 366.6977 709.4752H371.5777C372.0677 774.4152 300.7777 828.1252 271.4877 858.3952C236.3277 895.0152 257.8077 945.8052 303.2277 945.8052H613.2777C658.6877 945.8052 679.6877 895.0152 645.0177 858.3952C615.7277 828.1252 544.4377 774.4152 544.9177 709.4752H549.8077C578.1277 766.6052 645.0177 788.0852 709.4777 788.0852C826.1677 788.0852 916.5077 697.7552 916.5077 581.5452C916.5077 362.7952 625.4877 270.5052 508.7877 35.1552C499.0277 15.1352 483.8877 -0.0048 458.0077 -0.0048C432.1277 -0.0048 417.4777 15.1352 407.7177 35.1552C291.0177 270.5052 -0.0023 362.7952 -0.0023 581.5452Z"/>
</svg>