<?xml version="1.0" encoding="UTF-8" standalone="no"?>
<svg xmlns="http://www.w3.org/2000/svg"
     width="774.4140625" height="1305.17578125"
     viewBox="0 0 774.4140625 1305.17578125"
     fill="currentColor">
  <path d="M163.5783 1305.175H193.8483C220.2183 1305.175 237.3083 1288.085 237.3083 1262.205V1233.885H537.1083V1262.205C537.1083 1288.085 554.1983 1305.175 580.5683 1305.175H610.8383C636.7183 1305.175 654.2983 1288.085 654.2983 1262.205V1231.935C726.0783 1222.165 774.4183 1166.015 774.4183 1089.845V412.105C774.4183 327.145 714.8483 268.065 630.3683 268.065H604.4883V110.835C604.4883 42.965 562.0083 -0.005 494.6283 -0.005H284.6683C214.3583 -0.005 169.9183 42.965 169.9183 110.835V268.065H144.0383C59.5683 268.065 -0.0017 327.145 -0.0017 412.105V1089.845C-0.0017 1166.015 48.3383 1222.165 120.1183 1231.935V1262.205C120.1183 1288.085 137.2083 1305.175 163.5783 1305.175ZM245.6083 109.865C245.6083 86.425 262.6983 71.285 288.0883 71.285H491.2083C513.6683 71.285 528.8083 86.425 528.8083 109.865V268.065H245.6083ZM78.6183 415.525C78.6183 374.515 105.4683 346.675 145.0183 346.675H629.3983C668.9483 346.675 695.7983 374.515 695.7983 415.525V956.055H78.6183ZM145.0183 1155.275C105.4683 1155.275 78.6183 1126.955 78.6183 1085.935V1034.665H695.7983V1085.935C695.7983 1126.955 668.9483 1155.275 629.3983 1155.275Z"/>
</svg>