<?xml version="1.0" encoding="UTF-8" standalone="no"?>
<svg xmlns="http://www.w3.org/2000/svg"
     width="1197.265625" height="1154.296875"
     viewBox="0 0 1197.265625 1154.296875"
     fill="currentColor">
  <path d="M111.8183 746.5775H778.3183C849.1183 746.5775 890.1383 708.4975 890.1383 641.5975V245.1175C890.1383 178.7075 849.1183 140.1375 778.3183 140.1375H646.4883V111.3275C646.4883 37.1075 608.3983 -0.0025 532.7183 -0.0025H357.4183C283.6883 -0.0025 244.1383 39.0575 244.1383 111.3275V140.1375H111.8183C41.0183 140.1375 0.4883 178.7075 0.4883 245.1175V641.5975C0.4883 708.4975 41.0183 746.5775 111.8183 746.5775ZM312.9883 106.9375C312.9883 80.0775 327.6383 65.4275 355.9583 65.4275H534.1783C562.4983 65.4275 577.6383 80.0775 577.6383 106.9375V140.1375H312.9883ZM39.5483 902.8275H917.4783C1009.2783 902.8275 1051.2683 861.3275 1051.2683 770.9975V285.6475C1051.2683 244.6275 1071.7783 223.6375 1112.3083 223.6375H1158.1983C1179.1983 223.6375 1197.2683 205.5675 1197.2683 184.0775C1197.2683 163.0875 1179.1983 145.0175 1158.1983 145.0175H1106.4483C1014.6483 145.0175 972.6583 186.0375 972.6583 276.8575V762.2075C972.6583 803.2275 952.1483 824.2175 911.6183 824.2175H39.5483C18.0683 824.2175 -0.0017 841.3075 -0.0017 863.2775C-0.0017 885.2575 18.0683 902.8275 39.5483 902.8275ZM112.3083 675.7775C86.4283 675.7775 71.7783 662.5975 71.7783 638.6675V248.0475C71.7783 224.6075 86.4283 211.4275 112.3083 211.4275H160.1583V675.7775ZM230.9583 675.7775V211.4275H659.1783V675.7775ZM777.8283 211.4275C804.1983 211.4275 818.8483 224.6075 818.8483 248.0475V638.6675C818.8483 662.5975 804.1983 675.7775 777.8283 675.7775H729.9783V211.4275ZM212.3983 1154.2975C261.2283 1154.2975 302.7383 1112.7975 302.7383 1063.9675C302.7383 1014.1575 261.2283 972.6575 212.3983 972.6575C163.0883 972.6575 121.5783 1014.1575 121.5783 1063.9675C121.5783 1112.7975 163.0883 1154.2975 212.3983 1154.2975ZM735.8383 1154.2975C785.1583 1154.2975 826.1683 1112.7975 826.1683 1063.9675C826.1683 1014.1575 785.1583 972.6575 735.8383 972.6575C686.5283 972.6575 645.5083 1014.1575 645.5083 1063.9675C645.5083 1112.7975 686.5283 1154.2975 735.8383 1154.2975Z"/>
</svg>