<?xml version="1.0" encoding="UTF-8" standalone="no"?>
<svg xmlns="http://www.w3.org/2000/svg"
     width="920.41015625" height="915.0390625"
     viewBox="0 0 920.41015625 915.0390625"
     fill="currentColor">
  <path d="M-0.0023 550.2934C-0.0023 666.9934 92.2877 757.3234 208.4977 757.3234C273.4377 757.3234 340.3277 735.8434 368.6477 678.7134H373.5377C374.0277 743.6534 302.7377 797.3634 273.4377 827.6334C238.2777 864.2534 259.7677 915.0434 305.1777 915.0434H615.2377C660.6477 915.0434 681.6377 864.2534 646.9777 827.6334C617.6777 797.3634 546.3877 743.6534 546.8777 678.7134H551.7577C580.0777 735.8434 646.9777 757.3234 711.4277 757.3234C828.1277 757.3234 920.4077 666.9934 920.4077 550.2934C920.4077 433.1034 832.0277 333.9834 715.3277 333.9834C670.4077 333.9834 624.5077 349.1234 588.8677 377.4434C649.4177 328.1234 670.4077 266.1134 670.4077 210.4534C670.4077 93.7534 576.1677 0.0034 459.9577 0.0034C344.2377 0.0034 249.9977 93.7534 249.9977 210.4534C249.9977 266.1134 270.9977 328.1234 331.5477 377.4434C295.8977 349.1234 249.9977 333.9834 205.0777 333.9834C88.3777 333.9834 -0.0023 433.1034 -0.0023 550.2934Z"/>
</svg>