<?xml version="1.0" encoding="UTF-8" standalone="no"?>
<svg xmlns="http://www.w3.org/2000/svg"
     width="996.09375" height="996.09375"
     viewBox="0 0 996.09375 996.09375"
     fill="currentColor">
  <path d="M498.0477 996.0977C770.5077 996.0977 996.0977 770.5077 996.0977 498.0477C996.0977 226.0777 770.0177 -0.0023 497.5577 -0.0023C225.5877 -0.0023 -0.0023 226.0777 -0.0023 498.0477C-0.0023 770.5077 226.0777 996.0977 498.0477 996.0977ZM498.0477 179.1977C514.6477 179.1977 529.2977 193.8477 529.2977 210.9377V270.5077C529.2977 287.1077 514.6477 301.7577 498.0477 301.7577C481.4477 301.7577 467.2877 287.1077 467.2877 270.5077V210.9377C467.2877 193.8477 481.4477 179.1977 498.0477 179.1977ZM723.1477 272.4577C734.8677 284.6677 735.3477 304.6877 723.1477 316.4077L680.1777 359.3777C668.4577 371.5777 647.9477 372.0677 636.2277 359.3777C624.5077 348.1477 624.0277 329.0977 636.2277 316.4077L679.6877 272.4577C690.9177 260.7377 710.9377 260.2577 723.1477 272.4577ZM273.4377 272.4577C285.6477 260.7377 305.1777 261.2277 316.4077 272.4577L359.8677 316.4077C371.5777 327.6377 371.5777 348.1477 359.8677 359.3777C347.6577 371.5777 327.6377 372.0677 315.9177 359.3777L272.9477 316.4077C260.7377 304.6877 261.7177 284.6677 273.4377 272.4577ZM498.0477 650.8777C414.5477 650.8777 345.2177 581.0577 345.2177 498.0477C345.2177 414.5477 414.5477 344.7277 498.0477 344.7277C581.0577 344.7277 650.3877 414.5477 650.3877 498.0477C650.3877 581.0577 581.0577 650.8777 498.0477 650.8777ZM815.9177 498.0477C815.9177 514.6477 801.7577 528.8077 784.6677 528.8077H724.6077C708.0077 528.8077 693.8477 514.1577 693.8477 498.0477C693.8477 481.4477 708.0077 466.7977 724.6077 466.7977H784.6677C801.7577 466.7977 815.9177 480.9577 815.9177 498.0477ZM180.6677 498.0477C180.6677 480.9577 194.3377 466.7977 211.4277 466.7977H271.4877C288.0877 466.7977 302.2477 481.4477 302.2477 498.0477C302.2477 514.1577 288.0877 528.8077 271.4877 528.8077H211.4277C194.3377 528.8077 180.6677 514.6477 180.6677 498.0477ZM723.1477 723.1477C710.9377 734.8677 691.4077 734.8677 679.6877 723.1477L636.2277 679.6877C624.0277 667.9677 624.0277 648.4377 636.2277 636.2277C647.9477 624.5077 668.4577 624.5077 679.6877 636.2277L723.1477 679.1977C735.3477 690.4277 735.3477 710.4477 723.1477 723.1477ZM272.4577 722.6577C260.7377 710.4477 260.7377 690.9177 272.4577 679.1977L315.9177 636.2277C327.1477 624.5077 348.1477 624.5077 359.8677 636.2277C371.5777 648.9277 371.5777 668.4577 359.8677 679.6877L316.4077 723.1477C304.6877 734.8677 284.6677 734.8677 272.4577 722.6577ZM498.0477 816.4077C481.4477 816.4077 467.2877 801.7577 467.2877 785.1577V725.0977C467.2877 708.4977 481.4477 693.8477 498.0477 693.8477C514.6477 693.8477 529.2977 708.4977 529.2977 725.0977V785.1577C529.2977 801.7577 514.6477 816.4077 498.0477 816.4077Z"/>
</svg>