<?xml version="1.0" encoding="UTF-8" standalone="no"?>
<svg xmlns="http://www.w3.org/2000/svg"
     width="1251.46484375" height="797.8515625"
     viewBox="0 0 1251.46484375 797.8515625"
     fill="currentColor">
  <path d="M625.9783 207.5208C647.4583 207.0308 665.5283 188.4808 665.5283 163.5708V43.4608C665.5283 18.0708 647.4583 0.0008 625.9783 0.0008C604.0083 0.0008 585.9383 18.0708 585.9383 43.4608V163.5708C585.9383 188.4808 604.0083 208.0108 625.9783 207.5208ZM877.4383 311.5208C893.0683 326.6608 918.9483 326.6608 936.5283 308.5908L1021.4883 223.6308C1040.0383 205.5708 1039.0583 180.6608 1023.9283 165.0408C1008.7883 149.4108 983.3983 148.9208 965.3283 167.4808L880.3683 252.4408C862.3083 270.0208 861.8183 296.3908 877.4383 311.5208ZM314.9383 308.5908C332.5183 326.6608 358.8883 327.1508 374.0283 311.5208C389.1583 295.9008 389.1583 270.0208 371.0983 252.4408L286.1283 167.4808C268.0683 148.9208 243.1683 149.9008 227.5383 165.0408C211.9183 180.1708 211.4283 205.5708 229.9783 223.6308ZM890.1383 562.5008C890.1383 417.9708 770.5083 297.3608 625.9783 297.3608C480.9583 297.3608 361.3283 417.9708 361.3283 562.5008C361.3283 598.1408 368.6483 631.8408 382.3283 662.6008H869.1383C882.8083 631.8408 890.1383 598.1408 890.1383 562.5008ZM105.9583 590.3308H226.0783C251.4683 590.3308 270.5083 572.7508 270.0183 550.7808C269.5283 528.8108 250.9783 511.2308 226.0783 511.2308H105.9583C80.5683 511.2308 62.4983 528.8108 62.4983 550.7808C62.4983 572.7508 80.5683 590.3308 105.9583 590.3308ZM1025.3883 590.3308H1145.5083C1170.8983 590.3308 1188.9683 572.7508 1188.9683 550.7808C1188.9683 528.8108 1170.8983 511.2308 1145.5083 511.2308H1025.3883C1000.4883 511.2308 980.9583 528.8108 981.4483 550.7808C981.9383 572.7508 1000.4883 590.3308 1025.3883 590.3308ZM42.4783 797.8508H1208.9883C1231.9383 797.8508 1251.4683 780.2708 1251.4683 758.7908C1251.4683 737.3008 1231.9383 719.7308 1208.9883 719.7308H42.4783C19.5283 719.7308 -0.0017 737.3008 -0.0017 758.7908C-0.0017 780.2708 19.5283 797.8508 42.4783 797.8508Z"/>
</svg>