<?xml version="1.0" encoding="UTF-8" standalone="no"?>
<svg xmlns="http://www.w3.org/2000/svg"
     width="1056.15234375" height="1059.08203125"
     viewBox="0 0 1056.15234375 1059.08203125"
     fill="currentColor">
  <path d="M528.3177 189.9442C551.2677 189.9442 570.3077 170.8942 570.3077 147.4642V42.4842C570.3077 19.0442 551.2677 0.0042 528.3177 0.0042C504.8877 0.0042 485.8377 19.0442 485.8377 42.4842V147.4642C485.8377 170.8942 504.8877 189.9442 528.3177 189.9442ZM767.5777 290.0342C784.1777 306.1542 811.0377 306.6442 827.6377 290.0342L902.3477 215.3342C918.4577 199.2142 918.4577 171.8742 902.3477 155.2742C886.2277 139.1642 859.3777 139.1642 842.7777 155.2742L767.5777 230.4642C751.4677 247.0742 751.4677 273.9242 767.5777 290.0342ZM288.0877 290.0342C304.1977 274.4142 304.1977 246.5842 288.5777 230.4642L213.8677 155.2742C197.7577 139.6442 170.4077 139.1642 154.2977 155.2742C138.1877 171.8742 138.1877 199.2142 153.8077 214.8442L228.5177 290.0342C244.6277 306.1542 271.4877 306.1542 288.0877 290.0342ZM527.8277 778.8042C663.5777 778.8042 776.3677 666.0142 776.3677 529.7842C776.3677 393.0642 663.5777 280.2742 527.8277 280.2742C392.0877 280.2742 279.2977 393.0642 279.2977 529.7842C279.2977 666.0142 392.0877 778.8042 527.8277 778.8042ZM866.6977 529.7842C866.6977 552.7342 886.2277 571.7742 909.1777 571.7742H1014.1577C1037.1077 571.7742 1056.1477 552.7342 1056.1477 529.7842C1056.1477 506.8342 1037.1077 487.3042 1014.1577 487.3042H909.1777C886.2277 487.3042 866.6977 506.8342 866.6977 529.7842ZM189.4577 529.7842C189.4577 506.8342 169.9177 487.3042 146.9777 487.3042H41.9877C19.0477 487.3042 -0.0023 506.8342 -0.0023 529.7842C-0.0023 552.7342 19.0477 571.7742 41.9877 571.7742H146.9777C169.9177 571.7742 189.4577 552.7342 189.4577 529.7842ZM288.5777 769.5342C271.9777 753.9042 244.6277 753.9042 228.5177 769.5342L153.8077 844.2342C137.6977 860.3542 137.6977 887.2042 153.3177 903.8042C169.4377 919.4342 196.7777 919.9242 213.3777 904.2942L288.0877 829.1042C304.1977 812.9842 304.1977 786.1342 288.5777 769.5342ZM767.5777 769.5342C751.4677 786.1342 751.4677 812.9842 767.5777 829.1042L842.7777 904.7842C859.3777 920.4142 886.2277 919.9242 902.3477 904.2942C918.4577 887.6942 918.4577 860.8442 902.3477 844.7242L827.1477 769.5342C811.0377 753.9042 784.1777 753.9042 767.5777 769.5342ZM528.3177 869.6242C504.8877 869.6242 485.8377 888.6742 485.8377 911.6242V1017.0942C485.8377 1040.0342 504.8877 1059.0842 528.3177 1059.0842C551.2677 1059.0842 570.3077 1040.0342 570.3077 1017.0942V911.6242C570.3077 888.6742 551.2677 869.6242 528.3177 869.6242Z"/>
</svg>