<?xml version="1.0" encoding="UTF-8" standalone="no"?>
<svg xmlns="http://www.w3.org/2000/svg"
     width="996.09375" height="996.09375"
     viewBox="0 0 996.09375 996.09375"
     fill="currentColor">
  <path d="M498.0477 996.0977C770.5077 996.0977 996.0977 770.5077 996.0977 498.0477C996.0977 226.0777 770.0177 -0.0023 497.5577 -0.0023C225.5877 -0.0023 -0.0023 226.0777 -0.0023 498.0477C-0.0023 770.5077 226.0777 996.0977 498.0477 996.0977ZM498.0477 293.4577C482.4177 293.4577 470.2177 279.2977 470.2177 262.2077V197.7577C470.2177 180.1777 482.9077 167.4777 498.0477 167.4777C513.1877 167.4777 526.3677 180.1777 526.3677 197.7577V262.2077C526.3677 279.2977 513.6677 293.4577 498.0477 293.4577ZM629.8877 364.2577C618.1677 352.5377 618.1677 335.4477 630.8577 322.7577L677.7377 275.8777C689.4577 263.6677 708.0077 263.6677 719.2377 274.8977C729.4877 286.6177 729.0077 303.2177 716.3077 315.9177L670.8977 362.3077C658.6877 374.5077 641.1177 374.5077 629.8877 364.2577ZM366.6977 364.2577C355.4677 375.4877 337.8877 374.0277 325.6877 362.3077L279.7877 315.9177C267.0877 303.2177 266.5977 286.1377 277.3477 274.8977C288.0877 264.1577 305.6677 263.1877 318.3577 275.8777L365.2377 322.7577C377.4377 334.9577 378.4177 352.5377 366.6977 364.2577ZM356.4477 541.5077C351.5577 526.3677 348.1477 511.2277 348.1477 495.1177C348.1477 413.0877 416.5077 344.7277 498.0477 344.7277C580.0777 344.7277 647.9477 413.0877 647.9477 495.1177C647.9477 511.2277 644.5277 526.3677 639.6477 541.5077ZM312.9877 488.2777C312.9877 504.3977 299.3177 516.5977 281.2477 516.5977H216.7977C199.7077 516.5977 186.5277 503.9077 186.5277 488.2777C186.5277 473.1477 199.7077 460.4477 216.7977 460.4477H281.2477C298.8277 460.4477 312.9877 472.6577 312.9877 488.2777ZM683.5977 488.2777C683.5977 472.6577 697.2677 460.4477 714.8477 460.4477H779.7877C796.8777 460.4477 809.5677 473.1477 809.5677 488.2777C809.5677 503.9077 796.8777 516.5977 779.7877 516.5977H714.8477C697.2677 516.5977 683.5977 504.3977 683.5977 488.2777ZM216.3077 633.2977C201.1677 633.2977 186.5277 621.0977 186.5277 605.4677C186.5277 589.3577 200.6877 578.1277 216.3077 578.1277H780.2777C795.8977 578.1277 809.5677 589.3577 809.5677 605.4677C809.5677 621.0977 795.4077 633.2977 780.2777 633.2977ZM251.4677 722.6577C238.2777 722.6577 227.5377 711.4277 227.5377 698.7277C227.5377 685.5477 238.2777 674.3177 251.4677 674.3177C265.1377 674.3177 275.3877 685.5477 275.3877 698.7277C275.3877 711.4277 265.1377 722.6577 251.4677 722.6577ZM374.9977 722.6577C361.8177 722.6577 351.0777 711.4277 351.0777 698.7277C351.0777 685.5477 361.8177 674.3177 374.9977 674.3177C388.1877 674.3177 399.4177 685.5477 399.4177 698.7277C399.4177 711.4277 388.1877 722.6577 374.9977 722.6577ZM498.5377 722.6577C485.3477 722.6577 474.6077 711.4277 474.6077 698.7277C474.6077 685.5477 485.3477 674.3177 498.5377 674.3177C512.2077 674.3177 522.9477 685.5477 522.9477 698.7277C522.9477 711.4277 512.2077 722.6577 498.5377 722.6577ZM622.5577 722.6577C609.3777 722.6577 598.1477 711.4277 598.1477 698.7277C598.1477 685.5477 609.3777 674.3177 622.5577 674.3177C635.7377 674.3177 645.9977 685.5477 645.9977 698.7277C645.9977 711.4277 635.7377 722.6577 622.5577 722.6577ZM745.6077 722.6577C732.9077 722.6577 721.6777 711.4277 721.6777 698.7277C721.6777 685.5477 732.9077 674.3177 745.6077 674.3177C758.7877 674.3177 770.0177 685.5477 770.0177 698.7277C770.0177 711.4277 758.7877 722.6577 745.6077 722.6577ZM312.4977 790.5277C299.8077 790.5277 289.0577 779.7877 289.0577 766.5977C289.0577 753.4177 299.8077 742.1877 312.4977 742.1877C326.1677 742.1877 336.9177 753.4177 336.9177 766.5977C336.9177 779.7877 326.1677 790.5277 312.4977 790.5277ZM436.5277 790.5277C423.3377 790.5277 412.5977 779.7877 412.5977 766.5977C412.5977 753.4177 423.3377 742.1877 436.5277 742.1877C449.7077 742.1877 460.9377 753.4177 460.9377 766.5977C460.9377 779.7877 449.7077 790.5277 436.5277 790.5277ZM560.0577 790.5277C546.8777 790.5277 536.1377 779.7877 536.1377 766.5977C536.1377 753.4177 546.8777 742.1877 560.0577 742.1877C573.7277 742.1877 583.9877 753.4177 583.9877 766.5977C583.9877 779.7877 573.7277 790.5277 560.0577 790.5277ZM684.0777 790.5277C670.4077 790.5277 659.6677 779.7877 659.6677 766.5977C659.6677 753.4177 670.4077 742.1877 684.0777 742.1877C696.7777 742.1877 707.5177 753.4177 707.5177 766.5977C707.5177 779.7877 696.7777 790.5277 684.0777 790.5277Z"/>
</svg>