<?xml version="1.0" encoding="UTF-8" standalone="no"?>
<svg xmlns="http://www.w3.org/2000/svg"
     width="996.09375" height="996.09375"
     viewBox="0 0 996.09375 996.09375"
     fill="currentColor">
  <path d="M498.0477 996.0959C770.5077 996.0959 996.0977 770.0159 996.0977 498.0459C996.0977 225.5859 770.0177 -0.0041 497.5577 -0.0041C225.5877 -0.0041 -0.0023 225.5859 -0.0023 498.0459C-0.0023 770.0159 226.0777 996.0959 498.0477 996.0959ZM498.0477 913.0859C267.5777 913.0859 83.4977 728.5159 83.4977 498.0459C83.4977 267.5759 267.0877 83.0059 497.5577 83.0059C728.0277 83.0059 913.0877 267.5759 913.0877 498.0459C913.0877 728.5159 728.5177 913.0859 498.0477 913.0859ZM497.5577 188.9659C481.4477 188.9659 467.7777 202.6359 467.7777 218.7459V277.3459C467.7777 293.4559 481.4477 307.1259 497.5577 307.1259C513.6677 307.1259 527.8277 293.4559 527.8277 277.3459V218.7459C527.8277 202.6359 513.6677 188.9659 497.5577 188.9659ZM715.8177 279.2959C704.0977 267.5759 684.5677 268.0659 673.8277 279.2959L631.8377 321.7759C620.1177 333.9859 620.6077 352.5359 631.8377 363.2859C643.0677 374.9959 662.5977 374.9959 674.3177 363.2859L715.8177 321.7759C727.5377 310.0559 727.0477 291.0159 715.8177 279.2959ZM279.7877 279.2959C268.5577 291.0159 267.5777 310.0559 279.2977 321.7759L320.7977 363.2859C332.5177 374.9959 351.5577 374.9959 363.2777 363.2859C374.5077 352.0459 374.5077 333.0059 363.2777 321.7759L321.2877 279.2959C310.5477 268.5559 291.5077 268.0659 279.7877 279.2959ZM497.5577 645.9959C578.1277 645.9959 645.0177 578.6159 645.0177 497.5559C645.0177 416.9959 578.1277 349.6059 497.5577 349.6059C416.5077 349.6059 349.6077 416.9959 349.6077 497.5559C349.6077 578.6159 416.5077 645.9959 497.5577 645.9959ZM805.6677 497.5559C805.6677 481.4459 791.9877 467.7759 775.8777 467.7759H717.2877C701.1677 467.7759 687.4977 481.9359 687.4977 497.5559C687.4977 513.6759 701.1677 527.8359 717.2877 527.8359H775.8777C791.9877 527.8359 805.6677 514.1559 805.6677 497.5559ZM189.9377 497.5559C189.9377 514.1559 203.1277 527.8359 219.2377 527.8359H277.8277C293.9477 527.8359 307.6177 513.6759 307.6177 497.5559C307.6177 481.9359 293.9477 467.7759 277.8277 467.7759H219.2377C203.1277 467.7759 189.9377 481.4459 189.9377 497.5559ZM278.8077 715.8159C290.5277 727.5359 310.0577 727.5359 321.2877 716.3059L363.2777 674.3159C374.5077 663.0859 374.5077 644.5359 363.2777 631.8359C352.0477 621.0959 332.0277 620.6059 320.7977 631.8359L278.8077 673.8259C267.5777 685.0559 267.5777 704.1059 278.8077 715.8159ZM715.8177 716.3059C727.5377 704.1059 727.5377 684.5659 715.8177 673.8259L673.8277 631.8359C662.5977 621.0959 643.0677 620.6059 631.8377 631.8359C620.1177 644.0459 620.1177 662.5959 631.8377 674.3159L673.8277 716.3059C685.0577 727.5359 704.0977 727.5359 715.8177 716.3059ZM497.5577 806.6359C513.6677 806.6359 527.8277 792.4759 527.8277 776.3659V717.7759C527.8277 702.1459 513.6677 687.9859 497.5577 687.9859C481.4477 687.9859 467.7777 702.1459 467.7777 717.7759V776.3659C467.7777 792.4759 481.4477 806.6359 497.5577 806.6359Z"/>
</svg>