<?xml version="1.0" encoding="UTF-8" standalone="no"?>
<svg xmlns="http://www.w3.org/2000/svg"
     width="1251.46484375" height="796.38671875"
     viewBox="0 0 1251.46484375 796.38671875"
     fill="currentColor">
  <path d="M625.9783 207.5159C647.4583 207.0359 665.5283 188.4759 665.5283 163.5759V43.4559C665.5283 18.0659 647.4583 -0.0041 625.9783 -0.0041C604.0083 -0.0041 585.9383 18.0659 585.9383 43.4559V163.5759C585.9383 188.4759 604.0083 208.0059 625.9783 207.5159ZM877.4383 311.5259C893.0683 326.6559 918.9483 326.6559 936.5283 308.5959L1021.4883 223.6359C1040.0383 205.5659 1039.0583 180.6659 1023.9283 165.0359C1008.7883 149.4159 983.3983 148.9259 965.3283 167.4759L880.3683 252.4459C862.3083 270.0159 861.8183 296.3859 877.4383 311.5259ZM374.0283 311.5259C389.1583 295.8959 389.1583 270.0159 371.0983 252.4459L286.1283 167.4759C268.0683 148.9259 243.1683 149.9059 227.5383 165.0359C211.9183 180.1759 211.4283 205.5659 229.9783 223.6359L314.9383 308.5959C332.5183 326.6559 358.8883 327.1459 374.0283 311.5259ZM42.4783 796.3859H1208.9883C1231.9383 796.3859 1251.4683 778.8059 1251.4683 757.3259C1251.4683 735.8359 1231.9383 718.2659 1208.9883 718.2659H841.7983C874.0283 674.8059 892.5783 621.0959 892.5783 563.4759C892.5783 416.9959 771.4883 295.8959 625.9783 295.8959C479.9783 295.8959 358.8883 416.9959 358.8883 563.4759C358.8883 621.0959 377.4383 674.8059 409.6683 718.2659H42.4783C19.5283 718.2659 -0.0017 735.8359 -0.0017 757.3259C-0.0017 778.8059 19.5283 796.3859 42.4783 796.3859ZM437.0083 563.4759C437.0083 459.9559 522.4583 374.5159 625.9783 374.5159C729.0083 374.5159 814.4483 459.9559 814.4483 563.4759C814.4483 627.4459 780.7583 685.0559 730.9583 718.2659H520.5083C470.6983 685.0559 437.0083 627.4459 437.0083 563.4759ZM105.9583 590.3359H226.0783C251.4683 590.3359 270.5083 572.7559 270.0183 550.7859C269.5283 528.8059 250.9783 511.2259 226.0783 511.2259H105.9583C80.5683 511.2259 62.4983 528.8059 62.4983 550.7859C62.4983 572.7559 80.5683 590.3359 105.9583 590.3359ZM1025.3883 590.3359H1145.5083C1170.8983 590.3359 1188.9683 572.7559 1188.9683 550.7859C1188.9683 528.8059 1170.8983 511.2259 1145.5083 511.2259H1025.3883C1000.4883 511.2259 980.9583 528.8059 981.4483 550.7859C981.9383 572.7559 1000.4883 590.3359 1025.3883 590.3359Z"/>
</svg>