<?xml version="1.0" encoding="UTF-8" standalone="no"?>
<svg xmlns="http://www.w3.org/2000/svg"
     width="996.09375" height="996.09375"
     viewBox="0 0 996.09375 996.09375"
     fill="currentColor">
  <path d="M498.0477 996.0977C770.5077 996.0977 996.0977 770.5077 996.0977 498.0477C996.0977 226.0777 770.0177 -0.0023 497.5577 -0.0023C225.5877 -0.0023 -0.0023 226.0777 -0.0023 498.0477C-0.0023 770.5077 226.0777 996.0977 498.0477 996.0977ZM497.5577 395.5077C482.9077 395.5077 471.1877 382.8077 471.1877 367.6777V275.8777L472.6577 258.7877L470.2177 261.2277L436.0377 294.9177C431.1477 299.3177 424.3177 302.2477 417.9677 302.2477C404.7877 302.2477 395.5077 292.9677 395.5077 279.7877C395.5077 273.4377 397.4577 267.5777 403.3177 261.7177L479.9777 189.9377C485.8377 184.5677 491.6977 182.1277 497.5577 182.1277C503.4177 182.1277 509.2777 184.5677 515.1377 189.9377L591.7977 261.7177C598.1477 267.5777 599.6077 273.4377 599.6077 279.7877C599.6077 292.9677 590.3277 302.2477 577.1477 302.2477C570.7977 302.2477 563.4777 299.8077 559.5677 294.9177L528.8077 263.1877L522.4577 257.3277L523.9277 275.8777V367.6777C523.9277 382.8077 512.2077 395.5077 497.5577 395.5077ZM620.6077 461.4277C609.8677 451.1677 610.3477 434.5677 622.0677 422.8477L665.0377 379.3977C676.7577 368.1677 693.3577 367.6777 703.6177 378.4177C713.3777 389.1577 712.8877 404.7877 701.6577 416.9877L658.6877 460.4477C646.9777 471.6777 630.8577 471.6777 620.6077 461.4277ZM336.9177 460.4477L293.4577 416.9877C281.7377 404.7877 281.7377 389.1577 291.5077 378.4177C301.7577 368.6477 318.3577 367.6777 330.0777 379.3977L373.5377 422.8477C384.2777 434.0777 385.7377 451.1677 375.4877 461.4277C365.2377 472.1677 348.1477 471.1877 336.9177 460.4477ZM637.6977 583.4977C637.6977 598.6377 634.7677 613.7677 629.3977 627.9277H365.7277C360.3477 613.7677 357.4177 598.6377 357.4177 583.4977C357.4177 507.3277 421.3877 443.8477 497.5577 443.8477C574.2177 443.8477 637.6977 507.3277 637.6977 583.4977ZM234.8677 604.0077C218.7477 604.0077 206.5477 592.2877 206.5477 578.1277C206.5477 563.9677 218.7477 551.7577 234.8677 551.7577H295.8977C312.0077 551.7577 324.2177 563.4777 324.2177 578.1277C324.2177 592.7777 312.0077 604.0077 295.8977 604.0077ZM699.7077 604.0077C683.5977 604.0077 670.8977 592.7777 670.8977 578.1277C670.8977 563.4777 683.5977 551.7577 699.7077 551.7577H760.2577C776.8577 551.7577 788.5777 563.4777 788.5777 578.1277C788.5777 592.2877 776.8577 604.0077 760.2577 604.0077ZM234.3777 710.4477C220.2177 710.4477 206.5477 699.2177 206.5477 684.5677C206.5477 669.9177 219.7277 658.6877 234.3777 658.6877H760.7377C775.8777 658.6877 788.5777 669.9177 788.5777 684.5677C788.5777 699.2177 775.3877 710.4477 760.7377 710.4477Z"/>
</svg>