<?xml version="1.0" encoding="UTF-8" standalone="no"?>
<svg xmlns="http://www.w3.org/2000/svg"
     width="996.09375" height="996.09375"
     viewBox="0 0 996.09375 996.09375"
     fill="currentColor">
  <path d="M498.0477 996.0959C770.5077 996.0959 996.0977 770.0159 996.0977 498.0459C996.0977 225.5859 770.0177 -0.0041 497.5577 -0.0041C225.5877 -0.0041 -0.0023 225.5859 -0.0023 498.0459C-0.0023 770.0159 226.0777 996.0959 498.0477 996.0959ZM498.0477 913.0859C267.5777 913.0859 83.4977 728.5159 83.4977 498.0459C83.4977 267.5759 267.0877 83.0059 497.5577 83.0059C728.0277 83.0059 913.0877 267.5759 913.0877 498.0459C913.0877 728.5159 728.5177 913.0859 498.0477 913.0859ZM497.5577 189.9459C483.3977 189.9459 472.1677 202.1459 472.1677 216.7959V306.1559L473.6377 322.7559L471.1877 320.3159L437.9877 287.5959C433.1077 283.2059 426.2677 280.2759 420.4077 280.2759C407.7177 280.2759 398.4377 290.0359 398.4377 302.2459C398.4377 308.1059 400.3877 313.9659 406.2477 319.3359L480.4677 389.1559C486.3277 394.5359 491.6977 396.9759 497.5577 396.9759C503.4177 396.9759 508.7877 394.5359 514.6477 389.1559L588.8677 319.3359C595.2177 313.9659 596.6777 308.1059 596.6777 302.2459C596.6777 290.0359 587.3977 280.2759 574.7077 280.2759C568.8477 280.2759 561.5277 283.2059 557.6177 287.5959L527.8277 318.3559L521.4877 324.2159L522.9477 306.1559V216.7959C522.9477 202.1459 511.7177 189.9459 497.5577 189.9459ZM617.1877 460.9359C626.9577 470.7059 642.5777 470.7059 653.8077 459.4759L695.7977 416.9959C706.5477 405.7659 707.0277 390.6259 697.2677 380.3759C687.4977 370.1159 671.3877 370.6059 660.1577 381.3459L618.1677 423.8259C606.9377 435.0559 606.4477 450.6859 617.1877 460.9359ZM341.7977 459.4759C352.5377 470.2159 369.1377 471.1959 378.9077 460.9359C389.1577 450.6859 387.6977 434.5659 377.4377 423.8259L334.9577 381.3459C323.7277 370.1159 307.6177 371.0959 297.8477 380.3759C288.0877 390.6259 288.0877 405.7659 299.3177 416.9959ZM633.2977 579.5859C633.2977 505.3759 571.7777 443.3559 497.5577 443.3559C423.8277 443.3559 361.8177 505.3759 361.8177 579.5859C361.8177 594.2359 364.7477 608.3959 369.6277 622.5559H625.4877C630.3677 608.3959 633.2977 594.2359 633.2977 579.5859ZM242.6777 599.1259H302.2477C317.3877 599.1259 329.5877 588.3759 329.5877 573.7259C329.5877 559.5659 317.3877 548.8259 302.2477 548.8259H242.6777C227.0477 548.8259 215.3277 560.0559 215.3277 573.7259C215.3277 587.4059 227.0477 599.1259 242.6777 599.1259ZM693.3577 599.1259H752.4377C768.5577 599.1259 779.7877 587.8859 779.7877 573.7259C779.7877 560.0559 768.5577 548.8259 752.4377 548.8259H693.3577C678.2277 548.8259 665.5277 559.5659 665.5277 573.7259C665.5277 588.3759 678.2277 599.1259 693.3577 599.1259ZM242.1877 702.1459H752.9277C767.0877 702.1459 779.7877 691.4059 779.7877 677.2459C779.7877 663.0859 767.5777 652.3459 752.9277 652.3459H242.1877C228.0277 652.3459 215.3277 663.0859 215.3277 677.2459C215.3277 691.4059 228.5177 702.1459 242.1877 702.1459Z"/>
</svg>