<?xml version="1.0" encoding="UTF-8" standalone="no"?>
<svg xmlns="http://www.w3.org/2000/svg"
     width="1731.93359375" height="776.3671875"
     viewBox="0 0 1731.93359375 776.3671875"
     fill="currentColor">
  <path d="M1670.8983 146.4817L1648.9283 114.2617C1592.7783 32.7117 1523.9283 0.0017 1410.6483 0.0017H1029.2983C828.1283 0.0017 747.5583 19.5317 627.9283 94.2417L431.1483 217.7717L249.0283 240.2317C82.5183 260.7417 -0.0017 336.9117 -0.0017 470.7017V554.6917C-0.0017 634.2817 46.8783 682.1317 124.5083 682.1317H204.0983C202.1483 670.4117 200.6883 658.6917 200.6883 645.9917C200.6883 541.9917 284.6683 458.4917 388.1883 458.4917C492.1883 458.4917 575.6883 541.9917 575.6883 645.9917C575.6883 658.6917 574.7083 670.4117 572.2683 682.1317H1185.5483C1183.5983 670.4117 1182.1283 658.6917 1182.1283 645.9917C1182.1283 542.4817 1266.5983 458.4917 1369.6283 458.4917C1473.6283 458.4917 1557.1283 541.9917 1557.1283 645.9917C1557.1283 658.6917 1556.1483 670.4117 1553.7083 682.1317H1607.9083C1693.3583 682.1317 1731.9383 638.1817 1731.9383 541.5017V333.0117C1731.9383 271.9717 1709.4683 202.1517 1670.8983 146.4817ZM639.1583 327.6317C639.1583 241.7017 702.1483 183.1017 795.4083 183.1017H1088.8683C1110.3483 183.1017 1124.9983 198.2417 1124.9983 218.2617C1124.9983 238.2817 1110.3483 251.9517 1089.3583 251.9517H795.4083C744.1383 251.9517 709.9583 284.1817 709.9583 331.5417C709.9583 373.5317 743.6483 401.8517 794.9183 401.8517H995.6083V358.4017C995.6083 329.1017 1016.1183 319.3317 1041.0183 335.9417L1157.7183 412.6017C1177.2483 426.2717 1176.2683 449.7117 1157.7183 461.4217L1040.5283 538.5717C1015.6283 554.6917 995.6083 544.4317 995.6083 516.1117V470.2117H794.9183C702.1483 470.2117 639.1583 413.0817 639.1583 327.6317ZM388.1883 776.3717C461.4283 776.3717 519.0383 718.7517 519.0383 645.9917C519.0383 573.2417 460.9383 515.1317 388.1883 515.1317C315.9183 515.1317 257.8083 573.2417 257.8083 645.9917C257.8083 718.2617 315.9183 776.3717 388.1883 776.3717ZM1369.6283 776.3717C1442.3783 776.3717 1500.4883 718.2617 1500.4883 645.9917C1500.4883 573.2417 1442.3783 515.1317 1369.6283 515.1317C1297.8483 515.1317 1239.2583 573.7317 1239.2583 645.9917C1239.2583 718.2617 1297.3683 776.3717 1369.6283 776.3717Z"/>
</svg>