<?xml version="1.0" encoding="UTF-8" standalone="no"?>
<svg xmlns="http://www.w3.org/2000/svg"
     width="1731.93359375" height="1005.37109375"
     viewBox="0 0 1731.93359375 1005.37109375"
     fill="currentColor">
  <path d="M969.7283 439.4558C993.6483 439.4558 1010.7383 422.3658 1011.7183 397.4658L1021.9683 51.7558C1022.9483 20.5058 1001.9483 -0.0042 969.7283 -0.0042C937.4983 -0.0042 916.9883 20.5058 917.9683 51.7558L928.2183 397.4658C929.1983 422.3658 945.7983 439.4558 969.7283 439.4558ZM124.5083 894.0458H230.4683C252.9283 959.4758 313.9683 1005.3758 388.1883 1005.3758C462.3983 1005.3758 523.9283 959.4758 546.3883 894.0458H1211.9183C1234.3783 959.4758 1295.4083 1005.3758 1369.6283 1005.3758C1443.8483 1005.3758 1505.3683 959.4758 1527.8283 894.0458H1607.9083C1693.3583 894.0458 1731.9383 850.0958 1731.9383 753.4158V544.9258C1731.9383 483.8858 1709.4683 414.0658 1670.8983 358.3958L1648.9283 326.1758C1592.7783 244.6258 1523.9283 211.9158 1410.6483 211.9158H1074.2183L1071.7783 290.5258H1410.6483C1495.1183 290.5258 1543.9483 313.9658 1583.9883 371.0958L1605.9583 402.8358C1635.7383 445.7958 1653.3183 498.5358 1653.3183 544.9258V758.2958C1653.3183 797.3658 1638.1883 815.4258 1603.5183 815.4258H1535.1583C1524.4183 732.9058 1455.5683 671.3858 1369.6283 671.3858C1283.6883 671.3858 1215.3283 732.9058 1204.0983 815.4258H553.7083C542.9683 732.9058 474.1183 671.3858 388.1883 671.3858C302.2483 671.3858 233.3983 732.9058 222.6583 815.4258H128.9083C97.1683 815.4258 78.6183 793.9458 78.6183 756.8358V682.6158C78.6183 595.2158 137.2083 545.8958 259.2783 530.2758L458.0083 505.3758L669.9183 373.5358C738.7683 330.5658 790.5283 308.5958 868.6483 298.3358L865.7183 219.2358C771.4883 229.9758 708.4983 255.3758 627.9283 306.1558L431.1483 429.6858L249.0283 452.1458C82.5183 472.6558 -0.0017 548.8258 -0.0017 682.6158V766.6058C-0.0017 846.1958 46.8783 894.0458 124.5083 894.0458ZM969.7283 656.2458C1004.8783 656.2458 1033.6883 627.4458 1033.6883 594.2358C1033.6883 560.5458 1005.3683 532.7158 969.7283 532.7158C934.5683 532.7158 905.7583 560.5458 905.7583 594.2358C905.7583 627.4458 935.0583 656.2458 969.7283 656.2458ZM388.1883 926.7558C338.3783 926.7558 299.8083 888.1858 299.8083 838.3758C299.8083 788.5758 338.3783 749.9958 388.1883 749.9958C437.9883 749.9958 476.5583 788.5758 476.5583 838.3758C476.5583 888.1858 437.9883 926.7558 388.1883 926.7558ZM1369.6283 926.7558C1319.8283 926.7558 1281.2483 888.1858 1281.2483 838.3758C1281.2483 788.5758 1319.8283 749.9958 1369.6283 749.9958C1419.4383 749.9958 1458.0083 788.5758 1458.0083 838.3758C1458.0083 888.1858 1419.4383 926.7558 1369.6283 926.7558Z"/>
</svg>