<?xml version="1.0" encoding="UTF-8" standalone="no"?>
<svg xmlns="http://www.w3.org/2000/svg"
     width="1731.93359375" height="1018.9823868028957"
     viewBox="0 0 1731.93359375 1018.9823868028957"
     fill="currentColor">
  <path d="M124.5083 682.1317H230.4683C252.9283 747.5617 313.9683 793.4617 388.1883 793.4617C462.3983 793.4617 523.9283 747.5617 546.3883 682.1317H1211.9183C1234.3783 747.5617 1295.4083 793.4617 1369.6283 793.4617C1443.8483 793.4617 1505.3683 747.5617 1527.8283 682.1317H1607.9083C1693.3583 682.1317 1731.9383 638.1817 1731.9383 541.5017V333.0117C1731.9383 271.9717 1708.9883 202.1517 1670.8983 146.4817L1648.9283 114.2617C1592.7783 32.7117 1523.9283 0.0017 1410.6483 0.0017H1029.2983C828.1283 0.0017 747.5583 19.5317 627.9283 94.2417L431.1483 217.7717L249.0283 240.2317C82.5183 260.7417 -0.0017 336.9117 -0.0017 470.7017V554.6917C-0.0017 634.2817 46.8783 682.1317 124.5083 682.1317ZM1369.6283 459.4717C1283.6883 459.4717 1215.3283 520.9917 1204.0983 603.5117H553.7083C542.9683 520.9917 474.1183 459.4717 388.1883 459.4717C302.2483 459.4717 233.3983 520.9917 222.6583 603.5117H128.9083C97.1683 603.5117 78.6183 582.0317 78.6183 544.9217V470.7017C78.6183 383.3017 137.2083 333.9817 259.2783 318.3617L458.0083 293.4617L669.9183 161.6217C777.8283 94.2417 841.7983 78.6117 1029.2983 78.6117H1410.6483C1495.1183 78.6117 1544.4383 101.5617 1583.9883 159.1817L1605.9583 190.9217C1635.7383 233.8817 1653.3183 286.6217 1653.3183 333.0117V546.3817C1653.3183 585.4517 1638.1883 603.5117 1603.5183 603.5117H1535.1583C1524.4183 520.9917 1455.5683 459.4717 1369.6283 459.4717ZM1033.6883 478.5117L915.0383 285.1517C900.3883 260.7417 872.0683 260.2517 856.9383 285.1517L737.7883 478.5117C722.1683 503.9017 734.3783 528.8117 764.6483 528.8117H1007.3283C1037.5983 528.8117 1049.3183 503.9017 1033.6883 478.5117ZM388.1883 714.8417C338.3783 714.8417 299.8083 676.2717 299.8083 626.4617C299.8083 576.6617 338.3783 538.0817 388.1883 538.0817C437.9883 538.0817 476.5583 576.6617 476.5583 626.4617C476.5583 676.2717 437.9883 714.8417 388.1883 714.8417ZM1369.6283 714.8417C1319.8283 714.8417 1281.2483 676.2717 1281.2483 626.4617C1281.2483 576.6617 1319.8283 538.0817 1369.6283 538.0817C1419.4383 538.0817 1458.0083 576.6617 1458.0083 626.4617C1458.0083 676.2717 1419.4383 714.8417 1369.6283 714.8417ZM1033.6883 807.6217C1049.3183 782.2217 1037.5983 756.8317 1007.3283 756.8317H764.6483C734.3783 756.8317 722.1683 782.2217 737.7883 807.6217L856.9383 1000.4917C872.0683 1025.3917 900.3883 1024.9017 915.0383 1000.4917Z"/>
</svg>