<?xml version="1.0" encoding="UTF-8" standalone="no"?>
<svg xmlns="http://www.w3.org/2000/svg"
     width="1731.93359375" height="776.3671875"
     viewBox="0 0 1731.93359375 776.3671875"
     fill="currentColor">
  <path d="M1670.8983 146.4817L1648.9283 114.2617C1592.7783 32.7117 1523.9283 0.0017 1410.6483 0.0017H1029.2983C828.1283 0.0017 747.5583 19.5317 627.9283 94.2417L431.1483 217.7717L249.0283 240.2317C82.5183 260.7417 -0.0017 336.9117 -0.0017 470.7017V554.6917C-0.0017 634.2817 46.8783 682.1317 124.5083 682.1317H204.0983C202.1483 670.4117 200.6883 658.6917 200.6883 645.9917C200.6883 541.9917 284.6683 458.4917 388.1883 458.4917C492.1883 458.4917 575.6883 541.9917 575.6883 645.9917C575.6883 658.6917 574.7083 670.4117 572.2683 682.1317H1185.5483C1183.5983 670.4117 1182.1283 658.6917 1182.1283 645.9917C1182.1283 542.4817 1266.5983 458.4917 1369.6283 458.4917C1473.6283 458.4917 1557.1283 541.9917 1557.1283 645.9917C1557.1283 658.6917 1556.1483 670.4117 1553.7083 682.1317H1607.9083C1693.3583 682.1317 1731.9383 638.1817 1731.9383 541.5017V333.0117C1731.9383 271.9717 1709.4683 202.1517 1670.8983 146.4817ZM1030.7583 517.5817C1046.8783 542.9717 1035.1583 567.8717 1004.8783 567.8717H761.7183C731.4483 567.8717 719.2383 542.9717 735.3483 517.5817L854.0083 324.2217C869.6283 299.3117 897.4583 299.8017 912.5983 324.2217ZM388.1883 776.3717C461.4283 776.3717 519.0383 718.7517 519.0383 645.9917C519.0383 573.2417 460.9383 515.1317 388.1883 515.1317C315.9183 515.1317 257.8083 573.2417 257.8083 645.9917C257.8083 718.2617 315.9183 776.3717 388.1883 776.3717ZM1369.6283 776.3717C1442.3783 776.3717 1500.4883 718.2617 1500.4883 645.9917C1500.4883 573.2417 1442.3783 515.1317 1369.6283 515.1317C1297.8483 515.1317 1239.2583 573.7317 1239.2583 645.9917C1239.2583 718.2617 1297.3683 776.3717 1369.6283 776.3717Z"/>
</svg>