<?xml version="1.0" encoding="UTF-8" standalone="no"?>
<svg xmlns="http://www.w3.org/2000/svg"
     width="1095.477609016504" height="1126.953125"
     viewBox="0 0 1095.477609016504 1126.953125"
     fill="currentColor">
  <path d="M138.6683 1126.9556H323.2383C379.3983 1126.9556 417.9683 1108.8856 438.9683 1073.7256L1024.4183 736.3256C1099.1183 692.8756 1115.2383 630.3756 1071.2883 554.1956L979.0083 394.5356C950.1983 344.2356 914.0583 317.8756 872.5583 317.3856C895.5083 255.8556 873.5383 205.0756 808.1083 167.4756L647.9483 74.7056C568.8483 28.8056 505.8583 43.9456 462.3983 119.1356L457.5183 127.9256C456.0583 43.4556 410.6483 -0.0044 323.2383 -0.0044H138.6683C47.3683 -0.0044 -0.0017 44.4356 -0.0017 131.3456V995.1156C-0.0017 1082.0356 47.3683 1126.9556 138.6683 1126.9556ZM78.6183 135.2556C78.6183 102.5356 104.9783 78.6156 139.6483 78.6156H322.2683C354.9783 78.6156 378.9083 102.5356 378.9083 135.2556V349.6056H78.6183ZM528.3183 161.6256C544.4383 133.3056 579.5883 125.4856 609.8683 143.0656L768.0683 234.3756C795.8983 250.4856 804.1983 283.2056 788.0883 312.0156L681.1483 497.0656L457.5183 368.1656V284.1756ZM831.5383 410.1556C859.8683 393.5556 894.0383 404.2956 911.6183 434.5656L1002.9283 592.2856C1019.0383 620.6056 1009.7683 653.8056 981.9383 669.9256L796.3883 776.8556L703.6183 615.7256L817.3783 418.4556ZM78.6183 698.7256V428.2256H378.9083V698.7256ZM457.5183 770.9956V458.4956L641.5983 565.4256L506.8383 799.8056ZM658.1983 694.3356L728.0283 816.4056L517.5783 937.9856ZM139.6483 1048.3356C104.9783 1048.3356 78.6183 1023.9256 78.6183 991.2156V777.3456H378.9083V991.2156C378.9083 1023.9256 354.9783 1048.3356 322.2683 1048.3356ZM457.5183 861.8156L467.2883 867.6756L457.5183 885.2556Z"/>
</svg>