<?xml version="1.0" encoding="UTF-8" standalone="no"?>
<svg xmlns="http://www.w3.org/2000/svg"
     width="1083.49609375" height="965.612992210863"
     viewBox="0 0 1083.49609375 965.612992210863"
     fill="currentColor">
  <path d="M0.0006 621.0889C82.0306 754.8789 296.3906 960.9389 584.9606 960.9389C769.0406 960.9389 819.3406 875.4889 926.2706 875.4889C1015.1406 875.4889 1050.2906 935.0589 1063.9606 958.4989C1067.8706 965.8189 1074.2206 970.6989 1078.6106 956.5389C1081.0506 946.2889 1083.5006 932.6189 1083.5006 916.0189C1083.5006 869.1389 1069.3406 779.7889 991.2106 681.6389C1008.3006 633.2989 1010.2506 580.0789 1010.2506 548.8289C1010.2506 406.7389 930.1806 159.6689 665.0406 -0.0011C720.2106 78.1289 794.4306 196.2889 794.4306 360.8389C794.4306 420.4089 777.8306 485.8389 764.6506 518.5589C620.6006 435.0589 345.2106 205.5689 234.8606 88.3789C323.2406 224.1189 428.2206 347.1689 544.4306 476.0789C388.1806 377.4389 242.6806 266.5989 106.9306 145.0189C236.8206 333.9889 401.3706 520.0189 618.1606 695.3089C556.1506 729.4889 492.1906 756.8389 383.3006 756.8389C250.4906 756.8389 88.3806 692.3789 0.0006 621.0889Z"/>
</svg>