<?xml version="1.0" encoding="UTF-8" standalone="no"?>
<svg xmlns="http://www.w3.org/2000/svg"
     width="715.8203125" height="1080.078125"
     viewBox="0 0 715.8203125 1080.078125"
     fill="currentColor">
  <path d="M151.3683 1080.0781H564.4483C665.0383 1080.0781 715.8183 1029.2981 715.8183 927.2481V153.3181C715.8183 51.7581 665.0383 -0.0019 564.4483 -0.0019H151.3683C50.2883 -0.0019 -0.0017 51.7581 -0.0017 153.3181V927.2481C-0.0017 1029.2981 50.2883 1080.0781 151.3683 1080.0781ZM183.1083 450.6881C151.3683 450.6881 138.1883 437.9881 138.1883 406.7381V177.7381C138.1883 145.9981 151.3683 133.7881 183.1083 133.7881H530.2783C562.4983 133.7881 575.6883 145.9981 575.6883 177.7381V406.7381C575.6883 437.9881 562.4983 450.6881 530.2783 450.6881ZM183.1083 946.7781C151.3683 946.7781 138.1883 934.5681 138.1883 902.8281V673.8281C138.1883 642.5781 151.3683 629.8781 183.1083 629.8781H530.2783C562.4983 629.8781 575.6883 642.5781 575.6883 673.8281V902.8281C575.6883 934.5681 562.4983 946.7781 530.2783 946.7781Z"/>
</svg>