<?xml version="1.0" encoding="UTF-8" standalone="no"?>
<svg xmlns="http://www.w3.org/2000/svg"
     width="1117.6790489082064" height="1101.9975180560255"
     viewBox="0 0 1117.6790489082064 1101.9975180560255"
     fill="currentColor">
  <path d="M615.7286 125.9786L979.0086 489.2586C994.1486 504.3986 1019.0486 504.3986 1034.1786 489.2586C1049.8086 474.1186 1049.8086 448.7286 1034.1786 433.5986L981.9386 381.3486L1001.9586 361.3286C1017.0886 346.1886 1017.5786 321.2886 1001.9586 306.1486L931.1586 235.3486L992.1886 174.3186L1050.7886 232.9086C1065.9186 248.0486 1090.8286 248.0486 1105.9586 232.9086C1121.5886 217.2886 1121.5886 192.3786 1105.9586 177.2486L940.4286 11.7186C925.2986 -3.9014 900.3986 -3.9014 884.7686 11.7186C869.6286 26.8586 869.6286 51.7586 884.7686 66.8986L943.8486 125.4886L882.8186 186.5186L798.8286 102.5386C783.6986 87.3986 758.3086 87.3986 743.1686 102.5386L723.1486 122.5586L671.3886 70.7986C655.2786 54.1986 630.8586 55.1786 615.7286 70.7986C600.5886 85.9386 599.6086 109.8586 615.7286 125.9786ZM10.2586 1092.7686C23.4386 1105.4686 44.4386 1104.9786 57.6186 1091.7986L248.5386 900.3886L279.7886 931.6386C327.1486 979.0086 386.2386 977.0486 436.5286 926.7586L887.6986 475.0986L628.9086 216.3086L566.4086 278.8086L685.5486 398.4386C693.8486 407.2286 694.3386 422.3586 685.5486 430.6686C676.2686 439.4486 663.0886 439.4486 653.8086 430.6686L534.1786 311.0386L464.8486 380.3686L583.9886 499.5086C593.2686 508.7886 593.2686 522.9486 584.4786 531.7386C575.1986 541.0186 561.5286 540.5286 552.2486 531.7386L433.1086 412.1086L362.7986 481.9286L482.4286 601.5586C491.2186 610.3486 491.6986 624.5086 482.9086 633.2986C473.6386 642.5786 459.9686 642.5786 450.6886 633.2986L331.0586 513.6686L261.7186 583.4986L381.3486 702.1486C389.6486 710.9386 390.1386 725.0986 381.8386 733.8886C372.5586 744.1386 358.8886 744.1386 349.1286 734.3786L229.9886 615.2386L176.7586 667.9686C126.4686 718.2586 125.4886 776.3686 172.8586 824.2186L201.6586 853.5186L10.2586 1044.9186C-2.9214 1058.1086 -3.9014 1079.5886 10.2586 1092.7686Z"/>
</svg>