<?xml version="1.0" encoding="UTF-8" standalone="no"?>
<svg xmlns="http://www.w3.org/2000/svg"
     width="1178.7109375" height="763.18359375"
     viewBox="0 0 1178.7109375 763.18359375"
     fill="currentColor">
  <path d="M43.4583 763.1884H203.6183C230.4683 763.1884 247.0683 746.5784 247.0683 720.2184V247.0684H931.1483V720.2184C931.1483 746.5784 948.2383 763.1884 974.6083 763.1884H1135.2583C1161.6183 763.1884 1178.7083 746.5784 1178.7083 720.2184V43.4584C1178.7083 17.0884 1161.6183 -0.0016 1135.2583 -0.0016H43.4583C17.0883 -0.0016 -0.0017 17.0884 -0.0017 43.4584V720.2184C-0.0017 746.5784 17.0883 763.1884 43.4583 763.1884ZM78.6183 91.7984C78.6183 84.4684 84.4683 78.6084 91.7983 78.6084H1086.9183C1094.2383 78.6084 1100.0983 84.4684 1100.0983 91.7984V155.2684C1100.0983 162.5984 1094.2383 168.4584 1086.9183 168.4584H91.7983C84.4683 168.4584 78.6183 162.5984 78.6183 155.2684ZM91.7983 686.0384C84.4683 686.0384 78.6183 680.1784 78.6183 673.3384V247.0684H168.9483V673.3384C168.9483 680.1784 162.5983 686.0384 155.2783 686.0384ZM1022.9483 686.0384C1015.6283 686.0384 1009.7683 680.1784 1009.7683 673.3384V247.0684H1100.0983V673.3384C1100.0983 680.1784 1094.2383 686.0384 1086.9183 686.0384Z"/>
</svg>