<?xml version="1.0" encoding="UTF-8" standalone="no"?>
<svg xmlns="http://www.w3.org/2000/svg"
     width="1090.9430141856446" height="1090.7594357372718"
     viewBox="0 0 1090.9430141856446 1090.7594357372718"
     fill="currentColor">
  <path d="M818.478 683.5969L874.638 739.2569L1051.878 561.0369C1088.498 524.4169 1090.948 503.4169 1090.948 452.1469V266.5969C1090.948 214.8469 1078.738 198.7269 1041.628 161.6169L929.318 49.3169C892.698 12.6969 876.588 -0.0031 824.828 -0.0031H638.798C587.528 -0.0031 567.018 2.4369 530.398 39.0669L352.178 216.7969L407.838 272.4569L585.568 94.7269C595.338 84.9569 605.588 78.6169 622.198 78.6169H827.758C842.898 78.6169 853.148 84.4769 863.408 94.7269L996.708 227.5369C1006.958 237.7969 1012.328 248.0469 1012.328 263.1869V469.2369C1012.328 485.3469 1006.468 495.6069 996.708 505.3669ZM942.998 995.6069C958.128 1010.2569 982.058 1010.2569 996.218 995.6069C1010.378 980.9569 1010.868 957.0269 996.218 942.3869L148.558 94.7269C133.908 80.0769 109.988 79.5869 94.848 94.7269C80.688 108.8869 80.688 133.2969 94.848 147.9469ZM767.698 390.6269C805.788 390.6269 834.598 360.8369 834.598 323.7269C834.598 286.1369 805.788 256.8369 767.698 256.8369C729.128 256.8369 700.808 286.1369 700.808 323.7269C700.808 360.8369 729.128 390.6269 767.698 390.6269ZM739.378 874.5069L683.718 818.3569L523.068 979.0069C487.918 1014.1569 450.808 1014.6469 415.158 978.5169L111.938 675.7769C76.298 640.1369 76.778 602.5369 111.448 567.8669L273.068 406.7369L217.898 351.0769L52.858 515.6269C-16.972 585.4469 -18.432 657.7169 53.348 729.0069L362.428 1037.5969C434.208 1108.8869 505.978 1107.9069 575.808 1038.0869Z"/>
</svg>