<?xml version="1.0" encoding="UTF-8" standalone="no"?>
<svg xmlns="http://www.w3.org/2000/svg"
     width="996.09375" height="996.09375"
     viewBox="0 0 996.09375 996.09375"
     fill="currentColor">
  <path d="M498.0477 996.0959C770.5077 996.0959 996.0977 770.0159 996.0977 498.0459C996.0977 225.5859 770.0177 -0.0041 497.5577 -0.0041C225.5877 -0.0041 -0.0023 225.5859 -0.0023 498.0459C-0.0023 770.0159 226.0777 996.0959 498.0477 996.0959ZM498.0477 913.0859C267.5777 913.0859 83.4977 728.5159 83.4977 498.0459C83.4977 267.5759 267.0877 83.0059 497.5577 83.0059C728.0277 83.0059 913.0877 267.5759 913.0877 498.0459C913.0877 728.5159 728.5177 913.0859 498.0477 913.0859ZM396.9777 751.9559C426.7577 781.2459 456.0577 781.7359 486.3277 751.4659L722.1677 517.0859C741.2077 499.0259 754.8877 485.8359 754.8877 456.0559V364.2559C754.8877 342.2859 749.0277 329.5859 734.3777 314.4559L691.8977 272.4559C676.7577 257.8159 664.0577 248.5359 642.0877 248.5359H547.3677C518.0677 248.5359 504.3977 262.2059 485.8377 281.2459L251.9577 517.5759C221.6777 547.8559 222.1677 576.6559 251.4677 605.9559ZM584.4777 418.9459C570.7977 405.7659 570.7977 383.2959 584.4777 369.6259C597.6577 355.9559 620.1177 355.9559 633.2977 369.6259C646.9777 382.8159 646.9777 404.7859 633.2977 418.4559C619.6277 432.6159 598.1477 432.6159 584.4777 418.9459Z"/>
</svg>