<?xml version="1.0" encoding="UTF-8" standalone="no"?>
<svg xmlns="http://www.w3.org/2000/svg"
     width="898.92578125" height="898.92578125"
     viewBox="0 0 898.92578125 898.92578125"
     fill="currentColor">
  <path d="M153.3183 898.9295H745.6083C848.1483 898.9295 898.9283 848.1495 898.9283 747.5595V151.3695C898.9283 50.7795 848.1483 -0.0005 745.6083 -0.0005H153.3183C51.2683 -0.0005 -0.0017 50.2895 -0.0017 151.3695V747.5595C-0.0017 848.6295 51.2683 898.9295 153.3183 898.9295ZM154.2983 820.3095C105.4683 820.3095 78.6183 794.4295 78.6183 743.6495V155.2695C78.6183 104.4895 105.4683 78.6095 154.2983 78.6095H744.6283C792.9683 78.6095 820.3083 104.4895 820.3083 155.2695V743.6495C820.3083 794.4295 792.9683 820.3095 744.6283 820.3095ZM349.1183 702.6395C378.9083 731.9295 408.1983 732.4195 438.4783 702.1495L674.3183 467.7695C693.3583 449.7095 707.0283 436.5195 707.0283 406.7395V314.9395C707.0283 292.9695 701.1683 280.2695 686.5283 265.1395L644.0383 223.1395C628.9083 208.4995 616.2083 199.2195 594.2383 199.2195H499.5083C470.2183 199.2195 456.5383 212.8895 437.9883 231.9295L204.0983 468.2595C174.3183 498.5395 174.3183 527.3395 203.6183 556.6395ZM536.6183 369.6295C522.9483 356.4495 522.9483 333.9795 536.6183 320.3095C549.8083 306.6395 572.2683 306.6395 585.4483 320.3095C599.1183 333.4995 599.1183 355.4695 585.4483 369.1395C571.7783 383.2995 550.2883 383.2995 536.6183 369.6295Z"/>
</svg>