<?xml version="1.0" encoding="UTF-8" standalone="no"?>
<svg xmlns="http://www.w3.org/2000/svg"
     width="996.09375" height="996.09375"
     viewBox="0 0 996.09375 996.09375"
     fill="currentColor">
  <path d="M498.0477 996.0959C770.5077 996.0959 996.0977 770.0159 996.0977 498.0459C996.0977 225.5859 770.0177 -0.0041 497.5577 -0.0041C225.5877 -0.0041 -0.0023 225.5859 -0.0023 498.0459C-0.0023 770.0159 226.0777 996.0959 498.0477 996.0959ZM498.0477 913.0859C267.5777 913.0859 83.4977 728.5159 83.4977 498.0459C83.4977 267.5759 267.0877 83.0059 497.5577 83.0059C728.0277 83.0059 912.5977 267.5759 913.0877 498.0459C913.5777 728.5159 728.5177 913.0859 498.0477 913.0859ZM498.0477 807.6159C667.4777 807.6159 807.6177 666.9959 807.6177 498.0459C807.6177 328.6159 666.9877 187.9859 498.0477 187.9859C328.6177 187.9859 188.4777 328.6159 188.4777 498.0459C188.4777 666.9959 329.0977 807.6159 498.0477 807.6159ZM498.0477 729.0059C372.5577 729.0059 267.0877 623.5359 267.0877 498.0459C267.0877 371.5859 372.0677 266.6059 498.0477 266.6059C623.5377 266.6059 729.0077 372.0659 729.0077 498.0459C729.0077 624.0259 624.0277 729.0059 498.0477 729.0059ZM498.5377 624.5159C567.8677 624.5159 624.9977 567.8759 624.9977 497.5559C624.9977 428.2259 567.8677 371.5859 498.5377 371.5859C428.7077 371.5859 371.5777 428.2259 371.5777 497.5559C371.5777 567.8759 428.7077 624.5159 498.5377 624.5159Z"/>
</svg>