<?xml version="1.0" encoding="UTF-8" standalone="no"?>
<svg xmlns="http://www.w3.org/2000/svg"
     width="1143.06640625" height="916.015625"
     viewBox="0 0 1143.06640625 916.015625"
     fill="currentColor">
  <path d="M571.2883 -0.0019C246.5783 -0.0019 -0.0017 100.5881 -0.0017 300.7781V301.2681C-0.0017 373.5381 38.5783 389.6481 105.4683 382.8081L281.2483 363.7681C346.6783 356.9381 359.3783 324.2181 359.3783 271.9681V259.7681C359.3783 218.7481 424.8083 198.7281 571.2883 198.7281C729.4883 198.7281 783.1983 215.3281 783.1983 260.2581V271.9681C783.1983 322.7581 796.3883 356.9381 861.8183 363.7681L1037.5983 382.8081C1104.4883 389.6481 1143.0683 373.5381 1143.0683 300.7781C1143.0683 100.5881 896.4883 -0.0019 571.2883 -0.0019ZM139.6483 657.7181H227.5383C262.2083 657.7181 281.2483 638.1881 281.2483 603.5181V515.1381C281.2483 480.4681 262.2083 460.9381 227.5383 460.9381H139.6483C104.9783 460.9381 84.9583 480.4681 84.9583 515.1381V603.5181C84.9583 638.1881 104.9783 657.7181 139.6483 657.7181ZM397.9483 657.7181H485.8383C520.0183 657.7181 540.0383 638.1881 540.0383 603.5181V515.1381C540.0383 480.4681 520.0183 460.9381 485.8383 460.9381H397.9483C362.7883 460.9381 342.7783 480.4681 342.7783 515.1381V603.5181C342.7783 638.1881 362.7883 657.7181 397.9483 657.7181ZM655.2783 657.7181H742.6783C777.3483 657.7181 797.8483 638.1881 797.8483 603.5181V515.1381C797.8483 480.4681 777.3483 460.9381 742.6783 460.9381H655.2783C620.6083 460.9381 601.0783 480.4681 601.0783 515.1381V603.5181C601.0783 638.1881 620.6083 657.7181 655.2783 657.7181ZM912.5983 657.7181H1000.4883C1035.6483 657.7181 1056.1483 638.1881 1056.1483 603.5181V515.1381C1056.1483 480.4681 1035.6483 460.9381 1000.4883 460.9381H912.5983C878.4183 460.9381 858.8883 480.4681 858.8883 515.1381V603.5181C858.8883 638.1881 878.4183 657.7181 912.5983 657.7181ZM138.6683 916.0181H226.5583C261.2283 916.0181 281.2483 896.4881 281.2483 861.8181V772.9481C281.2483 738.7681 261.2283 718.7481 226.5583 718.7481H138.6683C104.4883 718.7481 84.9583 738.7681 84.9583 772.9481V861.8181C84.9583 896.4881 104.4883 916.0181 138.6683 916.0181ZM396.4883 916.0181H744.6283C779.2983 916.0181 798.3383 896.4881 798.3383 861.8181V772.9481C798.3383 738.7681 779.2983 718.7481 744.6283 718.7481H396.4883C361.8183 718.7481 342.7783 738.7681 342.7783 772.9481V861.8181C342.7783 896.4881 361.8183 916.0181 396.4883 916.0181ZM914.5483 916.0181H1002.4383C1037.1083 916.0181 1056.1483 896.4881 1056.1483 861.8181V772.9481C1056.1483 738.7681 1037.1083 718.7481 1002.4383 718.7481H914.5483C879.8783 718.7481 859.3783 738.7681 859.3783 772.9481V861.8181C859.3783 896.4881 879.8783 916.0181 914.5483 916.0181Z"/>
</svg>