<?xml version="1.0" encoding="UTF-8" standalone="no"?>
<svg xmlns="http://www.w3.org/2000/svg"
     width="996.09375" height="996.09375"
     viewBox="0 0 996.09375 996.09375"
     fill="currentColor">
  <path d="M498.0477 996.0977C770.5077 996.0977 996.0977 770.5077 996.0977 498.0477C996.0977 226.0777 770.0177 -0.0023 497.5577 -0.0023C225.5877 -0.0023 -0.0023 226.0777 -0.0023 498.0477C-0.0023 770.5077 226.0777 996.0977 498.0477 996.0977ZM568.3577 755.3677C498.0477 826.1677 375.4877 774.8977 261.2277 660.1577C145.5077 544.9177 94.2377 422.8477 164.5477 351.5577C190.4277 326.1677 208.9877 334.4677 230.9577 360.3477L286.6177 428.7077C306.6377 453.6177 298.8277 469.2377 281.2477 488.7677L277.3477 493.6477C263.6677 509.7677 278.3177 538.0877 330.5677 590.3277C386.7177 645.0177 409.1777 657.2277 427.2477 643.0677L431.6377 639.1577C450.1977 622.5577 465.3277 613.2777 491.2077 634.2777L560.0577 690.4277C586.4277 710.4477 594.7277 730.4677 568.3577 755.3677ZM383.2977 434.5677C366.6977 434.5677 356.9377 423.8277 356.9377 406.7377V363.2777C356.9377 345.2177 366.6977 336.4277 383.2977 336.4277H427.7377C445.3077 336.4277 455.0777 345.2177 455.0777 363.2777V406.7377C455.0777 423.8277 445.3077 434.5677 427.7377 434.5677ZM512.6977 434.5677C495.6077 434.5677 484.3777 423.8277 484.3777 406.7377V363.2777C484.3777 345.2177 495.6077 336.4277 512.6977 336.4277H557.1277C573.7277 336.4277 583.4977 345.2177 583.4977 363.2777V406.7377C583.4977 423.8277 573.7277 434.5677 557.1277 434.5677ZM640.6277 434.5677C624.0277 434.5677 614.2577 423.8277 614.2577 406.7377V363.2777C614.2577 345.2177 624.0277 336.4277 640.6277 336.4277H685.0577C702.1477 336.4277 712.8877 345.2177 712.8877 363.2777V406.7377C712.8877 423.8277 702.1477 434.5677 685.0577 434.5677ZM769.5277 434.5677C752.9277 434.5677 743.1677 423.8277 743.1677 406.7377V363.2777C743.1677 345.2177 752.9277 336.4277 769.5277 336.4277H813.9677C832.0277 336.4277 841.7977 345.2177 841.7977 363.2777V406.7377C841.7977 423.8277 832.0277 434.5677 813.9677 434.5677ZM383.2977 563.4777C365.7277 563.4777 356.9377 553.7077 356.9377 536.1377V492.1877C356.9377 474.1177 365.7277 465.3277 383.2977 465.3277H426.7577C445.3077 465.3277 455.0777 474.1177 455.0777 492.1877V536.1377C455.0777 553.7077 445.3077 563.4777 426.7577 563.4777ZM512.2077 563.4777C495.1177 563.4777 484.3777 553.7077 484.3777 536.1377V492.1877C484.3777 474.1177 495.1177 465.3277 512.2077 465.3277H686.0377C703.1277 465.3277 712.8877 474.1177 712.8877 492.1877V536.1377C712.8877 553.7077 703.1277 563.4777 686.0377 563.4777ZM770.0177 563.4777C753.9077 563.4777 743.1677 553.7077 743.1677 536.1377V492.1877C743.1677 474.1177 753.9077 465.3277 770.0177 465.3277H814.9377C832.5177 465.3277 841.7977 474.1177 841.7977 492.1877V536.1377C841.7977 553.7077 832.5177 563.4777 814.9377 563.4777Z"/>
</svg>