<?xml version="1.0" encoding="UTF-8" standalone="no"?>
<svg xmlns="http://www.w3.org/2000/svg"
     width="996.09375" height="996.09375"
     viewBox="0 0 996.09375 996.09375"
     fill="currentColor">
  <path d="M498.0477 996.0977C770.5077 996.0977 996.0977 770.5077 996.0977 498.0477C996.0977 226.0777 770.0177 -0.0023 497.5577 -0.0023C225.5877 -0.0023 -0.0023 226.0777 -0.0023 498.0477C-0.0023 770.5077 226.0777 996.0977 498.0477 996.0977ZM498.0477 352.5377C419.9177 352.5377 385.2577 363.2777 385.2577 383.7877V391.5977C385.2577 418.9477 377.9277 437.0077 343.2577 440.4277L249.5077 450.1977C213.3777 454.0977 192.8677 445.3077 192.8677 406.7377C192.8677 299.8077 324.2177 246.5777 498.0477 246.5777C672.3677 246.5777 803.7077 300.2977 803.7077 406.7377C803.7077 445.3077 783.6877 454.0977 748.0477 450.1977L653.3177 440.4277C618.6477 437.0077 611.8177 418.9477 611.8177 391.5977V384.2777C611.8177 361.3277 583.4977 352.5377 498.0477 352.5377ZM268.0677 597.1677C249.0277 597.1677 237.7977 587.3977 237.7977 568.3577V520.9977C237.7977 502.9277 249.0277 492.1877 268.0677 492.1877H314.4577C332.5177 492.1877 342.7777 502.9277 342.7777 520.9977V568.3577C342.7777 587.3977 332.5177 597.1677 314.4577 597.1677ZM405.2777 597.1677C386.2277 597.1677 376.4677 587.3977 376.4677 568.3577V520.9977C376.4677 502.9277 386.2277 492.1877 405.2777 492.1877H452.6377C470.7077 492.1877 481.9377 502.9277 481.9377 520.9977V568.3577C481.9377 587.3977 470.7077 597.1677 452.6377 597.1677ZM543.4577 597.1677C525.3877 597.1677 514.1577 587.3977 514.1577 568.3577V520.9977C514.1577 502.9277 525.3877 492.1877 543.4577 492.1877H589.8477C608.8877 492.1877 619.1377 502.9277 619.1377 520.9977V568.3577C619.1377 587.3977 608.8877 597.1677 589.8477 597.1677ZM681.1477 597.1677C662.1077 597.1677 651.8577 587.3977 651.8577 568.3577V520.9977C651.8577 502.9277 662.1077 492.1877 681.1477 492.1877H728.0277C746.0977 492.1877 757.3277 502.9277 757.3277 520.9977V568.3577C757.3277 587.3977 746.0977 597.1677 728.0277 597.1677ZM267.0877 735.3477C249.0277 735.3477 237.7977 725.5877 237.7977 706.5477V658.6877C237.7977 641.1177 249.0277 629.8877 267.0877 629.8877H313.9677C332.5177 629.8877 342.7777 641.1177 342.7777 658.6877V706.5477C342.7777 725.5877 332.5177 735.3477 313.9677 735.3477ZM404.7877 735.3477C386.2277 735.3477 376.4677 725.5877 376.4677 706.5477V658.6877C376.4677 641.1177 386.2277 629.8877 404.7877 629.8877H591.3077C609.3777 629.8877 619.1377 641.1177 619.1377 658.6877V706.5477C619.1377 725.5877 609.3777 735.3477 591.3077 735.3477ZM681.6377 735.3477C663.0877 735.3477 651.8577 725.5877 651.8577 706.5477V658.6877C651.8577 641.1177 663.0877 629.8877 681.6377 629.8877H728.5177C747.0677 629.8877 757.3277 641.1177 757.3277 658.6877V706.5477C757.3277 725.5877 747.0677 735.3477 728.5177 735.3477Z"/>
</svg>