<?xml version="1.0" encoding="UTF-8" standalone="no"?>
<svg xmlns="http://www.w3.org/2000/svg"
     width="996.09375" height="996.09375"
     viewBox="0 0 996.09375 996.09375"
     fill="currentColor">
  <path d="M498.0477 996.0959C770.5077 996.0959 996.0977 770.0159 996.0977 498.0459C996.0977 225.5859 770.0177 -0.0041 497.5577 -0.0041C225.5877 -0.0041 -0.0023 225.5859 -0.0023 498.0459C-0.0023 770.0159 226.0777 996.0959 498.0477 996.0959ZM498.0477 913.0859C267.5777 913.0859 83.4977 728.5159 83.4977 498.0459C83.4977 267.5759 267.0877 83.0059 497.5577 83.0059C728.0277 83.0059 913.0877 267.5759 913.0877 498.0459C913.0877 728.5159 728.5177 913.0859 498.0477 913.0859ZM570.7977 744.6259C596.1877 720.7059 588.3777 700.6859 562.4977 681.1559L496.0977 626.9559C471.1877 606.9359 456.0577 615.7259 437.9877 631.8359L433.5977 635.7459C416.5077 649.4159 394.5277 637.6959 339.8477 584.4759C289.5477 533.6959 274.8977 505.8559 288.5777 490.7259L292.4777 486.3259C309.5677 467.2859 316.8977 452.1459 297.3677 427.7359L243.6477 361.3259C222.6577 336.4259 204.5877 328.6159 179.1977 353.0259C110.8377 421.8759 160.6477 540.0359 272.9477 651.8559C383.7877 763.6759 502.4377 813.4759 570.7977 744.6259ZM381.8377 442.3859H424.8077C441.8977 442.3859 451.1677 432.1259 451.1677 416.0159V373.5359C451.1677 356.4459 441.8977 347.6559 424.8077 347.6559H381.8377C365.7277 347.6559 355.9577 356.4459 355.9577 373.5359V416.0159C355.9577 432.1259 365.7277 442.3859 381.8377 442.3859ZM507.3277 442.3859H550.2977C566.4077 442.3859 575.6877 432.1259 575.6877 416.0159V373.5359C575.6877 356.4459 566.4077 347.6559 550.2977 347.6559H507.3277C490.7277 347.6559 479.9777 356.4459 479.9777 373.5359V416.0159C479.9777 432.1259 490.7277 442.3859 507.3277 442.3859ZM631.3477 442.3859H674.3177C690.9177 442.3859 701.1677 432.1259 701.1677 416.0159V373.5359C701.1677 356.4459 690.9177 347.6559 674.3177 347.6559H631.3477C615.2377 347.6559 605.9577 356.4459 605.9577 373.5359V416.0159C605.9577 432.1259 615.2377 442.3859 631.3477 442.3859ZM756.3477 442.3859H799.3177C816.8977 442.3859 826.1677 432.1259 826.1677 416.0159V373.5359C826.1677 356.4459 816.8977 347.6559 799.3177 347.6559H756.3477C740.2377 347.6559 730.9577 356.4459 730.9577 373.5359V416.0159C730.9577 432.1259 740.2377 442.3859 756.3477 442.3859ZM381.8377 567.3859H424.3177C441.8977 567.3859 451.1677 558.1059 451.1677 541.0159V498.5359C451.1677 481.4459 441.8977 472.6559 424.3177 472.6559H381.8377C364.7477 472.6559 355.9577 481.4459 355.9577 498.5359V541.0159C355.9577 558.1059 364.7477 567.3859 381.8377 567.3859ZM506.8377 567.3859H675.2977C691.8977 567.3859 701.1677 558.1059 701.1677 541.0159V498.5359C701.1677 481.4459 691.8977 472.6559 675.2977 472.6559H506.8377C490.2377 472.6559 479.9777 481.4459 479.9777 498.5359V541.0159C479.9777 558.1059 490.2377 567.3859 506.8377 567.3859ZM756.8377 567.3859H800.2977C817.3877 567.3859 826.1677 558.1059 826.1677 541.0159V498.5359C826.1677 481.4459 817.3877 472.6559 800.2977 472.6559H756.8377C741.2077 472.6559 730.9577 481.4459 730.9577 498.5359V541.0159C730.9577 558.1059 741.2077 567.3859 756.8377 567.3859Z"/>
</svg>