<?xml version="1.0" encoding="UTF-8" standalone="no"?>
<svg xmlns="http://www.w3.org/2000/svg"
     width="658.69140625" height="887.6953125"
     viewBox="0 0 658.69140625 887.6953125"
     fill="currentColor">
  <path d="M-0.0017 31.738C-0.0017 49.318 14.1583 63.478 32.2283 63.478H626.4683C644.5283 63.478 658.6883 49.318 658.6883 31.738C658.6883 14.158 644.5283 -0.002 626.4683 -0.002H32.2283C14.1583 -0.002 -0.0017 14.158 -0.0017 31.738ZM-0.0017 213.868C-0.0017 235.348 17.5783 252.928 39.0583 252.928H282.7183V840.818C282.7183 866.698 303.2183 887.698 329.0983 887.698C355.4683 887.698 375.9783 866.698 375.9783 840.818V252.928H619.1383C641.1183 252.928 658.6883 235.348 658.6883 213.868C658.6883 192.378 641.1183 174.808 619.1383 174.808H39.0583C17.5783 174.808 -0.0017 192.378 -0.0017 213.868Z"/>
</svg>