<?xml version="1.0" encoding="UTF-8" standalone="no"?>
<svg xmlns="http://www.w3.org/2000/svg"
     width="898.92578125" height="898.92578125"
     viewBox="0 0 898.92578125 898.92578125"
     fill="currentColor">
  <path d="M153.3183 898.9295H745.6083C848.1483 898.9295 898.9283 848.1495 898.9283 747.5595V151.3695C898.9283 50.7795 848.1483 -0.0005 745.6083 -0.0005H153.3183C51.2683 -0.0005 -0.0017 50.2895 -0.0017 151.3695V747.5595C-0.0017 848.6295 51.2683 898.9295 153.3183 898.9295ZM154.2983 820.3095C105.4683 820.3095 78.6183 794.4295 78.6183 743.6495V155.2695C78.6183 104.4895 105.4683 78.6095 154.2983 78.6095H744.6283C792.9683 78.6095 820.3083 104.4895 820.3083 155.2695V743.6495C820.3083 794.4295 792.9683 820.3095 744.6283 820.3095ZM274.4183 250.4895C274.4183 264.1595 284.6683 274.8995 297.8483 274.8995H601.0783C614.7483 274.8995 624.5083 264.1595 624.5083 250.4895C624.5083 236.3295 614.7483 226.5595 601.0783 226.5595H297.8483C284.6683 226.5595 274.4183 236.3295 274.4183 250.4895ZM275.3883 344.2395C275.3883 361.3295 286.6183 372.5595 303.7083 372.5595H417.9683V662.5995C417.9683 682.1295 431.6383 694.8195 450.1983 694.8195C468.7483 694.8195 481.4483 682.1295 481.4483 662.5995V372.5595H595.6983C612.7883 372.5595 624.0283 361.3295 624.0283 344.2395C624.0283 327.6395 612.7883 316.4095 595.6983 316.4095H303.7083C286.6183 316.4095 275.3883 327.6395 275.3883 344.2395Z"/>
</svg>