<?xml version="1.0" encoding="UTF-8" standalone="no"?>
<svg xmlns="http://www.w3.org/2000/svg"
     width="1049.760929479559" height="1048.0968095309122"
     viewBox="0 0 1049.760929479559 1048.0968095309122"
     fill="currentColor">
  <path d="M17.2074 998.9023L49.4374 1031.6223C72.3874 1053.5923 105.5874 1053.5923 128.0474 1031.6223L317.0174 842.1623C336.0574 823.1223 339.4774 797.2423 326.7774 775.7623C439.5774 676.6323 521.1174 666.8723 652.9574 662.4723C753.5374 659.5423 852.6574 628.2923 934.2074 546.7523C1073.3674 407.5923 1088.9874 199.5823 969.3574 80.4423C849.7274 -39.1877 641.7274 -23.5577 502.5674 115.1123C421.9974 196.1723 388.3074 296.7523 387.3274 395.8723C385.8674 527.2223 373.6574 609.7423 274.0474 722.5323C252.5674 708.8623 225.7074 711.7923 206.1774 730.8323L17.2074 920.7823C-5.7326 942.7523 -5.7326 975.9523 17.2074 998.9023ZM687.1374 81.4223C707.1574 74.5823 726.6874 70.6823 746.2174 68.7223L710.5674 104.8623ZM812.1374 73.1223C829.7074 77.5123 846.7974 83.3723 863.4074 92.1623L847.2874 108.2823ZM734.9874 129.2723L777.4674 86.7923L822.8774 132.2023L780.3974 174.6823ZM601.1974 127.3223C618.2874 114.6223 635.3774 104.3723 652.9574 95.5823L686.1574 129.2723L644.6574 170.2923ZM917.1174 132.2023C924.9274 140.0123 932.2474 148.3123 938.5974 156.6123L917.1174 178.1023L871.7074 132.2023L892.6974 111.2023C901.4874 117.5523 909.2974 124.3923 917.1174 132.2023ZM554.8074 167.3623C561.1574 161.0123 567.5074 155.1523 574.3374 149.2923L620.2374 195.1923L582.6374 232.7923L536.7474 186.8923C542.6074 180.0523 548.4574 173.7023 554.8074 167.3623ZM669.0674 195.1923L710.5674 153.6923L755.9774 199.1023L714.4774 240.6023ZM804.8074 199.1023L847.2874 156.6123L892.6974 202.5123L850.7074 244.5123ZM942.0174 202.5123L957.6374 186.8923C965.9474 203.0023 972.2874 219.6023 976.1974 237.1823ZM483.0274 265.5023C491.3374 247.9223 502.0774 230.8323 514.7674 213.7423L558.2274 257.2023L516.2374 299.1923ZM607.0574 257.2023L644.6574 219.6023L690.0674 265.0123L652.4674 302.6123ZM738.8874 264.5323L780.3974 223.5123L825.8074 269.4123L784.7874 310.4223ZM875.1174 269.4123L917.6074 226.9323L962.5274 272.3423L920.5274 314.3323ZM540.6474 323.6123L582.6374 281.6123L627.5674 327.5123L586.0574 369.0223ZM676.8774 327.0323L713.9874 289.4323L759.8874 335.3323L722.7774 372.4423ZM809.2074 335.3323L850.2174 293.8223L895.6274 339.2323L854.6174 380.2523ZM468.3874 299.6823L492.3074 323.1223L455.6874 359.7423C457.6374 339.7223 461.5474 319.7023 468.3874 299.6823ZM944.9474 339.2323L981.0774 303.1023C979.1274 322.6323 975.2174 342.6523 968.3874 362.1823ZM474.7274 389.5323L516.7274 347.5323L562.1374 392.9423L520.1374 434.9423ZM610.4774 392.9423L651.9774 351.4423L697.8774 397.3423L656.3674 438.8423ZM747.1974 397.3423L784.2974 360.2323L829.7074 405.1523L792.6074 442.7523ZM879.0274 405.1523L920.0474 364.1323L953.7374 397.8323C945.4374 414.9223 934.6974 431.5223 922.4874 448.1223ZM544.0674 459.3523L586.0574 417.3623L631.9574 463.2623L589.9674 505.2523ZM680.7874 463.7423L722.2874 422.2423L767.6974 467.6523L726.1974 508.6723ZM460.0874 424.6823L495.2374 459.8423L479.1274 475.9523C470.3374 459.3523 463.9874 442.2623 460.0874 424.6823ZM882.4474 494.5123C876.0974 500.8523 869.2674 507.2023 862.9174 513.0623L817.0174 467.1623L854.1274 430.0523L900.0274 475.9523C894.6574 482.3023 888.3074 488.6523 882.4474 494.5123ZM519.6574 530.1523C511.8374 522.3423 504.5174 514.0423 498.1674 505.2523L519.6574 484.2523L565.0674 529.6623L544.0674 551.1523C535.2774 544.8023 527.4674 537.9623 519.6574 530.1523ZM614.8674 529.6623L656.8574 487.6723L701.7774 533.0823L660.2774 575.0723ZM750.6074 533.5723L792.1174 492.0623L835.0874 535.0323C818.4774 547.7323 801.3874 557.9823 783.8174 566.2823ZM467.4074 582.4023C481.0774 597.0423 497.6774 608.7623 514.7674 619.5123C466.9174 627.8123 421.9974 643.9223 373.6574 676.1523C405.8874 628.2923 421.9974 582.8823 429.8074 535.0323C440.0674 552.1223 452.7574 568.2423 467.4074 582.4023ZM573.8574 570.6823L589.9674 554.5623L624.6374 589.2323C607.0574 585.3323 589.9674 578.9823 573.8574 570.6823ZM726.6874 557.4923L749.6374 580.9323C729.6174 587.7723 710.0874 591.6723 690.5474 593.6323Z"/>
</svg>