<?xml version="1.0" encoding="UTF-8" standalone="no"?>
<svg xmlns="http://www.w3.org/2000/svg"
     width="996.09375" height="996.09375"
     viewBox="0 0 996.09375 996.09375"
     fill="currentColor">
  <path d="M498.0477 -0.0041C226.0777 -0.0041 -0.0023 225.5859 -0.0023 498.0459C-0.0023 770.0159 226.5577 996.0959 498.5377 996.0959C770.9977 996.0959 996.0977 770.0159 996.0977 498.0459C996.0977 225.5859 770.5077 -0.0041 498.0477 -0.0041ZM498.0477 66.4059C733.8877 66.4059 929.6877 262.2059 929.6877 498.0459C929.6877 500.9759 929.6877 501.4659 929.6877 501.9559C916.5077 500.4859 902.8277 499.5159 889.1577 499.5159C686.5277 499.5159 522.9477 663.0859 522.9477 866.2159C522.9477 887.6959 524.8977 908.2059 528.3177 928.7159C518.5577 929.1959 508.2977 929.6859 498.5377 929.6859C262.6977 929.6859 66.4077 733.8859 66.4077 498.0459C66.4077 494.6259 66.4077 493.6559 66.4077 492.6759C80.0777 494.1359 93.7477 495.1159 107.9077 495.1159C310.5477 495.1159 474.1177 331.5459 474.1177 128.4159C474.1177 107.4259 472.6577 86.9159 469.2377 67.3859C478.5177 66.8959 488.2777 66.4059 498.0477 66.4059ZM410.1577 128.4159C410.1577 300.7859 279.7877 431.1559 107.9077 431.1559C95.7077 431.1559 83.9877 430.6659 72.2677 429.1959C100.5877 255.3759 235.3477 114.7459 405.7577 76.6559C408.6877 93.2659 410.1577 110.3559 410.1577 128.4159ZM586.9177 866.2159C586.9177 693.8459 717.2877 563.4759 889.1577 563.4759C901.3677 563.4759 913.0877 564.4559 924.3177 565.4259C895.9977 739.2559 761.7177 880.8559 591.3077 919.4359C588.3777 902.3459 586.9177 884.7659 586.9177 866.2159Z"/>
</svg>