<?xml version="1.0" encoding="UTF-8" standalone="no"?>
<svg xmlns="http://www.w3.org/2000/svg"
     width="996.09375" height="996.09375"
     viewBox="0 0 996.09375 996.09375"
     fill="currentColor">
  <path d="M498.0477 996.0959C770.5077 996.0959 996.0977 770.0159 996.0977 498.0459C996.0977 225.5859 770.0177 -0.0041 497.5577 -0.0041C225.5877 -0.0041 -0.0023 225.5859 -0.0023 498.0459C-0.0023 770.0159 226.0777 996.0959 498.0477 996.0959ZM734.3777 260.2559C799.3177 324.7059 790.5277 436.0359 715.8177 511.2259C672.3677 554.1959 618.1677 571.2859 564.9377 573.2459C495.1177 574.7059 453.6177 580.5659 395.0177 632.3259C399.4177 643.0659 397.4577 654.7859 388.1877 664.0659L288.5777 764.1559C276.8577 776.3659 258.2977 776.3659 247.0677 764.1559L229.9777 746.5859C217.7777 734.3759 218.2577 717.7759 229.9777 706.0559L330.0777 605.4659C339.3577 595.7059 352.5377 593.7459 363.2777 599.6059C414.5477 540.5259 420.4077 498.5359 421.3877 429.1959C421.8777 376.9559 440.4277 321.7759 482.9077 278.3159C558.1077 204.1059 669.4377 195.7959 734.3777 260.2559ZM573.2377 270.9959L604.0077 301.2659L643.5577 261.7159C621.0977 257.8159 596.6777 261.2259 573.2377 270.9959ZM628.9077 327.1459L671.3877 369.1359L721.6777 317.8759C716.7977 308.5959 710.4477 299.8059 702.6377 291.5059C695.7977 285.1559 688.4777 279.2959 681.1477 274.9059ZM495.1177 333.4959L533.2077 371.5859L578.1277 327.1459L540.5277 289.5459C531.7377 295.4059 522.9477 302.2459 515.1377 310.0559C507.3277 317.8759 500.9777 325.6859 495.1177 333.4959ZM558.5977 397.4559L601.0777 439.9459L645.9977 395.0159L604.0077 353.0259ZM696.7777 395.0159L723.6377 421.8759C732.4177 400.8759 735.8377 378.9059 732.9077 358.8859ZM466.3077 438.9659L507.8077 397.4559L476.5577 366.6959C465.8177 390.6259 462.3977 415.5259 466.3077 438.9659ZM626.4677 465.3359L660.6477 499.5159C668.4577 494.1359 676.7577 487.3059 684.0777 479.4959C691.8977 471.6759 699.7077 462.8859 705.5677 454.5859L671.8777 420.4059ZM479.9777 476.5659C483.8877 484.3759 489.7477 491.2059 496.5777 498.0459C504.3977 506.3459 513.6677 512.6959 523.9277 517.5759L575.6877 465.3359L533.6877 422.8559ZM563.4777 528.3159C584.4777 530.7659 606.4477 527.3459 627.9277 518.0659L601.0777 490.7259Z"/>
</svg>