<?xml version="1.0" encoding="UTF-8" standalone="no"?>
<svg xmlns="http://www.w3.org/2000/svg"
     width="996.09375" height="996.09375"
     viewBox="0 0 996.09375 996.09375"
     fill="currentColor">
  <path d="M498.0477 996.0959C770.5077 996.0959 996.0977 770.0159 996.0977 498.0459C996.0977 225.5859 770.0177 -0.0041 497.5577 -0.0041C225.5877 -0.0041 -0.0023 225.5859 -0.0023 498.0459C-0.0023 770.0159 226.0777 996.0959 498.0477 996.0959ZM498.0477 913.0859C267.5777 913.0859 83.4977 728.5159 83.4977 498.0459C83.4977 267.5759 267.0877 83.0059 497.5577 83.0059C728.0277 83.0059 913.0877 267.5759 913.0877 498.0459C913.0877 728.5159 728.5177 913.0859 498.0477 913.0859ZM376.9577 701.6559H776.8577C804.6877 701.6559 812.4977 676.7559 802.2477 655.7659L606.9377 264.6459C600.0977 252.4459 589.3577 244.6259 577.1477 244.6259C564.4577 244.6259 553.2277 251.9559 547.8477 264.1559L443.3577 472.6559L357.4177 301.2659C352.0477 291.0159 342.2877 284.1759 332.5177 284.1759C321.2877 284.1759 312.0077 291.0159 306.6377 301.2659L164.5477 586.9159C155.7577 604.9759 162.5977 626.9559 186.0377 626.9559H366.6977L352.0477 655.7659C341.3077 676.7559 349.6077 701.6559 376.9577 701.6559ZM357.9077 590.3359L332.5177 477.5359L305.6677 590.3359H251.9577L322.2677 442.3859C327.1477 431.1559 338.8677 433.5959 342.7777 442.3859L398.9277 561.5259L384.7677 590.3359ZM465.3277 665.5259L562.9877 459.9559C568.8477 446.7759 583.9877 446.7759 591.3077 459.9559L688.4777 665.5259H612.7977L577.1477 508.7859L541.0177 665.5259Z"/>
</svg>