<?xml version="1.0" encoding="UTF-8" standalone="no"?>
<svg xmlns="http://www.w3.org/2000/svg"
     width="1405.1221793880136" height="995.1171875"
     viewBox="0 0 1405.1221793880136 995.1171875"
     fill="currentColor">
  <path d="M470.7188 995.1169H1340.3488C1401.3888 995.1169 1418.4788 939.9369 1395.0388 893.5569L971.6988 44.9169C957.5388 17.0869 932.1488 -0.0031 905.7788 -0.0031C878.9288 -0.0031 854.0188 16.1169 840.8388 43.4569L615.2488 495.1169L429.7088 123.5369C417.9888 101.0769 396.9888 85.9369 373.5488 85.9369C350.1188 85.9369 329.1188 101.0769 317.3988 123.5369L8.3188 743.1669C-11.7012 782.7169 4.4088 831.5469 56.6588 831.5469H447.2888L416.5188 893.5569C393.0888 939.9369 410.1788 995.1169 470.7188 995.1169ZM432.1488 759.7669L373.5488 505.8569L314.9588 759.7669H193.8688L351.5788 428.7069C356.4588 417.9669 364.7688 413.0869 373.5488 413.0869C382.8288 413.0869 391.6188 417.9669 396.4988 428.7069L519.5488 687.4969L483.4188 759.7669ZM659.6888 919.9269L874.5288 468.2569C881.3688 454.0969 893.0888 447.2669 905.7788 447.2669C917.9888 447.2669 929.7088 454.0969 936.5388 468.2569L1151.3888 919.9269H984.3888L905.7788 574.2169L826.6788 919.9269Z"/>
</svg>