<?xml version="1.0" encoding="UTF-8" standalone="no"?>
<svg xmlns="http://www.w3.org/2000/svg"
     width="996.09375" height="996.09375"
     viewBox="0 0 996.09375 996.09375"
     fill="currentColor">
  <path d="M498.0477 996.0977C770.5077 996.0977 996.0977 770.5077 996.0977 498.0477C996.0977 226.0777 770.0177 -0.0023 497.5577 -0.0023C225.5877 -0.0023 -0.0023 226.0777 -0.0023 498.0477C-0.0023 770.5077 226.0777 996.0977 498.0477 996.0977ZM252.9277 734.8677C219.7277 734.8677 209.9577 704.0977 222.6577 678.2177L456.0577 210.4477C474.6077 173.3377 520.9977 172.3677 540.5277 211.4277L772.9477 678.2177C786.1377 704.0977 776.3677 734.8677 742.1877 734.8677ZM360.3477 691.4077H453.6177L497.5577 498.5377L541.9877 691.4077H635.2577L515.1377 438.9677C511.2277 431.6377 504.3977 427.2477 497.5577 427.2477C491.6977 427.2477 484.3777 431.6377 480.4677 438.9677Z"/>
</svg>