<?xml version="1.0" encoding="UTF-8" standalone="no"?>
<svg xmlns="http://www.w3.org/2000/svg"
     width="996.09375" height="996.09375"
     viewBox="0 0 996.09375 996.09375"
     fill="currentColor">
  <path d="M498.0477 996.0959C770.5077 996.0959 996.0977 770.0159 996.0977 498.0459C996.0977 225.5859 770.0177 -0.0041 497.5577 -0.0041C225.5877 -0.0041 -0.0023 225.5859 -0.0023 498.0459C-0.0023 770.0159 226.0777 996.0959 498.0477 996.0959ZM498.0477 913.0859C267.5777 913.0859 83.4977 728.5159 83.4977 498.0459C83.4977 267.5759 267.0877 83.0059 497.5577 83.0059C728.0277 83.0059 913.0877 267.5759 913.0877 498.0459C913.0877 728.5159 728.5177 913.0859 498.0477 913.0859ZM260.7377 726.5659H735.3477C768.5577 726.5659 777.3477 696.2859 765.1377 671.8759L539.5477 218.7459C520.5077 181.1559 475.5877 182.1259 458.0077 217.7759L231.4477 671.8759C219.2377 696.2859 228.0277 726.5659 260.7377 726.5659ZM365.2377 684.5659L481.4477 439.9459C484.8677 432.1259 491.6977 428.2259 498.0477 428.2259C504.8877 428.2259 511.2277 432.1259 514.6477 439.9459L630.8577 684.5659H540.5277L498.0477 497.5559L455.5677 684.5659Z"/>
</svg>