<?xml version="1.0" encoding="UTF-8" standalone="no"?>
<svg xmlns="http://www.w3.org/2000/svg"
     width="1465.33203125" height="996.2168263257664"
     viewBox="0 0 1465.33203125 996.2168263257664"
     fill="currentColor">
  <path d="M297.8506 996.2214H1166.9906C1228.0306 996.2214 1245.1206 941.0414 1221.6806 894.6514L977.0506 403.9314L1383.3006 971.8014C1395.5106 988.8914 1410.6406 994.7514 1424.8006 994.7514C1445.8006 994.7514 1465.3306 982.5414 1465.3306 953.7414V807.7414C1465.3306 789.6714 1450.1906 774.5414 1432.1306 774.5414C1414.0606 774.5414 1399.4106 789.6714 1399.4106 807.7414V882.4514L791.5006 33.3214C759.7706 -11.5986 705.0806 -10.6186 673.3406 33.3214L65.9206 882.4514V807.7414C65.9206 789.6714 51.2706 774.5414 33.2006 774.5414C14.6506 774.5414 0.0006 789.6714 0.0006 807.7414V953.7414C0.0006 982.5414 19.5306 994.7514 40.5306 994.7514C54.6906 994.7514 69.8206 988.8914 82.0306 971.8014L488.2806 403.9314L243.6506 894.6514C220.2106 941.0414 236.8206 996.2214 297.8506 996.2214ZM331.5406 921.5114C324.7106 921.5114 322.7506 915.6514 325.6806 909.7914L726.0706 96.3114C729.0006 89.9714 735.8406 89.9714 739.2606 96.3114L1139.6506 909.7914C1142.5806 915.6514 1140.1406 921.5114 1133.7906 921.5114H970.2106L762.2106 483.5214C755.8606 469.8514 744.1406 463.0114 732.4206 463.0114C720.7006 463.0114 708.9806 469.8514 702.1506 483.5214L494.6306 921.5114ZM732.4206 586.0614L809.0806 921.5114H655.7606Z"/>
</svg>