<?xml version="1.0" encoding="UTF-8" standalone="no"?>
<svg xmlns="http://www.w3.org/2000/svg"
     width="1151.3671875" height="898.92578125"
     viewBox="0 0 1151.3671875 898.92578125"
     fill="currentColor">
  <path d="M153.3183 898.9278H998.0483C1100.5883 898.9278 1151.3683 848.6378 1151.3683 748.0478V151.3678C1151.3683 50.7778 1100.5883 -0.0022 998.0483 -0.0022H153.3183C51.2683 -0.0022 -0.0017 50.7778 -0.0017 151.3678V748.0478C-0.0017 848.6378 51.2683 898.9278 153.3183 898.9278ZM154.2983 820.3078C105.4683 820.3078 78.6183 794.4378 78.6183 743.6478V155.7578C78.6183 104.9778 105.4683 78.6178 154.2983 78.6178H997.0683C1045.4083 78.6178 1072.7583 104.9778 1072.7583 155.7578V743.6478C1072.7583 794.4378 1045.4083 820.3078 997.0683 820.3078ZM209.9583 377.4378C171.8783 400.3878 204.0983 458.4978 246.0983 432.1278L386.7183 344.2378C414.5483 326.6578 413.0883 285.1578 386.7183 268.5578L246.0983 180.6678C204.0983 154.2978 171.3883 211.9178 209.9583 235.3478L327.6383 306.1478ZM416.0183 431.6378C416.0183 448.7278 429.6883 462.8878 447.2683 462.8878H633.2983C650.8783 462.8878 664.5483 448.7278 664.5483 431.6378C664.5483 414.0578 650.8783 399.8978 633.2983 399.8978H447.2683C429.6883 399.8978 416.0183 414.0578 416.0183 431.6378Z"/>
</svg>