<?xml version="1.0" encoding="UTF-8" standalone="no"?>
<svg xmlns="http://www.w3.org/2000/svg"
     width="1000" height="1022.94921875"
     viewBox="0 0 1000 1022.94921875"
     fill="currentColor">
  <path d="M230.9583 1022.9461C342.2883 1022.9461 416.0183 949.2161 416.0183 837.8861V82.0361H419.4383C441.8983 82.0361 460.9383 62.9861 460.9383 40.5261C460.9383 18.0661 441.8983 -0.0039 419.4383 -0.0039H41.0183C16.5983 -0.0039 -0.0017 18.0661 -0.0017 40.5261C-0.0017 62.9861 16.5983 82.0361 41.0183 82.0361H44.4383V837.8861C44.4383 949.2161 118.6483 1022.9461 230.9583 1022.9461ZM770.0183 1022.9461C881.3483 1022.9461 955.5683 949.2161 955.5683 837.8861V82.0361H958.9883C981.4483 82.0361 999.9983 62.9861 999.9983 40.5261C999.9983 18.0661 981.4483 -0.0039 958.9883 -0.0039H580.5683C556.1483 -0.0039 539.0583 18.0661 539.0583 40.5261C539.0583 62.9861 556.1483 82.0361 580.5683 82.0361H583.4983V837.8861C583.4983 949.2161 658.1983 1022.9461 770.0183 1022.9461ZM768.5583 686.5261C785.6483 686.5261 797.3683 674.3161 796.8783 657.7161C796.8783 642.5761 784.1783 629.3961 768.5583 629.3961H662.1083V527.8361H769.0383C785.1583 527.8361 797.3683 515.6261 797.3683 499.0261C797.3683 483.8861 784.6683 470.7061 769.0383 470.7061H662.1083V369.6261H769.0383C785.1583 369.6261 797.3683 356.9361 797.3683 340.3361C797.3683 325.1961 784.1783 312.4961 768.5583 312.4961H662.1083V82.0361H877.4383V785.6461H662.1083V686.5261ZM123.0483 210.9361V82.0361H337.8883V210.9361ZM123.0483 369.6261V312.4961H229.0083C244.6283 312.4961 258.2983 325.1961 258.2983 340.3361C258.2983 356.9361 245.6083 369.6261 229.4883 369.6261ZM123.0483 527.8361V470.7061H229.4883C245.1183 470.7061 258.2983 483.8861 258.2983 499.0261C258.2983 515.6261 245.6083 527.8361 229.4883 527.8361ZM123.0483 686.5261V629.3961H229.0083C244.6283 629.3961 257.8083 642.5761 257.8083 657.7161C258.2983 674.3161 246.0983 686.5261 229.0083 686.5261Z"/>
</svg>