<?xml version="1.0" encoding="UTF-8" standalone="no"?>
<svg xmlns="http://www.w3.org/2000/svg"
     width="727.5390625" height="813.96484375"
     viewBox="0 0 727.5390625 813.96484375"
     fill="currentColor">
  <path d="M691.8983 408.2023C713.3783 408.2023 727.5383 394.0423 727.5383 373.5323V39.5523C727.5383 15.1323 712.8883 0.0023 688.9683 0.0023C667.4783 0.0023 656.7383 8.3023 642.5783 18.0623L564.4483 71.7723C550.2883 81.0523 544.9183 89.8423 544.9183 100.1023C544.9183 116.7023 557.1283 128.9023 572.2683 128.9023C582.0283 128.9023 587.8883 125.9723 597.6583 119.1423L654.7883 81.0523H656.2483V373.5323C656.2483 394.0423 670.8983 408.2023 691.8983 408.2023ZM41.0183 813.9623C66.8983 813.9623 79.5883 804.2023 88.8683 776.8523L151.8583 604.4923H439.9383L502.9283 776.8523C512.2083 804.2023 524.8983 813.9623 550.2883 813.9623C576.1683 813.9623 592.7783 798.3423 592.7783 773.9223C592.7783 765.6223 591.3083 757.8123 587.3983 747.5623L358.3983 137.6923C347.1683 107.9123 327.1483 92.7723 295.8983 92.7723C265.6283 92.7723 245.1183 107.4223 234.3783 137.2023L5.3683 748.0423C1.4683 758.3023 -0.0017 766.1123 -0.0017 774.4123C-0.0017 798.8323 15.6283 813.9623 41.0183 813.9623ZM175.7783 530.2723L294.4383 201.6623H296.8783L415.5283 530.2723Z"/>
</svg>