<?xml version="1.0" encoding="UTF-8" standalone="no"?>
<svg xmlns="http://www.w3.org/2000/svg"
     width="1076.171875" height="1013.18359375"
     viewBox="0 0 1076.171875 1013.18359375"
     fill="currentColor">
  <path d="M290.0383 1013.1819C309.0783 1013.1819 323.2383 1003.4219 346.1883 981.9319L522.4583 820.8019H852.5383C998.0483 820.8019 1076.1683 740.7219 1076.1683 597.6519V223.6319C1076.1683 80.5619 998.0483 0.0019 852.5383 0.0019H223.6283C78.1283 0.0019 -0.0017 80.0819 -0.0017 223.6319V597.6519C-0.0017 741.2119 78.1283 820.8019 223.6283 820.8019H246.5783V962.8919C246.5783 993.1619 262.2083 1013.1819 290.0383 1013.1819ZM278.8083 271.4819C262.6983 271.4819 249.5083 258.7919 249.5083 242.1919C249.5083 226.5619 262.6983 213.3819 278.8083 213.3819H791.5083C807.6183 213.3819 820.3083 226.5619 820.3083 242.1919C820.3083 258.7919 807.6183 271.4819 791.5083 271.4819ZM278.8083 435.5419C262.6983 435.5419 249.5083 422.3619 249.5083 405.7619C249.5083 390.1319 262.6983 376.9519 278.8083 376.9519H791.5083C807.6183 376.9519 820.3083 390.1319 820.3083 405.7619C820.3083 422.3619 807.6183 435.5419 791.5083 435.5419ZM278.8083 599.1219C262.6983 599.1219 249.5083 586.4219 249.5083 570.3119C249.5083 553.7119 262.6983 540.5319 278.8083 540.5319H612.3083C628.4183 540.5319 641.1183 553.7119 641.1183 570.3119C641.1183 586.4219 628.4183 599.1219 612.3083 599.1219Z"/>
</svg>