<?xml version="1.0" encoding="UTF-8" standalone="no"?>
<svg xmlns="http://www.w3.org/2000/svg"
     width="1151.3671875" height="898.92578125"
     viewBox="0 0 1151.3671875 898.92578125"
     fill="currentColor">
  <path d="M-0.0017 747.5595C-0.0017 848.6295 51.2683 898.9295 153.3183 898.9295H998.0483C1100.5883 898.9295 1151.3683 848.1495 1151.3683 747.5595V151.3695C1151.3683 50.7795 1100.5883 -0.0005 998.0483 -0.0005H153.3183C51.2683 -0.0005 -0.0017 50.2895 -0.0017 151.3695ZM154.7883 166.4995C130.8583 166.4995 111.3283 145.9995 111.3283 123.0495C111.3283 100.0995 130.8583 79.5895 154.7883 79.5895C178.7083 79.5895 198.7283 100.0995 198.7283 123.0495C198.7283 145.9995 178.7083 166.4995 154.7883 166.4995ZM294.9183 166.4995C270.9983 166.4995 251.4683 145.9995 251.4683 123.0495C251.4683 100.0995 270.9983 79.5895 294.9183 79.5895C318.8483 79.5895 338.8683 100.0995 338.8683 123.0495C338.8683 145.9995 318.8483 166.4995 294.9183 166.4995ZM435.0583 166.4995C411.1283 166.4995 391.5983 145.9995 391.5983 123.0495C391.5983 100.0995 411.1283 79.5895 435.0583 79.5895C458.9883 79.5895 478.5183 100.0995 478.5183 123.0495C478.5183 145.9995 458.9883 166.4995 435.0583 166.4995ZM78.6183 743.6495V246.0895H1072.7583V743.6495C1072.7583 794.4295 1045.4083 820.3095 997.0683 820.3095H154.2983C105.4683 820.3095 78.6183 794.4295 78.6183 743.6495ZM924.8083 689.4495C965.8183 689.4495 992.6783 662.1095 992.6783 621.0895C992.6783 581.0595 965.8183 554.1995 924.8083 554.1995H900.3883V502.4395H924.8083C965.8183 502.4395 992.6783 476.0695 992.6783 436.0395C992.6783 395.0195 965.8183 367.6795 924.8083 367.6795C884.2783 367.6795 857.9083 395.0195 857.9083 436.0395V460.4495H807.6183V436.0395C807.6183 395.0195 781.2483 367.6795 740.7183 367.6795C699.7083 367.6795 672.8483 395.0195 672.8483 436.0395C672.8483 476.0695 699.7083 502.4395 740.7183 502.4395H764.6483V554.1995H740.7183C699.7083 554.1995 672.8483 581.0595 672.8483 621.0895C672.8483 662.1095 699.7083 689.4495 740.7183 689.4495C781.2483 689.4495 807.6183 662.1095 807.6183 621.0895V597.1695H857.9083V621.0895C857.9083 662.1095 884.2783 689.4495 924.8083 689.4495ZM189.9383 408.1995C189.9383 424.3195 203.1283 437.0095 218.7483 437.0095H516.5983C532.2283 437.0095 544.9183 424.3195 544.9183 408.1995C544.9183 392.0895 532.2283 378.9095 516.5983 378.9095H218.7483C203.1283 378.9095 189.9383 392.0895 189.9383 408.1995ZM900.3883 460.4495V436.0395C900.3883 420.4095 910.1583 410.1595 924.8083 410.1595C940.4283 410.1595 950.1983 420.4095 950.1983 436.0395C950.1983 450.6795 940.4283 460.4495 924.8083 460.4495ZM764.6483 460.4495H740.7183C725.0983 460.4495 715.3283 450.6795 715.3283 436.0395C715.3283 420.4095 725.0983 410.1595 740.7183 410.1595C754.8783 410.1595 764.6483 420.4095 764.6483 436.0395ZM189.9383 528.8095C189.9383 544.9195 203.1283 558.1095 218.7483 558.1095H516.5983C532.2283 558.1095 544.9183 544.9195 544.9183 528.8095C544.9183 512.6995 532.2283 499.9995 516.5983 499.9995H218.7483C203.1283 499.9995 189.9383 512.6995 189.9383 528.8095ZM857.9083 555.1795H807.6183V502.4395H857.9083ZM900.3883 596.1895H924.8083C940.4283 596.1895 950.1983 606.4495 950.1983 621.0895C950.1983 636.7195 940.4283 646.9695 924.8083 646.9695C910.1583 646.9695 900.3883 636.7195 900.3883 621.0895ZM764.6483 596.1895V621.0895C764.6483 635.7395 754.3983 646.9695 740.7183 646.9695C725.0983 646.9695 715.3283 636.7195 715.3283 621.0895C715.3283 606.4495 725.0983 596.1895 740.7183 596.1895ZM189.9383 649.8995C189.9383 666.0195 203.1283 678.7095 218.7483 678.7095H516.5983C532.2283 678.7095 544.9183 666.0195 544.9183 649.8995C544.9183 633.2995 532.2283 620.6095 516.5983 620.6095H218.7483C203.1283 620.6095 189.9383 633.2995 189.9383 649.8995Z"/>
</svg>