<?xml version="1.0" encoding="UTF-8" standalone="no"?>
<svg xmlns="http://www.w3.org/2000/svg"
     width="1512.6953125" height="1027.83203125"
     viewBox="0 0 1512.6953125 1027.83203125"
     fill="currentColor">
  <path d="M565.4283 720.7058C588.8683 720.7058 605.9583 704.5858 605.9583 679.1958V609.3758H607.4183C639.1583 678.2258 703.1283 720.7058 783.6883 720.7058C916.9883 720.7058 1004.8783 614.7458 1004.8783 451.6558C1004.8783 288.0858 916.5083 182.1258 784.6683 182.1258C705.5683 182.1258 641.1183 225.0958 610.8383 293.4558H608.3983V43.9458C608.3983 17.0858 591.7983 -0.0042 567.3783 -0.0042C542.4783 -0.0042 525.8783 17.0858 525.8783 43.9458V679.1958C525.8783 705.0758 541.9883 720.7058 565.4283 720.7058ZM173.8283 720.7058C248.5383 720.7058 318.3583 680.1758 348.1483 617.1858H349.6083V680.6658C349.6083 705.0758 366.2083 721.1958 389.1583 721.1958C413.0883 721.1958 429.1983 705.0758 429.1983 678.7158V355.4658C429.1983 249.9958 351.5583 182.1258 229.0083 182.1258C137.2083 182.1258 62.0083 222.1658 33.6883 284.1758C28.3183 296.3858 24.8983 308.1058 24.8983 318.3558C24.8983 339.8458 40.5283 354.0058 61.5283 354.0058C76.6583 354.0058 88.3783 348.1458 95.6983 334.4758C123.0483 278.3158 164.0583 252.4458 226.5583 252.4458C302.2483 252.4458 346.6783 294.4358 346.6783 362.3058V403.8058L190.9183 412.5958C68.3583 418.9458 -0.0017 476.0758 -0.0017 565.9158C-0.0017 658.6958 71.2883 720.7058 173.8283 720.7058ZM1301.7583 720.7058C1397.4583 720.7058 1479.9783 667.9658 1507.8083 593.7458C1510.2583 585.4458 1512.2083 577.6358 1512.2083 570.3158C1512.2083 549.8058 1497.0683 535.1558 1476.5583 535.1558C1458.0083 535.1558 1448.7283 541.9958 1437.4983 563.4758C1412.1083 619.1358 1368.1683 649.9058 1302.2483 649.9058C1206.5383 649.9058 1144.0383 574.2158 1144.0383 451.6558C1144.0383 330.5658 1207.0283 253.4158 1302.2483 253.4158C1365.2383 253.4158 1410.6483 282.7158 1436.5283 340.3358C1447.2683 360.8358 1457.0283 368.1658 1475.0983 368.1658C1496.0983 368.1658 1510.7383 354.4958 1510.7383 333.0058C1510.7383 327.1458 1508.7883 319.8258 1507.3283 312.9858C1482.9083 238.2858 1399.4183 182.1258 1300.2883 182.1258C1154.7883 182.1258 1059.5683 289.0658 1059.5683 452.6358C1059.5683 616.6958 1155.7583 720.7058 1301.7583 720.7058ZM765.6283 649.9058C673.3383 649.9058 608.3983 571.2858 608.3983 451.6558C608.3983 332.5158 673.8283 253.9058 765.6283 253.9058C860.3483 253.9058 919.9183 330.5658 919.9183 451.6558C919.9183 573.2458 859.8683 649.9058 765.6283 649.9058ZM193.8483 652.8358C128.4183 652.8358 84.4683 617.1858 84.4683 563.9658C84.4683 513.1858 125.4883 479.0058 201.1683 474.1258L346.6783 464.3558V515.6258C346.6783 592.7758 278.8083 652.8358 193.8483 652.8358ZM59.0783 1027.8358C91.7983 1027.8358 118.1683 1001.4658 118.1683 969.2358C118.1683 936.5258 91.7983 910.6458 59.0783 910.6458C26.8583 910.6458 0.4883 936.5258 0.4883 969.2358C0.4883 1001.4658 26.8583 1027.8358 59.0783 1027.8358ZM291.9883 1027.8358C324.7083 1027.8358 351.0783 1001.4658 351.0783 969.2358C351.0783 936.5258 324.7083 910.6458 291.9883 910.6458C259.7683 910.6458 233.3983 936.5258 233.3983 969.2358C233.3983 1001.4658 259.7683 1027.8358 291.9883 1027.8358ZM524.4183 1027.8358C557.1283 1027.8358 583.0083 1001.4658 583.0083 969.2358C583.0083 936.5258 557.1283 910.6458 524.4183 910.6458C492.1883 910.6458 465.8183 936.5258 465.8183 969.2358C465.8183 1001.4658 492.1883 1027.8358 524.4183 1027.8358ZM756.8383 1027.8358C789.5483 1027.8358 815.4283 1001.4658 815.4283 969.2358C815.4283 936.5258 789.5483 910.6458 756.8383 910.6458C724.6083 910.6458 698.2383 936.5258 698.2383 969.2358C698.2383 1001.4658 724.6083 1027.8358 756.8383 1027.8358ZM989.2583 1027.8358C1021.9683 1027.8358 1047.8483 1001.4658 1047.8483 969.2358C1047.8483 936.5258 1021.9683 910.6458 989.2583 910.6458C957.0283 910.6458 930.6683 936.5258 930.6683 969.2358C930.6683 1001.4658 957.0283 1027.8358 989.2583 1027.8358ZM1221.6783 1027.8358C1253.9083 1027.8358 1280.2783 1001.4658 1280.2783 969.2358C1280.2783 936.5258 1253.9083 910.6458 1221.6783 910.6458C1189.4483 910.6458 1163.0883 936.5258 1163.0883 969.2358C1163.0883 1001.4658 1189.4483 1027.8358 1221.6783 1027.8358ZM1454.0983 1027.8358C1486.8183 1027.8358 1512.6983 1001.4658 1512.6983 969.2358C1512.6983 936.5258 1486.8183 910.6458 1454.0983 910.6458C1421.8783 910.6458 1395.5083 936.5258 1395.5083 969.2358C1395.5083 1001.4658 1421.8783 1027.8358 1454.0983 1027.8358Z"/>
</svg>