<?xml version="1.0" encoding="UTF-8" standalone="no"?>
<svg xmlns="http://www.w3.org/2000/svg"
     width="1004.39453125" height="1244.62890625"
     viewBox="0 0 1004.39453125 1244.62890625"
     fill="currentColor">
  <path d="M135.7383 785.6411H868.6483C959.4683 785.6411 1004.3983 741.2111 1004.3983 652.3411V134.2811C1004.3983 45.4111 959.4683 0.0011 868.6483 0.0011H135.7383C45.8983 0.0011 -0.0017 45.9011 -0.0017 134.2811V652.3411C-0.0017 740.7211 45.4083 785.6411 135.7383 785.6411ZM319.8283 403.3211C261.7183 403.3211 214.3583 355.9611 214.3583 297.8511C214.3583 240.2311 261.7183 192.8711 319.8283 192.8711C377.4383 192.8711 424.8083 240.2311 424.8083 297.8511C424.8083 355.9611 377.4383 403.3211 319.8283 403.3211ZM140.1383 711.9111C98.6283 711.9111 74.2183 687.5011 74.2183 645.5111V625.0011L199.7083 509.7611C218.2583 493.1611 238.7683 484.8611 257.8083 484.8611C278.8083 484.8611 300.2883 493.6511 319.3383 510.7411L400.3883 584.4711L604.9783 402.8311C625.9783 384.7611 648.9283 375.9811 673.8283 375.9811C696.7783 375.9811 722.1683 384.7611 741.2083 403.8111L932.6183 585.9411V646.4811C932.6183 687.5011 907.2283 711.9111 866.6983 711.9111ZM36.6183 1015.6211H967.2883C987.7883 1015.6211 1004.3983 999.5111 1004.3983 978.5111C1004.3983 958.0111 987.7883 941.8911 967.2883 941.8911H36.6183C16.1183 941.8911 -0.0017 958.0111 -0.0017 978.5111C-0.0017 999.5111 16.1183 1015.6211 36.6183 1015.6211ZM36.6183 1244.6311H638.6683C659.1783 1244.6311 675.7783 1228.5111 675.7783 1208.0111C675.7783 1187.5011 659.1783 1170.9011 638.6683 1170.9011H36.6183C16.1183 1170.9011 -0.0017 1187.5011 -0.0017 1208.0111C-0.0017 1228.5111 16.1183 1244.6311 36.6183 1244.6311Z"/>
</svg>