<?xml version="1.0" encoding="UTF-8" standalone="no"?>
<svg xmlns="http://www.w3.org/2000/svg"
     width="821.2890625" height="1046.38671875"
     viewBox="0 0 821.2890625 1046.38671875"
     fill="currentColor">
  <path d="M149.8983 1046.3883H782.2283C803.7083 1046.3883 821.2883 1029.2983 821.2883 1007.3283C821.2883 990.2383 809.5683 975.0983 793.9483 969.7283C732.4183 945.3083 719.7283 865.7183 780.2783 804.6883C798.8283 786.1283 821.2883 762.2083 821.2883 713.3783V153.3183C821.2883 51.7583 770.9983 -0.0017 669.9183 -0.0017H151.3683C50.2883 -0.0017 -0.0017 51.2683 -0.0017 153.3183V895.5083C-0.0017 996.0983 50.7783 1046.3883 149.8983 1046.3883ZM666.0183 78.6083C716.7983 78.6083 742.6783 105.9583 742.6783 154.7883V702.6383C742.6783 729.0083 727.5383 744.1383 700.1983 744.1383H200.1983V78.6083ZM78.6183 764.1583V154.7883C78.6183 112.3083 98.1483 86.4283 136.2283 80.0783V745.1183C113.7683 747.5583 95.2183 753.9083 78.6183 764.1583ZM287.5983 312.9883H653.8083C671.3883 312.9883 685.5483 298.3383 685.5483 280.7583C685.5483 263.1883 671.3883 249.0283 653.8083 249.0283H287.5983C270.0183 249.0283 255.8583 263.1883 255.8583 280.7583C255.8583 298.3383 270.0183 312.9883 287.5983 312.9883ZM287.5983 447.2683H565.4283C583.0083 447.2683 597.1683 432.6183 597.1683 415.0383C597.1683 397.4583 583.0083 383.2983 565.4283 383.2983H287.5983C270.0183 383.2983 255.8583 397.4583 255.8583 415.0383C255.8583 432.6183 270.0183 447.2683 287.5983 447.2683ZM154.2983 967.7783C104.9783 967.7783 78.6183 941.4083 78.6183 895.0183C78.6183 851.0783 109.8683 822.7583 158.6883 822.7583H659.6683C666.0183 822.7583 671.8783 822.2683 676.7583 821.2883C653.8083 872.0683 657.7183 925.7783 683.5983 967.7783Z"/>
</svg>