<?xml version="1.0" encoding="UTF-8" standalone="no"?>
<svg xmlns="http://www.w3.org/2000/svg"
     width="983.88671875" height="840.8203125"
     viewBox="0 0 983.88671875 840.8203125"
     fill="currentColor">
  <path d="M36.6183 73.7341H946.2883C966.7983 73.7341 983.8883 57.6141 983.8883 36.6241C983.8883 16.1141 966.7983 0.0041 946.2883 0.0041H36.6183C16.1183 0.0041 -0.0017 16.1141 -0.0017 36.6241C-0.0017 57.6141 16.1183 73.7341 36.6183 73.7341ZM61.5283 371.5841H921.8783C962.8883 371.5841 983.8883 351.5641 983.8883 310.5441V273.9241C983.8883 233.8841 962.8883 213.3741 921.8783 213.3741H61.5283C20.5083 213.3741 -0.0017 233.8841 -0.0017 273.9241V310.5441C-0.0017 351.5641 20.5083 371.5841 61.5283 371.5841ZM61.5283 627.4441H426.2683C467.2883 627.4441 487.7883 607.4241 487.7883 566.4041V529.7841C487.7883 489.7441 467.2883 469.2341 426.2683 469.2341H61.5283C20.5083 469.2341 -0.0017 489.7441 -0.0017 529.7841V566.4041C-0.0017 607.4241 20.5083 627.4441 61.5283 627.4441ZM591.3083 585.4541H946.2883C966.7983 585.4541 983.8883 568.8441 983.8883 548.3441C983.8883 527.8341 966.7983 511.7141 946.2883 511.7141H591.3083C570.7983 511.7141 554.6883 527.8341 554.6883 548.3441C554.6883 568.8441 570.7983 585.4541 591.3083 585.4541ZM36.6183 840.8241H946.2883C966.7983 840.8241 983.8883 824.7041 983.8883 804.2041C983.8883 783.6941 966.7983 767.0941 946.2883 767.0941H36.6183C16.1183 767.0941 -0.0017 783.6941 -0.0017 804.2041C-0.0017 824.7041 16.1183 840.8241 36.6183 840.8241Z"/>
</svg>