<?xml version="1.0" encoding="UTF-8" standalone="no"?>
<svg xmlns="http://www.w3.org/2000/svg"
     width="821.2890625" height="1046.38671875"
     viewBox="0 0 821.2890625 1046.38671875"
     fill="currentColor">
  <path d="M149.8983 1046.3883H782.2283C803.7083 1046.3883 821.2883 1029.2983 821.2883 1007.3283C821.2883 990.2383 809.5683 975.0983 793.9483 969.7283C732.4183 945.3083 719.7283 865.7183 780.2783 804.6883C798.8283 786.1283 821.2883 762.2083 821.2883 713.3783V153.3183C821.2883 51.7583 770.9983 -0.0017 669.9183 -0.0017H151.3683C50.2883 -0.0017 -0.0017 51.2683 -0.0017 153.3183V895.5083C-0.0017 996.0983 50.7783 1046.3883 149.8983 1046.3883ZM139.6483 748.5383C124.5083 748.5383 111.8183 735.8383 111.8183 720.2183V103.5183C111.8183 87.8883 124.5083 75.6883 139.6483 75.6883C154.7883 75.6883 167.9683 87.8883 167.9683 103.5183V720.2183C167.9683 735.8383 154.7883 748.5383 139.6483 748.5383ZM291.9883 312.0083C273.9283 312.0083 258.7883 296.8783 258.7883 278.8083C258.7883 260.2583 273.9283 245.6083 291.9883 245.6083H668.9483C687.0083 245.6083 702.1483 260.2583 702.1483 278.8083C702.1483 296.8783 687.0083 312.0083 668.9483 312.0083ZM291.9883 450.6883C273.9283 450.6883 258.7883 435.5483 258.7883 416.9883C258.7883 398.9283 273.9283 384.2783 291.9883 384.2783H578.1283C596.6783 384.2783 611.3283 398.9283 611.3283 416.9883C611.3283 435.5483 596.6783 450.6883 578.1283 450.6883ZM154.2983 967.7783C104.9783 967.7783 78.6183 941.4083 78.6183 895.0183C78.6183 851.0783 109.8683 822.7583 158.6883 822.7583H659.6683C666.0183 822.7583 671.8783 822.2683 676.7583 821.2883C653.8083 872.0683 657.7183 925.7783 683.5983 967.7783Z"/>
</svg>