<?xml version="1.0" encoding="UTF-8" standalone="no"?>
<svg xmlns="http://www.w3.org/2000/svg"
     width="1076.171875" height="1010.25390625"
     viewBox="0 0 1076.171875 1010.25390625"
     fill="currentColor">
  <path d="M300.2883 1010.2519C324.2183 1010.2519 340.8183 997.5619 370.6083 971.1919L539.0583 821.2919H852.5383C998.0483 821.2919 1076.1683 740.7219 1076.1683 597.6519V223.6319C1076.1683 80.5619 998.0483 0.0019 852.5383 0.0019H223.6283C78.1283 0.0019 -0.0017 80.0819 -0.0017 223.6319V597.6519C-0.0017 741.2119 78.1283 821.2919 223.6283 821.2919H247.0683V948.2419C247.0683 985.8419 266.1183 1010.2519 300.2883 1010.2519ZM320.3083 920.9019V779.2919C320.3083 752.9319 310.0583 742.6719 283.6883 742.6719H223.6283C124.9983 742.6719 78.6183 692.3819 78.6183 597.1719V223.6319C78.6183 128.4219 124.9983 78.6119 223.6283 78.6119H852.5383C950.6883 78.6119 997.5583 128.4219 997.5583 223.6319V597.1719C997.5583 692.3819 950.6883 742.6719 852.5383 742.6719H536.1283C508.7883 742.6719 495.1183 746.5819 476.5583 765.6219ZM286.6183 275.8819H783.6883C799.3183 275.8819 811.5283 263.6719 811.5283 247.5619C811.5283 232.4219 799.3183 219.7219 783.6883 219.7219H286.6183C270.9983 219.7219 258.2983 232.4219 258.2983 247.5619C258.2983 263.6719 270.9983 275.8819 286.6183 275.8819ZM286.6183 435.0619H783.6883C799.3183 435.0619 811.5283 422.3619 811.5283 406.2519C811.5283 391.1119 799.3183 378.4219 783.6883 378.4219H286.6183C270.9983 378.4219 258.2983 391.1119 258.2983 406.2519C258.2983 422.3619 270.9983 435.0619 286.6183 435.0619ZM286.6183 593.7519H609.8683C625.4883 593.7519 637.6983 581.5419 637.6983 565.9219C637.6983 549.8019 625.4883 537.1119 609.8683 537.1119H286.6183C270.9983 537.1119 258.2983 549.8019 258.2983 565.9219C258.2983 581.5419 270.9983 593.7519 286.6183 593.7519Z"/>
</svg>