<?xml version="1.0" encoding="UTF-8" standalone="no"?>
<svg xmlns="http://www.w3.org/2000/svg"
     width="1512.20703125" height="720.703125"
     viewBox="0 0 1512.20703125 720.703125"
     fill="currentColor">
  <path d="M565.4283 720.2123C588.8683 720.2123 605.9583 704.1023 605.9583 679.2023V608.8823H607.4183C639.1583 677.7323 703.1283 720.7023 783.6883 720.7023C916.9883 720.7023 1004.8783 614.7423 1004.8783 451.1723C1004.8783 287.6023 916.5083 181.6423 784.6683 181.6423C705.5683 181.6423 641.1183 225.1023 610.8383 292.9723H608.3983V43.4523C608.3983 17.0923 591.7983 0.0023 567.3783 0.0023C542.4783 0.0023 525.8783 17.0923 525.8783 43.4523V679.2023C525.8783 704.5923 541.9883 720.2123 565.4283 720.2123ZM173.8283 720.2123C248.5383 720.2123 318.3583 679.6923 348.1483 617.1923H349.6083V680.6623C349.6083 704.5923 366.2083 720.7023 389.1583 720.7023C413.0883 720.7023 429.1983 704.5923 429.1983 678.7123V355.4723C429.1983 249.5123 351.5583 181.6423 229.0083 181.6423C137.2083 181.6423 62.0083 221.6823 33.6883 284.1823C28.3183 295.9023 24.8983 307.6123 24.8983 317.8723C24.8983 339.3523 40.5283 353.5123 61.5283 353.5123C76.6583 353.5123 88.3783 347.6523 95.6983 333.9823C122.5583 278.3223 164.0583 251.9523 226.5583 251.9523C302.2483 251.9523 346.6783 293.9423 346.6783 361.8123V403.3223L190.9183 412.1123C68.3583 418.9423 -0.0017 475.5823 -0.0017 565.4323C-0.0017 658.6923 71.2883 720.2123 173.8283 720.2123ZM1301.7583 720.7023C1397.4583 720.7023 1479.9783 667.9723 1507.8083 593.2623C1510.2583 584.9623 1512.2083 577.1523 1512.2083 570.3123C1512.2083 549.3123 1497.0683 534.6723 1476.5583 534.6723C1458.0083 534.6723 1448.7283 541.9923 1437.4983 563.4723C1412.1083 619.1423 1368.1683 649.4123 1302.2483 649.4123C1206.5383 649.4123 1144.0383 573.7323 1144.0383 451.6623C1144.0383 330.5623 1207.0283 252.9323 1302.2483 252.9323C1365.2383 252.9323 1410.6483 282.7123 1436.5283 339.8423C1447.2683 360.3523 1457.0283 367.6723 1475.0983 367.6723C1496.0983 367.6723 1510.7383 354.0023 1510.7383 332.5223C1510.7383 326.6623 1508.7883 319.3323 1507.3283 312.9923C1482.9083 238.2823 1399.4183 181.6423 1300.2883 181.6423C1154.7883 181.6423 1059.5683 288.5723 1059.5683 452.1523C1059.5683 616.7023 1155.7583 720.7023 1301.7583 720.7023ZM765.6283 649.4123C673.3383 649.4123 608.3983 570.8023 608.3983 451.6623C608.3983 332.0323 673.8283 253.4223 765.6283 253.4223C860.3483 253.4223 919.9183 330.0823 919.9183 451.1723C919.9183 573.2423 859.8683 649.4123 765.6283 649.4123ZM193.8483 652.3423C128.4183 652.3423 84.4683 616.7023 84.4683 563.9623C84.4683 512.6923 125.4883 478.5123 201.1683 473.6323L346.6783 464.3523V515.1323C346.6783 592.2823 278.8083 652.3423 193.8483 652.3423Z"/>
</svg>