<?xml version="1.0" encoding="UTF-8" standalone="no"?>
<svg xmlns="http://www.w3.org/2000/svg"
     width="996.09375" height="996.09375"
     viewBox="0 0 996.09375 996.09375"
     fill="currentColor">
  <path d="M498.0477 996.0959C770.5077 996.0959 996.0977 770.0159 996.0977 498.0459C996.0977 225.5859 770.0177 -0.0041 497.5577 -0.0041C225.5877 -0.0041 -0.0023 225.5859 -0.0023 498.0459C-0.0023 770.0159 226.0777 996.0959 498.0477 996.0959ZM498.0477 913.0859C267.5777 913.0859 83.4977 728.5159 83.4977 498.0459C83.4977 267.5759 267.0877 83.0059 497.5577 83.0059C728.0277 83.0059 913.0877 267.5759 913.0877 498.0459C913.0877 728.5159 728.5177 913.0859 498.0477 913.0859ZM437.4977 674.8059C540.5277 646.4859 585.4477 566.8959 556.1477 458.9859L516.5977 312.4959C505.8577 272.9459 479.9777 258.7859 440.4277 269.0459L232.4177 324.2159C192.3877 334.9559 177.7377 360.3559 188.4777 400.3859L227.5377 547.3659C255.8577 654.7859 334.4777 701.6559 437.4977 674.8059ZM775.8777 378.9059L567.8677 322.7559C563.9677 321.7759 559.5677 321.2859 556.1477 320.7959L591.3077 449.2159C603.5177 494.1359 604.0077 536.6259 594.2377 573.2459C599.6077 574.2159 604.9777 574.7059 610.3477 576.1759C647.4577 585.4459 672.3677 613.7659 673.8277 646.9759C673.8277 655.2759 666.0177 659.6659 659.6677 653.3159C639.1577 634.2759 621.0977 624.9959 598.6377 618.6559C591.7977 616.6959 583.9877 614.7459 577.1477 614.2559C560.0577 646.4859 532.7177 672.8559 496.0977 691.4059C515.6277 707.5159 540.5277 720.7059 570.7977 728.5159C673.3377 755.8559 751.9577 708.4959 780.2777 601.0759L819.8277 454.5859C830.5677 415.0359 815.9177 389.1559 775.8777 378.9059ZM439.4577 428.2259C424.3177 431.6359 421.8777 442.3859 415.5277 442.8759C412.5977 444.3359 408.6877 439.9459 406.2477 434.5659C401.8577 416.9959 413.0877 397.4559 430.6677 393.0659C449.7077 388.6759 467.7777 398.4359 472.1677 416.9959C474.6077 423.3359 472.1677 428.2259 469.2377 429.1959C461.9177 431.6359 454.0977 423.3359 439.4577 428.2259ZM312.0077 462.4059C296.3877 466.7959 294.4377 476.5659 287.5977 478.0259C284.1777 478.5159 280.7577 475.0959 278.8077 469.7259C273.4377 451.1759 285.1577 432.1259 303.2277 428.2259C321.2877 423.3359 339.3577 434.0859 344.7277 451.1759C346.6777 457.5159 345.2177 462.4059 341.3077 463.8659C333.4977 465.8159 326.1677 458.0059 312.0077 462.4059ZM687.4977 538.0859C673.3377 535.1559 664.5477 519.5359 668.9477 504.8859C671.8777 490.7259 687.0077 482.4259 701.6577 486.3259C715.8177 489.7459 724.6077 504.8859 720.7077 519.0459C716.3077 533.2059 701.6577 541.9959 687.4977 538.0859ZM417.4777 599.6059C374.0277 610.8359 331.5477 595.7059 308.5977 560.5459C304.1977 553.7059 308.5977 547.8559 316.8977 547.8559C345.2177 550.2959 377.4377 545.4059 401.3677 539.5459C424.8077 533.2059 455.5677 520.9959 479.0077 504.8859C485.8377 499.9959 493.1677 503.4159 492.1877 511.7159C490.7277 553.7059 461.9177 587.8859 417.4777 599.6059Z"/>
</svg>