<?xml version="1.0" encoding="UTF-8" standalone="no"?>
<svg xmlns="http://www.w3.org/2000/svg"
     width="996.09375" height="996.09375"
     viewBox="0 0 996.09375 996.09375"
     fill="currentColor">
  <path d="M498.0477 996.0959C770.5077 996.0959 996.0977 770.0159 996.0977 498.0459C996.0977 225.5859 770.0177 -0.0041 497.5577 -0.0041C225.5877 -0.0041 -0.0023 225.5859 -0.0023 498.0459C-0.0023 770.0159 226.0777 996.0959 498.0477 996.0959ZM498.0477 913.0859C267.5777 913.0859 83.4977 728.5159 83.4977 498.0459C83.4977 267.5759 267.0877 83.0059 497.5577 83.0059C728.0277 83.0059 913.0877 267.5759 913.0877 498.0459C913.0877 728.5159 728.5177 913.0859 498.0477 913.0859ZM593.7477 604.9759C604.9777 604.9759 611.8177 595.2159 611.8177 583.9859L611.3277 548.8259L639.1577 564.4559C648.4377 569.8259 658.6877 567.3859 663.5777 559.0859C668.9477 549.3159 664.5477 540.0359 655.7577 534.1759L611.3277 508.2959L610.3477 421.8759L684.5677 465.8159V516.6059C684.5677 527.8359 691.4077 535.1559 702.1477 535.6459C711.9177 535.6459 718.7477 527.3459 718.7477 517.5759L719.2377 485.8359L750.4877 503.4159C760.7377 509.2759 771.9777 508.2959 777.8277 499.0259C783.2077 488.7659 778.8077 478.0259 769.0477 472.6559L737.3077 454.1059L764.6477 437.9859C772.9477 432.6159 776.8577 422.8559 771.9777 414.5459C766.5977 405.2759 755.8577 403.8059 747.0677 409.1759L702.6377 434.0859L627.4377 392.0859L703.1277 349.6059L747.5577 374.9959C756.8377 380.3759 767.5777 379.3959 772.4577 370.1159C778.3177 361.3259 773.4377 351.5659 765.1377 346.6759L738.2777 330.0759L769.5277 312.4959C779.7877 306.1559 783.2077 295.4059 777.8277 286.1359C771.9777 276.8559 760.7377 273.9259 751.4677 279.7859L719.7277 297.8559V266.6059C719.7277 255.8559 712.8877 248.0459 703.1277 248.0459C692.3877 248.0459 685.5477 255.8559 685.5477 267.5759L685.0577 318.3559L610.3477 362.3059L611.3277 275.3859L655.7577 249.5159C666.0177 243.6559 668.4577 234.3759 664.0577 225.0959C659.1777 215.8159 648.4377 214.3559 639.1577 219.2359L611.3277 235.3559L611.8177 200.1959C611.8177 188.9659 604.9777 179.6859 593.7477 179.6859C582.5177 179.6859 575.1977 188.9659 575.1977 200.1959V235.3559L547.8477 219.2359C538.5777 213.8659 528.3177 216.3059 523.4377 225.0959C518.0677 234.3759 521.9777 243.6559 531.2477 249.5159L575.6877 275.3859L576.6577 362.3059L522.4577 330.0759C523.9277 343.7459 524.8977 357.9059 525.3877 372.5559L559.5677 392.0859L525.3877 411.1359V452.6359L576.6577 421.8759L575.6877 508.2959L533.2077 533.2059C535.1577 542.4759 545.8977 555.1759 554.6877 561.0359L575.1977 548.3359V583.9859C575.1977 595.7059 582.5177 604.9759 593.7477 604.9759ZM406.7377 822.2659C481.9377 822.2659 542.4777 761.7159 542.4777 687.0159C542.4777 647.4559 525.8777 612.3059 494.6277 584.4759C489.7477 580.0759 488.7677 577.1459 488.7677 569.8259L489.2577 336.4259C489.2577 283.2059 455.5677 246.5859 406.7377 246.5859C357.4177 246.5859 324.2177 283.2059 324.2177 336.4259V569.8259C324.2177 577.1459 323.2377 580.0759 317.3877 584.4759C286.6177 612.3059 270.5077 647.4559 270.5077 687.0159C270.5077 761.7159 331.0577 822.2659 406.7377 822.2659ZM406.7377 782.7159C353.0277 782.7159 311.0377 740.2359 311.0377 687.0159C311.0377 654.7859 325.6877 625.9759 352.5377 607.9059C361.3277 602.5359 364.2577 597.1659 364.2577 585.9359V337.8859C364.2577 307.1259 380.8577 287.5959 406.7377 287.5959C431.6377 287.5959 448.2377 307.1259 448.2377 337.8859V585.9359C448.2377 597.1659 451.1677 602.5359 459.9577 607.9059C486.8177 625.9759 501.9577 654.7859 501.9577 687.0159C501.9577 740.2359 458.9877 782.7159 406.7377 782.7159ZM406.2477 750.4859C441.8977 750.4859 470.2177 721.6759 470.2177 686.5259C470.2177 662.1059 456.0577 641.6059 435.5477 630.3759C427.7377 626.4659 425.2977 623.0459 425.2977 611.3259V561.5259C425.2977 548.3359 416.9877 540.0359 406.2477 540.0359C395.5077 540.0359 387.6977 548.3359 387.6977 561.5259V611.3259C387.6977 623.0459 385.2577 626.4659 376.4677 630.3759C356.9377 641.6059 342.7777 662.1059 342.7777 686.5259C342.7777 722.1659 371.0977 750.4859 406.2477 750.4859Z"/>
</svg>