<?xml version="1.0" encoding="UTF-8" standalone="no"?>
<svg xmlns="http://www.w3.org/2000/svg"
     width="842.4087780809452" height="1084.9609375"
     viewBox="0 0 842.4087780809452 1084.9609375"
     fill="currentColor">
  <path d="M361.8771 -0.0022C282.2871 -0.0022 223.6971 50.7778 211.4871 128.9078L210.9971 161.1278L279.3571 229.4878V169.9178C279.3571 111.3278 312.5571 71.7778 361.8771 71.7778C409.7271 71.7778 443.4171 111.3278 443.4171 169.9178V393.5578L514.7071 465.3278V169.9178C514.7071 68.3578 452.6971 -0.0022 361.8771 -0.0022ZM778.3871 915.5278C793.0271 930.1778 817.4471 930.1778 831.6071 915.5278C845.7671 900.8778 846.2571 876.9578 831.6071 862.3078L64.5171 95.7078C49.8671 81.0578 25.9371 80.5678 10.8071 95.7078C-3.3529 109.8678 -3.8429 134.7678 10.8071 148.9278ZM606.5071 179.1978H712.4671C729.5571 179.1978 741.2771 166.0178 741.2771 150.8778C741.2771 135.7378 729.5571 122.5578 712.4671 122.5578H606.5071C589.4171 122.5578 577.6971 135.7378 577.6971 150.8778C577.6971 166.0178 589.4171 179.1978 606.5071 179.1978ZM606.5071 316.4078H712.4671C729.5571 316.4078 741.2771 303.2178 741.2771 288.0878C741.2771 272.9478 729.5571 259.7678 712.4671 259.7678H606.5071C589.4171 259.7678 577.6971 272.9478 577.6971 288.0878C577.6971 303.2178 589.4171 316.4078 606.5071 316.4078ZM606.5071 453.6178H712.4671C729.5571 453.6178 741.2771 440.4278 741.2771 425.2978C741.2771 410.1578 729.5571 396.4878 712.4671 396.4878H606.5071C589.4171 396.4878 577.6971 410.1578 577.6971 425.2978C577.6971 440.4278 589.4171 453.6178 606.5071 453.6178ZM361.8771 1084.9578C489.3171 1084.9578 594.2971 991.2078 612.3671 869.1378C613.8271 857.9078 614.3171 846.6778 613.8271 835.9378L524.4771 746.5778C537.6571 771.9678 544.9871 800.2978 544.9871 830.0778C544.9871 931.1478 462.4671 1014.1578 361.8771 1014.1578C259.8271 1014.1578 177.7971 931.1478 177.7971 830.0778C177.7971 769.0478 206.6071 713.8678 258.3671 679.1978C273.4971 668.9478 279.3571 659.6678 279.3571 639.6478V497.5578L207.5771 425.7778V608.3978C207.5771 623.0478 205.6271 628.9078 194.8871 638.1878C136.7771 690.9178 106.0171 755.8578 106.0171 830.0778C106.0171 970.7078 220.2771 1084.9578 361.8771 1084.9578ZM361.3871 948.2378C426.8171 948.2378 479.5571 895.5078 479.5571 829.5878C479.5571 783.6878 453.6771 746.0978 416.0771 725.5878C400.4571 717.2878 395.0771 711.4278 395.0771 687.4978V612.7978L327.6971 545.4078V687.4978C327.6971 711.4278 322.3271 717.2878 306.7071 725.5878C269.1071 746.0978 243.2271 783.6878 243.2271 829.5878C243.2271 895.5078 295.9571 948.2378 361.3871 948.2378Z"/>
</svg>