<?xml version="1.0" encoding="UTF-8" standalone="no"?>
<svg xmlns="http://www.w3.org/2000/svg"
     width="1393.5546875" height="952.1484375"
     viewBox="0 0 1393.5546875 952.1484375"
     fill="currentColor">
  <path d="M696.7777 952.1533C957.0277 952.1533 1173.3377 736.3233 1173.3377 476.0733C1173.3377 215.8233 957.0277 0.0033 696.2877 0.0033C436.0377 0.0033 220.7077 215.3333 220.7077 476.0733C220.7077 736.3233 436.5277 952.1533 696.7777 952.1533ZM1393.5577 476.0733C1393.5577 321.2933 1343.7477 178.7133 1258.2977 62.9833C1243.1677 42.4833 1217.2877 40.0433 1197.7577 55.6633C1179.6877 70.8033 1178.2277 94.7233 1191.8977 113.2833C1266.5977 215.3333 1310.0577 340.3333 1310.0577 476.0733C1310.0577 611.3233 1266.5977 736.8133 1191.8977 837.8933C1178.2277 857.4233 1180.1777 880.8633 1197.7577 895.9933C1217.2877 911.6233 1243.1677 909.6633 1258.2977 888.6733C1343.7477 772.9533 1393.5577 630.8633 1393.5577 476.0733ZM-0.0023 476.0733C-0.0023 630.8633 50.2977 772.9533 135.2577 888.6733C150.3877 909.6633 176.2677 911.6233 195.7977 895.9933C213.3777 880.8633 215.8177 857.4233 201.6577 837.8933C127.4377 736.8133 83.4977 611.3233 83.4977 476.0733C83.4977 340.3333 127.4377 215.3333 201.6577 113.2833C215.8177 94.7233 213.8677 70.8033 195.7977 55.6633C176.2677 40.0433 150.3877 42.4833 135.2577 62.9833C50.2977 178.7133 -0.0023 321.2933 -0.0023 476.0733ZM696.7777 869.1433C479.0077 869.1433 304.1977 694.3333 304.1977 476.0733C304.1977 257.3233 478.5177 82.5233 696.2877 82.5233C914.5477 82.5233 1089.8477 257.3233 1090.3277 476.0733C1090.8177 693.8433 915.5277 869.1433 696.7777 869.1433ZM677.7377 740.2333C739.7477 740.2333 790.0377 690.4333 790.0377 627.4433C790.0377 583.9833 765.1377 548.3433 729.4877 528.8133C718.2577 522.9533 713.8677 515.6233 713.8677 497.5633V261.7233C713.8677 241.7033 697.7577 225.0933 677.7377 225.0933C657.2277 225.0933 641.1177 241.7033 641.1177 261.7233V497.5633C641.1177 515.6233 637.2077 522.9533 625.4877 528.8133C589.8477 548.3433 565.4277 583.9833 565.4277 627.4433C565.4277 690.4333 615.2377 740.2333 677.7377 740.2333ZM795.4077 326.6633H884.7677C897.9477 326.6633 908.6877 315.9133 908.6877 302.2433C908.6877 289.0633 897.9477 278.3233 884.7677 278.3233H795.4077C782.2277 278.3233 770.9977 289.0633 770.9977 302.2433C770.9977 315.9133 782.2277 326.6633 795.4077 326.6633ZM795.4077 413.0833H884.7677C897.9477 413.0833 908.6877 401.8533 908.6877 388.6733C908.6877 375.4833 897.9477 364.7433 884.7677 364.7433H795.4077C782.2277 364.7433 770.9977 375.4833 770.9977 388.6733C770.9977 401.8533 782.2277 413.0833 795.4077 413.0833ZM795.4077 500.0033H884.7677C897.9477 500.0033 908.6877 488.7733 908.6877 475.0933C908.6877 462.4033 897.9477 451.6633 884.7677 451.6633H795.4077C782.2277 451.6633 770.9977 462.4033 770.9977 475.0933C770.9977 488.7733 782.2277 500.0033 795.4077 500.0033Z"/>
</svg>