<?xml version="1.0" encoding="UTF-8" standalone="no"?>
<svg xmlns="http://www.w3.org/2000/svg"
     width="996.09375" height="996.09375"
     viewBox="0 0 996.09375 996.09375"
     fill="currentColor">
  <path d="M498.0477 996.0977C770.5077 996.0977 996.0977 770.5077 996.0977 498.0477C996.0977 226.0777 770.0177 -0.0023 497.5577 -0.0023C225.5877 -0.0023 -0.0023 226.0777 -0.0023 498.0477C-0.0023 770.5077 226.0777 996.0977 498.0477 996.0977ZM595.7077 608.3977C584.4777 608.3977 576.6577 598.6377 576.6577 587.3977V549.8077L555.6677 562.9877C546.8777 556.6377 535.6477 544.4377 533.6877 534.6677L577.1477 509.2777L578.1277 419.9177L525.8777 451.1677V408.2077L560.5477 389.1577L525.8777 369.6277C525.3877 354.4877 524.4177 339.8477 522.9477 325.1977L578.1277 357.9077L577.1477 268.5577L531.2477 241.6977C521.9777 235.8377 518.0677 226.0777 523.4377 216.7977C528.3177 207.5177 539.0577 205.0777 548.8277 210.9377L576.6577 227.0477V190.9177C576.6577 179.1977 584.4777 169.9177 595.7077 169.9177C607.4177 169.9177 614.7477 179.1977 614.7477 190.9177L614.2577 227.0477L642.5777 210.9377C652.3477 205.5677 663.5777 207.0277 668.4577 216.7977C672.8477 226.0777 670.4077 235.8377 659.6677 241.6977L614.2577 268.5577L613.2777 357.9077L689.9377 312.9877L690.4277 260.7377C690.4277 249.0277 697.7577 240.7177 708.4977 240.7177C718.7477 240.7177 725.5877 249.0277 725.5877 259.2777V291.5077L758.2977 272.9477C768.0677 267.0877 779.7877 270.0177 785.6477 279.7877C791.5077 289.5477 787.5977 300.2977 777.3477 306.6377L745.1177 324.7077L772.4577 341.7977C781.2477 347.1677 786.1377 357.4177 780.2777 366.2077C774.8977 375.9777 764.1577 376.9577 754.3977 371.0977L708.4977 345.7077L630.8577 389.1577L708.0077 432.1277L753.9077 406.2477C763.1877 400.8777 773.9277 402.8277 779.7877 412.5977C784.6677 420.4077 780.7577 430.6677 771.9777 436.0377L744.1377 452.6377L776.8577 472.1677C786.6177 478.0277 791.5077 488.2777 785.6477 499.0277C779.7877 508.7877 768.0677 509.7677 757.3277 504.3977L725.0977 485.3477L724.6077 518.0677C724.6077 528.3177 717.7777 537.5977 707.5177 537.5977C696.7777 537.1077 689.4577 528.8077 689.4577 517.0877V464.8477L613.2777 419.9177L614.2577 509.2777L659.6677 535.6477C668.9477 541.5077 673.3377 551.2677 667.9677 561.5277C663.0877 570.3077 652.3477 572.2677 642.5777 566.4077L614.2577 550.2977L614.7477 587.3977C614.7477 598.1477 607.4177 608.3977 595.7077 608.3977ZM403.3177 832.5177C325.1977 832.5177 262.6977 770.0177 262.6977 692.3877C262.6977 651.8577 279.2977 615.2377 311.0377 586.9177C316.8977 582.0277 317.8677 579.0977 317.8677 572.2677V331.0577C317.8677 276.3677 352.0477 238.2777 403.3177 238.2777C453.6177 238.2777 488.2777 276.3677 488.2777 331.0577L487.7977 572.2677C487.7977 579.0977 488.7677 582.0277 493.6477 586.9177C525.8777 615.2377 542.9677 651.8577 542.9677 692.3877C542.9677 770.0177 480.4677 832.5177 403.3177 832.5177ZM403.3177 791.0177C457.0277 791.0177 501.4677 747.5577 501.4677 692.3877C501.4677 659.1777 485.8377 629.8877 458.0077 611.3277C448.7277 605.4677 445.7977 600.0977 445.7977 588.3777V332.5177C445.7977 301.2677 428.7077 280.7577 403.3177 280.7577C376.4677 280.7577 359.3777 301.2677 359.3777 332.5177V588.3777C359.3777 600.0977 356.4477 605.4677 347.1677 611.3277C319.8277 629.8877 304.6877 659.1777 304.6877 692.3877C304.6877 747.5577 347.6577 791.0177 403.3177 791.0177ZM402.8277 757.8077C366.2077 757.8077 337.3977 728.5177 337.3977 691.8977C337.3977 666.9877 352.0477 645.9977 372.0677 634.7677C380.8577 630.3677 383.2977 626.9577 383.2977 614.7477V563.4777C383.2977 549.8077 391.5977 541.0177 402.8277 541.0177C413.5777 541.0177 422.3677 549.8077 422.3677 563.4777V614.7477C422.3677 626.9577 424.8077 630.3677 432.6177 634.7677C453.6177 646.4877 468.2577 666.9877 468.2577 691.8977C468.2577 728.0277 439.4577 757.8077 402.8277 757.8077Z"/>
</svg>