<?xml version="1.0" encoding="UTF-8" standalone="no"?>
<svg xmlns="http://www.w3.org/2000/svg"
     width="996.09375" height="996.09375"
     viewBox="0 0 996.09375 996.09375"
     fill="currentColor">
  <path d="M498.0477 996.0959C770.5077 996.0959 996.0977 770.0159 996.0977 498.0459C996.0977 225.5859 770.0177 -0.0041 497.5577 -0.0041C225.5877 -0.0041 -0.0023 225.5859 -0.0023 498.0459C-0.0023 770.0159 226.0777 996.0959 498.0477 996.0959ZM498.0477 913.0859C267.5777 913.0859 83.4977 728.5159 83.4977 498.0459C83.4977 267.5759 267.0877 83.0059 497.5577 83.0059C728.0277 83.0059 913.0877 267.5759 913.0877 498.0459C913.0877 728.5159 728.5177 913.0859 498.0477 913.0859ZM529.2977 259.7659C543.9477 259.7659 554.6877 247.5559 554.6877 234.3759V178.2259C554.6877 164.5459 543.9477 153.3159 529.2977 153.3159C515.1377 153.3159 503.9077 164.5459 503.9077 178.2259V234.3759C503.9077 248.0459 515.1377 259.7659 529.2977 259.7659ZM645.9977 308.1059C655.2777 317.8759 672.3677 317.8759 682.1277 308.1059L721.1877 268.5559C730.4677 258.7859 730.9577 242.1859 720.7077 232.4259C710.9377 222.6559 695.3077 222.6559 686.0377 232.4259L645.9977 272.4559C635.7377 282.2259 636.2277 298.3359 645.9977 308.1059ZM406.7377 822.2659C481.9377 822.2659 542.4777 761.7159 542.4777 687.0159C542.4777 647.4559 525.8777 612.3059 494.6277 584.4759C489.7477 580.0759 488.7677 577.1459 488.7677 569.8259L489.2577 336.4259C489.2577 283.2059 455.5677 246.5859 406.7377 246.5859C357.4177 246.5859 324.2177 283.2059 324.2177 336.4259V569.8259C324.2177 577.1459 323.2377 580.0759 317.3877 584.4759C286.6177 612.3059 270.5077 647.4559 270.5077 687.0159C270.5077 761.7159 331.0577 822.2659 406.7377 822.2659ZM406.7377 782.7159C353.0277 782.7159 311.0377 740.2359 311.0377 687.0159C311.0377 654.7859 325.6877 625.9759 352.5377 607.9059C361.3277 602.5359 364.2577 597.1659 364.2577 585.9359V337.8859C364.2577 307.1259 380.8577 287.5959 406.7377 287.5959C431.6377 287.5959 448.2377 307.1259 448.2377 337.8859V585.9359C448.2377 597.1659 451.1677 602.5359 459.9577 607.9059C486.8177 625.9759 501.9577 654.7859 501.9577 687.0159C501.9577 740.2359 458.9877 782.7159 406.7377 782.7159ZM524.8977 552.7359C598.6377 555.1759 658.2077 498.5359 658.2077 424.8059C658.2077 352.5359 601.0777 295.4059 529.2977 295.4059C525.8777 295.4059 522.4577 295.4059 519.0477 296.3859C523.4377 309.0859 525.3877 322.2659 525.3877 336.4259ZM406.2477 750.4859C441.8977 750.4859 470.2177 721.6759 470.2177 686.5259C470.2177 662.1059 456.0577 641.6059 435.5477 630.3759C427.7377 626.4659 425.2977 623.0459 425.2977 611.3259V359.8659C425.2977 346.6759 416.9877 338.3759 406.2477 338.3759C395.5077 338.3759 387.6977 346.6759 387.6977 359.8659V611.3259C387.6977 623.0459 385.2577 626.4659 376.4677 630.3759C356.9377 641.6059 342.7777 662.1059 342.7777 686.5259C342.7777 722.1659 371.0977 750.4859 406.2477 750.4859ZM718.7477 449.7059H774.4177C788.5777 449.7059 799.8077 437.4959 799.8077 424.8059C799.8077 410.6459 788.5777 398.9259 774.4177 398.9259H718.7477C705.0777 398.9259 693.8477 410.6459 693.8477 424.8059C693.8477 437.4959 705.0777 449.7059 718.7477 449.7059ZM686.0377 616.6959C695.3077 625.9759 710.9377 626.4659 720.7077 616.6959C730.9577 606.9359 730.9577 589.8459 721.1877 581.0559L681.6377 541.0159C671.8777 531.2459 655.7577 531.2459 645.9977 541.0159C636.2277 550.7859 635.7377 567.3859 645.9977 576.6559Z"/>
</svg>