<?xml version="1.0" encoding="UTF-8" standalone="no"?>
<svg xmlns="http://www.w3.org/2000/svg"
     width="996.09375" height="996.09375"
     viewBox="0 0 996.09375 996.09375"
     fill="currentColor">
  <path d="M498.0477 996.0977C770.5077 996.0977 996.0977 770.5077 996.0977 498.0477C996.0977 226.0777 770.0177 -0.0023 497.5577 -0.0023C225.5877 -0.0023 -0.0023 226.0777 -0.0023 498.0477C-0.0023 770.5077 226.0777 996.0977 498.0477 996.0977ZM325.6877 238.7677C313.4777 238.7677 303.7077 229.0077 303.7077 216.7977C303.7077 205.0777 313.4777 195.3077 325.6877 195.3077H670.4077C682.6177 195.3077 692.8677 205.0777 692.8677 216.7977C692.8677 229.0077 682.6177 238.7677 670.4077 238.7677ZM498.0477 388.1877C436.5277 388.1877 383.7877 396.9677 346.1877 412.5977L335.4477 269.5277H660.6477L649.8977 412.5977C612.7977 396.9677 559.5677 388.1877 498.0477 388.1877ZM498.0477 550.7777C392.0877 550.7777 313.9677 522.9477 313.9677 484.3777C313.9677 446.2877 392.0877 418.9477 498.0477 418.9477C604.4877 418.9477 682.1277 446.2877 682.1277 484.3777C682.1277 522.9477 605.4677 550.7777 498.0477 550.7777ZM488.7677 675.7777C401.3677 675.7777 333.9877 625.9777 317.8677 541.0177C354.4877 565.9177 418.9477 580.5677 498.0477 580.5677C577.6377 580.5677 641.5977 565.9177 678.2277 541.0177C661.6177 625.9777 594.7277 675.7777 507.3277 675.7777ZM498.0477 834.4677C455.0777 834.4677 397.9477 822.7577 373.0477 798.3377C366.2077 791.5077 366.2077 782.2277 368.6477 772.9477L395.0177 687.4977C422.8477 700.1977 456.0577 706.5477 487.7977 706.5477H507.3277C540.0377 706.5477 573.2377 700.1977 601.0777 686.5277L627.4377 772.9477C629.8877 782.2277 629.8877 791.5077 623.5377 798.3377C598.1477 822.7577 541.0177 834.4677 498.0477 834.4677Z"/>
</svg>