<?xml version="1.0" encoding="UTF-8" standalone="no"?>
<svg xmlns="http://www.w3.org/2000/svg"
     width="734.9635941320814" height="1179.6875"
     viewBox="0 0 734.9635941320814 1179.6875"
     fill="currentColor">
  <path d="M368.6874 1179.6911C457.5574 1179.6911 563.0274 1158.2011 609.4174 1111.8211C622.1074 1099.1211 622.5974 1082.5211 617.7174 1064.9411L553.2574 853.5111C666.5474 796.3911 737.3474 680.1711 734.9074 535.1611C734.9074 489.7411 705.1174 451.6611 653.3574 423.3411L676.7974 78.6111H690.4674C711.9574 78.6111 729.5274 60.5511 729.5274 39.0611C729.5274 17.5811 711.9574 0.0011 690.4674 0.0011H44.9574C23.4774 0.0011 5.4074 17.5811 5.4074 39.0611C5.4074 60.5511 23.4774 78.6111 44.9574 78.6111H58.1474L82.0674 423.3411C29.8274 451.6611 0.0374 489.7411 0.0374 535.1611C-1.9126 681.6411 69.3774 798.3411 183.6374 854.4911L119.6674 1064.9411C114.7874 1082.5211 115.2774 1099.1211 127.4774 1111.8211C174.3574 1158.2011 279.3374 1179.6911 368.6874 1179.6911ZM367.7174 367.1911C287.6374 367.1911 216.8374 376.4611 158.7274 392.5811L137.2474 78.6111H597.6974L576.2074 392.5811C518.5974 376.4611 447.7974 367.1911 367.7174 367.1911ZM367.7174 624.5111C199.2574 624.5111 79.6274 584.9611 79.6274 535.1611C79.6274 485.3511 199.2574 445.8011 367.7174 445.8011C536.1674 445.8011 655.7974 485.3511 655.7974 535.1611C655.7974 584.9611 537.6374 624.5111 367.7174 624.5111ZM367.7174 703.1211C477.5774 703.1211 569.3774 686.5211 634.3174 657.2311C594.7674 753.4211 503.4574 812.9911 385.2974 812.9911H350.1374C230.9974 812.9911 139.6874 753.4211 100.6274 656.7411C165.5674 686.5211 258.3374 703.1211 367.7174 703.1211ZM350.1374 891.6011H385.2974C418.0074 891.6011 449.7474 888.1811 479.5274 880.8611L536.1674 1068.3611C499.5474 1089.3511 434.6074 1101.0711 368.6874 1101.0711C302.7774 1101.0711 237.8274 1089.3511 200.7274 1068.3611L257.8474 881.3511C286.6574 888.1811 317.4174 891.6011 350.1374 891.6011Z"/>
</svg>