<?xml version="1.0" encoding="UTF-8" standalone="no"?>
<svg xmlns="http://www.w3.org/2000/svg"
     width="1643.06640625" height="825.68359375"
     viewBox="0 0 1643.06640625 825.68359375"
     fill="currentColor">
  <path d="M143.5583 824.708C238.7683 824.708 337.3983 783.208 414.5483 703.128C469.2383 732.418 521.4883 759.278 600.0983 759.278C686.0383 759.278 739.7483 736.818 788.0883 709.958C863.2783 784.668 960.9383 825.688 1054.1983 825.688C1131.3483 825.688 1190.9183 793.458 1190.9183 733.888C1190.9183 677.248 1148.4383 653.808 1091.3083 638.188C1077.1483 634.278 1062.4983 630.858 1047.8483 626.958C1264.1583 622.558 1258.7883 512.698 1412.5983 512.698C1544.4383 512.698 1643.0683 466.798 1643.0683 375.978C1643.0683 181.638 1531.2483 78.128 1402.3483 78.128C1269.0383 78.128 1198.2383 162.108 1169.9183 272.458C1153.8083 332.518 1125.4883 370.118 1082.5183 391.598L1051.7583 334.958C922.3683 96.678 803.2183 0.488 606.9383 -0.002C395.0183 0.488 287.1083 92.778 128.9083 391.598C81.0583 482.908 -0.0017 502.928 -0.0017 560.058C-0.0017 600.098 30.7583 626.958 92.7783 626.958H143.0683C122.5583 632.808 101.5583 638.188 82.5183 645.018C36.6183 661.128 6.8383 685.548 6.8383 732.418C6.8383 791.988 65.9183 824.708 143.5583 824.708ZM606.9383 77.638C738.7683 77.638 822.7583 136.718 891.1183 224.118C810.5483 291.988 712.8883 330.078 601.0783 330.078C490.7183 330.078 395.0183 293.948 315.4283 227.538C398.9283 116.698 481.4483 77.638 606.9383 77.638ZM1187.9883 526.858C1166.0183 509.768 1139.6483 477.538 1124.5083 450.198C1177.2483 430.178 1212.8883 394.528 1234.3783 311.038C1257.8083 210.448 1311.0383 151.858 1402.3483 151.858C1495.1183 151.858 1572.7583 237.788 1572.7583 364.258C1572.7583 411.128 1501.4683 441.408 1427.2483 441.408C1305.1783 441.408 1250.4883 486.818 1187.9883 526.858ZM1420.8983 333.008C1444.8283 333.008 1464.8483 312.988 1464.8483 289.058C1464.8483 265.138 1444.8283 245.118 1420.8983 245.118C1396.4883 245.118 1376.4683 265.138 1376.4683 289.058C1376.4683 312.988 1396.4883 333.008 1420.8983 333.008ZM988.7683 376.958C1022.4583 437.008 1065.4283 505.368 1108.8883 548.338C1088.8683 548.828 1065.9183 548.338 1042.4783 548.338C969.7283 548.338 915.5283 561.528 870.6083 579.588C823.2383 516.598 788.5783 427.248 780.7583 360.838C837.8883 339.358 887.2083 309.078 927.7383 275.388C948.7283 307.128 968.7483 341.308 988.7683 376.958ZM171.3883 548.338C146.4883 548.338 121.0983 548.828 98.1483 550.288L94.2383 543.458C127.4383 515.628 168.9483 480.468 198.7283 421.878C227.0483 366.698 253.4183 319.828 279.2983 279.298C320.3083 312.988 371.0983 343.748 430.6683 364.748C420.8983 428.708 385.7383 518.558 340.8183 579.588C296.3883 561.528 242.6783 548.338 171.3883 548.338ZM600.0983 681.638C514.6483 681.638 462.3983 641.598 395.0183 605.468C440.4283 541.018 474.6083 452.148 484.3783 379.878C520.5083 388.188 559.0783 393.068 601.0783 393.068C645.9983 393.068 687.9883 387.208 726.5583 377.928C733.8883 453.128 768.0683 541.988 815.4283 605.958C747.5583 642.088 693.3583 681.638 600.0983 681.638ZM79.5883 722.168C79.5883 704.588 92.2883 692.868 129.8783 683.598C152.8283 677.738 214.3583 658.688 258.2983 637.698C291.5083 645.018 320.3083 655.758 346.1883 667.968C271.4883 730.958 204.5883 759.278 144.5283 759.278C101.5583 759.278 79.5883 745.608 79.5883 722.168ZM1067.8683 685.058C1104.9783 694.338 1118.1683 706.058 1118.1683 723.628C1118.1683 746.578 1096.1883 760.258 1053.2183 760.258C993.6483 760.258 928.2183 732.908 854.9783 672.368C879.8783 658.688 906.2483 646.968 937.9883 638.668C982.4183 659.668 1044.4383 678.708 1067.8683 685.058Z"/>
</svg>