<?xml version="1.0" encoding="UTF-8" standalone="no"?>
<svg xmlns="http://www.w3.org/2000/svg"
     width="1388.18359375" height="860.83984375"
     viewBox="0 0 1388.18359375 860.83984375"
     fill="currentColor">
  <path d="M694.3377 860.8448C1078.6177 860.8448 1388.1877 670.8948 1388.1877 430.1748C1388.1877 189.9448 1078.1277 0.0048 694.3377 0.0048C310.0577 0.0048 -0.0023 189.9448 -0.0023 430.1748C-0.0023 670.8948 309.0777 860.8448 694.3377 860.8448ZM694.3377 782.2248C355.4677 782.2248 78.6177 621.5848 78.6177 430.1748C78.6177 239.2548 355.9577 78.6148 694.3377 78.6148C1032.2277 78.6148 1309.5677 239.2548 1309.5677 430.1748C1309.5677 621.5848 1032.7177 782.2248 694.3377 782.2248ZM300.2977 403.8048C344.2377 488.2848 492.6777 539.0648 694.3377 539.0648C895.9977 539.0648 1044.4377 488.2848 1088.3777 403.8048C1107.9077 363.2848 1062.0077 345.7048 1043.4577 366.6948C1029.7877 382.8148 1012.2077 395.9948 991.2077 407.2248C910.6477 346.6748 804.6877 312.5048 694.3377 312.5048C583.9877 312.5048 478.0277 346.6748 397.4577 407.2248C376.4677 395.9948 358.3977 382.8148 345.2177 366.6948C326.6577 345.7048 280.7577 363.2848 300.2977 403.8048ZM694.3377 391.1148C768.0677 391.1148 838.3777 408.2048 897.4577 440.4248C834.9577 455.0748 763.1877 460.4448 694.3377 460.4448C626.9577 460.4448 554.6877 455.0748 491.2077 440.4248C550.2977 408.2048 620.6077 391.1148 694.3377 391.1148Z"/>
</svg>