<?xml version="1.0" encoding="UTF-8" standalone="no"?>
<svg xmlns="http://www.w3.org/2000/svg"
     width="1181.15234375" height="859.8937174883209"
     viewBox="0 0 1181.15234375 859.8937174883209"
     fill="currentColor">
  <path d="M39.0583 466.965H175.2883V616.865C175.2883 698.415 227.0483 746.755 324.2183 763.845L856.9383 857.105C950.1983 873.705 1005.8583 815.115 1005.8583 710.615V466.965H1142.0883C1166.5083 466.965 1181.1483 452.805 1181.1483 430.345C1181.1483 406.905 1166.5083 393.235 1142.0883 393.235H1005.8583V150.075C1005.8583 40.205 954.0983 -13.985 856.9383 3.105L324.2183 96.855C227.0483 113.935 175.2883 161.305 175.2883 243.335V393.235H39.0583C14.6483 393.235 -0.0017 406.905 -0.0017 430.345C-0.0017 452.805 14.6483 466.965 39.0583 466.965ZM249.0283 242.355C249.0283 201.345 273.9283 177.905 320.3083 170.095L860.8383 76.835C907.2283 69.015 932.1283 94.895 932.1283 149.095V393.235H249.0283ZM320.3083 690.115C273.9283 682.295 249.0283 658.865 249.0283 617.845V466.965H932.1283V711.595C932.1283 763.355 905.7583 791.185 860.8383 783.865Z"/>
</svg>