<?xml version="1.0" encoding="UTF-8" standalone="no"?>
<svg xmlns="http://www.w3.org/2000/svg"
     width="945.3125" height="1087.40234375"
     viewBox="0 0 945.3125 1087.40234375"
     fill="currentColor">
  <path d="M249.023 1087.4031H696.773C766.603 1087.4031 813.473 1041.9931 816.893 972.1631L850.583 262.2031H909.183C929.203 262.2031 945.313 245.1131 945.313 225.0931C945.313 205.0731 929.203 188.4731 909.183 188.4731H686.033V113.7731C686.033 42.9731 640.133 0.0031 564.943 0.0031H379.393C304.203 0.0031 258.303 42.9731 258.303 113.7731V188.4731H36.623C17.093 188.4731 0.003 205.0731 0.003 225.0931C0.003 245.6031 17.093 262.2031 36.623 262.2031H94.723L128.903 972.6531C132.323 1042.4831 178.223 1087.4031 249.023 1087.4031ZM335.933 118.6531C335.933 90.8231 355.473 72.7531 384.763 72.7531H559.573C588.863 72.7531 608.403 90.8231 608.403 118.6531V188.4731H335.933ZM255.863 1013.6731C228.023 1013.6731 207.033 992.6731 205.563 963.8631L171.383 262.2031H771.973L739.743 963.8631C738.773 993.1631 717.773 1013.6731 688.963 1013.6731ZM328.123 930.1731C346.683 930.1731 358.883 918.4531 358.403 901.3631L343.263 378.9031C342.773 361.8131 330.563 350.5831 312.993 350.5831C294.433 350.5831 282.223 362.3031 282.713 379.3931L297.363 901.3631C297.853 918.9431 310.063 930.1731 328.123 930.1731ZM472.653 930.1731C491.213 930.1731 504.393 918.4531 504.393 901.3631V379.3931C504.393 362.3031 491.213 350.5831 472.653 350.5831C454.103 350.5831 441.403 362.3031 441.403 379.3931V901.3631C441.403 918.4531 454.103 930.1731 472.653 930.1731ZM617.673 930.1731C635.253 930.1731 647.463 918.9431 647.953 901.3631L662.593 379.3931C663.083 362.3031 650.883 350.5831 632.323 350.5831C614.743 350.5831 602.543 361.8131 602.053 379.3931L587.403 901.3631C586.913 918.4531 599.123 930.1731 617.673 930.1731Z"/>
</svg>