<?xml version="1.0" encoding="UTF-8" standalone="no"?>
<svg xmlns="http://www.w3.org/2000/svg"
     width="996.09375" height="996.09375"
     viewBox="0 0 996.09375 996.09375"
     fill="currentColor">
  <path d="M498.0477 996.0977C770.5077 996.0977 996.0977 770.5077 996.0977 498.0477C996.0977 226.0777 770.0177 -0.0023 497.5577 -0.0023C225.5877 -0.0023 -0.0023 226.0777 -0.0023 498.0477C-0.0023 770.5077 226.0777 996.0977 498.0477 996.0977ZM684.0777 597.6577L604.0077 517.0877L607.9077 408.2077C608.3977 397.9477 601.5577 391.1177 590.8177 391.1177C580.0777 391.1177 572.7577 397.9477 572.7577 408.2077L569.8277 483.3977L515.6277 429.1977V408.2077C515.6277 397.9477 508.2977 391.1177 497.0677 391.1177C494.1377 391.1177 491.6977 392.0877 489.7477 394.0477V403.3177L369.1377 282.7177H378.9077V267.0877C378.9077 227.0477 405.7577 201.1677 448.2377 201.1677H546.8777C589.8477 201.1677 616.6977 227.0477 616.6977 267.0877V306.6377H733.3977C745.1177 306.6377 755.3677 315.9177 754.8877 327.6377C754.3977 338.8677 745.1177 348.1477 733.3977 348.1477H694.8277ZM716.7977 746.5777L256.3477 286.1377C247.5577 277.3477 247.5577 263.1877 256.3477 254.8877C264.6477 246.0977 278.8077 246.0977 287.5977 254.8877L747.5577 714.8477C756.8377 723.6377 756.8377 737.7977 747.5577 746.0977C739.2577 755.3677 726.0777 755.3677 716.7977 746.5777ZM428.2277 306.6377H566.4077V270.0177C566.4077 257.3277 557.1277 248.5377 543.9477 248.5377H450.6877C437.4977 248.5377 428.2277 257.3277 428.2277 270.0177ZM372.0677 785.6477C338.8677 785.6477 319.8277 767.0877 318.3577 734.3777L303.2277 385.7377L388.1877 470.7077L396.4877 693.3577C396.4877 703.1277 403.8077 709.9577 414.0577 709.9577C424.8077 709.9577 431.1477 703.1277 430.6677 693.3577L424.3177 507.3277L479.4877 562.0077V693.3577C479.4877 703.1277 486.3277 709.9577 497.0677 709.9577C507.8077 709.9577 515.6277 703.1277 515.6277 693.3577V598.6377L564.9377 647.9477L563.4777 693.3577C563.4777 703.1277 569.3377 709.9577 580.5677 709.9577C588.8677 709.9577 596.1877 705.0777 597.6577 696.7777L599.1177 682.1277L672.3677 755.3677L670.8977 759.7677C664.5477 775.3877 646.4877 785.6477 624.5077 785.6477Z"/>
</svg>