<?xml version="1.0" encoding="UTF-8" standalone="no"?>
<svg xmlns="http://www.w3.org/2000/svg"
     width="898.92578125" height="898.92578125"
     viewBox="0 0 898.92578125 898.92578125"
     fill="currentColor">
  <path d="M153.3183 898.9295H745.6083C848.1483 898.9295 898.9283 848.1495 898.9283 747.5595V151.3695C898.9283 50.7795 848.1483 -0.0005 745.6083 -0.0005H153.3183C51.2683 -0.0005 -0.0017 50.2895 -0.0017 151.3695V747.5595C-0.0017 848.6295 51.2683 898.9295 153.3183 898.9295ZM635.7383 548.3395L555.6683 467.7695L560.0583 358.8895C560.0583 348.6295 553.2183 341.7995 542.4783 341.7995C532.2283 341.7995 524.4183 348.1395 524.4183 358.8895L521.4883 434.0795L467.2883 379.8795V358.8895C467.2883 348.6295 459.9583 341.7995 448.7283 341.7995C445.7983 341.7995 443.3583 342.7695 441.4083 344.7295V353.9995L320.7983 233.3995H331.0583V217.7695C331.0583 177.2495 357.4183 151.8595 399.8983 151.8595H498.5383C541.5083 151.8595 568.3583 177.2495 568.3583 217.7695V257.3195H685.0583C696.7783 257.3195 707.0283 266.5995 706.5383 278.3195C706.0583 289.5495 696.7783 298.8295 685.0583 298.8295H646.4883ZM668.4583 697.2695L208.0083 236.8195C199.2183 227.5395 199.2183 213.8695 208.0083 205.5695C216.7983 196.2895 230.4683 196.2895 239.2583 205.5695L699.2183 665.5295C708.4983 674.3195 708.4983 687.9895 699.2183 696.7795C690.9183 705.5695 677.7383 706.0595 668.4583 697.2695ZM379.8783 257.3195H518.0683V220.2195C518.0683 207.5195 508.7883 199.2195 495.6083 199.2195H402.3483C389.6483 199.2195 379.8783 207.5195 379.8783 220.2195ZM323.7283 736.3295C290.5283 736.3295 271.4883 717.7695 270.0183 685.0595L254.8783 336.4295L339.8483 421.3895L348.1483 644.0395C348.1483 653.8095 355.9583 660.6395 365.7183 660.6395C376.4683 660.6395 382.8083 653.8095 382.8083 644.0395L375.9783 458.0095L431.1483 512.6995V644.0395C431.1483 653.8095 437.9883 660.6395 448.7283 660.6395C459.4683 660.6395 467.2883 653.8095 467.2883 644.0395V549.3195L516.5983 598.6295L515.1383 644.0395C515.1383 653.8095 520.9983 660.6395 532.2283 660.6395C540.5283 660.6395 547.8483 655.7595 549.3183 647.4595L550.7783 632.8095L624.0283 705.5695L622.5583 710.4495C616.2083 726.0695 598.1483 736.3295 576.1683 736.3295Z"/>
</svg>