<?xml version="1.0" encoding="UTF-8" standalone="no"?>
<svg xmlns="http://www.w3.org/2000/svg"
     width="945.2522406029726" height="1087.40234375"
     viewBox="0 0 945.2522406029726 1087.40234375"
     fill="currentColor">
  <path d="M826.5409 765.6231L850.4609 262.2031H909.0609C929.0809 262.2031 945.1909 245.1131 945.1909 225.0931C945.1909 205.0731 929.0809 188.4731 909.0609 188.4731H685.9109V115.2331C685.9109 44.9231 638.5509 0.0031 563.3509 0.0031H380.7409C305.5409 0.0031 258.6709 44.9231 258.6709 115.2331V178.2231H239.6209L323.6109 262.2031H772.3409L752.3209 691.4031ZM881.2209 1007.3231C895.8709 1021.9731 919.8009 1021.9731 934.4509 1007.3231C948.6109 992.1831 949.1009 968.7531 934.4509 954.1031L64.3309 83.4931C49.6809 68.8431 25.2709 68.8431 10.6209 83.4931C-3.5391 97.6531 -3.5391 122.5631 10.6209 136.7231ZM336.7909 188.4731V120.1131C336.7909 92.2831 356.8109 72.7531 386.6009 72.7531H557.9809C587.7709 72.7531 608.2809 92.2831 608.2809 120.1131V188.4731ZM248.9009 1087.4031H696.6509C748.9009 1087.4031 786.0109 1062.0131 804.0809 1021.9731L804.5609 1011.2331L740.6009 947.2631L740.1109 963.3831C739.6209 991.7031 718.1409 1013.6731 688.8409 1013.6731H255.7409C227.9009 1013.6731 206.9109 992.6731 205.4409 963.8631L177.1209 383.3031L97.0509 303.2231L128.7809 972.6531C132.2009 1042.4831 178.1009 1087.4031 248.9009 1087.4031ZM504.2709 442.8731V379.3931C504.2709 362.3031 491.0909 350.5831 472.5309 350.5831C463.7409 350.5831 454.4709 354.0031 448.6109 360.8431V387.2031ZM656.6209 595.2131L662.9609 379.3931C663.4509 362.3031 650.7609 350.5831 632.2009 350.5831C615.1109 350.5831 602.4209 361.8131 601.9309 379.3931L597.5309 536.1331ZM328.0009 930.1731C346.5609 930.1731 358.7609 918.4531 358.2809 901.3631L348.0209 555.1731L286.0109 492.6731L297.2409 901.3631C297.7309 918.9431 309.9409 930.1731 328.0009 930.1731ZM472.5309 930.1731C491.0909 930.1731 504.2709 918.4531 504.2709 901.3631V710.9331L441.2809 648.4331V901.3631C441.2809 918.9431 453.9809 930.1731 472.5309 930.1731ZM617.5509 930.1731C635.1309 930.1731 647.3409 918.9431 647.8309 901.3631L649.2909 856.4431L590.2109 797.3631L587.2809 901.3631C586.7909 918.4531 599.0009 930.1731 617.5509 930.1731Z"/>
</svg>