<?xml version="1.0" encoding="UTF-8" standalone="no"?>
<svg xmlns="http://www.w3.org/2000/svg"
     width="898.92578125" height="898.92578125"
     viewBox="0 0 898.92578125 898.92578125"
     fill="currentColor">
  <path d="M153.3183 898.9295H745.6083C848.1483 898.9295 898.9283 848.1495 898.9283 747.5595V151.3695C898.9283 50.7795 848.1483 -0.0005 745.6083 -0.0005H153.3183C51.2683 -0.0005 -0.0017 50.2895 -0.0017 151.3695V747.5595C-0.0017 848.6295 51.2683 898.9295 153.3183 898.9295ZM319.8283 745.6095C285.6483 745.6095 265.6283 726.5595 264.6483 692.3795L247.0683 294.4295H206.0583C194.3383 294.4295 184.5683 285.1595 184.5683 273.4395C184.5683 261.2295 194.3383 251.4695 206.0583 251.4695H327.1483V210.9395C327.1483 168.9495 354.4883 142.5795 398.9283 142.5795H500.4883C544.4383 142.5795 572.7583 168.9495 572.7583 210.9395V251.4695H692.8683C705.0783 251.4695 714.8483 261.2295 714.3583 273.4395C713.8683 285.1595 705.0783 294.4295 692.8683 294.4295H653.3183L636.2283 692.3795C634.7683 726.5595 613.7683 745.6095 580.0783 745.6095ZM378.4183 251.4695H520.0183V213.3795C520.0183 200.1995 510.7383 191.8895 497.0683 191.8895H401.3683C387.6983 191.8895 378.4183 200.1995 378.4183 213.3795ZM363.2783 667.4795C374.5083 667.4795 380.8583 660.1595 380.8583 650.3895L371.0983 356.4495C371.0983 345.2195 363.2783 338.8695 353.0283 338.8695C341.3083 338.8695 334.4683 345.6995 334.4683 356.4495L344.7283 650.3895C344.7283 660.1595 353.0283 667.4795 363.2783 667.4795ZM449.2183 667.4795C460.4483 667.4795 467.7783 660.1595 467.7783 650.3895V356.4495C467.7783 345.6995 460.4483 338.8695 449.2183 338.8695C437.4983 338.8695 430.6683 345.6995 430.6683 356.4495V650.3895C430.6683 660.1595 437.9883 667.4795 449.2183 667.4795ZM534.6683 667.4795C544.9183 667.4795 553.2183 660.1595 553.2183 650.3895L563.4783 356.4495C563.4783 345.6995 557.1283 338.8695 545.4083 338.8695C534.6683 338.8695 527.3483 345.2195 526.8583 356.4495L517.0883 650.3895C517.0883 660.1595 523.9283 667.4795 534.6683 667.4795Z"/>
</svg>