<?xml version="1.0" encoding="UTF-8" standalone="no"?>
<svg xmlns="http://www.w3.org/2000/svg"
     width="898.92578125" height="898.92578125"
     viewBox="0 0 898.92578125 898.92578125"
     fill="currentColor">
  <path d="M153.3183 898.9284H745.6083C848.1483 898.9284 898.9283 848.6284 898.9283 748.0484V151.3684C898.9283 50.7784 848.1483 -0.0016 745.6083 -0.0016H153.3183C51.2683 -0.0016 -0.0017 50.7784 -0.0017 151.3684V748.0484C-0.0017 848.6284 51.2683 898.9284 153.3183 898.9284ZM154.2983 820.3084C105.4683 820.3084 78.6183 794.4384 78.6183 743.6484V155.7584C78.6183 104.9784 105.4683 78.6084 154.2983 78.6084H744.6283C792.9683 78.6084 820.3083 104.9784 820.3083 155.7584V743.6484C820.3083 794.4384 792.9683 820.3084 744.6283 820.3084ZM635.7383 548.8284L646.4883 299.3184H685.0583C696.7783 299.3184 706.0583 289.5484 706.5383 278.3184C707.0283 267.0884 696.7783 257.3284 685.0583 257.3284H568.3583V217.7684C568.3583 177.7384 541.5083 152.3484 498.5383 152.3484H399.8983C357.4183 152.3484 331.0583 177.7384 331.0583 217.7684V233.3984H320.7983L441.4083 354.0084V344.7284C443.3583 342.7684 445.7983 341.7984 448.7283 341.7984C459.9583 341.7984 467.2883 348.6284 467.2883 358.8884V380.3684L521.4883 434.0784L524.4183 358.8884C524.4183 348.6284 532.2283 341.7984 542.4783 341.7984C553.2183 341.7984 560.0583 348.6284 560.0583 359.3784L555.6683 467.7684ZM668.4583 697.2684C677.7383 706.5384 690.9183 706.0584 699.2183 696.7784C708.4983 688.4784 708.4983 674.8084 699.2183 665.5284L239.2583 205.5684C230.4683 196.7784 216.7983 196.7784 208.0083 205.5684C199.2183 213.8684 199.2183 228.0284 208.0083 236.8184ZM379.8783 257.3284V220.6984C379.8783 208.0084 389.6483 199.7084 402.3483 199.7084H495.6083C508.7883 199.7084 518.0683 208.0084 518.0683 220.6984V257.3284ZM323.7283 736.3284H576.1683C598.1483 736.3284 616.2083 726.5584 622.5583 710.4484L624.0283 706.0584L550.7783 632.8084L549.3183 647.9484C547.8483 656.2484 540.5283 661.1284 532.2283 661.1284C520.9983 661.1284 515.1383 653.8084 515.1383 644.0384L516.5983 598.6284L467.2883 549.3184V644.0384C467.2883 653.8084 459.4683 660.6484 448.7283 660.6484C437.9883 660.6484 431.1483 653.8084 431.1483 644.0384V513.1884L375.9783 458.0084L382.8083 644.0384C382.8083 653.8084 376.4683 661.1284 365.7183 661.1284C355.9583 661.1284 348.1483 654.2984 348.1483 644.5284L339.8483 421.3884L254.8783 336.4284L270.0183 685.0584C271.4883 718.2584 290.5283 736.3284 323.7283 736.3284Z"/>
</svg>