<?xml version="1.0" encoding="UTF-8" standalone="no"?>
<svg xmlns="http://www.w3.org/2000/svg"
     width="898.92578125" height="898.92578125"
     viewBox="0 0 898.92578125 898.92578125"
     fill="currentColor">
  <path d="M153.3183 898.9284H745.6083C848.1483 898.9284 898.9283 848.6284 898.9283 748.0484V151.3684C898.9283 50.7784 848.1483 -0.0016 745.6083 -0.0016H153.3183C51.2683 -0.0016 -0.0017 50.7784 -0.0017 151.3684V748.0484C-0.0017 848.6284 51.2683 898.9284 153.3183 898.9284ZM154.2983 820.3084C105.4683 820.3084 78.6183 794.4384 78.6183 743.6484V155.7584C78.6183 104.9784 105.4683 78.6084 154.2983 78.6084H744.6283C792.9683 78.6084 820.3083 104.9784 820.3083 155.7584V743.6484C820.3083 794.4384 792.9683 820.3084 744.6283 820.3084ZM323.7283 736.3284H576.1683C608.8883 736.3284 628.9083 718.2584 630.3683 685.0584L646.9683 299.3184H685.5483C697.2683 299.3184 706.0583 289.5484 706.5383 278.3184C707.0283 267.0884 697.2683 257.3284 685.5483 257.3284H568.8483V217.7684C568.8483 177.7384 541.5083 152.3484 499.0283 152.3484H400.3883C357.4183 152.3484 331.0583 177.7384 331.0583 217.7684V257.3284H213.3783C202.1483 257.3284 192.3783 267.0884 192.3783 278.3184C192.3783 289.5484 202.1483 299.3184 213.3783 299.3184H253.4183L270.5083 685.0584C271.4883 718.2584 290.5283 736.3284 323.7283 736.3284ZM380.3683 257.3284V220.6984C380.3683 208.0084 389.6483 199.7084 402.8283 199.7084H495.6083C508.7883 199.7084 518.0683 208.0084 518.0683 220.6984V257.3284ZM365.7183 661.1284C355.9583 661.1284 348.1483 654.2984 348.1483 644.5284L337.8883 359.3784C337.8883 348.6284 344.7283 341.7984 355.9583 341.7984C365.7183 341.7984 373.5383 348.6284 373.5383 358.8884L382.8083 644.0384C382.8083 653.8084 376.9483 661.1284 365.7183 661.1284ZM449.2183 660.6484C438.4783 660.6484 431.1483 653.8084 431.1483 644.0384V358.8884C431.1483 348.6284 437.9883 341.7984 449.2183 341.7984C459.9583 341.7984 467.2883 348.6284 467.2883 358.8884V644.0384C467.2883 653.8084 459.9583 660.6484 449.2183 660.6484ZM532.2283 661.1284C521.4883 661.1284 515.1383 653.8084 515.1383 644.0384L524.4183 358.8884C524.8983 348.6284 532.2283 341.7984 542.4783 341.7984C553.7083 341.7984 560.0583 348.6284 560.0583 359.3784L549.8083 644.5284C549.8083 654.2984 541.9883 661.1284 532.2283 661.1284Z"/>
</svg>