<?xml version="1.0" encoding="UTF-8" standalone="no"?>
<svg xmlns="http://www.w3.org/2000/svg"
     width="1151.3671875" height="1123.53515625"
     viewBox="0 0 1151.3671875 1123.53515625"
     fill="currentColor">
  <path d="M153.3183 1123.5316H998.0483C1100.0983 1123.5316 1151.3683 1072.7516 1151.3683 972.1716V723.6316C1151.3683 706.5416 1144.5283 689.9416 1132.3283 679.6916C1145.0183 657.7116 1151.3683 629.8816 1151.3683 596.6816V327.1516C1151.3683 282.7116 1148.4383 252.4416 1123.5383 229.0016L950.6883 65.4316C897.4583 15.6216 859.3783 0.0016 787.1083 0.0016H364.2583C292.4783 0.0016 253.9083 15.6216 201.1683 65.4316L27.8283 229.0016C2.9283 252.4416 -0.0017 282.7116 -0.0017 327.1516V596.6816C-0.0017 629.8816 6.3483 657.7116 19.0383 679.6916C6.8383 689.9416 -0.0017 706.5416 -0.0017 723.6316V972.1716C-0.0017 1072.7516 51.2683 1123.5316 153.3183 1123.5316ZM575.6883 450.1916C506.8383 450.1916 462.3983 390.6216 462.3983 333.9816V332.0316C462.3983 311.5216 450.1983 292.4816 424.8083 292.4816H114.7483C86.9183 292.4816 77.6383 279.7816 100.0983 258.7916L261.2283 106.9316C291.0183 79.1016 310.5483 68.3616 356.9383 68.3616H794.4383C841.3083 68.3616 860.3483 79.1016 890.1383 106.9316L1051.2683 258.7916C1074.7083 280.7616 1063.9683 292.4816 1037.1083 292.4816H726.5583C701.1683 292.4816 689.4483 311.5216 689.4483 332.0316V333.9816C689.4483 390.6216 645.0183 450.1916 575.6883 450.1916ZM154.2983 669.4316C105.4683 669.4316 78.6183 643.0616 78.6183 592.2816V364.2616H388.1883C399.8983 455.0816 476.5583 522.9516 575.6883 522.9516C674.8083 522.9516 751.4683 455.0816 763.1883 364.2616H1072.7583V592.2816C1072.7583 643.0616 1045.4083 669.4316 997.0683 669.4316ZM575.6883 827.1516C519.0383 827.1516 479.0083 786.6216 466.3083 741.2116H685.0583C672.3683 786.6216 632.3283 827.1516 575.6883 827.1516ZM154.2983 1044.9216C105.4683 1044.9216 78.6183 1018.5516 78.6183 967.7716V741.2116H388.1883C399.8983 832.0316 476.5583 899.9016 575.6883 899.9016C674.8083 899.9016 751.4683 832.0316 763.1883 741.2116H1072.7583V967.7716C1072.7583 1018.5516 1045.4083 1044.9216 997.0683 1044.9216Z"/>
</svg>