<?xml version="1.0" encoding="UTF-8" standalone="no"?>
<svg xmlns="http://www.w3.org/2000/svg"
     width="996.09375" height="996.09375"
     viewBox="0 0 996.09375 996.09375"
     fill="currentColor">
  <path d="M498.0477 996.0959C770.5077 996.0959 996.0977 770.0159 996.0977 498.0459C996.0977 225.5859 770.0177 -0.0041 497.5577 -0.0041C225.5877 -0.0041 -0.0023 225.5859 -0.0023 498.0459C-0.0023 770.0159 226.0777 996.0959 498.0477 996.0959ZM498.0477 913.0859C267.5777 913.0859 83.4977 728.5159 83.4977 498.0459C83.4977 267.5759 267.0877 83.0059 497.5577 83.0059C728.0277 83.0059 913.0877 267.5759 913.0877 498.0459C913.0877 728.5159 728.5177 913.0859 498.0477 913.0859ZM288.0877 695.3159H708.0077C758.7877 695.3159 784.1777 669.9259 784.1777 620.1159V486.8159C784.1777 464.3559 780.2777 454.5859 770.0177 440.4259L684.0777 324.2159C655.7577 285.6459 639.1577 276.3659 596.6777 276.3659H399.4177C356.9377 276.3659 339.8477 285.6459 312.0077 324.2159L226.0777 440.4259C215.8177 454.5859 211.9177 464.3559 211.9177 486.8159V620.1159C211.9177 669.9259 237.7977 695.3159 288.0877 695.3159ZM280.2777 470.7059C272.9477 470.7059 271.4877 464.3559 274.8977 459.4759L359.3777 344.2359C369.1377 330.5659 379.3977 325.1959 396.4877 325.1959H600.0977C617.1877 325.1959 627.4377 331.0559 636.7177 344.2359L721.6777 459.4759C725.0977 463.8659 723.1477 470.7059 715.8177 470.7059H575.1977C562.4977 470.7059 556.6377 480.4659 556.6377 490.7259V496.5859C556.6377 530.2759 533.6877 551.7559 498.0477 551.7559C462.3977 551.7559 440.4277 530.2759 440.4277 496.5859V490.7259C440.4277 480.4659 433.5977 470.7059 420.8977 470.7059Z"/>
</svg>