<?xml version="1.0" encoding="UTF-8" standalone="no"?>
<svg xmlns="http://www.w3.org/2000/svg"
     width="996.09375" height="996.09375"
     viewBox="0 0 996.09375 996.09375"
     fill="currentColor">
  <path d="M498.0477 996.0977C770.5077 996.0977 996.0977 770.5077 996.0977 498.0477C996.0977 226.0777 770.0177 -0.0023 497.5577 -0.0023C225.5877 -0.0023 -0.0023 226.0777 -0.0023 498.0477C-0.0023 770.5077 226.0777 996.0977 498.0477 996.0977ZM282.2277 702.1477C229.9777 702.1477 203.6177 675.7777 203.6177 624.9977V486.8177C203.6177 463.3777 207.5177 453.6177 218.2577 438.9677L306.6377 319.3377C335.4477 279.2977 353.0277 270.0177 396.9777 270.0177H600.0977C644.0477 270.0177 661.1377 279.2977 690.4277 319.3377L778.8077 438.9677C789.5477 453.6177 793.4577 463.3777 793.4577 486.8177V624.9977C793.4577 675.7777 767.5777 702.1477 714.8477 702.1477ZM274.4177 470.2177H418.9477C432.1277 470.2177 439.4577 480.4677 439.4577 490.7177V497.0677C439.4577 531.7377 461.9177 553.7077 498.5377 553.7077C535.1577 553.7077 559.0777 531.7377 559.0777 497.0677V490.7177C559.0777 480.4677 564.9377 470.2177 578.1277 470.2177H722.6577C730.4677 470.2177 732.4177 462.8877 729.0077 458.4977L641.5977 339.8477C631.8377 326.1677 621.0977 320.3077 603.5177 320.3077H394.0477C376.4677 320.3077 365.7277 325.6877 355.4677 339.8477L268.5577 458.4977C265.1377 463.8677 266.5977 470.2177 274.4177 470.2177Z"/>
</svg>