<?xml version="1.0" encoding="UTF-8" standalone="no"?>
<svg xmlns="http://www.w3.org/2000/svg"
     width="1263.671875" height="1274.4140625"
     viewBox="0 0 1263.671875 1274.4140625"
     fill="currentColor">
  <path d="M514.1583 1004.8781C527.8283 1004.8781 542.4783 1004.3981 557.6183 1002.4381C561.0383 1019.0381 562.9883 1034.6681 562.9883 1048.8281C562.9883 1118.1681 554.1983 1205.5681 554.1983 1236.3281C554.1983 1259.7681 584.9583 1274.4181 631.8383 1274.4181C678.7083 1274.4181 709.4683 1259.7681 709.4683 1236.3281C709.4683 1205.5681 700.6883 1118.1681 700.6883 1048.8281C700.6883 1034.6681 702.6383 1019.0381 706.0583 1002.4381C721.1883 1004.3981 735.8383 1004.8781 749.5083 1004.8781C851.0783 1004.8781 926.2683 958.9881 954.0983 935.0581C995.6083 955.5681 1034.1783 964.8481 1070.3083 964.8481C1184.5683 964.8481 1263.6683 883.2981 1263.6683 765.6281C1263.6683 706.0581 1239.2583 643.0681 1183.1083 586.9181C1227.5383 540.5281 1245.6083 485.3481 1245.6083 431.1481C1245.6083 314.4481 1155.7583 206.5381 1043.9483 193.3581C1038.5783 80.5681 913.0883 -0.0019 792.9683 -0.0019C731.9383 -0.0019 674.3183 19.0381 631.8383 62.9881C589.3583 19.0381 532.2283 -0.0019 470.6983 -0.0019C350.5883 -0.0019 225.0983 80.5681 220.2183 193.3581C107.9083 206.5381 17.5783 314.4481 17.5783 431.1481C17.5783 485.3481 36.1283 540.5281 80.5683 586.9181C24.4183 643.0681 -0.0017 706.0581 -0.0017 765.6281C-0.0017 883.2981 79.0983 964.8481 193.3583 964.8481C229.4883 964.8481 268.0683 955.5681 309.5683 935.0581C336.9183 958.9881 412.5983 1004.8781 514.1583 1004.8781ZM371.5783 767.5781C405.2783 767.5781 434.0783 761.7181 457.5183 751.4681C481.4483 795.8981 515.6283 866.6981 538.5783 933.5981C530.2783 934.5681 522.4583 934.5681 514.1583 934.5681C400.3883 934.5681 343.7483 873.0481 321.2883 847.6581C270.5083 883.7881 240.7183 894.0381 193.3583 894.0381C119.1383 894.0381 70.7983 843.2581 70.7983 765.6281C70.7983 713.8681 89.3583 673.3381 157.2283 611.3281C172.3683 598.1481 170.4083 576.1681 158.1983 563.4781C101.0783 508.2981 87.8883 470.2181 87.8883 421.8781C87.8883 327.6381 160.6483 255.3681 271.9683 262.6981C288.5783 263.6681 293.9483 252.4381 291.9883 241.2081C277.8283 146.4881 357.9083 70.3081 475.0983 70.3081C542.9683 70.3081 588.8683 96.1881 631.8383 142.0881C674.8083 96.1881 720.6983 70.3081 788.5783 70.3081C905.7583 70.3081 985.8383 146.4881 971.6783 241.2081C969.7283 252.4381 975.0983 263.6681 991.6983 262.6981C1102.5383 255.3681 1175.2883 327.6381 1175.2883 421.8781C1175.2883 470.2181 1162.5983 508.2981 1105.4683 563.4781C1093.2583 576.1681 1091.3083 598.1481 1106.4483 611.3281C1174.3183 673.3381 1192.8683 713.8681 1192.8683 765.6281C1192.8683 843.2581 1144.0383 894.0381 1070.3083 894.0381C1022.9483 894.0381 993.1683 883.7881 941.8983 847.6581C919.9183 873.0481 863.2783 934.5681 749.5083 934.5681C741.2083 934.5681 733.3983 934.5681 725.0983 933.5981C748.0483 866.6981 782.2283 796.3881 806.1483 751.4681C829.5883 761.7181 858.3983 767.5781 892.0883 767.5781C908.6883 767.5781 922.8483 754.3981 922.8483 737.3081C922.8483 720.6981 908.6883 706.5381 892.0883 706.5381C810.0583 705.5681 774.4183 659.6681 771.9683 591.3081C771.4883 566.8981 737.7883 557.1281 723.1483 578.1281C702.6383 608.3981 673.3383 625.9781 631.8383 625.9781C590.3283 625.9781 561.0383 608.3981 540.5283 578.1281C525.8783 557.1281 492.1883 566.8981 491.6983 591.3081C489.2583 659.6681 453.6183 705.5681 371.5783 706.5381C354.9783 706.5381 340.8183 720.6981 340.8183 737.3081C340.8183 754.3981 354.9783 767.5781 371.5783 767.5781ZM537.1083 664.5481C553.7083 675.7781 571.7783 683.5981 591.7983 687.9881V849.1181C562.4983 784.1781 538.5783 738.7681 518.5583 701.1681C525.8783 689.9381 532.2283 677.7381 537.1083 664.5481ZM726.5583 664.5481C731.4483 677.7381 737.7883 689.9381 745.1183 701.1681C725.0983 738.7681 701.1683 783.6881 671.8783 848.6281V687.9881C691.8983 683.5981 709.9583 675.7781 726.5583 664.5481Z"/>
</svg>