<?xml version="1.0" encoding="UTF-8" standalone="no"?>
<svg xmlns="http://www.w3.org/2000/svg"
     width="996.09375" height="996.09375"
     viewBox="0 0 996.09375 996.09375"
     fill="currentColor">
  <path d="M498.0477 996.0959C770.5077 996.0959 996.0977 770.0159 996.0977 498.0459C996.0977 225.5859 770.0177 -0.0041 497.5577 -0.0041C225.5877 -0.0041 -0.0023 225.5859 -0.0023 498.0459C-0.0023 770.0159 226.0777 996.0959 498.0477 996.0959ZM498.0477 913.0859C267.5777 913.0859 83.4977 728.5159 83.4977 498.0459C83.4977 267.5759 267.0877 83.0059 497.5577 83.0059C728.0277 83.0059 913.0877 267.5759 913.0877 498.0459C913.0877 728.5159 728.5177 913.0859 498.0477 913.0859ZM217.2877 567.8759C217.2877 619.6259 252.4377 655.7659 302.7377 655.7659C318.3577 655.7659 336.4277 651.8559 354.9777 642.5759C368.6477 654.7859 401.8577 671.8759 439.9377 673.3359C432.6177 639.1559 408.6877 591.3059 394.5277 565.4259C403.8077 564.4559 411.6177 562.4959 418.4577 559.5659C444.3377 608.3959 467.2877 660.1559 467.2877 693.8459C467.2877 725.0959 463.3777 763.1859 463.3777 776.3659C463.3777 786.6259 477.0477 793.4559 497.5577 793.4559C518.0677 793.4559 531.7377 786.6259 531.7377 776.3659C531.7377 763.1859 527.8277 725.0959 527.8277 693.8459C527.8277 662.5959 547.8477 615.2359 575.1977 559.0859C582.5177 562.4959 590.8177 564.4559 600.5877 565.4259C586.4277 591.3059 562.9877 639.1559 555.1777 673.3359C593.2577 671.8759 626.4677 654.7859 640.1377 642.5759C658.6877 651.8559 676.7577 655.7659 692.3877 655.7659C742.6777 655.7659 778.3177 619.6259 778.3177 567.8759C778.3177 541.5059 766.5977 513.6759 742.6777 488.2859C761.7177 467.7759 770.0177 443.8459 770.0177 419.4359C770.0177 367.6759 729.9777 319.3359 680.1777 313.9659C678.7077 263.1859 622.5577 227.5359 569.3377 227.5359C541.9877 227.5359 516.5977 236.3259 497.5577 255.8559C478.5177 236.3259 453.6177 227.5359 425.7777 227.5359C373.0477 227.5359 316.8977 263.1859 314.9377 313.9659C265.1377 319.3359 225.0977 367.6759 225.0977 419.4359C225.0977 443.8459 233.3977 467.7759 252.4377 488.2859C228.5177 513.6759 217.2877 541.5059 217.2877 567.8759ZM454.5877 519.5359C461.9177 524.9059 470.2177 528.8059 479.4877 531.2459V605.4659C470.7077 584.4759 460.9377 565.4259 445.7977 537.5959C449.2177 532.2259 452.1477 525.8759 454.5877 519.5359ZM540.5277 519.5359C542.9677 525.8759 545.8977 531.7359 549.3177 537.1059C533.2077 566.8959 524.4177 584.9559 515.6277 604.9759L514.6477 531.2459C524.4177 529.2959 532.7177 524.9059 540.5277 519.5359Z"/>
</svg>