<?xml version="1.0" encoding="UTF-8" standalone="no"?>
<svg xmlns="http://www.w3.org/2000/svg"
     width="996.09375" height="996.09375"
     viewBox="0 0 996.09375 996.09375"
     fill="currentColor">
  <path d="M498.0477 996.0945C770.5077 996.0945 996.0977 770.0145 996.0977 498.0445C996.0977 225.5845 770.0177 0.0045 497.5577 0.0045C225.5877 0.0045 -0.0023 225.5845 -0.0023 498.0445C-0.0023 770.0145 226.0777 996.0945 498.0477 996.0945ZM244.1377 596.1945L434.5677 264.6445C467.2877 208.4945 530.7577 210.4445 562.0077 264.1645L752.9277 596.1945C786.1377 653.8045 760.2577 708.9845 695.7977 708.9845H301.7577C236.8177 708.9845 211.4277 653.8045 244.1377 596.1945ZM310.5477 623.0445C305.1777 630.8545 308.1077 638.1845 317.8677 638.1845H679.1977C689.4577 638.1845 691.8977 630.8545 687.0077 623.0445L506.3477 309.5745C502.4377 302.2445 494.1377 301.7545 490.2377 309.5745Z"/>
</svg>