<?xml version="1.0" encoding="UTF-8" standalone="no"?>
<svg xmlns="http://www.w3.org/2000/svg"
     width="1030.3978545473815" height="1028.076171875"
     viewBox="0 0 1030.3978545473815 1028.076171875"
     fill="currentColor">
  <path d="M91.3053 1028.0771C142.0853 1028.0771 183.1053 986.5771 183.1053 936.2771C183.1053 929.4471 182.1253 922.6071 181.1553 916.2571L332.0353 765.3771L524.4153 764.8971C555.6653 764.8971 588.8653 753.6571 611.8153 731.1971L1016.1153 332.7671C1035.6453 313.2371 1034.6653 281.9871 1016.1153 262.9371C997.0753 243.4071 965.3353 243.4071 946.2853 262.9371L557.6153 652.0971C543.4553 665.7671 526.3653 674.0771 506.3453 674.0771H370.1153L362.7953 665.2871V518.7971C362.7953 498.7771 370.6053 481.1971 384.2753 467.5271L768.0653 84.7171C787.1053 65.1871 786.6253 33.9371 768.0653 14.4071C749.0253 -4.6429 717.2853 -5.1229 698.2453 14.8971L299.8053 419.1871C275.8753 443.6071 266.1153 474.8571 265.6253 506.5871V691.6471L111.3253 846.4371C104.4953 844.9671 98.1453 844.4871 91.3053 844.4871C41.0153 844.4871 -0.0047 885.4971 -0.0047 936.2771C-0.0047 986.5771 41.0153 1028.0771 91.3053 1028.0771Z"/>
</svg>