<?xml version="1.0" encoding="UTF-8" standalone="no"?>
<svg xmlns="http://www.w3.org/2000/svg"
     width="898.92578125" height="898.92578125"
     viewBox="0 0 898.92578125 898.92578125"
     fill="currentColor">
  <path d="M153.3183 898.9295H745.6083C848.1483 898.9295 898.9283 848.1495 898.9283 747.5595V151.3695C898.9283 50.7795 848.1483 -0.0005 745.6083 -0.0005H153.3183C51.2683 -0.0005 -0.0017 50.2895 -0.0017 151.3695V747.5595C-0.0017 848.6295 51.2683 898.9295 153.3183 898.9295ZM394.5283 687.9895C365.7183 687.9895 351.5583 670.8995 351.5583 647.9495V488.2795L311.5283 505.8595C307.1283 507.3195 303.2183 508.2995 298.8283 508.2995C284.6683 508.2995 275.3883 498.0495 275.3883 483.8895C275.3883 472.6595 279.7883 465.3295 291.9883 459.9595L351.5583 435.0595V387.2095L311.5283 404.2995C307.1283 406.2495 303.2183 407.2295 298.8283 407.2295C284.6683 407.2295 275.3883 397.4595 275.3883 383.2995C275.3883 371.5795 279.7883 364.2595 291.9883 359.3795L351.5583 333.4995V244.1395C351.5583 223.6295 363.7683 210.4495 383.2983 210.4495C401.8583 210.4495 414.0583 223.6295 414.0583 244.1395V308.1095L499.5083 272.4595C503.4183 270.5095 507.8083 269.0395 512.2083 269.0395C526.3683 269.0395 535.6483 279.7895 535.6483 293.9495C535.6483 305.1795 530.7583 312.0095 519.0383 317.8695L414.0583 361.3295V409.1795L499.5083 373.0495C503.4183 371.5795 507.8083 370.6095 512.2083 370.6095C526.3683 370.6095 535.6483 380.8595 535.6483 395.0195C535.6483 405.7595 530.7583 413.5695 519.0383 418.4595L414.0583 462.3995V623.0495C496.0983 623.0495 553.7083 556.1495 562.9883 482.4195C566.4083 458.9795 578.1283 449.7095 594.2383 449.7095C612.7883 449.7095 624.0283 462.8895 624.0283 483.3995C624.0283 574.2195 539.5483 687.9895 394.5283 687.9895Z"/>
</svg>