<?xml version="1.0" encoding="UTF-8" standalone="no"?>
<svg xmlns="http://www.w3.org/2000/svg"
     width="898.92578125" height="898.92578125"
     viewBox="0 0 898.92578125 898.92578125"
     fill="currentColor">
  <path d="M153.3183 898.9295H745.6083C848.1483 898.9295 898.9283 848.1495 898.9283 747.5595V151.3695C898.9283 50.7795 848.1483 -0.0005 745.6083 -0.0005H153.3183C51.2683 -0.0005 -0.0017 50.2895 -0.0017 151.3695V747.5595C-0.0017 848.6295 51.2683 898.9295 153.3183 898.9295ZM154.2983 820.3095C105.4683 820.3095 78.6183 794.4295 78.6183 743.6495V155.2695C78.6183 104.4895 105.4683 78.6095 154.2983 78.6095H744.6283C792.9683 78.6095 820.3083 104.4895 820.3083 155.2695V743.6495C820.3083 794.4295 792.9683 820.3095 744.6283 820.3095ZM395.9983 680.6595C536.6183 680.6595 618.6483 570.3095 618.6483 482.4195C618.6483 462.3995 607.4183 449.7095 589.8483 449.7095C574.2183 449.7095 562.9883 458.9795 559.5683 481.4495C550.7783 552.7295 494.6283 617.6795 415.0383 617.6795V461.9095L517.0883 419.4295C528.3183 414.5495 533.1983 407.2295 533.1983 396.4795C533.1983 382.8095 523.9283 373.0495 510.2583 373.0495C506.3483 373.0495 501.9483 374.0195 498.0483 375.4895L415.0383 410.6395V364.2595L517.0883 321.7795C528.3183 316.4095 533.1983 309.5695 533.1983 298.8295C533.1983 285.1595 523.9283 274.8995 510.2583 274.8995C506.3483 274.8995 501.9483 276.3695 498.0483 277.8295L415.0383 312.4995V250.4895C415.0383 230.4695 403.3183 217.7695 385.2583 217.7695C366.6983 217.7695 354.9783 230.4695 354.9783 250.4895V337.3995L296.8783 362.3095C285.1583 367.1895 280.7583 374.0195 280.7583 385.2495C280.7583 398.9295 290.0383 408.6895 303.7083 408.6895C307.6183 408.6895 311.5283 407.7195 315.9183 405.7595L354.9783 389.1595V435.5495L296.8783 459.9595C285.1583 464.8395 280.7583 472.1695 280.7583 482.9095C280.7583 496.5795 290.0383 506.3495 303.7083 506.3495C307.6183 506.3495 311.5283 505.3695 315.9183 503.9095L354.9783 486.8195V642.0895C354.9783 664.5495 368.6483 680.6595 395.9983 680.6595Z"/>
</svg>