<?xml version="1.0" encoding="UTF-8" standalone="no"?>
<svg xmlns="http://www.w3.org/2000/svg"
     width="996.09375" height="996.09375"
     viewBox="0 0 996.09375 996.09375"
     fill="currentColor">
  <path d="M498.0477 996.0959C770.5077 996.0959 996.0977 770.0159 996.0977 498.0459C996.0977 225.5859 770.0177 -0.0041 497.5577 -0.0041C225.5877 -0.0041 -0.0023 225.5859 -0.0023 498.0459C-0.0023 770.0159 226.0777 996.0959 498.0477 996.0959ZM442.8677 737.3059C414.0577 737.3059 399.8977 720.2159 399.8977 697.2659V537.5959L359.8677 555.1759C355.4677 556.6359 351.5577 557.6159 347.1677 557.6159C333.0077 557.6159 323.2377 547.3659 323.2377 533.2059C323.2377 521.9759 328.1277 514.6459 340.3277 509.2759L399.8977 484.3759V436.5259L359.8677 453.6159C355.4677 455.5659 351.5577 456.5459 347.1677 456.5459C333.0077 456.5459 323.2377 446.7759 323.2377 432.6159C323.2377 420.8959 328.1277 413.5759 340.3277 408.6959L399.8977 382.8159V293.4559C399.8977 272.9459 412.1077 259.7659 431.6377 259.7659C450.1977 259.7659 462.3977 272.9459 462.3977 293.4559V357.4259L547.8477 321.7759C551.7577 319.8259 556.1477 318.3559 560.5477 318.3559C574.7077 318.3559 583.9877 329.1059 583.9877 343.2659C583.9877 354.4959 579.0977 361.3259 567.3877 367.1859L462.3977 410.6459V458.4959L547.8477 422.3659C551.7577 420.8959 556.1477 419.9259 560.5477 419.9259C574.7077 419.9259 583.9877 430.1759 583.9877 444.3359C583.9877 455.0759 579.0977 462.8859 567.3877 467.7759L462.3977 511.7159V672.3659C544.4377 672.3659 602.0477 605.4659 611.3277 531.7359C614.7477 508.2959 626.4677 499.0259 642.5777 499.0259C660.6477 499.0259 672.3677 512.2059 672.3677 532.7159C672.3677 623.5359 587.8877 737.3059 442.8677 737.3059Z"/>
</svg>