<?xml version="1.0" encoding="UTF-8" standalone="no"?>
<svg xmlns="http://www.w3.org/2000/svg"
     width="1387.20703125" height="1020.99609375"
     viewBox="0 0 1387.20703125 1020.99609375"
     fill="currentColor">
  <path d="M125.4883 810.0622H796.3883V731.4422H126.9483C93.2583 731.4422 78.6183 717.7722 78.6183 683.5922V126.4622C78.6183 91.7922 93.2583 78.6122 126.9483 78.6122H1092.7783C1125.9783 78.6122 1140.6283 91.7922 1140.6283 126.4622V273.9222H1219.2383V125.0022C1219.2383 39.5522 1177.7383 0.0022 1094.2383 0.0022H125.4883C41.9883 0.0022 -0.0017 39.5522 -0.0017 125.0022V684.5722C-0.0017 770.5122 41.9883 810.0622 125.4883 810.0622ZM966.3083 1020.9922H1283.6883C1352.0483 1020.9922 1387.2083 986.3322 1387.2083 916.5022V445.3122C1387.2083 375.4922 1352.0483 340.3322 1283.6883 340.3322H966.3083C896.4883 340.3322 862.7883 375.4922 862.7883 445.3122V916.5022C862.7883 986.3322 896.4883 1020.9922 966.3083 1020.9922ZM1124.9983 589.3522C1078.1283 589.3522 1040.5283 551.7622 1041.0183 504.3922C1041.5083 457.5222 1078.1283 420.9022 1124.9983 420.9022C1171.8783 420.9022 1208.9883 457.5222 1208.9883 504.3922C1208.9883 551.7622 1171.8783 589.3522 1124.9983 589.3522ZM1124.5083 546.3822C1147.4583 546.3822 1166.0183 527.8322 1166.0183 504.3922C1166.0183 480.9522 1147.4583 463.3822 1124.5083 463.3822C1102.0483 463.3822 1083.4983 481.9322 1083.4983 504.3922C1083.4983 527.8322 1101.5583 546.3822 1124.5083 546.3822ZM1124.5083 936.5222C1041.5083 936.5222 975.5883 869.6322 975.5883 786.6222C975.5883 703.1222 1041.5083 636.7222 1124.5083 636.2322C1207.0283 635.7422 1274.4183 703.1222 1274.4183 786.6222C1274.4183 869.6322 1207.0283 936.5222 1124.5083 936.5222ZM1124.5083 849.1222C1159.6683 849.1222 1187.9883 821.2922 1187.9883 786.6222C1187.9883 750.0022 1160.1583 722.6522 1124.5083 722.6522C1089.8483 722.6522 1062.0083 750.0022 1062.0083 786.6222C1062.0083 821.2922 1089.8483 849.1222 1124.5083 849.1222ZM337.3983 975.5822H803.7083C799.3183 958.9822 796.3883 940.4322 796.3883 896.4822H337.3983C315.4283 896.4822 297.8483 914.0622 297.8483 936.0322C297.8483 958.0122 315.4283 975.5822 337.3983 975.5822Z"/>
</svg>