<?xml version="1.0" encoding="UTF-8" standalone="no"?>
<svg xmlns="http://www.w3.org/2000/svg"
     width="1220.703125" height="975.5859375"
     viewBox="0 0 1220.703125 975.5859375"
     fill="currentColor">
  <path d="M125.4883 810.0622H1095.2183C1178.7083 810.0622 1220.6983 770.5122 1220.6983 684.5722V125.0022C1220.6983 39.5522 1178.7083 0.0022 1095.2183 0.0022H125.4883C41.9883 0.0022 -0.0017 39.5522 -0.0017 125.0022V684.5722C-0.0017 770.5122 41.9883 810.0622 125.4883 810.0622ZM364.7483 975.5822H855.9583C877.4383 975.5822 895.5083 958.0122 895.5083 936.0322C895.5083 914.0622 877.4383 896.4822 855.9583 896.4822H364.7483C343.2583 896.4822 325.1983 914.0622 325.1983 936.0322C325.1983 958.0122 343.2583 975.5822 364.7483 975.5822Z"/>
</svg>