<?xml version="1.0" encoding="UTF-8" standalone="no"?>
<svg xmlns="http://www.w3.org/2000/svg"
     width="996.09375" height="996.09375"
     viewBox="0 0 996.09375 996.09375"
     fill="currentColor">
  <path d="M498.0477 996.0959C770.5077 996.0959 996.0977 770.0159 996.0977 498.0459C996.0977 225.5859 770.0177 -0.0041 497.5577 -0.0041C225.5877 -0.0041 -0.0023 225.5859 -0.0023 498.0459C-0.0023 770.0159 226.0777 996.0959 498.0477 996.0959ZM498.0477 734.3759C379.8877 734.3759 300.7777 666.5059 300.7777 560.5459V303.2259C300.7777 274.9059 315.4277 257.8159 340.3277 257.8159C366.6977 257.8159 381.3477 274.9059 381.3477 303.2259V552.7359C381.3477 623.5359 427.7377 667.4759 498.0477 667.4759C568.3577 667.4759 614.2577 623.5359 614.2577 552.7359V303.2259C614.2577 274.9059 629.3977 257.8159 654.2977 257.8159C680.6677 257.8159 695.3077 274.9059 695.3077 303.2259V560.5459C695.3077 666.5059 616.2077 734.3759 498.0477 734.3759Z"/>
</svg>