<?xml version="1.0" encoding="UTF-8" standalone="no"?>
<svg xmlns="http://www.w3.org/2000/svg"
     width="973.6328125" height="1128.90625"
     viewBox="0 0 973.6328125 1128.90625"
     fill="currentColor">
  <path d="M40.5283 619.6275C54.6883 619.6275 68.3583 610.3475 79.0983 594.2375C111.8183 544.9175 145.9983 524.4175 192.3783 524.4175C237.7883 524.4175 268.5583 544.9175 296.3883 593.7475C307.1283 611.8175 317.3783 619.6275 331.0583 619.6275C345.2183 619.6275 355.9583 611.8175 365.7183 593.7475C384.2783 562.0075 413.5783 539.0575 446.2883 528.3175V973.1475C446.2883 1015.6275 415.5283 1046.3875 372.0683 1046.3875C329.5883 1046.3875 299.3183 1015.6275 299.3183 973.1475C299.3183 944.8275 282.2283 925.7775 257.3283 925.7775C232.9083 925.7775 216.7983 944.8275 216.7983 973.1475C216.7983 1062.0075 284.1783 1128.9075 372.0683 1128.9075C460.4483 1128.9075 527.3483 1062.0075 527.3483 973.1475V528.3175C559.5683 539.0575 589.3583 562.0075 607.9083 593.7475C617.6783 611.8175 627.9283 619.6275 642.5783 619.6275C656.2483 619.6275 666.5083 611.8175 676.7583 593.7475C705.0783 544.9175 735.8383 524.4175 781.2483 524.4175C827.6383 524.4175 861.8183 544.9175 894.0383 594.2375C904.7883 610.3475 918.4583 619.6275 933.1083 619.6275C957.5183 619.6275 973.6283 599.6075 973.6283 573.2375C973.6283 387.6975 833.0083 129.8875 527.3483 108.8875V41.0175C527.3483 18.5575 509.2783 -0.0025 486.8183 -0.0025C464.3583 -0.0025 446.2883 18.5575 446.2883 41.0175V108.8875C140.6283 129.8875 -0.0017 387.6975 -0.0017 573.2375C-0.0017 599.6075 16.1183 619.6275 40.5283 619.6275ZM486.8183 445.3075C427.7383 445.3075 371.0983 471.6775 335.4483 515.1375C333.0083 518.5575 331.0583 518.5575 328.6183 515.1375C296.3883 470.7075 250.9783 448.2375 192.3783 448.2375C154.2983 448.2375 120.1183 457.5175 89.3583 477.0475C133.2983 311.0375 286.6183 183.5975 486.8183 183.5975C686.5283 183.5975 840.3283 311.0375 884.2783 477.0475C853.5183 457.5175 819.3383 448.2375 781.2483 448.2375C722.6583 448.2375 677.2483 470.7075 644.5283 515.1375C642.5783 518.5575 640.6283 518.0675 638.1883 515.1375C602.5383 471.6775 545.4083 445.3075 486.8183 445.3075Z"/>
</svg>