<?xml version="1.0" encoding="UTF-8" standalone="no"?>
<svg xmlns="http://www.w3.org/2000/svg"
     width="568.84765625" height="873.53515625"
     viewBox="0 0 568.84765625 873.53515625"
     fill="currentColor">
  <path d="M284.1783 723.6355C459.9583 723.6355 568.8483 618.1655 568.8483 464.8455V45.4055C568.8483 18.0655 550.7783 -0.0045 522.9483 -0.0045C495.6083 -0.0045 478.5183 18.0655 478.5183 45.4055V457.5155C478.5183 566.4055 406.7383 640.6255 284.1783 640.6255C162.1083 640.6255 90.3283 566.4055 90.3283 457.5155V45.4055C90.3283 18.0655 72.2683 -0.0045 44.4383 -0.0045C17.0883 -0.0045 -0.0017 18.0655 -0.0017 45.4055V464.8455C-0.0017 618.1655 108.3983 723.6355 284.1783 723.6355ZM28.8083 873.5355H539.5483C555.6683 873.5355 568.8483 861.3255 568.8483 844.7255C568.8483 828.1255 555.6683 815.4255 539.5483 815.4255H28.8083C13.1883 815.4255 -0.0017 828.1255 -0.0017 844.7255C-0.0017 861.3255 13.1883 873.5355 28.8083 873.5355Z"/>
</svg>