<?xml version="1.0" encoding="UTF-8" standalone="no"?>
<svg xmlns="http://www.w3.org/2000/svg"
     width="996.09375" height="996.09375"
     viewBox="0 0 996.09375 996.09375"
     fill="currentColor">
  <path d="M498.0477 996.0959C770.5077 996.0959 996.0977 770.0159 996.0977 498.0459C996.0977 225.5859 770.0177 -0.0041 497.5577 -0.0041C225.5877 -0.0041 -0.0023 225.5859 -0.0023 498.0459C-0.0023 770.0159 226.0777 996.0959 498.0477 996.0959ZM498.5377 733.8859C467.7777 733.8859 451.6577 720.7059 438.4777 686.5259L296.8777 317.8759C294.4377 310.0559 292.9677 304.1959 292.9677 296.8759C292.9677 274.4159 310.0577 258.2959 333.9877 258.2959C356.4477 258.2959 368.6477 269.0459 376.9577 292.9659L496.0977 637.2059H499.5077L618.6477 292.9659C627.4377 269.0459 639.1577 258.2959 661.6177 258.2959C685.5477 258.2959 702.6377 273.9259 702.6377 296.8759C702.6377 304.1959 701.6577 310.0559 698.7277 317.8759L558.1077 685.5459C545.4077 718.7459 527.3477 733.8859 498.5377 733.8859Z"/>
</svg>