<?xml version="1.0" encoding="UTF-8" standalone="no"?>
<svg xmlns="http://www.w3.org/2000/svg"
     width="898.92578125" height="898.92578125"
     viewBox="0 0 898.92578125 898.92578125"
     fill="currentColor">
  <path d="M153.3183 898.9295H745.6083C848.1483 898.9295 898.9283 848.1495 898.9283 747.5595V151.3695C898.9283 50.7795 848.1483 -0.0005 745.6083 -0.0005H153.3183C51.2683 -0.0005 -0.0017 50.2895 -0.0017 151.3695V747.5595C-0.0017 848.6295 51.2683 898.9295 153.3183 898.9295ZM450.1983 684.5695C419.4383 684.5695 403.3183 671.3895 390.1383 637.2095L248.5383 268.5595C246.0983 260.7395 244.6283 254.8795 244.6283 247.5595C244.6283 225.0995 262.2083 208.9795 285.6483 208.9795C308.1083 208.9795 320.3083 219.7295 328.6183 243.6495L447.7583 587.8895H451.1683L570.7983 243.6495C579.0983 219.7295 591.3083 208.9795 613.7683 208.9795C637.2083 208.9795 654.2983 224.6095 654.2983 247.5595C654.2983 254.8795 653.3183 260.7395 650.8783 268.5595L509.7683 636.2295C497.0683 669.4295 479.0083 684.5695 450.1983 684.5695Z"/>
</svg>