<?xml version="1.0" encoding="UTF-8" standalone="no"?>
<svg xmlns="http://www.w3.org/2000/svg"
     width="898.92578125" height="898.92578125"
     viewBox="0 0 898.92578125 898.92578125"
     fill="currentColor">
  <path d="M153.3183 898.9295H745.6083C848.1483 898.9295 898.9283 848.1495 898.9283 747.5595V151.3695C898.9283 50.7795 848.1483 -0.0005 745.6083 -0.0005H153.3183C51.2683 -0.0005 -0.0017 50.2895 -0.0017 151.3695V747.5595C-0.0017 848.6295 51.2683 898.9295 153.3183 898.9295ZM154.2983 820.3095C105.4683 820.3095 78.6183 794.4295 78.6183 743.6495V155.2695C78.6183 104.4895 105.4683 78.6095 154.2983 78.6095H744.6283C792.9683 78.6095 820.3083 104.4895 820.3083 155.2695V743.6495C820.3083 794.4295 792.9683 820.3095 744.6283 820.3095ZM450.1983 677.2495C478.0283 677.2495 495.6083 662.5995 507.8083 630.8595L644.5283 273.9295C646.9683 266.1095 647.9483 260.7395 647.9483 253.4195C647.9483 231.4495 631.3483 216.3095 608.8883 216.3095C587.3983 216.3095 575.1983 226.5595 567.3783 249.5095L451.1683 583.9795H447.7583L332.0283 249.5095C324.2183 226.5595 312.0083 216.3095 290.5283 216.3095C268.0683 216.3095 250.9783 231.9295 250.9783 253.4195C250.9783 260.7395 252.4383 266.1095 254.8783 273.9295L392.0883 631.3495C404.7883 664.5495 420.4083 677.2495 450.1983 677.2495Z"/>
</svg>