<?xml version="1.0" encoding="UTF-8" standalone="no"?>
<svg xmlns="http://www.w3.org/2000/svg"
     width="1456.54296875" height="650.390625"
     viewBox="0 0 1456.54296875 650.390625"
     fill="currentColor">
  <path d="M387.6983 284.6644C387.6983 164.0644 447.2683 60.0544 539.0583 0.0044H150.8783C51.7583 0.0044 -0.0017 50.2944 -0.0017 148.9244V419.4344C-0.0017 502.4444 37.1083 551.2744 108.3983 564.4544V610.3544C108.3983 634.2744 124.5083 650.3944 148.4383 650.3944H321.7783C346.1883 650.3944 361.8183 634.2744 361.8183 610.3544V568.3544H537.5983C446.7783 507.8144 387.6983 404.2944 387.6983 284.6644ZM1305.1783 0.0044H916.9883C1008.2983 60.0544 1068.3583 164.0644 1068.3583 284.6644C1068.3583 404.2944 1009.2783 507.8144 917.9683 568.3544H1094.7283V610.3544C1094.7283 634.2744 1110.3483 650.3944 1134.7683 650.3944H1307.6183C1332.0283 650.3944 1348.1483 634.2744 1348.1483 610.3544V564.4544C1419.4383 551.7544 1456.5383 502.4444 1456.5383 419.4344V148.9244C1456.5383 50.2944 1405.2783 0.0044 1305.1783 0.0044ZM727.5383 567.8744C887.6983 567.8744 1011.2283 443.8444 1011.2283 284.6644C1011.2283 125.0044 887.6983 0.9744 727.5383 0.9744C568.3583 0.9744 444.8283 125.0044 444.8283 284.6644C444.8283 443.8444 568.3583 567.8744 727.5383 567.8744ZM727.5383 485.8444C615.2383 485.8444 526.3683 396.9744 526.3683 284.6644C526.3683 171.8744 615.2383 83.0044 727.5383 83.0044C840.8183 83.0044 929.1983 171.8744 929.1983 284.6644C929.1983 396.9744 840.8183 485.8444 727.5383 485.8444ZM727.5383 444.8244C817.3783 444.8244 888.1883 374.5144 888.1883 284.6644C888.1883 194.8244 817.3783 124.0244 727.5383 124.0244C637.6983 124.0244 567.3783 194.8244 567.3783 284.6644C567.3783 374.5144 637.6983 444.8244 727.5383 444.8244ZM1156.7383 185.5444C1156.7383 165.5244 1170.8983 150.8744 1190.9183 150.8744H1313.4783C1333.4983 150.8744 1348.1483 165.5244 1348.1483 185.5444C1348.1483 205.5644 1333.4983 219.7244 1313.4783 219.7244H1190.9183C1170.8983 219.7244 1156.7383 205.5644 1156.7383 185.5444ZM1156.7383 304.1944C1156.7383 284.1844 1170.8983 270.0244 1190.9183 270.0244H1313.4783C1333.4983 270.0244 1348.1483 284.1844 1348.1483 304.1944C1348.1483 324.2144 1333.4983 338.8644 1313.4783 338.8644H1190.9183C1170.8983 338.8644 1156.7383 324.2144 1156.7383 304.1944Z"/>
</svg>