<?xml version="1.0" encoding="UTF-8" standalone="no"?>
<svg xmlns="http://www.w3.org/2000/svg"
     width="898.92578125" height="898.92578125"
     viewBox="0 0 898.92578125 898.92578125"
     fill="currentColor">
  <path d="M153.3183 898.9295H745.6083C848.1483 898.9295 898.9283 848.1495 898.9283 747.5595V151.3695C898.9283 50.7795 848.1483 -0.0005 745.6083 -0.0005H153.3183C51.2683 -0.0005 -0.0017 50.2895 -0.0017 151.3695V747.5595C-0.0017 848.6295 51.2683 898.9295 153.3183 898.9295ZM154.2983 820.3095C105.4683 820.3095 78.6183 794.4295 78.6183 743.6495V155.2695C78.6183 104.4895 105.4683 78.6095 154.2983 78.6095H744.6283C792.9683 78.6095 820.3083 104.4895 820.3083 155.2695V743.6495C820.3083 794.4295 792.9683 820.3095 744.6283 820.3095ZM245.1183 645.9995H503.4183C552.2483 645.9995 581.0583 617.6795 581.0583 569.3395V329.0995C581.0583 280.7595 554.6883 252.9295 505.8583 252.9295H245.1183C198.7283 252.9295 167.4783 280.7595 167.4783 329.0995V569.3395C167.4783 617.6795 196.7783 645.9995 245.1183 645.9995ZM608.3983 516.1095L704.0983 596.6795C712.3983 603.9995 721.6783 608.8895 730.4683 608.8895C749.5083 608.8895 761.7183 595.2195 761.7183 574.7095V323.2395C761.7183 303.2195 749.5083 289.5495 730.4683 289.5495C721.6783 289.5495 711.9183 294.4295 704.0983 301.2695L608.3983 382.3195Z"/>
</svg>