<?xml version="1.0" encoding="UTF-8" standalone="no"?>
<svg xmlns="http://www.w3.org/2000/svg"
     width="641.6015625" height="1115.234375"
     viewBox="0 0 641.6015625 1115.234375"
     fill="currentColor">
  <path d="M320.7983 1115.2363C509.2783 1115.2363 641.5983 988.7663 641.5983 809.5663V305.6663C641.5983 125.9763 509.2783 -0.0037 320.7983 -0.0037C132.8083 -0.0037 -0.0017 125.9763 -0.0017 305.6663V809.5663C-0.0017 988.7663 132.8083 1115.2363 320.7983 1115.2363ZM320.7983 513.1863C216.3083 513.1863 133.7883 431.1563 133.7883 326.6563C133.7883 222.1663 216.3083 139.6463 320.7983 139.6463C425.2883 139.6463 507.3283 222.1663 507.3283 326.6563C507.3283 431.1563 425.2883 513.1863 320.7983 513.1863ZM320.7983 395.9963C359.3783 395.9963 389.1583 365.7263 389.1583 326.6563C389.1583 287.5963 359.3783 257.3262 320.7983 257.3262C282.2283 257.3262 251.9483 287.5963 251.9483 326.6563C251.9483 365.7263 282.2283 395.9963 320.7983 395.9963ZM320.7983 974.1163C216.3083 974.1163 133.7883 891.6063 133.7883 787.1063C133.7883 682.6163 216.3083 600.5863 320.7983 600.5863C425.2883 600.5863 507.3283 682.6163 507.3283 787.1063C507.3283 891.6063 425.2883 974.1163 320.7983 974.1163ZM320.7983 907.7163C388.6683 907.7163 440.9183 855.4663 440.9183 787.1063C440.9183 718.7463 388.6683 666.5063 320.7983 666.5063C252.4383 666.5063 200.1983 718.7463 200.1983 787.1063C200.1983 855.4663 252.4383 907.7163 320.7983 907.7163Z"/>
</svg>