<?xml version="1.0" encoding="UTF-8" standalone="no"?>
<svg xmlns="http://www.w3.org/2000/svg"
     width="641.6015625" height="1115.234375"
     viewBox="0 0 641.6015625 1115.234375"
     fill="currentColor">
  <path d="M320.7983 1115.2363C509.2783 1115.2363 641.5983 988.7663 641.5983 809.5663V305.6663C641.5983 125.9763 509.2783 -0.0037 320.7983 -0.0037C132.8083 -0.0037 -0.0017 125.9763 -0.0017 305.6663V809.5663C-0.0017 988.7663 132.8083 1115.2363 320.7983 1115.2363ZM320.3083 1036.6163C178.2183 1036.6163 78.1283 942.8663 78.1283 809.5663V305.6663C78.1283 172.3663 178.2183 78.6163 320.3083 78.6163C463.3783 78.6163 563.4783 172.3663 563.4783 305.6663V809.5663C563.4783 942.8663 463.3783 1036.6163 320.3083 1036.6163ZM320.7983 514.6463C421.8783 514.6463 501.4683 435.0563 501.4683 333.9863C501.4683 232.4263 421.8783 152.8362 320.7983 152.8362C219.7283 152.8362 139.6483 232.4263 139.6483 333.9863C139.6483 435.0563 219.7283 514.6463 320.7983 514.6463ZM320.7983 400.8763C283.1983 400.8763 253.9083 371.5862 253.9083 333.9863C253.9083 295.8963 283.1983 266.6063 320.7983 266.6063C358.3983 266.6063 387.2083 295.8963 387.2083 333.9863C387.2083 371.5862 358.3983 400.8763 320.7983 400.8763ZM320.7983 960.9363C421.8783 960.9363 501.4683 881.3463 501.4683 779.7863C501.4683 678.7063 421.8783 599.1163 320.7983 599.1163C219.7283 599.1163 139.6483 678.7063 139.6483 779.7863C139.6483 881.3463 219.7283 960.9363 320.7983 960.9363ZM320.7983 896.9763C254.3983 896.9763 203.6183 846.1963 203.6183 779.7863C203.6183 713.3763 254.3983 663.0863 320.7983 663.0863C386.7183 663.0863 437.4983 713.3763 437.4983 779.7863C437.4983 846.1963 386.7183 896.9763 320.7983 896.9763Z"/>
</svg>