<?xml version="1.0" encoding="UTF-8" standalone="no"?>
<svg xmlns="http://www.w3.org/2000/svg"
     width="1423.33984375" height="958.984375"
     viewBox="0 0 1423.33984375 958.984375"
     fill="currentColor">
  <path d="M591.7928 802.7363H916.0128C1035.1528 802.7363 1106.4428 733.3963 1106.4428 614.2563V547.3663L1291.0128 703.6163C1310.5428 719.7263 1332.0328 730.9563 1352.0528 730.9563C1395.0228 730.9563 1423.3428 699.2162 1423.3428 653.8063V148.9262C1423.3428 103.5163 1395.0228 71.7763 1352.0528 71.7763C1332.0328 71.7763 1310.5428 83.0063 1291.0128 99.1163L1106.4428 255.3663V187.9863C1106.4428 69.3362 1035.1528 -0.0037 916.0128 -0.0037H405.7628C291.9928 -0.0037 215.3328 69.3362 215.3328 187.9863V426.7563C228.0228 421.3863 241.7028 418.4563 256.3428 418.4563C269.5328 418.4563 282.2228 420.8963 293.9428 425.2963V199.7062C293.9428 114.7463 339.3528 73.2463 419.4328 73.2463H902.3428C981.9328 73.2463 1027.8328 114.7463 1027.8328 199.7062V603.0263C1027.8328 687.4963 981.9328 729.0063 902.3428 729.0063H591.7928ZM1106.4428 454.5863V348.1463L1327.6328 165.5263C1332.0328 162.1063 1334.9628 159.6663 1339.3528 159.6663C1345.2128 159.6663 1347.6528 164.5462 1347.6528 171.3863V631.3463C1347.6528 638.1863 1345.2128 642.5763 1339.3528 642.5763C1334.9628 642.5763 1332.0328 640.1363 1327.6328 637.2063ZM256.3428 958.9863C271.4828 958.9863 283.6928 946.7763 283.6928 931.6363V525.3863C283.6928 509.7663 271.4828 497.5563 256.3428 497.5563C240.7228 497.5563 229.0028 509.7663 229.0028 525.3863V931.6363C229.0028 947.2663 240.2328 958.9863 256.3428 958.9863ZM370.1128 910.1563C386.2328 910.1563 398.4328 897.9463 398.4328 882.8163V573.2463C398.4328 558.1063 386.2328 545.8963 370.1128 545.8963C355.4728 545.8963 343.2628 558.1063 343.2628 573.2463V882.8163C343.2628 897.9463 355.4728 910.1563 370.1128 910.1563ZM141.6028 874.5163C157.2228 874.5163 169.4328 862.3063 169.4328 846.6763V609.3763C169.4328 593.7463 157.2228 581.5463 141.6028 581.5463C126.4628 581.5463 114.2628 593.7463 114.2628 609.3763V846.6763C114.2628 862.3063 126.4628 874.5163 141.6028 874.5163ZM485.3528 817.8663C500.9728 817.8663 512.6928 806.6363 512.6928 790.5263V665.0363C512.6928 649.9063 500.9728 637.6963 485.3528 637.6963C469.7228 637.6963 458.0128 650.3863 458.0128 665.0363V790.5263C458.0128 806.1563 469.7228 817.8663 485.3528 817.8663ZM26.8528 792.4763C42.9728 792.4763 54.6828 780.2763 54.6828 765.1363V690.9163C54.6828 675.7763 42.9728 663.5763 26.8528 663.5763C11.7228 663.5763 0.0028 675.7763 0.0028 690.9163V765.1363C0.0028 780.2763 11.7228 792.4763 26.8528 792.4763Z"/>
</svg>