<?xml version="1.0" encoding="UTF-8" standalone="no"?>
<svg xmlns="http://www.w3.org/2000/svg"
     width="1418.9453125" height="954.1015625"
     viewBox="0 0 1418.9453125 954.1015625"
     fill="currentColor">
  <path d="M906.2528 0.0034H376.9528C283.2028 0.0034 220.2128 56.6434 220.2128 154.7834V419.9234C231.4428 416.0134 243.6528 413.5734 256.3428 413.5734C294.9228 413.5734 328.6128 435.0634 345.2128 465.8234C353.5128 463.3834 361.3328 461.9134 370.1128 461.9134C422.3628 461.9134 464.8428 498.5334 474.6128 546.8734C475.0928 549.8034 475.0928 552.7334 475.5828 556.1534C478.5128 554.6834 481.4428 553.7134 484.8628 553.7134C544.4328 553.7134 591.7928 601.5634 591.7928 660.1534V792.9734H901.3628C999.5128 792.9734 1058.1028 736.3234 1058.1028 638.6734V154.7834C1058.1028 56.6434 1004.3928 0.0034 906.2528 0.0034ZM1124.5128 540.5234L1302.2428 694.3334C1318.8428 708.9834 1338.3828 718.2634 1355.9528 718.2634C1394.0428 718.2634 1418.9428 690.4334 1418.9428 650.3934V142.5734C1418.9428 102.5434 1394.0428 74.7034 1355.9528 74.7034C1338.3828 74.7034 1318.8428 83.9834 1302.2428 98.6334L1124.5128 251.9534ZM256.3428 954.1034C271.4828 954.1034 283.6928 941.8934 283.6928 926.7534V520.5034C283.6928 504.8834 271.4828 492.6734 256.3428 492.6734C240.7228 492.6734 229.0028 504.8834 229.0028 520.5034V926.7534C229.0028 942.3834 240.2328 954.1034 256.3428 954.1034ZM370.1128 905.2734C386.2328 905.2734 398.4328 893.0634 398.4328 877.9334V568.3634C398.4328 553.2234 386.2328 541.0134 370.1128 541.0134C355.4728 541.0134 343.2628 553.2234 343.2628 568.3634V877.9334C343.2628 893.0634 355.4728 905.2734 370.1128 905.2734ZM141.6028 869.6334C157.2228 869.6334 169.4328 857.4234 169.4328 841.7934V604.4934C169.4328 588.8634 157.2228 576.6634 141.6028 576.6634C126.4628 576.6634 114.2628 588.8634 114.2628 604.4934V841.7934C114.2628 857.4234 126.4628 869.6334 141.6028 869.6334ZM485.3528 812.9834C500.9728 812.9834 512.6928 801.7534 512.6928 785.6434V660.1534C512.6928 645.0234 500.9728 632.8134 485.3528 632.8134C469.7228 632.8134 458.0128 645.5034 458.0128 660.1534V785.6434C458.0128 801.2734 469.7228 812.9834 485.3528 812.9834ZM26.8528 787.5934C42.9728 787.5934 54.6828 775.3934 54.6828 760.2534V686.0334C54.6828 670.8934 42.9728 658.6934 26.8528 658.6934C11.7228 658.6934 0.0028 670.8934 0.0028 686.0334V760.2534C0.0028 775.3934 11.7228 787.5934 26.8528 787.5934Z"/>
</svg>