<?xml version="1.0" encoding="UTF-8" standalone="no"?>
<svg xmlns="http://www.w3.org/2000/svg"
     width="898.92578125" height="898.92578125"
     viewBox="0 0 898.92578125 898.92578125"
     fill="currentColor">
  <path d="M153.3183 898.9295H745.6083C848.1483 898.9295 898.9283 848.1495 898.9283 747.5595V151.3695C898.9283 50.7795 848.1483 -0.0005 745.6083 -0.0005H153.3183C51.2683 -0.0005 -0.0017 50.2895 -0.0017 151.3695V747.5595C-0.0017 848.6295 51.2683 898.9295 153.3183 898.9295ZM239.7483 651.8595C189.9383 651.8595 159.6683 622.5595 159.6683 572.7495V325.1995C159.6683 274.8995 191.8983 246.0895 239.7483 246.0895H508.2983C559.0783 246.0895 585.9383 274.8995 585.9383 325.1995V572.7495C585.9383 622.5595 556.1483 651.8595 505.8583 651.8595ZM614.2583 517.5795V380.3695L712.3983 295.8995C720.6983 289.5495 731.4483 284.6695 740.2383 284.6695C759.2783 284.6695 772.4583 298.3395 772.4583 318.8495V578.6095C772.4583 599.6095 759.2783 613.7695 740.2383 613.7695C731.4483 613.7695 721.1883 608.8895 712.3983 601.5595Z"/>
</svg>