<?xml version="1.0" encoding="UTF-8" standalone="no"?>
<svg xmlns="http://www.w3.org/2000/svg"
     width="1276.7333984375" height="1039.2463558001918"
     viewBox="0 0 1276.7333984375 1039.2463558001918"
     fill="currentColor">
  <path d="M975.4609 1028.2569C990.1109 1042.9069 1014.5309 1042.9069 1028.6909 1028.2569C1042.8509 1013.1269 1043.3309 989.6869 1028.6909 975.0369L64.3309 11.1669C49.6809 -3.4831 25.2709 -3.9631 10.6209 11.1669C-3.5391 25.3269 -3.5391 50.2369 10.6209 64.3969ZM764.0409 121.0369H255.7409L910.5209 775.8169C913.9409 759.2169 915.8909 736.7569 915.8909 715.7569V275.3269C915.8909 177.6769 862.1809 121.0369 764.0409 121.0369ZM982.3009 661.5569L1160.0309 815.3669C1176.6309 830.0169 1196.1709 839.2969 1213.7409 839.2969C1251.8309 839.2969 1276.7309 811.4669 1276.7309 771.4269V263.6069C1276.7309 223.5769 1251.8309 195.7369 1213.7409 195.7369C1196.1709 195.7369 1176.6309 205.0169 1160.0309 219.6669L982.3009 372.9869ZM234.7409 914.0069H779.1709L87.2809 222.1069C81.9109 234.3169 78.4909 256.7769 78.4909 277.2869V758.2369C78.4909 856.3869 136.6009 914.0069 234.7409 914.0069Z"/>
</svg>