<?xml version="1.0" encoding="UTF-8" standalone="no"?>
<svg xmlns="http://www.w3.org/2000/svg"
     width="1161.62109375" height="722.16796875"
     viewBox="0 0 1161.62109375 722.16796875"
     fill="currentColor">
  <path d="M248.0483 722.1689C397.4583 722.1689 504.8783 634.7689 504.8783 515.6289C504.8783 418.9489 435.5483 355.4689 324.2183 348.1489V346.1889C416.9883 330.5689 474.6083 268.5589 474.6083 181.6389C474.6083 76.1689 378.9083 -0.0011 245.6083 -0.0011C145.0183 -0.0011 63.9683 43.9489 29.2983 116.6989C20.0183 134.7689 16.1183 151.3689 16.1183 170.4089C16.1183 193.3589 31.7383 208.4989 54.1983 208.4989C76.1683 208.4989 86.4283 200.1989 93.2583 177.2489C114.7483 113.2789 168.4583 76.6589 242.6783 76.6589C330.0783 76.6589 386.2283 122.5589 386.2283 193.3589C386.2283 266.1089 326.1683 314.4489 238.7683 314.4489H185.0583C162.1083 314.4489 146.4883 328.6089 146.4883 351.0789C146.4883 373.0489 162.1083 387.6989 185.0583 387.6989H239.7483C348.1483 387.6989 412.5983 433.5889 412.5983 515.1389C412.5983 590.3289 345.2183 643.5589 248.5383 643.5589C164.5483 643.5589 104.0083 605.9589 82.0283 541.4989C74.2183 520.5089 62.4983 511.2289 41.5083 511.2289C16.5983 511.2289 -0.0017 526.8589 -0.0017 552.2489C-0.0017 569.3389 4.3983 584.9589 13.6683 602.0489C54.1983 679.1989 139.1583 722.1689 248.0483 722.1689ZM644.0383 709.9589H837.3983C1033.6883 709.9589 1161.6183 569.8289 1161.6183 359.3789C1161.6183 150.3889 1033.6883 11.7189 837.3983 11.7189H644.0383C617.1883 11.7189 599.6083 29.2989 599.6083 56.6389V664.5489C599.6083 692.3789 617.1883 709.9589 644.0383 709.9589ZM688.4783 629.8789V90.8189H831.0583C977.0483 90.8189 1071.2883 198.2389 1071.2883 359.8589C1071.2883 521.9689 977.0483 629.8789 831.0583 629.8789Z"/>
</svg>