<?xml version="1.0" encoding="UTF-8" standalone="no"?>
<svg xmlns="http://www.w3.org/2000/svg"
     width="996.09375" height="996.09375"
     viewBox="0 0 996.09375 996.09375"
     fill="currentColor">
  <path d="M498.0477 996.0959C770.5077 996.0959 996.0977 770.0159 996.0977 498.0459C996.0977 225.5859 770.0177 -0.0041 497.5577 -0.0041C225.5877 -0.0041 -0.0023 225.5859 -0.0023 498.0459C-0.0023 770.0159 226.0777 996.0959 498.0477 996.0959ZM498.0477 913.0859C267.5777 913.0859 83.4977 728.5159 83.4977 498.0459C83.4977 267.5759 267.0877 83.0059 497.5577 83.0059C728.0277 83.0059 913.0877 267.5759 913.0877 498.0459C913.0877 728.5159 728.5177 913.0859 498.0477 913.0859ZM584.4777 368.1659C607.4177 326.1759 614.2577 288.0859 600.0977 256.8359C568.3577 243.6559 534.1777 235.8359 498.0477 235.8359C423.8277 235.8359 355.9577 268.0659 308.1077 318.3559C400.3877 283.6959 520.9977 319.3359 584.4777 368.1659ZM537.1077 640.6259C687.4977 522.4559 723.6377 393.5559 716.3077 354.4959C696.2877 324.2159 670.4077 298.8259 640.1377 279.2959C648.9277 354.4959 586.4277 445.7959 503.9077 520.5059C505.3677 560.5459 518.0677 604.4959 537.1077 640.6259ZM480.4677 493.1659C514.6477 461.9159 543.9477 430.1759 565.4277 398.9259C494.1377 343.2659 345.2177 307.1259 262.6977 382.8159C248.0477 412.1059 238.7677 444.8259 236.3277 478.5159C297.8477 437.4959 399.4177 459.9559 480.4677 493.1659ZM629.3977 724.6059C706.5477 678.7059 759.7677 593.7459 759.7677 498.0459C759.7677 467.7759 753.9077 438.4759 744.6277 411.6259C726.5577 480.9559 672.8477 581.0559 555.6677 671.3859C577.1477 701.6559 603.0277 722.1659 629.3977 724.6059ZM319.8277 490.7259C284.6677 490.2359 254.8877 498.5359 236.8177 521.4859C246.0977 627.4459 320.3077 716.3059 419.4377 747.5559C371.5777 691.4059 322.2677 594.7259 319.8277 490.7259ZM468.2577 527.3459C431.6377 511.2259 392.0877 499.0259 355.9577 494.1359C361.3277 630.8559 449.7077 745.6059 492.1877 760.2559C527.8277 760.2559 556.1477 754.8859 583.0077 745.6059C519.5277 707.5159 472.6577 606.9359 468.2577 527.3459Z"/>
</svg>