<?xml version="1.0" encoding="UTF-8" standalone="no"?>
<svg xmlns="http://www.w3.org/2000/svg"
     width="996.09375" height="996.09375"
     viewBox="0 0 996.09375 996.09375"
     fill="currentColor">
  <path d="M498.0477 -0.0041C226.0777 -0.0041 -0.0023 225.5859 -0.0023 498.0459C-0.0023 770.0159 226.5577 996.0959 498.5377 996.0959C770.9977 996.0959 996.0977 770.0159 996.0977 498.0459C996.0977 225.5859 770.5077 -0.0041 498.0477 -0.0041ZM498.0477 66.4059C567.8677 66.4059 634.2777 83.4959 693.3577 113.7659C720.2177 141.6059 702.6377 203.6159 652.3477 280.2759C541.5077 208.0059 360.3477 144.5359 195.7977 191.8959C273.9277 114.7459 381.3477 66.4059 498.0477 66.4059ZM507.3277 539.0659C645.0177 414.5459 753.9077 265.6259 765.6277 160.6459C804.6877 191.8959 838.3777 229.9759 864.7477 272.4559C877.9277 341.7959 832.0277 548.8259 555.6677 720.7059C531.7377 664.0659 515.6277 599.1259 507.3277 539.0659ZM465.8177 491.2059C316.4077 429.1959 165.5277 399.4159 68.8477 454.5859C74.7077 394.5359 93.7477 338.3759 122.0677 287.5959C282.2277 191.4059 485.8377 251.4659 615.7277 331.5459C576.1677 382.3259 524.8977 437.4959 465.8177 491.2059ZM929.6877 498.0459C929.6877 657.7159 840.3277 798.8259 708.9877 873.5359C659.1777 873.0459 616.6977 833.4959 583.4977 776.8559C790.0377 649.9059 882.3277 499.5159 915.0377 387.2059C924.8077 422.3659 929.6877 459.9559 929.6877 498.0459ZM67.3877 527.8359C91.7977 502.4459 127.9277 489.2559 172.3677 486.8159C179.6877 671.3859 258.2977 812.4959 339.3577 898.4359C189.4577 837.8859 79.5877 695.3159 67.3877 527.8359ZM444.3377 551.7559C462.8877 681.1559 521.9777 848.6359 622.5577 911.1359C583.0077 923.3359 541.5077 929.6859 498.5377 929.6859C495.6077 929.6859 492.6777 929.6859 489.7477 929.6859C411.1377 903.8059 250.4877 749.9959 236.8177 490.2359C297.8477 498.0459 368.6477 520.0159 444.3377 551.7559Z"/>
</svg>