<?xml version="1.0" encoding="UTF-8" standalone="no"?>
<svg xmlns="http://www.w3.org/2000/svg"
     width="996.09375" height="996.09375"
     viewBox="0 0 996.09375 996.09375"
     fill="currentColor">
  <path d="M498.0477 996.0959C770.5077 996.0959 996.0977 770.0159 996.0977 498.0459C996.0977 225.5859 770.0177 -0.0041 497.5577 -0.0041C225.5877 -0.0041 -0.0023 225.5859 -0.0023 498.0459C-0.0023 770.0159 226.0777 996.0959 498.0477 996.0959ZM586.9177 363.7659C521.4877 313.4759 397.4577 276.8559 302.2477 312.4959C351.5577 260.7459 421.3877 227.5359 498.0477 227.5359C535.1577 227.5359 570.3077 235.8359 603.0277 249.0259C617.6777 281.2459 610.8377 320.7959 586.9177 363.7659ZM538.5777 645.0159C518.5577 607.9059 505.3677 562.4959 503.9077 520.9959C589.3577 444.3359 653.8077 350.0959 644.5277 272.4559C675.7777 292.4759 702.6377 318.8459 723.1477 350.0959C730.9577 390.1359 693.3577 522.9459 538.5777 645.0159ZM479.9777 493.1659C396.4877 458.9859 291.5077 435.5459 228.0277 477.5359C230.4677 442.8759 240.2377 409.1759 255.3677 379.3959C340.3277 301.2659 494.1377 338.3759 567.3877 395.9959C545.4077 428.2259 515.1377 460.9359 479.9777 493.1659ZM633.2977 731.9359C606.4477 729.4959 579.5877 708.0059 557.6177 676.7559C678.2277 583.9859 733.8877 480.4659 752.4377 409.1759C762.2077 436.5259 768.0677 466.7959 768.0677 498.0459C768.0677 596.6759 712.8877 684.5659 633.2977 731.9359ZM314.4577 490.7259C316.8977 597.6559 367.1877 697.2659 416.5077 755.3759C314.4577 723.1459 238.2777 631.3459 228.5177 521.9759C247.0677 498.5359 277.8277 489.7459 314.4577 490.7259ZM467.2877 528.3159C471.6777 610.3559 520.0177 714.3559 585.4477 753.4159C557.6177 763.1859 528.8077 768.5559 492.1877 768.5559C448.2377 753.4159 356.9377 634.7659 351.5577 494.1359C388.6677 499.0259 429.6877 511.7159 467.2877 528.3159Z"/>
</svg>