<?xml version="1.0" encoding="UTF-8" standalone="no"?>
<svg xmlns="http://www.w3.org/2000/svg"
     width="996.09375" height="996.09375"
     viewBox="0 0 996.09375 996.09375"
     fill="currentColor">
  <path d="M498.0477 996.0959C770.5077 996.0959 996.0977 770.0159 996.0977 498.0459C996.0977 225.5859 770.0177 -0.0041 497.5577 -0.0041C225.5877 -0.0041 -0.0023 225.5859 -0.0023 498.0459C-0.0023 770.0159 226.0777 996.0959 498.0477 996.0959ZM362.3077 733.8859C336.4277 733.8859 318.8477 719.7259 312.4977 693.8459L212.8877 312.0159C211.4277 306.6359 210.9377 301.2659 210.9377 296.8759C210.9377 273.9259 226.0777 258.2959 249.5077 258.2959C273.4377 258.2959 284.1777 269.5359 290.5277 298.3359L365.7277 618.1659H369.1377L453.1277 292.4759C458.4977 270.0159 473.6377 259.2759 497.5577 259.2759C521.4877 259.2759 535.6477 270.0159 541.5077 292.4759L625.9777 618.1659H629.3977L704.5877 298.3359C710.9377 269.5359 722.1677 258.2959 746.0977 258.2959C769.0477 258.2959 784.6677 273.9259 784.6677 296.8759C784.6677 301.2659 784.1777 306.6359 782.2277 312.0159L682.6177 693.8459C676.2677 719.7259 658.6877 733.8859 631.8377 733.8859C605.4677 733.8859 586.9177 720.2159 581.0577 694.8259L499.0277 377.9259H495.6077L414.0577 694.8259C408.2077 720.2159 389.6477 733.8859 362.3077 733.8859Z"/>
</svg>