<?xml version="1.0" encoding="UTF-8" standalone="no"?>
<svg xmlns="http://www.w3.org/2000/svg"
     width="996.09375" height="996.09375"
     viewBox="0 0 996.09375 996.09375"
     fill="currentColor">
  <path d="M498.0477 996.0959C770.5077 996.0959 996.0977 770.0159 996.0977 498.0459C996.0977 225.5859 770.0177 -0.0041 497.5577 -0.0041C225.5877 -0.0041 -0.0023 225.5859 -0.0023 498.0459C-0.0023 770.0159 226.0777 996.0959 498.0477 996.0959ZM498.0477 913.0859C267.5777 913.0859 83.4977 728.5159 83.4977 498.0459C83.4977 267.5759 267.0877 83.0059 497.5577 83.0059C728.0277 83.0059 913.0877 267.5759 913.0877 498.0459C913.0877 728.5159 728.5177 913.0859 498.0477 913.0859ZM196.7777 498.0459C196.7777 662.5959 333.4977 799.3159 497.5577 799.3159C662.5977 799.3159 799.3177 662.5959 799.3177 498.0459C799.3177 333.0059 663.0877 196.7759 498.0477 196.7759C333.4977 196.7759 196.7777 333.0059 196.7777 498.0459ZM316.8977 354.9759C358.3977 301.2659 423.8277 266.6059 498.0477 266.6059C572.2677 266.6059 637.6977 301.2659 680.1777 354.9759ZM267.0877 498.0459C267.0877 470.7059 271.9777 443.8459 280.7577 419.4359H715.8177C724.6077 443.8459 729.4877 470.7059 729.4877 498.0459C729.0077 626.9559 625.9777 729.4959 497.5577 729.4959C369.1377 729.4959 267.0877 626.9559 267.0877 498.0459Z"/>
</svg>