<?xml version="1.0" encoding="UTF-8" standalone="no"?>
<svg xmlns="http://www.w3.org/2000/svg"
     width="996.09375" height="996.09375"
     viewBox="0 0 996.09375 996.09375"
     fill="currentColor">
  <path d="M498.0477 996.0977C770.5077 996.0977 996.0977 770.5077 996.0977 498.0477C996.0977 226.0777 770.0177 -0.0023 497.5577 -0.0023C225.5877 -0.0023 -0.0023 226.0777 -0.0023 498.0477C-0.0023 770.5077 226.0777 996.0977 498.0477 996.0977ZM187.4977 498.0477C187.4977 328.1277 328.6177 187.0077 498.5377 187.0077C668.9477 187.0077 809.5677 328.1277 809.5677 498.0477C809.5677 668.4577 668.4577 809.0777 498.0477 809.0777C328.6177 809.0777 187.4977 668.4577 187.4977 498.0477ZM312.0077 350.5877H686.0377C642.5777 295.4077 574.7077 259.7677 498.5377 259.7677C422.3677 259.7677 354.9777 295.4077 312.0077 350.5877ZM260.7377 498.0477C260.7377 630.8577 365.7277 736.3277 498.0477 736.3277C630.3677 736.3277 736.3277 630.8577 736.8177 498.0477C736.8177 469.7277 731.9377 442.8677 722.6577 417.4777H274.8977C265.6277 442.8677 260.7377 469.7277 260.7377 498.0477Z"/>
</svg>