<?xml version="1.0" encoding="UTF-8" standalone="no"?>
<svg xmlns="http://www.w3.org/2000/svg"
     width="821.2890625" height="1046.875"
     viewBox="0 0 821.2890625 1046.875"
     fill="currentColor">
  <path d="M151.3683 1046.8766H669.9183C770.5083 1046.8766 821.2883 995.6066 821.2883 894.0466V153.3166C821.2883 51.2666 770.9983 -0.0034 669.9183 -0.0034H545.8983C529.2983 -0.0034 518.0683 11.7166 518.0683 29.2966V36.1366C518.0683 99.6066 475.0983 137.6966 410.6483 137.6966C346.1883 137.6966 303.2183 99.6066 303.2183 36.1366V29.2966C303.2183 11.7166 291.9883 -0.0034 275.3883 -0.0034H151.3683C50.2883 -0.0034 -0.0017 51.2666 -0.0017 153.3166V894.0466C-0.0017 995.6066 50.7783 1046.8766 151.3683 1046.8766ZM225.5883 363.7666C208.0083 363.7666 195.3083 350.5866 195.3083 333.0066C195.3083 316.4066 208.0083 303.2266 225.5883 303.2266H596.1883C613.2783 303.2266 625.9783 316.4066 625.9783 333.0066C625.9783 350.5866 613.2783 363.7666 596.1883 363.7666ZM225.5883 537.1066C208.0083 537.1066 195.3083 523.9266 195.3083 507.3266C195.3083 490.2366 208.0083 477.0466 225.5883 477.0466H400.8783C418.4583 477.0466 431.1483 490.2366 431.1483 507.3266C431.1483 523.9266 418.4583 537.1066 400.8783 537.1066Z"/>
</svg>