<?xml version="1.0" encoding="UTF-8" standalone="no"?>
<svg xmlns="http://www.w3.org/2000/svg"
     width="1062.8662109375" height="978.6376953125"
     viewBox="0 0 1062.8662109375 978.6376953125"
     fill="currentColor">
  <path d="M406.2477 232.9134C412.1077 232.9134 415.0377 229.4934 416.0177 224.1234C432.6177 145.9934 431.6377 143.0634 513.6677 126.4634C519.0477 125.4834 522.9477 122.0734 522.9477 116.7034C522.9477 110.8434 519.0477 107.4234 513.6677 106.4434C431.6377 89.8434 432.6177 86.9134 416.0177 9.2734C415.0377 3.9034 412.1077 0.0034 406.2477 0.0034C400.3877 0.0034 397.4577 3.9034 396.4877 9.2734C379.8877 86.9134 380.8577 89.8434 298.8277 106.4434C293.4577 107.4234 289.5477 110.8434 289.5477 116.7034C289.5477 122.0734 293.4577 125.4834 298.8277 126.4634C380.8577 143.0634 379.8877 145.9934 396.4877 224.1234C397.4577 229.4934 400.3877 232.9134 406.2477 232.9134ZM809.5677 405.2734C816.4077 405.2734 820.3077 400.8834 821.7777 394.5334C838.3777 301.7534 838.8677 295.8934 937.0077 278.8134C943.8477 277.8334 948.2377 273.4334 948.2377 266.6034C948.2377 259.7634 943.8477 255.8634 937.0077 254.3934C838.8677 237.7934 838.3777 231.9334 821.7777 139.1634C820.3077 132.8134 816.4077 127.9334 809.5677 127.9334C802.7377 127.9334 798.8277 132.8134 797.3677 139.1634C780.7577 231.9334 780.2777 237.7934 682.1277 254.3934C675.7777 255.8634 670.8977 259.7634 670.8977 266.6034C670.8977 273.4334 675.7777 277.8334 682.1277 278.8134C780.2777 295.8934 780.7577 301.7534 797.3677 394.5334C798.8277 400.8834 802.7377 405.2734 809.5677 405.2734ZM138.6677 545.4134C145.5077 545.4134 149.4177 540.5234 150.8777 534.1834C167.4777 441.4034 167.9677 435.5434 266.1177 418.9434C272.4577 417.4834 277.3477 413.5734 277.3477 406.7334C277.3477 399.9034 272.4577 395.5034 266.1177 394.5334C167.9677 377.4434 167.4777 371.5834 150.8777 278.8134C149.4177 272.4634 145.5077 268.0634 138.6677 268.0634C131.8377 268.0634 127.9277 272.4634 126.4677 278.8134C109.8677 371.5834 109.3777 377.4434 11.2277 394.5334C4.8877 395.5034 -0.0023 399.9034 -0.0023 406.7334C-0.0023 413.5734 4.8877 417.4834 11.2277 418.9434C109.3777 435.5434 109.8677 441.4034 126.4677 534.1834C127.9277 540.5234 131.8377 545.4134 138.6677 545.4134ZM972.6577 962.8934C993.1677 983.8834 1028.3177 983.8834 1047.8477 962.8934C1067.8677 941.4034 1067.8677 908.2034 1047.8477 887.6934L583.4977 421.8734C562.9877 401.3634 527.8277 401.3634 508.2977 421.8734C487.7977 443.3634 488.2777 477.0534 508.2977 497.5634ZM688.4777 627.4434L545.4077 483.8834C536.6177 475.0934 533.6877 465.3334 542.4777 457.0334C549.8077 449.2234 560.0577 451.1734 569.3377 460.4534L712.8877 604.0034ZM370.6077 970.7034C379.3977 970.7034 385.7377 964.3534 387.2077 955.0734C402.8277 824.7034 409.1777 821.2934 541.9877 799.8034C552.2477 797.8534 558.5977 792.9734 558.5977 783.2034C558.5977 773.9234 552.2477 768.0634 543.9477 766.6034C410.1577 741.2134 402.8277 741.7034 387.2077 611.3234C385.7377 602.0534 379.3977 595.7034 370.6077 595.7034C361.3277 595.7034 354.9777 602.0534 354.0077 610.8434C336.9177 743.1634 332.5177 747.5634 197.2677 766.6034C188.9677 767.5734 182.6177 773.9234 182.6177 783.2034C182.6177 792.4834 188.9677 797.8534 197.2677 799.8034C332.5177 825.6834 336.4277 825.6834 354.0077 956.0534C354.9777 964.3534 361.3277 970.7034 370.6077 970.7034Z"/>
</svg>