<?xml version="1.0" encoding="UTF-8" standalone="no"?>
<svg xmlns="http://www.w3.org/2000/svg"
     width="1040.52734375" height="1040.52734375"
     viewBox="0 0 1040.52734375 1040.52734375"
     fill="currentColor">
  <path d="M562.9877 42.4817C562.9877 19.5317 543.4577 0.0017 520.0177 0.0017C497.0677 0.0017 477.5377 19.5317 477.5377 42.4817V192.8717C477.5377 216.3117 497.0677 235.8417 520.0177 235.8417C543.4577 235.8417 562.9877 216.3117 562.9877 192.8717ZM720.2177 260.2517C703.6177 276.3717 703.6177 303.7117 720.2177 320.3117C736.3277 336.4217 764.1577 336.4217 780.7577 320.3117L886.7177 213.8717C903.3177 197.2617 903.3177 169.9217 886.7177 153.3217C870.6077 137.2117 843.2577 137.2117 827.1477 153.3217ZM259.7677 320.3117C275.8777 336.4217 303.2277 336.4217 319.8277 320.3117C335.9377 303.7117 335.9377 276.3717 319.8277 260.2517L213.8677 153.8117C197.7577 137.6917 170.4077 137.2117 153.8077 153.3217C137.6977 169.4317 137.6977 196.7817 153.8077 213.3817ZM915.0377 994.6317C935.5477 1015.6217 970.7077 1015.6217 990.2377 994.6317C1010.7377 973.1417 1010.2577 939.9417 990.2377 919.4317L526.3677 453.6117C505.8577 433.1017 470.2177 433.1017 450.6877 453.6117C430.6677 475.1017 431.1477 508.7917 450.6877 529.3017ZM42.4777 477.5417C19.5277 477.5417 -0.0023 497.0717 -0.0023 520.0217C-0.0023 542.9717 19.5277 562.5017 42.4777 562.5017H193.8477C216.7977 562.5017 236.3277 542.9717 236.3277 520.0217C236.3277 497.0717 216.7977 477.5417 193.8477 477.5417ZM997.5577 562.5017C1020.9977 562.5017 1040.5277 542.9717 1040.5277 520.0217C1040.5277 497.0717 1020.9977 477.5417 997.5577 477.5417H847.1677C824.2177 477.5417 804.6877 497.0717 804.6877 520.0217C804.6877 542.9717 824.2177 562.5017 847.1677 562.5017ZM932.6177 960.9417L631.3477 659.1817L655.2777 635.7417L956.5477 937.5017C965.3277 945.8017 967.2877 955.5617 959.4777 964.3517C951.1677 971.6817 941.4077 970.2117 932.6177 960.9417ZM153.3177 826.1717C137.2077 842.2817 137.2077 870.1217 152.8277 886.2317C168.9477 902.3417 196.7777 902.8317 213.3777 886.7217L319.8277 780.2717C335.9377 764.1617 335.9377 736.8117 319.8277 720.7017C304.1977 704.1017 275.8777 704.1017 259.7677 720.7017ZM562.9877 847.6517C562.9877 824.2217 543.4577 804.6917 520.0177 804.6917C497.0677 804.6917 477.5377 824.2217 477.5377 847.6517V998.0517C477.5377 1020.9917 497.0677 1040.5317 520.0177 1040.5317C543.4577 1040.5317 562.9877 1020.9917 562.9877 998.0517Z"/>
</svg>