<?xml version="1.0" encoding="UTF-8" standalone="no"?>
<svg xmlns="http://www.w3.org/2000/svg"
     width="956.7259210225577" height="1026.3671875"
     viewBox="0 0 956.7259210225577 1026.3671875"
     fill="currentColor">
  <path d="M734.3783 -0.0045H113.2783C45.4083 -0.0045 -0.0017 46.8755 -0.0017 116.6955V246.5855H847.1683V116.6955C847.1683 46.8755 801.7583 -0.0045 734.3783 -0.0045ZM176.7583 190.9155C152.3483 190.9155 132.3283 170.4055 132.3283 146.4855C132.3283 121.5855 152.3483 101.5655 176.7583 101.5655C201.1683 101.5655 220.6983 121.5855 220.6983 146.4855C220.6983 170.4055 201.1683 190.9155 176.7583 190.9155ZM305.1783 190.9155C280.7583 190.9155 261.2283 170.4055 261.2283 146.4855C261.2283 121.5855 280.7583 101.5655 305.1783 101.5655C329.5883 101.5655 349.1183 121.5855 349.1183 146.4855C349.1183 170.4055 329.5883 190.9155 305.1783 190.9155ZM578.1283 171.8755C562.9883 171.8755 553.2183 161.6255 553.2183 146.4855C553.2183 130.8555 562.9883 120.6055 578.1283 120.6055H698.2383C713.8683 120.6055 723.6283 130.8555 723.6283 146.4855C723.6283 161.6255 713.8683 171.8755 698.2383 171.8755ZM113.2783 1025.3955H486.3283C482.9083 1019.5355 479.4883 1013.1855 477.0483 1006.3455L442.8683 914.5555C437.0083 915.0355 430.1783 915.0355 423.8283 915.0355C277.8283 915.0355 159.6683 796.8755 159.6683 651.3655C159.6683 505.8555 277.8283 387.2055 423.8283 387.2055C569.3383 387.2055 687.4983 505.8555 687.4983 651.3655C687.4983 654.7855 687.4983 658.6955 687.0083 662.5955C688.9683 663.0855 689.9383 663.0855 692.8683 663.0855C710.4483 663.0855 750.4883 627.9255 805.1783 627.9255C822.7583 627.9255 837.3983 630.8555 847.1683 634.2755V312.9855H-0.0017V909.1755C-0.0017 979.0055 45.4083 1025.3955 113.2783 1025.3955ZM214.3583 651.3655C214.3583 773.4355 317.8683 861.3255 422.8483 860.3555L377.9283 739.2555C359.3783 688.9655 383.7883 638.6755 429.1983 622.0655C460.4483 610.8355 495.6083 617.6755 520.0183 640.1355C535.6483 633.7855 555.1783 627.9255 580.0783 627.9255C597.6583 627.9255 614.7483 632.8155 631.3483 639.6455C631.3483 632.3255 630.8583 624.9955 629.8783 617.6755C614.2583 517.5755 527.8283 441.8955 423.8283 441.8955C307.6183 441.8955 214.3583 535.1555 214.3583 651.3655ZM586.4283 1026.3655H798.8283C823.7283 1026.3655 845.2183 1012.2055 854.9783 986.3255L954.0983 719.2355C961.9183 697.2655 951.1683 681.1555 936.5283 675.7855C921.3883 670.4055 902.3483 675.2955 894.0383 696.7755L887.6983 714.3555C862.7883 703.1255 841.3083 685.0555 804.6883 685.0555C749.5083 685.0555 731.4483 721.6755 692.8683 721.6755C654.2983 721.6755 635.7383 685.0555 580.5683 685.0555C543.9483 685.0555 522.9483 703.1255 498.0483 714.3555L491.2083 696.7755C483.3983 675.2955 463.8683 670.4055 449.2183 675.7855C434.0783 681.1555 423.8283 697.2655 431.6383 719.2355L530.7583 986.3255C540.0383 1012.2055 562.0083 1026.3655 586.4283 1026.3655ZM692.8683 767.5755C748.5383 767.5755 761.2283 730.9555 804.6883 730.9555C832.0283 730.9555 847.1683 746.0955 871.5783 756.8355L799.8083 949.2155C796.3883 958.4955 790.5283 962.4055 782.7183 962.4055H602.5383C594.7283 962.4055 588.8683 958.4955 585.4483 949.2155L513.6683 756.8355C538.0883 746.0955 553.2183 730.9555 580.5683 730.9555C624.0283 730.9555 636.7183 767.5755 692.8683 767.5755Z"/>
</svg>