<?xml version="1.0" encoding="UTF-8" standalone="no"?>
<svg xmlns="http://www.w3.org/2000/svg"
     width="1026.3671875" height="837.4638819128833"
     viewBox="0 0 1026.3671875 837.4638819128833"
     fill="currentColor">
  <path d="M513.1883 167.9675C645.9983 167.9675 667.4783 68.8475 745.1183 68.8475C824.2183 68.8475 836.9183 167.9675 989.2583 167.9675H991.6983C1010.7383 167.9675 1026.3683 152.3475 1026.3683 133.2975C1026.3683 114.2575 1010.7383 99.1175 991.6983 99.1175H989.2583C936.5283 99.1175 907.2283 77.1475 870.6083 51.2675C838.8683 28.3175 799.3183 -0.0025 745.1183 -0.0025C688.9683 -0.0025 648.9283 29.7875 617.1883 53.7075C583.4983 79.0975 556.6383 99.1175 513.1883 99.1175C469.2383 99.1175 442.8683 79.0975 409.1783 53.7075C377.4383 29.7875 337.3983 -0.0025 281.2483 -0.0025C227.0483 -0.0025 187.4983 28.3175 155.7583 51.2675C119.1383 77.1475 89.3583 99.1175 37.1083 99.1175H34.6683C15.1383 99.1175 -0.0017 114.2575 -0.0017 133.2975C-0.0017 152.3475 15.1383 167.9675 34.6683 167.9675H37.1083C188.9683 167.9675 202.1483 68.8475 281.2483 68.8475C358.8883 68.8475 379.8783 167.9675 513.1883 167.9675ZM384.2783 603.0275C353.0283 603.0275 340.3283 633.2975 358.3983 656.2475L483.8883 820.7975C501.9483 843.2575 523.9283 842.7775 541.5083 820.7975L666.9883 655.7575C684.5683 633.2975 671.8783 603.0275 641.1183 603.0275H551.7583V300.7775C551.7583 280.2775 533.6883 263.1875 512.6983 263.1875C491.6983 263.1875 474.1183 280.2775 474.1183 300.7775V603.0275ZM281.2483 373.5375C333.0083 373.5375 358.3983 416.5075 408.1983 443.8475V355.9575C398.9283 351.5575 390.6283 345.2175 381.8383 339.3575C354.4883 321.2875 322.7583 304.6875 281.2483 304.6875C227.0483 304.6875 187.4983 333.0075 155.7583 355.9575C119.1383 382.3275 89.3583 403.8075 37.1083 403.8075H34.6683C15.1383 403.8075 -0.0017 419.4375 -0.0017 438.4775C-0.0017 457.5175 15.1383 472.6575 34.6683 472.6575H37.1083C188.9683 472.6575 202.1483 373.5375 281.2483 373.5375ZM745.1183 373.5375C824.2183 373.5375 836.9183 472.6575 989.2583 472.6575H991.6983C1010.7383 472.6575 1026.3683 457.5175 1026.3683 438.4775C1026.3683 419.4375 1010.7383 403.8075 991.6983 403.8075H989.2583C936.5283 403.8075 907.2283 382.3275 870.6083 355.9575C838.8683 333.0075 799.3183 304.6875 745.1183 304.6875C703.6183 304.6875 671.8783 321.2875 644.5283 339.3575C635.2583 345.2175 627.4383 351.5575 618.1683 355.9575V443.8475C667.9683 416.5075 693.3583 373.5375 745.1183 373.5375Z"/>
</svg>