<?xml version="1.0" encoding="UTF-8" standalone="no"?>
<svg xmlns="http://www.w3.org/2000/svg"
     width="996.09375" height="996.09375"
     viewBox="0 0 996.09375 996.09375"
     fill="currentColor">
  <path d="M498.0477 996.0959C770.5077 996.0959 996.0977 770.0159 996.0977 498.0459C996.0977 225.5859 770.0177 -0.0041 497.5577 -0.0041C225.5877 -0.0041 -0.0023 225.5859 -0.0023 498.0459C-0.0023 770.0159 226.0777 996.0959 498.0477 996.0959ZM498.0477 913.0859C267.5777 913.0859 83.4977 728.5159 83.4977 498.0459C83.4977 267.5759 267.0877 83.0059 497.5577 83.0059C728.0277 83.0059 913.0877 267.5759 913.0877 498.0459C913.0877 728.5159 728.5177 913.0859 498.0477 913.0859ZM702.6377 497.5559C702.6377 386.2259 669.4377 277.8359 609.8677 191.4059C598.1477 174.8059 578.1277 170.8959 562.4977 181.6359C546.8777 192.8759 544.4377 213.3759 556.1477 229.4959C607.9077 303.2259 637.2077 398.4359 637.2077 497.5559C637.2077 595.7059 607.4177 692.3859 556.1477 765.6259C544.4377 782.2259 546.8777 802.2459 562.4977 813.4759C577.6377 824.2159 597.6577 819.8259 609.8677 804.1959C669.4377 718.2659 702.6377 609.8659 702.6377 497.5559ZM549.8077 497.5559C549.8077 414.5459 525.8777 335.9359 482.4177 276.3659C470.7077 260.7459 451.1677 256.8359 435.5477 268.0659C420.8977 278.3159 417.4777 298.8259 429.1977 315.9159C463.8677 363.7659 483.3977 429.6859 483.3977 497.5559C483.3977 565.9159 463.8677 631.8359 429.1977 679.6859C417.4777 696.7759 420.8977 717.2859 435.5477 727.5359C451.1677 738.2859 470.7077 734.8659 482.4177 718.7459C525.8777 658.2059 549.8077 579.1059 549.8077 497.5559ZM396.9777 497.5559C396.9777 447.7559 381.8377 397.4559 355.9577 361.3259C344.7277 346.6759 324.7077 342.2859 309.5677 352.0459C292.4777 363.7659 289.5477 385.2559 302.7377 402.8359C320.3077 425.2959 330.5677 460.9359 330.5677 497.5559C330.5677 533.2059 320.3077 568.8459 302.7377 592.7759C290.0377 610.3559 292.9677 630.8559 309.5677 643.0659C324.7077 653.3159 345.2177 648.9259 355.9577 633.7859C381.8377 599.6059 396.9777 548.8259 396.9777 497.5559Z"/>
</svg>