<?xml version="1.0" encoding="UTF-8" standalone="no"?>
<svg xmlns="http://www.w3.org/2000/svg"
     width="996.09375" height="996.09375"
     viewBox="0 0 996.09375 996.09375"
     fill="currentColor">
  <path d="M498.0477 996.0959C770.5077 996.0959 996.0977 770.0159 996.0977 498.0459C996.0977 225.5859 770.0177 -0.0041 497.5577 -0.0041C225.5877 -0.0041 -0.0023 225.5859 -0.0023 498.0459C-0.0023 770.0159 226.0777 996.0959 498.0477 996.0959ZM498.0477 913.0859C267.5777 913.0859 83.4977 728.5159 83.4977 498.0459C83.4977 267.5759 267.0877 83.0059 497.5577 83.0059C728.0277 83.0059 913.0877 267.5759 913.0877 498.0459C913.0877 728.5159 728.5177 913.0859 498.0477 913.0859ZM448.2377 768.0659C464.3577 768.0659 477.0477 755.3759 477.0477 738.2859V256.8359C477.0477 240.2359 464.3577 227.5359 448.2377 227.5359C431.6377 227.5359 418.4577 240.2359 418.4577 256.8359V738.2859C418.4577 755.8559 431.1477 768.0659 448.2377 768.0659ZM645.9977 699.7059C662.5977 699.7059 675.2977 687.0159 675.2977 670.4059V324.7059C675.2977 308.1059 662.5977 295.4059 645.9977 295.4059C629.3977 295.4059 616.6977 308.1059 616.6977 324.7059V670.4059C616.6977 687.0159 629.3977 699.7059 645.9977 699.7059ZM349.1177 653.3159C365.7277 653.3159 378.4177 640.1359 378.4177 623.5359V371.0959C378.4177 354.4959 365.7277 341.7959 349.1177 341.7959C332.5177 341.7959 319.8277 354.4959 319.8277 371.0959V623.5359C319.8277 640.1359 332.5177 653.3159 349.1177 653.3159ZM546.8777 608.3959C563.4777 608.3959 576.1677 595.7059 576.1677 579.5859V415.5259C576.1677 399.4159 563.4777 386.2259 546.8777 386.2259C530.7577 386.2259 517.5777 399.4159 517.5777 415.5259V579.5859C517.5777 595.7059 530.7577 608.3959 546.8777 608.3959ZM745.6077 589.3559C762.2077 589.3559 774.4177 577.1459 774.4177 560.0559V435.0559C774.4177 417.9659 762.2077 405.7659 745.6077 405.7659C728.5177 405.7659 715.8177 418.4559 715.8177 435.0559V560.0559C715.8177 576.6559 728.5177 589.3559 745.6077 589.3559ZM249.5077 569.8259C266.5977 569.8259 279.2977 556.6359 279.2977 540.5259V454.5859C279.2977 438.4759 266.5977 425.2959 249.5077 425.2959C233.3977 425.2959 220.7077 438.4759 220.7077 454.5859V540.5259C220.7077 556.6359 233.8877 569.8259 249.5077 569.8259Z"/>
</svg>