<?xml version="1.0" encoding="UTF-8" standalone="no"?>
<svg xmlns="http://www.w3.org/2000/svg"
     width="978.02734375" height="1003.846824297641"
     viewBox="0 0 978.02734375 1003.846824297641"
     fill="currentColor">
  <path d="M35.1606 572.3915H251.4606C273.4406 572.3915 286.6206 562.6215 291.5006 543.0915L364.7506 206.6615L493.1606 977.6615C499.0206 1012.8215 553.2206 1012.3315 560.0606 977.6615L684.0806 394.1615L713.3806 539.1815C717.7706 561.6515 730.4706 572.3915 753.4206 572.3915H942.8706C962.4006 572.3915 978.0306 557.2515 978.0306 538.2115C978.0306 518.6815 962.8906 503.5415 942.8706 503.5415H770.0206L713.8706 255.0015C706.5406 221.3115 656.2506 221.3115 647.9506 256.4715L525.3906 803.8315L396.9706 26.0015C391.6006 -8.1785 341.8006 -9.1585 333.9806 26.0015L230.4706 503.5415H35.1606C15.1406 503.5415 0.0006 519.1615 0.0006 538.2115C0.0006 557.2515 15.1406 572.3915 35.1606 572.3915Z"/>
</svg>