<?xml version="1.0" encoding="UTF-8" standalone="no"?>
<svg xmlns="http://www.w3.org/2000/svg"
     width="971.923828125" height="1020.01953125"
     viewBox="0 0 971.923828125 1020.01953125"
     fill="currentColor">
  <path d="M367.1883 0.0047C345.2183 0.0047 328.6183 17.5747 328.6183 39.5547V193.8447L407.2283 272.4647V39.5547C407.2283 17.5747 390.1383 0.0047 367.1883 0.0047ZM907.7183 974.1247C922.3683 988.7647 946.7783 988.7647 960.9383 974.1247C975.5883 958.9847 975.5883 935.5447 960.9383 920.8947L85.4483 44.9247C70.7983 30.2747 46.3883 30.2747 31.7383 44.9247C17.0883 59.0847 17.0883 83.9847 31.7383 98.1447ZM696.2883 107.9147C673.8283 107.9147 657.2283 125.9747 657.2283 147.4647V522.4647L735.8383 601.0747V147.4647C735.8383 125.9747 718.2583 107.9147 696.2883 107.9147ZM532.2283 255.8547C509.2783 255.8547 492.6783 273.4347 492.6783 295.4147V358.3947L571.2883 437.0147V295.4147C571.2883 273.4347 554.1983 255.8547 532.2283 255.8547ZM203.1283 823.2447C225.5883 823.2447 243.1683 805.6647 243.1683 783.6947V403.8047L164.5483 325.1947V783.6947C164.5483 805.6647 181.1483 823.2447 203.1283 823.2447ZM860.3483 354.0047C837.8883 354.0047 821.2883 372.0747 821.2883 393.5547V626.4647C821.2883 647.9447 837.8883 665.5247 860.3483 665.5247C882.8083 665.5247 899.8983 647.9447 899.8983 626.4647V393.5547C899.8983 372.0747 882.8083 354.0047 860.3483 354.0047ZM39.0583 623.5347C61.5283 623.5347 78.6183 605.9547 78.6183 583.9847V436.0347C78.6183 414.0647 61.5283 395.9947 39.0583 395.9947C16.5983 395.9947 -0.0017 414.0647 -0.0017 436.0347V583.9847C-0.0017 605.9547 16.5983 623.5347 39.0583 623.5347ZM367.1883 1020.0147C390.1383 1020.0147 407.2283 1002.4447 407.2283 980.4647V567.8747L328.6183 489.7447V980.4647C328.6183 1002.4447 345.2183 1020.0147 367.1883 1020.0147ZM532.2283 806.1547C554.6883 806.1547 571.2883 788.5747 571.2883 766.6047V731.9347L492.6783 653.3247V766.6047C492.6783 788.5747 509.7683 806.1547 532.2283 806.1547Z"/>
</svg>