<?xml version="1.0" encoding="UTF-8" standalone="no"?>
<svg xmlns="http://www.w3.org/2000/svg"
     width="1124.4162978841007" height="928.955078125"
     viewBox="0 0 1124.4162978841007 928.955078125"
     fill="currentColor">
  <path d="M973.7095 885.4941C988.3595 900.1441 1012.7695 900.1441 1026.9295 885.4941C1041.0895 870.3641 1041.5795 846.9241 1026.9295 832.2741L206.1295 10.9841C191.4795 -3.6659 167.0695 -3.6659 152.4195 10.9841C137.7695 25.1441 137.7695 50.5341 152.4195 64.2041ZM541.0895 265.8641C548.4095 264.4041 556.2295 263.9141 563.5495 263.9141C746.1695 266.8441 898.5095 336.6741 1018.6295 459.2241C1027.9095 468.0141 1041.0895 467.5341 1050.3695 458.2541L1117.7495 390.8641C1126.5395 382.0841 1126.0495 371.3341 1119.6995 363.0341C1002.0295 223.3841 788.6495 117.4341 562.0895 117.4341C512.7695 117.4341 463.9395 122.3141 408.7695 133.5441ZM210.0395 204.3441C127.9995 246.3341 56.7195 301.0241 4.9595 363.0341C-1.8805 371.3341 -1.8805 382.0841 6.4195 390.8641L74.2895 458.2541C83.5695 467.5341 97.2395 467.5341 106.5195 457.7641C168.0395 392.8241 237.8695 343.5041 317.4595 311.7641ZM427.8095 421.1441C332.5895 447.0241 251.5395 498.2941 199.2895 560.3041C192.4595 569.0941 192.9495 579.3441 201.2495 587.6441L276.9295 662.8441C287.1795 672.6041 300.3695 671.6341 310.1295 660.8841C368.2395 596.4341 460.5195 551.5141 556.2295 550.0441ZM893.1395 617.9241L923.4095 587.6441C932.1995 578.8541 932.1995 569.0941 925.3695 560.3041C876.0495 499.2641 790.1095 445.0641 697.3395 422.1141ZM562.5695 687.7441C492.7495 687.7441 431.7195 724.8541 400.4695 767.3341C395.5795 775.1441 397.5395 783.9341 404.8595 791.2641L523.5095 905.5141C542.5595 924.0741 551.8295 928.9541 562.5695 928.9541C573.3195 928.9541 582.5895 923.5841 602.1295 905.5141L720.2895 791.2641C728.0995 783.9341 730.0595 773.1941 723.2195 764.4041C690.9895 723.3841 631.4195 687.7441 562.5695 687.7441Z"/>
</svg>