<?xml version="1.0" encoding="UTF-8" standalone="no"?>
<svg xmlns="http://www.w3.org/2000/svg"
     width="898.92578125" height="898.92578125"
     viewBox="0 0 898.92578125 898.92578125"
     fill="currentColor">
  <path d="M153.3183 898.9295H745.6083C848.1483 898.9295 898.9283 848.1495 898.9283 747.5595V151.3695C898.9283 50.7795 848.1483 -0.0005 745.6083 -0.0005H153.3183C51.2683 -0.0005 -0.0017 50.2895 -0.0017 151.3695V747.5595C-0.0017 848.6295 51.2683 898.9295 153.3183 898.9295ZM154.2983 820.3095C105.4683 820.3095 78.6183 794.4295 78.6183 743.6495V155.2695C78.6183 104.4895 105.4683 78.6095 154.2983 78.6095H744.6283C792.9683 78.6095 820.3083 104.4895 820.3083 155.2695V743.6495C820.3083 794.4295 792.9683 820.3095 744.6283 820.3095ZM178.7083 416.9895C185.0583 424.3195 196.2883 423.8295 203.6183 416.0195C267.0883 347.6595 353.0283 311.0395 449.7083 311.0395C546.8783 311.0395 633.2983 347.6595 697.2683 416.4995C704.0983 423.3395 714.8483 423.8295 721.1883 416.4995L757.3283 378.9095C763.1883 373.0495 763.6683 364.7495 758.7883 357.9095C692.8683 276.8595 570.3083 222.1695 449.7083 222.1695C329.5883 222.1695 207.0283 276.8595 141.1183 357.9095C135.7383 364.7495 136.7183 373.0495 142.0883 378.9095ZM290.0383 528.3195C297.3683 536.1295 307.1283 535.6395 315.4283 527.3395C348.1483 490.7195 399.8983 467.2895 449.7083 467.7695C499.5083 467.2895 551.2683 490.7195 585.4483 527.8295C592.7783 536.1295 602.5383 536.1295 609.3783 528.3195L650.8783 487.3095C656.7383 481.4495 657.7183 472.6595 651.8583 466.3095C607.4183 412.5995 529.7883 378.4195 449.7083 378.4195C370.1183 378.4195 292.4783 412.5995 248.0483 466.3095C242.1883 473.1395 242.6783 480.9595 249.5083 487.3095ZM449.7083 675.7795C457.0283 675.7795 461.9183 672.8495 474.1183 662.1095L539.5483 599.1195C544.9183 593.2595 545.8983 584.9595 541.0183 578.6095C521.4883 552.2495 485.3483 534.6695 449.7083 534.6695C413.5783 534.6695 378.4183 552.7295 357.9083 581.0595C353.5183 586.4295 354.9783 593.2595 360.8383 599.1195L425.7783 662.1095C437.4983 672.3595 442.3783 675.7795 449.7083 675.7795Z"/>
</svg>