<?xml version="1.0" encoding="UTF-8" standalone="no"?>
<svg xmlns="http://www.w3.org/2000/svg"
     width="1394.04296875" height="930.6640625"
     viewBox="0 0 1394.04296875 930.6640625"
     fill="currentColor">
  <path d="M696.2883 -0.0006C584.4683 -0.0006 475.5883 33.1994 390.1383 92.7694C374.0283 104.9794 370.1183 124.9994 380.3683 140.1394C392.0883 155.7594 412.1083 158.1994 428.2183 146.4794C501.9483 95.2194 598.1483 65.4294 696.2883 65.4294C795.8983 65.4294 891.1183 94.7294 964.8483 146.4794C980.9583 158.1994 1000.9783 155.7594 1012.2083 140.1394C1023.4383 124.5094 1019.5283 104.4894 1002.9283 92.7694C916.5083 33.1994 808.1083 -0.0006 696.2883 -0.0006ZM696.7783 152.8294C615.7183 152.8294 536.6183 176.7594 475.5883 220.2194C459.9583 231.9294 456.0583 251.4694 467.2883 267.0894C477.5383 281.7394 498.0483 285.1594 515.1383 273.4394C562.9883 239.2594 628.9083 219.2394 696.7783 219.2394C765.1383 219.2394 831.0583 239.2594 878.9083 273.4394C895.9983 285.1594 916.5083 281.7394 926.7583 267.0894C937.9883 251.4694 934.0783 231.9294 917.9683 220.2194C858.8883 176.7594 779.7883 152.8294 696.7783 152.8294ZM696.2883 305.6594C645.5083 305.6594 594.7283 320.7994 560.5483 346.6794C545.4083 357.4194 541.0183 377.9294 551.2683 393.0694C563.4783 409.6694 583.9883 412.5994 601.5583 400.3894C625.4883 382.3194 660.6483 372.0694 696.2883 372.0694C733.3983 372.0694 768.5583 382.3194 791.5083 400.3894C809.0783 413.0894 830.0783 410.1594 842.2883 393.0694C852.0483 377.9294 847.6583 357.9094 833.0083 346.6794C796.8783 320.7994 746.0983 305.6594 696.2883 305.6594ZM135.7383 930.6594H1258.2983C1341.7983 930.6594 1394.0383 879.3994 1394.0383 796.8794V641.1094C1394.0383 558.5894 1341.7983 507.3194 1258.2983 507.3194H135.7383C52.2483 507.3194 -0.0017 558.5894 -0.0017 641.1094V796.8794C-0.0017 879.3994 52.2483 930.6594 135.7383 930.6594ZM135.7383 852.0494C100.5883 852.0494 78.6183 831.0594 78.6183 796.8794V641.1094C78.6183 606.9294 100.5883 585.9394 135.7383 585.9394H1258.2983C1293.4583 585.9394 1315.4283 606.9294 1315.4283 641.1094V796.8794C1315.4283 831.0594 1293.4583 852.0494 1258.2983 852.0494ZM613.7683 782.2294C647.9483 782.2294 676.7583 753.4194 676.7583 718.2594C676.7583 684.0794 647.9483 655.2694 613.7683 655.2694C578.6183 655.2694 549.8083 684.0794 549.8083 718.2594C549.8083 753.4194 578.6183 782.2294 613.7683 782.2294ZM798.3383 782.2294C832.5183 782.2294 861.3283 753.4194 861.3283 718.2594C861.3283 684.0794 832.5183 655.2694 798.3383 655.2694C763.1883 655.2694 734.3783 684.0794 734.3783 718.2594C734.3783 753.4194 763.1883 782.2294 798.3383 782.2294ZM982.9083 782.2294C1017.0883 782.2294 1045.8983 753.4194 1045.8983 718.2594C1045.8983 684.0794 1017.0883 655.2694 982.9083 655.2694C947.7583 655.2694 918.9483 684.0794 918.9483 718.2594C918.9483 753.4194 947.7583 782.2294 982.9083 782.2294ZM1167.4783 782.2294C1202.1483 782.2294 1230.9583 753.4194 1230.9583 718.7494C1230.9583 684.0794 1202.1483 655.2694 1167.4783 655.2694C1132.3283 655.2694 1103.5183 684.0794 1103.5183 718.7494C1103.5183 753.4194 1132.3283 782.2294 1167.4783 782.2294ZM200.6883 732.9094H366.2083C386.2283 732.9094 400.8783 718.7494 400.8783 698.7294C400.8783 678.7094 386.2283 664.0594 366.2083 664.0594H200.6883C180.6683 664.0594 166.5083 678.7094 166.5083 698.7294C166.5083 718.7494 180.6683 732.9094 200.6883 732.9094Z"/>
</svg>