<?xml version="1.0" encoding="UTF-8" standalone="no"?>
<svg xmlns="http://www.w3.org/2000/svg"
     width="1124.347657282552" height="866.69921875"
     viewBox="0 0 1124.347657282552 866.69921875"
     fill="currentColor">
  <path d="M562.5695 631.3483C588.4495 631.3483 606.0295 614.2583 606.5195 587.3983C607.9895 407.7183 609.4495 227.0483 610.9095 46.8783C610.9095 19.0383 588.4495 -0.0017 562.0895 -0.0017C535.7195 -0.0017 513.2595 19.0383 513.2595 46.8783C515.2095 227.0483 516.6795 407.7183 518.6295 587.3983C519.1195 614.2583 536.6995 631.3483 562.5695 631.3483ZM440.9895 64.9383C262.2795 94.7283 100.6595 183.1083 4.9595 300.7783C-1.8805 308.5983 -1.8805 319.8283 6.4195 328.6083L73.8095 396.9683C83.5695 406.2483 97.2395 406.2483 106.5195 396.4883C198.8095 298.3383 314.5295 235.8383 442.9495 213.3783ZM682.6895 65.4283L681.2295 213.8683C809.6495 235.3483 924.3895 298.8283 1018.6295 396.9683C1027.4195 405.7583 1040.5995 405.2783 1050.3695 395.9983L1117.7495 328.6083C1126.5395 319.8283 1126.0495 308.5983 1119.2195 300.7783C1022.5395 184.0783 863.3595 93.2583 682.6895 65.4283ZM680.7395 354.4883L679.2695 510.2583C732.9895 529.7883 780.8395 562.0083 816.4795 600.5883C825.2695 610.3483 837.4795 609.8583 848.2195 600.0983L923.4095 525.3883C931.2295 517.0883 932.1995 506.3483 924.8795 498.0483C870.6795 432.1283 782.7895 376.9483 680.7395 354.4883ZM444.4095 354.4883C342.3595 378.4183 255.4495 430.6683 199.7795 498.0483C192.4595 506.3483 192.9495 516.5983 201.2495 525.3883L276.9295 601.0783C287.6695 611.3283 300.8595 609.8583 310.6195 598.6283C345.2895 560.0583 392.6495 528.8083 445.8795 509.2783ZM562.0895 866.6983C603.5895 866.6983 636.3095 833.0083 636.3095 791.9883C636.3095 750.4883 603.5895 717.7783 562.0895 717.7783C521.0695 717.7783 487.8695 750.4883 487.8695 791.9883C487.8695 833.0083 521.0695 866.6983 562.0895 866.6983Z"/>
</svg>