<?xml version="1.0" encoding="UTF-8" standalone="no"?>
<svg xmlns="http://www.w3.org/2000/svg"
     width="1196.2890625" height="993.3511990190183"
     viewBox="0 0 1196.2890625 993.3511990190183"
     fill="currentColor">
  <path d="M153.3183 671.3878H353.5183C331.0583 730.4678 284.1783 773.4378 284.1783 859.8678C284.1783 905.7578 298.3383 940.4278 329.0983 979.4878C355.9583 1013.1878 408.6883 979.4878 380.8583 941.8978C356.9383 910.1578 348.1483 890.1378 348.1483 854.9778C348.1483 786.6178 399.4183 743.1678 419.9183 671.3878H630.3683C608.3983 730.4678 561.5283 773.4378 561.5283 859.8678C561.5283 905.7578 575.6883 940.4278 605.9583 979.4878C632.8083 1013.1878 686.0383 979.4878 657.7183 941.8978C633.7883 910.1578 625.4883 890.1378 625.4883 854.9778C625.4883 786.6178 676.2683 743.1678 697.2683 671.3878H907.2283C885.2583 730.4678 838.3783 773.4378 838.3783 859.8678C838.3783 905.7578 852.5383 940.4278 883.2983 979.4878C909.6683 1013.1878 962.8883 979.4878 934.5683 941.8978C911.1283 910.1578 902.3483 890.1378 902.3483 854.9778C902.3483 786.6178 953.6183 743.1678 974.1183 671.3878H1042.9683C1145.5083 671.3878 1196.2883 620.6078 1196.2883 520.0178V151.3678C1196.2883 50.7778 1145.5083 -0.0022 1042.9683 -0.0022H153.3183C51.2683 -0.0022 -0.0017 50.2978 -0.0017 151.3678V520.0178C-0.0017 621.0978 51.2683 671.3878 153.3183 671.3878ZM154.2983 592.7778C105.4683 592.7778 78.6183 566.4078 78.6183 516.1178V155.2778C78.6183 104.4878 105.4683 78.6178 154.2983 78.6178H1041.5083C1089.8483 78.6178 1117.6783 104.4878 1117.6783 155.2778V516.1178C1117.6783 566.4078 1089.8483 592.7778 1041.5083 592.7778H981.9383C974.1183 506.8378 910.1583 477.0478 907.2283 369.6278H959.4683C980.9583 369.6278 990.2383 347.6578 979.4883 332.0278L897.4583 211.4278C891.5983 202.6378 884.2783 198.2378 874.9983 198.2378C865.7183 198.2378 858.3983 202.6378 852.5383 211.4278L770.9983 332.0278C760.2583 347.6578 769.5283 369.6278 791.0183 369.6278H843.2583C845.2183 503.4178 907.7183 529.2978 917.4783 592.7778H705.0783C697.2683 506.8378 632.8083 477.0478 630.3683 369.6278H682.1283C703.6183 369.6278 712.8883 347.6578 702.1483 332.0278L620.6083 211.4278C614.7483 202.6378 607.4183 198.2378 598.1483 198.2378C588.8683 198.2378 581.5383 202.6378 575.6883 211.4278L493.6483 332.0278C482.9083 347.6578 492.6783 369.6278 514.1583 369.6278H566.4083C568.3583 503.4178 630.3683 529.2978 640.6283 592.7778H427.7383C419.9183 506.8378 355.9583 477.0478 353.0283 369.6278H405.2783C426.7583 369.6278 436.0383 347.6578 425.2883 332.0278L343.2583 211.4278C337.8883 202.6378 330.5683 198.2378 321.2883 198.2378C312.0083 198.2378 304.6883 202.6378 298.8283 211.4278L216.7983 332.0278C206.0583 347.6578 215.3283 369.6278 236.8183 369.6278H289.0583C291.5083 503.4178 353.5183 529.2978 363.2783 592.7778Z"/>
</svg>