<?xml version="1.0" encoding="UTF-8" standalone="no"?>
<svg xmlns="http://www.w3.org/2000/svg"
     width="1002.3850661057693" height="949.21875"
     viewBox="0 0 1002.3850661057693 949.21875"
     fill="currentColor">
  <path d="M850.5337 176.7541C860.7837 176.7541 869.0837 167.4841 868.1037 156.2541L865.1737 115.7241L899.3537 138.6741C907.1737 144.0441 919.8637 142.0941 925.7237 133.3041C932.0737 124.0241 927.6737 110.8441 916.9337 106.4441L880.8037 88.3741L917.9137 69.8241C927.1937 64.9441 931.5837 53.2241 926.2137 43.4541C921.3337 34.6641 907.6537 31.7341 898.8737 38.0841L865.1737 61.0341L868.5937 20.9941C869.5737 9.7641 861.2737 0.0041 850.5337 0.0041C838.8137 0.0041 830.5137 8.7841 831.4837 20.5041L834.4137 61.5241L799.7437 38.0841C790.9637 32.2241 778.7537 34.1841 773.8737 43.4541C768.0137 53.2241 771.9137 64.9441 781.6837 69.8241L818.3037 88.3741L782.1737 106.4441C771.9137 110.8441 767.5237 123.0441 773.3837 133.3041C778.2637 142.0941 790.9637 144.5341 799.7437 138.6741L834.4137 115.7241L831.9737 156.2541C831.4837 167.9641 839.3037 176.7541 850.5337 176.7541ZM44.3737 376.4641C114.6937 354.0041 187.4437 342.2841 256.7837 342.2841C346.6237 342.2841 412.5437 356.9341 497.5037 356.9341C585.3937 356.9341 640.0837 297.3641 640.0837 219.7241C640.0837 140.1341 579.0437 83.0041 503.8537 83.0041C448.1837 83.0041 399.3537 118.1641 378.8537 164.5541C371.0337 180.6641 373.9637 199.2141 391.0537 208.0041C406.6837 215.8241 425.7237 210.9341 435.9837 191.4041C446.7237 166.5041 473.0837 146.9741 503.8537 146.9741C544.3737 146.9741 576.1137 175.2941 576.1137 219.7241C576.1137 264.1641 545.3537 293.4541 497.5037 293.4541C416.4437 293.4541 349.5537 278.8041 256.7837 278.8041C177.1937 278.8041 96.6237 292.9641 24.8437 315.9141C4.3337 321.7741 -3.4763 339.3541 1.4037 355.9541C6.2937 373.0441 22.4037 382.8141 44.3737 376.4641ZM808.0537 604.9841C921.8237 604.9841 1002.3837 532.7141 1002.3837 431.6441C1002.3837 332.0341 925.7237 259.7641 830.5137 259.7641C742.1337 259.7641 676.7037 321.2841 664.9837 401.8541C662.0537 422.3641 673.2837 438.4741 690.8637 440.9141C708.9237 443.3641 724.5537 432.1241 728.4637 409.1841C736.7637 357.9141 779.2437 323.2441 830.5137 323.2441C890.0837 323.2441 938.4237 367.6741 938.4237 431.6441C938.4237 496.5841 887.1537 541.5041 808.0537 541.5041C659.1237 541.5041 498.4837 456.5441 303.1637 456.5441C202.5837 456.5441 110.7837 472.6541 24.8437 502.9341C4.8237 510.2541 -3.4763 527.3441 1.4037 543.9441C6.2937 561.0341 22.8937 571.2841 44.3737 563.9641C123.9637 533.6941 206.9737 520.5041 303.1637 520.5041C497.9937 520.5041 643.4937 604.9841 808.0537 604.9841ZM497.9937 949.2141C573.1837 949.2141 631.2937 893.5541 631.2937 813.9641C631.2937 698.7341 513.6137 634.2741 296.8237 634.2741C205.9937 634.2741 107.8537 651.8541 24.8437 680.1741C4.8237 687.5041 -3.4763 704.5941 1.4037 721.1941C6.2937 738.2841 22.8937 748.5341 44.3737 741.2141C122.0137 713.3741 208.9237 698.2441 296.8237 698.2441C474.0637 698.2441 567.8137 742.6741 567.8137 813.9641C567.8137 858.3941 536.5637 885.7441 497.9937 885.7441C459.4137 885.7441 435.9837 859.8641 429.1437 818.8441C426.2137 800.7841 413.0337 785.6441 392.0337 787.1141C370.0637 788.5741 361.2737 807.1241 364.2037 827.1441C372.9937 895.0241 423.2837 949.2141 497.9937 949.2141ZM850.5337 876.9541C860.7837 876.9541 869.0837 867.6741 868.1037 856.9341L865.1737 816.4041L899.3537 839.3541C907.1737 844.7241 919.8637 842.7741 925.7237 833.4941C932.0737 824.2141 927.6737 811.0341 916.9337 807.1241L880.8037 788.5741L917.9137 770.0241C927.1937 765.6241 931.5837 753.9041 926.2137 743.6541C921.3337 734.8641 907.6537 731.9341 898.8737 738.2841L865.1737 761.2341L868.5937 721.1941C869.5737 710.4541 861.2737 700.6841 850.5337 700.6841C838.8137 700.6841 830.5137 709.4741 831.4837 720.7041L834.4137 761.7141L799.7437 738.2841C790.9637 732.4241 778.7537 734.3741 773.8737 743.6541C768.0137 753.9041 771.9137 765.1341 781.6837 770.0241L818.3037 788.5741L782.1737 806.6441C771.9137 811.0341 767.5237 823.2441 773.3837 833.4941C778.2637 842.2841 790.9637 844.7241 799.7437 838.8641L834.4137 815.9141L831.9737 856.9341C831.4837 868.1641 839.3037 876.9541 850.5337 876.9541Z"/>
</svg>