<?xml version="1.0" encoding="UTF-8" standalone="no"?>
<svg xmlns="http://www.w3.org/2000/svg"
     width="1366.951630183213" height="1196.382960686571"
     viewBox="0 0 1366.951630183213 1196.382960686571"
     fill="currentColor">
  <path d="M1218.8289 158.2947C1238.8489 146.0947 1245.1989 120.2147 1227.6189 98.7247C1191.4889 54.2947 1144.1289 20.6047 1093.8289 3.5147C1065.0189 -6.2553 1041.5889 4.9747 1036.2189 29.3947C1031.3289 51.3647 1044.9989 69.4347 1065.9989 77.2447C1104.5689 90.4247 1138.2689 114.8447 1164.6289 146.5747C1179.2789 163.6647 1199.7889 169.0347 1218.8289 158.2947ZM148.5189 158.2947C167.0689 169.0347 188.0689 163.6647 202.2289 146.5747C229.0889 114.8447 262.7789 90.4247 301.3489 77.2447C322.3489 69.4347 335.5289 51.3647 331.1389 29.3947C325.7689 4.9747 301.8389 -6.2553 273.0289 3.5147C222.7389 20.6047 175.8589 54.2947 139.7289 98.7247C122.1489 120.2147 128.4989 146.0947 148.5189 158.2947ZM628.0089 157.3247C648.0289 145.1147 652.9089 119.7247 635.8189 98.2347C599.6889 53.8047 551.8389 20.6047 503.0089 4.0047C472.2489 -6.7453 449.2989 6.9347 444.9089 30.3647C441.4889 51.8547 453.6989 69.4347 474.6889 77.2447C512.7789 90.4247 546.4689 114.8447 572.8389 146.0947C588.4589 164.6447 608.9689 168.0647 628.0089 157.3247ZM738.8489 157.3247C758.3789 168.0647 778.3989 164.6447 794.5189 146.0947C820.3889 114.8447 854.0889 90.4247 892.1689 77.2447C913.1689 69.4347 925.8589 51.8547 921.9589 30.3647C917.5589 6.9347 895.0989 -6.7453 864.3389 4.0047C815.0189 20.6047 767.1689 53.8047 731.0389 98.2347C713.9489 119.7247 718.8289 145.1147 738.8489 157.3247ZM683.6789 429.7847C705.1589 429.7847 722.7389 411.7147 722.7389 390.2347V265.7147C722.7389 244.2347 705.1589 226.6547 683.6789 226.6547C662.1889 226.6547 644.1289 244.2347 644.1289 265.7147V390.2347C644.1289 411.7147 662.1889 429.7847 683.6789 429.7847ZM683.6789 909.7647C775.9589 909.7647 882.8889 937.5947 962.9689 979.5847C985.9189 991.7947 1011.3089 986.9147 1026.9389 966.8947L1346.2689 560.1547C1378.4989 519.1347 1372.6389 474.2147 1331.6289 441.9847C1216.8789 354.0947 1011.3089 283.2947 786.6989 265.7147V348.2347C960.5289 363.8647 1127.0389 417.5747 1261.3089 503.0247C1272.5389 510.8347 1274.4989 518.6447 1265.7089 529.8747L987.8789 883.8847C979.5689 894.1347 976.1589 894.1347 965.8989 890.7147C869.7089 850.6847 769.6089 828.2147 683.6789 828.2147C651.9389 828.2147 618.7289 831.1447 584.0689 837.0047L329.1789 399.0147C409.2589 373.1447 494.2189 356.0547 580.6489 348.2347V265.7147C475.1789 274.0147 374.1089 294.0347 284.2589 321.8747L240.3189 246.1847C229.5689 228.1247 207.1089 220.7947 185.6289 232.0247C165.6089 242.2847 161.2189 267.1847 171.9589 285.7347L208.0889 348.2347C139.7289 375.5847 80.6489 407.3247 35.2389 442.4747C-5.7811 474.2147 -11.6411 519.1347 21.0789 560.1547L339.9289 966.8947C356.0389 986.9147 380.9389 991.7947 403.8889 979.5847C445.8789 957.6147 495.1989 939.5447 545.4889 927.3447L597.7389 1017.6747C582.5989 1036.2247 573.3189 1060.6447 573.3189 1086.5247C573.3189 1147.0647 622.6389 1196.3847 683.6789 1196.3847C743.2489 1196.3847 793.5389 1146.5747 793.5389 1086.5247C793.5389 1025.9747 743.7289 976.1647 683.6789 976.1647C677.8189 976.1647 671.9589 976.6547 666.0989 977.6347L628.4989 912.6947C647.0589 910.7347 665.6089 909.7647 683.6789 909.7647ZM379.4789 883.8847L101.1589 529.8747C92.8589 518.6447 94.3189 510.8347 106.0389 503.0247C151.9389 473.7247 201.2489 448.3347 253.9889 426.8547L503.4989 855.0747C469.3189 864.8447 435.1389 876.5547 401.4489 890.7147C391.1989 894.1347 387.7789 894.1347 379.4789 883.8847ZM683.6789 698.3347C705.1589 698.3347 722.7389 680.7547 722.7389 659.2747V534.7647C722.7389 513.2747 705.1589 495.2147 683.6789 495.2147C662.1889 495.2147 644.1289 513.2747 644.1289 534.7647V659.2747C644.1289 680.7547 662.1889 698.3347 683.6789 698.3347ZM683.6789 1131.4447C658.2889 1131.4447 638.2689 1111.4247 638.2689 1086.5247C638.2689 1061.1247 658.2889 1040.1347 683.6789 1040.1347C708.0889 1040.1347 729.5689 1061.6147 729.5689 1086.5247C729.5689 1111.4247 708.0889 1131.4447 683.6789 1131.4447Z"/>
</svg>