<?xml version="1.0" encoding="UTF-8" standalone="no"?>
<svg xmlns="http://www.w3.org/2000/svg"
     width="997.55859375" height="1036.1328125"
     viewBox="0 0 997.55859375 1036.1328125"
     fill="currentColor">
  <path d="M-0.0017 995.6055C-0.0017 1017.5755 18.5583 1036.1355 40.5283 1036.1355H957.0283C979.0083 1036.1355 997.5583 1017.5755 997.5583 995.6055C997.5583 973.1455 979.0083 955.0755 957.0283 955.0755H930.6683V72.7555C930.6683 29.2955 900.3883 -0.0045 855.4683 -0.0045H140.6283C95.6983 -0.0045 65.4283 29.2955 65.4283 72.7555V955.0755H40.5283C18.5583 955.0755 -0.0017 973.1455 -0.0017 995.6055ZM144.5283 318.3555V91.7955C144.5283 83.9855 149.4183 78.6155 156.7383 78.6155H466.3083V318.3555ZM530.2783 318.3555V78.6155H839.3583C846.6783 78.6155 851.5583 83.9855 851.5583 91.7955V318.3555ZM144.5283 636.2255V396.9755H466.3083V636.2255ZM530.2783 636.2255V396.9755H851.5583V636.2255ZM144.5283 955.0755V714.8455H466.3083V955.0755ZM530.2783 955.0755V714.8455H851.5583V955.0755Z"/>
</svg>