<?xml version="1.0" encoding="UTF-8" standalone="no"?>
<svg xmlns="http://www.w3.org/2000/svg"
     width="1115.7959296908323" height="966.30859375"
     viewBox="0 0 1115.7959296908323 966.30859375"
     fill="currentColor">
  <path d="M17.0043 525.3909C-23.0357 594.7309 10.6543 665.0409 86.3443 675.7809L100.9943 676.2709L52.6543 850.5909C33.1143 919.9209 68.2743 966.3109 139.5643 966.3109H801.1843C846.1043 966.3109 878.8243 939.9409 891.0343 896.4809L1109.2943 137.6909C1131.7543 59.5709 1095.1343 0.0009 1013.5843 0.0009H385.1743C320.7143 0.0009 303.1343 24.9009 273.8443 75.6809ZM236.7343 296.3909L348.0643 102.0509C358.3143 84.4709 367.5943 78.6109 386.6343 78.6109H668.3743L544.3543 296.3909ZM633.2143 296.3909L756.7543 78.6109H996.4943C1031.6543 78.6109 1043.3743 100.5809 1025.7943 131.3509L931.5543 296.3909ZM92.6943 546.3909L192.7843 372.5609H499.9143L371.0143 598.6309H122.4743C86.8343 598.6309 75.1143 577.6409 92.6943 546.3909ZM460.3643 598.6309L589.2743 372.5609H887.1243L770.9143 575.6809C761.1443 593.2609 751.3843 598.6309 731.8543 598.6309ZM844.6443 602.0509L949.1343 417.4809L825.1143 844.7309L754.3143 676.2709C802.6543 671.3909 818.7643 646.4809 844.6443 602.0509ZM130.7743 857.4209L181.0643 677.2509H669.3543L757.2443 887.2109H154.7043C134.6843 887.2109 125.4043 876.9509 130.7743 857.4209Z"/>
</svg>