<?xml version="1.0" encoding="UTF-8" standalone="no"?>
<svg xmlns="http://www.w3.org/2000/svg"
     width="996.09375" height="996.09375"
     viewBox="0 0 996.09375 996.09375"
     fill="currentColor">
  <path d="M498.0477 996.0977C770.5077 996.0977 996.0977 770.5077 996.0977 498.0477C996.0977 226.0777 770.0177 -0.0023 497.5577 -0.0023C225.5877 -0.0023 -0.0023 226.0777 -0.0023 498.0477C-0.0023 770.5077 226.0777 996.0977 498.0477 996.0977ZM689.4577 318.8477C680.6677 318.8477 675.2977 312.0077 675.7777 303.7077L677.2477 272.9477L651.8577 291.0177C645.5077 294.9177 634.7677 293.4577 631.8377 285.6477C628.4177 279.2977 629.3977 270.0177 638.1877 265.6277L665.0377 252.9277L638.1877 238.7677C629.8877 234.3777 628.4177 224.6077 632.3277 218.7477C635.7377 210.9377 645.5077 209.9577 651.8577 214.8477L677.2477 232.4177L675.2977 201.6577C674.8077 192.8677 680.6677 186.0377 689.4577 186.0377C697.7577 186.0377 703.1277 192.8677 702.6377 202.1477L701.1677 232.4177L726.5577 214.8477C732.4177 209.9577 743.1677 211.9177 746.5777 218.7477C749.9977 225.5877 748.0477 234.3777 739.7477 238.2777L712.8877 252.9277L739.7477 265.6277C748.5377 269.5277 750.9777 280.2777 746.0977 286.6177C742.6777 292.9677 732.4177 294.9177 726.5577 291.0177L701.1677 272.9477L702.6377 303.7077C703.1277 312.0077 697.7577 318.8477 689.4577 318.8477ZM201.1677 440.9177C185.0577 445.7977 170.8977 437.9877 167.4777 424.3177C162.5977 411.1377 169.4377 396.4877 185.5477 392.0877C230.9577 377.9277 281.7377 367.6777 331.5477 367.6777C390.1377 367.6777 431.6377 377.4377 482.4177 377.4377C509.2777 377.4377 525.3877 362.3077 525.3877 337.3977C525.3877 312.0077 508.7877 297.3677 486.3277 297.3677C468.7477 297.3677 455.0777 308.1077 448.7277 322.2677C441.4077 337.8877 426.2677 341.7977 413.5777 335.4477C399.4177 329.0977 396.9777 312.9877 402.8277 301.2677C416.0177 270.0177 448.7277 246.5777 486.3277 246.5777C536.1377 246.5777 577.1477 284.1777 577.1477 337.3977C577.1477 389.1577 539.5477 428.2177 482.4177 428.2177C429.1977 428.2177 387.6977 419.9177 331.5477 419.9177C288.5777 419.9177 244.6277 426.2677 201.1677 440.9177ZM675.7777 583.4977C571.7777 583.4977 481.4477 530.2777 360.8377 530.2777C301.2677 530.2777 250.4877 538.5777 201.6577 557.1277C185.0577 562.9877 170.8977 554.6877 167.4777 541.0177C162.5977 527.8277 169.9177 513.6677 185.0577 508.2977C239.2577 489.7477 298.3377 478.5177 360.8377 478.5177C483.8877 478.5177 583.9877 531.7377 675.7777 531.7377C722.6577 531.7377 751.4677 507.8077 751.4677 469.7277C751.4677 432.1277 724.6077 407.7177 689.4577 407.7177C660.1577 407.7177 636.7177 427.2477 631.8377 457.0277C628.9077 474.1177 615.7277 482.9077 601.5577 480.9577C588.3777 479.0077 578.1277 465.8177 581.0577 449.7077C587.8877 396.9677 632.3277 356.4477 689.4577 356.4477C751.9577 356.4477 802.7377 404.2977 802.7377 469.7277C802.7377 535.6477 749.5077 583.4977 675.7777 583.4977ZM482.9077 797.3677C432.6177 797.3677 398.9277 761.7177 393.5577 716.7977C391.1177 702.1477 397.9477 686.5277 416.5077 685.5477C433.1077 684.0777 443.3577 695.7977 445.7977 709.4677C449.7077 733.3977 460.9377 746.0977 482.9077 746.0977C503.9077 746.0977 520.0177 732.9077 520.0177 707.5177C520.0177 666.5077 466.3077 641.1177 356.9377 641.1177C302.7377 641.1177 249.5077 650.3877 201.6577 667.9677C185.0577 673.3377 170.8977 665.0377 167.4777 650.8777C162.5977 638.6677 169.9177 624.5077 185.0577 619.1377C237.7977 600.5877 300.7777 589.8477 356.9377 589.8477C494.6277 589.8477 571.7777 631.3477 571.7777 707.5177C571.7777 760.2577 532.2277 797.3677 482.9077 797.3677ZM679.6877 729.0077C673.3377 729.0077 669.4377 724.1177 669.9177 719.2377L670.8977 704.5877L658.6877 713.3777C654.7877 716.3077 646.9777 714.8477 645.0177 710.4477C643.5577 705.5677 643.0677 698.7277 649.4177 695.7977L662.5977 690.4277L649.4177 684.0777C643.0677 680.6677 643.5577 673.8277 645.5077 670.4077C647.9477 665.0377 654.7877 664.0577 658.6877 666.9877L670.8977 676.7577L669.4377 661.1377C668.9477 656.2477 673.3377 651.3677 679.6877 651.3677C684.5677 651.3677 688.9677 656.2477 688.4777 661.6177L687.0077 676.7577L699.2177 666.9877C702.6377 664.0577 710.4477 665.5277 712.8877 670.4077C714.3577 674.8077 714.3577 680.6677 708.4977 683.5977L694.8277 690.4277L708.4977 695.7977C714.3577 698.7277 715.3277 706.5477 712.3977 710.9377C709.9577 714.3577 702.6377 716.3077 699.2177 713.3777L687.0077 704.5877L688.4777 719.2377C688.9677 724.1177 684.5677 729.0077 679.6877 729.0077Z"/>
</svg>