<?xml version="1.0" encoding="UTF-8" standalone="no"?>
<svg xmlns="http://www.w3.org/2000/svg"
     width="1366.951630183213" height="1155.2734375"
     viewBox="0 0 1366.951630183213 1155.2734375"
     fill="currentColor">
  <path d="M70.8789 39.0658C70.8789 60.5458 88.9489 78.6158 110.4289 78.6158H377.5189C399.0089 78.6158 416.5889 60.5458 416.5889 39.0658C416.5889 17.5758 399.0089 -0.0042 377.5189 -0.0042H110.4289C88.9489 -0.0042 70.8789 17.5758 70.8789 39.0658ZM510.3389 39.0658C510.3389 60.5458 528.3989 78.6158 549.8889 78.6158H816.9789C838.4589 78.6158 856.5289 60.5458 856.5289 39.0658C856.5289 17.5758 838.4589 -0.0042 816.9789 -0.0042H549.8889C528.3989 -0.0042 510.3389 17.5758 510.3389 39.0658ZM950.2789 39.0658C950.2789 60.5458 967.8589 78.6158 989.3389 78.6158H1256.4289C1277.9089 78.6158 1295.9789 60.5458 1295.9789 39.0658C1295.9789 17.5758 1277.9089 -0.0042 1256.4289 -0.0042H989.3389C967.8589 -0.0042 950.2789 17.5758 950.2789 39.0658ZM683.6789 868.1658C775.9589 868.1658 882.4089 896.4858 962.9689 937.9858C985.9189 950.6858 1011.3089 945.3158 1026.9389 925.2958L1346.2689 519.0458C1378.4989 478.0258 1372.6389 433.1058 1331.6289 400.8758C1198.8089 298.3358 945.8789 220.2158 683.6789 220.2158C542.0689 220.2158 403.3989 242.6758 284.2589 279.7858L240.8089 205.0758C230.0589 186.5258 207.5989 179.6858 186.1189 190.4258C166.0989 200.6858 161.6989 226.0758 172.4489 244.6258L208.5789 306.6358C139.7289 333.9858 80.6489 366.2158 35.2389 400.8758C-5.7811 433.1058 -11.6411 478.0258 21.0789 519.0458L339.9289 925.2958C356.0389 945.3158 380.9389 950.6858 403.8889 937.9858C445.8789 916.5058 495.1989 898.4358 545.9789 885.7458L598.2289 976.0758C583.0889 995.1158 573.8089 1019.0458 573.8089 1044.9258C573.8089 1105.4658 623.1289 1155.2758 684.1589 1155.2758C743.7289 1155.2758 794.0289 1105.4658 794.0289 1044.9258C794.0289 984.3758 744.2189 934.5658 684.1589 934.5658C678.3089 934.5658 672.4489 935.0558 666.5889 936.0358L628.9889 871.5858C647.5389 869.1358 665.6089 868.1658 683.6789 868.1658ZM683.6789 786.6258C651.9389 786.6258 618.7289 789.5458 584.5589 795.4058L329.1789 356.9358C443.4389 319.3358 565.5089 299.8058 683.6789 299.8058C883.8689 299.8058 1096.2689 356.4458 1261.3089 461.4258C1272.5389 469.2358 1274.4989 477.5358 1265.7089 488.2858L987.8789 842.2858C979.5689 853.0258 976.1589 853.0258 965.8989 849.1258C869.7089 809.0858 769.6089 786.6258 683.6789 786.6258ZM379.4789 842.2858L101.1589 488.2858C92.8589 477.5358 94.3189 469.2358 106.0389 461.4258C151.9389 432.1258 201.7389 406.2458 253.9889 384.7658L503.9889 813.4758C469.8089 823.2458 435.1389 834.9658 401.4489 849.1258C391.1989 853.0258 387.7789 853.0258 379.4789 842.2858ZM684.1589 1089.8458C658.7689 1089.8458 638.7489 1069.8258 638.7489 1044.9258C638.7489 1020.0158 658.7689 999.0258 684.1589 999.0258C708.5789 999.0258 730.0589 1020.0158 730.0589 1044.9258C730.0589 1069.8258 708.5789 1089.8458 684.1589 1089.8458Z"/>
</svg>