<?xml version="1.0" encoding="UTF-8" standalone="no"?>
<svg xmlns="http://www.w3.org/2000/svg"
     width="1153.80859375" height="1164.55078125"
     viewBox="0 0 1153.80859375 1164.55078125"
     fill="currentColor">
  <path d="M39.0583 78.6086H275.3883C296.8783 78.6086 314.9383 61.0386 314.9383 39.5486C314.9383 18.0686 296.8783 -0.0014 275.3883 -0.0014H39.0583C17.5783 -0.0014 -0.0017 18.0686 -0.0017 39.5486C-0.0017 61.0386 17.5783 78.6086 39.0583 78.6086ZM458.4983 78.6086H694.8283C716.3083 78.6086 733.8883 61.0386 733.8883 39.5486C733.8883 18.0686 716.3083 -0.0014 694.8283 -0.0014H458.4983C437.0083 -0.0014 419.4383 18.0686 419.4383 39.5486C419.4383 61.0386 437.0083 78.6086 458.4983 78.6086ZM878.4183 78.6086H1114.2583C1135.7383 78.6086 1153.8083 61.0386 1153.8083 39.5486C1153.8083 18.0686 1135.7383 -0.0014 1114.2583 -0.0014H878.4183C856.4483 -0.0014 838.8683 18.0686 838.8683 39.5486C838.8683 61.0386 856.4483 78.6086 878.4183 78.6086ZM149.8983 907.2286H443.3583L492.1883 991.2086C478.0283 1009.2786 469.2383 1032.2286 469.2383 1057.1286C469.2383 1116.2086 517.5783 1164.5486 576.1683 1164.5486C634.7683 1164.5486 684.0783 1115.7186 684.0783 1057.1286C684.0783 998.5386 635.2583 949.7086 576.1683 949.7086C570.7983 949.7086 565.4283 950.1986 560.5483 950.6886L535.1583 907.2286H1004.8783C1104.0083 907.2286 1153.8083 857.9086 1153.8083 760.2586V423.3386C1153.8083 326.1686 1104.0083 276.3686 1004.8783 276.3686H167.4783L140.1383 229.4886C129.8783 211.4286 107.9083 204.5886 85.9383 214.8486C65.9183 226.0786 61.5283 250.4886 72.2683 269.0386L82.5183 286.6186C28.3183 305.6686 0.9783 351.5586 0.9783 423.3386V760.2586C0.9783 858.3986 51.2683 907.2286 149.8983 907.2286ZM1003.9083 354.9786C1049.3183 354.9786 1075.1983 379.3986 1075.1983 427.7386V756.3486C1075.1983 804.1986 1049.3183 828.6086 1003.9083 828.6086H489.2583L213.3783 354.9786ZM150.8783 828.6086C104.4883 828.6086 79.5883 804.1986 79.5883 756.3486V427.7386C79.5883 389.6486 95.2183 366.6986 124.5083 358.3986L397.9483 828.6086ZM576.1683 1098.6286C553.2183 1098.6286 534.6683 1080.5686 534.6683 1057.1286C534.6683 1033.6886 553.2183 1014.6486 576.1683 1014.6486C599.6083 1014.6486 618.6483 1034.1786 618.6483 1057.1286C618.6483 1080.5686 599.6083 1098.6286 576.1683 1098.6286Z"/>
</svg>