<?xml version="1.0" encoding="UTF-8" standalone="no"?>
<svg xmlns="http://www.w3.org/2000/svg"
     width="996.09375" height="996.09375"
     viewBox="0 0 996.09375 996.09375"
     fill="currentColor">
  <path d="M498.0477 996.0959C770.5077 996.0959 996.0977 770.0159 996.0977 498.0459C996.0977 225.5859 770.0177 -0.0041 497.5577 -0.0041C225.5877 -0.0041 -0.0023 225.5859 -0.0023 498.0459C-0.0023 770.0159 226.0777 996.0959 498.0477 996.0959ZM498.0477 913.0859C267.5777 913.0859 83.4977 728.5159 83.4977 498.0459C83.4977 267.5759 267.0877 83.0059 497.5577 83.0059C728.0277 83.0059 913.0877 267.5759 913.0877 498.0459C913.0877 728.5159 728.5177 913.0859 498.0477 913.0859ZM287.5977 488.7659C287.5977 501.9559 298.3377 513.1859 311.5277 513.1859H341.3077L373.0477 710.4459C375.9777 729.4959 390.1377 740.2359 407.7177 740.2359C425.2977 740.2359 439.4577 730.4659 442.8677 710.9359L475.5877 512.6959H519.5277L553.2277 710.9359C556.6377 730.4659 570.7977 740.2359 588.3777 740.2359C605.4677 740.2359 620.1177 729.4959 623.0477 710.4459L653.8077 512.6959H683.1077C696.7777 512.6959 707.0277 501.4659 707.0277 488.2859C707.0277 474.1259 696.7777 464.3559 683.1077 464.3559H661.6177L685.5477 310.0559C686.5277 305.1759 687.4977 301.2659 687.4977 295.8959C687.4977 278.8059 674.3177 268.5559 657.2277 268.5559C642.0877 268.5559 628.9077 277.3459 626.4677 294.4359L604.4877 464.3559H562.0077L533.6877 300.2959C530.7577 280.2759 514.6477 269.0459 497.0677 269.0459C478.5177 269.0459 463.8677 280.2759 460.4477 300.7859L432.6177 464.8459H391.1177L370.1177 294.9259C367.6777 277.8359 354.4877 269.0459 338.8677 269.0459C321.2877 269.0459 307.6177 279.7859 307.6177 296.8759C307.6177 302.7359 309.0777 307.6159 309.5677 312.0159L333.4977 464.8459H311.5277C298.3377 464.8459 287.5977 474.6059 287.5977 488.7659ZM484.3777 464.8459L497.5577 369.1359L511.7177 464.8459ZM397.4577 512.2059H425.7777L409.1777 626.9559ZM568.8477 512.2059H599.6077L586.4277 629.8859Z"/>
</svg>