<?xml version="1.0" encoding="UTF-8" standalone="no"?>
<svg xmlns="http://www.w3.org/2000/svg"
     width="996.09375" height="996.09375"
     viewBox="0 0 996.09375 996.09375"
     fill="currentColor">
  <path d="M498.0477 996.0959C770.5077 996.0959 996.0977 770.0159 996.0977 498.0459C996.0977 225.5859 770.0177 -0.0041 497.5577 -0.0041C225.5877 -0.0041 -0.0023 225.5859 -0.0023 498.0459C-0.0023 770.0159 226.0777 996.0959 498.0477 996.0959ZM281.2477 488.2859C281.2477 473.6359 292.4777 463.3759 306.1477 463.3759H328.6177L304.1977 306.1559C303.2277 301.2659 301.7577 296.3859 301.7577 290.5259C301.7577 272.4559 315.9177 261.2259 334.4777 261.2259C350.5877 261.2259 364.2577 270.5059 366.6977 288.0859L388.1877 463.3759H431.1477L459.4777 294.4359C462.8877 272.9459 478.5177 261.2259 497.5577 261.2259C515.6277 261.2259 532.7177 272.9459 535.6477 293.9459L564.4577 462.8859H608.3977L630.8577 287.5959C633.2977 270.0159 646.9777 260.7459 662.5977 260.7459C680.6677 260.7459 694.3377 271.4859 694.3377 289.0659C694.3377 294.9259 693.3577 298.8259 692.3877 303.7059L667.4777 462.8859H689.4577C703.6177 462.8859 714.3577 473.1459 714.3577 487.7959C714.3577 501.4659 703.6177 513.1859 689.4577 513.1859H659.1777L627.4377 716.7959C624.5077 736.8159 609.3777 748.0459 591.7977 748.0459C573.2377 748.0459 558.5977 737.7959 555.1777 717.2859L520.5077 513.1859H475.5877L441.8977 717.2859C438.4777 737.7959 423.8277 748.0459 405.2777 748.0459C387.2077 748.0459 372.5577 736.8159 369.6277 716.7959L336.9177 513.6759H306.1477C292.4777 513.6759 281.2477 501.9559 281.2477 488.2859ZM484.3777 463.3759H512.6977L498.0477 364.7459ZM395.0177 512.6959L406.7377 630.8559L423.8277 512.6959ZM571.7777 512.6959L589.8477 633.7859L603.0277 512.6959Z"/>
</svg>