<?xml version="1.0" encoding="UTF-8" standalone="no"?>
<svg xmlns="http://www.w3.org/2000/svg"
     width="1136.0610468573132" height="1163.2534247427914"
     viewBox="0 0 1136.0610468573132 1163.2534247427914"
     fill="currentColor">
  <path d="M60.0526 1103.0398C140.6226 1183.6098 260.2526 1186.5398 339.3526 1092.2998C397.4526 1022.4698 544.4326 785.6598 670.4026 659.6798C754.3926 575.6998 847.1626 620.1298 940.4226 582.0398L857.4126 279.3098C847.1626 241.7098 862.3026 210.4598 905.7526 198.7398L1088.8626 149.9198C1083.0026 132.8298 1066.8926 109.3898 1046.8726 88.8798C934.0826 -26.8402 747.5526 -28.3102 636.2226 77.1598C473.6326 231.9498 597.1626 395.5198 490.2326 502.4498C355.4626 636.7298 169.9126 734.3898 70.7926 823.2498C-21.9774 905.7698 -21.4874 1021.4998 60.0526 1103.0398ZM657.2226 372.5698C646.4826 375.4998 637.2026 370.1298 633.7826 358.4098C630.8526 349.6198 636.7126 338.8798 646.9726 335.9498L761.2226 305.1898C770.5026 302.7498 781.2426 308.6098 783.6826 318.8598C787.1026 330.0898 780.7526 339.8598 770.5026 342.7898ZM994.1326 558.6098C1013.1826 547.3798 1032.7126 532.7298 1052.7326 513.6798C1114.2526 458.0198 1145.9926 374.0398 1133.2926 314.4698L985.3426 354.9898C968.7426 359.3898 954.5826 360.3598 939.4526 357.9198ZM671.8726 430.6798C661.1326 433.6098 651.8526 428.2398 647.9426 416.5198C645.0126 407.7298 651.3626 396.9898 661.6126 394.5398L775.3826 363.2898C784.6626 361.3398 795.4026 366.7098 798.3326 376.9698C801.7526 388.1998 794.9126 397.9598 784.6626 400.8898ZM686.0326 488.7798C675.7726 491.7098 665.0326 486.3398 663.0826 474.6198C660.6426 464.8598 666.0126 455.5798 676.7526 452.6498L790.0326 422.3798C800.7726 418.9598 811.0326 425.3098 812.9826 435.0698C815.4226 444.8398 809.5626 455.5798 800.2926 458.0198ZM198.2426 1024.9198C165.0326 1024.9198 137.6926 998.0598 137.6926 964.8598C137.6926 931.6498 165.0326 904.3098 198.2426 904.3098C231.4426 904.3098 258.2926 931.6498 258.2926 964.8598C258.2926 998.0598 231.4426 1024.9198 198.2426 1024.9198Z"/>
</svg>