<?xml version="1.0" encoding="UTF-8" standalone="no"?>
<svg xmlns="http://www.w3.org/2000/svg"
     width="996.09375" height="996.09375"
     viewBox="0 0 996.09375 996.09375"
     fill="currentColor">
  <path d="M498.0477 996.0959C770.5077 996.0959 996.0977 770.0159 996.0977 498.0459C996.0977 225.5859 770.0177 -0.0041 497.5577 -0.0041C225.5877 -0.0041 -0.0023 225.5859 -0.0023 498.0459C-0.0023 770.0159 226.0777 996.0959 498.0477 996.0959ZM498.0477 913.0859C267.5777 913.0859 83.4977 728.5159 83.4977 498.0459C83.4977 267.5759 267.0877 83.0059 497.5577 83.0059C728.0277 83.0059 913.0877 267.5759 913.0877 498.0459C913.0877 728.5159 728.5177 913.0859 498.0477 913.0859ZM352.5377 721.6759C368.1677 721.6759 376.4677 716.3059 389.1577 699.2159L494.6277 548.8259H496.5777L602.0477 699.2159C614.2577 716.3059 623.0477 721.6759 638.1877 721.6759C660.1577 721.6759 676.7577 707.0359 676.7577 686.0359C676.7577 676.2659 673.8277 668.9459 667.4777 660.6459L544.9177 493.1659L668.4577 325.1959C675.2977 316.4059 677.7377 308.5959 677.7377 299.3159C677.7377 280.2759 661.6177 265.1359 641.1177 265.1359C625.9777 265.1359 616.2077 270.9959 605.4677 287.1059L503.4177 437.4959H500.9777L396.9777 286.6259C385.7377 270.9959 376.4677 265.1359 359.8677 265.1359C338.8677 265.1359 321.7777 281.7359 321.7777 301.2659C321.7777 312.0159 324.2177 318.8459 332.0277 329.5859L449.2177 490.7259L324.7077 662.5959C318.8477 671.3859 316.4077 678.2259 316.4077 687.9859C316.4077 707.0359 332.0277 721.6759 352.5377 721.6759Z"/>
</svg>