<?xml version="1.0" encoding="UTF-8" standalone="no"?>
<svg xmlns="http://www.w3.org/2000/svg"
     width="898.92578125" height="898.92578125"
     viewBox="0 0 898.92578125 898.92578125"
     fill="currentColor">
  <path d="M153.3183 898.9295H745.6083C848.1483 898.9295 898.9283 848.1495 898.9283 747.5595V151.3695C898.9283 50.7795 848.1483 -0.0005 745.6083 -0.0005H153.3183C51.2683 -0.0005 -0.0017 50.2895 -0.0017 151.3695V747.5595C-0.0017 848.6295 51.2683 898.9295 153.3183 898.9295ZM154.2983 820.3095C105.4683 820.3095 78.6183 794.4295 78.6183 743.6495V155.2695C78.6183 104.4895 105.4683 78.6095 154.2983 78.6095H744.6283C792.9683 78.6095 820.3083 104.4895 820.3083 155.2695V743.6495C820.3083 794.4295 792.9683 820.3095 744.6283 820.3095ZM304.6883 672.3595C320.3083 672.3595 329.0983 666.9895 341.3083 649.8995L446.7783 499.5095H448.7283L554.1983 649.8995C566.4083 666.9895 575.1983 672.3595 590.8183 672.3595C612.7883 672.3595 628.9083 657.7195 628.9083 636.7195C628.9083 626.9495 625.9783 619.6295 619.6283 611.3295L497.0683 443.8495L620.6083 275.8795C627.4383 267.0895 630.3683 259.2795 630.3683 249.9995C630.3683 230.9595 613.7683 215.8195 593.2583 215.8195C578.1283 215.8195 568.3583 221.6795 557.6183 237.7895L456.0583 388.1795H453.1283L349.1183 237.3095C337.8883 221.6795 328.6183 215.8195 312.0083 215.8195C291.0183 215.8195 273.9283 232.4195 273.9283 251.9495C273.9283 262.6995 276.8583 269.5295 284.1783 280.2695L401.3683 441.4095L277.3483 613.2795C270.9983 622.0695 268.5583 628.9095 268.5583 638.6695C268.5583 657.7195 284.1783 672.3595 304.6883 672.3595Z"/>
</svg>