<?xml version="1.0" encoding="UTF-8" standalone="no"?>
<svg xmlns="http://www.w3.org/2000/svg"
     width="1161.62109375" height="898.92578125"
     viewBox="0 0 1161.62109375 898.92578125"
     fill="currentColor">
  <path d="M83.0083 222.1695H1078.6183C1133.7883 222.1695 1161.6183 189.4495 1161.6183 134.7695V87.3995C1161.6183 32.7195 1133.7883 -0.0005 1078.6183 -0.0005H83.0083C30.7583 -0.0005 -0.0017 32.7195 -0.0017 87.3995V134.7695C-0.0017 189.4495 27.8283 222.1695 83.0083 222.1695ZM324.2183 898.9295H836.9183C933.1083 898.9295 971.6783 848.1495 985.8383 753.4195L1055.1783 288.5695H105.9583L175.7783 753.4195C189.9383 848.6295 228.5183 898.9295 324.2183 898.9295ZM435.0583 763.6695C413.5783 763.6695 395.5083 745.1195 395.5083 724.1195C395.5083 712.8895 400.8783 704.0995 407.7183 697.2695L525.8783 578.1295L407.7183 458.4995C400.8783 451.6595 395.5083 442.8695 395.5083 431.6395C395.5083 410.6395 413.5783 393.5595 435.0583 393.5595C445.3083 393.5595 453.1283 398.4395 461.4283 405.2695L580.5683 523.9295L700.6883 404.7895C708.9883 397.4595 717.2883 392.5795 727.0483 392.5795C749.0283 392.5795 766.5983 410.1595 766.5983 431.6395C766.5983 442.3795 761.7183 449.7095 754.3983 458.0095L635.7383 578.1295L753.9083 696.7795C760.7383 704.0995 766.1183 712.3995 766.1183 724.1195C766.1183 745.1195 748.0483 763.6695 727.0483 763.6695C715.8183 763.6695 707.0283 757.8095 699.7083 751.4695L580.5683 632.3195L461.9183 751.4695C454.5883 758.2995 445.3083 763.6695 435.0583 763.6695Z"/>
</svg>