<?xml version="1.0" encoding="UTF-8" standalone="no"?>
<svg xmlns="http://www.w3.org/2000/svg"
     width="900.390625" height="895.99609375"
     viewBox="0 0 900.390625 895.99609375"
     fill="currentColor">
  <path d="M843.2583 57.6147C793.4583 7.8147 723.1483 0.0047 639.6483 0.0047H259.2783C177.2483 0.0047 106.9383 7.8147 57.1283 57.6147C7.3283 107.4247 -0.0017 177.2447 -0.0017 258.7847V635.7447C-0.0017 719.2347 7.3283 788.5747 57.1283 838.3747C106.9383 888.1847 177.2483 895.9947 260.2583 895.9947H639.6483C723.1483 895.9947 793.4583 888.1847 843.2583 838.3747C893.0683 788.5747 900.3883 719.2347 900.3883 635.7447V260.2547C900.3883 176.7547 893.0683 106.9347 843.2583 57.6147ZM821.7783 246.5847V648.9247C821.7783 699.7047 815.4283 751.4647 785.6483 781.2547C756.3483 810.5447 703.6183 817.3847 653.3183 817.3847H247.0683C196.7783 817.3847 144.0383 810.5447 114.2583 781.2547C84.9583 751.4647 78.6183 699.7047 78.6183 648.9247V248.0447C78.6183 196.7747 84.9583 144.0447 114.2583 114.7447C144.0383 84.9647 197.2683 78.6147 248.5383 78.6147H653.3183C703.6183 78.6147 756.3483 85.4447 785.6483 114.7447C815.4283 144.5347 821.7783 196.2847 821.7783 246.5847ZM284.1783 653.8047C294.9183 653.8047 304.6883 649.4147 312.0083 641.6047L450.1983 502.9247L589.3583 641.6047C596.6783 648.9247 605.9583 653.8047 617.1883 653.8047C639.1583 653.8047 656.7383 636.2347 656.7383 614.2547C656.7383 603.0247 652.3483 594.2347 644.5283 586.4247L505.8583 447.7547L645.0183 308.1047C653.3183 299.8047 657.2283 291.5047 657.2283 280.7647C657.2283 259.2747 639.6483 241.6947 617.6783 241.6947C607.4183 241.6947 599.1183 245.6047 590.8183 253.9047L450.1983 393.0647L311.0383 254.3947C303.7083 246.5847 294.9183 242.6747 284.1783 242.6747C262.2083 242.6747 244.6283 259.7647 244.6283 281.2547C244.6283 291.9947 249.0283 301.2647 256.8383 308.5947L395.5083 447.7547L256.8383 586.9147C249.0283 594.2347 244.6283 603.5147 244.6283 614.2547C244.6283 636.2347 262.2083 653.8047 284.1783 653.8047Z"/>
</svg>