<?xml version="1.0" encoding="UTF-8" standalone="no"?>
<svg xmlns="http://www.w3.org/2000/svg"
     width="1003.41796875" height="965.8203125"
     viewBox="0 0 1003.41796875 965.8203125"
     fill="currentColor">
  <path d="M353.5183 965.8192H649.8983C711.9183 965.8192 741.2083 945.7992 773.4383 911.1292L962.8883 702.1492C994.6283 666.9892 1003.4183 643.0692 1003.4183 594.7292V371.5792C1003.4183 322.7492 994.6283 299.3192 962.8883 264.1592L773.4383 55.1792C741.2083 20.5092 711.9183 -0.0008 649.8983 -0.0008H353.5183C291.5083 -0.0008 261.7183 20.5092 229.9783 55.1792L40.5283 264.1592C8.2983 299.3192 -0.0017 322.7492 -0.0017 371.5792V594.7292C-0.0017 643.0692 8.2983 666.9892 40.5283 702.1492L229.9783 911.1292C261.7183 945.7992 291.5083 965.8192 353.5183 965.8192ZM379.8783 887.6992C331.0583 887.6992 316.8983 876.9492 290.0383 847.6592L113.7683 654.7892C94.7283 633.2992 90.3283 621.0892 90.3283 585.4492V380.8592C90.3283 345.2192 94.7283 333.0092 113.7683 311.5192L290.0383 118.6492C316.8983 88.8692 331.0583 78.6092 379.8783 78.6092H623.5383C672.3683 78.6092 686.0383 88.8692 713.3783 118.6492L889.1583 311.5192C908.6883 333.0092 913.0883 345.2192 913.0883 380.8592V585.4492C913.0883 621.0892 908.6883 633.2992 889.1583 654.7892L713.3783 847.6592C686.0383 876.9492 672.3683 887.6992 623.5383 887.6992ZM335.4483 689.4492C346.1883 689.4492 355.9583 685.0592 363.2783 677.2492L501.9483 538.5692L640.6283 677.2492C647.9483 684.5692 657.7183 689.4492 668.9483 689.4492C690.4283 689.4492 708.0083 671.8792 708.0083 649.8992C708.0083 638.6692 703.6183 629.8792 696.2883 622.0692L557.6183 483.3992L696.7783 343.7492C704.5883 335.4492 708.4983 327.1492 708.4983 316.4092C708.4983 294.9192 690.9183 277.3392 669.4383 277.3392C659.1783 277.3392 650.3883 281.2492 642.0883 289.5492L501.9483 428.7092L362.3083 290.0392C354.9783 282.2292 346.1883 278.3192 335.4483 278.3192C313.9683 278.3192 296.3883 295.4092 296.3883 316.8992C296.3883 327.6392 300.2883 336.9092 308.1083 344.2392L446.7783 483.3992L308.1083 622.5592C300.2883 629.8792 296.3883 639.1592 296.3883 649.8992C296.3883 671.8792 313.9683 689.4492 335.4483 689.4492Z"/>
</svg>