<?xml version="1.0" encoding="UTF-8" standalone="no"?>
<svg xmlns="http://www.w3.org/2000/svg"
     width="996.09375" height="996.09375"
     viewBox="0 0 996.09375 996.09375"
     fill="currentColor">
  <path d="M498.0477 996.0928C770.5077 996.0928 996.0977 770.0228 996.0977 498.0428C996.0977 225.5828 770.0177 0.0028 497.5577 0.0028C225.5877 0.0028 -0.0023 225.5828 -0.0023 498.0428C-0.0023 770.0228 226.0777 996.0928 498.0477 996.0928ZM498.0477 913.0828C267.5777 913.0828 83.4977 728.0228 83.4977 498.0428C83.4977 267.5828 267.0877 83.0028 497.5577 83.0028C728.0277 83.0028 913.0877 267.5828 913.0877 498.0428C913.0877 728.0228 728.5177 913.0828 498.0477 913.0828ZM234.3777 412.1128H760.7377C790.0377 412.1128 805.1777 394.5328 805.1777 365.7228V340.8228C805.1777 311.5228 790.0377 294.4328 760.7377 294.4328H234.3777C206.5477 294.4328 189.9377 311.5228 189.9377 340.8228V365.7228C189.9377 394.5328 205.0777 412.1128 234.3777 412.1128ZM361.8177 770.5028H633.2977C684.0777 770.5028 704.5877 743.6528 711.9177 693.3628L747.0677 451.6628H248.5377L283.2077 693.3628C290.5277 743.6528 311.5277 770.5028 361.8177 770.5028ZM423.3377 700.1928C411.1377 700.1928 401.8577 690.4328 401.8577 679.2028C401.8577 673.3428 404.2977 668.4528 408.6877 664.5528L467.7777 604.9828L408.6877 544.9228C404.2977 541.0128 401.8577 536.1328 401.8577 530.2728C401.8577 519.0428 411.1377 509.2728 423.3377 509.2728C428.7077 509.2728 433.5977 511.7228 437.4977 515.6228L497.0677 575.1928L557.6177 515.6228C561.5277 511.7228 566.4077 508.7928 571.7777 508.7928C583.9877 508.7928 593.2577 518.5528 593.2577 530.2728C593.2577 535.6428 591.3077 540.5228 586.9177 544.9228L527.3477 604.9828L586.9177 664.5528C590.3277 668.4528 592.7777 673.3428 592.7777 679.2028C592.7777 690.4328 583.4977 700.1928 571.7777 700.1928C565.9177 700.1928 561.0377 697.2628 557.1277 693.8428L497.0677 634.7628L437.9877 693.8428C434.0777 697.7528 428.7077 700.1928 423.3377 700.1928Z"/>
</svg>