<?xml version="1.0" encoding="UTF-8" standalone="no"?>
<svg xmlns="http://www.w3.org/2000/svg"
     width="996.09375" height="996.09375"
     viewBox="0 0 996.09375 996.09375"
     fill="currentColor">
  <path d="M498.0477 996.0959C770.5077 996.0959 996.0977 770.0159 996.0977 498.0459C996.0977 225.5859 770.0177 -0.0041 497.5577 -0.0041C225.5877 -0.0041 -0.0023 225.5859 -0.0023 498.0459C-0.0023 770.0159 226.0777 996.0959 498.0477 996.0959ZM498.0477 913.0859C267.5777 913.0859 83.4977 728.5159 83.4977 498.0459C83.4977 267.5759 267.0877 83.0059 497.5577 83.0059C728.0277 83.0059 913.0877 267.5759 913.0877 498.0459C913.0877 728.5159 728.5177 913.0859 498.0477 913.0859ZM331.0577 704.5859C342.2877 704.5859 352.0477 700.1959 359.3777 692.3859L497.5577 553.7059L636.7177 692.3859C644.0477 699.7059 653.3177 704.5859 664.5477 704.5859C686.0377 704.5859 703.6177 687.0159 703.6177 665.0359C703.6177 653.8059 699.7077 645.0159 691.8977 637.2059L553.2277 498.5359L692.3877 358.8859C700.6877 350.5859 704.0977 342.2859 704.0977 331.5459C704.0977 310.0559 686.5277 292.4759 665.0377 292.4759C654.7877 292.4759 646.4877 296.3859 638.1877 304.6859L497.5577 443.8459L358.3977 305.1759C351.0777 297.3659 342.2877 293.4559 331.0577 293.4559C309.5677 293.4559 291.9877 310.5459 291.9877 332.0359C291.9877 342.7759 296.3877 352.0459 303.7077 359.3759L442.3877 498.5359L303.7077 637.6959C296.3877 645.0159 291.9877 654.2959 291.9877 665.0359C291.9877 687.0159 309.5677 704.5859 331.0577 704.5859Z"/>
</svg>