<?xml version="1.0" encoding="UTF-8" standalone="no"?>
<svg xmlns="http://www.w3.org/2000/svg"
     width="1151.3671875" height="898.92578125"
     viewBox="0 0 1151.3671875 898.92578125"
     fill="currentColor">
  <path d="M153.3183 898.9278H998.0483C1100.5883 898.9278 1151.3683 848.6378 1151.3683 748.0478V151.3678C1151.3683 50.7778 1100.5883 -0.0022 998.0483 -0.0022H153.3183C51.2683 -0.0022 -0.0017 50.7778 -0.0017 151.3678V748.0478C-0.0017 848.6378 51.2683 898.9278 153.3183 898.9278ZM154.2983 820.3078C105.4683 820.3078 78.6183 794.4378 78.6183 743.6478V155.7578C78.6183 104.9778 105.4683 78.6178 154.2983 78.6178H997.0683C1045.4083 78.6178 1072.7583 104.9778 1072.7583 155.7578V743.6478C1072.7583 794.4378 1045.4083 820.3078 997.0683 820.3078ZM409.6683 655.7578C420.4083 655.7578 430.1783 651.3678 437.4983 643.5578L576.1683 504.8778L714.8483 643.5578C722.1683 650.8778 731.9383 655.7578 743.1683 655.7578C764.6483 655.7578 782.2283 638.1878 782.2283 616.2078C782.2283 604.9778 777.8283 596.1878 770.5083 588.3778L631.8383 449.7078L770.9983 310.0578C778.8083 301.7578 782.7183 293.4578 782.7183 282.7178C782.7183 261.2278 765.1383 243.6478 743.6483 243.6478C733.3983 243.6478 724.6083 247.5578 716.3083 255.8578L576.1683 395.0178L436.5283 256.3478C429.1983 248.5378 420.4083 244.6278 409.6683 244.6278C387.6983 244.6278 370.6083 261.7178 370.6083 283.2078C370.6083 293.9478 374.5083 303.2178 382.3283 310.5478L520.9983 449.7078L382.3283 588.8678C374.5083 596.1878 370.6083 605.4678 370.6083 616.2078C370.6083 638.1878 387.6983 655.7578 409.6683 655.7578Z"/>
</svg>