<?xml version="1.0" encoding="UTF-8" standalone="no"?>
<svg xmlns="http://www.w3.org/2000/svg"
     width="1227.5390625" height="848.6328125"
     viewBox="0 0 1227.5390625 848.6328125"
     fill="currentColor">
  <path d="M964.8477 848.6363C1112.3077 848.6363 1227.5377 740.7262 1227.5377 606.4463C1227.5377 503.9063 1168.4577 415.0363 1073.2377 374.9962C1074.2177 157.2263 917.4777 -0.0037 717.7777 -0.0037C585.4477 -0.0037 491.2077 70.7962 432.6177 156.2463C312.4977 121.0963 181.6377 212.4063 179.1977 349.1163C68.8477 366.6963 -0.0023 465.3363 -0.0023 584.4762C-0.0023 728.0263 125.4877 848.6363 292.4777 848.6363ZM513.1877 640.1363C497.5577 655.2763 475.5877 652.3463 460.9377 638.6763C446.7777 625.4863 444.8277 603.0263 459.9577 587.4063L560.0577 486.3263L459.9577 385.2563C444.8277 369.6263 447.7577 348.1463 461.4277 333.4962C474.6077 319.3363 497.5577 317.3863 513.1877 332.5163L613.7677 432.6163L714.3577 332.5163C730.4677 316.8963 752.4377 320.3163 766.5977 333.4962C781.2477 347.1663 783.2077 369.6263 768.0677 385.2563L667.4777 486.3263L768.0677 587.4063C783.2077 603.0263 779.7877 624.5163 766.5977 639.1563C752.9277 653.3163 730.4677 655.2763 714.3577 640.1363L613.7677 540.0363Z"/>
</svg>