<?xml version="1.0" encoding="UTF-8" standalone="no"?>
<svg xmlns="http://www.w3.org/2000/svg"
     width="1003.41796875" height="965.8203125"
     viewBox="0 0 1003.41796875 965.8203125"
     fill="currentColor">
  <path d="M353.5183 965.8192H649.8983C711.9183 965.8192 741.2083 945.7992 773.4383 911.1292L962.8883 702.1492C994.6283 666.9892 1003.4183 643.0692 1003.4183 594.7292V371.5792C1003.4183 322.7492 994.6283 299.3192 962.8883 264.1592L773.4383 55.1792C741.2083 20.5092 711.9183 -0.0008 649.8983 -0.0008H353.5183C291.5083 -0.0008 261.7183 20.5092 229.9783 55.1792L40.5283 264.1592C8.2983 299.3192 -0.0017 322.7492 -0.0017 371.5792V594.7292C-0.0017 643.0692 8.2983 666.9892 40.5283 702.1492L229.9783 911.1292C261.7183 945.7992 291.5083 965.8192 353.5183 965.8192ZM337.8883 687.9892C315.4283 687.9892 297.3683 669.9192 297.3683 647.4592C297.3683 636.7192 301.7583 626.4692 309.5683 619.1392L444.8283 483.3992L309.5683 348.1492C301.7583 340.3292 297.3683 330.5692 297.3683 319.8192C297.3683 296.8792 315.4283 279.7892 337.8883 279.7892C349.1183 279.7892 357.9083 283.6892 365.7183 291.0192L501.9483 426.7592L639.1583 290.5292C647.4583 282.2292 656.2483 278.8092 666.9883 278.8092C689.4483 278.8092 707.0283 296.3892 707.0283 318.8492C707.0283 330.0792 704.0983 338.8692 695.3083 347.6592L559.5683 483.3992L694.8283 618.6492C703.1283 625.9792 706.5383 636.2292 706.5383 647.4592C706.5383 669.9192 688.9683 687.9892 666.0183 687.9892C654.7883 687.9892 644.5283 684.0792 637.2083 676.2692L501.9483 540.5292L367.1883 676.2692C359.3783 684.0792 349.1183 687.9892 337.8883 687.9892Z"/>
</svg>