<?xml version="1.0" encoding="UTF-8" standalone="no"?>
<svg xmlns="http://www.w3.org/2000/svg"
     width="996.09375" height="996.09375"
     viewBox="0 0 996.09375 996.09375"
     fill="currentColor">
  <path d="M498.0477 996.0977C770.5077 996.0977 996.0977 770.5077 996.0977 498.0477C996.0977 226.0777 770.0177 -0.0023 497.5577 -0.0023C225.5877 -0.0023 -0.0023 226.0777 -0.0023 498.0477C-0.0023 770.5077 226.0777 996.0977 498.0477 996.0977ZM226.5577 408.2077C196.2877 408.2077 180.6677 390.1377 180.6677 360.8377V335.4477C180.6677 305.1777 197.7577 287.1077 226.5577 287.1077H769.5277C799.8077 287.1077 815.4277 305.1777 815.4277 335.4477V360.8377C815.4277 390.1377 799.8077 408.2077 769.5277 408.2077ZM357.9077 777.8277C306.1477 777.8277 284.6677 750.9777 276.8577 698.2377L241.2077 449.2177H755.3677L719.2377 698.2377C711.4277 750.4877 690.4277 777.8277 638.1877 777.8277ZM421.3877 706.0577C427.2477 706.0577 432.6177 703.1277 436.5277 699.7077L497.5577 638.1877L559.5677 699.7077C563.4777 702.6377 568.3577 706.0577 574.7077 706.0577C586.4277 706.0577 596.1877 695.3077 596.1877 684.0777C596.1877 677.7377 593.7477 672.8477 590.3277 668.9477L528.8077 607.4177L590.3277 545.8977C594.7277 541.0177 596.6777 536.6177 596.6777 530.2777C596.6777 518.0677 587.3977 508.7877 574.7077 508.7877C568.8477 508.7877 563.9677 511.2277 560.0577 515.6277L497.5577 577.1477L436.0377 515.6277C432.1277 511.2277 427.2477 509.2777 421.3877 509.2777C408.6877 509.2777 399.4177 518.5577 399.4177 530.2777C399.4177 537.1077 401.8577 541.5077 406.2477 545.8977L467.2877 607.4177L406.2477 668.9477C401.8577 672.8477 399.4177 677.7377 399.4177 684.0777C399.4177 695.3077 408.6877 706.0577 421.3877 706.0577Z"/>
</svg>