<?xml version="1.0" encoding="UTF-8" standalone="no"?>
<svg xmlns="http://www.w3.org/2000/svg"
     width="996.09375" height="996.09375"
     viewBox="0 0 996.09375 996.09375"
     fill="currentColor">
  <path d="M498.0477 996.0959C770.5077 996.0959 996.0977 770.0159 996.0977 498.0459C996.0977 225.5859 770.0177 -0.0041 497.5577 -0.0041C225.5877 -0.0041 -0.0023 225.5859 -0.0023 498.0459C-0.0023 770.0159 226.0777 996.0959 498.0477 996.0959ZM498.0477 913.0859C267.5777 913.0859 83.4977 728.5159 83.4977 498.0459C83.4977 267.5759 267.0877 83.0059 497.5577 83.0059C728.0277 83.0059 913.0877 267.5759 913.0877 498.0459C913.0877 728.5159 728.5177 913.0859 498.0477 913.0859ZM497.5577 721.6759C522.9477 721.6759 537.1077 705.0759 537.1077 677.7359V550.2959L674.3177 321.7759C678.7077 314.9459 680.6677 307.1259 680.6677 300.2959C680.6677 280.2759 666.0177 265.1359 645.5077 265.1359C628.4177 265.1359 619.6277 271.4859 609.3777 289.5459L499.5077 477.0459H496.5777L387.2077 289.5459C376.9577 270.9959 367.6777 265.1359 350.0977 265.1359C330.0777 265.1359 314.4577 280.7659 314.4577 299.3159C314.4577 306.6359 316.4077 313.9659 320.7977 321.7759L458.9877 551.2659V677.7359C458.9877 704.1059 472.6577 721.6759 497.5577 721.6759Z"/>
</svg>