<?xml version="1.0" encoding="UTF-8" standalone="no"?>
<svg xmlns="http://www.w3.org/2000/svg"
     width="669.921875" height="904.296875"
     viewBox="0 0 669.921875 904.296875"
     fill="currentColor">
  <path d="M100.5883 700.6875H289.5483V856.9375C289.5483 884.7675 308.1083 904.2975 334.9583 904.2975C362.3083 904.2975 380.8583 884.7675 380.8583 856.9375V700.6875H573.7283C592.2883 700.6875 604.4883 687.0075 604.4883 668.9475C604.4883 650.8775 592.7783 636.7175 573.7283 636.7175H380.8583V533.2075H573.7283C592.2883 533.2075 604.4883 519.5275 604.4883 501.4675C604.4883 483.3975 592.2883 469.7275 573.7283 469.7275H413.0883L660.1583 71.7775C667.4783 60.5475 669.9183 51.7575 669.9183 41.0175C669.9183 17.5775 650.3883 -0.0025 624.5083 -0.0025C606.9383 -0.0025 593.2583 7.3275 583.4983 24.4175L336.9183 437.4975H333.4983L86.9183 24.4175C76.6583 7.3275 62.9883 -0.0025 45.4083 -0.0025C20.0183 -0.0025 -0.0017 17.5775 -0.0017 41.0175C-0.0017 51.7575 2.9283 60.5475 9.7683 71.7775L256.8383 469.7275H100.5883C82.0283 469.7275 69.8283 483.3975 69.8283 501.4675C69.8283 519.5275 82.0283 533.2075 100.5883 533.2075H289.5483V636.7175H100.5883C82.0283 636.7175 69.8283 650.8775 69.8283 668.9475C69.8283 686.5275 82.0283 700.6875 100.5883 700.6875Z"/>
</svg>