<?xml version="1.0" encoding="UTF-8" standalone="no"?>
<svg xmlns="http://www.w3.org/2000/svg"
     width="996.09375" height="996.09375"
     viewBox="0 0 996.09375 996.09375"
     fill="currentColor">
  <path d="M498.0477 996.0959C770.5077 996.0959 996.0977 770.0159 996.0977 498.0459C996.0977 225.5859 770.0177 -0.0041 497.5577 -0.0041C225.5877 -0.0041 -0.0023 225.5859 -0.0023 498.0459C-0.0023 770.0159 226.0777 996.0959 498.0477 996.0959ZM498.0477 913.0859C267.5777 913.0859 83.4977 728.5159 83.4977 498.0459C83.4977 267.5759 267.0877 83.0059 497.5577 83.0059C728.0277 83.0059 913.0877 267.5759 913.0877 498.0459C913.0877 728.5159 728.5177 913.0859 498.0477 913.0859ZM356.9377 715.8159H643.0677C661.6177 715.8159 675.7777 703.6159 675.7777 684.0859C675.7777 664.0659 661.6177 651.8559 643.0677 651.8559H423.8277V647.9459L647.9477 336.9159C657.7177 323.7259 659.6677 316.8959 659.6677 305.6659C659.6677 285.1559 645.0177 270.9959 623.5377 270.9959H352.5377C333.9877 270.9959 320.3077 283.2059 320.3077 302.7359C320.3077 322.7559 333.9877 334.9559 352.5377 334.9559H559.5677V338.8659L334.9577 649.9059C324.2177 665.0359 321.7777 671.8759 321.7777 682.6159C321.7777 702.1459 335.9377 715.8159 356.9377 715.8159Z"/>
</svg>