<?xml version="1.0" encoding="UTF-8" standalone="no"?>
<svg xmlns="http://www.w3.org/2000/svg"
     width="996.09375" height="996.09375"
     viewBox="0 0 996.09375 996.09375"
     fill="currentColor">
  <path d="M498.0477 996.0959C770.5077 996.0959 996.0977 770.0159 996.0977 498.0459C996.0977 225.5859 770.0177 -0.0041 497.5577 -0.0041C225.5877 -0.0041 -0.0023 225.5859 -0.0023 498.0459C-0.0023 770.0159 226.0777 996.0959 498.0477 996.0959ZM353.0277 722.6559C331.0577 722.6559 316.4077 708.4959 316.4077 688.4759C316.4077 677.2459 319.3377 670.4059 330.0777 654.7859L561.5277 334.4759V330.0759H348.6377C329.0977 330.0759 314.9377 317.8759 314.9377 296.8759C314.9377 276.8559 329.0977 264.1559 348.6377 264.1559H627.9277C650.3877 264.1559 665.5277 278.8059 665.5277 299.8059C665.5277 311.5259 663.0877 318.3559 653.3177 332.0359L422.3677 652.3459V656.7359H647.9477C667.4777 656.7359 682.1277 668.9459 682.1277 689.9459C682.1277 709.9559 667.4777 722.6559 647.9477 722.6559Z"/>
</svg>