<?xml version="1.0" encoding="UTF-8" standalone="no"?>
<svg xmlns="http://www.w3.org/2000/svg"
     width="898.92578125" height="898.92578125"
     viewBox="0 0 898.92578125 898.92578125"
     fill="currentColor">
  <path d="M153.3183 898.9295H745.6083C848.1483 898.9295 898.9283 848.1495 898.9283 747.5595V151.3695C898.9283 50.7795 848.1483 -0.0005 745.6083 -0.0005H153.3183C51.2683 -0.0005 -0.0017 50.2895 -0.0017 151.3695V747.5595C-0.0017 848.6295 51.2683 898.9295 153.3183 898.9295ZM304.6883 673.3395C283.1983 673.3395 268.0683 659.1795 268.0683 639.1595C268.0683 627.9295 271.4883 621.0895 281.7383 605.4695L513.1883 285.1595V280.7595H300.7783C280.7583 280.7595 266.5983 268.5595 266.5983 247.5595C266.5983 227.5395 280.7583 214.8395 300.7783 214.8395H580.0783C602.0483 214.8395 617.1883 229.4895 617.1883 250.4895C617.1883 262.2095 614.7483 269.0395 604.9783 282.7195L374.0283 603.0295V607.4195H599.6083C619.6283 607.4195 633.7883 619.6295 633.7883 640.6295C633.7883 660.6395 619.6283 673.3395 599.6083 673.3395Z"/>
</svg>