<?xml version="1.0" encoding="UTF-8" standalone="no"?>
<svg xmlns="http://www.w3.org/2000/svg"
     width="1180.6640625" height="898.92578125"
     viewBox="0 0 1180.6640625 898.92578125"
     fill="currentColor">
  <path d="M419.9177 -0.0005C128.9077 -0.0005 -0.0023 133.2995 -0.0023 406.7395V747.5595C-0.0023 848.6295 51.2677 898.9295 153.3177 898.9295H1027.3477C1129.3977 898.9295 1180.6677 848.1495 1180.6677 747.5595V406.7395C1180.6677 133.2995 1051.7577 -0.0005 761.2277 -0.0005ZM419.9177 79.5895H760.7377C998.0477 79.5895 1102.0477 183.1095 1102.0477 402.3395V743.6495C1102.0477 794.4295 1074.7077 820.3095 1026.3677 820.3095H154.2977C105.4677 820.3095 78.6177 794.4295 78.6177 743.6495V402.3395C78.6177 183.1095 182.6177 79.5895 419.9177 79.5895ZM248.5377 669.4295H535.1577C553.7077 669.4295 567.3877 656.7395 567.3877 637.2095C567.3877 617.1895 553.7077 605.4695 535.1577 605.4695H315.4277V601.5595L539.5477 290.0395C549.3177 276.8595 551.7577 270.5095 551.7577 258.7895C551.7577 238.7695 536.6177 224.1195 515.6277 224.1195H244.6277C226.0777 224.1195 211.9177 236.8195 211.9177 256.3495C211.9177 276.3695 226.0777 288.0895 244.6277 288.0895H451.1677V291.9895L227.0477 603.0295C216.3077 618.1595 213.3777 625.4895 213.3777 636.2295C213.3777 655.7595 228.0277 669.4295 248.5377 669.4295ZM676.7577 674.8095C702.6377 674.8095 716.3077 658.6895 716.3077 631.3495V510.2495H807.1277L892.0877 649.4095C903.8077 667.9695 913.5777 674.8095 930.6677 674.8095C951.6577 674.8095 966.3077 661.1295 966.3077 641.5995C966.3077 630.8595 963.3777 623.0495 957.5177 613.2795L884.2777 499.0195C941.4077 479.9795 978.5177 428.7095 978.5177 367.6795C978.5177 280.2695 916.0177 224.1195 816.8977 224.1195H676.7577C651.3677 224.1195 638.1877 242.1895 638.1877 268.0695V631.3495C638.1877 657.7195 651.8577 674.8095 676.7577 674.8095ZM716.3077 453.1295V283.6895H807.1277C863.2777 283.6895 901.3677 314.9395 901.3677 369.6295C901.3677 423.3395 864.2577 453.1295 805.1777 453.1295Z"/>
</svg>