<?xml version="1.0" encoding="UTF-8" standalone="no"?>
<svg xmlns="http://www.w3.org/2000/svg"
     width="996.09375" height="996.09375"
     viewBox="0 0 996.09375 996.09375"
     fill="currentColor">
  <path d="M498.0477 996.0959C770.5077 996.0959 996.0977 770.0159 996.0977 498.0459C996.0977 225.5859 770.0177 -0.0041 497.5577 -0.0041C225.5877 -0.0041 -0.0023 225.5859 -0.0023 498.0459C-0.0023 770.0159 226.0777 996.0959 498.0477 996.0959ZM498.0477 737.7959C391.1177 737.7959 319.8277 641.6059 319.8277 498.0459C319.8277 354.4959 391.1177 258.2959 498.0477 258.2959C604.4877 258.2959 675.7777 354.4959 675.7777 498.0459C675.7777 641.6059 604.4877 737.7959 498.0477 737.7959ZM498.0477 672.8559C557.6177 672.8559 598.6377 603.0259 598.6377 498.0459C598.6377 393.0659 557.6177 323.2459 498.0477 323.2459C437.9877 323.2459 397.4577 393.0659 397.4577 498.0459C397.4577 603.0259 437.9877 672.8559 498.0477 672.8559Z"/>
</svg>