<?xml version="1.0" encoding="UTF-8" standalone="no"?>
<svg xmlns="http://www.w3.org/2000/svg"
     width="996.09375" height="996.09375"
     viewBox="0 0 996.09375 996.09375"
     fill="currentColor">
  <path d="M498.0477 996.0959C770.5077 996.0959 996.0977 770.0159 996.0977 498.0459C996.0977 225.5859 770.0177 -0.0041 497.5577 -0.0041C225.5877 -0.0041 -0.0023 225.5859 -0.0023 498.0459C-0.0023 770.0159 226.0777 996.0959 498.0477 996.0959ZM498.0477 913.0859C267.5777 913.0859 83.4977 728.5159 83.4977 498.0459C83.4977 267.5759 267.0877 83.0059 497.5577 83.0059C728.0277 83.0059 913.0877 267.5759 913.0877 498.0459C913.0877 728.5159 728.5177 913.0859 498.0477 913.0859ZM497.5577 730.4659C600.5877 730.4659 669.9177 637.2059 669.9177 498.0459C669.9177 358.8859 600.5877 265.6259 497.5577 265.6259C394.0477 265.6259 324.7077 358.8859 324.7077 498.0459C324.7077 637.2059 394.0477 730.4659 497.5577 730.4659ZM497.5577 667.9659C438.9677 667.9659 399.8977 600.0959 399.8977 498.0459C399.8977 395.9959 438.9677 328.1259 497.5577 328.1259C555.6677 328.1259 595.2177 395.9959 595.2177 498.0459C595.2177 600.0959 555.6677 667.9659 497.5577 667.9659Z"/>
</svg>