<?xml version="1.0" encoding="UTF-8" standalone="no"?>
<svg xmlns="http://www.w3.org/2000/svg"
     width="898.92578125" height="898.92578125"
     viewBox="0 0 898.92578125 898.92578125"
     fill="currentColor">
  <path d="M153.3183 898.9295H745.6083C848.1483 898.9295 898.9283 848.1495 898.9283 747.5595V151.3695C898.9283 50.7795 848.1483 -0.0005 745.6083 -0.0005H153.3183C51.2683 -0.0005 -0.0017 50.2895 -0.0017 151.3695V747.5595C-0.0017 848.6295 51.2683 898.9295 153.3183 898.9295ZM154.2983 820.3095C105.4683 820.3095 78.6183 794.4295 78.6183 743.6495V155.2695C78.6183 104.4895 105.4683 78.6095 154.2983 78.6095H744.6283C792.9683 78.6095 820.3083 104.4895 820.3083 155.2695V743.6495C820.3083 794.4295 792.9683 820.3095 744.6283 820.3095ZM449.7083 681.1495C552.7383 681.1495 622.0683 587.8895 622.0683 448.7295C622.0683 309.5695 552.7383 216.3095 449.7083 216.3095C346.1883 216.3095 276.8583 309.5695 276.8583 448.7295C276.8583 587.8895 346.1883 681.1495 449.7083 681.1495ZM449.7083 618.6495C391.1183 618.6495 352.0483 550.7795 352.0483 448.7295C352.0483 346.6795 391.1183 278.8095 449.7083 278.8095C507.8083 278.8095 547.3683 346.6795 547.3683 448.7295C547.3683 550.7795 507.8083 618.6495 449.7083 618.6495Z"/>
</svg>