<?xml version="1.0" encoding="UTF-8" standalone="no"?>
<svg xmlns="http://www.w3.org/2000/svg"
     width="898.92578125" height="898.92578125"
     viewBox="0 0 898.92578125 898.92578125"
     fill="currentColor">
  <path d="M153.3183 898.9295H745.6083C848.1483 898.9295 898.9283 848.1495 898.9283 747.5595V151.3695C898.9283 50.7795 848.1483 -0.0005 745.6083 -0.0005H153.3183C51.2683 -0.0005 -0.0017 50.2895 -0.0017 151.3695V747.5595C-0.0017 848.6295 51.2683 898.9295 153.3183 898.9295ZM449.7083 688.4795C342.7783 688.4795 271.4883 592.2895 271.4883 448.7295C271.4883 305.1795 342.7783 208.9795 449.7083 208.9795C556.1483 208.9795 627.4383 305.1795 627.4383 448.7295C627.4383 592.2895 556.1483 688.4795 449.7083 688.4795ZM449.7083 623.5395C509.2783 623.5395 550.2883 553.7095 550.2883 448.7295C550.2883 343.7495 509.2783 273.9295 449.7083 273.9295C389.6483 273.9295 349.1183 343.7495 349.1183 448.7295C349.1183 553.7095 389.6483 623.5395 449.7083 623.5395Z"/>
</svg>