<?xml version="1.0" encoding="UTF-8" standalone="no"?>
<svg xmlns="http://www.w3.org/2000/svg"
     width="996.09375" height="996.09375"
     viewBox="0 0 996.09375 996.09375"
     fill="currentColor">
  <path d="M498.0477 996.0959C770.5077 996.0959 996.0977 770.0159 996.0977 498.0459C996.0977 225.5859 770.0177 -0.0041 497.5577 -0.0041C225.5877 -0.0041 -0.0023 225.5859 -0.0023 498.0459C-0.0023 770.0159 226.0777 996.0959 498.0477 996.0959ZM498.0477 913.0859C267.5777 913.0859 83.4977 728.5159 83.4977 498.0459C83.4977 267.5759 267.0877 83.0059 497.5577 83.0059C728.0277 83.0059 913.0877 267.5759 913.0877 498.0459C913.0877 728.5159 728.5177 913.0859 498.0477 913.0859ZM327.6377 708.4959C411.6177 708.4959 467.2877 627.9259 467.2877 498.0459C467.2877 368.1659 411.6177 287.5959 327.6377 287.5959C243.6477 287.5959 187.9877 368.1659 187.9877 498.0459C187.9877 627.9259 243.6477 708.4959 327.6377 708.4959ZM666.9877 708.4959C750.9777 708.4959 806.6377 627.9259 806.6377 498.0459C806.6377 368.1659 750.9777 287.5959 666.9877 287.5959C583.0077 287.5959 527.3477 368.1659 527.3477 498.0459C527.3477 627.9259 583.0077 708.4959 666.9877 708.4959ZM327.6377 649.4159C281.2477 649.4159 251.9577 591.7959 251.9577 498.0459C251.9577 404.2959 281.2477 346.6759 327.6377 346.6759C374.5077 346.6759 403.3177 404.2959 403.3177 498.0459C403.3177 591.7959 374.9977 649.4159 327.6377 649.4159ZM666.9877 649.4159C620.6077 649.4159 591.3077 591.7959 591.3077 498.0459C591.3077 404.2959 620.6077 346.6759 666.9877 346.6759C713.8677 346.6759 742.6777 404.2959 742.6777 498.0459C742.6777 591.7959 714.3577 649.4159 666.9877 649.4159Z"/>
</svg>