<?xml version="1.0" encoding="UTF-8" standalone="no"?>
<svg xmlns="http://www.w3.org/2000/svg"
     width="996.09375" height="996.09375"
     viewBox="0 0 996.09375 996.09375"
     fill="currentColor">
  <path d="M498.0477 996.0959C770.5077 996.0959 996.0977 770.0159 996.0977 498.0459C996.0977 225.5859 770.0177 -0.0041 497.5577 -0.0041C225.5877 -0.0041 -0.0023 225.5859 -0.0023 498.0459C-0.0023 770.0159 226.0777 996.0959 498.0477 996.0959ZM322.7577 715.3359C236.3277 715.3359 178.7077 632.3259 178.7077 498.0459C178.7077 363.7659 236.3277 280.7659 322.7577 280.7659C409.6677 280.7659 466.7977 363.7659 466.7977 498.0459C466.7977 632.3259 409.6677 715.3359 322.7577 715.3359ZM672.8477 715.3359C585.9377 715.3359 528.8077 632.3259 528.8077 498.0459C528.8077 363.7659 585.9377 280.7659 672.8477 280.7659C759.2777 280.7659 816.8977 363.7659 816.8977 498.0459C816.8977 632.3259 759.2777 715.3359 672.8477 715.3359ZM322.7577 653.8059C371.5777 653.8059 400.3877 594.7259 400.3877 498.0459C400.3877 401.3659 371.0977 342.2859 322.7577 342.2859C274.8977 342.2859 245.1177 401.3659 245.1177 498.0459C245.1177 594.7259 274.8977 653.8059 322.7577 653.8059ZM672.8477 653.8059C721.6777 653.8059 750.4877 594.7259 750.4877 498.0459C750.4877 401.3659 721.1877 342.2859 672.8477 342.2859C624.9977 342.2859 595.2177 401.3659 595.2177 498.0459C595.2177 594.7259 624.9977 653.8059 672.8477 653.8059Z"/>
</svg>