<?xml version="1.0" encoding="UTF-8" standalone="no"?>
<svg xmlns="http://www.w3.org/2000/svg"
     width="996.09375" height="996.09375"
     viewBox="0 0 996.09375 996.09375"
     fill="currentColor">
  <path d="M498.0477 996.0959C770.5077 996.0959 996.0977 770.0159 996.0977 498.0459C996.0977 225.5859 770.0177 -0.0041 497.5577 -0.0041C225.5877 -0.0041 -0.0023 225.5859 -0.0023 498.0459C-0.0023 770.0159 226.0777 996.0959 498.0477 996.0959ZM364.2577 715.3359C277.3477 715.3359 219.7277 632.3259 219.7277 498.0459C219.7277 363.7659 277.3477 280.7659 364.2577 280.7659C451.1677 280.7659 508.2977 363.7659 508.2977 498.0459C508.2977 632.3259 451.1677 715.3359 364.2577 715.3359ZM713.8677 708.9859C695.3077 708.9859 682.6177 696.2859 682.6177 676.7559V364.2559H680.1777L626.4677 403.8059C614.7477 413.0859 609.8677 413.5759 601.5577 413.5759C586.9177 413.5759 572.7577 400.3859 572.7577 383.2959C572.7577 370.1159 579.0977 360.8359 589.8477 353.5159L666.5077 301.2659C684.0777 289.0659 693.8477 284.1759 710.4477 284.1759C731.9377 284.1759 746.0977 299.3159 746.0977 320.3159V676.7559C746.0977 696.2859 733.8877 708.9859 713.8677 708.9859ZM364.2577 653.8059C412.5977 653.8059 441.8977 594.7259 441.8977 498.0459C441.8977 401.3659 412.1077 342.2859 364.2577 342.2859C316.4077 342.2859 286.6177 401.3659 286.6177 498.0459C286.6177 594.7259 316.4077 653.8059 364.2577 653.8059Z"/>
</svg>