<?xml version="1.0" encoding="UTF-8" standalone="no"?>
<svg xmlns="http://www.w3.org/2000/svg"
     width="996.09375" height="996.09375"
     viewBox="0 0 996.09375 996.09375"
     fill="currentColor">
  <path d="M498.0477 996.0959C770.5077 996.0959 996.0977 770.0159 996.0977 498.0459C996.0977 225.5859 770.0177 -0.0041 497.5577 -0.0041C225.5877 -0.0041 -0.0023 225.5859 -0.0023 498.0459C-0.0023 770.0159 226.0777 996.0959 498.0477 996.0959ZM498.0477 913.0859C267.5777 913.0859 83.4977 728.5159 83.4977 498.0459C83.4977 267.5759 267.0877 83.0059 497.5577 83.0059C728.0277 83.0059 913.0877 267.5759 913.0877 498.0459C913.0877 728.5159 728.5177 913.0859 498.0477 913.0859ZM368.1677 708.4959C452.1477 708.4959 507.8077 627.9259 507.8077 498.0459C507.8077 368.1659 452.1477 287.5959 368.1677 287.5959C283.6877 287.5959 228.0277 368.1659 228.0277 498.0459C228.0277 627.9259 283.6877 708.4959 368.1677 708.4959ZM707.0277 702.6359C726.0777 702.6359 737.7977 690.4259 737.7977 671.3859V325.6859C737.7977 305.1759 724.1177 290.5259 703.6177 290.5259C687.4977 290.5259 678.2277 295.4059 661.1377 307.1259L586.9177 357.9059C576.1677 365.2359 570.3077 374.0259 570.3077 386.7159C570.3077 403.3159 583.9877 416.0159 598.1477 416.0159C605.9577 416.0159 610.8377 415.5259 622.0677 406.7359L674.3177 368.1659H676.7577V671.3859C676.7577 690.4259 688.9677 702.6359 707.0277 702.6359ZM368.1677 649.4159C321.2877 649.4159 292.4777 591.7959 292.4777 498.0459C292.4777 404.2959 321.2877 346.6759 368.1677 346.6759C414.5477 346.6759 443.3577 404.2959 443.3577 498.0459C443.3577 591.7959 415.0377 649.4159 368.1677 649.4159Z"/>
</svg>