<?xml version="1.0" encoding="UTF-8" standalone="no"?>
<svg xmlns="http://www.w3.org/2000/svg"
     width="898.92578125" height="898.92578125"
     viewBox="0 0 898.92578125 898.92578125"
     fill="currentColor">
  <path d="M153.3183 898.9295H745.6083C848.1483 898.9295 898.9283 848.1495 898.9283 747.5595V151.3695C898.9283 50.7795 848.1483 -0.0005 745.6083 -0.0005H153.3183C51.2683 -0.0005 -0.0017 50.2895 -0.0017 151.3695V747.5595C-0.0017 848.6295 51.2683 898.9295 153.3183 898.9295ZM315.9183 666.0195C229.0083 666.0195 171.8783 583.0095 171.8783 448.7295C171.8783 314.4495 229.0083 231.4495 315.9183 231.4495C402.8283 231.4495 459.9583 314.4495 459.9583 448.7295C459.9583 583.0095 402.8283 666.0195 315.9183 666.0195ZM665.5283 659.6695C646.9683 659.6695 634.7683 646.9695 634.7683 627.4395V314.9395H631.8383L578.1283 354.4895C566.4083 363.7695 561.5283 364.2595 553.2183 364.2595C538.5783 364.2595 524.4183 351.0695 524.4183 333.9795C524.4183 320.7995 531.2483 311.5195 541.5083 304.1995L618.1683 251.9495C635.7383 239.7495 645.9983 234.8595 662.1083 234.8595C683.5983 234.8595 698.2383 249.9995 698.2383 270.9995V627.4395C698.2383 646.9695 685.5483 659.6695 665.5283 659.6695ZM315.9183 604.4895C364.2583 604.4895 393.5583 545.4095 393.5583 448.7295C393.5583 352.0495 363.7683 292.9695 315.9183 292.9695C268.0683 292.9695 238.2783 352.0495 238.2783 448.7295C238.2783 545.4095 268.0683 604.4895 315.9183 604.4895Z"/>
</svg>