<?xml version="1.0" encoding="UTF-8" standalone="no"?>
<svg xmlns="http://www.w3.org/2000/svg"
     width="996.09375" height="996.09375"
     viewBox="0 0 996.09375 996.09375"
     fill="currentColor">
  <path d="M498.0477 996.0959C770.5077 996.0959 996.0977 770.0159 996.0977 498.0459C996.0977 225.5859 770.0177 -0.0041 497.5577 -0.0041C225.5877 -0.0041 -0.0023 225.5859 -0.0023 498.0459C-0.0023 770.0159 226.0777 996.0959 498.0477 996.0959ZM498.0477 913.0859C267.5777 913.0859 83.4977 728.5159 83.4977 498.0459C83.4977 267.5759 267.0877 83.0059 497.5577 83.0059C728.0277 83.0059 913.0877 267.5759 913.0877 498.0459C913.0877 728.5159 728.5177 913.0859 498.0477 913.0859ZM338.3777 708.4959C422.3677 708.4959 478.0277 627.9259 478.0277 498.0459C478.0277 368.1659 422.3677 287.5959 338.3777 287.5959C254.3977 287.5959 198.7277 368.1659 198.7277 498.0459C198.7277 627.9259 254.3977 708.4959 338.3777 708.4959ZM565.4277 697.2659H767.5777C783.2077 697.2659 794.9177 685.5459 794.9177 667.9659C794.9177 649.9059 783.2077 639.6459 767.5777 639.6459H625.4877V636.2259L721.1877 524.9059C757.3277 482.9059 784.1777 447.7559 784.1777 398.9259C784.1777 331.0559 734.8677 287.5959 658.2077 287.5959C599.6077 287.5959 548.3377 324.7059 535.6477 374.5159C534.1777 380.8559 533.2077 386.2259 533.2077 392.0859C533.2077 409.6659 543.4577 421.3859 560.5477 421.3859C574.7077 421.3859 582.0277 413.0859 588.3777 398.4359C600.5877 361.8159 625.4877 343.7459 660.6477 343.7459C699.7077 343.7459 725.0977 368.1659 725.0977 404.2959C725.0977 436.0359 699.7077 463.3759 676.2677 490.7259L547.8477 642.0859C540.0377 650.3859 537.1077 658.6959 537.1077 668.4559C537.1077 686.0359 547.8477 697.2659 565.4277 697.2659ZM338.3777 649.4159C291.9877 649.4159 262.6977 591.7959 262.6977 498.0459C262.6977 404.2959 291.9877 346.6759 338.3777 346.6759C384.7677 346.6759 414.0577 404.2959 414.0577 498.0459C414.0577 591.7959 385.2577 649.4159 338.3777 649.4159Z"/>
</svg>