<?xml version="1.0" encoding="UTF-8" standalone="no"?>
<svg xmlns="http://www.w3.org/2000/svg"
     width="996.09375" height="996.09375"
     viewBox="0 0 996.09375 996.09375"
     fill="currentColor">
  <path d="M498.0477 996.0959C770.5077 996.0959 996.0977 770.0159 996.0977 498.0459C996.0977 225.5859 770.0177 -0.0041 497.5577 -0.0041C225.5877 -0.0041 -0.0023 225.5859 -0.0023 498.0459C-0.0023 770.0159 226.0777 996.0959 498.0477 996.0959ZM333.9877 715.3359C247.0677 715.3359 189.9377 632.3259 189.9377 498.0459C189.9377 363.7659 247.0677 280.7659 333.9877 280.7659C420.4077 280.7659 478.0277 363.7659 478.0277 498.0459C478.0277 632.3259 420.4077 715.3359 333.9877 715.3359ZM567.8677 703.6159C549.8077 703.6159 538.5777 691.8959 538.5777 673.8259C538.5777 663.5759 541.5077 654.7859 549.8077 646.4859L682.1277 490.2359C706.0577 462.4059 732.4177 434.0859 732.4177 401.3659C732.4177 364.2559 706.5477 339.3559 666.0177 339.3559C629.8877 339.3559 604.4877 357.4259 591.7977 395.5059C585.4477 410.6459 577.6377 418.9459 562.9877 418.9459C545.4077 418.9459 534.6677 406.7359 534.6677 388.6759C534.6677 382.8159 535.6477 376.9559 537.1077 370.6059C550.2977 319.3359 603.5177 280.7659 663.5777 280.7659C742.6777 280.7659 793.4577 325.6859 793.4577 395.9959C793.4577 446.2859 766.1177 482.4259 728.5177 525.8759L630.3677 640.1359V644.0459H776.3677C792.4777 644.0459 804.6877 654.2959 804.6877 673.3359C804.6877 691.4059 792.4777 703.6159 776.3677 703.6159ZM333.9877 653.8059C382.3277 653.8059 411.6177 594.7259 411.6177 498.0459C411.6177 401.3659 381.8377 342.2859 333.9877 342.2859C286.1377 342.2859 256.3477 401.3659 256.3477 498.0459C256.3477 594.7259 286.1377 653.8059 333.9877 653.8059Z"/>
</svg>