<?xml version="1.0" encoding="UTF-8" standalone="no"?>
<svg xmlns="http://www.w3.org/2000/svg"
     width="996.09375" height="996.09375"
     viewBox="0 0 996.09375 996.09375"
     fill="currentColor">
  <path d="M498.0477 996.0942C770.5077 996.0942 996.0977 770.0242 996.0977 498.0442C996.0977 225.5842 770.0177 0.0042 497.5577 0.0042C225.5877 0.0042 -0.0023 225.5842 -0.0023 498.0442C-0.0023 770.0242 226.0777 996.0942 498.0477 996.0942ZM328.6177 715.3342C242.1877 715.3342 184.5677 632.3242 184.5677 498.0442C184.5677 363.2842 242.1877 280.7642 328.6177 280.7642C415.5277 280.7642 472.6577 363.2842 472.6577 498.0442C472.6577 632.3242 415.5277 715.3342 328.6177 715.3342ZM667.4777 715.3342C599.1177 715.3342 545.8977 673.3442 532.2277 626.4642C530.7577 620.6042 529.7877 615.2342 529.7877 608.3942C529.7877 590.8242 541.9877 578.1242 559.0777 578.1242C573.2377 578.1242 581.5477 585.9342 587.8877 601.5642C601.5577 637.2042 628.4177 656.7342 667.9677 656.7342C716.3077 656.7342 749.9977 627.4442 749.9977 588.3742C749.9977 547.3642 719.2377 520.5042 671.8777 520.5042H642.0877C625.4877 520.5042 614.7477 507.8142 614.7477 491.6942C614.7477 473.1442 625.9777 461.4242 642.0877 461.4242H668.9477C709.4777 461.4242 737.3077 435.0542 737.3077 398.4342C737.3077 363.2842 709.4777 339.3542 669.9177 339.3542C630.3677 339.3542 606.4477 358.3942 595.2177 394.0442C590.3277 410.1542 582.0277 417.9642 566.8977 417.9642C549.8077 417.9642 538.0877 405.2742 538.0877 387.2042C538.0877 380.8642 538.0877 375.4842 539.5477 369.1442C552.7377 319.8242 603.0277 280.7642 671.3877 280.7642C746.0977 280.7642 799.8077 325.6842 799.8077 390.1342C799.8077 437.5042 767.0877 479.4942 725.0977 486.3242V489.2542C775.8777 494.6242 813.4777 537.1142 813.4777 591.3042C813.4777 663.5742 753.4177 715.3342 667.4777 715.3342ZM328.6177 653.8042C376.9577 653.8042 406.7377 594.2342 406.7377 498.0442C406.7377 401.3642 376.4677 342.2842 328.6177 342.2842C281.2477 342.2842 250.9777 401.3642 250.9777 498.0442C250.9777 594.2342 281.2477 653.8042 328.6177 653.8042Z"/>
</svg>