<?xml version="1.0" encoding="UTF-8" standalone="no"?>
<svg xmlns="http://www.w3.org/2000/svg"
     width="996.09375" height="996.09375"
     viewBox="0 0 996.09375 996.09375"
     fill="currentColor">
  <path d="M498.0477 996.0959C770.5077 996.0959 996.0977 770.0159 996.0977 498.0459C996.0977 225.5859 770.0177 -0.0041 497.5577 -0.0041C225.5877 -0.0041 -0.0023 225.5859 -0.0023 498.0459C-0.0023 770.0159 226.0777 996.0959 498.0477 996.0959ZM498.0477 913.0859C267.5777 913.0859 83.4977 728.5159 83.4977 498.0459C83.4977 267.5759 267.0877 83.0059 497.5577 83.0059C728.0277 83.0059 913.0877 267.5759 913.0877 498.0459C913.0877 728.5159 728.5177 913.0859 498.0477 913.0859ZM333.4977 708.4959C417.4777 708.4959 473.1477 627.9259 473.1477 498.0459C473.1477 368.1659 417.4777 287.5959 333.4977 287.5959C249.5077 287.5959 193.8477 368.1659 193.8477 498.0459C193.8477 627.9259 249.5077 708.4959 333.4977 708.4959ZM662.1077 708.4959C745.1177 708.4959 803.2277 658.6959 803.2277 588.3759C803.2277 536.6259 767.0877 494.6259 717.7777 489.7459V486.8159C758.2977 479.9759 790.0377 439.4559 790.0377 393.5559C790.0377 331.0559 738.2777 287.5959 665.5277 287.5959C599.6077 287.5959 550.7777 325.1959 538.0877 373.0459C536.6177 379.3959 536.6177 384.2759 536.6177 390.6259C536.6177 408.2059 547.8477 420.4059 564.4577 420.4059C579.0977 420.4059 586.9177 412.5959 591.7977 396.9759C602.5377 362.7959 625.9777 343.7459 664.0577 343.7459C702.6377 343.7459 729.9777 367.1859 729.9777 401.3659C729.9777 437.0159 702.6377 462.8859 663.5777 462.8859H637.2077C621.5777 462.8859 610.8377 474.1259 610.8377 491.6959C610.8377 507.3259 621.0977 519.5359 637.2077 519.5359H666.0177C712.3977 519.5359 742.1877 545.8959 742.1877 585.4459C742.1877 623.5359 709.4777 652.3459 662.5977 652.3459C624.0277 652.3459 597.6577 633.2959 584.4777 599.1259C578.6177 583.4959 570.3077 575.6859 556.6377 575.6859C540.0377 575.6859 528.3177 587.8859 528.3177 604.9759C528.3177 611.8159 529.2977 616.6959 530.7577 623.0459C543.9477 667.9659 595.7077 708.4959 662.1077 708.4959ZM333.4977 649.4159C287.1077 649.4159 257.8077 591.7959 257.8077 498.0459C257.8077 404.2959 287.1077 346.6759 333.4977 346.6759C379.8877 346.6759 409.1777 404.2959 409.1777 498.0459C409.1777 591.7959 380.3677 649.4159 333.4977 649.4159Z"/>
</svg>