<?xml version="1.0" encoding="UTF-8" standalone="no"?>
<svg xmlns="http://www.w3.org/2000/svg"
     width="996.09375" height="996.09375"
     viewBox="0 0 996.09375 996.09375"
     fill="currentColor">
  <path d="M498.0477 996.0959C770.5077 996.0959 996.0977 770.0159 996.0977 498.0459C996.0977 225.5859 770.0177 -0.0041 497.5577 -0.0041C225.5877 -0.0041 -0.0023 225.5859 -0.0023 498.0459C-0.0023 770.0159 226.0777 996.0959 498.0477 996.0959ZM498.0477 913.0859C267.5777 913.0859 83.4977 728.5159 83.4977 498.0459C83.4977 267.5759 267.0877 83.0059 497.5577 83.0059C728.0277 83.0059 913.0877 267.5759 913.0877 498.0459C913.0877 728.5159 728.5177 913.0859 498.0477 913.0859ZM329.5877 708.4959C413.5777 708.4959 469.2377 627.9259 469.2377 498.0459C469.2377 368.1659 413.5777 287.5959 329.5877 287.5959C245.6077 287.5959 189.9377 368.1659 189.9377 498.0459C189.9377 627.9259 245.6077 708.4959 329.5877 708.4959ZM732.4177 707.5159C752.4377 707.5159 762.6977 693.8459 762.6977 674.8059V617.1859H789.0577C806.1477 617.1859 816.8977 607.4259 816.8977 590.3359C816.8977 572.7559 805.6677 562.4959 789.0577 562.4959H762.6977V333.9859C762.6977 305.6659 742.6777 287.5959 714.3577 287.5959C686.0377 287.5959 668.9477 298.3359 652.8277 325.1959C612.3077 393.5559 562.9877 477.5359 529.7877 536.6259C521.9777 551.7559 519.0477 562.4959 519.0477 575.6859C519.0477 601.5659 536.1377 617.1859 561.0377 617.1859H703.6177V674.8059C703.6177 693.3559 713.3777 707.5159 732.4177 707.5159ZM329.5877 649.4159C283.2077 649.4159 253.9077 591.7959 253.9077 498.0459C253.9077 404.2959 283.2077 346.6759 329.5877 346.6759C375.9777 346.6759 405.2777 404.2959 405.2777 498.0459C405.2777 591.7959 376.4677 649.4159 329.5877 649.4159ZM703.6177 562.4959H583.0077V560.5459C611.8177 505.3759 662.1077 419.4359 700.6877 353.5159H703.6177Z"/>
</svg>