<?xml version="1.0" encoding="UTF-8" standalone="no"?>
<svg xmlns="http://www.w3.org/2000/svg"
     width="996.09375" height="996.09375"
     viewBox="0 0 996.09375 996.09375"
     fill="currentColor">
  <path d="M498.0477 996.0959C770.5077 996.0959 996.0977 770.0159 996.0977 498.0459C996.0977 225.5859 770.0177 -0.0041 497.5577 -0.0041C225.5877 -0.0041 -0.0023 225.5859 -0.0023 498.0459C-0.0023 770.0159 226.0777 996.0959 498.0477 996.0959ZM324.7077 715.3359C237.7977 715.3359 180.6677 632.3259 180.6677 498.0459C180.6677 363.7659 237.7977 280.7659 324.7077 280.7659C411.1377 280.7659 468.7477 363.7659 468.7477 498.0459C468.7477 632.3259 411.1377 715.3359 324.7077 715.3359ZM740.2377 714.3559C720.2177 714.3559 709.9577 699.7059 709.9577 680.1759V621.0959H563.4777C537.5977 621.0959 520.0177 604.9759 520.0177 578.1259C520.0177 564.4559 522.9477 553.2259 531.2477 537.5959C565.4277 476.5659 615.7277 390.6259 657.7177 319.8259C674.3177 291.9959 691.8977 280.7659 721.1877 280.7659C750.4877 280.7659 771.4877 299.8059 771.4877 329.1059V564.4559H798.3377C815.4277 564.4559 827.1477 575.1959 827.1477 593.2659C827.1477 610.8359 815.9177 621.0959 798.3377 621.0959H771.4877V680.1759C771.4877 700.1959 760.7377 714.3559 740.2377 714.3559ZM324.7077 653.8059C373.0477 653.8059 402.3477 594.7259 402.3477 498.0459C402.3477 401.3659 372.5577 342.2859 324.7077 342.2859C276.8577 342.2859 247.0677 401.3659 247.0677 498.0459C247.0677 594.7259 276.8577 653.8059 324.7077 653.8059ZM709.9577 564.4559V349.1259H707.0277C667.4777 417.4759 615.7277 505.3759 586.4277 562.4959V564.4559Z"/>
</svg>