<?xml version="1.0" encoding="UTF-8" standalone="no"?>
<svg xmlns="http://www.w3.org/2000/svg"
     width="898.92578125" height="898.92578125"
     viewBox="0 0 898.92578125 898.92578125"
     fill="currentColor">
  <path d="M153.3183 898.9295H745.6083C848.1483 898.9295 898.9283 848.1495 898.9283 747.5595V151.3695C898.9283 50.7795 848.1483 -0.0005 745.6083 -0.0005H153.3183C51.2683 -0.0005 -0.0017 50.2895 -0.0017 151.3695V747.5595C-0.0017 848.6295 51.2683 898.9295 153.3183 898.9295ZM154.2983 820.3095C105.4683 820.3095 78.6183 794.4295 78.6183 743.6495V155.2695C78.6183 104.4895 105.4683 78.6095 154.2983 78.6095H744.6283C792.9683 78.6095 820.3083 104.4895 820.3083 155.2695V743.6495C820.3083 794.4295 792.9683 820.3095 744.6283 820.3095ZM281.7383 659.1795C365.7183 659.1795 421.3883 578.6095 421.3883 448.7295C421.3883 318.8495 365.7183 238.2795 281.7383 238.2795C197.7583 238.2795 142.0883 318.8495 142.0883 448.7295C142.0883 578.6095 197.7583 659.1795 281.7383 659.1795ZM685.0583 658.1995C704.5883 658.1995 714.8483 644.5295 714.8483 625.4895V567.8695H741.2083C758.2983 567.8695 769.0383 558.1095 769.0383 541.0195C769.0383 523.4395 758.2983 513.1795 741.2083 513.1795H714.8483V284.6695C714.8483 256.3495 695.3083 238.2795 666.5083 238.2795C638.1883 238.2795 621.0983 249.0195 604.9783 275.8795C564.4483 344.2395 515.1383 428.2195 482.4183 487.3095C474.1183 502.4395 471.6783 513.1795 471.6783 526.3695C471.6783 552.2495 488.2783 567.8695 513.1883 567.8695H655.7583V625.4895C655.7583 644.0395 666.0183 658.1995 685.0583 658.1995ZM281.7383 600.0995C235.3483 600.0995 206.0583 542.4795 206.0583 448.7295C206.0583 354.9795 235.3483 297.3595 281.7383 297.3595C328.1283 297.3595 357.4183 354.9795 357.4183 448.7295C357.4183 542.4795 328.6183 600.0995 281.7383 600.0995ZM655.7583 513.1795H535.1583V511.2295C563.9683 456.0595 614.2583 370.1195 653.3183 304.1995H655.7583Z"/>
</svg>