<?xml version="1.0" encoding="UTF-8" standalone="no"?>
<svg xmlns="http://www.w3.org/2000/svg"
     width="898.92578125" height="898.92578125"
     viewBox="0 0 898.92578125 898.92578125"
     fill="currentColor">
  <path d="M153.3183 898.9295H745.6083C848.1483 898.9295 898.9283 848.1495 898.9283 747.5595V151.3695C898.9283 50.7795 848.1483 -0.0005 745.6083 -0.0005H153.3183C51.2683 -0.0005 -0.0017 50.2895 -0.0017 151.3695V747.5595C-0.0017 848.6295 51.2683 898.9295 153.3183 898.9295ZM154.2983 820.3095C105.4683 820.3095 78.6183 794.4295 78.6183 743.6495V155.2695C78.6183 104.4895 105.4683 78.6095 154.2983 78.6095H744.6283C792.9683 78.6095 820.3083 104.4895 820.3083 155.2695V743.6495C820.3083 794.4295 792.9683 820.3095 744.6283 820.3095ZM284.6683 659.1795C368.6483 659.1795 424.3183 578.6095 424.3183 448.7295C424.3183 318.8495 368.6483 238.2795 284.6683 238.2795C200.6883 238.2795 145.0183 318.8495 145.0183 448.7295C145.0183 578.6095 200.6883 659.1795 284.6683 659.1795ZM615.7183 659.1795C701.6583 659.1795 758.7883 606.4495 758.7883 520.5095C758.7883 445.3095 708.0083 390.6295 632.3283 390.6295C600.0983 390.6295 564.9383 406.7395 550.2883 428.7095H548.3383L557.6183 303.2195H718.7483C732.9083 303.2195 743.1683 291.9895 743.1683 275.8795C743.1683 260.2495 733.3983 248.5395 718.7483 248.5395H551.2683C525.3883 248.5395 508.2983 264.1595 506.8383 290.0395L494.6283 442.3795C493.1683 467.7695 506.8383 484.3795 529.2983 484.3795C544.4383 484.3795 553.2183 480.4695 568.8483 467.7695C588.8683 450.1995 604.4883 442.8695 625.9783 442.8695C668.9483 442.8695 698.2383 477.0495 698.2383 521.9695C698.2383 573.2395 666.0183 603.9995 618.6483 603.9995C585.4483 603.9995 557.1283 586.4295 542.9683 557.1295C535.6483 542.9695 525.8783 536.1295 514.6483 536.1295C498.5383 536.1295 487.3083 548.3395 487.3083 564.4495C487.3083 572.2695 488.7683 579.5895 491.6983 586.4295C506.3483 626.9495 554.1983 659.1795 615.7183 659.1795ZM284.6683 600.0995C238.2783 600.0995 208.9883 542.4795 208.9883 448.7295C208.9883 354.9795 238.2783 297.3595 284.6683 297.3595C331.5383 297.3595 360.3483 354.9795 360.3483 448.7295C360.3483 542.4795 332.0283 600.0995 284.6683 600.0995Z"/>
</svg>