<?xml version="1.0" encoding="UTF-8" standalone="no"?>
<svg xmlns="http://www.w3.org/2000/svg"
     width="996.09375" height="996.09375"
     viewBox="0 0 996.09375 996.09375"
     fill="currentColor">
  <path d="M498.0477 996.0959C770.5077 996.0959 996.0977 770.0159 996.0977 498.0459C996.0977 225.5859 770.0177 -0.0041 497.5577 -0.0041C225.5877 -0.0041 -0.0023 225.5859 -0.0023 498.0459C-0.0023 770.0159 226.0777 996.0959 498.0477 996.0959ZM327.1477 715.3359C240.7277 715.3359 183.1077 631.8359 183.1077 498.0459C183.1077 363.7659 240.7277 280.7659 327.1477 280.7659C414.5477 280.7659 471.6777 363.7659 471.6777 498.0459C471.6777 631.8359 414.5477 715.3359 327.1477 715.3359ZM678.2277 715.8159C627.4377 715.8159 583.9877 696.2859 558.5977 647.4559C541.0177 616.2059 531.2477 571.2859 531.2477 509.7659C531.2477 356.4459 591.3077 280.7659 687.9877 280.7659C745.1177 280.7659 785.6477 310.5459 798.3377 344.2359C801.2677 351.0759 802.7377 356.9359 802.7377 363.7659C802.7377 380.3759 791.5077 391.6059 777.3477 391.6059C763.6677 391.6059 755.8577 385.2559 747.0677 372.5559C734.3777 353.0259 714.3577 339.3559 685.0577 339.3559C628.9077 339.3559 590.3277 398.9259 590.3277 493.6559V498.5359H594.2377C606.4477 465.3359 640.6277 435.0559 693.8477 435.0559C759.2777 435.0559 818.3577 482.9059 818.3577 569.3359C818.3577 661.6259 760.2577 715.8159 678.2277 715.8159ZM327.1477 653.8059C375.9777 653.8059 404.7877 594.7259 404.7877 498.0459C404.7877 401.3659 375.4877 342.2859 327.1477 342.2859C279.7877 342.2859 249.9977 401.3659 249.9977 498.0459C249.9977 594.7259 279.7877 653.8059 327.1477 653.8059ZM675.7777 660.1559C724.1177 660.1559 754.3977 625.9759 754.3977 572.2659C754.3977 521.9759 722.6577 487.3059 675.7777 487.3059C628.4177 487.3059 596.1877 522.4559 596.1877 571.7759C596.1877 623.5359 628.9077 660.1559 675.7777 660.1559Z"/>
</svg>