<?xml version="1.0" encoding="UTF-8" standalone="no"?>
<svg xmlns="http://www.w3.org/2000/svg"
     width="898.92578125" height="898.92578125"
     viewBox="0 0 898.92578125 898.92578125"
     fill="currentColor">
  <path d="M153.3183 898.9295H745.6083C848.1483 898.9295 898.9283 848.1495 898.9283 747.5595V151.3695C898.9283 50.7795 848.1483 -0.0005 745.6083 -0.0005H153.3183C51.2683 -0.0005 -0.0017 50.2895 -0.0017 151.3695V747.5595C-0.0017 848.6295 51.2683 898.9295 153.3183 898.9295ZM279.2983 666.0195C192.3783 666.0195 135.2583 582.5195 135.2583 448.7295C135.2583 314.4495 192.3783 231.4495 279.2983 231.4495C366.2083 231.4495 423.3383 314.4495 423.3383 448.7295C423.3383 582.5195 366.2083 666.0195 279.2983 666.0195ZM629.8783 666.4995C579.0983 666.4995 535.6483 646.9695 510.2583 598.1395C492.6783 566.8895 482.9083 521.9695 482.9083 460.4495C482.9083 307.1295 542.9683 231.4495 639.6483 231.4495C696.7783 231.4495 737.3083 261.2295 749.9983 294.9195C752.9283 301.7595 754.3983 307.6195 754.3983 314.4495C754.3983 331.0595 743.1683 342.2895 729.4883 342.2895C715.3283 342.2895 707.5183 335.9395 699.2183 323.2395C686.0383 303.7095 666.0183 290.0395 636.7183 290.0395C580.5683 290.0395 542.4783 349.6095 542.4783 444.3395V449.2195H545.8983C558.1083 416.0195 592.2883 385.7395 645.5083 385.7395C710.9383 385.7395 770.5083 433.5895 770.5083 520.0195C770.5083 612.3095 711.9183 666.4995 629.8783 666.4995ZM279.2983 604.4895C327.6383 604.4895 356.4483 545.4095 356.4483 448.7295C356.4483 352.0495 327.1483 292.9695 279.2983 292.9695C231.4483 292.9695 201.6583 352.0495 201.6583 448.7295C201.6583 545.4095 231.4483 604.4895 279.2983 604.4895ZM627.4383 610.8395C675.7783 610.8395 706.5383 576.6595 706.5383 522.9495C706.5383 472.6595 674.3183 437.9895 627.4383 437.9895C580.0783 437.9895 547.8483 473.1395 547.8483 522.4595C547.8483 574.2195 580.5683 610.8395 627.4383 610.8395Z"/>
</svg>