<?xml version="1.0" encoding="UTF-8" standalone="no"?>
<svg xmlns="http://www.w3.org/2000/svg"
     width="898.92578125" height="898.92578125"
     viewBox="0 0 898.92578125 898.92578125"
     fill="currentColor">
  <path d="M153.3183 898.9295H745.6083C848.1483 898.9295 898.9283 848.1495 898.9283 747.5595V151.3695C898.9283 50.7795 848.1483 -0.0005 745.6083 -0.0005H153.3183C51.2683 -0.0005 -0.0017 50.2895 -0.0017 151.3695V747.5595C-0.0017 848.6295 51.2683 898.9295 153.3183 898.9295ZM154.2983 820.3095C105.4683 820.3095 78.6183 794.4295 78.6183 743.6495V155.2695C78.6183 104.4895 105.4683 78.6095 154.2983 78.6095H744.6283C792.9683 78.6095 820.3083 104.4895 820.3083 155.2695V743.6495C820.3083 794.4295 792.9683 820.3095 744.6283 820.3095ZM297.8483 659.1795C381.8383 659.1795 437.4983 578.6095 437.4983 448.7295C437.4983 318.8495 381.8383 238.2795 297.8483 238.2795C213.8683 238.2795 158.1983 318.8495 158.1983 448.7295C158.1983 578.6095 213.8683 659.1795 297.8483 659.1795ZM558.5983 653.8095C571.7783 653.8095 581.5383 646.4795 589.8483 629.8795L742.1883 325.1995C749.9983 309.5695 751.4683 300.7795 751.4683 290.5295C751.4683 266.5995 734.3783 248.0495 708.0083 248.0495H511.2283C494.1383 248.0495 482.9083 259.2795 482.9083 275.8795C482.9083 291.9895 494.1383 302.7295 511.2283 302.7295H682.6183V306.6395L531.2483 599.6095C527.3483 606.9295 525.8783 612.7895 525.8783 622.0695C525.8783 640.6295 540.0383 653.8095 558.5983 653.8095ZM297.8483 600.0995C251.4683 600.0995 222.1683 542.4795 222.1683 448.7295C222.1683 354.9795 251.4683 297.3595 297.8483 297.3595C344.2383 297.3595 373.5383 354.9795 373.5383 448.7295C373.5383 542.4795 344.7283 600.0995 297.8483 600.0995Z"/>
</svg>