<?xml version="1.0" encoding="UTF-8" standalone="no"?>
<svg xmlns="http://www.w3.org/2000/svg"
     width="996.09375" height="996.09375"
     viewBox="0 0 996.09375 996.09375"
     fill="currentColor">
  <path d="M498.0477 996.0959C770.5077 996.0959 996.0977 770.0159 996.0977 498.0459C996.0977 225.5859 770.0177 -0.0041 497.5577 -0.0041C225.5877 -0.0041 -0.0023 225.5859 -0.0023 498.0459C-0.0023 770.0159 226.0777 996.0959 498.0477 996.0959ZM329.5877 715.3359C243.1677 715.3359 185.5477 632.3259 185.5477 498.0459C185.5477 363.7659 243.1677 280.7659 329.5877 280.7659C416.5077 280.7659 473.6377 363.7659 473.6377 498.0459C473.6377 632.3259 416.5077 715.3359 329.5877 715.3359ZM672.3677 715.3359C584.9577 715.3359 526.8577 666.0159 526.8577 592.2859C526.8577 541.0159 557.6177 498.5359 612.7977 487.3059V484.3759C565.9177 470.7059 541.5077 435.5459 541.5077 391.6059C541.5077 326.1759 596.1877 280.7659 673.3377 280.7659C750.4877 280.7659 805.1777 326.1759 805.1777 391.6059C805.1777 435.5459 780.2777 471.6759 733.8877 484.3759V487.3059C788.0877 498.5359 819.8277 540.5259 819.8277 591.7959C819.8277 665.0359 759.7677 715.3359 672.3677 715.3359ZM673.3377 464.3559C712.8877 464.3559 740.2377 436.0359 740.2377 397.9459C740.2377 359.8659 712.8877 333.4959 673.3377 333.4959C633.7877 333.4959 606.4477 359.8659 606.4477 397.9459C606.4477 436.0359 633.7877 464.3559 673.3377 464.3559ZM329.5877 653.8059C377.9277 653.8059 407.2277 594.7259 407.2277 498.0459C407.2277 401.3659 377.4377 342.2859 329.5877 342.2859C282.2277 342.2859 251.9577 401.3659 251.9577 498.0459C251.9577 594.7259 282.2277 653.8059 329.5877 653.8059ZM673.8277 662.5959C721.1877 662.5959 755.8577 631.8359 755.8577 587.8859C755.8577 543.9459 722.1677 512.6959 673.8277 512.6959C625.9777 512.6959 591.3077 544.4359 591.3077 587.8859C591.3077 631.8359 625.9777 662.5959 673.8277 662.5959Z"/>
</svg>