<?xml version="1.0" encoding="UTF-8" standalone="no"?>
<svg xmlns="http://www.w3.org/2000/svg"
     width="996.09375" height="996.09375"
     viewBox="0 0 996.09375 996.09375"
     fill="currentColor">
  <path d="M498.0477 996.0959C770.5077 996.0959 996.0977 770.0159 996.0977 498.0459C996.0977 225.5859 770.0177 -0.0041 497.5577 -0.0041C225.5877 -0.0041 -0.0023 225.5859 -0.0023 498.0459C-0.0023 770.0159 226.0777 996.0959 498.0477 996.0959ZM498.0477 913.0859C267.5777 913.0859 83.4977 728.5159 83.4977 498.0459C83.4977 267.5759 267.0877 83.0059 497.5577 83.0059C728.0277 83.0059 913.0877 267.5759 913.0877 498.0459C913.0877 728.5159 728.5177 913.0859 498.0477 913.0859ZM334.4777 708.4959C418.4577 708.4959 474.1177 627.9259 474.1177 498.0459C474.1177 368.1659 418.4577 287.5959 334.4777 287.5959C250.4877 287.5959 194.8277 368.1659 194.8277 498.0459C194.8277 627.9259 250.4877 708.4959 334.4777 708.4959ZM666.5077 708.4959C751.4677 708.4959 809.5677 659.6659 809.5677 588.8659C809.5677 539.0659 779.2977 498.5359 726.5577 487.7959V484.8659C771.4877 472.6559 795.4077 437.4959 795.4077 395.0159C795.4077 331.5459 742.6777 287.5959 667.4777 287.5959C592.7777 287.5959 540.0377 331.5459 540.0377 395.0159C540.0377 437.4959 563.4777 471.6759 608.8877 484.8659V487.7959C555.6677 498.5359 525.8777 539.5459 525.8777 589.3559C525.8777 660.6459 582.0277 708.4959 666.5077 708.4959ZM667.4777 465.3359C629.3977 465.3359 602.5377 437.9859 602.5377 400.8759C602.5377 363.7659 629.3977 338.3759 667.4777 338.3759C706.0577 338.3759 732.9077 363.7659 732.9077 400.8759C732.9077 437.9859 706.0577 465.3359 667.4777 465.3359ZM334.4777 649.4159C288.0877 649.4159 258.7877 591.7959 258.7877 498.0459C258.7877 404.2959 288.0877 346.6759 334.4777 346.6759C380.8577 346.6759 410.1577 404.2959 410.1577 498.0459C410.1577 591.7959 381.3477 649.4159 334.4777 649.4159ZM667.9677 657.7159C621.5777 657.7159 587.8877 627.9259 587.8877 584.9559C587.8877 542.9659 621.5777 512.2059 667.9677 512.2059C715.3277 512.2059 748.0477 542.4759 748.0477 584.9559C748.0477 627.9259 714.3577 657.7159 667.9677 657.7159Z"/>
</svg>