<?xml version="1.0" encoding="UTF-8" standalone="no"?>
<svg xmlns="http://www.w3.org/2000/svg"
     width="996.09375" height="996.09375"
     viewBox="0 0 996.09375 996.09375"
     fill="currentColor">
  <path d="M498.0477 996.0959C770.5077 996.0959 996.0977 770.0159 996.0977 498.0459C996.0977 225.5859 770.0177 -0.0041 497.5577 -0.0041C225.5877 -0.0041 -0.0023 225.5859 -0.0023 498.0459C-0.0023 770.0159 226.0777 996.0959 498.0477 996.0959ZM498.0477 913.0859C267.5777 913.0859 83.4977 728.5159 83.4977 498.0459C83.4977 267.5759 267.0877 83.0059 497.5577 83.0059C728.0277 83.0059 913.0877 267.5759 913.0877 498.0459C913.0877 728.5159 728.5177 913.0859 498.0477 913.0859ZM334.9577 708.4959C418.9477 708.4959 474.6077 627.9259 474.6077 498.0459C474.6077 368.1659 418.9477 287.5959 334.9577 287.5959C250.9777 287.5959 195.3077 368.1659 195.3077 498.0459C195.3077 627.9259 250.9777 708.4959 334.9577 708.4959ZM658.2077 708.4959C755.3677 708.4959 808.1077 631.3459 808.1077 484.3759C808.1077 356.4459 754.8877 287.5959 663.5777 287.5959C581.5477 287.5959 527.8277 342.7759 527.8277 428.7059C527.8277 512.6959 584.9577 559.5659 648.9277 559.5659C702.1477 559.5659 733.8877 530.7659 747.0677 497.5559H749.9977C750.9777 594.7259 713.8677 652.3459 657.2277 652.3459C629.3977 652.3459 606.9377 637.6959 595.2177 616.2059C587.3977 602.5359 578.1277 597.1659 565.4277 597.1659C550.2977 597.1659 539.5477 608.8859 539.5477 625.9759C539.5477 630.8559 541.0177 637.6959 542.9677 643.5559C550.7777 670.4059 590.8177 708.4959 658.2077 708.4959ZM666.9877 509.2759C620.6077 509.2759 589.8477 474.6059 589.8477 425.7859C589.8477 374.5159 620.1177 340.8159 667.4777 340.8159C712.3977 340.8159 744.6277 376.4659 744.6277 426.7559C744.6277 474.6059 712.8877 509.2759 666.9877 509.2759ZM334.9577 649.4159C288.5777 649.4159 259.2777 591.7959 259.2777 498.0459C259.2777 404.2959 288.5777 346.6759 334.9577 346.6759C381.3477 346.6759 410.6477 404.2959 410.6477 498.0459C410.6477 591.7959 381.8377 649.4159 334.9577 649.4159Z"/>
</svg>