<?xml version="1.0" encoding="UTF-8" standalone="no"?>
<svg xmlns="http://www.w3.org/2000/svg"
     width="898.92578125" height="898.92578125"
     viewBox="0 0 898.92578125 898.92578125"
     fill="currentColor">
  <path d="M153.3183 898.9295H745.6083C848.1483 898.9295 898.9283 848.1495 898.9283 747.5595V151.3695C898.9283 50.7795 848.1483 -0.0005 745.6083 -0.0005H153.3183C51.2683 -0.0005 -0.0017 50.2895 -0.0017 151.3695V747.5595C-0.0017 848.6295 51.2683 898.9295 153.3183 898.9295ZM154.2983 820.3095C105.4683 820.3095 78.6183 794.4295 78.6183 743.6495V155.2695C78.6183 104.4895 105.4683 78.6095 154.2983 78.6095H744.6283C792.9683 78.6095 820.3083 104.4895 820.3083 155.2695V743.6495C820.3083 794.4295 792.9683 820.3095 744.6283 820.3095ZM287.1083 659.1795C371.0983 659.1795 426.7583 578.6095 426.7583 448.7295C426.7583 318.8495 371.0983 238.2795 287.1083 238.2795C203.1283 238.2795 147.4583 318.8495 147.4583 448.7295C147.4583 578.6095 203.1283 659.1795 287.1083 659.1795ZM610.3483 659.1795C707.5183 659.1795 760.2583 582.0295 760.2583 435.0595C760.2583 307.1295 707.5183 238.2795 615.7183 238.2795C533.6883 238.2795 479.9783 293.4595 479.9783 379.3895C479.9783 463.3795 537.1083 510.2495 601.0783 510.2495C654.7883 510.2495 686.5283 481.4495 699.2183 448.2395H702.1483C703.1283 545.4095 666.0183 603.0295 609.3783 603.0295C581.5383 603.0295 559.0783 588.3795 547.3683 566.8895C539.5483 553.2195 530.2783 547.8495 517.5783 547.8495C502.4383 547.8495 491.6983 559.5695 491.6983 576.6595C491.6983 581.5395 493.1683 588.3795 495.1183 594.2395C503.4183 621.0895 542.9683 659.1795 610.3483 659.1795ZM619.6283 459.9595C573.2383 459.9595 541.9883 425.2895 541.9883 376.4695C541.9883 325.1995 572.2683 291.4995 619.6283 291.4995C664.5483 291.4995 696.7783 327.1495 696.7783 377.4395C696.7783 425.2895 665.0383 459.9595 619.6283 459.9595ZM287.1083 600.0995C240.7183 600.0995 211.4283 542.4795 211.4283 448.7295C211.4283 354.9795 240.7183 297.3595 287.1083 297.3595C333.9883 297.3595 362.7883 354.9795 362.7883 448.7295C362.7883 542.4795 334.4683 600.0995 287.1083 600.0995Z"/>
</svg>