<?xml version="1.0" encoding="UTF-8" standalone="no"?>
<svg xmlns="http://www.w3.org/2000/svg"
     width="996.09375" height="996.09375"
     viewBox="0 0 996.09375 996.09375"
     fill="currentColor">
  <path d="M498.0477 996.0959C770.5077 996.0959 996.0977 770.0159 996.0977 498.0459C996.0977 225.5859 770.0177 -0.0041 497.5577 -0.0041C225.5877 -0.0041 -0.0023 225.5859 -0.0023 498.0459C-0.0023 770.0159 226.0777 996.0959 498.0477 996.0959ZM523.9277 727.0459C499.0277 727.0459 484.3777 709.9559 484.3777 681.6359V356.4459H480.4677L415.5277 398.9259C403.8077 407.2259 398.9277 408.2059 390.6277 408.2059C374.5077 408.2059 362.3077 393.5559 362.3077 377.9259C362.3077 365.2359 367.1877 357.4259 377.9277 349.6059L468.7477 288.0859C489.7477 273.4359 502.9277 268.5559 521.9777 268.5559C549.3177 268.5559 564.9377 284.6659 564.9377 313.9659V681.6359C564.9377 709.9559 550.2977 727.0459 523.9277 727.0459Z"/>
</svg>