<?xml version="1.0" encoding="UTF-8" standalone="no"?>
<svg xmlns="http://www.w3.org/2000/svg"
     width="898.92578125" height="898.92578125"
     viewBox="0 0 898.92578125 898.92578125"
     fill="currentColor">
  <path d="M153.3183 898.9295H745.6083C848.1483 898.9295 898.9283 848.1495 898.9283 747.5595V151.3695C898.9283 50.7795 848.1483 -0.0005 745.6083 -0.0005H153.3183C51.2683 -0.0005 -0.0017 50.2895 -0.0017 151.3695V747.5595C-0.0017 848.6295 51.2683 898.9295 153.3183 898.9295ZM154.2983 820.3095C105.4683 820.3095 78.6183 794.4295 78.6183 743.6495V155.2695C78.6183 104.4895 105.4683 78.6095 154.2983 78.6095H744.6283C792.9683 78.6095 820.3083 104.4895 820.3083 155.2695V743.6495C820.3083 794.4295 792.9683 820.3095 744.6283 820.3095ZM474.6083 670.8995C499.9983 670.8995 514.1583 654.2995 514.1583 626.9495V270.0195C514.1583 241.6995 499.0283 226.0695 472.6583 226.0695C455.0783 226.0695 441.8983 230.9595 421.3883 245.1195L333.4983 304.6895C322.7583 312.4995 318.3583 319.8195 318.3583 332.0295C318.3583 347.1695 330.5683 361.3295 346.1883 361.3295C353.5183 361.3295 358.3983 360.3495 369.6283 352.5395L433.1083 311.0395H436.5283V626.9495C436.5283 654.2995 450.6883 670.8995 474.6083 670.8995Z"/>
</svg>