<?xml version="1.0" encoding="UTF-8" standalone="no"?>
<svg xmlns="http://www.w3.org/2000/svg"
     width="996.09375" height="996.09375"
     viewBox="0 0 996.09375 996.09375"
     fill="currentColor">
  <path d="M498.0477 996.0959C770.5077 996.0959 996.0977 770.0159 996.0977 498.0459C996.0977 225.5859 770.0177 -0.0041 497.5577 -0.0041C225.5877 -0.0041 -0.0023 225.5859 -0.0023 498.0459C-0.0023 770.0159 226.0777 996.0959 498.0477 996.0959ZM498.0477 913.0859C267.5777 913.0859 83.4977 728.5159 83.4977 498.0459C83.4977 267.5759 267.0877 83.0059 497.5577 83.0059C728.0277 83.0059 913.0877 267.5759 913.0877 498.0459C913.0877 728.5159 728.5177 913.0859 498.0477 913.0859ZM624.5077 708.4959C708.4977 708.4959 764.1577 627.9259 764.1577 498.0459C764.1577 368.1659 708.4977 287.5959 624.5077 287.5959C540.5277 287.5959 484.8677 368.1659 484.8677 498.0459C484.8677 627.9259 540.5277 708.4959 624.5077 708.4959ZM365.7277 702.6359C384.7677 702.6359 396.9777 690.4259 396.9777 671.3859V325.6859C396.9777 305.1759 382.8077 290.5259 362.3077 290.5259C346.6777 290.5259 336.9177 295.4059 319.8277 307.1259L245.6077 357.9059C235.3477 365.2359 229.0077 374.0259 229.0077 386.7159C229.0077 403.3159 242.6777 416.0159 256.8377 416.0159C264.6477 416.0159 269.5277 415.5259 280.7577 406.7359L333.0077 368.1659H335.9377V671.3859C335.9377 690.4259 347.6577 702.6359 365.7277 702.6359ZM624.5077 649.4159C578.1277 649.4159 548.8277 591.7959 548.8277 498.0459C548.8277 404.2959 578.1277 346.6759 624.5077 346.6759C670.8977 346.6759 700.1977 404.2959 700.1977 498.0459C700.1977 591.7959 671.3877 649.4159 624.5077 649.4159Z"/>
</svg>