<?xml version="1.0" encoding="UTF-8" standalone="no"?>
<svg xmlns="http://www.w3.org/2000/svg"
     width="898.92578125" height="735.83984375"
     viewBox="0 0 898.92578125 735.83984375"
     fill="currentColor">
  <path d="M-0.0017 696.2866C-0.0017 717.7766 17.5783 735.8366 39.0583 735.8366C61.0383 735.8366 78.6183 717.7766 78.6183 696.2866V39.0666C78.6183 17.5766 61.0383 -0.0034 39.0583 -0.0034C17.5783 -0.0034 -0.0017 17.5766 -0.0017 39.0666ZM820.3083 696.2866C820.3083 717.7766 838.3783 735.8366 859.8683 735.8366C881.3483 735.8366 898.9283 717.7766 898.9283 696.2866V39.0666C898.9283 17.5766 881.3483 -0.0034 859.8683 -0.0034C838.3783 -0.0034 820.3083 17.5766 820.3083 39.0666ZM567.8683 572.7566C648.9283 572.7566 702.1483 496.0966 702.1483 378.9066C702.1483 260.7466 648.9283 183.1066 567.8683 183.1066C486.8183 183.1066 433.5983 260.7466 433.5983 378.9066C433.5983 496.0966 486.8183 572.7566 567.8683 572.7566ZM313.4783 566.8966C332.5183 566.8966 344.7283 553.7066 344.7283 533.2066V226.0766C344.7283 202.1466 332.0283 187.0166 310.0583 187.0166C296.8783 187.0166 287.5983 191.4066 270.0183 203.1266L202.1483 248.5366C191.4083 256.3466 186.0383 265.1366 186.0383 276.8566C186.0383 292.9666 198.7283 306.6366 214.3583 306.6366C223.6283 306.6366 228.0283 304.6866 237.7883 297.8466L283.1983 264.6466V533.2066C283.1983 553.2266 295.4083 566.8966 313.4783 566.8966ZM567.8683 513.6766C524.8983 513.6766 497.0683 462.4066 497.0683 378.9066C497.0683 293.9466 524.4183 242.1866 567.8683 242.1866C611.8183 242.1866 638.1883 293.4566 638.1883 378.9066C638.1883 462.4066 611.3283 513.6766 567.8683 513.6766Z"/>
</svg>