<?xml version="1.0" encoding="UTF-8" standalone="no"?>
<svg xmlns="http://www.w3.org/2000/svg"
     width="898.92578125" height="898.92578125"
     viewBox="0 0 898.92578125 898.92578125"
     fill="currentColor">
  <path d="M153.3183 898.9295H745.6083C848.1483 898.9295 898.9283 848.1495 898.9283 747.5595V151.3695C898.9283 50.7795 848.1483 -0.0005 745.6083 -0.0005H153.3183C51.2683 -0.0005 -0.0017 50.2895 -0.0017 151.3695V747.5595C-0.0017 848.6295 51.2683 898.9295 153.3183 898.9295ZM154.2983 820.3095C105.4683 820.3095 78.6183 794.4295 78.6183 743.6495V155.2695C78.6183 104.4895 105.4683 78.6095 154.2983 78.6095H744.6283C792.9683 78.6095 820.3083 104.4895 820.3083 155.2695V743.6495C820.3083 794.4295 792.9683 820.3095 744.6283 820.3095ZM576.6583 659.1795C660.6483 659.1795 716.3083 578.6095 716.3083 448.7295C716.3083 318.8495 660.6483 238.2795 576.6583 238.2795C492.6783 238.2795 437.0083 318.8495 437.0083 448.7295C437.0083 578.6095 492.6783 659.1795 576.6583 659.1795ZM317.8683 653.3195C336.9183 653.3195 349.1183 641.1095 349.1183 622.0695V276.3695C349.1183 255.8595 334.9583 241.2095 314.9383 241.2095C298.8283 241.2095 289.0583 246.0895 271.9683 257.8095L197.7583 308.5895C187.4983 315.9195 181.1483 324.7095 181.1483 337.3995C181.1483 353.9995 194.8283 366.6995 208.9883 366.6995C217.2883 366.6995 221.6783 366.2095 232.9083 357.4195L285.1583 318.8495H288.0883V622.0695C288.0883 641.1095 299.8083 653.3195 317.8683 653.3195ZM576.6583 600.0995C530.2783 600.0995 500.9783 542.4795 500.9783 448.7295C500.9783 354.9795 530.2783 297.3595 576.6583 297.3595C623.0483 297.3595 652.3483 354.9795 652.3483 448.7295C652.3483 542.4795 623.5383 600.0995 576.6583 600.0995Z"/>
</svg>