<?xml version="1.0" encoding="UTF-8" standalone="no"?>
<svg xmlns="http://www.w3.org/2000/svg"
     width="996.09375" height="996.09375"
     viewBox="0 0 996.09375 996.09375"
     fill="currentColor">
  <path d="M498.0477 996.0959C770.5077 996.0959 996.0977 770.0159 996.0977 498.0459C996.0977 225.5859 770.0177 -0.0041 497.5577 -0.0041C225.5877 -0.0041 -0.0023 225.5859 -0.0023 498.0459C-0.0023 770.0159 226.0777 996.0959 498.0477 996.0959ZM498.0477 913.0859C267.5777 913.0859 83.4977 728.5159 83.4977 498.0459C83.4977 267.5759 267.0877 83.0059 497.5577 83.0059C728.0277 83.0059 913.0877 267.5759 913.0877 498.0459C913.0877 728.5159 728.5177 913.0859 498.0477 913.0859ZM395.5077 702.6359C414.0577 702.6359 426.2677 690.4259 426.2677 671.3859V325.6859C426.2677 305.1759 412.1077 290.5259 392.0877 290.5259C375.9777 290.5259 366.2077 295.4059 349.1177 307.1259L274.8977 357.9059C264.6477 365.2359 258.2977 374.0259 258.2977 386.7159C258.2977 403.3159 272.4577 416.0159 286.6177 416.0159C294.4377 416.0159 298.8277 415.5259 310.0577 406.7359L362.3077 368.1659H365.2377V671.3859C365.2377 690.4259 377.4377 702.6359 395.5077 702.6359ZM651.3677 702.6359C669.9177 702.6359 682.1277 690.4259 682.1277 671.3859V325.6859C682.1277 305.1759 668.4577 290.5259 647.9477 290.5259C631.8377 290.5259 622.5577 295.4059 604.9777 307.1259L530.7577 357.9059C520.5077 365.2359 514.6477 374.0259 514.6477 386.7159C514.6477 403.3159 528.3177 416.0159 542.4777 416.0159C550.2977 416.0159 555.1777 415.5259 566.4077 406.7359L618.1677 368.1659H621.0977V671.3859C621.0977 690.4259 633.2977 702.6359 651.3677 702.6359Z"/>
</svg>