<?xml version="1.0" encoding="UTF-8" standalone="no"?>
<svg xmlns="http://www.w3.org/2000/svg"
     width="898.92578125" height="898.92578125"
     viewBox="0 0 898.92578125 898.92578125"
     fill="currentColor">
  <path d="M153.3183 898.9295H745.6083C848.1483 898.9295 898.9283 848.1495 898.9283 747.5595V151.3695C898.9283 50.7795 848.1483 -0.0005 745.6083 -0.0005H153.3183C51.2683 -0.0005 -0.0017 50.2895 -0.0017 151.3695V747.5595C-0.0017 848.6295 51.2683 898.9295 153.3183 898.9295ZM344.2383 659.6695C325.6883 659.6695 312.9883 646.9695 312.9883 627.4395V314.9395H310.0583L256.8383 354.9795C244.6283 363.7695 240.2383 364.2595 231.9383 364.2595C217.2883 364.2595 203.1283 351.0695 203.1283 333.9795C203.1283 320.7995 209.4683 312.0095 219.7283 304.1995L296.3883 251.9495C314.4483 239.7495 324.2183 234.8595 340.8183 234.8595C361.8183 234.8595 375.9783 249.9995 375.9783 270.9995V627.4395C375.9783 646.9695 363.2783 659.6695 344.2383 659.6695ZM608.3983 659.6695C589.3583 659.6695 576.6583 646.9695 576.6583 627.4395V314.9395H574.2183L520.9983 354.9795C509.2783 363.7695 503.9083 364.2595 496.0983 364.2595C481.4483 364.2595 467.2883 351.0695 467.2883 333.9795C467.2883 320.7995 473.1483 312.0095 484.3783 304.1995L560.0583 251.9495C578.1283 239.7495 587.8883 234.8595 604.4883 234.8595C625.9783 234.8595 640.1383 249.9995 640.1383 270.9995V627.4395C640.1383 646.9695 627.4383 659.6695 608.3983 659.6695Z"/>
</svg>