<?xml version="1.0" encoding="UTF-8" standalone="no"?>
<svg xmlns="http://www.w3.org/2000/svg"
     width="898.92578125" height="898.92578125"
     viewBox="0 0 898.92578125 898.92578125"
     fill="currentColor">
  <path d="M153.3183 898.9295H745.6083C848.1483 898.9295 898.9283 848.1495 898.9283 747.5595V151.3695C898.9283 50.7795 848.1483 -0.0005 745.6083 -0.0005H153.3183C51.2683 -0.0005 -0.0017 50.2895 -0.0017 151.3695V747.5595C-0.0017 848.6295 51.2683 898.9295 153.3183 898.9295ZM154.2983 820.3095C105.4683 820.3095 78.6183 794.4295 78.6183 743.6495V155.2695C78.6183 104.4895 105.4683 78.6095 154.2983 78.6095H744.6283C792.9683 78.6095 820.3083 104.4895 820.3083 155.2695V743.6495C820.3083 794.4295 792.9683 820.3095 744.6283 820.3095ZM347.6583 653.3195C366.2083 653.3195 378.4183 641.1095 378.4183 622.0695V276.3695C378.4183 255.8595 364.7483 241.2095 344.2383 241.2095C328.1283 241.2095 318.8483 246.0895 301.2683 257.8095L227.0483 308.5895C216.7983 315.9195 210.9383 324.7095 210.9383 337.3995C210.9383 353.9995 224.6083 366.6995 238.7683 366.6995C246.5783 366.6995 250.9783 366.2095 262.6983 357.4195L314.4483 318.8495H317.3783V622.0695C317.3783 641.1095 329.5883 653.3195 347.6583 653.3195ZM603.5183 653.3195C622.0683 653.3195 634.2783 641.1095 634.2783 622.0695V276.3695C634.2783 255.8595 620.6083 241.2095 600.0983 241.2095C583.9883 241.2095 574.7083 246.0895 557.1283 257.8095L483.3983 308.5895C472.6583 315.9195 466.7983 324.7095 466.7983 337.3995C466.7983 353.9995 480.4683 366.6995 494.6283 366.6995C502.4383 366.6995 507.3283 366.2095 518.5583 357.4195L570.7983 318.8495H573.2383V622.0695C573.2383 641.1095 585.4483 653.3195 603.5183 653.3195Z"/>
</svg>