<?xml version="1.0" encoding="UTF-8" standalone="no"?>
<svg xmlns="http://www.w3.org/2000/svg"
     width="996.09375" height="996.09375"
     viewBox="0 0 996.09375 996.09375"
     fill="currentColor">
  <path d="M498.0477 996.0959C770.5077 996.0959 996.0977 770.0159 996.0977 498.0459C996.0977 225.5859 770.0177 -0.0041 497.5577 -0.0041C225.5877 -0.0041 -0.0023 225.5859 -0.0023 498.0459C-0.0023 770.0159 226.0777 996.0959 498.0477 996.0959ZM498.0477 913.0859C267.5777 913.0859 83.4977 728.5159 83.4977 498.0459C83.4977 267.5759 267.0877 83.0059 497.5577 83.0059C728.0277 83.0059 913.0877 267.5759 913.0877 498.0459C913.0877 728.5159 728.5177 913.0859 498.0477 913.0859ZM523.9277 697.2659H726.0777C741.6977 697.2659 753.4177 685.5459 753.4177 667.9659C753.4177 649.9059 741.6977 639.6459 726.0777 639.6459H583.9877V636.2259L680.1777 524.9059C715.8177 482.9059 742.6777 447.7559 742.6777 398.9259C742.6777 331.0559 693.3577 287.5959 616.6977 287.5959C558.5977 287.5959 506.8377 324.7059 494.1377 374.5159C493.1677 380.8559 491.6977 386.2259 491.6977 392.0859C491.6977 409.6659 502.4377 421.3859 519.0477 421.3859C533.2077 421.3859 540.5277 413.0859 546.8777 398.4359C559.5677 361.8159 583.9877 343.7459 619.1377 343.7459C658.2077 343.7459 684.0777 368.1659 684.0777 404.2959C684.0777 436.0359 658.2077 463.3759 635.2577 490.7259L506.3477 642.0859C498.5377 650.3859 495.6077 658.6959 495.6077 668.4559C495.6077 686.0359 506.8377 697.2659 523.9277 697.2659ZM365.2377 702.6359C383.7877 702.6359 395.9977 690.4259 395.9977 671.3859V325.6859C395.9977 305.1759 381.8377 290.5259 361.8177 290.5259C345.7077 290.5259 335.9377 295.4059 318.8477 307.1259L244.6277 357.9059C234.3777 365.2359 228.0277 374.0259 228.0277 386.7159C228.0277 403.3159 242.1877 416.0159 256.3477 416.0159C264.1577 416.0159 268.5577 415.5259 279.7877 406.7359L332.0277 368.1659H334.9577V671.3859C334.9577 690.4259 347.1677 702.6359 365.2377 702.6359Z"/>
</svg>