<?xml version="1.0" encoding="UTF-8" standalone="no"?>
<svg xmlns="http://www.w3.org/2000/svg"
     width="996.09375" height="996.09375"
     viewBox="0 0 996.09375 996.09375"
     fill="currentColor">
  <path d="M498.0477 996.0959C770.5077 996.0959 996.0977 770.0159 996.0977 498.0459C996.0977 225.5859 770.0177 -0.0041 497.5577 -0.0041C225.5877 -0.0041 -0.0023 225.5859 -0.0023 498.0459C-0.0023 770.0159 226.0777 996.0959 498.0477 996.0959ZM525.3877 703.6159C507.8077 703.6159 496.0977 691.8959 496.0977 673.8259C496.0977 663.5759 499.0277 655.2759 507.3277 646.4859L640.1377 490.7259C663.5777 462.4059 690.4277 434.0859 690.4277 401.3659C690.4277 364.2559 664.0577 339.3559 623.5377 339.3559C587.3977 339.3559 562.4977 357.9059 549.3177 395.5059C542.9677 410.6459 535.1577 418.9459 520.5077 418.9459C503.4177 418.9459 492.1877 407.2259 492.1877 388.6759C492.1877 382.8159 493.6477 376.9559 494.6277 370.6059C507.8077 319.3359 561.0377 281.2459 621.0977 281.2459C700.1977 281.2459 750.9777 325.6859 750.9777 395.9959C750.9777 446.2859 723.6377 482.4259 686.5277 525.8759L587.8877 640.6259V644.0459H733.8877C749.9977 644.0459 762.2077 654.7859 762.2077 673.3359C762.2077 691.4059 749.9977 703.6159 733.8877 703.6159ZM361.8177 708.9859C343.2577 708.9859 330.5677 696.7759 330.5677 676.7559V364.7459H327.6377L273.9277 404.2959C262.2077 413.0859 257.8077 413.5759 249.5077 413.5759C234.8677 413.5759 220.2177 400.3859 220.2177 383.2959C220.2177 370.1159 226.5577 361.3259 237.3077 353.5159L313.9677 301.2659C331.5477 289.0659 341.7977 284.1759 358.3977 284.1759C378.9077 284.1759 393.5577 299.3159 393.5577 320.3159V676.7559C393.5577 696.7759 380.8577 708.9859 361.8177 708.9859Z"/>
</svg>