<?xml version="1.0" encoding="UTF-8" standalone="no"?>
<svg xmlns="http://www.w3.org/2000/svg"
     width="898.92578125" height="735.83984375"
     viewBox="0 0 898.92578125 735.83984375"
     fill="currentColor">
  <path d="M-0.0017 696.2866C-0.0017 717.7766 17.5783 735.8366 39.0583 735.8366C61.0383 735.8366 78.6183 717.7766 78.6183 696.2866V39.0666C78.6183 17.5766 61.0383 -0.0034 39.0583 -0.0034C17.5783 -0.0034 -0.0017 17.5766 -0.0017 39.0666ZM820.3083 696.2866C820.3083 717.7766 838.3783 735.8366 859.8683 735.8366C881.3483 735.8366 898.9283 717.7766 898.9283 696.2866V39.0666C898.9283 17.5766 881.3483 -0.0034 859.8683 -0.0034C838.3783 -0.0034 820.3083 17.5766 820.3083 39.0666ZM476.5583 566.4066H678.2183C693.8483 566.4066 705.5683 554.6866 705.5683 537.1066C705.5683 519.0466 693.8483 508.7866 678.2183 508.7866H536.1283V505.3666L632.3283 394.0466C668.4583 352.0466 695.3083 316.8966 695.3083 268.0666C695.3083 200.1966 645.5083 156.7366 568.8483 156.7366C510.7383 156.7366 458.9883 193.8466 446.2883 243.6566C445.3083 249.9966 443.8483 255.3666 443.8483 261.2266C443.8483 278.8066 454.5883 290.5266 471.1883 290.5266C485.3483 290.5266 492.6783 282.2266 499.0283 267.5766C511.7183 230.9566 536.1283 212.8866 571.2883 212.8866C610.8383 212.8866 636.2283 237.3066 636.2283 273.4366C636.2283 305.1766 610.3483 332.5166 587.3983 359.8666L458.4983 511.2266C451.1683 519.5266 447.7583 527.8366 447.7583 537.5966C447.7583 555.1766 458.9883 566.4066 476.5583 566.4066ZM317.3783 571.7766C335.9383 571.7766 348.1483 559.5666 348.1483 540.5266V194.8266C348.1483 174.3166 334.4683 159.6666 313.9683 159.6666C297.8483 159.6666 288.5783 164.5466 270.9983 176.2666L196.7783 227.0466C186.5283 234.3766 180.6683 243.1666 180.6683 255.8566C180.6683 272.4566 194.3383 285.1566 208.4983 285.1566C216.3083 285.1566 220.6983 284.6666 232.4183 275.8766L284.1783 237.3066H287.1083V540.5266C287.1083 559.5666 299.3183 571.7766 317.3783 571.7766Z"/>
</svg>