<?xml version="1.0" encoding="UTF-8" standalone="no"?>
<svg xmlns="http://www.w3.org/2000/svg"
     width="898.92578125" height="898.92578125"
     viewBox="0 0 898.92578125 898.92578125"
     fill="currentColor">
  <path d="M153.3183 898.9295H745.6083C848.1483 898.9295 898.9283 848.1495 898.9283 747.5595V151.3695C898.9283 50.7795 848.1483 -0.0005 745.6083 -0.0005H153.3183C51.2683 -0.0005 -0.0017 50.2895 -0.0017 151.3695V747.5595C-0.0017 848.6295 51.2683 898.9295 153.3183 898.9295ZM154.2983 820.3095C105.4683 820.3095 78.6183 794.4295 78.6183 743.6495V155.2695C78.6183 104.4895 105.4683 78.6095 154.2983 78.6095H744.6283C792.9683 78.6095 820.3083 104.4895 820.3083 155.2695V743.6495C820.3083 794.4295 792.9683 820.3095 744.6283 820.3095ZM476.5583 647.9495H678.2183C693.8483 647.9495 705.5683 636.2295 705.5683 618.6495C705.5683 600.5895 693.8483 590.3295 678.2183 590.3295H536.1283V586.9095L632.3283 475.5895C668.4583 433.5895 695.3083 398.4395 695.3083 349.6095C695.3083 281.7395 645.5083 238.2795 568.8483 238.2795C510.7383 238.2795 458.9883 275.3895 446.2883 325.1995C445.3083 331.5395 443.8483 336.9095 443.8483 342.7695C443.8483 360.3495 454.5883 372.0695 471.1883 372.0695C485.3483 372.0695 492.6783 363.7695 499.0283 349.1195C511.7183 312.4995 536.1283 294.4295 571.2883 294.4295C610.8383 294.4295 636.2283 318.8495 636.2283 354.9795C636.2283 386.7195 610.3483 414.0595 587.3983 441.4095L458.4983 592.7695C451.1683 601.0695 447.7583 609.3795 447.7583 619.1395C447.7583 636.7195 458.9883 647.9495 476.5583 647.9495ZM317.3783 653.3195C335.9383 653.3195 348.1483 641.1095 348.1483 622.0695V276.3695C348.1483 255.8595 334.4683 241.2095 313.9683 241.2095C297.8483 241.2095 288.5783 246.0895 270.9983 257.8095L196.7783 308.5895C186.5283 315.9195 180.6683 324.7095 180.6683 337.3995C180.6683 353.9995 194.3383 366.6995 208.4983 366.6995C216.3083 366.6995 220.6983 366.2095 232.4183 357.4195L284.1783 318.8495H287.1083V622.0695C287.1083 641.1095 299.3183 653.3195 317.3783 653.3195Z"/>
</svg>