<?xml version="1.0" encoding="UTF-8" standalone="no"?>
<svg xmlns="http://www.w3.org/2000/svg"
     width="898.92578125" height="898.92578125"
     viewBox="0 0 898.92578125 898.92578125"
     fill="currentColor">
  <path d="M153.3183 898.9295H745.6083C848.1483 898.9295 898.9283 848.1495 898.9283 747.5595V151.3695C898.9283 50.7795 848.1483 -0.0005 745.6083 -0.0005H153.3183C51.2683 -0.0005 -0.0017 50.2895 -0.0017 151.3695V747.5595C-0.0017 848.6295 51.2683 898.9295 153.3183 898.9295ZM477.5383 654.2995C459.4683 654.2995 447.7583 642.5795 447.7583 624.5095C447.7583 614.2595 451.1683 605.9595 458.9883 597.1695L591.7983 441.4095C615.2383 413.0895 642.0883 384.7695 642.0883 352.0495C642.0883 314.9395 615.7183 290.0395 575.1983 290.0395C539.0583 290.0395 514.1583 308.5895 500.9783 346.1895C494.6283 361.3295 486.8183 369.6295 472.1683 369.6295C455.0783 369.6295 443.8483 357.9095 443.8483 339.3595C443.8483 333.4995 445.3083 327.6395 446.2883 321.2895C459.4683 270.0195 512.6983 231.9295 572.7583 231.9295C651.8583 231.9295 703.1283 276.3695 703.1283 346.6795C703.1283 396.9695 675.7783 433.1095 638.1883 476.5595L539.5483 591.3095V594.7295H685.5483C701.6583 594.7295 713.8683 605.4695 713.8683 624.0195C713.8683 642.0895 701.6583 654.2995 685.5483 654.2995ZM313.4783 659.6695C294.9183 659.6695 282.2283 647.4595 282.2283 627.4395V315.4295H279.2983L226.0783 354.9795C214.3583 363.7695 209.4683 364.2595 201.1683 364.2595C186.5283 364.2595 172.3683 351.0695 172.3683 333.9795C172.3683 320.7995 178.2183 312.0095 188.9683 304.1995L265.6283 251.9495C283.6883 239.7495 293.4583 234.8595 310.0583 234.8595C331.0583 234.8595 345.2183 249.9995 345.2183 270.9995V627.4395C345.2183 647.4595 332.5183 659.6695 313.4783 659.6695Z"/>
</svg>