<?xml version="1.0" encoding="UTF-8" standalone="no"?>
<svg xmlns="http://www.w3.org/2000/svg"
     width="1151.3671875" height="898.92578125"
     viewBox="0 0 1151.3671875 898.92578125"
     fill="currentColor">
  <path d="M153.3183 898.9278H998.0483C1100.5883 898.9278 1151.3683 848.6378 1151.3683 748.0478V151.3678C1151.3683 50.7778 1100.5883 -0.0022 998.0483 -0.0022H153.3183C51.2683 -0.0022 -0.0017 50.7778 -0.0017 151.3678V748.0478C-0.0017 848.6378 51.2683 898.9278 153.3183 898.9278ZM858.3983 655.7578C787.1083 655.7578 727.5383 620.1178 716.7983 568.8478C715.8183 562.9878 715.3283 560.0578 715.3283 553.7078C715.3283 536.1278 726.5583 523.4378 745.6083 523.4378C760.7383 523.4378 770.0183 530.7578 776.3683 545.8978C788.0883 580.0778 817.3783 599.1178 859.3783 599.1178C910.1583 599.1178 943.8483 572.7578 943.8483 534.1778C943.8483 494.6278 910.6483 468.7478 861.8183 468.7478H831.0583C815.4283 468.7478 803.7083 457.0278 803.7083 440.9178C803.7083 424.3178 815.4283 413.5778 831.0583 413.5778H858.8883C899.8983 413.5778 930.6683 387.2078 930.6683 351.5578C930.6683 316.8978 903.3183 295.4078 860.8383 295.4078C822.2683 295.4078 793.4583 314.4578 783.6883 348.1478C778.8083 363.7678 769.0383 371.0978 753.4183 371.0978C735.3483 371.0978 723.1483 358.8878 723.1483 342.2878C723.1483 334.9578 723.6283 331.0578 724.6083 324.7078C736.8183 272.4578 790.5283 238.2778 861.8183 238.2778C939.9383 238.2778 995.6083 282.7178 995.6083 344.2378C995.6083 390.6278 961.9183 430.6678 918.4583 437.4978V438.4778C971.1883 444.3378 1009.7683 484.8678 1009.7683 536.6178C1009.7683 608.3978 948.7283 655.7578 858.3983 655.7578ZM422.3683 648.9278C402.8283 648.9278 390.1383 637.6978 390.1383 619.6278C390.1383 609.3778 394.5283 601.0778 401.8583 593.2578L542.9683 442.3778C568.3583 415.0378 594.7283 388.1878 594.7283 356.9378C594.7283 320.7978 566.8983 296.3878 525.8783 296.3878C483.8883 296.3878 460.4483 324.7078 449.7083 351.5578C441.8983 364.2578 433.5983 374.0278 417.4783 374.0278C399.4183 374.0278 388.1883 362.3078 388.1883 345.2178C388.1883 338.8678 389.1583 334.4678 391.1183 327.6378C405.2783 276.8578 460.9383 238.7678 522.9483 238.7678C604.4883 238.7678 658.1983 283.6878 658.1983 351.5578C658.1983 399.8978 630.3683 435.0578 591.3083 477.0478L487.3083 588.3778V590.3278H647.9483C665.5283 590.3278 677.7383 602.0478 677.7383 619.1378C677.7383 636.2278 665.5283 648.9278 647.9483 648.9278ZM278.8083 655.2778C257.8083 655.2778 245.1183 640.6278 245.1183 617.1878V313.9678H240.7183L183.5983 351.5578C172.8483 358.8878 167.9683 359.8678 161.1283 359.8678C148.9283 359.8678 137.6983 348.1478 137.6983 334.4678C137.6983 324.7078 141.1183 317.3778 150.8783 311.0378L230.9583 256.3478C249.9983 243.6478 260.2583 239.2578 277.3483 239.2578C300.2883 239.2578 313.4783 252.9278 313.4783 277.8278V617.1878C313.4783 641.1178 300.7783 655.2778 278.8083 655.2778Z"/>
</svg>