<?xml version="1.0" encoding="UTF-8" standalone="no"?>
<svg xmlns="http://www.w3.org/2000/svg"
     width="1151.3671875" height="898.92578125"
     viewBox="0 0 1151.3671875 898.92578125"
     fill="currentColor">
  <path d="M153.3183 898.9278H998.0483C1100.5883 898.9278 1151.3683 848.6378 1151.3683 748.0478V151.3678C1151.3683 50.7778 1100.5883 -0.0022 998.0483 -0.0022H153.3183C51.2683 -0.0022 -0.0017 50.7778 -0.0017 151.3678V748.0478C-0.0017 848.6378 51.2683 898.9278 153.3183 898.9278ZM154.2983 820.3078C105.4683 820.3078 78.6183 794.4378 78.6183 743.6478V155.7578C78.6183 104.9778 105.4683 78.6178 154.2983 78.6178H997.0683C1045.4083 78.6178 1072.7583 104.9778 1072.7583 155.7578V743.6478C1072.7583 794.4378 1045.4083 820.3078 997.0683 820.3078ZM849.6083 649.4178C937.4983 649.4178 996.5783 603.5178 996.5783 534.1778C996.5783 483.8878 958.9883 444.3378 907.7183 438.9678V437.9878C950.1983 431.1478 982.9083 392.0878 982.9083 347.1678C982.9083 287.5978 928.7083 244.6278 853.0283 244.6278C784.1783 244.6278 731.9383 277.8278 720.2183 328.1278C719.2383 334.4678 718.7483 338.3778 718.7483 345.2178C718.7483 361.3278 730.4683 373.0478 748.0483 373.0478C763.1883 373.0478 772.4583 366.2078 777.3483 351.0778C786.6183 318.3578 814.4483 299.8078 852.0483 299.8078C893.5583 299.8078 919.9183 320.7978 919.9183 354.4878C919.9183 389.1578 890.1383 414.5478 850.0983 414.5478H823.2383C808.1083 414.5478 796.8783 425.2978 796.8783 440.9178C796.8783 456.5478 808.1083 467.7778 823.2383 467.7778H853.0283C900.3883 467.7778 933.1083 493.1678 933.1083 531.7378C933.1083 569.3378 899.8983 594.7278 850.5883 594.7278C810.0583 594.7278 781.2483 576.1678 770.0183 542.9678C763.6683 528.3178 754.8783 521.4878 740.2383 521.4878C722.1683 521.4878 710.9383 533.6878 710.9383 550.7778C710.9383 556.6378 711.4283 559.5678 712.3983 565.4278C723.1483 614.7478 780.7583 649.4178 849.6083 649.4178ZM426.7583 643.0678H645.9983C662.5983 643.0678 674.3183 630.8578 674.3183 614.2578C674.3183 597.6578 662.5983 586.4278 645.9983 586.4278H489.7483V584.4678L590.8183 476.0778C628.9083 435.0578 655.7583 401.3678 655.7583 354.4878C655.7583 288.5778 603.5183 245.1178 524.4183 245.1178C464.3583 245.1178 410.1583 281.7378 396.4883 331.0578C395.0183 337.8878 394.0383 342.2878 394.0383 348.1478C394.0383 364.7478 404.7883 375.9778 422.3683 375.9778C437.4983 375.9778 445.7983 366.6978 453.1283 354.4878C463.3783 328.1278 486.3283 300.7778 527.3483 300.7778C567.3783 300.7778 594.2383 324.2178 594.2383 359.3778C594.2383 389.6478 568.8483 416.0178 543.9483 442.3778L407.2283 589.3578C399.8983 596.6778 395.9983 604.4878 395.9983 614.7478C395.9983 631.8378 408.1983 643.0678 426.7583 643.0678ZM287.5983 648.9278C309.0783 648.9278 321.2883 635.2578 321.2883 612.3078V282.7178C321.2883 258.7878 308.1083 245.6078 286.1283 245.6078C270.0183 245.6078 259.7683 249.5078 241.6983 262.2078L163.5783 314.9378C154.2983 321.2878 150.8783 328.1278 150.8783 337.8878C150.8783 351.0778 161.6183 362.3078 173.8283 362.3078C180.1783 362.3078 185.0583 361.3278 195.3083 354.0078L250.9783 317.3778H255.3683V612.3078C255.3683 634.7678 267.5783 648.9278 287.5983 648.9278Z"/>
</svg>