<?xml version="1.0" encoding="UTF-8" standalone="no"?>
<svg xmlns="http://www.w3.org/2000/svg"
     width="996.09375" height="996.09375"
     viewBox="0 0 996.09375 996.09375"
     fill="currentColor">
  <path d="M498.0477 996.0959C770.5077 996.0959 996.0977 770.0159 996.0977 498.0459C996.0977 225.5859 770.0177 -0.0041 497.5577 -0.0041C225.5877 -0.0041 -0.0023 225.5859 -0.0023 498.0459C-0.0023 770.0159 226.0777 996.0959 498.0477 996.0959ZM498.0477 913.0859C267.5777 913.0859 83.4977 728.5159 83.4977 498.0459C83.4977 267.5759 267.0877 83.0059 497.5577 83.0059C728.0277 83.0059 913.0877 267.5759 913.0877 498.0459C913.0877 728.5159 728.5177 913.0859 498.0477 913.0859ZM609.8677 708.4959C692.8677 708.4959 750.9777 658.6959 750.9777 588.3759C750.9777 536.6259 714.8477 494.6259 665.5277 489.7459V486.8159C706.0577 479.9759 737.7977 439.4559 737.7977 393.5559C737.7977 331.0559 686.5277 287.5959 613.2777 287.5959C547.3677 287.5959 498.5377 325.1959 485.8377 373.0459C484.3777 379.3959 484.3777 384.2759 484.3777 390.6259C484.3777 408.2059 495.6077 420.4059 512.2077 420.4059C526.8577 420.4059 534.6677 412.5959 539.5477 396.9759C550.2977 362.7959 573.7277 343.7459 611.8177 343.7459C650.3877 343.7459 677.7377 367.1859 677.7377 401.3659C677.7377 437.0159 650.3877 462.8859 611.3277 462.8859H584.9577C569.3377 462.8859 558.5977 474.1259 558.5977 491.6959C558.5977 507.3259 569.3377 519.5359 584.9577 519.5359H613.7677C660.1577 519.5359 689.9377 545.8959 689.9377 585.4459C689.9377 623.5359 657.2277 652.3459 610.3477 652.3459C571.7777 652.3459 545.4077 633.2959 532.2277 599.1259C526.3677 583.4959 518.0677 575.6859 504.3977 575.6859C488.2777 575.6859 476.0777 587.8859 476.0777 604.9759C476.0777 611.8159 477.0477 616.6959 478.5177 623.0459C491.6977 667.9659 543.4577 708.4959 609.8677 708.4959ZM364.2577 702.6359C383.2977 702.6359 395.5077 690.4259 395.5077 671.3859V325.6859C395.5077 305.1759 381.3477 290.5259 361.3277 290.5259C345.2177 290.5259 335.4477 295.4059 318.3577 307.1259L244.1377 357.9059C233.8877 365.2359 227.5377 374.0259 227.5377 386.7159C227.5377 403.3159 241.2077 416.0159 255.3677 416.0159C263.6677 416.0159 268.0677 415.5259 279.2977 406.7359L331.5477 368.1659H334.4777V671.3859C334.4777 690.4259 346.1877 702.6359 364.2577 702.6359Z"/>
</svg>