<?xml version="1.0" encoding="UTF-8" standalone="no"?>
<svg xmlns="http://www.w3.org/2000/svg"
     width="996.09375" height="996.09375"
     viewBox="0 0 996.09375 996.09375"
     fill="currentColor">
  <path d="M498.0477 996.0959C770.5077 996.0959 996.0977 770.0159 996.0977 498.0459C996.0977 225.5859 770.0177 -0.0041 497.5577 -0.0041C225.5877 -0.0041 -0.0023 225.5859 -0.0023 498.0459C-0.0023 770.0159 226.0777 996.0959 498.0477 996.0959ZM614.2577 715.3359C545.4077 715.3359 492.1877 673.3359 478.5177 626.9559C477.0477 620.6059 476.0777 615.2359 476.0777 608.3959C476.0777 590.8159 488.7677 578.1259 505.3677 578.1259C519.5277 578.1259 528.3177 585.9359 534.1777 602.0459C547.8477 637.2059 574.7077 656.7359 614.7477 656.7359C663.0877 656.7359 696.2877 627.4459 696.2877 588.3759C696.2877 547.3659 666.0177 520.5059 618.1677 520.5059H588.3777C572.2677 520.5059 561.0377 507.8159 561.0377 491.6959C561.0377 473.1459 572.2677 461.4259 588.3777 461.4259H615.7277C655.7577 461.4259 684.0777 435.0559 684.0777 398.4359C684.0777 363.2859 655.7577 339.3559 616.2077 339.3559C577.1477 339.3559 552.7377 358.8859 541.9877 394.0459C536.6177 410.1559 528.8077 417.9659 513.6677 417.9659C496.0977 417.9659 484.8677 405.2759 484.8677 387.2059C484.8677 380.8559 484.8677 375.4859 486.3277 369.1359C499.0277 319.8259 549.8077 280.7659 617.6777 280.7659C693.3577 280.7659 746.0977 325.6859 746.0977 390.1359C746.0977 437.4959 713.3777 479.4959 671.8777 486.3259V489.2559C722.6577 494.6259 759.7677 537.5959 759.7677 591.3059C759.7677 663.5759 699.7077 715.3359 614.2577 715.3359ZM360.8377 708.9859C342.2877 708.9859 330.0777 696.2859 330.0777 676.7559V364.2559H327.1477L273.4377 403.8059C261.7177 413.0859 257.3277 413.5759 249.0277 413.5759C233.8877 413.5759 219.7277 400.3859 219.7277 383.2959C219.7277 370.1159 226.5577 360.8359 236.8177 353.5159L313.4777 301.2659C331.0577 289.0659 341.3077 284.1759 357.9077 284.1759C378.4177 284.1759 393.0677 299.3159 393.0677 320.3159V676.7559C393.0677 696.2859 380.3677 708.9859 360.8377 708.9859Z"/>
</svg>