<?xml version="1.0" encoding="UTF-8" standalone="no"?>
<svg xmlns="http://www.w3.org/2000/svg"
     width="898.92578125" height="898.92578125"
     viewBox="0 0 898.92578125 898.92578125"
     fill="currentColor">
  <path d="M153.3183 898.9295H745.6083C848.1483 898.9295 898.9283 848.1495 898.9283 747.5595V151.3695C898.9283 50.7795 848.1483 -0.0005 745.6083 -0.0005H153.3183C51.2683 -0.0005 -0.0017 50.2895 -0.0017 151.3695V747.5595C-0.0017 848.6295 51.2683 898.9295 153.3183 898.9295ZM566.4083 666.0195C497.0683 666.0195 443.8483 624.0195 430.6683 577.6395C428.7083 571.2895 427.7383 565.9195 427.7383 559.0795C427.7383 541.4995 440.4283 528.8095 457.0283 528.8095C471.6783 528.8095 479.9783 536.6195 485.8383 552.7295C499.5083 587.8895 526.3683 607.4195 566.8983 607.4195C614.7483 607.4195 647.9483 578.1295 647.9483 539.0595C647.9483 498.0495 617.6783 471.1895 569.8283 471.1895H540.0383C523.9283 471.1895 512.6983 458.4995 512.6983 442.3795C512.6983 423.8295 523.9283 412.1095 540.0383 412.1095H567.3783C607.4183 412.1095 635.7383 385.7395 635.7383 349.1195C635.7383 313.9695 607.9083 290.0395 567.8683 290.0395C528.8083 290.0395 504.3983 309.5695 493.6483 344.7295C488.2783 360.8395 480.4683 368.6495 465.3283 368.6495C447.7583 368.6495 436.5283 355.9595 436.5283 337.8895C436.5283 331.5395 436.5283 326.1695 437.9883 319.8195C450.6883 270.5095 501.4683 231.4495 569.3383 231.4495C645.0183 231.4495 697.7583 276.3695 697.7583 340.8195C697.7583 388.1795 665.0383 430.1795 623.5383 437.0095V439.9395C674.3183 445.3095 711.4283 488.2795 711.4283 541.9895C711.4283 614.2595 651.3683 666.0195 566.4083 666.0195ZM312.9883 659.6695C294.4383 659.6695 281.7383 646.9695 281.7383 627.4395V314.9395H278.8083L225.0983 354.4895C213.3783 363.7695 208.9883 364.2595 200.6883 364.2595C186.0383 364.2595 171.3883 351.0695 171.3883 333.9795C171.3883 320.7995 178.2183 311.5195 188.4783 304.1995L265.1383 251.9495C282.7183 239.7495 292.9683 234.8595 309.5683 234.8595C330.0783 234.8595 344.7283 249.9995 344.7283 270.9995V627.4395C344.7283 646.9695 332.0283 659.6695 312.9883 659.6695Z"/>
</svg>