<?xml version="1.0" encoding="UTF-8" standalone="no"?>
<svg xmlns="http://www.w3.org/2000/svg"
     width="996.09375" height="996.09375"
     viewBox="0 0 996.09375 996.09375"
     fill="currentColor">
  <path d="M498.0477 996.0959C770.5077 996.0959 996.0977 770.0159 996.0977 498.0459C996.0977 225.5859 770.0177 -0.0041 497.5577 -0.0041C225.5877 -0.0041 -0.0023 225.5859 -0.0023 498.0459C-0.0023 770.0159 226.0777 996.0959 498.0477 996.0959ZM689.4577 714.3559C669.9177 714.3559 659.1777 699.7059 659.1777 680.1759V621.0959H512.2077C486.8177 621.0959 469.2377 604.9759 469.2377 578.1259C469.2377 564.4559 471.6777 553.2259 479.9777 537.5959C514.1577 476.5659 564.9377 390.6259 606.4477 319.8259C623.0477 291.9959 641.1177 280.7659 670.4077 280.7659C700.1977 280.7659 720.2177 299.8059 720.2177 329.1059V564.4559H747.5577C764.6477 564.4559 776.3677 575.1959 776.3677 593.2659C776.3677 610.8359 765.1377 621.0959 747.5577 621.0959H720.2177V680.1759C720.2177 700.1959 709.9577 714.3559 689.4577 714.3559ZM358.8877 708.9859C340.3277 708.9859 328.1277 696.2859 328.1277 676.7559V364.2559H325.1977L271.4877 403.8059C259.7677 413.0859 254.8877 413.5759 247.0677 413.5759C231.9377 413.5759 217.7777 400.3859 217.7777 383.2959C217.7777 370.1159 224.6077 360.8359 235.3477 353.5159L311.5277 301.2659C329.0977 289.0659 339.3577 284.1759 355.4677 284.1759C376.9577 284.1759 391.5977 299.3159 391.5977 320.3159V676.7559C391.5977 696.2859 378.9077 708.9859 358.8877 708.9859ZM659.1777 564.4559V349.1259H656.7377C616.2077 417.4759 564.9377 505.3759 535.1577 562.4959V564.4559Z"/>
</svg>