<?xml version="1.0" encoding="UTF-8" standalone="no"?>
<svg xmlns="http://www.w3.org/2000/svg"
     width="898.92578125" height="898.92578125"
     viewBox="0 0 898.92578125 898.92578125"
     fill="currentColor">
  <path d="M153.3183 898.9295H745.6083C848.1483 898.9295 898.9283 848.1495 898.9283 747.5595V151.3695C898.9283 50.7795 848.1483 -0.0005 745.6083 -0.0005H153.3183C51.2683 -0.0005 -0.0017 50.2895 -0.0017 151.3695V747.5595C-0.0017 848.6295 51.2683 898.9295 153.3183 898.9295ZM641.1183 665.0395C621.5783 665.0395 610.8383 650.3895 610.8383 630.8595V571.7795H463.8683C438.9683 571.7795 420.8983 555.6595 420.8983 528.8095C420.8983 515.1395 423.8283 503.9095 432.1283 488.2795C465.8183 427.2495 516.5983 341.3095 558.5983 270.5095C574.7083 242.6795 592.7783 231.4495 622.0683 231.4495C651.8583 231.4495 671.8783 250.4895 671.8783 279.7895V515.1395H699.7083C716.7983 515.1395 728.0283 525.8795 728.0283 543.9495C728.0283 561.5195 716.7983 571.7795 699.7083 571.7795H671.8783V630.8595C671.8783 650.8795 661.6183 665.0395 641.1183 665.0395ZM310.5483 659.6695C291.9883 659.6695 279.7883 646.9695 279.7883 627.4395V314.9395H276.8583L223.1483 354.4895C211.4283 363.7695 207.0283 364.2595 198.7283 364.2595C183.5983 364.2595 169.4383 351.0695 169.4383 333.9795C169.4383 320.7995 176.2683 311.5195 187.0083 304.1995L263.1883 251.9495C280.7583 239.7495 291.0183 234.8595 307.6183 234.8595C328.6183 234.8595 343.2583 249.9995 343.2583 270.9995V627.4395C343.2583 646.9695 330.5683 659.6695 310.5483 659.6695ZM610.8383 515.1395V299.8095H608.3983C567.8683 368.1595 516.5983 456.0595 486.8183 513.1795V515.1395Z"/>
</svg>