<?xml version="1.0" encoding="UTF-8" standalone="no"?>
<svg xmlns="http://www.w3.org/2000/svg"
     width="996.09375" height="996.09375"
     viewBox="0 0 996.09375 996.09375"
     fill="currentColor">
  <path d="M498.0477 996.0959C770.5077 996.0959 996.0977 770.0159 996.0977 498.0459C996.0977 225.5859 770.0177 -0.0041 497.5577 -0.0041C225.5877 -0.0041 -0.0023 225.5859 -0.0023 498.0459C-0.0023 770.0159 226.0777 996.0959 498.0477 996.0959ZM361.8177 708.9859C342.7777 708.9859 330.0777 696.2859 330.0777 676.7559V364.2559H327.1477L274.4177 403.8059C262.6977 413.0859 257.3277 413.5759 249.5077 413.5759C234.8677 413.5759 220.7077 400.3859 220.7077 383.2959C220.7077 370.1159 226.5577 360.8359 237.3077 353.5159L313.4777 301.2659C332.0277 289.0659 341.3077 283.6959 357.9077 283.6959C379.3977 283.6959 393.5577 299.3159 393.5577 320.3159V676.7559C393.5577 696.2859 380.8577 708.9859 361.8177 708.9859ZM624.5077 715.3359C561.0377 715.3359 511.7177 682.1259 496.5777 640.1359C493.6477 633.2959 492.1877 625.4859 492.1877 617.1859C492.1877 600.5859 503.4177 587.8859 520.5077 587.8859C532.2277 587.8859 541.9877 595.2159 549.8077 609.8659C564.4577 639.6459 593.2577 657.7159 627.4377 657.7159C676.2677 657.7159 709.4777 626.4659 709.4777 573.7259C709.4777 527.3459 679.1977 492.1859 635.2577 492.1859C613.2777 492.1859 597.1677 499.5159 576.6577 517.5759C560.5477 530.7659 551.2677 534.6659 535.6477 534.6659C512.2077 534.6659 498.0477 517.5759 499.5077 491.2059L512.2077 334.4759C513.6677 307.6159 531.2477 291.5059 558.1077 291.5059H730.9577C745.6077 291.5059 755.8577 303.7059 755.8577 319.8259C755.8577 336.4259 745.1177 348.1459 730.9577 348.1459H564.9377L555.1777 477.0459H557.1277C572.2677 454.5859 608.3977 437.9859 641.5977 437.9859C719.7277 437.9859 771.9777 494.6259 771.9777 572.2659C771.9777 660.6459 713.3777 715.3359 624.5077 715.3359Z"/>
</svg>