<?xml version="1.0" encoding="UTF-8" standalone="no"?>
<svg xmlns="http://www.w3.org/2000/svg"
     width="996.09375" height="996.09375"
     viewBox="0 0 996.09375 996.09375"
     fill="currentColor">
  <path d="M498.0477 996.0959C770.5077 996.0959 996.0977 770.0159 996.0977 498.0459C996.0977 225.5859 770.0177 -0.0041 497.5577 -0.0041C225.5877 -0.0041 -0.0023 225.5859 -0.0023 498.0459C-0.0023 770.0159 226.0777 996.0959 498.0477 996.0959ZM498.0477 913.0859C267.5777 913.0859 83.4977 728.5159 83.4977 498.0459C83.4977 267.5759 267.0877 83.0059 497.5577 83.0059C728.0277 83.0059 913.0877 267.5759 913.0877 498.0459C913.0877 728.5159 728.5177 913.0859 498.0477 913.0859ZM618.6477 708.9859C697.7577 708.9859 754.3977 656.7359 754.3977 567.3859C754.3977 483.3959 697.2677 437.0159 633.2977 437.0159C581.5477 437.0159 548.8277 466.3059 536.6177 498.5359H533.2077V494.1359C533.2077 401.8559 570.3077 343.7459 625.4877 343.7459C653.8077 343.7459 673.3377 357.4259 685.5477 376.4659C693.8477 388.6759 701.6577 394.5359 714.8477 394.5359C728.5177 394.5359 738.7677 383.7859 738.7677 367.6759C738.7677 361.3259 737.7977 355.4659 735.3477 349.1259C722.6577 316.4059 683.5977 287.5959 627.9277 287.5959C533.6877 287.5959 476.0777 360.8359 476.0777 509.2759C476.0777 568.8459 485.3477 612.3059 501.9577 643.0659C526.8577 689.9459 568.8477 708.9859 618.6477 708.9859ZM351.5577 702.6359C370.6077 702.6359 382.8077 690.4259 382.8077 671.3859V325.6859C382.8077 305.1759 368.6477 290.5259 348.1477 290.5259C332.5177 290.5259 322.7577 295.4059 305.6677 307.1259L231.4477 357.9059C221.1877 365.2359 214.8477 374.0259 214.8477 386.7159C214.8477 403.3159 228.5177 416.0159 242.6777 416.0159C250.4877 416.0159 255.3677 415.5259 266.5977 406.7359L318.8477 368.1659H321.7777V671.3859C321.7777 690.4259 333.4977 702.6359 351.5577 702.6359ZM615.7277 655.2759C570.3077 655.2759 538.5777 619.6259 538.5777 569.3359C538.5777 521.4859 570.3077 487.3059 615.7277 487.3059C661.6177 487.3059 692.8677 520.9959 692.8677 569.8259C692.8677 622.0659 663.0877 655.2759 615.7277 655.2759Z"/>
</svg>