<?xml version="1.0" encoding="UTF-8" standalone="no"?>
<svg xmlns="http://www.w3.org/2000/svg"
     width="996.09375" height="996.09375"
     viewBox="0 0 996.09375 996.09375"
     fill="currentColor">
  <path d="M498.0477 996.0959C770.5077 996.0959 996.0977 770.0159 996.0977 498.0459C996.0977 225.5859 770.0177 -0.0041 497.5577 -0.0041C225.5877 -0.0041 -0.0023 225.5859 -0.0023 498.0459C-0.0023 770.0159 226.0777 996.0959 498.0477 996.0959ZM623.0477 715.8159C571.7777 715.8159 528.3177 696.2859 502.4377 647.4559C485.3477 616.2059 475.5877 571.2859 475.5877 509.7659C475.5877 356.4459 535.1577 280.7659 632.3277 280.7659C689.9377 280.7659 729.9777 310.5459 743.1677 344.2359C745.6077 351.0759 746.5777 356.9359 746.5777 363.7659C746.5777 380.3759 736.3277 391.6059 722.1677 391.6059C708.4977 391.6059 700.1977 385.2559 691.4077 372.5559C679.1977 353.0259 659.1777 339.3559 629.8877 339.3559C573.2377 339.3559 535.1577 398.9259 535.1577 493.6559V498.5359H538.5777C551.2677 465.3359 584.4777 435.0559 638.1877 435.0559C704.0977 435.0559 762.6977 482.9059 762.6977 569.3359C762.6977 661.6259 704.5877 715.8159 623.0477 715.8159ZM347.6577 708.9859C328.6177 708.9859 316.4077 696.2859 316.4077 676.7559V364.2559H313.4777L260.2577 403.8059C248.5377 413.0859 243.1677 413.5759 235.3477 413.5759C220.7077 413.5759 206.5477 400.3859 206.5477 383.2959C206.5477 370.1159 212.8877 360.8359 223.6377 353.5159L299.8077 301.2659C317.3877 289.0659 327.6377 284.1759 343.7477 284.1759C365.2377 284.1759 379.8877 299.3159 379.8877 320.3159V676.7559C379.8877 696.2859 367.1877 708.9859 347.6577 708.9859ZM619.6277 660.1559C668.4577 660.1559 699.2177 625.9759 699.2177 572.2659C699.2177 521.9759 666.9877 487.3059 619.6277 487.3059C573.2377 487.3059 540.5277 522.4559 540.5277 571.7759C540.5277 623.5359 573.2377 660.1559 619.6277 660.1559Z"/>
</svg>