<?xml version="1.0" encoding="UTF-8" standalone="no"?>
<svg xmlns="http://www.w3.org/2000/svg"
     width="996.09375" height="996.09375"
     viewBox="0 0 996.09375 996.09375"
     fill="currentColor">
  <path d="M498.0477 996.0959C770.5077 996.0959 996.0977 770.0159 996.0977 498.0459C996.0977 225.5859 770.0177 -0.0041 497.5577 -0.0041C225.5877 -0.0041 -0.0023 225.5859 -0.0023 498.0459C-0.0023 770.0159 226.0777 996.0959 498.0477 996.0959ZM498.0477 913.0859C267.5777 913.0859 83.4977 728.5159 83.4977 498.0459C83.4977 267.5759 267.0877 83.0059 497.5577 83.0059C728.0277 83.0059 913.0877 267.5759 913.0877 498.0459C913.0877 728.5159 728.5177 913.0859 498.0477 913.0859ZM372.5577 702.6359C391.1177 702.6359 403.3177 690.4259 403.3177 671.3859V325.6859C403.3177 305.1759 389.1577 290.5259 369.1377 290.5259C353.0277 290.5259 343.2577 295.4059 326.1677 307.1259L251.9577 357.9059C241.6977 365.2359 235.8377 374.0259 235.8377 386.7159C235.8377 403.3159 249.5077 416.0159 263.6677 416.0159C271.4877 416.0159 275.8777 415.5259 287.1077 406.7359L339.3577 368.1659H342.2877V671.3859C342.2877 690.4259 354.4877 702.6359 372.5577 702.6359ZM560.0577 703.1259C573.2377 703.1259 582.5177 695.7959 591.3077 679.1959L743.6477 374.5159C750.9777 358.8859 752.9277 350.0959 752.9277 339.8459C752.9277 315.9159 735.8377 297.3659 709.4777 297.3659H512.2077C495.6077 297.3659 484.3777 308.5959 484.3777 325.1959C484.3777 341.3059 495.6077 352.0459 512.2077 352.0459H684.0777V355.9559L532.7177 648.9259C528.3177 656.2459 527.3477 662.1059 527.3477 671.3859C527.3477 689.9459 541.5077 703.1259 560.0577 703.1259Z"/>
</svg>