<?xml version="1.0" encoding="UTF-8" standalone="no"?>
<svg xmlns="http://www.w3.org/2000/svg"
     width="898.92578125" height="898.92578125"
     viewBox="0 0 898.92578125 898.92578125"
     fill="currentColor">
  <path d="M153.3183 898.9295H745.6083C848.1483 898.9295 898.9283 848.1495 898.9283 747.5595V151.3695C898.9283 50.7795 848.1483 -0.0005 745.6083 -0.0005H153.3183C51.2683 -0.0005 -0.0017 50.2895 -0.0017 151.3695V747.5595C-0.0017 848.6295 51.2683 898.9295 153.3183 898.9295ZM154.2983 820.3095C105.4683 820.3095 78.6183 794.4295 78.6183 743.6495V155.2695C78.6183 104.4895 105.4683 78.6095 154.2983 78.6095H744.6283C792.9683 78.6095 820.3083 104.4895 820.3083 155.2695V743.6495C820.3083 794.4295 792.9683 820.3095 744.6283 820.3095ZM575.1983 659.1795C660.1583 659.1795 718.2583 610.3495 718.2583 539.5495C718.2583 489.7495 687.4983 449.2195 635.2583 438.4795V435.5495C680.1783 423.3395 703.6183 388.1795 703.6183 345.6995C703.6183 282.2295 650.8783 238.2795 576.1683 238.2795C501.4683 238.2795 448.7283 282.2295 448.7283 345.6995C448.7283 388.1795 471.6783 422.3595 517.0883 435.5495V438.4795C464.3583 449.2195 434.0783 490.2295 434.0783 540.0395C434.0783 611.3295 490.7183 659.1795 575.1983 659.1795ZM310.0583 653.3195C329.0983 653.3195 340.8183 641.1095 340.8183 622.0695V276.3695C340.8183 255.8595 327.1483 241.2095 306.6383 241.2095C290.5283 241.2095 281.2483 246.0895 264.1583 257.8095L189.9383 308.5895C179.1983 315.9195 173.3383 324.7095 173.3383 337.3995C173.3383 353.9995 187.0083 366.6995 201.1683 366.6995C208.9883 366.6995 213.8683 366.2095 225.0983 357.4195L277.3483 318.8495H279.7883V622.0695C279.7883 641.1095 291.9883 653.3195 310.0583 653.3195ZM576.1683 416.0195C538.0883 416.0195 511.2283 388.6695 511.2283 351.5595C511.2283 314.4495 538.0883 289.0595 576.1683 289.0595C614.7483 289.0595 641.5983 314.4495 641.5983 351.5595C641.5983 388.6695 614.2583 416.0195 576.1683 416.0195ZM576.6583 608.3995C530.2783 608.3995 496.5783 578.6095 496.5783 535.6395C496.5783 493.6495 530.2783 462.8895 576.6583 462.8895C624.0283 462.8895 656.7383 493.1595 656.7383 535.6395C656.7383 578.6095 623.0483 608.3995 576.6583 608.3995Z"/>
</svg>