<?xml version="1.0" encoding="UTF-8" standalone="no"?>
<svg xmlns="http://www.w3.org/2000/svg"
     width="898.92578125" height="898.92578125"
     viewBox="0 0 898.92578125 898.92578125"
     fill="currentColor">
  <path d="M153.3183 898.9295H745.6083C848.1483 898.9295 898.9283 848.1495 898.9283 747.5595V151.3695C898.9283 50.7795 848.1483 -0.0005 745.6083 -0.0005H153.3183C51.2683 -0.0005 -0.0017 50.2895 -0.0017 151.3695V747.5595C-0.0017 848.6295 51.2683 898.9295 153.3183 898.9295ZM154.2983 820.3095C105.4683 820.3095 78.6183 794.4295 78.6183 743.6495V155.2695C78.6183 104.4895 105.4683 78.6095 154.2983 78.6095H744.6283C792.9683 78.6095 820.3083 104.4895 820.3083 155.2695V743.6495C820.3083 794.4295 792.9683 820.3095 744.6283 820.3095ZM569.8283 659.1795C666.9883 659.1795 719.7283 582.0295 719.7283 435.0595C719.7283 307.1295 666.9883 238.2795 575.1983 238.2795C493.1683 238.2795 439.4483 293.4595 439.4483 379.3895C439.4483 463.3795 496.5783 510.2495 560.5483 510.2495C613.7683 510.2495 645.9983 481.4495 658.6883 448.2395H661.6183C662.5983 545.4095 625.4883 603.0295 568.8483 603.0295C541.0183 603.0295 518.5583 588.3795 506.8383 566.8895C499.0283 553.2195 489.7483 547.8495 477.0483 547.8495C461.9183 547.8495 451.1683 559.5695 451.1683 576.6595C451.1683 581.5395 452.6383 588.3795 454.5883 594.2395C462.3983 621.0895 502.4383 659.1795 569.8283 659.1795ZM302.2483 653.3195C320.7983 653.3195 333.0083 641.1095 333.0083 622.0695V276.3695C333.0083 255.8595 319.3383 241.2095 298.8283 241.2095C282.7183 241.2095 273.4383 246.0895 255.8583 257.8095L181.6383 308.5895C171.3883 315.9195 165.5283 324.7095 165.5283 337.3995C165.5283 353.9995 179.1983 366.6995 193.3583 366.6995C201.1683 366.6995 206.0583 366.2095 217.2883 357.4195L269.5283 318.8495H271.9683V622.0695C271.9683 641.1095 284.1783 653.3195 302.2483 653.3195ZM578.6183 459.9595C532.7183 459.9595 501.4683 425.2895 501.4683 376.4695C501.4683 325.1995 531.7383 291.4995 579.0983 291.4995C624.0283 291.4995 656.2483 327.1495 656.2483 377.4395C656.2483 425.2895 624.5083 459.9595 578.6183 459.9595Z"/>
</svg>