<?xml version="1.0" encoding="UTF-8" standalone="no"?>
<svg xmlns="http://www.w3.org/2000/svg"
     width="898.92578125" height="898.92578125"
     viewBox="0 0 898.92578125 898.92578125"
     fill="currentColor">
  <path d="M153.3183 898.9295H745.6083C848.1483 898.9295 898.9283 848.1495 898.9283 747.5595V151.3695C898.9283 50.7795 848.1483 -0.0005 745.6083 -0.0005H153.3183C51.2683 -0.0005 -0.0017 50.2895 -0.0017 151.3695V747.5595C-0.0017 848.6295 51.2683 898.9295 153.3183 898.9295ZM335.4483 677.2495C312.4983 677.2495 299.3183 664.5495 299.3183 644.0395C299.3183 633.7895 304.1983 623.5395 312.4983 613.7695L473.6283 441.4095C503.4183 410.1595 534.1783 379.3895 534.1783 342.7695C534.1783 301.2695 502.4383 273.4395 454.5883 273.4395C405.7583 273.4395 379.3983 305.6595 365.7183 335.9395C357.4183 350.0995 348.1483 361.3295 330.0783 361.3295C310.5483 361.3295 297.3683 348.6295 297.3683 329.0995C297.3683 322.2695 297.8483 316.4095 300.2883 308.5895C316.4083 252.4395 379.8783 208.9795 451.1683 208.9795C544.4383 208.9795 605.9583 260.2495 605.9583 336.4295C605.9583 392.5795 574.7083 432.6195 529.7883 479.9795L411.1283 607.4195V610.8395H594.2383C613.7683 610.8395 628.4183 623.0495 628.4183 644.0395C628.4183 664.5495 613.7683 677.2495 594.2383 677.2495Z"/>
</svg>