<?xml version="1.0" encoding="UTF-8" standalone="no"?>
<svg xmlns="http://www.w3.org/2000/svg"
     width="898.92578125" height="898.92578125"
     viewBox="0 0 898.92578125 898.92578125"
     fill="currentColor">
  <path d="M153.3183 898.9295H745.6083C848.1483 898.9295 898.9283 848.1495 898.9283 747.5595V151.3695C898.9283 50.7795 848.1483 -0.0005 745.6083 -0.0005H153.3183C51.2683 -0.0005 -0.0017 50.2895 -0.0017 151.3695V747.5595C-0.0017 848.6295 51.2683 898.9295 153.3183 898.9295ZM154.2983 820.3095C105.4683 820.3095 78.6183 794.4295 78.6183 743.6495V155.2695C78.6183 104.4895 105.4683 78.6095 154.2983 78.6095H744.6283C792.9683 78.6095 820.3083 104.4895 820.3083 155.2695V743.6495C820.3083 794.4295 792.9683 820.3095 744.6283 820.3095ZM338.8683 669.9195H589.8483C608.3983 669.9195 622.5583 657.7195 622.5583 638.1795C622.5583 617.6795 608.3983 605.9595 589.8483 605.9595H411.6183V602.5395L527.3483 478.9995C570.7983 432.6195 601.0783 394.0395 601.0783 339.8395C601.0783 265.6295 541.5083 216.3095 451.1683 216.3095C381.8383 216.3095 320.3083 258.2995 304.6883 312.9895C302.7383 320.3095 302.2483 326.1695 302.2483 332.5195C302.2483 351.5595 314.9383 363.7695 333.4983 363.7695C351.0783 363.7695 359.8683 353.0295 368.1683 339.3595C381.3483 309.5695 406.7383 278.3195 454.5883 278.3195C500.9783 278.3195 531.7383 305.1795 531.7383 345.6995C531.7383 381.3495 501.9483 411.1295 473.1483 441.4095L316.8983 608.8895C308.5983 618.1595 304.1983 627.9295 304.1983 638.1795C304.1983 657.7195 316.8983 669.9195 338.8683 669.9195Z"/>
</svg>