<?xml version="1.0" encoding="UTF-8" standalone="no"?>
<svg xmlns="http://www.w3.org/2000/svg"
     width="996.09375" height="996.09375"
     viewBox="0 0 996.09375 996.09375"
     fill="currentColor">
  <path d="M498.0477 996.0959C770.5077 996.0959 996.0977 770.0159 996.0977 498.0459C996.0977 225.5859 770.0177 -0.0041 497.5577 -0.0041C225.5877 -0.0041 -0.0023 225.5859 -0.0023 498.0459C-0.0023 770.0159 226.0777 996.0959 498.0477 996.0959ZM498.0477 913.0859C267.5777 913.0859 83.4977 728.5159 83.4977 498.0459C83.4977 267.5759 267.0877 83.0059 497.5577 83.0059C728.0277 83.0059 913.0877 267.5759 913.0877 498.0459C913.0877 728.5159 728.5177 913.0859 498.0477 913.0859ZM247.0677 697.2659H448.7277C464.3577 697.2659 476.0777 685.5459 476.0777 667.9659C476.0777 649.9059 464.3577 639.6459 448.7277 639.6459H307.1277V636.2259L402.8277 524.9059C438.9677 482.9059 465.8177 447.7559 465.8177 398.9259C465.8177 331.0559 416.0177 287.5959 339.3577 287.5959C281.2477 287.5959 229.4877 324.7059 216.7977 374.5159C215.8177 380.8559 214.3577 386.2259 214.3577 392.0859C214.3577 409.6659 225.0977 421.3859 241.6977 421.3859C255.8577 421.3859 263.1877 413.0859 269.5277 398.4359C282.2277 361.8159 306.6377 343.7459 341.7977 343.7459C381.3477 343.7459 406.7377 368.1659 406.7377 404.2959C406.7377 436.0359 380.8577 463.3759 357.9077 490.7259L229.0077 642.0859C221.6777 650.3859 218.2577 658.6959 218.2577 668.4559C218.2577 686.0359 229.4877 697.2659 247.0677 697.2659ZM660.1577 708.4959C744.1377 708.4959 799.8077 627.9259 799.8077 498.0459C799.8077 368.1659 744.1377 287.5959 660.1577 287.5959C576.1677 287.5959 520.5077 368.1659 520.5077 498.0459C520.5077 627.9259 576.1677 708.4959 660.1577 708.4959ZM660.1577 649.4159C613.7677 649.4159 584.4777 591.7959 584.4777 498.0459C584.4777 404.2959 613.7677 346.6759 660.1577 346.6759C707.0277 346.6759 735.8377 404.2959 735.8377 498.0459C735.8377 591.7959 707.5177 649.4159 660.1577 649.4159Z"/>
</svg>