<?xml version="1.0" encoding="UTF-8" standalone="no"?>
<svg xmlns="http://www.w3.org/2000/svg"
     width="996.09375" height="996.09375"
     viewBox="0 0 996.09375 996.09375"
     fill="currentColor">
  <path d="M498.0477 996.0959C770.5077 996.0959 996.0977 770.0159 996.0977 498.0459C996.0977 225.5859 770.0177 -0.0041 497.5577 -0.0041C225.5877 -0.0041 -0.0023 225.5859 -0.0023 498.0459C-0.0023 770.0159 226.0777 996.0959 498.0477 996.0959ZM271.4877 703.6159C253.4177 703.6159 241.6977 691.8959 241.6977 673.8259C241.6977 663.5759 245.1177 655.2759 252.9277 646.4859L385.7377 490.7259C409.6677 462.4059 436.0377 434.0859 436.0377 401.3659C436.0377 364.2559 410.1577 339.3559 369.1377 339.3559C333.0077 339.3559 308.1077 357.9059 294.9177 395.5059C288.5777 410.6459 280.7577 418.9459 266.1177 418.9459C249.0277 418.9459 238.2777 407.2259 238.2777 388.6759C238.2777 382.8159 239.2577 376.9559 240.2377 370.6059C253.4177 319.3359 306.6377 281.2459 366.6977 281.2459C445.7977 281.2459 497.0677 325.6859 497.0677 395.9959C497.0677 446.2859 469.7277 482.4259 432.1277 525.8759L333.9877 640.6259V644.0459H479.4877C495.6077 644.0459 507.8077 654.7859 507.8077 673.3359C507.8077 691.4059 495.6077 703.6159 479.4877 703.6159ZM709.9577 708.9859C690.9177 708.9859 678.7077 696.7759 678.7077 676.7559V364.7459H675.7777L622.0677 404.2959C610.8377 413.0859 605.4677 413.5759 597.6577 413.5759C583.0077 413.5759 568.8477 400.3859 568.8477 383.2959C568.8477 370.1159 575.1977 361.3259 585.9377 353.5159L662.1077 301.2659C679.6877 289.0659 689.9377 284.1759 706.0577 284.1759C727.5377 284.1759 742.1877 299.3159 742.1877 320.3159V676.7559C742.1877 696.7759 729.4877 708.9859 709.9577 708.9859Z"/>
</svg>