<?xml version="1.0" encoding="UTF-8" standalone="no"?>
<svg xmlns="http://www.w3.org/2000/svg"
     width="996.09375" height="996.09375"
     viewBox="0 0 996.09375 996.09375"
     fill="currentColor">
  <path d="M498.0477 996.0959C770.5077 996.0959 996.0977 770.0159 996.0977 498.0459C996.0977 225.5859 770.0177 -0.0041 497.5577 -0.0041C225.5877 -0.0041 -0.0023 225.5859 -0.0023 498.0459C-0.0023 770.0159 226.0777 996.0959 498.0477 996.0959ZM498.0477 913.0859C267.5777 913.0859 83.4977 728.5159 83.4977 498.0459C83.4977 267.5759 267.0877 83.0059 497.5577 83.0059C728.0277 83.0059 913.0877 267.5759 913.0877 498.0459C913.0877 728.5159 728.5177 913.0859 498.0477 913.0859ZM277.8277 697.2659H479.4877C495.1177 697.2659 506.8377 685.5459 506.8377 667.9659C506.8377 649.9059 495.1177 639.6459 479.4877 639.6459H337.8877V636.2259L433.5977 524.9059C469.7277 482.9059 496.5777 447.7559 496.5777 398.9259C496.5777 331.0559 446.7777 287.5959 370.1177 287.5959C312.0077 287.5959 260.2577 324.7059 247.5577 374.5159C246.5777 380.8559 245.6077 386.2259 245.6077 392.0859C245.6077 409.6659 255.8577 421.3859 272.4577 421.3859C286.6177 421.3859 293.9477 413.0859 300.2977 398.4359C312.9877 361.8159 337.3977 343.7459 372.5577 343.7459C412.1077 343.7459 437.4977 368.1659 437.4977 404.2959C437.4977 436.0359 412.1077 463.3759 388.6677 490.7259L259.7677 642.0859C252.4377 650.3859 249.0277 658.6959 249.0277 668.4559C249.0277 686.0359 260.2577 697.2659 277.8277 697.2659ZM702.6377 702.6359C721.6777 702.6359 733.8877 690.4259 733.8877 671.3859V325.6859C733.8877 305.1759 719.7277 290.5259 699.2177 290.5259C683.5977 290.5259 673.8277 295.4059 656.7377 307.1259L582.5177 357.9059C572.2677 365.2359 565.9177 374.0259 565.9177 386.7159C565.9177 403.3159 579.5877 416.0159 593.7477 416.0159C601.5577 416.0159 606.4477 415.5259 617.6777 406.7359L669.9177 368.1659H672.8477V671.3859C672.8477 690.4259 684.5677 702.6359 702.6377 702.6359Z"/>
</svg>