<?xml version="1.0" encoding="UTF-8" standalone="no"?>
<svg xmlns="http://www.w3.org/2000/svg"
     width="996.09375" height="996.09375"
     viewBox="0 0 996.09375 996.09375"
     fill="currentColor">
  <path d="M498.0477 996.0959C770.5077 996.0959 996.0977 770.0159 996.0977 498.0459C996.0977 225.5859 770.0177 -0.0041 497.5577 -0.0041C225.5877 -0.0041 -0.0023 225.5859 -0.0023 498.0459C-0.0023 770.0159 226.0777 996.0959 498.0477 996.0959ZM239.7477 703.6159C221.6777 703.6159 209.9577 691.8959 209.9577 673.8259C209.9577 663.5759 213.3777 655.2759 221.1877 646.4859L354.0077 490.7259C377.9277 462.4059 404.2977 434.5659 404.2977 401.3659C404.2977 364.2559 378.4177 339.3559 337.3977 339.3559C301.7577 339.3559 276.3677 357.9059 263.6677 395.5059C256.8377 410.6459 249.5077 419.4359 234.8677 419.4359C217.2877 419.4359 206.5477 407.2259 206.5477 388.6759C206.5477 382.8159 207.5177 377.4459 208.4977 370.6059C221.6777 319.3359 274.8977 281.2459 334.9577 281.2459C414.0577 281.2459 465.3277 326.1759 465.3277 395.9959C465.3277 446.2859 437.9877 482.9059 400.3877 525.8759L302.2477 640.6259V644.0459H448.2377C463.8677 644.0459 476.0777 654.7859 476.0777 673.3359C476.0777 691.4059 463.8677 703.6159 448.2377 703.6159ZM574.2177 703.6159C556.1477 703.6159 544.4377 691.8959 544.4377 673.8259C544.4377 663.5759 547.8477 655.2759 555.6677 646.4859L688.4777 490.7259C712.3977 462.4059 738.7677 434.5659 738.7677 401.3659C738.7677 364.2559 712.3977 339.3559 671.8777 339.3559C635.7377 339.3559 610.8377 357.9059 597.6577 395.5059C590.8177 410.6459 583.4977 419.4359 568.8477 419.4359C551.7577 419.4359 541.0177 407.2259 541.0177 388.6759C541.0177 382.8159 541.9877 377.4459 542.9677 370.6059C556.1477 319.3359 609.3777 281.2459 669.4377 281.2459C748.5377 281.2459 799.8077 326.1759 799.8077 395.9959C799.8077 446.2859 771.9777 482.9059 734.8677 525.8759L636.7177 640.6259V644.0459H782.2277C798.3377 644.0459 810.5477 654.7859 810.5477 673.3359C810.5477 691.4059 798.3377 703.6159 782.2277 703.6159Z"/>
</svg>