<?xml version="1.0" encoding="UTF-8" standalone="no"?>
<svg xmlns="http://www.w3.org/2000/svg"
     width="898.92578125" height="898.92578125"
     viewBox="0 0 898.92578125 898.92578125"
     fill="currentColor">
  <path d="M153.3183 898.9295H745.6083C848.1483 898.9295 898.9283 848.1495 898.9283 747.5595V151.3695C898.9283 50.7795 848.1483 -0.0005 745.6083 -0.0005H153.3183C51.2683 -0.0005 -0.0017 50.2895 -0.0017 151.3695V747.5595C-0.0017 848.6295 51.2683 898.9295 153.3183 898.9295ZM154.2983 820.3095C105.4683 820.3095 78.6183 794.4295 78.6183 743.6495V155.2695C78.6183 104.4895 105.4683 78.6095 154.2983 78.6095H744.6283C792.9683 78.6095 820.3083 104.4895 820.3083 155.2695V743.6495C820.3083 794.4295 792.9683 820.3095 744.6283 820.3095ZM199.2183 647.9495H401.3683C416.5083 647.9495 428.2183 636.2295 428.2183 618.6495C428.2183 600.5895 416.5083 590.3295 401.3683 590.3295H259.2783V586.9095L354.9783 475.5895C391.1183 433.5895 417.9683 398.4395 417.9683 349.6095C417.9683 281.7395 368.1683 238.2795 291.5083 238.2795C233.3983 238.2795 181.6383 275.3895 169.4383 325.1995C167.9683 331.5395 166.9883 336.9095 166.9883 342.7695C166.9883 360.3495 177.2483 372.0695 194.3383 372.0695C208.4983 372.0695 215.8183 363.7695 222.1683 349.1195C234.3783 312.4995 259.2783 294.4295 293.9483 294.4295C333.4983 294.4295 358.8883 318.8495 358.8883 354.9795C358.8883 386.7195 333.4983 414.0595 310.0583 441.4095L181.1483 592.7695C173.8283 601.0695 170.8983 609.3795 170.8983 619.1395C170.8983 636.7195 181.6383 647.9495 199.2183 647.9495ZM523.4383 647.9495H725.5883C740.7183 647.9495 752.4383 636.2295 752.4383 618.6495C752.4383 600.5895 740.7183 590.3295 725.5883 590.3295H583.4983V586.9095L679.1983 475.5895C715.3283 433.5895 742.1883 398.4395 742.1883 349.6095C742.1883 281.7395 692.3783 238.2795 615.7183 238.2795C557.6183 238.2795 505.8583 275.3895 493.1683 325.1995C492.1883 331.5395 491.2083 336.9095 491.2083 342.7695C491.2083 360.3495 501.4683 372.0695 518.0683 372.0695C532.2283 372.0695 539.5483 363.7695 546.3883 349.1195C558.5983 312.4995 583.0083 294.4295 618.1683 294.4295C657.7183 294.4295 683.1083 318.8495 683.1083 354.9795C683.1083 386.7195 657.7183 414.0595 634.2783 441.4095L505.3683 592.7695C498.0483 601.0695 494.6283 609.3795 494.6283 619.1395C494.6283 636.7195 505.8583 647.9495 523.4383 647.9495Z"/>
</svg>