<?xml version="1.0" encoding="UTF-8" standalone="no"?>
<svg xmlns="http://www.w3.org/2000/svg"
     width="996.09375" height="996.09375"
     viewBox="0 0 996.09375 996.09375"
     fill="currentColor">
  <path d="M498.0477 996.0959C770.5077 996.0959 996.0977 770.0159 996.0977 498.0459C996.0977 225.5859 770.0177 -0.0041 497.5577 -0.0041C225.5877 -0.0041 -0.0023 225.5859 -0.0023 498.0459C-0.0023 770.0159 226.0777 996.0959 498.0477 996.0959ZM498.0477 913.0859C267.5777 913.0859 83.4977 728.5159 83.4977 498.0459C83.4977 267.5759 267.0877 83.0059 497.5577 83.0059C728.0277 83.0059 913.0877 267.5759 913.0877 498.0459C913.0877 728.5159 728.5177 913.0859 498.0477 913.0859ZM246.0977 697.2659H448.2377C463.3777 697.2659 475.0977 685.5459 475.0977 667.9659C475.0977 649.9059 463.3777 639.6459 448.2377 639.6459H306.1477V636.2259L401.8577 524.9059C437.9877 482.9059 464.8477 447.7559 464.8477 398.9259C464.8477 331.0559 415.0377 287.5959 338.3777 287.5959C280.2777 287.5959 228.5177 324.7059 215.8177 374.5159C214.8477 380.8559 213.8677 386.2259 213.8677 392.0859C213.8677 409.6659 224.1177 421.3859 241.2077 421.3859C254.8877 421.3859 262.2077 413.0859 269.0477 398.4359C281.2477 361.8159 306.1477 343.7459 340.8177 343.7459C380.3677 343.7459 405.7577 368.1659 405.7577 404.2959C405.7577 436.0359 380.3677 463.3759 356.9377 490.7259L228.0277 642.0859C220.7077 650.3859 217.2877 658.6959 217.2877 668.4559C217.2877 686.0359 228.5177 697.2659 246.0977 697.2659ZM667.4777 708.4959C750.4877 708.4959 808.1077 658.6959 808.1077 588.3759C808.1077 536.6259 772.4577 494.6259 723.1477 489.7459V486.8159C763.1877 479.9759 794.9177 439.4559 794.9177 393.5559C794.9177 331.0559 743.6477 287.5959 670.8977 287.5959C604.4877 287.5959 555.6677 325.1959 542.9677 373.0459C541.9877 379.3959 541.5077 384.2759 541.5077 390.6259C541.5077 408.2059 552.7377 420.4059 569.8277 420.4059C584.4777 420.4059 591.7977 412.5959 596.6777 396.9759C607.4177 362.7959 631.3477 343.7459 669.4377 343.7459C708.0077 343.7459 734.8677 367.1859 734.8677 401.3659C734.8677 437.0159 707.5177 462.8859 668.9477 462.8859H642.5777C626.4677 462.8859 615.7277 474.1259 615.7277 491.6959C615.7277 507.3259 626.4677 519.5359 642.5777 519.5359H670.8977C717.7777 519.5359 747.0677 545.8959 747.0677 585.4459C747.0677 623.5359 714.8477 652.3459 667.9677 652.3459C629.3977 652.3459 603.0277 633.2959 589.8477 599.1259C583.9877 583.4959 575.6877 575.6859 562.0077 575.6859C545.4077 575.6859 533.6877 587.8859 533.6877 604.9759C533.6877 611.8159 534.1777 616.6959 536.1377 623.0459C548.8277 667.9659 601.0777 708.4959 667.4777 708.4959Z"/>
</svg>