<?xml version="1.0" encoding="UTF-8" standalone="no"?>
<svg xmlns="http://www.w3.org/2000/svg"
     width="996.09375" height="996.09375"
     viewBox="0 0 996.09375 996.09375"
     fill="currentColor">
  <path d="M498.0477 996.0959C770.5077 996.0959 996.0977 770.0159 996.0977 498.0459C996.0977 225.5859 770.0177 -0.0041 497.5577 -0.0041C225.5877 -0.0041 -0.0023 225.5859 -0.0023 498.0459C-0.0023 770.0159 226.0777 996.0959 498.0477 996.0959ZM238.7677 703.6159C220.7077 703.6159 208.9877 691.8959 208.9877 673.8259C208.9877 663.5759 212.3977 654.7859 220.2177 646.4859L353.0277 490.2359C376.9577 462.4059 403.3177 434.0859 403.3177 401.3659C403.3177 364.2559 376.9577 339.3559 336.4277 339.3559C300.7777 339.3559 275.3877 357.4259 262.6977 395.5059C255.3677 410.6459 248.5377 418.9459 233.8877 418.9459C216.3077 418.9459 205.5677 406.7359 205.5677 388.6759C205.5677 382.8159 206.5477 376.9559 207.5177 370.6059C220.7077 319.3359 273.9277 280.7659 333.9877 280.7659C413.0877 280.7659 464.3577 325.6859 464.3577 395.9959C464.3577 446.2859 436.5277 482.4259 399.4177 525.8759L301.2677 640.1359V644.0459H447.2677C462.8877 644.0459 475.0977 654.2959 475.0977 673.3359C475.0977 691.4059 462.8877 703.6159 447.2677 703.6159ZM673.3377 715.3359C604.9777 715.3359 550.7777 673.3359 537.5977 626.9559C535.6477 620.6059 535.1577 615.2359 535.1577 608.3959C535.1577 590.8159 547.3677 578.1259 564.4577 578.1259C578.6177 578.1259 587.3977 585.9359 593.2577 602.0459C606.9377 637.2059 634.2777 656.7359 673.8277 656.7359C722.1677 656.7359 755.3677 627.4459 755.3677 588.3759C755.3677 547.3659 725.0977 520.5059 676.7577 520.5059H647.9477C630.8577 520.5059 620.1177 507.8159 620.1177 491.6959C620.1177 473.1459 630.8577 461.4259 647.9477 461.4259H674.8077C714.3577 461.4259 742.6777 435.0559 742.6777 398.4359C742.6777 363.2859 714.8477 339.3559 675.2977 339.3559C636.2277 339.3559 611.8177 358.8859 600.5877 394.0459C595.2177 410.1559 587.8877 417.9659 572.7577 417.9659C555.1777 417.9659 543.4577 405.2759 543.4577 387.2059C543.4577 380.8559 543.9477 375.4859 544.9177 369.1359C558.1077 319.8259 608.3977 280.7659 676.7577 280.7659C751.9577 280.7659 804.6877 325.6859 804.6877 390.1359C804.6877 437.4959 771.9777 479.4959 730.9577 486.3259V489.2559C781.7377 494.6259 818.3577 537.5959 818.3577 591.3059C818.3577 663.5759 758.7877 715.3359 673.3377 715.3359Z"/>
</svg>