<?xml version="1.0" encoding="UTF-8" standalone="no"?>
<svg xmlns="http://www.w3.org/2000/svg"
     width="898.92578125" height="898.92578125"
     viewBox="0 0 898.92578125 898.92578125"
     fill="currentColor">
  <path d="M153.3183 898.9295H745.6083C848.1483 898.9295 898.9283 848.1495 898.9283 747.5595V151.3695C898.9283 50.7795 848.1483 -0.0005 745.6083 -0.0005H153.3183C51.2683 -0.0005 -0.0017 50.2895 -0.0017 151.3695V747.5595C-0.0017 848.6295 51.2683 898.9295 153.3183 898.9295ZM154.2983 820.3095C105.4683 820.3095 78.6183 794.4295 78.6183 743.6495V155.2695C78.6183 104.4895 105.4683 78.6095 154.2983 78.6095H744.6283C792.9683 78.6095 820.3083 104.4895 820.3083 155.2695V743.6495C820.3083 794.4295 792.9683 820.3095 744.6283 820.3095ZM198.2383 647.9495H400.3883C415.5283 647.9495 427.2483 636.2295 427.2483 618.6495C427.2483 600.5895 415.5283 590.3295 400.3883 590.3295H258.2983V586.9095L354.0083 475.5895C390.1383 433.5895 416.9883 398.4395 416.9883 349.6095C416.9883 281.7395 367.1883 238.2795 290.5283 238.2795C232.4183 238.2795 180.6683 275.3895 168.4583 325.1995C166.9883 331.5395 166.0183 336.9095 166.0183 342.7695C166.0183 360.3495 176.2683 372.0695 193.3583 372.0695C207.5183 372.0695 214.8483 363.7695 221.1883 349.1195C233.3983 312.4995 258.2983 294.4295 292.9683 294.4295C332.5183 294.4295 357.9083 318.8495 357.9083 354.9795C357.9083 386.7195 332.5183 414.0595 309.0783 441.4095L180.1783 592.7695C172.8483 601.0695 169.9183 609.3795 169.9183 619.1395C169.9183 636.7195 180.6683 647.9495 198.2383 647.9495ZM619.6283 659.1795C702.6383 659.1795 760.2583 609.3795 760.2583 539.0595C760.2583 487.3095 724.6083 445.3095 675.2883 440.4295V437.4995C715.3283 430.6595 747.0683 390.1395 747.0683 344.2395C747.0683 281.7395 695.7983 238.2795 623.0483 238.2795C557.1283 238.2795 507.8083 275.8795 495.1183 323.7295C494.1383 330.0795 494.1383 334.9595 494.1383 341.3095C494.1383 358.8895 504.8783 371.0895 521.9683 371.0895C536.6183 371.0895 544.4383 363.2795 548.8283 347.6595C559.5683 313.4795 583.4983 294.4295 621.5783 294.4295C660.1583 294.4295 687.0083 317.8695 687.0083 352.0495C687.0083 387.6995 660.1583 413.5695 621.0983 413.5695H594.7283C578.6183 413.5695 567.8683 424.8095 567.8683 442.3795C567.8683 458.0095 578.6183 470.2195 594.7283 470.2195H623.5383C669.9183 470.2195 699.7083 496.5795 699.7083 536.1295C699.7083 574.2195 666.9883 603.0295 620.1183 603.0295C581.5383 603.0295 555.1783 583.9795 541.9883 549.8095C536.1283 534.1795 527.8283 526.3695 514.1583 526.3695C497.5583 526.3695 485.8383 538.5695 485.8383 555.6595C485.8383 562.4995 486.8183 567.3795 488.2783 573.7295C500.9783 618.6495 553.2183 659.1795 619.6283 659.1795Z"/>
</svg>