<?xml version="1.0" encoding="UTF-8" standalone="no"?>
<svg xmlns="http://www.w3.org/2000/svg"
     width="996.09375" height="996.09375"
     viewBox="0 0 996.09375 996.09375"
     fill="currentColor">
  <path d="M498.0477 996.0959C770.5077 996.0959 996.0977 770.0159 996.0977 498.0459C996.0977 225.5859 770.0177 -0.0041 497.5577 -0.0041C225.5877 -0.0041 -0.0023 225.5859 -0.0023 498.0459C-0.0023 770.0159 226.0777 996.0959 498.0477 996.0959ZM239.2577 703.6159C221.6777 703.6159 209.9577 691.8959 209.9577 673.8259C209.9577 663.5759 212.8877 654.7859 221.1877 646.4859L354.0077 490.2359C377.4377 462.4059 404.2977 434.0859 404.2977 401.3659C404.2977 364.2559 377.4377 339.3559 337.3977 339.3559C301.2677 339.3559 276.3677 357.4259 263.1877 395.5059C256.3477 410.6459 249.0277 418.9459 234.3777 418.9459C217.2877 418.9459 206.0577 406.7359 206.0577 388.6759C206.0577 382.8159 207.5177 376.9559 208.4977 370.6059C221.6777 319.3359 274.8977 280.7659 334.9577 280.7659C414.0577 280.7659 464.8477 325.6859 464.8477 395.9959C464.8477 446.2859 437.0077 482.4259 400.3877 525.8759L301.2677 640.1359V644.0459H447.7577C463.8677 644.0459 476.0777 654.2959 476.0777 673.3359C476.0777 691.4059 463.8677 703.6159 447.7577 703.6159ZM734.8677 714.3559C714.8477 714.3559 704.5877 699.7059 704.5877 680.1759V621.0959H558.1077C532.2277 621.0959 514.6477 604.9759 514.6477 578.1259C514.6477 564.4559 517.5777 553.2259 525.8777 537.5959C559.5677 476.5659 609.8677 390.6259 652.3477 319.8259C668.4577 291.9959 686.5277 280.7659 715.8177 280.7659C745.6077 280.7659 765.6277 299.8059 765.6277 329.1059V564.4559H792.9677C810.0577 564.4559 821.2877 575.1959 821.2877 593.2659C821.2877 610.8359 810.0577 621.0959 792.9677 621.0959H765.6277V680.1759C765.6277 700.1959 755.3677 714.3559 734.8677 714.3559ZM704.5877 564.4559V349.1259H701.6577C661.6177 417.4759 610.8377 505.3759 581.0577 562.4959V564.4559Z"/>
</svg>