<?xml version="1.0" encoding="UTF-8" standalone="no"?>
<svg xmlns="http://www.w3.org/2000/svg"
     width="996.09375" height="996.09375"
     viewBox="0 0 996.09375 996.09375"
     fill="currentColor">
  <path d="M498.0477 996.0959C770.5077 996.0959 996.0977 770.0159 996.0977 498.0459C996.0977 225.5859 770.0177 -0.0041 497.5577 -0.0041C225.5877 -0.0041 -0.0023 225.5859 -0.0023 498.0459C-0.0023 770.0159 226.0777 996.0959 498.0477 996.0959ZM498.0477 913.0859C267.5777 913.0859 83.4977 728.5159 83.4977 498.0459C83.4977 267.5759 267.0877 83.0059 497.5577 83.0059C728.0277 83.0059 913.0877 267.5759 913.0877 498.0459C913.0877 728.5159 728.5177 913.0859 498.0477 913.0859ZM246.5777 697.2659H448.7277C464.3577 697.2659 476.0777 685.5459 476.0777 667.9659C476.0777 649.9059 464.3577 639.6459 448.7277 639.6459H306.6377V636.2259L402.8277 524.9059C438.4777 482.9059 465.3277 447.7559 465.3277 398.9259C465.3277 331.0559 416.0177 287.5959 339.3577 287.5959C281.2477 287.5959 229.4877 324.7059 216.7977 374.5159C215.8177 380.8559 214.3577 386.2259 214.3577 392.0859C214.3577 409.6659 224.6077 421.3859 241.6977 421.3859C255.8577 421.3859 263.1877 413.0859 269.5277 398.4359C282.2277 361.8159 306.6377 343.7459 341.7977 343.7459C380.8577 343.7459 406.7377 368.1659 406.7377 404.2959C406.7377 436.0359 380.8577 463.3759 357.9077 490.7259L229.0077 642.0859C221.1877 650.3859 218.2577 658.6959 218.2577 668.4559C218.2577 686.0359 229.4877 697.2659 246.5777 697.2659ZM727.0477 707.5159C747.0677 707.5159 757.3277 693.8459 757.3277 674.8059V617.1859H783.6877C800.2977 617.1859 811.0377 607.4259 811.0377 590.3359C811.0377 572.7559 800.2977 562.4959 783.6877 562.4959H757.3277V333.9859C757.3277 305.6659 737.3077 287.5959 708.9877 287.5959C680.6677 287.5959 663.0877 298.3359 647.4577 325.1959C606.4477 393.5559 557.1277 477.5359 524.4177 536.6259C516.5977 551.7559 513.6677 562.4959 513.6677 575.6859C513.6677 601.5659 530.7577 617.1859 555.6677 617.1859H697.7577V674.8059C697.7577 693.3559 708.0077 707.5159 727.0477 707.5159ZM697.7577 562.4959H577.6377V560.5459C606.4477 505.3759 656.2477 419.4359 695.3077 353.5159H697.7577Z"/>
</svg>