<?xml version="1.0" encoding="UTF-8" standalone="no"?>
<svg xmlns="http://www.w3.org/2000/svg"
     width="996.09375" height="996.09375"
     viewBox="0 0 996.09375 996.09375"
     fill="currentColor">
  <path d="M498.0477 996.0959C770.5077 996.0959 996.0977 770.0159 996.0977 498.0459C996.0977 225.5859 770.0177 -0.0041 497.5577 -0.0041C225.5877 -0.0041 -0.0023 225.5859 -0.0023 498.0459C-0.0023 770.0159 226.0777 996.0959 498.0477 996.0959ZM234.8677 703.6159C216.7977 703.6159 205.0777 691.8959 205.0777 673.8259C205.0777 663.5759 208.4977 654.7859 216.3077 646.4859L349.1177 490.2359C373.0477 462.4059 399.4177 434.0859 399.4177 401.3659C399.4177 364.2559 373.0477 339.3559 332.5177 339.3559C296.3877 339.3559 271.4877 357.4259 258.7877 395.5059C251.9577 410.6459 244.1377 418.9459 229.9777 418.9459C212.3977 418.9459 201.6577 406.7359 201.6577 388.6759C201.6577 382.8159 202.6377 376.9559 203.6177 370.6059C216.7977 319.3359 270.0177 280.7659 330.0777 280.7659C409.1777 280.7659 460.4477 325.6859 460.4477 395.9959C460.4477 446.2859 432.6177 482.4259 395.5077 525.8759L297.3677 640.1359V644.0459H443.3577C458.9877 644.0459 471.1877 654.2959 471.1877 673.3359C471.1877 691.4059 458.9877 703.6159 443.3577 703.6159ZM664.5477 715.3359C601.5577 715.3359 551.7577 682.1259 536.6177 640.1359C533.6877 633.2959 531.7377 625.4859 531.7377 617.1859C531.7377 600.5859 543.4577 587.8859 560.5477 587.8859C572.2677 587.8859 582.0277 595.2159 589.3577 609.8659C604.0077 640.1359 633.2977 658.2059 667.4777 658.2059C716.3077 658.2059 749.0277 626.4659 749.0277 573.7259C749.0277 527.3459 719.2377 492.1859 675.2977 492.1859C652.8277 492.1859 637.2077 499.5159 616.2077 517.5759C600.0977 530.7659 590.8177 535.1559 575.1977 535.1559C552.2477 535.1559 538.0877 517.5759 540.0377 491.2059L552.2477 334.4759C554.1977 307.6159 571.2877 291.5059 598.1477 291.5059H770.9977C785.6477 291.5059 795.8977 303.7059 795.8977 319.8259C795.8977 336.4259 785.1577 348.1459 770.9977 348.1459H604.4877L595.2177 477.5359H597.1677C612.3077 454.5859 648.4377 437.9859 682.1277 437.9859C759.7677 437.9859 812.0077 494.6259 812.0077 572.2659C812.0077 660.6459 752.9277 715.3359 664.5477 715.3359Z"/>
</svg>