<?xml version="1.0" encoding="UTF-8" standalone="no"?>
<svg xmlns="http://www.w3.org/2000/svg"
     width="996.09375" height="996.09375"
     viewBox="0 0 996.09375 996.09375"
     fill="currentColor">
  <path d="M498.0477 996.0959C770.5077 996.0959 996.0977 770.0159 996.0977 498.0459C996.0977 225.5859 770.0177 -0.0041 497.5577 -0.0041C225.5877 -0.0041 -0.0023 225.5859 -0.0023 498.0459C-0.0023 770.0159 226.0777 996.0959 498.0477 996.0959ZM230.4677 703.6159C212.3977 703.6159 200.6877 691.8959 200.6877 673.8259C200.6877 663.5759 204.0977 654.7859 211.9177 646.4859L344.7277 490.2359C368.6477 462.4059 395.0177 434.0859 395.0177 401.3659C395.0177 364.2559 368.6477 339.3559 328.1277 339.3559C291.9877 339.3559 267.0877 357.4259 254.3977 395.5059C247.0677 410.6459 239.7477 418.9459 225.5877 418.9459C208.0077 418.9459 197.2677 406.7359 197.2677 388.6759C197.2677 382.8159 198.2377 376.9559 199.2177 370.6059C212.3977 319.3359 265.6277 280.7659 325.6877 280.7659C404.7877 280.7659 456.0577 325.6859 456.0577 395.9959C456.0577 446.2859 428.2277 482.4259 391.1177 525.8759L292.9677 640.1359V644.0459H438.9677C454.5877 644.0459 466.7977 654.2959 466.7977 673.3359C466.7977 691.4059 454.5877 703.6159 438.9677 703.6159ZM669.9177 715.8159C619.1377 715.8159 576.1677 696.2859 550.2977 647.4559C533.2077 616.2059 522.9477 571.2859 522.9477 509.7659C522.9477 356.4459 583.0077 280.7659 679.6877 280.7659C736.8177 280.7659 777.3477 310.5459 790.5277 344.2359C793.4577 351.0759 794.4377 356.9359 794.4377 363.7659C794.4377 380.3759 783.2077 391.6059 769.5277 391.6059C755.3677 391.6059 748.0477 385.2559 739.2577 372.5559C726.0777 353.0259 706.0577 339.3559 677.7377 339.3559C621.0977 339.3559 582.5177 398.9259 582.5177 493.6559V498.5359H586.4277C598.1477 465.3359 632.3277 435.0559 686.0377 435.0559C750.9777 435.0559 810.5477 482.9059 810.5477 569.3359C810.5477 661.6259 751.9577 715.8159 669.9177 715.8159ZM667.4777 660.1559C715.8177 660.1559 747.0677 625.9759 747.0677 572.2659C747.0677 521.9759 714.8477 487.3059 667.4777 487.3059C620.6077 487.3059 588.3777 522.4559 588.3777 571.7759C588.3777 623.5359 621.0977 660.1559 667.4777 660.1559Z"/>
</svg>