<?xml version="1.0" encoding="UTF-8" standalone="no"?>
<svg xmlns="http://www.w3.org/2000/svg"
     width="996.09375" height="996.09375"
     viewBox="0 0 996.09375 996.09375"
     fill="currentColor">
  <path d="M498.0477 996.0959C770.5077 996.0959 996.0977 770.0159 996.0977 498.0459C996.0977 225.5859 770.0177 -0.0041 497.5577 -0.0041C225.5877 -0.0041 -0.0023 225.5859 -0.0023 498.0459C-0.0023 770.0159 226.0777 996.0959 498.0477 996.0959ZM498.0477 913.0859C267.5777 913.0859 83.4977 728.5159 83.4977 498.0459C83.4977 267.5759 267.0877 83.0059 497.5577 83.0059C728.0277 83.0059 913.0877 267.5759 913.0877 498.0459C913.0877 728.5159 728.5177 913.0859 498.0477 913.0859ZM238.2777 697.2659H440.4277C455.5677 697.2659 467.2877 685.5459 467.2877 667.9659C467.2877 649.9059 455.5677 639.6459 440.4277 639.6459H298.3377V636.2259L394.0477 524.9059C430.1777 482.9059 457.0277 447.7559 457.0277 398.9259C457.0277 331.0559 407.2277 287.5959 330.5677 287.5959C272.4577 287.5959 220.7077 324.7059 208.0077 374.5159C207.0277 380.8559 206.0577 386.2259 206.0577 392.0859C206.0577 409.6659 216.3077 421.3859 233.3977 421.3859C247.0677 421.3859 254.3977 413.0859 261.2277 398.4359C273.4377 361.8159 297.8477 343.7459 333.0077 343.7459C372.5577 343.7459 397.9477 368.1659 397.9477 404.2959C397.9477 436.0359 372.5577 463.3759 349.1177 490.7259L220.2177 642.0859C212.8877 650.3859 209.4777 658.6959 209.4777 668.4559C209.4777 686.0359 220.7077 697.2659 238.2777 697.2659ZM664.5477 708.9859C744.1377 708.9859 800.7777 656.7359 800.7777 567.3859C800.7777 483.3959 743.1677 437.0159 679.6877 437.0159C627.9277 437.0159 594.7277 466.3059 583.0077 498.5359H579.5877V494.1359C579.5877 401.8559 616.6977 343.7459 671.8777 343.7459C699.7077 343.7459 719.2377 357.4259 731.9377 376.4659C740.2377 388.6759 747.5577 394.5359 761.2277 394.5359C774.4177 394.5359 785.1577 383.7859 785.1577 367.6759C785.1577 361.3259 784.1777 355.4659 781.2477 349.1259C768.5577 316.4059 729.4877 287.5959 674.3177 287.5959C580.0777 287.5959 521.9777 360.8359 521.9777 509.2759C521.9777 568.8459 531.7377 612.3059 548.3377 643.0659C573.2377 689.9459 615.2377 708.9859 664.5477 708.9859ZM662.1077 655.2759C616.6977 655.2759 584.9577 619.6259 584.9577 569.3359C584.9577 521.4859 616.2077 487.3059 662.1077 487.3059C708.0077 487.3059 739.2577 520.9959 739.2577 569.8259C739.2577 622.0659 708.9877 655.2759 662.1077 655.2759Z"/>
</svg>