<?xml version="1.0" encoding="UTF-8" standalone="no"?>
<svg xmlns="http://www.w3.org/2000/svg"
     width="898.92578125" height="898.92578125"
     viewBox="0 0 898.92578125 898.92578125"
     fill="currentColor">
  <path d="M153.3183 898.9295H745.6083C848.1483 898.9295 898.9283 848.1495 898.9283 747.5595V151.3695C898.9283 50.7795 848.1483 -0.0005 745.6083 -0.0005H153.3183C51.2683 -0.0005 -0.0017 50.2895 -0.0017 151.3695V747.5595C-0.0017 848.6295 51.2683 898.9295 153.3183 898.9295ZM154.2983 820.3095C105.4683 820.3095 78.6183 794.4295 78.6183 743.6495V155.2695C78.6183 104.4895 105.4683 78.6095 154.2983 78.6095H744.6283C792.9683 78.6095 820.3083 104.4895 820.3083 155.2695V743.6495C820.3083 794.4295 792.9683 820.3095 744.6283 820.3095ZM190.4283 647.9495H392.5783C407.7183 647.9495 419.4383 636.2295 419.4383 618.6495C419.4383 600.5895 407.7183 590.3295 392.5783 590.3295H250.4883V586.9095L346.1883 475.5895C382.3283 433.5895 409.1783 398.4395 409.1783 349.6095C409.1783 281.7395 359.3783 238.2795 282.7183 238.2795C224.6083 238.2795 172.8483 275.3895 160.1583 325.1995C159.1783 331.5395 158.1983 336.9095 158.1983 342.7695C158.1983 360.3495 168.4583 372.0695 185.5483 372.0695C199.7083 372.0695 207.0283 363.7695 213.3783 349.1195C225.5883 312.4995 250.4883 294.4295 285.1583 294.4295C324.7083 294.4295 350.0983 318.8495 350.0983 354.9795C350.0983 386.7195 324.7083 414.0595 301.2683 441.4095L172.3683 592.7695C165.0383 601.0695 161.6183 609.3795 161.6183 619.1395C161.6183 636.7195 172.8483 647.9495 190.4283 647.9495ZM617.1883 659.6695C696.2883 659.6695 752.9283 607.4195 752.9283 518.0695C752.9283 434.0795 695.3083 387.6995 631.8383 387.6995C580.0783 387.6995 546.8783 416.9895 535.1583 449.2195H531.7383V444.8195C531.7383 352.5395 568.8483 294.4295 624.0283 294.4295C651.8583 294.4295 671.8783 308.1095 684.0783 327.1495C692.3783 339.3595 699.7083 345.2195 713.3783 345.2195C726.5583 345.2195 737.3083 334.4695 737.3083 318.3595C737.3083 312.0095 736.3283 306.1495 733.3983 299.8095C721.1883 267.0895 682.1283 238.2795 626.4683 238.2795C532.2283 238.2795 474.1183 311.5195 474.1183 459.9595C474.1183 519.5295 483.8883 562.9895 500.4883 593.7495C525.3883 640.6295 567.3783 659.6695 617.1883 659.6695ZM614.2583 605.9595C568.8483 605.9595 537.1083 570.3095 537.1083 520.0195C537.1083 472.1695 568.3583 437.9895 614.2583 437.9895C660.1583 437.9895 691.4083 471.6795 691.4083 520.5095C691.4083 572.7495 661.1283 605.9595 614.2583 605.9595Z"/>
</svg>