<?xml version="1.0" encoding="UTF-8" standalone="no"?>
<svg xmlns="http://www.w3.org/2000/svg"
     width="996.09375" height="996.09375"
     viewBox="0 0 996.09375 996.09375"
     fill="currentColor">
  <path d="M498.0477 996.0959C770.5077 996.0959 996.0977 770.0159 996.0977 498.0459C996.0977 225.5859 770.0177 -0.0041 497.5577 -0.0041C225.5877 -0.0041 -0.0023 225.5859 -0.0023 498.0459C-0.0023 770.0159 226.0777 996.0959 498.0477 996.0959ZM245.1177 703.6159C227.0477 703.6159 215.3277 691.8959 215.3277 673.8259C215.3277 663.5759 219.2377 655.2759 226.5577 646.4859L359.3777 490.7259C383.2977 462.4059 409.6677 434.0859 409.6677 401.3659C409.6677 364.2559 383.7877 339.3559 342.7777 339.3559C307.1277 339.3559 281.7377 357.9059 268.5577 395.5059C262.2077 410.6459 254.3977 418.9459 239.7477 418.9459C222.6577 418.9459 211.9177 407.2259 211.9177 388.6759C211.9177 382.8159 212.8877 376.9559 213.8677 370.6059C227.0477 319.3359 280.7577 281.2459 340.3277 281.2459C419.4377 281.2459 471.1877 325.6859 471.1877 395.9959C471.1877 446.2859 443.3577 482.4259 406.2477 525.8759L307.6177 640.1359V644.0459H453.1277C469.2377 644.0459 481.4477 654.2959 481.4477 673.3359C481.4477 691.4059 469.2377 703.6159 453.1277 703.6159ZM611.3277 709.4759C592.2877 709.4759 577.6377 695.7959 577.6377 676.7559C577.6377 666.9959 578.6177 661.1359 583.0077 653.3159L739.2577 352.0459V347.6559H562.0077C544.9177 347.6559 533.2077 336.9159 533.2077 319.8259C533.2077 302.7359 544.9177 291.0159 562.0077 291.0159H765.6277C792.9677 291.0159 810.5477 310.5459 810.5477 334.9559C810.5477 345.7059 808.5977 354.9759 800.7777 371.0959L644.0477 685.0559C634.7677 702.1459 624.9977 709.4759 611.3277 709.4759Z"/>
</svg>