<?xml version="1.0" encoding="UTF-8" standalone="no"?>
<svg xmlns="http://www.w3.org/2000/svg"
     width="898.92578125" height="898.92578125"
     viewBox="0 0 898.92578125 898.92578125"
     fill="currentColor">
  <path d="M153.3183 898.9295H745.6083C848.1483 898.9295 898.9283 848.1495 898.9283 747.5595V151.3695C898.9283 50.7795 848.1483 -0.0005 745.6083 -0.0005H153.3183C51.2683 -0.0005 -0.0017 50.2895 -0.0017 151.3695V747.5595C-0.0017 848.6295 51.2683 898.9295 153.3183 898.9295ZM196.7783 654.2995C178.7083 654.2995 166.9883 642.5795 166.9883 624.5095C166.9883 614.2595 170.8983 605.9595 178.2183 597.1695L311.0383 441.4095C334.9583 413.0895 361.3283 384.7695 361.3283 352.0495C361.3283 314.9395 335.4483 290.0395 294.4383 290.0395C258.7883 290.0395 233.3983 308.5895 220.6983 346.1895C213.8683 361.3295 206.0583 369.6295 191.8983 369.6295C174.3183 369.6295 163.5783 357.9095 163.5783 339.3595C163.5783 333.4995 164.5483 327.6395 165.5283 321.2895C178.7083 270.0195 232.4183 231.9295 291.9883 231.9295C371.0983 231.9295 422.8483 276.3695 422.8483 346.6795C422.8483 396.9695 395.0183 433.1095 357.9083 476.5595L259.2783 590.8195V594.7295H405.2783C420.8983 594.7295 433.1083 604.9795 433.1083 624.0195C433.1083 642.0895 420.8983 654.2995 405.2783 654.2995ZM562.9883 660.1595C543.9483 660.1595 529.2983 646.4795 529.2983 627.4395C529.2983 617.6795 530.2783 611.8195 534.6683 603.9995L690.9183 302.7295V298.3395H513.6683C496.5783 298.3395 484.8683 287.5995 484.8683 270.5095C484.8683 253.4195 496.5783 241.6995 513.6683 241.6995H717.2883C744.6283 241.6995 762.2083 261.2295 762.2083 285.6395C762.2083 296.3895 760.2583 305.6595 752.4383 321.7795L595.6983 635.7395C586.4283 652.8295 576.6583 660.1595 562.9883 660.1595Z"/>
</svg>