<?xml version="1.0" encoding="UTF-8" standalone="no"?>
<svg xmlns="http://www.w3.org/2000/svg"
     width="996.09375" height="996.09375"
     viewBox="0 0 996.09375 996.09375"
     fill="currentColor">
  <path d="M498.0477 996.0959C770.5077 996.0959 996.0977 770.0159 996.0977 498.0459C996.0977 225.5859 770.0177 -0.0041 497.5577 -0.0041C225.5877 -0.0041 -0.0023 225.5859 -0.0023 498.0459C-0.0023 770.0159 226.0777 996.0959 498.0477 996.0959ZM231.9377 703.6159C213.8677 703.6159 202.1477 691.8959 202.1477 673.8259C202.1477 663.5759 205.5677 654.7859 213.3777 646.4859L346.1877 490.2359C370.1177 462.4059 396.4877 434.0859 396.4877 401.3659C396.4877 364.2559 370.1177 339.3559 329.5877 339.3559C293.4577 339.3559 268.5577 357.4259 255.3677 395.5059C248.5377 410.6459 241.2077 418.9459 226.5577 418.9459C209.4777 418.9459 198.7277 406.7359 198.7277 388.6759C198.7277 382.8159 199.7077 376.9559 200.6877 370.6059C213.8677 319.3359 267.0877 280.7659 327.1477 280.7659C406.2477 280.7659 457.5177 325.6859 457.5177 395.9959C457.5177 446.2859 429.6877 482.4259 392.5777 525.8759L293.9477 640.1359V644.0459H439.9377C456.0577 644.0459 468.2577 654.2959 468.2577 673.3359C468.2577 691.4059 456.0577 703.6159 439.9377 703.6159ZM666.5077 715.3359C579.0977 715.3359 521.4877 666.0159 521.4877 592.2859C521.4877 541.0159 552.2477 498.5359 606.9377 487.3059V484.3759C560.0577 470.7059 536.1377 435.5459 536.1377 391.6059C536.1377 326.1759 590.3277 280.7659 667.4777 280.7659C745.1177 280.7659 798.8277 326.1759 798.8277 391.6059C798.8277 435.5459 774.8977 471.6759 728.5177 484.3759V487.3059C782.2277 498.5359 813.9677 540.5259 813.9677 591.7959C813.9677 665.0359 754.3977 715.3359 666.5077 715.3359ZM667.4777 464.3559C706.5477 464.3559 734.8677 436.0359 734.8677 397.9459C734.8677 359.8659 707.0277 333.4959 667.4777 333.4959C628.4177 333.4959 600.5877 359.8659 600.5877 397.9459C600.5877 436.0359 628.4177 464.3559 667.4777 464.3559ZM667.9677 662.5959C715.8177 662.5959 750.4877 631.8359 750.4877 587.8859C750.4877 543.9459 716.7977 512.6959 667.9677 512.6959C620.1177 512.6959 585.9377 544.4359 585.9377 587.8859C585.9377 631.8359 620.1177 662.5959 667.9677 662.5959Z"/>
</svg>