<?xml version="1.0" encoding="UTF-8" standalone="no"?>
<svg xmlns="http://www.w3.org/2000/svg"
     width="898.92578125" height="898.92578125"
     viewBox="0 0 898.92578125 898.92578125"
     fill="currentColor">
  <path d="M153.3183 898.9295H745.6083C848.1483 898.9295 898.9283 848.1495 898.9283 747.5595V151.3695C898.9283 50.7795 848.1483 -0.0005 745.6083 -0.0005H153.3183C51.2683 -0.0005 -0.0017 50.2895 -0.0017 151.3695V747.5595C-0.0017 848.6295 51.2683 898.9295 153.3183 898.9295ZM183.5983 654.2995C165.5283 654.2995 153.8083 642.5795 153.8083 624.5095C153.8083 614.2595 157.2283 605.4695 165.0383 597.1695L297.8483 440.9195C321.7783 413.0895 348.1483 384.7695 348.1483 352.0495C348.1483 314.9395 321.7783 290.0395 281.2483 290.0395C245.1183 290.0395 220.2183 308.1095 207.5183 346.1895C200.1983 361.3295 192.8683 369.6295 178.7083 369.6295C161.1283 369.6295 150.3883 357.4195 150.3883 339.3595C150.3883 333.4995 151.3683 327.6395 152.3483 321.2895C165.5283 270.0195 218.7483 231.4495 278.8083 231.4495C357.9083 231.4495 409.1783 276.3695 409.1783 346.6795C409.1783 396.9695 381.3483 433.1095 344.2383 476.5595L245.6083 590.8195V594.7295H392.0883C407.7183 594.7295 419.9183 604.9795 419.9183 624.0195C419.9183 642.0895 407.7183 654.2995 392.0883 654.2995ZM618.1683 666.0195C530.7583 666.0195 473.1483 616.6995 473.1483 542.9695C473.1483 491.6995 503.9083 449.2195 558.5983 437.9895V435.0595C511.7183 421.3895 487.7883 386.2295 487.7883 342.2895C487.7883 276.8595 541.9883 231.4495 619.1383 231.4495C696.7783 231.4495 750.9783 276.8595 750.9783 342.2895C750.9783 386.2295 726.5583 422.3595 680.1783 435.0595V437.9895C733.8883 449.2195 765.6283 491.2095 765.6283 542.4795C765.6283 615.7195 706.0583 666.0195 618.1683 666.0195ZM619.1383 415.0395C658.6883 415.0395 686.5283 386.7195 686.5283 348.6295C686.5283 310.5495 658.6883 284.1795 619.1383 284.1795C580.0783 284.1795 552.2483 310.5495 552.2483 348.6295C552.2483 386.7195 580.0783 415.0395 619.1383 415.0395ZM619.6283 613.2795C667.4783 613.2795 702.1483 582.5195 702.1483 538.5695C702.1483 494.6295 668.4583 463.3795 619.6283 463.3795C571.7783 463.3795 537.5983 495.1195 537.5983 538.5695C537.5983 582.5195 571.7783 613.2795 619.6283 613.2795Z"/>
</svg>