<?xml version="1.0" encoding="UTF-8" standalone="no"?>
<svg xmlns="http://www.w3.org/2000/svg"
     width="996.09375" height="996.09375"
     viewBox="0 0 996.09375 996.09375"
     fill="currentColor">
  <path d="M498.0477 996.0959C770.5077 996.0959 996.0977 770.0159 996.0977 498.0459C996.0977 225.5859 770.0177 -0.0041 497.5577 -0.0041C225.5877 -0.0041 -0.0023 225.5859 -0.0023 498.0459C-0.0023 770.0159 226.0777 996.0959 498.0477 996.0959ZM498.0477 913.0859C267.5777 913.0859 83.4977 728.5159 83.4977 498.0459C83.4977 267.5759 267.0877 83.0059 497.5577 83.0059C728.0277 83.0059 913.0877 267.5759 913.0877 498.0459C913.0877 728.5159 728.5177 913.0859 498.0477 913.0859ZM243.6477 697.2659H445.7977C461.4277 697.2659 473.1477 685.5459 473.1477 667.9659C473.1477 649.9059 461.4277 639.6459 445.7977 639.6459H303.7077V636.2259L399.4177 524.9059C435.5477 482.9059 462.3977 447.7559 462.3977 398.9259C462.3977 331.0559 413.0877 287.5959 336.4277 287.5959C277.8277 287.5959 226.5577 324.7059 213.8677 374.5159C212.3977 380.8559 211.4277 386.2259 211.4277 392.0859C211.4277 409.6659 221.6777 421.3859 238.7677 421.3859C252.9277 421.3859 260.2577 413.0859 266.5977 398.4359C278.8077 361.8159 303.7077 343.7459 338.8677 343.7459C377.9277 343.7459 403.3177 368.1659 403.3177 404.2959C403.3177 436.0359 377.9277 463.3759 354.4877 490.7259L226.0777 642.0859C218.2577 650.3859 215.3277 658.6959 215.3277 668.4559C215.3277 686.0359 226.0777 697.2659 243.6477 697.2659ZM657.2277 708.4959C754.3977 708.4959 807.1277 631.3459 807.1277 484.3759C807.1277 356.4459 753.9077 287.5959 662.5977 287.5959C580.5677 287.5959 526.8577 342.7759 526.8577 428.7059C526.8577 512.6959 583.9877 559.5659 647.9477 559.5659C701.1677 559.5659 732.9077 530.7659 746.0977 497.5559H749.0277C749.9977 594.7259 712.8877 652.3459 656.2477 652.3459C628.4177 652.3459 605.9577 637.6959 594.2377 616.2059C586.4277 602.5359 577.1477 597.1659 564.4577 597.1659C549.3177 597.1659 538.5777 608.8859 538.5777 625.9759C538.5777 630.8559 540.0377 637.6959 541.9877 643.5559C549.8077 670.4059 589.8477 708.4959 657.2277 708.4959ZM666.0177 509.2759C619.6277 509.2759 588.8677 474.6059 588.8677 425.7859C588.8677 374.5159 619.1377 340.8159 666.5077 340.8159C711.4277 340.8159 743.6477 376.4659 743.6477 426.7559C743.6477 474.6059 711.9177 509.2759 666.0177 509.2759Z"/>
</svg>