<?xml version="1.0" encoding="UTF-8" standalone="no"?>
<svg xmlns="http://www.w3.org/2000/svg"
     width="898.92578125" height="898.92578125"
     viewBox="0 0 898.92578125 898.92578125"
     fill="currentColor">
  <path d="M153.3183 898.9295H745.6083C848.1483 898.9295 898.9283 848.1495 898.9283 747.5595V151.3695C898.9283 50.7795 848.1483 -0.0005 745.6083 -0.0005H153.3183C51.2683 -0.0005 -0.0017 50.2895 -0.0017 151.3695V747.5595C-0.0017 848.6295 51.2683 898.9295 153.3183 898.9295ZM187.9883 654.2995C170.4083 654.2995 158.6883 642.5795 158.6883 624.5095C158.6883 614.2595 161.6183 605.4695 169.9183 597.1695L302.7383 440.9195C326.1683 413.0895 353.0283 384.7695 353.0283 352.0495C353.0283 314.9395 326.1683 290.0395 286.1283 290.0395C249.9983 290.0395 225.0983 308.1095 211.9183 346.1895C205.0783 361.3295 197.7583 369.6295 183.1083 369.6295C165.5283 369.6295 154.7883 357.4195 154.7883 339.3595C154.7883 333.4995 156.2483 327.6395 157.2283 321.2895C170.4083 270.0195 223.6283 231.4495 283.6883 231.4495C362.7883 231.4495 413.5783 276.3695 413.5783 346.6795C413.5783 396.9695 385.7383 433.1095 348.6283 476.5595L250.4883 590.8195V594.7295H396.4883C412.5983 594.7295 424.8083 604.9795 424.8083 624.0195C424.8083 642.0895 412.5983 654.2995 396.4883 654.2995ZM614.2583 666.0195C544.9183 666.0195 503.9083 626.4695 495.6083 598.6295C493.6483 592.7695 492.1883 585.9395 492.1883 580.5695C492.1883 562.9895 503.4183 550.7795 519.0383 550.7795C532.2283 550.7795 541.5083 556.1495 549.8083 570.3095C562.0083 592.7695 584.9583 607.4195 613.2783 607.4195C671.8783 607.4195 709.9583 548.3395 708.9883 448.2395H706.0583C692.8683 482.4195 660.1583 512.2095 604.9783 512.2095C539.0583 512.2095 479.9783 463.8695 479.9783 377.4395C479.9783 288.5695 535.1583 231.4495 620.1183 231.4495C714.8483 231.4495 769.0383 302.7295 769.0383 434.5695C769.0383 586.4295 714.8483 666.0195 614.2583 666.0195ZM624.0283 459.9595C670.8983 459.9595 703.6183 424.3195 703.6183 374.9995C703.6183 323.2395 670.4083 286.6195 624.0283 286.6195C575.1983 286.6195 544.4383 321.2895 544.4383 374.0195C544.4383 424.3195 576.1683 459.9595 624.0283 459.9595Z"/>
</svg>