<?xml version="1.0" encoding="UTF-8" standalone="no"?>
<svg xmlns="http://www.w3.org/2000/svg"
     width="996.09375" height="996.09375"
     viewBox="0 0 996.09375 996.09375"
     fill="currentColor">
  <path d="M498.0477 996.0959C770.5077 996.0959 996.0977 770.0159 996.0977 498.0459C996.0977 225.5859 770.0177 -0.0041 497.5577 -0.0041C225.5877 -0.0041 -0.0023 225.5859 -0.0023 498.0459C-0.0023 770.0159 226.0777 996.0959 498.0477 996.0959ZM494.6277 737.7959C412.1077 737.7959 346.6777 698.2459 331.5477 640.1359C329.5877 632.8159 329.0977 628.4159 329.0977 621.0959C329.0977 600.5859 343.7477 586.4259 364.2577 586.4259C381.3477 586.4259 392.0877 594.7259 398.9277 612.3059C411.1377 646.9759 441.4077 673.3359 496.0977 673.3359C554.6877 673.3359 594.2377 644.0459 594.2377 598.6359C594.2377 553.2259 555.1777 521.9759 498.5377 521.9759H463.8677C445.7977 521.9759 432.6177 508.7859 432.6177 491.2059C432.6177 472.1659 445.7977 459.4759 463.8677 459.4759H495.6077C543.9477 459.4759 578.6177 429.1959 578.6177 387.6959C578.6177 347.1659 547.8477 322.2659 497.5577 322.2659C450.6877 322.2659 419.4377 345.7059 408.2077 383.2959C402.3477 400.8759 391.5977 409.6659 373.5377 409.6659C353.5177 409.6659 338.8677 395.9959 338.8677 375.9759C338.8677 368.6559 339.8477 363.2859 341.3077 355.9559C354.9777 296.3859 416.9877 258.2959 499.0277 258.2959C589.3577 258.2959 653.3177 308.5959 653.3177 378.9059C653.3177 431.6359 614.2577 478.0259 563.4777 485.3559V489.2559C624.9977 495.1159 669.4377 542.4759 669.4377 601.5659C669.4377 681.1559 602.5377 737.7959 494.6277 737.7959Z"/>
</svg>