<?xml version="1.0" encoding="UTF-8" standalone="no"?>
<svg xmlns="http://www.w3.org/2000/svg"
     width="898.92578125" height="735.83984375"
     viewBox="0 0 898.92578125 735.83984375"
     fill="currentColor">
  <path d="M-0.0017 696.2866C-0.0017 717.7766 17.5783 735.8366 39.0583 735.8366C61.0383 735.8366 78.6183 717.7766 78.6183 696.2866V39.0666C78.6183 17.5766 61.0383 -0.0034 39.0583 -0.0034C17.5783 -0.0034 -0.0017 17.5766 -0.0017 39.0666ZM820.3083 696.2866C820.3083 717.7766 838.3783 735.8366 859.8683 735.8366C881.3483 735.8366 898.9283 717.7766 898.9283 696.2866V39.0666C898.9283 17.5766 881.3483 -0.0034 859.8683 -0.0034C838.3783 -0.0034 820.3083 17.5766 820.3083 39.0666ZM446.2883 599.6066C551.2683 599.6066 615.7183 544.4366 615.7183 467.7766C615.7183 410.1566 572.7583 364.2566 513.1883 358.8866V354.9766C562.0083 347.6566 600.0983 302.7366 600.0983 251.4666C600.0983 183.5966 538.0883 134.7666 450.6883 134.7666C371.0983 134.7666 311.0383 171.8766 297.8483 229.4966C296.3883 236.3266 295.8983 241.6966 295.8983 249.0266C295.8983 268.0666 309.5683 281.2466 329.0983 281.2466C346.6783 281.2466 356.9383 272.9466 362.3083 255.8566C373.5383 219.2366 403.8083 196.2866 449.2183 196.2866C498.0483 196.2866 527.8283 220.7066 527.8283 260.2566C527.8283 300.2966 494.1383 330.0766 447.2683 330.0766H416.9883C398.9283 330.0766 386.2283 342.2866 386.2283 360.3466C386.2283 377.4366 398.9283 390.1366 416.9883 390.1366H450.1983C505.3683 390.1366 542.9683 420.4066 542.9683 464.8466C542.9683 508.7866 504.8783 537.5966 447.7583 537.5966C395.0183 537.5966 365.2383 511.7166 353.5183 478.0266C346.6783 460.9366 336.4283 453.1266 319.8283 453.1266C300.2883 453.1266 286.1283 466.7966 286.1283 486.3266C286.1283 493.6566 286.6183 498.0466 288.5783 504.8866C303.2183 561.0366 366.6983 599.6066 446.2883 599.6066Z"/>
</svg>