<?xml version="1.0" encoding="UTF-8" standalone="no"?>
<svg xmlns="http://www.w3.org/2000/svg"
     width="996.09375" height="996.09375"
     viewBox="0 0 996.09375 996.09375"
     fill="currentColor">
  <path d="M498.0477 996.0959C770.5077 996.0959 996.0977 770.0159 996.0977 498.0459C996.0977 225.5859 770.0177 -0.0041 497.5577 -0.0041C225.5877 -0.0041 -0.0023 225.5859 -0.0023 498.0459C-0.0023 770.0159 226.0777 996.0959 498.0477 996.0959ZM498.0477 913.0859C267.5777 913.0859 83.4977 728.5159 83.4977 498.0459C83.4977 267.5759 267.0877 83.0059 497.5577 83.0059C728.0277 83.0059 913.0877 267.5759 913.0877 498.0459C913.0877 728.5159 728.5177 913.0859 498.0477 913.0859ZM370.1177 708.4959C453.1277 708.4959 511.2277 658.6959 511.2277 588.3759C511.2277 536.6259 475.0977 494.6259 425.7777 489.7459V486.8159C466.3077 479.9759 498.0477 439.4559 498.0477 393.5559C498.0477 331.0559 446.7777 287.5959 373.5377 287.5959C307.6177 287.5959 258.7877 325.1959 246.0977 373.0459C244.6277 379.3959 244.6277 384.2759 244.6277 390.6259C244.6277 408.2059 255.8577 420.4059 272.4577 420.4059C287.1077 420.4059 294.9177 412.5959 299.8077 396.9759C310.5477 362.7959 333.9877 343.7459 372.0677 343.7459C411.1377 343.7459 437.9877 367.1859 437.9877 401.3659C437.9877 437.0159 410.6477 462.8859 371.5777 462.8859H345.2177C329.5877 462.8859 318.8477 474.1259 318.8477 491.6959C318.8477 507.3259 329.5877 519.5359 345.2177 519.5359H374.0277C420.4077 519.5359 450.1977 545.8959 450.1977 585.4459C450.1977 623.5359 417.4777 652.3459 370.6077 652.3459C332.0277 652.3459 305.6677 633.2959 292.4777 599.1259C286.6177 583.4959 278.3177 575.6859 264.6477 575.6859C248.5377 575.6859 236.3277 587.8859 236.3277 604.9759C236.3277 611.8159 237.3077 616.6959 238.7677 623.0459C251.9577 667.9659 303.7077 708.4959 370.1177 708.4959ZM709.9577 702.6359C728.5177 702.6359 740.7277 690.4259 740.7277 671.3859V325.6859C740.7277 305.1759 727.0477 290.5259 706.5477 290.5259C690.4277 290.5259 681.1477 295.4059 663.5777 307.1259L589.3577 357.9059C579.0977 365.2359 573.2377 374.0259 573.2377 386.7159C573.2377 403.3159 586.9177 416.0159 601.0777 416.0159C608.8877 416.0159 613.2777 415.5259 624.9977 406.7359L676.7577 368.1659H679.6877V671.3859C679.6877 690.4259 691.8977 702.6359 709.9577 702.6359Z"/>
</svg>