<?xml version="1.0" encoding="UTF-8" standalone="no"?>
<svg xmlns="http://www.w3.org/2000/svg"
     width="996.09375" height="996.09375"
     viewBox="0 0 996.09375 996.09375"
     fill="currentColor">
  <path d="M498.0477 996.0959C770.5077 996.0959 996.0977 770.0159 996.0977 498.0459C996.0977 225.5859 770.0177 -0.0041 497.5577 -0.0041C225.5877 -0.0041 -0.0023 225.5859 -0.0023 498.0459C-0.0023 770.0159 226.0777 996.0959 498.0477 996.0959ZM330.0777 715.3359C261.7177 715.3359 208.4977 673.3359 194.8277 626.9559C193.3577 620.6059 192.3877 615.2359 192.3877 608.3959C192.3877 590.8159 204.5877 578.1259 221.6777 578.1259C235.8377 578.1259 244.1377 585.9359 250.4877 602.0459C264.1577 637.2059 291.0177 656.7359 330.5677 656.7359C378.9077 656.7359 412.5977 627.4459 412.5977 588.3759C412.5977 547.3659 381.8377 520.5059 334.4777 520.5059H304.6877C288.0877 520.5059 276.8577 507.8159 276.8577 491.6959C276.8577 473.1459 288.5777 461.4259 304.6877 461.4259H332.0277C372.0677 461.4259 399.8977 435.0559 399.8977 398.4359C399.8977 363.2859 372.0677 339.3559 332.5177 339.3559C292.9677 339.3559 269.0477 358.8859 257.8077 394.0459C252.9277 410.1559 244.6277 417.9659 229.4877 417.9659C211.9177 417.9659 200.6877 405.2759 200.6877 387.2059C200.6877 380.8559 200.6877 375.4859 202.1477 369.1359C215.3277 319.8259 265.6277 280.7659 333.9877 280.7659C408.6877 280.7659 461.9177 325.6859 461.9177 390.1359C461.9177 437.4959 429.6877 479.4959 387.6977 486.3259V489.2559C438.4777 494.6259 476.0777 537.5959 476.0777 591.3059C476.0777 663.5759 416.0177 715.3359 330.0777 715.3359ZM572.2677 703.6159C554.1977 703.6159 542.9677 691.8959 542.9677 673.8259C542.9677 663.5759 546.3877 654.7859 554.1977 646.4859L686.5277 490.2359C710.4477 462.4059 736.8177 434.0859 736.8177 401.3659C736.8177 364.2559 710.9377 339.3559 670.8977 339.3559C634.7677 339.3559 608.8877 357.4259 596.1877 395.5059C589.8477 410.6459 582.0277 418.9459 567.3877 418.9459C549.8077 418.9459 539.0577 406.7359 539.0577 388.6759C539.0577 382.8159 540.0377 376.9559 541.5077 370.6059C554.1977 319.3359 607.9077 280.7659 667.9677 280.7659C746.5777 280.7659 798.3377 325.6859 798.3377 395.9959C798.3377 446.2859 770.5077 482.4259 733.3977 525.8759L634.7677 640.1359V644.0459H780.7577C796.8777 644.0459 808.5977 654.2959 808.5977 673.3359C808.5977 691.4059 796.8777 703.6159 780.7577 703.6159Z"/>
</svg>