<?xml version="1.0" encoding="UTF-8" standalone="no"?>
<svg xmlns="http://www.w3.org/2000/svg"
     width="996.09375" height="996.09375"
     viewBox="0 0 996.09375 996.09375"
     fill="currentColor">
  <path d="M498.0477 996.0959C770.5077 996.0959 996.0977 770.0159 996.0977 498.0459C996.0977 225.5859 770.0177 -0.0041 497.5577 -0.0041C225.5877 -0.0041 -0.0023 225.5859 -0.0023 498.0459C-0.0023 770.0159 226.0777 996.0959 498.0477 996.0959ZM498.0477 913.0859C267.5777 913.0859 83.4977 728.5159 83.4977 498.0459C83.4977 267.5759 267.0877 83.0059 497.5577 83.0059C728.0277 83.0059 913.0877 267.5759 913.0877 498.0459C913.0877 728.5159 728.5177 913.0859 498.0477 913.0859ZM334.9577 708.4959C417.9677 708.4959 476.0777 658.6959 476.0777 588.3759C476.0777 536.6259 439.9377 494.6259 390.6277 489.7459V486.8159C431.1477 479.9759 462.3977 439.4559 462.3977 393.5559C462.3977 331.0559 411.1377 287.5959 338.3777 287.5959C272.4577 287.5959 223.6377 325.1959 210.9377 373.0459C209.4777 379.3959 209.4777 384.2759 209.4777 390.6259C209.4777 408.2059 220.2177 420.4059 237.3077 420.4059C251.9577 420.4059 259.7677 412.5959 264.6477 396.9759C275.3877 362.7959 298.8277 343.7459 336.9177 343.7459C375.4877 343.7459 402.8277 367.1859 402.8277 401.3659C402.8277 437.0159 375.4877 462.8859 336.4277 462.8859H310.0577C294.4377 462.8859 283.2077 474.1259 283.2077 491.6959C283.2077 507.3259 293.9477 519.5359 310.0577 519.5359H338.8677C385.2577 519.5359 415.0377 545.8959 415.0377 585.4459C415.0377 623.5359 382.3277 652.3459 335.4477 652.3459C296.8777 652.3459 270.5077 633.2959 257.3277 599.1259C251.4677 583.4959 243.1677 575.6859 229.4877 575.6859C212.8877 575.6859 201.1677 587.8859 201.1677 604.9759C201.1677 611.8159 202.1477 616.6959 203.6177 623.0459C216.7977 667.9659 268.5577 708.4959 334.9577 708.4959ZM569.8277 697.2659H771.9777C787.5977 697.2659 798.8277 685.5459 798.8277 667.9659C798.8277 649.9059 787.5977 639.6459 771.9777 639.6459H629.8877V636.2259L725.5877 524.9059C761.7177 482.9059 788.5777 447.7559 788.5777 398.9259C788.5777 331.0559 738.7677 287.5959 662.5977 287.5959C604.0077 287.5959 552.2477 324.7059 540.0377 374.5159C538.5777 380.8559 537.5977 386.2259 537.5977 392.0859C537.5977 409.6659 547.8477 421.3859 564.9377 421.3859C579.0977 421.3859 586.4277 413.0859 592.7777 398.4359C604.9777 361.8159 629.8877 343.7459 665.0377 343.7459C704.0977 343.7459 729.4877 368.1659 729.4877 404.2959C729.4877 436.0359 704.0977 463.3759 680.6677 490.7259L552.2477 642.0859C544.4377 650.3859 541.5077 658.6959 541.5077 668.4559C541.5077 686.0359 552.2477 697.2659 569.8277 697.2659Z"/>
</svg>