<?xml version="1.0" encoding="UTF-8" standalone="no"?>
<svg xmlns="http://www.w3.org/2000/svg"
     width="996.09375" height="996.09375"
     viewBox="0 0 996.09375 996.09375"
     fill="currentColor">
  <path d="M498.0477 996.0959C770.5077 996.0959 996.0977 770.0159 996.0977 498.0459C996.0977 225.5859 770.0177 -0.0041 497.5577 -0.0041C225.5877 -0.0041 -0.0023 225.5859 -0.0023 498.0459C-0.0023 770.0159 226.0777 996.0959 498.0477 996.0959ZM326.1677 715.3359C257.3277 715.3359 203.6177 673.3359 190.4277 626.9559C188.4777 620.6059 187.4977 615.2359 187.4977 608.3959C187.4977 590.8159 200.1977 578.1259 216.7977 578.1259C231.4477 578.1259 239.7477 585.9359 245.6077 602.0459C259.2777 637.2059 286.6177 656.7359 326.6577 656.7359C374.5077 656.7359 408.2077 627.4459 408.2077 588.3759C408.2077 547.3659 377.4377 520.5059 329.5877 520.5059H300.2977C283.6877 520.5059 272.9477 507.8159 272.9477 491.6959C272.9477 473.1459 283.6877 461.4259 300.2977 461.4259H327.1477C367.1877 461.4259 395.5077 435.0559 395.5077 398.4359C395.5077 363.2859 367.6777 339.3559 327.6377 339.3559C288.5777 339.3559 264.6477 358.8859 253.4177 394.0459C248.0477 410.1559 240.2377 417.9659 225.0977 417.9659C208.0077 417.9659 196.2877 405.2759 196.2877 387.2059C196.2877 380.8559 196.2877 375.4859 197.7577 369.1359C210.9377 319.8259 261.2277 280.7659 329.0977 280.7659C404.7877 280.7659 457.5177 325.6859 457.5177 390.1359C457.5177 437.4959 424.8077 479.4959 383.2977 486.3259V489.2559C434.0777 494.6259 471.1877 537.5959 471.1877 591.3059C471.1877 663.5759 411.1377 715.3359 326.1677 715.3359ZM674.8077 715.3359C605.4677 715.3359 552.2477 673.3359 539.0577 626.9559C537.1077 620.6059 536.1377 615.2359 536.1377 608.3959C536.1377 590.8159 548.8277 578.1259 565.4277 578.1259C580.0777 578.1259 588.3777 585.9359 594.2377 602.0459C607.9077 637.2059 634.7677 656.7359 675.2977 656.7359C722.6577 656.7359 756.3477 627.4459 756.3477 588.3759C756.3477 547.3659 726.0777 520.5059 678.2277 520.5059H648.4377C632.3277 520.5059 621.0977 507.8159 621.0977 491.6959C621.0977 473.1459 632.3277 461.4259 648.4377 461.4259H675.7777C715.8177 461.4259 743.6477 435.0559 743.6477 398.4359C743.6477 363.2859 716.3077 339.3559 676.2677 339.3559C636.7177 339.3559 612.7977 358.8859 601.5577 394.0459C596.6777 410.1559 588.3777 417.9659 573.2377 417.9659C556.1477 417.9659 544.4377 405.2759 544.4377 387.2059C544.4377 380.8559 544.4377 375.4859 545.8977 369.1359C559.0777 319.8259 609.3777 280.7659 677.7377 280.7659C753.4177 280.7659 806.1477 325.6859 806.1477 390.1359C806.1477 437.4959 773.4377 479.4959 731.4477 486.3259V489.2559C782.7177 494.6259 819.8277 537.5959 819.8277 591.3059C819.8277 663.5759 759.7677 715.3359 674.8077 715.3359Z"/>
</svg>