<?xml version="1.0" encoding="UTF-8" standalone="no"?>
<svg xmlns="http://www.w3.org/2000/svg"
     width="996.09375" height="996.09375"
     viewBox="0 0 996.09375 996.09375"
     fill="currentColor">
  <path d="M498.0477 996.0959C770.5077 996.0959 996.0977 770.0159 996.0977 498.0459C996.0977 225.5859 770.0177 -0.0041 497.5577 -0.0041C225.5877 -0.0041 -0.0023 225.5859 -0.0023 498.0459C-0.0023 770.0159 226.0777 996.0959 498.0477 996.0959ZM498.0477 913.0859C267.5777 913.0859 83.4977 728.5159 83.4977 498.0459C83.4977 267.5759 267.0877 83.0059 497.5577 83.0059C728.0277 83.0059 913.0877 267.5759 913.0877 498.0459C913.0877 728.5159 728.5177 913.0859 498.0477 913.0859ZM331.0577 708.4959C413.5777 708.4959 471.6777 658.6959 471.6777 588.3759C471.6777 536.6259 435.5477 494.6259 386.2277 489.7459V486.8159C426.7577 479.9759 458.4977 439.4559 458.4977 393.5559C458.4977 331.0559 407.2277 287.5959 333.9877 287.5959C268.0677 287.5959 219.2377 325.1959 206.5477 373.0459C205.0777 379.3959 205.0777 384.2759 205.0777 390.6259C205.0777 408.2059 216.3077 420.4059 232.9077 420.4059C247.5577 420.4059 255.3677 412.5959 260.2577 396.9759C270.9977 362.7959 294.4377 343.7459 332.5177 343.7459C371.5777 343.7459 398.4377 367.1859 398.4377 401.3659C398.4377 437.0159 371.0977 462.8859 332.0277 462.8859H305.6677C290.0377 462.8859 279.2977 474.1259 279.2977 491.6959C279.2977 507.3259 290.0377 519.5359 305.6677 519.5359H334.4777C380.8577 519.5359 410.6477 545.8959 410.6477 585.4459C410.6477 623.5359 377.9277 652.3459 331.5477 652.3459C292.4777 652.3459 266.1177 633.2959 252.9277 599.1259C247.0677 583.4959 239.2577 575.6859 225.0977 575.6859C208.9877 575.6859 196.7777 587.8859 196.7777 604.9759C196.7777 611.8159 197.7577 616.6959 199.7077 623.0459C212.3977 667.9659 264.1577 708.4959 331.0577 708.4959ZM668.9477 708.4959C751.4677 708.4959 809.5677 658.6959 809.5677 588.3759C809.5677 536.6259 773.4377 494.6259 724.1177 489.7459V486.8159C764.6477 479.9759 796.3877 439.4559 796.3877 393.5559C796.3877 331.0559 745.1177 287.5959 671.8777 287.5959C605.9577 287.5959 557.1277 325.1959 544.4377 373.0459C542.9677 379.3959 542.9677 384.2759 542.9677 390.6259C542.9677 408.2059 554.1977 420.4059 570.7977 420.4059C585.4477 420.4059 593.2577 412.5959 598.1477 396.9759C608.8877 362.7959 632.3277 343.7459 670.4077 343.7459C709.4777 343.7459 736.3277 367.1859 736.3277 401.3659C736.3277 437.0159 708.9877 462.8859 669.9177 462.8859H643.5577C627.9277 462.8859 617.1877 474.1259 617.1877 491.6959C617.1877 507.3259 627.9277 519.5359 643.5577 519.5359H672.3677C718.7477 519.5359 748.5377 545.8959 748.5377 585.4459C748.5377 623.5359 716.3077 652.3459 669.4377 652.3459C630.3677 652.3459 604.0077 633.2959 590.8177 599.1259C584.9577 583.4959 577.1477 575.6859 562.9877 575.6859C546.8777 575.6859 534.6677 587.8859 534.6677 604.9759C534.6677 611.8159 535.6477 616.6959 537.5977 623.0459C550.2977 667.9659 602.0477 708.4959 668.9477 708.4959Z"/>
</svg>