<?xml version="1.0" encoding="UTF-8" standalone="no"?>
<svg xmlns="http://www.w3.org/2000/svg"
     width="996.09375" height="996.09375"
     viewBox="0 0 996.09375 996.09375"
     fill="currentColor">
  <path d="M498.0477 996.0959C770.5077 996.0959 996.0977 770.0159 996.0977 498.0459C996.0977 225.5859 770.0177 -0.0041 497.5577 -0.0041C225.5877 -0.0041 -0.0023 225.5859 -0.0023 498.0459C-0.0023 770.0159 226.0777 996.0959 498.0477 996.0959ZM331.5477 715.3359C263.1877 715.3359 209.4777 673.3359 196.2877 626.9559C194.8277 620.6059 193.3577 615.2359 193.3577 608.3959C193.3577 590.8159 205.5677 578.1259 223.1477 578.1259C237.3077 578.1259 245.6077 585.9359 251.9577 602.0459C265.1377 637.2059 292.4777 656.7359 332.0277 656.7359C380.3677 656.7359 414.0577 627.4459 414.0577 588.3759C414.0577 547.3659 383.2977 520.5059 335.4477 520.5059H306.1477C289.5477 520.5059 278.3177 507.8159 278.3177 491.6959C278.3177 473.1459 290.0377 461.4259 306.1477 461.4259H333.0077C373.5377 461.4259 401.3677 435.0559 401.3677 398.4359C401.3677 363.2859 373.5377 339.3559 333.4977 339.3559C294.4377 339.3559 270.5077 358.8859 258.7877 394.0459C254.3977 410.1559 246.0977 417.9659 230.9577 417.9659C213.3777 417.9659 202.1477 405.2759 202.1477 387.2059C202.1477 380.8559 202.1477 375.4859 203.1277 369.1359C216.3077 319.8259 267.0877 280.7659 334.9577 280.7659C410.1577 280.7659 463.3777 325.6859 463.3777 390.1359C463.3777 437.4959 430.6677 479.4959 389.1577 486.3259V489.2559C439.9377 494.6259 476.5577 537.5959 476.5577 591.3059C476.5577 663.5759 417.4777 715.3359 331.5477 715.3359ZM668.9477 715.3359C605.9577 715.3359 556.1477 682.1259 541.0177 640.1359C538.5777 633.2959 537.1077 625.4859 537.1077 617.1859C537.1077 600.5859 548.3377 587.8859 565.4277 587.8859C577.1477 587.8859 586.9177 595.2159 594.2377 609.8659C608.8877 640.1359 638.6677 658.2059 672.3677 658.2059C721.1877 658.2059 754.3977 626.4659 754.3977 573.7259C754.3977 527.3459 724.1177 492.1859 680.1777 492.1859C658.2077 492.1859 642.0877 499.5159 621.5777 517.5759C605.4677 530.7659 595.7077 535.1559 580.0777 535.1559C556.6377 535.1559 542.9677 517.5759 544.4377 491.2059L557.1277 334.4759C558.5977 307.6159 576.1677 291.5059 602.5377 291.5059H775.8777C790.5277 291.5059 800.7777 303.7059 800.7777 319.8259C800.7777 336.4259 790.0377 348.1459 775.8777 348.1459H609.3777L599.6077 477.5359H602.0477C616.6977 454.5859 652.8277 437.9859 686.5277 437.9859C764.6477 437.9859 817.3877 494.6259 817.3877 572.2659C817.3877 660.6459 757.8077 715.3359 668.9477 715.3359Z"/>
</svg>