<?xml version="1.0" encoding="UTF-8" standalone="no"?>
<svg xmlns="http://www.w3.org/2000/svg"
     width="898.92578125" height="898.92578125"
     viewBox="0 0 898.92578125 898.92578125"
     fill="currentColor">
  <path d="M153.3183 898.9295H745.6083C848.1483 898.9295 898.9283 848.1495 898.9283 747.5595V151.3695C898.9283 50.7795 848.1483 -0.0005 745.6083 -0.0005H153.3183C51.2683 -0.0005 -0.0017 50.2895 -0.0017 151.3695V747.5595C-0.0017 848.6295 51.2683 898.9295 153.3183 898.9295ZM154.2983 820.3095C105.4683 820.3095 78.6183 794.4295 78.6183 743.6495V155.2695C78.6183 104.4895 105.4683 78.6095 154.2983 78.6095H744.6283C792.9683 78.6095 820.3083 104.4895 820.3083 155.2695V743.6495C820.3083 794.4295 792.9683 820.3095 744.6283 820.3095ZM288.5783 659.1795C371.5783 659.1795 429.6883 609.3795 429.6883 539.0595C429.6883 487.3095 393.5583 445.3095 344.2383 440.4295V437.4995C384.7683 430.6595 416.5083 390.1395 416.5083 344.2395C416.5083 281.7395 364.7483 238.2795 291.9883 238.2795C226.0783 238.2795 177.2483 275.8795 164.5483 323.7295C163.0883 330.0795 163.0883 334.9595 163.0883 341.3095C163.0883 358.8895 173.8283 371.0895 190.9183 371.0895C205.5683 371.0895 213.3783 363.2795 218.2583 347.6595C229.0083 313.4795 252.4383 294.4295 290.5283 294.4295C329.0983 294.4295 356.4483 317.8695 356.4483 352.0495C356.4483 387.6995 329.0983 413.5695 290.0383 413.5695H263.6683C248.0483 413.5695 236.8183 424.8095 236.8183 442.3795C236.8183 458.0095 247.5583 470.2195 263.6683 470.2195H292.4783C338.8683 470.2195 368.6483 496.5795 368.6483 536.1295C368.6483 574.2195 335.9383 603.0295 289.0583 603.0295C250.4883 603.0295 224.1183 583.9795 210.9383 549.8095C205.0783 534.1795 196.7783 526.3695 183.1083 526.3695C166.5083 526.3695 154.7883 538.5695 154.7883 555.6595C154.7883 562.4995 155.7583 567.3795 157.2283 573.7295C170.4083 618.6495 222.1683 659.1795 288.5783 659.1795ZM615.7183 659.1795C702.1483 659.1795 759.2783 606.4495 759.2783 520.5095C759.2783 445.3095 708.4983 390.6295 632.8083 390.6295C600.0983 390.6295 565.4283 406.7395 550.7783 428.7095H548.3383L557.6183 303.2195H719.2383C732.9083 303.2195 743.6483 291.9895 743.6483 275.8795C743.6483 260.2495 733.3983 248.5395 719.2383 248.5395H551.2683C525.8783 248.5395 508.7883 264.1595 507.3283 290.0395L495.1183 442.3795C493.6483 467.7695 507.3283 484.3795 529.2983 484.3795C544.4383 484.3795 553.7083 480.4695 569.3383 467.7695C589.3583 450.1995 604.9783 442.8695 626.4683 442.8695C669.4383 442.8695 698.7283 477.0495 698.7283 521.9695C698.7283 573.2395 666.5083 603.9995 619.1383 603.9995C585.9383 603.9995 557.1283 586.4295 543.4583 557.1295C536.1283 542.9695 526.3683 536.1295 515.1383 536.1295C498.5383 536.1295 487.7883 548.3395 487.7883 564.4495C487.7883 572.2695 489.2583 579.5895 492.1883 586.4295C506.3483 626.9495 554.6883 659.1795 615.7183 659.1795Z"/>
</svg>