<?xml version="1.0" encoding="UTF-8" standalone="no"?>
<svg xmlns="http://www.w3.org/2000/svg"
     width="898.92578125" height="898.92578125"
     viewBox="0 0 898.92578125 898.92578125"
     fill="currentColor">
  <path d="M153.3183 898.9295H745.6083C848.1483 898.9295 898.9283 848.1495 898.9283 747.5595V151.3695C898.9283 50.7795 848.1483 -0.0005 745.6083 -0.0005H153.3183C51.2683 -0.0005 -0.0017 50.2895 -0.0017 151.3695V747.5595C-0.0017 848.6295 51.2683 898.9295 153.3183 898.9295ZM283.1983 666.0195C214.8483 666.0195 161.1283 624.0195 147.9483 577.6395C146.4883 571.2895 145.0183 565.9195 145.0183 559.0795C145.0183 541.4995 157.2283 528.8095 174.8083 528.8095C188.9683 528.8095 197.2683 536.6195 203.6183 552.7295C216.7983 587.8895 244.1383 607.4195 283.6883 607.4195C332.0283 607.4195 365.7183 578.1295 365.7183 539.0595C365.7183 498.0495 334.9583 471.1895 287.1083 471.1895H257.8083C241.2083 471.1895 229.9783 458.4995 229.9783 442.3795C229.9783 423.8295 241.6983 412.1095 257.8083 412.1095H284.6683C325.1983 412.1095 353.0283 385.7395 353.0283 349.1195C353.0283 313.9695 325.1983 290.0395 285.1583 290.0395C246.0983 290.0395 222.1683 309.5695 210.9383 344.7295C206.0583 360.8395 197.7583 368.6495 182.6183 368.6495C165.0383 368.6495 153.8083 355.9595 153.8083 337.8895C153.8083 331.5395 153.8083 326.1695 155.2783 319.8195C168.4583 270.5095 218.7483 231.4495 286.6183 231.4495C361.8183 231.4495 415.5283 276.3695 415.5283 340.8195C415.5283 388.1795 382.8083 430.1795 340.8183 437.0095V439.9395C391.5983 445.3095 428.7083 488.2795 428.7083 541.9895C428.7083 614.2595 369.1383 666.0195 283.1983 666.0195ZM620.6083 666.0195C557.6183 666.0195 507.8083 632.8095 493.1683 590.8195C490.2383 583.9795 488.7683 576.1695 488.7683 567.8695C488.7683 551.2695 499.9983 538.5695 517.0883 538.5695C528.8083 538.5695 538.5783 545.8995 546.3883 560.5495C560.5483 590.8195 590.3283 608.8895 624.0283 608.8895C672.8483 608.8895 706.0583 577.1495 706.0583 524.4095C706.0583 478.0295 675.7783 442.8695 631.8383 442.8695C609.8683 442.8695 593.7483 450.1995 573.2383 468.2595C557.1283 481.4495 547.3683 485.8395 531.7383 485.8395C508.7883 485.8395 494.6283 468.2595 496.0983 441.8895L508.7883 285.1595C510.2583 258.2995 527.8283 242.1895 554.1983 242.1895H727.5383C742.1883 242.1895 752.9283 254.3895 752.9283 270.5095C752.9283 287.1095 741.6983 298.8295 727.5383 298.8295H561.0383L551.2683 428.2195H553.7083C568.8483 405.2695 604.4883 388.6695 638.1883 388.6695C716.3083 388.6695 769.0383 445.3095 769.0383 522.9495C769.0383 611.3295 709.9583 666.0195 620.6083 666.0195Z"/>
</svg>