<?xml version="1.0" encoding="UTF-8" standalone="no"?>
<svg xmlns="http://www.w3.org/2000/svg"
     width="996.09375" height="996.09375"
     viewBox="0 0 996.09375 996.09375"
     fill="currentColor">
  <path d="M498.0477 996.0959C770.5077 996.0959 996.0977 770.0159 996.0977 498.0459C996.0977 225.5859 770.0177 -0.0041 497.5577 -0.0041C225.5877 -0.0041 -0.0023 225.5859 -0.0023 498.0459C-0.0023 770.0159 226.0777 996.0959 498.0477 996.0959ZM498.0477 913.0859C267.5777 913.0859 83.4977 728.5159 83.4977 498.0459C83.4977 267.5759 267.0877 83.0059 497.5577 83.0059C728.0277 83.0059 913.0877 267.5759 913.0877 498.0459C913.0877 728.5159 728.5177 913.0859 498.0477 913.0859ZM327.6377 708.4959C410.6477 708.4959 468.2577 658.6959 468.2577 588.3759C468.2577 536.6259 432.6177 494.6259 383.2977 489.7459V486.8159C423.3377 479.9759 455.0777 439.4559 455.0777 393.5559C455.0777 331.0559 403.8077 287.5959 331.0577 287.5959C264.6477 287.5959 215.8177 325.1959 203.1277 373.0459C202.1477 379.3959 201.6577 384.2759 201.6577 390.6259C201.6577 408.2059 212.8877 420.4059 229.4877 420.4059C244.1377 420.4059 251.9577 412.5959 256.8377 396.9759C267.5777 362.7959 291.5077 343.7459 329.5877 343.7459C368.1677 343.7459 395.0177 367.1859 395.0177 401.3659C395.0177 437.0159 367.6777 462.8859 329.0977 462.8859H302.7377C286.6177 462.8859 275.8777 474.1259 275.8777 491.6959C275.8777 507.3259 286.6177 519.5359 302.7377 519.5359H331.0577C377.9277 519.5359 407.2277 545.8959 407.2277 585.4459C407.2277 623.5359 374.9977 652.3459 328.1277 652.3459C289.5477 652.3459 262.6977 633.2959 249.9977 599.1259C244.1377 583.4959 235.8377 575.6859 222.1677 575.6859C205.5677 575.6859 193.8477 587.8859 193.8477 604.9759C193.8477 611.8159 194.3377 616.6959 196.2877 623.0459C208.9877 667.9659 261.2277 708.4959 327.6377 708.4959ZM669.4377 708.9859C748.5377 708.9859 805.1777 656.7359 805.1777 567.3859C805.1777 483.3959 747.5577 437.0159 684.0777 437.0159C632.3277 437.0159 599.1177 466.3059 587.3977 498.5359H583.9877V494.1359C583.9877 401.8559 621.0977 343.7459 676.2677 343.7459C704.0977 343.7459 724.1177 357.4259 736.3277 376.4659C744.6277 388.6759 751.9577 394.5359 765.6277 394.5359C778.8077 394.5359 789.5477 383.7859 789.5477 367.6759C789.5477 361.3259 788.5777 355.4659 786.1377 349.1259C773.4377 316.4059 734.3777 287.5959 678.7077 287.5959C584.4777 287.5959 526.3677 360.8359 526.3677 509.2759C526.3677 568.8459 536.1377 612.3059 552.7377 643.0659C577.6377 689.9459 619.6277 708.9859 669.4377 708.9859ZM666.5077 655.2759C621.0977 655.2759 589.3577 619.6259 589.3577 569.3359C589.3577 521.4859 620.6077 487.3059 666.5077 487.3059C712.3977 487.3059 743.6477 520.9959 743.6477 569.8259C743.6477 622.0659 713.8677 655.2759 666.5077 655.2759Z"/>
</svg>