<?xml version="1.0" encoding="UTF-8" standalone="no"?>
<svg xmlns="http://www.w3.org/2000/svg"
     width="898.92578125" height="898.92578125"
     viewBox="0 0 898.92578125 898.92578125"
     fill="currentColor">
  <path d="M153.3183 898.9295H745.6083C848.1483 898.9295 898.9283 848.1495 898.9283 747.5595V151.3695C898.9283 50.7795 848.1483 -0.0005 745.6083 -0.0005H153.3183C51.2683 -0.0005 -0.0017 50.2895 -0.0017 151.3695V747.5595C-0.0017 848.6295 51.2683 898.9295 153.3183 898.9295ZM274.4183 666.0195C206.0583 666.0195 151.8583 624.0195 138.6683 577.6395C136.7183 571.2895 136.2283 565.9195 136.2283 559.0795C136.2283 541.0195 148.4383 528.8095 165.5283 528.8095C179.6883 528.8095 188.4783 536.6195 194.3383 552.7295C208.0083 587.8895 235.3483 607.4195 274.8983 607.4195C323.2383 607.4195 356.4483 578.1295 356.4483 539.0595C356.4483 498.0495 326.1683 471.1895 278.3183 471.1895H249.0283C231.9383 471.1895 221.1883 458.4995 221.1883 442.3795C221.1883 423.8295 231.9383 412.1095 249.0283 412.1095H275.8783C315.9183 412.1095 343.7483 385.7395 343.7483 349.1195C343.7483 313.9695 315.9183 290.0395 276.3683 290.0395C237.3083 290.0395 212.8883 309.5695 201.6583 344.7295C197.2683 360.8395 188.9683 368.6495 173.8283 368.6495C156.2483 368.6495 145.0183 355.9595 145.0183 337.8895C145.0183 331.5395 145.0183 326.1695 145.9983 319.8195C159.1783 270.5095 209.4683 231.4495 277.8283 231.4495C353.0283 231.4495 405.7583 276.3695 405.7583 340.8195C405.7583 388.1795 373.0483 430.1795 332.0283 437.0095V439.9395C382.8083 445.3095 419.4383 488.2795 419.4383 541.9895C419.4383 614.2595 359.8683 666.0195 274.4183 666.0195ZM626.9483 666.4995C575.6883 666.4995 532.2283 646.9695 506.3483 598.1395C489.2583 566.8895 479.9783 521.9695 479.9783 460.4495C479.9783 307.1295 539.0583 231.4495 636.7183 231.4495C693.8483 231.4495 733.8883 261.2295 747.0683 294.9195C749.9983 301.7595 750.9783 307.6195 750.9783 314.4495C750.9783 331.0595 740.2383 342.2895 726.0783 342.2895C711.9183 342.2895 704.0983 335.9395 695.7983 323.2395C683.1083 303.7095 663.0883 290.0395 633.7883 290.0395C577.1483 290.0395 539.0583 349.6095 539.0583 444.3395V449.2195H542.4783C555.1783 416.0195 588.8683 385.7395 642.0883 385.7395C708.0083 385.7395 767.0883 433.5895 767.0883 520.0195C767.0883 612.3095 708.4983 666.4995 626.9483 666.4995ZM624.0283 610.8395C672.3683 610.8395 703.1283 576.6595 703.1283 522.9495C703.1283 472.6595 670.8983 437.9895 624.0283 437.9895C576.6583 437.9895 544.4383 473.1395 544.4383 522.4595C544.4383 574.2195 577.1483 610.8395 624.0283 610.8395Z"/>
</svg>