<?xml version="1.0" encoding="UTF-8" standalone="no"?>
<svg xmlns="http://www.w3.org/2000/svg"
     width="996.09375" height="996.09375"
     viewBox="0 0 996.09375 996.09375"
     fill="currentColor">
  <path d="M498.0477 996.0959C770.5077 996.0959 996.0977 770.0159 996.0977 498.0459C996.0977 225.5859 770.0177 -0.0041 497.5577 -0.0041C225.5877 -0.0041 -0.0023 225.5859 -0.0023 498.0459C-0.0023 770.0159 226.0777 996.0959 498.0477 996.0959ZM336.4277 715.3359C268.0677 715.3359 214.8477 673.3359 201.1677 626.9559C199.7077 620.6059 198.7277 615.2359 198.7277 608.3959C198.7277 590.8159 210.9377 578.1259 228.0277 578.1259C242.1877 578.1259 250.4877 585.9359 256.8377 602.0459C270.5077 637.2059 297.3677 656.7359 337.3977 656.7359C385.2577 656.7359 418.9477 627.4459 418.9477 588.3759C418.9477 547.3659 388.1877 520.5059 340.8177 520.5059H311.0377C294.4377 520.5059 283.2077 507.8159 283.2077 491.6959C283.2077 473.1459 294.9177 461.4259 311.0377 461.4259H338.3777C378.4177 461.4259 406.2477 435.0559 406.2477 398.4359C406.2477 363.2859 378.4177 339.3559 338.8677 339.3559C299.3177 339.3559 275.3877 358.8859 264.1577 394.0459C259.2777 410.1559 250.9777 417.9659 235.8377 417.9659C218.2577 417.9659 207.0277 405.2759 207.0277 387.2059C207.0277 380.8559 207.0277 375.4859 208.4977 369.1359C221.6777 319.8259 271.9777 280.7659 340.3277 280.7659C415.5277 280.7659 468.7477 325.6859 468.7477 390.1359C468.7477 437.4959 436.0377 479.4959 394.0477 486.3259V489.2559C444.8277 494.6259 482.4177 537.5959 482.4177 591.3059C482.4177 663.5759 422.3677 715.3359 336.4277 715.3359ZM611.3277 709.4759C592.2877 709.4759 577.1477 695.7959 577.1477 676.7559C577.1477 666.9959 578.6177 661.1359 583.0077 653.3159L738.7677 351.5659V347.6559H562.0077C544.9177 347.6559 532.7177 336.4259 532.7177 319.8259C532.7177 302.7359 544.9177 291.0159 562.0077 291.0159H765.1377C792.4777 291.0159 810.0577 310.5459 810.0577 334.9559C810.0577 345.7059 808.1077 354.9759 800.7777 371.0959L643.0677 684.5659C634.7677 702.1459 624.5077 709.4759 611.3277 709.4759Z"/>
</svg>