<?xml version="1.0" encoding="UTF-8" standalone="no"?>
<svg xmlns="http://www.w3.org/2000/svg"
     width="898.92578125" height="898.92578125"
     viewBox="0 0 898.92578125 898.92578125"
     fill="currentColor">
  <path d="M153.3183 898.9295H745.6083C848.1483 898.9295 898.9283 848.1495 898.9283 747.5595V151.3695C898.9283 50.7795 848.1483 -0.0005 745.6083 -0.0005H153.3183C51.2683 -0.0005 -0.0017 50.2895 -0.0017 151.3695V747.5595C-0.0017 848.6295 51.2683 898.9295 153.3183 898.9295ZM154.2983 820.3095C105.4683 820.3095 78.6183 794.4295 78.6183 743.6495V155.2695C78.6183 104.4895 105.4683 78.6095 154.2983 78.6095H744.6283C792.9683 78.6095 820.3083 104.4895 820.3083 155.2695V743.6495C820.3083 794.4295 792.9683 820.3095 744.6283 820.3095ZM293.4583 659.1795C376.4683 659.1795 434.5683 609.3795 434.5683 539.0595C434.5683 487.3095 398.4383 445.3095 349.1183 440.4295V437.4995C389.6483 430.6595 421.3883 390.1395 421.3883 344.2395C421.3883 281.7395 370.1183 238.2795 296.8783 238.2795C230.9583 238.2795 182.1283 275.8795 169.4383 323.7295C167.9683 330.0795 167.9683 334.9595 167.9683 341.3095C167.9683 358.8895 179.1983 371.0895 195.7983 371.0895C210.4483 371.0895 218.2583 363.2795 223.1483 347.6595C233.8883 313.4795 257.3283 294.4295 295.4083 294.4295C333.9883 294.4295 361.3283 317.8695 361.3283 352.0495C361.3283 387.6995 333.9883 413.5695 294.9183 413.5695H268.5583C252.9283 413.5695 242.1883 424.8095 242.1883 442.3795C242.1883 458.0095 252.9283 470.2195 268.5583 470.2195H297.3683C343.7483 470.2195 373.5383 496.5795 373.5383 536.1295C373.5383 574.2195 340.8183 603.0295 293.9483 603.0295C255.3683 603.0295 229.0083 583.9795 215.8183 549.8095C209.9583 534.1795 201.6583 526.3695 187.9883 526.3695C171.8783 526.3695 159.6683 538.5695 159.6683 555.6595C159.6683 562.4995 160.6483 567.3795 162.1083 573.7295C175.2883 618.6495 227.0483 659.1795 293.4583 659.1795ZM559.5683 653.8095C572.7583 653.8095 582.0283 646.4795 590.8183 629.8795L743.1683 325.1995C750.4883 309.5695 752.4383 300.7795 752.4383 290.5295C752.4383 266.5995 735.3483 248.0495 708.9883 248.0495H511.7183C495.1183 248.0495 483.8883 259.2795 483.8883 275.8795C483.8883 291.9895 495.1183 302.7295 511.7183 302.7295H683.5983V306.6395L532.2283 599.6095C527.8283 606.9295 526.8583 612.7895 526.8583 622.0695C526.8583 640.6295 541.0183 653.8095 559.5683 653.8095Z"/>
</svg>