<?xml version="1.0" encoding="UTF-8" standalone="no"?>
<svg xmlns="http://www.w3.org/2000/svg"
     width="996.09375" height="996.09375"
     viewBox="0 0 996.09375 996.09375"
     fill="currentColor">
  <path d="M498.0477 996.0959C770.5077 996.0959 996.0977 770.0159 996.0977 498.0459C996.0977 225.5859 770.0177 -0.0041 497.5577 -0.0041C225.5877 -0.0041 -0.0023 225.5859 -0.0023 498.0459C-0.0023 770.0159 226.0777 996.0959 498.0477 996.0959ZM498.0477 913.0859C267.5777 913.0859 83.4977 728.5159 83.4977 498.0459C83.4977 267.5759 267.0877 83.0059 497.5577 83.0059C728.0277 83.0059 913.0877 267.5759 913.0877 498.0459C913.0877 728.5159 728.5177 913.0859 498.0477 913.0859ZM331.5477 708.4959C414.5477 708.4959 472.1677 658.6959 472.1677 588.3759C472.1677 536.6259 436.0377 494.6259 386.7177 489.7459V486.8159C427.2477 479.9759 458.9877 439.4559 458.9877 393.5559C458.9877 331.0559 407.7177 287.5959 334.9577 287.5959C268.5577 287.5959 219.7277 325.1959 207.0277 373.0459C206.0577 379.3959 205.5677 384.2759 205.5677 390.6259C205.5677 408.2059 216.7977 420.4059 233.3977 420.4059C248.0477 420.4059 255.8577 412.5959 260.7377 396.9759C271.4877 362.7959 295.4077 343.7459 333.4977 343.7459C372.0677 343.7459 398.9277 367.1859 398.9277 401.3659C398.9277 437.0159 371.5777 462.8859 333.0077 462.8859H306.6377C290.5277 462.8859 279.7877 474.1259 279.7877 491.6959C279.7877 507.3259 290.5277 519.5359 306.6377 519.5359H334.9577C381.3477 519.5359 411.1377 545.8959 411.1377 585.4459C411.1377 623.5359 378.9077 652.3459 332.0277 652.3459C293.4577 652.3459 266.5977 633.2959 253.9077 599.1259C247.5577 583.4959 239.7477 575.6859 226.0777 575.6859C209.4777 575.6859 197.7577 587.8859 197.7577 604.9759C197.7577 611.8159 198.2377 616.6959 200.1977 623.0459C212.8877 667.9659 264.6477 708.4959 331.5477 708.4959ZM656.2477 708.4959C753.4177 708.4959 805.6677 631.3459 805.6677 484.3759C805.6677 356.4459 752.9277 287.5959 661.6177 287.5959C579.5877 287.5959 525.8777 342.7759 525.8777 428.7059C525.8777 512.6959 583.0077 559.5659 646.4877 559.5659C700.1977 559.5659 731.9377 530.7659 745.1177 497.5559H748.0477C749.0277 594.7259 711.4277 652.3459 655.2777 652.3459C626.9577 652.3459 604.9777 637.6959 592.7777 616.2059C585.4477 602.5359 575.6877 597.1659 562.9877 597.1659C547.8477 597.1659 537.1077 608.8859 537.1077 625.9759C537.1077 630.8559 539.0577 637.6959 541.0177 643.5559C548.8277 670.4059 588.8677 708.4959 656.2477 708.4959ZM665.0377 509.2759C618.6477 509.2759 587.8877 474.6059 587.8877 425.7859C587.8877 374.5159 618.1677 340.8159 665.5277 340.8159C710.4477 340.8159 742.6777 376.4659 742.6777 426.7559C742.6777 474.6059 710.9377 509.2759 665.0377 509.2759Z"/>
</svg>