<?xml version="1.0" encoding="UTF-8" standalone="no"?>
<svg xmlns="http://www.w3.org/2000/svg"
     width="898.92578125" height="898.92578125"
     viewBox="0 0 898.92578125 898.92578125"
     fill="currentColor">
  <path d="M153.3183 898.9295H745.6083C848.1483 898.9295 898.9283 848.1495 898.9283 747.5595V151.3695C898.9283 50.7795 848.1483 -0.0005 745.6083 -0.0005H153.3183C51.2683 -0.0005 -0.0017 50.2895 -0.0017 151.3695V747.5595C-0.0017 848.6295 51.2683 898.9295 153.3183 898.9295ZM154.2983 820.3095C105.4683 820.3095 78.6183 794.4295 78.6183 743.6495V155.2695C78.6183 104.4895 105.4683 78.6095 154.2983 78.6095H744.6283C792.9683 78.6095 820.3083 104.4895 820.3083 155.2695V743.6495C820.3083 794.4295 792.9683 820.3095 744.6283 820.3095ZM283.6883 659.1795C366.6983 659.1795 424.3183 609.3795 424.3183 539.0595C424.3183 487.3095 388.6683 445.3095 339.3583 440.4295V437.4995C379.3983 430.6595 411.1283 390.1395 411.1283 344.2395C411.1283 281.7395 359.8683 238.2795 287.1083 238.2795C220.6983 238.2795 171.8783 275.8795 159.1783 323.7295C158.1983 330.0795 157.7183 334.9595 157.7183 341.3095C157.7183 358.8895 168.9483 371.0895 186.0383 371.0895C200.6883 371.0895 208.0083 363.2795 212.8883 347.6595C223.6283 313.4795 247.5583 294.4295 285.6483 294.4295C324.2183 294.4295 351.0783 317.8695 351.0783 352.0495C351.0783 387.6995 323.7283 413.5695 285.1583 413.5695H258.7883C242.6783 413.5695 231.9383 424.8095 231.9383 442.3795C231.9383 458.0095 242.6783 470.2195 258.7883 470.2195H287.1083C333.9883 470.2195 363.2783 496.5795 363.2783 536.1295C363.2783 574.2195 331.0583 603.0295 284.1783 603.0295C245.6083 603.0295 219.2383 583.9795 206.0583 549.8095C200.1983 534.1795 191.8983 526.3695 178.2183 526.3695C161.6183 526.3695 149.8983 538.5695 149.8983 555.6595C149.8983 562.4995 150.3883 567.3795 152.3483 573.7295C165.0383 618.6495 217.2883 659.1795 283.6883 659.1795ZM608.3983 659.1795C705.5683 659.1795 757.8083 582.0295 757.8083 435.0595C757.8083 307.1295 705.0783 238.2795 613.7683 238.2795C531.7383 238.2795 478.0283 293.4595 478.0283 379.3895C478.0283 463.3795 535.1583 510.2495 599.1183 510.2495C652.3483 510.2495 684.0783 481.4495 697.2683 448.2395H700.1983C701.1683 545.4095 663.5783 603.0295 607.4183 603.0295C579.0983 603.0295 557.1283 588.3795 545.4083 566.8895C537.5983 553.2195 527.8283 547.8495 515.1383 547.8495C499.9983 547.8495 489.2583 559.5695 489.2583 576.6595C489.2583 581.5395 491.2083 588.3795 493.1683 594.2395C500.9783 621.0895 541.0183 659.1795 608.3983 659.1795ZM617.1883 459.9595C570.7983 459.9595 540.0383 425.2895 540.0383 376.4695C540.0383 325.1995 570.3083 291.4995 617.6783 291.4995C662.5983 291.4995 694.8283 327.1495 694.8283 377.4395C694.8283 425.2895 663.0883 459.9595 617.1883 459.9595Z"/>
</svg>