<?xml version="1.0" encoding="UTF-8" standalone="no"?>
<svg xmlns="http://www.w3.org/2000/svg"
     width="996.09375" height="996.09375"
     viewBox="0 0 996.09375 996.09375"
     fill="currentColor">
  <path d="M498.0477 996.0959C770.5077 996.0959 996.0977 770.0159 996.0977 498.0459C996.0977 225.5859 770.0177 -0.0041 497.5577 -0.0041C225.5877 -0.0041 -0.0023 225.5859 -0.0023 498.0459C-0.0023 770.0159 226.0777 996.0959 498.0477 996.0959ZM306.1477 591.3059C306.1477 580.5659 308.5977 569.8259 314.4577 559.5659C368.6477 464.8459 417.4777 378.4159 470.7077 284.1759C480.4677 267.5759 491.2077 259.7659 507.3277 259.7659C530.2777 259.7659 542.4777 276.8559 542.4777 296.8759C542.4777 304.6859 540.0377 312.4959 536.1377 320.7959C489.2577 406.7359 445.7977 481.9359 400.3877 566.4059H540.0377V458.0059C540.0377 431.1559 553.7077 415.5259 576.1677 415.5259C600.5877 415.5259 614.2577 430.6659 614.2577 458.0059V566.4059H647.9477C669.9177 566.4059 684.0777 579.1059 684.0777 598.6359C684.0777 619.6259 669.9177 633.2959 647.9477 633.2959H614.2577V685.0559C614.2577 712.4059 600.5877 727.5359 576.1677 727.5359C553.7077 727.5359 540.0377 711.9159 540.0377 685.0559V633.2959H350.5877C322.7577 633.2959 306.1477 616.6959 306.1477 591.3059Z"/>
</svg>