<?xml version="1.0" encoding="UTF-8" standalone="no"?>
<svg xmlns="http://www.w3.org/2000/svg"
     width="898.92578125" height="898.92578125"
     viewBox="0 0 898.92578125 898.92578125"
     fill="currentColor">
  <path d="M153.3183 898.9295H745.6083C848.1483 898.9295 898.9283 848.1495 898.9283 747.5595V151.3695C898.9283 50.7795 848.1483 -0.0005 745.6083 -0.0005H153.3183C51.2683 -0.0005 -0.0017 50.2895 -0.0017 151.3695V747.5595C-0.0017 848.6295 51.2683 898.9295 153.3183 898.9295ZM257.8083 541.9895C257.8083 531.2495 260.2583 520.5095 266.1183 510.2495C320.3083 415.5295 369.1383 329.0995 422.8483 234.8595C432.1283 218.2595 442.8683 210.4495 458.9883 210.4495C481.9383 210.4495 494.6283 227.5395 494.6283 247.5595C494.6283 255.3695 491.6983 263.1795 487.7883 271.4795C440.9183 357.4195 397.4583 432.6195 352.0483 517.0895H491.6983V408.6895C491.6983 381.8395 505.3683 366.2095 527.8283 366.2095C552.2483 366.2095 565.9183 381.3495 565.9183 408.6895V517.0895H599.6083C622.0683 517.0895 635.7383 529.7895 635.7383 549.3195C635.7383 570.3095 622.0683 583.9795 599.6083 583.9795H565.9183V635.7395C565.9183 663.0895 552.2483 678.2195 527.8283 678.2195C505.3683 678.2195 491.6983 662.5995 491.6983 635.7395V583.9795H302.2483C274.4183 583.9795 257.8083 567.3795 257.8083 541.9895Z"/>
</svg>