<?xml version="1.0" encoding="UTF-8" standalone="no"?>
<svg xmlns="http://www.w3.org/2000/svg"
     width="996.09375" height="996.09375"
     viewBox="0 0 996.09375 996.09375"
     fill="currentColor">
  <path d="M498.0477 996.0959C770.5077 996.0959 996.0977 770.0159 996.0977 498.0459C996.0977 225.5859 770.0177 -0.0041 497.5577 -0.0041C225.5877 -0.0041 -0.0023 225.5859 -0.0023 498.0459C-0.0023 770.0159 226.0777 996.0959 498.0477 996.0959ZM563.4777 727.5359C540.5277 727.5359 526.8577 711.4259 526.8577 685.0559V633.7859H346.1877C313.9677 633.7859 293.4577 614.2559 293.4577 584.4759C293.4577 569.3359 297.3677 557.1259 307.6177 540.0359C349.1177 472.1659 411.1377 380.3759 463.3777 301.2659C483.3977 270.9959 505.3677 258.2959 540.5277 258.2959C577.1477 258.2959 601.5577 279.7859 601.5577 311.5259V567.3859H639.6477C660.1577 567.3859 673.3377 581.0559 673.3377 601.0759C673.3377 620.6059 659.6677 633.7859 639.6477 633.7859H601.5577V685.0559C601.5577 711.9159 587.8877 727.5359 563.4777 727.5359ZM526.8577 567.3859V323.7259H522.9477C470.7077 403.3159 406.7377 498.5359 368.1677 564.4559V567.3859Z"/>
</svg>