<?xml version="1.0" encoding="UTF-8" standalone="no"?>
<svg xmlns="http://www.w3.org/2000/svg"
     width="996.09375" height="996.09375"
     viewBox="0 0 996.09375 996.09375"
     fill="currentColor">
  <path d="M498.0477 996.0959C770.5077 996.0959 996.0977 770.0159 996.0977 498.0459C996.0977 225.5859 770.0177 -0.0041 497.5577 -0.0041C225.5877 -0.0041 -0.0023 225.5859 -0.0023 498.0459C-0.0023 770.0159 226.0777 996.0959 498.0477 996.0959ZM498.0477 913.0859C267.5777 913.0859 83.4977 728.5159 83.4977 498.0459C83.4977 267.5759 267.0877 83.0059 497.5577 83.0059C728.0277 83.0059 913.0877 267.5759 913.0877 498.0459C913.0877 728.5159 728.5177 913.0859 498.0477 913.0859ZM561.0377 720.2159C584.4777 720.2159 597.6577 705.0759 597.6577 679.1959V629.3959H634.7677C654.2977 629.3959 667.4777 616.6959 667.4777 597.6559C667.4777 578.6159 654.7877 565.4259 634.7677 565.4259H597.6577V316.8959C597.6577 286.1359 574.2177 265.6259 539.0577 265.6259C504.8877 265.6259 483.8877 277.8359 464.3577 307.1259C414.0577 383.2959 353.5177 473.1459 312.9877 539.0659C303.2277 555.1759 299.3177 566.8959 299.3177 581.5459C299.3177 610.3559 319.3377 629.3959 350.5877 629.3959H525.8777V679.1959C525.8777 704.5859 539.0577 720.2159 561.0377 720.2159ZM525.8777 565.4259H371.5777V562.4959C408.6877 498.5359 471.1877 405.7659 521.9777 328.6159H525.8777Z"/>
</svg>