<?xml version="1.0" encoding="UTF-8" standalone="no"?>
<svg xmlns="http://www.w3.org/2000/svg"
     width="898.92578125" height="735.83984375"
     viewBox="0 0 898.92578125 735.83984375"
     fill="currentColor">
  <path d="M-0.0017 696.2866C-0.0017 717.7766 17.5783 735.8366 39.0583 735.8366C61.0383 735.8366 78.6183 717.7766 78.6183 696.2866V39.0666C78.6183 17.5766 61.0383 -0.0034 39.0583 -0.0034C17.5783 -0.0034 -0.0017 17.5766 -0.0017 39.0666ZM820.3083 696.2866C820.3083 717.7766 838.3783 735.8366 859.8683 735.8366C881.3483 735.8366 898.9283 717.7766 898.9283 696.2866V39.0666C898.9283 17.5766 881.3483 -0.0034 859.8683 -0.0034C838.3783 -0.0034 820.3083 17.5766 820.3083 39.0666ZM513.1883 589.3566C536.6183 589.3566 549.8083 574.2166 549.8083 548.3366V498.5366H586.9183C606.4483 498.5366 619.6283 485.8366 619.6283 466.7966C619.6283 447.7566 606.9383 434.5666 586.9183 434.5666H549.8083V186.0366C549.8083 155.2766 526.3683 134.7666 491.2083 134.7666C457.0283 134.7666 436.0383 146.9766 416.5083 176.2666C366.2083 252.4366 305.6683 342.2866 265.1383 408.2066C255.3683 424.3166 251.9483 436.0366 251.9483 450.6866C251.9483 479.4966 271.4883 498.5366 302.7383 498.5366H478.0283V548.3366C478.0283 573.7266 491.2083 589.3566 513.1883 589.3566ZM478.0283 434.5666H323.7283V431.6366C360.8383 367.6766 423.3383 274.9066 474.6083 197.7566H478.0283Z"/>
</svg>