<?xml version="1.0" encoding="UTF-8" standalone="no"?>
<svg xmlns="http://www.w3.org/2000/svg"
     width="898.92578125" height="898.92578125"
     viewBox="0 0 898.92578125 898.92578125"
     fill="currentColor">
  <path d="M153.3183 898.9295H745.6083C848.1483 898.9295 898.9283 848.1495 898.9283 747.5595V151.3695C898.9283 50.7795 848.1483 -0.0005 745.6083 -0.0005H153.3183C51.2683 -0.0005 -0.0017 50.2895 -0.0017 151.3695V747.5595C-0.0017 848.6295 51.2683 898.9295 153.3183 898.9295ZM154.2983 820.3095C105.4683 820.3095 78.6183 794.4295 78.6183 743.6495V155.2695C78.6183 104.4895 105.4683 78.6095 154.2983 78.6095H744.6283C792.9683 78.6095 820.3083 104.4895 820.3083 155.2695V743.6495C820.3083 794.4295 792.9683 820.3095 744.6283 820.3095ZM351.5583 658.1995C371.5783 658.1995 381.3483 644.5295 381.3483 625.4895V567.8695H408.1983C424.8083 567.8695 435.5483 558.1095 435.5483 541.0195C435.5483 523.4395 424.8083 513.1795 408.1983 513.1795H381.3483V284.6695C381.3483 256.3495 361.8183 238.2795 333.4983 238.2795C305.1783 238.2795 287.5983 249.0195 271.9683 275.8795C230.9583 344.2395 181.6383 428.2195 148.9283 487.3095C141.1183 502.4395 138.1883 513.1795 138.1883 526.3695C138.1883 552.2495 155.2783 567.8695 180.1783 567.8695H322.2683V625.4895C322.2683 644.0395 332.5183 658.1995 351.5583 658.1995ZM623.0483 659.1795C707.0283 659.1795 762.6983 578.6095 762.6983 448.7295C762.6983 318.8495 707.0283 238.2795 623.0483 238.2795C539.0583 238.2795 483.3983 318.8495 483.3983 448.7295C483.3983 578.6095 539.0583 659.1795 623.0483 659.1795ZM623.0483 600.0995C576.6583 600.0995 547.3683 542.4795 547.3683 448.7295C547.3683 354.9795 576.6583 297.3595 623.0483 297.3595C669.4383 297.3595 698.7283 354.9795 698.7283 448.7295C698.7283 542.4795 669.9183 600.0995 623.0483 600.0995ZM322.2683 513.1795H202.1483V511.2295C230.4683 456.0595 280.7583 370.1195 319.8283 304.1995H322.2683Z"/>
</svg>