<?xml version="1.0" encoding="UTF-8" standalone="no"?>
<svg xmlns="http://www.w3.org/2000/svg"
     width="898.92578125" height="898.92578125"
     viewBox="0 0 898.92578125 898.92578125"
     fill="currentColor">
  <path d="M153.3183 898.9295H745.6083C848.1483 898.9295 898.9283 848.1495 898.9283 747.5595V151.3695C898.9283 50.7795 848.1483 -0.0005 745.6083 -0.0005H153.3183C51.2683 -0.0005 -0.0017 50.2895 -0.0017 151.3695V747.5595C-0.0017 848.6295 51.2683 898.9295 153.3183 898.9295ZM348.6283 665.0395C328.6183 665.0395 318.3583 650.3895 318.3583 630.8595V571.7795H171.8783C145.9983 571.7795 128.4183 555.6595 128.4183 528.8095C128.4183 515.1395 131.3483 503.9095 139.6483 488.2795C173.3383 427.2495 223.6283 341.3095 266.1183 270.5095C282.2283 242.6795 300.2883 231.4495 329.5883 231.4495C358.8883 231.4495 379.3983 250.4895 379.3983 279.7895V515.1395H406.7383C423.8283 515.1395 435.0583 525.8795 435.0583 543.9495C435.0583 561.5195 423.8283 571.7795 406.7383 571.7795H379.3983V630.8595C379.3983 650.8795 369.1383 665.0395 348.6283 665.0395ZM628.4183 666.0195C541.9883 666.0195 484.3783 583.0095 484.3783 448.7295C484.3783 314.4495 541.9883 231.4495 628.4183 231.4495C715.3283 231.4495 772.4583 314.4495 772.4583 448.7295C772.4583 583.0095 715.3283 666.0195 628.4183 666.0195ZM628.4183 604.4895C676.7583 604.4895 706.0583 545.4095 706.0583 448.7295C706.0583 352.0495 676.2683 292.9695 628.4183 292.9695C580.5683 292.9695 550.7783 352.0495 550.7783 448.7295C550.7783 545.4095 580.5683 604.4895 628.4183 604.4895ZM318.3583 515.1395V299.8095H315.4283C275.3883 368.1595 224.6083 456.0595 194.8283 513.1795V515.1395Z"/>
</svg>