<?xml version="1.0" encoding="UTF-8" standalone="no"?>
<svg xmlns="http://www.w3.org/2000/svg"
     width="898.92578125" height="898.92578125"
     viewBox="0 0 898.92578125 898.92578125"
     fill="currentColor">
  <path d="M153.3183 898.9295H745.6083C848.1483 898.9295 898.9283 848.1495 898.9283 747.5595V151.3695C898.9283 50.7795 848.1483 -0.0005 745.6083 -0.0005H153.3183C51.2683 -0.0005 -0.0017 50.2895 -0.0017 151.3695V747.5595C-0.0017 848.6295 51.2683 898.9295 153.3183 898.9295ZM154.2983 820.3095C105.4683 820.3095 78.6183 794.4295 78.6183 743.6495V155.2695C78.6183 104.4895 105.4683 78.6095 154.2983 78.6095H744.6283C792.9683 78.6095 820.3083 104.4895 820.3083 155.2695V743.6495C820.3083 794.4295 792.9683 820.3095 744.6283 820.3095ZM353.5183 658.1995C373.5383 658.1995 383.7883 644.5295 383.7883 625.4895V567.8695H410.1583C426.7583 567.8695 437.4983 558.1095 437.4983 541.0195C437.4983 523.4395 426.7583 513.1795 410.1583 513.1795H383.7883V284.6695C383.7883 256.3495 363.7683 238.2795 335.4483 238.2795C307.1283 238.2795 290.0383 249.0195 273.9283 275.8795C233.3983 344.2395 184.0783 428.2195 150.8783 487.3095C143.0683 502.4395 140.1383 513.1795 140.1383 526.3695C140.1383 552.2495 157.2283 567.8695 182.1283 567.8695H324.7083V625.4895C324.7083 644.0395 334.4683 658.1995 353.5183 658.1995ZM517.5783 647.9495H719.7283C735.3483 647.9495 747.0683 636.2295 747.0683 618.6495C747.0683 600.5895 735.3483 590.3295 719.7283 590.3295H577.6383V586.9095L673.8283 475.5895C709.4683 433.5895 736.3283 398.4395 736.3283 349.6095C736.3283 281.7395 687.0083 238.2795 610.3483 238.2795C552.2483 238.2795 500.4883 275.3895 487.7883 325.1995C486.8183 331.5395 485.3483 336.9095 485.3483 342.7695C485.3483 360.3495 496.0983 372.0695 512.6983 372.0695C526.8583 372.0695 534.1783 363.7695 540.5283 349.1195C553.2183 312.4995 577.6383 294.4295 612.7883 294.4295C651.8583 294.4295 677.7383 318.8495 677.7383 354.9795C677.7383 386.7195 651.8583 414.0595 628.9083 441.4095L499.9983 592.7695C492.1883 601.0695 489.2583 609.3795 489.2583 619.1395C489.2583 636.7195 500.4883 647.9495 517.5783 647.9495ZM324.7083 513.1795H204.0983V511.2295C232.9083 456.0595 283.1983 370.1195 321.7783 304.1995H324.7083Z"/>
</svg>