<?xml version="1.0" encoding="UTF-8" standalone="no"?>
<svg xmlns="http://www.w3.org/2000/svg"
     width="898.92578125" height="898.92578125"
     viewBox="0 0 898.92578125 898.92578125"
     fill="currentColor">
  <path d="M153.3183 898.9295H745.6083C848.1483 898.9295 898.9283 848.1495 898.9283 747.5595V151.3695C898.9283 50.7795 848.1483 -0.0005 745.6083 -0.0005H153.3183C51.2683 -0.0005 -0.0017 50.2895 -0.0017 151.3695V747.5595C-0.0017 848.6295 51.2683 898.9295 153.3183 898.9295ZM350.5883 665.0395C331.0583 665.0395 320.7983 650.3895 320.7983 630.8595V571.7795H173.8283C148.4383 571.7795 130.3683 555.6595 130.3683 528.8095C130.3683 515.1395 133.7883 503.9095 141.5983 488.2795C175.7783 427.2495 226.5583 341.3095 268.0683 270.5095C284.6683 242.6795 302.7383 231.4495 332.0283 231.4495C361.3283 231.4495 381.8383 250.4895 381.8383 279.7895V515.1395H409.1783C426.2683 515.1395 437.4983 525.8795 437.4983 543.9495C437.4983 561.5195 426.2683 571.7795 409.1783 571.7795H381.8383V630.8595C381.8383 650.8795 371.5783 665.0395 350.5883 665.0395ZM520.0183 654.2995C501.9483 654.2995 490.7183 642.5795 490.7183 624.5095C490.7183 614.2595 493.6483 605.4695 501.4683 597.1695L634.2783 440.9195C658.1983 413.0895 685.0583 384.7695 685.0583 352.0495C685.0583 314.9395 658.1983 290.0395 618.1683 290.0395C582.0283 290.0395 557.1283 308.1095 543.9483 346.1895C537.1083 361.3295 529.7883 369.6295 515.1383 369.6295C497.5583 369.6295 486.8183 357.4195 486.8183 339.3595C486.8183 333.4995 488.2783 327.6395 489.2583 321.2895C502.4383 270.0195 555.6683 231.4495 615.7183 231.4495C694.8283 231.4495 745.6083 276.3695 745.6083 346.6795C745.6083 396.9695 717.7783 433.1095 681.1483 476.5595L582.0283 590.8195V594.7295H728.5183C744.6283 594.7295 756.8383 604.9795 756.8383 624.0195C756.8383 642.0895 744.6283 654.2995 728.5183 654.2995ZM320.7983 515.1395V299.8095H317.8683C277.8283 368.1595 226.5583 456.0595 196.7783 513.1795V515.1395Z"/>
</svg>