<?xml version="1.0" encoding="UTF-8" standalone="no"?>
<svg xmlns="http://www.w3.org/2000/svg"
     width="996.09375" height="996.09375"
     viewBox="0 0 996.09375 996.09375"
     fill="currentColor">
  <path d="M498.0477 996.0959C770.5077 996.0959 996.0977 770.0159 996.0977 498.0459C996.0977 225.5859 770.0177 -0.0041 497.5577 -0.0041C225.5877 -0.0041 -0.0023 225.5859 -0.0023 498.0459C-0.0023 770.0159 226.0777 996.0959 498.0477 996.0959ZM400.3877 714.3559C380.3677 714.3559 370.6077 699.7059 370.6077 680.1759V621.0959H223.6377C197.7577 621.0959 180.1777 604.9759 180.1777 578.1259C180.1777 564.4559 183.1077 553.2259 191.4077 537.5959C225.5877 476.5659 275.8777 390.6259 317.8677 319.8259C334.4777 291.9959 352.0477 280.7659 381.8377 280.7659C411.1377 280.7659 431.6377 299.8059 431.6377 329.1059V564.4559H458.4977C476.0777 564.4559 486.8177 575.1959 486.8177 593.2659C486.8177 610.8359 476.0777 621.0959 458.4977 621.0959H431.6377V680.1759C431.6377 700.1959 420.8977 714.3559 400.3877 714.3559ZM670.8977 715.3359C601.5577 715.3359 548.3377 673.3359 535.1577 626.9559C533.2077 620.6059 532.7177 615.2359 532.7177 608.3959C532.7177 590.8159 544.9177 578.1259 561.5277 578.1259C576.1677 578.1259 584.4777 585.9359 590.3277 602.0459C604.0077 637.2059 631.3477 656.7359 671.3877 656.7359C719.2377 656.7359 752.4377 627.4459 752.4377 588.3759C752.4377 547.3659 722.1677 520.5059 674.3177 520.5059H644.5277C628.4177 520.5059 617.1877 507.8159 617.1877 491.6959C617.1877 473.1459 628.4177 461.4259 644.5277 461.4259H672.3677C711.9177 461.4259 740.2377 435.0559 740.2377 398.4359C740.2377 363.2859 712.3977 339.3559 672.3677 339.3559C633.7877 339.3559 608.8877 358.8859 598.1477 394.0459C592.7777 410.1559 584.9577 417.9659 569.8277 417.9659C552.2477 417.9659 541.0177 405.2759 541.0177 387.2059C541.0177 380.8559 541.0177 375.4859 542.4777 369.1359C555.1777 319.8259 605.9577 280.7659 673.8277 280.7659C749.5077 280.7659 802.2477 325.6859 802.2477 390.1359C802.2477 437.4959 769.5277 479.4959 728.0277 486.3259V489.2559C778.8077 494.6259 815.9177 537.5959 815.9177 591.3059C815.9177 663.5759 755.8577 715.3359 670.8977 715.3359ZM370.6077 564.4559V349.1259H367.6777C327.6377 417.4759 276.3677 505.3759 246.5777 562.4959V564.4559Z"/>
</svg>