<?xml version="1.0" encoding="UTF-8" standalone="no"?>
<svg xmlns="http://www.w3.org/2000/svg"
     width="898.92578125" height="898.92578125"
     viewBox="0 0 898.92578125 898.92578125"
     fill="currentColor">
  <path d="M153.3183 898.9295H745.6083C848.1483 898.9295 898.9283 848.1495 898.9283 747.5595V151.3695C898.9283 50.7795 848.1483 -0.0005 745.6083 -0.0005H153.3183C51.2683 -0.0005 -0.0017 50.2895 -0.0017 151.3695V747.5595C-0.0017 848.6295 51.2683 898.9295 153.3183 898.9295ZM352.0483 665.0395C332.0283 665.0395 322.2683 650.3895 322.2683 630.8595V571.7795H175.2883C149.4183 571.7795 131.8383 555.6595 131.8383 528.8095C131.8383 515.1395 134.7683 503.9095 143.0683 488.2795C177.2483 427.2495 227.5383 341.3095 269.5283 270.5095C286.1283 242.6795 303.7083 231.4495 333.4983 231.4495C362.7883 231.4495 383.2983 250.4895 383.2983 279.7895V515.1395H410.1583C427.7383 515.1395 438.4783 525.8795 438.4783 543.9495C438.4783 561.5195 427.7383 571.7795 410.1583 571.7795H383.2983V630.8595C383.2983 650.8795 372.5583 665.0395 352.0483 665.0395ZM622.5583 666.0195C553.2183 666.0195 499.9983 624.0195 486.8183 577.6395C484.8683 571.2895 484.3783 565.9195 484.3783 559.0795C484.3783 541.4995 496.5783 528.8095 513.6683 528.8095C527.8283 528.8095 536.1283 536.6195 542.4783 552.7295C555.6683 587.8895 583.0083 607.4195 623.0483 607.4195C670.8983 607.4195 704.0983 578.1295 704.0983 539.0595C704.0983 498.0495 673.8283 471.1895 625.9783 471.1895H596.6783C580.0783 471.1895 568.8483 458.4995 568.8483 442.3795C568.8483 423.8295 580.0783 412.1095 596.6783 412.1095H624.0283C663.5783 412.1095 691.8983 385.7395 691.8983 349.1195C691.8983 313.9695 664.0583 290.0395 624.5083 290.0395C585.4483 290.0395 560.5483 309.5695 549.8083 344.7295C544.4383 360.8395 536.6183 368.6495 521.4883 368.6495C503.9083 368.6495 492.6783 355.9595 492.6783 337.8895C492.6783 331.5395 493.1683 326.1695 494.1383 319.8195C506.8383 270.5095 557.6183 231.4495 625.9783 231.4495C701.1683 231.4495 753.9083 276.3695 753.9083 340.8195C753.9083 388.1795 721.1883 430.1795 679.6883 437.0095V439.9395C730.4683 445.3095 767.5783 488.2795 767.5783 541.9895C767.5783 614.2595 708.0083 666.0195 622.5583 666.0195ZM322.2683 515.1395V299.8095H319.3383C279.2983 368.1595 228.0283 456.0595 198.2383 513.1795V515.1395Z"/>
</svg>