<?xml version="1.0" encoding="UTF-8" standalone="no"?>
<svg xmlns="http://www.w3.org/2000/svg"
     width="996.09375" height="996.09375"
     viewBox="0 0 996.09375 996.09375"
     fill="currentColor">
  <path d="M498.0477 996.0959C770.5077 996.0959 996.0977 770.0159 996.0977 498.0459C996.0977 225.5859 770.0177 -0.0041 497.5577 -0.0041C225.5877 -0.0041 -0.0023 225.5859 -0.0023 498.0459C-0.0023 770.0159 226.0777 996.0959 498.0477 996.0959ZM386.7177 714.3559C367.1877 714.3559 356.9377 699.7059 356.9377 680.1759V621.0959H210.4477C184.5677 621.0959 166.9877 604.9759 166.9877 578.1259C166.9877 564.4559 169.9177 553.2259 177.7377 537.5959C211.9177 476.5659 262.6977 390.6259 304.1977 319.8259C321.2877 291.9959 338.8677 280.7659 368.1677 280.7659C397.4577 280.7659 418.4577 299.8059 418.4577 329.1059V564.4559H445.3077C462.3977 564.4559 474.1177 575.1959 474.1177 593.2659C474.1177 610.8359 462.8877 621.0959 445.3077 621.0959H418.4577V680.1759C418.4577 700.1959 407.7177 714.3559 386.7177 714.3559ZM734.3777 714.3559C714.8477 714.3559 704.0977 699.7059 704.0977 680.1759V621.0959H557.1277C531.2477 621.0959 514.1577 604.9759 514.1577 578.1259C514.1577 564.4559 516.5977 553.2259 525.3877 537.5959C559.0777 476.5659 609.3777 390.6259 651.8577 319.8259C667.9677 291.9959 685.5477 280.7659 715.3277 280.7659C745.1177 280.7659 765.1377 299.8059 765.1377 329.1059V564.4559H792.4777C810.0577 564.4559 820.7977 575.1959 820.7977 593.2659C820.7977 610.8359 810.0577 621.0959 792.4777 621.0959H765.1377V680.1759C765.1377 700.1959 754.3977 714.3559 734.3777 714.3559ZM356.9377 564.4559V349.1259H354.0077C313.9677 417.4759 262.6977 505.3759 232.9077 562.4959V564.4559ZM704.0977 564.4559V349.1259H701.6577C661.1377 417.4759 609.8677 505.3759 580.0777 562.4959V564.4559Z"/>
</svg>