<?xml version="1.0" encoding="UTF-8" standalone="no"?>
<svg xmlns="http://www.w3.org/2000/svg"
     width="996.09375" height="996.09375"
     viewBox="0 0 996.09375 996.09375"
     fill="currentColor">
  <path d="M498.0477 996.0959C770.5077 996.0959 996.0977 770.0159 996.0977 498.0459C996.0977 225.5859 770.0177 -0.0041 497.5577 -0.0041C225.5877 -0.0041 -0.0023 225.5859 -0.0023 498.0459C-0.0023 770.0159 226.0777 996.0959 498.0477 996.0959ZM498.0477 913.0859C267.5777 913.0859 83.4977 728.5159 83.4977 498.0459C83.4977 267.5759 267.0877 83.0059 497.5577 83.0059C728.0277 83.0059 913.0877 267.5759 913.0877 498.0459C913.0877 728.5159 728.5177 913.0859 498.0477 913.0859ZM389.6477 707.5159C409.6677 707.5159 419.9177 693.8459 419.9177 674.8059V617.1859H446.2877C463.3777 617.1859 474.1177 607.4259 474.1177 590.3359C474.1177 572.7559 462.8877 562.4959 446.2877 562.4959H419.9177V333.9859C419.9177 305.6659 399.8977 287.5959 371.5777 287.5959C343.2577 287.5959 326.1677 298.3359 310.0577 325.1959C269.5277 393.5559 220.2177 477.5359 187.0077 536.6259C179.1977 551.7559 176.2677 562.4959 176.2677 575.6859C176.2677 601.5659 193.3577 617.1859 218.2577 617.1859H360.8377V674.8059C360.8377 693.3559 370.6077 707.5159 389.6477 707.5159ZM726.5577 707.5159C746.0977 707.5159 756.3477 693.8459 756.3477 674.8059V617.1859H783.2077C799.8077 617.1859 810.5477 607.4259 810.5477 590.3359C810.5477 572.7559 799.8077 562.4959 783.2077 562.4959H756.3477V333.9859C756.3477 305.6659 736.8177 287.5959 708.0077 287.5959C679.6877 287.5959 662.5977 298.3359 646.9777 325.1959C605.9577 393.5559 556.6377 477.5359 523.9277 536.6259C515.6277 551.7559 513.1877 562.4959 513.1877 575.6859C513.1877 601.5659 529.7877 617.1859 554.6877 617.1859H697.2677V674.8059C697.2677 693.3559 707.5177 707.5159 726.5577 707.5159ZM360.8377 562.4959H240.2377V560.5459C269.0477 505.3759 319.3377 419.4359 357.9077 353.5159H360.8377ZM697.2677 562.4959H576.6577V560.5459C605.4677 505.3759 655.7577 419.4359 694.8277 353.5159H697.2677Z"/>
</svg>