<?xml version="1.0" encoding="UTF-8" standalone="no"?>
<svg xmlns="http://www.w3.org/2000/svg"
     width="898.92578125" height="898.92578125"
     viewBox="0 0 898.92578125 898.92578125"
     fill="currentColor">
  <path d="M153.3183 898.9295H745.6083C848.1483 898.9295 898.9283 848.1495 898.9283 747.5595V151.3695C898.9283 50.7795 848.1483 -0.0005 745.6083 -0.0005H153.3183C51.2683 -0.0005 -0.0017 50.2895 -0.0017 151.3695V747.5595C-0.0017 848.6295 51.2683 898.9295 153.3183 898.9295ZM154.2983 820.3095C105.4683 820.3095 78.6183 794.4295 78.6183 743.6495V155.2695C78.6183 104.4895 105.4683 78.6095 154.2983 78.6095H744.6283C792.9683 78.6095 820.3083 104.4895 820.3083 155.2695V743.6495C820.3083 794.4295 792.9683 820.3095 744.6283 820.3095ZM347.6583 658.1995C367.6783 658.1995 377.9283 644.5295 377.9283 625.4895V567.8695H404.2983C421.3883 567.8695 432.1283 558.1095 432.1283 541.0195C432.1283 523.4395 420.8983 513.1795 404.2983 513.1795H377.9283V284.6695C377.9283 256.3495 357.9083 238.2795 329.5883 238.2795C301.2683 238.2795 284.1783 249.0195 268.0683 275.8795C227.5383 344.2395 178.2183 428.2195 145.0183 487.3095C137.2083 502.4395 134.2783 513.1795 134.2783 526.3695C134.2783 552.2495 151.3683 567.8695 176.2683 567.8695H318.8483V625.4895C318.8483 644.0395 328.6183 658.1995 347.6583 658.1995ZM608.8883 659.1795C694.8283 659.1795 752.4383 606.4495 752.4383 520.5095C752.4383 445.3095 701.1683 390.6295 625.9783 390.6295C593.2583 390.6295 558.1083 406.7395 543.4583 428.7095H541.5083L550.7783 303.2195H712.3983C726.0783 303.2195 736.3283 291.9895 736.3283 275.8795C736.3283 260.2495 726.5583 248.5395 712.3983 248.5395H544.4383C518.5583 248.5395 501.9483 264.1595 499.9983 290.0395L488.2783 442.3795C486.3283 467.7695 499.9983 484.3795 522.4583 484.3795C537.5983 484.3795 546.3883 480.4695 562.0083 467.7695C582.5183 450.1995 597.6583 442.8695 619.6283 442.8695C662.1083 442.8695 691.8983 477.0495 691.8983 521.9695C691.8983 573.2395 659.1783 603.9995 611.8183 603.9995C578.6183 603.9995 550.2883 586.4295 536.1283 557.1295C528.8083 542.9695 519.5283 536.1295 508.2983 536.1295C491.6983 536.1295 480.4683 548.3395 480.4683 564.4495C480.4683 572.2695 482.4183 579.5895 484.8683 586.4295C499.5083 626.9495 547.8483 659.1795 608.8883 659.1795ZM318.8483 513.1795H198.2383V511.2295C227.0483 456.0595 277.3483 370.1195 315.9183 304.1995H318.8483Z"/>
</svg>