<?xml version="1.0" encoding="UTF-8" standalone="no"?>
<svg xmlns="http://www.w3.org/2000/svg"
     width="996.09375" height="996.09375"
     viewBox="0 0 996.09375 996.09375"
     fill="currentColor">
  <path d="M498.0477 996.0959C770.5077 996.0959 996.0977 770.0159 996.0977 498.0459C996.0977 225.5859 770.0177 -0.0041 497.5577 -0.0041C225.5877 -0.0041 -0.0023 225.5859 -0.0023 498.0459C-0.0023 770.0159 226.0777 996.0959 498.0477 996.0959ZM498.0477 913.0859C267.5777 913.0859 83.4977 728.5159 83.4977 498.0459C83.4977 267.5759 267.0877 83.0059 497.5577 83.0059C728.0277 83.0059 913.0877 267.5759 913.0877 498.0459C913.0877 728.5159 728.5177 913.0859 498.0477 913.0859ZM399.8977 707.5159C419.4377 707.5159 429.6877 693.8459 429.6877 674.8059V617.1859H456.5477C473.1477 617.1859 483.8877 607.4259 483.8877 590.3359C483.8877 572.7559 473.1477 562.4959 456.5477 562.4959H429.6877V333.9859C429.6877 305.6659 410.1577 287.5959 381.3477 287.5959C353.0277 287.5959 335.9377 298.3359 320.3077 325.1959C279.2977 393.5559 229.9777 477.5359 197.2677 536.6259C189.4577 551.7559 186.5277 562.4959 186.5277 575.6859C186.5277 601.5659 203.6177 617.1859 228.0277 617.1859H370.6077V674.8059C370.6077 693.3559 380.8577 707.5159 399.8977 707.5159ZM668.9477 708.9859C748.0477 708.9859 804.6877 656.7359 804.6877 567.3859C804.6877 483.3959 747.5577 437.0159 684.0777 437.0159C631.8377 437.0159 599.1177 466.3059 586.9177 498.5359H583.4977V494.1359C583.4977 401.8559 620.6077 343.7459 675.7777 343.7459C704.0977 343.7459 723.6377 357.4259 735.8377 376.4659C744.1377 388.6759 751.9577 394.5359 765.1377 394.5359C778.8077 394.5359 789.0577 383.7859 789.0577 367.6759C789.0577 361.3259 788.0877 355.4659 785.6477 349.1259C772.9477 316.4059 733.8877 287.5959 678.2277 287.5959C583.9877 287.5959 526.3677 360.8359 526.3677 509.2759C526.3677 568.8459 535.6477 612.3059 552.2477 643.0659C577.6377 689.9459 619.6277 708.9859 668.9477 708.9859ZM370.6077 562.4959H249.9977V560.5459C278.8077 505.3759 329.0977 419.4359 368.1677 353.5159H370.6077ZM666.0177 655.2759C620.6077 655.2759 589.3577 619.6259 589.3577 569.3359C589.3577 521.4859 620.6077 487.3059 666.5077 487.3059C712.3977 487.3059 743.1677 520.9959 743.1677 569.8259C743.1677 622.0659 713.3777 655.2759 666.0177 655.2759Z"/>
</svg>