<?xml version="1.0" encoding="UTF-8" standalone="no"?>
<svg xmlns="http://www.w3.org/2000/svg"
     width="898.92578125" height="898.92578125"
     viewBox="0 0 898.92578125 898.92578125"
     fill="currentColor">
  <path d="M153.3183 898.9295H745.6083C848.1483 898.9295 898.9283 848.1495 898.9283 747.5595V151.3695C898.9283 50.7795 848.1483 -0.0005 745.6083 -0.0005H153.3183C51.2683 -0.0005 -0.0017 50.2895 -0.0017 151.3695V747.5595C-0.0017 848.6295 51.2683 898.9295 153.3183 898.9295ZM349.1183 665.0395C329.0983 665.0395 318.8483 650.3895 318.8483 630.8595V571.7795H171.8783C146.4883 571.7795 128.9083 555.6595 128.9083 528.8095C128.9083 515.1395 131.8383 503.9095 140.1383 488.2795C173.8283 427.2495 224.1183 341.3095 266.5983 270.5095C282.7183 242.6795 300.7783 231.4495 330.5683 231.4495C359.8683 231.4495 379.8783 250.4895 379.8783 279.7895V515.1395H407.2283C424.8083 515.1395 435.5483 525.8795 435.5483 543.9495C435.5483 561.5195 424.8083 571.7795 407.2283 571.7795H379.8783V630.8595C379.8783 650.8795 369.1383 665.0395 349.1183 665.0395ZM626.4683 666.4995C575.6883 666.4995 532.2283 646.9695 506.8383 598.1395C489.7483 566.8895 479.4883 521.9695 479.4883 460.4495C479.4883 307.1295 539.5483 231.4495 636.2283 231.4495C693.3583 231.4495 733.8883 261.2295 747.0683 294.9195C749.5083 301.7595 750.9783 307.6195 750.9783 314.4495C750.9783 331.0595 739.7483 342.2895 725.5883 342.2895C711.9183 342.2895 704.0983 335.9395 695.3083 323.2395C682.6183 303.7095 662.5983 290.0395 633.7883 290.0395C577.1483 290.0395 538.5783 349.6095 538.5783 444.3395V449.2195H542.4783C554.6883 416.0195 588.3783 385.7395 642.0883 385.7395C707.5183 385.7395 766.5983 433.5895 766.5983 520.0195C766.5983 612.3095 708.4983 666.4995 626.4683 666.4995ZM318.8483 515.1395V299.8095H316.4083C275.8783 368.1595 224.6083 456.0595 195.3083 513.1795V515.1395ZM623.5383 610.8395C672.3683 610.8395 702.6383 576.6595 702.6383 522.9495C702.6383 472.6595 671.3883 437.9895 624.0283 437.9895C576.6583 437.9895 544.4383 473.1395 544.4383 522.4595C544.4383 574.2195 577.1483 610.8395 623.5383 610.8395Z"/>
</svg>