<?xml version="1.0" encoding="UTF-8" standalone="no"?>
<svg xmlns="http://www.w3.org/2000/svg"
     width="898.92578125" height="898.92578125"
     viewBox="0 0 898.92578125 898.92578125"
     fill="currentColor">
  <path d="M153.3183 898.9295H745.6083C848.1483 898.9295 898.9283 848.1495 898.9283 747.5595V151.3695C898.9283 50.7795 848.1483 -0.0005 745.6083 -0.0005H153.3183C51.2683 -0.0005 -0.0017 50.2895 -0.0017 151.3695V747.5595C-0.0017 848.6295 51.2683 898.9295 153.3183 898.9295ZM154.2983 820.3095C105.4683 820.3095 78.6183 794.4295 78.6183 743.6495V155.2695C78.6183 104.4895 105.4683 78.6095 154.2983 78.6095H744.6283C792.9683 78.6095 820.3083 104.4895 820.3083 155.2695V743.6495C820.3083 794.4295 792.9683 820.3095 744.6283 820.3095ZM350.0983 658.1995C370.1183 658.1995 379.8783 644.5295 379.8783 625.4895V567.8695H406.7383C423.3383 567.8695 434.0783 558.1095 434.0783 541.0195C434.0783 523.4395 423.3383 513.1795 406.7383 513.1795H379.8783V284.6695C379.8783 256.3495 360.3483 238.2795 332.0283 238.2795C303.7083 238.2795 286.1283 249.0195 270.5083 275.8795C229.4883 344.2395 180.1783 428.2195 147.4583 487.3095C139.6483 502.4395 136.7183 513.1795 136.7183 526.3695C136.7183 552.2495 153.8083 567.8695 178.7083 567.8695H320.7983V625.4895C320.7983 644.0395 331.0583 658.1995 350.0983 658.1995ZM555.1783 653.8095C568.3583 653.8095 578.1283 646.4795 586.4283 629.8795L738.7683 325.1995C746.5783 309.5695 748.0483 300.7795 748.0483 290.5295C748.0483 266.5995 730.9583 248.0495 704.5883 248.0495H507.8083C490.7183 248.0495 479.4883 259.2795 479.4883 275.8795C479.4883 291.9895 490.7183 302.7295 507.8083 302.7295H679.1983V306.6395L527.8283 599.6095C523.9283 606.9295 522.4583 612.7895 522.4583 622.0695C522.4583 640.6295 536.6183 653.8095 555.1783 653.8095ZM320.7983 513.1795H200.6883V511.2295C229.0083 456.0595 279.2983 370.1195 318.3583 304.1995H320.7983Z"/>
</svg>