<?xml version="1.0" encoding="UTF-8" standalone="no"?>
<svg xmlns="http://www.w3.org/2000/svg"
     width="898.92578125" height="898.92578125"
     viewBox="0 0 898.92578125 898.92578125"
     fill="currentColor">
  <path d="M153.3183 898.9295H745.6083C848.1483 898.9295 898.9283 848.1495 898.9283 747.5595V151.3695C898.9283 50.7795 848.1483 -0.0005 745.6083 -0.0005H153.3183C51.2683 -0.0005 -0.0017 50.2895 -0.0017 151.3695V747.5595C-0.0017 848.6295 51.2683 898.9295 153.3183 898.9295ZM154.2983 820.3095C105.4683 820.3095 78.6183 794.4295 78.6183 743.6495V155.2695C78.6183 104.4895 105.4683 78.6095 154.2983 78.6095H744.6283C792.9683 78.6095 820.3083 104.4895 820.3083 155.2695V743.6495C820.3083 794.4295 792.9683 820.3095 744.6283 820.3095ZM347.6583 658.1995C367.1883 658.1995 377.4383 644.5295 377.4383 625.4895V567.8695H404.2983C420.8983 567.8695 431.6383 558.1095 431.6383 541.0195C431.6383 523.4395 420.8983 513.1795 404.2983 513.1795H377.4383V284.6695C377.4383 256.3495 357.9083 238.2795 329.5883 238.2795C301.2683 238.2795 283.6883 249.0195 268.0683 275.8795C227.0483 344.2395 177.7383 428.2195 145.0183 487.3095C137.2083 502.4395 134.2783 513.1795 134.2783 526.3695C134.2783 552.2495 151.3683 567.8695 175.7783 567.8695H318.3583V625.4895C318.3583 644.0395 328.6183 658.1995 347.6583 658.1995ZM623.0483 659.1795C708.0083 659.1795 766.1183 610.3495 766.1183 539.5495C766.1183 489.7495 735.3483 449.2195 683.1083 438.4795V435.5495C727.5383 423.3395 751.4683 388.1795 751.4683 345.6995C751.4683 282.2295 698.7283 238.2795 624.0283 238.2795C549.3183 238.2795 496.5783 282.2295 496.5783 345.6995C496.5783 388.1795 519.5283 422.3595 564.9383 435.5495V438.4795C512.2083 449.2195 481.9383 490.2295 481.9383 540.0395C481.9383 611.3295 538.5783 659.1795 623.0483 659.1795ZM624.0283 416.0195C585.9383 416.0195 558.5983 388.6695 558.5983 351.5595C558.5983 314.4495 585.4483 289.0595 624.0283 289.0595C662.1083 289.0595 688.9683 314.4495 688.9683 351.5595C688.9683 388.6695 662.1083 416.0195 624.0283 416.0195ZM318.3583 513.1795H197.7583V511.2295C226.5583 456.0595 276.8583 370.1195 315.9183 304.1995H318.3583ZM624.5083 608.3995C578.1283 608.3995 544.4383 578.6095 544.4383 535.6395C544.4383 493.6495 578.1283 462.8895 624.5083 462.8895C671.3883 462.8895 704.0983 493.1595 704.0983 535.6395C704.0983 578.6095 670.4083 608.3995 624.5083 608.3995Z"/>
</svg>