<?xml version="1.0" encoding="UTF-8" standalone="no"?>
<svg xmlns="http://www.w3.org/2000/svg"
     width="898.92578125" height="898.92578125"
     viewBox="0 0 898.92578125 898.92578125"
     fill="currentColor">
  <path d="M153.3183 898.9295H745.6083C848.1483 898.9295 898.9283 848.1495 898.9283 747.5595V151.3695C898.9283 50.7795 848.1483 -0.0005 745.6083 -0.0005H153.3183C51.2683 -0.0005 -0.0017 50.2895 -0.0017 151.3695V747.5595C-0.0017 848.6295 51.2683 898.9295 153.3183 898.9295ZM344.2383 665.0395C324.7083 665.0395 313.9683 650.3895 313.9683 630.8595V571.7795H167.4783C142.0883 571.7795 124.5083 555.6595 124.5083 528.8095C124.5083 515.1395 127.4383 503.9095 135.2583 488.2795C168.9483 427.2495 219.7283 341.3095 261.7183 270.5095C278.3183 242.6795 296.3883 231.4495 325.6883 231.4495C354.9783 231.4495 375.4883 250.4895 375.4883 279.7895V515.1395H402.8283C419.9183 515.1395 431.1483 525.8795 431.1483 543.9495C431.1483 561.5195 419.9183 571.7795 402.8283 571.7795H375.4883V630.8595C375.4883 650.8795 364.7483 665.0395 344.2383 665.0395ZM628.4183 666.0195C541.5083 666.0195 482.9083 616.6995 482.9083 542.9695C482.9083 491.6995 514.1583 449.2195 568.3583 437.9895V435.0595C521.4883 421.3895 498.0483 386.2295 498.0483 342.2895C498.0483 276.8595 552.2483 231.4495 629.3983 231.4495C706.5383 231.4495 760.7383 276.8595 760.7383 342.2895C760.7383 386.2295 736.3283 422.3595 690.4283 435.0595V437.9895C744.6283 449.2195 775.8783 491.2095 775.8783 542.4795C775.8783 615.7195 716.3083 666.0195 628.4183 666.0195ZM629.3983 415.0395C668.4583 415.0395 696.2883 386.7195 696.2883 348.6295C696.2883 310.5495 668.4583 284.1795 629.3983 284.1795C589.8483 284.1795 562.4983 310.5495 562.4983 348.6295C562.4983 386.7195 590.3283 415.0395 629.3983 415.0395ZM313.9683 515.1395V299.8095H311.5283C270.9983 368.1595 219.7283 456.0595 189.9383 513.1795V515.1395ZM629.8783 613.2795C677.2483 613.2795 711.9183 582.5195 711.9183 538.5695C711.9183 494.6295 678.2183 463.3795 629.8783 463.3795C582.5183 463.3795 547.8483 495.1195 547.8483 538.5695C547.8483 582.5195 582.5183 613.2795 629.8783 613.2795Z"/>
</svg>