<?xml version="1.0" encoding="UTF-8" standalone="no"?>
<svg xmlns="http://www.w3.org/2000/svg"
     width="996.09375" height="996.09375"
     viewBox="0 0 996.09375 996.09375"
     fill="currentColor">
  <path d="M498.0477 996.0959C770.5077 996.0959 996.0977 770.0159 996.0977 498.0459C996.0977 225.5859 770.0177 -0.0041 497.5577 -0.0041C225.5877 -0.0041 -0.0023 225.5859 -0.0023 498.0459C-0.0023 770.0159 226.0777 996.0959 498.0477 996.0959ZM392.0877 714.3559C372.0677 714.3559 361.3277 699.7059 361.3277 680.1759V621.0959H215.3277C189.4577 621.0959 171.8777 604.9759 171.8777 578.1259C171.8777 564.4559 174.8077 553.2259 183.1077 537.5959C216.7977 476.5659 267.0877 390.6259 309.5677 319.8259C325.6877 291.9959 343.7477 280.7659 373.0477 280.7659C402.3477 280.7659 422.8477 299.8059 422.8477 329.1059V564.4559H450.1977C467.2877 564.4559 478.5177 575.1959 478.5177 593.2659C478.5177 610.8359 467.2877 621.0959 450.1977 621.0959H422.8477V680.1759C422.8477 700.1959 412.5977 714.3559 392.0877 714.3559ZM666.9877 715.3359C597.1677 715.3359 556.1477 675.7859 547.8477 647.9459C545.8977 642.0859 544.4377 635.2559 544.4377 629.8859C544.4377 612.3059 555.6677 600.0959 571.2877 600.0959C584.4777 600.0959 593.7477 605.4659 602.0477 619.6259C614.2577 642.0859 637.2077 656.7359 666.0177 656.7359C724.1177 656.7359 762.2077 597.6559 761.2277 497.5559H758.2977C745.1177 531.7359 712.3977 561.5259 657.2277 561.5259C591.3077 561.5259 532.2277 513.1859 532.2277 426.7559C532.2277 337.8859 587.8877 280.7659 672.3677 280.7659C767.0877 280.7659 821.2877 352.0459 821.2877 483.8859C821.2877 635.7459 767.0877 715.3359 666.9877 715.3359ZM676.2677 509.2759C723.1477 509.2759 755.8577 473.6359 755.8577 424.3159C755.8577 372.5559 722.6577 335.9359 676.2677 335.9359C627.4377 335.9359 596.6777 370.6059 596.6777 423.3359C596.6777 473.6359 628.9077 509.2759 676.2677 509.2759ZM361.3277 564.4559V349.1259H358.8877C318.8477 417.4759 267.0877 505.3759 237.7977 562.4959V564.4559Z"/>
</svg>