<?xml version="1.0" encoding="UTF-8" standalone="no"?>
<svg xmlns="http://www.w3.org/2000/svg"
     width="996.09375" height="996.09375"
     viewBox="0 0 996.09375 996.09375"
     fill="currentColor">
  <path d="M498.0477 996.0959C770.5077 996.0959 996.0977 770.0159 996.0977 498.0459C996.0977 225.5859 770.0177 -0.0041 497.5577 -0.0041C225.5877 -0.0041 -0.0023 225.5859 -0.0023 498.0459C-0.0023 770.0159 226.0777 996.0959 498.0477 996.0959ZM498.0477 913.0859C267.5777 913.0859 83.4977 728.5159 83.4977 498.0459C83.4977 267.5759 267.0877 83.0059 497.5577 83.0059C728.0277 83.0059 913.0877 267.5759 913.0877 498.0459C913.0877 728.5159 728.5177 913.0859 498.0477 913.0859ZM394.5277 707.5159C414.5477 707.5159 424.3177 693.8459 424.3177 674.8059V617.1859H451.1677C467.7777 617.1859 478.5177 607.4259 478.5177 590.3359C478.5177 572.7559 467.7777 562.4959 451.1677 562.4959H424.3177V333.9859C424.3177 305.6659 404.7877 287.5959 376.4677 287.5959C348.1477 287.5959 330.5677 298.3359 314.9377 325.1959C273.9277 393.5559 224.6077 477.5359 191.8977 536.6259C184.0777 551.7559 181.1477 562.4959 181.1477 575.6859C181.1477 601.5659 198.2377 617.1859 223.1477 617.1859H365.2377V674.8059C365.2377 693.3559 375.4877 707.5159 394.5277 707.5159ZM661.1377 708.4959C758.2977 708.4959 811.0377 631.3459 811.0377 484.3759C811.0377 356.4459 758.2977 287.5959 666.5077 287.5959C584.4777 287.5959 530.7577 342.7759 530.7577 428.7059C530.7577 512.6959 587.8877 559.5659 651.8577 559.5659C705.5677 559.5659 737.3077 530.7659 749.9977 497.5559H752.9277C753.9077 594.7259 716.7977 652.3459 660.1577 652.3459C632.3277 652.3459 609.8677 637.6959 598.1477 616.2059C590.3277 602.5359 581.0577 597.1659 568.3577 597.1659C553.2277 597.1659 542.4777 608.8859 542.4777 625.9759C542.4777 630.8559 543.9477 637.6959 545.8977 643.5559C554.1977 670.4059 593.7477 708.4959 661.1377 708.4959ZM670.4077 509.2759C624.0277 509.2759 592.7777 474.6059 592.7777 425.7859C592.7777 374.5159 623.0477 340.8159 670.4077 340.8159C715.3277 340.8159 747.5577 376.4659 747.5577 426.7559C747.5577 474.6059 715.8177 509.2759 670.4077 509.2759ZM365.2377 562.4959H245.1177V560.5459C273.4377 505.3759 323.7277 419.4359 362.7977 353.5159H365.2377Z"/>
</svg>