<?xml version="1.0" encoding="UTF-8" standalone="no"?>
<svg xmlns="http://www.w3.org/2000/svg"
     width="996.09375" height="996.09375"
     viewBox="0 0 996.09375 996.09375"
     fill="currentColor">
  <path d="M498.0477 996.0959C770.5077 996.0959 996.0977 770.0159 996.0977 498.0459C996.0977 225.5859 770.0177 -0.0041 497.5577 -0.0041C225.5877 -0.0041 -0.0023 225.5859 -0.0023 498.0459C-0.0023 770.0159 226.0777 996.0959 498.0477 996.0959ZM498.0477 913.0859C267.5777 913.0859 83.4977 728.5159 83.4977 498.0459C83.4977 267.5759 267.0877 83.0059 497.5577 83.0059C728.0277 83.0059 913.0877 267.5759 913.0877 498.0459C913.0877 728.5159 728.5177 913.0859 498.0477 913.0859ZM494.1377 730.4659C593.7477 730.4659 661.6177 668.4559 661.6177 574.2159C661.6177 487.7959 599.6077 427.7359 510.2577 427.7359C470.7077 427.7359 429.6877 445.3159 412.1077 469.7259H408.6877L419.9177 336.9159H614.7477C631.8377 336.9159 644.0477 324.2159 644.0477 306.6359C644.0477 289.0659 632.3277 276.8559 614.7477 276.8559H413.0877C381.3477 276.8559 360.3477 294.4359 357.9077 322.7559L344.7277 485.3559C342.7777 513.1859 358.8877 531.7359 386.2277 531.7359C404.2977 531.7359 415.0377 527.8359 434.0777 513.1859C457.5177 493.1659 476.0777 485.8359 501.4677 485.8359C553.2277 485.8359 587.8877 521.9759 587.8877 575.6859C587.8877 629.3959 546.8777 669.4359 493.1677 669.4359C453.1277 669.4359 418.9477 649.4159 402.8277 617.1859C394.0477 601.5659 382.3277 593.7459 368.1677 593.7459C348.6377 593.7459 335.4477 607.4259 335.4477 625.9759C335.4477 634.2759 337.3977 642.0859 340.3277 649.4159C359.8677 699.2159 416.5077 730.4659 494.1377 730.4659Z"/>
</svg>