<?xml version="1.0" encoding="UTF-8" standalone="no"?>
<svg xmlns="http://www.w3.org/2000/svg"
     width="996.09375" height="996.09375"
     viewBox="0 0 996.09375 996.09375"
     fill="currentColor">
  <path d="M498.0477 996.0959C770.5077 996.0959 996.0977 770.0159 996.0977 498.0459C996.0977 225.5859 770.0177 -0.0041 497.5577 -0.0041C225.5877 -0.0041 -0.0023 225.5859 -0.0023 498.0459C-0.0023 770.0159 226.0777 996.0959 498.0477 996.0959ZM494.6277 737.7959C414.5477 737.7959 355.9577 705.5659 335.9377 654.2959C332.5177 646.4859 330.5677 638.6759 330.5677 629.8859C330.5677 610.3559 344.2377 596.1959 364.7477 596.1959C379.3977 596.1959 391.5977 604.4959 400.3877 620.6059C416.9877 653.8059 452.1477 674.3159 493.6477 674.3159C548.8277 674.3159 590.8177 633.2959 590.8177 578.1259C590.8177 522.4559 555.1777 485.3559 501.9577 485.3559C476.0777 485.3559 457.0277 493.1659 433.1077 513.6759C413.0877 528.8059 401.8577 532.7159 383.2977 532.7159C354.9777 532.7159 338.3777 513.6759 340.3277 484.3759L354.0077 317.3859C356.4477 288.0859 377.9277 269.5359 411.1377 269.5359H619.1377C637.2077 269.5359 649.4177 282.2259 649.4177 300.7859C649.4177 318.8459 636.7177 332.0359 619.1377 332.0359H417.9677L406.7377 468.2659H410.1577C428.2277 443.3559 470.2177 425.2959 511.2277 425.2959C603.5177 425.2959 667.4777 487.3059 667.4777 576.1759C667.4777 673.8259 597.1677 737.7959 494.6277 737.7959Z"/>
</svg>