<?xml version="1.0" encoding="UTF-8" standalone="no"?>
<svg xmlns="http://www.w3.org/2000/svg"
     width="898.92578125" height="735.83984375"
     viewBox="0 0 898.92578125 735.83984375"
     fill="currentColor">
  <path d="M-0.0017 696.2866C-0.0017 717.7766 17.5783 735.8366 39.0583 735.8366C61.0383 735.8366 78.6183 717.7766 78.6183 696.2866V39.0666C78.6183 17.5766 61.0383 -0.0034 39.0583 -0.0034C17.5783 -0.0034 -0.0017 17.5766 -0.0017 39.0666ZM820.3083 696.2866C820.3083 717.7766 838.3783 735.8366 859.8683 735.8366C881.3483 735.8366 898.9283 717.7766 898.9283 696.2866V39.0666C898.9283 17.5766 881.3483 -0.0034 859.8683 -0.0034C838.3783 -0.0034 820.3083 17.5766 820.3083 39.0666ZM446.2883 599.6066C545.8983 599.6066 613.7683 537.5966 613.7683 443.3566C613.7683 356.9366 551.7583 296.8766 462.3983 296.8766C422.8483 296.8766 381.8383 314.4566 364.2583 338.8666H360.8383L372.0683 206.0566H566.8983C583.9883 206.0566 596.1883 193.3566 596.1883 175.7766C596.1883 158.2066 584.4683 145.9966 566.8983 145.9966H365.2383C333.4983 145.9966 312.4983 163.5766 310.0583 191.8966L296.8783 354.4966C294.9183 382.3266 311.0383 400.8766 338.3783 400.8766C356.4483 400.8766 367.1883 396.9766 386.2283 382.3266C409.6683 362.3066 428.2183 354.9766 453.6183 354.9766C505.3683 354.9766 540.0383 391.1166 540.0383 444.8266C540.0383 498.5366 499.5083 538.5766 445.3083 538.5766C405.2783 538.5766 371.0983 518.5566 354.9783 486.3266C346.1883 470.7066 334.4683 462.8866 320.3083 462.8866C300.7783 462.8866 287.5983 476.5666 287.5983 495.1166C287.5983 503.4166 289.5483 511.2266 292.4783 518.5566C312.0083 568.3566 368.6483 599.6066 446.2883 599.6066Z"/>
</svg>