<?xml version="1.0" encoding="UTF-8" standalone="no"?>
<svg xmlns="http://www.w3.org/2000/svg"
     width="898.92578125" height="898.92578125"
     viewBox="0 0 898.92578125 898.92578125"
     fill="currentColor">
  <path d="M153.3183 898.9295H745.6083C848.1483 898.9295 898.9283 848.1495 898.9283 747.5595V151.3695C898.9283 50.7795 848.1483 -0.0005 745.6083 -0.0005H153.3183C51.2683 -0.0005 -0.0017 50.2895 -0.0017 151.3695V747.5595C-0.0017 848.6295 51.2683 898.9295 153.3183 898.9295ZM154.2983 820.3095C105.4683 820.3095 78.6183 794.4295 78.6183 743.6495V155.2695C78.6183 104.4895 105.4683 78.6095 154.2983 78.6095H744.6283C792.9683 78.6095 820.3083 104.4895 820.3083 155.2695V743.6495C820.3083 794.4295 792.9683 820.3095 744.6283 820.3095ZM623.5383 659.6695C707.5183 659.6695 763.1883 579.0995 763.1883 449.2195C763.1883 319.3395 707.5183 238.7695 623.5383 238.7695C539.0583 238.7695 483.8883 319.3395 483.8883 449.2195C483.8883 579.0995 539.0583 659.6695 623.5383 659.6695ZM287.5983 659.6695C373.5383 659.6695 431.1483 606.9295 431.1483 521.4795C431.1483 445.7995 380.3683 391.1095 304.6883 391.1095C271.9683 391.1095 236.8183 407.2295 222.1683 429.1995H220.2183L229.4883 303.7095H391.1183C404.7883 303.7095 415.0383 292.4795 415.0383 276.3695C415.0383 260.7395 405.2783 249.5095 391.1183 249.5095H223.1483C197.7583 249.5095 180.6683 265.1395 179.1983 290.5295L166.9883 442.8695C165.5283 468.7495 178.7083 485.3495 201.1683 485.3495C216.3083 485.3495 225.5883 481.4495 241.2083 468.2595C261.2283 451.1695 276.8583 443.8495 298.3383 443.8495C341.3083 443.8495 370.6083 477.5395 370.6083 522.4595C370.6083 573.7295 338.3783 604.4895 291.0183 604.4895C257.8083 604.4895 229.0083 586.9095 214.8483 557.6195C208.0083 543.4595 198.2383 536.6195 187.0083 536.6195C170.4083 536.6195 159.6683 548.8295 159.6683 564.9395C159.6683 573.2395 161.1283 580.5695 163.5783 586.9095C178.2183 627.4395 226.5583 659.6695 287.5983 659.6695ZM623.5383 600.5895C576.6583 600.5895 547.8483 542.9695 547.8483 449.2195C547.8483 355.4695 576.6583 297.8495 623.5383 297.8495C669.9183 297.8495 698.7283 355.4695 698.7283 449.2195C698.7283 542.9695 670.4083 600.5895 623.5383 600.5895Z"/>
</svg>