<?xml version="1.0" encoding="UTF-8" standalone="no"?>
<svg xmlns="http://www.w3.org/2000/svg"
     width="898.92578125" height="898.92578125"
     viewBox="0 0 898.92578125 898.92578125"
     fill="currentColor">
  <path d="M153.3183 898.9295H745.6083C848.1483 898.9295 898.9283 848.1495 898.9283 747.5595V151.3695C898.9283 50.7795 848.1483 -0.0005 745.6083 -0.0005H153.3183C51.2683 -0.0005 -0.0017 50.2895 -0.0017 151.3695V747.5595C-0.0017 848.6295 51.2683 898.9295 153.3183 898.9295ZM450.6883 688.4795C346.1883 688.4795 274.8983 622.0695 274.8983 525.3895C274.8983 470.6995 297.3683 415.5295 349.1183 346.6795C374.9983 312.0095 405.7583 273.4395 438.9683 229.9795C446.2883 220.2195 456.5383 209.4695 472.6583 209.4695C497.0683 209.4695 506.8383 225.0995 506.8383 240.2295C506.8383 249.9995 502.4383 257.8095 495.1183 268.0695C470.2183 299.8095 437.4983 340.8195 411.6183 374.0195C395.9983 394.5295 389.6483 403.3195 384.2783 412.1095L389.6483 413.5695C406.2483 396.4795 441.4083 383.2995 475.0983 383.2995C562.9883 383.2995 625.9783 445.3095 625.9783 528.3195C625.9783 622.0695 554.6883 688.4795 450.6883 688.4795ZM450.6883 624.9995C510.7383 624.9995 555.1783 584.4695 555.1783 532.2295C555.1783 478.9995 510.7383 440.4295 450.6883 440.4295C391.1183 440.4295 346.1883 478.9995 346.1883 531.2495C346.1883 584.4695 391.5983 624.9995 450.6883 624.9995Z"/>
</svg>