<?xml version="1.0" encoding="UTF-8" standalone="no"?>
<svg xmlns="http://www.w3.org/2000/svg"
     width="996.09375" height="996.09375"
     viewBox="0 0 996.09375 996.09375"
     fill="currentColor">
  <path d="M498.0477 996.0959C770.5077 996.0959 996.0977 770.0159 996.0977 498.0459C996.0977 225.5859 770.0177 -0.0041 497.5577 -0.0041C225.5877 -0.0041 -0.0023 225.5859 -0.0023 498.0459C-0.0023 770.0159 226.0777 996.0959 498.0477 996.0959ZM498.0477 913.0859C267.5777 913.0859 83.4977 728.5159 83.4977 498.0459C83.4977 267.5759 267.0877 83.0059 497.5577 83.0059C728.0277 83.0059 913.0877 267.5759 913.0877 498.0459C913.0877 728.5159 728.5177 913.0859 498.0477 913.0859ZM498.5377 730.4659C599.1177 730.4659 667.9677 666.0159 667.9677 575.1959C667.9677 494.6259 607.4177 434.5659 521.9777 434.5659C489.2577 434.5659 455.0777 447.2659 438.9677 463.8659L434.0777 462.4059C438.9677 454.1059 445.3077 445.3159 460.4477 425.7859C485.3477 393.5559 517.5777 353.5159 541.5077 322.7559C548.8277 312.9859 552.7377 305.1759 552.7377 295.8959C552.7377 281.2459 543.4577 266.1159 519.5277 266.1159C504.3977 266.1159 494.6277 276.3659 486.8177 286.1359C455.0777 328.1259 425.2977 365.7259 400.3877 399.4159C349.6077 465.8159 328.1277 519.5359 328.1277 572.2659C328.1277 666.0159 396.9777 730.4659 498.5377 730.4659ZM498.5377 668.9459C440.9177 668.9459 396.9777 629.8859 396.9777 578.1259C396.9777 527.3459 440.4277 489.7459 498.0477 489.7459C557.1277 489.7459 599.6077 527.3459 599.6077 579.1059C599.6077 629.8859 557.1277 668.9459 498.5377 668.9459Z"/>
</svg>