<?xml version="1.0" encoding="UTF-8" standalone="no"?>
<svg xmlns="http://www.w3.org/2000/svg"
     width="996.09375" height="996.09375"
     viewBox="0 0 996.09375 996.09375"
     fill="currentColor">
  <path d="M498.0477 996.0959C770.5077 996.0959 996.0977 770.0159 996.0977 498.0459C996.0977 225.5859 770.0177 -0.0041 497.5577 -0.0041C225.5877 -0.0041 -0.0023 225.5859 -0.0023 498.0459C-0.0023 770.0159 226.0777 996.0959 498.0477 996.0959ZM501.9577 737.7959C442.8677 737.7959 387.6977 716.3059 354.9777 662.5959C333.9877 628.9059 321.7777 578.6159 321.7777 509.2759C321.7777 341.3059 395.5077 258.2959 514.1577 258.2959C579.5877 258.2959 634.2777 291.0159 650.3877 328.1259C653.3177 335.4459 654.7877 342.2859 654.7877 350.5859C654.7877 368.1659 641.1177 380.3759 624.5077 380.3759C606.9377 380.3759 597.1677 371.5859 581.0577 355.4659C566.4077 337.8859 546.8777 322.7559 511.7177 322.7559C442.8677 322.7559 395.9977 388.6759 395.9977 491.6959V497.0659H399.8977C416.0177 460.4459 455.0777 426.2659 522.9477 426.2659C602.5377 426.2659 674.8077 479.9759 674.8077 575.6859C674.8077 678.7059 603.5177 737.7959 501.9577 737.7959ZM498.5377 677.2459C557.6177 677.2459 595.7077 638.1859 595.7077 579.1059C595.7077 522.9459 556.1477 483.8859 499.0277 483.8859C442.3877 483.8859 401.8577 523.4359 401.8577 578.6159C401.8577 635.7459 442.3877 677.2459 498.5377 677.2459Z"/>
</svg>