<?xml version="1.0" encoding="UTF-8" standalone="no"?>
<svg xmlns="http://www.w3.org/2000/svg"
     width="898.92578125" height="898.92578125"
     viewBox="0 0 898.92578125 898.92578125"
     fill="currentColor">
  <path d="M153.3183 898.9295H745.6083C848.1483 898.9295 898.9283 848.1495 898.9283 747.5595V151.3695C898.9283 50.7795 848.1483 -0.0005 745.6083 -0.0005H153.3183C51.2683 -0.0005 -0.0017 50.2895 -0.0017 151.3695V747.5595C-0.0017 848.6295 51.2683 898.9295 153.3183 898.9295ZM453.6183 688.4795C394.5283 688.4795 339.3583 666.9895 306.6383 613.2795C285.6483 579.5895 273.4383 529.2995 273.4383 459.9595C273.4383 291.9895 347.1683 208.9795 466.3083 208.9795C531.2483 208.9795 585.9383 241.6995 602.0483 278.8095C604.9783 286.1295 606.4483 292.9695 606.4483 301.2695C606.4483 318.8495 592.7783 331.0595 576.1683 331.0595C558.5983 331.0595 548.8283 322.2695 532.7183 306.1495C518.0683 288.5695 498.5383 273.4395 463.3783 273.4395C394.5283 273.4395 347.6583 339.3595 347.6583 442.3795V447.7495H351.5583C367.6783 411.1295 407.2283 376.9495 474.6083 376.9495C554.1983 376.9495 626.4683 430.6595 626.4683 526.3695C626.4683 629.3895 555.1783 688.4795 453.6183 688.4795ZM450.1983 627.9295C509.2783 627.9295 547.3683 588.8695 547.3683 529.7895C547.3683 473.6295 507.8083 434.5695 450.6883 434.5695C394.0383 434.5695 353.5183 474.1195 353.5183 529.2995C353.5183 586.4295 394.5283 627.9295 450.1983 627.9295Z"/>
</svg>