<?xml version="1.0" encoding="UTF-8" standalone="no"?>
<svg xmlns="http://www.w3.org/2000/svg"
     width="996.09375" height="996.09375"
     viewBox="0 0 996.09375 996.09375"
     fill="currentColor">
  <path d="M498.0477 996.0959C770.5077 996.0959 996.0977 770.0159 996.0977 498.0459C996.0977 225.5859 770.0177 -0.0041 497.5577 -0.0041C225.5877 -0.0041 -0.0023 225.5859 -0.0023 498.0459C-0.0023 770.0159 226.0777 996.0959 498.0477 996.0959ZM498.0477 913.0859C267.5777 913.0859 83.4977 728.5159 83.4977 498.0459C83.4977 267.5759 267.0877 83.0059 497.5577 83.0059C728.0277 83.0059 913.0877 267.5759 913.0877 498.0459C913.0877 728.5159 728.5177 913.0859 498.0477 913.0859ZM432.1277 729.9759C448.7277 729.9759 459.9577 722.1659 470.2177 703.1259L651.8577 361.8159C661.6177 344.2359 663.5777 333.9859 663.5777 323.7259C663.5777 296.8759 642.5777 276.8559 610.8377 276.8559H372.0677C354.9777 276.8559 343.2577 289.0659 343.2577 306.6359C343.2577 324.2159 355.4677 336.9159 372.0677 336.9159H579.5877V340.8159L399.8977 669.9259C395.0177 678.2259 393.0677 685.0559 393.0677 694.8259C393.0677 715.3359 410.1577 729.9759 432.1277 729.9759Z"/>
</svg>