<?xml version="1.0" encoding="UTF-8" standalone="no"?>
<svg xmlns="http://www.w3.org/2000/svg"
     width="996.09375" height="996.09375"
     viewBox="0 0 996.09375 996.09375"
     fill="currentColor">
  <path d="M498.0477 996.0959C770.5077 996.0959 996.0977 770.0159 996.0977 498.0459C996.0977 225.5859 770.0177 -0.0041 497.5577 -0.0041C225.5877 -0.0041 -0.0023 225.5859 -0.0023 498.0459C-0.0023 770.0159 226.0777 996.0959 498.0477 996.0959ZM430.1777 737.3059C407.7177 737.3059 390.1377 722.1659 390.1377 700.6859C390.1377 690.4259 392.0877 683.5959 396.9777 674.8059L582.0277 335.9359V332.0359H368.1677C351.0777 332.0359 338.3777 318.8459 338.3777 300.7859C338.3777 282.2259 350.5877 269.5359 368.1677 269.5359H614.7477C647.4577 269.5359 669.4377 290.5259 669.4377 318.3559C669.4377 329.1059 667.4777 339.3559 657.2277 357.9059L469.7277 709.4759C459.4777 729.0059 447.7577 737.3059 430.1777 737.3059Z"/>
</svg>