<?xml version="1.0" encoding="UTF-8" standalone="no"?>
<svg xmlns="http://www.w3.org/2000/svg"
     width="898.92578125" height="735.83984375"
     viewBox="0 0 898.92578125 735.83984375"
     fill="currentColor">
  <path d="M-0.0017 696.2866C-0.0017 717.7766 17.5783 735.8366 39.0583 735.8366C61.0383 735.8366 78.6183 717.7766 78.6183 696.2866V39.0666C78.6183 17.5766 61.0383 -0.0034 39.0583 -0.0034C17.5783 -0.0034 -0.0017 17.5766 -0.0017 39.0666ZM820.3083 696.2866C820.3083 717.7766 838.3783 735.8366 859.8683 735.8366C881.3483 735.8366 898.9283 717.7766 898.9283 696.2866V39.0666C898.9283 17.5766 881.3483 -0.0034 859.8683 -0.0034C838.3783 -0.0034 820.3083 17.5766 820.3083 39.0666ZM384.2783 599.1166C400.8783 599.1166 412.5983 591.3066 422.3683 572.2666L604.0083 230.9566C613.7683 213.3766 615.7183 203.1266 615.7183 192.8666C615.7183 166.0166 594.7283 145.9966 562.9883 145.9966H324.2183C307.1283 145.9966 295.4083 158.2066 295.4083 175.7766C295.4083 193.3566 307.6183 206.0566 324.2183 206.0566H531.7383V209.9566L352.0483 539.0666C347.1683 547.3666 345.2183 554.1966 345.2183 563.9666C345.2183 584.4766 362.7883 599.1166 384.2783 599.1166Z"/>
</svg>