<?xml version="1.0" encoding="UTF-8" standalone="no"?>
<svg xmlns="http://www.w3.org/2000/svg"
     width="898.92578125" height="898.92578125"
     viewBox="0 0 898.92578125 898.92578125"
     fill="currentColor">
  <path d="M153.3183 898.9295H745.6083C848.1483 898.9295 898.9283 848.1495 898.9283 747.5595V151.3695C898.9283 50.7795 848.1483 -0.0005 745.6083 -0.0005H153.3183C51.2683 -0.0005 -0.0017 50.2895 -0.0017 151.3695V747.5595C-0.0017 848.6295 51.2683 898.9295 153.3183 898.9295ZM154.2983 820.3095C105.4683 820.3095 78.6183 794.4295 78.6183 743.6495V155.2695C78.6183 104.4895 105.4683 78.6095 154.2983 78.6095H744.6283C792.9683 78.6095 820.3083 104.4895 820.3083 155.2695V743.6495C820.3083 794.4295 792.9683 820.3095 744.6283 820.3095ZM384.2783 680.6595C400.8783 680.6595 412.5983 672.8495 422.3683 653.8095L604.0083 312.4995C613.7683 294.9195 615.7183 284.6695 615.7183 274.4095C615.7183 247.5595 594.7283 227.5395 562.9883 227.5395H324.2183C307.1283 227.5395 295.4083 239.7495 295.4083 257.3195C295.4083 274.8995 307.6183 287.5995 324.2183 287.5995H531.7383V291.4995L352.0483 620.6095C347.1683 628.9095 345.2183 635.7395 345.2183 645.5095C345.2183 666.0195 362.7883 680.6595 384.2783 680.6595Z"/>
</svg>