<?xml version="1.0" encoding="UTF-8" standalone="no"?>
<svg xmlns="http://www.w3.org/2000/svg"
     width="996.09375" height="996.09375"
     viewBox="0 0 996.09375 996.09375"
     fill="currentColor">
  <path d="M498.0477 996.0959C770.5077 996.0959 996.0977 770.0159 996.0977 498.0459C996.0977 225.5859 770.0177 -0.0041 497.5577 -0.0041C225.5877 -0.0041 -0.0023 225.5859 -0.0023 498.0459C-0.0023 770.0159 226.0777 996.0959 498.0477 996.0959ZM497.0677 737.7959C390.1377 737.7959 318.3577 683.5959 318.3577 602.0459C318.3577 545.8959 359.3777 499.0259 419.9177 486.8159V483.8859C368.6477 468.2659 338.3777 429.1959 338.3777 380.8559C338.3777 308.1059 403.8077 258.2959 498.0477 258.2959C591.7977 258.2959 657.7177 308.1059 657.7177 380.8559C657.7177 429.1959 625.9777 469.2359 575.6877 483.8859V486.8159C636.2277 499.0259 677.2477 545.4059 677.2477 601.5659C677.2477 682.6159 604.0077 737.7959 497.0677 737.7959ZM498.0477 460.9359C547.8477 460.9359 583.4977 430.1759 583.4977 386.7159C583.4977 344.7259 548.3377 314.4559 498.0477 314.4559C447.7577 314.4559 412.1077 344.7259 412.1077 386.7159C412.1077 430.1759 447.7577 460.9359 498.0477 460.9359ZM498.5377 682.1259C557.1277 682.1259 600.5877 646.9759 600.5877 597.6559C600.5877 549.3159 558.5977 514.1559 498.5377 514.1559C439.4577 514.1559 395.5077 549.8059 395.5077 597.6559C395.5077 646.9759 438.9677 682.1259 498.5377 682.1259Z"/>
</svg>