<?xml version="1.0" encoding="UTF-8" standalone="no"?>
<svg xmlns="http://www.w3.org/2000/svg"
     width="898.92578125" height="898.92578125"
     viewBox="0 0 898.92578125 898.92578125"
     fill="currentColor">
  <path d="M153.3183 898.9295H745.6083C848.1483 898.9295 898.9283 848.1495 898.9283 747.5595V151.3695C898.9283 50.7795 848.1483 -0.0005 745.6083 -0.0005H153.3183C51.2683 -0.0005 -0.0017 50.2895 -0.0017 151.3695V747.5595C-0.0017 848.6295 51.2683 898.9295 153.3183 898.9295ZM154.2983 820.3095C105.4683 820.3095 78.6183 794.4295 78.6183 743.6495V155.2695C78.6183 104.4895 105.4683 78.6095 154.2983 78.6095H744.6283C792.9683 78.6095 820.3083 104.4895 820.3083 155.2695V743.6495C820.3083 794.4295 792.9683 820.3095 744.6283 820.3095ZM448.7283 681.1495C552.7383 681.1495 623.0483 627.4395 623.0483 548.8295C623.0483 494.6295 583.4983 449.7095 525.3883 437.9895V435.0595C573.7283 420.8995 604.4883 381.8395 604.4883 334.4695C604.4883 264.6495 540.5283 216.3095 449.7083 216.3095C358.8883 216.3095 294.9183 264.6495 294.9183 334.4695C294.9183 381.8395 324.7083 419.9195 374.0283 435.0595V437.9895C315.4283 449.7095 275.8783 495.1195 275.8783 549.3195C275.8783 628.4195 345.2183 681.1495 448.7283 681.1495ZM449.7083 413.0895C400.8783 413.0895 366.6983 382.8095 366.6983 340.8195C366.6983 299.8095 400.8783 270.0195 449.7083 270.0195C498.5383 270.0195 532.7183 299.8095 532.7183 340.8195C532.7183 382.8095 498.0483 413.0895 449.7083 413.0895ZM450.1983 627.4395C392.5783 627.4395 350.0983 593.2595 350.0983 545.4095C350.0983 499.0195 393.0683 464.3595 450.1983 464.3595C508.2983 464.3595 549.3183 498.5395 549.3183 545.4095C549.3183 593.2595 507.3283 627.4395 450.1983 627.4395Z"/>
</svg>