<?xml version="1.0" encoding="UTF-8" standalone="no"?>
<svg xmlns="http://www.w3.org/2000/svg"
     width="898.92578125" height="898.92578125"
     viewBox="0 0 898.92578125 898.92578125"
     fill="currentColor">
  <path d="M153.3183 898.9295H745.6083C848.1483 898.9295 898.9283 848.1495 898.9283 747.5595V151.3695C898.9283 50.7795 848.1483 -0.0005 745.6083 -0.0005H153.3183C51.2683 -0.0005 -0.0017 50.2895 -0.0017 151.3695V747.5595C-0.0017 848.6295 51.2683 898.9295 153.3183 898.9295ZM274.8983 369.1395C274.8983 274.8995 346.6783 208.9795 451.1683 208.9795C555.6683 208.9795 627.4383 275.3895 627.4383 373.0495C627.4383 427.7295 605.4683 478.9995 558.5983 541.0195C531.7383 576.6595 494.1383 625.4895 467.7783 658.1995C453.1283 676.2695 445.7983 687.9895 426.2683 687.9895C405.7583 687.9895 392.5783 673.3395 392.5783 658.1995C392.5783 648.4395 396.4883 639.1595 404.7883 629.3895C434.5683 592.7695 467.7783 552.7295 495.6083 517.0895C506.8383 503.9095 514.6483 493.1595 518.5583 485.8395H511.7183C495.1183 503.4195 459.4683 515.1395 425.7783 515.1395C338.8683 515.1395 274.8983 453.6095 274.8983 369.1395ZM346.1883 366.2095C346.1883 419.4295 391.1183 458.4995 451.1683 458.4995C510.7383 458.4995 555.6683 419.9195 555.6683 366.2095C555.6683 313.4795 510.2583 273.4395 450.6883 273.4395C391.1183 273.4395 346.1883 312.9895 346.1883 366.2095Z"/>
</svg>