<?xml version="1.0" encoding="UTF-8" standalone="no"?>
<svg xmlns="http://www.w3.org/2000/svg"
     width="996.09375" height="996.09375"
     viewBox="0 0 996.09375 996.09375"
     fill="currentColor">
  <path d="M498.0477 996.0959C770.5077 996.0959 996.0977 770.0159 996.0977 498.0459C996.0977 225.5859 770.0177 -0.0041 497.5577 -0.0041C225.5877 -0.0041 -0.0023 225.5859 -0.0023 498.0459C-0.0023 770.0159 226.0777 996.0959 498.0477 996.0959ZM323.2377 418.4559C323.2377 324.2159 395.0177 258.2959 499.5077 258.2959C604.0077 258.2959 675.7777 324.7059 675.7777 422.3659C675.7777 477.0459 653.8077 528.3159 606.9377 590.3359C580.0777 625.9759 542.4777 674.8059 516.1177 707.5159C501.4677 725.5859 493.6477 737.3059 474.6077 737.3059C454.0977 737.3059 440.9177 722.6559 440.9177 707.5159C440.9177 697.7559 444.8277 688.4759 453.1277 678.7059C482.9077 642.0859 516.1177 602.0459 543.9477 566.4059C555.1777 553.2259 562.4977 542.4759 566.8977 535.1559H560.0577C542.9677 552.7359 507.8077 564.4559 474.1177 564.4559C387.2077 564.4559 323.2377 502.9259 323.2377 418.4559ZM394.5277 415.5259C394.5277 468.7459 439.4577 507.8159 499.5077 507.8159C559.0777 507.8159 604.0077 469.2359 604.0077 415.5259C604.0077 362.7959 558.5977 322.7559 499.0277 322.7559C439.4577 322.7559 394.5277 362.3059 394.5277 415.5259Z"/>
</svg>