<?xml version="1.0" encoding="UTF-8" standalone="no"?>
<svg xmlns="http://www.w3.org/2000/svg"
     width="898.92578125" height="898.92578125"
     viewBox="0 0 898.92578125 898.92578125"
     fill="currentColor">
  <path d="M153.3183 898.9295H745.6083C848.1483 898.9295 898.9283 848.1495 898.9283 747.5595V151.3695C898.9283 50.7795 848.1483 -0.0005 745.6083 -0.0005H153.3183C51.2683 -0.0005 -0.0017 50.2895 -0.0017 151.3695V747.5595C-0.0017 848.6295 51.2683 898.9295 153.3183 898.9295ZM154.2983 820.3095C105.4683 820.3095 78.6183 794.4295 78.6183 743.6495V155.2695C78.6183 104.4895 105.4683 78.6095 154.2983 78.6095H744.6283C792.9683 78.6095 820.3083 104.4895 820.3083 155.2695V743.6495C820.3083 794.4295 792.9683 820.3095 744.6283 820.3095ZM280.2783 371.5795C280.2783 453.6095 342.2883 513.1795 426.7583 513.1795C459.4683 513.1795 494.1383 501.4695 510.2583 484.3795H516.5983C512.6983 491.6995 505.3683 501.9495 494.6283 515.1395C467.7783 549.3195 435.5483 588.3795 406.2483 624.0195C398.4383 633.2995 394.5283 642.5795 394.5283 651.8595C394.5283 666.4995 407.2283 680.6595 426.7583 680.6595C445.7983 680.6595 452.6383 669.4295 466.7983 651.8595C492.6783 620.1195 529.2983 572.7495 555.1783 538.0895C600.5883 478.0295 622.0683 428.2195 622.0683 375.4895C622.0683 280.7595 552.2483 216.3095 451.1683 216.3095C350.0983 216.3095 280.2783 280.2695 280.2783 371.5795ZM349.1183 368.6495C349.1183 316.8895 392.5783 278.3195 450.6883 278.3195C508.7883 278.3195 552.7383 317.3795 552.7383 368.6495C552.7383 420.8995 509.2783 458.4995 451.1683 458.4995C392.5783 458.4995 349.1183 420.4095 349.1183 368.6495Z"/>
</svg>