<?xml version="1.0" encoding="UTF-8" standalone="no"?>
<svg xmlns="http://www.w3.org/2000/svg"
     width="996.09375" height="996.09375"
     viewBox="0 0 996.09375 996.09375"
     fill="currentColor">
  <path d="M498.0477 996.0959C770.5077 996.0959 996.0977 770.0159 996.0977 498.0459C996.0977 225.5859 770.0177 -0.0041 497.5577 -0.0041C225.5877 -0.0041 -0.0023 225.5859 -0.0023 498.0459C-0.0023 770.0159 226.0777 996.0959 498.0477 996.0959ZM498.0477 913.0859C267.5777 913.0859 83.4977 728.5159 83.4977 498.0459C83.4977 267.5759 267.0877 83.0059 497.5577 83.0059C728.0277 83.0059 913.0877 267.5759 913.0877 498.0459C913.0877 728.5159 728.5177 913.0859 498.0477 913.0859ZM485.3477 730.4659C603.5177 730.4659 667.4777 645.9959 667.4777 482.4259C667.4777 341.7959 603.5177 265.6259 494.1377 265.6259C393.0677 265.6259 328.1277 326.6559 328.1277 421.3859C328.1277 513.1859 397.9477 565.4259 474.1177 565.4259C539.0577 565.4259 577.1477 533.2059 592.7777 497.0659H596.6777C597.6577 604.4959 552.2477 668.4559 484.3777 668.4559C451.1677 668.4559 428.2277 654.2959 408.2077 626.9559C399.8977 615.7259 390.1377 607.4259 374.9977 607.4259C355.9577 607.4259 342.2877 620.1159 342.2877 639.1559C342.2877 644.5359 343.7477 649.9059 345.7077 655.7659C356.9377 689.4559 402.8277 730.4659 485.3477 730.4659ZM497.0677 510.2559C441.8977 510.2559 403.3177 471.6759 403.3177 417.9659C403.3177 361.3259 440.9177 323.7259 497.0677 323.7259C550.7777 323.7259 590.3277 363.7659 590.3277 418.9459C590.3277 471.6759 551.7577 510.2559 497.0677 510.2559Z"/>
</svg>