<?xml version="1.0" encoding="UTF-8" standalone="no"?>
<svg xmlns="http://www.w3.org/2000/svg"
     width="996.09375" height="996.09375"
     viewBox="0 0 996.09375 996.09375"
     fill="currentColor">
  <path d="M498.0477 996.0959C770.5077 996.0959 996.0977 770.0159 996.0977 498.0459C996.0977 225.5859 770.0177 -0.0041 497.5577 -0.0041C225.5877 -0.0041 -0.0023 225.5859 -0.0023 498.0459C-0.0023 770.0159 226.0777 996.0959 498.0477 996.0959ZM485.3477 737.7959C400.3877 737.7959 353.0277 695.7959 341.3077 660.6459C339.3577 654.7859 337.8877 648.9259 337.8877 643.5559C337.8877 624.0259 352.0477 610.8359 371.5777 610.8359C387.2077 610.8359 397.4577 619.1359 406.2477 630.8559C426.7577 659.1759 450.1977 673.3359 484.3777 673.3359C554.1977 673.3359 601.0777 607.4259 600.0977 497.0659H596.1877C580.0777 534.1759 540.5277 567.3859 473.6377 567.3859C395.0177 567.3859 323.2377 513.6759 323.2377 418.9459C323.2377 321.2859 390.1377 258.2959 494.6277 258.2959C607.4177 258.2959 673.3377 336.9159 673.3377 481.9359C673.3377 650.8759 607.4177 737.7959 485.3477 737.7959ZM497.5577 510.2559C553.7077 510.2559 593.7477 470.7059 593.7477 416.5059C593.7477 359.8659 552.7377 318.3559 497.5577 318.3559C439.9377 318.3559 400.8777 356.9359 400.8777 415.5259C400.8777 470.7059 440.9177 510.2559 497.5577 510.2559Z"/>
</svg>