<?xml version="1.0" encoding="UTF-8" standalone="no"?>
<svg xmlns="http://www.w3.org/2000/svg"
     width="898.92578125" height="735.83984375"
     viewBox="0 0 898.92578125 735.83984375"
     fill="currentColor">
  <path d="M-0.0017 696.2866C-0.0017 717.7766 17.5783 735.8366 39.0583 735.8366C61.0383 735.8366 78.6183 717.7766 78.6183 696.2866V39.0666C78.6183 17.5766 61.0383 -0.0034 39.0583 -0.0034C17.5783 -0.0034 -0.0017 17.5766 -0.0017 39.0666ZM820.3083 696.2866C820.3083 717.7766 838.3783 735.8366 859.8683 735.8366C881.3483 735.8366 898.9283 717.7766 898.9283 696.2866V39.0666C898.9283 17.5766 881.3483 -0.0034 859.8683 -0.0034C838.3783 -0.0034 820.3083 17.5766 820.3083 39.0666ZM437.4983 599.6066C555.6683 599.6066 619.6283 515.1366 619.6283 351.5666C619.6283 210.9366 556.1483 134.7666 446.2883 134.7666C345.2183 134.7666 280.2783 195.7966 280.2783 290.5266C280.2783 382.3266 350.0983 434.5666 426.2683 434.5666C491.2083 434.5666 529.2983 402.3466 544.9183 366.2066H548.8283C549.8083 473.6366 504.3983 537.5966 436.5283 537.5966C403.3183 537.5966 380.3683 523.4366 360.3483 496.0966C352.0483 484.8666 342.2883 476.5666 327.1483 476.5666C308.1083 476.5666 294.4383 489.2566 294.4383 508.2966C294.4383 513.6766 295.8983 519.0466 297.8483 524.9066C309.0783 558.5966 355.4683 599.6066 437.4983 599.6066ZM449.2183 379.3966C394.0383 379.3966 355.4683 340.8166 355.4683 287.1066C355.4683 230.4666 393.0683 192.8666 449.2183 192.8666C502.9283 192.8666 542.9683 232.9066 542.9683 288.0866C542.9683 340.8166 503.9083 379.3966 449.2183 379.3966Z"/>
</svg>