<?xml version="1.0" encoding="UTF-8" standalone="no"?>
<svg xmlns="http://www.w3.org/2000/svg"
     width="898.92578125" height="898.92578125"
     viewBox="0 0 898.92578125 898.92578125"
     fill="currentColor">
  <path d="M153.3183 898.9295H745.6083C848.1483 898.9295 898.9283 848.1495 898.9283 747.5595V151.3695C898.9283 50.7795 848.1483 -0.0005 745.6083 -0.0005H153.3183C51.2683 -0.0005 -0.0017 50.2895 -0.0017 151.3695V747.5595C-0.0017 848.6295 51.2683 898.9295 153.3183 898.9295ZM437.0083 688.4795C352.5383 688.4795 304.6883 646.4795 292.9683 611.3295C291.0183 605.4695 289.5483 599.6095 289.5483 594.2395C289.5483 574.7095 303.7083 561.5195 323.2383 561.5195C338.8683 561.5195 349.1183 569.8195 357.9083 581.5395C378.4183 609.8595 401.8583 624.0195 436.0383 624.0195C505.8583 624.0195 552.7383 558.1095 551.7583 447.7495H547.8483C531.7383 484.8595 492.1883 518.0695 425.2883 518.0695C346.6783 518.0695 274.8983 464.3595 274.8983 369.6295C274.8983 271.9695 341.7983 208.9795 446.2883 208.9795C559.5683 208.9795 624.9983 287.5995 624.9983 432.6195C624.9983 601.5595 559.0783 688.4795 437.0083 688.4795ZM449.2183 460.9395C505.3683 460.9395 545.8983 421.3895 545.8983 367.1895C545.8983 310.5495 504.3983 269.0395 449.2183 269.0395C391.5983 269.0395 352.5383 307.6195 352.5383 366.2095C352.5383 421.3895 392.5783 460.9395 449.2183 460.9395Z"/>
</svg>