<?xml version="1.0" encoding="UTF-8" standalone="no"?>
<svg xmlns="http://www.w3.org/2000/svg"
     width="898.92578125" height="898.92578125"
     viewBox="0 0 898.92578125 898.92578125"
     fill="currentColor">
  <path d="M153.3183 898.9295H745.6083C848.1483 898.9295 898.9283 848.1495 898.9283 747.5595V151.3695C898.9283 50.7795 848.1483 -0.0005 745.6083 -0.0005H153.3183C51.2683 -0.0005 -0.0017 50.2895 -0.0017 151.3695V747.5595C-0.0017 848.6295 51.2683 898.9295 153.3183 898.9295ZM154.2983 820.3095C105.4683 820.3095 78.6183 794.4295 78.6183 743.6495V155.2695C78.6183 104.4895 105.4683 78.6095 154.2983 78.6095H744.6283C792.9683 78.6095 820.3083 104.4895 820.3083 155.2695V743.6495C820.3083 794.4295 792.9683 820.3095 744.6283 820.3095ZM437.4983 681.1495C555.6683 681.1495 619.6283 596.6795 619.6283 433.1095C619.6283 292.4795 556.1483 216.3095 446.2883 216.3095C345.2183 216.3095 280.2783 277.3395 280.2783 372.0695C280.2783 463.8695 350.0983 516.1095 426.2683 516.1095C491.2083 516.1095 529.2983 483.8895 544.9183 447.7495H548.8283C549.8083 555.1795 504.3983 619.1395 436.5283 619.1395C403.3183 619.1395 380.3683 604.9795 360.3483 577.6395C352.0483 566.4095 342.2883 558.1095 327.1483 558.1095C308.1083 558.1095 294.4383 570.7995 294.4383 589.8395C294.4383 595.2195 295.8983 600.5895 297.8483 606.4495C309.0783 640.1395 355.4683 681.1495 437.4983 681.1495ZM449.2183 460.9395C394.0383 460.9395 355.4683 422.3595 355.4683 368.6495C355.4683 312.0095 393.0683 274.4095 449.2183 274.4095C502.9283 274.4095 542.9683 314.4495 542.9683 369.6295C542.9683 422.3595 503.9083 460.9395 449.2183 460.9395Z"/>
</svg>