<?xml version="1.0" encoding="UTF-8" standalone="no"?>
<svg xmlns="http://www.w3.org/2000/svg"
     width="898.92578125" height="898.92578125"
     viewBox="0 0 898.92578125 898.92578125"
     fill="currentColor">
  <path d="M153.3183 898.9295H745.6083C848.1483 898.9295 898.9283 848.1495 898.9283 747.5595V151.3695C898.9283 50.7795 848.1483 -0.0005 745.6083 -0.0005H153.3183C51.2683 -0.0005 -0.0017 50.2895 -0.0017 151.3695V747.5595C-0.0017 848.6295 51.2683 898.9295 153.3183 898.9295ZM154.2983 820.3095C105.4683 820.3095 78.6183 794.4295 78.6183 743.6495V155.2695C78.6183 104.4895 105.4683 78.6095 154.2983 78.6095H744.6283C792.9683 78.6095 820.3083 104.4895 820.3083 155.2695V743.6495C820.3083 794.4295 792.9683 820.3095 744.6283 820.3095ZM289.0583 678.7095C306.6383 678.7095 319.3383 670.4095 326.6583 647.4595L362.3083 543.4595H537.1083L572.7583 647.4595C580.0783 669.9195 592.7783 678.7095 610.3483 678.7095C631.8383 678.7095 646.4883 664.5495 646.4883 645.0195C646.4883 637.2095 644.5283 630.3695 641.1183 619.6295L504.3983 250.9795C494.6283 225.5895 476.0783 212.3995 449.2183 212.3995C422.8483 212.3995 404.7883 225.5895 395.0183 250.9795L258.2983 619.6295C254.8783 630.3695 252.9283 637.2095 252.9283 644.5295C252.9283 665.0395 267.5783 678.7095 289.0583 678.7095ZM381.8383 484.8595L447.2683 295.8995H452.1483L517.5783 484.8595Z"/>
</svg>