<?xml version="1.0" encoding="UTF-8" standalone="no"?>
<svg xmlns="http://www.w3.org/2000/svg"
     width="996.09375" height="996.09375"
     viewBox="0 0 996.09375 996.09375"
     fill="currentColor">
  <path d="M498.0477 996.0959C770.5077 996.0959 996.0977 770.0159 996.0977 498.0459C996.0977 225.5859 770.0177 -0.0041 497.5577 -0.0041C225.5877 -0.0041 -0.0023 225.5859 -0.0023 498.0459C-0.0023 770.0159 226.0777 996.0959 498.0477 996.0959ZM498.0477 913.0859C267.5777 913.0859 83.4977 728.5159 83.4977 498.0459C83.4977 267.5759 267.0877 83.0059 497.5577 83.0059C728.0277 83.0059 913.0877 267.5759 913.0877 498.0459C913.0877 728.5159 728.5177 913.0859 498.0477 913.0859ZM715.3277 648.9259C765.6277 648.9259 801.2677 619.1359 801.2677 562.9859C801.2677 523.4359 785.6477 500.4859 744.6277 479.4959L727.5377 470.7059C706.0577 459.9559 691.8977 449.2159 691.8977 425.7859C691.8977 409.6659 698.7277 394.5359 715.3277 394.5359C731.4477 394.5359 740.2377 409.1759 743.1677 424.8059C745.6077 437.0159 756.3477 444.3359 770.9977 444.3359C786.1377 444.3359 795.4077 434.0859 795.4077 418.9459C795.4077 413.0859 794.4377 406.7359 791.5077 400.3859C782.2277 371.0959 754.3977 346.6759 715.3277 346.6759C666.0177 346.6759 632.8077 378.9059 632.8077 431.1559C632.8077 472.6559 653.8077 496.5859 688.9677 514.6459L706.5477 523.4359C727.0477 533.6959 742.1877 543.9459 742.1877 567.8759C742.1877 586.9159 732.9077 601.0759 716.3077 601.0759C699.7077 601.0759 690.4277 588.3759 687.0077 572.2659C682.1277 555.6659 670.4077 550.7859 658.6877 550.7859C645.5077 550.7859 633.2977 561.5259 633.2977 577.6359C633.2977 582.5159 633.7877 588.8659 635.7377 593.7459C645.9977 628.9059 672.8477 648.9259 715.3277 648.9259ZM221.6777 646.9759C240.2377 646.9759 248.0477 637.2059 251.4677 618.6559L258.7877 581.5459H321.2877L329.0977 619.6259C332.5177 637.6959 341.7977 646.9759 359.8677 646.9759C376.9577 646.9759 388.1877 634.7659 388.1877 617.6759C388.1877 612.7959 386.7177 603.5159 385.2577 598.1459L337.3977 386.7159C331.5477 358.8859 313.9677 349.1259 289.5477 349.1259C265.6277 349.1259 249.0277 360.8359 243.6477 386.7159L195.7977 598.1459C193.8477 607.4259 193.3577 612.7959 193.3577 617.6759C193.3577 635.2559 204.5877 646.9759 221.6777 646.9759ZM456.0577 642.5759H527.8277C574.7077 642.5759 600.5877 607.4259 600.5877 560.0559C600.5877 525.8759 579.5877 491.6959 548.8277 490.7259V488.2859C576.1677 483.8859 594.2377 453.6159 594.2377 425.2959C594.2377 388.6759 574.7077 353.5159 525.3877 353.5159H456.0577C435.5477 353.5159 425.7777 365.2359 425.7777 385.2559V610.3559C425.7777 629.8859 436.5277 642.5759 456.0577 642.5759ZM485.3477 474.1259V397.4559H507.3277C528.8077 397.4559 536.6177 413.5759 536.6177 435.0559C536.6177 457.5159 526.8577 474.1259 504.3977 474.1259ZM266.1177 537.5959L288.5777 418.4559H290.0377L313.4777 537.5959ZM485.3477 598.6359V512.6959H506.3477C529.7877 512.6959 540.0377 531.2459 540.0377 555.1759C540.0377 578.6159 530.2777 598.6359 506.8377 598.6359Z"/>
</svg>