<?xml version="1.0" encoding="UTF-8" standalone="no"?>
<svg xmlns="http://www.w3.org/2000/svg"
     width="1152.7339150087544" height="1173.33984375"
     viewBox="0 0 1152.7339150087544 1173.33984375"
     fill="currentColor">
  <path d="M110.8383 1173.3448H413.5783C480.9583 1173.3448 524.4183 1130.3748 524.4183 1064.4548V108.8848C524.4183 42.9648 480.9583 0.0048 413.5783 0.0048H110.8383C43.4583 0.0048 -0.0017 42.9648 -0.0017 108.8848V1064.4548C-0.0017 1130.3748 43.4583 1173.3448 110.8383 1173.3448ZM390.6283 380.8548C375.9783 380.8548 365.2383 369.1448 365.2383 354.9848V156.2548C365.2383 142.0848 375.9783 130.3748 390.6283 130.3748C404.7883 130.3748 416.0183 142.0848 416.0183 156.2548V354.9848C416.0183 369.1448 404.7883 380.8548 390.6283 380.8548ZM287.1083 380.8548C272.4583 380.8548 260.7383 369.1448 260.7383 354.9848V156.2548C260.7383 142.0848 272.4583 130.3748 287.1083 130.3748C300.7783 130.3748 312.0083 142.0848 312.0083 156.2548V354.9848C312.0083 369.1448 300.7783 380.8548 287.1083 380.8548ZM739.7483 375.9748C750.4883 375.9748 758.2983 366.2148 757.3283 355.4648L754.8783 314.9448L788.5783 337.8948C796.8783 343.2648 809.5683 341.3048 815.4283 332.0348C821.7783 322.7548 817.3783 310.0548 806.6383 305.6648L770.0183 287.5948L807.6183 269.0448C816.8983 264.1648 821.2883 252.4448 815.9183 242.6748C811.0383 233.8848 797.3683 230.9548 788.0883 237.3048L754.8783 260.2548L757.8083 219.7248C758.7883 208.9848 750.9783 199.2148 739.7483 199.2148C728.0283 199.2148 720.2183 208.0048 721.1883 219.2348L723.6283 260.7448L689.4483 237.3048C680.1783 231.4448 668.4583 232.9148 663.0883 242.6748C657.2283 252.4448 661.1283 264.1648 670.8983 269.0448L707.5183 287.5948L671.3883 305.1748C661.1283 309.5748 656.7383 321.7748 662.5983 332.0348C667.4783 341.3048 680.1783 343.2648 689.4483 337.8948L723.6283 314.9448L721.6783 355.4648C721.1883 366.6948 728.5183 375.9748 739.7483 375.9748ZM717.2883 527.8348C847.6583 527.8348 915.0383 421.8748 1028.8083 421.8748C1055.1783 421.8748 1077.6383 427.2448 1105.4683 442.8748C1123.0483 452.6348 1138.6683 445.8048 1146.4883 434.5748C1156.2483 420.4148 1155.2783 398.9248 1133.7883 386.7148C1101.5583 367.6748 1066.4083 358.3948 1028.8083 358.3948C896.4883 358.3948 829.0983 464.8448 717.2883 464.8448C690.9183 464.8448 668.4583 458.9848 640.1383 442.8748C623.5383 433.5948 607.4183 439.9448 599.1183 452.6348C590.3283 466.3048 591.3083 487.7948 611.8183 499.5148C644.0383 519.5348 679.6883 527.8348 717.2883 527.8348ZM390.6283 709.9648C375.9783 709.9648 365.2383 698.7348 365.2383 684.0848V485.3548C365.2383 471.1948 375.9783 459.9648 390.6283 459.9648C404.7883 459.9648 416.0183 471.1948 416.0183 485.3548V684.0848C416.0183 698.7348 404.7883 709.9648 390.6283 709.9648ZM287.1083 709.9648C272.4583 709.9648 260.7383 698.7348 260.7383 684.0848V485.3548C260.7383 471.1948 272.4583 459.9648 287.1083 459.9648C300.7783 459.9648 312.0083 471.1948 312.0083 485.3548V684.0848C312.0083 698.7348 300.7783 709.9648 287.1083 709.9648ZM717.7783 671.3848C847.6583 671.3848 915.5283 565.4248 1028.8083 565.4248C1055.6683 565.4248 1078.1283 570.8048 1105.9583 586.4248C1123.0483 596.1948 1139.1583 589.3548 1146.9683 578.1248C1156.2483 563.9648 1155.7583 542.4848 1134.7683 530.2748C1102.0483 511.2348 1066.4083 501.9548 1028.8083 501.9548C896.9683 501.9548 829.5883 608.3948 717.7783 608.3948C690.9183 608.3948 668.4583 602.5348 640.6283 586.9148C624.0283 577.1448 607.4183 583.4948 599.1183 596.1948C590.3283 609.8648 591.3083 631.3448 612.3083 643.0648C644.5283 663.0848 680.1783 671.3848 717.7783 671.3848ZM717.2883 814.9448C847.6583 814.9448 915.0383 708.9848 1028.8083 708.9848C1055.1783 708.9848 1077.6383 714.3548 1105.4683 730.4648C1123.0483 740.2348 1138.6683 732.9148 1146.4883 721.6748C1156.2483 707.5148 1155.2783 686.0348 1133.7883 673.8248C1101.5583 654.7848 1066.4083 645.5048 1028.8083 645.5048C896.4883 645.5048 829.0983 751.9548 717.2883 751.9548C690.9183 751.9548 668.4583 746.0948 640.1383 730.4648C623.5383 720.7048 607.4183 727.0548 599.1183 739.7448C590.3283 753.4148 591.3083 775.3948 611.8183 787.1048C644.0383 806.6448 679.6883 814.9448 717.2883 814.9448ZM390.6283 1040.0348C375.9783 1040.0348 365.2383 1028.3248 365.2383 1014.6448V815.9148C365.2383 801.2648 375.9783 789.5548 390.6283 789.5548C404.7883 789.5548 416.0183 801.2648 416.0183 815.9148V1014.6448C416.0183 1028.3248 404.7883 1040.0348 390.6283 1040.0348ZM287.1083 1040.0348C272.4583 1040.0348 260.7383 1028.3248 260.7383 1014.6448V815.9148C260.7383 801.2648 272.4583 789.5548 287.1083 789.5548C300.7783 789.5548 312.0083 801.2648 312.0083 815.9148V1014.6448C312.0083 1028.3248 300.7783 1040.0348 287.1083 1040.0348ZM1006.3483 970.2148C1017.5783 970.2148 1025.8783 961.4248 1024.8983 950.1948L1022.4583 909.1748L1056.6383 932.6148C1065.4283 938.4748 1077.6383 936.5248 1082.5183 927.2448C1088.3783 916.9948 1084.4683 905.2748 1074.7083 900.8748L1038.0883 882.3248L1074.2183 863.7648C1084.9583 859.8648 1088.8683 847.6548 1083.4983 837.4048C1078.6183 828.1248 1065.4283 825.6848 1056.6383 831.5448L1022.4583 854.4948L1024.4183 813.9648C1024.8983 802.7348 1017.0883 793.9448 1006.3483 793.9448C995.6083 793.9448 987.7883 803.2248 988.7683 813.9648L991.2083 854.9848L957.0283 832.0348C949.2183 826.6648 936.5283 828.6148 930.6683 837.4048C924.3183 846.6748 928.7083 859.8648 939.4483 864.2548L975.5883 882.3248L938.4783 900.8748C929.1983 905.7648 924.8083 916.9948 930.1783 927.2448C935.0583 936.0348 948.7283 938.9648 957.5183 932.6148L991.2083 909.6648L988.2783 949.7048C987.3083 960.4448 995.1183 970.2148 1006.3483 970.2148Z"/>
</svg>