<?xml version="1.0" encoding="UTF-8" standalone="no"?>
<svg xmlns="http://www.w3.org/2000/svg"
     width="955.7442846039701" height="1147.94921875"
     viewBox="0 0 955.7442846039701 1147.94921875"
     fill="currentColor">
  <path d="M141.5983 1147.9478C165.0383 1147.9478 180.6683 1131.8378 180.6683 1108.3978V1062.0078H561.0383V1108.3978C561.0383 1131.8378 576.6583 1147.9478 600.0983 1147.9478C624.0283 1147.9478 639.6483 1131.8378 639.6483 1108.3978V1057.1278C707.0283 1042.4778 741.6983 993.6478 741.6983 913.0878V544.9178C715.3283 560.5478 688.9683 574.2178 663.0883 585.4478V909.1778C663.0883 957.0278 635.7383 983.3978 589.8483 983.3978H151.8583C105.9583 983.3978 78.6183 957.0278 78.6183 909.1778V152.8278C78.6183 104.4878 105.9583 78.6178 151.8583 78.6178H600.5883C628.9083 61.0378 659.1783 45.8978 689.4483 33.2078C667.4783 11.2278 633.2983 -0.0022 588.3783 -0.0022H150.8783C51.7583 -0.0022 -0.0017 50.2978 -0.0017 148.4378V913.0878C-0.0017 993.6478 34.6683 1042.4778 102.0483 1057.1278V1108.3978C102.0483 1131.8378 118.1683 1147.9478 141.5983 1147.9478ZM520.0183 254.8778C650.3883 254.8778 718.2583 148.9278 832.0283 148.9278C858.3983 148.9278 880.3683 154.2978 908.6883 169.9178C926.2683 179.6878 941.8983 172.8478 949.7083 161.6178C958.9883 147.4578 958.4983 125.9778 937.0083 113.7678C904.2983 94.7278 869.1383 85.4478 832.0283 85.4478C699.7083 85.4478 631.8383 191.8978 520.0183 191.8978C493.6483 191.8978 471.6783 186.0378 443.3583 169.9178C426.7583 160.6478 410.1583 166.9878 402.3483 179.6878C393.5583 193.3578 394.5283 214.8478 415.0383 226.5578C447.2683 246.5778 482.9083 254.8778 520.0183 254.8778ZM208.0083 283.2078C245.6083 283.2078 276.8583 251.9578 276.8583 213.8678C276.8583 176.2678 245.6083 145.5078 208.0083 145.5078C169.9183 145.5078 139.1583 176.2678 139.1583 213.8678C139.1583 251.9578 169.9183 283.2078 208.0083 283.2078ZM520.5083 391.1178C650.3883 391.1178 718.7483 284.6678 832.0283 284.6678C858.8883 284.6678 880.8583 290.0378 909.1783 306.1478C926.2683 315.9178 942.3783 309.0778 950.1983 297.3678C958.9883 283.6878 958.9883 261.7178 937.9883 249.5078C904.7883 230.4678 869.1383 221.1878 832.0283 221.1878C700.1983 221.1878 632.3283 328.1278 520.5083 328.1278C493.6483 328.1278 471.6783 321.7778 443.8483 306.1478C427.2483 296.3878 410.1583 303.2178 402.3483 315.9178C393.5583 329.5878 394.5283 351.0778 415.5283 362.7978C447.7583 382.3278 483.3983 391.1178 520.5083 391.1178ZM520.0183 526.8578C650.3883 526.8578 718.2583 420.8978 832.0283 420.8978C858.3983 420.8978 880.3683 426.2678 908.6883 441.8978C926.2683 451.6578 941.8983 444.8278 949.7083 433.5978C958.9883 419.4378 958.4983 397.9478 937.0083 385.7378C904.2983 366.6978 869.1383 357.4178 832.0283 357.4178C699.7083 357.4178 631.8383 463.8678 520.0183 463.8678C493.6483 463.8678 471.6783 458.0078 443.3583 441.8978C426.7583 432.6178 410.1583 438.9678 402.3483 451.6578C393.5583 465.3278 394.5283 486.8178 415.0383 498.5378C447.2683 518.5578 482.9083 526.8578 520.0183 526.8578ZM166.9883 669.9178H309.0783C326.6583 669.9178 340.3283 656.7378 340.3283 639.1578C340.3283 622.0678 326.6583 608.3978 309.0783 608.3978H166.9883C149.8983 608.3978 136.2283 622.0678 136.2283 639.1578C136.2283 656.7378 149.8983 669.9178 166.9883 669.9178ZM432.6183 669.9178H574.7083C591.7983 669.9178 605.4683 656.7378 605.4683 639.1578C605.4683 622.0678 591.7983 608.3978 574.7083 608.3978H432.6183C415.0383 608.3978 401.3683 622.0678 401.3683 639.1578C401.3683 656.7378 415.0383 669.9178 432.6183 669.9178ZM166.9883 791.9878H309.0783C326.6583 791.9878 340.3283 778.8078 340.3283 761.2278C340.3283 743.6478 326.6583 730.4678 309.0783 730.4678H166.9883C149.8983 730.4678 136.2283 743.6478 136.2283 761.2278C136.2283 778.8078 149.8983 791.9878 166.9883 791.9878ZM432.6183 791.9878H574.7083C591.7983 791.9878 605.4683 778.8078 605.4683 761.2278C605.4683 743.6478 591.7983 730.4678 574.7083 730.4678H432.6183C415.0383 730.4678 401.3683 743.6478 401.3683 761.2278C401.3683 778.8078 415.0383 791.9878 432.6183 791.9878ZM166.9883 914.0578H309.0783C326.6583 914.0578 340.3283 900.3878 340.3283 883.2978C340.3283 865.7178 326.6583 852.0478 309.0783 852.0478H166.9883C149.8983 852.0478 136.2283 865.7178 136.2283 883.2978C136.2283 900.3878 149.8983 914.0578 166.9883 914.0578ZM432.6183 914.0578H574.7083C591.7983 914.0578 605.4683 900.3878 605.4683 883.2978C605.4683 865.7178 591.7983 852.0478 574.7083 852.0478H432.6183C415.0383 852.0478 401.3683 865.7178 401.3683 883.2978C401.3683 900.3878 415.0383 914.0578 432.6183 914.0578Z"/>
</svg>