<?xml version="1.0" encoding="UTF-8" standalone="no"?>
<svg xmlns="http://www.w3.org/2000/svg"
     width="996.09375" height="996.09375"
     viewBox="0 0 996.09375 996.09375"
     fill="currentColor">
  <path d="M498.0477 996.0959C770.5077 996.0959 996.0977 770.0159 996.0977 498.0459C996.0977 225.5859 770.0177 -0.0041 497.5577 -0.0041C225.5877 -0.0041 -0.0023 225.5859 -0.0023 498.0459C-0.0023 770.0159 226.0777 996.0959 498.0477 996.0959ZM498.0477 913.0859C267.5777 913.0859 83.4977 728.5159 83.4977 498.0459C83.4977 267.5759 267.0877 83.0059 497.5577 83.0059C728.0277 83.0059 913.0877 267.5759 913.0877 498.0459C913.0877 728.5159 728.5177 913.0859 498.0477 913.0859ZM718.7477 292.4759H275.3877C241.2077 292.4759 219.7277 313.4759 219.7277 348.1459V603.0259C219.7277 638.1859 240.2377 658.2059 275.3877 658.2059H339.8477L383.7877 608.8859H281.2477C273.9277 608.8859 271.4877 605.9559 271.4877 598.6359V352.5359C271.4877 344.7259 273.9277 341.7959 281.2477 341.7959H713.3777C720.7077 341.7959 723.6377 344.7259 723.6377 352.5359V598.6359C723.6377 605.9559 720.7077 608.8859 713.3777 608.8859H610.8377L654.2977 658.2059H718.7477C753.9077 658.2059 775.3877 638.1859 775.3877 603.0259V348.1459C775.3877 312.9859 754.8877 292.4759 718.7477 292.4759ZM639.6477 745.1159C655.7577 745.1159 663.0877 727.5359 652.3477 715.8159L511.7177 556.6359C504.8877 548.3359 490.7277 548.3359 482.9077 556.6359L341.7977 715.8159C331.0577 727.5359 339.3577 745.1159 354.4877 745.1159Z"/>
</svg>