<?xml version="1.0" encoding="UTF-8" standalone="no"?>
<svg xmlns="http://www.w3.org/2000/svg"
     width="1167.6068516156913" height="1003.4126125384944"
     viewBox="0 0 1167.6068516156913 1003.4126125384944"
     fill="currentColor">
  <path d="M127.9834 489.25L964.4134 714.35C1058.1634 739.74 1153.3734 714.84 1166.5534 642.08C1177.3034 575.19 1104.0534 514.64 1016.6534 497.55L712.4534 437.01C691.4634 433.1 679.2534 424.8 664.6034 403.8L406.3034 32.22C398.0034 20.5 386.7734 12.69 373.1034 9.27L338.4334 0.48C326.2234 -2.45 316.9434 8.3 320.3634 23.43L403.3734 375.97L234.4334 343.26L73.2934 154.29C63.5334 143.06 53.2734 139.64 35.6934 143.55L17.1434 147.46C3.9634 149.9 -1.8966 160.15 0.5434 171.87L52.3034 424.8C59.1334 457.03 85.9934 478.02 127.9834 489.25ZM56.6934 1003.41H1110.4034C1131.8934 1003.41 1149.4634 985.35 1149.4634 963.86C1149.4634 942.38 1131.8934 924.8 1110.4034 924.8H56.6934C35.2134 924.8 17.6334 942.38 17.6334 963.86C17.6334 985.35 35.2134 1003.41 56.6934 1003.41Z"/>
</svg>