<?xml version="1.0" encoding="UTF-8" standalone="no"?>
<svg xmlns="http://www.w3.org/2000/svg"
     width="970.703125" height="951.171875"
     viewBox="0 0 970.703125 951.171875"
     fill="currentColor">
  <path d="M214.8483 395.9933C329.0983 396.9733 427.2483 307.1333 425.7783 197.2633C424.3183 88.8633 329.0983 0.0033 214.8483 0.0033C109.8683 0.0033 45.4083 64.9433 14.6483 110.3533C4.3983 125.9733 -0.0017 143.0633 -0.0017 162.1133V233.8833C-0.0017 252.9333 4.8783 270.0233 14.6483 285.6433C44.4383 331.0533 109.8683 394.5333 214.8483 395.9933ZM755.8583 395.9933C860.8383 394.5333 926.7583 331.0533 956.0583 285.6433C965.8183 270.0233 970.6983 252.9333 970.6983 233.8833V162.1133C970.6983 143.0633 966.3083 125.9733 956.0583 110.3533C925.7783 64.9433 860.8383 0.0033 755.8583 0.0033C641.5983 0.0033 546.3883 88.8633 544.9183 197.2633C543.4583 307.1333 641.5983 396.9733 755.8583 395.9933ZM88.8683 275.3933C76.1683 275.3933 65.9183 265.1333 65.9183 251.9533V143.5533C65.9183 130.3733 76.1683 120.1133 88.8683 120.1133C102.5383 120.1133 112.3083 130.3733 112.3083 143.5533V251.9533C112.3083 265.1333 102.5383 275.3933 88.8683 275.3933ZM881.8383 275.3933C868.1683 275.3933 858.3983 265.1333 858.3983 251.9533V143.5533C858.3983 130.3733 868.1683 120.1133 881.8383 120.1133C894.5283 120.1133 904.7883 130.3733 904.7883 143.5533V251.9533C904.7883 265.1333 894.5283 275.3933 881.8383 275.3933ZM239.7483 790.0433H377.4383V388.6733C338.8683 418.4533 291.0183 437.9833 239.7483 441.8933ZM730.9583 790.0433V441.8933C679.6883 437.9833 631.8383 418.4533 593.2583 388.6733V790.0433ZM287.5983 951.1733H329.0983C358.8883 951.1733 377.4383 936.5233 377.4383 907.7133V838.8633H239.7483V907.7133C239.7483 936.5233 258.7883 951.1733 287.5983 951.1733ZM683.1083 951.1733C711.9183 951.1733 730.9583 936.5233 730.9583 907.7133V838.8633H593.2583V907.7133C593.2583 936.5233 611.8183 951.1733 641.5983 951.1733Z"/>
</svg>