<?xml version="1.0" encoding="UTF-8" standalone="no"?>
<svg xmlns="http://www.w3.org/2000/svg"
     width="539.0625" height="855.4734958873421"
     viewBox="0 0 539.0625 855.4734958873421"
     fill="currentColor">
  <path d="M209.9583 0.0051C97.1683 0.9851 -0.0017 93.7551 -0.0017 220.2151C-0.0017 351.0751 186.0383 507.8151 321.2883 508.3051C418.9483 508.7951 539.0583 414.0651 539.0583 293.9451C539.0583 148.9351 359.8683 -0.9749 209.9583 0.0051ZM231.9383 223.1451C216.7983 244.6351 187.4983 249.5151 165.0383 233.4051L97.1683 185.0651C75.1983 168.9451 70.7983 140.6251 87.3983 119.1451C102.0483 97.1751 131.3483 91.8051 152.8283 107.4251L220.6983 156.7451C242.1883 171.8751 247.0683 201.1751 231.9383 223.1451ZM367.6783 440.9251C341.3083 440.9251 339.8483 406.7451 366.2083 364.2651C392.0883 320.8051 434.5683 287.1151 461.4283 287.1151C488.2783 287.1151 489.7483 320.8051 463.3783 364.2651C437.4983 406.7451 395.0183 440.9251 367.6783 440.9251ZM186.5283 855.4751C216.7983 855.4751 236.8183 839.8451 236.8183 810.0651V540.5351C179.6883 522.4651 123.0483 488.2851 75.1983 445.3151V810.0651C75.1983 839.8451 94.7283 855.4751 124.9983 855.4751Z"/>
</svg>