<?xml version="1.0" encoding="UTF-8" standalone="no"?>
<svg xmlns="http://www.w3.org/2000/svg"
     width="1191.89453125" height="855.4734958873422"
     viewBox="0 0 1191.89453125 855.4734958873422"
     fill="currentColor">
  <path d="M328.6183 0.0051C179.1983 -0.9749 -0.0017 148.9351 -0.0017 293.9451C-0.0017 414.0651 120.1183 508.7951 217.2883 508.3051C352.5383 507.8151 539.0583 351.0751 539.0583 220.2151C539.0583 93.7551 441.4083 0.9851 328.6183 0.0051ZM863.2783 0.0051C750.4883 0.9851 652.8283 93.7551 652.8283 220.2151C652.8283 351.0751 839.3583 507.8151 974.6083 508.3051C1071.7783 508.7951 1191.8983 414.0651 1191.8983 293.9451C1191.8983 148.9351 1012.6983 -0.9749 863.2783 0.0051ZM307.1283 223.1451C291.5083 201.1751 296.8783 171.8751 318.3583 156.7451L386.2283 107.4251C407.2283 91.8051 437.0083 97.1751 451.6583 119.1451C468.2583 140.6251 463.3783 168.9451 441.8983 185.0651L374.0283 233.4051C351.5583 249.5151 321.7783 244.6351 307.1283 223.1451ZM884.7683 223.1451C870.1183 244.6351 840.3283 249.5151 818.3583 233.4051L750.4883 185.0651C728.5183 168.9451 723.6283 140.6251 740.2383 119.1451C754.8783 97.1751 784.6683 91.8051 805.6683 107.4251L874.0283 156.7451C895.5083 171.8751 900.3883 201.1751 884.7683 223.1451ZM170.8983 440.9251C143.5583 440.9251 101.5583 406.7451 75.1983 364.2651C49.3183 320.8051 50.2883 287.1151 77.6383 287.1151C104.4883 287.1151 146.9683 320.8051 172.8483 364.2651C198.7283 406.7451 197.7583 440.9251 170.8983 440.9251ZM1020.9983 440.9251C994.1383 440.9251 993.1683 406.7451 1019.0383 364.2651C1044.9183 320.8051 1087.3983 287.1151 1114.2583 287.1151C1141.5983 287.1151 1142.5783 320.8051 1116.6983 364.2651C1090.8183 406.7451 1048.3383 440.9251 1020.9983 440.9251ZM352.5383 855.4751H413.5783C443.8483 855.4751 463.8683 839.8451 463.8683 810.0651V445.3151C416.0183 488.2851 359.3783 522.4651 302.2483 540.5351V810.0651C302.2483 839.8451 321.7783 855.4751 352.5383 855.4751ZM839.3583 855.4751C870.1183 855.4751 889.6483 839.8451 889.6483 810.0651V540.5351C832.5183 522.4651 775.8783 488.2851 728.0283 445.3151V810.0651C728.0283 839.8451 748.0483 855.4751 778.3183 855.4751Z"/>
</svg>