<?xml version="1.0" encoding="UTF-8" standalone="no"?>
<svg xmlns="http://www.w3.org/2000/svg"
     width="996.09375" height="996.09375"
     viewBox="0 0 996.09375 996.09375"
     fill="currentColor">
  <path d="M498.0477 996.0977C770.5077 996.0977 996.0977 770.5077 996.0977 498.0477C996.0977 226.0777 770.0177 -0.0023 497.5577 -0.0023C225.5877 -0.0023 -0.0023 226.0777 -0.0023 498.0477C-0.0023 770.5077 226.0777 996.0977 498.0477 996.0977ZM725.5877 285.6477C762.6977 285.6477 784.1777 307.1277 784.1777 343.2577V605.4677C784.1777 642.0877 761.7177 662.5977 725.5877 662.5977H659.6677L614.2577 611.3277H719.7277C727.5377 611.3277 730.4677 608.8877 730.4677 601.0777V348.1477C730.4677 339.3577 727.5377 336.4277 719.7277 336.4277H274.8977C267.0877 336.4277 264.6477 339.3577 264.6477 348.1477V601.0777C264.6477 608.8877 267.0877 611.3277 274.8977 611.3277H380.3677L334.4777 662.5977H268.5577C232.4177 662.5977 210.9377 642.0877 210.9377 605.4677V343.2577C210.9377 307.6177 233.3977 285.6477 268.5577 285.6477ZM644.0477 752.4377H350.0977C334.4777 752.4377 325.6877 734.3777 336.9177 721.6777L482.4177 557.6177C490.7277 549.8077 504.8877 549.8077 512.2077 557.6177L657.2277 721.6777C668.4577 734.3777 660.6477 752.4377 644.0477 752.4377Z"/>
</svg>