<?xml version="1.0" encoding="UTF-8" standalone="no"?>
<svg xmlns="http://www.w3.org/2000/svg"
     width="1195.80078125" height="576.171875"
     viewBox="0 0 1195.80078125 576.171875"
     fill="currentColor">
  <path d="M153.3183 576.1764H1042.4783C1144.5283 576.1764 1195.7983 525.3864 1195.7983 424.8064V150.8764C1195.7983 50.7764 1144.5283 -0.0036 1042.4783 -0.0036H153.3183C50.7783 -0.0036 -0.0017 50.2964 -0.0017 150.8764V424.8064C-0.0017 525.8764 50.7783 576.1764 153.3183 576.1764ZM78.6183 155.2764C78.6183 104.4964 105.4683 78.6164 154.2983 78.6164H1041.5083C1089.8483 78.6164 1117.1883 104.4964 1117.1883 155.2764V156.7364H78.6183ZM154.2983 497.5564C105.4683 497.5564 78.6183 471.6764 78.6183 420.8964V220.7064H1117.1883V420.8964C1117.1883 471.6764 1089.8483 497.5564 1041.5083 497.5564ZM959.9583 412.1064C993.6483 411.1364 1021.9683 383.2964 1021.9683 349.6064C1021.9683 315.4264 993.6483 286.6164 959.9583 286.6164C926.7583 286.6164 897.9483 315.4264 897.9483 349.6064C897.9483 383.2964 926.7583 412.5964 959.9583 412.1064Z"/>
</svg>