<?xml version="1.0" encoding="UTF-8" standalone="no"?>
<svg xmlns="http://www.w3.org/2000/svg"
     width="539.0625" height="855.4734958873422"
     viewBox="0 0 539.0625 855.4734958873422"
     fill="currentColor">
  <path d="M328.6183 0.0051C179.1983 -0.9749 -0.0017 148.9351 -0.0017 293.9451C-0.0017 414.0651 120.1183 508.7951 217.2883 508.3051C352.5383 507.8151 539.0583 351.0751 539.0583 220.2151C539.0583 93.7551 441.4083 0.9851 328.6183 0.0051ZM307.1283 223.1451C291.5083 201.1751 296.8783 171.8751 318.3583 156.7451L386.2283 107.4251C407.2283 91.8051 437.0083 97.1751 451.6583 119.1451C468.2583 140.6251 463.3783 168.9451 441.8983 185.0651L374.0283 233.4051C351.5583 249.5151 321.7783 244.6351 307.1283 223.1451ZM170.8983 440.9251C143.5583 440.9251 101.5583 406.7451 75.1983 364.2651C49.3183 320.8051 50.2883 287.1151 77.6383 287.1151C104.4883 287.1151 146.9683 320.8051 172.8483 364.2651C198.7283 406.7451 197.7583 440.9251 170.8983 440.9251ZM352.5383 855.4751H413.5783C443.8483 855.4751 463.8683 839.8451 463.8683 810.0651V445.3151C416.0183 488.2851 359.3783 522.4651 302.2483 540.5351V810.0651C302.2483 839.8451 321.7783 855.4751 352.5383 855.4751Z"/>
</svg>