<?xml version="1.0" encoding="UTF-8" standalone="no"?>
<svg xmlns="http://www.w3.org/2000/svg"
     width="1255.693211453937" height="868.3910718812884"
     viewBox="0 0 1255.693211453937 868.3910718812884"
     fill="currentColor">
  <path d="M274.3882 541.2384L1111.7882 318.0984C1205.5382 292.7084 1275.8482 223.8584 1250.4582 154.0384C1227.0182 90.5584 1132.7782 74.9384 1048.7982 103.2584L755.3382 203.8384C734.8382 210.6784 720.1882 210.1884 696.7482 198.9584L287.5682 5.5984C274.3882 -0.2616 259.7382 -1.7216 246.5482 2.1784L212.8582 12.4384C201.1382 16.3384 197.2382 30.0084 207.9782 41.2384L456.9982 305.3984L294.4082 361.0684L59.5382 278.0584C46.3582 273.6684 34.6382 275.6184 21.9382 287.3384L7.7782 300.5184C-1.9818 309.3084 -2.4718 321.0284 5.8282 329.8184L177.2182 522.1984C199.6782 547.5884 232.8782 552.4684 274.3882 541.2384ZM95.6682 868.3884H1149.3882C1170.8682 868.3884 1188.9382 850.3284 1188.9382 828.8384C1188.9382 807.3584 1170.8682 789.7784 1149.3882 789.7784H95.6682C74.1882 789.7784 56.6082 807.3584 56.6082 828.8384C56.6082 850.3284 74.1882 868.3884 95.6682 868.3884Z"/>
</svg>