<?xml version="1.0" encoding="UTF-8" standalone="no"?>
<svg xmlns="http://www.w3.org/2000/svg"
     width="636.71875" height="863.7865581804756"
     viewBox="0 0 636.71875 863.7865581804756"
     fill="currentColor">
  <path d="M441.4083 0.0167C357.4183 -0.9633 264.1583 40.0567 202.1483 126.9667C192.8683 138.6867 184.5683 151.8767 175.7783 171.4067C281.7383 190.4467 367.6783 284.1967 367.6783 388.6867C367.6783 418.4767 361.8183 445.8167 351.5583 470.2367C416.0183 460.9567 456.0583 446.3067 492.6783 425.7967C573.2383 379.4067 636.7183 304.2167 636.7183 196.3067C636.7183 71.7967 548.8283 0.9967 441.4083 0.0167ZM459.9583 209.4867C450.1983 217.7867 435.0583 216.8167 427.2483 206.5567C418.4583 196.3067 419.9183 181.6567 430.1783 173.3567L501.9483 112.8067C511.7183 104.5067 526.3683 105.9767 534.6683 116.2267C542.9683 125.9967 542.4783 140.6467 532.2283 148.9467ZM177.7383 530.2867C253.4183 530.2867 320.7983 483.4167 320.7983 388.6867C320.7983 304.2167 241.2083 214.8567 137.6983 214.8567C50.2883 214.8567 -0.0017 284.1967 -0.0017 354.9967C-0.0017 460.9567 90.3283 530.2867 177.7383 530.2867ZM153.3183 456.0667C139.6483 468.2767 116.2083 456.0667 87.3983 421.4067C59.0783 386.7367 51.7583 362.8067 65.4283 351.0867C79.5883 338.3967 102.5383 350.1167 131.8383 385.2667C159.6683 420.9167 166.9883 444.3567 153.3183 456.0667ZM371.0983 863.7867H409.1783C439.4483 863.7867 458.9883 848.1567 458.9883 817.8867V496.1067C417.4783 511.2467 371.0983 520.5267 320.3083 523.9467V817.8867C320.3083 848.1567 340.3283 863.7867 371.0983 863.7867Z"/>
</svg>