<?xml version="1.0" encoding="UTF-8" standalone="no"?>
<svg xmlns="http://www.w3.org/2000/svg"
     width="1105.46875" height="851.5625"
     viewBox="0 0 1105.46875 851.5625"
     fill="currentColor">
  <path d="M295.8983 851.5603H809.5683C1009.2783 851.5603 1105.4683 755.8603 1105.4683 557.1303V294.4303C1105.4683 95.7003 1009.2783 0.0003 809.5683 0.0003H295.8983C96.6783 0.0003 -0.0017 95.7003 -0.0017 294.4303V557.1303C-0.0017 755.8603 96.6783 851.5603 295.8983 851.5603ZM748.5383 244.6303H357.4183C333.0083 244.6303 312.4983 257.8103 303.7083 278.3203H79.0983C83.4983 140.6203 151.3683 78.6103 295.8983 78.6103H809.5683C954.0983 78.6103 1021.9683 140.6203 1026.8583 278.3203H802.2483C793.4583 257.8103 773.4383 244.6303 748.5383 244.6303ZM295.8983 772.9503C145.9983 772.9503 78.6183 706.0503 78.6183 557.1303V327.6403H303.7083C312.4983 348.1403 333.0083 361.3303 357.4183 361.3303H748.5383C773.4383 361.3303 793.4583 348.1403 802.2483 327.6403H1026.8583V557.1303C1026.8583 706.0503 959.9583 772.9503 809.5683 772.9503ZM552.7383 527.8303C578.6183 527.3403 600.0983 505.8603 600.0983 481.4403C600.0983 455.5703 578.6183 434.0803 552.7383 434.0803C526.8583 434.0803 505.8583 455.5703 505.8583 481.4403C505.8583 506.8403 526.8583 528.3203 552.7383 527.8303Z"/>
</svg>