<?xml version="1.0" encoding="UTF-8" standalone="no"?>
<svg xmlns="http://www.w3.org/2000/svg"
     width="1000" height="983.3984375"
     viewBox="0 0 1000 983.3984375"
     fill="currentColor">
  <path d="M-0.0023 499.9991C-0.0023 637.2091 55.6677 761.2291 145.0177 851.5591C151.3677 857.9091 158.2077 857.9091 163.5777 851.0791L185.5477 826.1691C191.4077 819.8291 190.9177 813.9691 185.0577 807.6191C107.9077 728.0291 59.5677 619.1391 59.5677 499.9991C59.5677 259.7691 258.7877 60.0591 499.9977 60.0591C741.2077 60.0591 940.4277 259.7691 940.4277 499.9991C940.4277 619.1391 892.0877 728.0291 814.9377 807.6191C809.0777 813.9691 808.5977 819.8291 814.4577 826.1691L836.4277 851.0791C841.7977 857.9091 848.6377 857.9091 854.9777 851.5591C944.3377 761.7191 999.9977 637.2091 999.9977 499.9991C999.9977 226.0791 775.8777 -0.0009 499.9977 -0.0009C224.1177 -0.0009 -0.0023 226.0791 -0.0023 499.9991ZM142.0877 499.9991C142.0877 594.7291 178.7077 680.1791 239.2577 744.6291C245.6077 751.4691 252.4377 750.9791 258.2977 744.6291L280.2777 720.2191C286.6177 713.8691 285.6477 708.0091 279.7877 701.1691C231.4477 647.4591 202.1477 577.1491 202.1477 499.9991C202.1477 336.9091 336.4277 202.1491 499.9977 202.1491C663.5777 202.1491 797.8477 336.9091 797.8477 499.9991C797.8477 577.1491 768.5577 647.4591 720.2177 700.6791C714.3577 707.5191 713.3777 713.3791 719.7277 719.7291L742.1877 744.6291C747.5577 750.9791 754.8877 751.4691 760.7377 744.6291C820.7977 680.1791 857.9077 594.7291 857.9077 499.9991C857.9077 303.7091 697.2677 142.0891 499.9977 142.0891C302.7377 142.0891 142.0877 303.7091 142.0877 499.9991ZM284.1777 499.9991C284.1777 551.7591 302.2477 599.1191 333.4977 636.7191C338.8677 643.5591 345.7077 643.5591 352.0477 636.7191L374.9977 612.7891C380.8577 606.9291 380.3677 600.5891 375.9777 593.7491C355.9577 567.8691 344.2377 534.6691 344.2377 499.9991C344.2377 415.0391 415.0377 344.2391 499.9977 344.2391C584.9577 344.2391 655.7577 415.0391 655.7577 499.9991C655.7577 534.6691 644.0477 567.8691 624.0277 593.7491C619.1377 600.5891 618.6477 606.9291 624.9977 613.2791L647.9477 636.7191C653.8077 643.5591 661.1377 643.5591 666.5077 636.7191C697.7577 599.1191 715.8177 551.7591 715.8177 499.9991C715.8177 381.8391 618.6477 284.1791 499.9977 284.1791C381.3477 284.1791 284.1777 381.8391 284.1777 499.9991ZM184.0777 943.3591C169.4377 959.9591 178.2277 983.3991 201.1677 983.3991H797.8477C820.7977 983.3991 829.5877 959.4691 815.4277 943.3591L520.5077 609.8591C509.2777 597.1691 489.7477 597.1691 478.5177 609.8591Z"/>
</svg>