<?xml version="1.0" encoding="UTF-8" standalone="no"?>
<svg xmlns="http://www.w3.org/2000/svg"
     width="1005.859375" height="861.328125"
     viewBox="0 0 1005.859375 861.328125"
     fill="currentColor">
  <path d="M-0.0017 283.6931H245.1183C253.4183 260.2531 275.8783 246.0931 302.7383 246.0931H701.1683C728.0283 246.0931 750.4883 260.2531 759.2783 283.6931H1003.9083V266.6031C1003.9083 86.4231 894.5283 0.0031 699.7083 0.0031H304.1983C109.8683 0.0031 -0.0017 86.4231 -0.0017 266.6031ZM304.1983 861.3331H701.6583C908.1983 861.3331 1005.8583 763.1831 1005.8583 557.1331V333.4931H760.2583C750.9783 356.4431 729.0083 370.6031 701.6583 370.6031H304.1983C277.3483 370.6031 254.8783 356.4431 246.0983 333.4931H-0.0017V557.1331C-0.0017 763.1831 97.6583 861.3331 304.1983 861.3331ZM502.9283 566.4031C477.5383 566.8931 456.0583 545.4131 456.0583 520.5031C456.0583 494.6331 477.5383 473.6331 502.9283 473.6331C528.3183 473.6331 549.8083 494.6331 549.8083 520.5031C549.8083 543.9431 528.3183 565.9131 502.9283 566.4031Z"/>
</svg>