<?xml version="1.0" encoding="UTF-8" standalone="no"?>
<svg xmlns="http://www.w3.org/2000/svg"
     width="1340.33203125" height="863.7865581804756"
     viewBox="0 0 1340.33203125 863.7865581804756"
     fill="currentColor">
  <path d="M440.9183 0.0167C357.4183 -0.9633 264.1583 40.0567 202.1483 126.9667C192.8683 138.6867 184.5683 151.8767 175.7783 171.4067C281.7383 190.4467 367.6783 284.1967 367.6783 388.6867C367.6783 418.4767 361.8183 445.8167 351.5583 470.2367C416.0183 460.9567 456.0583 446.3067 492.6783 425.7967C573.2383 379.4067 636.7183 304.2167 636.7183 196.3067C636.7183 71.7967 548.8283 0.9967 440.9183 0.0167ZM898.9283 0.0167C791.5083 0.9967 703.6183 71.7967 703.6183 196.3067C703.6183 304.2167 767.0883 379.4067 847.1683 425.7967C884.2783 446.3067 924.3183 460.9567 988.7683 470.2367C978.0283 445.8167 972.6583 418.4767 972.6583 388.6867C972.6583 284.1967 1058.1083 190.4467 1164.0583 171.4067C1155.7583 151.8767 1146.9683 138.6867 1138.1883 126.9667C1075.6883 40.0567 982.9083 -0.9633 898.9283 0.0167ZM880.3683 209.4867L808.1083 148.9467C797.8483 140.6467 797.3683 125.9967 805.6683 116.2267C813.4783 105.9767 828.6183 104.5067 838.3783 112.8067L910.1583 173.3567C920.4083 181.6567 921.3883 196.3067 913.0883 206.5567C904.7883 216.8167 890.1383 217.7867 880.3683 209.4867ZM459.9583 209.4867C450.1983 217.7867 435.0583 216.8167 426.7583 206.5567C418.4583 196.3067 419.9183 181.6567 430.1783 173.3567L501.9483 112.8067C511.7183 104.5067 526.3683 105.9767 534.1783 116.2267C542.9683 125.9967 542.4783 140.6467 532.2283 148.9467ZM177.7383 530.2867C253.4183 530.2867 320.7983 483.4167 320.7983 388.6867C320.7983 304.2167 241.2083 214.8567 137.6983 214.8567C50.2883 214.8567 -0.0017 284.1967 -0.0017 354.9967C-0.0017 460.9567 90.3283 530.2867 177.7383 530.2867ZM1162.5983 530.2867C1249.9983 530.2867 1340.3283 460.9567 1340.3283 354.9967C1340.3283 284.1967 1290.0383 214.8567 1202.6383 214.8567C1099.1183 214.8567 1019.5283 304.2167 1019.5283 388.6867C1019.5283 483.4167 1086.9183 530.2867 1162.5983 530.2867ZM153.3183 456.0667C139.6483 468.2767 116.2083 456.0667 87.3983 421.4067C59.0783 386.7367 51.7583 362.8067 65.4283 351.0867C79.5883 338.3967 102.5383 350.1167 131.8383 385.2667C159.6683 420.9167 166.9883 444.3567 153.3183 456.0667ZM1187.0083 456.0667C1173.3383 444.3567 1180.6683 420.9167 1208.4983 385.2667C1237.7883 350.1167 1260.7383 338.3967 1274.8983 351.0867C1288.5783 362.8067 1281.2483 386.7367 1252.9283 421.4067C1224.1183 456.0667 1200.6883 468.2767 1187.0083 456.0667ZM370.6083 863.7867H409.1783C438.9683 863.7867 458.9883 848.1567 458.9883 817.8867V496.1067C417.4783 511.2467 371.0983 520.5267 320.3083 523.9467V817.8867C320.3083 848.1567 340.3283 863.7867 370.6083 863.7867ZM969.2383 863.7867C999.9983 863.7867 1019.5283 848.1567 1019.5283 817.8867V523.9467C968.7483 520.5267 922.8483 511.2467 881.3483 496.1067V817.8867C881.3483 848.1567 900.8783 863.7867 931.1483 863.7867Z"/>
</svg>