<?xml version="1.0" encoding="UTF-8" standalone="no"?>
<svg xmlns="http://www.w3.org/2000/svg"
     width="996.09375" height="996.09375"
     viewBox="0 0 996.09375 996.09375"
     fill="currentColor">
  <path d="M498.0477 996.0977C770.5077 996.0977 996.0977 770.5077 996.0977 498.0477C996.0977 226.0777 770.0177 -0.0023 497.5577 -0.0023C225.5877 -0.0023 -0.0023 226.0777 -0.0023 498.0477C-0.0023 770.5077 226.0777 996.0977 498.0477 996.0977ZM825.1977 498.5377C825.1977 532.2277 780.7577 557.6177 726.0777 557.6177H618.1677C604.9777 557.6177 601.0777 559.5677 592.7777 568.3577L413.0877 764.1577C406.7377 770.9977 398.4377 775.3877 389.6477 775.3877H358.3977C347.6577 775.3877 341.7977 765.1377 346.1877 754.3977L436.0377 556.6377L310.5477 542.4777L263.6677 627.9277C259.2777 636.2277 251.9577 640.1377 241.2077 640.1377H229.4877C219.7277 640.1377 213.3777 633.2977 213.3777 623.5377V373.0477C213.3777 363.2777 219.7277 356.9377 229.4877 356.9377H241.2077C251.9577 356.9377 259.2777 360.8377 263.6677 369.1377L310.5477 454.5877L436.0377 440.4277L346.1877 242.6777C341.7977 231.9377 347.6577 221.6777 358.3977 221.6777H389.6477C398.4377 221.6777 406.7377 225.5877 413.0877 232.9077L592.7777 428.7077C601.0777 437.4977 604.9777 439.4577 618.1677 439.4577H726.0777C780.7577 439.4577 825.1977 464.8477 825.1977 498.5377Z"/>
</svg>