<?xml version="1.0" encoding="UTF-8" standalone="no"?>
<svg xmlns="http://www.w3.org/2000/svg"
     width="1305.6640625" height="862.3046875"
     viewBox="0 0 1305.6640625 862.3046875"
     fill="currentColor">
  <path d="M431.1477 862.3014C666.5077 862.3014 862.3077 666.5014 862.3077 431.1514C862.3077 195.8014 666.9877 0.0014 431.6377 0.0014C196.2877 0.0014 -0.0023 195.8014 -0.0023 431.1514C-0.0023 666.5014 195.7977 862.3014 431.1477 862.3014ZM1117.1877 765.1414C1132.8077 783.2014 1160.1577 783.2014 1178.7077 762.6914C1260.2577 674.3114 1305.6677 557.6214 1305.6677 431.1514C1305.6677 304.6914 1260.2577 187.5014 1178.7077 99.6114C1160.1577 79.1014 1132.8077 78.6114 1117.1877 97.1714C1101.5577 114.7414 1106.4477 137.6914 1124.0277 157.7114C1189.4577 230.4714 1226.0777 326.1714 1226.0777 431.1514C1226.0777 536.1314 1189.4577 631.8314 1124.0277 704.5914C1106.4477 724.6114 1101.5577 747.5614 1117.1877 765.1414ZM484.3777 273.4414C471.6777 289.0614 450.1977 300.7814 432.6177 300.7814C430.6677 300.7814 429.1977 300.2914 427.2477 300.2914C427.2477 299.3114 426.7577 296.3914 426.7577 293.4614C426.7577 273.4414 437.4977 254.3914 447.7577 241.7014C461.9177 225.5814 484.3777 213.3814 503.9077 212.8914C504.3977 214.8414 504.3977 217.7714 504.3977 220.2114C504.3977 240.2314 496.0977 259.2814 484.3777 273.4414ZM980.4677 625.9814C996.5777 644.0414 1025.8777 644.5314 1042.9677 622.5614C1085.4477 569.8214 1110.3477 502.9314 1110.3477 431.1514C1110.3477 359.3714 1085.4477 292.4814 1042.9677 239.7414C1025.8777 217.7714 996.5777 217.7714 980.4677 236.3314C964.8477 253.9014 971.1877 275.8814 986.8177 296.8714C1016.1177 333.0114 1030.7577 380.3714 1030.7577 431.1514C1030.7577 481.9314 1016.1177 528.8114 986.8177 565.4314C971.1877 586.4214 964.8477 608.4014 980.4677 625.9814ZM435.5477 577.6414C406.2477 577.6414 395.9977 593.2614 372.5577 593.2614C348.1477 593.2614 332.0277 572.2614 312.9877 545.4114C291.5077 513.6714 273.4377 465.3314 273.4377 418.9414C273.4377 345.2114 321.2877 305.6614 369.1377 305.6614C394.0477 305.6614 415.0377 322.7514 430.6677 322.7514C445.7977 322.7514 469.2377 305.1714 497.5577 305.1714C508.7877 305.1714 547.8477 305.6614 573.2377 342.2814C570.7977 344.7314 532.2277 366.2114 532.2277 415.5314C532.2277 471.6814 581.5477 491.7014 583.0077 492.6714C583.0077 493.6514 575.6877 520.0214 557.1277 546.3914C541.0177 569.3314 523.4377 592.7714 497.5577 592.7714C471.6777 592.7714 465.3277 577.6414 435.5477 577.6414Z"/>
</svg>