<?xml version="1.0" encoding="UTF-8" standalone="no"?>
<svg xmlns="http://www.w3.org/2000/svg"
     width="1305.6640625" height="862.3046875"
     viewBox="0 0 1305.6640625 862.3046875"
     fill="currentColor">
  <path d="M431.1477 862.3014C666.5077 862.3014 862.3077 666.5014 862.3077 431.1514C862.3077 195.8014 666.9877 0.0014 431.6377 0.0014C196.2877 0.0014 -0.0023 195.8014 -0.0023 431.1514C-0.0023 666.5014 195.7977 862.3014 431.1477 862.3014ZM431.6377 784.1814C235.8377 784.1814 78.6177 626.9514 79.0977 431.1514C79.0977 235.3514 236.3277 78.6114 432.1277 78.6114C626.9577 78.6114 783.6877 235.3514 783.6877 431.1514C783.6877 626.9514 627.4377 784.1814 431.6377 784.1814ZM1117.1877 765.1414C1132.8077 783.2014 1160.1577 783.2014 1178.7077 762.6914C1260.2577 674.3114 1305.6677 557.6214 1305.6677 431.1514C1305.6677 304.6914 1260.2577 187.5014 1178.7077 99.6114C1160.1577 79.1014 1132.8077 78.6114 1117.1877 97.1714C1101.5577 114.7414 1106.4477 137.6914 1124.0277 157.7114C1189.4577 230.4714 1226.0777 326.1714 1226.0777 431.1514C1226.0777 536.1314 1189.4577 631.8314 1124.0277 704.5914C1106.4477 724.6114 1101.5577 747.5614 1117.1877 765.1414ZM482.9077 276.3714C494.1377 262.6914 502.4377 244.1414 502.4377 224.6114C502.4377 222.1714 502.4377 219.7314 501.9577 217.7714C482.9077 218.2614 460.9377 229.9814 447.7577 245.6014C437.4977 257.8114 427.2477 276.3714 427.2477 295.9014C427.2477 298.3414 427.7377 301.2714 427.7377 302.2414C429.1977 302.2414 430.6677 302.7314 432.6177 302.7314C449.7077 302.7314 470.7077 291.5014 482.9077 276.3714ZM980.4677 625.9814C996.5777 644.0414 1025.8777 644.5314 1042.9677 622.5614C1085.4477 569.8214 1110.3477 502.9314 1110.3477 431.1514C1110.3477 359.3714 1085.4477 292.4814 1042.9677 239.7414C1025.8777 217.7714 996.5777 217.7714 980.4677 236.3314C964.8477 253.9014 971.1877 275.8814 986.8177 296.8714C1016.1177 333.0114 1030.7577 380.3714 1030.7577 431.1514C1030.7577 481.9314 1016.1177 528.8114 986.8177 565.4314C971.1877 586.4214 964.8477 608.4014 980.4677 625.9814ZM435.0577 571.7814C464.3577 571.7814 470.7077 586.4214 495.6077 586.4214C520.5077 586.4214 537.5977 563.4814 553.2277 541.0114C571.2877 515.1414 578.6177 489.7414 578.6177 488.7714C577.1477 488.2814 529.2977 468.7514 529.2977 414.0614C529.2977 366.2114 566.8977 345.2114 568.8477 343.2614C544.4377 307.6214 506.3477 307.1314 495.6077 307.1314C467.7777 307.1314 445.3077 323.7314 430.6677 323.7314C415.5277 323.7314 395.5077 307.6214 370.6077 307.6214C324.7077 307.6214 278.3177 346.1914 278.3177 417.4814C278.3177 462.4014 295.4077 509.7614 316.4077 540.0414C334.9577 565.9214 351.0777 586.9114 374.5077 586.9114C396.9777 586.9114 407.2277 571.7814 435.0577 571.7814Z"/>
</svg>