<?xml version="1.0" encoding="UTF-8" standalone="no"?>
<svg xmlns="http://www.w3.org/2000/svg"
     width="996.09375" height="996.09375"
     viewBox="0 0 996.09375 996.09375"
     fill="currentColor">
  <path d="M498.0477 996.0959C770.5077 996.0959 996.0977 770.0159 996.0977 498.0459C996.0977 225.5859 770.0177 -0.0041 497.5577 -0.0041C225.5877 -0.0041 -0.0023 225.5859 -0.0023 498.0459C-0.0023 770.0159 226.0777 996.0959 498.0477 996.0959ZM498.0477 910.1559C269.5277 910.1559 86.4277 726.5659 86.4277 498.0459C86.4277 269.0459 269.0477 85.4459 497.5577 85.4459C726.0777 85.4459 910.1577 269.0459 910.6477 498.0459C911.1377 726.5659 726.5577 910.1559 498.0477 910.1559ZM498.0477 863.2859C700.6877 863.2859 863.7677 700.1959 863.2777 498.0459C862.7977 295.4059 700.1977 132.8159 497.5577 132.8159C295.4077 132.8159 133.2977 295.4059 133.2977 498.0459C133.2977 700.6859 295.8977 863.2859 498.0477 863.2859ZM498.0477 818.8459C320.3077 818.8459 177.7377 676.2659 177.7377 498.0459C177.7377 319.8259 319.8277 177.2459 497.5577 177.2459C675.7777 177.2459 818.3577 319.8259 818.8477 498.0459C819.3377 675.7859 676.2677 818.8459 498.0477 818.8459ZM547.8477 347.6559C558.5977 334.4759 566.4077 316.4059 566.4077 297.8559C566.4077 295.4059 566.4077 292.9659 565.9177 291.0159C547.8477 291.5059 526.3677 302.7359 513.6677 317.8759C503.9077 330.0759 494.1377 347.6559 494.1377 366.2059C494.1377 368.6559 494.6277 371.5859 494.6277 372.5559C496.0977 372.5559 497.5577 373.0459 499.5077 373.0459C515.6277 373.0459 535.6477 362.3059 547.8477 347.6559ZM501.9577 629.8859C529.7877 629.8859 535.6477 644.0459 560.0577 644.0459C583.9877 644.0459 600.0977 622.0659 615.2377 600.5859C632.3277 576.1759 639.1577 551.7559 639.1577 550.7859C637.6977 550.2959 592.2877 531.7359 592.2877 479.0059C592.2877 433.5959 627.9277 413.5759 629.8877 411.6259C606.4477 377.4459 570.3077 376.9559 560.0577 376.9559C533.2077 376.9559 511.7177 393.0659 497.5577 393.0659C482.9077 393.0659 463.8677 377.4459 440.4277 377.4459C396.4877 377.4459 351.5577 414.0659 351.5577 482.4259C351.5577 525.8759 368.6477 570.7959 388.6677 599.6059C406.2477 624.5159 421.3877 644.5359 443.8477 644.5359C465.3277 644.5359 475.0977 629.8859 501.9577 629.8859Z"/>
</svg>