<?xml version="1.0" encoding="UTF-8" standalone="no"?>
<svg xmlns="http://www.w3.org/2000/svg"
     width="933.59375" height="1012.6953125"
     viewBox="0 0 933.59375 1012.6953125"
     fill="currentColor">
  <path d="M65.9177 204.1006C73.2377 204.1006 78.6177 203.1206 85.4477 197.7506L249.0277 74.2206C256.8377 68.3606 261.2277 60.5506 261.2277 52.2506C261.2277 41.9906 256.3477 33.6906 248.0477 25.8806C229.4877 9.2806 196.2877 0.0006 166.9877 0.0006C90.8177 0.0006 29.7877 61.0306 29.7877 137.2106C29.7877 155.2706 32.7177 173.3406 38.0877 184.5706C43.4577 196.7806 53.7077 204.1006 65.9177 204.1006ZM867.6777 204.1006C879.8877 204.1006 890.1377 196.2906 895.9977 184.5706C900.8777 173.8306 903.8077 155.2706 903.8077 137.2106C903.8077 61.0306 843.2577 0.0006 766.5977 0.0006C737.3077 0.0006 704.0977 9.2806 685.5477 25.8806C677.2477 33.6906 672.3677 41.9906 672.3677 52.2506C672.3677 60.5506 676.7577 68.3606 685.0577 74.2206L848.1477 197.7506C855.4677 203.1206 860.3477 204.1006 867.6777 204.1006ZM58.5977 998.5306C73.2377 1013.6706 97.1677 1013.6706 112.3077 998.0506L189.4577 921.3906C267.0877 978.5206 362.7977 1012.6906 466.7977 1012.6906C570.7977 1012.6906 666.5077 978.5206 744.1377 921.3906L821.2877 998.0506C836.4277 1013.6706 860.3477 1013.6706 874.9977 998.5306C889.6477 984.3706 889.6477 960.4506 874.5077 945.8006L800.2977 872.0706C882.8077 788.0906 933.5977 672.8506 933.5977 545.9006C933.5977 288.0906 724.6077 78.6106 466.7977 78.6106C208.9877 78.6106 -0.0023 288.0906 -0.0023 545.9006C-0.0023 672.8506 50.7777 788.0906 133.2977 872.0706L59.0777 945.8006C43.9477 960.4506 44.4377 984.3706 58.5977 998.5306ZM244.6277 599.6106C225.5877 599.6106 210.9377 584.9606 210.9377 565.9206C210.9377 546.8706 225.5877 531.7406 244.6277 531.7406H432.6177V270.0206C432.6177 250.9806 447.2677 235.8406 466.3077 235.8406C485.3477 235.8406 500.4877 250.9806 500.4877 270.0206V565.9206C500.4877 584.9606 485.3477 599.6106 466.3077 599.6106Z"/>
</svg>