<?xml version="1.0" encoding="UTF-8" standalone="no"?>
<svg xmlns="http://www.w3.org/2000/svg"
     width="1099.609375" height="1131.8359375"
     viewBox="0 0 1099.609375 1131.8359375"
     fill="currentColor">
  <path d="M1063.9683 1131.8353C1083.0083 1131.8353 1099.6083 1117.1853 1099.6083 1098.1453V33.6953C1099.6083 14.6453 1083.0083 -0.0047 1063.9683 -0.0047C1044.9183 -0.0047 1027.8283 14.6453 1027.8283 33.6953V1098.1453C1027.8283 1117.1853 1044.9183 1131.8353 1063.9683 1131.8353ZM826.1683 519.0453C898.4383 519.0453 937.9883 480.4653 937.9883 409.1753V239.2553C937.9883 167.9653 898.4383 129.3953 826.1683 129.3953H457.5183C384.7683 129.3953 345.6983 167.9653 345.6983 239.2553V409.1753C345.6983 480.4653 384.7683 519.0453 457.5183 519.0453ZM826.1683 1002.9253C898.4383 1002.9253 937.9883 964.3553 937.9883 893.0653V723.1453C937.9883 652.3453 898.4383 613.2853 826.1683 613.2853H111.8183C39.0583 613.2853 -0.0017 652.3453 -0.0017 723.1453V893.0653C-0.0017 964.3553 39.0583 1002.9253 111.8183 1002.9253Z"/>
</svg>