<?xml version="1.0" encoding="UTF-8" standalone="no"?>
<svg xmlns="http://www.w3.org/2000/svg"
     width="937.98828125" height="1131.8359375"
     viewBox="0 0 937.98828125 1131.8359375"
     fill="currentColor">
  <path d="M111.8183 1002.9253H433.1083V1098.1453C433.1083 1117.1853 449.7083 1131.8353 468.7483 1131.8353C487.7883 1131.8353 504.8783 1117.1853 504.8783 1098.1453V1002.9253H826.1683C898.4383 1002.9253 937.9883 964.3553 937.9883 893.0653V723.1453C937.9883 652.3453 898.4383 613.2853 826.1683 613.2853H504.8783V519.0453H653.3183C725.5883 519.0453 765.1383 480.4653 765.1383 409.1753V239.2553C765.1383 167.9653 725.5883 129.3953 653.3183 129.3953H504.8783V33.6953C504.8783 14.6453 487.7883 -0.0047 468.7483 -0.0047C449.7083 -0.0047 433.1083 14.6453 433.1083 33.6953V129.3953H284.6683C211.9183 129.3953 172.8483 167.9653 172.8483 239.2553V409.1753C172.8483 480.4653 211.9183 519.0453 284.6683 519.0453H433.1083V613.2853H111.8183C39.0583 613.2853 -0.0017 652.3453 -0.0017 723.1453V893.0653C-0.0017 964.3553 39.0583 1002.9253 111.8183 1002.9253Z"/>
</svg>