<?xml version="1.0" encoding="UTF-8" standalone="no"?>
<svg xmlns="http://www.w3.org/2000/svg"
     width="1131.8359375" height="938.4765625"
     viewBox="0 0 1131.8359375 938.4765625"
     fill="currentColor">
  <path d="M34.1783 504.8825H129.3983V825.6825C129.3983 898.4425 167.9683 938.4725 239.2583 938.4725H409.1783C480.4683 938.4725 519.0383 898.4425 519.0383 825.6825V504.8825H613.2783V652.8325C613.2783 725.5825 652.3483 764.6525 723.6283 764.6525H893.5583C964.3583 764.6525 1003.4183 725.5825 1003.4183 652.8325V504.8825H1098.1483C1117.1883 504.8825 1131.8383 487.7925 1131.8383 468.7525C1131.8383 449.7025 1117.1883 433.1025 1098.1483 433.1025H1003.4183V284.6725C1003.4183 211.9125 964.3583 172.8525 893.5583 172.8525H723.6283C652.3483 172.8525 613.2783 211.9125 613.2783 284.6725V433.1025H519.0383V111.8125C519.0383 39.0625 480.4683 0.0025 409.1783 0.0025H239.2583C167.9683 0.0025 129.3983 39.0625 129.3983 111.8125V433.1025H34.1783C14.6483 433.1025 -0.0017 449.7025 -0.0017 468.7525C-0.0017 487.7925 14.6483 504.8825 34.1783 504.8825Z"/>
</svg>