<?xml version="1.0" encoding="UTF-8" standalone="no"?>
<svg xmlns="http://www.w3.org/2000/svg"
     width="997.0703125" height="895.01953125"
     viewBox="0 0 997.0703125 895.01953125"
     fill="currentColor">
  <path d="M45.8983 895.0147H281.2483C323.2383 895.0147 358.3983 872.0747 374.9983 833.9847L695.3083 111.8147C703.1283 95.7047 715.3283 88.3747 734.8683 88.3747H951.1683C976.5583 88.3747 997.0683 68.3547 997.0683 43.9447C997.0683 19.5347 976.5583 0.0047 951.1683 0.0047H712.8883C667.9683 0.0047 638.1883 19.0447 620.1183 60.0547L298.3383 782.7147C291.0183 798.8247 278.3183 806.6447 260.7383 806.6447H45.8983C20.0183 806.6447 -0.0017 826.1747 -0.0017 851.0747C-0.0017 875.9747 20.0183 895.0147 45.8983 895.0147ZM635.2583 895.0147H951.1683C977.0483 895.0147 996.5783 876.4647 996.5783 851.5647C996.5783 826.6647 977.0483 807.6147 951.1683 807.6147H635.2583C609.3783 807.6147 589.3583 826.6647 589.3583 851.5647C589.3583 876.4647 609.3783 895.0147 635.2583 895.0147Z"/>
</svg>