<?xml version="1.0" encoding="UTF-8" standalone="no"?>
<svg xmlns="http://www.w3.org/2000/svg"
     width="1087.40234375" height="936.03515625"
     viewBox="0 0 1087.40234375 936.03515625"
     fill="currentColor">
  <path d="M-0.0017 787.1059C-0.0017 887.2059 50.2883 936.0359 150.8783 936.0359H936.5283C1037.5983 936.0359 1087.3983 887.2059 1087.3983 787.1059V312.0159C1087.3983 212.4059 1037.5983 163.0859 936.5283 163.0859H828.6183V113.7659C828.6183 42.9659 782.7183 -0.0041 707.5183 -0.0041H380.3683C305.1783 -0.0041 259.2783 42.9659 259.2783 113.7659V163.0859H150.8783C50.2883 163.0859 -0.0017 212.4059 -0.0017 312.0159ZM336.9183 118.6559C336.9183 90.8159 356.4483 72.7559 385.2583 72.7559H702.6383C731.9383 72.7559 750.9783 90.8159 750.9783 118.6559V163.0859H336.9183ZM186.0383 449.7059C142.5783 449.7059 107.4183 414.5459 107.4183 370.6059C107.4183 327.1459 142.5783 291.9959 186.0383 291.9959C230.4683 291.9959 265.1383 327.1459 265.1383 370.6059C265.1383 414.5459 230.4683 449.7059 186.0383 449.7059ZM424.8083 449.7059C380.8583 449.7059 345.6983 414.5459 345.6983 370.6059C345.6983 327.1459 380.8583 291.9959 424.8083 291.9959C468.2583 291.9959 503.4183 327.1459 503.4183 370.6059C503.4183 414.5459 468.2583 449.7059 424.8083 449.7059ZM662.5983 449.7059C619.1383 449.7059 583.9883 414.5459 583.9883 370.6059C583.9883 327.1459 619.1383 291.9959 662.5983 291.9959C707.0283 291.9959 741.6983 327.1459 741.6983 370.6059C741.6983 414.5459 707.0283 449.7059 662.5983 449.7059ZM901.3683 449.7059C857.4183 449.7059 822.2683 414.5459 822.2683 370.6059C822.2683 327.1459 857.4183 291.9959 901.3683 291.9959C944.8283 291.9959 980.4683 327.1459 980.4683 370.6059C980.4683 414.5459 944.8283 449.7059 901.3683 449.7059ZM78.6183 783.2059V547.8559H1008.7883V783.2059C1008.7883 833.4959 983.3983 857.9059 935.5483 857.9059H151.8583C104.0083 857.9059 78.6183 833.4959 78.6183 783.2059Z"/>
</svg>