<?xml version="1.0" encoding="UTF-8" standalone="no"?>
<svg xmlns="http://www.w3.org/2000/svg"
     width="813.9943821009801" height="1166.50390625"
     viewBox="0 0 813.9943821009801 1166.50390625"
     fill="currentColor">
  <path d="M80.5955 1136.7225C103.5455 1136.7225 120.6355 1120.1125 116.2355 1092.2825L80.5955 858.4025C75.7155 829.1025 85.9655 815.9225 119.6555 806.6425L157.2555 796.3825C151.3955 814.4525 148.4655 834.9625 148.4655 858.4025C148.4655 1018.0625 269.0655 1166.5025 406.7655 1166.5025C544.9455 1166.5025 665.5555 1018.0625 665.5555 858.4025C665.5555 834.9625 662.6255 814.4525 656.7655 796.3825L694.3655 806.6425C728.0555 815.9225 737.8155 829.1025 733.4255 858.4025L697.7855 1092.2825C693.3855 1120.1125 710.4755 1136.7225 733.4255 1136.7225C757.3555 1136.7225 768.0955 1122.0725 771.9955 1097.6525L812.0355 844.2425C821.3155 787.1125 797.8755 756.3525 735.3755 741.2125L519.5555 689.9425V685.0625C540.5555 674.8025 555.2055 655.2725 563.0155 632.3225L706.0855 611.3325C767.1155 603.0225 794.4655 568.8525 794.4655 508.7925V339.8425C794.4655 315.9225 780.7855 302.2425 757.3555 302.2425C733.9155 302.2425 720.2455 316.4025 720.2455 339.8425V493.6525C720.2455 528.3225 701.6855 539.0625 669.9455 543.9425L563.0155 559.0825C557.6455 543.9425 547.8755 530.7625 534.6955 521.4825V516.6025C618.1955 501.9525 659.6955 451.1725 659.6955 376.9525C659.6955 314.4525 636.7455 257.3225 598.6555 212.8925L602.5655 209.9625C649.9255 175.7825 658.7155 125.4925 627.9555 71.2925L599.1455 23.9225C589.8755 7.3225 579.1255 0.0025 563.9955 0.0025C543.4855 0.0025 528.8355 14.6525 528.8355 33.6925C528.8355 42.4825 530.3055 47.3625 535.6755 57.1325L561.0655 95.7025C578.1555 123.5325 576.1955 146.9725 551.7855 164.5525L547.8755 166.9925C507.3555 139.6525 459.0155 123.5325 406.7655 123.5325C355.4955 123.5325 307.1555 139.1625 267.1155 166.5025L264.1855 164.5525C239.7755 146.9725 237.8155 123.5325 254.9055 95.7025L280.3055 57.1325C285.6755 47.3625 287.1355 42.4825 287.1355 33.6925C287.1355 14.6525 271.9955 0.0025 251.9755 0.0025C236.8455 0.0025 226.1055 7.3225 216.8255 23.9225L188.0155 71.2925C157.2555 125.4925 166.0455 175.7825 213.4055 209.9625L215.8455 211.9125C177.2755 256.3525 153.8355 314.4525 153.8355 376.9525C153.8355 451.1725 195.8255 501.9525 279.3255 516.6025V521.4825C265.6555 530.7625 256.3755 543.9425 251.0055 559.0825L144.0655 543.9425C111.8455 539.0625 93.7755 528.3225 93.7755 493.6525V339.8425C93.7755 316.4025 80.1055 302.2425 56.6655 302.2425C33.2255 302.2425 19.5555 315.9225 19.5555 339.8425V508.7925C19.5555 568.8525 46.9055 603.0225 107.9355 611.3325L251.0055 632.3225C258.3255 655.2725 272.9755 674.8025 294.4655 685.0625V689.9425L78.6455 741.2125C15.6555 756.3525 -7.2945 787.1125 1.9755 844.2425L42.0155 1097.6525C45.4355 1122.0725 56.6655 1136.7225 80.5955 1136.7225ZM318.8755 444.8225C265.1655 444.8225 234.4055 418.9425 234.4055 374.0225C234.4055 283.2025 314.9655 204.5925 406.7655 204.5925C498.5655 204.5925 579.6155 283.2025 579.6155 374.0225C579.6155 418.9425 548.3655 444.8225 495.1455 444.8225ZM318.3855 591.7925C318.3855 546.8725 345.7255 520.9925 393.0955 520.9925H421.4155C468.2855 520.9925 495.1455 546.8725 495.1455 591.7925C495.1455 646.9725 457.5455 693.8525 412.6255 693.8525H401.3955C356.4755 693.8525 318.3855 646.9725 318.3855 591.7925ZM406.7655 1084.9625C306.1755 1084.9625 228.0555 966.7925 228.0555 868.6525C228.0555 803.2225 266.1455 763.6725 339.3855 763.6725H474.6355C547.8755 763.6725 585.4755 803.2225 585.4755 868.6525C585.4755 966.7925 507.8355 1084.9625 406.7655 1084.9625Z"/>
</svg>