<?xml version="1.0" encoding="UTF-8" standalone="no"?>
<svg xmlns="http://www.w3.org/2000/svg"
     width="996.09375" height="996.09375"
     viewBox="0 0 996.09375 996.09375"
     fill="currentColor">
  <path d="M498.0477 996.0977C770.5077 996.0977 996.0977 770.5077 996.0977 498.0477C996.0977 226.0777 770.0177 -0.0023 497.5577 -0.0023C225.5877 -0.0023 -0.0023 226.0777 -0.0023 498.0477C-0.0023 770.5077 226.0777 996.0977 498.0477 996.0977ZM270.5077 632.8077C265.1377 600.5877 278.3177 582.5177 313.9677 573.7277L433.1077 546.3877C423.8277 541.5077 413.5777 530.7577 409.1777 515.1377L330.5677 503.9077C295.8977 499.0277 280.2777 479.9777 280.2777 445.7977V351.0777C280.2777 336.9177 288.5777 328.6177 302.7377 328.6177C315.9177 328.6177 324.2177 336.9177 324.2177 351.0777V437.0077C324.2177 455.5677 334.4777 461.4277 351.5577 463.8677L410.1577 472.1677C412.5977 462.8877 418.4577 455.0777 423.8277 450.1977C378.9077 441.4077 355.9577 413.5777 355.9577 371.5777C355.9577 337.8877 368.1677 305.6677 389.1577 280.7577L387.6977 279.2977C360.8377 260.2577 356.4477 231.4477 373.5377 200.1977L388.6677 174.3177C394.0477 164.0577 400.8777 160.1577 410.1577 160.1577C422.3677 160.1577 430.6677 168.9477 430.6677 180.1777C430.6677 185.0577 430.1777 188.9677 426.7577 193.8477L413.5777 215.3277C405.7577 228.0277 402.8277 239.2577 412.1077 247.0677L418.9477 252.4377C442.3877 237.3077 472.1677 228.5177 498.5377 228.5177C524.4177 228.5177 554.1977 237.3077 577.6377 252.4377L584.4777 247.0677C594.2377 239.2577 591.3077 228.0277 583.4977 215.3277L569.8277 193.8477C566.8977 188.9677 565.9177 185.0577 565.9177 180.1777C565.9177 168.4577 574.7077 160.1577 586.4277 160.1577C596.1877 160.1577 602.0477 164.5477 607.9077 174.3177L623.0477 200.1977C641.1177 230.9577 635.7377 260.2577 608.8877 279.2977L607.4177 280.7577C628.4177 305.6677 640.6277 337.8877 640.6277 371.5777C640.6277 413.5777 618.1677 441.8977 573.2377 450.1977C578.6177 455.0777 583.9877 463.3777 586.4277 472.1677L645.0177 463.8677C662.1077 460.9377 672.3677 455.5677 672.3677 437.0077V351.0777C672.3677 336.9177 680.6677 328.6177 693.8477 328.6177C708.4977 328.6177 716.7977 336.9177 716.7977 351.0777V445.7977C716.7977 479.9777 700.6877 499.0277 666.5077 503.9077L587.8877 515.1377C583.0077 530.7577 572.7577 541.9877 563.9677 546.3877L683.1077 573.7277C718.2577 583.0077 731.9377 600.5877 726.5577 632.8077L704.0977 774.8977C702.1477 789.0577 695.3077 798.3377 681.6377 798.3377C667.4777 798.3377 657.2277 787.5977 659.6677 771.4877L679.6877 641.1177C682.1277 625.4877 677.2477 618.1677 659.1777 613.2777C652.3477 611.3277 645.5077 609.8677 639.1577 607.9077C642.5777 617.1877 644.0477 628.4177 644.0477 641.1177C644.0477 730.4677 576.6577 813.9677 498.5377 813.9677C419.9177 813.9677 353.0277 730.4677 353.0277 641.1177C353.0277 628.4177 354.4877 617.1877 357.9077 607.9077C351.0777 609.8677 344.2377 611.3277 337.8877 613.2777C319.8277 618.1677 314.4577 625.4877 317.3877 641.1177L336.9177 771.4877C339.3577 787.5977 329.0977 798.3377 315.4277 798.3377C301.7577 798.3377 294.9177 789.0577 292.4777 774.8977Z"/>
</svg>