<?xml version="1.0" encoding="UTF-8" standalone="no"?>
<svg xmlns="http://www.w3.org/2000/svg"
     width="1036.62109375" height="1027.587890625"
     viewBox="0 0 1036.62109375 1027.587890625"
     fill="currentColor">
  <path d="M944.8277 940.1816C959.4777 954.8316 983.3977 954.8316 998.0477 940.1816C1012.2077 925.0516 1012.6977 901.6116 998.0477 886.9616L122.0677 10.9816C107.4177 -3.6584 83.0077 -3.6584 68.3577 10.9816C54.1977 25.1416 54.1977 50.0516 68.3577 64.2116ZM950.6877 748.2916C1005.8577 667.7216 1036.6177 571.0416 1036.6177 467.5316C1036.6177 341.0616 990.7277 223.8816 909.6677 135.9816C891.1177 115.4816 863.7677 115.4816 848.1477 133.5416C832.5177 151.1216 837.3977 174.0716 854.9777 194.0916C920.4077 266.8416 957.0277 362.5516 957.0277 467.5316C957.0277 550.0516 934.0777 625.7316 892.5777 690.1816ZM188.4777 801.5116C204.0977 783.9316 199.2177 760.9816 181.6377 740.9716C116.2077 668.2116 79.5877 572.5116 79.5877 467.5316C79.5877 381.1016 104.4877 302.0016 149.4177 236.0816L92.2877 178.9516C32.7177 260.0116 -0.0023 360.1116 -0.0023 467.5316C-0.0023 593.9916 45.8977 711.1816 126.9577 799.0716C145.5077 819.5816 172.8477 819.5816 188.4777 801.5116ZM801.2677 598.3916C820.7977 558.8416 831.0577 514.4016 831.0577 467.5316C831.0577 395.7516 806.6377 328.8616 764.1577 276.1216C747.0677 253.6616 717.7777 254.1516 701.6577 272.7016C686.0377 290.2816 692.8677 311.7716 708.0077 333.2516C735.8377 370.8516 751.4677 416.7516 751.4677 467.5316C751.4677 491.9416 747.5577 515.3816 738.7677 536.3816ZM334.9577 662.3516C350.5877 644.7716 344.2377 622.8016 328.6177 601.8016C299.3177 565.6716 285.1577 518.3116 285.1577 467.5316C285.1577 439.2116 291.0177 412.3516 301.2677 387.4516L240.2377 326.4116C217.2877 368.8916 205.5677 417.2316 205.5677 467.5316C205.5677 539.3016 229.9777 606.2016 272.4577 658.9316C289.5477 681.3916 318.8477 680.9116 334.9577 662.3516ZM518.5577 1027.5916C541.5077 1027.5916 555.6677 1010.9816 555.6677 985.5916V642.3316L480.9577 567.6316V985.5916C480.9577 1010.5016 496.0977 1027.5916 518.5577 1027.5916Z"/>
</svg>