<?xml version="1.0" encoding="UTF-8" standalone="no"?>
<svg xmlns="http://www.w3.org/2000/svg"
     width="1036.62109375" height="907.3020935343434"
     viewBox="0 0 1036.62109375 907.3020935343434"
     fill="currentColor">
  <path d="M848.1477 681.2258C863.7677 699.2958 891.1177 699.2958 909.6677 678.7858C990.7277 590.8958 1036.6177 473.7058 1036.6177 347.2458C1036.6177 220.7758 990.7277 103.5958 909.6677 15.6958C891.1177 -4.8042 863.7677 -4.8042 848.1477 13.2558C832.5177 30.8358 837.3977 53.7858 854.9777 73.8058C920.4077 146.5558 957.0277 242.2658 957.0277 347.2458C957.0277 452.2258 920.4077 547.9258 854.9777 620.6858C837.3977 640.6958 832.5177 663.6458 848.1477 681.2258ZM-0.0023 347.2458C-0.0023 473.7058 45.8977 590.8958 126.9577 678.7858C145.5077 699.2958 172.8477 699.2958 188.4777 681.2258C204.0977 663.6458 199.2177 640.6958 181.6377 620.6858C116.2077 547.9258 79.5877 452.2258 79.5877 347.2458C79.5877 242.2658 116.2077 146.5558 181.6377 73.8058C199.2177 53.7858 204.0977 30.8358 188.4777 13.2558C172.8477 -4.8042 145.5077 -4.8042 126.9577 15.6958C45.8977 103.5958 -0.0023 220.7758 -0.0023 347.2458ZM205.5677 347.2458C205.5677 419.0158 229.9777 485.9158 272.4577 538.6458C289.5477 561.1058 318.8477 560.6258 334.9577 542.0658C350.5877 524.4858 344.2377 502.5158 328.6177 481.5158C299.3177 445.3858 285.1577 398.0258 285.1577 347.2458C285.1577 296.4658 300.7777 250.5658 328.6177 212.9658C343.7477 191.4858 350.5877 169.9958 334.9577 152.4158C318.8477 133.8658 289.5477 133.3758 272.4577 155.8358C229.9777 208.5758 205.5677 275.4658 205.5677 347.2458ZM701.6577 542.0658C717.7777 560.6258 747.0677 561.1058 764.1577 538.6458C806.6377 485.9158 831.0577 419.0158 831.0577 347.2458C831.0577 275.4658 806.6377 208.5758 764.1577 155.8358C747.0677 133.3758 717.7777 133.8658 701.6577 152.4158C686.0377 169.9958 692.8677 191.4858 708.0077 212.9658C735.8377 250.5658 751.4677 296.4658 751.4677 347.2458C751.4677 398.0258 737.3077 445.3858 708.0077 481.5158C692.3877 502.5158 686.0377 524.4858 701.6577 542.0658ZM430.6677 347.2458C430.6677 382.3958 450.6877 412.6758 480.9577 426.3458V865.3058C480.9577 890.2158 496.0977 907.3058 518.5577 907.3058C541.5077 907.3058 555.6677 890.6958 555.6677 865.3058V426.3458C585.4477 412.6758 605.9577 381.9158 605.9577 347.2458C605.9577 298.4158 567.3877 258.8658 518.5577 258.8658C469.2377 258.8658 430.6677 298.4158 430.6677 347.2458Z"/>
</svg>