<?xml version="1.0" encoding="UTF-8" standalone="no"?>
<svg xmlns="http://www.w3.org/2000/svg"
     width="861.81640625" height="1062.5"
     viewBox="0 0 861.81640625 1062.5"
     fill="currentColor">
  <path d="M119.6283 336.4208C119.6283 434.0808 180.1783 502.4408 296.3883 534.6708L541.9883 604.0008C622.5583 626.9508 664.0583 668.4608 664.0583 727.0508V744.1408H636.7183C607.4183 744.1408 582.0283 747.0708 563.9683 765.1408C545.8983 783.2008 543.4583 808.1008 543.4583 837.4008V969.2408C543.4583 999.0208 545.8983 1024.4108 563.9683 1041.9908C582.0283 1060.0608 607.4183 1062.5008 636.7183 1062.5008H768.5583C798.3383 1062.5008 823.7283 1060.0608 841.7983 1041.9908C859.3783 1024.4108 861.8183 999.0208 861.8183 969.2408V837.4008C861.8183 808.1008 859.3783 783.2008 841.7983 765.1408C823.7283 747.0708 798.3383 744.1408 768.5583 744.1408H742.6783V727.0508C742.6783 629.8808 682.1283 561.5208 565.9183 529.3008L320.3083 459.9608C240.2383 437.5008 198.2383 395.0208 198.2383 336.4208V318.8508H225.0983C254.8783 318.8508 280.2783 315.9208 298.3383 297.8508C315.9183 280.2708 318.8483 254.8808 318.8483 225.1008V93.7508C318.8483 63.9608 315.9183 39.0608 298.3383 21.0008C280.2783 2.9308 254.8783 0.0008 225.0983 0.0008H93.2583C63.9683 0.0008 38.5783 2.9308 20.5083 21.0008C2.4383 39.0608 -0.0017 63.9608 -0.0017 93.2608V225.1008C-0.0017 254.8808 2.4383 280.2708 20.5083 297.8508C38.5783 315.9208 63.9683 318.8508 93.7483 318.8508H119.6283Z"/>
</svg>