<?xml version="1.0" encoding="UTF-8" standalone="no"?>
<svg xmlns="http://www.w3.org/2000/svg"
     width="845.1847039029552" height="1211.9508065888533"
     viewBox="0 0 845.1847039029552 1211.9508065888533"
     fill="currentColor">
  <path d="M0.0309 522.4644C-0.9391 573.7344 20.0509 620.6044 60.0909 660.6444L271.5209 872.5544C188.0209 928.2244 153.8409 980.4644 153.8409 1048.8244C153.8409 1149.4144 234.4109 1210.4444 319.3709 1211.9144C368.2009 1212.8944 412.6309 1194.3344 442.4109 1164.0644L788.6109 816.8944C869.1709 736.3244 863.3109 640.6244 773.4709 551.2744L578.6509 356.4444L645.5409 289.0644C678.7409 255.8544 698.2709 212.8944 697.7909 170.4144C699.2509 74.7044 625.5209 0.4844 528.8409 0.0044C474.6409 0.0044 432.6509 19.5344 386.2609 66.8944L50.3209 401.8544C18.1009 433.5944 0.5209 476.0744 0.0309 522.4644ZM201.6909 361.8144L441.4409 122.0744C473.6609 89.8444 495.6409 78.6144 528.8409 78.6144C582.0609 78.6144 620.1509 116.6944 620.1509 169.4344C620.1509 191.4044 608.9209 214.8444 590.3609 233.8844L331.0909 492.6744C322.7909 421.8744 275.4209 373.5344 201.6909 361.8144ZM81.5709 529.2944C81.5709 472.6544 116.2409 434.5744 168.0009 434.5744C221.7109 434.5744 258.8209 473.6344 258.8209 532.7144C258.8209 539.5544 258.8209 560.0544 250.0309 583.4944C236.3609 624.5144 286.1609 649.4144 315.9509 618.6544L522.9809 412.1044L718.2909 606.4444C777.8609 666.0144 781.7709 712.8944 733.4309 761.7144L481.9709 1013.1844C474.6409 972.6544 450.7209 941.4044 401.4009 892.0944L133.3309 622.5544C93.7809 583.0044 81.5709 560.0544 81.5709 529.2944ZM232.4509 1053.2244C232.4509 1006.3444 259.8009 971.6844 328.6509 929.6844L346.2209 947.2644C395.5409 997.0744 409.2109 1019.0444 409.7009 1053.2244C409.7009 1097.1644 369.6609 1132.8144 319.3709 1132.8144C273.9609 1132.8144 232.4509 1100.5844 232.4509 1053.2244Z"/>
</svg>