<?xml version="1.0" encoding="UTF-8" standalone="no"?>
<svg xmlns="http://www.w3.org/2000/svg"
     width="975.09765625" height="971.19140625"
     viewBox="0 0 975.09765625 971.19140625"
     fill="currentColor">
  <path d="M260.2583 971.1923H714.3583C797.8483 971.1923 868.1683 963.3823 917.9683 913.5723C967.7783 863.7723 975.0983 793.9423 975.0983 710.4523V260.2523C975.0983 176.7623 967.7783 107.4223 917.9683 57.6123C868.1683 7.8123 797.8483 0.0023 714.3583 0.0023H259.2783C177.2483 0.0023 106.9383 7.8123 57.1283 57.6123C7.3283 107.4223 -0.0017 177.2423 -0.0017 259.2723V710.4523C-0.0017 793.9423 7.3283 863.7723 57.1283 913.5723C106.9383 963.3823 177.2483 971.1923 260.2583 971.1923ZM247.0683 892.5823C196.7783 892.5823 144.0383 885.7423 114.2583 855.9523C84.9583 826.6623 78.6183 774.4123 78.6183 724.1223V248.5323C78.6183 196.7723 84.9583 144.5323 114.2583 114.7423C144.0383 85.4523 197.2683 78.6123 248.5383 78.6123H728.0283C778.3183 78.6123 831.0583 85.4523 860.3483 115.2323C890.1383 144.5323 896.4883 196.7723 896.4883 247.0723V724.1223C896.4883 774.4123 890.1383 826.6623 860.3483 855.9523C831.0583 885.7423 778.3183 892.5823 728.0283 892.5823ZM268.0683 378.4223C307.6183 382.8123 338.3783 339.3523 335.9383 304.6923C296.3883 306.1523 267.0883 341.3123 268.0683 378.4223ZM536.6183 328.6123H485.8383V386.2323H450.6883V425.2923H485.8383V566.8923C485.8383 616.2123 505.3683 633.7923 555.1783 633.7923C565.9183 633.7923 578.1283 632.3223 582.5183 631.8323V590.3323C580.0783 591.7923 571.2883 591.7923 565.9183 591.7923C545.8983 591.7923 536.6183 583.4923 536.6183 561.0323V425.2923H583.4983V386.2323H536.6183ZM402.8283 547.3623C384.2783 539.0623 372.0683 526.8523 365.2383 509.2723C357.9083 490.2323 358.8883 470.7023 365.2383 454.1023C368.6483 442.8723 375.9783 429.2023 395.0183 417.9723C380.8583 396.9723 358.3983 386.2323 332.0283 386.2323C302.2483 386.2323 285.1583 401.8523 270.0183 401.8523C257.3283 401.8523 243.1683 386.7223 219.2383 386.7223C193.3583 386.7223 172.3683 397.4623 158.6883 415.0423C142.0883 435.5423 135.2583 460.4523 135.2583 486.3323C135.2583 528.8123 153.8083 578.6123 181.6383 609.8623C196.7783 625.9723 208.0083 634.2723 221.1883 634.2723C241.2083 634.2723 251.9483 619.6323 275.8783 619.6323C286.6183 619.6323 295.4083 624.0223 301.7583 625.9723C311.5283 629.3923 318.3583 633.7923 329.5883 633.7923C341.7983 633.7923 351.5583 628.9023 357.9083 623.0423C378.9083 602.0523 395.9983 572.2623 402.8283 547.3623ZM749.0283 631.8323L837.8883 386.2323H782.7183L723.1483 583.4923L659.6683 386.2323H605.9583L696.2883 631.8323Z"/>
</svg>