<?xml version="1.0" encoding="UTF-8" standalone="no"?>
<svg xmlns="http://www.w3.org/2000/svg"
     width="526.3671875" height="1078.61328125"
     viewBox="0 0 526.3671875 1078.61328125"
     fill="currentColor">
  <path d="M-0.0017 973.1464C-0.0017 1037.5964 42.9683 1078.6164 111.3283 1078.6164H415.0383C483.3983 1078.6164 526.3683 1037.5964 526.3683 973.1464V105.4664C526.3683 41.5064 483.3983 -0.0036 415.0383 -0.0036H111.3283C42.9683 -0.0036 -0.0017 41.5064 -0.0017 105.4664ZM72.2683 962.8864V115.7264C72.2683 88.3764 90.3283 71.2864 119.6283 71.2864H406.7383C436.5283 71.2864 454.0983 88.3764 454.0983 115.7264V962.8864C454.0983 990.2364 436.5283 1007.3264 406.7383 1007.3264H119.6283C90.3283 1007.3264 72.2683 990.2364 72.2683 962.8864ZM263.6683 467.2864C348.6283 467.2864 417.4783 397.9464 417.4783 313.4764C417.4783 228.5164 348.6283 159.1764 263.6683 159.1764C178.7083 159.1764 109.3783 228.5164 109.3783 313.4764C109.3783 397.9464 178.7083 467.2864 263.6683 467.2864ZM263.6683 375.4864C229.0083 375.4864 201.1683 347.6564 201.1683 313.4764C201.1683 278.8064 229.0083 250.9764 263.6683 250.9764C298.3383 250.9764 325.6883 278.8064 325.6883 313.4764C325.6883 347.6564 298.3383 375.4864 263.6683 375.4864ZM263.6683 633.7864C294.9183 633.7864 320.3083 608.3964 320.3083 577.1464C320.3083 545.4064 294.9183 520.0164 263.6683 520.0164C231.9383 520.0164 206.0583 545.4064 206.0583 577.1464C206.0583 608.3964 231.9383 633.7864 263.6683 633.7864Z"/>
</svg>