<?xml version="1.0" encoding="UTF-8" standalone="no"?>
<svg xmlns="http://www.w3.org/2000/svg"
     width="473.6328125" height="1078.61328125"
     viewBox="0 0 473.6328125 1078.61328125"
     fill="currentColor">
  <path d="M114.7483 1078.6098H358.8883C431.1483 1078.6098 473.6283 1036.1298 473.6283 963.8698V114.7498C473.6283 42.4798 431.1483 -0.0002 358.8883 -0.0002H114.7483C42.4783 -0.0002 -0.0017 42.4798 -0.0017 114.7498V963.8698C-0.0017 1036.1298 42.4783 1078.6098 114.7483 1078.6098ZM149.8983 421.8798C114.7483 421.8798 87.3983 393.5498 87.3983 359.3798C87.3983 324.7098 114.7483 296.8798 149.8983 296.8798C184.0783 296.8798 211.9183 324.7098 211.9183 359.3798C211.9183 393.5498 184.0783 421.8798 149.8983 421.8798ZM322.7583 421.8798C288.0883 421.8798 260.2583 393.5498 260.2583 359.3798C260.2583 324.7098 288.0883 296.8798 322.7583 296.8798C357.4183 296.8798 385.2583 324.7098 385.2583 359.3798C385.2583 393.5498 357.4183 421.8798 322.7583 421.8798ZM149.8983 602.0498C114.7483 602.0498 87.3983 573.7298 87.3983 539.5498C87.3983 504.8798 114.7483 477.0498 149.8983 477.0498C184.0783 477.0498 211.9183 504.8798 211.9183 539.5498C211.9183 573.7298 184.0783 602.0498 149.8983 602.0498ZM322.2683 781.7398C289.5483 781.7398 263.6683 755.8598 263.6683 722.1698V536.6198C263.6683 503.4198 289.5483 477.0498 322.2683 477.0498C355.4683 477.0498 382.8083 503.4198 382.8083 536.6198V722.1698C382.8083 755.8598 355.4683 781.7398 322.2683 781.7398ZM149.8983 781.7398C114.7483 781.7398 87.3983 754.3898 87.3983 719.2398C87.3983 685.0598 114.7483 656.7398 149.8983 656.7398C184.0783 656.7398 211.9183 685.0598 211.9183 719.2398C211.9183 754.3898 184.0783 781.7398 149.8983 781.7398Z"/>
</svg>