<?xml version="1.0" encoding="UTF-8" standalone="no"?>
<svg xmlns="http://www.w3.org/2000/svg"
     width="484.375" height="1078.61328125"
     viewBox="0 0 484.375 1078.61328125"
     fill="currentColor">
  <path d="M-0.0017 973.1464C-0.0017 1037.5964 42.9683 1078.6164 111.3283 1078.6164H373.0483C441.4083 1078.6164 484.3783 1037.5964 484.3783 973.1464V105.4664C484.3783 41.5064 441.4083 -0.0036 373.0483 -0.0036H111.3283C42.9683 -0.0036 -0.0017 41.5064 -0.0017 105.4664ZM242.6783 479.4964C151.3683 479.4964 76.6583 404.7864 76.6583 313.4764C76.6583 222.1664 151.3683 147.4564 242.6783 147.4564C333.9883 147.4564 408.1983 222.1664 408.1983 313.4764C408.1983 404.7864 333.9883 479.4964 242.6783 479.4964ZM242.6783 380.3664C279.7883 380.3664 309.5683 350.5864 309.5683 313.4764C309.5683 276.3664 279.7883 246.0964 242.6783 246.0964C205.5683 246.0964 175.2883 276.3664 175.2883 313.4764C175.2883 350.5864 205.5683 380.3664 242.6783 380.3664ZM242.6783 671.8764C207.5183 671.8764 179.6883 644.0464 179.6883 609.8664C179.6883 574.7064 207.5183 547.3664 242.6783 547.3664C276.8583 547.3664 304.6883 574.7064 304.6883 609.8664C304.6883 644.0464 276.8583 671.8764 242.6783 671.8764Z"/>
</svg>