<?xml version="1.0" encoding="UTF-8" standalone="no"?>
<svg xmlns="http://www.w3.org/2000/svg"
     width="975.09765625" height="971.19140625"
     viewBox="0 0 975.09765625 971.19140625"
     fill="currentColor">
  <path d="M260.2583 971.1923H714.3583C797.8483 971.1923 868.1683 963.3823 917.9683 913.5723C967.7783 863.7723 975.0983 793.9423 975.0983 710.4523V260.2523C975.0983 176.7623 967.7783 107.4223 917.9683 57.6123C868.1683 7.8123 797.8483 0.0023 714.3583 0.0023H259.2783C177.2483 0.0023 106.9383 7.8123 57.1283 57.6123C7.3283 107.4223 -0.0017 177.2423 -0.0017 259.2723V710.4523C-0.0017 793.9423 7.3283 863.7723 57.1283 913.5723C106.9383 963.3823 177.2483 971.1923 260.2583 971.1923ZM261.2283 375.4923C260.2583 337.4023 290.5283 301.2723 331.0583 299.3123C333.9883 335.4523 302.2483 379.8823 261.2283 375.4923ZM538.0883 324.2223V383.7923H586.4283V423.8323H538.0883V563.9623C538.0883 586.9123 547.8483 595.7023 568.3583 595.7023C573.7283 595.7023 583.0083 595.7023 585.4483 594.2423V636.7223C581.0583 637.2023 568.3583 638.6723 557.1283 638.6723C505.8583 638.6723 485.8383 620.6023 485.8383 569.8223V423.8323H449.7083V383.7923H485.8383V324.2223ZM400.3883 549.8023C393.0683 575.6823 375.4883 605.9523 354.0083 627.9323C347.1683 633.7923 337.3983 638.6723 324.7083 638.6723C312.9883 638.6723 306.1483 634.2723 295.8983 630.8623C289.5483 628.9023 280.2783 624.5123 269.5283 624.5123C244.6283 624.5123 233.3983 639.6523 212.8883 639.6523C199.2183 639.6523 187.9883 630.8623 172.3683 614.2623C143.5583 582.0323 124.5083 530.7623 124.5083 486.8123C124.5083 459.9623 131.3483 434.5723 148.4383 413.5723C162.5983 395.0223 184.0783 384.2723 210.9383 384.2723C235.3483 384.2723 249.9983 399.9023 263.1883 399.9023C278.8083 399.9023 296.3883 383.7923 327.1483 383.7923C354.4883 383.7923 377.4383 394.5323 392.0883 416.5023C372.5583 427.7323 365.2383 441.8923 361.3283 453.6123C354.9783 470.7023 354.0083 490.7223 361.3283 510.7423C368.6483 528.8123 380.8583 541.0123 400.3883 549.8023ZM757.3283 636.7223H702.6383L609.8683 383.7923H665.0383L730.4683 586.9123L791.9883 383.7923H848.6283Z"/>
</svg>