<?xml version="1.0" encoding="UTF-8" standalone="no"?>
<svg xmlns="http://www.w3.org/2000/svg"
     width="786.1328125" height="966.30859375"
     viewBox="0 0 786.1328125 966.30859375"
     fill="currentColor">
  <path d="M535.648 154.2947C565.428 118.1647 586.428 68.8447 586.428 19.0447C586.428 12.2047 585.938 5.3747 584.958 0.0047C536.128 1.9547 477.538 32.2247 442.868 73.2447C415.038 104.4947 389.648 154.2947 389.648 204.1047C389.648 211.9147 391.118 219.2347 391.598 221.6747C394.528 222.1647 399.418 223.1447 404.788 223.1447C448.238 223.1447 502.928 193.8447 535.648 154.2947ZM569.828 233.3947C497.068 233.3947 437.498 277.8347 399.418 277.8347C358.888 277.8347 306.148 236.3247 242.678 236.3247C122.068 236.3247 -0.002 335.9347 -0.002 523.4347C-0.002 640.6247 44.918 764.1647 101.078 843.7547C148.928 911.1347 190.918 966.3047 251.468 966.3047C311.038 966.3047 337.398 926.7547 411.618 926.7547C486.818 926.7547 503.908 965.3347 569.828 965.3347C635.258 965.3347 678.708 905.2747 720.218 846.1947C766.118 778.3247 785.648 712.4047 786.128 708.9847C782.228 708.0047 657.228 656.7347 657.228 513.6747C657.228 389.6447 755.368 333.9847 761.228 329.5947C696.288 236.3247 597.168 233.3947 569.828 233.3947Z"/>
</svg>