<?xml version="1.0" encoding="UTF-8" standalone="no"?>
<svg xmlns="http://www.w3.org/2000/svg"
     width="1151.3671875" height="898.92578125"
     viewBox="0 0 1151.3671875 898.92578125"
     fill="currentColor">
  <path d="M153.3183 898.9295H998.0483C1100.5883 898.9295 1151.3683 848.1495 1151.3683 747.5595V151.3695C1151.3683 50.7795 1100.5883 -0.0005 998.0483 -0.0005H153.3183C51.2683 -0.0005 -0.0017 50.2895 -0.0017 151.3695V747.5595C-0.0017 848.6295 51.2683 898.9295 153.3183 898.9295ZM154.2983 820.3095C105.4683 820.3095 78.6183 794.4295 78.6183 743.6495V155.2695C78.6183 104.4895 105.4683 78.6095 154.2983 78.6095H997.0683C1045.4083 78.6095 1072.7583 104.4895 1072.7583 155.2695V743.6495C1072.7583 794.4295 1045.4083 820.3095 997.0683 820.3095ZM199.2183 268.0695H247.5583C261.7183 268.0695 272.9483 258.2995 272.9483 244.6295V194.8195C272.9483 180.6595 261.7183 171.3895 247.5583 171.3895H199.2183C186.0383 171.3895 175.7783 181.1495 175.7783 194.8195V244.6295C175.7783 257.8095 186.0383 268.0695 199.2183 268.0695ZM374.9983 268.0695H423.3383C437.9883 268.0695 448.7283 258.2995 448.7283 244.6295V194.8195C448.7283 180.6595 437.9883 171.3895 423.3383 171.3895H374.9983C361.8183 171.3895 351.5583 181.1495 351.5583 194.8195V244.6295C351.5583 257.8095 361.8183 268.0695 374.9983 268.0695ZM550.7783 268.0695H599.1183C613.2783 268.0695 624.0283 258.2995 624.0283 244.6295V194.8195C624.0283 180.6595 613.2783 171.3895 599.1183 171.3895H550.7783C537.1083 171.3895 527.3483 181.1495 527.3483 194.8195V244.6295C527.3483 257.8095 537.1083 268.0695 550.7783 268.0695ZM726.0783 268.0695H774.4183C789.0583 268.0695 799.8083 258.2995 799.8083 244.6295V194.8195C799.8083 180.6595 789.0583 171.3895 774.4183 171.3895H726.0783C712.8883 171.3895 702.6383 181.1495 702.6383 194.8195V244.6295C702.6383 257.8095 712.8883 268.0695 726.0783 268.0695ZM901.8583 268.0695H950.1983C964.3583 268.0695 975.0983 258.2995 975.0983 244.6295V194.8195C975.0983 180.6595 964.3583 171.3895 950.1983 171.3895H901.8583C888.1883 171.3895 878.4183 181.1495 878.4183 194.8195V244.6295C878.4183 257.8095 888.1883 268.0695 901.8583 268.0695ZM199.2183 429.1995H247.5583C261.7183 429.1995 272.9483 419.4295 272.9483 405.7595V355.9595C272.9483 341.7995 261.7183 332.5195 247.5583 332.5195H199.2183C186.0383 332.5195 175.7783 342.2895 175.7783 355.9595V405.7595C175.7783 418.9495 186.0383 429.1995 199.2183 429.1995ZM374.9983 429.1995H423.3383C437.9883 429.1995 448.7283 419.4295 448.7283 405.7595V355.9595C448.7283 341.7995 437.9883 332.5195 423.3383 332.5195H374.9983C361.8183 332.5195 351.5583 342.2895 351.5583 355.9595V405.7595C351.5583 418.9495 361.8183 429.1995 374.9983 429.1995ZM550.7783 429.1995H599.1183C613.2783 429.1995 624.0283 419.4295 624.0283 405.7595V355.9595C624.0283 341.7995 613.2783 332.5195 599.1183 332.5195H550.7783C537.1083 332.5195 527.3483 342.2895 527.3483 355.9595V405.7595C527.3483 418.9495 537.1083 429.1995 550.7783 429.1995ZM726.0783 429.1995H774.4183C789.0583 429.1995 799.8083 419.4295 799.8083 405.7595V355.9595C799.8083 341.7995 789.0583 332.5195 774.4183 332.5195H726.0783C712.8883 332.5195 702.6383 342.2895 702.6383 355.9595V405.7595C702.6383 418.9495 712.8883 429.1995 726.0783 429.1995ZM199.2183 727.5395H247.5583C261.7183 727.5395 272.9483 717.7695 272.9483 704.0995V654.2995C272.9483 640.1395 261.7183 630.3695 247.5583 630.3695H199.2183C186.0383 630.3695 175.7783 640.6295 175.7783 654.2995V704.0995C175.7783 717.2895 186.0383 727.5395 199.2183 727.5395ZM374.9983 727.5395H423.3383C437.9883 727.5395 448.7283 717.7695 448.7283 704.0995V654.2995C448.7283 640.1395 437.9883 630.3695 423.3383 630.3695H374.9983C361.8183 630.3695 351.5583 640.6295 351.5583 654.2995V704.0995C351.5583 717.2895 361.8183 727.5395 374.9983 727.5395ZM550.7783 727.5395H599.1183C613.2783 727.5395 624.0283 717.7695 624.0283 704.0995V654.2995C624.0283 640.1395 613.2783 630.3695 599.1183 630.3695H550.7783C537.1083 630.3695 527.3483 640.6295 527.3483 654.2995V704.0995C527.3483 717.2895 537.1083 727.5395 550.7783 727.5395ZM726.0783 727.5395H774.4183C789.0583 727.5395 799.8083 717.7695 799.8083 704.0995V654.2995C799.8083 640.1395 789.0583 630.3695 774.4183 630.3695H726.0783C712.8883 630.3695 702.6383 640.6295 702.6383 654.2995V704.0995C702.6383 717.2895 712.8883 727.5395 726.0783 727.5395ZM901.8583 727.5395H950.1983C964.3583 727.5395 975.0983 717.7695 975.0983 704.0995V654.2995C975.0983 640.1395 964.3583 630.3695 950.1983 630.3695H901.8583C888.1883 630.3695 878.4183 640.6295 878.4183 654.2995V704.0995C878.4183 717.2895 888.1883 727.5395 901.8583 727.5395Z"/>
</svg>