<?xml version="1.0" encoding="UTF-8" standalone="no"?>
<svg xmlns="http://www.w3.org/2000/svg"
     width="815.91796875" height="1100.09765625"
     viewBox="0 0 815.91796875 1100.09765625"
     fill="currentColor">
  <path d="M135.2583 1100.102H680.6683C761.7183 1100.102 815.9183 1048.342 815.9183 971.192V129.392C815.9183 52.242 761.7183 0.002 680.6683 0.002H135.2583C54.1983 0.002 -0.0017 52.242 -0.0017 129.392V971.192C-0.0017 1048.342 54.1983 1100.102 135.2583 1100.102ZM145.0183 1021.482C103.0283 1021.482 78.6183 998.042 78.6183 958.012V142.582C78.6183 102.542 103.0283 78.612 145.0183 78.612H670.8983C712.3983 78.612 737.3083 102.542 737.3083 142.582V958.012C737.3083 998.042 712.3983 1021.482 670.8983 1021.482ZM185.5483 253.422H228.0283C240.7183 253.422 250.9783 244.632 250.9783 232.912V188.472C250.9783 176.272 240.7183 167.482 228.0283 167.482H185.5483C173.8283 167.482 165.0383 176.762 165.0383 188.472V232.912C165.0383 244.142 173.8283 253.422 185.5483 253.422ZM319.8283 253.422H362.3083C374.9983 253.422 384.2783 244.632 384.2783 232.912V188.472C384.2783 176.272 374.9983 167.482 362.3083 167.482H319.8283C308.1083 167.482 298.8283 176.762 298.8283 188.472V232.912C298.8283 244.142 308.1083 253.422 319.8283 253.422ZM453.1283 253.422H496.0983C508.7883 253.422 518.5583 244.632 518.5583 232.912V188.472C518.5583 176.272 508.7883 167.482 496.0983 167.482H453.1283C441.4083 167.482 432.6183 176.762 432.6183 188.472V232.912C432.6183 244.142 441.4083 253.422 453.1283 253.422ZM586.9183 253.422H629.8783C643.0683 253.422 651.8583 244.632 651.8583 232.912V188.472C651.8583 176.272 643.0683 167.482 629.8783 167.482H586.9183C575.1983 167.482 566.4083 176.762 566.4083 188.472V232.912C566.4083 244.142 575.1983 253.422 586.9183 253.422ZM185.5483 385.252H228.0283C240.7183 385.252 250.9783 375.972 250.9783 363.772V319.822C250.9783 307.622 240.7183 299.312 228.0283 299.312H185.5483C173.8283 299.312 165.0383 308.102 165.0383 319.822V363.772C165.0383 375.972 173.8283 385.252 185.5483 385.252ZM319.8283 385.252H362.3083C374.9983 385.252 384.2783 375.972 384.2783 363.772V319.822C384.2783 307.622 374.9983 299.312 362.3083 299.312H319.8283C308.1083 299.312 298.3383 308.102 298.3383 319.822V363.772C298.3383 375.972 308.1083 385.252 319.8283 385.252ZM453.1283 385.252H496.0983C508.7883 385.252 518.5583 375.972 518.5583 364.262V319.822C518.5583 307.622 508.7883 299.312 496.0983 299.312H453.1283C441.4083 299.312 432.6183 308.102 432.6183 319.822V364.262C432.6183 375.972 441.4083 385.252 453.1283 385.252ZM586.9183 385.252H629.8783C643.0683 385.252 651.8583 375.972 651.8583 364.262V319.822C651.8583 307.622 643.0683 299.312 629.8783 299.312H586.9183C575.1983 299.312 566.4083 308.102 566.4083 319.822V364.262C566.4083 375.972 575.1983 385.252 586.9183 385.252ZM185.5483 516.602H228.0283C240.7183 516.602 250.9783 508.302 250.9783 496.092V452.152C250.9783 439.942 240.7183 430.662 228.0283 430.662H185.5483C173.8283 430.662 165.0383 439.942 165.0383 452.152V496.092C165.0383 507.812 173.8283 516.602 185.5483 516.602ZM319.8283 516.602H362.3083C374.9983 516.602 384.2783 508.302 384.2783 496.092V452.152C384.2783 439.942 374.9983 430.662 362.3083 430.662H319.8283C308.1083 430.662 298.3383 439.942 298.3383 452.152V496.092C298.3383 507.812 308.1083 516.602 319.8283 516.602ZM185.5483 932.622H228.0283C240.7183 932.622 250.9783 924.312 250.9783 912.112V867.672C250.9783 855.472 240.7183 847.172 228.0283 847.172H185.5483C173.8283 847.172 165.0383 855.952 165.0383 867.672V912.112C165.0383 923.832 173.8283 932.622 185.5483 932.622ZM319.8283 932.622H362.3083C374.9983 932.622 384.2783 924.312 384.2783 912.112V867.672C384.2783 855.472 374.9983 847.172 362.3083 847.172H319.8283C308.1083 847.172 298.3383 855.952 298.3383 867.672V912.112C298.3383 923.832 308.1083 932.622 319.8283 932.622ZM453.1283 932.622H496.5783C508.7883 932.622 518.5583 924.312 518.5583 912.112V867.672C518.5583 855.472 508.7883 847.172 496.5783 847.172H453.1283C441.4083 847.172 432.6183 855.952 432.6183 867.672V912.112C432.6183 923.832 441.4083 932.622 453.1283 932.622ZM586.9183 932.622H629.8783C643.0683 932.622 651.8583 924.312 651.8583 912.112V867.672C651.8583 855.472 643.0683 847.172 629.8783 847.172H586.9183C575.1983 847.172 566.8983 855.952 566.8983 867.672V912.112C566.8983 923.832 575.1983 932.622 586.9183 932.622Z"/>
</svg>