<?xml version="1.0" encoding="UTF-8" standalone="no"?>
<svg xmlns="http://www.w3.org/2000/svg"
     width="627.9296875" height="1033.69140625"
     viewBox="0 0 627.9296875 1033.69140625"
     fill="currentColor">
  <path d="M132.8083 1033.6889H495.1183C574.7083 1033.6889 627.9283 982.9089 627.9283 906.7389V126.9489C627.9283 50.7789 574.7083 -0.0011 495.1183 -0.0011H132.8083C53.2183 -0.0011 -0.0017 50.7789 -0.0017 126.9489V906.7389C-0.0017 982.9089 53.2183 1033.6889 132.8083 1033.6889ZM143.0683 955.0789C101.5583 955.0789 78.6183 933.1089 78.6183 894.0389V139.6489C78.6183 100.5889 101.5583 78.6089 143.0683 78.6089H485.3483C526.3683 78.6089 549.3183 100.5889 549.3183 139.6489V894.0389C549.3183 933.1089 526.3683 955.0789 485.3483 955.0789ZM166.5083 230.9589H212.3983C223.1483 230.9589 231.4483 223.6289 231.4483 212.8889V166.0189C231.4483 155.2689 223.1483 147.9489 212.3983 147.9489H166.5083C155.7583 147.9489 148.4383 155.2689 148.4383 166.0189V212.8889C148.4383 223.6289 155.7583 230.9589 166.5083 230.9589ZM290.0383 230.9589H336.4283C347.1683 230.9589 355.4683 223.6289 355.4683 212.8889V166.0189C355.4683 155.2689 347.1683 147.9489 336.4283 147.9489H290.0383C279.7883 147.9489 272.4583 155.2689 272.4583 166.0189V212.8889C272.4583 223.6289 279.7883 230.9589 290.0383 230.9589ZM414.0583 230.9589H459.9583C471.1883 230.9589 479.0083 223.6289 479.0083 212.8889V166.0189C479.0083 155.2689 471.1883 147.9489 459.9583 147.9489H414.0583C403.8083 147.9489 396.4883 155.2689 396.4883 166.0189V212.8889C396.4883 223.6289 403.8083 230.9589 414.0583 230.9589ZM166.5083 363.2789H212.3983C223.1483 363.2789 231.4483 355.9589 231.4483 345.6989V298.3389C231.4483 287.5989 223.1483 280.2689 212.3983 280.2689H166.5083C155.7583 280.2689 148.4383 287.5989 148.4383 298.3389V345.6989C148.4383 355.9589 155.7583 363.2789 166.5083 363.2789ZM290.0383 363.2789H336.4283C347.1683 363.2789 355.4683 355.9589 355.4683 345.6989V298.3389C355.4683 287.5989 347.1683 280.2689 336.4283 280.2689H290.0383C279.7883 280.2689 272.4583 287.5989 272.4583 298.3389V345.6989C272.4583 355.9589 279.7883 363.2789 290.0383 363.2789ZM414.0583 363.2789H459.9583C471.1883 363.2789 479.0083 355.9589 479.0083 345.6989V298.3389C479.0083 287.5989 471.1883 280.2689 459.9583 280.2689H414.0583C403.8083 280.2689 396.4883 287.5989 396.4883 298.3389V345.6989C396.4883 355.9589 403.8083 363.2789 414.0583 363.2789ZM166.5083 496.0889H212.3983C223.1483 496.0889 231.4483 488.7689 231.4483 478.0289V431.1489C231.4483 420.4089 223.1483 413.0889 212.3983 413.0889H166.5083C155.7583 413.0889 148.4383 420.4089 148.4383 431.1489V478.0289C148.4383 488.7689 155.7583 496.0889 166.5083 496.0889ZM290.0383 496.0889H336.4283C347.1683 496.0889 355.4683 488.7689 355.4683 478.0289V431.1489C355.4683 420.4089 347.1683 413.0889 336.4283 413.0889H290.0383C279.7883 413.0889 272.4583 420.4089 272.4583 431.1489V478.0289C272.4583 488.7689 279.7883 496.0889 290.0383 496.0889ZM166.5083 888.6689H212.3983C223.1483 888.6689 231.4483 881.3489 231.4483 871.0889V823.7289C231.4483 813.4789 223.1483 806.1489 212.3983 806.1489H166.5083C155.7583 806.1489 148.4383 813.4789 148.4383 823.7289V871.0889C148.4383 881.3489 155.7583 888.6689 166.5083 888.6689ZM290.0383 888.6689H336.4283C347.1683 888.6689 355.4683 881.3489 355.4683 871.0889V823.7289C355.4683 813.4789 347.1683 806.1489 336.4283 806.1489H290.0383C279.7883 806.1489 272.4583 813.4789 272.4583 823.7289V871.0889C272.4583 881.3489 279.7883 888.6689 290.0383 888.6689ZM414.0583 888.6689H459.9583C471.1883 888.6689 479.0083 881.3489 479.0083 871.0889V823.7289C479.0083 813.4789 471.1883 806.1489 459.9583 806.1489H414.0583C403.8083 806.1489 396.4883 813.4789 396.4883 823.7289V871.0889C396.4883 881.3489 403.8083 888.6689 414.0583 888.6689Z"/>
</svg>