<?xml version="1.0" encoding="UTF-8" standalone="no"?>
<svg xmlns="http://www.w3.org/2000/svg"
     width="1034.1796875" height="628.41796875"
     viewBox="0 0 1034.1796875 628.41796875"
     fill="currentColor">
  <path d="M126.9483 628.4222H906.7383C982.9083 628.4222 1034.1783 574.7022 1034.1783 495.1122V132.8122C1034.1783 53.2222 983.3983 0.0022 907.2283 0.0022H127.4383C51.2683 0.0022 -0.0017 53.2222 -0.0017 132.8122V495.1122C-0.0017 574.7022 50.7783 628.4222 126.9483 628.4222ZM139.6483 549.8022C100.5883 549.8022 78.6183 526.3622 78.6183 485.3522V143.0622C78.6183 102.0522 100.5883 78.6122 139.6483 78.6122H894.5283C933.5983 78.6122 955.5683 102.0522 955.5683 143.0622V485.3522C955.5683 526.3622 933.5983 549.8022 894.0383 549.8022ZM166.0183 231.9322H213.3783C223.6283 231.9322 230.9583 224.6122 230.9583 213.8622V167.9722C230.9583 156.7422 223.6283 148.9222 213.3783 148.9222H166.0183C155.7583 148.9222 148.4383 156.7422 148.4383 167.9722V213.8622C148.4383 224.6122 155.7583 231.9322 166.0183 231.9322ZM298.8283 231.9322H345.6983C355.9583 231.9322 363.7683 224.6122 363.7683 213.8622V167.9722C363.7683 156.7422 356.4483 148.9222 345.6983 148.9222H298.8283C288.0883 148.9222 280.7583 156.7422 280.7583 167.9722V213.8622C280.7583 224.6122 288.0883 231.9322 298.8283 231.9322ZM431.1483 231.9322H478.0283C488.7683 231.9322 496.0983 224.6122 496.0983 213.8622V167.9722C496.0983 156.7422 488.7683 148.9222 478.0283 148.9222H431.1483C420.4083 148.9222 413.0883 156.7422 413.0883 167.9722V213.8622C413.0883 224.6122 420.4083 231.9322 431.1483 231.9322ZM563.4783 231.9322H610.8383C621.0983 231.9322 628.4183 224.6122 628.4183 213.8622V167.9722C628.4183 156.7422 621.0983 148.9222 610.8383 148.9222H563.4783C553.2183 148.9222 545.8983 156.7422 545.8983 167.9722V213.8622C545.8983 224.6122 553.2183 231.9322 563.4783 231.9322ZM824.2183 231.9322H871.0983C881.8383 231.9322 889.1583 224.6122 889.1583 213.8622V167.9722C889.1583 156.7422 881.8383 148.9222 871.5783 148.9222H824.2183C813.9683 148.9222 806.6383 156.7422 806.6383 167.9722V213.8622C806.6383 224.6122 813.4783 231.9322 824.2183 231.9322ZM166.0183 355.9522H213.3783C223.6283 355.9522 230.9583 348.6322 230.9583 337.8922V291.9922C230.9583 280.7622 223.6283 272.9522 213.3783 272.9522H166.0183C155.7583 272.9522 148.4383 280.7622 148.4383 291.9922V337.8922C148.4383 348.6322 155.7583 355.9522 166.0183 355.9522ZM298.8283 355.9522H345.6983C355.9583 355.9522 363.7683 348.6322 363.7683 337.8922V291.9922C363.7683 280.7622 356.4483 272.9522 345.6983 272.9522H298.8283C288.0883 272.9522 280.7583 280.7622 280.7583 291.9922V337.8922C280.7583 348.6322 288.0883 355.9522 298.8283 355.9522ZM431.6383 355.9522H478.0283C489.2583 355.9522 496.5783 348.6322 496.5783 337.8922V291.9922C496.5783 280.7622 489.2583 272.9522 478.0283 272.9522H431.6383C420.4083 272.9522 413.0883 280.7622 413.0883 291.9922V337.8922C413.0883 348.6322 420.4083 355.9522 431.6383 355.9522ZM824.2183 355.9522H871.5783C881.8383 355.9522 889.1583 348.6322 889.1583 337.8922V291.9922C889.1583 280.7622 881.8383 272.9522 871.5783 272.9522H824.2183C813.9683 272.9522 806.6383 280.7622 806.6383 291.9922V337.8922C806.6383 348.6322 813.9683 355.9522 824.2183 355.9522ZM824.2183 479.4922H871.0983C881.8383 479.4922 889.1583 472.1722 889.1583 461.9122V416.0122C889.1583 404.7822 881.8383 396.9722 871.5783 396.9722H824.2183C813.9683 396.9722 806.6383 404.7822 806.6383 416.0122V461.9122C806.6383 472.1722 813.9683 479.4922 824.2183 479.4922Z"/>
</svg>