<?xml version="1.0" encoding="UTF-8" standalone="no"?>
<svg xmlns="http://www.w3.org/2000/svg"
     width="1010.25390625" height="1163.0859375"
     viewBox="0 0 1010.25390625 1163.0859375"
     fill="currentColor">
  <path d="M506.3483 79.592C528.8083 79.592 545.8983 62.992 545.8983 40.042C545.8983 17.582 528.3183 0.002 506.3483 0.002C484.3783 0.002 466.3083 18.062 466.3083 40.042C466.3083 62.012 483.8883 79.592 506.3483 79.592ZM272.9483 214.352C295.8983 214.352 312.9883 197.262 312.9883 174.312C312.9883 151.852 295.4083 134.282 272.9483 134.282C251.4683 134.282 232.9083 152.832 232.9083 174.312C232.9083 196.782 250.4883 214.352 272.9483 214.352ZM739.2583 214.352C762.2083 214.352 779.2983 197.262 779.2983 174.312C779.2983 151.852 761.7183 134.282 739.2583 134.282C717.7783 134.282 699.2183 152.832 699.2183 174.312C699.2183 196.782 716.7983 214.352 739.2583 214.352ZM40.0383 350.582C62.4983 350.582 79.5883 333.492 79.5883 310.542C79.5883 288.572 62.0083 270.992 40.0383 270.992C18.0683 270.992 -0.0017 289.062 -0.0017 310.542C-0.0017 333.012 17.5783 350.582 40.0383 350.582ZM506.3483 350.582C528.8083 350.582 545.8983 333.492 545.8983 310.542C545.8983 288.572 528.3183 270.992 506.3483 270.992C484.3783 270.992 466.3083 289.062 466.3083 310.542C466.3083 333.012 483.8883 350.582 506.3483 350.582ZM970.6983 350.582C993.6483 350.582 1010.2583 333.492 1010.2583 310.542C1010.2583 288.082 993.1683 270.992 970.6983 270.992C948.7283 270.992 930.6683 289.062 930.6683 310.542C930.6683 333.012 948.2383 350.582 970.6983 350.582ZM272.9483 485.842C295.8983 485.842 312.9883 468.752 312.9883 445.802C312.9883 423.342 295.4083 405.762 272.9483 405.762C251.4683 405.762 232.9083 423.832 232.9083 445.802C232.9083 468.262 250.4883 485.842 272.9483 485.842ZM739.2583 485.842C762.2083 485.842 779.2983 468.752 779.2983 445.802C779.2983 423.342 761.7183 405.762 739.2583 405.762C717.7783 405.762 699.2183 423.832 699.2183 445.802C699.2183 468.262 716.7983 485.842 739.2583 485.842ZM40.0383 621.092C62.4983 621.092 79.5883 604.492 79.5883 581.542C79.5883 559.082 62.0083 541.502 40.0383 541.502C18.0683 541.502 -0.0017 559.572 -0.0017 581.542C-0.0017 603.512 17.5783 621.092 40.0383 621.092ZM506.3483 621.092C528.8083 621.092 545.8983 604.492 545.8983 581.542C545.8983 559.082 528.3183 541.502 506.3483 541.502C484.3783 541.502 466.3083 559.572 466.3083 581.542C466.3083 603.512 483.8883 621.092 506.3483 621.092ZM970.6983 621.092C993.6483 621.092 1010.2583 604.492 1010.2583 581.542C1010.2583 559.082 993.1683 541.502 970.6983 541.502C948.7283 541.502 930.6683 560.062 930.6683 581.542C930.6683 603.512 948.2383 621.092 970.6983 621.092ZM272.9483 756.832C295.8983 756.832 312.9883 740.232 312.9883 717.282C312.9883 694.822 295.4083 677.242 272.9483 677.242C251.4683 677.242 232.9083 695.312 232.9083 717.282C232.9083 739.742 250.4883 756.832 272.9483 756.832ZM739.2583 756.832C762.2083 756.832 779.2983 740.232 779.2983 717.282C779.2983 694.822 761.7183 677.242 739.2583 677.242C717.7783 677.242 699.2183 695.312 699.2183 717.282C699.2183 739.742 716.7983 756.832 739.2583 756.832ZM40.0383 892.092C62.4983 892.092 79.5883 875.002 79.5883 852.052C79.5883 830.082 62.0083 812.502 40.0383 812.502C18.0683 812.502 -0.0017 830.562 -0.0017 852.052C-0.0017 874.512 17.5783 892.092 40.0383 892.092ZM506.3483 892.092C528.8083 892.092 545.8983 875.002 545.8983 852.052C545.8983 830.082 528.3183 812.502 506.3483 812.502C484.3783 812.502 466.3083 830.562 466.3083 852.052C466.3083 874.512 483.8883 892.092 506.3483 892.092ZM970.6983 892.092C993.6483 892.092 1010.2583 875.492 1010.2583 852.052C1010.2583 830.082 992.6783 812.502 970.6983 812.502C948.7283 812.502 930.6683 830.562 930.6683 852.052C930.6683 874.512 948.2383 892.092 970.6983 892.092ZM272.9483 1028.322C295.8983 1028.322 312.9883 1011.722 312.9883 988.772C312.9883 966.312 295.4083 948.732 272.9483 948.732C251.4683 948.732 232.9083 966.792 232.9083 988.772C232.9083 1010.742 250.4883 1028.322 272.9483 1028.322ZM739.2583 1028.322C762.2083 1028.322 779.2983 1011.722 779.2983 988.772C779.2983 966.312 761.7183 948.732 739.2583 948.732C717.7783 948.732 699.2183 966.792 699.2183 988.772C699.2183 1010.742 716.7983 1028.322 739.2583 1028.322ZM506.3483 1163.082C528.8083 1163.082 545.8983 1145.992 545.8983 1123.042C545.8983 1100.582 528.3183 1083.012 506.3483 1083.012C484.3783 1083.012 466.3083 1101.562 466.3083 1123.042C466.3083 1145.512 483.8883 1163.082 506.3483 1163.082Z"/>
</svg>