<?xml version="1.0" encoding="UTF-8" standalone="no"?>
<svg xmlns="http://www.w3.org/2000/svg"
     width="996.09375" height="996.09375"
     viewBox="0 0 996.09375 996.09375"
     fill="currentColor">
  <path d="M498.0477 996.0977C770.5077 996.0977 996.0977 770.5077 996.0977 498.0477C996.0977 226.0777 770.0177 -0.0023 497.5577 -0.0023C225.5877 -0.0023 -0.0023 226.0777 -0.0023 498.0477C-0.0023 770.5077 226.0777 996.0977 498.0477 996.0977ZM275.3877 379.3977C245.1177 379.3977 229.9777 361.3277 229.9777 331.5477V307.1277C229.9777 276.8577 247.0677 259.2777 275.3877 259.2777H720.7077C751.4677 259.2777 766.5977 276.8577 766.5977 307.1277V331.5477C766.5977 361.3277 751.4677 379.3977 720.7077 379.3977ZM351.0777 752.9277C298.3377 752.9277 270.0177 726.0777 270.0177 672.3677V419.9177H726.0777V672.3677C726.0777 726.0777 697.7577 752.9277 645.0177 752.9277ZM409.6677 516.5977H586.4277C598.1477 516.5977 605.9577 509.2777 605.9577 497.5577V488.7677C605.9577 477.0477 598.1477 469.7277 586.4277 469.7277H409.6677C398.4377 469.7277 390.1377 477.0477 390.1377 488.7677V497.5577C390.1377 509.2777 398.4377 516.5977 409.6677 516.5977Z"/>
</svg>