<?xml version="1.0" encoding="UTF-8" standalone="no"?>
<svg xmlns="http://www.w3.org/2000/svg"
     width="996.09375" height="996.09375"
     viewBox="0 0 996.09375 996.09375"
     fill="currentColor">
  <path d="M498.0477 996.0959C770.5077 996.0959 996.0977 770.0159 996.0977 498.0459C996.0977 225.5859 770.0177 -0.0041 497.5577 -0.0041C225.5877 -0.0041 -0.0023 225.5859 -0.0023 498.0459C-0.0023 770.0159 226.0777 996.0959 498.0477 996.0959ZM498.0477 913.0859C267.5777 913.0859 83.4977 728.5159 83.4977 498.0459C83.4977 267.5759 267.0877 83.0059 497.5577 83.0059C728.0277 83.0059 913.0877 267.5759 913.0877 498.0459C913.0877 728.5159 728.5177 913.0859 498.0477 913.0859ZM281.7377 382.8159H713.3777C743.1677 382.8159 757.8077 365.7259 757.8077 336.9159V312.9859C757.8077 283.6959 743.1677 266.1159 713.3777 266.1159H281.7377C254.3977 266.1159 237.7977 283.6959 237.7977 312.9859V336.9159C237.7977 365.7259 252.4377 382.8159 281.7377 382.8159ZM354.9777 745.1159H640.1377C691.4077 745.1159 718.7477 718.7459 718.7477 667.4759V422.3659H276.3677V667.4759C276.3677 719.2359 303.7077 745.1159 354.9777 745.1159ZM411.6177 516.1159C400.8777 516.1159 393.0677 508.7859 393.0677 497.5559V489.2559C393.0677 477.5359 400.8777 470.7059 411.6177 470.7059H583.4977C594.7277 470.7059 602.0477 477.5359 602.0477 489.2559V497.5559C602.0477 508.7859 594.7277 516.1159 583.4977 516.1159Z"/>
</svg>