<?xml version="1.0" encoding="UTF-8" standalone="no"?>
<svg xmlns="http://www.w3.org/2000/svg"
     width="996.09375" height="996.09375"
     viewBox="0 0 996.09375 996.09375"
     fill="currentColor">
  <path d="M498.0477 996.0977C770.5077 996.0977 996.0977 770.5077 996.0977 498.0477C996.0977 226.0777 770.0177 -0.0023 497.5577 -0.0023C225.5877 -0.0023 -0.0023 226.0777 -0.0023 498.0477C-0.0023 770.5077 226.0777 996.0977 498.0477 996.0977ZM384.2777 706.0577C371.5777 706.0577 362.3077 700.1977 349.1177 688.4777L141.1177 493.1677C131.3477 483.3977 128.4177 474.1177 128.4177 465.3277C128.4177 455.5677 131.3477 446.7777 141.1177 437.0077L349.1177 242.6777C362.7977 229.9777 371.0977 224.1177 383.7877 224.1177C402.8277 224.1177 415.0377 235.8377 415.0377 248.0477V260.2577L249.5077 412.1077C232.9077 426.7577 224.6077 445.7977 224.6077 465.3277C224.6077 484.8677 233.3977 503.4177 249.5077 518.0677L415.0377 670.8977V683.1077C415.0377 694.8277 402.8277 706.0577 384.2777 706.0577ZM517.0877 706.0577C505.3677 706.0577 494.6277 700.1977 481.9377 688.4777L274.4177 493.1677C264.1577 482.9077 261.2277 474.1177 261.2277 465.3277C261.2277 455.5677 264.1577 447.2677 274.4177 437.0077L481.9377 242.6777C495.6077 229.9777 504.3977 224.1177 516.5977 224.1177C534.6677 224.1177 547.8477 239.2577 547.8477 256.3477V356.4477H555.6677C743.6477 356.4477 826.6577 476.0777 826.6577 670.8977C826.6577 693.3577 814.9377 706.0577 800.2977 706.0577C788.5777 706.0577 776.3677 702.6377 767.5777 686.5277C723.1477 600.5877 657.7177 574.7077 555.6677 574.7077H547.8477V674.8077C547.8477 693.3577 534.6677 706.0577 517.0877 706.0577Z"/>
</svg>