<?xml version="1.0" encoding="UTF-8" standalone="no"?>
<svg xmlns="http://www.w3.org/2000/svg"
     width="740.234375" height="1010.25390625"
     viewBox="0 0 740.234375 1010.25390625"
     fill="currentColor">
  <path d="M740.2383 966.3053C740.2383 940.9153 723.1483 922.8553 698.2383 922.8553H374.9983C385.2583 921.8753 394.5283 916.5053 402.8283 908.2053L727.0483 583.4953C736.3283 573.7353 740.2383 563.4753 740.2383 551.7553C740.2383 527.8353 722.6583 509.2753 698.2383 509.2753C686.5283 509.2753 675.2883 513.1853 667.4783 520.9953L556.1483 630.3753L410.1583 791.0153L413.5783 686.5253V42.9653C413.5783 18.0653 395.5083 -0.0047 370.1183 -0.0047C344.7283 -0.0047 326.6583 18.0653 326.6583 42.9653V686.5253L330.0783 790.5253L184.0783 630.3753L72.7583 520.9953C65.4283 513.1853 53.7083 509.2753 41.9883 509.2753C17.5783 509.2753 -0.0017 527.8353 -0.0017 551.7553C-0.0017 563.4753 4.3983 573.7353 13.6683 583.4953L337.3983 908.2053C345.6983 916.5053 355.4683 921.8753 365.7183 922.8553H42.9683C17.5783 922.8553 -0.0017 940.9153 -0.0017 966.3053C-0.0017 991.6953 17.5783 1010.2553 42.9683 1010.2553H698.2383C723.1483 1010.2553 740.2383 991.6953 740.2383 966.3053Z"/>
</svg>