<?xml version="1.0" encoding="UTF-8" standalone="no"?>
<svg xmlns="http://www.w3.org/2000/svg"
     width="1295.8984375" height="895.5078125"
     viewBox="0 0 1295.8984375 895.5078125"
     fill="currentColor">
  <path d="M477.0519 895.503C510.2519 895.503 534.1819 871.093 534.1819 838.383V751.463L653.3219 863.773C676.7619 885.743 696.2919 895.503 720.2119 895.503C753.4219 895.503 777.3419 871.093 777.3419 838.383V651.853H791.5019C980.9619 651.853 1100.1019 699.703 1185.5519 859.373C1202.6319 890.623 1225.1019 895.503 1245.6019 895.503C1271.4819 895.503 1295.9019 872.073 1295.9019 830.083C1295.9019 469.243 1142.5819 244.143 791.5019 244.143H777.3419V59.573C777.3419 26.853 753.4219 0.003 719.2419 0.003C695.3119 0.003 679.2019 10.253 653.3219 34.663L534.1819 145.993V59.573C534.1819 26.853 510.2519 0.003 476.0719 0.003C452.1519 0.003 436.0319 10.253 410.1519 34.663L24.4119 395.023C5.3719 413.083 0.0019 431.153 0.0019 447.753C0.0019 463.863 5.8619 482.423 24.4119 500.003L410.1519 863.773C433.1019 885.743 453.1219 895.503 477.0519 895.503ZM692.3819 790.523C689.4519 790.523 686.5219 789.063 683.5919 786.133L335.9419 457.033C332.0319 453.123 330.5619 450.683 330.5619 447.753C330.5619 444.823 332.0319 441.893 335.9419 438.473L683.5919 104.983C686.0319 103.023 688.9619 101.073 691.8919 101.073C696.2919 101.073 698.7319 104.003 698.7319 107.913V301.753C698.7319 312.993 704.1019 317.873 715.3319 317.873H780.7619C1115.7219 317.873 1216.8019 550.293 1226.5619 780.763C1226.5619 784.663 1225.1019 786.133 1222.6519 786.133C1220.7019 786.133 1219.7219 784.663 1218.2619 781.253C1160.6419 658.693 1012.6919 578.123 780.7619 578.123H715.3319C704.1019 578.123 698.7319 583.003 698.7319 594.243V783.203C698.7319 787.593 696.2919 790.523 692.3819 790.523ZM440.4319 786.133L92.7719 457.033C88.8719 453.123 87.4019 450.683 87.4019 447.753C87.4019 444.823 88.8719 441.893 92.7719 438.473L440.4319 104.983C442.8719 103.023 445.8019 101.073 448.7319 101.073C453.1219 101.073 455.5619 104.003 455.5619 107.913V219.243L268.0619 395.023C249.0219 413.083 243.1619 431.153 243.1619 447.753C243.1619 463.863 249.5119 482.423 268.0619 500.003L455.5619 677.243V783.203C455.5619 787.593 453.1219 790.523 448.7319 790.523C446.2919 790.523 443.3619 789.063 440.4319 786.133Z"/>
</svg>