<?xml version="1.0" encoding="UTF-8" standalone="no"?>
<svg xmlns="http://www.w3.org/2000/svg"
     width="860.3515625" height="743.65234375"
     viewBox="0 0 860.3515625 743.65234375"
     fill="currentColor">
  <path d="M87.3983 701.6584V381.8384C89.3583 390.1384 94.2383 397.9484 101.0783 404.7884L424.8083 727.5384C435.0583 737.3084 445.3083 741.6984 457.5183 741.6984C481.4483 741.6984 500.4883 724.1184 500.4883 699.7084C500.4883 687.9884 496.0983 676.2684 487.7883 667.9684L379.8783 558.5984L219.2383 412.1084L324.2183 415.5284H817.3783C842.7783 415.5284 860.3483 397.4584 860.3483 372.0684C860.3483 346.1884 842.7783 328.1284 817.3783 328.1284H324.2183L219.7283 332.0284L379.8783 185.0584L487.7883 75.1984C496.0983 67.3784 500.4883 55.6684 500.4883 43.9484C500.4883 19.5284 481.4483 1.4684 457.5183 1.4684C445.3083 1.4684 435.0583 6.3484 424.8083 16.1084L101.0783 338.8684C94.2383 345.6984 89.3583 353.5184 87.3983 361.8184V42.9684C87.3983 17.5784 69.3383 -0.0016 43.4583 -0.0016C18.0683 -0.0016 -0.0017 17.5784 -0.0017 42.9684V701.6584C-0.0017 726.5584 18.0683 743.6484 43.4583 743.6484C69.3383 743.6484 87.3983 726.5584 87.3983 701.6584Z"/>
</svg>