<?xml version="1.0" encoding="UTF-8" standalone="no"?>
<svg xmlns="http://www.w3.org/2000/svg"
     width="996.09375" height="996.09375"
     viewBox="0 0 996.09375 996.09375"
     fill="currentColor">
  <path d="M498.0477 996.0959C770.5077 996.0959 996.0977 770.0159 996.0977 498.0459C996.0977 225.5859 770.0177 -0.0041 497.5577 -0.0041C225.5877 -0.0041 -0.0023 225.5859 -0.0023 498.0459C-0.0023 770.0159 226.0777 996.0959 498.0477 996.0959ZM498.0477 913.0859C267.5777 913.0859 83.4977 728.5159 83.4977 498.0459C83.4977 267.5759 267.0877 83.0059 497.5577 83.0059C728.0277 83.0059 913.0877 267.5759 913.0877 498.0459C913.0877 728.5159 728.5177 913.0859 498.0477 913.0859ZM247.0677 497.5559C247.0677 508.2959 251.9577 517.0859 260.7377 525.8759L425.7777 691.4059C432.1277 697.7559 440.9177 701.6559 451.1677 701.6559C471.1877 701.6559 486.3277 686.0359 486.3277 666.0159C486.3277 655.2759 482.4177 646.4859 475.5877 640.1359L414.5477 579.5859L355.4677 530.2759L458.9877 533.6959H713.3777C734.8677 533.6959 749.9977 518.5559 749.9977 497.5559C749.9977 476.0759 734.3777 460.9359 713.3777 460.9359H458.9877L355.9577 464.8459L414.5477 415.5259L475.5877 354.9759C481.9377 348.1459 486.3277 339.3559 486.3277 328.6159C486.3277 308.5959 471.1877 293.4559 451.1677 293.4559C440.9177 293.4559 432.1277 296.8759 425.7777 303.2259L260.7377 469.2359C250.9777 479.0059 247.0677 486.8159 247.0677 497.5559Z"/>
</svg>