<?xml version="1.0" encoding="UTF-8" standalone="no"?>
<svg xmlns="http://www.w3.org/2000/svg"
     width="721.19140625" height="720.703125"
     viewBox="0 0 721.19140625 720.703125"
     fill="currentColor">
  <path d="M-0.0017 182.6141L0.4883 673.8241C0.4883 701.6641 18.5583 720.7041 47.8483 720.7041H539.0583C566.4083 720.7041 584.9583 700.1941 584.9583 676.7541C584.9583 653.3241 563.9683 633.3041 541.0183 633.3041H371.0983L132.8083 641.1141L223.6283 561.0341L707.5183 76.6641C716.3083 67.8741 721.1883 56.1541 721.1883 45.8941C721.1883 22.4641 699.7083 0.0041 675.2883 0.0041C664.5483 0.0041 653.8083 4.3941 644.5283 13.1841L160.1583 498.0441L79.5883 588.8641L88.3783 360.8441V180.6641C88.3783 157.2241 68.3583 136.2341 44.4383 136.2341C20.5083 136.2341 -0.0017 155.7641 -0.0017 182.6141Z"/>
</svg>