<?xml version="1.0" encoding="UTF-8" standalone="no"?>
<svg xmlns="http://www.w3.org/2000/svg"
     width="776.85546875" height="796.875"
     viewBox="0 0 776.85546875 796.875"
     fill="currentColor">
  <path d="M776.8506 59.0783C776.8506 22.9483 749.0206 0.4883 706.5406 0.4883L69.8206 -0.0017C27.3406 -0.0017 0.0006 22.4583 0.0006 58.5983C0.0006 78.1283 8.7906 94.2383 18.5506 114.7483L323.2406 742.1883C343.7506 783.6883 362.3006 796.8783 388.1806 796.8783C414.0606 796.8783 433.1006 783.6883 453.6106 742.1883L757.8106 114.7483C768.0706 94.7283 776.8506 78.6083 776.8506 59.0783ZM683.5906 83.9883C683.5906 85.9383 682.6206 87.8883 681.6406 90.3283L394.0406 687.4983C392.5806 689.9383 391.1106 691.8983 388.1806 691.8983C385.7406 691.8983 384.2806 689.9383 382.8106 687.4983L95.2106 89.8483C94.2406 87.3983 93.2606 85.4483 93.2606 83.4983C93.2606 80.5683 94.7306 78.6083 98.6306 78.6083L677.7306 79.0983C681.6406 79.0983 683.5906 81.0583 683.5906 83.9883Z"/>
</svg>