<?xml version="1.0" encoding="UTF-8" standalone="no"?>
<svg xmlns="http://www.w3.org/2000/svg"
     width="996.09375" height="996.09375"
     viewBox="0 0 996.09375 996.09375"
     fill="currentColor">
  <path d="M498.0477 996.0953C770.5077 996.0953 996.0977 770.5053 996.0977 498.0453C996.0977 226.0753 770.0177 -0.0047 497.5577 -0.0047C225.5877 -0.0047 -0.0023 226.0753 -0.0023 498.0453C-0.0023 770.5053 226.0777 996.0953 498.0477 996.0953ZM747.0677 553.2253C747.0677 669.4353 667.9677 745.6053 549.8077 745.6053H484.3777C460.9377 745.6053 445.3077 731.4453 445.3077 709.4753C445.3077 687.9853 460.4477 672.8553 483.3977 672.8553H549.8077C624.0277 672.8553 674.3177 624.9953 674.3177 553.2253C674.3177 486.3253 624.9977 441.8953 550.2977 441.8953H407.7177L357.9077 439.4553L380.8577 456.0553L439.9377 512.6953C447.2677 520.0153 451.1677 529.2953 451.1677 539.5553C451.1677 560.5453 435.5477 577.1453 415.5277 577.1453C404.2977 577.1453 395.5077 573.2453 388.6677 566.4053L260.7377 435.5453C251.4677 426.7553 247.5577 416.0153 247.5577 404.7853C247.5577 394.0453 251.9577 382.8153 260.7377 374.0253L388.1877 244.6253C395.5077 237.3053 403.8077 233.3953 415.0377 233.3953C436.0377 233.3953 451.1677 249.9953 451.1677 270.9953C451.1677 281.2453 447.2677 290.5253 439.9377 297.3653L390.6277 345.2153L357.4177 371.0953L407.7177 369.1453H550.2977C668.4577 369.1453 747.0677 442.3853 747.0677 553.2253Z"/>
</svg>