<?xml version="1.0" encoding="UTF-8" standalone="no"?>
<svg xmlns="http://www.w3.org/2000/svg"
     width="1455.2020355219952" height="1020.99609375"
     viewBox="0 0 1455.2020355219952 1020.99609375"
     fill="currentColor">
  <path d="M727.5415 1020.9947C746.5815 1020.9947 763.6715 1005.8547 763.6715 986.8147V33.6947C763.6715 14.6447 746.5815 0.0047 727.5415 0.0047C708.5015 0.0047 691.8915 14.6447 691.8915 33.6947V986.8147C691.8915 1005.8547 708.5015 1020.9947 727.5415 1020.9947ZM36.6215 567.8747L406.2515 794.4347C456.0515 824.7047 504.8815 802.7347 504.8815 743.1647V277.3447C504.8815 219.2347 457.0315 195.8047 406.2515 226.5647L36.6215 453.1247C-12.6985 482.9147 -11.7185 538.0847 36.6215 567.8747ZM1048.8315 794.4347L1418.9415 567.8747C1466.8015 538.0847 1467.7715 482.9147 1418.9415 453.1247L1048.8315 226.5647C998.0515 195.8047 950.1915 219.2347 950.1915 277.3447V743.1647C950.1915 802.7347 999.0215 824.7047 1048.8315 794.4347Z"/>
</svg>