<?xml version="1.0" encoding="UTF-8" standalone="no"?>
<svg xmlns="http://www.w3.org/2000/svg"
     width="1125.1315381591328" height="1127.8168724092275"
     viewBox="0 0 1125.1315381591328 1127.8168724092275"
     fill="currentColor">
  <path d="M15.6864 599.0658L171.9364 747.0158C204.6564 778.7558 248.1164 753.8458 248.1164 711.3658V607.8558H519.1064V879.8258H415.1064C373.1164 879.8258 348.2064 922.7958 379.4564 955.5058L527.4064 1111.7558C548.4064 1133.7358 578.1864 1132.7558 598.2064 1111.2758L745.6664 955.5058C777.4064 922.7958 752.5064 879.8258 710.0264 879.8258H606.5064V607.8558H877.0164V711.3658C877.0164 753.8458 919.9864 778.7558 953.1864 747.0158L1108.9564 599.5558C1129.9464 579.0458 1130.9264 549.7458 1109.4364 528.7558L953.1864 380.8058C919.9864 349.5558 877.0164 374.4558 877.0164 416.4458V520.4558H606.5064V247.9858H710.0264C752.5064 247.9858 777.4064 205.0258 745.6664 172.3058L597.7264 16.0558C577.2164 -5.9142 547.4264 -4.9442 526.9164 16.5458L379.4564 172.3058C348.2064 205.0258 373.1164 247.9858 415.1064 247.9858H519.1064V520.4558H248.1164V416.4458C248.1164 374.4558 204.6564 349.5558 171.9364 380.8058L16.1764 528.2658C-4.8136 548.7758 -5.7936 578.0658 15.6864 599.0658Z"/>
</svg>