<?xml version="1.0" encoding="UTF-8" standalone="no"?>
<svg xmlns="http://www.w3.org/2000/svg"
     width="740.234375" height="922.36328125"
     viewBox="0 0 740.234375 922.36328125"
     fill="currentColor">
  <path d="M370.1183 922.3666C395.5083 922.3666 413.5783 904.7866 413.5783 879.3966V236.3266L410.1583 132.3266L556.1483 292.4766L667.4783 401.8566C675.2883 409.6666 686.5283 413.5766 698.2383 413.5766C722.6583 413.5766 740.2383 395.0166 740.2383 371.0966C740.2383 359.3766 736.3283 349.1166 727.0483 339.3566L402.8283 14.6466C393.5583 4.8866 382.3283 -0.0034 370.1183 -0.0034C357.9083 -0.0034 346.6783 4.8866 337.3983 14.6466L13.6683 339.3566C4.3983 349.1166 -0.0017 359.3766 -0.0017 371.0966C-0.0017 395.0166 17.5783 413.5766 41.9883 413.5766C53.7083 413.5766 65.4283 409.6666 72.7583 401.8566L184.0783 292.4766L330.5683 131.8366L326.6583 236.3266V879.3966C326.6583 904.7866 344.7283 922.3666 370.1183 922.3666Z"/>
</svg>