<?xml version="1.0" encoding="UTF-8" standalone="no"?>
<svg xmlns="http://www.w3.org/2000/svg"
     width="898.92578125" height="898.92578125"
     viewBox="0 0 898.92578125 898.92578125"
     fill="currentColor">
  <path d="M153.3183 898.9295H745.6083C848.1483 898.9295 898.9283 848.1495 898.9283 747.5595V151.3695C898.9283 50.7795 848.1483 -0.0005 745.6083 -0.0005H153.3183C51.2683 -0.0005 -0.0017 50.2895 -0.0017 151.3695V747.5595C-0.0017 848.6295 51.2683 898.9295 153.3183 898.9295ZM450.1983 700.6795C428.2183 700.6795 412.1083 685.0595 412.1083 662.5995V412.1095L416.5083 305.1795L366.2083 365.7195L306.6383 425.7795C299.8083 432.6195 290.5283 437.0095 279.7883 437.0095C258.7883 437.0095 243.1683 420.8995 243.1683 400.3895C243.1683 389.6495 246.0983 380.8595 252.9283 374.0195L420.8983 206.5395C431.1483 196.2895 439.4483 192.3795 450.1983 192.3795C461.9183 192.3795 470.2183 196.7795 479.9783 206.5395L647.4583 374.0195C654.7883 380.8595 658.1983 389.6495 658.1983 400.3895C658.1983 420.8995 642.0883 437.0095 621.0983 437.0095C610.3483 437.0095 601.0783 433.1095 594.2383 425.7795L535.1583 365.7195L483.8883 304.6895L488.2783 412.1095V662.5995C488.2783 685.0595 472.6583 700.6795 450.1983 700.6795Z"/>
</svg>