<?xml version="1.0" encoding="UTF-8" standalone="no"?>
<svg xmlns="http://www.w3.org/2000/svg"
     width="996.09375" height="996.09375"
     viewBox="0 0 996.09375 996.09375"
     fill="currentColor">
  <path d="M498.0477 996.0977C770.5077 996.0977 996.0977 770.5077 996.0977 498.0477C996.0977 226.0777 770.0177 -0.0023 497.5577 -0.0023C225.5877 -0.0023 -0.0023 226.0777 -0.0023 498.0477C-0.0023 770.5077 226.0777 996.0977 498.0477 996.0977ZM309.0777 304.1977C289.5477 304.1977 275.3877 289.5477 275.3877 270.5077C275.3877 250.4877 289.5477 236.3277 309.0777 236.3277H687.4977C707.0277 236.3277 720.7077 250.4877 720.7077 270.5077C720.7077 289.5477 707.0277 304.1977 687.4977 304.1977ZM497.5577 798.8277C477.0477 798.8277 463.3777 784.6677 463.3777 765.1377V534.6677L469.2377 441.8977L377.4377 544.9177L349.1177 576.1677C342.7777 583.0077 334.9577 585.9377 324.2177 585.9377C305.1777 585.9377 291.9877 572.2677 291.9877 552.7377C291.9877 544.9177 295.8977 534.1777 302.2477 527.8277L472.1677 354.0077C479.4877 346.1877 488.2777 342.2877 497.5577 342.2877C506.8377 342.2877 515.6277 347.1677 522.9477 354.0077L693.3577 527.3477C701.6577 535.1577 704.0977 543.4577 704.0977 552.7377C704.0977 571.2877 690.9177 585.9377 672.3677 585.9377C662.5977 585.9377 653.8077 583.0077 646.9777 576.1677L616.2077 544.4377L525.8777 442.3877L531.2477 534.6677V765.1377C531.2477 784.6677 516.5977 798.8277 497.5577 798.8277Z"/>
</svg>