<?xml version="1.0" encoding="UTF-8" standalone="no"?>
<svg xmlns="http://www.w3.org/2000/svg"
     width="1010.25390625" height="740.234375"
     viewBox="0 0 1010.25390625 740.234375"
     fill="currentColor">
  <path d="M551.7583 740.2336C563.4783 740.2336 573.7283 736.3236 583.4983 727.0536L908.1983 402.8336C916.5083 395.0236 921.3883 385.2536 922.8483 375.0036V698.2436C922.8483 723.1436 940.9183 740.2336 966.3083 740.2336C991.6983 740.2336 1010.2583 723.1436 1010.2583 698.2436V43.4536C1010.2583 18.0636 991.6983 0.0036 966.3083 0.0036C940.9183 0.0036 922.8483 18.0636 922.8483 43.4536V365.7236C921.3883 355.4736 916.5083 345.7036 908.1983 337.4036L583.4983 13.6736C573.7283 4.3936 563.4783 0.0036 551.7583 0.0036C527.8283 0.0036 509.2783 18.0636 509.2783 41.9936C509.2783 53.7136 513.1883 65.4336 520.9983 73.2436L630.3683 184.0836L790.5283 330.5636L686.5283 326.6636H42.9683C17.5783 326.6636 -0.0017 344.7236 -0.0017 370.1136C-0.0017 395.5036 17.5783 414.0636 42.9683 414.0636H686.5283L791.0183 410.1536L630.3683 556.1536L520.9983 667.4836C513.1883 675.2936 509.2783 687.0136 509.2783 698.2436C509.2783 722.6536 527.8283 740.2336 551.7583 740.2336Z"/>
</svg>