<?xml version="1.0" encoding="UTF-8" standalone="no"?>
<svg xmlns="http://www.w3.org/2000/svg"
     width="996.09375" height="996.09375"
     viewBox="0 0 996.09375 996.09375"
     fill="currentColor">
  <path d="M498.0477 996.0959C770.5077 996.0959 996.0977 770.0159 996.0977 498.0459C996.0977 225.5859 770.0177 -0.0041 497.5577 -0.0041C225.5877 -0.0041 -0.0023 225.5859 -0.0023 498.0459C-0.0023 770.0159 226.0777 996.0959 498.0477 996.0959ZM709.4777 720.2159C690.4277 720.2159 676.2677 706.5459 676.2677 687.0159V308.5959C676.2677 289.0659 690.4277 275.3859 709.4777 275.3859C729.9777 275.3859 744.1377 289.0659 744.1377 308.5959V687.0159C744.1377 706.5459 729.9777 720.2159 709.4777 720.2159ZM181.6377 498.5359C181.6377 479.0059 195.7977 464.8459 215.3277 464.8459H445.7977L538.0877 470.2159L435.5477 379.3959L404.2977 348.6359C396.9777 342.2859 394.0477 333.0059 394.0477 323.7259C394.0477 304.6859 409.1777 291.5059 427.7377 291.5059C436.5277 291.5059 445.3077 294.4359 452.6377 302.2459L626.4677 472.6559C633.2977 480.4659 637.6977 488.7659 637.6977 498.5359C637.6977 507.8159 634.2777 516.6059 626.4677 523.9259L453.1277 692.8759C446.2877 699.7059 435.5477 704.1059 427.7377 704.1059C408.2077 704.1059 394.0477 690.9159 394.0477 671.3859C394.0477 661.1359 396.9777 652.8359 404.2977 646.9759L436.0377 617.6759L538.5777 526.8559L445.7977 532.7159H215.3277C195.7977 532.7159 181.6377 519.0459 181.6377 498.5359Z"/>
</svg>