<?xml version="1.0" encoding="UTF-8" standalone="no"?>
<svg xmlns="http://www.w3.org/2000/svg"
     width="796.38671875" height="776.3671875"
     viewBox="0 0 796.38671875 776.3671875"
     fill="currentColor">
  <path d="M737.7906 0.0044C718.2606 0.0044 702.6406 8.3044 682.1306 18.5544L54.6906 323.2444C13.1806 343.7544 0.0006 362.3044 0.0006 388.1844C0.0006 414.0644 13.1806 433.1044 54.6906 453.6144L682.1306 757.8144C703.1206 768.0644 718.7506 776.3644 738.2806 776.3644C774.4106 776.3644 796.3906 749.0244 796.3906 706.5444V69.8244C796.3906 27.3444 773.9306 0.0044 737.7906 0.0044ZM712.8906 92.7744C715.8206 92.7744 717.7706 95.2144 717.7706 98.6344L718.2606 677.7344C718.2606 681.6444 716.3106 683.5944 713.3806 683.5944C711.4306 683.5944 709.4706 682.6144 707.5206 681.6444L109.3706 393.5544C106.9306 392.5744 104.9806 390.6244 104.9806 388.1844C104.9806 385.7444 106.9306 383.7844 109.3706 382.8144L707.0306 95.2144C708.9806 93.7544 710.9406 92.7744 712.8906 92.7744Z"/>
</svg>