<?xml version="1.0" encoding="UTF-8" standalone="no"?>
<svg xmlns="http://www.w3.org/2000/svg"
     width="996.09375" height="996.09375"
     viewBox="0 0 996.09375 996.09375"
     fill="currentColor">
  <path d="M498.0477 996.0959C770.5077 996.0959 996.0977 770.0159 996.0977 498.0459C996.0977 225.5859 770.0177 -0.0041 497.5577 -0.0041C225.5877 -0.0041 -0.0023 225.5859 -0.0023 498.0459C-0.0023 770.0159 226.0777 996.0959 498.0477 996.0959ZM811.0377 498.0459C811.0377 508.7859 806.6377 517.0859 796.8777 527.3459L651.3677 673.3359C645.0177 680.1759 635.7377 683.5959 624.9977 683.5959C604.4877 683.5959 588.8677 667.9659 588.8677 646.9759C588.8677 635.7459 593.2577 626.9559 599.6077 620.1159L637.6977 582.5159L698.2377 531.7359L591.7977 536.1359H403.3177L296.8777 531.7359L357.9077 582.5159L395.9977 620.1159C402.3477 626.9559 406.7377 635.7459 406.7377 646.9759C406.7377 667.9659 391.1177 683.5959 370.6077 683.5959C359.8677 683.5959 350.5877 680.1759 344.2377 673.3359L198.7277 527.3459C188.9677 517.0859 184.5677 508.7859 184.5677 498.0459C184.5677 486.8159 188.9677 478.5159 198.7277 468.2659L344.2377 322.7559C350.5877 315.9159 359.8677 312.0159 370.6077 312.0159C391.1177 312.0159 406.7377 328.6159 406.7377 349.1259C406.7377 360.3559 402.8277 369.1359 395.9977 376.4659L357.9077 413.5759L296.3877 464.3559L403.3177 460.4459H591.7977L698.7277 464.3559L637.6977 413.5759L599.6077 376.4659C592.7777 369.1359 588.8677 360.3559 588.8677 349.1259C588.8677 328.6159 604.4877 312.0159 624.9977 312.0159C635.7377 312.0159 645.0177 315.9159 651.3677 322.7559L796.8777 468.2659C806.6377 478.5159 811.0377 486.8159 811.0377 498.0459Z"/>
</svg>