<?xml version="1.0" encoding="UTF-8" standalone="no"?>
<svg xmlns="http://www.w3.org/2000/svg"
     width="762.20703125" height="922.36328125"
     viewBox="0 0 762.20703125 922.36328125"
     fill="currentColor">
  <path d="M658.6883 922.3666C687.0083 922.3666 710.4483 921.8766 725.5883 918.9466C744.6283 914.5466 762.2083 902.3466 762.2083 877.4366C762.2083 852.0466 743.6483 835.9366 718.7483 835.9366C701.6583 835.9366 686.0383 836.9166 663.0883 836.9166C489.7483 836.9166 412.5983 777.8366 413.0883 601.0766L413.5783 267.0866L409.6683 134.2766L507.3283 241.6966L667.4783 401.8566C675.2883 409.6666 686.5283 413.5766 698.2383 413.5766C722.6583 413.5766 740.2383 395.0166 740.2383 371.0966C740.2383 359.3766 736.3283 349.1166 727.0483 339.3566L402.8283 14.6466C393.5583 4.8866 382.3283 -0.0034 370.1183 -0.0034C357.9083 -0.0034 346.6783 4.8866 337.3983 14.6466L13.6683 339.3566C4.3983 349.1166 -0.0017 359.3766 -0.0017 371.0966C-0.0017 395.0166 17.5783 413.5766 41.9883 413.5766C53.7083 413.5766 65.4283 409.6666 72.7583 401.8566L232.9083 241.6966L330.0783 134.7666L326.6583 267.0866V605.4666C326.6583 832.5166 433.1083 922.3666 658.6883 922.3666Z"/>
</svg>