<?xml version="1.0" encoding="UTF-8" standalone="no"?>
<svg xmlns="http://www.w3.org/2000/svg"
     width="953.4308204548811" height="1123.7884153098507"
     viewBox="0 0 953.4308204548811 1123.7884153098507"
     fill="currentColor">
  <path d="M13.1883 158.9429L144.0383 256.6029C170.4083 276.1329 203.6183 265.8829 203.6183 230.7229V161.8729H749.9983V230.7229C749.9983 264.9029 782.2283 277.1129 809.5683 256.6029L940.4283 158.9429C958.0083 145.2729 957.5183 119.8829 940.4283 107.1829L809.5683 10.0229C782.2283 -10.4871 749.9983 1.7229 749.9983 35.4129V105.2329H203.6183V35.4129C203.6183 1.7229 171.3883 -10.4871 144.0383 10.0229L13.1883 107.1829C-4.3917 120.3729 -4.3917 145.2729 13.1883 158.9429ZM823.7283 426.0329V1086.1929C823.7283 1107.1829 839.8483 1123.7929 860.3483 1123.7929C881.3483 1123.7929 897.4583 1107.1829 897.4583 1086.1929V426.0329C897.4583 405.5229 881.3483 389.4129 860.3483 389.4129C839.8483 389.4129 823.7283 405.5229 823.7283 426.0329ZM567.8683 426.0329V1086.1929C567.8683 1107.1829 583.9883 1123.7929 604.4883 1123.7929C625.4883 1123.7929 641.5983 1107.1829 641.5983 1086.1929V426.0329C641.5983 405.5229 625.4883 389.4129 604.4883 389.4129C583.9883 389.4129 567.8683 405.5229 567.8683 426.0329ZM312.0083 426.0329V1086.1929C312.0083 1107.1829 328.1283 1123.7929 349.1183 1123.7929C369.6283 1123.7929 385.7383 1107.1829 385.7383 1086.1929V426.0329C385.7383 405.5229 369.6283 389.4129 349.1183 389.4129C328.1283 389.4129 312.0083 405.5229 312.0083 426.0329ZM56.1483 426.0329V773.2029C56.1483 794.2029 72.2683 810.8029 93.2583 810.8029C113.7683 810.8029 129.8783 794.2029 129.8783 773.2029V426.0329C129.8783 405.5229 113.7683 389.4129 93.2583 389.4129C72.2683 389.4129 56.1483 405.5229 56.1483 426.0329Z"/>
</svg>