<?xml version="1.0" encoding="UTF-8" standalone="no"?>
<svg xmlns="http://www.w3.org/2000/svg"
     width="898.92578125" height="898.92578125"
     viewBox="0 0 898.92578125 898.92578125"
     fill="currentColor">
  <path d="M153.3183 898.9295H745.6083C848.1483 898.9295 898.9283 848.1495 898.9283 747.5595V151.3695C898.9283 50.7795 848.1483 -0.0005 745.6083 -0.0005H153.3183C51.2683 -0.0005 -0.0017 50.2895 -0.0017 151.3695V747.5595C-0.0017 848.6295 51.2683 898.9295 153.3183 898.9295ZM154.2983 820.3095C105.4683 820.3095 78.6183 794.4295 78.6183 743.6495V155.2695C78.6183 104.4895 105.4683 78.6095 154.2983 78.6095H744.6283C792.9683 78.6095 820.3083 104.4895 820.3083 155.2695V743.6495C820.3083 794.4295 792.9683 820.3095 744.6283 820.3095ZM450.1983 692.8695C471.6783 692.8695 486.8183 677.7295 486.8183 656.2495V412.1095L482.9083 308.5895L532.7183 367.6795L590.3283 426.2695C596.6783 433.1095 605.4683 437.0095 616.2083 437.0095C636.2283 437.0095 651.8583 421.3895 651.8583 401.8595C651.8583 391.5995 648.4383 382.8095 641.5983 376.4695L479.0083 213.8695C469.7283 204.5895 461.4283 200.1995 450.1983 200.1995C439.9383 200.1995 431.6383 204.0995 421.8783 213.8695L258.7883 376.4695C252.4383 382.8095 249.5083 391.5995 249.5083 401.8595C249.5083 421.3895 264.6483 437.0095 284.6683 437.0095C295.4083 437.0095 304.1983 432.6195 310.5483 426.2695L368.6483 367.6795L417.4783 309.0795L413.5783 412.1095V656.2495C413.5783 677.7295 429.1983 692.8695 450.1983 692.8695Z"/>
</svg>