<?xml version="1.0" encoding="UTF-8" standalone="no"?>
<svg xmlns="http://www.w3.org/2000/svg"
     width="1151.3671875" height="1006.6303500863725"
     viewBox="0 0 1151.3671875 1006.6303500863725"
     fill="currentColor">
  <path d="M-0.0017 855.2641C-0.0017 956.3341 51.2683 1006.6341 153.3183 1006.6341H998.0483C1100.5883 1006.6341 1151.3683 955.8541 1151.3683 855.2641V259.0741C1151.3683 158.4841 1100.5883 107.7041 998.0483 107.7041H656.2483C634.7683 107.7041 616.6983 125.2841 616.6983 146.7641C616.6983 168.2541 634.7683 186.3141 656.2483 186.3141H997.0683C1045.4083 186.3141 1072.7583 212.1941 1072.7583 262.9741V851.3541C1072.7583 902.1341 1045.4083 928.0141 997.0683 928.0141H154.2983C105.4683 928.0141 78.6183 902.1341 78.6183 851.3541V262.9741C78.6183 212.1941 105.4683 186.3141 154.2983 186.3141H278.3183V258.5841C278.3183 293.2541 302.2483 302.5241 329.0983 283.4841L484.8683 174.1141C506.8383 158.4841 507.3283 135.0441 484.8683 119.4241L329.5883 10.0441C302.2483 -9.4859 278.3183 -0.2059 278.3183 34.9541V107.7041H153.3183C51.2683 107.7041 -0.0017 157.9941 -0.0017 259.0741Z"/>
</svg>