<?xml version="1.0" encoding="UTF-8" standalone="no"?>
<svg xmlns="http://www.w3.org/2000/svg"
     width="906.73828125" height="740.234375"
     viewBox="0 0 906.73828125 740.234375"
     fill="currentColor">
  <path d="M-0.0017 370.1163C-0.0017 382.3263 5.3683 393.5563 15.1383 402.8363L339.3583 726.5663C349.1183 735.8362 359.3783 740.2363 371.0983 740.2363C395.0183 740.2363 414.0583 722.6563 414.0583 698.2463C414.0583 686.5263 409.6683 674.8063 401.8583 667.4763L292.4783 556.1563L127.9283 406.2462L246.0983 413.5763H863.7683C889.1583 413.5763 906.7383 395.5063 906.7383 370.1163C906.7383 344.7263 889.1583 326.6563 863.7683 326.6563H246.0983L128.4183 333.9863L292.4783 184.0862L401.8583 72.7563C409.6683 64.9462 414.0583 53.7062 414.0583 41.9963C414.0583 17.5762 395.0183 -0.0037 371.0983 -0.0037C359.3783 -0.0037 349.1183 3.9063 338.3783 14.6463L15.1383 337.4063C5.3683 346.6763 -0.0017 357.9063 -0.0017 370.1163Z"/>
</svg>