<?xml version="1.0" encoding="UTF-8" standalone="no"?>
<svg xmlns="http://www.w3.org/2000/svg"
     width="1295.8984375" height="902.83203125"
     viewBox="0 0 1295.8984375 902.83203125"
     fill="currentColor">
  <path d="M428.7083 902.8313C450.6883 902.8313 463.8683 892.0913 468.7483 872.5613C521.4883 709.4713 605.4683 651.8512 744.1383 651.8512L761.7183 652.3412V838.8713C761.7183 871.5813 785.6483 895.9913 818.8483 895.9913C842.7783 895.9913 862.3083 886.2313 885.7383 864.2613L1271.4883 500.4913C1290.0383 482.9113 1295.8983 464.3513 1295.8983 448.2413C1295.8983 431.6413 1290.0383 413.0813 1271.4883 395.5113L885.7383 35.1513C859.8683 10.7413 843.7483 0.0013 819.8283 0.0013C785.6483 0.0013 761.7183 27.3412 761.7183 60.0612V244.6313H747.5583C594.2383 244.6313 460.9383 335.4513 430.6683 518.0713H425.2883C391.5983 315.9213 252.9283 244.6313 121.5783 244.6313H94.2383C26.8583 244.6313 -0.0017 270.0213 -0.0017 342.7713V576.1713C-0.0017 631.3512 26.3683 654.7813 89.8483 654.7813H132.8083C266.1183 654.7813 354.0083 743.6513 389.1583 872.0713C393.5583 892.0913 406.2483 902.8313 428.7083 902.8313ZM847.1683 791.0113C842.7783 791.0113 840.3283 788.0813 840.3283 783.6913V594.7313C840.3283 583.4913 834.9583 578.6113 823.7283 578.6113L741.6983 578.1213C599.1183 578.1213 504.8783 635.2513 455.0783 762.6913H449.7083C457.5183 463.8713 566.4083 318.3613 749.9983 318.3613H823.7283C834.9583 318.3613 840.3283 313.4813 840.3283 302.2413V108.4013C840.3283 104.4913 843.2583 101.5612 847.1683 101.5612C850.5883 101.5612 853.0283 103.5113 855.4683 105.4713L1203.1283 438.9613C1207.0283 442.3813 1208.4983 445.3113 1208.4983 448.2413C1208.4983 451.1713 1207.0283 453.6113 1203.1283 457.5213L855.4683 786.6213C852.5383 789.5513 849.6083 791.0113 847.1683 791.0113ZM402.8283 762.6913C348.1483 624.0213 249.0283 579.1012 126.9483 578.1213H97.6583C85.4483 578.1213 78.6183 570.8013 78.6183 556.6413V342.7713C78.6183 328.6113 85.4483 320.8013 98.6283 320.8013H125.9783C273.4383 322.7513 398.9283 426.7613 408.1983 762.6913Z"/>
</svg>