<?xml version="1.0" encoding="UTF-8" standalone="no"?>
<svg xmlns="http://www.w3.org/2000/svg"
     width="970.21484375" height="896.484375"
     viewBox="0 0 970.21484375 896.484375"
     fill="currentColor">
  <path d="M-0.0017 294.9245C-0.0017 502.9345 174.3183 707.5145 449.7083 883.3045C459.9583 889.6445 475.0983 896.4845 484.8683 896.4845C495.1183 896.4845 509.7683 889.6445 520.5083 883.3045C795.8983 707.5145 970.2183 502.9345 970.2183 294.9245C970.2183 122.0745 851.5583 0.0045 692.8683 0.0045C602.5383 0.0045 529.2983 42.9645 484.8683 108.8845C441.4083 43.4545 367.6783 0.0045 276.8583 0.0045C118.6483 0.0045 -0.0017 122.0745 -0.0017 294.9245ZM78.6183 294.9245C78.6183 165.0345 162.5983 78.6145 275.8783 78.6145C368.1683 78.6145 420.4083 135.7445 452.1483 184.5745C465.3283 204.1045 473.6283 209.4745 484.8683 209.4745C496.5783 209.4745 503.9083 203.6145 518.0683 184.5745C551.7583 136.7145 602.5383 78.6145 693.8483 78.6145C807.6183 78.6145 891.5983 165.0345 891.5983 294.9245C891.5983 476.5645 699.7083 672.3645 495.1183 808.1045C490.2383 811.5245 486.8183 813.9645 484.8683 813.9645C483.3983 813.9645 479.9783 811.5245 475.0983 808.1045C270.5083 672.3645 78.6183 476.5645 78.6183 294.9245ZM518.5583 312.9845C518.5583 292.9645 500.9783 276.3645 480.9583 276.3645C460.9383 276.3645 443.8483 292.9645 443.8483 312.9845V489.7445L446.7783 569.3345L405.2783 526.3645L362.3083 482.9145C355.9583 475.5845 345.6983 471.6845 336.4283 471.6845C316.4083 471.6845 302.2483 485.8445 302.2483 505.3745C302.2483 516.6045 306.6383 524.9045 314.4483 531.7345L453.6183 659.6645C463.8683 669.4345 471.6783 672.3645 480.9583 672.3645C490.2383 672.3645 498.0483 669.4345 508.2983 659.6645L647.4583 531.7345C655.2783 524.9045 659.6683 516.6045 659.6683 505.3745C659.6683 485.8445 645.0183 471.6845 625.4883 471.6845C615.7183 471.6845 606.4483 475.5845 599.6083 482.9145L556.6383 526.3645L515.1383 569.3345L518.5583 489.7445Z"/>
</svg>