<?xml version="1.0" encoding="UTF-8" standalone="no"?>
<svg xmlns="http://www.w3.org/2000/svg"
     width="998.53515625" height="1228.515625"
     viewBox="0 0 998.53515625 1228.515625"
     fill="currentColor">
  <path d="M-0.0017 1075.1952C-0.0017 1177.2452 50.2883 1228.5152 151.3683 1228.5152H610.3483C711.4283 1228.5152 761.7183 1176.7552 761.7183 1075.1952V984.8652H847.1683C947.7583 984.8652 998.5383 933.1052 998.5383 831.5452V153.3252C998.5383 51.7552 947.7583 -0.0048 847.1683 -0.0048H388.1883C287.5983 -0.0048 236.8183 51.2652 236.8183 153.3252V243.6552H151.3683C50.2883 243.6552 -0.0017 294.4352 -0.0017 396.9752ZM467.2883 138.6752V128.4152C467.2883 113.2852 477.0483 99.6052 498.5383 99.6052H736.8183C757.8083 99.6052 768.0683 113.2852 768.0683 128.4152V138.6752C768.0683 153.3252 757.8083 167.4852 736.8183 167.4852H498.5383C477.0483 167.4852 467.2883 153.3252 467.2883 138.6752ZM78.6183 1073.7352V397.9452C78.6183 349.6052 104.4883 322.2652 154.7883 322.2652H606.4483C656.7383 322.2652 683.1083 349.6052 683.1083 397.9452V1073.7352C683.1083 1122.5552 656.7383 1149.9052 606.4483 1149.9052H154.7883C104.4883 1149.9052 78.6183 1122.5552 78.6183 1073.7352ZM380.8583 947.2652C398.9283 947.2652 411.6183 934.5752 411.6183 916.9952V705.5652L408.6883 617.6752L451.6583 668.9452L499.0283 716.7952C504.3983 722.6552 511.7183 726.0752 520.5083 726.0752C537.5983 726.0752 550.7783 713.3752 550.7783 696.2852C550.7783 687.9852 547.3683 680.6652 541.9883 675.2952L404.7883 538.5752C397.4583 530.7652 390.1383 526.3652 380.8583 526.3652C372.0683 526.3652 365.7183 530.2752 357.4183 538.5752L219.7283 675.2952C214.3583 680.6652 211.4283 687.9852 211.4283 696.2852C211.4283 713.3752 224.1183 726.0752 241.2083 726.0752C249.9983 726.0752 257.3283 722.1652 262.6983 716.7952L310.5483 668.9452L353.5183 618.1652L350.0983 705.5652V916.9952C350.0983 934.5752 362.7883 947.2652 380.8583 947.2652Z"/>
</svg>