<?xml version="1.0" encoding="UTF-8" standalone="no"?>
<svg xmlns="http://www.w3.org/2000/svg"
     width="996.09375" height="996.09375"
     viewBox="0 0 996.09375 996.09375"
     fill="currentColor">
  <path d="M498.0477 996.0959C770.5077 996.0959 996.0977 770.0159 996.0977 498.0459C996.0977 225.5859 770.0177 -0.0041 497.5577 -0.0041C225.5877 -0.0041 -0.0023 225.5859 -0.0023 498.0459C-0.0023 770.0159 226.0777 996.0959 498.0477 996.0959ZM498.0477 913.0859C267.5777 913.0859 83.4977 728.5159 83.4977 498.0459C83.4977 267.5759 267.0877 83.0059 497.5577 83.0059C728.0277 83.0059 913.0877 267.5759 913.0877 498.0459C913.0877 728.5159 728.5177 913.0859 498.0477 913.0859ZM314.4577 310.0559H681.1477C700.1977 310.0559 713.3777 296.3859 713.3777 277.8359C713.3777 258.7859 700.1977 245.1159 681.1477 245.1159H314.4577C295.4077 245.1159 281.7377 258.7859 281.7377 277.8359C281.7377 296.3859 295.4077 310.0559 314.4577 310.0559ZM497.0677 790.0359C515.6277 790.0359 529.7877 776.3659 529.7877 757.3259V533.2059L524.4177 444.3359L610.3477 541.5059L642.0877 574.2159C648.9277 580.5659 657.7177 583.4959 666.5077 583.4959C684.5677 583.4959 697.2677 569.3359 697.2677 551.7559C697.2677 542.4759 694.8277 534.1759 687.0077 526.8559L521.4877 358.8859C514.6477 352.0459 505.8577 347.6559 497.0677 347.6559C488.2777 347.6559 479.4877 351.5659 472.6577 358.8859L307.6177 527.3459C301.7577 533.6959 297.8477 543.9459 297.8477 551.7559C297.8477 570.3159 310.5477 583.4959 329.0977 583.4959C339.3577 583.4959 346.6777 580.5659 353.0277 574.2159L380.8577 543.4559L469.7277 443.8459L464.3577 533.2059V757.3259C464.3577 776.3659 477.5377 790.0359 497.0677 790.0359Z"/>
</svg>