<?xml version="1.0" encoding="UTF-8" standalone="no"?>
<svg xmlns="http://www.w3.org/2000/svg"
     width="821.2890625" height="1046.875"
     viewBox="0 0 821.2890625 1046.875"
     fill="currentColor">
  <path d="M151.3683 1046.8766H669.9183C770.9983 1046.8766 821.2883 995.6066 821.2883 894.0466V450.6866H467.7783C405.2783 450.6866 375.4883 420.8966 375.4883 358.3966V-0.0034H151.3683C50.7783 -0.0034 -0.0017 51.7566 -0.0017 153.3166V894.0466C-0.0017 996.0966 50.2883 1046.8766 151.3683 1046.8766ZM469.2383 383.7866H815.4283C812.4983 363.7666 798.3383 344.2366 774.8983 320.3166L505.8583 46.3866C482.9083 22.9466 462.8883 8.7866 442.3783 5.3666V357.4266C442.3783 374.9966 451.1683 383.7866 469.2383 383.7866ZM410.6483 540.5266C430.1783 540.5266 446.7783 556.1566 446.7783 575.1966V748.0466L443.3583 824.7066L484.3783 783.2066L526.8583 739.7466C533.6883 732.9066 542.9683 729.0066 552.2483 729.0066C571.2883 729.0066 585.4483 742.6766 585.4483 761.2266C585.4483 771.9766 581.0583 780.2766 573.7283 786.6166L437.0083 912.5966C427.2483 921.3866 419.4383 924.8066 410.6483 924.8066C401.8583 924.8066 394.0383 921.3866 384.2783 912.5966L247.5583 786.6166C240.2383 780.2766 235.8383 771.9766 235.8383 761.2266C235.8383 742.6766 249.5083 729.0066 269.0383 729.0066C277.8283 729.0066 287.5983 732.9066 294.4383 739.7466L336.9183 783.2066L377.9283 824.7066L374.9983 748.0466V575.1966C374.9983 556.1566 391.1183 540.5266 410.6483 540.5266Z"/>
</svg>