<?xml version="1.0" encoding="UTF-8" standalone="no"?>
<svg xmlns="http://www.w3.org/2000/svg"
     width="930.6640625" height="931.640625"
     viewBox="0 0 930.6640625 931.640625"
     fill="currentColor">
  <path d="M44.9183 395.0194C70.7983 395.0194 89.3583 375.4894 89.3583 349.6094V308.5894L79.5883 138.1794L208.0083 273.4394L358.3983 424.8094C366.6983 433.5894 377.4383 437.4994 389.1583 437.4994C416.9883 437.4994 437.4983 419.4294 437.4983 392.0894C437.4983 378.9094 433.1083 367.1894 424.3183 358.3994L273.4383 208.0094L138.1883 79.5894L309.0783 89.3594H349.6083C375.4883 89.3594 395.5083 71.2894 395.5083 44.9194C395.5083 18.5594 375.9783 -0.0006 349.6083 -0.0006H78.6183C28.8083 -0.0006 -0.0017 28.8094 -0.0017 78.6094V349.6094C-0.0017 374.9994 19.0383 395.0194 44.9183 395.0194ZM580.5683 931.6394H851.5583C901.3683 931.6394 930.6683 902.8294 930.6683 853.0294V582.0294C930.6683 556.6394 911.6183 536.6194 885.2583 536.6194C859.8683 536.6194 840.8183 556.1494 840.8183 582.0294V623.0494L851.0783 793.4594L722.1683 658.1994L572.2683 506.8394C563.9683 498.0494 552.7383 494.1394 541.0183 494.1394C513.6683 494.1394 492.6783 512.2094 492.6783 539.5494C492.6783 552.7294 497.5583 564.4494 506.3483 573.2394L656.7383 723.6294L792.4783 852.0494L621.5783 842.2894H580.5683C554.6883 842.2894 534.6683 860.3494 534.6683 886.7194C534.6683 913.0894 554.6883 931.6394 580.5683 931.6394Z"/>
</svg>