<?xml version="1.0" encoding="UTF-8" standalone="no"?>
<svg xmlns="http://www.w3.org/2000/svg"
     width="958.0259822845078" height="839.3564639471837"
     viewBox="0 0 958.0259822845078 839.3564639471837"
     fill="currentColor">
  <path d="M34.7342 616.2676C-0.4258 616.2676 -9.2158 640.1976 9.8342 667.0576L119.2042 822.3276C135.3242 845.2776 158.7542 844.7876 174.3842 822.3276L283.7542 666.5676C302.3142 640.1976 293.5242 616.2676 258.8542 616.2676H190.4942V249.0876C190.4942 164.6076 241.7642 111.3876 312.0742 111.3876C382.8742 111.3876 435.6142 163.6376 435.6142 249.0876V583.5576C435.6142 725.1576 523.9942 815.0076 646.0642 815.0076C767.6442 815.0076 855.0442 725.1576 855.0442 583.5576V223.2076H923.4042C958.0742 223.2076 967.3542 199.2776 948.3042 172.4276L839.4242 16.6676C823.7942 -5.3124 800.3542 -5.8024 784.2442 16.6676L674.8742 171.9376C655.3442 199.2776 664.6142 223.2076 699.7742 223.2076H767.6442V590.3976C767.6442 674.3776 716.3742 727.5976 646.0642 727.5976C575.2642 727.5976 522.5242 675.3576 522.5242 590.3976V255.9176C522.5242 114.3176 434.1442 24.4776 312.0742 24.4776C190.4942 24.4776 103.0942 114.3176 103.0942 255.9176V616.2676Z"/>
</svg>