<?xml version="1.0" encoding="UTF-8" standalone="no"?>
<svg xmlns="http://www.w3.org/2000/svg"
     width="762.20703125" height="922.36328125"
     viewBox="0 0 762.20703125 922.36328125"
     fill="currentColor">
  <path d="M658.6883 -0.0034C433.1083 -0.0034 326.6583 89.8466 326.6583 316.8966V655.2766L330.0783 787.5966L232.9083 680.6666L72.7583 520.5066C65.4283 512.6966 53.7083 508.7866 41.9883 508.7866C17.5783 508.7866 -0.0017 527.3466 -0.0017 551.2666C-0.0017 562.9866 4.3983 573.2466 13.6683 583.0066L337.3983 907.7166C346.6783 917.4766 357.9083 922.3666 370.1183 922.3666C382.3283 922.3666 393.5583 917.4766 402.8283 907.7166L727.0483 583.0066C736.3283 573.2466 740.2383 562.9866 740.2383 551.2666C740.2383 527.3466 722.6583 508.7866 698.2383 508.7866C686.5283 508.7866 675.2883 512.6966 667.4783 520.5066L507.3283 680.6666L409.6683 788.0866L413.5783 655.2766L413.0883 321.2866C412.5983 144.5266 489.7483 85.4466 663.0883 85.4466C686.0383 85.4466 701.6583 86.4266 718.7483 86.4266C743.6483 86.4266 762.2083 70.3166 762.2083 44.9266C762.2083 20.0166 744.6283 7.3266 725.5883 3.4166C710.4483 0.9766 687.0083 -0.0034 658.6883 -0.0034Z"/>
</svg>