<?xml version="1.0" encoding="UTF-8" standalone="no"?>
<svg xmlns="http://www.w3.org/2000/svg"
     width="933.10546875" height="933.10546875"
     viewBox="0 0 933.10546875 933.10546875"
     fill="currentColor">
  <path d="M-0.0017 669.4359V888.1859C-0.0017 914.0659 17.0883 933.1059 44.4383 933.1059H263.6683C306.6383 933.1059 317.8683 887.6959 289.5483 859.3759L212.3983 782.2259L466.3083 528.3159L720.2183 782.2259L643.0683 859.3759C615.2383 887.6959 626.4683 933.1059 669.4383 933.1059H888.6683C916.0183 933.1059 933.1083 914.0659 933.1083 888.1859V669.4359C933.1083 625.9759 887.2083 615.7259 859.3783 643.0659L782.2283 720.7059L528.3183 466.3059L782.2283 212.4059L859.3783 289.5459C887.2083 317.3859 933.1083 306.6359 933.1083 263.6759V44.9259C933.1083 18.5559 916.0183 -0.0041 888.6683 -0.0041H669.4383C626.4683 -0.0041 615.2383 45.4059 643.0683 73.2459L720.6983 150.8759L466.3083 404.7859L212.3983 150.3859L289.5483 73.2459C317.8683 45.4059 306.6383 -0.0041 263.6683 -0.0041H44.4383C17.0883 -0.0041 -0.0017 18.5559 -0.0017 44.9259V263.6759C-0.0017 306.6359 45.8983 317.3859 73.2383 289.5459L150.8783 212.4059L404.7883 466.3059L150.8783 720.7059L73.2383 643.0659C45.8983 615.7259 -0.0017 625.9759 -0.0017 669.4359Z"/>
</svg>