<?xml version="1.0" encoding="UTF-8" standalone="no"?>
<svg xmlns="http://www.w3.org/2000/svg"
     width="970.21484375" height="896.484375"
     viewBox="0 0 970.21484375 896.484375"
     fill="currentColor">
  <path d="M484.8683 896.4845C495.1183 896.4845 509.7683 889.6445 520.5083 883.3045C795.8983 707.5145 970.2183 502.9345 970.2183 294.9245C970.2183 122.0745 851.5583 0.0045 697.7583 0.0045C602.5383 0.0045 529.2983 52.7345 484.8683 133.3045C441.4083 53.2245 367.6783 0.0045 271.9683 0.0045C118.6483 0.0045 -0.0017 122.0745 -0.0017 294.9245C-0.0017 502.9345 174.3183 707.5145 449.7083 883.3045C459.9583 889.6445 475.0983 896.4845 484.8683 896.4845ZM520.0183 293.4545V475.0945L516.5983 557.1245L558.5983 513.1845L603.0283 468.2645C610.3483 460.9345 619.6283 456.5445 629.8783 456.5445C649.8983 456.5445 665.5283 471.1945 665.5283 491.6945C665.5283 503.4145 660.6483 511.7145 652.8283 519.0445L509.2783 650.3945C498.5383 660.6445 490.7183 663.5745 480.9583 663.5745C471.1883 663.5745 463.3783 660.6445 452.6383 650.3945L309.0783 519.0445C301.2683 511.7145 296.3883 503.4145 296.3883 491.6945C296.3883 471.1945 311.0383 456.5445 332.0283 456.5445C341.7983 456.5445 352.0483 460.9345 358.8883 468.2645L403.3183 513.1845L445.3083 557.1245L442.3783 475.0945V293.4545C442.3783 272.9445 459.9583 255.8545 480.9583 255.8545C501.9483 255.8545 520.0183 272.9445 520.0183 293.4545Z"/>
</svg>