<?xml version="1.0" encoding="UTF-8" standalone="no"?>
<svg xmlns="http://www.w3.org/2000/svg"
     width="1227.5390625" height="848.6328125"
     viewBox="0 0 1227.5390625 848.6328125"
     fill="currentColor">
  <path d="M964.8477 848.6363C1112.3077 848.6363 1227.5377 740.7262 1227.5377 606.4463C1227.5377 503.9063 1168.4577 415.0363 1073.2377 374.9962C1074.2177 157.2263 917.4777 -0.0037 717.7777 -0.0037C585.4477 -0.0037 491.2077 70.7962 432.6177 156.2463C312.4977 121.0963 181.6377 212.4063 179.1977 349.1163C68.8477 366.6963 -0.0023 465.3363 -0.0023 584.4762C-0.0023 728.0263 125.4877 848.6363 292.4777 848.6363ZM434.0777 485.3563C434.0777 373.5363 525.8777 286.6163 627.9277 286.6163C631.8377 286.6163 636.2277 287.1063 639.6477 287.5963L608.3977 254.8863C603.5177 249.9963 600.5877 241.6962 600.5877 234.3763C600.5877 218.2663 613.2777 204.5862 629.3977 204.5862C637.2077 204.5862 645.5077 208.0063 650.3877 213.8663L737.3077 302.7363C748.0477 313.4763 748.5377 333.9863 737.3077 345.2163L649.4177 433.1063C644.5277 437.9863 636.7177 441.4063 629.3977 441.4063C613.2777 441.4063 600.5877 428.7063 600.5877 412.1063C600.5877 404.2963 604.0077 396.9763 609.3777 391.6063L652.3477 348.6363C648.4377 347.6563 642.5777 347.1663 636.7177 347.1663C559.0777 347.1663 497.0677 409.6663 497.0677 486.8163C497.0677 564.9463 559.0777 627.9263 636.7177 627.9263C714.8477 627.9263 776.8577 564.9463 776.8577 486.8163C776.8577 470.2163 791.0177 456.0563 808.5977 456.0563C825.1977 456.0563 839.8477 470.2163 839.8477 486.8163C839.8477 599.6063 749.5077 690.4263 636.7177 690.4263C524.4177 690.4263 434.0777 599.6063 434.0777 485.3563Z"/>
</svg>