<?xml version="1.0" encoding="UTF-8" standalone="no"?>
<svg xmlns="http://www.w3.org/2000/svg"
     width="721.19140625" height="720.703125"
     viewBox="0 0 721.19140625 720.703125"
     fill="currentColor">
  <path d="M721.1883 182.6141C721.1883 155.7641 700.1983 136.2341 676.7583 136.2341C652.8283 136.2341 632.8083 157.2241 632.8083 180.6641V360.8441L641.5983 588.8641L561.0383 498.0441L76.1683 13.1841C67.3783 4.3941 56.6383 0.0041 45.4083 0.0041C20.9983 0.0041 -0.0017 22.4641 -0.0017 45.8941C-0.0017 56.1541 4.8783 67.8741 13.6683 76.6641L497.5583 561.0341L588.3783 641.1141L350.0983 633.3041H180.1783C157.2283 633.3041 136.2283 653.3241 136.2283 676.7541C136.2283 700.1941 154.7883 720.7041 182.1283 720.7041H673.3383C702.6383 720.7041 720.6983 701.6641 720.6983 673.8241Z"/>
</svg>