<?xml version="1.0" encoding="UTF-8" standalone="no"?>
<svg xmlns="http://www.w3.org/2000/svg"
     width="1227.5390625" height="848.6328125"
     viewBox="0 0 1227.5390625 848.6328125"
     fill="currentColor">
  <path d="M964.8477 848.6363C1112.3077 848.6363 1227.5377 740.7262 1227.5377 606.4463C1227.5377 503.9063 1168.4577 415.0363 1073.2377 374.9962C1074.2177 157.2263 917.4777 -0.0037 717.7777 -0.0037C585.4477 -0.0037 491.2077 70.7962 432.6177 156.2463C312.4977 121.0963 181.6377 212.4063 179.1977 349.1163C68.8477 366.6963 -0.0023 465.3363 -0.0023 584.4762C-0.0023 728.0263 125.4877 848.6363 292.4777 848.6363ZM964.8477 770.0163H292.4777C169.4377 770.0163 78.6177 684.0863 78.6177 584.4762C78.6177 486.8163 137.6977 409.1763 241.2077 409.1763C248.0477 409.1763 250.4877 405.7663 250.4877 399.4163C250.4877 249.0263 358.8877 204.5862 458.9877 237.3063C464.8477 239.2563 468.2577 237.7963 471.1877 232.4263C518.5577 147.9462 591.3077 78.6163 717.7777 78.6163C877.9277 78.6163 988.7677 205.5662 997.0677 350.5863C998.5377 373.0463 997.0677 399.4163 995.1177 422.3663C994.6277 428.7063 997.0677 432.1263 1002.9277 433.5963C1091.7977 453.1263 1148.9277 518.0663 1148.9277 606.4463C1148.9277 697.2663 1068.8477 770.0163 964.8477 770.0163ZM820.7977 484.3763C820.7977 375.9763 731.9377 291.5063 632.3277 291.5063C628.4177 291.5063 624.0277 291.9963 621.0977 292.4763L651.3677 260.7463C656.2477 255.8563 659.6677 248.0463 659.6677 240.7263C659.6677 225.0963 647.4577 211.9163 631.8377 211.9163C624.0277 211.9163 616.2077 215.3362 611.3277 221.1962L526.8577 307.1263C516.1177 317.8663 516.1177 337.4063 526.8577 348.1463L612.3077 433.5963C617.1877 438.4763 624.5077 441.4063 631.8377 441.4063C647.4577 441.4063 659.6677 429.1963 659.6677 413.5763C659.6677 405.7663 656.2477 398.9263 650.8777 393.5563L608.3977 351.5663C612.7977 350.5863 618.6477 350.0963 624.0277 350.0963C699.7077 350.0963 760.2577 410.6463 760.2577 485.8363C760.2577 561.5263 699.7077 622.5563 624.0277 622.5563C548.8277 622.5563 488.2777 561.5263 488.2777 485.8363C488.2777 469.7263 474.6077 456.0563 458.0077 456.0563C441.4077 456.0563 427.7377 469.7263 427.7377 485.8363C427.7377 595.2162 515.1377 683.1063 624.0277 683.1063C733.3977 683.1063 820.7977 595.2162 820.7977 484.3763Z"/>
</svg>