<?xml version="1.0" encoding="UTF-8" standalone="no"?>
<svg xmlns="http://www.w3.org/2000/svg"
     width="898.92578125" height="898.92578125"
     viewBox="0 0 898.92578125 898.92578125"
     fill="currentColor">
  <path d="M153.3183 898.9272H745.6083C848.1483 898.9272 898.9283 848.1472 898.9283 747.5572V151.3672C898.9283 50.7772 848.1483 -0.0028 745.6083 -0.0028H153.3183C51.2683 -0.0028 -0.0017 50.2972 -0.0017 151.3672V747.5572C-0.0017 848.6372 51.2683 898.9272 153.3183 898.9272ZM154.2983 820.3172C105.4683 820.3172 78.6183 794.4372 78.6183 743.6572V155.2772C78.6183 104.9772 105.4683 78.6172 154.2983 78.6172H744.6283C792.9683 78.6172 820.3083 104.9772 820.3083 155.2772V743.6572C820.3083 794.4372 792.9683 820.3172 744.6283 820.3172ZM495.6083 197.7572C378.4183 197.7572 307.1283 282.2272 307.1283 396.4872V541.9872L308.5983 600.0972L278.3183 561.5272L229.4883 510.7372C223.6283 504.3972 214.3583 499.9972 204.0983 499.9972C184.0783 499.9972 168.4583 515.1372 168.4583 535.1572C168.4583 545.4072 171.8783 553.2272 179.1983 560.0572L311.0383 689.9372C319.3383 697.7572 329.5883 702.6372 340.8183 702.6372C352.5383 702.6372 362.3083 697.7572 370.6083 689.9372L503.4183 559.5672C510.2583 552.7372 513.6683 544.9172 513.6683 534.6672C513.6683 515.1372 498.5383 499.9972 478.0283 499.9972C468.7483 499.9972 459.4683 503.4172 453.1283 510.2572L394.5283 571.7772L373.0483 600.0972L375.4883 541.9872V396.4872C375.4883 324.7072 416.5083 269.5272 491.6983 269.5272C568.8483 269.5272 616.2083 323.2372 616.2083 396.9772V464.8472C616.2083 485.3472 628.4183 501.9572 651.3683 501.9572C673.8283 501.9572 686.0383 485.3472 686.0383 463.8672V396.9772C686.0383 282.7172 612.7883 197.7572 495.6083 197.7572Z"/>
</svg>