<?xml version="1.0" encoding="UTF-8" standalone="no"?>
<svg xmlns="http://www.w3.org/2000/svg"
     width="898.92578125" height="898.92578125"
     viewBox="0 0 898.92578125 898.92578125"
     fill="currentColor">
  <path d="M153.3183 898.9295H745.6083C848.1483 898.9295 898.9283 848.1495 898.9283 747.5595V151.3695C898.9283 50.7795 848.1483 -0.0005 745.6083 -0.0005H153.3183C51.2683 -0.0005 -0.0017 50.2895 -0.0017 151.3695V747.5595C-0.0017 848.6295 51.2683 898.9295 153.3183 898.9295ZM154.2983 820.3095C105.4683 820.3095 78.6183 794.4295 78.6183 743.6495V155.2695C78.6183 104.4895 105.4683 78.6095 154.2983 78.6095H744.6283C792.9683 78.6095 820.3083 104.4895 820.3083 155.2695V743.6495C820.3083 794.4295 792.9683 820.3095 744.6283 820.3095ZM199.2183 448.2395C199.2183 458.9795 204.0983 467.7695 212.8883 476.5595L377.9283 642.0895C384.2783 648.4395 393.5583 652.3395 403.3183 652.3395C423.8283 652.3395 438.4783 636.7195 438.4783 616.6995C438.4783 605.9595 435.0583 597.1695 427.7383 590.8195L366.6983 530.2695L307.6183 480.9595L411.1283 484.3795H665.5283C687.0083 484.3795 702.1483 469.2395 702.1483 448.2395C702.1483 426.7595 686.5283 411.6195 665.5283 411.6195H411.1283L308.1083 415.5295L366.6983 366.2095L427.7383 305.6595C434.5683 298.8295 438.4783 290.0395 438.4783 279.2995C438.4783 259.2795 423.8283 244.1395 403.3183 244.1395C393.5583 244.1395 384.2783 247.5595 377.9283 253.9095L212.8883 419.9195C203.1283 429.6895 199.2183 437.4995 199.2183 448.2395Z"/>
</svg>