<?xml version="1.0" encoding="UTF-8" standalone="no"?>
<svg xmlns="http://www.w3.org/2000/svg"
     width="1486.328125" height="928.22265625"
     viewBox="0 0 1486.328125 928.22265625"
     fill="currentColor">
  <path d="M743.1683 928.2263C768.5583 928.2263 786.6183 910.1563 786.6183 884.7663V42.4763C786.6183 17.5762 768.5583 -0.0037 743.1683 -0.0037C717.7783 -0.0037 699.2183 17.5762 699.2183 42.4763V884.7663C699.2183 910.1563 717.7783 928.2263 743.1683 928.2263ZM-0.0017 455.0763C-0.0017 480.4663 17.5783 498.5363 42.9683 498.5363H375.9783L473.1483 495.6063L312.0083 650.8763C303.7083 659.1763 299.8083 670.4063 299.8083 682.1263C299.8083 707.0263 318.3583 724.6063 342.7783 724.6063C354.9783 724.6063 365.7183 720.2162 375.4883 710.4463L598.6283 487.7963C607.9083 478.5163 613.7683 466.7963 613.7683 455.0763C613.7683 442.8663 607.9083 431.6363 598.6283 421.8763L375.4883 199.2162C365.7183 189.4562 354.9783 185.0562 342.7783 185.0562C318.3583 185.0562 299.8083 202.6363 299.8083 227.5363C299.8083 238.7663 303.7083 250.4863 312.0083 258.7863L473.1483 414.5463L375.9783 411.1363H42.9683C17.5783 411.1363 -0.0017 429.1963 -0.0017 455.0763ZM1486.3283 455.0763C1486.3283 429.1963 1468.2583 411.1363 1442.8683 411.1363H1110.3483L1012.6983 414.5463L1173.8283 258.7863C1182.1283 250.4863 1186.0383 238.7663 1186.0383 227.5363C1186.0383 202.6363 1167.4783 185.0562 1143.5583 185.0562C1131.3483 185.0562 1120.1183 189.4562 1110.3483 199.2162L887.2083 421.8763C877.9283 431.6363 872.5583 442.8663 872.5583 455.0763C872.5583 466.7963 877.9283 478.5163 887.2083 487.7963L1110.3483 710.4463C1120.1183 720.2162 1131.3483 724.6063 1143.5583 724.6063C1167.4783 724.6063 1186.0383 707.0263 1186.0383 682.1263C1186.0383 670.4063 1182.1283 659.1763 1173.8283 650.8763L1012.6983 495.6063L1110.3483 498.5363H1442.8683C1468.2583 498.5363 1486.3283 480.4663 1486.3283 455.0763Z"/>
</svg>