<?xml version="1.0" encoding="UTF-8" standalone="no"?>
<svg xmlns="http://www.w3.org/2000/svg"
     width="821.2890625" height="1046.875"
     viewBox="0 0 821.2890625 1046.875"
     fill="currentColor">
  <path d="M151.3683 1046.8766H669.9183C770.9983 1046.8766 821.2883 995.6066 821.2883 894.0466V450.6866C821.2883 387.6966 813.9683 360.3466 774.8983 320.3166L505.8583 46.3866C468.7483 8.2966 437.9883 -0.0034 383.2983 -0.0034H151.3683C50.7783 -0.0034 -0.0017 51.7566 -0.0017 153.3166V894.0466C-0.0017 996.0966 50.2883 1046.8766 151.3683 1046.8766ZM154.7883 968.2666C104.4883 968.2666 78.6183 941.4066 78.6183 892.5766V154.7866C78.6183 106.4466 104.4883 78.6166 155.2783 78.6166H372.5583V362.3066C372.5583 423.8266 403.3183 454.0966 464.3583 454.0966H742.6783V892.5766C742.6783 941.4066 716.7983 968.2666 666.0183 968.2666ZM473.1483 380.3666C453.6183 380.3666 446.2883 372.5566 446.2883 353.0266V93.7466L727.5383 380.3666ZM447.7583 870.1166V692.8666L444.8283 613.2766L486.3283 656.2466L530.2783 701.1766C537.1083 708.4966 546.8783 712.4066 556.6383 712.4066C576.1683 712.4066 590.8183 698.2466 590.8183 678.7066C590.8183 667.4766 586.4283 659.1766 578.6183 652.3466L437.9883 522.9466C427.7383 513.6766 419.9183 510.2566 410.6483 510.2566C401.3683 510.2566 393.5583 513.6766 383.2983 522.9466L242.6783 652.3466C234.8683 659.1766 230.4683 667.4766 230.4683 678.7066C230.4683 698.2466 244.6283 712.4066 264.6483 712.4066C273.9283 712.4066 284.1783 708.4966 291.0183 701.1766L334.9583 656.2466L376.4683 613.2766L373.5383 692.8666V870.1166C373.5383 890.1366 390.6283 906.2466 410.6483 906.2466C430.6683 906.2466 447.7583 890.1366 447.7583 870.1166Z"/>
</svg>