<?xml version="1.0" encoding="UTF-8" standalone="no"?>
<svg xmlns="http://www.w3.org/2000/svg"
     width="1142.578125" height="917.7885120361276"
     viewBox="0 0 1142.578125 917.7885120361276"
     fill="currentColor">
  <path d="M260.2583 14.6474L13.6683 266.1174C5.3683 274.9074 -0.0017 287.5974 -0.0017 298.3374C-0.0017 324.2174 17.5783 341.7974 42.9683 341.7974C55.6683 341.7974 65.4283 337.4074 73.7283 329.1074L175.2883 224.1274L253.9083 133.3074L249.0283 246.0974V873.5374C249.0283 899.4174 267.0883 917.4874 292.9683 917.4874C318.3583 917.4874 336.4283 899.4174 336.4283 873.5374V246.0974L332.0283 133.3074L410.1583 224.1274L512.2083 329.1074C520.5083 337.4074 529.7883 341.7974 542.4783 341.7974C567.8683 341.7974 585.4483 324.2174 585.4483 298.3374C585.4483 287.5974 580.5683 274.9074 571.7783 266.1174L325.6883 14.6474C307.6183 -4.3926 278.8083 -5.3726 260.2583 14.6474ZM882.8083 903.3274L1128.9083 650.8774C1137.6983 642.5774 1142.5783 629.8874 1142.5783 618.6574C1142.5783 592.7774 1124.9983 575.6874 1099.6083 575.6874C1086.9183 575.6874 1077.6383 579.5874 1069.3383 587.8974L967.7783 692.8774L889.1583 784.1774L893.5583 671.3874V43.9474C893.5583 18.5574 875.4883 -0.0026 850.0983 -0.0026C824.2183 -0.0026 806.1483 18.5574 806.1483 43.9474V671.3874L811.0383 784.1774L732.4183 692.8774L630.8583 587.8974C622.5583 579.5874 612.7883 575.6874 600.5883 575.6874C575.1983 575.6874 557.1283 592.7774 557.1283 618.6574C557.1283 629.8874 562.4983 642.5774 571.2883 650.8774L817.3783 903.3274C835.4483 922.3674 863.7683 922.8574 882.8083 903.3274Z"/>
</svg>