<?xml version="1.0" encoding="UTF-8" standalone="no"?>
<svg xmlns="http://www.w3.org/2000/svg"
     width="996.09375" height="996.09375"
     viewBox="0 0 996.09375 996.09375"
     fill="currentColor">
  <path d="M498.0477 996.0953C770.5077 996.0953 996.0977 770.5053 996.0977 498.0453C996.0977 226.0753 770.0177 -0.0047 497.5577 -0.0047C225.5877 -0.0047 -0.0023 226.0753 -0.0023 498.0453C-0.0023 770.5053 226.0777 996.0953 498.0477 996.0953ZM550.7777 242.1853C667.4777 242.1853 743.6477 321.7753 743.6477 439.4553V504.8853C743.6477 528.3153 729.0077 544.4353 707.0277 544.4353C685.5477 544.4353 670.8977 528.8053 670.8977 505.8553V439.4553C670.8977 365.7253 623.0477 315.4253 550.7777 315.4253C483.8877 315.4253 439.4577 364.7453 439.4577 438.9653V581.5453L437.0077 631.8353L453.6177 608.8853L510.7377 549.3153C517.5777 542.4853 526.8577 538.0853 537.5977 538.0853C558.5977 538.0853 575.1977 553.7153 575.1977 574.2153C575.1977 584.9653 571.2877 594.2353 564.4577 600.5853L433.5977 729.0053C424.3177 738.2853 413.5777 742.1853 402.8277 742.1853C391.5977 742.1853 380.8577 737.7953 371.5777 729.0053L242.1877 601.0753C234.8677 594.2353 231.4477 585.4453 231.4477 574.7053C231.4477 553.7153 248.0477 538.0853 268.5577 538.0853C278.8077 538.0853 288.5777 542.4853 294.9177 549.3153L342.7777 599.1253L369.1377 632.3253L366.6977 581.5453V438.9653C366.6977 321.2853 439.9377 242.1853 550.7777 242.1853Z"/>
</svg>