<?xml version="1.0" encoding="UTF-8" standalone="no"?>
<svg xmlns="http://www.w3.org/2000/svg"
     width="721.19140625" height="720.703125"
     viewBox="0 0 721.19140625 720.703125"
     fill="currentColor">
  <path d="M721.1883 538.5741L720.6983 47.3641C720.6983 19.5341 702.6383 0.0041 673.3383 0.0041H182.1283C154.7883 0.0041 136.2283 20.9941 136.2283 44.4341C136.2283 67.8741 157.2283 87.8941 180.1783 87.8941H350.0983L588.3783 80.0741L497.5583 159.6641L13.6683 644.5341C4.8783 653.3241 -0.0017 664.5541 -0.0017 675.2941C-0.0017 698.7341 20.9983 720.7041 45.4083 720.7041C56.6383 720.7041 67.3783 716.7941 76.1683 707.5241L561.0383 223.1441L641.5983 131.8341L632.8083 359.8641V540.5241C632.8083 563.4741 652.8283 584.9641 676.7583 584.9641C700.1983 584.9641 721.1883 564.9441 721.1883 538.5741Z"/>
</svg>