<?xml version="1.0" encoding="UTF-8" standalone="no"?>
<svg xmlns="http://www.w3.org/2000/svg"
     width="1107.421875" height="1022.94921875"
     viewBox="0 0 1107.421875 1022.94921875"
     fill="currentColor">
  <path d="M211.9177 1022.9495C277.8277 1022.9495 412.5977 956.5395 511.7177 885.7395C852.0477 895.0195 1107.4177 699.7095 1107.4177 443.8495C1107.4177 198.2395 861.3277 -0.0005 553.7077 -0.0005C246.0977 -0.0005 -0.0023 198.2395 -0.0023 443.8495C-0.0023 603.9995 102.5377 746.0895 256.8377 817.3795C234.8677 859.8595 193.8477 917.4795 171.8777 946.2895C145.9977 980.4695 161.6177 1022.9495 211.9177 1022.9495ZM263.1877 941.8995C259.2777 943.3595 257.8077 940.4295 260.2577 937.0095C287.5977 903.3195 326.6577 852.5395 343.2577 821.2895C356.9377 795.8995 353.5177 773.4395 322.2677 758.7895C168.9477 687.4995 81.0577 573.7295 81.0577 443.8495C81.0577 243.6495 290.5277 80.5695 553.7077 80.5695C817.3877 80.5695 1026.8577 243.6495 1026.8577 443.8495C1026.8577 643.5595 817.3877 806.6395 553.7077 806.6395C543.9477 806.6395 528.8077 806.1495 509.2777 805.6595C488.7677 805.6595 473.1477 812.0095 454.5877 826.6595C394.5277 870.1195 307.6177 923.8295 263.1877 941.8995ZM554.1977 692.3795C575.6877 692.3795 590.8177 677.2495 590.8177 656.2495V411.6195L586.9177 308.1095L636.7177 367.1895L694.3377 425.7795C700.6877 433.1095 709.4777 436.5195 720.2177 436.5195C740.2377 436.5195 755.8577 421.3895 755.8577 401.3695C755.8577 391.5995 751.9577 382.8095 745.6077 375.9795L583.0077 213.8695C573.7277 204.5895 565.4277 199.7095 554.1977 199.7095C543.9477 199.7095 535.6477 204.0995 525.8777 213.8695L362.7977 375.9795C356.4477 382.8095 353.5177 391.5995 353.5177 401.3695C353.5177 421.3895 368.6477 436.5195 388.6677 436.5195C398.9277 436.5195 408.2077 432.6195 414.5477 425.7795L472.6577 367.1895L521.4877 309.0795L517.5777 411.6195V656.2495C517.5777 677.2495 533.2077 692.3795 554.1977 692.3795Z"/>
</svg>