<?xml version="1.0" encoding="UTF-8" standalone="no"?>
<svg xmlns="http://www.w3.org/2000/svg"
     width="996.09375" height="996.09375"
     viewBox="0 0 996.09375 996.09375"
     fill="currentColor">
  <path d="M498.0477 996.0959C770.5077 996.0959 996.0977 770.0159 996.0977 498.0459C996.0977 225.5859 770.0177 -0.0041 497.5577 -0.0041C225.5877 -0.0041 -0.0023 225.5859 -0.0023 498.0459C-0.0023 770.0159 226.0777 996.0959 498.0477 996.0959ZM286.6177 720.2159C266.5977 720.2159 251.9577 706.5459 251.9577 687.0159V308.5959C251.9577 289.0659 266.5977 275.3859 286.6177 275.3859C305.6677 275.3859 319.8277 289.0659 319.8277 308.5959V687.0159C319.8277 706.5459 305.6677 720.2159 286.6177 720.2159ZM814.9377 498.5359C814.9377 519.0459 800.2977 532.7159 780.7577 532.7159H550.2977L457.5177 526.8559L560.0577 617.6759L591.7977 646.9759C599.1177 652.8359 602.0477 661.1359 602.0477 671.3859C602.0477 690.9159 588.3777 704.1059 568.8477 704.1059C560.5477 704.1059 549.8077 699.7059 543.4577 692.8759L370.1177 523.9259C361.8177 516.6059 358.3977 507.8159 358.3977 498.5359C358.3977 488.7659 362.7977 480.4659 370.1177 472.6559L543.9477 302.2459C550.7777 294.4359 559.5677 291.5059 568.3577 291.5059C587.3977 291.5059 602.0477 304.6859 602.0477 323.7259C602.0477 333.0059 599.1177 342.2859 591.7977 348.6359L560.5477 379.3959L458.0077 470.2159L550.2977 464.8459H780.7577C800.2977 464.8459 814.9377 479.0059 814.9377 498.5359Z"/>
</svg>