<?xml version="1.0" encoding="UTF-8" standalone="no"?>
<svg xmlns="http://www.w3.org/2000/svg"
     width="996.09375" height="996.09375"
     viewBox="0 0 996.09375 996.09375"
     fill="currentColor">
  <path d="M498.0477 996.0959C770.5077 996.0959 996.0977 770.0159 996.0977 498.0459C996.0977 225.5859 770.0177 -0.0041 497.5577 -0.0041C225.5877 -0.0041 -0.0023 225.5859 -0.0023 498.0459C-0.0023 770.0159 226.0777 996.0959 498.0477 996.0959ZM756.8377 497.5559C756.8377 508.7859 752.4377 517.5759 742.6777 526.8559L572.7577 697.2659C565.9177 704.1059 557.1277 708.0059 546.3877 708.0059C525.3877 708.0059 509.7677 691.8959 509.7677 670.8959C509.7677 660.1559 514.1577 650.8759 520.9977 644.0459L583.4977 582.0359L644.5277 531.2459L538.0877 535.1559H276.3677C254.3977 535.1559 238.2777 519.5359 238.2777 497.5559C238.2777 475.0959 254.3977 459.4759 276.3677 459.4759H538.0877L644.5277 463.8659L583.4977 413.0859L520.9977 351.0759C514.6477 343.7459 509.7677 334.4759 509.7677 323.7259C509.7677 302.7359 525.3877 287.1059 546.3877 287.1059C557.1277 287.1059 565.9177 290.5259 572.7577 297.3659L742.6777 468.2659C752.9277 478.5159 756.8377 486.3259 756.8377 497.5559Z"/>
</svg>