<?xml version="1.0" encoding="UTF-8" standalone="no"?>
<svg xmlns="http://www.w3.org/2000/svg"
     width="899.9375723007814" height="872.6415666414583"
     viewBox="0 0 899.9375723007814 872.6415666414583"
     fill="currentColor">
  <path d="M114.1351 236.4152L159.0551 177.8152C277.2151 253.5052 407.5851 423.4252 407.5851 540.6152V820.8852C407.5851 854.5752 422.7251 872.6452 450.0751 872.6452C477.4151 872.6452 492.5551 854.5752 492.5551 820.8852V540.6152C492.5551 424.8852 619.9951 256.9152 738.6451 179.2852L780.1451 235.9252C800.6551 264.2452 825.5551 257.8952 835.8151 226.1552L897.3351 46.4652C906.1251 20.1052 891.9651 1.5452 865.1051 2.0352L674.6751 4.9652C641.9651 5.4552 628.2951 26.9352 648.3151 54.7752L687.8651 108.9652C573.1151 189.5352 465.2051 333.0952 450.5551 406.8252H449.0951C434.4451 332.6052 327.0251 189.5352 212.2751 108.9652L250.8551 59.1652C271.8451 31.8252 258.6651 9.8452 225.9451 8.3852L36.0051 0.0852C8.6651 -1.3848 -5.9849 16.6852 2.3151 43.5352L58.4651 224.6952C68.2351 256.9152 92.6451 264.2452 114.1351 236.4152Z"/>
</svg>