<?xml version="1.0" encoding="UTF-8" standalone="no"?>
<svg xmlns="http://www.w3.org/2000/svg"
     width="996.09375" height="996.09375"
     viewBox="0 0 996.09375 996.09375"
     fill="currentColor">
  <path d="M498.0477 996.0959C770.5077 996.0959 996.0977 770.0159 996.0977 498.0459C996.0977 225.5859 770.0177 -0.0041 497.5577 -0.0041C225.5877 -0.0041 -0.0023 225.5859 -0.0023 498.0459C-0.0023 770.0159 226.0777 996.0959 498.0477 996.0959ZM498.0477 913.0859C267.5777 913.0859 83.4977 728.5159 83.4977 498.0459C83.4977 267.5759 267.0877 83.0059 497.5577 83.0059C728.0277 83.0059 913.0877 267.5759 913.0877 498.0459C913.0877 728.5159 728.5177 913.0859 498.0477 913.0859ZM498.0477 742.1859C519.5277 742.1859 534.6677 727.0459 534.6677 705.5659V461.4259L530.7577 357.9059L580.5677 416.9959L638.1877 475.5859C644.5277 482.4259 653.3177 486.3259 664.0577 486.3259C684.0777 486.3259 699.7077 470.7059 699.7077 451.1759C699.7077 440.9159 695.7977 432.1259 689.4577 425.7859L526.8577 263.1859C517.5777 253.9059 508.7877 249.5159 498.0477 249.5159C487.7977 249.5159 479.4877 253.4159 469.7277 263.1859L306.6377 425.7859C300.2977 432.1259 297.3677 440.9159 297.3677 451.1759C297.3677 470.7059 312.4977 486.3259 332.5177 486.3259C342.7777 486.3259 351.5577 481.9359 358.3977 475.5859L416.5077 416.9959L465.3277 358.3959L461.4277 461.4259V705.5659C461.4277 727.0459 477.0477 742.1859 498.0477 742.1859Z"/>
</svg>