<?xml version="1.0" encoding="UTF-8" standalone="no"?>
<svg xmlns="http://www.w3.org/2000/svg"
     width="898.92578125" height="898.92578125"
     viewBox="0 0 898.92578125 898.92578125"
     fill="currentColor">
  <path d="M153.3183 898.9295H745.6083C848.1483 898.9295 898.9283 848.1495 898.9283 747.5595V151.3695C898.9283 50.7795 848.1483 -0.0005 745.6083 -0.0005H153.3183C51.2683 -0.0005 -0.0017 50.2895 -0.0017 151.3695V747.5595C-0.0017 848.6295 51.2683 898.9295 153.3183 898.9295ZM154.2983 820.3095C105.4683 820.3095 78.6183 794.4295 78.6183 743.6495V155.2695C78.6183 104.4895 105.4683 78.6095 154.2983 78.6095H744.6283C792.9683 78.6095 820.3083 104.4895 820.3083 155.2695V743.6495C820.3083 794.4295 792.9683 820.3095 744.6283 820.3095ZM296.3883 569.8195C317.8683 569.8195 332.0283 554.6895 332.0283 531.7395V447.2695L324.7083 371.0895L395.0183 446.2895L574.7083 625.9795C582.0283 632.8095 590.8183 637.2095 602.5383 637.2095C624.0283 637.2095 638.6683 623.0495 638.6683 601.0695C638.6683 591.3095 633.7883 581.5395 626.9483 574.7095L446.7783 394.5295L370.6083 323.7295L442.8683 331.5395H531.7383C555.1783 331.5395 570.3083 317.3795 570.3083 295.8995C570.3083 274.4095 555.6683 260.2495 532.7183 260.2495H301.2683C276.3683 260.2495 260.7383 271.4795 260.7383 300.2895V530.7595C260.7383 553.2195 274.8983 569.8195 296.3883 569.8195Z"/>
</svg>