<?xml version="1.0" encoding="UTF-8" standalone="no"?>
<svg xmlns="http://www.w3.org/2000/svg"
     width="713.4447879389118" height="1056.15234375"
     viewBox="0 0 713.4447879389118 1056.15234375"
     fill="currentColor">
  <path d="M303.7159 1056.1494C485.3559 1056.1494 606.4459 935.0594 606.4459 752.4394V655.7594C606.4459 632.8094 587.8859 614.2594 564.9459 614.2594C541.9959 614.2594 522.9459 632.8094 522.9459 655.7594V752.4394C522.9459 884.2794 434.5659 972.6594 303.7159 972.6594C171.8759 972.6594 83.4959 884.2794 83.4959 752.4394V302.7294C83.4959 171.8794 171.8759 83.0094 303.7159 83.0094C434.5659 83.0094 522.9459 171.8794 522.9459 302.7294V304.6894H454.1059C419.9259 304.6894 410.6459 328.6094 429.1959 355.4694L538.5759 511.2294C554.1959 533.1994 577.6359 533.6894 593.7459 511.2294L703.6159 355.9594C722.6559 328.6094 713.8659 304.6894 678.7159 304.6894H606.4459V302.7294C606.4459 120.6094 485.3559 -0.0006 303.7159 -0.0006C121.0959 -0.0006 -0.0041 120.6094 -0.0041 302.7294V752.4394C-0.0041 935.0594 121.0959 1056.1494 303.7159 1056.1494Z"/>
</svg>