<?xml version="1.0" encoding="UTF-8" standalone="no"?>
<svg xmlns="http://www.w3.org/2000/svg"
     width="996.09375" height="996.09375"
     viewBox="0 0 996.09375 996.09375"
     fill="currentColor">
  <path d="M498.0477 996.0959C770.5077 996.0959 996.0977 770.0159 996.0977 498.0459C996.0977 225.5859 770.0177 -0.0041 497.5577 -0.0041C225.5877 -0.0041 -0.0023 225.5859 -0.0023 498.0459C-0.0023 770.0159 226.0777 996.0959 498.0477 996.0959ZM498.0477 913.0859C267.5777 913.0859 83.4977 728.5159 83.4977 498.0459C83.4977 267.5759 267.0877 83.0059 497.5577 83.0059C728.0277 83.0059 913.0877 267.5759 913.0877 498.0459C913.0877 728.5159 728.5177 913.0859 498.0477 913.0859ZM286.6177 497.5559C305.6677 497.5559 321.2877 482.4259 321.2877 463.3759V439.4559L315.9177 362.3059L421.8777 473.1459C436.0377 488.7659 459.4777 488.2859 473.6377 473.6359C487.7977 459.4759 487.3077 435.5459 473.1477 421.8759L363.2777 316.8959L437.9877 321.7759H461.9177C480.9577 321.7759 496.0977 306.6359 496.0977 287.5959C496.0977 268.5559 480.9577 252.9259 461.9177 252.9259H292.4777C267.0877 252.9259 252.4377 264.1559 252.4377 293.4559V463.3759C252.4377 482.4259 267.5777 497.5559 286.6177 497.5559ZM533.6877 744.1359H702.6377C728.0277 744.1359 743.1677 732.9059 743.1677 703.6159V533.6959C743.1677 514.6459 727.5377 499.5159 708.4977 499.5159C689.4577 499.5159 674.3177 514.6459 674.3177 533.6959V557.6159L679.1977 634.7659L573.7277 523.9259C559.0777 508.2959 536.1377 508.7859 521.4877 523.4359C507.3277 537.5959 507.8077 561.5259 521.9777 575.1959L632.3277 680.1759L557.6177 675.2959H533.6877C514.6477 675.2959 499.0277 690.4259 499.0277 709.4759C499.0277 728.5159 514.6477 744.1359 533.6877 744.1359Z"/>
</svg>