<?xml version="1.0" encoding="UTF-8" standalone="no"?>
<svg xmlns="http://www.w3.org/2000/svg"
     width="996.09375" height="996.09375"
     viewBox="0 0 996.09375 996.09375"
     fill="currentColor">
  <path d="M498.0477 996.0959C770.5077 996.0959 996.0977 770.0159 996.0977 498.0459C996.0977 225.5859 770.0177 -0.0041 497.5577 -0.0041C225.5877 -0.0041 -0.0023 225.5859 -0.0023 498.0459C-0.0023 770.0159 226.0777 996.0959 498.0477 996.0959ZM498.0477 913.0859C267.5777 913.0859 83.4977 728.5159 83.4977 498.0459C83.4977 267.5759 267.0877 83.0059 497.5577 83.0059C728.0277 83.0059 913.0877 267.5759 913.0877 498.0459C913.0877 728.5159 728.5177 913.0859 498.0477 913.0859ZM498.5377 194.3359C487.7977 194.3359 479.0077 199.2159 469.7277 208.4959L328.6177 349.1259C322.2677 355.4659 318.3577 364.2559 318.3577 374.5159C318.3577 394.5359 333.9877 409.6659 354.0077 409.6659C364.7477 409.6659 373.5377 405.7659 379.8877 398.9259L416.0177 361.8159L465.8177 302.7359L461.9177 406.2459V589.8459L465.8177 693.3559L416.0177 634.2759L379.8877 597.1659C373.5377 589.8459 364.7477 586.4259 354.0077 586.4259C333.9877 586.4259 318.3577 601.5659 318.3577 621.5859C318.3577 631.3459 322.2677 640.6259 328.6177 646.9759L469.7277 787.5959C479.0077 796.8759 487.7977 801.7559 498.5377 801.7559C508.7877 801.7559 517.0877 796.8759 526.8577 787.5959L668.4577 646.9759C674.8077 640.6259 678.2277 631.3459 678.2277 621.5859C678.2277 601.5659 663.0877 586.4259 643.0677 586.4259C632.3277 586.4259 623.5377 590.3359 617.1877 597.1659L580.5677 634.2759L531.2477 692.8759L535.1577 589.8459V406.2459L531.2477 303.2259L580.5677 361.8159L617.1877 398.9259C623.5377 405.2759 632.3277 409.6659 643.0677 409.6659C663.0877 409.6659 678.2277 394.5359 678.2277 374.5159C678.2277 364.2559 674.8077 355.4659 668.4577 349.1259L526.8577 208.4959C517.0877 199.2159 508.7877 194.3359 498.5377 194.3359Z"/>
</svg>