<?xml version="1.0" encoding="UTF-8" standalone="no"?>
<svg xmlns="http://www.w3.org/2000/svg"
     width="821.2890625" height="1046.875"
     viewBox="0 0 821.2890625 1046.875"
     fill="currentColor">
  <path d="M151.3683 1046.8766H669.9183C770.9983 1046.8766 821.2883 995.6066 821.2883 894.0466V450.6866C821.2883 387.6966 813.9683 360.3466 774.8983 320.3166L505.8583 46.3866C468.7483 8.2966 437.9883 -0.0034 383.2983 -0.0034H151.3683C50.7783 -0.0034 -0.0017 51.7566 -0.0017 153.3166V894.0466C-0.0017 996.0966 50.2883 1046.8766 151.3683 1046.8766ZM154.7883 968.2666C104.4883 968.2666 78.6183 941.4066 78.6183 892.5766V154.7866C78.6183 106.4466 104.4883 78.6166 155.2783 78.6166H372.5583V362.3066C372.5583 423.8266 403.3183 454.0966 464.3583 454.0966H742.6783V892.5766C742.6783 941.4066 716.7983 968.2666 666.0183 968.2666ZM473.1483 380.3666C453.6183 380.3666 446.2883 372.5566 446.2883 353.0266V93.7466L727.5383 380.3666ZM447.7583 546.3866C447.7583 526.3666 430.6683 510.2566 410.6483 510.2566C390.6283 510.2566 373.5383 526.3666 373.5383 546.3866V723.6366L376.4683 803.2266L334.9583 760.2566L291.0183 715.3366C284.1783 708.0066 273.9283 704.0966 264.6483 704.0966C244.6283 704.0966 230.4683 718.2666 230.4683 737.7966C230.4683 749.0266 234.8683 757.3266 242.6783 764.1566L383.2983 893.5566C393.5583 902.8366 401.3683 906.2466 410.6483 906.2466C419.9183 906.2466 427.7383 902.8366 437.9883 893.5566L578.6183 764.1566C586.4283 757.3266 590.8183 749.0266 590.8183 737.7966C590.8183 718.2666 576.1683 704.0966 556.6383 704.0966C546.8783 704.0966 537.1083 708.0066 530.2783 715.3366L486.3283 760.2566L444.8283 803.2266L447.7583 723.6366Z"/>
</svg>