<?xml version="1.0" encoding="UTF-8" standalone="no"?>
<svg xmlns="http://www.w3.org/2000/svg"
     width="1194.1962317752843" height="996.09375"
     viewBox="0 0 1194.1962317752843 996.09375"
     fill="currentColor">
  <path d="M222.2318 173.3359C203.6818 194.3359 206.1218 220.2159 225.6518 233.8859C244.6918 247.5559 267.6418 243.1659 283.7618 225.0959C359.9318 138.1859 472.2318 83.0059 597.2318 83.0059C809.6318 83.0059 982.9718 240.7259 1008.3618 446.2859H935.6118C900.9418 446.2859 892.1518 469.7259 910.7118 496.5859L1020.0818 652.3459C1035.7118 674.8059 1059.1518 675.2959 1075.2618 652.3459L1184.1518 497.0659C1203.6818 469.7259 1194.4018 446.2859 1159.2418 446.2859H1092.3518C1065.4918 197.7559 851.6318 -0.0041 597.2318 -0.0041C448.3118 -0.0041 314.0318 67.3859 222.2318 173.3359ZM9.8318 499.5159C-9.2082 526.3659 -0.4182 550.2959 34.7318 550.2959H102.1118C128.4818 798.8259 342.8418 996.0959 597.2318 996.0959C746.1618 996.0959 880.9218 928.2259 972.7218 822.7559C990.7918 801.7559 988.3518 775.3859 969.3018 761.7159C950.2618 748.0459 926.8218 752.9259 911.2018 770.9959C835.5118 858.3959 723.2118 913.0859 597.2318 913.0859C384.3418 913.0859 211.0018 755.3759 186.1018 550.2959H258.8518C293.5218 550.2959 302.3118 526.3659 283.7618 499.9959L174.3818 344.2359C158.7618 321.7759 135.3218 321.2859 119.2018 344.2359Z"/>
</svg>