<?xml version="1.0" encoding="UTF-8" standalone="no"?>
<svg xmlns="http://www.w3.org/2000/svg"
     width="1015.2652032804245" height="1149.4140625"
     viewBox="0 0 1015.2652032804245 1149.4140625"
     fill="currentColor">
  <path d="M1015.2668 461.9178V74.2178C1015.2668 23.4378 984.5068 -0.0022 949.3468 -0.0022C932.2568 -0.0022 914.1868 4.3978 898.5668 15.1378L315.0668 417.9678C292.1168 433.5978 281.3768 456.0578 281.3768 479.4878C281.3768 514.1578 304.3268 546.3878 347.2968 546.3878H930.7968C988.8968 546.3878 1015.2668 520.0178 1015.2668 461.9178ZM159.3068 1073.7278L256.4768 942.8678C276.9868 916.0178 264.7768 883.2978 231.5768 883.2978H161.2568V266.1178H231.5768C264.7768 266.1178 276.9868 233.3978 256.4768 206.5478L159.3068 75.6878C146.1268 57.6178 121.2268 57.6178 108.0368 75.6878L9.8968 206.5478C-9.6332 232.4178 1.1068 266.1178 35.7768 266.1178H104.6168V883.2978H35.7768C2.0768 883.2978 -10.6132 916.0178 9.8968 942.8678L108.0368 1073.7278C121.2268 1091.3078 146.6168 1091.3078 159.3068 1073.7278ZM935.6768 451.6578C935.6768 462.8878 932.7468 466.3078 921.0268 466.3078H390.7568C388.3168 466.3078 385.8668 464.8478 385.8668 462.3978C385.8668 460.9378 386.3568 459.4678 389.2868 458.0078L925.4168 100.5878C927.3768 99.1178 929.3268 98.6278 930.7968 98.6278C933.7268 98.6278 935.6768 101.5578 935.6768 104.9778ZM1015.2668 1075.1978V687.4978C1015.2668 629.3978 988.8968 603.0278 930.7968 603.0278H347.2968C304.3268 603.0278 281.3768 635.2578 281.3768 669.9178C281.3768 693.3578 292.1168 715.8178 315.0668 731.4478L898.5668 1133.7878C914.1868 1145.0178 932.2568 1149.4178 949.3468 1149.4178C984.5068 1149.4178 1015.2668 1125.9778 1015.2668 1075.1978ZM935.6768 1044.4378C935.6768 1047.8478 933.7268 1050.7778 930.7968 1050.7778C929.3268 1050.7778 927.3768 1050.2978 925.4168 1048.8278L388.3168 691.4078C386.3568 689.9378 385.8668 687.9878 385.8668 687.0078C385.8668 684.5678 387.8268 683.1078 390.2668 683.1078H921.0268C932.7468 683.1078 935.6768 686.0378 935.6768 697.7578Z"/>
</svg>