<?xml version="1.0" encoding="UTF-8" standalone="no"?>
<svg xmlns="http://www.w3.org/2000/svg"
     width="916.50390625" height="768.5546875"
     viewBox="0 0 916.50390625 768.5546875"
     fill="currentColor">
  <path d="M45.8983 -0.0047C20.0183 -0.0047 8.2983 16.6053 4.3983 36.1353C0.9783 51.2653 -0.0017 75.1953 -0.0017 104.0053C-0.0017 340.3353 94.7283 441.8953 326.1683 441.8953H667.4783L787.1083 435.0553L622.5583 584.9653L514.1583 695.3153C506.3483 703.6153 502.4383 714.8453 502.4383 726.5653C502.4383 750.9753 520.9983 768.5553 545.4083 768.5553C556.6383 768.5553 567.3783 764.1553 578.1283 753.9053L901.3683 431.1553C911.6183 421.3853 916.5083 410.1553 916.5083 397.9453C916.5083 386.2353 911.6183 374.5153 901.3683 365.2353L577.1483 41.0153C567.3783 31.7353 556.6383 27.8353 545.4083 27.8353C520.9983 27.8353 502.4383 45.4053 502.4383 69.8253C502.4383 81.5453 506.8383 92.7753 514.1583 100.5853L622.5583 210.9353L787.5983 361.8153L667.4783 354.4953H330.5683C151.3683 354.4953 88.3783 280.7653 88.3783 99.6053C88.3783 76.1753 89.8483 60.5453 89.8483 42.9653C89.8483 17.5753 71.2883 -0.0047 45.8983 -0.0047Z"/>
</svg>