<?xml version="1.0" encoding="UTF-8" standalone="no"?>
<svg xmlns="http://www.w3.org/2000/svg"
     width="996.09375" height="996.09375"
     viewBox="0 0 996.09375 996.09375"
     fill="currentColor">
  <path d="M498.0477 996.0959C770.5077 996.0959 996.0977 770.0159 996.0977 498.0459C996.0977 225.5859 770.0177 -0.0041 497.5577 -0.0041C225.5877 -0.0041 -0.0023 225.5859 -0.0023 498.0459C-0.0023 770.0159 226.0777 996.0959 498.0477 996.0959ZM339.8477 623.0459C317.8677 623.0459 302.7377 605.9559 302.7377 582.5159V345.2159C302.7377 315.4259 319.3377 303.7059 345.2177 303.7059H583.4977C607.4177 303.7059 622.5577 318.3559 622.5577 340.8159C622.5577 362.7959 606.9377 377.4459 582.5177 377.4459H491.6977L416.9877 369.6259L495.6077 442.8759L680.6677 627.4459C687.9877 634.7659 692.8677 645.0159 692.8677 654.7859C692.8677 677.7359 677.7377 692.3859 655.7577 692.3859C643.5577 692.3859 633.7877 687.9859 626.4677 680.6659L442.3877 496.0959L369.6277 418.4559L376.9577 497.0659V583.4959C376.9577 607.4259 362.3077 623.0459 339.8477 623.0459Z"/>
</svg>