<?xml version="1.0" encoding="UTF-8" standalone="no"?>
<svg xmlns="http://www.w3.org/2000/svg"
     width="898.92578125" height="898.92578125"
     viewBox="0 0 898.92578125 898.92578125"
     fill="currentColor">
  <path d="M153.3183 898.9295H745.6083C848.1483 898.9295 898.9283 848.1495 898.9283 747.5595V151.3695C898.9283 50.7795 848.1483 -0.0005 745.6083 -0.0005H153.3183C51.2683 -0.0005 -0.0017 50.2895 -0.0017 151.3695V747.5595C-0.0017 848.6295 51.2683 898.9295 153.3183 898.9295ZM630.3683 684.5695C617.1883 697.7495 594.2383 697.7495 581.5383 684.5695L458.0083 558.5895C451.6583 551.2695 448.2383 542.4795 448.2383 534.6695C448.2383 515.6295 460.9383 502.4395 479.9783 502.4395C489.2583 502.4395 497.0683 505.3695 503.4183 512.2095L555.1783 564.9395L573.7283 585.9395L572.7583 562.4995V235.8395C572.7583 217.2895 586.9183 203.6095 605.9583 203.6095C624.5083 203.6095 638.6683 217.2895 638.6683 235.8395V562.0095L637.6983 585.4495L656.7383 564.9395L708.4983 512.2095C714.3583 506.3495 722.6583 502.4395 731.4483 502.4395C750.9783 502.4395 764.1583 515.6295 764.1583 534.6695C764.1583 542.9695 759.2783 551.7595 753.4183 558.5895ZM269.5283 213.8695C283.6883 199.7095 304.6883 200.6795 317.8683 213.8695L441.4083 340.3295C447.2683 346.1895 451.6583 355.4695 451.6583 363.7695C451.6583 382.8095 437.9883 396.4795 419.4383 396.4795C410.6483 396.4795 402.3483 393.0695 396.4883 387.2095L344.7283 333.0095L325.6883 312.4995L327.1483 336.4295V662.5995C327.1483 680.6595 312.9883 694.3395 293.4583 694.3395C274.8983 694.3395 261.2283 680.6595 261.2283 662.5995V336.9095L261.7183 312.4995L242.6783 333.0095L190.9183 386.2295C185.0583 392.5795 176.7583 396.4795 168.4583 396.4795C149.4183 396.4795 135.2583 382.3195 135.2583 363.7695C135.2583 356.4495 140.1383 347.1695 145.5083 340.3295Z"/>
</svg>