<?xml version="1.0" encoding="UTF-8" standalone="no"?>
<svg xmlns="http://www.w3.org/2000/svg"
     width="996.09375" height="996.09375"
     viewBox="0 0 996.09375 996.09375"
     fill="currentColor">
  <path d="M498.0477 996.0959C770.5077 996.0959 996.0977 770.0159 996.0977 498.0459C996.0977 225.5859 770.0177 -0.0041 497.5577 -0.0041C225.5877 -0.0041 -0.0023 225.5859 -0.0023 498.0459C-0.0023 770.0159 226.0777 996.0959 498.0477 996.0959ZM498.0477 913.0859C267.5777 913.0859 83.4977 728.5159 83.4977 498.0459C83.4977 267.5759 267.0877 83.0059 497.5577 83.0059C728.0277 83.0059 913.0877 267.5759 913.0877 498.0459C913.0877 728.5159 728.5177 913.0859 498.0477 913.0859ZM292.4777 713.3759C311.0377 713.3759 324.7077 700.1959 324.7077 681.1559V314.4559C324.7077 295.4059 311.0377 282.2259 292.4777 282.2259C273.4377 282.2259 259.2777 295.4059 259.2777 314.4559V681.1559C259.2777 700.1959 273.4377 713.3759 292.4777 713.3759ZM804.6877 498.5359C804.6877 479.4959 790.5277 465.8159 771.9777 465.8159H547.8477L458.4977 471.1959L557.6177 383.2959L588.3777 353.0259C595.2177 346.6759 598.1477 337.8859 598.1477 329.1059C598.1477 310.5459 583.9877 297.8559 565.9177 297.8559C557.1277 297.8559 548.8277 300.7859 541.9877 308.1059L373.5377 473.6359C366.2077 480.9559 362.3077 489.2559 362.3077 498.5359C362.3077 507.3259 365.7277 516.1159 373.5377 522.9459L541.5077 687.0159C547.8477 693.3559 558.1077 697.7559 566.4077 697.7559C584.9577 697.7559 598.1477 685.0559 598.1477 666.0159C598.1477 656.2459 595.2177 648.4359 588.3777 642.5759L557.1277 613.7659L458.0077 525.8759L547.8477 531.2459H771.9777C790.5277 531.2459 804.6877 518.0659 804.6877 498.5359Z"/>
</svg>