<?xml version="1.0" encoding="UTF-8" standalone="no"?>
<svg xmlns="http://www.w3.org/2000/svg"
     width="1486.328125" height="928.22265625"
     viewBox="0 0 1486.328125 928.22265625"
     fill="currentColor">
  <path d="M743.1683 928.2263C768.5583 928.2263 786.6183 910.1563 786.6183 884.7663V42.4763C786.6183 17.5762 768.5583 -0.0037 743.1683 -0.0037C717.7783 -0.0037 699.2183 17.5762 699.2183 42.4763V884.7663C699.2183 910.1563 717.7783 928.2263 743.1683 928.2263ZM613.7683 455.0763C613.7683 429.1963 596.1883 411.1363 570.7983 411.1363H237.7883L140.6283 414.5463L301.7583 258.7863C310.0583 250.4863 313.9683 238.7663 313.9683 227.5363C313.9683 202.6363 295.4083 185.0562 270.9983 185.0562C259.2783 185.0562 248.0483 189.4562 238.2783 199.2162L15.1383 421.8763C5.8583 431.6363 -0.0017 442.8663 -0.0017 455.0763C-0.0017 466.7963 5.8583 478.5163 15.1383 487.7963L238.2783 710.4463C248.0483 720.2162 259.2783 724.6063 270.9983 724.6063C295.4083 724.6063 313.9683 707.0263 313.9683 682.1263C313.9683 670.4063 310.0583 659.1763 301.7583 650.8763L140.6283 495.6063L237.7883 498.5363H570.7983C596.1883 498.5363 613.7683 480.4663 613.7683 455.0763ZM872.5583 455.0763C872.5583 480.4663 890.1383 498.5363 915.5283 498.5363H1248.0483L1345.6983 495.6063L1184.5683 650.8763C1176.2683 659.1763 1172.3683 670.4063 1172.3683 682.1263C1172.3683 707.0263 1190.9183 724.6063 1214.8483 724.6063C1227.0483 724.6063 1238.2783 720.2162 1248.0483 710.4463L1471.1883 487.7963C1480.4683 478.5163 1486.3283 466.7963 1486.3283 455.0763C1486.3283 442.8663 1480.4683 431.6363 1471.1883 421.8763L1248.0483 199.2162C1238.2783 189.4562 1227.0483 185.0562 1214.8483 185.0562C1190.9183 185.0562 1172.3683 202.6363 1172.3683 227.5363C1172.3683 238.7663 1176.2683 250.4863 1184.5683 258.7863L1345.6983 414.5463L1248.0483 411.1363H915.5283C890.1383 411.1363 872.5583 429.1963 872.5583 455.0763Z"/>
</svg>