<?xml version="1.0" encoding="UTF-8" standalone="no"?>
<svg xmlns="http://www.w3.org/2000/svg"
     width="916.50390625" height="768.5546875"
     viewBox="0 0 916.50390625 768.5546875"
     fill="currentColor">
  <path d="M870.6083 -0.0047C845.2183 -0.0047 827.1483 17.5753 827.1483 42.9653C827.1483 60.5453 828.1283 76.1753 828.1283 99.6053C828.1283 280.7653 765.1383 354.4953 585.9383 354.4953H249.0283L128.9083 361.8153L293.9483 210.9353L402.3483 100.5853C410.1583 92.7753 414.0583 81.5453 414.0583 69.8253C414.0583 45.4053 395.5083 27.8353 371.5783 27.8353C359.8683 27.8353 349.6083 31.7353 339.3583 41.0153L15.1383 365.2353C5.3683 374.5153 -0.0017 386.2353 -0.0017 397.9453C-0.0017 410.1553 5.3683 421.3853 15.1383 431.1553L338.3783 753.9053C349.1183 764.1553 359.8683 768.5553 371.5783 768.5553C395.5083 768.5553 414.0583 750.9753 414.0583 726.5653C414.0583 714.8453 410.1583 703.6153 402.3483 695.3153L293.9483 584.9653L129.3983 435.0553L249.0283 441.8953H590.3283C822.2683 441.8953 916.5083 340.3353 916.5083 104.0053C916.5083 75.1953 915.5283 51.2653 912.5983 36.1353C908.1983 16.6053 896.4883 -0.0047 870.6083 -0.0047Z"/>
</svg>