<?xml version="1.0" encoding="UTF-8" standalone="no"?>
<svg xmlns="http://www.w3.org/2000/svg"
     width="922.8515625" height="911.1328125"
     viewBox="0 0 922.8515625 911.1328125"
     fill="currentColor">
  <path d="M922.8483 599.6091C922.8483 413.0891 796.3883 284.1791 573.7283 284.1791H245.6083L131.3483 289.5491L223.6283 210.4491L364.7483 72.7491C372.0683 64.9391 376.4683 55.6591 376.4683 42.9691C376.4683 17.5791 359.3783 -0.0009 333.0083 -0.0009C322.7583 -0.0009 310.0583 5.3691 301.7583 13.6691L14.6483 295.4091C4.8783 304.6891 -0.0017 315.9191 -0.0017 328.1291C-0.0017 339.8391 4.8783 351.0791 14.6483 360.3491L301.7583 642.0891C310.0583 650.8791 322.7583 655.7591 333.0083 655.7591C359.3783 655.7591 376.4683 638.1791 376.4683 612.7891C376.4683 600.0991 372.0683 590.8191 364.7483 583.0091L223.6283 445.7991L131.3483 366.6991L245.6083 371.5791H581.0583C747.5583 371.5791 835.4483 463.3791 835.4483 594.7291C835.4483 726.5591 747.5583 824.2191 581.0583 824.2191H468.7483C441.8983 824.2191 424.3183 843.7491 424.3183 867.6791C424.3183 891.5991 441.8983 911.1291 468.7483 911.1291H581.5383C799.8083 911.1291 922.8483 786.6191 922.8483 599.6091Z"/>
</svg>