<?xml version="1.0" encoding="UTF-8" standalone="no"?>
<svg xmlns="http://www.w3.org/2000/svg"
     width="996.09375" height="996.09375"
     viewBox="0 0 996.09375 996.09375"
     fill="currentColor">
  <path d="M498.0477 996.0959C770.5077 996.0959 996.0977 770.5059 996.0977 498.0459C996.0977 226.0759 770.0177 -0.0041 497.5577 -0.0041C225.5877 -0.0041 -0.0023 226.0759 -0.0023 498.0459C-0.0023 770.5059 226.0777 996.0959 498.0477 996.0959ZM499.5077 214.8459C643.0677 214.8459 756.3477 311.0359 781.2477 451.1759H831.5477C855.4677 451.1759 859.8677 473.6359 847.1677 491.6959L766.5977 604.9759C751.9577 624.9959 728.5177 623.5359 714.8477 604.9759L633.2977 491.6959C620.6077 473.6359 625.4877 451.1759 648.9277 451.1759H705.0777C682.6177 361.8159 599.6077 294.4359 499.5077 294.4359C450.6877 294.4359 414.5477 310.0559 378.4177 337.8859C358.3977 352.5359 334.9577 355.9559 317.8677 336.9159C300.2977 318.3559 305.6677 291.9959 330.0777 272.4559C373.5377 236.8159 436.5277 214.8459 499.5077 214.8459ZM500.4877 779.2959C356.9377 779.2959 243.1677 683.1059 218.7477 542.9659H165.5277C141.5977 542.9659 137.2077 520.5059 149.8977 502.4459L230.4677 388.6759C245.1177 369.1359 268.5577 370.1159 281.7377 388.6759L363.7677 502.4459C376.4677 520.5059 371.5777 542.9659 347.6577 542.9659H294.9177C317.3877 631.8359 400.3877 699.2159 500.4877 699.2159C549.3177 699.2159 585.4477 684.0859 621.5777 656.2459C641.5977 641.1159 664.5477 638.1859 682.1277 657.2259C700.1977 675.7859 694.3377 702.1459 669.9177 721.1959C626.4677 757.3259 563.4777 779.2959 500.4877 779.2959Z"/>
</svg>