<?xml version="1.0" encoding="UTF-8" standalone="no"?>
<svg xmlns="http://www.w3.org/2000/svg"
     width="898.92578125" height="898.92578125"
     viewBox="0 0 898.92578125 898.92578125"
     fill="currentColor">
  <path d="M153.3183 898.9244H745.6083C848.1483 898.9244 898.9283 848.1444 898.9283 747.5544V151.3644C898.9283 50.7844 848.1483 0.0044 745.6083 0.0044H153.3183C51.2683 0.0044 -0.0017 50.2944 -0.0017 151.3644V747.5544C-0.0017 848.6344 51.2683 898.9244 153.3183 898.9244ZM698.7283 503.4144C698.7283 620.1144 619.6283 696.2844 501.9483 696.2844H436.0383C412.5983 696.2844 396.9683 681.6444 396.9683 660.1544C396.9683 638.1844 412.1083 623.5344 435.0583 623.5344H501.9483C575.6883 623.5344 625.9783 575.6844 625.9783 503.4144C625.9783 437.0144 576.6583 392.0944 502.4383 392.0944H359.8683L309.5683 390.1344L332.5183 406.2544L391.5983 463.3744C398.9283 470.7044 403.3183 479.4944 403.3183 490.2344C403.3183 511.2344 387.2083 527.8344 367.1883 527.8344C355.9583 527.8344 347.1683 523.9244 340.3283 517.0944L212.3983 386.2344C203.1283 376.9544 199.2183 366.2144 199.2183 355.4644C199.2183 344.7244 203.6183 333.4944 212.3983 324.7044L339.8483 195.3144C347.1683 187.9844 355.4683 184.0844 366.6983 184.0844C387.6983 184.0844 403.3183 200.6844 403.3183 221.6844C403.3183 231.4444 398.9283 241.2144 391.5983 247.5544L342.2883 295.4144L309.0783 321.7744L359.8683 319.3344H502.4383C620.1183 319.3344 698.7283 393.0644 698.7283 503.4144Z"/>
</svg>