<?xml version="1.0" encoding="UTF-8" standalone="no"?>
<svg xmlns="http://www.w3.org/2000/svg"
     width="996.09375" height="996.09375"
     viewBox="0 0 996.09375 996.09375"
     fill="currentColor">
  <path d="M498.0477 996.0977C770.5077 996.0977 996.0977 770.5077 996.0977 498.0477C996.0977 226.0777 770.0177 -0.0023 497.5577 -0.0023C225.5877 -0.0023 -0.0023 226.0777 -0.0023 498.0477C-0.0023 770.5077 226.0777 996.0977 498.0477 996.0977ZM722.6577 521.4877C722.6577 647.4577 622.5577 748.5377 498.0477 748.5377C373.5377 748.5377 273.4377 647.4577 273.4377 523.4377C273.4377 504.3977 289.5477 488.7677 308.1077 488.7677C327.6377 488.7677 343.2577 504.3977 343.2577 523.4377C343.2577 609.3777 412.1077 678.7077 498.0477 678.7077C584.4777 678.7077 652.8277 609.3777 652.8277 523.4377C652.8277 437.0077 584.4777 368.1677 498.0477 368.1677C491.6977 368.1677 485.3477 368.6477 480.4677 369.6277L528.8077 417.4777C534.6677 423.8277 538.5777 431.6377 538.5777 440.4277C538.5777 458.4977 524.8977 472.6577 506.3477 472.6577C498.5377 472.6577 489.7477 468.2577 484.3777 462.8877L386.7177 365.7177C374.5077 353.5177 374.9977 331.0577 386.7177 318.8477L483.3977 220.7077C489.2577 214.3577 497.5577 209.9577 506.3477 209.9577C524.8977 209.9577 538.5777 224.6077 538.5777 242.6777C538.5777 251.4677 534.6677 260.2577 529.7877 265.6277L494.6277 301.7577C498.0477 301.2677 503.4177 300.7777 507.8077 300.7777C621.0977 300.7777 722.6577 397.9477 722.6577 521.4877Z"/>
</svg>