<?xml version="1.0" encoding="UTF-8" standalone="no"?>
<svg xmlns="http://www.w3.org/2000/svg"
     width="996.09375" height="996.09375"
     viewBox="0 0 996.09375 996.09375"
     fill="currentColor">
  <path d="M498.0477 996.0959C770.5077 996.0959 996.0977 770.0159 996.0977 498.0459C996.0977 225.5859 770.0177 -0.0041 497.5577 -0.0041C225.5877 -0.0041 -0.0023 225.5859 -0.0023 498.0459C-0.0023 770.0159 226.0777 996.0959 498.0477 996.0959ZM498.5377 749.9959C476.5577 749.9959 460.4477 734.3759 460.4477 711.9159V461.4259L464.8477 354.4959L414.5477 415.0359L354.9777 475.0959C348.1477 481.9359 338.3777 486.3259 328.1277 486.3259C307.1277 486.3259 291.5077 470.2159 291.5077 449.7059C291.5077 438.9659 294.4377 430.1759 301.2677 423.3359L469.2377 255.8559C479.4877 245.6059 487.7977 241.6959 498.5377 241.6959C509.7677 241.6959 518.5577 246.0959 528.3177 255.8559L695.7977 423.3359C702.6377 430.1759 706.5477 438.9659 706.5477 449.7059C706.5477 470.2159 690.4277 486.3259 669.4377 486.3259C658.6877 486.3259 649.4177 482.4259 642.5777 475.0959L583.4977 415.0359L532.2277 354.0059L536.6177 461.4259V711.9159C536.6177 734.3759 520.9977 749.9959 498.5377 749.9959Z"/>
</svg>