<?xml version="1.0" encoding="UTF-8" standalone="no"?>
<svg xmlns="http://www.w3.org/2000/svg"
     width="911.1328125" height="925.29296875"
     viewBox="0 0 911.1328125 925.29296875"
     fill="currentColor">
  <path d="M311.5283 925.2966C498.5383 925.2966 626.9483 799.3166 626.9483 576.1766V245.6066L622.0683 131.3466L701.1683 223.6366L838.3783 364.2566C846.1883 372.0666 855.9583 376.4666 868.1683 376.4666C893.5583 376.4666 911.1283 358.8866 911.1283 333.0066C911.1283 322.2666 906.2483 309.5666 897.9483 301.2666L616.2083 14.1566C606.9383 4.3966 595.2183 -0.0034 583.4983 -0.0034C571.2883 -0.0034 560.0583 4.3966 550.7783 14.1566L269.0383 301.2666C260.7383 309.5666 255.3683 322.2666 255.3683 333.0066C255.3683 358.8866 273.4383 376.4666 298.3383 376.4666C311.0383 376.4666 320.7983 372.0666 328.6183 364.2566L465.8183 223.6366L544.9183 131.3466L540.0383 245.6066V583.4966C540.0383 749.9966 447.7583 838.3766 316.4083 838.3766C185.0583 838.3766 86.9183 749.9966 86.9183 583.4966V471.1866C86.9183 444.3366 67.3783 426.7566 43.4583 426.7566C19.5283 426.7566 -0.0017 444.3366 -0.0017 471.1866V583.9866C-0.0017 802.7366 124.5083 925.2966 311.5283 925.2966Z"/>
</svg>