<?xml version="1.0" encoding="UTF-8" standalone="no"?>
<svg xmlns="http://www.w3.org/2000/svg"
     width="996.09375" height="996.09375"
     viewBox="0 0 996.09375 996.09375"
     fill="currentColor">
  <path d="M498.0477 996.0959C770.5077 996.0959 996.0977 770.0159 996.0977 498.0459C996.0977 225.5859 770.0177 -0.0041 497.5577 -0.0041C225.5877 -0.0041 -0.0023 225.5859 -0.0023 498.0459C-0.0023 770.0159 226.0777 996.0959 498.0477 996.0959ZM498.0477 913.0859C267.5777 913.0859 83.4977 728.5159 83.4977 498.0459C83.4977 267.5759 267.0877 83.0059 497.5577 83.0059C728.0277 83.0059 913.0877 267.5759 913.0877 498.0459C913.0877 728.5159 728.5177 913.0859 498.0477 913.0859ZM498.0477 249.5159C477.0477 249.5159 461.4277 264.6459 461.4277 286.1359V530.2759L465.3277 633.2959L416.5077 574.7059L358.3977 516.1159C351.5577 509.2759 342.7777 505.3759 332.5177 505.3759C312.4977 505.3759 297.3677 520.5059 297.3677 540.5259C297.3677 550.7859 300.2977 559.5659 306.6377 565.9159L469.7277 728.0259C479.4877 737.7959 487.7977 742.1859 498.0477 742.1859C508.7877 742.1859 517.5777 737.3059 526.8577 728.0259L689.4577 565.9159C695.7977 559.5659 699.7077 550.7859 699.7077 540.5259C699.7077 520.5059 684.0777 505.3759 664.0577 505.3759C653.3177 505.3759 644.5277 508.7859 638.1877 516.1159L580.5677 574.7059L530.7577 633.7859L534.6677 530.2759V286.1359C534.6677 264.6459 519.5277 249.5159 498.0477 249.5159Z"/>
</svg>