<?xml version="1.0" encoding="UTF-8" standalone="no"?>
<svg xmlns="http://www.w3.org/2000/svg"
     width="898.92578125" height="898.92578125"
     viewBox="0 0 898.92578125 898.92578125"
     fill="currentColor">
  <path d="M153.3183 898.9272H745.6083C848.1483 898.9272 898.9283 848.1472 898.9283 747.5572V151.3672C898.9283 50.7772 848.1483 -0.0028 745.6083 -0.0028H153.3183C51.2683 -0.0028 -0.0017 50.2972 -0.0017 151.3672V747.5572C-0.0017 848.6372 51.2683 898.9272 153.3183 898.9272ZM154.2983 820.3172C105.4683 820.3172 78.6183 794.4372 78.6183 743.6572V155.2772C78.6183 104.9772 105.4683 78.6172 154.2983 78.6172H744.6283C792.9683 78.6172 820.3083 104.9772 820.3083 155.2772V743.6572C820.3083 794.4372 792.9683 820.3172 744.6283 820.3172ZM197.2683 508.2972C197.2683 625.9772 282.2283 698.7272 395.9983 698.7272H462.8883C484.8683 698.7272 500.9783 686.5272 500.9783 664.0672C500.9783 641.5972 484.8683 628.9072 463.8683 628.9072H395.9983C322.2683 628.9072 269.0383 581.5472 269.0383 504.3972C269.0383 429.1972 323.7283 388.1872 395.5083 388.1872H541.5083L599.1183 386.2272L570.7983 407.2272L509.7683 465.8172C502.4383 472.1672 499.0283 481.9372 499.0283 491.2072C499.0283 511.2272 514.1583 526.8572 533.6883 526.8572C543.9483 526.8572 551.7583 523.4372 558.5983 516.5972L688.9683 383.2972C697.2683 374.9972 702.1483 365.2372 702.1483 354.0072C702.1483 342.2872 697.2683 332.0272 688.9683 323.7272L559.0783 192.3872C552.2483 185.0572 544.4383 181.6372 534.1783 181.6372C514.1583 181.6372 499.0283 196.7772 499.0283 217.2872C499.0283 227.0472 503.4183 236.3272 510.2583 242.1872L560.5483 291.0172L599.1183 321.7772L541.5083 319.8272H395.5083C281.7383 319.8272 197.2683 391.1172 197.2683 508.2972Z"/>
</svg>