<?xml version="1.0" encoding="UTF-8" standalone="no"?>
<svg xmlns="http://www.w3.org/2000/svg"
     width="898.92578125" height="898.92578125"
     viewBox="0 0 898.92578125 898.92578125"
     fill="currentColor">
  <path d="M153.3183 898.9295H745.6083C848.1483 898.9295 898.9283 848.1495 898.9283 747.5595V151.3695C898.9283 50.7795 848.1483 -0.0005 745.6083 -0.0005H153.3183C51.2683 -0.0005 -0.0017 50.2895 -0.0017 151.3695V747.5595C-0.0017 848.6295 51.2683 898.9295 153.3183 898.9295ZM154.2983 820.3095C105.4683 820.3095 78.6183 794.4295 78.6183 743.6495V155.2695C78.6183 104.4895 105.4683 78.6095 154.2983 78.6095H744.6283C792.9683 78.6095 820.3083 104.4895 820.3083 155.2695V743.6495C820.3083 794.4295 792.9683 820.3095 744.6283 820.3095ZM702.1483 508.2995C702.1483 391.1095 617.1883 319.8195 503.4183 319.8195H357.4183L299.8083 321.2895L338.3783 291.0195L388.6683 242.1895C395.5083 236.3295 399.8983 227.0495 399.8983 216.7995C399.8983 196.7795 384.7683 181.6395 364.7483 181.6395C354.4883 181.6395 346.6783 184.5695 339.8483 191.8895L209.9583 323.7295C202.1483 332.0295 197.2683 342.2895 197.2683 353.5195C197.2683 365.2295 202.1483 374.9995 209.9583 383.2995L340.3283 516.1095C347.1683 522.9495 354.9783 526.3695 365.2383 526.3695C384.7683 526.3695 399.8983 511.2295 399.8983 490.7195C399.8983 481.9295 396.4883 472.1695 389.1583 465.8195L328.1283 407.2295L299.8083 385.7395L357.4183 388.1795H503.4183C575.1983 388.1795 630.3683 429.1995 630.3683 504.3895C630.3683 581.5395 576.6583 628.9095 502.9283 628.9095H435.0583C414.0583 628.9095 397.9483 641.1095 397.9483 664.0595C397.9483 686.5195 414.0583 698.7295 436.0383 698.7295H502.9283C616.6983 698.7295 702.1483 625.4895 702.1483 508.2995Z"/>
</svg>