<?xml version="1.0" encoding="UTF-8" standalone="no"?>
<svg xmlns="http://www.w3.org/2000/svg"
     width="996.09375" height="996.09375"
     viewBox="0 0 996.09375 996.09375"
     fill="currentColor">
  <path d="M498.0477 996.0959C770.5077 996.0959 996.0977 770.0159 996.0977 498.0459C996.0977 225.5859 770.0177 -0.0041 497.5577 -0.0041C225.5877 -0.0041 -0.0023 225.5859 -0.0023 498.0459C-0.0023 770.0159 226.0777 996.0959 498.0477 996.0959ZM498.0477 913.0859C267.5777 913.0859 83.4977 728.5159 83.4977 498.0459C83.4977 267.5759 267.0877 83.0059 497.5577 83.0059C728.0277 83.0059 913.0877 267.5759 913.0877 498.0459C913.0877 728.5159 728.5177 913.0859 498.0477 913.0859ZM650.3877 376.9559C628.9077 376.9559 614.7477 391.6059 614.7477 415.0359V499.5159L622.0677 575.6859L551.7577 500.4859L372.0677 320.7959C364.7477 313.9659 355.9577 309.5659 344.2377 309.5659C322.7577 309.5659 308.1077 323.7259 308.1077 345.7059C308.1077 355.4659 312.9877 365.2359 319.8277 372.0659L499.9977 551.7559L576.1677 623.0459L503.9077 615.2359H415.0377C391.5977 615.2359 376.4677 629.3959 376.4677 650.8759C376.4677 672.3659 391.1177 686.5259 414.0577 686.5259H645.5077C670.4077 686.5259 686.5277 675.2959 686.5277 646.4859V416.0159C686.5277 393.0659 671.8777 376.9559 650.3877 376.9559Z"/>
</svg>