<?xml version="1.0" encoding="UTF-8" standalone="no"?>
<svg xmlns="http://www.w3.org/2000/svg"
     width="898.92578125" height="898.92578125"
     viewBox="0 0 898.92578125 898.92578125"
     fill="currentColor">
  <path d="M153.3183 898.9295H745.6083C848.1483 898.9295 898.9283 848.1495 898.9283 747.5595V151.3695C898.9283 50.7795 848.1483 -0.0005 745.6083 -0.0005H153.3183C51.2683 -0.0005 -0.0017 50.2895 -0.0017 151.3695V747.5595C-0.0017 848.6295 51.2683 898.9295 153.3183 898.9295ZM154.2983 820.3095C105.4683 820.3095 78.6183 794.4295 78.6183 743.6495V155.2695C78.6183 104.4895 105.4683 78.6095 154.2983 78.6095H744.6283C792.9683 78.6095 820.3083 104.4895 820.3083 155.2695V743.6495C820.3083 794.4295 792.9683 820.3095 744.6283 820.3095ZM296.3883 327.6395C274.8983 327.6395 260.7383 343.7495 260.7383 366.6995V597.1695C260.7383 625.9795 276.3683 637.2095 301.2683 637.2095H532.7183C555.6683 637.2095 570.3083 623.0495 570.3083 601.5595C570.3083 580.0795 555.1783 565.9195 531.7383 565.9195H442.8683L370.6083 573.7295L446.7783 502.4395L626.9483 322.7495C633.7883 315.9195 638.6683 306.1495 638.6683 296.3895C638.6683 274.4095 624.0283 260.2495 602.5383 260.2495C590.8183 260.2495 582.0283 264.6495 574.7083 271.4795L395.0183 451.1695L324.7083 526.3695L332.0283 450.1995V365.7195C332.0283 342.2895 317.8683 327.6395 296.3883 327.6395Z"/>
</svg>