<?xml version="1.0" encoding="UTF-8" standalone="no"?>
<svg xmlns="http://www.w3.org/2000/svg"
     width="996.09375" height="996.09375"
     viewBox="0 0 996.09375 996.09375"
     fill="currentColor">
  <path d="M498.0477 996.0959C770.5077 996.0959 996.0977 770.0159 996.0977 498.0459C996.0977 225.5859 770.0177 -0.0041 497.5577 -0.0041C225.5877 -0.0041 -0.0023 225.5859 -0.0023 498.0459C-0.0023 770.0159 226.0777 996.0959 498.0477 996.0959ZM655.7577 623.0459C633.2977 623.0459 618.6477 607.4259 618.6477 583.4959V497.0659L625.9777 418.4559L553.2277 496.0959L369.1377 680.6659C361.3277 687.9859 352.0477 692.3859 339.8477 692.3859C317.8677 692.3859 302.7377 677.7359 302.7377 654.7859C302.7377 645.0159 307.6177 634.7659 314.9377 627.4459L499.9977 442.8759L578.6177 369.6259L503.9077 377.4459H413.0877C388.6677 377.4459 373.0477 362.7959 373.0477 340.8159C373.0477 318.3559 388.1877 303.7059 412.1077 303.7059H650.3877C676.2677 303.7059 692.8677 315.4259 692.8677 345.2159V582.5159C692.8677 605.9559 677.7377 623.0459 655.7577 623.0459Z"/>
</svg>