<?xml version="1.0" encoding="UTF-8" standalone="no"?>
<svg xmlns="http://www.w3.org/2000/svg"
     width="996.09375" height="996.09375"
     viewBox="0 0 996.09375 996.09375"
     fill="currentColor">
  <path d="M498.0477 996.0953C770.5077 996.0953 996.0977 770.5053 996.0977 498.0453C996.0977 226.0753 770.0177 -0.0047 497.5577 -0.0047C225.5877 -0.0047 -0.0023 226.0753 -0.0023 498.0453C-0.0023 770.5053 226.0777 996.0953 498.0477 996.0953ZM247.5577 553.2253C247.5577 442.3853 326.1677 369.1453 443.8477 369.1453H586.9177L637.2077 371.0953L604.0077 345.2153L554.6877 297.3653C547.3677 290.5253 542.9677 281.2453 542.9677 270.9953C542.9677 249.9953 558.5977 233.3953 579.5877 233.3953C590.8177 233.3953 599.1177 237.3053 606.4477 244.6253L733.8877 374.0253C742.6777 382.8153 747.0677 394.0453 747.0677 404.7853C747.0677 416.0153 743.1677 426.7553 733.8877 435.5453L605.9577 566.4053C599.1177 573.2453 590.3277 577.1453 579.0977 577.1453C559.0777 577.1453 542.9677 560.5453 542.9677 539.5553C542.9677 529.2953 547.3677 520.0153 554.6877 512.6953L613.7677 456.0553L636.7177 439.4553L586.9177 441.8953H443.8477C369.6277 441.8953 320.3077 486.3253 320.3077 553.2253C320.3077 624.9953 370.6077 672.8553 444.3377 672.8553H511.2277C534.1777 672.8553 549.3177 687.9853 549.3177 709.4753C549.3177 731.4453 533.6877 745.6053 510.2577 745.6053H444.3377C326.6577 745.6053 247.5577 669.4353 247.5577 553.2253Z"/>
</svg>