<?xml version="1.0" encoding="UTF-8" standalone="no"?>
<svg xmlns="http://www.w3.org/2000/svg"
     width="1107.421875" height="1018.06640625"
     viewBox="0 0 1107.421875 1018.06640625"
     fill="currentColor">
  <path d="M193.3577 1018.0681C251.9577 1018.0681 397.9477 954.0981 480.9577 894.5281C489.2577 888.6681 496.0977 886.2281 502.9277 886.2281C509.2777 886.7181 515.6277 887.2081 521.9777 887.2081C874.0277 887.2081 1107.4177 687.0081 1107.4177 443.8481C1107.4177 198.2381 861.3277 -0.0019 553.7077 -0.0019C246.0977 -0.0019 -0.0023 198.2381 -0.0023 443.8481C-0.0023 600.0981 96.1877 737.3081 252.9277 821.2881C260.2577 825.1981 262.6977 832.5181 258.7877 839.8481C231.4477 884.7681 182.6177 938.4781 164.0577 962.8881C145.0177 987.3081 155.7577 1018.0681 193.3577 1018.0681ZM554.1977 191.8981C576.6577 191.8981 592.2877 208.0081 592.2877 229.9781V480.9581L587.8877 587.8881L639.1577 526.8581L698.2377 467.2881C705.0777 459.4681 714.3577 456.0581 725.0977 456.0581C746.0977 456.0581 762.2077 471.6781 762.2077 492.6781C762.2077 502.9281 758.2977 511.7181 751.4677 518.5581L583.9877 686.0381C574.2177 695.7981 565.9177 700.1981 554.1977 700.1981C543.4577 700.1981 535.1577 696.2881 524.8977 686.0381L356.9377 518.5581C350.0977 511.7181 347.1677 502.9281 347.1677 492.6781C347.1677 471.6781 362.7977 456.0581 383.7877 456.0581C394.0477 456.0581 403.8077 459.9581 410.6477 467.2881L470.2177 526.8581L520.5077 587.3981L516.1177 480.9581V229.9781C516.1177 208.0081 532.2277 191.8981 554.1977 191.8981Z"/>
</svg>