<?xml version="1.0" encoding="UTF-8" standalone="no"?>
<svg xmlns="http://www.w3.org/2000/svg"
     width="996.09375" height="996.09375"
     viewBox="0 0 996.09375 996.09375"
     fill="currentColor">
  <path d="M498.0477 996.0959C770.5077 996.0959 996.0977 770.0159 996.0977 498.0459C996.0977 225.5859 770.0177 -0.0041 497.5577 -0.0041C225.5877 -0.0041 -0.0023 225.5859 -0.0023 498.0459C-0.0023 770.0159 226.0777 996.0959 498.0477 996.0959ZM262.2077 323.2459L388.6677 200.6859C395.0177 193.8459 404.2977 189.9459 412.1077 189.9459C431.1477 189.9459 444.8277 203.1259 444.8277 222.1659C444.8277 230.9559 441.4077 239.2559 434.5677 245.6059L381.8377 297.3659L361.8177 315.4259L385.2577 314.9459H710.9377C729.9777 314.9459 743.6477 328.6159 743.6477 347.6559C743.6477 366.2059 729.4877 380.8559 710.9377 380.8559H384.7677L361.3277 379.3959L381.8377 398.9259L434.5677 450.1959C441.4077 456.5459 444.8277 464.3559 444.8277 473.6359C444.8277 492.1859 431.1477 505.3759 412.1077 505.3759C404.2977 505.3759 395.5077 501.4659 388.6677 496.0959L262.2077 372.0659C249.0277 359.3759 249.0277 336.4259 262.2077 323.2459ZM732.9077 673.3359L606.9377 797.3659C599.6077 803.7059 590.8177 807.6159 583.0077 807.6159C564.4577 807.6159 550.7777 793.9459 550.7777 775.3859C550.7777 766.1159 554.6877 758.7859 561.0377 751.9559L613.7677 700.1959L634.7677 682.1259L610.3477 682.6159H284.1777C266.1177 682.6159 252.4377 668.4559 252.4377 649.4159C252.4377 630.3759 266.1177 616.6959 284.1777 616.6959H610.8377L634.7677 618.1659L613.7677 598.6359L560.0577 547.3659C553.7077 541.0159 550.7777 533.2059 550.7777 523.9259C550.7777 505.3759 563.9677 492.1859 583.0077 492.1859C591.3077 492.1859 600.5877 496.0959 606.9377 501.9559L732.9077 625.9759C746.0977 639.1559 747.0677 659.6659 732.9077 673.3359Z"/>
</svg>