<?xml version="1.0" encoding="UTF-8" standalone="no"?>
<svg xmlns="http://www.w3.org/2000/svg"
     width="1012.8237970304245" height="1149.4140625"
     viewBox="0 0 1012.8237970304245 1149.4140625"
     fill="currentColor">
  <path d="M928.3468 546.3878C986.4568 546.3878 1012.8268 520.0178 1012.8268 461.9178V74.2178C1012.8268 23.4378 982.0668 -0.0022 946.9068 -0.0022C929.8168 -0.0022 911.7468 4.3978 896.1268 15.1378L312.6268 417.9678C289.6768 433.5978 278.9368 456.0578 278.9368 479.4878C278.9368 514.1578 301.8868 546.3878 344.8568 546.3878ZM159.3068 1073.7278L256.4768 942.8678C276.9868 916.0178 264.7768 883.2978 231.5768 883.2978H161.2568V266.1178H231.5768C264.7768 266.1178 276.9868 233.3978 256.4768 206.5478L159.3068 75.6878C146.1268 57.6178 121.2268 57.6178 108.0368 75.6878L9.8968 206.5478C-9.6332 232.4178 1.1068 266.1178 35.7768 266.1178H104.6168V883.2978H35.7768C2.0768 883.2978 -10.6132 916.0178 9.8968 942.8678L108.0368 1073.7278C121.2268 1091.3078 146.6168 1091.3078 159.3068 1073.7278ZM1012.8268 1075.1978V687.4978C1012.8268 629.3978 986.4568 603.0278 928.3468 603.0278H344.8568C301.8868 603.0278 278.9368 635.2578 278.9368 669.9178C278.9368 693.3578 289.6768 715.8178 312.6268 731.4478L896.1268 1133.7878C911.7468 1145.0178 929.8168 1149.4178 946.9068 1149.4178C982.0668 1149.4178 1012.8268 1125.9778 1012.8268 1075.1978Z"/>
</svg>