<?xml version="1.0" encoding="UTF-8" standalone="no"?>
<svg xmlns="http://www.w3.org/2000/svg"
     width="996.09375" height="996.09375"
     viewBox="0 0 996.09375 996.09375"
     fill="currentColor">
  <path d="M498.0477 996.0959C770.5077 996.0959 996.0977 770.0159 996.0977 498.0459C996.0977 225.5859 770.0177 -0.0041 497.5577 -0.0041C225.5877 -0.0041 -0.0023 225.5859 -0.0023 498.0459C-0.0023 770.0159 226.0777 996.0959 498.0477 996.0959ZM498.0477 913.0859C267.5777 913.0859 83.4977 728.5159 83.4977 498.0459C83.4977 267.5759 267.0877 83.0059 497.5577 83.0059C728.0277 83.0059 913.0877 267.5759 913.0877 498.0459C913.0877 728.5159 728.5177 913.0859 498.0477 913.0859ZM672.3677 727.0459L791.9877 604.4959C797.8477 598.1459 802.2477 589.3559 802.2477 581.5459C802.2477 562.9859 789.0577 550.2959 770.9977 550.2959C762.2077 550.2959 753.9077 553.7059 748.5377 559.5659L698.2377 611.3259L679.6877 631.3459L680.6677 608.3959V291.5059C680.6677 273.4359 666.9877 260.2559 648.9277 260.2559C630.8577 260.2559 617.1877 273.4359 617.1877 291.5059V608.8859L618.1677 631.8359L599.6077 611.3259L549.3177 559.5659C542.9677 553.2259 535.6477 550.2959 526.8577 550.2959C508.2977 550.2959 496.0977 562.9859 496.0977 581.5459C496.0977 588.8659 499.5077 597.6559 504.8877 604.4959L624.9977 727.0459C636.7177 738.7659 659.1777 740.7259 672.3677 727.0459ZM323.2377 270.0159L202.6377 393.0659C197.2677 399.4159 192.8677 408.6959 192.8677 415.5259C192.8677 433.5959 206.5477 447.2659 224.6077 447.2659C232.9077 447.2659 240.7277 443.3559 246.5777 437.4959L296.8777 385.2559L315.4277 365.2359L314.4577 389.1559V705.5659C314.4577 723.1459 328.1277 736.3259 346.1877 736.3259C364.7477 736.3259 377.9277 723.1459 377.9277 705.5659V388.6759L376.9577 365.2359L395.5077 385.2559L446.2877 437.9859C452.1477 443.8459 459.9577 447.2659 468.2577 447.2659C486.3277 447.2659 499.0277 434.0859 499.0277 415.5259C499.0277 407.7159 495.1177 398.4359 489.7477 393.0659L369.6277 270.0159C357.9077 257.8159 337.3977 255.8559 323.2377 270.0159Z"/>
</svg>