<?xml version="1.0" encoding="UTF-8" standalone="no"?>
<svg xmlns="http://www.w3.org/2000/svg"
     width="996.09375" height="996.09375"
     viewBox="0 0 996.09375 996.09375"
     fill="currentColor">
  <path d="M498.0477 996.0959C770.5077 996.0959 996.0977 770.0159 996.0977 498.0459C996.0977 225.5859 770.0177 -0.0041 497.5577 -0.0041C225.5877 -0.0041 -0.0023 225.5859 -0.0023 498.0459C-0.0023 770.0159 226.0777 996.0959 498.0477 996.0959ZM279.2977 641.1159V512.6959C279.2977 415.0359 326.1677 368.1659 423.8277 368.1659H562.4977V303.7059C562.4977 270.9959 596.6777 256.8359 622.0677 276.8559L741.2077 369.1359C772.4577 394.0459 772.4577 423.8259 741.2077 448.7259L622.0677 541.5059C596.6777 561.5259 562.4977 547.3659 562.4977 514.6459V449.7059H425.2977C382.3277 449.7059 360.3477 471.1959 360.3477 516.6059V641.1159C360.3477 669.9259 345.2177 686.0359 319.8277 686.5259C293.9477 687.0159 279.2977 669.9259 279.2977 641.1159Z"/>
</svg>