<?xml version="1.0" encoding="UTF-8" standalone="no"?>
<svg xmlns="http://www.w3.org/2000/svg"
     width="579.58984375" height="787.6591944128832"
     viewBox="0 0 579.58984375 787.6591944128832"
     fill="currentColor">
  <path d="M41.0183 787.6587C53.7083 787.6587 66.8983 783.2687 78.6183 775.4487L104.0083 758.3587C171.8783 712.4687 271.9683 608.9487 289.0583 557.1887H290.5283C307.1283 608.4587 407.2283 712.4687 475.5883 758.3587L500.9783 775.4487C512.6983 783.2687 525.8783 787.6587 538.0883 787.6587C562.9883 787.6587 579.5883 770.5687 579.5883 746.6387C579.5883 731.9987 571.7783 717.3487 558.5983 709.0487L520.0183 684.1387C452.1483 639.2187 332.5183 525.9387 332.5183 406.3087V223.2087H401.8583C436.0383 223.2087 445.3083 199.2787 426.2683 172.4287L317.3783 16.6587C301.7583 -5.3113 278.3183 -5.8013 262.2083 16.6587L152.8283 171.9387C133.7883 199.2787 142.5783 223.2087 177.7383 223.2087H247.0683V406.3087C247.0683 525.9387 126.9483 638.7287 59.5683 684.1387L20.9983 709.0487C7.3283 717.3487 -0.0017 732.4787 -0.0017 747.1287C-0.0017 769.1087 16.1183 787.6587 41.0183 787.6587Z"/>
</svg>