<?xml version="1.0" encoding="UTF-8" standalone="no"?>
<svg xmlns="http://www.w3.org/2000/svg"
     width="1052.734375" height="895.5078125"
     viewBox="0 0 1052.734375 895.5078125"
     fill="currentColor">
  <path d="M0.0009 447.753C0.0009 463.863 6.3509 482.423 24.9009 500.003L410.1609 863.773C433.5909 885.743 453.1209 895.503 477.0509 895.503C510.2509 895.503 534.1809 871.093 534.1809 838.383V651.853H930.6609C1007.8109 651.853 1052.7309 607.913 1052.7309 532.223V363.773C1052.7309 288.083 1007.8109 244.143 930.6609 244.143H534.1809V59.573C534.1809 26.853 510.2509 0.003 476.0709 0.003C452.1509 0.003 436.0309 10.253 410.1609 34.663L24.9009 395.023C5.8609 413.083 0.0009 431.153 0.0009 447.753ZM87.4009 447.753C87.4009 444.823 88.8709 441.893 92.7709 438.473L440.4309 104.983C442.8709 103.023 445.8009 101.073 448.7309 101.073C453.1209 101.073 455.5709 104.003 455.5709 107.913V301.753C455.5709 312.993 460.9409 317.873 472.1709 317.873H929.6909C960.9409 317.873 979.0009 335.933 979.0009 367.673V528.323C979.0009 560.063 960.9409 578.123 929.6909 578.123H472.1709C460.9409 578.123 455.5709 583.003 455.5709 594.243V783.203C455.5709 787.593 453.1209 790.523 449.2209 790.523C446.2909 790.523 443.3609 789.063 440.9209 786.133L92.7709 457.033C88.8709 453.123 87.4009 450.683 87.4009 447.753Z"/>
</svg>