<?xml version="1.0" encoding="UTF-8" standalone="no"?>
<svg xmlns="http://www.w3.org/2000/svg"
     width="743.65234375" height="860.83984375"
     viewBox="0 0 743.65234375 860.83984375"
     fill="currentColor">
  <path d="M372.0683 860.8448C397.4583 860.8448 415.5283 842.7748 415.5283 817.3848V324.2148L412.1083 219.7248L559.0783 380.3748L668.4583 488.2848C676.2683 496.0948 687.9883 500.4848 699.7083 500.4848C724.1183 500.4848 742.1883 481.9348 742.1883 457.5148C742.1883 445.8048 737.3083 435.0548 727.5383 424.8048L404.7883 101.5648C397.9483 94.2348 390.1383 89.8448 381.8383 87.4048H700.6883C726.0783 87.4048 743.6483 69.3348 743.6483 43.9448C743.6483 18.5548 726.0783 0.0048 700.6883 0.0048H41.9883C17.0883 0.0048 -0.0017 18.5548 -0.0017 43.9448C-0.0017 69.3348 17.0883 87.4048 41.9883 87.4048H361.8183C353.5183 89.8448 345.6983 94.2348 339.3583 101.5648L16.1183 424.8048C6.8383 435.0548 1.9483 445.8048 1.9483 457.5148C1.9483 481.9348 19.5283 500.4848 44.4383 500.4848C56.1483 500.4848 67.3783 496.0948 75.6883 488.2848L185.0583 380.3748L332.0283 219.2348L328.1283 324.2148V817.3848C328.1283 842.7748 346.1883 860.8448 372.0683 860.8448Z"/>
</svg>