<?xml version="1.0" encoding="UTF-8" standalone="no"?>
<svg xmlns="http://www.w3.org/2000/svg"
     width="1227.5390625" height="848.6328125"
     viewBox="0 0 1227.5390625 848.6328125"
     fill="currentColor">
  <path d="M964.8477 848.6363C1112.3077 848.6363 1227.5377 740.7262 1227.5377 606.4463C1227.5377 503.9063 1168.4577 415.0363 1073.2377 374.9962C1074.2177 157.2263 917.4777 -0.0037 717.7777 -0.0037C585.4477 -0.0037 491.2077 70.7962 432.6177 156.2463C312.4977 121.0963 181.6377 212.4063 179.1977 349.1163C68.8477 366.6963 -0.0023 465.3363 -0.0023 584.4762C-0.0023 728.0263 125.4877 848.6363 292.4777 848.6363ZM827.1477 484.8663C827.1477 599.1163 736.8177 689.9463 624.0277 689.9463C511.7177 689.9463 421.3877 599.1163 421.3877 486.3263C421.3877 469.7263 435.5477 455.5663 452.6377 455.5663C470.2177 455.5663 484.3777 469.7263 484.3777 486.3263C484.3777 564.4563 546.3877 627.4463 624.0277 627.4463C702.1477 627.4463 764.1577 564.4563 764.1577 486.3263C764.1577 409.1763 702.1477 346.6763 624.0277 346.6763C618.6477 346.6763 612.7977 347.1663 608.3977 348.1463L651.8577 391.1163C657.2277 396.4863 660.6477 403.8063 660.6477 411.6163C660.6477 428.2263 647.9477 440.9163 631.8377 440.9163C624.5077 440.9163 616.6977 437.4963 611.8177 432.6163L523.9277 344.7263C512.6977 333.4962 512.6977 312.9863 523.9277 302.2463L610.8377 213.3763C615.7277 207.5163 624.0277 204.1063 631.8377 204.1063C647.9477 204.1063 660.6477 217.7763 660.6477 233.8863C660.6477 241.2062 657.2277 249.5163 652.3477 254.3963L621.5777 287.1063C624.5077 286.6163 628.9077 286.1363 632.8077 286.1363C735.3477 286.1363 827.1477 373.0463 827.1477 484.8663Z"/>
</svg>