<?xml version="1.0" encoding="UTF-8" standalone="no"?>
<svg xmlns="http://www.w3.org/2000/svg"
     width="898.92578125" height="898.92578125"
     viewBox="0 0 898.92578125 898.92578125"
     fill="currentColor">
  <path d="M153.3183 898.9295H745.6083C848.1483 898.9295 898.9283 848.1495 898.9283 747.5595V151.3695C898.9283 50.7795 848.1483 -0.0005 745.6083 -0.0005H153.3183C51.2683 -0.0005 -0.0017 50.2895 -0.0017 151.3695V747.5595C-0.0017 848.6295 51.2683 898.9295 153.3183 898.9295ZM154.2983 820.3095C105.4683 820.3095 78.6183 794.4295 78.6183 743.6495V155.2695C78.6183 104.4895 105.4683 78.6095 154.2983 78.6095H744.6283C792.9683 78.6095 820.3083 104.4895 820.3083 155.2695V743.6495C820.3083 794.4295 792.9683 820.3095 744.6283 820.3095ZM602.5383 569.8195C624.0283 569.8195 638.6683 553.2195 638.6683 530.7595V300.2895C638.6683 271.4795 622.5583 260.2495 597.6583 260.2495H366.2083C343.2583 260.2495 328.6183 274.4095 328.6183 295.8995C328.6183 317.3795 343.7483 331.5395 367.1883 331.5395H456.0583L528.3183 323.7295L452.1483 394.5295L271.9683 574.7095C265.1383 581.5395 260.7383 591.3095 260.7383 601.0695C260.7383 623.0495 274.8983 637.2095 296.3883 637.2095C308.1083 637.2095 317.3783 632.8095 324.2183 625.9795L503.9083 446.2895L574.2183 371.0895L566.8983 447.2695V531.7395C566.8983 554.6895 581.0583 569.8195 602.5383 569.8195Z"/>
</svg>