<?xml version="1.0" encoding="UTF-8" standalone="no"?>
<svg xmlns="http://www.w3.org/2000/svg"
     width="1333.49609375" height="1020.99609375"
     viewBox="0 0 1333.49609375 1020.99609375"
     fill="currentColor">
  <path d="M666.5055 1020.9947C685.5455 1020.9947 702.6355 1005.8547 702.6355 986.8147V33.6947C702.6355 14.6447 685.5455 0.0047 666.5055 0.0047C647.4655 0.0047 630.8555 14.6447 630.8555 33.6947V986.8147C630.8555 1005.8547 647.4655 1020.9947 666.5055 1020.9947ZM1234.8655 794.4347C1281.2455 822.7547 1333.4955 802.7347 1333.4955 743.1647V277.3447C1333.4955 219.2347 1282.2255 197.7547 1234.8655 226.5647L864.7455 453.1247C815.9155 482.9147 816.8955 538.0847 864.7455 567.8747ZM468.2655 567.8747C516.1155 538.0847 517.5755 482.9147 468.2655 453.1247L98.1455 226.5647C51.2655 197.7547 -0.0045 219.2347 -0.0045 277.3447V743.1647C-0.0045 802.7347 52.2455 822.7547 98.1455 794.4347ZM416.0155 520.5047L88.3755 723.6347C82.5155 727.0547 70.8055 727.5347 70.8055 715.3347V305.6647C70.8055 292.4847 83.4955 293.9447 88.3755 297.3647L415.5255 500.0047C427.7355 507.8147 423.3355 516.1147 416.0155 520.5047ZM1244.6255 723.6347L917.4855 520.5047C909.6655 516.1147 905.7655 507.8147 917.4855 500.0047L1244.6255 297.3647C1249.9955 293.9447 1262.2055 292.4847 1262.2055 305.6647V715.3347C1262.2055 727.5347 1250.9755 727.0547 1244.6255 723.6347Z"/>
</svg>