<?xml version="1.0" encoding="UTF-8" standalone="no"?>
<svg xmlns="http://www.w3.org/2000/svg"
     width="888.671875" height="888.18359375"
     viewBox="0 0 888.671875 888.18359375"
     fill="currentColor">
  <path d="M831.5383 57.615C781.7383 7.815 711.4283 -0.005 627.9283 -0.005H259.2783C177.2483 -0.005 106.9383 7.815 57.1283 57.615C7.3283 107.425 -0.0017 177.245 -0.0017 258.785V627.925C-0.0017 711.425 7.3283 780.765 57.1283 830.565C106.9383 880.375 177.2483 888.185 260.2583 888.185H627.9283C711.4283 888.185 781.7383 880.375 831.5383 830.565C881.3483 780.765 888.6683 711.425 888.6683 627.925V260.255C888.6683 176.755 881.3483 106.935 831.5383 57.615ZM602.5383 569.335C579.5883 569.335 564.9383 553.715 564.9383 529.785V443.355L572.2683 364.745L499.5083 442.385L315.4283 626.955C308.1083 634.275 298.3383 638.675 286.1283 638.675C264.1583 638.675 249.5083 624.025 249.5083 601.075C249.5083 591.305 254.3983 581.055 261.7183 573.735L446.2883 389.165L524.8983 315.915L450.1983 323.735H359.3783C334.9583 323.735 319.3383 309.085 319.3383 287.105C319.3383 264.645 334.4683 249.995 358.3983 249.995H597.1683C623.0483 249.995 639.1583 261.715 639.1583 291.505V528.805C639.1583 552.245 624.5083 569.335 602.5383 569.335Z"/>
</svg>