<?xml version="1.0" encoding="UTF-8" standalone="no"?>
<svg xmlns="http://www.w3.org/2000/svg"
     width="996.09375" height="996.09375"
     viewBox="0 0 996.09375 996.09375"
     fill="currentColor">
  <path d="M498.0477 996.0959C770.5077 996.0959 996.0977 770.0159 996.0977 498.0459C996.0977 225.5859 770.0177 -0.0041 497.5577 -0.0041C225.5877 -0.0041 -0.0023 225.5859 -0.0023 498.0459C-0.0023 770.0159 226.0777 996.0959 498.0477 996.0959ZM498.0477 913.0859C267.5777 913.0859 83.4977 728.5159 83.4977 498.0459C83.4977 267.5759 267.0877 83.0059 497.5577 83.0059C728.0277 83.0059 913.0877 267.5759 913.0877 498.0459C913.0877 728.5159 728.5177 913.0859 498.0477 913.0859ZM429.1977 749.5159C546.8777 749.5159 618.1677 665.0359 618.1677 550.7859V405.2759L616.2077 347.1659L646.4877 386.2259L695.3077 436.5259C701.6577 442.8759 710.4477 447.7559 720.7077 447.7559C740.7277 447.7559 756.3477 432.1259 756.3477 412.5959C756.3477 402.3459 752.9277 394.0459 745.6077 387.2059L613.7677 257.8159C605.9577 249.5159 595.2177 244.6259 583.9877 244.6259C572.7577 244.6259 562.4977 249.5159 554.6877 257.8159L421.3877 387.6959C414.5477 394.5359 411.1377 402.8359 411.1377 413.0859C411.1377 432.1259 426.7577 447.7559 446.7777 447.7559C456.0577 447.7559 465.3277 443.8459 472.1677 437.0159L530.7577 375.9759L551.7577 347.1659L549.8077 405.2759V550.7859C549.8077 622.5559 508.2977 677.7359 433.1077 677.7359C356.4477 677.7359 308.5977 624.0259 308.5977 550.2959V482.4259C308.5977 461.9159 296.3877 445.7959 273.9277 445.7959C251.4677 445.7959 238.7677 461.9159 238.7677 483.3959V550.2959C238.7677 664.5459 312.0077 749.5159 429.1977 749.5159Z"/>
</svg>