<?xml version="1.0" encoding="UTF-8" standalone="no"?>
<svg xmlns="http://www.w3.org/2000/svg"
     width="603.02734375" height="961.42578125"
     viewBox="0 0 603.02734375 961.42578125"
     fill="currentColor">
  <path d="M301.7583 961.4278C313.4783 961.4278 324.7083 957.0278 334.4683 947.2678L589.8483 686.5278C598.1483 678.2178 603.0283 665.0378 603.0283 654.7878C603.0283 628.4178 585.4483 611.3278 560.0583 611.3278C547.8483 611.3278 538.0883 615.7178 530.2783 623.5378L419.4383 737.7978L340.3283 829.0978L345.2183 715.8178V245.6078L340.3283 132.3278L419.4383 223.6278L530.2783 337.8878C538.0883 345.7078 547.8483 350.0978 560.0583 350.0978C585.4483 350.0978 603.0283 333.0078 603.0283 306.6378C603.0283 296.3878 598.1483 283.2078 589.8483 274.8978L334.4683 14.1578C324.7083 4.3978 313.4783 -0.0022 301.7583 -0.0022C289.5483 -0.0022 278.3183 4.3978 269.0383 14.1578L13.6683 274.8978C5.3683 283.2078 -0.0017 296.3878 -0.0017 306.6378C-0.0017 333.0078 17.5783 350.0978 42.9683 350.0978C55.6683 350.0978 65.4283 345.7078 72.7583 337.8878L184.0783 223.6278L262.6983 132.3278L258.2983 245.6078V715.8178L262.6983 829.0978L184.0783 737.7978L72.7583 623.5378C65.4283 615.7178 55.6683 611.3278 42.9683 611.3278C17.5783 611.3278 -0.0017 628.4178 -0.0017 654.7878C-0.0017 665.0378 5.3683 678.2178 13.6683 686.5278L269.0383 947.2678C278.3183 957.0278 289.5483 961.4278 301.7583 961.4278Z"/>
</svg>