<?xml version="1.0" encoding="UTF-8" standalone="no"?>
<svg xmlns="http://www.w3.org/2000/svg"
     width="954.1015625" height="963.37890625"
     viewBox="0 0 954.1015625 963.37890625"
     fill="currentColor">
  <path d="M-0.0047 389.6444C-0.0047 604.4944 174.8053 779.2944 389.6453 779.2944C474.6053 779.2944 552.2453 751.9544 616.2153 706.0544L856.4453 946.7744C867.6753 958.0044 882.3253 963.3744 897.9453 963.3744C931.1553 963.3744 954.1053 938.4744 954.1053 905.7644C954.1053 890.1344 948.2453 875.9744 937.9853 865.7244L699.2153 625.4844C749.5153 560.0544 779.2953 478.5144 779.2953 389.6444C779.2953 174.8044 604.4953 0.0044 389.6453 0.0044C174.8053 0.0044 -0.0047 174.8044 -0.0047 389.6444ZM83.4953 389.6444C83.4953 220.7044 220.7053 83.4944 389.6453 83.4944C558.5953 83.4944 695.8053 220.7044 695.8053 389.6444C695.8053 558.5944 558.5953 695.8044 389.6453 695.8044C220.7053 695.8044 83.4953 558.5944 83.4953 389.6444ZM217.7753 369.6244C217.7753 395.9944 245.6053 399.4144 259.7653 385.7444L300.7853 345.2144L432.1253 476.5644L389.6453 518.0644C374.5153 532.7144 379.3953 560.0544 405.7653 560.0544H532.2253C549.8053 560.0544 559.5753 548.8244 559.5753 528.8044V408.6944C559.5753 382.3244 531.7353 378.9044 517.5753 392.5744L477.0553 432.6144L345.7053 301.2744L387.6953 260.2544C402.8353 245.6044 397.9453 218.2644 371.5853 218.2644H245.1153C227.5353 218.2644 217.7753 229.4944 217.7753 249.5144Z"/>
</svg>