<?xml version="1.0" encoding="UTF-8" standalone="no"?>
<svg xmlns="http://www.w3.org/2000/svg"
     width="951.66015625" height="974.609375"
     viewBox="0 0 951.66015625 974.609375"
     fill="currentColor">
  <path d="M87.8883 437.9923H358.8883C408.6883 437.9923 437.4983 408.6923 437.4983 358.8823V88.3823C437.4983 62.9923 418.4583 42.9723 392.5783 42.9723C366.6983 42.9723 348.1483 62.5023 348.1483 88.3823V129.3923L358.3983 299.8023L229.4883 164.5523L79.5883 13.1823C71.2883 4.3923 60.0583 0.0023 48.3383 0.0023C20.5083 0.0023 -0.0017 18.5523 -0.0017 45.9023C-0.0017 58.5923 4.8783 70.8023 13.6683 79.5923L164.0583 229.9823L299.3183 358.4023L128.9083 348.6323H87.8883C62.0083 348.6323 41.9883 366.7023 41.9883 393.0623C41.9883 418.9423 61.5283 437.9923 87.8883 437.9923ZM556.1483 933.5923C582.0283 933.5923 600.5883 914.5523 600.5883 888.1823V841.7923L590.3283 671.8723L719.2383 807.1323L872.5583 961.4223C880.8583 970.2123 891.5983 974.6123 903.8083 974.6123C931.1483 974.6123 951.6583 956.0523 951.6583 928.7123C951.6583 916.0123 947.2683 903.8123 938.4783 895.0223L784.6683 741.2123L648.9283 612.7923L819.8283 622.5623H866.2083C892.0883 622.5623 912.1083 604.4923 912.1083 578.6123C912.1083 552.2423 892.5783 533.6923 866.2083 533.6923H589.8483C540.0383 533.6923 511.2283 562.5023 511.2283 612.3023V888.1823C511.2283 914.0623 529.7883 933.5923 556.1483 933.5923Z"/>
</svg>