<?xml version="1.0" encoding="UTF-8" standalone="no"?>
<svg xmlns="http://www.w3.org/2000/svg"
     width="1455.2020355219952" height="1020.99609375"
     viewBox="0 0 1455.2020355219952 1020.99609375"
     fill="currentColor">
  <path d="M727.5415 1020.9947C746.5815 1020.9947 763.6715 1005.8547 763.6715 986.8147V33.6947C763.6715 14.6447 746.5815 0.0047 727.5415 0.0047C708.5015 0.0047 691.8915 14.6447 691.8915 33.6947V986.8147C691.8915 1005.8547 708.5015 1020.9947 727.5415 1020.9947ZM36.6215 567.8747L406.2515 794.4347C452.6415 822.7547 504.8815 802.7347 504.8815 743.1647V277.3447C504.8815 219.2347 453.6115 197.7547 406.2515 226.5647L36.6215 453.1247C-12.6985 482.9147 -11.7185 538.0847 36.6215 567.8747ZM1048.8315 794.4347L1418.9415 567.8747C1466.8015 538.0847 1467.7715 482.9147 1418.9415 453.1247L1048.8315 226.5647C1001.4615 197.7547 950.1915 219.2347 950.1915 277.3447V743.1647C950.1915 802.7347 1002.4415 822.7547 1048.8315 794.4347ZM1038.5715 723.6347C1032.7115 727.0547 1021.4815 727.5347 1021.4815 715.3347V305.6647C1021.4815 292.4847 1033.6915 293.9447 1038.5715 297.3647L1366.2115 500.0047C1377.9315 507.8147 1374.0215 516.1147 1366.2115 520.5047ZM88.8715 520.5047C81.5415 515.6247 77.1515 507.8147 88.8715 500.0047L416.5015 297.3647C421.3915 293.9447 433.5915 292.4847 433.5915 305.6647V715.3347C433.5915 727.5347 422.3615 727.5347 416.5015 723.6347Z"/>
</svg>