<?xml version="1.0" encoding="UTF-8" standalone="no"?>
<svg xmlns="http://www.w3.org/2000/svg"
     width="996.09375" height="996.09375"
     viewBox="0 0 996.09375 996.09375"
     fill="currentColor">
  <path d="M498.0477 996.0959C770.5077 996.0959 996.0977 770.0159 996.0977 498.0459C996.0977 225.5859 770.0177 -0.0041 497.5577 -0.0041C225.5877 -0.0041 -0.0023 225.5859 -0.0023 498.0459C-0.0023 770.0159 226.0777 996.0959 498.0477 996.0959ZM498.5377 241.6959C520.9977 241.6959 536.6177 257.3259 536.6177 279.7859V530.2759L532.2277 637.6959L583.4977 576.6559L642.5777 516.6059C649.4177 508.7859 658.6877 505.3759 669.4377 505.3759C690.4277 505.3759 706.5477 520.9959 706.5477 541.9959C706.5477 552.7359 702.6377 561.5259 695.7977 568.3559L528.3177 735.3559C518.5577 745.1159 509.7677 749.9959 498.5377 749.9959C487.7977 749.9959 479.4877 745.6059 469.2377 735.3559L301.2677 568.3559C294.4377 561.5259 291.5077 552.7359 291.5077 541.9959C291.5077 520.9959 307.1277 505.3759 328.1277 505.3759C338.3777 505.3759 348.1477 509.2759 354.9777 516.6059L414.5477 576.6559L464.8477 637.2059L460.4477 530.2759V279.7859C460.4477 257.3259 476.5577 241.6959 498.5377 241.6959Z"/>
</svg>