<?xml version="1.0" encoding="UTF-8" standalone="no"?>
<svg xmlns="http://www.w3.org/2000/svg"
     width="900.390625" height="895.99609375"
     viewBox="0 0 900.390625 895.99609375"
     fill="currentColor">
  <path d="M843.2583 57.6147C793.4583 7.8147 723.1483 0.0047 639.6483 0.0047H259.2783C177.2483 0.0047 106.9383 7.8147 57.1283 57.6147C7.3283 107.4247 -0.0017 177.2447 -0.0017 258.7847V635.7447C-0.0017 719.2347 7.3283 788.5747 57.1283 838.3747C106.9383 888.1847 177.2483 895.9947 260.2583 895.9947H639.6483C723.1483 895.9947 793.4583 888.1847 843.2583 838.3747C893.0683 788.5747 900.3883 719.2347 900.3883 635.7447V260.2547C900.3883 176.7547 893.0683 106.9347 843.2583 57.6147ZM821.7783 246.5847V648.9247C821.7783 699.7047 815.4283 751.4647 785.6483 781.2547C756.3483 810.5447 703.6183 817.3847 653.3183 817.3847H247.0683C196.7783 817.3847 144.0383 810.5447 114.2583 781.2547C84.9583 751.4647 78.6183 699.7047 78.6183 648.9247V248.0447C78.6183 196.7747 84.9583 144.0447 114.2583 114.7447C144.0383 84.9647 197.2683 78.6147 248.5383 78.6147H653.3183C703.6183 78.6147 756.3483 85.4447 785.6483 114.7447C815.4283 144.5347 821.7783 196.2847 821.7783 246.5847ZM603.5183 568.3547C624.9983 568.3547 639.1583 551.7547 639.1583 529.2947V298.8247C639.1583 270.0147 623.5383 258.7847 598.6283 258.7847H366.6983C343.7483 258.7847 329.0983 272.9447 329.0983 294.4347C329.0983 315.9147 344.2383 330.0747 367.6783 330.0747H456.5383L528.8083 322.2647L452.6383 393.0647L272.9483 573.2447C266.1183 580.0747 261.2283 589.8447 261.2283 599.6047C261.2283 621.5847 275.3883 635.7447 296.8783 635.7447C308.5983 635.7447 317.8683 631.3447 324.7083 624.5147L504.3983 444.8247L574.7083 369.6247L567.3783 445.8047V530.2747C567.3783 553.2247 581.5383 568.3547 603.5183 568.3547Z"/>
</svg>