<?xml version="1.0" encoding="UTF-8" standalone="no"?>
<svg xmlns="http://www.w3.org/2000/svg"
     width="996.09375" height="996.09375"
     viewBox="0 0 996.09375 996.09375"
     fill="currentColor">
  <path d="M498.0477 996.0959C770.5077 996.0959 996.0977 770.0159 996.0977 498.0459C996.0977 225.5859 770.0177 -0.0041 497.5577 -0.0041C225.5877 -0.0041 -0.0023 225.5859 -0.0023 498.0459C-0.0023 770.0159 226.0777 996.0959 498.0477 996.0959ZM273.4377 498.0459C252.9277 498.0459 236.8177 481.9359 236.8177 461.4259V280.2759C236.8177 249.0259 252.4377 236.8159 279.7877 236.8159H460.4477C480.9577 236.8159 497.0677 253.4159 497.0677 273.9259C497.0677 294.4359 480.9577 310.5459 460.4477 310.5459H435.0577L355.9577 305.6659L472.1677 416.5059C487.3077 431.1559 487.7977 457.0359 472.6577 472.1659C457.5177 487.7959 432.1277 488.2859 416.9877 471.6759L305.1777 354.4959L310.5477 436.0359V461.4259C310.5477 481.9359 293.9477 498.0459 273.4377 498.0459ZM536.1377 760.2559C515.6277 760.2559 499.0277 743.6559 499.0277 723.1459C499.0277 702.6359 515.6277 686.5259 536.1377 686.5259H561.5277L640.6277 691.4059L523.9277 580.5659C508.7877 565.9159 508.2977 540.0359 523.4377 524.9059C539.0577 509.2759 563.9677 508.7859 579.5877 525.3859L690.9177 642.5759L686.0377 561.0359V535.6459C686.0377 515.1359 702.1477 499.0259 722.6577 499.0259C743.1677 499.0259 759.7677 515.1359 759.7677 535.6459V716.7959C759.7677 748.0459 743.6477 760.2559 716.3077 760.2559Z"/>
</svg>