<?xml version="1.0" encoding="UTF-8" standalone="no"?>
<svg xmlns="http://www.w3.org/2000/svg"
     width="1010.25390625" height="740.234375"
     viewBox="0 0 1010.25390625 740.234375"
     fill="currentColor">
  <path d="M43.4583 740.2336C69.3383 740.2336 87.3983 723.1436 87.3983 698.2436V375.0036C88.3783 385.2536 93.7483 395.0236 102.0483 402.8336L426.7583 727.0536C436.5283 736.3236 446.7783 740.2336 458.0083 740.2336C482.4183 740.2336 500.9783 722.6536 500.9783 698.2436C500.9783 687.0136 496.5783 675.2936 489.2583 667.4836L379.8783 556.1536L219.2383 410.1536L323.7283 414.0636H967.2883C992.1883 414.0636 1010.2583 395.5036 1010.2583 370.1136C1010.2583 344.7236 992.1883 326.6636 967.2883 326.6636H323.7283L219.7283 330.5636L379.8783 184.0836L489.2583 73.2436C496.5783 65.4336 500.9783 53.7136 500.9783 41.9936C500.9783 18.0636 482.4183 0.0036 458.0083 0.0036C446.7783 0.0036 436.5283 4.3936 426.7583 13.6736L102.0483 337.4036C93.7483 345.7036 88.3783 355.4736 87.3983 365.7236V43.4536C87.3983 18.0636 69.3383 0.0036 43.4583 0.0036C18.0683 0.0036 -0.0017 18.0636 -0.0017 43.4536V698.2436C-0.0017 723.1436 18.0683 740.2336 43.4583 740.2336Z"/>
</svg>