<?xml version="1.0" encoding="UTF-8" standalone="no"?>
<svg xmlns="http://www.w3.org/2000/svg"
     width="996.09375" height="996.09375"
     viewBox="0 0 996.09375 996.09375"
     fill="currentColor">
  <path d="M498.0477 996.0959C770.5077 996.0959 996.0977 770.0159 996.0977 498.0459C996.0977 225.5859 770.0177 -0.0041 497.5577 -0.0041C225.5877 -0.0041 -0.0023 225.5859 -0.0023 498.0459C-0.0023 770.0159 226.0777 996.0959 498.0477 996.0959ZM498.0477 913.0859C267.5777 913.0859 83.4977 728.5159 83.4977 498.0459C83.4977 267.5759 267.0877 83.0059 497.5577 83.0059C728.0277 83.0059 913.0877 267.5759 913.0877 498.0459C913.0877 728.5159 728.5177 913.0859 498.0477 913.0859ZM543.4577 247.0659C425.7777 247.0659 354.9777 331.5459 354.9777 445.7959V591.3059L356.4477 649.4159L326.1677 610.8359L277.3477 560.0559C270.9977 553.7059 262.2077 549.3159 251.9577 549.3159C231.9377 549.3159 216.3077 564.4559 216.3077 583.9859C216.3077 594.2359 219.7277 602.5359 227.0477 609.3759L358.8877 738.7659C367.1877 747.0659 377.4377 751.9559 388.6677 751.9559C400.3877 751.9559 410.1577 747.0659 418.4577 738.7659L551.2677 608.8859C558.1077 602.0459 561.5277 593.7459 561.5277 583.4959C561.5277 564.4559 546.3877 549.3159 525.8777 549.3159C516.5977 549.3159 507.3277 552.7359 500.9777 559.5659L441.8977 621.0959L420.8977 649.4159L423.3377 591.3059V445.7959C423.3377 374.0259 464.3577 318.8459 539.5477 318.8459C616.6977 318.8459 664.0577 372.5559 664.0577 446.2859V514.1559C664.0577 534.6659 676.2677 550.7859 698.7277 550.7859C721.6777 550.7859 733.8877 534.6659 733.8877 513.1859V446.2859C733.8877 332.0359 660.6477 247.0659 543.4577 247.0659Z"/>
</svg>