<?xml version="1.0" encoding="UTF-8" standalone="no"?>
<svg xmlns="http://www.w3.org/2000/svg"
     width="1151.3671875" height="898.92578125"
     viewBox="0 0 1151.3671875 898.92578125"
     fill="currentColor">
  <path d="M153.3183 898.9278H998.0483C1100.5883 898.9278 1151.3683 848.6378 1151.3683 748.0478V151.3678C1151.3683 50.7778 1100.5883 -0.0022 998.0483 -0.0022H153.3183C51.2683 -0.0022 -0.0017 50.7778 -0.0017 151.3678V748.0478C-0.0017 848.6378 51.2683 898.9278 153.3183 898.9278ZM164.5483 524.8978C164.5483 515.6278 168.4583 506.8378 178.2183 497.5578L390.6283 285.1578L429.1983 249.5078L305.6683 254.3978H256.3483C235.3483 254.3978 219.2383 239.7478 219.2383 218.7478C219.2383 197.2678 234.3783 183.1078 256.3483 183.1078H505.8583C528.3183 183.1078 543.4583 197.7578 543.4583 219.7278V462.3978C543.4583 484.8678 528.8083 499.5078 507.8083 499.5078C486.3283 499.5078 472.1683 484.8678 472.1683 462.3978V413.5778L476.5583 295.8978L441.4083 334.9578L228.5183 547.3678C218.7483 557.1278 209.9583 561.0378 201.6583 561.0378C181.6383 561.0378 164.5483 543.9478 164.5483 524.8978ZM993.6483 374.9978C993.6483 384.2778 990.2383 393.0678 980.4683 402.3478L767.5783 615.2378L729.4883 650.3878L853.0283 645.9978H902.3483C922.8483 645.9978 939.4483 660.1578 939.4483 681.1478C939.4483 702.6378 923.8283 717.2878 902.3483 717.2878H652.8283C630.3683 717.2878 615.2383 702.1478 615.2383 680.1778V437.4978C615.2383 415.0378 629.8783 400.3878 650.8783 400.3878C672.3683 400.3878 686.5283 415.0378 686.5283 437.4978V486.3278L682.1283 604.0078L717.2883 564.9378L929.6883 352.5378C939.9383 342.7778 948.7283 338.8678 957.0283 338.8678C977.0483 338.8678 993.6483 355.9578 993.6483 374.9978Z"/>
</svg>