<?xml version="1.0" encoding="UTF-8" standalone="no"?>
<svg xmlns="http://www.w3.org/2000/svg"
     width="996.09375" height="996.09375"
     viewBox="0 0 996.09375 996.09375"
     fill="currentColor">
  <path d="M498.0477 996.0959C770.5077 996.0959 996.0977 770.0159 996.0977 498.0459C996.0977 225.5859 770.0177 -0.0041 497.5577 -0.0041C225.5877 -0.0041 -0.0023 225.5859 -0.0023 498.0459C-0.0023 770.0159 226.0777 996.0959 498.0477 996.0959ZM498.0477 913.0859C267.5777 913.0859 83.4977 728.5159 83.4977 498.0459C83.4977 267.5759 267.0877 83.0059 497.5577 83.0059C728.0277 83.0059 913.0877 267.5759 913.0877 498.0459C913.0877 728.5159 728.5177 913.0859 498.0477 913.0859ZM279.7877 520.5059C279.7877 642.5759 376.9577 740.2359 497.5577 740.2359C618.1677 740.2359 715.3277 642.5759 715.3277 521.9759C715.3277 503.9059 699.7077 488.7659 681.6377 488.7659C663.5777 488.7659 647.9477 503.9059 647.9477 521.9759C647.9477 605.4659 581.0577 672.8559 497.5577 672.8559C414.0577 672.8559 347.1677 605.9559 347.1677 521.9759C347.1677 438.4759 414.0577 371.5859 497.5577 371.5859C503.9077 371.5859 510.7377 372.0659 515.6277 373.0459L467.7777 419.4359C461.9177 425.7859 458.4977 433.1059 458.4977 442.3859C458.4977 459.4759 472.1677 472.6559 489.2577 472.6559C497.5577 472.6559 505.3677 468.7459 510.7377 463.8659L605.4677 369.1359C617.6777 357.4259 616.6977 335.4459 605.4677 323.7259L511.7177 228.5159C506.3477 222.6559 498.0477 218.7459 489.2577 218.7459C471.6777 218.7459 458.4977 232.4259 458.4977 249.9959C458.4977 258.2959 461.9177 266.6059 467.2877 271.9759L501.9577 307.1259C498.0477 307.1259 492.6777 306.1559 488.2777 306.1559C378.4177 306.1559 279.7877 400.3859 279.7877 520.5059Z"/>
</svg>