<?xml version="1.0" encoding="UTF-8" standalone="no"?>
<svg xmlns="http://www.w3.org/2000/svg"
     width="1151.3671875" height="898.92578125"
     viewBox="0 0 1151.3671875 898.92578125"
     fill="currentColor">
  <path d="M153.3183 898.9278H998.0483C1100.5883 898.9278 1151.3683 848.6378 1151.3683 748.0478V151.3678C1151.3683 50.7778 1100.5883 -0.0022 998.0483 -0.0022H153.3183C51.2683 -0.0022 -0.0017 50.7778 -0.0017 151.3678V748.0478C-0.0017 848.6378 51.2683 898.9278 153.3183 898.9278ZM877.9283 393.5578C877.9283 315.4278 835.9383 273.9278 756.3483 273.9278H78.6183V155.7578C78.6183 104.9778 105.4683 78.6178 154.2983 78.6178H997.0683C1045.4083 78.6178 1072.7583 104.9778 1072.7583 155.7578V743.6478C1072.7583 794.4378 1045.4083 820.3078 997.0683 820.3078H877.9283ZM154.2983 820.3078C105.4683 820.3078 78.6183 794.4378 78.6183 743.6478V343.7478H542.9683V820.3078ZM751.4683 343.7478C787.1083 343.7478 808.1083 365.2378 808.1083 401.3678V820.3078H612.7883V343.7478Z"/>
</svg>