<?xml version="1.0" encoding="UTF-8" standalone="no"?>
<svg xmlns="http://www.w3.org/2000/svg"
     width="1151.3671875" height="899.4140625"
     viewBox="0 0 1151.3671875 899.4140625"
     fill="currentColor">
  <path d="M877.9283 393.5578C877.9283 315.4278 835.9383 273.9278 756.3483 273.9278H-0.0017V151.3678C-0.0017 50.7778 51.2683 -0.0022 153.3183 -0.0022H998.0483C1100.5883 -0.0022 1151.3683 50.7778 1151.3683 151.3678V748.0478C1151.3683 848.6378 1100.5883 898.9278 998.0483 898.9278H877.9283ZM808.1083 401.3678V898.9278H877.9283V899.4178H808.1083V898.9278H599.1183V343.7478H751.4683C787.1083 343.7478 808.1083 365.2378 808.1083 401.3678ZM153.3183 898.9278C51.2683 898.9278 -0.0017 848.6378 -0.0017 748.0478V343.7478H529.2983V898.9278H599.1183V899.4178H529.2983V898.9278Z"/>
</svg>