<?xml version="1.0" encoding="UTF-8" standalone="no"?>
<svg xmlns="http://www.w3.org/2000/svg"
     width="996.09375" height="996.09375"
     viewBox="0 0 996.09375 996.09375"
     fill="currentColor">
  <path d="M498.0477 996.0942C770.5077 996.0942 996.0977 770.5042 996.0977 498.0442C996.0977 226.0742 770.0177 0.0042 497.5577 0.0042C225.5877 0.0042 -0.0023 226.0742 -0.0023 498.0442C-0.0023 770.5042 226.0777 996.0942 498.0477 996.0942ZM498.0477 913.0842C267.5777 913.0842 83.4977 728.5142 83.4977 498.0442C83.4977 267.5742 267.0877 83.0042 497.5577 83.0042C728.0277 83.0042 913.0877 267.5742 913.0877 498.0442C913.0877 728.5142 728.5177 913.0842 498.0477 913.0842ZM498.5377 749.5142C523.9277 749.5142 538.0877 734.3742 537.5977 708.0042L533.2077 561.5242L665.5277 647.4642C672.8477 651.8542 681.1477 654.7842 690.9177 654.7842C710.9377 654.7842 729.4877 639.1642 729.4877 614.2542C729.4877 598.1442 722.1677 587.4042 706.0577 578.6142L567.3877 500.9742L706.0577 423.8242C722.1677 415.0342 729.4877 403.8042 729.4877 388.1842C729.4877 362.7942 710.9377 347.1642 690.9177 347.1642C681.1477 347.1642 672.8477 350.0942 665.5277 354.9842L533.2077 439.4542L537.5977 288.5742C538.0877 261.7142 523.9277 246.5842 498.5377 246.5842C472.6577 246.5842 457.0277 262.6942 457.5177 288.5742L461.9177 439.4542L329.5877 355.4642C322.2677 350.5842 313.9677 348.1442 304.1977 348.1442C284.1777 348.1442 265.6277 363.2842 265.6277 388.6742C265.6277 404.7842 272.9477 415.5242 289.0577 424.8042L426.7577 500.9742L289.0577 578.1242C272.9477 586.9142 265.6277 598.1442 265.6277 613.7742C265.6277 638.6742 284.1777 654.2942 304.1977 654.2942C313.9677 654.2942 322.2677 651.3642 329.5877 646.9742L461.9177 561.5242L457.5177 708.0042C457.0277 733.3942 472.6577 749.5142 498.5377 749.5142Z"/>
</svg>