<?xml version="1.0" encoding="UTF-8" standalone="no"?>
<svg xmlns="http://www.w3.org/2000/svg"
     width="996.09375" height="996.09375"
     viewBox="0 0 996.09375 996.09375"
     fill="currentColor">
  <path d="M498.0477 996.0959C770.5077 996.0959 996.0977 770.0159 996.0977 498.0459C996.0977 225.5859 770.0177 -0.0041 497.5577 -0.0041C225.5877 -0.0041 -0.0023 225.5859 -0.0023 498.0459C-0.0023 770.0159 226.0777 996.0959 498.0477 996.0959ZM504.3977 799.8059C324.2177 799.8059 203.6177 679.1959 203.6177 499.0259C203.6177 318.8459 325.6877 194.8259 503.4177 194.8259C675.2977 194.8259 793.4577 306.1559 793.4577 468.2659C793.4577 582.0359 739.7477 659.6659 658.6877 659.6659C618.6477 659.6659 587.8877 641.1159 573.7277 611.3259C554.1977 642.0859 521.9777 659.6659 484.3777 659.6659C405.7577 659.6659 351.0777 593.2659 351.0777 499.5159C351.0777 406.7359 405.7577 340.8159 482.9077 340.8159C515.1377 340.8159 545.4077 356.4459 564.4577 377.9259V368.1659C564.4577 355.9559 577.1477 340.8159 595.7077 340.8159C616.2077 340.8159 629.3977 354.9759 629.3977 375.9759V561.5259C629.3977 585.4459 641.5977 598.1459 665.5277 598.1459C702.1477 598.1459 727.5377 548.3359 727.5377 470.2159C727.5377 344.2359 637.2077 260.2559 502.9277 260.2559C365.7277 260.2559 272.9477 357.4259 272.9477 500.4859C272.9477 644.5359 365.2377 733.8859 513.1877 733.8859C550.7777 733.8859 578.1277 729.0059 611.3277 721.1959C617.1877 719.7259 623.0477 718.2659 626.9577 718.2659C643.5577 718.2659 656.2477 730.9559 656.2477 747.5559C656.2477 764.6459 644.5277 777.8359 623.5377 784.6659C594.7277 793.9459 550.2977 799.8059 504.3977 799.8059ZM496.0977 591.7959C539.0577 591.7959 567.3877 555.1759 567.3877 496.5859C567.3877 439.4559 539.5477 404.2959 496.5777 404.2959C454.0977 404.2959 426.7577 440.4259 426.7577 498.0459C426.7577 556.1559 453.6177 591.7959 496.0977 591.7959Z"/>
</svg>