<?xml version="1.0" encoding="UTF-8" standalone="no"?>
<svg xmlns="http://www.w3.org/2000/svg"
     width="996.09375" height="996.09375"
     viewBox="0 0 996.09375 996.09375"
     fill="currentColor">
  <path d="M498.0477 996.0959C770.5077 996.0959 996.0977 770.0159 996.0977 498.0459C996.0977 225.5859 770.0177 -0.0041 497.5577 -0.0041C225.5877 -0.0041 -0.0023 225.5859 -0.0023 498.0459C-0.0023 770.0159 226.0777 996.0959 498.0477 996.0959ZM498.0477 913.0859C267.5777 913.0859 83.4977 728.5159 83.4977 498.0459C83.4977 267.5759 267.0877 83.0059 497.5577 83.0059C728.0277 83.0059 913.0877 267.5759 913.0877 498.0459C913.0877 728.5159 728.5177 913.0859 498.0477 913.0859ZM503.9077 790.5259C548.3377 790.5259 591.3077 785.1559 619.1377 775.8759C639.6477 769.5359 650.8777 756.8359 650.8777 740.2359C650.8777 724.1259 638.6677 711.9159 622.5577 711.9159C618.6477 711.9159 612.7977 713.3759 607.4177 714.8459C575.1977 722.1659 548.8277 727.0459 512.2077 727.0459C368.6477 727.0459 278.8077 640.1359 278.8077 500.4859C278.8077 361.3259 369.1377 267.0859 502.4377 267.0859C632.8077 267.0859 720.2177 348.6359 720.2177 471.1959C720.2177 546.8759 695.7977 595.2159 660.1577 595.2159C636.7177 595.2159 624.9977 583.0059 624.9977 559.5659V379.3959C624.9977 359.3759 612.3077 345.7059 592.2877 345.7059C574.2177 345.7059 562.0077 360.3559 562.0077 372.0659V381.8359C543.9477 360.8359 514.1577 345.7059 482.9077 345.7059C408.2077 345.7059 354.9777 409.6659 354.9777 499.5159C354.9777 590.3359 408.2077 654.7859 484.3777 654.7859C520.9977 654.7859 552.2477 637.6959 571.2877 607.9059C584.9577 636.7159 614.7477 654.7859 653.3177 654.7859C731.9377 654.7859 784.1777 579.5859 784.1777 469.2359C784.1777 312.0159 669.4377 204.1059 502.9277 204.1059C330.5677 204.1059 211.9177 324.2159 211.9177 499.0259C211.9177 673.8259 329.0977 790.5259 503.9077 790.5259ZM495.6077 589.3559C454.0977 589.3559 428.2277 554.6859 428.2277 498.0459C428.2277 441.8959 454.5877 406.7359 496.0977 406.7359C538.0877 406.7359 564.9377 440.9159 564.9377 496.5859C564.9377 553.7059 537.5977 589.3559 495.6077 589.3559Z"/>
</svg>