<?xml version="1.0" encoding="UTF-8" standalone="no"?>
<svg xmlns="http://www.w3.org/2000/svg"
     width="898.92578125" height="898.92578125"
     viewBox="0 0 898.92578125 898.92578125"
     fill="currentColor">
  <path d="M153.3183 898.9295H745.6083C848.1483 898.9295 898.9283 848.1495 898.9283 747.5595V151.3695C898.9283 50.7795 848.1483 -0.0005 745.6083 -0.0005H153.3183C51.2683 -0.0005 -0.0017 50.2895 -0.0017 151.3695V747.5595C-0.0017 848.6295 51.2683 898.9295 153.3183 898.9295ZM154.2983 820.3095C105.4683 820.3095 78.6183 794.4295 78.6183 743.6495V155.2695C78.6183 104.4895 105.4683 78.6095 154.2983 78.6095H744.6283C792.9683 78.6095 820.3083 104.4895 820.3083 155.2695V743.6495C820.3083 794.4295 792.9683 820.3095 744.6283 820.3095ZM250.9783 549.3195C250.9783 562.9895 260.2583 573.2395 274.8983 573.2395H301.2683L277.3483 645.0195C274.8983 652.3395 274.4183 657.2295 274.4183 661.1295C274.4183 677.7295 287.5983 689.9395 306.1483 689.9395C321.2883 689.9395 332.0283 682.6195 336.9183 666.0195L366.2083 573.2395H532.7183L562.0083 666.4995C566.8983 683.1095 576.6583 689.9395 592.7783 689.9395C611.3283 689.9395 624.5083 677.7295 624.5083 661.1295C624.5083 657.2295 623.5383 652.3395 621.0983 645.0195L597.1683 573.2395H624.0283C638.6683 573.2395 647.9483 562.9895 647.9483 549.3195C647.9483 535.6395 638.6683 524.8995 624.0283 524.8995H581.5383L567.8683 483.8895H624.0283C638.6683 483.8895 647.9483 473.1395 647.9483 459.4695C647.9483 445.7995 638.6683 435.5495 624.0283 435.5495H551.7583L486.8183 240.2295C480.9583 222.6595 469.2383 211.9095 449.2183 211.9095C429.1983 211.9095 416.9883 222.1695 411.1283 240.2295L346.6783 435.5495H274.8983C260.2583 435.5495 250.9783 445.7995 250.9783 459.4695C250.9783 473.1395 260.2583 483.8895 274.8983 483.8895H330.5683L316.8983 524.8995H274.8983C260.2583 524.8995 250.9783 535.6395 250.9783 549.3195ZM408.1983 435.5495L449.2183 304.6895L490.2383 435.5495ZM380.8583 524.8995L393.5583 483.8895H504.8783L518.0683 524.8995Z"/>
</svg>