<?xml version="1.0" encoding="UTF-8" standalone="no"?>
<svg xmlns="http://www.w3.org/2000/svg"
     width="898.92578125" height="898.92578125"
     viewBox="0 0 898.92578125 898.92578125"
     fill="currentColor">
  <path d="M153.3183 898.9295H745.6083C848.1483 898.9295 898.9283 848.1495 898.9283 747.5595V151.3695C898.9283 50.7795 848.1483 -0.0005 745.6083 -0.0005H153.3183C51.2683 -0.0005 -0.0017 50.2895 -0.0017 151.3695V747.5595C-0.0017 848.6295 51.2683 898.9295 153.3183 898.9295ZM244.6283 552.7295C244.6283 538.5695 253.9083 527.3395 269.0383 527.3395H312.4983L326.6583 484.8595H269.0383C253.9083 484.8595 244.6283 474.1195 244.6283 459.9595C244.6283 445.7995 253.9083 435.0595 269.0383 435.0595H343.2583L409.6683 233.3995C416.0183 214.8395 428.2183 204.0995 449.2183 204.0995C469.7283 204.0995 481.9383 215.3295 488.2783 233.3995L555.1783 435.0595H629.8783C645.0183 435.0595 654.2983 445.7995 654.2983 459.9595C654.2983 474.1195 645.0183 484.8595 629.8783 484.8595H571.7783L585.9383 527.3395H629.8783C645.0183 527.3395 654.2983 538.5695 654.2983 552.7295C654.2983 566.8895 645.0183 577.1495 629.8783 577.1495H602.0483L626.4683 650.8795C628.9083 658.6895 630.3683 663.5695 630.3683 667.9695C630.3683 685.0595 616.6983 697.7495 597.1683 697.7495C580.5683 697.7495 570.3083 690.4295 565.4283 673.3395L535.1583 577.1495H363.7683L333.4983 672.8495C328.6183 689.9395 317.3783 697.7495 301.7583 697.7495C282.2283 697.7495 268.5583 685.0595 268.5583 667.9695C268.5583 663.5695 269.0383 658.6895 271.9683 650.8795L296.3883 577.1495H269.0383C253.9083 577.1495 244.6283 566.8895 244.6283 552.7295ZM407.2283 435.0595H491.2083L449.2183 300.2895ZM378.9083 527.3395H520.0183L506.3483 484.8595H392.0883Z"/>
</svg>