<?xml version="1.0" encoding="UTF-8" standalone="no"?>
<svg xmlns="http://www.w3.org/2000/svg"
     width="1268.06640625" height="810.546875"
     viewBox="0 0 1268.06640625 810.546875"
     fill="currentColor">
  <path d="M468.7483 405.7608C467.7783 497.5608 475.0983 586.4208 500.4883 676.7608C529.7883 775.3908 585.4483 810.5508 702.1483 810.5508H729.0083C1014.6483 810.5508 1268.0683 624.5108 1268.0683 405.7608C1268.0683 187.0108 1014.6483 0.0008 729.0083 0.0008H702.1483C585.9383 0.0008 530.2783 35.6408 500.4883 134.2808C475.0983 225.1008 467.7783 313.9608 468.7483 405.7608ZM-0.0017 133.3008C-0.0017 155.2708 17.5783 172.3608 39.0583 172.3608H402.3483C411.1283 134.2808 415.5283 114.2608 422.8483 94.2408H39.0583C17.5783 94.2408 -0.0017 112.3008 -0.0017 133.3008ZM679.6883 595.7008C658.6883 595.7008 645.5083 583.0108 645.5083 563.4808C645.5083 556.6408 646.9683 549.8008 650.8783 540.0408L777.3483 198.2408C786.6183 174.3208 803.2183 162.1108 828.1283 162.1108C853.0283 162.1108 871.0983 174.3208 879.8783 198.2408L1006.8383 540.0408C1010.2583 549.8008 1011.7183 556.6408 1011.7183 563.4808C1011.7183 583.0108 998.0483 595.7008 977.5383 595.7008C960.9383 595.7008 949.2183 587.4008 942.3783 566.4108L909.6683 470.2108H748.0483L714.8483 566.4108C708.0083 587.4008 696.2883 595.7008 679.6883 595.7008ZM766.1183 415.0408H891.1183L831.0583 240.7208H826.6583ZM-0.0017 314.4508C-0.0017 335.9408 18.0683 353.5108 39.0583 353.5108L381.8383 354.0008C382.8083 327.1508 384.7683 301.2708 387.2083 275.3908H39.0583C17.5783 275.3908 -0.0017 293.4608 -0.0017 314.4508ZM-0.0017 496.5808C-0.0017 517.5808 17.5783 534.6708 39.0583 534.6708H387.2083C384.7683 509.2808 383.2983 483.4008 381.8383 457.0308H39.0583C17.5783 457.0308 -0.0017 475.1008 -0.0017 496.5808ZM-0.0017 677.7308C-0.0017 698.7308 17.5783 715.8208 39.0583 715.8208L422.3683 716.3108C416.0183 697.7508 407.2283 661.1308 402.3483 638.6708L39.0583 638.1808C17.5783 638.1808 -0.0017 656.2508 -0.0017 677.7308Z"/>
</svg>