<?xml version="1.0" encoding="UTF-8" standalone="no"?>
<svg xmlns="http://www.w3.org/2000/svg"
     width="898.92578125" height="898.92578125"
     viewBox="0 0 898.92578125 898.92578125"
     fill="currentColor">
  <path d="M153.3183 898.9295H745.6083C848.1483 898.9295 898.9283 848.1495 898.9283 747.5595V151.3695C898.9283 50.7795 848.1483 -0.0005 745.6083 -0.0005H153.3183C51.2683 -0.0005 -0.0017 50.2895 -0.0017 151.3695V747.5595C-0.0017 848.6295 51.2683 898.9295 153.3183 898.9295ZM154.2983 820.3095C105.4683 820.3095 78.6183 794.4295 78.6183 743.6495V155.2695C78.6183 104.4895 105.4683 78.6095 154.2983 78.6095H744.6283C792.9683 78.6095 820.3083 104.4895 820.3083 155.2695V743.6495C820.3083 794.4295 792.9683 820.3095 744.6283 820.3095ZM333.0083 667.4795H475.5883C576.6583 667.4795 641.5983 618.6495 641.5983 541.9895C641.5983 482.4195 601.5583 440.4295 536.6183 432.6195V429.6895C584.9583 417.9695 614.7483 379.8795 614.7483 331.0595C614.7483 264.1595 560.5483 220.6995 476.5583 220.6995H333.0083C306.1483 220.6995 290.0383 236.8195 290.0383 264.6495V624.0195C290.0383 650.8795 306.1483 667.4795 333.0083 667.4795ZM365.2383 410.6395V278.3195H460.9383C510.2583 278.3195 540.0383 303.2195 540.0383 343.2595C540.0383 386.2295 504.3983 410.6395 438.9683 410.6395ZM365.2383 609.8595V464.3595H469.2383C528.8083 464.3595 563.4783 491.6995 563.4783 538.5695C563.4783 587.3995 525.8783 609.8595 444.8283 609.8595Z"/>
</svg>