<?xml version="1.0" encoding="UTF-8" standalone="no"?>
<svg xmlns="http://www.w3.org/2000/svg"
     width="898.92578125" height="898.92578125"
     viewBox="0 0 898.92578125 898.92578125"
     fill="currentColor">
  <path d="M153.3183 898.9295H745.6083C848.1483 898.9295 898.9283 848.1495 898.9283 747.5595V151.3695C898.9283 50.7795 848.1483 -0.0005 745.6083 -0.0005H153.3183C51.2683 -0.0005 -0.0017 50.2895 -0.0017 151.3695V747.5595C-0.0017 848.6295 51.2683 898.9295 153.3183 898.9295ZM329.5883 674.3195C301.7583 674.3195 284.6683 657.2295 284.6683 629.3895V259.2795C284.6683 230.4695 301.7583 213.8695 329.5883 213.8695H477.5383C563.9683 213.8695 620.1183 258.2995 620.1183 327.6395C620.1183 377.9295 589.3583 416.9895 539.5483 429.1995V432.1295C606.4483 440.4295 647.9483 483.3995 647.9483 544.9195C647.9483 624.0195 580.5683 674.3195 476.5583 674.3195ZM362.7883 409.6695H438.4783C505.8583 409.6695 542.4783 384.2795 542.4783 340.3295C542.4783 298.8295 512.2083 273.4395 461.4283 273.4395H362.7883ZM362.7883 614.7495H444.3383C528.3183 614.7495 566.8983 591.7995 566.8983 541.4995C566.8983 493.1595 531.2483 465.3295 469.7283 465.3295H362.7883Z"/>
</svg>