<?xml version="1.0" encoding="UTF-8" standalone="no"?>
<svg xmlns="http://www.w3.org/2000/svg"
     width="996.09375" height="996.09375"
     viewBox="0 0 996.09375 996.09375"
     fill="currentColor">
  <path d="M498.0477 996.0959C770.5077 996.0959 996.0977 770.0159 996.0977 498.0459C996.0977 225.5859 770.0177 -0.0041 497.5577 -0.0041C225.5877 -0.0041 -0.0023 225.5859 -0.0023 498.0459C-0.0023 770.0159 226.0777 996.0959 498.0477 996.0959ZM498.0477 913.0859C267.5777 913.0859 83.4977 728.5159 83.4977 498.0459C83.4977 267.5759 267.0877 83.0059 497.5577 83.0059C728.0277 83.0059 913.0877 267.5759 913.0877 498.0459C913.0877 728.5159 728.5177 913.0859 498.0477 913.0859ZM431.1477 677.7359C448.7277 677.7359 463.8677 664.0659 463.8677 639.1559V507.8159C466.3077 517.0859 473.1477 525.3859 485.3477 532.2259L718.2577 669.4359C727.0477 674.8059 735.3477 677.7359 744.6277 677.7359C762.2077 677.7359 776.8577 664.0659 776.8577 639.1559V357.9059C776.8577 333.0059 762.2077 319.3359 744.6277 319.3359C735.3477 319.3359 727.0477 322.2659 718.2577 327.6359L485.3477 464.8459C473.1477 471.6759 466.3077 479.9759 463.8677 489.2559V357.9059C463.8677 333.0059 448.7277 319.3359 431.1477 319.3359C421.8777 319.3359 414.5477 322.2659 404.7877 327.6359L171.8777 464.8459C156.2477 474.1259 149.4177 485.8359 149.4177 498.5359C149.4177 511.2259 156.2477 522.9459 171.8777 532.2259L404.7877 669.4359C414.5477 674.8059 421.8777 677.7359 431.1477 677.7359Z"/>
</svg>