<?xml version="1.0" encoding="UTF-8" standalone="no"?>
<svg xmlns="http://www.w3.org/2000/svg"
     width="996.09375" height="996.09375"
     viewBox="0 0 996.09375 996.09375"
     fill="currentColor">
  <path d="M498.0477 996.0959C770.5077 996.0959 996.0977 770.0159 996.0977 498.0459C996.0977 225.5859 770.0177 -0.0041 497.5577 -0.0041C225.5877 -0.0041 -0.0023 225.5859 -0.0023 498.0459C-0.0023 770.0159 226.0777 996.0959 498.0477 996.0959ZM278.8077 658.6959V337.4059C278.8077 316.8959 290.0377 306.1559 310.0577 306.1559H364.2577C384.2777 306.1559 395.5077 316.4059 395.5077 337.4059V484.3759C398.9277 476.5659 405.2777 469.7259 415.5277 463.8659L655.7577 322.7559C664.5477 317.3859 673.3377 314.4559 682.6177 314.4559C701.1677 314.4559 716.3077 328.1259 716.3077 354.0059V643.5559C716.3077 669.9259 701.1677 683.1059 682.6177 683.1059C673.3377 683.1059 664.5477 680.1759 655.7577 674.8059L415.5277 533.6959C405.2777 527.8359 398.9277 520.9959 395.5077 513.1859V658.6959C395.5077 679.6859 384.2777 689.9459 364.2577 689.9459H310.0577C290.0377 689.9459 278.8077 679.6859 278.8077 658.6959Z"/>
</svg>