<?xml version="1.0" encoding="UTF-8" standalone="no"?>
<svg xmlns="http://www.w3.org/2000/svg"
     width="996.09375" height="996.09375"
     viewBox="0 0 996.09375 996.09375"
     fill="currentColor">
  <path d="M498.0477 996.0977C770.5077 996.0977 996.0977 770.5077 996.0977 498.0477C996.0977 226.0777 770.0177 -0.0023 497.5577 -0.0023C225.5877 -0.0023 -0.0023 226.0777 -0.0023 498.0477C-0.0023 770.5077 226.0777 996.0977 498.0477 996.0977ZM418.9477 804.6877C330.5677 804.6877 286.6177 759.7677 287.1077 669.4377C288.5777 566.4077 289.0577 491.6977 291.5077 436.0377C297.3677 306.1477 327.1477 248.5377 414.5477 230.4677C419.9177 190.4277 452.6377 162.1077 497.5577 162.1077C542.4777 162.1077 575.1977 190.4277 580.5677 230.4677C667.9677 248.5377 697.7577 306.1477 703.6177 436.0377C706.0577 491.6977 706.5477 566.4077 708.0077 669.4377C708.4977 759.7677 664.5477 804.6877 576.1677 804.6877ZM455.5677 224.6077C468.7477 223.6377 482.4177 223.1477 497.5577 223.1477C512.6977 223.1477 526.3677 223.6377 539.5477 224.6077C532.2277 209.9577 517.0877 200.1977 497.5577 200.1977C478.0277 200.1977 462.8877 209.9577 455.5677 224.6077ZM375.9777 567.8677H619.1377V535.1577C619.1377 513.6677 605.4677 499.5077 583.0077 499.5077H412.5977C390.1377 499.5077 375.9777 513.6677 375.9777 535.1577ZM412.5977 703.1277H583.0077C605.4677 703.1277 619.1377 688.9677 619.1377 666.9877V599.6077H375.9777V666.9877C375.9777 688.9677 390.1377 703.1277 412.5977 703.1277Z"/>
</svg>