<?xml version="1.0" encoding="UTF-8" standalone="no"?>
<svg xmlns="http://www.w3.org/2000/svg"
     width="996.09375" height="996.09375"
     viewBox="0 0 996.09375 996.09375"
     fill="currentColor">
  <path d="M498.0477 996.0959C770.5077 996.0959 996.0977 770.0159 996.0977 498.0459C996.0977 225.5859 770.0177 -0.0041 497.5577 -0.0041C225.5877 -0.0041 -0.0023 225.5859 -0.0023 498.0459C-0.0023 770.0159 226.0777 996.0959 498.0477 996.0959ZM498.0477 913.0859C267.5777 913.0859 83.4977 728.5159 83.4977 498.0459C83.4977 267.5759 267.0877 83.0059 497.5577 83.0059C728.0277 83.0059 913.0877 267.5759 913.0877 498.0459C913.0877 728.5159 728.5177 913.0859 498.0477 913.0859ZM315.9177 684.0859H368.1677C387.6977 684.0859 398.4377 674.3159 398.4377 654.2959V513.1859C401.8577 520.5059 408.2077 526.8559 417.9677 532.7159L650.8777 669.4359C659.6677 674.8059 667.9677 677.7359 677.2477 677.7359C694.8277 677.7359 709.4777 664.5459 709.4777 639.1559V358.3959C709.4777 333.0059 694.8277 319.8259 677.2477 319.8259C667.9677 319.8259 659.6677 322.7559 650.8777 328.1259L417.9677 464.8459C408.2077 470.7059 401.8577 477.0459 398.4377 484.3759V342.2859C398.4377 321.7759 387.6977 312.0159 368.1677 312.0159H315.9177C296.3877 312.0159 285.6477 322.2659 285.6477 342.2859V654.2959C285.6477 674.3159 296.3877 684.0859 315.9177 684.0859Z"/>
</svg>