<?xml version="1.0" encoding="UTF-8" standalone="no"?>
<svg xmlns="http://www.w3.org/2000/svg"
     width="912.109375" height="795.41015625"
     viewBox="0 0 912.109375 795.41015625"
     fill="currentColor">
  <path d="M64.9383 795.41H176.2683C218.7483 795.41 241.2083 772.95 241.2083 729.98V416.02C246.5783 436.52 261.7183 454.1 288.0883 470.21L785.6483 762.7C805.6683 774.41 821.7783 780.76 841.7983 780.76C880.3683 780.76 912.1083 751.95 912.1083 697.27V97.66C912.1083 42.97 880.3683 13.67 841.7983 13.67C821.7783 13.67 805.6683 20.02 785.6483 31.74L288.0883 324.71C261.7183 340.33 246.5783 358.4 241.2083 378.42V64.94C241.2083 20.51 218.7483 0 176.2683 0H64.9383C22.4583 0 -0.0017 22.46 -0.0017 64.94V729.98C-0.0017 772.95 22.4583 795.41 64.9383 795.41Z"/>
</svg>