<?xml version="1.0" encoding="UTF-8" standalone="no"?>
<svg xmlns="http://www.w3.org/2000/svg"
     width="1425.29296875" height="806.640625"
     viewBox="0 0 1425.29296875 806.640625"
     fill="currentColor">
  <path d="M41.5083 806.6411C64.9383 806.6411 83.4983 789.0611 83.4983 766.1111V422.3611C88.8683 442.3811 104.0083 460.4511 130.3683 476.0711L627.9283 769.0411C647.9483 780.7611 664.0583 787.1111 684.0783 787.1111C722.6583 787.1111 754.3983 757.8111 754.3983 703.1211V422.3611C759.7683 442.3811 774.8983 460.4511 801.2683 476.0711L1298.8283 769.0411C1318.8483 780.7611 1334.9583 787.1111 1354.9783 787.1111C1393.5583 787.1111 1425.2883 757.8111 1425.2883 703.1211V103.5111C1425.2883 48.8311 1393.5583 19.5311 1354.9783 19.5311C1334.9583 19.5311 1318.8483 25.8811 1298.8283 37.6011L801.2683 330.5711C774.8983 346.1911 759.7683 364.2611 754.3983 384.2811V103.5111C754.3983 48.8311 722.6583 19.5311 684.0783 19.5311C664.0583 19.5311 647.9483 25.8811 627.9283 37.6011L130.3683 330.5711C104.0083 346.1911 88.8683 364.2611 83.4983 384.2811V41.0111C83.4983 18.0711 64.9383 0.0011 41.5083 0.0011C18.5583 0.0011 -0.0017 18.0711 -0.0017 41.0111V766.1111C-0.0017 789.0611 18.5583 806.6411 41.5083 806.6411ZM663.0883 696.7811C659.6683 696.7811 655.7583 695.3111 650.8783 692.3811L187.0083 416.9911C180.1783 413.0811 176.2683 409.6711 176.2683 403.3211C176.2683 396.4811 179.6883 393.5511 187.0083 389.6511L650.8783 114.2611C655.7583 111.3311 659.6683 109.8611 663.0883 109.8611C669.9183 109.8611 676.2683 114.7411 676.2683 124.5111V682.1311C676.2683 691.8911 669.9183 696.7811 663.0883 696.7811ZM1333.9883 696.7811C1330.5683 696.7811 1326.6583 695.3111 1321.7783 692.3811L857.9083 416.9911C851.0783 413.0811 847.1683 409.6711 847.1683 403.3211C847.1683 396.4811 850.5883 393.5511 857.9083 389.6511L1321.7783 114.2611C1326.6583 111.3311 1330.5683 109.8611 1333.9883 109.8611C1340.8183 109.8611 1347.1683 114.7411 1347.1683 124.5111V682.1311C1347.1683 691.8911 1340.8183 696.7811 1333.9883 696.7811Z"/>
</svg>