<?xml version="1.0" encoding="UTF-8" standalone="no"?>
<svg xmlns="http://www.w3.org/2000/svg"
     width="803.2603230457587" height="1224.609375"
     viewBox="0 0 803.2603230457587 1224.609375"
     fill="currentColor">
  <path d="M252.4571 1224.6061H550.7971C720.7171 1224.6061 804.7071 1138.6761 803.2371 966.7961C801.2871 770.5061 800.3071 627.9261 795.4271 520.9961C784.1971 272.9461 726.5771 163.0861 560.0771 127.9261C549.8271 53.2261 486.8371 -0.0039 401.8771 -0.0039C316.4271 -0.0039 253.9271 53.2261 243.6671 127.9261C76.6771 163.0861 19.0571 272.4561 7.8271 520.9961C2.9471 627.9261 1.9671 770.5061 0.0171 966.7961C-1.4429 1138.6761 82.5371 1224.6061 252.4571 1224.6061ZM401.8771 114.2561C371.5971 114.2561 343.7671 115.2361 317.3971 117.1861C330.5871 87.8861 361.8371 68.8461 401.8771 68.8461C441.9171 68.8461 473.1671 87.8861 485.8571 117.1861C459.9771 115.2361 431.6571 114.2561 401.8771 114.2561ZM252.4571 1152.8361C123.0671 1152.8361 70.8171 1099.6061 71.7971 967.7761C73.7471 771.4861 75.2171 629.8861 80.0971 524.4161C92.3071 248.0461 150.8971 186.5261 401.8771 186.5261C652.3671 186.5261 710.9571 248.0461 723.6471 524.4161C728.0471 629.8861 729.5071 771.4861 731.4671 967.7761C732.4371 1099.6061 680.1971 1152.8361 550.7971 1152.8361ZM241.2271 1032.2261H562.5171C606.4671 1032.2261 635.2771 1003.4161 635.2771 959.9561V712.4061C635.2771 668.4561 606.4671 639.6461 562.5171 639.6461H241.2271C197.2871 639.6461 167.9871 668.9461 167.9871 712.4061V959.9561C167.9871 1002.9261 197.2871 1032.2261 241.2271 1032.2261ZM236.8371 724.1161C236.8371 714.3561 243.1871 708.0061 252.9471 708.0061H550.3071C560.0771 708.0061 566.4271 714.3561 566.4271 724.1161V770.5061H236.8371ZM252.9471 963.8661C243.1871 963.8661 236.8371 957.5161 236.8371 948.2461V832.0361H566.4271V948.2461C566.4271 957.5161 560.0771 963.8661 550.3071 963.8661Z"/>
</svg>