<?xml version="1.0" encoding="UTF-8" standalone="no"?>
<svg xmlns="http://www.w3.org/2000/svg"
     width="996.09375" height="996.09375"
     viewBox="0 0 996.09375 996.09375"
     fill="currentColor">
  <path d="M498.0477 996.0959C770.5077 996.0959 996.0977 770.0159 996.0977 498.0459C996.0977 225.5859 770.0177 -0.0041 497.5577 -0.0041C225.5877 -0.0041 -0.0023 225.5859 -0.0023 498.0459C-0.0023 770.0159 226.0777 996.0959 498.0477 996.0959ZM498.0477 913.0859C267.5777 913.0859 83.4977 728.5159 83.4977 498.0459C83.4977 267.5759 267.0877 83.0059 497.5577 83.0059C728.0277 83.0059 913.0877 267.5759 913.0877 498.0459C913.0877 728.5159 728.5177 913.0859 498.0477 913.0859ZM352.5377 737.3059H651.3677C697.2677 737.3059 723.6377 710.9359 723.6377 659.1759V395.5059C723.6377 343.2659 696.7777 317.3859 643.5577 317.3859H603.0277C602.0477 263.6759 555.6677 218.2659 498.0477 218.2659C440.4277 218.2659 394.0477 263.6759 393.0677 317.3859H352.5377C299.3177 317.3859 272.4577 343.2659 272.4577 395.5059V659.1759C272.4577 711.4259 299.3177 737.3059 352.5377 737.3059ZM439.9377 317.3859C441.4077 283.6959 463.3777 262.6959 498.0477 262.6959C532.7177 262.6959 554.6877 283.6959 556.1477 317.3859Z"/>
</svg>