<?xml version="1.0" encoding="UTF-8" standalone="no"?>
<svg xmlns="http://www.w3.org/2000/svg"
     width="996.09375" height="996.09375"
     viewBox="0 0 996.09375 996.09375"
     fill="currentColor">
  <path d="M498.0477 996.0977C770.5077 996.0977 996.0977 770.5077 996.0977 498.0477C996.0977 226.0777 770.0177 -0.0023 497.5577 -0.0023C225.5877 -0.0023 -0.0023 226.0777 -0.0023 498.0477C-0.0023 770.5077 226.0777 996.0977 498.0477 996.0977ZM348.1477 745.6077C292.9677 745.6077 265.1377 718.7477 265.1377 665.0377V393.0677C265.1377 338.8677 292.9677 312.4977 348.1477 312.4977H389.6477C390.6277 256.8377 438.4777 209.9577 498.0477 209.9577C557.6177 209.9577 605.4677 256.8377 606.4477 312.4977H647.9477C703.1277 312.4977 730.9577 339.3577 730.9577 393.0677V665.0377C730.9577 718.7477 703.6177 745.6077 656.2477 745.6077ZM438.4777 312.4977H557.6177C556.1477 278.3177 533.6877 256.3477 498.0477 256.3477C462.3977 256.3477 439.9377 278.3177 438.4777 312.4977Z"/>
</svg>