<?xml version="1.0" encoding="UTF-8" standalone="no"?>
<svg xmlns="http://www.w3.org/2000/svg"
     width="996.09375" height="996.09375"
     viewBox="0 0 996.09375 996.09375"
     fill="currentColor">
  <path d="M498.0477 996.0959C770.5077 996.0959 996.0977 770.0159 996.0977 498.0459C996.0977 225.5859 770.0177 -0.0041 497.5577 -0.0041C225.5877 -0.0041 -0.0023 225.5859 -0.0023 498.0459C-0.0023 770.0159 226.0777 996.0959 498.0477 996.0959ZM498.0477 913.0859C267.5777 913.0859 83.4977 728.5159 83.4977 498.0459C83.4977 267.5759 267.0877 83.0059 497.5577 83.0059C728.0277 83.0059 913.0877 267.5759 913.0877 498.0459C913.0877 728.5159 728.5177 913.0859 498.0477 913.0859ZM505.3677 786.1359C519.0477 786.1359 529.2977 776.3659 529.2977 762.2059V729.4959H535.6477C626.4677 729.4959 684.0777 679.6859 684.0777 600.5859C684.0777 545.4059 651.3677 504.3959 600.5877 489.2559C636.2277 471.6759 661.6177 433.1059 661.6177 391.6059C661.6177 324.2159 610.8377 275.3859 535.6477 275.3859H529.2977V238.2859C529.2977 224.6059 519.0477 214.8459 505.3677 214.8459C492.1877 214.8459 481.9377 224.6059 481.9377 238.2859V275.3859H408.6877C386.2277 275.3859 370.1177 291.0159 370.1177 313.9659V691.4059C370.1177 713.8659 385.7377 729.4959 408.6877 729.4959H481.9377V762.2059C481.9377 776.3659 492.1877 786.1359 505.3677 786.1359ZM432.6177 467.2859L433.1077 332.0359H481.9377V467.2859ZM529.2977 464.8459V333.0059C574.7077 336.9159 599.1177 358.8859 599.1177 396.4859C599.1177 434.5659 575.6877 458.4959 529.2977 464.8459ZM433.1077 672.3659V523.9259H481.9377V671.8759ZM529.2977 671.3859V524.4159C590.8177 527.8359 621.5777 552.7359 621.5777 598.1459C621.5777 644.0459 590.8177 668.9459 529.2977 671.3859Z"/>
</svg>