<?xml version="1.0" encoding="UTF-8" standalone="no"?>
<svg xmlns="http://www.w3.org/2000/svg"
     width="587.890625" height="1092.7734375"
     viewBox="0 0 587.890625 1092.7734375"
     fill="currentColor">
  <path d="M60.5483 981.9327H219.2383V1060.5427C219.2383 1078.1227 233.8883 1092.7727 251.4683 1092.7727C269.0383 1092.7727 283.1983 1078.1227 283.1983 1060.5427V981.9327H295.4083C478.0283 981.9327 587.8883 892.5827 587.8883 743.1627C587.8883 625.4927 507.3283 543.9427 388.1883 529.2927V525.3927C477.0483 509.2727 543.4583 426.2727 543.4583 333.0127C543.4583 204.5927 443.3583 119.1427 294.4383 119.1427H283.1983V32.2227C283.1983 14.6527 269.0383 0.0027 251.4683 0.0027C233.8883 0.0027 219.2383 14.6527 219.2383 32.2227V119.1427H60.5483C23.9283 119.1427 -0.0017 143.0627 -0.0017 179.6827V921.3827C-0.0017 958.0127 23.9283 981.9327 60.5483 981.9327ZM93.2583 201.1727H219.2383V496.0927H93.2583ZM450.1983 342.7727C450.1983 431.6427 389.6483 484.8627 283.1983 494.6327V201.6627C387.6983 204.5927 450.1983 254.8827 450.1983 342.7727ZM93.2583 899.9027V578.6127H219.2383V899.9027ZM493.1683 739.2627C493.1683 843.2627 417.4783 898.9227 283.1983 899.9027V578.6127C418.9483 582.5227 493.1683 637.2027 493.1683 739.2627Z"/>
</svg>