<?xml version="1.0" encoding="UTF-8" standalone="no"?>
<svg xmlns="http://www.w3.org/2000/svg"
     width="898.92578125" height="898.92578125"
     viewBox="0 0 898.92578125 898.92578125"
     fill="currentColor">
  <path d="M153.3183 898.9295H745.6083C848.1483 898.9295 898.9283 848.1495 898.9283 747.5595V151.3695C898.9283 50.7795 848.1483 -0.0005 745.6083 -0.0005H153.3183C51.2683 -0.0005 -0.0017 50.2895 -0.0017 151.3695V747.5595C-0.0017 848.6295 51.2683 898.9295 153.3183 898.9295ZM154.2983 820.3095C105.4683 820.3095 78.6183 794.4295 78.6183 743.6495V155.2695C78.6183 104.4895 105.4683 78.6095 154.2983 78.6095H744.6283C792.9683 78.6095 820.3083 104.4895 820.3083 155.2695V743.6495C820.3083 794.4295 792.9683 820.3095 744.6283 820.3095ZM457.5183 736.8195C471.1883 736.8195 481.4483 727.0495 481.4483 712.8895V680.1795H487.7883C578.6183 680.1795 636.2283 630.3695 636.2283 551.2695C636.2283 496.0895 603.5183 455.0795 552.7383 439.9395C588.8683 422.3595 614.2583 383.7895 614.2583 342.2895C614.2583 274.8995 562.9883 226.0695 487.7883 226.0695H481.4483V188.9695C481.4483 175.2895 471.1883 165.5295 457.5183 165.5295C444.3383 165.5295 434.0783 175.2895 434.0783 188.9695V226.0695H360.8383C338.3783 226.0695 322.2683 241.6995 322.2683 264.6495V642.0895C322.2683 664.5495 337.8883 680.1795 360.8383 680.1795H434.0783V712.8895C434.0783 727.0495 444.3383 736.8195 457.5183 736.8195ZM385.2583 417.9695V282.7195H434.0783V417.9695ZM481.4483 415.5295V283.6895C526.8583 287.5995 551.2683 309.5695 551.2683 347.1695C551.2683 385.2495 527.8283 409.1795 481.4483 415.5295ZM385.2583 623.0495V474.6095H434.0783V622.5595ZM481.4483 622.0695V475.0995C542.9683 478.5195 573.7283 503.4195 573.7283 548.8295C573.7283 594.7295 542.9683 619.6295 481.4483 622.0695Z"/>
</svg>