<?xml version="1.0" encoding="UTF-8" standalone="no"?>
<svg xmlns="http://www.w3.org/2000/svg"
     width="939.453125" height="1335.44921875"
     viewBox="0 0 939.453125 1335.44921875"
     fill="currentColor">
  <path d="M248.0483 1335.4495C265.6283 1335.4495 279.7883 1321.2895 279.7883 1304.6895C279.7883 1211.4295 361.8183 1198.7295 361.8183 1105.9595C361.8183 1015.6295 294.4383 1004.3895 284.1783 935.5495H308.1083C331.0583 935.5495 340.3283 916.9895 335.4483 899.4095L321.2883 845.6995C387.2083 826.1695 443.3583 773.9295 479.4883 702.6395C501.4683 717.2895 524.8983 728.9995 549.3183 736.8195L532.2283 802.2495C526.3683 821.7795 537.5983 842.7695 562.4983 842.7695H587.8883C596.1883 958.4995 681.1483 980.9595 681.1483 1053.2195C681.1483 1130.8595 583.4983 1142.5795 583.4983 1293.4595C583.4983 1312.4995 598.6283 1328.6095 617.6783 1328.6095C636.7183 1328.6095 652.8283 1312.4995 652.8283 1293.4595C652.8283 1186.5195 749.9983 1161.6195 749.9983 1053.2195C749.9983 949.7095 668.4583 924.3195 657.7183 842.7695H685.0583C709.9583 842.7695 720.6983 821.7795 715.3283 802.2495L697.7583 736.8195C837.8883 692.8695 939.4483 525.3895 939.4483 324.2195C939.4483 139.1595 810.0583 -0.0005 623.5383 -0.0005C467.7783 -0.0005 352.5383 97.1695 318.8483 236.8195C301.2683 233.3995 282.2283 230.9595 262.2083 230.9595C107.4183 230.9595 -0.0017 350.0995 -0.0017 503.9095C-0.0017 661.6195 76.1683 795.8995 185.5483 839.3595L169.9183 899.4095C164.5483 916.9895 174.8083 935.5495 197.2683 935.5495H222.1683C229.4883 1035.1595 300.7783 1043.9495 300.7783 1105.9595C300.7783 1170.8995 218.2583 1171.8795 218.2583 1304.6895C218.2583 1321.2895 230.9583 1335.4495 248.0483 1335.4495ZM623.5383 674.8095C487.3083 674.8095 382.3283 515.6295 382.3283 324.2195C382.3283 184.5695 481.9383 73.7295 623.5383 73.7295C765.1383 73.7295 865.7183 184.5695 865.7183 324.2195C865.7183 515.6295 759.2783 674.8095 623.5383 674.8095ZM74.2183 503.9095C74.2183 393.5595 150.8783 304.6895 262.2083 304.6895C278.8083 304.6895 294.4383 307.1295 309.0783 310.5495C308.5983 314.9395 308.5983 319.8195 308.5983 324.2195C308.5983 456.5395 352.0483 573.7295 421.8783 651.3695C388.6683 728.9995 330.5683 779.7895 262.2083 779.7895C155.2783 779.7895 74.2183 656.2495 74.2183 503.9095Z"/>
</svg>