<?xml version="1.0" encoding="UTF-8" standalone="no"?>
<svg xmlns="http://www.w3.org/2000/svg"
     width="1002.9783434225493" height="1003.4965488551836"
     viewBox="0 0 1002.9783434225493 1003.4965488551836"
     fill="currentColor">
  <path d="M842.2718 513.3786L920.8818 427.9286C1027.3318 312.2086 1030.2618 175.4886 929.6718 73.9286C828.6018 -28.1214 690.4118 -23.7314 575.1818 82.2286L490.2218 160.8386C532.2118 148.6286 577.6218 158.3986 625.4718 206.2486L803.2118 383.9886C851.0618 431.3486 854.4818 470.8986 842.2718 513.3786ZM424.7918 748.7286C473.6218 797.5586 520.9818 799.0186 570.7918 748.7286L748.5218 570.5086C799.3018 520.2186 798.3218 473.8286 749.5018 424.9986L578.1118 253.6086C529.2818 204.7886 482.8918 203.8086 432.6018 254.5886L254.3818 432.3186C204.5718 482.6186 205.5518 529.4886 254.3818 578.3186ZM469.7118 431.3486C451.1618 412.7886 451.1618 383.9886 468.7318 365.9186C487.2918 347.3586 515.6118 347.3586 534.1618 365.9186C552.2318 383.9886 552.7218 412.3086 533.6818 431.3486C516.1018 448.4386 486.8018 448.4386 469.7118 431.3486ZM366.2018 534.3786C347.6418 515.8186 347.6418 487.4986 366.2018 468.9486C384.7518 450.3886 413.0718 450.8786 431.6318 469.4286C448.7218 487.0086 449.2018 515.8186 431.6318 533.3986C412.0918 552.9286 383.7718 551.9486 366.2018 534.3786ZM637.1918 534.3786C619.1318 551.9486 590.3218 551.9486 571.7618 533.3986C554.6718 516.3086 554.6718 487.0086 571.7618 469.4286C590.8118 450.3886 619.1318 450.8786 637.1918 468.9486C655.7518 487.4986 655.7518 515.8186 637.1918 534.3786ZM73.7218 929.3986C174.3018 1031.4486 312.9718 1027.5386 427.7218 921.0886L512.1918 841.9886C469.7118 854.1986 426.7418 845.8986 378.8918 798.5386L201.1618 620.3086C153.3118 572.9486 148.9118 533.3986 161.1218 490.9186L82.0218 575.3886C-24.9182 690.6286 -26.8682 827.8286 73.7218 929.3986ZM468.7318 636.9086C451.1618 619.3386 450.1818 591.0186 469.7118 571.9686C487.2918 553.9086 516.1018 554.3986 533.6818 571.9686C552.2318 590.0386 552.7218 619.3386 534.1618 636.9086C515.1218 655.4686 487.2918 655.4686 468.7318 636.9086Z"/>
</svg>