<?xml version="1.0" encoding="UTF-8" standalone="no"?>
<svg xmlns="http://www.w3.org/2000/svg"
     width="1289.0625" height="807.12890625"
     viewBox="0 0 1289.0625 807.12890625"
     fill="currentColor">
  <path d="M-0.0017 768.0694C-0.0017 791.4994 15.6283 807.1294 39.0583 807.1294H1250.4883C1273.9283 807.1294 1289.0583 791.4994 1289.0583 768.0694V38.5694C1289.0583 15.1394 1273.9283 -0.0006 1250.4883 -0.0006H39.0583C15.6283 -0.0006 -0.0017 15.1394 -0.0017 38.5694ZM78.6183 714.3594V92.7694C78.6183 82.0294 82.5183 78.6094 92.7783 78.6094H1196.2883C1207.0283 78.6094 1210.4483 82.0294 1210.4483 92.7694V714.3594C1210.4483 724.6094 1207.0283 728.5194 1196.2883 728.5194H92.7783C82.5183 728.5194 78.6183 724.6094 78.6183 714.3594ZM131.3483 646.9694C131.3483 665.5294 141.5983 675.7794 159.6683 675.7794H1129.8783C1147.4583 675.7794 1158.1983 665.5294 1158.1983 646.9694V159.6694C1158.1983 141.5994 1147.4583 130.8594 1129.8783 130.8594H159.6683C141.5983 130.8594 131.3483 141.5994 131.3483 159.6694ZM180.6683 615.2294V191.4094C180.6683 184.0794 184.0783 180.1794 191.4083 180.1794H531.7383C486.8183 227.0494 457.5183 304.1994 457.5183 402.8294C457.5183 501.9494 486.8183 579.5894 531.7383 626.4694H191.4083C184.0783 626.4694 180.6683 622.5594 180.6683 615.2294ZM832.0283 402.8294C832.0283 304.1994 802.2483 227.0494 756.3483 180.1794H1097.6583C1104.9783 180.1794 1108.8883 184.0794 1108.8883 191.4094V615.2294C1108.8883 622.5594 1104.9783 626.4694 1097.6583 626.4694H756.3483C802.2483 579.5894 832.0283 501.9494 832.0283 402.8294ZM642.5783 618.1594C573.2383 618.1594 514.1583 535.6494 514.1583 402.8294C514.1583 270.5094 573.2383 188.4794 642.5783 188.4794C714.8483 188.4794 775.8783 270.5094 775.8783 402.8294C775.8783 535.6494 714.8483 618.1594 642.5783 618.1594Z"/>
</svg>