<?xml version="1.0" encoding="UTF-8" standalone="no"?>
<svg xmlns="http://www.w3.org/2000/svg"
     width="996.09375" height="996.09375"
     viewBox="0 0 996.09375 996.09375"
     fill="currentColor">
  <path d="M498.0477 996.0959C770.5077 996.0959 996.0977 770.0159 996.0977 498.0459C996.0977 225.5859 770.0177 -0.0041 497.5577 -0.0041C225.5877 -0.0041 -0.0023 225.5859 -0.0023 498.0459C-0.0023 770.0159 226.0777 996.0959 498.0477 996.0959ZM498.0477 929.6859C479.4877 929.6859 461.4277 928.2259 443.3577 926.2659C450.6877 897.9459 455.0777 869.6259 457.5177 840.8159L480.4677 841.3059C493.1677 841.7959 502.9277 831.5459 502.9277 819.3359C503.4177 807.6159 493.6477 797.3659 481.4477 796.8759L458.9877 796.3859C458.4977 766.1159 455.5677 735.8359 449.2177 706.0559L471.1877 700.6859C482.9077 697.2659 489.7477 685.0559 486.8177 673.3359C483.3977 661.1359 472.1677 653.8059 459.4777 657.2259L438.4777 662.5959C430.1777 633.2959 418.4577 604.4959 404.2977 576.6559L425.2977 564.9459C437.0077 558.5959 439.9377 544.9259 433.5977 534.6659C427.2477 523.9259 414.0577 519.5359 403.3177 525.8759L381.8377 538.0859C363.7677 510.2559 343.7477 485.3559 321.7777 462.4059L339.8477 443.8459C349.1177 434.5659 348.6377 420.8959 339.8477 413.0859C331.0577 403.8059 317.3877 402.8359 308.1077 412.1059L289.0577 431.1559C267.5777 412.5959 244.6277 395.9959 220.2177 381.3459L229.9777 363.2859C235.8377 352.5359 232.4177 339.3559 221.6777 333.9859C210.4477 327.6359 196.7777 330.5659 190.9177 341.7959L180.6677 360.3559C155.2777 347.6559 128.4177 337.4059 101.0777 329.5859C167.4777 175.7859 321.2877 66.4059 497.5577 66.4059C515.1377 66.4059 532.2277 67.3859 549.3177 69.3359C542.4777 97.6559 538.0877 125.9759 535.6477 155.2759L514.1577 154.2959C501.4677 154.7859 491.6977 164.5459 491.6977 177.2459C491.2077 189.4559 500.4877 199.2159 513.1877 199.2159L534.6677 199.7059C535.1577 228.5159 538.0877 256.8359 543.4577 285.1559L516.5977 291.9959C503.9077 295.4059 498.0477 307.6159 501.9577 319.3359C503.9077 331.5459 515.6277 338.3759 527.8277 334.9559L553.7077 328.6159C562.4977 358.8859 574.2177 389.1559 589.3577 417.9659L567.8677 430.1759C557.1277 436.0359 554.1977 449.7059 560.5477 460.4459C565.4277 470.7059 579.0977 475.5859 589.8477 468.7459L611.8177 456.5459C628.9077 483.3959 647.9477 507.8159 669.4377 530.2759L654.2977 545.4059C645.5077 553.7059 645.9977 567.8759 655.2777 576.1759C663.5777 584.4759 677.2477 584.9559 686.0377 576.1759L701.6577 561.0359C724.6077 581.0559 749.0277 598.6359 774.8977 613.7659L764.6477 632.8159C758.2977 643.5559 762.2077 657.2259 772.9477 663.0859C783.2077 668.9459 797.8477 665.5259 803.2277 654.2959L813.9677 634.7659C839.8477 647.4559 867.1877 657.7159 895.0177 665.5259C828.6177 819.8259 674.3177 929.6859 498.0477 929.6859ZM671.3877 422.3659C682.6177 416.0159 685.5477 403.8059 679.6877 392.0859C673.8277 381.8359 660.6477 376.9559 649.8977 383.7859L634.2777 392.5759C621.0977 367.6759 610.8377 341.7959 603.0277 315.9159L618.6477 312.0159C630.8577 308.5959 637.6977 296.8759 633.7877 285.1559C631.3477 272.9459 619.6277 265.6259 607.4177 269.0459L592.7777 272.4559C587.8877 249.0259 585.4477 225.0959 584.4777 201.1759L606.9377 201.6559C619.6277 202.1459 628.9077 192.8759 628.9077 180.1759C629.3977 167.9659 619.6277 157.7159 607.4177 157.2259L585.4477 156.7359C587.3977 130.3759 591.3077 104.0059 597.6577 78.1259C786.6177 124.5159 929.6877 296.8759 929.6877 498.0459C929.6877 540.0359 923.3377 580.5659 912.1077 619.6259C886.2277 612.3059 861.8177 603.0259 837.8877 591.3059L848.1477 572.7559C854.4877 561.5259 850.0977 548.8259 839.3577 541.9959C828.6177 536.6259 814.9377 540.0359 809.5677 550.7859L798.8277 570.3159C777.3477 557.1259 756.3477 541.9959 737.3077 524.9059L751.9577 510.2559C761.2277 500.4859 760.7377 486.8159 751.4677 478.0259C743.1677 469.7259 729.0077 469.2359 720.2177 478.5159L705.0777 493.6559C687.4977 474.6059 670.8977 453.6159 656.2477 431.1559ZM387.2077 838.8659L407.7177 839.3559C405.7577 865.7259 401.3677 891.6059 395.0177 916.9959C208.0077 870.1159 66.4077 698.2459 66.4077 498.0459C66.4077 455.5659 72.7577 414.5459 84.4777 375.9759C109.3777 382.8159 133.7877 392.5759 157.2277 403.8059L146.4877 423.8259C140.1377 435.0559 144.0477 448.7259 155.2777 454.1059C166.0177 460.4459 178.7077 457.0359 185.0577 445.7959L196.2877 425.2959C216.3077 437.9859 235.3477 452.1459 253.4177 467.7759L242.6777 479.0059C233.3977 487.7959 233.8877 502.4459 243.1677 510.2559C251.9577 519.0459 265.1377 519.5359 274.4177 510.7459L286.1377 498.5359C304.6877 518.0659 321.2877 540.0359 336.4277 562.9859L321.7777 571.2859C310.5477 577.6359 307.1277 591.7959 313.9677 602.0459C320.3077 612.7959 332.5177 616.6959 343.7477 610.8359L358.8877 602.0459C371.5777 625.9759 381.3477 650.3859 389.1577 675.2959L369.1377 680.6659C356.9377 683.5959 350.0977 695.7959 353.0277 707.5159C356.4477 719.7259 368.1677 727.0459 380.3677 724.1259L400.3877 718.7459C405.2777 744.1359 408.2077 769.5359 408.6877 794.9259L388.1877 794.4359C375.4877 793.9459 365.7277 804.1959 365.2377 816.4059C365.2377 828.6159 374.9977 838.3759 387.2077 838.8659Z"/>
</svg>