<?xml version="1.0" encoding="UTF-8" standalone="no"?>
<svg xmlns="http://www.w3.org/2000/svg"
     width="1143.5546875" height="1046.4070059891992"
     viewBox="0 0 1143.5546875 1046.4070059891992"
     fill="currentColor">
  <path d="M-0.0017 435.5712C-0.0017 481.9512 28.3183 510.2712 74.7083 510.2712H1068.3583C1114.7483 510.2712 1143.5583 481.9512 1143.5583 435.5712V411.6412C1143.5583 365.7412 1114.7483 336.4412 1068.3583 336.4412H973.6283L786.6183 19.5512C773.9283 -1.9288 750.4883 -3.3988 732.4183 5.3912C714.8483 15.1612 703.6183 35.6612 716.7983 59.1012L876.4683 336.4412H267.0883L426.7583 59.1012C439.9383 35.6612 429.1983 15.1612 411.1283 5.3912C393.5583 -3.8888 370.1183 -2.4188 356.9383 19.5512L169.9183 336.4412H74.7083C28.3183 336.4412 -0.0017 365.7412 -0.0017 411.6412ZM310.5483 1046.4112H833.0083C945.7983 1046.4112 980.9583 980.4912 995.1183 909.6912L1062.9883 577.1712H81.0583L148.4383 909.6912C162.5983 980.4912 197.7583 1046.4112 310.5483 1046.4112ZM342.2883 962.4212C323.7283 965.3512 310.0583 955.5912 307.1283 938.9812L265.1383 693.3812C262.2083 676.7812 272.9483 663.5912 291.5083 660.1812C310.0583 657.7312 324.2183 667.0112 327.1483 683.6112L368.6483 929.2212C371.0983 945.8212 361.3283 959.0012 342.2883 962.4212ZM801.2683 962.4212C782.2283 959.0012 772.4583 945.8212 774.8983 929.2212L816.4083 683.6112C819.3383 667.0112 833.4983 657.7312 852.0483 660.1812C870.6083 663.5912 881.3483 677.7512 878.4183 694.3512L836.4283 938.9812C833.4983 955.5912 819.3383 965.3512 801.2683 962.4212ZM497.0683 961.9312C478.5183 962.9112 464.8483 951.6812 463.8683 934.5912L447.7583 691.9112C446.7783 674.8212 458.9883 662.6212 477.0483 661.1512C496.0983 659.6912 508.7883 671.4112 510.2583 688.5012L526.3683 931.1712C527.3483 948.2612 515.1383 960.9612 497.0683 961.9312ZM647.4583 961.9312C628.9083 960.9612 616.6983 948.2612 617.6783 931.1712L633.7883 688.5012C635.2583 671.4112 647.9483 659.6912 666.9883 661.1512C685.0583 662.6212 697.2683 674.8212 696.2883 691.9112L680.1783 934.5912C679.1983 951.6812 665.5283 962.9112 647.4583 961.9312Z"/>
</svg>