<?xml version="1.0" encoding="UTF-8" standalone="no"?>
<svg xmlns="http://www.w3.org/2000/svg"
     width="996.09375" height="995.60546875"
     viewBox="0 0 996.09375 995.60546875"
     fill="currentColor">
  <path d="M307.6177 242.1877C331.5477 230.9577 356.4477 221.1877 381.8377 212.8877C380.8577 202.6377 379.8877 192.8677 379.8877 182.6177C379.8877 104.4877 421.8777 39.5477 487.3077 -0.0023C483.8877 -0.0023 481.4477 -0.0023 478.0277 -0.0023C423.3377 1.9577 370.1177 13.1877 321.2877 32.2277C308.1077 75.6877 298.3377 145.0177 307.6177 242.1877ZM437.0077 196.2877C498.0477 180.6677 562.0077 172.3677 628.4177 172.3677C727.5377 172.3677 826.1677 191.8977 914.5477 228.0277C843.7477 119.1377 731.9377 39.0577 601.5577 10.7377C498.5377 40.5277 433.5977 95.7077 436.0377 182.6177C436.0377 187.0077 436.5277 191.8977 437.0077 196.2877ZM208.0077 296.8777C223.6377 286.6177 239.7477 276.8577 255.8577 268.0677C245.6077 179.6877 249.5077 107.9077 264.6477 58.5977C210.4477 87.8877 162.5977 126.4677 122.0677 172.3677C170.8977 185.5477 198.2377 248.0477 208.0077 296.8777ZM0.4877 491.6977C43.4577 432.6177 97.6577 377.9277 156.7377 333.0077C156.2477 331.0577 156.2477 328.6177 155.7577 326.1677C153.8077 290.5277 130.8577 221.1877 89.3577 215.3277C36.1377 291.5077 3.4177 382.8077 -0.0023 480.9577C-0.0023 484.8677 -0.0023 488.2777 0.4877 491.6977ZM945.7977 713.3777C978.0277 647.4577 996.0977 574.7077 996.0977 497.5577C996.0977 431.1477 982.9077 367.1877 958.0077 309.5677C854.0077 255.3677 746.5777 228.5177 628.4177 228.5177C567.3877 228.5177 508.2977 235.8377 452.1477 249.9977C529.7877 410.6477 873.5377 482.9077 945.7977 713.3777ZM396.9777 266.1177C369.1377 275.8777 341.3077 287.1077 314.9377 300.2977C344.7277 484.3777 438.4777 738.7677 639.1577 974.6077C745.6077 942.8677 837.8877 875.4877 901.8577 786.1377C894.5277 545.8977 485.8377 474.1177 396.9777 266.1177ZM213.3777 360.3477C214.8477 583.4977 114.2577 839.3577 330.0777 963.3777C381.8377 983.8877 438.9677 995.6077 498.0477 995.6077C525.3877 995.6077 552.2477 993.6477 578.1277 989.2577C391.5977 761.7177 297.8477 516.5977 264.6477 327.1477C247.0677 337.3977 229.9777 348.1477 213.3777 360.3477ZM155.7577 405.7577C99.6077 455.5677 47.3677 515.1377 6.8377 580.0777C25.8777 691.4077 83.4977 791.5077 165.0377 865.7277C105.9577 727.0477 148.4377 554.1977 155.7577 405.7577Z"/>
</svg>