<?xml version="1.0" encoding="UTF-8" standalone="no"?>
<svg xmlns="http://www.w3.org/2000/svg"
     width="996.09375" height="996.09375"
     viewBox="0 0 996.09375 996.09375"
     fill="currentColor">
  <path d="M498.0477 996.0959C770.5077 996.0959 996.0977 770.0159 996.0977 498.0459C996.0977 225.5859 770.0177 -0.0041 497.5577 -0.0041C225.5877 -0.0041 -0.0023 225.5859 -0.0023 498.0459C-0.0023 770.0159 226.0777 996.0959 498.0477 996.0959ZM623.5377 182.6159C559.5677 182.6159 497.0677 190.4259 437.4977 206.0559C437.0077 201.6559 437.0077 196.7759 437.0077 192.3859C437.0077 138.1859 461.4277 96.1959 506.3477 66.4059C627.4377 68.8459 737.3077 123.0459 814.9377 207.5159C753.9077 190.9159 688.9677 182.6159 623.5377 182.6159ZM382.8077 192.3859C382.8077 202.1459 383.2977 211.9159 384.7677 221.6759C360.3477 229.9759 335.9377 239.7459 312.4977 250.4859C306.6377 190.9159 309.0777 141.6059 316.8977 106.9359C349.6077 91.3059 385.2577 79.5859 421.8777 73.2459C396.9777 106.9359 382.8077 147.4559 382.8077 192.3859ZM176.2677 211.9159C200.6877 184.5659 228.0277 160.6459 258.7877 140.1359C255.3677 178.2259 256.3477 224.1259 262.6977 275.3859C247.0677 284.1759 231.4477 293.4559 216.3077 303.2259C210.4477 272.9459 196.7777 236.8159 176.2677 211.9159ZM623.5377 236.8159C710.4477 236.8159 792.4777 251.9559 870.6077 282.2259C908.2077 346.1959 929.6877 419.9259 929.6877 498.0459C929.6877 549.3159 920.4077 598.6359 903.3177 644.5359C797.3677 468.7459 520.5077 397.9459 452.1477 257.8159C506.8377 243.6559 564.4577 236.8159 623.5377 236.8159ZM165.5277 331.5459C166.0177 333.9859 166.0177 335.9359 166.0177 338.3759C132.8077 363.7659 102.0477 391.6059 73.2377 421.8759C84.4777 361.3259 108.3977 304.6859 142.5777 255.3759C155.2777 276.3659 164.5477 310.0559 165.5277 331.5459ZM319.3377 306.1559C345.2177 293.4559 372.0677 282.7159 399.4177 273.4359C476.5577 453.1259 799.8077 527.8359 874.5077 707.5159C815.9177 810.5459 716.3077 888.6759 599.1177 917.4759C427.7377 700.6859 346.1877 473.6359 319.3377 306.1559ZM498.0477 929.6859C394.0477 929.6859 298.3377 891.6059 223.1477 829.1059C170.4077 699.2159 222.6577 522.9459 221.1877 364.2559C237.3077 353.0259 253.9077 342.2859 270.9977 332.0359C301.2677 502.4459 381.8377 720.7059 538.5777 927.7359C525.3877 929.1959 511.7177 929.6859 498.0477 929.6859ZM66.8977 512.6959C96.6777 474.6059 129.8877 439.4559 165.5277 408.2059C160.1577 516.6059 135.7377 637.6959 147.9477 748.5359C99.6077 681.1559 69.8277 600.0959 66.8977 512.6959Z"/>
</svg>