<?xml version="1.0" encoding="UTF-8" standalone="no"?>
<svg xmlns="http://www.w3.org/2000/svg"
     width="996.09375" height="996.09375"
     viewBox="0 0 996.09375 996.09375"
     fill="currentColor">
  <path d="M498.0477 996.0959C770.5077 996.0959 996.0977 770.0159 996.0977 498.0459C996.0977 225.5859 770.0177 -0.0041 497.5577 -0.0041C225.5877 -0.0041 -0.0023 225.5859 -0.0023 498.0459C-0.0023 770.0159 226.0777 996.0959 498.0477 996.0959ZM394.0477 355.4659C388.6677 304.1959 394.5277 267.5759 399.8977 246.5859C426.2677 236.8159 453.6177 229.9759 482.9077 228.5159C451.6577 250.9759 432.6177 284.6659 432.6177 323.7259C432.6177 329.5859 432.6177 334.9559 433.1077 339.3559C419.9177 344.2359 406.2477 349.6059 394.0477 355.4659ZM466.3077 330.5659C464.8477 277.3459 493.6477 251.4659 548.3377 232.4259C618.1677 246.0959 679.1977 287.5959 718.7477 344.2359C673.3377 326.1759 622.0677 317.3859 570.3077 317.3859C534.6677 317.3859 499.5077 321.2859 466.3077 330.5659ZM338.8677 385.2559C333.4977 360.3559 319.3377 328.6159 295.8977 320.3159C316.4077 297.3659 339.8477 278.3159 366.2077 263.1859C360.3477 289.0659 358.3977 325.6859 363.7677 370.6059C354.9777 374.9959 347.1677 380.3759 338.8677 385.2559ZM228.5177 485.8359C229.4877 440.9159 248.5377 385.2559 276.3677 345.2159C295.8977 351.0759 308.1077 385.2559 308.5977 406.7359C278.3177 430.1759 251.9577 456.0559 228.5177 485.8359ZM474.6077 361.8159C505.3677 354.0059 537.5977 350.0959 570.3077 350.0959C633.7877 350.0959 690.9177 364.2559 746.0977 392.5759C760.2577 425.2959 768.5577 460.9359 768.5577 498.0459C768.5577 538.0859 759.2777 575.1959 743.6477 609.3759C698.7277 487.3059 517.0877 447.7559 474.6077 361.8159ZM397.9477 389.6459C412.5977 382.8159 427.2477 376.4659 441.8977 371.5859C491.6977 484.3759 709.4777 524.9059 719.2377 651.8559C684.0777 702.1459 632.8077 739.7459 573.2377 757.3259C465.8177 627.9259 414.5477 490.2359 397.9477 389.6459ZM341.7977 422.8559C350.5877 416.9959 359.3777 411.1359 368.6477 405.7659C387.2077 509.2759 437.4977 641.1159 538.0877 765.6259C524.8977 767.5759 511.7177 768.0659 498.5377 768.0659C463.3777 768.0659 430.1777 759.7659 400.8777 745.6059C290.0377 677.7359 342.2877 542.4759 341.7977 422.8559ZM231.4477 539.0659C253.4177 505.3759 278.8077 476.0759 308.1077 449.7059C303.7077 526.8559 284.1777 616.2059 309.0777 688.9659C269.0477 649.4159 240.7277 596.6759 231.4477 539.0659Z"/>
</svg>