<?xml version="1.0" encoding="UTF-8" standalone="no"?>
<svg xmlns="http://www.w3.org/2000/svg"
     width="1292.96875" height="770.0787390895131"
     viewBox="0 0 1292.96875 770.0787390895131"
     fill="currentColor">
  <path d="M228.5183 767.5744C248.5383 775.3944 271.4883 764.1644 278.8083 744.1444L311.0383 656.2544C327.6383 657.7144 345.6983 658.6944 364.7483 658.6944H928.7083C947.2683 658.6944 965.3283 657.7144 981.9383 656.2544L1014.1583 744.1444C1021.4883 764.1644 1044.4383 775.3944 1064.9383 767.5744C1084.9583 760.7444 1095.2183 737.3044 1087.8883 717.2844L1059.5683 638.6744C1157.2283 603.0244 1207.5183 520.9944 1207.5183 394.0444V197.7544C1256.8383 191.4044 1292.9683 151.3644 1292.9683 99.6044C1292.9683 42.4844 1249.5083 0.0044 1193.8483 0.0044H99.1183C43.4583 0.0044 -0.0017 42.4844 -0.0017 99.6044C-0.0017 151.3644 36.6183 191.4044 85.4483 197.7544V394.0444C85.4483 520.9944 135.7383 603.0244 233.8883 638.6744L205.0783 717.2844C197.7583 737.3044 208.4983 760.7444 228.5183 767.5744ZM77.6383 99.6044C77.6383 85.9344 87.8883 76.1744 102.5383 76.1744H1190.4283C1205.0783 76.1744 1215.3283 85.9344 1215.3283 99.6044C1215.3283 112.7944 1205.0783 122.5544 1190.4283 122.5544H102.5383C87.8883 122.5544 77.6383 112.7944 77.6383 99.6044ZM364.7483 580.0744C232.4183 580.0744 164.0583 516.6044 164.0583 394.0444V198.7344H1128.9083V394.0444C1128.9083 516.6044 1060.5483 580.0744 928.7083 580.0744Z"/>
</svg>