<?xml version="1.0" encoding="UTF-8" standalone="no"?>
<svg xmlns="http://www.w3.org/2000/svg"
     width="1250.9765625" height="765.1959265895131"
     viewBox="0 0 1250.9765625 765.1959265895131"
     fill="currentColor">
  <path d="M-0.0017 63.473C-0.0017 98.633 28.3183 126.953 63.4783 126.953H1187.0083C1222.1683 126.953 1250.9783 98.633 1250.9783 63.473C1250.9783 28.323 1222.1683 0.003 1187.0083 0.003H63.4783C28.3183 0.003 -0.0017 28.323 -0.0017 63.473ZM207.0283 762.693C227.5383 770.503 250.4883 759.273 257.8083 739.253L290.0383 651.363C306.6383 652.833 324.7083 653.813 343.2583 653.813H907.2283C926.2683 653.813 943.8483 652.833 960.9383 651.363L992.6783 739.253C1000.4883 759.273 1023.4383 770.503 1043.4583 762.693C1063.4783 755.863 1074.2183 732.423 1066.8983 712.403L1038.0883 633.793C1136.2283 598.143 1186.5283 516.113 1186.5283 389.163V193.363H64.4483V389.163C64.4483 516.113 114.7483 598.143 212.3983 633.793L184.0783 712.403C176.7583 732.423 187.0083 755.863 207.0283 762.693Z"/>
</svg>