<?xml version="1.0" encoding="UTF-8" standalone="no"?>
<svg xmlns="http://www.w3.org/2000/svg"
     width="996.09375" height="996.09375"
     viewBox="0 0 996.09375 996.09375"
     fill="currentColor">
  <path d="M498.0477 996.0959C770.5077 996.0959 996.0977 770.0159 996.0977 498.0459C996.0977 225.5859 770.0177 -0.0041 497.5577 -0.0041C225.5877 -0.0041 -0.0023 225.5859 -0.0023 498.0459C-0.0023 770.0159 226.0777 996.0959 498.0477 996.0959ZM313.4777 654.7859C275.3877 654.7859 240.7277 651.3659 215.3277 626.9559C191.4077 602.0459 187.4977 567.3859 187.4977 530.2759V465.8159C187.4977 428.7059 191.4077 394.0459 215.3277 369.1359C240.7277 344.7259 275.8777 340.8159 313.4777 340.8159H651.8577C688.9677 340.8159 724.1177 344.7259 748.5377 369.1359C772.9477 394.0459 777.3477 428.7059 777.3477 465.8159V530.2759C777.3477 567.3859 772.9477 602.0459 748.5377 626.9559C724.1177 651.3659 689.4577 654.7859 651.8577 654.7859ZM306.6377 598.6359H658.2077C682.1277 598.6359 699.2177 594.2359 708.0077 585.4459C715.8177 577.6359 721.1877 560.5459 721.1877 536.1359V459.4759C721.1877 435.5459 715.8177 418.4559 708.0077 410.6459C699.2177 401.3659 681.6377 396.9759 658.2077 396.9759H306.6377C282.7177 396.9759 265.6277 401.3659 256.8377 410.1559C248.5377 417.9659 245.1177 434.5659 245.1177 459.4759V536.1359C245.1177 561.0359 248.5377 577.6359 256.8377 585.4459C265.6277 594.2359 282.2277 598.6359 306.6377 598.6359ZM309.0777 568.8459C295.8977 568.8459 287.1077 567.3859 281.7377 562.0159C276.8577 556.6359 274.4177 548.3359 274.4177 534.6659V460.4459C274.4177 446.7759 276.8577 438.9659 281.7377 433.1059C287.1077 428.2259 295.8977 426.2659 309.0777 426.2659H656.2477C669.9177 426.2659 677.7377 428.2259 683.1077 433.1059C688.9677 438.9659 691.4077 447.2659 691.4077 460.4459V534.6659C691.4077 547.8559 688.9677 556.1559 683.1077 562.0159C677.7377 567.3859 669.9177 568.8459 656.2477 568.8459ZM799.3177 557.6159V438.4759C816.8977 439.9459 841.7977 463.3759 841.7977 498.0459C841.7977 532.7159 816.8977 556.1559 799.3177 557.6159Z"/>
</svg>