<?xml version="1.0" encoding="UTF-8" standalone="no"?>
<svg xmlns="http://www.w3.org/2000/svg"
     width="1445.3125" height="660.64453125"
     viewBox="0 0 1445.3125 660.64453125"
     fill="currentColor">
  <path d="M260.2583 660.6472H1027.8283C1111.3283 660.6472 1181.6383 652.8272 1231.4483 603.0272C1281.2483 553.2272 1288.5783 483.8872 1288.5783 400.3872V260.2572C1288.5783 176.7572 1281.2483 107.4172 1231.4483 57.6172C1181.6383 7.8172 1111.3283 -0.0028 1027.8283 -0.0028H259.2783C177.2483 -0.0028 106.9383 7.8172 57.1283 57.6172C7.3283 107.4172 -0.0017 177.2472 -0.0017 258.7872V400.3872C-0.0017 483.8872 7.3283 553.2272 57.1283 603.0272C106.9383 652.8272 177.2483 660.6472 260.2583 660.6472ZM247.0683 582.0272C196.7783 582.0272 144.0383 575.1972 114.2583 545.8972C84.9583 516.1172 78.6183 463.8672 78.6183 413.5772V248.0472C78.6183 196.7772 84.9583 144.5272 114.2583 114.7472C144.0383 84.9572 197.2683 78.6172 248.5383 78.6172H1041.5083C1091.7983 78.6172 1144.5283 85.4472 1173.8283 114.7472C1203.6183 144.5272 1209.9583 196.2872 1209.9583 246.5772V413.5772C1209.9583 463.8672 1203.6183 516.1172 1173.8283 545.8972C1144.5283 575.1972 1091.7983 582.0272 1041.5083 582.0272ZM221.1883 525.3872H315.9183C349.6083 525.3872 369.1383 520.5072 382.8083 506.8372C396.4883 493.1672 401.3683 473.6372 401.3683 439.9372V220.7072C401.3683 187.0072 396.4883 167.4772 382.8083 153.8072C369.1383 140.1372 349.1183 135.2572 315.9183 135.2572H222.6583C187.9883 135.2572 167.9683 140.1372 154.2983 153.8072C141.1183 167.4772 135.7383 187.4972 135.7383 221.6772V439.9372C135.7383 473.6372 141.1183 493.1672 154.2983 506.8372C167.9683 520.5072 187.9883 525.3872 221.1883 525.3872ZM1354.9783 456.5472C1393.5583 454.0972 1445.3083 404.7872 1445.3083 330.0772C1445.3083 255.8572 1393.5583 206.5472 1354.9783 204.0972Z"/>
</svg>