<?xml version="1.0" encoding="UTF-8" standalone="no"?>
<svg xmlns="http://www.w3.org/2000/svg"
     width="1151.3671875" height="1057.008336600384"
     viewBox="0 0 1151.3671875 1057.008336600384"
     fill="currentColor">
  <path d="M1040.0383 1045.8408C1055.1783 1060.4908 1079.0983 1060.9708 1093.2583 1045.8408C1107.9083 1031.1908 1108.3983 1007.2608 1093.2583 992.6108L111.3283 11.1708C96.6783 -3.4792 72.7583 -3.9692 57.6183 11.1708C43.4583 25.3308 43.4583 49.7408 57.6183 64.3908ZM1119.6283 924.2608C1140.6283 901.7908 1151.3683 869.0808 1151.3683 826.1108V353.9408C1151.3683 253.3608 1100.5883 203.0608 998.0483 203.0608H930.6683V137.6308C930.6683 100.5208 909.1783 78.0608 871.5783 78.0608H727.5383C690.4283 78.0608 668.9483 100.5208 668.9483 137.6308V203.0608H482.9083V137.6308C482.9083 100.5208 461.4283 78.0608 423.8283 78.0608H286.1283C281.7383 78.0608 278.3183 79.5308 275.8783 81.4808L476.0783 281.6808H997.0683C1045.4083 281.6808 1072.7583 307.5608 1072.7583 358.3408V821.7208C1072.7583 839.7808 1066.8983 852.9708 1055.6683 860.7808ZM153.3183 976.9908H877.4383L798.8283 898.3808H154.2983C105.4683 898.3808 78.6183 872.5008 78.6183 821.7208V358.3408C78.6183 307.5608 105.4683 281.6808 154.2983 281.6808H180.6683L110.3483 211.3608H96.1883C32.2283 227.4808 -0.0017 274.8408 -0.0017 353.9408V826.1108C-0.0017 926.7008 51.2683 976.9908 153.3183 976.9908Z"/>
</svg>