<?xml version="1.0" encoding="UTF-8" standalone="no"?>
<svg xmlns="http://www.w3.org/2000/svg"
     width="1445.3125" height="661.0785590277777"
     viewBox="0 0 1445.3125 661.0785590277777"
     fill="currentColor">
  <path d="M441.4083 367.4042C441.4083 379.6142 451.6583 388.4042 464.3583 388.4042H629.3983L541.5083 625.7042C529.7883 656.9542 563.4783 674.0442 583.4983 649.1442L851.0783 312.7142C855.9583 306.3742 859.3783 300.0242 859.3783 293.6742C859.3783 281.4642 849.1183 272.6742 836.9183 272.6742H671.3883L759.2783 35.3742C770.9983 4.1242 737.7883 -12.9658 717.7783 11.9342L449.7083 347.8742C444.8283 354.7042 441.4083 361.0542 441.4083 367.4042ZM260.2583 660.8642H479.9783C470.6983 635.9542 473.6283 615.9442 485.8383 582.2442H247.0683C196.7783 582.2442 144.0383 575.4142 114.2583 546.1142C84.9583 516.3342 78.6183 464.0842 78.6183 413.7942V248.2642C78.6183 196.9942 84.9583 144.7442 114.2583 114.9642C144.0383 85.1742 197.2683 78.8342 248.5383 78.8342H578.6183L641.5983 0.2142H259.2783C177.2483 0.2142 106.9383 8.0342 57.1283 57.8342C7.3283 107.6342 -0.0017 177.4642 -0.0017 259.0042V400.6042C-0.0017 484.1042 7.3283 553.4442 57.1283 603.2442C106.9383 653.0442 177.2483 660.8642 260.2583 660.8642ZM659.1783 660.8642H1027.8283C1111.3283 660.8642 1181.6383 653.0442 1231.4483 603.2442C1281.2483 553.4442 1288.5783 484.1042 1288.5783 400.6042V260.4742C1288.5783 176.9742 1281.2483 107.6342 1231.4483 57.8342C1181.6383 8.0342 1111.3283 0.2142 1027.8283 0.2142H820.7983C829.0983 23.6542 826.6583 43.6742 814.9383 78.8342H1041.5083C1091.7983 78.8342 1144.5283 85.6642 1173.8283 114.9642C1203.6183 144.7442 1209.9583 196.5042 1209.9583 246.7942V413.7942C1209.9583 464.0842 1203.6183 516.3342 1173.8283 546.1142C1144.5283 575.4142 1091.7983 582.2442 1041.5083 582.2442H722.1683ZM221.1883 525.6042H507.3283L533.1983 455.2942H464.3583C415.0383 455.2942 374.9983 416.7242 374.9983 367.4042C374.9983 345.4342 383.2983 324.4342 396.9683 307.3442L533.6883 135.4742H222.6583C187.9883 135.4742 167.9683 140.3542 154.7883 154.0242C141.1183 167.6942 135.7383 187.7142 135.7383 221.8942V440.1542C135.7383 473.8542 141.1183 493.3842 154.7883 507.0542C168.4583 520.7242 187.9883 525.6042 221.1883 525.6042ZM767.0883 525.6042H1067.8683C1101.0783 525.6042 1120.6083 520.7242 1134.2783 507.0542C1147.9483 493.3842 1153.3183 473.8542 1153.3183 440.1542V220.9242C1153.3183 187.2242 1147.9483 167.6942 1134.2783 154.0242C1120.6083 140.3542 1101.0783 135.4742 1067.8683 135.4742H793.4583L767.5783 205.7842H836.9183C885.7383 205.7842 925.7783 243.8742 925.7783 293.6742C925.7783 315.6442 917.4783 336.6442 903.8083 353.7342ZM1354.9783 456.7642C1393.5583 454.3142 1445.3083 405.0042 1445.3083 330.2942C1445.3083 256.0742 1393.5583 206.7642 1354.9783 204.3142Z"/>
</svg>