<?xml version="1.0" encoding="UTF-8" standalone="no"?>
<svg xmlns="http://www.w3.org/2000/svg"
     width="1662.59765625" height="745.3995956879603"
     viewBox="0 0 1662.59765625 745.3995956879603"
     fill="currentColor">
  <path d="M1321.2883 461.7127C1386.2283 433.3927 1417.9683 358.1927 1389.6483 292.7627L1295.8983 78.8927C1266.5983 12.9727 1191.8983 -17.2973 1126.4683 10.0527C1061.0383 38.3727 1029.7883 115.0327 1058.1083 179.4827L1152.3483 393.3527C1180.6683 457.8027 1255.8583 489.5427 1321.2883 461.7127ZM341.3083 461.7127C406.7383 489.5427 481.9383 457.8027 510.2583 393.3527L604.4883 179.4827C632.8083 115.0327 601.5583 38.3727 536.1283 10.0527C470.6983 -17.2973 395.9983 12.9727 366.6983 78.8927L272.9483 292.7627C244.6283 358.1927 275.8783 433.3927 341.3083 461.7127ZM790.5283 324.9927C766.5983 244.9127 707.0283 206.8227 656.2483 163.8527C653.8083 175.5727 650.3883 186.3127 645.5083 197.5527L551.2683 411.4127C512.6983 498.8127 411.1283 539.8327 323.2383 503.2127C237.7883 465.1227 196.2883 368.4427 229.0083 282.9927C186.5283 334.2627 176.7583 412.3927 208.4983 500.7727C267.0883 663.8527 415.5283 694.6227 561.5283 637.4927L649.4183 602.8227C768.5583 555.4627 825.6883 444.6227 790.5283 324.9927ZM871.5783 324.9927C836.9183 444.6227 893.5583 555.4627 1013.1883 602.8227L1101.0783 637.4927C1247.0683 694.6227 1395.5083 663.8527 1453.6183 500.7727C1485.8383 412.3927 1476.0783 334.2627 1433.5983 282.9927C1466.3083 368.4427 1424.8083 465.1227 1338.8683 503.2127C1251.4683 539.8327 1149.8983 498.8127 1111.3283 411.4127L1017.0883 197.5527C1012.2083 186.3127 1008.7883 175.5727 1006.3483 163.8527C955.0783 206.8227 895.9983 244.9127 871.5783 324.9927ZM388.6683 423.6227C344.2383 423.6227 309.0783 388.4627 309.0783 343.5427C309.0783 299.1127 344.7283 263.4627 388.6683 263.4627C433.5983 263.4627 468.7483 299.1127 468.7483 343.5427C468.7483 388.4627 433.5983 423.6227 388.6683 423.6227ZM1273.9283 423.6227C1229.0083 423.6227 1193.8483 388.4627 1193.8483 343.5427C1193.8483 299.1127 1229.0083 263.4627 1273.9283 263.4627C1317.8683 263.4627 1353.5183 299.1127 1353.5183 343.5427C1353.5183 388.4627 1318.3583 423.6227 1273.9283 423.6227ZM388.6683 390.4227C416.0183 390.4227 435.5483 369.9127 435.5483 343.5427C435.5483 318.1527 416.0183 296.6727 388.6683 296.6727C362.3083 296.6727 342.2883 318.1527 342.2883 343.5427C342.2883 369.9127 362.3083 390.4227 388.6683 390.4227ZM1273.9283 390.4227C1300.2883 390.4227 1320.3083 369.9127 1320.3083 343.5427C1320.3083 318.1527 1300.2883 296.6727 1273.9283 296.6727C1246.5783 296.6727 1226.5583 318.1527 1226.5583 343.5427C1226.5583 369.9127 1246.5783 390.4227 1273.9283 390.4227ZM166.5083 515.9027C144.5283 456.3327 139.6483 397.7427 151.8583 340.1227C64.9383 364.0527 -0.0017 444.1327 -0.0017 538.8527C-0.0017 653.1127 91.7983 745.4027 205.0783 745.4027C256.8383 745.4027 303.7083 726.3527 339.8483 694.6227C261.2283 668.7427 199.2183 607.7027 166.5083 515.9027ZM1496.0983 515.9027C1462.8883 607.7027 1401.3683 668.7427 1322.7583 694.6227C1358.8883 726.3527 1405.7583 745.4027 1457.5183 745.4027C1570.7983 745.4027 1662.5983 653.1127 1662.5983 538.8527C1662.5983 444.1327 1597.6583 364.0527 1510.7383 340.1227C1522.9483 397.7427 1517.5783 456.3327 1496.0983 515.9027Z"/>
</svg>