<?xml version="1.0" encoding="UTF-8" standalone="no"?>
<svg xmlns="http://www.w3.org/2000/svg"
     width="1250" height="880.859375"
     viewBox="0 0 1250 880.859375"
     fill="currentColor">
  <path d="M-0.0023 431.1514C-0.0023 595.7014 78.1277 748.5314 240.2377 826.6614C317.3877 864.2614 416.5077 880.8614 553.7077 880.8614H696.2877C833.4977 880.8614 932.6177 864.2614 1009.7677 826.6614C1171.8777 748.5314 1249.9977 595.7014 1249.9977 431.1514C1249.9977 284.1814 1170.8977 131.8314 1009.7677 54.2014C932.6177 16.6014 833.4977 0.0014 696.2877 0.0014H553.7077C416.5077 0.0014 317.3877 16.6014 240.2377 54.2014C78.6177 131.8314 -0.0023 284.1814 -0.0023 431.1514ZM353.0277 97.6514C406.2477 84.9614 471.6777 78.6114 553.7077 78.6114H696.2877C824.2177 78.6114 910.6477 93.2614 975.5877 125.0014C1017.0877 145.0214 1052.7377 171.8714 1082.0277 203.6114H167.4777C214.3577 152.8314 277.8277 115.2314 353.0277 97.6514ZM78.6177 431.1514C78.6177 366.2114 96.6777 305.1714 129.8877 252.9314H1120.1177C1152.8277 305.1714 1171.3877 366.7014 1171.3877 431.1514C1171.3877 633.7914 1036.1377 778.8114 815.9177 796.3914C780.2777 800.2914 740.7277 802.2414 696.2877 802.2414H553.7077C425.7777 802.2414 339.3577 787.6014 274.4177 755.8614C149.8977 695.8014 78.6177 578.1214 78.6177 431.1514ZM625.4877 601.5614C680.1777 601.5614 725.0977 557.1314 725.0977 504.3914C725.0977 448.7314 679.1977 403.3214 625.4877 403.3214C605.4677 403.3214 587.8877 408.6914 571.2877 420.9014V341.8014L526.3677 361.3314V504.3914C526.3677 558.5914 569.3377 601.5614 625.4877 601.5614ZM625.4877 557.1314C595.7077 557.1314 571.2877 532.7114 571.2877 504.3914C571.2877 474.6114 596.1877 449.7114 625.4877 449.7114C654.7877 449.7114 679.1977 475.1014 679.1977 504.3914C679.1977 532.7114 654.7877 557.1314 625.4877 557.1314Z"/>
</svg>