<?xml version="1.0" encoding="UTF-8" standalone="no"?>
<svg xmlns="http://www.w3.org/2000/svg"
     width="1543.45703125" height="827.63671875"
     viewBox="0 0 1543.45703125 827.63671875"
     fill="currentColor">
  <path d="M-0.0023 414.0616C-0.0023 678.2216 188.4777 827.6416 521.9777 827.6416H1021.4877C1354.9777 827.6416 1543.4577 678.2216 1543.4577 414.0616C1543.4577 149.4116 1354.9777 0.0016 1021.4877 0.0016H521.9777C188.4777 0.0016 -0.0023 149.4116 -0.0023 414.0616ZM1118.6477 330.5616H424.3177C399.8977 330.5616 379.8877 343.7516 370.6077 364.2616H81.5477C104.9777 180.6616 260.7377 78.6116 521.9777 78.6116H1021.4877C1282.7177 78.6116 1438.4777 180.6616 1461.4277 364.2616H1172.8477C1164.0577 343.7516 1144.0477 330.5616 1118.6477 330.5616ZM78.6177 414.0616V413.5716H370.6077C379.8877 434.5716 399.8977 447.2616 424.3177 447.2616H1118.6477C1144.0477 447.2616 1164.0577 434.5716 1172.8477 413.5716H1464.8477C1464.8477 414.0616 1464.8477 414.0616 1464.8477 414.0616C1464.8477 628.9016 1305.1777 749.0216 1021.4877 749.0216H521.9777C237.7977 749.0216 78.6177 628.9016 78.6177 414.0616ZM771.4877 593.2616C798.8277 592.7716 821.2877 569.8216 821.2877 544.4316C821.2877 516.6016 798.8277 494.6316 771.4877 494.6316C744.1377 494.6316 721.6777 516.6016 721.6777 544.4316C721.6777 571.2916 744.1377 594.2416 771.4877 593.2616Z"/>
</svg>