<?xml version="1.0" encoding="UTF-8" standalone="no"?>
<svg xmlns="http://www.w3.org/2000/svg"
     width="841.24173645456" height="782.7911881138908"
     viewBox="0 0 841.24173645456 782.7911881138908"
     fill="currentColor">
  <path d="M358.8883 484.9396C427.2483 514.2396 506.3483 480.5496 536.1283 413.1596L634.7683 188.5496C664.5483 120.6796 631.8383 40.5996 563.4783 10.8196C494.6283 -18.4804 415.5283 13.7496 385.2583 83.0796L287.1083 307.6896C256.8383 376.0496 290.0383 455.1496 358.8883 484.9396ZM830.5683 341.3896C805.1783 257.3996 742.6783 217.3596 689.4483 172.4396C686.5283 184.6496 683.1083 195.8796 677.7383 207.5996L579.0983 432.2096C538.5783 524.4896 432.1283 566.9696 339.8483 528.3996C249.5083 488.8496 206.0583 387.2796 240.7183 297.4396C195.7983 351.1496 185.5483 433.1796 219.2383 525.9596C280.2783 697.3396 436.5283 729.5696 589.8483 669.5096L682.1283 632.8896C807.6183 583.5696 867.1883 467.3596 830.5683 341.3896ZM408.1983 444.8996C361.3283 444.8996 324.7083 407.7896 324.7083 360.9196C324.7083 314.5296 361.8183 276.9296 408.1983 276.9296C455.5683 276.9296 492.6783 314.5296 492.6783 360.9196C492.6783 407.7896 455.5683 444.8996 408.1983 444.8996ZM408.1983 410.2296C437.0083 410.2296 457.5183 388.2596 457.5183 360.9196C457.5183 334.0596 437.0083 311.5996 408.1983 311.5996C380.3683 311.5996 359.3783 334.0596 359.3783 360.9196C359.3783 388.2596 380.3683 410.2296 408.1983 410.2296ZM174.8083 542.0696C151.8583 479.5696 146.4883 418.0496 159.6683 357.4996C67.8683 382.3996 -0.0017 466.3896 -0.0017 566.4796C-0.0017 686.1096 96.6783 782.7896 215.3283 782.7896C269.5283 782.7896 319.3383 763.2596 356.9383 729.5696C274.4183 702.7096 209.4683 638.7496 174.8083 542.0696Z"/>
</svg>