<?xml version="1.0" encoding="UTF-8" standalone="no"?>
<svg xmlns="http://www.w3.org/2000/svg"
     width="1250" height="898.92578125"
     viewBox="0 0 1250 898.92578125"
     fill="currentColor">
  <path d="M63.9677 211.9178H1186.0377C1146.4877 146.4878 1087.8877 91.3078 1009.7677 54.1978C932.6177 16.1178 833.4977 -0.0022 696.2877 -0.0022H553.7077C416.5077 -0.0022 317.3877 16.1178 240.2377 54.1978C162.1077 91.3078 103.5177 146.4878 63.9677 211.9178ZM553.7077 898.9278H696.2877C833.4977 898.9278 932.6177 882.3278 1009.7677 844.7278C1171.8777 766.5978 1249.9977 613.7678 1249.9977 449.2178C1249.9977 383.2978 1237.3077 319.3378 1211.9177 261.2278H38.0877C12.6977 319.3378 -0.0023 383.2978 -0.0023 449.2178C-0.0023 613.7678 78.1277 766.5978 240.2377 844.7278C317.3877 882.3278 416.5077 898.9278 553.7077 898.9278ZM625.4877 628.4178C567.3877 628.4178 523.4377 584.4678 523.4377 528.3178V380.8578L569.3377 360.8378V442.3778C586.9177 429.6878 604.9777 424.3178 625.4877 424.3178C680.6677 424.3178 728.0277 471.1878 728.0277 528.3178C728.0277 583.0078 682.1277 628.4178 625.4877 628.4178ZM625.4877 583.0078C655.7577 583.0078 680.6677 557.6178 680.6677 528.3178C680.6677 498.0478 655.7577 472.1678 625.4877 472.1678C595.2177 472.1678 569.3377 497.5578 569.3377 528.3178C569.3377 557.6178 594.7277 583.0078 625.4877 583.0078Z"/>
</svg>