<?xml version="1.0" encoding="UTF-8" standalone="no"?>
<svg xmlns="http://www.w3.org/2000/svg"
     width="1196.2890625" height="949.21875"
     viewBox="0 0 1196.2890625 949.21875"
     fill="currentColor">
  <path d="M318.8483 949.2202H392.5783V541.5002C419.4383 540.0402 436.0383 525.3902 436.0383 498.0502V416.0202C515.6283 383.7902 571.7783 305.6602 571.7783 215.8202C571.7783 96.6802 472.6583 0.0002 355.4683 0.0002C334.4683 0.0002 315.4283 1.9502 298.8283 7.3202V129.3902C315.4283 117.1902 334.9583 110.3502 355.4683 110.3502C411.6183 110.3502 459.4683 158.6902 459.4683 215.8202C459.4683 271.9702 412.5983 318.3602 355.4683 318.3602C297.3683 318.3602 251.9483 273.4402 251.9483 215.8202V25.3902C183.1083 64.4502 139.6483 135.2502 139.6483 215.8202C139.6483 307.1302 195.7983 384.7702 275.3883 416.5002V498.0502C275.3883 525.3902 292.4783 540.0402 318.8483 541.5002ZM877.4383 949.2202V541.5002C903.8083 540.0402 920.8983 525.3902 920.8983 498.0502V416.0202C1000.4883 383.7902 1056.6383 305.6602 1056.6383 215.8202C1056.6383 96.6802 957.5183 0.0002 840.3283 0.0002C819.3383 0.0002 800.2883 1.9502 783.6883 7.3202V129.3902C800.2883 117.1902 819.8283 110.3502 840.3283 110.3502C896.4883 110.3502 944.3383 158.6902 944.3383 215.8202C944.3383 271.9702 897.4583 318.3602 840.3283 318.3602C782.2283 318.3602 736.8183 273.4402 736.8183 215.8202V25.3902C667.9683 64.4502 624.5083 135.2502 624.5083 215.8202C624.5083 307.1302 680.1783 384.7702 760.2583 416.5002V498.0502C760.2583 525.3902 776.3683 540.0402 803.7083 541.5002V949.2202ZM102.0483 216.3102C102.0483 130.8602 144.5283 55.6602 208.9883 9.7702C90.3283 11.7202 -0.0017 100.5902 -0.0017 216.3102C-0.0017 331.0502 88.8683 420.4102 208.9883 422.8502C144.5283 376.9502 102.0483 301.7602 102.0483 216.3102ZM1094.2383 216.3102C1094.2383 301.7602 1051.7583 376.9502 987.3083 422.8502C1105.4683 420.4102 1196.2883 332.0302 1196.2883 216.3102C1196.2883 101.5602 1106.9383 11.7202 987.3083 9.7702C1051.7583 55.6602 1094.2383 130.8602 1094.2383 216.3102ZM355.4683 272.9502C386.2283 272.9502 412.1083 246.0902 412.1083 215.8202C412.1083 186.5202 385.2583 159.1802 355.4683 159.1802C325.6883 159.1802 299.3183 185.5502 299.3183 215.8202C299.3183 246.5802 324.7083 272.9502 355.4683 272.9502ZM840.3283 272.9502C871.0983 272.9502 896.9683 246.0902 896.9683 215.8202C896.9683 186.5202 870.1183 159.1802 840.3283 159.1802C810.5483 159.1802 784.1783 185.5502 784.1783 215.8202C784.1783 246.5802 809.5683 272.9502 840.3283 272.9502Z"/>
</svg>