<?xml version="1.0" encoding="UTF-8" standalone="no"?>
<svg xmlns="http://www.w3.org/2000/svg"
     width="1543.45703125" height="827.63671875"
     viewBox="0 0 1543.45703125 827.63671875"
     fill="currentColor">
  <path d="M2.4377 370.6016H371.0977C379.8877 350.1016 399.8977 336.9116 424.3177 336.9116H1118.6477C1143.0677 336.9116 1163.5777 350.1016 1172.3677 370.6016H1541.0177C1516.5977 126.9516 1338.3777 0.0016 1021.4877 0.0016H521.9777C205.5677 0.0016 27.3477 126.9516 2.4377 370.6016ZM1021.4877 827.6416C1356.9377 827.6416 1539.5477 685.5516 1543.4577 419.9216H1172.3677C1163.5777 440.4316 1143.0677 453.6116 1118.6477 453.6116H424.3177C399.8977 453.6116 379.8877 440.4316 371.0977 419.9216H-0.0023C3.4177 676.2716 197.7577 827.6416 521.9777 827.6416ZM771.4877 617.1916C744.1377 617.6716 721.6777 594.7216 721.6777 567.8716C721.6777 540.5316 744.1377 518.0616 771.4877 518.0616C798.8277 518.0616 821.2877 540.5316 821.2877 567.8716C821.2877 593.2616 798.8277 616.2116 771.4877 617.1916Z"/>
</svg>