<?xml version="1.0" encoding="UTF-8" standalone="no"?>
<svg xmlns="http://www.w3.org/2000/svg"
     width="1271.97265625" height="1016.6015625"
     viewBox="0 0 1271.97265625 1016.6015625"
     fill="currentColor">
  <path d="M64.9383 1016.5998H109.8683V848.1398C133.7883 832.5198 151.3683 796.3898 154.2983 759.7698C83.0083 738.7698 30.2783 672.8498 30.2783 595.6998C30.2783 548.8298 48.3383 507.3198 81.0583 474.1198C97.1683 264.1598 233.3983 79.0998 390.1383 79.0998C483.8883 79.0998 526.8583 149.4098 526.8583 279.2998L152.8283 474.6098C98.1483 502.9298 73.2383 547.8498 73.2383 595.6998C73.2383 665.5298 130.8583 723.1398 200.6883 723.1398C234.8683 723.1398 257.8083 714.3598 306.1483 688.4798L495.1183 584.9598C577.1483 539.5498 606.4483 484.3798 606.4483 368.6498V265.6298C606.4483 103.0298 534.6683 -0.0002 394.5283 -0.0002C178.2183 -0.0002 -0.0017 248.5398 -0.0017 553.7098C-0.0017 675.7798 27.8283 809.5698 64.9383 846.1898ZM877.4383 -0.0002C737.3083 -0.0002 665.5283 103.0298 665.5283 265.6298V368.6498C665.5283 484.3798 694.8283 539.5498 776.8583 584.9598L965.8183 688.4798C1014.1583 714.3598 1037.1083 723.1398 1071.2883 723.1398C1141.1183 723.1398 1198.7283 665.5298 1198.7283 595.6998C1198.7283 547.8498 1173.8283 502.9298 1119.1383 474.6098L745.1183 279.2998C745.1183 149.4098 788.0883 79.0998 881.8383 79.0998C1038.0883 79.0998 1174.8083 264.1598 1190.9183 474.1198C1223.6283 507.3198 1241.6983 548.8298 1241.6983 595.6998C1241.6983 672.8498 1188.9683 738.7698 1117.6783 759.7698C1120.6083 796.3898 1138.1883 832.5198 1162.1083 848.1398V1016.5998H1207.0283V846.1898C1244.1383 809.5698 1271.9683 675.7798 1271.9683 553.7098C1271.9683 248.5398 1093.7483 -0.0002 877.4383 -0.0002ZM197.7583 675.7798C152.8283 675.7798 116.6983 639.1598 116.6983 595.2098C116.6983 550.7798 152.8283 514.6498 197.7583 514.6498C241.6983 514.6498 277.8283 550.7798 277.8283 595.2098C277.8283 639.1598 241.6983 675.7798 197.7583 675.7798ZM1074.2183 675.7798C1030.2783 675.7798 993.6483 639.1598 993.6483 595.2098C993.6483 550.7798 1030.2783 514.6498 1074.2183 514.6498C1119.1383 514.6498 1155.2783 550.7798 1155.2783 595.2098C1155.2783 639.1598 1119.1383 675.7798 1074.2183 675.7798ZM197.7583 644.5298C224.1183 644.5298 246.5783 622.0698 246.5783 595.2098C246.5783 568.3598 224.1183 545.8998 197.7583 545.8998C170.4083 545.8998 148.4383 568.3598 148.4383 595.2098C148.4383 622.0698 170.4083 644.5298 197.7583 644.5298ZM1074.2183 644.5298C1101.5583 644.5298 1123.5383 622.0698 1123.5383 595.2098C1123.5383 568.3598 1101.5583 545.8998 1074.2183 545.8998C1047.3683 545.8998 1024.8983 568.3598 1024.8983 595.2098C1024.8983 622.0698 1047.3683 644.5298 1074.2183 644.5298Z"/>
</svg>