<?xml version="1.0" encoding="UTF-8" standalone="no"?>
<svg xmlns="http://www.w3.org/2000/svg"
     width="996.09375" height="996.09375"
     viewBox="0 0 996.09375 996.09375"
     fill="currentColor">
  <path d="M498.0477 996.0977C770.5077 996.0977 996.0977 770.5077 996.0977 498.0477C996.0977 226.0777 770.0177 -0.0023 497.5577 -0.0023C225.5877 -0.0023 -0.0023 226.0777 -0.0023 498.0477C-0.0023 770.5077 226.0777 996.0977 498.0477 996.0977ZM251.9577 431.1477V362.7977C251.9577 318.8477 275.3877 295.8977 318.3577 295.8977H677.7377C720.7077 295.8977 744.6277 318.8477 744.6277 362.7977V431.1477H683.5977V397.4577C683.5977 374.9977 671.3877 362.3077 646.4877 362.3077H562.9877C539.0577 362.3077 526.8577 374.9977 526.8577 397.4577V431.1477H472.1677V397.4577C472.1677 374.9977 459.9577 362.3077 437.4977 362.3077H348.1477C324.7077 362.3077 312.9877 374.9977 312.9877 397.4577V431.1477ZM193.8477 679.1977V536.6177C193.8477 491.2077 219.7277 465.3277 265.6277 465.3277H730.4677C776.3677 465.3277 802.2477 491.2077 802.2477 536.6177V679.1977C802.2477 691.8977 793.9477 699.7077 781.2477 699.7077H767.5777C755.3677 699.7077 747.0677 691.8977 747.0677 679.1977V644.0477C744.1377 644.5277 736.3277 644.5277 730.4677 644.5277H265.6277C259.7677 644.5277 251.9577 644.5277 249.0277 644.0477V679.1977C249.0277 691.8977 240.7277 699.7077 228.5177 699.7077H214.8477C202.6377 699.7077 193.8477 691.8977 193.8477 679.1977Z"/>
</svg>