<?xml version="1.0" encoding="UTF-8" standalone="no"?>
<svg xmlns="http://www.w3.org/2000/svg"
     width="1237.3046875" height="823.73046875"
     viewBox="0 0 1237.3046875 823.73046875"
     fill="currentColor">
  <path d="M41.5083 823.7284H70.7983C95.6983 823.7284 112.3083 807.6184 112.3083 782.2284V709.9584C117.6783 711.4284 133.7883 712.3984 145.5083 712.3984H1091.7983C1103.5183 712.3984 1119.6283 711.4284 1124.9983 709.9584V782.2284C1124.9983 807.6184 1141.5983 823.7284 1166.5083 823.7284H1195.7983C1221.1883 823.7284 1237.3083 807.6184 1237.3083 782.2284V447.7584C1237.3083 360.3484 1192.8683 310.5484 1110.3483 304.6884V136.7184C1110.3483 46.3884 1062.0083 -0.0016 974.1183 -0.0016H263.1883C175.7783 -0.0016 126.9483 46.3884 126.9483 136.7184V304.6884C44.4383 310.5484 -0.0017 360.3484 -0.0017 447.7584V782.2284C-0.0017 807.6184 16.1183 823.7284 41.5083 823.7284ZM255.3683 213.8684C255.3683 168.4584 280.7583 143.5584 327.1483 143.5584H498.5383C544.4383 143.5584 569.8283 168.4584 569.8283 213.8684V304.1984H255.3683ZM667.4783 213.8684C667.4783 168.4584 692.8683 143.5584 738.7683 143.5584H910.1583C956.5383 143.5584 981.9383 168.4584 981.9383 213.8684V304.1984H667.4783ZM97.6583 641.1084C87.3983 641.1084 81.0583 633.7884 81.0583 622.0684V436.5184C81.0583 399.4184 105.4683 375.4884 143.5583 375.4884H1094.2383C1131.8383 375.4884 1156.2483 399.4184 1156.2483 436.5184V622.0684C1156.2483 633.7884 1149.8983 641.1084 1139.6483 641.1084Z"/>
</svg>