<?xml version="1.0" encoding="UTF-8" standalone="no"?>
<svg xmlns="http://www.w3.org/2000/svg"
     width="1237.3046875" height="823.73046875"
     viewBox="0 0 1237.3046875 823.73046875"
     fill="currentColor">
  <path d="M117.1883 276.8584H241.2083V206.5384C241.2083 161.1284 266.5983 136.2284 312.9883 136.2284H495.1183C541.0183 136.2284 566.4083 161.1284 566.4083 206.5384V276.8584H677.2483V206.5384C677.2483 161.1284 702.6383 136.2284 751.4683 136.2284H922.3683C971.1883 136.2284 996.5783 161.1284 996.5783 206.5384V276.8584H1121.0983V136.7184C1121.0983 46.3884 1072.2683 -0.0016 984.3783 -0.0016H253.4183C165.5283 -0.0016 117.1883 46.3884 117.1883 136.7184ZM-0.0017 782.2284C-0.0017 807.6184 16.1183 823.7284 41.5083 823.7284H70.7983C95.6983 823.7284 112.3083 807.6184 112.3083 782.2284V709.9584C117.6783 711.4284 133.7883 712.3984 145.5083 712.3984H1091.7983C1103.5183 712.3984 1119.6283 711.4284 1124.9983 709.9584V782.2284C1124.9983 807.6184 1141.5983 823.7284 1166.5083 823.7284H1195.7983C1221.1883 823.7284 1237.3083 807.6184 1237.3083 782.2284V491.2084C1237.3083 397.9484 1185.5483 346.6784 1092.2883 346.6784H145.0183C51.7583 346.6784 -0.0017 397.9484 -0.0017 491.2084Z"/>
</svg>