<?xml version="1.0" encoding="UTF-8" standalone="no"?>
<svg xmlns="http://www.w3.org/2000/svg"
     width="996.09375" height="996.09375"
     viewBox="0 0 996.09375 996.09375"
     fill="currentColor">
  <path d="M498.0477 996.0977C770.5077 996.0977 996.0977 770.5077 996.0977 498.0477C996.0977 226.0777 770.0177 -0.0023 497.5577 -0.0023C225.5877 -0.0023 -0.0023 226.0777 -0.0023 498.0477C-0.0023 770.5077 226.0777 996.0977 498.0477 996.0977ZM277.3477 679.6877C250.9777 679.6877 235.8377 666.0177 235.8377 646.4877C235.8377 618.1677 264.1577 593.7477 288.0877 568.8477C306.6377 548.8277 310.5477 509.2777 312.9877 478.0277C314.9377 370.1177 343.7477 296.8777 417.4777 269.5277C429.1977 233.3977 457.5177 204.5877 498.5377 204.5877C539.5477 204.5877 568.3577 233.3977 579.5877 269.5277C653.3177 296.8777 682.1277 370.1177 684.5677 478.0277C686.5277 509.2777 689.9377 548.8277 708.9877 568.8477C733.8877 593.2577 761.2277 618.1677 761.2277 646.4877C761.2277 666.0177 746.0977 679.6877 720.2177 679.6877ZM498.5377 796.3877C451.1677 796.3877 416.9877 762.2077 413.5777 722.1677H583.4977C580.5677 762.2077 545.8977 796.3877 498.5377 796.3877Z"/>
</svg>