<?xml version="1.0" encoding="UTF-8" standalone="no"?>
<svg xmlns="http://www.w3.org/2000/svg"
     width="1741.69921875" height="1008.7890625"
     viewBox="0 0 1741.69921875 1008.7890625"
     fill="currentColor">
  <path d="M410.1577 772.9536C410.1577 808.5936 437.4977 832.0336 483.8877 832.0336H689.9377C693.8477 926.2736 767.5777 1008.7936 870.6077 1008.7936C974.1177 1008.7936 1047.8477 926.7536 1051.7577 832.0336H1257.8077C1303.7077 832.0336 1331.5477 808.5936 1331.5477 772.9536C1331.5477 724.1236 1281.7377 680.1736 1239.7477 636.7236C1207.5177 603.0236 1198.7277 533.6936 1194.8277 477.5436C1191.4077 285.1536 1141.5977 161.1336 1011.7177 114.2536C995.1177 50.2936 942.8677 0.0036 870.6077 0.0036C798.8277 0.0036 746.0977 50.2936 729.9777 114.2536C600.0977 161.1336 550.2977 285.1536 546.8777 477.5436C542.9677 533.6936 534.1777 603.0236 501.9577 636.7236C459.4777 680.1736 410.1577 724.1236 410.1577 772.9536ZM504.8877 758.3036V752.4436C513.6677 738.2836 542.9677 709.4736 568.3577 681.1536C603.5177 642.0936 620.1177 579.1036 624.5077 483.8836C628.4177 270.5036 691.8977 202.6336 775.3877 179.6836C787.5977 176.7536 794.4377 170.8936 794.9177 158.2036C796.3877 107.4236 825.6877 71.7736 870.6077 71.7736C916.0177 71.7736 944.8277 107.4236 946.7777 158.2036C947.2677 170.8936 953.6177 176.7536 966.3077 179.6836C1049.8077 202.6336 1113.2777 270.5036 1117.1877 483.8836C1121.5777 579.1036 1138.1877 642.0936 1172.8477 681.1536C1198.7277 709.4736 1227.5377 738.2836 1236.3277 752.4436V758.3036ZM1553.2277 838.3836C1568.8477 856.4436 1596.1877 856.4436 1614.7477 835.9336C1695.7977 747.5536 1741.6977 630.8636 1741.6977 504.3936C1741.6977 377.9336 1695.7977 260.7436 1614.7477 172.8536C1596.1877 152.3436 1568.8477 151.8536 1553.2277 170.4136C1537.5977 187.9836 1542.4777 210.9336 1560.0577 230.9536C1625.4877 303.7136 1662.1077 399.4136 1662.1077 504.3936C1662.1077 609.3736 1625.4877 705.0736 1560.0577 777.8336C1542.4777 797.8536 1537.5977 820.8036 1553.2277 838.3836ZM188.4777 838.3836C204.0977 820.8036 199.2177 797.8536 181.6377 777.8336C116.2077 705.0736 79.5877 609.3736 79.5877 504.3936C79.5877 399.4136 116.2077 303.7136 181.6377 230.9536C199.2177 210.9336 204.0977 187.9836 188.4777 170.4136C172.8477 151.8536 145.5077 152.3436 126.9577 172.8536C45.8977 260.7436 -0.0023 377.9336 -0.0023 504.3936C-0.0023 630.8636 45.8977 747.5536 126.9577 835.9336C145.5077 856.4436 172.8477 856.4436 188.4777 838.3836ZM325.1977 699.2236C340.8177 681.6436 334.4777 659.6636 318.8477 638.6736C289.5477 602.0536 275.3877 555.1736 275.3877 504.3936C275.3877 453.6136 289.5477 406.2536 318.8477 370.1136C334.4777 349.1236 340.8177 327.1436 325.1977 309.5736C309.0777 291.0136 279.7877 291.0136 262.6977 312.9836C220.2177 365.7236 195.7977 432.6136 195.7977 504.3936C195.7977 576.1736 220.2177 643.0636 262.6977 695.8036C279.7877 717.7736 309.0777 717.2836 325.1977 699.2236ZM1416.0177 699.2236C1432.6177 717.2836 1461.4277 717.7736 1479.0077 695.8036C1521.4877 643.0636 1545.8977 576.1736 1545.8977 504.3936C1545.8977 432.6136 1521.4877 365.7236 1479.0077 312.9836C1461.4277 291.0136 1432.6177 291.0136 1416.0177 309.5736C1400.8777 327.1436 1407.2277 349.1236 1422.8477 370.1136C1451.6577 406.2536 1466.3077 453.6136 1466.3077 504.3936C1466.3077 555.1736 1451.6577 602.0536 1422.8477 638.6736C1407.2277 659.6636 1400.8777 681.6436 1416.0177 699.2236ZM766.1177 832.0336H975.5877C972.1677 898.4336 929.6877 939.9436 870.6077 939.9436C812.0077 939.9436 769.5277 898.4336 766.1177 832.0336Z"/>
</svg>