<?xml version="1.0" encoding="UTF-8" standalone="no"?>
<svg xmlns="http://www.w3.org/2000/svg"
     width="921.38671875" height="1027.83203125"
     viewBox="0 0 921.38671875 1027.83203125"
     fill="currentColor">
  <path d="M73.7344 832.0309H847.6544C893.5544 832.0309 921.3844 808.5909 921.3844 772.9509C921.3844 724.1209 871.5844 680.1709 829.5944 636.7209C797.3644 603.0309 788.5744 533.6909 784.6644 477.5409C781.2544 290.0409 731.4444 161.1309 601.5644 114.2609C583.0044 50.2909 532.7144 0.0009 460.4444 0.0009C388.6744 0.0009 337.8944 50.2909 319.8244 114.2609C189.9444 161.1309 140.1344 290.0409 136.7144 477.5409C132.8144 533.6909 124.0244 603.0309 91.7944 636.7209C49.3144 680.1709 0.0044 724.1209 0.0044 772.9509C0.0044 808.5909 27.3444 832.0309 73.7344 832.0309ZM460.4444 1027.8309C543.4544 1027.8309 604.0044 967.2809 610.3544 898.9209H311.0344C317.3844 967.2809 377.9344 1027.8309 460.4444 1027.8309Z"/>
</svg>