<?xml version="1.0" encoding="UTF-8" standalone="no"?>
<svg xmlns="http://www.w3.org/2000/svg"
     width="898.92578125" height="898.92578125"
     viewBox="0 0 898.92578125 898.92578125"
     fill="currentColor">
  <path d="M153.3183 898.9295H745.6083C848.1483 898.9295 898.9283 848.1495 898.9283 747.5595V151.3695C898.9283 50.7795 848.1483 -0.0005 745.6083 -0.0005H153.3183C51.2683 -0.0005 -0.0017 50.2895 -0.0017 151.3695V747.5595C-0.0017 848.6295 51.2683 898.9295 153.3183 898.9295ZM229.0083 630.3695C202.6383 630.3695 187.4983 616.6995 187.4983 597.1695C187.4983 568.8495 215.8183 544.4295 239.7483 519.0395C258.2983 499.5095 262.6983 459.9595 264.6483 428.7095C266.5983 320.7995 295.4083 247.0695 369.1383 219.7295C380.8583 184.0795 409.1783 154.7895 450.1983 154.7895C491.2083 154.7895 520.0183 184.0795 531.2483 219.7295C604.9783 247.0695 634.2783 320.7995 636.2283 428.7095C638.1883 459.9595 641.5983 499.5095 660.6483 519.0395C685.5483 543.9495 712.8883 568.8495 712.8883 597.1695C712.8883 616.6995 697.7583 630.3695 671.8783 630.3695ZM450.1983 747.0695C402.8283 747.0695 368.6483 712.8895 365.2383 672.3595H535.6483C532.2283 712.8895 497.5583 747.0695 450.1983 747.0695Z"/>
</svg>