<?xml version="1.0" encoding="UTF-8" standalone="no"?>
<svg xmlns="http://www.w3.org/2000/svg"
     width="952.2102484154727" height="1027.83203125"
     viewBox="0 0 952.2102484154727 1027.83203125"
     fill="currentColor">
  <path d="M460.9409 0.0009C388.6709 0.0009 338.3809 50.2909 319.8209 114.2609C293.9409 123.0509 271.4809 135.2509 252.4409 150.8809L909.1809 808.5909C917.4809 799.3209 921.3909 787.1109 921.3909 772.9509C921.3909 724.1209 872.0709 680.1709 829.5909 636.7209C797.3609 603.0309 788.5709 533.6909 785.1609 477.5409C781.2509 290.0409 731.9309 161.1309 602.0509 114.2609C583.5009 50.2909 532.7109 0.0009 460.9409 0.0009ZM10.7409 99.1209L888.1809 975.1009C902.8309 990.2309 926.7609 990.2309 941.4109 975.1009C955.5709 960.4509 956.0509 937.0109 941.4109 921.8709L64.4509 45.9009C49.8009 31.2509 25.8809 31.2509 10.7409 45.9009C-3.4191 60.0609 -3.4191 84.9609 10.7409 99.1209ZM73.7309 832.0309H663.0909L153.8109 322.2609C143.0709 368.6509 137.6909 419.9209 136.7209 477.5409C132.8109 533.6909 124.5109 603.0309 92.2809 636.7209C49.8009 680.1709 0.0009 724.1209 0.0009 772.9509C0.0009 808.5909 27.8309 832.0309 73.7309 832.0309ZM460.9409 1027.8309C543.4609 1027.8309 604.0009 967.2809 610.8409 898.9209H311.0309C317.3809 967.2809 377.9309 1027.8309 460.9409 1027.8309Z"/>
</svg>