<?xml version="1.0" encoding="UTF-8" standalone="no"?>
<svg xmlns="http://www.w3.org/2000/svg"
     width="1012.6953125" height="1074.21875"
     viewBox="0 0 1012.6953125 1074.21875"
     fill="currentColor">
  <path d="M755.8644 461.4233C771.4844 461.4233 783.6944 449.7033 783.6944 434.0833V28.3233C783.6944 12.2033 771.4844 0.0033 755.8644 0.0033C740.7244 0.0033 728.5144 12.2033 728.5144 28.3233V434.0833C728.5144 450.1933 740.2344 461.4233 755.8644 461.4233ZM870.1144 413.0833C885.7444 413.0833 897.9444 400.8833 897.9444 385.2533V75.6833C897.9444 61.0333 885.7444 48.8233 870.1144 48.8233C854.9844 48.8233 843.2644 61.0333 843.2644 75.6833V385.2533C843.2644 400.8833 854.9844 413.0833 870.1144 413.0833ZM460.4444 1074.2233C563.9644 1074.2233 637.6944 992.1833 641.6044 897.4633H847.6544C893.5544 897.4633 921.3844 874.0233 921.3844 838.3833C921.3844 789.5533 871.5844 745.6033 829.5944 702.1533C799.8044 671.8733 788.5744 611.3233 786.6244 561.5233C786.6244 552.2433 786.6244 542.9733 786.1344 534.1833C758.3044 539.5533 733.3944 539.0633 708.0044 523.4333C708.4944 537.5933 708.9844 552.2433 709.4744 567.8733C710.9344 657.7133 730.9544 710.9333 762.6944 746.5833C788.5744 774.9033 817.3844 803.7133 826.1744 817.8733V823.7333H94.7244V817.8733C103.5144 803.7133 132.8144 774.9033 158.2044 746.5833C193.3644 707.5233 209.9644 644.5333 214.3544 549.3133C218.2644 335.9333 281.7344 268.0633 365.2344 245.1133C377.4444 242.1833 384.2744 236.3233 384.7644 223.6333C386.2344 183.5933 406.7344 155.7633 433.1044 146.9733C449.7044 111.8133 484.8644 86.9133 526.3644 86.9133C529.7844 86.9133 532.7144 86.9133 537.1144 87.8933V86.4233C515.1344 73.7333 489.2544 65.4333 460.4444 65.4333C388.6744 65.4333 335.9344 115.7233 319.8244 179.6833C189.9444 226.5633 140.1344 350.5833 136.7144 542.9733C132.8144 599.1233 124.0244 668.4533 91.7944 702.1533C49.3144 745.6033 0.0044 789.5533 0.0044 838.3833C0.0044 874.0233 27.3444 897.4633 73.7344 897.4633H279.7844C283.6944 991.7033 357.4244 1074.2233 460.4444 1074.2233ZM641.6044 376.9533C656.7344 376.9533 668.9444 365.2333 668.9444 349.1233V111.8133C668.9444 96.6833 656.7344 84.4733 641.6044 84.4733C625.9744 84.4733 614.2544 96.6833 614.2544 111.8133V349.1233C614.2544 365.2333 625.9744 376.9533 641.6044 376.9533ZM984.8644 320.8033C1000.9744 320.8033 1012.6944 309.0833 1012.6944 293.4533V167.9733C1012.6944 152.3433 1000.9744 140.6233 984.8644 140.6233C969.7244 140.6233 957.5244 152.8333 957.5244 167.9733V293.4533C957.5244 308.5933 969.7244 320.8033 984.8644 320.8033ZM526.3644 294.9233C542.4844 294.9233 554.6844 282.7133 554.6844 268.0633V193.8433C554.6844 178.2233 542.4844 166.0133 526.3644 166.0133C511.7144 166.0133 499.5144 178.2233 499.5144 193.8433V268.0633C499.5144 282.7133 511.7144 294.9233 526.3644 294.9233ZM460.4444 1005.3733C401.8544 1005.3733 359.3744 963.8633 355.9544 897.4633H565.4344C561.5244 963.8633 519.5344 1005.3733 460.4444 1005.3733Z"/>
</svg>