<?xml version="1.0" encoding="UTF-8" standalone="no"?>
<svg xmlns="http://www.w3.org/2000/svg"
     width="996.09375" height="996.09375"
     viewBox="0 0 996.09375 996.09375"
     fill="currentColor">
  <path d="M498.0477 996.0959C770.5077 996.0959 996.0977 770.0159 996.0977 498.0459C996.0977 225.5859 770.0177 -0.0041 497.5577 -0.0041C225.5877 -0.0041 -0.0023 225.5859 -0.0023 498.0459C-0.0023 770.0159 226.0777 996.0959 498.0477 996.0959ZM498.0477 913.0859C267.5777 913.0859 83.4977 728.5159 83.4977 498.0459C83.4977 267.5759 267.0877 83.0059 497.5577 83.0059C728.0277 83.0059 913.0877 267.5759 913.0877 498.0459C913.0877 728.5159 728.5177 913.0859 498.0477 913.0859ZM280.7577 693.3559C352.0477 693.3559 411.1377 638.1859 417.4777 568.3559H468.7477C488.7677 568.3559 498.5377 563.4759 509.2777 551.7559L632.8077 407.2259L645.5077 437.9859C604.9777 461.9159 578.1277 505.8559 578.1277 556.1559C578.1277 631.8359 639.6477 693.3559 715.3277 693.3559C791.5077 693.3559 852.5377 631.8359 852.5377 556.1559C852.5377 480.4659 791.5077 418.9459 715.3277 418.9459C703.6177 418.9459 692.3877 420.4059 681.1477 423.3359L618.6477 269.5359C613.2777 257.3259 606.4477 252.9259 592.2877 252.9259H532.2277C520.9977 252.9259 511.7177 261.7159 511.7177 272.9459C511.7177 283.2059 520.5077 292.4759 532.2277 292.4759H586.4277L616.6977 366.6959L430.1777 390.6259L401.3677 338.8659H420.8977C431.6377 338.8659 441.4077 330.0759 441.4077 319.8259C441.4077 308.5959 432.1277 299.3159 420.8977 299.3159H329.0977C317.8677 299.3159 309.0777 308.5959 309.0777 319.8259C309.0777 330.0759 317.8677 338.8659 329.0977 338.8659H356.9377L391.1177 400.8759L355.9577 441.4059C334.4777 427.2459 308.5977 418.9459 280.7577 418.9459C205.0777 418.9459 143.5577 480.4659 143.5577 556.1559C143.5577 631.8359 205.0777 693.3559 280.7577 693.3559ZM450.6877 427.7359L586.4277 404.7859L496.0977 508.7859ZM413.0877 438.9659L463.8677 530.7659H415.5277C411.1377 507.3259 400.8777 486.3259 386.2277 468.2659ZM281.2477 653.3159C227.0477 653.3159 183.5977 609.8659 183.5977 555.1759C183.5977 501.4659 227.0477 458.4959 281.2477 458.4959C298.8277 458.4959 315.4277 462.8859 329.5877 471.1959L284.1777 523.4359C283.2077 523.4359 282.2277 523.4359 281.2477 523.4359C262.2077 523.4359 248.0477 537.5959 248.0477 555.6659C248.0477 574.2159 262.2077 588.8659 281.2477 588.8659C299.3177 588.8659 313.4777 574.2159 313.4777 555.6659C313.4777 553.7059 313.4777 551.7559 312.9877 549.8059L359.8677 498.0459C371.5777 514.1559 378.4177 533.6959 378.4177 555.1759C378.4177 609.8659 334.9577 653.3159 281.2477 653.3159ZM716.3077 653.3159C661.6177 653.3159 618.1677 609.8659 618.1677 555.1759C618.1677 521.9759 634.7677 492.6759 660.6477 475.0959L687.0077 540.5259C684.5677 544.9259 683.1077 550.2959 683.1077 555.6659C683.1077 574.2159 697.2677 588.8659 716.3077 588.8659C734.3777 588.8659 748.5377 574.2159 748.5377 555.6659C748.5377 539.5459 737.3077 526.8559 722.1677 523.9259L696.2877 460.4459C702.6377 458.9859 709.4777 458.4959 716.3077 458.4959C770.0177 458.4959 813.4777 501.4659 813.4777 555.1759C813.4777 609.8659 770.0177 653.3159 716.3077 653.3159Z"/>
</svg>