<?xml version="1.0" encoding="UTF-8" standalone="no"?>
<svg xmlns="http://www.w3.org/2000/svg"
     width="1147.113703117336" height="1278.9232650299775"
     viewBox="0 0 1147.113703117336 1278.9232650299775"
     fill="currentColor">
  <path d="M748.9254 262.9569C685.9354 150.6569 605.8554 68.6269 502.8254 9.5369C465.2254 -11.9431 427.1454 4.1669 416.8854 44.6969C402.7254 94.9869 393.9354 145.7669 391.0154 196.0669C478.9054 239.0369 559.4654 292.7469 627.8254 351.3369C661.5154 304.9469 702.5354 276.1469 748.9254 262.9569ZM811.9054 321.0669C738.6654 321.0669 683.9754 361.5869 645.4054 458.2669C504.2954 314.2269 279.1954 185.8069 54.5854 168.7169C9.1754 165.7869 1.8454 199.4869 0.8754 227.8069C-14.7546 476.3369 181.0454 690.6969 439.8354 709.2469C369.0354 877.2169 256.7354 1007.5869 145.8954 1111.1069C128.3154 1127.2169 132.7054 1149.1869 144.4254 1166.7669C201.0654 1253.6769 378.3154 1305.9269 498.4354 1264.4269C524.7954 1254.6569 529.6854 1241.9669 529.6854 1219.9869V1034.4469C661.0254 1028.5869 873.4354 943.6269 838.7654 673.1169L833.3954 634.5369C892.9654 620.3769 940.8154 592.5469 970.1154 558.8569L1113.1754 579.3669C1146.3854 584.2469 1162.0054 534.9269 1128.3154 520.7669L1000.3854 466.5769C990.1354 393.8169 909.5654 321.0669 811.9054 321.0669ZM863.1754 490.4969C846.5754 490.4969 832.9054 477.3169 832.9054 460.7169C832.9054 444.5969 846.5754 430.4369 863.1754 430.4369C879.2954 430.4369 892.9654 444.5969 892.9654 460.7169C892.9654 477.3169 879.2954 490.4969 863.1754 490.4969Z"/>
</svg>