<?xml version="1.0" encoding="UTF-8" standalone="no"?>
<svg xmlns="http://www.w3.org/2000/svg"
     width="996.09375" height="996.09375"
     viewBox="0 0 996.09375 996.09375"
     fill="currentColor">
  <path d="M498.0477 996.0959C770.5077 996.0959 996.0977 770.0159 996.0977 498.0459C996.0977 225.5859 770.0177 -0.0041 497.5577 -0.0041C225.5877 -0.0041 -0.0023 225.5859 -0.0023 498.0459C-0.0023 770.0159 226.0777 996.0959 498.0477 996.0959ZM360.3477 694.3359V316.8959C360.3477 293.9459 376.4677 278.3159 398.9277 278.3159H419.4377V240.7259C419.4377 226.5659 429.1977 216.7959 442.8677 216.7959C456.5477 216.7959 466.3077 226.5659 466.3077 240.7259V278.3159H498.0477V240.7259C498.0477 226.5659 508.2977 216.7959 521.4877 216.7959C535.1577 216.7959 545.4077 226.5659 545.4077 240.7259V280.2759C610.3477 290.0359 651.8577 333.9859 651.8577 394.5359C651.8577 436.0359 626.9577 474.6059 590.8177 492.1859C641.1177 507.3259 673.8277 548.3359 673.8277 603.5159C673.8277 675.2959 626.4677 722.1659 545.4077 730.9559V770.9959C545.4077 785.1559 535.1577 794.9259 521.4877 794.9259C508.2977 794.9259 498.0477 785.1559 498.0477 770.9959V732.4259H466.3077V770.9959C466.3077 785.1559 456.5477 794.9259 442.8677 794.9259C429.1977 794.9259 419.4377 785.1559 419.4377 770.9959V732.4259H398.9277C375.9777 732.4259 360.3477 716.7959 360.3477 694.3359ZM422.8477 469.7259L492.6777 470.2159C555.1777 470.7059 589.3577 445.3159 589.3577 399.4159C589.3577 357.9059 559.0777 334.9559 506.3477 334.9559H422.8477ZM422.8477 675.2959L510.7377 674.8059C576.6577 674.3159 611.3277 649.4159 611.3277 601.0759C611.3277 551.7559 575.1977 526.8559 505.3677 526.8559H422.8477Z"/>
</svg>