<?xml version="1.0" encoding="UTF-8" standalone="no"?>
<svg xmlns="http://www.w3.org/2000/svg"
     width="587.890625" height="1104.4921875"
     viewBox="0 0 587.890625 1104.4921875"
     fill="currentColor">
  <path d="M60.5483 981.9327H116.2083V1072.7527C116.2083 1090.3327 130.3683 1104.4927 148.4383 1104.4927C166.0183 1104.4927 180.1783 1090.3327 180.1783 1072.7527V981.9327H270.0183V1072.7527C270.0183 1090.3327 284.1783 1104.4927 301.7583 1104.4927C319.8283 1104.4927 333.9883 1090.3327 333.9883 1072.7527V980.9527C493.6483 968.7527 587.8883 881.8327 587.8883 743.1627C587.8883 625.4927 507.3283 543.9427 388.1883 529.2927V525.3927C477.0483 509.2727 543.4583 426.2727 543.4583 333.0127C543.4583 216.3127 460.4483 134.7627 333.9883 121.0927V32.2227C333.9883 14.6527 319.8283 0.0027 301.7583 0.0027C284.1783 0.0027 270.0183 14.6527 270.0183 32.2227V119.1427H180.1783V32.2227C180.1783 14.6527 166.0183 0.0027 148.4383 0.0027C130.3683 0.0027 116.2083 14.6527 116.2083 32.2227V119.1427H60.5483C23.9283 119.1427 -0.0017 143.0627 -0.0017 179.6827V921.3827C-0.0017 958.0127 23.9283 981.9327 60.5483 981.9327ZM93.2583 496.0927V201.1727H272.9483C383.7883 201.1727 450.1983 251.9527 450.1983 342.7727C450.1983 441.8927 375.4883 496.0927 246.0983 496.0927ZM93.2583 899.9027V578.6127H269.5283C414.0583 578.6127 493.1683 633.7927 493.1683 739.2627C493.1683 844.2427 416.5083 899.9027 280.7583 899.9027Z"/>
</svg>