<?xml version="1.0" encoding="UTF-8" standalone="no"?>
<svg xmlns="http://www.w3.org/2000/svg"
     width="898.92578125" height="898.92578125"
     viewBox="0 0 898.92578125 898.92578125"
     fill="currentColor">
  <path d="M153.3183 898.9295H745.6083C848.1483 898.9295 898.9283 848.1495 898.9283 747.5595V151.3695C898.9283 50.7795 848.1483 -0.0005 745.6083 -0.0005H153.3183C51.2683 -0.0005 -0.0017 50.2895 -0.0017 151.3695V747.5595C-0.0017 848.6295 51.2683 898.9295 153.3183 898.9295ZM154.2983 820.3095C105.4683 820.3095 78.6183 794.4295 78.6183 743.6495V155.2695C78.6183 104.4895 105.4683 78.6095 154.2983 78.6095H744.6283C792.9683 78.6095 820.3083 104.4895 820.3083 155.2695V743.6495C820.3083 794.4295 792.9683 820.3095 744.6283 820.3095ZM312.0083 645.0195C312.0083 667.4795 327.6383 683.1095 350.5883 683.1095H371.0983V721.6795C371.0983 735.8395 381.3483 745.6095 394.5283 745.6095C408.1983 745.6095 418.4583 735.8395 418.4583 721.6795V683.1095H449.7083V721.6795C449.7083 735.8395 459.9583 745.6095 473.6283 745.6095C486.8183 745.6095 497.0683 735.8395 497.0683 721.6795V681.6395C578.1283 672.8495 625.4883 625.9795 625.4883 554.1995C625.4883 499.0195 593.2583 458.0095 542.4783 442.8695C578.6183 425.2895 604.0083 386.7195 604.0083 345.2195C604.0083 284.6695 562.4983 240.7195 497.0683 230.9595V191.4095C497.0683 177.2495 486.8183 167.4795 473.6283 167.4795C459.9583 167.4795 449.7083 177.2495 449.7083 191.4095V228.9995H418.4583V191.4095C418.4583 177.2495 408.1983 167.4795 394.5283 167.4795C381.3483 167.4795 371.0983 177.2495 371.0983 191.4095V228.9995H350.5883C328.1283 228.9995 312.0083 244.6295 312.0083 267.5795ZM374.9983 420.4095V285.6395H458.4983C510.7383 285.6395 541.0183 308.5895 541.0183 350.0995C541.0183 395.9995 506.8383 421.3895 444.3383 420.8995ZM374.9983 625.9795V477.5395H457.0283C526.8583 477.5395 562.9883 502.4395 562.9883 551.7595C562.9883 600.0995 528.3183 624.9995 462.8883 625.4895Z"/>
</svg>