<?xml version="1.0" encoding="UTF-8" standalone="no"?>
<svg xmlns="http://www.w3.org/2000/svg"
     width="1036.62109375" height="997.0703125"
     viewBox="0 0 1036.62109375 997.0703125"
     fill="currentColor">
  <path d="M0.0034 39.0642C0.0034 60.5442 18.0634 78.6142 39.5534 78.6142H997.0734C1018.5534 78.6142 1036.6234 60.5442 1036.6234 39.0642C1036.6234 17.5742 1018.5534 0.0042 997.0734 0.0042H39.5534C18.0634 0.0042 0.0034 17.5742 0.0034 39.0642ZM39.5534 191.8942C57.6134 191.8942 72.7534 176.7542 72.7534 158.6942C72.7534 140.1342 57.6134 125.4842 39.5534 125.4842C20.9934 125.4842 5.8634 140.1342 5.8634 158.6942C5.8634 176.7542 20.9934 191.8942 39.5534 191.8942ZM131.8334 165.5242V278.3242C131.8334 298.8242 146.4834 312.5042 167.4834 312.5042H961.9134C983.8834 312.5042 997.0734 298.3442 997.0734 277.8342V165.0342C997.0734 144.5342 983.4034 130.3742 961.9134 130.3742H167.4834C145.9934 130.3742 131.8334 145.0242 131.8334 165.5242ZM39.5534 305.1742C57.6134 305.1742 72.7534 289.5542 72.7534 271.4842C72.7534 253.4142 57.6134 238.2842 39.5534 238.2842C20.9934 238.2842 5.8634 253.4142 5.8634 271.4842C5.8634 289.5542 20.9934 305.1742 39.5534 305.1742ZM39.5534 417.9642C57.6134 417.9642 72.7534 402.8342 72.7534 384.7642C72.7534 366.2142 57.6134 351.5642 39.5534 351.5642C20.9934 351.5642 5.8634 366.2142 5.8634 384.7642C5.8634 402.8342 20.9934 417.9642 39.5534 417.9642ZM131.8334 393.0642V506.8342C131.8334 526.8542 145.9934 540.5242 167.4834 540.5242H962.4034C983.4034 540.5242 997.0734 526.3642 997.0734 506.8342V392.5742C997.0734 372.5542 983.4034 358.8842 962.4034 358.8842H167.9734C146.4834 358.8842 131.8334 372.5542 131.8334 393.0642ZM39.5534 531.2542C57.6134 531.2542 72.7534 515.6242 72.7534 497.5542C72.7534 479.4942 57.6134 464.3542 39.5534 464.3542C20.9934 464.3542 5.8634 479.4942 5.8634 497.5542C5.8634 515.6242 20.9934 531.2542 39.5534 531.2542ZM39.5534 644.0442C57.6134 644.0442 72.7534 628.9042 72.7534 610.8442C72.7534 592.2842 57.6134 577.6342 39.5534 577.6342C20.9934 577.6342 5.8634 592.2842 5.8634 610.8442C5.8634 628.9042 20.9934 644.0442 39.5534 644.0442ZM131.8334 621.0942V734.3742C131.8334 754.8842 145.9934 769.0442 167.4834 769.0442H961.9134C983.8834 769.0442 997.0734 754.8842 997.0734 734.3742V620.6042C997.0734 601.0742 983.8834 587.4042 961.9134 587.4042H167.4834C146.4834 587.4042 131.8334 601.0742 131.8334 621.0942ZM39.5534 757.3242C57.6134 757.3242 72.7534 741.6942 72.7534 723.6342C72.7534 705.5642 57.6134 690.4342 39.5534 690.4342C20.9934 690.4342 5.8634 705.5642 5.8634 723.6342C5.8634 741.6942 20.9934 757.3242 39.5534 757.3242ZM39.5534 997.0742C60.5434 997.0742 78.6134 979.4942 78.6134 958.0042V842.7742C78.6134 821.2842 61.0334 803.7142 39.5534 803.7142C18.0634 803.7142 0.0034 821.2842 0.0034 842.7742V958.0042C0.0034 979.4942 18.0634 997.0742 39.5534 997.0742ZM131.8334 849.1242V962.4042C131.8334 982.9142 145.5034 996.5842 166.9934 996.5842H961.4234C982.9134 996.5842 997.0734 982.9142 997.0734 962.4042V849.1242C997.0734 828.1242 983.4034 814.9442 961.9134 814.9442H167.4834C145.5034 814.9442 131.8334 828.6142 131.8334 849.1242Z"/>
</svg>