<?xml version="1.0" encoding="UTF-8" standalone="no"?>
<svg xmlns="http://www.w3.org/2000/svg"
     width="1871.09375" height="872.0703125"
     viewBox="0 0 1871.09375 872.0703125"
     fill="currentColor">
  <path d="M1586.4283 722.1706C1762.6983 722.1706 1871.0983 616.7006 1871.0983 463.3806V44.9206C1871.0983 17.5806 1853.0283 0.0006 1825.6883 0.0006C1797.8483 0.0006 1780.7583 17.5806 1780.7583 44.9206V456.0506C1780.7583 564.9406 1708.9883 638.6706 1586.4283 638.6706C1464.8483 638.6706 1392.5783 564.9406 1392.5783 456.0506V44.9206C1392.5783 17.5806 1374.5083 0.0006 1347.1683 0.0006C1319.8283 0.0006 1302.2483 17.5806 1302.2483 44.9206V463.3806C1302.2483 616.7006 1411.1283 722.1706 1586.4283 722.1706ZM691.8983 709.4706H1000.4883C1023.4383 709.4706 1039.5483 695.3106 1039.5483 672.3606C1039.5483 650.3906 1023.9283 636.2306 1000.9783 636.2306H891.1183L1009.7683 84.4706H1119.1383C1142.0883 84.4706 1158.1983 70.3106 1158.1983 47.3606C1158.1983 25.3906 1142.5783 11.2306 1119.6283 11.2306H810.0583C787.1083 11.2306 771.4883 25.3906 771.4883 47.3606C771.4883 70.3106 787.5983 84.4706 810.5483 84.4706H919.4383L800.7783 636.2306H691.4083C668.4583 636.2306 652.3483 650.3906 652.3483 672.3606C652.3483 695.3106 668.9483 709.4706 691.8983 709.4706ZM82.5183 709.4706H336.9183C486.3283 709.4706 580.5683 630.8606 580.5683 510.2506C580.5683 415.0406 511.7183 346.1906 412.5983 340.8206V336.9106C493.6483 325.6806 548.8283 264.6506 548.8283 187.0106C548.8283 78.1206 465.3283 11.2306 330.0783 11.2306H82.5183C30.2783 11.2306 -0.0017 41.9906 -0.0017 95.7006V625.4906C-0.0017 678.7106 30.2783 709.4706 82.5183 709.4706ZM161.1283 301.2706V125.9806H281.2483C349.6083 125.9806 390.1383 157.2306 390.1383 210.9406C390.1383 267.5806 345.2183 301.2706 269.0383 301.2706ZM161.1283 596.6806V402.8306H283.6883C369.1383 402.8306 416.9883 436.0306 416.9883 498.5306C416.9883 562.5006 371.0983 596.6806 287.1083 596.6806ZM1331.0583 872.0706H1841.7983C1857.9083 872.0706 1871.0983 859.8606 1871.0983 843.2606C1871.0983 826.6606 1857.9083 813.9606 1841.7983 813.9606H1331.0583C1315.9183 813.9606 1302.2483 826.6606 1302.2483 843.2606C1302.2483 859.8606 1315.9183 872.0706 1331.0583 872.0706Z"/>
</svg>