<?xml version="1.0" encoding="UTF-8" standalone="no"?>
<svg xmlns="http://www.w3.org/2000/svg"
     width="580.56640625" height="698.2421875"
     viewBox="0 0 580.56640625 698.2421875"
     fill="currentColor">
  <path d="M82.5183 698.2402H336.9183C486.3283 698.2402 580.5683 619.6302 580.5683 499.0202C580.5683 403.8102 511.7183 334.9602 412.5983 329.5902V325.6802C493.6483 314.4502 548.8283 253.4202 548.8283 175.7802C548.8283 66.8902 465.3283 0.0002 330.0783 0.0002H82.5183C30.2783 0.0002 -0.0017 30.7602 -0.0017 84.4702V614.2602C-0.0017 667.4802 30.2783 698.2402 82.5183 698.2402ZM161.1283 290.0402V114.7502H281.2483C349.6083 114.7502 390.1383 146.0002 390.1383 199.7102C390.1383 256.3502 345.2183 290.0402 269.0383 290.0402ZM161.1283 585.4502V391.6002H283.6883C369.1383 391.6002 416.9883 424.8002 416.9883 487.3002C416.9883 551.2702 371.0983 585.4502 287.1083 585.4502Z"/>
</svg>