<?xml version="1.0" encoding="UTF-8" standalone="no"?>
<svg xmlns="http://www.w3.org/2000/svg"
     width="970.21484375" height="896.484375"
     viewBox="0 0 970.21484375 896.484375"
     fill="currentColor">
  <path d="M-0.0017 294.9245C-0.0017 502.9345 174.3183 707.5145 449.7083 883.3045C459.9583 889.6445 475.0983 896.4845 484.8683 896.4845C495.1183 896.4845 509.7683 889.6445 520.5083 883.3045C795.8983 707.5145 970.2183 502.9345 970.2183 294.9245C970.2183 122.0745 851.5583 0.0045 692.8683 0.0045C602.5383 0.0045 529.2983 42.9645 484.8683 108.8845C441.4083 43.4545 367.6783 0.0045 276.8583 0.0045C118.6483 0.0045 -0.0017 122.0745 -0.0017 294.9245ZM78.6183 294.9245C78.6183 165.0345 162.5983 78.6145 275.8783 78.6145C368.1683 78.6145 420.4083 135.7445 452.1483 184.5745C465.3283 204.1045 473.6283 209.4745 484.8683 209.4745C496.5783 209.4745 503.9083 203.6145 518.0683 184.5745C551.7583 136.7145 602.5383 78.6145 693.8483 78.6145C807.6183 78.6145 891.5983 165.0345 891.5983 294.9245C891.5983 476.5645 699.7083 672.3645 495.1183 808.1045C490.2383 811.5245 486.8183 813.9645 484.8683 813.9645C483.3983 813.9645 479.9783 811.5245 475.0983 808.1045C270.5083 672.3645 78.6183 476.5645 78.6183 294.9245ZM326.1683 496.0945C326.1683 504.8845 333.4983 511.2345 342.7783 511.2345H463.8683L398.9283 684.5745C390.6283 707.5145 415.0383 720.2145 430.1783 701.6645L625.4883 456.0545C629.3983 451.6645 631.8383 446.2845 631.8383 441.8945C631.8383 433.1045 624.0283 426.2645 614.7483 426.2645H494.1383L558.5983 253.4145C566.8983 229.9845 542.4783 217.7745 527.8283 236.3245L332.0283 481.9345C328.6183 486.8145 326.1683 491.2145 326.1683 496.0945Z"/>
</svg>