<?xml version="1.0" encoding="UTF-8" standalone="no"?>
<svg xmlns="http://www.w3.org/2000/svg"
     width="798.828125" height="970.703125"
     viewBox="0 0 798.828125 970.703125"
     fill="currentColor">
  <path d="M399.4097 970.7081C407.2297 970.7081 419.4297 967.7781 431.6397 961.4281C709.4697 815.9181 798.8297 743.1681 798.8297 567.8681V199.7081C798.8297 149.4181 777.3397 133.2981 736.3297 116.2081C679.1997 92.7781 496.5797 26.3681 439.9397 6.8381C426.7597 2.4381 413.0897 -0.0019 399.4097 -0.0019C385.7397 -0.0019 372.0697 2.9281 359.3797 6.8381C302.2497 25.3881 119.6297 93.2581 62.4997 116.2081C21.9697 132.8081 -0.0003 149.4181 -0.0003 199.7081V567.8681C-0.0003 743.1681 94.2397 807.6181 367.1897 961.4281C379.8797 968.2581 391.5997 970.7081 399.4097 970.7081ZM179.1997 501.4681C179.1997 495.6081 182.1297 488.2781 187.4997 481.9381L463.3797 135.7381C484.3797 109.3781 519.5297 126.9481 506.8397 159.6681L416.0197 403.8081H586.4297C599.6097 403.8081 609.3797 413.0881 609.3797 426.2681C609.3797 432.1281 606.4497 439.4481 601.0697 445.7981L325.1997 791.9881C304.1997 818.3581 269.5297 800.7781 281.7397 768.5581L373.0497 523.9281H202.1497C189.4497 523.9281 179.1997 514.6481 179.1997 501.4681Z"/>
</svg>