<?xml version="1.0" encoding="UTF-8" standalone="no"?>
<svg xmlns="http://www.w3.org/2000/svg"
     width="996.09375" height="996.09375"
     viewBox="0 0 996.09375 996.09375"
     fill="currentColor">
  <path d="M498.0477 996.0977C770.5077 996.0977 996.0977 770.5077 996.0977 498.0477C996.0977 226.0777 770.0177 -0.0023 497.5577 -0.0023C225.5877 -0.0023 -0.0023 226.0777 -0.0023 498.0477C-0.0023 770.5077 226.0777 996.0977 498.0477 996.0977ZM221.6777 665.0377V531.2477C221.6777 492.1877 229.9777 469.7277 251.4677 442.3877L271.4877 416.5077C280.2777 374.0277 294.9177 330.0777 303.2277 312.9877C315.9177 286.6177 339.8477 270.9977 370.6077 267.0877C386.7177 265.1377 437.4977 264.1577 498.0477 264.1577C558.1077 264.1577 609.3777 265.1377 624.9977 267.0877C656.2477 271.4877 680.1777 286.6177 692.3877 312.9877C700.6877 330.0777 715.3277 374.0277 724.6077 416.5077L744.1377 442.3877C766.1177 469.7277 773.9277 492.1877 773.9277 531.2477V665.0377C773.9277 682.6177 760.2577 696.2877 743.1677 696.2877H715.3277C697.7577 696.2877 684.0777 682.6177 684.0777 665.0377V626.4677C632.3277 629.8877 558.1077 631.8377 498.0477 631.8377C437.9877 631.8377 363.2777 629.8877 311.5277 626.4677V665.0377C311.5277 682.6177 297.8477 696.2877 280.7577 696.2877H252.9277C235.3477 696.2877 221.6777 682.6177 221.6777 665.0377ZM415.0377 466.3077C415.0377 471.6777 419.4377 476.0777 425.2977 476.0777H488.2777L457.5177 560.0577C451.6577 575.1977 467.7777 583.4977 477.5377 571.2877L577.6377 441.8977C579.0977 438.9677 581.0577 435.5477 581.0577 432.6177C581.0577 426.7577 576.6577 422.3677 570.7977 422.3677L507.8077 422.8477L539.0577 338.3777C544.4377 323.2377 529.2977 315.9177 519.5277 328.1277L418.4577 457.5177C416.0177 460.4477 415.0377 463.3777 415.0377 466.3077Z"/>
</svg>