<?xml version="1.0" encoding="UTF-8" standalone="no"?>
<svg xmlns="http://www.w3.org/2000/svg"
     width="1151.3671875" height="898.92578125"
     viewBox="0 0 1151.3671875 898.92578125"
     fill="currentColor">
  <path d="M153.3183 898.9261H998.0483C1100.5883 898.9261 1151.3683 848.6361 1151.3683 748.0461V275.8761C1151.3683 175.2961 1100.5883 124.9961 998.0483 124.9961H930.6683V59.5661C930.6683 22.4561 909.1783 -0.0039 871.5783 -0.0039H727.5383C690.4283 -0.0039 668.9483 22.4561 668.9483 59.5661V124.9961H482.9083V59.5661C482.9083 22.4561 461.4283 -0.0039 423.8283 -0.0039H279.7883C242.1883 -0.0039 221.1883 22.4561 221.1883 59.5661V124.9961H153.3183C51.2683 124.9961 -0.0017 175.2961 -0.0017 275.8761V748.0461C-0.0017 848.6361 51.2683 898.9261 153.3183 898.9261ZM416.0183 544.4361C416.0183 539.5461 418.4583 535.1561 422.3683 530.2761L624.0283 276.8561C639.1583 257.3261 664.5483 270.5061 655.7583 294.4361L589.3583 472.6561H713.8683C723.1483 472.6561 731.4483 479.9761 731.4483 488.7661C731.4483 493.6561 729.0083 499.0261 724.6083 503.4161L523.4383 756.3461C508.2983 775.8761 482.4183 762.6961 491.2083 739.2561L558.1083 560.5461H433.1083C423.8283 560.5461 416.0183 553.7061 416.0183 544.4361Z"/>
</svg>