<?xml version="1.0" encoding="UTF-8" standalone="no"?>
<svg xmlns="http://www.w3.org/2000/svg"
     width="996.09375" height="996.09375"
     viewBox="0 0 996.09375 996.09375"
     fill="currentColor">
  <path d="M498.0477 996.0977C770.5077 996.0977 996.0977 770.5077 996.0977 498.0477C996.0977 226.0777 770.0177 -0.0023 497.5577 -0.0023C225.5877 -0.0023 -0.0023 226.0777 -0.0023 498.0477C-0.0023 770.5077 226.0777 996.0977 498.0477 996.0977ZM172.3677 593.2577L341.7977 374.0277C352.5377 361.3277 362.7977 355.4677 374.0277 355.4677C382.8077 355.4677 392.0877 358.8877 401.8577 364.2577L620.6077 481.4477L788.5777 391.1177C818.3577 374.9977 845.2177 404.2977 824.2177 431.6377L653.8077 651.8577C643.5577 665.0377 632.3277 670.4077 621.0977 670.4077C612.7977 670.4077 603.5177 666.9877 593.7477 661.6177L374.5077 544.4377L208.0077 634.7677C179.1977 650.3877 149.4177 623.5377 172.3677 593.2577Z"/>
</svg>