<?xml version="1.0" encoding="UTF-8" standalone="no"?>
<svg xmlns="http://www.w3.org/2000/svg"
     width="996.09375" height="996.09375"
     viewBox="0 0 996.09375 996.09375"
     fill="currentColor">
  <path d="M498.0477 996.0959C770.5077 996.0959 996.0977 770.0159 996.0977 498.0459C996.0977 225.5859 770.0177 -0.0041 497.5577 -0.0041C225.5877 -0.0041 -0.0023 225.5859 -0.0023 498.0459C-0.0023 770.0159 226.0777 996.0959 498.0477 996.0959ZM498.0477 913.0859C267.5777 913.0859 83.4977 728.5159 83.4977 498.0459C83.4977 267.5759 267.0877 83.0059 497.5577 83.0059C728.0277 83.0059 913.0877 267.5759 913.0877 498.0459C913.0877 728.5159 728.5177 913.0859 498.0477 913.0859ZM229.9777 659.6659C229.9777 676.7559 243.1677 689.4559 260.2577 689.4559H287.1077C303.7077 689.4559 316.8977 676.7559 316.8977 659.6659V622.0659C367.1877 624.9959 439.9377 627.4459 498.0477 627.4459C556.1477 627.4459 628.4177 624.9959 678.7077 622.0659V659.6659C678.7077 676.7559 691.8977 689.4559 708.9877 689.4559H735.8377C752.4377 689.4559 765.6277 676.7559 765.6277 659.6659V529.2959C765.6277 491.6959 757.8077 470.2159 736.8177 442.8759L717.7777 418.4559C708.9877 377.4459 694.3377 334.4759 687.0077 317.8759C674.8077 292.4759 651.3677 277.8359 621.0977 273.4359C605.9577 271.4859 556.1477 270.5059 498.0477 270.5059C439.4577 270.5059 390.1377 271.4859 374.5077 273.4359C344.7277 277.3459 321.2877 292.4759 309.0777 317.8759C301.2677 334.4759 286.6177 377.4459 278.3177 418.4559L258.7877 442.8759C238.2777 470.2159 229.9777 491.6959 229.9777 529.2959ZM417.4777 466.7959C417.4777 463.8659 418.4577 460.9359 420.8977 458.0059L519.0477 332.5159C528.3177 320.3159 542.9677 328.1259 537.5977 342.2859L507.3277 423.8259H568.3577C574.2177 423.8259 578.6177 428.2259 578.6177 434.0859C578.6177 436.5259 576.6577 439.9459 575.1977 442.3859L478.0277 567.8759C468.7477 580.0759 453.1277 571.7759 458.4977 557.6159L488.7677 475.5859H427.7377C421.8777 475.5859 417.4777 471.6759 417.4777 466.7959Z"/>
</svg>