<?xml version="1.0" encoding="UTF-8" standalone="no"?>
<svg xmlns="http://www.w3.org/2000/svg"
     width="812.1337890625" height="1091.1646852923095"
     viewBox="0 0 812.1337890625 1091.1646852923095"
     fill="currentColor">
  <path d="M298.2192 303.8178L352.9092 358.4978L461.7892 214.4578L383.1792 389.2578L502.8092 508.8878H627.8092L574.0992 579.6878L631.2292 636.8178L737.6692 500.0978C745.9692 489.8478 750.3692 480.0778 750.3692 468.8478C750.3692 450.2978 735.7192 436.1378 715.2092 436.1378H439.3292L584.8392 56.2578C604.3692 5.9578 550.6592 -21.3822 518.9192 20.6078ZM747.9292 940.5278C762.5692 955.1778 786.9892 955.1778 801.1492 940.5278C815.7992 926.3678 815.7992 902.4478 801.1492 887.3078L64.3292 150.4978C49.6792 135.8478 24.7792 135.8478 10.6192 150.4978C-3.5408 164.6578 -3.5408 189.5578 10.6192 203.7178ZM62.3792 622.1678C62.3792 641.2178 77.0292 655.3778 97.5392 655.3778H373.4092L227.9092 1034.7678C208.3692 1085.0678 262.0892 1112.4078 293.8192 1070.9078L514.0392 787.6978L459.3492 733.0078L350.9492 876.5678L429.0792 702.2478L308.4692 582.6178H184.4492L238.1592 511.8178L181.0292 454.6878L75.0692 590.9178C66.7692 601.6678 62.3792 611.4278 62.3792 622.1678Z"/>
</svg>