<?xml version="1.0" encoding="UTF-8" standalone="no"?>
<svg xmlns="http://www.w3.org/2000/svg"
     width="811.5234375" height="986.328125"
     viewBox="0 0 811.5234375 986.328125"
     fill="currentColor">
  <path d="M405.7573 986.3295C413.5773 986.3295 426.2673 983.3995 438.4773 976.5595C716.3073 820.7995 811.5273 754.8795 811.5273 576.6595V203.1295C811.5273 151.8595 789.5473 135.7395 748.0473 118.1595C690.4273 94.2395 504.3973 27.3395 446.7773 7.3195C433.5973 2.9295 419.4373 -0.0005 405.7573 -0.0005C392.0873 -0.0005 377.9273 3.9095 365.2373 7.3195C307.6173 23.9295 121.0973 94.7295 63.4773 118.1595C22.4573 135.2495 -0.0027 151.8595 -0.0027 203.1295V576.6595C-0.0027 754.8795 95.7073 820.3095 373.0473 976.5595C385.7373 983.3995 397.9473 986.3295 405.7573 986.3295ZM405.7573 897.9495C397.9473 897.9495 390.1373 895.0195 375.4873 886.2295C149.9073 749.5095 77.6373 709.4695 77.6373 558.5895V218.2595C77.6373 201.6595 80.5673 195.3095 94.2373 189.9395C168.4573 160.6395 312.4973 112.3095 386.2273 83.0095C394.0473 79.5895 400.3873 78.6095 405.7573 78.6095C411.1373 78.6095 417.4773 80.0795 425.2973 83.0095C499.0273 112.3095 642.0873 164.0595 717.7773 189.9395C730.9573 194.8195 733.8873 201.6595 733.8873 218.2595V558.5895C733.8873 709.4695 661.6173 749.0195 436.0373 886.2295C421.8773 895.0195 413.5773 897.9495 405.7573 897.9495ZM202.1473 501.4695C202.1473 513.1795 211.4273 521.4795 223.6373 521.4795H380.8573L296.8773 747.0695C285.6473 776.8595 317.3873 793.4595 336.9173 769.5295L591.7973 449.7095C597.1673 443.3595 599.6073 437.0095 599.6073 431.1495C599.6073 419.4295 590.3273 411.1295 578.1273 411.1295H420.8973L504.8873 185.0595C516.1173 155.2695 484.3773 139.1595 464.8473 163.0895L209.9573 482.9095C205.0773 488.7695 202.1473 495.6095 202.1473 501.4695Z"/>
</svg>