<?xml version="1.0" encoding="UTF-8" standalone="no"?>
<svg xmlns="http://www.w3.org/2000/svg"
     width="898.92578125" height="898.92578125"
     viewBox="0 0 898.92578125 898.92578125"
     fill="currentColor">
  <path d="M153.3183 898.9295H745.6083C848.1483 898.9295 898.9283 848.1495 898.9283 747.5595V151.3695C898.9283 50.7795 848.1483 -0.0005 745.6083 -0.0005H153.3183C51.2683 -0.0005 -0.0017 50.2895 -0.0017 151.3695V747.5595C-0.0017 848.6295 51.2683 898.9295 153.3183 898.9295ZM154.2983 820.3095C105.4683 820.3095 78.6183 794.4295 78.6183 743.6495V155.2695C78.6183 104.4895 105.4683 78.6095 154.2983 78.6095H744.6283C792.9683 78.6095 820.3083 104.4895 820.3083 155.2695V743.6495C820.3083 794.4295 792.9683 820.3095 744.6283 820.3095ZM235.8383 482.4195C235.8383 494.6295 246.0983 503.4195 258.2983 503.4195H423.8283L335.4483 740.7195C323.7283 771.9695 356.9383 789.0595 377.4383 763.6695L645.5083 427.7295C650.3883 421.8795 653.3183 415.0395 653.3183 408.6895C653.3183 396.4795 643.5583 387.6995 630.8583 387.6995H465.8183L553.7083 150.3895C565.9183 119.1395 532.2283 102.0495 511.7183 126.9495L244.1383 462.8895C238.7683 469.2395 235.8383 476.0695 235.8383 482.4195Z"/>
</svg>