<?xml version="1.0" encoding="UTF-8" standalone="no"?>
<svg xmlns="http://www.w3.org/2000/svg"
     width="898.92578125" height="898.92578125"
     viewBox="0 0 898.92578125 898.92578125"
     fill="currentColor">
  <path d="M153.3183 898.9295H745.6083C848.1483 898.9295 898.9283 848.1495 898.9283 747.5595V151.3695C898.9283 50.7795 848.1483 -0.0005 745.6083 -0.0005H153.3183C51.2683 -0.0005 -0.0017 50.2895 -0.0017 151.3695V747.5595C-0.0017 848.6295 51.2683 898.9295 153.3183 898.9295ZM229.4883 483.3995C229.4883 477.0495 232.4183 469.7295 237.7883 463.3795L513.6683 117.1895C534.6683 91.3095 569.8283 108.8895 557.1283 141.1095L466.3083 385.7395H636.7183C649.8983 385.7395 659.6683 395.0195 659.6683 407.7195C659.6683 414.0595 656.7383 421.3895 651.8583 427.2495L375.4883 773.4395C354.4883 799.8095 319.8283 782.2295 332.0283 749.9995L423.3383 505.3695H252.4383C239.7483 505.3695 229.4883 496.0895 229.4883 483.3995Z"/>
</svg>