<?xml version="1.0" encoding="UTF-8" standalone="no"?>
<svg xmlns="http://www.w3.org/2000/svg"
     width="996.09375" height="996.09375"
     viewBox="0 0 996.09375 996.09375"
     fill="currentColor">
  <path d="M498.0477 996.0977C770.5077 996.0977 996.0977 770.5077 996.0977 498.0477C996.0977 226.0777 770.0177 -0.0023 497.5577 -0.0023C225.5877 -0.0023 -0.0023 226.0777 -0.0023 498.0477C-0.0023 770.5077 226.0777 996.0977 498.0477 996.0977ZM604.4877 190.4277L515.6277 428.2177L425.2977 337.3977L561.0377 166.5077C581.5477 140.6277 616.2077 158.2077 604.4877 190.4277ZM735.3477 767.5777L228.0277 260.7377C219.7277 251.4677 219.2377 236.8177 228.0277 228.5177C237.3077 218.7477 251.9577 218.7477 261.2277 228.5177L768.0677 735.3477C776.8577 744.1377 776.8577 758.2977 768.0677 767.5777C759.2777 776.3677 744.1377 775.8777 735.3477 767.5777ZM461.9177 548.3377H304.6877C291.9877 548.3377 281.2477 539.5477 281.2477 526.3677C281.2477 520.5077 285.1577 513.6677 290.0377 506.8377L347.6577 434.0777ZM523.9277 436.5277H683.1077C695.7977 436.5277 706.0577 445.7977 706.0577 458.4977C706.0577 464.8477 703.1277 471.6777 698.2377 478.0277L639.1577 551.7577ZM562.0077 648.9277L422.8477 823.2377C401.8577 849.1177 367.6777 831.5477 379.8877 799.3177L469.7277 555.6677Z"/>
</svg>