<?xml version="1.0" encoding="UTF-8" standalone="no"?>
<svg xmlns="http://www.w3.org/2000/svg"
     width="996.09375" height="996.09375"
     viewBox="0 0 996.09375 996.09375"
     fill="currentColor">
  <path d="M498.0477 996.0959C770.5077 996.0959 996.0977 770.5059 996.0977 498.0459C996.0977 226.0759 770.0177 -0.0041 497.5577 -0.0041C225.5877 -0.0041 -0.0023 226.0759 -0.0023 498.0459C-0.0023 770.5059 226.0777 996.0959 498.0477 996.0959ZM498.0477 913.0859C267.5777 913.0859 83.4977 728.5159 83.4977 498.0459C83.4977 268.0659 267.0877 83.0059 497.5577 83.0059C728.0277 83.0059 913.0877 268.0659 913.0877 498.0459C913.0877 728.5159 728.5177 913.0859 498.0477 913.0859ZM600.5877 199.7059C612.3077 168.4559 578.6177 151.3659 558.5977 176.7559L426.7577 342.7759L514.6477 430.6659ZM728.0277 759.7659C736.3277 768.0659 750.9777 768.0659 759.2777 759.7659C768.0677 750.4859 768.0677 737.3059 759.2777 728.5159L267.5777 236.3259C258.7877 227.5359 244.6277 227.5359 235.8377 236.3259C227.0477 244.6259 227.5377 259.2759 235.8377 267.5759ZM462.8877 546.8759L352.0477 436.0359L295.8977 506.3459C291.0177 513.1859 287.5977 519.5359 287.5977 525.3859C287.5977 538.0859 297.8477 546.8759 310.0577 546.8759ZM522.4577 438.4759L634.2777 550.2959L691.4077 479.0059C696.2877 472.1659 699.2177 465.8159 699.2177 459.4759C699.2177 447.2659 689.4577 438.4759 676.7577 438.4759ZM559.5677 644.0459L470.2177 554.1959L382.8077 790.0359C371.0977 821.7759 404.2977 838.3759 424.3177 813.4759Z"/>
</svg>