<?xml version="1.0" encoding="UTF-8" standalone="no"?>
<svg xmlns="http://www.w3.org/2000/svg"
     width="898.92578125" height="898.92578125"
     viewBox="0 0 898.92578125 898.92578125"
     fill="currentColor">
  <path d="M153.3183 898.9295H745.6083C848.1483 898.9295 898.9283 848.1495 898.9283 747.5595V151.3695C898.9283 50.7795 848.1483 -0.0005 745.6083 -0.0005H153.3183C51.2683 -0.0005 -0.0017 50.2895 -0.0017 151.3695V747.5595C-0.0017 848.6295 51.2683 898.9295 153.3183 898.9295ZM300.7783 715.8195C284.1783 715.8195 273.4383 703.6095 273.4383 683.1095V259.2795C273.4383 210.4495 298.8283 184.5695 347.6583 184.5695H551.7583C601.0783 184.5695 626.4683 210.4495 626.4683 259.2795V683.1095C626.4683 703.6095 615.7183 715.8195 598.6283 715.8195C585.4483 715.8195 578.1283 708.0095 555.1783 685.0595L452.1483 584.4695C450.6883 583.0095 448.7283 583.0095 447.2683 584.4695L344.7283 685.0595C321.2883 708.0095 313.9683 715.8195 300.7783 715.8195Z"/>
</svg>