<?xml version="1.0" encoding="UTF-8" standalone="no"?>
<svg xmlns="http://www.w3.org/2000/svg"
     width="1084.47265625" height="906.73828125"
     viewBox="0 0 1084.47265625 906.73828125"
     fill="currentColor">
  <path d="M-0.0017 825.6823C-0.0017 865.7223 26.3683 881.3523 55.1783 881.3523C71.7783 881.3523 85.9383 871.5823 104.4883 860.3523C158.1983 823.7323 224.6083 801.2723 292.4783 801.7623C362.7883 802.2423 432.6183 828.1223 487.3083 880.8623C508.7883 900.3923 524.4183 906.7423 542.4783 906.7423C560.0583 906.7423 576.1683 900.3923 597.1683 880.8623C651.8583 828.6123 721.6783 802.2423 792.4783 801.7623C860.3483 801.2723 926.2683 823.7323 979.9783 860.3523C998.5383 871.5823 1012.6983 881.3523 1029.7883 881.3523C1058.1083 881.3523 1084.4683 865.7223 1084.4683 825.6823V163.0823C1084.4683 154.7823 1083.9883 147.9523 1078.6183 139.6523C1035.1583 63.9623 924.8083 0.0023 790.5283 0.0023C684.0783 0.0023 591.7983 42.4823 542.4783 102.5423C493.1683 42.4823 400.3883 0.0023 294.4383 0.0023C159.6683 0.0023 49.3183 63.9623 5.8583 139.6523C0.9783 147.9523 -0.0017 154.7823 -0.0017 163.0823ZM78.6183 784.1823V174.3123C118.1683 117.1923 204.0983 78.6123 294.4383 78.6123C387.2083 78.6123 468.2583 117.6723 502.9283 177.2423V792.4823C453.1283 752.9323 375.4883 723.1423 294.4383 723.1423C209.4683 723.1423 130.3683 747.0723 78.6183 784.1823ZM581.5383 792.4823V177.2423C616.2083 117.6723 697.7583 78.6123 790.5283 78.6123C880.3683 78.6123 966.3083 117.1923 1005.8583 174.3123V784.1823C954.0983 747.0723 874.9983 723.1423 790.5283 723.1423C708.9883 723.1423 631.3483 752.9323 581.5383 792.4823Z"/>
</svg>