<?xml version="1.0" encoding="UTF-8" standalone="no"?>
<svg xmlns="http://www.w3.org/2000/svg"
     width="658.203125" height="1047.36328125"
     viewBox="0 0 658.203125 1047.36328125"
     fill="currentColor">
  <path d="M51.7559 1047.3631C75.6859 1047.3631 89.8459 1033.6931 133.7859 991.2131L324.7059 803.2231C327.1459 800.7831 331.5459 800.7831 333.4959 803.2231L524.4159 991.2131C568.3559 1033.6931 582.5159 1047.3631 606.4459 1047.3631C639.1559 1047.3631 658.2059 1025.8831 658.2059 987.7931V140.1331C658.2059 47.3631 611.8159 0.0031 520.0159 0.0031H138.1859C46.3859 0.0031 -0.0041 47.3631 -0.0041 140.1331V987.7931C-0.0041 1025.8831 19.0459 1047.3631 51.7559 1047.3631ZM91.7959 915.5231C84.9659 922.3631 77.1459 920.4131 77.1459 910.6431V141.1131C77.1459 99.1231 99.1259 77.1531 142.0859 77.1531H516.6059C559.0859 77.1531 581.0559 99.1231 581.0559 141.1131V910.6431C581.0559 920.4131 573.7259 922.3631 566.4059 915.5231L354.9759 710.4531C339.3559 695.3131 318.8459 695.3131 303.2259 710.4531Z"/>
</svg>