<?xml version="1.0" encoding="UTF-8" standalone="no"?>
<svg xmlns="http://www.w3.org/2000/svg"
     width="938.4163031029726" height="1047.36328125"
     viewBox="0 0 938.4163031029726 1047.36328125"
     fill="currentColor">
  <path d="M785.5253 690.9131V140.1331C785.5253 47.3631 739.1353 0.0031 647.3353 0.0031H265.5053C209.3553 0.0031 170.7753 19.0431 150.2653 56.1531ZM874.3853 963.3831C889.0353 978.0231 912.9653 978.0231 927.6153 963.3831C941.7753 948.7331 942.2653 924.8031 927.6153 910.1531L64.3353 46.3831C49.6853 31.7431 25.2653 31.7431 10.6153 46.3831C-3.5447 60.5431 -3.5447 85.4531 10.6153 99.6131ZM127.3153 299.8031V987.7931C127.3153 1025.8831 146.3653 1047.3631 179.0753 1047.3631C203.0053 1047.3631 217.1653 1033.6931 261.1053 991.2131L452.0253 803.2231C454.4653 800.7831 458.8653 800.7831 460.8153 803.2231L651.7353 991.2131C695.6753 1033.6931 709.8353 1047.3631 733.7653 1047.3631C766.4753 1047.3631 785.5253 1025.8831 785.5253 987.7931V958.9831Z"/>
</svg>