<?xml version="1.0" encoding="UTF-8" standalone="no"?>
<svg xmlns="http://www.w3.org/2000/svg"
     width="1124.51171875" height="895.5078125"
     viewBox="0 0 1124.51171875 895.5078125"
     fill="currentColor">
  <path d="M275.3883 0.0013C167.9683 0.0013 56.1483 49.8012 5.8583 136.2313C0.4883 145.9913 -0.0017 152.3412 -0.0017 170.4113V859.3713C-0.0017 881.8313 14.1583 895.5113 38.5783 895.5113C50.2883 895.5113 61.5283 892.0913 70.3083 883.7913C131.8383 831.0513 213.3783 803.7112 294.9183 803.7112C371.0983 803.7112 441.8983 830.5713 493.6483 875.0013C499.0283 879.3913 505.3683 881.8313 510.7383 881.8313C521.4883 881.8313 530.2783 874.0213 530.2783 861.3313V139.1613C530.2783 126.4612 529.2983 123.5313 520.0183 110.3513C472.1683 41.5013 378.4183 0.0013 275.3883 0.0013ZM849.1183 0.0013C746.0983 0.0013 652.3483 41.5013 604.4883 110.3513C595.2183 123.5313 594.2383 126.4612 594.2383 139.1613V861.3313C594.2383 874.0213 603.0283 881.8313 613.7683 881.8313C619.1383 881.8313 625.9783 879.3913 630.8583 875.0013C682.6183 830.5713 753.4183 803.7112 829.5883 803.7112C911.1283 803.7112 992.6783 831.0513 1054.1983 883.7913C1062.9883 892.0913 1074.2183 895.5113 1085.9383 895.5113C1110.3483 895.5113 1124.5083 881.8313 1124.5083 859.3713V170.4113C1124.5083 152.3412 1124.0283 145.5113 1118.6483 136.2313C1068.3583 49.8012 956.5383 0.0013 849.1183 0.0013Z"/>
</svg>