<?xml version="1.0" encoding="UTF-8" standalone="no"?>
<svg xmlns="http://www.w3.org/2000/svg"
     width="996.09375" height="996.09375"
     viewBox="0 0 996.09375 996.09375"
     fill="currentColor">
  <path d="M498.0477 996.0959C770.5077 996.0959 996.0977 770.0159 996.0977 498.0459C996.0977 225.5859 770.0177 -0.0041 497.5577 -0.0041C225.5877 -0.0041 -0.0023 225.5859 -0.0023 498.0459C-0.0023 770.0159 226.0777 996.0959 498.0477 996.0959ZM498.0477 913.0859C267.5777 913.0859 83.4977 728.5159 83.4977 498.0459C83.4977 267.5759 267.0877 83.0059 497.5577 83.0059C728.0277 83.0059 913.0877 267.5759 913.0877 498.0459C913.0877 728.5159 728.5177 913.0859 498.0477 913.0859ZM353.0277 756.8359C365.7277 756.8359 373.0477 749.5159 395.5077 727.5359L495.1177 629.3959C496.5777 627.9259 498.5377 627.9259 499.9977 629.3959L600.0977 727.5359C622.0677 749.5159 629.3977 756.8359 642.0877 756.8359C658.2077 756.8359 668.4577 745.1159 668.4577 725.5859V314.4559C668.4577 267.0859 644.0477 242.1859 596.6777 242.1859H398.4377C351.0777 242.1859 326.6577 267.0859 326.6577 314.4559V725.5859C326.6577 745.1159 336.9177 756.8359 353.0277 756.8359Z"/>
</svg>