<?xml version="1.0" encoding="UTF-8" standalone="no"?>
<svg xmlns="http://www.w3.org/2000/svg"
     width="1206.3952628350603" height="1082.3298981293374"
     viewBox="0 0 1206.3952628350603 1082.3298981293374"
     fill="currentColor">
  <path d="M-0.0017 968.258C-0.0017 1043.458 36.1283 1080.568 111.3283 1080.568H778.3183C853.0283 1080.568 889.6483 1043.458 889.6483 968.258V599.608L933.5983 981.938C942.8683 1056.148 982.4183 1090.818 1057.1283 1080.568L1107.9083 1073.728C1182.6183 1063.478 1213.3783 1023.928 1205.0783 949.708L1121.0983 219.728C1112.3083 145.508 1072.2683 110.348 997.5583 121.098L946.7783 127.928C923.3383 130.858 904.2983 137.208 889.6483 145.998V112.788C889.6483 37.598 853.0283 -0.002 778.3183 -0.002H682.6183C607.9083 -0.002 571.2883 37.598 571.2883 112.788V306.638C560.5483 304.198 547.8483 302.248 534.1783 302.248H321.2883C307.1283 302.248 294.9183 304.198 283.6883 306.638V248.048C283.6883 172.848 247.5583 135.258 172.8483 135.258H111.3283C36.1283 135.258 -0.0017 172.848 -0.0017 248.048ZM645.0183 1006.838V118.168C645.0183 89.358 660.1583 73.728 690.4283 73.728H770.5083C801.2683 73.728 815.9183 89.358 815.9183 118.168V962.398C815.9183 991.208 801.2683 1006.838 770.5083 1006.838ZM1005.8583 967.288L923.3383 249.028C919.9183 220.218 933.1083 204.098 963.3783 199.708L998.5383 195.308C1028.8083 190.918 1045.4083 205.568 1048.8283 233.888L1131.3483 952.148C1134.7683 981.448 1121.5783 997.068 1091.7983 1001.468L1055.6683 1006.348C1025.8783 1010.738 1009.2783 996.578 1005.8583 967.288ZM73.7283 962.398V253.418C73.7283 224.608 88.8683 208.988 119.1383 208.988H165.0383C195.3083 208.988 209.9583 224.608 209.9583 253.418V1006.838H119.1383C88.8683 1006.838 73.7283 991.208 73.7283 962.398ZM283.6883 1006.838V420.408C283.6883 391.598 298.8283 375.978 329.0983 375.978H526.3683C556.6383 375.978 571.2883 391.598 571.2883 420.408V1006.838ZM328.1283 470.708C328.1283 487.788 340.8183 500.978 358.8883 500.978H497.5583C514.6483 500.978 527.8283 487.788 527.8283 470.708C527.8283 454.098 514.6483 440.918 497.5583 440.918H358.8883C340.8183 440.918 328.1283 454.098 328.1283 470.708ZM328.1283 912.108C328.1283 929.198 340.8183 942.378 358.8883 942.378H497.5583C514.6483 942.378 527.8283 929.198 527.8283 912.108C527.8283 895.508 514.6483 882.328 497.5583 882.328H358.8883C340.8183 882.328 328.1283 895.508 328.1283 912.108Z"/>
</svg>