<?xml version="1.0" encoding="UTF-8" standalone="no"?>
<svg xmlns="http://www.w3.org/2000/svg"
     width="996.09375" height="996.09375"
     viewBox="0 0 996.09375 996.09375"
     fill="currentColor">
  <path d="M498.0477 996.0977C770.5077 996.0977 996.0977 770.5077 996.0977 498.0477C996.0977 226.0777 770.0177 -0.0023 497.5577 -0.0023C225.5877 -0.0023 -0.0023 226.0777 -0.0023 498.0477C-0.0023 770.5077 226.0777 996.0977 498.0477 996.0977ZM532.7177 716.3077V258.7877C532.7177 240.2377 541.9877 229.9777 561.0377 229.9777H618.1677C636.7177 229.9777 646.9777 240.2377 646.9777 258.7877V308.5977L685.5477 298.8277C703.6177 294.4377 715.3277 303.7077 718.7477 321.7777L797.8477 701.6577C800.7777 719.7277 792.9677 731.9377 774.8977 735.8377L738.2777 744.6277C720.7077 749.0277 708.4977 740.2377 705.0777 722.6577L646.9777 441.4077V716.3077C646.9777 734.3777 636.7177 744.6277 618.1677 744.6277H561.0377C541.9877 744.6277 532.7177 734.3777 532.7177 716.3077ZM210.9377 716.3077V322.7577C210.9377 304.6877 221.6777 294.9177 240.7277 294.9177H284.1777C302.7377 294.9177 312.9877 304.6877 312.9877 322.7577V716.3077C312.9877 734.3777 302.7377 744.6277 284.1777 744.6277H240.7277C221.6777 744.6277 210.9377 734.3777 210.9377 716.3077ZM346.6777 716.3077V402.3477C346.6777 384.7677 357.4177 373.5377 375.4877 373.5377H469.7277C488.7677 373.5377 498.0477 384.7677 498.0477 402.3477V716.3077C498.0477 734.3777 488.7677 744.6277 469.7277 744.6277H375.4877C357.4177 744.6277 346.6777 734.3777 346.6777 716.3077ZM382.8077 442.8677C382.8077 450.6877 388.6677 458.0077 397.4577 458.0077H448.2377C457.0277 458.0077 463.3777 450.1977 463.3777 442.8677C463.3777 434.0777 457.0277 427.7377 448.2377 427.7377H397.4577C389.1577 427.7377 382.8077 434.0777 382.8077 442.8677ZM382.8077 676.2677C382.8077 685.0577 389.1577 691.8977 397.4577 691.8977H448.2377C457.0277 691.8977 463.3777 685.0577 463.3777 676.2677C463.3777 667.9677 457.0277 661.1377 448.2377 661.1377H397.4577C388.6677 661.1377 382.8077 667.4777 382.8077 676.2677Z"/>
</svg>