<?xml version="1.0" encoding="UTF-8" standalone="no"?>
<svg xmlns="http://www.w3.org/2000/svg"
     width="996.09375" height="996.09375"
     viewBox="0 0 996.09375 996.09375"
     fill="currentColor">
  <path d="M498.0477 996.0959C770.5077 996.0959 996.0977 770.0159 996.0977 498.0459C996.0977 225.5859 770.0177 -0.0041 497.5577 -0.0041C225.5877 -0.0041 -0.0023 225.5859 -0.0023 498.0459C-0.0023 770.0159 226.0777 996.0959 498.0477 996.0959ZM498.0477 913.0859C267.5777 913.0859 83.4977 728.5159 83.4977 498.0459C83.4977 267.5759 267.0877 83.0059 497.5577 83.0059C728.0277 83.0059 913.0877 267.5759 913.0877 498.0459C913.0877 728.5159 728.5177 913.0859 498.0477 913.0859ZM559.5677 736.8159H614.7477C632.8077 736.8159 642.5777 727.0459 642.5777 709.4759V442.3859L698.7277 715.3359C702.1477 732.4259 713.8677 740.7259 730.9577 736.8159L766.5977 728.0259C784.1777 724.6059 791.5077 712.8859 788.5777 695.3159L712.3977 327.1459C708.9877 309.0859 697.7577 300.2959 680.1777 304.6859L644.5277 313.4759L642.5777 313.9659V265.6259C642.5777 247.5559 632.8077 237.7959 614.7477 237.7959H559.5677C541.0177 237.7959 531.7377 247.5559 531.7377 265.6259V709.4759C531.7377 727.0459 541.0177 736.8159 559.5677 736.8159ZM249.0277 736.8159H291.0177C309.0777 736.8159 318.8477 727.0459 318.8477 709.4759V327.6359C318.8477 310.0559 309.0777 300.2959 291.0177 300.2959H249.0277C230.4677 300.2959 220.2177 310.0559 220.2177 327.6359V709.4759C220.2177 727.0459 230.4677 736.8159 249.0277 736.8159ZM379.3977 736.8159H470.7077C489.2577 736.8159 498.5377 727.0459 498.5377 709.4759V404.7859C498.5377 387.2059 489.2577 376.4659 470.7077 376.4659H379.3977C361.8177 376.4659 351.5577 387.2059 351.5577 404.7859V709.4759C351.5577 727.0459 361.8177 736.8159 379.3977 736.8159ZM400.8777 458.4959C392.0877 458.4959 386.7177 451.1759 386.7177 443.8459C386.7177 435.5459 392.5777 429.1959 400.8777 429.1959H450.1977C458.4977 429.1959 464.8477 435.5459 464.8477 443.8459C464.8477 451.1759 458.4977 458.4959 450.1977 458.4959ZM400.8777 685.5459C392.5777 685.5459 386.7177 679.1959 386.7177 670.4059C386.7177 662.1059 392.0877 655.7659 400.8777 655.7659H450.1977C458.4977 655.7659 464.8477 662.1059 464.8477 670.4059C464.8477 679.1959 458.4977 685.5459 450.1977 685.5459Z"/>
</svg>