<?xml version="1.0" encoding="UTF-8" standalone="no"?>
<svg xmlns="http://www.w3.org/2000/svg"
     width="1393.5546875" height="952.1484375"
     viewBox="0 0 1393.5546875 952.1484375"
     fill="currentColor">
  <path d="M696.7777 952.1533C957.0277 952.1533 1173.3377 736.3233 1173.3377 476.0733C1173.3377 215.8233 957.0277 0.0033 696.2877 0.0033C436.0377 0.0033 220.7077 215.3333 220.7077 476.0733C220.7077 736.3233 436.5277 952.1533 696.7777 952.1533ZM1319.8277 276.8533C1343.2577 269.0433 1355.4677 246.0933 1346.1877 221.6833C1324.2177 165.0433 1294.9177 111.3233 1258.2977 62.9833C1243.1677 42.4833 1217.2877 40.0433 1197.7577 55.6633C1179.6877 70.8033 1178.2277 94.7233 1191.8977 113.2833C1223.1477 155.2733 1248.5377 201.6633 1268.0677 250.4833C1276.8577 272.9533 1297.8477 283.2033 1319.8277 276.8533ZM73.7277 276.8533C96.1877 283.2033 116.6977 272.9533 125.9777 250.4833C145.5077 201.6633 170.8977 155.2733 201.6577 113.2833C215.8177 94.7233 213.8677 70.8033 195.7977 55.6633C176.2677 40.0433 150.3877 42.4833 135.2577 62.9833C99.1177 111.3233 69.8277 165.0433 47.8477 221.6833C38.0877 246.0933 50.2977 269.0433 73.7277 276.8533ZM696.7777 869.1433C479.0077 869.1433 304.1977 694.3333 304.1977 476.0733C304.1977 257.3233 478.5177 82.5233 696.2877 82.5233C914.5477 82.5233 1089.8477 257.3233 1090.3277 476.0733C1090.8177 693.8433 915.5277 869.1433 696.7777 869.1433ZM1335.9377 614.7433C1359.8677 620.1133 1382.3277 605.9533 1385.7377 580.5633C1391.1177 546.3833 1393.5577 511.7233 1393.5577 476.0733C1393.5577 440.9133 1391.1177 406.2533 1385.7377 371.5833C1382.3277 345.7033 1360.3477 332.0333 1336.4277 336.9133C1312.9877 342.2833 1300.2977 361.8133 1303.2277 385.2533C1308.1077 415.0433 1310.0577 444.8233 1310.0577 476.0733C1310.0577 506.3433 1308.1077 537.1133 1303.2277 565.9133C1300.2977 589.8433 1312.9877 609.8633 1335.9377 614.7433ZM57.6177 614.7433C80.5677 609.8633 93.7477 589.8433 90.3277 565.9133C85.4477 537.1133 83.4977 506.3433 83.4977 476.0733C83.4977 444.8233 85.4477 415.0433 90.3277 385.2533C93.7477 361.8133 80.5677 342.2833 57.1277 336.9133C33.6877 332.0333 11.7177 345.7033 7.8077 371.5833C2.4377 406.2533 -0.0023 440.9133 -0.0023 476.0733C-0.0023 511.7233 2.4377 546.3833 7.8077 580.5633C11.7177 605.9533 34.1777 620.1133 57.6177 614.7433ZM1197.7577 895.9933C1217.2877 911.6233 1243.1677 909.1833 1258.2977 888.1833C1294.9177 839.8433 1324.2177 786.1333 1346.1877 729.4933C1355.4677 705.0733 1343.2577 682.6133 1319.8277 674.8033C1297.8477 667.9733 1276.8577 678.2233 1268.0677 700.6833C1248.5377 749.5133 1223.1477 795.9033 1191.8977 837.8933C1178.2277 856.9333 1179.6877 880.3733 1197.7577 895.9933ZM195.7977 895.9933C213.8677 880.3733 215.8177 856.9333 201.6577 837.8933C170.8977 795.9033 145.5077 749.5133 125.9777 700.6833C116.6977 678.2233 96.1877 667.9733 73.7277 674.8033C50.2977 682.6133 38.0877 705.0733 47.8477 729.4933C69.8277 786.1333 99.1177 839.8433 135.2577 888.1833C150.3877 909.1833 176.2677 911.6233 195.7977 895.9933Z"/>
</svg>