<?xml version="1.0" encoding="UTF-8" standalone="no"?>
<svg xmlns="http://www.w3.org/2000/svg"
     width="996.09375" height="996.09375"
     viewBox="0 0 996.09375 996.09375"
     fill="currentColor">
  <path d="M498.0477 996.0959C770.5077 996.0959 996.0977 770.0159 996.0977 498.0459C996.0977 225.5859 770.0177 -0.0041 497.5577 -0.0041C225.5877 -0.0041 -0.0023 225.5859 -0.0023 498.0459C-0.0023 770.0159 226.0777 996.0959 498.0477 996.0959ZM498.0477 913.0859C267.5777 913.0859 83.4977 728.5159 83.4977 498.0459C83.4977 267.5759 267.0877 83.0059 497.5577 83.0059C728.0277 83.0059 913.0877 267.5759 913.0877 498.0459C913.0877 728.5159 728.5177 913.0859 498.0477 913.0859ZM647.9477 750.9759C658.6877 750.9759 667.9677 741.6959 667.9677 730.9559V697.7559C727.5377 690.9159 767.0877 651.8559 767.0877 591.3059C767.0877 543.9459 741.6977 510.2559 684.0777 479.9759L667.9677 471.6759V348.6359C689.9377 356.4459 701.1677 376.4659 703.1277 401.8559C704.5877 417.4759 716.7977 426.7559 729.9777 426.7559C746.5777 426.7559 763.1877 414.0659 759.2777 387.2059C752.9277 340.3359 721.1877 303.2259 667.9677 294.9259V262.6959C667.9677 251.4659 658.6877 242.1859 647.9477 242.1859C636.7177 242.1859 627.4377 251.4659 627.4377 262.6959V294.4359C569.8277 300.7859 528.8077 340.3359 528.8077 397.4559C528.8077 450.6859 559.0777 484.8659 610.3477 510.2559L627.4377 518.5559V645.0159C599.6077 638.6759 586.9177 619.1359 583.9877 589.8459C582.0277 573.2459 570.7977 564.9459 557.6177 564.9459C540.5277 564.9459 524.8977 579.1059 528.8077 604.4959C536.1377 654.2959 570.7977 690.4259 627.4377 697.7559V730.9559C627.4377 741.6959 636.7177 750.9759 647.9477 750.9759ZM282.7177 718.7459C301.2677 718.7459 314.4577 705.5659 314.4577 686.5259V529.2959H353.0277C356.4477 529.2959 359.3777 529.2959 363.2777 529.2959L428.2277 698.2459C433.5977 712.8859 445.3077 718.7459 457.5177 718.7459C478.5177 718.7459 499.0277 702.6359 488.2777 674.8059L424.8077 517.0859C466.3077 500.9759 487.7977 449.2159 487.7977 397.9459C487.7977 319.8259 449.2177 274.9059 366.6977 274.9059H287.5977C263.6677 274.9059 250.4877 292.9659 250.4877 319.3359V686.5259C250.4877 705.5659 263.6677 718.7459 282.7177 718.7459ZM314.4577 479.4959V326.6559H359.3777C402.8277 326.6559 422.8477 354.4959 422.8477 400.3859C422.8477 446.7759 403.8077 479.4959 359.8677 479.4959ZM588.8677 395.0159C588.8677 370.6059 603.5177 352.5359 627.4377 347.1659V450.1959C606.9377 437.9859 588.8677 421.8759 588.8677 395.0159ZM707.5177 595.7059C707.5177 620.6059 693.3577 639.1559 667.9677 645.0159V539.5459C689.4577 553.2259 707.5177 571.7759 707.5177 595.7059Z"/>
</svg>