<?xml version="1.0" encoding="UTF-8" standalone="no"?>
<svg xmlns="http://www.w3.org/2000/svg"
     width="996.09375" height="996.09375"
     viewBox="0 0 996.09375 996.09375"
     fill="currentColor">
  <path d="M498.0477 996.0959C770.5077 996.0959 996.0977 770.0159 996.0977 498.0459C996.0977 225.5859 770.0177 -0.0041 497.5577 -0.0041C225.5877 -0.0041 -0.0023 225.5859 -0.0023 498.0459C-0.0023 770.0159 226.0777 996.0959 498.0477 996.0959ZM662.5977 759.7659C650.8777 759.7659 641.5977 749.9959 641.5977 738.2859V704.1059C583.0077 697.2659 546.8777 660.1559 539.5477 607.9059C535.6477 582.0359 551.7577 567.3859 569.3377 567.3859C583.0077 567.3859 594.7277 576.1759 596.6777 592.7759C599.6077 623.0459 613.7677 643.5559 641.5977 648.9259V520.0159L624.0277 511.2259C571.2877 483.8859 539.5477 449.7059 539.5477 395.0159C539.5477 335.9359 581.5477 294.9259 641.5977 288.5759V255.3759C641.5977 244.1359 650.8777 234.3759 662.5977 234.3759C673.8277 234.3759 683.5977 244.1359 683.5977 255.3759V289.0659C738.2777 297.3659 771.4877 334.9559 777.3477 383.7859C781.7377 412.1059 764.6477 424.8059 747.0677 424.8059C733.3977 424.8059 720.7077 415.5259 719.2377 398.9259C717.2877 373.0459 705.0777 352.5359 683.5977 345.2159V470.7059L700.1977 479.9759C758.7877 511.7159 785.6477 545.8959 785.6477 594.2359C785.6477 656.7359 744.6277 697.2659 683.5977 704.5859V738.2859C683.5977 749.9959 673.8277 759.7659 662.5977 759.7659ZM285.6477 725.5859C266.1177 725.5859 252.4377 712.4059 252.4377 692.8759V313.9659C252.4377 286.6259 266.1177 268.0659 291.0177 268.0659H372.5577C457.5177 268.0659 497.5577 314.4559 497.5577 395.5059C497.5577 448.2459 475.0977 501.4659 432.6177 517.5759L498.0477 680.1759C509.2777 709.4759 487.7977 725.5859 465.8177 725.5859C453.1277 725.5859 440.9177 719.7259 435.5477 705.0759L368.6477 530.2759C364.7477 530.7659 361.8177 530.7659 358.3977 530.7659H318.8477V692.8759C318.8477 712.4059 305.1777 725.5859 285.6477 725.5859ZM318.8477 479.4959H365.2377C410.6477 479.4959 430.1777 445.7959 430.1777 397.9459C430.1777 350.5859 409.6677 321.7759 364.7477 321.7759H318.8477ZM641.5977 343.2659C617.1877 349.1259 602.0477 366.6959 602.0477 392.5759C602.0477 419.4359 619.1377 435.0559 639.1577 446.7759L641.5977 448.2459ZM683.5977 648.9259C709.4777 643.5559 724.1177 624.5159 724.1177 598.6359C724.1177 575.1959 707.0277 557.1259 685.0577 543.4559L683.5977 542.9659Z"/>
</svg>