<?xml version="1.0" encoding="UTF-8" standalone="no"?>
<svg xmlns="http://www.w3.org/2000/svg"
     width="996.09375" height="996.09375"
     viewBox="0 0 996.09375 996.09375"
     fill="currentColor">
  <path d="M498.0477 996.0977C770.5077 996.0977 996.0977 770.5077 996.0977 498.0477C996.0977 226.0777 770.0177 -0.0023 497.5577 -0.0023C225.5877 -0.0023 -0.0023 226.0777 -0.0023 498.0477C-0.0023 770.5077 226.0777 996.0977 498.0477 996.0977ZM211.9177 413.5777V393.5577C211.9177 340.8177 238.2777 314.9377 291.0177 314.9377H344.7277V289.5477C344.7277 249.5077 371.0977 225.0977 412.1077 225.0977H584.9577C625.9777 225.0977 652.3477 249.5077 652.3477 289.5477V314.9377H706.0577C758.7877 314.9377 785.6477 340.8177 785.6477 393.5577V413.5777C690.4277 452.1477 598.6377 465.8177 498.5377 465.8177C398.4377 465.8177 306.6377 452.1477 211.9177 413.5777ZM393.0677 314.9377H604.0077V291.9877C604.0077 278.8077 595.2177 270.9977 581.5477 270.9977H415.5277C401.3677 270.9977 393.0677 278.8077 393.0677 291.9877ZM211.9177 644.0477V458.4977C287.1077 485.8377 357.9077 499.0277 430.1777 503.9077V524.4177C430.1777 542.4777 440.4277 553.2177 458.0077 553.2177H539.0577C556.6377 553.2177 566.8977 542.4777 566.8977 524.4177V503.9077C639.1577 499.0277 709.9577 485.8377 785.6477 458.4977V644.0477C785.6477 697.2677 758.7877 723.1477 706.0577 723.1477H291.0177C238.2777 723.1477 211.9177 697.2677 211.9177 644.0477Z"/>
</svg>