<?xml version="1.0" encoding="UTF-8" standalone="no"?>
<svg xmlns="http://www.w3.org/2000/svg"
     width="1130.37109375" height="946.2890625"
     viewBox="0 0 1130.37109375 946.2890625"
     fill="currentColor">
  <path d="M150.8783 946.2936H979.4883C1080.5683 946.2936 1130.3683 897.4636 1130.3683 797.3636V322.2636C1130.3683 222.1636 1080.5683 173.3436 979.4883 173.3436H812.4983V134.7636C812.4983 42.9736 764.1583 0.0036 675.7783 0.0036H454.0983C370.6083 0.0036 317.3783 42.9736 317.3783 134.7636V173.3436H150.8783C50.2883 173.3436 -0.0017 222.1636 -0.0017 322.2636V797.3636C-0.0017 897.4636 50.2883 946.2936 150.8783 946.2936ZM393.0683 129.3936C393.0683 92.2836 415.0383 71.2936 453.1283 71.2936H677.2483C715.3283 71.2936 736.8183 92.2836 736.8183 129.3936V173.3436H393.0683ZM78.6183 326.1736C78.6183 276.3636 104.0083 251.4636 151.8583 251.4636H978.5183C1026.3683 251.4636 1051.7583 276.3636 1051.7583 326.1736V380.8636C907.2283 433.1036 743.1683 458.9836 564.9383 458.9836C387.2083 458.9836 222.6583 433.1036 78.6183 380.3736ZM151.8583 868.1636C104.0083 868.1636 78.6183 843.7536 78.6183 793.4536V462.4036C188.9683 499.0236 309.0783 520.9936 435.0583 530.2736V569.8236C435.0583 604.0036 455.0783 623.0436 489.2583 623.0436H641.1183C675.2883 623.0436 695.3083 604.0036 695.3083 569.8236V530.2736C821.2883 520.9936 941.4083 499.0236 1051.7583 462.4036V793.4536C1051.7583 843.7536 1026.3683 868.1636 978.5183 868.1636Z"/>
</svg>