<?xml version="1.0" encoding="UTF-8" standalone="no"?>
<svg xmlns="http://www.w3.org/2000/svg"
     width="996.09375" height="996.09375"
     viewBox="0 0 996.09375 996.09375"
     fill="currentColor">
  <path d="M498.0477 996.0959C770.5077 996.0959 996.0977 770.0159 996.0977 498.0459C996.0977 225.5859 770.0177 -0.0041 497.5577 -0.0041C225.5877 -0.0041 -0.0023 225.5859 -0.0023 498.0459C-0.0023 770.0159 226.0777 996.0959 498.0477 996.0959ZM498.0477 913.0859C267.5777 913.0859 83.4977 728.5159 83.4977 498.0459C83.4977 267.5759 267.0877 83.0059 497.5577 83.0059C728.0277 83.0059 913.0877 267.5759 913.0877 498.0459C913.0877 728.5159 728.5177 913.0859 498.0477 913.0859ZM620.6077 779.7859C633.7877 779.7859 641.5977 770.5059 641.5977 755.8559V686.0359H653.3177C724.1177 686.0359 763.1877 646.4859 763.1877 575.6859V391.6059C763.1877 321.2859 724.1177 281.7359 653.3177 281.7359H342.7777C271.9777 281.7359 232.9077 321.7759 232.9077 391.6059V575.6859C232.9077 646.4859 271.9777 686.0359 342.7777 686.0359H506.3477L593.7477 765.1359C604.4877 775.3859 610.8377 779.7859 620.6077 779.7859Z"/>
</svg>