<?xml version="1.0" encoding="UTF-8" standalone="no"?>
<svg xmlns="http://www.w3.org/2000/svg"
     width="996.09375" height="996.09375"
     viewBox="0 0 996.09375 996.09375"
     fill="currentColor">
  <path d="M498.0477 996.0977C770.5077 996.0977 996.0977 770.5077 996.0977 498.0477C996.0977 226.0777 770.0177 -0.0023 497.5577 -0.0023C225.5877 -0.0023 -0.0023 226.0777 -0.0023 498.0477C-0.0023 770.5077 226.0777 996.0977 498.0477 996.0977ZM624.0277 788.0877C614.2577 788.0877 607.4177 783.6877 596.1877 772.4577L506.3477 690.9177H337.8877C265.1377 690.9177 224.6077 649.8977 224.6077 577.1477V387.2077C224.6077 315.4277 265.1377 274.4177 337.8877 274.4177H658.2077C730.9577 274.4177 771.4877 315.4277 771.4877 387.2077V577.1477C771.4877 649.8977 730.9577 690.9177 658.2077 690.9177H645.9977V762.6977C645.9977 777.8277 637.6977 788.0877 624.0277 788.0877Z"/>
</svg>