<?xml version="1.0" encoding="UTF-8" standalone="no"?>
<svg xmlns="http://www.w3.org/2000/svg"
     width="1379.8828125" height="1113.28125"
     viewBox="0 0 1379.8828125 1113.28125"
     fill="currentColor">
  <path d="M310.0583 1045.9014C329.5883 1045.9014 343.2583 1036.1314 366.2083 1014.6514L508.2983 882.3214C480.9583 860.3514 458.4983 825.6814 458.4983 746.0914V422.3614C458.4983 272.9514 549.3183 183.5914 699.2183 183.5914H1041.0183L1040.5283 165.5314C1033.1983 64.9414 967.2883 0.0014 855.4683 0.0014H185.5483C73.7283 0.0014 -0.0017 66.8914 -0.0017 183.5914V663.0814C-0.0017 778.8114 73.7283 853.5114 185.5483 853.5114H266.5983V996.0914C266.5983 1025.8814 282.7183 1045.9014 310.0583 1045.9014ZM1099.1183 1113.2814C1126.9483 1113.2814 1142.5783 1093.7514 1142.5783 1063.4814V921.3914H1194.3383C1306.1483 921.3914 1379.8783 846.6814 1379.8783 730.4714V433.5914C1379.8783 317.3814 1306.1483 250.4914 1194.3383 250.4914H710.4483C593.7483 250.4914 525.3883 317.3814 525.3883 434.0814V730.4714C525.3883 846.6814 593.7483 921.3914 710.4483 921.3914H866.6983L1042.9683 1082.5214C1065.9183 1103.5114 1079.5883 1113.2814 1099.1183 1113.2814ZM954.5883 645.5114C932.6183 645.5114 920.8983 633.3014 919.9183 610.8414L914.5483 451.1714C913.5783 427.2414 930.6683 410.6414 954.0983 410.6414C977.0483 410.6414 995.1183 427.7314 994.1383 451.6614L988.2783 610.8414C987.3083 633.7914 975.5883 645.5114 954.5883 645.5114ZM954.0983 784.6714C928.7083 784.6714 906.7383 764.1614 906.7383 739.2614C906.7383 714.3514 928.2183 693.8514 954.0983 693.8514C979.4883 693.8514 1000.9783 713.8714 1000.9783 739.2614C1000.9783 764.6514 979.0083 784.6714 954.0983 784.6714Z"/>
</svg>