<?xml version="1.0" encoding="UTF-8" standalone="no"?>
<svg xmlns="http://www.w3.org/2000/svg"
     width="1030.76171875" height="996.09375"
     viewBox="0 0 1030.76171875 996.09375"
     fill="currentColor">
  <path d="M320.7983 268.0659C329.0983 268.0659 335.9383 262.6959 337.3983 253.9059C354.0083 165.0359 351.5583 167.9659 440.4283 150.3859C449.2183 148.9259 455.0783 142.0859 455.0783 133.7859C455.0783 125.4859 449.2183 119.1359 440.4283 117.6759C351.5583 100.0959 354.0083 103.0259 337.3983 14.1559C335.9383 5.3759 329.0983 -0.0041 320.7983 -0.0041C312.4983 -0.0041 305.6683 5.3759 304.1983 14.1559C287.5983 103.0259 290.0383 100.0959 201.1683 117.6759C192.3783 119.1359 186.5283 125.4859 186.5283 133.7859C186.5283 142.0859 192.3783 148.9259 201.1683 150.3859C290.0383 167.9659 287.5983 165.0359 304.1983 253.9059C305.6683 262.6959 312.4983 268.0659 320.7983 268.0659ZM583.9883 665.0359C675.2883 665.0359 750.9783 601.0759 769.5283 515.6259C772.9483 515.6259 776.3683 515.6259 779.7883 515.6259C907.7183 515.6259 1011.2283 412.5959 1011.2283 285.1559C1011.2283 157.7159 907.7183 54.1959 779.7883 54.1959C652.8283 54.1959 549.3183 157.7159 549.3183 285.1559C549.3183 286.6259 549.3183 287.5959 549.3183 288.5759C460.9383 304.6859 394.0383 382.3259 394.0383 475.0959C394.0383 580.5659 479.0083 665.0359 583.9883 665.0359ZM623.0483 285.1559C623.0483 198.2459 692.8683 127.9259 779.7883 127.9259C867.6783 127.9259 937.4983 197.7559 937.4983 285.1559C937.4983 372.0659 866.6983 441.8959 779.7883 441.8959C776.8583 441.8959 773.9283 441.8959 770.9983 441.8959C757.3283 365.2359 698.2383 305.1759 623.0483 289.5459C623.0483 288.0859 623.0483 286.6259 623.0483 285.1559ZM129.3983 538.5759C199.7083 538.5759 258.2983 480.4659 258.2983 409.1759C258.2983 338.8659 199.7083 280.7659 129.3983 280.7659C58.1083 280.7659 -0.0017 338.8659 -0.0017 409.1759C-0.0017 480.4659 58.1083 538.5759 129.3983 538.5759ZM129.3983 464.8459C98.6283 464.8459 73.7283 439.9459 73.7283 409.1759C73.7283 379.3959 98.6283 354.4959 129.3983 354.4959C159.6683 354.4959 184.5683 379.3959 184.5683 409.1759C184.5683 439.9459 159.6683 464.8459 129.3983 464.8459ZM583.9883 591.3059C519.5283 591.3059 467.7783 540.0359 467.7783 475.0959C467.7783 410.6459 519.5283 358.8859 583.9883 358.8859C648.4383 358.8859 700.1983 410.6459 700.1983 475.0959C700.1983 540.0359 648.4383 591.3059 583.9883 591.3059ZM851.0783 996.0959C861.3283 996.0959 870.1183 988.2859 871.5783 977.5359C887.2083 860.3559 887.6983 861.3259 1012.2083 837.4059C1022.9483 835.4459 1030.7583 827.1459 1030.7583 816.8959C1030.7583 806.1559 1022.9483 798.3359 1011.7183 796.3859C889.1583 778.8059 886.7183 776.8559 871.5783 656.7359C870.6083 645.5059 861.8183 637.6959 851.0783 637.6959C839.8483 637.6959 831.5383 645.9959 830.5683 657.2259C815.9183 774.4159 813.4783 772.9459 689.4483 796.3859C678.7083 798.8259 671.3883 807.1259 671.3883 816.8959C671.3883 827.6359 679.1983 835.4459 691.4083 837.4059C813.4783 857.4259 815.9183 859.3759 830.5683 976.5659C831.5383 987.7959 839.8483 996.0959 851.0783 996.0959ZM319.8283 980.4659C395.5083 980.4659 458.0083 917.9659 458.0083 841.3059C458.0083 765.6259 395.5083 703.1259 319.8283 703.1259C243.1683 703.1259 180.6683 765.6259 180.6683 841.3059C180.6683 917.9659 243.1683 980.4659 319.8283 980.4659ZM319.8283 906.2459C283.6883 906.2459 254.3983 877.4459 254.3983 841.3059C254.3983 806.1559 284.1783 776.8559 319.8283 776.8559C354.9783 776.8559 384.2783 806.1559 384.2783 841.3059C384.2783 876.4659 354.9783 906.2459 319.8283 906.2459Z"/>
</svg>