<?xml version="1.0" encoding="UTF-8" standalone="no"?>
<svg xmlns="http://www.w3.org/2000/svg"
     width="1030.76171875" height="996.09375"
     viewBox="0 0 1030.76171875 996.09375"
     fill="currentColor">
  <path d="M320.7983 268.0659C329.0983 268.0659 335.9383 262.6959 337.3983 253.9059C354.0083 165.0359 351.5583 167.9659 440.4283 150.3859C449.2183 148.9259 455.0783 142.0859 455.0783 133.7859C455.0783 125.4859 449.2183 119.1359 440.4283 117.6759C351.5583 100.0959 354.0083 103.0259 337.3983 14.1559C335.9383 5.3759 329.0983 -0.0041 320.7983 -0.0041C312.4983 -0.0041 305.6683 5.3759 304.1983 14.1559C287.5983 103.0259 290.0383 100.0959 201.1683 117.6759C192.3783 119.1359 186.5283 125.4859 186.5283 133.7859C186.5283 142.0859 192.3783 148.9259 201.1683 150.3859C290.0383 167.9659 287.5983 165.0359 304.1983 253.9059C305.6683 262.6959 312.4983 268.0659 320.7983 268.0659ZM1011.2283 285.1559C1011.2283 157.7159 907.7183 54.1959 779.7883 54.1959C667.9683 54.1959 574.7083 134.2759 554.1983 240.2359C563.9683 238.7659 573.7283 238.2859 583.9883 238.2859C714.8483 238.2859 820.7983 344.2359 820.7983 475.0959C820.7983 488.2859 819.8283 500.4859 817.8683 512.2059C927.2483 494.6259 1011.2283 399.9059 1011.2283 285.1559ZM129.3983 538.5759C199.7083 538.5759 258.2983 480.4659 258.2983 409.1759C258.2983 338.8659 199.7083 280.7659 129.3983 280.7659C58.1083 280.7659 -0.0017 338.8659 -0.0017 409.1759C-0.0017 480.4659 58.1083 538.5759 129.3983 538.5759ZM583.9883 655.2759C683.5983 655.2759 764.1583 575.1959 764.1583 475.0959C764.1583 375.4859 683.5983 294.9259 583.9883 294.9259C484.3783 294.9259 403.8083 375.4859 403.8083 475.0959C403.8083 575.1959 484.3783 655.2759 583.9883 655.2759ZM851.0783 996.0959C861.3283 996.0959 870.1183 988.2859 871.5783 977.5359C887.2083 860.3559 887.6983 861.3259 1012.2083 837.4059C1022.9483 835.4459 1030.7583 827.1459 1030.7583 816.8959C1030.7583 806.1559 1022.9483 798.3359 1011.7183 796.3859C889.1583 778.8059 886.7183 776.8559 871.5783 656.7359C870.6083 645.5059 861.8183 637.6959 851.0783 637.6959C839.8483 637.6959 831.5383 645.9959 830.5683 657.2259C815.9183 774.4159 813.4783 772.9459 689.4483 796.3859C678.7083 798.8259 671.3883 807.1259 671.3883 816.8959C671.3883 827.6359 679.1983 835.4459 691.4083 837.4059C813.4783 857.4259 815.9183 859.3759 830.5683 976.5659C831.5383 987.7959 839.8483 996.0959 851.0783 996.0959ZM319.8283 980.4659C395.5083 980.4659 458.0083 917.9659 458.0083 841.3059C458.0083 765.6259 395.5083 703.1259 319.8283 703.1259C243.1683 703.1259 180.6683 765.6259 180.6683 841.3059C180.6683 917.9659 243.1683 980.4659 319.8283 980.4659Z"/>
</svg>