<?xml version="1.0" encoding="UTF-8" standalone="no"?>
<svg xmlns="http://www.w3.org/2000/svg"
     width="1149.4140625" height="1041.015625"
     viewBox="0 0 1149.4140625 1041.015625"
     fill="currentColor">
  <path d="M-0.0017 952.1486C-0.0017 1006.3486 31.2483 1041.0186 81.0583 1041.0186H663.0883C712.8883 1041.0186 744.1383 1006.3486 744.1383 952.1486V88.8686C744.1383 34.6686 712.8883 -0.0014 663.0883 -0.0014H81.0583C31.2483 -0.0014 -0.0017 34.6686 -0.0017 88.8686ZM187.0083 262.2086V167.4786C187.0083 155.2686 194.8283 146.4886 207.0283 146.4886H304.6883C316.8983 146.4886 325.6883 155.2686 325.6883 167.4786V262.2086C325.6883 274.8986 316.8983 283.1986 304.6883 283.1986H207.0283C194.8283 283.1986 187.0083 274.8986 187.0083 262.2086ZM422.8483 262.2086V167.4786C422.8483 155.2686 430.6683 146.4886 443.3583 146.4886H540.5283C552.7383 146.4886 561.5283 155.2686 561.5283 167.4786V262.2086C561.5283 274.8986 552.7383 283.1986 540.5283 283.1986H443.3583C430.6683 283.1986 422.8483 274.8986 422.8483 262.2086ZM787.1083 1041.0186H1068.8483C1118.1683 1041.0186 1149.4183 1006.3486 1149.4183 952.1486V329.0986C1149.4183 274.8986 1118.1683 240.2386 1068.8483 240.2386H811.0383V952.1486C811.0383 984.8586 803.2183 1014.6486 787.1083 1041.0186ZM187.0083 461.4286V366.6986C187.0083 354.4886 194.8283 345.6986 207.0283 345.6986H304.6883C316.8983 345.6986 325.6883 354.4886 325.6883 366.6986V461.4286C325.6883 474.1186 316.8983 482.4186 304.6883 482.4186H207.0283C194.8283 482.4186 187.0083 474.1186 187.0083 461.4286ZM422.8483 461.4286V366.6986C422.8483 354.4886 430.6683 345.6986 443.3583 345.6986H540.5283C552.7383 345.6986 561.5283 354.4886 561.5283 366.6986V461.4286C561.5283 474.1186 552.7383 482.4186 540.5283 482.4186H443.3583C430.6683 482.4186 422.8483 474.1186 422.8483 461.4286ZM921.8783 487.3086V409.1786C921.8783 398.9286 928.2183 392.0886 938.9683 392.0886H1020.0183C1030.2783 392.0886 1037.1083 398.9286 1037.1083 409.1786V487.3086C1037.1083 497.5586 1030.2783 504.8786 1020.0183 504.8786H938.9683C928.2183 504.8786 921.8783 497.5586 921.8783 487.3086ZM187.0083 660.6486V565.9186C187.0083 553.2186 194.8283 544.9186 207.0283 544.9186H304.6883C316.8983 544.9186 325.6883 553.2186 325.6883 565.9186V660.6486C325.6883 672.8486 316.8983 681.6386 304.6883 681.6386H207.0283C194.8283 681.6386 187.0083 672.8486 187.0083 660.6486ZM422.8483 660.6486V565.9186C422.8483 553.2186 430.6683 544.9186 443.3583 544.9186H540.5283C552.7383 544.9186 561.5283 553.2186 561.5283 565.9186V660.6486C561.5283 672.8486 552.7383 681.6386 540.5283 681.6386H443.3583C430.6683 681.6386 422.8483 672.8486 422.8483 660.6486ZM921.8783 679.6886V601.5586C921.8783 591.3086 928.2183 584.4686 938.9683 584.4686H1020.0183C1030.2783 584.4686 1037.1083 591.3086 1037.1083 601.5586V679.6886C1037.1083 689.9386 1030.2783 696.7786 1020.0183 696.7786H938.9683C928.2183 696.7786 921.8783 689.9386 921.8783 679.6886ZM203.1283 962.3986V803.7086C203.1283 781.2486 217.7783 766.5986 240.2383 766.5986H508.2983C530.7583 766.5986 545.4083 781.2486 545.4083 803.7086V962.3986ZM921.8783 872.0686V793.9486C921.8783 783.6886 928.2183 776.3686 938.9683 776.3686H1020.0183C1030.2783 776.3686 1037.1083 783.6886 1037.1083 793.9486V872.0686C1037.1083 882.3286 1030.2783 889.1586 1020.0183 889.1586H938.9683C928.2183 889.1586 921.8783 882.3286 921.8783 872.0686Z"/>
</svg>