<?xml version="1.0" encoding="UTF-8" standalone="no"?>
<svg xmlns="http://www.w3.org/2000/svg"
     width="1148.4375" height="1041.015625"
     viewBox="0 0 1148.4375 1041.015625"
     fill="currentColor">
  <path d="M-0.0017 952.1486C-0.0017 1006.3486 31.2483 1041.0186 81.0583 1041.0186H1067.8683C1117.1883 1041.0186 1148.4383 1006.3486 1148.4383 952.1486V329.0986C1148.4383 274.8986 1117.1883 240.2386 1067.8683 240.2386H777.3483V88.8686C777.3483 34.6686 746.0983 -0.0014 696.7783 -0.0014H81.0583C31.2483 -0.0014 -0.0017 34.6686 -0.0017 88.8686ZM78.6183 934.0786V106.9286C78.6183 87.3986 87.3983 78.6086 106.9383 78.6086H670.8983C689.9383 78.6086 698.7283 87.3986 698.7283 106.9286V934.0786C698.7283 953.1286 689.9383 962.3986 670.8983 962.3986H558.5983V818.3586C558.5983 776.3686 540.0383 756.8386 499.9983 756.8386H277.3483C237.3083 756.8386 218.7483 776.3686 218.7483 818.3586V962.3986H106.9383C87.3983 962.3986 78.6183 953.1286 78.6183 934.0786ZM226.5583 291.9886H321.7783C333.4983 291.9886 341.7983 284.1786 341.7983 271.9686V179.6886C341.7983 167.9686 333.4983 159.6686 321.7783 159.6686H226.5583C214.8483 159.6686 207.5183 167.9686 207.5183 179.6886V271.9686C207.5183 284.1786 214.8483 291.9886 226.5583 291.9886ZM455.5683 291.9886H550.2883C562.0083 291.9886 570.3083 284.1786 570.3083 271.9686V179.6886C570.3083 167.9686 562.0083 159.6686 550.2883 159.6686H455.5683C443.3583 159.6686 436.0383 167.9686 436.0383 179.6886V271.9686C436.0383 284.1786 443.3583 291.9886 455.5683 291.9886ZM777.3483 952.1486V318.8486H1041.9883C1061.0383 318.8486 1069.8283 328.1286 1069.8283 347.1686V934.0786C1069.8283 953.1286 1061.0383 962.3986 1041.9883 962.3986H776.8583C777.3483 958.9886 777.3483 955.5686 777.3483 952.1486ZM226.5583 485.3486H321.7783C333.4983 485.3486 341.7983 477.5386 341.7983 465.3286V373.0486C341.7983 361.3286 333.4983 353.0286 321.7783 353.0286H226.5583C214.8483 353.0286 207.5183 361.3286 207.5183 373.0486V465.3286C207.5183 477.5386 214.8483 485.3486 226.5583 485.3486ZM455.5683 485.3486H550.2883C562.0083 485.3486 570.3083 477.5386 570.3083 465.3286V373.0486C570.3083 361.3286 562.0083 353.0286 550.2883 353.0286H455.5683C443.3583 353.0286 436.0383 361.3286 436.0383 373.0486V465.3286C436.0383 477.5386 443.3583 485.3486 455.5683 485.3486ZM884.2783 508.7886H962.8883C972.6583 508.7886 979.4883 501.9486 979.4883 492.1886V416.0186C979.4883 406.2486 972.6583 399.4186 962.8883 399.4186H884.2783C874.0283 399.4186 868.1683 406.2486 868.1683 416.0186V492.1886C868.1683 501.9486 874.0283 508.7886 884.2783 508.7886ZM226.5583 678.7086H321.7783C333.4983 678.7086 341.7983 670.4086 341.7983 658.6886V566.4086C341.7983 554.1986 333.4983 546.3886 321.7783 546.3886H226.5583C214.8483 546.3886 207.5183 554.1986 207.5183 566.4086V658.6886C207.5183 670.4086 214.8483 678.7086 226.5583 678.7086ZM455.5683 678.7086H550.2883C562.0083 678.7086 570.3083 670.4086 570.3083 658.6886V566.4086C570.3083 554.1986 562.0083 546.3886 550.2883 546.3886H455.5683C443.3583 546.3886 436.0383 554.1986 436.0383 566.4086V658.6886C436.0383 670.4086 443.3583 678.7086 455.5683 678.7086ZM884.2783 695.3086H962.8883C972.6583 695.3086 979.4883 688.4786 979.4883 678.7086V602.5386C979.4883 592.7686 972.6583 585.9386 962.8883 585.9386H884.2783C874.0283 585.9386 868.1683 592.7686 868.1683 602.5386V678.7086C868.1683 688.4786 874.0283 695.3086 884.2783 695.3086ZM884.2783 881.8386H962.8883C972.6583 881.8386 979.4883 874.9986 979.4883 865.2386V789.0586C979.4883 779.2986 972.6583 772.4586 962.8883 772.4586H884.2783C874.0283 772.4586 868.1683 779.2986 868.1683 789.0586V865.2386C868.1683 874.9986 874.0283 881.8386 884.2783 881.8386ZM282.7183 836.4286C282.7183 826.1686 288.0883 820.7986 298.3383 820.7986H479.0083C489.7483 820.7986 494.6283 826.1686 494.6283 836.4286V962.3986H282.7183Z"/>
</svg>