<?xml version="1.0" encoding="UTF-8" standalone="no"?>
<svg xmlns="http://www.w3.org/2000/svg"
     width="996.09375" height="996.09375"
     viewBox="0 0 996.09375 996.09375"
     fill="currentColor">
  <path d="M-0.0023 498.0459C-0.0023 770.0159 226.0777 996.0959 498.0477 996.0959C770.5077 996.0959 996.0977 770.0159 996.0977 498.0459C996.0977 225.5859 770.0177 -0.0041 497.5577 -0.0041C225.5877 -0.0041 -0.0023 225.5859 -0.0023 498.0459ZM83.4977 498.0459H497.0677L290.0377 138.1859C350.5877 102.5359 421.8777 83.0059 497.5577 83.0059C573.2377 83.0059 644.5277 102.5359 705.0777 138.1859L497.0677 498.0459H913.0877C913.5777 652.8359 830.0777 787.1059 705.5677 857.9059L497.0677 498.0459L290.0377 857.4259C166.0177 786.1359 83.4977 652.3459 83.4977 498.0459Z"/>
</svg>