<?xml version="1.0" encoding="UTF-8" standalone="no"?>
<svg xmlns="http://www.w3.org/2000/svg"
     width="1265.625" height="1195.80078125"
     viewBox="0 0 1265.625 1195.80078125"
     fill="currentColor">
  <path d="M1222.1706 643.0684C1251.4606 628.9084 1265.6206 608.8884 1265.6206 588.3784C1265.6206 568.3584 1251.4606 549.8084 1222.1706 539.5484L984.3706 457.5184L1086.4306 249.0184C1091.3106 238.2784 1093.7506 227.5384 1093.7506 217.7684C1093.7506 189.4484 1072.2706 168.4584 1043.9406 168.4584C1034.1806 168.4584 1023.9306 170.4084 1013.1806 175.7784L797.3606 281.2484L685.0606 40.5284C672.8506 13.6684 652.8306 -0.0016 632.8106 -0.0016C612.7906 -0.0016 593.2606 13.6684 580.5706 40.5284L468.7506 281.2484L252.4406 175.7784C241.7006 170.4084 231.4406 168.4584 221.6806 168.4584C193.3606 168.4584 171.8706 189.4484 171.8706 217.7684C171.8706 227.5384 174.3206 238.2784 179.6906 249.0184L281.2506 457.5184L43.4606 539.5484C14.6506 549.3184 0.0006 568.8484 0.0006 588.8684C0.0006 608.8884 14.6506 628.9084 43.4606 643.0684L271.4806 752.4384L148.4406 1013.1884C142.5806 1024.8984 140.1406 1036.1284 140.1406 1046.3884C140.1406 1071.7784 157.2306 1089.8484 181.1506 1089.8484C191.4106 1089.8484 202.6406 1086.4284 214.3506 1079.5884L505.8606 907.2284L585.9406 1154.2984C594.7306 1181.6384 613.7706 1195.7984 632.8106 1195.7984C652.3406 1195.7984 670.9006 1181.6384 679.6906 1154.2984L760.2506 907.2284L1051.2706 1079.5884C1062.9906 1086.4284 1074.2206 1089.3584 1084.4706 1089.3584C1107.9106 1089.3584 1125.9806 1072.2684 1125.9806 1046.8784C1125.9806 1036.6184 1123.0506 1024.8984 1117.1906 1013.1884L994.1406 752.4384ZM1161.1306 589.3584V592.7684L911.1306 702.1484C901.8506 706.0584 896.9706 712.3984 896.9706 720.2184C896.9706 723.1484 898.4406 727.0484 900.3906 730.4684L1028.8106 989.7484L1026.3706 992.6784L738.7706 811.0384C734.3706 808.5984 729.9806 806.6384 726.0706 806.6384C718.2606 806.6384 711.9106 812.4984 709.4706 822.2684L634.2806 1075.1984H631.3506L556.6406 822.2684C553.7106 812.4984 547.3606 806.6384 539.5506 806.6384C535.6406 806.6384 531.2506 808.5984 526.8506 811.0384L239.7506 992.6784L236.8206 989.7484L365.2306 730.4684C367.6806 727.0484 368.6506 723.1484 368.6506 720.2184C368.6506 712.3984 363.7706 706.0584 354.9806 702.1484L104.4906 592.7684V589.3584L364.2606 509.2784C374.0206 506.3484 379.3906 499.9984 379.3906 492.1884C379.3906 488.2784 378.4206 484.3784 375.9806 480.4684L259.2806 257.8084L261.7206 255.3684L486.3306 373.5384C490.2306 375.9784 494.1406 376.9484 498.0506 376.9484C505.3706 376.9484 511.2306 372.5584 514.6506 363.7684L631.3506 102.5384H634.2806L750.9806 363.7684C754.3906 372.5584 760.2506 376.9484 767.5806 376.9484C771.4806 376.9484 775.3906 375.9784 779.7806 373.5384L1003.9106 255.3684L1006.3506 257.8084L889.6506 480.4684C887.2106 484.3784 886.2306 488.2784 886.2306 492.1884C886.2306 499.9984 891.6006 506.3484 901.3706 509.2784Z"/>
</svg>