<?xml version="1.0" encoding="UTF-8" standalone="no"?>
<svg xmlns="http://www.w3.org/2000/svg"
     width="1086.9140625" height="1139.16015625"
     viewBox="0 0 1086.9140625 1139.16015625"
     fill="currentColor">
  <path d="M68.3583 878.9033C68.3583 909.1833 77.1483 933.5933 93.2583 951.1733V1074.7033C93.2583 1110.8433 121.0983 1139.1633 157.7183 1139.1633H215.3283C251.9483 1139.1633 280.2783 1110.8433 280.2783 1074.7033V996.0933C360.8383 1001.4633 449.2183 1004.3933 543.4583 1004.3933C637.6983 1004.3933 726.5583 1001.4633 807.1283 996.0933V1074.7033C807.1283 1110.8433 834.9583 1139.1633 871.5783 1139.1633H929.1983C965.8183 1139.1633 994.1383 1110.8433 994.1383 1074.7033V951.1733C1010.2583 933.5933 1019.0383 909.1833 1019.0383 878.9033V466.7933H1040.5283C1067.8683 466.7933 1086.9183 450.1933 1086.9183 424.3133V223.6333C1086.9183 197.7533 1067.8683 180.6633 1040.5283 180.6633H1019.0383V125.4833C1019.0383 62.5033 981.9383 26.3633 915.5283 18.5533C813.4783 6.3433 677.7383 0.0033 543.4583 0.0033C409.1783 0.0033 272.9483 6.8333 171.3883 18.5533C104.9783 26.3633 68.3583 62.5033 68.3583 125.4833V180.6633H46.3883C19.0383 180.6633 -0.0017 197.7533 -0.0017 223.6333V424.3133C-0.0017 450.1933 19.0383 466.7933 46.3883 466.7933H68.3583ZM543.4583 940.4333C399.8983 940.4333 278.3183 934.0833 188.4783 923.3433C146.9683 918.4533 132.3283 896.9733 132.3283 859.3733V145.0233C132.3283 107.9133 151.8583 85.4533 188.4783 81.0533C276.3683 70.3133 406.2483 63.9633 543.4583 63.9633C679.1983 63.9633 809.0783 70.3133 898.4383 81.0533C939.9383 85.9333 955.0783 107.4233 955.0783 145.0233V859.3733C955.0783 896.9733 939.9383 918.4533 898.4383 923.3433C807.1283 934.0833 685.5483 940.4333 543.4583 940.4333ZM227.5383 666.5033C417.9683 696.2933 667.9683 696.7733 859.8683 666.5033C890.6283 661.1333 905.2783 644.0433 905.2783 611.3233V191.4033C905.2783 154.7833 888.6683 134.7633 853.5183 131.3433C660.6483 111.8133 427.7383 112.3033 234.3783 131.3433C199.7083 134.7633 182.1283 154.7833 182.1283 191.4033V611.3233C182.1283 644.0433 197.2683 661.1333 227.5383 666.5033ZM264.6483 864.7433C298.3383 864.7433 323.7283 838.8633 323.7283 805.6633C323.7283 771.9733 298.3383 746.5833 264.6483 746.5833C230.9583 746.5833 205.5683 771.9733 205.5683 805.6633C205.5683 838.8633 230.9583 864.7433 264.6483 864.7433ZM822.2683 864.7433C855.9583 864.7433 881.8383 838.8633 881.8383 805.6633C881.8383 771.9733 855.9583 746.5833 822.2683 746.5833C789.0583 746.5833 763.6683 771.9733 763.6683 805.6633C763.6683 838.8633 789.0583 864.7433 822.2683 864.7433ZM427.2483 847.1633H659.1783C684.0783 847.1633 701.6583 829.5933 701.6583 804.6833C701.6583 779.2933 684.0783 762.2033 659.1783 762.2033H427.2483C401.8583 762.2033 384.2783 779.2933 384.2783 804.6833C384.2783 829.5933 401.8583 847.1633 427.2483 847.1633Z"/>
</svg>