<?xml version="1.0" encoding="UTF-8" standalone="no"?>
<svg xmlns="http://www.w3.org/2000/svg"
     width="1020.5078125" height="1184.5703125"
     viewBox="0 0 1020.5078125 1184.5703125"
     fill="currentColor">
  <path d="M68.3583 1120.115C68.3583 1156.255 96.1883 1184.575 132.8083 1184.575H190.4283C227.0483 1184.575 255.3683 1156.255 255.3683 1120.115V1039.065C351.5583 1045.415 431.1483 1049.315 510.2583 1049.315C589.3583 1049.315 668.4583 1045.895 765.1383 1039.065V1120.115C765.1383 1156.255 792.9683 1184.575 829.5883 1184.575H887.2083C923.8283 1184.575 952.1483 1156.255 952.1483 1120.115V577.635H974.1183C1001.4683 577.635 1020.5083 560.545 1020.5083 535.155V368.655C1020.5083 342.775 1001.4683 325.685 974.1183 325.685H952.1483V124.515C952.1483 62.015 915.0383 25.395 848.6283 18.065C745.6083 5.855 627.4383 -0.005 510.2583 -0.005C393.5583 -0.005 275.8783 5.855 171.3883 18.065C104.9783 25.395 68.3583 62.015 68.3583 124.515V325.685H46.3883C19.0383 325.685 -0.0017 342.775 -0.0017 368.655V535.155C-0.0017 560.545 19.0383 577.635 46.3883 577.635H68.3583ZM157.7183 393.065V164.065C157.7183 130.855 175.7783 109.865 206.0583 105.955C307.6183 94.725 408.6883 88.865 510.2583 88.865C611.3283 88.865 713.3783 95.215 814.4483 105.955C844.7283 109.865 862.7883 130.855 862.7883 164.065V393.065ZM157.7183 464.355H862.7883V683.105C862.7883 716.305 844.7283 737.305 814.4483 740.725C716.3083 751.955 612.7883 757.815 510.2583 757.815C407.2283 757.815 304.1983 752.445 206.0583 740.725C175.7783 737.305 157.7183 716.305 157.7183 683.105ZM248.5383 947.755C215.8183 947.755 189.9383 921.875 189.9383 889.165C189.9383 855.955 215.8183 830.565 248.5383 830.565C281.7383 830.565 307.1283 855.955 307.1283 889.165C307.1283 921.875 281.7383 947.755 248.5383 947.755ZM771.9683 947.755C738.7683 947.755 713.3783 921.875 713.3783 889.165C713.3783 855.955 738.7683 830.565 771.9683 830.565C804.6883 830.565 830.5683 855.955 830.5683 889.165C830.5683 921.875 804.6883 947.755 771.9683 947.755ZM425.2883 929.685C401.8583 929.685 384.2783 912.105 384.2783 888.675C384.2783 864.745 401.3683 847.655 425.2883 847.655H594.7283C619.1383 847.655 636.2283 864.745 636.2283 888.675C636.2283 912.105 618.6483 929.685 594.7283 929.685Z"/>
</svg>