<?xml version="1.0" encoding="UTF-8" standalone="no"?>
<svg xmlns="http://www.w3.org/2000/svg"
     width="1067.3828125" height="1129.39453125"
     viewBox="0 0 1067.3828125 1129.39453125"
     fill="currentColor">
  <path d="M132.8083 1129.3939H190.4283C227.0483 1129.3939 255.3683 1101.0739 255.3683 1064.9439V983.8839C352.0483 990.7239 447.7583 994.1439 533.6883 994.1439C619.6283 994.1439 715.3283 991.2139 812.4983 983.8839V1064.9439C812.4983 1101.0739 840.3283 1129.3939 876.9483 1129.3939H934.5683C971.1883 1129.3939 999.5083 1101.0739 999.5083 1064.9439V457.0339H1020.9983C1048.3383 457.0339 1067.3783 440.4339 1067.3783 414.5539V223.6339C1067.3783 197.7539 1048.3383 180.6639 1020.9983 180.6639H999.5083V125.4839C999.5083 62.5039 962.3983 26.3639 896.4883 18.5539C792.4783 6.3439 659.1783 0.0039 533.6883 0.0039C409.1783 0.0039 275.8783 6.3439 171.3883 18.5539C104.9783 26.3639 68.3583 62.5039 68.3583 125.4839V180.6639H46.3883C19.0383 180.6639 -0.0017 197.7539 -0.0017 223.6339V414.5539C-0.0017 440.4339 19.0383 457.0339 46.3883 457.0339H68.3583V1064.9439C68.3583 1101.0739 96.1883 1129.3939 132.8083 1129.3939ZM209.9583 660.6439C177.7383 655.2739 161.6183 637.2039 161.6183 602.5439V168.9439C161.6183 129.8839 180.1783 108.8839 217.2883 104.9839C420.8983 83.4939 647.9483 83.4939 851.0783 104.9839C888.6683 108.8839 906.2483 129.8839 906.2483 168.9439V602.5439C906.2483 637.2039 890.6283 655.2739 857.9083 660.6439C655.2783 690.4339 410.6483 690.4339 209.9583 660.6439ZM240.2383 878.4139C204.0983 878.4139 177.2483 851.0739 177.2483 815.4339C177.2483 779.2939 204.0983 752.4439 240.2383 752.4439C276.3683 752.4439 303.2183 779.2939 303.2183 815.4339C303.2183 851.0739 276.3683 878.4139 240.2383 878.4139ZM827.1483 878.4139C791.5083 878.4139 764.6483 851.0739 764.6483 815.4339C764.6483 779.2939 791.5083 752.4439 827.1483 752.4439C863.2783 752.4439 890.6283 779.2939 890.6283 815.4339C890.6283 851.0739 863.2783 878.4139 827.1483 878.4139ZM427.2483 856.9339C401.8583 856.9339 384.2783 839.3539 384.2783 814.4539C384.2783 789.0639 401.8583 771.9739 427.2483 771.9739H639.6483C664.5483 771.9739 682.1283 789.0639 682.1283 814.4539C682.1283 839.3539 664.5483 856.9339 639.6483 856.9339Z"/>
</svg>