<?xml version="1.0" encoding="UTF-8" standalone="no"?>
<svg xmlns="http://www.w3.org/2000/svg"
     width="1040.0390625" height="1179.6875"
     viewBox="0 0 1040.0390625 1179.6875"
     fill="currentColor">
  <path d="M157.7183 1179.6906H215.3283C251.9483 1179.6906 280.2783 1151.3706 280.2783 1115.2306V1036.1306C358.8883 1041.9906 444.8283 1044.9206 520.0183 1044.9206C595.2183 1044.9206 681.1483 1041.9906 759.7683 1036.1306V1115.2306C759.7683 1151.3706 788.0883 1179.6906 824.7083 1179.6906H881.8383C918.4583 1179.6906 946.7783 1151.3706 946.7783 1115.2306V991.7006C962.8883 974.1206 971.6783 950.1906 971.6783 919.4306V582.5206H993.6483C1020.9983 582.5206 1040.0383 565.4306 1040.0383 540.0406V373.5306C1040.0383 347.6606 1020.9983 330.5706 993.6483 330.5706H971.6783V125.0006C971.6783 62.5006 934.5683 25.8806 868.6483 18.5506C769.0383 6.8406 631.8383 0.0006 520.0183 0.0006C407.7183 0.0006 270.5083 6.8406 171.3883 18.5506C104.9783 25.8806 68.3583 62.5006 68.3583 125.0006V330.5706H46.3883C19.0383 330.5706 -0.0017 347.6606 -0.0017 373.5306V540.0406C-0.0017 565.4306 19.0383 582.5206 46.3883 582.5206H68.3583V919.4306C68.3583 950.1906 76.6583 974.1206 93.2583 991.7006V1115.2306C93.2583 1151.3706 121.0983 1179.6906 157.7183 1179.6906ZM520.0183 980.9606C403.3183 980.9606 273.4383 974.1206 188.4783 963.8706C146.9683 958.9806 132.3283 937.5006 132.3283 899.9006V144.5306C132.3283 107.4206 146.9683 85.9406 188.4783 81.0506C273.4383 70.3106 403.3183 63.9606 520.0183 63.9606C634.7683 63.9606 764.6483 70.3106 851.5583 81.0506C893.0683 85.9406 907.7183 107.4206 907.7183 144.5306V899.9006C907.7183 937.5006 893.0683 958.9806 851.5583 963.8706C764.6483 974.1206 634.7683 980.9606 520.0183 980.9606ZM182.6183 396.0006H857.4183V196.2906C857.4183 159.1806 840.3283 139.6506 800.7783 134.7606C632.3283 116.7006 407.7183 116.7006 239.7483 134.7606C200.1983 139.6506 182.6183 159.1806 182.6183 196.2906ZM182.6183 462.4006V656.7406C182.6183 689.4506 197.7583 706.0506 228.0283 711.4306C376.4683 736.8206 658.1983 738.2806 812.0083 711.4306C838.8683 706.5406 857.4183 689.4506 857.4183 656.7406V462.4006ZM258.2983 905.2706C289.5483 905.2706 313.4783 880.8606 313.4783 850.1006C313.4783 818.8506 289.5483 794.9206 258.2983 794.9206C227.5383 794.9206 203.1283 818.8506 203.1283 850.1006C203.1283 880.8606 227.5383 905.2706 258.2983 905.2706ZM781.7383 905.2706C812.4983 905.2706 836.9183 880.8606 836.9183 850.1006C836.9183 818.8506 812.4983 794.9206 781.7383 794.9206C750.4883 794.9206 726.5583 818.8506 726.5583 850.1006C726.5583 880.8606 750.4883 905.2706 781.7383 905.2706ZM425.2883 890.6206H613.7683C637.2083 890.6206 654.7883 873.0506 654.7883 849.6106C654.7883 825.6806 637.6983 808.5906 613.7683 808.5906H425.2883C401.3683 808.5906 384.2783 825.6806 384.2783 849.6106C384.2783 873.0506 401.8583 890.6206 425.2883 890.6206Z"/>
</svg>