<?xml version="1.0" encoding="UTF-8" standalone="no"?>
<svg xmlns="http://www.w3.org/2000/svg"
     width="898.92578125" height="898.92578125"
     viewBox="0 0 898.92578125 898.92578125"
     fill="currentColor">
  <path d="M153.3183 898.9295H745.6083C848.1483 898.9295 898.9283 848.1495 898.9283 747.5595V151.3695C898.9283 50.7795 848.1483 -0.0005 745.6083 -0.0005H153.3183C51.2683 -0.0005 -0.0017 50.2895 -0.0017 151.3695V747.5595C-0.0017 848.6295 51.2683 898.9295 153.3183 898.9295ZM154.2983 820.3095C105.4683 820.3095 78.6183 794.4295 78.6183 743.6495V155.2695C78.6183 104.4895 105.4683 78.6095 154.2983 78.6095H744.6283C792.9683 78.6095 820.3083 104.4895 820.3083 155.2695V743.6495C820.3083 794.4295 792.9683 820.3095 744.6283 820.3095ZM451.1683 727.5395C603.5183 727.5395 729.4883 601.0695 729.4883 449.2195C729.4883 297.8495 602.5383 170.8995 451.1683 170.8995C299.3183 170.8995 173.3383 297.3595 173.3383 449.2195C173.3383 600.5895 300.2883 727.5395 451.1683 727.5395ZM451.1683 658.6895C337.8883 658.6895 241.6983 562.9895 241.6983 449.2195C241.6983 334.9595 337.3983 239.7495 451.1683 239.7495C564.9383 239.7495 661.1283 335.4495 661.1283 449.2195C661.1283 563.4795 565.4283 658.6895 451.1683 658.6895ZM451.1683 608.3995C538.0883 608.3995 610.3483 535.6395 610.3483 449.2195C610.3483 363.2795 537.5983 290.0395 451.1683 290.0395C364.7483 290.0395 292.4783 362.7895 292.4783 449.2195C292.4783 535.1595 365.2383 608.3995 451.1683 608.3995Z"/>
</svg>