<?xml version="1.0" encoding="UTF-8" standalone="no"?>
<svg xmlns="http://www.w3.org/2000/svg"
     width="898.92578125" height="898.92578125"
     viewBox="0 0 898.92578125 898.92578125"
     fill="currentColor">
  <path d="M153.3183 898.9295H745.6083C848.1483 898.9295 898.9283 848.1495 898.9283 747.5595V151.3695C898.9283 50.7795 848.1483 -0.0005 745.6083 -0.0005H153.3183C51.2683 -0.0005 -0.0017 50.2895 -0.0017 151.3695V747.5595C-0.0017 848.6295 51.2683 898.9295 153.3183 898.9295ZM451.1683 736.3295C295.4083 736.3295 164.5483 605.4695 164.5483 449.2195C164.5483 292.4795 294.4383 162.1095 451.1683 162.1095C607.4183 162.1095 738.2783 292.9695 738.2783 449.2195C738.2783 605.9595 608.3983 736.3295 451.1683 736.3295ZM451.1683 665.0395C568.8483 665.0395 667.4783 566.8895 667.4783 449.2195C667.4783 332.0295 568.3583 233.3995 451.1683 233.3995C333.9883 233.3995 235.3483 331.5395 235.3483 449.2195C235.3483 566.4095 334.4683 665.0395 451.1683 665.0395ZM451.1683 613.2795C362.7883 613.2795 287.5983 537.5995 287.5983 449.2195C287.5983 360.3495 362.3083 285.1595 451.1683 285.1595C540.0383 285.1595 615.2383 360.8395 615.2383 449.2195C615.2383 538.0895 540.5283 613.2795 451.1683 613.2795Z"/>
</svg>