<?xml version="1.0" encoding="UTF-8" standalone="no"?>
<svg xmlns="http://www.w3.org/2000/svg"
     width="996.09375" height="996.09375"
     viewBox="0 0 996.09375 996.09375"
     fill="currentColor">
  <path d="M498.0477 996.0959C770.5077 996.0959 996.0977 770.0159 996.0977 498.0459C996.0977 225.5859 770.0177 -0.0041 497.5577 -0.0041C225.5877 -0.0041 -0.0023 225.5859 -0.0023 498.0459C-0.0023 770.0159 226.0777 996.0959 498.0477 996.0959ZM499.0277 734.3759C367.6777 734.3759 284.6677 640.6259 284.6677 493.6559C284.6677 346.6759 368.1677 252.4459 499.0277 252.4459C587.8877 252.4459 658.6877 294.9259 683.5977 362.3059C687.0077 371.5859 687.9877 377.4459 687.9877 385.7459C687.9877 407.2259 674.3177 420.4059 652.8277 420.4059C637.6977 420.4059 627.9277 413.0859 619.6277 395.9959C598.6377 346.1959 556.6377 319.3359 499.9977 319.3359C419.9177 319.3359 366.2077 389.6459 366.2077 493.6559C366.2077 597.6559 419.9177 667.4759 499.9977 667.4759C556.6377 667.4759 598.6377 640.6259 619.6277 591.3059C627.9277 574.2159 637.6977 566.4059 652.8277 566.4059C674.3177 566.4059 687.9877 579.5859 687.9877 601.0759C687.9877 608.3959 687.0077 615.2359 683.5977 624.5159C659.1777 692.3859 587.8877 734.3759 499.0277 734.3759Z"/>
</svg>