<?xml version="1.0" encoding="UTF-8" standalone="no"?>
<svg xmlns="http://www.w3.org/2000/svg"
     width="898.92578125" height="898.92578125"
     viewBox="0 0 898.92578125 898.92578125"
     fill="currentColor">
  <path d="M153.3183 898.9295H745.6083C848.1483 898.9295 898.9283 848.1495 898.9283 747.5595V151.3695C898.9283 50.7795 848.1483 -0.0005 745.6083 -0.0005H153.3183C51.2683 -0.0005 -0.0017 50.2895 -0.0017 151.3695V747.5595C-0.0017 848.6295 51.2683 898.9295 153.3183 898.9295ZM450.6883 685.0595C319.3383 685.0595 236.3283 591.3095 236.3283 444.3395C236.3283 297.3595 319.8283 203.1295 450.6883 203.1295C539.5483 203.1295 610.8383 245.6095 635.2583 312.9895C638.6683 322.2695 639.6483 328.1295 639.6483 336.4295C639.6483 357.9095 625.9783 371.0895 604.9783 371.0895C589.3583 371.0895 579.5883 363.7695 571.2883 346.6795C550.2883 296.8795 508.2983 270.0195 451.6583 270.0195C371.5783 270.0195 317.8683 340.3295 317.8683 444.3395C317.8683 548.3395 371.5783 618.1595 451.6583 618.1595C508.2983 618.1595 550.2883 591.3095 571.2883 541.9895C579.5883 524.8995 589.3583 517.0895 604.9783 517.0895C625.9783 517.0895 639.6483 530.2695 639.6483 551.7595C639.6483 559.0795 638.6683 565.9195 635.2583 575.1995C610.8383 643.0695 540.0383 685.0595 450.6883 685.0595Z"/>
</svg>