<?xml version="1.0" encoding="UTF-8" standalone="no"?>
<svg xmlns="http://www.w3.org/2000/svg"
     width="793.45703125" height="1138.671875"
     viewBox="0 0 793.45703125 1138.671875"
     fill="currentColor">
  <path d="M143.0683 1138.675C167.4783 1138.675 183.5983 1122.075 183.5983 1097.655V1048.335H363.2783V-0.005H112.7883C45.4083 -0.005 -0.0017 46.385 -0.0017 116.695V931.645C-0.0017 998.045 40.5283 1043.455 102.5383 1047.855V1097.655C102.5383 1122.075 118.6483 1138.675 143.0683 1138.675ZM650.3883 1138.675C674.8083 1138.675 690.9183 1122.075 690.9183 1097.655V1047.855C752.9283 1043.455 793.4583 998.045 793.4583 931.645V116.695C793.4583 46.385 748.0483 -0.005 680.6683 -0.005H430.1783V1048.335H609.8683V1097.655C609.8683 1122.075 625.9783 1138.675 650.3883 1138.675ZM244.1383 593.745C215.8183 593.745 192.3783 570.805 192.3783 542.485C192.3783 513.675 215.8183 490.725 244.1383 490.725C272.4583 490.725 295.8983 513.675 295.8983 542.485C295.8983 570.805 272.4583 593.745 244.1383 593.745ZM548.8283 593.745C520.5083 593.745 497.0683 570.805 497.0683 542.485C497.0683 513.675 520.5083 490.725 548.8283 490.725C577.1483 490.725 600.5883 513.675 600.5883 542.485C600.5883 570.805 577.1483 593.745 548.8283 593.745Z"/>
</svg>