<?xml version="1.0" encoding="UTF-8" standalone="no"?>
<svg xmlns="http://www.w3.org/2000/svg"
     width="1016.11328125" height="1190.91796875"
     viewBox="0 0 1016.11328125 1190.91796875"
     fill="currentColor">
  <path d="M-0.0017 962.4022C-0.0017 983.8822 17.5783 1001.9522 39.0583 1001.9522H231.9383L140.6283 1148.4422C127.9283 1168.9422 139.6483 1190.9222 162.5983 1190.9222H189.9383C203.1283 1190.9222 210.9383 1186.5222 218.2583 1174.8022L325.1983 1001.9522H673.3383L780.2783 1174.8022C787.5983 1186.5222 795.4083 1190.9222 809.0783 1190.9222H836.4283C858.8883 1190.9222 870.6083 1168.9422 857.9083 1148.4422L766.5983 1001.9522H977.0483C998.5383 1001.9522 1016.1183 983.8822 1016.1183 962.4022C1016.1183 940.9222 998.5383 923.3422 977.0483 923.3422H959.9583V260.7422C959.9583 201.1722 925.2883 166.0122 860.3483 158.2022C832.5183 154.7822 801.2683 151.8522 767.5783 149.4122V92.7722C772.4583 93.2622 776.8583 93.7522 781.7383 94.2422C804.1983 97.1722 822.7583 76.1722 822.7583 54.2022C822.7583 32.2222 805.1783 16.1122 781.7383 13.1822C708.0083 4.3922 606.4483 0.0022 507.8083 0.0022C409.6683 0.0022 308.1083 4.3922 233.8883 13.1822C210.9383 16.1122 192.8683 32.2222 192.8683 54.2022C192.8683 76.1722 211.4283 97.1722 234.3783 94.2422C238.7683 93.7522 243.6483 93.2622 248.5383 92.7722V148.9222C214.8483 151.8522 183.1083 154.7822 154.7883 158.2022C90.3283 166.0122 56.1483 201.1722 56.1483 260.7422V923.3422H39.0583C17.5783 923.3422 -0.0017 940.9222 -0.0017 962.4022ZM507.8083 140.1322C442.3783 140.1322 375.4883 142.0922 312.4983 145.0222V86.9122C372.0683 83.0122 439.9383 81.5422 507.8083 81.5422C575.6883 81.5422 644.0383 83.0122 703.6183 87.4022V145.0222C640.6283 142.0922 573.2383 140.1322 507.8083 140.1322ZM402.3483 616.2122V358.4022C402.3483 295.4122 444.3383 253.4222 507.8083 253.4222C571.2883 253.4222 613.2783 295.4122 613.2783 358.4022V616.2122C613.2783 631.3522 603.5183 641.6022 586.9183 641.6022H428.2183C412.1083 641.6022 402.3483 631.3522 402.3483 616.2122ZM155.7583 616.2122V372.5622C155.7583 320.3122 196.7783 278.8122 249.9983 278.8122C302.2483 278.8122 343.7483 320.3122 343.7483 372.5622V616.2122C343.7483 631.3522 333.4983 641.6022 317.3783 641.6022H182.1283C166.0183 641.6022 155.7583 631.3522 155.7583 616.2122ZM671.3883 616.2122V372.5622C671.3883 320.3122 712.8883 278.8122 766.1183 278.8122C818.3583 278.8122 859.8683 320.3122 859.8683 372.5622V616.2122C859.8683 631.3522 849.6083 641.6022 833.4983 641.6022H698.2383C682.1283 641.6022 671.3883 631.3522 671.3883 616.2122ZM507.8083 874.5122C462.3983 874.5122 429.1983 841.3122 429.1983 796.8722C429.1983 751.4622 462.3983 716.3122 507.8083 716.3122C552.2483 716.3122 587.3983 751.4622 587.3983 796.8722C587.3983 841.3122 552.2483 874.5122 507.8083 874.5122Z"/>
</svg>