<?xml version="1.0" encoding="UTF-8" standalone="no"?>
<svg xmlns="http://www.w3.org/2000/svg"
     width="1213.8671875" height="898.92578125"
     viewBox="0 0 1213.8671875 898.92578125"
     fill="currentColor">
  <path d="M1007.808 348.1395V151.3695C1007.808 50.7795 956.548 -0.0005 854.488 -0.0005H187.498C85.938 -0.0005 34.178 50.2895 34.178 151.3695V348.1395H112.798V146.9695C112.798 101.5595 137.208 78.6095 180.668 78.6095H860.838C904.298 78.6095 929.198 101.5595 929.198 146.9695V348.1395ZM1147.458 120.6095C1180.668 120.6095 1207.518 93.7495 1207.518 60.5495C1207.518 27.3395 1180.668 0.4895 1147.458 0.4895C1114.258 0.4895 1087.398 27.3395 1087.398 60.5495C1087.398 93.7495 1114.258 120.6095 1147.458 120.6095ZM1147.458 314.4495C1180.668 314.4495 1207.518 287.5995 1207.518 254.3895C1207.518 221.1895 1180.668 194.3395 1147.458 194.3395C1114.258 194.3395 1087.398 221.1895 1087.398 254.3895C1087.398 287.5995 1114.258 314.4495 1147.458 314.4495ZM-0.002 449.2195C-0.002 468.2595 15.138 483.8895 34.178 483.8895H1091.308C1103.028 502.4395 1124.028 515.1395 1147.458 515.1395C1183.598 515.1395 1213.868 484.8595 1213.868 448.7295C1213.868 412.5995 1183.598 382.3195 1147.458 382.3195C1123.538 382.3195 1102.538 395.5095 1090.818 415.0395H34.178C15.138 415.0395 -0.002 430.1795 -0.002 449.2195ZM929.198 550.2895V751.9495C929.198 797.3595 904.298 820.3095 860.838 820.3095H180.668C137.208 820.3095 112.798 797.3595 112.798 751.9495V550.2895H34.178V747.5595C34.178 848.6295 85.938 898.9295 187.498 898.9295H854.488C956.548 898.9295 1007.808 848.1495 1007.808 747.5595V550.2895ZM1147.458 702.6395C1180.668 702.6395 1207.518 675.7795 1207.518 642.5795C1207.518 609.3795 1180.668 582.0295 1147.458 582.0295C1114.258 582.0295 1087.398 609.3795 1087.398 642.5795C1087.398 675.7795 1114.258 702.6395 1147.458 702.6395ZM1147.458 896.9695C1180.668 896.9695 1207.518 870.1195 1207.518 836.9095C1207.518 803.7095 1180.668 776.3695 1147.458 776.3695C1114.258 776.3695 1087.398 803.7095 1087.398 836.9095C1087.398 870.1195 1114.258 896.9695 1147.458 896.9695Z"/>
</svg>