<?xml version="1.0" encoding="UTF-8" standalone="no"?>
<svg xmlns="http://www.w3.org/2000/svg"
     width="996.09375" height="996.09375"
     viewBox="0 0 996.09375 996.09375"
     fill="currentColor">
  <path d="M498.0477 996.0959C770.5077 996.0959 996.0977 770.0159 996.0977 498.0459C996.0977 225.5859 770.0177 -0.0041 497.5577 -0.0041C225.5877 -0.0041 -0.0023 225.5859 -0.0023 498.0459C-0.0023 770.0159 226.0777 996.0959 498.0477 996.0959ZM498.0477 913.0859C267.5777 913.0859 83.4977 728.5159 83.4977 498.0459C83.4977 267.5759 267.0877 83.0059 497.5577 83.0059C728.0277 83.0059 913.0877 267.5759 913.0877 498.0459C913.0877 728.5159 728.5177 913.0859 498.0477 913.0859ZM318.8477 739.2559H676.2677C730.9577 739.2559 758.2977 711.9159 758.2977 658.2059V337.8859C758.2977 284.1759 730.9577 256.8359 676.2677 256.8359H318.8477C264.1577 256.8359 236.8177 283.6959 236.8177 337.8859V658.2059C236.8177 711.9159 264.1577 739.2559 318.8477 739.2559ZM315.4277 694.3359C293.4577 694.3359 281.7377 683.5959 281.7377 660.1559V413.0859C281.7377 389.1559 294.4377 376.9559 317.8677 376.9559H677.2477C700.1977 376.9559 713.3777 389.1559 713.3777 413.0859V660.1559C713.3777 683.5959 702.1477 694.3359 679.1977 694.3359ZM444.8277 474.6059H462.8877C474.1177 474.6059 478.0277 471.6759 478.0277 460.4459V442.3859C478.0277 431.1559 474.1177 427.2459 462.8877 427.2459H444.8277C433.5977 427.2459 430.1777 431.1559 430.1777 442.3859V460.4459C430.1777 471.6759 433.5977 474.6059 444.8277 474.6059ZM532.2277 474.6059H550.2977C561.5277 474.6059 564.9377 471.6759 564.9377 460.4459V442.3859C564.9377 431.1559 561.5277 427.2459 550.2977 427.2459H532.2277C520.9977 427.2459 517.5777 431.1559 517.5777 442.3859V460.4459C517.5777 471.6759 520.9977 474.6059 532.2277 474.6059ZM619.1377 474.6059H636.7177C647.9477 474.6059 651.8577 471.6759 651.8577 460.4459V442.3859C651.8577 431.1559 647.9477 427.2459 636.7177 427.2459H619.1377C607.4177 427.2459 604.0077 431.1559 604.0077 442.3859V460.4459C604.0077 471.6759 607.4177 474.6059 619.1377 474.6059ZM358.3977 560.0559H376.4677C387.6977 560.0559 391.1177 557.1259 391.1177 545.8959V527.8359C391.1177 516.6059 387.6977 512.6959 376.4677 512.6959H358.3977C347.1677 512.6959 343.2577 516.6059 343.2577 527.8359V545.8959C343.2577 557.1259 347.1677 560.0559 358.3977 560.0559ZM444.8277 560.0559H462.8877C474.1177 560.0559 478.0277 557.1259 478.0277 545.8959V527.8359C478.0277 516.6059 474.1177 512.6959 462.8877 512.6959H444.8277C433.5977 512.6959 430.1777 516.6059 430.1777 527.8359V545.8959C430.1777 557.1259 433.5977 560.0559 444.8277 560.0559ZM532.2277 560.0559H550.2977C561.5277 560.0559 564.9377 557.1259 564.9377 545.8959V527.8359C564.9377 516.6059 561.5277 512.6959 550.2977 512.6959H532.2277C520.9977 512.6959 517.5777 516.6059 517.5777 527.8359V545.8959C517.5777 557.1259 520.9977 560.0559 532.2277 560.0559ZM619.1377 560.0559H636.7177C647.9477 560.0559 651.8577 557.1259 651.8577 545.8959V527.8359C651.8577 516.6059 647.9477 512.6959 636.7177 512.6959H619.1377C607.4177 512.6959 604.0077 516.6059 604.0077 527.8359V545.8959C604.0077 557.1259 607.4177 560.0559 619.1377 560.0559ZM358.3977 645.9959H376.4677C387.6977 645.9959 391.1177 642.5759 391.1177 631.3459V612.7959C391.1177 602.0459 387.6977 598.6359 376.4677 598.6359H358.3977C347.1677 598.6359 343.2577 602.0459 343.2577 612.7959V631.3459C343.2577 642.5759 347.1677 645.9959 358.3977 645.9959ZM444.8277 645.9959H462.8877C474.1177 645.9959 478.0277 642.5759 478.0277 631.3459V612.7959C478.0277 602.0459 474.1177 598.6359 462.8877 598.6359H444.8277C433.5977 598.6359 430.1777 602.0459 430.1777 612.7959V631.3459C430.1777 642.5759 433.5977 645.9959 444.8277 645.9959ZM532.2277 645.9959H550.2977C561.5277 645.9959 564.9377 642.5759 564.9377 631.3459V612.7959C564.9377 602.0459 561.5277 598.6359 550.2977 598.6359H532.2277C520.9977 598.6359 517.5777 602.0459 517.5777 612.7959V631.3459C517.5777 642.5759 520.9977 645.9959 532.2277 645.9959Z"/>
</svg>