<?xml version="1.0" encoding="UTF-8" standalone="no"?>
<svg xmlns="http://www.w3.org/2000/svg"
     width="956.0546875" height="955.56640625"
     viewBox="0 0 956.0546875 955.56640625"
     fill="currentColor">
  <path d="M39.0583 310.5498C64.9383 310.5498 78.6183 295.8998 78.6183 270.5098V155.2698C78.6183 104.4898 105.4683 78.6098 154.2983 78.6098H272.4583C298.3383 78.6098 312.4983 64.4498 312.4983 39.0598C312.4983 13.6698 298.3383 -0.0002 272.4583 -0.0002H153.3183C51.2683 -0.0002 -0.0017 50.2898 -0.0017 150.8798V270.5098C-0.0017 295.8998 14.1583 310.5498 39.0583 310.5498ZM916.5083 310.5498C942.3783 310.5498 956.0583 295.8998 956.0583 270.5098V150.8798C956.0583 50.2898 904.7883 -0.0002 802.7383 -0.0002H683.1083C657.7183 -0.0002 643.5583 13.6698 643.5583 39.0598C643.5583 64.4498 657.7183 78.6098 683.1083 78.6098H801.2683C849.6083 78.6098 877.4383 104.4898 877.4383 155.2698V270.5098C877.4383 295.8998 891.5983 310.5498 916.5083 310.5498ZM260.2583 698.2398H696.2883C747.5583 698.2398 773.9283 672.8498 773.9283 622.0698V364.2598C773.9283 312.4998 747.5583 287.1098 696.2883 287.1098H632.8083C613.7683 287.1098 607.9083 283.6898 596.6783 270.9998L576.6583 249.0198C564.4483 235.3498 551.7583 228.5198 526.8583 228.5198H428.2183C402.8283 228.5198 390.1383 235.3498 377.9283 249.0198L357.9083 270.9998C346.6783 283.1998 340.8183 287.1098 321.7783 287.1098H260.2583C208.4983 287.1098 182.6183 312.4998 182.6183 364.2598V622.0698C182.6183 672.8498 208.4983 698.2398 260.2583 698.2398ZM479.0083 637.2098C397.4583 637.2098 332.0283 572.2698 332.0283 490.2298C332.0283 409.1798 397.4583 344.2398 479.0083 344.2398C559.5683 344.2398 624.5083 409.1798 624.5083 490.2298C624.5083 573.7298 559.5683 637.2098 479.0083 637.2098ZM673.3383 420.4098C655.2783 420.4098 640.6283 405.7598 640.6283 387.2098C640.6283 368.6498 655.2783 353.9998 673.3383 353.9998C691.4083 353.9998 706.5383 368.6498 706.5383 387.2098C706.5383 405.7598 691.4083 420.4098 673.3383 420.4098ZM478.5183 594.7298C535.6483 594.7298 582.5183 548.8298 582.5183 490.2298C582.5183 432.6198 535.6483 386.2298 478.5183 386.2298C420.8983 386.2298 374.0283 432.6198 374.0283 490.2298C374.0283 548.8298 420.8983 594.7298 478.5183 594.7298ZM153.3183 955.5698H272.4583C298.3383 955.5698 312.4983 941.4098 312.4983 916.4998C312.4983 891.1098 298.3383 876.9498 272.4583 876.9498H154.2983C105.4683 876.9498 78.6183 851.0698 78.6183 800.2898V685.0598C78.6183 659.1798 64.4483 645.0198 39.0583 645.0198C13.6683 645.0198 -0.0017 659.1798 -0.0017 685.0598V804.1998C-0.0017 905.2698 51.2683 955.5698 153.3183 955.5698ZM683.1083 955.5698H802.7383C904.7883 955.5698 956.0583 904.7898 956.0583 804.1998V685.0598C956.0583 659.1798 941.8983 645.0198 916.5083 645.0198C891.1183 645.0198 877.4383 659.1798 877.4383 685.0598V800.2898C877.4383 851.0698 849.6083 876.9498 801.2683 876.9498H683.1083C657.7183 876.9498 643.5583 891.1098 643.5583 916.4998C643.5583 941.4098 657.7183 955.5698 683.1083 955.5698Z"/>
</svg>