<?xml version="1.0" encoding="UTF-8" standalone="no"?>
<svg xmlns="http://www.w3.org/2000/svg"
     width="1130.4795215416218" height="1053.7109375"
     viewBox="0 0 1130.4795215416218 1053.7109375"
     fill="currentColor">
  <path d="M526.9102 1017.0948C526.9102 1039.0648 544.0002 1053.7148 565.9702 1053.7148C818.4102 1053.7148 1050.3502 897.9448 1126.5202 679.1948C1137.2602 649.4148 1126.0302 630.3748 1094.2902 630.3748C857.9602 630.3748 684.1402 761.7148 605.5202 933.1048V517.5748C778.8602 499.5148 888.2402 361.8148 888.2402 195.8048C888.2402 142.0848 877.0102 86.9148 853.5702 31.7348C842.8302 8.3048 815.0002 4.8848 796.4402 23.9248L687.0702 135.2548L593.8002 14.6448C578.6702 -4.8852 553.2802 -4.8852 538.6302 14.6448L445.3702 135.2548L335.5002 23.9248C316.9502 4.8848 289.1202 8.3048 278.8602 31.7348C254.9402 86.9148 243.7102 142.0848 243.7102 195.8048C243.7102 361.8148 353.0802 499.5148 526.9102 517.5748ZM460.0202 830.5648C368.2202 711.4248 221.2502 630.3748 36.1902 630.3748C4.4502 630.3748 -6.7798 649.4148 3.9602 679.1948C69.3902 868.6548 251.0302 1011.2348 463.9202 1044.9248C461.4802 1036.6248 460.0202 1026.8548 460.0202 1017.0948Z"/>
</svg>