<?xml version="1.0" encoding="UTF-8" standalone="no"?>
<svg xmlns="http://www.w3.org/2000/svg"
     width="996.09375" height="996.09375"
     viewBox="0 0 996.09375 996.09375"
     fill="currentColor">
  <path d="M498.0477 996.0959C770.5077 996.0959 996.0977 770.0159 996.0977 498.0459C996.0977 225.5859 770.0177 -0.0041 497.5577 -0.0041C225.5877 -0.0041 -0.0023 225.5859 -0.0023 498.0459C-0.0023 770.0159 226.0777 996.0959 498.0477 996.0959ZM292.9677 374.5159C282.7177 392.0859 273.9277 410.6459 268.0677 430.1759L164.5477 249.9959C232.9077 157.7159 338.8677 95.2159 460.9377 84.4759ZM500.4877 257.8159C499.5077 257.8159 499.0277 257.8159 498.0477 257.8159C478.5177 257.8159 459.4777 260.2559 441.4077 264.6459L544.9177 85.4459C666.0177 99.1259 770.5077 164.0659 837.3977 257.8159ZM83.4977 498.0459C83.4977 435.0559 97.1677 375.9759 121.5777 322.7559L283.2077 603.0259C294.4377 625.4859 309.0777 645.9959 326.1677 664.0659H117.6777C95.7077 613.2859 83.4977 557.1259 83.4977 498.0459ZM913.0877 498.0459C913.0877 560.5459 899.4177 620.1159 874.9977 673.3359L712.3977 391.1159C701.1677 369.1359 686.5277 349.1259 669.9177 331.5459H878.4177C900.8777 382.3259 913.0877 438.4759 913.0877 498.0459ZM498.0477 664.0659C434.5677 664.0659 377.9277 625.9759 350.0977 572.2659L349.1177 570.3159C337.8877 548.3359 332.0277 523.9259 332.0277 498.0459C332.0277 406.7359 407.2277 331.5459 498.0477 331.5459C561.5277 331.5459 618.1677 369.1359 645.9977 423.3359L646.4877 423.8259C657.7177 446.2859 664.0577 471.6759 664.0577 498.0459C664.0577 588.3759 588.8677 664.0659 498.0477 664.0659ZM703.1277 621.0959C713.8677 603.5159 722.1677 584.9559 728.0277 565.4259L832.0277 745.6059C763.1877 838.3759 656.7377 900.8759 535.1577 911.6259ZM498.0477 737.7959C517.5777 737.7959 536.6177 735.3559 554.6877 730.9559L451.1677 910.6459C329.5877 896.9759 225.0977 832.0359 158.6877 737.3059L495.6077 737.7959C496.5777 737.7959 497.0677 737.7959 498.0477 737.7959Z"/>
</svg>