<?xml version="1.0" encoding="UTF-8" standalone="no"?>
<svg xmlns="http://www.w3.org/2000/svg"
     width="1076.66015625" height="1022.94921875"
     viewBox="0 0 1076.66015625 1022.94921875"
     fill="currentColor">
  <path d="M343.7477 1022.9447C416.0177 1022.9447 483.3977 1000.4847 538.5777 962.4047C593.7477 1000.4847 661.1377 1022.9447 733.3977 1022.9447C922.3677 1022.9447 1076.6577 868.6547 1076.6577 678.7147C1076.6577 542.4847 996.5777 424.3147 880.8577 369.1447C881.3477 360.8447 881.8377 352.0547 881.8377 343.7547C881.8377 154.2947 728.0277 0.0047 538.5777 0.0047C348.6377 0.0047 194.3377 154.2947 194.3377 343.7547C194.3377 352.0547 194.8277 360.8447 195.3077 369.1447C80.0777 424.8047 -0.0023 542.4847 -0.0023 678.7147C-0.0023 868.6547 154.2977 1022.9447 343.7477 1022.9447ZM343.7477 335.4447C319.3377 335.4447 295.4077 337.8947 272.4577 342.7747C272.4577 197.2647 391.5977 78.1247 538.5777 78.1247C684.0777 78.1247 802.7377 196.2847 803.7077 342.7747C780.7577 337.8947 757.3277 335.4447 733.3977 335.4447C660.6477 335.4447 593.7477 357.9147 538.5777 395.9947C482.9077 357.9147 416.0177 335.4447 343.7477 335.4447ZM343.7477 413.5747C392.5777 413.5747 437.9877 426.7547 477.5377 449.7047C445.3077 485.3547 420.4077 527.3447 405.7577 574.2147C347.6577 540.5247 303.2277 485.8447 283.6877 420.4147C303.2277 416.0147 323.2377 413.5747 343.7477 413.5747ZM733.3977 413.5747C753.4177 413.5747 773.4377 416.0147 792.4777 420.4147C772.9477 485.8447 729.0077 540.5247 670.8977 574.2147C656.2477 527.3447 631.3477 485.3547 599.6077 449.7047C638.6677 426.7547 684.5677 413.5747 733.3977 413.5747ZM733.3977 944.8247C684.5677 944.8247 638.6677 931.6447 599.6077 908.6947C654.2977 847.6547 687.4977 767.0947 687.4977 678.7147C687.4977 670.4147 687.0077 662.1047 686.5277 653.8047C770.9977 613.2847 836.4277 539.5547 865.2377 448.7347C944.8277 494.6247 998.5377 580.5647 998.5377 678.7147C998.5377 825.6847 880.3677 944.8247 733.3977 944.8247ZM343.7477 944.8247C196.7777 944.8247 78.1277 826.1747 78.1277 678.7147C78.1277 581.0547 131.3477 495.1147 210.9377 449.2147C240.2377 539.5547 305.6677 613.7647 390.1377 654.2947C389.6477 662.1047 389.1577 670.4147 389.1577 678.7147C389.1577 767.0947 422.3677 847.6547 477.5377 908.6947C437.9877 931.6447 392.5777 944.8247 343.7477 944.8247ZM538.5777 609.3747C517.5777 609.3747 497.5577 607.4247 478.5177 602.5347C490.2377 563.4747 511.2277 527.8347 538.5777 498.5347C565.4277 527.8347 586.4277 563.4747 598.1477 602.5347C579.0977 607.4247 559.0777 609.3747 538.5777 609.3747ZM538.5777 687.5047C562.4977 687.5047 586.4277 685.0547 609.3777 680.1747C609.3777 749.0247 582.5177 812.5047 538.0877 859.8647C494.6277 812.9847 467.7777 750.0047 467.2877 680.1747C490.2377 685.0547 514.1577 687.5047 538.5777 687.5047Z"/>
</svg>