<?xml version="1.0" encoding="UTF-8" standalone="no"?>
<svg xmlns="http://www.w3.org/2000/svg"
     width="1151.3671875" height="898.92578125"
     viewBox="0 0 1151.3671875 898.92578125"
     fill="currentColor">
  <path d="M1072.7583 416.5078H1151.3683V151.3678C1151.3683 50.7778 1100.5883 -0.0022 998.0483 -0.0022H609.8683V78.6178H997.0683C1045.4083 78.6178 1072.7583 104.9778 1072.7583 155.7578ZM-0.0017 416.5078H78.6183V155.7578C78.6183 104.9778 105.4683 78.6178 154.2983 78.6178H542.9683V-0.0022H153.3183C51.2683 -0.0022 -0.0017 50.7778 -0.0017 151.3678ZM187.9883 145.5078C157.7183 145.5078 145.5083 158.2078 145.5083 189.4578V416.5078H369.1383C383.2983 328.6178 454.0983 258.2978 542.9683 244.1378V145.5078ZM963.3783 145.5078H609.8683V244.1378C697.2683 258.2978 768.0683 328.6178 782.2283 416.5078H1006.3483V189.4578C1006.3483 158.2078 994.1383 145.5078 963.3783 145.5078ZM576.1683 588.8678C651.8583 588.8678 714.8483 525.8778 714.8483 449.2178C714.8483 373.5378 651.8583 311.0378 576.1683 311.0378C499.5083 311.0378 437.0083 373.5378 437.0083 449.2178C437.0083 525.8778 499.5083 588.8678 576.1683 588.8678ZM187.9883 753.9078H542.9683V655.2778C454.0983 641.1178 383.2983 570.3078 369.1383 482.9078H145.5083V709.9578C145.5083 741.2078 157.7183 753.9078 187.9883 753.9078ZM963.3783 753.9078C994.1383 753.9078 1006.3483 741.2078 1006.3483 709.9578V482.9078H782.2283C768.0683 570.3078 697.2683 641.1178 609.8683 655.2778V753.9078ZM153.3183 898.9278H542.9683V820.3078H154.2983C105.4683 820.3078 78.6183 794.4378 78.6183 743.6478V482.9078H-0.0017V748.0478C-0.0017 848.6378 51.2683 898.9278 153.3183 898.9278ZM609.8683 898.9278H998.0483C1100.5883 898.9278 1151.3683 848.6378 1151.3683 748.0478V482.9078H1072.7583V743.6478C1072.7583 794.4378 1045.4083 820.3078 997.0683 820.3078H609.8683Z"/>
</svg>