<?xml version="1.0" encoding="UTF-8" standalone="no"?>
<svg xmlns="http://www.w3.org/2000/svg"
     width="1199.21875" height="1086.9420744941249"
     viewBox="0 0 1199.21875 1086.9420744941249"
     fill="currentColor">
  <path d="M65.4283 69.3658L202.6383 187.0358C211.4283 194.3658 220.6983 200.2258 230.9583 200.2258C241.6983 200.2258 250.9783 194.3658 259.7683 187.0358L396.9683 69.3658C437.4983 35.1858 389.6483 -27.3142 344.7283 13.2158L230.9583 117.2158L117.6783 13.2158C72.2683 -27.3142 24.8983 35.1858 65.4283 69.3658ZM153.3183 1086.9458H1045.8983C1147.4583 1086.9458 1199.2183 1036.1658 1199.2183 935.5758V424.3458C1199.2183 323.7558 1147.4583 273.4658 1045.8983 273.4658H906.2483C867.6783 273.4658 855.9583 265.6558 833.9883 241.2358L794.9183 197.2958C770.5083 170.4358 745.6083 155.7858 695.3083 155.7858H500.4883C450.1983 155.7858 425.2883 170.4358 400.8783 197.2958L361.8183 241.2358C339.8483 265.1658 327.6383 273.4658 289.5483 273.4658H153.3183C51.2683 273.4658 -0.0017 323.7558 -0.0017 424.3458V935.5758C-0.0017 1036.1658 51.2683 1086.9458 153.3183 1086.9458ZM599.6083 942.8958C451.6583 942.8958 333.0083 824.7358 333.0083 675.8058C333.0083 527.3758 451.6583 409.2058 599.6083 409.2058C747.5583 409.2058 865.7183 527.3758 865.7183 675.8058C865.7183 824.7358 747.0683 942.8958 599.6083 942.8958ZM898.4383 496.1258C898.4383 462.9158 927.2483 433.6258 961.9183 433.6258C995.1183 433.6258 1024.4183 462.9158 1024.4183 496.1258C1024.4183 530.7858 995.1183 558.6258 961.9183 559.1058C927.2483 559.1058 898.4383 531.2758 898.4383 496.1258ZM599.6083 868.6758C706.0583 868.6758 791.9883 783.2358 791.9883 675.8058C791.9883 568.8758 706.0583 482.9358 599.6083 482.9358C493.1683 482.9358 406.7383 568.8758 406.7383 675.8058C406.7383 783.2358 493.6483 868.6758 599.6083 868.6758Z"/>
</svg>