<?xml version="1.0" encoding="UTF-8" standalone="no"?>
<svg xmlns="http://www.w3.org/2000/svg"
     width="996.09375" height="996.09375"
     viewBox="0 0 996.09375 996.09375"
     fill="currentColor">
  <path d="M498.0477 996.0959C770.5077 996.0959 996.0977 770.0159 996.0977 498.0459C996.0977 225.5859 770.0177 -0.0041 497.5577 -0.0041C225.5877 -0.0041 -0.0023 225.5859 -0.0023 498.0459C-0.0023 770.0159 226.0777 996.0959 498.0477 996.0959ZM498.0477 913.0859C267.5777 913.0859 83.4977 728.5159 83.4977 498.0459C83.4977 267.5759 267.0877 83.0059 497.5577 83.0059C728.0277 83.0059 913.0877 267.5759 913.0877 498.0459C913.0877 728.5159 728.5177 913.0859 498.0477 913.0859ZM476.0777 781.7359C476.0777 793.4559 485.8377 801.7559 497.0677 801.7559C626.9577 801.7559 747.0677 721.6759 786.6177 607.9059C792.4777 592.2859 786.1377 581.5459 769.5277 581.5459C649.4177 581.5459 560.0577 647.9459 518.0677 735.3559V524.4159C607.9077 515.1359 664.0577 443.8459 664.0577 357.9059C664.0577 330.0759 658.6877 301.7559 645.9977 272.9459C640.6277 260.7459 625.4877 258.7859 615.7277 269.0459L560.0577 326.6559L512.2077 264.1559C504.3977 253.4159 490.7277 253.4159 482.9077 264.1559L434.5677 326.6559L378.4177 269.0459C368.6477 258.7859 354.0077 260.7459 349.1177 272.9459C336.4277 301.7559 330.0777 330.0759 330.0777 357.9059C330.0777 443.3559 386.7177 515.1359 476.0777 524.4159ZM446.7777 689.9459C399.8977 625.9759 322.2677 581.5459 224.6077 581.5459C207.5177 581.5459 201.6577 592.2859 207.5177 607.9059C241.6977 708.0059 337.8877 781.7359 449.7077 796.8759C447.7577 792.4759 446.7777 787.1059 446.7777 781.7359Z"/>
</svg>