<?xml version="1.0" encoding="UTF-8" standalone="no"?>
<svg xmlns="http://www.w3.org/2000/svg"
     width="1151.3671875" height="898.92578125"
     viewBox="0 0 1151.3671875 898.92578125"
     fill="currentColor">
  <path d="M1072.7583 416.5078H1151.3683V151.3678C1151.3683 50.7778 1100.5883 -0.0022 998.0483 -0.0022H609.8683V78.6178H997.0683C1045.4083 78.6178 1072.7583 104.9778 1072.7583 155.7578ZM-0.0017 416.5078H78.6183V155.7578C78.6183 104.9778 105.4683 78.6178 154.2983 78.6178H542.9683V-0.0022H153.3183C51.2683 -0.0022 -0.0017 50.7778 -0.0017 151.3678ZM566.8983 550.2978C591.3083 550.2978 606.4483 534.6678 606.4483 515.6278V509.7678C606.4483 482.4178 622.0683 464.8478 656.2483 442.3778C703.6183 411.1278 737.3083 382.8078 737.3083 324.2178C737.3083 243.1678 665.0383 199.2178 582.0283 199.2178C498.0483 199.2178 442.8683 239.2578 429.6883 284.1778C427.2483 291.9878 425.7783 299.8078 425.7783 308.1078C425.7783 330.0778 442.8683 341.7978 458.9883 341.7978C475.5883 341.7978 486.3283 333.9878 495.1183 322.2678L503.9083 310.5478C520.9983 282.2278 546.3883 265.6278 579.0983 265.6278C623.5383 265.6278 652.3483 291.0178 652.3483 328.1278C652.3483 361.3278 631.8383 377.4378 588.8683 407.2278C554.1983 431.6378 527.8283 457.5178 527.8283 505.3678V511.7178C527.8283 537.1078 541.9883 550.2978 566.8983 550.2978ZM153.3183 898.9278H542.9683V820.3078H154.2983C105.4683 820.3078 78.6183 794.4378 78.6183 743.6478V482.9078H-0.0017V748.0478C-0.0017 848.6378 51.2683 898.9278 153.3183 898.9278ZM609.8683 898.9278H998.0483C1100.5883 898.9278 1151.3683 848.6378 1151.3683 748.0478V482.9078H1072.7583V743.6478C1072.7583 794.4378 1045.4083 820.3078 997.0683 820.3078H609.8683ZM565.9183 695.7978C594.2383 695.7978 618.6483 673.3378 618.6483 645.0178C618.6483 616.6978 594.7283 594.2378 565.9183 594.2378C537.1083 594.2378 513.1883 617.1878 513.1883 645.0178C513.1883 672.8478 537.5983 695.7978 565.9183 695.7978Z"/>
</svg>