<?xml version="1.0" encoding="UTF-8" standalone="no"?>
<svg xmlns="http://www.w3.org/2000/svg"
     width="996.09375" height="996.09375"
     viewBox="0 0 996.09375 996.09375"
     fill="currentColor">
  <path d="M498.0477 996.0977C770.5077 996.0977 996.0977 770.5077 996.0977 498.0477C996.0977 226.0777 770.0177 -0.0023 497.5577 -0.0023C225.5877 -0.0023 -0.0023 226.0777 -0.0023 498.0477C-0.0023 770.5077 226.0777 996.0977 498.0477 996.0977ZM273.4377 726.0777C220.2177 726.0777 193.3577 699.7077 193.3577 647.4577V381.3477C193.3577 328.1277 220.2177 302.2477 273.4377 302.2477H336.9177C356.4477 302.2477 362.3077 297.3677 373.5377 285.6477L394.5277 262.6977C407.2277 248.5377 420.4077 241.2077 446.2877 241.2077H547.8477C574.2177 241.2077 587.3977 248.5377 599.6077 262.6977L620.1177 285.6477C631.3477 298.3377 638.1877 302.2477 657.7177 302.2477H722.6577C775.3877 302.2477 802.7377 328.1277 802.7377 381.3477V647.4577C802.7377 699.7077 775.3877 726.0777 722.6577 726.0777ZM498.5377 662.5977C582.0277 662.5977 648.9277 597.6577 648.9277 511.7177C648.9277 428.2177 582.0277 360.8377 498.5377 360.8377C415.0377 360.8377 347.6577 428.2177 347.6577 511.7177C347.6577 596.1877 415.0377 662.5977 498.5377 662.5977ZM699.7077 439.4577C718.2577 439.4577 733.8877 424.3177 733.3977 405.2777C733.3977 386.2277 718.2577 371.0977 699.7077 371.0977C680.6677 371.0977 665.0377 386.2277 665.0377 405.2777C665.0377 424.3177 680.6677 439.4577 699.7077 439.4577ZM498.0477 619.1377C438.9677 619.1377 390.6277 571.2877 390.6277 511.7177C390.6277 452.1477 438.9677 404.2977 498.0477 404.2977C557.1277 404.2977 605.4677 452.6377 605.4677 511.7177C605.4677 571.2877 557.1277 619.1377 498.0477 619.1377Z"/>
</svg>