<?xml version="1.0" encoding="UTF-8" standalone="no"?>
<svg xmlns="http://www.w3.org/2000/svg"
     width="996.09375" height="996.09375"
     viewBox="0 0 996.09375 996.09375"
     fill="currentColor">
  <path d="M498.0477 996.0959C770.5077 996.0959 996.0977 770.0159 996.0977 498.0459C996.0977 225.5859 770.0177 -0.0041 497.5577 -0.0041C225.5877 -0.0041 -0.0023 225.5859 -0.0023 498.0459C-0.0023 770.0159 226.0777 996.0959 498.0477 996.0959ZM325.1977 352.5359C325.1977 323.7259 332.0277 294.9259 345.2177 265.1359C349.6077 252.4459 365.2377 250.4859 375.4877 261.2259L433.1077 320.3159L482.9077 255.8559C491.2077 244.6259 505.3677 244.6259 513.1877 255.8559L562.4977 320.3159L619.6277 261.2259C629.8877 250.4859 645.5077 252.4459 651.3677 265.1359C664.0577 294.9259 669.9177 323.7259 669.9177 352.5359C669.9177 440.9159 611.8177 514.1559 519.5277 524.4159V740.7259C562.4977 651.3659 654.7877 583.0059 778.3177 583.0059C795.8977 583.0059 802.2477 594.2359 796.3877 610.3559C755.3677 727.5359 631.3477 810.0559 497.5577 810.0559C485.8377 810.0559 476.0777 801.7559 476.0777 789.5459V524.4159C383.7877 514.6459 325.1977 440.9159 325.1977 352.5359ZM198.7277 610.3559C192.8677 594.2359 198.7277 583.0059 216.7977 583.0059C317.3877 583.0059 396.9777 628.9059 445.3077 694.3359V789.5459C445.3077 794.9259 446.2877 800.7859 448.7277 805.1759C333.4977 789.5459 233.8877 713.3759 198.7277 610.3559Z"/>
</svg>