<?xml version="1.0" encoding="UTF-8" standalone="no"?>
<svg xmlns="http://www.w3.org/2000/svg"
     width="1199.21875" height="931.15234375"
     viewBox="0 0 1199.21875 931.15234375"
     fill="currentColor">
  <path d="M153.3183 931.1561H1045.8983C1147.4583 931.1561 1199.2183 880.3761 1199.2183 779.7861V268.5561C1199.2183 167.9661 1147.4583 117.6761 1045.8983 117.6761H906.2483C867.6783 117.6761 855.9583 109.8661 833.9883 85.4461L794.9183 41.5061C770.5083 14.6461 745.6083 -0.0039 695.3083 -0.0039H500.4883C450.1983 -0.0039 425.2883 14.6461 400.8783 41.5061L361.8183 85.4461C339.8483 109.3761 327.6383 117.6761 289.5483 117.6761H153.3183C51.2683 117.6761 -0.0017 167.9661 -0.0017 268.5561V779.7861C-0.0017 880.3761 51.2683 931.1561 153.3183 931.1561ZM599.6083 787.1061C451.6583 787.1061 333.0083 668.9461 333.0083 520.0161C333.0083 371.5861 451.6583 253.4161 599.6083 253.4161C747.5583 253.4161 865.7183 371.5861 865.7183 520.0161C865.7183 668.9461 747.0683 787.1061 599.6083 787.1061ZM898.4383 340.3361C898.4383 307.1261 927.7383 277.8361 961.9183 277.8361C995.6083 277.8361 1024.4183 307.1261 1024.4183 340.3361C1024.4183 374.9961 995.6083 402.8361 961.9183 403.3161C927.7383 403.3161 898.4383 375.4861 898.4383 340.3361ZM599.6083 712.8861C706.0583 712.8861 791.9883 627.4461 791.9883 520.0161C791.9883 413.0861 706.0583 327.1461 599.6083 327.1461C493.1683 327.1461 406.7383 413.0861 406.7383 520.0161C406.7383 627.4461 493.6483 712.8861 599.6083 712.8861Z"/>
</svg>