<?xml version="1.0" encoding="UTF-8" standalone="no"?>
<svg xmlns="http://www.w3.org/2000/svg"
     width="1199.21875" height="1086.9420744941249"
     viewBox="0 0 1199.21875 1086.9420744941249"
     fill="currentColor">
  <path d="M65.4283 69.3658L202.6383 187.0358C211.4283 194.3658 220.6983 200.2258 230.9583 200.2258C241.6983 200.2258 250.9783 194.3658 259.7683 187.0358L396.9683 69.3658C437.4983 35.1858 389.6483 -27.3142 344.7283 13.2158L230.9583 117.2158L117.6783 13.2158C72.2683 -27.3142 24.8983 35.1858 65.4283 69.3658ZM153.3183 1086.9458H1045.8983C1147.4583 1086.9458 1199.2183 1036.1658 1199.2183 935.5758V424.3458C1199.2183 323.7558 1147.4583 273.4658 1045.8983 273.4658H906.2483C867.6783 273.4658 855.9583 265.6558 833.9883 241.2358L794.9183 197.2958C770.5083 170.4358 745.6083 155.7858 695.3083 155.7858H500.4883C450.1983 155.7858 425.2883 170.4358 400.8783 197.2958L361.8183 241.2358C339.8483 265.1658 327.6383 273.4658 289.5483 273.4658H153.3183C51.2683 273.4658 -0.0017 323.7558 -0.0017 424.3458V935.5758C-0.0017 1036.1658 51.2683 1086.9458 153.3183 1086.9458ZM154.2983 1008.3258C106.4483 1008.3258 78.6183 982.4458 78.6183 931.6658V428.7358C78.6183 377.9558 106.4483 352.0758 154.2983 352.0758H309.0783C353.0283 352.0758 376.9483 343.7758 401.3683 316.4358L439.4483 273.4658C467.2883 242.2158 481.9383 234.4058 524.8983 234.4058H670.8983C713.8683 234.4058 728.5183 242.2158 756.3483 273.4658L794.4383 316.4358C818.8483 343.7758 842.7783 352.0758 886.7183 352.0758H1044.4383C1092.7783 352.0758 1120.6083 377.9558 1120.6083 428.7358V931.6658C1120.6083 982.4458 1092.7783 1008.3258 1044.4383 1008.3258ZM599.6083 938.0158C747.0683 938.0158 865.7183 819.8558 865.7183 670.9258C865.7183 522.4858 747.5583 404.3258 599.6083 404.3258C451.6583 404.3258 333.0083 522.4858 333.0083 670.9258C333.0083 819.8558 451.6583 938.0158 599.6083 938.0158ZM885.7383 491.2358C885.7383 525.4158 913.5783 552.2758 947.2683 552.2758C979.4883 552.2758 1007.8083 524.9258 1007.8083 491.2358C1007.8083 459.0158 979.4883 430.6958 947.2683 430.6958C913.5783 430.6958 885.7383 459.0158 885.7383 491.2358ZM599.6083 863.7958C493.6483 863.7958 406.7383 778.3458 406.7383 670.9258C406.7383 563.9958 493.1683 478.0558 599.6083 478.0558C706.0583 478.0558 791.9883 563.9958 791.9883 670.9258C791.9883 778.3458 706.0583 863.7958 599.6083 863.7958Z"/>
</svg>