<?xml version="1.0" encoding="UTF-8" standalone="no"?>
<svg xmlns="http://www.w3.org/2000/svg"
     width="1265.13671875" height="1022.94921875"
     viewBox="0 0 1265.13671875 1022.94921875"
     fill="currentColor">
  <path d="M-0.0017 645.5113C-0.0017 746.0912 50.7783 796.8713 153.3183 796.8713H179.6883V457.5213C179.6883 319.8212 260.7383 239.7413 399.8983 239.7413H472.1683C482.9083 239.7413 485.3483 238.7713 493.6483 229.9813L528.3183 194.8212C567.3783 154.3012 608.3983 136.2313 663.5783 136.2313H848.6283C904.7883 136.2313 947.2683 154.7813 985.3483 196.2913L1007.3283 220.2112C1011.2283 224.1213 1015.6283 229.4913 1018.5583 230.9612V151.3713C1018.5583 50.7813 967.2883 0.0013 865.7183 0.0013H153.3183C50.7783 0.0013 -0.0017 50.7813 -0.0017 151.3713ZM399.8983 1022.9513H1112.3083C1214.3583 1022.9513 1265.1383 972.1713 1265.1383 871.5813V457.5213C1265.1383 356.9313 1214.3583 306.6413 1112.3083 306.6413H1039.5483C1002.9283 306.6413 991.6983 302.2413 970.6983 279.3013L935.5483 241.2112C910.6483 213.8713 886.7183 203.1213 848.6283 203.1213H663.5783C624.9983 203.1213 602.5383 214.3513 576.1683 241.2112L539.0583 279.3013C517.5783 300.2913 508.7883 306.6413 472.1683 306.6413H399.8983C297.3683 306.6413 246.5783 356.9313 246.5783 457.5213V871.5813C246.5783 972.1713 297.3683 1022.9513 399.8983 1022.9513ZM756.3483 878.4213C625.4883 878.4213 520.0183 772.9513 520.0183 641.6012C520.0183 511.2313 625.4883 405.2713 756.3483 405.2713C886.7183 405.2713 992.6783 511.2313 992.6783 641.6012C992.6783 772.9513 886.7183 878.4213 756.3483 878.4213ZM1056.1483 529.3013C1025.8783 529.3013 1001.4683 504.8813 1001.4683 474.6113C1001.4683 444.3313 1025.8783 419.4313 1056.1483 419.4313C1086.4283 419.4313 1111.3283 444.3313 1111.3283 474.6113C1111.3283 504.8813 1086.4283 529.3013 1056.1483 529.3013ZM756.3483 803.7112C845.2183 803.7112 917.4783 730.9613 917.4783 641.6012C917.4783 552.7313 845.2183 480.4713 756.3483 480.4713C667.4783 480.4713 594.7283 552.7313 594.7283 641.6012C594.7283 730.9613 667.4783 803.7112 756.3483 803.7112Z"/>
</svg>