<?xml version="1.0" encoding="UTF-8" standalone="no"?>
<svg xmlns="http://www.w3.org/2000/svg"
     width="876.953125" height="1185.05859375"
     viewBox="0 0 876.953125 1185.05859375"
     fill="currentColor">
  <path d="M438.4783 0.0025C172.8483 0.0025 -0.0017 166.0125 -0.0017 429.6825V755.8625C-0.0017 1019.5325 172.8483 1185.0625 438.4783 1185.0625C704.0983 1185.0625 876.9483 1019.5325 876.9483 755.8625V429.6825C876.9483 166.0125 704.0983 0.0025 438.4783 0.0025ZM438.4783 79.1025C656.2483 79.1025 797.3683 207.5225 797.3683 415.0425V770.5125C797.3683 978.0225 656.2483 1106.4425 438.4783 1106.4425C220.6983 1106.4425 79.5883 978.0225 79.5883 770.5125V415.0425C79.5883 207.5225 220.6983 79.1025 438.4783 79.1025ZM438.9683 1034.6725C619.6283 1034.6725 726.0783 936.0325 726.0783 770.5125V415.0425C726.0783 249.5125 619.6283 150.8825 438.9683 150.8825C258.2983 150.8825 151.3683 249.5125 151.3683 415.0425V770.5125C151.3683 936.0325 258.2983 1034.6725 438.9683 1034.6725Z"/>
</svg>