<?xml version="1.0" encoding="UTF-8" standalone="no"?>
<svg xmlns="http://www.w3.org/2000/svg"
     width="1026.3671875" height="1021.97265625"
     viewBox="0 0 1026.3671875 1021.97265625"
     fill="currentColor">
  <path d="M340.3306 711.4253H686.0306C742.1906 711.4253 768.5506 685.0553 768.5506 628.9053V520.5053H953.6106C994.1406 520.5053 1026.3706 496.5853 1026.3706 458.9853C1026.3706 436.0353 1014.6506 417.9653 992.6806 398.9253L573.7306 29.2953C553.2206 11.7153 535.1606 -0.0047 513.1806 -0.0047C491.2106 -0.0047 473.1406 11.7153 452.6406 29.2953L33.6906 399.4153C10.7406 419.4353 0.0006 436.0353 0.0006 458.9853C0.0006 496.5853 32.2306 520.5053 72.7506 520.5053H257.8106V628.9053C257.8106 685.0553 284.1806 711.4253 340.3306 711.4253ZM335.4506 1021.9753H690.9206C739.7506 1021.9753 768.5506 993.1653 768.5506 944.8253V869.6253C768.5506 821.2853 739.7506 792.4853 690.9206 792.4853H335.4506C286.6206 792.4853 257.8106 821.2853 257.8106 869.6253V944.8253C257.8106 993.1653 286.6206 1021.9753 335.4506 1021.9753Z"/>
</svg>