<?xml version="1.0" encoding="UTF-8" standalone="no"?>
<svg xmlns="http://www.w3.org/2000/svg"
     width="945.3125" height="1169.921875"
     viewBox="0 0 945.3125 1169.921875"
     fill="currentColor">
  <path d="M472.6583 79.5917C577.6383 79.5917 673.3383 116.2117 746.0983 181.6417C766.1183 199.7117 789.0583 204.1017 806.6383 188.9617C824.7083 172.8517 824.7083 145.9917 804.1983 126.9517C716.3083 45.9017 599.1183 0.0017 472.6583 0.0017C346.1883 0.0017 229.0083 45.9017 141.1183 126.9517C120.6083 145.9917 120.6083 172.8517 138.6683 188.9617C156.2483 204.1017 179.1983 199.7117 199.2183 181.6417C271.9683 116.2117 367.6783 79.5917 472.6583 79.5917ZM472.6583 275.3917C523.4383 275.3917 570.7983 290.0417 606.9383 319.3317C627.9283 334.4717 649.8983 341.3117 667.4783 325.6817C686.0383 309.5717 686.5283 280.2717 664.0583 262.6917C611.3283 220.2117 544.4383 195.8017 472.6583 195.8017C400.8783 195.8017 333.9883 220.2117 281.2483 262.6917C258.7883 280.2717 259.2783 309.5717 277.8283 325.6817C295.4083 341.3117 316.8983 334.4717 338.3783 319.3317C375.9783 291.0117 421.8783 275.3917 472.6583 275.3917ZM-0.0017 1113.2817C-0.0017 1144.5317 24.8983 1169.9217 57.1283 1169.9217H104.0083C135.7383 1169.9217 160.6483 1144.5317 160.6483 1113.2817V1060.5517H784.6683V1113.2817C784.6683 1144.5317 809.5683 1169.9217 841.3083 1169.9217H888.6683C920.4083 1169.9217 945.3083 1144.5317 945.3083 1113.2817V851.5617C945.3083 784.1817 936.5283 742.6717 894.0383 696.7817L855.4683 654.3017L813.4783 536.6217C790.0383 469.7217 744.6283 440.9217 688.4783 434.5717C662.1083 431.1517 574.7083 429.2017 472.6583 429.2017C370.6083 429.2017 283.1983 431.1517 256.8383 434.5717C200.6883 440.9217 155.2783 469.7217 131.8383 536.6217L89.8483 654.3017L51.2683 696.7817C8.7883 742.6717 -0.0017 784.1817 -0.0017 851.5617ZM203.1283 654.3017C187.0083 654.3017 182.6183 644.5317 187.9883 628.9017L212.8883 555.6617C222.1683 529.7817 232.9083 522.9517 255.8583 519.5317C283.6883 515.6217 359.8683 512.2117 472.6583 512.2117C585.4483 512.2117 661.6183 515.6217 688.9683 519.5317C711.9183 522.9517 723.1483 529.7817 732.4183 555.6617L757.3283 628.9017C762.6983 644.5317 757.8083 654.3017 741.6983 654.3017ZM147.9483 901.3717C125.4883 901.3717 110.3483 886.2317 110.3483 864.2617V802.2417C110.3483 780.2717 125.4883 765.6217 147.9483 765.6217C170.4083 765.6217 185.0583 779.7817 185.0583 802.2417V864.2617C185.0583 886.7217 170.4083 901.3717 147.9483 901.3717ZM801.2683 901.3717C779.2983 901.3717 764.1583 886.2317 764.1583 864.2617V802.2417C764.1583 780.2717 779.2983 765.6217 801.2683 765.6217C823.7283 765.6217 838.8683 779.7817 838.8683 802.2417V864.2617C838.8683 886.7217 823.7283 901.3717 801.2683 901.3717ZM382.3283 882.3217C365.2383 882.3217 355.4683 872.5617 355.4683 853.0317V812.9917C355.4683 794.4317 365.2383 784.6717 382.3283 784.6717H561.5283C579.0983 784.6717 588.8683 794.4317 588.8683 812.9917V853.0317C588.8683 872.5617 579.0983 882.3217 561.5283 882.3217Z"/>
</svg>