<?xml version="1.0" encoding="UTF-8" standalone="no"?>
<svg xmlns="http://www.w3.org/2000/svg"
     width="954.243312202558" height="1265.625"
     viewBox="0 0 954.243312202558 1265.625"
     fill="currentColor">
  <path d="M619.28 961.4216C806.78 961.4216 890.28 918.9416 890.28 811.0316V384.7616H911.27C935.69 384.7616 954.24 366.2116 954.24 343.2616V324.7116C954.24 301.2716 935.69 283.2016 911.27 283.2016H890.28V177.2416C890.28 65.9216 787.74 0.0016 619.28 0.0016C449.85 0.0016 347.31 65.9216 347.31 177.2416V283.2016H326.31C301.9 283.2016 283.34 301.2716 283.34 324.7116V343.2616C283.34 366.2116 301.9 384.7616 326.31 384.7616H347.31V811.0316C347.31 918.9416 431.29 961.4216 619.28 961.4216ZM618.79 401.8516C584.61 401.8516 527.49 404.7816 508.44 404.7816C478.17 404.7816 464.5 392.0916 461.57 360.3516L455.71 290.0416C450.83 231.9316 488.91 209.9616 618.79 209.9616C748.68 209.9616 786.76 231.9316 781.88 290.0416L775.53 360.3516C773.09 392.0916 758.93 404.7816 729.15 404.7816C709.61 404.7816 654.93 401.8516 618.79 401.8516ZM618.79 805.6616C488.91 805.6616 447.41 786.6216 457.17 726.5616L462.06 692.3816C469.87 644.5316 506.98 629.3916 618.79 629.3916C730.61 629.3916 767.72 644.5316 775.04 692.3816L780.42 726.5616C789.69 786.6216 748.68 805.6616 618.79 805.6616ZM243.31 1021.4816C293.6 1071.7816 361.96 1096.6816 403.95 1096.6816C426.9 1096.6816 442.52 1082.0316 442.52 1061.0316C442.52 1041.5016 428.85 1025.8816 398.58 1021.4816C360.98 1017.5816 325.83 1000.0016 295.06 969.7216C265.77 939.9416 248.68 903.8116 243.31 862.3016C238.91 834.9616 228.17 823.7316 204.24 823.7316C182.76 823.7316 165.67 840.3316 169.09 866.7016C175.43 926.2716 200.83 979.0016 243.31 1021.4816ZM122.21 1143.0616C196.92 1218.2616 292.13 1265.6216 395.65 1265.6216C420.55 1265.6216 437.64 1249.5116 437.64 1226.5616C437.64 1205.5616 421.04 1191.8916 393.21 1189.9416C313.13 1185.0616 235.01 1151.8516 173.97 1091.3116C113.42 1030.2716 80.22 952.6416 75.34 872.0716C72.9 840.8216 60.2 828.6116 35.79 828.6116C16.74 828.6116 -1.81 842.2816 0.14 869.1416C6.49 972.6516 46.53 1068.3616 122.21 1143.0616Z"/>
</svg>