<?xml version="1.0" encoding="UTF-8" standalone="no"?>
<svg xmlns="http://www.w3.org/2000/svg"
     width="1731.93359375" height="773.4375"
     viewBox="0 0 1731.93359375 773.4375"
     fill="currentColor">
  <path d="M127.4383 688.962H203.6183C200.6883 674.312 198.2383 659.182 198.2383 643.062C198.2383 538.082 281.2483 455.562 385.7383 455.562C490.7183 455.562 573.2383 538.082 573.2383 643.062C573.2383 659.182 571.2883 674.312 567.8683 688.962H1189.9383C1187.0083 674.312 1184.5683 659.182 1184.5683 643.062C1184.5683 538.082 1267.5783 455.562 1372.0683 455.562C1477.0483 455.562 1559.5683 538.082 1559.5683 643.062C1559.5683 659.182 1557.6183 674.312 1554.1983 688.962H1618.6483C1688.9683 688.962 1731.9383 644.532 1731.9383 572.262V375.972C1731.9383 307.622 1711.4283 249.512 1620.6083 221.192L1520.0183 190.432C1456.5383 114.742 1345.6983 6.832 1144.0383 6.832H1029.2983C828.1283 6.832 748.0483 26.372 627.9283 101.562L506.3483 177.732L560.0583 248.042C590.3283 287.112 608.8883 297.362 654.7883 297.362H761.7183V255.862C761.7183 221.192 791.9883 210.942 817.8683 228.032L939.9383 306.642C964.3583 322.262 963.8683 351.562 940.4283 366.702L817.3783 445.802C791.9883 462.402 761.7183 452.152 761.7183 417.972V375.972H654.7883C586.4283 375.972 539.5483 352.052 497.5583 296.872L439.4483 219.722L506.3483 177.732L427.7383 75.682C386.7183 21.482 338.3783 0.002 264.1583 0.002H144.0383C122.5583 0.002 104.9783 17.582 104.9783 39.062C104.9783 60.542 122.5583 78.612 144.0383 78.612H264.1583C318.3583 78.612 338.8683 87.892 366.2083 123.532L439.4483 219.722L431.1483 225.102L214.3583 251.462C79.5883 268.062 -0.0017 345.702 -0.0017 461.912V558.592C-0.0017 641.602 46.3883 688.962 127.4383 688.962ZM385.7383 773.442C458.9883 773.442 516.5983 715.822 516.5983 643.062C516.5983 570.312 458.4983 512.202 385.7383 512.202C313.4783 512.202 255.3683 570.312 255.3683 643.062C255.3683 715.332 313.4783 773.442 385.7383 773.442ZM1372.0683 773.442C1444.8283 773.442 1502.9283 715.332 1502.9283 643.062C1502.9283 570.312 1444.8283 512.202 1372.0683 512.202C1300.2883 512.202 1241.6983 570.802 1241.6983 643.062C1241.6983 715.332 1299.8083 773.442 1372.0683 773.442Z"/>
</svg>