<?xml version="1.0" encoding="UTF-8" standalone="no"?>
<svg xmlns="http://www.w3.org/2000/svg"
     width="1407.249964446413" height="730.95703125"
     viewBox="0 0 1407.249964446413 730.95703125"
     fill="currentColor">
  <path d="M40.0461 730.9552H103.5261C132.8161 730.9552 147.4661 716.7952 155.7661 695.8052L425.2961 30.2752C432.1361 14.1552 424.3261 -0.0048 407.2361 -0.0048H375.4961C358.4061 -0.0048 347.6661 8.3052 340.3361 22.9452L5.8661 676.7552C-7.8039 701.6552 1.9561 730.9552 40.0461 730.9552ZM1303.7161 730.9552H1367.6861C1405.2761 730.9552 1415.0461 701.6552 1401.3761 676.7552L1067.3861 22.9452C1059.5761 8.3052 1048.8361 -0.0048 1031.7461 -0.0048H1000.0061C982.9161 -0.0048 975.5961 14.1552 981.9361 30.2752L1251.4661 695.8052C1259.7761 716.7952 1274.4161 730.9552 1303.7161 730.9552ZM393.5561 569.3352C393.5561 588.3752 408.6961 603.5152 427.7361 603.5152H458.5061C478.0361 603.5152 492.6861 588.3752 492.6861 569.3352V531.7352H907.7161V569.3352C907.7161 588.3752 922.8561 603.5152 942.3861 603.5152H972.6661C992.1961 603.5152 1007.3261 588.3752 1007.3261 569.3352V395.9952C1007.3261 352.5352 1000.9861 326.1752 974.1261 296.8752L948.2461 268.5552L920.9061 190.4252C906.2561 147.9452 877.4461 130.3752 841.3161 125.9752C824.2261 124.0252 767.5861 122.5552 700.2061 122.5552C633.3061 122.5552 576.6661 124.0252 559.0861 125.9752C522.9561 130.3752 494.6361 147.9452 479.4961 190.4252L452.6461 268.5552L426.2761 296.8752C399.4161 326.1752 393.5561 352.5352 393.5561 395.9952ZM523.4461 270.0152C511.2361 270.0152 506.8461 260.7452 510.7461 249.5152L526.8661 201.1752C532.7161 183.1052 542.4861 177.2452 558.1161 175.2952C576.1761 172.8552 626.4661 170.8952 700.2061 170.8952C774.4161 170.8952 824.2261 172.8552 842.2961 175.2952C857.9161 177.2452 867.6861 183.1052 873.5461 201.1752L890.1461 249.5152C894.0461 260.7452 889.1661 270.0152 876.9561 270.0152ZM487.3061 432.1252C471.1961 432.1252 459.4761 420.4052 459.4761 404.2952V363.7652C459.4761 348.1452 471.1961 336.4252 487.3061 336.4252C503.4261 336.4252 515.1461 347.6552 515.1461 363.7652V404.2952C515.1461 420.4052 503.4261 432.1252 487.3061 432.1252ZM915.5361 432.1252C900.3961 432.1252 888.1861 419.9252 888.1861 404.2952V363.7652C888.1861 348.1452 900.3961 336.4252 915.5361 336.4252C931.6461 336.4252 943.3661 347.6552 943.3661 363.7652V404.2952C943.3661 420.4052 931.6461 432.1252 915.5361 432.1252ZM641.1161 419.4352C628.4261 419.4352 620.1261 411.1352 620.1261 397.4652V371.0952C620.1261 357.4252 628.4261 349.1252 641.1161 349.1252H758.3061C771.4861 349.1252 779.7961 357.4252 779.7961 371.0952V397.4652C779.7961 411.1352 771.4861 419.4352 758.3061 419.4352Z"/>
</svg>