<?xml version="1.0" encoding="UTF-8" standalone="no"?>
<svg xmlns="http://www.w3.org/2000/svg"
     width="1056.6519277150803" height="989.2578125"
     viewBox="0 0 1056.6519277150803 989.2578125"
     fill="currentColor">
  <path d="M597.6713 886.2345C746.5913 800.2945 793.9613 727.5345 744.1513 641.6045L547.8613 300.7845L564.4613 291.5045C583.0213 280.7645 589.8513 256.8345 579.1113 238.7645L570.3213 224.1245C559.5813 205.5645 536.6313 199.7045 517.5913 210.9345L500.9913 220.2145L452.1613 135.7445C400.8913 46.8745 289.0713 42.4845 154.8013 119.6245C151.3813 121.5845 148.4513 123.0445 145.5213 125.0045V28.8045C145.5213 12.2045 133.3113 0.0045 116.7113 0.0045H90.8313C74.2313 0.0045 62.0213 12.2045 62.0213 28.8045V188.4745C-0.9687 251.4645 -17.5687 321.2845 19.5413 385.7445L68.3713 470.2145L51.7713 479.4945C32.2413 490.7245 26.8713 513.6745 37.1213 532.2245L45.4213 547.3645C55.6713 565.4345 79.1113 571.7745 98.1513 560.5445L114.7613 550.7845L311.0513 891.6045C361.3413 977.5345 448.2513 972.1645 597.6713 886.2345ZM1027.8413 264.6445C1044.4413 264.6445 1056.6513 252.4445 1056.6513 235.8445V28.8045C1056.6513 12.2045 1044.4413 0.0045 1027.8413 0.0045H1001.9613C985.3613 0.0045 973.1513 12.2045 973.1513 28.8045V235.8445C973.1513 252.4445 985.3613 264.6445 1001.9613 264.6445ZM339.3713 439.4545C312.0213 455.5645 267.5913 484.8645 252.9413 493.6545C229.0113 507.3245 211.9213 504.3945 194.8313 479.4945L157.2413 426.2645C126.9613 382.3245 146.9813 347.1645 251.4713 287.1045C354.9913 227.0545 395.5213 227.0545 418.9613 275.8745L445.8113 334.9645C458.0213 360.8445 453.6213 377.4445 428.7213 391.1145C413.5813 400.8745 368.1713 422.8545 339.3713 439.4545ZM1027.8413 626.4645C1044.4413 626.4645 1056.6513 614.2545 1056.6513 597.6545V391.1145C1056.6513 375.0045 1044.4413 362.7945 1027.8413 362.7945H1001.9613C985.3613 362.7945 973.1513 375.0045 973.1513 391.1145V597.6545C973.1513 614.2545 985.3613 626.4645 1001.9613 626.4645ZM525.8913 762.6945C422.3713 822.7545 379.8913 826.1745 359.8713 774.4145L348.6413 744.6245C332.0413 702.6345 354.9913 673.8245 444.8313 622.5545C533.7013 570.8045 571.3013 564.9445 598.6413 600.0945L618.6613 625.0045C653.3313 668.9445 628.9213 703.1245 525.8913 762.6945ZM116.7113 988.7745C133.3113 988.7745 145.5213 976.5645 145.5213 960.4445V753.4145C145.5213 736.8145 133.3113 724.6045 116.7113 724.6045H90.8313C74.2313 724.6045 62.0213 736.8145 62.0213 753.4145V960.4445C62.0213 976.5645 74.2313 988.7745 90.8313 988.7745ZM1027.8413 989.2545C1044.4413 989.2545 1056.6513 977.0545 1056.6513 960.4445V753.4145C1056.6513 736.8145 1044.4413 724.6045 1027.8413 724.6045H1001.9613C985.3613 724.6045 973.1513 736.8145 973.1513 753.4145V960.4445C973.1513 977.0545 985.3613 989.2545 1001.9613 989.2545Z"/>
</svg>