<?xml version="1.0" encoding="UTF-8" standalone="no"?>
<svg xmlns="http://www.w3.org/2000/svg"
     width="916.9921875" height="1260.7421875"
     viewBox="0 0 916.9921875 1260.7421875"
     fill="currentColor">
  <path d="M565.4283 1260.7402C812.0083 1260.7402 916.9883 1206.5402 916.9883 1073.7302V226.0702C916.9883 83.5002 787.5983 0.0002 565.4283 0.0002C343.7483 0.0002 213.8683 83.5002 213.8683 226.0702V376.4602L11.7183 577.6402C-3.9017 593.7502 -3.9017 619.6302 11.7183 635.7402C27.8283 651.3702 53.7083 651.8602 69.8283 635.7402L213.8683 491.7002V745.6102L11.7183 946.7802C-3.9017 962.4002 -3.9017 988.7702 11.7183 1004.8802C27.8283 1020.5102 53.7083 1021.0002 69.8283 1004.8802L213.8683 860.8402V1073.7302C213.8683 1206.5402 319.3383 1260.7402 565.4283 1260.7402ZM565.4283 1179.6902C376.9483 1179.6902 295.4083 1147.9502 295.4083 1069.8202V226.0702C295.4083 134.7702 395.0183 81.5402 565.4283 81.5402C736.3283 81.5402 835.4483 134.7702 835.4483 226.0702V1069.8202C835.4483 1147.9502 754.3983 1179.6902 565.4283 1179.6902ZM565.9183 524.4102C609.3783 524.4102 683.5983 527.8302 708.0083 527.8302C745.1183 527.8302 760.7383 513.6702 764.1583 475.5902L771.9683 383.7902C778.3183 313.4802 729.0083 285.1602 565.9183 285.1602C402.3483 285.1602 353.0283 313.4802 359.3783 383.7902L367.1883 475.5902C370.6083 513.6702 386.7183 527.8302 423.3383 527.8302C448.2383 527.8302 519.5283 524.4102 565.9183 524.4102ZM565.9183 1045.4102C729.9783 1045.4102 780.2783 1021.0002 770.0183 949.2202L763.6683 904.7802C755.8583 846.1902 707.0283 826.6602 565.9183 826.6602C424.3183 826.6602 375.4883 846.1902 367.6783 904.7802L361.3283 949.2202C351.0783 1021.0002 401.3683 1045.4102 565.9183 1045.4102Z"/>
</svg>