<?xml version="1.0" encoding="UTF-8" standalone="no"?>
<svg xmlns="http://www.w3.org/2000/svg"
     width="670.8984375" height="1336.9140625"
     viewBox="0 0 670.8984375 1336.9140625"
     fill="currentColor">
  <path d="M335.4483 73.2461C421.8783 73.2461 499.9983 104.9761 560.0583 158.6961C581.0583 176.7561 603.0283 178.2261 617.6783 164.0661C633.7883 147.9461 632.8083 124.5161 615.7183 106.4461C542.9683 33.6961 441.8983 -0.0039 335.4483 -0.0039C229.4883 -0.0039 128.4183 33.6961 55.6683 106.4461C38.0883 124.5161 37.1083 147.9461 53.7083 164.0661C67.8683 178.2261 89.8483 176.7561 110.8383 158.6961C170.8983 104.9761 249.5083 73.2461 335.4483 73.2461ZM335.4483 244.6261C378.4183 244.6261 416.0183 257.8161 444.8283 281.7361C469.7283 299.3161 490.2383 298.3361 503.9083 284.1761C519.0383 269.5361 518.0683 248.0461 502.4383 231.9361C472.6583 202.1461 406.7383 171.3861 335.4483 171.3861C264.6483 171.3861 198.7283 202.1461 168.4583 231.9361C152.8283 248.0461 151.8583 269.5361 166.9883 284.1761C180.6683 298.3361 201.1683 299.3161 226.0783 281.7361C255.3683 257.8161 292.9683 244.6261 335.4483 244.6261ZM335.4483 1336.9161C522.9483 1336.9161 607.4183 1294.4361 607.4183 1186.5261V760.2561H627.9283C652.3483 760.2561 670.8983 741.6961 670.8983 718.7461V700.1961C670.8983 676.7561 652.3483 658.6961 627.9283 658.6961H607.4183V552.7361C607.4183 441.4061 504.3983 375.4861 335.4483 375.4861C166.5083 375.4861 63.9683 441.4061 63.9683 552.7361V658.6961H42.9683C19.0383 658.6961 -0.0017 676.7561 -0.0017 700.1961V718.7461C-0.0017 741.6961 19.0383 760.2561 42.9683 760.2561H63.9683V1186.5261C63.9683 1294.4361 147.9483 1336.9161 335.4483 1336.9161ZM335.4483 777.3461C301.2683 777.3461 244.6283 780.2761 225.0983 780.2761C195.3083 780.2761 181.6383 767.5761 178.7083 735.8361L172.3683 665.5261C167.4783 607.4261 205.5683 585.4461 335.4483 585.4461C465.3283 585.4461 503.9083 607.4261 499.0283 665.5261L492.6783 735.8361C489.7483 767.5761 476.5583 780.2761 445.7983 780.2761C426.7583 780.2761 372.0683 777.3461 335.4483 777.3461ZM335.4483 1181.1561C205.5683 1181.1561 165.0383 1162.1061 173.8283 1102.0461L179.1983 1067.8761C186.5283 1020.0161 223.6283 1004.8861 335.4483 1004.8861C447.7583 1004.8861 484.3783 1020.0161 492.1883 1067.8761L497.5583 1102.0461C506.8383 1162.1061 465.3283 1181.1561 335.4483 1181.1561Z"/>
</svg>