<?xml version="1.0" encoding="UTF-8" standalone="no"?>
<svg xmlns="http://www.w3.org/2000/svg"
     width="916.9921875" height="1260.7421875"
     viewBox="0 0 916.9921875 1260.7421875"
     fill="currentColor">
  <path d="M351.5611 1260.7402C598.1411 1260.7402 703.1211 1206.5402 703.1211 1073.7302V491.7002L847.6611 635.7402C863.7711 651.8602 889.1611 651.3702 905.2711 635.7402C920.9011 619.6302 920.9011 593.7502 905.2711 577.6402L703.1211 376.9502V226.0702C703.1211 83.5002 573.7311 0.0002 351.5611 0.0002C129.8811 0.0002 0.0011 83.5002 0.0011 226.0702V1073.7302C0.0011 1206.5402 105.4711 1260.7402 351.5611 1260.7402ZM351.5611 1179.6902C163.0811 1179.6902 81.5411 1147.9502 81.5411 1069.8202V226.0702C81.5411 134.7702 181.1511 81.5402 351.5611 81.5402C522.4611 81.5402 621.5811 134.7702 621.5811 226.0702V1069.8202C621.5811 1147.9502 540.5311 1179.6902 351.5611 1179.6902ZM352.0511 524.4102C395.5111 524.4102 469.7311 527.8302 494.1411 527.8302C531.2511 527.8302 546.8711 513.6702 550.2911 475.5902L558.1011 383.7902C564.4511 313.4802 515.1411 285.1602 352.0511 285.1602C188.4811 285.1602 139.1611 313.4802 145.5111 383.7902L153.3211 475.5902C156.7411 513.6702 172.8511 527.8302 209.4711 527.8302C234.3711 527.8302 305.6611 524.4102 352.0511 524.4102ZM352.0511 1045.4102C516.1111 1045.4102 566.4111 1021.0002 556.1511 949.2202L549.8011 904.7802C541.9911 846.1902 493.1611 826.6602 352.0511 826.6602C210.4511 826.6602 161.6211 846.1902 153.8111 904.7802L147.4611 949.2202C137.2111 1021.0002 187.5011 1045.4102 352.0511 1045.4102Z"/>
</svg>