<?xml version="1.0" encoding="UTF-8" standalone="no"?>
<svg xmlns="http://www.w3.org/2000/svg"
     width="1155.2734375" height="905.76171875"
     viewBox="0 0 1155.2734375 905.76171875"
     fill="currentColor">
  <path d="M-0.0017 841.3123C-0.0017 877.4423 28.3183 905.7623 64.9383 905.7623H122.0683C158.6883 905.7623 187.0083 877.4423 187.0083 841.3123V770.5123H968.7483V841.3123C968.7483 877.4423 996.5783 905.7623 1033.1983 905.7623H1090.8183C1127.4383 905.7623 1155.2783 877.4423 1155.2783 841.3123V515.1323C1155.2783 433.1023 1144.0383 383.7923 1093.7483 328.6123L1044.4383 275.3923L993.1683 128.4223C965.3283 48.3423 911.1283 14.6523 843.7483 6.8323C811.0383 2.9323 704.0983 0.0023 577.6383 0.0023C451.6583 0.0023 344.7283 2.9323 312.0083 6.8323C244.1383 14.6523 189.9383 48.3423 162.1083 128.4223L110.8383 275.3923L62.0083 328.6123C11.2283 383.7923 -0.0017 433.1023 -0.0017 515.1323ZM245.1183 277.8323C221.1883 277.8323 213.3783 260.7423 220.6983 239.2623L250.9783 147.9523C262.2083 114.2623 280.2783 103.5123 309.5683 99.6123C343.7483 94.7223 438.4783 91.3123 577.6383 91.3123C717.2883 91.3123 811.5283 94.7223 845.2183 99.6123C874.9983 103.5123 892.5783 114.2623 903.8083 147.9523L934.5683 239.2623C941.8983 260.7423 933.5983 277.8323 910.1583 277.8323ZM176.7583 583.0123C146.4883 583.0123 124.5083 561.0323 124.5083 531.2523V455.0823C124.5083 425.2923 146.4883 403.8123 176.7583 403.8123C206.5383 403.8123 228.5183 424.8023 228.5183 455.0823V531.2523C228.5183 561.5223 206.5383 583.0123 176.7583 583.0123ZM983.3983 583.0123C954.0983 583.0123 931.6383 561.0323 931.6383 531.2523V455.0823C931.6383 425.2923 954.0983 403.8123 983.3983 403.8123C1013.6683 403.8123 1035.6483 424.8023 1035.6483 455.0823V531.2523C1035.6483 561.5223 1013.6683 583.0123 983.3983 583.0123ZM466.7983 559.5723C442.8683 559.5723 426.7583 543.9423 426.7583 517.5823V468.2623C426.7583 442.8723 442.8683 427.2423 466.7983 427.2423H687.0083C711.4283 427.2423 727.5383 442.8723 727.5383 468.2623V517.5823C727.5383 543.9423 711.4283 559.5723 687.0083 559.5723Z"/>
</svg>