<?xml version="1.0" encoding="UTF-8" standalone="no"?>
<svg xmlns="http://www.w3.org/2000/svg"
     width="1797.36328125" height="767.578125"
     viewBox="0 0 1797.36328125 767.578125"
     fill="currentColor">
  <path d="M127.4383 683.1027H203.6183C200.6883 668.4527 198.2383 653.3227 198.2383 637.2027C198.2383 532.2227 281.2483 449.7027 385.7383 449.7027C490.7183 449.7027 573.2383 532.2227 573.2383 637.2027C573.2383 653.3227 571.2883 668.4527 567.8683 683.1027H1189.9383C1187.0083 668.4527 1184.5683 653.3227 1184.5683 637.2027C1184.5683 532.2227 1267.5783 449.7027 1372.0683 449.7027C1477.0483 449.7027 1559.5683 532.2227 1559.5683 637.2027C1559.5683 653.3227 1557.6183 668.4527 1554.1983 683.1027H1618.6483C1688.9683 683.1027 1731.9383 638.6727 1731.9383 566.4027V370.1127C1731.9383 301.7627 1711.4283 243.6527 1620.6083 215.3327L1542.9683 191.4027L1645.9983 86.4227C1657.2283 74.7027 1670.8983 70.3127 1686.5283 70.3127H1760.7383C1783.1983 70.3127 1797.3683 56.1527 1797.3683 35.1527C1797.3683 14.1627 1783.1983 0.0027 1760.7383 0.0027H1694.8283C1653.3183 0.0027 1617.1883 11.7227 1589.3583 40.5227L1485.8383 145.9927C1418.4583 77.1527 1313.4783 0.9727 1144.0383 0.9727H1029.2983C828.1283 0.9727 748.0483 20.5127 627.9283 95.7027L431.1483 219.2427L214.3583 245.6027C79.5883 262.2027 -0.0017 339.8427 -0.0017 456.0527V552.7327C-0.0017 635.7427 46.3883 683.1027 127.4383 683.1027ZM385.7383 767.5827C458.9883 767.5827 516.5983 709.9627 516.5983 637.2027C516.5983 564.4527 458.4983 506.3427 385.7383 506.3427C313.4783 506.3427 255.3683 564.4527 255.3683 637.2027C255.3683 709.4727 313.4783 767.5827 385.7383 767.5827ZM1372.0683 767.5827C1444.8283 767.5827 1502.9283 709.4727 1502.9283 637.2027C1502.9283 564.4527 1444.8283 506.3427 1372.0683 506.3427C1300.2883 506.3427 1241.6983 564.9427 1241.6983 637.2027C1241.6983 709.4727 1299.8083 767.5827 1372.0683 767.5827Z"/>
</svg>