<?xml version="1.0" encoding="UTF-8" standalone="no"?>
<svg xmlns="http://www.w3.org/2000/svg"
     width="670.8984375" height="1322.265625"
     viewBox="0 0 670.8984375 1322.265625"
     fill="currentColor">
  <path d="M335.4483 961.4219C522.9483 961.4219 607.4183 918.9419 607.4183 811.0319V384.7619H627.9283C652.3483 384.7619 670.8983 366.2119 670.8983 343.2619V324.7119C670.8983 301.2719 652.3483 283.2019 627.9283 283.2019H607.4183V177.2419C607.4183 65.9219 504.3983 0.0019 335.4483 0.0019C166.5083 0.0019 63.9683 65.9219 63.9683 177.2419V283.2019H42.9683C19.0383 283.2019 -0.0017 301.2719 -0.0017 324.7119V343.2619C-0.0017 366.2119 19.0383 384.7619 42.9683 384.7619H63.9683V811.0319C63.9683 918.9419 147.9483 961.4219 335.4483 961.4219ZM335.4483 885.2519C195.7983 885.2519 141.1183 863.7719 141.1183 808.5919V177.2419C141.1183 113.2819 208.9883 77.1519 335.4483 77.1519C462.3983 77.1519 530.2783 113.2819 530.2783 177.2419V808.5919C530.2783 863.7719 475.5883 885.2519 335.4483 885.2519ZM335.4483 404.7819C371.0983 404.7819 424.3183 407.7119 442.3783 407.7119C472.1683 407.7119 485.3483 395.5119 488.2783 364.7419L494.1383 296.3819C499.0283 240.2319 461.4283 218.7519 335.4483 218.7519C209.4683 218.7519 172.3683 240.2319 177.2483 296.3819L183.1083 364.7419C186.0383 395.5119 199.2183 407.7119 228.5183 407.7119C247.0683 407.7119 302.2483 404.7819 335.4483 404.7819ZM335.4483 796.8719C461.4283 796.8719 501.4683 778.3219 492.6783 720.2119L487.3083 687.0119C479.9783 640.6219 444.3383 625.9719 335.4483 625.9719C227.0483 625.9719 190.9183 640.6219 183.5983 687.0119L178.7083 720.2119C169.9183 778.3219 209.4683 796.8719 335.4483 796.8719ZM335.4483 1077.6319C292.9683 1077.6319 255.3683 1064.4519 226.0783 1040.5319C201.1683 1022.9519 180.6683 1023.9219 166.9883 1038.0819C151.8583 1052.7319 152.8283 1074.2219 168.4583 1090.8219C198.7283 1120.1219 264.6483 1150.8819 335.4483 1150.8819C406.7383 1150.8819 472.6583 1120.1219 502.4383 1090.8219C518.0683 1074.2219 519.0383 1052.7319 503.9083 1038.0819C490.2383 1023.9219 469.7283 1022.9519 444.8283 1040.5319C416.0183 1064.4519 378.4183 1077.6319 335.4483 1077.6319ZM335.4483 1249.0219C249.5083 1249.0219 170.8983 1217.2819 110.8383 1163.5719C89.8483 1145.5119 67.8683 1144.0419 53.7083 1158.2019C37.1083 1174.3119 38.0883 1197.7519 55.6683 1215.8219C128.4183 1288.5719 229.4883 1322.2619 335.4483 1322.2619C441.8983 1322.2619 542.9683 1288.5719 615.7183 1215.8219C632.8083 1197.7519 633.7883 1174.3119 617.6783 1158.2019C603.0283 1144.0419 581.0583 1145.5119 560.0583 1163.5719C499.9983 1217.2819 421.8783 1249.0219 335.4483 1249.0219Z"/>
</svg>