<?xml version="1.0" encoding="UTF-8" standalone="no"?>
<svg xmlns="http://www.w3.org/2000/svg"
     width="1556.1622185668805" height="906.73828125"
     viewBox="0 0 1556.1622185668805 906.73828125"
     fill="currentColor">
  <path d="M65.9282 906.7389H123.0582C159.6782 906.7389 187.5082 878.4189 187.5082 842.2889V760.7389C230.4782 763.1789 280.7682 765.6289 333.5082 767.5789V561.5189C333.5082 478.9989 350.5982 433.1089 395.0282 374.0189L436.0482 320.7989L442.8782 298.8289C346.1982 300.7789 281.2582 304.1989 223.6382 308.1089C204.5982 309.0789 197.2782 302.2489 201.6682 284.1789C212.8982 230.9589 236.8282 161.1289 252.9382 132.8089C266.1282 109.8589 280.2882 100.0989 306.6482 96.1889C337.8982 91.7989 400.8882 88.8689 510.7482 87.8889C522.4682 52.7389 537.6082 25.3889 565.9282 -0.0011C428.7182 0.9789 340.3382 3.9089 311.0482 7.3289C246.1082 14.6489 195.3182 49.3189 169.4482 104.4889C152.3582 140.1389 120.6182 232.9089 102.5482 320.7989L62.0182 374.0189C17.0982 433.1089 -0.4818 478.9989 0.0082 561.5189L0.4982 647.4589V842.7689C0.4982 878.9089 29.3082 906.7389 65.9282 906.7389ZM465.3382 906.7389H522.9582C559.5782 906.7389 587.4082 878.4189 587.4082 842.2889V760.7389C695.8082 767.5789 852.5482 772.4589 978.5282 772.4589C1104.0182 772.4589 1260.7482 767.5789 1369.1482 760.7389V842.2889C1369.1482 878.4189 1397.4682 906.7389 1433.6082 906.7389H1491.2182C1527.8382 906.7389 1556.1582 878.4189 1556.1582 842.2889V561.0389C1556.1582 478.5189 1539.5582 432.6189 1494.1482 374.0189L1453.1382 320.7989C1435.0682 232.9089 1402.8382 140.6289 1385.7482 104.4889C1359.8782 49.3189 1309.0882 16.5989 1244.1482 7.8089C1211.4382 3.4189 1104.4982 0.9789 978.5282 0.9789C852.0582 0.9789 745.1282 3.9089 712.4082 7.8089C647.4682 15.6289 596.6882 49.3189 570.8082 104.4889C554.2082 140.6289 521.4982 232.9089 503.4282 320.7989L462.4082 374.0189C416.9982 432.6189 400.3982 478.5189 400.3982 561.0389V842.2889C400.3982 878.4189 428.7182 906.7389 465.3382 906.7389ZM602.0582 279.7889C613.7782 226.5589 637.2182 156.7389 653.3282 128.4189C666.5182 105.4689 681.1582 95.2189 707.5282 91.7989C744.1482 86.9189 827.1582 83.4989 978.5282 83.4989C1129.4082 83.4989 1212.4082 85.9389 1249.5182 91.7989C1275.8882 95.6989 1289.5582 105.4689 1303.2282 128.4189C1319.8382 156.2489 1341.8082 226.5589 1354.4982 279.7889C1358.8982 297.8489 1351.5682 304.6889 1332.5282 303.7089C1251.4782 298.3389 1154.7982 293.4589 978.5282 293.4589C801.7682 293.4589 705.0882 298.3389 624.0382 303.7089C604.9882 304.6889 598.1582 297.8489 602.0582 279.7889ZM184.0882 614.2589C143.0782 614.2589 112.3182 583.0089 112.3182 542.4789C112.3182 501.4689 143.0782 470.6989 184.0882 470.6989C224.6182 470.6989 255.3782 501.4689 255.3782 542.4789C255.3782 583.0089 224.6182 614.2589 184.0882 614.2589ZM625.9882 640.6289C581.5482 640.6289 547.8582 606.4489 547.8582 562.0089C547.8582 517.0889 581.5482 483.3989 625.9882 483.3989C670.9082 483.3989 704.5982 517.0889 704.5982 562.0089C704.5982 606.4489 670.9082 640.6289 625.9882 640.6289ZM1330.5782 640.6289C1285.6582 640.6289 1251.9582 606.4489 1251.9582 562.0089C1251.9582 517.0889 1285.6582 483.3989 1330.5782 483.3989C1375.0082 483.3989 1408.6982 517.0889 1408.6982 562.0089C1408.6982 606.4489 1375.0082 640.6289 1330.5782 640.6289ZM849.1282 621.0889C815.9282 621.0889 792.4882 598.1489 792.4882 564.4489C792.4882 531.2489 815.9282 508.2989 849.1282 508.2989H1107.4282C1140.6382 508.2989 1164.0682 531.2489 1164.0682 564.4489C1164.0682 598.1489 1140.6382 621.0889 1107.4282 621.0889Z"/>
</svg>