<?xml version="1.0" encoding="UTF-8" standalone="no"?>
<svg xmlns="http://www.w3.org/2000/svg"
     width="951.66015625" height="1170.8984375"
     viewBox="0 0 951.66015625 1170.8984375"
     fill="currentColor">
  <path d="M473.6283 79.5917C579.0983 79.5917 674.3183 116.2117 747.0683 181.6417C767.0883 199.7117 790.0383 204.1017 807.6183 188.9617C826.1683 172.8517 826.1683 145.9917 805.1783 126.9517C717.2883 45.9017 600.0983 0.0017 473.6283 0.0017C347.1683 0.0017 229.9783 45.9017 142.0883 126.9517C121.5783 145.9917 121.5783 172.8517 139.6483 188.9617C157.7183 204.1017 180.1783 199.7117 200.1983 181.6417C272.9483 116.2117 368.6483 79.5917 473.6283 79.5917ZM474.6083 275.3917C525.3883 275.3917 572.2683 290.0417 608.8883 319.3317C629.8783 334.4717 651.8583 341.3117 669.4383 325.6817C687.4983 309.5717 687.9883 280.2717 666.0183 262.6917C613.2783 220.2117 546.3883 195.8017 474.6083 195.8017C402.8283 195.8017 335.9383 220.2117 283.1983 262.6917C260.7383 280.2717 261.2283 309.5717 279.7883 325.6817C297.3683 341.3117 318.8483 334.4717 340.3283 319.3317C377.9283 291.0117 423.8283 275.3917 474.6083 275.3917ZM79.5883 1170.9017H126.9483C156.2483 1170.9017 179.1983 1147.9517 179.1983 1119.1417V1057.6217C265.1383 1062.5017 379.8783 1065.9217 475.5883 1065.9217C570.7983 1065.9217 685.5483 1062.5017 771.4883 1057.6217V1119.1417C771.4883 1147.9517 794.4383 1170.9017 823.7283 1170.9017H871.0983C900.3883 1170.9017 922.3683 1147.9517 922.3683 1119.1417V1027.3417C941.4083 1011.2317 951.6583 987.7917 951.6583 957.5217V884.2817C951.6583 816.8917 937.4983 776.8517 900.3883 729.4917L868.1683 688.4717C853.5183 617.6717 827.6383 543.9417 813.9683 515.1317C791.9883 468.2617 748.5383 440.4317 694.3383 433.5917C667.9683 429.6917 581.5383 427.7317 475.5883 427.7317C369.6283 427.7317 283.6883 430.1717 257.3283 433.5917C203.1283 439.9417 159.6683 468.2617 137.6983 515.1317C123.5383 543.9417 98.1483 617.6717 83.0083 688.4717L51.2683 729.4917C13.6683 776.8517 -0.0017 816.8917 -0.0017 884.2817V957.5217C-0.0017 987.3017 9.7683 1010.7417 28.3183 1026.3717V1119.1417C28.3183 1147.9517 50.7783 1170.9017 79.5883 1170.9017ZM475.5883 999.5117C338.3783 999.5117 167.4783 993.6517 104.9783 985.8417C75.1983 981.9317 66.4083 969.7217 66.4083 941.8917V884.2817C66.4083 832.0317 73.7283 808.5917 103.5183 770.0217L144.5283 716.3117C154.7883 660.1517 181.1483 580.5617 197.2683 544.9217C209.4683 519.0417 230.9583 504.3917 264.6483 500.4917C290.0383 497.5617 368.6483 493.6517 475.5883 493.6517C583.0083 493.6517 663.5783 497.5617 685.5483 500.4917C720.6983 504.8817 742.1883 519.5317 754.3983 544.9217C770.9983 580.5617 796.3883 660.1517 806.6383 716.3117L848.1483 770.0217C877.9283 808.5917 885.2583 832.0317 885.2583 884.2817V941.8917C885.2583 969.7217 876.4683 982.4217 846.6783 985.8417C784.1783 993.1617 613.2783 999.5117 475.5883 999.5117ZM191.4083 681.6417C188.4783 695.3117 193.8483 701.1717 208.9883 699.7117C271.4883 695.3117 346.1883 691.8917 475.5883 691.8917C604.9783 691.8917 680.1783 695.3117 742.6783 699.7117C757.3283 701.1717 763.1883 695.3117 760.2583 681.6417C750.4883 639.6517 732.9083 586.4217 720.2183 563.9617C709.9583 546.3817 698.7283 539.0617 678.2183 536.1317C649.4183 532.2217 585.4483 529.3017 475.5883 529.3017C366.2083 529.3017 301.7583 532.2217 272.9483 536.1317C252.9283 539.0617 241.2083 546.3817 231.4483 563.9617C219.2383 586.4217 201.1683 639.6517 191.4083 681.6417ZM188.4783 948.7317C224.6083 948.7317 251.4683 920.9017 251.4683 885.2517C251.4683 849.1217 224.6083 822.2617 188.4783 822.2617C152.8283 822.2617 125.4883 849.1217 125.4883 885.2517C125.4883 920.9017 152.8283 948.7317 188.4783 948.7317ZM762.6983 948.7317C798.8283 948.7317 826.1683 920.9017 826.1683 885.2517C826.1683 849.1217 798.8283 822.2617 762.6983 822.2617C727.0483 822.2617 700.1983 849.1217 700.1983 885.2517C700.1983 920.9017 727.0483 948.7317 762.6983 948.7317ZM367.6783 933.1017H583.4983C610.8383 933.1017 629.3983 914.5517 629.3983 887.2117C629.3983 860.8417 610.8383 842.2817 583.4983 842.2817H367.6783C340.8183 842.2817 322.2683 860.8417 322.2683 887.2117C322.2683 914.5517 340.8183 933.1017 367.6783 933.1017Z"/>
</svg>