<?xml version="1.0" encoding="UTF-8" standalone="no"?>
<svg xmlns="http://www.w3.org/2000/svg"
     width="1155.2734375" height="905.76171875"
     viewBox="0 0 1155.2734375 905.76171875"
     fill="currentColor">
  <path d="M64.9383 905.7623H122.0683C158.6883 905.7623 187.0083 877.4423 187.0083 841.3123V759.7623C295.4083 766.6023 452.1483 771.4823 577.6383 771.4823C703.1283 771.4823 860.3483 766.6023 968.7483 759.7623V841.3123C968.7483 877.4423 996.5783 905.7623 1033.1983 905.7623H1090.8183C1127.4383 905.7623 1155.2783 877.4423 1155.2783 841.3123V560.0623C1155.2783 477.5423 1138.6683 431.6423 1093.7483 373.0423L1052.2483 319.8223C1034.6683 231.9323 1001.9483 139.6523 985.3483 103.5123C958.9883 48.3423 908.6883 15.6223 843.7483 6.8323C811.0383 2.4423 704.0983 0.0023 577.6383 0.0023C451.6583 0.0023 344.7283 2.9323 312.0083 6.8323C247.0683 14.6523 196.2883 48.3423 170.4083 103.5123C153.3183 139.6523 121.0983 231.9323 103.0283 319.8223L62.0083 373.0423C16.5983 431.6423 -0.0017 477.5423 -0.0017 560.0623V841.3123C-0.0017 877.4423 28.3183 905.7623 64.9383 905.7623ZM201.6583 278.8123C212.8883 225.5823 236.8183 155.7623 252.9283 127.4423C266.1183 104.4923 280.2783 94.2423 306.6383 90.8223C343.7483 85.9423 426.7583 82.5223 577.6383 82.5223C729.0083 82.5223 812.0083 84.9623 848.6283 90.8223C874.9983 94.7223 888.6683 104.4923 902.3483 127.4423C918.9483 155.2723 941.4083 225.5823 954.0983 278.8123C958.4983 296.8723 950.6883 303.7123 932.1283 302.7323C851.0783 297.3623 754.3983 292.4823 577.6383 292.4823C401.3683 292.4823 304.6883 297.3623 223.6283 302.7323C204.5883 303.7123 197.2683 296.8723 201.6583 278.8123ZM225.5883 639.6523C181.1483 639.6523 146.9683 605.4723 146.9683 561.0323C146.9683 516.1123 181.1483 482.4223 225.5883 482.4223C270.0183 482.4223 304.1983 516.1123 304.1983 561.0323C304.1983 605.4723 270.0183 639.6523 225.5883 639.6523ZM929.6883 639.6523C885.2583 639.6523 851.5583 605.4723 851.5583 561.0323C851.5583 516.1123 885.2583 482.4223 929.6883 482.4223C974.6083 482.4223 1008.2983 516.1123 1008.2983 561.0323C1008.2983 605.4723 974.6083 639.6523 929.6883 639.6523ZM448.7283 620.1123C415.0383 620.1123 392.0883 597.1723 392.0883 563.4723C392.0883 530.2723 415.0383 507.3223 448.7283 507.3223H707.0283C740.2383 507.3223 763.1883 530.2723 763.1883 563.4723C763.1883 597.1723 740.2383 620.1123 707.0283 620.1123Z"/>
</svg>