<?xml version="1.0" encoding="UTF-8" standalone="no"?>
<svg xmlns="http://www.w3.org/2000/svg"
     width="952.1484375" height="1170.8984375"
     viewBox="0 0 952.1484375 1170.8984375"
     fill="currentColor">
  <path d="M474.1183 79.5917C579.5883 79.5917 674.8083 116.2117 747.5583 181.6417C768.0683 199.7117 790.5283 204.1017 808.1083 188.9617C826.6583 172.8517 826.6583 145.9917 805.6683 126.9517C717.7783 45.9017 600.5883 0.0017 474.1183 0.0017C347.6583 0.0017 230.9583 45.9017 142.5783 126.9517C122.0683 145.9917 122.0683 172.8517 140.1383 188.9617C158.1983 204.1017 180.6683 199.7117 200.6883 181.6417C273.9283 116.2117 369.1383 79.5917 474.1183 79.5917ZM475.0983 275.3917C525.8783 275.3917 573.2383 290.0417 609.3783 319.3317C630.3683 334.4717 652.3483 341.3117 669.9183 325.6817C688.4783 309.5717 688.9683 280.2717 666.5083 262.6917C613.7683 220.2117 546.8783 195.8017 475.0983 195.8017C403.3183 195.8017 336.4283 220.2117 283.6883 262.6917C261.2283 280.2717 261.7183 309.5717 280.2783 325.6817C297.8483 341.3117 319.3383 334.4717 340.8183 319.3317C378.4183 291.0117 424.3183 275.3917 475.0983 275.3917ZM476.0783 1058.5917C575.6883 1058.5917 701.6583 1055.1717 791.0183 1049.8017V1118.6517C791.0183 1147.9517 813.9683 1170.9017 843.7483 1170.9017H898.9283C928.7083 1170.9017 952.1483 1147.9517 952.1483 1118.6517V885.7417C952.1483 818.3617 938.4783 780.2717 901.3683 732.4217L867.6783 689.4517C853.0283 617.1917 826.6583 541.9917 812.9883 512.6917C791.0183 467.2817 749.9983 439.9417 696.7783 433.5917C670.4083 430.1717 579.5883 427.7317 476.0783 427.7317C372.5583 427.7317 281.7383 430.1717 255.3683 433.5917C202.1483 439.9417 160.6483 467.2817 139.1583 512.6917C125.4883 541.9917 99.1183 617.1917 84.4683 689.4517L50.7783 732.4217C13.6683 780.2717 -0.0017 818.3617 -0.0017 885.7417V1118.6517C-0.0017 1147.9517 23.4383 1170.9017 53.2183 1170.9017H108.3983C138.1883 1170.9017 161.1283 1147.9517 161.1283 1118.6517V1049.8017C250.4883 1055.1717 376.4683 1058.5917 476.0783 1058.5917ZM168.4583 656.2517C177.7383 612.3017 197.2683 555.1717 210.4483 532.2217C221.1883 513.1817 232.9083 505.3717 254.3983 501.9517C284.6683 498.0517 352.5383 495.6017 476.0783 495.6017C599.6083 495.6017 667.4783 497.0717 697.7583 501.9517C719.2383 505.3717 730.4683 513.1817 741.6983 532.2217C755.3683 554.6917 772.9483 612.3017 783.6883 656.2517C787.5983 670.9017 781.2483 676.7617 766.1183 675.2917C699.7083 670.9017 620.6083 666.9917 476.0783 666.9917C331.5383 666.9917 252.4383 670.9017 186.0383 675.2917C170.8983 676.7617 165.0383 670.9017 168.4583 656.2517ZM187.9883 951.1717C151.8583 951.1717 123.5383 922.8517 123.5383 886.7217C123.5383 850.1017 151.8583 822.7517 187.9883 822.7517C224.6083 822.7517 251.9483 850.1017 251.9483 886.7217C251.9483 922.8517 224.6083 951.1717 187.9883 951.1717ZM764.1583 951.1717C727.5383 951.1717 700.1983 922.8517 700.1983 886.7217C700.1983 850.1017 727.5383 822.7517 764.1583 822.7517C800.2883 822.7517 828.1283 850.1017 828.1283 886.7217C828.1283 922.8517 800.2883 951.1717 764.1583 951.1717ZM370.6083 935.0617C343.2583 935.0617 324.2183 916.0117 324.2183 888.6717C324.2183 861.3317 343.2583 842.7717 370.6083 842.7717H581.5383C608.8883 842.7717 627.9283 861.3317 627.9283 888.6717C627.9283 916.0117 608.8883 935.0617 581.5383 935.0617Z"/>
</svg>