<?xml version="1.0" encoding="UTF-8" standalone="no"?>
<svg xmlns="http://www.w3.org/2000/svg"
     width="916.9921875" height="1260.7421875"
     viewBox="0 0 916.9921875 1260.7421875"
     fill="currentColor">
  <path d="M351.5611 1260.7402C598.1411 1260.7402 703.1211 1206.5402 703.1211 1073.7302V860.8402L847.6611 1004.8802C863.7711 1021.0002 889.1611 1020.5102 905.2711 1004.8802C920.9011 988.7702 920.9011 962.4002 905.2711 946.7802L703.1211 746.0902V226.0702C703.1211 83.5002 573.7311 0.0002 351.5611 0.0002C129.8811 0.0002 0.0011 83.5002 0.0011 226.0702V1073.7302C0.0011 1206.5402 105.4711 1260.7402 351.5611 1260.7402ZM352.0511 520.0202C304.2011 520.0202 230.9611 523.4402 205.0811 523.4402C167.4811 523.4402 150.8811 508.7902 146.9711 469.7302L139.1611 375.0002C132.3211 302.2502 183.5911 272.9502 352.0511 272.9502C520.0211 272.9502 571.2911 302.2502 564.4511 375.0002L556.6411 469.7302C552.7311 508.7902 536.6211 523.4402 498.5311 523.4402C473.1411 523.4402 396.9711 520.0202 352.0511 520.0202ZM352.0511 1057.6202C182.1311 1057.6202 130.3711 1032.2302 141.1111 958.0102L147.4611 912.1102C155.7611 852.0502 206.0511 831.5402 352.0511 831.5402C497.5611 831.5402 547.8511 852.0502 556.1511 912.1102L562.5011 958.0102C573.2411 1032.2302 521.4811 1057.6202 352.0511 1057.6202Z"/>
</svg>