<?xml version="1.0" encoding="UTF-8" standalone="no"?>
<svg xmlns="http://www.w3.org/2000/svg"
     width="1731.93359375" height="1005.37109375"
     viewBox="0 0 1731.93359375 1005.37109375"
     fill="currentColor">
  <path d="M906.2483 439.4558C930.1783 439.4558 946.7783 422.3658 947.7583 397.4658L958.0083 51.7558C958.9883 20.5058 937.9883 -0.0042 906.2483 -0.0042C874.0283 -0.0042 853.0283 20.5058 854.0083 51.7558L864.2583 397.4658C865.2383 422.3658 882.3283 439.4558 906.2483 439.4558ZM127.4383 894.0458H230.4683C252.9283 959.4758 313.9683 1005.3758 388.1883 1005.3758C462.3983 1005.3758 523.9283 959.4758 546.3883 894.0458H1216.7983C1239.2583 959.4758 1300.2883 1005.3758 1374.5083 1005.3758C1448.7283 1005.3758 1510.2583 959.4758 1532.7183 894.0458H1618.6483C1688.9683 894.0458 1731.9383 849.6058 1731.9383 777.8358V581.0558C1731.9383 512.6958 1711.4283 454.5858 1620.6083 426.2658L1520.0183 395.5058C1456.5383 319.8258 1345.6983 211.9158 1144.0383 211.9158H1029.2983C1022.9483 211.9158 1016.5983 211.9158 1010.2583 212.4058C1009.2783 238.2858 1008.7883 264.6458 1007.8083 291.0158C1015.1383 290.5258 1021.4883 290.5258 1029.2983 290.5258H1144.0383C1276.8583 290.5258 1384.2783 345.7058 1476.5583 474.1258L1596.1883 505.3758C1641.1183 516.6058 1653.3183 543.4558 1653.3183 581.0558V758.2958C1653.3183 793.9458 1635.2583 815.4258 1604.4883 815.4258H1540.0383C1529.2983 732.9058 1460.4483 671.3858 1374.5083 671.3858C1288.5783 671.3858 1220.2183 732.9058 1208.9883 815.4258H553.7083C542.9683 732.9058 474.1183 671.3858 388.1883 671.3858C302.2483 671.3858 233.3983 732.9058 222.6583 815.4258H131.8383C97.1683 815.4258 78.6183 793.9458 78.6183 753.9058V666.9958C78.6183 593.7458 130.3683 546.3858 224.6083 534.6658L458.0083 505.3758L669.9183 373.5358C717.7783 343.7458 757.3283 324.7058 805.1783 312.4958C804.1983 285.6458 803.2183 258.7858 802.2483 231.4458C738.7683 245.1158 688.9683 268.0658 627.9283 306.6358L431.1483 430.1758L214.3583 456.5458C79.5883 473.1458 -0.0017 550.7858 -0.0017 666.9958V763.6758C-0.0017 846.6758 46.3883 894.0458 127.4383 894.0458ZM906.2483 656.2458C940.9183 656.2458 970.2183 627.4458 970.2183 594.2358C970.2183 560.5458 941.4083 532.7158 906.2483 532.7158C870.6083 532.7158 841.7983 560.5458 841.7983 594.2358C841.7983 627.4458 871.0983 656.2458 906.2483 656.2458ZM388.1883 926.7558C338.3783 926.7558 299.8083 888.1858 299.8083 838.3758C299.8083 788.5758 338.3783 749.9958 388.1883 749.9958C437.9883 749.9958 476.5583 788.5758 476.5583 838.3758C476.5583 888.1858 437.9883 926.7558 388.1883 926.7558ZM1374.5083 926.7558C1324.7083 926.7558 1286.1283 888.1858 1286.1283 838.3758C1286.1283 788.5758 1324.7083 749.9958 1374.5083 749.9958C1424.3183 749.9958 1462.8883 788.5758 1462.8883 838.3758C1462.8883 888.1858 1424.3183 926.7558 1374.5083 926.7558Z"/>
</svg>