<?xml version="1.0" encoding="UTF-8" standalone="no"?>
<svg xmlns="http://www.w3.org/2000/svg"
     width="670.8984375" height="1322.265625"
     viewBox="0 0 670.8984375 1322.265625"
     fill="currentColor">
  <path d="M335.4483 961.4219C522.9483 961.4219 607.4183 918.9419 607.4183 811.0319V384.7619H627.9283C652.3483 384.7619 670.8983 366.2119 670.8983 343.2619V324.7119C670.8983 301.2719 652.3483 283.2019 627.9283 283.2019H607.4183V177.2419C607.4183 65.9219 504.3983 0.0019 335.4483 0.0019C166.5083 0.0019 63.9683 65.9219 63.9683 177.2419V283.2019H42.9683C19.0383 283.2019 -0.0017 301.2719 -0.0017 324.7119V343.2619C-0.0017 366.2119 19.0383 384.7619 42.9683 384.7619H63.9683V811.0319C63.9683 918.9419 147.9483 961.4219 335.4483 961.4219ZM335.4483 401.8519C301.2683 401.8519 244.6283 404.7819 225.0983 404.7819C195.3083 404.7819 181.6383 392.0919 178.7083 360.3519L172.3683 290.0419C167.4783 231.9319 205.5683 209.9619 335.4483 209.9619C465.3283 209.9619 503.9083 231.9319 499.0283 290.0419L492.6783 360.3519C489.7483 392.0919 476.5583 404.7819 445.7983 404.7819C426.7583 404.7819 372.0683 401.8519 335.4483 401.8519ZM335.4483 805.6619C205.5683 805.6619 165.0383 786.6219 173.8283 726.5619L179.1983 692.3819C186.5283 644.5319 223.6283 629.3919 335.4483 629.3919C447.7583 629.3919 484.3783 644.5319 492.1883 692.3819L497.5583 726.5619C506.8383 786.6219 465.3283 805.6619 335.4483 805.6619ZM335.4483 1077.6319C292.9683 1077.6319 255.3683 1064.4519 226.0783 1040.5319C201.1683 1022.9519 180.6683 1023.9219 166.9883 1038.0819C151.8583 1052.7319 152.8283 1074.2219 168.4583 1090.8219C198.7283 1120.1219 264.6483 1150.8819 335.4483 1150.8819C406.7383 1150.8819 472.6583 1120.1219 502.4383 1090.8219C518.0683 1074.2219 519.0383 1052.7319 503.9083 1038.0819C490.2383 1023.9219 469.7283 1022.9519 444.8283 1040.5319C416.0183 1064.4519 378.4183 1077.6319 335.4483 1077.6319ZM335.4483 1249.0219C249.5083 1249.0219 170.8983 1217.2819 110.8383 1163.5719C89.8483 1145.5119 67.8683 1144.0419 53.7083 1158.2019C37.1083 1174.3119 38.0883 1197.7519 55.6683 1215.8219C128.4183 1288.5719 229.4883 1322.2619 335.4483 1322.2619C441.8983 1322.2619 542.9683 1288.5719 615.7183 1215.8219C632.8083 1197.7519 633.7883 1174.3119 617.6783 1158.2019C603.0283 1144.0419 581.0583 1145.5119 560.0583 1163.5719C499.9983 1217.2819 421.8783 1249.0219 335.4483 1249.0219Z"/>
</svg>