<?xml version="1.0" encoding="UTF-8" standalone="no"?>
<svg xmlns="http://www.w3.org/2000/svg"
     width="1238.076468155116" height="1265.625"
     viewBox="0 0 1238.076468155116 1265.625"
     fill="currentColor">
  <path d="M619.28 961.4216C806.78 961.4216 890.77 918.9416 890.77 811.0316V384.7616H911.76C936.18 384.7616 954.73 366.2116 954.73 343.2616V324.7116C954.73 301.2716 936.18 283.2016 911.76 283.2016H890.77V177.2416C890.77 65.9216 788.23 0.0016 619.28 0.0016C450.34 0.0016 347.8 65.9216 347.8 177.2416V283.2016H326.8C302.39 283.2016 283.83 301.2716 283.83 324.7116V343.2616C283.83 366.2116 302.39 384.7616 326.8 384.7616H347.8V811.0316C347.8 918.9416 431.29 961.4216 619.28 961.4216ZM619.28 885.2516C479.15 885.2516 424.46 863.7716 424.46 808.5916V177.2416C424.46 113.2816 492.33 77.1516 619.28 77.1516C746.24 77.1516 813.62 113.2816 813.62 177.2416V808.5916C813.62 863.7716 759.42 885.2516 619.28 885.2516ZM618.79 404.7816C654.44 404.7816 707.66 407.7116 726.22 407.7116C755.51 407.7116 769.18 395.5116 771.63 364.7416L777.49 296.3916C782.37 240.2316 745.26 218.7516 618.79 218.7516C493.31 218.7516 456.2 240.2316 461.08 296.3916L466.94 364.7416C469.38 395.5116 483.05 407.7116 512.35 407.7116C530.42 407.7116 586.08 404.7816 618.79 404.7816ZM618.79 796.8716C745.26 796.8716 785.3 778.3216 776.02 720.2116L771.14 687.0116C763.81 640.6216 727.68 625.9716 618.79 625.9716C510.88 625.9716 474.75 640.6216 467.43 687.0116L462.06 720.2116C453.27 778.3216 493.31 796.8716 618.79 796.8716ZM243.31 1021.4816C293.6 1071.7816 361.96 1096.6816 403.95 1096.6816C426.9 1096.6816 442.52 1082.0316 442.52 1061.0316C442.52 1041.5016 428.85 1025.8816 398.58 1021.4816C360.98 1017.5816 325.83 1000.0016 295.06 969.7216C265.77 939.9416 248.68 903.8116 243.31 862.3016C238.91 834.9616 228.17 823.7316 204.24 823.7316C182.76 823.7316 165.67 840.3316 169.09 866.7016C175.43 926.2716 200.83 979.0016 243.31 1021.4816ZM994.77 1021.4816C1037.74 979.0016 1062.64 926.2716 1068.99 866.7016C1072.41 840.3316 1055.32 823.7316 1033.83 823.7316C1009.91 823.7316 999.65 834.9616 995.26 862.3016C989.4 903.8116 972.31 939.9416 943.01 969.7216C912.25 1000.0016 877.09 1017.5816 839.5 1021.4816C809.22 1025.8816 796.04 1041.5016 796.04 1061.0316C795.55 1082.0316 811.67 1096.6816 834.13 1096.6816C876.12 1096.6816 944.48 1071.7816 994.77 1021.4816ZM122.21 1143.0616C196.92 1218.2616 292.13 1265.6216 395.65 1265.6216C420.55 1265.6216 437.64 1249.5116 437.64 1226.5616C437.64 1205.5616 421.04 1191.8916 393.21 1189.9416C313.13 1185.0616 235.01 1151.8516 173.97 1091.3116C113.42 1030.2716 80.22 952.6416 75.34 872.0716C72.9 840.8216 60.2 828.6116 35.79 828.6116C16.74 828.6116 -1.81 842.2816 0.14 869.1416C6.49 972.6516 46.53 1068.3616 122.21 1143.0616ZM1115.86 1143.0616C1191.55 1068.3616 1231.59 972.6516 1237.93 869.1416C1239.89 842.2816 1221.33 828.6116 1202.29 828.6116C1178.36 828.6116 1165.18 840.8216 1162.74 872.0716C1157.86 952.6416 1125.14 1030.2716 1064.11 1091.3116C1003.07 1151.8516 925.43 1185.0616 844.87 1189.9416C817.52 1191.8916 800.92 1205.5616 800.92 1226.5616C800.92 1249.5116 817.52 1265.6216 842.92 1265.6216C945.94 1265.6216 1041.16 1218.2616 1115.86 1143.0616Z"/>
</svg>