<?xml version="1.0" encoding="UTF-8" standalone="no"?>
<svg xmlns="http://www.w3.org/2000/svg"
     width="1056.6519277150803" height="989.2578125"
     viewBox="0 0 1056.6519277150803 989.2578125"
     fill="currentColor">
  <path d="M597.6713 886.2345C746.5913 800.2945 793.9613 727.5345 744.1513 641.6045L547.8613 300.7845L564.4613 291.5045C583.0213 280.7645 589.8513 256.8345 579.1113 238.7645L570.3213 224.1245C559.5813 205.5645 536.6313 199.7045 517.5913 210.9345L500.9913 220.2145L452.1613 135.7445C400.8913 46.8745 289.0713 42.4845 154.8013 119.6245C151.3813 121.5845 148.4513 123.0445 145.5213 125.0045V28.8045C145.5213 12.2045 133.3113 0.0045 116.7113 0.0045H90.8313C74.2313 0.0045 62.0213 12.2045 62.0213 28.8045V188.4745C-0.9687 251.4645 -17.5687 321.2845 19.5413 385.7445L68.3713 470.2145L51.7713 479.4945C32.2413 490.7245 26.8713 513.6745 37.1213 532.2245L45.4213 547.3645C55.6713 565.4345 79.1113 571.7745 98.1513 560.5445L114.7613 550.7845L311.0513 891.6045C361.3413 977.5345 448.2513 972.1645 597.6713 886.2345ZM1027.8413 264.6445C1044.4413 264.6445 1056.6513 252.4445 1056.6513 235.8445V28.8045C1056.6513 12.2045 1044.4413 0.0045 1027.8413 0.0045H1001.9613C985.3613 0.0045 973.1513 12.2045 973.1513 28.8045V235.8445C973.1513 252.4445 985.3613 264.6445 1001.9613 264.6445ZM562.5113 826.6645C451.1813 891.1145 396.4913 898.9245 371.1013 854.4945L80.0913 351.0745C50.3013 299.3145 87.9013 238.7645 189.9513 179.6845C291.0313 121.5845 361.8313 119.6245 391.6113 170.8945L682.6313 674.3145C708.0213 719.2345 674.3313 762.2045 562.5113 826.6645ZM340.8313 441.8945C368.6613 425.7845 413.1013 404.2945 427.7413 395.0145C451.6713 381.8345 456.0613 365.7245 444.3513 340.3345L417.9813 283.2045C395.5213 235.8445 355.9713 235.8445 255.3813 293.9445C153.8213 352.5345 134.7813 386.7145 164.0713 429.1945L200.2113 480.9545C216.8113 504.8845 233.4113 507.8145 256.8513 494.6245C271.0113 485.8445 314.4613 457.5145 340.8313 441.8945ZM1027.8413 626.4645C1044.4413 626.4645 1056.6513 614.2545 1056.6513 597.6545V391.1145C1056.6513 375.0045 1044.4413 362.7945 1027.8413 362.7945H1001.9613C985.3613 362.7945 973.1513 375.0045 973.1513 391.1145V597.6545C973.1513 614.2545 985.3613 626.4645 1001.9613 626.4645ZM521.9813 755.8545C622.0813 697.7545 645.5213 664.5545 611.8313 622.0745L592.7813 598.1445C565.9313 563.9645 529.8013 569.3345 443.3713 619.6245C355.9713 669.4345 333.5113 697.7545 349.6213 738.2845L360.8513 767.0945C380.3813 817.3845 421.4013 813.9645 521.9813 755.8545ZM116.7113 988.7745C133.3113 988.7745 145.5213 976.5645 145.5213 960.4445V753.4145C145.5213 736.8145 133.3113 724.6045 116.7113 724.6045H90.8313C74.2313 724.6045 62.0213 736.8145 62.0213 753.4145V960.4445C62.0213 976.5645 74.2313 988.7745 90.8313 988.7745ZM1027.8413 989.2545C1044.4413 989.2545 1056.6513 977.0545 1056.6513 960.4445V753.4145C1056.6513 736.8145 1044.4413 724.6045 1027.8413 724.6045H1001.9613C985.3613 724.6045 973.1513 736.8145 973.1513 753.4145V960.4445C973.1513 977.0545 985.3613 989.2545 1001.9613 989.2545Z"/>
</svg>