<?xml version="1.0" encoding="UTF-8" standalone="no"?>
<svg xmlns="http://www.w3.org/2000/svg"
     width="1731.93359375" height="793.45703125"
     viewBox="0 0 1731.93359375 793.45703125"
     fill="currentColor">
  <path d="M127.4383 682.1317H230.4683C252.9283 747.5617 313.9683 793.4617 388.1883 793.4617C462.3983 793.4617 523.9283 747.5617 546.3883 682.1317H1216.7983C1239.2583 747.5617 1300.2883 793.4617 1374.5083 793.4617C1448.7283 793.4617 1510.2583 747.5617 1532.7183 682.1317H1618.6483C1688.9683 682.1317 1731.9383 637.6917 1731.9383 565.9217V369.1417C1731.9383 300.7817 1711.4283 242.6717 1620.6083 214.3517L1520.0183 183.5917C1456.5383 107.9117 1345.6983 0.0017 1144.0383 0.0017H1029.2983C828.1283 0.0017 748.0483 19.5317 627.9283 94.7217L549.3183 144.0417L597.6583 206.5417L669.9183 161.6217C777.8283 94.7217 842.7783 78.6117 1029.2983 78.6117H1144.0383C1276.8583 78.6117 1384.2783 133.7917 1476.5583 262.2117L1596.1883 293.4617C1641.1183 304.6917 1653.3183 331.5417 1653.3183 369.1417V546.3817C1653.3183 582.0317 1635.2583 603.5117 1604.4883 603.5117H1540.0383C1529.2983 520.9917 1460.4483 459.4717 1374.5083 459.4717C1288.5783 459.4717 1220.2183 520.9917 1208.9883 603.5117H553.7083C542.9683 520.9917 474.1183 459.4717 388.1883 459.4717C302.2483 459.4717 233.3983 520.9917 222.6583 603.5117H131.8383C97.1683 603.5117 78.6183 582.0317 78.6183 541.9917V455.0817C78.6183 381.8317 130.3683 334.4717 224.6083 322.7517L424.8083 297.3617L369.6283 225.5817L214.3583 244.6317C79.5883 261.2317 -0.0017 338.8717 -0.0017 455.0817V551.7617C-0.0017 634.7617 46.3883 682.1317 127.4383 682.1317ZM654.7883 378.9017H761.7183V420.9017C761.7183 455.0817 791.9883 465.3317 817.3783 448.7317L940.4283 369.6317C963.8683 354.4917 964.3583 325.1917 939.9383 309.5717L817.8683 230.9617C791.9883 213.8717 761.7183 224.1217 761.7183 258.7917V300.2917H654.7883C608.8883 300.2917 590.3283 290.0417 560.0583 250.9717L427.7383 78.6117C386.7183 24.4117 338.3783 2.9317 264.1583 2.9317H144.0383C122.5583 2.9317 104.9783 20.5117 104.9783 41.9917C104.9783 63.4717 122.5583 81.5417 144.0383 81.5417H264.1583C318.3583 81.5417 338.8683 90.8217 366.2083 126.4617L497.5583 299.8017C539.5483 354.9817 586.4283 378.9017 654.7883 378.9017ZM388.1883 714.8417C338.3783 714.8417 299.8083 676.2717 299.8083 626.4617C299.8083 576.6617 338.3783 538.0817 388.1883 538.0817C437.9883 538.0817 476.5583 576.6617 476.5583 626.4617C476.5583 676.2717 437.9883 714.8417 388.1883 714.8417ZM1374.5083 714.8417C1324.7083 714.8417 1286.1283 676.2717 1286.1283 626.4617C1286.1283 576.6617 1324.7083 538.0817 1374.5083 538.0817C1424.3183 538.0817 1462.8883 576.6617 1462.8883 626.4617C1462.8883 676.2717 1424.3183 714.8417 1374.5083 714.8417Z"/>
</svg>