<?xml version="1.0" encoding="UTF-8" standalone="no"?>
<svg xmlns="http://www.w3.org/2000/svg"
     width="954.243312202558" height="1265.625"
     viewBox="0 0 954.243312202558 1265.625"
     fill="currentColor">
  <path d="M334.9583 961.4216C522.9483 961.4216 606.9383 918.9416 606.9383 811.0316V384.7616H627.9283C652.3483 384.7616 670.8983 366.2116 670.8983 343.2616V324.7116C670.8983 301.2716 652.3483 283.2016 627.9283 283.2016H606.9383V177.2416C606.9383 65.9216 504.3983 0.0016 334.9583 0.0016C166.5083 0.0016 63.9683 65.9216 63.9683 177.2416V283.2016H42.9683C18.5583 283.2016 -0.0017 301.2716 -0.0017 324.7116V343.2616C-0.0017 366.2116 18.5583 384.7616 42.9683 384.7616H63.9683V811.0316C63.9683 918.9416 147.4583 961.4216 334.9583 961.4216ZM335.4483 401.8516C299.3183 401.8516 244.6283 404.7816 225.0983 404.7816C195.3083 404.7816 181.1483 392.0916 178.7083 360.3516L172.3683 290.0416C167.4783 231.9316 205.5683 209.9616 335.4483 209.9616C465.3283 209.9616 503.4183 231.9316 498.5383 290.0416L492.6783 360.3516C489.7483 392.0916 476.0783 404.7816 445.7983 404.7816C426.7583 404.7816 369.6283 401.8516 335.4483 401.8516ZM335.4483 805.6616C205.5683 805.6616 164.5483 786.6216 173.8283 726.5616L179.1983 692.3816C186.5283 644.5316 223.6283 629.3916 335.4483 629.3916C447.2683 629.3916 484.3783 644.5316 492.1883 692.3816L497.0683 726.5616C506.8383 786.6216 465.3283 805.6616 335.4483 805.6616ZM710.9383 1021.4816C753.4183 979.0016 778.8083 926.2716 785.1583 866.7016C788.5783 840.3316 771.4883 823.7316 749.9983 823.7316C726.0783 823.7316 715.3283 834.9616 710.9383 862.3016C705.5683 903.8116 688.4783 939.9416 659.1783 969.7216C628.4183 1000.0016 593.2583 1017.5816 555.6683 1021.4816C525.3883 1025.8816 511.7183 1041.5016 511.7183 1061.0316C511.7183 1082.0316 527.3483 1096.6816 550.2883 1096.6816C592.2883 1096.6816 660.6483 1071.7816 710.9383 1021.4816ZM832.0283 1143.0616C907.7183 1068.3616 947.7583 972.6516 954.0983 869.1416C956.0583 842.2816 937.4983 828.6116 918.4583 828.6116C894.0383 828.6116 881.3483 840.8216 878.9083 872.0716C874.0283 952.6416 840.8183 1030.2716 780.2783 1091.3116C719.2383 1151.8516 641.1183 1185.0616 561.0383 1189.9416C533.1983 1191.8916 516.5983 1205.5616 516.5983 1226.5616C516.5983 1249.5116 533.6883 1265.6216 558.5983 1265.6216C662.1083 1265.6216 757.3283 1218.2616 832.0283 1143.0616Z"/>
</svg>