<?xml version="1.0" encoding="UTF-8" standalone="no"?>
<svg xmlns="http://www.w3.org/2000/svg"
     width="1155.2734375" height="905.76171875"
     viewBox="0 0 1155.2734375 905.76171875"
     fill="currentColor">
  <path d="M-0.0017 661.1323C-0.0017 691.8923 8.2983 718.2623 24.8983 737.7923V841.3123C24.8983 877.4423 53.2183 905.7623 89.8483 905.7623H146.9683C183.5983 905.7623 211.9183 877.4423 211.9183 841.3123V770.5123H943.8483V841.3123C943.8483 877.4423 971.6783 905.7623 1008.2983 905.7623H1065.9183C1102.5383 905.7623 1130.3683 877.4423 1130.3683 841.3123V737.7923C1146.9683 718.2623 1155.2783 691.8923 1155.2783 661.1323V515.1323C1155.2783 433.1023 1144.0383 383.7923 1093.7483 328.6123L1044.4383 275.3923L993.1683 128.4223C965.3283 48.3423 911.1283 14.6523 843.7483 6.8323C811.0383 2.9323 704.0983 0.0023 577.6383 0.0023C451.6583 0.0023 344.7283 2.9323 312.0083 6.8323C244.1383 14.6523 189.9383 48.3423 162.1083 128.4223L110.8383 275.3923L62.0083 328.6123C11.2283 383.7923 -0.0017 433.1023 -0.0017 515.1323ZM63.9683 641.6023V515.1323C63.9683 448.7323 71.7783 414.0623 112.7883 367.6723L170.4083 302.2423L219.7283 157.2223C239.7483 98.1423 273.9283 77.6323 319.3383 72.2623C350.5883 68.3623 449.7083 63.9623 577.6383 63.9623C706.0583 63.9623 804.6883 68.3623 835.9383 72.2623C881.3483 77.6323 915.5283 98.1423 935.5483 157.2223L984.8683 302.2423L1042.9683 367.6723C1083.4983 414.0623 1091.3083 448.7323 1091.3083 515.1323V641.6023C1091.3083 680.1723 1075.6883 706.5423 1033.6883 706.5423H121.5783C80.0783 706.5423 63.9683 680.1723 63.9683 641.6023ZM264.1583 293.9423H891.1183C913.0883 293.9423 920.8983 277.8323 913.5783 257.3223L884.7683 171.8723C874.0283 140.1323 857.4183 129.3923 829.0983 125.4923C797.3683 121.0923 708.9883 117.6723 577.6383 117.6723C446.2883 117.6723 358.3983 121.0923 326.1683 125.4923C298.3383 129.3923 281.2483 140.1323 270.5083 171.8723L241.6983 257.3223C234.8683 277.8323 242.1883 293.9423 264.1583 293.9423ZM200.6883 576.6623C228.5183 576.6623 249.0283 556.1523 249.0283 527.8323V456.0523C249.0283 427.7323 228.5183 407.7123 200.6883 407.7123C172.3683 407.7123 151.8583 428.2223 151.8583 456.0523V527.8323C151.8583 555.6623 172.3683 576.6623 200.6883 576.6623ZM959.4683 576.6623C987.7883 576.6623 1008.7883 556.1523 1008.7883 527.8323V456.0523C1008.7883 427.7323 987.7883 407.7123 959.4683 407.7123C932.1283 407.7123 911.1283 428.7123 911.1283 456.0523V527.8323C911.1283 555.6623 932.1283 576.6623 959.4683 576.6623ZM473.1483 554.6923H680.6683C703.6183 554.6923 718.7483 539.5523 718.7483 515.6223V468.2623C718.7483 444.3323 703.6183 430.1723 680.6683 430.1723H473.1483C451.1683 430.1723 436.0383 444.3323 436.0383 468.2623V515.6223C436.0383 539.5523 451.1683 554.6923 473.1483 554.6923Z"/>
</svg>