<?xml version="1.0" encoding="UTF-8" standalone="no"?>
<svg xmlns="http://www.w3.org/2000/svg"
     width="1173.828125" height="922.36328125"
     viewBox="0 0 1173.828125 922.36328125"
     fill="currentColor">
  <path d="M784.1783 128.4148C819.3383 128.4148 848.1483 99.6048 848.1483 64.4548C848.1483 29.2948 819.3383 0.0048 784.1783 0.0048C749.0283 0.0048 720.2183 29.2948 720.2183 64.4548C720.2183 99.6048 749.0283 128.4148 784.1783 128.4148ZM989.7483 297.3648C1042.4783 297.3648 1084.9583 254.8848 1084.9583 201.1748C1084.9583 147.9448 1042.4783 105.4648 989.7483 105.4648C936.0383 105.4648 893.0683 147.9448 893.0683 201.1748C893.0683 254.8848 936.0383 297.3648 989.7483 297.3648ZM246.0983 922.3648H881.8383C1046.3883 922.3648 1173.8283 797.8548 1173.8283 638.6748C1173.8283 478.0248 1043.9483 356.9348 866.2083 356.9348C801.2683 228.0248 682.1283 149.4148 537.5983 149.4148C348.1483 149.4148 187.4983 296.3848 170.4083 491.2148C72.7583 519.0448 6.8383 601.0748 6.8383 704.5848C6.8383 825.1948 94.2383 922.3648 246.0983 922.3648ZM245.1183 843.7548C145.0183 843.7548 85.4483 789.5548 85.4483 707.0348C85.4483 636.7148 130.3683 586.4248 209.4683 565.4248C236.8183 558.5948 247.0683 545.8948 249.0283 517.5748C260.7383 352.0548 384.7683 228.0248 537.5983 228.0248C654.7883 228.0248 746.0983 293.4548 800.7783 405.7648C812.0083 429.6848 826.1683 437.9848 855.9583 437.9848C1008.7883 437.9848 1095.2183 530.2748 1095.2183 640.6248C1095.2183 754.3948 1003.9083 843.7548 887.2083 843.7548ZM68.3583 444.3348C105.9583 444.3348 136.2283 414.0648 136.2283 375.9748C136.2283 338.3748 105.9583 308.1048 68.3583 308.1048C30.2783 308.1048 -0.0017 338.3748 -0.0017 375.9748C-0.0017 414.0648 30.2783 444.3348 68.3583 444.3348ZM461.9183 753.9048C525.8783 753.9048 564.4483 708.0048 566.4083 658.2048C566.8983 641.1148 556.6383 629.3948 541.0183 629.3948C526.3683 629.3948 519.0383 637.6948 515.1383 654.2948C509.7683 679.1948 495.1183 705.5648 461.9183 705.5648C413.5783 705.5648 398.4383 653.8048 398.4383 597.6548C398.4383 544.9248 414.5483 491.6948 461.4283 491.6948C494.6283 491.6948 507.8083 517.5748 513.6683 542.4848C517.5783 559.0848 524.8983 567.3848 539.5483 567.3848C555.1783 567.3848 565.4283 556.1548 564.9383 538.5748C562.9883 488.7648 524.4183 443.3548 460.4483 443.3548C380.8583 443.3548 344.7283 512.6948 344.7283 597.6548C344.7283 681.1548 377.4383 753.9048 461.9183 753.9048ZM698.2383 753.9048C769.0383 753.9048 813.9683 693.3548 813.9683 598.6348C813.9683 503.4148 769.0383 443.3548 698.2383 443.3548C626.9483 443.3548 581.5383 503.4148 581.5383 598.6348C581.5383 693.3548 626.9483 753.9048 698.2383 753.9048ZM698.2383 705.5648C659.6683 705.5648 635.7383 666.0148 635.7383 598.6348C635.7383 531.2548 659.6683 491.6948 698.2383 491.6948C736.3283 491.6948 760.2583 531.2548 760.2583 598.6348C760.2583 666.0148 736.3283 705.5648 698.2383 705.5648Z"/>
</svg>