<?xml version="1.0" encoding="UTF-8" standalone="no"?>
<svg xmlns="http://www.w3.org/2000/svg"
     width="1173.828125" height="922.36328125"
     viewBox="0 0 1173.828125 922.36328125"
     fill="currentColor">
  <path d="M784.1783 128.4148C819.3383 128.4148 848.1483 99.6048 848.1483 64.4548C848.1483 29.2948 819.3383 0.0048 784.1783 0.0048C749.0283 0.0048 720.2183 29.2948 720.2183 64.4548C720.2183 99.6048 749.0283 128.4148 784.1783 128.4148ZM989.7483 297.3648C1042.4783 297.3648 1084.9583 254.8848 1084.9583 201.1748C1084.9583 147.9448 1042.4783 105.4648 989.7483 105.4648C936.0383 105.4648 893.0683 147.9448 893.0683 201.1748C893.0683 254.8848 936.0383 297.3648 989.7483 297.3648ZM246.0983 922.3648H881.8383C1046.3883 922.3648 1173.8283 797.8548 1173.8283 638.6748C1173.8283 478.0248 1043.9483 356.9348 866.2083 356.9348C801.2683 228.0248 682.1283 149.4148 537.5983 149.4148C348.1483 149.4148 187.4983 296.3848 170.4083 491.2148C72.7583 519.0448 6.8383 601.0748 6.8383 704.5848C6.8383 825.1948 94.2383 922.3648 246.0983 922.3648ZM68.3583 444.3348C105.9583 444.3348 136.2283 414.0648 136.2283 375.9748C136.2283 338.3748 105.9583 308.1048 68.3583 308.1048C30.2783 308.1048 -0.0017 338.3748 -0.0017 375.9748C-0.0017 414.0648 30.2783 444.3348 68.3583 444.3348ZM457.5183 758.7848C370.6083 758.7848 336.4283 683.5948 336.4283 597.6548C336.4283 510.2548 373.5383 438.4748 456.0583 438.4748C521.9683 438.4748 562.0083 485.3548 563.9683 536.6248C564.4483 554.6848 553.7083 566.4048 537.5983 566.4048C522.4583 566.4048 514.6483 558.1048 510.2583 540.5248C504.8783 515.1348 491.2083 488.7648 457.0283 488.7648C408.6883 488.7648 392.0883 543.4548 392.0883 597.6548C392.0883 655.2748 408.1983 708.4948 457.5183 708.4948C491.6983 708.4948 506.3483 681.6448 511.7183 656.2548C516.1183 638.6748 523.9283 630.3748 539.0583 630.3748C555.1783 630.3748 565.9183 642.5748 565.4283 660.1548C563.4783 711.4248 523.4383 758.7848 457.5183 758.7848ZM706.0583 758.7848C632.8083 758.7848 585.9383 696.2848 585.9383 598.6348C585.9383 500.4848 632.8083 438.4748 706.0583 438.4748C779.2983 438.4748 825.6883 500.4848 825.6883 598.6348C825.6883 696.2848 779.2983 758.7848 706.0583 758.7848ZM706.0583 708.4948C745.6083 708.4948 770.0183 667.9648 770.0183 598.6348C770.0183 529.2948 745.6083 488.7648 706.0583 488.7648C666.5083 488.7648 641.5983 529.2948 641.5983 598.6348C641.5983 667.9648 666.5083 708.4948 706.0583 708.4948Z"/>
</svg>