<?xml version="1.0" encoding="UTF-8" standalone="no"?>
<svg xmlns="http://www.w3.org/2000/svg"
     width="1173.828125" height="922.36328125"
     viewBox="0 0 1173.828125 922.36328125"
     fill="currentColor">
  <path d="M784.1783 128.4148C819.3383 128.4148 848.1483 99.6048 848.1483 64.4548C848.1483 29.2948 819.3383 0.0048 784.1783 0.0048C749.0283 0.0048 720.2183 29.2948 720.2183 64.4548C720.2183 99.6048 749.0283 128.4148 784.1783 128.4148ZM989.7483 297.3648C1042.4783 297.3648 1084.9583 254.8848 1084.9583 201.1748C1084.9583 147.9448 1042.4783 105.4648 989.7483 105.4648C936.0383 105.4648 893.0683 147.9448 893.0683 201.1748C893.0683 254.8848 936.0383 297.3648 989.7483 297.3648ZM246.0983 922.3648H881.8383C1046.3883 922.3648 1173.8283 797.8548 1173.8283 638.6748C1173.8283 478.0248 1043.9483 356.9348 866.2083 356.9348C801.2683 228.0248 682.1283 149.4148 537.5983 149.4148C348.1483 149.4148 187.4983 296.3848 170.4083 491.2148C72.7583 519.0448 6.8383 601.0748 6.8383 704.5848C6.8383 825.1948 94.2383 922.3648 246.0983 922.3648ZM245.1183 843.7548C145.0183 843.7548 85.4483 789.5548 85.4483 707.0348C85.4483 636.7148 130.3683 586.4248 209.4683 565.4248C236.8183 558.5948 247.0683 545.8948 249.0283 517.5748C260.7383 352.0548 384.7683 228.0248 537.5983 228.0248C654.7883 228.0248 746.0983 293.4548 800.7783 405.7648C812.0083 429.6848 826.1683 437.9848 855.9583 437.9848C1008.7883 437.9848 1095.2183 530.2748 1095.2183 640.6248C1095.2183 754.3948 1003.9083 843.7548 887.2083 843.7548ZM68.3583 444.3348C105.9583 444.3348 136.2283 414.0648 136.2283 375.9748C136.2283 338.3748 105.9583 308.1048 68.3583 308.1048C30.2783 308.1048 -0.0017 338.3748 -0.0017 375.9748C-0.0017 414.0648 30.2783 444.3348 68.3583 444.3348ZM429.6883 753.9048C493.1683 753.9048 532.2283 708.0048 533.6883 658.2048C534.1783 641.1148 523.9283 629.3948 508.7883 629.3948C494.1383 629.3948 486.3283 637.6948 482.4183 654.2948C477.0483 679.1948 462.8883 705.5648 429.6883 705.5648C380.8583 705.5648 365.7183 653.8048 365.7183 597.6548C365.7183 544.9248 381.8383 491.6948 429.1983 491.6948C462.3983 491.6948 475.5883 517.5748 480.9583 542.4848C484.8683 559.0848 492.6783 567.3848 507.3283 567.3848C522.4583 567.3848 532.7183 556.1548 532.2283 538.5748C530.7583 488.7648 491.6983 443.3548 428.2183 443.3548C348.1483 443.3548 312.0083 512.6948 312.0083 597.6548C312.0083 681.1548 345.2183 753.9048 429.6883 753.9048ZM666.0183 753.9048C736.8183 753.9048 781.2483 693.3548 781.2483 598.6348C781.2483 503.4148 736.8183 443.3548 665.5283 443.3548C594.2383 443.3548 549.3183 503.4148 549.3183 598.6348C549.3183 693.3548 594.2383 753.9048 666.0183 753.9048ZM666.0183 705.5648C626.9483 705.5648 603.0283 666.0148 603.0283 598.6348C603.0283 531.2548 626.9483 491.6948 665.5283 491.6948C704.0983 491.6948 728.0283 531.2548 728.0283 598.6348C728.0283 666.0148 704.0983 705.5648 666.0183 705.5648ZM813.9683 773.4348H893.0683C902.8283 773.4348 910.6483 764.6448 910.6483 754.8848C910.6483 745.6048 902.3483 737.3048 893.0683 737.3048H855.4683L871.0983 720.7048C890.6283 701.6648 904.2983 683.5948 904.2983 664.0648C904.2983 636.7148 881.8383 616.6948 850.5883 616.6948C817.3783 616.6948 796.8783 641.6048 796.8783 662.5948C796.8783 674.8048 805.6683 682.1248 815.4283 682.1248C827.1483 682.1248 832.5183 673.8248 835.4483 666.9948C838.3783 657.7148 843.2583 652.8348 851.0783 652.8348C858.3983 652.8348 863.7683 658.2048 863.7683 665.0348C863.7683 676.2648 853.0283 688.9648 842.2883 699.7048L804.6883 738.2848C800.2883 742.6748 797.3683 750.0048 797.3683 755.8548C797.3683 765.6248 804.6883 773.4348 813.9683 773.4348Z"/>
</svg>