<?xml version="1.0" encoding="UTF-8" standalone="no"?>
<svg xmlns="http://www.w3.org/2000/svg"
     width="1123.8833279453834" height="1120.8565786813663"
     viewBox="0 0 1123.8833279453834 1120.8565786813663"
     fill="currentColor">
  <path d="M138.6915 1104.7725L788.1015 697.0625C936.5415 603.8025 976.5815 464.1525 894.5515 345.0125C994.1615 358.6825 1139.1715 326.4525 1122.5715 256.6325C1112.8115 215.1225 1058.6115 210.7325 998.5515 225.3825C1070.3315 166.7825 1118.6715 92.0825 1075.2115 48.1325C1031.7515 4.6725 957.0515 53.0125 898.4515 124.7925C913.1015 65.2225 908.7115 11.5125 868.1815 1.2625C797.8715 -14.8575 765.6415 127.2325 778.3415 226.8425C660.1715 142.3725 518.0815 182.9025 423.3515 333.2925L15.6415 981.2425C-11.6985 1025.1825 -0.4685 1064.2425 28.3415 1093.0525C53.2415 1118.4425 91.3215 1134.5625 138.6915 1104.7725ZM306.1715 829.3825C293.4715 842.0825 293.4715 862.1025 306.6615 874.7925L329.6015 897.7425L101.5815 1040.8125C85.4615 1051.0625 68.8615 1034.9525 79.1215 1019.3225L412.1215 490.0325L457.0515 533.9725C470.2315 547.1525 489.2715 546.6725 502.4615 533.9725C515.1515 521.2825 515.1515 501.7425 501.9715 488.5625L446.7915 434.3625L480.9715 380.1625L567.8915 465.6125C581.0715 478.8025 600.6015 478.3125 613.3015 465.1225C625.5015 452.4325 625.5015 433.3925 612.3215 420.2025L518.0815 327.4325C595.7215 234.1725 684.5915 230.7525 766.1315 312.7825L807.6315 355.2625C899.9215 449.0125 883.3215 549.6025 750.0115 633.5825L495.1315 793.7425L438.4915 738.0725C425.8015 725.3825 406.2615 725.8725 393.0815 738.5625C380.8715 751.2625 380.3915 770.7925 393.5715 783.9725L439.4715 828.4025L385.2715 862.5825L351.5815 829.3825C338.3915 816.2025 318.8615 816.6925 306.1715 829.3825Z"/>
</svg>