<?xml version="1.0" encoding="UTF-8" standalone="no"?>
<svg xmlns="http://www.w3.org/2000/svg"
     width="996.09375" height="996.09375"
     viewBox="0 0 996.09375 996.09375"
     fill="currentColor">
  <path d="M498.0477 996.0977C770.5077 996.0977 996.0977 770.5077 996.0977 498.0477C996.0977 226.0777 770.0177 -0.0023 497.5577 -0.0023C225.5877 -0.0023 -0.0023 226.0777 -0.0023 498.0477C-0.0023 770.5077 226.0777 996.0977 498.0477 996.0977ZM413.5777 668.4577C368.1677 668.4577 341.7977 647.4577 335.9377 607.4177L296.3877 329.0977H218.2577C202.6377 329.0977 191.8977 318.3577 191.8977 302.7377C191.8977 286.6177 202.6377 275.8777 218.2577 275.8777H303.7077C326.6577 275.8777 344.7277 290.5277 347.6577 312.0077L352.0477 345.7077H759.2777C773.9277 345.7077 782.7177 354.4877 782.7177 366.6977C782.7177 368.6477 782.2277 373.0477 781.2477 375.9777L761.2277 512.6977C755.8577 549.3177 736.8177 571.7777 699.2177 571.7777H385.2577L387.2077 590.8177C389.1577 606.4477 399.4177 615.7177 414.5477 615.7177H687.4977C703.1277 615.7177 713.3777 625.9777 713.3777 641.5977C713.3777 658.2077 703.1277 668.4577 687.4977 668.4577ZM421.3877 791.9877C396.4877 791.9877 376.4677 772.4577 376.4677 747.0677C376.4677 721.1877 396.4877 701.6577 421.3877 701.6577C446.7777 701.6577 466.7977 721.1877 466.7977 747.0677C466.7977 772.4577 446.7777 791.9877 421.3877 791.9877ZM646.4877 791.9877C621.5777 791.9877 600.5877 772.4577 600.5877 747.0677C600.5877 721.1877 621.5777 701.6577 646.4877 701.6577C671.8777 701.6577 691.8977 721.1877 691.8977 747.0677C691.8977 772.4577 671.8777 791.9877 646.4877 791.9877Z"/>
</svg>