<?xml version="1.0" encoding="UTF-8" standalone="no"?>
<svg xmlns="http://www.w3.org/2000/svg"
     width="996.09375" height="996.09375"
     viewBox="0 0 996.09375 996.09375"
     fill="currentColor">
  <path d="M498.0477 996.0959C770.5077 996.0959 996.0977 770.0159 996.0977 498.0459C996.0977 225.5859 770.0177 -0.0041 497.5577 -0.0041C225.5877 -0.0041 -0.0023 225.5859 -0.0023 498.0459C-0.0023 770.0159 226.0777 996.0959 498.0477 996.0959ZM498.0477 913.0859C267.5777 913.0859 83.4977 728.5159 83.4977 498.0459C83.4977 267.5759 267.0877 83.0059 497.5577 83.0059C728.0277 83.0059 913.0877 267.5759 913.0877 498.0459C913.0877 728.5159 728.5177 913.0859 498.0477 913.0859ZM415.0377 663.5759H681.1477C696.2877 663.5759 706.0577 653.3159 706.0577 637.6959C706.0577 622.5559 696.2877 611.8159 681.1477 611.8159H416.0177C401.3677 611.8159 391.5977 603.5159 389.6477 588.3759L387.6977 569.8259H692.3877C729.0077 569.8259 747.0677 547.8559 752.4377 512.2059L771.9777 379.3959C772.9477 376.9559 773.4377 372.5559 773.4377 370.6059C773.4377 358.3959 764.6477 350.5859 750.4877 350.5859H355.4677L351.0777 317.3859C348.1477 296.3859 331.0577 282.7159 308.5977 282.7159H225.5877C210.4477 282.7159 200.1977 292.9659 200.1977 308.5959C200.1977 323.7259 210.4477 333.9859 225.5877 333.9859H301.7577L340.3277 604.0059C345.7077 643.0659 371.0977 663.5759 415.0377 663.5759ZM422.8477 783.2059C447.7577 783.2059 466.7977 763.6759 466.7977 739.7459C466.7977 714.8459 447.7577 695.3159 422.8477 695.3159C398.9277 695.3159 379.3977 714.8459 379.3977 739.7459C379.3977 763.6759 398.9277 783.2059 422.8477 783.2059ZM641.5977 783.2059C666.0177 783.2059 685.5477 763.6759 685.5477 739.7459C685.5477 714.8459 666.0177 695.3159 641.5977 695.3159C617.1877 695.3159 597.1677 714.8459 597.1677 739.7459C597.1677 763.6759 617.1877 783.2059 641.5977 783.2059Z"/>
</svg>