<?xml version="1.0" encoding="UTF-8" standalone="no"?>
<svg xmlns="http://www.w3.org/2000/svg"
     width="996.09375" height="996.09375"
     viewBox="0 0 996.09375 996.09375"
     fill="currentColor">
  <path d="M498.0477 996.0959C770.5077 996.0959 996.0977 770.0159 996.0977 498.0459C996.0977 225.5859 770.0177 -0.0041 497.5577 -0.0041C225.5877 -0.0041 -0.0023 225.5859 -0.0023 498.0459C-0.0023 770.0159 226.0777 996.0959 498.0477 996.0959ZM295.4077 499.0259C295.4077 363.2859 363.7677 272.9459 470.7077 259.2759V219.2359C470.7077 204.1059 481.4477 194.3359 496.0977 194.3359C510.2577 194.3359 520.5077 204.1059 520.5077 219.2359V258.7859C592.2877 265.6259 649.4177 308.5959 671.3877 368.6559C674.3177 376.9559 676.2677 385.7459 676.2677 394.0459C676.2677 412.5959 664.0577 424.8059 645.5077 424.8059C627.4377 424.8059 618.6477 417.9659 612.7977 398.4359C601.0777 358.8859 565.9177 328.1259 520.5077 320.3159V679.1959C568.8477 672.8559 604.9777 643.0659 616.2077 602.0459C621.5777 584.4759 631.8377 575.1959 648.9277 575.1959C667.9677 575.1959 679.6877 587.8859 679.6877 605.9559C679.6877 615.2359 677.7377 623.5359 674.8077 631.8359C653.3177 691.8959 597.6577 734.3759 520.5077 740.2359V780.2759C520.5077 795.4059 510.2577 805.6659 496.0977 805.6659C481.9377 805.6659 470.7077 795.4059 470.7077 780.2759V739.7459C363.2777 726.5659 295.4077 636.7159 295.4077 499.0259ZM363.2777 499.0259C363.2777 596.6759 403.8077 663.0859 470.7077 677.7359V321.7759C403.8077 335.9359 363.2777 402.8359 363.2777 499.0259Z"/>
</svg>