<?xml version="1.0" encoding="UTF-8" standalone="no"?>
<svg xmlns="http://www.w3.org/2000/svg"
     width="996.09375" height="996.09375"
     viewBox="0 0 996.09375 996.09375"
     fill="currentColor">
  <path d="M498.0477 996.0959C770.5077 996.0959 996.0977 770.0159 996.0977 498.0459C996.0977 225.5859 770.0177 -0.0041 497.5577 -0.0041C225.5877 -0.0041 -0.0023 225.5859 -0.0023 498.0459C-0.0023 770.0159 226.0777 996.0959 498.0477 996.0959ZM498.0477 913.0859C267.5777 913.0859 83.4977 728.5159 83.4977 498.0459C83.4977 267.5759 267.0877 83.0059 497.5577 83.0059C728.0277 83.0059 913.0877 267.5759 913.0877 498.0459C913.0877 728.5159 728.5177 913.0859 498.0477 913.0859ZM301.2677 499.0259C301.2677 632.3259 367.1877 719.2359 471.1877 732.4259V771.4859C471.1877 786.1359 481.9377 795.8959 495.6077 795.8959C509.2777 795.8959 519.5277 786.1359 519.5277 771.4859V732.9059C594.2377 727.0459 647.9477 686.0359 668.9477 627.4459C671.8777 619.6259 673.8277 611.3259 673.8277 602.5359C673.8277 584.9559 662.1077 572.7559 644.0477 572.7559C627.4377 572.7559 617.6777 582.0359 612.3077 598.6359C601.5577 638.6759 566.4077 667.4759 519.5277 673.8259V325.6859C563.4777 333.0059 597.6577 363.2859 608.8877 401.8559C614.7477 420.4059 623.0477 427.2459 640.6277 427.2459C658.6877 427.2459 670.4077 415.5259 670.4077 397.4559C670.4077 389.1559 668.4577 380.8559 665.5277 373.0459C644.5277 314.4559 588.8677 272.9459 519.5277 266.1159V228.0259C519.5277 213.3759 509.2777 204.1059 495.6077 204.1059C481.4477 204.1059 471.1877 213.3759 471.1877 228.0259V266.6059C367.6777 279.7859 301.2677 367.6759 301.2677 499.0259ZM366.6977 499.0259C366.6977 405.7659 406.2477 340.8159 471.1877 327.1459V672.3659C406.2477 658.2059 366.6977 593.7459 366.6977 499.0259Z"/>
</svg>