<?xml version="1.0" encoding="UTF-8" standalone="no"?>
<svg xmlns="http://www.w3.org/2000/svg"
     width="898.92578125" height="898.92578125"
     viewBox="0 0 898.92578125 898.92578125"
     fill="currentColor">
  <path d="M153.3183 898.9295H745.6083C848.1483 898.9295 898.9283 848.1495 898.9283 747.5595V151.3695C898.9283 50.7795 848.1483 -0.0005 745.6083 -0.0005H153.3183C51.2683 -0.0005 -0.0017 50.2895 -0.0017 151.3695V747.5595C-0.0017 848.6295 51.2683 898.9295 153.3183 898.9295ZM154.2983 820.3095C105.4683 820.3095 78.6183 794.4295 78.6183 743.6495V155.2695C78.6183 104.4895 105.4683 78.6095 154.2983 78.6095H744.6283C792.9683 78.6095 820.3083 104.4895 820.3083 155.2695V743.6495C820.3083 794.4295 792.9683 820.3095 744.6283 820.3095ZM253.4183 449.7095C253.4183 583.0095 319.3383 669.9195 423.3383 683.1095V722.1695C423.3383 736.8195 434.0783 746.5795 447.7583 746.5795C461.4283 746.5795 471.6783 736.8195 471.6783 722.1695V683.5895C546.3883 677.7295 600.0983 636.7195 621.0983 578.1295C624.0283 570.3095 625.9783 562.0095 625.9783 553.2195C625.9783 535.6395 614.2583 523.4395 596.1883 523.4395C579.5883 523.4395 569.8283 532.7195 564.4483 549.3195C553.7083 589.3595 518.5583 618.1595 471.6783 624.5095V276.3695C515.6283 283.6895 550.2883 313.9695 561.0383 352.5395C566.8983 371.0895 575.6883 377.9295 592.7783 377.9295C610.8383 377.9295 622.5583 366.2095 622.5583 348.1395C622.5583 339.8395 620.6083 331.5395 617.6783 323.7295C596.6783 265.1395 541.0183 223.6295 471.6783 216.7995V178.7095C471.6783 164.0595 461.4283 154.7895 447.7583 154.7895C433.5983 154.7895 423.3383 164.0595 423.3383 178.7095V217.2895C319.8283 230.4695 253.4183 318.3595 253.4183 449.7095ZM318.8483 449.7095C318.8483 356.4495 358.8883 291.4995 423.3383 277.8295V623.0495C358.3983 608.8895 318.8483 544.4295 318.8483 449.7095Z"/>
</svg>