<?xml version="1.0" encoding="UTF-8" standalone="no"?>
<svg xmlns="http://www.w3.org/2000/svg"
     width="700.6937886254784" height="1091.796875"
     viewBox="0 0 700.6937886254784 1091.796875"
     fill="currentColor">
  <path d="M365.7183 1091.7944C383.2983 1091.7944 397.4583 1077.6344 397.4583 1060.0544V988.7744C545.4083 980.9544 651.3683 903.8044 692.3783 790.0344C697.7583 775.3944 700.1983 760.7444 700.6883 745.6044C701.1683 720.2144 684.0783 702.6344 657.7183 702.6344C632.3283 702.6344 619.6283 716.7944 611.3283 742.1844C585.9383 832.0344 503.9083 895.0244 397.4583 902.8344V187.9844C498.0483 196.7744 579.5883 262.6944 604.9783 351.5644C613.7683 379.8844 625.9783 391.1144 651.3683 391.1144C677.7383 391.1144 694.8283 373.5344 694.3383 347.6544C693.8483 333.0044 691.4083 319.3344 686.5283 305.6644C644.5283 188.9644 533.1983 110.3544 397.4583 101.5644V31.7344C397.4583 14.1644 383.2983 0.0044 365.7183 0.0044C348.1483 0.0044 333.9883 14.1644 333.9883 31.7344V102.5344C130.8583 121.5844 -0.0017 288.5744 -0.0017 542.4844C-0.0017 799.8044 130.3683 968.7544 333.9883 987.7944V1060.0544C333.9883 1077.6344 348.1483 1091.7944 365.7183 1091.7944ZM98.1483 542.4844C98.1483 341.3044 189.9383 209.4744 333.9883 189.4544V901.3644C189.4483 880.8544 98.1483 746.0944 98.1483 542.4844Z"/>
</svg>