<?xml version="1.0" encoding="UTF-8" standalone="no"?>
<svg xmlns="http://www.w3.org/2000/svg"
     width="577.63671875" height="907.2265625"
     viewBox="0 0 577.63671875 907.2265625"
     fill="currentColor">
  <path d="M303.2183 907.2223C321.2883 907.2223 335.4483 894.5323 335.4483 875.4923V790.0423C457.0283 781.2523 544.4383 714.8423 572.7583 630.3723C575.1983 622.0723 577.6383 612.7923 577.6383 602.5423C577.6383 577.6323 560.0583 561.0323 535.1583 561.0323C515.1383 561.0323 502.4383 573.7323 494.1383 592.7723C468.2583 656.2523 416.5083 701.6623 335.4483 709.9623V196.7723C416.0183 205.5623 467.2883 251.4623 492.6783 313.4723C500.9783 334.4723 515.6283 346.1923 536.1283 346.1923C560.5483 346.1923 576.6583 329.1023 576.6583 304.6923C576.6583 294.4323 574.2183 285.1523 571.7783 276.8523C543.4583 192.8723 456.5383 125.9723 335.4483 116.7023V31.7423C335.4483 12.6923 321.2883 0.0023 303.2183 0.0023C285.1583 0.0023 271.4883 12.6923 271.4883 31.7423V117.6723C106.4483 133.3023 -0.0017 261.2323 -0.0017 453.6123C-0.0017 648.9223 106.4483 773.4423 271.4883 789.5523V875.4923C271.4883 894.5323 285.1583 907.2223 303.2183 907.2223ZM91.7983 453.6123C91.7983 306.1523 162.1083 214.3523 271.4883 198.2423V708.9823C162.5983 692.8723 91.7983 604.0023 91.7983 453.6123Z"/>
</svg>