<?xml version="1.0" encoding="UTF-8" standalone="no"?>
<svg xmlns="http://www.w3.org/2000/svg"
     width="1076.171875" height="1013.18359375"
     viewBox="0 0 1076.171875 1013.18359375"
     fill="currentColor">
  <path d="M290.0383 1013.1819C309.0783 1013.1819 323.2383 1003.4219 346.1883 981.9319L522.4583 820.8019H852.5383C998.0483 820.8019 1076.1683 740.7219 1076.1683 597.6519V223.6319C1076.1683 80.5619 998.0483 0.0019 852.5383 0.0019H223.6283C78.1283 0.0019 -0.0017 80.0819 -0.0017 223.6319V597.6519C-0.0017 741.2119 78.1283 820.8019 223.6283 820.8019H246.5783V962.8919C246.5783 993.1619 262.2083 1013.1819 290.0383 1013.1819ZM373.0483 645.9919C350.0983 645.9919 335.4483 631.8319 335.4483 611.3319C335.4483 603.5119 336.4283 596.1919 340.8183 584.9619L481.9383 205.0819C491.6983 178.7119 510.7383 165.5319 538.0883 165.5319C565.4283 165.5319 584.9583 178.7119 594.7283 205.0819L735.8383 584.9619C740.2383 596.1919 741.2083 603.5119 741.2083 611.3319C741.2083 631.8319 726.5583 645.9919 704.0983 645.9919C685.5483 645.9919 672.8483 637.6919 664.5483 613.7719L627.9283 506.8319H448.7283L412.1083 613.7719C403.8083 637.6919 391.1183 645.9919 373.0483 645.9919ZM468.7483 445.8019H607.9083L541.0183 251.4619H535.6483Z"/>
</svg>