<?xml version="1.0" encoding="UTF-8" standalone="no"?>
<svg xmlns="http://www.w3.org/2000/svg"
     width="1076.171875" height="1010.25390625"
     viewBox="0 0 1076.171875 1010.25390625"
     fill="currentColor">
  <path d="M300.2883 1010.2519C324.2183 1010.2519 340.8183 997.5619 370.6083 971.1919L539.0583 821.2919H852.5383C998.0483 821.2919 1076.1683 740.7219 1076.1683 597.6519V223.6319C1076.1683 80.5619 998.0483 0.0019 852.5383 0.0019H223.6283C78.1283 0.0019 -0.0017 80.0819 -0.0017 223.6319V597.6519C-0.0017 741.2119 78.1283 821.2919 223.6283 821.2919H247.0683V948.2419C247.0683 985.8419 266.1183 1010.2519 300.2883 1010.2519ZM320.3083 920.9019V779.2919C320.3083 752.9319 310.0583 742.6719 283.6883 742.6719H223.6283C124.9983 742.6719 78.6183 692.3819 78.6183 597.1719V223.6319C78.6183 128.4219 124.9983 78.6119 223.6283 78.6119H852.5383C950.6883 78.6119 997.5583 128.4219 997.5583 223.6319V597.1719C997.5583 692.3819 950.6883 742.6719 852.5383 742.6719H536.1283C508.7883 742.6719 495.1183 746.5819 476.5583 765.6219ZM377.9283 640.6219C395.5083 640.6219 407.7183 632.3219 415.5283 609.3719L451.1683 505.3719H625.4883L661.1283 609.3719C668.9483 631.8319 681.1483 640.6219 699.2183 640.6219C720.6983 640.6219 734.8683 626.9519 734.8683 606.9319C734.8683 599.1219 733.3983 592.2819 729.4883 581.5419L592.7783 212.8919C583.4983 187.5019 564.4483 174.3119 538.0883 174.3119C511.7183 174.3119 493.1683 187.5019 483.8883 212.8919L347.1683 581.5419C343.2583 592.2819 341.7983 599.1219 341.7983 606.4419C341.7983 626.9519 355.9583 640.6219 377.9283 640.6219ZM470.6983 446.7819L535.6483 257.8119H541.0183L605.9583 446.7819Z"/>
</svg>