<?xml version="1.0" encoding="UTF-8" standalone="no"?>
<svg xmlns="http://www.w3.org/2000/svg"
     width="821.2890625" height="1046.875"
     viewBox="0 0 821.2890625 1046.875"
     fill="currentColor">
  <path d="M-0.0017 894.0466C-0.0017 996.0966 50.2883 1046.8766 151.3683 1046.8766H669.9183C770.9983 1046.8766 821.2883 996.0966 821.2883 894.0466V153.3166C821.2883 51.7566 770.9983 -0.0034 669.9183 -0.0034H151.3683C50.2883 -0.0034 -0.0017 51.7566 -0.0017 153.3166ZM78.6183 892.5766V154.7866C78.6183 105.9566 104.4883 78.6166 155.2783 78.6166H666.0183C716.7983 78.6166 742.6783 105.9566 742.6783 154.7866V892.5766C742.6783 941.4066 716.7983 968.2666 666.0183 968.2666H155.2783C104.4883 968.2666 78.6183 941.4066 78.6183 892.5766ZM180.1783 161.6166C160.1583 161.6166 148.4383 174.3166 148.4383 194.8266V276.3666C148.4383 296.8766 160.1583 309.5666 180.1783 309.5666H479.4883C499.0283 309.5666 510.7383 296.8766 510.7383 276.3666V194.8266C510.7383 174.3166 499.0283 161.6166 479.4883 161.6166ZM180.1783 353.5166C160.1583 353.5166 148.4383 366.2066 148.4383 386.2266V468.2666C148.4383 488.2766 160.1583 500.9766 180.1783 500.9766H642.0883C661.6183 500.9766 673.3383 488.2766 673.3383 467.7766V386.2266C673.3383 366.2066 661.6183 353.5166 642.0883 353.5166ZM180.1783 545.4066C160.1583 545.4066 148.4383 557.6166 148.4383 577.6366V660.1566C148.4383 680.6666 160.1583 692.8666 180.1783 692.8666H561.5283C581.0583 692.8666 592.7783 680.6666 592.7783 660.1566V577.6366C592.7783 557.6166 581.0583 545.4066 561.5283 545.4066ZM180.1783 736.8166C160.1583 736.8166 148.4383 749.5166 148.4383 770.0166V851.5666C148.4383 872.0666 160.1583 884.7666 180.1783 884.7666H400.8783C419.9183 884.7666 432.1283 872.0666 432.1283 851.5666V770.0166C432.1283 749.5166 419.9183 736.8166 400.8783 736.8166Z"/>
</svg>