<?xml version="1.0" encoding="UTF-8" standalone="no"?>
<svg xmlns="http://www.w3.org/2000/svg"
     width="996.09375" height="996.09375"
     viewBox="0 0 996.09375 996.09375"
     fill="currentColor">
  <path d="M498.0477 996.0977C770.5077 996.0977 996.0977 770.5077 996.0977 498.0477C996.0977 226.0777 770.0177 -0.0023 497.5577 -0.0023C225.5877 -0.0023 -0.0023 226.0777 -0.0023 498.0477C-0.0023 770.5077 226.0777 996.0977 498.0477 996.0977ZM226.5577 687.9877V282.7177C226.5577 267.5777 239.7477 254.3977 254.8877 254.3977C270.0177 254.3977 282.7177 267.5777 282.7177 282.7177V333.4977L381.3477 433.1077C384.7677 436.0377 386.2277 436.0377 389.1577 433.1077L477.0477 342.7777C488.7677 330.5677 501.9577 324.7077 516.1177 324.7077C530.7577 324.7077 543.9477 331.0577 555.1777 342.7777L649.8977 439.4577L685.5477 402.8277C697.7577 390.1377 716.7977 396.9677 721.6777 416.0177L758.2977 561.0377C762.6977 577.1477 748.0477 591.3077 731.4477 586.9177L586.9177 550.7777C568.8477 545.8977 561.5277 527.3477 574.2177 515.1377L609.8677 479.4877L520.0177 388.1877C518.0677 386.2277 515.1377 385.7377 512.2077 388.1877L423.8277 479.0077C412.1077 491.2077 399.4177 497.0677 385.2577 497.0677C370.1177 497.0677 357.9077 490.7177 346.1877 479.0077L282.7177 414.5477V666.9877C282.7177 670.4077 284.1777 671.8777 287.1077 671.8777H746.0977C761.2277 671.8777 773.9277 684.5677 773.9277 700.1977C773.9277 715.3277 761.2277 728.0277 746.0977 728.0277H266.1177C242.1877 728.0277 226.5577 712.3977 226.5577 687.9877Z"/>
</svg>