<?xml version="1.0" encoding="UTF-8" standalone="no"?>
<svg xmlns="http://www.w3.org/2000/svg"
     width="996.09375" height="996.09375"
     viewBox="0 0 996.09375 996.09375"
     fill="currentColor">
  <path d="M498.0477 996.0977C770.5077 996.0977 996.0977 770.5077 996.0977 498.0477C996.0977 226.0777 770.0177 -0.0023 497.5577 -0.0023C225.5877 -0.0023 -0.0023 226.0777 -0.0023 498.0477C-0.0023 770.5077 226.0777 996.0977 498.0477 996.0977ZM224.1177 687.9877V282.7177C224.1177 267.5777 236.8177 254.3977 251.9577 254.3977C267.0877 254.3977 280.2777 267.5777 280.2777 282.7177V483.8877L343.7477 419.9177C355.4677 408.2077 367.1877 401.8577 382.3277 401.8577C396.9777 401.8577 409.6677 407.7177 421.3877 419.9177L510.2577 511.2277C512.6977 514.1577 514.6477 514.1577 517.0877 510.7377L607.4177 419.4377L571.2877 383.7877C558.5977 371.5777 566.4077 352.5377 584.4777 348.1477L728.5177 312.0077C745.1177 307.6177 760.2577 321.7777 755.8577 337.8877L719.2377 482.9077C714.3577 501.9577 695.3077 508.7877 683.1077 496.0977L647.4577 459.4677L552.7377 556.1477C541.0177 567.8677 527.8277 574.2177 513.1877 574.2177C499.0277 574.2177 486.3277 568.3577 474.1177 556.1477L386.2277 465.8177C383.7877 462.8877 381.3477 462.8877 378.4177 465.8177L280.2777 564.4577V666.9877C280.2777 670.4077 281.2477 671.8777 284.1777 671.8777H743.1677C758.2977 671.8777 771.4877 684.5677 771.4877 700.1977C771.4877 715.3277 758.2977 728.0277 743.1677 728.0277H263.6677C239.7477 728.0277 224.1177 712.3977 224.1177 687.9877Z"/>
</svg>