<?xml version="1.0" encoding="UTF-8" standalone="no"?>
<svg xmlns="http://www.w3.org/2000/svg"
     width="996.09375" height="996.09375"
     viewBox="0 0 996.09375 996.09375"
     fill="currentColor">
  <path d="M498.0477 996.0959C770.5077 996.0959 996.0977 770.0159 996.0977 498.0459C996.0977 225.5859 770.0177 -0.0041 497.5577 -0.0041C225.5877 -0.0041 -0.0023 225.5859 -0.0023 498.0459C-0.0023 770.0159 226.0777 996.0959 498.0477 996.0959ZM498.0477 913.0859C267.5777 913.0859 83.4977 728.5159 83.4977 498.0459C83.4977 267.5759 267.0877 83.0059 497.5577 83.0059C728.0277 83.0059 913.0877 267.5759 913.0877 498.0459C913.0877 728.5159 728.5177 913.0859 498.0477 913.0859ZM234.3777 682.1259C234.3777 705.0759 249.5077 720.2159 272.9477 720.2159H738.2777C752.9277 720.2159 765.1377 708.0059 765.1377 693.3559C765.1377 678.7059 752.9277 666.5059 738.2777 666.5059H289.5477C288.5777 666.5059 288.5777 666.9959 288.5777 665.5259V491.2059H604.4877V540.5259C604.4877 557.6159 623.0477 565.9159 638.6677 556.6359L762.2077 481.9359C776.3677 473.6359 776.3677 453.6159 762.6977 445.7959L638.1877 371.5859C622.0677 362.3059 604.4877 369.6259 604.4877 386.2259V437.0159H288.5777V288.5759C288.5777 273.9259 276.3677 261.7159 261.7177 261.7159C247.0677 261.7159 234.3777 273.9259 234.3777 288.5759Z"/>
</svg>