<?xml version="1.0" encoding="UTF-8" standalone="no"?>
<svg xmlns="http://www.w3.org/2000/svg"
     width="996.09375" height="996.09375"
     viewBox="0 0 996.09375 996.09375"
     fill="currentColor">
  <path d="M498.0477 996.0959C770.5077 996.0959 996.0977 770.0159 996.0977 498.0459C996.0977 225.5859 770.0177 -0.0041 497.5577 -0.0041C225.5877 -0.0041 -0.0023 225.5859 -0.0023 498.0459C-0.0023 770.0159 226.0777 996.0959 498.0477 996.0959ZM498.0477 913.0859C267.5777 913.0859 83.4977 728.5159 83.4977 498.0459C83.4977 276.8559 252.9277 97.6559 470.7077 83.9859V504.8859C470.7077 515.6259 473.1477 524.4159 482.4177 533.2059L768.5577 813.4759C696.2877 875.4859 601.5577 913.0859 498.0477 913.0859ZM536.1377 455.5659V84.4759C668.4577 96.6759 782.2277 169.9259 849.1177 275.8759ZM563.4777 515.6259L879.8877 333.9859C901.3677 384.2759 913.0877 439.4559 913.0877 498.0459C913.0877 600.0959 876.9577 693.3559 816.4077 765.6259Z"/>
</svg>