<?xml version="1.0" encoding="UTF-8" standalone="no"?>
<svg xmlns="http://www.w3.org/2000/svg"
     width="821.2890625" height="1046.38671875"
     viewBox="0 0 821.2890625 1046.38671875"
     fill="currentColor">
  <path d="M149.8983 1046.3883H782.2283C803.7083 1046.3883 821.2883 1029.2983 821.2883 1007.3283C821.2883 990.2383 809.5683 975.0983 793.9483 969.7283C732.4183 945.3083 719.7283 865.7183 780.2783 804.6883C798.8283 786.1283 821.2883 762.2083 821.2883 713.3783V153.3183C821.2883 51.7583 770.9983 -0.0017 669.9183 -0.0017H151.3683C50.2883 -0.0017 -0.0017 51.2683 -0.0017 153.3183V895.5083C-0.0017 996.0983 50.7783 1046.3883 149.8983 1046.3883ZM666.0183 78.6083C716.7983 78.6083 742.6783 105.9583 742.6783 154.7883V702.6383C742.6783 729.0083 727.5383 744.1383 700.1983 744.1383H200.1983V78.6083ZM78.6183 764.1583V154.7883C78.6183 112.3083 98.1483 86.4283 136.2283 80.0783V745.1183C113.7683 747.5583 95.2183 753.9083 78.6183 764.1583ZM333.9883 610.3483C349.1183 610.3483 359.8683 603.0283 366.6983 583.4983L397.4583 493.6483H548.3383L579.0983 583.4983C585.4483 603.0283 596.1883 610.3483 611.8183 610.3483C630.3683 610.3483 642.5783 598.6283 642.5783 581.0583C642.5783 574.7083 641.5983 568.3583 638.1883 559.5683L520.0183 240.7183C511.7183 218.7483 495.6083 207.5183 472.6583 207.5183C449.7083 207.5183 434.0783 218.7483 425.7783 240.7183L307.1283 559.5683C304.1983 568.3583 302.7383 574.7083 302.7383 581.0583C302.7383 598.6283 314.9383 610.3483 333.9883 610.3483ZM414.0583 442.8683L470.6983 279.7883H475.0983L531.2483 442.8683ZM154.2983 967.7783C104.9783 967.7783 78.6183 941.4083 78.6183 895.0183C78.6183 851.0783 109.8683 822.7583 158.6883 822.7583H659.6683C666.0183 822.7583 671.8783 822.2683 676.7583 821.2883C653.8083 872.0683 657.7183 925.7783 683.5983 967.7783Z"/>
</svg>