<?xml version="1.0" encoding="UTF-8" standalone="no"?>
<svg xmlns="http://www.w3.org/2000/svg"
     width="1018.5546875" height="845.21484375"
     viewBox="0 0 1018.5546875 845.21484375"
     fill="currentColor">
  <path d="M288.0883 655.7641C288.0883 681.1541 304.6883 696.2841 331.0583 696.2841H437.4983C463.8683 696.2841 480.4683 681.1541 480.4683 655.7641V40.5241C480.4683 15.1341 463.8683 0.0041 437.4983 0.0041H331.0583C304.6883 0.0041 288.0883 15.1341 288.0883 40.5241ZM537.5983 655.7641C537.5983 681.1541 553.7083 696.2841 580.0783 696.2841H687.0083C712.8883 696.2841 729.4883 681.1541 729.4883 655.7641V145.9941C729.4883 120.1141 712.8883 104.9841 687.0083 104.9841H580.0783C553.7083 104.9841 537.5983 120.1141 537.5983 145.9941ZM39.0583 655.7641C39.0583 681.1541 55.1783 696.2841 82.0283 696.2841H188.4783C214.3583 696.2841 230.9583 681.1541 230.9583 655.7641V251.9541C230.9583 227.0541 214.3583 210.9341 188.4783 210.9341H82.0283C55.1783 210.9341 39.0583 227.0541 39.0583 251.9541ZM786.6183 655.7641C786.6183 681.1541 802.7383 696.2841 829.5883 696.2841H936.0383C962.3983 696.2841 979.0083 681.1541 979.0083 655.7641V354.4941C979.0083 329.1041 962.3983 313.4741 936.0383 313.4741H829.5883C802.7383 313.4741 786.6183 329.1041 786.6183 354.4941ZM-0.0017 806.1541C-0.0017 828.1241 18.0683 845.2141 39.0583 845.2141H979.0083C1000.4883 845.2141 1018.5583 828.1241 1018.5583 806.1541C1018.5583 784.6641 1000.4883 767.0941 979.0083 767.0941H39.0583C18.0683 767.0941 -0.0017 784.6641 -0.0017 806.1541Z"/>
</svg>