<?xml version="1.0" encoding="UTF-8" standalone="no"?>
<svg xmlns="http://www.w3.org/2000/svg"
     width="1240.72265625" height="919.43359375"
     viewBox="0 0 1240.72265625 919.43359375"
     fill="currentColor">
  <path d="M993.1683 919.43H1124.9983C1201.1683 919.43 1240.7183 882.81 1240.7183 810.55V109.37C1240.7183 37.11 1201.1683 0 1124.9983 0H993.1683C917.4783 0 878.4183 37.11 878.4183 109.37V810.55C878.4183 882.81 917.4783 919.43 993.1683 919.43ZM1006.3483 845.7C969.2383 845.7 956.0583 833.01 956.0583 796.39V123.54C956.0583 86.91 969.2383 73.73 1006.3483 73.73H1112.3083C1149.8983 73.73 1163.0883 86.91 1163.0883 123.54V796.39C1163.0883 833.01 1149.8983 845.7 1112.3083 845.7ZM554.1983 919.43H686.0383C762.2083 919.43 801.2683 882.81 801.2683 810.55V251.95C801.2683 179.69 762.2083 142.58 686.0383 142.58H554.1983C478.0283 142.58 438.9683 179.69 438.9683 251.95V810.55C438.9683 882.81 478.0283 919.43 554.1983 919.43ZM567.3783 845.7C529.7883 845.7 516.5983 833.01 516.5983 796.39V266.11C516.5983 229.49 529.7883 216.31 567.3783 216.31H673.3383C710.9383 216.31 723.6283 229.49 723.6283 266.11V796.39C723.6283 833.01 710.9383 845.7 673.3383 845.7ZM115.2383 919.43H246.5783C322.7583 919.43 362.3083 882.81 362.3083 810.55V394.04C362.3083 321.78 322.7583 284.67 246.5783 284.67H115.2383C39.0583 284.67 -0.0017 321.78 -0.0017 394.04V810.55C-0.0017 882.81 39.0583 919.43 115.2383 919.43ZM127.9283 845.7C90.8183 845.7 77.6383 833.01 77.6383 796.39V408.2C77.6383 371.09 90.8183 358.4 127.9283 358.4H233.8883C271.4883 358.4 284.6683 371.09 284.6683 408.2V796.39C284.6683 833.01 271.4883 845.7 233.8883 845.7Z"/>
</svg>