<?xml version="1.0" encoding="UTF-8" standalone="no"?>
<svg xmlns="http://www.w3.org/2000/svg"
     width="996.09375" height="996.09375"
     viewBox="0 0 996.09375 996.09375"
     fill="currentColor">
  <path d="M498.0477 996.0959C770.5077 996.0959 996.0977 770.0159 996.0977 498.0459C996.0977 225.5859 770.0177 -0.0041 497.5577 -0.0041C225.5877 -0.0041 -0.0023 225.5859 -0.0023 498.0459C-0.0023 770.0159 226.0777 996.0959 498.0477 996.0959ZM498.0477 913.0859C267.5777 913.0859 83.4977 728.5159 83.4977 498.0459C83.4977 267.5759 267.0877 83.0059 497.5577 83.0059C728.0277 83.0059 913.0877 267.5759 913.0877 498.0459C913.0877 728.5159 728.5177 913.0859 498.0477 913.0859ZM234.8677 682.1259C234.8677 705.0759 249.9977 720.2159 272.9477 720.2159H738.2777C752.9277 720.2159 765.6277 708.0059 765.6277 693.3559C765.6277 678.7059 752.9277 666.5059 738.2777 666.5059H289.5477C288.5777 666.5059 289.0577 666.9959 289.0577 665.5259V420.8959L350.5877 483.8859C361.8177 495.6059 373.5377 500.9759 388.1877 500.9759C402.3477 500.9759 414.5477 495.6059 425.7777 483.8859L512.2077 395.0159C514.6477 392.0859 516.5977 392.0859 519.0477 395.5059L606.9377 484.3759L571.7777 519.0459C559.5677 530.2759 566.8977 549.3159 584.4777 553.7059L724.1177 588.3759C740.2377 592.7759 754.3977 579.1059 750.4877 563.4759L714.8477 422.8559C709.9577 404.7859 692.3877 398.4359 680.1777 410.1559L645.5077 445.7959L553.2277 352.0459C541.9877 340.3359 529.2977 334.4759 515.1377 334.4759C501.4677 334.4759 489.7477 340.3359 477.5377 352.0459L392.0877 438.9659C389.6477 442.3859 387.2077 442.3859 384.2777 438.9659L289.0577 343.2659V288.5759C289.0577 273.9259 276.3677 261.7159 261.7177 261.7159C247.0677 261.7159 234.8677 273.9259 234.8677 288.5759Z"/>
</svg>