<?xml version="1.0" encoding="UTF-8" standalone="no"?>
<svg xmlns="http://www.w3.org/2000/svg"
     width="980.95703125" height="663.0859375"
     viewBox="0 0 980.95703125 663.0859375"
     fill="currentColor">
  <path d="M228.0283 663.0838C339.3583 663.0838 426.7583 606.9338 474.1183 513.6738H479.0083C520.5083 607.4238 606.4483 663.0838 721.1883 663.0838C840.8183 663.0838 932.1283 611.8138 970.6983 520.0238C974.6083 510.2538 977.5383 500.0038 977.5383 492.1838C977.5383 468.2638 961.4283 452.6338 937.0083 452.6338C922.3683 452.6338 911.6183 458.9838 902.8283 472.1638C858.3983 549.8038 802.7383 583.9838 717.7783 583.9838C595.6983 583.9838 517.5783 493.6538 517.5783 359.3737V353.0238H928.7083C961.4283 353.0238 980.9583 333.0038 980.9583 298.8238C980.9583 123.0438 873.5383 0.0037 716.7983 0.0037C610.8383 0.0037 532.2283 51.7537 490.7183 138.6738H486.8183C461.9183 51.7537 377.4383 0.0037 266.5983 0.0037C161.1283 0.0037 69.8283 49.3138 36.1283 124.5137C28.3183 139.1638 24.4183 154.2938 24.4183 166.9937C24.4183 191.4038 41.0183 207.5238 64.4483 207.5238C82.5183 207.5238 94.7283 200.1938 102.5383 184.0838C135.7383 111.3238 189.4483 80.0738 268.0683 80.0738C363.2783 80.0738 427.2483 140.6237 427.2483 228.0238V281.7338L236.3283 291.9938C83.4983 299.8038 -0.0017 365.2338 -0.0017 474.1238C-0.0017 588.3838 89.3583 663.0838 228.0283 663.0838ZM517.5783 281.7338C524.8983 162.1137 601.0783 79.1037 709.9583 79.1037C817.3783 79.1037 885.7383 160.1537 887.6983 281.7338ZM230.9583 584.9638C146.9683 584.9638 92.2883 538.0838 92.2883 472.6538C92.2883 407.2238 146.4883 369.1438 246.0983 363.2838L427.2483 353.0238V409.6638C427.2483 506.3438 341.3083 584.9638 230.9583 584.9638Z"/>
</svg>