<?xml version="1.0" encoding="UTF-8" standalone="no"?>
<svg xmlns="http://www.w3.org/2000/svg"
     width="996.09375" height="996.09375"
     viewBox="0 0 996.09375 996.09375"
     fill="currentColor">
  <path d="M498.0477 996.0959C770.5077 996.0959 996.0977 770.0159 996.0977 498.0459C996.0977 225.5859 770.0177 -0.0041 497.5577 -0.0041C225.5877 -0.0041 -0.0023 225.5859 -0.0023 498.0459C-0.0023 770.0159 226.0777 996.0959 498.0477 996.0959ZM498.0477 913.0859C267.5777 913.0859 83.4977 728.5159 83.4977 498.0459C83.4977 267.5759 267.0877 83.0059 497.5577 83.0059C728.0277 83.0059 913.0877 267.5759 913.0877 498.0459C913.0877 728.5159 728.5177 913.0859 498.0477 913.0859ZM232.4177 682.1259C232.4177 705.0759 247.5577 720.2159 270.5077 720.2159H735.8377C750.4877 720.2159 763.1877 708.0059 763.1877 693.3559C763.1877 678.7059 750.4877 666.5059 735.8377 666.5059H287.1077C286.1377 666.5059 286.6177 666.0159 286.6177 665.5259V562.4959L381.8377 466.7959C384.7677 463.3759 387.2077 463.3759 389.6477 466.7959L475.0977 554.1959C487.3077 565.4259 499.0277 571.2859 512.6977 571.2859C526.8577 571.2859 539.5477 565.4259 550.7777 554.1959L643.0677 459.9559L677.7377 495.6059C689.9377 507.8159 707.5177 500.9759 712.3977 483.3959L748.0477 342.7759C752.4377 327.1459 737.7977 313.4759 721.6777 317.3859L582.0277 352.0459C564.4577 356.4459 557.1277 375.4859 569.3377 386.7159L604.4877 421.8759L516.5977 510.2559C514.1577 513.6759 512.2077 513.6759 509.7677 510.7459L423.3377 421.8759C412.1077 410.1559 399.8977 404.7859 385.7377 404.7859C371.0977 404.7859 359.3777 410.1559 348.1477 421.8759L286.6177 484.8659V288.5759C286.6177 273.9259 273.9277 261.7159 259.2777 261.7159C244.6277 261.7159 232.4177 273.9259 232.4177 288.5759Z"/>
</svg>