<?xml version="1.0" encoding="UTF-8" standalone="no"?>
<svg xmlns="http://www.w3.org/2000/svg"
     width="1049.8046875" height="902.83203125"
     viewBox="0 0 1049.8046875 902.83203125"
     fill="currentColor">
  <path d="M-0.0017 864.2613C-0.0017 887.6913 15.6283 902.8313 39.0583 902.8313H1010.2583C1031.7383 902.8313 1049.8083 885.7413 1049.8083 863.7713C1049.8083 842.2813 1031.7383 824.7112 1010.2583 824.7112H92.2883C82.0283 824.7112 78.6183 821.2913 78.6183 811.0313V459.9613H706.5383V574.7113C706.5383 599.6113 729.9783 607.9113 752.4383 594.7313L1004.8783 443.3613C1025.3883 431.1513 1024.4183 405.2713 1004.3983 393.0713L751.9483 241.7012C729.4883 229.0013 706.5383 237.3013 706.5383 261.7213V376.4613H78.6183V39.0612C78.6183 18.0712 61.0383 0.0013 39.5483 0.0013C17.5783 0.0013 -0.0017 18.0712 -0.0017 39.0612Z"/>
</svg>