<?xml version="1.0" encoding="UTF-8" standalone="no"?>
<svg xmlns="http://www.w3.org/2000/svg"
     width="821.2890625" height="1046.875"
     viewBox="0 0 821.2890625 1046.875"
     fill="currentColor">
  <path d="M-0.0017 894.0466C-0.0017 996.0966 50.2883 1046.8766 151.3683 1046.8766H669.9183C770.9983 1046.8766 821.2883 996.0966 821.2883 894.0466V153.3166C821.2883 51.7566 770.9983 -0.0034 669.9183 -0.0034H151.3683C50.2883 -0.0034 -0.0017 51.7566 -0.0017 153.3166ZM356.4483 762.2066C339.3583 762.2066 326.1683 755.3666 312.9883 738.2766L190.4283 588.3766C183.1083 578.6166 179.1983 567.3866 179.1983 556.6366C179.1983 534.1766 195.7983 516.1166 218.2583 516.1166C231.9383 516.1166 243.1683 520.9966 254.8783 537.1066L354.0083 664.5466L562.9883 330.0766C571.7783 314.9366 584.4683 307.6166 597.6583 307.6166C619.1383 307.6166 639.1583 322.2666 639.1583 344.7266C639.1583 355.4666 632.8083 367.1866 626.4683 376.9566L396.9683 738.2766C387.2083 754.3966 373.0483 762.2066 356.4483 762.2066Z"/>
</svg>