<?xml version="1.0" encoding="UTF-8" standalone="no"?>
<svg xmlns="http://www.w3.org/2000/svg"
     width="1151.3671875" height="898.92578125"
     viewBox="0 0 1151.3671875 898.92578125"
     fill="currentColor">
  <path d="M153.3183 898.9278H998.0483C1100.5883 898.9278 1151.3683 848.6378 1151.3683 748.0478V151.3678C1151.3683 50.7778 1100.5883 -0.0022 998.0483 -0.0022H153.3183C51.2683 -0.0022 -0.0017 50.7778 -0.0017 151.3678V748.0478C-0.0017 848.6378 51.2683 898.9278 153.3183 898.9278ZM154.2983 820.3078C105.4683 820.3078 78.6183 794.4378 78.6183 743.6478V155.7578C78.6183 104.9778 105.4683 78.6178 154.2983 78.6178H997.0683C1045.4083 78.6178 1072.7583 104.9778 1072.7583 155.7578V743.6478C1072.7583 794.4378 1045.4083 820.3078 997.0683 820.3078ZM522.9483 681.1478C539.0583 681.1478 552.7383 673.3378 562.0083 658.2078L785.6483 307.1278C791.0183 297.3678 797.3683 286.6178 797.3683 275.8778C797.3683 253.9078 777.8283 239.7478 757.3283 239.7478C744.6283 239.7478 732.4183 247.5578 723.6283 261.7178L520.9983 586.9178L424.3183 462.3978C413.0883 446.7778 401.8583 442.8678 388.6683 442.8678C367.1883 442.8678 351.0783 459.9578 351.0783 481.4478C351.0783 492.1878 354.9783 502.4378 362.3083 511.7178L480.9583 658.2078C493.6483 674.3178 506.3483 681.1478 522.9483 681.1478Z"/>
</svg>