<?xml version="1.0" encoding="UTF-8" standalone="no"?>
<svg xmlns="http://www.w3.org/2000/svg"
     width="1151.3671875" height="898.92578125"
     viewBox="0 0 1151.3671875 898.92578125"
     fill="currentColor">
  <path d="M153.3183 898.9278H998.0483C1100.5883 898.9278 1151.3683 848.6378 1151.3683 748.0478V151.3678C1151.3683 50.7778 1100.5883 -0.0022 998.0483 -0.0022H153.3183C51.2683 -0.0022 -0.0017 50.7778 -0.0017 151.3678V748.0478C-0.0017 848.6378 51.2683 898.9278 153.3183 898.9278ZM521.4883 688.4778C504.3983 688.4778 491.2083 681.6378 478.0283 664.5478L355.9583 514.1578C348.1483 504.3978 344.2383 493.6478 344.2383 482.4178C344.2383 460.4478 360.8383 442.3778 383.2983 442.3778C396.9683 442.3778 408.1983 446.7778 419.9183 462.8878L519.5283 590.8178L728.0283 255.8578C736.8183 241.2078 749.5083 233.3978 762.6983 233.3978C784.1783 233.3978 804.1983 248.0478 804.1983 270.9978C804.1983 281.7378 797.8483 292.9678 791.9883 303.2178L562.0083 664.5478C552.2483 680.6678 538.0883 688.4778 521.4883 688.4778Z"/>
</svg>