<?xml version="1.0" encoding="UTF-8" standalone="no"?>
<svg xmlns="http://www.w3.org/2000/svg"
     width="1076.171875" height="1013.18359375"
     viewBox="0 0 1076.171875 1013.18359375"
     fill="currentColor">
  <path d="M290.0383 1013.1819C309.0783 1013.1819 323.2383 1003.4219 346.1883 981.9319L522.4583 820.8019H852.5383C998.0483 820.8019 1076.1683 740.7219 1076.1683 597.6519V223.6319C1076.1683 80.5619 998.0483 0.0019 852.5383 0.0019H223.6283C78.1283 0.0019 -0.0017 80.0819 -0.0017 223.6319V597.6519C-0.0017 741.2119 78.1283 820.8019 223.6283 820.8019H246.5783V962.8919C246.5783 993.1619 262.2083 1013.1819 290.0383 1013.1819ZM483.8883 648.9219C466.7983 648.9219 453.6183 642.0919 440.4283 625.0019L317.8683 474.6119C310.5483 464.8419 306.6383 454.1019 306.6383 442.8719C306.6383 420.9019 323.2383 402.8319 345.6983 402.8319C359.3783 402.8319 370.6083 407.2219 382.3283 423.3419L481.4483 551.2719L690.4283 216.3119C699.2183 201.6619 711.9183 193.8519 725.0983 193.8519C746.5783 193.8519 766.5983 208.4919 766.5983 231.4419C766.5983 242.1919 760.2583 253.9019 753.9083 263.6719L524.4183 625.0019C514.6483 641.1119 500.4883 648.9219 483.8883 648.9219Z"/>
</svg>