<?xml version="1.0" encoding="UTF-8" standalone="no"?>
<svg xmlns="http://www.w3.org/2000/svg"
     width="1076.171875" height="1010.25390625"
     viewBox="0 0 1076.171875 1010.25390625"
     fill="currentColor">
  <path d="M300.2883 1010.2519C324.2183 1010.2519 340.8183 997.5619 370.6083 971.1919L539.0583 821.2919H852.5383C998.0483 821.2919 1076.1683 740.7219 1076.1683 597.6519V223.6319C1076.1683 80.5619 998.0483 0.0019 852.5383 0.0019H223.6283C78.1283 0.0019 -0.0017 80.0819 -0.0017 223.6319V597.6519C-0.0017 741.2119 78.1283 821.2919 223.6283 821.2919H247.0683V948.2419C247.0683 985.8419 266.1183 1010.2519 300.2883 1010.2519ZM320.3083 920.9019V779.2919C320.3083 752.9319 310.0583 742.6719 283.6883 742.6719H223.6283C124.9983 742.6719 78.6183 692.3819 78.6183 597.1719V223.6319C78.6183 128.4219 124.9983 78.6119 223.6283 78.6119H852.5383C950.6883 78.6119 997.5583 128.4219 997.5583 223.6319V597.1719C997.5583 692.3819 950.6883 742.6719 852.5383 742.6719H536.1283C508.7883 742.6719 495.1183 746.5819 476.5583 765.6219ZM485.3483 642.5819C501.4683 642.5819 515.1383 634.7619 524.4183 619.6319L747.5583 268.5519C753.4183 259.2819 759.7683 248.0419 759.7683 237.3019C759.7683 215.3319 740.2383 201.1719 719.7283 201.1719C707.0283 201.1719 694.8283 208.9819 686.0383 223.1419L482.9083 548.3419L386.7183 423.8319C375.4883 408.2019 364.2583 404.2919 351.0783 404.2919C329.5883 404.2919 313.4783 421.3819 313.4783 442.8719C313.4783 453.6119 317.3783 463.8719 324.2183 473.1419L443.3583 619.6319C456.0583 635.7419 468.7483 642.5819 485.3483 642.5819Z"/>
</svg>