<?xml version="1.0" encoding="UTF-8" standalone="no"?>
<svg xmlns="http://www.w3.org/2000/svg"
     width="1094.7265625" height="986.328125"
     viewBox="0 0 1094.7265625 986.328125"
     fill="currentColor">
  <path d="M210.4483 421.3866C325.1983 421.3866 420.8983 325.1966 420.8983 210.4466C420.8983 95.2166 325.1983 -0.0034 210.4483 -0.0034C95.2183 -0.0034 -0.0017 95.2166 -0.0017 210.4466C-0.0017 325.1966 95.6983 421.3866 210.4483 421.3866ZM210.4483 350.0966C134.7683 350.0966 71.2883 286.1366 71.2883 210.4466C71.2883 134.7666 135.2583 70.7966 210.4483 70.7966C285.6483 70.7966 349.6083 135.2566 349.6083 210.4466C349.6083 286.1366 285.6483 350.0966 210.4483 350.0966ZM566.8983 248.0466H1057.1283C1077.6383 248.0466 1094.7283 231.9366 1094.7283 210.9366C1094.7283 190.4266 1077.6383 174.3166 1057.1283 174.3166H566.8983C546.3883 174.3166 529.7883 190.4266 529.7883 210.9366C529.7883 231.9366 546.3883 248.0466 566.8983 248.0466ZM210.4483 986.3266C325.1983 986.3266 420.8983 890.6266 420.8983 775.8766C420.8983 660.1566 325.1983 564.9366 210.4483 564.9366C95.2183 564.9366 -0.0017 660.6466 -0.0017 775.8766C-0.0017 890.6266 95.6983 986.3266 210.4483 986.3266ZM210.4483 915.0366C134.7683 915.0366 71.2883 851.0766 71.2883 775.8766C71.2883 700.1966 135.2583 636.2266 210.4483 636.2266C285.6483 636.2266 349.6083 700.1966 349.6083 775.8766C349.6083 851.0766 285.6483 915.0366 210.4483 915.0366ZM566.8983 812.4966H1057.1283C1077.6383 812.4966 1094.7283 796.3866 1094.7283 775.8766C1094.7283 754.8866 1077.6383 738.7666 1057.1283 738.7666H566.8983C546.3883 738.7666 529.7883 754.8866 529.7883 775.8766C529.7883 796.3866 546.3883 812.4966 566.8983 812.4966Z"/>
</svg>