<?xml version="1.0" encoding="UTF-8" standalone="no"?>
<svg xmlns="http://www.w3.org/2000/svg"
     width="798.828125" height="970.703125"
     viewBox="0 0 798.828125 970.703125"
     fill="currentColor">
  <path d="M399.4097 970.7081C407.2297 970.7081 419.4297 967.7781 431.6397 961.4281C709.4697 815.9181 798.8297 743.1681 798.8297 567.8681V199.7081C798.8297 149.4181 777.3397 133.2981 736.3297 116.2081C679.1997 92.7781 496.5797 26.3681 439.9397 6.8381C426.7597 2.4381 413.0897 -0.0019 399.4097 -0.0019C385.7397 -0.0019 372.0697 2.9281 359.3797 6.8381C302.2497 25.3881 119.6297 93.2581 62.4997 116.2081C21.9697 132.8081 -0.0003 149.4181 -0.0003 199.7081V567.8681C-0.0003 743.1681 94.2397 807.6181 367.1897 961.4281C379.8797 968.2581 391.5997 970.7081 399.4097 970.7081ZM344.7297 705.5681C328.1297 705.5681 314.4497 699.2181 301.7597 682.1281L179.1997 531.7381C171.8797 521.9681 167.4797 510.7381 167.4797 499.9981C167.4797 477.5381 184.5697 459.4681 207.0297 459.4681C220.6997 459.4681 231.4497 464.3581 243.6497 480.4681L342.7697 608.3981L551.2697 273.4381C560.5497 258.2981 573.2397 250.9781 586.4297 250.9781C607.4197 250.9781 627.4397 265.6281 627.4397 288.0881C627.4397 299.3181 621.5797 310.5481 615.2297 320.3081L385.7397 682.1281C375.4897 697.7581 361.3297 705.5681 344.7297 705.5681Z"/>
</svg>