<?xml version="1.0" encoding="UTF-8" standalone="no"?>
<svg xmlns="http://www.w3.org/2000/svg"
     width="996.09375" height="996.09375"
     viewBox="0 0 996.09375 996.09375"
     fill="currentColor">
  <path d="M498.0477 996.0959C770.5077 996.0959 996.0977 770.0159 996.0977 498.0459C996.0977 225.5859 770.0177 -0.0041 497.5577 -0.0041C225.5877 -0.0041 -0.0023 225.5859 -0.0023 498.0459C-0.0023 770.0159 226.0777 996.0959 498.0477 996.0959ZM249.0277 615.7259C235.3477 602.0459 235.8377 578.1259 250.9777 562.4959L448.2377 352.5359C479.9777 319.3359 516.5977 319.3359 548.3377 352.5359L745.6077 562.4959C761.2277 578.1259 761.7177 602.0459 747.5577 615.7259C731.9377 631.8359 707.5177 631.8359 693.3577 616.6959L498.5377 410.1559L303.2277 616.6959C289.0577 631.8359 264.6477 631.8359 249.0277 615.7259Z"/>
</svg>