<?xml version="1.0" encoding="UTF-8" standalone="no"?>
<svg xmlns="http://www.w3.org/2000/svg"
     width="242.67578125" height="870.60546875"
     viewBox="0 0 242.67578125 870.60546875"
     fill="currentColor">
  <path d="M92.2883 839.3525L223.1483 506.3525C231.9383 483.8825 242.6783 456.5425 242.6783 435.0625C242.6783 413.5725 231.9383 386.2325 223.1483 363.7725L92.2883 30.7625C84.9583 11.7225 68.3583 0.0025 50.2883 0.0025C21.4883 0.0025 -0.0017 20.9925 -0.0017 49.3125C-0.0017 63.4725 8.2983 83.0125 12.6983 95.7025L145.9983 435.0625L12.6983 774.4125C8.2983 787.1125 -0.0017 806.1525 -0.0017 820.8025C-0.0017 849.6125 21.4883 870.6025 50.2883 870.6025C68.3583 870.6025 84.9583 858.4025 92.2883 839.3525Z"/>
</svg>