<?xml version="1.0" encoding="UTF-8" standalone="no"?>
<svg xmlns="http://www.w3.org/2000/svg"
     width="563.96484375" height="848.6328125"
     viewBox="0 0 563.96484375 848.6328125"
     fill="currentColor">
  <path d="M-0.0017 803.7155C-0.0017 829.1055 19.5283 848.6355 44.9183 848.6355C57.1283 848.6355 67.8683 844.2355 76.6583 834.9655L463.3783 457.0355C470.2183 450.6855 474.6083 442.8755 476.5583 434.5655V806.1555C476.5583 831.0555 494.6283 848.6355 520.0183 848.6355C545.4083 848.6355 563.9683 831.0555 563.9683 806.1555V43.4555C563.9683 18.0655 545.4083 -0.0045 520.0183 -0.0045C494.6283 -0.0045 476.5583 18.0655 476.5583 43.4555V413.5755C474.6083 405.2755 470.2183 397.9455 463.8683 391.6055L76.6583 13.1855C67.3783 4.8855 57.1283 -0.0045 44.4383 -0.0045C19.5283 -0.0045 -0.0017 19.0455 -0.0017 44.9255C-0.0017 57.1255 4.3983 68.3555 13.1883 76.6555L368.6483 424.3155L13.1883 771.9755C4.3983 780.7655 -0.0017 791.5055 -0.0017 803.7155Z"/>
</svg>