<?xml version="1.0" encoding="UTF-8" standalone="no"?>
<svg xmlns="http://www.w3.org/2000/svg"
     width="996.09375" height="996.09375"
     viewBox="0 0 996.09375 996.09375"
     fill="currentColor">
  <path d="M498.0477 996.0959C770.5077 996.0959 996.0977 770.0159 996.0977 498.0459C996.0977 225.5859 770.0177 -0.0041 497.5577 -0.0041C225.5877 -0.0041 -0.0023 225.5859 -0.0023 498.0459C-0.0023 770.0159 226.0777 996.0959 498.0477 996.0959ZM382.3277 747.5559C367.1877 731.9359 367.1877 707.5159 382.3277 693.3559L589.3577 498.5359L382.3277 304.1959C366.6977 289.5459 367.1877 264.6459 382.8077 249.9959C397.4577 235.8359 420.8977 237.3059 436.5277 251.9559L645.9977 448.7259C674.8077 475.5859 674.3177 521.9759 645.9977 548.3359L436.5277 745.6059C422.3677 759.2759 395.9977 760.2559 382.3277 747.5559Z"/>
</svg>