<?xml version="1.0" encoding="UTF-8" standalone="no"?>
<svg xmlns="http://www.w3.org/2000/svg"
     width="898.92578125" height="898.92578125"
     viewBox="0 0 898.92578125 898.92578125"
     fill="currentColor">
  <path d="M153.3183 898.9295H745.6083C848.1483 898.9295 898.9283 848.1495 898.9283 747.5595V151.3695C898.9283 50.7795 848.1483 -0.0005 745.6083 -0.0005H153.3183C51.2683 -0.0005 -0.0017 50.2895 -0.0017 151.3695V747.5595C-0.0017 848.6295 51.2683 898.9295 153.3183 898.9295ZM546.3883 690.4295C533.6883 702.6395 508.2983 701.6595 494.6283 688.9695L291.5083 497.0695C263.6683 471.6795 263.6683 426.7595 291.5083 401.3695L494.6283 209.4695C509.7683 195.3095 532.2283 194.8195 545.8983 208.0095C561.0383 222.1695 561.5283 246.5795 546.8783 260.2495L346.1883 448.7295L546.8783 638.1795C561.0383 651.8595 561.5283 675.2895 546.3883 690.4295Z"/>
</svg>