<?xml version="1.0" encoding="UTF-8" standalone="no"?>
<svg xmlns="http://www.w3.org/2000/svg"
     width="870.60546875" height="242.1875"
     viewBox="0 0 870.60546875 242.1875"
     fill="currentColor">
  <path d="M30.7583 92.2898L364.2583 222.6598C386.7183 231.4498 413.5783 242.1898 435.5483 242.1898C457.0283 242.1898 484.3783 231.4498 506.8383 222.6598L839.8483 92.2898C858.3983 84.9598 870.6083 68.3598 870.6083 50.2898C870.6083 21.4798 849.6083 -0.0002 821.2883 -0.0002C806.6383 -0.0002 787.1083 8.2998 774.8983 12.6998L435.5483 145.9998L95.6983 12.6998C83.4983 8.2998 64.4483 -0.0002 49.3183 -0.0002C20.9983 -0.0002 -0.0017 21.4798 -0.0017 50.2898C-0.0017 68.3598 12.2083 84.9598 30.7583 92.2898Z"/>
</svg>