<?xml version="1.0" encoding="UTF-8" standalone="no"?>
<svg xmlns="http://www.w3.org/2000/svg"
     width="898.92578125" height="898.92578125"
     viewBox="0 0 898.92578125 898.92578125"
     fill="currentColor">
  <path d="M153.3183 898.9295H745.6083C848.1483 898.9295 898.9283 848.1495 898.9283 747.5595V151.3695C898.9283 50.7795 848.1483 -0.0005 745.6083 -0.0005H153.3183C51.2683 -0.0005 -0.0017 50.2895 -0.0017 151.3695V747.5595C-0.0017 848.6295 51.2683 898.9295 153.3183 898.9295ZM154.2983 820.3095C105.4683 820.3095 78.6183 794.4295 78.6183 743.6495V155.2695C78.6183 104.4895 105.4683 78.6095 154.2983 78.6095H744.6283C792.9683 78.6095 820.3083 104.4895 820.3083 155.2695V743.6495C820.3083 794.4295 792.9683 820.3095 744.6283 820.3095ZM546.3883 690.4295C561.5283 675.2895 561.0383 651.8595 546.8783 638.1795L346.1883 448.7295L546.8783 260.2495C561.5283 246.5795 561.0383 222.1695 545.8983 208.0095C532.2283 194.8195 509.7683 195.3095 494.6283 209.4695L291.5083 401.3695C263.6683 426.7595 263.6683 471.6795 291.5083 497.0695L494.6283 688.9695C508.2983 701.6595 533.6883 702.6395 546.3883 690.4295Z"/>
</svg>