<?xml version="1.0" encoding="UTF-8" standalone="no"?>
<svg xmlns="http://www.w3.org/2000/svg"
     width="996.09375" height="996.09375"
     viewBox="0 0 996.09375 996.09375"
     fill="currentColor">
  <path d="M498.0477 996.0959C770.5077 996.0959 996.0977 770.0159 996.0977 498.0459C996.0977 225.5859 770.0177 -0.0041 497.5577 -0.0041C225.5877 -0.0041 -0.0023 225.5859 -0.0023 498.0459C-0.0023 770.0159 226.0777 996.0959 498.0477 996.0959ZM594.7277 739.7459C582.0277 751.9559 556.6377 750.9759 542.9677 738.2859L339.8477 546.3859C312.0077 520.9959 312.0077 476.0759 339.8477 450.6859L542.9677 258.7859C558.1077 244.6259 580.5677 244.1359 594.2377 257.3259C609.3777 271.4859 609.8677 295.8959 595.2177 309.5659L394.5277 498.0459L595.2177 687.4959C609.3777 701.1759 609.8677 724.6059 594.7277 739.7459Z"/>
</svg>