<?xml version="1.0" encoding="UTF-8" standalone="no"?>
<svg xmlns="http://www.w3.org/2000/svg"
     width="1151.3671875" height="898.92578125"
     viewBox="0 0 1151.3671875 898.92578125"
     fill="currentColor">
  <path d="M153.3183 898.9278H998.0483C1100.5883 898.9278 1151.3683 848.6378 1151.3683 748.0478V151.3678C1151.3683 50.7778 1100.5883 -0.0022 998.0483 -0.0022H153.3183C51.2683 -0.0022 -0.0017 50.7778 -0.0017 151.3678V748.0478C-0.0017 848.6378 51.2683 898.9278 153.3183 898.9278ZM78.6183 155.7578C78.6183 104.9778 105.4683 78.6178 154.2983 78.6178H336.9183L78.6183 337.3978ZM573.7283 178.2178C423.3383 178.2178 301.7583 299.8078 301.7583 449.7078C301.7583 460.9378 302.7383 471.6778 303.7083 482.4178L78.6183 708.0078V441.4078L441.4083 78.6178H707.5183L606.4483 180.1778C595.6983 178.7078 584.4683 178.2178 573.7283 178.2178ZM997.0683 78.6178C1024.4183 78.6178 1044.9183 86.9178 1057.6183 103.5178L821.7783 339.3578C794.9183 278.8078 747.0683 230.4678 687.4983 203.1278L811.5283 78.6178ZM573.7283 721.6778C723.6283 721.6778 845.2183 600.0978 845.2183 449.7078C845.2183 439.9378 844.7283 429.6878 843.7483 419.9178L1072.7583 190.9178V457.0278L709.4683 820.3078H443.3583L543.9483 719.7278C553.7083 721.1878 563.4783 721.6778 573.7283 721.6778ZM573.7283 658.6878C457.5183 658.6878 364.7483 565.9178 364.7483 449.7078C364.7483 333.4978 457.5183 241.2078 573.7283 241.2078C689.9383 241.2078 782.2283 333.4978 782.2283 449.7078C782.2283 565.9178 689.9383 658.6878 573.7283 658.6878ZM1072.7583 743.6478C1072.7583 794.4378 1045.4083 820.3078 997.0683 820.3078H813.9683L1072.7583 561.5278ZM154.2983 820.3078C126.9483 820.3078 106.4483 812.4978 93.7483 795.8978L326.6583 563.4778C354.0083 623.0478 402.3483 670.8978 462.3983 697.7578L339.3583 820.3078Z"/>
</svg>