<?xml version="1.0" encoding="UTF-8" standalone="no"?>
<svg xmlns="http://www.w3.org/2000/svg"
     width="1135.25390625" height="1157.71484375"
     viewBox="0 0 1135.25390625 1157.71484375"
     fill="currentColor">
  <path d="M567.3877 425.2906C684.0777 425.2906 780.2777 329.1006 780.2777 212.4006C780.2777 95.7006 684.0777 0.0006 567.3877 0.0006C450.1977 0.0006 354.4877 95.7006 354.4877 212.4006C354.4877 329.1006 450.1977 425.2906 567.3877 425.2906ZM567.3877 348.1406C490.7277 348.1406 430.6677 288.5706 430.6677 212.4006C430.6677 136.2306 490.7277 74.7106 567.3877 74.7106C644.0477 74.7106 703.6177 136.2306 703.6177 212.4006C703.6177 288.5706 644.0477 348.1406 567.3877 348.1406ZM922.8477 791.5006C1039.0577 791.5006 1135.2577 695.3106 1135.2577 578.6106C1135.2577 462.4006 1039.0577 366.2106 922.8477 366.2106C805.1777 366.2106 709.4777 462.4006 709.4777 578.6106C709.4777 695.3106 805.1777 791.5006 922.8477 791.5006ZM212.8877 791.5006C329.5877 791.5006 425.7777 695.3106 425.7777 578.6106C425.7777 462.4006 329.5877 366.2106 212.8877 366.2106C95.2177 366.2106 -0.0023 462.4006 -0.0023 578.6106C-0.0023 695.3106 95.2177 791.5006 212.8877 791.5006ZM922.8477 714.8406C845.7077 714.8406 786.1377 655.2706 786.1377 578.6106C786.1377 502.4406 845.7077 440.9206 922.8477 440.9206C999.0277 440.9206 1058.5977 502.4406 1058.5977 578.6106C1058.5977 655.2706 999.0277 714.8406 922.8477 714.8406ZM567.3877 1157.7106C684.0777 1157.7106 780.2777 1061.5206 780.2777 944.8206C780.2777 828.6106 684.0777 732.4206 567.3877 732.4206C450.1977 732.4206 354.4877 828.6106 354.4877 944.8206C354.4877 1061.5206 450.1977 1157.7106 567.3877 1157.7106ZM567.3877 1081.0506C490.7277 1081.0506 430.6677 1021.4806 430.6677 944.8206C430.6677 869.1406 490.7277 807.1306 567.3877 807.1306C644.0477 807.1306 703.6177 869.1406 703.6177 944.8206C703.6177 1021.4806 644.0477 1081.0506 567.3877 1081.0506Z"/>
</svg>