<?xml version="1.0" encoding="UTF-8" standalone="no"?>
<svg xmlns="http://www.w3.org/2000/svg"
     width="1007.8125" height="933.10546875"
     viewBox="0 0 1007.8125 933.10546875"
     fill="currentColor">
  <path d="M324.7077 291.5059C404.7877 291.5059 470.7077 225.0959 470.7077 145.9959C470.7077 66.4059 404.7877 -0.0041 324.7077 -0.0041C245.1177 -0.0041 179.1977 66.4059 179.1977 145.9959C179.1977 224.6059 244.6277 291.5059 324.7077 291.5059ZM683.1077 291.5059C762.6977 291.5059 828.6177 225.0959 828.6177 145.9959C828.6177 66.4059 762.6977 -0.0041 683.1077 -0.0041C603.0277 -0.0041 537.1077 66.4059 537.1077 145.9959C537.1077 225.0959 603.0277 291.5059 683.1077 291.5059ZM145.9977 612.7959C225.5877 612.7959 291.9877 546.3859 291.9877 466.7959C291.9877 387.2059 225.5877 320.7959 145.9977 320.7959C66.4077 320.7959 -0.0023 387.2059 -0.0023 466.7959C-0.0023 545.8959 65.4277 612.7959 145.9977 612.7959ZM503.9077 612.7959C583.4977 612.7959 649.8977 546.3859 649.8977 466.7959C649.8977 387.2059 583.4977 320.7959 503.9077 320.7959C424.3177 320.7959 357.9077 387.2059 357.9077 466.7959C357.9077 546.3859 424.3177 612.7959 503.9077 612.7959ZM861.8177 612.7959C941.4077 612.7959 1007.8077 546.3859 1007.8077 466.7959C1007.8077 387.2059 941.4077 320.7959 861.8177 320.7959C782.2277 320.7959 715.8177 387.2059 715.8177 466.7959C715.8177 546.3859 782.2277 612.7959 861.8177 612.7959ZM324.7077 933.1059C404.7877 933.1059 470.7077 867.1859 470.7077 787.5959C470.7077 708.0059 404.7877 642.0859 324.7077 642.0859C245.1177 642.0859 179.1977 708.0059 179.1977 787.5959C179.1977 866.6959 244.6277 933.1059 324.7077 933.1059ZM683.1077 933.1059C762.6977 933.1059 828.6177 867.1859 828.6177 787.5959C828.6177 708.0059 762.6977 642.0859 683.1077 642.0859C603.0277 642.0859 537.1077 708.0059 537.1077 787.5959C537.1077 867.1859 603.0277 933.1059 683.1077 933.1059Z"/>
</svg>