<?xml version="1.0" encoding="UTF-8" standalone="no"?>
<svg xmlns="http://www.w3.org/2000/svg"
     width="996.09375" height="996.09375"
     viewBox="0 0 996.09375 996.09375"
     fill="currentColor">
  <path d="M498.0477 996.0959C770.5077 996.0959 996.0977 770.0159 996.0977 498.0459C996.0977 225.5859 770.0177 -0.0041 497.5577 -0.0041C225.5877 -0.0041 -0.0023 225.5859 -0.0023 498.0459C-0.0023 770.0159 226.0777 996.0959 498.0477 996.0959ZM498.0477 768.5559C351.5577 768.5559 228.5177 645.0159 228.5177 498.5359C228.5177 351.5659 351.0777 228.5159 498.0477 228.5159C644.5277 228.5159 768.0677 352.0459 768.0677 498.5359C768.0677 645.5059 645.0177 768.5559 498.0477 768.5559ZM498.0477 689.4559C602.5377 689.4559 688.4777 603.0259 688.4777 498.5359C688.4777 394.5359 602.0477 307.6159 498.0477 307.6159C393.5577 307.6159 307.6177 394.0459 307.6177 498.5359C307.6177 602.5359 394.5277 689.4559 498.0477 689.4559Z"/>
</svg>