<?xml version="1.0" encoding="UTF-8" standalone="no"?>
<svg xmlns="http://www.w3.org/2000/svg"
     width="996.09375" height="996.09375"
     viewBox="0 0 996.09375 996.09375"
     fill="currentColor">
  <path d="M498.0477 996.0959C770.5077 996.0959 996.0977 770.0159 996.0977 498.0459C996.0977 225.5859 770.0177 -0.0041 497.5577 -0.0041C225.5877 -0.0041 -0.0023 225.5859 -0.0023 498.0459C-0.0023 770.0159 226.0777 996.0959 498.0477 996.0959ZM322.2677 403.3159C284.1777 403.3159 252.9277 371.5859 252.9277 333.9859C252.9277 295.4059 284.1777 264.1559 322.2677 264.1559C360.3477 264.1559 391.1177 295.4059 391.1177 333.9859C391.1177 371.5859 360.3477 403.3159 322.2677 403.3159ZM498.0477 403.3159C459.9577 403.3159 428.7077 371.5859 428.7077 333.9859C428.7077 294.9259 459.9577 264.6459 498.0477 264.1559C536.1377 264.1559 567.3877 294.9259 567.3877 333.9859C567.3877 371.5859 536.1377 403.3159 498.0477 403.3159ZM673.8277 403.3159C635.7377 403.3159 604.9777 371.5859 604.9777 333.9859C604.9777 294.9259 635.7377 264.6459 673.8277 264.1559C711.9177 264.1559 743.1677 294.9259 743.1677 333.9859C743.1677 371.5859 711.9177 403.3159 673.8277 403.3159ZM322.2677 567.3859C284.1777 567.3859 252.9277 535.6459 252.9277 498.0459C252.9277 459.9559 284.1777 428.7059 322.2677 428.7059C360.3477 428.2259 391.1177 459.9559 391.1177 498.0459C391.1177 535.6459 360.3477 567.3859 322.2677 567.3859ZM498.0477 567.3859C459.9577 567.3859 428.7077 535.6459 428.7077 498.0459C428.7077 459.9559 459.9577 428.7059 498.0477 428.7059C536.1377 428.2259 567.3877 459.9559 567.3877 498.0459C567.3877 535.6459 536.1377 567.3859 498.0477 567.3859ZM673.8277 567.3859C635.7377 567.3859 604.9777 535.6459 604.9777 498.0459C604.9777 459.9559 635.7377 428.7059 673.8277 428.7059C711.9177 428.2259 743.1677 459.9559 743.1677 498.0459C743.1677 535.6459 711.9177 567.3859 673.8277 567.3859ZM322.2677 731.9359C284.1777 731.9359 252.9277 700.6859 252.9277 662.1059C252.9277 624.5159 284.1777 592.7759 322.2677 592.7759C360.3477 592.7759 391.1177 624.5159 391.1177 662.1059C391.1177 701.1759 360.3477 731.9359 322.2677 731.9359ZM498.0477 731.9359C459.9577 731.9359 428.7077 700.6859 428.7077 662.1059C428.7077 624.5159 459.9577 592.7759 498.0477 592.7759C536.1377 592.7759 567.3877 624.5159 567.3877 662.1059C567.3877 700.6859 536.1377 731.9359 498.0477 731.9359ZM673.8277 731.9359C635.7377 731.9359 604.9777 700.6859 604.9777 662.1059C604.9777 624.5159 635.7377 592.7759 673.8277 592.7759C711.9177 592.7759 743.1677 624.5159 743.1677 662.1059C743.1677 700.6859 711.9177 731.9359 673.8277 731.9359Z"/>
</svg>