<?xml version="1.0" encoding="UTF-8" standalone="no"?>
<svg xmlns="http://www.w3.org/2000/svg"
     width="1151.3671875" height="898.92578125"
     viewBox="0 0 1151.3671875 898.92578125"
     fill="currentColor">
  <path d="M153.3183 898.9278H998.0483C1100.5883 898.9278 1151.3683 848.6378 1151.3683 748.0478V151.3678C1151.3683 50.7778 1100.5883 -0.0022 998.0483 -0.0022H153.3183C51.2683 -0.0022 -0.0017 50.7778 -0.0017 151.3678V748.0478C-0.0017 848.6378 51.2683 898.9278 153.3183 898.9278ZM154.2983 820.3078C105.4683 820.3078 78.6183 794.4378 78.6183 743.6478V155.7578C78.6183 104.9778 105.4683 78.6178 154.2983 78.6178H997.0683C1045.4083 78.6178 1072.7583 104.9778 1072.7583 155.7578V743.6478C1072.7583 794.4378 1045.4083 820.3078 997.0683 820.3078ZM573.7283 721.6778C723.6283 721.6778 845.2183 600.0978 845.2183 449.7078C845.2183 299.8078 723.6283 178.2178 573.7283 178.2178C423.3383 178.2178 301.7583 299.8078 301.7583 449.7078C301.7583 600.0978 423.3383 721.6778 573.7283 721.6778ZM364.7483 449.7078C364.7483 333.4978 457.5183 241.2078 573.7283 241.2078C584.4683 241.2078 594.7283 242.1878 604.9783 243.6478L367.1883 481.4478C365.7183 471.1878 364.7483 460.4478 364.7483 449.7078ZM394.0383 557.1278L681.1483 270.5078C711.9183 288.5778 737.3083 314.9378 755.3683 346.1878L469.7283 631.3478C438.4783 613.7678 412.5983 587.8878 394.0383 557.1278ZM573.7283 658.6878C564.4483 658.6878 555.6683 658.2078 547.3683 656.7378L780.7583 423.3378C781.7383 432.1278 782.2283 440.9178 782.2283 449.7078C782.2283 565.9178 689.9383 658.6878 573.7283 658.6878Z"/>
</svg>