<?xml version="1.0" encoding="UTF-8" standalone="no"?>
<svg xmlns="http://www.w3.org/2000/svg"
     width="962.890625" height="927.24609375"
     viewBox="0 0 962.890625 927.24609375"
     fill="currentColor">
  <path d="M212.8883 425.288C329.5883 425.288 425.7783 329.098 425.7783 212.398C425.7783 95.708 329.5883 -0.002 212.8883 -0.002C95.2183 -0.002 -0.0017 95.708 -0.0017 212.398C-0.0017 329.098 95.2183 425.288 212.8883 425.288ZM750.4883 425.288C867.1883 425.288 962.8883 329.098 962.8883 212.398C962.8883 95.708 867.1883 -0.002 750.4883 -0.002C632.8083 -0.002 537.5983 95.708 537.5983 212.398C537.5983 329.098 632.8083 425.288 750.4883 425.288ZM212.8883 927.248C329.5883 927.248 425.7783 831.058 425.7783 714.358C425.7783 598.148 329.5883 501.958 212.8883 501.958C95.2183 501.958 -0.0017 598.148 -0.0017 714.358C-0.0017 831.058 95.2183 927.248 212.8883 927.248ZM750.4883 927.248C867.1883 927.248 962.8883 831.058 962.8883 714.358C962.8883 598.148 867.1883 501.958 750.4883 501.958C632.8083 501.958 537.5983 598.148 537.5983 714.358C537.5983 831.058 632.8083 927.248 750.4883 927.248Z"/>
</svg>