<?xml version="1.0" encoding="UTF-8" standalone="no"?>
<svg xmlns="http://www.w3.org/2000/svg"
     width="996.09375" height="996.09375"
     viewBox="0 0 996.09375 996.09375"
     fill="currentColor">
  <path d="M497.5577 83.0059C541.9877 83.0059 584.9577 89.8459 625.4877 103.0259L656.7377 26.8559C606.4477 9.7659 552.7377 -0.0041 497.5577 -0.0041C442.3877 -0.0041 388.1877 9.7659 337.8877 26.8559L370.1177 103.0259C410.1577 89.8459 453.1277 83.0059 497.5577 83.0059ZM867.6777 308.5959L943.3577 277.3459C894.5277 180.6659 814.9377 101.0759 718.2577 52.2459L687.0077 127.9259C764.1577 167.4759 828.1277 230.9559 867.6777 308.5959ZM308.1077 127.9259L276.8577 52.7359C180.1777 101.0759 100.5877 180.6659 52.2477 277.3459L128.4177 309.0859C167.4777 231.4459 230.9577 167.9659 308.1077 127.9259ZM913.0877 498.0459C913.0877 542.4759 906.2477 585.4459 893.5577 625.4859L969.2377 657.7159C986.3277 607.4259 996.0977 553.2259 996.0977 498.0459C996.0977 442.3859 986.3277 388.6759 969.2377 338.3759L893.0677 370.6059C906.2477 410.6459 913.0877 453.6159 913.0877 498.0459ZM83.4977 498.0459C83.4977 453.6159 90.3277 410.6459 103.0277 371.0959L26.3677 338.8659C9.7677 389.1559 -0.0023 442.3859 -0.0023 498.0459C-0.0023 553.2259 9.7677 606.9359 26.8577 657.2259L103.0277 624.9959C90.3277 585.4459 83.4977 542.4759 83.4977 498.0459ZM687.0077 867.6759L718.2577 943.8459C815.4277 895.0159 895.0177 815.4259 942.8677 718.7459L868.1677 687.4959C828.6177 765.1359 764.6477 828.1259 687.0077 867.6759ZM128.4177 687.4959L52.7377 718.7459C101.5577 815.4259 180.1777 895.0159 276.8577 943.3559L308.1077 867.1859C230.9577 827.6359 167.4777 764.6459 128.4177 687.4959ZM498.0477 913.0859C453.1277 913.0859 410.1577 906.2459 370.1177 893.0659L338.3777 969.2359C388.6677 986.3259 442.8677 996.0959 498.0477 996.0959C553.2277 996.0959 606.9377 986.3259 656.7377 969.7259L624.9977 893.5559C584.9577 906.2459 542.4777 913.0859 498.0477 913.0859Z"/>
</svg>