<?xml version="1.0" encoding="UTF-8" standalone="no"?>
<svg xmlns="http://www.w3.org/2000/svg"
     width="996.09375" height="996.09375"
     viewBox="0 0 996.09375 996.09375"
     fill="currentColor">
  <path d="M498.0477 996.0959C770.5077 996.0959 996.0977 770.0159 996.0977 498.0459C996.0977 225.5859 770.0177 -0.0041 497.5577 -0.0041C225.5877 -0.0041 -0.0023 225.5859 -0.0023 498.0459C-0.0023 770.0159 226.0777 996.0959 498.0477 996.0959ZM498.0477 913.0859C267.5777 913.0859 83.4977 728.5159 83.4977 498.0459C83.4977 267.5759 267.0877 83.0059 497.5577 83.0059C728.0277 83.0059 913.0877 267.5759 913.0877 498.0459C913.0877 728.5159 728.5177 913.0859 498.0477 913.0859ZM393.5577 395.5059C439.4577 395.5059 478.0277 356.9359 478.0277 311.0359C478.0277 264.1559 439.4577 225.5859 393.5577 225.5859C346.6777 225.5859 308.1077 264.1559 308.1077 311.0359C308.1077 356.9359 346.1877 395.5059 393.5577 395.5059ZM601.5577 395.5059C648.4377 395.5059 687.0077 356.9359 687.0077 311.0359C687.0077 264.1559 648.4377 225.5859 601.5577 225.5859C555.6677 225.5859 517.0877 264.1559 517.0877 311.0359C517.0877 356.9359 555.6677 395.5059 601.5577 395.5059ZM289.0577 583.0059C335.4477 583.0059 374.0277 543.9459 374.0277 497.5559C374.0277 451.6559 335.4477 412.5959 289.0577 412.5959C242.6777 412.5959 204.0977 451.6559 204.0977 497.5559C204.0977 543.9459 242.1877 583.0059 289.0577 583.0059ZM497.5577 583.0059C543.9477 583.0059 583.0077 543.9459 583.0077 497.5559C583.0077 451.6559 543.9477 412.5959 497.5577 412.5959C451.6577 412.5959 412.5977 451.6559 412.5977 497.5559C412.5977 543.9459 451.6577 583.0059 497.5577 583.0059ZM706.0577 583.0059C752.9277 583.0059 791.5077 543.9459 791.5077 497.5559C791.5077 451.6559 752.9277 412.5959 706.0577 412.5959C660.1577 412.5959 621.5777 451.6559 621.5777 497.5559C621.5777 543.9459 660.1577 583.0059 706.0577 583.0059ZM393.5577 770.0159C439.4577 770.0159 478.0277 731.4459 478.0277 684.5659C478.0277 638.6759 439.4577 600.0959 393.5577 600.0959C346.6777 600.0959 308.1077 638.6759 308.1077 684.5659C308.1077 730.9559 346.1877 770.0159 393.5577 770.0159ZM601.5577 770.0159C648.4377 770.0159 687.0077 731.4459 687.0077 684.5659C687.0077 638.6759 648.4377 600.0959 601.5577 600.0959C555.6677 600.0959 517.0877 638.6759 517.0877 684.5659C517.0877 731.4459 555.6677 770.0159 601.5577 770.0159Z"/>
</svg>