<?xml version="1.0" encoding="UTF-8" standalone="no"?>
<svg xmlns="http://www.w3.org/2000/svg"
     width="996.09375" height="996.09375"
     viewBox="0 0 996.09375 996.09375"
     fill="currentColor">
  <path d="M498.0477 996.0959C770.5077 996.0959 996.0977 770.0159 996.0977 498.0459C996.0977 225.5859 770.0177 -0.0041 497.5577 -0.0041C225.5877 -0.0041 -0.0023 225.5859 -0.0023 498.0459C-0.0023 770.0159 226.0777 996.0959 498.0477 996.0959ZM498.0477 913.0859C267.5777 913.0859 83.4977 728.5159 83.4977 498.0459C83.4977 267.5759 267.0877 83.0059 497.5577 83.0059C728.0277 83.0059 913.0877 267.5759 913.0877 498.0459C913.0877 728.5159 728.5177 913.0859 498.0477 913.0859ZM327.1477 406.2459C364.2577 406.2459 394.0477 375.4859 394.0477 338.3759C394.0477 301.7559 364.2577 270.9959 327.1477 270.9959C290.0377 270.9959 259.7677 301.7559 259.7677 338.3759C259.7677 375.4859 290.0377 406.2459 327.1477 406.2459ZM497.5577 406.2459C534.6677 406.2459 564.9377 375.4859 564.9377 338.3759C564.9377 301.2659 534.6677 270.9959 497.5577 270.9959C460.4477 271.4859 429.6877 301.2659 429.6877 338.3759C429.6877 375.4859 460.4477 406.2459 497.5577 406.2459ZM667.9677 406.2459C705.0777 406.2459 735.3477 375.4859 735.3477 338.3759C735.3477 301.2659 705.0777 270.9959 667.9677 270.9959C630.8577 271.4859 601.0777 301.2659 601.0777 338.3759C601.0777 375.4859 630.8577 406.2459 667.9677 406.2459ZM327.1477 565.4259C364.2577 565.4259 394.0477 534.6659 394.0477 497.5559C394.0477 460.4459 364.2577 430.1759 327.1477 430.6659C290.0377 430.6659 259.7677 460.4459 259.7677 497.5559C259.7677 534.6659 290.0377 565.4259 327.1477 565.4259ZM497.5577 565.4259C534.6677 565.4259 564.9377 534.6659 564.9377 497.5559C564.9377 460.4459 534.6677 430.1759 497.5577 430.6659C460.4477 430.6659 429.6877 460.4459 429.6877 497.5559C429.6877 534.6659 460.4477 565.4259 497.5577 565.4259ZM667.9677 565.4259C705.0777 565.4259 735.3477 534.6659 735.3477 497.5559C735.3477 460.4459 705.0777 430.1759 667.9677 430.6659C630.8577 430.6659 601.0777 460.4459 601.0777 497.5559C601.0777 534.6659 630.8577 565.4259 667.9677 565.4259ZM327.1477 724.6059C364.2577 724.6059 394.0477 694.3359 394.0477 657.2259C394.0477 620.1159 364.2577 589.3559 327.1477 589.3559C290.0377 589.3559 259.7677 620.1159 259.7677 657.2259C259.7677 693.8459 290.0377 724.6059 327.1477 724.6059ZM497.5577 724.6059C534.6677 724.6059 564.9377 693.8459 564.9377 657.2259C564.9377 620.1159 534.6677 589.3559 497.5577 589.3559C460.4477 589.3559 429.6877 620.1159 429.6877 657.2259C429.6877 693.8459 460.4477 724.6059 497.5577 724.6059ZM667.9677 724.6059C705.0777 724.6059 735.3477 693.8459 735.3477 657.2259C735.3477 620.1159 705.0777 589.3559 667.9677 589.3559C630.8577 589.3559 601.0777 620.1159 601.0777 657.2259C601.0777 693.8459 630.8577 724.6059 667.9677 724.6059Z"/>
</svg>