<?xml version="1.0" encoding="UTF-8" standalone="no"?>
<svg xmlns="http://www.w3.org/2000/svg"
     width="962.890625" height="927.24609375"
     viewBox="0 0 962.890625 927.24609375"
     fill="currentColor">
  <path d="M212.8883 425.288C329.5883 425.288 425.7783 329.098 425.7783 212.398C425.7783 95.708 329.5883 -0.002 212.8883 -0.002C95.2183 -0.002 -0.0017 95.708 -0.0017 212.398C-0.0017 329.098 95.2183 425.288 212.8883 425.288ZM750.4883 425.288C867.1883 425.288 962.8883 329.098 962.8883 212.398C962.8883 95.708 867.1883 -0.002 750.4883 -0.002C632.8083 -0.002 537.5983 95.708 537.5983 212.398C537.5983 329.098 632.8083 425.288 750.4883 425.288ZM212.8883 348.148C136.2283 348.148 76.1683 288.578 76.1683 212.398C76.1683 136.228 136.2283 74.708 212.8883 74.708C289.0583 74.708 349.1183 136.228 349.1183 212.398C349.1183 288.578 289.0583 348.148 212.8883 348.148ZM750.4883 348.148C673.3383 348.148 613.7683 288.578 613.7683 212.398C613.7683 136.228 673.3383 74.708 750.4883 74.708C826.6583 74.708 886.7183 136.228 886.7183 212.398C886.7183 288.578 826.6583 348.148 750.4883 348.148ZM212.8883 927.248C329.5883 927.248 425.7783 831.058 425.7783 714.358C425.7783 598.148 329.5883 501.958 212.8883 501.958C95.2183 501.958 -0.0017 598.148 -0.0017 714.358C-0.0017 831.058 95.2183 927.248 212.8883 927.248ZM750.4883 927.248C867.1883 927.248 962.8883 831.058 962.8883 714.358C962.8883 598.148 867.1883 501.958 750.4883 501.958C632.8083 501.958 537.5983 598.148 537.5983 714.358C537.5983 831.058 632.8083 927.248 750.4883 927.248ZM212.8883 850.588C136.2283 850.588 76.1683 791.018 76.1683 714.358C76.1683 638.668 136.2283 576.658 212.8883 576.658C289.0583 576.658 349.1183 638.668 349.1183 714.358C349.1183 791.018 289.0583 850.588 212.8883 850.588ZM750.4883 850.588C673.3383 850.588 613.7683 791.018 613.7683 714.358C613.7683 638.668 673.3383 576.658 750.4883 576.658C826.6583 576.658 886.7183 638.668 886.7183 714.358C886.7183 791.018 826.6583 850.588 750.4883 850.588Z"/>
</svg>