<?xml version="1.0" encoding="UTF-8" standalone="no"?>
<svg xmlns="http://www.w3.org/2000/svg"
     width="996.09375" height="993.65234375"
     viewBox="0 0 996.09375 993.65234375"
     fill="currentColor">
  <path d="M496.5777 88.3811C521.4877 88.3811 541.0177 68.3611 541.0177 44.4311C541.0177 20.0211 521.4877 0.0011 496.5777 0.0011C473.1477 0.0011 453.1277 20.0211 453.1277 44.4311C453.1277 68.3611 473.1477 88.3811 496.5777 88.3811ZM637.2077 110.8411C661.1377 110.8411 681.6377 90.8211 681.6377 66.8911C681.6377 42.4811 661.1377 22.4611 637.2077 22.4611C612.7977 22.4611 593.2577 42.4811 593.2577 66.8911C593.2577 90.8211 613.2777 110.8411 637.2077 110.8411ZM357.4177 110.8411C381.3477 110.8411 401.3677 90.8211 401.3677 66.8911C401.3677 42.4811 381.3477 22.4611 357.4177 22.4611C333.0077 22.4611 312.9877 42.4811 312.9877 66.8911C312.9877 90.8211 333.0077 110.8411 357.4177 110.8411ZM763.6677 175.2911C787.5977 175.2911 808.1077 155.2711 808.1077 131.3511C808.1077 106.9311 787.5977 86.9111 763.6677 86.9111C739.2577 86.9111 719.7277 106.9311 719.7277 131.3511C719.7277 155.2711 739.7477 175.2911 763.6677 175.2911ZM231.4477 175.2911C255.3677 175.2911 275.3877 155.2711 275.3877 131.3511C275.3877 106.9311 255.3677 86.9111 231.4477 86.9111C207.0277 86.9111 187.0077 106.9311 187.0077 131.3511C187.0077 155.2711 207.0277 175.2911 231.4477 175.2911ZM863.7677 275.3911C888.1877 275.3911 908.2077 255.8611 908.2077 231.9311C908.2077 207.5211 888.1877 187.5011 863.7677 187.5011C839.8477 187.5011 819.8277 207.5211 819.8277 231.9311C819.8277 255.8611 839.8477 275.3911 863.7677 275.3911ZM131.8377 275.3911C155.2777 275.3911 175.7777 255.8611 175.7777 231.9311C175.7777 207.5211 155.7577 187.5011 131.8377 187.5011C107.4177 187.5011 87.3977 207.5211 87.3977 231.9311C87.3977 255.8611 107.4177 275.3911 131.8377 275.3911ZM927.7377 400.8811C952.1477 400.8811 972.1677 380.8611 972.1677 356.9311C972.1677 332.5211 952.1477 312.5011 927.7377 312.5011C903.8077 312.5011 883.7877 332.5211 883.7877 356.9311C883.7877 380.8611 903.8077 400.8811 927.7377 400.8811ZM67.8677 400.8811C91.7977 400.8811 111.8177 380.8611 111.8177 356.9311C111.8177 332.5211 91.7977 312.5011 67.8677 312.5011C43.4577 312.5011 23.4377 332.5211 23.4377 356.9311C23.4377 380.8611 43.4577 400.8811 67.8677 400.8811ZM951.6577 541.0111C976.0777 541.0111 996.0977 520.9911 996.0977 496.5811C996.0977 472.6611 976.0777 452.6411 951.6577 452.6411C927.7377 452.6411 908.2077 472.6611 908.2077 496.5811C908.2077 520.9911 927.7377 541.0111 951.6577 541.0111ZM44.4377 541.0111C68.3577 541.0111 87.8877 520.9911 87.8877 496.5811C87.8877 472.6611 68.3577 452.6411 44.4377 452.6411C20.0177 452.6411 -0.0023 472.6611 -0.0023 496.5811C-0.0023 520.9911 20.0177 541.0111 44.4377 541.0111ZM927.7377 681.1511C952.1477 681.1511 972.1677 661.1311 972.1677 636.7211C972.1677 612.7911 952.1477 592.7711 927.7377 592.7711C903.8077 592.7711 883.7877 612.7911 883.7877 636.7211C883.7877 661.1311 903.8077 681.1511 927.7377 681.1511ZM67.8677 681.1511C91.7977 681.1511 111.8177 661.1311 111.8177 636.7211C111.8177 612.7911 91.7977 592.7711 67.8677 592.7711C43.4577 592.7711 23.4377 612.7911 23.4377 636.7211C23.4377 661.1311 43.4577 681.1511 67.8677 681.1511ZM863.7677 806.1511C888.1877 806.1511 908.2077 786.1311 908.2077 761.7211C908.2077 737.7911 888.1877 718.2611 863.7677 718.2611C839.8477 718.2611 819.8277 737.7911 819.8277 761.7211C819.8277 786.1311 839.8477 806.1511 863.7677 806.1511ZM131.8377 806.1511C155.7577 806.1511 175.7777 786.1311 175.7777 761.7211C175.7777 737.7911 155.2777 718.2611 131.8377 718.2611C107.4177 718.2611 87.3977 737.7911 87.3977 761.7211C87.3977 786.1311 107.4177 806.1511 131.8377 806.1511ZM763.6677 906.7411C787.5977 906.7411 808.1077 886.7211 808.1077 862.3011C808.1077 838.3811 787.5977 818.3611 763.6677 818.3611C739.7477 818.3611 719.7277 838.3811 719.7277 862.3011C719.7277 886.7211 739.2577 906.7411 763.6677 906.7411ZM231.4477 906.7411C255.3677 906.7411 275.3877 886.7211 275.3877 862.3011C275.3877 838.3811 255.3677 818.3611 231.4477 818.3611C207.0277 818.3611 187.0077 838.3811 187.0077 862.3011C187.0077 886.7211 207.0277 906.7411 231.4477 906.7411ZM637.2077 971.1911C661.1377 971.1911 681.6377 951.1711 681.6377 926.7611C681.6377 902.8311 661.1377 882.8111 637.2077 882.8111C613.2777 882.8111 593.2577 902.8311 593.2577 926.7611C593.2577 951.1711 612.7977 971.1911 637.2077 971.1911ZM357.4177 971.1911C381.3477 971.1911 401.3677 951.1711 401.3677 926.7611C401.3677 902.8311 381.3477 882.8111 357.4177 882.8111C333.0077 882.8111 312.9877 902.8311 312.9877 926.7611C312.9877 951.1711 333.0077 971.1911 357.4177 971.1911ZM496.5777 993.6511C521.4877 993.6511 541.0177 973.6311 541.0177 949.2211C541.0177 925.2911 521.4877 905.2711 496.5777 905.2711C473.1477 905.2711 453.1277 925.2911 453.1277 949.2211C453.1277 973.6311 473.1477 993.6511 496.5777 993.6511Z"/>
</svg>