<?xml version="1.0" encoding="UTF-8" standalone="no"?>
<svg xmlns="http://www.w3.org/2000/svg"
     width="1368.1640625" height="996.09375"
     viewBox="0 0 1368.1640625 996.09375"
     fill="currentColor">
  <path d="M1368.1683 498.0459C1368.1683 519.0459 1351.0783 537.1059 1330.5683 537.1059H1180.6683C1181.6383 523.9259 1182.6183 511.2259 1182.6183 498.0459C1182.6183 484.8659 1182.1283 472.1659 1180.6683 459.4759H187.9883C208.0083 204.5859 424.8083 -0.0041 684.0783 -0.0041C943.3583 -0.0041 1160.6483 204.5859 1180.6683 459.4759H1330.5683C1351.0783 459.4759 1368.1683 477.0459 1368.1683 498.0459ZM-0.0017 498.0459C-0.0017 477.0459 17.0883 459.4759 37.5983 459.4759H187.9883C187.0083 472.1659 186.5283 484.8659 186.5283 498.0459C186.5283 511.2259 187.0083 524.4159 187.9883 537.1059H1180.6683C1160.6483 791.5059 943.3583 996.0959 684.5683 996.0959C425.2883 996.0959 208.0083 791.5059 187.9883 537.1059H37.5983C17.0883 537.1059 -0.0017 519.0459 -0.0017 498.0459Z"/>
</svg>