<?xml version="1.0" encoding="UTF-8" standalone="no"?>
<svg xmlns="http://www.w3.org/2000/svg"
     width="898.92578125" height="898.92578125"
     viewBox="0 0 898.92578125 898.92578125"
     fill="currentColor">
  <path d="M153.3183 898.9295H745.6083C848.1483 898.9295 898.9283 848.1495 898.9283 747.5595V151.3695C898.9283 50.7795 848.1483 -0.0005 745.6083 -0.0005H153.3183C51.2683 -0.0005 -0.0017 50.2895 -0.0017 151.3695V747.5595C-0.0017 848.6295 51.2683 898.9295 153.3183 898.9295ZM285.6483 653.8095C263.1883 653.8095 245.6083 635.7395 245.6083 613.2795C245.6083 602.5395 249.5083 592.2895 257.3283 584.9595L392.5783 449.2195L257.3283 313.9695C249.5083 306.1495 245.6083 296.3895 245.6083 285.6395C245.6083 262.6995 263.1883 245.6095 285.6483 245.6095C296.8783 245.6095 305.6683 249.5095 313.4783 256.8395L449.7083 392.5795L586.9183 256.3495C595.2183 248.0495 604.4883 244.6295 614.7483 244.6295C637.2083 244.6295 655.2783 262.2095 655.2783 284.6695C655.2783 295.8995 651.8583 304.6895 643.5583 313.4795L507.3283 449.2195L643.0683 584.4695C650.8783 591.7995 654.7883 602.0495 654.7883 613.2795C654.7883 635.7395 636.7183 653.8095 613.7683 653.8095C603.0283 653.8095 592.2883 649.8995 584.9583 642.0895L449.7083 506.3495L314.9383 642.0895C307.1283 649.8995 296.8783 653.8095 285.6483 653.8095Z"/>
</svg>