<?xml version="1.0" encoding="UTF-8" standalone="no"?>
<svg xmlns="http://www.w3.org/2000/svg"
     width="898.92578125" height="898.92578125"
     viewBox="0 0 898.92578125 898.92578125"
     fill="currentColor">
  <path d="M153.3183 898.9295H745.6083C848.1483 898.9295 898.9283 848.1495 898.9283 747.5595V151.3695C898.9283 50.7795 848.1483 -0.0005 745.6083 -0.0005H153.3183C51.2683 -0.0005 -0.0017 50.2895 -0.0017 151.3695V747.5595C-0.0017 848.6295 51.2683 898.9295 153.3183 898.9295ZM154.2983 820.3095C105.4683 820.3095 78.6183 794.4295 78.6183 743.6495V155.2695C78.6183 104.4895 105.4683 78.6095 154.2983 78.6095H744.6283C792.9683 78.6095 820.3083 104.4895 820.3083 155.2695V743.6495C820.3083 794.4295 792.9683 820.3095 744.6283 820.3095ZM283.1983 655.2695C294.4383 655.2695 304.1983 650.8795 311.5283 643.0695L449.7083 504.3895L588.8683 643.0695C596.1883 650.3895 605.4683 655.2695 616.6983 655.2695C638.6683 655.2695 655.7583 637.6995 655.7583 615.7195C655.7583 604.4895 651.8583 595.6995 644.0383 587.8895L505.3683 449.2195L644.5283 309.5695C652.8283 301.2695 656.2483 292.9695 656.2483 282.2295C656.2483 260.7395 639.1583 243.1595 617.1883 243.1595C606.9383 243.1595 598.6283 247.0695 590.3283 255.3695L449.7083 394.5295L310.5483 255.8595C303.2183 248.0495 294.4383 244.1395 283.1983 244.1395C261.7183 244.1395 244.1383 261.2295 244.1383 282.7195C244.1383 293.4595 248.5383 302.7295 255.8583 310.0595L394.5283 449.2195L255.8583 588.3795C248.5383 595.6995 244.1383 604.9795 244.1383 615.7195C244.1383 637.6995 261.7183 655.2695 283.1983 655.2695Z"/>
</svg>