<?xml version="1.0" encoding="UTF-8" standalone="no"?>
<svg xmlns="http://www.w3.org/2000/svg"
     width="996.09375" height="996.09375"
     viewBox="0 0 996.09375 996.09375"
     fill="currentColor">
  <path d="M498.0477 996.0959C770.5077 996.0959 996.0977 770.0159 996.0977 498.0459C996.0977 225.5859 770.0177 -0.0041 497.5577 -0.0041C225.5877 -0.0041 -0.0023 225.5859 -0.0023 498.0459C-0.0023 770.0159 226.0777 996.0959 498.0477 996.0959ZM498.0477 913.0859C267.5777 913.0859 83.4977 728.5159 83.4977 498.0459C83.4977 267.5759 267.0877 83.0059 497.5577 83.0059C728.0277 83.0059 913.0877 267.5759 913.0877 498.0459C913.0877 728.5159 728.5177 913.0859 498.0477 913.0859ZM498.0477 760.2559C641.1177 760.2559 760.2577 641.1159 760.2577 498.0459C760.2577 354.9759 641.1177 235.8359 497.5577 235.8359C354.4877 235.8359 235.8377 354.9759 235.8377 498.0459C235.8377 641.1159 354.9777 760.2559 498.0477 760.2559ZM364.7477 531.2459C351.0777 531.2459 340.8177 521.4859 340.8177 507.8159C340.8177 494.1359 351.0777 484.3759 364.7477 484.3759H474.1177V335.4459C474.1177 322.2659 484.3777 312.0159 497.5577 312.0159C511.2277 312.0159 521.9777 322.2659 521.9777 335.4459V507.8159C521.9777 520.9959 510.7377 531.2459 497.5577 531.2459Z"/>
</svg>