<?xml version="1.0" encoding="UTF-8" standalone="no"?>
<svg xmlns="http://www.w3.org/2000/svg"
     width="996.09375" height="996.09375"
     viewBox="0 0 996.09375 996.09375"
     fill="currentColor">
  <path d="M498.0477 996.0959C770.5077 996.0959 996.0977 770.0159 996.0977 498.0459C996.0977 225.5859 770.0177 -0.0041 497.5577 -0.0041C225.5877 -0.0041 -0.0023 225.5859 -0.0023 498.0459C-0.0023 770.0159 226.0777 996.0959 498.0477 996.0959ZM242.6777 550.7859C223.1477 550.7859 208.4977 536.1359 208.4977 516.6059C208.4977 497.5559 223.1477 482.9059 242.6777 482.9059H463.8677V187.4959C463.8677 168.4559 478.5177 153.8059 497.5577 153.8059C516.5977 153.8059 531.7377 168.4559 531.7377 187.4959V516.6059C531.7377 536.1359 516.5977 550.7859 497.5577 550.7859Z"/>
</svg>