<?xml version="1.0" encoding="UTF-8" standalone="no"?>
<svg xmlns="http://www.w3.org/2000/svg"
     width="996.09375" height="996.09375"
     viewBox="0 0 996.09375 996.09375"
     fill="currentColor">
  <path d="M498.0477 996.0959C770.5077 996.0959 996.0977 770.0159 996.0977 498.0459C996.0977 225.5859 770.0177 -0.0041 497.5577 -0.0041C225.5877 -0.0041 -0.0023 225.5859 -0.0023 498.0459C-0.0023 770.0159 226.0777 996.0959 498.0477 996.0959ZM498.0477 768.0659C350.5877 768.0659 227.5377 645.5059 227.5377 498.0459C227.5377 350.5859 350.0977 227.5359 497.5577 227.5359C645.5077 227.5359 768.5577 350.5859 768.5577 498.0459C768.5577 645.5059 645.5077 768.0659 498.0477 768.0659ZM360.8377 532.2259H497.5577C511.2277 532.2259 522.9477 521.9759 522.9477 508.2959V330.5659C522.9477 316.8959 511.7177 306.1559 497.5577 306.1559C483.8877 306.1559 473.1477 316.8959 473.1477 330.5659V483.8859H360.8377C346.6777 483.8859 335.9377 494.1359 335.9377 508.2959C335.9377 522.4559 346.6777 532.2259 360.8377 532.2259Z"/>
</svg>