<?xml version="1.0" encoding="UTF-8" standalone="no"?>
<svg xmlns="http://www.w3.org/2000/svg"
     width="996.09375" height="996.09375"
     viewBox="0 0 996.09375 996.09375"
     fill="currentColor">
  <path d="M498.0477 996.0959C770.5077 996.0959 996.0977 770.0159 996.0977 498.0459C996.0977 225.5859 770.0177 -0.0041 497.5577 -0.0041C225.5877 -0.0041 -0.0023 225.5859 -0.0023 498.0459C-0.0023 770.0159 226.0777 996.0959 498.0477 996.0959ZM498.0477 913.0859C267.5777 913.0859 83.4977 728.5159 83.4977 498.0459C83.4977 267.5759 267.0877 83.0059 497.5577 83.0059C728.0277 83.0059 913.0877 267.5759 913.0877 498.0459C913.0877 728.5159 728.5177 913.0859 498.0477 913.0859ZM340.8177 568.3559H631.8377C707.5177 568.3559 765.6277 509.7659 765.6277 437.9859C765.6277 363.2859 704.5877 308.5959 625.4877 308.5959C595.7077 250.9759 541.5077 213.3759 474.1177 213.3759C386.2277 213.3759 313.4777 282.7159 305.1777 370.1159C263.1877 382.3259 230.9577 418.9459 230.9577 468.2659C230.9577 523.4359 270.9977 568.3559 340.8177 568.3559ZM325.1977 755.3759C333.0077 755.3759 338.3777 748.0459 337.8877 740.2359L336.4277 710.9359L360.3477 727.5359C366.6977 731.9359 375.9777 729.4959 379.8877 723.6359C384.7677 717.7759 382.3277 707.5159 373.5377 703.6159L347.6577 690.9159L373.5377 677.2459C381.8377 672.8559 383.7877 665.0359 380.3677 658.2059C376.9577 651.3659 366.6977 649.9059 360.3477 653.8059L336.4277 670.8959L337.8877 641.6059C338.3777 632.8159 333.0077 626.4659 325.1977 626.4659C316.4077 626.4659 310.5477 632.8159 311.0377 641.1159L312.9877 670.8959L288.0877 653.8059C282.2277 649.9059 272.9477 650.8759 269.5277 658.2059C265.6277 664.0659 267.0877 672.8559 275.3877 677.7359L301.2677 690.9159L275.3877 703.6159C266.5977 707.5159 265.6277 716.7959 268.5577 723.1459C271.9777 730.4659 281.7377 731.9359 288.0877 727.5359L312.9877 710.9359L311.5277 740.2359C311.0377 748.0459 316.4077 755.3759 325.1977 755.3759ZM486.3277 755.3759C494.1377 755.3759 499.5077 748.0459 499.0277 740.2359L497.5577 710.9359L521.4877 727.5359C527.3477 731.9359 537.1077 729.4959 541.0177 723.6359C545.8977 717.7759 543.4577 707.5159 534.6677 703.6159L508.7877 690.9159L534.6677 677.2459C542.9677 672.8559 544.9177 665.0359 541.5077 658.2059C538.0877 651.3659 527.8277 649.9059 521.4877 653.8059L497.5577 670.8959L499.0277 641.6059C499.5077 632.8159 494.1377 626.4659 486.3277 626.4659C477.5377 626.4659 471.6777 632.8159 472.1677 641.1159L474.1177 670.8959L449.2177 653.8059C443.3577 649.9059 434.0777 650.8759 430.6677 658.2059C426.7577 664.0659 428.2277 672.8559 436.5277 677.7359L462.3977 690.9159L436.5277 703.6159C427.7377 707.5159 426.7577 716.7959 429.6877 723.1459C433.1077 730.4659 442.8677 731.9359 449.2177 727.5359L474.1177 710.9359L472.6577 740.2359C472.1677 748.0459 477.5377 755.3759 486.3277 755.3759ZM646.9777 755.3759C655.2777 755.3759 660.6477 748.0459 660.1577 740.2359L658.6877 710.9359L682.6177 727.5359C688.4777 731.9359 698.2377 729.4959 702.1477 723.6359C706.5477 717.7759 704.5877 707.5159 695.7977 703.6159L669.9177 690.9159L695.7977 677.2459C704.0977 672.8559 706.0577 665.0359 702.6377 658.2059C698.7277 651.3659 688.9677 649.9059 682.6177 653.8059L658.6877 670.8959L660.1577 641.6059C660.6477 632.8159 655.2777 626.4659 646.9777 626.4659C638.6677 626.4659 632.8077 632.8159 633.2977 641.1159L635.2577 670.8959L610.3477 653.8059C604.4877 649.9059 595.2177 650.8759 591.3077 658.2059C587.8877 664.0659 588.8677 672.8559 597.6577 677.7359L623.5377 690.9159L597.6577 703.6159C588.8677 707.5159 587.8877 716.7959 590.8177 723.1459C594.2377 730.4659 604.0077 731.9359 610.3477 727.5359L635.2577 710.9359L633.7877 740.2359C633.2977 748.0459 638.6677 755.3759 646.9777 755.3759Z"/>
</svg>