<?xml version="1.0" encoding="UTF-8" standalone="no"?>
<svg xmlns="http://www.w3.org/2000/svg"
     width="1114.74609375" height="1120.7327930281156"
     viewBox="0 0 1114.74609375 1120.7327930281156"
     fill="currentColor">
  <path d="M229.4877 739.7411H835.4477C995.6077 739.7411 1114.7477 618.1611 1114.7477 467.7711C1114.7477 312.0111 987.7977 198.2411 822.2677 198.2411C761.2277 77.6411 647.9477 0.0011 506.8377 0.0011C323.2377 0.0011 171.8777 144.0411 155.7577 325.1911C67.3877 351.0711 -0.0023 427.7311 -0.0023 530.7611C-0.0023 646.4811 83.9877 739.7411 229.4877 739.7411ZM630.8577 967.7711L694.3377 857.4211C703.1277 842.7711 698.2377 825.6811 683.5977 816.8911C668.9477 808.5911 652.3477 812.9911 643.5577 828.1211L579.5877 939.4511C571.2877 953.1211 575.1977 970.2111 590.3277 979.0011C604.9777 987.3011 622.5577 981.9311 630.8577 967.7711ZM242.1877 968.2611L305.6677 857.9111C314.9377 843.2611 310.0577 826.1711 295.4077 817.3811C280.7577 809.0811 264.1577 813.4811 254.8877 828.6111L190.9177 939.9411C182.6177 953.6111 187.0077 970.7011 202.1477 979.4911C216.3077 987.7911 233.8877 982.4211 242.1877 968.2611ZM783.6877 1104.9811L847.1677 995.1211C855.9577 979.9811 851.0777 962.8911 836.4277 954.5911C821.7777 945.8011 805.1777 950.6811 796.3877 965.8211L731.9377 1076.6611C724.1177 1090.8211 728.0277 1107.9111 743.1677 1116.2111C757.8077 1124.5111 775.3877 1119.6311 783.6877 1104.9811ZM395.0177 1105.4711L458.4977 995.6011C467.2877 980.4711 462.8877 963.3811 448.2377 955.0811C433.1077 946.2911 416.5077 951.1711 407.7177 966.3111L343.7477 1077.1511C335.4477 1091.3111 339.8477 1108.4011 354.4877 1116.7011C369.1377 1125.0011 386.7177 1120.1211 395.0177 1105.4711Z"/>
</svg>