<?xml version="1.0" encoding="UTF-8" standalone="no"?>
<svg xmlns="http://www.w3.org/2000/svg"
     width="996.09375" height="996.09375"
     viewBox="0 0 996.09375 996.09375"
     fill="currentColor">
  <path d="M498.0477 996.0959C770.5077 996.0959 996.0977 770.0159 996.0977 498.0459C996.0977 225.5859 770.0177 -0.0041 497.5577 -0.0041C225.5877 -0.0041 -0.0023 225.5859 -0.0023 498.0459C-0.0023 770.0159 226.0777 996.0959 498.0477 996.0959ZM498.0477 913.0859C267.5777 913.0859 83.4977 728.5159 83.4977 498.0459C83.4977 267.5759 267.0877 83.0059 497.5577 83.0059C728.0277 83.0059 913.0877 267.5759 913.0877 498.0459C913.0877 728.5159 728.5177 913.0859 498.0477 913.0859ZM340.8177 546.3859H631.8377C707.5177 546.3859 765.6277 487.7959 765.6277 415.5259C765.6277 340.8159 704.5877 286.6259 625.4877 286.6259C595.7077 229.0059 541.5077 190.9159 474.1177 190.9159C386.2277 190.9159 313.4777 260.7459 305.1777 347.6559C263.1877 359.8659 230.9577 396.4859 230.9577 446.2859C230.9577 501.4659 270.9977 546.3859 340.8177 546.3859ZM416.0177 684.5659C412.1077 691.8959 415.5277 697.7559 423.8277 697.7559H474.6077L435.0577 794.4359C433.1077 798.8259 434.0777 802.7359 437.0077 804.1959C439.9377 805.1759 443.3577 804.1959 446.7777 800.7859L578.1277 666.5059C584.4777 659.6659 582.0277 650.8759 572.7577 650.8759H513.1877L541.9877 595.7059C544.9177 589.3559 542.9677 583.4959 535.6477 583.4959H470.7077C462.3977 583.4959 458.0077 586.4259 455.5677 592.7759ZM336.9177 695.3159L371.5777 635.7459C377.9277 624.9959 374.5077 611.3259 363.2777 604.9759C352.5377 599.1259 339.3577 602.5359 333.0077 613.2859L298.3377 673.3359C292.4777 684.0859 295.8977 697.7559 306.6377 703.6159C317.3877 709.9559 330.5677 706.0559 336.9177 695.3159ZM663.0877 695.3159L697.7577 635.7459C704.0977 624.9959 700.1977 611.3259 689.4577 604.9759C678.7077 599.1259 665.5277 602.5359 659.1777 613.2859L624.5077 673.3359C618.1677 684.0859 622.0677 697.7559 632.8077 703.6159C643.5577 709.9559 656.7377 706.0559 663.0877 695.3159Z"/>
</svg>