<?xml version="1.0" encoding="UTF-8" standalone="no"?>
<svg xmlns="http://www.w3.org/2000/svg"
     width="996.09375" height="996.09375"
     viewBox="0 0 996.09375 996.09375"
     fill="currentColor">
  <path d="M498.0477 996.0977C770.5077 996.0977 996.0977 770.5077 996.0977 498.0477C996.0977 226.0777 770.0177 -0.0023 497.5577 -0.0023C225.5877 -0.0023 -0.0023 226.0777 -0.0023 498.0477C-0.0023 770.5077 226.0777 996.0977 498.0477 996.0977ZM347.1677 546.8777C275.3877 546.8777 233.8877 500.4877 233.8877 443.3577C233.8877 392.5777 267.0877 354.9777 310.5477 342.2877C318.8477 251.9577 393.5577 180.6677 484.3777 180.6677C554.1977 180.6677 609.8677 219.2377 640.1377 278.8077C721.6777 278.8077 784.6677 334.9577 784.6677 412.1077C784.6677 486.3277 725.0977 546.8777 646.4877 546.8777ZM377.4377 676.2677C371.5777 686.5277 357.4177 691.4077 346.1877 685.0577C334.9577 678.7077 332.0277 664.0577 337.3977 653.3177L365.7277 604.9777C371.5777 594.7277 385.7377 589.8477 396.4877 596.6777C408.2077 602.5377 411.1377 617.6777 405.7577 627.9277ZM653.3177 676.2677C647.4577 686.5277 633.2977 691.4077 622.0677 685.0577C610.8377 678.7077 607.9077 664.0577 613.2777 653.3177L641.5977 604.9777C647.4577 594.7277 661.6177 589.8477 672.8477 596.6777C684.0777 602.5377 687.0077 617.6777 681.6377 627.9277ZM515.6277 676.2677C509.7677 686.5277 495.1177 691.4077 484.3777 685.0577C473.1477 678.7077 469.7277 664.0577 476.0777 653.3177L503.9077 604.9777C509.7677 594.7277 524.4177 589.8477 535.1577 596.6777C546.3877 602.5377 549.8077 617.6777 543.4577 627.9277ZM316.8977 796.8777C309.0777 796.8777 304.6877 791.0177 304.6877 783.6877L305.1777 764.1577L289.5477 775.3877C283.6877 778.8077 275.3877 777.8277 271.4877 770.9977C268.0677 765.1377 269.5277 757.3277 277.8277 753.4177L294.4377 745.6077L277.8277 736.8177C269.5277 733.3977 269.5277 724.1177 271.9777 719.2377C275.8777 713.3777 284.1777 712.3977 289.5477 715.8177L305.1777 727.0477L304.1977 707.5177C303.7077 700.1977 309.0777 694.3377 316.8977 694.3377C323.7277 694.3377 329.0977 699.7077 328.6177 707.5177L327.1477 727.0477L343.2577 716.3077C348.6377 712.3977 357.9077 713.8677 361.3277 719.7277C363.7677 726.0777 362.3077 732.9077 354.9777 736.8177L337.8877 745.6077L354.9777 753.4177C363.2777 757.3277 363.7677 766.1177 360.3477 772.4577C356.9377 776.8577 348.6377 778.8077 343.2577 775.3877L327.1477 764.1577L328.6177 783.6877C329.0977 791.5077 323.7277 796.8777 316.8977 796.8777ZM455.0777 796.8777C447.2677 796.8777 442.8677 791.0177 442.8677 783.6877L443.8477 764.1577L427.2477 775.3877C421.8777 778.8077 413.0877 777.8277 409.6677 770.9977C406.7377 765.1377 408.2077 757.3277 415.5277 753.4177L432.6177 745.6077L415.5277 736.8177C408.2077 733.3977 407.7177 724.1177 410.6477 719.2377C414.0577 713.3777 422.3677 712.3977 427.2477 715.8177L443.8477 727.0477L442.3877 707.5177C441.8977 700.1977 447.2677 694.3377 455.0777 694.3377C461.4277 694.3377 467.2877 699.7077 466.3077 707.5177L465.3277 727.0477L480.9577 716.3077C486.8177 712.3977 496.0977 713.8677 499.0277 719.7277C501.9577 726.0777 500.9777 732.9077 493.1677 736.8177L476.0777 745.6077L493.1677 753.4177C501.4677 757.3277 502.4377 766.1177 498.0477 772.4577C495.1177 776.8577 486.8177 778.8077 480.9577 775.3877L465.3277 764.1577L466.3077 783.6877C467.2877 791.5077 461.4277 796.8777 455.0777 796.8777ZM592.7777 796.8777C584.9577 796.8777 580.5677 791.0177 580.5677 783.6877L581.0577 764.1577L565.4277 775.3877C559.5677 778.8077 551.2677 777.8277 547.3677 770.9977C543.9477 765.1377 545.4077 757.3277 553.7077 753.4177L570.3077 745.6077L553.7077 736.8177C545.4077 733.3977 545.4077 724.1177 547.8477 719.2377C551.7577 713.3777 560.0577 712.3977 565.4277 715.8177L581.0577 727.0477L580.0777 707.5177C579.5877 700.1977 584.9577 694.3377 592.7777 694.3377C599.6077 694.3377 604.9777 699.7077 604.4877 707.5177L603.5177 727.0477L619.1377 716.3077C624.5077 712.3977 633.7877 713.8677 637.2077 719.7277C639.6477 726.0777 638.1877 732.9077 631.3477 736.8177L613.7677 745.6077L631.3477 753.4177C639.1577 757.3277 640.1377 766.1177 636.2277 772.4577C632.8077 776.8577 624.5077 778.8077 619.1377 775.3877L603.5177 764.1577L604.4877 783.6877C604.9777 791.5077 599.6077 796.8777 592.7777 796.8777Z"/>
</svg>