<?xml version="1.0" encoding="UTF-8" standalone="no"?>
<svg xmlns="http://www.w3.org/2000/svg"
     width="1283.3047552795385" height="844.4059767238148"
     viewBox="0 0 1283.3047552795385 844.4059767238148"
     fill="currentColor">
  <path d="M207.0333 844.4057H735.3533C876.4633 844.4057 986.3233 737.4757 986.3233 599.7757C986.3233 598.3157 986.3233 597.3357 985.8433 595.8757C1143.5533 590.4957 1241.7033 501.1457 1277.8333 407.3957C1293.9433 367.8457 1272.9533 332.6857 1234.8633 332.6857C1205.5633 332.6857 1181.6433 345.3857 1129.8833 345.3857C1005.3733 345.3857 939.4533 276.0457 939.4533 162.7657C939.4533 107.5857 956.5433 77.3157 956.5433 49.9757C956.5433 9.9357 921.8733 -10.0843 878.9033 5.0457C775.3933 38.7457 687.5033 149.0957 687.5033 284.3457C687.5033 288.7457 687.9933 293.1357 687.9933 297.0457C628.9033 226.7257 544.9233 185.7157 449.2233 185.7157C287.5933 185.7157 152.3433 310.2257 136.2333 470.8757C55.1733 496.2657 0.0033 566.5757 0.0033 655.4457C0.0033 765.3057 83.0033 844.4057 207.0333 844.4057ZM759.2733 282.8857C759.2733 188.1557 815.4333 114.9157 879.3933 79.7557L884.7633 83.6657C876.4633 107.1057 869.1433 139.8157 869.1433 177.4157C869.1433 318.0357 971.6833 414.2257 1113.2833 414.2257C1147.9533 414.2257 1180.1733 408.3757 1202.6333 401.0457L1206.0533 404.4657C1175.7833 461.5957 1098.1433 524.5857 974.1233 525.0657C945.8033 439.1357 869.6333 376.6357 771.4833 361.4957C763.1833 336.5957 759.2733 310.2257 759.2733 282.8857ZM205.0733 766.2857C122.0733 766.2857 78.1233 718.4257 78.1233 657.3957C78.1233 605.6357 108.4033 560.2257 180.1733 540.6957C203.6133 534.8357 212.4033 524.0957 214.3533 499.1957C225.5833 362.4757 327.1533 263.8357 449.2233 263.8357C543.9433 263.8357 617.6733 316.0857 663.0833 406.9057C673.8233 427.9057 685.5433 435.2257 710.4533 435.2257C836.9133 435.2257 907.7133 511.3957 907.7133 602.2157C907.7133 693.0357 833.4933 766.2857 736.8133 766.2857Z"/>
</svg>