<?xml version="1.0" encoding="UTF-8" standalone="no"?>
<svg xmlns="http://www.w3.org/2000/svg"
     width="1418.9453125" height="986.81640625"
     viewBox="0 0 1418.9453125 986.81640625"
     fill="currentColor">
  <path d="M913.5733 187.0123C936.0333 187.0123 954.1033 167.9723 954.1033 146.4823V40.5223C954.1033 18.5523 936.0333 0.0023 913.5733 0.0023C891.1133 0.0023 873.0433 18.5523 873.0433 40.5223V146.4823C873.0433 167.9723 891.1133 187.0123 913.5733 187.0123ZM630.3733 280.7623C646.4833 296.8723 672.8533 296.3823 687.9933 280.7623C703.1233 265.1323 703.6133 239.7423 687.9933 224.1223L612.7933 148.9223C597.1633 133.3023 571.7733 133.3023 556.1533 148.9223C540.5233 164.5523 540.0433 190.4323 556.1533 206.0523ZM1139.1633 280.7623C1154.2933 296.3823 1180.6633 296.8723 1196.7733 280.7623L1271.4833 206.0523C1287.1133 190.4323 1287.1133 164.5523 1271.4833 148.9223C1255.8633 133.3023 1230.4733 133.3023 1214.8433 148.9223L1139.1633 224.1223C1123.5333 239.7423 1124.0233 265.1323 1139.1633 280.7623ZM207.0333 986.8123H735.3533C876.4633 986.8123 986.3233 879.8823 986.3233 742.1923C986.3233 741.2123 986.3233 740.2323 986.3233 738.7723C1084.4733 707.0323 1154.7833 614.7423 1154.7833 506.3523C1154.7833 372.0723 1047.8533 264.1623 913.5733 264.1623C804.6833 264.1623 713.3833 335.4523 683.1033 434.0823C624.0233 367.1923 542.4833 328.1223 449.2233 328.1223C287.5933 328.1223 152.3433 452.6323 136.2333 613.2823C55.1733 638.6723 0.0033 708.9823 0.0033 797.8523C0.0033 907.7123 83.0033 986.8123 207.0333 986.8123ZM913.5733 335.9423C1008.7933 335.9423 1083.4933 410.6423 1083.4933 506.3523C1083.4933 579.5923 1039.0633 642.0923 974.1233 667.4823C943.3633 573.7323 854.9833 507.8123 743.6533 500.9723C746.5833 407.7123 819.8233 335.9423 913.5733 335.9423ZM205.0733 908.6923C122.0733 908.6923 78.1233 860.8423 78.1233 799.8023C78.1233 748.0423 108.4033 702.6323 180.1733 683.1023C203.6133 677.2423 212.4033 666.5023 214.3533 641.6023C225.5833 504.8823 327.1533 406.2523 449.2233 406.2523C543.9433 406.2523 617.6733 458.4923 663.0833 549.3123C673.8233 570.3123 685.5433 577.6323 710.4533 577.6323C836.9133 577.6323 907.7133 653.8123 907.7133 744.6323C907.7133 835.4523 833.4933 908.6923 736.8133 908.6923ZM1272.9533 546.8723H1378.9033C1400.8833 546.8723 1418.9433 528.8123 1418.9433 506.3523C1418.9433 484.3723 1400.8833 465.8223 1378.9033 465.8223H1272.9533C1251.4633 465.8223 1232.4233 484.3723 1232.4233 506.3523C1232.4233 528.8123 1251.4633 546.8723 1272.9533 546.8723ZM1214.8433 864.7423C1230.4733 880.3723 1255.8633 879.8823 1271.4833 864.2623C1287.1133 848.6323 1287.1133 822.7523 1271.4833 807.6123L1195.8033 732.9123C1180.1733 717.7723 1154.7833 717.2823 1139.1633 732.9123C1123.5333 748.5323 1123.5333 774.4123 1139.1633 790.0423Z"/>
</svg>