<?xml version="1.0" encoding="UTF-8" standalone="no"?>
<svg xmlns="http://www.w3.org/2000/svg"
     width="1114.74609375" height="1122.2151741790267"
     viewBox="0 0 1114.74609375 1122.2151741790267"
     fill="currentColor">
  <path d="M229.4877 739.7411H835.4477C995.6077 739.7411 1114.7477 618.1611 1114.7477 467.7711C1114.7477 312.0111 987.7977 198.2411 822.2677 198.2411C761.2277 77.6411 647.9477 0.0011 506.8377 0.0011C323.2377 0.0011 171.8777 144.0411 155.7577 325.1911C67.3877 351.0711 -0.0023 427.7311 -0.0023 530.7611C-0.0023 646.4811 83.9877 739.7411 229.4877 739.7411ZM630.8577 967.7711L694.3377 857.4211C703.1277 842.7711 698.2377 825.6811 683.5977 816.8911C668.9477 808.5911 652.3477 812.9911 643.5577 828.1211L579.5877 939.4511C571.2877 953.1211 575.1977 970.2111 590.3277 979.0011C604.9777 987.3011 622.5577 981.9311 630.8577 967.7711ZM744.1377 1106.9311L888.6677 856.9311C896.9777 842.2811 892.5777 825.6811 878.4177 817.3811C864.7477 808.5911 847.1677 812.9911 838.3777 828.1211L694.8277 1077.1511C686.5277 1091.8011 690.9177 1108.8911 705.0777 1117.6711C719.2377 1125.9811 735.8377 1121.5811 744.1377 1106.9311ZM242.1877 968.2611L305.6677 857.9111C314.9377 843.2611 310.0577 826.1711 295.4077 817.3811C280.7577 809.0811 264.1577 813.4811 254.8877 828.6111L190.9177 939.9411C182.6177 953.6111 187.0077 970.7011 202.1477 979.4911C216.3077 987.7911 233.8877 982.4211 242.1877 968.2611ZM355.9577 1107.4211L499.9977 857.4211C508.2977 842.7711 504.3977 826.1711 490.2377 817.8711C476.0777 809.0811 458.0077 813.4811 449.7077 828.6111L306.6377 1077.6411C298.3377 1092.2811 302.2477 1109.3711 316.8977 1118.1611C331.0577 1126.4611 347.6577 1121.5811 355.9577 1107.4211Z"/>
</svg>