<?xml version="1.0" encoding="UTF-8" standalone="no"?>
<svg xmlns="http://www.w3.org/2000/svg"
     width="1114.74609375" height="1172.2127188787767"
     viewBox="0 0 1114.74609375 1172.2127188787767"
     fill="currentColor">
  <path d="M229.4877 739.7411H835.4477C995.6077 739.7411 1114.7477 618.1611 1114.7477 467.7711C1114.7477 312.0111 987.7977 198.2411 822.2677 198.2411C761.2277 77.6411 647.9477 0.0011 506.8377 0.0011C323.2377 0.0011 171.8777 144.0411 155.7577 325.1911C67.3877 351.0711 -0.0023 427.7311 -0.0023 530.7611C-0.0023 646.4811 83.9877 739.7411 229.4877 739.7411ZM674.8077 920.9011H574.7077L622.5577 828.6111C628.4177 817.8711 624.0277 809.5711 613.2777 809.5711H507.3277C493.1677 809.5711 488.2777 814.4511 483.8877 824.7111L417.4777 976.0711C412.1077 988.2811 417.4777 995.6011 430.1777 995.6011H515.1377L448.2377 1157.7111C445.7977 1164.0611 447.2677 1169.4311 451.6577 1171.3911C456.0577 1173.3411 461.4277 1171.8711 466.7977 1166.5011L682.6177 945.3111C692.8677 934.5711 688.9677 920.9011 674.8077 920.9011Z"/>
</svg>