<?xml version="1.0" encoding="UTF-8" standalone="no"?>
<svg xmlns="http://www.w3.org/2000/svg"
     width="1415.0390625" height="983.3984375"
     viewBox="0 0 1415.0390625 983.3984375"
     fill="currentColor">
  <path d="M909.667 187.0144C932.127 187.0144 950.197 167.9644 950.197 146.4844V40.5244C950.197 18.5544 932.127 0.0044 909.667 0.0044C887.207 0.0044 869.137 18.5544 869.137 40.5244V146.4844C869.137 167.9644 887.207 187.0144 909.667 187.0144ZM626.467 280.7644C642.577 296.8744 668.947 296.3844 684.087 280.7644C699.217 265.1344 699.707 239.7444 684.087 224.1244L608.887 148.9244C593.257 133.3044 567.867 133.3044 552.247 148.9244C536.617 164.5544 536.137 190.4344 552.247 206.0544ZM1135.257 280.7644C1150.387 296.3844 1176.757 296.8744 1192.867 280.7644L1267.577 206.0544C1283.207 190.4344 1283.207 164.5544 1267.577 148.9244C1251.957 133.3044 1226.567 133.3044 1210.937 148.9244L1135.257 224.1244C1119.627 239.7444 1120.117 265.1344 1135.257 280.7644ZM1035.157 715.8244C1106.937 666.9944 1150.877 592.7744 1150.877 506.3444C1150.877 372.0744 1043.947 264.1644 909.667 264.1644C821.287 264.1644 744.627 312.0144 704.097 382.3244C724.607 403.8044 742.187 426.7544 756.837 455.0744C917.967 467.7744 1021.977 568.3544 1035.157 715.8244ZM203.617 983.3944H731.937C871.097 983.3944 979.007 877.9344 979.007 742.1844C979.007 607.4244 869.137 505.3744 723.147 504.3944C666.997 397.4644 565.917 332.0344 445.317 332.0344C286.137 332.0344 151.367 455.5644 136.227 616.2144C55.177 640.6244 -0.003 709.9644 -0.003 797.8544C-0.003 906.2544 81.547 983.3944 203.617 983.3944ZM1269.047 546.8744H1374.997C1396.977 546.8744 1415.037 528.8044 1415.037 506.3444C1415.037 484.3744 1396.977 465.8244 1374.997 465.8244H1269.047C1247.557 465.8244 1228.517 484.3744 1228.517 506.3444C1228.517 528.8044 1247.557 546.8744 1269.047 546.8744ZM1210.937 864.7444C1226.567 880.3744 1251.957 879.8844 1267.577 864.2544C1283.207 848.6344 1283.207 822.7544 1267.577 807.6144L1191.897 732.9144C1176.267 717.7744 1150.877 717.2844 1135.257 732.9144C1119.627 748.5344 1119.627 774.4144 1135.257 790.0344Z"/>
</svg>