<?xml version="1.0" encoding="UTF-8" standalone="no"?>
<svg xmlns="http://www.w3.org/2000/svg"
     width="996.09375" height="996.09375"
     viewBox="0 0 996.09375 996.09375"
     fill="currentColor">
  <path d="M498.0477 996.0977C770.5077 996.0977 996.0977 770.5077 996.0977 498.0477C996.0977 226.0777 770.0177 -0.0023 497.5577 -0.0023C225.5877 -0.0023 -0.0023 226.0777 -0.0023 498.0477C-0.0023 770.5077 226.0777 996.0977 498.0477 996.0977ZM335.9377 547.8477C264.1577 547.8477 222.6577 501.4677 222.6577 444.8277C222.6577 393.0677 255.8577 355.9577 299.3177 342.7777C307.6177 253.4177 382.8077 181.6377 473.1477 181.6377C542.9677 181.6377 598.6377 220.7077 629.3977 279.7877C710.9377 279.7877 773.9277 336.4277 773.9277 413.5777C773.9277 487.3077 713.8677 547.8477 635.7377 547.8477ZM413.0877 690.9177L454.0977 596.1877C457.0277 589.3577 460.9377 586.9177 469.7277 586.9177H537.1077C544.4377 586.9177 546.3877 592.2877 543.4577 599.1177L513.6677 655.7577H575.1977C584.9577 655.7577 587.3977 664.5477 581.0577 671.8777L444.8277 810.0577C441.4077 814.4577 437.9877 814.9377 435.0577 814.4577C432.1277 812.0077 431.1477 808.5977 433.1077 804.1977L473.6377 704.0977H421.3877C412.5977 704.0977 409.1777 697.7577 413.0877 690.9177Z"/>
</svg>