<?xml version="1.0" encoding="UTF-8" standalone="no"?>
<svg xmlns="http://www.w3.org/2000/svg"
     width="996.09375" height="996.09375"
     viewBox="0 0 996.09375 996.09375"
     fill="currentColor">
  <path d="M498.0477 996.0959C770.5077 996.0959 996.0977 770.0159 996.0977 498.0459C996.0977 225.5859 770.0177 -0.0041 497.5577 -0.0041C225.5877 -0.0041 -0.0023 225.5859 -0.0023 498.0459C-0.0023 770.0159 226.0777 996.0959 498.0477 996.0959ZM498.0477 913.0859C267.5777 913.0859 83.4977 728.5159 83.4977 498.0459C83.4977 267.5759 267.0877 83.0059 497.5577 83.0059C728.0277 83.0059 913.0877 267.5759 913.0877 498.0459C913.0877 728.5159 728.5177 913.0859 498.0477 913.0859ZM594.7277 267.0859C607.4177 267.0859 617.1877 257.3259 617.1877 245.1159V195.7959C617.1877 184.0859 607.4177 173.8259 594.7277 173.8259C583.0077 173.8259 572.7577 184.0859 572.7577 195.7959V245.1159C572.7577 257.3259 583.0077 267.0859 594.7277 267.0859ZM695.3077 308.5959C703.6177 316.8959 718.7477 317.8759 727.5377 309.0859L761.7177 273.9259C770.0177 265.6259 769.5277 250.9759 761.7177 243.1659C752.9277 234.8659 739.2577 234.3759 730.4677 243.1659L695.3077 277.8359C686.5277 286.1359 687.4977 300.2959 695.3077 308.5959ZM463.3777 309.0859C472.1677 317.8759 486.8177 316.8959 495.1177 309.0859C502.9277 300.7859 503.9077 286.1359 495.1177 277.8359L459.9577 243.1659C451.1677 234.8659 437.4977 234.8659 428.7077 243.1659C420.4077 250.9759 420.4077 265.1359 428.7077 273.9259ZM709.4777 409.1759C709.4777 345.2159 658.6877 295.4059 594.7277 295.4059C556.1477 295.4059 521.4877 314.9459 501.4677 344.7259C511.7177 354.0059 520.0177 364.2559 527.8277 376.4659C598.1477 385.7459 651.8577 436.5259 659.1777 503.9059C690.4277 481.9359 709.4777 447.7559 709.4777 409.1759ZM268.0677 635.7459H510.2577C576.1677 635.7459 626.4677 585.4459 626.4677 520.9959C626.4677 458.0059 575.6877 409.6659 507.8077 408.2059C481.4477 359.3759 435.0577 329.1059 378.9077 329.1059C304.6877 329.1059 242.1877 386.7159 233.8877 460.4459C197.2677 472.6559 171.3877 505.3759 171.3877 546.8759C171.3877 597.6559 209.9577 635.7459 268.0677 635.7459ZM759.2777 431.1559H807.6177C820.3077 431.1559 830.0777 421.3859 830.0777 409.1759C830.0777 396.4859 820.3077 387.2059 807.6177 387.2059H759.2777C747.5577 387.2059 737.3077 396.4859 737.3077 409.1759C737.3077 421.3859 747.5577 431.1559 759.2777 431.1559ZM730.4677 576.1759C739.2577 584.9559 752.9277 583.9859 761.7177 575.6859C769.5277 566.8959 770.0177 552.2459 761.7177 544.4359L727.5377 510.2559C718.7477 501.9559 704.0977 501.9559 695.3077 510.2559C687.4977 518.5559 686.5277 533.2059 695.3077 541.5059ZM287.1077 739.2559L314.9377 691.4059C320.3077 682.6159 317.3877 672.3659 308.1077 666.9959C299.8077 662.1059 289.0577 665.5259 284.1777 673.8259L256.3477 721.6759C251.9577 729.4959 254.3977 741.2059 263.1877 745.1159C271.4877 750.4859 282.2277 747.5559 287.1077 739.2559ZM444.8277 739.2559L472.6577 691.4059C477.5377 683.1059 474.1177 672.3659 465.8177 667.4759C457.0277 662.1059 446.2877 665.0359 441.4077 673.3359L414.0577 721.1959C409.6677 729.4959 411.6177 740.7259 420.4077 745.6059C429.6877 749.9959 439.9377 747.0659 444.8277 739.2559ZM349.6077 791.0159L375.4877 745.6059C379.8877 737.7959 377.9277 726.5659 368.6477 721.6759C359.8677 716.7959 349.6077 719.7259 344.2377 728.5159L317.8677 773.4359C312.9877 781.7359 316.4077 792.9659 325.1977 797.3659C333.4977 802.7359 344.7277 799.3159 349.6077 791.0159ZM506.8377 791.0159L533.2077 746.0959C537.5977 737.7959 534.6677 726.0759 525.8777 721.6759C517.5777 717.2859 507.3277 719.7259 501.9577 728.5159L475.5877 773.4359C470.2177 782.2259 473.6377 792.9659 482.9077 797.8559C491.2077 802.7359 501.9577 799.3159 506.8377 791.0159Z"/>
</svg>