<?xml version="1.0" encoding="UTF-8" standalone="no"?>
<svg xmlns="http://www.w3.org/2000/svg"
     width="996.09375" height="996.09375"
     viewBox="0 0 996.09375 996.09375"
     fill="currentColor">
  <path d="M498.0477 996.0959C770.5077 996.0959 996.0977 770.0159 996.0977 498.0459C996.0977 225.5859 770.0177 -0.0041 497.5577 -0.0041C225.5877 -0.0041 -0.0023 225.5859 -0.0023 498.0459C-0.0023 770.0159 226.0777 996.0959 498.0477 996.0959ZM498.0477 913.0859C267.5777 913.0859 83.4977 728.5159 83.4977 498.0459C83.4977 267.5759 267.0877 83.0059 497.5577 83.0059C728.0277 83.0059 913.0877 267.5759 913.0877 498.0459C913.0877 728.5159 728.5177 913.0859 498.0477 913.0859ZM823.7277 447.7559C823.7277 437.9859 819.8277 431.6359 812.0077 431.6359C800.2977 431.6359 782.2277 446.7759 749.0277 446.7759C688.9677 446.7759 650.8777 411.1359 650.8777 355.9559C650.8777 323.7259 668.4577 300.2959 668.4577 287.5959C668.4577 280.2759 662.5977 275.3859 653.3177 275.3859C604.9777 277.8359 543.9477 334.9559 536.1377 406.2459C541.5077 412.1059 546.3877 418.9459 551.2677 425.7859C626.9577 435.0559 683.5977 491.2059 689.9377 563.9659C773.4377 556.1559 823.7277 489.7459 823.7277 447.7559ZM277.3477 698.2459H533.6877C603.0277 698.2459 656.2477 645.9959 656.2477 577.6359C656.2477 510.7459 603.0277 460.4459 530.7577 458.4959C503.4177 406.7359 454.0977 374.9959 395.0177 374.9959C316.4077 374.9959 250.4877 436.0359 241.6977 513.1859C202.6377 526.3659 175.2977 561.0359 175.2977 604.4959C175.2977 658.6959 216.7977 698.2459 277.3477 698.2459Z"/>
</svg>