<?xml version="1.0" encoding="UTF-8" standalone="no"?>
<svg xmlns="http://www.w3.org/2000/svg"
     width="996.09375" height="996.09375"
     viewBox="0 0 996.09375 996.09375"
     fill="currentColor">
  <path d="M498.0477 996.0977C770.5077 996.0977 996.0977 770.5077 996.0977 498.0477C996.0977 226.0777 770.0177 -0.0023 497.5577 -0.0023C225.5877 -0.0023 -0.0023 226.0777 -0.0023 498.0477C-0.0023 770.5077 226.0777 996.0977 498.0477 996.0977ZM609.8677 309.0777C596.6777 309.0777 585.4477 297.8477 585.4477 285.1577V231.4477C585.4477 217.7777 596.6777 207.5177 609.8677 207.5177C623.5377 207.5177 634.2777 217.7777 634.2777 231.4477V285.1577C634.2777 297.8477 623.5377 309.0777 609.8677 309.0777ZM719.2377 354.4877C710.4477 345.2177 709.9577 329.5877 719.2377 320.7977L756.8377 282.7177C766.5977 273.4377 782.2277 273.9277 791.5077 282.7177C800.2977 291.9877 800.2977 307.1277 791.5077 316.8977L753.9077 354.9777C745.1177 364.2577 728.5177 363.2777 719.2377 354.4877ZM466.3077 354.9777L428.7077 316.8977C420.4077 307.1277 420.4077 291.5077 428.7077 282.7177C437.9877 273.9277 453.1277 273.9277 462.8877 282.7177L501.4677 320.7977C509.7677 329.5877 509.2777 345.2177 501.4677 354.4877C491.6977 363.2777 475.5877 364.2577 466.3077 354.9777ZM734.3777 463.8677C734.3777 505.3677 713.8677 542.9677 679.6877 566.4077C671.8777 493.1677 613.2777 437.4977 536.6177 427.7377C528.3177 414.5477 519.0477 403.3177 507.8077 393.5577C529.7877 360.8377 567.3877 339.8477 609.8677 339.8477C678.7077 339.8477 734.3777 394.0477 734.3777 463.8677ZM253.9077 709.9577C190.9177 709.9577 147.9477 668.9477 147.9477 613.2777C147.9477 568.8477 176.7577 532.7177 216.7977 519.5277C225.5877 439.4577 293.4577 376.4677 374.5077 376.4677C436.0377 376.4677 486.3277 409.6677 514.6477 462.8877C588.8677 464.3577 643.5577 516.5977 643.5577 585.4477C643.5577 655.7577 589.3577 709.9577 517.5777 709.9577ZM789.0577 487.7977C775.3877 487.7977 764.6477 477.0477 764.6477 463.8677C764.6477 450.1977 775.3877 439.9377 789.0577 439.9377H841.3077C854.9777 439.9377 865.7277 450.1977 865.7277 463.8677C865.7277 477.0477 854.9777 487.7977 841.3077 487.7977ZM756.8377 645.5077L719.2377 607.9077C709.9577 598.1477 710.4477 583.0077 719.2377 573.7277C729.0077 564.4577 744.6277 564.4577 753.9077 573.7277L791.5077 610.8377C800.7777 619.6277 800.2977 635.7377 791.5077 645.0177C782.2277 654.2977 766.5977 655.2777 756.8377 645.5077Z"/>
</svg>