<?xml version="1.0" encoding="UTF-8" standalone="no"?>
<svg xmlns="http://www.w3.org/2000/svg"
     width="996.09375" height="996.09375"
     viewBox="0 0 996.09375 996.09375"
     fill="currentColor">
  <path d="M498.0477 996.0959C770.5077 996.0959 996.0977 770.0159 996.0977 498.0459C996.0977 225.5859 770.0177 -0.0041 497.5577 -0.0041C225.5877 -0.0041 -0.0023 225.5859 -0.0023 498.0459C-0.0023 770.0159 226.0777 996.0959 498.0477 996.0959ZM498.0477 913.0859C267.5777 913.0859 83.4977 728.5159 83.4977 498.0459C83.4977 267.5759 267.0877 83.0059 497.5577 83.0059C728.0277 83.0059 913.0877 267.5759 913.0877 498.0459C913.0877 728.5159 728.5177 913.0859 498.0477 913.0859ZM340.8177 558.5959H631.8377C707.5177 558.5959 765.6277 499.9959 765.6277 428.2259C765.6277 353.5159 704.5877 298.8259 625.4877 298.8259C595.7077 241.2059 541.5077 203.6159 474.1177 203.6159C386.2277 203.6159 313.4777 272.9459 305.1777 360.3559C263.1877 372.5559 230.9577 409.1759 230.9577 458.4959C230.9577 513.6759 270.9977 558.5959 340.8177 558.5959ZM368.6477 687.0159L397.4577 637.2059C403.3177 627.4459 399.8977 612.7959 389.1577 606.9359C378.4177 600.5859 364.7477 604.9759 358.8877 615.2359L330.0777 664.5459C324.2177 674.8059 327.6377 689.4559 338.3777 695.3159C349.1177 701.6559 362.7977 697.2659 368.6477 687.0159ZM502.4377 687.0159L531.2477 637.2059C537.1077 627.4459 534.1777 612.7959 522.9477 606.9359C512.6977 600.5859 498.5377 604.9759 493.1677 615.2359L464.3577 664.5459C458.4977 674.8059 461.4277 689.4559 472.6577 695.3159C482.9077 701.6559 497.0677 697.2659 502.4377 687.0159ZM636.2277 687.0159L665.0377 637.2059C670.8977 627.4459 667.9677 612.7959 656.7377 606.9359C645.9977 600.5859 632.3277 604.9759 626.4677 615.2359L597.6577 664.5459C591.7977 674.8059 595.2177 689.4559 605.9577 695.3159C616.6977 701.6559 630.3677 697.2659 636.2277 687.0159ZM311.0377 783.6959C328.6177 783.6959 343.2577 768.5559 343.2577 750.9759C343.2577 733.3959 328.6177 718.7459 311.0377 718.7459C292.9677 718.7459 278.3177 733.3959 278.3177 750.9759C278.3177 768.5559 292.9677 783.6959 311.0377 783.6959ZM444.8277 783.6959C462.8877 783.6959 477.5377 768.5559 477.5377 750.9759C477.5377 733.3959 462.8877 718.7459 444.8277 718.7459C427.2477 718.7459 412.5977 733.3959 412.5977 750.9759C412.5977 768.5559 427.2477 783.6959 444.8277 783.6959ZM578.6177 783.6959C596.1877 783.6959 611.3277 768.5559 611.3277 750.9759C611.3277 733.3959 596.1877 718.7459 578.6177 718.7459C561.0377 718.7459 545.8977 733.3959 545.8977 750.9759C545.8977 768.5559 561.0377 783.6959 578.6177 783.6959Z"/>
</svg>