<?xml version="1.0" encoding="UTF-8" standalone="no"?>
<svg xmlns="http://www.w3.org/2000/svg"
     width="1412.59765625" height="1397.798656378777"
     viewBox="0 0 1412.59765625 1397.798656378777"
     fill="currentColor">
  <path d="M907.2256 186.5225C929.6856 186.5225 947.7556 167.9725 947.7556 145.9925V40.5225C947.7556 18.5525 929.6856 0.0025 907.2256 0.0025C884.7656 0.0025 866.6956 18.5525 866.6956 40.5225V145.9925C866.6956 167.9725 884.7656 186.5225 907.2256 186.5225ZM624.0256 280.7625C640.1356 296.8725 666.5056 296.3825 681.6456 280.7625C696.7756 265.1325 697.2656 239.7425 681.6456 224.1225L606.4456 148.9225C590.8156 132.8125 565.4256 133.3025 549.8056 148.9225C534.1756 164.5525 533.6956 190.4325 549.8056 206.0525ZM1132.8156 280.7625C1147.9456 296.3825 1174.3156 296.8725 1190.4256 280.7625L1265.1356 206.0525C1280.7656 190.4325 1280.7656 164.5525 1265.1356 148.9225C1249.5156 133.3025 1224.1256 132.8125 1208.4956 148.9225L1132.8156 224.1225C1117.1856 239.7425 1117.6756 265.1325 1132.8156 280.7625ZM1032.7156 715.8225C1104.4956 666.9925 1148.4356 592.7725 1148.4356 506.3525C1148.4356 372.0725 1041.5056 264.1625 907.2256 264.1625C818.8456 264.1625 742.1856 312.0125 701.6556 382.3225C722.1656 403.8125 739.7456 426.2725 754.3956 454.5925C915.5256 467.7725 1019.5356 567.8725 1032.7156 715.8225ZM202.6356 981.4425H730.9556C869.1456 981.4425 976.5656 876.4625 976.5656 741.2125C976.5656 606.9325 867.1856 505.3725 721.1956 504.3925C664.0656 395.0225 562.4956 332.0325 444.3356 332.0325C285.6456 332.0325 150.8756 455.0825 136.2256 615.7225C53.2256 640.6225 -0.0044 710.9325 -0.0044 796.8725C-0.0044 906.2525 82.5156 981.4425 202.6356 981.4425ZM1266.6056 546.8725H1372.5556C1394.5356 546.8725 1412.5956 528.8125 1412.5956 506.3525C1412.5956 483.8825 1394.5356 465.8225 1372.5556 465.8225H1266.6056C1245.1156 465.8225 1226.0756 483.8825 1226.0756 506.3525C1226.0756 528.8125 1245.1156 546.8725 1266.6056 546.8725ZM1208.4956 864.7425C1224.1256 880.3725 1249.5156 879.8825 1265.1356 864.2625C1280.7656 848.6325 1280.7656 822.7525 1265.1356 807.6125L1189.4556 732.9125C1173.8256 717.7725 1148.4356 717.2825 1132.8156 732.9125C1117.1856 748.0425 1117.1856 774.4125 1132.8156 790.0425ZM609.8656 1159.6725H512.6956L557.6156 1075.1925C563.4756 1064.4525 559.0856 1056.6425 548.3356 1056.6425H446.2856C432.6156 1056.6425 428.2256 1061.5225 423.8256 1071.2925L361.3256 1213.3825C356.4456 1225.1025 361.8156 1232.4225 374.0256 1232.4225H455.5656L393.0656 1383.3025C390.1356 1390.1325 391.6056 1395.0225 396.4856 1396.9725C400.8756 1398.9225 406.2456 1397.4625 410.6456 1392.0925L617.1856 1183.1025C627.4456 1172.8525 624.0256 1159.6725 609.8656 1159.6725Z"/>
</svg>