<?xml version="1.0" encoding="UTF-8" standalone="no"?>
<svg xmlns="http://www.w3.org/2000/svg"
     width="996.09375" height="996.09375"
     viewBox="0 0 996.09375 996.09375"
     fill="currentColor">
  <path d="M498.0477 996.0959C770.5077 996.0959 996.0977 770.0159 996.0977 498.0459C996.0977 225.5859 770.0177 -0.0041 497.5577 -0.0041C225.5877 -0.0041 -0.0023 225.5859 -0.0023 498.0459C-0.0023 770.0159 226.0777 996.0959 498.0477 996.0959ZM498.0477 913.0859C267.5777 913.0859 83.4977 728.5159 83.4977 498.0459C83.4977 267.5759 267.0877 83.0059 497.5577 83.0059C728.0277 83.0059 913.0877 267.5759 913.0877 498.0459C913.0877 728.5159 728.5177 913.0859 498.0477 913.0859ZM352.0477 544.9259H642.5777C718.7477 544.9259 776.3677 486.3259 776.3677 414.5459C776.3677 339.3559 715.3277 285.1559 636.2277 285.1559C606.9377 227.5359 552.7377 189.9459 485.3477 189.9459C396.9777 189.9459 324.7077 259.2759 316.4077 346.1959C274.4177 358.8859 242.1877 395.0159 242.1877 444.8259C242.1877 499.9959 282.2277 544.9259 352.0477 544.9259ZM381.3477 670.4059L408.6877 623.5359C414.0577 613.2859 411.1377 599.1259 399.8977 592.7759C389.6477 586.9159 375.9777 591.3059 370.1177 601.5659L342.7777 648.4359C337.3977 658.2059 340.3277 672.8559 351.0777 678.7059C361.8177 685.0559 375.4877 680.6659 381.3477 670.4059ZM515.1377 670.4059L542.4777 623.5359C548.3377 613.2859 545.4077 599.1259 534.1777 592.7759C523.9277 586.9159 509.7677 591.3059 504.3977 601.5659L477.0477 648.4359C471.1877 658.2059 474.1177 672.8559 485.3477 678.7059C495.6077 685.0559 509.7677 680.6659 515.1377 670.4059ZM648.9277 670.4059L676.2677 623.5359C681.6377 613.2859 678.7077 599.1259 667.9677 592.7759C657.2277 586.9159 643.5577 591.3059 637.6977 601.5659L610.3477 648.4359C604.9777 658.2059 607.9077 672.8559 618.6477 678.7059C629.3977 685.0559 643.0677 680.6659 648.9277 670.4059ZM322.7577 787.5959C329.0977 787.5959 334.4777 782.2259 333.9877 774.9059L332.5177 755.8559L348.1477 766.6059C353.5177 770.0159 361.3277 767.5759 364.7477 763.1859C368.1677 757.8159 367.6777 749.0259 359.8677 745.1159L342.7777 737.7959L359.8677 729.0059C366.6977 725.5859 368.1677 718.2659 365.7277 712.8859C362.3077 706.5459 353.5177 705.5659 348.1477 708.9859L332.5177 719.2359L333.9877 700.6859C334.4777 692.8759 329.0977 687.4959 322.7577 687.4959C314.9377 687.4959 310.0577 693.3559 310.5477 700.6859L311.5277 719.2359L295.8977 708.9859C291.0177 705.5659 282.7177 706.0559 279.2977 712.4059C276.8577 716.7959 276.8577 726.0759 284.6677 729.4959L300.7777 737.7959L284.6677 745.1159C276.8577 749.0259 275.3877 756.8359 278.8077 762.2059C282.2277 769.0459 290.5277 770.0159 295.8977 766.6059L311.5277 755.8559L311.0377 774.9059C311.0377 781.7359 314.9377 787.5959 322.7577 787.5959ZM456.5477 787.5959C462.8877 787.5959 468.2577 782.2259 467.7777 774.9059L466.7977 755.8559L481.9377 766.6059C487.3077 770.0159 495.6077 767.5759 498.5377 763.1859C502.4377 757.8159 501.4677 749.0259 493.6477 745.1159L477.0477 737.7959L493.6477 729.0059C500.9777 725.5859 501.9577 718.2659 499.5077 712.8859C496.5777 706.5459 487.3077 705.5659 481.9377 708.9859L466.7977 719.2359L467.7777 700.6859C468.2577 692.8759 462.8877 687.4959 456.5477 687.4959C449.2177 687.4959 443.8477 693.3559 444.3377 700.6859L445.7977 719.2359L429.6877 708.9859C424.8077 705.5659 416.9877 706.0559 413.5777 712.4059C410.6477 716.7959 411.1377 726.0759 418.4577 729.4959L435.0577 737.7959L418.4577 745.1159C411.1377 749.0259 409.6677 756.8359 412.5977 762.2059C416.0177 769.0459 424.3177 770.0159 429.6877 766.6059L445.7977 755.8559L444.8277 774.9059C444.8277 781.7359 449.2177 787.5959 456.5477 787.5959ZM590.3277 787.5959C596.6777 787.5959 602.0477 782.2259 601.5577 774.9059L600.5877 755.8559L615.7277 766.6059C621.0977 770.0159 628.9077 767.5759 632.3277 763.1859C636.2277 757.8159 635.2577 749.0259 627.4377 745.1159L610.3477 737.7959L627.4377 729.0059C634.2777 725.5859 635.7377 718.2659 633.2977 712.8859C629.8877 706.5459 621.0977 705.5659 615.7277 708.9859L600.5877 719.2359L601.5577 700.6859C602.0477 692.8759 596.6777 687.4959 590.3277 687.4959C582.5177 687.4959 577.6377 693.3559 578.1277 700.6859L579.0977 719.2359L563.4777 708.9859C558.5977 705.5659 550.2977 706.0559 546.8777 712.4059C544.4377 716.7959 544.4377 726.0759 552.2477 729.4959L568.3577 737.7959L552.2477 745.1159C544.4377 749.0259 542.9677 756.8359 546.3877 762.2059C549.8077 769.0459 558.1077 770.0159 563.4777 766.6059L579.0977 755.8559L578.6177 774.9059C578.6177 781.7359 582.5177 787.5959 590.3277 787.5959Z"/>
</svg>