<?xml version="1.0" encoding="UTF-8" standalone="no"?>
<svg xmlns="http://www.w3.org/2000/svg"
     width="996.09375" height="996.09375"
     viewBox="0 0 996.09375 996.09375"
     fill="currentColor">
  <path d="M498.0477 996.0959C770.5077 996.0959 996.0977 770.0159 996.0977 498.0459C996.0977 225.5859 770.0177 -0.0041 497.5577 -0.0041C225.5877 -0.0041 -0.0023 225.5859 -0.0023 498.0459C-0.0023 770.0159 226.0777 996.0959 498.0477 996.0959ZM498.0477 913.0859C267.5777 913.0859 83.4977 728.5159 83.4977 498.0459C83.4977 267.5759 267.0877 83.0059 497.5577 83.0059C728.0277 83.0059 913.0877 267.5759 913.0877 498.0459C913.0877 728.5159 728.5177 913.0859 498.0477 913.0859ZM344.7277 560.0559H635.2577C711.4277 560.0559 769.0477 501.9559 769.0477 429.6859C769.0477 354.9759 708.0077 300.7859 628.9077 300.7859C599.6077 243.1659 545.4077 205.0759 478.0277 205.0759C389.6477 205.0759 317.3877 274.4159 309.0777 361.8159C267.0877 374.0259 234.3777 410.6459 234.3777 459.9559C234.3777 515.1359 274.8977 560.0559 344.7277 560.0559ZM327.6377 662.5959H668.4577C680.6677 662.5959 690.9177 652.8359 690.9177 640.1359C690.9177 627.9259 680.6677 618.1659 668.4577 618.1659H327.6377C315.4277 618.1659 305.6677 627.9259 305.6677 640.1359C305.6677 652.8359 315.4277 662.5959 327.6377 662.5959ZM327.6377 761.7159H668.4577C680.6677 761.7159 690.9177 751.9559 690.9177 739.7459C690.9177 727.5359 680.6677 717.7759 668.4577 717.7759H327.6377C315.4277 717.7759 305.6677 727.5359 305.6677 739.7459C305.6677 751.9559 315.4277 761.7159 327.6377 761.7159Z"/>
</svg>