<?xml version="1.0" encoding="UTF-8" standalone="no"?>
<svg xmlns="http://www.w3.org/2000/svg"
     width="996.09375" height="996.09375"
     viewBox="0 0 996.09375 996.09375"
     fill="currentColor">
  <path d="M498.0477 996.0977C770.5077 996.0977 996.0977 770.5077 996.0977 498.0477C996.0977 226.0777 770.0177 -0.0023 497.5577 -0.0023C225.5877 -0.0023 -0.0023 226.0777 -0.0023 498.0477C-0.0023 770.5077 226.0777 996.0977 498.0477 996.0977ZM335.9377 570.7977C264.1577 570.7977 222.6577 524.4177 222.6577 467.7777C222.6577 416.9877 255.8577 378.9077 299.3177 366.6977C307.6177 276.3677 382.8077 205.0777 473.1477 205.0777C542.9677 205.0777 598.6377 244.1377 629.3977 303.7077C710.9377 303.7077 773.9277 359.3777 773.9277 436.5277C773.9277 511.2277 713.8677 570.7977 635.7377 570.7977ZM319.8277 763.6677C310.5477 763.6677 305.6677 756.3477 306.1477 748.0477L307.1277 718.2577L281.7377 735.8377C274.8977 739.7477 264.6477 738.2777 261.2277 730.4677C258.2977 724.1177 259.2777 714.8477 268.5577 710.4477L294.9177 697.2677L268.5577 683.5977C259.7677 679.1977 258.2977 669.4377 262.2077 663.5777C265.6277 656.2477 275.3877 655.2777 281.7377 659.1777L307.1277 676.7577L305.6677 646.4877C305.1777 638.1877 310.5477 630.8577 319.8277 630.8577C327.6377 630.8577 333.4977 638.1877 333.0077 646.9677L331.5477 676.7577L355.9577 659.1777C362.3077 655.2777 373.0477 656.7377 376.4677 663.5777C380.3677 670.8977 378.4177 679.1977 369.6277 683.1077L342.7777 697.2677L369.6277 710.4477C378.9077 714.3577 381.3477 725.0977 375.9777 730.9577C372.0677 737.7977 362.3077 739.7477 355.9577 735.8377L331.5477 718.2577L333.0077 748.0477C333.4977 756.3477 327.6377 763.6677 319.8277 763.6677ZM485.8377 763.6677C477.0477 763.6677 471.1877 756.3477 471.6777 748.0477L473.1477 718.2577L447.7577 735.8377C441.4077 739.7477 431.1477 738.2777 427.7377 730.4677C424.3177 724.1177 425.2977 714.8477 434.5677 710.4477L461.4277 697.2677L434.5677 683.5977C425.7777 679.1977 424.3177 669.4377 428.7077 663.5777C432.1277 656.2477 441.8977 655.2777 447.7577 659.1777L473.1477 676.7577L471.1877 646.4877C470.7077 638.1877 477.0477 630.8577 485.8377 630.8577C494.1377 630.8577 499.5077 638.1877 499.0277 646.9677L497.5577 676.7577L521.9777 659.1777C528.8077 655.2777 539.5477 656.7377 542.9677 663.5777C546.3877 670.8977 544.4377 679.1977 535.6477 683.1077L509.2777 697.2677L535.6477 710.4477C544.9177 714.3577 547.3677 725.0977 542.4777 730.9577C538.5777 737.7977 528.3177 739.7477 521.9777 735.8377L497.5577 718.2577L499.0277 748.0477C499.5077 756.3477 494.1377 763.6677 485.8377 763.6677ZM651.8577 763.6677C643.0677 763.6677 637.6977 756.3477 638.1877 748.0477L639.6477 718.2577L613.7677 735.8377C607.4177 739.7477 597.1677 738.2777 593.7477 730.4677C590.8177 724.1177 591.7977 714.8477 600.5877 710.4477L627.4377 697.2677L600.5877 683.5977C591.7977 679.1977 590.8177 669.4377 594.2377 663.5777C598.1477 656.2477 607.9077 655.2777 613.7677 659.1777L639.6477 676.7577L637.6977 646.4877C637.2077 638.1877 643.0677 630.8577 651.8577 630.8577C660.1577 630.8577 666.0177 638.1877 665.5277 646.9677L663.5777 676.7577L688.4777 659.1777C694.8277 655.2777 705.0777 656.7377 708.9877 663.5777C712.3977 670.8977 710.4477 679.1977 702.1477 683.1077L675.2977 697.2677L702.1477 710.4477C710.9377 714.3577 712.8877 725.0977 708.4977 730.9577C704.5877 737.7977 694.3377 739.7477 688.4777 735.8377L663.5777 718.2577L665.5277 748.0477C666.0177 756.3477 660.1577 763.6677 651.8577 763.6677Z"/>
</svg>