<?xml version="1.0" encoding="UTF-8" standalone="no"?>
<svg xmlns="http://www.w3.org/2000/svg"
     width="996.09375" height="996.09375"
     viewBox="0 0 996.09375 996.09375"
     fill="currentColor">
  <path d="M498.0477 996.0977C770.5077 996.0977 996.0977 770.5077 996.0977 498.0477C996.0977 226.0777 770.0177 -0.0023 497.5577 -0.0023C225.5877 -0.0023 -0.0023 226.0777 -0.0023 498.0477C-0.0023 770.5077 226.0777 996.0977 498.0477 996.0977ZM815.9177 372.5577C815.9177 414.5477 766.1177 479.0077 685.0577 486.8177C678.2277 415.5277 623.5377 360.3477 548.8277 351.0777C543.9477 344.7277 539.0577 337.8877 533.6877 331.5477C541.9877 262.2077 601.5577 206.5477 648.9277 204.0977C658.2077 204.0977 664.0577 208.4977 664.0577 216.3077C664.0577 228.5177 646.4877 251.4677 646.4877 282.7177C646.4877 336.9177 683.5977 371.5777 742.6777 371.5777C774.8977 371.5777 793.4577 356.9377 804.6877 356.9377C812.0077 356.9377 815.9177 362.7977 815.9177 372.5577ZM281.2477 618.6477C221.6777 618.6477 181.6377 580.0777 181.6377 527.3477C181.6377 484.3777 208.0077 451.1677 246.0977 437.9877C254.3977 362.7977 318.8477 302.7377 395.5077 302.7377C453.1277 302.7377 501.4677 334.4677 528.8077 384.7677C598.1477 386.2277 650.3877 436.0377 650.3877 500.9777C650.3877 567.3877 598.6377 618.6477 530.7577 618.6477ZM345.2177 730.4677L378.4177 653.3177C380.8577 647.9477 384.2777 645.9977 391.5977 645.9977H446.2877C452.6377 645.9977 454.5877 650.3877 451.6577 656.7377L427.7377 702.1477H478.5177C486.3277 702.1477 488.7677 709.4677 483.3977 715.3277L372.0677 828.6177C366.2077 833.4977 358.8877 829.5877 361.3277 823.2377L395.0177 741.6977H351.5577C345.2177 741.6977 342.2877 736.8177 345.2177 730.4677Z"/>
</svg>