<?xml version="1.0" encoding="UTF-8" standalone="no"?>
<svg xmlns="http://www.w3.org/2000/svg"
     width="1418.9453125" height="1368.2913867781158"
     viewBox="0 0 1418.9453125 1368.2913867781158"
     fill="currentColor">
  <path d="M913.5733 186.5242C936.0333 186.5242 954.1033 167.9642 954.1033 145.9942V40.5242C954.1033 18.0642 936.0333 0.0042 913.5733 0.0042C891.1133 0.0042 873.0433 18.0642 873.0433 40.5242V145.9942C873.0433 167.9642 891.1133 186.5242 913.5733 186.5242ZM630.3733 280.7642C646.4833 296.8742 672.8533 296.3842 687.9933 280.7642C703.1233 265.1342 703.6133 239.7442 687.9933 224.1242L612.7933 148.4342C597.1633 132.8142 571.7733 132.8142 556.1533 148.4342C540.5233 164.0642 540.0433 189.9442 556.1533 206.0542ZM1139.1633 280.7642C1154.2933 296.3842 1180.6633 296.8742 1196.7733 280.7642L1271.4833 206.0542C1287.1133 189.9442 1287.1133 164.0642 1271.4833 148.4342C1255.8633 132.8142 1230.4733 132.8142 1214.8433 148.4342L1139.1633 224.1242C1123.5333 239.7442 1124.0233 265.1342 1139.1633 280.7642ZM207.0333 986.8142H735.3533C876.4633 986.8142 986.3233 879.8842 986.3233 742.1842C986.3233 741.2142 986.3233 739.7442 986.3233 738.7742C1084.4733 707.0342 1154.7833 614.7442 1154.7833 506.3442C1154.7833 372.0742 1047.8533 264.1642 913.5733 264.1642C804.6833 264.1642 713.3833 334.9642 683.1033 433.5942C624.0233 366.6942 542.4833 327.6342 449.2233 327.6342C287.5933 327.6342 152.3433 452.6342 136.2333 612.7942C55.1733 638.6742 0.0033 708.9842 0.0033 797.8542C0.0033 907.7142 83.0033 986.8142 207.0333 986.8142ZM913.5733 335.9342C1008.7933 335.9342 1083.4933 410.6442 1083.4933 506.3442C1083.4933 579.5942 1039.0633 642.0942 974.1233 667.4842C943.3633 573.7342 854.9833 507.8142 743.6533 500.9742C746.5833 407.7142 819.8233 335.9342 913.5733 335.9342ZM205.0733 908.6942C122.0733 908.6942 78.1233 860.8442 78.1233 799.8042C78.1233 748.0442 108.4033 702.1442 180.1733 683.1042C203.6133 676.7542 212.4033 666.0142 214.3533 641.6042C225.5833 504.8842 327.1533 406.2542 449.2233 406.2542C543.9433 406.2542 617.6733 458.0042 663.0833 549.3142C673.8233 570.3142 685.5433 577.6342 710.4533 577.6342C836.9133 577.6342 907.7133 653.3242 907.7133 744.6242C907.7133 835.4442 833.4933 908.6942 736.8133 908.6942ZM1272.9533 546.8742H1378.9033C1400.8833 546.8742 1418.9433 528.8042 1418.9433 506.3442C1418.9433 483.8842 1400.8833 465.8242 1378.9033 465.8242H1272.9533C1251.4633 465.8242 1232.4233 483.8842 1232.4233 506.3442C1232.4233 528.8042 1251.4633 546.8742 1272.9533 546.8742ZM1214.8433 864.7442C1230.4733 880.3742 1255.8633 879.8842 1271.4833 864.2542C1287.1133 848.6342 1287.1133 822.7542 1271.4833 807.6142L1195.8033 732.4242C1180.1733 717.2842 1154.7833 716.7942 1139.1633 732.4242C1123.5333 748.0442 1123.5333 773.9242 1139.1633 789.5542ZM587.4033 1215.3342L650.8833 1104.9842C659.6633 1090.3342 654.7833 1073.2442 640.1333 1064.4542C625.4933 1056.1542 608.8833 1060.5442 600.0933 1075.6842L536.1333 1187.0142C527.8333 1200.6842 531.7433 1217.7742 546.8733 1226.5642C561.5233 1234.8642 579.1033 1229.4942 587.4033 1215.3342ZM198.7333 1215.8242L262.2033 1105.4642C270.9933 1090.8242 266.6033 1073.7342 251.9533 1064.9442C236.8133 1056.6442 220.2133 1061.0342 211.4233 1076.1742L147.4633 1187.5042C139.1633 1201.1742 143.5533 1218.2642 158.2033 1227.0542C172.8533 1235.3542 190.4333 1229.9842 198.7333 1215.8242ZM739.7433 1352.5342L803.7133 1242.6742C812.5033 1227.5342 807.6133 1210.4542 792.9733 1202.1442C778.3233 1193.3642 761.7233 1198.2442 752.4433 1213.3742L688.4733 1324.2142C680.1733 1338.3742 684.5733 1355.4642 699.7033 1363.7742C713.8633 1372.0742 731.9333 1367.1842 739.7433 1352.5342ZM351.5633 1353.0242L415.0433 1243.1642C423.8233 1228.0242 418.9433 1210.9342 404.7833 1202.6342C389.6533 1193.8442 373.0433 1198.7342 364.2533 1213.8642L300.2933 1324.7042C291.9933 1338.8642 296.3833 1355.9542 311.0333 1364.2542C325.6833 1372.5542 343.2633 1367.6742 351.5633 1353.0242Z"/>
</svg>