<?xml version="1.0" encoding="UTF-8" standalone="no"?>
<svg xmlns="http://www.w3.org/2000/svg"
     width="1283.3047552795385" height="1254.6963637864878"
     viewBox="0 0 1283.3047552795385 1254.6963637864878"
     fill="currentColor">
  <path d="M207.0333 844.2047H735.3533C876.4633 844.2047 986.3233 737.7547 986.3233 600.0647C986.3233 598.5947 986.3233 597.1347 985.8433 595.6647C1143.5533 590.2947 1241.7033 501.4247 1277.8333 407.1947C1293.9433 368.1247 1272.9533 332.4847 1234.8633 332.4847C1205.5633 332.4847 1181.6433 345.1747 1129.8833 345.1747C1005.3733 345.1747 939.4533 275.8447 939.4533 163.0547C939.4533 107.3847 956.5433 77.6047 956.5433 50.2547C956.5433 9.7247 921.8733 -9.8053 878.9033 4.8447C775.3933 39.0247 687.5033 149.3747 687.5033 284.1447C687.5033 288.5347 687.9933 292.9347 687.9933 297.3247C628.9033 226.5247 544.9233 185.5147 449.2233 185.5147C287.5933 185.5147 152.3433 310.5147 136.2333 470.6647C55.1733 496.0547 0.0033 566.3747 0.0033 655.2347C0.0033 765.5847 83.0033 844.2047 207.0333 844.2047ZM759.2733 282.6747C759.2733 188.4447 815.4333 114.7147 879.3933 79.5547L884.7633 83.4647C876.4633 106.8947 869.1433 139.6147 869.1433 177.6947C869.1433 317.8347 971.6833 414.5147 1113.2833 414.5147C1147.9533 414.5147 1180.1733 408.1647 1202.6333 400.8447L1206.0533 404.2647C1175.7833 461.8747 1098.1433 524.3747 974.1233 524.8647C945.8033 438.9247 869.6333 376.9147 771.4833 361.7847C763.1833 336.8747 759.2733 310.0247 759.2733 282.6747ZM205.0733 766.0747C122.0733 766.0747 78.1233 718.2247 78.1233 657.1947C78.1233 605.9247 108.4033 560.0247 180.1733 540.9747C203.6133 534.6347 212.4033 523.8947 214.3533 499.4747C225.5833 362.2647 327.1533 263.6347 449.2233 263.6347C543.9433 263.6347 617.6733 315.8847 663.0833 407.1947C673.8233 428.1847 685.5433 435.0247 710.4533 435.0247C836.9133 435.0247 907.7133 511.1947 907.7133 602.0147C907.7133 693.3247 833.4933 766.0747 736.8133 766.0747ZM611.3233 1017.0547H514.1633L559.0833 932.0947C564.4533 921.3547 560.0633 913.5347 549.3133 913.5347H447.2633C434.0833 913.5347 429.6833 918.9047 425.2933 928.1847L362.7933 1070.2747C357.9133 1081.9947 362.7933 1089.3147 375.4933 1089.3147H457.0333L394.5333 1240.6847C391.6033 1247.0347 393.0633 1252.4047 397.4633 1253.8747C401.8533 1255.8247 407.2233 1254.3547 412.1133 1248.9847L618.6533 1040.4947C628.4133 1030.2347 625.0033 1017.0547 611.3233 1017.0547Z"/>
</svg>