<?xml version="1.0" encoding="UTF-8" standalone="no"?>
<svg xmlns="http://www.w3.org/2000/svg"
     width="1114.74609375" height="1135.7421875"
     viewBox="0 0 1114.74609375 1135.7421875"
     fill="currentColor">
  <path d="M229.4877 739.7411H835.4477C995.6077 739.7411 1114.7477 618.1611 1114.7477 467.7711C1114.7477 312.0111 987.7977 198.2411 822.2677 198.2411C761.2277 77.6411 647.9477 0.0011 506.8377 0.0011C323.2377 0.0011 171.8777 144.0411 155.7577 325.1911C67.3877 351.0711 -0.0023 427.7311 -0.0023 530.7611C-0.0023 646.4811 83.9877 739.7411 229.4877 739.7411ZM228.5177 661.6211C128.4177 661.6211 78.1277 605.4711 78.1277 533.2011C78.1277 474.6111 112.3077 421.8711 195.3077 399.9011C222.1677 392.5811 231.9377 379.8811 234.3777 352.5411C245.6077 192.8711 365.2377 78.1211 506.8377 78.1211C616.6977 78.1211 703.1277 138.6711 755.8577 246.5811C767.0877 270.5111 781.7377 278.8111 810.5477 278.8111C955.0777 278.8111 1036.6177 365.7211 1036.6177 469.7311C1036.6177 576.1711 951.6577 661.6211 840.3277 661.6211ZM292.4777 915.5311L325.1977 857.9111C333.9877 843.2611 329.5877 825.6811 314.9377 816.8911C300.2977 808.5911 283.2077 813.9611 274.4177 828.1211L241.2077 887.2111C233.3977 900.8811 236.8177 917.9711 251.9577 926.7611C266.5977 935.0611 284.1777 930.1711 292.4777 915.5311ZM505.3677 990.2311L581.5477 858.4011C589.8477 843.2611 585.4477 826.1711 571.2877 817.8711C556.1477 809.0811 539.0577 813.9611 530.7577 829.1011L454.0977 961.9111C445.7977 976.0711 450.1977 993.1611 465.3277 1001.4611C479.4877 1009.7611 497.5577 1004.8811 505.3677 990.2311ZM804.1977 917.4811L836.9177 859.8611C845.7077 845.2111 841.3077 827.6411 826.6577 818.8511C812.0077 810.5511 794.9177 815.9211 786.1377 830.0811L752.9277 889.1611C745.1177 902.8311 748.5377 919.9211 763.6677 928.7111C778.3177 937.0111 795.8977 931.6411 804.1977 917.4811ZM206.0577 1061.0311C234.8677 1061.0311 258.7877 1036.6211 258.7877 1007.3211C258.7877 979.0011 234.8677 955.0811 206.0577 955.0811C176.7577 955.0811 152.8277 979.0011 152.8277 1007.3211C152.8277 1036.6211 176.7577 1061.0311 206.0577 1061.0311ZM717.7777 1062.9911C746.5777 1062.9911 770.5077 1038.5711 770.5077 1009.2811C770.5077 980.9611 746.5777 956.5411 717.7777 956.5411C688.4777 956.5411 664.5477 980.9611 664.5477 1009.2811C664.5477 1038.5711 688.4777 1062.9911 717.7777 1062.9911ZM418.9477 1135.7411C447.7577 1135.7411 472.1677 1111.3311 472.1677 1082.0311C472.1677 1053.7111 448.2377 1029.7811 418.9477 1029.7811C390.1377 1029.7811 366.2077 1053.7111 366.2077 1082.0311C366.2077 1111.3311 390.1377 1135.7411 418.9477 1135.7411Z"/>
</svg>