<?xml version="1.0" encoding="UTF-8" standalone="no"?>
<svg xmlns="http://www.w3.org/2000/svg"
     width="1114.74609375" height="1166.9921875"
     viewBox="0 0 1114.74609375 1166.9921875"
     fill="currentColor">
  <path d="M229.4877 739.7411H835.4477C995.6077 739.7411 1114.7477 618.1611 1114.7477 467.7711C1114.7477 312.0111 987.7977 198.2411 822.2677 198.2411C761.2277 77.6411 647.9477 0.0011 506.8377 0.0011C323.2377 0.0011 171.8777 144.0411 155.7577 325.1911C67.3877 351.0711 -0.0023 427.7311 -0.0023 530.7611C-0.0023 646.4811 83.9877 739.7411 229.4877 739.7411ZM228.5177 661.6211C128.4177 661.6211 78.1277 605.4711 78.1277 533.2011C78.1277 474.6111 112.3077 421.8711 195.3077 399.9011C222.1677 392.5811 231.9377 379.8811 234.3777 352.5411C245.6077 192.8711 365.2377 78.1211 506.8377 78.1211C616.6977 78.1211 703.1277 138.6711 755.8577 246.5811C767.0877 270.5111 781.7377 278.8111 810.5477 278.8111C955.0777 278.8111 1036.6177 365.7211 1036.6177 469.7311C1036.6177 576.1711 951.6577 661.6211 840.3277 661.6211ZM257.3277 983.4011C266.1177 983.4011 272.4577 975.1011 271.9777 966.3111L269.0477 919.4311L307.6177 945.8011C314.4577 950.6811 325.6877 948.7311 330.5677 941.4111C334.9577 934.0811 332.5177 922.8511 322.7577 918.4611L281.2477 897.9511L323.2377 876.9511C332.5177 872.5611 334.4777 862.3011 331.0577 854.4911C326.6577 846.6811 314.4577 845.2111 307.6177 850.1011L269.0477 876.9511L272.4577 830.0811C273.4377 820.8011 266.1177 812.9911 257.3277 812.9911C247.0677 812.9911 241.2077 820.8011 241.6977 830.0811L244.6277 876.9511L205.5677 850.1011C198.2377 845.2111 187.9877 846.1911 183.1077 854.4911C178.7077 862.3011 180.6677 872.5611 189.9377 876.9511L231.9377 897.9511L189.9377 918.4611C180.6677 922.8511 178.2277 933.5911 182.6177 941.4111C187.0077 949.2211 198.2377 950.6811 205.5677 946.2911L244.6277 919.9211L242.1877 966.3111C241.6977 975.1011 247.0677 983.4011 257.3277 983.4011ZM527.8277 983.4011C536.6177 983.4011 542.9677 975.1011 542.4777 966.3111L539.5477 919.4311L578.1277 945.8011C584.9577 950.6811 596.1877 948.7311 601.0777 941.4111C605.4677 934.0811 603.0277 922.8511 593.2577 918.4611L551.2677 897.9511L593.7477 876.9511C603.0277 872.5611 604.9777 862.3011 601.5577 854.4911C597.1677 846.6811 584.9577 845.2111 578.1277 850.1011L539.5477 876.9511L542.9677 830.0811C543.9477 820.8011 536.6177 812.9911 527.8277 812.9911C517.5777 812.9911 511.7177 820.8011 512.2077 830.0811L515.1377 876.9511L475.5877 850.1011C468.7477 845.2111 458.4977 846.1911 453.6177 854.4911C449.2177 862.3011 451.1677 872.5611 460.4477 876.9511L502.4377 897.9511L460.4477 918.4611C451.1677 922.8511 448.7277 933.5911 453.1277 941.4111C457.5177 949.2211 468.7477 950.6811 475.5877 946.2911L515.1377 919.9211L512.6977 966.3111C512.2077 975.1011 517.5777 983.4011 527.8277 983.4011ZM798.3377 983.4011C807.1277 983.4011 813.4777 975.1011 812.9877 966.3111L809.5677 919.4311L848.6377 945.8011C855.4677 950.6811 866.6977 948.7311 871.5777 941.4111C875.9777 934.0811 873.5377 922.8511 863.7677 918.4611L821.7777 897.9511L864.2577 876.9511C873.5377 872.5611 875.4877 862.3011 872.0677 854.4911C867.6777 846.6811 855.4677 845.2111 848.6377 850.1011L809.5677 876.9511L813.4777 830.0811C814.4577 820.8011 807.1277 812.9911 798.3377 812.9911C788.0877 812.9911 782.2277 820.8011 782.7177 830.0811L785.6477 876.9511L746.0977 850.1011C739.2577 845.2111 729.0077 846.1911 724.1177 854.4911C719.7277 862.3011 721.6777 872.5611 730.9577 876.9511L772.9477 897.9511L730.9577 918.4611C721.6777 922.8511 719.2377 933.5911 723.6377 941.4111C728.0277 949.2211 739.2577 950.6811 746.0977 946.2911L785.6477 919.9211L783.2077 966.3111C782.7177 975.1011 788.0877 983.4011 798.3377 983.4011ZM151.3677 1166.9911C160.1577 1166.9911 166.5077 1158.2011 166.0177 1149.4111L163.0877 1103.0311L201.6577 1129.3911C208.9877 1133.7911 219.7277 1131.8311 224.6077 1124.5111C229.0077 1117.1911 226.5577 1105.9611 216.7977 1101.5611L175.2977 1081.5411L217.2877 1060.5511C226.5577 1056.1511 228.5177 1045.4111 225.0977 1038.0811C220.7077 1030.2711 208.9877 1028.8111 201.6577 1033.2011L163.0877 1060.5511L166.5077 1013.1811C167.4777 1003.9111 160.1577 996.0911 151.3677 996.0911C141.1177 996.0911 135.2577 1003.9111 135.7377 1013.1811L138.6677 1060.5511L99.6077 1033.2011C92.2877 1028.8111 82.0277 1029.7811 77.1477 1038.0811C72.7577 1045.4111 74.7077 1055.6611 83.9877 1060.5511L125.9777 1081.5411L83.9877 1102.0511C74.7077 1106.4411 72.2677 1116.7011 76.6577 1124.5111C81.0577 1132.8111 92.2877 1134.2811 99.6077 1129.3911L138.6677 1103.0311L136.2277 1149.4111C135.7377 1158.2011 141.1177 1166.9911 151.3677 1166.9911ZM421.8777 1166.9911C430.6677 1166.9911 437.0077 1158.2011 436.5277 1149.4111L433.5977 1103.0311L472.1677 1129.3911C479.0077 1133.7911 490.2377 1131.8311 495.1177 1124.5111C499.5077 1117.1911 497.0677 1105.9611 487.3077 1101.5611L445.3077 1081.5411L487.7977 1060.5511C497.0677 1056.1511 499.0277 1045.4111 495.6077 1038.0811C491.2077 1030.2711 479.0077 1028.8111 472.1677 1033.2011L433.5977 1060.5511L437.0077 1013.1811C437.9877 1003.9111 430.6677 996.0911 421.8777 996.0911C411.6177 996.0911 405.7577 1003.9111 406.2477 1013.1811L409.1777 1060.5511L369.6277 1033.2011C362.7977 1028.8111 352.5377 1029.7811 347.6577 1038.0811C343.2577 1045.4111 345.2177 1055.6611 354.4877 1060.5511L396.4877 1081.5411L354.4877 1102.0511C345.2177 1106.4411 342.7777 1116.7011 347.1677 1124.5111C351.5577 1132.8111 362.7977 1134.2811 369.6277 1129.3911L409.1777 1103.0311L406.7377 1149.4111C406.2477 1158.2011 411.6177 1166.9911 421.8777 1166.9911ZM692.3877 1166.9911C701.1677 1166.9911 707.5177 1158.2011 707.0277 1149.4111L703.6177 1103.0311L742.6777 1129.3911C749.5077 1133.7911 760.7377 1131.8311 765.6277 1124.5111C770.0177 1117.1911 767.5777 1105.9611 757.8077 1101.5611L715.8177 1081.5411L758.2977 1060.5511C767.5777 1056.1511 769.5277 1045.4111 766.1177 1038.0811C761.7177 1030.2711 749.5077 1028.8111 742.6777 1033.2011L703.6177 1060.5511L707.5177 1013.1811C708.4977 1003.9111 701.1677 996.0911 692.3877 996.0911C682.1277 996.0911 676.2677 1003.9111 676.7577 1013.1811L679.6877 1060.5511L640.1377 1033.2011C633.2977 1028.8111 623.0477 1029.7811 618.1677 1038.0811C613.7677 1045.4111 615.7277 1055.6611 624.9977 1060.5511L666.9877 1081.5411L624.9977 1102.0511C615.7277 1106.4411 613.2777 1116.7011 617.6777 1124.5111C622.0677 1132.8111 633.2977 1134.2811 640.1377 1129.3911L679.6877 1103.0311L677.2477 1149.4111C676.7577 1158.2011 682.1277 1166.9911 692.3877 1166.9911Z"/>
</svg>