<?xml version="1.0" encoding="UTF-8" standalone="no"?>
<svg xmlns="http://www.w3.org/2000/svg"
     width="996.09375" height="996.09375"
     viewBox="0 0 996.09375 996.09375"
     fill="currentColor">
  <path d="M498.0477 996.0977C770.5077 996.0977 996.0977 770.5077 996.0977 498.0477C996.0977 226.0777 770.0177 -0.0023 497.5577 -0.0023C225.5877 -0.0023 -0.0023 226.0777 -0.0023 498.0477C-0.0023 770.5077 226.0777 996.0977 498.0477 996.0977ZM597.6577 253.9077C585.4477 253.9077 574.7077 243.1677 574.7077 230.9577V180.6677C574.7077 167.9677 585.4477 157.7177 597.6577 157.7177C610.8377 157.7177 621.0977 167.9677 621.0977 180.6677V230.9577C621.0977 243.1677 610.8377 253.9077 597.6577 253.9077ZM701.1677 296.8777C693.3577 288.0877 692.3877 272.9477 701.1677 264.6477L737.3077 229.0077C746.5777 219.7277 760.7377 220.7077 769.5277 229.0077C777.8277 237.3077 778.3177 252.4377 769.5277 261.2277L734.3777 297.3677C725.5877 306.1477 709.9577 305.1777 701.1677 296.8777ZM461.9177 297.3677L426.2677 261.2277C417.9677 251.9577 417.9677 236.8177 426.2677 228.5177C435.5477 220.7077 449.7077 220.2177 458.9877 229.0077L495.1177 264.6477C503.9077 273.4377 502.9277 288.0877 495.1177 296.8777C486.3277 305.1777 471.1877 306.1477 461.9177 297.3677ZM715.8177 400.3877C715.8177 439.4577 696.2877 475.0977 664.0577 498.0477C656.7377 427.7377 601.0777 375.4877 528.8077 366.2077C520.5077 354.0077 512.2077 343.2577 501.4677 333.4977C521.9777 302.7377 558.1077 282.7177 597.6577 282.7177C663.5777 282.7177 715.8177 334.4677 715.8177 400.3877ZM260.7377 633.2977C201.1677 633.2977 161.1377 594.7277 161.1377 541.5077C161.1377 499.0277 187.9877 465.8177 225.5877 452.6377C234.3777 376.9577 298.8277 317.3877 374.9977 317.3877C433.1077 317.3877 480.9577 349.1177 507.8077 399.4177C578.1277 400.8777 630.3677 450.6877 630.3677 515.6277C630.3677 582.0277 578.6177 633.2977 510.7377 633.2977ZM767.0877 422.8477C755.3677 422.8477 744.6277 412.5977 744.6277 400.3877C744.6277 387.2077 755.3677 376.9577 767.0877 376.9577H816.8977C830.0777 376.9577 840.3277 387.2077 840.3277 400.3877C840.3277 412.5977 830.0777 422.8477 816.8977 422.8477ZM737.3077 572.2677L701.1677 536.6177C692.3877 528.3177 693.3577 512.6977 701.1677 503.9077C710.4477 495.6077 725.5877 495.6077 734.3777 503.9077L769.5277 539.0577C778.3177 547.8477 777.8277 562.9877 769.5277 571.7777C760.7377 580.0777 746.5777 581.5477 737.3077 572.2677ZM324.7077 745.1177L358.3977 667.9677C360.8377 662.5977 363.7677 660.6477 371.5777 660.6477H426.2677C432.1277 660.6477 434.5677 665.0377 431.6377 670.8977L407.2277 716.7977H458.4977C465.8177 716.7977 468.2577 723.6377 462.8877 729.9777L351.0777 843.2577C346.1877 848.1477 338.8677 844.2377 341.3077 837.8877L374.9977 755.8577H331.5477C324.7077 755.8577 322.2677 751.4677 324.7077 745.1177Z"/>
</svg>