<?xml version="1.0" encoding="UTF-8" standalone="no"?>
<svg xmlns="http://www.w3.org/2000/svg"
     width="996.09375" height="996.09375"
     viewBox="0 0 996.09375 996.09375"
     fill="currentColor">
  <path d="M498.0477 996.0959C770.5077 996.0959 996.0977 770.0159 996.0977 498.0459C996.0977 225.5859 770.0177 -0.0041 497.5577 -0.0041C225.5877 -0.0041 -0.0023 225.5859 -0.0023 498.0459C-0.0023 770.0159 226.0777 996.0959 498.0477 996.0959ZM292.9677 502.9259C292.9677 362.7959 366.2077 270.5059 479.9777 262.2059L489.7477 224.6059C493.1677 210.9359 502.9277 205.0759 515.1377 205.0759C530.2777 205.0759 540.0377 214.8459 540.0377 229.4959C540.0377 233.3959 539.0577 237.3059 537.5977 240.7259L532.2277 264.1559C547.8477 267.5759 562.4977 271.4859 575.6877 277.3459L589.3577 224.6059C593.2577 210.9359 602.5377 205.0759 614.7477 205.0759C629.8877 205.0759 639.6477 214.8459 639.6477 229.4959C639.6477 233.3959 639.1577 236.8159 637.6977 240.7259L621.5777 305.1759C642.5777 323.2459 659.1777 346.1959 668.9477 373.0459C671.8777 381.3459 673.8277 389.6459 673.8277 397.9459C673.8277 416.9959 661.6177 429.1959 643.0677 429.1959C625.4877 429.1959 617.6777 416.9959 612.7977 404.7859C610.3477 395.9959 605.9577 388.6759 601.5577 384.2759L525.8777 681.6359C569.8277 674.8059 602.5377 645.0159 613.7677 605.4659C618.6477 590.3359 628.9077 578.1259 645.9977 578.1259C665.5277 578.1259 677.2477 591.7959 677.2477 610.3559C677.2477 618.6559 675.2977 627.9259 672.3677 635.7459C650.3877 698.7259 591.3077 741.2059 509.7677 745.1159L498.0477 791.0159C494.6277 804.6859 484.8677 810.5459 472.6577 810.5459C457.5177 810.5459 448.2377 800.7859 448.2377 785.6459C448.2377 781.7359 448.7277 778.8059 450.1977 774.9059L458.0077 742.1859C442.3877 739.7459 427.7377 735.3559 414.0577 729.0059L398.4377 791.0159C395.0177 804.6859 385.7377 810.5459 373.0477 810.5459C358.3977 810.5459 348.6377 800.7859 348.6377 785.6459C348.6377 781.7359 349.1177 778.3159 350.0977 774.4159L368.6477 701.1759C320.3077 659.6659 292.9677 590.8159 292.9677 502.9259ZM429.6877 666.5059C442.8677 674.8059 456.5477 680.6659 473.1477 683.1059L560.0577 339.8459C547.3677 332.0359 532.7177 326.6559 517.0877 324.7059ZM360.8377 502.9259C360.8377 550.7859 370.6077 590.8159 389.1577 620.6059L463.3777 327.6359C399.4177 343.7459 360.8377 409.1759 360.8377 502.9259Z"/>
</svg>