<?xml version="1.0" encoding="UTF-8" standalone="no"?>
<svg xmlns="http://www.w3.org/2000/svg"
     width="1121.0366746185834" height="1121.3404162176726"
     viewBox="0 0 1121.0366746185834 1121.3404162176726"
     fill="currentColor">
  <path d="M53.6582 657.8379C-17.1518 728.6379 -18.1218 819.4579 52.1882 889.7779L271.9182 1109.9879C287.0482 1125.1279 312.9282 1125.1279 328.0682 1109.9879C343.2082 1094.3679 343.2082 1069.4579 328.0682 1054.3279L207.9482 934.6979L258.2482 884.3979L382.2682 1008.9179C394.9582 1021.6079 415.9582 1021.6079 428.6582 1008.9179C441.3482 996.2179 441.8382 974.7379 429.1382 962.0379L304.6282 838.0179L354.9282 787.7179L478.9482 912.2379C492.1282 924.9279 513.1282 924.9279 525.3382 912.2379C538.0282 899.0479 538.5182 878.0579 525.8182 865.3579L401.3082 741.3379L451.5982 691.0379L575.6282 815.5579C588.3182 828.2479 609.3182 828.2479 622.0182 815.5579C634.7082 802.3679 635.1982 781.3779 622.4982 768.6779L497.9882 644.6579L548.2782 594.3579L672.3082 718.3879C685.4882 731.5679 706.4882 731.5679 718.6882 718.3879C731.3882 705.6879 731.8782 684.6979 719.1782 671.9979L594.6682 547.9779L644.4782 498.1679L768.4982 622.1979C781.6782 634.8879 802.6782 634.8879 814.8882 622.6879C828.0682 609.4979 828.5582 588.5079 815.3682 575.8079L691.3482 451.2979L741.1582 401.4879L865.1782 525.0279C878.3582 538.2079 899.3582 538.2079 911.5682 525.5179C924.2582 512.8179 924.7482 491.8279 912.0482 479.1279L788.0282 354.6179L837.8382 304.8079L961.8582 428.3479C975.0382 442.0179 996.0382 442.0179 1008.2482 428.8379C1021.4282 416.1379 1021.9182 395.1479 1008.7282 381.9579L884.7082 257.9379L934.9982 207.6479L1054.6282 327.2779C1069.7682 342.4079 1094.1782 342.8979 1109.3182 327.7579C1124.9382 312.6279 1124.9382 287.7179 1109.3182 272.0979L889.5882 52.3679C819.2782 -17.9421 728.4582 -17.4521 657.6582 53.8379ZM116.1582 842.4079C73.1882 799.4379 72.2082 749.6379 114.6882 707.6479L707.4582 114.8679C749.4582 72.8779 800.2382 72.8779 842.2282 115.3579L879.3382 152.4679L152.7782 879.0279Z"/>
</svg>