<?xml version="1.0" encoding="UTF-8" standalone="no"?>
<svg xmlns="http://www.w3.org/2000/svg"
     width="1121.0366746185834" height="1121.3404162176726"
     viewBox="0 0 1121.0366746185834 1121.3404162176726"
     fill="currentColor">
  <path d="M52.1882 889.7749L271.9182 1109.9849C287.0482 1125.1249 312.9282 1125.1249 328.0682 1109.9849C343.2082 1094.3649 342.7182 1069.4649 328.0682 1054.3249L184.5182 910.2849L234.8082 859.9849L382.2682 1008.9149C394.9582 1021.6049 415.9582 1021.6049 428.6582 1008.9149C441.3482 995.7349 441.8382 974.7349 429.1382 962.0349L281.1882 813.6049L331.4882 763.3049L478.9482 912.2349C492.1282 924.9249 513.1282 924.9249 525.3382 912.2349C538.0282 899.0549 538.5182 878.0549 525.8182 865.3549L377.8682 716.9249L428.1682 666.6249L575.6282 815.5549C588.3182 828.2449 609.3182 828.2449 622.0182 815.5549C634.7082 802.3749 635.1982 781.3749 622.4982 768.6749L474.5482 620.2449L524.8482 569.9449L672.3082 718.3849C685.4882 731.5649 706.4882 731.5649 718.6882 718.3849C731.3882 705.6949 731.8782 684.2049 719.1782 671.9949L571.2282 523.5649L620.5482 474.2449L768.4982 622.1949C781.6782 634.8949 802.6782 634.8949 814.8882 622.6849C828.0682 609.4949 828.5582 588.5049 815.3682 575.8049L667.4282 427.3749L717.2282 377.5649L865.1782 525.0249C878.3582 538.2149 899.3582 538.2149 911.5682 525.5149C924.2582 512.8149 924.7482 491.8249 912.0482 479.1249L764.0982 330.6949L813.9082 280.8849L961.8582 428.3449C975.0382 442.0149 996.0382 442.0149 1008.2482 428.8349C1021.4282 416.1449 1021.9182 395.1449 1008.7282 381.9649L860.7782 234.0149L911.0782 183.7149L1054.6282 327.2749C1069.7682 342.4049 1094.1782 342.8949 1109.3182 327.7649C1124.9382 312.6249 1124.9382 287.7249 1109.3182 272.0949L889.5882 52.3749C819.2782 -17.9451 728.4582 -17.4551 657.6582 53.8349L53.6582 657.8349C-17.1518 728.6449 -18.1218 819.4649 52.1882 889.7749Z"/>
</svg>