<?xml version="1.0" encoding="UTF-8" standalone="no"?>
<svg xmlns="http://www.w3.org/2000/svg"
     width="996.09375" height="996.09375"
     viewBox="0 0 996.09375 996.09375"
     fill="currentColor">
  <path d="M498.0477 996.0959C770.5077 996.0959 996.0977 770.0159 996.0977 498.0459C996.0977 225.5859 770.0177 -0.0041 497.5577 -0.0041C225.5877 -0.0041 -0.0023 225.5859 -0.0023 498.0459C-0.0023 770.0159 226.0777 996.0959 498.0477 996.0959ZM498.0477 913.0859C267.5777 913.0859 83.4977 728.5159 83.4977 498.0459C83.4977 267.5759 267.0877 83.0059 497.5577 83.0059C728.0277 83.0059 913.0877 267.5759 913.0877 498.0459C913.0877 728.5159 728.5177 913.0859 498.0477 913.0859ZM382.8077 453.1259V543.4559H346.1877C288.5777 543.4559 242.1877 589.3559 242.1877 645.9959C242.1877 703.6159 288.5777 749.9959 346.1877 749.9959C402.8277 749.9959 449.7077 703.1259 449.7077 645.9959V608.8859H538.5777V645.9959C538.5777 703.1259 584.9577 749.9959 642.0877 749.9959C699.2177 749.9959 745.6077 703.6159 745.6077 645.9959C745.6077 589.3559 699.2177 543.4559 642.0877 543.4559H604.9777V453.1259H642.0877C699.2177 453.1259 745.6077 407.2259 745.6077 350.0959C745.6077 292.9659 699.2177 246.5859 642.0877 246.5859C584.9577 246.5859 538.5777 293.4559 538.5777 350.0959V387.2059H449.7077V350.0959C449.7077 293.4559 402.8277 246.5859 346.1877 246.5859C288.5777 246.5859 242.1877 292.9659 242.1877 350.0959C242.1877 407.2259 288.5777 453.1259 346.1877 453.1259ZM346.1877 387.6959C325.1977 387.6959 308.5977 371.0959 308.5977 350.0959C308.5977 330.0759 325.6877 312.4959 346.1877 312.4959C366.2077 312.4959 382.8077 330.0759 382.8077 350.0959V387.6959ZM642.0877 387.6959H604.9777V350.0959C604.9777 330.0759 621.5777 312.4959 642.0877 312.4959C662.1077 312.4959 679.6877 330.0759 679.6877 350.0959C679.6877 371.0959 662.5977 387.6959 642.0877 387.6959ZM449.7077 543.9459V452.6359H538.5777V543.9459ZM346.1877 607.9059H382.8077V645.5059C382.8077 666.5059 366.2077 683.1059 346.1877 683.1059C325.1977 683.1059 308.5977 666.5059 308.5977 645.5059C308.5977 625.4859 325.6877 607.9059 346.1877 607.9059ZM642.0877 607.9059C662.1077 607.9059 679.6877 625.4859 679.6877 645.5059C679.6877 666.5059 662.5977 683.1059 642.0877 683.1059C621.5777 683.1059 604.9777 666.5059 604.9777 645.5059V607.9059Z"/>
</svg>