<?xml version="1.0" encoding="UTF-8" standalone="no"?>
<svg xmlns="http://www.w3.org/2000/svg"
     width="730.95703125" height="1117.2139103884845"
     viewBox="0 0 730.95703125 1117.2139103884845"
     fill="currentColor">
  <path d="M32.2283 633.7877C14.1583 633.7877 -0.0017 647.9477 -0.0017 665.5277C-0.0017 683.1077 14.1583 697.7577 32.2283 697.7577H163.5783L80.0783 977.5377C76.6583 988.7677 79.0983 999.9977 85.4483 1009.2777L64.9383 1084.9577C61.5283 1098.6377 68.8483 1112.7977 83.0083 1116.2077C97.1683 1120.1177 110.8383 1112.3077 114.7483 1098.1477L134.7683 1022.9477C145.0183 1018.0677 152.8283 1009.2777 156.2483 997.5577L245.6083 697.7577H333.4983V749.5077C333.4983 767.0877 347.6583 781.7377 365.2383 781.7377C382.8083 781.7377 397.4583 767.0877 397.4583 749.5077V697.7577H485.3483L574.7083 997.5577C578.1283 1009.2777 585.9383 1018.0677 595.6983 1022.9477L616.2083 1098.1477C620.1183 1112.3077 633.7883 1120.1177 647.9483 1116.2077C661.6183 1112.7977 669.4383 1098.6377 665.5283 1084.9577L645.5083 1009.2777C651.8583 999.9977 654.2983 988.7677 650.8783 977.5377L567.3783 697.7577H698.7283C716.3083 697.7577 730.9583 683.1077 730.9583 665.5277C730.9583 647.9477 716.3083 633.7877 698.7283 633.7877H548.3383L467.7783 361.8177C497.0683 334.4677 515.1383 295.8977 515.1383 252.4377C515.1383 178.2177 462.3983 117.6777 392.5783 104.9777V26.8577C392.5783 11.7177 380.3683 -0.0023 365.2383 -0.0023C350.0983 -0.0023 338.3783 12.2077 338.3783 27.3477V104.9777C268.0683 117.6777 215.8183 178.2177 215.8183 252.4377C215.8183 295.8977 233.8883 334.4677 263.1883 361.8177L182.6183 633.7877ZM365.2383 328.1277C321.2883 328.1277 289.5483 295.8977 289.5483 252.4377C289.5483 208.4977 321.2883 176.2677 365.2383 176.2677C409.1783 176.2677 441.4083 208.4977 441.4083 252.4377C441.4083 295.8977 409.1783 328.1277 365.2383 328.1277ZM397.4583 581.5477C397.4583 563.9677 382.8083 549.3177 365.2383 549.3177C347.6583 549.3177 333.4983 563.9677 333.4983 581.5477V633.7877H264.6483L334.4683 398.9277C344.2383 400.8777 354.9783 401.8577 365.2383 401.8577C375.9783 401.8577 386.2283 400.8777 396.4883 398.9277L466.3083 633.7877H397.4583Z"/>
</svg>