<?xml version="1.0" encoding="UTF-8" standalone="no"?>
<svg xmlns="http://www.w3.org/2000/svg"
     width="996.09375" height="996.09375"
     viewBox="0 0 996.09375 996.09375"
     fill="currentColor">
  <path d="M498.0477 996.0959C770.5077 996.0959 996.0977 770.0159 996.0977 498.0459C996.0977 225.5859 770.0177 -0.0041 497.5577 -0.0041C225.5877 -0.0041 -0.0023 225.5859 -0.0023 498.0459C-0.0023 770.0159 226.0777 996.0959 498.0477 996.0959ZM211.4277 388.1859V365.7259C211.4277 314.9459 237.3077 290.5259 287.5977 290.5259H708.4977C758.7877 290.5259 784.6677 315.4259 784.6677 365.7259V388.1859ZM287.5977 706.5459C237.3077 706.5459 211.4277 681.6359 211.4277 630.8559V443.8459H784.6677V630.8559C784.6677 681.6359 758.7877 706.5459 708.4977 706.5459ZM311.0377 630.8559H371.0977C385.2577 630.8559 395.0177 621.5859 395.0177 607.9059V562.4959C395.0177 548.8259 385.2577 539.5459 371.0977 539.5459H311.0377C297.3677 539.5459 287.5977 548.8259 287.5977 562.4959V607.9059C287.5977 621.5859 297.3677 630.8559 311.0377 630.8559Z"/>
</svg>