<?xml version="1.0" encoding="UTF-8" standalone="no"?>
<svg xmlns="http://www.w3.org/2000/svg"
     width="996.09375" height="996.09375"
     viewBox="0 0 996.09375 996.09375"
     fill="currentColor">
  <path d="M498.0477 996.0959C770.5077 996.0959 996.0977 770.0159 996.0977 498.0459C996.0977 225.5859 770.0177 -0.0041 497.5577 -0.0041C225.5877 -0.0041 -0.0023 225.5859 -0.0023 498.0459C-0.0023 770.0159 226.0777 996.0959 498.0477 996.0959ZM498.0477 913.0859C267.5777 913.0859 83.4977 728.5159 83.4977 498.0459C83.4977 267.5759 267.0877 83.0059 497.5577 83.0059C728.0277 83.0059 913.0877 267.5759 913.0877 498.0459C913.0877 728.5159 728.5177 913.0859 498.0477 913.0859ZM643.5577 283.2059L593.7477 331.5459C587.3977 338.3759 578.1277 338.3759 571.2877 331.5459C564.9377 325.1959 565.4277 315.9159 571.2877 309.0859L614.7477 265.6259C579.0977 247.5559 539.0577 236.8159 497.5577 236.8159C354.9777 236.8159 236.3277 355.9559 236.3277 498.5359C236.3277 540.0359 246.5777 579.5859 264.6477 614.7459L309.0777 571.7759C315.4277 565.4259 324.7077 565.4259 331.5477 571.7759C337.8877 578.1259 338.3777 587.8859 331.5477 594.7259L282.2277 644.0459C287.5977 652.8359 293.4577 660.6459 300.7777 667.9659L667.9677 301.7559C660.1577 294.9259 651.8577 288.5759 643.5577 283.2059ZM730.4677 381.8359L687.4977 424.3159C680.6677 430.6659 671.3877 430.6659 665.0377 424.3159C658.2077 417.4759 658.2077 407.7159 665.0377 401.3659L713.3777 353.0259C707.5177 344.7259 701.6577 336.4259 694.3377 328.6159L328.1277 695.3159C334.9577 702.1459 343.2577 708.0059 351.5577 713.8659L402.3477 664.0659C408.6877 657.7159 418.4577 657.7159 424.8077 664.0659C431.1477 670.8959 431.1477 680.1759 424.8077 686.5259L380.8577 731.4459C416.5077 749.5159 456.0577 760.2559 497.5577 760.2559C640.1377 760.2559 759.2777 641.1159 759.2777 498.5359C759.2777 457.0359 748.5377 416.9959 730.4677 381.8359ZM554.6877 371.0959L519.0477 406.2459C512.6977 412.5959 503.4177 412.5959 497.0677 406.2459C490.2377 400.3859 490.2377 390.6259 497.0677 383.7859L532.2277 348.6359C538.5777 342.2859 548.3377 342.2859 554.6877 348.6359C561.0377 354.9759 561.0377 364.7459 554.6877 371.0959ZM480.4677 445.3159L444.8277 481.4459C438.9677 487.3059 428.2277 487.3059 422.3677 481.4459C416.0177 474.6059 416.0177 464.8459 422.3677 458.4959L457.5177 423.3359C463.8677 416.5059 474.1177 416.5059 480.4677 423.3359C486.3277 429.1959 486.3277 439.4559 480.4677 445.3159ZM647.9477 463.3759L612.7977 498.5359C605.9577 505.3759 596.6777 505.3759 590.3277 498.5359C583.9877 492.1859 584.4777 482.9059 590.3277 476.5659L625.4877 440.4259C631.3477 434.0859 641.5977 434.5659 647.9477 440.4259C654.2977 446.7759 654.2977 457.0359 647.9477 463.3759ZM405.7577 519.5359L370.6077 555.1759C364.7477 562.0159 354.4877 561.5259 348.1477 555.1759C341.7977 549.3159 341.7977 539.0659 348.1477 532.7159L383.2977 497.5559C390.1377 490.7259 399.4177 490.7259 405.7577 497.5559C412.1077 503.9059 411.6177 513.1859 405.7577 519.5359ZM573.2377 537.5959L538.0877 573.2459C531.7377 579.5859 521.9777 579.5859 515.1377 573.2459C509.2777 567.3859 509.2777 556.6359 515.1377 550.7859L551.2677 515.1359C557.1277 509.2759 567.3877 509.2759 573.2377 515.1359C580.0777 521.4859 580.0777 531.7359 573.2377 537.5959ZM499.0277 612.3059L463.8677 647.4559C457.5177 653.8059 447.2677 653.8059 441.8977 647.4559C435.0577 641.1159 435.0577 631.3459 441.8977 624.9959L477.0477 589.8459C483.3977 583.4959 492.6777 583.4959 499.0277 589.8459C505.3677 595.7059 505.3677 605.4659 499.0277 612.3059Z"/>
</svg>