<?xml version="1.0" encoding="UTF-8" standalone="no"?>
<svg xmlns="http://www.w3.org/2000/svg"
     width="996.09375" height="996.09375"
     viewBox="0 0 996.09375 996.09375"
     fill="currentColor">
  <path d="M498.0477 996.0959C770.5077 996.0959 996.0977 770.0159 996.0977 498.0459C996.0977 225.5859 770.0177 -0.0041 497.5577 -0.0041C225.5877 -0.0041 -0.0023 225.5859 -0.0023 498.0459C-0.0023 770.0159 226.0777 996.0959 498.0477 996.0959ZM647.9477 276.3659C656.7377 281.7359 665.0377 288.5759 673.3377 295.4059L294.4377 673.3359C287.1077 665.5259 280.7577 657.7159 275.3877 648.4359L326.1677 597.6559C333.4977 590.8159 333.0077 580.5659 326.1677 573.7259C319.3377 567.3859 309.5677 567.3859 303.2277 573.7259L257.3277 618.1659C238.7677 582.0359 228.0277 541.5059 228.0277 498.5359C228.0277 351.5659 350.5877 228.5159 497.5577 228.5159C540.5277 228.5159 581.5477 239.7459 618.1677 258.2959L573.2377 303.2259C567.3877 310.0559 566.8977 319.8259 573.2377 326.1759C580.5677 333.4959 590.3277 333.4959 596.6777 326.1759ZM737.7977 378.4159C756.3477 414.5459 767.5777 455.5659 767.5777 498.5359C767.5777 645.5059 644.5277 768.5559 497.5577 768.5559C454.5877 768.5559 414.0577 757.3259 377.4377 738.7659L422.8477 692.3859C429.1977 686.0359 429.1977 676.2659 422.8477 669.4359C416.0177 662.5959 406.2477 662.5959 399.4177 669.4359L347.1677 720.7059C338.3777 714.8459 330.0777 708.4959 322.7577 701.6559L700.6877 323.2459C708.0077 331.5459 714.3577 339.8459 720.2177 348.6359L670.4077 398.4359C663.0877 404.7859 663.0877 415.0359 670.4077 421.8759C676.7577 428.7059 686.5277 428.7059 693.3577 421.8759ZM556.1477 367.1859C562.9877 360.3559 562.9877 350.5859 556.1477 343.7459C549.8077 337.4059 539.5477 337.4059 533.2077 343.7459L497.0677 379.8859C489.7477 387.2059 489.7477 397.4559 497.0677 403.3159C503.4177 409.6659 513.1877 409.6659 519.5277 403.3159ZM479.9777 443.3559C485.8377 437.4959 485.8377 426.7559 479.9777 420.8959C473.1477 413.5759 462.8877 413.5759 456.5477 420.8959L419.9177 457.0359C413.5777 463.8659 413.5777 473.6359 419.9177 480.9559C425.7777 486.8159 437.0077 486.8159 442.8677 480.9559ZM652.8277 462.4059C659.1777 456.0559 659.1777 445.3159 652.8277 438.4759C645.9977 432.6159 635.7377 432.1259 629.3977 438.4759L593.2577 476.0759C587.3977 482.4259 586.9177 492.1859 593.2577 498.5359C600.0977 505.8559 609.3777 505.8559 616.6977 498.5359ZM402.8277 520.0159C408.6877 513.6759 409.1777 503.9059 402.8277 497.5559C396.4877 490.2359 386.7177 490.2359 379.3977 497.5559L343.2577 533.6959C336.9177 540.0359 336.9177 550.7859 343.2577 556.6359C350.0977 563.4759 360.3477 563.9659 366.6977 556.6359ZM575.6877 539.0659C583.0077 532.7159 583.0077 522.4559 575.6877 515.6259C569.8277 509.7659 559.0777 509.7659 553.2277 515.6259L515.6277 552.2459C509.7677 558.5959 509.7677 569.8259 515.6277 575.6859C522.9477 582.0359 532.7177 582.0359 539.5477 575.6859ZM499.0277 616.2059C505.8577 608.8859 505.8577 598.6359 499.0277 592.7759C492.6777 586.4259 482.9077 586.4259 476.5577 592.7759L440.4277 628.9059C433.1077 635.7459 433.1077 645.5059 440.4277 652.3459C445.7977 658.6959 456.5477 658.6959 462.8877 652.3459Z"/>
</svg>