<?xml version="1.0" encoding="UTF-8" standalone="no"?>
<svg xmlns="http://www.w3.org/2000/svg"
     width="996.09375" height="996.09375"
     viewBox="0 0 996.09375 996.09375"
     fill="currentColor">
  <path d="M498.0477 -0.0041C226.0777 -0.0041 -0.0023 225.5859 -0.0023 498.0459C-0.0023 770.0159 226.5577 996.0959 498.5377 996.0959C770.9977 996.0959 996.0977 770.0159 996.0977 498.0459C996.0977 225.5859 770.5077 -0.0041 498.0477 -0.0041ZM151.8577 636.2259L107.9077 680.1759C81.0577 624.5159 66.4077 562.9859 66.4077 498.0459C66.4077 262.2059 262.2077 66.4059 498.0477 66.4059C562.9877 66.4059 624.5077 81.0559 680.1777 107.4259L635.2577 152.3459C624.5077 163.0859 624.5077 180.1759 635.2577 190.9159C645.9977 201.1759 663.0877 201.6559 673.8277 190.9159L729.4877 135.2559C746.5777 145.9959 763.1877 158.2059 778.3177 171.3859L171.8777 778.3159C158.6877 762.6959 146.4877 746.5859 135.2577 729.4959L189.9377 674.8059C201.1677 664.0659 200.6877 646.9759 189.9377 636.2259C179.1977 625.4859 162.5977 625.4859 151.8577 636.2259ZM562.9877 224.6059L498.0477 289.5459C487.3077 300.2959 487.3077 317.3859 498.0477 328.1259C508.7877 338.3759 525.8777 338.8659 536.6177 328.1259L601.5577 263.1859C612.3077 252.4459 612.3077 235.3559 601.5577 224.6059C590.8177 213.8659 573.7277 213.8659 562.9877 224.6059ZM322.2677 805.1759L266.5977 860.8359C249.5077 850.0959 233.8877 837.8859 218.2577 824.7059L825.1977 218.2659C837.8877 233.3959 850.0977 249.5159 860.8377 266.6059L806.1477 321.2859C795.4077 332.0359 795.8977 349.1259 806.1477 359.8659C816.8977 370.6059 833.9877 370.6059 844.2377 359.8659L888.6677 315.9159C915.0377 371.0959 929.6877 433.1059 929.6877 498.0459C929.6877 733.8859 734.3777 929.6859 498.5377 929.6859C433.5977 929.6859 371.5777 914.5459 315.9177 888.1859L360.8377 843.2659C371.5777 832.5159 371.5777 815.9159 360.8377 805.1759C350.0977 794.4359 333.0077 793.9459 322.2677 805.1759ZM425.7777 361.8159L360.8377 426.7559C350.0977 437.4959 350.0977 454.5859 360.8377 465.3359C372.0677 476.0759 388.6677 476.0759 399.4177 465.3359L464.3577 400.3859C475.0977 389.6459 475.0977 372.5559 464.3577 361.8159C453.6177 351.0759 436.5277 351.0759 425.7777 361.8159ZM733.8877 393.5559L668.9477 458.4959C658.2077 469.2359 658.6877 485.8359 668.9477 497.0659C679.6877 507.8159 696.7777 507.8159 707.5177 497.0659L771.9777 432.1259C783.2077 421.3859 783.2077 404.2959 771.9777 393.5559C761.2277 382.8159 744.6277 382.8159 733.8877 393.5559ZM288.5777 499.0259L224.1177 563.9659C213.3777 574.7059 213.3777 591.3059 224.1177 602.5359C234.8677 612.7959 251.4677 612.7959 262.6977 602.5359L327.1477 537.5959C337.8877 526.8559 337.3977 509.7659 327.1477 499.0259C316.4077 488.2859 299.8077 488.2859 288.5777 499.0259ZM596.6777 530.7659L531.7377 595.2159C520.9977 606.4459 520.9977 623.0459 531.7377 633.7859C542.4777 645.0159 559.5677 645.0159 570.3077 633.7859L635.2577 569.3359C645.9977 558.1059 645.9977 541.5059 635.2577 530.7659C624.5077 520.0159 607.4177 520.0159 596.6777 530.7659ZM459.4777 667.4759L394.5277 732.4259C383.7877 743.1659 383.7877 760.2559 394.5277 770.9959C405.7577 781.7359 422.3677 781.7359 433.1077 770.9959L498.0477 706.0559C508.7877 695.3159 508.7877 678.7059 498.0477 667.4759C487.3077 657.7159 470.2177 657.2259 459.4777 667.4759Z"/>
</svg>