<?xml version="1.0" encoding="UTF-8" standalone="no"?>
<svg xmlns="http://www.w3.org/2000/svg"
     width="996.09375" height="996.09375"
     viewBox="0 0 996.09375 996.09375"
     fill="currentColor">
  <path d="M-0.0023 498.0459C-0.0023 579.5859 20.0177 656.2459 56.1477 724.6059L140.6277 640.1359C151.8577 628.9059 168.9477 628.9059 180.1777 640.1359C191.4077 651.3659 191.8977 668.4559 180.1777 680.1759L85.4477 774.9059C97.6577 791.9959 109.8677 808.5959 124.0277 823.7259L824.2177 124.0259C808.5977 109.8659 791.5077 97.1659 774.8977 85.4459L679.1977 181.1559C667.9677 192.3859 650.3877 191.8959 639.1577 181.1559C627.9277 169.9259 627.9277 152.8359 639.1577 141.1159L724.1177 56.6359C656.2477 20.0159 579.0977 -0.0041 497.5577 -0.0041C225.5877 -0.0041 -0.0023 225.5859 -0.0023 498.0459ZM498.0477 996.0959C770.5077 996.0959 996.0977 770.0159 996.0977 498.0459C996.0977 416.9959 976.0777 339.8459 939.9377 271.9759L855.4677 355.9559C843.7477 367.6759 827.1477 367.1859 815.9177 355.9559C805.1777 344.7259 804.1977 327.6359 815.9177 315.9159L910.6477 221.6759C898.9277 204.5859 886.7177 187.9859 872.5577 172.8559L172.3677 872.5559C187.9877 886.2259 204.5877 898.9259 221.1877 910.6459L316.8977 814.9459C328.6177 802.7359 345.7077 803.7059 356.9377 814.9459C368.1677 826.1759 368.6477 842.7759 356.9377 854.4959L271.4877 939.9459C339.8477 975.5859 416.5077 996.0959 498.0477 996.0959ZM604.4877 255.8559L537.5977 322.7559C526.3677 333.9859 508.7877 333.4959 497.5577 322.7559C486.8177 311.5259 486.3277 293.4559 497.5577 282.7159L564.9377 215.8159C576.1677 205.0759 593.7477 204.5859 604.4877 215.8159C615.7277 227.0459 615.7277 244.6259 604.4877 255.8559ZM463.3777 397.4559L395.9977 464.3559C385.2577 475.0959 367.6777 475.0959 356.4477 464.3559C345.2177 453.1259 345.2177 435.5459 356.4477 424.3159L423.3377 357.4259C434.5677 346.1959 452.1477 346.1959 463.3777 357.4259C474.1177 368.1659 474.6077 386.7159 463.3777 397.4559ZM780.7577 430.1759L714.3577 497.5559C703.1277 508.7859 685.5477 508.2959 674.3177 497.5559C663.5777 485.8359 663.0877 468.7459 674.3177 457.5159L741.2077 390.6259C752.4377 379.3959 769.5277 379.3959 780.7577 390.6259C792.4777 401.3659 791.9877 418.9459 780.7577 430.1759ZM321.7777 538.5759L255.3677 605.4659C243.6477 616.6959 226.5577 616.2059 215.3277 605.4659C204.0977 594.2359 204.0977 577.1459 215.3277 565.9159L281.7377 498.5359C292.9677 487.3059 310.5477 487.7959 321.7777 498.5359C332.5177 509.7659 333.4977 527.3459 321.7777 538.5759ZM639.6477 571.7759L572.7577 638.1859C561.5277 649.9059 543.9477 649.9059 532.7177 638.1859C521.9777 627.4459 521.4877 609.3759 532.7177 598.1459L600.0977 531.7359C610.8377 520.9959 628.9077 520.9959 639.6477 531.7359C650.8777 542.9659 650.8777 560.0559 639.6477 571.7759ZM498.5377 712.8859L431.1477 779.7859C419.9177 790.5259 402.8277 791.0159 391.5977 779.7859C380.3677 768.5559 380.3677 750.9759 391.5977 739.7459L458.4977 672.8559C469.7277 661.6259 487.3077 662.5959 498.5377 672.8559C509.2777 684.5659 509.7677 702.1459 498.5377 712.8859Z"/>
</svg>