<?xml version="1.0" encoding="UTF-8" standalone="no"?>
<svg xmlns="http://www.w3.org/2000/svg"
     width="955.56640625" height="1212.416737675468"
     viewBox="0 0 955.56640625 1212.416737675468"
     fill="currentColor">
  <path d="M526.8583 149.176L650.3883 239.016C677.2483 259.036 705.0783 250.736 705.0783 215.586V156.016H714.3583C820.3083 156.016 887.2083 229.256 887.2083 333.746V406.506C887.2083 423.106 900.8783 436.776 917.9683 436.776C934.5683 436.776 948.2383 423.106 948.2383 406.506V333.256C948.2383 193.606 854.9783 99.376 714.8483 99.376H705.0783V34.916C705.0783 -1.214 677.2483 -9.514 650.3883 10.996L526.8583 101.326C506.8383 116.946 506.3483 134.036 526.8583 149.176ZM-0.0017 417.736C-0.0017 439.706 15.6283 454.356 38.0883 454.356H249.0283V792.736C249.0283 816.166 264.1583 831.306 288.0883 831.306H630.8583V1042.246C630.8583 1066.656 646.4883 1083.256 669.9183 1083.256C693.8483 1083.256 709.4683 1066.656 709.4683 1042.246V831.306H916.9883C939.9383 831.306 955.5683 816.656 955.5683 794.196C955.5683 772.226 939.9383 757.576 916.9883 757.576H709.4683V419.686C709.4683 396.246 693.8483 380.626 670.4083 380.626H327.6383V173.106C327.6383 148.686 312.0083 132.086 288.5783 132.086C264.6483 132.086 249.0283 148.686 249.0283 173.106V380.626H38.0883C15.6283 380.626 -0.0017 395.756 -0.0017 417.736ZM341.7983 757.576C331.5383 757.576 327.6383 754.156 327.6383 743.416V454.356H616.6983C626.9483 454.356 630.8583 458.256 630.8583 468.516V757.576ZM10.7383 879.156C10.7383 1019.296 104.0083 1113.536 244.6283 1113.536H254.3983V1177.496C254.3983 1213.626 281.7383 1221.936 309.0783 1201.426L432.1283 1111.096C452.6383 1095.956 453.1283 1078.866 432.1283 1063.236L309.0783 973.396C281.7383 953.866 254.3983 961.676 254.3983 996.836V1056.896H245.1183C139.1583 1056.896 71.7783 983.166 71.7783 879.156V806.406C71.7783 789.806 58.1083 775.646 41.5083 775.646C24.8983 775.646 10.7383 789.806 10.7383 806.406Z"/>
</svg>