<?xml version="1.0" encoding="UTF-8" standalone="no"?>
<svg xmlns="http://www.w3.org/2000/svg"
     width="1047.8515625" height="1048.33984375"
     viewBox="0 0 1047.8515625 1048.33984375"
     fill="currentColor">
  <path d="M-0.0017 603.5131C-0.0017 695.3131 44.4383 740.2331 134.7683 740.2331H308.1083V913.5731C308.1083 1003.9031 353.0283 1048.3431 444.8283 1048.3431H603.0283C694.8283 1048.3431 739.7483 1003.9031 739.7483 913.5731V740.2331H913.0883C1003.4183 740.2331 1047.8483 695.3131 1047.8483 603.5131V445.3131C1047.8483 353.5131 1003.4183 308.5931 913.0883 308.5931H739.7483V134.7631C739.7483 44.4331 694.8283 0.0031 603.0283 0.0031H444.8283C353.0283 0.0031 308.1083 44.4331 308.1083 134.7631V308.5931H134.7683C44.4383 308.5931 -0.0017 353.5131 -0.0017 445.3131ZM78.6183 602.0531V446.7731C78.6183 407.2231 99.1183 387.2031 139.1583 387.2031H386.7183V139.1631C386.7183 99.1231 406.7383 78.6131 446.2883 78.6131H601.5583C641.1183 78.6131 661.1283 99.1231 661.1283 139.1631V387.2031H908.6883C948.7283 387.2031 969.2383 407.2231 969.2383 446.7731V602.0531C969.2383 641.6031 948.7283 661.6231 908.6883 661.6231H661.1283V909.6631C661.1283 949.7031 641.1183 969.7231 601.5583 969.7231H446.2883C406.7383 969.7231 386.7183 949.7031 386.7183 909.6631V661.6231H139.1583C99.1183 661.6231 78.6183 641.6031 78.6183 602.0531Z"/>
</svg>