<?xml version="1.0" encoding="UTF-8" standalone="no"?>
<svg xmlns="http://www.w3.org/2000/svg"
     width="996.09375" height="996.09375"
     viewBox="0 0 996.09375 996.09375"
     fill="currentColor">
  <path d="M498.0477 996.0977C770.5077 996.0977 996.0977 770.5077 996.0977 498.0477C996.0977 226.0777 770.0177 -0.0023 497.5577 -0.0023C225.5877 -0.0023 -0.0023 226.0777 -0.0023 498.0477C-0.0023 770.5077 226.0777 996.0977 498.0477 996.0977ZM219.7277 550.7777V444.3377C219.7277 413.5777 240.7277 392.0877 271.4877 392.0877H392.5777V272.4577C392.5777 240.7177 413.5777 219.7277 444.3377 219.7277H550.7777C582.0277 219.7277 602.5377 240.7177 602.5377 272.4577V392.0877H723.6377C754.8877 392.0877 775.8777 413.5777 775.8777 444.3377V550.7777C775.8777 581.5477 754.8877 602.5377 723.6377 602.5377H602.5377V723.1477C602.5377 754.8877 582.0277 775.3877 550.7777 775.3877H444.3377C413.5777 775.3877 392.5777 754.8877 392.5777 723.1477V602.5377H271.4877C241.2077 602.5377 219.7277 581.5477 219.7277 550.7777Z"/>
</svg>