<?xml version="1.0" encoding="UTF-8" standalone="no"?>
<svg xmlns="http://www.w3.org/2000/svg"
     width="996.09375" height="996.09375"
     viewBox="0 0 996.09375 996.09375"
     fill="currentColor">
  <path d="M498.0477 996.0959C770.5077 996.0959 996.0977 770.0159 996.0977 498.0459C996.0977 225.5859 770.0177 -0.0041 497.5577 -0.0041C225.5877 -0.0041 -0.0023 225.5859 -0.0023 498.0459C-0.0023 770.0159 226.0777 996.0959 498.0477 996.0959ZM498.0477 913.0859C267.5777 913.0859 83.4977 728.5159 83.4977 498.0459C83.4977 267.5759 267.0877 83.0059 497.5577 83.0059C728.0277 83.0059 913.0877 267.5759 913.0877 498.0459C913.0877 728.5159 728.5177 913.0859 498.0477 913.0859ZM228.0277 549.3159C228.0277 579.1059 248.5377 599.1259 277.8277 599.1259H395.5077V716.3059C395.5077 747.0659 415.5277 766.6059 445.3077 766.6059H548.8277C579.0977 766.6059 598.6377 747.0659 598.6377 716.3059V599.1259H716.3077C746.5777 599.1259 766.5977 579.1059 766.5977 549.3159V445.3159C766.5977 416.0159 746.5777 395.5059 716.3077 395.5059H598.6377V278.8059C598.6377 248.5359 579.0977 228.5159 548.8277 228.5159H445.3077C415.5277 228.5159 395.5077 248.5359 395.5077 278.8059V395.5059H277.8277C248.0477 395.5059 228.0277 416.0159 228.0277 445.3159Z"/>
</svg>