<?xml version="1.0" encoding="UTF-8" standalone="no"?>
<svg xmlns="http://www.w3.org/2000/svg"
     width="996.09375" height="996.09375"
     viewBox="0 0 996.09375 996.09375"
     fill="currentColor">
  <path d="M498.0477 996.0977C770.5077 996.0977 996.0977 770.5077 996.0977 498.0477C996.0977 226.0777 770.0177 -0.0023 497.5577 -0.0023C225.5877 -0.0023 -0.0023 226.0777 -0.0023 498.0477C-0.0023 770.5077 226.0777 996.0977 498.0477 996.0977ZM290.5277 722.6577C237.7977 722.6577 211.4277 697.2677 211.4277 644.0477V393.5577C211.4277 340.8177 237.7977 314.9377 290.5277 314.9377H344.2377V289.0577C344.2377 249.0277 370.6077 225.0977 412.1077 225.0977H583.9877C625.4877 225.0977 651.8577 249.0277 651.8577 289.0577V314.9377H705.5677C758.2977 314.9377 785.1577 340.8177 785.1577 393.5577V644.0477C785.1577 697.2677 758.2977 722.6577 705.5677 722.6577ZM393.0677 314.9377H603.5177V291.5077C603.5177 278.3177 595.2177 270.5077 581.5477 270.5077H415.5277C401.3677 270.5077 393.0677 278.3177 393.0677 291.5077ZM378.9077 541.0177C378.9077 554.6877 387.6977 563.4777 401.3677 563.4777H453.1277V615.2377C453.1277 628.4177 462.3977 637.2077 475.5877 637.2077H520.5077C534.1777 637.2077 542.9677 628.4177 542.9677 615.2377V563.4777H594.7277C608.3977 563.4777 617.1877 554.6877 617.1877 541.0177V495.1177C617.1877 481.9377 608.3977 473.1477 594.7277 473.1477H542.9677V421.3877C542.9677 408.2077 534.1777 399.4177 520.5077 399.4177H475.5877C462.3977 399.4177 453.1277 408.2077 453.1277 421.3877V473.1477H401.3677C387.6977 473.1477 378.9077 481.9377 378.9077 495.1177Z"/>
</svg>