<?xml version="1.0" encoding="UTF-8" standalone="no"?>
<svg xmlns="http://www.w3.org/2000/svg"
     width="700.6937886254784" height="888.18359375"
     viewBox="0 0 700.6937886254784 888.18359375"
     fill="currentColor">
  <path d="M373.0483 888.1802C533.6883 888.1802 649.4183 808.5902 692.3783 688.9602C697.7583 674.3202 700.1983 659.6702 700.6883 644.5302C701.1683 619.1402 684.0783 601.5602 657.7183 601.5602C632.3283 601.5602 619.6283 615.7202 611.3283 641.1102C584.9583 734.8602 497.0683 798.8302 384.2783 802.7302V648.9302C384.2783 547.8502 449.2183 477.5402 542.9683 477.5402C558.5983 477.5402 571.7783 480.9602 580.5683 481.9302C621.0983 482.9102 625.9783 431.6402 588.8683 416.9902C573.7283 410.1602 557.6183 407.7102 540.5283 407.7102C462.8883 407.7102 404.2983 454.5902 384.2783 520.0202H382.8083V443.3602C382.8083 422.8502 370.1183 409.6702 352.0483 409.6702C333.0083 409.6702 320.3083 422.8502 320.3083 443.3602V797.8502C183.5983 771.0002 98.1483 638.6702 98.1483 441.4102C98.1483 222.6602 207.0283 85.4502 373.0483 85.4502C484.8683 85.4502 577.6383 154.3002 604.9783 250.4902C613.7683 278.8102 625.9783 290.0402 651.3683 290.0402C677.7383 290.0402 694.8283 272.4602 694.3383 246.5802C693.8483 231.9302 691.4083 218.2602 686.5283 204.5902C642.0883 81.0502 519.5283 0.0002 373.0483 0.0002C147.9483 0.0002 -0.0017 171.3902 -0.0017 441.4102C-0.0017 714.8402 146.9683 888.1802 373.0483 888.1802Z"/>
</svg>