<?xml version="1.0" encoding="UTF-8" standalone="no"?>
<svg xmlns="http://www.w3.org/2000/svg"
     width="898.92578125" height="898.92578125"
     viewBox="0 0 898.92578125 898.92578125"
     fill="currentColor">
  <path d="M153.3183 898.9295H745.6083C848.1483 898.9295 898.9283 848.1495 898.9283 747.5595V151.3695C898.9283 50.7795 848.1483 -0.0005 745.6083 -0.0005H153.3183C51.2683 -0.0005 -0.0017 50.2895 -0.0017 151.3695V747.5595C-0.0017 848.6295 51.2683 898.9295 153.3183 898.9295ZM154.2983 820.3095C105.4683 820.3095 78.6183 794.4295 78.6183 743.6495V155.2695C78.6183 104.4895 105.4683 78.6095 154.2983 78.6095H744.6283C792.9683 78.6095 820.3083 104.4895 820.3083 155.2695V743.6495C820.3083 794.4295 792.9683 820.3095 744.6283 820.3095ZM251.9483 449.2195C251.9483 593.7495 330.5683 683.5895 450.1983 683.5895C536.6183 683.5895 597.6583 640.6295 620.6083 575.6795C623.0483 568.3595 624.5083 560.5495 624.9983 552.2495C624.9983 534.6695 612.7883 522.9495 594.7283 522.9495C578.1283 522.9495 568.8483 531.7395 563.4783 548.3395C551.7583 590.3295 513.1883 620.1195 463.3783 624.5095V553.7095C463.3783 506.8395 492.1883 474.1195 533.6883 474.1195C543.4583 474.1195 550.2883 476.0695 556.1483 476.0695C570.3083 476.0695 580.0783 467.2895 580.0783 454.5895C580.0783 437.0095 562.0083 425.2895 535.6483 425.2895C506.3483 425.2895 478.0283 440.4295 462.8883 469.2395V448.7295C462.8883 433.1095 453.1283 423.8295 438.9683 423.8295C424.8083 423.8295 415.0383 434.0795 415.0383 448.7295V620.1195C354.0083 603.0295 317.3783 539.5495 317.3783 448.7295C317.3783 342.7695 369.1383 273.9295 449.7083 273.9295C502.4383 273.9295 544.9183 306.6395 560.0583 352.0495C565.4283 367.1895 573.7283 377.4395 591.3083 377.4395C609.8683 377.4395 621.0983 365.7195 621.0983 347.6595C621.0983 339.3595 619.6283 330.5695 616.6983 322.7495C594.2383 258.7895 527.8283 214.8395 450.1983 214.8395C330.5683 214.8395 251.9483 306.1495 251.9483 449.2195Z"/>
</svg>