<?xml version="1.0" encoding="UTF-8" standalone="no"?>
<svg xmlns="http://www.w3.org/2000/svg"
     width="996.09375" height="996.09375"
     viewBox="0 0 996.09375 996.09375"
     fill="currentColor">
  <path d="M498.0477 996.0959C770.5077 996.0959 996.0977 770.0159 996.0977 498.0459C996.0977 225.5859 770.0177 -0.0041 497.5577 -0.0041C225.5877 -0.0041 -0.0023 225.5859 -0.0023 498.0459C-0.0023 770.0159 226.0777 996.0959 498.0477 996.0959ZM293.9477 498.5359C293.9477 351.0759 374.9977 256.3459 498.0477 256.3459C578.6177 256.3459 646.9777 301.7559 670.4077 367.6759C673.3377 375.9759 674.8077 384.7659 674.8077 393.5559C674.8077 412.1059 663.0877 424.3159 644.0477 424.3159C625.9777 424.3159 617.1877 413.5759 611.8177 397.9459C595.7077 351.5659 552.2477 317.8759 497.5577 317.8759C415.0377 317.8759 361.8177 388.6759 361.8177 498.0459C361.8177 591.7959 399.4177 656.7359 461.9177 674.8059V498.0459C461.9177 482.9059 472.1677 472.1659 486.8177 472.1659C500.9777 472.1659 511.7177 481.9359 511.7177 498.0459V519.0459C527.3477 489.2559 556.1477 473.6359 586.4277 473.6359C613.7677 473.6359 632.3277 485.8359 632.3277 503.9059C632.3277 517.0859 622.0677 526.3659 607.4177 526.3659C601.5577 526.3659 594.7277 524.4159 584.4777 524.4159C541.9877 524.4159 512.2077 558.1059 512.2077 606.4459V679.1959C562.9877 674.8059 602.5377 644.0459 615.2377 601.0759C620.6077 583.4959 630.3677 574.7059 647.4577 574.7059C666.5077 574.7059 678.7077 586.9159 678.7077 604.9759C678.2277 613.7659 676.7577 621.5859 673.8277 629.3959C650.3877 696.2859 586.9177 740.7259 498.0477 740.7259C374.9977 740.7259 293.9477 647.9459 293.9477 498.5359Z"/>
</svg>