<?xml version="1.0" encoding="UTF-8" standalone="no"?>
<svg xmlns="http://www.w3.org/2000/svg"
     width="985.83984375" height="1065.185546875"
     viewBox="0 0 985.83984375 1065.185546875"
     fill="currentColor">
  <path d="M68.3583 835.697L452.6383 1053.467C479.9783 1069.087 505.8583 1069.087 533.6883 1053.467L917.4783 835.697C962.3983 810.307 985.8383 784.427 985.8383 714.597V327.877C985.8383 277.097 967.2883 245.357 926.2683 221.927L580.5683 25.637C521.4883 -8.543 464.3583 -8.543 405.2783 25.637L60.0583 221.927C18.5583 245.357 -0.0017 277.097 -0.0017 327.877V714.597C-0.0017 784.427 23.9283 810.307 68.3583 835.697ZM459.4683 167.237H526.3683V85.207C533.6883 88.137 541.0183 91.557 548.3383 95.457L870.1183 279.057L526.3683 473.387V395.747H459.4683V473.387L116.2083 279.057L437.9883 95.457C445.3083 91.557 452.6383 88.137 459.4683 85.207ZM459.4683 345.947H526.3683V216.557H459.4683ZM112.3083 771.237L109.8683 770.267L168.9483 740.477L138.6683 680.417L74.2183 712.647V343.507L419.9183 541.257L343.7483 579.347L373.5383 639.407L454.5883 598.877V966.067ZM816.8983 740.477L875.9783 770.267L874.0283 771.237L531.2483 966.067V598.877L612.3083 639.407L642.0883 579.347L565.9183 541.257L911.6183 343.507V712.647L847.6583 680.417ZM213.3783 718.997L328.6183 661.377L298.8283 601.317L183.5983 658.937ZM657.2283 661.377L772.9483 718.997L802.7383 658.937L687.0083 601.317Z"/>
</svg>