<?xml version="1.0" encoding="UTF-8" standalone="no"?>
<svg xmlns="http://www.w3.org/2000/svg"
     width="985.83984375" height="1065.185546875"
     viewBox="0 0 985.83984375 1065.185546875"
     fill="currentColor">
  <path d="M68.3583 835.697L452.6383 1053.467C479.9783 1069.087 505.8583 1069.087 533.6883 1053.467L917.4783 835.697C962.3983 810.307 985.8383 784.427 985.8383 714.597V327.877C985.8383 277.097 967.2883 245.357 926.2683 221.927L580.5683 25.637C521.4883 -8.543 464.3583 -8.543 405.2783 25.637L60.0583 221.927C18.5583 245.357 -0.0017 277.097 -0.0017 327.877V714.597C-0.0017 784.427 23.9283 810.307 68.3583 835.697ZM493.1683 492.427L116.2083 279.057L437.9883 95.457C475.5883 73.977 510.2583 73.487 548.3383 95.457L870.1183 279.057ZM112.3083 771.237C83.9883 755.617 74.2183 739.017 74.2183 712.157V343.507L454.5883 560.787V966.067ZM874.0283 771.237L531.2483 966.067V560.787L911.6183 343.507V712.157C911.6183 739.017 901.8583 755.617 874.0283 771.237Z"/>
</svg>