<?xml version="1.0" encoding="UTF-8" standalone="no"?>
<svg xmlns="http://www.w3.org/2000/svg"
     width="990.72265625" height="1059.08203125"
     viewBox="0 0 990.72265625 1059.08203125"
     fill="currentColor">
  <path d="M526.3683 367.1917V481.9317L955.5683 238.2817C948.2383 230.9617 939.4483 225.1017 928.7083 219.2417L583.9883 22.9517C564.9383 11.7217 545.4083 4.3917 526.3683 0.0017V124.0217H459.4683V1.4617C441.8983 5.3717 424.8083 12.6917 406.7383 22.9517L62.4983 219.2417C51.7583 225.1017 42.9683 230.9617 35.1583 238.2817L459.4683 479.0017V367.1917ZM459.4683 308.1017V183.5917H526.3683V308.1017ZM528.8083 1059.0817C532.2283 1058.1017 535.1583 1056.6417 538.5783 1054.6917L920.8983 836.9117C937.0083 828.1217 950.6883 818.3617 961.4283 807.1317L862.7883 757.8117L893.0683 697.7517L988.2783 745.6017C990.2383 735.8417 990.7183 725.5817 990.7183 713.8717V333.4917C990.7183 318.8517 989.7483 307.1317 986.8183 296.3817L566.8983 536.1317L672.8483 588.3817L643.0683 648.4417L528.8083 592.2817ZM461.9183 1059.0817V592.2817L347.6583 648.4417L317.8683 588.3817L423.8283 536.1317L3.9083 296.3817C0.9783 307.1317 -0.0017 318.8517 -0.0017 333.4917V713.8717C-0.0017 725.1017 0.9783 735.8417 2.4383 745.1217L97.6583 697.7517L127.9283 757.8117L29.2983 807.1317C40.0383 818.3617 54.1983 828.1217 69.8283 836.9117L452.6383 1054.6917C455.5683 1056.6417 458.4983 1058.1017 461.9183 1059.0817ZM802.7383 728.0317L703.6183 678.7117L733.8883 618.6517L832.5183 667.9717ZM187.9883 728.0317L158.1983 667.9717L257.3283 618.6517L287.1083 678.7117Z"/>
</svg>