<?xml version="1.0" encoding="UTF-8" standalone="no"?>
<svg xmlns="http://www.w3.org/2000/svg"
     width="1268.5546875" height="948.2421875"
     viewBox="0 0 1268.5546875 948.2421875"
     fill="currentColor">
  <path d="M614.7483 714.3536H658.6883C829.5883 714.3536 960.9383 634.2736 1024.8983 498.5336H1053.2183C1162.1083 498.5336 1227.5383 441.4036 1227.5383 346.6836C1227.5383 256.3436 1166.9883 200.1936 1067.3783 195.3136C1067.3783 79.1036 893.5583 0.0036 636.7183 0.0036C379.8783 0.0036 206.0583 79.1036 206.0583 195.3136V294.4336C206.0583 541.0136 370.1183 714.3536 614.7483 714.3536ZM636.7183 314.4536C432.6183 314.4536 282.2283 262.6936 282.2283 195.3136C282.2283 128.4136 432.6183 76.1736 636.7183 76.1736C841.3083 76.1736 991.6983 128.4136 991.6983 195.3136C991.6983 262.6936 841.3083 314.4536 636.7183 314.4536ZM1067.3783 294.4336V270.9936C1120.6083 274.9036 1151.3683 302.7336 1151.3683 346.6836C1151.3683 394.0436 1115.2383 422.8536 1053.2183 422.8536H1051.7583C1062.0083 383.3036 1067.3783 340.3336 1067.3783 294.4336ZM634.2783 948.2436C1005.3683 948.2436 1268.5583 842.7736 1268.5583 689.4536C1268.5583 629.8836 1228.0283 577.6336 1156.7383 535.6436C1127.4383 547.8536 1095.2183 554.6836 1058.5983 555.6636C980.9583 690.9136 838.8683 771.4836 658.6883 771.4836H614.7483C414.0583 771.4836 257.3283 665.0436 187.4983 498.5336C68.8483 544.4336 -0.0017 610.8436 -0.0017 689.4536C-0.0017 842.7736 263.6683 948.2436 634.2783 948.2436Z"/>
</svg>