<?xml version="1.0" encoding="UTF-8" standalone="no"?>
<svg xmlns="http://www.w3.org/2000/svg"
     width="898.92578125" height="898.92578125"
     viewBox="0 0 898.92578125 898.92578125"
     fill="currentColor">
  <path d="M153.3183 898.9295H745.6083C848.1483 898.9295 898.9283 848.1495 898.9283 747.5595V151.3695C898.9283 50.7795 848.1483 -0.0005 745.6083 -0.0005H153.3183C51.2683 -0.0005 -0.0017 50.2895 -0.0017 151.3695V747.5595C-0.0017 848.6295 51.2683 898.9295 153.3183 898.9295ZM350.0983 723.6295C282.2283 723.6295 241.6983 684.5695 241.6983 605.9595V543.4595C241.6983 507.3195 232.9083 498.5395 208.0083 491.6995C165.5283 480.4695 165.5283 417.9695 208.0083 406.7395C232.9083 400.3895 241.6983 391.5995 241.6983 355.4695V292.9695C241.6983 214.3595 282.2283 174.8095 350.0983 174.8095C380.3683 174.8095 397.4583 189.4495 397.4583 209.9595C397.4583 230.4695 382.3283 243.1595 362.3083 243.1595C328.1283 243.1595 315.4283 258.2995 315.4283 299.8095V368.1595C315.4283 407.2295 294.9183 436.5195 259.7683 449.2195C294.9183 461.9095 315.4283 491.6995 315.4283 530.2695V599.1195C315.4283 640.6295 328.1283 655.2695 362.3083 655.2695C382.3283 655.2695 397.4583 668.4595 397.4583 688.9695C397.4583 709.4695 380.3683 723.6295 350.0983 723.6295ZM550.2883 723.6295C520.0183 723.6295 502.9283 709.4695 502.9283 688.9695C502.9283 668.4595 518.0683 655.2695 538.0883 655.2695C572.2683 655.2695 584.9583 640.6295 584.9583 599.1195V530.2695C584.9583 491.6995 605.4683 461.9095 640.6283 449.2195C605.4683 436.5195 584.9583 407.2295 584.9583 368.1595V299.8095C584.9583 258.2995 572.2683 243.1595 538.0883 243.1595C518.0683 243.1595 502.9283 230.4695 502.9283 209.9595C502.9283 189.4495 520.0183 174.8095 550.2883 174.8095C618.1683 174.8095 658.6883 214.3595 658.6883 292.9695V355.4695C658.6883 391.5995 667.4783 400.3895 692.3783 406.7395C734.8683 417.4795 734.8683 480.9595 692.3783 491.6995C667.4783 498.5395 658.6883 507.3195 658.6883 543.4595V605.9595C658.6883 684.5695 618.1683 723.6295 550.2883 723.6295ZM242.1883 444.3395V453.6095C248.5383 452.6395 254.3983 451.1695 259.7683 449.2195C254.3983 446.7795 248.5383 445.3095 242.1883 444.3395ZM658.1983 444.3395C651.8583 445.3095 645.9983 446.7795 640.6283 449.2195C645.9983 451.1695 651.8583 452.6395 658.1983 453.6095Z"/>
</svg>