<?xml version="1.0" encoding="UTF-8" standalone="no"?>
<svg xmlns="http://www.w3.org/2000/svg"
     width="909.1796875" height="1008.30078125"
     viewBox="0 0 909.1796875 1008.30078125"
     fill="currentColor">
  <path d="M-0.0017 503.417C-0.0017 531.737 16.1183 551.757 49.8083 557.127C110.3483 566.407 134.2783 597.167 134.2783 675.777V812.987C134.2783 945.797 194.8283 1008.297 326.6583 1008.297C334.4683 1008.297 342.7783 1006.837 348.6283 1004.887C363.7683 998.537 372.0683 986.327 372.0683 970.217C372.0683 951.167 363.7683 941.407 346.6783 937.007C341.7983 936.037 336.9183 935.057 331.0583 934.567C249.0283 928.707 219.2383 893.557 219.2383 803.227V641.117C219.2383 558.597 175.7783 512.697 99.6083 505.367C98.1483 505.367 98.1483 503.417 99.6083 503.417C175.7783 496.097 219.2383 450.197 219.2383 367.677V205.077C219.2383 114.257 249.0283 80.077 331.0583 74.217C338.8683 73.727 345.6983 72.757 350.5883 70.797C364.7483 65.917 372.0683 55.177 372.0683 38.087C372.0683 20.997 363.2783 9.277 346.6783 3.417C339.3583 0.977 331.5383 -0.003 321.7783 -0.003C194.3383 -0.003 134.2783 63.477 134.2783 195.317V333.007C134.2783 410.647 110.3483 441.897 49.8083 451.167C16.1183 456.547 -0.0017 475.587 -0.0017 503.417ZM909.1783 503.417C909.1783 475.587 892.5783 456.547 858.8883 451.167C798.8283 441.897 774.4183 410.647 774.4183 333.007V195.317C774.4183 63.477 714.3583 -0.003 586.9183 -0.003C577.1483 -0.003 569.8283 0.977 562.4983 3.417C544.9183 9.277 536.6183 20.997 536.6183 38.087C536.6183 55.177 544.9183 65.427 558.5983 70.797C563.4783 72.757 569.8283 73.727 577.6383 74.217C659.1783 78.127 689.9383 114.257 689.9383 205.077V367.677C689.9383 450.687 733.3983 503.417 809.0783 503.417C810.5483 503.417 810.5483 505.367 809.0783 505.367C733.3983 505.367 689.9383 558.107 689.9383 641.117V803.227C689.9383 893.557 659.6683 928.707 577.6383 934.567C571.7783 935.057 567.3783 936.037 562.4983 937.007C545.4083 940.427 536.6183 951.167 536.6183 970.217C536.6183 987.307 545.8983 999.997 560.5483 1004.887C566.4083 1006.837 574.2183 1008.297 582.0283 1008.297C713.8683 1008.297 774.4183 945.797 774.4183 812.987V675.777C774.4183 597.167 798.8283 566.407 858.8883 557.127C892.5783 551.757 909.1783 531.737 909.1783 503.417Z"/>
</svg>