<?xml version="1.0" encoding="UTF-8" standalone="no"?>
<svg xmlns="http://www.w3.org/2000/svg"
     width="839.84375" height="1028.80859375"
     viewBox="0 0 839.84375 1028.80859375"
     fill="currentColor">
  <path d="M419.9183 1028.8075C671.8783 1028.8075 839.8483 933.5975 839.8483 798.8275V208.0075C839.8483 84.9575 671.8783 -0.0025 419.9183 -0.0025C167.9683 -0.0025 -0.0017 84.9575 -0.0017 208.0075V798.8275C-0.0017 933.5975 167.9683 1028.8075 419.9183 1028.8075ZM419.9183 341.7975C215.3283 341.7975 78.6183 286.6175 78.6183 208.0075C78.6183 125.9775 215.3283 68.8475 419.9183 68.8475C624.5083 68.8475 761.2283 125.9775 761.2283 208.0075C761.2283 286.6175 624.5083 341.7975 419.9183 341.7975ZM419.9183 415.5275C568.8483 415.5275 688.4783 386.2275 761.2283 336.4275V558.5975C680.6683 610.8375 550.2883 645.0175 419.9183 645.0175C289.5483 645.0175 159.1783 610.8375 78.6183 558.5975V336.4275C151.3683 386.2275 270.9983 415.5275 419.9183 415.5275ZM419.9183 718.7475C547.8483 718.7475 674.3183 688.9675 761.2283 641.5975V798.8275C761.2283 889.1575 624.5083 955.0775 419.9183 955.0775C215.3283 955.0775 78.6183 889.1575 78.6183 798.8275V641.5975C165.5283 688.9675 291.5083 718.7475 419.9183 718.7475Z"/>
</svg>