<?xml version="1.0" encoding="UTF-8" standalone="no"?>
<svg xmlns="http://www.w3.org/2000/svg"
     width="839.84375" height="1028.80859375"
     viewBox="0 0 839.84375 1028.80859375"
     fill="currentColor">
  <path d="M78.6183 208.0075C78.6183 286.6175 216.3083 341.7975 419.9183 341.7975C623.5383 341.7975 761.2283 286.6175 761.2283 208.0075C761.2283 125.9775 624.5083 68.8475 419.9183 68.8475C215.3283 68.8475 78.6183 125.9775 78.6183 208.0075ZM419.9183 644.0475C238.7683 644.0475 103.0283 603.0275 -0.0017 515.6275V208.0075C-0.0017 84.9575 167.9683 -0.0025 419.9183 -0.0025C671.8783 -0.0025 839.8483 84.9575 839.8483 208.0075V515.6275C736.8183 603.0275 601.0783 644.0475 419.9183 644.0475ZM-0.0017 798.8275V600.5875C108.8883 680.6675 244.1383 717.7775 419.9183 717.7775C595.6983 717.7775 730.9583 680.6675 839.8483 600.5875V798.8275C839.8483 933.5975 670.4083 1028.8075 419.9183 1028.8075C169.4383 1028.8075 -0.0017 933.5975 -0.0017 798.8275Z"/>
</svg>