<?xml version="1.0" encoding="UTF-8" standalone="no"?>
<svg xmlns="http://www.w3.org/2000/svg"
     width="1132.32421875" height="840.8203125"
     viewBox="0 0 1132.32421875 840.8203125"
     fill="currentColor">
  <path d="M653.8083 73.7341C674.3183 73.7341 690.4283 57.6141 690.4283 36.6241C690.4283 16.1141 674.3183 0.0041 653.8083 0.0041H37.1083C16.5983 0.0041 -0.0017 16.1141 -0.0017 36.6241C-0.0017 57.6141 16.5983 73.7341 37.1083 73.7341ZM653.8083 329.5941C674.3183 329.5941 690.4283 313.4741 690.4283 292.4841C690.4283 271.9741 674.3183 255.8641 653.8083 255.8641H37.1083C16.5983 255.8641 -0.0017 271.9741 -0.0017 292.4841C-0.0017 313.4741 16.5983 329.5941 37.1083 329.5941ZM1056.1483 570.3141C1091.7983 594.2341 1132.3283 580.5641 1132.3283 537.1141V305.6641C1132.3283 260.7441 1093.7483 246.5841 1056.1483 271.9741L894.5283 381.8341C866.6983 400.8741 865.7183 442.8741 894.5283 462.4041ZM653.8083 585.4541C674.3183 585.4541 690.4283 568.8441 690.4283 548.3441C690.4283 527.8341 674.3183 511.7141 653.8083 511.7141H37.1083C16.5983 511.7141 -0.0017 527.8341 -0.0017 548.3441C-0.0017 568.8441 16.5983 585.4541 37.1083 585.4541ZM404.2983 840.8241C424.8083 840.8241 440.9183 824.7041 440.9183 804.2041C440.9183 783.6941 424.8083 767.0941 404.2983 767.0941H37.1083C16.5983 767.0941 -0.0017 783.6941 -0.0017 804.2041C-0.0017 824.7041 16.5983 840.8241 37.1083 840.8241Z"/>
</svg>