<?xml version="1.0" encoding="UTF-8" standalone="no"?>
<svg xmlns="http://www.w3.org/2000/svg"
     width="828.61328125" height="1192.3828125"
     viewBox="0 0 828.61328125 1192.3828125"
     fill="currentColor">
  <path d="M644.0383 537.6014C754.3983 537.6014 828.6183 465.8214 828.6183 358.8914C828.6183 305.6614 806.1483 258.7914 790.0383 222.6514C760.7383 159.6714 712.8883 81.0514 671.8783 17.5814C663.5783 5.3714 654.7883 0.0014 644.0383 0.0014C633.2983 0.0014 624.5083 5.3714 616.2083 17.5814C575.1983 81.0514 527.3483 159.6714 498.0483 222.6514C481.9383 258.7914 459.4683 305.6614 459.4683 358.8914C459.4683 465.8214 533.6883 537.6014 644.0383 537.6014ZM141.5983 1192.3814C165.0383 1192.3814 180.6683 1176.2714 180.6683 1152.8314V1106.4414H561.0383V1152.8314C561.0383 1176.2714 576.6583 1192.3814 600.0983 1192.3814C624.0283 1192.3814 639.6483 1176.2714 639.6483 1152.8314V1105.4714C701.6583 1099.6114 741.6983 1055.6614 741.6983 991.7014V587.4014C712.3983 598.1414 679.1983 604.0014 644.0383 604.0014C497.5583 604.0014 393.0683 502.9314 393.0683 358.8914C393.0683 289.0614 421.8783 229.4914 437.4983 195.3114C458.9883 148.9214 490.2383 94.7314 520.5083 44.4314H116.6983C46.3883 44.4314 -0.0017 89.8414 -0.0017 158.6914V991.7014C-0.0017 1055.6614 40.0383 1099.6114 102.0483 1105.4714V1152.8314C102.0483 1176.2714 118.1683 1192.3814 141.5983 1192.3814ZM208.0083 330.0814C168.4583 330.0814 136.7183 297.8514 136.7183 258.3014C136.7183 219.2414 168.4583 187.5014 208.0083 187.5014C247.0683 187.5014 279.2983 219.2414 279.2983 258.3014C279.2983 297.8514 247.0683 330.0814 208.0083 330.0814ZM160.6483 728.0314C143.0683 728.0314 128.9083 714.3514 128.9083 696.2914C128.9083 678.7114 143.0683 664.5514 160.6483 664.5514H307.1283C325.1983 664.5514 339.3583 678.7114 339.3583 696.2914C339.3583 714.3514 325.1983 728.0314 307.1283 728.0314ZM434.5683 728.0314C416.5083 728.0314 402.3483 714.3514 402.3483 696.2914C402.3483 678.7114 416.5083 664.5514 434.5683 664.5514H581.0583C598.6283 664.5514 612.7883 678.7114 612.7883 696.2914C612.7883 714.3514 598.6283 728.0314 581.0583 728.0314ZM160.6483 854.0014C143.0683 854.0014 128.9083 840.3314 128.9083 822.2614C128.9083 804.2014 143.0683 790.5314 160.6483 790.5314H307.1283C325.1983 790.5314 339.3583 804.2014 339.3583 822.2614C339.3583 840.3314 325.1983 854.0014 307.1283 854.0014ZM434.5683 854.0014C416.5083 854.0014 402.3483 840.3314 402.3483 822.2614C402.3483 804.2014 416.5083 790.5314 434.5683 790.5314H581.0583C598.6283 790.5314 612.7883 804.2014 612.7883 822.2614C612.7883 840.3314 598.6283 854.0014 581.0583 854.0014ZM160.6483 979.9814C143.0683 979.9814 128.9083 965.8214 128.9083 948.2414C128.9083 930.1714 143.0683 916.0114 160.6483 916.0114H307.1283C325.1983 916.0114 339.3583 930.1714 339.3583 948.2414C339.3583 965.8214 325.1983 979.9814 307.1283 979.9814ZM434.5683 979.9814C416.5083 979.9814 402.3483 965.8214 402.3483 948.2414C402.3483 930.1714 416.5083 916.0114 434.5683 916.0114H581.0583C598.6283 916.0114 612.7883 930.1714 612.7883 948.2414C612.7883 965.8214 598.6283 979.9814 581.0583 979.9814Z"/>
</svg>