<?xml version="1.0" encoding="UTF-8" standalone="no"?>
<svg xmlns="http://www.w3.org/2000/svg"
     width="828.61328125" height="1192.3828125"
     viewBox="0 0 828.61328125 1192.3828125"
     fill="currentColor">
  <path d="M644.0383 537.6014C754.3983 537.6014 828.6183 465.8214 828.6183 358.8914C828.6183 305.6614 806.1483 258.7914 790.0383 222.6514C760.7383 159.6714 712.8883 81.0514 671.8783 17.5814C663.5783 5.3714 654.7883 0.0014 644.0383 0.0014C633.2983 0.0014 624.5083 5.3714 616.2083 17.5814C575.1983 81.0514 527.3483 159.6714 498.0483 222.6514C481.9383 258.7914 459.4683 305.6614 459.4683 358.8914C459.4683 465.8214 533.6883 537.6014 644.0383 537.6014ZM141.5983 1192.3814C165.0383 1192.3814 180.6683 1176.2714 180.6683 1152.8314V1106.4414H561.0383V1152.8314C561.0383 1176.2714 576.6583 1192.3814 600.0983 1192.3814C624.0283 1192.3814 639.6483 1176.2714 639.6483 1152.8314V1101.5614C707.0283 1086.4214 741.6983 1037.6014 741.6983 957.5214V587.4014C717.7783 596.1914 691.4083 601.0714 663.0883 602.0514V953.6114C663.0883 1000.9814 635.7383 1027.8314 589.8483 1027.8314H151.8583C106.4483 1027.8314 78.6183 1000.9814 78.6183 953.6114V197.2614C78.6183 149.4114 106.4483 123.0514 151.8583 123.0514H474.6083C488.7683 96.6814 504.3983 69.8214 520.5083 44.4314H150.8783C52.2483 44.4314 -0.0017 95.7014 -0.0017 192.8714V957.5214C-0.0017 1037.6014 35.1583 1086.4214 102.0483 1101.0714V1152.8314C102.0483 1176.2714 118.1683 1192.3814 141.5983 1192.3814ZM208.0083 327.6414C245.6083 327.6414 276.8583 296.3914 276.8583 258.3014C276.8583 220.7014 245.6083 189.9414 208.0083 189.9414C169.9183 189.9414 139.1583 220.7014 139.1583 258.3014C139.1583 296.3914 169.9183 327.6414 208.0083 327.6414ZM166.9883 714.3514H309.0783C326.6583 714.3514 340.3283 701.1714 340.3283 683.5914C340.3283 666.5014 326.6583 652.8314 309.0783 652.8314H166.9883C149.8983 652.8314 136.2283 666.5014 136.2283 683.5914C136.2283 701.1714 149.8983 714.3514 166.9883 714.3514ZM432.6183 714.3514H574.7083C591.7983 714.3514 605.4683 701.1714 605.4683 683.5914C605.4683 666.5014 591.7983 652.8314 574.7083 652.8314H432.6183C415.0383 652.8314 401.3683 666.5014 401.3683 683.5914C401.3683 701.1714 415.0383 714.3514 432.6183 714.3514ZM166.9883 836.4214H309.0783C326.6583 836.4214 340.3283 823.2414 340.3283 805.6614C340.3283 788.0814 326.6583 774.9014 309.0783 774.9014H166.9883C149.8983 774.9014 136.2283 788.0814 136.2283 805.6614C136.2283 823.2414 149.8983 836.4214 166.9883 836.4214ZM432.6183 836.4214H574.7083C591.7983 836.4214 605.4683 823.2414 605.4683 805.6614C605.4683 788.0814 591.7983 774.9014 574.7083 774.9014H432.6183C415.0383 774.9014 401.3683 788.0814 401.3683 805.6614C401.3683 823.2414 415.0383 836.4214 432.6183 836.4214ZM166.9883 958.4914H309.0783C326.6583 958.4914 340.3283 944.8214 340.3283 927.7314C340.3283 910.1514 326.6583 896.4814 309.0783 896.4814H166.9883C149.8983 896.4814 136.2283 910.1514 136.2283 927.7314C136.2283 944.8214 149.8983 958.4914 166.9883 958.4914ZM432.6183 958.4914H574.7083C591.7983 958.4914 605.4683 944.8214 605.4683 927.7314C605.4683 910.1514 591.7983 896.4814 574.7083 896.4814H432.6183C415.0383 896.4814 401.3683 910.1514 401.3683 927.7314C401.3683 944.8214 415.0383 958.4914 432.6183 958.4914Z"/>
</svg>