<?xml version="1.0" encoding="UTF-8" standalone="no"?>
<svg xmlns="http://www.w3.org/2000/svg"
     width="1058.10546875" height="898.92578125"
     viewBox="0 0 1058.10546875 898.92578125"
     fill="currentColor">
  <path d="M153.3183 898.9295L577.1483 898.4395C634.2783 898.4395 683.5983 880.8595 723.6283 838.8695L1011.7183 541.4995C1043.9483 508.7895 1058.1083 478.9995 1058.1083 448.7295C1058.1083 417.9695 1043.9483 388.6695 1011.7183 355.9595L724.1183 57.1295C684.0783 14.6495 634.7683 -0.0005 577.6383 -0.0005H153.3183C51.7583 -0.0005 -0.0017 50.2895 -0.0017 151.3695V747.5595C-0.0017 848.6295 51.7583 898.9295 153.3183 898.9295ZM154.7883 820.3095C105.9583 820.3095 78.6183 794.4295 78.6183 743.6495V155.2695C78.6183 104.4895 105.9583 78.6095 154.7883 78.6095H579.0983C615.7183 78.6095 640.1383 84.9595 665.0383 110.8395L950.6883 407.2295C966.7983 424.3195 972.6583 436.0395 972.6583 448.7295C972.6583 460.9395 967.2883 472.6595 950.6883 489.7495L664.5483 785.1595C639.1583 811.5195 615.7183 820.3095 578.6183 820.3095ZM273.4383 655.7595C284.6683 655.7595 294.4383 651.3695 301.7583 643.5595L439.9383 504.3895L579.0983 643.5595C586.4283 650.8795 595.6983 655.7595 606.9383 655.7595C628.9083 655.7595 645.9983 637.6995 645.9983 616.2095C645.9983 604.9795 642.0883 595.6995 634.2783 588.3795L495.6083 449.7095L634.7683 310.0595C643.0683 301.7595 646.4883 293.4595 646.4883 282.7195C646.4883 260.7395 629.3983 243.6495 607.4183 243.6495C597.1683 243.6495 588.8683 247.0695 580.5683 255.3695L439.9383 395.0195L300.7783 255.8595C293.4583 248.0495 284.6683 244.6295 273.4383 244.6295C251.9483 244.6295 234.3783 261.2295 234.3783 283.1995C234.3783 293.9495 238.7683 303.2195 246.0983 310.5495L384.7683 449.7095L246.0983 588.8695C238.7683 595.6995 234.3783 605.4695 234.3783 616.2095C234.3783 637.6995 251.9483 655.7595 273.4383 655.7595Z"/>
</svg>