<?xml version="1.0" encoding="UTF-8" standalone="no"?>
<svg xmlns="http://www.w3.org/2000/svg"
     width="996.09375" height="1002.9296875"
     viewBox="0 0 996.09375 1002.9296875"
     fill="currentColor">
  <path d="M498.0477 996.0959C770.5077 996.0959 996.0977 770.0159 996.0977 498.0459C996.0977 225.5859 770.0177 -0.0041 497.5577 -0.0041C225.5877 -0.0041 -0.0023 225.5859 -0.0023 498.0459C-0.0023 770.0159 226.0777 996.0959 498.0477 996.0959ZM498.0477 913.0859C267.5777 913.0859 83.4977 728.5159 83.4977 498.0459C83.4977 267.5759 267.0877 83.0059 497.5577 83.0059C728.0277 83.0059 913.0877 267.5759 913.0877 498.0459C913.0877 728.5159 728.5177 913.0859 498.0477 913.0859ZM330.5677 378.4159L475.5877 523.4359C489.2577 537.5959 510.2577 537.1059 523.9277 523.4359L746.5777 300.7859C760.2577 287.5959 760.7377 266.1159 746.5777 252.9259C732.4177 239.7459 712.3977 239.2559 698.7277 252.9259L499.5077 452.1459L378.9077 330.5659C364.7477 316.8959 344.2377 316.8959 330.5677 330.5659C317.3877 343.7459 316.8977 364.7459 330.5677 378.4159ZM5.8577 768.5559V916.5059C5.8577 975.5859 34.1777 1002.9259 94.2377 1002.9259H250.4877C143.5577 951.1759 63.9677 874.0259 5.8577 768.5559ZM992.1877 768.5559C934.0777 874.0259 854.4877 951.1759 748.0477 1002.9259H903.8077C963.8677 1002.9259 992.1877 975.5859 992.1877 916.5059Z"/>
</svg>