<?xml version="1.0" encoding="UTF-8" standalone="no"?>
<svg xmlns="http://www.w3.org/2000/svg"
     width="1003.90625" height="1183.10546875"
     viewBox="0 0 1003.90625 1183.10546875"
     fill="currentColor">
  <path d="M327.6383 566.4108H676.2683C746.0983 566.4108 788.0883 526.8508 788.0883 457.0308V113.2808C788.0883 44.9208 746.0983 0.0008 676.2683 0.0008H327.6383C258.2983 0.0008 215.8183 41.5008 215.8183 113.2808V453.6108C215.8183 523.9208 258.2983 566.4108 327.6383 566.4108ZM312.0083 836.9108H691.8983C720.2183 836.9108 739.7483 818.3608 739.7483 791.0108C739.7483 778.8108 733.8883 763.6708 724.1183 751.4608L612.7883 623.0508H390.6283L281.7383 751.4608C270.9983 764.1608 264.1583 778.8108 264.1583 791.0108C264.1583 818.3608 283.6883 836.9108 312.0083 836.9108ZM40.0383 1183.1008H962.8883C985.8383 1183.1008 1003.9083 1165.0408 1003.9083 1142.5808C1003.9083 1119.6308 985.8383 1102.0508 962.8883 1102.0508H40.0383C17.5783 1102.0508 -0.0017 1119.6308 -0.0017 1142.5808C-0.0017 1165.0408 17.5783 1183.1008 40.0383 1183.1008Z"/>
</svg>