<?xml version="1.0" encoding="UTF-8" standalone="no"?>
<svg xmlns="http://www.w3.org/2000/svg"
     width="996.09375" height="1002.9296875"
     viewBox="0 0 996.09375 1002.9296875"
     fill="currentColor">
  <path d="M498.0477 996.0959C770.5077 996.0959 996.0977 770.0159 996.0977 498.0459C996.0977 225.5859 770.0177 -0.0041 497.5577 -0.0041C225.5877 -0.0041 -0.0023 225.5859 -0.0023 498.0459C-0.0023 770.0159 226.0777 996.0959 498.0477 996.0959ZM323.2377 377.9259C309.0777 363.7659 309.5677 342.2859 323.2377 328.6159C337.3977 314.4559 358.3977 314.4559 373.0477 328.6159L497.5577 453.6159L702.6377 248.5359C716.7977 234.3759 737.3077 234.8659 751.9577 248.5359C766.5977 262.2059 766.1177 284.6659 751.9577 298.3359L522.9477 527.8359C508.7877 541.9959 486.8177 542.4759 472.6577 527.8359ZM4.8877 768.5559V916.5059C4.8877 975.5859 33.2077 1002.9259 93.2577 1002.9259H249.5077C142.5777 950.6859 62.9877 873.5359 4.8877 768.5559ZM991.2077 768.5559C933.1077 873.5359 853.5177 950.6859 747.0677 1002.9259H902.8277C962.8877 1002.9259 991.2077 975.5859 991.2077 916.5059Z"/>
</svg>