<?xml version="1.0" encoding="UTF-8" standalone="no"?>
<svg xmlns="http://www.w3.org/2000/svg"
     width="1164.0625" height="1130.859375"
     viewBox="0 0 1164.0625 1130.859375"
     fill="currentColor">
  <path d="M546.8783 35.1611V423.3411L551.7583 526.3711L456.5383 419.4311L428.2183 392.0911C421.3883 385.2511 412.5983 381.3511 401.8583 381.3511C382.3283 381.3511 368.6483 395.5111 368.6483 414.5511C368.6483 424.8011 372.0683 433.5911 379.3983 440.4311L555.6683 617.6711C563.9683 625.9811 573.2383 630.8611 582.0283 630.8611C590.3283 630.8611 600.0983 625.9811 607.9083 617.6711L784.6683 440.4311C791.5083 433.5911 795.4083 424.8011 795.4083 414.5511C795.4083 395.5111 781.2483 381.3511 761.7183 381.3511C751.4683 381.3511 742.1883 385.2511 735.3483 392.0911L707.5183 419.4311L611.8183 526.3711L616.6983 423.3411V35.1611C616.6983 13.1811 600.0983 0.0011 582.0283 0.0011C563.9683 0.0011 546.8783 13.1811 546.8783 35.1611ZM112.3083 957.5211H427.7383V1051.7611H424.8083C403.3183 1051.7611 385.2583 1069.3311 385.2583 1091.3111C385.2583 1113.2811 403.3183 1130.8611 424.8083 1130.8611H739.2583C760.7383 1130.8611 778.3183 1113.2811 778.3183 1091.3111C778.3183 1069.3311 760.7383 1051.7611 739.2583 1051.7611H736.3283V957.5211H1051.2683C1121.5783 957.5211 1164.0583 915.0411 1164.0583 844.7311V259.2811C1164.0583 188.9611 1121.5783 146.9711 1051.2683 146.9711H683.5983V225.5811H1050.2883C1071.7783 225.5811 1085.4483 238.7711 1085.4483 260.7411V721.1911C1085.4483 736.8211 1078.6183 742.1911 1063.9683 742.1911H99.6083C84.9583 742.1911 78.6183 736.8211 78.6183 721.1911V260.7411C78.6183 238.7711 92.2883 225.5811 113.7683 225.5811H480.4683V146.9711H112.3083C42.4783 146.9711 -0.0017 188.9611 -0.0017 259.2811V844.7311C-0.0017 915.0411 42.4783 957.5211 112.3083 957.5211Z"/>
</svg>