<?xml version="1.0" encoding="UTF-8" standalone="no"?>
<svg xmlns="http://www.w3.org/2000/svg"
     width="996.09375" height="996.09375"
     viewBox="0 0 996.09375 996.09375"
     fill="currentColor">
  <path d="M498.0477 996.0959C770.5077 996.0959 996.0977 770.0159 996.0977 498.0459C996.0977 225.5859 770.0177 -0.0041 497.5577 -0.0041C225.5877 -0.0041 -0.0023 225.5859 -0.0023 498.0459C-0.0023 770.0159 226.0777 996.0959 498.0477 996.0959ZM498.0477 913.0859C267.5777 913.0859 83.4977 728.5159 83.4977 498.0459C83.4977 267.5759 267.0877 83.0059 497.5577 83.0059C728.0277 83.0059 913.0877 267.5759 913.0877 498.0459C913.0877 728.5159 728.5177 913.0859 498.0477 913.0859ZM247.5577 538.0859L457.5177 748.5359C483.8877 774.4159 511.7177 775.3859 538.0877 749.5159L749.5077 537.5959C775.3877 512.2059 774.4177 483.3959 748.5377 457.5159L538.5777 247.5559C512.2077 221.6759 484.3777 220.7059 458.0077 246.5859L246.5777 458.0059C221.1877 483.8859 222.1677 512.6959 247.5577 538.0859Z"/>
</svg>