<?xml version="1.0" encoding="UTF-8" standalone="no"?>
<svg xmlns="http://www.w3.org/2000/svg"
     width="996.09375" height="996.09375"
     viewBox="0 0 996.09375 996.09375"
     fill="currentColor">
  <path d="M498.0477 996.0959C770.5077 996.0959 996.0977 770.0159 996.0977 498.0459C996.0977 225.5859 770.0177 -0.0041 497.5577 -0.0041C225.5877 -0.0041 -0.0023 225.5859 -0.0023 498.0459C-0.0023 770.0159 226.0777 996.0959 498.0477 996.0959ZM239.2577 539.5459C212.8877 513.1859 211.9177 483.3959 238.2777 456.5459L456.5477 238.7659C483.3977 211.9159 512.6977 212.8859 539.5477 239.7459L755.8577 456.0559C783.2077 482.9059 784.1777 512.2059 756.8377 539.5459L539.0577 757.3259C512.2077 784.1759 482.9077 783.2059 456.0577 756.3459Z"/>
</svg>