<?xml version="1.0" encoding="UTF-8" standalone="no"?>
<svg xmlns="http://www.w3.org/2000/svg"
     width="1033.203125" height="1022.94921875"
     viewBox="0 0 1033.203125 1022.94921875"
     fill="currentColor">
  <path d="M153.3183 796.8713H236.8183V871.5813C236.8183 972.1713 287.5983 1022.9513 390.1383 1022.9513H880.3683C981.9383 1022.9513 1033.1983 972.1713 1033.1983 871.5813V377.4413C1033.1983 276.8513 981.9383 226.0712 880.3683 226.0712H796.3883V151.3713C796.3883 50.7813 745.1183 0.0013 643.5583 0.0013H153.3183C50.7783 0.0013 -0.0017 50.7813 -0.0017 151.3713V645.5113C-0.0017 746.0912 50.7783 796.8713 153.3183 796.8713ZM154.2983 718.2613C105.4683 718.2613 78.6183 691.8913 78.6183 641.1113V155.7613C78.6183 104.9813 105.4683 78.6113 154.2983 78.6113H642.0883C690.4283 78.6113 717.7783 104.9813 717.7783 155.7613V226.0712H390.1383C287.5983 226.0712 236.8183 276.3713 236.8183 377.4413V718.2613ZM391.1183 944.3313C342.7783 944.3313 315.4283 917.9713 315.4283 867.1913V381.8313C315.4283 331.0513 342.7783 304.6912 391.1183 304.6912H878.9083C927.2483 304.6912 954.5883 331.0513 954.5883 381.8313V867.1913C954.5883 917.9713 927.2483 944.3313 878.9083 944.3313ZM444.3383 502.9313C481.9383 503.4213 513.1883 472.1713 513.1883 433.5913C513.1883 395.0213 481.9383 364.7413 444.3383 364.7413C406.2483 364.7413 374.9983 395.0213 374.9983 433.5913C374.9983 472.1713 406.2483 502.4413 444.3383 502.9313ZM826.6583 502.9313C864.2583 503.4213 895.5083 472.1713 895.5083 433.5913C895.5083 395.0213 864.2583 364.7413 826.6583 364.7413C788.5783 364.7413 756.8383 395.0213 756.8383 433.5913C756.8383 472.1713 788.5783 502.4413 826.6583 502.9313ZM635.2583 694.3313C672.8483 694.3313 704.0983 663.0813 704.0983 624.5113C704.0983 586.9113 672.8483 556.1513 635.2583 556.1513C597.1683 556.1513 566.4083 586.9113 566.4083 624.5113C566.4083 663.0813 597.1683 694.3313 635.2583 694.3313ZM444.3383 885.7413C481.9383 885.7413 513.1883 854.4913 513.1883 816.4013C513.1883 778.3213 481.9383 747.5613 444.3383 747.5613C406.2483 747.5613 375.4883 778.3213 375.4883 816.4013C375.4883 854.4913 406.2483 885.7413 444.3383 885.7413ZM826.6583 885.7413C864.2583 885.7413 895.5083 854.4913 895.5083 816.4013C895.5083 778.3213 864.2583 747.5613 826.6583 747.5613C788.5783 747.5613 757.3283 778.3213 757.3283 816.4013C757.3283 854.4913 788.5783 885.7413 826.6583 885.7413Z"/>
</svg>