<?xml version="1.0" encoding="UTF-8" standalone="no"?>
<svg xmlns="http://www.w3.org/2000/svg"
     width="898.92578125" height="898.92578125"
     viewBox="0 0 898.92578125 898.92578125"
     fill="currentColor">
  <path d="M153.3183 898.9295H745.6083C848.1483 898.9295 898.9283 848.1495 898.9283 747.5595V151.3695C898.9283 50.7795 848.1483 -0.0005 745.6083 -0.0005H153.3183C51.2683 -0.0005 -0.0017 50.2895 -0.0017 151.3695V747.5595C-0.0017 848.6295 51.2683 898.9295 153.3183 898.9295ZM223.6283 304.6895C178.2183 303.7095 141.5983 268.0695 141.5983 222.1695C141.5983 177.2495 178.2183 141.1095 223.6283 141.1095C268.0683 141.1095 305.1783 177.2495 305.1783 222.1695C305.1783 268.0695 268.0683 305.6595 223.6283 304.6895ZM676.2683 304.6895C630.8583 303.7095 593.7483 268.0695 593.7483 222.1695C593.7483 177.2495 630.8583 141.1095 676.2683 141.1095C720.6983 141.1095 757.3283 177.2495 757.3283 222.1695C757.3283 268.0695 720.6983 305.6595 676.2683 304.6895ZM449.7083 531.2495C404.2983 531.2495 368.1683 494.6295 368.1683 448.7295C368.1683 403.8095 404.2983 367.6795 449.7083 367.6795C494.1383 367.6795 531.2483 403.8095 531.2483 448.7295C531.2483 494.6295 494.1383 531.2495 449.7083 531.2495ZM223.6283 757.8095C178.2183 757.8095 142.0883 721.1895 142.0883 675.7795C142.0883 630.3695 178.2183 594.2395 223.6283 594.2395C268.0683 594.2395 305.1783 630.3695 305.1783 675.7795C305.1783 721.1895 268.0683 757.8095 223.6283 757.8095ZM676.2683 757.8095C630.8583 757.8095 594.7283 721.1895 594.7283 675.7795C594.7283 630.3695 630.8583 594.2395 676.2683 594.2395C720.6983 594.2395 757.3283 630.3695 757.3283 675.7795C757.3283 721.1895 720.6983 757.8095 676.2683 757.8095Z"/>
</svg>