<?xml version="1.0" encoding="UTF-8" standalone="no"?>
<svg xmlns="http://www.w3.org/2000/svg"
     width="898.92578125" height="898.92578125"
     viewBox="0 0 898.92578125 898.92578125"
     fill="currentColor">
  <path d="M153.3183 898.9295H745.6083C848.1483 898.9295 898.9283 848.1495 898.9283 747.5595V151.3695C898.9283 50.7795 848.1483 -0.0005 745.6083 -0.0005H153.3183C51.2683 -0.0005 -0.0017 50.2895 -0.0017 151.3695V747.5595C-0.0017 848.6295 51.2683 898.9295 153.3183 898.9295ZM154.2983 820.3095C105.4683 820.3095 78.6183 794.4295 78.6183 743.6495V155.2695C78.6183 104.4895 105.4683 78.6095 154.2983 78.6095H744.6283C792.9683 78.6095 820.3083 104.4895 820.3083 155.2695V743.6495C820.3083 794.4295 792.9683 820.3095 744.6283 820.3095ZM230.4683 309.0795C273.4383 309.5695 309.5683 273.4395 309.5683 228.9995C309.5683 185.5495 273.4383 150.3895 230.4683 150.3895C186.5283 150.3895 150.8783 185.5495 150.8783 228.9995C150.8783 273.4395 186.5283 308.1095 230.4683 309.0795ZM669.4383 309.0795C712.3983 309.5695 748.0483 273.4395 748.0483 228.9995C748.0483 185.5495 712.3983 150.3895 669.4383 150.3895C625.4883 150.3895 589.3583 185.5495 589.3583 228.9995C589.3583 273.4395 625.4883 308.1095 669.4383 309.0795ZM449.7083 528.8095C492.6783 528.8095 528.8083 493.1595 528.8083 448.7295C528.8083 405.2695 492.6783 370.1195 449.7083 370.1195C405.7583 370.1195 370.6083 405.2695 370.6083 448.7295C370.6083 493.1595 405.7583 528.8095 449.7083 528.8095ZM230.4683 748.5395C273.4383 748.5395 309.5683 712.8895 309.5683 668.9495C309.5683 624.9995 273.4383 589.8395 230.4683 589.8395C186.5283 589.8395 151.3683 624.9995 151.3683 668.9495C151.3683 712.8895 186.5283 748.5395 230.4683 748.5395ZM669.4383 748.5395C712.3983 748.5395 748.0483 712.8895 748.0483 668.9495C748.0483 624.9995 712.3983 589.8395 669.4383 589.8395C625.4883 589.8395 590.3283 624.9995 590.3283 668.9495C590.3283 712.8895 625.4883 748.5395 669.4383 748.5395Z"/>
</svg>