<?xml version="1.0" encoding="UTF-8" standalone="no"?>
<svg xmlns="http://www.w3.org/2000/svg"
     width="987.3046875" height="1082.3359875982037"
     viewBox="0 0 987.3046875 1082.3359875982037"
     fill="currentColor">
  <path d="M493.6483 450.193C782.2283 450.193 974.6083 358.883 974.6083 225.093C974.6083 91.313 782.2283 0.003 493.6483 0.003C205.0783 0.003 12.6983 91.313 12.6983 225.093C12.6983 358.883 205.0783 450.193 493.6483 450.193ZM493.6483 709.963C800.7783 709.963 987.3083 624.023 987.3083 419.923V364.253C951.1683 405.763 898.4383 439.453 831.5383 464.353V530.763C831.5383 548.343 816.8983 562.503 799.3183 562.503C781.7383 562.503 767.5783 548.343 767.5783 530.763V485.353C739.2583 492.673 708.9883 498.533 681.6383 502.933V563.963C681.6383 581.543 667.4783 595.703 649.8983 595.703C632.3283 595.703 617.6783 581.543 617.6783 563.963V511.233C585.9383 514.163 549.8083 516.603 519.5283 517.093V576.173C519.5283 593.753 505.3683 608.403 487.7883 608.403C470.2183 608.403 455.5683 593.753 455.5683 576.173V516.603C423.3383 516.113 389.6483 513.673 357.9083 510.253V563.963C357.9083 581.543 343.2583 595.703 325.6883 595.703C308.1083 595.703 293.9483 581.543 293.9483 563.963V500.973C263.6683 496.093 235.3483 489.743 208.0083 481.933V530.763C208.0083 548.343 193.8483 562.503 176.2683 562.503C158.6883 562.503 144.0383 548.343 144.0383 530.763V459.963C82.5183 435.543 33.6883 403.323 -0.0017 364.253V419.923C-0.0017 624.023 186.0383 709.963 493.6483 709.963ZM91.7983 931.153C91.7983 945.803 98.6283 960.933 115.7183 966.793C215.3283 1002.933 322.2683 1021.973 438.4783 1021.973C528.8083 1021.973 613.7683 1010.743 694.3383 988.283L718.7483 1058.593C729.4883 1088.383 767.5783 1089.353 782.7183 1065.923L879.3983 913.083C892.5783 892.093 884.2783 869.143 861.3283 861.333L691.4083 801.753C665.0383 792.973 633.7883 815.913 645.0183 848.143L669.9183 918.453C597.1683 938.473 520.5083 948.243 438.4783 948.243C330.5683 948.243 232.4183 931.153 140.6283 897.463C110.8383 886.233 91.7983 908.693 91.7983 931.153Z"/>
</svg>