<?xml version="1.0" encoding="UTF-8" standalone="no"?>
<svg xmlns="http://www.w3.org/2000/svg"
     width="987.3046875" height="1137.20703125"
     viewBox="0 0 987.3046875 1137.20703125"
     fill="currentColor">
  <path d="M523.4383 523.4361L654.2983 375.9761C680.1783 347.1661 665.5283 305.6661 624.0283 305.6661H535.6483V41.5061C535.6483 18.0661 517.0883 -0.0039 494.1383 -0.0039C470.2183 -0.0039 452.1483 18.0661 452.1483 41.5061V305.6661H362.7883C322.7583 305.6661 305.6683 345.7061 332.0283 375.9761L463.3783 523.4361C480.9583 543.9461 505.3683 543.9461 523.4383 523.4361ZM493.6483 1137.2061C800.7783 1137.2061 987.3083 1051.2661 987.3083 847.1661V652.3461C987.3083 545.8961 874.9983 465.3361 693.8483 432.6161L632.3283 501.4661C801.7583 520.5061 908.6883 576.1761 908.6883 652.3461C908.6883 747.0661 742.6783 811.5261 493.6483 811.5261C244.6283 811.5261 78.6183 747.0661 78.6183 652.3461C78.6183 576.6561 185.0583 520.5061 354.9783 501.4661L292.9683 432.6161C111.8183 465.3361 -0.0017 545.8961 -0.0017 652.3461V847.1661C-0.0017 1051.2661 186.0383 1137.2061 493.6483 1137.2061ZM208.0083 904.7861V852.5361C234.3783 860.8361 263.1883 867.6761 293.9483 873.0461V937.9861C293.9483 955.5661 308.1083 970.2161 325.6883 970.2161C343.2583 970.2161 357.9083 955.5661 357.9083 937.9861V882.8161C388.6683 886.2261 421.3883 888.1861 455.5683 889.1561V950.6861C455.5683 968.2661 470.2183 982.4261 487.7883 982.4261C505.3683 982.4261 519.5283 968.2661 519.5283 950.6861V889.6461C553.7083 889.1561 586.4283 887.2061 617.6783 883.7861V937.9861C617.6783 955.5661 632.3283 970.2161 649.8983 970.2161C667.4783 970.2161 681.6383 955.5661 681.6383 937.9861V875.4861C712.3983 870.1161 740.7183 863.7661 767.5783 855.9561V904.7861C767.5783 922.3661 781.7383 937.0161 799.3183 937.0161C816.8983 937.0161 831.5383 922.3661 831.5383 904.7861V833.4961C860.8383 821.2861 886.7183 806.6361 908.6883 790.5261V847.1661C908.6883 1002.4461 751.9483 1058.5961 493.6483 1058.5961C235.3483 1058.5961 78.6183 1002.4461 78.6183 847.1661V790.5261C97.6583 804.6861 119.1383 817.3861 144.0383 828.6161V904.7861C144.0383 922.3661 158.6883 937.0161 176.2683 937.0161C193.8483 937.0161 208.0083 922.3661 208.0083 904.7861Z"/>
</svg>