<?xml version="1.0" encoding="UTF-8" standalone="no"?>
<svg xmlns="http://www.w3.org/2000/svg"
     width="1137.20703125" height="987.3046875"
     viewBox="0 0 1137.20703125 987.3046875"
     fill="currentColor">
  <path d="M-0.0017 493.6514C-0.0017 800.7814 85.9383 987.3014 290.0383 987.3014H345.6983C304.1983 951.1714 270.0183 898.4414 245.1183 831.5414H179.1983C161.6183 831.5414 146.9683 816.8914 146.9683 799.3114C146.9683 781.7414 161.6183 767.5814 179.1983 767.5814H224.6083C217.2883 739.2614 210.9383 708.9814 206.5383 681.6414H145.9983C128.4183 681.6414 114.2583 667.4814 114.2583 649.9014C114.2583 632.3214 128.4183 617.6714 145.9983 617.6714H198.7283C195.3083 585.9414 193.3583 549.8014 192.8683 519.5314H133.7883C116.2083 519.5314 101.5583 505.3714 101.5583 487.7914C101.5583 470.2114 116.2083 455.5614 133.7883 455.5614H193.3583C193.8483 423.3414 195.7983 389.6514 199.7083 357.9114H145.9983C128.4183 357.9114 114.2583 343.2614 114.2583 325.6814C114.2583 308.1014 128.4183 293.9414 145.9983 293.9414H208.4983C213.8683 263.6714 219.7283 235.3514 228.0283 208.0114H179.1983C161.6183 208.0114 146.9683 193.8514 146.9683 176.2714C146.9683 158.6914 161.6183 144.0414 179.1983 144.0414H249.5083C273.9283 82.5214 306.6383 33.6914 345.6983 0.0014H290.0383C85.9383 0.0014 -0.0017 186.0314 -0.0017 493.6514ZM569.3383 413.5714L693.3583 302.7314C662.5983 123.0514 585.4483 12.2114 484.8683 12.2114C351.0783 12.2114 259.7683 205.0814 259.7683 493.6514C259.7683 782.2314 351.0783 974.6114 484.8683 974.6114C585.4483 974.6114 662.5983 863.7714 693.3583 684.5714L569.3383 573.2414C519.0383 529.3014 519.0383 458.0114 569.3383 413.5714ZM613.2783 523.4414L761.2283 654.3014C789.5483 680.1714 831.5383 665.5314 831.5383 624.0214V535.6414H1095.2183C1119.1383 535.6414 1137.2083 517.0914 1137.2083 494.1414C1137.2083 470.2114 1119.1383 452.1514 1095.2183 452.1514H831.5383V362.7914C831.5383 322.7514 791.0183 305.6614 761.2283 332.0314L613.2783 463.3814C593.2583 480.9614 592.7783 505.3714 613.2783 523.4414Z"/>
</svg>