<?xml version="1.0" encoding="UTF-8" standalone="no"?>
<svg xmlns="http://www.w3.org/2000/svg"
     width="987.3046875" height="1094.9553554811805"
     viewBox="0 0 987.3046875 1094.9553554811805"
     fill="currentColor">
  <path d="M493.6483 722.1706C800.7783 722.1706 987.3083 636.7206 987.3083 432.1306V237.7906C987.3083 95.2106 789.5483 0.0006 493.6483 0.0006C197.2683 0.0006 -0.0017 95.2106 -0.0017 237.7906V432.1306C-0.0017 636.7206 186.0383 722.1706 493.6483 722.1706ZM493.6483 396.4806C244.6283 396.4806 78.6183 332.5206 78.6183 237.7906C78.6183 143.0706 244.6283 78.6106 493.6483 78.6106C742.6783 78.6106 908.6883 143.0706 908.6883 237.7906C908.6883 332.5206 742.6783 396.4806 493.6483 396.4806ZM208.0083 490.2306V437.9906C234.3783 446.2906 263.1883 453.1206 293.9483 458.5006V523.4406C293.9483 541.0106 308.1083 555.6606 325.6883 555.6606C343.2583 555.6606 357.9083 541.0106 357.9083 523.4406V467.7706C388.6683 471.6806 421.3883 473.6306 455.5683 474.6106V536.1306C455.5683 553.7106 470.2183 567.8706 487.7883 567.8706C505.3683 567.8706 519.5283 553.7106 519.5283 536.1306V475.1006C553.7083 474.1206 586.4283 472.1706 617.6783 469.2406V523.4406C617.6783 541.0106 632.3283 555.6606 649.8983 555.6606C667.4783 555.6606 681.6383 541.0106 681.6383 523.4406V460.4506C712.3983 455.5706 740.7183 449.2206 767.5783 441.4106V490.2306C767.5783 507.8106 781.7383 522.4606 799.3183 522.4606C816.8983 522.4606 831.5383 507.8106 831.5383 490.2306V418.9406C860.8383 406.2506 886.7183 392.0906 908.6883 375.9806V432.1306C908.6883 587.4006 751.9483 643.5506 493.6483 643.5506C235.3483 643.5506 78.6183 587.4006 78.6183 432.1306V375.9806C97.6583 389.6506 119.1383 402.3406 144.0383 414.0606V490.2306C144.0383 507.8106 158.6883 522.4606 176.2683 522.4606C193.8483 522.4606 208.0083 507.8106 208.0083 490.2306ZM94.2383 947.7506C94.2383 962.4006 101.0783 978.0306 119.1383 983.8906C215.8183 1016.1106 325.1983 1034.6706 438.4783 1034.6706C526.3683 1034.6706 612.3083 1023.9306 691.8983 1003.4206L715.8183 1071.2906C726.5583 1101.0706 764.6483 1102.0506 779.7883 1078.1206L876.9483 925.7806C889.6483 904.7806 881.3483 881.8406 858.3983 873.5306L688.4783 814.4506C662.1083 805.1806 630.8583 828.6106 642.0883 860.3506L667.4783 933.5906C595.6983 951.1706 518.0683 960.9406 438.4783 960.9406C333.4983 960.9406 232.4183 944.3406 143.0683 914.0606C113.2783 903.3206 94.2383 925.2906 94.2383 947.7506Z"/>
</svg>