<?xml version="1.0" encoding="UTF-8" standalone="no"?>
<svg xmlns="http://www.w3.org/2000/svg"
     width="926.26953125" height="1067.3828125"
     viewBox="0 0 926.26953125 1067.3828125"
     fill="currentColor">
  <path d="M113.2783 1025.3889H376.4683C356.4483 1002.4389 340.8183 975.5889 330.0783 946.7789H116.6983C94.2383 946.7789 78.6183 931.6389 78.6183 908.1989V890.1389H311.0383C306.6383 866.6989 306.1483 848.1489 307.6183 826.1689H78.6183V318.8489H768.5583V558.1089C796.8783 564.4489 822.7583 575.1989 847.1683 589.8389V116.6989C847.1683 46.8789 801.7583 -0.0011 734.3783 -0.0011H113.2783C45.4083 -0.0011 -0.0017 46.8789 -0.0017 116.6989V909.1789C-0.0017 979.0089 45.4083 1025.3889 113.2783 1025.3889ZM78.6183 117.6789C78.6183 94.2389 94.2383 78.6089 116.6983 78.6089H730.4683C753.4183 78.6089 768.5583 94.2389 768.5583 117.6789V254.8789H78.6183ZM184.0783 209.9589C208.0083 209.9589 227.0483 190.4289 227.0483 166.4989C227.0483 143.0689 208.0083 123.5389 184.0783 123.5389C160.6483 123.5389 141.1183 143.0689 141.1183 166.4989C141.1183 190.4289 160.6483 209.9589 184.0783 209.9589ZM308.5983 209.9589C332.5183 209.9589 351.5583 190.4289 351.5583 166.4989C351.5583 143.0689 332.5183 123.5389 308.5983 123.5389C285.1583 123.5389 266.1183 143.0689 266.1183 166.4989C266.1183 190.4289 285.1583 209.9589 308.5983 209.9589ZM308.5983 426.7589H539.0583C553.7083 426.7589 563.4783 416.4989 563.4783 401.8589C563.4783 387.2089 553.7083 377.4389 539.0583 377.4389H308.5983C293.9483 377.4389 283.6883 387.2089 283.6883 401.8589C283.6883 416.4989 293.9483 426.7589 308.5983 426.7589ZM594.2383 1067.3789C611.3283 1067.3789 628.4183 1065.4289 644.5283 1062.0089C660.6483 1065.9189 677.2483 1067.3789 694.3383 1067.3789C822.7583 1067.3789 926.2683 964.3589 926.2683 835.4489C926.2683 706.0589 822.7583 603.0289 694.3383 603.0289C677.2483 603.0289 660.6483 604.9789 644.5283 608.3989C628.4183 604.9789 611.3283 603.0289 594.2383 603.0289C465.3283 603.0289 361.8183 706.0589 361.8183 835.4489C361.8183 964.3589 465.3283 1067.3789 594.2383 1067.3789ZM594.2383 1018.0689C489.2583 1018.0689 411.1283 939.4489 411.1283 835.4489C411.1283 730.9589 489.2583 652.3389 594.2383 652.3389C698.2383 652.3389 776.8583 730.9589 776.8583 835.4489C776.8583 939.4489 698.2383 1018.0689 594.2383 1018.0689ZM826.1683 835.4489C826.1683 764.6489 794.9183 701.6589 746.0983 659.1789C823.2383 680.1789 876.9483 749.0189 876.9483 835.4489C876.9483 921.3889 823.2383 990.2389 745.6083 1011.2289C794.9183 968.7489 826.1683 905.7589 826.1683 835.4489ZM594.2383 981.4489C674.3183 981.4489 740.2383 916.0189 740.2383 835.4489C740.2383 754.8789 674.3183 689.4489 594.2383 689.4489C513.1883 689.4489 447.7583 754.8789 447.7583 835.4489C447.7583 916.0189 513.1883 981.4489 594.2383 981.4489ZM594.2383 937.0089C534.6683 937.0089 492.1883 894.5289 492.1883 835.4489C492.1883 775.8789 534.6683 733.8889 594.2383 733.8889C653.8083 733.8889 695.7983 775.8789 695.7983 835.4489C695.7983 895.0189 653.3183 937.0089 594.2383 937.0089Z"/>
</svg>