<?xml version="1.0" encoding="UTF-8" standalone="no"?>
<svg xmlns="http://www.w3.org/2000/svg"
     width="1571.77734375" height="983.88671875"
     viewBox="0 0 1571.77734375 983.88671875"
     fill="currentColor">
  <path d="M112.3083 810.5484H427.7383V904.7884H424.8083C403.3183 904.7884 385.2583 922.3584 385.2583 944.3384C385.2583 966.3084 403.3183 983.8884 424.8083 983.8884H739.2583C760.7383 983.8884 778.3183 966.3084 778.3183 944.3384C778.3183 922.3584 760.7383 904.7884 739.2583 904.7884H736.3283V849.1184C751.4683 854.0084 769.5283 855.9584 789.5483 855.9584H988.7683V904.7884H985.8383C964.3583 904.7884 946.2883 922.3584 946.2883 944.3384C946.2883 966.3084 964.3583 983.8884 985.8383 983.8884H1249.9983C1271.9683 983.8884 1289.5483 966.3084 1289.5483 944.3384C1289.5483 922.3584 1271.9683 904.7884 1249.9983 904.7884H1247.5583V855.9584H1446.7783C1530.2783 855.9584 1571.7783 816.4084 1571.7783 730.9584V357.9084C1571.7783 272.4584 1530.2783 232.4184 1446.7783 232.4184H1164.0583V112.3084C1164.0583 41.9884 1121.5783 -0.0016 1051.2683 -0.0016H112.3083C42.4783 -0.0016 -0.0017 41.9884 -0.0017 112.3084V697.7584C-0.0017 768.0684 42.4783 810.5484 112.3083 810.5484ZM664.0583 730.9584V731.9384H113.7683C92.2883 731.9384 78.6183 718.2584 78.6183 696.7784V113.7684C78.6183 91.7984 92.2883 78.6084 113.7683 78.6084H1050.2883C1071.7783 78.6084 1085.4483 91.7984 1085.4483 113.7684V232.4184H789.5483C706.0583 232.4184 664.0583 272.4584 664.0583 357.9084ZM742.6783 729.4884V359.3784C742.6783 324.7084 757.3283 311.0384 791.0183 311.0384H1445.3083C1478.5183 311.0384 1493.1683 324.7084 1493.1683 359.3784V729.4884C1493.1683 763.6684 1478.5183 777.3484 1445.3083 777.3484H791.0183C757.3283 777.3484 742.6783 763.6684 742.6783 729.4884Z"/>
</svg>