<?xml version="1.0" encoding="UTF-8" standalone="no"?>
<svg xmlns="http://www.w3.org/2000/svg"
     width="1168.9453125" height="1164.0625"
     viewBox="0 0 1168.9453125 1164.0625"
     fill="currentColor">
  <path d="M34.1783 71.7803H1134.7683C1153.8083 71.7803 1168.9483 54.6903 1168.9483 35.6403C1168.9483 16.6003 1153.8083 0.0003 1134.7683 0.0003H34.1783C14.6483 0.0003 -0.0017 16.6003 -0.0017 35.6403C-0.0017 54.6903 14.6483 71.7803 34.1783 71.7803ZM400.3883 507.8103H768.5583C841.3083 507.8103 880.3683 469.2403 880.3683 397.9503V261.7203C880.3683 190.4303 841.3083 151.8603 768.5583 151.8603H400.3883C327.6383 151.8603 288.5783 190.4303 288.5783 261.7203V397.9503C288.5783 469.2403 327.6383 507.8103 400.3883 507.8103ZM401.3683 434.0803C376.4683 434.0803 362.3083 419.9203 362.3083 394.0403V266.1103C362.3083 239.7503 376.4683 225.5903 401.3683 225.5903H767.5783C792.4783 225.5903 806.6383 239.7503 806.6383 266.1103V394.0403C806.6383 419.9203 792.4783 434.0803 767.5783 434.0803ZM34.1783 727.5403H1134.7683C1153.8083 727.5403 1168.9483 710.9403 1168.9483 691.8903C1168.9483 672.8503 1153.8083 655.7603 1134.7683 655.7603H34.1783C14.6483 655.7603 -0.0017 672.8503 -0.0017 691.8903C-0.0017 710.9403 14.6483 727.5403 34.1783 727.5403ZM227.5383 1164.0603H941.4083C1014.1583 1164.0603 1053.2183 1125.4903 1053.2183 1054.2003V917.9703C1053.2183 846.6803 1014.1583 808.1103 941.4083 808.1103H227.5383C154.7883 808.1103 115.7183 846.6803 115.7183 917.9703V1054.2003C115.7183 1125.4903 154.7883 1164.0603 227.5383 1164.0603ZM228.5183 1090.3303C203.6183 1090.3303 189.4483 1076.1703 189.4483 1049.8003V921.8703C189.4483 896.0003 203.6183 881.8403 228.5183 881.8403H940.4283C965.3283 881.8403 979.4883 896.0003 979.4883 921.8703V1049.8003C979.4883 1076.1703 965.3283 1090.3303 940.4283 1090.3303Z"/>
</svg>