<?xml version="1.0" encoding="UTF-8" standalone="no"?>
<svg xmlns="http://www.w3.org/2000/svg"
     width="1168.9453125" height="1164.0625"
     viewBox="0 0 1168.9453125 1164.0625"
     fill="currentColor">
  <path d="M400.3883 355.9603H768.5583C841.3083 355.9603 880.3683 317.3803 880.3683 246.0903V109.8603C880.3683 38.5703 841.3083 0.0003 768.5583 0.0003H400.3883C327.6383 0.0003 288.5783 38.5703 288.5783 109.8603V246.0903C288.5783 317.3803 327.6383 355.9603 400.3883 355.9603ZM401.3683 282.2303C376.4683 282.2303 362.3083 268.0703 362.3083 241.7003V114.2603C362.3083 87.8903 376.4683 73.7303 401.3683 73.7303H767.5783C792.4783 73.7303 806.6383 87.8903 806.6383 114.2603V241.7003C806.6383 268.0703 792.4783 282.2303 767.5783 282.2303ZM34.1783 507.8103H1134.7683C1153.8083 507.8103 1168.9483 491.2103 1168.9483 472.1703C1168.9483 453.1203 1153.8083 436.0303 1134.7683 436.0303H34.1783C14.6483 436.0303 -0.0017 453.1203 -0.0017 472.1703C-0.0017 491.2103 14.6483 507.8103 34.1783 507.8103ZM227.5383 1012.2103H941.4083C1014.1583 1012.2103 1053.2183 973.1403 1053.2183 901.8603V765.6203C1053.2183 694.8203 1014.1583 655.7603 941.4083 655.7603H227.5383C154.7883 655.7603 115.7183 694.8203 115.7183 765.6203V901.8603C115.7183 973.1403 154.7883 1012.2103 227.5383 1012.2103ZM228.5183 938.4803C203.6183 938.4803 189.4483 923.8303 189.4483 897.9503V770.0203C189.4483 744.1403 203.6183 729.4903 228.5183 729.4903H940.4283C965.3283 729.4903 979.4883 744.1403 979.4883 770.0203V897.9503C979.4883 923.8303 965.3283 938.4803 940.4283 938.4803ZM34.1783 1164.0603H1134.7683C1153.8083 1164.0603 1168.9483 1146.9703 1168.9483 1127.9303C1168.9483 1108.8903 1153.8083 1092.2803 1134.7683 1092.2803H34.1783C14.6483 1092.2803 -0.0017 1108.8903 -0.0017 1127.9303C-0.0017 1146.9703 14.6483 1164.0603 34.1783 1164.0603Z"/>
</svg>