<?xml version="1.0" encoding="UTF-8" standalone="no"?>
<svg xmlns="http://www.w3.org/2000/svg"
     width="1250.9765625" height="1131.8359375"
     viewBox="0 0 1250.9765625 1131.8359375"
     fill="currentColor">
  <path d="M35.6483 1131.837C55.1783 1131.837 71.7783 1117.187 71.7783 1098.147V33.687C71.7783 14.647 55.1783 -0.003 35.6483 -0.003C16.5983 -0.003 -0.0017 14.647 -0.0017 33.687V1098.147C-0.0017 1117.187 16.5983 1131.837 35.6483 1131.837ZM745.1183 1131.837C764.1583 1131.837 780.7583 1117.187 780.7583 1098.147V33.687C780.7583 14.647 764.1583 -0.003 745.1183 -0.003C726.0783 -0.003 708.9883 14.647 708.9883 33.687V1098.147C708.9883 1117.187 726.0783 1131.837 745.1183 1131.837ZM261.7183 1035.157H431.6383C502.9283 1035.157 541.5083 995.607 541.5083 922.847V208.987C541.5083 136.227 502.9283 97.167 431.6383 97.167H261.7183C190.9183 97.167 151.8583 136.227 151.8583 208.987V922.847C151.8583 995.607 190.9183 1035.157 261.7183 1035.157ZM971.1883 861.817H1141.1183C1212.3983 861.817 1250.9783 822.757 1250.9783 749.997V381.837C1250.9783 309.077 1212.3983 270.017 1141.1183 270.017H971.1883C899.8983 270.017 861.3283 309.077 861.3283 381.837V749.997C861.3283 822.757 899.8983 861.817 971.1883 861.817Z"/>
</svg>