<?xml version="1.0" encoding="UTF-8" standalone="no"?>
<svg xmlns="http://www.w3.org/2000/svg"
     width="898.92578125" height="898.92578125"
     viewBox="0 0 898.92578125 898.92578125"
     fill="currentColor">
  <path d="M153.3183 898.9295H745.6083C848.1483 898.9295 898.9283 848.1495 898.9283 747.5595V151.3695C898.9283 50.7795 848.1483 -0.0005 745.6083 -0.0005H153.3183C51.2683 -0.0005 -0.0017 50.2895 -0.0017 151.3695V747.5595C-0.0017 848.6295 51.2683 898.9295 153.3183 898.9295ZM154.2983 820.3095C105.4683 820.3095 78.6183 794.4295 78.6183 743.6495V155.2695C78.6183 104.4895 105.4683 78.6095 154.2983 78.6095H744.6283C792.9683 78.6095 820.3083 104.4895 820.3083 155.2695V743.6495C820.3083 794.4295 792.9683 820.3095 744.6283 820.3095ZM448.7283 327.1495C483.8883 327.1495 508.7883 303.7095 508.7883 273.4395C508.7883 238.7695 484.3783 214.8395 448.7283 214.8395C416.0183 214.8395 390.6283 239.2595 390.6283 273.4395C390.6283 303.7095 416.0183 327.1495 448.7283 327.1495ZM259.7683 490.2295H640.1383C667.4783 490.2295 686.0383 475.5895 686.0383 449.7095C686.0383 423.3395 668.4583 408.6895 640.1383 408.6895H259.7683C231.4483 408.6895 213.3783 423.3395 213.3783 449.7095C213.3783 475.5895 232.4183 490.2295 259.7683 490.2295ZM448.7283 683.5895C483.8883 683.5895 508.7883 659.6695 508.7883 629.3895C508.7883 595.2195 484.3783 571.2895 448.7283 571.2895C416.0183 571.2895 390.6283 595.2195 390.6283 629.3895C390.6283 659.6695 416.0183 683.5895 448.7283 683.5895Z"/>
</svg>