<?xml version="1.0" encoding="UTF-8" standalone="no"?>
<svg xmlns="http://www.w3.org/2000/svg"
     width="805.6640625" height="718.26171875"
     viewBox="0 0 805.6640625 718.26171875"
     fill="currentColor">
  <path d="M402.8283 144.0427C442.8683 144.0427 475.0983 111.3327 475.0983 72.2627C475.0983 32.2227 442.8683 0.0027 402.8283 0.0027C363.2783 0.0027 331.0583 32.2227 331.0583 72.2627C331.0583 111.3327 363.2783 144.0427 402.8283 144.0427ZM43.4583 401.3627H762.2083C785.6483 401.3627 805.6683 381.3427 805.6683 357.4227C805.6683 333.4927 785.6483 313.9627 762.2083 313.9627H43.4583C20.0183 313.9627 -0.0017 333.4927 -0.0017 357.4227C-0.0017 381.3427 20.0183 401.3627 43.4583 401.3627ZM402.8283 718.2627C442.8683 718.2627 475.0983 686.0327 475.0983 645.9927C475.0983 606.4427 442.8683 574.2227 402.8283 574.2227C363.2783 574.2227 331.0583 606.4427 331.0583 645.9927C331.0583 686.0327 363.2783 718.2627 402.8283 718.2627Z"/>
</svg>