<?xml version="1.0" encoding="UTF-8" standalone="no"?>
<svg xmlns="http://www.w3.org/2000/svg"
     width="996.09375" height="996.09375"
     viewBox="0 0 996.09375 996.09375"
     fill="currentColor">
  <path d="M498.0477 996.0959C770.5077 996.0959 996.0977 770.0159 996.0977 498.0459C996.0977 225.5859 770.0177 -0.0041 497.5577 -0.0041C225.5877 -0.0041 -0.0023 225.5859 -0.0023 498.0459C-0.0023 770.0159 226.0777 996.0959 498.0477 996.0959ZM498.0477 913.0859C267.5777 913.0859 83.4977 728.5159 83.4977 498.0459C83.4977 267.5759 267.0877 83.0059 497.5577 83.0059C728.0277 83.0059 913.0877 267.5759 913.0877 498.0459C913.0877 728.5159 728.5177 913.0859 498.0477 913.0859ZM496.5777 376.4659C531.7377 376.4659 556.6377 353.0259 556.6377 322.7559C556.6377 288.0859 532.2277 264.1559 496.5777 264.1559C463.8677 264.1559 438.4777 288.5759 438.4777 322.7559C438.4777 353.0259 463.8677 376.4659 496.5777 376.4659ZM307.6177 539.5459H687.9877C715.3277 539.5459 733.8877 524.9059 733.8877 499.0259C733.8877 472.6559 716.3077 458.0059 687.9877 458.0059H307.6177C278.8077 458.0059 261.2277 472.6559 261.2277 499.0259C261.2277 524.9059 279.7877 539.5459 307.6177 539.5459ZM496.5777 732.9059C531.7377 732.9059 556.6377 708.9859 556.6377 678.7059C556.6377 644.5359 532.2277 620.6059 496.5777 620.6059C463.8677 620.6059 438.4777 644.5359 438.4777 678.7059C438.4777 708.9859 463.8677 732.9059 496.5777 732.9059Z"/>
</svg>