<?xml version="1.0" encoding="UTF-8" standalone="no"?>
<svg xmlns="http://www.w3.org/2000/svg"
     width="821.2890625" height="1046.875"
     viewBox="0 0 821.2890625 1046.875"
     fill="currentColor">
  <path d="M151.3683 1046.8766H669.9183C770.9983 1046.8766 821.2883 995.6066 821.2883 894.0466V450.6866C821.2883 387.6966 813.9683 360.3466 774.8983 320.3166L505.8583 46.3866C468.7483 8.2966 437.9883 -0.0034 383.2983 -0.0034H151.3683C50.7783 -0.0034 -0.0017 51.7566 -0.0017 153.3166V894.0466C-0.0017 996.0966 50.2883 1046.8766 151.3683 1046.8766ZM154.7883 968.2666C104.4883 968.2666 78.6183 941.4066 78.6183 892.5766V154.7866C78.6183 106.4466 104.4883 78.6166 155.2783 78.6166H372.5583V362.3066C372.5583 423.8266 403.3183 454.0966 464.3583 454.0966H742.6783V892.5766C742.6783 941.4066 716.7983 968.2666 666.0183 968.2666ZM473.1483 380.3666C453.6183 380.3666 446.2883 372.5566 446.2883 353.0266V93.7466L727.5383 380.3666Z"/>
</svg>