<?xml version="1.0" encoding="UTF-8" standalone="no"?>
<svg xmlns="http://www.w3.org/2000/svg"
     width="821.2890625" height="1046.875"
     viewBox="0 0 821.2890625 1046.875"
     fill="currentColor">
  <path d="M-0.0017 894.0466C-0.0017 996.0966 50.2883 1046.8766 151.3683 1046.8766H669.9183C770.9983 1046.8766 821.2883 996.0966 821.2883 894.0466V153.3166C821.2883 51.7566 770.9983 -0.0034 669.9183 -0.0034H151.3683C50.2883 -0.0034 -0.0017 51.7566 -0.0017 153.3166ZM170.8983 446.7766C154.7883 446.7766 145.0183 437.4966 145.0183 421.8766C145.0183 418.4566 145.9983 411.6166 148.4383 405.7666L220.2183 207.0266C227.5383 186.5266 239.2583 176.7566 258.7883 176.7566C279.7883 176.7566 291.9883 186.5266 299.3183 207.0266L371.0983 405.7666C373.0483 412.1066 374.0283 418.4566 374.0283 421.8766C374.0283 437.4966 364.7483 446.7766 348.1483 446.7766C335.4483 446.7766 327.1483 439.4566 322.7583 423.3366L305.1783 374.9966H213.3783L196.7783 423.3366C192.3783 439.9366 184.0783 446.7766 170.8983 446.7766ZM478.5183 261.2266C460.4483 261.2266 447.7583 248.0466 447.7583 230.9566C447.7583 214.3566 460.4483 201.1766 478.5183 201.1766H646.9683C664.0583 201.1766 677.2483 214.3566 677.2483 230.9566C677.2483 248.0466 664.0583 261.2266 646.9683 261.2266ZM224.6083 334.4766H294.4383L260.7383 231.9366H257.8083ZM478.5183 431.6366C460.4483 431.6366 447.7583 418.4566 447.7583 401.3666C447.7583 384.7666 460.4483 371.5866 478.5183 371.5866H646.9683C664.0583 371.5866 677.2483 384.7666 677.2483 401.3666C677.2483 418.4566 664.0583 431.6366 646.9683 431.6366ZM142.5783 854.9766V616.6966C142.5783 573.7266 166.9883 551.7566 208.4983 551.7566H613.2783C656.2483 551.7566 678.7083 573.7266 678.7083 616.6966V850.0966H624.9983L527.3483 737.7966C518.5583 727.5366 505.8583 723.6366 493.6483 723.6366C482.4183 723.6366 470.6983 728.0266 459.4683 737.7966L359.3783 826.6566L319.3383 790.0366C310.0583 781.7366 299.3183 777.8366 289.5483 777.8366C279.7883 777.8366 270.0183 781.2466 260.7383 790.0366L196.2883 854.9766ZM323.2383 737.7966C352.0483 737.7966 375.9783 713.3766 375.9783 685.0566C375.9783 655.7666 352.0483 633.2966 323.2383 632.3266C293.9483 631.3466 270.5083 655.7666 270.5083 685.0566C270.5083 713.3766 293.9483 737.7966 323.2383 737.7966Z"/>
</svg>