<?xml version="1.0" encoding="UTF-8" standalone="no"?>
<svg xmlns="http://www.w3.org/2000/svg"
     width="996.09375" height="996.09375"
     viewBox="0 0 996.09375 996.09375"
     fill="currentColor">
  <path d="M498.0477 996.0959C770.5077 996.0959 996.0977 770.0159 996.0977 498.0459C996.0977 225.5859 770.0177 -0.0041 497.5577 -0.0041C225.5877 -0.0041 -0.0023 225.5859 -0.0023 498.0459C-0.0023 770.0159 226.0777 996.0959 498.0477 996.0959ZM498.0477 913.0859C267.5777 913.0859 83.4977 728.5159 83.4977 498.0459C83.4977 267.5759 267.0877 83.0059 497.5577 83.0059C728.0277 83.0059 913.0877 267.5759 913.0877 498.0459C913.0877 728.5159 728.5177 913.0859 498.0477 913.0859ZM381.8377 760.7459H636.7177C690.9177 760.7459 717.7777 732.9059 717.7777 678.2259V468.2659H524.4177C490.7277 468.2659 474.6077 452.6359 474.6077 418.9459V222.1659H381.8377C328.1277 222.1659 300.7777 249.9959 300.7777 304.6859V678.2259C300.7777 733.3959 328.1277 760.7459 381.8377 760.7459ZM528.3177 428.7059H714.8477C713.3777 417.9659 705.5677 407.2259 692.8677 394.5359L548.3377 247.0659C536.1377 234.3759 524.8977 226.5659 514.1577 225.0959V414.5459C514.1577 423.8259 519.0477 428.7059 528.3177 428.7059Z"/>
</svg>