<?xml version="1.0" encoding="UTF-8" standalone="no"?>
<svg xmlns="http://www.w3.org/2000/svg"
     width="821.2890625" height="1046.875"
     viewBox="0 0 821.2890625 1046.875"
     fill="currentColor">
  <path d="M-0.0017 894.0466C-0.0017 996.0966 50.2883 1046.8766 151.3683 1046.8766H669.9183C770.9983 1046.8766 821.2883 996.0966 821.2883 894.0466V153.3166C821.2883 51.7566 770.9983 -0.0034 669.9183 -0.0034H151.3683C50.2883 -0.0034 -0.0017 51.7566 -0.0017 153.3166ZM78.6183 892.5766V154.7866C78.6183 105.9566 104.4883 78.6166 155.2783 78.6166H666.0183C716.7983 78.6166 742.6783 105.9566 742.6783 154.7866V892.5766C742.6783 941.4066 716.7983 968.2666 666.0183 968.2666H155.2783C104.4883 968.2666 78.6183 941.4066 78.6183 892.5766ZM220.6983 394.0466H303.2183C317.8683 394.0466 327.1483 386.2266 330.5683 373.5366L349.6083 297.8466L391.5983 502.4366C396.9683 529.7866 432.6183 529.7866 440.9183 503.4166L488.2783 338.3766L496.5783 372.0666C499.5083 386.2266 509.2783 394.0466 523.9283 394.0466H600.5883C614.7483 394.0466 625.9783 382.8166 625.9783 369.1366C625.9783 354.9766 615.2383 343.7466 600.5883 343.7466H539.0583L513.6683 245.6066C507.3283 220.2166 473.1483 220.7066 464.8483 246.5866L418.4583 397.9466L374.5083 179.6866C368.6483 153.3166 333.0083 152.8366 326.6583 179.1966L286.6183 343.7466H220.6983C206.5383 343.7466 195.3083 355.4666 195.3083 369.1366C195.3083 382.8166 206.5383 394.0466 220.6983 394.0466ZM225.5883 653.8066H596.1883C613.2783 653.8066 625.9783 640.6266 625.9783 623.5366C625.9783 606.9366 613.2783 593.7466 596.1883 593.7466H225.5883C208.0083 593.7466 195.3083 606.9366 195.3083 623.5366C195.3083 640.6266 208.0083 653.8066 225.5883 653.8066ZM225.5883 824.2166H400.8783C418.4583 824.2166 431.1483 811.0366 431.1483 794.4366C431.1483 777.3466 418.4583 764.1566 400.8783 764.1566H225.5883C208.0083 764.1566 195.3083 777.3466 195.3083 794.4366C195.3083 811.0366 208.0083 824.2166 225.5883 824.2166Z"/>
</svg>