<?xml version="1.0" encoding="UTF-8" standalone="no"?>
<svg xmlns="http://www.w3.org/2000/svg"
     width="821.2890625" height="1046.875"
     viewBox="0 0 821.2890625 1046.875"
     fill="currentColor">
  <path d="M-0.0017 894.0466C-0.0017 996.0966 50.2883 1046.8766 151.3683 1046.8766H669.9183C770.9983 1046.8766 821.2883 996.0966 821.2883 894.0466V153.3166C821.2883 51.7566 770.9983 -0.0034 669.9183 -0.0034H151.3683C50.2883 -0.0034 -0.0017 51.7566 -0.0017 153.3166ZM548.3383 494.6266C488.2783 494.6266 439.9383 449.2166 439.9383 371.0966C439.9383 330.0766 453.6183 291.5066 480.9583 261.7166C507.3283 233.3966 547.8483 213.3766 579.5883 213.3766C593.7483 213.3766 601.0783 221.1866 601.0783 230.9566C601.0783 241.6966 595.2183 247.5566 577.1483 251.4666C555.1783 256.3466 536.1283 265.1366 520.5083 279.2966C504.3983 292.9666 493.6483 310.0566 489.7483 327.1466H499.5083C514.6483 308.5966 536.1283 300.2966 562.0083 300.2966C613.7683 300.2966 648.9283 337.8866 648.9283 395.0166C648.9283 454.0966 607.9083 494.6266 548.3383 494.6266ZM281.7383 495.1166C221.1883 495.1166 172.8483 449.7066 172.8483 371.5866C172.8483 330.5666 186.5283 291.9966 213.8683 262.2066C241.2083 232.9066 280.7583 213.8666 312.9883 213.8666C326.6583 213.8666 333.9883 221.6766 333.9883 231.4466C333.9883 242.1866 328.1283 248.0466 310.0583 251.9566C288.5783 256.3466 270.5083 265.6266 254.8783 278.8066C237.7883 292.4766 226.5583 310.0566 222.6583 327.6366H232.9083C247.5583 309.0866 269.0383 300.7766 295.4083 300.7766C347.1683 300.7766 381.8383 338.3766 381.8383 395.5066C381.8383 454.5866 340.8183 495.1166 281.7383 495.1166ZM215.8183 659.6666C198.2383 659.6666 185.0583 646.4866 185.0583 629.3966C185.0583 612.7966 198.2383 599.6066 215.8183 599.6066H606.4483C623.5383 599.6066 636.7183 612.7966 636.7183 629.3966C636.7183 646.4866 623.5383 659.6666 606.4483 659.6666ZM215.8183 830.0766C198.2383 830.0766 185.0583 817.3866 185.0583 800.2966C185.0583 783.2066 198.2383 770.0166 215.8183 770.0166H402.3483C419.4383 770.0166 432.6183 783.2066 432.6183 800.2966C432.6183 817.3866 419.4383 830.0766 402.3483 830.0766Z"/>
</svg>