<?xml version="1.0" encoding="UTF-8" standalone="no"?>
<svg xmlns="http://www.w3.org/2000/svg"
     width="821.2890625" height="1046.875"
     viewBox="0 0 821.2890625 1046.875"
     fill="currentColor">
  <path d="M-0.0017 894.0466C-0.0017 996.0966 50.2883 1046.8766 151.3683 1046.8766H669.9183C770.9983 1046.8766 821.2883 996.0966 821.2883 894.0466V153.3166C821.2883 51.7566 770.9983 -0.0034 669.9183 -0.0034H151.3683C50.2883 -0.0034 -0.0017 51.7566 -0.0017 153.3166ZM219.7283 275.8766C201.6583 275.8766 188.4783 261.7166 188.4783 244.1366C188.4783 227.0466 201.6583 213.8666 219.7283 213.8666H602.0483C619.6283 213.8666 632.8083 227.0466 632.8083 244.1366C632.8083 261.7166 619.6283 275.8766 602.0483 275.8766ZM219.7283 451.6566C201.6583 451.6566 188.4783 437.4966 188.4783 419.9266C188.4783 402.8366 201.6583 389.6466 219.7283 389.6466H602.0483C619.6283 389.6466 632.8083 402.8366 632.8083 419.9266C632.8083 437.4966 619.6283 451.6566 602.0483 451.6566ZM219.7283 627.4366C201.6583 627.4366 188.4783 613.7666 188.4783 596.6766C188.4783 579.0966 201.6583 565.4266 219.7283 565.4266H400.3883C418.9483 565.4266 431.6383 579.0966 431.6383 596.6766C431.6383 613.7666 418.9483 627.4366 400.3883 627.4366Z"/>
</svg>