<?xml version="1.0" encoding="UTF-8" standalone="no"?>
<svg xmlns="http://www.w3.org/2000/svg"
     width="821.2890625" height="1046.875"
     viewBox="0 0 821.2890625 1046.875"
     fill="currentColor">
  <path d="M-0.0017 894.0466C-0.0017 996.0966 50.2883 1046.8766 151.3683 1046.8766H669.9183C770.9983 1046.8766 821.2883 996.0966 821.2883 894.0466V153.3166C821.2883 51.7566 770.9983 -0.0034 669.9183 -0.0034H151.3683C50.2883 -0.0034 -0.0017 51.7566 -0.0017 153.3166ZM188.4783 365.2366C188.4783 351.0766 200.1983 338.8666 214.8483 338.8666H282.7183L323.7283 169.4366C330.5683 142.0866 367.1883 143.0666 373.5383 169.9266L418.9483 396.4866L466.3083 238.7666C475.0983 212.4066 510.2583 211.9166 517.0883 237.7966L543.4583 338.8666H606.4483C621.5783 338.8666 632.8083 350.5866 632.8083 365.2366C632.8083 379.3966 621.0983 391.1166 606.4483 391.1166H527.3483C512.2083 391.1166 501.9483 383.2966 499.0283 368.6566L490.2383 333.4966L441.8983 503.4166C433.1083 530.7666 396.4883 530.7666 390.6283 502.4366L347.1683 291.5066L328.1283 370.1166C324.7083 383.2966 314.9383 391.1166 299.8083 391.1166H214.8483C200.1983 391.1166 188.4783 379.3966 188.4783 365.2366ZM188.4783 627.4366C188.4783 610.3466 201.6583 596.6766 219.7283 596.6766H602.0483C619.6283 596.6766 632.8083 610.3466 632.8083 627.4366C632.8083 645.0166 619.6283 658.6866 602.0483 658.6866H219.7283C201.6583 658.6866 188.4783 645.0166 188.4783 627.4366ZM188.4783 803.7066C188.4783 786.1366 201.6583 772.4566 219.7283 772.4566H400.3883C418.9483 772.4566 431.6383 786.1366 431.6383 803.7066C431.6383 820.7966 418.9483 834.4766 400.3883 834.4766H219.7283C201.6583 834.4766 188.4783 820.7966 188.4783 803.7066Z"/>
</svg>