<?xml version="1.0" encoding="UTF-8" standalone="no"?>
<svg xmlns="http://www.w3.org/2000/svg"
     width="821.2890625" height="1046.875"
     viewBox="0 0 821.2890625 1046.875"
     fill="currentColor">
  <path d="M-0.0017 894.0466C-0.0017 996.0966 50.2883 1046.8766 151.3683 1046.8766H669.9183C770.9983 1046.8766 821.2883 996.0966 821.2883 894.0466V153.3166C821.2883 51.7566 770.9983 -0.0034 669.9183 -0.0034H151.3683C50.2883 -0.0034 -0.0017 51.7566 -0.0017 153.3166ZM78.6183 892.5766V154.7866C78.6183 105.9566 104.4883 78.6166 155.2783 78.6166H666.0183C716.7983 78.6166 742.6783 105.9566 742.6783 154.7866V892.5766C742.6783 941.4066 716.7983 968.2666 666.0183 968.2666H155.2783C104.4883 968.2666 78.6183 941.4066 78.6183 892.5766ZM190.4283 466.3066C203.6183 466.3066 211.9183 459.4766 216.3083 442.8666L232.9083 394.5266H324.7083L342.2883 442.8666C346.6783 458.9866 354.9783 466.3066 367.6783 466.3066C384.2783 466.3066 393.5583 457.0266 393.5583 441.4066C393.5583 437.9866 392.5783 431.6366 390.6283 425.2966L318.8483 226.5666C311.5283 206.0566 299.3183 196.2866 278.3183 196.2866C258.7883 196.2866 247.0683 206.0566 239.7483 226.5666L167.9683 425.2966C165.5283 431.1566 164.5483 437.9866 164.5483 441.4066C164.5483 457.0266 174.3183 466.3066 190.4283 466.3066ZM478.5183 280.7666H627.4383C644.5283 280.7666 657.7183 267.5766 657.7183 250.4866C657.7183 233.8866 644.5283 220.7066 627.4383 220.7066H478.5183C460.4483 220.7066 447.7583 233.8866 447.7583 250.4866C447.7583 267.5766 460.4483 280.7666 478.5183 280.7666ZM244.1383 354.0066L277.3483 251.4666H280.2783L313.9683 354.0066ZM478.5183 451.1766H627.4383C644.5283 451.1766 657.7183 437.9866 657.7183 420.8966C657.7183 404.2966 644.5283 391.1166 627.4383 391.1166H478.5183C460.4483 391.1166 447.7583 404.2966 447.7583 420.8966C447.7583 437.9866 460.4483 451.1766 478.5183 451.1766ZM162.1083 854.9766H196.2883L260.7383 790.0366C270.0183 781.2466 279.7883 777.8366 289.5483 777.8366C299.3183 777.8366 310.0583 781.7366 319.3383 790.0366L359.3783 826.6566L459.4683 737.7966C470.6983 728.0266 482.4183 723.6366 493.6483 723.6366C505.8583 723.6366 518.5583 727.5366 527.3483 737.7966L624.9983 850.0966H659.1783V616.6966C659.1783 573.7266 636.7183 551.7566 593.7483 551.7566H228.0283C186.5283 551.7566 162.1083 573.7266 162.1083 616.6966ZM323.2383 737.7966C293.9483 737.7966 270.5083 713.3766 270.5083 685.0566C270.5083 655.7666 293.9483 631.3466 323.2383 632.3266C352.0483 633.2966 375.9783 655.7666 375.9783 685.0566C375.9783 713.3766 352.0483 737.7966 323.2383 737.7966Z"/>
</svg>