<?xml version="1.0" encoding="UTF-8" standalone="no"?>
<svg xmlns="http://www.w3.org/2000/svg"
     width="998.53515625" height="1228.515625"
     viewBox="0 0 998.53515625 1228.515625"
     fill="currentColor">
  <path d="M828.1283 984.8652H847.1683C947.2683 984.8652 998.5383 933.1052 998.5383 831.5452V368.1652H728.5183C677.2483 368.1652 648.4383 339.3552 648.4383 288.5752V-0.0048H388.1883C289.0583 -0.0048 236.8183 51.7552 236.8183 149.4152V177.2452H307.6183C375.9783 177.2452 431.1483 192.8752 485.8383 247.5552L763.1883 524.4152C817.8683 579.5852 828.1283 636.2352 828.1283 702.6352ZM737.7883 307.1252H992.6783C990.2383 291.5052 979.4883 277.8352 962.3983 260.7452L755.8583 50.2952C739.2583 32.7152 725.0983 21.9752 709.9583 20.0152L710.4483 278.8052C710.4483 298.8252 717.7783 307.1252 737.7883 307.1252ZM151.3683 1228.5152H610.3483C711.4283 1228.5152 761.7183 1176.7552 761.7183 1075.1952V689.4552H420.8983C357.9083 689.4552 328.6183 659.6652 328.6183 597.1652V243.6552H151.3683C50.7783 243.6552 -0.0017 294.9252 -0.0017 396.9752V1075.1952C-0.0017 1177.2452 50.2883 1228.5152 151.3683 1228.5152ZM420.4083 622.5552H752.9283C748.0483 603.5152 736.8183 585.9352 714.8483 563.4752L454.0983 297.8552C432.6183 275.8752 414.0583 261.2352 395.0183 255.8552V597.6552C395.0183 614.2552 403.8083 622.5552 420.4083 622.5552Z"/>
</svg>