<?xml version="1.0" encoding="UTF-8" standalone="no"?>
<svg xmlns="http://www.w3.org/2000/svg"
     width="998.53515625" height="1228.515625"
     viewBox="0 0 998.53515625 1228.515625"
     fill="currentColor">
  <path d="M-0.0017 1075.1952C-0.0017 1177.2452 50.2883 1228.5152 151.3683 1228.5152H610.3483C711.4283 1228.5152 761.7183 1176.7552 761.7183 1075.1952V984.8652H847.1683C947.7583 984.8652 998.5383 933.1052 998.5383 831.5452V435.0552C998.5383 374.9952 986.3283 336.9152 949.7083 299.3152L703.1283 48.8252C668.4583 13.1852 627.4383 -0.0048 575.1983 -0.0048H388.1883C287.5983 -0.0048 236.8183 51.7552 236.8183 153.3252V243.6552H151.3683C50.7783 243.6552 -0.0017 294.9252 -0.0017 396.9752ZM715.3283 563.9652L446.2883 290.0352C409.1783 251.9552 378.4183 243.6552 323.7283 243.6552H315.4283V154.7852C315.4283 106.4452 341.3083 78.6152 392.0883 78.6152H607.9083V329.1052C607.9083 385.7452 635.2583 412.5952 691.4083 412.5952H919.9183V830.0752C919.9183 878.9052 893.5583 906.2452 842.7783 906.2452H761.7183V693.8452C761.7183 631.3452 754.3983 604.0052 715.3283 563.9652ZM678.7083 317.3852V117.1852L899.4183 341.7952H702.6383C685.5483 341.7952 678.7083 334.4752 678.7083 317.3852ZM78.6183 1073.7352V397.9452C78.6183 350.0952 104.4883 322.2652 155.2783 322.2652H315.4283V605.4652C315.4283 666.9952 346.6783 697.7552 407.2283 697.7552H683.1083V1073.7352C683.1083 1122.5552 656.7383 1149.9052 606.4483 1149.9052H154.7883C104.4883 1149.9052 78.6183 1122.5552 78.6183 1073.7352ZM416.5083 624.0252C396.9683 624.0252 389.1583 616.2152 389.1583 596.6752V340.3352L667.9683 624.0252Z"/>
</svg>