<?xml version="1.0" encoding="UTF-8" standalone="no"?>
<svg xmlns="http://www.w3.org/2000/svg"
     width="821.2890625" height="1046.875"
     viewBox="0 0 821.2890625 1046.875"
     fill="currentColor">
  <path d="M-0.0017 894.0466C-0.0017 996.0966 50.2883 1046.8766 151.3683 1046.8766H669.9183C770.9983 1046.8766 821.2883 996.0966 821.2883 894.0466V153.3166C821.2883 51.7566 770.9983 -0.0034 669.9183 -0.0034H151.3683C50.2883 -0.0034 -0.0017 51.7566 -0.0017 153.3166ZM78.6183 892.5766V154.7866C78.6183 105.9566 104.4883 78.6166 155.2783 78.6166H666.0183C716.7983 78.6166 742.6783 105.9566 742.6783 154.7866V892.5766C742.6783 941.4066 716.7983 968.2666 666.0183 968.2666H155.2783C104.4883 968.2666 78.6183 941.4066 78.6183 892.5766ZM223.1483 250.9766H616.6983C634.2783 250.9766 646.9683 237.7966 646.9683 220.7066C646.9683 204.0966 634.2783 190.9166 616.6983 190.9166H223.1483C205.0783 190.9166 192.3783 204.0966 192.3783 220.7066C192.3783 237.7966 205.0783 250.9766 223.1483 250.9766ZM223.1483 392.5766H454.0983C471.1883 392.5766 484.3783 379.3966 484.3783 362.3066C484.3783 345.7066 471.1883 332.5166 454.0983 332.5166H223.1483C205.0783 332.5166 192.3783 345.7066 192.3783 362.3066C192.3783 379.3966 205.0783 392.5766 223.1483 392.5766ZM230.4683 875.9766H591.3083C634.2783 875.9766 656.2483 854.0066 656.2483 811.0366V539.5466C656.2483 496.5866 634.2783 474.1166 591.3083 474.1166H230.4683C188.9683 474.1166 165.0383 496.5866 165.0383 539.5466V811.0366C165.0383 854.0066 188.9683 875.9766 230.4683 875.9766Z"/>
</svg>