<?xml version="1.0" encoding="UTF-8" standalone="no"?>
<svg xmlns="http://www.w3.org/2000/svg"
     width="821.2890625" height="1046.875"
     viewBox="0 0 821.2890625 1046.875"
     fill="currentColor">
  <path d="M-0.0017 894.0466C-0.0017 996.0966 50.2883 1046.8766 151.3683 1046.8766H669.9183C770.9983 1046.8766 821.2883 996.0966 821.2883 894.0466V153.3166C821.2883 51.7566 770.9983 -0.0034 669.9183 -0.0034H151.3683C50.2883 -0.0034 -0.0017 51.7566 -0.0017 153.3166ZM217.2883 242.6766C198.7283 242.6766 185.5483 229.0066 185.5483 211.4266C185.5483 193.8466 198.7283 180.1766 217.2883 180.1766H623.0483C641.1183 180.1766 654.2983 193.8466 654.2983 211.4266C654.2983 229.0066 641.1183 242.6766 623.0483 242.6766ZM217.2883 388.6766C198.7283 388.6766 185.5483 374.9966 185.5483 357.4266C185.5483 340.3366 198.7283 326.6566 217.2883 326.6566H455.0783C473.1483 326.6566 486.8183 340.3366 486.8183 357.4266C486.8183 374.9966 473.1483 388.6766 455.0783 388.6766ZM225.0983 886.7166C182.1283 886.7166 157.7183 863.7666 157.7183 819.3366V540.0366C157.7183 495.6066 182.1283 472.6566 225.0983 472.6566H596.6783C641.1183 472.6566 663.5783 495.6066 663.5783 540.0366V819.3366C663.5783 863.7666 641.1183 886.7166 596.6783 886.7166Z"/>
</svg>