<?xml version="1.0" encoding="UTF-8" standalone="no"?>
<svg xmlns="http://www.w3.org/2000/svg"
     width="996.09375" height="996.09375"
     viewBox="0 0 996.09375 996.09375"
     fill="currentColor">
  <path d="M498.0477 996.0959C770.5077 996.0959 996.0977 770.0159 996.0977 498.0459C996.0977 225.5859 770.0177 -0.0041 497.5577 -0.0041C225.5877 -0.0041 -0.0023 225.5859 -0.0023 498.0459C-0.0023 770.0159 226.0777 996.0959 498.0477 996.0959ZM378.4177 769.0459C322.7577 769.0459 294.4377 741.2059 294.4377 684.0859V298.8259C294.4377 242.6759 322.7577 213.8659 378.4177 213.8659H474.1177V416.5059C474.1177 451.6559 490.7277 467.7759 525.3877 467.7759H725.0977V684.0859C725.0977 740.2359 697.2677 769.0459 641.1177 769.0459ZM529.2977 426.7559C520.0177 426.7559 514.6477 421.8759 514.6477 412.1059V216.7959C525.8777 218.2659 537.5977 226.0759 550.2977 239.2559L699.2177 391.1159C712.3977 404.2959 720.2177 415.5259 721.6777 426.7559Z"/>
</svg>