<?xml version="1.0" encoding="UTF-8" standalone="no"?>
<svg xmlns="http://www.w3.org/2000/svg"
     width="1151.3671875" height="898.92578125"
     viewBox="0 0 1151.3671875 898.92578125"
     fill="currentColor">
  <path d="M153.3183 898.9278H998.0483C1100.5883 898.9278 1151.3683 848.6378 1151.3683 748.0478V151.3678C1151.3683 50.7778 1100.5883 -0.0022 998.0483 -0.0022H153.3183C51.2683 -0.0022 -0.0017 50.7778 -0.0017 151.3678V748.0478C-0.0017 848.6378 51.2683 898.9278 153.3183 898.9278ZM154.2983 820.3078C105.4683 820.3078 78.6183 794.4378 78.6183 743.6478V155.7578C78.6183 104.9778 105.4683 78.6178 154.2983 78.6178H997.0683C1045.4083 78.6178 1072.7583 104.9778 1072.7583 155.7578V743.6478C1072.7583 794.4378 1045.4083 820.3078 997.0683 820.3078ZM576.1683 159.1778C555.1783 159.1778 537.1083 176.7578 537.1083 197.2678V338.8678L540.5283 420.8978L498.5383 376.9578L435.0583 313.4778C427.2483 306.1478 417.4783 301.7578 407.7183 301.7578C387.2083 301.7578 372.5583 315.9178 372.5583 336.4278C372.5583 347.6578 376.9483 355.9578 385.2583 363.2778L547.8483 515.1378C558.1083 524.4178 565.9183 527.8278 576.1683 527.8278C585.9383 527.8278 594.2383 524.4178 604.4883 515.1378L766.5983 363.2778C775.3883 355.9578 779.7883 347.6578 779.7883 336.4278C779.7883 315.9178 764.6483 301.7578 743.6483 301.7578C733.8883 301.7578 724.6083 306.1478 717.2883 313.4778L653.8083 376.9578L611.8183 420.8978L614.7483 338.8678V197.2678C614.7483 176.7578 597.1683 159.1778 576.1683 159.1778ZM209.9583 700.6878C209.9583 726.0778 227.5383 742.6778 253.4183 742.6778H899.4183C925.2883 742.6778 942.8683 726.0778 942.8683 700.6878V627.4378C942.8683 601.5578 925.2883 584.9578 899.4183 584.9578H253.4183C227.5383 584.9578 209.9583 601.5578 209.9583 627.4378Z"/>
</svg>