<?xml version="1.0" encoding="UTF-8" standalone="no"?>
<svg xmlns="http://www.w3.org/2000/svg"
     width="614.74609375" height="1102.05078125"
     viewBox="0 0 614.74609375 1102.05078125"
     fill="currentColor">
  <path d="M307.6183 1102.0472C328.1283 1102.0472 344.7283 1085.4472 344.7283 1064.9372V982.9072C494.1383 971.6772 614.7483 887.2072 614.7483 741.6972C614.7483 621.0972 537.5983 549.3172 365.2383 507.8172L344.7283 502.9272V202.6372C426.7583 212.4072 482.9083 258.2972 506.8383 335.4472C514.6483 360.8372 531.2483 374.0272 555.6683 374.0272C584.4683 374.0272 600.5883 355.4672 600.5883 327.1472C600.5883 319.3372 599.6083 311.0372 597.1683 302.2472C570.3083 198.7272 471.6783 126.9572 344.7283 115.7272V36.6172C344.7283 16.1172 328.1283 -0.0028 307.6183 -0.0028C287.1083 -0.0028 270.9983 16.1172 270.9983 36.6172V115.7272C121.5783 129.3972 18.0683 220.7072 18.0683 349.1172C18.0683 464.3572 94.2383 536.6172 257.8083 576.1672L270.9983 579.0972V895.5072C176.2683 885.2572 114.7483 837.8872 93.7483 757.3272C85.4483 731.4472 69.3383 718.2572 44.9183 718.2572C16.5983 718.2572 -0.0017 737.3072 -0.0017 766.1172C-0.0017 773.4372 0.9783 781.7372 3.4183 790.5272C31.2483 902.3472 141.1183 971.1872 270.9983 982.4172V1064.9372C270.9983 1085.4472 287.1083 1102.0472 307.6183 1102.0472ZM113.2783 343.2572C113.2783 274.9072 170.8983 214.8472 270.9983 202.6372V485.3472C163.5783 459.9572 113.2783 414.5472 113.2783 343.2572ZM350.5883 598.1472C472.1683 627.4372 519.5283 669.4372 519.5283 748.5372C519.5283 833.9872 455.5683 887.6972 344.7283 896.4872V596.6772Z"/>
</svg>