<?xml version="1.0" encoding="UTF-8" standalone="no"?>
<svg xmlns="http://www.w3.org/2000/svg"
     width="898.92578125" height="898.92578125"
     viewBox="0 0 898.92578125 898.92578125"
     fill="currentColor">
  <path d="M153.3183 898.9295H745.6083C848.1483 898.9295 898.9283 848.1495 898.9283 747.5595V151.3695C898.9283 50.7795 848.1483 -0.0005 745.6083 -0.0005H153.3183C51.2683 -0.0005 -0.0017 50.2895 -0.0017 151.3695V747.5595C-0.0017 848.6295 51.2683 898.9295 153.3183 898.9295ZM154.2983 820.3095C105.4683 820.3095 78.6183 794.4295 78.6183 743.6495V155.2695C78.6183 104.4895 105.4683 78.6095 154.2983 78.6095H744.6283C792.9683 78.6095 820.3083 104.4895 820.3083 155.2695V743.6495C820.3083 794.4295 792.9683 820.3095 744.6283 820.3095ZM449.7083 727.5395C462.8883 727.5395 473.1483 718.2595 473.1483 704.5895V670.4095C548.8283 663.0895 607.4183 619.1395 607.4183 545.4095C607.4183 478.9995 564.4483 438.9695 479.4883 423.8295L473.1483 422.3595V286.1295C507.8083 292.4795 532.2283 313.4795 541.9883 346.1895C546.8783 360.8395 556.1483 370.1195 571.7783 370.1195C588.3783 370.1195 600.5883 358.3995 600.5883 341.3095C600.5883 336.4295 599.1183 331.5395 598.1483 326.1695C585.4483 273.4395 535.6483 237.3095 473.1483 229.9795V196.2895C473.1483 182.6195 462.8883 173.3395 449.7083 173.3395C436.5283 173.3395 426.7583 182.6195 426.7583 196.2895V229.9795C352.5383 238.2795 300.2883 284.6695 300.2883 351.0695C300.2883 413.0895 341.7983 450.1995 423.3383 469.2395L426.7583 470.2195V614.7495C382.8083 608.3995 356.9383 583.9795 349.1183 551.2695C343.7483 534.6695 333.4983 526.8595 318.8483 526.8595C302.2483 526.8595 290.5283 538.5695 290.5283 555.6595C290.5283 561.0395 291.5083 565.9195 292.9683 570.7995C306.6383 626.9495 361.3283 663.0895 426.7583 669.4295V704.5895C426.7583 718.2595 436.5283 727.5395 449.7083 727.5395ZM426.7583 410.1595L423.3383 409.1795C379.3983 396.4795 360.3483 376.9495 360.3483 348.1395C360.3483 318.3595 385.2583 293.4595 426.7583 286.1295ZM473.1483 481.9295L483.3983 484.3795C530.7583 497.5595 547.3683 517.5795 547.3683 548.8295C547.3683 583.0095 522.9483 608.8895 473.1483 614.7495Z"/>
</svg>