<?xml version="1.0" encoding="UTF-8" standalone="no"?>
<svg xmlns="http://www.w3.org/2000/svg"
     width="996.09375" height="996.09375"
     viewBox="0 0 996.09375 996.09375"
     fill="currentColor">
  <path d="M498.0477 996.0959C770.5077 996.0959 996.0977 770.0159 996.0977 498.0459C996.0977 225.5859 770.0177 -0.0041 497.5577 -0.0041C225.5877 -0.0041 -0.0023 225.5859 -0.0023 498.0459C-0.0023 770.0159 226.0777 996.0959 498.0477 996.0959ZM498.0477 913.0859C267.5777 913.0859 83.4977 728.5159 83.4977 498.0459C83.4977 267.5759 267.0877 83.0059 497.5577 83.0059C728.0277 83.0059 913.0877 267.5759 913.0877 498.0459C913.0877 728.5159 728.5177 913.0859 498.0477 913.0859ZM497.5577 776.8559C510.7377 776.8559 520.5077 767.5759 520.5077 753.9059V719.7259C596.1877 712.4059 655.2777 668.4559 655.2777 594.7259C655.2777 528.3159 612.3077 488.2859 527.3477 473.1459L520.5077 471.6759V335.4459C555.6677 341.7959 580.0777 362.7959 589.8477 395.5059C594.7277 410.1559 604.0077 419.4359 619.6277 419.4359C636.2277 419.4359 648.4377 407.7159 648.4377 390.6259C648.4377 385.7459 646.9777 380.8559 645.9977 375.4859C633.2977 322.7559 583.0077 286.6259 520.5077 279.2959V245.6059C520.5077 231.9359 510.7377 222.6559 497.5577 222.6559C484.3777 222.6559 474.6077 231.9359 474.6077 245.6059V279.2959C400.3877 287.5959 347.6577 333.9859 347.6577 400.3859C347.6577 462.4059 389.6477 499.5159 471.1877 518.5559L474.6077 519.5359V664.0659C430.6677 657.7159 404.7877 633.2959 396.9777 600.5859C391.1177 583.9859 381.3477 576.1759 366.6977 576.1759C350.0977 576.1759 338.3777 587.8859 338.3777 604.9759C338.3777 610.3559 339.3577 615.2359 340.8177 620.1159C354.4877 676.2659 409.1777 712.4059 474.6077 718.7459V753.9059C474.6077 767.5759 484.3777 776.8559 497.5577 776.8559ZM474.6077 459.4759L471.1877 458.4959C427.2477 445.7959 407.7177 426.2659 407.7177 397.4559C407.7177 367.6759 433.1077 342.7759 474.6077 335.4459ZM520.5077 531.2459L531.2477 533.6959C578.6177 546.8759 594.7277 566.8959 594.7277 598.1459C594.7277 632.3259 570.3077 658.2059 520.5077 664.0659Z"/>
</svg>