<?xml version="1.0" encoding="UTF-8" standalone="no"?>
<svg xmlns="http://www.w3.org/2000/svg"
     width="996.09375" height="996.09375"
     viewBox="0 0 996.09375 996.09375"
     fill="currentColor">
  <path d="M498.0477 996.0959C770.5077 996.0959 996.0977 770.0159 996.0977 498.0459C996.0977 225.5859 770.0177 -0.0041 497.5577 -0.0041C225.5877 -0.0041 -0.0023 225.5859 -0.0023 498.0459C-0.0023 770.0159 226.0777 996.0959 498.0477 996.0959ZM498.0477 785.6459C484.3777 785.6459 474.1177 775.8759 474.1177 761.7159V725.5859C406.7377 719.2359 350.5877 682.1259 336.4277 624.0259C334.9577 619.1359 333.9877 613.7659 333.9877 608.3959C333.9877 590.8159 346.1877 578.6159 363.2777 578.6159C378.4177 578.6159 388.6677 586.4259 394.5277 604.0059C402.8277 637.2059 429.1977 662.5959 474.1177 668.9459V520.5059L470.7077 519.5359C386.7177 499.5159 343.2577 461.4259 343.2577 397.4559C343.2577 328.6159 397.9477 280.7659 474.1177 272.4559V237.7959C474.1177 223.6359 484.3777 213.8659 498.0477 213.8659C511.7177 213.8659 521.9777 223.6359 521.9777 237.7959V272.4559C586.4277 279.7859 638.1877 317.3859 651.3677 371.5859C652.3477 376.9559 653.8077 382.3259 653.8077 387.2059C653.8077 404.7859 641.1177 416.9959 624.0277 416.9959C607.9077 416.9959 598.1477 407.2259 593.2577 392.0859C583.0077 358.3959 558.1077 336.9159 521.9777 330.5659V470.7059L528.8077 472.1659C616.2077 487.7959 660.6477 529.2959 660.6477 597.6559C660.6477 673.8259 599.6077 719.2359 521.9777 726.5659V761.7159C521.9777 775.8759 511.7177 785.6459 498.0477 785.6459ZM474.1177 458.0059V330.5659C431.6377 337.8859 405.7577 363.7659 405.7577 394.0459C405.7577 423.8259 425.7777 443.8459 470.7077 457.0359ZM521.9777 532.2259V668.9459C573.2377 663.0859 598.1477 636.2259 598.1477 601.0759C598.1477 569.3359 581.5477 548.3359 532.7177 535.1559Z"/>
</svg>