<?xml version="1.0" encoding="UTF-8" standalone="no"?>
<svg xmlns="http://www.w3.org/2000/svg"
     width="898.92578125" height="898.92578125"
     viewBox="0 0 898.92578125 898.92578125"
     fill="currentColor">
  <path d="M153.3183 898.9295H745.6083C848.1483 898.9295 898.9283 848.1495 898.9283 747.5595V151.3695C898.9283 50.7795 848.1483 -0.0005 745.6083 -0.0005H153.3183C51.2683 -0.0005 -0.0017 50.2895 -0.0017 151.3695V747.5595C-0.0017 848.6295 51.2683 898.9295 153.3183 898.9295ZM269.5283 466.7995C269.5283 374.0195 330.5683 310.0595 413.0883 310.0595C454.0983 310.0595 489.2583 326.1695 511.2283 353.0295V272.9495H419.4383C405.7583 272.9495 395.9983 262.6995 395.9983 249.0195C395.9983 235.3495 405.2783 224.6095 419.4383 224.6095H511.2283V201.1695C511.2283 181.1495 523.9283 168.9495 542.9683 168.9495C561.5283 168.9495 574.2183 181.1495 574.2183 201.1695V224.6095H606.4483C620.6083 224.6095 630.3683 235.3495 630.3683 249.0195C630.3683 262.6995 620.1183 272.9495 606.4483 272.9495H574.2183V598.6295C574.2183 617.1895 562.0083 629.3895 544.4383 629.3895C526.3683 629.3895 513.6683 617.1895 513.6683 598.6295V578.6095C490.7183 607.4195 454.5883 623.5395 413.5783 623.5395C331.0583 623.5395 269.5283 559.0795 269.5283 466.7995ZM334.4683 467.2895C334.4683 526.8595 370.6083 565.9195 423.8283 565.9195C475.5883 565.9195 512.6983 524.4095 512.6983 467.2895C512.6983 410.1595 475.5883 368.6495 423.8283 368.6495C370.6083 368.6495 334.4683 407.7195 334.4683 467.2895ZM295.4083 681.1495C295.4083 667.4795 305.6683 656.7395 319.8283 656.7395H565.4283C579.5883 656.7395 589.8483 666.9895 589.8483 681.1495C589.8483 694.8195 579.0983 705.5695 565.4283 705.5695H319.8283C306.1483 705.5695 295.4083 694.8195 295.4083 681.1495Z"/>
</svg>