<?xml version="1.0" encoding="UTF-8" standalone="no"?>
<svg xmlns="http://www.w3.org/2000/svg"
     width="1426.7578125" height="1036.1328125"
     viewBox="0 0 1426.7578125 1036.1328125"
     fill="currentColor">
  <path d="M39.0583 1036.1355C61.0383 1036.1355 78.6183 1018.5555 78.6183 997.0655V104.4955C78.6183 88.8655 88.8683 78.6155 103.5183 78.6155H1323.2383C1337.8883 78.6155 1348.1483 88.8655 1348.1483 104.4955V997.0655C1348.1483 1018.5555 1365.7183 1036.1355 1387.6983 1036.1355C1409.1783 1036.1355 1426.7583 1018.5555 1426.7583 997.0655V99.6055C1426.7583 40.0355 1386.2283 -0.0045 1324.7083 -0.0045H102.0483C41.0183 -0.0045 -0.0017 40.0355 -0.0017 99.6055V997.0655C-0.0017 1018.5555 17.5783 1036.1355 39.0583 1036.1355ZM152.3483 1019.0455H1274.8983C1283.6883 1019.0455 1291.0183 1011.2355 1291.0183 1002.4455V151.8555C1291.0183 142.5755 1283.6883 135.2555 1274.8983 135.2555H152.3483C143.0683 135.2555 135.7383 142.5755 135.7383 151.8555V1002.4455C135.7383 1011.2355 143.0683 1019.0455 152.3483 1019.0455ZM219.2383 404.2955C209.4683 404.2955 202.1483 396.9755 202.1483 387.2055V214.3555C202.1483 204.5855 209.4683 196.7755 219.2383 196.7755H395.5083C405.2783 196.7755 413.0883 204.5855 413.0883 214.3555V387.2055C413.0883 396.9755 405.2783 404.2955 395.5083 404.2955ZM491.2083 404.2955C481.4483 404.2955 473.6283 396.9755 473.6283 387.2055V214.3555C473.6283 204.5855 481.4483 196.7755 491.2083 196.7755H666.9883C676.7583 196.7755 684.5683 204.5855 684.5683 214.3555V387.2055C684.5683 396.9755 676.7583 404.2955 666.9883 404.2955ZM762.2083 404.2955C752.4383 404.2955 745.1183 396.9755 745.1183 387.2055V214.3555C745.1183 204.5855 752.4383 196.7755 762.2083 196.7755H937.4983C946.7783 196.7755 954.5883 204.5855 954.5883 214.3555V387.2055C954.5883 396.9755 946.7783 404.2955 941.4083 404.2955ZM1032.2283 404.2955C1022.4583 404.2955 1015.1383 396.9755 1015.1383 387.2055V214.3555C1015.1383 204.5855 1022.4583 196.7755 1032.2283 196.7755H1207.5183C1217.2883 196.7755 1224.6083 204.5855 1224.6083 214.3555V387.2055C1224.6083 396.9755 1217.2883 404.2955 1211.4283 404.2955ZM608.3983 936.5255C594.2383 936.5255 584.4683 926.7555 584.4683 913.0855C584.4683 898.9255 594.2383 889.1555 608.3983 889.1555H818.8483C832.5183 889.1555 842.2883 898.9255 842.2883 913.0855C842.2883 926.7555 832.5183 936.5255 818.8483 936.5255Z"/>
</svg>