<?xml version="1.0" encoding="UTF-8" standalone="no"?>
<svg xmlns="http://www.w3.org/2000/svg"
     width="1193.84765625" height="1036.1328125"
     viewBox="0 0 1193.84765625 1036.1328125"
     fill="currentColor">
  <path d="M39.0583 1036.1355C61.0383 1036.1355 78.6183 1018.5555 78.6183 997.0655V104.4955C78.6183 88.8655 88.8683 78.6155 103.5183 78.6155H1090.3283C1104.9783 78.6155 1115.2383 88.8655 1115.2383 104.4955V997.0655C1115.2383 1018.5555 1132.8083 1036.1355 1154.2983 1036.1355C1176.2683 1036.1355 1193.8483 1018.5555 1193.8483 997.0655V99.6055C1193.8483 40.0355 1152.8283 -0.0045 1091.3083 -0.0045H102.0483C41.0183 -0.0045 -0.0017 40.0355 -0.0017 99.6055V997.0655C-0.0017 1018.5555 17.5783 1036.1355 39.0583 1036.1355ZM641.5983 1019.0455H1041.5083C1050.7783 1019.0455 1058.1083 1011.2355 1058.1083 1002.4455V151.8555C1058.1083 142.5755 1050.7783 135.2555 1041.5083 135.2555H641.5983C632.8083 135.2555 625.4883 142.5755 625.4883 151.8555V1002.4455C625.4883 1011.2355 632.8083 1019.0455 641.5983 1019.0455ZM152.3483 1019.5355H551.7583C561.0383 1019.5355 568.3583 1012.2055 568.3583 1002.9255V152.8355C568.3583 143.5555 561.0383 136.2255 551.7583 136.2255H152.3483C143.0683 136.2255 135.7383 143.5555 135.7383 152.8355V1002.9255C135.7383 1012.2055 143.0683 1019.5355 152.3483 1019.5355ZM708.9883 398.4355C702.1483 398.4355 697.2683 393.5555 697.2683 385.7455V219.7255C697.2683 211.9155 702.1483 207.5155 708.9883 207.5155H974.6083C981.4483 207.5155 985.8383 211.9155 985.8383 219.7255V385.7455C985.8383 393.5555 981.4483 398.4355 974.6083 398.4355ZM219.2383 399.4155C212.3983 399.4155 207.5183 394.5355 207.5183 386.7155V220.7055C207.5183 212.8955 212.3983 208.0055 219.2383 208.0055H484.8683C491.6983 208.0055 496.5783 212.8955 496.5783 220.7055V386.7155C496.5783 394.5355 491.6983 399.4155 484.8683 399.4155ZM708.9883 672.3655C702.1483 672.3655 697.2683 667.4755 697.2683 660.1555V493.6555C697.2683 486.3255 702.1483 481.4455 708.9883 481.4455H974.6083C981.4483 481.4455 985.8383 486.3255 985.8383 493.6555V660.1555C985.8383 667.4755 981.4483 672.3655 974.6083 672.3655ZM219.2383 673.3355C212.3983 673.3355 207.5183 668.4555 207.5183 660.6455V494.6255C207.5183 486.8155 212.3983 482.4255 219.2383 482.4255H484.8683C491.6983 482.4255 496.5783 486.8155 496.5783 494.6255V660.6455C496.5783 668.4555 491.6983 673.3355 484.8683 673.3355ZM708.9883 946.7755C702.1483 946.7755 697.2683 941.8955 697.2683 934.5655V768.0655C697.2683 760.7455 702.1483 755.8555 708.9883 755.8555H974.6083C981.4483 755.8555 985.8383 760.7455 985.8383 768.0655V934.5655C985.8383 941.8955 981.4483 946.7755 974.6083 946.7755ZM219.2383 947.7555C212.3983 947.7555 207.5183 942.8755 207.5183 935.0555V769.0455C207.5183 761.2255 212.3983 756.8355 219.2383 756.8355H484.8683C491.6983 756.8355 496.5783 761.2255 496.5783 769.0455V935.0555C496.5783 942.8755 491.6983 947.7555 484.8683 947.7555Z"/>
</svg>