<?xml version="1.0" encoding="UTF-8" standalone="no"?>
<svg xmlns="http://www.w3.org/2000/svg"
     width="744.140625" height="1036.1328125"
     viewBox="0 0 744.140625 1036.1328125"
     fill="currentColor">
  <path d="M39.0583 1036.1355C61.0383 1036.1355 78.6183 1018.5555 78.6183 997.0655V104.4955C78.6183 88.8655 88.8683 78.6155 103.5183 78.6155H640.6283C655.2783 78.6155 665.5283 88.8655 665.5283 104.4955V997.0655C665.5283 1018.5555 683.1083 1036.1355 705.0783 1036.1355C726.5583 1036.1355 744.1383 1018.5555 744.1383 997.0655V99.6055C744.1383 40.0355 703.6183 -0.0045 642.0883 -0.0045H102.0483C41.0183 -0.0045 -0.0017 40.0355 -0.0017 99.6055V997.0655C-0.0017 1018.5555 17.5783 1036.1355 39.0583 1036.1355ZM152.3483 1019.0455H592.2883C601.0783 1019.0455 608.3983 1011.2355 608.3983 1002.4455V151.8555C608.3983 142.5755 601.0783 135.2555 592.2883 135.2555H152.3483C143.0683 135.2555 135.7383 142.5755 135.7383 151.8555V1002.4455C135.7383 1011.2355 143.0683 1019.0455 152.3483 1019.0455ZM492.1883 626.4655C470.6983 626.4655 453.1283 608.8855 453.1283 587.4055C453.1283 565.4255 470.6983 548.3355 492.1883 548.3355C514.1583 548.3355 531.2483 565.4255 531.2483 587.4055C531.2483 608.8855 514.1583 626.4655 492.1883 626.4655Z"/>
</svg>