<?xml version="1.0" encoding="UTF-8" standalone="no"?>
<svg xmlns="http://www.w3.org/2000/svg"
     width="1193.84765625" height="1036.1328125"
     viewBox="0 0 1193.84765625 1036.1328125"
     fill="currentColor">
  <path d="M39.0583 1036.1355C61.0383 1036.1355 78.6183 1018.5555 78.6183 997.0655V104.4955C78.6183 88.8655 88.8683 78.6155 103.5183 78.6155H1090.3283C1104.9783 78.6155 1115.2383 88.8655 1115.2383 104.4955V997.0655C1115.2383 1018.5555 1132.8083 1036.1355 1154.2983 1036.1355C1176.2683 1036.1355 1193.8483 1018.5555 1193.8483 997.0655V99.6055C1193.8483 40.0355 1152.8283 -0.0045 1091.3083 -0.0045H102.0483C41.0183 -0.0045 -0.0017 40.0355 -0.0017 99.6055V997.0655C-0.0017 1018.5555 17.5783 1036.1355 39.0583 1036.1355ZM152.3483 1019.0455H1041.5083C1050.7783 1019.0455 1058.1083 1011.2355 1058.1083 1002.4455V151.8555C1058.1083 142.5755 1050.7783 135.2555 1041.5083 135.2555H152.3483C143.0683 135.2555 135.7383 142.5755 135.7383 151.8555V1002.4455C135.7383 1011.2355 143.0683 1019.0455 152.3483 1019.0455ZM219.2383 404.2955C209.4683 404.2955 202.1483 396.9755 202.1483 387.2055V214.3555C202.1483 204.5855 209.4683 196.7755 219.2383 196.7755H408.1983C417.9683 196.7755 425.2883 204.5855 425.2883 214.3555V387.2055C425.2883 396.9755 417.9683 404.2955 408.1983 404.2955ZM503.4183 404.2955C493.6483 404.2955 486.3283 396.9755 486.3283 387.2055V214.3555C486.3283 204.5855 493.6483 196.7755 503.4183 196.7755H691.8983C701.6583 196.7755 709.4683 204.5855 709.4683 214.3555V387.2055C709.4683 396.9755 701.6583 404.2955 691.8983 404.2955ZM787.1083 404.2955C777.3483 404.2955 769.5283 396.9755 769.5283 387.2055V214.3555C769.5283 204.5855 777.3483 196.7755 787.1083 196.7755H974.6083C984.3783 196.7755 991.6983 204.5855 991.6983 214.3555V387.2055C991.6983 396.9755 984.3783 404.2955 978.5183 404.2955ZM501.4683 936.5255C487.3083 936.5255 478.0283 926.7555 478.0283 913.0855C478.0283 898.9255 487.3083 889.1555 501.4683 889.1555H692.3783C706.5383 889.1555 715.8183 898.9255 715.8183 913.0855C715.8183 926.7555 706.5383 936.5255 692.3783 936.5255Z"/>
</svg>