<?xml version="1.0" encoding="UTF-8" standalone="no"?>
<svg xmlns="http://www.w3.org/2000/svg"
     width="1193.84765625" height="1036.1328125"
     viewBox="0 0 1193.84765625 1036.1328125"
     fill="currentColor">
  <path d="M1154.2983 1036.1355C1176.2683 1036.1355 1193.8483 1018.5555 1193.8483 997.0655V99.6055C1193.8483 40.0355 1152.8283 -0.0045 1091.3083 -0.0045H102.0483C41.0183 -0.0045 -0.0017 40.0355 -0.0017 99.6055V997.0655C-0.0017 1018.5555 17.5783 1036.1355 39.0583 1036.1355C61.0383 1036.1355 78.6183 1018.5555 78.6183 997.0655V104.4955C78.6183 88.8655 88.8683 78.6155 103.5183 78.6155H1090.3283C1104.9783 78.6155 1115.2383 88.8655 1115.2383 104.4955V997.0655C1115.2383 1018.5555 1132.8083 1036.1355 1154.2983 1036.1355ZM1041.5083 1019.0455C1050.7783 1019.0455 1058.1083 1011.2355 1058.1083 1002.4455V151.8555C1058.1083 142.5755 1050.7783 135.2555 1041.5083 135.2555H641.5983C632.8083 135.2555 625.4883 142.5755 625.4883 151.8555V1002.4455C625.4883 1011.2355 632.8083 1019.0455 641.5983 1019.0455ZM551.7583 1019.0455C561.0383 1019.0455 568.3583 1011.2355 568.3583 1002.4455V151.8555C568.3583 142.5755 561.0383 135.2555 551.7583 135.2555H152.3483C143.0683 135.2555 135.7383 142.5755 135.7383 151.8555V1002.4455C135.7383 1011.2355 143.0683 1019.0455 152.3483 1019.0455ZM947.7583 653.8055C933.5983 653.8055 923.8283 644.0455 923.8283 629.8855V544.4355C923.8283 530.2755 933.5983 520.9955 947.7583 520.9955C961.4283 520.9955 971.1883 530.2755 971.1883 544.4355V629.8855C971.1883 644.0455 961.4283 653.8055 947.7583 653.8055Z"/>
</svg>