<?xml version="1.0" encoding="UTF-8" standalone="no"?>
<svg xmlns="http://www.w3.org/2000/svg"
     width="898.92578125" height="898.92578125"
     viewBox="0 0 898.92578125 898.92578125"
     fill="currentColor">
  <path d="M-0.0017 859.8595C-0.0017 883.2995 15.6283 898.9295 39.0583 898.9295H860.3483C883.7883 898.9295 898.9283 883.2995 898.9283 859.8595V38.5695C898.9283 15.1395 883.7883 -0.0005 860.3483 -0.0005H39.0583C15.6283 -0.0005 -0.0017 15.1395 -0.0017 38.5695ZM78.6183 806.1495V488.7695H234.8683C231.9383 475.5895 230.4683 462.3995 230.4683 448.7295C230.4683 435.5495 231.9383 422.8495 234.8683 410.1595H78.6183V92.7695C78.6183 82.0295 82.5183 78.6095 92.7783 78.6095H410.1583V234.8595C423.3383 231.9295 436.5283 230.4695 450.1983 230.4695C463.3783 230.4695 476.0783 231.9295 488.7683 234.8595V78.6095H806.1483C816.8983 78.6095 820.3083 82.0295 820.3083 92.7695V410.1595H665.0383C667.4783 422.8495 668.9483 435.5495 668.9483 448.7295C668.9483 462.3995 667.4783 475.5895 665.0383 488.7695H820.3083V806.1495C820.3083 816.4095 816.8983 820.3095 806.1483 820.3095H488.7683V664.0595C476.0783 666.9895 463.3783 668.4595 450.1983 668.4595C436.5283 668.4595 423.3383 666.9895 410.1583 664.0595V820.3095H92.7783C82.5183 820.3095 78.6183 816.4095 78.6183 806.1495ZM450.1983 601.5595C533.1983 601.5595 602.0483 533.1995 602.0483 448.7295C602.0483 365.7195 533.1983 297.3595 450.1983 297.3595C366.2083 297.3595 297.3683 365.7195 297.3683 448.7295C297.3683 533.1995 366.2083 601.5595 450.1983 601.5595Z"/>
</svg>