<?xml version="1.0" encoding="UTF-8" standalone="no"?>
<svg xmlns="http://www.w3.org/2000/svg"
     width="795.41015625" height="954.3506477121368"
     viewBox="0 0 795.41015625 954.3506477121368"
     fill="currentColor">
  <path d="M552.2477 941.2854C567.3877 957.8854 593.7477 959.8454 612.3077 940.3054C728.5177 818.7254 795.4077 655.6454 795.4077 477.4154C795.4077 299.1954 729.4877 134.6454 612.3077 14.0454C593.7477 -5.4946 567.3877 -3.5346 552.2477 13.0654C537.1077 30.1554 540.5277 54.0754 558.1077 72.6354C660.1577 177.6154 715.8177 320.6854 715.8177 477.4154C715.8177 634.1554 659.1777 775.7554 558.1077 881.7154C540.5277 900.2754 537.1077 924.6854 552.2477 941.2854ZM411.1377 811.4054C426.7577 829.4654 454.0977 829.4654 473.1477 808.9654C554.1977 721.0754 599.6077 603.8854 599.6077 477.4154C599.6077 350.9554 554.6877 233.2754 473.1477 145.8754C454.0977 124.8754 426.7577 124.8754 411.1377 143.4354C395.5077 161.0154 400.3877 183.9654 417.9677 203.9854C483.8877 276.2454 520.0177 371.9554 520.0177 477.4154C520.0177 582.3954 483.3977 678.1054 417.9677 750.8554C400.3877 770.8754 395.5077 793.3354 411.1377 811.4054ZM274.4177 672.2454C290.5277 690.3054 319.8277 690.7954 336.9177 668.8254C379.3977 616.0954 404.2977 549.1954 404.2977 477.4154C404.2977 405.6454 379.3977 338.2554 336.9177 286.0154C319.8277 263.5554 290.5277 264.0454 274.4177 282.5954C258.7877 300.1754 265.6277 321.6554 280.7577 343.1454C309.5677 379.7654 324.7077 426.6354 324.7077 477.4154C324.7077 528.2054 310.0577 575.0754 280.7577 611.6954C265.1377 632.6954 258.7877 654.6654 274.4177 672.2454ZM-0.0023 476.4454C-0.0023 523.8054 41.0177 563.8454 89.3577 563.8454C137.6977 563.8454 177.7377 523.8054 177.7377 475.4654C177.7377 426.6354 138.6677 386.5954 89.3577 386.5954C40.5277 386.5954 -0.0023 427.6154 -0.0023 476.4454Z"/>
</svg>