<?xml version="1.0" encoding="UTF-8" standalone="no"?>
<svg xmlns="http://www.w3.org/2000/svg"
     width="1067.3828125" height="1066.89453125"
     viewBox="0 0 1067.3828125 1066.89453125"
     fill="currentColor">
  <path d="M341.7983 225.5905C341.7983 278.3205 348.1483 295.4105 381.8383 329.1005L476.5583 423.8305C510.7383 458.0105 557.6183 458.0105 591.7983 423.8305L686.5283 329.1005C720.2183 295.4105 726.0783 278.3205 726.0783 225.5905V102.5405C726.0783 40.0405 689.9383 0.0005 634.2783 0.0005H433.5983C377.9283 0.0005 341.7983 40.0405 341.7983 102.5405ZM225.0983 725.5905C278.3183 725.5905 295.4083 719.7305 329.0983 686.0305L423.8283 591.3105C458.0083 557.1305 458.0083 510.2505 423.8283 476.0705L329.0983 381.3505C295.4083 347.6605 278.3183 341.3105 225.0983 341.3105H102.5383C40.0383 341.3105 -0.0017 377.4405 -0.0017 433.1005V634.2805C-0.0017 689.4505 40.0383 725.5905 102.5383 725.5905ZM842.2883 341.8005C789.0583 341.8005 771.9683 347.6605 738.2783 381.3505L643.5583 476.0705C609.3783 510.2505 609.3783 557.1305 643.5583 591.3105L738.2783 686.0305C771.9683 719.7305 789.0583 726.0705 842.2883 726.0705H964.8483C1027.3483 726.0705 1067.3783 689.9405 1067.3783 634.2805V433.1005C1067.3783 377.9305 1027.3483 341.8005 964.8483 341.8005ZM726.0783 841.8005C726.0783 789.0605 719.7283 771.9705 686.0383 738.2805L591.3083 643.0705C557.1283 609.3705 510.2583 609.3705 476.0783 643.0705L381.3483 738.2805C347.6583 771.9705 341.7983 789.0605 341.7983 841.8005V964.8405C341.7983 1027.3405 377.9283 1066.8905 433.5983 1066.8905H634.2783C689.9383 1066.8905 726.0783 1027.3405 726.0783 964.8405Z"/>
</svg>