<?xml version="1.0" encoding="UTF-8" standalone="no"?>
<svg xmlns="http://www.w3.org/2000/svg"
     width="1067.3828125" height="1066.89453125"
     viewBox="0 0 1067.3828125 1066.89453125"
     fill="currentColor">
  <path d="M341.7983 225.5905C341.7983 278.3205 348.1483 295.4105 381.8383 329.1005L476.5583 423.8305C510.7383 458.0105 557.6183 458.0105 591.7983 423.8305L686.5283 329.1005C720.2183 295.4105 726.0783 278.3205 726.0783 225.5905V102.5405C726.0783 40.0405 689.9383 0.0005 634.2783 0.0005H433.5983C377.9283 0.0005 341.7983 40.0405 341.7983 102.5405ZM411.6183 225.5905V104.4905C411.6183 82.5205 424.8083 69.3405 447.2683 69.3405H621.0983C643.5583 69.3405 656.2483 82.5205 656.2483 104.4905V225.5905C656.2483 250.4905 653.3183 263.1805 636.7183 279.7805L544.9183 371.5805C537.5983 378.9105 530.2783 378.9105 522.9483 371.5805L431.6383 279.7805C415.0383 263.1805 411.6183 250.4905 411.6183 225.5905ZM225.0983 725.5905C278.3183 725.5905 295.4083 719.7305 329.0983 686.0305L423.8283 591.3105C458.0083 557.1305 458.0083 510.2505 423.8283 476.0705L329.0983 381.3505C295.4083 347.6605 278.3183 341.3105 225.0983 341.3105H102.5383C40.0383 341.3105 -0.0017 377.4405 -0.0017 433.1005V634.2805C-0.0017 689.4505 40.0383 725.5905 102.5383 725.5905ZM842.2883 341.8005C789.0583 341.8005 771.9683 347.6605 738.2783 381.3505L643.5583 476.0705C609.3783 510.2505 609.3783 557.1305 643.5583 591.3105L738.2783 686.0305C771.9683 719.7305 789.0583 726.0705 842.2883 726.0705H964.8483C1027.3483 726.0705 1067.3783 689.9405 1067.3783 634.2805V433.1005C1067.3783 377.9305 1027.3483 341.8005 964.8483 341.8005ZM225.0983 655.7605H104.4883C82.0283 655.7605 69.3383 643.0705 69.3383 620.6005V446.7805C69.3383 424.3205 82.0283 411.1305 104.4883 411.1305H225.0983C250.4883 411.1305 263.1883 414.5505 279.7883 431.1505L371.5783 522.4605C378.9083 530.2705 378.4183 537.6005 371.0983 544.9205L279.7883 636.2305C263.1883 652.8305 250.4883 655.7605 225.0983 655.7605ZM842.2883 411.6205H962.8883C985.3483 411.6205 998.0483 424.3205 998.0483 446.7805V620.6005C998.0483 643.0705 985.3483 656.2505 962.8883 656.2505H842.2883C816.8983 656.2505 804.1983 652.8305 787.5983 636.2305L695.7983 544.9205C688.4783 537.1105 688.9683 529.7805 696.2883 522.4605L787.5983 431.1505C804.1983 414.5505 816.8983 411.6205 842.2883 411.6205ZM726.0783 841.8005C726.0783 789.0605 719.7283 771.9705 686.0383 738.2805L591.3083 643.0705C557.1283 609.3705 510.2583 609.3705 476.0783 643.0705L381.3483 738.2805C347.6583 771.9705 341.7983 789.0605 341.7983 841.8005V964.8405C341.7983 1027.3405 377.9283 1066.8905 433.5983 1066.8905H634.2783C689.9383 1066.8905 726.0783 1027.3405 726.0783 964.8405ZM656.2483 841.8005V962.8905C656.2483 984.8605 643.0683 997.5605 620.6083 997.5605H446.7783C424.3183 997.5605 411.6183 984.8605 411.6183 962.8905V841.8005C411.6183 816.4105 414.5483 803.7105 431.1483 787.6005L522.9483 695.8005C530.2783 687.9905 537.5983 688.4805 544.9183 695.8005L636.7183 787.6005C652.8283 803.7105 656.2483 816.4105 656.2483 841.8005Z"/>
</svg>