<?xml version="1.0" encoding="UTF-8" standalone="no"?>
<svg xmlns="http://www.w3.org/2000/svg"
     width="1023.4375" height="927.734375"
     viewBox="0 0 1023.4375 927.734375"
     fill="currentColor">
  <path d="M133.3006 927.7377H890.1406C973.1406 927.7377 1023.4406 870.1177 1023.4406 795.4077C1023.4406 772.4577 1016.6006 748.5377 1004.3906 727.0477L625.4906 66.8977C600.1006 22.4577 556.6406 -0.0023 511.7206 -0.0023C466.8006 -0.0023 422.8506 22.4577 397.9506 66.8977L19.0406 727.0477C5.8606 749.0277 0.0006 772.4577 0.0006 795.4077C0.0006 870.1177 50.2906 927.7377 133.3006 927.7377ZM511.7206 745.6077C427.2506 745.6077 370.1206 690.4277 370.1206 608.3977C370.1206 567.8677 387.2106 531.2477 399.9006 504.3977C422.3606 455.5677 459.4706 395.5077 490.7206 346.6777C496.5806 337.3977 503.4206 333.0077 511.7206 333.0077C520.5106 333.0077 526.8506 337.3977 532.7106 346.6777C564.4506 395.5077 601.5606 455.5677 623.5306 504.3977C636.2306 531.2477 653.3206 567.8677 653.3206 608.3977C653.3206 690.4277 596.6806 745.6077 511.7206 745.6077Z"/>
</svg>