<?xml version="1.0" encoding="UTF-8" standalone="no"?>
<svg xmlns="http://www.w3.org/2000/svg"
     width="1073.2421875" height="791.50390625"
     viewBox="0 0 1073.2421875 791.50390625"
     fill="currentColor">
  <path d="M153.3183 791.5086H920.4083C1022.4583 791.5086 1073.2383 740.7186 1073.2383 640.1386V151.3686C1073.2383 50.7786 1022.4583 -0.0014 920.4083 -0.0014H153.3183C51.2683 -0.0014 -0.0017 50.7786 -0.0017 151.3686V640.1386C-0.0017 740.7186 51.2683 791.5086 153.3183 791.5086ZM348.1483 617.6786C256.8383 617.6786 195.3083 558.1086 195.3083 469.7286C195.3083 425.2886 213.3783 386.7186 227.0483 356.9286C251.4683 304.6886 291.0183 239.7486 324.7083 187.0086C332.0283 176.7586 338.8683 172.3586 348.1483 172.3586C356.9383 172.3586 363.7683 176.7586 371.0983 187.0086C405.2783 239.7486 444.8283 304.6886 468.7483 356.9286C482.4183 386.7186 500.9783 425.2886 500.9783 469.7286C500.9783 558.1086 439.4483 617.6786 348.1483 617.6786ZM662.1083 298.3386C629.3983 298.3386 603.0283 271.4886 603.0283 239.2586C603.0283 207.0286 629.3983 180.1786 662.1083 180.1786C694.3383 180.1786 721.1883 207.0286 721.1883 239.2586C721.1883 271.4886 694.3383 298.3386 662.1083 298.3386ZM835.4483 298.3386C803.2183 298.3386 776.3683 271.4886 776.3683 239.2586C776.3683 207.0286 803.2183 180.1786 835.4483 180.1786C867.6783 180.1786 894.5283 207.0286 894.5283 239.2586C894.5283 271.4886 867.6783 298.3386 835.4483 298.3386ZM662.1083 454.0986C629.3983 454.0986 603.0283 427.2486 603.0283 395.0186C603.0283 362.7886 629.3983 335.9386 662.1083 335.9386C694.3383 335.9386 721.1883 362.7886 721.1883 395.0186C721.1883 427.2486 694.3383 454.0986 662.1083 454.0986ZM835.4483 454.0986C803.2183 454.0986 776.3683 427.2486 776.3683 395.0186C776.3683 362.7886 803.2183 335.9386 835.4483 335.9386C867.6783 335.9386 894.5283 362.7886 894.5283 395.0186C894.5283 427.2486 867.6783 454.0986 835.4483 454.0986ZM662.1083 609.8586C629.3983 609.8586 603.0283 583.0086 603.0283 550.7786C603.0283 518.5586 629.3983 491.6986 662.1083 491.6986C694.3383 491.6986 721.1883 518.5586 721.1883 550.7786C721.1883 583.0086 694.3383 609.8586 662.1083 609.8586ZM835.4483 609.8586C803.2183 609.8586 776.3683 583.0086 776.3683 550.7786C776.3683 518.5586 803.2183 491.6986 835.4483 491.6986C867.6783 491.6986 894.5283 518.5586 894.5283 550.7786C894.5283 583.0086 867.6783 609.8586 835.4483 609.8586Z"/>
</svg>