<?xml version="1.0" encoding="UTF-8" standalone="no"?>
<svg xmlns="http://www.w3.org/2000/svg"
     width="891.1750921654726" height="1109.86328125"
     viewBox="0 0 891.1750921654726 1109.86328125"
     fill="currentColor">
  <path d="M741.7618 298.3417C825.7418 298.3417 891.1718 232.9117 891.1718 149.4117C891.1718 65.4317 825.7418 0.0017 741.7618 0.0017C658.2618 0.0017 592.8318 65.4317 592.8318 149.4117C592.8318 232.9117 658.2618 298.3417 741.7618 298.3417ZM741.7618 229.4917C696.8418 229.4917 661.6818 194.3317 661.6818 149.4117C661.6818 104.0017 696.8418 68.8517 741.7618 68.8517C787.1718 68.8517 822.3318 104.0017 822.3318 149.4117C822.3318 194.3317 787.1718 229.4917 741.7618 229.4917ZM226.6218 324.7117L285.2218 383.3017C318.9118 327.6317 354.5518 273.9217 389.7118 221.1917C392.6418 216.3117 397.0318 216.3117 399.9618 221.1917C467.8318 324.2217 540.5918 429.6917 594.3018 557.6217C616.7618 609.3717 648.0118 689.4517 648.0118 726.5617C648.0118 733.8817 647.5218 738.7717 646.5418 744.1417L729.0618 826.6617C731.5118 811.5217 732.9718 795.9017 732.9718 779.3017C732.9718 681.6417 694.4018 584.4717 666.0818 519.5317C613.8318 401.8517 531.8018 272.4617 460.5118 162.1117C443.4218 136.2317 422.9118 121.0917 394.5918 121.0917C365.2918 121.0917 345.7618 136.2317 328.6718 162.1117C294.9818 213.3817 260.3118 269.0417 226.6218 324.7117ZM788.1518 1073.2417C803.2818 1087.8917 827.2118 1087.8917 841.3718 1073.2417C856.0218 1058.1017 856.5118 1034.6717 841.3718 1020.0217L64.5118 243.1617C49.8618 228.5117 25.9418 228.5117 10.8018 243.1617C-3.3582 257.8117 -3.8482 281.7417 10.8018 296.3817ZM394.5918 1109.8617C500.0618 1109.8617 586.9718 1073.7317 646.5418 1011.7217L588.4418 954.1017C543.5218 1002.4417 476.1318 1029.7817 394.5918 1029.7817C239.3218 1029.7817 135.8018 929.6917 135.8018 779.3017C135.8018 701.1717 165.5918 625.4917 193.4218 559.5717L132.3818 498.5317C94.3018 584.4717 56.2118 681.6417 56.2118 779.3017C56.2118 977.5417 191.4718 1109.8617 394.5918 1109.8617Z"/>
</svg>