<?xml version="1.0" encoding="UTF-8" standalone="no"?>
<svg xmlns="http://www.w3.org/2000/svg"
     width="996.09375" height="996.09375"
     viewBox="0 0 996.09375 996.09375"
     fill="currentColor">
  <path d="M498.0477 996.0959C770.5077 996.0959 996.0977 770.0159 996.0977 498.0459C996.0977 225.5859 770.0177 -0.0041 497.5577 -0.0041C225.5877 -0.0041 -0.0023 225.5859 -0.0023 498.0459C-0.0023 770.0159 226.0777 996.0959 498.0477 996.0959ZM498.0477 765.1359C384.2777 765.1359 307.6177 691.4059 307.6177 581.0559C307.6177 525.8759 331.0577 477.5359 347.1677 440.4259C377.4377 375.4859 426.7577 294.4359 469.2377 229.0059C478.0277 216.3059 486.8177 210.9359 498.0477 210.9359C509.2777 210.9359 517.5777 216.3059 526.8577 229.0059C568.8477 294.4359 618.1677 375.4859 648.4377 440.4259C665.0377 477.5359 687.9877 525.8759 687.9877 581.0559C687.9877 691.4059 611.8177 765.1359 498.0477 765.1359Z"/>
</svg>