<?xml version="1.0" encoding="UTF-8" standalone="no"?>
<svg xmlns="http://www.w3.org/2000/svg"
     width="1073.2421875" height="791.50390625"
     viewBox="0 0 1073.2421875 791.50390625"
     fill="currentColor">
  <path d="M153.3183 791.5086H920.4083C1022.4583 791.5086 1073.2383 740.7186 1073.2383 640.1386V151.3686C1073.2383 50.7786 1022.4583 -0.0014 920.4083 -0.0014H153.3183C51.2683 -0.0014 -0.0017 50.7786 -0.0017 151.3686V640.1386C-0.0017 740.7186 51.2683 791.5086 153.3183 791.5086ZM154.2983 712.8886C105.4683 712.8886 78.6183 686.5186 78.6183 635.7386V155.7586C78.6183 104.9786 105.4683 78.6086 154.2983 78.6086H918.9483C967.2883 78.6086 994.6283 104.9786 994.6283 155.7586V635.7386C994.6283 686.5186 967.2883 712.8886 918.9483 712.8886ZM354.0083 610.8386C442.8683 610.8386 501.9483 553.2186 501.9483 467.7686C501.9483 424.3186 484.3783 387.2086 471.1883 357.9086C447.7583 307.6186 409.6683 244.6286 376.4683 193.3586C369.6283 183.1086 362.7883 179.1986 354.0083 179.1986C345.2183 179.1986 338.3783 183.1086 331.5383 193.3586C298.8283 244.6286 260.7383 307.6186 236.8183 357.9086C223.6283 387.2086 205.5683 424.3186 205.5683 467.7686C205.5683 553.2186 265.6283 610.8386 354.0083 610.8386ZM658.6883 301.2686C689.9383 301.2686 715.8183 275.3886 715.8183 244.1386C715.8183 212.8886 689.9383 187.0086 658.6883 187.0086C626.9483 187.0086 601.5583 212.8886 601.5583 244.1386C601.5583 275.3886 626.9483 301.2686 658.6883 301.2686ZM826.6583 301.2686C857.9083 301.2686 883.7883 275.3886 883.7883 244.1386C883.7883 212.8886 857.9083 187.0086 826.6583 187.0086C795.4083 187.0086 769.5283 212.8886 769.5283 244.1386C769.5283 275.3886 795.4083 301.2686 826.6583 301.2686ZM658.6883 452.1486C689.9383 452.1486 715.8183 426.2686 715.8183 395.0186C715.8183 363.7686 689.9383 337.8886 658.6883 337.8886C626.9483 337.8886 601.5583 363.7686 601.5583 395.0186C601.5583 426.2686 626.9483 452.1486 658.6883 452.1486ZM826.6583 452.1486C857.9083 452.1486 883.7883 426.2686 883.7883 395.0186C883.7883 363.7686 857.9083 337.8886 826.6583 337.8886C795.4083 337.8886 769.5283 363.7686 769.5283 395.0186C769.5283 426.2686 795.4083 452.1486 826.6583 452.1486ZM658.6883 603.0286C689.9383 603.0286 715.8183 577.1486 715.8183 545.8986C715.8183 514.6486 689.9383 488.7686 658.6883 488.7686C626.9483 488.7686 601.5583 514.6486 601.5583 545.8986C601.5583 577.1486 626.9483 603.0286 658.6883 603.0286ZM826.6583 603.0286C857.9083 603.0286 883.7883 577.1486 883.7883 545.8986C883.7883 514.6486 857.9083 488.7686 826.6583 488.7686C795.4083 488.7686 769.5283 514.6486 769.5283 545.8986C769.5283 577.1486 795.4083 603.0286 826.6583 603.0286Z"/>
</svg>