<?xml version="1.0" encoding="UTF-8" standalone="no"?>
<svg xmlns="http://www.w3.org/2000/svg"
     width="996.09375" height="996.09375"
     viewBox="0 0 996.09375 996.09375"
     fill="currentColor">
  <path d="M498.0477 996.0959C770.5077 996.0959 996.0977 770.0159 996.0977 498.0459C996.0977 225.5859 770.0177 -0.0041 497.5577 -0.0041C225.5877 -0.0041 -0.0023 225.5859 -0.0023 498.0459C-0.0023 770.0159 226.0777 996.0959 498.0477 996.0959ZM498.0477 913.0859C267.5777 913.0859 83.4977 728.5159 83.4977 498.0459C83.4977 267.5759 267.0877 83.0059 497.5577 83.0059C728.0277 83.0059 913.0877 267.5759 913.0877 498.0459C913.0877 728.5159 728.5177 913.0859 498.0477 913.0859ZM497.5577 756.8359C607.9077 756.8359 682.1277 685.0559 682.1277 578.1259C682.1277 524.9059 659.6677 478.0259 643.5577 441.8959C614.2577 378.9059 566.4077 300.2959 525.3877 236.8159C517.0877 224.6059 508.2977 219.2359 497.5577 219.2359C486.8177 219.2359 478.0277 224.6059 469.7277 236.8159C428.7077 300.2959 380.8577 378.9059 351.5577 441.8959C335.4477 478.0259 312.9877 524.9059 312.9877 578.1259C312.9877 685.0559 387.2077 756.8359 497.5577 756.8359Z"/>
</svg>