<?xml version="1.0" encoding="UTF-8" standalone="no"?>
<svg xmlns="http://www.w3.org/2000/svg"
     width="913.57421875" height="1071.540322556886"
     viewBox="0 0 913.57421875 1071.540322556886"
     fill="currentColor">
  <path d="M113.2783 1025.3944H478.0283C479.9783 1003.9044 493.6483 992.1844 494.1383 974.1244C494.6283 966.3044 490.7183 957.5244 484.3783 946.7744H116.6983C94.2383 946.7744 78.6183 931.1544 78.6183 908.2044V318.3544H768.5583V574.2144C792.4783 559.5744 820.7983 556.1544 847.1683 563.9644V116.6944C847.1683 46.3844 801.7583 0.0044 734.3783 0.0044H113.2783C45.4083 0.0044 -0.0017 46.3844 -0.0017 116.6944V908.6944C-0.0017 979.0044 45.4083 1025.3944 113.2783 1025.3944ZM78.6183 117.1844C78.6183 93.7544 94.2383 78.6144 116.6983 78.6144H730.4683C753.4183 78.6144 768.5583 93.7544 768.5583 117.1844V254.3944H78.6183ZM184.0783 209.4744C208.0083 209.4744 227.0483 189.9444 227.0483 166.5044C227.0483 142.5744 208.0083 123.5344 184.0783 123.5344C160.6483 123.5344 141.1183 142.5744 141.1183 166.5044C141.1183 189.9444 160.6483 209.4744 184.0783 209.4744ZM308.5983 209.4744C332.5183 209.4744 351.5583 189.9444 351.5583 166.5044C351.5583 142.5744 332.5183 123.5344 308.5983 123.5344C285.1583 123.5344 266.1183 142.5744 266.1183 166.5044C266.1183 189.9444 285.1583 209.4744 308.5983 209.4744ZM563.9683 190.9144H680.6683C695.3083 190.9144 705.0783 181.1544 705.0783 166.5044C705.0783 151.8544 695.3083 141.6044 680.6683 141.6044H563.9683C549.3183 141.6044 539.5483 151.8544 539.5483 166.5044C539.5483 181.1544 549.3183 190.9144 563.9683 190.9144ZM234.3783 862.7944H445.7983C439.4483 847.1644 433.5983 829.1044 429.1983 808.5944H243.1683C231.4483 808.5944 223.6283 800.7844 223.6283 788.5744V476.5644C223.6283 464.3544 231.4483 456.5444 243.1683 456.5444H604.0083C615.7183 456.5444 623.5383 464.3544 623.5383 476.5644V575.1944C640.1383 564.9444 659.1783 559.5744 678.2183 560.5444V467.7744C678.2183 428.7144 651.3683 402.3444 612.7883 402.3444H234.3783C195.7983 402.3444 169.4383 428.7144 169.4383 467.7744V797.3644C169.4383 836.4244 195.7983 862.7944 234.3783 862.7944ZM840.3283 1064.4544C855.9583 1074.7044 878.9083 1073.2444 890.6283 1052.2444C905.2783 1026.3644 913.5783 996.5844 913.5783 967.2844C913.5783 860.3544 832.0283 808.1044 832.0283 729.4944C832.0283 709.9644 835.9383 695.8044 847.6583 674.8044C857.9083 657.7144 850.0983 639.1644 836.4283 631.8344C822.2683 622.0744 799.3183 624.0244 787.5983 644.0444C772.4583 669.9244 765.1383 699.7044 765.1383 729.4944C765.1383 834.4744 846.1883 886.2344 846.1883 967.2844C846.1883 986.8144 842.7783 1000.0044 830.5683 1020.9944C820.3083 1039.0644 828.6183 1056.6444 840.3283 1064.4544ZM698.7283 1064.9444C714.3583 1075.1944 737.3083 1073.7344 749.0283 1052.7344C763.6683 1026.8544 771.9683 997.0744 771.9683 967.7744C771.9683 860.8444 690.4283 808.5944 690.4283 729.9844C690.4283 710.4444 694.3383 696.2844 706.0583 675.2944C716.3083 658.2044 708.4983 639.6444 694.8283 632.3244C681.1483 622.5544 657.7183 624.5144 645.9983 644.5344C631.3483 670.4144 623.5383 700.1944 623.5383 729.9844C623.5383 834.9644 704.5883 886.7144 704.5883 967.7744C704.5883 987.3044 701.1683 1000.4844 689.4483 1021.4844C679.1983 1039.5544 687.0083 1057.1244 698.7283 1064.9444ZM557.1283 1065.4344C571.7783 1075.1944 594.7283 1074.7044 607.9083 1053.2244C622.0683 1027.3444 630.3683 997.0744 630.3683 967.7744C630.3683 861.3244 548.8283 809.0844 548.8283 730.4644C548.8283 710.4444 552.7383 696.2844 564.9383 675.7844C574.7083 658.6944 567.3783 640.1344 553.7083 632.3244C539.5483 622.5544 516.5983 624.5144 504.8783 645.0244C489.7483 670.4144 481.9383 700.6844 481.9383 730.4644C481.9383 834.9644 562.9883 887.2044 562.9883 967.7744C562.9883 987.7944 559.5683 1000.9744 547.3683 1021.9744C537.1083 1039.5544 545.8983 1057.6144 557.1283 1065.4344Z"/>
</svg>