<?xml version="1.0" encoding="UTF-8" standalone="no"?>
<svg xmlns="http://www.w3.org/2000/svg"
     width="1235.3515625" height="722.65625"
     viewBox="0 0 1235.3515625 722.65625"
     fill="currentColor">
  <path d="M91.7983 614.7455H126.9483C135.7383 683.5955 179.1983 722.6555 249.9983 722.6555H284.6683C366.2083 722.6555 413.5783 673.8255 413.5783 588.3755V474.6055H821.7783V588.3755C821.7783 673.8255 869.1383 722.6555 950.6883 722.6555H985.3483C1055.6683 722.6555 1099.6083 683.5955 1108.3983 614.7455H1143.5583C1195.3083 614.7455 1235.3483 574.7055 1235.3483 523.4355V199.2155C1235.3483 147.4655 1195.3083 107.4255 1143.5583 107.4255H1107.9083C1099.6083 39.0655 1057.6183 -0.0045 990.7183 -0.0045H949.7083C868.1683 -0.0045 821.7783 49.8055 821.7783 135.2555V247.5555H413.5783V135.2555C413.5783 49.8055 366.6983 -0.0045 285.6483 -0.0045H244.1383C177.2483 -0.0045 135.7383 39.0655 126.9483 107.4255H91.7983C40.0383 107.4255 -0.0017 147.4655 -0.0017 199.2155V523.4355C-0.0017 574.7055 40.0383 614.7455 91.7983 614.7455ZM250.9783 648.9255C218.7483 648.9255 199.2183 626.4655 199.2183 588.3755V135.2555C199.2183 96.6755 216.7983 73.7255 245.6083 73.7255H284.1783C318.8483 73.7255 339.8483 96.6755 339.8483 135.2555V588.3755C339.8483 626.4655 318.8483 648.9255 283.1983 648.9255ZM952.1483 648.9255C916.5083 648.9255 895.5083 626.4655 895.5083 588.3755V135.2555C895.5083 96.6755 916.0183 73.7255 951.1683 73.7255H989.7483C1018.5583 73.7255 1036.1283 96.6755 1036.1283 135.2555V588.3755C1036.1283 626.4655 1016.5983 648.9255 984.3783 648.9255ZM1143.0683 176.2655C1156.2483 176.2655 1166.5083 187.0155 1166.5083 200.6855V522.4655C1166.5083 535.6455 1156.2483 545.8955 1143.0683 545.8955H1109.8683V176.2655ZM92.2883 545.8955C78.6183 545.8955 68.8483 535.6455 68.8483 522.4655V200.6855C68.8483 187.0155 78.6183 176.2655 92.2883 176.2655H125.4883V545.8955ZM413.5783 400.8755V321.2855H821.7783V400.8755Z"/>
</svg>