<?xml version="1.0" encoding="UTF-8" standalone="no"?>
<svg xmlns="http://www.w3.org/2000/svg"
     width="1235.3515625" height="722.65625"
     viewBox="0 0 1235.3515625 722.65625"
     fill="currentColor">
  <path d="M301.2683 722.6572C366.2083 722.6572 411.6183 679.1972 411.6183 617.6772V105.4672C411.6183 43.4572 366.2083 -0.0028 301.2683 -0.0028C236.8183 -0.0028 191.4083 43.4572 191.4083 105.4672V617.6772C191.4083 679.1972 236.8183 722.6572 301.2683 722.6572ZM938.4783 722.6572C1003.4183 722.6572 1048.8283 679.1972 1048.8283 617.6772V105.4672C1048.8283 43.4572 1003.4183 -0.0028 938.4783 -0.0028C874.0283 -0.0028 828.6183 43.4572 828.6183 105.4672V617.6772C828.6183 679.1972 874.0283 722.6572 938.4783 722.6572ZM69.3383 614.7472C108.8883 614.7472 139.1583 584.4772 139.1583 545.8972V176.7572C139.1583 137.6972 108.8883 106.9372 69.3383 106.9372C30.2783 106.9372 -0.0017 137.6972 -0.0017 176.7572V545.8972C-0.0017 584.4772 30.2783 614.7472 69.3383 614.7472ZM1165.5283 614.7472C1204.5883 614.7472 1235.3483 584.4772 1235.3483 545.8972V176.7572C1235.3483 137.6972 1204.5883 106.9372 1165.5283 106.9372C1126.4683 106.9372 1096.1883 137.6972 1096.1883 176.7572V545.8972C1096.1883 584.4772 1126.4683 614.7472 1165.5283 614.7472ZM468.2583 455.5672H771.4883V267.0872H468.2583Z"/>
</svg>