<?xml version="1.0" encoding="UTF-8" standalone="no"?>
<svg xmlns="http://www.w3.org/2000/svg"
     width="996.09375" height="996.09375"
     viewBox="0 0 996.09375 996.09375"
     fill="currentColor">
  <path d="M498.0477 996.0959C770.5077 996.0959 996.0977 770.0159 996.0977 498.0459C996.0977 225.5859 770.0177 -0.0041 497.5577 -0.0041C225.5877 -0.0041 -0.0023 225.5859 -0.0023 498.0459C-0.0023 770.0159 226.0777 996.0959 498.0477 996.0959ZM382.3277 722.6559C355.9577 722.6559 342.2877 704.5859 342.2877 677.2459V309.5659C342.2877 282.2259 355.9577 264.1559 382.3277 264.1559H620.6077C639.6477 264.1559 653.8077 275.8759 653.8077 296.8759C653.8077 316.8959 639.6477 330.0759 620.6077 330.0759H423.3377V458.4959H607.4177C626.4677 458.4959 640.6277 469.7259 640.6277 490.7259C640.6277 510.2559 626.4677 521.4859 607.4177 521.4859H423.3377V656.7359H620.6077C639.6477 656.7359 653.8077 668.9459 653.8077 689.9459C653.8077 709.9559 639.6477 722.6559 620.6077 722.6559Z"/>
</svg>