<?xml version="1.0" encoding="UTF-8" standalone="no"?>
<svg xmlns="http://www.w3.org/2000/svg"
     width="996.09375" height="996.09375"
     viewBox="0 0 996.09375 996.09375"
     fill="currentColor">
  <path d="M498.0477 996.0959C770.5077 996.0959 996.0977 770.0159 996.0977 498.0459C996.0977 225.5859 770.0177 -0.0041 497.5577 -0.0041C225.5877 -0.0041 -0.0023 225.5859 -0.0023 498.0459C-0.0023 770.0159 226.0777 996.0959 498.0477 996.0959ZM498.0477 913.0859C267.5777 913.0859 83.4977 728.5159 83.4977 498.0459C83.4977 267.5759 267.0877 83.0059 497.5577 83.0059C728.0277 83.0059 913.0877 267.5759 913.0877 498.0459C913.0877 728.5159 728.5177 913.0859 498.0477 913.0859ZM385.2577 715.8159H616.2077C634.7677 715.8159 648.4377 703.6159 648.4377 684.0859C648.4377 664.0659 634.7677 651.8559 616.2077 651.8559H424.8077V520.5059H603.5177C622.0677 520.5059 635.7377 509.7659 635.7377 490.7259C635.7377 470.7059 622.0677 459.4759 603.5177 459.4759H424.8077V334.9559H616.2077C634.7677 334.9559 648.4377 322.2659 648.4377 302.7359C648.4377 282.7159 634.7677 270.9959 616.2077 270.9959H385.2577C359.8677 270.9959 346.6777 288.5759 346.6777 314.9459V671.8759C346.6777 698.2459 359.8677 715.8159 385.2577 715.8159Z"/>
</svg>