<?xml version="1.0" encoding="UTF-8" standalone="no"?>
<svg xmlns="http://www.w3.org/2000/svg"
     width="1165.0390625" height="774.4140625"
     viewBox="0 0 1165.0390625 774.4140625"
     fill="currentColor">
  <path d="M301.2683 774.4178H863.7683C1066.8983 774.4178 1165.0383 678.7078 1165.0383 480.9578V294.9178C1165.0383 96.1878 1068.8483 -0.0022 869.1383 -0.0022H295.8983C96.6783 -0.0022 -0.0017 96.1878 -0.0017 294.9178V480.9578C-0.0017 678.7078 98.1483 774.4178 301.2683 774.4178ZM295.8983 78.6178H869.1383C1013.6683 78.6178 1081.5383 140.6278 1086.4283 278.3178H79.0983C83.4983 140.6278 151.3683 78.6178 295.8983 78.6178ZM301.2683 695.7978C147.9483 695.7978 78.6183 629.3978 78.6183 480.9578V327.6378H1086.4283V480.9578C1086.4283 629.3978 1017.5783 695.7978 863.7683 695.7978ZM582.5183 509.2778C608.3983 509.2778 629.8783 487.7978 629.8783 461.9178C629.8783 436.0378 608.3983 415.0378 582.5183 415.0378C556.6383 415.0378 535.6483 436.0378 535.6483 461.9178C535.6483 487.7978 556.6383 509.2778 582.5183 509.2778Z"/>
</svg>