<?xml version="1.0" encoding="UTF-8" standalone="no"?>
<svg xmlns="http://www.w3.org/2000/svg"
     width="940.4296875" height="909.1796875"
     viewBox="0 0 940.4296875 909.1796875"
     fill="currentColor">
  <path d="M81.5383 553.2275H859.8683C904.7883 553.2275 928.2183 530.2775 929.1983 491.2075C929.6883 472.6575 920.4083 453.6175 905.2783 437.0075L538.5783 34.1775C520.5083 14.6475 498.0483 -0.0025 470.6983 -0.0025C442.8683 -0.0025 421.8783 13.6675 402.3483 34.1775L36.1283 437.0075C20.9983 453.6175 12.2083 472.6575 12.2083 491.2075C12.2083 530.2775 36.6183 553.2275 81.5383 553.2275ZM133.2983 479.4875C124.0283 479.4875 119.6283 475.0975 119.6283 468.2575C119.6283 464.8475 121.0983 461.4275 123.5383 458.9875L454.5883 99.1175C459.9583 93.7475 463.8683 89.8475 470.6983 89.8475C477.5383 89.8475 481.9383 93.7475 486.8183 99.1175L817.3783 458.9875C820.3083 461.9175 821.7783 464.8475 821.7783 468.2575C821.7783 475.0975 816.8983 479.4875 808.1083 479.4875ZM104.9783 909.1775H835.4483C902.8283 909.1775 940.4283 874.0275 940.4283 808.1075V751.9575C940.4283 686.0375 902.8283 650.8775 835.4483 650.8775H104.9783C37.5983 650.8775 -0.0017 685.5475 -0.0017 751.9575V808.1075C-0.0017 874.5075 37.5983 909.1775 104.9783 909.1775ZM111.3283 837.3975C89.8483 837.3975 78.6183 824.7075 78.6183 803.2275V756.8375C78.6183 735.3475 89.8483 722.6575 111.3283 722.6575H829.0983C851.0783 722.6575 861.8183 735.3475 861.8183 756.8375V803.2275C861.8183 824.7075 851.0783 837.3975 829.0983 837.3975Z"/>
</svg>