<?xml version="1.0" encoding="UTF-8" standalone="no"?>
<svg xmlns="http://www.w3.org/2000/svg"
     width="927.734375" height="901.3671875"
     viewBox="0 0 927.734375 901.3671875"
     fill="currentColor">
  <path d="M69.8283 544.4344H856.9383C895.9983 544.4344 917.4783 523.9244 917.4783 489.7444C917.4783 473.6344 910.1583 456.5444 896.4883 441.8944L523.4383 30.2744C506.8383 12.2044 487.7883 0.0044 463.3783 0.0044C439.9383 0.0044 419.9183 13.1844 403.8083 30.2744L30.2783 441.8944C16.5983 456.5444 8.7883 473.6344 9.2783 489.7444C9.7683 523.9244 30.7583 544.4344 69.8283 544.4344ZM79.5883 901.3644H848.1483C897.9483 901.3644 927.7383 870.6044 927.7383 820.8044V732.4244C927.7383 682.6144 897.9483 651.8544 848.1483 651.8544H79.5883C29.7883 651.8544 -0.0017 682.6144 -0.0017 732.4244V820.8044C-0.0017 870.6044 29.7883 901.3644 79.5883 901.3644Z"/>
</svg>