<?xml version="1.0" encoding="UTF-8" standalone="no"?>
<svg xmlns="http://www.w3.org/2000/svg"
     width="1057.6171875" height="684.08203125"
     viewBox="0 0 1057.6171875 684.08203125"
     fill="currentColor">
  <path d="M-0.0017 542.9659C-0.0017 635.2559 50.7783 684.0859 142.5783 684.0859H914.5483C1006.8383 684.0859 1057.6183 635.2559 1057.6183 542.9659V140.1359C1057.6183 48.3359 1006.8383 -0.0041 914.5483 -0.0041H142.5783C50.7783 -0.0041 -0.0017 48.3359 -0.0017 140.1359ZM282.7183 414.0659C242.6783 414.0659 209.9583 381.8359 209.9583 341.7959C209.9583 301.7559 242.6783 269.5359 282.7183 269.5359C322.7583 269.5359 354.9783 301.7559 354.9783 341.7959C354.9783 381.8359 322.7583 414.0659 282.7183 414.0659ZM529.2983 414.0659C489.2583 414.0659 457.0283 381.8359 457.0283 341.7959C457.0283 301.7559 489.2583 269.5359 529.2983 269.5359C569.3383 269.5359 601.5583 301.7559 601.5583 341.7959C601.5583 381.8359 569.3383 414.0659 529.2983 414.0659ZM775.8783 414.0659C735.8383 414.0659 703.6183 381.8359 703.6183 341.7959C703.6183 301.7559 735.8383 269.5359 775.8783 269.5359C815.9183 269.5359 848.1483 301.7559 848.1483 341.7959C848.1483 381.8359 815.9183 414.0659 775.8783 414.0659Z"/>
</svg>