<?xml version="1.0" encoding="UTF-8" standalone="no"?>
<svg xmlns="http://www.w3.org/2000/svg"
     width="1215.8203125" height="1008.30078125"
     viewBox="0 0 1215.8203125 1008.30078125"
     fill="currentColor">
  <path d="M-0.0017 503.417C-0.0017 531.737 16.1183 551.757 49.8083 557.127C110.3483 566.407 134.2783 597.167 134.2783 675.777V812.987C134.2783 945.797 194.8283 1008.297 326.6583 1008.297C334.4683 1008.297 342.7783 1006.837 348.6283 1004.887C363.7683 998.537 372.0683 986.327 372.0683 970.217C372.0683 951.167 363.7683 941.407 346.6783 937.007C341.7983 936.037 336.9183 935.057 331.0583 934.567C249.0283 928.707 219.2383 893.557 219.2383 803.227V641.117C219.2383 558.597 175.7783 512.697 99.6083 505.367C98.1483 505.367 98.1483 503.417 99.6083 503.417C175.7783 496.097 219.2383 450.197 219.2383 367.677V205.077C219.2383 114.257 249.0283 80.077 331.0583 74.217C338.8683 73.727 345.6983 72.757 350.5883 70.797C364.7483 65.917 372.0683 55.177 372.0683 38.087C372.0683 20.997 363.2783 9.277 346.6783 3.417C339.3583 0.977 331.5383 -0.003 321.7783 -0.003C194.3383 -0.003 134.2783 63.477 134.2783 195.317V333.007C134.2783 410.647 110.3483 441.897 49.8083 451.167C16.1183 456.547 -0.0017 475.587 -0.0017 503.417ZM1215.8183 503.417C1215.8183 475.587 1199.7083 456.547 1166.0183 451.167C1105.4683 441.897 1081.5383 410.647 1081.5383 333.007V195.317C1081.5383 63.477 1021.4883 -0.003 894.0383 -0.003C884.2783 -0.003 876.9483 0.977 869.6283 3.417C852.5383 9.277 843.7483 20.997 843.7483 38.087C843.7483 55.177 851.0783 65.917 865.7183 70.797C870.6083 72.757 876.9483 73.727 884.7683 74.217C966.7983 80.077 997.0683 114.257 997.0683 205.077V367.677C997.0683 450.197 1040.0383 496.097 1116.2083 503.417C1117.6783 503.417 1117.6783 505.367 1116.2083 505.367C1040.0383 512.697 997.0683 558.597 997.0683 641.117V803.227C997.0683 893.557 966.7983 928.707 884.7683 934.567C878.9083 935.057 874.5083 936.037 869.6283 937.007C852.0483 941.407 843.7483 951.167 843.7483 970.217C843.7483 986.327 852.0483 998.537 867.6783 1004.887C873.5383 1006.837 881.3483 1008.297 889.1583 1008.297C1020.9983 1008.297 1081.5383 945.797 1081.5383 812.987V675.777C1081.5383 597.167 1105.4683 566.407 1166.0183 557.127C1199.7083 551.757 1215.8183 531.737 1215.8183 503.417ZM388.1883 581.057C430.6683 581.057 465.8183 544.917 465.8183 503.417C465.8183 462.407 430.6683 425.777 388.1883 425.777C345.6983 425.777 310.0583 462.407 310.0583 503.417C310.0583 544.917 345.6983 581.057 388.1883 581.057ZM607.9083 581.057C649.4183 581.057 685.5483 544.917 685.5483 503.417C685.5483 462.407 649.4183 425.777 607.9083 425.777C566.4083 425.777 530.2783 462.407 530.2783 503.417C530.2783 544.917 566.4083 581.057 607.9083 581.057ZM827.6383 581.057C870.1183 581.057 905.7583 544.917 905.7583 503.417C905.7583 462.407 870.1183 425.777 827.6383 425.777C785.6483 425.777 749.9983 462.407 749.9983 503.417C749.9983 544.917 785.6483 581.057 827.6383 581.057Z"/>
</svg>