<?xml version="1.0" encoding="UTF-8" standalone="no"?>
<svg xmlns="http://www.w3.org/2000/svg"
     width="1076.171875" height="1013.18359375"
     viewBox="0 0 1076.171875 1013.18359375"
     fill="currentColor">
  <path d="M290.0383 1013.1819C309.0783 1013.1819 323.2383 1003.4219 346.1883 981.9319L522.4583 820.8019H852.5383C998.0483 820.8019 1076.1683 740.7219 1076.1683 597.6519V223.6319C1076.1683 80.5619 998.0483 0.0019 852.5383 0.0019H223.6283C78.1283 0.0019 -0.0017 80.0819 -0.0017 223.6319V597.6519C-0.0017 741.2119 78.1283 820.8019 223.6283 820.8019H246.5783V962.8919C246.5783 993.1619 262.2083 1013.1819 290.0383 1013.1819ZM291.5083 482.4219C251.9483 482.4219 219.2383 450.1919 219.2383 410.1519C219.2383 370.1219 251.9483 337.8919 291.5083 337.8919C331.5383 337.8919 363.7683 370.1219 363.7683 410.1519C363.7683 450.1919 331.5383 482.4219 291.5083 482.4219ZM538.5783 482.4219C498.5383 482.4219 465.8183 450.1919 465.8183 410.1519C465.8183 370.1219 498.5383 337.8919 538.5783 337.8919C578.1283 337.8919 610.8383 370.1219 610.8383 410.1519C610.8383 450.1919 578.1283 482.4219 538.5783 482.4219ZM785.1583 482.4219C745.1183 482.4219 712.8883 450.1919 712.8883 410.1519C712.8883 370.1219 745.1183 337.8919 785.1583 337.8919C825.1983 337.8919 857.4183 370.1219 857.4183 410.1519C857.4183 450.1919 825.1983 482.4219 785.1583 482.4219Z"/>
</svg>