<?xml version="1.0" encoding="UTF-8" standalone="no"?>
<svg xmlns="http://www.w3.org/2000/svg"
     width="1076.171875" height="1013.18359375"
     viewBox="0 0 1076.171875 1013.18359375"
     fill="currentColor">
  <path d="M290.0383 1013.1819C309.0783 1013.1819 323.2383 1003.4219 346.1883 981.9319L522.4583 820.8019H852.5383C998.0483 820.8019 1076.1683 740.7219 1076.1683 597.6519V223.6319C1076.1683 80.5619 998.0483 0.0019 852.5383 0.0019H223.6283C78.1283 0.0019 -0.0017 80.0819 -0.0017 223.6319V597.6519C-0.0017 741.2119 78.1283 820.8019 223.6283 820.8019H246.5783V962.8919C246.5783 993.1619 262.2083 1013.1819 290.0383 1013.1819ZM538.5783 271.9719C499.9983 271.9719 469.2383 240.7219 469.2383 202.6319C469.2383 164.5519 499.9983 133.3019 538.5783 133.3019C577.1483 133.3019 607.9083 164.5519 607.9083 202.6319C607.9083 240.7219 577.1483 271.9719 538.5783 271.9719ZM538.5783 479.9819C499.9983 479.9819 469.2383 449.2219 469.2383 410.6419C469.2383 372.0719 499.9983 341.3119 538.5783 341.3119C577.1483 341.3119 607.9083 372.0719 607.9083 410.6419C607.9083 449.2219 577.1483 479.9819 538.5783 479.9819ZM538.5783 687.5019C499.9983 687.5019 469.2383 656.7419 469.2383 618.6519C469.2383 580.0819 499.9983 549.3119 538.5783 549.3119C577.1483 549.3119 607.9083 580.0819 607.9083 618.6519C607.9083 656.7419 577.1483 687.5019 538.5783 687.5019Z"/>
</svg>