<?xml version="1.0" encoding="UTF-8" standalone="no"?>
<svg xmlns="http://www.w3.org/2000/svg"
     width="1057.6171875" height="684.08203125"
     viewBox="0 0 1057.6171875 684.08203125"
     fill="currentColor">
  <path d="M-0.0017 542.9659C-0.0017 635.2559 50.7783 684.0859 142.5783 684.0859H914.5483C1006.8383 684.0859 1057.6183 635.2559 1057.6183 542.9659V140.1359C1057.6183 48.3359 1006.8383 -0.0041 914.5483 -0.0041H142.5783C50.7783 -0.0041 -0.0017 48.3359 -0.0017 140.1359ZM78.6183 546.8759V136.2259C78.6183 95.7059 101.5583 72.7559 142.0883 72.7559H915.5283C956.0583 72.7559 979.0083 95.7059 979.0083 136.2259V546.8759C979.0083 587.4059 956.0583 610.3559 915.5283 610.3559H142.0883C101.5583 610.3559 78.6183 587.4059 78.6183 546.8759ZM290.5283 411.6259C329.0983 411.6259 360.3483 380.3759 360.3483 341.7959C360.3483 303.2259 329.0983 271.9759 290.5283 271.9759C251.9483 271.9759 220.2183 303.2259 220.2183 341.7959C220.2183 380.3759 251.9483 411.6259 290.5283 411.6259ZM529.2983 411.6259C567.8683 411.6259 599.1183 380.3759 599.1183 341.7959C599.1183 303.2259 567.8683 271.9759 529.2983 271.9759C490.7183 271.9759 459.4683 303.2259 459.4683 341.7959C459.4683 380.3759 490.7183 411.6259 529.2983 411.6259ZM768.0683 411.6259C806.6383 411.6259 837.8883 380.3759 837.8883 341.7959C837.8883 303.2259 806.6383 271.9759 768.0683 271.9759C729.4883 271.9759 698.2383 303.2259 698.2383 341.7959C698.2383 380.3759 729.4883 411.6259 768.0683 411.6259Z"/>
</svg>