<?xml version="1.0" encoding="UTF-8" standalone="no"?>
<svg xmlns="http://www.w3.org/2000/svg"
     width="996.09375" height="996.09375"
     viewBox="0 0 996.09375 996.09375"
     fill="currentColor">
  <path d="M498.0477 996.0959C770.5077 996.0959 996.0977 770.0159 996.0977 498.0459C996.0977 225.5859 770.0177 -0.0041 497.5577 -0.0041C225.5877 -0.0041 -0.0023 225.5859 -0.0023 498.0459C-0.0023 770.0159 226.0777 996.0959 498.0477 996.0959ZM263.1877 571.2859C222.6577 571.2859 189.4577 538.5759 189.4577 497.5559C189.4577 457.0359 222.6577 424.3159 263.1877 424.3159C303.2277 424.3159 336.4277 457.0359 336.4277 497.5559C336.4277 538.5759 303.7077 571.2859 263.1877 571.2859ZM498.0477 571.2859C457.5177 571.2859 424.3177 538.5759 424.3177 497.5559C424.3177 457.0359 457.5177 424.3159 498.0477 424.3159C538.5777 424.3159 571.2877 457.0359 571.2877 497.5559C571.2877 538.5759 538.5777 571.2859 498.0477 571.2859ZM733.3977 571.2859C692.3877 571.2859 659.6677 538.5759 659.6677 497.5559C659.6677 457.0359 692.3877 424.3159 733.3977 424.3159C773.4377 424.3159 806.6377 457.0359 806.6377 497.5559C806.6377 538.5759 773.4377 571.2859 733.3977 571.2859Z"/>
</svg>