<?xml version="1.0" encoding="UTF-8" standalone="no"?>
<svg xmlns="http://www.w3.org/2000/svg"
     width="1076.171875" height="1010.25390625"
     viewBox="0 0 1076.171875 1010.25390625"
     fill="currentColor">
  <path d="M300.2883 1010.2519C324.2183 1010.2519 340.8183 997.5619 370.6083 971.1919L539.0583 821.2919H852.5383C998.0483 821.2919 1076.1683 740.7219 1076.1683 597.6519V223.6319C1076.1683 80.5619 998.0483 0.0019 852.5383 0.0019H223.6283C78.1283 0.0019 -0.0017 80.0819 -0.0017 223.6319V597.6519C-0.0017 741.2119 78.1283 821.2919 223.6283 821.2919H247.0683V948.2419C247.0683 985.8419 266.1183 1010.2519 300.2883 1010.2519ZM320.3083 920.9019V779.2919C320.3083 752.9319 310.0583 742.6719 283.6883 742.6719H223.6283C124.9983 742.6719 78.6183 692.3819 78.6183 597.1719V223.6319C78.6183 128.4219 124.9983 78.6119 223.6283 78.6119H852.5383C950.6883 78.6119 997.5583 128.4219 997.5583 223.6319V597.1719C997.5583 692.3819 950.6883 742.6719 852.5383 742.6719H536.1283C508.7883 742.6719 495.1183 746.5819 476.5583 765.6219ZM299.3183 480.4719C337.8883 480.4719 369.1383 449.2219 369.1383 410.6419C369.1383 372.0719 337.8883 340.8219 299.3183 340.8219C260.7383 340.8219 229.4883 372.0719 229.4883 410.6419C229.4883 449.2219 260.7383 480.4719 299.3183 480.4719ZM538.5783 480.4719C576.6583 480.4719 608.3983 449.2219 608.3983 410.6419C608.3983 372.0719 576.6583 340.8219 538.5783 340.8219C499.9983 340.8219 468.2583 372.0719 468.2583 410.6419C468.2583 449.2219 499.9983 480.4719 538.5783 480.4719ZM777.3483 480.4719C815.9183 480.4719 847.1683 449.2219 847.1683 410.6419C847.1683 372.0719 815.9183 340.8219 777.3483 340.8219C738.7683 340.8219 707.5183 372.0719 707.5183 410.6419C707.5183 449.2219 738.7683 480.4719 777.3483 480.4719Z"/>
</svg>