<?xml version="1.0" encoding="UTF-8" standalone="no"?>
<svg xmlns="http://www.w3.org/2000/svg"
     width="920.8984375" height="195.3125"
     viewBox="0 0 920.8984375 195.3125"
     fill="currentColor">
  <path d="M97.6577 195.317C152.8277 195.317 196.7777 151.857 196.7777 97.657C196.7777 43.457 152.8277 -0.003 97.6577 -0.003C43.9477 -0.003 -0.0023 43.457 -0.0023 97.657C-0.0023 151.857 43.9477 195.317 97.6577 195.317ZM460.4477 195.317C514.6477 195.317 558.1077 151.857 558.1077 97.657C558.1077 43.457 514.6477 -0.003 460.4477 -0.003C406.7377 -0.003 363.2777 43.457 363.2777 97.657C363.2777 151.857 406.7377 195.317 460.4477 195.317ZM823.2377 195.317C877.4377 195.317 920.8977 151.857 920.8977 97.657C920.8977 43.457 877.4377 -0.003 823.2377 -0.003C768.0677 -0.003 724.6077 43.457 724.6077 97.657C724.6077 151.857 768.0677 195.317 823.2377 195.317Z"/>
</svg>