<?xml version="1.0" encoding="UTF-8" standalone="no"?>
<svg xmlns="http://www.w3.org/2000/svg"
     width="996.09375" height="996.09375"
     viewBox="0 0 996.09375 996.09375"
     fill="currentColor">
  <path d="M498.0477 996.0959C770.5077 996.0959 996.0977 770.0159 996.0977 498.0459C996.0977 225.5859 770.0177 -0.0041 497.5577 -0.0041C225.5877 -0.0041 -0.0023 225.5859 -0.0023 498.0459C-0.0023 770.0159 226.0777 996.0959 498.0477 996.0959ZM498.0477 913.0859C267.5777 913.0859 83.4977 728.5159 83.4977 498.0459C83.4977 267.5759 267.0877 83.0059 497.5577 83.0059C728.0277 83.0059 913.0877 267.5759 913.0877 498.0459C913.0877 728.5159 728.5177 913.0859 498.0477 913.0859ZM270.0177 568.8459C309.0777 568.8459 340.8177 537.1059 340.8177 497.5559C340.8177 458.4959 308.5977 426.7559 270.0177 426.7559C230.4677 426.7559 198.7277 458.4959 198.7277 497.5559C198.7277 537.1059 230.4677 568.8459 270.0177 568.8459ZM497.5577 568.8459C536.6177 568.8459 568.8477 537.1059 568.8477 497.5559C568.8477 458.4959 536.6177 426.7559 497.5577 426.7559C458.4977 426.7559 426.2677 458.4959 426.2677 497.5559C426.2677 537.1059 458.4977 568.8459 497.5577 568.8459ZM725.5877 568.8459C764.6477 568.8459 796.3877 537.1059 796.3877 497.5559C796.3877 458.4959 764.6477 426.7559 725.5877 426.7559C686.0377 426.7559 654.2977 458.4959 654.2977 497.5559C654.2977 537.1059 686.0377 568.8459 725.5877 568.8459Z"/>
</svg>