<?xml version="1.0" encoding="UTF-8" standalone="no"?>
<svg xmlns="http://www.w3.org/2000/svg"
     width="1406.73828125" height="888.671875"
     viewBox="0 0 1406.73828125 888.671875"
     fill="currentColor">
  <path d="M39.0583 711.425C61.0383 711.425 78.6183 692.875 78.6183 671.875V557.615H148.4383V671.875C148.4383 732.915 186.0383 769.535 248.0483 769.535H385.7383L468.2583 859.375C487.3083 879.885 504.8783 888.675 530.7583 888.675H1006.3483C1070.7983 888.675 1109.3783 852.055 1109.3783 788.085V699.215C1109.3783 696.775 1110.8383 695.805 1112.7883 695.805H1170.8983C1173.3383 695.805 1174.3183 696.775 1174.3183 699.215V753.905C1174.3183 809.085 1210.9383 842.775 1270.5083 842.775H1311.0383C1370.1183 842.775 1406.7383 809.575 1406.7383 753.905V401.365C1406.7383 345.705 1370.1183 312.495 1311.0383 312.495H1270.5083C1210.9383 312.495 1174.3183 346.195 1174.3183 401.365V446.775C1174.3183 448.735 1173.3383 450.195 1170.8983 450.195H1112.7883C1110.8383 450.195 1109.3783 448.735 1109.3783 446.775V363.765C1109.3783 303.225 1071.7783 266.605 1009.2783 266.605H970.6983L888.6683 177.245C869.6283 156.245 850.0983 147.945 826.1683 147.945H713.8683V78.615H867.1883C888.6683 78.615 906.2483 60.055 906.2483 39.065C906.2483 17.575 888.6683 -0.005 867.1883 -0.005H480.4683C458.9883 -0.005 441.4083 18.065 441.4083 39.555C441.4083 61.035 459.4683 78.615 480.4683 78.615H634.7683V147.945H446.7783C422.3683 147.945 402.8283 157.225 383.7883 177.245L301.7583 266.605H248.0483C186.5283 266.605 148.4383 303.225 148.4383 363.765V479.005H78.6183V364.255C78.6183 342.775 60.5483 325.195 39.0583 325.195C17.5783 325.195 -0.0017 343.265 -0.0017 364.255V671.875C-0.0017 693.355 18.0683 711.425 39.0583 711.425ZM541.0183 810.055C531.2483 810.055 528.3183 808.595 521.9683 802.245L419.9183 690.915H248.5383C234.8683 690.915 227.0483 683.105 227.0483 668.455V367.675C227.0483 353.025 234.8683 345.215 248.5383 345.215H336.9183L437.9883 235.355C444.3383 228.025 447.7583 226.565 456.0583 226.565H816.4083C825.1983 226.565 829.0983 228.025 834.9583 235.355L936.5283 345.215H1008.7883C1022.4583 345.215 1030.7583 353.515 1030.7583 367.675V507.815C1030.7583 520.995 1038.5783 528.805 1051.2683 528.805H1232.9083C1245.6083 528.805 1253.4183 520.995 1253.4183 507.815V404.785C1253.4183 395.995 1259.2783 391.115 1271.4883 391.115H1310.5483C1322.2683 391.115 1328.1283 396.485 1328.1283 404.785V749.995C1328.1283 758.785 1322.2683 764.165 1310.5483 764.165H1271.4883C1259.2783 764.165 1253.4183 759.275 1253.4183 749.995V637.695C1253.4183 624.515 1245.6083 616.695 1232.9083 616.695H1051.2683C1038.5783 616.695 1030.7583 624.515 1030.7583 637.695V785.155C1030.7583 801.265 1022.4583 810.055 1005.8583 810.055Z"/>
</svg>