<?xml version="1.0" encoding="UTF-8" standalone="no"?>
<svg xmlns="http://www.w3.org/2000/svg"
     width="795.41015625" height="1023.92578125"
     viewBox="0 0 795.41015625 1023.92578125"
     fill="currentColor">
  <path d="M153.3183 1023.9244H532.7183C634.7683 1023.9244 685.5483 973.1444 685.5483 873.5344V864.2544H459.4683C432.1283 897.9444 389.6483 919.4344 342.7783 919.4344C259.2783 919.4344 191.8983 852.0544 191.8983 768.5544C191.8983 685.5444 259.2783 618.1644 342.7783 618.1644C389.6483 618.1644 431.6383 639.1644 458.9883 672.8544H685.5483V151.3644C685.5483 50.7844 634.7683 0.0044 532.7183 0.0044H153.3183C51.7583 0.0044 -0.0017 50.2944 -0.0017 151.3644V872.5544C-0.0017 973.6344 51.7583 1023.9244 153.3183 1023.9244ZM187.0083 245.1144C152.8283 245.1144 125.9783 217.7744 125.9783 184.5744C125.9783 150.3944 152.8283 123.0444 187.0083 123.0444C220.6983 123.0444 248.0483 150.3944 248.0483 184.5744C248.0483 217.7744 220.6983 245.1144 187.0083 245.1144ZM342.7783 245.1144C309.0783 245.1144 282.2283 217.7744 282.2283 184.5744C282.2283 150.3944 309.0783 123.0444 342.7783 123.0444C377.4383 123.0444 404.2983 150.3944 404.2983 184.5744C404.2983 217.7744 377.4383 245.1144 342.7783 245.1144ZM499.5083 245.1144C465.3283 245.1144 438.4783 217.7744 438.4783 184.5744C438.4783 150.3944 465.3283 123.0444 499.5083 123.0444C533.6883 123.0444 560.0583 150.3944 560.0583 184.5744C560.0583 217.7744 533.6883 245.1144 499.5083 245.1144ZM187.0083 395.5044C152.8283 395.5044 125.9783 368.1644 125.9783 334.4744C125.9783 300.2944 152.8283 272.9444 187.0083 272.9444C220.6983 272.9444 248.0483 300.2944 248.0483 334.4744C248.0483 368.1644 220.6983 395.5044 187.0083 395.5044ZM342.7783 395.5044C309.0783 395.5044 282.2283 368.1644 282.2283 334.4744C282.2283 300.2944 309.0783 272.9444 342.7783 272.9444C377.4383 272.9444 404.2983 300.2944 404.2983 334.4744C404.2983 368.1644 377.4383 395.5044 342.7783 395.5044ZM499.5083 395.5044C465.3283 395.5044 438.4783 368.1644 438.4783 334.4744C438.4783 300.2944 465.3283 272.9444 499.5083 272.9444C533.6883 272.9444 560.0583 300.2944 560.0583 334.4744C560.0583 368.1644 533.6883 395.5044 499.5083 395.5044ZM187.0083 546.3844C152.8283 546.3844 125.9783 519.0444 125.9783 484.8644C125.9783 451.1744 152.8283 423.8244 187.0083 423.8244C220.6983 423.8244 248.0483 451.1744 248.0483 484.8644C248.0483 519.0444 220.6983 546.3844 187.0083 546.3844ZM342.7783 546.3844C309.0783 546.3844 282.2283 519.0444 282.2283 484.8644C282.2283 451.1744 309.0783 423.8244 342.7783 423.8244C377.4383 423.8244 404.2983 451.1744 404.2983 484.8644C404.2983 519.0444 377.4383 546.3844 342.7783 546.3844ZM499.5083 546.3844C465.3283 546.3844 438.4783 519.0444 438.4783 484.8644C438.4783 451.1744 465.3283 423.8244 499.5083 423.8244C533.6883 423.8244 560.0583 451.1744 560.0583 484.8644C560.0583 519.0444 533.6883 546.3844 499.5083 546.3844ZM342.7783 827.6344H736.3283C768.5583 827.6344 795.4083 800.7844 795.4083 768.5544C795.4083 735.8444 768.5583 709.4744 736.3283 709.4744H342.7783C310.5483 709.4744 283.6883 735.8444 283.6883 768.5544C283.6883 800.7844 310.5483 827.6344 342.7783 827.6344Z"/>
</svg>