<?xml version="1.0" encoding="UTF-8" standalone="no"?>
<svg xmlns="http://www.w3.org/2000/svg"
     width="1078.125" height="841.30859375"
     viewBox="0 0 1078.125 841.30859375"
     fill="currentColor">
  <path d="M153.3183 841.3109H939.4483C1027.3483 841.3109 1078.1283 790.5309 1078.1283 689.9409V150.8809C1078.1283 50.7809 1026.8583 0.0009 924.8083 0.0009H138.6683C50.7783 0.0009 -0.0017 50.2909 -0.0017 150.8809V689.9409C-0.0017 791.0109 51.2683 841.3109 153.3183 841.3109ZM480.9583 445.3109L112.3083 81.5409C123.0483 77.1509 135.7383 74.7109 150.3883 74.7109H927.7383C942.8683 74.7109 956.0583 77.1509 966.7983 82.0309L599.1183 445.3109C578.1283 466.3109 559.0783 475.5809 540.0383 475.5809C520.5083 475.5809 501.4683 465.8209 480.9583 445.3109ZM74.7083 689.9409V150.8809C74.7083 146.9709 74.7083 148.9209 74.7083 145.5109L355.4683 421.3909L75.1983 698.2409C74.7083 695.8009 74.7083 692.8709 74.7083 689.9409ZM1003.4183 151.3709V690.4309C1003.4183 692.3809 1003.4183 694.8209 1003.4183 696.7809L724.6083 421.3909L1003.4183 146.9709C1003.4183 151.3709 1003.4183 151.3709 1003.4183 151.3709ZM150.3883 766.6009C136.7183 766.6009 124.9983 764.6509 114.7483 760.2509L406.7383 471.6809L438.4783 502.9309C472.6583 536.6209 505.3683 550.7809 540.0383 550.7809C574.2183 550.7809 607.4183 536.6209 641.5983 502.9309L673.3383 471.6809L964.8483 759.7609C954.0983 764.6509 941.8983 766.6009 927.7383 766.6009Z"/>
</svg>