<?xml version="1.0" encoding="UTF-8" standalone="no"?>
<svg xmlns="http://www.w3.org/2000/svg"
     width="1078.125" height="1118.65234375"
     viewBox="0 0 1078.125 1118.65234375"
     fill="currentColor">
  <path d="M153.3183 1118.657H924.8083C1026.8583 1118.657 1078.1283 1067.867 1078.1283 967.287V481.447C1078.1283 411.137 1063.4783 379.887 1017.0883 343.257L639.6483 46.387C604.4883 18.067 575.1983 -0.003 539.0583 -0.003C502.9283 -0.003 473.6283 18.067 438.4783 46.387L61.0383 343.257C14.6483 379.887 -0.0017 411.137 -0.0017 481.447V967.287C-0.0017 1068.357 51.2683 1118.657 153.3183 1118.657ZM641.5983 650.387C607.4183 616.207 574.2183 602.537 540.0383 602.537C505.3683 602.537 472.6583 616.207 438.4783 650.387L406.7383 681.637L114.2583 392.577L480.4683 106.937C504.3983 88.377 517.5783 78.127 539.0583 78.127C560.0583 78.127 573.7283 88.377 597.6583 106.937L964.8483 393.557L673.3383 681.637ZM74.7083 967.287V468.257C74.7083 463.377 74.7083 458.987 75.1983 455.077L355.4683 731.937L80.0783 1001.957C76.6583 992.187 74.7083 980.467 74.7083 967.287ZM1003.4183 468.257V967.287C1003.4183 979.977 1001.4683 991.207 998.0483 1000.977L724.6083 731.937L1002.9283 456.547C1003.4183 459.957 1003.4183 463.867 1003.4183 468.257ZM150.3883 1043.947C146.9683 1043.947 143.5583 1043.947 140.6283 1043.457L480.9583 708.007C501.4683 687.007 520.5083 677.737 540.0383 677.737C559.0783 677.737 578.1283 687.007 599.1183 708.007L938.9683 1043.457C935.5483 1043.947 931.6383 1043.947 927.7383 1043.947Z"/>
</svg>