<?xml version="1.0" encoding="UTF-8" standalone="no"?>
<svg xmlns="http://www.w3.org/2000/svg"
     width="1078.125" height="1105.46875"
     viewBox="0 0 1078.125 1105.46875"
     fill="currentColor">
  <path d="M11.2283 1025.3863L326.1683 714.8463L62.0083 458.0063C51.7583 447.2663 51.7583 435.0563 62.0083 427.2463L479.9783 104.0063C505.3683 84.4763 519.0383 74.7062 539.0583 74.7062C559.0783 74.7062 572.2683 84.4763 598.1483 104.0063L1016.1183 427.2463C1026.3683 435.0563 1026.3683 447.7563 1016.1183 458.0063L753.4183 714.8463L1066.8983 1024.4163C1074.2183 1010.7463 1078.1283 987.3063 1078.1283 954.1063V458.9863C1078.1283 407.2263 1069.3383 381.3463 1033.1983 351.5662L639.6483 46.3863C603.5183 18.0662 575.1983 -0.0037 539.0583 -0.0037C502.9283 -0.0037 474.6083 18.0662 438.4783 46.3863L44.4383 351.5662C9.2783 380.8563 -0.0017 407.2263 -0.0017 458.9863V954.1063C-0.0017 988.2863 3.9083 1011.7163 11.2283 1025.3863ZM138.6683 1105.4663H924.8083C973.1483 1105.4663 1006.8383 1096.6763 1024.8983 1079.1063L600.0983 659.1763C578.6183 637.6963 560.0583 628.4163 540.0383 628.4163C519.5283 628.4163 500.9783 637.6963 479.9783 659.1763L52.2483 1081.5463C68.8483 1097.6563 97.6583 1105.4663 138.6683 1105.4663Z"/>
</svg>