<?xml version="1.0" encoding="UTF-8" standalone="no"?>
<svg xmlns="http://www.w3.org/2000/svg"
     width="996.09375" height="996.09375"
     viewBox="0 0 996.09375 996.09375"
     fill="currentColor">
  <path d="M498.0477 996.0977C770.5077 996.0977 996.0977 770.5077 996.0977 498.0477C996.0977 226.0777 770.0177 -0.0023 497.5577 -0.0023C225.5877 -0.0023 -0.0023 226.0777 -0.0023 498.0477C-0.0023 770.5077 226.0777 996.0977 498.0477 996.0977ZM498.5377 524.4177C490.2377 524.4177 480.9577 521.9677 470.7077 512.6977L250.9777 292.4777C257.3277 287.5977 271.4877 282.7177 292.4777 282.7177H703.6177C724.6077 282.7177 739.2577 287.5977 745.6077 292.4777L525.8777 512.6977C516.1177 521.4877 507.3277 524.4177 498.5377 524.4177ZM399.8977 499.0277L227.0477 671.3877C223.6377 665.5277 222.1677 653.8077 222.1677 635.7377V360.3477C222.1677 342.7777 223.6377 331.0577 226.0777 325.6877ZM595.2177 499.0277L769.0477 325.6877C771.4877 331.0577 773.4377 342.7777 773.4377 360.3477V635.7377C773.4377 653.8077 771.4877 665.5277 768.0677 671.3877ZM498.0477 564.4577C516.1177 564.4577 529.7877 558.5977 549.3177 540.5277L565.4277 525.8777L743.6477 704.0977C737.7977 709.4677 724.1177 713.3777 703.1277 713.3777H292.4777C271.9777 713.3777 257.8077 709.4677 251.9577 704.0977L430.6677 525.8777L446.7777 540.5277C465.8177 558.5977 479.9777 564.4577 498.0477 564.4577Z"/>
</svg>