<?xml version="1.0" encoding="UTF-8" standalone="no"?>
<svg xmlns="http://www.w3.org/2000/svg"
     width="1078.125" height="1098.6347181961737"
     viewBox="0 0 1078.125 1098.6347181961737"
     fill="currentColor">
  <path d="M187.9883 112.3071L288.5783 217.7771C310.0583 239.2571 333.0083 232.9071 338.3783 204.1071L348.1483 151.8571C451.6583 169.4371 500.9783 231.9371 500.9783 307.6171V534.6671C500.9783 560.0571 516.5983 576.6571 540.0383 576.6571C563.4783 576.6571 578.6183 560.0571 578.6183 534.6671V307.6171C578.6183 231.9371 628.4183 169.4371 731.9383 151.8571L741.6983 204.1071C747.0683 232.9071 770.0183 239.2571 791.0183 217.7771L892.0883 112.3071C909.1783 95.2171 904.2983 73.7371 882.3283 63.4771L749.5083 4.3971C722.1683 -7.8129 704.0983 6.3471 709.4683 35.1571L719.2383 86.4271C643.0683 101.5671 558.5983 150.8771 540.0383 206.0571C521.4883 150.8771 437.0083 101.5671 360.8383 86.4271L370.6083 35.1571C375.9783 6.3471 357.9083 -7.8129 330.0783 4.3971L197.7583 63.4771C175.7783 73.7371 170.8983 95.2171 187.9883 112.3071ZM153.3183 1098.6371H939.4483C1027.3483 1098.6371 1078.1283 1047.8571 1078.1283 947.2671V460.9371C1078.1283 360.3571 1026.8583 309.5771 924.8083 309.5771H645.5083V384.2771H927.7383C941.8983 384.2771 954.5883 386.7171 965.3283 391.1171L599.1183 713.3771C576.1683 732.9071 559.0783 743.1671 540.0383 743.1671C520.5083 743.1671 501.9483 731.9371 480.9583 713.3771L114.2583 390.6271C124.5083 386.2371 136.7183 384.2771 150.3883 384.2771H434.5683V309.5771H138.6683C50.7783 309.5771 -0.0017 359.8671 -0.0017 460.9371V947.2671C-0.0017 1047.8571 51.2683 1098.6371 153.3183 1098.6371ZM74.7083 946.7771V460.4471C74.7083 457.5171 74.7083 454.5871 75.1983 451.6571L344.7283 688.4771L75.1983 955.5671C74.7083 952.6371 74.7083 950.1971 74.7083 946.7771ZM1003.4183 460.9371V947.2671C1003.4183 949.7071 1003.4183 952.1471 1003.4183 954.1071L734.8683 688.4771L1003.4183 453.6171C1003.4183 456.0571 1003.4183 458.4971 1003.4183 460.9371ZM540.0383 818.3571C574.2183 818.3571 604.9783 802.7371 641.5983 770.9971L681.1483 736.3271L964.8483 1017.0871C954.0983 1021.4871 941.8983 1023.9271 927.7383 1023.9271H150.3883C136.7183 1023.9271 124.9983 1021.9771 114.7483 1017.5771L398.9283 736.3271L438.4783 770.9971C474.6083 802.7371 505.3683 818.3571 540.0383 818.3571Z"/>
</svg>