<?xml version="1.0" encoding="UTF-8" standalone="no"?>
<svg xmlns="http://www.w3.org/2000/svg"
     width="996.09375" height="996.09375"
     viewBox="0 0 996.09375 996.09375"
     fill="currentColor">
  <path d="M498.0477 996.0959C770.5077 996.0959 996.0977 770.0159 996.0977 498.0459C996.0977 225.5859 770.0177 -0.0041 497.5577 -0.0041C225.5877 -0.0041 -0.0023 225.5859 -0.0023 498.0459C-0.0023 770.0159 226.0777 996.0959 498.0477 996.0959ZM308.5977 444.3359C282.2277 444.3359 264.1577 431.6359 264.1577 405.7659C264.1577 379.8859 281.2477 366.6959 308.5977 366.6959H687.0077C713.8677 366.6959 730.9577 379.8859 730.9577 405.7659C730.9577 431.6359 712.8877 444.3359 687.0077 444.3359ZM308.5977 630.3759C282.2277 630.3759 264.1577 617.6759 264.1577 592.2859C264.1577 566.4059 281.2477 552.7359 308.5977 552.7359H687.0077C713.8677 552.7359 730.9577 566.4059 730.9577 592.2859C730.9577 617.6759 712.8877 630.3759 687.0077 630.3759Z"/>
</svg>