<?xml version="1.0" encoding="UTF-8" standalone="no"?>
<svg xmlns="http://www.w3.org/2000/svg"
     width="996.09375" height="996.09375"
     viewBox="0 0 996.09375 996.09375"
     fill="currentColor">
  <path d="M498.0477 996.0959C770.5077 996.0959 996.0977 770.0159 996.0977 498.0459C996.0977 225.5859 770.0177 -0.0041 497.5577 -0.0041C225.5877 -0.0041 -0.0023 225.5859 -0.0023 498.0459C-0.0023 770.0159 226.0777 996.0959 498.0477 996.0959ZM498.0477 913.0859C267.5777 913.0859 83.4977 728.5159 83.4977 498.0459C83.4977 267.5759 267.0877 83.0059 497.5577 83.0059C728.0277 83.0059 913.0877 267.5759 913.0877 498.0459C913.0877 728.5159 728.5177 913.0859 498.0477 913.0859ZM313.4777 445.7959H681.1477C706.0577 445.7959 723.1477 433.5959 723.1477 408.6959C723.1477 383.7859 707.0277 371.0959 681.1477 371.0959H313.4777C287.1077 371.0959 270.9977 383.7859 270.9977 408.6959C270.9977 433.5959 288.0877 445.7959 313.4777 445.7959ZM313.4777 625.9759H681.1477C706.0577 625.9759 723.1477 613.7659 723.1477 589.3559C723.1477 564.4559 707.0277 551.7559 681.1477 551.7559H313.4777C287.1077 551.7559 270.9977 564.4559 270.9977 589.3559C270.9977 613.7659 288.0877 625.9759 313.4777 625.9759Z"/>
</svg>