<?xml version="1.0" encoding="UTF-8" standalone="no"?>
<svg xmlns="http://www.w3.org/2000/svg"
     width="1262.690675497492" height="961.7918032926"
     viewBox="0 0 1262.690675497492 961.7918032926"
     fill="currentColor">
  <path d="M148.4307 405.2747L557.1207 813.9647L930.1707 440.9247C973.6307 397.4647 972.6507 335.9447 928.2207 291.5047L670.8907 33.6947C626.4607 -10.7353 564.9407 -11.2253 521.4807 32.2347ZM57.1207 728.5147L233.3907 905.2747C307.1207 978.0347 389.6407 980.9647 458.9807 911.6247L510.2507 860.8447L101.0707 452.1547L50.2907 502.4447C-19.0493 572.2647 -16.6093 655.2747 57.1207 728.5147ZM524.4107 940.4347H834.9607C856.4407 940.4347 874.0207 922.8547 874.0207 901.3747C874.0207 879.8847 856.4407 861.8247 834.9607 861.8247H603.5107ZM980.4607 940.4347H1223.1407C1244.6207 940.4347 1262.6907 922.8547 1262.6907 901.3747C1262.6907 879.8847 1244.6207 861.8247 1223.1407 861.8247H980.4607C958.9807 861.8247 941.4007 879.8847 941.4007 901.3747C941.4007 922.8547 958.9807 940.4347 980.4607 940.4347Z"/>
</svg>