<?xml version="1.0" encoding="UTF-8" standalone="no"?>
<svg xmlns="http://www.w3.org/2000/svg"
     width="1262.7461018816543" height="974.1929460081449"
     viewBox="0 0 1262.7461018816543 974.1929460081449"
     fill="currentColor">
  <path d="M56.6961 728.765L245.6561 917.245C319.3861 990.485 401.9061 993.415 471.2461 924.085L941.9461 452.885C985.4061 409.925 984.9161 347.905 940.4761 303.475L670.4561 33.945C626.0261 -10.485 564.5061 -11.465 521.0461 31.995L50.3461 502.695C-18.9939 572.515 -16.5539 655.035 56.6961 728.765ZM573.2961 90.585C585.9861 77.885 603.5661 77.885 615.7761 90.095L884.3261 358.655C896.5361 370.855 896.0461 387.945 883.8361 400.155L515.1861 768.805L205.1261 458.745ZM112.3561 673.105C74.7561 635.015 72.8061 591.565 108.4461 555.425L156.2961 507.575L466.3561 817.635L418.5061 865.485C382.8661 901.625 339.4061 899.665 301.3161 861.585ZM524.4661 946.055H835.0161C856.4961 946.055 874.0761 928.475 874.0761 906.995C874.0761 885.505 856.4961 867.445 835.0161 867.445H603.5661ZM980.5161 946.055H1223.6861C1245.1661 946.055 1262.7461 928.475 1262.7461 906.995C1262.7461 885.505 1245.1661 867.445 1223.6861 867.445H980.5161C959.0361 867.445 941.4561 885.505 941.4561 906.995C941.4561 928.475 959.0361 946.055 980.5161 946.055Z"/>
</svg>