<?xml version="1.0" encoding="UTF-8" standalone="no"?>
<svg xmlns="http://www.w3.org/2000/svg"
     width="995.60546875" height="995.6487405750296"
     viewBox="0 0 995.60546875 995.6487405750296"
     fill="currentColor">
  <path d="M497.5577 995.6509C770.0177 995.6509 995.6077 769.5709 995.6077 497.6009C995.6077 225.1409 772.9477 6.3909 509.7677 0.0409C481.4477 -0.9291 459.9577 14.6909 459.9577 39.5909C459.9577 62.0509 475.5877 81.1009 503.9077 82.0709C732.9077 89.4009 912.1077 267.1309 912.5977 497.6009C913.0877 728.0709 728.0277 912.6409 497.5577 912.6409C257.3277 912.6409 83.0077 718.3009 83.0077 496.1409C83.0077 467.8209 62.9877 452.1909 40.5277 452.1909C15.6277 452.1909 -0.0023 473.1909 -0.0023 502.0009C0.4877 768.6009 225.5877 995.6509 497.5577 995.6509ZM461.9177 516.1609C486.8177 516.1609 504.8877 497.6009 504.8877 473.1909C504.8877 461.9609 499.9977 450.2409 491.2077 441.4509L236.3277 187.0509L142.5777 103.5609C196.7777 110.3909 265.1377 109.9109 289.0577 109.9109C311.0377 109.9109 328.6177 91.8409 328.6177 69.8709C328.6177 47.8909 311.0377 30.3209 289.0577 30.3209H69.8277C37.5977 30.3209 20.0177 47.4109 20.0177 79.6309V298.8709C20.0177 320.8409 38.0877 338.4209 59.5677 338.4209C81.0577 338.4209 98.6377 320.8409 98.6377 298.8709C98.6377 275.9209 98.6377 202.6809 93.7477 152.3909L176.2677 246.6209L431.1477 502.0009C440.4277 511.2709 450.6877 516.1609 461.9177 516.1609Z"/>
</svg>