<?xml version="1.0" encoding="UTF-8" standalone="no"?>
<svg xmlns="http://www.w3.org/2000/svg"
     width="905.2734375" height="898.92578125"
     viewBox="0 0 905.2734375 898.92578125"
     fill="currentColor">
  <path d="M-0.0017 747.5595C-0.0017 848.6295 51.2683 898.9295 153.3183 898.9295H184.0783V804.6895C184.0783 787.1095 197.7583 773.4395 215.8183 773.4395C233.8883 773.4395 247.5583 787.1095 247.5583 804.6895V898.9295H342.2883V804.6895C342.2883 787.1095 355.9583 773.4395 374.0283 773.4395C392.0883 773.4395 405.7583 787.1095 405.7583 804.6895V898.9295H500.4883V804.6895C500.4883 787.1095 514.1583 773.4395 532.2283 773.4395C550.2883 773.4395 563.9683 787.1095 563.9683 804.6895V898.9295H658.6883V804.6895C658.6883 787.1095 672.3683 773.4395 690.4283 773.4395C708.4983 773.4395 722.1683 787.1095 722.1683 804.6895V898.9295H751.9483C854.0083 898.9295 905.2783 848.1495 905.2783 747.5595V151.3695C905.2783 50.7795 854.0083 -0.0005 751.9483 -0.0005H722.1683V94.2395C722.1683 111.8195 708.4983 125.4895 690.4283 125.4895C672.3683 125.4895 658.6883 111.8195 658.6883 94.2395V-0.0005H563.9683V94.2395C563.9683 111.8195 550.2883 125.4895 532.2283 125.4895C514.1583 125.4895 500.4883 111.8195 500.4883 94.2395V-0.0005H405.7583V94.2395C405.7583 111.8195 392.0883 125.4895 374.0283 125.4895C355.9583 125.4895 342.2883 111.8195 342.2883 94.2395V-0.0005H247.5583V94.2395C247.5583 111.8195 233.8883 125.4895 215.8183 125.4895C197.7583 125.4895 184.0783 111.8195 184.0783 94.2395V-0.0005H153.3183C51.2683 -0.0005 -0.0017 50.2895 -0.0017 151.3695ZM196.7783 601.5595V297.3595C196.7783 270.0195 215.8183 251.9495 243.1683 251.9495H662.1083C689.9383 251.9495 708.0083 270.0195 708.0083 297.3595V601.5595C708.0083 628.9095 689.9383 646.9695 662.1083 646.9695H243.1683C215.8183 646.9695 196.7783 628.9095 196.7783 601.5595Z"/>
</svg>