<?xml version="1.0" encoding="UTF-8" standalone="no"?>
<svg xmlns="http://www.w3.org/2000/svg"
     width="905.2734375" height="898.92578125"
     viewBox="0 0 905.2734375 898.92578125"
     fill="currentColor">
  <path d="M-0.0017 747.5595C-0.0017 848.6295 51.2683 898.9295 153.3183 898.9295H751.9483C854.0083 898.9295 905.2783 848.1495 905.2783 747.5595V151.3695C905.2783 50.7795 854.0083 -0.0005 751.9483 -0.0005H153.3183C51.2683 -0.0005 -0.0017 50.2895 -0.0017 151.3695ZM78.6183 743.6495V155.2695C78.6183 104.4895 105.4683 78.6095 154.2983 78.6095H200.6883V145.0195C200.6883 161.6195 213.3783 174.8095 229.9783 174.8095C246.5783 174.8095 259.7683 161.6195 259.7683 145.0195V78.6095H349.1183V145.0195C349.1183 161.6195 361.8183 174.8095 378.9083 174.8095C395.5083 174.8095 408.1983 161.6195 408.1983 145.0195V78.6095H498.0483V145.0195C498.0483 161.6195 510.7383 174.8095 527.3483 174.8095C544.4383 174.8095 557.1283 161.6195 557.1283 145.0195V78.6095H646.4883V145.0195C646.4883 161.6195 659.1783 174.8095 676.2683 174.8095C692.8683 174.8095 705.5683 161.6195 705.5683 145.0195V78.6095H750.4883C798.8283 78.6095 826.6583 104.4895 826.6583 155.2695V743.6495C826.6583 794.4295 798.8283 820.3095 750.4883 820.3095H705.5683V753.9095C705.5683 736.8195 692.8683 724.1195 676.2683 724.1195C659.1783 724.1195 646.4883 736.8195 646.4883 753.9095V820.3095H557.1283V753.9095C557.1283 736.8195 544.4383 724.1195 527.3483 724.1195C510.7383 724.1195 498.0483 736.8195 498.0483 753.9095V820.3095H408.1983V753.9095C408.1983 736.8195 395.5083 724.1195 378.9083 724.1195C361.8183 724.1195 349.1183 736.8195 349.1183 753.9095V820.3095H259.7683V753.9095C259.7683 736.8195 246.5783 724.1195 229.9783 724.1195C213.3783 724.1195 200.6883 736.8195 200.6883 753.9095V820.3095H154.2983C105.4683 820.3095 78.6183 794.4295 78.6183 743.6495ZM211.9183 592.7695C211.9183 618.6495 229.0083 635.2495 255.3683 635.2495H649.8983C676.2683 635.2495 693.3583 618.6495 693.3583 592.7695V306.1495C693.3583 280.2695 676.2683 263.6695 649.8983 263.6695H255.3683C229.0083 263.6695 211.9183 280.2695 211.9183 306.1495Z"/>
</svg>