<?xml version="1.0" encoding="UTF-8" standalone="no"?>
<svg xmlns="http://www.w3.org/2000/svg"
     width="996.09375" height="996.09375"
     viewBox="0 0 996.09375 996.09375"
     fill="currentColor">
  <path d="M498.0477 996.0959C770.5077 996.0959 996.0977 770.0159 996.0977 498.0459C996.0977 225.5859 770.0177 -0.0041 497.5577 -0.0041C225.5877 -0.0041 -0.0023 225.5859 -0.0023 498.0459C-0.0023 770.0159 226.0777 996.0959 498.0477 996.0959ZM509.7677 741.6959C405.7577 741.6959 338.8677 673.8259 317.3877 573.7259H269.5277C255.3677 573.7259 245.1177 562.4959 245.1177 548.3359C245.1177 533.6959 255.3677 523.9259 269.5277 523.9259H310.5477C309.5677 515.6259 309.5677 507.8159 309.5677 499.0259C309.5677 489.2559 310.0577 480.4659 311.0377 471.1959H269.5277C255.3677 471.1959 245.1177 459.9559 245.1177 446.2859C245.1177 431.1559 255.3677 421.3859 269.5277 421.3859H318.3577C341.7977 321.2859 411.6177 257.3259 509.7677 257.3259C591.7977 257.3259 661.1377 300.7859 686.0377 368.6559C688.9677 376.9559 690.9177 385.2559 690.9177 394.0459C690.9177 412.5959 678.7077 424.8059 659.6677 424.8059C642.0877 424.8059 633.2977 417.9659 627.4377 398.4359C611.8177 346.6759 563.4777 318.3559 511.7177 318.3559C449.7077 318.3559 407.7177 360.8359 389.1577 421.3859H520.9977C535.1577 421.3859 545.8977 431.1559 545.8977 446.2859C545.8977 459.9559 535.1577 471.1959 520.9977 471.1959H378.9077C378.4177 480.4659 377.4377 489.2559 377.4377 499.0259C377.4377 507.3259 377.9277 515.6259 378.9077 523.9259H520.9977C535.1577 523.9259 545.8977 533.6959 545.8977 548.3359C545.8977 562.4959 535.1577 573.7259 520.9977 573.7259H388.1877C405.7577 636.7159 448.2377 680.6659 511.7177 680.6659C567.3877 680.6659 616.6977 653.3159 630.8577 602.0459C636.2277 584.4759 646.4877 575.1959 663.5777 575.1959C682.1277 575.1959 694.3377 587.8859 694.3377 605.9559C694.3377 615.2359 692.3877 623.5359 689.4577 631.8359C663.0877 705.0759 595.2177 741.6959 509.7677 741.6959Z"/>
</svg>