<?xml version="1.0" encoding="UTF-8" standalone="no"?>
<svg xmlns="http://www.w3.org/2000/svg"
     width="841.30859375" height="891.6015625"
     viewBox="0 0 841.30859375 891.6015625"
     fill="currentColor">
  <path d="M31.2483 565.4298H118.1683C158.6883 768.0698 302.2483 891.5998 498.0483 891.5998C652.8283 891.5998 785.1583 824.7098 833.9883 688.4798C838.8683 675.7798 840.8183 662.5998 840.8183 652.3398C840.8183 626.9498 824.7083 610.3498 799.3183 610.3498C776.8583 610.3498 762.6983 623.0498 752.4383 649.4098C714.3583 756.3498 618.1683 805.1798 498.5383 805.1798C359.3783 805.1798 252.4383 714.8398 215.8183 565.4298H559.0783C577.6383 565.4298 590.8183 551.2698 590.8183 533.6898C590.8183 514.6498 577.6383 501.4598 559.0783 501.4598H204.5883C202.6383 483.3998 201.6583 463.8698 201.6583 444.3398C201.6583 425.7798 202.6383 407.7098 204.5883 390.1398H559.0783C577.6383 390.1398 590.8183 375.9798 590.8183 358.3998C590.8183 339.3598 577.6383 326.1698 559.0783 326.1698H215.3283C251.9483 177.7298 359.3783 86.9098 498.0483 86.9098C617.1883 86.9098 712.8883 150.3898 751.4683 256.8398C761.2283 282.7098 776.3683 295.8998 799.3183 295.8998C824.2183 295.8998 841.3083 278.8098 841.3083 253.4198C841.3083 243.1598 839.3583 229.9798 833.9883 217.2898C787.1083 87.3998 665.5283 -0.0002 498.0483 -0.0002C302.7383 -0.0002 158.1983 124.5098 118.1683 326.1698H31.2483C13.1883 326.1698 -0.0017 339.3598 -0.0017 358.3998C-0.0017 375.9798 13.6683 390.1398 31.2483 390.1398H108.8883C107.4183 407.7098 106.9383 425.7798 106.9383 444.3398C106.9383 463.8698 107.4183 482.9098 109.3783 501.4598H31.2483C13.6683 501.4598 -0.0017 514.6498 -0.0017 533.6898C-0.0017 551.2698 13.1883 565.4298 31.2483 565.4298Z"/>
</svg>