<?xml version="1.0" encoding="UTF-8" standalone="no"?>
<svg xmlns="http://www.w3.org/2000/svg"
     width="996.09375" height="996.09375"
     viewBox="0 0 996.09375 996.09375"
     fill="currentColor">
  <path d="M498.0477 996.0959C770.5077 996.0959 996.0977 770.0159 996.0977 498.0459C996.0977 225.5859 770.0177 -0.0041 497.5577 -0.0041C225.5877 -0.0041 -0.0023 225.5859 -0.0023 498.0459C-0.0023 770.0159 226.0777 996.0959 498.0477 996.0959ZM498.0477 913.0859C267.5777 913.0859 83.4977 728.5159 83.4977 498.0459C83.4977 267.5759 267.0877 83.0059 497.5577 83.0059C728.0277 83.0059 913.0877 267.5759 913.0877 498.0459C913.0877 728.5159 728.5177 913.0859 498.0477 913.0859ZM275.3877 571.2859H321.2877C342.2877 667.9659 407.2277 733.8859 507.8077 733.8859C590.8177 733.8859 656.7377 698.7259 682.1277 627.4459C685.0577 619.6259 687.0077 611.3259 687.0077 602.5359C687.0077 584.9559 674.8077 572.7559 657.2277 572.7559C640.6277 572.7559 630.8577 582.0359 625.4877 598.6359C611.8177 648.4359 563.9677 675.2959 509.7677 675.2959C447.7577 675.2959 406.7377 631.8359 389.1577 571.2859H519.0477C532.7177 571.2859 542.9677 560.5459 542.9677 546.8759C542.9677 532.7159 532.7177 522.9459 519.0477 522.9459H380.3677C379.8877 515.1359 379.3977 506.8359 379.3977 499.0259C379.3977 489.7459 379.8877 480.9559 380.8577 472.1659H519.0477C532.7177 472.1659 542.9677 461.4259 542.9677 448.2459C542.9677 433.5959 532.7177 423.8259 519.0477 423.8259H390.6277C408.6877 365.2359 449.7077 323.7259 509.7677 323.7259C560.0577 323.7259 606.9377 351.5659 622.0677 401.8559C627.9277 420.4059 636.2277 427.2459 653.3177 427.2459C671.8777 427.2459 683.5977 415.5259 683.5977 397.4559C683.5977 389.1559 681.6377 380.8559 678.7077 373.0459C654.7877 307.1259 587.3977 265.1359 507.8077 265.1359C412.5977 265.1359 344.7277 326.6559 322.2677 423.8259H275.3877C261.7177 423.8259 251.4677 433.5959 251.4677 448.2459C251.4677 461.4259 261.7177 472.1659 275.3877 472.1659H314.9377C314.4577 480.9559 313.9677 489.7459 313.9677 499.0259C313.9677 506.8359 314.4577 515.1359 314.9377 522.9459H275.3877C261.7177 522.9459 251.4677 532.7159 251.4677 546.8759C251.4677 560.5459 261.7177 571.2859 275.3877 571.2859Z"/>
</svg>