<?xml version="1.0" encoding="UTF-8" standalone="no"?>
<svg xmlns="http://www.w3.org/2000/svg"
     width="798.828125" height="970.703125"
     viewBox="0 0 798.828125 970.703125"
     fill="currentColor">
  <path d="M399.4097 970.7081C407.2297 970.7081 419.4297 967.7781 431.6397 961.4281C709.4697 815.9181 798.8297 743.1681 798.8297 567.8681V199.7081C798.8297 149.4181 777.3397 133.2981 736.3297 116.2081C679.1997 92.7781 496.5797 26.3681 439.9397 6.8381C426.7597 2.4381 413.0897 -0.0019 399.4097 -0.0019C385.7397 -0.0019 372.0697 2.9281 359.3797 6.8381C302.2497 25.3881 119.6297 93.2581 62.4997 116.2081C21.9697 132.8081 -0.0003 149.4181 -0.0003 199.7081V567.8681C-0.0003 743.1681 94.2397 807.6181 367.1897 961.4281C379.8797 968.2581 391.5997 970.7081 399.4097 970.7081ZM399.4097 558.1081C374.0197 558.1081 360.3497 543.9481 359.8597 518.0681L353.0297 251.9481C352.5397 226.0781 371.5797 207.5181 398.9297 207.5181C425.7797 207.5181 445.7997 226.5581 445.3097 252.4381L438.4797 518.0681C437.9897 544.4381 423.8297 558.1081 399.4097 558.1081ZM399.4097 721.6781C370.1197 721.6781 344.7297 698.2381 344.7297 669.4381C344.7297 640.6281 369.6297 616.6981 399.4097 616.6981C429.1997 616.6981 454.0997 640.1381 454.0997 669.4381C454.0997 698.7281 428.7097 721.6781 399.4097 721.6781Z"/>
</svg>