<?xml version="1.0" encoding="UTF-8" standalone="no"?>
<svg xmlns="http://www.w3.org/2000/svg"
     width="666.50390625" height="958.0078125"
     viewBox="0 0 666.50390625 958.0078125"
     fill="currentColor">
  <path d="M109.8612 958.0083H556.6413C628.4213 958.0083 666.5013 918.9483 666.5013 841.7983V505.3683C666.5013 437.4983 637.2112 399.4183 581.0513 391.1083V272.9483C581.0513 89.3583 460.9413 -0.0017 333.0113 -0.0017C205.5713 -0.0017 85.4513 89.3583 85.4513 272.9483V391.1083C29.7813 399.4183 0.0012 437.4983 0.0012 505.3683V841.7983C0.0012 918.9483 38.0813 958.0083 109.8612 958.0083ZM163.0813 262.2083C163.0813 139.1583 241.7013 73.7283 333.0113 73.7283C424.3213 73.7283 503.9113 139.1583 503.9113 262.2083V389.6483H163.0813ZM333.0113 726.0783C314.4512 726.0783 303.7113 714.8483 303.2213 695.7983L298.3413 530.2783C297.8513 511.2283 312.5013 497.0683 333.0113 497.0683C353.0313 497.0683 368.1613 511.7183 367.6713 530.7583L362.7913 695.7983C362.3013 714.8483 351.5612 726.0783 333.0113 726.0783ZM332.5213 841.3083C311.0313 841.3083 291.9913 823.2383 291.9913 801.2683C291.9913 778.8083 310.5513 760.7383 332.5213 760.7383C355.4713 760.7383 374.5113 778.3183 374.5113 801.2683C374.5113 823.2383 355.4713 841.3083 332.5213 841.3083Z"/>
</svg>