<?xml version="1.0" encoding="UTF-8" standalone="no"?>
<svg xmlns="http://www.w3.org/2000/svg"
     width="1003.41796875" height="965.8203125"
     viewBox="0 0 1003.41796875 965.8203125"
     fill="currentColor">
  <path d="M353.5183 965.8192H649.8983C711.9183 965.8192 741.2083 945.7992 773.4383 911.1292L962.8883 702.1492C994.6283 666.9892 1003.4183 643.0692 1003.4183 594.7292V371.5792C1003.4183 322.7492 994.6283 299.3192 962.8883 264.1592L773.4383 55.1792C741.2083 20.5092 711.9183 -0.0008 649.8983 -0.0008H353.5183C291.5083 -0.0008 261.7183 20.5092 229.9783 55.1792L40.5283 264.1592C8.2983 299.3192 -0.0017 322.7492 -0.0017 371.5792V594.7292C-0.0017 643.0692 8.2983 666.9892 40.5283 702.1492L229.9783 911.1292C261.7183 945.7992 291.5083 965.8192 353.5183 965.8192ZM501.9483 573.7292C476.5583 573.7292 462.3983 559.5692 461.9183 533.6892L455.5683 267.5792C455.0783 241.6992 474.1183 223.1492 501.4683 223.1492C528.3183 223.1492 548.3383 242.1892 547.8483 268.0692L541.0183 533.6892C540.5283 560.0592 526.3683 573.7292 501.9483 573.7292ZM501.9483 737.3092C472.6583 737.3092 447.2683 713.8692 447.2683 685.0592C447.2683 656.2492 472.1683 632.3192 501.9483 632.3192C531.7383 632.3192 556.6383 655.7592 556.6383 685.0592C556.6383 714.3592 531.2483 737.3092 501.9483 737.3092Z"/>
</svg>