<?xml version="1.0" encoding="UTF-8" standalone="no"?>
<svg xmlns="http://www.w3.org/2000/svg"
     width="996.09375" height="996.09375"
     viewBox="0 0 996.09375 996.09375"
     fill="currentColor">
  <path d="M498.0477 996.0959C770.5077 996.0959 996.0977 770.0159 996.0977 498.0459C996.0977 225.5859 770.0177 -0.0041 497.5577 -0.0041C225.5877 -0.0041 -0.0023 225.5859 -0.0023 498.0459C-0.0023 770.0159 226.0777 996.0959 498.0477 996.0959ZM498.0477 588.8659C472.6577 588.8659 458.4977 574.7059 458.0077 548.8259L451.6577 282.7159C451.1677 256.8359 470.2177 238.2859 497.5577 238.2859C524.4177 238.2859 544.4377 257.3259 543.9477 283.2059L537.1077 548.8259C536.6177 575.1959 522.4577 588.8659 498.0477 588.8659ZM498.0477 752.4459C468.7477 752.4459 443.3577 729.0059 443.3577 700.1959C443.3577 671.3859 468.2577 647.4559 498.0477 647.4559C527.8277 647.4559 552.7377 670.8959 552.7377 700.1959C552.7377 729.4959 527.3477 752.4459 498.0477 752.4459Z"/>
</svg>