<?xml version="1.0" encoding="UTF-8" standalone="no"?>
<svg xmlns="http://www.w3.org/2000/svg"
     width="996.09375" height="996.09375"
     viewBox="0 0 996.09375 996.09375"
     fill="currentColor">
  <path d="M498.0477 996.0959C770.5077 996.0959 996.0977 770.0159 996.0977 498.0459C996.0977 225.5859 770.0177 -0.0041 497.5577 -0.0041C225.5877 -0.0041 -0.0023 225.5859 -0.0023 498.0459C-0.0023 770.0159 226.0777 996.0959 498.0477 996.0959ZM498.0477 913.0859C267.5777 913.0859 83.4977 728.5159 83.4977 498.0459C83.4977 267.5759 267.0877 83.0059 497.5577 83.0059C728.0277 83.0059 913.0877 267.5759 913.0877 498.0459C913.0877 728.5159 728.5177 913.0859 498.0477 913.0859ZM375.4877 779.7859C385.2577 779.7859 391.5977 775.3859 402.8277 765.1359L490.2377 686.0359H653.3177C724.1177 686.0359 763.1877 646.4859 763.1877 575.6859V391.6059C763.1877 321.7759 724.1177 281.7359 653.3177 281.7359H342.7777C271.9777 281.7359 232.9077 321.2859 232.9077 391.6059V575.6859C232.9077 646.4859 271.9777 686.0359 342.7777 686.0359H354.4877V755.8559C354.4877 770.5059 362.3077 779.7859 375.4877 779.7859ZM498.0477 529.2959C485.3477 529.2959 478.5177 521.9759 478.0277 509.2759L475.0977 378.4159C474.6077 365.2359 484.3777 354.9759 497.5577 354.9759C511.2277 354.9759 521.4877 365.2359 520.9977 378.4159L517.5777 509.2759C517.5777 521.9759 510.2577 529.2959 498.0477 529.2959ZM498.0477 609.3759C483.3977 609.3759 470.2177 597.6559 470.2177 583.0059C470.2177 568.3559 482.9077 556.1559 498.0477 556.1559C513.1877 556.1559 525.8777 567.8759 525.8777 583.0059C525.8777 597.6559 512.6977 609.3759 498.0477 609.3759Z"/>
</svg>