<?xml version="1.0" encoding="UTF-8" standalone="no"?>
<svg xmlns="http://www.w3.org/2000/svg"
     width="788.57421875" height="930.17578125"
     viewBox="0 0 788.57421875 930.17578125"
     fill="currentColor">
  <path d="M499.9983 663.0814C533.6883 663.0814 549.3183 639.6514 549.3183 608.4014V591.8014C550.2883 527.3414 573.7283 500.4914 651.8583 446.7814C735.3483 390.1414 788.5783 324.7114 788.5783 230.4714C788.5783 83.9814 669.4383 0.0014 521.4883 0.0014C411.1283 0.0014 313.9683 52.2414 272.4583 146.4814C262.2083 169.4314 257.8083 191.8914 257.8083 210.4514C257.8083 238.2814 273.9283 257.8114 303.7083 257.8114C328.6183 257.8114 345.6983 243.1614 352.5383 219.2414C377.9283 126.4614 438.9683 91.3114 518.0683 91.3114C613.2783 91.3114 687.4983 145.0214 687.4983 229.9814C687.4983 299.8014 644.0383 338.8714 581.5383 382.8114C504.8783 436.0314 448.7283 493.1614 448.7283 579.1014V609.8614C448.7283 641.1114 465.8183 663.0814 499.9983 663.0814ZM69.8283 661.1314C95.6983 661.1314 113.2783 644.0414 113.7683 617.6714L118.1683 48.8314C118.1683 20.9914 95.6983 1.9514 69.3383 1.9514C42.9683 1.9514 20.5083 20.9914 20.5083 48.8314L25.8783 617.6714C26.3683 644.0414 43.9483 661.1314 69.8283 661.1314ZM69.3383 930.1714C107.9083 930.1714 138.6683 898.9214 138.6683 860.8414C138.6683 822.2614 107.9083 791.5014 69.3383 791.5014C31.2483 791.5014 -0.0017 822.2614 -0.0017 860.8414C-0.0017 898.9214 31.2483 930.1714 69.3383 930.1714ZM499.9983 930.1714C538.5783 930.1714 569.3383 898.9214 569.3383 860.8414C569.3383 822.2614 538.5783 791.5014 499.9983 791.5014C461.9183 791.5014 430.6683 822.2614 430.6683 860.8414C430.6683 898.9214 461.9183 930.1714 499.9983 930.1714Z"/>
</svg>