<?xml version="1.0" encoding="UTF-8" standalone="no"?>
<svg xmlns="http://www.w3.org/2000/svg"
     width="1076.171875" height="1010.25390625"
     viewBox="0 0 1076.171875 1010.25390625"
     fill="currentColor">
  <path d="M300.2883 1010.2519C324.2183 1010.2519 340.8183 997.5619 370.6083 971.1919L539.0583 821.2919H852.5383C998.0483 821.2919 1076.1683 740.7219 1076.1683 597.6519V223.6319C1076.1683 80.5619 998.0483 0.0019 852.5383 0.0019H223.6283C78.1283 0.0019 -0.0017 80.0819 -0.0017 223.6319V597.6519C-0.0017 741.2119 78.1283 821.2919 223.6283 821.2919H247.0683V948.2419C247.0683 985.8419 266.1183 1010.2519 300.2883 1010.2519ZM320.3083 920.9019V779.2919C320.3083 752.9319 310.0583 742.6719 283.6883 742.6719H223.6283C124.9983 742.6719 78.6183 692.3819 78.6183 597.1719V223.6319C78.6183 128.4219 124.9983 78.6119 223.6283 78.6119H852.5383C950.6883 78.6119 997.5583 128.4219 997.5583 223.6319V597.1719C997.5583 692.3819 950.6883 742.6719 852.5383 742.6719H536.1283C508.7883 742.6719 495.1183 746.5819 476.5583 765.6219ZM538.0883 498.5319C561.5283 498.5319 575.1983 485.3519 575.6883 459.9619L582.5183 202.1519C583.0083 177.7319 563.4783 158.6919 537.5983 158.6919C511.2283 158.6919 492.6783 177.2419 493.1683 201.6619L499.5083 459.9619C499.9983 484.8619 513.6683 498.5319 538.0883 498.5319ZM538.0883 657.2219C566.4083 657.2219 590.8183 635.2519 590.8183 606.4419C590.8183 578.1219 566.8983 556.1519 538.0883 556.1519C509.2783 556.1519 485.3483 578.6119 485.3483 606.4419C485.3483 634.7619 509.7683 657.2219 538.0883 657.2219Z"/>
</svg>