<?xml version="1.0" encoding="UTF-8" standalone="no"?>
<svg xmlns="http://www.w3.org/2000/svg"
     width="1076.171875" height="1013.18359375"
     viewBox="0 0 1076.171875 1013.18359375"
     fill="currentColor">
  <path d="M290.0383 1013.1819C309.0783 1013.1819 323.2383 1003.4219 346.1883 981.9319L522.4583 820.8019H852.5383C998.0483 820.8019 1076.1683 740.7219 1076.1683 597.6519V223.6319C1076.1683 80.5619 998.0483 0.0019 852.5383 0.0019H223.6283C78.1283 0.0019 -0.0017 80.0819 -0.0017 223.6319V597.6519C-0.0017 741.2119 78.1283 820.8019 223.6283 820.8019H246.5783V962.8919C246.5783 993.1619 262.2083 1013.1819 290.0383 1013.1819ZM538.5783 500.9719C513.1883 500.9719 499.0283 486.8119 498.5383 460.9419L492.1883 195.3119C491.6983 169.4319 510.7383 150.3919 538.0883 150.3919C564.9383 150.3919 584.9583 169.9219 584.4683 195.8019L577.1483 460.9419C576.6583 487.3019 562.4983 500.9719 538.5783 500.9719ZM538.5783 664.5519C509.2783 664.5519 483.8883 641.6019 483.8883 612.3019C483.8883 583.4919 508.7883 560.0619 538.5783 560.0619C567.8683 560.0619 592.7783 583.0119 592.7783 612.3019C592.7783 642.0919 567.3783 664.5519 538.5783 664.5519Z"/>
</svg>