<?xml version="1.0" encoding="UTF-8" standalone="no"?>
<svg xmlns="http://www.w3.org/2000/svg"
     width="1003.41796875" height="965.8203125"
     viewBox="0 0 1003.41796875 965.8203125"
     fill="currentColor">
  <path d="M353.5183 965.8192H649.8983C711.9183 965.8192 741.2083 945.7992 773.4383 911.1292L962.8883 702.1492C994.6283 666.9892 1003.4183 643.0692 1003.4183 594.7292V371.5792C1003.4183 322.7492 994.6283 299.3192 962.8883 264.1592L773.4383 55.1792C741.2083 20.5092 711.9183 -0.0008 649.8983 -0.0008H353.5183C291.5083 -0.0008 261.7183 20.5092 229.9783 55.1792L40.5283 264.1592C8.2983 299.3192 -0.0017 322.7492 -0.0017 371.5792V594.7292C-0.0017 643.0692 8.2983 666.9892 40.5283 702.1492L229.9783 911.1292C261.7183 945.7992 291.5083 965.8192 353.5183 965.8192ZM379.8783 887.6992C331.0583 887.6992 316.8983 876.9492 290.0383 847.6592L113.7683 654.7892C94.7283 633.2992 90.3283 621.0892 90.3283 585.4492V380.8592C90.3283 345.2192 94.7283 333.0092 113.7683 311.5192L290.0383 118.6492C316.8983 88.8692 331.0583 78.6092 379.8783 78.6092H623.5383C672.3683 78.6092 686.0383 88.8692 713.3783 118.6492L889.1583 311.5192C908.6883 333.0092 913.0883 345.2192 913.0883 380.8592V585.4492C913.0883 621.0892 908.6883 633.2992 889.1583 654.7892L713.3783 847.6592C686.0383 876.9492 672.3683 887.6992 623.5383 887.6992ZM501.4683 570.7992C524.8983 570.7992 538.5783 557.6192 539.0583 532.2292L545.8983 274.4092C546.3883 249.5092 526.8583 230.9592 500.9783 230.9592C474.6083 230.9592 456.0583 249.0192 456.5383 273.9292L463.3783 532.2292C463.8683 557.1292 477.5383 570.7992 501.4683 570.7992ZM501.4683 729.4892C529.7883 729.4892 554.1983 707.0292 554.1983 678.7092C554.1983 650.3892 530.2783 627.9292 501.4683 627.9292C473.1483 627.9292 449.2183 650.8792 449.2183 678.7092C449.2183 706.5392 473.6283 729.4892 501.4683 729.4892Z"/>
</svg>