<?xml version="1.0" encoding="UTF-8" standalone="no"?>
<svg xmlns="http://www.w3.org/2000/svg"
     width="1003.41796875" height="1080.078125"
     viewBox="0 0 1003.41796875 1080.078125"
     fill="currentColor">
  <path d="M172.8483 327.1455H830.5683C871.5783 327.1455 909.6683 336.4255 941.4083 352.5355L837.3983 101.5655C810.5483 35.1555 752.9283 -0.0045 677.7383 -0.0045H325.6883C249.9983 -0.0045 192.8683 35.1555 166.0183 101.5655L61.5283 352.5355C93.7483 336.4255 131.8383 327.1455 172.8483 327.1455ZM95.6983 1008.3055H398.4383C414.0583 1049.8055 454.5883 1080.0755 501.4683 1080.0755C548.3383 1080.0755 588.8683 1049.8055 604.9783 1008.3055H907.7183C929.1983 1008.3055 946.7783 990.7255 946.7783 969.2355C946.7783 947.2655 929.1983 929.6855 907.7183 929.6855H604.4883C593.2583 900.8755 569.8283 877.9255 541.0183 866.6955V730.4655H830.5683C933.1083 730.4655 1003.4183 660.6455 1003.4183 559.0855C1003.4183 457.5155 933.1083 386.7155 830.5683 386.7155H172.8483C70.3083 386.7155 -0.0017 457.5155 -0.0017 559.0855C-0.0017 660.6455 70.3083 730.4655 172.8483 730.4655H462.3983V866.6955C433.5983 877.9255 410.1583 900.8755 398.9283 929.6855H95.6983C74.2183 929.6855 56.6383 947.2655 56.6383 969.2355C56.6383 990.7255 74.2183 1008.3055 95.6983 1008.3055ZM767.5783 559.0855C767.5783 529.2955 793.4583 502.9255 823.7283 502.9255C854.0083 502.9255 880.3683 529.2955 880.3683 559.0855C880.3683 590.3355 854.0083 614.7455 823.7283 615.2355C793.4583 615.2355 767.5783 590.8155 767.5783 559.0855Z"/>
</svg>