<?xml version="1.0" encoding="UTF-8" standalone="no"?>
<svg xmlns="http://www.w3.org/2000/svg"
     width="1035.15625" height="1086.9140625"
     viewBox="0 0 1035.15625 1086.9140625"
     fill="currentColor">
  <path d="M103.0283 1015.1414H405.7583C421.8783 1056.6414 462.3983 1086.9114 509.2783 1086.9114C556.1483 1086.9114 596.6783 1056.6414 612.3083 1015.1414H915.0383C936.5283 1015.1414 954.5883 997.5614 954.5883 976.0714C954.5883 954.1014 936.5283 936.5214 915.0383 936.5214H611.8183C600.5883 907.7114 577.1483 884.7614 548.3383 873.5314V750.9814H824.2183C945.7983 750.9814 1035.1583 665.5314 1035.1583 550.2914C1035.1583 517.5814 1025.8783 487.3014 1014.6483 459.4714L867.6783 107.9114C838.8683 38.0814 779.7883 0.0014 698.2383 0.0014H336.9183C255.8583 0.0014 196.2883 38.0814 166.9883 107.9114L20.5083 459.4714C8.7883 488.2814 -0.0017 518.0614 -0.0017 550.2914C-0.0017 665.5314 89.3583 750.9814 210.9383 750.9814H469.7283V873.5314C440.9183 884.7614 417.9683 907.7114 406.2483 936.5214H103.0283C81.5383 936.5214 63.9683 954.1014 63.9683 976.0714C63.9683 997.5614 81.5383 1015.1414 103.0283 1015.1414ZM151.3683 359.3714L242.6783 128.9014C258.2983 89.3514 291.9883 68.8514 340.8183 68.8514H694.8283C743.6483 68.8514 777.3483 89.3514 792.9683 128.9014L884.2783 359.3714C865.2383 353.0314 845.2183 350.1014 824.2183 350.1014H210.9383C189.9383 350.1014 169.9183 353.0314 151.3683 359.3714ZM77.6383 550.2914C77.6383 478.5114 132.3283 427.7314 210.9383 427.7314H824.2183C902.8283 427.7314 957.5183 478.5114 957.5183 550.2914C957.5183 626.9514 907.7183 672.8514 824.2183 672.8514H210.9383C132.3283 672.8514 77.6383 622.0714 77.6383 550.2914ZM765.6283 550.2914C765.6283 582.5214 791.5083 608.4014 823.7283 608.4014C854.9783 607.9114 881.3483 582.0314 881.3483 550.2914C881.3483 519.5314 854.4883 492.6714 823.7283 492.6714C792.4783 492.6714 765.6283 519.5314 765.6283 550.2914Z"/>
</svg>