<?xml version="1.0" encoding="UTF-8" standalone="no"?>
<svg xmlns="http://www.w3.org/2000/svg"
     width="1334.47265625" height="891.8485627524979"
     viewBox="0 0 1334.47265625 891.8485627524979"
     fill="currentColor">
  <path d="M1047.3606 880.1262C1062.0106 895.2662 1085.4506 896.2362 1100.5906 880.1262C1116.7006 864.0162 1115.2306 842.0362 1100.5906 826.9062L284.1806 10.9862C269.5306 -3.6638 245.6006 -3.6638 230.4706 10.9862C216.3106 25.1462 216.3106 50.0462 230.4706 64.2062ZM667.4806 38.8162C582.5206 38.8162 505.3706 53.4662 433.5906 77.3962L498.0506 141.3562C551.7606 125.2462 606.9306 115.9662 667.4806 115.9662C988.7706 115.9662 1249.0206 399.1662 1249.0206 457.2762C1249.0206 496.8262 1163.5706 603.2762 1028.3206 686.2762L1088.3806 746.3362C1242.6806 646.2362 1334.4706 514.8962 1334.4706 457.2762C1334.4706 357.1762 1062.0106 38.8162 667.4806 38.8162ZM667.4806 875.7362C758.3006 875.7362 841.3106 859.6162 916.9906 833.7362L853.0306 769.7762C794.9206 787.8462 733.4006 798.5862 667.4806 798.5862C345.7006 798.5862 85.4506 526.1262 85.4506 457.2762C85.4506 423.0962 175.7806 309.3262 319.8206 222.8962L259.2806 162.3562C96.6806 262.9362 0.0006 398.1962 0.0006 457.2762C0.0006 556.8862 277.8306 875.7362 667.4806 875.7362ZM917.9706 564.2062C933.1006 531.4962 941.4106 494.8762 941.4106 457.2762C941.4106 304.4462 819.3406 183.8362 667.4806 183.8362C628.9106 183.8362 592.7706 192.1362 560.0606 206.2962ZM667.4806 730.7162C710.4506 730.7162 750.9806 719.9662 787.1106 702.3962L420.9006 336.1862C402.8306 372.3162 392.5806 413.3262 392.5806 457.2762C393.0706 606.1962 514.6506 730.7162 667.4806 730.7162Z"/>
</svg>