<?xml version="1.0" encoding="UTF-8" standalone="no"?>
<svg xmlns="http://www.w3.org/2000/svg"
     width="1323.73046875" height="830.078125"
     viewBox="0 0 1323.73046875 830.078125"
     fill="currentColor">
  <path d="M662.1095 830.0798C1053.2195 830.0798 1323.7295 513.6698 1323.7295 415.0398C1323.7295 315.9198 1052.7295 -0.0002 662.1095 -0.0002C275.8795 -0.0002 -0.0005 315.9198 -0.0005 415.0398C-0.0005 513.6698 275.8795 830.0798 662.1095 830.0798ZM662.1095 687.0098C509.7695 687.0098 389.1595 563.4798 388.6695 415.0398C388.1795 262.6998 509.7695 143.0698 662.1095 143.0698C812.9895 143.0698 935.0595 262.6998 935.0595 415.0398C935.0595 563.4798 812.9895 687.0098 662.1095 687.0098ZM662.1095 513.1798C716.3095 513.1798 761.2295 468.7498 761.2295 415.0398C761.2295 360.8398 716.3095 316.4098 662.1095 316.4098C607.4195 316.4098 562.4995 360.8398 562.4995 415.0398C562.4995 468.7498 607.4195 513.1798 662.1095 513.1798Z"/>
</svg>