<?xml version="1.0" encoding="UTF-8" standalone="no"?>
<svg xmlns="http://www.w3.org/2000/svg"
     width="996.09375" height="996.09375"
     viewBox="0 0 996.09375 996.09375"
     fill="currentColor">
  <path d="M498.0477 996.0959C770.5077 996.0959 996.0977 770.0159 996.0977 498.0459C996.0977 225.5859 770.0177 -0.0041 497.5577 -0.0041C225.5877 -0.0041 -0.0023 225.5859 -0.0023 498.0459C-0.0023 770.0159 226.0777 996.0959 498.0477 996.0959ZM498.0477 913.0859C267.5777 913.0859 83.4977 728.5159 83.4977 498.0459C83.4977 267.5759 267.0877 83.0059 497.5577 83.0059C728.0277 83.0059 913.0877 267.5759 913.0877 498.0459C913.0877 728.5159 728.5177 913.0859 498.0477 913.0859ZM497.5577 704.5859C691.4077 704.5859 826.1677 547.3659 826.1677 498.5359C826.1677 449.2159 690.9177 291.9959 497.5577 291.9959C304.1977 291.9959 168.4577 449.2159 168.4577 498.5359C168.4577 547.3659 305.6677 704.5859 497.5577 704.5859ZM497.5577 633.2959C422.3677 633.2959 362.3077 571.7759 362.3077 498.5359C361.8177 422.8559 422.3677 363.2859 497.5577 363.2859C572.2677 363.2859 632.8077 422.8559 632.8077 498.5359C632.8077 571.7759 572.2677 633.2959 497.5577 633.2959ZM498.0477 557.6159C529.7877 557.6159 557.1277 529.7859 557.1277 498.5359C557.1277 466.7959 529.7877 438.9659 498.0477 438.9659C465.8177 438.9659 437.9877 466.7959 437.9877 498.5359C437.9877 529.7859 465.8177 557.6159 498.0477 557.6159Z"/>
</svg>