<?xml version="1.0" encoding="UTF-8" standalone="no"?>
<svg xmlns="http://www.w3.org/2000/svg"
     width="898.92578125" height="898.92578125"
     viewBox="0 0 898.92578125 898.92578125"
     fill="currentColor">
  <path d="M153.3183 898.9295H745.6083C848.1483 898.9295 898.9283 848.1495 898.9283 747.5595V151.3695C898.9283 50.7795 848.1483 -0.0005 745.6083 -0.0005H153.3183C51.2683 -0.0005 -0.0017 50.2895 -0.0017 151.3695V747.5595C-0.0017 848.6295 51.2683 898.9295 153.3183 898.9295ZM449.7083 655.2695C257.8083 655.2695 120.6083 498.0495 120.6083 449.2195C120.6083 399.8995 256.3483 242.6795 449.7083 242.6795C643.0683 242.6795 778.3183 399.8995 778.3183 449.2195C778.3183 498.0495 643.5583 655.2695 449.7083 655.2695ZM449.7083 583.9795C524.4183 583.9795 584.9583 522.4595 584.9583 449.2195C584.9583 373.5395 524.4183 313.9695 449.7083 313.9695C374.5083 313.9695 313.9683 373.5395 314.4483 449.2195C314.4483 522.4595 374.5083 583.9795 449.7083 583.9795ZM450.6883 508.2995C417.9683 508.2995 390.1383 480.4695 390.1383 449.2195C390.1383 417.4795 417.9683 389.6495 450.6883 389.6495C481.9383 389.6495 509.2783 417.4795 509.2783 449.2195C509.2783 480.4695 481.9383 508.2995 450.6883 508.2995Z"/>
</svg>