<?xml version="1.0" encoding="UTF-8" standalone="no"?>
<svg xmlns="http://www.w3.org/2000/svg"
     width="1010.0747572837927" height="864.4429275433818"
     viewBox="0 0 1010.0747572837927 864.4429275433818"
     fill="currentColor">
  <path d="M103.5706 398.9228C195.8506 398.9228 506.8906 175.2928 658.2606 175.2928C711.4806 175.2928 758.3506 196.7728 807.6706 241.7028L930.2306 354.4928C970.7606 391.6028 1028.3706 347.6528 1004.4506 306.1528C982.9606 270.9928 950.2506 222.1728 877.9806 142.0928C799.8606 55.1728 728.5706 0.0028 616.7506 0.0028C471.7306 0.0028 251.0306 83.9828 45.9506 192.8728C-41.4494 239.2528 5.9106 398.9228 103.5706 398.9228ZM905.8106 600.5828C945.3606 558.1028 886.7706 498.5328 840.8706 543.9428C776.4206 607.9128 666.5606 647.4628 545.4606 647.4628C412.6506 647.4628 286.1906 616.7028 165.0906 550.7828C109.9206 520.5028 68.9006 599.1228 126.0306 629.3928C153.8606 644.0428 181.6906 657.2228 210.0106 668.4528C197.8106 690.9228 176.8106 724.6128 163.1406 738.7728C128.9606 774.4128 178.7606 818.3628 212.9406 781.2528C238.3306 753.4228 259.8206 712.8928 271.5406 690.9228C307.1806 702.6328 343.8006 711.9128 380.4206 718.7528C371.1506 756.3428 359.9206 793.9428 352.5906 810.5428C332.5706 856.4428 394.5806 880.3728 414.1106 833.4928C427.3006 800.7828 437.0606 755.3728 441.9506 728.0228C476.1306 732.4228 510.7906 734.3728 545.4606 734.3728C551.8106 734.3728 558.1606 733.8828 564.5106 733.8828C567.4406 771.4828 565.4806 809.5728 564.5106 826.6628C562.0606 876.4628 628.9606 877.4428 629.9406 827.1528C630.9106 795.9028 628.4706 757.3228 626.0306 729.4928C666.0706 724.1228 703.6706 715.8228 739.3106 703.6128C755.4206 744.6328 761.2806 783.2028 765.1906 800.7828C773.9806 850.0928 839.4106 828.1228 828.6706 784.6728C819.8806 747.0728 809.1306 708.9828 796.9306 679.6828C839.4106 658.6928 876.0306 632.3228 905.8106 600.5828Z"/>
</svg>