<?xml version="1.0" encoding="UTF-8" standalone="no"?>
<svg xmlns="http://www.w3.org/2000/svg"
     width="1019.1552802702374" height="1012.5734185002369"
     viewBox="0 0 1019.1552802702374 1012.5734185002369"
     fill="currentColor">
  <path d="M765.6253 512.0861L779.2953 496.9461C803.2253 472.0461 804.6853 442.7461 778.8053 417.3561L764.1553 403.1961C838.8653 336.3061 921.8753 327.0261 973.1453 274.7761C1045.8953 201.5361 1022.4653 98.9961 971.1953 47.7261C920.4053 -4.0239 818.8453 -26.0039 744.1453 45.7761C691.4053 96.5561 682.6153 180.0561 615.7253 254.7561L601.5653 240.1161C576.6553 214.7261 546.8753 215.6961 521.9753 239.6261L507.3253 253.2961C477.0553 282.1061 482.9053 307.4961 508.3053 333.3761L529.2953 353.8861L160.1553 723.0261C9.2753 873.9061 82.0353 850.4661 -0.0047 966.1861L43.9453 1012.5761C155.7653 931.0261 140.6253 1011.1061 293.9453 858.2761L664.5553 489.6261L685.5453 510.6161C711.4253 536.4961 737.3053 541.8661 765.6253 512.0861ZM522.4653 498.4161C504.3953 478.8861 508.3053 461.3061 527.8353 441.2861L571.2853 396.3661L624.0253 449.0961L579.1053 494.0161C561.5253 511.1061 539.5553 516.4761 522.4653 498.4161Z"/>
</svg>