<?xml version="1.0" encoding="UTF-8" standalone="no"?>
<svg xmlns="http://www.w3.org/2000/svg"
     width="1540.52734375" height="609.375"
     viewBox="0 0 1540.52734375 609.375"
     fill="currentColor">
  <path d="M398.9277 609.3766C564.9377 609.3766 699.7077 476.5666 703.1277 310.5466C723.6377 303.2266 747.5577 299.3166 770.5077 299.3166C792.9677 299.3166 816.8977 303.2266 837.3977 310.5466C840.8177 476.5666 976.0777 609.3766 1142.5777 609.3766C1298.8277 609.3766 1428.2277 490.7266 1445.3077 338.3766H1504.3977C1528.3177 338.3766 1540.5277 325.6866 1540.5277 301.2666V281.2466C1540.5277 256.8366 1528.3177 244.6266 1504.3977 244.6266H1440.9177C1413.0877 105.4666 1289.5477 -0.0034 1142.5777 -0.0034C1000.4877 -0.0034 881.3477 97.1666 847.1677 228.0266C822.2677 219.2366 793.4577 215.8166 770.5077 215.8166C747.5577 215.8166 718.2577 219.2366 693.3577 228.0266C659.6677 97.1666 540.5277 -0.0034 398.9277 -0.0034C250.9777 -0.0034 127.4377 105.4666 99.6077 244.6266H36.6177C12.6977 244.6266 -0.0023 256.8366 -0.0023 281.2466V301.2666C-0.0023 325.6866 12.6977 338.3766 36.6177 338.3766H95.7077C112.3077 490.7266 241.6977 609.3766 398.9277 609.3766ZM398.9277 526.8566C275.8777 526.8566 176.2677 427.7366 176.2677 304.6866C176.2677 182.1266 275.8777 82.5166 398.9277 82.5166C520.9977 82.5166 620.6077 182.6166 620.6077 304.6866C620.6077 427.2466 520.9977 526.8566 398.9277 526.8566ZM1142.5777 526.8566C1020.0177 526.8566 919.9177 427.2466 919.9177 304.6866C919.9177 182.6166 1020.0177 82.5166 1142.5777 82.5166C1265.1377 82.5166 1364.2577 182.1266 1364.2577 304.6866C1364.2577 427.7366 1265.1377 526.8566 1142.5777 526.8566Z"/>
</svg>