<?xml version="1.0" encoding="UTF-8" standalone="no"?>
<svg xmlns="http://www.w3.org/2000/svg"
     width="1141.6015625" height="890.13671875"
     viewBox="0 0 1141.6015625 890.13671875"
     fill="currentColor">
  <path d="M267.5777 890.1333C416.0177 890.1333 534.6677 709.4733 534.6677 444.8233C534.6677 179.6833 416.0177 0.0033 267.5777 0.0033C118.6477 0.0033 -0.0023 179.6833 -0.0023 444.8233C-0.0023 709.4733 118.6477 890.1333 267.5777 890.1333ZM874.0277 890.1333C1022.9477 890.1333 1141.5977 709.4733 1141.5977 444.8233C1141.5977 179.6833 1022.9477 0.0033 874.0277 0.0033C725.5877 0.0033 606.9377 179.6833 606.9377 444.8233C606.9377 709.4733 725.5877 890.1333 874.0277 890.1333ZM162.1077 617.1833C243.6477 617.1833 297.8477 560.5433 297.8477 474.6133C297.8477 390.1333 243.6477 333.0033 162.1077 333.0033C126.9577 333.0033 97.1677 343.2633 74.7077 361.8133C93.7477 185.5433 174.3177 69.8233 267.5777 68.8433C375.4877 68.3633 465.8177 221.1933 465.8177 444.8233C465.8177 666.9933 375.4877 820.3133 267.5777 821.2933C187.0077 821.2933 115.7277 734.8633 85.4477 596.1933C106.4477 609.8633 132.3277 617.1833 162.1077 617.1833ZM768.0677 617.1833C849.6077 617.1833 904.7877 560.5433 904.7877 474.6133C904.7877 390.1333 849.6077 333.0033 768.0677 333.0033C733.3977 333.0033 703.1277 343.2633 680.1777 361.8133C699.7077 185.5433 780.2777 69.8233 874.0277 69.3333C980.9577 69.3333 1071.7777 222.1633 1071.7777 444.8233C1071.7777 667.4833 980.9577 820.3133 874.0277 820.8033C792.9677 820.8033 721.6777 733.8833 691.4077 596.1933C712.3977 609.3733 738.7677 617.1833 768.0677 617.1833ZM123.5377 458.0033C105.9577 455.5633 95.2177 434.5733 99.1177 413.0833C103.5177 392.0933 120.1177 376.4633 136.7177 379.8833C154.2977 383.3033 165.0377 403.3233 160.6477 424.3133C156.7377 445.8033 140.6277 460.9333 123.5377 458.0033ZM729.4877 458.0033C712.3977 455.0733 701.1677 434.5733 705.5677 413.0833C709.9577 392.0933 726.0777 376.4633 743.1677 379.8833C760.7377 382.8133 770.9977 403.3233 766.5977 424.3133C762.6977 445.8033 746.5777 460.9333 729.4877 458.0033Z"/>
</svg>