<?xml version="1.0" encoding="UTF-8" standalone="no"?>
<svg xmlns="http://www.w3.org/2000/svg"
     width="996.09375" height="996.09375"
     viewBox="0 0 996.09375 996.09375"
     fill="currentColor">
  <path d="M498.0477 996.0959C770.5077 996.0959 996.0977 770.0159 996.0977 498.0459C996.0977 225.5859 770.0177 -0.0041 497.5577 -0.0041C225.5877 -0.0041 -0.0023 225.5859 -0.0023 498.0459C-0.0023 770.0159 226.0777 996.0959 498.0477 996.0959ZM498.0477 913.0859C267.5777 913.0859 83.4977 728.5159 83.4977 498.0459C83.4977 267.5759 267.0877 83.0059 497.5577 83.0059C728.0277 83.0059 913.0877 267.5759 913.0877 498.0459C913.0877 728.5159 728.5177 913.0859 498.0477 913.0859ZM390.1377 721.6759C415.5277 721.6759 429.1977 704.5859 429.1977 677.7359V526.3659H605.4677C624.5077 526.3659 638.1877 516.1159 638.1877 496.5859C638.1877 476.5659 624.5077 465.3359 605.4677 465.3359H429.1977V334.9559H624.5077C643.5577 334.9559 657.2277 322.2659 657.2277 302.7359C657.2277 282.7159 643.5577 270.9959 624.5077 270.9959H389.6477C364.7477 270.9959 351.5577 288.5759 351.5577 314.9459V677.7359C351.5577 703.6159 364.7477 721.6759 390.1377 721.6759Z"/>
</svg>