<?xml version="1.0" encoding="UTF-8" standalone="no"?>
<svg xmlns="http://www.w3.org/2000/svg"
     width="614.2578125" height="841.796875"
     viewBox="0 0 614.2578125 841.796875"
     fill="currentColor">
  <path d="M113.7683 841.7953C224.6083 841.7953 297.8483 778.3253 315.4283 650.8753L346.1883 426.2653H564.4483C587.8883 426.2653 604.4883 410.1553 604.4883 387.6953C604.4883 365.2353 587.3983 348.6353 563.9683 348.6353H356.9383L376.9483 205.0753C389.1583 115.2353 427.2483 77.6353 494.1383 77.6353C543.4583 77.6353 558.5983 83.9853 578.6183 83.9853C599.6083 83.9853 614.2583 70.8053 614.2583 47.8553C614.2583 10.2553 557.1283 -0.0047 500.4883 -0.0047C389.6483 -0.0047 316.4083 63.4753 298.8283 190.9153L277.3483 348.6353H88.3783C64.9383 348.6353 48.3383 364.7453 48.3383 387.6953C48.3383 410.1553 65.4283 426.2653 88.8683 426.2653H266.5983L237.7883 637.2053C225.5883 727.0553 187.0083 764.1553 120.1183 764.1553C71.2883 764.1553 56.6383 757.8153 36.1283 757.8153C14.6483 757.8153 -0.0017 770.9953 -0.0017 793.9453C-0.0017 832.0353 57.1283 841.7953 113.7683 841.7953Z"/>
</svg>