<?xml version="1.0" encoding="UTF-8" standalone="no"?>
<svg xmlns="http://www.w3.org/2000/svg"
     width="996.09375" height="996.09375"
     viewBox="0 0 996.09375 996.09375"
     fill="currentColor">
  <path d="M498.0477 996.0959C770.5077 996.0959 996.0977 770.0159 996.0977 498.0459C996.0977 225.5859 770.0177 -0.0041 497.5577 -0.0041C225.5877 -0.0041 -0.0023 225.5859 -0.0023 498.0459C-0.0023 770.0159 226.0777 996.0959 498.0477 996.0959ZM287.1077 741.6959C287.1077 721.1959 300.7777 707.0359 320.7977 707.0359C336.9177 707.0359 346.1877 710.9359 376.4677 710.9359C415.5277 710.9359 435.5477 689.4559 442.3877 637.2059L459.9577 511.7159H355.9577C334.9577 511.7159 318.8477 496.5859 318.8477 476.5659C318.8477 455.0759 334.9577 439.9459 355.4677 439.9459H470.2177L483.3977 345.7059C494.6277 259.2759 544.9177 211.9159 624.9977 211.9159C679.6877 211.9159 709.9577 226.0759 709.9577 253.9059C709.9577 273.9259 696.2877 287.5959 676.2677 287.5959C661.6177 287.5959 651.8577 284.1759 620.6077 284.1759C582.0277 284.1759 562.0077 305.6659 555.1777 358.3959L543.9477 439.9459H666.0177C687.9877 439.9459 704.0977 455.0759 704.0977 476.5659C704.0977 496.5859 688.4777 511.7159 666.5077 511.7159H533.2077L514.1577 649.4159C502.4377 736.8159 452.1477 783.6959 372.0677 783.6959C316.4077 783.6959 287.1077 769.5359 287.1077 741.6959Z"/>
</svg>