<?xml version="1.0" encoding="UTF-8" standalone="no"?>
<svg xmlns="http://www.w3.org/2000/svg"
     width="898.92578125" height="898.92578125"
     viewBox="0 0 898.92578125 898.92578125"
     fill="currentColor">
  <path d="M153.3183 898.9295H745.6083C848.1483 898.9295 898.9283 848.1495 898.9283 747.5595V151.3695C898.9283 50.7795 848.1483 -0.0005 745.6083 -0.0005H153.3183C51.2683 -0.0005 -0.0017 50.2895 -0.0017 151.3695V747.5595C-0.0017 848.6295 51.2683 898.9295 153.3183 898.9295ZM154.2983 820.3095C105.4683 820.3095 78.6183 794.4295 78.6183 743.6495V155.2695C78.6183 104.4895 105.4683 78.6095 154.2983 78.6095H744.6283C792.9683 78.6095 820.3083 104.4895 820.3083 155.2695V743.6495C820.3083 794.4295 792.9683 820.3095 744.6283 820.3095ZM342.2883 672.3595C367.6783 672.3595 381.8383 655.2695 381.8383 628.4195V477.0495H557.6183C576.6583 477.0495 590.3283 466.7995 590.3283 447.2695C590.3283 427.2495 576.6583 416.0195 557.6183 416.0195H381.8383V285.6395H576.6583C595.6983 285.6395 609.3783 272.9495 609.3783 253.4195C609.3783 233.3995 595.6983 221.6795 576.6583 221.6795H341.7983C316.8983 221.6795 303.7083 239.2595 303.7083 265.6295V628.4195C303.7083 654.2995 316.8983 672.3595 342.2883 672.3595Z"/>
</svg>