<?xml version="1.0" encoding="UTF-8" standalone="no"?>
<svg xmlns="http://www.w3.org/2000/svg"
     width="996.09375" height="996.09375"
     viewBox="0 0 996.09375 996.09375"
     fill="currentColor">
  <path d="M498.0477 996.0959C770.5077 996.0959 996.0977 770.0159 996.0977 498.0459C996.0977 225.5859 770.0177 -0.0041 497.5577 -0.0041C225.5877 -0.0041 -0.0023 225.5859 -0.0023 498.0459C-0.0023 770.0159 226.0777 996.0959 498.0477 996.0959ZM498.0477 913.0859C267.5777 913.0859 83.4977 728.5159 83.4977 498.0459C83.4977 267.5759 267.0877 83.0059 497.5577 83.0059C728.0277 83.0059 913.0877 267.5759 913.0877 498.0459C913.0877 728.5159 728.5177 913.0859 498.0477 913.0859ZM353.0277 454.5859C383.7877 454.5859 411.1377 426.7559 411.1377 387.6959C411.1377 348.1459 384.2777 320.3159 353.0277 320.3159C322.2677 320.3159 295.4077 348.1459 295.4077 387.6959C295.4077 426.7559 322.2677 454.5859 353.0277 454.5859ZM642.5777 454.5859C673.3377 454.5859 700.6877 426.7559 700.6877 387.6959C700.6877 348.1459 673.8277 320.3159 642.5777 320.3159C611.8177 320.3159 584.9577 348.1459 584.9577 387.6959C584.9577 426.7559 611.8177 454.5859 642.5777 454.5859ZM497.5577 742.6759C599.6077 742.6759 667.9677 674.8059 667.9677 642.5759C667.9677 630.8559 656.7377 625.4859 646.4877 630.3759C610.8377 649.9059 568.3577 671.8759 497.5577 671.8759C426.7577 671.8759 384.2777 649.4159 349.1177 630.3759C338.3777 625.4859 327.1477 630.8559 327.1477 642.5759C327.1477 674.8059 395.5077 742.6759 497.5577 742.6759Z"/>
</svg>