<?xml version="1.0" encoding="UTF-8" standalone="no"?>
<svg xmlns="http://www.w3.org/2000/svg"
     width="1492.67578125" height="749.0234375"
     viewBox="0 0 1492.67578125 749.0234375"
     fill="currentColor">
  <path d="M-0.0023 320.7991C-0.0023 478.0291 114.2577 587.8891 285.6477 587.8891H290.5277C363.2777 687.4991 532.2277 749.0191 746.5777 749.0191C960.4477 749.0191 1129.3977 687.4991 1202.1477 587.8891H1207.5177C1378.4177 587.8891 1492.6777 478.0291 1492.6777 320.7991C1492.6777 217.2891 1434.5677 154.7891 1333.0077 154.7891H1225.5877C1175.2977 54.1991 1009.7677 -0.0009 746.5777 -0.0009C482.9077 -0.0009 317.3877 54.1991 267.0877 154.7891H159.6677C58.5977 154.7891 -0.0023 217.2891 -0.0023 320.7991ZM481.9377 269.5291C481.9377 247.5591 499.9977 228.9991 522.4577 228.9991H970.7077C993.6477 228.9991 1011.7177 247.5591 1011.7177 269.5291C1011.7177 291.9891 993.6477 310.5491 970.7077 310.5491H522.4577C499.9977 310.5491 481.9377 291.9891 481.9377 269.5291ZM1242.1877 470.6991V233.3991H1333.0077C1385.2577 233.3991 1414.0577 266.5991 1414.0577 320.7991C1414.0577 422.8491 1344.2377 498.5391 1238.2777 508.2991C1240.7277 496.0891 1242.1877 483.3991 1242.1877 470.6991ZM78.6177 320.7991C78.6177 266.5991 107.4177 233.3991 159.6677 233.3991H250.4877V470.6991C250.4877 483.3991 251.9577 496.0891 254.3977 508.2991C148.4377 498.5391 78.6177 422.8491 78.6177 320.7991ZM481.9377 458.0091C481.9377 435.5491 499.9977 416.9891 522.4577 416.9891H970.7077C993.6477 416.9891 1011.7177 435.5491 1011.7177 458.0091C1011.7177 480.4691 993.6477 498.5391 970.7077 498.5391H522.4577C499.9977 498.5391 481.9377 480.4691 481.9377 458.0091Z"/>
</svg>