<?xml version="1.0" encoding="UTF-8" standalone="no"?>
<svg xmlns="http://www.w3.org/2000/svg"
     width="988.76953125" height="1137.20703125"
     viewBox="0 0 988.76953125 1137.20703125"
     fill="currentColor">
  <path d="M235.3483 1137.2084H753.4183C771.9683 1137.2084 783.6883 1124.0284 783.6883 1104.9784C783.6883 1068.3584 753.9083 1042.4784 707.5183 1042.4784H533.6883V987.3084C788.5783 967.2884 988.7683 754.8784 988.7683 494.6284C988.7683 221.6784 767.5783 -0.0016 494.6283 -0.0016C221.1883 -0.0016 -0.0017 221.1884 -0.0017 494.6284C-0.0017 754.8784 200.1983 967.7784 455.0783 987.3084V1042.4784H281.7383C235.3483 1042.4784 205.5683 1068.3584 205.5683 1104.9784C205.5683 1124.0284 217.2883 1137.2084 235.3483 1137.2084ZM333.9883 814.9384C246.0983 814.9384 153.3183 711.4284 153.3183 608.3984C153.3183 551.7584 184.5683 522.9484 242.1883 522.9484H354.4883C352.5383 513.6684 351.5583 502.4384 351.5583 493.1684C239.2583 450.6884 176.7583 411.6184 176.7583 336.9184C176.7583 249.0184 280.7583 156.2484 383.7883 156.2484C440.4283 156.2484 469.2383 187.4984 469.2383 245.1184V353.5184C479.4883 351.0784 491.2083 351.0784 499.9983 351.0784C541.9883 240.7184 581.0583 179.6884 655.2783 179.6884C742.6783 179.6884 835.9383 283.6884 835.9383 386.2284C835.9383 442.8684 804.1983 471.6784 746.5783 471.6784H636.7183C637.6983 482.4184 638.1883 491.6984 637.6983 501.9484C749.9983 544.4384 812.0083 583.0084 812.0083 658.1984C812.0083 745.6084 708.0083 838.8684 605.4683 838.8684C548.8283 838.8684 520.0183 807.6184 520.0183 749.5084V635.7384C510.7383 637.2084 502.4383 637.6984 492.1883 637.2084C448.7283 751.9484 409.1783 814.9384 333.9883 814.9384ZM494.6283 568.8484C534.1783 568.8484 565.9183 537.1084 565.9183 497.5584C565.9183 457.5184 534.1783 425.7784 494.6283 425.7784C454.5883 425.7784 422.8483 457.5184 422.8483 497.5584C422.8483 537.1084 454.5883 568.8484 494.6283 568.8484Z"/>
</svg>