<?xml version="1.0" encoding="UTF-8" standalone="no"?>
<svg xmlns="http://www.w3.org/2000/svg"
     width="779.78515625" height="1137.20703125"
     viewBox="0 0 779.78515625 1137.20703125"
     fill="currentColor">
  <path d="M170.4083 1137.2084H609.3783C627.4383 1137.2084 639.1583 1124.0284 639.1583 1104.9784C639.1583 1068.3584 609.3783 1042.4784 562.9883 1042.4784H429.6883V777.8284C626.4683 757.8084 779.7883 591.7984 779.7883 390.1384C779.7883 175.2884 604.4883 -0.0016 389.6483 -0.0016C174.8083 -0.0016 -0.0017 175.2884 -0.0017 390.1384C-0.0017 592.2884 153.8083 758.2984 351.0783 777.8284V1042.4784H216.3083C169.9183 1042.4784 140.1383 1068.3584 140.1383 1104.9784C140.1383 1124.0284 151.8583 1137.2084 170.4083 1137.2084ZM390.1383 708.4984C213.8683 708.4984 72.2683 565.9184 72.2683 389.6484C72.2683 213.8684 213.8683 71.7784 390.1383 71.7784C566.4083 71.7784 708.0083 213.8684 708.0083 389.6484C708.0083 565.9184 566.4083 708.4984 390.1383 708.4984ZM270.0183 630.3684C326.1683 630.3684 355.9583 583.0084 388.1883 496.5784C395.9983 497.0684 402.3483 497.0684 409.1783 495.1184V582.5184C409.1783 625.4884 431.1483 648.9284 473.1483 648.9284C551.2683 648.9284 628.9083 579.0984 628.9083 513.1884C628.9083 456.5384 582.0283 427.2484 497.5583 395.9984C498.0483 388.1884 497.5583 381.3484 497.0683 373.0484H580.0783C623.0483 373.0484 646.4883 351.0784 646.4883 308.5984C646.4883 231.4484 577.1483 153.8084 510.7383 153.8084C456.0583 153.8084 425.7783 199.2184 395.0183 282.2284C387.6983 282.2284 378.9083 282.2284 371.5783 284.1784V202.1484C371.5783 159.1784 349.6083 135.2584 307.6183 135.2584C229.4883 135.2584 151.3683 205.5684 151.3683 271.4884C151.3683 327.6384 198.2383 356.9384 283.1983 388.6684C283.1983 395.9984 283.6883 404.7884 285.1583 411.1284H200.6883C157.2283 411.1284 133.7883 433.1084 133.7883 475.0984C133.7883 553.2184 203.6183 630.3684 270.0183 630.3684ZM390.1383 446.2884C359.8683 446.2884 335.9383 422.3584 335.9383 392.5784C335.9383 361.8184 359.8683 337.8884 390.1383 337.8884C420.4083 337.8884 444.3383 361.8184 444.3383 392.5784C444.3383 422.3584 420.4083 446.2884 390.1383 446.2884Z"/>
</svg>