<?xml version="1.0" encoding="UTF-8" standalone="no"?>
<svg xmlns="http://www.w3.org/2000/svg"
     width="1299.4097622764543" height="1128.1490065620296"
     viewBox="0 0 1299.4097622764543 1128.1490065620296"
     fill="currentColor">
  <path d="M517.135 550.7853L649.465 618.6553L782.275 550.7853C755.905 539.0653 724.655 531.2453 689.015 528.3153V250.9753C792.525 235.8353 878.955 162.1053 878.955 78.6153C878.955 48.8253 862.835 32.2253 826.705 20.9953C780.325 7.3253 718.795 -0.0047 649.465 -0.0047C580.615 -0.0047 519.085 7.3253 472.705 20.9953C436.575 32.2253 420.455 48.3353 420.455 78.6153C420.455 162.1053 506.885 235.8353 610.395 250.9753V528.3153C574.755 531.2453 543.505 539.0653 517.135 550.7853ZM181.685 427.7353C23.975 346.6753 -71.735 553.7153 66.945 621.0953L386.765 776.8553C404.345 700.1953 477.585 647.9453 579.635 631.3453ZM1117.725 427.7353L719.775 631.3453C821.825 647.9453 895.065 700.1953 912.155 776.8553L1232.465 621.0953C1371.145 553.7153 1275.435 346.6753 1117.725 427.7353ZM649.465 956.5453C783.245 956.5453 872.115 898.9253 872.115 812.9853C872.115 727.5353 783.245 669.9253 649.465 669.9253C515.675 669.9253 427.295 727.5353 427.295 812.9853C427.295 898.9253 515.675 956.5453 649.465 956.5453ZM158.245 911.1353C5.415 982.9053 114.305 1184.0853 253.465 1113.2853L516.645 979.4953C434.615 949.7053 382.855 891.1153 382.855 812.9853V806.6453ZM1140.675 911.1353L916.555 806.6453V812.9853C916.555 891.1153 864.305 949.7053 782.765 979.4953L1045.945 1113.2853C1185.105 1184.0853 1293.505 982.9053 1140.675 911.1353Z"/>
</svg>