<?xml version="1.0" encoding="UTF-8" standalone="no"?>
<svg xmlns="http://www.w3.org/2000/svg"
     width="1050.78125" height="1050.78125"
     viewBox="0 0 1050.78125 1050.78125"
     fill="currentColor">
  <path d="M354.9783 -0.0003C296.3883 -0.0003 237.3083 20.5097 186.5283 53.2197L241.6983 107.9097C276.3683 87.3997 316.4083 74.7097 354.9783 74.7097C400.3883 74.7097 415.5283 91.3097 415.5283 139.6497V281.7397L490.2383 356.4497V139.6497C490.2383 49.7997 441.8983 -0.0003 354.9783 -0.0003ZM1015.6283 770.9997C1015.6283 633.7897 875.4883 562.4997 636.2283 489.7497H911.6183C1001.4683 489.7497 1050.7783 441.4097 1050.7783 354.4897C1050.2883 198.2397 909.1783 35.1597 770.9983 35.1597C643.0683 35.1597 571.7783 157.2297 506.3483 373.0497L623.0483 489.7497H623.5383L748.0483 614.7497C875.4883 655.2697 940.9183 699.7097 940.9183 770.9997C940.9183 781.7397 938.9683 791.9897 935.0583 801.7597L994.1383 860.8397C1007.8083 832.0297 1015.6283 801.2697 1015.6283 770.9997ZM946.2883 1000.4897C961.4283 1015.1397 985.3483 1014.6497 999.5083 999.9997C1014.1583 985.3497 1014.1583 961.4297 999.5083 946.7797L104.0083 51.2697C89.3583 36.6197 65.4283 36.1297 50.2883 51.2697C36.1283 65.4297 36.1283 89.8397 50.2883 104.4897ZM770.9983 109.8597C868.6483 109.8597 976.0783 239.2597 976.0783 354.4897C976.0783 399.8997 959.9583 415.0397 911.6183 415.0397H572.7583C632.8083 217.2897 680.1783 109.8597 770.9983 109.8597ZM279.7883 1015.1397C407.7183 1015.1397 479.0083 893.5597 544.4383 679.1997L431.6383 566.4097L300.7783 435.5497C175.2883 395.0197 110.3483 351.0697 110.3483 279.7897C110.3483 269.5297 112.3083 260.2497 116.2083 250.4897L57.1283 191.4097C43.4583 219.7297 35.6483 249.5097 35.6483 279.7897C35.6483 416.9897 174.3183 488.2797 413.0883 560.5497H139.1583C49.8083 560.5497 -0.0017 608.8897 -0.0017 695.7997C0.4883 852.5397 141.5983 1015.1397 279.7883 1015.1397ZM279.7883 940.4297C182.1283 940.4297 74.7083 811.5197 74.7083 695.7997C74.7083 650.3897 90.8183 635.2497 139.1583 635.2497H478.0283C417.9683 833.0097 371.0983 940.4297 279.7883 940.4297ZM696.2883 1050.7797C754.8783 1050.2897 813.4783 1031.2497 863.7683 998.5397L809.0783 943.3597C773.9283 963.8697 734.8683 976.0697 696.2883 976.0697C650.8783 976.0697 635.7383 959.9597 635.7383 911.6197V770.5097L561.0383 695.7997V911.6197C561.0383 1001.4697 609.3783 1050.7797 696.2883 1050.7797Z"/>
</svg>