<?xml version="1.0" encoding="UTF-8" standalone="no"?>
<svg xmlns="http://www.w3.org/2000/svg"
     width="1050.29296875" height="1050.78125"
     viewBox="0 0 1050.29296875 1050.78125"
     fill="currentColor">
  <path d="M355.4666 -0.0003C296.8766 -0.0003 237.3066 20.5097 187.0166 53.2197L490.2366 356.4497V139.6497C490.2366 49.7997 441.8966 -0.0003 355.4666 -0.0003ZM1015.6266 770.9997C1015.6266 633.7897 875.9766 562.4997 636.7166 489.7497H911.6166C1001.4666 489.7497 1050.2966 441.4097 1050.2966 354.4897C1049.8066 198.2397 908.6866 34.6697 770.9966 34.6697C642.5766 34.6697 569.8266 157.2297 506.3466 373.0497L623.5366 489.7497L994.1366 860.8397C1007.8166 832.0297 1015.6266 801.2697 1015.6266 770.9997ZM946.7766 1000.4897C961.4266 1015.1397 985.3566 1014.6497 999.9966 999.9997C1014.1566 985.3497 1014.6466 961.4297 999.9966 946.7797L104.0066 51.2697C89.3566 36.6197 65.4266 36.1297 50.2966 51.2697C36.1366 65.4297 36.1366 89.8397 50.2966 104.4897ZM279.7866 1015.1397C408.2066 1015.1397 479.0066 893.5597 544.4366 679.1997L431.6366 566.4097L57.1266 191.4097C43.4566 219.7297 35.6466 249.5097 35.6466 279.7897C35.6466 416.9897 174.8066 488.2797 413.5766 561.0397H139.6466C48.3366 561.0397 -0.0034 607.9097 -0.0034 695.7997C0.4866 852.5397 141.6066 1015.1397 279.7866 1015.1397ZM696.2866 1050.7797C754.8866 1050.2897 813.4766 1031.2497 863.7666 998.5397L561.0366 695.7997V911.6197C561.0366 1001.4697 609.3766 1050.7797 696.2866 1050.7797Z"/>
</svg>