<?xml version="1.0" encoding="UTF-8" standalone="no"?>
<svg xmlns="http://www.w3.org/2000/svg"
     width="1030.3536934787653" height="1213.8671875"
     viewBox="0 0 1030.3536934787653 1213.8671875"
     fill="currentColor">
  <path d="M21.8458 779.7861L188.8358 1075.6861C177.6058 1082.5161 167.3558 1090.3361 157.5858 1097.1661C120.9658 1123.0461 91.6658 1145.0161 38.9358 1145.0161H36.4958C17.4458 1145.0161 1.8258 1160.1561 1.8258 1179.1961C1.8258 1198.2461 17.4458 1213.8661 36.4958 1213.8661H38.9358C191.2758 1213.8661 203.9758 1114.7461 283.0758 1114.7461C360.7158 1114.7461 381.7058 1213.8661 515.0058 1213.8661C648.3058 1213.8661 669.3058 1114.7461 746.9458 1114.7461C826.0458 1114.7461 838.7358 1213.8661 991.0858 1213.8661H993.5258C1012.5658 1213.8661 1028.1958 1198.2461 1028.1958 1179.1961C1028.1958 1160.1561 1012.5658 1145.0161 993.5258 1145.0161H991.0858C938.8358 1145.0161 909.0558 1123.0461 872.4258 1097.1661C862.6658 1090.3361 852.4158 1082.5161 841.1758 1075.6861L1008.1758 779.7861C1049.6758 706.5461 1032.5858 653.3161 959.8358 620.6061L909.5358 597.1661L855.3458 201.6561C847.5258 144.5361 809.9258 112.3061 753.2858 112.3061H727.8958V80.5661C727.8958 32.2261 696.1658 -0.0039 647.8258 -0.0039H382.6858C334.3458 -0.0039 302.6058 32.2261 302.6058 80.5661V112.3061H277.7058C222.5258 112.3061 185.4158 148.4361 176.1458 211.4261L121.4558 596.6761L70.1858 620.6061C-2.0842 653.3161 -19.1742 706.5461 21.8458 779.7861ZM371.4558 85.4461C371.4558 74.7061 377.3158 68.8461 387.5658 68.8461H642.9358C653.1958 68.8461 659.0558 74.7061 659.0558 85.4461V112.3061H371.4558ZM604.8558 457.5161C584.3458 448.2461 555.5358 432.6161 515.0058 432.6161C474.9658 432.6161 446.1658 448.2461 425.1658 457.5161L195.6758 562.9861L245.9658 211.4261C248.8958 192.3861 260.1258 181.1561 277.7058 181.1561H753.2858C771.8458 181.1561 783.5658 190.4261 786.0058 206.0561L834.8358 562.9861ZM313.8358 358.8861H465.2058C479.8558 358.8861 489.6158 350.5861 489.6158 338.8661V260.7461C489.6158 249.0261 479.8558 240.7261 465.2058 240.7261H313.8358C302.1158 240.7261 294.3058 249.0261 294.3058 260.7461V338.8661C294.3058 350.5861 302.1158 358.8861 313.8358 358.8861ZM559.9258 358.8861H711.7858C726.4358 358.8861 736.1958 350.5861 736.1958 338.8661V260.7461C736.1958 249.0261 726.4358 240.7261 711.7858 240.7261H559.9258C548.6958 240.7261 540.8858 249.0261 540.8858 260.7461V338.8661C540.8858 350.5861 548.6958 358.8861 559.9258 358.8861ZM411.0058 1099.6061C379.2658 1075.6861 339.2258 1045.8961 283.0758 1045.8961C273.3058 1045.8961 264.0358 1046.8761 255.2458 1048.3361L83.3658 749.5161C62.3758 712.4061 70.6758 695.3161 97.5258 683.1061L452.9958 520.0161C476.4358 509.2761 492.5458 501.4661 515.0058 501.4661C537.4658 501.4661 553.5858 509.2761 577.5058 520.0161L932.4858 683.1061C959.3458 695.3161 967.6458 712.4061 946.6458 749.5161L774.7758 1048.3361C765.9858 1046.8761 756.7058 1045.8961 746.9458 1045.8961C690.7858 1045.8961 650.7558 1075.6861 619.0158 1099.6061C585.3258 1124.9961 558.9558 1145.0161 515.0058 1145.0161C471.0658 1145.0161 444.6958 1124.9961 411.0058 1099.6061Z"/>
</svg>