<?xml version="1.0" encoding="UTF-8" standalone="no"?>
<svg xmlns="http://www.w3.org/2000/svg"
     width="996.09375" height="996.09375"
     viewBox="0 0 996.09375 996.09375"
     fill="currentColor">
  <path d="M498.0477 996.0959C770.5077 996.0959 996.0977 770.0159 996.0977 498.0459C996.0977 225.5859 770.0177 -0.0041 497.5577 -0.0041C225.5877 -0.0041 -0.0023 225.5859 -0.0023 498.0459C-0.0023 770.0159 226.0777 996.0959 498.0477 996.0959ZM498.0477 913.0859C267.5777 913.0859 83.4977 728.5159 83.4977 498.0459C83.4977 267.5759 267.0877 83.0059 497.5577 83.0059C728.0277 83.0059 913.0877 267.5759 913.0877 498.0459C913.0877 728.5159 728.5177 913.0859 498.0477 913.0859ZM581.5477 291.0159C616.6977 291.0159 645.5077 262.2059 645.5077 228.5159C645.5077 192.8759 617.1877 164.5459 581.5477 164.5459C546.3877 164.5459 518.5577 192.8759 518.5577 228.5159C518.5577 262.2059 546.3877 291.0159 581.5477 291.0159ZM301.7577 795.8959C312.4977 795.8959 320.7977 790.5259 329.5877 781.7359L420.4077 692.3859C429.1977 684.5659 430.6677 682.1259 435.0577 670.4059L475.5877 564.9459C481.4477 549.8059 495.1177 545.8959 510.7377 555.1759L587.3977 600.0959L516.5977 660.6459C509.7677 666.5059 504.8877 674.8059 504.8877 684.0859C504.8877 698.7259 515.6277 711.9159 531.2477 711.9159C541.5077 711.9159 549.3177 708.0059 559.0777 699.7059L655.7577 617.6759C664.5477 610.3559 667.4777 603.0259 667.4777 594.2359C667.4777 585.4459 662.1077 577.6359 650.3877 569.8259L546.8777 501.9559L567.3877 431.1559C569.8277 420.8959 579.5877 419.4359 585.9377 428.7059L613.2777 468.7459C621.0977 480.4659 634.7677 483.3959 647.4577 478.0259L742.1877 436.0359C758.7877 428.7059 765.1377 414.0659 757.8077 399.9059C750.9777 385.7459 737.3077 380.3759 720.2177 387.6959L647.4577 419.9259L596.6777 348.1459C572.2677 313.4759 540.0377 298.8259 492.1877 302.2459L378.4177 311.0359C362.7977 312.0159 351.0777 322.7559 348.6377 339.8459L334.9577 442.8759C332.5177 461.4259 341.3077 474.1259 360.3477 475.5859C375.4877 477.0459 387.2077 468.2659 389.6477 449.7059L401.3677 368.1659L444.3377 365.7259C453.6177 364.7459 458.9877 370.6059 456.5477 379.8859L379.8877 650.3859L284.6677 745.1159C277.3477 752.4459 273.9277 759.7659 273.9277 767.5759C273.9277 782.2259 285.1577 795.8959 301.7577 795.8959Z"/>
</svg>