<?xml version="1.0" encoding="UTF-8" standalone="no"?>
<svg xmlns="http://www.w3.org/2000/svg"
     width="1345.703125" height="1036.5964452365038"
     viewBox="0 0 1345.703125 1036.5964452365038"
     fill="currentColor">
  <path d="M504.3983 149.9066C545.8983 149.9066 579.0983 117.1866 579.0983 75.1966C579.0983 33.6866 545.8983 -0.0034 504.3983 -0.0034C462.8883 -0.0034 429.1983 33.6866 429.1983 75.1966C429.1983 117.1866 462.8883 149.9066 504.3983 149.9066ZM782.7183 288.5766C841.3083 288.5766 889.1583 240.7266 889.1583 181.1566C889.1583 122.5566 841.3083 75.1966 782.7183 75.1966C723.1483 75.1966 675.7783 122.5566 675.7783 181.1566C675.7783 240.7266 723.1483 288.5766 782.7183 288.5766ZM49.3183 815.4266H316.4083C331.0583 815.4266 337.3983 813.9666 348.1483 811.5266L618.6483 746.0966C623.0483 745.1166 626.9483 749.0266 626.4683 753.4166L608.3983 900.8766L502.4383 825.1966C479.9783 809.0866 448.7283 814.4566 433.1083 836.9166C416.5083 859.3766 421.3883 890.6266 443.8483 906.7366L607.4183 1021.9766C643.5583 1047.3666 687.4983 1039.0666 696.7783 1001.9566L831.5383 461.4266C833.4983 455.0766 839.8483 451.1766 846.1883 452.6366L1286.6183 540.0366C1324.2183 547.8466 1345.6983 519.5266 1345.6983 491.6966C1345.6983 470.2166 1333.4983 448.2466 1306.1483 442.8666L872.0683 355.4666C743.1683 330.0766 663.0883 317.8666 571.2883 317.8666H448.7283V192.8666C448.7283 164.5466 426.2683 143.0666 398.9283 143.0666C370.6083 143.0666 348.6283 164.5466 348.6283 192.8666V367.1866C348.6283 394.5266 370.6083 416.9966 398.9283 416.9966H604.9783C614.2583 416.9966 620.6083 425.2966 618.1683 434.0866L578.1283 588.3766C571.7783 613.2766 554.6883 632.3266 530.2783 641.1166L315.4283 715.8166H49.3183C21.4883 715.8166 -0.0017 738.2766 -0.0017 766.1166C-0.0017 793.9466 21.4883 815.4266 49.3183 815.4266Z"/>
</svg>