<?xml version="1.0" encoding="UTF-8" standalone="no"?>
<svg xmlns="http://www.w3.org/2000/svg"
     width="1022.4609375" height="1376.953125"
     viewBox="0 0 1022.4609375 1376.953125"
     fill="currentColor">
  <path d="M50.2883 601.0756H293.4583L442.8683 736.8156C449.2183 742.1856 445.7983 751.4656 437.4983 751.4656H267.0883C252.4383 751.4656 237.7883 754.8856 227.5383 765.1356L46.3883 946.7756C26.8583 966.7956 26.3683 997.5556 46.3883 1017.5756C65.9183 1037.1056 97.6583 1037.1056 117.1883 1017.5756L279.7883 854.9756L460.4483 884.7656V976.0756C460.4483 1054.6856 516.1183 1103.0256 587.8883 1103.0256C615.2383 1103.0256 640.1383 1095.2156 660.6483 1081.0556V1349.6056C660.6483 1364.7456 672.3683 1376.9556 687.4983 1376.9556C703.1283 1376.9556 714.8483 1364.7456 714.8483 1349.6056V1018.5556C717.7783 1016.6056 721.1883 1014.1556 723.6283 1011.7156L873.5383 861.8156C882.8083 852.5356 888.1883 838.8656 888.1883 826.1756V603.0256C888.1883 570.8056 877.9283 544.4356 858.8883 525.8756L562.0083 229.9756V371.5856L689.9383 499.5156C699.2183 508.7856 698.7283 519.0456 689.9383 527.3456L557.1283 660.6456L514.6483 630.8556V26.8556C514.6483 12.2056 502.4383 -0.0044 487.7883 -0.0044C473.1483 -0.0044 460.4483 12.2056 460.4483 26.8556V592.7756L341.3083 509.2756C332.0283 502.9256 324.7083 500.4856 311.0383 500.4856H50.2883C22.4583 500.4856 -0.0017 522.9456 -0.0017 550.7856C-0.0017 578.1256 22.4583 601.0756 50.2883 601.0756ZM916.5083 467.2856C975.0983 467.2856 1022.4583 419.9256 1022.4583 360.8356C1022.4583 302.2456 975.0983 254.8856 916.5083 254.8856C857.4183 254.8856 809.5683 302.2456 809.5683 360.8356C809.5683 419.9256 857.4183 467.2856 916.5083 467.2856ZM765.1383 719.7256C774.4183 710.4456 787.5983 715.8156 787.5983 728.5156V805.6656L714.8483 878.4156V770.0156ZM514.6483 976.0756V890.6256C565.9183 889.6456 615.7183 869.1356 652.8283 831.5456L660.6483 824.2156V932.6156L652.3483 940.9156C633.2983 960.4456 633.2983 991.6956 651.8583 1011.2256C640.1383 1034.1756 616.2083 1048.8256 587.8883 1048.8256C546.3883 1048.8256 514.6483 1023.4356 514.6483 976.0756Z"/>
</svg>