<?xml version="1.0" encoding="UTF-8" standalone="no"?>
<svg xmlns="http://www.w3.org/2000/svg"
     width="765.13671875" height="1012.20703125"
     viewBox="0 0 765.13671875 1012.20703125"
     fill="currentColor">
  <path d="M645.9983 212.3984C705.0783 212.3984 752.4383 165.0384 752.4383 106.4484C752.4383 47.3584 705.0783 -0.0016 645.9983 -0.0016C586.9183 -0.0016 539.5483 47.3584 539.5483 106.4484C539.5483 165.0384 586.9183 212.3984 645.9983 212.3984ZM354.9783 1012.2084C554.6883 1012.2084 709.9583 856.4484 709.9583 656.7384C709.9583 564.9384 672.3683 509.7684 590.3283 481.9384L513.1883 455.0784C500.4883 451.1684 497.0683 441.4084 505.3683 429.1984L555.6683 355.9584C594.7283 299.8084 580.5683 253.4184 520.5083 211.4284L334.9583 81.5384C315.4283 68.3584 291.0183 67.8684 271.4883 80.5684L99.6083 196.2884C36.1283 239.2584 94.7283 316.8984 151.8583 277.8284L297.8483 179.1984L398.4383 249.5084C415.5283 261.7184 417.4783 275.3884 406.2483 291.0184L325.6883 408.1984C282.2283 471.1884 317.3783 539.5484 385.2583 557.1284L599.6083 610.8384C622.5583 616.2084 635.7383 635.2584 635.7383 661.6184C635.7383 814.9384 512.6983 937.4984 355.4683 937.4984C196.7783 937.4984 74.2183 814.9384 74.2183 656.7384C74.2183 599.1184 91.3083 547.8484 119.6283 505.3684C151.3683 458.0084 88.3783 418.4584 55.1783 468.2584C20.9983 520.5084 -0.0017 584.4684 -0.0017 656.7384C-0.0017 856.4484 155.2783 1012.2084 354.9783 1012.2084ZM711.4283 1012.2084C741.6983 1012.2084 765.1383 988.2784 765.1383 958.0084C765.1383 928.2184 741.6983 904.2984 711.4283 904.2984C681.1483 904.2984 657.2283 928.2184 657.2283 958.0084C657.2283 988.2784 681.1483 1012.2084 711.4283 1012.2084Z"/>
</svg>