<?xml version="1.0" encoding="UTF-8" standalone="no"?>
<svg xmlns="http://www.w3.org/2000/svg"
     width="1008.5391638130184" height="1084.9609375"
     viewBox="0 0 1008.5391638130184 1084.9609375"
     fill="currentColor">
  <path d="M686.0383 213.3795C745.1183 213.3795 791.9883 166.0195 791.9883 106.4495C791.9883 47.3595 745.1183 -0.0005 686.0383 -0.0005C626.4683 -0.0005 578.6183 47.3595 578.6183 106.4495C578.6183 166.0195 626.4683 213.3795 686.0383 213.3795ZM353.5183 1084.9595C380.8583 1084.9595 404.2983 1062.4995 404.2983 1034.6695V576.1695C515.6283 558.1095 612.3083 484.3795 658.6883 383.7895C662.5983 373.5395 674.3183 368.6495 693.8483 375.4895L940.9183 458.4995C975.0983 469.7295 998.5383 451.1695 1005.8583 427.2495C1013.6683 402.8295 1004.8783 373.0495 973.1483 362.7895L232.9083 115.7195C198.7283 103.9995 174.8083 123.0495 167.4783 146.9695C159.6683 171.3895 168.9483 200.6795 200.6883 211.4295L466.7983 300.2895C479.0083 304.6895 485.3483 319.3395 477.5383 332.0295C449.2183 376.4695 407.2283 403.3195 353.5183 403.3195H101.0783V149.8995C101.0783 120.1195 81.0583 99.6095 50.2883 99.6095C20.0183 99.6095 -0.0017 120.1195 -0.0017 149.8995V449.7095C-0.0017 482.9095 16.5983 498.5395 41.9883 502.9295L265.6283 540.0395L303.2183 760.7395V1034.6695C303.2183 1062.4995 325.6883 1084.9595 353.5183 1084.9595Z"/>
</svg>