<?xml version="1.0" encoding="UTF-8" standalone="no"?>
<svg xmlns="http://www.w3.org/2000/svg"
     width="1173.1573176825214" height="1130.244248988257"
     viewBox="0 0 1173.1573176825214 1130.244248988257"
     fill="currentColor">
  <path d="M67.8683 930.5411H741.6983L941.4083 730.8311C951.1683 721.0611 967.2883 721.0611 976.5583 730.8311L1058.5983 812.3711L973.6283 897.8211C930.1783 941.7711 996.0983 1008.1711 1040.0383 964.2311L1158.6883 846.0611C1178.2183 826.5311 1177.7383 797.7211 1158.6883 778.6811L1020.5083 640.9911C993.6483 614.1311 958.4983 598.9911 920.8983 598.9911H578.1283V35.0311C578.1283 -1.0989 525.3883 -16.7289 502.4383 24.7711L34.6683 866.5711C16.1183 900.7511 34.6683 930.5411 67.8683 930.5411ZM103.0283 876.3411C97.1683 876.3411 95.2183 870.9711 97.1683 867.5511L512.2083 119.5011C515.6283 113.6411 523.9283 115.1111 523.9283 121.4511V876.3411ZM888.6683 547.7211C947.7583 547.7211 995.1183 500.3611 995.1183 441.2811C995.1183 382.2011 947.7583 334.3411 888.6683 334.3411C829.0983 334.3411 781.7383 382.2011 781.7383 441.2811C781.7383 500.3611 829.0983 547.7211 888.6683 547.7211ZM681.1483 694.2111C689.9383 694.2111 693.8483 703.0011 687.9883 709.3411L578.1283 819.2111V694.2111ZM27.3483 1130.2411H76.6583C207.5183 1130.2411 236.8183 1049.6811 327.6383 1049.6811C417.9683 1049.6811 447.2683 1130.2411 578.1283 1130.2411C708.4983 1130.2411 738.2783 1049.6811 828.6183 1049.6811C918.9483 1049.6811 948.7283 1130.2411 1079.0983 1130.2411H1128.9083C1144.0383 1130.2411 1155.7583 1118.5211 1155.7583 1103.3911C1155.7583 1088.2511 1144.0383 1076.0411 1128.9083 1076.0411H1079.0983C985.3483 1076.0411 953.6183 995.4811 828.6183 995.4811C703.6183 995.4811 671.8783 1076.0411 578.1283 1076.0411C484.3783 1076.0411 452.6383 995.4811 327.6383 995.4811C202.1483 995.4811 170.8983 1076.0411 76.6583 1076.0411H27.3483C12.2083 1076.0411 -0.0017 1088.2511 -0.0017 1103.3911C-0.0017 1118.5211 12.2083 1130.2411 27.3483 1130.2411Z"/>
</svg>