<?xml version="1.0" encoding="UTF-8" standalone="no"?>
<svg xmlns="http://www.w3.org/2000/svg"
     width="1251.46484375" height="919.4379991278843"
     viewBox="0 0 1251.46484375 919.4379991278843"
     fill="currentColor">
  <path d="M825.6883 213.3797C884.7683 213.3797 932.6183 165.5297 932.6183 106.4497C932.6183 47.3597 884.7683 -0.0003 825.6883 -0.0003C766.5983 -0.0003 719.2383 47.3597 719.2383 106.4497C719.2383 165.5297 766.5983 213.3797 825.6883 213.3797ZM466.7983 914.0597C485.8383 924.8097 518.0683 920.4097 532.2283 892.0897L654.7883 648.4397C664.0583 629.3897 661.1283 606.9297 645.5083 591.7997L498.0483 443.8497L573.2383 406.2497L806.1483 639.6497V650.8797C806.1483 677.7297 828.6183 699.7097 855.4683 699.7097C858.8883 699.7097 861.8183 699.2197 864.7483 698.7297L1054.1983 887.6997C1062.9883 896.4797 1068.8483 897.9497 1078.1283 897.9497H1225.0983C1239.2583 897.9497 1251.4683 885.7397 1251.4683 871.0897V846.6797C1251.4683 831.5397 1239.2583 819.3397 1225.0983 819.3397H1062.4983L903.3183 660.1597C903.8083 657.2297 904.2983 653.8097 904.2983 650.8797V431.1497C904.2983 417.9697 901.3683 406.2497 890.1383 395.9997L669.4383 176.2697C644.5283 151.3697 611.8183 138.1797 576.6583 138.1797H389.1583C340.3283 138.1797 326.1683 191.4097 355.9583 220.6997L414.5483 278.8097L390.6283 288.5697C301.7583 325.1997 275.8783 441.8897 359.8683 502.9297L548.8283 641.5997L445.3083 848.6297C433.1083 872.5597 442.8683 901.3697 466.7983 914.0597ZM684.0783 350.5897C693.3583 345.6997 703.6183 348.1397 710.4483 354.9797L806.1483 451.1697V562.9897L623.5383 380.8597ZM48.8283 724.6097H293.4583C312.9883 724.6097 328.6183 712.3997 336.4283 697.2697L392.0883 585.4497L332.0283 541.0197C318.3583 531.2497 306.6383 520.0197 297.3683 508.2997L257.8083 626.4697H48.8283C21.9683 626.4697 -0.0017 648.4397 -0.0017 675.7797C-0.0017 702.6397 21.9683 724.6097 48.8283 724.6097Z"/>
</svg>