<?xml version="1.0" encoding="UTF-8" standalone="no"?>
<svg xmlns="http://www.w3.org/2000/svg"
     width="1176.7578125" height="1098.5579245652686"
     viewBox="0 0 1176.7578125 1098.5579245652686"
     fill="currentColor">
  <path d="M500.4883 911.7407C524.8983 897.0907 550.2883 884.4007 576.6583 874.1407V688.6007C576.6583 681.7607 582.0283 676.3907 588.8683 676.3907H650.8783C678.2183 676.3907 700.6883 653.9307 700.6883 626.5907V347.2907L725.5883 322.3907V526.4907C725.5883 554.3207 748.5383 575.8007 775.8783 575.8007C803.2183 575.8007 825.6883 554.3207 825.6883 526.4907V222.2907L1000.9783 47.0007C1011.7183 36.2507 1011.7183 19.1607 1000.9783 8.4207C990.2383 -2.8093 972.6583 -2.8093 961.9183 8.4207L615.2383 354.6107C604.9783 364.3807 601.0783 376.1007 601.0783 392.2107V577.2707H425.7783C381.8383 577.2707 351.5583 607.5407 351.5583 651.0007V744.2607C405.7583 784.7907 457.0283 838.9907 500.4883 911.7407ZM449.7083 536.7407C508.2983 536.7407 556.1483 489.3807 556.1483 429.8107C556.1483 371.2207 508.2983 323.3607 449.7083 323.3607C390.1383 323.3607 342.7783 371.2207 342.7783 429.8107C342.7783 489.3807 390.1383 536.7407 449.7083 536.7407ZM27.3483 775.0207C174.8083 775.0207 339.3583 831.1807 434.0783 1075.3207C443.3583 1100.7107 472.1683 1105.5907 489.2583 1088.5007C598.6283 978.6407 725.0983 942.5007 906.7383 993.7707C921.8783 997.6807 933.5983 991.3307 939.9383 976.6807C977.5383 889.7707 1055.6683 845.8207 1149.4183 845.8207C1164.5483 845.8207 1176.7583 834.1107 1176.7583 818.9707C1176.7583 803.8307 1164.5483 791.6307 1149.4183 791.6307C1045.8983 791.6307 949.2183 842.4107 899.4183 935.6707C723.6283 892.2107 585.9383 927.8607 473.6283 1028.9307C366.2083 781.3707 180.6683 720.8207 27.3483 720.8207C11.7183 720.8207 -0.0017 733.0307 -0.0017 748.1707C-0.0017 763.3007 11.7183 775.0207 27.3483 775.0207Z"/>
</svg>