<?xml version="1.0" encoding="UTF-8" standalone="no"?>
<svg xmlns="http://www.w3.org/2000/svg"
     width="937.98828125" height="1007.7935485122672"
     viewBox="0 0 937.98828125 1007.7935485122672"
     fill="currentColor">
  <path d="M346.6783 11.7932C319.3383 -12.6268 282.2283 3.0032 282.2283 39.1332V122.1432H38.5783C16.5983 122.1432 -0.0017 139.2332 -0.0017 160.7132C-0.0017 182.2032 16.5983 198.8032 38.5783 198.8032H282.2283V280.8332C282.2283 319.4132 320.7983 332.5932 346.6783 309.1532L483.8883 187.5732C501.9483 171.4632 502.4383 149.0032 483.8883 132.3932ZM806.1483 291.5732C879.3983 291.5732 937.9883 230.5432 937.9883 159.7432C937.9883 86.0132 879.3983 25.9532 806.1483 25.9532C732.4183 25.9532 673.3383 86.0132 673.3383 159.7432C673.3383 232.0032 732.4183 291.5732 806.1483 291.5732ZM19.5283 989.3332C44.9183 1016.1832 88.3783 1013.7432 119.6283 982.0032L329.5883 765.2132C336.9183 757.8832 341.3083 755.9332 352.0483 760.3232L516.1183 822.3332C621.5783 862.8632 720.6983 828.1932 767.0883 744.2132L872.5583 552.3232C914.0583 477.1232 900.3883 400.4632 829.5883 362.3732C760.7383 324.2932 688.9683 353.1032 647.4583 429.7632L510.2583 679.2732L394.0383 636.7932C336.9183 615.7932 288.5783 622.6332 242.1883 670.4832L23.9283 896.0732C-5.8617 927.3232 -3.4217 966.3832 19.5283 989.3332Z"/>
</svg>