<?xml version="1.0" encoding="UTF-8" standalone="no"?>
<svg xmlns="http://www.w3.org/2000/svg"
     width="1061.03515625" height="1207.03125"
     viewBox="0 0 1061.03515625 1207.03125"
     fill="currentColor">
  <path d="M801.2683 213.3767C859.3783 213.3767 907.7183 165.5267 907.7183 106.9367C907.7183 48.3367 859.3783 -0.0033 801.2683 -0.0033C742.6783 -0.0033 694.3383 48.3367 694.3383 106.9367C694.3383 165.5267 742.6783 213.3767 801.2683 213.3767ZM27.3483 340.8167H344.2383L334.9583 349.6067C293.4583 390.6267 293.4583 460.4467 334.9583 500.9767L421.8783 586.9167V660.1567L333.9883 572.7567C322.7583 561.5267 306.1483 561.5267 295.4083 572.2667C285.1583 583.0067 285.1583 599.6067 295.4083 610.3467L421.8783 736.3267V812.4967L208.0083 598.6367C196.7783 587.8867 179.6883 587.8867 169.4383 598.6367C158.6883 608.8867 158.6883 625.9767 169.4383 636.7167L697.2683 1164.5467C728.0283 1195.3167 761.7183 1207.0267 799.3183 1207.0267C814.4483 1207.0267 826.6583 1194.8267 826.6583 1179.6867C826.6583 1164.5467 814.4483 1152.8367 799.3183 1152.8367C765.6283 1152.8367 756.3483 1146.9767 728.0283 1119.1367L505.8583 896.4867C515.6283 887.6967 521.4883 874.5067 521.4883 860.3467V836.4267L823.2383 1138.1867C854.0083 1168.9467 887.6983 1180.6667 925.7783 1180.6667C940.9183 1180.6667 952.6383 1168.4567 952.6383 1153.3167C952.6383 1138.1867 940.9183 1126.4667 925.7783 1126.4667C892.0883 1126.4667 882.3283 1120.6067 854.0083 1092.7767L646.4883 884.7667C655.7583 875.9767 661.6183 862.7967 661.6183 848.6367V613.2767C661.6183 599.6067 657.2283 586.4267 647.9483 578.1267L518.5583 449.2167L633.7883 333.4967C641.1183 326.1767 653.3183 326.1767 660.6483 333.4967L741.2083 414.5467C749.9983 423.8267 763.1883 428.7067 775.8783 428.7067H1005.8583V847.1667C1005.8583 861.8167 1018.0683 874.5067 1032.7183 874.5067C1047.3683 874.5067 1060.0583 861.8167 1060.0583 847.1667V390.1367C1061.0383 386.7167 1061.0383 382.3267 1061.0383 378.4167C1061.0383 351.0767 1039.0583 328.6167 1011.2283 328.6167H796.3883L621.5783 152.8367C599.6083 130.3667 567.3783 117.6767 536.1283 117.6767H352.0483C302.2483 117.6767 287.5983 172.3667 318.8483 203.6167L400.8783 285.1567L399.4183 286.6167H27.3483C12.2083 286.6167 -0.0017 298.8267 -0.0017 313.9667C-0.0017 328.6167 12.2083 340.8167 27.3483 340.8167ZM521.4883 593.7467L562.0083 633.7867V800.2967L521.4883 760.2567Z"/>
</svg>