<?xml version="1.0" encoding="UTF-8" standalone="no"?>
<svg xmlns="http://www.w3.org/2000/svg"
     width="872.6310400268426" height="1162.605060506472"
     viewBox="0 0 872.6310400268426 1162.605060506472"
     fill="currentColor">
  <path d="M349.6807 213.3817C408.2707 213.3817 455.6407 165.5317 455.6407 105.9617C455.6407 47.3617 408.2707 0.0017 349.6807 0.0017C290.1107 0.0017 242.2607 47.3617 242.2607 105.9617C242.2607 165.5317 290.1107 213.3817 349.6807 213.3817ZM573.3107 1162.6017C601.6307 1162.6017 623.6107 1140.1417 623.6107 1112.7917V835.4517C623.6107 823.7317 617.2607 807.1317 601.6307 796.8717L423.4107 678.2217V376.4617C423.4107 370.1217 428.7807 364.2617 435.6207 364.2617H822.8307C850.6607 364.2617 872.6307 341.8017 872.6307 314.4517C872.6307 287.1117 850.6607 264.6517 822.8307 264.6517H272.0407C225.1707 264.6517 199.7807 281.2517 175.8507 311.0317L45.9707 470.7017C14.7207 508.7917 40.1107 563.9617 80.6407 563.9617H224.1907V632.8117C224.1907 678.2217 249.5807 720.7017 290.6007 742.6717L523.5107 868.1617V1112.7917C523.5107 1140.1417 545.9707 1162.6017 573.3107 1162.6017ZM173.4107 467.2817L227.1207 400.3917V467.2817ZM11.7907 1145.5117C30.8307 1166.9917 62.0807 1167.9717 83.0807 1149.9017L278.8807 978.5117C288.6507 969.7217 292.5507 965.8217 295.9707 956.5417L348.2207 826.6617L268.1407 783.6917C260.3307 779.3017 252.5107 774.4117 245.1907 769.0417L205.6407 910.1517L16.6707 1075.1917C-3.3493 1092.7717 -5.7893 1125.4917 11.7907 1145.5117Z"/>
</svg>