<?xml version="1.0" encoding="UTF-8" standalone="no"?>
<svg xmlns="http://www.w3.org/2000/svg"
     width="1205.445071652911" height="1083.1310069839155"
     viewBox="0 0 1205.445071652911 1083.1310069839155"
     fill="currentColor">
  <path d="M917.5781 201.6609C973.2481 201.6609 1018.6581 156.2509 1018.6581 100.5809C1018.6581 45.4109 973.2481 0.0009 917.5781 0.0009C861.9181 0.0009 816.9981 45.4109 816.9981 100.5809C816.9981 156.2509 861.9181 201.6609 917.5781 201.6609ZM328.2281 222.6609C383.8881 222.6609 429.2981 177.2509 429.2981 121.5809C429.2981 65.9209 383.8881 21.0009 328.2281 21.0009C272.5581 21.0009 227.6381 65.9209 227.6381 121.5809C227.6381 177.2509 272.5581 222.6609 328.2281 222.6609ZM46.9781 346.6809L149.9981 354.9809C156.8381 355.4709 161.7181 360.3509 161.7181 368.1609V555.1709C161.7181 592.7709 173.9281 629.3909 196.8781 658.2009L317.4781 813.4809L255.9581 1018.0709C247.6581 1044.9209 263.2881 1073.7309 289.1581 1081.0509C315.0381 1088.3809 343.3581 1076.1709 352.1481 1046.8709L420.9981 816.8909C422.4681 812.5009 422.9481 809.0809 422.9481 804.6909L609.4781 1040.5309C626.5681 1062.0109 658.7881 1066.4109 679.2981 1049.3209C701.2681 1030.7609 705.1781 1000.4909 688.0881 978.5109L355.0781 557.1309L370.2181 407.7109C371.6781 396.9709 381.4481 391.6009 390.7281 396.0009L506.4481 454.1009C514.2581 458.5009 528.4181 461.4209 539.6481 461.4209H717.8781C729.5881 461.4209 741.7981 457.0309 750.0981 449.7109L834.5681 377.4409C842.8781 370.1209 853.1281 373.5309 857.0381 383.3009L904.3981 515.1409L704.6881 569.8209C684.6681 575.1909 669.0481 592.7709 667.0881 613.7709L644.6281 843.7509C641.6981 876.4609 670.5081 898.4409 694.9281 898.4409C720.3181 898.4409 742.2881 879.8809 744.7281 853.5109L763.7681 662.1109L903.9081 640.6209L837.0181 775.3909C829.6881 790.0409 825.7881 806.1509 831.6381 821.2909L923.9281 1051.2709C935.1581 1079.1009 965.4281 1088.8709 989.3581 1079.1009C1014.7481 1068.8509 1027.4481 1039.5509 1017.1881 1013.6709L935.1581 809.0809L1048.4381 647.9509C1077.2481 607.9109 1087.4981 556.1509 1078.7181 507.8109L1061.1381 411.1309C1058.6981 397.9509 1068.9481 389.6509 1081.1581 393.5509L1139.2581 413.0809C1178.8081 426.7609 1208.5981 402.3409 1205.1781 362.7909L1181.7381 130.3709C1179.2981 101.5609 1153.4181 82.0309 1127.0481 84.9609C1100.1981 87.8909 1079.1981 112.3009 1081.6381 140.6209L1097.2681 293.9409L958.5981 247.5609C901.9581 228.5109 841.8981 238.7709 795.0181 279.3009L699.8081 361.3309H545.5081L396.5881 287.1109C374.1281 275.3909 352.1481 269.5309 327.2481 267.5809L118.7481 251.9509L167.0881 105.9609C176.3681 79.1009 161.7181 50.7809 135.8381 41.9909C109.4781 33.2009 80.6681 47.3609 72.3681 73.7309L2.5381 280.2709C-7.7119 311.5209 14.2581 344.2409 46.9781 346.6809Z"/>
</svg>