<?xml version="1.0" encoding="UTF-8" standalone="no"?>
<svg xmlns="http://www.w3.org/2000/svg"
     width="855.8163198132379" height="1198.73046875"
     viewBox="0 0 855.8163198132379 1198.73046875"
     fill="currentColor">
  <path d="M423.6876 213.8667C482.2776 213.8667 530.1376 165.5267 530.1376 106.9367C530.1376 48.3367 482.2776 -0.0033 423.6876 -0.0033C365.0976 -0.0033 316.7576 48.3367 316.7576 106.9367C316.7576 165.5267 365.0976 213.8667 423.6876 213.8667ZM39.4076 587.4067C64.7976 591.7967 92.1476 579.5867 98.4876 549.8067L139.9976 364.2567H213.7276C223.0076 364.2567 229.8376 372.0667 227.3976 381.3467L178.0776 571.2867C157.5776 648.4367 208.3576 724.6067 305.5276 700.1967L484.7276 655.7567L450.0576 828.6167C444.6876 854.9767 462.2576 881.8367 488.6276 887.6967C511.5776 892.5767 541.3676 877.9267 547.7076 848.6367L597.5176 599.1167C604.8376 562.9867 574.0776 535.6467 543.8076 538.5767L384.6276 554.1967L431.4976 376.4667C433.4576 369.1367 441.2676 364.2567 448.5876 367.1867L631.2076 436.5267C664.4076 449.2167 698.0976 430.1767 698.0976 395.5067V165.0367C698.0976 137.6967 676.1276 115.2367 647.8076 115.2367C620.4676 115.2367 598.0076 137.6967 598.0076 165.0367V317.3867L504.7376 281.2467C474.4676 270.0167 441.2676 264.1567 408.0576 264.1567H99.4676C76.0276 264.1567 56.0076 280.7567 51.1276 303.2267L1.3276 527.8367C-5.0224 555.1767 12.0676 582.5167 39.4076 587.4067ZM264.5076 1187.0167C287.4576 1191.8967 317.7276 1176.2667 323.0976 1147.9467L372.9076 898.4367C373.8876 894.0467 373.8876 888.6767 373.8876 884.2767V732.4267L316.7576 746.0967C294.7776 751.9567 274.2776 753.4167 255.2276 751.9567L273.7876 886.2267L225.4476 1127.4367C220.0776 1154.7867 237.1676 1181.6367 264.5076 1187.0167ZM454.9376 1088.8667H779.1576C794.2976 1088.8667 806.4976 1076.6567 806.4976 1061.5267C806.4976 1046.3867 794.2976 1034.6667 779.1576 1034.6667H454.9376C439.7976 1034.6667 427.5976 1046.3867 427.5976 1061.5267C427.5976 1076.6567 439.7976 1088.8667 454.9376 1088.8667ZM404.6476 1198.7267H828.4776C843.6076 1198.7267 855.8176 1186.5267 855.8176 1171.3867C855.8176 1156.2467 843.6076 1144.5267 828.4776 1144.5267H404.6476C389.5076 1144.5267 377.7876 1156.2467 377.7876 1171.3867C377.7876 1186.5267 389.5076 1198.7267 404.6476 1198.7267Z"/>
</svg>