<?xml version="1.0" encoding="UTF-8" standalone="no"?>
<svg xmlns="http://www.w3.org/2000/svg"
     width="944.8624428528449" height="1166.411460908693"
     viewBox="0 0 944.8624428528449 1166.411460908693"
     fill="currentColor">
  <path d="M889.1965 381.7207C889.1965 489.1407 868.2065 589.7307 815.4665 724.0107C809.6065 739.6307 815.9565 755.2607 829.6265 761.1207C844.2765 766.9807 858.9265 761.6107 866.2465 746.9607C922.4065 623.4207 944.8665 517.4607 944.8665 381.7207C944.8665 250.3707 922.4065 143.9307 865.7565 16.4907C858.9265 1.8407 844.2765 -3.5293 829.6265 2.3307C815.4665 8.1907 809.6065 23.8107 815.4665 39.4407C868.2065 174.6907 889.1965 274.7907 889.1965 381.7207ZM408.7265 279.1807C467.8165 279.1807 515.6665 231.3307 515.6665 173.2307C515.6665 114.6307 467.8165 66.7807 408.7265 66.7807C350.1365 66.7807 302.7765 114.6307 302.7765 173.2307C302.7765 231.3307 350.1365 279.1807 408.7265 279.1807ZM787.1465 330.4507H266.1565C276.4065 319.7107 279.3365 304.0907 275.9165 290.4107C269.5665 267.9507 248.0865 249.4007 211.9565 257.7007L67.9065 290.9007C-24.8635 312.3907 -22.4235 431.5307 74.2565 431.5307H231.4865C245.6465 431.5307 256.8765 443.2507 256.8765 457.4107V663.4607L105.9965 813.3607C85.4865 833.8707 71.8165 854.8707 63.5165 886.6107L6.3865 1100.9607C-3.3835 1137.5807 18.1065 1160.5307 43.4965 1164.4407C67.9065 1168.8307 94.7665 1157.1107 103.0665 1126.8407L157.2665 925.6707C162.6365 906.6207 166.5465 898.8107 181.1865 886.6107L299.3565 785.5307C323.2765 766.0007 363.8065 769.4207 380.4065 798.2307L452.1865 923.2307L565.9565 1137.5807C582.5565 1169.3207 618.2065 1172.7407 641.1565 1158.0907C661.1665 1144.9107 669.4765 1118.0507 654.8265 1090.7107L540.5665 872.9307L475.6265 724.9807C464.8865 700.0807 459.0265 672.7407 459.0265 644.4207V457.4107C459.0265 443.2507 470.2565 431.5307 484.9065 431.5307H787.1465C815.4665 431.5307 837.9265 409.0707 837.9265 381.7207C837.9265 353.4007 815.4665 330.4507 787.1465 330.4507Z"/>
</svg>