<?xml version="1.0" encoding="UTF-8" standalone="no"?>
<svg xmlns="http://www.w3.org/2000/svg"
     width="1061.1128582035637" height="981.842041015625"
     viewBox="0 0 1061.1128582035637 981.842041015625"
     fill="currentColor">
  <path d="M929.766 265.6263C1003.006 265.6263 1061.116 204.5862 1061.116 133.7863C1061.116 60.0562 1003.006 -0.0037 929.766 -0.0037C856.036 -0.0037 796.956 60.0562 796.956 133.7863C796.956 206.0562 856.036 265.6263 929.766 265.6263ZM10.816 157.7162L169.516 359.8663C174.886 366.6963 183.186 369.6263 191.976 367.1862C201.246 351.0763 210.036 334.9562 210.036 312.4963C210.036 274.4163 174.396 267.0862 172.926 195.7962H149.006C137.776 195.7962 132.886 184.5662 138.266 176.2663L177.816 117.1862C180.746 112.3062 185.136 109.8663 189.526 109.8663C194.416 109.8663 197.836 112.3062 200.766 117.1862L241.286 176.2663C246.656 184.0862 241.776 195.7962 230.546 195.7962H206.136C207.596 250.4863 243.246 263.1862 243.246 312.4963C243.246 326.1763 240.796 337.8863 236.896 348.1463C222.736 353.0263 209.546 358.8863 197.836 364.7462C195.876 366.2063 193.926 366.6963 191.976 367.1862C181.716 385.7462 170.486 404.7863 170.486 434.0863C170.486 456.0563 177.326 473.6363 192.946 493.1663C207.106 510.7463 234.456 492.6763 219.316 473.6363C208.086 458.0063 204.176 448.7263 204.176 431.6363C204.176 400.3863 226.156 379.8863 236.896 348.1463C268.146 337.4063 302.816 331.0563 332.106 331.0563C337.966 331.0563 344.316 331.0563 350.666 331.5463C342.366 366.2063 313.556 386.7163 313.556 434.0863C313.556 456.0563 319.906 473.6363 336.016 493.1663C349.686 510.7463 377.026 492.6763 362.866 473.6363C350.666 458.0063 346.756 448.7263 346.756 431.6363C346.756 396.4863 374.586 374.9962 383.376 336.4263C372.146 333.9863 360.916 332.5163 350.666 331.5463C352.126 325.6862 352.616 319.3362 352.616 312.4963C352.616 274.4163 317.456 267.0862 315.996 195.7962H291.586C280.356 195.7962 275.466 184.0862 280.836 176.2663L320.386 117.1862C323.806 112.3062 327.716 109.8663 332.596 109.8663C336.996 109.8663 340.896 112.3062 344.316 117.1862L383.866 176.2663C389.236 184.0862 384.356 195.7962 373.616 195.7962H348.706C350.176 250.4863 385.816 263.1862 385.816 312.4963C385.816 321.2863 384.846 329.1063 383.376 336.4263C413.166 342.2863 443.436 352.5363 466.876 364.7462C470.296 366.6963 473.706 367.6763 477.126 368.1663C466.876 386.2263 456.136 405.2763 456.136 434.0863C456.136 456.0563 462.476 473.6363 478.596 493.1663C492.266 510.7463 520.096 492.6763 504.956 473.6363C493.726 458.0063 489.826 448.7263 489.826 431.6363C489.826 391.6063 526.446 368.6563 528.886 317.3863L653.886 157.7162C669.996 137.2062 667.556 116.2062 647.536 101.0762C583.576 51.7563 461.016 13.6762 332.106 13.6762C203.206 13.6762 81.136 51.7563 16.676 101.0762C-2.854 116.2062 -5.784 137.2062 10.816 157.7162ZM423.416 176.2663L463.456 117.1862C466.876 112.3062 470.296 109.8663 475.176 109.8663C479.566 109.8663 483.476 112.3062 486.406 117.1862L526.446 176.2663C531.816 184.5662 526.936 195.7962 515.706 195.7962H491.776C493.246 250.4863 528.886 263.1862 528.886 312.4963C528.886 316.4063 528.886 316.8963 528.886 317.3863L495.196 359.8663C490.796 365.7263 483.966 368.6563 477.126 368.1663C486.406 351.5663 495.196 335.4462 495.196 312.4963C495.196 274.4163 460.036 267.0862 458.576 195.7962H434.156C422.926 195.7962 418.046 184.0862 423.416 176.2663ZM143.146 963.3763C168.536 990.2363 211.996 987.7963 242.756 956.0563L453.206 739.2563C460.526 731.9363 464.926 729.9762 475.666 734.3763L639.726 796.3863C745.196 836.9163 844.316 802.2463 890.706 718.2663L996.176 526.3663C1037.676 451.6563 1024.006 374.5163 952.716 336.4263C883.866 298.8262 812.576 327.1463 771.076 403.8063L633.866 653.3163L517.166 610.8363C460.036 589.8463 412.186 596.6763 365.796 644.5263L147.536 870.1163C117.756 901.3663 120.196 940.4263 143.146 963.3763Z"/>
</svg>