<?xml version="1.0" encoding="UTF-8" standalone="no"?>
<svg xmlns="http://www.w3.org/2000/svg"
     width="914.0625" height="872.55859375"
     viewBox="0 0 914.0625 872.55859375"
     fill="currentColor">
  <path d="M301.2683 213.3825C360.8383 213.3825 408.1983 165.5225 408.1983 106.4425C408.1983 47.3625 360.8383 0.0025 301.2683 0.0025C242.1883 0.0025 194.8283 47.3625 194.8283 106.4425C194.8283 165.5225 242.1883 213.3825 301.2683 213.3825ZM42.9683 584.4725C21.4883 665.0425 72.7583 716.3125 135.7383 716.3125C155.7583 716.3125 176.7583 711.4225 197.2683 700.1925L462.3983 559.0825L755.8583 706.0525C791.5083 723.6325 820.3083 709.4725 831.5383 686.5225C842.2883 664.0625 835.4483 633.3025 801.2683 616.2125L494.1383 461.9125C474.1183 451.6625 452.1483 450.6825 431.1483 459.9625L232.9083 545.9025L272.9483 406.2525C280.2783 382.3225 302.2483 364.7425 327.6383 364.7425H722.6583C750.4883 364.7425 772.9483 342.2825 772.9483 314.4525C772.9483 287.1125 750.4883 264.1625 722.6583 264.1625H291.0183C193.3583 264.1625 113.7683 320.3125 91.3083 404.7825ZM27.3483 872.5625H886.7183C901.8583 872.5625 914.0583 860.8425 914.0583 845.7025C914.0583 830.5625 901.8583 818.3625 886.7183 818.3625H27.3483C11.7183 818.3625 -0.0017 830.5625 -0.0017 845.7025C-0.0017 860.8425 11.7183 872.5625 27.3483 872.5625Z"/>
</svg>