<?xml version="1.0" encoding="UTF-8" standalone="no"?>
<svg xmlns="http://www.w3.org/2000/svg"
     width="690.7362820469721" height="1311.926039592076"
     viewBox="0 0 690.7362820469721 1311.926039592076"
     fill="currentColor">
  <path d="M296.3776 1311.5222C323.2276 1311.5222 345.6876 1289.5522 345.6876 1262.2022V1018.5522L459.9476 850.1022C464.3476 843.2622 474.1076 845.2122 475.0876 854.0022L492.6676 1004.3922C493.6376 1012.6922 495.1076 1017.0922 499.0176 1026.3722L595.2076 1279.7822C606.9276 1310.5422 635.2476 1316.8922 658.1876 1308.5922C681.1376 1299.8022 698.7176 1276.3722 686.9976 1245.1222L592.2776 993.1622V528.3222C592.2776 476.0722 570.2976 421.8722 520.0076 401.3622L489.2476 388.6722C432.6076 365.2322 379.3876 372.0722 331.5276 406.2522L215.8076 489.7422L86.4176 435.0622L343.2476 79.1022H428.6976C450.6776 79.1022 468.7376 61.0322 468.7376 39.5522C468.7376 17.0922 450.6776 0.0022 428.6976 0.0022H347.6476C338.8576 0.0022 330.0676 3.9022 324.6976 11.2322L10.2476 446.7822C-6.8424 470.2122 -2.9424 504.3922 24.8876 516.1122L202.6276 592.2822C210.4376 595.2122 215.8076 595.7022 227.0376 595.7022H344.7176C363.2676 595.7022 369.6176 607.9122 369.6176 621.5822V756.8322L251.9376 979.9822C247.5476 988.2822 246.5676 994.6322 246.5676 1003.9022V1262.2022C246.5676 1289.5522 268.5476 1311.5222 296.3776 1311.5222ZM542.4676 344.7222C601.0676 344.7222 648.4276 296.8722 648.4276 237.3022C648.4276 179.2022 601.0676 131.3522 542.4676 131.3522C482.8976 131.3522 435.0476 179.2022 435.0476 237.3022C435.0476 296.8722 482.8976 344.7222 542.4676 344.7222Z"/>
</svg>