<?xml version="1.0" encoding="UTF-8" standalone="no"?>
<svg xmlns="http://www.w3.org/2000/svg"
     width="817.2792213627843" height="1234.8041637799536"
     viewBox="0 0 817.2792213627843 1234.8041637799536"
     fill="currentColor">
  <path d="M673.34 188.9611C725.59 188.9611 767.58 146.9711 767.58 94.7311C767.58 42.9711 725.59 0.0011 673.34 0.0011C620.61 0.0011 578.61 42.9711 578.61 94.7311C578.61 146.9711 620.61 188.9611 673.34 188.9611ZM282.23 398.4411C340.82 398.4411 389.16 350.5811 389.16 291.0111C389.16 232.4211 340.82 185.0611 282.23 185.0611C223.14 185.0611 175.78 232.4211 175.78 291.0111C175.78 350.5811 223.14 398.4411 282.23 398.4411ZM0 636.2311C0 674.3211 39.55 692.3811 70.31 676.7611L241.21 590.8211C249.51 586.4211 258.79 591.3111 260.74 600.1011L310.55 799.3211L232.42 994.6311H48.34C21.97 994.6311 0 1016.1111 0 1042.4811C0 1068.8511 21.97 1090.3311 48.34 1090.3311H262.21C284.18 1090.3311 297.85 1081.5411 308.59 1062.0111L412.6 869.6311L470.7 1022.9511L286.13 1146.9711C264.16 1161.6211 257.81 1192.3811 272.46 1213.3811C287.11 1234.8611 314.94 1242.1911 338.87 1226.0711L557.13 1081.0511C573.73 1070.3111 581.54 1054.2011 574.22 1024.9011L445.31 509.7611C442.38 499.0211 445.31 489.2611 457.52 482.9111L790.53 316.4111C814.45 305.1711 824.22 275.8811 812.01 251.9511C799.8 228.0311 771.48 218.7511 747.56 230.4711L96.19 556.1511V393.5511C96.19 367.1911 75.2 345.7011 48.34 345.7011C21.97 345.7011 0 367.1911 0 393.5511Z"/>
</svg>