<?xml version="1.0" encoding="UTF-8" standalone="no"?>
<svg xmlns="http://www.w3.org/2000/svg"
     width="1176.6357421875" height="1164.3239396161082"
     viewBox="0 0 1176.6357421875 1164.3239396161082"
     fill="currentColor">
  <path d="M402.2262 764.0676C461.3062 834.8676 556.5162 825.0976 604.3662 753.3276L1054.5662 79.4976C1070.1862 55.5676 1063.8462 24.3176 1040.4062 8.6976C1017.4562 -6.9324 985.7162 -1.0724 969.6062 22.8576L765.9962 329.0076C743.0462 364.1676 703.0062 382.7176 661.0062 382.7176C616.5762 382.7176 571.1662 361.7176 542.3562 318.7576L346.0662 22.8576C330.4462 -1.0724 299.1962 -6.9324 275.2662 8.6976C251.8262 24.3176 245.4862 55.5676 261.1062 79.4976L501.8262 440.3376C513.0662 456.9376 513.5462 479.3976 501.8262 496.4876L434.9362 597.5576L288.4562 470.6076C267.9462 452.0576 236.2062 451.0776 213.7462 473.5376L15.0162 673.2476C-5.0038 693.7576 -5.0038 724.5176 15.0162 744.5376C36.9862 765.5276 67.2562 763.0876 85.8162 744.5376L249.8762 581.4476ZM127.3162 67.7776H207.3962C203.9762 49.7076 205.9362 30.6676 212.7662 13.5776H127.3162C112.1862 13.5776 99.9762 25.7876 99.9762 40.9176C99.9762 56.0576 112.1862 67.7776 127.3162 67.7776ZM432.4962 67.7776H882.6862L913.4562 22.3676C915.4062 19.9276 917.3562 16.5076 919.3162 13.5776H396.3662C398.3162 16.5076 400.2662 19.9276 402.2262 22.8576ZM1108.2762 67.7776H1149.7762C1164.9162 67.7776 1176.6362 56.0576 1176.6362 40.9176C1176.6362 25.7876 1164.9162 13.5776 1149.7762 13.5776H1102.9062C1109.7462 30.6676 1111.6962 49.2176 1108.2762 67.7776ZM661.0062 330.9576C720.0962 330.9576 767.9462 283.5976 767.9462 224.5176C767.9462 165.4376 720.0962 117.5776 661.0062 117.5776C601.9262 117.5776 554.5662 165.4376 554.5662 224.5176C554.5662 283.5976 601.9262 330.9576 661.0062 330.9576ZM522.3362 1141.5076C537.9662 1118.0676 532.1062 1088.2876 508.1762 1072.1676L329.4662 952.5376L428.0962 843.6576C405.6362 832.9176 385.1362 816.3076 366.0862 794.3376L330.9362 753.3276L210.8162 933.9876C195.1862 956.9376 201.0462 988.6776 224.4862 1004.7876L453.0062 1155.6676C476.4362 1171.7776 507.6862 1164.4576 522.3362 1141.5076Z"/>
</svg>