<?xml version="1.0" encoding="UTF-8" standalone="no"?>
<svg xmlns="http://www.w3.org/2000/svg"
     width="996.09375" height="996.09375"
     viewBox="0 0 996.09375 996.09375"
     fill="currentColor">
  <path d="M498.0477 996.0959C770.5077 996.0959 996.0977 770.0159 996.0977 498.0459C996.0977 225.5859 770.0177 -0.0041 497.5577 -0.0041C225.5877 -0.0041 -0.0023 225.5859 -0.0023 498.0459C-0.0023 770.0159 226.0777 996.0959 498.0477 996.0959ZM523.9277 274.9059C489.2577 274.9059 460.4477 245.6059 460.4477 210.9359C460.4477 175.2959 488.7677 146.4859 523.9277 146.4859C559.5677 146.4859 588.3777 175.2959 588.3777 210.9359C588.3777 245.1159 559.0777 274.9059 523.9277 274.9059ZM617.6777 809.0859C604.4877 809.0859 594.7277 802.7359 588.8677 789.5459L523.9277 657.2259C520.0177 651.3659 518.5577 648.4359 513.1877 642.0859L453.6177 567.3859C437.0077 546.3859 421.3877 522.4559 423.8277 488.7659L429.1977 421.3859C429.6877 411.1359 419.9177 405.2759 411.6177 412.5959L382.3277 438.4759L376.4677 513.1859C374.9977 532.7159 363.7677 542.9659 346.6777 541.9959C329.0977 540.5259 318.8477 528.3159 320.7977 509.2759L326.1677 440.9159C328.1277 421.8759 333.4977 409.6659 347.6577 395.5059L395.0177 349.6059C425.7777 320.3159 453.6177 304.6859 485.3477 304.6859C529.7877 304.6859 556.1477 335.4459 553.2277 381.8359L547.3677 463.8659C545.4077 493.6559 539.0577 513.6759 529.2977 545.4059L526.3677 555.6659L563.4777 607.9059C568.3577 614.7459 574.7077 624.0259 580.5677 636.7159L641.1177 760.2559C645.0177 768.0659 647.4577 774.4159 647.4577 781.2459C647.4577 797.3659 634.7677 809.0859 617.6777 809.0859ZM634.7677 479.0059C617.1877 479.0059 609.3777 476.0759 599.6077 466.3059L579.0977 445.7959L583.9877 373.5359L628.9077 423.3359H707.5177C727.0477 423.3359 739.2577 434.0859 739.2577 451.1759C739.2577 468.2659 727.5377 479.0059 707.5177 479.0059ZM338.3777 809.5659C322.7577 809.5659 312.0077 798.3359 312.0077 782.2259C312.0077 771.4859 317.8677 764.1559 325.1977 755.3759L412.5977 651.8559L426.2677 583.9859L474.1177 644.0459L469.2377 664.5459C466.3077 674.8059 465.8177 674.8059 455.5677 687.4959L361.3277 799.3159C355.9577 806.1559 347.1677 809.5659 338.3777 809.5659Z"/>
</svg>