<?xml version="1.0" encoding="UTF-8" standalone="no"?>
<svg xmlns="http://www.w3.org/2000/svg"
     width="626.3492404358865" height="1199.21875"
     viewBox="0 0 626.3492404358865 1199.21875"
     fill="currentColor">
  <path d="M71.2883 1199.2234C99.6083 1199.2234 120.6083 1177.7334 120.6083 1151.3634V917.4834L257.3283 771.9734C259.7683 769.5334 264.1583 769.5334 266.5983 772.4634L397.4583 947.7534L508.7883 1168.9434C539.5483 1230.9534 626.4683 1186.5234 596.6783 1127.4434L368.1683 669.4334C347.6583 628.4134 337.3983 573.2434 332.5183 517.0934C331.0583 499.0234 342.7783 490.2334 358.3983 498.0434L448.7283 543.9434L532.2283 710.9334C562.0083 770.0234 651.3683 729.9834 619.6283 666.9934L528.8083 485.8434C523.9283 476.0734 516.5983 468.7534 506.8383 463.8634L376.9483 398.9234C338.3783 379.3934 298.8283 372.0734 262.2083 362.7934C220.2183 352.5434 182.6183 339.3534 157.2283 303.2234L98.1483 217.2834V48.3434C98.1483 21.9734 75.6883 0.0034 48.8283 0.0034C21.9683 0.0034 -0.0017 21.9734 -0.0017 48.3434V232.9134C-0.0017 243.6534 2.4383 250.9734 8.7883 260.2534L112.3083 409.6634C121.5783 423.3434 127.4383 432.1334 129.3983 455.0734C133.2983 509.2734 145.0183 609.8634 166.9883 682.6134L32.2283 869.6334C25.8783 879.3934 23.4383 888.6734 23.4383 897.9534V1151.3634C23.4383 1177.7334 44.4383 1199.2234 71.2883 1199.2234ZM295.8983 310.0634C354.4883 310.0634 401.8583 262.6934 401.8583 203.1234C401.8583 144.5334 354.4883 97.1634 295.8983 97.1634C236.3283 97.1634 188.9683 144.5334 188.9683 203.1234C188.9683 262.6934 236.3283 310.0634 295.8983 310.0634Z"/>
</svg>