<?xml version="1.0" encoding="UTF-8" standalone="no"?>
<svg xmlns="http://www.w3.org/2000/svg"
     width="928.2099267997771" height="1219.23828125"
     viewBox="0 0 928.2099267997771 1219.23828125"
     fill="currentColor">
  <path d="M658.1856 213.3741C717.2756 213.3741 765.1256 165.5241 765.1256 106.4441C765.1256 47.3641 717.2756 0.0041 658.1856 0.0041C599.1056 0.0041 551.7456 47.3641 551.7456 106.4441C551.7456 165.5241 599.1056 213.3741 658.1856 213.3741ZM266.1056 1106.9341H606.9256C661.1156 1106.9341 705.5556 1095.7041 740.2256 1065.9141C754.3856 1054.2041 753.8956 1039.0641 747.0556 1028.8041C739.2456 1017.0941 721.6656 1011.2341 705.5556 1023.4341C679.6756 1043.9441 652.3356 1052.7341 606.9256 1052.7341H602.0356V768.0641C602.0356 753.4141 598.6156 739.7441 588.8556 727.0541L466.2956 571.2841L570.7856 411.1341C577.6256 400.8741 592.2756 400.8741 597.6456 412.5941L632.3156 482.4241C641.1056 499.0241 658.1856 510.2541 677.2356 510.2541H878.4056C905.7456 510.2541 928.2056 487.7941 928.2056 459.9641C928.2056 432.6141 905.7456 410.1541 878.4056 410.1541H707.9956L655.2656 303.2241C634.2656 261.2341 591.2956 234.3741 543.4456 234.3741H275.8656C259.2656 234.3741 243.1556 242.6741 233.8756 256.8341L133.7756 407.7141C118.6356 430.1741 124.9856 461.4241 147.9356 476.5641C170.3956 492.1841 201.6456 485.8441 217.2756 462.4041L302.7256 334.4741H385.2456C391.5856 334.4741 395.4956 340.3341 391.5856 346.6841L307.1156 473.6341C280.7456 512.6941 286.1156 565.9141 319.8156 599.6141L501.9356 782.7141V1052.7341H266.1056C220.2056 1052.7341 193.3456 1043.9441 166.9756 1023.4341C152.3356 1012.2041 136.7056 1016.1141 128.4056 1025.8741C118.6356 1036.1341 117.1756 1052.7341 132.3156 1065.9141C166.9756 1095.7041 211.4156 1106.9341 266.1056 1106.9341ZM17.5656 673.3441L214.3456 845.7041C245.5956 873.5341 280.2656 858.8841 295.3956 834.9641L371.0856 718.2641L288.0756 635.2541C287.0956 633.7841 286.1156 632.8141 284.6556 631.3441L235.3356 730.4641L82.9956 597.6541C62.4856 580.0741 30.7456 581.5441 12.6856 602.5341C-5.8744 623.5341 -3.9144 655.2741 17.5656 673.3441ZM266.1056 1219.2341C289.0456 1219.2341 308.5856 1200.1941 308.5856 1177.2441C308.5856 1154.2941 289.0456 1134.7641 266.1056 1134.7641C243.1556 1134.7641 223.6156 1154.2941 223.6156 1177.2441C223.6156 1200.1941 243.1556 1219.2341 266.1056 1219.2341ZM606.9256 1219.2341C629.8656 1219.2341 648.9156 1200.1941 648.9156 1177.2441C648.9156 1154.2941 629.8656 1134.7641 606.9256 1134.7641C583.9756 1134.7641 564.4356 1154.2941 564.4356 1177.2441C564.4356 1200.1941 583.9756 1219.2341 606.9256 1219.2341Z"/>
</svg>