<?xml version="1.0" encoding="UTF-8" standalone="no"?>
<svg xmlns="http://www.w3.org/2000/svg"
     width="704.58984375" height="1230.2918912107616"
     viewBox="0 0 704.58984375 1230.2918912107616"
     fill="currentColor">
  <path d="M49.8083 1229.9783H301.7583C332.0283 1229.9783 346.1883 1215.3283 351.0783 1188.4783L394.0383 953.1283H593.2583L554.1983 1169.9183C548.3383 1204.5883 571.2883 1227.5383 596.6783 1229.9783C621.0983 1232.4183 647.9483 1220.6983 653.8083 1188.4783L702.6383 916.5083C708.9883 878.4183 687.0083 855.4683 659.6683 852.5383L482.4183 833.0083L497.5583 665.0383C498.0483 656.7383 504.8783 651.3683 512.6983 651.3683H654.2983C681.6383 651.3683 704.5883 627.9283 704.5883 600.5883V323.7283C704.5883 303.2183 691.8983 284.6683 672.8483 277.3483C654.2983 269.5283 632.8083 272.9483 618.1683 287.5983L587.3983 318.8483L559.0783 293.4583C573.7283 279.2983 570.7983 257.3283 555.6683 243.1683L296.3883 9.7683C280.7583 -4.3917 258.7883 -2.9317 244.6283 12.6983L220.2183 41.0183C206.5383 56.6383 207.0283 77.6383 223.1483 92.2883L480.9583 324.7083C496.5783 338.3783 516.1183 336.9183 531.2483 322.2683L559.0783 347.1683L342.2883 564.4483C317.8683 588.8683 302.2483 619.6283 298.8283 657.2283L255.3683 1129.3983H49.8083C21.9683 1129.3983 -0.0017 1151.3683 -0.0017 1179.1983C-0.0017 1207.0283 21.9683 1229.9783 49.8083 1229.9783ZM301.7583 488.2783C359.8683 488.2783 407.2283 440.9183 407.2283 381.3483C407.2283 322.7583 359.8683 275.3883 301.7583 275.3883C242.1883 275.3883 194.8283 322.7583 194.8283 381.3483C194.8283 440.9183 242.1883 488.2783 301.7583 488.2783ZM604.0083 445.3083V549.8083H498.5383Z"/>
</svg>