<?xml version="1.0" encoding="UTF-8" standalone="no"?>
<svg xmlns="http://www.w3.org/2000/svg"
     width="1166.9921875" height="1165.2239386377273"
     viewBox="0 0 1166.9921875 1165.2239386377273"
     fill="currentColor">
  <path d="M522.9483 676.9438L791.5083 759.9538L1048.3383 876.6538C1114.7483 906.4338 1153.8083 813.1738 1091.3083 784.3638L648.9283 584.6538V347.3538C648.9283 327.8238 653.8083 325.3838 667.9683 320.0138L801.2683 265.8138C817.8683 258.9738 819.3383 255.0638 827.6383 245.3038L967.7783 82.7038C986.3283 61.2238 982.9083 29.4838 961.9183 11.9038C940.9183 -6.1662 908.6883 -3.2362 891.1183 17.7638L757.3283 173.5238L141.5983 424.9938C124.0283 431.8238 112.7883 439.1538 105.4683 446.4738H356.4483L432.1283 416.2038C447.2683 410.3438 452.6383 415.7138 452.6383 424.9938V580.2638C452.6383 631.5338 476.0783 662.7838 522.9483 676.9438ZM490.7183 218.4438C549.3183 218.4438 596.6783 171.0838 596.6783 112.0038C596.6783 53.4038 549.3183 6.0438 490.7183 6.0438C431.1483 6.0438 383.7883 53.4038 383.7883 112.0038C383.7883 171.0838 431.1483 218.4438 490.7183 218.4438ZM27.3483 549.5038H404.2983V495.3038H27.3483C11.7183 495.3038 -0.0017 507.0238 -0.0017 522.1538C-0.0017 537.2938 11.7183 549.5038 27.3483 549.5038ZM1140.1383 549.5038C1155.2783 549.5038 1166.9883 537.2938 1166.9883 522.1538C1166.9883 507.0238 1155.2783 495.3038 1140.1383 495.3038H697.7583V549.5038ZM478.5183 1102.7238C467.2883 1141.2938 498.0483 1165.2238 527.8283 1165.2238C548.3383 1165.2238 569.3383 1153.9938 575.6883 1129.0938L647.4583 869.3238C648.4383 864.4438 648.9283 859.5638 648.9283 855.6538V763.8538L532.2283 728.2138L547.3683 852.7238Z"/>
</svg>