<?xml version="1.0" encoding="UTF-8" standalone="no"?>
<svg xmlns="http://www.w3.org/2000/svg"
     width="970.1441852110289" height="981.842041015625"
     viewBox="0 0 970.1441852110289 981.842041015625"
     fill="currentColor">
  <path d="M838.3128 265.6217C911.5528 265.6217 970.1428 204.5917 970.1428 133.7917C970.1428 60.0617 911.5528 0.0017 838.3128 0.0017C764.5828 0.0017 705.4928 60.0617 705.4928 133.7917C705.4928 206.0517 764.5828 265.6217 838.3128 265.6217ZM309.0128 353.5117C333.4228 326.1717 317.8028 289.5517 281.1828 289.5517H198.1728V45.4117C198.1728 23.9217 181.5728 7.3217 159.5928 7.3217C138.6028 7.3217 122.0028 23.9217 122.0028 45.4117V289.5517H39.9728C1.3928 289.5517 -11.7872 327.6317 11.6528 353.5117L132.7428 490.7217C148.8528 509.2817 171.8028 509.2817 188.4028 490.7217ZM51.6828 963.3817C77.0828 990.2317 120.5328 987.7917 151.7828 956.0517L361.7428 739.2617C369.0728 731.9317 373.4628 729.9817 384.2028 734.3717L548.2728 796.3817C653.7428 836.9117 752.8628 802.2417 799.2428 718.2617L904.7128 526.3717C946.2228 451.1717 932.5428 374.5117 861.7428 336.4217C792.9028 298.3417 721.1228 327.1517 679.6128 403.8117L542.4128 653.3217L426.2028 610.8417C369.0728 589.8417 320.7328 596.6817 274.3428 644.5317L56.0828 870.1217C26.2928 901.3717 28.7428 940.4317 51.6828 963.3817Z"/>
</svg>