<?xml version="1.0" encoding="UTF-8" standalone="no"?>
<svg xmlns="http://www.w3.org/2000/svg"
     width="1155.76171875" height="914.55078125"
     viewBox="0 0 1155.76171875 914.55078125"
     fill="currentColor">
  <path d="M314.45 152.8303C356.45 152.8303 390.63 118.6503 390.63 76.6603C390.63 34.6703 356.45 0.0003 314.45 0.0003C272.46 0.0003 238.28 34.6703 238.28 76.6603C238.28 118.6503 272.46 152.8303 314.45 152.8303ZM604.49 339.3603C663.57 339.3603 711.43 291.9903 711.43 232.9103C711.43 173.8303 663.57 125.9803 604.49 125.9803C545.41 125.9803 498.05 173.8303 498.05 232.9103C498.05 291.9903 545.41 339.3603 604.49 339.3603ZM372.07 572.7503C481.93 586.4303 496.58 649.9003 577.64 649.9003C580.57 649.9003 582.52 649.9003 585.45 649.4103L633.3 515.1403C638.67 499.5103 647.46 493.6503 664.06 493.6503H1098.14C1126.46 493.6503 1150.39 469.7303 1150.39 440.9203C1150.39 413.0903 1126.46 389.1603 1098.14 389.1603H280.27L212.4 167.4803C204.1 139.1603 175.29 123.5303 148.44 131.8403C121.09 140.6203 105.96 169.9203 113.77 195.8003L189.94 450.1903C197.27 474.1203 215.82 493.6503 241.21 493.6503H380.86C391.11 493.6503 397.95 501.9503 394.53 512.2103ZM27.34 778.8103H76.66C207.03 778.8103 236.82 698.7303 327.15 698.7303C417.48 698.7303 447.27 778.8103 577.64 778.8103C708.5 778.8103 737.79 698.7303 828.61 698.7303C918.95 698.7303 948.24 778.8103 1079.1 778.8103H1128.42C1143.55 778.8103 1155.76 767.0903 1155.76 751.9503C1155.76 736.8203 1143.55 724.6103 1128.42 724.6103H1079.1C985.35 724.6103 953.61 644.5303 828.61 644.5303C703.13 644.5303 671.39 724.6103 577.64 724.6103C483.89 724.6103 452.64 644.5303 327.15 644.5303C202.15 644.5303 170.41 724.6103 76.66 724.6103H27.34C11.72 724.6103 0 736.8203 0 751.9503C0 767.0903 11.72 778.8103 27.34 778.8103ZM309.57 835.9403C325.68 835.9403 338.38 823.2403 338.38 807.1303C338.38 791.5003 325.68 778.8103 309.57 778.8103C293.95 778.8103 281.25 791.5003 281.25 807.1303C281.25 823.2403 293.95 835.9403 309.57 835.9403ZM847.17 835.9403C863.28 835.9403 875.49 823.2403 875.49 807.1303C875.49 791.5003 863.28 778.8103 847.17 778.8103C831.05 778.8103 818.85 791.5003 818.85 807.1303C818.85 823.2403 831.05 835.9403 847.17 835.9403ZM217.29 857.4203C233.4 857.4203 246.09 845.2103 246.09 829.1003C246.09 812.9903 233.4 800.7803 217.29 800.7803C201.66 800.7803 188.96 812.9903 188.96 829.1003C188.96 845.2103 201.66 857.4203 217.29 857.4203ZM401.86 857.4203C417.97 857.4203 430.18 845.2103 430.18 829.1003C430.18 812.9903 417.97 800.7803 401.86 800.7803C385.74 800.7803 373.54 812.9903 373.54 829.1003C373.54 845.2103 385.74 857.4203 401.86 857.4203ZM754.88 857.4203C771 857.4203 783.69 845.2103 783.69 829.1003C783.69 812.9903 771 800.7803 754.88 800.7803C739.26 800.7803 726.56 812.9903 726.56 829.1003C726.56 845.2103 739.26 857.4203 754.88 857.4203ZM939.45 857.4203C955.57 857.4203 967.77 845.2103 967.77 829.1003C967.77 812.9903 955.57 800.7803 939.45 800.7803C923.34 800.7803 911.13 812.9903 911.13 829.1003C911.13 845.2103 923.34 857.4203 939.45 857.4203ZM131.84 897.9503C147.46 897.9503 160.16 885.2503 160.16 869.6303C160.16 853.5203 147.46 840.8203 131.84 840.8203C115.72 840.8203 103.03 853.5203 103.03 869.6303C103.03 885.2503 115.72 897.9503 131.84 897.9503ZM488.28 897.9503C504.39 897.9503 517.09 885.2503 517.09 869.6303C517.09 853.5203 504.39 840.8203 488.28 840.8203C472.66 840.8203 459.96 853.5203 459.96 869.6303C459.96 885.2503 472.66 897.9503 488.28 897.9503ZM668.46 897.9503C684.57 897.9503 696.78 885.2503 696.78 869.6303C696.78 853.5203 684.57 840.8203 668.46 840.8203C652.34 840.8203 640.14 853.5203 640.14 869.6303C640.14 885.2503 652.34 897.9503 668.46 897.9503ZM1025.39 897.9503C1041.5 897.9503 1053.71 885.2503 1053.71 869.6303C1053.71 853.5203 1041.5 840.8203 1025.39 840.8203C1009.28 840.8203 997.07 853.5203 997.07 869.6303C997.07 885.2503 1009.28 897.9503 1025.39 897.9503ZM40.04 914.5503C56.15 914.5503 68.85 901.8603 68.85 885.7403C68.85 870.1203 56.15 857.4203 40.04 857.4203C24.41 857.4203 11.72 870.1203 11.72 885.7403C11.72 901.8603 24.41 914.5503 40.04 914.5503ZM578.61 914.5503C594.24 914.5503 606.93 901.8603 606.93 885.7403C606.93 870.1203 594.24 857.4203 578.61 857.4203C562.5 857.4203 549.8 870.1203 549.8 885.7403C549.8 901.8603 562.5 914.5503 578.61 914.5503ZM1116.21 914.5503C1132.32 914.5503 1145.02 901.8603 1145.02 885.7403C1145.02 870.1203 1132.32 857.4203 1116.21 857.4203C1100.59 857.4203 1087.89 870.1203 1087.89 885.7403C1087.89 901.8603 1100.59 914.5503 1116.21 914.5503Z"/>
</svg>