<?xml version="1.0" encoding="UTF-8" standalone="no"?>
<svg xmlns="http://www.w3.org/2000/svg"
     width="720.7885766706834" height="1207.03125"
     viewBox="0 0 720.7885766706834 1207.03125"
     fill="currentColor">
  <path d="M402.7948 213.3797C461.3948 213.3797 508.7548 165.5297 508.7548 105.9597C508.7548 47.3597 461.3948 -0.0003 402.7948 -0.0003C343.2248 -0.0003 295.3748 47.3597 295.3748 105.9597C295.3748 165.5297 343.2248 213.3797 402.7948 213.3797ZM517.0548 498.5397C537.0748 519.5297 575.6448 518.0697 593.2248 490.2297L711.8748 299.7997C748.5048 241.2097 662.5648 194.3397 628.8748 248.0497L542.9348 386.7197L475.5548 318.8497C410.6048 254.3897 339.8048 241.2097 241.1748 252.4397L67.3448 271.9697C44.8848 274.4097 27.3048 292.4797 24.8648 313.9697L0.4548 505.8597C-7.3552 567.3797 88.3448 583.4997 96.6448 517.5797L116.1748 364.2597L206.9948 353.9997C219.6948 353.0297 228.4848 361.3297 226.5248 375.4897L203.5748 563.4797C192.3448 652.3397 243.6148 703.6097 331.5048 697.2697L511.1948 684.5697L457.4848 880.3697C439.4148 946.2897 534.6348 969.2397 551.7248 905.2697L622.5248 644.5297C631.3148 611.3297 608.8548 583.0097 571.7448 583.0097H386.1948L409.6348 422.8497C412.0748 407.2297 426.2348 406.7397 435.0248 416.4997ZM251.9148 734.3797L240.1948 908.1997L148.4048 1137.6997C132.2848 1178.7097 161.5848 1207.0297 191.8548 1207.0297C210.9048 1207.0297 229.9448 1196.7797 239.7148 1172.3597L333.4648 937.0097C334.4348 933.5897 335.9048 929.6897 336.3948 926.2697L363.7348 742.6797L334.9248 744.6297C304.1648 746.5797 275.8448 742.6797 251.9148 734.3797Z"/>
</svg>