<?xml version="1.0" encoding="UTF-8" standalone="no"?>
<svg xmlns="http://www.w3.org/2000/svg"
     width="1024.3063448809542" height="1231.1029626371778"
     viewBox="0 0 1024.3063448809542 1231.1029626371778"
     fill="currentColor">
  <path d="M205.1121 1078.1297H433.1421C452.1821 1078.1297 471.2221 1069.3397 480.9921 1050.7797L584.9921 859.3797C588.4121 852.0497 598.1721 852.5397 600.6221 859.8597L655.3021 1006.3497L458.0421 1137.6997C435.0921 1153.3197 429.2321 1184.5697 444.3721 1208.4997C459.5021 1231.9297 491.2421 1238.2797 514.6821 1222.1697L738.8021 1073.7297C761.2621 1058.5897 772.0021 1034.6697 765.6621 1008.2997L628.9421 464.8397C624.0521 446.7797 628.9421 437.0097 642.6121 430.1797L996.1221 253.4197C1021.5121 240.7197 1031.2821 209.4697 1019.0721 184.5697C1006.3821 159.1797 976.1021 148.4397 950.2321 161.6197L215.8521 529.2997L98.6621 412.1097C92.8021 406.2497 86.4621 401.3697 80.1121 396.9697L186.5521 210.4497C193.3921 211.9097 200.7121 212.8897 208.5321 212.8897C267.6121 212.8897 314.9721 165.5297 314.9721 106.4497C314.9721 47.3597 267.6121 -0.0003 208.5321 -0.0003C149.4421 -0.0003 102.0821 47.3597 102.0821 106.4497C102.0821 138.1797 115.7521 166.4997 137.7321 186.0397L6.3821 415.5297C-4.8479 435.5497 -0.9479 457.0297 15.6621 473.6297L168.9821 627.4397C182.6521 640.6297 207.0621 647.9497 232.4521 635.2497L406.2821 547.8497C418.4921 541.9897 429.7221 547.3597 432.1621 557.6197L484.4121 767.5797L400.9121 975.5897H205.1121C176.3021 975.5897 153.8421 998.0497 153.8421 1026.8597C153.8421 1054.6897 176.3021 1078.1297 205.1121 1078.1297ZM208.5321 158.6897C178.2521 158.6897 156.2821 136.2297 156.2821 106.4497C156.2821 76.6597 178.2521 54.1997 208.5321 54.1997C238.3121 54.1997 260.7721 76.6597 260.7721 106.4497C260.7721 136.2297 238.3121 158.6897 208.5321 158.6897ZM462.9221 336.4297C521.5121 336.4297 569.3721 289.0597 569.3721 229.9797C569.3721 171.3897 521.5121 123.5397 462.9221 123.5397C403.8421 123.5397 356.4821 171.3897 356.4821 229.9797C356.4821 289.0597 403.8421 336.4297 462.9221 336.4297Z"/>
</svg>