<?xml version="1.0" encoding="UTF-8" standalone="no"?>
<svg xmlns="http://www.w3.org/2000/svg"
     width="1121.1606079821117" height="759.27734375"
     viewBox="0 0 1121.1606079821117 759.27734375"
     fill="currentColor">
  <path d="M923.4051 213.3819C982.4851 213.3819 1029.8551 166.0119 1029.8551 106.9319C1029.8551 47.8519 982.4851 0.0019 923.4051 0.0019C864.3251 0.0019 816.4751 47.8519 816.4751 106.9319C816.4751 166.0119 864.3251 213.3819 923.4051 213.3819ZM65.4951 714.3519L352.6051 642.5819V709.9619C352.6051 737.3019 375.0651 759.2819 401.9251 759.2819C429.2651 759.2819 451.7251 737.3019 451.7251 709.9619V624.5119L660.2251 593.2619C698.7951 587.8919 736.3951 570.8019 768.1351 546.8719L948.7951 411.6219C955.6351 406.7419 965.3951 407.7119 968.8151 416.0119L1022.0351 523.4419V709.9619C1022.0351 738.7719 1042.5451 759.2819 1071.8451 759.2819C1101.1451 759.2819 1121.1651 738.7719 1121.1651 709.9619V511.7219C1121.1651 503.9019 1119.6951 495.6019 1115.7851 488.7719L1030.3451 318.3619C1013.2551 284.1819 980.0451 263.1819 941.9651 263.1819H898.0151C855.5351 263.1819 813.5451 277.3419 779.3651 303.2219L637.7651 408.6919L429.7551 367.1919C386.2951 358.4019 352.6051 377.4419 352.6051 423.3419V540.0419L41.5751 619.1419C9.3451 626.9519 -2.8649 651.8519 0.5551 674.8019C4.9451 700.6819 28.8751 723.6319 65.4951 714.3519ZM451.7251 516.1119V478.5119L519.5951 499.5119ZM687.0751 759.2819H885.3251C926.3351 759.2819 959.5351 726.0719 959.5351 684.5719C959.5351 644.0419 926.3351 610.3519 885.3251 610.3519H687.0751C645.5751 610.3519 612.8551 644.0419 612.8551 684.5719C612.8551 726.0719 645.5751 759.2819 687.0751 759.2819ZM885.3251 724.1219C863.8351 724.1219 846.2551 706.0519 846.2551 684.0819C846.2551 663.0819 863.8351 645.5119 885.3251 645.5119C907.2951 645.5119 924.3851 663.0819 924.3851 684.0819C924.3851 706.0519 907.2951 724.1219 885.3251 724.1219Z"/>
</svg>