<?xml version="1.0" encoding="UTF-8" standalone="no"?>
<svg xmlns="http://www.w3.org/2000/svg"
     width="1107.3672103163326" height="1107.3672103163324"
     viewBox="0 0 1107.3672103163326 1107.3672103163324"
     fill="currentColor">
  <path d="M54.7573 661.6849L445.8673 1052.7949C518.1273 1125.0649 589.4173 1125.5549 661.1973 1054.2649L1054.2673 660.7049C1125.5573 589.4249 1125.0673 517.6449 1052.7973 445.3749L662.1773 54.7549C589.9073 -17.5151 518.6173 -18.4851 446.8473 53.2849L53.2873 446.3549C-18.4927 518.1349 -17.5127 589.4249 54.7573 661.6849ZM579.6573 330.6349C544.9873 330.6349 516.1773 301.3349 516.1773 266.6649C516.1773 231.0249 544.4973 202.2149 579.6573 202.2149C615.2973 202.2149 644.1073 231.0249 644.1073 266.6649C644.1073 300.8449 614.3273 330.6349 579.6573 330.6349ZM673.4073 864.8149C660.2173 864.8149 650.4573 858.4649 644.5973 845.2749L579.1673 712.9549C575.7473 707.0949 574.2873 704.1649 568.9173 697.8149L509.3473 623.1149C492.7373 602.1149 477.1173 578.1849 479.5573 544.4949L484.4373 477.1149C485.4173 466.8649 475.1673 461.0049 467.3473 468.3249L438.0573 494.2049L432.1973 568.9149C430.7273 588.4449 419.0073 598.6949 402.4073 597.7249C384.8273 596.2549 374.5773 584.0449 376.0373 565.0049L381.8973 496.6449C383.8573 477.6049 388.7373 465.3949 403.3873 451.2349L450.7473 405.3349C481.0173 376.0449 509.3473 360.4149 540.5973 360.4149C585.5173 360.4149 611.8773 391.1749 608.4673 437.5649L603.0973 519.5949C601.1373 549.3849 594.3073 569.4049 585.0273 601.1349L581.6073 611.3949L618.7173 663.6349C624.0873 670.4749 630.4373 679.7549 635.8073 692.4449L696.8473 815.9849C700.7473 823.7949 702.6973 830.1449 702.6973 836.9749C702.6973 853.0949 690.0073 864.8149 673.4073 864.8149ZM690.0073 534.7349C672.9173 534.7349 664.6173 531.8049 655.3373 522.0349L634.8273 501.5249L639.7173 429.2649L684.6373 479.0649H762.7573C782.2873 479.0649 794.4973 489.8149 794.4973 506.9049C794.4973 523.9949 782.7773 534.7349 762.7573 534.7349ZM394.1073 865.2949C377.9973 865.2949 367.7373 854.0649 367.7373 837.9549C367.7373 827.2149 373.1073 819.8849 380.4373 811.1049L467.8373 707.5849L481.9973 639.7149L529.3573 699.7749L524.4773 720.2749C522.0373 730.5349 521.5473 730.5349 511.2973 743.2249L417.0573 855.0449C411.1973 861.8849 402.8973 865.2949 394.1073 865.2949Z"/>
</svg>