<?xml version="1.0" encoding="UTF-8" standalone="no"?>
<svg xmlns="http://www.w3.org/2000/svg"
     width="791.5075914928034" height="1071.77734375"
     viewBox="0 0 791.5075914928034 1071.77734375"
     fill="currentColor">
  <path d="M561.042 212.4005C620.122 212.4005 667.482 165.0405 667.482 105.9605C667.482 47.3605 620.122 0.0005 561.042 0.0005C501.952 0.0005 454.592 47.3605 454.592 105.9605C454.592 165.0405 501.952 212.4005 561.042 212.4005ZM381.352 1071.7805C594.242 1071.7805 736.332 929.6905 736.332 716.8005C736.332 604.9805 683.112 539.5505 583.502 539.5505H518.072C506.842 539.5505 499.512 532.2305 503.912 518.5505L548.832 382.3205C569.342 319.8205 540.042 263.1805 470.702 245.6005L269.042 194.8205C249.512 189.9405 234.872 193.3605 217.292 203.6105L21.492 313.9605C-1.458 327.1505 -6.828 360.8405 9.282 382.3205C24.902 404.3005 52.742 408.2005 77.642 395.5105L257.332 300.2905L362.312 328.1205C382.812 333.9805 390.632 348.1405 383.792 367.1905L328.622 521.9705C303.222 594.7305 346.192 656.7405 416.512 656.7405H598.152C635.742 656.7405 662.112 679.2005 662.112 716.8005C662.112 885.2505 550.292 997.5605 381.842 997.5605C213.382 997.5605 100.592 885.2505 100.592 716.8005C100.592 658.6905 117.682 607.9105 146.002 565.4305C177.742 518.0705 114.752 478.5205 81.542 528.3205C47.372 580.5705 26.372 644.5305 26.372 716.8005C26.372 929.6905 167.972 1071.7805 381.352 1071.7805ZM737.792 1071.7805C767.582 1071.7805 791.512 1047.8505 791.512 1018.0705C791.512 988.2805 767.582 964.3605 737.792 964.3605C708.012 964.3605 684.082 988.2805 684.082 1018.0705C684.082 1047.8505 708.012 1071.7805 737.792 1071.7805Z"/>
</svg>