<?xml version="1.0" encoding="UTF-8" standalone="no"?>
<svg xmlns="http://www.w3.org/2000/svg"
     width="996.09375" height="996.09375"
     viewBox="0 0 996.09375 996.09375"
     fill="currentColor">
  <path d="M498.0477 996.0959C770.5077 996.0959 996.0977 770.0159 996.0977 498.0459C996.0977 225.5859 770.0177 -0.0041 497.5577 -0.0041C225.5877 -0.0041 -0.0023 225.5859 -0.0023 498.0459C-0.0023 770.0159 226.0777 996.0959 498.0477 996.0959ZM456.0577 835.9359C436.0377 835.9359 424.3177 823.7259 424.3177 802.7359V412.5959C424.3177 399.9059 419.4377 391.1159 408.6877 383.2959L335.4477 328.6159C319.3377 316.8959 312.0077 304.1959 311.0377 285.1559L304.1977 182.6159C302.7377 163.5759 312.9877 151.8559 330.0777 150.3859C347.6577 148.9259 358.8877 159.6659 359.8677 178.7059L367.1877 282.2259L413.0877 314.4559C429.1977 325.6859 439.9377 330.0759 462.3977 330.0759H503.9077C612.7977 330.0759 663.0877 354.4959 663.0877 444.3359V585.9359C663.0877 604.9759 652.3477 616.6959 635.2577 616.6959C617.6777 616.6959 606.4477 604.9759 606.4477 585.9359V436.5259C606.4477 426.7559 600.5877 419.9259 592.2877 419.9259C583.4977 419.9259 578.1277 426.2659 578.1277 436.5259V802.7359C578.1277 824.2159 567.3877 835.9359 547.3677 835.9359C527.3477 835.9359 515.1377 823.7259 515.1377 802.7359V583.0059C515.1377 573.7259 509.7677 566.8959 500.9777 566.8959C492.1877 566.8959 486.8177 573.2459 486.8177 583.0059V802.7359C486.8177 824.2159 475.5877 835.9359 456.0577 835.9359ZM503.9077 298.3359C469.2377 298.3359 439.9377 269.5359 439.9377 234.8659C439.9377 199.2159 468.2577 170.4059 503.9077 170.4059C539.5477 170.4059 568.3577 199.2159 568.3577 234.8659C568.3577 269.0459 538.5777 298.3359 503.9077 298.3359Z"/>
</svg>