<?xml version="1.0" encoding="UTF-8" standalone="no"?>
<svg xmlns="http://www.w3.org/2000/svg"
     width="1121.1782793293708" height="1035.64453125"
     viewBox="0 0 1121.1782793293708 1035.64453125"
     fill="currentColor">
  <path d="M830.0783 212.8955C888.1883 212.8955 935.5483 165.5255 935.5483 105.9555C935.5483 47.3655 888.1883 -0.0045 830.0783 -0.0045C770.5083 -0.0045 723.1483 47.3655 723.1483 105.9555C723.1483 165.5255 770.5083 212.8955 830.0783 212.8955ZM32.2283 366.2155C17.0883 366.2155 4.8783 378.4155 4.8783 392.5755C4.8783 407.7155 17.0883 420.4055 32.2283 420.4055H268.0683C280.2783 420.4055 292.9683 415.0355 302.7383 405.2755L434.0783 274.4155H520.9983C528.3183 274.4155 531.2483 281.2455 525.3883 286.6255L419.4383 393.0655C375.4883 437.0155 374.9983 499.0255 419.4383 543.4555L582.5183 706.0555V981.4455H136.2283C121.5783 981.4455 108.8883 993.1655 108.8883 1007.8155C108.8883 1022.4655 121.0983 1035.6455 136.2283 1035.6455H990.2383C1040.0383 1035.6455 1069.8283 1023.4355 1104.4883 1006.8355C1119.1383 1000.4855 1124.5083 984.8655 1119.1383 972.6555C1115.2383 958.9855 1099.1183 949.7055 1081.5383 958.4955C1053.7083 972.6555 1031.7383 981.4455 990.2383 981.4455H681.6383V685.5455C681.6383 675.7855 678.7083 664.5555 671.8783 655.7655L563.4783 509.7655L701.1683 371.5855C710.4483 361.8155 724.1183 361.8155 733.3983 371.5855L864.2583 503.4155C873.0483 513.1855 886.7183 517.0855 899.4183 517.0855C912.1083 517.0855 924.8083 512.2055 934.0783 503.4155L1041.0183 396.4855V877.4455C1041.0183 892.5755 1053.2183 904.7855 1067.3783 904.7855C1082.5183 904.7855 1095.2183 892.5755 1095.2183 877.4455V321.7755C1095.2183 278.3155 1041.5083 254.8855 1009.7683 286.6255L899.4183 396.9755L712.8883 211.9155C688.9683 188.4755 665.0383 175.2955 626.9483 175.2955H419.4383C401.3683 175.2955 388.6683 180.1755 375.4883 192.8755L233.3983 334.9655C224.1183 344.2355 219.7283 354.9755 218.7483 366.2155ZM360.8383 544.4355L291.9883 636.7155H49.3183C22.4583 636.7155 -0.0017 658.2055 -0.0017 686.0355C-0.0017 713.3755 22.4583 734.8655 49.3183 734.8655H316.4083C330.5683 734.8655 343.2583 729.4955 354.4883 718.2655L441.4083 631.8355L386.2283 577.1455C375.9783 566.4055 367.6783 556.1555 360.8383 544.4355Z"/>
</svg>