<?xml version="1.0" encoding="UTF-8" standalone="no"?>
<svg xmlns="http://www.w3.org/2000/svg"
     width="901.4734498435581" height="1113.3615742214872"
     viewBox="0 0 901.4734498435581 1113.3615742214872"
     fill="currentColor">
  <path d="M450.8494 208.9859C507.9694 208.9859 554.3594 162.1059 554.3594 104.0059C554.3594 46.8759 507.9694 -0.0041 450.8494 -0.0041C392.7394 -0.0041 345.8594 46.8759 345.8594 104.0059C345.8594 162.1059 392.7394 208.9859 450.8494 208.9859ZM450.8494 656.2459L568.5194 840.8159L656.4094 1083.0059C666.1794 1109.8659 692.0594 1118.6559 714.0294 1110.3559C737.4694 1102.5359 749.6694 1075.6859 740.8794 1052.7359L652.0194 808.1059L563.6394 565.4259V345.2159C563.6394 334.9559 569.0094 325.6859 578.2894 320.7959L877.5994 161.1359C899.5794 149.4159 907.8794 122.5559 896.1594 100.0959C884.4394 78.1259 857.5794 70.3159 835.6094 82.0359L546.5494 234.8659C514.3194 251.9559 482.5794 259.7659 450.8494 259.7659C419.1094 259.7659 387.3694 251.9559 355.1394 234.8659L66.0794 82.0359C44.1094 70.3159 17.2494 78.1259 5.5294 100.0959C-6.6706 122.5559 2.1094 149.4159 24.0894 161.1359L323.3994 320.7959C332.6794 325.6859 338.0494 334.9559 338.0494 345.2159V565.4259L249.6694 808.1059L160.8094 1052.7359C152.0194 1075.6859 164.2194 1102.5359 187.1694 1110.3559C209.6294 1118.6559 235.5094 1109.8659 245.2794 1083.0059L333.1694 840.8159Z"/>
</svg>