<?xml version="1.0" encoding="UTF-8" standalone="no"?>
<svg xmlns="http://www.w3.org/2000/svg"
     width="1279.7919472655801" height="989.654541015625"
     viewBox="0 0 1279.7919472655801 989.654541015625"
     fill="currentColor">
  <path d="M65.4351 426.7542C52.7451 439.4542 52.7451 459.9642 65.4351 472.1642C77.6451 484.3742 98.1551 484.3742 110.3551 472.1642L139.1651 443.8442C180.6751 476.0742 233.4051 495.6042 291.0251 495.6042C347.6651 495.6042 399.4251 476.5642 440.9251 444.3342L468.7551 472.1642C480.9651 484.3742 501.4751 484.3742 513.6751 472.1642C526.3751 459.9642 526.3751 439.4542 513.6751 426.7542L485.8451 398.9242C517.5851 356.9342 536.6251 305.1742 536.6251 249.5142C536.6251 191.8942 517.5851 138.6742 485.8451 96.6842L513.6751 69.3342C526.3751 56.1542 526.3751 36.1342 513.6751 23.9242C501.4751 11.7142 480.9651 11.7142 468.7551 23.9242L441.4151 51.2742C399.9051 19.0442 348.1551 0.0042 291.0251 0.0042C233.4051 0.0042 180.6751 19.0442 138.1951 51.7542L110.3551 23.9242C98.1551 11.7142 77.6451 11.7142 65.4351 23.9242C52.7451 36.1342 52.7451 56.1542 65.4351 69.3342L93.7551 97.1642C61.0451 139.1642 41.9951 191.8942 41.9951 249.5142C41.9951 304.6842 61.5351 356.9342 93.7551 398.4342ZM804.2051 273.4342C877.4451 273.4342 936.0451 212.4042 936.0451 141.6042C936.0451 67.8742 877.4451 7.8142 804.2051 7.8142C730.4751 7.8142 671.3951 67.8742 671.3951 141.6042C671.3951 213.8642 730.4751 273.4342 804.2051 273.4342ZM291.0251 63.9642C330.0851 63.9642 366.2151 76.1742 395.5151 97.1642L289.5551 203.1242L184.0851 97.6542C214.3651 76.1742 250.9851 63.9642 291.0251 63.9642ZM472.6651 249.5142C472.6651 288.0842 460.4551 323.7342 439.9451 353.5142L334.4751 248.0442L439.9451 142.5742C460.4551 172.8542 472.6651 209.4742 472.6651 249.5142ZM105.9651 249.5142C105.9651 209.9642 118.1751 172.8542 139.1651 142.5742L244.6351 248.0442L139.6551 353.0242C118.6551 323.2442 105.9651 287.5942 105.9651 249.5142ZM291.0251 431.6442C251.4751 431.6442 214.8551 418.9442 184.5751 397.9442L289.5551 292.9642L395.0251 398.4342C365.2451 419.4342 329.5951 431.6442 291.0251 431.6442ZM719.2451 779.2942C740.7251 762.2042 761.2351 733.3942 780.7651 697.2642L870.6151 534.1842C912.1151 458.9842 898.4451 382.3242 827.6451 344.2342C758.3051 306.1542 687.5051 335.4442 645.5151 411.6242L552.7451 579.1042ZM1014.1651 988.7742H1248.5451C1266.6051 988.7742 1279.7951 976.0742 1279.7951 958.4942C1279.7951 940.4342 1266.6051 927.7342 1248.5451 927.7342H1083.0151V926.2742L1188.9751 812.0142C1226.5651 771.9742 1254.8851 736.8142 1254.8851 686.5242C1254.8851 616.6942 1200.6951 571.2842 1115.7251 571.2842C1052.7451 571.2842 996.5851 609.3742 981.4551 661.1342C979.9851 667.9642 979.0151 673.3442 979.0151 679.6842C979.0151 697.7542 990.7251 709.9642 1009.2851 709.9642C1025.8851 709.9642 1034.1851 699.7042 1042.4851 686.0342C1054.2051 659.1842 1077.6451 631.3442 1118.6551 631.3442C1160.1651 631.3442 1188.4851 655.7642 1188.4851 691.4042C1188.4851 723.1442 1161.1351 750.0042 1135.2651 777.8342L993.1751 930.6642C985.3551 938.9642 980.9651 947.7542 980.9651 958.4942C980.9651 977.0542 993.6551 988.7742 1014.1651 988.7742ZM17.5851 971.1942C42.9751 998.0442 86.4351 995.6042 117.6851 963.8642L327.6451 747.0742C334.9651 739.7442 339.3651 737.7942 350.1051 742.1842L527.3551 809.0842C565.9251 823.7342 607.9151 820.8042 638.6751 814.9442L516.6051 664.0642L392.0951 618.6542C334.9651 597.6542 286.6251 604.4942 240.2451 652.3442L21.9751 877.9342C-7.8049 909.1842 -5.3649 948.2442 17.5851 971.1942ZM824.7151 977.0542C844.7351 961.4242 846.1951 937.0142 827.1551 914.0642L719.2451 779.2942C694.3451 796.8742 666.9951 809.0842 638.6751 814.9442L763.1951 967.7742C781.2551 989.7442 804.2051 994.1442 824.7151 977.0542Z"/>
</svg>