<?xml version="1.0" encoding="UTF-8" standalone="no"?>
<svg xmlns="http://www.w3.org/2000/svg"
     width="1110.83984375" height="1063.241924248384"
     viewBox="0 0 1110.83984375 1063.241924248384"
     fill="currentColor">
  <path d="M617.6783 213.3753C676.2683 213.3753 724.1183 165.0353 724.1183 106.4453C724.1183 47.8553 676.2683 -0.0047 617.6783 -0.0047C559.0783 -0.0047 510.7383 47.8553 510.7383 106.4453C510.7383 165.0353 559.0783 213.3753 617.6783 213.3753ZM754.8783 1059.5753C775.8783 1051.2653 791.9883 1029.7853 783.6883 999.9953L709.9583 742.6753C706.0583 730.4653 699.2183 720.7053 687.4983 713.8653L533.6883 623.5353L606.9383 406.2453C612.3083 389.6453 629.8783 387.6953 642.0883 399.9053L750.9783 508.3053C760.7383 517.5753 772.4583 522.9453 785.1583 522.9453C798.3383 522.9453 810.5483 518.5553 820.3083 508.3053L967.2883 360.8353C985.8383 341.3053 987.3083 311.5253 967.2883 291.9953C948.2383 272.9453 917.4783 272.4653 897.9483 291.9953L785.1583 404.7853L690.9183 307.1253C647.4583 262.2053 601.0783 252.9253 510.7383 252.9253H116.6983V215.3353C155.7583 194.3353 184.0783 148.9253 184.0783 109.8653C184.0783 58.1053 143.5583 17.0853 92.2883 17.0853C41.0183 17.0853 -0.0017 58.1053 -0.0017 109.8653C-0.0017 148.9253 28.3183 194.3353 67.3783 215.3353V252.9253H49.3183C22.4583 252.9253 -0.0017 274.9053 -0.0017 302.2453C-0.0017 329.1053 22.4583 351.0753 49.3183 351.0753H392.0883C406.2483 351.0753 419.4383 362.7953 412.5983 382.3253L355.4683 553.7153C335.4483 614.2553 363.7683 679.1953 422.3683 704.5853L621.0983 791.9953L689.4483 1025.3953C699.2183 1060.0553 730.4683 1068.3553 754.8783 1059.5753ZM809.5683 632.8153H1110.8383V578.6153H809.5683C794.4383 578.6153 782.7183 590.3353 782.7183 605.4653C782.7183 620.6053 794.4383 632.8153 809.5683 632.8153ZM131.8383 1042.4853C144.5283 1061.0353 169.4383 1070.8053 196.7783 1056.1553L416.0183 934.5753C426.7583 928.7153 434.5683 918.9453 438.9683 906.2453L480.9583 781.7353L403.8083 748.0453C394.5283 743.6553 385.7383 739.2553 376.9483 733.3953L350.0983 858.3953L149.4183 970.7053C118.1683 988.7653 117.1883 1021.4853 131.8383 1042.4853Z"/>
</svg>