<?xml version="1.0" encoding="UTF-8" standalone="no"?>
<svg xmlns="http://www.w3.org/2000/svg"
     width="1238.28125" height="959.7861520725534"
     viewBox="0 0 1238.28125 959.7861520725534"
     fill="currentColor">
  <path d="M824.2183 213.3761C883.2983 213.3761 931.1483 165.5261 931.1483 106.4461C931.1483 47.3661 883.2983 -0.0039 824.2183 -0.0039C765.1383 -0.0039 717.7783 47.3661 717.7783 106.4461C717.7783 165.5261 765.1383 213.3761 824.2183 213.3761ZM481.4483 956.5461C503.4183 964.3561 530.7583 958.9861 544.9183 930.1761L669.9183 680.1761C679.6883 661.1361 677.2483 638.6761 660.6483 622.5561L509.7683 471.1961L700.6883 375.9761C709.4683 371.0961 719.7283 373.5361 726.5583 380.3661L840.3283 493.1661C849.1183 501.9561 861.8183 507.8161 874.9983 507.8161H1100.5883C1127.9283 507.8161 1150.3883 485.8361 1150.3883 457.5161V343.7461C1172.8483 314.9461 1238.2783 221.6761 1238.2783 138.6761C1238.2783 72.2661 1190.4283 24.9061 1124.0283 24.9061C1057.6183 24.9061 1009.7683 72.2661 1009.7683 138.6761C1009.7683 221.1961 1073.7283 313.9661 1096.6783 343.2661V407.7161H895.5083L685.0583 196.7761C660.1583 171.8761 625.9783 157.7161 590.3283 157.7161H174.8083C147.4583 157.7161 124.9983 180.1761 124.9983 207.5161C124.9983 235.3561 147.4583 257.8161 174.8083 257.8161H488.2783C493.6483 257.8161 495.6083 266.1161 490.7183 268.5561L397.4583 314.9461C348.1483 339.3561 323.2383 385.7461 323.2383 432.6161C323.2383 473.1461 341.3083 513.1861 378.4183 540.0361L561.5283 673.3361L455.5683 885.7461C438.9683 919.4361 456.5383 946.7761 481.4483 956.5461ZM1124.0283 79.1061C1159.1783 79.1061 1184.0783 104.4961 1184.0783 138.6761C1184.0783 186.0361 1147.9483 249.5161 1124.0283 288.0861C1100.0983 249.5161 1063.9683 186.0361 1063.9683 138.6761C1063.9683 104.4961 1088.8683 79.1061 1124.0283 79.1061ZM49.8083 757.8161H299.8083C319.3383 757.8161 336.4283 746.5861 345.2183 730.4661L401.8583 615.7261L351.0783 578.1261C333.0083 564.9461 317.3783 548.8261 305.6683 532.2261L264.6483 657.7161H49.8083C22.4583 657.7161 -0.0017 680.1761 -0.0017 707.5161C-0.0017 734.8661 22.4583 757.8161 49.8083 757.8161Z"/>
</svg>