<?xml version="1.0" encoding="UTF-8" standalone="no"?>
<svg xmlns="http://www.w3.org/2000/svg"
     width="1036.5000520549838" height="891.735605154292"
     viewBox="0 0 1036.5000520549838 891.735605154292"
     fill="currentColor">
  <path d="M518.2536 213.3775C576.8436 213.3775 624.2036 165.5275 624.2036 105.9575C624.2036 47.3675 576.8436 -0.0025 518.2536 -0.0025C458.6836 -0.0025 410.8236 47.3675 410.8236 105.9575C410.8236 165.5275 458.6836 213.3775 518.2536 213.3775ZM16.2936 412.1075L179.8736 576.1675C202.3336 598.6375 238.9536 599.1175 260.9236 571.7775L363.9536 444.8275C370.7936 437.0075 381.5336 441.4075 381.5336 451.1675V667.4775L196.9636 646.9775C133.4836 639.6475 112.9736 732.9075 174.0136 752.9275L383.4836 822.2675C373.2336 865.7275 410.8236 902.8275 453.7936 888.6675L518.2536 867.6775L582.7036 888.6675C625.6736 902.8275 663.2736 865.7275 653.0136 822.2675L862.9736 752.9275C924.0136 732.9075 903.0136 639.6475 839.5436 646.9775L654.9736 667.4775V451.1675C654.9736 441.4075 666.2036 437.0075 672.5436 444.8275L775.5736 571.7775C797.5436 599.1175 834.1636 598.6375 856.6336 576.1675L1020.2036 412.1075C1041.6836 390.1375 1042.1736 356.4475 1020.2036 334.9575C999.2036 313.9675 964.5436 313.9675 943.0536 334.9575L822.4536 456.0575L699.4036 305.1775C678.8936 280.2775 648.1336 264.6475 615.4136 264.6475H421.5736C388.3636 264.6475 358.0936 280.2775 337.0936 305.1775L214.0536 456.0575L93.4436 334.9575C71.9636 313.9675 37.2936 313.9675 16.2936 334.9575C-5.6764 356.4475 -5.1864 390.1375 16.2936 412.1075Z"/>
</svg>