<?xml version="1.0" encoding="UTF-8" standalone="no"?>
<svg xmlns="http://www.w3.org/2000/svg"
     width="817.4375582591546" height="1070.8583951642393"
     viewBox="0 0 817.4375582591546 1070.8583951642393"
     fill="currentColor">
  <path d="M510.4114 212.8933C569.4914 212.8933 616.8514 165.5233 616.8514 106.4433C616.8514 47.3633 569.4914 0.0033 510.4114 0.0033C451.3214 0.0033 403.9614 47.3633 403.9614 106.4433C403.9614 165.5233 451.3214 212.8933 510.4114 212.8933ZM343.4114 637.6933L530.4314 742.6733L409.8214 846.1933C383.9414 868.1633 384.4314 896.9733 400.0514 914.5533C416.1714 932.6133 444.9814 937.0133 471.8314 914.0633L640.2914 770.5033C663.2414 750.9733 659.8214 708.9833 631.9914 690.9133L448.8814 570.8033L485.0214 444.3333C489.9014 426.2733 510.8914 423.8233 521.6414 439.4533L575.3514 518.0633C588.0414 536.1333 610.9914 543.4533 631.9914 533.6933L786.7714 464.8433C814.1214 452.6333 824.3714 428.7133 812.6514 403.8133C800.4414 379.3933 777.0114 372.0733 749.6614 384.2733L627.1014 438.4733L542.6314 321.7733C498.6914 261.2333 444.0014 236.3233 354.1614 243.1633L182.7714 255.3733C155.4314 257.3233 136.8714 274.9033 132.9614 303.2233L110.0214 477.0533C105.6214 507.3233 120.7614 528.3233 147.6114 531.2533C174.9614 533.6933 192.5314 518.0633 196.4414 487.7933L217.4414 345.7033L286.2814 340.8233C301.4214 339.3533 316.5614 350.0933 311.1914 369.1433L271.1514 508.7933C247.7114 591.3133 301.4214 613.7733 343.4114 637.6933ZM16.7514 1059.5733C34.8214 1074.7033 62.6514 1076.6633 87.5514 1052.7333L245.7614 895.9933C258.9414 882.8133 261.8714 879.8833 270.1714 859.3733L336.5814 687.5033L320.4614 678.7133C283.3514 658.6933 257.4814 638.1833 239.9014 616.2133L181.7914 821.7733L17.7314 985.3533C-8.1486 1010.7433 -3.2686 1041.9933 16.7514 1059.5733Z"/>
</svg>