<?xml version="1.0" encoding="UTF-8" standalone="no"?>
<svg xmlns="http://www.w3.org/2000/svg"
     width="843.1147888601166" height="1058.5539050157768"
     viewBox="0 0 843.1147888601166 1058.5539050157768"
     fill="currentColor">
  <path d="M465.1814 213.3773C523.2914 213.3773 571.1414 165.5273 571.1414 105.9573C571.1414 47.8473 523.2914 -0.0027 465.1814 -0.0027C405.6114 -0.0027 357.7614 47.8473 357.7614 105.9573C357.7614 165.5273 405.6114 213.3773 465.1814 213.3773ZM327.0014 984.8673C346.0414 979.4873 357.7614 973.6373 365.5714 958.9873L473.0014 765.6273C474.9514 762.2073 476.4114 760.7373 480.8114 760.7373H743.5014V1008.2973C743.5014 1036.6173 765.9714 1058.1073 792.8214 1058.1073C821.1414 1058.1073 843.1114 1036.6173 843.1114 1008.2973V716.7973C843.1114 684.0773 825.5414 664.5473 791.3614 661.6173L570.1614 641.5973V363.7673C570.1614 309.5673 532.0814 264.6473 465.1814 264.6473H441.7514C402.2014 264.6473 371.9214 271.4873 332.8614 300.7773L168.8014 423.8273C140.4814 444.3373 142.4314 485.8373 171.2414 504.8873L371.9214 638.1873V650.8773L284.5214 893.0673L36.4714 961.4273C10.1114 968.7473 -5.5186 995.6073 1.8014 1021.9773C9.6214 1049.8073 34.5214 1063.9673 62.8414 1056.6373ZM284.5214 460.9373L358.7414 405.2773C364.6014 401.3673 371.9214 404.2973 371.9214 411.6173V519.0473Z"/>
</svg>