<?xml version="1.0" encoding="UTF-8" standalone="no"?>
<svg xmlns="http://www.w3.org/2000/svg"
     width="959.9609375" height="1083.0078125"
     viewBox="0 0 959.9609375 1083.0078125"
     fill="currentColor">
  <path d="M-0.0017 1042.4803C-0.0017 1064.9403 18.5583 1083.0103 40.5283 1083.0103C62.9883 1083.0103 81.5383 1064.9403 81.5383 1042.4803V40.5303C81.5383 18.0703 62.9883 0.0003 40.5283 0.0003C18.5583 0.0003 -0.0017 18.0703 -0.0017 40.5303ZM630.3683 214.3603C689.4483 214.3603 736.8183 166.5003 736.8183 107.9103C736.8183 48.8303 689.4483 1.4603 630.3683 1.4603C571.2883 1.4603 523.9283 48.8303 523.9283 107.9103C523.9283 166.5003 571.2883 214.3603 630.3683 214.3603ZM741.2083 1040.5303C771.4883 1101.5603 861.3283 1063.9603 828.6183 997.5603L729.0083 795.9003C721.1883 780.7603 710.9383 764.1603 701.1683 750.9803L638.1883 661.6203L642.5783 648.4403C659.6683 597.6603 666.0183 567.3803 669.4383 517.0903L679.1983 375.9803C684.0783 309.0803 644.5283 258.3003 576.1683 258.3003C524.4183 258.3003 489.7483 284.1803 442.3783 330.5703L367.6783 404.3003C343.2583 428.2203 335.4483 447.7503 333.0083 479.4903L323.7283 594.7303C321.7783 624.0203 337.8883 644.5303 364.7483 645.5103C392.0883 647.4603 408.6883 631.3503 411.1283 600.1003L421.8783 473.6303L458.0083 441.4103C470.6983 429.6903 487.7883 437.5003 486.8183 450.6803L479.0083 557.6203C475.0983 611.8203 487.3083 637.6903 524.8983 684.0803L623.5383 808.1103C633.7883 820.8003 634.7683 825.6803 639.1583 833.5003ZM910.6483 448.7303H798.3383L727.0483 370.1203L718.7483 487.7903L747.0683 516.1103C763.1883 531.7403 776.8583 536.6203 805.6683 536.6203H910.6483C940.4283 536.6203 959.9583 520.0203 959.9583 492.6803C959.9583 466.3103 939.9383 448.7303 910.6483 448.7303ZM383.7883 1055.1803L530.2783 880.3703C544.9183 863.2803 546.8783 859.3703 552.7383 841.3103L563.4783 808.1103L484.8683 709.4703L461.4283 819.8203L316.4083 991.7003C270.5083 1046.8703 345.6983 1100.5903 383.7883 1055.1803Z"/>
</svg>