<?xml version="1.0" encoding="UTF-8" standalone="no"?>
<svg xmlns="http://www.w3.org/2000/svg"
     width="1277.2833092919" height="1107.91015625"
     viewBox="0 0 1277.2833092919 1107.91015625"
     fill="currentColor">
  <path d="M644.9578 213.3814C704.0378 213.3814 751.4078 166.0114 751.4078 106.9314C751.4078 47.8514 704.0378 0.0014 644.9578 0.0014C585.8778 0.0014 538.0278 47.8514 538.0278 106.9314C538.0278 166.0114 585.8778 213.3814 644.9578 213.3814ZM1066.3478 364.2614C1093.6878 364.2614 1116.1478 342.2814 1116.1478 313.9614C1116.1478 286.6214 1093.6878 264.6514 1066.3478 264.6514H541.9278C494.0778 264.6514 452.5778 290.0414 430.6078 333.4914L209.4078 776.3714L84.4078 651.3714C64.8778 631.8314 33.1378 632.3214 14.0978 651.3714C-4.9422 670.9014 -4.4522 702.1514 14.0978 721.6814L190.3678 898.4414C211.3678 918.9414 244.0778 916.0114 261.1678 891.1114L405.6978 680.1714C413.5178 667.9714 430.6078 666.0114 441.8378 674.3114L619.5678 810.5514V1058.5914C619.5678 1085.9414 641.5378 1107.9114 669.3778 1107.9114C697.2078 1107.9114 719.1778 1085.9414 719.1778 1058.5914V785.6414C719.1778 772.4614 713.8078 759.7614 704.5278 750.4914L531.6778 577.6414L624.4478 391.6014C633.7278 373.5314 649.8378 364.2614 668.3978 364.2614ZM1028.2578 481.9314C1028.2578 529.3014 1084.4078 568.3614 1152.7678 568.3614C1221.6178 568.3614 1277.2878 529.3014 1277.2878 481.9314C1277.2878 433.5914 1221.6178 395.0214 1152.7678 395.0214C1084.4078 395.0214 1028.2578 433.5914 1028.2578 481.9314ZM743.5878 587.4014H942.3178C969.6678 587.4014 991.6378 564.4514 991.6378 538.0814C991.6378 510.2514 969.6678 487.7914 942.3178 487.7914H764.0978L686.9478 411.1314H674.7478C669.8578 411.1314 666.9278 413.0814 664.4878 417.4814L626.8878 491.2114L708.9278 572.7514C718.6878 582.0314 730.8978 587.4014 743.5878 587.4014Z"/>
</svg>