<?xml version="1.0" encoding="UTF-8" standalone="no"?>
<svg xmlns="http://www.w3.org/2000/svg"
     width="807.4690236221312" height="1183.59375"
     viewBox="0 0 807.4690236221312 1183.59375"
     fill="currentColor">
  <path d="M653.3183 495.6056H788.0883C804.1983 495.6056 811.0383 481.9356 805.6683 467.2856C796.3883 439.4556 774.8983 417.9656 748.0483 409.1756V26.8556C748.0483 11.7156 735.8383 -0.0044 720.6983 -0.0044C705.5683 -0.0044 693.8483 11.7156 693.8483 26.8556V409.1756C666.5083 417.9656 645.0183 439.4556 635.7383 467.2856C630.3683 481.9356 637.2083 495.6056 653.3183 495.6056ZM390.6283 242.1856C449.2183 242.1856 497.0683 194.8256 497.0683 134.7656C497.0683 76.6556 449.2183 28.8056 390.6283 28.8056C331.0583 28.8056 283.6883 76.6556 283.6883 134.7656C283.6883 194.8256 331.0583 242.1856 390.6283 242.1856ZM49.8083 1177.7356C71.2883 1188.9656 102.5383 1184.5656 117.1883 1158.2056L240.2383 936.5256L312.9883 772.9456C314.4483 769.5356 319.3383 768.0656 322.2683 770.9956L517.5783 912.5956V1133.7856C517.5783 1161.6256 539.5483 1183.5956 566.8983 1183.5956C594.7283 1183.5956 616.2083 1161.6256 616.2083 1133.7856V890.6256C616.2083 876.4656 612.3083 861.8156 601.0783 851.5656L397.4583 659.1756L416.5083 504.3956C416.9883 498.5356 424.8083 498.0456 426.7583 502.9256L472.1683 610.8356C479.9783 629.8856 497.5583 641.1156 517.5783 641.1156H727.0483C754.3983 641.1156 776.3683 619.1356 776.3683 591.7956C776.3683 564.4556 754.3983 542.4756 727.0483 542.4756H549.8083L479.4883 376.9556C460.9383 333.9856 433.5983 309.5656 371.0983 292.4756L342.7783 284.6656C274.8983 265.6256 228.5183 262.6956 173.8283 286.6256L98.6283 318.8456V135.7456C98.6283 108.8856 76.1683 86.9156 49.3183 86.9156C21.9683 86.9156 -0.0017 108.8856 -0.0017 135.7456V399.9056C-0.0017 435.0556 36.6183 454.1056 68.8483 439.9456L208.4983 378.9056C214.8483 376.4656 220.6983 380.3756 219.7283 387.2056L149.4183 896.9756L30.2783 1110.8356C17.5783 1133.7856 25.8783 1165.5256 49.8083 1177.7356Z"/>
</svg>