<?xml version="1.0" encoding="UTF-8" standalone="no"?>
<svg xmlns="http://www.w3.org/2000/svg"
     width="1304.1597750037242" height="1171.875"
     viewBox="0 0 1304.1597750037242 1171.875"
     fill="currentColor">
  <path d="M692.8288 1171.8766C714.8088 1171.8766 732.3788 1155.7666 732.3788 1133.7866V38.0866C732.3788 16.1166 714.8088 -0.0034 692.8288 -0.0034C670.8588 -0.0034 653.7688 16.1166 653.7688 38.0866V1133.7866C653.7688 1155.7666 670.8588 1171.8766 692.8288 1171.8766ZM264.6088 282.7166C317.8288 282.7166 360.7988 239.2566 360.7988 186.0366C360.7988 132.3266 317.8288 89.8466 264.6088 89.8466C210.8988 89.8466 167.9288 132.3266 167.9288 186.0366C167.9288 239.2566 210.8988 282.7166 264.6088 282.7166ZM1095.6588 282.7166C1149.3788 282.7166 1191.8588 239.2566 1191.8588 186.0366C1191.8588 132.3266 1149.3788 89.8466 1095.6588 89.8466C1042.4388 89.8466 998.9888 132.3266 998.9888 186.0366C998.9888 239.2566 1042.4388 282.7166 1095.6588 282.7166ZM206.4988 1075.6866C230.4288 1075.6866 249.4688 1056.6366 249.4688 1032.7166V851.5666C249.4688 843.2666 256.3088 836.9166 264.6088 836.9166C272.4188 836.9166 279.2588 843.2666 279.2588 851.5666V1032.7166C279.2588 1056.6366 297.8088 1075.6866 322.2288 1075.6866C346.1488 1075.6866 365.1988 1056.6366 365.1988 1032.7166V851.5666H424.7688C449.1788 851.5666 459.4288 831.0566 452.1088 807.6166L362.7488 521.9766C356.4088 500.9766 384.7288 492.6766 391.0788 514.1566L446.7388 692.3866C463.8288 747.0666 543.4188 725.5866 526.3288 669.9266L474.5688 504.8866C440.8788 396.4866 405.2388 333.0066 279.2588 333.0066H249.4688C123.4988 333.0066 87.3588 396.4866 53.6688 504.8866L2.3988 669.9266C-14.6912 725.5866 64.4088 747.0666 81.9888 692.3866L137.6588 514.1566C143.9988 492.6766 172.3288 500.9766 165.4888 521.9766L76.6188 807.6166C69.2988 831.0566 79.5488 851.5666 103.4788 851.5666H163.0488V1032.7166C163.0488 1056.6366 182.5788 1075.6866 206.4988 1075.6866ZM1037.5588 1075.6866C1061.9688 1075.6866 1080.5288 1056.6366 1080.5288 1032.7166V718.2666C1080.5288 710.4466 1087.8488 703.6166 1095.6588 703.6166C1103.4788 703.6166 1110.3088 710.4466 1110.3088 718.2666V1032.7166C1110.3088 1056.6366 1129.8388 1075.6866 1153.7688 1075.6866C1177.6988 1075.6866 1196.7388 1056.6366 1196.7388 1032.7166V516.1166C1196.7388 507.8166 1203.0888 501.9566 1211.3888 501.9566C1219.1988 501.9566 1225.5488 507.8166 1225.5488 516.1166V686.5266C1225.5488 708.9866 1243.1288 726.5666 1265.0988 726.5666C1286.5788 726.5666 1304.1588 708.9866 1304.1588 686.5266V496.0966C1304.1588 398.4366 1232.3788 333.4966 1127.8888 333.4966H1063.4388C958.4588 333.4966 886.6788 398.4366 886.6788 496.0966V686.5266C886.6788 708.9866 904.2588 726.5666 926.2288 726.5666C948.1988 726.5666 965.7788 708.9866 965.7788 686.5266V516.1166C965.7788 507.8166 972.1288 501.9566 979.9388 501.9566C987.7488 501.9566 994.5888 507.8166 994.5888 516.1166V1032.7166C994.5888 1056.6366 1013.6288 1075.6866 1037.5588 1075.6866Z"/>
</svg>