<?xml version="1.0" encoding="UTF-8" standalone="no"?>
<svg xmlns="http://www.w3.org/2000/svg"
     width="1082.03125" height="934.5703125"
     viewBox="0 0 1082.03125 934.5703125"
     fill="currentColor">
  <path d="M617.6786 213.3742C676.2686 213.3742 724.1186 166.0142 724.1186 106.4442C724.1186 47.8542 676.2686 0.0042 617.6786 0.0042C558.1086 0.0042 510.7386 47.8542 510.7386 106.4442C510.7386 166.0142 558.1086 213.3742 617.6786 213.3742ZM694.3386 549.8042C723.1486 549.8042 746.0986 527.3442 746.0986 498.5342C746.0986 469.7242 723.1486 447.2642 694.3386 447.2642H515.1386V263.6742C515.1386 202.6342 463.8686 163.5742 407.2286 175.2942L105.4686 237.7942C-3.9014 260.2542 -33.6914 389.6442 45.8986 459.4742L233.3986 624.5142V883.3042C233.3986 911.1342 256.8386 934.5742 284.6686 934.5742C312.4986 934.5742 335.9386 911.1342 335.9386 883.3042V604.9842C335.9386 586.9142 332.0286 577.1442 320.7986 564.9442L176.2686 419.4342C168.4586 411.1342 172.3586 399.9042 182.1286 397.9442L385.2586 360.3542C405.2686 356.4442 412.5986 363.2842 412.5986 380.8642V498.5342C412.5986 527.3442 436.0386 549.8042 463.8686 549.8042ZM970.2186 743.6542H1041.5086C1065.9186 743.6542 1082.0286 727.5342 1082.0286 703.1242V264.6442C1082.0286 241.6942 1065.9186 225.5842 1042.4786 225.5842H968.2586C793.9486 225.5842 688.4786 270.9942 577.6386 399.9042H654.7886C742.1886 313.9642 832.0286 281.7342 968.2586 281.7342H1025.3886V686.5242H970.2186C952.1486 686.5242 938.9686 677.7342 930.6686 662.5942L886.2286 573.7342C878.9086 559.0842 864.2586 555.6642 852.5386 559.5742C837.8886 564.4542 826.6586 580.0742 835.9386 599.1242L880.8586 688.4742C897.9486 722.1642 931.6386 743.6542 970.2186 743.6542ZM383.2986 716.3042C430.1786 682.6142 467.7686 640.6242 501.4686 597.1642H463.8686C453.1286 597.1642 442.3786 595.2142 432.1286 591.3042C416.9886 609.8642 400.8786 626.4642 383.2986 642.5742ZM28.8086 794.9242H112.7886C138.6686 794.9242 163.5786 793.4542 186.0386 790.0342V733.3942C164.0586 736.8142 138.6686 738.7742 112.7886 738.7742H28.8086C12.6986 738.7742 -0.0014 750.4842 -0.0014 767.0942C-0.0014 781.7342 12.6986 794.9242 28.8086 794.9242Z"/>
</svg>