<?xml version="1.0" encoding="UTF-8" standalone="no"?>
<svg xmlns="http://www.w3.org/2000/svg"
     width="1279.7919472655801" height="989.654541015625"
     viewBox="0 0 1279.7919472655801 989.654541015625"
     fill="currentColor">
  <path d="M291.0251 495.6042C428.7151 495.6042 536.6251 381.8342 536.6251 249.5142C536.6251 111.3242 428.7151 0.0042 291.0251 0.0042C152.8351 0.0042 41.9951 111.3242 41.9951 249.5142C41.9951 381.8342 152.8351 495.6042 291.0251 495.6042ZM804.2051 273.4342C877.4451 273.4342 936.0451 212.4042 936.0451 141.6042C936.0451 67.8742 877.4451 7.8142 804.2051 7.8142C730.4751 7.8142 671.3951 67.8742 671.3951 141.6042C671.3951 213.8642 730.4751 273.4342 804.2051 273.4342ZM719.2451 779.2942C740.7251 762.2042 761.2351 733.3942 780.7651 697.2642L870.6151 534.1842C912.1151 458.9842 898.4451 382.3242 827.6451 344.2342C758.3051 306.1542 687.5051 335.4442 645.5151 411.6242L552.7451 579.1042ZM1014.1651 988.7742H1248.5451C1266.6051 988.7742 1279.7951 976.0742 1279.7951 958.4942C1279.7951 940.4342 1266.6051 927.7342 1248.5451 927.7342H1083.0151V926.2742L1188.9751 812.0142C1226.5651 771.9742 1254.8851 736.8142 1254.8851 686.5242C1254.8851 616.6942 1200.6951 571.2842 1115.7251 571.2842C1052.7451 571.2842 996.5851 609.3742 981.4551 661.1342C979.9851 667.9642 979.0151 673.3442 979.0151 679.6842C979.0151 697.7542 990.7251 709.9642 1009.2851 709.9642C1025.8851 709.9642 1034.1851 699.7042 1042.4851 686.0342C1054.2051 659.1842 1077.6451 631.3442 1118.6551 631.3442C1160.1651 631.3442 1188.4851 655.7642 1188.4851 691.4042C1188.4851 723.1442 1161.1351 750.0042 1135.2651 777.8342L993.1751 930.6642C985.3551 938.9642 980.9651 947.7542 980.9651 958.4942C980.9651 977.0542 993.6551 988.7742 1014.1651 988.7742ZM17.5851 971.1942C42.9751 998.0442 86.4351 995.6042 117.6851 963.8642L327.6451 747.0742C334.9651 739.7442 339.3651 737.7942 350.1051 742.1842L527.3551 809.0842C565.9251 823.7342 607.9151 820.8042 638.6751 814.9442L516.6051 664.0642L392.0951 618.6542C334.9651 597.6542 286.6251 604.4942 240.2451 652.3442L21.9751 877.9342C-7.8049 909.1842 -5.3649 948.2442 17.5851 971.1942ZM824.7151 977.0542C844.7351 961.4242 846.1951 937.0142 827.1551 914.0642L719.2451 779.2942C694.3451 796.8742 666.9951 809.0842 638.6751 814.9442L763.1951 967.7742C781.2551 989.7442 804.2051 994.1442 824.7151 977.0542Z"/>
</svg>