<?xml version="1.0" encoding="UTF-8" standalone="no"?>
<svg xmlns="http://www.w3.org/2000/svg"
     width="1185.9130859375" height="990.234375"
     viewBox="0 0 1185.9130859375 990.234375"
     fill="currentColor">
  <path d="M272.3362 213.3763C330.9362 213.3763 378.7862 165.5263 378.7862 105.9562C378.7862 47.3663 330.9362 -0.0037 272.3362 -0.0037C213.7462 -0.0037 165.4062 47.3663 165.4062 105.9562C165.4062 165.5263 213.7462 213.3763 272.3362 213.3763ZM73.6062 707.5163L164.9162 651.3663V844.2363C201.5362 831.0563 231.3262 813.4763 266.4762 799.8063L274.2962 728.5163C275.2662 723.1463 282.5962 722.1663 284.5462 726.5663L314.3262 786.1363C329.9562 782.7162 347.0462 780.7663 367.5562 780.7663C391.4762 780.7663 410.5262 784.1763 427.1262 790.5263L377.8062 657.7162V520.9962L1107.2962 73.2463C1120.4862 64.9462 1123.9062 48.8262 1115.1162 35.1563C1107.2962 21.9763 1091.1862 18.5562 1078.0062 26.8563L377.8062 456.5463V363.7663C377.8062 309.5662 339.7262 264.6463 272.8262 264.6463H249.8762C209.8362 264.6463 164.9162 270.0163 124.3862 309.5662L13.5462 419.9263C-4.5138 437.9863 -4.5138 469.2363 13.5462 486.8163L134.1562 605.9563L44.7962 660.6463C31.6162 668.9463 27.7062 685.5463 36.4962 698.7262C44.3162 711.9163 60.4262 715.8163 73.6062 707.5163ZM164.9162 504.8863L114.1362 453.6163L149.7762 417.4763C155.6362 411.6163 164.9162 415.0363 164.9162 423.8263ZM57.4962 990.2363H107.2962C237.6662 990.2363 267.4562 909.6663 357.7862 909.6663C448.1162 909.6663 477.9062 990.2363 608.2762 990.2363C738.6462 990.2363 768.4362 909.6663 858.7662 909.6663C949.0962 909.6663 978.8862 990.2363 1109.2562 990.2363H1159.0562C1174.1962 990.2363 1185.9162 978.5163 1185.9162 963.3763C1185.9162 948.2463 1174.1962 936.0363 1159.0562 936.0363H1109.2562C1015.5062 936.0363 983.7662 855.4663 858.7662 855.4663C733.7662 855.4663 702.0262 936.0363 608.2762 936.0363C514.5262 936.0363 482.7862 855.4663 357.7862 855.4663C232.2962 855.4663 201.0462 936.0363 107.2962 936.0363H57.4962C42.3562 936.0363 30.1562 948.2463 30.1562 963.3763C30.1562 978.5163 42.3562 990.2363 57.4962 990.2363Z"/>
</svg>