<?xml version="1.0" encoding="UTF-8" standalone="no"?>
<svg xmlns="http://www.w3.org/2000/svg"
     width="970.7691677726197" height="1117.67578125"
     viewBox="0 0 970.7691677726197 1117.67578125"
     fill="currentColor">
  <path d="M634.7719 213.3742C693.8519 213.3742 741.2119 166.0142 741.2119 106.9342C741.2119 47.8542 693.8519 0.0042 634.7719 0.0042C575.2019 0.0042 527.8319 47.8542 527.8319 106.9342C527.8319 166.0142 575.2019 213.3742 634.7719 213.3742ZM145.5119 567.8742C175.2919 581.5442 202.1519 568.3642 213.8719 544.9242L303.2219 366.6942H410.1619C421.3919 366.6942 429.2019 377.4442 423.3419 387.6942L329.5919 573.7342C294.9219 642.5742 337.4019 729.0042 428.2219 723.6342L680.6619 708.0042L587.4019 915.0342C575.6819 941.4042 586.9119 973.6342 613.2819 983.3942C642.5819 994.6242 667.9719 985.8442 680.6619 957.5242L810.5519 672.3642C824.7119 641.6042 804.6919 599.1242 765.1419 599.1242H536.1319L637.7019 396.4842C641.6019 387.6942 652.3419 385.2542 659.1819 392.5742L778.8119 506.8342C802.7319 529.7842 845.2119 525.8742 861.8219 493.1642L964.8419 286.1342C977.5419 260.2542 969.7319 229.0042 942.3819 216.3042C916.5019 204.1042 885.7419 214.8442 873.0519 240.2342L800.7819 382.8142L742.1919 323.7342C702.6419 284.1842 660.6419 263.6742 596.1919 263.6742H271.4819C251.9519 263.6742 234.3819 274.9042 226.0719 291.9942L121.5819 499.5142C108.8919 524.9042 118.6519 554.6842 145.5119 567.8742ZM5.3719 1069.3342C21.4819 1103.0242 57.1319 1103.5142 73.7319 1096.1942L331.5419 983.8842C342.2919 979.0042 351.5619 970.7042 356.9319 959.4742L451.1719 769.5342L431.1519 770.9942C390.1419 773.4342 354.4919 761.7142 328.1319 741.6942L270.0219 897.4642L32.2319 1000.0042C5.3719 1011.7142 -8.2981 1041.9942 5.3719 1069.3342ZM857.4219 1117.6742C917.4819 1117.6742 964.8419 1070.8042 964.8419 1010.7442C964.8419 951.6642 917.4819 904.2942 857.4219 904.2942C798.3419 904.2942 751.4619 951.6642 751.4619 1010.7442C751.4619 1070.8042 798.3419 1117.6742 857.4219 1117.6742Z"/>
</svg>