<?xml version="1.0" encoding="UTF-8" standalone="no"?>
<svg xmlns="http://www.w3.org/2000/svg"
     width="1047.4453184217498" height="987.996971983659"
     viewBox="0 0 1047.4453184217498 987.996971983659"
     fill="currentColor">
  <path d="M298.9111 213.3742C357.9911 213.3742 405.3611 165.5242 405.3611 105.9542C405.3611 47.3642 357.9911 0.0042 298.9111 0.0042C240.3211 0.0042 191.9811 47.3642 191.9811 105.9542C191.9811 165.5242 240.3211 213.3742 298.9111 213.3742ZM1021.0811 894.0442L699.3011 720.2142L513.2711 590.8242C499.5911 581.5442 486.4111 569.3342 475.6711 555.6642C494.7111 543.9442 502.5211 522.4642 497.1511 501.4642L460.5311 353.0242C447.3511 300.7842 399.9811 264.6442 346.2711 264.6442H230.0611C194.4211 264.6442 169.5211 273.4342 146.5711 296.3842L14.2411 428.7142C-1.8689 444.8242 -4.3089 469.7242 6.9211 489.2542L99.6911 651.8542V937.9842C99.6911 964.8442 122.1511 987.7942 149.5011 987.7942C176.8411 987.7942 199.3011 964.8442 199.3011 937.9842V692.3842L483.9711 712.8942L656.3311 810.5442L974.2011 981.4442C1003.5011 997.0742 1031.8211 982.4242 1042.0711 961.9142C1054.2811 937.5042 1045.0011 906.7342 1021.0811 894.0442ZM112.3911 472.6542L198.3211 386.2342L265.2211 558.5942L212.4811 588.8642H178.7911Z"/>
</svg>