<?xml version="1.0" encoding="UTF-8" standalone="no"?>
<svg xmlns="http://www.w3.org/2000/svg"
     width="1051.8193991387236" height="870.1171875"
     viewBox="0 0 1051.8193991387236 870.1171875"
     fill="currentColor">
  <path d="M806.2099 213.3773C865.2999 213.3773 913.1499 166.0173 913.1499 106.9373C913.1499 47.8473 865.2999 -0.0027 806.2099 -0.0027C747.1299 -0.0027 699.7699 47.8473 699.7699 106.9373C699.7699 166.0173 747.1299 213.3773 806.2099 213.3773ZM467.8399 870.1173C497.1299 870.1173 519.5899 846.1873 519.5899 817.8673V590.3273C519.5899 568.8473 509.8299 553.7073 497.1299 541.0173L346.2499 389.6473L528.8699 343.2573C538.1499 340.8173 545.9599 347.6573 545.9599 356.9373V454.0973C545.9599 467.7773 551.3299 480.9573 561.0999 490.7273L716.3699 646.9773C736.8799 666.9873 770.0799 666.9873 790.5899 646.9773C810.6099 626.9573 811.0999 593.2573 790.5899 573.2373L649.4799 433.1073V334.4773L727.5999 423.3373C737.8499 434.5673 752.0099 441.4073 766.6599 441.4073H1000.5499C1029.3599 441.4073 1051.8199 418.4573 1051.8199 389.1573C1051.8199 360.3473 1029.3599 337.8873 1000.5499 337.8873H790.5899L666.0799 194.3373C627.4999 149.8973 567.9299 132.3273 510.7999 146.4873L244.6899 213.3773C140.1999 239.7473 122.1299 369.1373 205.1399 436.5273L416.0799 608.3973V817.8673C416.0799 846.1873 439.0299 870.1173 467.8399 870.1173ZM15.1999 854.9773C35.2199 874.9973 68.9099 874.9973 89.4199 854.9773L271.0599 673.3373C280.3399 663.5773 283.2599 654.7873 286.1899 639.1573L297.9099 573.2373L182.1899 479.0073V614.7473L15.1999 781.2473C-5.3101 801.2673 -4.8201 834.9573 15.1999 854.9773Z"/>
</svg>