<?xml version="1.0" encoding="UTF-8" standalone="no"?>
<svg xmlns="http://www.w3.org/2000/svg"
     width="1151.3671875" height="898.92578125"
     viewBox="0 0 1151.3671875 898.92578125"
     fill="currentColor">
  <path d="M153.3183 898.9278H998.0483C1100.5883 898.9278 1151.3683 848.6378 1151.3683 748.0478V151.3678C1151.3683 50.7778 1100.5883 -0.0022 998.0483 -0.0022H153.3183C51.2683 -0.0022 -0.0017 50.7778 -0.0017 151.3678V748.0478C-0.0017 848.6378 51.2683 898.9278 153.3183 898.9278ZM154.2983 820.3078C105.4683 820.3078 78.6183 794.4378 78.6183 743.6478V155.7578C78.6183 104.9778 105.4683 78.6178 154.2983 78.6178H997.0683C1045.4083 78.6178 1072.7583 104.9778 1072.7583 155.7578V743.6478C1072.7583 794.4378 1045.4083 820.3078 997.0683 820.3078ZM249.0283 246.0978H662.1083C679.6883 246.0978 692.3783 232.9078 692.3783 215.8178C692.3783 199.2178 679.6883 186.0378 662.1083 186.0378H249.0283C231.4483 186.0378 218.7483 199.2178 218.7483 215.8178C218.7483 232.9078 231.4483 246.0978 249.0283 246.0978ZM205.5683 564.4578H946.2883C986.8183 564.4578 1010.7383 539.0578 1010.7383 499.0278V399.4178C1010.7383 359.3778 986.8183 333.9878 946.2883 333.9878H205.5683C165.0383 333.9878 141.1183 359.3778 141.1183 399.4178V499.0278C141.1183 539.0578 165.0383 564.4578 205.5683 564.4578ZM249.5083 479.4878C231.9383 479.4878 218.7483 466.3078 218.7483 449.2178C218.7483 432.6178 231.9383 419.4378 249.5083 419.4378H489.7483C507.3283 419.4378 520.0183 432.6178 520.0183 449.2178C520.0183 466.3078 507.3283 479.4878 489.7483 479.4878ZM249.0283 712.3978H662.1083C679.6883 712.3978 692.3783 699.7078 692.3783 683.1078C692.3783 666.0178 679.6883 652.3478 662.1083 652.3478H249.0283C231.4483 652.3478 218.7483 666.0178 218.7483 683.1078C218.7483 699.7078 231.4483 712.3978 249.0283 712.3978Z"/>
</svg>