<?xml version="1.0" encoding="UTF-8" standalone="no"?>
<svg xmlns="http://www.w3.org/2000/svg"
     width="1151.3671875" height="899.4140625"
     viewBox="0 0 1151.3671875 899.4140625"
     fill="currentColor">
  <path d="M99.1183 899.4095H1052.2483C1112.7883 899.4095 1151.3683 860.8395 1151.3683 801.7595V97.1695C1151.3683 38.5695 1112.7883 -0.0005 1052.2483 -0.0005H99.1183C39.0583 -0.0005 -0.0017 38.5695 -0.0017 97.1695V801.7595C-0.0017 860.8395 39.0583 899.4095 99.1183 899.4095ZM97.6583 182.6195C83.4983 182.6195 73.7283 172.3595 73.7283 159.6695V104.4895C73.7283 88.8695 83.9883 78.6095 99.6083 78.6095H160.6483C174.8083 78.6095 184.0783 88.3795 184.0783 102.5395V159.6695C184.0783 172.3595 174.8083 182.6195 160.6483 182.6195ZM276.3683 410.6395C261.7183 410.6395 252.9283 402.3395 252.9283 387.6995V101.0695C252.9283 86.4295 261.7183 78.6095 276.3683 78.6095H875.4883C889.6483 78.6095 898.4383 86.4295 898.4383 101.0695V387.6995C898.4383 402.3395 889.6483 410.6395 875.4883 410.6395ZM990.7183 182.6195C976.5583 182.6195 967.2883 172.3595 967.2883 159.6695V102.5395C967.2883 88.3795 976.5583 78.6095 990.7183 78.6095H1051.7583C1067.8683 78.6095 1077.6383 88.8695 1077.6383 104.4895V159.6695C1077.6383 172.3595 1068.3583 182.6195 1053.7083 182.6195ZM97.6583 344.2395C83.4983 344.2395 73.7283 333.4995 73.7283 321.2895V265.1395C73.7283 250.9795 83.0083 241.2095 97.6583 241.2095H160.6483C174.8083 241.2095 184.0783 250.9795 184.0783 265.1395V321.2895C184.0783 333.4995 174.8083 344.2395 160.6483 344.2395ZM990.7183 344.2395C976.5583 344.2395 967.2883 333.4995 967.2883 321.2895V265.1395C967.2883 250.9795 976.5583 241.2095 990.7183 241.2095H1053.7083C1068.3583 241.2095 1077.6383 250.9795 1077.6383 265.1395V321.2895C1077.6383 333.4995 1068.3583 344.2395 1053.7083 344.2395ZM97.6583 500.9795C83.4983 500.9795 73.7283 490.7195 73.7283 478.0295V422.3595C73.7283 407.7195 83.0083 398.4395 97.6583 398.4395H160.6483C174.8083 398.4395 184.0783 407.7195 184.0783 422.3595V478.0295C184.0783 490.7195 174.8083 500.9795 160.6483 500.9795ZM990.7183 500.9795C976.5583 500.9795 967.2883 490.7195 967.2883 478.0295V422.3595C967.2883 407.7195 976.5583 398.4395 990.7183 398.4395H1053.7083C1068.3583 398.4395 1077.6383 407.7195 1077.6383 422.3595V478.0295C1077.6383 490.7195 1068.3583 500.9795 1053.7083 500.9795ZM276.3683 820.7995C261.7183 820.7995 252.9283 812.0095 252.9283 797.3595V512.6995C252.9283 498.5395 261.7183 489.7495 276.3683 489.7495H875.4883C889.6483 489.7495 898.4383 498.5395 898.4383 512.6995V797.3595C898.4383 812.0095 889.6483 820.7995 875.4883 820.7995ZM97.6583 659.1795C83.4983 659.1795 73.7283 648.4395 73.7283 635.7395V580.0795C73.7283 565.4295 83.0083 556.1495 97.6583 556.1495H160.6483C174.8083 556.1495 184.0783 565.4295 184.0783 580.0795V635.7395C184.0783 648.4395 174.8083 659.1795 160.6483 659.1795ZM990.7183 659.1795C976.5583 659.1795 967.2883 648.4395 967.2883 635.7395V580.0795C967.2883 565.4295 976.5583 556.1495 990.7183 556.1495H1053.7083C1068.3583 556.1495 1077.6383 565.4295 1077.6383 580.0795V635.7395C1077.6383 648.4395 1068.3583 659.1795 1053.7083 659.1795ZM99.6083 820.7995C83.9883 820.7995 73.7283 810.0595 73.7283 795.4095V740.2295C73.7283 726.5595 83.4983 716.7995 97.6583 716.7995H160.6483C174.8083 716.7995 184.0783 726.5595 184.0783 740.2295V796.8795C184.0783 810.5495 174.8083 820.7995 160.6483 820.7995ZM990.7183 820.7995C976.5583 820.7995 967.2883 810.5495 967.2883 796.8795V740.2295C967.2883 726.5595 976.5583 716.7995 990.7183 716.7995H1053.7083C1068.3583 716.7995 1077.6383 726.5595 1077.6383 740.2295V795.4095C1077.6383 810.0595 1067.8683 820.7995 1051.7583 820.7995Z"/>
</svg>