<?xml version="1.0" encoding="UTF-8" standalone="no"?>
<svg xmlns="http://www.w3.org/2000/svg"
     width="996.09375" height="996.09375"
     viewBox="0 0 996.09375 996.09375"
     fill="currentColor">
  <path d="M498.0477 996.0959C770.5077 996.0959 996.0977 770.0159 996.0977 498.0459C996.0977 225.5859 770.0177 -0.0041 497.5577 -0.0041C225.5877 -0.0041 -0.0023 225.5859 -0.0023 498.0459C-0.0023 770.0159 226.0777 996.0959 498.0477 996.0959ZM498.0477 913.0859C267.5777 913.0859 83.4977 728.5159 83.4977 498.0459C83.4977 267.5759 267.0877 83.0059 497.5577 83.0059C728.0277 83.0059 913.0877 267.5759 913.0877 498.0459C913.0877 728.5159 728.5177 913.0859 498.0477 913.0859ZM268.0677 715.8159H728.5177C757.3277 715.8159 776.3677 697.2659 776.3677 668.9459V328.6159C776.3677 299.8059 757.3277 281.7359 728.5177 281.7359H268.0677C238.7677 281.7359 220.2177 299.8059 220.2177 328.6159V668.9459C220.2177 697.2659 238.7677 715.8159 268.0677 715.8159ZM272.9477 382.3259C263.6677 382.3259 258.2977 375.9759 258.2977 368.6559V335.9359C258.2977 327.6359 263.6677 321.2859 272.9477 321.2859H310.0577C318.3577 321.2859 323.7277 327.6359 323.7277 335.9359V368.6559C323.7277 375.9759 318.3577 382.3259 310.0577 382.3259ZM686.0377 382.3259C678.2277 382.3259 672.8477 375.9759 672.8477 368.6559V335.9359C672.8477 327.6359 678.2277 321.2859 686.0377 321.2859H723.6377C732.9077 321.2859 738.2777 327.6359 738.2777 335.9359V368.6559C738.2777 375.9759 732.9077 382.3259 723.6377 382.3259ZM272.9477 479.0059C263.6677 479.0059 258.2977 472.6559 258.2977 465.3359V432.1259C258.2977 423.3359 263.6677 417.4759 272.9477 417.4759H310.0577C318.3577 417.4759 323.7277 423.3359 323.7277 432.1259V465.3359C323.7277 472.6559 318.3577 479.0059 310.0577 479.0059ZM686.0377 479.0059C678.2277 479.0059 672.8477 472.6559 672.8477 465.3359V432.1259C672.8477 423.3359 678.2277 417.4759 686.0377 417.4759H723.6377C732.9077 417.4759 738.2777 423.3359 738.2777 432.1259V465.3359C738.2777 472.6559 732.9077 479.0059 723.6377 479.0059ZM395.9977 525.3859C380.8577 525.3859 369.6277 513.6759 369.6277 498.5359C369.6277 483.3959 380.8577 472.1659 395.9977 472.1659H600.0977C615.2377 472.1659 626.4677 483.3959 626.4677 498.5359C626.4677 513.6759 615.2377 525.3859 600.0977 525.3859ZM272.9477 576.1759C263.6677 576.1759 258.2977 569.8259 258.2977 562.4959V529.7859C258.2977 520.5059 263.6677 515.1359 272.9477 515.1359H310.0577C318.3577 515.1359 323.7277 520.5059 323.7277 529.7859V562.4959C323.7277 569.8259 318.3577 576.1759 310.0577 576.1759ZM686.0377 576.1759C678.2277 576.1759 672.8477 569.8259 672.8477 562.4959V529.7859C672.8477 520.5059 678.2277 515.1359 686.0377 515.1359H723.6377C732.9077 515.1359 738.2777 520.5059 738.2777 529.7859V562.4959C738.2777 569.8259 732.9077 576.1759 723.6377 576.1759ZM273.4377 675.7859C263.6677 675.7859 258.2977 669.4359 258.2977 660.1559V627.9259C258.2977 619.1359 263.6677 613.7659 272.9477 613.7659H310.0577C318.3577 613.7659 323.7277 619.1359 323.7277 627.9259V661.1359C323.7277 669.4359 318.3577 675.7859 310.0577 675.7859ZM686.0377 675.7859C678.2277 675.7859 672.8477 669.4359 672.8477 661.1359V627.9259C672.8477 619.1359 678.2277 613.7659 686.0377 613.7659H723.6377C732.9077 613.7659 738.2777 619.1359 738.2777 627.9259V660.1559C738.2777 669.4359 732.9077 675.7859 723.1477 675.7859Z"/>
</svg>