<?xml version="1.0" encoding="UTF-8" standalone="no"?>
<svg xmlns="http://www.w3.org/2000/svg"
     width="996.09375" height="996.09375"
     viewBox="0 0 996.09375 996.09375"
     fill="currentColor">
  <path d="M498.0477 996.0959C770.5077 996.0959 996.0977 770.0159 996.0977 498.0459C996.0977 225.5859 770.0177 -0.0041 497.5577 -0.0041C225.5877 -0.0041 -0.0023 225.5859 -0.0023 498.0459C-0.0023 770.0159 226.0777 996.0959 498.0477 996.0959ZM261.7177 722.6559C231.4477 722.6559 211.9177 704.1059 211.9177 674.3159V323.2459C211.9177 293.9459 231.4477 274.9059 261.7177 274.9059H735.8377C765.6277 274.9059 785.6477 293.9459 785.6477 323.2459V674.3159C785.6477 704.1059 765.6277 722.6559 735.8377 722.6559ZM266.5977 378.9059H304.6877C313.4777 378.9059 318.8477 372.5559 318.8477 364.7459V331.5459C318.8477 322.7559 313.4777 315.9159 304.6877 315.9159H266.5977C256.8377 315.9159 251.4677 322.7559 251.4677 331.5459V364.7459C251.4677 372.5559 256.8377 378.9059 266.5977 378.9059ZM692.3877 378.9059H730.9577C740.7277 378.9059 746.0977 372.5559 746.0977 364.7459V331.5459C746.0977 322.7559 740.7277 315.9159 730.9577 315.9159H692.3877C684.0777 315.9159 678.7077 322.7559 678.7077 331.5459V364.7459C678.7077 372.5559 684.0777 378.9059 692.3877 378.9059ZM266.5977 478.5159H304.6877C313.4777 478.5159 318.8477 472.1659 318.8477 464.8459V430.1759C318.8477 421.3859 313.4777 415.5259 304.6877 415.5259H266.5977C256.8377 415.5259 251.4677 421.3859 251.4677 430.1759V464.8459C251.4677 472.1659 256.8377 478.5159 266.5977 478.5159ZM692.3877 478.5159H730.9577C740.7277 478.5159 746.0977 472.1659 746.0977 464.8459V430.1759C746.0977 421.3859 740.7277 415.5259 730.9577 415.5259H692.3877C684.0777 415.5259 678.7077 421.3859 678.7077 430.1759V464.8459C678.7077 472.1659 684.0777 478.5159 692.3877 478.5159ZM393.5577 526.3659H603.5177C619.1377 526.3659 630.8577 514.6459 630.8577 499.0259C630.8577 483.3959 619.1377 471.1959 603.5177 471.1959H393.5577C377.9277 471.1959 366.2077 483.3959 366.2077 499.0259C366.2077 514.6459 377.9277 526.3659 393.5577 526.3659ZM266.5977 578.6159H304.6877C313.4777 578.6159 318.8477 571.7759 318.8477 564.4559V530.7659C318.8477 520.9959 313.4777 516.1159 304.6877 516.1159H266.5977C256.8377 516.1159 251.4677 520.9959 251.4677 530.7659V564.4559C251.4677 571.7759 256.8377 578.6159 266.5977 578.6159ZM692.3877 578.6159H730.9577C740.7277 578.6159 746.0977 571.7759 746.0977 564.4559V530.7659C746.0977 520.9959 740.7277 516.1159 730.9577 516.1159H692.3877C684.0777 516.1159 678.7077 520.9959 678.7077 530.7659V564.4559C678.7077 571.7759 684.0777 578.6159 692.3877 578.6159ZM267.0877 681.1559H304.6877C313.4777 681.1559 318.8477 675.2959 318.8477 666.5059V632.3259C318.8477 623.5359 313.4777 617.1859 304.6877 617.1859H266.5977C256.8377 617.1859 251.4677 623.5359 251.4677 632.3259V665.5259C251.4677 674.8059 256.8377 681.1559 267.0877 681.1559ZM692.3877 681.1559H730.4677C740.7277 681.1559 746.0977 674.8059 746.0977 665.5259V632.3259C746.0977 623.5359 740.7277 617.1859 730.9577 617.1859H692.3877C684.0777 617.1859 678.7077 623.5359 678.7077 632.3259V666.5059C678.7077 675.2959 684.0777 681.1559 692.3877 681.1559Z"/>
</svg>