<?xml version="1.0" encoding="UTF-8" standalone="no"?>
<svg xmlns="http://www.w3.org/2000/svg"
     width="1116.2109375" height="979.4921875"
     viewBox="0 0 1116.2109375 979.4921875"
     fill="currentColor">
  <path d="M41.0183 979.4934H1075.1983C1096.6783 979.4934 1114.7483 961.4234 1114.7483 939.9434C1114.7483 918.4534 1096.6783 900.8834 1075.1983 900.8834H1003.9083V265.6234H1064.4483C1095.2183 265.6234 1116.2083 244.6334 1116.2083 213.3834V51.2734C1116.2083 20.9934 1095.2183 0.0034 1064.4483 0.0034H51.7583C20.9983 0.0034 -0.0017 20.9934 -0.0017 51.2734V213.3834C-0.0017 244.6334 20.9983 265.6234 51.7583 265.6234H112.3083V900.8834H41.0183C19.5283 900.8834 1.4683 918.4534 1.4683 939.9434C1.4683 961.4234 19.5283 979.4934 41.0183 979.4934ZM91.3083 187.0134C83.9883 187.0134 78.6183 181.6434 78.6183 173.8234V91.7934C78.6183 83.9834 83.9883 78.6134 91.3083 78.6134H1024.8983C1032.2283 78.6134 1037.5983 83.9834 1037.5983 91.7934V173.8234C1037.5983 181.6434 1032.2283 187.0134 1024.8983 187.0134ZM842.2883 409.1834C842.2883 366.7034 815.9183 340.8234 773.9283 340.8234H342.2883C300.2883 340.8234 273.9283 366.7034 273.9283 409.1834V900.8834H190.9183V265.6234H925.2883V900.8834H842.2883ZM335.4483 426.7534C335.4483 411.1334 344.7283 401.8534 359.8683 401.8534H756.3483C771.4883 401.8534 780.7583 411.1334 780.7583 426.7534V900.8834H335.4483ZM550.2883 863.2834C645.9983 863.2834 708.4983 799.3134 708.4983 703.1234C708.4983 542.4834 571.7783 475.5834 477.5383 475.5834C453.1283 475.5834 442.8683 489.7434 455.5683 506.8334C478.0283 535.1534 498.0483 566.4034 496.5783 609.8634C485.8383 589.8434 466.7983 576.1734 451.1683 576.1734C443.8483 576.1734 439.9383 580.5634 439.9383 587.4034C439.9383 591.7934 439.9383 601.0734 439.9383 607.9134C439.9383 652.8334 410.1583 676.2734 410.1583 740.7234C410.1583 814.9434 466.3083 863.2834 550.2883 863.2834ZM555.1783 812.9834C521.9683 812.9834 499.5083 792.9734 499.5083 762.2034C499.5083 730.9534 521.9683 719.7234 525.8783 697.2634C535.1583 703.6134 541.5083 712.8934 545.8983 725.0934C556.1483 710.4534 562.4983 685.5434 556.6383 652.8334C585.9383 663.5734 618.6483 700.6834 618.6483 746.0934C618.6483 781.7334 598.1483 812.9834 555.1783 812.9834Z"/>
</svg>