<?xml version="1.0" encoding="UTF-8" standalone="no"?>
<svg xmlns="http://www.w3.org/2000/svg"
     width="1376.917764804244" height="1068.4337936470292"
     viewBox="0 0 1376.917764804244 1068.4337936470292"
     fill="currentColor">
  <path d="M698.2029 1067.1204C820.2729 1048.0804 958.4629 958.7204 1031.7029 854.7204C1209.4329 798.0704 1376.9129 684.3104 1376.9129 545.1504C1376.9129 411.8404 1223.1129 301.9804 1053.1829 242.9004C988.7329 32.9404 706.9929 -63.7396 510.2229 45.1504C485.8029 58.3304 480.9229 84.2104 500.9429 110.5704C542.4429 165.2604 556.6029 197.4904 565.8829 240.9504C489.2229 270.7304 415.4929 316.1404 350.0629 380.1104C264.1229 282.9404 164.0229 228.7404 47.3329 226.7904C22.9129 226.3004 3.3829 241.9204 1.4329 266.8204C-8.8271 368.3904 37.0729 478.2504 107.3829 545.1504C37.0729 612.5304 -8.8271 722.8804 1.4329 823.9504C3.3829 848.8604 22.9129 864.4804 47.3329 863.9904C164.0229 862.0404 264.1229 807.8404 350.0629 711.1604C437.9529 796.1204 539.5129 849.3404 644.9829 874.7404L628.8729 1006.0804C623.9929 1047.1004 650.3529 1074.9304 698.2029 1067.1204ZM583.9529 104.2304C579.5529 97.3904 580.5329 90.5604 586.3929 88.6004C723.1129 42.2204 894.0029 94.4604 962.8529 217.0204C907.1929 203.8404 852.0129 197.0004 803.1829 197.0004C747.0329 197.0004 689.9029 203.8404 634.2429 218.4904C625.9429 181.3804 611.7829 146.7104 583.9529 104.2304ZM803.1829 815.1604C646.4529 815.1604 497.0329 759.9904 374.4729 623.2704C358.3629 605.2004 335.9029 605.6904 319.7929 625.2204C248.5029 713.6004 179.1629 765.8504 94.2029 780.5004C85.9029 781.9604 79.0629 775.1304 80.5329 766.3404C88.8329 690.1604 133.7529 619.8504 189.9029 575.4204C215.2929 553.9304 215.7829 536.8404 189.4129 514.8704C133.7529 470.4404 88.8329 400.6104 80.5329 324.4404C79.0629 316.1404 85.9029 308.8204 94.2029 310.2804C179.1629 324.9304 248.5029 377.1804 319.7929 465.5604C335.9029 485.5704 358.3629 486.0604 373.9929 468.0004C497.0329 330.7904 646.4529 275.6104 803.1829 275.6104C1011.1929 275.6104 1299.7729 410.8704 1299.7729 545.1504C1299.7729 679.9104 1011.1929 815.1604 803.1829 815.1604ZM1106.4129 574.9304C1134.7329 574.9304 1158.1629 551.4904 1158.1629 523.6604C1158.1629 495.8304 1134.7329 472.3904 1106.4129 472.3904C1078.5829 472.3904 1055.1429 495.8304 1055.1429 523.6604C1055.1429 551.4904 1078.5829 574.9304 1106.4129 574.9304ZM803.1829 893.7804C835.4129 893.7804 870.5729 890.8504 906.2129 884.9904C852.9929 927.9604 795.3729 965.5604 727.9929 984.1104C717.7429 986.5504 710.9029 984.6004 712.3629 970.9304L720.6629 888.9004C748.0129 892.3104 775.8429 893.7804 803.1829 893.7804Z"/>
</svg>