<?xml version="1.0" encoding="UTF-8" standalone="no"?>
<svg xmlns="http://www.w3.org/2000/svg"
     width="1357.3488935831501" height="1049.5360496602013"
     viewBox="0 0 1357.3488935831501 1049.5360496602013"
     fill="currentColor">
  <path d="M1.3953 813.7143C2.8553 834.7043 16.5253 845.4543 37.5253 844.9643C154.7153 843.0043 253.3453 787.8343 339.7753 687.7343C430.5953 778.0643 535.5753 832.7543 645.9253 857.6543L628.8353 997.7943C624.4353 1034.4143 644.4553 1055.4143 686.9353 1048.0843C808.0353 1029.5343 944.7553 940.1743 1016.0453 837.1443C1193.7753 781.4843 1357.3453 670.6443 1357.3453 535.8843C1357.3453 406.4843 1205.9853 299.0643 1035.5753 240.9543C975.0253 32.9543 699.6353 -63.2457 505.2953 44.6643C484.3053 55.4143 481.8653 72.5043 498.9553 95.4543C543.8753 154.5343 558.5253 189.6843 567.3053 237.5443C485.2753 267.8143 409.1053 315.6643 339.7753 385.0043C253.3453 284.4143 154.7153 229.2343 37.5253 227.2843C16.5253 226.7943 2.8553 237.5443 1.3953 258.5343C-8.8647 361.0743 38.5053 470.9343 111.7453 535.8843C38.5053 601.3043 -8.8647 711.6643 1.3953 813.7143ZM1096.6053 565.6643C1068.7753 565.6643 1045.3353 542.2243 1045.3353 514.3943C1045.3353 486.5643 1068.7753 463.1243 1096.6053 463.1243C1124.9253 463.1243 1148.3653 486.5643 1148.3653 514.3943C1148.3653 542.2243 1124.9253 565.6643 1096.6053 565.6643Z"/>
</svg>