<?xml version="1.0" encoding="UTF-8" standalone="no"?>
<svg xmlns="http://www.w3.org/2000/svg"
     width="996.09375" height="996.09375"
     viewBox="0 0 996.09375 996.09375"
     fill="currentColor">
  <path d="M498.0477 996.0959C770.5077 996.0959 996.0977 770.0159 996.0977 498.0459C996.0977 225.5859 770.0177 -0.0041 497.5577 -0.0041C225.5877 -0.0041 -0.0023 225.5859 -0.0023 498.0459C-0.0023 770.0159 226.0777 996.0959 498.0477 996.0959ZM498.0477 913.0859C267.5777 913.0859 83.4977 728.5159 83.4977 498.0459C83.4977 267.5759 267.0877 83.0059 497.5577 83.0059C728.0277 83.0059 913.0877 267.5759 913.0877 498.0459C913.0877 728.5159 728.5177 913.0859 498.0477 913.0859ZM206.0577 623.5359C206.5477 633.2959 212.3977 637.6959 222.1677 637.6959C275.8777 636.7159 320.3077 611.8159 359.3777 565.9159C400.8777 606.9359 448.7277 631.8359 499.0277 643.0659L491.2077 707.0359C489.2577 723.1459 498.0477 731.9359 516.5977 729.4959C572.2677 720.2159 633.2977 681.1559 666.0177 633.7859C746.5777 609.3759 821.2877 558.5959 821.2877 497.5559C821.2877 438.9659 752.9277 390.1359 675.7777 363.7659C647.4577 269.5359 522.9477 226.0759 434.5677 274.9059C425.2977 279.7859 424.3177 287.5959 431.6377 297.8559C452.1477 324.7059 458.9877 340.3359 463.3777 362.3059C425.2977 376.4659 390.6277 397.9459 359.3777 429.6859C320.3077 383.7859 275.8777 357.9059 222.1677 357.9059C212.3977 357.9059 206.5477 362.3059 206.0577 371.0959C201.1677 417.9659 222.6577 467.7759 256.3477 497.5559C222.6577 526.8559 201.6577 577.1459 206.0577 623.5359ZM703.6177 513.6759C688.9677 513.6759 677.2477 502.4459 677.2477 487.7959C677.2477 473.1459 688.9677 461.9159 703.6177 461.9159C717.7777 461.9159 729.4877 473.1459 729.4877 487.7959C729.4877 502.4459 717.7777 513.6759 703.6177 513.6759Z"/>
</svg>