<?xml version="1.0" encoding="UTF-8" standalone="no"?>
<svg xmlns="http://www.w3.org/2000/svg"
     width="996.09375" height="996.09375"
     viewBox="0 0 996.09375 996.09375"
     fill="currentColor">
  <path d="M498.0477 996.0959C770.5077 996.0959 996.0977 770.0159 996.0977 498.0459C996.0977 225.5859 770.0177 -0.0041 497.5577 -0.0041C225.5877 -0.0041 -0.0023 225.5859 -0.0023 498.0459C-0.0023 770.0159 226.0777 996.0959 498.0477 996.0959ZM498.0477 913.0859C267.5777 913.0859 83.4977 728.5159 83.4977 498.0459C83.4977 267.5759 267.0877 83.0059 497.5577 83.0059C728.0277 83.0059 913.0877 267.5759 913.0877 498.0459C913.0877 728.5159 728.5177 913.0859 498.0477 913.0859ZM312.0077 760.7459C325.1977 760.7459 333.9877 750.4859 333.9877 738.2859V594.2359C343.2577 590.3359 362.3077 584.4759 392.5777 584.4759C479.4877 584.4759 534.1777 627.4459 618.6477 627.4459C655.7577 627.4459 670.8977 623.5359 689.4577 614.7459C709.9577 605.4659 719.2377 591.3059 719.2377 569.3359V328.6159C719.2377 314.4559 711.9177 304.1959 691.8977 304.1959C677.7377 304.1959 656.2477 314.4559 616.2077 314.4559C533.2077 314.4559 478.0277 270.9959 390.1377 270.9959C352.0477 270.9959 336.9177 275.3859 319.3377 283.2059C299.3177 291.9959 289.0577 307.6159 289.0577 328.6159V738.2859C289.0577 749.9959 299.8077 760.7459 312.0077 760.7459Z"/>
</svg>