<?xml version="1.0" encoding="UTF-8" standalone="no"?>
<svg xmlns="http://www.w3.org/2000/svg"
     width="996.09375" height="996.09375"
     viewBox="0 0 996.09375 996.09375"
     fill="currentColor">
  <path d="M498.0477 996.0959C770.5077 996.0959 996.0977 770.0159 996.0977 498.0459C996.0977 225.5859 770.0177 -0.0041 497.5577 -0.0041C225.5877 -0.0041 -0.0023 225.5859 -0.0023 498.0459C-0.0023 770.0159 226.0777 996.0959 498.0477 996.0959ZM498.0477 913.0859C267.5777 913.0859 83.4977 728.5159 83.4977 498.0459C83.4977 267.5759 267.0877 83.0059 497.5577 83.0059C728.0277 83.0059 913.0877 267.5759 913.0877 498.0459C913.0877 728.5159 728.5177 913.0859 498.0477 913.0859ZM728.0277 759.7659C736.3277 768.0659 750.4877 768.0659 759.2777 759.7659C768.0677 750.4859 768.0677 737.3059 759.2777 728.5159L267.0877 236.3259C258.2977 227.5359 244.6277 227.5359 235.3477 236.3259C227.0477 244.6259 227.0477 259.2759 235.3477 267.5759ZM356.9377 272.4559L691.8977 607.4259C703.6177 599.1259 712.3977 586.9159 712.3977 569.3359V328.6159C712.3977 314.4559 705.0777 304.1959 685.0577 304.1959C670.8977 304.1959 649.4177 314.4559 609.3777 314.4559C526.8577 314.4559 471.1877 270.9959 383.2977 270.9959C372.5577 270.9959 364.2577 271.4859 356.9377 272.4559ZM531.2477 614.7459L282.7177 366.2059V738.2859C282.7177 749.9959 293.4577 760.7459 305.1777 760.7459C318.3577 760.7459 327.6377 750.4859 327.6377 738.2859V594.2359C336.4277 590.3359 355.9577 584.4759 385.7377 584.4759C441.8977 584.4759 484.3777 602.5359 531.2477 614.7459Z"/>
</svg>