<?xml version="1.0" encoding="UTF-8" standalone="no"?>
<svg xmlns="http://www.w3.org/2000/svg"
     width="898.92578125" height="898.92578125"
     viewBox="0 0 898.92578125 898.92578125"
     fill="currentColor">
  <path d="M153.3183 898.9295H745.6083C848.1483 898.9295 898.9283 848.1495 898.9283 747.5595V151.3695C898.9283 50.7795 848.1483 -0.0005 745.6083 -0.0005H153.3183C51.2683 -0.0005 -0.0017 50.2895 -0.0017 151.3695V747.5595C-0.0017 848.6295 51.2683 898.9295 153.3183 898.9295ZM154.2983 820.3095C105.4683 820.3095 78.6183 794.4295 78.6183 743.6495V155.2695C78.6183 104.4895 105.4683 78.6095 154.2983 78.6095H744.6283C792.9683 78.6095 820.3083 104.4895 820.3083 155.2695V743.6495C820.3083 794.4295 792.9683 820.3095 744.6283 820.3095ZM264.1583 711.4295C277.3483 711.4295 286.6183 701.1695 286.6183 688.9695V544.9195C295.4083 541.0195 314.9383 535.1595 344.7283 535.1595C431.6383 535.1595 486.3283 578.1295 570.7983 578.1295C607.9083 578.1295 623.5383 574.2195 641.5983 565.4295C662.1083 556.1495 671.3883 541.9895 671.3883 520.0195V279.2995C671.3883 265.1395 664.0583 254.8795 644.0383 254.8795C629.8783 254.8795 608.3983 265.1395 568.3583 265.1395C485.8383 265.1395 430.1783 221.6795 342.2883 221.6795C304.6883 221.6795 289.0583 226.0695 271.4883 233.8895C251.4683 242.6795 241.6983 258.2995 241.6983 279.2995V688.9695C241.6983 700.6795 251.9483 711.4295 264.1583 711.4295Z"/>
</svg>