<?xml version="1.0" encoding="UTF-8" standalone="no"?>
<svg xmlns="http://www.w3.org/2000/svg"
     width="923.6457698626921" height="1052.490234375"
     viewBox="0 0 923.6457698626921 1052.490234375"
     fill="currentColor">
  <path d="M859.2482 912.3571C874.3882 926.9971 898.3182 926.9971 912.4782 912.3571C927.1282 897.2171 927.6082 873.7771 912.4782 859.1271L64.3282 10.9871C49.6782 -3.6629 25.2682 -3.6629 10.6182 10.9871C-3.5418 25.1471 -3.5418 50.0471 10.6182 64.2071ZM882.1982 740.9671C889.0382 730.7171 891.9682 717.5271 891.9682 699.4671V203.8571C891.9682 177.4871 869.5082 162.3571 841.1882 162.3571C817.2582 162.3571 772.3382 182.8571 688.3582 182.8571C519.8982 182.8571 407.5882 97.4071 230.3482 94.4871L313.3582 177.4871C440.7982 197.9971 542.8482 256.5871 688.3582 256.5871C741.5782 256.5871 785.5182 250.2471 818.2382 240.9671V676.5171ZM61.8882 1052.4871C82.3982 1052.4871 98.9982 1036.3771 98.9982 1015.8671V744.3871C111.2082 739.0171 157.1082 721.4371 228.8782 721.4371C402.2182 721.4371 510.1282 801.9971 673.7082 809.3271L585.8182 720.9471C470.5782 699.4671 370.9682 647.7071 228.8782 647.7071C175.1682 647.7071 126.3382 654.0571 98.9982 665.2871V239.9871L31.1282 172.1171C27.2182 179.4471 24.7782 188.7171 24.7782 202.3971V1015.8671C24.7782 1035.8871 41.8682 1052.4871 61.8882 1052.4871Z"/>
</svg>