<?xml version="1.0" encoding="UTF-8" standalone="no"?>
<svg xmlns="http://www.w3.org/2000/svg"
     width="996.09375" height="996.09375"
     viewBox="0 0 996.09375 996.09375"
     fill="currentColor">
  <path d="M498.0477 996.0977C770.5077 996.0977 996.0977 770.5077 996.0977 498.0477C996.0977 226.0777 770.0177 -0.0023 497.5577 -0.0023C225.5877 -0.0023 -0.0023 226.0777 -0.0023 498.0477C-0.0023 770.5077 226.0777 996.0977 498.0477 996.0977ZM306.6377 768.5577C293.9477 768.5577 282.7177 757.8077 282.7177 745.1177V322.7577C282.7177 301.2677 293.4577 285.6477 313.9677 276.3677C332.0277 267.5777 347.6577 263.1877 387.2077 263.1877C477.5377 263.1877 534.6677 308.1077 620.1177 308.1077C661.6177 308.1077 683.5977 297.3677 698.2377 297.3677C718.7477 297.3677 726.5577 308.1077 726.5577 323.2377V570.7977C726.5577 593.7477 716.7977 608.3977 695.7977 618.6477C676.7577 626.9577 661.1377 630.8577 622.5577 630.8577C535.6477 630.8577 479.0077 586.9177 389.6477 586.9177C358.3977 586.9177 338.8677 592.7777 329.0977 596.6777V745.1177C329.0977 758.2977 320.3077 768.5577 306.6377 768.5577Z"/>
</svg>