<?xml version="1.0" encoding="UTF-8" standalone="no"?>
<svg xmlns="http://www.w3.org/2000/svg"
     width="996.09375" height="996.09375"
     viewBox="0 0 996.09375 996.09375"
     fill="currentColor">
  <path d="M498.0477 996.0977C770.5077 996.0977 996.0977 770.5077 996.0977 498.0477C996.0977 226.0777 770.0177 -0.0023 497.5577 -0.0023C225.5877 -0.0023 -0.0023 226.0777 -0.0023 498.0477C-0.0023 770.5077 226.0777 996.0977 498.0477 996.0977ZM735.3477 768.0677L227.5377 260.7377C219.2377 251.9577 219.2377 237.3077 227.5377 228.0277C237.3077 219.2377 251.4677 219.2377 260.7377 228.0277L768.0677 735.3477C776.8577 744.6277 776.8577 758.2977 768.0677 768.0677C758.7877 776.3677 744.1377 776.3677 735.3477 768.0677ZM353.0277 265.1377C360.8377 264.1577 369.1377 263.6677 380.3677 263.6677C470.7077 263.6677 528.3177 308.5977 613.2777 308.5977C654.7877 308.5977 676.7577 297.8477 691.4077 297.8477C711.9177 297.8477 719.7277 308.5977 719.7277 323.7277V571.2877C719.7277 589.8477 710.9377 602.0477 698.7277 610.8377ZM532.2277 619.1377C484.3777 606.4477 440.4277 587.3977 382.8077 587.3977C352.0477 587.3977 332.0277 593.2577 322.7577 597.1677V745.6077C322.7577 758.7877 313.4777 769.0477 299.8077 769.0477C287.5977 769.0477 276.3677 758.2977 276.3677 745.6077V362.7977Z"/>
</svg>