<?xml version="1.0" encoding="UTF-8" standalone="no"?>
<svg xmlns="http://www.w3.org/2000/svg"
     width="683.10546875" height="1005.859375"
     viewBox="0 0 683.10546875 1005.859375"
     fill="currentColor">
  <path d="M341.7983 1005.8605C552.2483 1005.8605 683.1083 884.7705 683.1083 674.3205V273.4405C683.1083 195.8005 631.8383 146.4805 550.2883 146.4805H78.6183V39.5505C78.6183 18.0705 61.0383 0.0005 39.0583 0.0005C17.5783 0.0005 -0.0017 18.0705 -0.0017 39.5505V674.3205C-0.0017 884.7705 130.8583 1005.8605 341.7983 1005.8605ZM341.7983 929.2005C181.1483 929.2005 78.6183 837.8905 78.6183 679.6905V225.1005H540.0383C581.0583 225.1005 604.4883 247.5605 604.4883 286.1305V679.6905C604.4883 837.8905 502.4383 929.2005 341.7983 929.2005ZM170.4083 603.5205H512.6983C539.5483 603.5205 555.6683 587.4005 555.6683 561.5205V316.4105C555.6683 290.0405 539.5483 273.9305 512.6983 273.9305H170.4083C144.0383 273.9305 127.4383 290.0405 127.4383 316.4105V561.5205C127.4383 587.4005 144.0383 603.5205 170.4083 603.5205ZM272.4583 845.2105H408.1983C426.7583 845.2105 441.4083 830.5705 441.4083 812.0105C441.4083 793.4605 426.7583 778.8105 408.1983 778.8105H272.4583C254.3983 778.8105 239.2583 793.4605 239.2583 812.0105C239.2583 830.5705 254.3983 845.2105 272.4583 845.2105Z"/>
</svg>