<?xml version="1.0" encoding="UTF-8" standalone="no"?>
<svg xmlns="http://www.w3.org/2000/svg"
     width="996.09375" height="996.09375"
     viewBox="0 0 996.09375 996.09375"
     fill="currentColor">
  <path d="M498.0477 996.0959C770.5077 996.0959 996.0977 770.0159 996.0977 498.0459C996.0977 225.5859 770.0177 -0.0041 497.5577 -0.0041C225.5877 -0.0041 -0.0023 225.5859 -0.0023 498.0459C-0.0023 770.0159 226.0777 996.0959 498.0477 996.0959ZM498.0477 913.0859C267.5777 913.0859 83.4977 728.5159 83.4977 498.0459C83.4977 267.5759 267.0877 83.0059 497.5577 83.0059C728.0277 83.0059 913.0877 267.5759 913.0877 498.0459C913.0877 728.5159 728.5177 913.0859 498.0477 913.0859ZM381.3477 732.9059C455.5677 732.9059 496.5777 694.3359 509.7677 613.2859L525.8777 512.2059H628.4177C644.5277 512.2059 655.2777 501.9559 655.2777 486.8159C655.2777 470.7059 644.5277 459.9559 628.4177 459.9559H534.1777L545.8977 385.7459C553.7077 338.3759 573.7277 318.3559 616.6977 318.3559C630.8577 318.3559 637.2077 319.8259 645.0177 321.2859C648.9277 322.2659 653.3177 322.7559 658.6877 322.7559C676.2677 322.7559 686.5277 311.5259 686.5277 296.8759C686.5277 283.2059 678.7077 272.4559 662.1077 266.6059C650.3877 262.2059 634.2777 260.2559 613.7677 260.2559C539.5477 260.2559 498.5377 299.3159 485.3477 380.3759L472.6577 459.9559H374.5077C358.3977 459.9559 348.1477 470.7059 348.1477 486.8159C348.1477 501.9559 357.9077 512.2059 374.5077 512.2059H464.8477L449.7077 605.4659C441.4077 654.7859 421.3877 675.2959 378.4177 675.2959C363.7677 675.2959 357.9077 673.3359 350.0977 671.8759C345.7077 670.8959 341.7977 670.4059 335.9377 670.4059C318.3577 670.4059 308.1077 681.6359 308.1077 696.2859C308.1077 710.4459 315.9177 720.7059 332.5177 726.5659C344.2377 731.4459 360.3477 732.9059 381.3477 732.9059Z"/>
</svg>