<?xml version="1.0" encoding="UTF-8" standalone="no"?>
<svg xmlns="http://www.w3.org/2000/svg"
     width="898.92578125" height="898.92578125"
     viewBox="0 0 898.92578125 898.92578125"
     fill="currentColor">
  <path d="M153.3183 898.9295H745.6083C848.1483 898.9295 898.9283 848.1495 898.9283 747.5595V151.3695C898.9283 50.7795 848.1483 -0.0005 745.6083 -0.0005H153.3183C51.2683 -0.0005 -0.0017 50.2895 -0.0017 151.3695V747.5595C-0.0017 848.6295 51.2683 898.9295 153.3183 898.9295ZM154.2983 820.3095C105.4683 820.3095 78.6183 794.4295 78.6183 743.6495V155.2695C78.6183 104.4895 105.4683 78.6095 154.2983 78.6095H744.6283C792.9683 78.6095 820.3083 104.4895 820.3083 155.2695V743.6495C820.3083 794.4295 792.9683 820.3095 744.6283 820.3095ZM333.4983 683.5895C407.7183 683.5895 448.7283 645.0195 461.9183 563.9695L478.0283 462.8895H580.5683C597.1683 462.8895 607.4183 452.6395 607.4183 437.4995C607.4183 421.3895 597.1683 410.6395 580.5683 410.6395H486.3283L498.0483 336.4295C505.8583 289.0595 525.8783 269.0395 568.8483 269.0395C583.4983 269.0395 589.3583 270.5095 597.1683 271.9695C601.5583 272.9495 605.4683 273.4395 611.3283 273.4395C628.9083 273.4395 639.1583 262.2095 639.1583 247.5595C639.1583 233.8895 631.3483 223.1395 614.7483 217.2895C603.0283 212.8895 586.4283 210.9395 565.9183 210.9395C491.6983 210.9395 450.6883 249.9995 437.4983 331.0595L424.8083 410.6395H326.6583C310.5483 410.6395 300.2883 421.3895 300.2883 437.4995C300.2883 452.6395 310.5483 462.8895 326.6583 462.8895H416.9883L401.8583 556.1495C393.5583 605.4695 373.5383 625.9795 330.5683 625.9795C315.9183 625.9795 310.0583 624.0195 302.2483 622.5595C297.8483 621.5795 293.9483 621.0895 288.0883 621.0895C270.5083 621.0895 260.2583 632.3195 260.2583 646.9695C260.2583 661.1295 268.0683 671.3895 284.6683 677.2495C296.3883 682.1295 312.4983 683.5895 333.4983 683.5895Z"/>
</svg>