<?xml version="1.0" encoding="UTF-8" standalone="no"?>
<svg xmlns="http://www.w3.org/2000/svg"
     width="1049.8046875" height="1140.5029296875"
     viewBox="0 0 1049.8046875 1140.5029296875"
     fill="currentColor">
  <path d="M116.6983 859.3708H489.2583V926.7608H413.0883C377.4383 926.7608 363.7683 961.4308 386.2283 988.7708L499.0283 1126.9508C513.6683 1145.0208 538.0883 1145.0208 552.7383 1126.9508L664.5483 988.7708C686.0383 961.9108 672.8483 926.7608 638.1883 926.7608H561.0383V859.3708H933.1083C1006.3483 859.3708 1049.8083 816.4108 1049.8083 744.6308V579.5908C1049.8083 507.8108 1006.3483 464.8408 933.1083 464.8408H561.0383V394.5308H933.1083C1006.3483 394.5308 1049.8083 351.5608 1049.8083 279.7808V114.7508C1049.8083 42.9708 1006.3483 0.0008 933.1083 0.0008H116.6983C43.4583 0.0008 -0.0017 42.9708 -0.0017 114.7508V279.7808C-0.0017 351.5608 43.4583 394.5308 116.6983 394.5308H489.7483V464.8408H116.6983C43.4583 464.8408 -0.0017 507.8108 -0.0017 579.5908V744.6308C-0.0017 816.4108 43.4583 859.3708 116.6983 859.3708Z"/>
</svg>