<?xml version="1.0" encoding="UTF-8" standalone="no"?>
<svg xmlns="http://www.w3.org/2000/svg"
     width="1099.609375" height="1083.775339294461"
     viewBox="0 0 1099.609375 1083.775339294461"
     fill="currentColor">
  <path d="M549.8077 1017.4869C562.4977 1017.4869 574.7077 1016.0169 587.8877 1015.0469L615.7277 1068.7569C621.5777 1079.4969 631.8377 1085.3569 645.5077 1083.4069C657.7177 1080.9569 666.0177 1072.1769 667.9677 1058.9869L676.2677 999.9069C700.6877 993.5569 724.6077 984.2869 747.5577 974.0269L791.5077 1013.5769C800.7777 1022.3669 812.4977 1024.3169 824.7077 1017.4869C835.4477 1011.6269 839.8477 999.9069 837.3977 987.2069L825.1977 928.6169C845.7077 914.4569 865.7277 898.3469 883.7877 880.2769L937.9877 903.2269C950.1977 908.5969 961.9177 905.6669 971.1877 894.4369C979.4877 885.6469 979.9777 872.9569 973.1477 862.2069L941.4077 811.4269C956.0577 790.9269 967.7777 768.9469 979.0077 745.5169L1039.0577 748.4469C1051.7577 748.9269 1062.0077 742.0969 1066.4077 729.8869C1070.3077 717.6769 1066.8977 705.9569 1056.6377 698.1469L1009.7677 661.0369C1016.1177 637.6069 1020.9977 612.2069 1023.4377 585.8469L1079.5877 568.2669C1092.2877 563.8669 1099.6077 554.5969 1099.6077 541.4069C1099.6077 528.7169 1092.2877 518.9469 1079.5877 515.0469L1023.4377 496.9769C1020.9977 470.6069 1016.1177 446.1969 1009.7677 422.2669L1056.6377 384.6769C1066.4077 377.3469 1070.3077 366.1169 1066.4077 353.9069C1062.0077 341.7069 1051.7577 334.8669 1039.0577 335.3569L979.0077 337.7969C967.7777 314.3569 956.0577 292.3869 941.4077 271.8769L973.1477 221.0969C979.9777 210.8469 979.0077 198.1469 971.1877 189.3569C961.9177 178.1269 950.1977 175.6869 937.9877 180.5669L883.7877 202.5469C865.7277 185.4569 845.7077 168.8569 825.1977 154.6969L837.3977 96.5869C840.3277 83.4069 835.4477 71.6869 824.7077 65.8269C812.4977 59.4769 800.7777 60.4569 791.5077 70.2169L747.5577 108.7969C724.6077 98.5369 700.6877 90.2369 676.2677 83.4069L667.9677 24.3169C666.0177 11.6269 657.2277 2.3469 645.0177 0.3969C631.8377 -1.5531 621.0977 3.8169 615.7277 14.5569L587.8877 68.2669C574.7077 67.2869 562.4977 66.3169 549.8077 66.3169C536.6177 66.3169 524.8977 67.2869 511.7177 68.2669L483.3977 14.5569C478.0277 3.8169 467.2877 -1.5531 454.0977 0.3969C441.8977 2.3469 433.1077 11.6269 431.6377 24.3169L422.8477 82.9169C398.4377 90.2369 374.9977 98.5369 351.5577 108.7969L307.6177 70.2169C298.3377 60.4569 286.6177 59.4769 274.4177 65.8269C263.6677 71.6869 258.7877 83.4069 261.7177 96.5869L273.9277 154.6969C253.9077 168.8569 233.3977 185.4569 215.3277 202.5469L161.1377 180.5669C148.9277 175.6869 137.6977 178.1269 128.4177 189.3569C120.1177 198.1469 119.6277 210.8469 125.9777 220.6069L157.7177 271.8769C143.5577 292.3869 131.3477 314.3569 120.1177 337.7969L60.5477 335.3569C47.8477 334.8669 37.1077 341.7069 32.7177 353.9069C28.8077 366.1169 32.7177 376.8569 42.4777 384.6769L89.3577 422.2669C83.0077 446.1969 78.1277 470.6069 76.6577 496.9769L19.5277 515.0469C6.8377 518.9469 -0.0023 528.2269 -0.0023 541.4069C-0.0023 554.5969 6.8377 563.8669 19.5277 568.2669L76.6577 586.3369C78.1277 612.2069 83.0077 637.6069 89.3577 661.0369L42.4777 698.1469C32.7177 705.9569 29.2977 717.6769 32.7177 729.8869C37.1077 742.0969 47.8477 748.9269 60.5477 748.4469L120.1177 745.5169C131.3477 768.9469 143.5577 790.9269 157.7177 811.4269L125.9777 862.2069C119.1377 872.9569 120.1177 885.6469 128.4177 894.4369C137.6977 905.6669 148.9277 908.5969 161.1377 903.2269L215.3277 880.2769C233.3977 898.3469 253.9077 914.4569 273.9277 928.6169L261.7177 987.2069C259.2777 999.9069 263.6677 1011.6269 274.4177 1017.4869C286.6177 1024.3169 298.3377 1022.3669 307.6177 1013.5769L351.5577 974.0269C374.9977 984.2869 398.4377 993.5569 422.8477 999.9069L431.6377 1058.9869C433.1077 1072.1769 441.8977 1080.9569 454.0977 1083.4069C467.2877 1085.3569 477.5377 1079.4969 483.3977 1068.7569L511.7177 1015.0469C524.4177 1016.0169 536.6177 1017.4869 549.8077 1017.4869ZM706.5477 650.2969C695.3077 638.5769 683.5977 638.0869 672.3677 650.2969C644.5277 682.0369 599.6077 702.0569 549.8077 702.0569C499.9977 702.0569 455.0777 682.0369 427.2477 650.2969C416.0177 638.0869 404.2977 638.5769 393.0677 650.2969C363.2777 683.4969 319.8277 702.0569 271.9777 702.0569C235.3477 702.0569 201.1677 691.3169 173.8277 671.7869C160.6477 631.2569 153.3177 587.3069 153.3177 541.8969C153.3177 318.7569 326.1677 140.5369 549.8077 140.5369C773.4377 140.5369 946.2877 318.7569 946.2877 541.8969C946.2877 587.3069 938.9677 630.7669 925.7777 671.2969C898.9277 691.3169 864.2577 702.0569 828.1277 702.0569C780.2777 702.0569 736.3277 683.4969 706.5477 650.2969Z"/>
</svg>