<?xml version="1.0" encoding="UTF-8" standalone="no"?>
<svg xmlns="http://www.w3.org/2000/svg"
     width="996.09375" height="996.09375"
     viewBox="0 0 996.09375 996.09375"
     fill="currentColor">
  <path d="M498.0477 996.0977C770.5077 996.0977 996.0977 770.5077 996.0977 498.0477C996.0977 226.0777 770.0177 -0.0023 497.5577 -0.0023C225.5877 -0.0023 -0.0023 226.0777 -0.0023 498.0477C-0.0023 770.5077 226.0777 996.0977 498.0477 996.0977ZM216.7977 399.8977V334.4677C216.7977 285.6477 241.2077 261.2277 283.6877 261.2277H357.9077C380.8577 261.2277 393.0677 265.6277 409.6677 278.8077L425.2977 291.0177C437.4977 300.7777 446.2877 305.6677 463.8677 305.6677H703.1277C754.3977 305.6677 780.2777 331.0577 780.2777 381.3477V399.8977ZM293.9477 726.5577C242.6777 726.5577 216.7977 701.1677 216.7977 651.3677V440.9177H780.2777V651.3677C780.2777 701.1677 754.8877 726.5577 710.9377 726.5577Z"/>
</svg>