<?xml version="1.0" encoding="UTF-8" standalone="no"?>
<svg xmlns="http://www.w3.org/2000/svg"
     width="996.09375" height="996.09375"
     viewBox="0 0 996.09375 996.09375"
     fill="currentColor">
  <path d="M498.0477 996.0959C770.5077 996.0959 996.0977 770.0159 996.0977 498.0459C996.0977 225.5859 770.0177 -0.0041 497.5577 -0.0041C225.5877 -0.0041 -0.0023 225.5859 -0.0023 498.0459C-0.0023 770.0159 226.0777 996.0959 498.0477 996.0959ZM498.0477 913.0859C267.5777 913.0859 83.4977 728.5159 83.4977 498.0459C83.4977 267.5759 267.0877 83.0059 497.5577 83.0059C728.0277 83.0059 913.0877 267.5759 913.0877 498.0459C913.0877 728.5159 728.5177 913.0859 498.0477 913.0859ZM224.6077 402.3459H771.4877V384.2759C771.4877 335.9359 746.0977 311.0359 696.7777 311.0359H464.3577C447.2677 311.0359 438.4777 306.6359 426.7577 296.8759L411.6177 285.1559C395.5077 272.4559 383.7877 268.0659 361.3277 268.0659H289.5477C248.5377 268.0659 224.6077 291.9959 224.6077 338.8659ZM299.3177 719.7259H704.0977C746.5777 719.7259 771.4877 694.8259 771.4877 646.4859V441.8959H224.6077V646.4859C224.6077 694.8259 249.9977 719.7259 299.3177 719.7259Z"/>
</svg>