<?xml version="1.0" encoding="UTF-8" standalone="no"?>
<svg xmlns="http://www.w3.org/2000/svg"
     width="992.5616364069107" height="992.3491800824463"
     viewBox="0 0 992.5616364069107 992.3491800824463"
     fill="currentColor">
  <path d="M776.4462 776.4437C965.4162 586.5037 1031.8162 318.4437 970.2962 111.4137C953.2062 56.7237 936.1162 39.1437 880.9362 22.5437C674.3962 -39.4663 405.8462 26.9337 215.9062 215.9037C26.9362 405.8437 -39.4738 674.3937 22.5462 880.9437C39.1462 935.6237 56.7262 953.2037 111.4062 969.8037C318.4362 1031.8237 586.5062 965.4137 776.4462 776.4437ZM852.1362 98.7137C879.9662 106.5237 885.8262 112.3837 892.6562 138.7537C912.6762 213.9437 916.5862 291.0937 904.8662 367.2637L625.0762 87.9737C700.7662 75.7637 777.4262 79.6737 852.1362 98.7137ZM718.8262 718.8337C643.6362 794.5137 557.6962 848.7137 466.8762 879.9637L112.3862 525.9637C143.6362 435.1437 197.8362 349.2037 273.5162 273.5137C349.2062 197.3437 435.6262 143.6337 525.9562 112.3837L879.9662 466.8737C848.7162 557.2137 794.5162 643.6337 718.8262 718.8337ZM302.3262 592.8537L399.9862 690.0237C408.2862 698.8137 421.4662 698.8137 430.2562 690.0237C438.5562 681.7237 438.5562 668.0537 430.2562 659.2637L397.0562 626.0537L431.7262 590.9037L465.4162 624.5937C473.7162 632.8937 487.3862 632.8937 495.6862 624.5937C503.9862 616.2937 503.9862 602.1337 495.6862 593.8337L462.4862 560.6237L497.1562 525.4737L530.8462 559.1637C539.1462 567.4637 552.8162 567.4637 561.1162 559.1637C569.4162 550.3737 569.4162 536.7037 561.1162 528.8937L527.4262 495.1937L562.5762 460.5337L595.7862 493.7337C604.5762 502.0337 618.2462 502.0337 626.5462 493.7337C635.3362 484.9437 635.3362 471.7637 626.5462 463.4637L593.3462 429.7637L628.0062 394.6137L661.2162 427.8137C670.0062 436.6037 683.6762 436.6037 691.9762 427.8137C700.7662 419.5137 700.7662 406.3337 691.9762 397.5437L594.8062 299.8837C586.0162 291.5837 572.8362 291.5837 564.5362 299.8837C555.7462 308.6737 555.7462 322.3437 564.5362 331.1337L597.7362 364.3337L563.0662 399.4937L529.3762 365.8037C520.5862 357.5037 507.4062 357.5037 498.6162 365.8037C490.3162 374.1037 490.3162 388.2637 498.6162 396.5637L532.3062 430.2537L497.1562 464.9237L463.4562 431.2337C455.6462 422.9337 441.4862 422.9337 433.1862 431.2337C424.8862 439.5337 424.8862 453.2037 433.1862 461.5037L466.8762 495.1937L432.2062 530.3537L398.5162 496.6637C390.2162 488.3637 376.0562 488.3637 367.7562 496.6637C359.4562 504.9637 359.4562 518.6337 367.7562 526.9337L401.4462 561.1137L366.7762 595.7837L333.0862 562.0937C324.7862 553.7937 310.6262 553.7937 302.3262 562.0937C294.0262 570.8837 294.0262 584.0637 302.3262 592.8537ZM138.7562 892.6637C112.3862 885.8237 106.5262 879.9637 99.2062 852.1337C79.6662 777.4237 76.2562 700.7637 87.9762 625.0837L366.7762 904.8637C291.0962 916.5837 213.9462 912.6737 138.7562 892.6637Z"/>
</svg>