<?xml version="1.0" encoding="UTF-8" standalone="no"?>
<svg xmlns="http://www.w3.org/2000/svg"
     width="996.09375" height="996.09375"
     viewBox="0 0 996.09375 996.09375"
     fill="currentColor">
  <path d="M498.0477 996.0959C770.5077 996.0959 996.0977 770.0159 996.0977 498.0459C996.0977 225.5859 770.0177 -0.0041 497.5577 -0.0041C225.5877 -0.0041 -0.0023 225.5859 -0.0023 498.0459C-0.0023 770.0159 226.0777 996.0959 498.0477 996.0959ZM498.0477 913.0859C267.5777 913.0859 83.4977 728.5159 83.4977 498.0459C83.4977 267.5759 267.0877 83.0059 497.5577 83.0059C728.0277 83.0059 913.0877 267.5759 913.0877 498.0459C913.0877 728.5159 728.5177 913.0859 498.0477 913.0859ZM738.2777 301.7559C729.4877 274.4159 721.1877 266.1159 693.8477 257.3259C647.9477 243.6559 597.1677 242.6759 545.8977 252.9259L742.6777 449.7059C753.4177 398.4359 751.9577 347.6559 738.2777 301.7559ZM639.6477 639.6459C681.1477 598.6359 710.4477 551.2659 728.5177 500.9759L494.6277 267.5759C444.8277 285.1559 396.9777 314.9459 355.9577 356.4459C314.4577 397.4559 285.1577 445.3159 267.0877 495.1159L500.4877 728.5159C550.7777 710.9359 598.1477 681.1559 639.6477 639.6459ZM463.8677 600.5859C458.4977 604.9759 451.6577 604.4959 446.2877 600.0959L395.0177 549.3159C390.6277 544.9259 390.6277 537.5959 395.0177 532.2259C400.3877 527.8359 407.7177 527.8359 412.1077 532.2259L429.1977 549.3159L446.7777 531.7359L429.6877 515.1359C424.8077 510.7459 424.8077 502.4459 429.6877 498.0459C434.0777 492.6759 441.8977 492.6759 446.7777 497.5559L463.8677 515.1359L480.9577 497.0659L464.3577 479.9759C459.4777 475.5859 458.9877 467.7759 464.3577 463.8659C468.7477 458.4959 476.0777 458.4959 480.4677 463.3759L498.0477 480.9559L516.1177 462.8859L498.5377 445.7959C493.6477 441.4059 493.6477 433.5959 498.5377 428.7059C503.9077 424.3159 511.2277 424.3159 515.1377 428.7059L532.2277 445.7959L550.2977 428.7059L532.7177 411.6259C528.8077 406.7359 528.3177 398.9259 532.7177 394.0459C538.0877 390.1359 544.9177 389.6459 549.8077 394.0459L601.5577 445.3159C605.9577 450.1959 605.4677 458.0059 601.5577 462.8859C596.6777 467.2859 589.3577 467.2859 583.9877 462.4059L566.8977 445.3159L549.3177 462.8859L566.8977 480.4659C571.2877 484.3759 571.2877 492.1859 566.8977 497.0659C562.0077 501.9559 554.6877 501.4659 549.8077 496.5859L532.2277 479.4959L514.6477 497.0659L532.2277 514.6459C536.6177 519.0459 537.1077 527.3459 532.2277 531.2459C527.8277 536.6259 520.0177 536.1359 515.6277 531.2459L498.0477 514.6459L479.9777 531.7359L497.5577 548.8259C502.9277 553.7059 502.9277 561.5259 497.5577 565.9159C493.1677 570.7959 485.8377 571.2859 480.4677 565.9159L463.8677 548.8259L446.2877 565.9159L463.8677 583.9859C467.7777 588.3759 467.7777 595.7059 463.8677 600.5859ZM301.7577 738.7659C347.6577 752.4459 398.4377 753.4159 449.7077 743.1659L252.4377 546.3859C242.1877 597.1659 243.6477 648.4359 257.3277 694.3359C265.6277 721.6759 273.9277 729.9759 301.7577 738.7659Z"/>
</svg>