<?xml version="1.0" encoding="UTF-8" standalone="no"?>
<svg xmlns="http://www.w3.org/2000/svg"
     width="987.1220607408139" height="986.9651178542993"
     viewBox="0 0 987.1220607408139 986.9651178542993"
     fill="currentColor">
  <path d="M964.8763 109.1578C948.2763 55.4478 931.6763 38.8478 877.9563 22.2478C788.6063 -4.1222 688.5063 -7.0522 587.9263 13.4578L973.6663 399.1978C994.1763 298.6178 991.2463 198.5178 964.8763 109.1578ZM771.5163 771.2678C852.0863 691.6778 910.1863 597.4378 945.3463 499.7878L487.3363 41.7778C389.6763 76.9378 295.9263 135.0378 215.3663 215.6078C134.7963 295.1978 77.1763 389.4378 41.5363 487.0878L499.5463 945.0978C597.6863 909.9378 691.4363 851.8378 771.5163 771.2678ZM425.3263 693.1478C416.5363 701.4478 402.8663 701.4478 394.0763 692.6578L293.9763 592.5578C285.6763 584.2578 285.6763 570.5878 293.9763 561.7978C302.7663 552.5178 316.9263 552.5178 325.2263 561.3078L359.8963 595.9778L396.0263 559.3578L361.3563 525.1778C353.0563 516.8778 353.0563 502.7178 361.3563 493.9278C370.1463 485.1378 384.3063 485.1378 393.0963 493.4378L427.2763 528.5978L463.4063 491.9778L428.7463 457.7978C420.4363 449.4978 419.9563 435.3378 428.7463 426.5478C437.5263 417.7578 452.1763 417.7578 459.9963 426.0578L494.6563 460.7278L531.2763 424.5878L496.1263 390.4078C487.8263 382.1078 487.3363 367.9478 496.1263 359.1578C504.9163 350.3678 519.0763 350.3678 527.3763 358.6778L562.0463 393.3378L598.6663 357.2078L563.9963 322.5378C555.2063 314.2378 554.7163 300.5678 563.9963 291.7778C572.2963 283.4778 586.4563 283.4778 594.7563 291.2878L695.3463 391.8778C703.6463 400.6678 703.6463 414.3378 695.3463 423.1278C686.5563 431.9178 672.3963 431.4278 663.6063 422.6378L629.4263 388.4578L593.2963 424.5878L627.9563 459.2578C636.7463 468.0478 636.7463 481.7178 627.9563 490.9978C618.6863 499.2978 605.0163 498.8078 596.7063 490.5078L562.0463 456.3278L525.9063 491.9778L560.5763 526.6378C569.3663 534.9378 569.3663 549.0978 560.5763 558.3778C551.2963 567.1678 537.6263 566.6778 529.3263 557.8878L494.6563 523.7078L458.5263 559.3578L492.7063 594.0278C501.4963 602.3278 501.4963 616.9778 492.7063 625.7678C483.9163 634.0678 470.2463 634.0678 461.9463 625.2778L427.2763 591.0978L391.1463 627.2278L425.3263 661.4078C434.1163 670.1978 434.1163 684.3578 425.3263 693.1478ZM109.4063 964.6278C198.7663 990.9978 298.8563 993.9278 399.4463 973.9078L13.2163 587.6778C-6.8037 688.2678 -4.3637 788.3578 22.4963 877.7178C38.6063 931.4278 55.6963 948.5178 109.4063 964.6278Z"/>
</svg>