<?xml version="1.0" encoding="UTF-8" standalone="no"?>
<svg xmlns="http://www.w3.org/2000/svg"
     width="670.769603261949" height="1132.32421875"
     viewBox="0 0 670.769603261949 1132.32421875"
     fill="currentColor">
  <path d="M167.3494 1132.3198C208.3694 1132.3198 233.7594 1109.3798 233.2694 1069.3398L223.4994 520.9998C223.4994 503.9098 230.8294 491.2098 245.9694 484.3798C310.4194 456.0498 338.2494 426.2698 334.8294 340.8198L321.1594 41.0198C320.1794 19.5298 307.4894 7.3198 287.4694 7.3198C268.4294 7.3198 256.7094 20.0198 256.7094 41.9898L260.1294 333.4998C260.1294 350.5898 249.3794 361.3298 233.2694 361.3298C216.6694 361.3298 204.9494 351.0698 204.9494 334.9598L200.0694 33.1998C199.5794 12.2098 187.3694 -0.0002 167.3494 -0.0002C147.3294 -0.0002 135.6094 12.2098 135.1294 33.1998L130.2394 334.9598C130.2394 351.0698 118.5194 361.3298 101.9194 361.3298C85.8094 361.3298 74.5794 350.5898 74.5794 333.4998L77.9994 41.9898C77.9994 20.0198 66.7694 7.3198 47.2394 7.3198C27.2194 7.3198 14.5194 19.5298 13.5394 41.0198L0.3594 340.8198C-3.5506 426.2698 24.2894 456.0498 88.7394 484.3798C103.8794 491.2098 111.1994 503.9098 111.1994 520.9998L101.9194 1069.3398C101.4294 1109.3798 126.3394 1132.3198 167.3494 1132.3198ZM549.1894 706.5398L538.9294 1066.8898C537.4694 1109.3798 563.3494 1132.3198 603.8794 1132.3198C645.3794 1132.3198 670.7694 1111.3298 670.7694 1072.2698V36.6198C670.7694 11.7198 653.6794 -0.0002 636.0994 -0.0002C617.5494 -0.0002 605.3394 9.7698 589.7194 32.7098C511.0994 143.0698 459.3394 349.6098 459.3394 544.9198V568.8498C459.3394 602.5398 471.5494 627.4398 495.9694 643.5498L524.7694 663.0898C542.3494 675.2898 550.1594 688.9598 549.1894 706.5398Z"/>
</svg>