<?xml version="1.0" encoding="UTF-8" standalone="no"?>
<svg xmlns="http://www.w3.org/2000/svg"
     width="996.09375" height="996.09375"
     viewBox="0 0 996.09375 996.09375"
     fill="currentColor">
  <path d="M498.0477 996.0959C770.5077 996.0959 996.0977 770.0159 996.0977 498.0459C996.0977 225.5859 770.0177 -0.0041 497.5577 -0.0041C225.5877 -0.0041 -0.0023 225.5859 -0.0023 498.0459C-0.0023 770.0159 226.0777 996.0959 498.0477 996.0959ZM498.0477 913.0859C267.5777 913.0859 83.4977 728.5159 83.4977 498.0459C83.4977 267.5759 267.0877 83.0059 497.5577 83.0059C728.0277 83.0059 913.0877 267.5759 913.0877 498.0459C913.0877 728.5159 728.5177 913.0859 498.0477 913.0859ZM394.5277 817.8759C417.4777 817.8759 432.1277 805.1759 431.6377 782.7159L426.2677 473.1459C426.2677 463.3759 430.1777 456.0559 438.9677 452.1459C475.0977 436.5259 491.6977 419.9259 488.7677 371.0959L480.9577 202.1459C480.4677 189.9459 473.6377 182.6159 462.3977 182.6159C451.6577 182.6159 444.8277 190.4259 444.8277 202.6359L447.2677 367.6759C447.2677 376.9559 440.4277 383.2959 431.6377 383.2959C421.8777 383.2959 415.0377 376.9559 415.0377 368.1659L413.0877 198.2459C413.0877 186.0359 405.2777 179.1959 394.5277 179.1959C383.2977 179.1959 375.9777 186.0359 375.9777 198.2459L373.0477 368.1659C373.0477 376.9559 366.6977 383.2959 357.4177 383.2959C348.6377 383.2959 341.7977 376.9559 341.7977 367.6759L344.2377 202.6359C344.2377 190.4259 337.3977 182.6159 326.6577 182.6159C315.4277 182.6159 308.1077 189.9459 307.6177 202.1459L300.2977 371.0959C298.3377 419.9259 313.9677 436.5259 350.5877 452.1459C358.8877 456.0559 362.7977 463.3759 362.7977 473.1459L357.4177 782.7159C356.9377 805.1759 371.5777 817.8759 394.5277 817.8759ZM585.9377 583.4959L579.5877 781.2459C578.6177 805.1759 593.7477 817.8759 616.2077 817.8759C640.1377 817.8759 654.2977 806.1559 654.2977 784.1759V199.7059C654.2977 185.5459 644.0477 179.1959 634.7677 179.1959C624.0277 179.1959 617.1877 185.0559 608.3977 197.7559C563.9677 259.7659 534.6677 376.4659 534.6677 486.3259V504.8859C534.6677 524.4159 541.9877 537.5959 555.6677 547.3659L571.7777 558.5959C581.5477 565.4259 585.9377 572.7559 585.9377 583.4959Z"/>
</svg>