<?xml version="1.0" encoding="UTF-8" standalone="no"?>
<svg xmlns="http://www.w3.org/2000/svg"
     width="1344.7265625" height="767.08984375"
     viewBox="0 0 1344.7265625 767.08984375"
     fill="currentColor">
  <path d="M70.3083 767.0916C90.3283 767.0916 106.9383 760.7416 126.4683 749.0216L624.0283 456.0516C650.8783 440.4316 665.5283 422.8516 670.8983 402.3416V683.5916C670.8983 737.7916 703.1283 767.0916 741.2083 767.0916C761.2283 767.0916 777.8283 760.7416 797.3683 749.0216L1295.4083 456.0516C1329.5883 435.5516 1344.7283 411.6216 1344.7283 383.3016C1344.7283 355.4716 1329.5883 331.5416 1295.4083 311.0316L797.3683 18.0616C777.8283 6.3516 761.2283 0.0016 741.2083 0.0016C703.1283 0.0016 670.8983 29.3016 670.8983 83.4916V364.7416C665.5283 344.2416 650.8783 326.6616 624.0283 311.0316L126.4683 18.0616C106.4483 6.3516 90.3283 0.0016 70.3083 0.0016C32.2283 0.0016 -0.0017 29.3016 -0.0017 83.4916V683.5916C-0.0017 737.7916 32.2283 767.0916 70.3083 767.0916Z"/>
</svg>