<?xml version="1.0" encoding="UTF-8" standalone="no"?>
<svg xmlns="http://www.w3.org/2000/svg"
     width="910.64453125" height="806.640625"
     viewBox="0 0 910.64453125 806.640625"
     fill="currentColor">
  <path d="M41.5055 806.6411C64.4555 806.6411 83.4955 789.0611 83.4955 766.1111V41.0111C83.4955 18.0711 64.4555 0.0011 41.5055 0.0011C18.5555 0.0011 -0.0045 18.0711 -0.0045 41.0111V766.1111C-0.0045 789.0611 18.5555 806.6411 41.5055 806.6411ZM307.1255 787.1111C327.1455 787.1111 343.7455 780.7611 363.7655 769.0411L861.3255 476.0711C895.5055 455.5711 910.6455 431.1511 910.6455 403.3211C910.6455 375.4911 895.9955 351.0711 861.3255 330.5711L363.7655 37.6011C343.7455 25.8811 327.1455 19.5311 307.1255 19.5311C269.0455 19.5311 236.8155 48.8311 236.8155 103.5111V703.1211C236.8155 757.8111 269.0455 787.1111 307.1255 787.1111ZM328.6155 696.7811C321.7755 696.7811 315.4255 691.8911 315.4255 682.1311V124.5111C315.4255 114.7411 321.7755 109.8611 328.6155 109.8611C332.0355 109.8611 335.9355 111.3311 340.8155 114.2611L804.6855 389.6511C811.5255 393.5511 815.4255 396.4811 815.4255 403.3211C815.4255 409.6711 811.5255 413.0811 804.6855 416.9911L340.8155 692.3811C335.9355 695.3111 332.0355 696.7811 328.6155 696.7811Z"/>
</svg>