<?xml version="1.0" encoding="UTF-8" standalone="no"?>
<svg xmlns="http://www.w3.org/2000/svg"
     width="996.09375" height="996.09375"
     viewBox="0 0 996.09375 996.09375"
     fill="currentColor">
  <path d="M498.0477 996.0959C770.5077 996.0959 996.0977 770.0159 996.0977 498.0459C996.0977 225.5859 770.0177 -0.0041 497.5577 -0.0041C225.5877 -0.0041 -0.0023 225.5859 -0.0023 498.0459C-0.0023 770.0159 226.0777 996.0959 498.0477 996.0959ZM498.0477 913.0859C267.5777 913.0859 83.4977 728.5159 83.4977 498.0459C83.4977 267.5759 267.0877 83.0059 497.5577 83.0059C728.0277 83.0059 913.0877 267.5759 913.0877 498.0459C913.0877 728.5159 728.5177 913.0859 498.0477 913.0859ZM318.3577 677.7359C327.1477 677.7359 335.4477 674.8059 344.2377 669.4359L577.1477 532.7159C586.9177 526.8559 593.2577 520.5059 596.6777 513.1859V654.2959C596.6777 674.3159 607.4177 684.0859 626.9577 684.0859H679.1977C698.7277 684.0859 709.4777 674.3159 709.4777 654.2959V342.2859C709.4777 322.2659 698.7277 312.0159 679.1977 312.0159H626.9577C607.4177 312.0159 596.6777 321.7759 596.6777 342.2859V484.3759C593.2577 477.0459 586.9177 470.7059 577.1477 464.8459L344.2377 328.1259C335.4477 322.7559 327.1477 319.8259 318.3577 319.8259C300.2977 319.8259 285.6477 333.0059 285.6477 358.3959V639.1559C285.6477 664.5459 300.2977 677.7359 318.3577 677.7359Z"/>
</svg>