<?xml version="1.0" encoding="UTF-8" standalone="no"?>
<svg xmlns="http://www.w3.org/2000/svg"
     width="1425.29296875" height="806.640625"
     viewBox="0 0 1425.29296875 806.640625"
     fill="currentColor">
  <path d="M70.3083 787.1111C90.3283 787.1111 106.4483 780.7611 126.4683 769.0411L624.0283 476.0711C650.3883 460.4511 665.5283 442.3811 670.8983 422.3611V703.1211C670.8983 757.8111 703.1283 787.1111 741.2083 787.1111C761.2283 787.1111 777.8283 780.7611 797.3683 769.0411L1294.9183 476.0711C1321.2883 460.4511 1336.4283 442.3811 1341.7983 422.3611V766.1111C1341.7983 789.0611 1360.8383 806.6411 1383.7883 806.6411C1406.7383 806.6411 1425.2883 789.0611 1425.2883 766.1111V41.0111C1425.2883 18.0711 1406.7383 0.0011 1383.7883 0.0011C1360.8383 0.0011 1341.7983 18.0711 1341.7983 41.0111V384.2811C1336.4283 364.2611 1321.7783 346.1911 1294.9183 330.5711L797.3683 37.6011C777.3483 25.8811 761.2283 19.5311 741.2083 19.5311C703.1283 19.5311 670.8983 48.8311 670.8983 103.5111V384.2811C665.5283 364.2611 650.3883 346.1911 624.0283 330.5711L126.4683 37.6011C106.4483 25.8811 90.3283 19.5311 70.3083 19.5311C31.7383 19.5311 -0.0017 48.8311 -0.0017 103.5111V703.1211C-0.0017 757.8111 31.7383 787.1111 70.3083 787.1111ZM91.7983 696.7811C84.4683 696.7811 78.1283 691.8911 78.1283 682.1311V124.5111C78.1283 114.7411 84.4683 109.8611 91.7983 109.8611C94.7283 109.8611 98.6283 111.3311 103.5183 114.2611L567.8683 389.6511C574.7083 393.5511 578.1283 396.4811 578.1283 403.3211C578.1283 409.6711 574.2183 413.0811 567.8683 416.9911L103.5183 692.3811C98.6283 695.3111 94.7283 696.7811 91.7983 696.7811ZM762.6983 696.7811C755.3683 696.7811 749.5083 691.8911 749.5083 682.1311V124.5111C749.5083 114.7411 755.3683 109.8611 762.6983 109.8611C765.6283 109.8611 769.5283 111.3311 774.4183 114.2611L1238.7683 389.6511C1245.6083 393.5511 1249.0283 396.4811 1249.0283 403.3211C1249.0283 409.6711 1245.6083 413.0811 1238.7683 416.9911L774.4183 692.3811C769.5283 695.3111 765.6283 696.7811 762.6983 696.7811Z"/>
</svg>