<?xml version="1.0" encoding="UTF-8" standalone="no"?>
<svg xmlns="http://www.w3.org/2000/svg"
     width="996.09375" height="996.09375"
     viewBox="0 0 996.09375 996.09375"
     fill="currentColor">
  <path d="M498.0477 996.0959C770.5077 996.0959 996.0977 770.0159 996.0977 498.0459C996.0977 225.5859 770.0177 -0.0041 497.5577 -0.0041C225.5877 -0.0041 -0.0023 225.5859 -0.0023 498.0459C-0.0023 770.0159 226.0777 996.0959 498.0477 996.0959ZM498.0477 913.0859C267.5777 913.0859 83.4977 728.5159 83.4977 498.0459C83.4977 267.5759 267.0877 83.0059 497.5577 83.0059C728.0277 83.0059 913.0877 267.5759 913.0877 498.0459C913.0877 728.5159 728.5177 913.0859 498.0477 913.0859ZM251.4677 677.7359C260.7377 677.7359 269.0477 674.8059 277.8277 669.4359L510.7377 532.2259C522.9477 525.3859 529.7877 517.0859 532.2277 507.3259V639.1559C532.2277 664.0659 547.3677 677.7359 564.9377 677.7359C574.2177 677.7359 582.0277 674.8059 591.3077 669.4359L824.2177 532.2259C839.8477 522.9459 847.1677 511.2259 847.1677 498.5359C847.1677 485.8359 839.8477 474.1259 824.2177 464.8459L591.3077 327.6359C582.0277 322.2659 574.2177 319.3359 564.9377 319.3359C547.3677 319.3359 532.2277 333.0059 532.2277 357.9059V489.2559C529.7877 479.9759 522.9477 471.6759 510.7377 464.8459L277.8277 327.6359C269.0477 322.2659 260.7377 319.3359 251.4677 319.3359C233.8877 319.3359 219.2377 333.0059 219.2377 357.9059V639.1559C219.2377 664.0659 233.8877 677.7359 251.4677 677.7359Z"/>
</svg>