<?xml version="1.0" encoding="UTF-8" standalone="no"?>
<svg xmlns="http://www.w3.org/2000/svg"
     width="1583.0078125" height="795.41015625"
     viewBox="0 0 1583.0078125 795.41015625"
     fill="currentColor">
  <path d="M70.3083 780.76C90.3283 780.76 106.4483 774.41 126.4683 762.7L624.0283 470.21C650.3883 454.1 665.5283 436.52 670.8983 416.02V697.27C670.8983 751.95 703.1283 780.76 741.2083 780.76C761.2283 780.76 777.8283 774.41 797.3683 762.7L1294.9183 470.21C1321.2883 454.1 1336.4283 436.52 1341.7983 416.02V729.98C1341.7983 772.95 1364.2583 795.41 1407.2283 795.41H1518.0683C1561.0383 795.41 1583.0083 772.95 1583.0083 729.98V64.94C1583.0083 20.51 1561.0383 0 1518.0683 0H1407.2283C1364.2583 0 1341.7983 22.46 1341.7983 64.94V378.42C1336.4283 358.4 1321.7783 340.33 1294.9183 324.71L797.3683 31.74C777.3483 20.02 761.2283 13.67 741.2083 13.67C703.1283 13.67 670.8983 42.97 670.8983 97.66V378.42C665.5283 358.4 650.3883 340.33 624.0283 324.71L126.4683 31.74C106.4483 20.02 90.3283 13.67 70.3083 13.67C31.7383 13.67 -0.0017 42.97 -0.0017 97.66V697.27C-0.0017 751.95 31.7383 780.76 70.3083 780.76Z"/>
</svg>