<?xml version="1.0" encoding="UTF-8" standalone="no"?>
<svg xmlns="http://www.w3.org/2000/svg"
     width="996.09375" height="996.09375"
     viewBox="0 0 996.09375 996.09375"
     fill="currentColor">
  <path d="M498.0477 996.0959C770.5077 996.0959 996.0977 770.0159 996.0977 498.0459C996.0977 225.5859 770.0177 -0.0041 497.5577 -0.0041C225.5877 -0.0041 -0.0023 225.5859 -0.0023 498.0459C-0.0023 770.0159 226.0777 996.0959 498.0477 996.0959ZM857.4177 498.5359C857.4177 512.2059 850.0977 523.9259 833.4977 533.6959L594.2377 674.8059C583.9877 680.6659 576.6577 683.1059 566.8977 683.1059C548.3377 683.1059 533.2077 669.9259 533.2077 643.5559V514.1559C529.2977 521.4859 522.9477 527.8359 513.1877 533.6959L273.4377 674.8059C263.6677 680.6659 255.8577 683.1059 246.0977 683.1059C228.0277 683.1059 212.3977 669.9259 212.3977 643.5559V354.0059C212.3977 327.6359 228.0277 314.4559 246.0977 314.4559C255.8577 314.4559 263.6677 316.8959 273.4377 322.7559L513.1877 463.8659C522.9477 469.7259 529.2977 476.0759 533.2077 483.3959V354.0059C533.2077 327.6359 548.3377 314.4559 566.8977 314.4559C576.6577 314.4559 583.9877 316.8959 594.2377 322.7559L833.4977 463.8659C850.0977 473.6359 857.4177 485.3559 857.4177 498.5359Z"/>
</svg>