<?xml version="1.0" encoding="UTF-8" standalone="no"?>
<svg xmlns="http://www.w3.org/2000/svg"
     width="1273.6106623789888" height="1004.39453125"
     viewBox="0 0 1273.6106623789888 1004.39453125"
     fill="currentColor">
  <path d="M327.1477 215.3339C353.5177 192.8739 384.2777 176.2739 417.9677 166.9939V0.0039C332.0277 4.3939 254.3977 31.7339 189.4577 76.6639ZM477.5377 159.1839C516.5977 159.6639 558.1077 170.4139 591.3077 191.4039L692.8677 90.3339C638.1877 39.5539 563.4777 7.3239 477.5377 1.4639ZM7.3277 372.5539H247.0677C250.4877 332.0339 266.1177 291.9939 288.0877 259.7639L143.0677 113.7739C72.7577 178.2239 24.4177 267.5739 7.3277 372.5539ZM535.1577 612.7939C681.6377 612.7939 794.9177 497.0739 794.9177 334.4739C794.9177 257.3239 772.4577 188.4739 732.4177 134.2739L635.7377 231.4439C660.1577 261.7139 674.8077 300.2939 674.8077 342.2839C674.8077 432.1239 611.8177 496.5839 530.2777 496.5839C464.3577 496.5839 412.5977 453.6139 412.5977 403.3239C412.5977 386.2339 426.2677 375.4839 440.9177 375.4839C452.6377 375.4839 463.3777 382.8139 467.7777 398.9239C474.1177 422.8539 494.6277 440.9139 527.3477 440.9139C579.5877 440.9139 612.3077 403.8039 612.3077 346.1939C612.3077 276.8539 553.7077 223.1439 478.0277 223.1439C385.2577 223.1439 308.1077 302.2439 308.1077 403.3239C308.1077 520.5039 403.8077 612.7939 535.1577 612.7939ZM1023.9277 854.0039C1147.9477 753.9039 1235.3477 608.3939 1271.9777 448.7339C1281.2477 408.2039 1249.5077 383.7939 1217.2877 383.7939H854.4877C849.1177 452.1439 817.3877 530.2739 758.2977 588.3739ZM-0.0023 458.9839C-0.0023 577.6339 32.7177 682.6139 91.7977 768.5539L297.8477 561.5239C269.5277 523.4339 251.4677 479.0039 246.0977 431.6439H0.4877C-0.0023 441.4039 -0.0023 450.1939 -0.0023 458.9839ZM127.9277 815.9139C213.8677 913.0839 338.3777 978.0239 489.7477 997.5539V672.8539C430.6677 665.0439 378.4177 640.6239 338.3777 604.4939ZM549.3177 1003.4139C562.4977 1004.3939 576.1677 1004.3939 590.3277 1004.3939C736.8177 1004.3939 868.1677 961.9139 976.5577 888.6739L712.3977 625.9739C668.4577 654.7839 613.7677 673.8239 549.3177 676.2739Z"/>
</svg>