<?xml version="1.0" encoding="UTF-8" standalone="no"?>
<svg xmlns="http://www.w3.org/2000/svg"
     width="631.8359375" height="887.6953125"
     viewBox="0 0 631.8359375 887.6953125"
     fill="currentColor">
  <path d="M-0.0017 689.938C-0.0017 707.028 14.1583 721.678 31.7383 721.678H123.5383V839.848C123.5383 867.678 142.5783 887.698 170.4083 887.698C197.7583 887.698 217.2883 867.188 217.2883 839.848V721.678H429.6883C447.2683 721.678 461.9183 707.028 461.9183 689.938C461.9183 672.368 447.2683 657.718 429.6883 657.718H217.2883V469.728H553.2183C578.1283 469.728 596.6783 453.618 596.6783 428.218C596.6783 402.828 578.1283 386.718 553.2183 386.718H217.2883V83.988H588.3783C613.7683 83.988 631.8383 67.868 631.8383 41.988C631.8383 16.598 613.7683 -0.002 588.3783 -0.002H170.4083C141.5983 -0.002 123.5383 19.038 123.5383 48.338V657.718H31.7383C14.1583 657.718 -0.0017 672.368 -0.0017 689.938Z"/>
</svg>