<?xml version="1.0" encoding="UTF-8" standalone="no"?>
<svg xmlns="http://www.w3.org/2000/svg"
     width="898.92578125" height="898.92578125"
     viewBox="0 0 898.92578125 898.92578125"
     fill="currentColor">
  <path d="M153.3183 898.9295H745.6083C848.1483 898.9295 898.9283 848.1495 898.9283 747.5595V151.3695C898.9283 50.7795 848.1483 -0.0005 745.6083 -0.0005H153.3183C51.2683 -0.0005 -0.0017 50.2895 -0.0017 151.3695V747.5595C-0.0017 848.6295 51.2683 898.9295 153.3183 898.9295ZM361.3283 701.1695C342.2883 701.1695 328.1283 688.4795 328.1283 668.9495V615.7195H287.5983C272.9483 615.7195 263.6683 604.4895 263.6683 590.3295C263.6683 576.1695 272.9483 565.4295 287.5983 565.4295H328.1283V253.9095C328.1283 233.3995 340.8183 220.2195 360.8383 220.2195H580.5683C598.1483 220.2195 611.8183 231.9295 611.8183 250.9795C611.8183 269.0395 598.1483 281.2495 580.5683 281.2495H394.0383V423.3395H562.0083C580.0783 423.3395 593.2583 435.0595 593.2583 453.6095C593.2583 471.6795 580.0783 483.8895 562.0083 483.8895H394.0383V565.4295H497.5583C512.2083 565.4295 522.4583 576.1695 522.4583 590.3295C522.4583 604.4895 512.2083 615.7195 497.5583 615.7195H394.0383V668.4595C394.0383 687.4995 380.8583 701.1695 361.3283 701.1695Z"/>
</svg>