<?xml version="1.0" encoding="UTF-8" standalone="no"?>
<svg xmlns="http://www.w3.org/2000/svg"
     width="996.09375" height="996.09375"
     viewBox="0 0 996.09375 996.09375"
     fill="currentColor">
  <path d="M498.0477 996.0959C770.5077 996.0959 996.0977 770.0159 996.0977 498.0459C996.0977 225.5859 770.0177 -0.0041 497.5577 -0.0041C225.5877 -0.0041 -0.0023 225.5859 -0.0023 498.0459C-0.0023 770.0159 226.0777 996.0959 498.0477 996.0959ZM498.0477 913.0859C267.5777 913.0859 83.4977 728.5159 83.4977 498.0459C83.4977 267.5759 267.0877 83.0059 497.5577 83.0059C728.0277 83.0059 913.0877 267.5759 913.0877 498.0459C913.0877 728.5159 728.5177 913.0859 498.0477 913.0859ZM412.1077 742.6759C430.6677 742.6759 443.3577 729.4959 443.3577 710.9359V659.6659H543.9477C558.1077 659.6659 567.8677 648.9259 567.8677 635.2559C567.8677 621.5859 558.1077 611.3259 543.9477 611.3259H443.3577V531.7359H606.4477C623.5377 531.7359 636.7177 520.0159 636.7177 502.4459C636.7177 484.8659 623.5377 473.6359 606.4477 473.6359H443.3577V335.4459H624.5077C641.5977 335.4459 654.2977 323.7259 654.2977 306.1559C654.2977 288.0859 641.5977 276.3659 624.5077 276.3659H411.6177C392.0877 276.3659 379.8877 289.0659 379.8877 309.0859V611.3259H340.8177C326.6577 611.3259 317.3877 621.5859 317.3877 635.2559C317.3877 648.9259 326.6577 659.6659 340.8177 659.6659H379.8877V711.4259C379.8877 730.4659 393.5577 742.6759 412.1077 742.6759Z"/>
</svg>