<?xml version="1.0" encoding="UTF-8" standalone="no"?>
<svg xmlns="http://www.w3.org/2000/svg"
     width="1030.2734375" height="1089.35546875"
     viewBox="0 0 1030.2734375 1089.35546875"
     fill="currentColor">
  <path d="M-0.0017 1049.3127C-0.0017 1071.2927 17.0883 1089.3527 38.5783 1089.3527H804.6883C826.1683 1089.3527 843.7483 1071.2927 843.7483 1049.3127C843.7483 1028.3227 826.1683 1010.7427 804.6883 1010.7427H767.0883V643.0627H771.9683C794.4383 643.0627 808.1083 655.7627 808.1083 680.1727V841.7927C808.1083 911.1327 850.0983 953.1227 919.4383 953.1227C988.7683 953.1227 1030.2783 911.1327 1030.2783 841.7927V243.6527C1030.2783 214.3527 1022.4583 191.8927 1008.2983 169.4327L941.4083 61.0327C916.5083 21.4827 858.3983 57.1327 882.8083 97.1727L940.4283 189.9427C945.7983 198.7327 945.3083 208.9827 939.4483 217.7727L875.4883 307.1327C854.4883 335.9327 857.4183 363.2827 879.3983 389.1627L961.4283 484.3727V841.7927C961.4283 868.1627 945.3083 884.2727 919.4383 884.2727C893.0683 884.2727 877.4383 868.1627 877.4383 841.7927V680.1727C877.4383 612.7927 837.3983 574.2227 771.9683 574.2227H767.0883V124.0227C767.0883 43.9427 723.1483 0.0027 643.0683 0.0027H200.1983C119.6283 0.0027 77.1483 43.9427 77.1483 124.0227V1010.7427H38.5783C17.5783 1010.7427 -0.0017 1027.8327 -0.0017 1049.3127ZM155.7583 125.0027C155.7583 94.7227 170.4083 78.6127 201.6583 78.6127H641.5983C671.8783 78.6127 687.9883 94.2427 687.9883 125.0027V1010.7427H155.2783ZM265.6283 537.5927H577.6383C610.3483 537.5927 632.8083 518.0627 632.8083 488.2827V192.3827C632.8083 162.5927 609.8683 142.0927 577.6383 142.0927H265.6283C233.3983 142.0927 211.4283 162.5927 211.4283 192.3827V488.2827C211.4283 518.0627 233.3983 537.5927 265.6283 537.5927Z"/>
</svg>