<?xml version="1.0" encoding="UTF-8" standalone="no"?>
<svg xmlns="http://www.w3.org/2000/svg"
     width="996.09375" height="996.09375"
     viewBox="0 0 996.09375 996.09375"
     fill="currentColor">
  <path d="M498.0477 996.0959C770.5077 996.0959 996.0977 770.0159 996.0977 498.0459C996.0977 225.5859 770.0177 -0.0041 497.5577 -0.0041C225.5877 -0.0041 -0.0023 225.5859 -0.0023 498.0459C-0.0023 770.0159 226.0777 996.0959 498.0477 996.0959ZM498.0477 913.0859C267.5777 913.0859 83.4977 728.5159 83.4977 498.0459C83.4977 267.5759 267.0877 83.0059 497.5577 83.0059C728.0277 83.0059 913.0877 267.5759 913.0877 498.0459C913.0877 728.5159 728.5177 913.0859 498.0477 913.0859ZM262.6977 744.6259C262.6977 755.8559 272.9477 766.1159 284.1777 766.1159H642.5777C655.2777 766.1159 664.5477 755.8559 664.5477 744.6259C664.5477 733.8859 655.2777 724.6059 642.5777 724.6059H633.7877V660.1559H704.5877C746.0977 660.1559 767.0877 639.1559 767.0877 598.1459V342.7759C767.0877 325.6859 762.6977 312.4959 754.3977 299.8059L720.2177 243.6559C706.5477 222.1659 674.8077 241.6959 687.9877 263.6759L723.1477 319.8259V320.3159L687.0077 371.0959C674.3177 388.6759 675.2977 402.8359 689.4577 419.4359L729.4877 465.8159V598.1459C729.4877 614.2559 720.7077 622.5559 704.5877 622.5559H633.7877V272.4559C633.7877 232.4259 612.3077 210.4459 571.7777 210.4459H355.4677C315.4277 210.4459 293.4577 231.9359 293.4577 272.4559V724.6059H284.1777C272.9477 724.6059 262.6977 733.8859 262.6977 744.6259ZM383.2977 480.9559C366.6977 480.9559 356.4477 471.1959 356.4477 456.0559V298.8259C356.4477 283.6959 366.6977 274.9059 383.2977 274.9059H544.4377C561.0377 274.9059 571.2877 283.6959 571.2877 298.8259V456.0559C571.2877 471.1959 561.0377 480.9559 544.4377 480.9559Z"/>
</svg>