<?xml version="1.0" encoding="UTF-8" standalone="no"?>
<svg xmlns="http://www.w3.org/2000/svg"
     width="1071.2890625" height="722.16796875"
     viewBox="0 0 1071.2890625 722.16796875"
     fill="currentColor">
  <path d="M551.2683 722.1689C567.8683 722.1689 577.1483 716.7989 589.3583 699.2189L784.6683 432.6189H787.5983L980.9583 699.7089C992.6783 716.3089 1003.4183 722.1689 1020.9983 722.1689C1046.8783 722.1689 1065.4283 704.0989 1065.4283 679.1989C1065.4283 668.4589 1062.0083 656.7389 1054.6883 647.9489L843.2583 362.3089L1060.5483 71.2889C1067.3783 62.0089 1071.2883 51.7589 1071.2883 41.4989C1071.2883 18.5589 1052.2483 -0.0011 1029.2983 -0.0011C1011.2283 -0.0011 1000.9783 5.8589 988.7683 23.4389L793.9483 293.4589H791.0183L597.1683 23.4389C584.4683 5.3689 575.1983 -0.0011 556.1483 -0.0011C530.2783 -0.0011 511.2283 17.5789 511.2283 41.9889C511.2283 52.7389 515.1383 63.4789 521.9683 73.2389L731.9383 359.3789L518.5583 650.3889C511.2283 660.1589 507.3283 670.4089 507.3283 680.6689C507.3283 704.0989 526.8583 722.1689 551.2683 722.1689ZM44.4383 720.2189C72.2683 720.2189 90.3283 702.6389 90.3283 674.8089V407.7189H376.9483C400.3883 407.7189 417.9683 392.5789 417.9683 368.6489C417.9683 344.2389 400.3883 329.0989 376.9483 329.0989H90.3283V90.8189H404.7883C429.1983 90.8189 446.7783 75.6789 446.7783 50.7789C446.7783 25.8789 429.1983 10.2489 404.7883 10.2489H43.9483C17.0883 10.2489 -0.0017 27.8289 -0.0017 55.1789V674.8089C-0.0017 702.6389 17.0883 720.2189 44.4383 720.2189Z"/>
</svg>