<?xml version="1.0" encoding="UTF-8" standalone="no"?>
<svg xmlns="http://www.w3.org/2000/svg"
     width="996.09375" height="996.09375"
     viewBox="0 0 996.09375 996.09375"
     fill="currentColor">
  <path d="M498.0477 996.0959C770.5077 996.0959 996.0977 770.0159 996.0977 498.0459C996.0977 225.5859 770.0177 -0.0041 497.5577 -0.0041C225.5877 -0.0041 -0.0023 225.5859 -0.0023 498.0459C-0.0023 770.0159 226.0777 996.0959 498.0477 996.0959ZM498.0477 913.0859C267.5777 913.0859 83.4977 728.5159 83.4977 498.0459C83.4977 267.5759 267.0877 83.0059 497.5577 83.0059C728.0277 83.0059 913.0877 267.5759 913.0877 498.0459C913.0877 728.5159 728.5177 913.0859 498.0477 913.0859ZM499.5077 727.0459C618.6477 727.0459 689.4577 657.2259 689.4577 556.6359V520.9959C689.4577 494.6259 673.8277 479.0059 648.4377 479.0059H522.4577C504.8877 479.0059 494.1377 490.7259 494.1377 507.3259C494.1377 521.9759 504.8877 535.1559 522.4577 535.1559H611.8177V566.8959C611.8177 624.5159 573.7277 662.5959 500.4877 662.5959C421.8777 662.5959 369.6277 595.7059 369.6277 493.6559C369.6277 392.5759 421.3877 324.2159 499.0277 324.2159C554.1977 324.2159 595.2177 350.5859 615.2377 398.9259C623.0477 415.5259 632.8077 422.3659 647.4577 422.3659C667.9677 422.3659 681.1477 409.6659 681.1477 389.1559C681.1477 380.8559 680.1777 374.5159 676.7577 366.6959C653.8077 305.1759 588.8677 259.7659 498.0477 259.7659C371.5777 259.7659 290.5277 351.0759 290.5277 493.6559C290.5277 636.7159 371.5777 727.0459 499.5077 727.0459Z"/>
</svg>