<?xml version="1.0" encoding="UTF-8" standalone="no"?>
<svg xmlns="http://www.w3.org/2000/svg"
     width="996.09375" height="996.09375"
     viewBox="0 0 996.09375 996.09375"
     fill="currentColor">
  <path d="M498.0477 996.0959C770.5077 996.0959 996.0977 770.0159 996.0977 498.0459C996.0977 225.5859 770.0177 -0.0041 497.5577 -0.0041C225.5877 -0.0041 -0.0023 225.5859 -0.0023 498.0459C-0.0023 770.0159 226.0777 996.0959 498.0477 996.0959ZM500.4877 736.8159C367.1877 736.8159 282.7177 642.5759 282.7177 493.6559C282.7177 345.2159 367.1877 249.9959 498.5377 249.9959C593.7477 249.9959 660.6477 297.3659 685.0577 361.3259C687.9877 369.6259 689.9377 375.9759 689.9377 384.7659C689.9377 406.2459 676.2677 419.9259 654.7877 419.9259C639.1577 419.9259 629.3977 412.1059 621.0977 395.0159C600.0977 344.7259 557.6177 317.3859 499.9977 317.3859C418.9477 317.3859 364.7477 388.1859 364.7477 493.6559C364.7477 599.6059 419.4377 669.9259 501.4677 669.9259C578.1277 669.9259 617.6777 629.8859 617.6777 570.3159V537.1059H524.4177C505.8577 537.1059 494.6277 523.4359 494.6277 507.8159C494.6277 490.7259 505.8577 478.5159 524.4177 478.5159H655.2777C682.1277 478.5159 698.2377 494.6259 698.2377 522.4559V559.5659C698.2377 664.0659 624.9977 736.8159 500.4877 736.8159Z"/>
</svg>