<?xml version="1.0" encoding="UTF-8" standalone="no"?>
<svg xmlns="http://www.w3.org/2000/svg"
     width="898.92578125" height="898.92578125"
     viewBox="0 0 898.92578125 898.92578125"
     fill="currentColor">
  <path d="M153.3183 898.9295H745.6083C848.1483 898.9295 898.9283 848.1495 898.9283 747.5595V151.3695C898.9283 50.7795 848.1483 -0.0005 745.6083 -0.0005H153.3183C51.2683 -0.0005 -0.0017 50.2895 -0.0017 151.3695V747.5595C-0.0017 848.6295 51.2683 898.9295 153.3183 898.9295ZM452.1483 687.4995C318.8483 687.4995 234.3783 593.2595 234.3783 444.3395C234.3783 295.8995 318.8483 200.6795 450.1983 200.6795C545.4083 200.6795 612.3083 248.0495 636.7183 312.0095C640.1383 320.3095 641.5983 326.6595 641.5983 335.4495C641.5983 356.9295 627.9283 370.6095 606.4483 370.6095C590.8183 370.6095 581.0583 362.7895 572.7583 345.6995C551.7583 295.4095 509.2783 268.0695 451.6583 268.0695C370.6083 268.0695 316.4083 338.8695 316.4083 444.3395C316.4083 550.2895 371.0983 620.6095 453.1283 620.6095C529.7883 620.6095 569.3383 580.5695 569.3383 520.9995V487.7895H476.0783C457.5183 487.7895 446.2883 474.1195 446.2883 458.4995C446.2883 441.4095 457.5183 429.1995 476.0783 429.1995H606.9383C633.7883 429.1995 649.8983 445.3095 649.8983 473.1395V510.2495C649.8983 614.7495 576.6583 687.4995 452.1483 687.4995Z"/>
</svg>