<?xml version="1.0" encoding="UTF-8" standalone="no"?>
<svg xmlns="http://www.w3.org/2000/svg"
     width="898.92578125" height="898.92578125"
     viewBox="0 0 898.92578125 898.92578125"
     fill="currentColor">
  <path d="M153.3183 898.9295H745.6083C848.1483 898.9295 898.9283 848.1495 898.9283 747.5595V151.3695C898.9283 50.7795 848.1483 -0.0005 745.6083 -0.0005H153.3183C51.2683 -0.0005 -0.0017 50.2895 -0.0017 151.3695V747.5595C-0.0017 848.6295 51.2683 898.9295 153.3183 898.9295ZM154.2983 820.3095C105.4683 820.3095 78.6183 794.4295 78.6183 743.6495V155.2695C78.6183 104.4895 105.4683 78.6095 154.2983 78.6095H744.6283C792.9683 78.6095 820.3083 104.4895 820.3083 155.2695V743.6495C820.3083 794.4295 792.9683 820.3095 744.6283 820.3095ZM451.6583 677.7295C570.7983 677.7295 641.5983 607.9095 641.5983 507.3195V471.6795C641.5983 445.3095 625.9783 429.6895 600.5883 429.6895H475.0983C457.0283 429.6895 446.2883 441.4095 446.2883 458.0095C446.2883 472.6595 457.0283 485.8395 475.0983 485.8395H563.9683V517.5795C563.9683 575.1995 526.3683 613.2795 452.6383 613.2795C374.0283 613.2795 321.7783 546.3895 321.7783 444.3395C321.7783 343.2595 373.5383 274.8995 451.1683 274.8995C506.3483 274.8995 547.3683 301.2695 567.3783 349.6095C575.6883 366.2095 584.9583 373.0495 600.0983 373.0495C620.1183 373.0495 633.2983 360.3495 633.2983 339.8395C633.2983 331.5395 632.3283 325.1995 628.9083 317.3795C605.9583 255.8595 541.0183 210.4495 450.1983 210.4495C323.7283 210.4495 242.6783 301.7595 242.6783 444.3395C242.6783 587.3995 323.7283 677.7295 451.6583 677.7295Z"/>
</svg>