<?xml version="1.0" encoding="UTF-8" standalone="no"?>
<svg xmlns="http://www.w3.org/2000/svg"
     width="996.09375" height="996.09375"
     viewBox="0 0 996.09375 996.09375"
     fill="currentColor">
  <path d="M498.0477 996.0959C770.5077 996.0959 996.0977 770.0159 996.0977 498.0459C996.0977 225.5859 770.0177 -0.0041 497.5577 -0.0041C225.5877 -0.0041 -0.0023 225.5859 -0.0023 498.0459C-0.0023 770.0159 226.0777 996.0959 498.0477 996.0959ZM498.0477 913.0859C267.5777 913.0859 83.4977 728.5159 83.4977 498.0459C83.4977 267.5759 267.0877 83.0059 497.5577 83.0059C728.0277 83.0059 913.0877 267.5759 913.0877 498.0459C913.0877 728.5159 728.5177 913.0859 498.0477 913.0859ZM497.5577 276.8559C523.4377 276.8559 545.4077 254.8859 545.4077 229.0059C545.4077 202.1459 523.4377 181.1559 497.5577 181.1559C471.1877 181.1559 449.7077 202.1459 449.7077 229.0059C449.7077 254.8859 471.1877 276.8559 497.5577 276.8559ZM637.2077 320.3159C664.0577 320.3159 685.0577 298.3359 685.0577 271.9759C685.0577 245.6059 664.0577 223.6359 637.2077 223.6359C610.8377 223.6359 589.3577 245.6059 589.3577 271.9759C589.3577 298.3359 610.8377 320.3159 637.2077 320.3159ZM357.9077 320.3159C384.7677 320.3159 405.7577 298.3359 405.7577 271.9759C405.7577 245.6059 384.7677 224.1259 357.9077 224.1259C331.5477 224.1259 310.0577 245.6059 310.0577 271.9759C310.0577 298.3359 331.5477 320.3159 357.9077 320.3159ZM249.5077 423.3359C276.3677 423.3359 297.3677 401.8559 297.3677 375.4859C297.3677 348.6359 276.3677 327.1459 249.5077 327.1459C223.1477 327.1459 201.6577 348.6359 201.6577 375.4859C201.6577 401.8559 223.1477 423.3359 249.5077 423.3359ZM745.6077 423.3359C772.4577 423.3359 793.4577 401.8559 793.4577 375.4859C793.4577 348.6359 772.4577 327.1459 745.6077 327.1459C719.2377 327.1459 697.7577 348.6359 697.7577 375.4859C697.7577 401.8559 719.2377 423.3359 745.6077 423.3359ZM497.5577 794.9259C541.0177 794.9259 575.1977 760.7459 575.1977 717.2859C575.1977 674.3159 541.0177 639.6459 497.5577 639.6459C492.1877 639.6459 487.3077 640.1359 481.9377 641.1159L366.6977 476.5659C355.9577 460.9359 335.4477 458.0059 321.2877 467.7759C307.1277 477.5359 302.7377 497.5559 313.9677 513.1859L430.1777 678.7059C423.8277 689.9459 419.9177 703.1259 419.9177 717.2859C419.9177 760.7459 454.5877 794.9259 497.5577 794.9259Z"/>
</svg>