<?xml version="1.0" encoding="UTF-8" standalone="no"?>
<svg xmlns="http://www.w3.org/2000/svg"
     width="1020.5078125" height="1020.5078125"
     viewBox="0 0 1020.5078125 1020.5078125"
     fill="currentColor">
  <path d="M465.3277 1020.503H555.1777C580.5677 1020.503 599.1177 1005.373 604.4877 980.473L629.8877 873.043C648.9277 866.703 667.4777 859.373 683.5977 851.563L777.8277 909.183C798.8277 922.363 822.7577 920.413 840.3277 902.833L903.3177 840.333C920.8977 822.753 923.3377 797.363 909.1777 776.363L851.5577 683.103C859.8677 666.013 867.1877 648.433 872.5577 630.863L980.9577 604.983C1005.8577 599.613 1020.5077 581.053 1020.5077 555.663V467.283C1020.5077 442.383 1005.8577 423.833 980.9577 418.453L873.5377 392.583C867.1877 372.563 859.3777 354.493 852.5377 339.353L910.1577 244.633C923.8277 223.633 922.3677 199.703 904.2977 182.133L840.3277 119.143C822.2677 102.543 800.7777 99.613 779.2977 111.813L683.5977 170.903C667.9677 162.593 649.8977 155.273 629.8877 148.923L604.4877 40.043C599.1177 15.133 580.5677 0.003 555.1777 0.003H465.3277C439.9377 0.003 421.3877 15.133 415.5277 40.043L390.1377 147.953C371.0977 154.293 352.5377 161.623 335.9377 170.413L241.2077 111.813C219.7277 99.613 197.7577 102.053 179.6877 119.143L116.2077 182.133C98.1477 199.703 96.1877 223.633 110.3477 244.633L167.4777 339.353C161.1377 354.493 153.3177 372.563 146.9777 392.583L39.5477 418.453C14.6477 423.833 -0.0023 442.383 -0.0023 467.283V555.663C-0.0023 581.053 14.6477 599.613 39.5477 604.983L147.9477 630.863C153.3177 648.433 160.6477 666.013 168.4577 683.103L111.3277 776.363C96.6777 797.363 99.6077 822.753 117.1877 840.333L179.6877 902.833C197.2677 920.413 221.6777 922.363 242.6777 909.183L336.4277 851.563C353.0277 859.373 371.0977 866.703 390.1377 873.043L415.5277 980.473C421.3877 1005.373 439.9377 1020.503 465.3277 1020.503ZM510.2577 682.613C415.5277 682.613 337.8877 604.493 337.8877 509.763C337.8877 415.523 415.5277 337.893 510.2577 337.893C604.9777 337.893 682.6177 415.523 682.6177 509.763C682.6177 604.493 604.9777 682.613 510.2577 682.613Z"/>
</svg>