<?xml version="1.0" encoding="UTF-8" standalone="no"?>
<svg xmlns="http://www.w3.org/2000/svg"
     width="1044.921875" height="1043.9453125"
     viewBox="0 0 1044.921875 1043.9453125"
     fill="currentColor">
  <path d="M473.1477 1043.9417H571.7777C609.3777 1043.9417 638.1877 1020.9917 646.9777 984.8617L667.9677 893.5517L683.5977 888.1817L763.1877 937.0117C794.9177 957.0317 831.5477 952.1517 858.3977 925.2917L926.7577 857.4217C953.6177 830.5617 958.4977 793.4617 938.4777 762.2117L888.6677 683.1017L894.5277 668.4617L985.8377 646.9717C1021.4877 638.1817 1044.9177 608.8817 1044.9177 571.7817V475.1017C1044.9177 437.9917 1021.9777 408.6917 985.8377 399.9017L895.5077 377.9317L889.1577 362.3017L938.9677 283.2017C958.9877 251.9517 954.0977 215.3317 927.2477 187.9917L858.8877 119.6317C832.5177 93.2617 795.8977 88.3817 764.1577 107.9117L684.5677 156.7417L667.9677 150.3917L646.9777 59.0817C638.1877 22.9517 609.3777 0.0017 571.7777 0.0017H473.1477C435.5477 0.0017 406.7377 22.9517 397.9477 59.0817L376.4677 150.3917L359.8677 156.7417L280.7577 107.9117C249.0277 88.3817 211.9177 93.2617 185.5477 119.6317L117.6777 187.9917C90.8177 215.3317 85.4477 251.9517 105.9577 283.2017L155.2777 362.3017L149.4177 377.9317L59.0777 399.9017C22.9477 408.6917 -0.0023 437.9917 -0.0023 475.1017V571.7817C-0.0023 608.8817 23.4377 638.1817 59.0777 646.9717L150.3877 668.4617L155.7577 683.1017L106.4477 762.2117C85.9377 793.4617 91.3077 830.5617 118.1677 857.4217L186.0377 925.2917C212.8877 952.1517 249.9977 957.0317 281.7377 937.0117L360.8377 888.1817L376.4677 893.5517L397.9477 984.8617C406.7377 1020.9917 435.5477 1043.9417 473.1477 1043.9417ZM480.9577 967.7717C472.6577 967.7717 468.2577 964.3517 466.7977 956.5417L437.4977 835.4517C407.7177 828.1217 379.8877 816.4017 358.8877 803.2217L252.4377 868.6517C246.5777 873.0517 240.2377 872.0717 234.3777 866.2117L176.7577 808.5917C171.3877 803.2217 170.8977 797.3617 174.8077 790.5317L240.2377 685.0617C229.0077 664.5517 216.3077 636.7217 208.4977 606.9317L87.3977 578.1217C79.5877 576.6617 76.1677 572.2617 76.1677 563.9617V482.4217C76.1677 473.6317 79.0977 469.7217 87.3977 468.2617L208.0077 438.9617C215.8177 407.2217 230.4677 378.4217 239.2577 360.3517L174.3177 254.8817C169.9177 247.5617 170.4077 241.7017 175.7777 235.8417L233.8877 179.2017C239.7477 173.3417 245.1177 172.3617 252.4377 176.7617L357.9077 240.7217C378.9077 229.0017 408.6877 216.8017 437.9877 208.4917L466.7977 87.4017C468.2577 79.5917 472.6577 76.1717 480.9577 76.1717H563.9677C572.2677 76.1717 576.6577 79.5917 577.6377 87.4017L607.4177 209.4717C637.6977 217.2817 664.0577 229.4917 686.0377 241.2117L791.9877 176.7617C799.8077 172.3617 804.6877 173.3417 811.0377 179.2017L868.6477 235.8417C874.5077 241.7017 874.5077 247.5617 870.1177 254.8817L805.1777 360.3517C814.4577 378.4217 828.6177 407.2217 836.4277 438.9617L957.5177 468.2617C965.3277 469.7217 968.7477 473.6317 968.7477 482.4217V563.9617C968.7477 572.2617 964.8477 576.6617 957.5177 578.1217L835.9377 606.9317C828.1277 636.7217 815.9177 664.5517 804.1977 685.0617L869.6277 790.5317C873.5377 797.3617 873.5377 803.2217 867.6777 808.5917L810.5477 866.2117C804.1977 872.0717 798.3377 873.0517 791.9877 868.6517L685.5477 803.2217C664.5477 816.4017 637.2077 828.1217 607.4177 835.4517L577.6377 956.5417C576.6577 964.3517 572.2677 967.7717 563.9677 967.7717ZM522.4577 708.4917C624.5077 708.4917 708.4977 624.5117 708.4977 521.9717C708.4977 420.4117 624.5077 336.4217 522.4577 336.4217C420.4077 336.4217 335.9377 420.4117 335.9377 521.9717C335.9377 624.0217 419.9177 708.4917 522.4577 708.4917ZM522.4577 632.8117C461.9177 632.8117 412.1077 583.0117 412.1077 521.9717C412.1077 461.9117 461.9177 412.1117 522.4577 412.1117C582.0277 412.1117 631.8377 461.9117 631.8377 521.9717C631.8377 582.5217 582.0277 632.8117 522.4577 632.8117Z"/>
</svg>