<?xml version="1.0" encoding="UTF-8" standalone="no"?>
<svg xmlns="http://www.w3.org/2000/svg"
     width="1194.1962317752843" height="996.09375"
     viewBox="0 0 1194.1962317752843 996.09375"
     fill="currentColor">
  <path d="M222.2318 173.3359C203.6818 194.3359 206.1218 220.2159 225.6518 233.8859C244.6918 247.5559 267.6418 243.1659 283.7618 225.0959C359.9318 138.1859 472.2318 83.0059 597.2318 83.0059C809.6318 83.0059 982.9718 240.7259 1008.3618 446.2859H935.6118C900.9418 446.2859 892.1518 469.7259 910.7118 496.5859L1020.0818 652.3459C1035.7118 674.8059 1059.1518 675.2959 1075.2618 652.3459L1184.1518 497.0659C1203.6818 469.7259 1194.4018 446.2859 1159.2418 446.2859H1092.3518C1065.4918 197.7559 851.6318 -0.0041 597.2318 -0.0041C448.3118 -0.0041 314.0318 67.3859 222.2318 173.3359ZM576.7218 741.2059H617.2518C631.9018 741.2059 643.1318 732.4259 646.5518 717.2859L657.2918 671.3859C664.1318 669.4359 671.4518 666.0159 678.2918 662.5959L718.8118 687.4959C731.0218 695.3159 744.6918 695.3159 755.4418 683.5959L783.2718 655.7659C793.0318 645.5059 794.5018 631.8359 786.2018 618.1659L762.2718 577.6359C766.1818 571.2859 768.1318 564.9459 770.5718 559.0859L816.4718 547.8559C831.6118 543.9459 840.8818 533.2059 840.8818 518.0659V478.0259C840.8818 463.8659 830.6318 453.6159 816.4718 450.1959L771.0618 438.9659C768.1318 430.6659 765.2018 425.2959 762.7618 419.4359L788.1518 377.4459C795.4718 365.7259 794.5018 350.5859 784.7318 341.3059L755.4418 313.4759C745.1818 302.7359 731.0218 300.7859 719.3018 308.1059L678.2918 333.9859C670.4718 329.5859 664.1318 328.1259 657.2918 325.6859L646.5518 278.8059C643.1318 264.6459 631.9018 255.3759 617.2518 255.3759H576.7218C562.0818 255.3759 550.3618 265.1359 547.4318 278.8059L536.6918 325.1959C528.8718 328.1259 522.0418 329.5859 515.2018 333.9859L474.6718 308.1059C463.4418 301.2659 448.7918 302.7359 438.0518 313.4759L411.2018 341.3059C400.4518 351.0759 398.0118 365.7259 405.3418 377.4459L431.2218 419.4359C428.7818 425.2959 425.8518 431.6359 423.4018 438.9659L377.0218 450.1959C362.8618 453.6159 353.5818 464.3559 353.5818 478.0259V518.0659C353.5818 533.2059 362.8618 543.9459 377.0218 547.8559L423.4018 559.0859C426.3318 564.9459 428.7818 571.2859 431.7018 577.6359L407.7818 618.6559C399.9718 631.8359 400.9418 645.9959 411.2018 655.7659L438.0518 683.5959C448.7918 695.3159 462.9518 695.3159 475.1618 687.4959L516.6718 662.5959C523.9918 666.9959 530.8318 669.4359 536.6918 671.3859L547.4318 717.2859C550.3618 731.4459 562.0818 741.2059 576.7218 741.2059ZM9.8318 499.5159C-9.2082 526.3659 -0.4182 550.2959 34.7318 550.2959H102.1118C128.4818 798.8259 342.8418 996.0959 597.2318 996.0959C746.1618 996.0959 880.9218 928.2259 972.7218 822.7559C990.7918 801.7559 988.3518 775.3859 969.3018 761.7159C950.2618 748.0459 926.8218 752.9259 911.2018 770.9959C835.5118 858.3959 723.2118 913.0859 597.2318 913.0859C384.3418 913.0859 211.0018 755.3759 186.1018 550.2959H258.8518C293.5218 550.2959 302.3118 526.3659 283.7618 499.9959L174.3818 344.2359C158.7618 321.7759 135.3218 321.2859 119.2018 344.2359ZM597.2318 576.1759C553.2918 576.1759 519.1118 541.5059 519.1118 498.5359C519.1118 455.5659 553.2918 419.9259 597.2318 419.4359C639.7118 418.9459 675.3618 455.5659 675.3618 498.5359C675.3618 541.5059 639.7118 576.1759 597.2318 576.1759Z"/>
</svg>