<?xml version="1.0" encoding="UTF-8" standalone="no"?>
<svg xmlns="http://www.w3.org/2000/svg"
     width="996.09375" height="996.09375"
     viewBox="0 0 996.09375 996.09375"
     fill="currentColor">
  <path d="M498.0477 996.0959C770.5077 996.0959 996.0977 770.0159 996.0977 498.0459C996.0977 225.5859 770.0177 -0.0041 497.5577 -0.0041C225.5877 -0.0041 -0.0023 225.5859 -0.0023 498.0459C-0.0023 770.0159 226.0777 996.0959 498.0477 996.0959ZM498.0477 913.0859C267.5777 913.0859 83.4977 728.5159 83.4977 498.0459C83.4977 267.5759 267.0877 83.0059 497.5577 83.0059C728.0277 83.0059 913.0877 267.5759 913.0877 498.0459C913.0877 728.5159 728.5177 913.0859 498.0477 913.0859ZM263.6677 458.9859C263.6677 484.8659 278.3177 495.1159 304.6877 495.1159H477.5377V363.2859H439.9377C401.3677 363.2859 378.9077 339.8459 378.9077 312.4959C378.9077 286.1359 398.4377 270.0159 425.2977 270.0159C454.5877 270.0159 477.5377 291.9959 477.5377 328.6159V363.2859H517.5777V495.1159H690.9177C717.2877 495.1159 731.4477 484.8659 731.4477 458.9859V399.9059C731.4477 374.0259 717.2877 363.2859 690.9177 363.2859H633.7877C648.4377 350.5859 656.2477 331.5459 656.2477 310.5459C656.2477 263.1859 619.1377 229.4959 572.7577 229.4959C538.5777 229.4959 510.2577 248.0459 497.5577 281.7359C484.8677 248.0459 457.0277 229.4959 422.8477 229.4959C375.9777 229.4959 338.8677 263.1859 338.8677 310.5459C338.8677 331.5459 347.1677 350.5859 361.3277 363.2859H304.6877C279.2977 363.2859 263.6677 374.0259 263.6677 399.9059ZM570.3077 270.0159C597.1677 270.0159 616.2077 286.1359 616.2077 312.4959C616.2077 339.8459 593.7477 363.2859 555.1777 363.2859H517.5777V328.6159C517.5777 291.9959 540.5277 270.0159 570.3077 270.0159ZM298.3377 678.2259C298.3377 718.7459 322.2677 740.2359 362.7977 740.2359H477.5377V520.9959H298.3377ZM517.5777 740.2359H632.3277C672.8477 740.2359 696.7777 718.7459 696.7777 678.2259V520.9959H517.5777Z"/>
</svg>