<?xml version="1.0" encoding="UTF-8" standalone="no"?>
<svg xmlns="http://www.w3.org/2000/svg"
     width="996.09375" height="996.09375"
     viewBox="0 0 996.09375 996.09375"
     fill="currentColor">
  <path d="M498.0477 996.0959C770.5077 996.0959 996.0977 770.0159 996.0977 498.0459C996.0977 225.5859 770.0177 -0.0041 497.5577 -0.0041C225.5877 -0.0041 -0.0023 225.5859 -0.0023 498.0459C-0.0023 770.0159 226.0777 996.0959 498.0477 996.0959ZM498.0477 929.6859C337.3977 929.6859 194.8277 838.3759 120.6077 705.5659C185.0577 649.4159 184.0777 563.9659 210.9377 563.9659C226.0777 563.9659 241.2077 577.1459 267.5777 610.8359C312.4977 668.9459 342.2877 697.7559 372.5577 697.7559C400.8777 697.7559 435.5477 656.2459 435.5477 623.0459C435.5477 607.4259 406.2477 587.4059 406.2477 575.6859C406.2477 568.8459 413.0877 565.4259 422.8477 565.4259C491.6977 565.4259 552.2477 507.8159 552.2477 461.9159C552.2477 429.1959 499.0277 398.9259 499.0277 377.9259C499.0277 369.1359 506.3477 363.2859 515.1377 363.2859C520.9977 363.2859 527.8277 365.7259 536.6177 372.0659C589.8477 414.0659 614.7477 392.0859 619.6277 365.2359C621.5777 354.0059 627.9277 342.2859 655.7577 328.6159C713.8677 297.8559 754.8877 255.8559 754.8877 223.1459C754.8877 186.5259 688.4777 155.2759 688.4777 141.1159C688.4777 135.2559 694.8277 129.8859 710.9377 124.0259C840.8177 198.7259 929.6877 339.3559 929.6877 498.0459C929.6877 543.9459 922.3677 588.3759 908.6877 629.8859C894.0477 604.4959 872.5577 590.8159 846.6777 590.8159C835.4477 590.8159 821.2877 592.7759 808.5977 597.1659C791.5077 602.5359 788.0877 601.5659 774.4177 585.9359C754.8877 563.4759 737.7977 555.6659 710.9377 555.6659C660.1577 555.6659 630.8577 582.0359 608.8877 647.9459C602.5377 667.9659 593.7477 674.8059 559.5677 687.9859L539.0577 695.3159C500.9777 709.9559 491.2077 737.3059 504.3977 794.9259C516.1177 845.7059 540.5277 871.5859 575.1977 871.5859C606.4477 871.5859 625.4877 860.3559 646.9777 860.3559C666.9877 859.8659 680.6677 867.6759 693.3577 881.8359C634.7677 912.1059 567.8677 929.6859 498.0477 929.6859ZM615.7277 468.2659C647.4577 468.2659 661.6177 439.9459 697.2677 429.1959C720.7077 422.3659 733.3977 398.4359 733.3977 377.9259C733.3977 361.3259 725.0977 347.1659 707.0277 347.1659C687.9877 347.1659 670.4077 361.8159 658.6877 386.7159C652.3477 400.8759 641.5977 407.7159 615.7277 415.0359C595.2177 421.3859 587.8877 428.7059 587.8877 444.3359C587.8877 460.9359 601.0777 468.2659 615.7277 468.2659ZM474.1177 693.8459C501.9577 693.8459 529.2977 661.6259 529.2977 632.8159C529.2977 597.1659 514.6477 580.5659 497.5577 580.5659C479.0077 580.5659 467.2877 602.5359 467.2877 635.7459C467.2877 654.7859 450.6877 655.2759 450.6877 674.3159C450.6877 686.0359 459.9577 693.8459 474.1177 693.8459ZM388.6677 783.2059C410.1577 783.2059 423.3377 771.9759 423.3377 754.3959C423.3377 740.7259 413.0877 731.9359 398.4377 731.9359C339.3577 731.9359 336.9177 698.7259 308.5977 698.7259C292.9677 698.7259 282.2277 708.0059 282.2277 721.6759C282.2277 732.4259 292.9677 740.7259 307.6177 740.7259C338.8677 740.7259 324.2177 783.2059 388.6677 783.2059Z"/>
</svg>