<?xml version="1.0" encoding="UTF-8" standalone="no"?>
<svg xmlns="http://www.w3.org/2000/svg"
     width="996.09375" height="996.09375"
     viewBox="0 0 996.09375 996.09375"
     fill="currentColor">
  <path d="M498.0477 996.0959C770.5077 996.0959 996.0977 770.0159 996.0977 498.0459C996.0977 225.5859 770.0177 -0.0041 497.5577 -0.0041C225.5877 -0.0041 -0.0023 225.5859 -0.0023 498.0459C-0.0023 770.0159 226.0777 996.0959 498.0477 996.0959ZM468.2577 671.8759C468.2577 600.5859 411.6177 546.8759 336.4277 546.8759C278.3177 546.8759 250.4877 518.5559 250.4877 463.8659C250.4877 387.6959 330.5677 337.8859 406.7377 337.8859C458.0077 337.8859 498.5377 363.7659 538.5777 363.7659C571.2877 363.7659 594.2377 314.9459 594.2377 278.8059C594.2377 233.3959 498.0477 183.1059 468.7477 183.1059C446.7777 183.1059 436.5277 194.8259 433.1077 220.2159L426.7577 214.8459C406.2477 199.7059 390.1377 190.9159 371.5777 190.9159C324.7077 190.9159 322.7577 253.9059 297.8477 253.9059C291.5077 253.9059 287.1077 249.5159 287.1077 242.6759C287.1077 221.1959 339.3577 177.2459 339.8477 116.6959L340.3277 96.6759C389.1577 77.1459 442.3877 66.4059 497.5577 66.4059C733.3977 66.4059 929.6877 262.2059 929.6877 498.0459C929.6877 512.2059 929.1977 526.8559 927.7377 540.5259C884.2777 502.9259 897.4577 365.7259 836.9177 365.7259C815.4277 365.7259 802.2477 384.7659 793.9477 384.7659C788.5777 384.7659 775.8777 374.0259 747.0677 350.5859C732.9077 339.3559 718.2577 324.2159 691.8977 324.2159C659.6677 324.2159 628.4177 360.8359 628.4177 394.5359C628.4177 447.7559 725.5877 475.5859 725.5877 494.1359C725.5877 505.3759 721.1877 514.1559 703.1277 534.6659C683.1077 557.1259 673.8277 572.2659 673.8277 591.3059C673.8277 599.6059 674.8077 607.4259 675.2977 614.7459C677.7377 647.4559 676.2677 659.6659 666.9877 675.2959C644.5277 709.9559 580.5677 824.2159 518.5577 824.2159C463.3777 824.2159 468.2577 745.1159 468.2577 671.8759ZM498.0477 929.6859C262.2077 929.6859 66.4077 733.8859 66.4077 498.0459C66.4077 335.4459 159.1777 191.8959 293.9477 118.6559V121.0959C293.9477 179.6859 241.6977 201.1759 241.6977 247.5559C241.6977 275.8759 261.7177 294.4359 292.4777 294.4359C350.5877 294.4359 351.5577 232.9059 374.9977 232.9059C393.5577 233.3959 415.0377 265.6259 452.1477 265.6259C471.6777 265.6259 482.4177 253.9059 484.3777 232.4259C512.6977 244.1359 547.8477 264.1559 547.8477 283.2059C547.8477 295.8959 542.4777 314.4559 532.2277 314.4559C511.2277 314.4559 456.0577 288.5759 406.7377 288.5759C303.7077 288.5759 201.1677 360.3559 201.1677 463.8659C201.1677 546.3859 249.9977 596.1959 336.4277 596.1959C383.7877 596.1959 418.9477 627.9259 418.9477 671.8759C418.9477 744.1359 410.6477 873.5359 518.5577 873.5359C611.3277 873.5359 689.4577 731.9359 709.4777 698.7259C734.8677 657.2259 723.1477 615.7259 723.1477 591.3059C723.1477 576.1759 774.8977 538.5759 774.8977 494.1359C774.8977 449.2159 674.8077 412.1059 674.8077 394.0459C674.8077 382.3259 684.5677 368.1659 694.3377 368.1659C713.3777 368.1659 766.1177 436.0359 798.3377 436.0359C817.8677 436.0359 823.7277 418.9459 831.5477 418.9459C844.7277 418.9459 854.9777 559.5659 918.9477 592.2859C875.4877 783.6959 701.6577 929.6859 498.0477 929.6859ZM650.3877 200.6859C661.1377 200.6859 670.8977 210.9359 688.9677 210.9359C700.1977 210.9359 708.4977 200.6859 708.4977 187.4959C708.4977 163.5759 681.6377 145.5059 646.4877 145.5059C604.9777 145.5059 581.0577 159.1759 581.0577 183.1059C581.0577 198.7259 592.7777 209.9559 608.3977 209.9559C624.5077 209.9559 631.8377 200.6859 650.3877 200.6859Z"/>
</svg>