<?xml version="1.0" encoding="UTF-8" standalone="no"?>
<svg xmlns="http://www.w3.org/2000/svg"
     width="996.09375" height="996.09375"
     viewBox="0 0 996.09375 996.09375"
     fill="currentColor">
  <path d="M498.0477 996.0959C770.5077 996.0959 996.0977 770.0159 996.0977 498.0459C996.0977 225.5859 770.0177 -0.0041 497.5577 -0.0041C225.5877 -0.0041 -0.0023 225.5859 -0.0023 498.0459C-0.0023 770.0159 226.0777 996.0959 498.0477 996.0959ZM206.0577 181.6359C254.8877 136.2259 314.4577 102.0459 379.8877 83.0059C346.1877 117.1859 317.3877 165.5259 295.8977 225.0959C261.2277 213.8659 230.9577 199.2159 206.0577 181.6359ZM616.6977 83.4959C681.6377 102.5359 740.7277 136.7159 790.0377 182.1259C765.1377 199.7059 734.8677 213.8659 700.1977 225.0959C678.7077 166.0159 649.8977 117.6759 616.6977 83.4959ZM358.8877 241.2059C386.2277 166.5059 424.3177 112.7959 466.3077 94.2359V252.4459C427.7377 250.9759 392.0877 247.0659 358.8877 241.2059ZM530.2777 94.2359C571.7777 112.7959 609.8677 166.5059 637.2077 241.2059C604.0077 247.0659 568.3577 250.9759 530.2777 252.4459ZM67.3877 465.8159C74.2177 376.9559 108.8877 294.4359 162.5977 228.0259C192.8677 250.9759 231.9377 270.0159 277.3477 284.6659C263.1877 339.3559 254.3977 400.3859 251.9577 465.8159ZM744.1377 465.8159C741.6977 400.3859 732.9077 339.3559 718.7477 284.6659C764.1577 270.0159 803.2277 250.9759 833.0077 228.5159C887.2077 294.4359 921.8777 376.9559 928.7077 465.8159ZM530.2777 465.8159V316.4059C574.2177 314.9459 616.2077 309.5659 655.7577 301.2659C668.4577 351.5659 676.2677 407.2259 678.7077 465.8159ZM317.3877 465.8159C319.8277 407.2259 328.1277 351.5659 340.3277 301.2659C379.8877 309.5659 421.8777 314.9459 466.3077 316.4059V465.8159ZM67.3877 529.7859H251.9577C254.3977 596.6759 263.1877 658.2059 277.3477 713.3759C232.4177 728.0259 193.8477 747.0659 164.0577 769.5359C109.3777 702.6359 74.2177 619.6259 67.3877 529.7859ZM317.3877 529.7859H466.3077V682.1259C422.3677 683.5959 380.3677 688.9659 341.3077 696.7759C328.1277 645.9959 319.3377 589.3559 317.3877 529.7859ZM530.2777 682.1259V529.7859H678.7077C676.7577 589.3559 667.9677 645.9959 654.7877 696.7759C616.2077 688.9659 573.7277 683.5959 530.2777 682.1259ZM718.7477 713.3759C732.9077 658.2059 741.6977 596.6759 744.1377 529.7859H928.7077C921.8777 619.6259 886.7177 702.6359 832.0277 769.5359C802.2477 747.0659 763.6677 728.0259 718.7477 713.3759ZM530.2777 746.0959C567.8677 747.5559 603.5177 750.9759 636.2277 757.3259C608.8877 830.0759 571.2877 883.7859 530.2777 902.3459ZM359.8677 757.3259C392.5777 750.9759 428.2277 747.5559 466.3077 746.0959V902.3459C424.8077 883.7859 387.2077 830.0759 359.8677 757.3259ZM699.7077 772.9459C733.8877 784.1759 763.6677 798.3359 788.5777 815.4259C739.7477 859.8659 681.6377 893.5559 617.1877 912.5959C649.8977 878.9059 678.2277 831.0559 699.7077 772.9459ZM207.5177 815.4259C232.4177 798.3359 262.2077 784.1759 296.3877 772.9459C317.8677 831.0559 346.1877 878.9059 379.3977 912.5959C314.9377 893.5559 256.3477 859.8659 207.5177 815.4259Z"/>
</svg>