<?xml version="1.0" encoding="UTF-8" standalone="no"?>
<svg xmlns="http://www.w3.org/2000/svg"
     width="996.09375" height="996.09375"
     viewBox="0 0 996.09375 996.09375"
     fill="currentColor">
  <path d="M498.0477 996.0959C770.5077 996.0959 996.0977 770.0159 996.0977 498.0459C996.0977 225.5859 770.0177 -0.0041 497.5577 -0.0041C225.5877 -0.0041 -0.0023 225.5859 -0.0023 498.0459C-0.0023 770.0159 226.0777 996.0959 498.0477 996.0959ZM491.6977 819.3359C491.6977 813.9659 493.1677 810.0559 498.5377 792.9659C503.4177 777.3459 510.7377 755.8559 510.2577 732.4259C509.7677 700.6859 483.8877 678.2259 426.7577 637.6959C416.5077 630.3759 405.7577 623.0459 395.0177 614.7459C379.3977 603.0259 373.0477 592.7759 373.0477 581.0559C373.0477 574.7059 374.5077 567.8759 379.3977 552.7359C383.7877 537.1059 386.7177 524.9059 386.7177 516.1159C386.7177 494.1359 375.4877 479.4959 352.0477 459.4759C348.6377 457.0359 346.1877 454.5859 343.2577 452.1459L265.1377 382.3259C168.4577 295.8959 167.9677 245.6059 206.5477 181.6359C283.6877 110.3559 386.2277 66.4059 497.5577 66.4059C575.6877 66.4059 649.4177 87.8859 713.3777 124.9959C683.5977 184.0859 579.0977 233.3959 524.4177 262.2059C513.6677 267.5759 507.8077 279.7859 517.5777 293.4559C537.5977 321.2859 546.3877 333.4959 546.3877 344.2359C546.3877 352.0459 540.5277 357.9059 532.2277 357.9059C516.1177 357.9059 462.8877 312.4959 435.0577 312.4959C402.3477 312.4959 364.7477 347.1659 364.7477 378.4159C364.7477 423.3359 455.0777 497.5559 500.9777 497.5559C528.3177 497.5559 577.1477 462.8859 592.7777 462.8859C624.9977 462.8859 716.3077 539.5459 716.3077 565.4259C716.3077 623.0459 559.5677 839.3559 517.0877 839.3559C505.8577 839.3559 491.6977 828.6159 491.6977 819.3359ZM498.0477 929.6859C262.2077 929.6859 66.4077 733.8859 66.4077 498.0459C66.4077 413.5759 91.3077 334.4759 134.2777 267.0859C139.1577 311.5259 166.9877 361.8159 232.4177 419.4359L310.0577 487.7959C328.1277 503.9059 337.3977 510.2559 337.3977 517.5759C337.3977 528.3159 323.7277 551.2659 323.7277 581.0559C323.7277 608.8859 337.3977 633.7859 365.2377 654.2959C422.3677 697.2659 460.9377 720.7059 460.9377 733.3959C461.4277 763.1859 442.3877 787.5959 442.3877 821.2859C442.3877 854.9759 482.9077 888.6759 518.5577 888.6759C588.8677 888.6759 765.6277 655.2759 765.6277 565.4259C765.6277 511.2259 653.3177 414.0659 592.7777 414.0659C564.9377 414.0659 525.3877 448.2459 500.9777 448.2459C478.5177 448.2459 414.0577 396.9759 414.0577 378.4159C414.0577 371.0959 425.7777 361.8159 435.0577 361.8159C449.2177 361.8159 499.5077 407.2259 527.8277 407.2259C568.8477 407.2259 595.7077 380.3759 595.7077 337.8859C595.7077 323.2459 589.8477 309.0859 577.1477 291.0159C628.9077 264.6459 719.7277 214.8459 754.3977 152.3459C860.3477 231.9359 929.6877 357.9059 929.6877 498.0459C929.6877 733.8859 733.8877 929.6859 498.0477 929.6859Z"/>
</svg>