<?xml version="1.0" encoding="UTF-8" standalone="no"?>
<svg xmlns="http://www.w3.org/2000/svg"
     width="996.09375" height="996.09375"
     viewBox="0 0 996.09375 996.09375"
     fill="currentColor">
  <path d="M498.0477 996.0959C770.5077 996.0959 996.0977 770.0159 996.0977 498.0459C996.0977 225.5859 770.0177 -0.0041 497.5577 -0.0041C225.5877 -0.0041 -0.0023 225.5859 -0.0023 498.0459C-0.0023 770.0159 226.0777 996.0959 498.0477 996.0959ZM277.8277 178.2259C277.8277 196.2859 242.6777 202.1459 236.8177 233.8859C232.9077 253.4159 219.2377 267.5759 202.6377 267.5759C188.9677 267.5759 170.8977 256.8359 160.6477 230.9559C188.4777 195.7959 221.6777 165.0359 258.7877 140.1359C274.4177 162.1059 277.8277 166.5059 277.8277 178.2259ZM498.0477 929.6859C349.1177 929.6859 215.8177 851.0759 138.1877 733.8859C197.2677 717.7759 217.2877 687.4959 217.2877 633.7859C217.2877 573.7259 264.6477 571.7759 264.6477 522.4559C264.6477 501.4659 243.6477 485.8359 203.1277 451.6559L170.8977 424.8059C165.0377 419.9259 162.5977 413.5759 162.5977 406.7359C162.5977 394.0459 171.8777 381.8359 186.0377 381.8359C195.3077 381.8359 201.1677 387.6959 225.5877 408.6959C260.2577 437.9859 276.3677 452.1459 295.8977 452.1459C316.4077 452.1459 325.1977 438.4759 338.8677 438.4759C350.0977 438.4759 356.9377 445.3159 361.8177 458.4959L378.4177 503.4159C397.4577 558.5959 441.8977 551.2659 452.1477 610.3559C476.0777 754.8859 497.5577 800.7859 542.4777 800.7859C584.9577 800.7859 610.8377 761.7159 610.8377 669.9259C610.8377 593.2659 695.3077 525.8759 727.0477 525.8759C767.5777 525.8759 779.2977 646.4859 893.5577 668.9459C826.1677 821.2859 673.3377 929.6859 498.0477 929.6859Z"/>
</svg>