<?xml version="1.0" encoding="UTF-8" standalone="no"?>
<svg xmlns="http://www.w3.org/2000/svg"
     width="996.09375" height="1090.7726005955958"
     viewBox="0 0 996.09375 1090.7726005955958"
     fill="currentColor">
  <path d="M-0.0023 592.7248C-0.0023 865.1848 226.0777 1090.7748 498.0477 1090.7748C770.5077 1090.7748 996.0977 865.1848 996.0977 592.7248C996.0977 352.4948 820.7977 148.8748 592.2877 103.9548V34.6248C592.2877 -0.0452 568.3577 -9.3252 541.9877 9.7148L386.2277 118.6048C363.7677 134.2248 363.2777 157.6648 386.2277 173.7848L541.5077 283.1548C568.3577 302.6848 592.2877 293.4048 592.2877 258.2548V188.9148C776.8577 230.9048 912.5977 394.9748 912.5977 592.7248C912.5977 823.1948 728.5177 1007.7648 498.0477 1007.7648C267.5777 1007.7648 82.5177 823.1948 83.0077 592.7248C83.4977 454.0548 150.8777 331.4948 254.8877 257.2748C274.8977 242.1348 281.2477 219.1948 269.0477 198.6848C256.8377 178.6648 229.9777 173.2948 208.4977 189.8948C83.0077 281.2048 -0.0023 428.6648 -0.0023 592.7248ZM665.0377 798.2948C746.0977 798.2948 799.3177 721.6348 799.3177 604.4448C799.3177 486.2848 746.0977 408.6448 665.0377 408.6448C583.4977 408.6448 530.7577 486.2848 530.7577 604.9348C530.7577 722.1248 583.9877 798.2948 665.0377 798.2948ZM343.2577 798.2948C422.3677 798.2948 473.1477 746.0448 473.1477 665.9648C473.1477 595.1648 424.3177 544.8748 358.3977 544.8748C314.4577 544.8748 281.2477 565.8748 267.0877 597.1248C267.0877 518.9948 299.8077 465.7748 350.0977 465.7748C375.4877 465.7748 391.5977 475.5348 402.8277 494.0948C411.1377 506.7848 418.9477 512.1548 433.5977 512.1548C448.2377 512.1548 458.4977 500.9248 458.4977 485.3048C458.4977 478.4648 457.0277 472.1248 455.0777 466.7448C441.8977 434.0348 404.2977 409.1348 352.5377 409.1348C259.2777 409.1348 207.5177 482.3748 207.5177 613.2348C207.5177 664.9948 215.3277 706.9848 232.4177 737.2548C253.9077 777.7848 293.9477 798.2948 343.2577 798.2948ZM665.0377 739.2148C621.5777 739.2148 594.2377 687.9448 594.2377 604.4448C594.2377 519.4848 621.0977 467.7248 665.0377 467.7248C708.4977 467.7248 735.3477 518.9948 735.3477 604.4448C735.3477 687.9448 708.0077 739.2148 665.0377 739.2148ZM340.8177 744.0948C300.7777 744.0948 271.9777 712.8448 271.9777 668.8948C271.9777 625.9248 300.2977 596.1448 340.8177 596.1448C381.3477 596.1448 409.6677 625.4448 409.6677 668.8948C409.6677 715.2848 382.8077 744.0948 340.8177 744.0948Z"/>
</svg>