<?xml version="1.0" encoding="UTF-8" standalone="no"?>
<svg xmlns="http://www.w3.org/2000/svg"
     width="996.09375" height="1090.7726005955958"
     viewBox="0 0 996.09375 1090.7726005955958"
     fill="currentColor">
  <path d="M-0.0023 592.7248C-0.0023 865.1848 226.0777 1090.7748 498.0477 1090.7748C770.5077 1090.7748 996.0977 865.1848 996.0977 592.7248C996.0977 352.4948 820.7977 148.8748 592.2877 103.9548V34.6248C592.2877 -0.0452 568.3577 -9.3252 541.9877 9.7148L386.2277 118.6048C363.7677 134.2248 363.2777 157.6648 386.2277 173.7848L541.5077 283.1548C568.3577 302.6848 592.2877 293.4048 592.2877 258.2548V188.9148C776.8577 230.9048 912.5977 394.9748 912.5977 592.7248C912.5977 823.1948 728.5177 1007.7648 498.0477 1007.7648C267.5777 1007.7648 82.5177 823.1948 83.0077 592.7248C83.4977 454.0548 150.8777 331.4948 254.8877 257.2748C274.8977 242.1348 281.2477 219.1948 269.0477 198.6848C256.8377 178.6648 229.9777 173.2948 208.4977 189.8948C83.0077 281.2048 -0.0023 428.6648 -0.0023 592.7248ZM493.1677 798.7848C574.2177 798.7848 627.4377 746.5348 627.4377 667.9248C627.4377 596.1448 579.0977 544.8748 509.2777 544.8748C480.4677 544.8748 449.2177 558.0548 435.0577 580.0348L443.3577 474.5648H589.3577C604.0077 474.5648 616.2077 462.8448 616.2077 446.2448C616.2077 429.6348 604.0077 418.8948 589.3577 418.8948H433.1077C407.7177 418.8948 393.5577 433.5448 391.5977 459.4248L380.8577 600.0548C378.9077 624.4648 391.5977 636.1848 412.5977 636.1848C428.7077 636.1848 436.0377 633.2548 449.7077 622.5148C468.7477 605.4248 483.3977 598.5848 502.9277 598.5848C541.0177 598.5848 566.4077 626.4148 566.4077 668.8948C566.4077 711.8648 536.1377 743.1148 496.0977 743.1148C466.7977 743.1148 442.3877 726.5148 429.6877 701.1248C422.3677 688.4248 413.5777 681.5948 401.3677 681.5948C385.2577 681.5948 374.0277 693.3148 374.0277 709.9148C374.0277 716.7448 375.4877 723.0948 377.9277 729.4448C391.1177 764.6048 434.0777 798.7848 493.1677 798.7848Z"/>
</svg>