<?xml version="1.0" encoding="UTF-8" standalone="no"?>
<svg xmlns="http://www.w3.org/2000/svg"
     width="996.09375" height="1090.7726005955958"
     viewBox="0 0 996.09375 1090.7726005955958"
     fill="currentColor">
  <path d="M-0.0023 592.7248C-0.0023 865.1848 226.0777 1090.7748 498.0477 1090.7748C770.5077 1090.7748 996.0977 865.1848 996.0977 592.7248C996.0977 352.4948 820.7977 148.8748 592.2877 103.9548V34.6248C592.2877 -0.0452 568.3577 -9.3252 541.9877 9.7148L386.2277 118.6048C363.7677 134.2248 363.2777 157.6648 386.2277 173.7848L541.5077 283.1548C568.3577 302.6848 592.2877 293.4048 592.2877 258.2548V188.9148C776.8577 230.9048 912.5977 394.9748 912.5977 592.7248C912.5977 823.1948 728.5177 1007.7648 498.0477 1007.7648C267.5777 1007.7648 82.5177 823.1948 83.0077 592.7248C83.4977 454.0548 150.8777 331.4948 254.8877 257.2748C274.8977 242.1348 281.2477 219.1948 269.0477 198.6848C256.8377 178.6648 229.9777 173.2948 208.4977 189.8948C83.0077 281.2048 -0.0023 428.6648 -0.0023 592.7248ZM666.0177 798.2948C747.0677 798.2948 800.2977 721.6348 800.2977 604.4448C800.2977 486.2848 747.0677 408.6448 666.0177 408.6448C584.4777 408.6448 532.2277 486.2848 532.2277 604.9348C532.2277 722.1248 584.9577 798.2948 666.0177 798.2948ZM333.9877 798.7848C424.3177 798.7848 473.6377 726.0248 473.6377 594.1948C473.6377 530.2248 459.9577 480.9048 433.5977 451.1248C411.6177 424.2648 379.3977 409.6248 339.8477 409.6248C262.2077 409.6248 212.3977 460.8848 212.3977 541.4548C212.3977 612.7448 259.7677 663.0348 325.6877 663.0348C367.1877 663.0348 398.9277 643.0148 415.0377 611.2848C415.0377 689.8948 382.8077 742.6248 333.4977 742.6248C310.0577 742.6248 290.5277 730.9048 279.2977 710.8848C270.9977 697.7048 263.1877 692.3348 249.9977 692.3348C234.8677 692.3348 222.1677 705.5148 222.1677 720.6548C222.1677 726.5148 222.6577 731.3948 226.0777 738.2348C235.8377 758.2548 269.5277 798.7848 333.9877 798.7848ZM342.2877 611.2848C301.7577 611.2848 274.4177 582.4748 274.4177 538.5248C274.4177 492.6248 301.2677 463.8148 342.2877 463.8148C382.3277 463.8148 410.1577 495.0648 410.1577 539.5048C410.1577 581.9848 382.3277 611.2848 342.2877 611.2848ZM666.0177 739.2148C623.0477 739.2148 595.7077 687.9448 595.7077 604.4448C595.7077 519.4848 622.5577 467.7248 666.0177 467.7248C709.9577 467.7248 736.3277 518.9948 736.3277 604.4448C736.3277 687.9448 709.4777 739.2148 666.0177 739.2148Z"/>
</svg>