<?xml version="1.0" encoding="UTF-8" standalone="no"?>
<svg xmlns="http://www.w3.org/2000/svg"
     width="996.09375" height="1090.7726005955958"
     viewBox="0 0 996.09375 1090.7726005955958"
     fill="currentColor">
  <path d="M-0.0023 592.7248C-0.0023 865.1848 226.0777 1090.7748 498.0477 1090.7748C770.5077 1090.7748 996.0977 865.1848 996.0977 592.7248C996.0977 352.4948 820.7977 148.8748 592.2877 103.9548V34.6248C592.2877 -0.0452 568.3577 -9.3252 541.9877 9.7148L386.2277 118.6048C363.7677 134.2248 363.2777 157.6648 386.2277 173.7848L541.5077 283.1548C568.3577 302.6848 592.2877 293.4048 592.2877 258.2548V188.9148C776.8577 230.9048 912.5977 394.9748 912.5977 592.7248C912.5977 823.1948 728.5177 1007.7648 498.0477 1007.7648C267.5777 1007.7648 82.5177 823.1948 83.0077 592.7248C83.4977 454.0548 150.8777 331.4948 254.8877 257.2748C274.8977 242.1348 281.2477 219.1948 269.0477 198.6848C256.8377 178.6648 229.9777 173.2948 208.4977 189.8948C83.0077 281.2048 -0.0023 428.6648 -0.0023 592.7248ZM346.1877 798.2948C422.8477 798.2948 477.5377 751.9048 477.5377 685.9848C477.5377 640.5748 447.2677 602.9748 404.2977 595.1648C438.9677 585.4048 465.3277 549.2648 465.3277 508.2548C465.3277 449.6548 417.4777 408.6448 349.1177 408.6448C290.0377 408.6448 240.7277 441.8448 230.4677 489.2148C229.0077 495.0648 228.5177 499.9548 228.5177 505.3248C228.5177 522.9048 239.7477 535.1048 256.3477 535.1048C270.5077 535.1048 279.2977 527.7848 284.6677 512.1548C294.9177 481.3948 315.4277 465.2848 347.6577 465.2848C381.8377 465.2848 405.2777 485.7948 405.2777 515.5748C405.2777 546.8248 381.8377 569.7748 347.1677 569.7748H326.1677C310.0577 569.7748 299.3177 581.0048 299.3177 598.0948C299.3177 614.2148 310.5477 626.4148 326.1677 626.4148H349.6077C390.6277 626.4148 416.5077 649.3648 416.5077 683.5448C416.5077 716.7448 387.2077 742.1348 346.6777 742.1348C312.4977 742.1348 288.0877 725.0548 277.3477 694.7748C271.4877 678.6648 262.6977 671.8248 249.5077 671.8248C232.9077 671.8248 221.1877 684.5248 221.1877 701.6148C221.1877 706.9848 221.6777 712.3548 223.1477 717.7248C233.8877 763.6248 286.6177 798.2948 346.1877 798.2948ZM661.1377 798.2948C742.1877 798.2948 795.4077 721.6348 795.4077 604.4448C795.4077 486.2848 742.1877 408.6448 661.1377 408.6448C579.5877 408.6448 526.8577 485.7948 526.8577 604.4448C526.8577 721.6348 580.0777 798.2948 661.1377 798.2948ZM661.1377 739.2148C618.1677 739.2148 590.3277 687.9448 590.3277 604.4448C590.3277 519.4848 617.6777 467.7248 661.1377 467.7248C704.5877 467.7248 731.4477 518.9948 731.4477 604.4448C731.4477 687.9448 704.0977 739.2148 661.1377 739.2148Z"/>
</svg>