<?xml version="1.0" encoding="UTF-8" standalone="no"?>
<svg xmlns="http://www.w3.org/2000/svg"
     width="996.09375" height="1090.7726005955958"
     viewBox="0 0 996.09375 1090.7726005955958"
     fill="currentColor">
  <path d="M-0.0023 592.7248C-0.0023 865.1848 226.0777 1090.7748 498.0477 1090.7748C770.5077 1090.7748 996.0977 865.1848 996.0977 592.7248C996.0977 352.4948 820.7977 148.8748 592.2877 103.9548V34.6248C592.2877 -0.0452 568.3577 -9.3252 541.9877 9.7148L386.2277 118.6048C363.7677 134.2248 363.2777 157.6648 386.2277 173.7848L541.5077 283.1548C568.3577 302.6848 592.2877 293.4048 592.2877 258.2548V188.9148C776.8577 230.9048 912.5977 394.9748 912.5977 592.7248C912.5977 823.1948 728.5177 1007.7648 498.0477 1007.7648C267.5777 1007.7648 82.5177 823.1948 83.0077 592.7248C83.4977 454.0548 150.8777 331.4948 254.8877 257.2748C274.8977 242.1348 281.2477 219.1948 269.0477 198.6848C256.8377 178.6648 229.9777 173.2948 208.4977 189.8948C83.0077 281.2048 -0.0023 428.6648 -0.0023 592.7248ZM309.0777 634.2248H692.3877C719.7277 634.2248 738.2777 619.5848 738.2777 593.7048C738.2777 567.3348 720.7077 552.1948 692.3877 552.1948H309.0777C280.7577 552.1948 262.6977 567.3348 262.6977 593.7048C262.6977 619.5848 281.7377 634.2248 309.0777 634.2248Z"/>
</svg>