<?xml version="1.0" encoding="UTF-8" standalone="no"?>
<svg xmlns="http://www.w3.org/2000/svg"
     width="996.09375" height="1090.7726005955958"
     viewBox="0 0 996.09375 1090.7726005955958"
     fill="currentColor">
  <path d="M-0.0023 592.7248C-0.0023 865.1848 226.0777 1090.7748 498.0477 1090.7748C770.5077 1090.7748 996.0977 865.1848 996.0977 592.7248C996.0977 352.4948 820.7977 148.8748 592.2877 103.9548V34.6248C592.2877 -0.0452 568.3577 -9.3252 541.9877 9.7148L386.2277 118.6048C363.7677 134.2248 363.2777 157.6648 386.2277 173.7848L541.5077 283.1548C568.3577 302.6848 592.2877 293.4048 592.2877 258.2548V188.9148C776.8577 230.9048 912.5977 394.9748 912.5977 592.7248C912.5977 823.1948 728.5177 1007.7648 498.0477 1007.7648C267.5777 1007.7648 82.5177 823.1948 83.0077 592.7248C83.4977 454.0548 150.8777 331.4948 254.8877 257.2748C274.8977 242.1348 281.2477 219.1948 269.0477 198.6848C256.8377 178.6648 229.9777 173.2948 208.4977 189.8948C83.0077 281.2048 -0.0023 428.6648 -0.0023 592.7248ZM355.4677 792.9248C374.5077 792.9248 386.7177 779.7348 386.7177 759.2248V451.1248C386.7177 426.2248 374.0277 413.0348 352.0477 413.0348C338.3777 413.0348 328.6177 417.4348 311.5277 429.1548L244.1377 474.5648C232.9077 482.8648 227.5377 491.6548 227.5377 502.8848C227.5377 518.9948 240.2377 532.6648 256.3477 532.6648C265.6277 532.6648 270.5077 530.7148 279.7877 523.3848L325.6877 489.6948V759.2248C325.6877 779.2448 337.3977 792.9248 355.4677 792.9248ZM603.5177 798.7848C684.5677 798.7848 738.2777 746.5348 738.2777 667.9248C738.2777 596.1448 689.9377 544.8748 620.1177 544.8748C591.3077 544.8748 560.0577 558.0548 545.4077 580.0348L553.7077 474.5648H700.1977C714.3577 474.5648 726.5577 462.8448 726.5577 446.2448C726.5577 429.6348 714.3577 418.8948 700.1977 418.8948H543.9477C518.5577 418.8948 504.3977 433.5448 501.9577 459.4248L491.6977 600.0548C489.2577 624.4648 501.9577 636.1848 523.4377 636.1848C539.5477 636.1848 546.3877 633.2548 560.5477 622.5148C579.0977 605.4248 594.2377 598.5848 613.2777 598.5848C651.3677 598.5848 676.7577 626.4148 676.7577 668.8948C676.7577 711.8648 646.9777 743.1148 606.4477 743.1148C577.6377 743.1148 552.7377 726.5148 540.0377 701.1248C532.7177 688.4248 523.9277 681.5948 511.7177 681.5948C495.6077 681.5948 484.3777 693.3148 484.3777 709.9148C484.3777 716.7448 485.8377 723.0948 488.2777 729.4448C501.4677 764.6048 544.4377 798.7848 603.5177 798.7848Z"/>
</svg>