<?xml version="1.0" encoding="UTF-8" standalone="no"?>
<svg xmlns="http://www.w3.org/2000/svg"
     width="996.09375" height="1090.6147250863723"
     viewBox="0 0 996.09375 1090.6147250863723"
     fill="currentColor">
  <path d="M-0.0023 592.5669C-0.0023 865.0269 226.0777 1090.6169 498.0477 1090.6169C770.5077 1090.6169 996.0977 865.0269 996.0977 592.5669C996.0977 428.5069 913.0877 281.0469 787.5977 189.7369C766.1177 173.1369 739.2577 178.5069 727.0477 198.5269C714.8477 219.0369 721.1877 241.9769 741.2077 257.1169C845.2177 331.3369 912.5977 453.8969 913.0877 592.5669C913.5777 823.0369 728.5177 1007.6069 498.0477 1007.6069C267.5777 1007.6069 83.4977 823.0369 83.4977 592.5669C83.4977 394.8169 219.2377 230.7469 403.8077 188.7569V258.5869C403.8077 293.2469 427.7377 302.5269 454.5877 283.4869L610.3477 174.1069C632.3277 158.9769 632.8077 135.5369 610.3477 119.4269L455.0777 10.0469C427.7377 -9.4831 403.8077 -0.2031 403.8077 34.9469V103.7969C175.2977 148.7169 -0.0023 352.3369 -0.0023 592.5669ZM662.5977 798.1369C743.6477 798.1369 796.8777 721.4769 796.8777 604.2869C796.8777 486.1269 743.6477 408.4869 662.5977 408.4869C581.0577 408.4869 528.3177 486.1269 528.3177 604.7769C528.3177 721.9669 581.5477 798.1369 662.5977 798.1369ZM340.8177 798.1369C419.9177 798.1369 470.7077 745.8869 470.7077 665.8069C470.7077 595.0069 421.8777 544.7169 355.9577 544.7169C312.0077 544.7169 278.8077 565.7169 264.6477 596.9669C264.6477 518.8369 297.3677 465.6169 347.6577 465.6169C373.0477 465.6169 389.1577 475.3769 400.3877 493.9369C408.6877 506.6269 416.5077 511.9969 431.1477 511.9969C445.7977 511.9969 456.0577 500.7669 456.0577 485.1469C456.0577 478.3069 454.5877 471.9669 452.6377 466.5869C439.4577 433.8769 401.8577 408.9769 350.0977 408.9769C256.8377 408.9769 205.0777 482.2169 205.0777 613.0769C205.0777 664.8369 212.8877 706.8269 229.9777 737.0969C251.4677 777.6269 291.5077 798.1369 340.8177 798.1369ZM662.5977 739.0569C619.1377 739.0569 591.7977 687.7869 591.7977 604.2869C591.7977 519.3269 618.6477 467.5669 662.5977 467.5669C706.0577 467.5669 732.9077 518.8369 732.9077 604.2869C732.9077 687.7869 705.5677 739.0569 662.5977 739.0569ZM338.3777 743.9369C298.3377 743.9369 269.5277 712.6869 269.5277 668.7369C269.5277 625.7669 297.8477 595.9869 338.3777 595.9869C378.9077 595.9869 407.2277 625.2869 407.2277 668.7369C407.2277 715.1269 380.3677 743.9369 338.3777 743.9369Z"/>
</svg>