<?xml version="1.0" encoding="UTF-8" standalone="no"?>
<svg xmlns="http://www.w3.org/2000/svg"
     width="996.09375" height="1090.6147250863723"
     viewBox="0 0 996.09375 1090.6147250863723"
     fill="currentColor">
  <path d="M-0.0023 592.5669C-0.0023 865.0269 226.0777 1090.6169 498.0477 1090.6169C770.5077 1090.6169 996.0977 865.0269 996.0977 592.5669C996.0977 428.5069 913.0877 281.0469 787.5977 189.7369C766.1177 173.1369 739.2577 178.5069 727.0477 198.5269C714.8477 219.0369 721.1877 241.9769 741.2077 257.1169C845.2177 331.3369 912.5977 453.8969 913.0877 592.5669C913.5777 823.0369 728.5177 1007.6069 498.0477 1007.6069C267.5777 1007.6069 83.4977 823.0369 83.4977 592.5669C83.4977 394.8169 219.2377 230.7469 403.8077 188.7569V258.5869C403.8077 293.2469 427.7377 302.5269 454.5877 283.4869L610.3477 174.1069C632.3277 158.9769 632.8077 135.5369 610.3477 119.4269L455.0777 10.0469C427.7377 -9.4831 403.8077 -0.2031 403.8077 34.9469V103.7969C175.2977 148.7169 -0.0023 352.3369 -0.0023 592.5669ZM271.9777 592.5669C271.9777 616.4969 288.5777 632.6069 313.4777 632.6069H457.0277V776.6469C457.0277 801.0669 473.6377 818.1569 497.5577 818.1569C521.9777 818.1569 539.0577 801.5569 539.0577 776.6469V632.6069H683.1077C707.5177 632.6069 724.6077 616.4969 724.6077 592.5669C724.6077 568.1569 707.5177 551.0669 683.1077 551.0669H539.0577V407.5069C539.0577 382.6069 521.9777 365.5169 497.5577 365.5169C473.6377 365.5169 457.0277 382.6069 457.0277 407.5069V551.0669H313.4777C288.5777 551.0669 271.9777 568.1569 271.9777 592.5669Z"/>
</svg>