<?xml version="1.0" encoding="UTF-8" standalone="no"?>
<svg xmlns="http://www.w3.org/2000/svg"
     width="996.09375" height="1090.6147250863723"
     viewBox="0 0 996.09375 1090.6147250863723"
     fill="currentColor">
  <path d="M-0.0023 592.5669C-0.0023 865.0269 226.0777 1090.6169 498.0477 1090.6169C770.5077 1090.6169 996.0977 865.0269 996.0977 592.5669C996.0977 428.5069 913.0877 281.0469 787.5977 189.7369C766.1177 173.1369 739.2577 178.5069 727.0477 198.5269C714.8477 219.0369 721.1877 241.9769 741.2077 257.1169C845.2177 331.3369 912.5977 453.8969 913.0877 592.5669C913.5777 823.0369 728.5177 1007.6069 498.0477 1007.6069C267.5777 1007.6069 83.4977 823.0369 83.4977 592.5669C83.4977 394.8169 219.2377 230.7469 403.8077 188.7569V258.5869C403.8077 293.2469 427.7377 302.5269 454.5877 283.4869L610.3477 174.1069C632.3277 158.9769 632.8077 135.5369 610.3477 119.4269L455.0777 10.0469C427.7377 -9.4831 403.8077 -0.2031 403.8077 34.9469V103.7969C175.2977 148.7169 -0.0023 352.3369 -0.0023 592.5669ZM663.5777 798.1369C744.6277 798.1369 797.8477 721.4769 797.8477 604.2869C797.8477 486.1269 744.6277 408.4869 663.5777 408.4869C582.0277 408.4869 529.7877 486.1269 529.7877 604.7769C529.7877 721.9669 582.5177 798.1369 663.5777 798.1369ZM331.5477 798.6269C421.8777 798.6269 471.1877 725.8669 471.1877 594.0369C471.1877 530.0669 457.5177 480.7469 431.1477 450.9669C409.1777 424.1069 376.9577 409.4669 337.8877 409.4669C259.7677 409.4669 209.9577 460.7269 209.9577 541.2969C209.9577 612.5869 257.3277 662.8769 323.2377 662.8769C364.7477 662.8769 396.4877 642.8569 412.5977 611.1269C412.5977 689.7369 380.3677 742.4669 331.0577 742.4669C307.6177 742.4669 288.0877 730.7469 276.8577 710.7269C268.5577 697.5469 260.7377 692.1769 248.0477 692.1769C232.4177 692.1769 219.7277 705.3569 219.7277 720.4969C219.7277 726.3569 220.2177 731.2369 223.6377 738.0769C233.3977 758.0969 267.0877 798.6269 331.5477 798.6269ZM339.8477 611.1269C299.3177 611.1269 271.9777 582.3169 271.9777 538.3669C271.9777 492.4669 298.8277 463.6569 339.8477 463.6569C379.8877 463.6569 407.7177 494.9069 407.7177 539.3469C407.7177 581.8269 379.8877 611.1269 339.8477 611.1269ZM663.5777 739.0569C620.6077 739.0569 593.2577 687.7869 593.2577 604.2869C593.2577 519.3269 620.1177 467.5669 663.5777 467.5669C707.5177 467.5669 733.8877 518.8369 733.8877 604.2869C733.8877 687.7869 707.0277 739.0569 663.5777 739.0569Z"/>
</svg>