<?xml version="1.0" encoding="UTF-8" standalone="no"?>
<svg xmlns="http://www.w3.org/2000/svg"
     width="996.09375" height="1090.6147250863723"
     viewBox="0 0 996.09375 1090.6147250863723"
     fill="currentColor">
  <path d="M-0.0023 592.5669C-0.0023 865.0269 226.0777 1090.6169 498.0477 1090.6169C770.5077 1090.6169 996.0977 865.0269 996.0977 592.5669C996.0977 428.5069 913.0877 281.0469 787.5977 189.7369C766.1177 173.1369 739.2577 178.5069 727.0477 198.5269C714.8477 219.0369 721.1877 241.9769 741.2077 257.1169C845.2177 331.3369 912.5977 453.8969 913.0877 592.5669C913.5777 823.0369 728.5177 1007.6069 498.0477 1007.6069C267.5777 1007.6069 83.4977 823.0369 83.4977 592.5669C83.4977 394.8169 219.2377 230.7469 403.8077 188.7569V258.5869C403.8077 293.2469 427.7377 302.5269 454.5877 283.4869L610.3477 174.1069C632.3277 158.9769 632.8077 135.5369 610.3477 119.4269L455.0777 10.0469C427.7377 -9.4831 403.8077 -0.2031 403.8077 34.9469V103.7969C175.2977 148.7169 -0.0023 352.3369 -0.0023 592.5669ZM630.3677 798.6269C711.4277 798.6269 764.6477 746.3769 764.6477 667.7669C764.6477 595.9869 716.3077 544.7169 646.4877 544.7169C617.6777 544.7169 586.4277 557.8969 572.2677 579.8769L580.5677 474.4069H726.5577C741.2077 474.4069 753.4177 462.6869 753.4177 446.0869C753.4177 429.4769 741.2077 418.7369 726.5577 418.7369H570.3077C544.9177 418.7369 530.7577 433.3869 528.8077 459.2669L518.0677 599.8969C516.1177 624.3069 528.8077 636.0269 549.8077 636.0269C565.9177 636.0269 573.2377 633.0969 586.9177 622.3569C605.9577 605.2669 620.6077 598.4269 640.1377 598.4269C678.2277 598.4269 703.6177 626.2569 703.6177 668.7369C703.6177 711.7069 673.3377 742.9569 633.2977 742.9569C604.0077 742.9569 579.5877 726.3569 566.8977 700.9669C559.5677 688.2669 550.7777 681.4369 538.5777 681.4369C522.4577 681.4369 511.2277 693.1569 511.2277 709.7569C511.2277 716.5869 512.6977 722.9369 515.1377 729.2869C528.3177 764.4469 571.2877 798.6269 630.3677 798.6269ZM290.5277 797.1569C303.7077 797.1569 312.9877 790.8069 321.2877 774.2069L458.4977 492.9569C464.8477 479.7769 467.2877 470.9869 467.2877 460.7269C467.2877 436.8069 449.2177 419.2269 425.2977 419.2269H244.1377C229.9777 419.2269 219.7277 430.9469 219.7277 446.5669C219.7277 462.6869 229.9777 473.9169 244.1377 473.9169H398.9277L264.1577 743.9369C260.2577 751.2569 258.2977 757.1169 258.2977 765.4169C258.2977 783.4869 271.9777 797.1569 290.5277 797.1569Z"/>
</svg>