<?xml version="1.0" encoding="UTF-8" standalone="no"?>
<svg xmlns="http://www.w3.org/2000/svg"
     width="996.09375" height="1090.6147250863723"
     viewBox="0 0 996.09375 1090.6147250863723"
     fill="currentColor">
  <path d="M-0.0023 592.5669C-0.0023 865.0269 226.0777 1090.6169 498.0477 1090.6169C770.5077 1090.6169 996.0977 865.0269 996.0977 592.5669C996.0977 428.5069 913.0877 281.0469 787.5977 189.7369C766.1177 173.1369 739.2577 178.5069 727.0477 198.5269C714.8477 219.0369 721.1877 241.9769 741.2077 257.1169C845.2177 331.3369 912.5977 453.8969 913.0877 592.5669C913.5777 823.0369 728.5177 1007.6069 498.0477 1007.6069C267.5777 1007.6069 83.4977 823.0369 83.4977 592.5669C83.4977 394.8169 219.2377 230.7469 403.8077 188.7569V258.5869C403.8077 293.2469 427.7377 302.5269 454.5877 283.4869L610.3477 174.1069C632.3277 158.9769 632.8077 135.5369 610.3477 119.4269L455.0777 10.0469C427.7377 -9.4831 403.8077 -0.2031 403.8077 34.9469V103.7969C175.2977 148.7169 -0.0023 352.3369 -0.0023 592.5669ZM490.7277 798.6269C571.7777 798.6269 624.9977 746.3769 624.9977 667.7669C624.9977 595.9869 576.6577 544.7169 506.8377 544.7169C478.0277 544.7169 446.7777 557.8969 432.6177 579.8769L440.9177 474.4069H586.9177C601.5577 474.4069 613.7677 462.6869 613.7677 446.0869C613.7677 429.4769 601.5577 418.7369 586.9177 418.7369H430.6677C405.2777 418.7369 391.1177 433.3869 389.1577 459.2669L378.4177 599.8969C376.4677 624.3069 389.1577 636.0269 410.1577 636.0269C426.2677 636.0269 433.5977 633.0969 447.2677 622.3569C466.3077 605.2669 480.9577 598.4269 500.4877 598.4269C538.5777 598.4269 563.9677 626.2569 563.9677 668.7369C563.9677 711.7069 533.6877 742.9569 493.6477 742.9569C464.3577 742.9569 439.9377 726.3569 427.2477 700.9669C419.9177 688.2669 411.1377 681.4369 398.9277 681.4369C382.8077 681.4369 371.5777 693.1569 371.5777 709.7569C371.5777 716.5869 373.0477 722.9369 375.4877 729.2869C388.6677 764.4469 431.6377 798.6269 490.7277 798.6269Z"/>
</svg>