<?xml version="1.0" encoding="UTF-8" standalone="no"?>
<svg xmlns="http://www.w3.org/2000/svg"
     width="996.09375" height="996.09375"
     viewBox="0 0 996.09375 996.09375"
     fill="currentColor">
  <path d="M498.0477 996.0959C770.5077 996.0959 996.0977 770.0159 996.0977 498.0459C996.0977 225.5859 770.0177 -0.0041 497.5577 -0.0041C225.5877 -0.0041 -0.0023 225.5859 -0.0023 498.0459C-0.0023 770.0159 226.0777 996.0959 498.0477 996.0959ZM498.0477 913.0859C267.5777 913.0859 83.4977 728.5159 83.4977 498.0459C83.4977 267.5759 267.0877 83.0059 497.5577 83.0059C728.0277 83.0059 913.0877 267.5759 913.0877 498.0459C913.0877 728.5159 728.5177 913.0859 498.0477 913.0859ZM371.0977 697.7559C380.8577 697.7559 387.6977 695.7959 394.5277 692.3859L685.5477 541.0159C706.0577 530.2759 714.8477 518.0659 714.8477 498.0459C714.8477 479.4959 705.0777 465.8159 685.5477 455.0759L394.5277 298.3359C387.2077 294.4359 380.8577 292.4759 370.1177 292.4759C347.6577 292.4759 330.5677 309.0859 330.5677 331.0559C330.5677 349.1259 339.3577 360.8359 359.3777 370.6059L606.4477 495.1159V498.0459L359.3777 619.6259C338.8677 629.3959 330.5677 640.1359 330.5677 658.6959C330.5677 681.1559 348.1477 697.7559 371.0977 697.7559Z"/>
</svg>