<?xml version="1.0" encoding="UTF-8" standalone="no"?>
<svg xmlns="http://www.w3.org/2000/svg"
     width="898.92578125" height="898.92578125"
     viewBox="0 0 898.92578125 898.92578125"
     fill="currentColor">
  <path d="M153.3183 898.9295H745.6083C848.1483 898.9295 898.9283 848.1495 898.9283 747.5595V151.3695C898.9283 50.7795 848.1483 -0.0005 745.6083 -0.0005H153.3183C51.2683 -0.0005 -0.0017 50.2895 -0.0017 151.3695V747.5595C-0.0017 848.6295 51.2683 898.9295 153.3183 898.9295ZM154.2983 820.3095C105.4683 820.3095 78.6183 794.4295 78.6183 743.6495V155.2695C78.6183 104.4895 105.4683 78.6095 154.2983 78.6095H744.6283C792.9683 78.6095 820.3083 104.4895 820.3083 155.2695V743.6495C820.3083 794.4295 792.9683 820.3095 744.6283 820.3095ZM323.2383 648.4395C333.0083 648.4395 339.8483 646.4795 347.1683 643.0695L638.1883 491.6995C658.1983 480.9595 666.9883 468.7495 666.9883 448.7295C666.9883 430.1795 657.2283 416.4995 638.1883 405.7595L347.1683 249.0195C339.3583 245.1195 333.0083 243.1595 322.2683 243.1595C299.8083 243.1595 282.7183 259.7695 282.7183 281.7395C282.7183 299.8095 291.5083 311.5195 311.5283 321.2895L559.0783 445.7995V448.7295L311.5283 570.3095C291.0183 580.0795 282.7183 590.8195 282.7183 609.3795C282.7183 631.8395 300.2883 648.4395 323.2383 648.4395Z"/>
</svg>