<?xml version="1.0" encoding="UTF-8" standalone="no"?>
<svg xmlns="http://www.w3.org/2000/svg"
     width="811.5234375" height="1096.6670633764923"
     viewBox="0 0 811.5234375 1096.6670633764923"
     fill="currentColor">
  <path d="M96.1883 995.3173L651.3683 1093.4673C750.9783 1111.0473 811.5283 1055.3773 811.5283 946.9873V342.9773C811.5283 289.7573 796.8783 254.5973 768.0683 230.6773V135.9473C768.0683 32.9173 699.2183 -15.9127 583.4983 4.5973L81.0583 93.4673C31.2483 99.3273 -0.0017 136.9273 -0.0017 195.0273V884.4773C-0.0017 946.9873 32.2283 984.0873 96.1883 995.3173ZM661.1283 189.6573L310.5483 128.1373L611.3283 78.3273C660.1583 70.0273 689.4483 90.5373 689.4483 133.0173V195.5173C680.1783 193.5673 670.8983 191.6073 661.1283 189.6573ZM115.2383 917.6873C90.3283 913.2873 78.6183 899.1273 78.6183 873.2473V208.2173C78.6183 182.3373 96.1883 169.1473 124.9983 173.5473L657.2283 267.2973C706.5383 276.0873 732.9083 296.5873 732.9083 341.9973V938.1973C732.9083 993.8573 700.6883 1021.6873 647.9483 1011.9273ZM143.5583 401.0873C143.5583 442.0973 207.5183 442.0973 207.5183 403.5273V338.0973C207.5183 324.9073 215.3283 319.0573 230.4683 321.4973L294.9183 333.2173C336.4283 340.5373 344.7283 278.0373 307.6183 271.1973L203.1283 252.6473C166.0183 246.2973 143.5583 262.4073 143.5583 298.0573ZM604.0083 480.6773C604.0083 521.6873 667.9683 525.5973 667.9683 480.6773V399.1273C667.9683 353.7173 645.9983 330.7673 591.7983 321.0073L541.0183 312.2173C496.5783 304.4073 485.8383 366.4173 530.2783 374.2273L570.7983 381.5573C599.6083 386.4373 604.0083 404.0173 604.0083 418.6573ZM207.5183 712.1173C207.5183 671.1073 143.5583 667.1973 143.5583 712.1173V793.6573C143.5583 839.0673 165.5283 862.0173 219.7283 871.7873L270.5083 880.5773C314.9383 888.3873 325.6883 825.8873 281.2483 818.5673L240.7183 811.2373C211.9183 806.3573 207.5183 788.7773 207.5183 774.1273ZM667.9683 791.7073C667.9683 750.6973 604.0083 750.6973 604.0083 789.2673V854.6973C604.0083 867.8773 596.1883 873.7373 581.0583 871.2973L516.5983 859.5773C475.0983 852.2573 466.7983 914.7573 503.9083 921.5873L608.3983 940.1473C645.5083 946.4973 667.9683 930.3773 667.9683 894.7373Z"/>
</svg>