<?xml version="1.0" encoding="UTF-8" standalone="no"?>
<svg xmlns="http://www.w3.org/2000/svg"
     width="706.54296875" height="1092.28515625"
     viewBox="0 0 706.54296875 1092.28515625"
     fill="currentColor">
  <path d="M368.6483 1092.2844C386.7183 1092.2844 400.3883 1079.1044 400.3883 1060.0544V988.7744C598.1483 977.5344 706.5383 842.2844 706.5383 628.9044V581.0544C706.5383 550.2944 687.9883 531.2544 658.1983 531.2544H400.3883V187.9844C498.5383 198.2444 578.1283 261.7144 602.5383 348.6344C611.3283 376.9544 623.5383 388.1844 648.9283 388.1844C675.2883 388.1844 692.3783 370.6044 691.8983 344.7244C691.8983 330.5644 689.4483 316.4044 684.5683 302.7344C644.5283 189.9444 535.1583 111.3244 400.3883 102.0544V31.7344C400.3883 13.1844 386.7183 0.0044 368.6483 0.0044C350.5883 0.0044 336.9183 13.1844 336.9183 31.7344V102.5344C132.3283 120.1144 -0.0017 287.1044 -0.0017 542.4844C-0.0017 800.7844 131.3483 970.2144 336.9183 988.2844V1060.0544C336.9183 1079.1044 350.5883 1092.2844 368.6483 1092.2844ZM98.1483 542.4844C98.1483 340.3344 191.4083 207.5244 336.9183 188.9644V901.8544C190.9183 882.8144 98.1483 747.5544 98.1483 542.4844ZM613.2783 613.2844V649.4144C613.2783 793.4544 533.6883 891.6044 400.3883 902.8344V613.2844Z"/>
</svg>