<?xml version="1.0" encoding="UTF-8" standalone="no"?>
<svg xmlns="http://www.w3.org/2000/svg"
     width="1252.8826703831812" height="1038.57421875"
     viewBox="0 0 1252.8826703831812 1038.57421875"
     fill="currentColor">
  <path d="M7.2813 947.2655C-10.7887 988.2855 4.3513 1037.1055 57.5713 1037.1055C76.6113 1037.1055 92.7313 1029.7855 117.6313 1009.2755L251.4213 897.4655C256.7913 893.0655 259.7213 891.6055 262.1613 891.6055C264.6013 891.6055 267.5313 893.0655 272.9013 897.4655L406.6913 1009.2755C431.5913 1029.7855 447.7113 1037.1055 466.7513 1037.1055C519.9713 1037.1055 535.1113 988.2855 517.0413 947.2655L301.7113 460.4455V233.8855C301.7113 122.5555 320.2613 39.5555 320.2613 23.9255C320.2613 9.2755 311.4813 -0.0045 297.3213 -0.0045C288.0413 -0.0045 279.7413 5.3755 267.5313 18.5555L160.1113 142.0855C150.3413 153.3155 152.7813 166.9955 165.4813 173.8255C208.4513 192.3855 223.5813 199.2155 223.5813 233.8855V458.9855ZM455.5213 745.1155L490.1913 822.2655C497.0213 747.5555 547.8013 719.2355 547.8013 669.9255C547.8013 619.6255 514.6013 590.3355 514.6013 551.2655C514.6013 546.3855 517.5313 543.4555 520.9513 543.4555C542.9213 543.4555 554.6413 602.5355 602.9813 602.5355C625.4413 602.5355 642.0413 589.3555 649.3713 564.4555H653.2713C661.0813 589.8455 678.1713 602.5355 700.1513 602.5355C748.0013 602.5355 759.7213 543.4555 781.2013 543.4555C785.1113 543.4555 788.5313 546.8755 788.5313 551.2655C788.5313 590.3355 754.8313 619.6255 754.8313 669.9255C754.8313 723.6355 814.8913 752.9255 814.8913 842.7755C814.8913 930.1755 753.3713 982.4255 651.3213 982.4255C611.7713 982.4255 577.5913 974.6055 546.8313 959.4755C551.7113 982.4255 551.2213 999.5155 542.9213 1017.5755C577.5913 1031.2455 613.7213 1038.5755 651.3213 1038.5755C783.1513 1038.5755 870.5613 960.4455 870.5613 842.7755C870.5613 745.6055 810.0113 700.6855 810.0113 669.4355C810.0113 631.8355 843.2113 601.0755 843.2113 551.7555C843.2113 515.6255 819.2913 489.7455 785.6013 489.7455C754.8313 489.7455 735.7913 507.3255 724.0713 526.3655C715.7713 540.0355 707.4713 549.3155 701.6113 549.3155C692.3313 549.3155 689.4013 532.7155 689.8913 509.7655L690.3813 211.4255C690.3813 197.2655 690.3813 196.2855 697.7113 193.8455C709.4213 190.4255 712.8413 184.0855 714.3113 168.9455L724.5613 69.3355C725.0513 60.0555 721.1413 51.2655 713.8213 44.4355L671.8313 7.8155C666.4613 2.9255 659.1313 -0.0045 651.3213 -0.0045C643.5113 -0.0045 636.1813 2.9255 630.3213 7.8155L588.8213 44.4355C581.4913 50.7855 577.5913 60.5455 578.0813 69.3355L587.8413 168.9455C589.3113 183.5955 593.7013 190.4255 604.9313 193.8455C611.2813 195.3155 612.2613 197.7555 612.2613 211.4255L613.2313 509.7655C613.7213 531.2455 610.3013 549.3155 601.5113 549.3155C595.1713 549.3155 587.3513 538.5755 578.5713 526.3655C565.3813 508.7855 547.8013 489.7455 517.5313 489.7455C483.3513 489.7455 459.4213 515.1355 459.4213 551.7555C459.4213 601.0755 492.6313 631.8355 492.6313 669.4355C492.6313 687.4955 472.6113 709.9655 455.5213 745.1155ZM1034.1313 1035.6455C1167.9213 1035.6455 1252.8813 972.1655 1252.8813 871.5855C1252.8813 770.9955 1186.9613 746.0955 1186.9613 703.6155C1186.9613 670.8955 1201.6113 641.1155 1201.6113 600.5855C1201.6113 533.6955 1154.7413 491.2155 1072.7113 481.4455V193.3555C1072.7113 173.8255 1075.1513 168.4555 1086.3813 160.6455C1096.6313 154.2955 1100.0513 148.4355 1099.5613 139.1555L1092.2413 18.5555C1091.7513 7.8155 1083.9413 -0.0045 1073.6813 -0.0045H993.6013C984.3313 -0.0045 976.5113 7.8155 975.5413 18.5555L968.2113 139.1555C967.7313 148.4355 971.6313 154.2955 981.4013 160.6455C992.6313 168.9455 995.0713 174.3155 995.0713 193.3555V481.4455C913.5313 491.2155 866.1613 533.6955 866.1613 600.5855C866.1613 641.1155 880.8113 670.8955 880.8113 703.6155C880.8113 710.4455 878.8613 719.2355 871.5313 733.3955C881.3013 754.3955 887.1613 773.9255 891.5513 793.9455C912.5513 767.5755 936.4813 737.7955 936.4813 702.6355C936.4813 668.4555 921.3413 632.3255 921.3413 600.5855C921.3413 549.8055 966.2613 532.7155 1034.1313 532.7155C1100.5413 532.7155 1146.4413 548.8255 1146.4413 600.5855C1146.4413 632.3255 1131.3013 668.4555 1131.3013 702.6355C1131.3013 762.2055 1197.2213 792.9655 1197.2213 871.5855C1197.2213 939.4555 1136.6713 980.4655 1034.1313 980.4655C961.8713 980.4655 909.1313 960.4455 882.7613 922.3655C874.9513 943.8455 866.6513 958.9855 855.4213 974.6055C894.9713 1014.6455 957.4713 1035.6455 1034.1313 1035.6455ZM57.5713 966.7955L259.2313 506.8355H265.0913L466.7513 966.7955C472.1213 979.0055 461.8713 985.3555 453.0813 977.5355L302.6913 852.0555C287.0613 839.3555 273.8813 833.0055 262.1613 833.0055C250.4413 833.0055 237.7413 839.3555 221.6313 852.0555L71.2413 977.5355C62.4513 985.3555 52.6913 979.0055 57.5713 966.7955ZM1034.1313 742.1855C1062.9413 742.1855 1086.8713 718.2655 1086.8713 689.4555C1086.8713 660.1555 1062.9413 636.2255 1034.1313 636.2255C1004.8313 636.2255 980.4213 660.1555 980.4213 689.4555C980.4213 718.2655 1004.3513 742.1855 1034.1313 742.1855ZM554.6413 834.4755C564.8913 838.3755 576.1213 833.0055 580.0313 822.7555L620.5613 711.4255C623.9813 701.1755 618.6013 689.4555 608.8413 686.0355C598.5813 682.1255 586.8713 687.4955 582.9613 697.7555L542.4313 809.5655C539.0113 819.3355 544.3913 831.0555 554.6413 834.4755ZM748.0013 834.4755C758.2513 831.0555 763.6213 819.3355 759.7213 809.5655L719.1913 697.7555C715.2813 687.4955 704.0513 682.1255 693.8013 686.0355C684.0313 689.4555 678.6613 701.1755 682.0813 711.4255L722.6113 822.7555C726.5113 833.0055 737.7413 838.3755 748.0013 834.4755ZM313.4313 743.6555C326.1213 743.6555 336.8713 733.3955 336.8713 720.7055C336.8713 707.5155 326.6113 696.2855 313.4313 696.2855C300.7313 696.2855 289.9913 708.0055 289.9913 720.7055C289.9913 732.9055 300.7313 743.6555 313.4313 743.6555ZM339.3113 805.1755C352.0013 805.1755 363.2313 794.4355 363.2313 781.7355C363.2313 768.5555 352.0013 757.8155 339.3113 757.8155C326.6113 757.8155 315.3813 769.0455 315.3813 781.7355C315.3813 794.4355 326.6113 805.1755 339.3113 805.1755ZM364.2113 866.2155C377.3913 866.2155 388.6213 854.9755 388.6213 842.7755C388.6213 830.0755 377.8813 818.8455 364.2113 818.8455C352.4913 818.8455 341.7513 830.0755 341.7513 842.7755C341.7513 855.4655 351.5113 866.2155 364.2113 866.2155ZM971.6313 880.3755H1095.6513C1107.3713 880.3755 1116.6513 871.0955 1116.6513 859.3755C1116.6513 847.1655 1107.3713 837.4055 1095.6513 837.4055H971.6313C959.9113 837.4055 950.1513 847.6555 950.1513 859.3755C950.1513 871.0955 959.4213 880.3755 971.6313 880.3755Z"/>
</svg>