<?xml version="1.0" encoding="UTF-8" standalone="no"?>
<svg xmlns="http://www.w3.org/2000/svg"
     width="996.09375" height="996.09375"
     viewBox="0 0 996.09375 996.09375"
     fill="currentColor">
  <path d="M498.0477 996.0959C770.5077 996.0959 996.0977 770.0159 996.0977 498.0459C996.0977 225.5859 770.0177 -0.0041 497.5577 -0.0041C225.5877 -0.0041 -0.0023 225.5859 -0.0023 498.0459C-0.0023 770.0159 226.0777 996.0959 498.0477 996.0959ZM338.8677 729.0059C313.9677 729.0059 299.3177 711.9159 299.3177 683.5959V303.2259C299.3177 274.9059 313.9677 257.8159 338.8677 257.8159C365.2377 257.8159 379.8877 274.4159 379.8877 303.2259V454.5859H615.2377V303.2259C615.2377 274.9059 630.3677 257.8159 655.2777 257.8159C681.6377 257.8159 696.2877 274.4159 696.2877 303.2259V683.5959C696.2877 712.4059 681.6377 729.0059 655.2777 729.0059C630.3677 729.0059 615.2377 711.9159 615.2377 683.5959V518.0659H379.8877V683.5959C379.8877 712.4059 365.2377 729.0059 338.8677 729.0059Z"/>
</svg>