<?xml version="1.0" encoding="UTF-8" standalone="no"?>
<svg xmlns="http://www.w3.org/2000/svg"
     width="898.92578125" height="898.92578125"
     viewBox="0 0 898.92578125 898.92578125"
     fill="currentColor">
  <path d="M153.3183 898.9295H745.6083C848.1483 898.9295 898.9283 848.1495 898.9283 747.5595V151.3695C898.9283 50.7795 848.1483 -0.0005 745.6083 -0.0005H153.3183C51.2683 -0.0005 -0.0017 50.2895 -0.0017 151.3695V747.5595C-0.0017 848.6295 51.2683 898.9295 153.3183 898.9295ZM154.2983 820.3095C105.4683 820.3095 78.6183 794.4295 78.6183 743.6495V155.2695C78.6183 104.4895 105.4683 78.6095 154.2983 78.6095H744.6283C792.9683 78.6095 820.3083 104.4895 820.3083 155.2695V743.6495C820.3083 794.4295 792.9683 820.3095 744.6283 820.3095ZM295.4083 672.3595C320.7983 672.3595 334.9583 656.2495 334.9583 628.9095V467.7695H563.4783V628.9095C563.4783 655.7595 578.1283 672.3595 602.0483 672.3595C627.4383 672.3595 641.5983 656.2495 641.5983 628.9095V259.2795C641.5983 231.9295 627.4383 215.8195 602.0483 215.8195C578.1283 215.8195 563.4783 232.4195 563.4783 259.2795V406.7395H334.9583V259.2795C334.9583 231.9295 320.7983 215.8195 295.4083 215.8195C271.4883 215.8195 257.3283 232.4195 257.3283 259.2795V628.9095C257.3283 655.7595 271.4883 672.3595 295.4083 672.3595Z"/>
</svg>