<?xml version="1.0" encoding="UTF-8" standalone="no"?>
<svg xmlns="http://www.w3.org/2000/svg"
     width="1033.203125" height="1022.4609375"
     viewBox="0 0 1033.203125 1022.4609375"
     fill="currentColor">
  <path d="M643.5583 0.0013H153.3183C51.2683 0.0013 -0.0017 50.7813 -0.0017 151.3713V645.0213C-0.0017 745.6012 51.2683 796.3913 153.3183 796.3913H643.5583C745.6083 796.3913 796.3883 746.0912 796.3883 645.0213V151.3713C796.3883 50.2912 745.6083 0.0013 643.5583 0.0013ZM239.7483 628.9013C214.3583 628.9013 199.7083 612.3013 199.7083 583.9813V203.6113C199.7083 174.8012 214.3583 158.2012 239.7483 158.2012C265.6283 158.2012 280.2783 174.3212 280.2783 203.6113V354.9813H515.6283V203.6113C515.6283 174.8012 530.7583 158.2012 555.6683 158.2012C582.0283 158.2012 596.6783 174.3212 596.6783 203.6113V583.9813C596.6783 612.7913 582.0283 628.9013 555.6683 628.9013C530.7583 628.9013 515.6283 612.3013 515.6283 583.9813V417.9713H280.2783V583.9813C280.2783 612.7913 265.6283 628.9013 239.7483 628.9013ZM1033.1983 376.9513C1033.1983 276.3713 982.4183 226.0712 880.3683 226.0712H863.2783V645.0213C863.2783 783.2013 782.2283 863.2813 643.5583 863.2813H236.8183V871.0913C236.8183 971.6813 288.0883 1022.4613 390.1383 1022.4613H880.3683C982.4183 1022.4613 1033.1983 972.1713 1033.1983 871.0913Z"/>
</svg>