<?xml version="1.0" encoding="UTF-8" standalone="no"?>
<svg xmlns="http://www.w3.org/2000/svg"
     width="898.92578125" height="898.92578125"
     viewBox="0 0 898.92578125 898.92578125"
     fill="currentColor">
  <path d="M153.3183 898.9295H745.6083C848.1483 898.9295 898.9283 848.1495 898.9283 747.5595V151.3695C898.9283 50.7795 848.1483 -0.0005 745.6083 -0.0005H153.3183C51.2683 -0.0005 -0.0017 50.2895 -0.0017 151.3695V747.5595C-0.0017 848.6295 51.2683 898.9295 153.3183 898.9295ZM290.5283 679.6895C265.6283 679.6895 250.9783 662.5995 250.9783 634.2795V253.9095C250.9783 225.5895 265.6283 208.4995 290.5283 208.4995C316.8983 208.4995 331.5383 225.0995 331.5383 253.9095V405.2695H566.8983V253.9095C566.8983 225.5895 582.0283 208.4995 606.9383 208.4995C633.2983 208.4995 647.9483 225.0995 647.9483 253.9095V634.2795C647.9483 663.0895 633.2983 679.6895 606.9383 679.6895C582.0283 679.6895 566.8983 662.5995 566.8983 634.2795V468.7495H331.5383V634.2795C331.5383 663.0895 316.8983 679.6895 290.5283 679.6895Z"/>
</svg>