<?xml version="1.0" encoding="UTF-8" standalone="no"?>
<svg xmlns="http://www.w3.org/2000/svg"
     width="996.09375" height="996.09375"
     viewBox="0 0 996.09375 996.09375"
     fill="currentColor">
  <path d="M498.0477 996.0977C770.5077 996.0977 996.0977 770.5077 996.0977 498.0477C996.0977 226.0777 770.0177 -0.0023 497.5577 -0.0023C225.5877 -0.0023 -0.0023 226.0777 -0.0023 498.0477C-0.0023 770.5077 226.0777 996.0977 498.0477 996.0977ZM725.5877 542.9677L706.5477 525.3877C696.7777 516.1177 694.8277 508.7877 696.2877 497.5577L699.2177 467.7777L680.1777 448.2377L639.1577 456.5477C622.5577 459.4677 610.8377 457.5177 600.0977 446.2877L542.9677 389.6477C528.8077 375.4877 524.8977 359.8677 533.2077 337.3977L552.7377 285.1577C515.6277 263.1877 471.6777 265.6277 421.8777 280.2777C413.0877 284.1777 403.3177 280.7577 396.9777 275.3877C389.1577 266.1177 387.2077 252.9277 399.4177 240.2377C472.6577 166.9877 604.9777 174.8077 676.2677 245.6077L727.5377 296.8777C747.0677 315.4277 753.4177 333.9877 749.0277 352.0477L740.2377 388.1877L759.7677 406.7377L789.5477 403.8077C801.2677 402.8277 806.6377 404.2977 816.8977 414.5477L835.9377 433.1077C846.6777 444.3377 847.1677 457.5177 836.9177 467.2877L759.7677 543.9477C748.5377 554.1977 736.3277 553.2177 725.5877 542.9677ZM267.5777 764.6477L225.0977 722.1677C201.6577 698.7277 204.0977 672.8477 230.4677 649.4177L501.9577 412.5977L579.0977 488.7677L340.8177 760.2577C317.8677 786.1377 291.0177 788.0877 267.5777 764.6477Z"/>
</svg>