<?xml version="1.0" encoding="UTF-8" standalone="no"?>
<svg xmlns="http://www.w3.org/2000/svg"
     width="994.62890625" height="1062.01171875"
     viewBox="0 0 994.62890625 1062.01171875"
     fill="currentColor">
  <path d="M994.6277 342.7773C994.6277 184.5673 891.5977 52.2473 767.0877 52.2473H611.3277C549.3177 19.5273 474.1177 -0.0027 390.1377 -0.0027H324.7077C266.1177 -0.0027 215.3277 3.4173 181.6377 12.2073C116.2077 27.8273 75.1977 73.7273 75.1977 131.3473C75.1977 143.0673 77.1477 154.2973 80.0777 164.5473C47.8477 189.4573 29.7877 224.6073 29.7877 264.1573C29.7877 283.2073 33.2077 301.7573 40.5277 317.3873C18.5577 339.8473 5.8577 372.5573 5.8577 406.7373C5.8577 428.7073 11.7177 452.1473 20.9977 469.2373C7.8077 488.2773 -0.0023 515.1373 -0.0023 542.9673C-0.0023 613.7673 55.1777 669.4373 125.4877 669.4373H303.7077C314.4577 669.4373 321.2877 674.3173 321.2877 683.5973C321.2877 734.3773 241.2077 853.5173 241.2077 949.2173C241.2077 1015.1373 287.1077 1062.0073 350.0977 1062.0073C396.4877 1062.0073 427.7377 1038.0873 458.0077 979.4873C515.6277 869.1373 583.9877 770.9973 695.3077 635.2573H784.6677C900.8777 635.2573 994.6277 503.9073 994.6277 342.7773ZM719.7277 345.2173C719.7277 447.2673 696.7777 512.2073 633.2977 597.6573C562.4977 691.8973 463.8677 805.6673 393.5577 946.2873C375.4877 981.4473 364.2577 989.7473 347.1677 989.7473C327.1477 989.7473 313.4777 975.5873 313.4777 949.2173C313.4777 872.5573 393.5577 757.3273 393.5577 683.5973C393.5577 629.8873 349.6077 597.1673 293.4577 597.1673H125.4877C95.2177 597.1673 72.2677 574.2173 72.2677 542.9673C72.2677 520.5073 79.0977 506.3473 97.6577 488.2773C106.4477 480.4673 107.4177 470.2173 100.0977 461.4273C84.9577 438.9673 78.1277 425.2973 78.1277 406.7373C78.1277 384.2773 88.8677 365.7273 110.3477 349.1173C122.0677 340.3273 126.9577 328.1273 119.6277 313.4773C107.9077 291.5073 102.0477 281.2473 102.0477 264.1573C102.0477 239.2573 118.1677 219.7273 152.3477 202.1473C163.0877 196.2873 165.5277 187.4973 160.6477 176.7573C149.4177 147.9473 147.9477 143.5573 147.9477 131.3473C147.9477 108.8873 164.0577 90.8173 198.2377 82.0273C226.0777 74.7073 270.5077 71.7773 324.2177 71.7773H384.7677C585.9377 72.2673 719.7277 186.5273 719.7277 345.2173ZM922.3677 342.7773C922.3677 463.8673 856.9377 562.9873 784.6677 562.9873H742.1877C776.8577 497.0673 791.9877 428.7073 791.9877 346.6773C791.9877 259.2773 760.7377 183.1073 704.5877 124.9973H767.0877C849.6077 124.9973 922.3677 224.1173 922.3677 342.7773Z"/>
</svg>