<?xml version="1.0" encoding="UTF-8" standalone="no"?>
<svg xmlns="http://www.w3.org/2000/svg"
     width="994.62890625" height="1061.5234375"
     viewBox="0 0 994.62890625 1061.5234375"
     fill="currentColor">
  <path d="M-0.0023 719.2409C-0.0023 876.9509 103.0277 1009.7609 227.5377 1009.7609H383.2977C445.3077 1042.4809 520.5077 1061.5209 604.4877 1061.5209H669.9177C728.5177 1061.5209 779.2977 1058.1009 812.9877 1049.8009C878.4177 1033.6909 919.4377 988.2809 919.4377 930.6609C919.4377 918.4609 917.4777 907.7109 914.5477 896.9709C946.7777 872.5609 964.8477 836.9109 964.8477 797.8509C964.8477 778.8109 960.9377 759.7609 954.0977 744.6309C976.0777 722.1709 988.2777 689.4509 988.2777 655.2709C988.2777 633.3009 982.9077 609.8609 973.6377 592.7709C986.8177 573.7309 994.6277 546.8709 994.6277 518.5509C994.6277 448.2409 939.4577 392.5809 869.1377 392.5809H690.9177C680.1777 392.5809 673.3377 387.6909 673.3377 378.4209C673.3377 327.6409 753.4177 208.5009 753.4177 112.7909C753.4177 46.8709 707.5177 0.0009 644.5277 0.0009C598.1477 0.0009 566.8977 23.9209 536.1377 82.5209C479.0077 192.3809 410.6477 291.0109 299.3177 426.7609H209.9577C93.7477 426.7609 -0.0023 558.1009 -0.0023 719.2409ZM274.8977 716.8009C274.8977 614.7509 297.8477 549.8009 361.3277 464.3509C432.1277 369.6309 530.2777 256.3509 601.0777 115.7209C618.6477 80.0809 630.3677 72.2609 647.4577 72.2609C667.4777 72.2609 681.1477 86.4209 681.1477 112.7909C681.1477 188.9609 601.0777 304.2009 601.0777 378.4209C601.0777 432.1309 645.0177 464.8409 701.1677 464.8409H869.1377C899.4177 464.8409 922.3677 487.7909 922.3677 518.5509C922.3677 541.0109 915.0377 555.1709 896.9777 573.7309C888.1877 581.5409 887.2077 591.3109 894.5277 600.5809C909.6677 623.0509 916.0177 636.7209 916.0177 655.2709C916.0177 677.2509 905.7577 696.2909 884.2777 712.4009C872.5577 721.6809 867.6777 733.8909 874.5077 748.5309C886.7177 770.5109 892.5777 780.7609 892.5777 797.8509C892.5777 822.7509 876.4677 841.8009 842.2877 859.3709C831.5477 865.7209 829.0977 874.5109 833.4977 884.7609C845.2177 914.0609 846.6777 918.4609 846.6777 930.6609C846.6777 953.1209 830.0777 971.1909 795.8977 979.9809C768.0677 986.8209 723.6377 989.7509 670.4077 989.7509H609.8677C408.6877 989.7509 274.8977 875.4909 274.8977 716.8009ZM72.2677 719.2409C72.2677 597.6609 137.6977 499.0209 209.9577 499.0209H252.4377C217.7777 564.4509 202.6377 632.8109 202.6377 715.3309C202.6377 802.7309 233.8877 878.9109 290.0377 937.0109H227.5377C145.0177 937.0109 72.2677 837.4009 72.2677 719.2409Z"/>
</svg>