<?xml version="1.0" encoding="UTF-8" standalone="no"?>
<svg xmlns="http://www.w3.org/2000/svg"
     width="797.36328125" height="1062.98828125"
     viewBox="0 0 797.36328125 1062.98828125"
     fill="currentColor">
  <path d="M345.2112 1062.9931C516.6013 1062.9931 637.6913 970.2131 702.6413 787.1131L788.5713 545.4131C794.4313 528.8131 797.3612 512.6931 797.3612 498.0431C797.3612 446.2931 758.3013 410.1531 708.4913 410.1531C674.8013 410.1531 644.5313 430.1731 627.9313 468.7531L596.1913 546.8731C595.2112 548.8231 593.7513 550.2931 591.8013 550.2931C589.3513 550.2931 588.3813 548.3431 588.3813 545.9031V154.2931C588.3813 97.1631 552.7313 61.0331 498.0513 61.0331C478.0313 61.0331 459.9612 68.3631 446.2913 81.0531C439.9413 30.7631 407.7112 0.0031 359.3713 0.0031C312.0113 0.0031 278.8112 31.7431 271.4813 80.0731C259.2813 67.8731 241.7013 61.0331 224.1212 61.0331C173.3413 61.0331 139.6513 96.6831 139.6513 150.8831V205.0731C126.4613 191.4031 106.4413 184.0831 85.9413 184.0831C35.1612 184.0831 0.0012 221.1931 0.0012 276.3631V695.8031C0.0012 924.3131 138.6712 1062.9931 345.2112 1062.9931ZM342.7713 995.6031C169.9212 995.6031 64.4513 884.2731 64.4513 687.9931V283.2031C64.4513 262.2031 77.6413 248.0431 98.1413 248.0431C118.1613 248.0431 132.8112 262.2031 132.8112 283.2031V532.7131C132.8112 550.7831 147.4613 562.9931 163.0813 562.9931C179.6913 562.9931 194.8213 550.7831 194.8213 532.7131V159.6631C194.8213 138.6731 208.0113 124.0231 228.0313 124.0231C248.5313 124.0231 262.6913 138.6731 262.6913 159.6631V507.8131C262.6913 525.8831 277.3413 538.0831 293.4612 538.0831C310.0612 538.0831 324.7112 525.8831 324.7112 507.8131V99.1231C324.7112 78.1231 338.8713 62.9931 359.3713 62.9931C378.9113 62.9931 393.0712 78.1231 393.0712 99.1231V507.8131C393.0712 524.9031 406.7413 538.0831 423.8313 538.0831C440.4313 538.0831 455.0813 524.9031 455.0813 507.8131V159.6631C455.0813 138.6731 469.2413 124.0231 489.2613 124.0231C509.2813 124.0231 523.4413 138.6731 523.4413 159.6631V640.1331C523.4413 664.5531 537.6013 678.7131 558.1013 678.7131C575.6813 678.7131 590.3313 670.9031 601.5613 646.4831L671.8713 489.7431C681.1513 468.7531 699.2213 461.4231 716.3113 467.7731C735.3513 474.6131 741.2112 492.6731 732.4213 516.6031L643.0713 766.1131C583.4913 932.6131 479.0013 995.6031 342.7713 995.6031Z"/>
</svg>