<?xml version="1.0" encoding="UTF-8" standalone="no"?>
<svg xmlns="http://www.w3.org/2000/svg"
     width="1043.9453125" height="808.10546875"
     viewBox="0 0 1043.9453125 808.10546875"
     fill="currentColor">
  <path d="M1043.9406 460.448C1043.9406 296.878 958.5006 159.178 750.0006 88.378L501.9506 5.858C493.6506 2.438 484.3706 -0.002 472.6606 -0.002C443.3606 -0.002 419.4306 22.948 419.4306 58.108C419.4306 81.058 430.6606 98.148 457.0306 109.378L634.7706 185.058C649.4106 190.918 654.3006 198.238 654.3006 206.538C654.3006 215.818 646.4806 224.608 632.8106 224.608H62.9906C24.9006 224.608 0.0006 248.538 0.0006 282.718C0.0006 314.938 24.9006 339.848 62.9906 339.848H452.1506C472.6606 339.848 482.9106 350.098 482.9106 363.768C482.9106 375.978 472.6606 386.718 452.1506 386.718H335.9406C318.8506 386.718 309.5706 396.488 309.5706 416.508C309.5706 460.448 337.8906 495.608 396.9706 495.608H452.1506C472.6606 495.608 482.9106 505.858 482.9106 519.528C482.9106 531.738 472.6606 542.478 452.1506 542.478H392.5806C375.0006 542.478 366.7006 551.758 366.7006 572.268C366.7006 618.168 401.3706 651.858 454.5906 651.858H482.9106C503.9106 651.858 513.6706 662.598 513.6706 675.778C513.6706 687.988 503.9106 698.728 482.9106 698.728H439.4506C428.7106 698.728 422.8506 705.078 422.8506 715.818C422.8506 764.648 478.0306 808.108 568.3606 808.108H666.0206C904.7806 808.108 1043.9406 683.108 1043.9406 460.448Z"/>
</svg>