<?xml version="1.0" encoding="UTF-8" standalone="no"?>
<svg xmlns="http://www.w3.org/2000/svg"
     width="962.40234375" height="999.0234375"
     viewBox="0 0 962.40234375 999.0234375"
     fill="currentColor">
  <path d="M240.7244 683.1009C240.7244 861.3309 379.8844 999.0209 606.9344 999.0209H673.3444C736.3244 999.0209 783.2044 994.6309 809.5744 987.3009C847.6544 978.0309 884.2744 954.5909 884.2744 908.6909C884.2744 889.6509 879.3944 875.9809 873.5344 865.7209C869.6244 859.3709 870.6044 854.4909 876.4644 852.0509C906.7344 839.3509 931.6444 811.0309 931.6444 772.4609C931.6444 750.4909 925.2944 730.9609 914.5544 717.7709C909.1844 710.4509 909.6644 703.6109 918.9444 698.7309C940.4344 686.0309 956.0544 658.6909 956.0544 626.9509C956.0544 604.0009 948.7344 580.0809 936.0344 568.3609C928.2244 561.5209 929.6844 556.6409 937.5044 549.3209C952.6344 536.6209 962.4044 514.6509 962.4044 486.8209C962.4044 439.9409 925.7844 401.3709 877.4444 401.3709H705.5644C662.1144 401.3709 633.3044 378.9109 633.3044 342.7709C633.3044 277.8309 714.8444 157.7109 714.8444 71.7809C714.8444 26.3709 685.5444 0.0009 647.4644 0.0009C612.3044 0.0009 595.2144 23.9209 576.6644 60.5509C503.9044 201.6609 407.2244 315.9209 333.4944 413.5709C270.9944 496.5809 240.7244 568.3609 240.7244 683.1009ZM0.0044 687.0109C0.0044 831.5409 90.3344 952.6409 211.4244 952.6409H297.3644C209.4744 888.6709 173.3444 791.9909 173.3444 682.1309C173.8244 560.0609 221.1944 472.6609 263.1844 419.9209H193.3644C84.4744 419.9209 0.0044 537.1109 0.0044 687.0109Z"/>
</svg>