<?xml version="1.0" encoding="UTF-8" standalone="no"?>
<svg xmlns="http://www.w3.org/2000/svg"
     width="996.09375" height="996.09375"
     viewBox="0 0 996.09375 996.09375"
     fill="currentColor">
  <path d="M498.0477 996.0959C770.5077 996.0959 996.0977 770.0159 996.0977 498.0459C996.0977 225.5859 770.0177 -0.0041 497.5577 -0.0041C225.5877 -0.0041 -0.0023 225.5859 -0.0023 498.0459C-0.0023 770.0159 226.0777 996.0959 498.0477 996.0959ZM498.0477 913.0859C267.5777 913.0859 83.4977 728.5159 83.4977 498.0459C83.4977 267.5759 267.0877 83.0059 497.5577 83.0059C728.0277 83.0059 913.0877 267.5759 913.0877 498.0459C913.0877 728.5159 728.5177 913.0859 498.0477 913.0859ZM346.6777 574.7059C345.2177 671.3859 422.8477 744.6259 545.8977 745.1159L582.0277 745.6059C615.7277 746.0959 641.1177 743.6559 655.2777 740.2359C676.2677 734.3759 696.7777 722.6559 696.7777 697.2659C696.7777 687.9859 693.8477 679.1959 690.9177 674.3159C688.9677 670.8959 688.9677 667.9659 692.3877 666.5059C708.0077 660.6459 722.1677 644.5359 722.1677 624.0259C722.1677 611.8159 718.7477 601.0759 712.3977 594.2359C709.4777 590.3359 709.9577 585.9359 714.3577 583.4959C727.0477 576.1759 734.8677 562.0159 734.8677 544.4359C734.8677 532.7159 731.4477 519.0459 724.1177 512.6959C720.2177 508.7859 720.7077 506.8359 725.5877 502.9259C733.3977 495.6059 738.2777 483.3959 738.2777 469.2359C738.2777 442.8759 718.7477 421.8759 692.8677 421.8759H600.0977C575.6877 421.8759 560.5477 410.1559 560.5477 390.1359C560.5477 354.9759 604.4877 290.0359 604.4877 243.6559C604.4877 219.2359 588.3777 205.0759 567.8677 205.0759C548.8277 205.0759 539.5477 217.7759 529.7877 237.7959C490.2377 313.9659 437.4977 375.9759 397.9477 429.6859C364.2577 474.1259 347.6577 512.6959 346.6777 574.7059ZM218.2577 576.6559C218.2577 655.7659 266.1177 721.1959 331.5477 721.1959H379.3977C331.0577 686.5259 310.5477 634.2759 311.5277 574.2159C312.4977 507.8159 337.8877 461.4259 360.3477 432.6159H322.2677C262.6977 432.6159 218.2577 496.0959 218.2577 576.6559Z"/>
</svg>