<?xml version="1.0" encoding="UTF-8" standalone="no"?>
<svg xmlns="http://www.w3.org/2000/svg"
     width="852.8358145513362" height="947.5197534755761"
     viewBox="0 0 852.8358145513362 947.5197534755761"
     fill="currentColor">
  <path d="M625.3439 922.6438C819.1939 852.3338 901.7139 674.5938 823.5839 459.7538L787.4539 359.6538C748.8839 253.6938 676.1239 210.2438 590.6739 240.0238C567.7339 210.2438 532.5739 199.9838 494.4839 213.6538C480.3239 219.0338 468.1239 226.3538 456.4039 235.1438C431.4939 202.9138 392.9239 191.1938 352.8839 205.3538C342.1439 209.2638 331.8939 215.1238 322.1239 221.9638L266.4639 69.6138C245.4639 11.5138 192.7339 -12.9062 138.5339 6.6238C83.8439 26.6438 59.4239 78.8938 80.4239 136.9938L219.5839 519.8138C220.5639 522.2538 220.0739 524.2038 217.6339 525.1838C216.1639 526.1538 214.2139 525.1838 212.7439 523.7138L155.6239 461.2138C127.3039 430.9438 93.1239 421.6638 60.4039 433.3838C15.9739 449.9838 -12.8361 492.4638 5.7139 542.7638C10.1139 556.9238 19.8739 574.0138 31.1039 588.1738L194.6839 785.9238C318.2139 935.3338 463.2339 981.7238 625.3439 922.6438ZM604.3539 858.6738C476.4239 905.5538 356.3039 881.6238 243.5139 745.3938L79.9339 548.6238C75.0539 542.7638 71.6339 537.3938 68.7039 529.0838C62.8439 513.4638 69.6839 495.3938 88.2339 488.5638C103.8639 483.1938 116.0739 489.0538 128.7639 502.2338L242.0439 618.9338C260.6039 638.4638 277.2039 640.4138 293.3139 634.5538C312.8439 627.7238 320.6539 607.2138 312.8439 586.2138L139.9939 110.6338C132.6739 91.1038 141.4639 72.5438 160.0139 65.7138C179.0539 58.8738 196.6339 68.1538 203.9639 87.6838L327.4939 427.0338C333.3539 443.1538 351.4239 450.4738 367.5339 444.6138C383.1539 438.7538 391.4639 421.6638 386.0839 406.0438L341.1639 283.4838C348.0039 277.1338 357.2839 270.7838 366.5539 267.3738C389.5039 259.0738 408.5539 269.3238 417.3339 293.2438L456.4039 400.1838C462.2639 416.7838 480.3239 423.1338 495.9539 417.2738C511.0839 411.9038 520.8539 395.7838 514.5039 378.6938L482.7639 291.7838C489.6039 285.4338 498.8839 279.0838 508.1539 275.6738C531.1039 267.3738 550.1539 277.6238 558.9439 301.5538L584.8239 372.8338C591.1639 389.9238 609.2339 396.2738 624.8539 390.4138C639.9939 385.0438 649.2739 368.4438 643.4139 351.8438L623.8839 299.1038C664.8939 284.4638 703.4739 317.6638 729.8339 390.9038L760.6039 474.4038C827.4939 658.9738 766.9439 799.5938 604.3539 858.6738Z"/>
</svg>