<?xml version="1.0" encoding="UTF-8" standalone="no"?>
<svg xmlns="http://www.w3.org/2000/svg"
     width="769.53125" height="993.65234375"
     viewBox="0 0 769.53125 993.65234375"
     fill="currentColor">
  <path d="M438.4777 993.648C650.3877 993.648 769.5277 860.838 769.5277 634.278V540.528C769.5277 454.588 728.0277 402.348 681.6377 402.348C670.8977 402.348 665.5277 407.718 665.5277 417.968V459.468C665.5277 479.008 655.2777 488.768 643.5577 488.768C630.8577 488.768 621.0977 479.008 621.0977 459.468V432.128C621.0977 381.838 588.3777 348.628 544.9177 348.628C524.8977 348.628 516.1177 356.938 516.1177 373.538V430.178C516.1177 449.708 506.3477 459.468 494.6277 459.468C481.9377 459.468 471.6777 449.708 471.6777 430.178V377.928C471.6777 321.288 438.4777 294.438 396.4877 294.438C377.4377 294.438 367.6777 303.218 367.6777 319.338V430.178C367.6777 449.708 357.4177 459.468 345.7077 459.468C333.0077 459.468 323.2377 449.708 323.2377 430.178V59.568C323.2377 23.438 299.3177 -0.002 269.0477 -0.002C236.3277 -0.002 213.3777 23.438 213.3777 59.568V602.048C213.3777 615.718 205.0777 622.558 196.7777 622.558C188.4777 622.558 181.6377 617.678 175.7777 604.008L104.0077 434.568C93.2577 409.668 76.6577 398.928 54.6877 398.928C21.4877 398.928 -0.0023 421.878 -0.0023 449.218C-0.0023 460.448 2.4377 469.728 4.8877 477.538L83.9877 713.378C151.3677 912.108 282.7177 993.648 438.4777 993.648Z"/>
</svg>