<?xml version="1.0" encoding="UTF-8" standalone="no"?>
<svg xmlns="http://www.w3.org/2000/svg"
     width="876.953125" height="1244.140625"
     viewBox="0 0 876.953125 1244.140625"
     fill="currentColor">
  <path d="M324.2177 152.8286C366.6977 152.8286 400.8777 118.6486 400.8777 76.1686C400.8777 34.6686 366.6977 -0.0014 324.2177 -0.0014C282.7177 -0.0014 248.0477 34.6686 248.0477 76.1686C248.0477 118.6486 282.7177 152.8286 324.2177 152.8286ZM800.2977 152.8286C842.7777 152.8286 876.9577 118.6486 876.9577 76.1686C876.9577 34.6686 842.7777 -0.0014 800.2977 -0.0014C758.7877 -0.0014 724.6077 34.6686 724.6077 76.1686C724.6077 118.6486 758.7877 152.8286 800.2977 152.8286ZM75.1977 374.9986C118.6477 374.9986 151.8577 340.8186 151.8577 298.3386C151.8577 256.3486 118.6477 222.1686 75.1977 222.1686C33.6877 222.1686 -0.0023 256.3486 -0.0023 298.3386C-0.0023 340.8186 33.6877 374.9986 75.1977 374.9986ZM575.6877 374.9986C618.1677 374.9986 652.3477 340.8186 652.3477 298.3386C652.3477 256.3486 618.1677 222.1686 575.6877 222.1686C533.6877 222.1686 499.5077 256.3486 499.5077 298.3386C499.5077 340.8186 533.6877 374.9986 575.6877 374.9986ZM800.2977 374.9986C842.7777 374.9986 876.9577 340.8186 876.9577 298.3386C876.9577 256.3486 842.7777 222.1686 800.2977 222.1686C758.7877 222.1686 724.6077 256.3486 724.6077 298.3386C724.6077 340.8186 758.7877 374.9986 800.2977 374.9986ZM493.6477 1244.1386C705.5677 1244.1386 824.7077 1111.3286 824.7077 884.2786V790.5286C824.7077 704.5886 783.6877 652.3486 736.8177 652.3486C726.0777 652.3486 720.7077 658.1986 720.7077 667.9686V709.4686C720.7077 729.4886 710.4477 738.7686 698.7277 738.7686C686.0377 738.7686 676.2677 729.4886 676.2677 709.4686V682.1286C676.2677 631.8386 643.5577 598.6286 600.0977 598.6286C580.0777 598.6286 571.2877 606.9286 571.2877 623.5386V680.1786C571.2877 700.1986 561.5277 709.4686 549.8077 709.4686C537.1077 709.4686 526.8577 700.1986 526.8577 680.1786V627.9286C526.8577 571.2886 494.1377 544.4286 451.6577 544.4286C433.1077 544.4286 422.8477 553.2186 422.8477 569.3386V680.1786C422.8477 700.1986 413.0877 709.4686 401.3677 709.4686C388.6677 709.4686 378.4177 700.1986 378.4177 680.1786V309.5686C378.4177 273.4386 354.9777 249.9986 324.2177 249.9986C291.5077 249.9986 269.0477 273.4386 269.0477 309.5686V852.0486C269.0477 865.7186 260.2577 872.5586 251.9577 872.5586C243.6477 872.5586 236.8177 867.6786 230.9577 854.4886L159.1777 684.5686C148.4377 659.6686 132.3277 648.9286 110.3477 648.9286C76.6577 648.9286 55.1777 671.8786 55.1777 699.7086C55.1777 710.4486 57.6177 719.7286 60.0577 727.5386L139.1577 963.3786C206.5477 1162.5986 337.8877 1244.1386 493.6477 1244.1386Z"/>
</svg>