<?xml version="1.0" encoding="UTF-8" standalone="no"?>
<svg xmlns="http://www.w3.org/2000/svg"
     width="778.3203125" height="1043.9453125"
     viewBox="0 0 778.3203125 1043.9453125"
     fill="currentColor">
  <path d="M0.0005 701.1716C0.0005 916.5016 141.1105 1043.9416 334.9605 1043.9416C490.2305 1043.9416 586.4305 979.0016 650.3905 848.6316C687.9905 776.3716 716.8005 689.4516 747.5605 588.8716C760.2505 547.8516 778.3205 495.6016 778.3205 472.1716C778.3205 445.8016 759.2805 428.2216 731.4405 428.2216C700.6805 428.2216 682.1305 447.7516 659.6705 494.1416L591.8005 636.7216C584.9605 652.3416 577.1505 658.2016 569.3405 658.2016C559.0805 658.2016 552.2505 652.3416 552.2505 635.2516V123.0516C552.2505 94.2416 528.8105 70.8016 500.0005 70.8016C471.1905 70.8016 447.7505 94.2416 447.7505 123.0516V489.2616C434.5705 484.3716 419.9205 480.4716 404.3005 477.5416V52.7316C404.3005 23.9216 380.8605 0.0016 352.0505 0.0016C323.2405 0.0016 299.3205 23.9216 299.3205 52.7316V472.1716C284.1805 473.1416 268.5505 475.5816 253.4205 478.0316V94.2416C253.4205 65.4316 229.9805 41.9916 201.1705 41.9916C172.3605 41.9916 148.9305 65.4316 148.9305 94.2416V511.2316C132.8105 519.0416 118.1605 527.3416 104.9805 536.1316V246.0916C104.9805 217.2816 81.5405 193.8516 52.7305 193.8516C23.9305 193.8516 0.0005 217.2816 0.0005 246.0916Z"/>
</svg>