<?xml version="1.0" encoding="UTF-8" standalone="no"?>
<svg xmlns="http://www.w3.org/2000/svg"
     width="1393.5546875" height="952.1484375"
     viewBox="0 0 1393.5546875 952.1484375"
     fill="currentColor">
  <path d="M696.7777 952.1533C957.0277 952.1533 1173.3377 736.3233 1173.3377 476.0733C1173.3377 215.8233 957.0277 0.0033 696.2877 0.0033C436.0377 0.0033 220.7077 215.3333 220.7077 476.0733C220.7077 736.3233 436.5277 952.1533 696.7777 952.1533ZM1393.5577 476.0733C1393.5577 321.2933 1343.7477 178.7133 1258.2977 62.9833C1243.1677 42.4833 1217.2877 40.0433 1197.7577 55.6633C1179.6877 70.8033 1178.2277 94.7233 1191.8977 113.2833C1266.5977 215.3333 1310.0577 340.3333 1310.0577 476.0733C1310.0577 611.3233 1266.5977 736.8133 1191.8977 837.8933C1178.2277 857.4233 1180.1777 880.8633 1197.7577 895.9933C1217.2877 911.6233 1243.1677 909.6633 1258.2977 888.6733C1343.7477 772.9533 1393.5577 630.8633 1393.5577 476.0733ZM-0.0023 476.0733C-0.0023 630.8633 50.2977 772.9533 135.2577 888.6733C150.3877 909.6633 176.2677 911.6233 195.7977 895.9933C213.3777 880.8633 215.8177 857.4233 201.6577 837.8933C127.4377 736.8133 83.4977 611.3233 83.4977 476.0733C83.4977 340.3333 127.4377 215.3333 201.6577 113.2833C215.8177 94.7233 213.8677 70.8033 195.7977 55.6633C176.2677 40.0433 150.3877 42.4833 135.2577 62.9833C50.2977 178.7133 -0.0023 321.2933 -0.0023 476.0733ZM696.7777 869.1433C479.0077 869.1433 304.1977 694.3333 304.1977 476.0733C304.1977 257.3233 478.5177 82.5233 696.2877 82.5233C914.5477 82.5233 1089.8477 257.3233 1090.3277 476.0733C1090.8177 693.8433 915.5277 869.1433 696.7777 869.1433ZM508.7877 572.7533C508.7877 691.8933 585.9377 764.6533 695.7977 764.6533C778.8077 764.6533 835.9377 731.4433 873.5377 652.8333C894.5277 612.7933 910.1577 563.9633 926.7577 508.3033C934.0777 485.3533 944.3377 457.5233 944.3377 445.3133C944.3377 430.1733 933.1077 419.9233 916.9877 419.9233C899.4177 419.9233 889.1577 430.6633 876.4677 455.5633L838.3777 536.1333C835.4477 544.4333 831.0577 547.8533 826.6577 547.8533C820.7977 547.8533 817.8677 543.9433 817.8677 535.6433V250.4833C817.8677 234.3733 804.1977 220.7033 788.0877 220.7033C771.4877 220.7033 758.2977 234.3733 758.2977 250.4833V452.6333C750.9777 450.6833 743.1677 447.7533 735.3477 446.2933V210.9333C735.3477 194.3333 722.1677 181.1533 705.5677 181.1533C688.9677 181.1533 675.7777 194.3333 675.7777 210.9333V443.3633C667.4777 444.8233 659.1777 444.8233 651.8577 446.2933V234.3733C651.8577 217.7733 637.6977 204.5933 621.5777 204.5933C604.9777 204.5933 591.7977 217.7733 591.7977 234.3733V465.8233C583.0077 469.2333 576.1677 474.1233 568.8477 478.5133V319.3333C568.8477 302.7333 555.1777 289.0633 539.0577 289.0633C522.4577 289.0633 508.7877 302.7333 508.7877 319.3333Z"/>
</svg>