<?xml version="1.0" encoding="UTF-8" standalone="no"?>
<svg xmlns="http://www.w3.org/2000/svg"
     width="996.09375" height="996.09375"
     viewBox="0 0 996.09375 996.09375"
     fill="currentColor">
  <path d="M498.0477 996.0959C770.5077 996.0959 996.0977 770.0159 996.0977 498.0459C996.0977 225.5859 770.0177 -0.0041 497.5577 -0.0041C225.5877 -0.0041 -0.0023 225.5859 -0.0023 498.0459C-0.0023 770.0159 226.0777 996.0959 498.0477 996.0959ZM648.4377 415.5259C647.4577 479.9759 629.8877 519.0459 595.7077 564.9459C554.1977 620.1159 500.4877 684.5659 459.4777 763.1859C449.7077 783.6959 439.9377 796.8759 420.4077 796.8759C399.4177 796.8759 382.8077 781.7359 382.8077 756.8359C382.8077 709.4759 428.2277 642.5759 428.2277 605.4659C428.2277 585.4459 412.5977 572.7559 387.2077 572.7559H291.5077C265.1377 572.7559 244.6277 551.2659 244.6277 524.4159C244.6277 510.2559 249.9977 497.0659 257.8077 489.2559C262.6977 485.8359 263.6677 483.3959 258.7877 479.9759C251.9577 473.1459 248.0477 458.9859 248.0477 446.7759C248.0477 428.2259 256.3477 414.0659 269.5277 406.2459C273.9277 403.8059 274.4177 399.9059 271.4877 395.5059C265.1377 388.1859 261.2277 376.9559 261.2277 364.7459C261.2277 343.2659 275.8777 327.1459 291.9877 320.7959C294.9177 319.8259 295.4077 316.4059 293.4577 312.9859C290.5277 307.6159 287.5977 298.8259 287.5977 289.0659C287.5977 263.1859 308.5977 250.9759 330.5677 245.1159C345.2177 241.6959 371.0977 238.7659 405.7577 239.2559L443.3577 239.7459C569.8277 241.2059 649.8977 315.9159 648.4377 415.5259ZM781.2477 413.5759C781.2477 496.5859 734.8677 562.4959 673.8277 562.4959H634.7677C657.2277 532.2259 684.0777 484.3759 685.0577 416.0159C686.0377 354.0059 665.0377 300.2959 615.2377 264.1559H664.0577C731.9377 264.1559 781.2477 332.0359 781.2477 413.5759Z"/>
</svg>