<?xml version="1.0" encoding="UTF-8" standalone="no"?>
<svg xmlns="http://www.w3.org/2000/svg"
     width="888.671875" height="888.18359375"
     viewBox="0 0 888.671875 888.18359375"
     fill="currentColor">
  <path d="M831.5383 57.615C781.7383 7.815 711.4283 -0.005 627.9283 -0.005H259.2783C177.2483 -0.005 106.9383 7.815 57.1283 57.615C7.3283 107.425 -0.0017 177.245 -0.0017 258.785V627.925C-0.0017 711.425 7.3283 780.765 57.1283 830.565C106.9383 880.375 177.2483 888.185 260.2583 888.185H627.9283C711.4283 888.185 781.7383 880.375 831.5383 830.565C881.3483 780.765 888.6683 711.425 888.6683 627.925V260.255C888.6683 176.755 881.3483 106.935 831.5383 57.615ZM242.6783 539.555V267.575C242.6783 249.995 257.3283 234.865 275.8783 234.865C292.9683 234.865 308.1083 249.995 308.1083 267.575V438.475C315.4283 434.085 322.7583 429.195 332.0283 425.295V175.785C332.0283 158.205 346.6783 144.045 364.2583 144.045C381.8383 144.045 396.9683 158.205 396.9683 175.785V404.295C405.2783 402.835 413.5783 401.855 422.3683 400.875V150.875C422.3683 133.785 436.5283 118.655 454.5883 118.655C472.6583 118.655 486.8183 133.785 486.8183 150.875V403.805C495.1183 406.245 503.4183 409.175 511.2283 411.135V193.355C511.2283 175.785 525.3883 161.135 543.4583 161.135C560.5483 161.135 575.1983 175.785 575.1983 193.355V499.995C575.1983 508.785 578.6183 512.695 584.9583 512.695C589.3583 512.695 593.7483 509.765 597.1683 500.485L638.1883 414.555C651.8583 386.715 662.5983 374.995 682.1283 374.995C699.2183 374.995 711.4283 386.235 711.4283 402.345C711.4283 416.015 700.1983 446.775 692.3783 471.675C674.3183 531.735 657.2283 583.495 634.7683 626.955C594.2383 709.965 533.1983 745.605 444.3383 745.605C325.6883 745.605 242.6783 666.995 242.6783 539.555Z"/>
</svg>