<?xml version="1.0" encoding="UTF-8" standalone="no"?>
<svg xmlns="http://www.w3.org/2000/svg"
     width="797.36328125" height="1027.34375"
     viewBox="0 0 797.36328125 1027.34375"
     fill="currentColor">
  <path d="M344.7277 -0.0005C138.1877 -0.0005 -0.0023 138.6695 -0.0023 367.1895V473.6295C-0.0023 586.4295 53.2277 652.3395 144.0477 653.3195C155.2777 688.9695 184.5677 710.9395 225.5877 710.9395C240.2377 710.9395 254.3977 708.4995 268.0677 703.6095C280.7577 743.1595 312.9877 767.0895 355.4677 767.0895C366.6977 767.0895 378.4177 765.6295 390.1377 762.2095V924.8095C390.1377 986.3295 431.1477 1027.3395 488.7677 1027.3395C546.8777 1027.3395 587.8877 986.3295 587.8877 924.8095V517.0895C587.8877 514.6495 589.3577 512.6995 591.7977 512.6995C593.7477 512.6995 595.2177 514.1595 595.7077 516.1095L628.4177 594.2395C645.0177 632.3195 673.3377 652.8295 708.0077 652.8295C755.3677 652.8295 797.3677 622.5595 797.3677 568.8495C797.3677 554.1995 794.4377 534.6695 788.5777 517.5795L702.6377 275.8795C637.6977 92.7695 517.0877 -0.0005 344.7277 -0.0005ZM342.2877 67.3795C479.0077 67.3795 583.4977 130.3695 643.0677 296.8795L729.4877 538.0895C731.9377 545.4095 733.3977 551.7595 733.3977 560.0595C733.3977 577.1495 720.7077 591.7995 701.1677 591.7995C684.5677 591.7995 674.8077 581.5395 667.4777 564.9395L601.0777 416.4995C590.3277 392.0895 575.1977 384.2795 558.1077 384.2795C537.5977 384.2795 522.9477 400.3895 522.9477 422.8495V929.1995C522.9477 949.7095 508.7877 964.3595 488.7677 964.3595C468.7477 964.3595 455.0777 949.7095 455.0777 929.1995V567.8695C455.0777 550.7795 440.4277 537.5995 423.3377 537.5995C406.7377 537.5995 393.0677 550.7795 393.0677 567.8695V697.7495C384.7677 701.6595 373.5377 704.0995 363.7677 704.0995C339.3577 704.0995 324.7077 688.4795 324.7077 662.5995V549.3195C324.7077 531.2495 310.0577 519.0395 293.4577 519.0395C277.3477 519.0395 262.6977 531.2495 262.6977 549.3195V641.5995C254.3977 645.5095 243.1677 647.9495 233.8877 647.9495C208.9877 647.9495 194.8277 632.3195 194.8277 606.4495V530.2695C194.8277 512.6995 179.6877 500.4895 163.0877 500.4895C146.9777 500.4895 132.8077 512.6995 132.8077 530.2695V586.4295C89.3577 586.4295 64.4577 541.9895 64.4577 463.8695V374.9995C64.4577 178.7095 169.9177 67.3795 342.2877 67.3795Z"/>
</svg>