<?xml version="1.0" encoding="UTF-8" standalone="no"?>
<svg xmlns="http://www.w3.org/2000/svg"
     width="797.4094216829759" height="1027.34375"
     viewBox="0 0 797.4094216829759 1027.34375"
     fill="currentColor">
  <path d="M452.1938 1027.3409C658.7338 1027.3409 797.4138 888.6709 797.4138 660.1609V553.2209C797.4138 440.9209 744.1838 375.0009 653.3638 374.0209C642.1338 337.8909 612.3538 316.4109 571.8238 316.4109C557.1738 316.4109 543.0138 318.8509 528.8538 323.7309C516.6438 284.1809 484.4238 260.2509 441.9438 260.2509C430.7138 260.2509 418.9938 261.7209 407.2738 265.1409V102.5409C407.2738 41.0109 366.2538 0.0009 308.6438 0.0009C250.5338 0.0009 209.0338 41.0109 209.0338 102.5409V509.7609C209.0338 512.6909 208.0538 514.1609 205.6138 514.1609C203.6638 514.1609 202.1938 513.1809 201.2138 510.7409L168.9938 433.1009C152.3938 395.0209 124.0738 374.5109 89.4038 374.5109C41.5538 374.5109 0.0438 404.7809 0.0438 458.0109C-0.4462 473.1409 2.9738 492.6709 8.8338 509.2809L94.7738 750.9809C159.7138 934.0809 280.3238 1027.3409 452.1938 1027.3409ZM454.6338 959.9609C318.4038 959.9609 213.9138 896.9709 154.3438 729.9809L67.9138 489.2609C65.4738 481.9309 64.0138 475.5809 64.0138 466.8009C64.0138 450.1909 76.7038 435.5509 96.2338 435.5509C112.8438 435.5509 122.6038 445.3109 129.4438 461.9109L196.3338 610.3509C207.0738 635.2509 221.7238 643.0709 239.3038 643.0709C259.8138 643.0709 273.9738 626.4609 273.9738 604.4909V98.1409C273.9738 77.6409 288.6238 62.9909 308.6438 62.9909C328.6638 62.9909 342.3338 77.6409 342.3338 98.1409V459.4709C342.3338 476.5609 356.9838 489.7509 373.5838 489.7509C390.6738 489.7509 404.3438 476.5609 404.3438 459.4709V329.5909C412.6438 325.6809 423.8738 322.7509 433.6438 322.7509C458.0538 322.7509 472.7038 338.8709 472.7038 364.7509V478.0309C472.7038 496.0909 487.3538 508.3009 503.9538 508.3009C520.0638 508.3009 534.7138 496.0909 534.7138 478.0309V385.7409C543.0138 381.8309 554.2438 379.3909 563.5238 379.3909C587.9338 379.3909 602.5838 395.0209 602.5838 420.9009V497.0709C602.5838 514.6509 617.7238 526.8509 634.3238 526.8509C649.9438 526.8509 664.5938 514.6509 664.5938 497.0709V440.9209C708.0538 440.9209 732.9538 485.3509 732.9538 562.9909V652.3409C732.9538 848.6309 627.4838 959.9609 454.6338 959.9609Z"/>
</svg>