<?xml version="1.0" encoding="UTF-8" standalone="no"?>
<svg xmlns="http://www.w3.org/2000/svg"
     width="898.92578125" height="898.92578125"
     viewBox="0 0 898.92578125 898.92578125"
     fill="currentColor">
  <path d="M153.3183 898.9295H745.6083C848.1483 898.9295 898.9283 848.1495 898.9283 747.5595V151.3695C898.9283 50.7795 848.1483 -0.0005 745.6083 -0.0005H153.3183C51.2683 -0.0005 -0.0017 50.2895 -0.0017 151.3695V747.5595C-0.0017 848.6295 51.2683 898.9295 153.3183 898.9295ZM242.6783 543.9495V271.9695C242.6783 254.3895 257.3283 239.2595 275.8783 239.2595C292.9683 239.2595 308.1083 254.3895 308.1083 271.9695V442.8695C315.4283 438.4795 322.7583 433.5895 332.0283 429.6895V180.1795C332.0283 162.5995 346.6783 148.4395 364.2583 148.4395C381.8383 148.4395 396.9683 162.5995 396.9683 180.1795V408.6895C405.2783 407.2295 413.5783 406.2495 422.3683 405.2695V155.2695C422.3683 138.1795 436.5283 123.0495 454.5883 123.0495C472.6583 123.0495 486.8183 138.1795 486.8183 155.2695V408.1995C495.1183 410.6395 503.4183 413.5695 511.2283 415.5295V197.7495C511.2283 180.1795 525.3883 165.5295 543.4583 165.5295C560.5483 165.5295 575.1983 180.1795 575.1983 197.7495V504.3895C575.1983 513.1795 578.6183 517.0895 584.9583 517.0895C589.3583 517.0895 593.7483 514.1595 597.1683 504.8795L638.1883 418.9495C651.8583 391.1095 662.5983 379.3895 682.1283 379.3895C699.2183 379.3895 711.4283 390.6295 711.4283 406.7395C711.4283 420.4095 700.1983 451.1695 692.3783 476.0695C674.3183 536.1295 657.2283 587.8895 634.7683 631.3495C594.2383 714.3595 533.1983 749.9995 444.3383 749.9995C325.6883 749.9995 242.6783 671.3895 242.6783 543.9495Z"/>
</svg>