<?xml version="1.0" encoding="UTF-8" standalone="no"?>
<svg xmlns="http://www.w3.org/2000/svg"
     width="883.8524266543923" height="1062.98828125"
     viewBox="0 0 883.8524266543923 1062.98828125"
     fill="currentColor">
  <path d="M415.2034 1062.9931C586.5934 1062.9931 695.9734 965.3331 772.6334 787.1131L874.6834 546.3831C898.1134 492.1831 873.7034 444.8231 834.6434 424.3131C796.5534 404.7831 744.7934 411.6231 712.5734 463.8631L666.1834 546.8731C664.7234 548.8231 663.7434 550.2931 661.7934 550.2931C659.3434 550.2931 657.3934 548.3431 658.3734 545.4131L721.8434 176.7531C732.5934 116.2131 701.8234 73.7331 648.6034 63.9631C590.9834 54.2031 546.0634 81.0531 533.8634 144.5331L525.0734 195.8031V98.6331C525.0734 41.0131 485.0334 0.0031 429.3634 0.0031C371.2634 0.0031 332.6834 42.4831 332.6834 102.0531V105.4731C314.1334 64.4531 274.5834 47.3631 233.0734 54.6831C176.4334 64.4531 147.6334 111.8131 154.4634 167.9731L158.3734 203.6131C137.8634 182.6131 109.0534 176.2731 78.2934 182.1331C19.7034 192.3831 -7.1566 234.3731 1.6334 294.4331L66.5734 729.9831C97.3334 937.0131 208.6634 1062.9931 415.2034 1062.9931ZM412.7634 995.6031C239.9134 995.6031 158.8634 896.9731 131.5134 722.1631L61.2034 283.6931C58.2734 263.6731 69.5034 247.5631 88.5434 244.1431C106.1234 241.2131 122.2334 252.9331 126.6334 270.9931L197.4334 536.1331C202.3134 554.6831 216.9634 562.0131 232.1034 559.0831C248.7034 556.6431 259.9334 541.9931 257.9834 525.3931L215.9834 157.7131C213.5434 136.2331 223.3134 120.6031 243.3334 117.1831C263.3534 113.7731 279.4634 126.4631 282.3934 145.9931L333.1734 514.6531C335.1334 530.2731 349.2934 540.5231 366.3834 538.0831C387.3734 534.6631 394.7034 521.9731 394.7034 504.3931V98.6331C394.7034 78.1231 408.8634 63.4731 429.3634 63.4731C448.9034 63.4731 463.0634 78.1231 463.0634 98.6331V508.7931C463.0634 525.3931 477.2234 538.0831 493.3334 538.0831C509.9334 538.0831 521.6534 527.3431 524.5834 510.7431L593.9134 155.2731C598.3134 131.8331 614.9134 122.0731 633.4734 125.4931C652.5134 128.4131 663.7434 144.5331 660.3234 166.0131L590.9834 623.0431C584.6434 664.5531 607.5934 678.7131 628.0934 678.7131C645.6734 678.7131 657.8834 669.9231 671.5534 646.4831L758.4734 492.1831C768.7234 472.6531 787.2734 467.2831 802.4134 473.6331C819.0134 479.4931 827.8034 497.0731 818.5234 519.0431L713.0634 766.1131C643.2334 927.7331 548.9934 995.6031 412.7634 995.6031Z"/>
</svg>