<?xml version="1.0" encoding="UTF-8" standalone="no"?>
<svg xmlns="http://www.w3.org/2000/svg"
     width="938.34527904995" height="1076.0585956937282"
     viewBox="0 0 938.34527904995 1076.0585956937282"
     fill="currentColor">
  <path d="M244.1377 0.0045C109.3777 0.0045 -0.0023 109.3745 -0.0023 244.1445C-0.0023 302.2445 20.5077 355.9545 54.1977 397.9445C62.4977 408.2045 72.2677 412.1045 81.5477 412.1045C105.4677 412.1045 125.9777 383.7845 105.4677 359.3745C79.0977 328.1245 63.9677 288.0845 63.9677 244.1445C63.9677 144.5345 144.5277 63.9645 244.1377 63.9645C343.7477 63.9645 423.8277 144.5345 423.8277 244.1445V254.3945C424.3177 276.3645 439.4577 286.1345 455.0777 286.1345C470.2177 286.1345 485.8377 275.3945 487.3077 258.3045C487.7977 254.8845 487.7977 250.4845 487.7977 244.1445C487.7977 109.3745 378.9077 0.0045 244.1377 0.0045ZM718.7477 1052.2445C917.9677 979.9845 984.3777 814.4545 906.7377 601.0745L874.9977 513.1845C845.7077 432.6145 789.0577 397.4645 745.1177 413.0845C734.8677 416.9945 731.4477 424.3145 734.8677 433.5945L749.5077 472.6545C755.8577 491.2145 749.9977 503.4145 738.7677 507.8145C727.0477 511.7145 714.3577 506.3445 707.5177 487.7945L698.2377 462.4045C681.1477 414.5545 639.1577 394.5345 598.1477 409.6645C579.5877 416.5045 574.2177 427.2445 579.5877 442.8745L599.1177 496.0945C605.9577 514.6445 599.6077 526.8545 588.8677 531.2545C576.6577 535.6445 563.9677 529.7845 557.1277 511.2345L539.5477 462.4045C520.0177 408.6945 479.9777 395.0145 439.9377 409.6645C422.3677 416.0145 416.0177 427.7345 421.8777 442.8745L459.4777 546.8745C466.3077 565.4345 459.9577 577.6345 449.2177 582.0345C437.0077 586.4245 424.3177 580.5645 417.9677 562.0145L291.0177 213.8645C278.8077 179.6845 248.5377 166.0145 219.7277 176.2645C188.9677 187.5045 175.7777 217.2845 187.9877 251.4645L373.5377 761.2345C378.4177 773.9245 372.5577 783.2045 364.7477 786.1345C356.9377 789.0645 348.6377 786.6245 338.8677 775.8745L213.3777 641.1145C194.8277 621.5845 175.7777 616.6945 154.7877 624.5145C123.5377 635.7445 111.3277 664.5545 120.6077 690.9145C124.5077 701.1745 129.8877 708.9845 135.2577 715.3345L290.0377 910.1545C420.8977 1074.2145 572.2677 1105.4645 718.7477 1052.2445Z"/>
</svg>