<?xml version="1.0" encoding="UTF-8" standalone="no"?>
<svg xmlns="http://www.w3.org/2000/svg"
     width="972.5341796875" height="1081.1164984154725"
     viewBox="0 0 972.5341796875 1081.1164984154725"
     fill="currentColor">
  <path d="M801.1521 806.6394L849.0021 854.4894C859.2521 833.4994 869.5021 811.0394 877.8121 786.6194L963.7421 544.9194C969.6021 528.8094 972.5321 513.1794 972.5321 498.0494C972.0421 449.7094 937.8621 410.1594 881.2221 410.1594C849.0021 410.1594 819.7021 430.1794 803.1021 468.7494L771.3621 546.3894C770.3821 548.8294 768.9221 549.8094 766.9721 549.8094C764.5221 549.8094 763.5521 548.3394 763.5521 545.4094V153.8094C763.5521 97.1694 727.9021 61.0394 673.2221 61.0394C653.2021 61.0394 635.1321 67.8694 621.4621 81.0594C615.1121 30.7594 582.8821 -0.0006 534.5421 -0.0006C487.1821 -0.0006 453.9821 31.7394 446.6521 80.0794C434.4521 67.3794 416.8721 61.0394 399.2921 61.0394C348.5121 61.0394 314.8221 96.6794 314.8221 150.3894V205.0794C301.6321 190.9194 281.6121 183.5894 261.1121 183.5894C237.1821 183.5894 217.1621 193.8494 205.4421 210.9394L258.1821 263.6694V260.2494C259.6421 252.4394 264.5221 247.5594 273.3121 247.5594C293.3321 247.5594 307.9821 262.2094 307.9821 283.1994V313.4794L369.9921 375.9794V159.1794C369.9921 138.6694 383.1821 124.0194 403.2021 124.0194C423.7021 124.0194 437.8621 138.6694 437.8621 159.1794V443.3594L499.8821 505.3694V99.1194C499.8821 78.1294 514.0421 62.9894 534.5421 62.9894C554.0821 62.9894 568.2421 78.1294 568.2421 99.1194V507.8094C568.2421 524.8994 581.9121 537.5994 599.0021 537.5994C615.6021 537.5994 630.2521 524.8994 630.2521 507.8094V159.1794C630.2521 138.6694 644.4121 124.0194 664.4321 124.0194C684.4521 124.0194 698.6121 138.6694 698.6121 159.1794V640.1394C698.6121 662.1094 712.7721 678.7094 733.2721 678.7094C750.8521 678.7094 765.5021 670.8994 776.7321 646.4794L845.5821 493.1594C855.3421 470.2194 872.4321 460.9394 890.5021 467.2894C909.5421 473.1494 915.8921 492.6794 907.1021 517.5794L818.2421 766.1094C812.8621 780.2694 807.4921 793.9494 801.1521 806.6394ZM878.7821 1070.3094C892.9421 1084.4694 917.8421 1084.9594 932.0021 1070.3094C946.1621 1055.1794 946.6521 1031.7394 932.0021 1017.0894L64.3321 149.8994C49.6821 135.2494 25.7521 135.2494 10.6221 149.8994C-3.5379 164.5494 -3.5379 188.9694 10.6221 203.1294ZM520.3821 1062.9894C600.9521 1062.9894 671.2621 1041.9894 728.3921 1000.4894L680.0521 952.6394C633.1821 981.4494 578.9821 995.1194 517.9421 995.1194C345.0921 995.1194 239.6221 884.2794 239.6221 687.9894V513.1794L175.1721 448.7294V695.7994C175.1721 924.3194 313.8421 1062.9894 520.3821 1062.9894Z"/>
</svg>