<?xml version="1.0" encoding="UTF-8" standalone="no"?>
<svg xmlns="http://www.w3.org/2000/svg"
     width="1154.242980067221" height="1302.734375"
     viewBox="0 0 1154.242980067221 1302.734375"
     fill="currentColor">
  <path d="M406.2483 216.3067C412.1083 216.3067 416.0183 213.3767 417.4783 207.0267C430.6683 133.7867 430.6683 133.2967 504.3983 119.6267C510.7383 118.1667 514.6483 114.2567 514.6483 108.3967C514.6483 102.0467 510.7383 98.1467 504.3983 96.6767C430.6683 82.0267 433.1083 81.5467 417.4783 9.7667C416.0183 3.4167 412.5983 -0.0033 406.2483 -0.0033C400.3883 -0.0033 395.9983 3.9067 395.0183 9.7667C379.3983 81.5467 381.8383 82.0267 308.1083 96.6767C301.2683 98.1467 297.8483 102.5367 297.8483 108.3967C297.8483 113.7667 301.2683 118.1667 308.1083 119.6267C381.8383 134.2767 381.3483 133.7867 395.0183 207.0267C395.9983 212.8867 400.3883 216.3067 406.2483 216.3067ZM732.9083 348.1467C741.2083 348.1467 747.0683 342.7767 747.5583 333.9867C761.7183 219.2367 767.0883 216.3067 884.2783 196.7767C893.5583 195.7967 898.9283 190.9167 898.9283 182.6167C898.9283 174.8067 893.5583 169.9267 886.2283 168.4567C768.0683 145.9967 761.7183 146.4867 747.5583 31.7367C747.0683 22.9467 741.2083 17.5767 732.9083 17.5767C725.5883 17.5767 719.7283 22.9467 719.2383 31.2467C704.0983 147.9467 700.1983 151.3667 580.5683 168.4567C573.2383 169.4367 567.8683 174.8067 567.8683 182.6167C567.8683 190.4267 573.2383 195.7967 580.5683 196.7767C700.1983 220.2167 703.6183 219.7267 719.2383 334.9567C719.7283 342.7767 725.5883 348.1467 732.9083 348.1467ZM393.5583 1147.9467C545.8983 1300.2967 735.3483 1291.0167 872.5583 1153.8067C982.4183 1043.9467 1004.3983 930.1767 957.5183 792.4767C933.1083 714.8467 892.0883 632.8167 842.2883 540.0367C822.2683 501.9567 798.3383 452.1467 781.7383 435.5467C763.1883 416.9967 737.3083 418.4567 717.7783 437.9867C695.7983 459.9567 696.7783 486.3267 713.3783 535.1567L766.1183 684.0867C772.4583 699.7067 770.9983 709.4767 765.6283 715.3367C758.2983 722.1667 749.5083 723.1467 737.3083 710.9367L374.9983 348.6367C354.9783 328.6167 321.2883 328.6167 301.2683 348.6367C280.7583 369.1367 280.7583 402.3467 301.2683 422.8467L560.0583 681.6367C547.3683 687.4967 534.1783 694.8267 520.9983 704.0967L220.6983 403.8067C200.1983 383.2967 166.9883 383.2967 146.4883 403.8067C125.9783 423.8267 125.9783 457.5167 146.4883 477.5367L443.3583 774.4167C433.1083 786.1367 423.8283 798.3367 415.0383 811.0367L143.5583 539.5467C123.0483 519.5267 89.8483 519.5267 69.3383 539.5467C48.8283 560.0567 48.8283 593.2567 69.3383 613.7667L364.2583 908.6867C358.3983 925.2967 354.4883 941.8967 351.0783 957.5167L145.9983 752.4367C125.4883 731.9367 92.2883 731.9367 71.7783 752.4367C51.7583 772.4567 51.7583 806.1567 71.7783 826.1767ZM645.0183 444.8267L548.8283 348.6367C528.3183 328.6167 494.6283 328.6167 474.6083 348.6367C473.6283 349.6067 473.1483 350.0967 472.6583 351.5667L649.8983 529.2967C644.0383 499.0267 641.5983 471.1867 645.0183 444.8267ZM1045.8983 1154.2967C1155.7583 1043.9467 1177.7383 929.6867 1131.3483 791.9967C1106.4483 714.8467 1065.4283 633.2967 1015.6283 540.0367C996.0983 501.9567 971.6783 452.1467 955.0783 436.0367C936.5283 417.4767 911.1283 418.4567 891.1183 437.9867C884.2783 444.3367 879.8783 452.1467 876.9483 460.4467C887.6983 480.4667 897.9483 500.9767 908.6883 520.5067C956.0583 610.3467 997.5583 694.8267 1021.4883 773.9267C1075.1983 939.4567 1042.9683 1078.1267 919.4383 1200.6867C898.4383 1222.1667 875.9783 1240.2367 852.5383 1255.8567C921.8783 1246.0967 988.7683 1210.9367 1045.8983 1154.2967ZM140.6283 1302.7367C147.4583 1302.7367 151.3683 1298.3367 152.3483 1291.5067C170.4083 1195.7967 169.9183 1193.8467 270.0183 1174.8067C276.8583 1172.8467 281.2483 1169.4367 281.2483 1162.1067C281.2483 1154.7867 276.8583 1151.3667 270.0183 1149.9067C169.9183 1129.8867 172.3683 1127.9267 152.3483 1032.7167C151.3683 1025.8767 147.4583 1021.4867 140.6283 1021.4867C133.7883 1021.4867 129.8783 1025.8767 128.4183 1032.7167C108.3983 1127.9267 111.8183 1129.8867 11.2283 1149.9067C4.3983 1151.3667 -0.0017 1154.7867 -0.0017 1162.1067C-0.0017 1169.4367 4.3983 1172.8467 11.2283 1174.8067C111.8183 1194.3367 110.3483 1195.7967 128.4183 1291.5067C129.8783 1298.3367 133.7883 1302.7367 140.6283 1302.7367Z"/>
</svg>