<?xml version="1.0" encoding="UTF-8" standalone="no"?>
<svg xmlns="http://www.w3.org/2000/svg"
     width="1078.125" height="837.4483613742021"
     viewBox="0 0 1078.125 837.4483613742021"
     fill="currentColor">
  <path d="M1078.1206 475.147C1078.1206 293.987 980.9606 168.017 788.5706 99.657L534.6706 9.327C517.0906 2.977 496.5806 -0.443 481.4406 0.047C424.8006 0.047 393.0706 43.987 393.0706 93.797C393.5506 130.417 414.5506 160.207 454.1006 177.297L536.6206 211.467C538.5706 211.957 539.5506 213.917 539.5506 215.867C539.5506 218.797 538.0906 219.777 535.6406 219.777H107.9106C42.4806 219.777 0.0006 262.737 0.0006 323.777C0.0006 384.807 42.4806 427.777 107.9106 427.777H278.3206C274.9006 439.987 272.9506 452.197 272.9506 463.917C272.9506 508.347 298.3406 542.527 339.3506 555.707C334.9606 569.867 332.0306 585.007 332.0306 600.627C332.0306 643.117 354.9806 674.367 392.5806 686.077C393.5506 781.297 462.8906 837.447 581.0506 837.447H692.8706C932.6206 837.447 1078.1206 691.937 1078.1206 475.147ZM1007.8106 478.077C1007.8106 659.227 891.1106 769.577 684.5706 769.577H591.3106C509.7706 769.577 462.8906 743.697 462.8906 697.797H521.4806C540.0406 697.797 553.2206 683.147 553.2206 666.057C553.2206 648.967 540.0406 632.857 521.4806 632.857H441.4106C415.0406 632.857 398.4406 617.717 398.4406 591.847C398.4406 582.077 400.8806 569.867 405.2706 561.077H501.9506C521.0006 561.077 533.6906 545.947 533.6906 528.857C533.6906 511.767 521.0006 496.627 501.9506 496.627H382.8106C355.9606 496.627 338.8706 480.517 338.8706 455.127C338.8706 445.357 341.8006 433.147 345.7006 424.847H482.4206C500.0006 424.847 514.1606 409.717 514.1606 392.627C514.1606 374.557 500.0006 359.417 482.4206 359.417H103.0306C81.5406 359.417 65.9206 345.257 65.9206 323.777C65.9206 302.777 81.5406 288.127 103.0306 288.127H634.7706C657.7106 288.127 674.8006 272.997 674.8006 251.507C674.8006 233.447 666.5006 217.327 641.1106 205.617L484.8606 136.277C467.7706 128.957 457.0306 118.697 457.0306 101.117C457.0306 80.617 472.1706 67.427 490.2306 67.427C499.0206 67.427 505.8606 68.407 513.1806 71.337L766.6006 162.157C941.4106 224.657 1007.8106 334.517 1007.8106 478.077Z"/>
</svg>