<?xml version="1.0" encoding="UTF-8" standalone="no"?>
<svg xmlns="http://www.w3.org/2000/svg"
     width="1008.7016942116685" height="1038.0859375"
     viewBox="0 0 1008.7016942116685 1038.0859375"
     fill="currentColor">
  <path d="M163.039 1038.082H845.649C964.789 1038.082 1021.429 968.752 1006.299 841.792L964.309 480.472C954.049 393.062 901.319 345.702 816.359 345.702H809.029V293.942C809.029 127.442 677.199 0.002 504.339 0.002C331.979 0.002 199.659 127.442 199.659 293.942V345.702H192.329C107.369 345.702 55.129 393.062 44.869 480.472L2.389 841.792C-12.751 968.752 44.379 1038.082 163.039 1038.082ZM278.269 293.942C278.269 171.872 376.409 78.612 504.339 78.612C632.269 78.612 730.419 171.872 730.419 293.942V345.702H278.269ZM192.329 424.312H816.359C820.749 424.312 825.149 424.312 829.049 424.802C773.879 548.342 645.949 596.682 504.339 596.682C363.229 596.682 235.299 548.342 179.639 424.802C183.539 424.312 187.939 424.312 192.329 424.312ZM163.039 959.472C101.509 959.472 71.729 921.382 80.029 851.072L122.509 489.742C122.509 487.302 122.509 488.772 122.999 486.332C183.539 591.312 291.939 647.462 406.689 666.992V702.152C406.689 735.352 426.219 753.902 459.419 753.902H549.269C582.469 753.902 601.999 735.352 601.999 702.152V666.992C717.239 647.462 825.149 591.312 886.179 485.842C886.669 489.742 886.669 489.742 886.669 489.742L928.659 851.072C936.959 921.382 907.179 959.472 845.649 959.472Z"/>
</svg>