<?xml version="1.0" encoding="UTF-8" standalone="no"?>
<svg xmlns="http://www.w3.org/2000/svg"
     width="961.9140625" height="999.0570097899798"
     viewBox="0 0 961.9140625 999.0570097899798"
     fill="currentColor">
  <path d="M724.1244 315.4626C727.0544 137.2426 582.5244 2.4726 355.4644 0.5226L289.5544 0.0326C226.0744 -0.4574 179.1944 4.4326 152.8344 11.7526C114.7444 21.0326 78.1244 43.9826 78.1244 90.3626C78.1244 108.9226 83.0044 123.0826 88.8644 133.3326C92.7744 139.1926 92.2844 144.5626 85.9344 147.0026C56.1544 159.2126 30.7644 188.0226 30.7644 226.1126C30.7644 248.5726 37.1144 267.6126 48.3444 281.2826C53.7144 288.6126 52.7344 294.9526 43.9444 300.3226C21.9744 313.0226 6.3444 340.3626 6.3444 372.1026C6.3444 395.0526 13.6744 418.9826 26.3644 430.6926C34.6644 437.5326 33.2044 442.4126 24.9044 449.7426C9.7644 462.4326 0.0044 484.4126 0.0044 512.2426C0.0044 559.1126 36.6244 597.6926 84.9644 597.6926H256.8344C300.2944 597.6926 329.1044 620.1526 329.1044 656.2826C329.1044 721.2226 248.0444 840.8526 248.0444 926.7926C248.0444 972.6926 276.8544 999.0526 315.4344 999.0526C350.0944 999.0526 367.1844 975.1326 385.7444 938.5126C458.4944 797.3926 555.1744 683.1426 628.9044 584.9926C691.4044 501.9826 722.1644 430.6926 724.1244 315.4626ZM961.9144 312.0426C961.9144 167.5126 871.0944 46.4226 750.4844 46.4226H664.5544C752.4444 110.3826 791.5044 207.0626 789.5544 316.9326C788.0844 439.0026 740.7244 526.4026 698.2444 579.1326H768.5544C877.4444 579.1326 961.9144 461.9426 961.9144 312.0426Z"/>
</svg>