<?xml version="1.0" encoding="UTF-8" standalone="no"?>
<svg xmlns="http://www.w3.org/2000/svg"
     width="928.6614937408535" height="1097.6304747228996"
     viewBox="0 0 928.6614937408535 1097.6304747228996"
     fill="currentColor">
  <path d="M244.1377 0.0045C109.3777 0.0045 -0.0023 109.3745 -0.0023 244.1445C-0.0023 302.2445 20.5077 355.9545 54.1977 397.9445C62.4977 408.2045 72.2677 412.1045 81.5477 412.1045C105.4677 412.1045 125.9777 383.7845 105.4677 359.3745C79.0977 328.1245 63.9677 288.0845 63.9677 244.1445C63.9677 144.5345 144.5277 63.9645 244.1377 63.9645C343.7477 63.9645 423.8277 144.5345 423.8277 244.1445V254.3945C424.3177 276.3645 439.4577 286.1345 455.0777 286.1345C470.2177 286.1345 485.8377 275.3945 487.3077 258.3045C487.7977 254.8845 487.7977 250.4845 487.7977 244.1445C487.7977 109.3745 378.9077 0.0045 244.1377 0.0045ZM701.1677 1072.7545C895.0177 1002.4445 977.5377 824.7045 899.4177 609.8645L863.2777 509.7645C824.7077 403.8045 751.9577 360.3545 666.5077 390.1345C643.5577 360.3545 608.3977 350.0945 570.3077 363.7645C556.1477 369.1445 543.9477 376.4645 532.2277 385.2545C507.3277 353.0245 468.7477 341.3045 428.7077 355.4645C417.9677 359.3745 407.7177 365.2345 397.9477 372.0745L342.2877 219.7245C321.2877 161.6245 269.0477 137.2045 214.8477 156.7345C159.6677 176.7545 135.2577 229.0045 156.2477 287.1045L295.4077 669.9245C296.3877 672.3645 295.8977 674.3145 293.4577 675.2945C291.9877 676.2645 290.0377 675.2945 288.5777 673.8245L231.4477 611.3245C203.1277 581.0545 168.9477 571.7745 136.2277 583.4945C91.7977 600.0945 62.9877 642.5745 81.5477 692.8745C85.9377 707.0345 95.7077 724.1245 106.9377 738.2845L270.5077 936.0345C394.5277 1085.4445 539.0577 1131.8345 701.1677 1072.7545ZM680.1777 1008.7845C552.2477 1055.6645 432.6177 1031.7345 319.3377 895.5045L155.7577 698.7345C150.8777 692.8745 147.4577 687.5045 144.5277 679.1945C138.6677 663.5745 145.5077 645.5045 164.0577 638.6745C179.6877 633.3045 192.3877 639.1645 204.5877 652.3445L317.8677 769.0445C336.4277 788.5745 353.0277 790.5245 369.6277 784.6645C388.6677 777.8345 396.4877 757.3245 389.1577 736.3245L215.8177 260.7445C208.4977 241.2145 217.2877 222.6545 236.3277 215.8245C254.8877 208.9845 272.9477 218.2645 279.7877 237.7945L403.3177 577.1445C409.1777 593.2645 427.2477 600.5845 443.3577 594.7245C458.9877 588.8645 467.7777 571.7745 461.9177 556.1545L417.4777 433.5945C423.8277 427.2445 433.5977 420.8945 442.3877 417.4845C465.3277 409.1845 484.3777 419.4345 493.1677 443.3545L532.2277 550.2945C538.0877 566.8945 556.6377 573.2445 572.2677 567.3845C586.9177 562.0145 596.6777 545.8945 590.3277 528.8045L559.0777 441.8945C565.4277 435.5445 574.7077 429.1945 583.9877 425.7845C606.9377 417.4845 625.9777 427.7345 634.7677 451.6645L660.6477 522.9445C666.9877 540.0345 685.0577 546.3845 700.6877 540.5245C715.8177 535.1545 725.0977 518.5545 719.2377 501.9545L700.1977 449.2145C740.7277 434.5745 779.2977 467.7745 805.6677 541.0145L836.4277 624.5145C903.3177 809.0845 842.7777 949.7045 680.1777 1008.7845Z"/>
</svg>