<?xml version="1.0" encoding="UTF-8" standalone="no"?>
<svg xmlns="http://www.w3.org/2000/svg"
     width="1346.4830675203325" height="1188.3417757845632"
     viewBox="0 0 1346.4830675203325 1188.3417757845632"
     fill="currentColor">
  <path d="M397.8049 201.8243C414.4049 198.4043 426.1249 181.3143 422.2249 165.6943L391.9449 24.5843C388.0449 7.4943 371.9249 -2.7657 355.3249 0.6543C338.7249 4.0743 327.0049 20.1843 330.9149 37.2743L361.1849 177.9043C365.0949 194.0143 381.2049 205.7343 397.8049 201.8243ZM216.1649 250.1643C228.3749 262.3743 247.9049 262.3743 259.6249 250.1643C271.3449 237.9643 271.8349 218.9143 259.6249 206.7143L157.0849 104.6543C144.3849 91.9643 125.8349 92.4543 113.6249 104.6543C101.4149 116.8643 100.9349 135.4243 113.6249 148.1143ZM585.7949 1076.8243C738.1349 1229.1743 927.5949 1219.8943 1064.7949 1082.6843C1174.6649 972.8243 1196.6349 859.0543 1149.7549 721.3543C1125.3449 643.7243 1084.3349 561.6943 1034.5249 468.9143C1014.5049 430.8343 990.5849 381.0243 974.4649 364.4243C955.4249 345.8743 929.5449 347.3343 910.0149 366.8643C888.0449 388.8343 889.0149 415.2043 905.6149 464.0343L958.8449 612.9643C964.7049 628.5843 963.2349 638.3543 957.8649 644.2143C950.5449 651.0443 941.7549 652.0243 929.5449 639.8143L567.2449 277.5143C547.2249 257.4943 514.0149 257.4943 493.5049 277.5143C473.0049 298.0143 473.0049 331.2243 493.5049 351.7243L752.2949 610.5143C739.6049 616.3743 726.4149 623.7043 713.2349 632.9743L412.9449 332.6843C392.4349 312.1743 359.2349 312.1743 338.7249 332.6843C318.2149 352.7043 318.2149 386.3943 338.7249 406.4143L635.5949 703.2943C625.3449 715.0143 616.0649 727.2143 607.2749 739.9143L335.7949 468.4243C315.2849 448.4043 282.0849 448.4043 261.5749 468.4243C241.0649 488.9343 241.0649 522.1343 261.5749 542.6443L556.4949 837.5643C550.6349 854.1743 546.7349 870.7743 543.3149 886.3943L338.2349 681.3143C317.7249 660.8143 284.5249 660.8143 264.0149 681.3143C243.9949 701.3343 243.9949 735.0343 264.0149 755.0543ZM837.2549 373.7043L741.0649 277.5143C720.5649 257.4943 686.8649 257.4943 666.8449 277.5143C665.8749 278.4843 665.3849 278.9743 664.8949 280.4443L842.1449 458.1743C836.2849 427.9043 833.8449 400.0643 837.2549 373.7043ZM166.8449 412.7643C182.4749 415.6943 199.5649 405.9243 202.4949 388.8343C205.9149 372.2343 195.6549 356.6143 178.5649 352.7043L37.4549 322.4343C19.3849 318.5243 2.7849 330.2443 0.3449 347.8243C-2.0951 363.9343 8.6449 379.5643 24.7549 382.9743ZM1238.1349 1083.1743C1348.0049 972.8243 1369.9749 858.5643 1323.5849 720.8743C1298.6849 643.7243 1257.6649 562.1743 1207.8649 468.9143C1188.3349 430.8343 1163.9149 381.0243 1147.3149 364.9143C1128.7649 346.3543 1103.3749 347.3343 1083.3549 366.8643C1077.0049 373.2143 1072.1249 381.0243 1069.1949 389.3243C1079.9349 409.3443 1090.1849 429.8543 1100.9349 449.3843C1148.2949 539.2243 1189.7949 623.7043 1213.7249 702.8043C1267.4349 868.3343 1235.2049 1007.0043 1111.6749 1129.5643C1090.6749 1151.0443 1068.2149 1169.1143 1044.7749 1184.7343C1114.1149 1174.9743 1181.0049 1139.8143 1238.1349 1083.1743Z"/>
</svg>