<?xml version="1.0" encoding="UTF-8" standalone="no"?>
<svg xmlns="http://www.w3.org/2000/svg"
     width="900.390625" height="896.484375"
     viewBox="0 0 900.390625 896.484375"
     fill="currentColor">
  <path d="M843.2583 57.6136C793.4583 7.8136 723.1483 0.0036 639.6483 0.0036H259.2783C177.2483 0.0036 106.9383 7.8136 57.1283 57.6136C7.3283 107.4236 -0.0017 177.2436 -0.0017 259.2736V635.7436C-0.0017 719.2336 7.3283 789.0636 57.1283 838.8636C106.9383 888.6736 177.2483 896.4836 260.2583 896.4836H639.6483C723.1483 896.4836 793.4583 888.6736 843.2583 838.8636C893.0683 789.0636 900.3883 719.2336 900.3883 635.7436V260.2536C900.3883 176.7536 893.0683 107.4236 843.2583 57.6136ZM821.7783 247.0736V649.4136C821.7783 699.7036 815.4283 751.9536 785.6483 781.2536C756.3483 811.0336 703.6183 817.8736 653.3183 817.8736H247.0683C196.7783 817.8736 144.0383 811.0336 114.2583 781.2536C84.9583 751.9536 78.6183 699.7036 78.6183 649.4136V248.5336C78.6183 196.7736 84.9583 144.5336 114.2583 114.7436C144.0383 85.4536 197.2683 78.6136 248.5383 78.6136H653.3183C703.6183 78.6136 756.3483 85.4536 785.6483 115.2336C815.4283 144.5336 821.7783 196.7736 821.7783 247.0736ZM243.1683 539.0636C243.1683 663.5736 323.7283 739.2536 438.4783 739.2536C524.8983 739.2536 583.9883 704.5936 623.5383 623.5336C645.0183 581.5436 661.6183 531.2536 679.1983 473.1436C686.5283 449.2236 696.7783 419.4336 696.7783 406.2536C696.7783 390.6236 685.0583 379.8836 668.9483 379.8836C650.3883 379.8836 639.6483 391.1136 626.4683 417.9736L586.9183 501.4636C583.0083 510.2536 579.0983 513.1836 574.7083 513.1836C568.8483 513.1836 565.4283 509.2736 565.4283 500.9736V203.6136C565.4283 186.5236 551.2683 172.3636 534.1783 172.3636C517.0883 172.3636 503.4183 186.5236 503.4183 203.6136V414.5536C495.6083 412.5936 487.7883 409.6636 479.4883 408.2036V162.1136C479.4883 145.5036 465.8183 130.8636 448.2383 130.8636C431.1483 130.8636 416.9883 145.5036 416.9883 162.1136V404.7836C408.6883 405.7636 400.3883 406.7336 392.0883 408.2036V186.5236C392.0883 169.4336 377.9283 155.7636 360.8383 155.7636C343.7483 155.7636 329.5883 169.4336 329.5883 186.5236V428.2236C320.7983 432.1336 313.4783 437.0136 305.6683 441.4036V275.3936C305.6683 258.3036 291.5083 243.6536 274.8983 243.6536C257.3283 243.6536 243.1683 258.3036 243.1683 275.3936Z"/>
</svg>