<?xml version="1.0" encoding="UTF-8" standalone="no"?>
<svg xmlns="http://www.w3.org/2000/svg"
     width="1124.1604955045384" height="1302.734375"
     viewBox="0 0 1124.1604955045384 1302.734375"
     fill="currentColor">
  <path d="M406.25 216.3067C411.62 216.3067 416.02 213.3767 417.48 207.0267C430.66 133.7867 430.66 133.2967 504.39 119.6267C510.74 118.1667 514.65 114.2567 514.65 108.3967C514.65 102.0467 510.74 98.1467 504.39 96.6767C430.66 82.0267 432.62 81.5467 417.48 9.7667C416.02 3.4167 412.11 -0.0033 406.25 -0.0033C400.39 -0.0033 396 3.9067 395.02 9.7667C379.39 81.5467 381.84 82.0267 307.62 96.6767C301.27 98.1467 297.36 102.5367 297.36 108.3967C297.36 113.7667 301.27 118.1667 307.62 119.6267C381.84 134.2767 380.86 133.7867 395.02 207.0267C396 212.8867 400.39 216.3067 406.25 216.3067ZM732.91 348.1467C740.72 348.1467 747.07 342.7767 747.56 333.9867C761.72 219.2367 767.09 216.3067 883.79 196.7767C893.55 195.7967 898.93 190.9167 898.93 182.6167C898.93 174.8067 893.55 169.9267 885.74 168.4567C768.07 145.9967 761.72 146.4867 747.56 31.7367C747.07 22.9467 740.72 17.5767 732.91 17.5767C725.59 17.5767 719.73 22.9467 719.24 31.2467C703.61 147.9467 700.2 151.3667 580.57 168.4567C572.75 169.4367 567.38 174.8067 567.38 182.6167C567.38 190.4267 572.75 195.7967 580.57 196.7767C700.2 220.2167 703.13 219.7267 719.24 334.9567C719.73 342.7767 725.59 348.1467 732.91 348.1467ZM416.02 302.7367C407.23 310.5467 401.37 320.3167 397.46 330.5667C362.3 309.5667 322.27 314.9367 291.02 346.6767C276.86 360.8367 269.04 378.4167 268.55 396.9767C228.52 366.2067 184.08 367.1867 149.41 401.8567C116.21 435.0567 115.23 480.9567 144.04 520.0167C126.46 520.0167 109.86 527.8367 97.17 540.5267C61.04 576.1767 62.5 624.9967 100.59 663.5767L139.16 701.6567C120.12 701.1767 101.07 709.9567 85.94 725.0967C50.29 760.7467 52.25 812.0067 90.82 850.5867L387.7 1147.4567C521.97 1282.2267 680.66 1304.6867 814.45 1224.1167C886.23 1215.3367 955.08 1180.1767 1015.63 1119.6267C1137.21 998.0467 1156.74 846.6767 1073.73 671.3867L963.38 438.9667C943.36 395.9967 909.67 373.5367 869.63 373.5367C844.24 373.5367 803.71 387.6967 789.06 427.2467C755.37 409.1767 714.84 416.0167 686.52 444.8267L686.04 445.3167L544.92 304.6867C504.39 264.1567 454.59 264.1567 416.02 302.7367ZM697.27 625.4867L443.85 372.0667C444.82 365.2367 448.24 358.8867 454.1 353.0267C468.26 338.8667 488.28 339.8467 502.93 354.4967L663.57 515.1367C664.55 524.4167 667.48 533.2067 670.9 542.9667L703.61 620.6067C704.1 622.5567 704.59 624.5067 703.13 625.9767C701.17 627.9267 699.22 627.4367 697.27 625.4867ZM841.8 1117.1867C719.24 1239.2567 566.41 1235.3467 427.73 1096.1867L141.11 810.0567C126.46 795.4067 125.49 775.8767 140.14 761.2267C154.3 747.0667 174.8 747.0667 189.45 761.7167L365.72 938.4767C378.91 951.1767 397.46 949.2167 408.69 937.9867C420.41 926.2667 422.36 907.2267 409.67 894.5267L146 630.3667C131.35 615.7267 130.37 596.1867 144.53 582.0267C158.69 567.8667 179.2 567.8667 194.34 582.5167L440.43 828.6167C453.13 841.3067 472.17 839.8467 483.4 828.1267C495.12 816.4067 497.07 797.3667 484.38 784.6667L195.31 495.6067C180.66 480.9567 179.69 460.4467 194.34 446.2867C208.01 432.1267 228.52 433.1067 243.65 447.7567L532.71 736.8167C544.43 748.5367 563.48 748.0467 575.2 736.3267C587.4 724.1167 588.38 705.0767 576.17 692.8667L330.08 446.2867C315.43 431.6367 314.94 411.6167 329.1 397.4567C343.75 382.8167 363.28 383.2967 378.42 398.4367L718.26 738.2767C735.35 755.3667 755.37 755.3667 770.02 740.7267C782.23 728.5167 787.6 712.4067 777.83 687.4967L716.8 526.8567C708.5 505.3667 715.82 487.3067 732.91 479.4967C750.98 471.1867 767.09 479.4967 778.32 502.9267L891.6 742.6767C967.29 902.8367 937.99 1020.5067 841.8 1117.1867ZM948.73 715.3367L840.33 486.8167C838.87 481.9367 837.4 477.0467 837.4 471.1867C837.4 455.5667 850.59 439.9367 871.58 439.9367C884.77 439.9367 898.44 449.2167 905.76 464.8467L1016.6 698.7267C1092.29 858.3967 1063.48 977.0467 966.31 1072.7567C961.43 1077.6367 957.03 1082.0267 952.15 1086.4267C1016.11 979.9767 1015.14 855.4667 948.73 715.3367ZM140.14 1302.7367C147.46 1302.7367 151.37 1298.3367 152.34 1291.5067C169.92 1195.7967 169.43 1193.8467 269.53 1174.8067C276.86 1172.8467 280.76 1169.4367 280.76 1162.1067C280.76 1154.7867 276.86 1151.3667 269.53 1149.9067C169.92 1129.8867 172.36 1127.9267 152.34 1032.7167C151.37 1025.8767 147.46 1021.4867 140.14 1021.4867C133.3 1021.4867 129.88 1025.8767 127.93 1032.7167C107.91 1127.9267 111.82 1129.8867 11.23 1149.9067C4.39 1151.3667 0 1154.7867 0 1162.1067C0 1169.4367 4.39 1172.8467 11.23 1174.8067C111.82 1194.3367 109.86 1195.7967 127.93 1291.5067C129.88 1298.3367 133.3 1302.7367 140.14 1302.7367Z"/>
</svg>