<?xml version="1.0" encoding="UTF-8" standalone="no"?>
<svg xmlns="http://www.w3.org/2000/svg"
     width="1462.890625" height="1053.22265625"
     viewBox="0 0 1462.890625 1053.22265625"
     fill="currentColor">
  <path d="M766.5983 1014.6525C800.7783 1014.6525 831.0583 998.5325 895.0183 998.5325C959.4683 998.5325 977.0483 1014.6525 1024.8983 1014.6525C1097.1683 1014.6525 1135.2583 984.8625 1135.2583 934.0825C1135.2583 848.1425 1041.9883 790.5225 894.5283 790.5225C822.2683 790.5225 790.0383 797.3625 749.0283 807.6125L696.2883 687.5025C644.5283 572.2625 561.0383 497.0725 442.8683 497.0725H385.2583C366.2083 497.0725 353.5183 488.7725 353.5183 470.2125C353.5183 439.9425 394.0383 432.6125 438.4783 432.6125C581.5383 432.6125 687.0083 511.2325 751.4683 669.4325L785.1583 750.9725C817.8683 744.1425 853.5183 740.7225 889.6483 740.7225C918.4583 740.7225 944.8283 742.6725 972.6583 746.5825C1002.4383 724.6125 1036.1283 701.6625 1085.4483 680.1725C1140.1383 717.2825 1202.6383 741.2125 1267.5783 741.2125C1402.3483 741.2125 1462.8883 711.9125 1462.8883 584.4725C1462.8883 430.6625 1351.5583 315.4325 1203.6183 315.9225L1072.7583 141.6025C999.9983 45.4125 911.6183 0.0025 824.7083 0.0025C753.4183 0.0025 647.4583 41.0125 647.4583 98.6325C647.4583 137.6925 726.5583 192.3825 787.5983 229.9825L1068.8483 401.8525C1046.8783 422.8525 1027.3483 434.0825 1002.9283 434.0825C965.3283 434.0825 925.7783 411.1325 866.6983 376.9525C716.3083 290.0425 600.0983 208.4925 443.8483 208.4925C281.2483 208.4925 157.7183 301.7625 91.7983 483.4025C39.5483 483.4025 -0.0017 517.5825 -0.0017 567.8725C-0.0017 624.5125 44.9183 660.1525 106.4483 660.1525C177.7383 759.7625 294.4383 799.8025 432.6183 799.8025C439.9383 799.8025 447.2683 799.3125 454.5883 799.3125L652.3483 963.3825C701.6583 1007.3225 729.4883 1014.6525 766.5983 1014.6525ZM1256.3483 561.0325C1234.3783 561.0325 1216.7983 542.4825 1216.7983 520.9925C1216.7983 499.0225 1234.8683 479.4925 1256.8383 479.4925C1279.2983 479.4925 1296.8783 497.0725 1296.8783 519.0425C1296.8783 541.0125 1278.8083 561.0325 1256.3483 561.0325ZM413.5783 1053.2225C507.8083 1053.2225 565.4283 1035.1525 612.3083 1002.9325L460.9383 876.9525C454.0983 877.4425 445.7983 878.4225 435.5483 878.4225C411.1283 878.4225 374.9983 871.0925 332.0283 871.0925C277.3483 871.0925 243.6483 900.3925 243.6483 944.3325C243.6483 1009.7625 310.0583 1053.2225 413.5783 1053.2225Z"/>
</svg>