<?xml version="1.0" encoding="UTF-8" standalone="no"?>
<svg xmlns="http://www.w3.org/2000/svg"
     width="996.09375" height="996.09375"
     viewBox="0 0 996.09375 996.09375"
     fill="currentColor">
  <path d="M498.0477 996.0959C770.5077 996.0959 996.0977 770.0159 996.0977 498.0459C996.0977 225.5859 770.0177 -0.0041 497.5577 -0.0041C225.5877 -0.0041 -0.0023 225.5859 -0.0023 498.0459C-0.0023 770.0159 226.0777 996.0959 498.0477 996.0959ZM498.0477 913.0859C267.5777 913.0859 83.4977 728.5159 83.4977 498.0459C83.4977 267.5759 267.0877 83.0059 497.5577 83.0059C728.0277 83.0059 913.0877 267.5759 913.0877 498.0459C913.0877 728.5159 728.5177 913.0859 498.0477 913.0859ZM233.8877 497.0659C233.8877 588.8659 255.8577 659.6659 293.4577 724.6059C302.2477 739.2559 318.3577 744.6259 333.9877 738.7659C347.1677 753.4159 368.1677 758.7859 390.1377 751.9559C422.8477 743.1659 438.4777 714.8459 428.7077 682.6159L393.5577 562.0159C383.7877 529.2959 355.9577 513.6759 323.7277 523.4359C314.9377 525.8759 307.1277 529.7859 301.2677 534.6659C300.2977 522.9459 299.8077 510.2559 299.8077 497.0659C299.8077 366.2059 378.9077 279.7859 498.0477 279.7859C617.6777 279.7859 697.7577 366.6959 697.7577 497.0659C697.7577 510.2559 697.2677 522.9459 695.7977 535.1559C689.9377 529.7859 681.6377 525.8759 672.3677 523.4359C640.6277 513.6759 612.7977 529.2959 603.0277 562.0159L567.3877 683.1059C558.1077 715.8159 573.2377 743.1659 605.9577 751.9559C628.4177 758.7859 648.9277 753.4159 662.5977 738.2859C677.7377 744.6259 694.3377 739.2559 703.1277 724.6059C741.2077 657.7159 763.6677 587.4059 763.6677 497.0659C763.6677 327.6359 656.7377 213.8659 498.0477 213.8659C339.8477 213.8659 233.8877 327.1459 233.8877 497.0659Z"/>
</svg>