<?xml version="1.0" encoding="UTF-8" standalone="no"?>
<svg xmlns="http://www.w3.org/2000/svg"
     width="994.140625" height="1028.2976683490929"
     viewBox="0 0 994.140625 1028.2976683490929"
     fill="currentColor">
  <path d="M-0.0017 534.6672C-0.0017 681.6372 42.4783 843.7472 114.2583 969.7272C125.4883 989.2572 145.5083 995.6072 166.0183 987.3072C187.9883 1022.4572 227.5383 1036.6172 273.4383 1023.4372C329.5883 1007.3272 355.9583 958.4972 339.3583 902.3472L269.5283 664.0672C253.4183 608.3972 205.5683 582.0272 148.9283 598.1472C122.0683 605.9572 102.5383 621.0972 90.3283 640.6272C85.4483 604.9772 83.0083 569.3372 83.0083 534.6672C83.0083 263.6672 248.5383 83.0072 497.0683 83.0072C745.1183 83.0072 911.1283 263.6672 911.1283 534.6672C911.1283 569.3372 908.6883 604.9772 903.3183 641.1172C891.5983 621.0972 871.5783 605.9572 844.7283 598.1472C788.0883 582.0272 740.7183 608.3972 724.1183 664.0672L654.2983 902.3472C637.6983 958.9872 664.0583 1007.3272 720.2183 1023.4372C766.1183 1036.6172 805.6683 1022.4572 827.6383 987.3072C848.1483 995.6072 868.6483 989.2572 879.3983 969.7272C951.1683 843.7472 994.1383 681.6372 994.1383 534.6672C994.1383 213.3772 795.8983 -0.0028 497.0683 -0.0028C197.7583 -0.0028 -0.0017 213.3772 -0.0017 534.6672Z"/>
</svg>