<?xml version="1.0" encoding="UTF-8" standalone="no"?>
<svg xmlns="http://www.w3.org/2000/svg"
     width="996.09375" height="996.09375"
     viewBox="0 0 996.09375 996.09375"
     fill="currentColor">
  <path d="M498.0477 996.0977C770.5077 996.0977 996.0977 770.5077 996.0977 498.0477C996.0977 226.0777 770.0177 -0.0023 497.5577 -0.0023C225.5877 -0.0023 -0.0023 226.0777 -0.0023 498.0477C-0.0023 770.5077 226.0777 996.0977 498.0477 996.0977ZM226.0777 497.5577C226.0777 322.7577 335.4477 205.0777 498.5377 205.0777C662.1077 205.0777 771.9777 323.2377 771.9777 497.5577C771.9777 590.8177 749.5077 662.5977 710.4477 731.4477C700.6877 747.5577 683.1077 753.9077 666.0177 747.5577C652.3477 762.2077 632.3277 767.0877 609.3777 760.2577C575.6877 751.4677 560.5477 723.1477 569.8277 689.9377L606.4477 564.4577C616.2077 530.7577 645.0177 514.6477 677.7377 524.4177C687.4977 527.3477 695.7977 531.7377 702.1477 537.1077C703.1277 524.4177 703.6177 511.2277 703.6177 497.5577C703.6177 363.2777 621.5777 273.4377 498.5377 273.4377C375.9777 273.4377 294.4377 362.7977 294.4377 497.5577C294.4377 511.2277 294.4377 523.9277 295.8977 536.1377C302.2477 531.2477 310.0577 527.3477 318.8477 524.4177C352.5377 514.6477 381.3477 530.7577 391.1177 564.4577L427.2477 689.4577C437.0077 722.6577 421.3877 751.4677 387.6977 760.2577C365.2377 767.5777 344.7277 762.2077 331.0577 747.5577C313.9677 753.9077 296.3877 747.5577 287.1077 731.4477C248.5377 664.5477 226.0777 592.2877 226.0777 497.5577Z"/>
</svg>