<?xml version="1.0" encoding="UTF-8" standalone="no"?>
<svg xmlns="http://www.w3.org/2000/svg"
     width="1272.4609375" height="850.0843190311922"
     viewBox="0 0 1272.4609375 850.0843190311922"
     fill="currentColor">
  <path d="M471.6783 406.2491C471.6783 498.0491 478.0283 587.3991 503.4183 677.2491C533.1983 776.8591 588.3783 812.4991 705.5683 812.4991H732.9083C1019.0383 812.4991 1272.4583 625.4891 1272.4583 406.2491C1272.4583 187.4991 1019.0383 -0.0009 732.9083 -0.0009H705.5683C588.8683 -0.0009 533.6883 35.6491 503.4183 135.2491C478.0283 225.5891 471.6783 314.9391 471.6783 406.2491ZM32.7183 250.4891C12.2083 255.8591 -0.0017 270.9991 -0.0017 290.5291C-0.0017 316.4091 20.5083 333.0091 49.3183 325.6791L395.9983 233.3991C401.3683 191.8991 405.7583 178.7091 410.6483 149.4091ZM32.7183 424.3191C12.2083 429.6891 -0.0017 445.3091 -0.0017 464.8391C-0.0017 490.7191 21.4883 507.3291 49.3183 499.9991L384.2783 410.1591C384.7683 381.8391 384.7683 361.8191 385.7383 330.0791ZM32.7183 598.6291C12.2083 603.9991 -0.0017 619.6291 -0.0017 638.6691C-0.0017 665.0391 20.5083 681.6391 49.3183 673.8291L395.0183 582.0291C391.1183 557.1291 388.6683 531.2491 386.7183 504.3991ZM32.7183 772.9491C12.2083 778.3191 -0.0017 793.4591 -0.0017 812.9891C-0.0017 839.3591 20.9983 855.9591 49.3183 848.1491L434.5683 745.1191C425.7783 723.6291 416.5083 693.8491 411.1283 671.8791Z"/>
</svg>