<?xml version="1.0" encoding="UTF-8" standalone="no"?>
<svg xmlns="http://www.w3.org/2000/svg"
     width="898.92578125" height="898.92578125"
     viewBox="0 0 898.92578125 898.92578125"
     fill="currentColor">
  <path d="M153.3183 898.9295H745.6083C848.1483 898.9295 898.9283 848.1495 898.9283 747.5595V151.3695C898.9283 50.7795 848.1483 -0.0005 745.6083 -0.0005H153.3183C51.2683 -0.0005 -0.0017 50.2895 -0.0017 151.3695V747.5595C-0.0017 848.6295 51.2683 898.9295 153.3183 898.9295ZM154.2983 820.3095C105.4683 820.3095 78.6183 794.4295 78.6183 743.6495V155.2695C78.6183 104.4895 105.4683 78.6095 154.2983 78.6095H744.6283C792.9683 78.6095 820.3083 104.4895 820.3083 155.2695V743.6495C820.3083 794.4295 792.9683 820.3095 744.6283 820.3095ZM245.6083 160.6395C205.5683 160.6395 175.7783 191.8895 175.7783 234.8595C175.7783 298.3395 244.1383 353.9995 292.4783 387.6995C297.3683 391.1095 302.2483 393.5595 305.1783 393.5595C308.5983 393.5595 312.4983 390.6295 316.8983 387.6995C366.2083 357.4195 433.1083 298.3395 433.1083 234.8595C433.1083 191.8895 403.3183 160.6395 362.3083 160.6395C337.3983 160.6395 316.4083 175.7795 304.6883 198.2395C292.4783 175.7795 272.4583 160.6395 245.6083 160.6395ZM206.5383 546.3895H687.4983C704.5883 546.3895 717.7783 533.1995 717.7783 516.1095C717.7783 499.5095 704.5883 486.3295 687.4983 486.3295H206.5383C188.9683 486.3295 175.7783 499.5095 175.7783 516.1095C175.7783 533.1995 188.9683 546.3895 206.5383 546.3895ZM206.5383 713.3795H559.0783C576.1683 713.3795 589.3583 700.1995 589.3583 683.5895C589.3583 666.4995 576.1683 653.3195 559.0783 653.3195H206.5383C188.9683 653.3195 175.7783 666.4995 175.7783 683.5895C175.7783 700.1995 188.9683 713.3795 206.5383 713.3795Z"/>
</svg>