<?xml version="1.0" encoding="UTF-8" standalone="no"?>
<svg xmlns="http://www.w3.org/2000/svg"
     width="996.09375" height="996.09375"
     viewBox="0 0 996.09375 996.09375"
     fill="currentColor">
  <path d="M498.0477 996.0959C770.5077 996.0959 996.0977 770.0159 996.0977 498.0459C996.0977 225.5859 770.0177 -0.0041 497.5577 -0.0041C225.5877 -0.0041 -0.0023 225.5859 -0.0023 498.0459C-0.0023 770.0159 226.0777 996.0959 498.0477 996.0959ZM376.9577 275.3859C431.1477 275.3859 472.6577 306.1559 498.0477 352.0459C522.9477 306.1559 565.4277 275.3859 619.1377 275.3859C704.0977 275.3859 766.1177 339.8459 766.1177 429.1959C766.1177 561.0359 625.4877 681.6359 522.9477 748.5359C515.1377 754.3959 505.3677 760.7459 499.0277 760.7459C492.6777 760.7459 481.4477 753.9059 472.6577 748.5359C369.6277 683.1059 229.9777 561.0359 229.9777 429.1959C229.9777 339.8459 291.5077 275.3859 376.9577 275.3859Z"/>
</svg>