<?xml version="1.0" encoding="UTF-8" standalone="no"?>
<svg xmlns="http://www.w3.org/2000/svg"
     width="1151.3671875" height="898.92578125"
     viewBox="0 0 1151.3671875 898.92578125"
     fill="currentColor">
  <path d="M153.3183 898.9278H998.0483C1100.5883 898.9278 1151.3683 848.6378 1151.3683 748.0478V151.3678C1151.3683 50.7778 1100.5883 -0.0022 998.0483 -0.0022H153.3183C51.2683 -0.0022 -0.0017 50.7778 -0.0017 151.3678V748.0478C-0.0017 848.6378 51.2683 898.9278 153.3183 898.9278ZM454.5883 227.0478C508.7883 227.0478 550.7783 257.8078 575.6883 303.7078C601.0783 257.8078 643.5583 227.0478 696.7783 227.0478C782.2283 227.0478 843.7483 291.5078 843.7483 380.8578C843.7483 512.6978 703.1283 633.2978 601.0783 700.1978C593.2583 706.0578 583.4983 712.3978 576.6583 712.3978C570.7983 712.3978 559.5683 705.5678 550.7783 700.1978C447.7583 634.7678 308.1083 512.6978 308.1083 380.8578C308.1083 291.5078 369.6283 227.0478 454.5883 227.0478Z"/>
</svg>