<?xml version="1.0" encoding="UTF-8" standalone="no"?>
<svg xmlns="http://www.w3.org/2000/svg"
     width="1015.0146484375" height="965.576171875"
     viewBox="0 0 1015.0146484375 965.576171875"
     fill="currentColor">
  <path d="M891.9664 944.5763C906.6164 959.7163 931.0264 959.7163 945.1864 944.5763C959.3464 929.9363 959.8364 906.4963 945.1864 891.3563L64.3264 10.9863C49.6864 -3.6637 25.2664 -3.6637 10.6164 10.9863C-3.5436 25.1463 -3.5436 50.0463 10.6164 64.2063ZM852.4164 718.5063C955.9364 604.7363 1015.0164 484.6163 1015.0164 364.0163C1015.0164 191.1663 896.3664 69.0963 738.1564 69.0963C647.8264 69.0963 574.5864 112.0563 530.1564 177.9763C486.6964 112.5463 412.4764 69.0963 322.1464 69.0963C286.4964 69.0963 252.8064 75.4363 222.0464 87.1563L287.4764 152.5863C297.7264 149.1663 309.4464 147.7063 321.1664 147.7063C412.9664 147.7063 465.6964 204.8363 496.9464 253.6663C510.1364 273.1963 518.4364 278.5663 530.1564 278.5663C541.8664 278.5663 549.1964 272.7063 563.3564 253.6663C597.0464 205.8063 647.8264 147.7063 739.1364 147.7063C852.4164 147.7063 936.4064 234.1263 936.4064 364.0163C936.4064 462.6463 879.7564 565.6763 794.7964 660.8863ZM712.7664 847.8963L656.6164 791.7463C619.9964 821.5363 579.9564 850.8263 540.4064 877.1963C535.5264 880.6163 532.1064 883.0563 530.1564 883.0563C528.1964 883.0563 524.7764 880.6163 520.3864 877.1963C315.7964 741.4563 123.9064 545.6563 123.9064 364.0163C123.9064 331.2963 130.2464 301.5163 141.4764 276.6063L80.9364 215.5763C57.9864 258.0563 45.2864 308.3463 45.2864 364.0163C45.2864 572.0263 219.6064 776.6063 494.9964 952.3963C505.2464 958.7363 519.8964 965.5763 530.1564 965.5763C540.4064 965.5763 555.0564 958.7363 565.7964 952.3963C618.0464 918.6963 667.8464 883.5463 712.7664 847.8963Z"/>
</svg>