<?xml version="1.0" encoding="UTF-8" standalone="no"?>
<svg xmlns="http://www.w3.org/2000/svg"
     width="898.92578125" height="898.92578125"
     viewBox="0 0 898.92578125 898.92578125"
     fill="currentColor">
  <path d="M153.3183 898.9295H745.6083C848.1483 898.9295 898.9283 848.1495 898.9283 747.5595V151.3695C898.9283 50.7795 848.1483 -0.0005 745.6083 -0.0005H153.3183C51.2683 -0.0005 -0.0017 50.2895 -0.0017 151.3695V747.5595C-0.0017 848.6295 51.2683 898.9295 153.3183 898.9295ZM328.6183 226.0695C382.8083 226.0695 424.3183 256.8395 449.7083 302.7295C475.0983 256.8395 517.0883 226.0695 570.7983 226.0695C655.7583 226.0695 717.7783 290.5295 717.7783 379.8795C717.7783 511.7195 577.1483 632.3195 474.6083 699.2195C466.7983 705.0795 457.5183 711.4295 450.6883 711.4295C444.3383 711.4295 433.1083 704.5895 424.3183 699.2195C321.2883 633.7895 181.6383 511.7195 181.6383 379.8795C181.6383 290.5295 243.1683 226.0695 328.6183 226.0695Z"/>
</svg>