<?xml version="1.0" encoding="UTF-8" standalone="no"?>
<svg xmlns="http://www.w3.org/2000/svg"
     width="898.92578125" height="898.92578125"
     viewBox="0 0 898.92578125 898.92578125"
     fill="currentColor">
  <path d="M153.3183 898.9295H745.6083C848.1483 898.9295 898.9283 848.1495 898.9283 747.5595V151.3695C898.9283 50.7795 848.1483 -0.0005 745.6083 -0.0005H153.3183C51.2683 -0.0005 -0.0017 50.2895 -0.0017 151.3695V747.5595C-0.0017 848.6295 51.2683 898.9295 153.3183 898.9295ZM154.2983 820.3095C105.4683 820.3095 78.6183 794.4295 78.6183 743.6495V155.2695C78.6183 104.4895 105.4683 78.6095 154.2983 78.6095H744.6283C792.9683 78.6095 820.3083 104.4895 820.3083 155.2695V743.6495C820.3083 794.4295 792.9683 820.3095 744.6283 820.3095ZM333.0083 233.3995C250.4883 233.3995 190.4283 295.8995 190.4283 382.3195C190.4283 510.7395 325.6883 628.9095 426.2683 692.3795C434.5683 697.2695 445.3083 704.0995 451.1683 704.0995C457.5183 704.0995 467.2883 697.7495 474.6083 692.3795C573.7283 627.4395 709.9583 510.7395 709.9583 382.3195C709.9583 295.8995 650.3883 233.3995 567.3783 233.3995C516.1183 233.3995 474.6083 263.1795 450.1983 307.6195C426.2683 263.1795 385.2583 233.3995 333.0083 233.3995Z"/>
</svg>