<?xml version="1.0" encoding="UTF-8" standalone="no"?>
<svg xmlns="http://www.w3.org/2000/svg"
     width="996.09375" height="996.09375"
     viewBox="0 0 996.09375 996.09375"
     fill="currentColor">
  <path d="M498.0477 996.0959C770.5077 996.0959 996.0977 770.0159 996.0977 498.0459C996.0977 225.5859 770.0177 -0.0041 497.5577 -0.0041C225.5877 -0.0041 -0.0023 225.5859 -0.0023 498.0459C-0.0023 770.0159 226.0777 996.0959 498.0477 996.0959ZM498.0477 913.0859C267.5777 913.0859 83.4977 728.5159 83.4977 498.0459C83.4977 267.5759 267.0877 83.0059 497.5577 83.0059C728.0277 83.0059 913.0877 267.5759 913.0877 498.0459C913.0877 728.5159 728.5177 913.0859 498.0477 913.0859ZM727.5377 759.2759C736.3277 767.5759 750.4877 767.5759 758.7877 759.2759C768.0677 750.4859 768.0677 736.8159 758.7877 728.0259L267.0877 235.8359C258.2977 227.0459 244.1377 227.0459 235.3477 235.8359C227.0477 244.6259 227.0477 258.7859 235.3477 267.0859ZM368.6477 284.1759L683.5977 599.6059C726.0777 548.8259 757.3277 492.1859 757.3277 431.6359C757.3277 345.2159 697.2677 282.7159 614.7477 282.7159C562.9877 282.7159 521.4877 312.4959 497.5577 356.9359C473.1477 312.4959 432.6177 282.7159 380.3677 282.7159C376.4677 282.7159 372.5577 283.2059 368.6477 284.1759ZM598.6377 682.6159L261.7177 346.1959C246.5777 369.6259 237.7977 398.9259 237.7977 431.6359C237.7977 560.0559 371.5777 680.1759 473.1477 741.6959C481.4477 746.5859 492.1877 753.4159 498.5377 753.4159C504.3977 753.4159 514.1577 747.0659 521.4877 741.6959C544.9177 725.0959 572.2677 705.0759 598.6377 682.6159Z"/>
</svg>