<?xml version="1.0" encoding="UTF-8" standalone="no"?>
<svg xmlns="http://www.w3.org/2000/svg"
     width="1415.9137702302585" height="747.4021285840727"
     viewBox="0 0 1415.9137702302585 747.4021285840727"
     fill="currentColor">
  <path d="M708.1552 667.9639C804.3452 667.9639 916.6552 697.2639 1000.1452 740.7239C1022.6152 752.9339 1047.5152 748.0439 1062.1652 729.0039L1394.6852 305.6639C1427.3952 263.6739 1422.0252 219.2339 1380.5252 186.5239C1244.2852 81.5439 983.0552 0.0039 708.1552 0.0039C433.2552 0.0039 172.0252 81.5439 35.3052 186.5239C-6.1948 219.2339 -11.5648 263.6739 21.6352 305.6639L354.1552 729.0039C368.8052 748.0439 393.2152 752.9339 415.6752 740.7239C499.1752 697.2639 611.9652 667.9639 708.1552 667.9639ZM733.0552 189.9439C721.8252 166.9939 693.9952 166.9939 683.2552 189.9439L584.1352 409.6639L502.5952 234.8639C490.8752 209.4739 457.6652 208.9839 444.9752 236.3239L392.7252 348.6339H155.9152L99.7552 277.3439C90.4852 265.1339 91.9452 253.4139 105.1252 244.6239C273.0952 138.6739 488.4352 78.6139 708.1552 78.6139C927.8852 78.6139 1143.2152 138.6739 1311.1852 244.6239C1324.3652 253.4139 1325.8352 265.1339 1316.0652 277.3439L1260.4052 348.6339H1023.0952L971.3452 236.3239C958.6452 208.9839 924.9552 209.4739 913.2352 234.8639L831.6952 409.6639ZM708.1552 589.3539C618.8052 589.3539 515.7752 612.7939 416.1652 653.8039C403.9552 658.6939 398.5852 657.7139 388.8252 645.5039L208.6452 415.5239H412.7452C428.3752 415.5239 436.1852 407.7139 442.0452 395.0239L473.7852 325.1939L559.2352 510.7439C569.4852 532.2239 598.2952 532.2239 609.0352 509.2739L708.1552 289.5539L807.2752 509.2739C818.0252 532.2239 846.8252 532.2239 856.5952 510.7439L942.0452 325.1939L974.2752 395.0239C980.1252 407.7139 987.4552 415.5239 1003.0752 415.5239H1207.6652L1027.4952 645.5039C1017.7252 657.7139 1012.3552 658.6939 1000.1452 653.8039C900.5352 612.7939 797.0252 589.3539 708.1552 589.3539Z"/>
</svg>