<?xml version="1.0" encoding="UTF-8" standalone="no"?>
<svg xmlns="http://www.w3.org/2000/svg"
     width="1152.7339150087544" height="1173.33984375"
     viewBox="0 0 1152.7339150087544 1173.33984375"
     fill="currentColor">
  <path d="M110.8383 1173.3448H413.5783C480.9583 1173.3448 524.4183 1130.3748 524.4183 1064.4548V108.8848C524.4183 42.9648 480.9583 0.0048 413.5783 0.0048H110.8383C43.4583 0.0048 -0.0017 42.9648 -0.0017 108.8848V1064.4548C-0.0017 1130.3748 43.4583 1173.3448 110.8383 1173.3448ZM112.3083 1094.7248C91.3083 1094.7248 78.6183 1081.5448 78.6183 1060.0548V113.2848C78.6183 91.7948 91.3083 78.6148 112.3083 78.6148H412.1083C433.1083 78.6148 445.7983 91.7948 445.7983 113.2848V1060.0548C445.7983 1081.5448 433.1083 1094.7248 412.1083 1094.7248ZM372.0683 387.2048C385.7383 387.2048 396.4883 375.9748 396.4883 362.3048V169.4348C396.4883 155.7648 385.7383 144.5348 372.0683 144.5348C357.9083 144.5348 347.1683 155.7648 347.1683 169.4348V362.3048C347.1683 375.9748 357.9083 387.2048 372.0683 387.2048ZM271.4883 387.2048C284.6683 387.2048 295.8983 375.9748 295.8983 362.3048V169.4348C295.8983 155.7648 284.6683 144.5348 271.4883 144.5348C257.3283 144.5348 246.0983 155.7648 246.0983 169.4348V362.3048C246.0983 375.9748 257.3283 387.2048 271.4883 387.2048ZM717.2883 527.8348C847.6583 527.8348 915.0383 421.8748 1028.8083 421.8748C1055.1783 421.8748 1077.6383 427.2448 1105.4683 442.8748C1123.0483 452.6348 1138.6683 445.8048 1146.4883 434.5748C1156.2483 420.4148 1155.2783 398.9248 1133.7883 386.7148C1101.5583 367.6748 1066.4083 358.3948 1028.8083 358.3948C896.4883 358.3948 829.0983 464.8448 717.2883 464.8448C690.9183 464.8448 668.4583 458.9848 640.1383 442.8748C623.5383 433.5948 607.4183 439.9448 599.1183 452.6348C590.3283 466.3048 591.3083 487.7948 611.8183 499.5148C644.0383 519.5348 679.6883 527.8348 717.2883 527.8348ZM372.0683 706.0548C385.7383 706.0548 396.4883 695.3148 396.4883 681.1548V488.2848C396.4883 474.6048 385.7383 463.8648 372.0683 463.8648C357.9083 463.8648 347.1683 474.6048 347.1683 488.2848V681.1548C347.1683 695.3148 357.9083 706.0548 372.0683 706.0548ZM271.4883 706.0548C284.6683 706.0548 295.8983 695.3148 295.8983 681.1548V488.2848C295.8983 474.6048 284.6683 463.8648 271.4883 463.8648C257.3283 463.8648 246.0983 474.6048 246.0983 488.2848V681.1548C246.0983 695.3148 257.3283 706.0548 271.4883 706.0548ZM717.7783 671.3848C847.6583 671.3848 915.5283 565.4248 1028.8083 565.4248C1055.6683 565.4248 1078.1283 570.8048 1105.9583 586.4248C1123.0483 596.1948 1139.1583 589.3548 1146.9683 578.1248C1156.2483 563.9648 1155.7583 542.4848 1134.7683 530.2748C1102.0483 511.2348 1066.4083 501.9548 1028.8083 501.9548C896.9683 501.9548 829.5883 608.3948 717.7783 608.3948C690.9183 608.3948 668.4583 602.5348 640.6283 586.9148C624.0283 577.1448 607.4183 583.4948 599.1183 596.1948C590.3283 609.8648 591.3083 631.3448 612.3083 643.0648C644.5283 663.0848 680.1783 671.3848 717.7783 671.3848ZM717.2883 814.9448C847.6583 814.9448 915.0383 708.9848 1028.8083 708.9848C1055.1783 708.9848 1077.6383 714.3548 1105.4683 730.4648C1123.0483 740.2348 1138.6683 732.9148 1146.4883 721.6748C1156.2483 707.5148 1155.2783 686.0348 1133.7883 673.8248C1101.5583 654.7848 1066.4083 645.5048 1028.8083 645.5048C896.4883 645.5048 829.0983 751.9548 717.2883 751.9548C690.9183 751.9548 668.4583 746.0948 640.1383 730.4648C623.5383 720.7048 607.4183 727.0548 599.1183 739.7448C590.3283 753.4148 591.3083 775.3948 611.8183 787.1048C644.0383 806.6448 679.6883 814.9448 717.2883 814.9448ZM372.0683 1025.8748C385.7383 1025.8748 396.4883 1014.6448 396.4883 1001.4648V808.5948C396.4883 794.4348 385.7383 783.6948 372.0683 783.6948C357.9083 783.6948 347.1683 794.4348 347.1683 808.5948V1001.4648C347.1683 1014.6448 357.9083 1025.8748 372.0683 1025.8748ZM271.4883 1025.8748C284.6683 1025.8748 295.8983 1014.6448 295.8983 1001.4648V808.5948C295.8983 794.4348 284.6683 783.6948 271.4883 783.6948C257.3283 783.6948 246.0983 794.4348 246.0983 808.5948V1001.4648C246.0983 1014.6448 257.3283 1025.8748 271.4883 1025.8748Z"/>
</svg>