<?xml version="1.0" encoding="UTF-8" standalone="no"?>
<svg xmlns="http://www.w3.org/2000/svg"
     width="1187.5" height="1187.5"
     viewBox="0 0 1187.5 1187.5"
     fill="currentColor">
  <path d="M223.6377 1013.6708L293.4577 943.8508C365.7277 1006.3508 458.0077 1046.8708 558.5977 1054.6908V1152.3408C558.5977 1171.8708 574.2177 1187.5008 593.7477 1187.5008C613.2777 1187.5008 628.4177 1171.8708 628.4177 1152.3408V1054.6908C729.4877 1046.8708 821.7777 1006.3508 894.0477 943.8508L963.8677 1013.6708C978.0277 1027.3408 999.9977 1027.8308 1013.6677 1013.6708C1027.8277 1000.0008 1027.3477 978.0308 1013.6677 963.8708L943.3577 894.0408C1005.8577 821.2908 1045.8977 729.4908 1053.2277 628.9108H1152.3477C1171.8777 628.9108 1187.4977 613.2808 1187.4977 593.7508C1187.4977 574.2208 1171.8777 559.0808 1152.3477 559.0808H1053.2277C1045.8977 458.0108 1005.8577 366.2108 943.3577 293.4608L1013.6677 223.6308C1027.3477 209.4708 1027.8277 187.5008 1013.6677 173.8308C999.9977 160.1608 978.0277 160.1608 963.8677 173.8308L894.0477 243.6508C821.7777 181.1508 729.4877 140.6208 628.4177 133.3008V35.1608C628.4177 15.6208 613.2777 0.0008 593.7477 0.0008C574.2177 0.0008 558.5977 15.6208 558.5977 35.1608V133.3008C458.0077 140.6208 365.7277 181.1508 293.4577 243.6508L223.6377 173.8308C209.4777 160.1608 187.4977 160.1608 173.8277 173.8308C159.6677 187.5008 160.1577 209.4708 173.8277 223.6308L244.1377 293.4608C181.6377 366.2108 141.5977 458.0108 134.2777 559.0808H35.1577C15.6277 559.0808 -0.0023 574.2208 -0.0023 593.7508C-0.0023 613.2808 15.6277 628.9108 35.1577 628.9108H134.2777C141.5977 729.4908 181.6377 821.2908 244.1377 894.0408L173.8277 963.8708C160.1577 978.0308 159.6677 1000.0008 173.8277 1013.6708C187.4977 1027.8308 209.4777 1027.3408 223.6377 1013.6708ZM628.4177 212.8908C708.4977 220.2108 780.7577 251.4608 837.8877 299.8008L628.4177 509.2808ZM349.6077 299.8008C406.7377 251.4608 479.0077 220.2108 558.5977 212.8908V509.2808ZM216.7977 559.0808C223.6377 479.4908 253.4177 407.7108 300.2977 350.1008L509.2777 559.0808ZM678.2277 559.0808L887.2077 350.1008C934.0777 407.7108 963.8677 479.4908 970.7077 559.0808ZM216.7977 628.9108H509.2777L300.2977 837.4008C253.4177 780.2708 223.6377 708.0108 216.7977 628.9108ZM678.2277 628.9108H970.7077C963.8677 708.0108 934.0777 780.2708 887.2077 837.4008ZM349.6077 887.6908L558.5977 678.2208V974.6108C479.0077 967.2808 406.7377 936.0308 349.6077 887.6908ZM628.4177 678.2208L837.8877 887.6908C780.7577 936.0308 708.4977 967.2808 628.4177 974.6108Z"/>
</svg>