<?xml version="1.0" encoding="UTF-8" standalone="no"?>
<svg xmlns="http://www.w3.org/2000/svg"
     width="990.72265625" height="1057.2516353345882"
     viewBox="0 0 990.72265625 1057.2516353345882"
     fill="currentColor">
  <path d="M69.8283 839.7787L409.1783 1032.1687C466.7983 1065.3687 522.9483 1065.8587 581.5383 1032.1687L920.8983 839.7787C966.3083 813.9087 990.7183 787.5387 990.7183 716.7387V336.8487C990.7183 268.0087 965.8183 243.0987 924.3183 219.1787L583.9883 25.8187C523.4383 -8.8513 465.8183 -8.3613 406.7383 25.8187L66.8983 219.1787C24.8983 243.0987 -0.0017 268.0087 -0.0017 336.8487V716.7387C-0.0017 787.5387 24.8983 813.9087 69.8283 839.7787ZM495.6083 83.9187C513.1883 83.9187 530.7583 89.2987 549.8083 100.0387L877.4383 288.0287C902.3483 302.1887 911.6183 316.3487 911.6183 340.7587V714.7787C911.6183 741.1487 902.3483 756.2887 874.9983 771.9087L549.8083 956.9687C530.2783 967.7087 512.6983 973.5687 495.6083 973.5687Z"/>
</svg>