<?xml version="1.0" encoding="UTF-8" standalone="no"?>
<svg xmlns="http://www.w3.org/2000/svg"
     width="990.72265625" height="1057.252265909762"
     viewBox="0 0 990.72265625 1057.252265909762"
     fill="currentColor">
  <path d="M69.8283 839.9627L409.1783 1032.3527C466.7983 1065.5527 522.9483 1065.5527 581.5383 1032.3527L920.8983 839.9627C966.3083 814.0927 990.7183 787.7227 990.7183 716.9227V337.0327C990.7183 268.1927 965.8183 243.2827 924.3183 219.3627L583.9883 26.0027C523.4383 -9.1573 465.8183 -8.1773 406.7383 26.0027L66.8983 219.3627C24.8983 243.2827 -0.0017 268.1927 -0.0017 337.0327V716.9227C-0.0017 787.7227 24.8983 814.0927 69.8283 839.9627ZM116.2083 772.0927C88.3783 756.4727 79.0983 741.3327 79.0983 714.4827V340.9427C79.0983 316.0427 88.8683 301.8827 113.2783 287.7227L441.4083 100.2227C478.0283 79.2227 511.7183 78.2527 549.8083 100.2227L877.4383 287.7227C902.3483 301.8827 911.6183 316.0427 911.6183 340.9427V714.4827C911.6183 741.3327 902.3483 756.4727 874.9983 772.0927L549.8083 956.6627C510.7383 979.1227 479.0083 978.1527 441.4083 956.6627Z"/>
</svg>