<?xml version="1.0" encoding="UTF-8" standalone="no"?>
<svg xmlns="http://www.w3.org/2000/svg"
     width="1185.546875" height="1139.16015625"
     viewBox="0 0 1185.546875 1139.16015625"
     fill="currentColor">
  <path d="M120.1183 891.1098H312.9883V767.0898C222.1683 756.3498 151.8583 680.1798 151.8583 585.9398C151.8583 483.3998 233.8883 401.8598 334.9583 402.3398H339.3583C379.8783 302.2498 470.2183 269.5298 593.7483 269.5298H669.9183V120.6098C669.9183 41.4998 628.9083 -0.0002 549.8083 -0.0002H120.1183C41.0183 -0.0002 -0.0017 41.4998 -0.0017 120.6098V770.0198C-0.0017 849.6098 41.0183 891.1098 120.1183 891.1098ZM334.9583 319.3398C281.2483 319.3398 237.3083 276.8598 237.3083 222.1698C237.3083 167.9698 280.7583 124.5098 334.9583 124.9998C389.1583 125.4898 432.1283 167.9698 432.6183 222.1698C433.1083 276.8598 388.6683 319.3398 334.9583 319.3398ZM334.9583 270.9998C362.7883 270.9998 383.7883 249.5098 383.7883 222.1698C383.7883 194.8198 362.3083 172.8498 334.9583 172.8498C307.1283 172.8498 286.1283 193.8498 286.1283 222.1698C286.1283 249.5098 307.1283 270.9998 334.9583 270.9998ZM595.2183 1139.1598H970.2183C1039.0583 1139.1598 1097.1683 1132.8098 1138.6683 1091.7998C1179.6883 1049.7998 1185.5483 992.6798 1185.5483 923.8298V551.7598C1185.5483 482.9098 1179.6883 425.2898 1138.6683 384.2798C1097.1683 343.2598 1039.0583 336.4298 970.2183 336.4298H593.7483C526.3683 336.4298 468.2583 343.2598 427.2483 384.2798C385.7383 425.7798 379.3983 482.9098 379.3983 550.7798V923.8298C379.3983 992.6798 385.7383 1050.2898 427.2483 1091.7998C468.2583 1132.8098 526.3683 1139.1598 595.2183 1139.1598ZM257.3283 585.4498C257.3283 620.6098 280.7583 650.3898 312.9883 659.1798V550.7798C312.9883 536.1298 313.4783 522.4598 314.4483 509.7698C281.2483 518.5498 257.3283 548.3398 257.3283 585.4498ZM596.1883 646.9698C594.7283 616.2098 620.6083 585.9398 653.8083 583.9798C656.2483 614.2598 629.8783 650.8798 596.1883 646.9698ZM824.7083 604.4898V654.2998H864.7483V687.0098H824.7083V802.7298C824.7083 821.7798 833.0083 829.5898 849.6083 829.5898C854.0083 829.5898 861.8183 829.5898 864.2583 828.1298V863.2798C860.3483 863.7698 849.6083 864.7498 840.8183 864.7498C797.8483 864.7498 781.2483 849.6098 781.2483 808.1098V687.0098H751.9483V654.2998H781.2483V604.4898ZM710.9383 791.0198C704.5883 812.4998 690.4283 837.3998 672.3683 855.9598C666.5083 860.8398 658.6883 864.7498 648.4383 864.7498C638.6683 864.7498 633.2983 861.3298 624.5083 858.3998C619.1383 856.9298 611.8183 853.0298 603.0283 853.0298C582.5183 853.0298 573.2383 865.2298 556.1483 865.2298C544.4383 865.2298 535.6483 858.3998 522.9483 844.2398C498.5383 817.8698 482.9083 775.8798 482.9083 739.2598C482.9083 716.7998 488.7683 696.2898 502.9283 678.7098C514.6483 663.5698 532.7183 654.7898 554.6883 654.7898C574.7083 654.7898 586.9183 666.9898 597.6583 666.9898C610.3483 666.9898 624.5083 654.2998 650.8783 654.2998C672.8483 654.2998 692.3783 663.0898 704.0983 681.1498C687.9883 690.4298 682.1283 702.1498 678.7083 711.9098C673.3383 725.5898 672.3683 742.1898 678.7083 758.7898C685.0583 773.9298 694.8283 784.1798 710.9383 791.0198ZM1006.3483 863.2798H960.9383L884.2783 654.2998H929.1983L983.3983 821.7798L1034.6683 654.2998H1081.5383Z"/>
</svg>