<?xml version="1.0" encoding="UTF-8" standalone="no"?>
<svg xmlns="http://www.w3.org/2000/svg"
     width="748.53515625" height="1010.7421875"
     viewBox="0 0 748.53515625 1010.7421875"
     fill="currentColor">
  <path d="M-0.0017 138.6702V872.0702C-0.0017 964.3602 45.8983 1010.7402 137.2083 1010.7402H611.8183C703.1283 1010.7402 748.5383 964.3602 748.5383 872.0702V138.6702C748.5383 46.3902 703.1283 0.0002 611.8183 0.0002H137.2083C45.8983 0.0002 -0.0017 46.3902 -0.0017 138.6702ZM374.5083 369.6302C311.0383 369.6302 260.2583 318.8502 260.2583 255.3702C260.2583 191.4102 311.0383 141.1102 374.5083 141.6002C437.4983 142.0902 488.2783 191.8902 488.7683 255.3702C489.7483 318.8502 437.4983 369.6302 374.5083 369.6302ZM374.5083 313.4802C406.7383 313.4802 432.6183 287.1102 432.6183 255.3702C432.6183 223.1402 406.2483 197.2702 374.5083 197.2702C341.7983 197.2702 316.4083 221.6802 316.4083 255.3702C316.4083 287.1102 341.7983 313.4802 374.5083 313.4802ZM374.5083 869.1402C260.7383 869.1402 168.9483 778.3202 168.9483 664.0602C168.9483 549.3202 260.7383 458.0102 374.5083 458.5002C488.2783 458.9802 580.0783 549.3202 580.0783 664.0602C580.0783 778.3202 488.2783 869.1402 374.5083 869.1402ZM374.5083 750.9802C423.3383 750.9802 461.4283 711.9102 461.4283 664.0602C461.4283 614.2602 423.3383 576.1702 374.5083 576.1702C325.1983 576.1702 287.5983 614.2602 287.5983 664.0602C287.5983 711.9102 326.6583 750.9802 374.5083 750.9802Z"/>
</svg>