<?xml version="1.0" encoding="UTF-8" standalone="no"?>
<svg xmlns="http://www.w3.org/2000/svg"
     width="1185.546875" height="1139.16015625"
     viewBox="0 0 1185.546875 1139.16015625"
     fill="currentColor">
  <path d="M121.0983 891.1098H312.9883V817.3798H124.5083C92.2883 817.3798 73.7283 799.7998 73.7283 767.0898V124.0198C73.7283 91.3098 92.2883 73.7298 124.5083 73.7298H545.8983C578.6183 73.7298 597.1683 91.3098 597.1683 124.0198V270.0198C604.4883 269.5298 612.3083 269.5298 620.1183 269.5298H670.8983V122.0698C670.8983 41.9898 628.9083 -0.0002 549.3183 -0.0002H121.0983C41.9883 -0.0002 -0.0017 41.9898 -0.0017 122.0698V768.5498C-0.0017 849.1198 41.9883 891.1098 121.0983 891.1098ZM335.4483 338.3798C391.1183 338.3798 436.0383 293.9498 435.0583 238.7698C434.5683 183.5898 391.1183 139.6498 335.4483 139.1598C279.7883 138.6698 235.3483 183.5898 235.3483 238.7698C235.3483 294.4298 279.7883 338.3798 335.4483 338.3798ZM335.4483 286.1298C309.0783 286.1298 288.0883 264.6498 288.0883 238.7698C288.0883 211.9098 308.5983 190.9198 335.4483 190.9198C361.3283 190.9198 382.8083 212.8898 382.8083 238.7698C382.8083 264.6498 361.8183 286.1298 335.4483 286.1298ZM595.2183 1139.1598H970.2183C1039.0583 1139.1598 1097.1683 1132.8098 1138.6683 1091.7998C1179.6883 1049.7998 1185.5483 992.6798 1185.5483 923.8298V551.7598C1185.5483 482.9098 1179.6883 425.2898 1138.6683 384.2798C1097.1683 343.2598 1039.0583 336.4298 970.2183 336.4298H593.7483C526.3683 336.4298 468.2583 343.2598 427.2483 384.2798C385.7383 425.7798 379.3983 482.9098 379.3983 550.7798V923.8298C379.3983 992.6798 385.7383 1050.2898 427.2483 1091.7998C468.2583 1132.8098 526.3683 1139.1598 595.2183 1139.1598ZM156.7383 576.1698C156.7383 667.9698 224.1183 742.6798 312.9883 753.4198V645.5098C283.6883 636.2298 262.2083 608.3998 262.2083 576.1698C262.2083 542.4798 284.1783 514.1598 314.4483 506.3498C318.3583 461.4298 326.1683 427.7298 340.3283 397.4598H335.4483C235.8383 396.9698 156.7383 476.5598 156.7383 576.1698ZM596.1883 646.9698C594.7283 616.2098 620.6083 585.9398 653.8083 583.9798C656.2483 614.2598 629.8783 650.8798 596.1883 646.9698ZM824.7083 604.4898V654.2998H864.7483V687.0098H824.7083V802.7298C824.7083 821.7798 833.0083 829.5898 849.6083 829.5898C854.0083 829.5898 861.8183 829.5898 864.2583 828.1298V863.2798C860.3483 863.7698 849.6083 864.7498 840.8183 864.7498C797.8483 864.7498 781.2483 849.6098 781.2483 808.1098V687.0098H751.9483V654.2998H781.2483V604.4898ZM710.9383 791.0198C704.5883 812.4998 690.4283 837.3998 672.3683 855.9598C666.5083 860.8398 658.6883 864.7498 648.4383 864.7498C638.6683 864.7498 633.2983 861.3298 624.5083 858.3998C619.1383 856.9298 611.8183 853.0298 603.0283 853.0298C582.5183 853.0298 573.2383 865.2298 556.1483 865.2298C544.4383 865.2298 535.6483 858.3998 522.9483 844.2398C498.5383 817.8698 482.9083 775.8798 482.9083 739.2598C482.9083 716.7998 488.7683 696.2898 502.9283 678.7098C514.6483 663.5698 532.7183 654.7898 554.6883 654.7898C574.7083 654.7898 586.9183 666.9898 597.6583 666.9898C610.3483 666.9898 624.5083 654.2998 650.8783 654.2998C672.8483 654.2998 692.3783 663.0898 704.0983 681.1498C687.9883 690.4298 682.1283 702.1498 678.7083 711.9098C673.3383 725.5898 672.3683 742.1898 678.7083 758.7898C685.0583 773.9298 694.8283 784.1798 710.9383 791.0198ZM1006.3483 863.2798H960.9383L884.2783 654.2998H929.1983L983.3983 821.7798L1034.6683 654.2998H1081.5383Z"/>
</svg>