<?xml version="1.0" encoding="UTF-8" standalone="no"?>
<svg xmlns="http://www.w3.org/2000/svg"
     width="1111.328125" height="1124.0234375"
     viewBox="0 0 1111.328125 1124.0234375"
     fill="currentColor">
  <path d="M109.8683 815.4308H331.0583V709.9608C324.7083 710.9408 319.8283 711.4208 311.5283 711.4208C220.6983 711.4208 145.5083 637.6908 145.5083 545.4108C145.5083 454.1008 220.2183 379.3908 311.5283 379.3908C319.8283 379.3908 325.1983 380.3708 331.0583 380.8608V300.2908C325.6883 301.2708 319.8283 301.7608 311.5283 301.7608C261.7183 301.7608 222.1683 262.2108 222.1683 212.4008C222.1683 161.1308 263.1883 123.5308 311.5283 124.0208C339.3583 124.5108 363.7683 136.2308 378.4183 153.8108C409.6683 120.1208 456.5383 95.2108 528.3183 95.2108H603.0283C603.0283 92.7708 602.5383 88.3808 602.0483 84.4708C594.2383 29.3008 557.6183 0.0008 494.6283 0.0008H109.8683C37.5983 0.0008 -0.0017 37.6008 -0.0017 109.8608V704.5908C-0.0017 777.8308 37.5983 815.4308 109.8683 815.4308ZM397.9483 293.9408V992.1908C397.9483 1080.0808 441.8983 1124.0208 528.3183 1124.0208H980.4683C1067.8683 1124.0208 1111.3283 1080.0808 1111.3283 992.1908V293.9408C1111.3283 205.5708 1067.8683 161.6208 980.4683 161.6208H528.3183C441.4083 161.6208 397.9483 205.5708 397.9483 293.9408ZM265.6283 212.4008C265.6283 238.7708 285.6483 258.7908 311.5283 258.7908C322.7583 258.7908 332.5183 254.3908 335.4483 251.4608C337.8883 229.0008 341.3083 214.8408 352.5383 194.3408C347.1683 178.2208 332.5183 166.0108 311.5283 166.0108C286.1283 166.0108 265.6283 184.5708 265.6283 212.4008ZM754.3983 513.6708C694.3383 513.6708 645.5083 465.8208 645.5083 404.7808C645.5083 344.2408 694.3383 296.3908 754.3983 296.3908C814.9383 296.8708 862.7883 344.2408 863.2783 404.7808C864.2583 465.3308 814.9383 513.6708 754.3983 513.6708ZM754.3983 460.4508C785.6483 460.4508 810.0583 435.0608 810.0583 404.7808C810.0583 374.0208 784.6683 349.6108 754.3983 349.6108C723.1483 349.6108 699.2183 373.0508 699.2183 404.7808C699.2183 435.0608 723.6283 460.4508 754.3983 460.4508ZM240.7183 545.4108C240.7183 584.4708 271.9683 616.7008 311.5283 616.7008C319.8283 616.7008 327.6383 615.2308 331.0583 614.2608V477.0508C327.6383 476.0708 320.3083 474.6108 312.4983 474.6108C272.4583 474.6108 240.7183 505.8608 240.7183 545.4108ZM754.3983 989.2608C646.4883 989.2608 559.0783 902.8308 559.0783 793.9408C559.0783 684.5708 646.4883 597.6608 754.3983 598.1408C862.7883 598.6308 950.1983 684.5708 950.1983 793.9408C950.1983 902.8308 862.7883 989.2608 754.3983 989.2608ZM754.3983 876.9508C801.7583 876.9508 837.3983 839.8408 837.3983 793.9408C837.3983 746.5808 801.7583 710.4508 754.3983 710.4508C708.0083 710.4508 671.3883 746.5808 671.3883 793.9408C671.3883 839.8408 708.9883 876.9508 754.3983 876.9508Z"/>
</svg>