<?xml version="1.0" encoding="UTF-8" standalone="no"?>
<svg xmlns="http://www.w3.org/2000/svg"
     width="1183.59375" height="1139.16015625"
     viewBox="0 0 1183.59375 1139.16015625"
     fill="currentColor">
  <path d="M112.7883 854.9764H333.0083V746.0964C327.1483 746.5864 321.7783 746.5864 315.9183 746.5864C214.3583 746.5864 131.8383 664.5464 131.8383 562.4964C131.8383 460.4464 214.3583 379.8864 315.9183 378.9064C322.7583 378.9064 328.6183 379.8864 335.9383 380.3664C338.8683 354.0064 343.7483 329.1064 350.0983 306.1564C339.8483 310.0564 328.6183 312.0164 316.4083 312.0164C257.8083 312.0164 209.4683 265.6264 209.9583 206.5464C210.4483 147.9464 257.8083 100.5864 316.4083 100.5864C362.3083 100.5864 400.8783 130.8564 413.5783 171.3864C414.0583 174.3164 414.5483 177.7364 414.5483 180.6664C461.4283 129.3964 528.3183 93.2664 624.0283 74.7064V67.3864C611.3283 22.4564 576.1683 -0.0036 519.0383 -0.0036H112.7883C37.5983 -0.0036 -0.0017 38.0864 -0.0017 113.7664V740.7264C-0.0017 817.3864 38.0883 854.9764 112.7883 854.9764ZM790.5283 261.7164C916.0183 261.7164 1016.5983 234.3764 1016.5983 199.2164C1016.5983 163.0864 916.0183 136.2264 790.5283 136.2264C665.5283 136.2264 564.9383 163.0864 564.9383 199.2164C564.9383 234.3764 665.5283 261.7164 790.5283 261.7164ZM315.9183 261.2264C346.1883 261.2264 370.6083 236.8164 370.6083 206.5464C370.6083 176.2664 346.6783 152.3464 315.9183 152.3464C286.1283 152.3464 261.2283 176.2664 261.2283 206.5464C261.2283 236.8164 285.6483 261.2264 315.9183 261.2264ZM790.5283 1139.1564C1060.0583 1139.1564 1183.5983 1043.4564 1183.5983 825.6864V454.1064C1183.5983 362.3064 1161.6183 300.2964 1126.9483 256.3464C1115.2383 241.6964 1096.6783 240.7264 1082.0283 252.4364C1035.1583 293.4564 913.0883 328.6164 790.5283 328.6164C668.4583 328.6164 546.3883 293.4564 499.5083 252.4364C484.8683 240.7264 466.3083 241.6964 454.5883 256.3464C419.9183 300.2964 397.9483 362.3064 397.9483 454.1064V825.6864C397.9483 1043.4564 521.4883 1139.1564 790.5283 1139.1564ZM315.9183 640.6264C321.7783 640.6264 327.6383 639.6464 333.0083 638.6764V486.3264C327.6383 485.3564 321.7783 484.8664 315.9183 484.8664C272.9483 484.8664 238.2783 518.5564 238.2783 562.4964C238.2783 605.9564 272.9483 640.6264 315.9183 640.6264Z"/>
</svg>