<?xml version="1.0" encoding="UTF-8" standalone="no"?>
<svg xmlns="http://www.w3.org/2000/svg"
     width="1456.54296875" height="650.390625"
     viewBox="0 0 1456.54296875 650.390625"
     fill="currentColor">
  <path d="M361.8183 610.3544V568.8444H1094.7283V610.3544C1094.7283 634.2744 1110.3483 650.3944 1134.7683 650.3944H1307.6183C1332.0283 650.3944 1348.1483 634.2744 1348.1483 610.3544V564.9444C1419.4383 552.2444 1456.5383 502.9344 1456.5383 419.9244V148.9244C1456.5383 50.7844 1405.2783 0.0044 1305.1783 0.0044H150.8783C51.7583 0.0044 -0.0017 50.7844 -0.0017 148.9244V419.9244C-0.0017 502.9344 37.1083 551.7544 108.3983 564.9444V610.3544C108.3983 634.2744 124.5083 650.3944 148.4383 650.3944H321.7783C346.1883 650.3944 361.8183 634.2744 361.8183 610.3544ZM276.8583 393.0644C215.8183 393.0644 166.9883 344.2344 166.9883 283.6944C166.9883 222.6544 215.8183 173.8244 276.8583 173.8244C336.9183 173.8244 385.7383 222.6544 385.7383 283.6944C385.7383 344.2344 336.9183 393.0644 276.8583 393.0644ZM1179.6883 393.0644C1119.6283 393.0644 1070.7983 344.2344 1070.7983 283.6944C1070.7983 222.6544 1119.6283 173.8244 1179.6883 173.8244C1240.2383 173.8244 1289.0583 222.6544 1289.0583 283.6944C1289.0583 344.2344 1240.2383 393.0644 1179.6883 393.0644ZM526.3683 393.5544C501.4683 393.5544 484.8683 377.4444 484.8683 352.5344V216.7944C484.8683 191.8944 501.4683 175.2944 526.3683 175.2944H929.6883C955.0783 175.2944 971.1883 191.8944 971.1883 216.7944V352.5344C971.1883 377.4444 955.0783 393.5544 929.6883 393.5544Z"/>
</svg>