<?xml version="1.0" encoding="UTF-8" standalone="no"?>
<svg xmlns="http://www.w3.org/2000/svg"
     width="748.53515625" height="1010.7421875"
     viewBox="0 0 748.53515625 1010.7421875"
     fill="currentColor">
  <path d="M-0.0017 138.6702V872.0702C-0.0017 964.3602 45.8983 1010.7402 137.2083 1010.7402H611.8183C703.1283 1010.7402 748.5383 964.3602 748.5383 872.0702V138.6702C748.5383 46.3902 703.1283 0.0002 611.8183 0.0002H137.2083C45.8983 0.0002 -0.0017 46.3902 -0.0017 138.6702ZM78.6183 139.6502C78.6183 99.6102 99.6083 78.6102 140.1383 78.6102H608.8883C649.4183 78.6102 669.9183 99.6102 669.9183 139.6502V871.0902C669.9183 910.6402 648.9283 932.1302 608.8883 932.1302H140.1383C99.6083 932.1302 78.6183 910.6402 78.6183 871.0902ZM374.5083 378.4202C435.5483 378.4202 486.3283 329.1002 485.3483 267.5802C484.8683 206.0502 435.5483 157.7102 374.5083 157.2302C312.9883 156.7402 263.6683 205.5702 263.6683 267.5802C263.6683 329.1002 312.9883 378.4202 374.5083 378.4202ZM374.5083 324.2202C342.7783 324.2202 317.8683 298.3402 317.8683 267.5802C317.8683 234.8602 342.7783 210.9402 374.5083 210.9402C405.2783 210.9402 431.1483 236.3302 431.1483 267.5802C431.1483 298.3402 405.7583 324.2202 374.5083 324.2202ZM374.5083 853.5202C484.8683 853.5202 573.7283 765.1402 573.7283 654.3002C573.7283 543.4602 484.8683 455.5702 374.5083 455.0802C264.1583 454.5902 175.2883 543.4602 175.2883 654.3002C175.2883 765.1402 264.1583 853.5202 374.5083 853.5202ZM374.5083 738.7702C328.1283 738.7702 290.0383 701.1702 290.0383 654.3002C290.0383 605.9602 326.6583 569.3402 374.5083 569.3402C421.8783 569.3402 458.9883 605.9602 458.9883 654.3002C458.9883 701.1702 421.8783 738.7702 374.5083 738.7702Z"/>
</svg>