<?xml version="1.0" encoding="UTF-8" standalone="no"?>
<svg xmlns="http://www.w3.org/2000/svg"
     width="1280.76171875" height="1114.2578125"
     viewBox="0 0 1280.76171875 1114.2578125"
     fill="currentColor">
  <path d="M136.7183 854.0064H350.5883C342.7783 829.5864 337.3983 804.6864 333.4983 779.7864H140.6283C97.6583 779.7864 74.2183 755.8564 74.2183 714.3564V139.6464C74.2183 98.1464 97.6583 74.2164 140.6283 74.2164H531.7383C575.1983 74.2164 598.6283 98.1464 598.6283 139.6464V277.3464C621.0983 268.5564 645.9983 261.7164 672.8483 256.3464V138.1864C672.8483 47.3664 626.4683 -0.0036 536.1283 -0.0036H136.7183C46.3883 -0.0036 -0.0017 47.3664 -0.0017 138.1864V715.8164C-0.0017 807.1264 46.3883 854.0064 136.7183 854.0064ZM336.4283 327.6364C390.6283 327.6364 435.5483 283.2064 435.5483 228.5164C435.5483 174.3164 391.1183 129.8864 336.4283 129.8864C281.7383 129.8864 237.3083 174.3164 237.3083 228.5164C237.3083 283.2064 282.2283 327.6364 336.4283 327.6364ZM336.4283 278.8064C308.5983 278.8064 286.1283 256.3464 286.1283 228.5164C286.1283 201.1764 308.5983 178.7064 336.4283 178.7064C364.2583 178.7064 386.7183 201.1764 386.7183 228.5164C386.7183 256.3464 364.2583 278.8064 336.4283 278.8064ZM837.3983 422.3664C959.4683 422.3664 1045.8983 397.9464 1045.8983 365.7264C1045.8983 333.0064 959.4683 309.0864 837.3983 309.0864C714.8483 309.0864 628.4183 333.0064 628.4183 365.7264C628.4183 397.9464 714.8483 422.3664 837.3983 422.3664ZM156.7383 546.8764C156.7383 643.5564 231.9383 722.1664 327.6383 727.0464C325.6883 700.1964 328.1283 650.8764 332.5183 622.0664C291.9883 620.1164 260.2583 587.4064 260.2583 546.3864C260.2583 503.9064 294.4383 469.7264 336.9183 469.7264C351.0783 469.7264 364.7483 473.1464 375.4883 480.4664C390.6283 448.7264 408.6883 419.4364 430.1783 392.0864C402.3483 375.9764 371.0983 366.2064 336.9183 366.2064C236.8183 366.2064 156.7383 446.7764 156.7383 546.8764ZM837.3983 1114.2564C1001.9483 1114.2564 1070.3083 1092.7764 1135.2583 1032.2264C1227.0483 948.7264 1280.7583 826.6564 1280.7583 698.2464C1280.7583 594.2364 1245.6083 495.1164 1181.6383 422.8564C1162.1083 398.4364 1129.3983 393.5564 1101.5583 410.1564C1047.8483 450.1964 979.9783 478.0264 837.3983 478.0264C694.8283 478.0264 626.9483 450.1964 572.7583 410.1564C544.9183 393.5564 512.6983 397.9464 493.1683 422.8564C429.1983 495.1164 393.5583 593.7464 393.5583 698.2464C393.5583 826.6564 447.2683 948.7264 539.0583 1032.2264C604.0083 1092.7764 672.8483 1114.2564 837.3983 1114.2564ZM837.3983 1030.7664C698.7283 1030.7664 645.0183 1017.5764 596.1883 970.7064C520.0183 901.3664 477.5383 803.2264 477.5383 698.2464C477.5383 626.4664 498.0483 556.1564 540.5283 496.0964C607.9083 538.5764 707.0283 561.5264 837.3983 561.5264C967.7783 561.5264 1066.8983 538.5764 1134.2783 496.0964C1177.2483 555.6664 1197.2683 625.9764 1197.2683 698.2464C1197.2683 803.2264 1154.2983 901.3664 1078.6183 970.7064C1028.8083 1017.5764 976.0783 1030.7664 837.3983 1030.7664Z"/>
</svg>