<?xml version="1.0" encoding="UTF-8" standalone="no"?>
<svg xmlns="http://www.w3.org/2000/svg"
     width="996.09375" height="996.09375"
     viewBox="0 0 996.09375 996.09375"
     fill="currentColor">
  <path d="M498.0477 996.0959C770.5077 996.0959 996.0977 770.0159 996.0977 498.0459C996.0977 225.5859 770.0177 -0.0041 497.5577 -0.0041C225.5877 -0.0041 -0.0023 225.5859 -0.0023 498.0459C-0.0023 770.0159 226.0777 996.0959 498.0477 996.0959ZM498.0477 913.0859C267.5777 913.0859 83.4977 728.5159 83.4977 498.0459C83.4977 267.5759 267.0877 83.0059 497.5577 83.0059C728.0277 83.0059 913.0877 267.5759 913.0877 498.0459C913.0877 728.5159 728.5177 913.0859 498.0477 913.0859ZM498.0477 535.6459C645.0177 535.6459 760.2577 482.4259 760.2577 415.0359C760.2577 349.6059 645.0177 297.8559 498.0477 297.8559C351.0777 297.8559 235.8377 349.6059 235.8377 415.0359C235.8377 482.4259 351.0777 535.6459 498.0477 535.6459ZM498.0477 697.7559C645.9977 697.7559 760.2577 631.3459 760.2577 550.2959V491.2059C709.9577 541.0159 608.3977 570.3159 498.0477 570.3159C388.1877 570.3159 286.6177 541.0159 235.8377 491.2059V550.2959C235.8377 631.3459 349.6077 697.7559 498.0477 697.7559Z"/>
</svg>