<?xml version="1.0" encoding="UTF-8" standalone="no"?>
<svg xmlns="http://www.w3.org/2000/svg"
     width="1003.90625" height="767.578125"
     viewBox="0 0 1003.90625 767.578125"
     fill="currentColor">
  <path d="M501.4677 767.5781C785.1577 767.5781 1003.9077 640.6281 1003.9077 484.8681V228.5181C1003.9077 227.0481 1003.9077 225.5881 1003.9077 224.1181C1003.9077 99.1181 783.2077 -0.0019 501.4677 -0.0019C220.2177 -0.0019 -0.0023 99.1181 -0.0023 224.1181C-0.0023 225.5881 -0.0023 227.5381 -0.0023 228.5181V484.8681C-0.0023 640.6281 218.2577 767.5781 501.4677 767.5781ZM501.4677 376.4681C263.1877 376.4681 78.1277 309.5681 78.1277 224.1181C78.1277 142.0881 263.1877 78.6181 501.4677 78.6181C740.2377 78.6181 925.2977 142.0881 925.2977 224.1181C925.2977 309.5681 740.2377 376.4681 501.4677 376.4681ZM501.4677 455.0781C681.6377 455.0781 836.9177 413.5781 925.2977 349.6081V484.8681C925.2977 597.6581 762.6977 688.9681 501.4677 688.9681C240.7277 688.9681 78.1277 597.6581 78.1277 484.8681V349.6081C166.5077 413.5781 321.2877 455.0781 501.4677 455.0781Z"/>
</svg>