<?xml version="1.0" encoding="UTF-8" standalone="no"?>
<svg xmlns="http://www.w3.org/2000/svg"
     width="1280.76171875" height="1151.85546875"
     viewBox="0 0 1280.76171875 1151.85546875"
     fill="currentColor">
  <path d="M392.5783 125.4844C518.0683 125.4844 618.6483 98.1444 618.6483 62.5044C618.6483 26.8544 518.0683 0.0044 392.5783 0.0044C267.5783 0.0044 166.9883 26.8544 166.9883 62.5044C166.9883 98.1444 267.5783 125.4844 392.5783 125.4844ZM-0.0017 688.9644C-0.0017 925.2944 145.0183 1002.9344 399.8983 1002.9344C385.2583 977.5344 373.5383 950.6844 363.7683 923.8244C159.6683 916.9944 78.6183 840.8244 78.6183 681.6444V322.2644C78.6183 279.2944 85.9383 239.2544 104.0083 204.5944C162.1083 250.0044 271.9683 270.5044 392.5783 270.5044C513.6683 270.5044 623.5383 250.0044 681.1483 204.5944C695.3083 224.6044 705.5683 261.2344 705.5683 288.5744V289.0644C730.4683 285.1544 756.8383 282.7144 784.1783 281.2544C779.7883 208.9844 758.2983 157.7144 729.0083 120.1144C717.2883 104.9844 698.2383 104.0044 684.0783 116.2144C637.2083 157.2244 514.6483 191.8944 392.5783 191.8944C270.5083 191.8944 147.9483 157.2244 101.5583 116.2144C86.9183 104.0044 68.3583 104.9844 56.6383 120.1144C21.9683 163.5744 -0.0017 226.0744 -0.0017 317.8744ZM837.3983 460.4444C959.4683 460.4444 1045.8983 435.5444 1045.8983 403.8044C1045.8983 371.0944 959.4683 346.6844 837.3983 346.6844C714.8483 346.6844 628.4183 371.0944 628.4183 403.8044C628.4183 435.5444 714.8483 460.4444 837.3983 460.4444ZM837.3983 1151.8544C1001.9483 1151.8544 1070.3083 1130.3744 1135.2583 1069.8244C1227.0483 986.3244 1280.7583 864.7444 1280.7583 736.3244C1280.7583 632.3244 1245.6083 532.7144 1181.6383 460.4444C1162.1083 436.5244 1129.3983 431.1544 1101.5583 448.2444C1047.8483 487.7944 979.9783 515.6244 837.3983 515.6244C694.8283 515.6244 626.9483 487.7944 572.7583 448.2444C544.9183 431.1544 512.6983 436.0344 493.1683 460.4444C429.1983 532.7144 393.5583 631.8344 393.5583 736.3244C393.5583 864.7444 447.2683 986.3244 539.0583 1069.8244C604.0083 1130.3744 672.8483 1151.8544 837.3983 1151.8544ZM837.3983 1068.3644C698.7283 1068.3644 645.0183 1055.1744 596.1883 1008.7844C520.0183 938.9644 477.5383 840.8244 477.5383 736.3244C477.5383 664.5544 498.0483 594.2344 540.5283 533.6944C607.9083 576.1744 707.0283 599.1244 837.3983 599.1244C967.7783 599.1244 1066.8983 576.1744 1134.2783 533.6944C1177.2483 593.7544 1197.2683 664.0644 1197.2683 736.3244C1197.2683 840.8244 1154.2983 938.9644 1078.6183 1008.7844C1028.8083 1055.1744 976.0783 1068.3644 837.3983 1068.3644Z"/>
</svg>