<?xml version="1.0" encoding="UTF-8" standalone="no"?>
<svg xmlns="http://www.w3.org/2000/svg"
     width="1274.90234375" height="1148.4375"
     viewBox="0 0 1274.90234375 1148.4375"
     fill="currentColor">
  <path d="M392.5783 125.4844C518.0683 125.4844 618.6483 98.1444 618.6483 62.5044C618.6483 26.8544 518.0683 0.0044 392.5783 0.0044C267.5783 0.0044 166.9883 26.8544 166.9883 62.5044C166.9883 98.1444 267.5783 125.4844 392.5783 125.4844ZM-0.0017 688.9644C-0.0017 925.2944 144.5283 1002.9344 399.8983 1002.9344C353.0283 922.8544 326.6583 830.5644 326.6583 736.3244C326.6583 458.4944 493.6483 295.8944 784.1783 281.2544C779.7883 208.9844 758.2983 157.7144 729.0083 120.1144C717.2883 104.9844 698.2383 104.0044 684.0783 116.2144C637.2083 157.2244 514.6483 191.8944 392.5783 191.8944C270.5083 191.8944 147.9483 157.2244 101.5583 116.2144C86.9183 104.0044 68.3583 104.9844 56.6383 120.1144C21.9683 163.5744 -0.0017 226.0744 -0.0017 317.8744ZM837.3983 462.8944C959.4683 462.8944 1045.8983 437.9844 1045.8983 406.2544C1045.8983 373.5344 959.4683 349.1244 837.3983 349.1244C714.8483 349.1244 628.4183 373.5344 628.4183 406.2544C628.4183 437.9844 714.8483 462.8944 837.3983 462.8944ZM837.3983 1148.4344C999.0283 1148.4344 1066.8983 1127.9344 1131.3483 1067.8744C1221.6783 985.3544 1274.8983 865.7244 1274.8983 738.7744C1274.8983 634.2744 1239.2583 536.6244 1169.9183 457.0344C1153.3183 437.0144 1136.2283 435.5444 1118.1683 448.2444C1052.7383 498.0444 980.4683 523.9244 837.3983 523.9244C693.8483 523.9244 621.5783 498.0444 556.1483 448.2444C538.5783 435.5444 520.9983 437.0144 504.3983 457.0344C435.5483 536.6244 399.4183 634.2744 399.4183 738.7744C399.4183 865.7244 452.6383 985.3544 542.9683 1067.8744C607.4183 1127.9344 675.7783 1148.4344 837.3983 1148.4344Z"/>
</svg>