<?xml version="1.0" encoding="UTF-8" standalone="no"?>
<svg xmlns="http://www.w3.org/2000/svg"
     width="785.64453125" height="1002.9296875"
     viewBox="0 0 785.64453125 1002.9296875"
     fill="currentColor">
  <path d="M392.5783 125.4856C521.9683 125.4856 618.6483 98.1456 618.6483 62.9856C618.6483 26.8556 521.9683 -0.0044 392.5783 -0.0044C263.1883 -0.0044 166.9883 26.8556 166.9883 62.9856C166.9883 98.1456 263.1883 125.4856 392.5783 125.4856ZM392.5783 1002.9256C661.6183 1002.9256 785.6483 907.2256 785.6483 689.4556V317.8756C785.6483 226.0756 763.6683 164.0656 729.0083 120.1156C717.2883 105.4656 698.2383 104.4956 684.0783 116.2156C637.2083 157.2256 514.6483 192.3856 392.5783 192.3856C270.5083 192.3856 147.9483 157.2256 101.5583 116.2156C86.9183 104.4956 68.3583 105.4656 56.6383 120.1156C21.9683 164.0656 -0.0017 226.0756 -0.0017 317.8756V689.4556C-0.0017 907.2256 123.5383 1002.9256 392.5783 1002.9256Z"/>
</svg>