<?xml version="1.0" encoding="UTF-8" standalone="no"?>
<svg xmlns="http://www.w3.org/2000/svg"
     width="1275.87890625" height="1061.03515625"
     viewBox="0 0 1275.87890625 1061.03515625"
     fill="currentColor">
  <path d="M437.4983 113.7677C560.0583 113.7677 646.9683 88.8677 646.9683 56.6377C646.9683 24.4177 560.0583 -0.0023 437.4983 -0.0023C315.4283 -0.0023 229.0083 24.4177 229.0083 56.6377C229.0083 88.8677 315.4283 113.7677 437.4983 113.7677ZM-0.0017 389.6477C-0.0017 516.5977 53.2183 636.2277 143.5583 719.2377C180.6683 753.4177 219.2383 775.3877 276.3683 787.1077C267.5783 761.2277 261.2283 734.3777 257.3283 707.0277C232.4183 697.7577 212.3983 685.0577 192.8683 666.5077C115.7183 595.7077 71.7783 495.6077 71.7783 389.6477C71.7783 313.9677 94.2383 240.2377 142.5783 179.1977C201.6583 221.6777 289.0583 241.2077 396.9683 245.6077C423.8283 216.7977 449.7083 192.8677 478.0283 173.3377C465.3283 174.8077 452.1483 174.8077 437.4983 174.8077C294.4383 174.8077 224.6083 146.9677 170.4083 106.9377C145.5083 90.8177 115.7183 94.7277 98.1483 117.1877C36.1283 187.9877 -0.0017 285.1577 -0.0017 389.6477ZM795.4083 307.6177C931.1483 307.6177 1026.3683 280.2777 1026.3683 245.1177C1026.3683 209.9577 931.1483 183.1077 795.4083 183.1077C659.6683 183.1077 564.4483 209.9577 564.4483 245.1177C564.4483 280.2777 659.6683 307.6177 795.4083 307.6177ZM795.4083 1061.0377C972.6583 1061.0377 1047.3683 1038.5777 1118.1683 972.6577C1217.7783 881.8377 1275.8783 750.4877 1275.8783 611.3277C1275.8783 498.5377 1238.2783 390.6277 1167.9683 312.0077C1148.9283 287.5977 1116.6983 283.6877 1089.3583 300.2977C1029.2983 344.2377 948.7283 374.5077 795.4083 374.5077C642.0883 374.5077 561.5283 344.2377 501.4683 300.2977C474.1183 283.6877 441.4083 287.5977 422.8483 312.0077C352.5383 390.6277 314.4483 498.5377 314.4483 611.3277C314.4483 750.4877 373.0483 881.8377 472.1683 972.6577C542.9683 1038.5777 618.1683 1061.0377 795.4083 1061.0377ZM795.4083 982.4177C640.1383 982.4177 581.0583 966.7977 525.8783 915.0377C441.4083 837.3977 393.0683 728.0277 393.0683 611.3277C393.0683 527.3477 417.9683 446.7777 468.7483 379.3977C547.8483 431.1477 664.5483 453.1277 795.4083 453.1277C926.2683 453.1277 1042.4783 431.1477 1121.5783 379.3977C1172.8483 446.7777 1197.2683 527.3477 1197.2683 611.3277C1197.2683 728.0277 1149.4183 837.3977 1064.9383 915.0377C1009.7683 966.7977 950.1983 982.4177 795.4083 982.4177Z"/>
</svg>