<?xml version="1.0" encoding="UTF-8" standalone="no"?>
<svg xmlns="http://www.w3.org/2000/svg"
     width="1173.33984375" height="1138.18359375"
     viewBox="0 0 1173.33984375 1138.18359375"
     fill="currentColor">
  <path d="M355.9583 113.2798C473.6283 113.2798 561.0383 88.3798 561.0383 56.6398C561.0383 23.9298 473.6283 -0.0002 355.9583 -0.0002C238.7683 -0.0002 150.8783 23.9298 150.8783 56.6398C150.8783 88.3798 238.7683 113.2798 355.9583 113.2798ZM-0.0017 624.5098C-0.0017 813.4798 102.5383 900.8798 323.7283 908.1998C322.2683 890.1398 321.2883 872.0698 321.2883 852.5398V426.7598C321.2883 315.4298 353.5183 229.9798 416.0183 170.8998C396.4883 173.3398 376.4683 173.8298 355.9583 173.8298C245.1183 173.8298 135.7383 140.1398 92.2883 104.4898C78.6183 94.2398 62.0083 95.6998 51.2683 108.8898C19.0383 147.4598 -0.0017 204.5898 -0.0017 287.5998ZM780.2783 260.7398C905.7583 260.7398 1006.3483 233.3998 1006.3483 198.2398C1006.3483 162.1098 905.7583 135.2498 780.2783 135.2498C655.2783 135.2498 554.6883 162.1098 554.6883 198.2398C554.6883 233.3998 655.2783 260.7398 780.2783 260.7398ZM780.2783 1138.1798C1049.3183 1138.1798 1173.3383 1042.4798 1173.3383 824.7098V453.1298C1173.3383 361.3298 1150.8783 299.3198 1116.6983 255.3698C1104.9783 240.7198 1085.9383 239.7498 1071.7783 251.4598C1024.8983 292.4798 902.3483 327.6398 780.2783 327.6398C658.1983 327.6398 535.6483 292.4798 489.2583 251.4598C474.6083 239.7498 456.0583 240.7198 444.3383 255.3698C409.6683 299.3198 387.6983 361.3298 387.6983 453.1298V824.7098C387.6983 1042.4798 511.2283 1138.1798 780.2783 1138.1798Z"/>
</svg>