<?xml version="1.0" encoding="UTF-8" standalone="no"?>
<svg xmlns="http://www.w3.org/2000/svg"
     width="1173.33984375" height="1138.671875"
     viewBox="0 0 1173.33984375 1138.671875"
     fill="currentColor">
  <path d="M356.4483 113.7681C470.2183 113.7681 561.5283 89.3581 561.5283 57.1281C561.5283 24.4181 470.2183 -0.0019 356.4483 -0.0019C242.6783 -0.0019 151.3683 24.4181 151.3683 57.1281C151.3683 89.3581 242.6783 113.7681 356.4483 113.7681ZM-0.0017 624.9981C-0.0017 815.4281 104.0083 902.8281 329.0983 908.6881C324.7083 886.7181 322.2683 862.3081 321.7783 836.9181C143.0683 829.5881 71.7783 760.2581 71.7783 617.6781V292.4781C71.7783 253.4181 78.6183 217.2881 94.7283 186.0381C147.9483 228.0281 253.4183 246.5781 370.6083 245.6081C387.2083 215.3281 406.2483 184.0781 416.9883 170.8981C410.1583 171.8781 383.7883 174.3181 356.4483 174.3181C246.0983 174.3181 134.7683 142.5781 92.2883 104.9781C79.5883 94.2381 62.4983 95.2181 51.7583 108.8881C20.0183 148.4381 -0.0017 205.0781 -0.0017 288.0881ZM780.7583 261.2281C905.7583 261.2281 1006.3483 233.8881 1006.3483 198.7281C1006.3483 162.5981 905.7583 135.7381 780.7583 135.7381C655.2783 135.7381 554.6883 162.5981 554.6883 198.7281C554.6883 233.8881 655.2783 261.2281 780.7583 261.2281ZM780.7583 1138.6681C1049.8083 1138.6681 1173.3383 1042.9681 1173.3383 825.1981V453.6181C1173.3383 361.8181 1151.3683 299.8081 1116.6983 255.8581C1104.9783 241.2081 1086.4283 240.2381 1071.7783 251.9481C1025.3883 292.9681 902.8283 328.1281 780.7583 328.1281C658.1983 328.1281 536.1283 292.9681 489.2583 251.9481C474.6083 240.2381 456.0583 241.2081 444.3383 255.8581C409.6683 299.8081 387.6983 361.8181 387.6983 453.6181V825.1981C387.6983 1042.9681 511.2283 1138.6681 780.7583 1138.6681ZM780.7583 1060.0581C554.6883 1060.0581 466.3083 984.3781 466.3083 817.3781V458.0081C466.3083 415.0381 473.6283 374.9981 491.6983 340.3281C549.8083 385.7381 659.6683 406.7381 780.7583 406.7381C901.3683 406.7381 1011.2283 385.7381 1069.3383 340.3281C1087.3983 374.9981 1094.7283 415.0381 1094.7283 458.0081V817.3781C1094.7283 984.3781 1006.3483 1060.0581 780.7583 1060.0581Z"/>
</svg>