<?xml version="1.0" encoding="UTF-8" standalone="no"?>
<svg xmlns="http://www.w3.org/2000/svg"
     width="961.42578125" height="877.9296875"
     viewBox="0 0 961.42578125 877.9296875"
     fill="currentColor">
  <path d="M480.9583 124.5159C616.6983 124.5159 711.4283 97.1659 711.4283 62.0159C711.4283 26.3659 616.6983 -0.0041 480.9583 -0.0041C344.7283 -0.0041 249.9983 26.3659 249.9983 62.0159C249.9983 97.1659 344.7283 124.5159 480.9583 124.5159ZM480.9583 877.9259C658.1983 877.9259 732.9083 855.4659 803.7083 789.5459C903.3183 698.7259 961.4283 567.3859 961.4283 427.7359C961.4283 314.9459 923.8283 207.5159 846.1883 119.1359C828.1283 96.6759 809.5683 94.7259 790.0383 108.8859C717.7783 163.5759 634.2783 190.9159 480.9583 190.9159C327.1483 190.9159 243.6483 163.5759 171.8783 108.8859C152.3483 94.7259 133.2983 96.6759 115.2383 119.1359C38.0883 207.5159 -0.0017 314.9459 -0.0017 427.7359C-0.0017 567.3859 58.1083 698.7259 157.7183 789.5459C228.5183 855.4659 303.2183 877.9259 480.9583 877.9259Z"/>
</svg>