<?xml version="1.0" encoding="UTF-8" standalone="no"?>
<svg xmlns="http://www.w3.org/2000/svg"
     width="1260.7421875" height="1139.16015625"
     viewBox="0 0 1260.7421875 1139.16015625"
     fill="currentColor">
  <path d="M435.5483 110.8398C555.1783 110.8398 639.6483 86.4298 639.6483 55.6598C639.6483 23.4398 555.1783 -0.0002 435.5483 -0.0002C315.4283 -0.0002 230.4683 23.4398 230.4683 55.6598C230.4683 86.4298 315.4283 110.8398 435.5483 110.8398ZM455.0783 337.3998C505.8583 286.6198 570.7983 270.0198 669.4383 270.0198H854.9783C842.2883 209.4698 814.9383 154.7898 774.4183 112.2998C754.8783 87.8898 722.1683 83.0098 694.3383 99.6098C640.6283 138.1798 575.1983 165.0398 435.5483 165.0398C295.8983 165.0398 230.4683 138.1798 176.2683 99.6098C148.4383 83.0098 116.2083 87.3998 96.6783 112.2998C34.6683 183.1098 -0.0017 279.7898 -0.0017 381.8398C-0.0017 507.8098 52.7383 627.4398 143.0683 709.4698C200.1983 763.1798 261.7183 784.6698 388.1883 788.5698V550.7798C388.1883 451.6598 405.2783 388.1798 455.0783 337.3998ZM670.4083 1139.1598H1045.8983C1114.7483 1139.1598 1172.8483 1132.8098 1213.8683 1091.7998C1254.8783 1050.2898 1260.7383 992.6798 1260.7383 923.8298V552.2498C1260.7383 482.9098 1254.8783 425.2898 1213.8683 384.2798C1172.8483 343.2598 1114.7483 336.4298 1045.8983 336.4298H669.4383C602.0483 336.4298 543.4583 343.2598 502.4383 384.7698C461.4283 425.7798 455.0783 483.3998 455.0783 550.7798V923.8298C455.0783 992.6798 461.4283 1050.2898 502.4383 1091.7998C543.4583 1132.8098 601.5583 1139.1598 670.4083 1139.1598ZM671.3883 647.4598C670.4083 616.2098 695.7983 586.4298 729.0083 583.9798C731.9383 614.2598 705.5683 650.8798 671.3883 647.4598ZM899.8983 604.4898V654.2998H939.9383V687.0098H899.8983V802.7298C899.8983 822.2698 908.1983 829.5898 925.2883 829.5898C929.6883 829.5898 937.4983 829.5898 939.9383 828.1298V863.2798C935.5483 863.7698 925.2883 864.7498 916.5083 864.7498C873.5383 864.7498 856.9383 850.0998 856.9383 808.1098V687.0098H827.6383V654.2998H856.9383V604.4898ZM786.6183 791.0198C780.2783 812.4998 766.1183 837.8898 747.5583 855.9598C742.1883 860.8398 734.3783 864.7498 723.6283 864.7498C714.3583 864.7498 708.4983 861.3298 699.7083 858.8898C694.8283 856.9298 687.4983 853.0298 678.2183 853.0298C657.7183 853.0298 648.4383 865.7198 631.8383 865.7198C620.1183 865.7198 610.8383 858.8898 598.1483 844.7298C574.2183 817.8698 558.5983 775.8798 558.5983 739.2598C558.5983 716.7998 563.9683 696.2898 578.1283 678.7098C589.8483 663.5698 607.9083 654.7898 629.8783 654.7898C649.8983 654.7898 662.1083 667.4798 673.3383 667.4798C685.5483 667.4798 700.1983 654.2998 726.0783 654.2998C748.5383 654.2998 767.5783 663.5698 779.7883 681.6398C763.6683 690.4298 757.3283 702.1498 754.3983 711.9098C749.0283 725.5898 747.5583 742.1898 754.3983 759.2798C760.2583 773.9298 770.0183 784.1798 786.6183 791.0198ZM1081.5383 863.2798H1036.6183L959.9583 654.2998H1004.8783L1059.0783 822.2698L1110.3483 654.2998H1156.7383Z"/>
</svg>