<?xml version="1.0" encoding="UTF-8" standalone="no"?>
<svg xmlns="http://www.w3.org/2000/svg"
     width="1182.12890625" height="1139.16015625"
     viewBox="0 0 1182.12890625 1139.16015625"
     fill="currentColor">
  <path d="M356.4483 113.2798C474.1183 113.2798 561.5283 88.3798 561.5283 56.6398C561.5283 23.9298 474.1183 -0.0002 356.4483 -0.0002C238.7683 -0.0002 151.8583 23.9298 151.8583 56.6398C151.8583 88.3798 238.7683 113.2798 356.4483 113.2798ZM-0.0017 624.5098C-0.0017 806.1498 94.2383 896.4798 309.0783 907.7098V835.9398C135.2583 825.1998 71.7783 751.9498 71.7783 617.1898V291.9898C71.7783 252.9298 78.6183 216.7998 94.7283 185.5498C145.0183 224.6098 239.7483 245.1198 356.4483 245.1198C473.6283 245.1198 567.8683 224.6098 618.1683 185.5498C628.9083 200.6798 633.2983 217.7698 634.7683 236.3298C636.7183 247.0698 638.1883 258.2998 639.1583 269.5298H711.9183C711.4283 256.8398 709.9583 242.6798 708.9883 232.4198C704.0983 176.7598 684.5683 136.7198 661.1283 108.3998C650.8783 94.7298 633.2983 93.7498 620.6083 104.4898C578.1283 142.0898 466.7983 173.8298 356.4483 173.8298C246.0983 173.8298 134.7683 142.0898 92.2883 104.4898C79.5883 93.7498 62.4983 94.7298 51.7583 108.3998C20.0183 147.9498 -0.0017 204.5898 -0.0017 287.5998ZM591.3083 1139.1598H966.7983C1035.6483 1139.1598 1093.7483 1132.8098 1134.7683 1091.3098C1175.7783 1050.2898 1182.1283 992.6798 1182.1283 923.8298V551.7598C1182.1283 482.9098 1175.7783 425.2898 1134.7683 384.2798C1093.2583 342.7698 1035.6483 336.4298 966.7983 336.4298H590.3283C522.9483 336.4298 464.3583 343.2598 423.3383 384.2798C382.3283 425.2898 375.9783 482.9098 375.9783 550.7798V923.8298C375.9783 992.6798 382.3283 1050.2898 423.3383 1091.3098C464.3583 1132.8098 522.4583 1139.1598 591.3083 1139.1598ZM592.2883 646.9698C591.3083 616.2098 616.6983 585.9398 650.3883 583.9798C652.8283 614.2598 626.4683 650.8798 592.2883 646.9698ZM821.2883 604.4898V654.2998H860.8383V687.0098H821.2883V802.7298C821.2883 821.7798 829.0983 829.5898 846.1883 829.5898C850.5883 829.5898 858.3983 829.5898 860.8383 828.1298V863.2798C856.9383 863.7698 846.1883 864.7498 837.3983 864.7498C794.4383 864.7498 777.8283 849.6098 777.8283 808.1098V687.0098H748.5383V654.2998H777.8283V604.4898ZM707.5183 791.0198C701.1683 812.4998 687.0083 837.3998 668.9483 855.9598C663.0883 860.8398 655.2783 864.7498 644.5283 864.7498C635.2583 864.7498 629.3983 861.3298 621.0983 858.3998C615.7183 856.9298 608.3983 853.0298 599.6083 853.0298C578.6183 853.0298 569.8283 865.2298 552.7383 865.2298C541.0183 865.2298 531.7383 858.3998 519.0383 844.2398C495.1183 817.8698 479.4883 775.8798 479.4883 739.2598C479.4883 716.7998 484.8683 696.2898 499.5083 678.7098C511.2283 663.5698 529.2983 654.7898 550.7783 654.7898C570.7983 654.7898 583.0083 666.9898 594.2383 666.9898C606.9383 666.9898 621.0983 654.2998 647.4583 654.2998C669.4383 654.2998 688.4783 663.0898 700.6883 681.1498C684.5683 690.4298 678.2183 702.1498 675.2883 711.9098C669.9183 725.5898 668.9483 742.1898 675.2883 758.7898C681.1483 773.9298 691.4083 784.1798 707.5183 791.0198ZM1002.4383 863.2798H957.5183L880.8583 654.2998H925.7783L979.9783 821.7798L1031.2483 654.2998H1078.1283Z"/>
</svg>