<?xml version="1.0" encoding="UTF-8" standalone="no"?>
<svg xmlns="http://www.w3.org/2000/svg"
     width="572.265625" height="897.94921875"
     viewBox="0 0 572.265625 897.94921875"
     fill="currentColor">
  <path d="M79.5883 897.9478H492.6783C541.9883 897.9478 572.2683 870.1178 572.2683 817.8678V808.1078C572.2683 690.4278 447.7583 565.4278 379.3983 497.5578C348.6283 466.7978 346.1883 432.6178 379.3983 399.4178C447.7583 332.0278 572.2683 207.5178 572.2683 88.8678V80.5678C572.2683 28.3178 541.9883 -0.0022 492.6783 -0.0022H79.5883C30.2783 -0.0022 -0.0017 28.3178 -0.0017 80.5678V88.8678C-0.0017 207.5178 124.9983 332.0278 192.8683 399.4178C226.5583 432.6178 224.1183 466.7978 192.8683 497.5578C124.9983 565.4278 -0.0017 690.4278 -0.0017 808.1078V817.8678C-0.0017 870.1178 30.2783 897.9478 79.5883 897.9478ZM319.8283 373.0478C295.4083 393.0678 276.8583 393.0678 252.4383 373.0478C215.8183 341.7978 111.8183 234.8678 80.0783 178.7078C71.7783 163.0878 76.1683 150.8778 91.3083 150.8778H480.9583C496.0983 150.8778 500.9783 163.0878 492.1883 178.7078C460.4483 234.8678 356.9383 341.7978 319.8283 373.0478Z"/>
</svg>