<?xml version="1.0" encoding="UTF-8" standalone="no"?>
<svg xmlns="http://www.w3.org/2000/svg"
     width="572.265625" height="897.94921875"
     viewBox="0 0 572.265625 897.94921875"
     fill="currentColor">
  <path d="M79.5883 897.9478H492.6783C541.9883 897.9478 572.2683 870.1178 572.2683 817.8678V808.1078C572.2683 690.4278 447.7583 565.4278 379.3983 497.5578C348.6283 466.7978 346.1883 432.6178 379.3983 399.4178C447.7583 332.0278 572.2683 207.5178 572.2683 88.8678V80.5678C572.2683 28.3178 541.9883 -0.0022 492.6783 -0.0022H79.5883C30.2783 -0.0022 -0.0017 28.3178 -0.0017 80.5678V88.8678C-0.0017 207.5178 124.9983 332.0278 192.8683 399.4178C224.1183 430.1778 226.5583 464.3578 192.8683 497.5578C124.9983 565.4278 -0.0017 690.4278 -0.0017 808.1078V817.8678C-0.0017 870.1178 30.2783 897.9478 79.5883 897.9478ZM117.1883 831.5478C96.1883 831.5478 91.3083 807.1278 105.4683 793.9478L262.6983 644.0478C277.8283 630.3678 295.4083 630.8578 309.5683 644.0478L466.7983 793.9478C480.9583 807.1278 476.0783 831.5478 455.0783 831.5478Z"/>
</svg>