<?xml version="1.0" encoding="UTF-8" standalone="no"?>
<svg xmlns="http://www.w3.org/2000/svg"
     width="996.09375" height="996.09375"
     viewBox="0 0 996.09375 996.09375"
     fill="currentColor">
  <path d="M498.0477 996.0959C770.5077 996.0959 996.0977 770.0159 996.0977 498.0459C996.0977 225.5859 770.0177 -0.0041 497.5577 -0.0041C225.5877 -0.0041 -0.0023 225.5859 -0.0023 498.0459C-0.0023 770.0159 226.0777 996.0959 498.0477 996.0959ZM498.0477 913.0859C267.5777 913.0859 83.4977 728.5159 83.4977 498.0459C83.4977 267.5759 267.0877 83.0059 497.5577 83.0059C728.0277 83.0059 913.0877 267.5759 913.0877 498.0459C913.0877 728.5159 728.5177 913.0859 498.0477 913.0859ZM366.6977 783.2059H629.3977C660.6477 783.2059 679.6877 765.1359 679.6877 732.4259V726.0759C679.6877 651.3659 600.5877 571.7759 557.1277 528.3159C535.6477 507.3259 537.1077 485.8359 557.1277 466.7959C600.5877 423.8259 679.6877 344.2359 679.6877 269.0459V263.6759C679.6877 230.4659 660.6477 212.4059 629.3977 212.4059H366.6977C335.4477 212.4059 316.4077 230.4659 316.4077 263.6759V269.0459C316.4077 344.2359 395.5077 423.8259 438.9677 466.7959C458.9877 485.8359 460.4477 507.3259 438.9677 528.3159C395.5077 571.7759 316.4077 651.3659 316.4077 726.0759V732.4259C316.4077 765.1359 335.4477 783.2059 366.6977 783.2059ZM390.6277 741.2059C376.9577 741.2059 374.5077 725.5859 383.2977 717.2859L476.0777 622.5559C479.4877 619.1359 480.9577 617.6759 480.9577 612.7959V475.5859C480.9577 461.9159 478.0277 455.0759 468.2577 445.7959C446.7777 424.3159 424.3177 402.3459 405.2777 381.8359C396.4877 373.5359 401.3677 364.2559 411.1377 364.2559H585.4477C595.2177 364.2559 599.6077 373.5359 591.3077 381.8359C571.7777 402.3459 549.3177 424.3159 527.8277 445.7959C518.0677 455.0759 515.1377 461.9159 515.1377 475.5859V612.7959C515.1377 617.6759 516.5977 619.1359 520.0177 622.5559L612.7977 717.2859C621.5777 725.5859 619.1377 741.2059 605.4677 741.2059Z"/>
</svg>