<?xml version="1.0" encoding="UTF-8" standalone="no"?>
<svg xmlns="http://www.w3.org/2000/svg"
     width="1556.610851452771" height="1074.70703125"
     viewBox="0 0 1556.610851452771 1074.70703125"
     fill="currentColor">
  <path d="M42.9385 1074.705H1403.7785C1424.2885 1074.705 1440.8885 1057.125 1440.8885 1036.625C1440.8885 1016.115 1424.2885 999.515 1403.7785 999.515H1242.6485V286.135C1247.5285 285.155 1253.8785 284.665 1261.1985 284.665C1340.2985 284.665 1389.6185 323.245 1465.7885 323.245C1499.4785 323.245 1513.1585 319.825 1529.7585 312.015C1548.3085 303.225 1556.6085 290.525 1556.6085 269.535V52.735C1556.6085 39.555 1550.2585 30.275 1531.7085 30.275C1518.5285 30.275 1499.9685 39.555 1463.8385 39.555C1389.1285 39.555 1338.8385 -0.005 1259.2485 -0.005C1225.0685 -0.005 1211.3985 4.395 1195.2785 11.235C1177.2185 19.045 1167.9385 33.205 1167.9385 52.735V999.515H955.0485C956.9985 990.725 957.9785 980.955 957.9785 970.705V591.305C949.6785 587.405 942.3485 583.495 934.0485 579.105L541.4785 378.415L147.9185 579.585C140.5985 583.495 133.7585 586.915 125.9485 590.825V970.705C125.9485 980.955 126.9185 990.725 128.8785 999.515H42.9385C22.4285 999.515 5.3385 1016.115 5.3385 1036.625C5.3385 1057.125 22.4285 1074.705 42.9385 1074.705ZM62.4685 551.755L524.8685 315.425C535.1285 310.055 547.8185 310.055 559.0485 315.425L1021.4585 551.755C1077.6085 580.075 1106.9085 512.695 1061.0085 488.765L597.1385 245.115C557.5885 224.605 525.8485 224.605 486.7885 245.115L21.9385 488.765C-22.9815 512.695 6.3185 580.075 62.4685 551.755ZM399.3885 999.515V688.965C399.3885 667.485 413.5485 653.325 435.0285 653.325H648.4085C669.8885 653.325 684.0485 667.485 684.0485 688.965V999.515Z"/>
</svg>