<?xml version="1.0" encoding="UTF-8" standalone="no"?>
<svg xmlns="http://www.w3.org/2000/svg"
     width="1997.698666032172" height="850.09765625"
     viewBox="0 0 1997.698666032172 850.09765625"
     fill="currentColor">
  <path d="M40.5365 521.9738H93.7565V745.6038C93.7565 812.5038 132.8165 850.0938 200.6965 850.0938H1797.3765C1864.7565 850.0938 1903.8165 812.5038 1903.8165 745.6038V521.9738H1957.0365C1998.5465 521.9738 2010.2665 474.6138 1982.9165 455.5638L1668.4665 236.3238C1652.8365 225.5838 1634.7765 220.2138 1613.7765 220.2138H1309.5765L1060.5565 24.4138C1040.5365 8.7938 1020.0265 0.0037 998.5465 0.0037C977.5465 0.0037 957.0365 8.7938 937.0165 24.4138L687.9965 220.2138H383.7965C362.7965 220.2138 344.7365 225.5838 329.1065 236.3238L15.1465 455.5638C-12.6835 474.6138 -0.9635 521.9738 40.5365 521.9738ZM1125.9865 556.6438C1125.9865 536.6238 1112.7965 522.9538 1092.7865 522.9538H905.2865C885.7465 522.9538 871.5865 536.6238 871.5865 556.6438V773.9238H589.8565C560.0665 773.9238 543.9565 757.8138 543.9565 727.0538V432.6138L977.0565 93.2637C982.9165 88.3837 991.2165 84.9638 998.5465 84.9638C1006.3565 84.9638 1014.6565 88.3837 1021.0065 93.2637L1453.6265 432.6138V727.0538C1453.6265 757.8138 1437.5065 773.9238 1407.7265 773.9238H1125.9865ZM1613.7765 287.1138C1621.5865 287.1138 1624.0365 287.5938 1629.4065 291.0138L1868.1765 455.0738H1608.4065L1394.5365 287.1138ZM129.8865 455.0738L368.1765 291.0138C373.5465 287.5938 375.9865 287.1138 383.7965 287.1138H602.5465L388.6765 455.0738ZM1529.7965 745.6038V521.9738H1827.6465V727.0538C1827.6465 757.8138 1811.5365 773.9238 1781.2565 773.9238H1526.8665C1528.8165 765.1338 1529.7965 755.8638 1529.7965 745.6038ZM216.3165 773.9238C186.0465 773.9238 170.4165 757.8138 170.4165 727.0538V521.9738H467.7865V745.6038C467.7865 755.8638 468.7565 765.1338 470.7065 773.9238Z"/>
</svg>