<?xml version="1.0" encoding="UTF-8" standalone="no"?>
<svg xmlns="http://www.w3.org/2000/svg"
     width="996.09375" height="996.09375"
     viewBox="0 0 996.09375 996.09375"
     fill="currentColor">
  <path d="M498.0477 996.0959C770.5077 996.0959 996.0977 770.0159 996.0977 498.0459C996.0977 225.5859 770.0177 -0.0041 497.5577 -0.0041C225.5877 -0.0041 -0.0023 225.5859 -0.0023 498.0459C-0.0023 770.0159 226.0777 996.0959 498.0477 996.0959ZM498.0477 913.0859C267.5777 913.0859 83.4977 728.5159 83.4977 498.0459C83.4977 267.5759 267.0877 83.0059 497.5577 83.0059C728.0277 83.0059 913.0877 267.5759 913.0877 498.0459C913.0877 728.5159 728.5177 913.0859 498.0477 913.0859ZM210.4477 715.3359H728.0277C736.8177 715.3359 744.1377 708.0059 744.1377 698.7259C744.1377 689.9459 736.8177 682.6159 728.0277 682.6159H663.5777V383.2959C665.5277 382.8159 668.4577 382.8159 670.8977 382.8159C704.0977 382.8159 724.6077 398.9259 757.3277 398.9259C770.9977 398.9259 777.3477 396.9759 784.1777 394.0459C792.4777 390.1359 795.8977 384.7659 795.8977 375.9759V284.6659C795.8977 278.8059 792.4777 274.4159 784.6677 274.4159C778.8077 274.4159 771.4877 278.8059 755.8577 278.8059C725.0977 278.8059 704.0977 262.2059 670.4077 262.2059C656.2477 262.2059 649.8977 264.1559 643.5577 267.0859C635.2577 270.0159 631.3477 276.3659 631.3477 285.1559V463.8659L444.3377 365.2359C427.2477 356.9359 414.0577 356.9359 397.4577 365.7259L201.6577 468.2659C182.6177 478.5159 194.3377 507.3259 218.7477 495.1159L414.0577 395.5059C418.4577 393.0659 423.3377 393.0659 427.7377 395.5059L623.0477 495.1159C625.9777 496.5859 628.9077 497.5559 631.3477 498.0459V682.6159H594.7277C595.7077 679.1959 595.7077 675.7859 595.7077 671.8759V510.7459C592.7777 509.2759 589.3577 507.3259 585.9377 505.8559L420.8977 420.8959L255.3677 505.8559C251.9577 507.3259 249.0277 509.2759 246.0977 510.7459V671.8759C246.0977 675.7859 246.0977 679.6859 247.5577 682.6159H210.4477C202.1477 682.6159 194.3377 689.9459 194.3377 698.7259C194.3377 708.0059 202.1477 715.3359 210.4477 715.3359ZM360.3477 682.6159V553.2259C360.3477 543.4559 366.6977 538.0859 375.4877 538.0859H465.8177C475.0977 538.0859 480.9577 543.4559 480.9577 553.2259V682.6159Z"/>
</svg>