<?xml version="1.0" encoding="UTF-8" standalone="no"?>
<svg xmlns="http://www.w3.org/2000/svg"
     width="996.09375" height="996.09375"
     viewBox="0 0 996.09375 996.09375"
     fill="currentColor">
  <path d="M498.0477 996.0959C770.5077 996.0959 996.0977 770.0159 996.0977 498.0459C996.0977 225.5859 770.0177 -0.0041 497.5577 -0.0041C225.5877 -0.0041 -0.0023 225.5859 -0.0023 498.0459C-0.0023 770.0159 226.0777 996.0959 498.0477 996.0959ZM498.0477 913.0859C267.5777 913.0859 83.4977 728.5159 83.4977 498.0459C83.4977 267.5759 267.0877 83.0059 497.5577 83.0059C728.0277 83.0059 913.0877 267.5759 913.0877 498.0459C913.0877 728.5159 728.5177 913.0859 498.0477 913.0859ZM189.4577 458.0059C189.4577 469.2359 198.2377 480.4659 212.8877 480.4659C220.7077 480.4659 226.5577 476.0759 231.9377 471.1959L486.3277 258.2959C494.6277 250.9759 501.9577 251.9559 509.7677 258.2959L763.6677 471.1959C770.0177 476.0759 775.3877 480.4659 782.7177 480.4659C795.4077 480.4659 806.1477 471.6759 806.1477 458.9859C806.1477 450.6859 803.7077 445.3159 797.8477 439.9459L724.6077 378.4159V277.3459C724.6077 266.6059 717.7777 258.7859 706.5477 258.7859H678.7077C667.9677 258.7859 660.1577 266.6059 660.1577 277.3459V324.2159L533.2077 217.7759C511.7177 199.7059 484.3777 199.7059 463.3777 217.7759L197.7577 439.9459C192.3877 445.3159 189.4577 451.6559 189.4577 458.0059ZM270.9977 687.9859C270.9977 723.1459 292.4777 744.1359 329.0977 744.1359H666.9877C703.6177 744.1359 724.6077 723.1459 724.6077 687.9859V484.3759L513.1877 306.6359C503.4177 298.3359 492.1877 298.8259 482.4177 306.6359L270.9977 483.8859ZM564.4577 695.3159H431.6377V532.2259C431.6377 520.5059 439.4577 512.6959 451.6577 512.6959H544.4377C557.1277 512.6959 564.4577 520.5059 564.4577 532.2259Z"/>
</svg>