<?xml version="1.0" encoding="UTF-8" standalone="no"?>
<svg xmlns="http://www.w3.org/2000/svg"
     width="898.92578125" height="898.92578125"
     viewBox="0 0 898.92578125 898.92578125"
     fill="currentColor">
  <path d="M153.3183 898.9295H745.6083C848.1483 898.9295 898.9283 848.1495 898.9283 747.5595V151.3695C898.9283 50.7795 848.1483 -0.0005 745.6083 -0.0005H153.3183C51.2683 -0.0005 -0.0017 50.2895 -0.0017 151.3695V747.5595C-0.0017 848.6295 51.2683 898.9295 153.3183 898.9295ZM257.3283 396.9695C257.3283 382.3195 267.0883 372.0695 281.7383 372.0695H514.1583C529.2983 360.8395 536.6183 343.7495 536.6183 328.1295C536.6183 285.1595 496.5783 263.1795 449.7083 263.1795C412.1083 263.1795 378.4183 279.2995 364.7483 312.4995C357.9083 329.0995 347.6583 334.4695 335.4483 334.4695C315.9183 334.4695 305.1783 321.2895 305.1783 304.1995C305.6683 291.0195 310.0583 279.2995 317.3783 268.0695C344.2383 224.1195 393.5583 203.1295 448.2383 203.1295C530.7583 203.1295 600.0983 248.0495 600.0983 325.6795C600.0983 340.3295 595.2183 357.4195 585.4483 372.0695H619.1383C633.2983 372.0695 643.5583 382.3195 643.5583 396.9695C643.5583 410.6395 633.2983 421.3895 619.1383 421.3895H281.7383C267.0883 421.3895 257.3283 410.6395 257.3283 396.9695ZM255.8583 497.5595C255.8583 483.8895 266.1183 473.1395 280.7583 473.1395H618.1683C632.3283 473.1395 642.0883 483.8895 642.0883 497.5595C642.0883 512.2095 632.3283 522.9495 618.1683 522.9495H385.2583C370.1183 533.6895 363.2783 550.7795 363.2783 566.4095C363.2783 609.8595 402.8283 631.3495 450.1983 631.3495C487.3083 631.3495 521.4883 615.2295 534.6683 582.0295C541.9883 565.4295 551.7583 560.0595 564.4483 560.0595C583.4983 560.0595 594.7283 573.2395 594.2383 590.8195C593.7483 603.5195 589.8483 615.7195 582.0283 626.9495C555.6683 670.4095 505.8583 691.4095 451.1683 691.4095C368.6483 691.4095 299.3183 646.4795 299.3183 568.8495C299.3183 554.1995 304.6883 537.1095 313.9683 522.9495H280.7583C266.1183 522.9495 255.8583 512.2095 255.8583 497.5595Z"/>
</svg>