<?xml version="1.0" encoding="UTF-8" standalone="no"?>
<svg xmlns="http://www.w3.org/2000/svg"
     width="681.15234375" height="900.390625"
     viewBox="0 0 681.15234375 900.390625"
     fill="currentColor">
  <path d="M31.2483 383.7844H649.4183C667.9683 383.7844 681.1483 369.6244 681.1483 352.0544C681.1483 333.4944 667.9683 320.3144 649.4183 320.3144H565.9183C594.7283 291.9944 610.3483 254.8844 610.3483 216.7944C610.3483 78.1244 485.3483 0.0044 336.4283 0.0044C236.3283 0.0044 145.0183 39.0644 98.1483 123.0444C86.4283 140.6244 79.5883 157.7144 79.0983 178.2244C79.0983 201.6644 93.7483 219.2344 120.6083 219.2344C138.1883 219.2344 152.3483 211.9144 162.5983 187.9844C190.9183 118.1644 260.7383 82.0344 339.3583 82.0344C437.9883 82.0344 520.5083 131.3444 520.5083 222.6544C520.5083 257.8144 504.3983 296.3844 469.7283 320.3144H31.2483C13.6683 320.3144 -0.0017 333.4944 -0.0017 352.0544C-0.0017 369.6244 13.6683 383.7844 31.2483 383.7844ZM31.2483 554.1944H118.1683C78.1283 585.4444 55.1783 630.3744 55.1783 680.1744C55.1783 802.2444 166.0183 900.3944 341.3083 900.3944C469.2383 900.3944 562.4983 846.6844 605.9583 761.7144C617.1883 744.1444 624.9983 727.5344 624.9983 706.0544C624.9983 682.1244 607.9083 665.5244 583.9883 665.5244C559.5683 665.5244 547.3683 678.2244 538.5783 697.2644C507.3283 777.8344 439.4483 818.3644 338.8683 818.3644C220.6983 818.3644 145.5083 753.4144 145.5083 676.2744C145.5083 629.3944 167.4783 583.9844 220.6983 554.1944H649.4183C667.9683 554.1944 681.1483 540.0344 681.1483 522.4644C681.1483 503.9044 667.9683 490.7244 649.4183 490.7244H31.2483C13.6683 490.7244 -0.0017 503.9044 -0.0017 522.4644C-0.0017 540.0344 13.6683 554.1944 31.2483 554.1944Z"/>
</svg>