<?xml version="1.0" encoding="UTF-8" standalone="no"?>
<svg xmlns="http://www.w3.org/2000/svg"
     width="996.09375" height="996.09375"
     viewBox="0 0 996.09375 996.09375"
     fill="currentColor">
  <path d="M498.0477 996.0959C770.5077 996.0959 996.0977 770.0159 996.0977 498.0459C996.0977 225.5859 770.0177 -0.0041 497.5577 -0.0041C225.5877 -0.0041 -0.0023 225.5859 -0.0023 498.0459C-0.0023 770.0159 226.0777 996.0959 498.0477 996.0959ZM498.0477 913.0859C267.5777 913.0859 83.4977 728.5159 83.4977 498.0459C83.4977 267.5759 267.0877 83.0059 497.5577 83.0059C728.0277 83.0059 913.0877 267.5759 913.0877 498.0459C913.0877 728.5159 728.5177 913.0859 498.0477 913.0859ZM311.0377 447.7559C311.0377 460.9359 320.7977 471.6759 334.4777 471.6759H661.6177C675.2977 471.6759 685.0577 460.9359 685.0577 447.7559C685.0577 433.5959 675.2977 423.8259 661.6177 423.8259H628.9077C638.6677 409.6659 643.0677 393.0659 643.0677 378.9059C643.0677 303.7059 576.1677 260.2559 496.0977 260.2559C442.8677 260.2559 395.0177 280.7659 369.1377 323.2459C361.8177 333.9859 357.9077 345.2159 357.4177 357.9059C356.9377 374.5159 367.6777 387.2059 386.7177 387.2059C398.4377 387.2059 408.2077 382.3259 415.0377 366.2059C428.2277 333.9859 460.9377 317.8759 497.5577 317.8759C542.9677 317.8759 582.0277 339.3559 582.0277 381.3459C582.0277 396.4859 574.7077 413.0859 560.0577 423.8259H334.4777C320.7977 423.8259 311.0377 433.5959 311.0377 447.7559ZM310.0577 545.4059C310.0577 559.5659 319.8277 569.8259 333.4977 569.8259H366.2077C356.4477 583.4959 352.0477 600.0959 352.0477 614.2559C352.0477 689.4559 418.9477 732.9059 499.0277 732.9059C552.2477 732.9059 600.5877 712.4059 625.9777 670.4059C633.2977 659.6659 637.2077 647.9459 637.6977 635.7459C638.1877 618.6559 627.4377 605.9559 608.3977 605.9559C596.6777 605.9559 586.9177 610.8359 580.0777 626.9559C567.3877 659.1759 534.1777 675.2959 497.5577 675.2959C452.1477 675.2959 413.0877 654.2959 413.0877 611.8159C413.0877 596.6759 420.4077 580.0759 435.0577 569.8259H660.6477C674.3177 569.8259 684.0777 559.5659 684.0777 545.4059C684.0777 532.2259 674.3177 521.4859 660.6477 521.4859H333.4977C319.8277 521.4859 310.0577 532.2259 310.0577 545.4059Z"/>
</svg>