<?xml version="1.0" encoding="UTF-8" standalone="no"?>
<svg xmlns="http://www.w3.org/2000/svg"
     width="898.92578125" height="898.92578125"
     viewBox="0 0 898.92578125 898.92578125"
     fill="currentColor">
  <path d="M153.3183 898.9295H745.6083C848.1483 898.9295 898.9283 848.1495 898.9283 747.5595V151.3695C898.9283 50.7795 848.1483 -0.0005 745.6083 -0.0005H153.3183C51.2683 -0.0005 -0.0017 50.2895 -0.0017 151.3695V747.5595C-0.0017 848.6295 51.2683 898.9295 153.3183 898.9295ZM154.2983 820.3095C105.4683 820.3095 78.6183 794.4295 78.6183 743.6495V155.2695C78.6183 104.4895 105.4683 78.6095 154.2983 78.6095H744.6283C792.9683 78.6095 820.3083 104.4895 820.3083 155.2695V743.6495C820.3083 794.4295 792.9683 820.3095 744.6283 820.3095ZM263.1883 398.4395C263.1883 411.6195 272.9483 422.3595 287.1083 422.3595H613.7683C627.4383 422.3595 637.2083 411.6195 637.2083 398.4395C637.2083 384.2795 627.4383 374.5095 613.7683 374.5095H581.0583C590.8183 360.3495 595.2183 343.7495 595.2183 329.5895C595.2183 254.3895 528.3183 210.9395 448.2383 210.9395C395.0183 210.9395 347.1683 231.4495 321.2883 273.9295C314.4483 284.6695 310.0583 295.8995 309.5683 308.5895C309.5683 325.1995 319.8283 337.8895 338.8683 337.8895C350.5883 337.8895 360.3483 333.0095 367.1883 316.8895C380.3683 284.6695 413.0883 268.5595 449.7083 268.5595C495.1183 268.5595 534.1783 290.0395 534.1783 332.0295C534.1783 347.1695 526.8583 363.7695 512.2083 374.5095H287.1083C272.9483 374.5095 263.1883 384.2795 263.1883 398.4395ZM262.2083 496.0895C262.2083 510.2495 271.9683 520.5095 286.1283 520.5095H318.3583C309.0783 534.1795 304.1983 550.7795 304.1983 564.9395C304.1983 640.1395 371.0983 683.5895 451.1683 683.5895C504.3983 683.5895 552.7383 663.0895 578.1283 621.0895C585.4483 610.3495 589.3583 598.6295 589.8483 586.4295C590.3283 569.3395 579.5883 556.6395 561.0383 556.6395C548.8283 556.6395 539.5483 561.5195 532.2283 577.6395C519.5283 609.8595 486.3283 625.9795 450.1983 625.9795C404.2983 625.9795 365.7183 604.9795 365.7183 562.4995C365.7183 547.3595 372.5583 530.7595 387.2083 520.5095H612.7883C626.4683 520.5095 636.2283 510.2495 636.2283 496.0895C636.2283 482.9095 626.4683 472.1695 612.7883 472.1695H286.1283C271.9683 472.1695 262.2083 482.9095 262.2083 496.0895Z"/>
</svg>