<?xml version="1.0" encoding="UTF-8" standalone="no"?>
<svg xmlns="http://www.w3.org/2000/svg"
     width="789.0625" height="1129.39453125"
     viewBox="0 0 789.0625 1129.39453125"
     fill="currentColor">
  <path d="M395.0183 85.9338C418.9483 85.9338 437.9883 65.9138 437.9883 43.4538C437.9883 19.5338 418.4583 0.0037 395.0183 0.0037C372.0683 0.0037 353.0283 19.5338 353.0283 43.4538C353.0283 65.9138 371.5783 85.9338 395.0183 85.9338ZM157.7183 123.0438C176.7583 109.3737 180.6683 82.0338 167.9683 62.9837C154.7883 44.4338 128.4183 39.0638 108.3983 52.7337C89.8483 65.9138 83.9883 93.7537 97.1683 112.3038C110.8383 131.3438 138.6683 136.2337 157.7183 123.0438ZM632.3283 123.0438C651.8583 136.2337 678.7083 131.3438 692.8683 112.3038C706.0583 93.7537 701.1683 65.9138 681.6383 52.7337C661.6183 39.0638 635.2583 44.4338 622.0683 62.9837C609.3783 82.0338 613.2783 109.3737 632.3283 123.0438ZM395.0183 242.6738C425.7783 242.6738 451.1683 217.2838 451.1683 187.0137C451.1683 156.7337 425.7783 131.3438 395.0183 131.3438C365.2383 131.3438 340.3283 156.7337 340.3283 187.0137C340.3283 217.2838 365.2383 242.6738 395.0183 242.6738ZM543.4583 250.9738C568.3583 269.5338 602.5383 262.6938 620.1183 237.7938C638.6683 212.4037 631.3483 177.2437 606.4483 160.6437C580.5683 143.5538 546.8783 149.4138 529.2983 173.8238C511.7183 199.7038 518.0683 234.3737 543.4583 250.9738ZM246.5783 250.9738C271.9683 234.3737 277.8283 199.2138 260.7383 173.8238C243.1683 149.4138 208.9883 143.5538 183.5983 160.6437C158.6883 177.2437 151.3683 212.4037 169.9183 237.7938C187.9883 262.6938 221.6783 269.5338 246.5783 250.9738ZM288.5783 1129.3938H500.4883C691.4083 1129.3938 789.0583 1028.3238 789.0583 855.9538C789.0583 721.1938 673.8283 542.9638 538.5783 362.7938C512.2083 328.1237 495.1183 308.5938 447.2683 308.5938H341.7983C294.4383 308.5938 277.3483 328.1237 250.4883 362.7938C115.2383 542.9638 -0.0017 721.1938 -0.0017 855.9538C-0.0017 1028.3238 97.6583 1129.3938 288.5783 1129.3938ZM313.4783 402.8338C323.2383 390.1337 328.6183 386.2338 342.7783 386.2338H446.2883C460.4483 386.2338 465.8183 390.1337 475.5883 402.8338C503.4183 440.9138 528.8083 476.5638 552.2483 510.7438H236.8183C260.2583 476.5638 285.6483 440.9138 313.4783 402.8338ZM395.0183 735.8438C344.7283 735.8438 303.7083 766.6038 288.0883 810.5438H82.0283C94.7283 748.5338 130.8583 674.8038 185.5483 587.8938H603.5183C658.1983 674.8038 694.8283 748.5338 707.0283 810.5438H500.9783C485.8383 766.6038 444.3383 735.8438 395.0183 735.8438ZM395.0183 892.5738C369.1383 892.5738 351.0783 874.0238 351.0783 848.6338C351.0783 823.7338 369.1383 804.6838 395.0183 804.6838C419.9183 804.6838 438.4783 823.7338 438.4783 848.6338C438.4783 874.0238 419.9183 892.5738 395.0183 892.5738ZM395.0183 961.9138C443.8483 961.9138 484.8683 931.6438 500.9783 887.6938H710.4483C699.2183 992.6738 630.8583 1052.2438 500.4883 1052.2438H288.5783C158.1983 1052.2438 89.8483 992.6738 79.0983 887.6938H288.5783C304.1983 931.6438 345.2183 961.9138 395.0183 961.9138Z"/>
</svg>