<?xml version="1.0" encoding="UTF-8" standalone="no"?>
<svg xmlns="http://www.w3.org/2000/svg"
     width="897.94921875" height="949.70703125"
     viewBox="0 0 897.94921875 949.70703125"
     fill="currentColor">
  <path d="M166.0183 229.0067H731.4483C695.7983 174.3167 655.2783 118.1667 613.2783 61.5267C582.0283 20.5067 563.4783 -0.0033 510.7383 -0.0033H387.2083C334.4683 -0.0033 315.9183 20.5067 284.6683 61.5267C242.1883 118.1667 202.1483 174.3167 166.0183 229.0067ZM449.2183 500.9767C507.8083 500.9767 556.1483 538.0867 573.2383 591.3067H895.9983C884.7683 509.2767 843.2583 413.0867 783.1983 310.5467H114.2583C54.6883 413.0867 13.1883 509.2767 1.4683 591.3067H324.7083C341.7983 538.0867 390.6283 500.9767 449.2183 500.9767ZM449.2183 690.4267C482.4183 690.4267 507.8083 665.0367 507.8083 631.3467C507.8083 598.6367 482.4183 572.2667 449.2183 572.2667C416.0183 572.2667 390.1383 598.6367 390.1383 631.3467C390.1383 665.0367 416.0183 690.4267 449.2183 690.4267ZM330.5683 949.7067H566.8983C772.9483 949.7067 884.2783 847.6567 897.9483 672.8467H573.2383C556.6383 724.6067 508.2983 761.7167 449.2183 761.7167C390.6283 761.7167 341.3083 724.6067 324.7083 672.8467H-0.0017C13.1883 847.6567 124.5083 949.7067 330.5683 949.7067Z"/>
</svg>