<?xml version="1.0" encoding="UTF-8" standalone="no"?>
<svg xmlns="http://www.w3.org/2000/svg"
     width="900.87890625" height="949.70703125"
     viewBox="0 0 900.87890625 949.70703125"
     fill="currentColor">
  <path d="M332.0283 949.7067H568.3583C789.0583 949.7067 900.8783 833.4967 900.8783 635.2567C900.8783 479.9767 772.9483 272.4567 614.7483 61.5267C583.4983 20.5067 564.9383 -0.0033 512.2083 -0.0033H388.6683C335.9383 -0.0033 317.3783 20.5067 286.1283 61.5267C127.9283 272.4567 -0.0017 479.9767 -0.0017 635.2567C-0.0017 833.4967 111.8183 949.7067 332.0283 949.7067ZM350.5883 101.5667C362.3083 85.9367 371.0983 78.6167 390.1383 78.6167H510.7383C529.7883 78.6167 538.0883 85.9367 549.8083 101.5667C584.9583 149.4167 616.6983 194.8267 645.9983 237.3067H254.8783C283.6883 194.8267 315.9183 149.4167 350.5883 101.5667ZM450.6883 500.9767C393.5583 500.9767 346.1883 537.1067 330.0783 588.3767H83.0083C95.6983 512.2067 138.1883 422.3667 204.0983 315.9167H696.7783C762.6983 422.3667 805.1783 512.2067 817.8683 588.3767H570.7983C554.6883 537.1067 507.8083 500.9767 450.6883 500.9767ZM450.6883 684.5667C418.4583 684.5667 393.0683 659.6667 393.0683 626.9567C393.0683 595.2167 418.4583 569.8267 450.6883 569.8267C482.9083 569.8267 507.8083 595.2167 507.8083 626.9567C507.8083 659.6667 482.9083 684.5667 450.6883 684.5667ZM450.6883 753.4167C507.3283 753.4167 554.1983 717.7767 570.7983 666.9967H820.7983C809.5683 795.8967 726.5583 871.0967 568.3583 871.0967H332.0283C174.3183 871.0967 91.3083 795.8967 80.0783 666.9967H330.5683C346.6783 717.7767 393.5583 753.4167 450.6883 753.4167Z"/>
</svg>