<?xml version="1.0" encoding="UTF-8" standalone="no"?>
<svg xmlns="http://www.w3.org/2000/svg"
     width="1050.221495741681" height="853.02734375"
     viewBox="0 0 1050.221495741681 853.02734375"
     fill="currentColor">
  <path d="M198.1668 262.6955C415.4568 262.6955 533.1268 78.6155 737.7168 78.6155C785.5768 78.6155 828.0568 89.3555 877.8568 117.6755C898.8568 129.3955 918.3868 121.5855 928.6368 106.9355C940.8468 89.3555 939.3768 62.9855 912.0368 46.8755C856.8668 15.1355 800.2168 -0.0045 737.7168 -0.0045C516.0468 -0.0045 399.3468 184.0855 198.1668 184.0855C149.8268 184.0855 107.3468 173.3355 57.5468 145.0155C36.5468 133.3055 17.0168 141.1155 6.7668 156.2455C-4.4632 173.8255 -3.4932 200.1955 23.3668 215.8155C78.5468 247.5555 135.1868 262.6955 198.1668 262.6955ZM839.2868 853.0255C956.4668 853.0255 1050.2168 761.7155 1050.2168 646.9755C1050.2168 583.4955 1018.4868 520.9955 990.6468 469.2355L879.8068 262.6955C870.5368 245.1155 856.8668 237.3055 839.2868 237.3055C821.2168 237.3055 807.5468 245.1155 798.2668 262.6955L687.9168 469.2355C660.0868 520.9955 628.8368 583.4955 628.8368 646.9755C628.8368 761.7155 722.0968 853.0255 839.2868 853.0255ZM198.6568 524.9055C392.0168 524.9055 507.2568 376.9555 676.6868 347.6555C691.8268 318.8455 707.4468 291.0155 722.5868 262.2055C505.7868 272.4655 395.9268 446.2855 198.6568 446.2855C150.3168 446.2855 107.8368 435.0555 58.0368 406.7355C37.5268 395.0155 17.5068 402.8355 7.7368 417.9655C-3.9732 435.5455 -3.0032 461.9155 23.8568 477.5355C79.0268 509.2755 136.1568 524.9055 198.6568 524.9055ZM198.1668 786.6255C345.6268 786.6255 448.1668 699.7055 563.8968 646.4855C561.4568 624.9955 567.3068 586.4255 576.0968 557.6155C446.2168 609.8655 344.6568 708.0055 198.1668 708.0055C149.8268 708.0055 107.3468 697.2655 57.5468 668.4555C36.5468 656.7355 17.0168 664.5555 6.7668 679.6855C-4.4632 697.2655 -3.4932 724.1255 23.3668 739.2555C78.5468 771.4855 135.1868 786.6255 198.1668 786.6255Z"/>
</svg>