<?xml version="1.0" encoding="UTF-8" standalone="no"?>
<svg xmlns="http://www.w3.org/2000/svg"
     width="622.0703125" height="1018.5546875"
     viewBox="0 0 622.0703125 1018.5546875"
     fill="currentColor">
  <path d="M-0.0023 981.4464C-0.0023 1001.9564 16.1177 1018.5564 37.5977 1018.5564C330.5677 1018.5564 560.0577 819.3364 560.0577 509.2764C560.0577 372.5564 447.2677 259.7664 311.0377 259.7664C261.2277 259.7664 214.8477 276.3664 178.2277 304.1964C249.5077 159.6664 401.8577 73.7264 584.4777 73.7264C605.9577 73.7264 622.0677 57.1264 622.0677 36.6164C622.0677 16.1164 605.9577 -0.0036 584.4777 -0.0036C291.5077 -0.0036 62.4977 198.7264 62.4977 509.2764C62.4977 645.5064 175.2977 758.2964 311.0377 758.2964C361.3277 758.2964 407.2277 741.6964 443.8477 714.3564C372.5577 858.8864 219.7277 944.8264 37.5977 944.8264C16.1177 944.8264 -0.0023 960.9364 -0.0023 981.4464ZM240.2377 509.2764C240.2377 470.2164 272.4577 438.4764 311.0377 438.4764C350.0977 438.4764 381.8377 470.2164 381.8377 509.2764C381.8377 547.3664 350.0977 580.0764 311.0377 580.0764C272.4577 580.0764 240.2377 547.8564 240.2377 509.2764Z"/>
</svg>