<?xml version="1.0" encoding="UTF-8" standalone="no"?>
<svg xmlns="http://www.w3.org/2000/svg"
     width="996.09375" height="996.09375"
     viewBox="0 0 996.09375 996.09375"
     fill="currentColor">
  <path d="M498.0477 996.0977C770.5077 996.0977 996.0977 770.5077 996.0977 498.0477C996.0977 226.0777 770.0177 -0.0023 497.5577 -0.0023C225.5877 -0.0023 -0.0023 226.0777 -0.0023 498.0477C-0.0023 770.5077 226.0777 996.0977 498.0477 996.0977ZM337.3977 498.0477C337.3977 301.7577 482.9077 174.8077 668.4577 174.8077C685.0577 174.8077 697.2677 187.4977 697.2677 203.6177C697.2677 219.2377 685.5477 232.4177 668.4577 232.4177C563.9677 232.4177 478.0277 277.8277 431.1477 355.4677C450.6877 343.2577 473.6377 336.9177 498.0477 336.9177C585.4477 336.9177 658.6877 409.6677 658.6877 498.0477C658.6877 694.3377 513.1877 821.2877 328.1277 821.2877C310.5477 821.2877 298.8277 808.1077 298.8277 792.9677C298.8277 776.8577 310.5477 763.6677 328.1277 763.6677C432.1277 763.6677 518.0677 718.7477 564.9377 641.1177C545.4077 652.8277 522.4577 659.1777 498.0477 659.1777C410.6477 659.1777 337.3977 586.4277 337.3977 498.0477ZM448.2377 498.0477C448.2377 525.3877 470.7077 547.8477 498.0477 547.8477C525.3877 547.8477 547.8477 524.8977 547.8477 498.0477C547.8477 470.7077 525.3877 448.2377 498.0477 448.2377C470.7077 448.2377 448.2377 470.7077 448.2377 498.0477Z"/>
</svg>