<?xml version="1.0" encoding="UTF-8" standalone="no"?>
<svg xmlns="http://www.w3.org/2000/svg"
     width="996.09375" height="996.09375"
     viewBox="0 0 996.09375 996.09375"
     fill="currentColor">
  <path d="M498.0477 996.0959C770.5077 996.0959 996.0977 770.0159 996.0977 498.0459C996.0977 225.5859 770.0177 -0.0041 497.5577 -0.0041C225.5877 -0.0041 -0.0023 225.5859 -0.0023 498.0459C-0.0023 770.0159 226.0777 996.0959 498.0477 996.0959ZM498.0477 913.0859C267.5777 913.0859 83.4977 728.5159 83.4977 498.0459C83.4977 267.5759 267.0877 83.0059 497.5577 83.0059C728.0277 83.0059 913.0877 267.5759 913.0877 498.0459C913.0877 728.5159 728.5177 913.0859 498.0477 913.0859ZM342.2877 498.0459C342.2877 583.4959 413.0877 654.2959 498.0477 654.2959C521.9777 654.2959 544.4377 647.9459 563.4777 636.7159C518.0677 711.9159 434.0777 755.8559 333.0077 755.8559C316.4077 755.8559 304.6877 768.5559 304.6877 783.6959C304.6877 798.8259 316.4077 811.5259 333.0077 811.5259C512.6977 811.5259 653.8077 688.4759 653.8077 498.0459C653.8077 412.5959 583.0077 341.7959 498.0477 341.7959C474.1177 341.7959 451.6577 348.1459 432.6177 359.3759C478.0277 284.1759 562.0077 240.2359 663.5777 240.2359C679.6877 240.2359 691.4077 227.5359 691.4077 211.9159C691.4077 196.7759 679.1977 184.5659 663.5777 184.5659C483.3977 184.5659 342.2877 307.6159 342.2877 498.0459ZM449.7077 498.0459C449.7077 471.6759 471.6777 449.7059 498.0477 449.7059C524.4177 449.7059 546.3877 471.6759 546.3877 498.0459C546.3877 523.9259 524.4177 546.3859 498.0477 546.3859C471.6777 546.3859 449.7077 524.4159 449.7077 498.0459Z"/>
</svg>