<?xml version="1.0" encoding="UTF-8" standalone="no"?>
<svg xmlns="http://www.w3.org/2000/svg"
     width="898.92578125" height="898.92578125"
     viewBox="0 0 898.92578125 898.92578125"
     fill="currentColor">
  <path d="M153.3183 898.9295H745.6083C848.1483 898.9295 898.9283 848.1495 898.9283 747.5595V151.3695C898.9283 50.7795 848.1483 -0.0005 745.6083 -0.0005H153.3183C51.2683 -0.0005 -0.0017 50.2895 -0.0017 151.3695V747.5595C-0.0017 848.6295 51.2683 898.9295 153.3183 898.9295ZM449.2183 679.6895C423.3383 679.6895 409.1783 660.6395 409.1783 633.7895V254.3895C409.1783 227.5395 423.3383 208.4995 449.2183 208.4995C475.5883 208.4995 490.2383 226.0695 490.2383 254.3895V633.7895C490.2383 662.1095 475.5883 679.6895 449.2183 679.6895Z"/>
</svg>