<?xml version="1.0" encoding="UTF-8" standalone="no"?>
<svg xmlns="http://www.w3.org/2000/svg"
     width="1227.5390625" height="1091.796875"
     viewBox="0 0 1227.5390625 1091.796875"
     fill="currentColor">
  <path d="M743.6477 723.1467V801.7567H987.7977C1137.6977 801.7567 1227.5377 711.4267 1227.5377 593.2567C1227.5377 494.6267 1168.4577 413.5767 1073.2377 374.9967C1074.2177 157.2267 917.4777 -0.0033 717.7777 -0.0033C585.4477 -0.0033 491.2077 70.7967 432.6177 156.2467C321.7777 126.4667 181.6377 212.4067 179.1977 349.6067C68.8477 366.6967 -0.0023 457.0267 -0.0023 572.2667C-0.0023 699.2167 95.2177 801.7567 255.3677 801.7567H488.2777V723.1467H254.8877C139.1577 723.1467 78.6177 656.2467 78.6177 572.2667C78.6177 479.0067 137.6977 409.6667 241.2077 409.6667C248.0477 409.6667 250.4877 405.7567 250.4877 399.4167C250.4877 249.5067 358.3977 208.0067 458.9877 237.3067C464.8477 239.2567 468.2577 238.2767 471.1877 232.9067C518.5577 148.4367 591.3077 78.6167 717.7777 78.6167C877.9277 78.6167 988.7677 205.5667 997.0677 351.0767C998.5377 373.0467 997.0677 399.4167 995.1177 422.3667C994.6277 428.7067 997.0677 432.6167 1002.9277 433.5967C1091.7977 453.1267 1148.9277 508.7867 1148.9277 593.2567C1148.9277 668.4567 1094.2377 723.1467 987.3077 723.1467ZM616.2077 1091.7967C625.9777 1091.7967 633.7877 1087.8867 644.0477 1078.6167L809.0777 924.3167C816.8977 917.4767 820.7977 909.1767 820.7977 898.4367C820.7977 878.9067 805.1777 864.2567 785.1577 864.2567C775.8777 864.2567 766.1177 868.6567 758.7877 875.9767L684.5677 950.1967L651.8577 984.3767L654.7877 911.6167V492.6767C654.7877 472.1667 637.2077 454.5867 616.2077 454.5867C595.2177 454.5867 577.1477 472.1667 577.1477 492.6767V911.6167L580.0777 984.8667L547.3677 950.1967L473.1477 875.9767C465.8177 868.6567 455.5677 864.2567 446.2877 864.2567C425.7777 864.2567 411.1377 878.9067 411.1377 898.4367C411.1377 909.1767 415.0377 917.4767 422.8477 924.3167L587.8877 1078.6167C598.1477 1087.8867 605.9577 1091.7967 616.2077 1091.7967Z"/>
</svg>