<?xml version="1.0" encoding="UTF-8" standalone="no"?>
<svg xmlns="http://www.w3.org/2000/svg"
     width="1227.5390625" height="1091.796875"
     viewBox="0 0 1227.5390625 1091.796875"
     fill="currentColor">
  <path d="M265.1377 801.7567H568.3577V502.4367C568.3577 476.5667 590.8177 454.5867 617.1877 454.5867C643.5577 454.5867 665.5277 476.5667 665.5277 502.4367V801.7567H992.6777C1133.2977 801.7567 1227.5377 713.8667 1227.5377 598.1467C1227.5377 502.4367 1168.4577 414.5467 1073.2377 374.9967C1074.2177 157.2267 917.4777 -0.0033 717.7777 -0.0033C585.4477 -0.0033 491.2077 70.7967 432.6177 156.2467C321.7777 126.4667 181.6377 212.4067 179.1977 349.6067C68.8477 367.1867 -0.0023 464.3567 -0.0023 577.1467C-0.0023 701.6567 104.9777 801.7567 265.1377 801.7567ZM617.1877 1091.7967C626.9577 1091.7967 635.2577 1088.3767 645.0177 1078.6167L810.0577 919.4367C817.3877 912.1067 821.7777 904.2967 821.7777 893.5567C821.7777 874.0267 806.1477 859.3767 786.1377 859.3767C776.8577 859.3767 766.5977 863.2767 759.7677 871.0967L685.5477 950.1967L652.8277 984.3767L655.7577 911.6167V801.2667C655.7577 780.7567 638.1877 763.1867 617.1877 763.1867C596.1877 763.1867 578.1277 780.7567 578.1277 801.2667V911.6167L581.0577 984.8667L548.3377 950.1967L474.1177 871.0967C467.2877 863.2767 456.5477 859.3767 447.2677 859.3767C426.7577 859.3767 412.1077 874.0267 412.1077 893.5567C412.1077 904.2967 416.5077 912.1067 423.8277 919.4367L588.8677 1078.6167C598.6377 1088.3767 606.9377 1091.7967 617.1877 1091.7967Z"/>
</svg>