<?xml version="1.0" encoding="UTF-8" standalone="no"?>
<svg xmlns="http://www.w3.org/2000/svg"
     width="1227.5390625" height="983.642578125"
     viewBox="0 0 1227.5390625 983.642578125"
     fill="currentColor">
  <path d="M1022.9477 840.3363C1144.0477 815.9163 1227.5377 721.1963 1227.5377 606.4463C1227.5377 503.9063 1168.4577 415.0363 1073.2377 374.9962C1074.2177 157.2263 917.4777 -0.0037 717.7777 -0.0037C585.4477 -0.0037 491.2077 70.7962 432.6177 156.2463C402.3477 147.9462 369.1377 147.9462 338.3777 156.2463L413.0877 230.9562C427.7377 230.4662 443.8477 232.9063 458.9877 237.3063C464.8477 239.2563 468.2577 237.7963 471.1877 232.4263C518.5577 147.9462 591.3077 78.6163 717.7777 78.6163C877.9277 78.6163 988.7677 205.5662 997.0677 350.5863C998.5377 373.0463 997.0677 399.4163 995.1177 422.3663C994.6277 428.7063 997.0677 432.1263 1002.9277 433.5963C1091.7977 453.1263 1148.9277 518.0663 1148.9277 606.4463C1148.9277 697.2663 1068.8477 770.0163 964.8477 770.0163H952.6377ZM965.8177 972.6563C980.4677 987.3063 1004.3977 987.3063 1019.0477 972.6563C1033.6877 958.0063 1033.6877 934.0863 1019.0477 919.4363L204.0977 104.9763C189.4577 89.8463 165.0377 90.8162 150.3877 104.9763C136.2277 119.1363 136.7177 144.5263 150.3877 158.2062ZM292.4777 848.6363H759.7677L680.6677 770.0163H292.4777C169.4377 770.0163 78.6177 684.0863 78.6177 584.4762C78.6177 486.8163 137.6977 409.1763 241.2077 409.1763C248.0477 409.1763 250.4877 405.7663 250.4877 399.4163C250.4877 380.3663 252.9277 362.7963 258.2977 348.1463L193.3577 283.2062C184.0777 302.7363 179.6877 325.1963 179.1977 349.1163C68.8477 366.6963 -0.0023 465.3363 -0.0023 584.4762C-0.0023 728.0263 125.4877 848.6363 292.4777 848.6363Z"/>
</svg>