<?xml version="1.0" encoding="UTF-8" standalone="no"?>
<svg xmlns="http://www.w3.org/2000/svg"
     width="1227.5390625" height="1051.7578125"
     viewBox="0 0 1227.5390625 1051.7578125"
     fill="currentColor">
  <path d="M743.6477 723.1467V801.7567H987.7977C1137.6977 801.7567 1227.5377 711.4267 1227.5377 593.2567C1227.5377 494.6267 1168.4577 413.5767 1073.2377 374.9967C1074.2177 157.2267 917.4777 -0.0033 717.7777 -0.0033C585.4477 -0.0033 491.2077 70.7967 432.6177 156.2467C321.7777 126.4667 181.6377 212.4067 179.1977 349.6067C68.8477 366.6967 -0.0023 457.0267 -0.0023 572.2667C-0.0023 699.2167 95.2177 801.7567 255.3677 801.7567H488.2777V723.1467H254.8877C139.1577 723.1467 78.6177 656.2467 78.6177 572.2667C78.6177 479.0067 137.6977 409.6667 241.2077 409.6667C248.0477 409.6667 250.4877 405.7567 250.4877 399.4167C250.4877 249.5067 358.3977 208.0067 458.9877 237.3067C464.8477 239.2567 468.2577 238.2767 471.1877 232.9067C518.5577 148.4367 591.3077 78.6167 717.7777 78.6167C877.9277 78.6167 988.7677 205.5667 997.0677 351.0767C998.5377 373.0467 997.0677 399.4167 995.1177 422.3667C994.6277 428.7067 997.0677 432.6167 1002.9277 433.5967C1091.7977 453.1267 1148.9277 508.7867 1148.9277 593.2567C1148.9277 668.4567 1094.2377 723.1467 987.3077 723.1467ZM616.2077 1051.7567C637.2077 1051.7567 654.7877 1034.6667 654.7877 1014.1567V556.1567L651.8577 465.8167L684.5677 500.4867L758.7877 574.2167C766.1177 581.5467 775.8777 585.9367 785.1577 585.9367C805.1777 585.9367 820.7977 571.7767 820.7977 551.7567C820.7977 541.5067 816.8977 532.7167 809.0777 525.8767L644.0477 371.5867C633.7877 362.3067 625.9777 358.8867 616.2077 358.8867C605.9577 358.8867 598.1477 362.3067 587.8877 371.5867L422.8477 525.8767C415.0377 532.7167 411.1377 541.5067 411.1377 551.7567C411.1377 571.7767 425.7777 585.9367 446.2877 585.9367C455.5677 585.9367 465.8177 581.5467 473.1477 574.2167L547.3677 500.4867L580.0777 465.8167L577.1477 556.1567V1014.1567C577.1477 1034.6667 595.2177 1051.7567 616.2077 1051.7567Z"/>
</svg>