<?xml version="1.0" encoding="UTF-8" standalone="no"?>
<svg xmlns="http://www.w3.org/2000/svg"
     width="1227.5390625" height="983.642578125"
     viewBox="0 0 1227.5390625 983.642578125"
     fill="currentColor">
  <path d="M1022.9477 840.3363C1143.5577 815.9163 1227.5377 721.1963 1227.5377 606.4463C1227.5377 503.9063 1168.4577 415.0363 1073.2377 374.9962C1074.2177 157.2263 917.4777 -0.0037 717.7777 -0.0037C585.4477 -0.0037 491.2077 70.7962 432.6177 156.2463C402.8277 146.9763 369.1377 146.4863 337.3977 155.2763ZM965.8177 972.6563C980.4677 987.3063 1004.3977 987.3063 1019.0477 972.6563C1033.6877 958.0063 1033.6877 934.0863 1019.0477 919.4363L204.0977 104.9763C189.4577 89.8463 165.0377 90.8162 150.3877 104.9763C136.2277 119.1363 136.7177 144.5263 150.3877 158.2062ZM292.4777 848.6363H759.7677L192.8677 282.7162C184.0777 302.7363 179.6877 325.1963 179.1977 349.1163C68.8477 366.6963 -0.0023 465.3363 -0.0023 584.4762C-0.0023 728.0263 125.4877 848.6363 292.4777 848.6363Z"/>
</svg>