<?xml version="1.0" encoding="UTF-8" standalone="no"?>
<svg xmlns="http://www.w3.org/2000/svg"
     width="1227.5390625" height="1051.26953125"
     viewBox="0 0 1227.5390625 1051.26953125"
     fill="currentColor">
  <path d="M-0.0023 577.1467C-0.0023 701.6567 104.9777 801.7567 265.1377 801.7567H578.1277V1013.6767C578.1277 1034.1767 596.1877 1051.2667 617.1877 1051.2667C638.1877 1051.2667 655.7577 1034.1767 655.7577 1013.6767V801.7567H992.6777C1133.2977 801.7567 1227.5377 713.8667 1227.5377 598.1467C1227.5377 502.4367 1168.4577 414.5467 1073.2377 374.9967C1074.2177 157.2267 917.4777 -0.0033 717.7777 -0.0033C585.4477 -0.0033 491.2077 70.7967 432.6177 156.2467C321.7777 126.4667 181.6377 212.4067 179.1977 349.6067C68.8477 367.1867 -0.0023 464.3567 -0.0023 577.1467ZM578.1277 781.7367V530.2767L581.0577 457.5167L556.1477 483.8867L474.1177 570.7967C467.2877 578.6167 456.5477 582.5167 447.2677 582.5167C426.7577 582.5167 412.1077 567.8667 412.1077 548.3367C412.1077 537.5967 416.5077 529.7867 423.8277 522.4567L588.8677 363.2767C598.6377 353.5167 606.9377 350.0967 617.1877 350.0967C626.9577 350.0967 635.2577 353.5167 645.0177 363.2767L810.0577 522.4567C817.3877 529.7867 821.7777 537.5967 821.7777 548.3367C821.7777 567.8667 806.1477 582.5167 786.1377 582.5167C776.8577 582.5167 766.5977 578.6167 759.7677 570.7967L677.7377 483.8867L652.8277 457.5167L655.7577 530.2767V781.7367C655.7577 803.2267 638.1877 820.3167 617.1877 820.3167C595.7077 820.3167 578.1277 803.2267 578.1277 781.7367Z"/>
</svg>