<?xml version="1.0" encoding="UTF-8" standalone="no"?>
<svg xmlns="http://www.w3.org/2000/svg"
     width="898.92578125" height="898.92578125"
     viewBox="0 0 898.92578125 898.92578125"
     fill="currentColor">
  <path d="M153.3183 898.9295H745.6083C848.1483 898.9295 898.9283 848.1495 898.9283 747.5595V151.3695C898.9283 50.7795 848.1483 -0.0005 745.6083 -0.0005H153.3183C51.2683 -0.0005 -0.0017 50.2895 -0.0017 151.3695V747.5595C-0.0017 848.6295 51.2683 898.9295 153.3183 898.9295ZM154.2983 820.3095C105.4683 820.3095 78.6183 794.4295 78.6183 743.6495V155.2695C78.6183 104.4895 105.4683 78.6095 154.2983 78.6095H744.6283C792.9683 78.6095 820.3083 104.4895 820.3083 155.2695V743.6495C820.3083 794.4295 792.9683 820.3095 744.6283 820.3095ZM275.3883 627.9295H646.4883C704.5883 627.9295 749.9983 581.5395 749.9983 524.8995C749.9983 476.0695 717.2883 435.5495 673.8283 424.8095C674.3183 419.9195 674.8083 415.0395 674.8083 410.6395C674.8083 311.5195 595.6983 230.9595 494.1383 230.9595C434.5683 230.9595 381.8383 259.2795 349.1183 304.1995C342.7783 302.7295 335.4483 301.7595 329.5883 301.7595C279.2983 301.7595 236.8183 338.3795 229.4883 388.6695C184.0783 406.7395 150.3883 451.1695 150.3883 504.3895C150.3883 584.9595 204.5883 627.9295 275.3883 627.9295Z"/>
</svg>