<?xml version="1.0" encoding="UTF-8" standalone="no"?>
<svg xmlns="http://www.w3.org/2000/svg"
     width="1128.9107255529973" height="840.8203125"
     viewBox="0 0 1128.9107255529973 840.8203125"
     fill="currentColor">
  <path d="M475.5928 73.7341H1091.8028C1112.3128 73.7341 1128.9128 57.6141 1128.9128 36.6241C1128.9128 16.1141 1112.3128 0.0041 1091.8028 0.0041H475.5928C454.5928 0.0041 438.4828 16.1141 438.4828 36.6241C438.4828 57.6141 454.5928 73.7341 475.5928 73.7341ZM475.5928 329.5941H1091.8028C1112.3128 329.5941 1128.9128 313.4741 1128.9128 292.4841C1128.9128 271.9741 1112.3128 255.8641 1091.8028 255.8641H475.5928C454.5928 255.8641 438.4828 271.9741 438.4828 292.4841C438.4828 313.4741 454.5928 329.5941 475.5928 329.5941ZM76.6628 570.3141L238.2828 462.4041C267.0928 442.8741 266.1228 401.3641 238.2828 381.8341L76.6628 271.9741C39.0628 246.5841 -0.4872 260.7441 0.0028 305.6641V537.1141C-0.4872 580.5641 40.5328 593.7541 76.6628 570.3141ZM475.5928 585.4541H1091.8028C1112.3128 585.4541 1128.9128 568.8441 1128.9128 548.3441C1128.9128 527.8341 1112.3128 511.7141 1091.8028 511.7141H475.5928C454.5928 511.7141 438.4828 527.8341 438.4828 548.3441C438.4828 568.8441 454.5928 585.4541 475.5928 585.4541ZM475.5928 840.8241H842.2928C862.7928 840.8241 879.8828 824.7041 879.8828 804.2041C879.8828 783.6941 862.7928 767.0941 842.2928 767.0941H475.5928C454.5928 767.0941 438.4828 783.6941 438.4828 804.2041C438.4828 824.7041 454.5928 840.8241 475.5928 840.8241Z"/>
</svg>