<?xml version="1.0" encoding="UTF-8" standalone="no"?>
<svg xmlns="http://www.w3.org/2000/svg"
     width="996.09375" height="996.09375"
     viewBox="0 0 996.09375 996.09375"
     fill="currentColor">
  <path d="M498.0477 996.0959C770.5077 996.0959 996.0977 770.0159 996.0977 498.0459C996.0977 225.5859 770.0177 -0.0041 497.5577 -0.0041C225.5877 -0.0041 -0.0023 225.5859 -0.0023 498.0459C-0.0023 770.0159 226.0777 996.0959 498.0477 996.0959ZM498.0477 913.0859C267.5777 913.0859 83.4977 728.5159 83.4977 498.0459C83.4977 267.5759 267.0877 83.0059 497.5577 83.0059C728.0277 83.0059 913.0877 267.5759 913.0877 498.0459C913.0877 728.5159 728.5177 913.0859 498.0477 913.0859ZM557.1277 742.6759C573.2377 742.6759 586.4277 731.9359 586.4277 714.3559C586.4277 704.1059 581.0577 695.7959 573.7277 688.9659L429.1977 554.1959H442.3877C538.5777 554.1959 585.9377 500.4859 596.1877 438.9659H641.5977C655.7577 438.9659 665.5277 428.2259 665.5277 415.0359C665.5277 400.8759 655.7577 390.6259 641.5977 390.6259H596.6777C593.2577 365.2359 583.4977 342.7759 567.8677 325.1959H639.1577C653.3177 325.1959 663.0877 313.9659 663.0877 300.7859C663.0877 286.6259 653.3177 276.8559 639.1577 276.8559H358.3977C342.2877 276.8559 329.5877 289.0659 329.5877 305.6659C329.5877 321.2859 342.2877 334.9559 358.3977 334.9559H446.2877C489.7477 334.9559 520.0177 355.4659 529.2977 390.6259H357.9077C344.2377 390.6259 333.9877 400.8759 333.9877 415.0359C333.9877 428.2259 344.2377 438.9659 357.9077 438.9659H530.2777C521.4877 477.0459 489.2577 496.0959 439.9377 496.0959H368.6477C348.6377 496.0959 333.9877 508.7859 333.9877 529.2959C333.9877 545.8959 341.7977 553.7059 351.5577 562.9859L528.3177 729.4959C539.0577 739.7459 546.8777 742.6759 557.1277 742.6759Z"/>
</svg>