<?xml version="1.0" encoding="UTF-8" standalone="no"?>
<svg xmlns="http://www.w3.org/2000/svg"
     width="898.92578125" height="898.92578125"
     viewBox="0 0 898.92578125 898.92578125"
     fill="currentColor">
  <path d="M153.3183 898.9295H745.6083C848.1483 898.9295 898.9283 848.1495 898.9283 747.5595V151.3695C898.9283 50.7795 848.1483 -0.0005 745.6083 -0.0005H153.3183C51.2683 -0.0005 -0.0017 50.2895 -0.0017 151.3695V747.5595C-0.0017 848.6295 51.2683 898.9295 153.3183 898.9295ZM154.2983 820.3095C105.4683 820.3095 78.6183 794.4295 78.6183 743.6495V155.2695C78.6183 104.4895 105.4683 78.6095 154.2983 78.6095H744.6283C792.9683 78.6095 820.3083 104.4895 820.3083 155.2695V743.6495C820.3083 794.4295 792.9683 820.3095 744.6283 820.3095ZM509.2783 693.3595C525.3883 693.3595 539.0583 682.6195 539.0583 665.0395C539.0583 654.7895 533.1983 646.4795 525.8783 639.6495L381.8383 504.8795H394.5283C490.7183 504.8795 538.0883 451.1695 548.3383 389.6495H593.7483C607.9083 389.6495 617.6783 378.9095 617.6783 365.7195C617.6783 351.5595 607.9083 341.3095 593.7483 341.3095H548.8283C545.4083 315.9195 536.1283 293.4595 520.0183 275.8795H591.3083C605.4683 275.8795 615.2383 264.6495 615.2383 251.4695C615.2383 237.3095 605.4683 227.5395 591.3083 227.5395H310.5483C294.9183 227.5395 281.7383 239.7495 281.7383 256.3495C281.7383 271.9695 294.9183 285.6395 310.5483 285.6395H398.4383C441.8983 285.6395 472.1683 306.1495 481.4483 341.3095H310.0583C296.3883 341.3095 286.1283 351.5595 286.1283 365.7195C286.1283 378.9095 296.3883 389.6495 310.0583 389.6495H482.4183C473.6283 427.7295 441.4083 446.7795 392.0883 446.7795H320.7983C300.7783 446.7795 286.1283 459.4695 286.1283 479.9795C286.1283 496.5795 293.9483 504.3895 303.7083 513.6695L480.4683 680.1795C491.2083 690.4295 499.0283 693.3595 509.2783 693.3595Z"/>
</svg>