<?xml version="1.0" encoding="UTF-8" standalone="no"?>
<svg xmlns="http://www.w3.org/2000/svg"
     width="898.92578125" height="898.92578125"
     viewBox="0 0 898.92578125 898.92578125"
     fill="currentColor">
  <path d="M153.3183 898.9295H745.6083C848.1483 898.9295 898.9283 848.1495 898.9283 747.5595V151.3695C898.9283 50.7795 848.1483 -0.0005 745.6083 -0.0005H153.3183C51.2683 -0.0005 -0.0017 50.2895 -0.0017 151.3695V747.5595C-0.0017 848.6295 51.2683 898.9295 153.3183 898.9295ZM511.2283 701.1695C500.4883 701.1695 492.1883 698.2395 480.9583 687.4995L298.8283 516.1095C289.0583 506.3495 280.7583 498.5395 280.7583 481.4495C280.7583 459.9595 295.8983 446.7795 316.8983 446.7795H390.1383C440.9183 446.7795 474.1183 427.2495 483.3983 388.1795H305.6683C291.5083 388.1795 280.7583 376.9495 280.7583 363.2795C280.7583 348.6295 291.5083 337.8895 305.6683 337.8895H481.9383C472.6583 301.7595 441.4083 280.7595 396.4883 280.7595H306.1483C290.0383 280.7595 276.3683 266.5995 276.3683 250.4895C276.3683 233.3995 290.0383 220.6995 306.1483 220.6995H595.6983C610.3483 220.6995 620.6083 230.4695 620.6083 245.1195C620.6083 258.7895 610.3483 270.5095 595.6983 270.5095H522.4583C539.0583 288.5695 548.3383 312.0095 552.2483 337.8895H598.6283C613.2783 337.8895 623.0483 348.6295 623.0483 363.2795C623.0483 376.9495 613.2783 388.1795 598.6283 388.1795H551.2683C541.0183 451.6595 492.1883 506.8395 393.0683 506.8395H379.8783L528.3183 645.5095C535.6483 652.8295 541.9883 661.6195 541.9883 671.8795C541.9883 690.4295 527.8283 701.1695 511.2283 701.1695Z"/>
</svg>