<?xml version="1.0" encoding="UTF-8" standalone="no"?>
<svg xmlns="http://www.w3.org/2000/svg"
     width="1272.94921875" height="582.03125"
     viewBox="0 0 1272.94921875 582.03125"
     fill="currentColor">
  <path d="M-0.0023 291.0147C-0.0023 467.7747 110.8377 582.0347 273.4377 582.0347C361.8177 582.0347 435.0577 544.4347 515.6277 466.7947L636.7177 350.5847L757.3277 466.7947C838.3777 544.4347 911.6177 582.0347 999.5077 582.0347C1162.1077 582.0347 1272.9477 467.7747 1272.9477 291.0147C1272.9477 114.2547 1162.1077 0.0047 999.5077 0.0047C911.6177 0.0047 838.3777 37.5947 757.3277 115.2347L636.7177 231.4447L515.6277 115.2347C435.0577 37.5947 361.8177 0.0047 273.4377 0.0047C110.8377 0.0047 -0.0023 114.2547 -0.0023 291.0147ZM88.3777 291.0147C88.3777 167.4847 164.0577 88.3747 273.4377 88.3747C335.9377 88.3747 390.6277 118.6547 453.6177 177.7347L574.7077 291.0147L453.1277 404.2947C390.1377 462.8947 335.9377 493.6547 273.4377 493.6547C164.0577 493.6547 88.3777 414.5547 88.3777 291.0147ZM698.2377 291.0147L819.3377 177.7347C882.3277 118.6547 937.0077 88.3747 999.5077 88.3747C1109.3777 88.3747 1184.5677 167.4847 1184.5677 291.0147C1184.5677 414.5547 1109.3777 493.6547 999.5077 493.6547C937.0077 493.6547 882.8077 462.8947 819.8277 404.2947Z"/>
</svg>