<?xml version="1.0" encoding="UTF-8" standalone="no"?>
<svg xmlns="http://www.w3.org/2000/svg"
     width="996.09375" height="996.09375"
     viewBox="0 0 996.09375 996.09375"
     fill="currentColor">
  <path d="M498.0477 996.0959C770.5077 996.0959 996.0977 770.0159 996.0977 498.0459C996.0977 225.5859 770.0177 -0.0041 497.5577 -0.0041C225.5877 -0.0041 -0.0023 225.5859 -0.0023 498.0459C-0.0023 770.0159 226.0777 996.0959 498.0477 996.0959ZM498.0477 913.0859C267.5777 913.0859 83.4977 728.5159 83.4977 498.0459C83.4977 267.5759 267.0877 83.0059 497.5577 83.0059C728.0277 83.0059 913.0877 267.5759 913.0877 498.0459C913.0877 728.5159 728.5177 913.0859 498.0477 913.0859ZM168.9477 498.0459C168.9477 590.8159 227.5377 652.3459 314.9377 652.3459C361.3277 652.3459 400.3877 632.8159 442.8677 592.2859L498.0477 539.5459L553.7077 592.2859C597.1677 633.7859 635.7377 652.3459 681.1477 652.3459C769.0477 652.3459 827.6377 590.8159 827.6377 498.0459C827.6377 405.2759 769.0477 343.2659 681.1477 343.2659C635.2577 343.2659 596.6777 361.8159 553.7077 403.3159L498.0477 456.5459L442.8677 403.3159C400.8777 363.2859 361.8177 343.2659 314.9377 343.2659C227.5377 343.2659 168.9477 405.2759 168.9477 498.0459ZM229.4877 498.0459C229.4877 440.9159 263.1877 403.3159 314.9377 403.3159C342.7777 403.3159 367.1877 416.0159 400.3877 447.2659L455.0777 498.0459L400.3877 548.8259C368.1677 579.1059 343.2577 592.2859 314.9377 592.2859C263.1877 592.2859 229.4877 555.1759 229.4877 498.0459ZM541.5077 498.0459L595.7077 447.2659C628.9077 416.0159 653.8077 403.3159 681.1477 403.3159C732.9077 403.3159 767.0877 440.9159 767.0877 498.0459C767.0877 555.1759 732.9077 592.2859 681.1477 592.2859C652.8277 592.2859 627.9277 579.1059 595.7077 548.8259Z"/>
</svg>