<?xml version="1.0" encoding="UTF-8" standalone="no"?>
<svg xmlns="http://www.w3.org/2000/svg"
     width="898.92578125" height="898.92578125"
     viewBox="0 0 898.92578125 898.92578125"
     fill="currentColor">
  <path d="M153.3183 898.9295H745.6083C848.1483 898.9295 898.9283 848.1495 898.9283 747.5595V151.3695C898.9283 50.7795 848.1483 -0.0005 745.6083 -0.0005H153.3183C51.2683 -0.0005 -0.0017 50.2895 -0.0017 151.3695V747.5595C-0.0017 848.6295 51.2683 898.9295 153.3183 898.9295ZM154.2983 820.3095C105.4683 820.3095 78.6183 794.4295 78.6183 743.6495V155.2695C78.6183 104.4895 105.4683 78.6095 154.2983 78.6095H744.6283C792.9683 78.6095 820.3083 104.4895 820.3083 155.2695V743.6495C820.3083 794.4295 792.9683 820.3095 744.6283 820.3095ZM445.7983 279.7895C481.4483 279.7895 509.2783 251.4695 509.2783 215.8195C509.2783 180.1795 481.4483 151.8595 445.7983 151.8595C410.6483 151.8595 382.3283 180.1795 382.3283 215.8195C382.3283 251.4695 410.6483 279.7895 445.7983 279.7895ZM364.7483 722.1695H563.4783C583.4983 722.1695 599.1183 707.5195 599.1183 687.4995C599.1183 668.4595 583.4983 653.3195 563.4783 653.3195H502.9283V404.7895C502.9283 378.4195 489.7483 360.8395 464.8483 360.8395H373.0483C353.0283 360.8395 337.3983 375.9795 337.3983 395.0195C337.3983 415.0395 353.0283 429.6895 373.0483 429.6895H425.2883V653.3195H364.7483C344.7283 653.3195 329.0983 668.4595 329.0983 687.4995C329.0983 707.5195 344.7283 722.1695 364.7483 722.1695Z"/>
</svg>