<?xml version="1.0" encoding="UTF-8" standalone="no"?>
<svg xmlns="http://www.w3.org/2000/svg"
     width="395.01953125" height="756.34765625"
     viewBox="0 0 395.01953125 756.34765625"
     fill="currentColor">
  <path d="M121.0983 70.8022C121.0983 109.8622 152.3483 141.1122 191.4083 141.1122C230.9583 141.1122 261.2283 109.8622 261.2283 70.8022C261.2283 31.2522 230.9583 0.0022 191.4083 0.0022C152.3483 0.0022 121.0983 31.2522 121.0983 70.8022ZM-0.0017 716.3122C-0.0017 740.2322 17.0883 756.3522 42.9683 756.3522H352.0483C377.9283 756.3522 395.0183 740.2322 395.0183 716.3122C395.0183 692.8722 377.9283 676.7622 352.0483 676.7622H253.9083V304.2022C253.9083 277.8322 236.8183 260.2522 211.4283 260.2522H56.6383C31.2483 260.2522 13.6683 275.8822 13.6683 299.3122C13.6683 323.7322 31.2483 339.8422 56.6383 339.8422H163.5783V676.7622H42.9683C17.0883 676.7622 -0.0017 692.8722 -0.0017 716.3122Z"/>
</svg>