<?xml version="1.0" encoding="UTF-8" standalone="no"?>
<svg xmlns="http://www.w3.org/2000/svg"
     width="898.92578125" height="898.92578125"
     viewBox="0 0 898.92578125 898.92578125"
     fill="currentColor">
  <path d="M153.3183 898.9295H745.6083C848.1483 898.9295 898.9283 848.1495 898.9283 747.5595V151.3695C898.9283 50.7795 848.1483 -0.0005 745.6083 -0.0005H153.3183C51.2683 -0.0005 -0.0017 50.2895 -0.0017 151.3695V747.5595C-0.0017 848.6295 51.2683 898.9295 153.3183 898.9295ZM445.3083 275.3895C408.6883 275.3895 379.3983 246.0895 379.3983 208.9795C379.3983 171.8795 408.6883 142.5795 445.3083 142.5795C481.9383 142.5795 510.7383 171.8795 510.7383 208.9795C510.7383 246.0895 481.9383 275.3895 445.3083 275.3895ZM361.8183 731.4495C340.8183 731.4495 324.7083 716.3095 324.7083 695.3095C324.7083 675.7795 340.8183 659.6695 361.8183 659.6695H423.8283V430.1795H370.1183C349.6083 430.1795 333.4983 415.0395 333.4983 394.0395C333.4983 374.5095 349.6083 358.3995 370.1183 358.3995H464.8483C490.7183 358.3995 504.3983 376.9495 504.3983 404.2995V659.6695H566.4083C587.3983 659.6695 603.5183 675.7795 603.5183 695.3095C603.5183 716.3095 587.3983 731.4495 566.4083 731.4495Z"/>
</svg>