<?xml version="1.0" encoding="UTF-8" standalone="no"?>
<svg xmlns="http://www.w3.org/2000/svg"
     width="996.09375" height="996.09375"
     viewBox="0 0 996.09375 996.09375"
     fill="currentColor">
  <path d="M498.0477 996.0959C770.5077 996.0959 996.0977 770.0159 996.0977 498.0459C996.0977 225.5859 770.0177 -0.0041 497.5577 -0.0041C225.5877 -0.0041 -0.0023 225.5859 -0.0023 498.0459C-0.0023 770.0159 226.0777 996.0959 498.0477 996.0959ZM493.6477 324.7059C457.0277 324.7059 427.7377 295.4059 427.7377 258.2959C427.7377 221.1959 457.0277 191.8959 493.6477 191.8959C530.2777 191.8959 559.0777 221.1959 559.0777 258.2959C559.0777 295.4059 530.2777 324.7059 493.6477 324.7059ZM410.1577 780.7659C389.1577 780.7659 373.0477 765.6259 373.0477 744.6259C373.0477 725.0959 389.1577 708.9859 410.1577 708.9859H472.1677V479.4959H418.4577C397.9477 479.4959 381.8377 464.3559 381.8377 443.3559C381.8377 423.8259 397.9477 407.7159 418.4577 407.7159H513.1877C539.0577 407.7159 552.7377 426.2659 552.7377 453.6159V708.9859H614.7477C635.7377 708.9859 651.8577 725.0959 651.8577 744.6259C651.8577 765.6259 635.7377 780.7659 614.7477 780.7659Z"/>
</svg>