<?xml version="1.0" encoding="UTF-8" standalone="no"?>
<svg xmlns="http://www.w3.org/2000/svg"
     width="1415.9137702302585" height="747.4021285840727"
     viewBox="0 0 1415.9137702302585 747.4021285840727"
     fill="currentColor">
  <path d="M708.1552 667.9639C804.3452 667.9639 916.6552 697.2639 1000.1452 740.7239C1022.6152 752.9339 1047.5152 748.0439 1062.1652 729.0039L1394.6852 305.6639C1427.3952 263.6739 1422.0252 219.2339 1380.5252 186.5239C1244.2852 81.5439 983.0552 0.0039 708.1552 0.0039C433.2552 0.0039 172.0252 81.5439 35.3052 186.5239C-6.1948 219.2339 -11.5648 263.6739 21.6352 305.6639L354.1552 729.0039C368.8052 748.0439 393.2152 752.9339 415.6752 740.7239C499.1752 697.2639 611.9652 667.9639 708.1552 667.9639ZM708.1552 589.3539C618.8052 589.3539 515.7752 612.7939 416.1652 653.8039C403.9552 658.6939 398.5852 657.7139 388.8252 645.5039L99.7552 277.3439C90.4852 265.1339 91.9452 253.4139 105.1252 244.6239C273.0952 138.6739 488.4352 78.6139 708.1552 78.6139C927.8852 78.6139 1143.2152 138.6739 1311.1852 244.6239C1324.3652 253.4139 1325.8352 265.1339 1316.0652 277.3439L1027.4952 645.5039C1017.7252 657.7139 1012.3552 658.6939 1000.1452 653.8039C900.5352 612.7939 797.0252 589.3539 708.1552 589.3539ZM695.4652 222.1639C723.2952 222.1639 745.2652 199.2139 745.2652 171.8739C745.2652 144.0439 722.8052 121.5839 695.4652 121.5839C667.6252 121.5839 644.6852 144.0439 644.6852 171.8739C644.6852 199.2139 667.6252 222.1639 695.4652 222.1639ZM638.3352 531.2539H777.4952C794.0952 531.2539 807.7652 518.0639 807.7652 500.9739C807.7652 484.8639 794.5852 472.1639 777.4952 472.1639H740.3852V303.7139C740.3852 283.2039 729.1552 268.0639 708.6452 268.0639H644.1952C627.5952 268.0639 613.9152 280.2739 613.9152 296.8739C613.9152 314.4539 627.5952 327.1439 644.1952 327.1439H674.9552V472.1639H638.3352C621.7352 472.1639 608.0552 484.3739 608.0552 500.9739C608.0552 518.5539 621.7352 531.2539 638.3352 531.2539Z"/>
</svg>