<?xml version="1.0" encoding="UTF-8" standalone="no"?>
<svg xmlns="http://www.w3.org/2000/svg"
     width="1152.83203125" height="833.49609375"
     viewBox="0 0 1152.83203125 833.49609375"
     fill="currentColor">
  <path d="M-0.0017 613.2847C-0.0017 737.3047 96.1883 833.4947 231.9383 833.4947H920.8983C1056.6383 833.4947 1152.8283 737.3047 1152.8283 613.2847C1152.8283 576.6647 1142.0883 543.9447 1129.3983 513.1847L964.8483 118.1647C932.6183 40.0347 866.2083 0.0047 778.8083 0.0047H374.0283C286.6183 0.0047 220.2183 40.0347 187.9883 118.1647L22.9483 513.1847C10.7383 543.4547 -0.0017 576.6647 -0.0017 613.2847ZM157.7183 405.7647L264.1583 138.1847C282.7183 91.7947 322.7583 68.3547 377.9283 68.3547H774.8983C830.0783 68.3547 870.6083 91.7947 888.6683 138.1847L995.1183 405.7647C972.1683 397.4647 947.7583 393.0647 920.8983 393.0647H231.9383C205.0783 393.0647 180.1783 397.4647 157.7183 405.7647ZM78.6183 613.2847C78.6183 532.7147 139.6483 471.6747 231.9383 471.6747H920.8983C1013.1883 471.6747 1074.2183 532.7147 1074.2183 613.2847C1074.2183 703.6147 1013.1883 754.8847 920.8983 754.8847H231.9383C139.6483 754.8847 78.6183 693.8447 78.6183 613.2847ZM437.0083 663.5747C437.0083 678.7147 448.7283 690.9147 464.3583 690.9147C479.0083 690.9147 491.2083 678.7147 491.2083 663.5747V562.5047C491.2083 547.8547 479.0083 535.6447 464.3583 535.6447C448.7283 535.6447 437.0083 547.8547 437.0083 562.5047ZM548.8283 663.5747C548.8283 678.7147 561.0383 690.9147 576.6583 690.9147C591.3083 690.9147 603.5183 678.7147 603.5183 663.5747V562.5047C603.5183 547.8547 591.3083 535.6447 576.6583 535.6447C561.0383 535.6447 548.8283 547.8547 548.8283 562.5047ZM661.1283 663.5747C661.1283 678.7147 673.3383 690.9147 688.4783 690.9147C703.6183 690.9147 715.8183 678.7147 715.8183 663.5747V562.5047C715.8183 547.8547 703.6183 535.6447 688.4783 535.6447C673.3383 535.6447 661.1283 547.8547 661.1283 562.5047ZM773.4383 663.5747C773.4383 678.7147 785.1583 690.9147 800.7783 690.9147C815.9183 690.9147 827.6383 678.7147 827.6383 663.5747V562.5047C827.6383 547.8547 815.9183 535.6447 800.7783 535.6447C785.1583 535.6447 773.4383 547.8547 773.4383 562.5047ZM885.7383 663.5747C885.7383 678.7147 897.4583 690.9147 913.0883 690.9147C927.7383 690.9147 939.9383 678.7147 939.9383 663.5747V562.5047C939.9383 547.8547 927.7383 535.6447 913.0883 535.6447C897.4583 535.6447 885.7383 547.8547 885.7383 562.5047Z"/>
</svg>