<?xml version="1.0" encoding="UTF-8" standalone="no"?>
<svg xmlns="http://www.w3.org/2000/svg"
     width="1244.140625" height="898.92578125"
     viewBox="0 0 1244.140625 898.92578125"
     fill="currentColor">
  <path d="M153.3183 898.9295H801.7583C790.0383 882.8095 781.7383 863.2795 778.3183 840.8195C777.3483 834.4695 776.8583 827.6395 776.3683 820.3095H154.2983C105.4683 820.3095 78.6183 794.4295 78.6183 743.6495V155.2695C78.6183 104.4895 105.4683 78.6095 154.2983 78.6095H997.0683C1045.4083 78.6095 1072.7583 104.4895 1072.7583 155.2695V172.8495C1101.0783 172.8495 1125.9783 172.8495 1151.3683 172.8495V151.3695C1151.3683 50.7795 1100.5883 -0.0005 998.0483 -0.0005H153.3183C51.2683 -0.0005 -0.0017 50.2895 -0.0017 151.3695V747.5595C-0.0017 848.6295 51.2683 898.9295 153.3183 898.9295ZM926.2683 898.9295H1148.9283C1209.4683 898.9295 1244.1383 865.7195 1244.1383 807.6195V321.2895C1244.1383 263.1795 1208.9883 229.4895 1148.9283 229.4895H926.2683C866.2083 229.4895 831.0583 263.1795 831.0583 321.2895V807.6195C831.0583 865.7195 865.7183 898.9295 926.2683 898.9295ZM927.7383 834.9595C906.2483 834.9595 895.0183 823.7295 895.0183 801.2695V327.6395C895.0183 305.1795 906.2483 293.4595 927.7383 293.4595H1147.4583C1168.9483 293.4595 1180.1783 305.1795 1180.1783 327.6395V801.2695C1180.1783 823.7295 1168.9483 834.9595 1147.4583 834.9595ZM998.5383 364.7495H1075.1983C1087.8883 364.7495 1097.6583 354.4895 1097.6583 341.7995C1097.6583 329.5895 1087.8883 319.8195 1075.1983 319.8195H998.5383C985.8383 319.8195 976.0783 329.5895 976.0783 341.7995C976.0783 354.4895 985.8383 364.7495 998.5383 364.7495ZM387.2083 782.7195H774.4183V737.3095H387.2083C374.0283 737.3095 364.2583 746.5795 364.2583 760.2495C364.2583 773.9295 374.0283 782.7195 387.2083 782.7195ZM970.6983 810.0595H1103.5183C1113.2783 810.0595 1120.6083 803.2195 1120.6083 792.9695C1120.6083 783.6895 1113.2783 776.3695 1103.5183 776.3695H970.6983C960.9383 776.3695 954.5883 783.6895 954.5883 792.9695C954.5883 803.7095 960.4483 810.0595 970.6983 810.0595Z"/>
</svg>