<?xml version="1.0" encoding="UTF-8" standalone="no"?>
<svg xmlns="http://www.w3.org/2000/svg"
     width="815.91796875" height="1100.09765625"
     viewBox="0 0 815.91796875 1100.09765625"
     fill="currentColor">
  <path d="M135.2583 1100.102H680.6683C761.7183 1100.102 815.9183 1048.342 815.9183 971.192V129.392C815.9183 52.242 761.7183 0.002 680.6683 0.002H135.2583C54.1983 0.002 -0.0017 52.242 -0.0017 129.392V971.192C-0.0017 1048.342 54.1983 1100.102 135.2583 1100.102ZM145.0183 1021.482C103.0283 1021.482 78.6183 998.042 78.6183 958.012V142.582C78.6183 102.542 103.0283 78.612 145.0183 78.612H670.8983C712.3983 78.612 737.3083 102.542 737.3083 142.582V958.012C737.3083 998.042 712.3983 1021.482 670.8983 1021.482ZM204.0983 265.622C236.8183 265.622 265.6283 237.302 265.6283 202.632C265.6283 169.432 236.8183 141.112 204.0983 141.112C169.4383 141.112 141.1183 169.432 141.1183 202.632C141.1183 237.302 169.4383 265.622 204.0983 265.622Z"/>
</svg>