<?xml version="1.0" encoding="UTF-8" standalone="no"?>
<svg xmlns="http://www.w3.org/2000/svg"
     width="1151.3671875" height="898.92578125"
     viewBox="0 0 1151.3671875 898.92578125"
     fill="currentColor">
  <path d="M153.3183 898.9295H998.0483C1100.5883 898.9295 1151.3683 848.1495 1151.3683 747.5595V151.3695C1151.3683 50.7795 1100.5883 -0.0005 998.0483 -0.0005H153.3183C51.2683 -0.0005 -0.0017 50.2895 -0.0017 151.3695V747.5595C-0.0017 848.6295 51.2683 898.9295 153.3183 898.9295ZM165.5283 820.3095V78.6095H985.8383V820.3095ZM1060.0583 491.2095C1036.6183 491.2095 1018.5583 472.1695 1018.5583 448.7295C1018.5583 425.7795 1037.1083 406.7395 1060.5483 406.7395C1083.9883 406.7395 1102.5383 425.7795 1102.5383 448.7295C1102.5383 472.1695 1083.9883 491.2095 1060.0583 491.2095ZM89.3583 476.0695C74.7083 476.5595 62.4983 463.8695 62.0083 448.7295C61.5283 434.5695 74.2183 422.3595 88.8683 422.3595C104.0083 422.3595 115.7183 434.5695 115.7183 448.7295C115.7183 463.8695 103.5183 475.5895 89.3583 476.0695Z"/>
</svg>