<?xml version="1.0" encoding="UTF-8" standalone="no"?>
<svg xmlns="http://www.w3.org/2000/svg"
     width="815.91796875" height="1100.09765625"
     viewBox="0 0 815.91796875 1100.09765625"
     fill="currentColor">
  <path d="M135.2583 1100.102H680.6683C761.7183 1100.102 815.9183 1048.342 815.9183 971.192V129.392C815.9183 52.242 761.7183 0.002 680.6683 0.002H135.2583C54.1983 0.002 -0.0017 52.242 -0.0017 129.392V971.192C-0.0017 1048.342 54.1983 1100.102 135.2583 1100.102ZM407.7183 116.212C393.0683 116.212 381.3483 104.002 381.3483 89.352C381.3483 75.192 393.0683 62.502 407.7183 62.502C422.3683 62.502 434.5683 75.192 434.5683 89.352C434.5683 104.002 422.3683 116.212 407.7183 116.212ZM78.6183 934.572V166.012H737.3083V934.572ZM408.6883 1051.762C384.7683 1051.762 366.2083 1032.712 366.2083 1009.282C366.2083 986.332 384.7683 967.282 408.6883 967.282C431.6383 967.282 450.6883 986.332 450.6883 1009.282C450.6883 1032.712 431.6383 1051.762 408.6883 1051.762Z"/>
</svg>