<?xml version="1.0" encoding="UTF-8" standalone="no"?>
<svg xmlns="http://www.w3.org/2000/svg"
     width="815.91796875" height="1100.09765625"
     viewBox="0 0 815.91796875 1100.09765625"
     fill="currentColor">
  <path d="M-0.0017 971.192C-0.0017 1048.342 54.1983 1100.102 135.2583 1100.102H680.6683C761.7183 1100.102 815.9183 1048.342 815.9183 971.192V129.392C815.9183 52.242 761.7183 0.002 680.6683 0.002H135.2583C54.1983 0.002 -0.0017 52.242 -0.0017 129.392ZM78.6183 958.012V142.582C78.6183 102.542 103.0283 78.612 145.0183 78.612H670.8983C712.3983 78.612 737.3083 102.542 737.3083 142.582V958.012C737.3083 998.042 712.3983 1021.482 670.8983 1021.482H145.0183C103.0283 1021.482 78.6183 998.042 78.6183 958.012ZM269.5283 984.372H546.3883C560.0583 984.372 569.3383 975.102 569.3383 961.422C569.3383 947.752 560.0583 938.962 546.3883 938.962H269.5283C256.3483 938.962 247.0683 947.752 247.0683 961.422C247.0683 975.102 256.3483 984.372 269.5283 984.372Z"/>
</svg>