<?xml version="1.0" encoding="UTF-8" standalone="no"?>
<svg xmlns="http://www.w3.org/2000/svg"
     width="1034.1796875" height="627.9296875"
     viewBox="0 0 1034.1796875 627.9296875"
     fill="currentColor">
  <path d="M127.4383 627.9322H907.2283C983.3983 627.9322 1034.1783 574.2222 1034.1783 494.6322V132.8122C1034.1783 53.2222 983.3983 0.0022 907.2283 0.0022H127.4383C51.2683 0.0022 -0.0017 53.2222 -0.0017 132.8122V494.6322C-0.0017 574.2222 51.2683 627.9322 127.4383 627.9322ZM140.1383 549.3122C100.5883 549.3122 78.6183 525.8822 78.6183 484.8622V143.0622C78.6183 102.0522 100.5883 78.6122 140.1383 78.6122H894.5283C933.5983 78.6122 955.5683 102.0522 955.5683 143.0622V484.8622C955.5683 525.8822 933.5983 549.3122 894.5283 549.3122ZM151.8583 407.7122C171.3883 407.7122 186.5283 392.0922 186.5283 372.5622V254.3922C186.5283 235.3522 171.3883 220.2122 151.8583 220.2122C132.8083 220.2122 117.6783 235.3522 117.6783 254.3922V372.5622C117.6783 392.0922 132.8083 407.7122 151.8583 407.7122ZM387.2083 513.1822H647.4583C660.6483 513.1822 669.9183 503.9022 669.9183 490.2322C669.9183 476.5622 660.6483 467.7722 647.4583 467.7722H387.2083C374.0283 467.7722 364.7483 476.5622 364.7483 490.2322C364.7483 503.9022 374.0283 513.1822 387.2083 513.1822Z"/>
</svg>