<?xml version="1.0" encoding="UTF-8" standalone="no"?>
<svg xmlns="http://www.w3.org/2000/svg"
     width="996.09375" height="996.09375"
     viewBox="0 0 996.09375 996.09375"
     fill="currentColor">
  <path d="M498.0477 996.0959C770.5077 996.0959 996.0977 770.0159 996.0977 498.0459C996.0977 225.5859 770.0177 -0.0041 497.5577 -0.0041C225.5877 -0.0041 -0.0023 225.5859 -0.0023 498.0459C-0.0023 770.0159 226.0777 996.0959 498.0477 996.0959ZM498.0477 913.0859C267.5777 913.0859 83.4977 728.5159 83.4977 498.0459C83.4977 267.5759 267.0877 83.0059 497.5577 83.0059C728.0277 83.0059 913.0877 267.5759 913.0877 498.0459C913.0877 728.5159 728.5177 913.0859 498.0477 913.0859ZM400.8777 777.8359H594.2377C637.6977 777.8359 666.9877 749.5159 666.9877 707.5159V288.0859C666.9877 246.0959 637.6977 217.7759 594.2377 217.7759H400.8777C357.4177 217.7759 328.1277 246.0959 328.1277 288.0859V707.5159C328.1277 749.5159 357.4177 777.8359 400.8777 777.8359ZM406.2477 734.3759C383.7877 734.3759 371.5777 722.1659 371.5777 701.1759V294.4359C371.5777 273.4359 383.7877 261.2259 406.2477 261.2259H438.4777C443.3577 261.2259 444.3377 263.1859 444.3377 267.0859V272.9459C444.3377 284.1759 451.6577 291.9959 462.8877 291.9959H532.2277C543.4577 291.9959 550.7777 284.1759 550.7777 272.9459V267.0859C550.7777 263.1859 552.2477 261.2259 556.1477 261.2259H588.8677C611.3277 261.2259 623.5377 273.4359 623.5377 294.4359V701.1759C623.5377 722.1659 611.3277 734.3759 588.8677 734.3759ZM212.8877 643.0659C219.7277 634.7659 217.7777 624.9959 209.9577 615.7259C181.1477 583.4959 166.0177 542.4759 166.0177 498.0459C166.0177 453.6159 181.1477 412.5959 209.9577 380.3759C217.7777 371.0959 219.7277 360.8359 212.8877 353.0259C206.5477 344.2359 193.8477 344.2359 184.5677 353.5159C148.9277 392.0859 129.8877 443.3559 129.8877 498.0459C129.8877 552.2459 148.9277 603.5159 184.5677 642.5759C193.8477 651.8559 206.5477 651.8559 212.8877 643.0659ZM780.7577 643.0659C787.5977 651.8559 800.2977 651.8559 809.0777 642.5759C844.7277 603.5159 864.2577 552.2459 864.2577 498.0459C864.2577 443.3559 844.7277 392.0859 809.0777 353.5159C800.2977 344.2359 787.5977 344.2359 780.7577 353.0259C773.9277 360.8359 775.8777 371.0959 784.1777 380.3759C812.4977 412.5959 828.1277 453.6159 828.1277 498.0459C828.1277 542.4759 812.4977 583.4959 784.1777 615.7259C775.8777 624.9959 773.9277 634.7659 780.7577 643.0659ZM283.2077 583.0059C290.0377 574.7059 287.5977 565.4259 280.2777 555.6659C268.0677 540.0359 262.2077 520.0159 262.2077 498.0459C262.2077 476.0759 268.0677 455.5659 280.2777 440.4259C287.5977 430.6659 290.0377 421.3859 283.2077 413.0859C275.8777 404.2959 262.6977 404.2959 254.3977 414.0659C235.8377 437.4959 225.0977 466.3059 225.0977 498.0459C225.0977 529.2959 235.8377 558.5959 254.3977 581.5459C262.6977 591.3059 275.8777 591.7959 283.2077 583.0059ZM710.4477 583.0059C717.7777 591.7959 731.4477 591.3059 739.2577 581.5459C757.8077 558.5959 769.0477 529.2959 769.0477 498.0459C769.0477 466.3059 757.8077 437.4959 739.2577 414.0659C731.4477 404.2959 717.7777 404.2959 710.4477 413.0859C703.6177 421.3859 706.0577 430.6659 713.3777 440.4259C725.5877 455.5659 731.9377 476.0759 731.9377 498.0459C731.9377 520.0159 725.5877 540.0359 713.3777 555.6659C706.0577 565.4259 703.6177 574.7059 710.4477 583.0059ZM442.3877 715.3359H553.2277C561.0377 715.3359 565.9177 710.4459 565.9177 702.6359C565.9177 694.3359 561.0377 688.9659 553.2277 688.9659H442.3877C434.5677 688.9659 429.1977 694.3359 429.1977 702.6359C429.1977 710.4459 434.5677 715.3359 442.3877 715.3359Z"/>
</svg>