<?xml version="1.0" encoding="UTF-8" standalone="no"?>
<svg xmlns="http://www.w3.org/2000/svg"
     width="996.09375" height="996.09375"
     viewBox="0 0 996.09375 996.09375"
     fill="currentColor">
  <path d="M498.0477 996.0977C770.5077 996.0977 996.0977 770.5077 996.0977 498.0477C996.0977 226.0777 770.0177 -0.0023 497.5577 -0.0023C225.5877 -0.0023 -0.0023 226.0777 -0.0023 498.0477C-0.0023 770.5077 226.0777 996.0977 498.0477 996.0977ZM690.4277 603.5177L641.5977 554.6877V267.0877C641.5977 243.1677 627.9277 229.4877 602.0477 229.4877H565.9177C561.5277 229.4877 559.5677 231.4477 559.5677 235.8377V242.6777C559.5677 255.8577 551.2677 264.1577 539.0577 264.1577H458.0077C445.3077 264.1577 436.5277 255.8577 436.5277 242.6777V235.8377C436.5277 231.4477 435.0577 229.4877 430.1777 229.4877H394.5277C370.6077 229.4877 357.4177 241.2077 355.4677 261.2277V268.5577L315.4277 228.0277V226.5577C326.1677 197.7577 351.5577 180.1777 388.1877 180.1777H608.3977C657.7177 180.1777 690.4277 211.4277 690.4277 259.7677ZM722.6577 754.8877L240.2377 272.9477C231.9377 264.6477 231.9377 249.9977 240.2377 240.7177C249.5077 231.9377 264.1577 231.9377 272.9477 240.7177L754.8877 722.6577C763.6677 731.4477 763.6677 745.1177 754.8877 754.8877C745.6077 763.1877 730.9577 763.1877 722.6577 754.8877ZM388.1877 815.9177C338.8677 815.9177 306.1477 784.1777 306.1477 736.3277V393.5577L354.9777 442.8677V729.0077C354.9777 752.9277 368.6477 766.5977 394.5277 766.5977H602.0477C624.9977 766.5977 637.6977 756.3477 641.1177 736.8177V729.0077L680.1777 768.0677V770.5077C668.9477 799.3177 644.0477 815.9177 608.3977 815.9177ZM435.5477 744.6277C427.2477 744.6277 420.8977 738.7677 420.8977 730.4677C420.8977 721.1877 427.2477 715.3277 435.5477 715.3277H561.5277C570.3077 715.3277 575.6877 721.1877 575.6877 730.4677C575.6877 738.7677 570.3077 744.6277 561.5277 744.6277Z"/>
</svg>