<?xml version="1.0" encoding="UTF-8" standalone="no"?>
<svg xmlns="http://www.w3.org/2000/svg"
     width="996.09375" height="996.09375"
     viewBox="0 0 996.09375 996.09375"
     fill="currentColor">
  <path d="M498.0477 996.0977C770.5077 996.0977 996.0977 770.5077 996.0977 498.0477C996.0977 226.0777 770.0177 -0.0023 497.5577 -0.0023C225.5877 -0.0023 -0.0023 226.0777 -0.0023 498.0477C-0.0023 770.5077 226.0777 996.0977 498.0477 996.0977ZM388.1877 815.9177C339.3577 815.9177 306.1477 784.1777 306.1477 736.3277V259.7677C306.1477 211.4277 339.3577 180.1777 388.1877 180.1777H608.3977C657.7177 180.1777 690.9177 211.4277 690.9177 259.7677V736.3277C690.9177 784.1777 657.7177 815.9177 608.3977 815.9177ZM394.5277 766.5977H602.5377C627.9277 766.5977 642.0877 752.9277 642.0877 729.0077V267.0877C642.0877 243.1677 627.9277 229.4877 602.5377 229.4877H394.5277C369.1377 229.4877 354.9777 243.1677 354.9777 267.0877V729.0077C354.9777 752.9277 369.1377 766.5977 394.5277 766.5977ZM461.9177 296.8777C449.7077 296.8777 439.9377 287.5977 439.9377 275.3877C439.9377 263.6677 449.7077 253.9077 461.9177 253.9077H534.6677C546.8777 253.9077 556.6377 263.6677 556.6377 275.3877C556.6377 287.5977 546.8777 296.8777 534.6677 296.8777ZM435.5477 744.6277C427.2477 744.6277 420.8977 738.7677 420.8977 730.4677C420.8977 721.1877 427.2477 715.3277 435.5477 715.3277H561.5277C569.8277 715.3277 576.1677 721.1877 576.1677 730.4677C576.1677 738.7677 569.8277 744.6277 561.5277 744.6277Z"/>
</svg>