<?xml version="1.0" encoding="UTF-8" standalone="no"?>
<svg xmlns="http://www.w3.org/2000/svg"
     width="996.09375" height="996.09375"
     viewBox="0 0 996.09375 996.09375"
     fill="currentColor">
  <path d="M498.0477 996.0959C770.5077 996.0959 996.0977 770.0159 996.0977 498.0459C996.0977 225.5859 770.0177 -0.0041 497.5577 -0.0041C225.5877 -0.0041 -0.0023 225.5859 -0.0023 498.0459C-0.0023 770.0159 226.0777 996.0959 498.0477 996.0959ZM498.0477 913.0859C267.5777 913.0859 83.4977 728.5159 83.4977 498.0459C83.4977 267.5759 267.0877 83.0059 497.5577 83.0059C728.0277 83.0059 913.0877 267.5759 913.0877 498.0459C913.0877 728.5159 728.5177 913.0859 498.0477 913.0859ZM604.4877 189.9459H391.1177C355.9577 189.9459 331.5477 206.0559 320.7977 234.3759V236.3259L377.9277 293.9459V289.5459H636.2277V552.7359L684.0777 600.5859V266.6059C684.0777 220.7059 652.3477 189.9459 604.4877 189.9459ZM441.8977 241.6959C441.8977 234.3759 447.2677 229.9759 453.6177 229.9759H541.9877C548.8277 229.9759 553.7077 234.3759 553.7077 241.6959C553.7077 248.5359 548.8277 253.4159 541.9877 253.4159H453.6177C447.2677 253.4159 441.8977 248.5359 441.8977 241.6959ZM715.3277 746.5859C723.6377 755.3759 737.7977 755.3759 746.5777 746.5859C755.3677 737.7959 755.3677 724.6059 746.5777 715.3359L279.2977 248.5359C270.5077 239.7459 256.3477 239.7459 247.5577 248.5359C239.2577 256.8359 239.2577 271.4859 247.5577 279.7859ZM391.1177 806.1559H604.4877C639.1577 806.1559 664.0577 790.0359 674.3177 762.2059V759.2759L616.2077 701.1759V706.5459H359.3777V443.8459L311.5277 396.4859V729.4959C311.5277 775.3859 342.7777 806.1559 391.1177 806.1559ZM498.0477 776.3659C484.3777 776.3659 473.1477 765.1359 473.1477 751.4659C473.1477 737.7959 484.3777 726.5659 498.0477 726.5659C511.7177 726.5659 522.4577 737.7959 522.4577 751.4659C522.4577 765.1359 511.7177 776.3659 498.0477 776.3659Z"/>
</svg>