<?xml version="1.0" encoding="UTF-8" standalone="no"?>
<svg xmlns="http://www.w3.org/2000/svg"
     width="1034.66796875" height="627.9296875"
     viewBox="0 0 1034.66796875 627.9296875"
     fill="currentColor">
  <path d="M1034.6683 494.6322V132.8122C1034.6683 53.2222 983.8883 0.0022 907.7183 0.0022H127.9283C51.7583 0.0022 -0.0017 53.2222 -0.0017 132.8122V494.6322C-0.0017 574.2222 51.7583 627.9322 127.9283 627.9322H907.7183C983.8883 627.9322 1034.6683 574.2222 1034.6683 494.6322ZM956.0583 484.8622C956.0583 525.8822 934.0783 549.3122 895.0183 549.3122H140.6283C101.0783 549.3122 79.0983 525.8822 79.0983 484.8622V421.8722C79.0983 414.5522 83.4983 410.1522 90.8183 410.1522H102.0483C122.0683 410.1522 136.2283 396.9722 136.2283 376.9522V250.4922C136.2283 230.4722 122.0683 217.2822 102.0483 217.2822H90.8183C83.4983 217.2822 79.0983 212.8922 79.0983 205.5622V143.0622C79.0983 102.0522 101.0783 78.6122 140.6283 78.6122H895.0183C934.0783 78.6122 956.0583 102.0522 956.0583 143.0622ZM387.6983 513.1822H647.9483C661.1283 513.1822 670.4083 503.9022 670.4083 490.2322C670.4083 476.5622 661.1283 467.7722 647.9483 467.7722H387.6983C374.5083 467.7722 365.2383 476.5622 365.2383 490.2322C365.2383 503.9022 374.5083 513.1822 387.6983 513.1822Z"/>
</svg>