<?xml version="1.0" encoding="UTF-8" standalone="no"?>
<svg xmlns="http://www.w3.org/2000/svg"
     width="996.09375" height="996.09375"
     viewBox="0 0 996.09375 996.09375"
     fill="currentColor">
  <path d="M498.0477 996.0977C770.5077 996.0977 996.0977 770.5077 996.0977 498.0477C996.0977 226.0777 770.0177 -0.0023 497.5577 -0.0023C225.5877 -0.0023 -0.0023 226.0777 -0.0023 498.0477C-0.0023 770.5077 226.0777 996.0977 498.0477 996.0977ZM608.3977 180.6677C657.7177 180.6677 690.4277 211.9177 690.4277 259.2777V603.5177L641.1177 554.1977V283.2077H374.9977V287.5977L315.9177 228.0277V226.0777C327.1477 196.7777 352.0477 180.6677 388.1877 180.6677ZM440.4277 233.8877C440.4277 240.7177 446.2877 246.0977 452.6377 246.0977H543.9477C550.7777 246.0977 556.1477 240.7177 556.1477 233.8877C556.1477 226.0777 550.7777 221.6777 543.9477 221.6777H452.6377C446.2877 221.6777 440.4277 226.0777 440.4277 233.8877ZM722.6577 754.8877L240.2377 272.9477C231.9377 264.6477 231.9377 249.9977 240.2377 240.7177C249.5077 231.9377 264.1577 231.9377 272.9477 240.7177L754.8877 722.6577C763.6677 731.4477 763.6677 745.1177 754.8877 754.8877C745.6077 763.1877 730.9577 763.1877 722.6577 754.8877ZM388.1877 815.9177C338.3777 815.9177 306.1477 784.1777 306.1477 737.3077V393.5577L355.4677 443.3577V713.3777H620.1177V708.0077L680.1777 768.0677V770.9977C669.4377 799.3177 644.0477 815.9177 608.3977 815.9177ZM498.5377 785.1577C512.6977 785.1577 523.9277 773.4377 523.9277 759.2777C523.9277 745.6077 512.6977 733.3977 498.5377 733.3977C484.3777 733.3977 472.6577 745.6077 472.6577 759.2777C472.6577 773.4377 484.3777 785.1577 498.5377 785.1577Z"/>
</svg>