<?xml version="1.0" encoding="UTF-8" standalone="no"?>
<svg xmlns="http://www.w3.org/2000/svg"
     width="996.09375" height="996.09375"
     viewBox="0 0 996.09375 996.09375"
     fill="currentColor">
  <path d="M498.0477 996.0977C770.5077 996.0977 996.0977 770.5077 996.0977 498.0477C996.0977 226.0777 770.0177 -0.0023 497.5577 -0.0023C225.5877 -0.0023 -0.0023 226.0777 -0.0023 498.0477C-0.0023 770.5077 226.0777 996.0977 498.0477 996.0977ZM387.6977 815.9177C338.3777 815.9177 305.6677 784.1777 305.6677 736.3277V259.7677C305.6677 211.4277 338.3777 180.1777 387.6977 180.1777H607.9077C657.2277 180.1777 690.4277 211.4277 690.4277 259.7677V736.3277C690.4277 784.1777 657.2277 815.9177 607.9077 815.9177ZM394.0477 766.5977H602.0477C627.4377 766.5977 641.5977 752.9277 641.5977 729.0077V267.0877C641.5977 243.1677 627.4377 229.4877 602.0477 229.4877H565.9177C561.5277 229.4877 559.5677 231.4477 559.5677 235.8377V242.6777C559.5677 255.8577 550.7777 264.1577 538.5777 264.1577H457.0277C444.8277 264.1577 436.5277 255.8577 436.5277 242.6777V235.8377C436.5277 231.4477 434.5677 229.4877 430.1777 229.4877H394.0477C368.1677 229.4877 354.4877 243.1677 354.4877 267.0877V729.0077C354.4877 752.9277 368.1677 766.5977 394.0477 766.5977ZM435.0577 744.6277C426.7577 744.6277 420.4077 738.7677 420.4077 730.4677C420.4077 721.1877 426.7577 715.3277 435.0577 715.3277H561.0377C569.3377 715.3277 575.6877 721.1877 575.6877 730.4677C575.6877 738.7677 569.3377 744.6277 561.0377 744.6277Z"/>
</svg>