<?xml version="1.0" encoding="UTF-8" standalone="no"?>
<svg xmlns="http://www.w3.org/2000/svg"
     width="996.09375" height="996.09375"
     viewBox="0 0 996.09375 996.09375"
     fill="currentColor">
  <path d="M498.0477 996.0977C770.5077 996.0977 996.0977 770.5077 996.0977 498.0477C996.0977 226.0777 770.0177 -0.0023 497.5577 -0.0023C225.5877 -0.0023 -0.0023 226.0777 -0.0023 498.0477C-0.0023 770.5077 226.0777 996.0977 498.0477 996.0977ZM323.7277 714.8477V281.7377C323.7277 238.7677 353.5177 209.9577 398.4377 209.9577H598.6377C643.5577 209.9577 673.3377 238.7677 673.3377 281.7377V714.8477C673.3377 757.8077 643.5577 786.6177 598.6377 786.6177H398.4377C353.5177 786.6177 323.7277 757.8077 323.7277 714.8477ZM446.7777 258.7877C446.7777 265.1377 451.6577 269.0477 457.0277 269.0477H540.0377C545.8977 269.0477 550.2977 265.1377 550.2977 258.7877C550.2977 251.9577 545.8977 247.5577 540.0377 247.5577H457.0277C451.6577 247.5577 446.7777 251.9577 446.7777 258.7877ZM369.1377 693.3577H627.9277V303.2177H369.1377ZM789.0577 647.4577C781.7377 639.6477 783.6877 628.9077 792.4777 619.1377C821.7777 585.9377 837.8877 543.9477 837.8877 498.0477C837.8877 452.1477 821.7777 410.1577 792.4777 376.9577C783.6877 367.1877 781.7377 356.9377 789.0577 348.6377C795.8977 339.3577 809.0777 339.3577 818.3577 349.1177C854.9777 389.1577 874.9977 442.3877 874.9977 498.0477C874.9977 554.1977 854.9777 607.4177 818.3577 646.9677C809.0777 656.7377 795.8977 656.7377 789.0577 647.4577ZM208.4977 647.4577C202.1477 656.7377 188.9677 656.7377 179.1977 646.9677C142.5777 607.4177 123.0477 554.1977 123.0477 498.0477C123.0477 442.3877 142.5777 389.1577 179.1977 349.1177C188.9677 339.3577 202.1477 339.3577 208.4977 348.6377C215.8177 356.9377 213.8677 367.1877 205.5677 376.9577C175.7777 410.1577 160.1577 452.1477 160.1577 498.0477C160.1577 543.9477 175.7777 585.9377 205.5677 619.1377C213.8677 628.9077 215.8177 639.6477 208.4977 647.4577ZM281.2477 585.4477C273.4377 594.7277 259.7677 594.7277 251.4677 584.4677C232.4177 560.5477 221.1877 530.7577 221.1877 498.0477C221.1877 465.8177 232.4177 435.5477 251.4677 412.1077C259.7677 401.8577 273.4377 401.3677 281.2477 410.6477C288.0877 418.9477 285.6477 428.7077 278.3177 438.9677C265.6277 454.0977 259.2777 475.5877 259.2777 498.0477C259.2777 520.5077 265.6277 541.0177 278.3177 557.1277C285.6477 567.3877 288.0877 577.1477 281.2477 585.4477ZM716.3077 585.4477C709.4777 577.1477 711.9177 567.3877 719.2377 557.1277C731.9377 541.0177 738.7677 520.5077 738.7677 498.0477C738.7677 475.5877 731.9377 454.0977 719.2377 438.9677C711.9177 428.7077 709.4777 418.9477 716.3077 410.6477C724.1177 401.3677 738.2777 401.8577 746.0977 412.1077C765.1377 435.5477 776.8577 465.8177 776.8577 498.0477C776.8577 530.7577 765.1377 560.5477 746.0977 584.4677C738.2777 594.7277 724.1177 594.7277 716.3077 585.4477ZM499.0277 758.2977C511.7177 758.2977 520.9977 747.5577 520.9977 734.8677C520.9977 722.6577 511.7177 712.3977 499.0277 712.3977C486.3277 712.3977 476.0777 722.6577 476.0777 734.8677C476.0777 747.5577 486.3277 758.2977 499.0277 758.2977Z"/>
</svg>