<?xml version="1.0" encoding="UTF-8" standalone="no"?>
<svg xmlns="http://www.w3.org/2000/svg"
     width="996.09375" height="996.09375"
     viewBox="0 0 996.09375 996.09375"
     fill="currentColor">
  <path d="M498.0477 996.0977C770.5077 996.0977 996.0977 770.5077 996.0977 498.0477C996.0977 226.0777 770.0177 -0.0023 497.5577 -0.0023C225.5877 -0.0023 -0.0023 226.0777 -0.0023 498.0477C-0.0023 770.5077 226.0777 996.0977 498.0477 996.0977ZM305.6677 737.3077V259.2777C305.6677 211.9177 338.3777 180.6677 387.6977 180.6677H608.3977C657.7177 180.6677 690.4277 211.9177 690.4277 259.2777V737.3077C690.4277 784.1777 657.7177 815.9177 608.3977 815.9177H387.6977C338.3777 815.9177 305.6677 784.1777 305.6677 737.3077ZM440.4277 233.8877C440.4277 240.7177 445.7977 246.0977 452.6377 246.0977H543.9477C550.7777 246.0977 555.6677 240.7177 555.6677 233.8877C555.6677 226.0777 550.7777 221.6777 543.9477 221.6777H452.6377C445.7977 221.6777 440.4277 226.0777 440.4277 233.8877ZM354.9777 713.3777H641.1177V283.2077H354.9777ZM498.5377 785.1577C512.2077 785.1577 523.4377 773.4377 523.4377 759.2777C523.4377 745.6077 512.2077 733.3977 498.5377 733.3977C484.3777 733.3977 472.6577 745.6077 472.6577 759.2777C472.6577 773.4377 484.3777 785.1577 498.5377 785.1577Z"/>
</svg>