<?xml version="1.0" encoding="UTF-8" standalone="no"?>
<svg xmlns="http://www.w3.org/2000/svg"
     width="1561.5234375" height="1033.69140625"
     viewBox="0 0 1561.5234375 1033.69140625"
     fill="currentColor">
  <path d="M600.0977 1033.6889H961.9177C1041.5077 1033.6889 1094.7277 982.9089 1094.7277 906.7389V126.9489C1094.7277 50.7789 1041.5077 -0.0011 961.9177 -0.0011H600.0977C520.5077 -0.0011 467.2877 50.7789 467.2877 126.9489V906.7389C467.2877 982.9089 520.5077 1033.6889 600.0977 1033.6889ZM610.3477 955.0789C568.8477 955.0789 545.8977 933.1089 545.8977 894.0389V139.6489C545.8977 100.5889 568.8477 78.6089 610.3477 78.6089H672.8477C680.6677 78.6089 684.5677 82.5189 684.5677 89.8389V101.0789C684.5677 121.5789 698.2377 135.2489 718.2577 135.2489H844.7277C864.7477 135.2489 877.9277 121.5789 877.9277 101.0789V89.8389C877.9277 82.5189 881.8377 78.6089 889.6477 78.6089H952.1477C993.1677 78.6089 1016.1177 100.5889 1016.1177 139.6489V894.0389C1016.1177 933.1089 993.1677 955.0789 952.1477 955.0789ZM1373.0477 851.0789C1388.6677 869.1389 1416.0177 869.1389 1435.0577 848.6289C1516.1177 760.2489 1561.5277 643.5589 1561.5277 517.0889C1561.5277 390.6289 1516.1177 273.4389 1435.0577 185.5489C1416.0177 165.0389 1388.6677 164.5489 1373.0477 183.1089C1357.4177 200.6789 1362.3077 223.6289 1379.8877 243.6489C1445.3077 316.4089 1481.9377 412.1089 1481.9377 517.0889C1481.9377 622.0689 1445.3077 717.7689 1379.8877 790.5289C1362.3077 810.5489 1357.4177 833.4989 1373.0477 851.0789ZM188.4777 851.0789C204.0977 833.4989 199.2177 810.5489 181.6377 790.5289C116.2077 717.7689 79.5877 622.0689 79.5877 517.0889C79.5877 412.1089 116.2077 316.4089 181.6377 243.6489C199.2177 223.6289 204.0977 200.6789 188.4777 183.1089C172.8477 164.5489 145.5077 165.0389 126.9577 185.5489C45.8977 273.4389 -0.0023 390.6289 -0.0023 517.0889C-0.0023 643.5589 45.8977 760.2489 126.9577 848.6289C145.5077 869.1389 172.8477 869.1389 188.4777 851.0789ZM325.1977 711.9189C340.8177 694.3389 334.4777 672.3589 318.8477 651.3689C289.5477 614.7489 275.3877 567.8689 275.3877 517.0889C275.3877 466.3089 289.5477 418.9489 318.8477 382.8089C334.4777 361.8189 340.8177 339.8389 325.1977 322.2689C309.0777 303.7089 279.7877 303.7089 262.6977 325.6789C220.2177 378.4189 195.7977 445.3089 195.7977 517.0889C195.7977 588.8689 220.2177 655.7589 262.6977 708.4989C279.7877 730.4689 309.0777 729.9789 325.1977 711.9189ZM1236.3277 711.9189C1252.4377 729.9789 1281.7377 730.4689 1298.8277 708.4989C1341.3077 655.7589 1366.2077 588.8689 1366.2077 517.0889C1366.2077 445.3089 1341.3077 378.4189 1298.8277 325.6789C1281.7377 303.7089 1252.4377 303.7089 1236.3277 322.2689C1220.7077 339.8389 1227.5377 361.8189 1242.6777 382.8089C1271.9777 418.9489 1286.6177 466.3089 1286.6177 517.0889C1286.6177 567.8689 1271.9777 614.7489 1242.6777 651.3689C1227.5377 672.3589 1220.7077 694.3389 1236.3277 711.9189ZM677.7377 919.4289H885.2577C898.4377 919.4289 907.7177 910.1589 907.7177 896.4889C907.7177 882.8089 898.4377 874.0189 885.2577 874.0189H677.7377C664.5477 874.0189 654.7877 882.8089 654.7877 896.4889C654.7877 910.1589 664.5477 919.4289 677.7377 919.4289Z"/>
</svg>