<?xml version="1.0" encoding="UTF-8" standalone="no"?>
<svg xmlns="http://www.w3.org/2000/svg"
     width="884.3994140625" height="1034.1796875"
     viewBox="0 0 884.3994140625 1034.1796875"
     fill="currentColor">
  <path d="M756.2242 697.7489V126.9489C756.2242 50.7789 703.0042 -0.0011 623.4142 -0.0011H260.6242C200.0742 -0.0011 156.6142 28.8089 139.5242 78.1289V81.0589L227.9042 169.4289V165.5289H677.1242V619.1389ZM355.3442 85.4489C355.3442 74.2189 362.6742 66.8989 373.4142 66.8989H522.3342C533.0842 66.8989 540.4042 74.2189 540.4042 85.4489C540.4042 96.6789 533.0842 103.5189 522.3342 103.5189H373.4142C362.6742 103.5189 355.3442 96.6789 355.3442 85.4489ZM820.1942 950.1989C834.8342 965.3289 859.2542 964.8389 873.4142 950.1989C888.0642 936.0389 888.0642 912.1089 873.4142 896.9689L64.3342 88.3789C49.6842 73.7289 25.7542 73.2389 10.6242 88.3789C-3.5358 102.5389 -3.5358 127.4389 10.6242 141.5989ZM260.6242 1034.1789H623.4142C682.4942 1034.1789 724.9742 1006.3489 743.0442 958.9889V956.5389L650.2642 864.2589V868.6489H206.4242V420.8989L127.8042 342.2889V907.2289C127.8042 983.3989 181.0342 1034.1789 260.6242 1034.1789ZM442.2642 985.8389C418.8242 985.8389 399.7842 966.7989 399.7842 943.3589C399.7842 920.4089 418.8242 901.3689 442.2642 901.3689C465.2142 901.3689 484.2542 920.4089 484.2542 943.3589C484.2542 966.7989 465.2142 985.8389 442.2642 985.8389Z"/>
</svg>