<?xml version="1.0" encoding="UTF-8" standalone="no"?>
<svg xmlns="http://www.w3.org/2000/svg"
     width="774.4140625" height="1033.69140625"
     viewBox="0 0 774.4140625 1033.69140625"
     fill="currentColor">
  <path d="M146.9709 618.6489V906.7389C146.9709 982.9089 200.1909 1033.6889 279.7809 1033.6889H641.6009C721.1909 1033.6889 774.4109 982.9089 774.4109 906.7389V126.9489C774.4109 50.7789 721.1909 -0.0011 641.6009 -0.0011H279.7809C200.1909 -0.0011 146.9709 50.7789 146.9709 126.9489V415.5289H225.5909V139.6489C225.5909 100.5889 248.5309 78.6089 290.0409 78.6089H631.8409C672.8509 78.6089 695.8009 100.5889 695.8009 139.6489V894.0389C695.8009 933.1089 672.8509 955.0789 631.8409 955.0789H290.0409C248.5309 955.0789 225.5909 933.1089 225.5909 894.0389V618.6489ZM35.6409 551.2689H354.0009L457.0309 546.3889L350.5909 642.0889L322.7509 669.9189C316.4109 676.7589 312.0109 686.0389 312.0109 696.2889C312.0109 716.3089 326.6609 729.9789 345.7009 729.9789C355.4709 729.9789 364.7509 726.0789 371.5809 719.2389L548.3409 542.4789C557.1309 534.1789 561.5209 524.8989 561.5209 516.5989C561.5209 508.2989 557.1309 498.0489 548.3409 490.2389L371.5809 313.9689C364.7509 307.1289 355.4709 303.2189 345.7009 303.2189C326.6609 303.2189 312.0109 316.8989 312.0109 336.4289C312.0109 347.1689 316.4109 355.9589 322.7509 362.7889L350.5909 391.1089L457.0309 486.3289L354.0009 481.4489H35.6409C13.6709 481.4489 0.0009 498.5389 0.0009 516.5989C0.0009 534.6689 13.6709 551.2689 35.6409 551.2689Z"/>
</svg>