<?xml version="1.0" encoding="UTF-8" standalone="no"?>
<svg xmlns="http://www.w3.org/2000/svg"
     width="996.09375" height="996.09375"
     viewBox="0 0 996.09375 996.09375"
     fill="currentColor">
  <path d="M498.0477 996.0891C770.5077 996.0891 996.0977 770.0191 996.0977 498.0491C996.0977 225.5891 770.0177 -0.0009 497.5577 -0.0009C225.5877 -0.0009 -0.0023 225.5891 -0.0023 498.0491C-0.0023 770.0191 226.0777 996.0891 498.0477 996.0891ZM498.0477 913.0891C267.5777 913.0891 83.4977 728.5191 83.4977 498.0491C83.4977 267.5791 267.0877 83.0091 497.5577 83.0091C728.0277 83.0091 913.0877 267.5791 913.0877 498.0491C913.0877 728.5191 728.5177 913.0891 498.0477 913.0891ZM401.3677 777.3391H594.7277C638.1877 777.3391 667.4777 749.5091 667.4777 707.5191V288.0891C667.4777 246.0891 638.1877 218.2591 594.7277 218.2591H401.3677C357.9077 218.2591 328.6177 246.0891 328.6177 288.0891V707.5191C328.6177 749.5091 357.9077 777.3391 401.3677 777.3391ZM406.7377 733.8891C384.2777 733.8891 372.0677 722.1691 372.0677 701.1691V294.4291C372.0677 273.4391 384.2777 261.7191 406.7377 261.7191H589.3577C611.8177 261.7191 624.0277 273.4391 624.0277 294.4291V701.1691C624.0277 722.1691 611.8177 733.8891 589.3577 733.8891ZM465.3277 320.7991H529.7877C540.5277 320.7991 548.8277 312.0091 548.8277 301.7591C548.8277 291.4991 540.5277 282.7191 529.7877 282.7191H465.3277C454.5877 282.7191 446.7777 291.4991 446.7777 301.7591C446.7777 312.0091 454.5877 320.7991 465.3277 320.7991ZM213.3777 643.0691C220.2177 634.7691 218.2577 624.9991 210.4477 615.7191C181.6377 583.4991 166.5077 542.4791 166.5077 498.0491C166.5077 453.6091 181.6377 412.5991 210.4477 380.3691C218.2577 371.0891 220.2177 360.8391 213.3777 353.0291C207.0277 344.2391 194.3377 344.2391 185.0577 353.5191C149.4177 392.0891 130.3677 443.3591 130.3677 498.0491C130.3677 552.2491 149.4177 603.5191 185.0577 642.5791C194.3377 651.8591 207.0277 651.8591 213.3777 643.0691ZM781.2477 643.0691C788.0877 651.8591 800.7777 651.8591 809.5677 642.5791C845.2177 603.5191 864.7477 552.2491 864.7477 498.0491C864.7477 443.3591 845.2177 392.0891 809.5677 353.5191C800.7777 344.2391 788.0877 344.2391 781.2477 353.0291C774.4177 360.8391 776.3677 371.0891 784.6677 380.3691C812.9877 412.5991 828.6177 453.6091 828.6177 498.0491C828.6177 542.4791 812.9877 583.4991 784.6677 615.7191C776.3677 624.9991 774.4177 634.7691 781.2477 643.0691ZM283.6877 583.0091C290.5277 574.7091 288.0877 565.4291 280.7577 555.6591C268.5577 540.0391 262.6977 520.0191 262.6977 498.0491C262.6977 476.0791 268.5577 455.5691 280.7577 440.4291C288.0877 430.6591 290.5277 421.3891 283.6877 413.0891C276.3677 404.2991 263.1877 404.2991 254.8877 414.0591C236.3277 437.4991 225.5877 466.3091 225.5877 498.0491C225.5877 529.2991 236.3277 558.5891 254.8877 581.5391C263.1877 591.3091 276.3677 591.7991 283.6877 583.0091ZM710.9377 583.0091C718.2577 591.7991 731.9377 591.3091 739.7477 581.5391C758.2977 558.5891 769.5277 529.2991 769.5277 498.0491C769.5277 466.3091 758.2977 437.4991 739.7477 414.0591C731.9377 404.2991 718.2577 404.2991 710.9377 413.0891C704.0977 421.3891 706.5477 430.6591 713.8677 440.4291C726.0777 455.5691 732.4177 476.0791 732.4177 498.0491C732.4177 520.0191 726.0777 540.0391 713.8677 555.6591C706.5477 565.4291 704.0977 574.7091 710.9377 583.0091ZM442.8677 715.3291H553.7077C561.5277 715.3291 566.4077 709.9591 566.4077 702.6391C566.4077 694.3391 561.5277 688.9691 553.7077 688.9691H442.8677C435.0577 688.9691 429.6877 694.3391 429.6877 702.6391C429.6877 709.9591 435.0577 715.3291 442.8677 715.3291Z"/>
</svg>