<?xml version="1.0" encoding="UTF-8" standalone="no"?>
<svg xmlns="http://www.w3.org/2000/svg"
     width="831.54296875" height="648.92578125"
     viewBox="0 0 831.54296875 648.92578125"
     fill="currentColor">
  <path d="M-0.0017 530.7578C-0.0017 603.0278 43.9483 648.9278 111.8183 648.9278H719.7283C787.5983 648.9278 831.5383 603.0278 831.5383 530.7578V118.1678C831.5383 45.8978 787.5983 -0.0022 719.7283 -0.0022H111.8183C43.9483 -0.0022 -0.0017 45.8978 -0.0017 118.1678ZM78.6183 520.9978V127.9278C78.6183 97.1678 96.1883 78.6178 124.9983 78.6178H707.0283C735.3483 78.6178 752.9283 97.1678 752.9283 127.9278V520.9978C752.9283 551.7578 735.3483 570.3078 707.0283 570.3078H124.9983C96.1883 570.3078 78.6183 551.7578 78.6183 520.9978ZM499.5083 513.6678C604.4883 513.6678 688.9683 428.7078 688.9683 324.2178C688.9683 219.7278 604.4883 134.7678 499.5083 134.7678C395.0183 134.7678 310.5483 219.7278 310.5483 324.2178C310.5483 428.7078 395.0183 513.6678 499.5083 513.6678ZM499.5083 451.1678C428.7083 451.1678 373.0483 395.0178 373.0483 324.2178C373.0483 253.4178 428.7083 197.2678 499.5083 197.2678C570.7983 197.2678 626.4683 253.4178 626.4683 324.2178C626.4683 395.0178 570.7983 451.1678 499.5083 451.1678Z"/>
</svg>