<?xml version="1.0" encoding="UTF-8" standalone="no"?>
<svg xmlns="http://www.w3.org/2000/svg"
     width="681.640625" height="639.16015625"
     viewBox="0 0 681.640625 639.16015625"
     fill="currentColor">
  <path d="M-0.0017 520.995C-0.0017 593.265 43.9483 639.165 111.8183 639.165H569.8283C637.6983 639.165 681.6383 593.265 681.6383 520.995V118.165C681.6383 45.895 636.2283 -0.005 569.8283 -0.005H111.8183C43.9483 -0.005 -0.0017 45.895 -0.0017 118.165ZM78.6183 511.235V127.925C78.6183 97.165 96.1883 78.615 124.9983 78.615H556.6383C584.9583 78.615 603.0283 97.165 603.0283 127.925V511.235C603.0283 541.995 584.9583 560.545 556.6383 560.545H124.9983C96.1883 560.545 78.6183 541.995 78.6183 511.235ZM340.8183 508.785C445.3083 508.785 530.2783 423.825 530.2783 319.335C530.2783 214.845 445.3083 129.885 340.8183 129.885C236.3283 129.885 151.3683 214.845 151.3683 319.335C151.3683 423.825 236.3283 508.785 340.8183 508.785ZM340.8183 446.285C270.0183 446.285 213.8683 390.135 213.8683 319.335C213.8683 248.535 270.0183 192.385 340.8183 192.385C411.6183 192.385 467.7783 248.535 467.7783 319.335C467.7783 390.135 411.6183 446.285 340.8183 446.285Z"/>
</svg>