<?xml version="1.0" encoding="UTF-8" standalone="no"?>
<svg xmlns="http://www.w3.org/2000/svg"
     width="1034.66796875" height="627.44140625"
     viewBox="0 0 1034.66796875 627.44140625"
     fill="currentColor">
  <path d="M907.2283 627.442C983.3983 627.442 1034.6683 574.222 1034.6683 494.632V132.812C1034.6683 53.222 983.3983 0.002 907.2283 0.002H126.9483C50.7783 0.002 -0.0017 53.222 -0.0017 132.812V494.632C-0.0017 574.222 50.7783 627.442 126.9483 627.442ZM868.6483 548.832H165.5283V78.612H868.6483ZM985.8383 312.992C985.8383 336.422 967.2883 355.472 943.3583 355.472C920.4083 355.472 901.3683 336.422 901.3683 312.992C901.3683 290.042 920.4083 270.992 943.3583 270.992C967.2883 270.992 985.8383 290.042 985.8383 312.992ZM111.3283 312.992C111.3283 329.102 98.1483 341.792 82.5183 341.792C66.4083 341.792 53.7083 329.102 53.7083 312.992C53.7083 296.872 66.4083 284.672 82.5183 284.672C98.1483 284.672 111.3283 296.872 111.3283 312.992Z"/>
</svg>