<?xml version="1.0" encoding="UTF-8" standalone="no"?>
<svg xmlns="http://www.w3.org/2000/svg"
     width="723.6328125" height="1288.0859375"
     viewBox="0 0 723.6328125 1288.0859375"
     fill="currentColor">
  <path d="M134.7683 1073.2383H319.3383V1137.2083C319.3383 1232.9083 379.8783 1288.0883 475.5883 1288.0883H688.4783C708.0083 1288.0883 723.6283 1272.4583 723.6283 1252.9283C723.6283 1232.9083 708.0083 1216.7983 688.4783 1216.7983H475.5883C419.4383 1216.7983 390.6283 1193.3583 390.6283 1137.2083V1073.2383H588.8683C674.3183 1073.2383 723.6283 1022.4583 723.6283 936.0383V238.7683C723.6283 151.8583 674.3183 101.5583 588.8683 101.5583H459.9583V97.6583C459.9583 40.0383 420.4083 0.4883 361.8183 -0.0017C303.2183 0.4883 263.6683 40.0383 263.6683 97.6583V101.5583H134.7683C49.3183 101.5583 -0.0017 151.8583 -0.0017 238.7683V936.0383C-0.0017 1022.4583 49.3183 1073.2383 134.7683 1073.2383ZM361.8183 134.7683C341.7983 134.7683 326.1683 118.6483 326.1683 98.6283C326.1683 79.0983 341.7983 62.9883 361.8183 62.9883C381.8383 62.9883 397.4583 79.0983 397.4583 98.6283C397.4583 118.6483 381.8383 134.7683 361.8183 134.7683ZM138.6683 992.1883C102.0483 992.1883 81.5383 971.1883 81.5383 935.0583V239.7483C81.5383 203.6083 102.0483 182.6183 138.6683 182.6183H584.9583C621.5783 182.6183 642.0883 203.6083 642.0883 239.7483V935.0583C642.0883 971.1883 621.5783 992.1883 584.9583 992.1883ZM199.7083 923.3383H524.8983C554.6883 923.3383 574.2183 904.2983 574.2183 874.9983V349.1183C574.2183 319.8283 554.6883 300.7783 524.8983 300.7783H199.7083C169.9183 300.7783 150.3883 319.8283 150.3883 349.1183V874.9983C150.3883 904.2983 169.9183 923.3383 199.7083 923.3383ZM361.8183 609.8583C319.8283 609.8583 284.6683 577.1483 284.6683 534.1783C284.6683 510.7383 296.8783 487.3083 308.5983 466.3083L348.1483 393.0683C356.4483 377.4383 367.1883 376.9483 375.4883 393.0683L415.0383 466.3083C426.7583 487.3083 438.9683 510.7383 438.9683 534.1783C438.9683 577.1483 404.2983 609.8583 361.8183 609.8583ZM264.6483 725.5883C249.9983 725.5883 240.2383 715.3283 240.2383 701.6583C240.2383 688.4783 249.9983 677.7383 264.6483 677.7383H461.4283C475.0983 677.7383 485.3483 688.4783 485.3483 701.6583C485.3483 715.3283 475.0983 725.5883 461.4283 725.5883ZM301.7583 827.6383C287.1083 827.6383 277.8283 817.3783 277.8283 804.1983C277.8283 790.5283 287.1083 779.7883 301.7583 779.7883H422.8483C437.0083 779.7883 446.7783 790.5283 446.7783 804.1983C446.7783 817.3783 437.0083 827.6383 422.8483 827.6383Z"/>
</svg>