<?xml version="1.0" encoding="UTF-8" standalone="no"?>
<svg xmlns="http://www.w3.org/2000/svg"
     width="723.6328125" height="1287.59765625"
     viewBox="0 0 723.6328125 1287.59765625"
     fill="currentColor">
  <path d="M134.7683 1072.75H319.3383V1136.72C319.3383 1232.42 379.8783 1287.6 475.5883 1287.6H688.4783C708.0083 1287.6 723.6283 1271.97 723.6283 1252.44C723.6283 1232.42 708.0083 1216.31 688.4783 1216.31H475.5883C419.4383 1216.31 390.6283 1192.87 390.6283 1136.72V1072.75H588.8683C674.3183 1072.75 723.6283 1021.97 723.6283 935.55V238.28C723.6283 151.37 674.3183 101.07 588.8683 101.07H459.9583V97.66C459.9583 39.55 419.9183 0 361.8183 0C303.7083 0 263.6683 39.55 263.6683 97.66V101.07H134.7683C49.3183 101.07 -0.0017 151.37 -0.0017 238.28V935.55C-0.0017 1021.97 49.3183 1072.75 134.7683 1072.75ZM361.8183 134.28C341.7983 134.28 326.1683 118.16 326.1683 98.14C326.1683 78.61 341.7983 62.5 361.8183 62.5C381.8383 62.5 397.4583 78.61 397.4583 98.14C397.4583 118.16 381.8383 134.28 361.8183 134.28ZM194.3383 932.13C163.5783 932.13 143.5583 913.09 143.5583 882.81V339.84C143.5583 310.06 163.5783 290.04 194.3383 290.04H530.2783C561.0383 290.04 581.0583 310.06 581.0583 339.84V882.81C581.0583 913.09 561.0383 932.13 530.2783 932.13ZM361.8183 608.89C405.2783 608.89 441.4083 575.2 441.4083 531.25C441.4083 506.84 428.7083 482.91 416.9883 460.94L375.9783 385.74C367.1883 369.14 355.9583 369.63 347.6583 385.74L306.6383 460.94C294.9183 482.91 282.2283 506.84 282.2283 531.25C282.2283 575.2 318.8483 608.89 361.8183 608.89ZM261.7183 729H464.3583C478.5183 729 489.2583 717.77 489.2583 703.61C489.2583 689.94 478.5183 679.2 464.3583 679.2H261.7183C246.5783 679.2 236.3283 689.94 236.3283 703.61C236.3283 717.77 246.5783 729 261.7183 729ZM300.2883 833.98H424.3183C438.9683 833.98 449.7083 823.73 449.7083 810.06C449.7083 795.9 438.9683 784.18 424.3183 784.18H300.2883C285.1583 784.18 274.8983 795.9 274.8983 810.06C274.8983 823.73 285.1583 833.98 300.2883 833.98Z"/>
</svg>