<?xml version="1.0" encoding="UTF-8" standalone="no"?>
<svg xmlns="http://www.w3.org/2000/svg"
     width="996.09375" height="996.09375"
     viewBox="0 0 996.09375 996.09375"
     fill="currentColor">
  <path d="M498.0477 996.0959C770.5077 996.0959 996.0977 770.0159 996.0977 498.0459C996.0977 225.5859 770.0177 -0.0041 497.5577 -0.0041C225.5877 -0.0041 -0.0023 225.5859 -0.0023 498.0459C-0.0023 770.0159 226.0777 996.0959 498.0477 996.0959ZM474.1177 733.8859C404.2977 733.8859 350.0977 699.7059 332.5177 647.4559C329.5877 639.6459 328.1277 632.3259 328.1277 623.5359C328.1277 601.5659 343.2577 585.9359 365.7277 585.9359C382.8077 585.9359 394.0477 594.2359 402.8277 613.2859C415.0377 645.9959 440.4277 664.5459 478.0277 664.5459C519.5277 664.5459 545.4077 634.2759 545.4077 583.9859V303.2259C545.4077 276.3659 559.5677 257.8159 585.4477 257.8159C611.8177 257.8159 626.4677 275.3859 626.4677 303.2259V584.9559C626.4677 681.1559 572.7577 733.8859 474.1177 733.8859Z"/>
</svg>