<?xml version="1.0" encoding="UTF-8" standalone="no"?>
<svg xmlns="http://www.w3.org/2000/svg"
     width="1033.203125" height="1022.4609375"
     viewBox="0 0 1033.203125 1022.4609375"
     fill="currentColor">
  <path d="M153.3183 796.3913H236.8183V871.0913C236.8183 971.6813 288.0883 1022.4613 390.1383 1022.4613H880.3683C982.4183 1022.4613 1033.1983 972.1713 1033.1983 871.0913V376.9513C1033.1983 276.3713 982.4183 226.0712 880.3683 226.0712H796.3883V151.3713C796.3883 50.2912 745.6083 0.0013 643.5583 0.0013H153.3183C51.2683 0.0013 -0.0017 50.7813 -0.0017 151.3713V645.0213C-0.0017 745.6012 51.2683 796.3913 153.3183 796.3913ZM154.2983 717.7713C106.4483 717.7713 78.6183 691.8913 78.6183 641.1113V155.2713C78.6183 104.4913 106.4483 78.6113 154.2983 78.6113H642.0883C690.9183 78.6113 717.7783 104.4913 717.7783 155.2713V641.1113C717.7783 691.8913 690.9183 717.7713 642.0883 717.7713ZM374.9983 626.4613C471.1883 626.4613 522.4583 575.6813 522.4583 482.9113V209.4713C522.4583 182.1313 508.7883 165.5313 482.9083 165.5313C458.0083 165.5313 444.3383 183.1013 444.3383 209.4713V481.9313C444.3383 530.7613 419.4383 560.0613 378.9083 560.0613C342.2883 560.0613 317.8683 541.5013 305.6683 509.7613C297.3683 491.7013 286.6183 483.8913 270.0183 483.8913C248.5383 483.8913 233.8883 498.5313 233.8883 520.0213C233.8883 527.8313 235.3483 535.1513 237.7883 542.4813C254.8783 593.7513 307.6183 626.4613 374.9983 626.4613ZM391.1183 943.8513C343.2583 943.8513 315.4283 917.9713 315.4283 867.1913V796.3913H643.5583C745.6083 796.3913 796.3883 746.0912 796.3883 645.0213V304.6912H878.9083C927.7383 304.6912 954.5883 330.5712 954.5883 381.3513V867.1913C954.5883 917.9713 927.7383 943.8513 878.9083 943.8513Z"/>
</svg>