<?xml version="1.0" encoding="UTF-8" standalone="no"?>
<svg xmlns="http://www.w3.org/2000/svg"
     width="898.92578125" height="898.92578125"
     viewBox="0 0 898.92578125 898.92578125"
     fill="currentColor">
  <path d="M153.3183 898.9295H745.6083C848.1483 898.9295 898.9283 848.1495 898.9283 747.5595V151.3695C898.9283 50.7795 848.1483 -0.0005 745.6083 -0.0005H153.3183C51.2683 -0.0005 -0.0017 50.2895 -0.0017 151.3695V747.5595C-0.0017 848.6295 51.2683 898.9295 153.3183 898.9295ZM425.7783 684.5695C355.9583 684.5695 301.7583 650.3895 284.1783 598.1395C281.2483 590.3295 279.7883 583.0095 279.7883 574.2195C279.7883 552.2495 294.9183 536.6195 317.3783 536.6195C334.4683 536.6195 345.6983 544.9195 354.4883 563.9695C367.1883 596.6795 392.0883 615.2295 429.6883 615.2295C471.1883 615.2295 497.0683 584.9595 497.0683 534.6695V253.9095C497.0683 227.0495 511.2283 208.4995 537.1083 208.4995C563.9683 208.4995 578.1283 226.0695 578.1283 253.9095V535.6395C578.1283 631.8395 524.4183 684.5695 425.7783 684.5695Z"/>
</svg>