<?xml version="1.0" encoding="UTF-8" standalone="no"?>
<svg xmlns="http://www.w3.org/2000/svg"
     width="1033.203125" height="1022.4609375"
     viewBox="0 0 1033.203125 1022.4609375"
     fill="currentColor">
  <path d="M643.5583 0.0013H153.3183C51.2683 0.0013 -0.0017 50.7813 -0.0017 151.3713V645.0213C-0.0017 745.6012 51.2683 796.3913 153.3183 796.3913H643.5583C745.6083 796.3913 796.3883 746.0912 796.3883 645.0213V151.3713C796.3883 50.2912 745.6083 0.0013 643.5583 0.0013ZM374.5083 633.7913C304.6883 633.7913 250.4883 600.1012 232.9083 547.3612C229.9783 539.5513 228.5183 532.2313 228.5183 523.9213C228.5183 501.4613 243.6483 486.3313 266.1183 486.3313C283.1983 486.3313 294.4383 494.6313 303.2183 513.1813C315.9183 545.9013 340.8183 564.9413 378.4183 564.9413C419.9183 564.9413 445.7983 534.6713 445.7983 484.3713V203.6113C445.7983 176.2713 459.9583 158.2012 485.8383 158.2012C512.6983 158.2012 526.8583 175.2913 526.8583 203.6113V485.3513C526.8583 581.5413 473.6283 633.7913 374.5083 633.7913ZM1033.1983 376.9513C1033.1983 276.3713 982.4183 226.0712 880.3683 226.0712H863.2783V645.0213C863.2783 783.2013 782.2283 863.2813 643.5583 863.2813H236.8183V871.0913C236.8183 971.6813 288.0883 1022.4613 390.1383 1022.4613H880.3683C982.4183 1022.4613 1033.1983 972.1713 1033.1983 871.0913Z"/>
</svg>