<?xml version="1.0" encoding="UTF-8" standalone="no"?>
<svg xmlns="http://www.w3.org/2000/svg"
     width="996.09375" height="996.09375"
     viewBox="0 0 996.09375 996.09375"
     fill="currentColor">
  <path d="M498.0477 996.0959C770.5077 996.0959 996.0977 770.0159 996.0977 498.0459C996.0977 225.5859 770.0177 -0.0041 497.5577 -0.0041C225.5877 -0.0041 -0.0023 225.5859 -0.0023 498.0459C-0.0023 770.0159 226.0777 996.0959 498.0477 996.0959ZM366.6977 729.0059C341.7977 729.0059 326.6577 711.9159 326.6577 683.1059V303.7059C326.6577 274.9059 341.7977 257.8159 366.6977 257.8159C393.0677 257.8159 407.7177 274.9059 407.7177 303.7059V476.0759H410.6477L608.8877 273.9259C620.6077 262.6959 629.3977 257.8159 641.5977 257.8159C662.5977 257.8159 678.7077 273.4359 678.7077 292.4759C678.7077 303.7059 675.2977 312.0159 666.0177 321.7759L528.3177 463.3759L678.2277 660.1559C685.5477 669.9259 689.9377 680.6659 689.9377 690.9159C689.9377 712.8859 673.8277 729.0059 650.8777 729.0059C636.7177 729.0059 625.9777 722.6559 615.7277 708.9859L469.2377 515.6259L407.7177 579.1059V683.1059C407.7177 711.9159 393.0677 729.0059 366.6977 729.0059Z"/>
</svg>