<?xml version="1.0" encoding="UTF-8" standalone="no"?>
<svg xmlns="http://www.w3.org/2000/svg"
     width="996.09375" height="996.09375"
     viewBox="0 0 996.09375 996.09375"
     fill="currentColor">
  <path d="M498.0477 996.0959C770.5077 996.0959 996.0977 770.0159 996.0977 498.0459C996.0977 225.5859 770.0177 -0.0041 497.5577 -0.0041C225.5877 -0.0041 -0.0023 225.5859 -0.0023 498.0459C-0.0023 770.0159 226.0777 996.0959 498.0477 996.0959ZM498.0477 913.0859C267.5777 913.0859 83.4977 728.5159 83.4977 498.0459C83.4977 267.5759 267.0877 83.0059 497.5577 83.0059C728.0277 83.0059 913.0877 267.5759 913.0877 498.0459C913.0877 728.5159 728.5177 913.0859 498.0477 913.0859ZM370.1177 721.6759C395.5077 721.6759 409.6677 705.0759 409.6677 677.7359V576.1759L469.2377 514.6459L611.8177 702.6359C621.5777 715.8159 631.8377 721.6759 645.5077 721.6759C667.4777 721.6759 683.1077 706.0559 683.1077 685.0559C683.1077 675.2959 679.1977 664.5459 671.8777 655.2759L526.3677 464.3559L660.1577 326.6559C668.9477 317.3859 672.3677 309.0859 672.3677 298.3359C672.3677 280.2759 656.7377 265.1359 636.7177 265.1359C624.5077 265.1359 616.2077 269.5359 604.9777 280.7659L412.5977 477.0459H409.6677V309.0859C409.6677 281.7359 395.5077 265.1359 370.1177 265.1359C346.1877 265.1359 331.5477 281.7359 331.5477 309.0859V677.7359C331.5477 705.0759 346.1877 721.6759 370.1177 721.6759Z"/>
</svg>