<?xml version="1.0" encoding="UTF-8" standalone="no"?>
<svg xmlns="http://www.w3.org/2000/svg"
     width="898.92578125" height="898.92578125"
     viewBox="0 0 898.92578125 898.92578125"
     fill="currentColor">
  <path d="M153.3183 898.9295H745.6083C848.1483 898.9295 898.9283 848.1495 898.9283 747.5595V151.3695C898.9283 50.7795 848.1483 -0.0005 745.6083 -0.0005H153.3183C51.2683 -0.0005 -0.0017 50.2895 -0.0017 151.3695V747.5595C-0.0017 848.6295 51.2683 898.9295 153.3183 898.9295ZM318.3583 679.6895C293.4583 679.6895 278.3183 662.5995 278.3183 633.7895V254.3895C278.3183 225.5895 293.4583 208.4995 318.3583 208.4995C344.7283 208.4995 359.3783 225.5895 359.3783 254.3895V426.7595H362.3083L560.5483 224.6095C572.2683 213.3795 581.0583 208.4995 593.2583 208.4995C614.2583 208.4995 630.3683 224.1195 630.3683 243.1595C630.3683 254.3895 626.9483 262.6995 618.1683 272.4595L479.9783 414.0595L630.3683 610.8395C637.2083 620.6095 641.5983 631.3495 641.5983 641.5995C641.5983 663.5695 625.4883 679.6895 602.5383 679.6895C588.3783 679.6895 577.6383 673.3395 567.3783 659.6695L420.8983 466.3095L359.3783 529.7895V633.7895C359.3783 662.5995 344.7283 679.6895 318.3583 679.6895Z"/>
</svg>