<?xml version="1.0" encoding="UTF-8" standalone="no"?>
<svg xmlns="http://www.w3.org/2000/svg"
     width="652.83203125" height="1216.9411582869009"
     viewBox="0 0 652.83203125 1216.9411582869009"
     fill="currentColor">
  <path d="M292.4783 1203.1272C312.9883 1220.2172 340.8183 1222.6572 360.3483 1203.6172L511.2283 1052.7372C530.2783 1033.2072 529.2983 1003.9072 510.7383 984.8672L435.0583 909.6672L545.4083 799.8072C564.4483 781.2472 563.4783 751.4672 544.9183 731.9372L442.8683 629.3972C577.1483 564.9372 652.8283 455.5672 652.8283 325.6872C652.8283 145.5072 506.8383 -0.0028 326.6583 -0.0028C145.0183 -0.0028 -0.0017 144.5272 -0.0017 325.6872C-0.0017 456.5472 75.1983 572.7572 193.8483 624.9972V1085.9372C193.8483 1102.0472 198.7283 1120.6072 212.8883 1133.2972ZM326.6583 1125.9772L272.4583 1072.2672V568.3572C157.7183 542.4772 78.1283 443.3572 78.1283 325.6872C78.1283 188.9672 188.9683 78.6172 326.6583 78.6172C463.8683 78.6172 574.2183 188.9672 574.2183 325.6872C574.2183 442.3872 494.1383 542.4772 371.5783 571.7772V670.4072L467.2883 766.5972L363.7683 868.6572V949.7072L433.1083 1018.0672ZM326.6583 311.0372C370.1183 311.0372 405.7583 275.3872 405.7583 231.4472C405.7583 187.9872 370.1183 152.8272 326.6583 152.8272C282.2283 152.8272 247.5583 187.9872 247.5583 231.4472C247.5583 275.3872 282.7183 311.0372 326.6583 311.0372Z"/>
</svg>