<?xml version="1.0" encoding="UTF-8" standalone="no"?>
<svg xmlns="http://www.w3.org/2000/svg"
     width="1065.4296875" height="1234.3182901593818"
     viewBox="0 0 1065.4296875 1234.3182901593818"
     fill="currentColor">
  <path d="M912.5983 677.7612C930.6683 689.9612 953.1283 686.0612 965.8183 667.0112C1028.3183 581.0812 1065.4283 462.9112 1065.4283 342.3112C1065.4283 221.7012 1028.8083 102.5612 965.8183 17.6012C953.1283 -0.9588 930.6683 -5.3488 912.5983 6.8612C894.5283 19.0612 891.5983 42.0112 905.7583 62.0312C958.9883 137.7212 989.7483 238.3012 989.7483 342.3112C989.7483 446.8012 958.0083 546.9012 905.7583 622.5812C892.0883 642.6012 894.5283 665.5512 912.5983 677.7612ZM312.0083 29.3212C138.1883 29.3212 -0.0017 167.5012 -0.0017 340.3512C-0.0017 470.7212 78.1283 585.9612 200.1983 632.3512V1114.2812C200.1983 1126.4912 204.0983 1135.7612 212.8883 1145.0412L294.4383 1227.0712C302.7383 1235.3712 319.3383 1237.8112 329.5883 1227.5612L484.3783 1072.7812C494.6283 1062.0312 494.1383 1047.8712 484.3783 1037.6212L388.1883 942.8912L520.0183 811.5412C529.2983 801.7812 529.2983 787.6212 519.0383 776.8812L388.6683 645.5312C539.5483 585.4712 623.5383 474.1412 623.5383 340.3512C623.5383 168.4812 484.3783 29.3212 312.0083 29.3212ZM731.4483 550.8012C748.0483 562.0312 770.9983 558.1312 784.1783 539.5712C821.2883 489.7712 843.7483 417.0112 843.7483 342.3112C843.7483 267.6012 821.2883 195.3312 784.1783 145.5312C770.9983 126.4912 748.0483 123.0712 731.4483 134.7912C711.9183 148.4612 708.4983 172.3812 723.6283 192.4012C752.4383 231.4712 768.0683 285.6712 768.0683 342.3112C768.0683 398.9512 751.9483 452.6612 723.6283 492.2112C708.9883 512.7212 711.9183 536.6412 731.4483 550.8012ZM312.0083 315.4512C266.5983 315.4512 230.4683 278.8312 230.4683 233.9112C230.4683 188.5012 266.1183 152.3612 312.0083 152.3612C356.9383 152.3612 393.5583 188.5012 393.5583 233.9112C393.5583 278.8312 356.9383 315.4512 312.0083 315.4512Z"/>
</svg>