<?xml version="1.0" encoding="UTF-8" standalone="no"?>
<svg xmlns="http://www.w3.org/2000/svg"
     width="1227.5390625" height="848.6328125"
     viewBox="0 0 1227.5390625 848.6328125"
     fill="currentColor">
  <path d="M964.8477 848.6363C1112.3077 848.6363 1227.5377 740.7262 1227.5377 606.4463C1227.5377 503.9063 1168.4577 415.0363 1073.2377 374.9962C1074.2177 157.2263 917.4777 -0.0037 717.7777 -0.0037C585.4477 -0.0037 491.2077 70.7962 432.6177 156.2463C312.4977 121.0963 181.6377 212.4063 179.1977 349.1163C68.8477 366.6963 -0.0023 465.3363 -0.0023 584.4762C-0.0023 728.0263 125.4877 848.6363 292.4777 848.6363ZM964.8477 770.0163H292.4777C169.4377 770.0163 78.6177 684.0863 78.6177 584.4762C78.6177 486.8163 137.6977 409.1763 241.2077 409.1763C248.0477 409.1763 250.4877 405.7663 250.4877 399.4163C250.4877 249.0263 358.8877 204.5862 458.9877 237.3063C464.8477 239.2563 468.2577 237.7963 471.1877 232.4263C518.5577 147.9462 591.3077 78.6163 717.7777 78.6163C877.9277 78.6163 988.7677 205.5662 997.0677 350.5863C998.5377 373.0463 997.0677 399.4163 995.1177 422.3663C994.6277 428.7063 997.0677 432.1263 1002.9277 433.5963C1091.7977 453.1263 1148.9277 518.0663 1148.9277 606.4463C1148.9277 697.2663 1068.8477 770.0163 964.8477 770.0163ZM881.8377 480.9563C881.8377 399.9063 816.8977 335.4463 736.8177 335.4463C675.7777 335.4463 622.0677 371.5863 600.0977 428.7063H375.4877C370.1177 428.7063 365.7277 430.1763 360.8377 435.0563L323.2377 473.1463C318.8477 477.0463 318.3577 484.3763 323.2377 488.7663L394.5277 561.0363C399.4177 565.9163 406.7377 565.9163 411.1377 561.0363L455.5677 516.1163L517.0877 578.1263C520.9977 582.5163 527.8277 582.0263 532.7177 577.1463L594.2377 516.6063C622.5577 586.9163 674.3177 625.9762 736.8177 625.9762C816.8977 625.9762 881.8377 561.5263 881.8377 480.9563ZM812.0077 480.4663C812.0077 504.8863 791.9877 524.9063 767.5777 524.9063C742.1877 524.9063 722.1677 504.8863 722.1677 480.4663C722.1677 456.0563 742.1877 436.0363 767.5777 436.0363C791.9877 436.0363 812.0077 455.5663 812.0077 480.4663Z"/>
</svg>