<?xml version="1.0" encoding="UTF-8" standalone="no"?>
<svg xmlns="http://www.w3.org/2000/svg"
     width="1216.818506269848" height="652.83203125"
     viewBox="0 0 1216.818506269848 652.83203125"
     fill="currentColor">
  <path d="M14.1799 292.9692C-3.4001 312.9892 -5.8401 341.3092 13.6899 360.3492L164.0799 511.2292C183.6199 530.7592 213.3999 529.7892 231.9599 510.7392L307.1499 435.5492L417.4999 545.4092C436.0599 564.4492 465.8399 563.9692 484.8899 544.9192L587.9099 442.8692C651.8799 577.1492 761.7399 652.8292 891.1399 652.8292C1071.7999 652.8292 1216.8199 507.3192 1216.8199 326.6592C1216.8199 145.5092 1072.2899 -0.0008 891.1399 -0.0008C760.7599 -0.0008 644.0599 75.1992 592.3099 193.8492H130.8799C114.7699 193.8492 96.2099 198.7292 84.0099 213.3792ZM90.8399 326.6592L145.0399 272.9492H648.4599C674.8299 157.7192 773.4599 78.1292 891.1399 78.1292C1027.8499 78.1292 1138.2099 188.9692 1138.2099 326.6592C1138.2099 463.8692 1028.3399 574.2192 891.1399 574.2192C774.9199 574.2192 674.8299 494.1392 645.5299 371.5792H546.4099L450.7099 467.2892L348.1699 363.7692H267.5999L198.7499 433.1092ZM905.7799 326.6592C905.7799 370.6092 941.4299 406.2492 985.3699 406.2492C1029.3199 406.2492 1064.4699 370.6092 1064.4699 326.6592C1064.4699 282.2292 1029.3199 247.5592 985.3699 247.5592C941.4299 247.5592 905.7799 282.7192 905.7799 326.6592Z"/>
</svg>