<?xml version="1.0" encoding="UTF-8" standalone="no"?>
<svg xmlns="http://www.w3.org/2000/svg"
     width="1151.3671875" height="898.92578125"
     viewBox="0 0 1151.3671875 898.92578125"
     fill="currentColor">
  <path d="M-0.0017 747.5595C-0.0017 848.6295 51.2683 898.9295 153.3183 898.9295H998.0483C1100.5883 898.9295 1151.3683 848.1495 1151.3683 747.5595V151.3695C1151.3683 50.7795 1100.5883 -0.0005 998.0483 -0.0005H153.3183C51.2683 -0.0005 -0.0017 50.2895 -0.0017 151.3695ZM154.7883 166.4995C130.8583 166.4995 111.3283 145.9995 111.3283 123.0495C111.3283 100.0995 130.8583 79.5895 154.7883 79.5895C178.7083 79.5895 198.7283 100.0995 198.7283 123.0495C198.7283 145.9995 178.7083 166.4995 154.7883 166.4995ZM294.9183 166.4995C270.9983 166.4995 251.4683 145.9995 251.4683 123.0495C251.4683 100.0995 270.9983 79.5895 294.9183 79.5895C318.8483 79.5895 338.8683 100.0995 338.8683 123.0495C338.8683 145.9995 318.8483 166.4995 294.9183 166.4995ZM435.0583 166.4995C411.1283 166.4995 391.5983 145.9995 391.5983 123.0495C391.5983 100.0995 411.1283 79.5895 435.0583 79.5895C458.9883 79.5895 478.5183 100.0995 478.5183 123.0495C478.5183 145.9995 458.9883 166.4995 435.0583 166.4995ZM78.6183 743.6495V246.0895H1072.7583V743.6495C1072.7583 794.4295 1045.4083 820.3095 997.0683 820.3095H154.2983C105.4683 820.3095 78.6183 794.4295 78.6183 743.6495ZM213.3783 437.4995H254.3983C267.0883 437.4995 274.8983 429.6895 274.8983 416.9895V375.4895C274.8983 363.2795 267.0883 355.4695 254.3983 355.4695H213.3783C200.6883 355.4695 192.8683 363.2795 192.8683 375.4895V416.9895C192.8683 429.6895 200.6883 437.4995 213.3783 437.4995ZM350.0983 437.4995H391.5983C404.2983 437.4995 411.6183 429.6895 411.6183 416.9895V375.4895C411.6183 363.2795 404.2983 355.4695 391.5983 355.4695H350.0983C337.8883 355.4695 330.0783 363.2795 330.0783 375.4895V416.9895C330.0783 429.6895 337.8883 437.4995 350.0983 437.4995ZM486.8183 437.4995H527.8283C540.5283 437.4995 548.3383 429.6895 548.3383 416.9895V375.4895C548.3383 363.2795 540.5283 355.4695 527.8283 355.4695H486.8183C474.1183 355.4695 466.7983 363.2795 466.7983 375.4895V416.9895C466.7983 429.6895 474.1183 437.4995 486.8183 437.4995ZM623.5383 437.4995H665.0383C677.2483 437.4995 684.5683 429.6895 684.5683 416.9895V375.4895C684.5683 363.2795 677.2483 355.4695 665.0383 355.4695H623.5383C610.8383 355.4695 603.0283 363.2795 603.0283 375.4895V416.9895C603.0283 429.6895 610.8383 437.4995 623.5383 437.4995ZM759.7683 437.4995H801.2683C813.9683 437.4995 821.7783 429.6895 821.7783 416.9895V375.4895C821.7783 363.2795 813.9683 355.4695 801.2683 355.4695H759.7683C747.5583 355.4695 740.2383 363.2795 740.2383 375.4895V416.9895C740.2383 429.6895 747.5583 437.4995 759.7683 437.4995ZM896.9683 437.4995H937.9883C950.6883 437.4995 958.4983 429.6895 958.4983 416.9895V375.4895C958.4983 363.2795 950.6883 355.4695 937.9883 355.4695H896.9683C884.2783 355.4695 876.4683 363.2795 876.4683 375.4895V416.9895C876.4683 429.6895 884.2783 437.4995 896.9683 437.4995ZM213.3783 574.2195H254.3983C267.0883 574.2195 274.8983 566.4095 274.8983 553.7095V512.6995C274.8983 500.4895 267.0883 492.6795 254.3983 492.6795H213.3783C200.6883 492.6795 192.8683 500.4895 192.8683 512.6995V553.7095C192.8683 566.4095 200.6883 574.2195 213.3783 574.2195ZM350.0983 574.2195H391.5983C404.2983 574.2195 411.6183 566.4095 411.6183 553.7095V512.6995C411.6183 500.4895 404.2983 492.6795 391.5983 492.6795H350.0983C337.8883 492.6795 330.0783 500.4895 330.0783 512.6995V553.7095C330.0783 566.4095 337.8883 574.2195 350.0983 574.2195ZM486.8183 574.2195H527.8283C540.5283 574.2195 548.3383 566.4095 548.3383 553.7095V512.6995C548.3383 500.4895 540.5283 492.6795 527.8283 492.6795H486.8183C474.1183 492.6795 466.7983 500.4895 466.7983 512.6995V553.7095C466.7983 566.4095 474.1183 574.2195 486.8183 574.2195ZM623.5383 574.2195H665.0383C677.2483 574.2195 684.5683 566.4095 684.5683 553.7095V512.6995C684.5683 500.4895 677.2483 492.6795 665.0383 492.6795H623.5383C610.8383 492.6795 603.0283 500.4895 603.0283 512.6995V553.7095C603.0283 566.4095 610.8383 574.2195 623.5383 574.2195ZM759.7683 574.2195H801.2683C813.9683 574.2195 821.7783 566.4095 821.7783 553.7095V512.6995C821.7783 500.4895 813.9683 492.6795 801.2683 492.6795H759.7683C747.5583 492.6795 740.2383 500.4895 740.2383 512.6995V553.7095C740.2383 566.4095 747.5583 574.2195 759.7683 574.2195ZM896.9683 574.2195H937.9883C950.6883 574.2195 958.4983 566.4095 958.4983 553.7095V512.6995C958.4983 500.4895 950.6883 492.6795 937.9883 492.6795H896.9683C884.2783 492.6795 876.4683 500.4895 876.4683 512.6995V553.7095C876.4683 566.4095 884.2783 574.2195 896.9683 574.2195ZM213.3783 711.4295H254.3983C267.0883 711.4295 274.8983 703.6095 274.8983 690.9195V649.8995C274.8983 637.2095 267.0883 629.3895 254.3983 629.3895H213.3783C200.6883 629.3895 192.8683 637.2095 192.8683 649.8995V690.9195C192.8683 703.6095 200.6883 711.4295 213.3783 711.4295ZM354.4883 711.4295H796.8783C812.9883 711.4295 821.7783 702.1495 821.7783 686.5195V654.2995C821.7783 638.6695 812.9883 629.3895 796.8783 629.3895H354.4883C338.8683 629.3895 330.0783 638.6695 330.0783 654.2995V686.5195C330.0783 702.1495 338.8683 711.4295 354.4883 711.4295ZM896.9683 711.4295H937.9883C950.6883 711.4295 958.4983 703.6095 958.4983 690.9195V649.8995C958.4983 637.2095 950.6883 629.3895 937.9883 629.3895H896.9683C884.2783 629.3895 876.4683 637.2095 876.4683 649.8995V690.9195C876.4683 703.6095 884.2783 711.4295 896.9683 711.4295Z"/>
</svg>