<?xml version="1.0" encoding="UTF-8" standalone="no"?>
<svg xmlns="http://www.w3.org/2000/svg"
     width="1229.00390625" height="771.484375"
     viewBox="0 0 1229.00390625 771.484375"
     fill="currentColor">
  <path d="M153.3183 771.4813H1075.6883C1177.2483 771.4813 1229.0083 720.7013 1229.0083 620.1213V150.8813C1229.0083 50.7813 1177.2483 0.0013 1075.6883 0.0013H153.3183C50.7783 0.0013 -0.0017 50.2912 -0.0017 150.8813V620.1213C-0.0017 720.7013 50.7783 771.4813 153.3183 771.4813ZM185.0583 268.5513C171.3883 268.5513 163.0883 259.7613 163.0883 246.0913V199.7112C163.0883 186.0313 171.3883 177.2413 185.0583 177.2413H231.4483C245.6083 177.2413 254.3983 186.0313 254.3983 199.7112V246.0913C254.3983 259.7613 245.6083 268.5513 231.4483 268.5513ZM347.1683 268.5513C333.0083 268.5513 324.7083 259.7613 324.7083 246.0913V199.7112C324.7083 186.0313 333.0083 177.2413 347.1683 177.2413H393.5583C407.2283 177.2413 416.0183 186.0313 416.0183 199.7112V246.0913C416.0183 259.7613 407.2283 268.5513 393.5583 268.5513ZM509.2783 268.5513C495.6083 268.5513 486.8183 259.7613 486.8183 246.0913V199.7112C486.8183 186.0313 495.6083 177.2413 509.2783 177.2413H555.1783C569.3383 177.2413 578.1283 186.0313 578.1283 199.7112V246.0913C578.1283 259.7613 569.3383 268.5513 555.1783 268.5513ZM671.3883 268.5513C657.7183 268.5513 648.9283 259.7613 648.9283 246.0913V199.7112C648.9283 186.0313 657.7183 177.2413 671.3883 177.2413H717.7783C731.4483 177.2413 740.2383 186.0313 740.2383 199.7112V246.0913C740.2383 259.7613 731.4483 268.5513 717.7783 268.5513ZM833.4983 268.5513C819.3383 268.5513 810.5483 259.7613 810.5483 246.0913V199.7112C810.5483 186.0313 819.3383 177.2413 833.4983 177.2413H879.8783C893.5583 177.2413 901.8583 186.0313 901.8583 199.7112V246.0913C901.8583 259.7613 893.5583 268.5513 879.8783 268.5513ZM995.6083 268.5513C981.4483 268.5513 972.6583 259.7613 972.6583 246.0913V199.7112C972.6583 186.0313 981.4483 177.2413 995.6083 177.2413H1041.5083C1055.6683 177.2413 1063.9683 186.0313 1063.9683 199.7112V246.0913C1063.9683 259.7613 1055.6683 268.5513 1041.5083 268.5513ZM185.0583 430.6613C171.3883 430.6613 163.0883 421.8713 163.0883 408.2013V361.8213C163.0883 348.1413 171.3883 339.3513 185.0583 339.3513H231.4483C245.6083 339.3513 254.3983 348.1413 254.3983 361.8213V408.2013C254.3983 421.8713 245.6083 430.6613 231.4483 430.6613ZM347.1683 430.6613C333.0083 430.6613 324.7083 421.8713 324.7083 408.2013V361.8213C324.7083 348.1413 333.0083 339.3513 347.1683 339.3513H393.5583C407.2283 339.3513 416.0183 348.1413 416.0183 361.8213V408.2013C416.0183 421.8713 407.2283 430.6613 393.5583 430.6613ZM509.2783 430.6613C495.6083 430.6613 486.8183 421.8713 486.8183 408.2013V361.8213C486.8183 348.1413 495.6083 339.3513 509.2783 339.3513H555.1783C569.3383 339.3513 578.1283 348.1413 578.1283 361.8213V408.2013C578.1283 421.8713 569.3383 430.6613 555.1783 430.6613ZM671.3883 430.6613C657.7183 430.6613 648.9283 421.8713 648.9283 408.2013V361.8213C648.9283 348.1413 657.7183 339.3513 671.3883 339.3513H717.7783C731.4483 339.3513 740.2383 348.1413 740.2383 361.8213V408.2013C740.2383 421.8713 731.4483 430.6613 717.7783 430.6613ZM833.4983 430.6613C819.3383 430.6613 810.5483 421.8713 810.5483 408.2013V361.8213C810.5483 348.1413 819.3383 339.3513 833.4983 339.3513H879.8783C893.5583 339.3513 901.8583 348.1413 901.8583 361.8213V408.2013C901.8583 421.8713 893.5583 430.6613 879.8783 430.6613ZM995.6083 430.6613C981.4483 430.6613 972.6583 421.8713 972.6583 408.2013V361.8213C972.6583 348.1413 981.4483 339.3513 995.6083 339.3513H1041.5083C1055.6683 339.3513 1063.9683 348.1413 1063.9683 361.8213V408.2013C1063.9683 421.8713 1055.6683 430.6613 1041.5083 430.6613ZM185.0583 592.7713C171.3883 592.7713 163.0883 583.9813 163.0883 570.3113V523.9213C163.0883 510.2513 171.3883 501.4613 185.0583 501.4613H231.4483C245.6083 501.4613 254.3983 510.2513 254.3983 523.9213V570.3113C254.3983 583.9813 245.6083 592.7713 231.4483 592.7713ZM352.5383 592.7713C334.9583 592.7713 324.7083 582.5213 324.7083 564.9413V528.8113C324.7083 511.7213 334.9583 501.4613 352.5383 501.4613H874.5083C891.5983 501.4613 901.8583 511.7213 901.8583 528.8113V564.9413C901.8583 582.5213 891.5983 592.7713 874.5083 592.7713ZM995.6083 592.7713C981.4483 592.7713 972.6583 583.9813 972.6583 570.3113V523.9213C972.6583 510.2513 981.4483 501.4613 995.6083 501.4613H1041.5083C1055.6683 501.4613 1063.9683 510.2513 1063.9683 523.9213V570.3113C1063.9683 583.9813 1055.6683 592.7713 1041.5083 592.7713Z"/>
</svg>