<?xml version="1.0" encoding="UTF-8" standalone="no"?>
<svg xmlns="http://www.w3.org/2000/svg"
     width="1229.00390625" height="771.484375"
     viewBox="0 0 1229.00390625 771.484375"
     fill="currentColor">
  <path d="M153.3183 771.4813H1075.6883C1177.2483 771.4813 1229.0083 720.7013 1229.0083 620.1213V150.8813C1229.0083 50.7813 1177.2483 0.0013 1075.6883 0.0013H153.3183C50.7783 0.0013 -0.0017 50.2912 -0.0017 150.8813V620.1213C-0.0017 720.7013 50.7783 771.4813 153.3183 771.4813ZM459.9583 267.5813C451.1683 267.5813 445.3083 261.2313 445.3083 251.4613V194.8212C445.3083 184.5712 451.1683 178.7112 459.9583 178.7112H497.5583C506.3483 178.7112 512.2083 184.5712 512.2083 194.8212V251.4613C512.2083 261.2313 506.3483 267.5813 497.5583 267.5813ZM570.7983 267.5813C562.0083 267.5813 555.6683 261.2313 555.6683 251.4613V194.8212C555.6683 184.5712 562.0083 178.7112 570.7983 178.7112H607.9083C616.6983 178.7112 622.5583 184.5712 622.5583 194.8212V251.4613C622.5583 261.2313 616.6983 267.5813 607.9083 267.5813ZM681.6383 267.5813C671.8783 267.5813 666.5083 261.2313 666.5083 251.4613V194.8212C666.5083 184.5712 671.8783 178.7112 681.6383 178.7112H718.7483C727.0483 178.7112 733.3983 184.5712 733.3983 194.8212V251.4613C733.3983 261.2313 727.0483 267.5813 718.7483 267.5813ZM791.9883 267.5813C782.2283 267.5813 776.8583 261.2313 776.8583 251.4613V194.8212C776.8583 184.5712 782.2283 178.7112 791.9883 178.7112H828.1283C837.8883 178.7112 843.2583 184.5712 843.2583 194.8212V251.4613C843.2583 261.2313 837.8883 267.5813 828.1283 267.5813ZM901.8583 267.5813C893.0683 267.5813 887.6983 261.2313 887.6983 251.4613V194.8212C887.6983 184.5712 893.0683 178.7112 901.8583 178.7112H939.4483C948.2383 178.7112 954.0983 184.5712 954.0983 194.8212V251.4613C954.0983 261.2313 948.2383 267.5813 939.4483 267.5813ZM1013.1883 267.5813C1003.4183 267.5813 998.0483 261.2313 998.0483 251.4613V194.8212C998.0483 184.5712 1003.4183 178.7112 1013.1883 178.7112H1049.3183C1059.0783 178.7112 1064.4483 184.5712 1064.4483 194.8212V251.4613C1064.4483 261.2313 1059.0783 267.5813 1049.3183 267.5813ZM357.9083 357.4213C376.4683 375.0013 376.4683 395.9913 357.9083 413.5713L210.4483 554.2013C193.3583 570.3113 164.0583 563.9613 164.0583 536.6213V234.3712C164.0583 207.5213 193.3583 201.1712 210.4483 217.2813ZM459.9583 429.2013C451.1683 429.2013 445.3083 423.8313 445.3083 413.0813V356.9313C445.3083 346.1913 451.1683 340.8213 459.9583 340.8213H497.5583C506.3483 340.8213 512.2083 346.1913 512.2083 356.9313V413.0813C512.2083 423.8313 506.3483 429.2013 497.5583 429.2013ZM570.7983 429.2013C562.0083 429.2013 555.6683 423.8313 555.6683 413.0813V356.9313C555.6683 346.1913 562.0083 340.8213 570.7983 340.8213H607.9083C616.6983 340.8213 622.5583 346.1913 622.5583 356.9313V413.0813C622.5583 423.8313 616.6983 429.2013 607.9083 429.2013ZM681.6383 429.2013C671.8783 429.2013 666.5083 423.8313 666.5083 413.0813V356.9313C666.5083 346.1913 671.8783 340.8213 681.6383 340.8213H718.7483C727.0483 340.8213 733.3983 346.1913 733.3983 356.9313V413.0813C733.3983 423.8313 727.0483 429.2013 718.7483 429.2013ZM791.9883 429.2013C782.2283 429.2013 776.8583 423.8313 776.8583 413.0813V356.9313C776.8583 346.1913 782.2283 340.8213 791.9883 340.8213H828.1283C837.8883 340.8213 843.2583 346.1913 843.2583 356.9313V413.0813C843.2583 423.8313 837.8883 429.2013 828.1283 429.2013ZM901.8583 429.2013C893.0683 429.2013 887.6983 423.8313 887.6983 413.0813V356.9313C887.6983 346.1913 893.0683 340.8213 901.8583 340.8213H939.4483C948.2383 340.8213 954.0983 346.1913 954.0983 356.9313V413.0813C954.0983 423.8313 948.2383 429.2013 939.4483 429.2013ZM1013.1883 429.2013C1003.4183 429.2013 998.0483 423.8313 998.0483 413.0813V356.9313C998.0483 346.1913 1003.4183 340.8213 1013.1883 340.8213H1049.3183C1059.0783 340.8213 1064.4483 346.1913 1064.4483 356.9313V413.0813C1064.4483 423.8313 1059.0783 429.2013 1049.3183 429.2013ZM459.9583 591.3113C451.1683 591.3113 445.3083 585.4513 445.3083 575.1913V518.5513C445.3083 508.7913 451.1683 502.4413 459.9583 502.4413H497.5583C506.3483 502.4413 512.2083 508.7913 512.2083 518.5513V575.1913C512.2083 585.4513 506.3483 591.3113 497.5583 591.3113ZM570.7983 591.3113C562.0083 591.3113 555.6683 585.4513 555.6683 575.1913V518.5513C555.6683 508.7913 562.0083 502.4413 570.7983 502.4413H939.4483C948.2383 502.4413 954.0983 508.7913 954.0983 518.5513V575.1913C954.0983 585.4513 948.2383 591.3113 939.4483 591.3113ZM1013.1883 591.3113C1003.4183 591.3113 998.0483 585.4513 998.0483 575.1913V518.5513C998.0483 508.7913 1003.4183 502.4413 1013.1883 502.4413H1049.3183C1059.0783 502.4413 1064.4483 508.7913 1064.4483 518.5513V575.1913C1064.4483 585.4513 1059.0783 591.3113 1049.3183 591.3113Z"/>
</svg>