<?xml version="1.0" encoding="UTF-8" standalone="no"?>
<svg xmlns="http://www.w3.org/2000/svg"
     width="1479.00390625" height="809.5703125"
     viewBox="0 0 1479.00390625 809.5703125"
     fill="currentColor">
  <path d="M47.3683 809.5677C77.1483 809.5677 97.6583 792.9677 97.6583 759.7677L97.1683 545.8977L161.6183 437.4977L339.8483 770.9977C353.0283 795.8977 363.7683 807.1277 388.6683 807.1277C413.0883 807.1277 432.1283 788.0877 432.1283 763.6677C432.1283 750.4877 424.8083 735.8377 418.4583 724.1177L222.1683 362.3077L394.5283 82.0277C401.3683 70.7977 406.7383 61.0377 406.7383 46.8777C406.7383 19.5277 386.7183 1.9577 363.2783 1.9577C340.3283 1.9577 329.0983 15.1377 317.3783 35.1577L100.0983 400.3877H96.6783L96.1883 49.3177C96.1883 18.0677 77.1483 -0.0023 45.8983 -0.0023C21.4883 -0.0023 -0.0017 13.6677 -0.0017 49.3177V759.7677C-0.0017 792.4777 20.0183 809.5677 47.3683 809.5677ZM1098.6283 809.5677C1131.8383 809.5677 1145.9983 786.1377 1145.9983 756.8377V437.9877H1383.7883V756.8377C1383.7883 788.0877 1399.4183 809.5677 1431.1483 809.5677C1462.3983 809.5677 1479.0083 788.0877 1479.0083 756.8377V52.7377C1479.0083 21.4877 1462.3983 -0.0023 1431.1483 -0.0023C1399.4183 -0.0023 1383.7883 21.4877 1383.7883 52.7377V354.0077H1145.9983V52.7377C1145.9983 23.4377 1131.8383 -0.0023 1098.6283 -0.0023C1066.8983 -0.0023 1051.2683 21.4877 1051.2683 52.7377V756.8377C1051.2683 788.0877 1066.8983 809.5677 1098.6283 809.5677ZM582.5183 807.1277C608.8883 807.1277 629.8783 791.9877 629.8783 757.3277V513.1877H729.4883C860.3483 513.1877 931.6383 398.4377 931.6383 261.7177C931.6383 132.3277 866.2083 10.7377 733.3983 10.7377H581.0583C551.7583 10.7377 535.1583 30.7577 535.1583 60.5477V757.3277C535.1583 788.0877 551.7583 807.1277 582.5183 807.1277ZM629.8783 431.6377V92.7777H709.9583C799.8083 92.7777 838.3783 166.0177 838.3783 261.7177C838.3783 354.4877 801.7583 431.6377 709.9583 431.6377Z"/>
</svg>