<?xml version="1.0" encoding="UTF-8" standalone="no"?>
<svg xmlns="http://www.w3.org/2000/svg"
     width="996.09375" height="996.09375"
     viewBox="0 0 996.09375 996.09375"
     fill="currentColor">
  <path d="M498.0477 996.0959C770.5077 996.0959 996.0977 770.0159 996.0977 498.0459C996.0977 225.5859 770.0177 -0.0041 497.5577 -0.0041C225.5877 -0.0041 -0.0023 225.5859 -0.0023 498.0459C-0.0023 770.0159 226.0777 996.0959 498.0477 996.0959ZM498.0477 913.0859C267.5777 913.0859 83.4977 728.5159 83.4977 498.0459C83.4977 267.5759 267.0877 83.0059 497.5577 83.0059C728.0277 83.0059 913.0877 267.5759 913.0877 498.0459C913.0877 728.5159 728.5177 913.0859 498.0477 913.0859ZM406.7377 715.8159H631.8377C650.3877 715.8159 664.0577 703.6159 664.0577 684.0859C664.0577 664.0659 650.3877 651.8559 631.8377 651.8559H446.2877V309.0859C446.2877 282.2259 432.6177 265.1359 406.7377 265.1359C381.8377 265.1359 368.1677 283.2059 368.1677 309.0859V672.3659C368.1677 698.2459 381.8377 715.8159 406.7377 715.8159Z"/>
</svg>