<?xml version="1.0" encoding="UTF-8" standalone="no"?>
<svg xmlns="http://www.w3.org/2000/svg"
     width="1239.74609375" height="1364.4415449834496"
     viewBox="0 0 1239.74609375 1364.4415449834496"
     fill="currentColor">
  <path d="M619.6277 -0.002C277.3477 -0.002 -0.0023 277.348 -0.0023 619.628C-0.0023 892.578 176.7577 1124.508 421.8777 1207.028C417.9677 1178.708 425.7777 1151.368 442.3877 1130.368C230.9577 1057.128 78.6177 856.448 78.6177 619.628C78.6177 320.798 320.7977 78.618 619.6277 78.618C918.4577 78.618 1161.1377 320.798 1161.1377 619.628C1161.1377 855.468 1009.2777 1056.638 797.8477 1130.368C814.9377 1150.878 822.2677 1178.218 818.3577 1206.548C1063.4777 1123.538 1239.7477 892.088 1239.7477 619.628C1239.7477 277.348 961.9177 -0.002 619.6277 -0.002ZM619.6277 190.428C382.8077 190.428 190.9177 382.808 190.9177 619.628C190.9177 856.448 382.8077 1048.338 619.6277 1048.338C856.9377 1048.338 1048.8277 856.448 1048.8277 619.628C1048.8277 382.808 856.9377 190.428 619.6277 190.428ZM530.7577 833.498C505.8577 833.498 492.6777 815.428 492.6777 789.548V434.568C492.6777 408.688 505.8577 391.118 530.7577 391.118C555.6677 391.118 569.3377 408.208 569.3377 434.568V770.018H750.9777C769.5277 770.018 783.2077 781.738 783.2077 801.268C783.2077 821.288 769.5277 833.498 750.9777 833.498ZM497.0677 1220.218L594.2377 1351.078C607.4177 1369.138 632.3277 1368.648 645.9977 1351.078L743.6477 1220.218C763.1877 1194.338 752.9277 1160.648 717.7777 1160.648H522.4577C488.7677 1160.648 477.0477 1193.358 497.0677 1220.218Z"/>
</svg>