<?xml version="1.0" encoding="UTF-8" standalone="no"?>
<svg xmlns="http://www.w3.org/2000/svg"
     width="1364.6240234375" height="1239.2578125"
     viewBox="0 0 1364.6240234375 1239.2578125"
     fill="currentColor">
  <path d="M744.9939 -0.002C472.0439 -0.002 240.1139 176.758 157.5939 421.878C185.9139 417.968 213.2539 425.288 234.2539 442.378C307.4939 230.468 508.1739 78.618 744.9939 78.618C1043.8239 78.618 1286.0139 320.798 1286.0139 619.628C1286.0139 918.458 1043.8239 1160.648 744.9939 1160.648C508.6639 1160.648 307.9839 1009.278 234.2539 797.848C213.7439 814.458 186.4039 822.268 158.0839 818.358C241.0939 1062.988 472.5339 1239.258 744.9939 1239.258C1087.2839 1239.258 1364.6239 961.918 1364.6239 619.628C1364.6239 277.348 1087.2839 -0.002 744.9939 -0.002ZM744.9939 1048.338C981.8139 1048.338 1174.1939 856.448 1174.1939 619.628C1174.1939 382.808 981.8139 190.428 744.9939 190.428C508.1739 190.428 315.7939 382.808 315.7939 619.628C315.7939 856.448 508.1739 1048.338 744.9939 1048.338ZM656.1239 833.498C631.2239 833.498 618.0439 815.428 618.0439 789.548V434.568C618.0439 408.688 631.2239 391.118 656.1239 391.118C681.0339 391.118 694.7039 408.208 694.7039 434.568V770.018H876.3439C894.8939 770.018 908.5739 781.738 908.5739 801.268C908.5739 821.288 894.8939 833.498 876.3439 833.498ZM144.4139 496.578L13.5539 594.238C-4.5161 607.418 -4.5161 632.328 13.5539 645.508L144.4139 743.168C170.2839 762.698 203.9839 752.438 203.9839 717.778V521.968C203.9839 488.278 171.2639 476.078 144.4139 496.578Z"/>
</svg>