<?xml version="1.0" encoding="UTF-8" standalone="no"?>
<svg xmlns="http://www.w3.org/2000/svg"
     width="1239.74609375" height="1364.6240234375"
     viewBox="0 0 1239.74609375 1364.6240234375"
     fill="currentColor">
  <path d="M497.0677 144.4042C477.0477 171.2642 488.7677 203.9842 522.4577 203.9842H717.7777C752.9277 203.9842 763.1877 170.2842 743.6477 144.4042L645.9977 13.5542C632.3277 -4.5158 607.4177 -4.5158 594.2377 13.5542ZM619.6277 1364.6242C961.9177 1364.6242 1239.7477 1087.2842 1239.7477 744.9942C1239.7477 472.5342 1063.4777 240.6042 818.3577 158.0842C822.2677 185.9142 814.9377 213.7442 797.8477 234.2542C1009.2777 307.9842 1161.1377 508.6642 1161.1377 744.9942C1161.1377 1043.8242 918.4577 1286.0142 619.6277 1286.0142C320.7977 1286.0142 78.6177 1043.8242 78.6177 744.9942C78.6177 508.1742 230.9577 307.4942 442.3877 234.2542C425.7777 213.2542 417.9677 185.4242 421.8777 157.5942C176.7577 239.6242 -0.0023 472.0442 -0.0023 744.9942C-0.0023 1087.2842 277.3477 1364.6242 619.6277 1364.6242ZM619.6277 1173.7042C856.9377 1173.7042 1048.8277 981.8142 1048.8277 744.9942C1048.8277 508.1742 856.9377 315.7942 619.6277 315.7942C382.8077 315.7942 190.9177 508.1742 190.9177 744.9942C190.9177 981.8142 382.8077 1173.7042 619.6277 1173.7042ZM530.7577 958.8642C505.8577 958.8642 492.6777 940.7942 492.6777 914.9142V559.9342C492.6777 534.0542 505.8577 516.4842 530.7577 516.4842C555.6677 516.4842 569.3377 533.5742 569.3377 559.9342V895.3842H750.9777C769.5277 895.3842 783.2077 907.1042 783.2077 926.6342C783.2077 946.6542 769.5277 958.8642 750.9777 958.8642Z"/>
</svg>