<?xml version="1.0" encoding="UTF-8" standalone="no"?>
<svg xmlns="http://www.w3.org/2000/svg"
     width="1239.74609375" height="1364.4415449834496"
     viewBox="0 0 1239.74609375 1364.4415449834496"
     fill="currentColor">
  <path d="M619.6277 -0.002C277.3477 -0.002 -0.0023 277.348 -0.0023 619.628C-0.0023 892.578 176.7577 1124.508 421.8777 1207.028C417.9677 1178.708 425.7777 1151.368 442.3877 1130.368C230.9577 1057.128 78.6177 856.448 78.6177 619.628C78.6177 320.798 320.7977 78.618 619.6277 78.618C918.4577 78.618 1161.1377 320.798 1161.1377 619.628C1161.1377 855.468 1009.2777 1056.638 797.8477 1130.368C814.9377 1150.878 822.2677 1178.218 818.3577 1206.548C1063.4777 1123.538 1239.7477 892.088 1239.7477 619.628C1239.7477 277.348 961.9177 -0.002 619.6277 -0.002ZM619.6277 190.428C382.8077 190.428 190.9177 382.808 190.9177 619.628C190.9177 856.448 382.8077 1048.338 619.6277 1048.338C856.9377 1048.338 1048.8277 856.448 1048.8277 619.628C1048.8277 382.808 856.9377 190.428 619.6277 190.428ZM619.6277 269.038C813.4777 269.038 970.2177 426.268 970.2177 619.628C970.2177 812.988 813.4777 969.728 619.6277 969.728C426.2677 969.728 269.5277 812.988 269.5277 619.628C269.5277 426.268 426.2677 269.038 619.6277 269.038ZM533.6877 826.658H747.0677C765.1377 826.658 778.3177 814.938 778.3177 796.388C778.3177 777.348 765.1377 766.118 747.0677 766.118H571.2877V440.428C571.2877 414.548 558.1077 398.438 533.6877 398.438C509.7677 398.438 497.0677 415.528 497.0677 440.428V785.158C497.0677 810.058 509.7677 826.658 533.6877 826.658ZM497.0677 1220.218L594.2377 1351.078C607.4177 1369.138 632.3277 1368.648 645.9977 1351.078L743.6477 1220.218C763.1877 1194.338 752.9277 1160.648 717.7777 1160.648H522.4577C488.7677 1160.648 477.0477 1193.358 497.0677 1220.218Z"/>
</svg>