<?xml version="1.0" encoding="UTF-8" standalone="no"?>
<svg xmlns="http://www.w3.org/2000/svg"
     width="1180.6640625" height="898.92578125"
     viewBox="0 0 1180.6640625 898.92578125"
     fill="currentColor">
  <path d="M419.9177 898.9295H761.2277C1051.7577 898.9295 1180.6677 765.6295 1180.6677 491.6995V151.3695C1180.6677 50.7795 1129.3977 -0.0005 1027.3477 -0.0005H153.3177C51.2677 -0.0005 -0.0023 50.2895 -0.0023 151.3695V491.6995C-0.0023 765.6295 128.9077 898.9295 419.9177 898.9295ZM419.9177 819.3395C182.6177 819.3395 78.6177 715.3295 78.6177 496.5795V155.2695C78.6177 104.4895 105.4677 78.6095 154.2977 78.6095H1026.3677C1074.7077 78.6095 1102.0477 104.4895 1102.0477 155.2695V496.5795C1102.0477 715.3295 998.0477 819.3395 760.7377 819.3395ZM499.9977 668.4595H724.6077C743.6477 668.4595 757.3277 656.2495 757.3277 636.2295C757.3277 616.2095 743.6477 604.4895 724.6077 604.4895H539.5477V261.7195C539.5477 234.3795 525.3877 217.7695 499.9977 217.7695C474.6077 217.7695 461.4277 235.3495 461.4277 261.7195V624.5095C461.4277 650.3895 474.6077 668.4595 499.9977 668.4595Z"/>
</svg>