<?xml version="1.0" encoding="UTF-8" standalone="no"?>
<svg xmlns="http://www.w3.org/2000/svg"
     width="1180.6640625" height="898.92578125"
     viewBox="0 0 1180.6640625 898.92578125"
     fill="currentColor">
  <path d="M419.9177 898.9295H761.2277C1051.7577 898.9295 1180.6677 765.6295 1180.6677 491.6995V151.3695C1180.6677 50.7795 1129.3977 -0.0005 1027.3477 -0.0005H153.3177C51.2677 -0.0005 -0.0023 50.2895 -0.0023 151.3695V491.6995C-0.0023 765.6295 128.9077 898.9295 419.9177 898.9295ZM371.5777 675.2895C345.7077 675.2895 332.0277 656.7395 332.0277 629.8795V255.8595C332.0277 228.5195 345.7077 210.4495 371.5777 210.4495C397.9477 210.4495 412.1077 227.5395 412.1077 255.8595V608.8895H603.5177C623.0477 608.8895 637.2077 621.0895 637.2077 642.0895C637.2077 662.5995 623.0477 675.2895 603.5177 675.2895ZM804.1977 687.0095C779.2977 687.0095 764.6477 669.9195 764.6477 641.5995V298.8295H760.7377L695.7977 341.7995C684.5677 349.6095 679.1977 350.5895 671.3877 350.5895C655.2777 350.5895 642.5777 335.9395 642.5777 320.3095C642.5777 307.6195 646.9777 300.2895 658.2077 291.9895L748.5377 230.4695C770.5077 215.8195 783.6877 210.9395 802.2477 210.9395C829.0977 210.9395 844.7277 227.0495 844.7277 256.3495V641.5995C844.7277 669.9195 830.0777 687.0095 804.1977 687.0095Z"/>
</svg>