<?xml version="1.0" encoding="UTF-8" standalone="no"?>
<svg xmlns="http://www.w3.org/2000/svg"
     width="1180.6640625" height="898.92578125"
     viewBox="0 0 1180.6640625 898.92578125"
     fill="currentColor">
  <path d="M419.9177 -0.0005C128.9077 -0.0005 -0.0023 133.2995 -0.0023 406.7395V747.5595C-0.0023 848.6295 51.2677 898.9295 153.3177 898.9295H1027.3477C1129.3977 898.9295 1180.6677 848.1495 1180.6677 747.5595V406.7395C1180.6677 133.2995 1051.7577 -0.0005 761.2277 -0.0005ZM319.3377 676.2695C293.9477 676.2695 280.2777 657.2295 280.2777 630.3695V256.8395C280.2777 229.4895 293.9477 210.9395 319.3377 210.9395C346.1877 210.9395 360.3477 228.5195 360.3477 256.8395V609.8595H541.5077C561.0377 609.8595 575.6877 622.0695 575.6877 642.5795C575.6877 663.5695 561.5277 676.2695 541.5077 676.2695ZM660.6477 676.2695C638.6677 676.2695 624.9977 663.0895 624.9977 642.5795C624.9977 631.8395 629.3977 622.5595 638.1877 612.7895L798.8277 443.3595C828.6177 412.1095 859.3777 381.3495 859.3777 344.7295C859.3777 303.2195 827.6377 275.3895 780.2777 275.3895C730.9577 275.3895 705.5677 307.6195 691.4077 337.8895C682.6177 352.0495 673.3377 363.2795 655.2777 363.2795C636.2277 363.2795 623.0477 350.5895 623.0477 331.0595C623.0477 324.7095 623.5377 318.3595 625.4877 311.0395C641.5977 254.3895 705.0777 210.9395 776.3677 210.9395C869.6277 210.9395 931.1477 262.2095 931.1477 338.8695C931.1477 394.5295 900.3877 435.0595 855.4677 482.4195L736.3277 606.4495V609.8595H914.5477C933.5977 609.8595 948.2377 622.0695 948.2377 642.5795C948.2377 663.0895 933.5977 676.2695 914.5477 676.2695Z"/>
</svg>