<?xml version="1.0" encoding="UTF-8" standalone="no"?>
<svg xmlns="http://www.w3.org/2000/svg"
     width="1106.93359375" height="1151.205983258295"
     viewBox="0 0 1106.93359375 1151.205983258295"
     fill="currentColor">
  <path d="M293.9483 285.7231C293.9483 312.0931 304.1983 332.6031 335.4483 346.7631C389.1583 371.6631 470.2183 386.7931 553.2183 386.7931C636.7183 386.7931 717.7783 371.6631 771.4883 346.7631C802.7383 332.6031 812.9883 312.0931 812.9883 285.7231C812.9883 221.2731 775.8783 164.6331 712.3983 129.9631L709.9583 118.2431C706.0583 101.1531 714.3583 89.9231 735.3483 82.6031L768.5583 70.3931C815.4283 56.2331 792.4783 -14.0769 744.1383 2.5231L705.5683 18.1431C663.0883 33.2831 640.6283 62.5831 639.6483 102.1331C613.2783 95.7831 584.4683 92.8531 553.2183 92.8531C522.4583 92.8531 493.6483 95.7831 466.7983 102.1331C466.3083 62.5831 443.8483 33.2831 401.3683 18.1431L362.7883 2.5231C314.4483 -14.0769 291.5083 56.2331 338.3783 70.3931L371.5783 82.6031C392.5783 89.9231 400.8783 101.1531 396.9683 118.2431L394.0383 129.9631C331.0583 164.6331 293.9483 221.2731 293.9483 285.7231ZM635.2583 1150.4731C738.2783 1137.2831 823.7283 1089.4331 884.2783 1016.1931L950.1983 1071.8531C968.2583 1086.9931 991.6983 1088.9431 1006.8383 1070.8831C1021.4883 1053.3031 1016.1183 1029.8631 998.0483 1014.7231L925.7783 954.1831C960.9383 890.2131 980.4683 813.0631 982.4183 727.6131H1066.4083C1090.8183 727.6131 1106.9383 712.9731 1106.9383 690.5131C1106.9383 668.0431 1090.8183 652.9131 1066.8983 652.9131H978.0283C969.7283 587.4831 949.2183 518.1431 920.4083 466.3831L996.5783 402.4231C1014.1583 387.2831 1020.0183 363.8531 1005.3683 345.7831C990.2383 327.7131 966.7983 329.6731 948.7283 345.2931L874.5083 407.7931C846.1883 383.3831 828.6183 383.3831 811.0383 390.7031C738.7683 422.9331 647.4583 443.4431 553.2183 443.4431C459.4683 443.4431 368.1683 422.9331 295.8983 390.7031C278.3183 383.3831 260.7383 383.3831 231.9383 407.7931L158.1983 345.2931C140.1383 329.6731 116.6983 327.7131 101.5583 345.7831C86.9183 363.8531 92.7783 387.2831 110.3483 402.4231L186.5283 466.3831C157.7183 518.1431 137.2083 587.4831 128.9083 652.9131H40.0383C15.6283 652.9131 -0.0017 668.0431 -0.0017 690.5131C-0.0017 712.9731 15.6283 727.6131 40.5283 727.6131H124.5083C126.4683 813.0631 145.9983 890.2131 181.1483 954.1831L108.3983 1014.7231C90.8183 1029.8631 85.4483 1053.3031 100.0983 1070.8831C115.2383 1088.9431 138.1883 1086.9931 156.7383 1071.8531L222.6583 1016.1931C283.1983 1089.4331 368.6483 1137.2831 471.6783 1150.4731C504.8783 1154.3731 521.4883 1142.6531 521.4883 1117.2631V561.6031C521.4883 544.0231 535.6483 529.8631 553.2183 529.8631C570.7983 529.8631 585.4483 544.0231 585.4483 561.6031V1117.2631C585.4483 1142.6531 602.0483 1154.3731 635.2583 1150.4731ZM363.2783 623.6131C328.6183 623.6131 300.7783 594.3131 300.7783 560.6231C300.7783 525.9531 328.6183 497.6331 363.2783 497.6331C397.9483 497.6331 426.2683 525.9531 426.2683 560.6231C426.2683 594.8031 397.9483 623.6131 363.2783 623.6131ZM743.6483 623.6131C708.9883 623.6131 680.6683 594.8031 680.6683 560.6231C680.6683 525.9531 708.9883 497.6331 743.6483 497.6331C778.3183 497.6331 806.1483 525.9531 806.1483 560.6231C806.1483 594.3131 778.3183 623.6131 743.6483 623.6131ZM311.0383 833.5731C270.5083 833.5731 237.7883 800.8631 237.7883 759.8431C237.7883 719.8031 270.5083 687.0931 311.0383 687.0931C351.0783 687.0931 384.2783 719.8031 384.2783 759.8431C384.2783 800.8631 351.0783 833.5731 311.0383 833.5731ZM795.8983 833.5731C755.8583 833.5731 722.6583 800.8631 722.6583 759.8431C722.6583 719.8031 755.8583 687.0931 795.8983 687.0931C836.4283 687.0931 869.1383 719.8031 869.1383 759.8431C869.1383 800.8631 836.4283 833.5731 795.8983 833.5731ZM373.0483 1012.2831C343.2583 1012.2831 319.3383 988.3631 319.3383 958.5731C319.3383 928.7931 343.2583 904.8631 373.0483 904.8631C403.3183 904.8631 427.2483 928.7931 427.2483 958.5731C427.2483 988.3631 403.3183 1012.2831 373.0483 1012.2831ZM733.8883 1012.2831C703.6183 1012.2831 679.6883 988.3631 679.6883 958.5731C679.6883 928.7931 703.6183 904.8631 733.8883 904.8631C763.6683 904.8631 787.5983 928.7931 787.5983 958.5731C787.5983 988.3631 763.6683 1012.2831 733.8883 1012.2831Z"/>
</svg>