<?xml version="1.0" encoding="UTF-8" standalone="no"?>
<svg xmlns="http://www.w3.org/2000/svg"
     width="1106.93359375" height="1147.0374865428748"
     viewBox="0 0 1106.93359375 1147.0374865428748"
     fill="currentColor">
  <path d="M553.2183 1147.035C693.8483 1147.035 809.0783 1094.795 884.2783 1003.975L950.1983 1059.635C968.2583 1074.775 991.6983 1076.725 1006.8383 1058.655C1021.4883 1040.595 1016.1183 1017.155 998.0483 1002.505L926.2683 941.955C961.4283 877.995 980.9583 801.335 982.4183 714.905L1066.4083 715.395C1090.8183 715.395 1106.9383 700.265 1106.9383 677.795C1106.9383 655.825 1090.8183 640.685 1066.8983 640.685L978.0283 640.205C969.7283 575.745 949.2183 511.785 919.4383 454.655L996.5783 389.715C1014.1583 375.065 1020.0183 351.135 1005.3683 333.565C990.2383 315.495 966.7983 317.445 948.7283 332.585L879.3983 391.175C859.8683 364.325 837.8883 339.905 813.9683 318.915C813.4783 238.835 776.8583 177.315 714.8483 140.685L709.9583 118.715C706.0583 101.135 714.3583 89.905 735.3483 82.585L768.5583 70.375C815.4283 56.705 792.4783 -14.095 744.1383 2.505L705.5683 18.135C659.6683 34.735 637.2083 67.445 640.1383 111.395C613.7683 105.045 584.4683 102.115 553.2183 102.115C522.4583 102.115 493.1683 105.045 466.7983 111.395C469.7283 67.445 447.2683 34.735 401.3683 18.135L362.7883 2.505C314.4483 -14.095 291.5083 56.705 338.3783 70.375L371.5783 82.585C392.5783 89.905 400.8783 101.135 396.9683 118.715L391.5983 140.685C329.5883 177.795 293.4583 238.835 292.9683 319.405C269.0383 340.395 247.0683 364.815 227.5383 391.175L158.1983 332.585C140.1383 317.445 116.6983 315.495 101.5583 333.565C86.9183 351.135 92.2883 375.065 110.3483 389.715L187.4983 454.655C157.2283 511.785 137.2083 575.265 128.9083 640.205L40.0383 640.685C15.6283 640.685 -0.0017 655.825 -0.0017 677.795C-0.0017 700.265 15.6283 715.395 40.5283 715.395L124.5083 714.905C125.9783 801.335 145.5083 877.995 180.6683 941.955L108.3983 1002.505C90.8183 1017.155 85.4483 1040.595 100.0983 1058.655C115.2383 1076.725 138.1883 1074.775 156.7383 1059.635L222.6583 1003.975C297.8483 1094.795 413.0883 1147.035 553.2183 1147.035ZM553.2183 435.125C639.6483 435.125 725.0983 418.525 780.7583 393.615C841.3083 456.605 905.7583 567.445 905.7583 706.115C905.7583 914.125 778.3183 1056.705 583.4983 1069.885V526.925C583.4983 509.345 568.8483 495.185 551.2683 495.185C533.6883 495.185 519.5283 509.345 519.5283 526.925V1069.885C327.1483 1054.755 200.6883 913.155 200.6883 706.115C200.6883 567.935 264.6483 457.585 326.1683 393.615C381.8383 418.525 467.2883 435.125 553.2183 435.125ZM397.4583 606.025C431.6383 606.025 458.9883 577.705 458.9883 544.015C458.9883 510.315 431.6383 482.485 397.4583 482.485C363.7683 482.485 336.4283 510.315 336.4283 544.015C336.4283 577.705 363.7683 606.025 397.4583 606.025ZM709.4683 606.025C743.1683 606.025 770.5083 577.705 770.5083 544.015C770.5083 510.315 743.1683 482.485 709.4683 482.485C675.2883 482.485 647.9483 510.315 647.9483 544.015C647.9483 577.705 675.2883 606.025 709.4683 606.025ZM339.3583 799.385C378.4183 799.385 410.6483 767.155 410.6483 727.605C410.6483 688.055 378.4183 655.825 339.3583 655.825C299.3183 655.825 267.0883 688.055 267.0883 727.605C267.0883 767.155 299.3183 799.385 339.3583 799.385ZM767.5783 799.385C807.1283 799.385 839.8483 767.155 839.8483 727.605C839.8483 688.055 807.1283 655.825 767.5783 655.825C728.5183 655.825 695.7983 688.055 695.7983 727.605C695.7983 767.155 728.5183 799.385 767.5783 799.385ZM397.4583 966.375C429.1983 966.375 454.5883 940.985 454.5883 909.735C454.5883 877.995 429.1983 852.605 397.4583 852.605C366.2083 852.605 340.8183 877.995 340.8183 909.735C340.8183 940.985 366.2083 966.375 397.4583 966.375ZM709.4683 966.375C740.7183 966.375 766.1183 940.985 766.1183 909.735C766.1183 877.995 740.7183 852.605 709.4683 852.605C677.7383 852.605 652.3483 877.995 652.3483 909.735C652.3483 940.985 677.7383 966.375 709.4683 966.375Z"/>
</svg>