<?xml version="1.0" encoding="UTF-8" standalone="no"?>
<svg xmlns="http://www.w3.org/2000/svg"
     width="941.4232063713727" height="1150.634765625"
     viewBox="0 0 941.4232063713727 1150.634765625"
     fill="currentColor">
  <path d="M470.7068 1150.6388C754.4068 1150.6388 942.8768 1065.1888 941.4168 938.2288V931.8888C937.9968 804.9288 822.2768 650.6388 678.2268 579.8388C655.2868 500.7288 589.3668 442.1388 510.7468 427.4888V270.7488C611.8268 257.5688 691.9068 193.5988 708.9968 104.7388C716.3168 64.2088 696.2968 33.9388 656.2568 22.7088C541.0268 -7.5712 401.3768 -7.5712 286.6268 22.7088C246.5868 33.9388 226.5668 64.2088 233.8968 104.7388C250.4968 193.5988 330.5768 257.5688 432.1368 270.7488V426.9988C352.5468 441.6488 286.1368 500.2488 263.1968 579.8388C120.1268 650.1488 5.3768 803.4688 0.0068 929.4388V938.2288C-1.4532 1065.1888 187.0168 1150.6388 470.7068 1150.6388ZM68.3668 938.2288C68.8568 850.3388 229.4968 793.6988 470.7068 793.6988C712.4068 793.6988 872.5668 850.3388 873.0568 938.2288C872.5668 1025.6388 712.4068 1082.2788 470.7068 1082.2788C229.4968 1082.2788 68.8568 1025.6388 68.3668 938.2288ZM470.7068 974.8488C559.0868 974.8488 644.5368 920.1688 644.5368 853.7588C594.2468 845.9488 535.1668 841.0688 470.7068 841.0688C406.2568 841.0688 347.1768 845.9488 296.8868 853.7588C296.8868 920.1688 382.3368 974.8488 470.7068 974.8488Z"/>
</svg>