<?xml version="1.0" encoding="UTF-8" standalone="no"?>
<svg xmlns="http://www.w3.org/2000/svg"
     width="745.6647451772169" height="1199.70703125"
     viewBox="0 0 745.6647451772169 1199.70703125"
     fill="currentColor">
  <path d="M153.3479 1199.7033H592.3179C610.3779 1199.7033 622.5879 1187.0133 622.5879 1167.9733C622.5879 1130.8633 592.3179 1104.9833 545.9279 1104.9833H412.1379V663.0833C505.3979 661.6233 596.2179 655.2733 671.9079 644.0433C739.2879 633.7933 759.3079 584.4733 736.8479 514.6533L607.9379 106.4433C584.9879 33.2033 526.3979 0.0033 446.8079 0.0033H298.8579C219.2679 0.0033 160.6779 33.2033 137.7279 106.4433L8.8179 514.6533C-13.6421 584.4733 6.3779 633.7933 73.7579 644.0433C149.4479 655.2733 240.2679 661.6233 333.5279 663.0833V1104.9833H199.7379C153.3479 1104.9833 123.5679 1130.8633 123.5679 1167.9733C123.5679 1187.0133 135.2879 1199.7033 153.3479 1199.7033Z"/>
</svg>