<?xml version="1.0" encoding="UTF-8" standalone="no"?>
<svg xmlns="http://www.w3.org/2000/svg"
     width="902.531819801593" height="1153.076171875"
     viewBox="0 0 902.531819801593 1153.076171875"
     fill="currentColor">
  <path d="M56.1483 1153.0737H575.6883C593.7483 1153.0737 605.9583 1139.8937 605.9583 1120.8537C605.9583 1084.2237 574.2183 1058.3537 524.8983 1058.3537H328.1283V911.8637C350.5883 898.6837 365.2383 874.7537 365.2383 846.4337C365.2383 803.9537 331.0583 770.2637 289.0583 770.2637C287.1083 770.2637 285.6483 770.2637 283.6883 770.2637L150.8783 637.9437C151.8583 633.0537 152.3483 627.6837 152.3483 622.3137C152.3483 616.9437 151.8583 612.0637 150.8783 607.1737L392.5783 385.0137C395.9983 451.9037 405.7583 511.4737 423.8283 569.0937C437.0083 610.1037 472.1683 627.1937 502.9283 596.4337L887.6983 211.6737C916.9883 182.8637 900.3883 147.2137 859.8683 134.5237C767.0883 104.7337 666.9883 96.4337 536.1283 104.2437L510.2583 76.9037C477.5383 42.2337 434.0783 34.4237 395.9983 53.4637L352.5383 10.9837C337.8883 -3.6663 315.4283 -3.6663 300.7783 10.9837C286.6183 25.1437 286.1283 47.6037 300.7783 62.2537L344.2383 105.7137C325.1983 144.7737 332.0283 188.7237 367.1883 219.9737L394.5283 244.8737C394.0383 256.1037 393.5583 267.3337 393.0683 278.5637L98.1483 549.5637C91.3083 547.1237 83.9883 546.1437 76.1683 546.1437C33.1983 546.1437 -0.0017 579.8337 -0.0017 622.3137C-0.0017 665.2837 33.1983 698.4837 76.1683 698.4837C83.4983 698.4837 90.8183 697.5137 97.6583 695.5537L218.7483 816.1637C214.8483 825.4437 212.8883 835.6937 212.8883 846.4337C212.8883 874.7537 227.0483 899.1737 249.5083 911.8637V1058.3537H106.9383C57.6183 1058.3537 25.8783 1084.2237 25.8783 1120.8537C25.8783 1139.8937 38.0883 1153.0737 56.1483 1153.0737ZM723.6283 565.6737C795.8983 565.6737 855.4683 505.6137 855.4683 434.3237C855.4683 403.0737 844.2383 372.8037 822.2683 348.8737L638.1883 532.9637C662.1083 554.4437 692.3783 565.6737 723.6283 565.6737Z"/>
</svg>