<?xml version="1.0" encoding="UTF-8" standalone="no"?>
<svg xmlns="http://www.w3.org/2000/svg"
     width="1408.203125" height="941.40625"
     viewBox="0 0 1408.203125 941.40625"
     fill="currentColor">
  <path d="M669.4383 35.1561V423.3361L673.8283 526.3661L578.6183 419.4361L550.2883 391.6061C543.4583 385.2561 534.6683 381.3461 524.4183 381.3461C504.3983 381.3461 490.7183 395.5061 490.7183 414.5461C490.7183 424.8061 494.6283 433.5961 501.4683 440.4261L677.7383 617.6761C686.5283 625.9761 695.7983 630.3661 704.0983 630.3661C712.3983 630.3661 722.1683 625.9761 730.4683 617.6761L906.7383 440.4261C913.5783 433.5961 917.4783 424.8061 917.4783 414.5461C917.4783 395.5061 903.8083 381.3461 883.7883 381.3461C873.5383 381.3461 864.7483 385.2561 857.9083 391.6061L829.5883 419.4361L734.3783 526.3661L739.2583 423.3361V35.1561C739.2583 13.1861 722.1683 -0.0039 704.0983 -0.0039C686.0383 -0.0039 669.4383 13.1861 669.4383 35.1561ZM55.1783 941.4061H1353.0283C1383.2983 941.4061 1408.1983 916.5061 1408.1983 885.7461C1408.1983 854.9761 1383.2983 830.0761 1353.0283 830.0761H1246.0983V250.4861C1246.0983 182.1261 1209.4683 146.9761 1141.5983 146.9761H805.6683V225.5861H1120.6083C1151.8583 225.5861 1167.4783 241.2061 1167.4783 272.4561V830.0761H240.7183V272.4561C240.7183 241.2061 256.3483 225.5861 287.5983 225.5861H602.5383V146.9761H266.5983C202.1483 146.9761 162.1083 182.1261 162.1083 250.4861V830.0761H55.1783C24.8983 830.0761 -0.0017 854.9761 -0.0017 885.7461C-0.0017 916.5061 24.8983 941.4061 55.1783 941.4061Z"/>
</svg>