<?xml version="1.0" encoding="UTF-8" standalone="no"?>
<svg xmlns="http://www.w3.org/2000/svg"
     width="996.09375" height="996.09375"
     viewBox="0 0 996.09375 996.09375"
     fill="currentColor">
  <path d="M498.0477 996.0959C770.5077 996.0959 996.0977 770.0159 996.0977 498.0459C996.0977 225.5859 770.0177 -0.0041 497.5577 -0.0041C225.5877 -0.0041 -0.0023 225.5859 -0.0023 498.0459C-0.0023 770.0159 226.0777 996.0959 498.0477 996.0959ZM498.0477 913.0859C267.5777 913.0859 83.4977 728.5159 83.4977 498.0459C83.4977 267.5759 267.0877 83.0059 497.5577 83.0059C728.0277 83.0059 913.0877 267.5759 913.0877 498.0459C913.0877 728.5159 728.5177 913.0859 498.0477 913.0859ZM333.4977 730.4659H635.7377C652.8277 730.4659 664.0577 718.7459 664.0577 702.6359C664.0577 687.0159 652.3477 675.7859 635.7377 675.7859H561.0377C453.1277 675.7859 369.6277 594.7259 369.6277 488.2859C369.6277 421.3859 391.5977 374.5159 431.6377 350.0959V474.1259C431.6377 487.7959 441.4077 497.5559 455.0777 497.5559C468.7477 497.5559 479.0077 487.7959 479.0077 474.1259V333.4959C487.3077 332.5159 496.0977 331.5459 503.4177 331.5459C511.2277 331.5459 518.0677 332.5159 523.9277 333.4959V474.1259C523.9277 487.7959 534.1777 497.5559 547.8477 497.5559C561.5277 497.5559 571.2877 487.7959 571.2877 474.1259V351.5659C606.4477 375.4859 628.9077 416.9959 629.8877 471.1959C630.3677 490.2359 642.0877 503.4159 660.1577 503.4159C677.2477 503.4159 689.9377 490.2359 689.9377 471.6759C689.4577 385.7459 642.5777 313.4759 571.2877 286.1359V241.2059C571.2877 227.0459 561.5277 217.2859 547.8477 217.2859C534.1777 217.2859 523.9277 227.0459 523.9277 241.2059V274.4159C517.5777 273.4359 510.7377 273.4359 503.9077 273.4359C496.0977 273.4359 487.3077 273.9259 479.0077 274.9059V241.2059C479.0077 227.0459 468.7477 217.2859 455.0777 217.2859C441.4077 217.2859 431.6377 227.0459 431.6377 241.2059V284.6659C354.0077 312.4959 307.1277 384.2759 307.1277 481.4459C307.1277 564.9459 346.1877 637.2059 406.2477 675.7859H333.9877C317.8677 675.7859 305.6677 687.0159 305.6677 702.6359C305.6677 719.2359 316.8977 730.4659 333.4977 730.4659Z"/>
</svg>