<?xml version="1.0" encoding="UTF-8" standalone="no"?>
<svg xmlns="http://www.w3.org/2000/svg"
     width="813.96484375" height="977.5390625"
     viewBox="0 0 813.96484375 977.5390625"
     fill="currentColor">
  <path d="M42.4769 977.5441H708.0069C731.9369 977.5441 748.0469 962.4041 748.0469 938.4741C748.0469 915.5241 731.9369 899.4141 708.0069 899.4141H479.4969C263.6769 899.4141 93.7469 734.8641 93.2569 519.5341C93.2569 363.2841 172.3669 262.2041 280.7569 219.2341V489.7441C280.7569 509.2741 294.4369 521.9741 312.4969 521.9741C331.0569 521.9741 344.7269 509.2741 344.7269 489.7441V200.6841C366.2069 196.7741 388.1869 194.8241 411.1369 194.8241C434.5669 194.8241 458.0069 197.2641 480.4669 201.6641V489.7441C480.4669 508.7841 494.1369 521.9741 512.2069 521.9741C530.7569 521.9741 544.4369 509.2741 544.4369 489.7441V221.6841C647.9469 265.1341 722.6569 360.3541 726.0769 485.3541C727.0469 513.6741 742.1869 534.1841 770.9969 534.1841C798.8269 534.1841 813.9669 513.1841 813.9669 485.8441C812.9869 313.9641 698.7269 180.1741 544.4369 130.8641V32.2241C544.4369 13.1841 530.7569 0.0041 512.2069 0.0041C494.1369 0.0041 480.4669 13.1841 480.4669 32.2241V115.7241C457.5169 111.8141 434.5669 110.3541 411.1369 110.3541C388.1869 110.3541 366.2069 111.8141 344.7269 114.7441V32.2241C344.7269 13.1841 331.0569 0.0041 312.4969 0.0041C294.4369 0.0041 280.7569 13.1841 280.7569 32.2241V128.9041C120.1169 176.7541 -0.0031 313.4741 -0.0031 505.3741C-0.0031 689.4541 99.6069 836.9141 234.3769 897.4641V899.4141H42.4769C18.5569 899.4141 2.4369 915.5241 2.4369 938.4741C2.4369 962.4041 18.5569 977.5441 42.4769 977.5441Z"/>
</svg>