<?xml version="1.0" encoding="UTF-8" standalone="no"?>
<svg xmlns="http://www.w3.org/2000/svg"
     width="996.09375" height="996.09375"
     viewBox="0 0 996.09375 996.09375"
     fill="currentColor">
  <path d="M498.0477 996.0959C770.5077 996.0959 996.0977 770.0159 996.0977 498.0459C996.0977 225.5859 770.0177 -0.0041 497.5577 -0.0041C225.5877 -0.0041 -0.0023 225.5859 -0.0023 498.0459C-0.0023 770.0159 226.0777 996.0959 498.0477 996.0959ZM328.6177 737.7959C311.5277 737.7959 299.8077 726.0759 299.8077 708.9859C299.8077 692.8759 312.4977 681.1559 329.0977 681.1559H403.3177C341.7977 641.1159 301.2677 566.8959 301.2677 480.4659C301.2677 380.3759 349.6077 306.1559 429.6877 277.3459V232.9059C429.6877 218.2659 439.9377 208.0059 454.0977 208.0059C468.2577 208.0059 479.0077 218.2659 479.0077 232.9059V267.5759C487.3077 266.6059 496.5777 266.1159 504.3977 266.1159C511.7177 266.1159 518.5577 266.1159 525.3877 267.0859V232.9059C525.3877 218.2659 535.6477 208.0059 549.8077 208.0059C563.9677 208.0059 574.2177 218.2659 574.2177 232.9059V278.8059C647.9477 307.1259 696.2877 381.8359 696.7777 470.7059C696.7777 489.7459 683.5977 503.4159 666.0177 503.4159C646.9777 503.4159 634.7677 489.7459 634.2777 470.2159C633.2977 414.0659 610.3477 371.5859 574.2177 346.6759V473.1459C574.2177 487.3059 563.9677 497.5559 549.8077 497.5559C535.6477 497.5559 525.3877 487.3059 525.3877 473.1459V328.1259C519.0477 327.1459 512.2077 326.1759 503.9077 326.1759C496.5777 326.1759 487.3077 327.1459 479.0077 328.1259V473.1459C479.0077 487.3059 468.2577 497.5559 454.0977 497.5559C439.9377 497.5559 429.6877 487.3059 429.6877 473.1459V345.2159C388.6677 370.6059 366.2077 418.9459 366.2077 487.7959C366.2077 597.6559 452.1477 681.1559 563.4777 681.1559H640.6277C657.7177 681.1559 669.9177 692.8759 669.9177 708.9859C669.9177 725.5859 658.2077 737.7959 640.6277 737.7959Z"/>
</svg>