<?xml version="1.0" encoding="UTF-8" standalone="no"?>
<svg xmlns="http://www.w3.org/2000/svg"
     width="1143.5546875" height="1240.72265625"
     viewBox="0 0 1143.5546875 1240.72265625"
     fill="currentColor">
  <path d="M289.063 178.7105C294.433 178.7105 298.833 174.3205 299.803 168.9405C310.063 113.2805 307.133 111.8205 368.653 100.5905C374.513 99.1205 377.933 94.7305 377.933 89.3505C377.933 83.9805 374.513 79.1005 368.653 78.1205C306.643 66.4105 309.083 64.4505 299.803 10.2505C298.833 4.3905 294.923 0.0005 289.063 0.0005C283.203 0.0005 279.293 4.3905 277.833 10.2505C266.113 64.4505 270.503 66.4105 208.983 78.1205C203.613 79.1005 199.703 83.9805 199.703 89.3505C199.703 95.2105 203.613 99.1205 209.473 100.5905C270.503 110.3505 266.113 113.2805 277.833 167.9705C279.293 174.3205 283.203 178.7105 289.063 178.7105ZM130.863 401.8505C139.163 401.8505 145.993 396.0005 147.463 387.6905C163.573 304.6905 157.223 302.2505 247.073 288.0905C256.343 286.6205 261.723 279.7805 261.723 271.4805C261.723 263.1805 256.343 256.3505 247.073 254.8805C157.223 239.7505 163.573 236.8205 147.463 156.2505C145.993 147.4605 139.653 141.1105 130.863 141.1105C122.073 141.1105 116.213 146.9705 114.253 156.2505C97.653 236.8205 104.003 239.7505 14.653 254.8805C5.863 256.3505 0.003 263.1805 0.003 271.4805C0.003 280.7605 5.863 286.6205 15.623 288.0905C104.003 302.2505 97.653 304.6905 114.253 386.2305C116.213 395.5105 121.583 401.8505 130.863 401.8505ZM351.563 761.2305C362.793 761.2305 370.603 753.4205 372.563 742.6805C405.273 566.8905 419.433 544.9205 592.773 521.4805C604.493 520.0205 612.793 511.7205 612.793 500.4905C612.793 489.2605 604.493 480.9605 592.773 479.4905C419.923 456.0505 397.953 434.5705 372.563 258.7905C371.093 247.5605 362.793 239.2605 351.563 239.2605C340.823 239.2605 332.523 247.0705 330.563 258.3005C298.833 434.0805 283.693 456.0505 110.353 479.4905C98.633 480.9605 90.333 489.2605 90.333 500.4905C90.333 511.7205 98.633 520.0205 110.353 521.4805C283.203 544.9205 305.173 565.9205 330.563 742.1905C332.033 753.4205 339.843 761.2305 351.563 761.2305ZM446.773 301.2705C452.633 336.4305 458.003 357.4205 470.213 371.0905C539.063 343.2605 614.743 328.1205 689.453 328.1205C894.043 328.1205 1070.313 455.0805 1070.313 647.9505C1070.313 740.2305 1018.553 825.6805 943.363 886.7205C902.343 832.5205 835.933 798.3405 759.273 798.3405C647.463 798.3405 562.993 856.9305 562.993 943.3605C562.993 951.6605 563.963 959.4705 565.923 966.8005C371.093 964.3505 211.423 872.5605 211.423 690.4305C211.423 666.0205 216.313 643.5505 224.123 622.0705C211.423 605.4705 191.403 599.1205 154.293 593.2605C143.553 623.5305 137.693 655.7605 137.693 689.9405C137.693 914.0605 330.083 1040.0405 570.313 1040.0405C588.863 1040.0405 607.913 1039.0605 626.953 1038.0905C646.973 1046.3905 670.903 1051.2705 697.753 1051.2705C770.993 1051.2705 845.213 1030.7605 911.133 995.6005C912.593 1002.9305 913.083 1010.7405 913.083 1018.5505C913.083 1077.1505 879.883 1134.2805 825.193 1168.9405C811.033 1179.2005 800.783 1189.4505 800.783 1207.0305C800.783 1225.1005 815.433 1240.7205 838.383 1240.7205C849.123 1240.7205 855.473 1237.7905 864.743 1231.9305C939.943 1183.1105 986.333 1101.5605 986.333 1017.0905C986.333 994.6305 983.403 973.6305 977.543 953.6105C1075.683 878.9105 1143.553 769.0405 1143.553 648.4405C1143.553 416.0205 936.523 254.3905 688.963 254.3905C606.443 254.3905 522.953 271.0005 446.773 301.2705ZM637.203 940.9205C637.203 899.9005 694.333 872.5605 765.133 872.5605C813.963 872.5605 855.953 893.5505 882.813 927.7305C825.683 959.4705 760.743 978.0305 697.753 978.0305C662.593 978.0305 637.203 964.3505 637.203 940.9205Z"/>
</svg>