<?xml version="1.0" encoding="UTF-8" standalone="no"?>
<svg xmlns="http://www.w3.org/2000/svg"
     width="1130.37109375" height="946.2890625"
     viewBox="0 0 1130.37109375 946.2890625"
     fill="currentColor">
  <path d="M979.4883 173.3436C1080.5683 173.3436 1130.3683 222.1636 1130.3683 322.2636V412.5936H923.3383V399.9036C923.3383 365.7236 903.8083 346.1936 869.1383 346.1936H748.0483C713.3783 346.1936 693.8483 365.7236 693.8483 399.9036V412.5936H436.0383V399.9036C436.0383 365.7236 416.5083 346.1936 381.8383 346.1936H260.7383C226.5583 346.1936 207.0283 365.7236 207.0283 399.9036V412.5936H-0.0017V322.2636C-0.0017 222.1636 50.2883 173.3436 150.8783 173.3436H317.3783V134.7636C317.3783 42.9736 370.6083 0.0036 454.0983 0.0036H675.7783C764.1583 0.0036 812.4983 42.9736 812.4983 134.7636V173.3436ZM393.0683 129.3936V173.3436H736.8183V129.3936C736.8183 92.2836 715.3283 71.2936 677.2483 71.2936H453.1283C415.0383 71.2936 393.0683 92.2836 393.0683 129.3936ZM150.8783 946.2936C50.2883 946.2936 -0.0017 897.4636 -0.0017 797.3636V486.3236H207.0283V500.0036C207.0283 534.1836 226.5583 553.2236 260.7383 553.2236H381.8383C416.5083 553.2236 436.0383 534.1836 436.0383 500.0036V486.3236H693.8483V500.0036C693.8483 534.1836 713.3783 553.2236 748.0483 553.2236H869.1383C903.8083 553.2236 923.3383 534.1836 923.3383 500.0036V486.3236H1130.3683V797.3636C1130.3683 897.4636 1080.5683 946.2936 979.4883 946.2936Z"/>
</svg>