<?xml version="1.0" encoding="UTF-8" standalone="no"?>
<svg xmlns="http://www.w3.org/2000/svg"
     width="1130.37109375" height="946.2890625"
     viewBox="0 0 1130.37109375 946.2890625"
     fill="currentColor">
  <path d="M150.8783 946.2936H979.4883C1080.5683 946.2936 1130.3683 897.4636 1130.3683 797.3636V322.2636C1130.3683 222.1636 1080.5683 173.3436 979.4883 173.3436H812.4983V134.7636C812.4983 42.9736 764.1583 0.0036 675.7783 0.0036H454.0983C370.6083 0.0036 317.3783 42.9736 317.3783 134.7636V173.3436H150.8783C50.2883 173.3436 -0.0017 222.1636 -0.0017 322.2636V797.3636C-0.0017 897.4636 50.2883 946.2936 150.8783 946.2936ZM393.0683 129.3936C393.0683 92.2836 415.0383 71.2936 453.1283 71.2936H677.2483C715.3283 71.2936 736.8183 92.2836 736.8183 129.3936V173.3436H393.0683ZM923.3383 399.9036C923.3383 365.7236 903.8083 346.1936 869.1383 346.1936H748.0483C713.3783 346.1936 693.8483 365.7236 693.8483 399.9036V412.5936H436.0383V399.9036C436.0383 365.7236 416.5083 346.1936 381.8383 346.1936H260.7383C226.5583 346.1936 207.0283 365.7236 207.0283 399.9036V412.5936H78.6183V326.1736C78.6183 276.3636 104.0083 251.4636 151.8583 251.4636H978.5183C1026.3683 251.4636 1051.7583 276.3636 1051.7583 326.1736V412.5936H923.3383ZM151.8583 868.1636C104.0083 868.1636 78.6183 843.7536 78.6183 793.4536V486.3236H207.0283V500.0036C207.0283 534.1836 226.5583 553.2236 260.7383 553.2236H381.8383C416.5083 553.2236 436.0383 534.1836 436.0383 500.0036V486.3236H693.8483V500.0036C693.8483 534.1836 713.3783 553.2236 748.0483 553.2236H869.1383C903.8083 553.2236 923.3383 534.1836 923.3383 500.0036V486.3236H1051.7583V793.4536C1051.7583 843.7536 1026.3683 868.1636 978.5183 868.1636Z"/>
</svg>