<?xml version="1.0" encoding="UTF-8" standalone="no"?>
<svg xmlns="http://www.w3.org/2000/svg"
     width="1180.6640625" height="898.92578125"
     viewBox="0 0 1180.6640625 898.92578125"
     fill="currentColor">
  <path d="M419.9177 898.9295H761.2277C1051.7577 898.9295 1180.6677 765.6295 1180.6677 491.6995V151.3695C1180.6677 50.7795 1129.3977 -0.0005 1027.3477 -0.0005H153.3177C51.2677 -0.0005 -0.0023 50.2895 -0.0023 151.3695V491.6995C-0.0023 765.6295 128.9077 898.9295 419.9177 898.9295ZM291.5077 675.2895C265.6277 675.2895 251.4677 656.2495 251.4677 629.3895V255.8595C251.4677 228.5195 265.1377 209.9595 291.5077 209.9595C318.3577 209.9595 332.5177 227.5395 332.5177 255.8595V608.8895H523.4377C542.9677 608.8895 557.1277 621.0895 557.1277 641.5995C557.1277 662.5995 542.9677 675.2895 523.4377 675.2895ZM675.2977 675.7795C646.9777 675.7795 629.8877 658.6895 629.8877 630.3695V260.2495C629.8877 231.4495 646.9777 215.3295 675.2977 215.3295H823.2377C909.6677 215.3295 965.8177 260.2495 965.8177 328.6095C965.8177 378.9095 935.0577 417.9695 885.2577 430.1795V433.1095C952.1477 441.8895 993.1677 484.8595 993.1677 545.8995C993.1677 624.9995 926.2677 675.7795 822.2677 675.7795ZM708.4977 410.6395H784.1777C851.5577 410.6395 888.1877 385.7395 888.1877 341.3095C888.1877 300.2895 857.9077 274.8995 807.1277 274.8995H708.4977ZM708.4977 615.7195H790.0377C874.0277 615.7195 912.5977 592.7695 912.5977 542.9695C912.5977 494.1395 876.9577 466.3095 814.9377 466.3095H708.4977Z"/>
</svg>