<?xml version="1.0" encoding="UTF-8" standalone="no"?>
<svg xmlns="http://www.w3.org/2000/svg"
     width="996.09375" height="996.09375"
     viewBox="0 0 996.09375 996.09375"
     fill="currentColor">
  <path d="M498.0477 996.0959C770.5077 996.0959 996.0977 770.0159 996.0977 498.0459C996.0977 225.5859 770.0177 -0.0041 497.5577 -0.0041C225.5877 -0.0041 -0.0023 225.5859 -0.0023 498.0459C-0.0023 770.0159 226.0777 996.0959 498.0477 996.0959ZM628.9077 704.5859C618.6477 704.5859 612.3077 702.1459 604.4877 698.7259L304.1977 542.4759C283.2077 531.7359 274.4177 519.0459 274.4177 498.0459C274.4177 479.0059 284.1777 464.8459 304.1977 453.6159L604.4877 291.9959C612.7977 288.0859 618.6477 285.6459 629.8877 285.6459C653.8077 285.6459 670.8977 303.2259 670.8977 325.6859C670.8977 344.7259 662.1077 356.9359 641.5977 366.6959L386.2277 495.1159V498.0459L641.5977 623.5359C662.5977 633.2959 670.8977 644.5359 670.8977 664.0659C670.8977 687.0159 653.3177 704.5859 628.9077 704.5859Z"/>
</svg>