<?xml version="1.0" encoding="UTF-8" standalone="no"?>
<svg xmlns="http://www.w3.org/2000/svg"
     width="672.8515625" height="648.4375"
     viewBox="0 0 672.8515625 648.4375"
     fill="currentColor">
  <path d="M631.8383 648.4395C655.7583 648.4395 672.8483 631.3495 672.8483 604.4895C672.8483 582.0295 661.6183 569.3395 641.1183 559.5695L115.2383 325.6795V320.3095L641.1183 88.3795C661.6183 78.6095 672.8483 65.9195 672.8483 43.4595C672.8483 17.5795 655.2783 -0.0005 629.8783 -0.0005C616.6983 -0.0005 608.3983 3.4195 598.6283 8.2995L49.8083 260.7395C21.4883 273.4395 -0.0017 295.8995 -0.0017 326.6595C-0.0017 357.9095 21.4883 379.3895 49.8083 392.5795L598.6283 639.1595C608.8883 644.0395 617.6783 648.4395 631.8383 648.4395Z"/>
</svg>