<?xml version="1.0" encoding="UTF-8" standalone="no"?>
<svg xmlns="http://www.w3.org/2000/svg"
     width="1194.3359375" height="529.296875"
     viewBox="0 0 1194.3359375 529.296875"
     fill="currentColor">
  <path d="M132.3283 529.2992H1062.0083C1149.4183 529.2992 1194.3383 484.3792 1194.3383 397.9492V131.3492C1194.3383 44.9192 1148.9283 -0.0008 1061.5283 -0.0008H131.8383C44.4383 -0.0008 -0.0017 44.9192 -0.0017 131.3492V397.9492C-0.0017 484.3792 44.9183 529.2992 132.3283 529.2992ZM144.0383 450.6792C102.5383 450.6792 78.6183 427.7392 78.6183 383.7892V145.5092C78.6183 101.5592 102.5383 78.6092 144.5283 78.6092H198.7283V450.6792ZM597.1683 287.1092C736.3283 287.1092 840.8183 205.0792 861.3283 78.6092H948.7283V450.6792H245.6083V78.6092H333.0083C353.5183 205.0792 458.0083 287.1092 597.1683 287.1092ZM597.1683 170.4092C659.1783 170.4092 705.5683 134.2792 715.8183 78.6092H809.0783C791.5083 178.2192 707.5183 242.6792 597.1683 242.6792C486.8183 242.6792 402.8283 178.2192 385.2583 78.6092H478.0283C488.2783 134.2792 535.1583 170.4092 597.1683 170.4092ZM1049.8083 78.6092C1091.7983 78.6092 1115.2383 101.5592 1115.2383 145.5092V383.7892C1115.2383 427.7392 1091.7983 450.6792 1049.3183 450.6792H995.6083V78.6092Z"/>
</svg>