<?xml version="1.0" encoding="UTF-8" standalone="no"?>
<svg xmlns="http://www.w3.org/2000/svg"
     width="996.09375" height="996.09375"
     viewBox="0 0 996.09375 996.09375"
     fill="currentColor">
  <path d="M498.0477 996.0959C770.5077 996.0959 996.0977 770.0159 996.0977 498.0459C996.0977 225.5859 770.0177 -0.0041 497.5577 -0.0041C225.5877 -0.0041 -0.0023 225.5859 -0.0023 498.0459C-0.0023 770.0159 226.0777 996.0959 498.0477 996.0959ZM498.0477 236.8159C452.6377 236.8159 410.1577 248.5359 373.0477 269.0459L260.7377 156.7359C327.6377 109.8659 409.1777 83.0059 497.5577 83.0059C586.4277 83.0059 668.9477 110.3559 736.3277 157.7159L624.5077 269.5359C586.9177 248.5359 543.9477 236.8159 498.0477 236.8159ZM83.4977 498.0459C83.4977 410.1559 110.3477 329.1059 155.7577 262.2059L268.0677 374.0259C248.0477 411.1359 236.8177 453.1259 236.8177 498.0459C236.8177 543.9459 249.0277 587.4059 269.5277 624.5159L158.2077 736.3259C110.8377 668.9459 83.4977 586.9159 83.4977 498.0459ZM759.2777 498.0459C759.2777 453.6159 748.0477 412.1059 728.5177 375.4859L840.8177 263.1859C886.7177 330.0759 913.0877 410.6459 913.0877 498.0459C913.0877 586.4259 885.7377 668.4559 839.3577 735.3559L727.0477 623.5359C747.5577 586.4259 759.2777 543.4559 759.2777 498.0459ZM498.0477 676.7559C399.4177 676.7559 319.3377 596.6759 319.3377 498.0459C319.3377 399.4159 399.4177 319.3359 498.0477 319.3359C596.6777 319.3359 676.7577 399.4159 676.7577 498.0459C676.7577 596.6759 596.6777 676.7559 498.0477 676.7559ZM498.0477 913.0859C410.6477 913.0859 330.0777 886.7159 263.6677 840.8159L375.9777 728.5159C412.1077 748.0459 454.0977 759.2759 498.0477 759.2759C542.4777 759.2759 584.9577 748.0459 621.5777 728.0259L733.8877 840.3359C666.9877 886.2259 585.9377 913.0859 498.0477 913.0859Z"/>
</svg>