<?xml version="1.0" encoding="UTF-8" standalone="no"?>
<svg xmlns="http://www.w3.org/2000/svg"
     width="653.3203125" height="1136.23046875"
     viewBox="0 0 653.3203125 1136.23046875"
     fill="currentColor">
  <path d="M-0.0017 300.7769C-0.0017 488.2769 112.3083 534.6669 143.5583 860.3469C145.5083 877.9269 155.2783 889.1569 173.8283 889.1569H479.4883C498.5383 889.1569 508.2983 877.9269 510.2583 860.3469C541.5083 534.6669 653.3183 488.2769 653.3183 300.7769C653.3183 132.3269 509.2783 -0.0031 326.6583 -0.0031C144.0383 -0.0031 -0.0017 132.3269 -0.0017 300.7769ZM73.7283 300.7769C73.7283 168.9469 189.4483 73.7269 326.6583 73.7269C463.8683 73.7269 579.5883 168.9469 579.5883 300.7769C579.5883 340.8169 572.2683 372.5569 560.0583 404.7869H93.2583C81.5383 372.5569 73.7283 340.8169 73.7283 300.7769ZM210.9383 815.4269C187.4983 632.8169 149.8983 538.5769 119.6283 468.7469H533.6883C503.9083 538.5769 466.3083 632.8169 442.8683 815.4269ZM172.3683 994.6269H481.4483C497.5583 994.6269 509.7683 981.9369 509.7683 965.8169C509.7683 950.1969 497.5583 937.4969 481.4483 937.4969H172.3683C156.2483 937.4969 143.5583 950.1969 143.5583 965.8169C143.5583 981.9369 156.2483 994.6269 172.3683 994.6269ZM326.6583 1136.2269C402.3483 1136.2269 465.3283 1099.1169 470.2183 1042.9669H183.5983C187.0083 1099.1169 250.4883 1136.2269 326.6583 1136.2269Z"/>
</svg>