<?xml version="1.0" encoding="UTF-8" standalone="no"?>
<svg xmlns="http://www.w3.org/2000/svg"
     width="1593.26171875" height="954.1015625"
     viewBox="0 0 1593.26171875 954.1015625"
     fill="currentColor">
  <path d="M375.9783 466.7959C589.3583 466.7959 750.9783 367.1859 750.9783 233.8859C750.9783 100.0959 589.3583 -0.0041 375.9783 -0.0041C162.1083 -0.0041 -0.0017 99.6059 -0.0017 233.8859C-0.0017 367.6759 162.1083 466.7959 375.9783 466.7959ZM1218.2583 467.2859C1430.6683 467.2859 1593.2583 367.6759 1593.2583 234.3759C1593.2583 100.5859 1430.6683 0.4859 1218.2583 0.4859C1003.9083 0.4859 842.2883 100.0959 842.2883 234.3759C842.2883 368.1659 1003.9083 467.2859 1218.2583 467.2859ZM375.4883 377.4459C234.8683 377.4459 131.8383 319.3359 131.8383 240.7259C131.8383 161.1359 234.8683 103.0259 375.4883 103.0259C516.5983 103.0259 620.1183 161.1359 620.1183 240.7259C620.1183 318.8459 516.5983 377.4459 375.4883 377.4459ZM1217.2883 377.9259C1076.6583 377.9259 973.6283 319.8259 973.6283 241.2059C973.6283 161.6259 1076.6583 103.5159 1217.2883 103.5159C1358.3983 103.5159 1461.4283 161.6259 1461.4283 241.2059C1461.4283 319.3359 1358.3983 377.9259 1217.2883 377.9259ZM176.2683 240.7259C176.2683 291.0159 265.1383 333.4959 374.9983 333.4959C485.8383 333.4959 575.6883 291.0159 575.6883 240.7259C575.6883 220.2159 562.9883 203.1259 541.5083 188.9659C509.7683 230.9559 446.7783 258.7859 374.9983 258.7859C303.2183 258.7859 240.2383 231.4459 207.0283 189.4559C187.9883 203.6159 176.2683 220.7059 176.2683 240.7259ZM1018.0683 241.2059C1018.0683 291.5059 1106.9383 333.9859 1216.7983 333.9859C1327.6383 333.9859 1417.4783 291.5059 1417.4783 241.2059C1417.4783 220.7059 1404.7883 203.6159 1383.2983 188.9659C1351.5583 231.4459 1289.0583 259.2759 1216.7983 259.2759C1145.0183 259.2759 1082.0283 231.9359 1048.3383 189.9459C1029.7883 204.1059 1018.0683 221.1959 1018.0683 241.2059ZM797.3683 954.1059C1010.7383 954.1059 1172.3683 854.0059 1172.3683 720.7059C1172.3683 586.9159 1010.7383 487.3059 797.3683 487.3059C583.4983 487.3059 421.3883 586.4259 421.3883 720.7059C421.3883 854.4959 583.4983 954.1059 797.3683 954.1059ZM796.8783 864.7459C655.7583 864.7459 553.2183 806.1559 553.2183 727.0459C553.2183 647.9459 655.7583 589.8459 796.8783 589.8459C937.9883 589.8459 1041.5083 647.9459 1041.5083 727.0459C1041.5083 805.6659 937.9883 864.7459 796.8783 864.7459ZM597.6583 727.0459C597.6583 778.3159 686.0383 820.3159 796.3883 820.3159C907.2283 820.3159 997.0683 778.3159 997.0683 727.0459C997.0683 707.5159 983.8883 690.4259 962.8883 675.7859C931.1483 718.2659 868.1683 745.1159 796.3883 745.1159C724.6083 745.1159 661.1283 718.7459 627.9283 676.7559C609.3783 690.4259 597.6583 708.0059 597.6583 727.0459Z"/>
</svg>