<?xml version="1.0" encoding="UTF-8" standalone="no"?>
<svg xmlns="http://www.w3.org/2000/svg"
     width="1227.05078125" height="657.71484375"
     viewBox="0 0 1227.05078125 657.71484375"
     fill="currentColor">
  <path d="M613.7677 242.188C636.7177 242.188 656.7377 222.658 656.7377 199.708V43.458C656.7377 20.018 636.7177 -0.002 613.7677 -0.002C590.3277 -0.002 570.3077 20.018 570.3077 43.458V199.708C570.3077 222.658 590.3277 242.188 613.7677 242.188ZM880.8577 347.658C896.9777 364.748 925.2977 364.748 941.4077 347.658L1051.7577 236.818C1068.3577 219.728 1068.3577 192.378 1051.7577 175.778C1035.1577 159.178 1006.8377 159.668 990.7277 176.268L880.8577 287.108C863.7677 303.708 863.7677 331.058 880.8577 347.658ZM346.6777 347.658C363.2777 331.058 362.7977 303.708 346.1877 287.108L236.8177 175.778C220.2177 159.668 191.8977 159.668 175.7777 175.778C159.1777 192.378 159.1777 219.728 175.7777 236.818L285.6477 348.148C301.7577 364.748 330.0777 364.748 346.6777 347.658ZM42.9677 657.228H199.2177C223.1477 657.228 243.1677 637.208 243.1677 613.768C243.1677 590.818 222.6577 570.798 199.2177 570.798H42.9677C20.0177 570.798 -0.0023 590.818 -0.0023 613.768C-0.0023 636.718 20.0177 657.228 42.9677 657.228ZM1027.8277 657.228H1184.5677C1207.5177 657.228 1227.0477 636.718 1227.0477 613.768C1227.0477 590.818 1207.5177 570.798 1184.5677 570.798H1027.8277C1004.3977 570.798 984.3777 590.818 984.3777 613.768C984.3777 637.208 1003.9077 657.228 1027.8277 657.228ZM427.7377 657.718H799.8077C823.7277 657.718 843.7477 637.698 843.7477 614.748C843.7477 591.308 824.2177 571.288 799.8077 571.288H427.7377C403.3177 571.288 383.2977 591.308 383.2977 614.748C383.2977 637.698 403.8077 657.718 427.7377 657.718Z"/>
</svg>