<?xml version="1.0" encoding="UTF-8" standalone="no"?>
<svg xmlns="http://www.w3.org/2000/svg"
     width="1018.06640625" height="918.45703125"
     viewBox="0 0 1018.06640625 918.45703125"
     fill="currentColor">
  <path d="M509.2783 101.5606C537.1083 101.5606 559.5683 79.1006 559.5683 50.7806C559.5683 22.9506 537.1083 0.0006 509.2783 0.0006C480.9583 0.0006 458.4983 22.9506 458.4983 50.7806C458.4983 79.1006 480.9583 101.5606 509.2783 101.5606ZM166.0183 216.8006C194.3383 216.8006 216.7983 193.8506 216.7983 166.0106C216.7983 137.6906 194.3383 115.2306 166.0183 115.2306C138.1883 115.2306 115.2383 137.6906 115.2383 166.0106C115.2383 193.8506 138.1883 216.8006 166.0183 216.8006ZM852.0483 216.8006C880.3683 216.8006 902.8283 193.8506 902.8283 166.0106C902.8283 137.6906 880.3683 115.2306 852.0483 115.2306C823.7283 115.2306 801.2683 137.6906 801.2683 166.0106C801.2683 193.8506 823.7283 216.8006 852.0483 216.8006ZM884.2783 918.4606C905.7583 918.4606 924.3183 900.8806 924.3183 879.3906C924.3183 857.4206 905.7583 839.3506 884.2783 839.3506H824.7083V515.6206C824.7083 337.4006 687.0083 199.7106 509.2783 199.7106C331.0583 199.7106 194.3383 337.4006 194.3383 515.6206V839.3506H133.7883C112.3083 839.3506 95.2183 857.4206 95.2183 879.3906C95.2183 900.8806 112.3083 918.4606 133.7883 918.4606ZM548.8283 526.3706C548.8283 504.8806 530.7583 486.8206 509.2783 486.8206C487.7883 486.8206 470.2183 504.8806 470.2183 526.3706V839.3506H272.9483V515.6206C272.9483 380.8606 374.9983 278.3206 509.2783 278.3206C644.0383 278.3206 746.0983 380.8606 746.0983 515.6206V839.3506H548.8283ZM50.7783 559.0806C79.0983 559.0806 101.5583 536.6206 101.5583 508.7906C101.5583 480.4706 79.0983 458.0106 50.7783 458.0106C22.4583 458.0106 -0.0017 480.4706 -0.0017 508.7906C-0.0017 536.6206 22.4583 559.0806 50.7783 559.0806ZM967.7783 559.0806C995.6083 559.0806 1018.0683 536.6206 1018.0683 508.7906C1018.0683 480.4706 995.6083 458.0106 967.7783 458.0106C939.4483 458.0106 916.9883 480.4706 916.9883 508.7906C916.9883 536.6206 939.4483 559.0806 967.7783 559.0806Z"/>
</svg>