<?xml version="1.0" encoding="UTF-8" standalone="no"?>
<svg xmlns="http://www.w3.org/2000/svg"
     width="1200.1953125" height="913.0859375"
     viewBox="0 0 1200.1953125 913.0859375"
     fill="currentColor">
  <path d="M153.3183 913.082H1046.8783C1149.4183 913.082 1200.1983 862.302 1200.1983 761.722V151.372C1200.1983 50.782 1149.4183 0.002 1046.8783 0.002H153.3183C51.2683 0.002 -0.0017 50.292 -0.0017 151.372V761.722C-0.0017 862.792 51.2683 913.082 153.3183 913.082ZM154.2983 834.472C105.4683 834.472 78.6183 808.102 78.6183 757.812V155.272C78.6183 104.492 105.4683 78.612 154.2983 78.612H1045.8983C1094.2383 78.612 1121.5783 104.492 1121.5783 155.272V757.812C1121.5783 808.102 1094.2383 834.472 1045.8983 834.472ZM187.9883 767.582H1012.2083C1039.5483 767.582 1055.1783 751.462 1055.1783 724.122V188.962C1055.1783 161.132 1039.5483 145.022 1012.2083 145.022H187.9883C160.6483 145.022 145.5083 161.132 145.5083 188.962V724.122C145.5083 751.462 160.6483 767.582 187.9883 767.582ZM222.6583 703.612C213.8683 703.612 209.4683 699.222 209.4683 690.432V222.652C209.4683 213.382 213.8683 208.982 222.6583 208.982H977.5383C986.8183 208.982 991.2083 213.382 991.2083 222.652V690.432C991.2083 699.222 986.8183 703.612 977.5383 703.612Z"/>
</svg>