<?xml version="1.0" encoding="UTF-8" standalone="no"?>
<svg xmlns="http://www.w3.org/2000/svg"
     width="1155.76171875" height="987.79296875"
     viewBox="0 0 1155.76171875 987.79296875"
     fill="currentColor">
  <path d="M535.6483 136.2266C535.6483 159.1766 554.6883 178.7066 577.6383 178.7066C601.0783 178.7066 620.1183 159.1766 620.1183 136.2266V42.4766C620.1183 19.5266 600.5883 -0.0034 577.6383 -0.0034C554.6883 -0.0034 535.6483 19.5266 535.6483 42.4766ZM235.3483 295.4066C251.4683 311.5266 278.3183 312.0166 294.4383 295.4066C311.0383 278.8066 310.5483 252.4366 294.4383 236.3266L228.5183 169.9266C212.8883 153.3166 185.5483 153.3166 168.9483 169.9266C152.8283 186.5266 152.8283 212.4066 168.9483 229.0066ZM860.3483 236.3266C844.2383 252.4366 843.7483 278.8066 860.3483 295.4066C877.4383 312.0166 903.3183 311.5266 919.4383 295.4066L986.3283 229.0066C1002.4383 212.4066 1002.4383 186.5266 986.3283 169.9266C969.2383 153.3166 943.3583 153.3166 927.2483 169.9266ZM952.6383 987.7966C974.6083 987.7966 992.6783 970.2166 992.6783 948.7266C992.6783 926.7566 974.6083 908.6866 952.6383 908.6866H893.0683V584.9566C893.0683 406.7366 755.8583 269.0466 577.6383 269.0466C399.8983 269.0466 262.6983 406.7366 262.6983 584.9566V908.6866H202.1483C180.6683 908.6866 163.5783 926.7566 163.5783 948.7266C163.5783 970.2166 180.6683 987.7966 202.1483 987.7966ZM135.2583 620.1166C158.1983 620.1166 178.2183 601.0766 178.2183 578.6166C178.2183 555.1766 158.1983 536.1366 135.2583 536.1366H41.5083C19.0383 536.1366 -0.0017 555.6666 -0.0017 578.6166C-0.0017 600.5866 19.0383 620.1166 41.5083 620.1166ZM1113.2783 620.1166C1136.2283 620.1166 1155.7583 600.5866 1155.7583 578.6166C1155.7583 555.6666 1136.2283 536.1366 1113.2783 536.1366H1019.5283C997.0683 536.1366 977.5383 555.1766 977.5383 578.6166C977.5383 601.0766 997.0683 620.1166 1019.5283 620.1166ZM618.6483 586.4266V908.6866H537.5983V586.4266C537.5983 563.9666 555.1783 545.4066 577.6383 545.4066C600.0983 545.4066 618.6483 563.9666 618.6483 586.4266Z"/>
</svg>