<?xml version="1.0" encoding="UTF-8" standalone="no"?>
<svg xmlns="http://www.w3.org/2000/svg"
     width="795.41015625" height="1105.95703125"
     viewBox="0 0 795.41015625 1105.95703125"
     fill="currentColor">
  <path d="M-0.0017 195.3134C-0.0017 365.2334 261.7183 505.3734 261.7183 792.9734V834.9634C261.7183 852.0534 270.9983 861.3234 288.5783 861.3234H506.8383C524.4183 861.3234 533.6883 852.0534 533.6883 834.9634V792.9734C533.6883 503.9034 795.4083 369.1434 795.4083 195.3134C795.4083 69.8234 649.4183 0.0034 397.9483 0.0034C145.9983 0.0034 -0.0017 69.8234 -0.0017 195.3134ZM73.7283 195.3134C73.7283 127.4434 184.0783 73.7334 397.9483 73.7334C611.3283 73.7334 721.6783 127.4434 721.6783 195.3134C721.6783 206.0534 719.7283 216.7934 715.8183 228.5134H79.5883C75.6883 216.7934 73.7283 206.0534 73.7283 195.3134ZM334.9583 770.0234C334.9583 560.0634 186.0383 405.2734 113.2783 292.4834H682.6183C609.3783 405.2734 460.4483 559.5734 460.4483 770.0234V787.5934H334.9583ZM277.8283 966.7934H518.0683C533.6883 966.7934 546.3883 954.5934 546.3883 938.4734C546.3883 922.3634 533.6883 910.1534 518.0683 910.1534H277.8283C261.7183 910.1534 249.0283 922.3634 249.0283 938.4734C249.0283 954.5934 261.7183 966.7934 277.8283 966.7934ZM397.9483 1105.9534C463.8683 1105.9534 510.7383 1070.8034 520.9983 1015.1334H274.4183C283.6883 1070.8034 330.5683 1105.9534 397.9483 1105.9534Z"/>
</svg>