<?xml version="1.0" encoding="UTF-8" standalone="no"?>
<svg xmlns="http://www.w3.org/2000/svg"
     width="1164.55078125" height="649.4140625"
     viewBox="0 0 1164.55078125 649.4140625"
     fill="currentColor">
  <path d="M582.0277 125.9722C616.2077 125.9722 645.0177 97.1722 645.0177 62.5022C645.0177 28.3222 616.2077 0.0022 582.0277 0.0022C548.3377 0.0022 519.5277 28.3222 519.5277 62.5022C519.5277 97.1722 548.3377 125.9722 582.0277 125.9722ZM195.3077 293.9422C229.9777 293.9422 258.2977 265.6222 258.2977 231.4422C258.2977 196.7822 229.9777 168.4522 195.3077 168.4522C161.1377 168.4522 132.3277 196.7822 132.3277 231.4422C132.3277 265.6222 161.1377 293.9422 195.3077 293.9422ZM970.7077 293.9422C1004.8877 293.9422 1033.2077 265.6222 1033.2077 231.4422C1033.2077 196.7822 1004.8877 168.4522 970.7077 168.4522C936.0377 168.4522 907.7177 196.7822 907.7177 231.4422C907.7177 265.6222 936.0377 293.9422 970.7077 293.9422ZM1102.0477 649.4122C1136.2277 649.4122 1164.5477 620.6022 1164.5477 586.4222C1164.5477 551.7622 1136.2277 523.4422 1102.0477 523.4422C1066.4077 523.4422 1038.0877 551.7622 1038.0877 586.4222C1038.0877 620.6022 1066.4077 649.4122 1102.0477 649.4122ZM62.4977 649.4122C97.6577 649.4122 126.4677 621.0922 126.4677 586.4222C126.4677 552.2422 97.6577 523.9222 62.4977 523.9222C28.3177 523.9222 -0.0023 552.2422 -0.0023 586.4222C-0.0023 620.6022 28.3177 649.4122 62.4977 649.4122ZM384.7677 633.7922H775.8777C799.3177 633.7922 819.3377 613.7722 819.3377 590.8222C819.3377 566.8922 799.3177 547.3622 775.8777 547.3622H384.7677C360.8377 547.3622 340.8177 567.3822 340.8177 590.8222C340.8177 613.7722 361.3277 633.7922 384.7677 633.7922Z"/>
</svg>