<?xml version="1.0" encoding="UTF-8" standalone="no"?>
<svg xmlns="http://www.w3.org/2000/svg"
     width="1384.27734375" height="835.44921875"
     viewBox="0 0 1384.27734375 835.44921875"
     fill="currentColor">
  <path d="M691.4077 835.4478C1103.5177 835.4478 1384.2777 646.4878 1384.2777 417.9678C1384.2777 189.4578 1103.5177 -0.0022 691.4077 -0.0022C280.2777 -0.0022 -0.0023 189.4578 -0.0023 417.9678C-0.0023 646.4878 280.2777 835.4478 691.4077 835.4478ZM691.4077 688.4778C431.6377 688.4778 233.8877 580.0778 233.8877 431.1478C233.8877 283.2078 431.6377 174.8078 691.4077 174.8078C952.6377 174.8078 1150.8777 283.2078 1150.8777 431.1478C1150.8777 579.5878 952.1477 688.4778 691.4077 688.4778ZM690.9177 460.9378C840.3277 460.9378 970.7077 393.5578 1020.9977 299.8078C949.2177 251.4678 834.9577 221.6778 691.4077 221.6778C547.3677 221.6778 432.1277 251.9578 360.3477 301.7578C411.6177 395.0178 541.5077 460.9378 690.9177 460.9378Z"/>
</svg>