<?xml version="1.0" encoding="UTF-8" standalone="no"?>
<svg xmlns="http://www.w3.org/2000/svg"
     width="1593.26171875" height="954.1015625"
     viewBox="0 0 1593.26171875 954.1015625"
     fill="currentColor">
  <path d="M375.9783 466.7959C589.3583 466.7959 750.9783 367.1859 750.9783 233.8859C750.9783 100.0959 589.3583 -0.0041 375.9783 -0.0041C162.1083 -0.0041 -0.0017 99.6059 -0.0017 233.8859C-0.0017 367.6759 162.1083 466.7959 375.9783 466.7959ZM1217.2883 466.7959C1430.6683 466.7959 1593.2583 367.6759 1593.2583 233.8859C1593.2583 99.6059 1430.6683 -0.0041 1217.2883 -0.0041C1003.9083 -0.0041 842.2883 100.0959 842.2883 233.8859C842.2883 367.1859 1003.9083 466.7959 1217.2883 466.7959ZM375.9783 405.2759C196.2883 405.2759 62.4983 329.5859 62.4983 233.8859C62.4983 138.1859 196.7783 61.0359 375.9783 61.0359C555.6683 61.0359 690.4283 138.1859 690.4283 233.8859C690.4283 329.5859 555.6683 405.2759 375.9783 405.2759ZM1217.2883 405.2759C1037.5983 405.2759 902.8283 329.5859 902.8283 233.8859C902.8283 138.1859 1038.0883 61.0359 1217.2883 61.0359C1395.9983 61.0359 1530.7583 138.1859 1530.7583 233.8859C1530.7583 329.5859 1396.4883 405.2759 1217.2883 405.2759ZM375.9783 378.4159C514.6483 378.4159 618.1683 320.3159 618.1683 241.2059C618.1683 160.6459 514.6483 102.5359 375.9783 102.5359C238.2783 102.5359 135.2583 160.6459 135.2583 241.2059C135.2583 320.3159 238.2783 378.4159 375.9783 378.4159ZM1217.2883 378.4159C1354.9783 378.4159 1458.4983 320.3159 1458.4983 241.2059C1458.4983 160.6459 1354.9783 102.5359 1217.2883 102.5359C1078.6183 102.5359 975.5883 160.6459 975.5883 241.2059C975.5883 320.3159 1078.6183 378.4159 1217.2883 378.4159ZM375.9783 325.6859C268.5583 325.6859 187.9883 286.6259 187.9883 241.2059C187.9883 225.0959 196.7783 210.4459 212.8883 198.2459C246.0983 237.3059 307.6183 262.6959 375.9783 262.6959C444.3383 262.6959 505.8583 236.8159 538.5783 196.7759C555.6683 209.9559 564.9383 225.0959 564.9383 241.2059C564.9383 286.6259 483.8883 325.6859 375.9783 325.6859ZM1217.2883 325.6859C1109.3783 325.6859 1028.8083 286.6259 1028.8083 241.2059C1028.8083 225.0959 1038.0883 209.9559 1054.6883 197.2659C1087.3983 236.8159 1148.9283 262.6959 1217.2883 262.6959C1285.6483 262.6959 1347.6583 237.3059 1380.8583 197.7559C1396.4883 210.4459 1405.7583 225.0959 1405.7583 241.2059C1405.7583 286.6259 1324.7083 325.6859 1217.2883 325.6859ZM796.3883 954.1059C1010.7383 954.1059 1172.3683 854.4959 1172.3683 720.7059C1172.3683 586.4259 1010.7383 487.3059 796.3883 487.3059C583.4983 487.3059 421.3883 586.9159 421.3883 720.7059C421.3883 854.0059 583.4983 954.1059 796.3883 954.1059ZM796.3883 892.5759C617.1883 892.5759 481.9383 816.4059 481.9383 720.7059C481.9383 624.5159 617.6783 548.3359 796.3883 548.3359C975.5883 548.3359 1110.3483 624.5159 1110.3483 720.7059C1110.3483 816.4059 976.0783 892.5759 796.3883 892.5759ZM796.3883 864.7459C934.5683 864.7459 1037.5983 807.1259 1037.5983 727.0459C1037.5983 647.4559 934.5683 589.3559 796.3883 589.3559C658.6883 589.3559 555.6683 647.4559 555.6683 727.0459C555.6683 806.6359 658.6883 864.7459 796.3883 864.7459ZM796.3883 749.5159C865.2383 749.5159 926.7583 723.6359 960.4483 684.5659C976.0783 697.2659 984.8683 711.9159 984.8683 727.0459C984.8683 773.4359 904.2983 812.0159 796.3883 812.0159C688.9683 812.0159 607.9083 773.4359 607.9083 727.0459C607.9083 711.4259 617.6783 696.2859 634.2783 683.5959C666.9883 723.1459 728.5183 749.5159 796.3883 749.5159Z"/>
</svg>