<?xml version="1.0" encoding="UTF-8" standalone="no"?>
<svg xmlns="http://www.w3.org/2000/svg"
     width="1148.876165407727" height="1099.7008311737668"
     viewBox="0 0 1148.876165407727 1099.7008311737668"
     fill="currentColor">
  <path d="M47.2641 389.1261C-1.0759 416.9561 -13.2859 460.4161 15.0341 509.2461L85.3441 631.3161C105.3641 665.9761 133.6841 678.1861 167.3841 678.1861H525.2941L308.4941 803.6761C267.4741 827.5961 253.3141 862.2661 266.5041 901.8161L210.3441 934.0461C195.2141 942.8361 191.3041 956.9961 200.5841 972.1361C207.9041 985.8061 224.0241 990.1961 237.6941 982.3861L292.3841 950.6461L330.4641 1017.0561L275.7741 1049.2761C262.5941 1057.0961 257.7141 1072.7161 266.0141 1086.3861C273.3341 1099.0861 289.9341 1103.4761 303.1241 1096.1561L359.7641 1063.9261C387.5941 1096.6461 424.7041 1101.0361 466.2041 1077.1161L1101.9541 710.9061C1149.8041 683.0661 1162.0041 639.1261 1134.1741 590.7861L1063.3741 468.7161C1044.3341 435.5061 1016.9841 421.8361 983.7841 421.8361H622.9441L840.2341 296.3461C881.2441 272.4261 895.4041 237.7561 882.2241 198.2061L938.3741 165.4961C953.5141 157.1861 957.4141 143.0261 948.1441 127.8961C940.8141 113.7361 924.7041 109.8261 911.0341 117.6361L856.3441 148.8861L818.2541 82.4861L872.9441 50.7461C886.1341 42.9361 891.0141 26.8161 882.7141 13.6361C875.3841 0.4561 858.7841 -3.9439 845.6041 3.8661L788.9641 35.6061C761.6141 3.3861 724.0241 -1.5039 683.0041 22.9161ZM83.3941 440.8861L709.8641 79.5561C725.9741 69.7861 740.6241 74.1861 750.8741 91.7561L815.8141 203.0861C825.5841 219.6861 821.1841 235.3161 804.0941 245.0861L178.6141 605.9161C162.0041 615.6861 146.3841 611.2961 136.6141 594.2061L72.6541 483.8461C62.8841 466.2761 66.3041 450.6461 83.3941 440.8861ZM655.1741 220.6661C664.9341 239.2261 687.8841 245.0861 705.9541 235.3161C724.5041 224.5761 730.3641 201.6261 720.1141 183.0661C709.3741 165.0061 686.9141 159.1461 668.8441 168.9061C650.2941 180.6261 644.9141 202.5961 655.1741 220.6661ZM533.5941 290.9761C543.3541 309.0461 565.8141 315.3961 583.8841 305.6261C602.9241 294.8861 609.7641 271.4461 598.0441 254.3561C588.2741 235.3161 564.8441 229.9461 546.7741 240.1961C528.2241 250.9361 522.8441 272.9161 533.5941 290.9761ZM411.0341 362.2661C421.7741 379.8461 445.2141 385.2161 462.7941 375.9361C480.3641 364.7061 486.7141 341.7561 476.4641 324.6661C465.7241 306.1161 442.2841 299.7661 425.6841 310.0261C407.1241 321.2561 400.2941 343.7161 411.0341 362.2661ZM288.9641 432.5861C299.7041 450.1561 322.6541 456.0161 341.2041 446.2561C359.2741 435.5061 365.6241 412.0761 353.9041 394.9861C345.1141 376.4261 321.6741 370.0861 303.1241 380.8261C285.0541 390.5861 278.7041 414.5161 288.9641 432.5861ZM167.3841 502.8961C177.6341 520.9561 200.0941 526.3361 219.6241 516.5661C236.7141 505.8261 242.5741 482.8761 232.8041 465.2961C222.0641 446.7461 199.6041 440.8861 181.5441 450.6461C162.4941 460.9061 157.1241 484.8261 167.3841 502.8961ZM289.4541 615.1961L514.0541 484.8261H858.2941L634.1741 615.1961ZM344.6241 854.9461L970.1141 493.6161C986.7141 483.8461 1002.3441 488.2461 1012.1041 505.3361L1076.0741 616.1761C1085.8341 633.7561 1082.4141 649.3761 1065.3241 659.1461L439.3541 1019.9861C422.7541 1029.7461 408.1041 1025.3561 397.8441 1008.2661L333.3941 896.4461C323.1441 879.8461 327.5341 864.7061 344.6241 854.9461ZM915.9141 634.7261C926.6541 653.2861 949.1141 659.1461 967.1841 648.8861C986.2241 638.6361 991.5941 615.1961 981.3441 597.1361C971.0941 579.0661 948.6341 573.2061 929.0941 583.4561C912.0041 594.2061 906.1441 617.1561 915.9141 634.7261ZM795.3041 705.0461C804.0941 723.5961 827.0441 729.9461 846.0941 719.2061C863.6641 709.4361 870.0141 685.5061 859.7641 667.4461C849.0241 649.8661 826.0741 643.5161 808.0041 653.7761C789.4541 664.5161 783.1041 687.9561 795.3041 705.0461ZM672.2641 775.3561C683.0041 793.9061 706.4441 799.7661 723.0441 789.5161C741.5941 778.7761 748.4341 756.3161 737.6941 737.7561C727.4341 720.1761 703.5141 714.3161 685.9341 724.0861C668.3541 735.3161 662.0041 758.2661 672.2641 775.3561ZM550.6841 845.1761C560.4441 864.7061 584.3741 870.0861 601.9541 859.8261C620.5041 849.0861 625.8741 827.1161 615.1341 809.0461C605.3641 790.4961 582.9041 784.6361 564.8441 794.3961C546.2841 805.1361 538.9641 828.0861 550.6841 845.1761ZM428.6141 916.9561C439.3541 934.5361 462.3041 940.8861 479.8841 931.1161C498.4341 919.3961 503.8041 896.9361 493.5541 878.8661C483.7841 860.8061 460.8341 854.9461 442.7741 864.7061C424.7041 875.4561 418.3541 898.4061 428.6141 916.9561Z"/>
</svg>