<?xml version="1.0" encoding="UTF-8" standalone="no"?>
<svg xmlns="http://www.w3.org/2000/svg"
     width="1214.0894866356364" height="1103.9378006113757"
     viewBox="0 0 1214.0894866356364 1103.9378006113757"
     fill="currentColor">
  <path d="M81.4441 627.7642C109.7641 676.5942 152.7341 686.8542 200.5841 659.5042L835.8341 292.8042C875.3841 269.8542 891.0141 236.6542 879.7841 199.0542L936.9141 165.8542C952.0441 157.5542 955.4641 143.3942 946.6741 128.2542C938.8641 114.5842 923.2341 110.6742 909.5641 118.4942L854.8841 149.7442L816.3041 82.8442L870.9941 51.1042C884.6641 43.2942 888.5741 27.1842 880.7541 13.9942C873.4341 0.8142 856.8341 -4.0658 843.6441 3.7442L786.0341 36.9442C759.1741 7.1642 723.0441 4.2342 683.4941 27.6742L47.2641 394.8542C-1.0759 422.2042 -13.2859 464.1942 15.0341 513.5142ZM659.5641 217.6142C648.8241 199.0542 655.1741 175.1342 673.7241 164.3942C692.7741 153.6442 716.6941 159.9942 727.4341 179.0342C738.1841 197.5942 731.8341 221.5142 712.7941 232.2642C694.2341 243.0042 670.3041 236.6542 659.5641 217.6142ZM533.5941 290.3642C522.8441 271.8142 529.1941 247.8842 547.7541 237.1442C566.7941 226.4042 590.7241 232.7442 601.4641 251.3042C612.2041 269.8542 605.8541 294.2742 586.8141 305.0142C568.2541 315.7542 544.3341 308.9242 533.5941 290.3642ZM407.6141 363.1242C396.8741 344.5642 403.7041 320.6442 422.2641 309.4142C440.8141 298.6642 464.7441 305.5042 475.4841 324.0542C486.2241 342.6142 479.8841 366.5342 461.3241 377.2842C442.7741 388.0242 418.8441 381.6742 407.6141 363.1242ZM282.1241 435.3842C271.3841 416.8342 277.7341 393.3942 296.7741 382.6542C315.3241 371.4242 339.7441 377.7642 350.4841 396.3242C361.2241 415.3642 354.3941 438.8042 335.8341 449.5442C316.7941 460.2842 292.8641 454.4242 282.1241 435.3842ZM252.8241 683.9242H502.3441L946.6741 427.0842H697.1641ZM370.9941 1099.4442L429.0941 1065.7542C455.9541 1094.0742 492.5741 1097.4942 532.1241 1075.0342L1167.3841 708.3342C1215.2341 680.5042 1226.9541 637.0442 1199.6041 588.7042L1133.2041 474.4442C1104.8841 425.1342 1062.3941 414.8742 1014.5441 443.1942L378.3141 810.3842C338.7641 832.8442 323.1441 865.5642 334.8641 904.1342L277.7341 936.8542C264.0541 944.6642 260.1541 961.2642 267.9641 974.4442C275.7741 987.6342 291.4041 992.0242 304.5841 984.2142L359.7641 952.4742L398.3341 1019.8542L343.1641 1051.5942C329.4841 1059.4142 326.0741 1075.0342 333.8841 1088.7042C342.6741 1103.8442 356.8341 1108.2342 370.9941 1099.4442ZM156.1441 508.1442C145.4041 489.5842 151.7541 465.6642 170.7941 454.9142C189.3541 444.1742 213.2741 450.5242 224.0241 469.0742C235.2541 488.1242 228.4141 511.5542 209.8641 522.3042C190.8141 533.0442 166.8941 527.1842 156.1441 508.1442ZM990.6241 633.1442C979.8841 614.5842 985.7341 591.1442 1004.7841 580.4042C1023.8241 569.1742 1047.2641 575.5242 1058.0041 594.0742C1068.7441 613.1242 1062.8841 636.5542 1043.8441 647.3042C1024.8041 658.5342 1001.3641 652.1842 990.6241 633.1442ZM864.6441 705.8942C853.4141 687.3342 860.2541 663.9042 879.2941 653.1642C897.8441 641.9242 921.7741 648.2742 932.5141 666.8342C943.2541 685.8742 936.9141 709.3142 918.3541 720.0542C899.3141 731.2842 875.3841 724.9342 864.6441 705.8942ZM739.1541 778.6442C728.4141 760.0942 734.7641 736.1642 753.3141 725.4242C771.8741 714.1942 796.2841 721.0342 807.0241 739.5842C817.7741 758.1442 810.9341 782.0642 792.3841 792.8042C773.8241 804.0342 749.8941 797.2042 739.1541 778.6442ZM613.1841 850.9142C602.4341 832.3542 609.2741 808.4342 627.8241 797.6942C646.3841 786.9442 670.3041 793.2942 681.0541 812.3342C691.7941 830.8942 685.4441 854.3342 666.8941 865.5642C648.3341 876.3042 623.9241 869.9542 613.1841 850.9142ZM487.2041 923.6642C476.4641 905.1142 483.2941 881.1842 501.8541 869.9542C520.4041 859.2142 544.3341 866.0542 555.0741 884.6042C565.8141 903.1642 559.4741 927.5742 540.9141 938.3142C522.3641 949.0542 497.9441 942.2242 487.2041 923.6642Z"/>
</svg>