<?xml version="1.0" encoding="UTF-8" standalone="no"?>
<svg xmlns="http://www.w3.org/2000/svg"
     width="795.41015625" height="1105.95703125"
     viewBox="0 0 795.41015625 1105.95703125"
     fill="currentColor">
  <path d="M3.9083 228.5134H791.5083C793.9483 217.7734 795.4083 206.5434 795.4083 195.3134C795.4083 69.8234 649.4183 0.0034 397.9483 0.0034C145.9983 0.0034 -0.0017 69.8234 -0.0017 195.3134C-0.0017 206.5434 1.4683 217.2834 3.9083 228.5134ZM288.5783 858.8834H506.8383C524.4183 858.8834 533.6883 849.6134 533.6883 832.5234V792.9734C533.6883 553.7134 704.5883 425.2934 770.5083 292.4834H25.8783C92.2883 424.3134 261.7183 555.6634 261.7183 792.9734V832.5234C261.7183 849.6134 270.9983 858.8834 288.5783 858.8834ZM277.8283 966.7934H518.0683C533.6883 966.7934 546.3883 954.5934 546.3883 938.4734C546.3883 922.3634 533.6883 910.1534 518.0683 910.1534H277.8283C261.7183 910.1534 249.0283 922.3634 249.0283 938.4734C249.0283 954.5934 261.7183 966.7934 277.8283 966.7934ZM397.9483 1105.9534C463.8683 1105.9534 510.7383 1070.8034 520.9983 1015.1334H274.4183C283.6883 1070.8034 330.5683 1105.9534 397.9483 1105.9534Z"/>
</svg>