<?xml version="1.0" encoding="UTF-8" standalone="no"?>
<svg xmlns="http://www.w3.org/2000/svg"
     width="1200.0761949895173" height="836.9140625"
     viewBox="0 0 1200.0761949895173 836.9140625"
     fill="currentColor">
  <path d="M1161.9892 76.6575C1182.4992 76.1675 1200.0792 59.0775 1200.0792 38.5775C1200.0792 18.5575 1182.9892 0.4875 1161.9892 0.4875L218.6292 -0.0025C197.6392 -0.0025 180.5492 18.0675 180.5492 38.5775C180.5492 59.0775 198.1192 76.1675 218.6292 76.1675H320.6792C334.8392 277.3475 481.8192 414.5475 690.7992 414.5475C898.8092 414.5475 1045.7792 277.3475 1060.4292 76.6575ZM11.1092 470.2175C27.7092 486.3275 49.1992 486.8175 65.3092 470.7075L297.2492 238.7675C286.0092 213.3775 277.2292 186.5275 270.8792 157.2275L11.5992 416.5075C-3.5408 432.6175 -4.0208 454.5875 11.1092 470.2175ZM129.2792 588.3775C145.8792 604.4875 167.8492 605.4675 183.9592 588.8675L397.8292 374.5075C378.7892 357.9075 361.6992 338.8675 346.0692 318.3575L129.7592 534.6675C114.6292 550.7775 113.6492 572.7575 129.2792 588.3775ZM247.9292 707.0275C264.0392 722.6575 286.0092 722.6575 302.1292 707.0275L551.1492 457.5175C524.2992 449.7075 497.9292 439.4575 474.4892 426.7575L247.9292 652.8275C232.7892 668.9475 232.2992 690.4275 247.9292 707.0275ZM366.0892 825.1975C382.2092 840.8175 404.1792 840.8175 420.2892 825.1975L774.7792 470.2175C731.8192 478.0275 712.7692 476.5575 661.9892 476.5575L366.0892 771.4875C350.4692 787.1075 350.4692 809.0775 366.0892 825.1975Z"/>
</svg>