<?xml version="1.0" encoding="UTF-8" standalone="no"?>
<svg xmlns="http://www.w3.org/2000/svg"
     width="715.8203125" height="1080.078125"
     viewBox="0 0 715.8203125 1080.078125"
     fill="currentColor">
  <path d="M151.3683 -0.0019C50.2883 -0.0019 -0.0017 51.7581 -0.0017 153.3181V927.2481C-0.0017 1029.2981 50.2883 1080.0781 151.3683 1080.0781H564.4483C665.0383 1080.0781 715.8183 1029.2981 715.8183 927.2481V153.3181C715.8183 51.7581 665.0383 -0.0019 564.4483 -0.0019ZM155.2783 78.6181H560.0583C610.8383 78.6181 637.2083 105.9581 637.2083 154.7881V925.7781C637.2083 974.6081 610.8383 1001.4681 560.0583 1001.4681H155.2783C104.4883 1001.4681 78.6183 974.6081 78.6183 925.7781V154.7881C78.6183 105.9581 104.4883 78.6181 155.2783 78.6181ZM187.9883 627.4381C157.2283 627.4381 144.5283 639.6481 144.5283 670.4081V892.0881C144.5283 922.8481 157.2283 935.0581 187.9883 935.0581H525.3883C556.6383 935.0581 569.3383 922.8481 569.3383 892.0881V670.4081C569.3383 639.6481 556.6383 627.4381 525.3883 627.4381Z"/>
</svg>