<?xml version="1.0" encoding="UTF-8" standalone="no"?>
<svg xmlns="http://www.w3.org/2000/svg"
     width="954.58984375" height="1007.8125"
     viewBox="0 0 954.58984375 1007.8125"
     fill="currentColor">
  <path d="M477.0483 498.5353C697.2683 498.5353 867.1883 552.7353 954.5883 646.9753V264.1553C954.5883 104.9853 766.1183 -0.0047 477.0483 -0.0047C188.4783 -0.0047 -0.0017 104.9853 -0.0017 264.1553V646.9753C87.3983 552.7353 256.8383 498.5353 477.0483 498.5353ZM477.0483 1007.8153C750.4883 1007.8153 952.6383 920.8953 952.6383 786.6253C952.6383 652.3453 750.4883 565.4253 477.0483 565.4253C204.0983 565.4253 1.9483 652.3453 1.9483 786.6253C1.9483 920.8953 204.0983 1007.8153 477.0483 1007.8153ZM477.0483 770.9953C369.6283 770.9953 280.7583 715.8153 274.4183 647.4653C333.0083 634.7653 401.8583 627.4453 477.0483 627.4453C552.7383 627.4453 621.0983 634.7653 680.1783 647.4653C673.8283 715.8153 584.4683 770.9953 477.0483 770.9953Z"/>
</svg>