<?xml version="1.0" encoding="UTF-8" standalone="no"?>
<svg xmlns="http://www.w3.org/2000/svg"
     width="850.09765625" height="1219.23828125"
     viewBox="0 0 850.09765625 1219.23828125"
     fill="currentColor">
  <path d="M-0.0017 1011.2323C-0.0017 1076.1723 36.6183 1112.7923 101.0783 1112.7923H268.5583C333.0083 1112.7923 370.1183 1076.1723 370.1183 1010.7423V207.5223C370.1183 150.8823 342.2883 115.7223 292.9683 107.4223V32.2223C292.9683 14.1623 278.8083 0.0023 260.7383 0.0023C242.6783 0.0023 228.5183 14.1623 228.5183 32.2223V105.4723H141.5983V32.2223C141.5983 14.1623 126.9483 0.0023 108.8883 0.0023C90.8183 0.0023 77.1483 14.1623 77.1483 32.2223V107.4223C27.3483 115.7223 -0.0017 150.8823 -0.0017 207.0323ZM479.4883 1012.6923C479.4883 1068.8523 507.3283 1104.0023 556.6383 1112.3023V1187.5023C556.6383 1205.5623 570.7983 1219.2423 588.8683 1219.2423C606.9383 1219.2423 621.0983 1205.5623 621.0983 1187.5023V1114.2623H708.4983V1187.5023C708.4983 1205.5623 722.1683 1219.2423 740.2383 1219.2423C758.2983 1219.2423 772.9483 1205.5623 772.9483 1187.5023V1112.3023C822.2683 1103.5123 850.0983 1068.8523 850.0983 1012.2023V208.9823C850.0983 143.5523 812.9883 106.9323 748.0483 106.9323H581.0583C516.1183 106.9323 479.4883 143.5523 479.4883 208.4923ZM73.7283 1004.3923V213.8623C73.7283 191.4023 86.9183 179.2023 109.3783 179.2023H261.2283C283.6883 179.2023 296.3883 191.4023 296.3883 213.8623V1004.3923C296.3883 1026.3623 283.6883 1039.0623 261.2283 1039.0623H109.3783C86.9183 1039.0623 73.7283 1026.3623 73.7283 1004.3923ZM553.2183 1005.8623V215.3323C553.2183 192.8723 566.4083 180.6623 588.8683 180.6623H741.2083C763.6683 180.6623 776.3683 192.8723 776.3683 215.3323V1005.8623C776.3683 1027.8323 763.6683 1040.5323 741.2083 1040.5323H588.8683C566.4083 1040.5323 553.2183 1027.8323 553.2183 1005.8623ZM185.0583 342.7723C209.4683 342.7723 229.4883 322.7523 229.4883 298.3423C229.4883 273.9223 209.4683 253.9023 185.0583 253.9023C160.6483 253.9023 141.1183 273.9223 141.1183 298.3423C141.1183 322.7523 160.6483 342.7723 185.0583 342.7723ZM664.5483 343.2623C689.4483 343.2623 708.9883 323.2423 708.9883 298.8323C708.9883 274.4123 689.4483 254.3923 664.5483 254.3923C640.1383 254.3923 620.6083 274.4123 620.6083 298.8323C620.6083 323.2423 640.1383 343.2623 664.5483 343.2623ZM185.0583 498.0423C209.4683 498.0423 229.4883 478.5123 229.4883 454.1023C229.4883 429.2023 209.4683 409.6723 185.0583 409.6723C160.6483 409.6723 141.1183 429.2023 141.1183 454.1023C141.1183 478.5123 160.6483 498.0423 185.0583 498.0423ZM664.5483 499.0223C689.4483 499.0223 708.9883 479.0023 708.9883 454.5923C708.9883 430.1723 689.4483 410.1523 664.5483 410.1523C640.1383 410.1523 620.6083 430.1723 620.6083 454.5923C620.6083 479.0023 640.1383 499.0223 664.5483 499.0223ZM185.0583 653.3223C209.4683 653.3223 229.4883 633.7923 229.4883 609.3723C229.4883 584.9623 209.4683 565.4323 185.0583 565.4323C160.6483 565.4323 141.1183 584.9623 141.1183 609.3723C141.1183 633.7923 160.6483 653.3223 185.0583 653.3223ZM664.5483 654.2923C689.4483 654.2923 708.9883 634.7623 708.9883 610.3523C708.9883 585.9423 689.4483 565.9223 664.5483 565.9223C640.1383 565.9223 620.6083 585.9423 620.6083 610.3523C620.6083 634.7623 640.1383 654.2923 664.5483 654.2923ZM185.0583 809.5723C209.4683 809.5723 229.4883 789.5523 229.4883 765.1323C229.4883 740.7223 209.4683 720.7023 185.0583 720.7023C160.6483 720.7023 141.1183 740.7223 141.1183 765.1323C141.1183 789.5523 160.6483 809.5723 185.0583 809.5723ZM664.5483 810.0623C689.4483 810.0623 708.9883 790.0423 708.9883 765.6223C708.9883 741.2123 689.4483 721.6823 664.5483 721.6823C640.1383 721.6823 620.6083 741.2123 620.6083 765.6223C620.6083 790.0423 640.1383 810.0623 664.5483 810.0623ZM185.0583 964.8423C209.4683 964.8423 229.4883 945.3123 229.4883 920.9023C229.4883 895.9923 209.4683 876.4623 185.0583 876.4623C160.6483 876.4623 141.1183 895.9923 141.1183 920.9023C141.1183 945.3123 160.6483 964.8423 185.0583 964.8423ZM664.5483 965.8223C689.4483 965.8223 708.9883 945.8023 708.9883 921.3823C708.9883 896.9723 689.4483 876.9523 664.5483 876.9523C640.1383 876.9523 620.6083 896.9723 620.6083 921.3823C620.6083 945.8023 640.1383 965.8223 664.5483 965.8223Z"/>
</svg>