<?xml version="1.0" encoding="UTF-8" standalone="no"?>
<svg xmlns="http://www.w3.org/2000/svg"
     width="996.09375" height="996.09375"
     viewBox="0 0 996.09375 996.09375"
     fill="currentColor">
  <path d="M498.0477 996.0959C770.5077 996.0959 996.0977 770.0159 996.0977 498.0459C996.0977 225.5859 770.0177 -0.0041 497.5577 -0.0041C225.5877 -0.0041 -0.0023 225.5859 -0.0023 498.0459C-0.0023 770.0159 226.0777 996.0959 498.0477 996.0959ZM321.2877 351.5659C321.2877 260.2559 398.9277 190.9159 497.5577 190.9159C596.6777 190.9159 674.8077 262.6959 674.8077 354.0059C674.8077 455.0759 606.9377 477.0459 597.1677 652.3459C596.6777 662.1059 590.3277 668.4559 580.0777 668.4559H415.0377C405.7577 668.4559 399.8977 662.1059 398.9277 652.3459C388.1877 477.0459 321.2877 452.6359 321.2877 351.5659ZM420.8977 735.8359C409.6677 735.8359 400.3877 726.5659 400.3877 715.3359C400.3877 704.1059 409.6677 694.8259 420.8977 694.8259H575.1977C586.4277 694.8259 596.1877 704.1059 596.1877 715.3359C596.1877 726.5659 586.4277 735.8359 575.1977 735.8359ZM498.0477 804.6859C461.4277 804.6859 434.0777 787.5959 431.6377 761.7159H564.4577C561.5277 787.5959 534.6677 804.6859 498.0477 804.6859Z"/>
</svg>