<?xml version="1.0" encoding="UTF-8" standalone="no"?>
<svg xmlns="http://www.w3.org/2000/svg"
     width="1384.27734375" height="835.44921875"
     viewBox="0 0 1384.27734375 835.44921875"
     fill="currentColor">
  <path d="M691.4077 835.4478C1103.5177 835.4478 1384.2777 646.4878 1384.2777 417.9678C1384.2777 189.4578 1103.5177 -0.0022 691.4077 -0.0022C280.2777 -0.0022 -0.0023 189.4578 -0.0023 417.9678C-0.0023 646.4878 280.2777 835.4478 691.4077 835.4478ZM691.4077 762.2078C325.1977 762.2078 73.2377 603.0278 73.2377 417.9678C73.2377 232.9078 325.1977 73.7278 691.4077 73.7278C1058.5977 73.7278 1311.0377 232.9078 1311.0377 417.9678C1311.0377 603.0278 1058.5977 762.2078 691.4077 762.2078ZM691.4077 688.4778C952.1477 688.4778 1150.8777 579.5878 1150.8777 431.1478C1150.8777 283.2078 952.6377 174.8078 691.4077 174.8078C431.6377 174.8078 233.8877 283.2078 233.8877 431.1478C233.8877 580.0778 431.6377 688.4778 691.4077 688.4778ZM691.4077 614.7478C477.0477 614.7478 307.6177 530.7578 307.6177 431.1478C307.6177 392.5778 333.0077 356.4478 376.4677 326.6578C435.5477 406.2478 554.6877 460.9378 690.9177 460.9378C826.6577 460.9378 946.2877 405.7578 1004.8877 324.7078C1050.2977 354.9778 1077.1477 392.0878 1077.1477 431.1478C1077.1477 530.7578 906.2477 614.7478 691.4077 614.7478Z"/>
</svg>