<?xml version="1.0" encoding="UTF-8" standalone="no"?>
<svg xmlns="http://www.w3.org/2000/svg"
     width="880.799142814363" height="1136.23046875"
     viewBox="0 0 880.799142814363 1136.23046875"
     fill="currentColor">
  <path d="M463.0744 -0.0031C358.0944 -0.0031 266.7844 43.4569 206.7244 111.8169L258.9744 164.0669C305.8444 107.9069 380.5544 73.7269 463.0744 73.7269C600.2844 73.7269 716.0044 168.9469 716.0044 300.7769C716.0044 389.6469 678.4044 436.0369 639.8344 544.4369L699.8944 604.9769C741.8844 485.3469 789.7344 423.3369 789.7344 300.7769C789.7344 132.3269 645.6944 -0.0031 463.0744 -0.0031ZM816.5944 908.2069C831.7244 923.8269 855.1644 923.3369 869.8144 908.2069C884.4644 893.5569 884.4644 870.1169 869.8144 854.9769L64.1444 49.3169C49.5044 34.1769 25.0844 35.1569 10.4344 49.3169C-3.7256 63.4769 -3.2356 88.8669 10.4344 102.5369ZM310.2444 889.1569H615.4144C634.4644 889.1569 645.6944 878.4169 646.1844 860.3469L650.0844 829.0969L597.8444 780.7569L593.4444 815.4269H346.8644C321.4744 604.9769 271.6644 521.9769 249.6944 438.4769C247.7444 431.6369 246.2744 424.8069 245.3044 417.9669L138.3644 311.0369C137.3944 323.2469 137.8744 334.9569 138.8544 346.6769C154.4844 498.0469 251.1644 561.5269 279.4844 860.3469C281.4344 877.9269 291.2044 889.1569 310.2444 889.1569ZM308.2944 994.6269H617.3744C633.4844 994.6269 646.1844 981.9369 646.1844 965.8169C646.1844 950.1969 633.4844 937.4969 617.3744 937.4969H308.2944C292.1744 937.4969 279.9644 950.1969 279.9644 965.8169C279.9644 981.9369 292.1744 994.6269 308.2944 994.6269ZM463.0744 1136.2269C538.2744 1136.2269 601.7444 1099.1169 606.1444 1042.9669H319.5244C322.9344 1099.1169 386.9044 1136.2269 463.0744 1136.2269Z"/>
</svg>