<?xml version="1.0" encoding="UTF-8" standalone="no"?>
<svg xmlns="http://www.w3.org/2000/svg"
     width="715.8203125" height="1080.078125"
     viewBox="0 0 715.8203125 1080.078125"
     fill="currentColor">
  <path d="M151.3683 1080.0781H564.4483C665.0383 1080.0781 715.8183 1028.8081 715.8183 927.2481V153.3181C715.8183 51.2681 665.0383 -0.0019 564.4483 -0.0019H151.3683C50.2883 -0.0019 -0.0017 51.2681 -0.0017 153.3181V927.2481C-0.0017 1028.8081 50.2883 1080.0781 151.3683 1080.0781ZM155.2783 1001.4681C104.4883 1001.4681 78.6183 974.6081 78.6183 925.7781V154.7881C78.6183 105.9581 104.4883 78.6181 155.2783 78.6181H560.0583C610.8383 78.6181 637.2083 105.9581 637.2083 154.7881V925.7781C637.2083 974.6081 610.8383 1001.4681 560.0583 1001.4681ZM187.9883 453.1281H525.3883C556.6383 453.1281 569.3383 440.9181 569.3383 410.1581V188.4781C569.3383 157.7181 556.6383 145.5081 525.3883 145.5081H187.9883C157.2283 145.5081 144.5283 157.7181 144.5283 188.4781V410.1581C144.5283 440.9181 157.2283 453.1281 187.9883 453.1281Z"/>
</svg>