<?xml version="1.0" encoding="UTF-8" standalone="no"?>
<svg xmlns="http://www.w3.org/2000/svg"
     width="715.8203125" height="1080.078125"
     viewBox="0 0 715.8203125 1080.078125"
     fill="currentColor">
  <path d="M151.3683 1080.0781H564.4483C665.0383 1080.0781 715.8183 1028.8081 715.8183 927.2481V153.3181C715.8183 51.2681 665.0383 -0.0019 564.4483 -0.0019H151.3683C50.2883 -0.0019 -0.0017 51.2681 -0.0017 153.3181V927.2481C-0.0017 1028.8081 50.2883 1080.0781 151.3683 1080.0781ZM172.8483 462.8881C140.1383 462.8881 126.9483 450.1981 126.9483 417.4781V176.2681C126.9483 143.5581 140.1383 130.8581 172.8483 130.8581H540.5283C573.7283 130.8581 586.9183 143.5581 586.9183 176.2681V417.4781C586.9183 450.1981 573.7283 462.8881 540.5283 462.8881Z"/>
</svg>