<?xml version="1.0" encoding="UTF-8" standalone="no"?>
<svg xmlns="http://www.w3.org/2000/svg"
     width="996.58203125" height="1072.265625"
     viewBox="0 0 996.58203125 1072.265625"
     fill="currentColor">
  <path d="M144.5283 799.3119H391.1183C409.1783 799.3119 417.9683 788.0819 419.4383 772.4619C428.2183 682.6219 445.3083 619.6319 463.3783 569.3319C484.3783 628.9019 504.3983 703.6119 514.6483 811.0319C516.1183 828.1219 525.3883 838.8719 543.4583 838.8719H832.0283C850.0983 838.8719 859.3783 828.1219 860.8383 811.0319C890.1383 505.8619 996.5783 461.9119 996.5783 285.1519C996.5783 125.4919 860.3483 0.0019 687.4983 0.0019C580.0783 0.0019 486.8183 48.8319 432.1283 124.0219C387.2083 91.7919 330.0783 72.2619 267.5783 72.2619C118.6483 72.2619 -0.0017 181.6419 -0.0017 320.8019C-0.0017 475.1019 90.8183 513.1819 116.2083 772.4619C117.1883 788.0819 126.4683 799.3119 144.5283 799.3119ZM687.4983 71.7819C815.9183 71.7819 924.8083 161.6219 924.8083 285.1519C924.8083 416.5019 837.8883 446.2919 795.4083 767.0919H580.0783C537.5983 446.2919 451.1683 416.5019 451.1683 285.1519C451.1683 161.6219 559.5683 71.7819 687.4983 71.7819ZM178.2183 730.9619C141.5983 454.1019 68.8483 433.1019 68.8483 320.8019C68.8483 216.7919 159.1783 141.1119 267.5783 141.1119C317.8683 141.1119 363.7683 157.2219 398.4383 185.0619C386.2283 216.3119 379.3983 249.5119 379.3983 285.1519C379.3983 361.3319 399.4183 413.0819 423.8283 471.6819C402.3483 524.4119 375.9783 595.7019 356.9383 730.9619ZM143.0683 892.0919H392.5783C408.1983 892.0919 420.8983 880.3719 420.8983 864.7419C420.8983 848.6319 408.1983 836.9119 392.5783 836.9119H143.0683C127.4383 836.9119 115.7183 849.1219 115.7183 864.7419C115.7183 879.8819 127.4383 892.0919 143.0683 892.0919ZM542.4783 938.4719H833.4983C849.1183 938.4719 861.8183 926.7619 861.8183 910.6419C861.8183 894.5319 849.1183 882.8119 833.4983 882.8119H542.4783C526.3683 882.8119 514.6483 894.5319 514.6483 910.6419C514.6483 926.7619 526.3683 938.4719 542.4783 938.4719ZM268.0683 1014.1619C332.5183 1014.1619 388.1883 979.4919 389.1583 929.6919H147.4583C148.4383 979.4919 203.1283 1014.1619 268.0683 1014.1619ZM687.9883 1072.2619C759.7683 1072.2619 820.3083 1036.1319 824.2183 982.4219H551.7583C554.6883 1036.1319 615.7183 1072.2619 687.9883 1072.2619Z"/>
</svg>