<?xml version="1.0" encoding="UTF-8" standalone="no"?>
<svg xmlns="http://www.w3.org/2000/svg"
     width="996.09375" height="996.09375"
     viewBox="0 0 996.09375 996.09375"
     fill="currentColor">
  <path d="M498.0477 996.0959C770.5077 996.0959 996.0977 770.0159 996.0977 498.0459C996.0977 225.5859 770.0177 -0.0041 497.5577 -0.0041C225.5877 -0.0041 -0.0023 225.5859 -0.0023 498.0459C-0.0023 770.0159 226.0777 996.0959 498.0477 996.0959ZM498.0477 913.0859C267.5777 913.0859 83.4977 728.5159 83.4977 498.0459C83.4977 267.5759 267.0877 83.0059 497.5577 83.0059C728.0277 83.0059 913.0877 267.5759 913.0877 498.0459C913.0877 728.5159 728.5177 913.0859 498.0477 913.0859ZM251.9577 370.6059H745.1177C766.5977 370.6059 782.2277 356.9359 782.2277 335.9359C782.2277 315.4259 766.5977 301.7559 745.1177 301.7559H251.9577C229.9777 301.7559 214.8477 315.4259 214.8477 335.9359C214.8477 356.9359 229.9777 370.6059 251.9577 370.6059ZM251.9577 532.2259H745.1177C766.5977 532.2259 782.2277 518.5559 782.2277 497.5559C782.2277 477.0459 766.5977 463.3759 745.1177 463.3759H251.9577C229.9777 463.3759 214.8477 477.0459 214.8477 497.5559C214.8477 518.5559 229.9777 532.2259 251.9577 532.2259ZM251.9577 694.3359H745.1177C766.5977 694.3359 782.2277 680.1759 782.2277 659.6659C782.2277 639.1559 766.5977 625.4859 745.1177 625.4859H251.9577C229.9777 625.4859 214.8477 639.1559 214.8477 659.6659C214.8477 680.1759 229.9777 694.3359 251.9577 694.3359Z"/>
</svg>