<?xml version="1.0" encoding="UTF-8" standalone="no"?>
<svg xmlns="http://www.w3.org/2000/svg"
     width="996.09375" height="996.09375"
     viewBox="0 0 996.09375 996.09375"
     fill="currentColor">
  <path d="M498.0477 996.0959C770.5077 996.0959 996.0977 770.0159 996.0977 498.0459C996.0977 225.5859 770.0177 -0.0041 497.5577 -0.0041C225.5877 -0.0041 -0.0023 225.5859 -0.0023 498.0459C-0.0023 770.0159 226.0777 996.0959 498.0477 996.0959ZM245.1177 366.6959C222.1677 366.6959 206.5477 352.5359 206.5477 331.0559C206.5477 309.5659 222.1677 295.4059 245.1177 295.4059H752.9277C775.3877 295.4059 791.5077 309.5659 791.5077 331.0559C791.5077 352.5359 775.3877 366.6959 752.9277 366.6959ZM245.1177 533.6959C222.1677 533.6959 206.5477 519.5359 206.5477 497.5559C206.5477 476.0759 222.1677 461.9159 245.1177 461.9159H752.9277C775.3877 461.9159 791.5077 476.0759 791.5077 497.5559C791.5077 519.5359 775.3877 533.6959 752.9277 533.6959ZM245.1177 700.6859C222.1677 700.6859 206.5477 686.0359 206.5477 664.5459C206.5477 643.5559 222.1677 629.3959 245.1177 629.3959H752.9277C775.3877 629.3959 791.5077 643.5559 791.5077 664.5459C791.5077 686.0359 775.3877 700.6859 752.9277 700.6859Z"/>
</svg>