<?xml version="1.0" encoding="UTF-8" standalone="no"?>
<svg xmlns="http://www.w3.org/2000/svg"
     width="996.09375" height="996.09375"
     viewBox="0 0 996.09375 996.09375"
     fill="currentColor">
  <path d="M498.0477 996.0959C770.5077 996.0959 996.0977 770.0159 996.0977 498.0459C996.0977 225.5859 770.0177 -0.0041 497.5577 -0.0041C225.5877 -0.0041 -0.0023 225.5859 -0.0023 498.0459C-0.0023 770.0159 226.0777 996.0959 498.0477 996.0959ZM605.4677 337.8859C584.4777 373.0459 560.5477 400.3859 524.8977 426.2659C519.0477 373.0459 504.8877 326.6559 478.0277 280.2759C437.4977 210.4459 377.9277 160.1559 303.7077 130.3759C361.3277 100.0959 427.2477 83.0059 497.5577 83.0059C541.5077 83.0059 583.4977 89.8459 623.5377 102.0459C652.8277 188.4759 645.9977 267.5759 605.4677 337.8859ZM673.3377 376.4659C714.8477 305.1759 728.0277 225.5859 714.3577 143.5559C811.0377 202.1459 881.8377 299.8059 904.7877 414.5459C845.2177 485.3559 770.9977 521.4859 687.4977 521.4859C642.5777 521.4859 604.4877 512.6959 564.4577 495.1159C610.3477 462.4059 645.0177 425.7859 673.3377 376.4659ZM409.6677 318.8459C430.1777 354.9759 441.8977 389.1559 446.7777 433.1059C397.9477 411.6259 350.0977 400.3859 295.8977 400.3859C217.2877 400.3859 145.9977 426.2659 83.9877 474.1259C90.3277 359.8659 142.0877 258.2959 222.1677 187.0159C306.1477 205.5659 370.1177 250.4859 409.6677 318.8459ZM295.8977 479.0059C334.9577 479.0059 370.1177 485.3559 408.2077 501.4659C365.2377 532.7159 332.5177 568.8459 304.6877 615.7259C265.1377 684.0859 250.4877 760.2559 261.2277 839.3559C172.8477 778.3159 110.3477 683.5959 90.3277 573.2459C147.9477 511.2259 217.7777 479.0059 295.8977 479.0059ZM568.8477 679.1959C547.3677 642.0859 536.1377 606.4459 531.2477 565.9159C581.5477 588.3759 631.3477 600.0959 687.4977 600.0959C770.9977 600.0959 847.1677 571.7759 912.5977 518.5559C906.7377 637.2059 852.0477 742.6759 767.5777 814.4559C678.2277 796.8759 610.3477 750.9759 568.8477 679.1959ZM498.0477 913.0859C446.7777 913.0859 397.4577 903.8059 352.0477 886.7159C325.6877 803.2259 332.0277 724.6059 373.0477 654.7859C394.5277 618.1659 419.4377 590.8159 452.1477 565.9159C458.0077 621.0959 472.6577 669.4359 500.4877 717.7759C541.9877 789.5459 603.5177 841.3059 680.6677 871.0959C625.9777 897.9459 563.9677 913.0859 498.0477 913.0859Z"/>
</svg>