<?xml version="1.0" encoding="UTF-8" standalone="no"?>
<svg xmlns="http://www.w3.org/2000/svg"
     width="987.79296875" height="581.54296875"
     viewBox="0 0 987.79296875 581.54296875"
     fill="currentColor">
  <path d="M39.0583 78.6147H948.7283C970.6983 78.6147 987.7883 61.5247 987.7883 39.5547C987.7883 17.5747 970.6983 0.0047 948.7283 0.0047H39.0583C17.0883 0.0047 -0.0017 17.5747 -0.0017 39.5547C-0.0017 61.5247 17.0883 78.6147 39.0583 78.6147ZM142.0883 330.0747H848.6283C870.6083 330.0747 887.6983 312.9847 887.6983 291.0147C887.6983 269.0447 870.6083 251.4647 848.6283 251.4647H142.0883C120.1183 251.4647 102.5383 269.0447 102.5383 291.0147C102.5383 312.9847 120.1183 330.0747 142.0883 330.0747ZM242.1883 581.5447H748.0483C770.0183 581.5447 787.5983 564.4547 787.5983 542.4847C787.5983 520.5047 770.0183 502.9247 748.0483 502.9247H242.1883C220.2183 502.9247 203.1283 520.5047 203.1283 542.4847C203.1283 564.4547 220.2183 581.5447 242.1883 581.5447Z"/>
</svg>