<?xml version="1.0" encoding="UTF-8" standalone="no"?>
<svg xmlns="http://www.w3.org/2000/svg"
     width="996.09375" height="996.09375"
     viewBox="0 0 996.09375 996.09375"
     fill="currentColor">
  <path d="M498.0477 996.0959C770.5077 996.0959 996.0977 770.0159 996.0977 498.0459C996.0977 225.5859 770.0177 -0.0041 497.5577 -0.0041C225.5877 -0.0041 -0.0023 225.5859 -0.0023 498.0459C-0.0023 770.0159 226.0777 996.0959 498.0477 996.0959ZM224.6077 469.2359C202.1477 469.2359 186.0377 454.5859 186.0377 433.5959C186.0377 412.1059 202.1477 397.9459 224.6077 397.9459H773.4377C795.4077 397.9459 812.0077 412.1059 812.0077 433.5959C812.0077 454.5859 795.4077 469.2359 773.4377 469.2359ZM299.3177 636.2259C276.3677 636.2259 260.7377 621.5859 260.7377 600.0959C260.7377 579.1059 276.3677 564.9459 299.3177 564.9459H698.7277C721.1877 564.9459 736.8177 579.1059 736.8177 600.0959C736.8177 621.5859 721.1877 636.2259 698.7277 636.2259Z"/>
</svg>