<?xml version="1.0" encoding="UTF-8" standalone="no"?>
<svg xmlns="http://www.w3.org/2000/svg"
     width="996.09375" height="996.09375"
     viewBox="0 0 996.09375 996.09375"
     fill="currentColor">
  <path d="M498.0477 996.0959C770.5077 996.0959 996.0977 770.0159 996.0977 498.0459C996.0977 225.5859 770.0177 -0.0041 497.5577 -0.0041C225.5877 -0.0041 -0.0023 225.5859 -0.0023 498.0459C-0.0023 770.0159 226.0777 996.0959 498.0477 996.0959ZM498.0477 913.0859C267.5777 913.0859 83.4977 728.5159 83.4977 498.0459C83.4977 267.5759 267.0877 83.0059 497.5577 83.0059C728.0277 83.0059 913.0877 267.5759 913.0877 498.0459C913.0877 728.5159 728.5177 913.0859 498.0477 913.0859ZM232.4177 401.8559H764.6477C786.1377 401.8559 801.7577 388.1859 801.7577 367.1859C801.7577 346.6759 786.1377 333.0059 764.6477 333.0059H232.4177C210.4477 333.0059 195.3077 346.6759 195.3077 367.1859C195.3077 388.1859 210.4477 401.8559 232.4177 401.8559ZM304.6877 563.4759H692.3877C713.8677 563.4759 729.0077 549.8059 729.0077 528.8059C729.0077 508.2959 713.8677 494.6259 692.3877 494.6259H304.6877C282.7177 494.6259 267.5777 508.2959 267.5777 528.8059C267.5777 549.8059 282.7177 563.4759 304.6877 563.4759ZM379.8877 725.5859H616.6977C638.1877 725.5859 653.8077 711.4259 653.8077 690.9159C653.8077 670.4059 638.1877 656.7359 616.6977 656.7359H379.8877C358.3977 656.7359 343.2577 670.4059 343.2577 690.9159C343.2577 711.4259 358.3977 725.5859 379.8877 725.5859Z"/>
</svg>