<?xml version="1.0" encoding="UTF-8" standalone="no"?>
<svg xmlns="http://www.w3.org/2000/svg"
     width="1035.5226512748652" height="1037.7808564933634"
     viewBox="0 0 1035.5226512748652 1037.7808564933634"
     fill="currentColor">
  <path d="M511.6544 720.0353L576.5944 654.1153C512.1444 649.2353 470.1544 629.6953 438.4144 597.9653C352.9644 512.5153 353.4544 391.4153 437.9244 306.9453L597.1044 147.7653C682.5544 62.8053 802.6744 62.3153 888.1244 147.7653C973.5744 233.2153 972.5944 353.8253 888.1244 438.2953L792.4244 533.9953C806.0944 565.2453 809.0244 601.3753 804.1344 633.1153L947.6944 490.0553C1064.3944 372.8653 1065.3644 207.3353 947.2044 88.6853C828.5544 -29.9647 662.5344 -28.9947 545.3444 88.1953L378.8444 255.1853C261.6544 372.3753 260.6844 538.3953 379.3344 656.5553C410.0944 687.3153 449.1544 709.2853 511.6544 720.0353ZM523.8644 317.6853L458.9244 383.6053C523.3744 388.9753 565.3644 408.0153 597.1044 439.7553C682.5544 525.2053 682.0644 646.3053 597.5944 730.7753L437.9244 889.9553C352.9644 974.9153 232.8444 975.4053 147.4044 890.4453C61.9544 804.5053 62.4344 684.3853 147.4044 599.4253L243.1044 503.7253C229.4344 472.9653 226.0144 436.3453 231.3844 404.6053L87.8344 547.6653C-28.8656 664.8553 -29.8456 830.8753 88.3144 949.0353C206.9744 1067.6853 372.9844 1066.7153 489.6844 950.0153L656.6744 782.5353C773.8644 665.3453 774.8444 499.3253 656.1844 381.1653C625.4244 350.4053 586.3644 328.4253 523.8644 317.6853Z"/>
</svg>