<?xml version="1.0" encoding="UTF-8" standalone="no"?>
<svg xmlns="http://www.w3.org/2000/svg"
     width="1227.5390625" height="848.6328125"
     viewBox="0 0 1227.5390625 848.6328125"
     fill="currentColor">
  <path d="M964.8477 848.6363C1112.3077 848.6363 1227.5377 740.7262 1227.5377 606.4463C1227.5377 503.9063 1168.4577 415.0363 1073.2377 374.9962C1074.2177 157.2263 917.4777 -0.0037 717.7777 -0.0037C585.4477 -0.0037 491.2077 70.7962 432.6177 156.2463C312.4977 121.0963 181.6377 212.4063 179.1977 349.1163C68.8477 366.6963 -0.0023 465.3363 -0.0023 584.4762C-0.0023 728.0263 125.4877 848.6363 292.4777 848.6363ZM964.8477 770.0163H292.4777C169.4377 770.0163 78.6177 684.0863 78.6177 584.4762C78.6177 486.8163 137.6977 409.1763 241.2077 409.1763C248.0477 409.1763 250.4877 405.7663 250.4877 399.4163C250.4877 249.0263 358.8877 204.5862 458.9877 237.3063C464.8477 239.2563 468.2577 237.7963 471.1877 232.4263C518.5577 147.9462 591.3077 78.6163 717.7777 78.6163C877.9277 78.6163 988.7677 205.5662 997.0677 350.5863C998.5377 373.0463 997.0677 399.4163 995.1177 422.3663C994.6277 428.7063 997.0677 432.1263 1002.9277 433.5963C1091.7977 453.1263 1148.9277 518.0663 1148.9277 606.4463C1148.9277 697.2663 1068.8477 770.0163 964.8477 770.0163ZM834.9577 231.4462C781.7377 177.7363 705.5677 177.7363 651.8577 230.9562L553.2277 329.5863C499.9977 382.8163 500.4877 458.9863 553.7077 512.6963C570.7977 530.2763 590.8177 539.5463 604.0077 543.9463L629.8877 518.5563C638.1877 508.7863 639.6477 506.3463 644.0477 499.0263C625.4877 499.5163 605.9577 491.2063 590.3277 475.5863C557.1277 442.3863 556.6377 396.9763 590.8177 363.2763L685.0577 268.5563C718.7477 234.8663 765.1377 234.8663 797.8477 268.0662C830.5677 301.7563 831.0577 348.1463 797.8477 381.3463L756.3477 421.8763C762.6977 445.3163 761.7177 470.7063 751.4677 497.5563L834.9577 414.0663C888.1877 360.3563 887.6977 284.6663 834.9577 231.4462ZM417.9677 647.9463C471.6777 701.1763 546.8777 701.1763 601.0777 647.9463L699.7077 549.3163C753.4177 496.0963 752.9277 420.4063 699.7077 366.6963C682.6177 349.1163 663.5777 339.8463 648.9277 335.4463L623.5377 360.3563C618.6477 365.7263 612.3077 372.5563 605.4677 382.3263C625.9777 378.9063 645.9977 386.7163 662.5977 403.8063C695.7977 436.5263 696.2877 482.4263 662.1077 516.1163L567.8677 610.8363C534.6677 644.0463 487.7977 644.0463 455.0777 611.3263C421.8777 577.6363 421.8777 531.2462 455.0777 498.0463L496.5777 456.5463C490.2377 434.0863 491.2077 408.6963 501.4677 381.8363L417.9677 464.8463C364.7477 518.0663 364.7477 594.2363 417.9677 647.9463Z"/>
</svg>