<?xml version="1.0" encoding="UTF-8" standalone="no"?>
<svg xmlns="http://www.w3.org/2000/svg"
     width="996.09375" height="996.09375"
     viewBox="0 0 996.09375 996.09375"
     fill="currentColor">
  <path d="M498.0477 996.0977C770.5077 996.0977 996.0977 770.5077 996.0977 498.0477C996.0977 226.0777 770.0177 -0.0023 497.5577 -0.0023C225.5877 -0.0023 -0.0023 226.0777 -0.0023 498.0477C-0.0023 770.5077 226.0777 996.0977 498.0477 996.0977ZM727.0477 259.2777C791.0177 322.7577 785.1577 401.3677 711.9177 475.0977L622.5577 563.4777C630.3677 538.5777 629.8877 509.2777 621.5777 490.2377L673.3377 438.9677C724.1177 389.1577 729.0077 336.9177 689.4577 297.8477C649.8977 258.7877 598.1477 264.6477 548.3377 313.9677L476.0777 386.7177C424.3177 437.4977 418.4577 489.7477 457.5177 529.7877C469.7277 541.0177 487.3077 549.3177 510.2577 552.7377C502.4377 570.3077 484.8677 589.3577 470.7077 599.1177C457.0277 596.6777 437.0077 584.4677 420.4077 566.8977C355.9577 503.4177 362.3077 424.3177 437.0077 350.0977L511.7177 275.3877C585.4477 201.6577 664.0577 196.7777 727.0477 259.2777ZM252.4377 735.3477C188.4777 671.8777 194.3377 593.2577 267.0877 520.0177L356.9377 431.1477C349.1177 456.5477 349.6077 485.3477 357.9077 504.8877L306.1477 555.6677C255.3677 605.4677 249.9977 657.7177 290.0377 696.7777C329.5877 735.8377 381.3477 729.9777 431.1477 680.6677L503.4177 607.9077C554.6877 557.6177 561.0377 504.8877 521.9777 465.3277C509.7677 453.6177 492.1877 445.3077 469.2377 442.3877C477.0477 424.8077 494.1377 405.7577 508.2977 395.9977C522.4577 398.4377 542.4777 410.1577 559.0777 428.2177C623.5377 491.6977 617.1877 570.3077 542.4777 645.0177L467.2877 719.2377C394.0477 792.9677 314.9377 797.8477 252.4377 735.3477Z"/>
</svg>