<?xml version="1.0" encoding="UTF-8" standalone="no"?>
<svg xmlns="http://www.w3.org/2000/svg"
     width="898.92578125" height="898.92578125"
     viewBox="0 0 898.92578125 898.92578125"
     fill="currentColor">
  <path d="M153.3183 898.9295H745.6083C848.1483 898.9295 898.9283 848.1495 898.9283 747.5595V151.3695C898.9283 50.7795 848.1483 -0.0005 745.6083 -0.0005H153.3183C51.2683 -0.0005 -0.0017 50.2895 -0.0017 151.3695V747.5595C-0.0017 848.6295 51.2683 898.9295 153.3183 898.9295ZM154.2983 820.3095C105.4683 820.3095 78.6183 794.4295 78.6183 743.6495V155.2695C78.6183 104.4895 105.4683 78.6095 154.2983 78.6095H744.6283C792.9683 78.6095 820.3083 104.4895 820.3083 155.2695V743.6495C820.3083 794.4295 792.9683 820.3095 744.6283 820.3095ZM271.9683 649.8995C271.9683 666.9895 283.1983 678.7095 300.7783 678.7095H595.6983C613.2783 678.7095 625.4883 666.9895 625.4883 649.8995C625.4883 632.8095 613.2783 621.5795 595.6983 621.5795H384.7683C405.7583 604.4895 420.4083 574.7095 424.8083 542.9695C425.7783 535.1595 426.2683 527.8295 426.2683 520.5095H542.9683C559.0783 520.5095 570.3083 509.7695 570.3083 494.1395C570.3083 478.5195 559.0783 468.2595 542.9683 468.2595H420.8983C417.4783 453.6095 413.5783 439.4495 410.1583 425.7795H542.9683C559.0783 425.7795 570.3083 415.0395 570.3083 399.4095C570.3083 383.7895 559.0783 373.5395 542.9683 373.5395H401.3683C400.8783 368.6495 400.3883 363.7695 400.3883 358.8895C400.3883 306.1495 437.9883 270.0195 502.4383 270.0195C538.5783 270.0195 560.0583 278.8095 575.1983 280.7595C593.7483 281.7395 603.0283 270.9995 603.0283 254.8795C603.0283 242.1895 596.6783 231.9295 579.5883 225.0995C556.6383 215.8195 528.8083 212.3995 499.0283 212.3995C398.4383 212.3995 336.4283 270.9995 336.4283 362.7895C336.4283 366.6995 336.9183 369.6295 337.3983 373.5395H300.2883C284.6683 373.5395 273.4383 383.7895 273.4383 399.4095C273.4383 415.0395 284.6683 425.7795 300.2883 425.7795H345.6983C349.1183 439.9395 353.0283 454.0995 356.4483 468.2595H300.2883C284.6683 468.2595 273.4383 478.5195 273.4383 494.1395C273.4383 509.7695 284.6683 520.5095 300.2883 520.5095H364.2583C364.7483 525.8795 364.2583 530.7595 363.7683 536.6195C358.8883 579.5895 330.5683 608.8895 297.3683 618.1595C279.2983 624.0195 271.9683 633.7895 271.9683 649.8995Z"/>
</svg>