<?xml version="1.0" encoding="UTF-8" standalone="no"?>
<svg xmlns="http://www.w3.org/2000/svg"
     width="666.9921875" height="886.23046875"
     viewBox="0 0 666.9921875 886.23046875"
     fill="currentColor">
  <path d="M41.9883 886.2267H624.5083C648.9283 886.2267 666.9883 870.1167 666.9883 845.7067C666.9883 820.7967 648.9283 805.6667 624.5083 805.6667H154.7883V803.2267C224.6083 779.7867 275.3883 694.3367 275.3883 588.3767C275.3883 583.4967 275.3883 579.0967 275.3883 574.7067H519.0383C538.5783 574.7067 554.6883 559.0867 554.6883 539.0667C554.6883 519.0467 538.5783 503.4167 519.0383 503.4167H267.0883C259.2783 463.3767 247.5583 427.2467 238.2783 388.6767H519.0383C538.5783 388.6767 554.6883 373.0467 554.6883 353.0267C554.6883 333.0067 538.5783 317.3867 519.0383 317.3867H225.5883C224.6083 303.2267 223.6283 288.5767 223.6283 273.4367C223.6283 160.1567 302.2483 83.0067 438.4783 83.0067C521.4883 83.0067 559.0783 105.4667 585.9383 105.4667C610.8383 105.4667 622.5583 90.8167 622.5583 69.3367C622.5583 48.8267 610.3483 34.6667 583.0083 23.4367C540.0383 6.3467 489.7483 -0.0033 431.1483 -0.0033C243.6483 -0.0033 127.9283 109.3767 127.9283 280.2767C127.9283 292.4767 128.9083 305.1767 129.8783 317.3867H42.9683C23.4383 317.3867 7.3283 333.0067 7.3283 353.0267C7.3283 373.0467 23.4383 388.6767 42.9683 388.6767H142.0883C150.8783 428.2267 162.5983 466.3067 170.8983 503.4167H42.9683C23.4383 503.4167 7.3283 519.0467 7.3283 539.0667C7.3283 559.0867 23.4383 574.7067 42.9683 574.7067H182.6183C183.1083 580.5667 183.5983 586.4267 183.5983 592.2867C183.5983 702.6367 116.6983 774.9067 38.5783 796.8767C11.7183 805.1767 -0.0017 819.3367 -0.0017 844.2367C-0.0017 868.6567 17.5783 886.2267 41.9883 886.2267Z"/>
</svg>