<?xml version="1.0" encoding="UTF-8" standalone="no"?>
<svg xmlns="http://www.w3.org/2000/svg"
     width="996.09375" height="996.09375"
     viewBox="0 0 996.09375 996.09375"
     fill="currentColor">
  <path d="M498.0477 996.0959C770.5077 996.0959 996.0977 770.0159 996.0977 498.0459C996.0977 225.5859 770.0177 -0.0041 497.5577 -0.0041C225.5877 -0.0041 -0.0023 225.5859 -0.0023 498.0459C-0.0023 770.0159 226.0777 996.0959 498.0477 996.0959ZM314.4577 705.5659C314.4577 688.9659 322.2677 678.7059 340.8177 672.8559C374.9977 663.0859 404.2977 633.2959 409.1777 588.8659C409.6677 583.0059 410.1577 577.6359 409.6677 572.2659H343.7477C327.6377 572.2659 315.4277 561.0359 315.4277 544.9259C315.4277 528.8059 327.6377 518.0659 343.7477 518.0659H401.8577C398.4377 503.4159 393.5577 489.2559 390.6277 474.6059H343.7477C327.6377 474.6059 315.4277 463.3759 315.4277 447.2659C315.4277 431.1559 327.6377 420.4059 343.7477 420.4059H382.3277C381.8377 416.5059 381.3477 413.5759 381.3477 409.6659C381.3477 314.4559 444.8277 254.3959 548.8277 254.3959C579.5877 254.3959 608.3977 257.8159 632.3277 267.5759C649.8977 274.4159 656.2477 285.1559 656.2477 298.3359C656.2477 314.9459 646.4877 325.6859 627.4377 324.7059C611.8177 322.7559 589.8477 313.9659 552.7377 313.9659C486.3277 313.9659 447.2677 351.0759 447.2677 405.2759C447.2677 410.6459 447.7577 415.5259 448.2377 420.4059H594.2377C610.8377 420.4059 622.5577 431.1559 622.5577 447.2659C622.5577 463.3759 610.8377 474.6059 594.2377 474.6059H457.5177C460.9377 488.7659 464.8477 502.9259 468.7477 518.0659H594.2377C610.8377 518.0659 622.5577 528.8059 622.5577 544.9259C622.5577 561.0359 610.8377 572.2659 594.2377 572.2659H474.1177C474.1177 580.0759 473.6377 587.4059 472.6577 594.7259C467.7777 627.9259 453.1277 658.6959 431.1477 676.2659H648.9277C666.9877 676.2659 679.6877 687.9859 679.6877 705.5659C679.6877 723.6359 666.9877 735.3559 648.9277 735.3559H344.2377C326.1677 735.3559 314.4577 723.6359 314.4577 705.5659Z"/>
</svg>