<?xml version="1.0" encoding="UTF-8" standalone="no"?>
<svg xmlns="http://www.w3.org/2000/svg"
     width="898.92578125" height="898.92578125"
     viewBox="0 0 898.92578125 898.92578125"
     fill="currentColor">
  <path d="M153.3183 898.9295H745.6083C848.1483 898.9295 898.9283 848.1495 898.9283 747.5595V151.3695C898.9283 50.7795 848.1483 -0.0005 745.6083 -0.0005H153.3183C51.2683 -0.0005 -0.0017 50.2895 -0.0017 151.3695V747.5595C-0.0017 848.6295 51.2683 898.9295 153.3183 898.9295ZM266.1183 656.2495C266.1183 639.6495 273.9283 629.3895 292.4783 623.5395C326.6583 613.7695 355.9583 583.9795 360.8383 539.5495C361.3283 533.6895 361.8183 528.3195 361.3283 522.9495H295.4083C279.2983 522.9495 267.5783 511.7195 267.5783 495.6095C267.5783 479.4895 279.2983 468.7495 295.4083 468.7495H353.5183C350.0983 454.0995 345.6983 439.9395 342.2883 425.2895H295.4083C279.2983 425.2895 267.5783 414.0595 267.5783 397.9495C267.5783 381.8395 279.2983 371.0895 295.4083 371.0895H333.9883C333.4983 367.1895 333.0083 364.2595 333.0083 360.3495C333.0083 265.1395 396.9683 205.0795 500.4883 205.0795C531.2483 205.0795 560.0583 208.4995 583.9883 218.2595C601.5583 225.0995 607.9083 235.8395 607.9083 249.0195C607.9083 265.6295 598.6283 276.3695 579.0983 275.3895C563.4783 273.4395 541.5083 264.6495 504.3983 264.6495C437.9883 264.6495 398.9283 301.7595 398.9283 355.9595C398.9283 361.3295 399.4183 366.2095 399.8983 371.0895H545.8983C562.4983 371.0895 574.2183 381.8395 574.2183 397.9495C574.2183 414.0595 562.4983 425.2895 545.8983 425.2895H409.1783C412.5983 439.4495 416.5083 453.6095 420.4083 468.7495H545.8983C562.4983 468.7495 574.2183 479.4895 574.2183 495.6095C574.2183 511.7195 562.4983 522.9495 545.8983 522.9495H425.7783C425.7783 530.7595 425.2883 538.0895 424.3183 545.4095C419.4383 578.6095 404.7883 609.3795 382.8083 626.9495H600.5883C618.6483 626.9495 631.3483 638.6695 631.3483 656.2495C631.3483 674.3195 618.6483 686.0395 600.5883 686.0395H295.8983C277.8283 686.0395 266.1183 674.3195 266.1183 656.2495Z"/>
</svg>