<?xml version="1.0" encoding="UTF-8" standalone="no"?>
<svg xmlns="http://www.w3.org/2000/svg"
     width="1151.3671875" height="898.92578125"
     viewBox="0 0 1151.3671875 898.92578125"
     fill="currentColor">
  <path d="M153.3183 898.9278H998.0483C1100.5883 898.9278 1151.3683 848.6378 1151.3683 748.0478V151.3678C1151.3683 50.7778 1100.5883 -0.0022 998.0483 -0.0022H153.3183C51.2683 -0.0022 -0.0017 50.7778 -0.0017 151.3678V748.0478C-0.0017 848.6378 51.2683 898.9278 153.3183 898.9278ZM154.2983 820.3078C105.4683 820.3078 78.6183 794.4378 78.6183 743.6478V155.7578C78.6183 104.9778 105.4683 78.6178 154.2983 78.6178H997.0683C1045.4083 78.6178 1072.7583 104.9778 1072.7583 155.7578V743.6478C1072.7583 794.4378 1045.4083 820.3078 997.0683 820.3078ZM231.4483 267.0878C256.8383 267.0878 276.8583 246.5778 276.8583 221.6778C276.8583 196.2878 256.8383 176.2678 231.4483 176.2678C207.0283 176.2678 186.0383 196.7778 186.0383 221.6778C186.0383 246.0978 207.0283 267.0878 231.4483 267.0878ZM378.9083 251.4678H937.4983C955.0783 251.4678 968.2583 238.2778 968.2583 221.6778C968.2583 204.5878 954.5883 190.9178 937.4983 190.9178H378.9083C361.8183 190.9178 348.1483 204.5878 348.1483 221.6778C348.1483 238.2778 361.3283 251.4678 378.9083 251.4678ZM231.4483 416.5078C256.8383 416.5078 276.8583 395.9978 276.8583 371.0978C276.8583 345.7078 256.8383 325.6878 231.4483 325.6878C207.0283 325.6878 186.0383 346.1878 186.0383 371.0978C186.0383 395.5078 207.0283 416.5078 231.4483 416.5078ZM378.9083 401.3678H688.4783C705.0783 401.3678 718.7483 387.6978 718.7483 371.0978C718.7483 354.4878 705.0783 340.3278 688.4783 340.3278H378.9083C361.8183 340.3278 348.1483 354.4878 348.1483 371.0978C348.1483 387.6978 361.8183 401.3678 378.9083 401.3678ZM231.4483 565.4278C256.8383 565.4278 276.8583 545.4078 276.8583 520.0178C276.8583 495.1178 256.8383 475.0978 231.4483 475.0978C206.5383 475.0978 186.0383 495.6078 186.0383 520.0178C186.0383 545.4078 206.5383 565.4278 231.4483 565.4278ZM378.9083 550.7778H937.4983C955.0783 550.7778 968.2583 537.5978 968.2583 520.0178C968.2583 503.4178 955.0783 490.2378 937.4983 490.2378H378.9083C361.3283 490.2378 348.1483 503.4178 348.1483 520.0178C348.1483 537.5978 361.3283 550.7778 378.9083 550.7778ZM231.4483 722.1678C256.8383 722.1678 276.8583 701.6578 276.8583 676.7578C276.8583 651.3678 256.8383 630.8578 231.4483 630.8578C207.0283 630.8578 186.0383 651.8578 186.0383 676.7578C186.0383 701.1678 207.0283 722.1678 231.4483 722.1678ZM378.9083 707.0278H688.4783C705.0783 707.0278 718.7483 693.3578 718.7483 676.7578C718.7483 659.6678 705.5683 646.4878 688.4783 646.4878H378.9083C361.3283 646.4878 348.1483 659.6678 348.1483 676.7578C348.1483 693.3578 361.8183 707.0278 378.9083 707.0278Z"/>
</svg>