<?xml version="1.0" encoding="UTF-8" standalone="no"?>
<svg xmlns="http://www.w3.org/2000/svg"
     width="983.9847214144432" height="783.6192225711784"
     viewBox="0 0 983.9847214144432 783.6192225711784"
     fill="currentColor">
  <path d="M56.7363 188.8473L98.7263 158.0773L139.2563 188.8473C153.9063 199.5873 169.5363 188.3573 164.1563 172.2373L148.0463 122.4373L189.0663 91.6773C201.7563 81.9073 196.8763 63.8473 180.7663 63.8473H129.4963L112.4063 10.6173C108.0063 -3.5427 88.9663 -3.5427 84.5663 10.6173L67.4763 63.8473H15.7263C-0.3937 63.8473 -5.7637 81.9073 7.4263 91.6773L48.9263 122.4373L32.8163 172.2373C26.9563 188.3573 42.5763 199.0973 56.7363 188.8473ZM330.1763 147.8273H944.9263C966.8963 147.8273 983.9863 130.7373 983.9863 108.7673C983.9863 86.3073 966.8963 69.2173 944.9263 69.2173H330.1763C308.2063 69.2173 290.6263 86.3073 290.6263 108.7673C290.6263 130.7373 308.2063 147.8273 330.1763 147.8273ZM56.7363 483.2773L98.7263 452.5173L139.2563 483.2773C153.9063 494.5073 169.5363 482.7873 164.1563 466.6773L148.0463 416.8673L189.0663 386.1073C201.7563 376.3473 196.8763 358.7673 180.7663 358.7673H129.4963L112.4063 305.0573C108.0063 291.3773 88.9663 291.3773 84.5663 305.0573L67.4763 358.7673H15.7263C-0.3937 358.7673 -5.7637 376.3473 7.4263 386.1073L48.9263 416.8673L32.8163 466.6773C27.4463 482.7873 42.5763 493.5273 56.7363 483.2773ZM330.1763 443.2373H944.9263C966.8963 443.2373 983.9863 425.6573 983.9863 403.6873C983.9863 381.7173 966.8963 364.6273 944.9263 364.6273H330.1763C308.2063 364.6273 290.6263 381.7173 290.6263 403.6873C290.6263 425.6573 308.2063 443.2373 330.1763 443.2373ZM56.7363 779.1773L98.7263 748.4173L139.2563 779.1773C153.9063 790.4073 169.5363 778.6873 164.1563 762.5773L148.0463 712.7673L189.0663 682.0073C201.7563 672.2373 196.8763 654.6673 180.7663 654.6673H129.4963L112.4063 600.9473C108.0063 587.2773 88.9663 586.7873 84.5663 600.9473L67.4763 654.6673H15.7263C-0.3937 654.6673 -5.7637 672.2373 7.4263 682.0073L48.9263 712.7673L32.8163 762.5773C27.4463 778.6873 42.5763 789.4273 56.7363 779.1773ZM330.1763 738.1573H944.9263C966.8963 738.1573 983.9863 721.0673 983.9863 699.0973C983.9863 676.6373 966.8963 659.5473 944.9263 659.5473H330.1763C308.2063 659.5473 290.6263 676.6373 290.6263 699.0973C290.6263 721.0673 308.2063 738.1573 330.1763 738.1573Z"/>
</svg>