<?xml version="1.0" encoding="UTF-8" standalone="no"?>
<svg xmlns="http://www.w3.org/2000/svg"
     width="983.88671875" height="747.5972573456539"
     viewBox="0 0 983.88671875 747.5972573456539"
     fill="currentColor">
  <path d="M39.5483 151.7132L126.4683 99.9532C141.5983 90.6732 141.1183 67.7332 126.4683 58.9432L39.5483 6.2032C20.0183 -6.0068 -0.0017 -0.1468 -0.0017 23.2932V134.6232C-0.0017 157.0832 20.5083 162.9432 39.5483 151.7132ZM312.9883 117.5332H944.3383C966.3083 117.5332 983.8883 100.4432 983.8883 78.4732C983.8883 56.0132 966.3083 38.9232 944.3383 38.9232H312.9883C290.5283 38.9232 273.4383 56.0132 273.4383 78.4732C273.4383 100.4432 290.5283 117.5332 312.9883 117.5332ZM39.5483 446.1432L126.4683 394.3932C141.5983 385.1132 141.1183 362.1632 126.4683 353.3732L39.5483 300.6432C20.0183 288.9232 -0.0017 294.7832 -0.0017 317.7332V429.0532C-0.0017 451.5132 20.5083 457.3732 39.5483 446.1432ZM312.9883 412.9432H944.3383C966.3083 412.9432 983.8883 395.3632 983.8883 373.3932C983.8883 351.4232 966.3083 334.3332 944.3383 334.3332H312.9883C290.5283 334.3332 273.4383 351.4232 273.4383 373.3932C273.4383 395.3632 290.5283 412.9432 312.9883 412.9432ZM39.5483 742.0432L126.4683 690.2832C141.5983 681.0132 141.1183 658.0632 126.4683 649.2732L39.5483 596.5332C20.0183 584.8132 -0.0017 590.1932 -0.0017 613.6232V724.9532C-0.0017 747.4132 20.5083 753.2732 39.5483 742.0432ZM312.9883 707.8632H944.3383C966.3083 707.8632 983.8883 690.7732 983.8883 668.8032C983.8883 646.3432 966.3083 629.2532 944.3383 629.2532H312.9883C290.5283 629.2532 273.4383 646.3432 273.4383 668.8032C273.4383 690.7732 290.5283 707.8632 312.9883 707.8632Z"/>
</svg>