<?xml version="1.0" encoding="UTF-8" standalone="no"?>
<svg xmlns="http://www.w3.org/2000/svg"
     width="821.2890625" height="1183.10546875"
     viewBox="0 0 821.2890625 1183.10546875"
     fill="currentColor">
  <path d="M259.7683 248.048H561.5283C589.8483 248.048 606.9383 229.978 606.9383 199.708V148.438C606.9383 118.168 589.8483 100.098 561.5283 100.098H516.5983C513.1883 44.918 467.2883 -0.002 410.6483 -0.002C354.0083 -0.002 308.1083 44.918 304.6883 100.098H259.7683C231.4483 100.098 214.3583 118.168 214.3583 148.438V199.708C214.3583 229.978 231.4483 248.048 259.7683 248.048ZM410.6483 146.488C387.2083 146.488 368.1683 126.958 368.1683 104.008C368.1683 80.078 387.2083 61.038 410.6483 61.038C434.0783 61.038 453.1283 80.078 453.1283 104.008C453.1283 126.958 434.0783 146.488 410.6483 146.488ZM151.3683 1183.108H669.9183C770.9983 1183.108 821.2883 1132.328 821.2883 1029.788V289.058C821.2883 186.528 770.9983 135.738 674.8083 135.738H663.5783V199.708C663.5783 261.228 622.0683 304.688 561.5283 304.688H259.7683C199.2183 304.688 157.7183 261.228 157.7183 199.708V135.738H146.4883C50.2883 135.738 -0.0017 186.528 -0.0017 289.058V1029.788C-0.0017 1132.328 50.2883 1183.108 151.3683 1183.108ZM198.2383 548.828C174.8083 548.828 155.2783 528.808 155.2783 505.858C155.2783 482.418 174.8083 462.888 198.2383 462.888C221.6783 462.888 241.2083 481.938 241.2083 505.858C241.2083 529.298 221.6783 548.828 198.2383 548.828ZM333.0083 537.108C315.4283 537.108 300.7783 522.948 300.7783 505.858C300.7783 488.768 315.4283 473.628 333.0083 473.628H634.7683C651.8583 473.628 666.0183 488.768 666.0183 505.858C666.0183 522.948 651.8583 537.108 634.7683 537.108ZM198.2383 727.048C174.3183 727.048 155.2783 707.518 155.2783 684.078C155.2783 660.648 174.3183 641.598 198.2383 641.598C221.6783 641.598 241.2083 660.158 241.2083 684.078C241.2083 707.518 221.6783 727.048 198.2383 727.048ZM333.0083 715.818C314.9383 715.818 300.7783 701.658 300.7783 684.078C300.7783 666.508 314.9383 652.828 333.0083 652.828H634.7683C652.3483 652.828 666.0183 666.508 666.0183 684.078C666.0183 701.658 652.3483 715.818 634.7683 715.818ZM198.2383 915.528C174.8083 915.528 155.2783 895.998 155.2783 872.558C155.2783 849.608 174.8083 829.588 198.2383 829.588C221.6783 829.588 241.2083 849.118 241.2083 872.558C241.2083 896.488 221.6783 915.528 198.2383 915.528ZM333.0083 904.298C315.4283 904.298 300.7783 889.648 300.7783 872.558C300.7783 855.468 314.9383 841.308 333.0083 841.308H634.7683C652.3483 841.308 666.0183 855.468 666.0183 872.558C666.0183 889.648 651.8583 904.298 634.7683 904.298Z"/>
</svg>