<?xml version="1.0" encoding="UTF-8" standalone="no"?>
<svg xmlns="http://www.w3.org/2000/svg"
     width="821.2890625" height="1046.875"
     viewBox="0 0 821.2890625 1046.875"
     fill="currentColor">
  <path d="M-0.0017 894.0466C-0.0017 996.0966 50.2883 1046.8766 151.3683 1046.8766H669.9183C770.9983 1046.8766 821.2883 996.0966 821.2883 894.0466V153.3166C821.2883 51.7566 770.9983 -0.0034 669.9183 -0.0034H151.3683C50.2883 -0.0034 -0.0017 51.7566 -0.0017 153.3166ZM78.6183 892.5766V154.7866C78.6183 105.9566 104.4883 78.6166 155.2783 78.6166H666.0183C716.7983 78.6166 742.6783 105.9566 742.6783 154.7866V892.5766C742.6783 941.4066 716.7983 968.2666 666.0183 968.2666H155.2783C104.4883 968.2666 78.6183 941.4066 78.6183 892.5766ZM198.2383 267.5766C223.6283 267.5766 243.6483 247.5566 243.6483 222.1666C243.6483 197.2666 223.6283 176.7566 198.2383 176.7566C173.8283 176.7566 152.8283 197.7566 152.8283 222.1666C152.8283 247.0666 173.8283 267.5766 198.2383 267.5766ZM335.9383 252.9266H638.1883C654.7883 252.9266 668.4583 239.2566 668.4583 222.1666C668.4583 205.5666 654.7883 191.8966 638.1883 191.8966H335.9383C319.3383 191.8966 305.6683 205.5666 305.6683 222.1666C305.6683 239.2566 319.3383 252.9266 335.9383 252.9266ZM198.2383 416.9966C223.6283 416.9966 243.6483 396.4866 243.6483 371.5866C243.6483 346.1866 223.6283 326.6566 198.2383 326.6566C173.3383 326.6566 152.8283 346.6766 152.8283 371.5866C152.8283 396.4866 173.3383 416.9966 198.2383 416.9966ZM335.9383 401.8566H638.1883C655.2783 401.8566 668.4583 388.6766 668.4583 371.5866C668.4583 354.4966 655.2783 341.3066 638.1883 341.3066H335.9383C318.8483 341.3066 305.6683 354.4966 305.6683 371.5866C305.6683 388.6766 318.8483 401.8566 335.9383 401.8566ZM198.2383 573.2466C223.6283 573.2466 243.6483 552.7366 243.6483 527.8366C243.6483 502.4366 223.6283 482.4266 198.2383 482.4266C173.8283 482.4266 152.8283 502.9266 152.8283 527.8366C152.8283 552.2466 173.8283 573.2466 198.2383 573.2466ZM335.9383 558.1066H638.1883C654.7883 558.1066 668.4583 544.4366 668.4583 527.8366C668.4583 511.2266 655.2783 497.5566 638.1883 497.5566H335.9383C318.8483 497.5566 305.6683 511.2266 305.6683 527.8366C305.6683 544.4366 319.3383 558.1066 335.9383 558.1066Z"/>
</svg>