<?xml version="1.0" encoding="UTF-8" standalone="no"?>
<svg xmlns="http://www.w3.org/2000/svg"
     width="1227.5390625" height="713.37890625"
     viewBox="0 0 1227.5390625 713.37890625"
     fill="currentColor">
  <path d="M61.5283 122.5561C95.6983 122.5561 123.0483 95.2161 123.0483 61.5261C123.0483 27.3461 95.6983 -0.0039 61.5283 -0.0039C27.3483 -0.0039 -0.0017 27.3461 -0.0017 61.5261C-0.0017 95.2161 27.3483 122.5561 61.5283 122.5561ZM277.3483 100.5861H944.3383C966.3083 100.5861 983.8883 83.4961 983.8883 61.5261C983.8883 39.0661 966.3083 21.9761 944.3383 21.9761H277.3483C254.8783 21.9761 237.7883 39.0661 237.7883 61.5261C237.7883 83.4961 254.8783 100.5861 277.3483 100.5861ZM183.5983 417.9661C217.2883 417.9661 245.1183 390.6261 245.1183 356.4461C245.1183 322.2661 217.2883 294.9261 183.5983 294.9261C149.4183 294.9261 122.0683 322.2661 122.0683 356.4461C122.0683 390.6261 149.4183 417.9661 183.5983 417.9661ZM398.9283 395.9961H1066.4083C1088.3783 395.9961 1105.4683 378.4161 1105.4683 356.4461C1105.4683 334.4761 1088.3783 317.3861 1066.4083 317.3861H398.9283C376.9483 317.3861 359.8683 334.4761 359.8683 356.4461C359.8683 378.4161 376.9483 395.9961 398.9283 395.9961ZM305.1783 713.3761C339.3583 713.3761 366.6983 685.5461 366.6983 651.8561C366.6983 617.6761 339.3583 590.3361 305.1783 590.3361C271.4883 590.3361 243.6483 617.6761 243.6483 651.8561C243.6483 685.5461 271.4883 713.3761 305.1783 713.3761ZM520.9983 690.9161H1188.4783C1210.4483 690.9161 1227.5383 673.8261 1227.5383 651.8561C1227.5383 629.3961 1210.4483 612.3061 1188.4783 612.3061H520.9983C499.0283 612.3061 481.9383 629.3961 481.9383 651.8561C481.9383 673.8261 499.0283 690.9161 520.9983 690.9161Z"/>
</svg>