<?xml version="1.0" encoding="UTF-8" standalone="no"?>
<svg xmlns="http://www.w3.org/2000/svg"
     width="821.2890625" height="1183.10546875"
     viewBox="0 0 821.2890625 1183.10546875"
     fill="currentColor">
  <path d="M259.7683 248.048H561.5283C589.8483 248.048 606.9383 229.978 606.9383 199.708V148.438C606.9383 118.168 589.8483 100.098 561.5283 100.098H516.5983C513.1883 44.918 467.2883 -0.002 410.6483 -0.002C354.0083 -0.002 308.1083 44.918 304.6883 100.098H259.7683C231.4483 100.098 214.3583 118.168 214.3583 148.438V199.708C214.3583 229.978 231.4483 248.048 259.7683 248.048ZM410.6483 146.488C387.2083 146.488 368.1683 126.958 368.1683 104.008C368.1683 80.078 387.2083 61.038 410.6483 61.038C434.0783 61.038 453.1283 80.078 453.1283 104.008C453.1283 126.958 434.0783 146.488 410.6483 146.488ZM151.3683 1183.108H669.9183C770.9983 1183.108 821.2883 1132.328 821.2883 1029.788V289.058C821.2883 186.528 770.9983 135.738 674.8083 135.738H663.5783V199.708C663.5783 261.228 622.0683 304.688 561.5283 304.688H259.7683C199.2183 304.688 157.7183 261.228 157.7183 199.708V135.738H146.4883C50.2883 135.738 -0.0017 186.528 -0.0017 289.058V1029.788C-0.0017 1132.328 50.2883 1183.108 151.3683 1183.108ZM188.4783 555.178C171.3883 555.178 156.7383 541.018 156.7383 523.928C156.7383 506.348 171.3883 491.698 188.4783 491.698H632.8083C649.8983 491.698 664.5483 506.348 664.5483 523.928C664.5483 541.018 649.8983 555.178 632.8083 555.178ZM188.4783 733.888C170.8983 733.888 156.7383 719.728 156.7383 702.148C156.7383 684.568 170.8983 670.898 188.4783 670.898H632.8083C650.3883 670.898 664.5483 684.568 664.5483 702.148C664.5483 719.728 650.3883 733.888 632.8083 733.888ZM188.4783 922.368C171.3883 922.368 156.7383 907.718 156.7383 890.628C156.7383 873.538 170.8983 859.378 188.4783 859.378H412.1083C429.6883 859.378 443.3583 873.538 443.3583 890.628C443.3583 907.718 429.1983 922.368 412.1083 922.368Z"/>
</svg>