<?xml version="1.0" encoding="UTF-8" standalone="no"?>
<svg xmlns="http://www.w3.org/2000/svg"
     width="821.2890625" height="1046.875"
     viewBox="0 0 821.2890625 1046.875"
     fill="currentColor">
  <path d="M-0.0017 894.0466C-0.0017 996.0966 50.2883 1046.8766 151.3683 1046.8766H669.9183C770.9983 1046.8766 821.2883 996.0966 821.2883 894.0466V153.3166C821.2883 51.7566 770.9983 -0.0034 669.9183 -0.0034H151.3683C50.2883 -0.0034 -0.0017 51.7566 -0.0017 153.3166ZM191.8983 264.1566C166.5083 264.1566 145.0183 243.1666 145.0183 217.2866C145.0183 192.3866 166.5083 170.4066 191.8983 170.4066C217.7783 170.4066 238.7683 191.8966 238.7683 217.2866C238.7683 243.6566 217.7783 264.1566 191.8983 264.1566ZM333.9883 249.5166C316.4083 249.5166 302.2483 235.3466 302.2483 217.2866C302.2483 200.1966 316.4083 186.0366 333.9883 186.0366H645.0183C662.1083 186.0366 676.2683 200.1966 676.2683 217.2866C676.2683 235.3466 662.1083 249.5166 645.0183 249.5166ZM191.8983 418.4566C166.0183 418.4566 145.0183 396.9766 145.0183 371.5866C145.0183 345.7066 166.0183 325.1966 191.8983 325.1966C217.7783 325.1966 238.7683 345.2166 238.7683 371.5866C238.7683 396.9766 217.7783 418.4566 191.8983 418.4566ZM333.9883 402.8366C315.9183 402.8366 302.2483 389.1566 302.2483 371.5866C302.2483 353.5166 315.9183 339.8466 333.9883 339.8466H645.0183C662.5983 339.8466 676.2683 353.5166 676.2683 371.5866C676.2683 389.1566 662.5983 402.8366 645.0183 402.8366ZM191.8983 579.5866C166.5083 579.5866 145.0183 557.6166 145.0183 532.7166C145.0183 506.8366 166.5083 485.8366 191.8983 485.8366C217.7783 485.8366 238.7683 506.3466 238.7683 532.7166C238.7683 558.1066 217.7783 579.5866 191.8983 579.5866ZM333.9883 563.9666C316.4083 563.9666 302.2483 549.8066 302.2483 532.7166C302.2483 515.1366 315.9183 500.9766 333.9883 500.9766H645.0183C662.5983 500.9766 676.2683 515.1366 676.2683 532.7166C676.2683 549.8066 662.1083 563.9666 645.0183 563.9666Z"/>
</svg>