<?xml version="1.0" encoding="UTF-8" standalone="no"?>
<svg xmlns="http://www.w3.org/2000/svg"
     width="1210.4726677069802" height="1323.2421875"
     viewBox="0 0 1210.4726677069802 1323.2421875"
     fill="currentColor">
  <path d="M558.5983 -0.0005C427.2483 -0.0005 366.6983 203.1295 366.6983 289.0595C366.6983 407.2295 443.3583 406.7395 443.3583 434.0795C443.3583 440.9195 439.4483 445.3095 427.7383 452.6395L267.5783 551.7595L229.0083 502.9295C215.3283 484.8595 221.1883 454.0995 253.9083 454.0995C284.6683 454.0995 304.6883 433.5895 304.6883 406.2495C304.6883 378.9095 282.7183 357.4195 255.8583 357.4195C228.5183 357.4195 206.5383 378.9095 206.5383 406.2495C206.5383 409.1795 206.5383 412.1095 207.0283 414.5495C213.8683 453.1295 155.7583 439.9395 177.2483 411.1295C183.5983 402.8295 187.0083 392.5795 187.0083 381.8395C187.0083 354.4895 165.0383 333.0095 137.6983 333.0095C110.8383 333.0095 88.8683 354.4895 88.8683 381.8395C88.8683 403.3195 102.0483 419.4295 120.6083 428.2195C150.3883 441.8895 116.2083 477.5395 100.0983 454.0995C90.8183 440.9195 75.6883 432.1295 58.5983 432.1295C31.7383 432.1295 9.7683 453.6095 9.7683 480.9595C9.7683 508.2995 31.7383 530.2695 58.5983 530.2695C68.3583 530.2695 77.1483 527.3395 84.9583 522.4595C106.9383 508.7895 124.9983 509.7695 143.0683 532.7195L218.2583 628.9095C236.8183 653.3195 268.0683 663.5695 295.4083 648.9295L350.0983 619.6295C338.3783 658.6895 331.0583 707.0295 343.2583 765.1395L285.6483 733.3995C258.2983 718.2595 227.5383 728.9995 208.4983 753.4195L133.7883 849.6095C115.2383 872.0695 97.6583 873.5395 75.1983 859.8595C67.3783 854.9795 58.5983 852.0495 49.3183 852.0495C21.9683 852.0495 -0.0017 874.0195 -0.0017 901.3695C-0.0017 928.2195 21.9683 950.1995 49.3183 950.1995C65.9183 950.1995 81.5383 941.4095 90.3283 927.7295C106.4483 904.7895 141.1183 939.9395 110.8383 954.0995C92.2883 962.3995 79.0983 978.9995 79.0983 999.9995C79.0983 1027.3395 101.0783 1049.3195 128.4183 1049.3195C155.2783 1049.3195 177.2483 1027.3395 177.2483 999.9995C177.2483 989.2595 173.8283 979.4895 167.9683 970.6995C145.9983 942.3795 204.0983 929.1995 197.7583 967.7695C196.7783 969.7295 196.7783 972.6595 196.7783 976.0695C196.7783 1002.9295 218.7483 1024.8995 246.0983 1024.8995C273.4383 1024.8995 294.9183 1002.9295 294.9183 976.0695C294.9183 948.7295 274.8983 928.2195 244.1383 928.2195C211.9183 928.2195 205.5683 897.4595 219.2383 879.3895L258.2983 830.5695L443.8483 978.9995C468.7483 1169.4295 628.9083 1323.2395 871.5783 1323.2395C1067.3783 1323.2395 1175.2883 1198.2395 1203.1283 1138.1795C1233.3983 1072.2695 1163.0883 1024.4095 1120.1183 1068.3595C1050.7783 1138.6695 964.8483 1147.9495 903.8083 1147.9495C810.0583 1147.9495 709.9583 1074.7095 689.9383 963.8695L857.9083 830.5695L896.4883 879.3895C910.6483 897.4595 904.2983 928.2195 872.0683 928.2195C840.8183 928.2195 821.2883 948.7295 821.2883 976.0695C821.2883 1002.9295 842.7783 1024.8995 870.1183 1024.8995C897.4583 1024.8995 919.4383 1002.9295 919.4383 976.0695C919.4383 972.6595 919.4383 969.7295 918.4583 967.7695C912.1083 929.1995 970.2183 942.3795 948.2383 970.6995C942.3783 979.4895 938.9683 989.2595 938.9683 999.9995C938.9683 1027.3395 960.9383 1049.3195 987.7883 1049.3195C1015.1383 1049.3195 1037.1083 1027.3395 1037.1083 999.9995C1037.1083 978.9995 1023.9283 962.3995 1005.3683 954.0995C975.0983 939.9395 1009.2783 904.7895 1025.8783 927.7295C1034.6683 941.4095 1050.2883 950.1995 1066.8983 950.1995C1094.2383 950.1995 1116.2083 928.2195 1116.2083 901.3695C1116.2083 874.0195 1094.2383 852.0495 1066.8983 852.0495C1057.6183 852.0495 1048.8283 854.9795 1040.5283 859.8595C1018.5583 873.5395 1000.4883 872.0695 982.4183 849.6095L907.7183 753.4195C888.6683 728.9995 857.9083 718.2595 830.5683 733.3995L773.9283 764.1595C785.6483 707.0295 778.3183 658.6895 766.5983 619.6295L821.2883 648.9295C848.6283 663.5695 879.8783 653.3195 898.4383 628.9095L973.6283 532.7195C991.6983 509.7695 1009.7683 508.7895 1031.7383 522.4595C1039.5483 527.3395 1048.3383 530.2695 1058.1083 530.2695C1084.9583 530.2695 1106.9383 508.2995 1106.9383 480.9595C1106.9383 453.6095 1084.9583 432.1295 1058.1083 432.1295C1041.0183 432.1295 1025.8783 440.9195 1016.5983 454.0995C1000.4883 477.5395 966.3083 441.8895 996.0983 428.2195C1014.6483 419.4295 1027.8283 403.3195 1027.8283 381.8395C1027.8283 354.4895 1005.8583 333.0095 979.0083 333.0095C951.6583 333.0095 929.6883 354.4895 929.6883 381.8395C929.6883 392.5795 933.1083 402.8295 939.4483 411.1295C960.9383 439.9395 902.8283 453.1295 909.6683 414.5495C910.1583 412.1095 910.1583 409.1795 910.1583 406.2495C910.1583 378.9095 888.1883 357.4195 860.8383 357.4195C833.9883 357.4195 812.0083 378.9095 812.0083 406.2495C812.0083 433.5895 832.0283 454.0995 862.7883 454.0995C895.5083 454.0995 901.3683 484.8595 887.6983 502.9295L849.1183 551.7595L689.4483 452.6395C677.2483 444.8195 673.3383 440.9195 673.3383 434.0795C673.3383 406.7395 749.9983 406.2495 749.9983 289.0595C749.9983 203.1295 689.4483 -0.0005 558.5983 -0.0005Z"/>
</svg>