<?xml version="1.0" encoding="UTF-8" standalone="no"?>
<svg xmlns="http://www.w3.org/2000/svg"
     width="996.09375" height="996.09375"
     viewBox="0 0 996.09375 996.09375"
     fill="currentColor">
  <path d="M498.0477 996.0977C770.5077 996.0977 996.0977 770.5077 996.0977 498.0477C996.0977 226.0777 770.0177 -0.0023 497.5577 -0.0023C225.5877 -0.0023 -0.0023 226.0777 -0.0023 498.0477C-0.0023 770.5077 226.0777 996.0977 498.0477 996.0977ZM267.0877 715.8177L461.4277 220.7077C475.0977 186.5277 520.5077 185.5477 534.1777 219.7277L728.5177 715.8177C741.6977 748.5377 705.5677 776.8577 674.8077 746.0977L510.7377 582.0277C502.9277 573.7277 493.1677 573.7277 485.3477 582.0277L321.2877 746.0977C290.0377 776.8577 253.9077 748.5377 267.0877 715.8177Z"/>
</svg>