<?xml version="1.0" encoding="UTF-8" standalone="no"?>
<svg xmlns="http://www.w3.org/2000/svg"
     width="937.7279610576753" height="928.7550009896121"
     viewBox="0 0 937.7279610576753 928.7550009896121"
     fill="currentColor">
  <path d="M873.6966 816.1618C888.3466 830.8118 912.7666 830.8118 926.9266 816.1618C941.0866 801.5118 941.5766 777.5918 926.9266 762.9418L174.9666 10.9818C160.3266 -3.6582 135.9066 -3.6582 121.2566 10.9818C107.0966 25.1418 107.0966 50.0518 121.2566 64.2118ZM738.4466 490.4818L917.1566 106.6918C950.3566 34.4218 893.7166 -16.8482 821.9466 16.8418L440.1066 194.0918L498.6966 251.7118L828.2866 100.3418C831.7066 98.8818 833.1766 99.8518 831.7066 103.7618L679.8566 432.3718ZM67.0566 500.7318L423.0166 502.2018C428.8766 502.2018 430.3466 503.6618 430.3466 509.5218L431.3166 862.5518C431.8066 939.7018 523.6066 953.3718 556.3166 882.5718L652.9966 675.0518L595.3766 617.4318L508.4666 804.9318C507.9766 806.8818 506.0266 806.3918 506.0266 804.4418L507.9766 529.5418L401.0466 423.0918L126.6266 424.5618C124.6766 424.5618 124.1866 422.6118 126.6266 421.6318L313.6466 336.1818L256.5166 278.5618L41.6666 378.6618C-25.7134 409.9118 -7.1534 500.2418 67.0566 500.7318Z"/>
</svg>