<?xml version="1.0" encoding="UTF-8" standalone="no"?>
<svg xmlns="http://www.w3.org/2000/svg"
     width="772.94921875" height="1015.625"
     viewBox="0 0 772.94921875 1015.625"
     fill="currentColor">
  <path d="M53.2206 1015.6283C77.1506 1015.6283 93.2606 1006.8383 117.1906 983.3983L379.8806 723.1483C382.3206 720.6983 384.2806 718.7483 386.7206 718.7483C388.6706 718.7483 391.1106 720.6983 393.5506 723.1483L655.7606 983.3983C680.1806 1006.8383 695.8006 1015.6283 719.7306 1015.6283C752.9306 1015.6283 772.9506 990.2383 772.9506 957.0283C772.9506 938.4783 765.6206 916.5083 758.3006 896.4883L453.1206 62.4983C437.5006 19.5283 414.5506 -0.0017 386.7206 -0.0017C358.4006 -0.0017 335.9406 19.5283 320.3106 62.4983L14.6506 896.4883C7.8106 916.5083 0.0006 938.4783 0.0006 957.0283C0.0006 990.2383 20.0206 1015.6283 53.2206 1015.6283Z"/>
</svg>