<?xml version="1.0" encoding="UTF-8" standalone="no"?>
<svg xmlns="http://www.w3.org/2000/svg"
     width="666.9921875" height="1197.265625"
     viewBox="0 0 666.9921875 1197.265625"
     fill="currentColor">
  <path d="M333.5006 297.855C356.9306 297.855 372.5606 281.245 372.5606 255.375V41.995C372.5606 16.115 356.9306 -0.005 333.5006 -0.005C310.0606 -0.005 293.9406 16.115 293.9406 41.995V255.375C293.9406 281.245 310.0606 297.855 333.5006 297.855ZM58.5906 1197.265C81.5406 1197.265 105.4706 1184.085 124.5106 1166.015L320.3106 980.465C325.6806 975.095 329.5906 972.655 333.5006 972.655C337.4006 972.655 341.3106 975.095 346.6806 980.465L542.4806 1166.015C561.5206 1184.085 584.9606 1197.265 608.4006 1197.265C641.6006 1197.265 666.9906 1166.505 666.9906 1133.785C666.9906 1114.255 659.1806 1092.775 648.9306 1065.425L400.8806 425.295C384.2806 382.815 361.3306 364.745 333.5006 364.745C305.6606 364.745 282.7106 382.815 266.1106 425.295L18.0706 1065.425C7.8106 1092.775 0.0006 1114.255 0.0006 1133.785C0.0006 1166.505 24.9006 1197.265 58.5906 1197.265ZM89.8406 1090.825C88.3806 1088.865 87.8906 1086.915 88.8706 1083.495L326.1706 475.095C327.6406 471.195 330.0806 467.775 333.5006 467.775C337.4006 467.775 338.8706 471.675 340.8206 475.095L578.1206 1083.495C579.1006 1086.915 579.1006 1089.355 577.1506 1090.825C576.1706 1091.305 574.2206 1092.775 571.2906 1089.845L371.5806 908.695C357.4206 895.505 345.7006 888.185 333.5006 888.185C321.2906 888.185 309.5706 895.505 295.4106 908.695L95.7006 1089.845C94.2406 1091.305 91.3106 1092.775 89.8406 1090.825Z"/>
</svg>