<?xml version="1.0" encoding="UTF-8" standalone="no"?>
<svg xmlns="http://www.w3.org/2000/svg"
     width="926.8972647807809" height="922.4941427641731"
     viewBox="0 0 926.8972647807809 922.4941427641731"
     fill="currentColor">
  <path d="M41.6666 372.4009C-25.7134 403.6509 -7.1534 493.9809 67.0566 494.4709L423.0166 495.9409C428.8766 495.9409 430.3466 497.4009 430.3466 503.2609L431.3166 856.2909C431.8066 933.4409 523.6066 947.1109 556.3166 876.3109L917.1566 100.4309C950.3566 28.1609 893.7166 -23.1091 821.9466 10.5809ZM126.6266 418.3009C124.6766 418.3009 124.1866 416.3509 126.6266 415.3709L828.2866 94.0809C831.7066 92.6209 833.1766 93.5909 831.7066 97.5009L508.4666 798.6709C507.9766 800.6209 506.0266 800.1309 506.0266 798.1809L508.4666 452.9709C508.4666 431.4809 493.3266 416.3509 471.3566 416.3509Z"/>
</svg>