<?xml version="1.0" encoding="UTF-8" standalone="no"?>
<svg xmlns="http://www.w3.org/2000/svg"
     width="1003.41796875" height="1061.5234375"
     viewBox="0 0 1003.41796875 1061.5234375"
     fill="currentColor">
  <path d="M193.8483 62.9908H810.0583C807.1283 21.4808 783.6883 0.0008 738.2783 0.0008H265.1383C220.2183 0.0008 196.7783 21.4808 193.8483 62.9908ZM93.2583 198.2408H910.6483C903.3183 153.8108 882.3283 129.3908 833.4983 129.3908H170.4083C121.5783 129.3908 100.5883 153.8108 93.2583 198.2408ZM148.4383 1061.5208H854.9783C953.1283 1061.5208 1003.4183 1011.7208 1003.4183 914.5508V423.3408C1003.4183 326.1708 953.1283 276.8508 854.9783 276.8508H148.4383C49.3183 276.8508 -0.0017 326.1708 -0.0017 423.3408V914.5508C-0.0017 1011.7208 49.3183 1061.5208 148.4383 1061.5208ZM320.3083 868.1608V667.9708C320.3083 632.3208 334.9583 614.7508 364.2583 612.7908V553.7108C364.2583 460.9408 419.9183 398.4408 501.9483 398.4408C583.9883 398.4408 639.6483 460.9408 639.6483 553.7108V612.7908C668.9483 614.7508 683.5983 632.3208 683.5983 667.9708V868.1608C683.5983 905.7608 666.9883 923.3408 632.3283 923.3408H371.5783C336.9183 923.3408 320.3083 905.7608 320.3083 868.1608ZM416.9883 612.3008H586.9183V547.8508C586.9183 488.7708 552.7383 449.2208 501.9483 449.2208C451.1683 449.2208 416.9883 488.7708 416.9883 547.8508Z"/>
</svg>