<?xml version="1.0" encoding="UTF-8" standalone="no"?>
<svg xmlns="http://www.w3.org/2000/svg"
     width="1151.3671875" height="898.92578125"
     viewBox="0 0 1151.3671875 898.92578125"
     fill="currentColor">
  <path d="M153.3183 898.9278H998.0483C1100.5883 898.9278 1151.3683 848.6378 1151.3683 748.0478V151.3678C1151.3683 50.7778 1100.5883 -0.0022 998.0483 -0.0022H153.3183C51.2683 -0.0022 -0.0017 50.7778 -0.0017 151.3678V748.0478C-0.0017 848.6378 51.2683 898.9278 153.3183 898.9278ZM154.2983 820.3078C105.4683 820.3078 78.6183 794.4378 78.6183 743.6478V155.7578C78.6183 104.9778 105.4683 78.6178 154.2983 78.6178H997.0683C1045.4083 78.6178 1072.7583 104.9778 1072.7583 155.7578V743.6478C1072.7583 794.4378 1045.4083 820.3078 997.0683 820.3078ZM399.4183 641.5978C399.4183 678.2178 415.5283 695.3078 449.7083 695.3078H702.6383C736.3283 695.3078 752.4383 678.2178 752.4383 641.5978V447.2678C752.4383 413.0878 738.2783 396.4878 709.4683 394.5278V336.4278C709.4683 246.5778 655.7583 186.5278 576.1683 186.5278C496.5783 186.5278 442.8683 246.5778 442.8683 336.4278V394.5278C413.5783 396.4878 399.4183 413.0878 399.4183 447.2678ZM493.6483 394.0478V331.0578C493.6483 273.9278 526.3683 235.8378 576.1683 235.8378C625.4883 235.8378 658.6883 273.9278 658.6883 331.0578V394.0478Z"/>
</svg>