<?xml version="1.0" encoding="UTF-8" standalone="no"?>
<svg xmlns="http://www.w3.org/2000/svg"
     width="666.50390625" height="958.0078125"
     viewBox="0 0 666.50390625 958.0078125"
     fill="currentColor">
  <path d="M109.8612 958.0083H556.6413C628.4213 958.0083 666.5013 918.9483 666.5013 841.7983V505.3683C666.5013 437.4983 637.2112 399.4183 581.0513 391.1083V272.9483C581.0513 89.3583 460.9413 -0.0017 333.0113 -0.0017C205.5713 -0.0017 85.4513 89.3583 85.4513 272.9483V391.1083C29.7813 399.4183 0.0012 437.4983 0.0012 505.3683V841.7983C0.0012 918.9483 38.0813 958.0083 109.8612 958.0083ZM163.0813 262.2083C163.0813 139.1583 241.7013 73.7283 333.0113 73.7283C424.3213 73.7283 503.9113 139.1583 503.9113 262.2083V389.6483H163.0813Z"/>
</svg>