<?xml version="1.0" encoding="UTF-8" standalone="no"?>
<svg xmlns="http://www.w3.org/2000/svg"
     width="1227.5390625" height="848.6328125"
     viewBox="0 0 1227.5390625 848.6328125"
     fill="currentColor">
  <path d="M964.8477 848.6363C1112.3077 848.6363 1227.5377 740.7262 1227.5377 606.4463C1227.5377 503.9063 1168.4577 415.0363 1073.2377 374.9962C1074.2177 157.2263 917.4777 -0.0037 717.7777 -0.0037C585.4477 -0.0037 491.2077 70.7962 432.6177 156.2463C312.4977 121.0963 181.6377 212.4063 179.1977 349.1163C68.8477 366.6963 -0.0023 465.3363 -0.0023 584.4762C-0.0023 728.0263 125.4877 848.6363 292.4777 848.6363ZM451.1677 642.5763V462.4063C451.1677 431.1563 464.3577 415.0363 490.2377 413.5763V360.3563C490.2377 276.8563 540.5277 221.1962 613.7677 221.1962C687.9877 221.1962 737.7977 276.8563 737.7977 360.3563V413.5763C764.1577 415.0363 777.3477 431.1563 777.3477 462.4063V642.5763C777.3477 676.2663 762.2077 691.4063 730.9577 691.4063H497.0677C465.8177 691.4063 451.1677 676.2663 451.1677 642.5763ZM537.5977 413.0863H689.9377V354.9763C689.9377 302.2463 659.6677 266.6063 613.7677 266.6063C568.8477 266.6063 537.5977 302.2463 537.5977 354.9763Z"/>
</svg>