<?xml version="1.0" encoding="UTF-8" standalone="no"?>
<svg xmlns="http://www.w3.org/2000/svg"
     width="898.92578125" height="898.92578125"
     viewBox="0 0 898.92578125 898.92578125"
     fill="currentColor">
  <path d="M153.3183 898.9295H745.6083C848.1483 898.9295 898.9283 848.1495 898.9283 747.5595V151.3695C898.9283 50.7795 848.1483 -0.0005 745.6083 -0.0005H153.3183C51.2683 -0.0005 -0.0017 50.2895 -0.0017 151.3695V747.5595C-0.0017 848.6295 51.2683 898.9295 153.3183 898.9295ZM154.2983 820.3095C105.4683 820.3095 78.6183 794.4295 78.6183 743.6495V155.2695C78.6183 104.4895 105.4683 78.6095 154.2983 78.6095H744.6283C792.9683 78.6095 820.3083 104.4895 820.3083 155.2695V743.6495C820.3083 794.4295 792.9683 820.3095 744.6283 820.3095ZM273.4383 641.1095C273.4383 677.7295 289.5483 694.8195 323.2383 694.8195H576.1683C610.3483 694.8195 626.4683 677.7295 626.4683 641.1095V446.7795C626.4683 412.5995 612.3083 395.9995 583.0083 394.0395V335.9395C583.0083 246.0895 529.2983 186.0395 449.7083 186.0395C370.1183 186.0395 316.4083 246.0895 316.4083 335.9395V394.0395C287.5983 395.9995 273.4383 412.5995 273.4383 446.7795ZM367.1883 393.5595V330.5695C367.1883 273.4395 400.3883 235.3495 449.7083 235.3495C499.0283 235.3495 532.2283 273.4395 532.2283 330.5695V393.5595Z"/>
</svg>