<?xml version="1.0" encoding="UTF-8" standalone="no"?>
<svg xmlns="http://www.w3.org/2000/svg"
     width="815.91796875" height="1100.09765625"
     viewBox="0 0 815.91796875 1100.09765625"
     fill="currentColor">
  <path d="M-0.0017 971.192C-0.0017 1048.342 54.1983 1100.102 135.2583 1100.102H680.6683C761.7183 1100.102 815.9183 1048.342 815.9183 971.192V129.392C815.9183 52.242 761.7183 0.002 680.6683 0.002H135.2583C54.1983 0.002 -0.0017 52.242 -0.0017 129.392ZM78.6183 958.012V142.582C78.6183 102.542 103.0283 78.612 145.0183 78.612H670.8983C712.3983 78.612 737.3083 102.542 737.3083 142.582V958.012C737.3083 998.042 712.3983 1021.482 670.8983 1021.482H145.0183C103.0283 1021.482 78.6183 998.042 78.6183 958.012ZM232.9083 674.312C232.9083 702.152 246.0983 715.822 272.4583 715.822H438.4783C464.8483 715.822 478.0283 702.152 478.0283 674.312V547.362C478.0283 523.442 468.2583 509.762 449.2183 506.352V464.352C449.2183 428.222 468.2583 404.782 501.4683 404.782C534.6683 404.782 554.1983 428.222 554.1983 464.352V499.022C554.1983 512.202 564.9383 523.442 578.6183 523.442C591.3083 523.442 602.5383 512.202 602.5383 499.022V464.352C602.5383 402.832 562.4983 357.912 501.4683 357.912C440.4283 357.912 400.8783 402.832 400.8783 468.752V505.372H272.4583C246.0983 505.372 232.9083 519.532 232.9083 547.362Z"/>
</svg>