<?xml version="1.0" encoding="UTF-8" standalone="no"?>
<svg xmlns="http://www.w3.org/2000/svg"
     width="1214.84375" height="989.2578125"
     viewBox="0 0 1214.84375 989.2578125"
     fill="currentColor">
  <path d="M394.5283 159.668H968.2583V151.368C968.2583 50.778 916.5083 -0.002 814.9383 -0.002H153.3183C50.7783 -0.002 -0.0017 50.778 -0.0017 151.368V611.818C-0.0017 712.888 50.7783 763.188 153.3183 763.188H174.3183V377.438C174.3183 239.748 255.3683 159.668 394.5283 159.668ZM394.5283 989.258H1061.5283C1163.0883 989.258 1214.8483 938.478 1214.8483 837.888V377.438C1214.8483 276.858 1163.0883 226.078 1061.5283 226.078H394.5283C291.9883 226.078 241.2083 276.858 241.2083 377.438V837.888C241.2083 938.968 291.9883 989.258 394.5283 989.258ZM546.3883 807.128V606.938C546.3883 571.288 561.0383 553.708 590.3283 551.758V492.678C590.3283 399.898 646.4883 337.398 728.0283 337.398C810.0583 337.398 865.7183 399.898 865.7183 492.678V551.758C895.5083 553.708 910.1583 571.288 910.1583 606.938V807.128C910.1583 844.728 893.5583 862.308 858.3983 862.308H597.6583C562.9883 862.308 546.3883 844.728 546.3883 807.128ZM643.0683 551.268H812.9883V486.818C812.9883 427.738 779.2983 388.188 728.0283 388.188C677.2483 388.188 643.0683 427.738 643.0683 486.818Z"/>
</svg>