<?xml version="1.0" encoding="UTF-8" standalone="no"?>
<svg xmlns="http://www.w3.org/2000/svg"
     width="1090.6348737699182" height="996.09375"
     viewBox="0 0 1090.6348737699182 996.09375"
     fill="currentColor">
  <path d="M-0.0023 498.0459C-0.0023 770.0159 226.0777 996.0959 498.0477 996.0959C662.5977 996.0959 808.5977 912.5959 900.8777 787.5959C917.4777 766.1159 912.1077 739.2559 892.5777 727.0459C872.0677 714.8459 848.6377 721.1959 833.9877 741.2059C758.7877 844.7259 637.2077 912.5959 498.0477 913.0859C267.5777 913.5759 83.0077 728.5159 83.0077 498.0459C83.0077 267.5759 267.5777 83.4959 498.0477 83.4959C696.2877 83.4959 860.3477 219.2359 902.3477 403.8059H832.0277C797.3677 403.8059 788.5777 427.7359 807.1277 454.5859L916.5077 610.3559C932.1277 632.3259 955.5677 632.8159 971.6777 610.3559L1080.5677 455.0759C1100.0977 427.7359 1090.8177 403.8059 1056.1477 403.8059H986.8177C942.3877 175.2959 738.2777 -0.0041 498.0477 -0.0041C226.0777 -0.0041 -0.0023 225.5859 -0.0023 498.0459ZM376.4677 744.6259H629.3977C663.0877 744.6259 679.1977 727.5359 679.1977 690.9159V497.0659C679.1977 460.4459 663.0877 443.3559 629.3977 443.3559L420.4077 442.8759V380.3759C420.4077 322.7559 453.6177 284.6659 502.9277 284.6659C552.2477 284.6659 585.4477 317.8759 585.4477 367.6759V379.3959C585.4477 395.0159 596.6777 404.2959 611.8177 404.2959C625.9777 404.2959 636.2277 394.5359 636.2277 379.3959V367.6759C636.2277 288.5759 583.0077 235.3559 502.9277 235.3559C423.3377 235.3559 369.6277 295.8959 369.6277 385.7459V443.3559C340.8177 445.3159 326.6577 462.4059 326.6577 496.5859V690.9159C326.6577 727.5359 342.7777 744.6259 376.4677 744.6259Z"/>
</svg>