<?xml version="1.0" encoding="UTF-8" standalone="no"?>
<svg xmlns="http://www.w3.org/2000/svg"
     width="627.44140625" height="1033.69140625"
     viewBox="0 0 627.44140625 1033.69140625"
     fill="currentColor">
  <path d="M-0.0017 906.7389C-0.0017 982.9089 53.2183 1033.6889 132.8083 1033.6889H494.6283C574.2183 1033.6889 627.4383 982.9089 627.4383 906.7389V126.9489C627.4383 50.7789 574.2183 -0.0011 494.6283 -0.0011H132.8083C53.2183 -0.0011 -0.0017 50.7789 -0.0017 126.9489ZM78.6183 894.0389V139.6489C78.6183 100.5889 101.5583 78.6089 143.0683 78.6089H484.8683C525.8783 78.6089 548.8283 100.5889 548.8283 139.6489V894.0389C548.8283 933.1089 525.8783 955.0789 484.8683 955.0789H143.0683C101.5583 955.0789 78.6183 933.1089 78.6183 894.0389ZM138.6683 641.1089C138.6683 668.9489 151.8583 682.6189 178.2183 682.6189H343.7483C370.6083 682.6189 383.7883 668.9489 383.7883 641.1089V514.1589C383.7883 490.2389 374.0283 476.5589 354.4883 473.1489V431.1489C354.4883 395.0189 374.0283 371.5789 407.2283 371.5789C440.4283 371.5789 459.4683 395.0189 459.4683 431.1489V465.8189C459.4683 478.9989 470.6983 490.2389 483.8883 490.2389C497.0683 490.2389 507.8083 478.9989 507.8083 465.8189V431.1489C507.8083 369.6289 468.2583 324.7089 407.2283 324.7089C346.1883 324.7089 306.1483 369.6289 306.1483 435.5489V472.1689H178.2183C151.8583 472.1689 138.6683 486.3289 138.6683 514.1589Z"/>
</svg>