<?xml version="1.0" encoding="UTF-8" standalone="no"?>
<svg xmlns="http://www.w3.org/2000/svg"
     width="708.0078125" height="1045.41015625"
     viewBox="0 0 708.0078125 1045.41015625"
     fill="currentColor">
  <path d="M0.0047 720.21C0.0047 795.9 29.7847 851.56 84.9647 881.84C111.8147 896 127.4447 914.06 137.2047 946.78L152.8347 999.02C162.1047 1030.27 184.0847 1045.41 216.7947 1045.41H442.3847C476.0747 1045.41 496.5847 1030.76 505.8547 999.02L521.9747 946.78C531.7347 914.06 547.3647 896 574.2147 881.84C629.3947 851.56 659.1847 795.9 659.1847 720.21V488.28H666.0147C691.4047 488.28 708.0047 471.19 708.0047 443.36V377.44C708.0047 349.61 691.4047 332.52 666.0147 332.52H659.1847V325.2C659.1847 249.51 629.3947 194.34 574.2147 163.57C547.3647 149.41 531.7347 131.35 521.9747 99.12L505.8547 46.39C497.5547 15.62 475.5847 0 442.3847 0H216.7947C184.0847 0 162.1047 15.14 152.8347 46.39L137.2047 99.12C127.9347 130.86 112.3047 149.9 84.9647 163.57C30.2747 192.87 0.0047 248.54 0.0047 325.2ZM71.2847 709.96V335.94C71.2847 263.18 113.7647 219.24 185.0547 219.24H474.1247C545.4147 219.24 587.8947 263.18 587.8947 335.94V709.96C587.8947 782.23 545.4147 826.17 474.1247 826.17H185.0547C113.7647 826.17 71.2847 782.23 71.2847 709.96ZM248.0447 688.48H414.0647C440.9147 688.48 454.1047 674.32 454.1047 646.48V519.04C454.1047 497.56 445.8047 484.37 429.6847 479V445.8C429.6847 379.88 389.6447 334.96 331.0547 334.96C272.4647 334.96 232.9147 379.88 232.9147 445.8V479.49C216.7947 484.37 208.4947 497.56 208.4947 519.04V646.48C208.4947 674.32 221.6847 688.48 248.0447 688.48ZM281.2547 477.54V441.41C281.2547 405.27 300.7847 381.84 331.0547 381.84C361.3247 381.84 380.8547 405.27 380.8547 441.41V477.54Z"/>
</svg>