<?xml version="1.0" encoding="UTF-8" standalone="no"?>
<svg xmlns="http://www.w3.org/2000/svg"
     width="1164.0625" height="983.88671875"
     viewBox="0 0 1164.0625 983.88671875"
     fill="currentColor">
  <path d="M112.3083 810.5484H427.7383V904.7884H424.8083C403.3183 904.7884 385.2583 922.3584 385.2583 944.3384C385.2583 966.3084 403.3183 983.8884 424.8083 983.8884H739.2583C760.7383 983.8884 778.3183 966.3084 778.3183 944.3384C778.3183 922.3584 760.7383 904.7884 739.2583 904.7884H736.3283V810.5484H1051.2683C1121.5783 810.5484 1164.0583 768.0684 1164.0583 697.7584V112.3084C1164.0583 41.9884 1121.5783 -0.0016 1051.2683 -0.0016H112.3083C42.4783 -0.0016 -0.0017 41.9884 -0.0017 112.3084V697.7584C-0.0017 768.0684 42.4783 810.5484 112.3083 810.5484ZM99.6083 595.2184C84.9583 595.2184 78.6183 589.8484 78.6183 574.2184V113.7684C78.6183 91.7984 92.2883 78.6084 113.7683 78.6084H1050.2883C1071.7783 78.6084 1085.4483 91.7984 1085.4483 113.7684V574.2184C1085.4483 589.8484 1078.6183 595.2184 1063.9683 595.2184ZM499.5083 507.3284H665.0383C691.4083 507.3284 704.5883 493.6484 704.5883 465.8184V338.8684C704.5883 316.8984 696.2883 304.1984 680.6683 298.8284V265.6284C680.6683 199.7084 640.6283 154.7884 582.5183 154.7884C523.9283 154.7884 484.3783 199.7084 484.3783 265.6284V299.3184C468.2583 304.1984 459.9583 316.8984 459.9583 338.8684V465.8184C459.9583 493.6484 473.1483 507.3284 499.5083 507.3284ZM532.7183 296.8784V261.2284C532.7183 225.0984 551.7583 202.1484 582.5183 202.1484C612.3083 202.1484 632.3283 225.0984 632.3283 261.2284V296.8784Z"/>
</svg>