<?xml version="1.0" encoding="UTF-8" standalone="no"?>
<svg xmlns="http://www.w3.org/2000/svg"
     width="821.2890625" height="1046.875"
     viewBox="0 0 821.2890625 1046.875"
     fill="currentColor">
  <path d="M151.3683 1046.8766H669.9183C770.9983 1046.8766 821.2883 995.6066 821.2883 894.0466V450.6866H467.7783C405.2783 450.6866 375.4883 420.8966 375.4883 358.3966V-0.0034H151.3683C50.7783 -0.0034 -0.0017 51.7566 -0.0017 153.3166V894.0466C-0.0017 996.0966 50.2883 1046.8766 151.3683 1046.8766ZM469.2383 383.7866H815.4283C812.4983 363.7666 798.3383 344.2366 774.8983 320.3166L505.8583 46.3866C482.9083 22.9466 462.8883 8.7866 442.3783 5.3666V357.4266C442.3783 374.9966 451.1683 383.7866 469.2383 383.7866ZM261.7183 897.9466V733.3966C261.7183 704.0966 273.4383 689.9366 297.8483 688.4766V639.1566C297.8483 563.4766 343.7483 512.6966 411.1283 512.6966C478.5183 512.6966 524.4183 563.4766 524.4183 639.1566V688.4766C548.8283 689.9366 561.0383 704.0966 561.0383 733.3966V897.9466C561.0383 929.1966 547.3683 943.8466 518.0683 943.8466H304.1983C275.3883 943.8466 261.7183 929.1966 261.7183 897.9466ZM341.3083 687.9866H480.9583V634.7666C480.9583 586.4266 453.1283 554.1966 411.1283 554.1966C369.1383 554.1966 341.3083 586.4266 341.3083 634.7666Z"/>
</svg>