<?xml version="1.0" encoding="UTF-8" standalone="no"?>
<svg xmlns="http://www.w3.org/2000/svg"
     width="1408.203125" height="794.43359375"
     viewBox="0 0 1408.203125 794.43359375"
     fill="currentColor">
  <path d="M-0.0017 738.7734C-0.0017 769.5334 24.8983 794.4334 55.1783 794.4334H1353.0283C1383.2983 794.4334 1408.1983 769.5334 1408.1983 738.7734C1408.1983 708.0034 1383.2983 683.1034 1353.0283 683.1034H1246.0983V103.5134C1246.0983 35.1534 1209.4683 0.0034 1141.5983 0.0034H266.5983C202.1483 0.0034 162.1083 35.1534 162.1083 103.5134V683.1034H55.1783C24.8983 683.1034 -0.0017 708.0034 -0.0017 738.7734ZM240.7183 683.1034V125.4834C240.7183 94.2334 256.3483 78.6134 287.5983 78.6134H1120.6083C1151.8583 78.6134 1167.4783 94.2334 1167.4783 125.4834V683.1034ZM529.2983 509.7634C529.2983 537.5934 542.4783 551.2734 568.8483 551.2734H734.3783C760.7383 551.2734 773.9283 537.5934 773.9283 509.7634V382.8134C773.9283 358.8834 764.6483 345.2134 745.1183 341.7934V299.8034C745.1183 263.6734 764.6483 240.2334 797.8483 240.2334C831.0583 240.2334 850.0983 263.6734 850.0983 299.8034V334.4734C850.0983 347.6534 861.3283 358.8834 874.5083 358.8834C887.6983 358.8834 898.4383 347.6534 898.4383 334.4734V299.8034C898.4383 238.2834 858.8883 193.3634 797.8483 193.3634C736.3283 193.3634 696.7783 238.2834 696.7783 304.2034V340.8234H568.8483C542.4783 340.8234 529.2983 354.9834 529.2983 382.8134Z"/>
</svg>