<?xml version="1.0" encoding="UTF-8" standalone="no"?>
<svg xmlns="http://www.w3.org/2000/svg"
     width="1164.0625" height="983.88671875"
     viewBox="0 0 1164.0625 983.88671875"
     fill="currentColor">
  <path d="M112.3083 810.5484H427.7383V904.7884H424.8083C403.3183 904.7884 385.2583 922.3584 385.2583 944.3384C385.2583 966.3084 403.3183 983.8884 424.8083 983.8884H739.2583C760.7383 983.8884 778.3183 966.3084 778.3183 944.3384C778.3183 922.3584 760.7383 904.7884 739.2583 904.7884H736.3283V810.5484H1051.2683C1121.5783 810.5484 1164.0583 768.0684 1164.0583 697.7584V112.3084C1164.0583 41.9884 1121.5783 -0.0016 1051.2683 -0.0016H112.3083C42.4783 -0.0016 -0.0017 41.9884 -0.0017 112.3084V697.7584C-0.0017 768.0684 42.4783 810.5484 112.3083 810.5484ZM113.7683 731.9384C92.2883 731.9384 78.6183 718.2584 78.6183 696.7784V113.7684C78.6183 91.7984 92.2883 78.6084 113.7683 78.6084H1050.2883C1071.7783 78.6084 1085.4483 91.7984 1085.4483 113.7684V696.7784C1085.4483 718.2584 1071.7783 731.9384 1050.2883 731.9384ZM499.5083 570.7984H665.0383C691.4083 570.7984 704.5883 556.6384 704.5883 528.8084V401.8584C704.5883 380.3684 696.2883 367.6784 680.6683 361.8184V329.0984C680.6683 263.1884 640.6283 218.2584 582.5183 218.2584C523.9283 218.2584 484.3783 263.1884 484.3783 329.0984V362.7884C468.2583 367.6784 459.9583 380.3684 459.9583 401.8584V528.8084C459.9583 556.6384 473.1483 570.7984 499.5083 570.7984ZM532.7183 360.3484V324.7084C532.7183 288.0884 551.7583 265.1384 582.5183 265.1384C612.3083 265.1384 632.3283 288.0884 632.3283 324.7084V360.3484Z"/>
</svg>