<?xml version="1.0" encoding="UTF-8" standalone="no"?>
<svg xmlns="http://www.w3.org/2000/svg"
     width="856.4453125" height="1133.30078125"
     viewBox="0 0 856.4453125 1133.30078125"
     fill="currentColor">
  <path d="M191.4083 62.987H665.0383C662.1083 21.487 638.1883 -0.003 593.2583 -0.003H262.6983C217.7783 -0.003 194.3383 21.487 191.4083 62.987ZM106.4483 198.247H749.5083C742.1883 153.807 721.1883 129.397 672.3683 129.397H183.5983C134.7683 129.397 113.7683 153.807 106.4483 198.247ZM153.3183 1133.297H717.7783C805.1783 1133.297 856.4483 1082.517 856.4483 981.937V428.227C856.4483 327.637 804.6883 276.857 703.1283 276.857H153.3183C51.2683 276.857 -0.0017 327.147 -0.0017 428.227V981.937C-0.0017 1082.517 51.2683 1133.297 153.3183 1133.297ZM246.5783 906.737V706.547C246.5783 670.897 261.2283 653.317 290.5283 651.367V592.287C290.5283 499.507 346.6783 437.497 428.2183 437.497C510.2583 437.497 565.9183 499.507 565.9183 592.287V651.367C595.6983 653.317 610.3483 670.897 610.3483 706.547V906.737C610.3483 944.337 593.7483 961.917 558.5983 961.917H297.8483C263.1883 961.917 246.5783 944.337 246.5783 906.737ZM343.2583 650.877H513.1883V586.427C513.1883 527.827 479.4883 488.277 428.2183 488.277C377.4383 488.277 343.2583 527.827 343.2583 586.427Z"/>
</svg>