<?xml version="1.0" encoding="UTF-8" standalone="no"?>
<svg xmlns="http://www.w3.org/2000/svg"
     width="1090.6348737699182" height="996.09375"
     viewBox="0 0 1090.6348737699182 996.09375"
     fill="currentColor">
  <path d="M-0.0023 498.0459C-0.0023 770.0159 226.0777 996.0959 498.0477 996.0959C662.5977 996.0959 808.5977 912.5959 900.8777 787.5959C917.4777 766.1159 912.1077 739.2559 892.5777 727.0459C872.0677 714.8459 848.6377 721.1959 833.9877 741.2059C758.7877 844.7259 637.2077 912.5959 498.0477 913.0859C267.5777 913.5759 83.0077 728.5159 83.0077 498.0459C83.0077 267.5759 267.5777 83.4959 498.0477 83.4959C696.2877 83.4959 860.3477 219.2359 902.3477 403.8059H832.0277C797.3677 403.8059 788.5777 427.7359 807.1277 454.5859L916.5077 610.3559C932.1277 632.3259 955.5677 632.8159 971.6777 610.3559L1080.5677 455.0759C1100.0977 427.7359 1090.8177 403.8059 1056.1477 403.8059H986.8177C942.3877 175.2959 738.2777 -0.0041 498.0477 -0.0041C226.0777 -0.0041 -0.0023 225.5859 -0.0023 498.0459ZM321.2877 690.9159C321.2877 727.5359 337.3977 744.6259 371.0977 744.6259H624.0277C657.7177 744.6259 673.8277 727.5359 673.8277 690.9159V496.5859C673.8277 462.4059 659.6677 445.3159 630.8577 443.3559V385.7459C630.8577 295.8959 577.1477 235.3559 497.5577 235.3559C417.9677 235.3559 364.2577 295.8959 364.2577 385.7459V443.3559C335.4477 445.3159 321.2877 462.4059 321.2877 496.5859ZM415.0377 442.8759V380.3759C415.0377 322.7559 448.2377 284.6659 497.5577 284.6659C546.8777 284.6659 580.0777 322.7559 580.0777 380.3759V442.8759Z"/>
</svg>