<?xml version="1.0" encoding="UTF-8" standalone="no"?>
<svg xmlns="http://www.w3.org/2000/svg"
     width="904.4147792616841" height="914.0625"
     viewBox="0 0 904.4147792616841 914.0625"
     fill="currentColor">
  <path d="M12.684 614.7438C-49.336 791.9938 119.124 914.0638 452.134 914.0638C785.144 914.0638 954.084 791.9938 891.584 614.7438L782.214 300.7838V135.7437C782.214 59.0838 650.374 0.0037 452.134 0.0037C254.374 0.0037 123.034 59.0838 123.034 135.7437V298.8238ZM201.644 135.7437C201.644 104.0037 302.234 73.7337 452.134 73.7337C603.014 73.7337 703.594 104.0037 703.594 135.7437C703.594 166.9937 603.014 197.7537 452.134 197.7537C302.234 197.7537 201.644 166.9937 201.644 135.7437ZM87.384 639.1637L172.834 397.4638C224.594 440.4338 323.224 467.2838 452.134 467.2838C579.084 467.2838 679.184 440.4338 731.914 397.9538L816.874 639.1637C857.404 754.8838 719.714 834.9638 452.134 834.9638C184.554 834.9638 46.864 754.8838 87.384 639.1637Z"/>
</svg>