<?xml version="1.0" encoding="UTF-8" standalone="no"?>
<svg xmlns="http://www.w3.org/2000/svg"
     width="1180.6640625" height="898.92578125"
     viewBox="0 0 1180.6640625 898.92578125"
     fill="currentColor">
  <path d="M419.9177 -0.0005C128.9077 -0.0005 -0.0023 133.2995 -0.0023 406.7395V747.5595C-0.0023 848.6295 51.2677 898.9295 153.3177 898.9295H1027.3477C1129.3977 898.9295 1180.6677 848.1495 1180.6677 747.5595V406.7395C1180.6677 133.2995 1051.7577 -0.0005 761.2277 -0.0005ZM322.7577 676.2695C296.3877 676.2695 282.7177 657.7195 282.7177 630.8595V257.3195C282.7177 229.9795 296.3877 211.4295 322.7577 211.4295C349.1177 211.4295 363.2777 228.5195 363.2777 257.3195V610.3495H554.6877C573.7277 610.3495 588.3777 622.0695 588.3777 643.0695C588.3777 663.5695 574.2177 676.2695 554.6877 676.2695ZM762.6977 682.1295C736.8177 682.1295 723.1477 663.5695 723.1477 636.2295V283.1995H598.6377C579.5877 283.1995 565.4277 270.5095 565.4277 250.4895C565.4277 228.9995 579.5877 217.2895 598.6377 217.2895H928.7077C948.2377 217.2895 962.3977 228.9995 962.3977 250.4895C962.3977 270.5095 948.2377 283.1995 928.7077 283.1995H803.7077V636.2295C803.7077 665.0395 789.5477 682.1295 762.6977 682.1295Z"/>
</svg>