<?xml version="1.0" encoding="UTF-8" standalone="no"?>
<svg xmlns="http://www.w3.org/2000/svg"
     width="898.92578125" height="898.92578125"
     viewBox="0 0 898.92578125 898.92578125"
     fill="currentColor">
  <path d="M153.3183 898.9295H745.6083C848.1483 898.9295 898.9283 848.1495 898.9283 747.5595V151.3695C898.9283 50.7795 848.1483 -0.0005 745.6083 -0.0005H153.3183C51.2683 -0.0005 -0.0017 50.2895 -0.0017 151.3695V747.5595C-0.0017 848.6295 51.2683 898.9295 153.3183 898.9295ZM154.2983 820.3095C105.4683 820.3095 78.6183 794.4295 78.6183 743.6495V155.2695C78.6183 104.4895 105.4683 78.6095 154.2983 78.6095H744.6283C792.9683 78.6095 820.3083 104.4895 820.3083 155.2695V743.6495C820.3083 794.4295 792.9683 820.3095 744.6283 820.3095ZM259.7683 675.2895C282.2283 675.2895 295.8983 660.6395 295.8983 635.2495V353.5195H299.8083L412.1083 634.7695C419.4383 652.3395 431.1483 660.6395 449.2183 660.6395C467.2883 660.6395 479.4883 652.3395 486.3283 634.7695L599.6083 353.5195H603.5183V635.2495C603.5183 660.1595 616.6983 675.2895 638.1883 675.2895C661.1283 675.2895 674.3183 660.6395 674.3183 635.2495V261.2295C674.3183 234.3795 655.2783 215.8195 628.4183 215.8195C604.9783 215.8195 589.3583 226.5595 580.5683 247.5595L451.1683 572.2695H448.7283L318.3583 247.5595C310.0583 226.5595 294.4383 215.8195 270.9983 215.8195C243.6483 215.8195 225.0983 234.3795 225.0983 261.2295V635.2495C225.0983 660.1595 238.2783 675.2895 259.7683 675.2895Z"/>
</svg>