<?xml version="1.0" encoding="UTF-8" standalone="no"?>
<svg xmlns="http://www.w3.org/2000/svg"
     width="898.92578125" height="898.92578125"
     viewBox="0 0 898.92578125 898.92578125"
     fill="currentColor">
  <path d="M153.3183 898.9295H745.6083C848.1483 898.9295 898.9283 848.1495 898.9283 747.5595V151.3695C898.9283 50.7795 848.1483 -0.0005 745.6083 -0.0005H153.3183C51.2683 -0.0005 -0.0017 50.2895 -0.0017 151.3695V747.5595C-0.0017 848.6295 51.2683 898.9295 153.3183 898.9295ZM253.9083 682.6195C231.4483 682.6195 217.7783 666.9895 217.7783 641.1095V255.3695C217.7783 227.5395 236.8183 208.4995 265.1383 208.4995C289.5483 208.4995 305.6683 219.7295 314.4483 241.2095L448.7283 575.6795H451.1683L584.4683 241.2095C593.7483 219.7295 609.8683 208.4995 634.2783 208.4995C662.1083 208.4995 681.6383 227.5395 681.6383 255.3695V641.1095C681.6383 667.4795 667.9683 682.6195 644.0383 682.6195C622.0683 682.6195 608.3983 666.9895 608.3983 641.1095V351.5595H604.0083L487.7883 640.6295C480.4683 658.6895 467.7783 666.9895 449.2183 666.9895C430.6683 666.9895 418.4583 658.6895 410.6483 640.6295L295.4083 351.5595H291.0183V641.1095C291.0183 667.4795 276.8583 682.6195 253.9083 682.6195Z"/>
</svg>