<?xml version="1.0" encoding="UTF-8" standalone="no"?>
<svg xmlns="http://www.w3.org/2000/svg"
     width="1359.86328125" height="800.78125"
     viewBox="0 0 1359.86328125 800.78125"
     fill="currentColor">
  <path d="M55.1783 794.4347H913.0883C899.4183 772.4647 891.5983 746.5847 890.6283 716.3047C890.6283 705.0747 890.1383 694.3347 890.1383 683.1047H240.7183V125.4847C240.7183 94.2347 256.3483 78.6147 287.5983 78.6147H1241.2083C1237.7883 26.8547 1206.0583 0.0047 1151.8583 0.0047H266.5983C202.1483 0.0047 162.1083 35.1547 162.1083 103.5147V683.1047H55.1783C24.8983 683.1047 -0.0017 708.0047 -0.0017 738.7647C-0.0017 769.5347 24.8983 794.4347 55.1783 794.4347ZM1041.9883 800.7847H1264.6483C1325.1983 800.7847 1359.8683 767.5747 1359.8683 709.4747V223.1447C1359.8683 165.0347 1324.7083 131.3447 1264.6483 131.3447H1041.9883C981.4483 131.3447 946.7783 165.0347 946.7783 223.1447V709.4747C946.7783 767.5747 981.4483 800.7847 1041.9883 800.7847ZM1042.9683 736.8147C1021.4883 736.8147 1010.7383 725.0947 1010.7383 703.1247V229.4947C1010.7383 207.0347 1021.4883 195.3147 1042.9683 195.3147H1263.1883C1284.6683 195.3147 1295.8983 207.0347 1295.8983 229.4947V703.1247C1295.8983 725.0947 1284.6683 736.8147 1263.1883 736.8147ZM1114.2583 266.6047H1190.9183C1203.6183 266.6047 1213.3783 256.3447 1213.3783 243.6547C1213.3783 231.4447 1203.6183 221.6747 1190.9183 221.6747H1114.2583C1101.0783 221.6747 1091.7983 231.4447 1091.7983 243.6547C1091.7983 256.3447 1101.0783 266.6047 1114.2583 266.6047ZM1086.4283 711.9147H1219.2383C1229.0083 711.9147 1236.3283 705.0747 1236.3283 694.8247C1236.3283 685.5447 1229.0083 678.2247 1219.2383 678.2247H1086.4283C1076.6583 678.2247 1070.3083 685.5447 1070.3083 694.8247C1070.3083 705.5647 1076.1683 711.9147 1086.4283 711.9147Z"/>
</svg>