<?xml version="1.0" encoding="UTF-8" standalone="no"?>
<svg xmlns="http://www.w3.org/2000/svg"
     width="1472.65625" height="817.3828125"
     viewBox="0 0 1472.65625 817.3828125"
     fill="currentColor">
  <path d="M55.1783 794.4347H635.2583C623.5383 769.5347 617.1883 745.6047 616.6983 683.1047H240.7183V125.4847C240.7183 94.2347 256.3483 78.6147 287.5983 78.6147H1120.6083C1151.8583 78.6147 1167.4783 94.2347 1167.4783 122.0747V128.4147H1246.0983V103.5147C1246.0983 35.1547 1206.0583 0.0047 1141.5983 0.0047H266.5983C202.1483 0.0047 162.1083 35.1547 162.1083 103.5147V683.1047H55.1783C24.8983 683.1047 -0.0017 708.0047 -0.0017 738.7647C-0.0017 769.5347 24.8983 794.4347 55.1783 794.4347ZM792.9683 817.3847H1362.3083C1435.0583 817.3847 1472.6583 779.7847 1472.6583 708.0047V305.1747C1472.6583 232.9147 1435.0583 195.3147 1362.3083 195.3147H792.9683C720.6983 195.3147 683.1083 232.4247 683.1083 305.1747V708.0047C683.1083 779.7847 720.6983 817.3847 792.9683 817.3847ZM793.9483 748.5347C765.1383 748.5347 751.9483 736.8147 751.9483 706.0547V306.1547C751.9483 276.3647 765.1383 263.6747 793.9483 263.6747H1361.8183C1389.6483 263.6747 1403.8083 276.3647 1403.8083 306.1547V706.0547C1403.8083 736.8147 1389.6483 748.5347 1361.8183 748.5347ZM952.1483 705.5647H1204.0983C1217.2883 705.5647 1226.5583 696.7747 1226.5583 683.1047C1226.5583 669.4347 1217.2883 660.1547 1204.0983 660.1547H952.1483C938.4783 660.1547 929.1983 669.4347 929.1983 683.1047C929.1983 696.7747 938.4783 705.5647 952.1483 705.5647Z"/>
</svg>