<?xml version="1.0" encoding="UTF-8" standalone="no"?>
<svg xmlns="http://www.w3.org/2000/svg"
     width="1008.7890625" height="1153.3203125"
     viewBox="0 0 1008.7890625 1153.3203125"
     fill="currentColor">
  <path d="M98.6283 1153.3209H169.4383C208.9883 1153.3209 234.8683 1134.7609 245.6083 1098.1409L266.1183 1028.8109H742.6783L763.1883 1098.1409C773.9283 1134.7609 800.2883 1153.3209 839.8483 1153.3209H910.6483C974.1183 1153.3209 1008.7883 1116.7009 1008.7883 1049.8009V103.5109C1008.7883 36.6209 974.1183 0.0009 910.6483 0.0009H839.8483C800.2883 0.0009 773.9283 18.5509 763.1883 55.1709L742.6783 124.5109H266.1183L245.6083 55.1709C234.8683 18.5509 208.9883 0.0009 169.4383 0.0009H98.6283C35.1583 0.0009 -0.0017 36.6209 -0.0017 103.5109V1049.8009C-0.0017 1116.7009 35.1583 1153.3209 98.6283 1153.3209ZM103.5183 1074.7109C87.8883 1074.7109 78.6183 1064.9409 78.6183 1049.3209V104.0009C78.6183 88.3809 87.8883 78.6109 103.5183 78.6109H157.2283C166.0183 78.6109 173.8283 83.9809 176.7583 93.2609L199.7083 171.8709C206.0583 192.8709 218.2583 203.1209 244.1383 203.1209H765.1383C790.5283 203.1209 802.7383 192.8709 809.0783 171.8709L832.0283 93.2609C834.9583 83.9809 842.7783 78.6109 851.5583 78.6109H905.2783C920.8983 78.6109 930.1783 88.3809 930.1783 104.0009V1049.3209C930.1783 1064.9409 920.8983 1074.7109 905.2783 1074.7109H851.5583C842.7783 1074.7109 834.9583 1069.3409 832.0283 1060.0609L809.0783 980.9609C802.7383 960.4509 790.5283 950.1909 765.1383 950.1909H244.1383C218.2583 950.1909 206.0583 960.4509 199.7083 980.9609L176.7583 1060.0609C173.8283 1069.3409 166.0183 1074.7109 157.2283 1074.7109ZM509.7683 458.9809C526.3683 458.9809 547.3683 447.7509 559.5683 432.6209C570.7983 418.9409 578.6183 399.9009 578.6183 381.3509C578.6183 378.4209 578.6183 375.9809 578.1283 374.0209C559.5683 374.5109 537.5983 386.2309 523.9283 401.3709C513.1883 413.5709 504.3983 432.6209 504.3983 451.6609C504.3983 454.5909 504.3983 457.5209 504.8783 458.0109C505.8583 458.9809 507.3283 458.9809 509.7683 458.9809ZM451.1683 740.7209C473.6283 740.7209 484.3783 726.0709 511.7183 726.0709C540.5283 726.0709 547.3683 740.7209 572.2683 740.7209C597.1683 740.7209 613.7683 716.8009 629.3983 695.3109C647.4583 669.9209 653.8083 644.5309 654.2983 642.5809C652.8283 642.0909 605.4683 623.5309 605.4683 568.8509C605.4683 521.9709 642.5783 500.4909 645.0183 499.0209C619.6283 463.3809 583.0083 462.4009 572.2683 462.4009C544.4383 462.4009 521.9683 479.0009 507.3283 479.0009C492.1883 479.0009 472.6583 463.3809 448.2383 463.3809C402.3483 463.3809 356.4483 500.9809 356.4483 572.7509C356.4483 617.1909 373.5383 663.5709 394.5283 693.8509C412.5983 719.2409 428.2183 740.7209 451.1683 740.7209Z"/>
</svg>