<?xml version="1.0" encoding="UTF-8" standalone="no"?>
<svg xmlns="http://www.w3.org/2000/svg"
     width="1008.7890625" height="1227.05078125"
     viewBox="0 0 1008.7890625 1227.05078125"
     fill="currentColor">
  <path d="M153.3183 1082.0323H183.5983V1152.8323H131.3483C111.3283 1152.8323 94.7283 1169.4323 94.7283 1189.9423C94.7283 1210.4523 111.3283 1227.0523 131.3483 1227.0523H309.5683C330.0783 1227.0523 346.1883 1210.4523 346.1883 1189.9423C346.1883 1169.4323 330.0783 1152.8323 309.5683 1152.8323H257.3283V1082.0323H751.4683V1152.8323H699.2183C679.1983 1152.8323 662.5983 1169.4323 662.5983 1189.9423C662.5983 1210.4523 679.1983 1227.0523 699.2183 1227.0523H877.4383C897.9483 1227.0523 914.0583 1210.4523 914.0583 1189.9423C914.0583 1169.4323 897.9483 1152.8323 877.4383 1152.8323H825.1983V1082.0323H855.4683C957.5183 1082.0323 1008.7883 1031.2523 1008.7883 931.1523V290.0423C1008.7883 188.9623 957.5183 138.6723 855.4683 138.6723H825.1983V36.6223C825.1983 16.6023 809.0783 0.0023 788.5783 0.0023C767.5783 0.0023 751.4683 16.6023 751.4683 36.6223V138.6723H257.3283V36.6223C257.3283 16.6023 241.2083 0.0023 220.6983 0.0023C200.1983 0.0023 183.5983 16.6023 183.5983 36.6223V138.6723H153.3183C50.7783 138.6723 -0.0017 188.9623 -0.0017 290.0423V931.1523C-0.0017 1031.7423 50.7783 1082.0323 153.3183 1082.0323ZM154.2983 1003.4223C105.4683 1003.4223 78.6183 977.5423 78.6183 926.7623V293.9423C78.6183 243.1623 105.4683 217.2823 154.2983 217.2823H854.4883C903.3183 217.2823 930.1783 243.1623 930.1783 293.9423V926.7623C930.1783 977.5423 902.8283 1003.4223 854.4883 1003.4223ZM509.7683 493.1623C525.8783 493.1623 547.3683 481.4423 559.0783 466.3123C570.7983 452.6323 578.6183 434.0823 578.6183 415.0423C578.6183 412.1123 578.6183 409.6723 577.6383 407.7123C559.0783 408.6923 537.5983 419.9223 523.4383 435.0623C512.6983 447.2623 504.3983 466.3123 504.3983 485.3523C504.3983 488.2823 504.3983 491.2123 504.8783 491.7023C505.8583 492.6723 507.3283 493.1623 509.7683 493.1623ZM451.1683 774.4123C473.6283 774.4123 484.3783 759.7623 511.7183 759.7623C540.5283 759.7623 547.3683 774.4123 571.7783 774.4123C597.1683 774.4123 613.7683 750.9723 629.3983 729.0023C647.4583 703.6123 653.3183 678.2223 654.2983 676.7623C652.8283 675.7823 604.9783 657.2223 604.9783 603.0223C604.9783 555.6623 642.5783 534.1823 645.0183 532.7123C619.6283 497.0723 582.5183 496.0923 571.7783 496.0923C543.9483 496.0923 521.9683 513.1823 507.3283 513.1823C492.1883 513.1823 472.1683 497.0723 448.2383 497.0723C402.3483 497.0723 356.4483 534.6723 356.4483 606.4423C356.4483 650.8823 373.0483 697.7523 394.5283 728.0223C412.5983 752.9323 428.2183 774.4123 451.1683 774.4123Z"/>
</svg>