<?xml version="1.0" encoding="UTF-8" standalone="no"?>
<svg xmlns="http://www.w3.org/2000/svg"
     width="1242.1875" height="758.30078125"
     viewBox="0 0 1242.1875 758.30078125"
     fill="currentColor">
  <path d="M153.3183 758.3036H1088.8683C1190.9183 758.3036 1242.1883 707.5236 1242.1883 606.9336V151.3636C1242.1883 50.7836 1190.9183 0.0036 1088.8683 0.0036H153.3183C50.7783 0.0036 -0.0017 50.7836 -0.0017 151.3636V606.9336C-0.0017 707.5236 50.7783 758.3036 153.3183 758.3036ZM154.2983 679.6836C105.4683 679.6836 78.6183 653.3236 78.6183 602.5436V155.7636C78.6183 104.9836 105.4683 78.6136 154.2983 78.6136H1087.8883C1136.7183 78.6136 1163.5783 104.9836 1163.5783 155.7636V602.5436C1163.5783 653.3236 1136.2283 679.6836 1087.8883 679.6836ZM205.5683 597.1636C226.5583 597.1636 243.1683 580.0736 243.1683 558.5936V197.7536C243.1683 177.2436 226.5583 160.1536 205.5683 160.1536C184.0783 160.1536 167.4783 177.2436 167.4783 197.7536V558.5936C167.4783 580.0736 184.0783 597.1636 205.5683 597.1636ZM1035.1583 597.1636C1056.1483 597.1636 1073.2383 580.0736 1073.2383 558.5936V197.7536C1073.2383 177.2436 1056.1483 160.1536 1035.1583 160.1536C1014.1583 160.1536 997.0683 177.2436 997.0683 197.7536V558.5936C997.0683 580.0736 1014.1583 597.1636 1035.1583 597.1636ZM358.3983 269.0436C380.3683 269.0436 397.9483 250.9736 397.9483 229.4936C397.9483 207.5236 380.3683 189.4536 358.3983 189.4536C336.9183 189.4536 318.3583 207.5236 318.3583 229.4936C318.3583 250.9736 336.9183 269.0436 358.3983 269.0436ZM489.7483 269.0436C511.2283 269.0436 529.2983 250.9736 529.2983 229.4936C529.2983 207.5236 511.2283 189.4536 489.7483 189.4536C467.7783 189.4536 449.7083 207.5236 449.7083 229.4936C449.7083 250.9736 467.7783 269.0436 489.7483 269.0436ZM621.0983 269.0436C642.5783 269.0436 660.6483 250.9736 660.6483 229.4936C660.6483 207.5236 642.5783 189.4536 621.0983 189.4536C599.1183 189.4536 581.0583 207.5236 581.0583 229.4936C581.0583 250.9736 599.1183 269.0436 621.0983 269.0436ZM751.9483 269.0436C772.9483 269.0436 791.0183 250.9736 791.0183 229.4936C791.0183 207.5236 772.9483 189.4536 751.9483 189.4536C729.9783 189.4536 712.3983 207.5236 712.3983 229.4936C712.3983 250.9736 729.9783 269.0436 751.9483 269.0436ZM882.3283 269.0436C903.8083 269.0436 921.8783 250.9736 921.8783 229.4936C921.8783 207.5236 903.8083 189.4536 882.3283 189.4536C860.3483 189.4536 842.7783 207.5236 842.7783 229.4936C842.7783 250.9736 860.3483 269.0436 882.3283 269.0436ZM423.8283 418.4536C445.7983 418.4536 463.3783 400.3936 463.3783 378.4136C463.3783 356.4436 445.7983 338.3836 423.8283 338.3836C402.3483 338.3836 384.2783 356.4436 384.2783 378.4136C384.2783 400.3936 402.3483 418.4536 423.8283 418.4536ZM555.1783 418.4536C577.1483 418.4536 594.7283 400.3936 594.7283 378.4136C594.7283 356.4436 577.1483 338.3836 555.1783 338.3836C533.1983 338.3836 515.1383 356.4436 515.1383 378.4136C515.1383 400.3936 533.1983 418.4536 555.1783 418.4536ZM686.0383 418.4536C707.5183 418.4536 725.5883 400.3936 725.5883 378.4136C725.5883 356.4436 707.5183 338.3836 686.0383 338.3836C664.5483 338.3836 646.4883 356.4436 646.4883 378.4136C646.4883 400.3936 664.5483 418.4536 686.0383 418.4536ZM816.8983 418.4536C837.8883 418.4536 855.9583 400.3936 855.9583 378.4136C855.9583 356.4436 837.8883 338.3836 816.8983 338.3836C794.9183 338.3836 777.3483 356.4436 777.3483 378.4136C777.3483 400.3936 794.9183 418.4536 816.8983 418.4536ZM358.3983 567.8736C380.3683 567.8736 397.9483 549.8036 397.9483 527.8336C397.9483 506.3436 380.3683 487.7936 358.3983 487.7936C336.9183 487.7936 318.3583 506.3436 318.3583 527.8336C318.3583 549.8036 336.9183 567.8736 358.3983 567.8736ZM489.7483 567.8736C511.2283 567.8736 529.2983 549.8036 529.2983 527.8336C529.2983 506.3436 511.2283 487.7936 489.7483 487.7936C467.7783 487.7936 449.7083 506.3436 449.7083 527.8336C449.7083 549.8036 467.7783 567.8736 489.7483 567.8736ZM621.0983 567.8736C642.5783 567.8736 660.6483 549.8036 660.6483 527.8336C660.6483 506.3436 642.5783 487.7936 621.0983 487.7936C599.1183 487.7936 581.0583 506.3436 581.0583 527.8336C581.0583 549.8036 599.1183 567.8736 621.0983 567.8736ZM751.9483 567.8736C772.9483 567.8736 791.0183 549.8036 791.0183 527.8336C791.0183 506.3436 772.9483 487.7936 751.9483 487.7936C729.9783 487.7936 712.3983 506.3436 712.3983 527.8336C712.3983 549.8036 729.9783 567.8736 751.9483 567.8736ZM882.3283 567.8736C903.8083 567.8736 921.8783 549.8036 921.8783 527.8336C921.8783 506.3436 903.8083 487.7936 882.3283 487.7936C860.3483 487.7936 842.7783 506.3436 842.7783 527.8336C842.7783 549.8036 860.3483 567.8736 882.3283 567.8736Z"/>
</svg>