<?xml version="1.0" encoding="UTF-8" standalone="no"?>
<svg xmlns="http://www.w3.org/2000/svg"
     width="1151.3671875" height="898.92578125"
     viewBox="0 0 1151.3671875 898.92578125"
     fill="currentColor">
  <path d="M-0.0017 747.5595C-0.0017 848.6295 51.2683 898.9295 153.3183 898.9295H998.0483C1100.5883 898.9295 1151.3683 848.1495 1151.3683 747.5595V151.3695C1151.3683 50.7795 1100.5883 -0.0005 998.0483 -0.0005H153.3183C51.2683 -0.0005 -0.0017 50.2895 -0.0017 151.3695ZM154.7883 166.4995C130.8583 166.4995 111.3283 145.9995 111.3283 123.0495C111.3283 100.0995 130.8583 79.5895 154.7883 79.5895C178.7083 79.5895 198.7283 100.0995 198.7283 123.0495C198.7283 145.9995 178.7083 166.4995 154.7883 166.4995ZM294.9183 166.4995C270.9983 166.4995 251.4683 145.9995 251.4683 123.0495C251.4683 100.0995 270.9983 79.5895 294.9183 79.5895C318.8483 79.5895 338.8683 100.0995 338.8683 123.0495C338.8683 145.9995 318.8483 166.4995 294.9183 166.4995ZM435.0583 166.4995C411.1283 166.4995 391.5983 145.9995 391.5983 123.0495C391.5983 100.0995 411.1283 79.5895 435.0583 79.5895C458.9883 79.5895 478.5183 100.0995 478.5183 123.0495C478.5183 145.9995 458.9883 166.4995 435.0583 166.4995ZM78.6183 743.6495V246.0895H1072.7583V743.6495C1072.7583 794.4295 1045.4083 820.3095 997.0683 820.3095H154.2983C105.4683 820.3095 78.6183 794.4295 78.6183 743.6495Z"/>
</svg>