<?xml version="1.0" encoding="UTF-8" standalone="no"?>
<svg xmlns="http://www.w3.org/2000/svg"
     width="1214.84375" height="989.2578125"
     viewBox="0 0 1214.84375 989.2578125"
     fill="currentColor">
  <path d="M153.3183 763.188H241.2083V837.888C241.2083 938.968 291.9883 989.258 394.5283 989.258H1061.5283C1163.0883 989.258 1214.8483 938.478 1214.8483 837.888V377.438C1214.8483 276.858 1163.0883 226.078 1061.5283 226.078H968.2583V151.368C968.2583 50.778 916.5083 -0.002 814.9383 -0.002H153.3183C50.7783 -0.002 -0.0017 50.778 -0.0017 151.368V611.818C-0.0017 712.888 50.7783 763.188 153.3183 763.188ZM154.2983 684.568C105.4683 684.568 78.6183 658.688 78.6183 607.908V155.758C78.6183 104.978 105.4683 78.618 154.2983 78.618H813.4783C861.8183 78.618 889.6483 104.978 889.6483 155.758V226.078H394.5283C291.9883 226.078 241.2083 276.858 241.2083 377.438V684.568ZM395.9983 393.068C372.0683 393.068 352.5383 372.068 352.5383 349.608C352.5383 326.168 372.0683 305.668 395.9983 305.668C419.9183 305.668 439.4483 326.168 439.4483 349.608C439.4483 372.068 419.9183 393.068 395.9983 393.068ZM536.1283 393.068C512.2083 393.068 492.6783 372.558 492.6783 349.608C492.6783 326.168 512.2083 305.668 536.1283 305.668C560.0583 305.668 579.5883 326.168 579.5883 349.608C579.5883 372.558 560.0583 393.068 536.1283 393.068ZM676.2683 393.068C652.3483 393.068 632.8083 372.558 632.8083 349.608C632.8083 326.168 652.3483 305.668 676.2683 305.668C700.1983 305.668 719.7283 326.168 719.7283 349.608C719.7283 372.558 700.1983 393.068 676.2683 393.068ZM319.8283 472.658H1136.2283V833.988C1136.2283 884.768 1108.3983 910.648 1060.0583 910.648H395.5083C346.6783 910.648 319.8283 884.768 319.8283 833.988Z"/>
</svg>