<?xml version="1.0" encoding="UTF-8" standalone="no"?>
<svg xmlns="http://www.w3.org/2000/svg"
     width="854.98046875" height="1144.53125"
     viewBox="0 0 854.98046875 1144.53125"
     fill="currentColor">
  <path d="M-0.0017 1005.8547C-0.0017 1043.9447 8.2983 1066.8947 44.4383 1084.4747C127.9283 1120.6047 243.1683 1144.5347 381.3483 1144.5347C518.0683 1144.5347 671.8783 1124.0247 782.2283 1070.3147C840.8183 1042.4847 854.9783 1016.6047 854.9783 956.0547V206.5447C854.9783 127.4447 819.8283 91.3047 743.6483 91.3047H697.7583V71.7747C697.7583 23.4347 673.3383 0.0047 630.3683 0.0047C615.7183 0.0047 598.1483 3.4147 577.1483 10.2547C429.6883 58.5947 294.9183 89.3547 122.0683 89.3547H83.0083C30.2783 89.3547 -0.0017 120.1147 -0.0017 167.9647ZM198.2383 1061.0347C390.1383 1055.6647 568.3583 1001.9547 665.0383 928.2247C687.4983 911.1347 697.7583 893.5547 697.7583 850.5847V169.9247H744.1383C765.6283 169.9247 776.3683 181.6447 776.3683 206.5447V950.6847C776.3683 979.9847 771.9683 990.7247 744.1383 1002.9347C646.9683 1045.4147 510.2583 1072.7547 381.3483 1072.7547C319.8283 1072.7547 261.7183 1069.3347 198.2383 1061.0347ZM173.3383 459.4747V294.4347C173.3383 287.5947 178.2183 281.7347 185.0583 281.2547C298.8283 276.8547 400.3883 256.8347 504.3983 218.7547C510.2583 216.3047 520.5083 218.7547 520.5083 230.4647V402.8347C520.5083 407.2247 518.0683 411.6247 513.6683 413.0847C422.8483 450.1947 303.2183 471.1947 185.0583 471.1947C178.7083 471.1947 173.3383 467.2847 173.3383 459.4747Z"/>
</svg>