<?xml version="1.0" encoding="UTF-8" standalone="no"?>
<svg xmlns="http://www.w3.org/2000/svg"
     width="854.98046875" height="1144.53125"
     viewBox="0 0 854.98046875 1144.53125"
     fill="currentColor">
  <path d="M782.2283 1070.3147C840.8183 1042.4847 854.9783 1016.6047 854.9783 956.0547V206.5447C854.9783 127.4447 819.8283 91.3047 743.6483 91.3047H697.7583V71.7747C697.7583 23.4347 673.3383 0.0047 630.3683 0.0047C615.7183 0.0047 598.1483 3.4147 577.1483 10.2547C429.6883 58.5947 294.9183 89.3547 122.0683 89.3547H83.0083C30.2783 89.3547 -0.0017 120.1147 -0.0017 167.9647V1005.8547C-0.0017 1043.9447 8.2983 1066.8947 44.4383 1084.4747C127.9283 1120.6047 252.9283 1144.5347 381.3483 1144.5347C518.0683 1144.5347 671.8783 1124.0247 782.2283 1070.3147ZM78.6183 969.2347V188.9647C78.6183 175.2947 85.9383 166.9947 98.6283 166.9947H125.4883C296.3883 166.9947 456.0583 132.8147 592.2883 89.8447C608.8883 84.4747 619.1383 88.8647 619.1383 104.0047V833.4947C619.1383 859.8647 615.7183 870.6047 590.8183 886.7147C489.2583 954.5947 324.7083 996.5847 95.6983 986.8147C83.4983 986.3247 78.6183 980.9547 78.6183 969.2347ZM652.8283 937.5047C687.4983 911.1347 697.7583 893.5547 697.7583 850.5847V169.9247H744.1383C765.6283 169.9247 776.3683 181.6447 776.3683 206.5447V950.6847C776.3683 979.9847 771.9683 990.7247 744.1383 1002.9347C646.9683 1045.4147 510.2583 1072.7547 381.3483 1072.7547C319.8283 1072.7547 260.2583 1069.3347 199.7083 1061.5247C391.1183 1056.6447 568.8483 1001.4647 652.8283 937.5047ZM178.2183 295.8947V456.0547C178.2183 463.8647 183.5983 467.2847 189.9383 467.2847C304.6883 467.2847 420.8983 446.7747 508.7883 411.6247C513.1883 409.6647 515.6283 405.2747 515.6283 400.8747V233.8847C515.6283 222.6547 505.3683 220.2147 499.9983 222.6547C398.9283 259.2747 300.2883 278.8047 189.9383 283.2047C183.1083 283.6947 178.2183 289.0647 178.2183 295.8947Z"/>
</svg>