<?xml version="1.0" encoding="UTF-8" standalone="no"?>
<svg xmlns="http://www.w3.org/2000/svg"
     width="600.7189931642577" height="1104.00390625"
     viewBox="0 0 600.7189931642577 1104.00390625"
     fill="currentColor">
  <path d="M300.3548 1104.0052C470.2848 1104.0052 571.8448 1021.9752 587.4648 855.4652C605.5348 656.7352 605.0448 455.0752 586.4948 239.2552C572.3348 82.5152 470.2848 -0.0048 300.3548 -0.0048C130.4348 -0.0048 28.3848 82.5152 14.2248 239.2552C-4.3252 455.0752 -4.8152 656.7352 13.2548 855.4652C28.8748 1021.9752 130.4348 1104.0052 300.3548 1104.0052ZM300.3548 1025.3952C176.3348 1025.3952 102.6048 972.6552 91.8648 855.4652C74.2848 656.2452 74.7748 454.5852 92.8448 239.2552C102.1148 131.3452 176.3348 78.6152 300.3548 78.6152C424.3848 78.6152 498.6048 131.3452 507.8748 239.2552C525.9448 454.5852 526.4348 656.2452 508.8548 855.4652C498.1148 972.6552 424.3848 1025.3952 300.3548 1025.3952ZM333.5648 723.1452C315.0048 723.1452 296.4548 741.6952 296.4548 766.6052C318.4248 768.0652 337.4648 743.6552 333.5648 723.1452ZM300.3548 902.8352C315.4948 902.8352 318.4248 910.1552 330.6348 910.1552C343.8148 910.1552 352.1148 898.4352 359.9348 887.2052C369.2048 874.0252 372.6248 861.3252 372.6248 860.8352C372.1348 860.3552 347.7248 850.5852 347.7248 822.7552C347.7248 798.3352 366.7648 788.0852 368.2348 786.6252C356.0248 769.0452 336.4948 769.0452 330.6348 769.0452C316.9648 769.0452 305.7348 776.8552 298.4048 776.8552C290.1048 776.8552 279.8548 769.0452 267.6448 769.0452C244.6948 769.0452 220.7648 788.5752 220.7648 824.7052C220.7648 848.1452 229.5548 871.0952 240.3048 886.2352C249.5748 899.9052 257.8748 910.1552 269.5948 910.1552C281.3148 910.1552 286.1948 902.8352 300.3548 902.8352Z"/>
</svg>