<?xml version="1.0" encoding="UTF-8" standalone="no"?>
<svg xmlns="http://www.w3.org/2000/svg"
     width="996.09375" height="996.09375"
     viewBox="0 0 996.09375 996.09375"
     fill="currentColor">
  <path d="M498.0477 996.0959C770.5077 996.0959 996.0977 770.0159 996.0977 498.0459C996.0977 225.5859 770.0177 -0.0041 497.5577 -0.0041C225.5877 -0.0041 -0.0023 225.5859 -0.0023 498.0459C-0.0023 770.0159 226.0777 996.0959 498.0477 996.0959ZM443.8477 649.9059C328.6177 649.9059 234.3777 555.1759 234.3777 440.4259C234.3777 325.1959 328.6177 230.4659 443.8477 230.4659C559.0777 230.4659 653.3177 324.7059 653.3177 440.4259C653.3177 483.3959 639.6477 523.9259 617.1877 556.6359L746.5777 687.0159C754.8877 695.7959 760.2577 706.5459 760.2577 717.7759C760.2577 743.1659 743.6477 761.2259 719.2377 761.2259C704.5877 761.2259 693.8477 756.3459 683.5977 745.6059L554.6877 617.1859C522.4577 637.2059 484.3777 649.9059 443.8477 649.9059ZM443.8477 581.0559C520.5077 581.0559 583.9877 517.0859 583.9877 440.4259C583.9877 362.7959 520.5077 299.3159 443.8477 299.3159C366.6977 299.3159 303.2277 363.2859 303.2277 440.4259C303.2277 517.0859 366.6977 581.0559 443.8477 581.0559Z"/>
</svg>