<?xml version="1.0" encoding="UTF-8" standalone="no"?>
<svg xmlns="http://www.w3.org/2000/svg"
     width="693.359375" height="1001.953125"
     viewBox="0 0 693.359375 1001.953125"
     fill="currentColor">
  <path d="M135.7383 1001.9556H557.6183C639.1583 1001.9556 693.3583 950.1956 693.3583 873.5356V128.4156C693.3583 51.2656 639.1583 -0.0044 557.6183 -0.0044H135.7383C54.1983 -0.0044 -0.0017 51.2656 -0.0017 128.4156V873.5356C-0.0017 950.1956 54.1983 1001.9556 135.7383 1001.9556ZM347.1683 595.2156C203.1283 595.2156 86.4283 478.0256 86.4283 334.4756C86.4283 190.9156 203.1283 74.2156 347.1683 74.2156C490.2383 74.2156 607.4183 190.9156 607.4183 334.4756C607.4183 478.0256 490.2383 595.2156 347.1683 595.2156ZM347.1683 533.6956C456.5383 533.6956 545.8983 444.3356 545.8983 334.4756C545.8983 224.6056 456.5383 135.7456 347.1683 135.7456C236.8183 135.7456 147.9483 224.6056 147.9483 334.4756C147.9483 444.3356 236.8183 533.6956 347.1683 533.6956ZM347.1683 833.0056C329.5883 833.0056 314.9383 818.8456 314.9383 801.2656V707.5156C314.9383 689.9456 329.5883 675.7856 347.1683 675.7856C364.7483 675.7856 378.9083 689.9456 378.9083 707.5156V801.2656C378.9083 818.8456 364.7483 833.0056 347.1683 833.0056Z"/>
</svg>