<?xml version="1.0" encoding="UTF-8" standalone="no"?>
<svg xmlns="http://www.w3.org/2000/svg"
     width="1022.94921875" height="1081.0546875"
     viewBox="0 0 1022.94921875 1081.0546875"
     fill="currentColor">
  <path d="M203.6183 62.9847H819.8283C816.8983 21.4847 793.4583 0.0047 748.0483 0.0047H274.8983C229.9783 0.0047 206.5383 21.4847 203.6183 62.9847ZM103.0283 198.2447H920.4083C913.0883 153.8047 892.0883 129.3947 843.2583 129.3947H180.1783C131.3483 129.3947 110.3483 153.8047 103.0283 198.2447ZM153.3183 1081.0547H869.6283C971.1883 1081.0547 1022.9483 1030.2747 1022.9483 929.6847V428.2247C1022.9483 327.6347 971.1883 276.8547 869.6283 276.8547H153.3183C50.7783 276.8547 -0.0017 327.6347 -0.0017 428.2247V929.6847C-0.0017 1030.2747 50.7783 1081.0547 153.3183 1081.0547ZM154.2983 1002.4447C105.4683 1002.4447 78.6183 976.0747 78.6183 925.2947V432.6147C78.6183 381.8347 105.4683 355.4647 154.2983 355.4647H868.1683C916.5083 355.4647 944.3383 381.8347 944.3383 432.6147V925.2947C944.3383 976.0747 916.5083 1002.4447 868.1683 1002.4447ZM736.8183 681.6447C799.8083 681.6447 851.0783 630.3747 851.0783 566.4047C851.0783 502.4447 799.8083 451.1747 736.8183 451.1747C672.8483 451.1747 621.0983 502.4447 621.0983 566.4047C621.0983 630.3747 672.8483 681.6447 736.8183 681.6447ZM204.5883 540.5247H514.6483C533.1983 540.5247 547.8483 525.3947 547.8483 506.8347C547.8483 488.2847 533.1983 473.1447 514.6483 473.1447H204.5883C185.0583 473.1447 170.8983 488.2847 170.8983 506.8347C170.8983 525.3947 185.0583 540.5247 204.5883 540.5247ZM204.5883 668.4547H425.7783C444.3383 668.4547 459.4683 653.8047 459.4683 635.2547C459.4683 616.2147 444.3383 601.5647 425.7783 601.5647H204.5883C185.0583 601.5647 170.8983 616.2147 170.8983 635.2547C170.8983 653.8047 185.0583 668.4547 204.5883 668.4547Z"/>
</svg>