<?xml version="1.0" encoding="UTF-8" standalone="no"?>
<svg xmlns="http://www.w3.org/2000/svg"
     width="1151.3671875" height="898.92578125"
     viewBox="0 0 1151.3671875 898.92578125"
     fill="currentColor">
  <path d="M153.3183 898.9278H998.0483C1100.5883 898.9278 1151.3683 848.6378 1151.3683 748.0478V151.3678C1151.3683 50.7778 1100.5883 -0.0022 998.0483 -0.0022H153.3183C51.2683 -0.0022 -0.0017 50.7778 -0.0017 151.3678V748.0478C-0.0017 848.6378 51.2683 898.9278 153.3183 898.9278ZM836.4283 439.4578C771.9683 439.4578 719.2383 387.2078 719.2383 322.2678C719.2383 257.3278 771.9683 205.0778 836.4283 205.0778C900.8783 205.0778 953.1283 257.3278 953.1283 322.2678C953.1283 387.2078 900.8783 439.4578 836.4283 439.4578ZM231.9383 295.8978C212.3983 295.8978 198.2383 280.2778 198.2383 261.2278C198.2383 242.1878 212.3983 227.5378 231.9383 227.5378H546.8783C565.9183 227.5378 581.0583 242.1878 581.0583 261.2278C581.0583 280.2778 565.9183 295.8978 546.8783 295.8978ZM231.9383 426.2678C212.3983 426.2678 198.2383 411.1278 198.2383 392.0878C198.2383 373.0478 212.3983 357.9078 231.9383 357.9078H462.3983C481.4483 357.9078 496.5783 373.0478 496.5783 392.0878C496.5783 411.1278 481.4483 426.2678 462.3983 426.2678Z"/>
</svg>