<?xml version="1.0" encoding="UTF-8" standalone="no"?>
<svg xmlns="http://www.w3.org/2000/svg"
     width="996.09375" height="996.09375"
     viewBox="0 0 996.09375 996.09375"
     fill="currentColor">
  <path d="M498.0477 996.0959C770.5077 996.0959 996.0977 770.0159 996.0977 498.0459C996.0977 225.5859 770.0177 -0.0041 497.5577 -0.0041C225.5877 -0.0041 -0.0023 225.5859 -0.0023 498.0459C-0.0023 770.0159 226.0777 996.0959 498.0477 996.0959ZM498.0477 913.0859C267.5777 913.0859 83.4977 728.5159 83.4977 498.0459C83.4977 267.5759 267.0877 83.0059 497.5577 83.0059C728.0277 83.0059 913.0877 267.5759 913.0877 498.0459C913.0877 728.5159 728.5177 913.0859 498.0477 913.0859ZM355.4677 723.6359C374.5077 723.6359 387.2077 711.4259 387.2077 690.9159V535.6459C387.2077 444.8259 418.4577 393.0659 470.7077 379.8859V696.7759C470.7077 712.8859 481.9377 723.6359 497.5577 723.6359C511.2277 723.6359 523.9277 712.8859 523.9277 696.7759V379.3959C576.6577 391.6059 609.3777 443.3559 609.3777 535.6459V690.9159C609.3777 711.4259 622.0677 723.6359 640.6277 723.6359C659.1777 723.6359 672.3677 711.4259 672.3677 690.9159V531.7359C672.3677 402.8359 613.2777 330.0759 523.9277 318.8459V268.5559C523.9277 251.4659 511.2277 242.1859 497.5577 242.1859C481.9377 242.1859 470.7077 251.4659 470.7077 268.5559V319.3359C381.3477 330.5659 323.2377 403.3159 323.2377 531.7359V690.9159C323.2377 711.4259 336.9177 723.6359 355.4677 723.6359Z"/>
</svg>