<?xml version="1.0" encoding="UTF-8" standalone="no"?>
<svg xmlns="http://www.w3.org/2000/svg"
     width="659.1796875" height="921.38671875"
     viewBox="0 0 659.1796875 921.38671875"
     fill="currentColor">
  <path d="M46.3883 921.3828C74.7083 921.3828 93.2583 902.8328 93.2583 873.0428V564.9428C93.2583 362.3028 170.4083 254.8828 292.4783 237.3028V884.7628C292.4783 905.2728 309.0783 921.3828 329.5883 921.3828C350.0983 921.3828 366.2083 905.2728 366.2083 884.7628V237.3028C488.2783 254.8828 565.9183 362.3028 565.9183 564.9428V873.0428C565.9183 902.8328 584.4683 921.3828 612.3083 921.3828C640.1383 921.3828 659.1783 902.8328 659.1783 873.0428V557.6128C659.1783 306.6428 543.9483 166.9928 366.2083 150.3928V36.6228C366.2083 16.1128 350.0983 0.0028 329.5883 0.0028C309.0783 0.0028 292.4783 16.1128 292.4783 36.6228V150.3928C115.2383 166.9928 -0.0017 306.6428 -0.0017 557.6128V873.0428C-0.0017 902.8328 18.5583 921.3828 46.3883 921.3828Z"/>
</svg>