<?xml version="1.0" encoding="UTF-8" standalone="no"?>
<svg xmlns="http://www.w3.org/2000/svg"
     width="898.92578125" height="898.92578125"
     viewBox="0 0 898.92578125 898.92578125"
     fill="currentColor">
  <path d="M153.3183 898.9295H745.6083C848.1483 898.9295 898.9283 848.1495 898.9283 747.5595V151.3695C898.9283 50.7795 848.1483 -0.0005 745.6083 -0.0005H153.3183C51.2683 -0.0005 -0.0017 50.2895 -0.0017 151.3695V747.5595C-0.0017 848.6295 51.2683 898.9295 153.3183 898.9295ZM303.2183 681.6395C283.6883 681.6395 269.5283 668.9495 269.5283 647.9495V483.3995C269.5283 351.0695 329.5883 275.8795 421.8783 264.1595V211.9095C421.8783 194.3395 433.5983 184.5695 449.7083 184.5695C463.8683 184.5695 477.0483 194.3395 477.0483 211.9095V263.6695C569.3383 275.3895 630.3683 350.5895 630.3683 483.3995V647.9495C630.3683 668.9495 617.1883 681.6395 597.1683 681.6395C578.1283 681.6395 564.9383 668.9495 564.9383 647.9495V487.7895C564.9383 392.5795 531.2483 338.8695 477.0483 326.6595V653.8095C477.0483 670.4095 463.8683 681.6395 449.7083 681.6395C433.5983 681.6395 421.8783 670.4095 421.8783 653.8095V327.1495C368.6483 340.8195 335.9383 394.0395 335.9383 487.7895V647.9495C335.9383 668.9495 322.7583 681.6395 303.2183 681.6395Z"/>
</svg>