<?xml version="1.0" encoding="UTF-8" standalone="no"?>
<svg xmlns="http://www.w3.org/2000/svg"
     width="1015.625" height="963.37890625"
     viewBox="0 0 1015.625 963.37890625"
     fill="currentColor">
  <path d="M55.1783 944.3344C67.3783 944.3344 80.0783 939.9444 95.6983 931.1544L344.2383 797.3644L614.2583 948.7344C631.8383 958.4944 650.8783 963.3744 668.9483 963.3744C686.0383 963.3744 703.1283 958.9844 717.7783 950.6844L973.1483 805.6644C1002.4383 789.5544 1015.6283 766.1144 1015.6283 733.3944V75.6844C1015.6283 39.5544 995.6083 19.5344 960.4483 19.5344C948.2383 19.5344 935.5483 23.4344 919.4383 32.2244L660.6483 176.2744L395.5083 13.6744C380.3683 4.8844 363.2783 0.0044 346.1883 0.0044C328.6183 0.0044 311.0383 4.8844 295.8983 13.6744L41.9883 158.2044C13.1883 174.8044 -0.0017 198.2444 -0.0017 230.9544V887.6944C-0.0017 923.8244 20.0183 944.3344 55.1783 944.3344ZM312.4983 719.7244L92.2883 840.8244C89.8483 841.7944 87.3983 843.2644 84.9583 843.2644C81.0583 843.2644 78.6183 840.3344 78.6183 835.4444V250.0044C78.6183 238.2844 83.0083 229.9844 94.7283 223.1444L294.9183 105.9544C301.2683 102.5344 306.6383 99.6044 312.4983 96.1944ZM391.1183 727.5344V106.4444C395.9983 109.3744 401.8583 112.3044 406.7383 115.2344L624.5083 248.0444V858.3944C617.6783 854.4944 610.3483 851.0744 603.0283 847.1644ZM703.1283 867.1844V243.1644L923.3383 123.0444C925.7783 121.5844 928.2183 120.6044 930.1783 120.6044C934.5683 120.6044 937.0083 123.5344 937.0083 128.4144V713.8644C937.0083 726.0744 932.1283 734.3744 920.8983 741.2144L725.0983 854.9844C717.7783 859.3744 710.4483 863.7744 703.1283 867.1844Z"/>
</svg>