<?xml version="1.0" encoding="UTF-8" standalone="no"?>
<svg xmlns="http://www.w3.org/2000/svg"
     width="996.09375" height="996.09375"
     viewBox="0 0 996.09375 996.09375"
     fill="currentColor">
  <path d="M498.0477 996.0959C770.5077 996.0959 996.0977 770.0159 996.0977 498.0459C996.0977 225.5859 770.0177 -0.0041 497.5577 -0.0041C225.5877 -0.0041 -0.0023 225.5859 -0.0023 498.0459C-0.0023 770.0159 226.0777 996.0959 498.0477 996.0959ZM498.0477 913.0859C267.5777 913.0859 83.4977 728.5159 83.4977 498.0459C83.4977 267.5759 267.0877 83.0059 497.5577 83.0059C728.0277 83.0059 913.0877 267.5759 913.0877 498.0459C913.0877 728.5159 728.5177 913.0859 498.0477 913.0859ZM424.3177 668.9459L552.7377 741.2059C556.6377 743.6559 561.0377 745.1159 564.4577 746.0959V330.5659L438.9677 253.9059C434.0777 250.9759 429.6877 249.0259 424.3177 248.0459ZM232.4177 708.9859C232.4177 728.0259 242.6777 738.7659 261.2277 738.7659C268.0677 738.7659 274.4177 736.3259 282.7177 731.9359L389.6477 673.8259V252.4459C385.2577 254.3959 380.3677 256.8359 374.9977 259.7659L254.3977 328.6159C238.2777 337.8859 232.4177 348.6359 232.4177 366.6959ZM599.1177 745.1159C601.5577 744.6259 604.0077 743.6559 606.9377 742.1859L739.2577 666.9959C755.3677 657.7159 761.7177 646.9759 761.7177 629.3959V285.6459C761.7177 267.0859 750.9777 256.8359 732.9077 256.8359C726.0777 256.8359 719.7277 259.2759 711.4277 263.6759L599.1177 325.6859Z"/>
</svg>