<?xml version="1.0" encoding="UTF-8" standalone="no"?>
<svg xmlns="http://www.w3.org/2000/svg"
     width="996.09375" height="996.09375"
     viewBox="0 0 996.09375 996.09375"
     fill="currentColor">
  <path d="M498.0477 996.0959C770.5077 996.0959 996.0977 770.0159 996.0977 498.0459C996.0977 225.5859 770.0177 -0.0041 497.5577 -0.0041C225.5877 -0.0041 -0.0023 225.5859 -0.0023 498.0459C-0.0023 770.0159 226.0777 996.0959 498.0477 996.0959ZM421.8777 674.8059V240.2359C427.7377 241.2059 432.1277 243.1659 437.0077 246.0959L566.4077 325.1959V753.9059C562.9877 752.9259 558.5977 751.4659 554.1977 749.5159ZM224.1177 715.8159V362.7959C224.1177 345.2159 230.9577 332.5159 246.5777 323.7259L371.0977 252.4459C376.4677 249.9959 381.8377 247.0659 386.2277 244.6259V679.6859L275.8777 739.2559C267.5777 743.6559 260.7377 746.5859 253.9077 746.5859C234.8677 746.5859 224.1177 735.3559 224.1177 715.8159ZM602.5377 753.4159V320.3159L718.2577 256.3459C726.5577 251.4659 733.3977 249.5159 740.2377 249.5159C758.7877 249.5159 770.0177 259.7659 770.0177 279.7859V633.2959C770.0177 650.3859 762.6977 663.0859 747.0677 672.3659L610.3477 749.9959C607.4177 751.4659 604.9777 752.4459 602.5377 753.4159Z"/>
</svg>