<?xml version="1.0" encoding="UTF-8" standalone="no"?>
<svg xmlns="http://www.w3.org/2000/svg"
     width="898.92578125" height="898.92578125"
     viewBox="0 0 898.92578125 898.92578125"
     fill="currentColor">
  <path d="M153.3183 898.9295H745.6083C848.1483 898.9295 898.9283 848.1495 898.9283 747.5595V151.3695C898.9283 50.7795 848.1483 -0.0005 745.6083 -0.0005H153.3183C51.2683 -0.0005 -0.0017 50.2895 -0.0017 151.3695V747.5595C-0.0017 848.6295 51.2683 898.9295 153.3183 898.9295ZM154.2983 820.3095C105.4683 820.3095 78.6183 794.4295 78.6183 743.6495V155.2695C78.6183 104.4895 105.4683 78.6095 154.2983 78.6095H744.6283C792.9683 78.6095 820.3083 104.4895 820.3083 155.2695V743.6495C820.3083 794.4295 792.9683 820.3095 744.6283 820.3095ZM338.3783 266.1095C338.3783 315.4295 371.0983 357.4195 416.0183 371.5795V617.1895C416.0183 688.4795 427.7383 751.9495 449.7083 751.9495C472.1683 751.9495 482.9083 689.4495 482.9083 617.1895V371.5795C528.8083 357.9095 561.0383 315.9195 561.0383 266.1095C561.0383 204.5895 511.2283 154.7895 449.7083 154.7895C388.6683 154.7895 338.3783 204.5895 338.3783 266.1095ZM385.7383 237.3095C385.2583 218.2595 402.3483 201.6595 420.8983 201.6595C440.4283 201.6595 457.0283 218.2595 456.5383 237.3095C456.5383 256.3495 440.4283 272.9495 420.8983 272.9495C402.3483 272.9495 385.7383 256.3495 385.7383 237.3095Z"/>
</svg>