<?xml version="1.0" encoding="UTF-8" standalone="no"?>
<svg xmlns="http://www.w3.org/2000/svg"
     width="996.09375" height="996.09375"
     viewBox="0 0 996.09375 996.09375"
     fill="currentColor">
  <path d="M498.0477 996.0959C770.5077 996.0959 996.0977 770.0159 996.0977 498.0459C996.0977 225.5859 770.0177 -0.0041 497.5577 -0.0041C225.5877 -0.0041 -0.0023 225.5859 -0.0023 498.0459C-0.0023 770.0159 226.0777 996.0959 498.0477 996.0959ZM498.0477 913.0859C267.5777 913.0859 83.4977 728.5159 83.4977 498.0459C83.4977 267.5759 267.0877 83.0059 497.5577 83.0059C728.0277 83.0059 913.0877 267.5759 913.0877 498.0459C913.0877 728.5159 728.5177 913.0859 498.0477 913.0859ZM531.2477 423.3359C576.6577 409.1759 609.3777 366.6959 609.3777 316.4059C609.3777 254.3959 559.0777 204.1059 497.0677 204.1059C446.7777 204.1059 404.2977 237.3059 390.6277 282.7159ZM725.5877 756.8359C733.8877 765.1359 748.0477 765.1359 756.8377 756.8359C765.6277 748.0459 765.6277 734.3759 756.8377 725.5859L270.0177 238.7659C261.2277 229.9759 247.5577 229.9759 238.2777 238.7659C229.9777 247.5559 229.9777 261.7159 238.2777 270.0159ZM433.1077 286.6259C433.1077 267.5759 449.7077 250.9759 468.7477 250.9759C488.2777 250.9759 504.3977 267.5759 503.9077 286.6259C503.9077 305.6659 488.2777 322.2659 468.7477 322.2659C449.7077 322.2659 433.1077 305.6659 433.1077 286.6259ZM463.3777 547.8559V666.5059C463.3777 737.7959 475.0977 801.2659 497.0677 801.2659C519.5277 801.2659 530.7577 738.7659 530.7577 666.5059V614.7459Z"/>
</svg>