<?xml version="1.0" encoding="UTF-8" standalone="no"?>
<svg xmlns="http://www.w3.org/2000/svg"
     width="996.09375" height="996.09375"
     viewBox="0 0 996.09375 996.09375"
     fill="currentColor">
  <path d="M498.0477 996.0959C770.5077 996.0959 996.0977 770.0159 996.0977 498.0459C996.0977 225.5859 770.0177 -0.0041 497.5577 -0.0041C225.5877 -0.0041 -0.0023 225.5859 -0.0023 498.0459C-0.0023 770.0159 226.0777 996.0959 498.0477 996.0959ZM498.0477 913.0859C267.5777 913.0859 83.4977 728.5159 83.4977 498.0459C83.4977 267.5759 267.0877 83.0059 497.5577 83.0059C728.0277 83.0059 913.0877 267.5759 913.0877 498.0459C913.0877 728.5159 728.5177 913.0859 498.0477 913.0859ZM386.2277 315.4259C386.2277 364.7459 418.9477 406.7359 463.8677 420.8959V666.5059C463.8677 737.7959 475.5877 801.2659 497.5577 801.2659C520.0177 801.2659 530.7577 738.7659 530.7577 666.5059V420.8959C576.1677 407.2259 608.8877 365.2359 608.8877 315.4259C608.8877 253.9059 559.0777 204.1059 497.5577 204.1059C436.5277 204.1059 386.2277 253.9059 386.2277 315.4259ZM433.5977 286.6259C433.1077 267.5759 450.1977 250.9759 468.7477 250.9759C488.2777 250.9759 504.3977 267.5759 504.3977 286.6259C504.3977 305.6659 488.2777 322.2659 468.7477 322.2659C450.1977 322.2659 433.5977 305.6659 433.5977 286.6259Z"/>
</svg>