<?xml version="1.0" encoding="UTF-8" standalone="no"?>
<svg xmlns="http://www.w3.org/2000/svg"
     width="996.09375" height="996.09375"
     viewBox="0 0 996.09375 996.09375"
     fill="currentColor">
  <path d="M498.0477 996.0977C770.5077 996.0977 996.0977 770.5077 996.0977 498.0477C996.0977 226.0777 770.0177 -0.0023 497.5577 -0.0023C225.5877 -0.0023 -0.0023 226.0777 -0.0023 498.0477C-0.0023 770.5077 226.0777 996.0977 498.0477 996.0977ZM382.8077 309.5677C382.8077 246.0977 435.0577 194.8277 498.0477 194.8277C561.5277 194.8277 613.2777 246.0977 613.2777 309.5677C613.2777 361.8177 579.0977 404.7877 532.7177 418.4577V670.8977C532.7177 746.0977 521.4877 811.0377 498.0477 811.0377C475.0977 811.0377 462.8877 744.6277 462.8877 670.8977V418.4577C416.9877 404.2977 382.8077 361.3277 382.8077 309.5677ZM432.1277 280.2777C432.1277 299.8077 449.2177 316.8977 468.2577 316.8977C488.2777 316.8977 504.8877 299.8077 504.8877 280.2777C504.8877 260.2577 488.2777 243.1677 468.2577 243.1677C449.2177 243.1677 431.6377 260.2577 432.1277 280.2777Z"/>
</svg>