<?xml version="1.0" encoding="UTF-8" standalone="no"?>
<svg xmlns="http://www.w3.org/2000/svg"
     width="756.2873968529725" height="1037.59765625"
     viewBox="0 0 756.2873968529725 1037.59765625"
     fill="currentColor">
  <path d="M212.7709 184.0819C212.7709 270.0219 270.8709 341.7919 350.4609 361.8119V421.3819L441.2809 512.2119V361.8119C520.8709 342.2819 579.4709 270.0219 579.4709 184.0819C579.4709 83.0119 497.9209 0.0019 395.8709 0.0019C294.3109 0.0019 212.7709 83.0119 212.7709 184.0819ZM343.6309 194.3319C309.9409 194.3319 280.6409 165.0419 280.6409 130.8619C280.6409 97.1719 309.9409 68.3619 343.6309 68.3619C377.8109 68.3619 406.1309 97.1719 406.1309 130.8619C406.1309 165.0419 377.8109 194.3319 343.6309 194.3319ZM692.2609 949.2219C706.9109 963.8719 731.3209 963.8719 745.4809 949.2219C759.6409 934.5719 760.1309 911.1319 745.4809 895.9919L64.3309 215.3319C49.6809 201.1719 25.2709 200.6819 10.6209 215.3319C-3.5391 229.4919 -3.5391 254.3919 10.6209 268.5519ZM350.4609 814.9419C350.4609 958.9819 376.3409 1037.6019 395.8709 1037.6019C414.4309 1037.6019 440.8009 967.7719 440.8009 846.6819V778.8119L350.4609 688.4719Z"/>
</svg>