<?xml version="1.0" encoding="UTF-8" standalone="no"?>
<svg xmlns="http://www.w3.org/2000/svg"
     width="898.92578125" height="898.92578125"
     viewBox="0 0 898.92578125 898.92578125"
     fill="currentColor">
  <path d="M153.3183 898.9295H745.6083C848.1483 898.9295 898.9283 848.1495 898.9283 747.5595V151.3695C898.9283 50.7795 848.1483 -0.0005 745.6083 -0.0005H153.3183C51.2683 -0.0005 -0.0017 50.2895 -0.0017 151.3695V747.5595C-0.0017 848.6295 51.2683 898.9295 153.3183 898.9295ZM334.4683 260.2495C334.4683 196.7795 386.7183 145.5095 449.7083 145.5095C513.1883 145.5095 564.9383 196.7795 564.9383 260.2495C564.9383 312.0095 531.2483 354.9795 484.3783 369.1395V621.5795C484.3783 696.2895 473.1483 761.2295 449.7083 761.2295C426.7583 761.2295 414.5483 695.3095 414.5483 621.5795V369.1395C368.6483 354.4895 334.4683 311.5195 334.4683 260.2495ZM383.7883 230.4695C383.7883 250.4895 400.8783 267.5795 419.9183 267.5795C439.9383 267.5795 456.5383 250.4895 456.5383 230.4695C457.0283 210.9395 439.9383 193.8495 419.9183 193.8495C400.8783 193.8495 383.2983 210.9395 383.7883 230.4695Z"/>
</svg>