<?xml version="1.0" encoding="UTF-8" standalone="no"?>
<svg xmlns="http://www.w3.org/2000/svg"
     width="929.5606420003439" height="1101.5625"
     viewBox="0 0 929.5606420003439 1101.5625"
     fill="currentColor">
  <path d="M355.1236 263.6703H574.3636L723.2836 0.0003H206.1936ZM167.1336 559.0803C214.9836 498.5303 280.9036 452.6403 356.5936 430.1803L135.3936 32.7103L6.9836 228.5203C-1.8064 241.2103 -2.2964 255.3703 5.5136 268.0703ZM572.8936 430.1803C649.0736 452.6403 714.5036 498.5303 762.3536 559.0803L924.4636 268.0703C931.7836 255.3703 931.2936 241.2103 922.5036 228.5203L794.0936 32.7103ZM464.5036 1101.5603C636.3736 1101.5603 775.0436 962.8903 775.0436 791.5003C775.0436 619.6303 636.3736 480.9603 464.5036 480.9603C293.1136 480.9603 154.4436 619.6303 154.4436 791.5003C154.4436 962.8903 293.1136 1101.5603 464.5036 1101.5603ZM376.1236 951.1703C357.5636 964.8403 338.0336 950.6803 345.3536 929.2003L380.5136 824.2203L290.6736 760.2503C273.5836 747.5603 278.9536 723.6303 302.3936 723.6303L412.7436 724.6103L446.4336 619.1403C453.2736 597.6603 476.7036 597.6603 483.5436 619.1403L517.2336 724.6103L627.5836 723.6303C651.0236 723.6303 655.9036 748.0503 639.3036 759.7703L549.4636 824.2203L584.6136 929.2003C591.9436 950.6803 572.4136 964.8403 553.8536 951.1703L464.9836 886.2303Z"/>
</svg>