<?xml version="1.0" encoding="UTF-8" standalone="no"?>
<svg xmlns="http://www.w3.org/2000/svg"
     width="1295.8984375" height="501.46484375"
     viewBox="0 0 1295.8984375 501.46484375"
     fill="currentColor">
  <path d="M164.0583 501.4639H864.7483C989.2583 501.4639 1028.8083 441.4039 1028.8083 250.9739C1028.8083 60.0539 989.7483 0.0039 864.7483 0.0039H164.0583C39.0583 0.0039 -0.0017 60.0539 -0.0017 250.9739C-0.0017 441.4039 39.0583 501.4639 164.0583 501.4639ZM1083.9883 388.6739H1202.6383C1258.7883 388.6739 1295.8983 352.5439 1295.8983 300.2939V200.6839C1295.8983 148.9239 1258.7883 112.3039 1202.6383 112.3039H1083.9883C1091.7983 150.8739 1095.2183 196.7739 1095.2183 250.9739C1095.2183 304.2039 1091.3083 350.0939 1083.9883 388.6739ZM164.0583 215.8239C135.7383 215.8239 113.2783 193.3639 113.2783 165.0439C113.2783 137.2039 135.7383 115.2339 164.0583 115.2339C191.8983 115.2339 213.8683 137.2039 213.8683 165.0439C213.8683 193.3639 191.8983 215.8239 164.0583 215.8239Z"/>
</svg>