<?xml version="1.0" encoding="UTF-8" standalone="no"?>
<svg xmlns="http://www.w3.org/2000/svg"
     width="1062.2586591254012" height="1061.427407151109"
     viewBox="0 0 1062.2586591254012 1061.427407151109"
     fill="currentColor">
  <path d="M737.9174 52.5185L1008.9074 323.9985L1011.3574 321.5585C1084.5974 248.8085 1076.2974 133.0785 1002.5674 59.8385C928.8374 -13.8915 813.1074 -22.1915 740.3574 50.0785ZM94.3574 874.7785L186.6474 967.0685L247.6774 906.0285C370.7274 783.4685 514.7674 818.6285 643.1874 690.2085L969.8474 363.5485L697.8774 91.5785L371.2174 418.7285C236.9374 553.0085 278.4474 690.6985 155.3974 813.7485ZM529.9074 533.9585C498.1674 502.2185 499.1474 452.4185 529.9074 421.6585L677.3674 273.2185C708.1274 242.4585 757.9374 241.4785 788.2074 273.2185C819.9474 303.0085 819.9474 352.3185 788.2074 384.0585L640.7474 532.9885C609.9874 563.7485 560.1774 564.2385 529.9074 533.9585ZM565.0674 497.8285C577.2674 510.0385 595.3374 513.4585 608.5174 500.7585L756.4674 351.8285C769.6574 338.6485 765.7474 320.5785 753.5374 308.8685C740.3574 296.6585 721.7974 295.1885 708.6174 308.3785L565.0674 452.4185C552.3674 465.1185 552.3674 485.1285 565.0674 497.8285ZM423.9474 581.8085C410.2774 569.1185 413.2074 551.0485 423.9474 539.8185C435.1774 528.0985 452.2674 527.1285 465.4574 539.8185L522.0974 595.9685C535.2774 608.6685 533.3274 626.7385 522.0974 638.4585C511.3574 649.1985 493.7774 650.6585 480.1074 637.4785ZM21.6074 1039.8185C49.4374 1068.6285 86.5474 1068.6285 114.8674 1039.8185L140.2574 1014.9185L46.9974 921.6585L21.6074 947.0485C-7.2026 975.8585 -7.2026 1012.4785 21.6074 1039.8185Z"/>
</svg>