<?xml version="1.0" encoding="UTF-8" standalone="no"?>
<svg xmlns="http://www.w3.org/2000/svg"
     width="1087.40234375" height="1031.6323497642102"
     viewBox="0 0 1087.40234375 1031.6323497642102"
     fill="currentColor">
  <path d="M-0.0017 513.6723C-0.0017 627.9323 56.6383 695.3123 164.0583 708.4923L270.9983 945.3123C311.0383 1034.6723 380.3683 1040.0423 427.7383 1025.3923C475.5883 1010.2523 504.8783 965.8223 492.1883 900.8823L458.0083 723.1423C591.7983 748.0423 727.5383 795.4123 849.6083 866.2123C862.7883 918.9423 906.7383 952.1523 966.3083 952.1523C1039.0583 952.1523 1087.3983 903.8123 1087.3983 831.5423V120.6023C1087.3983 48.3423 1039.0583 0.0023 966.3083 0.0023C905.2783 0.0023 860.8383 35.1523 848.6283 90.3323C705.0783 175.2923 521.9683 229.0023 376.9483 244.6323H204.5883C70.7983 244.6323 -0.0017 313.4723 -0.0017 441.8923ZM924.8083 831.5423V120.6023C924.8083 95.2123 940.9183 78.6123 966.3083 78.6123C991.6983 78.6123 1008.7883 95.2123 1008.7883 120.6023V831.5423C1008.7883 856.9323 991.6983 873.5323 966.3083 873.5323C940.9183 873.5323 924.8083 856.9323 924.8083 831.5423ZM387.2083 633.7923V321.2923C552.7383 302.2423 710.4483 255.3723 845.6983 178.2223V777.3423C707.0283 698.2423 551.2683 652.8323 387.2083 633.7923ZM204.5883 632.3223C115.2383 632.3223 78.6183 597.6523 78.6183 513.6723V441.8923C78.6183 357.4223 115.2383 323.2423 204.5883 323.2423H308.1083V632.3223ZM348.6283 931.1523L245.6083 710.9423H374.0283C376.4683 710.9423 378.9083 711.4223 381.3483 711.4223L420.8983 912.6023C424.8083 934.5723 413.5783 948.7323 397.9483 954.1023C381.3483 959.9623 359.8683 954.5923 348.6283 931.1523Z"/>
</svg>