<?xml version="1.0" encoding="UTF-8" standalone="no"?>
<svg xmlns="http://www.w3.org/2000/svg"
     width="1109.86328125" height="996.09375"
     viewBox="0 0 1109.86328125 996.09375"
     fill="currentColor">
  <path d="M-0.0023 387.6959C-0.0023 397.4559 2.9277 406.7359 8.7877 414.0659L111.8177 540.5259C126.9577 560.0559 139.6477 566.8959 159.1777 566.8959C171.8777 566.8959 181.6377 563.4759 193.8477 554.6859L321.2877 460.4459C332.0277 452.6359 337.8877 440.9159 337.8877 428.2259C337.8877 405.2759 319.8277 388.6759 299.3177 388.6759C290.0377 388.6759 281.7377 391.1159 274.4177 396.9759L199.2177 456.0559C219.7277 245.6059 395.0177 83.0059 611.3277 83.0059C841.7977 83.0059 1026.3677 267.5759 1026.8577 498.0459C1027.3477 728.5159 842.2877 913.0859 611.8177 913.0859C459.4777 913.0859 351.0777 832.5159 297.8477 770.5059C287.5977 757.8159 274.4177 752.9259 262.6977 752.9259C242.1877 752.9259 223.6377 768.5559 223.6377 791.0159C223.6377 802.2459 228.0277 814.4559 238.7677 827.1459C292.4777 888.6759 424.8077 996.0959 611.8177 996.0959C884.2777 996.0959 1109.8677 770.0159 1109.8677 498.0459C1109.8677 225.5859 883.2977 -0.0041 611.3277 -0.0041C362.3077 -0.0041 152.3477 188.9659 119.1377 429.6859L73.7277 367.6759C65.9177 356.4459 54.6877 349.1259 40.0377 349.1259C17.5777 349.1259 -0.0023 365.2359 -0.0023 387.6959ZM488.7677 658.2059C488.7677 680.6659 513.6677 690.4259 534.6677 677.7359L796.3877 523.4359C815.4277 511.7159 814.9377 484.8659 796.3877 474.1259L534.6677 318.8459C515.1377 307.1259 488.7677 316.4059 488.7677 338.3759Z"/>
</svg>