<?xml version="1.0" encoding="UTF-8" standalone="no"?>
<svg xmlns="http://www.w3.org/2000/svg"
     width="1046.38671875" height="849.12109375"
     viewBox="0 0 1046.38671875 849.12109375"
     fill="currentColor">
  <path d="M153.3183 753.4172H168.4583V809.5672C168.4583 833.0072 184.0783 849.1172 207.5183 849.1172C230.9583 849.1172 247.0683 833.0072 247.0683 809.5672V753.4172H326.1683V809.5672C326.1683 833.0072 341.7983 849.1172 365.2383 849.1172C388.6683 849.1172 404.7883 833.0072 404.7883 809.5672V753.4172H483.8883V809.5672C483.8883 833.0072 499.5083 849.1172 522.9483 849.1172C546.3883 849.1172 562.4983 833.0072 562.4983 809.5672V753.4172H641.5983V809.5672C641.5983 833.0072 657.7183 849.1172 681.1483 849.1172C704.5883 849.1172 720.2183 833.0072 720.2183 809.5672V753.4172H799.3183V809.5672C799.3183 833.0072 815.4283 849.1172 838.8683 849.1172C862.3083 849.1172 877.9283 833.0072 877.9283 809.5672V753.4172H893.0683C995.6083 753.4172 1046.3883 702.6372 1046.3883 602.0472V247.0672C1046.3883 146.4872 995.6083 95.7072 893.0683 95.7072H877.9283V39.0672C877.9283 15.6272 862.3083 -0.0028 838.8683 -0.0028C815.4283 -0.0028 799.3183 15.6272 799.3183 39.0672V95.7072H720.2183V39.0672C720.2183 15.6272 704.5883 -0.0028 681.1483 -0.0028C657.7183 -0.0028 641.5983 15.6272 641.5983 39.0672V95.7072H562.4983V39.0672C562.4983 15.6272 546.3883 -0.0028 522.9483 -0.0028C499.5083 -0.0028 483.8883 15.6272 483.8883 39.0672V95.7072H404.7883V39.0672C404.7883 15.6272 388.6683 -0.0028 365.2383 -0.0028C341.7983 -0.0028 326.1683 15.6272 326.1683 39.0672V95.7072H247.0683V39.0672C247.0683 15.6272 230.9583 -0.0028 207.5183 -0.0028C184.0783 -0.0028 168.4583 15.6272 168.4583 39.0672V95.7072H153.3183C51.2683 95.7072 -0.0017 145.9972 -0.0017 247.0672V602.0472C-0.0017 703.1272 51.2683 753.4172 153.3183 753.4172ZM154.2983 674.8072C105.4683 674.8072 78.6183 648.9272 78.6183 598.1472V250.9772C78.6183 200.1972 105.4683 174.3172 154.2983 174.3172H892.0883C939.9383 174.3172 967.7783 200.1972 967.7783 250.9772V598.1472C967.7783 648.9272 939.9383 674.8072 892.0883 674.8072Z"/>
</svg>