<?xml version="1.0" encoding="UTF-8" standalone="no"?>
<svg xmlns="http://www.w3.org/2000/svg"
     width="780.2734375" height="1085.845926097968"
     viewBox="0 0 780.2734375 1085.845926097968"
     fill="currentColor">
  <path d="M225.5883 65.116L647.9483 139.336C689.4483 147.146 724.1183 158.376 752.4383 174.006V135.916C752.4383 33.376 683.5983 -15.934 567.8683 4.576ZM92.2883 988.456L626.4683 1082.696C722.1683 1099.786 780.2783 1046.566 780.2783 941.586V352.226C780.2783 256.526 731.4483 221.856 636.2283 205.256L117.6783 113.456C46.3883 101.256 -0.0017 139.826 -0.0017 210.136V882.016C-0.0017 942.556 30.7583 977.716 92.2883 988.456ZM180.1783 384.456C163.5783 381.526 153.8083 368.826 153.8083 351.256C153.8083 330.256 169.9183 316.586 193.3583 320.486L579.0983 387.876C596.6783 391.776 606.4483 401.546 606.4483 421.076C606.4483 442.076 591.7983 456.716 567.8683 452.816ZM180.1783 580.746C163.5783 577.816 153.8083 565.116 153.8083 547.536C153.8083 527.036 169.9183 513.356 193.3583 517.266L579.0983 584.646C596.6783 588.066 606.4483 598.326 606.4483 617.366C606.4483 638.846 591.7983 653.496 567.8683 649.586Z"/>
</svg>