<?xml version="1.0" encoding="UTF-8" standalone="no"?>
<svg xmlns="http://www.w3.org/2000/svg"
     width="996.09375" height="996.09375"
     viewBox="0 0 996.09375 996.09375"
     fill="currentColor">
  <path d="M498.0477 996.0959C770.5077 996.0959 996.0977 770.0159 996.0977 498.0459C996.0977 225.5859 770.0177 -0.0041 497.5577 -0.0041C225.5877 -0.0041 -0.0023 225.5859 -0.0023 498.0459C-0.0023 770.0159 226.0777 996.0959 498.0477 996.0959ZM498.0477 913.0859C267.5777 913.0859 83.4977 728.5159 83.4977 498.0459C83.4977 267.5759 267.0877 83.0059 497.5577 83.0059C728.0277 83.0059 913.0877 267.5759 913.0877 498.0459C913.0877 728.5159 728.5177 913.0859 498.0477 913.0859ZM497.5577 691.4059C648.9277 691.4059 767.5777 592.7759 767.5777 470.7059C767.5777 349.1259 648.9277 250.4859 497.5577 250.4859C346.1877 250.4859 227.5377 349.1259 227.5377 470.7059C227.5377 547.3659 275.8777 613.7659 347.6577 654.7859C353.5177 658.2059 353.5177 663.5759 350.5877 668.9459C342.7777 685.5459 328.6177 700.1959 318.3577 711.9159C304.6877 727.5359 308.5977 744.6259 330.0777 744.6259C356.9377 744.6259 405.7577 724.6059 454.0977 694.8259C458.9877 691.8959 461.9177 689.9459 467.2877 690.4259C476.5577 690.9159 486.8177 691.4059 497.5577 691.4059Z"/>
</svg>