<?xml version="1.0" encoding="UTF-8" standalone="no"?>
<svg xmlns="http://www.w3.org/2000/svg"
     width="1246.58203125" height="1058.10546875"
     viewBox="0 0 1246.58203125 1058.10546875"
     fill="currentColor">
  <path d="M193.3577 1018.0681C251.9577 1018.0681 397.9477 954.0981 480.9577 894.5281C489.2577 888.6681 496.0977 886.2281 502.9277 886.2281C509.2777 886.7181 515.6277 887.2081 521.9777 887.2081C568.3577 887.2081 613.2777 883.2981 654.2977 875.9781V790.0381C654.2977 730.9581 702.1477 683.5981 760.7377 683.5981C765.1377 683.5981 769.5277 684.5681 773.4377 686.0381C774.4177 681.1481 774.8977 677.7381 775.8777 673.8281C789.5477 631.8381 828.6177 601.5581 875.4877 601.5581C879.8877 601.5581 883.2977 602.5381 887.2077 604.0081C887.6977 600.0981 888.6677 595.2181 889.6477 590.8181C902.8277 548.8281 943.3577 517.5781 989.7477 517.5781C1028.3177 517.5781 1061.5277 538.0881 1079.0977 567.8681C1081.5477 567.3781 1083.9877 566.8981 1086.4277 566.8981C1100.5877 527.3481 1107.4177 486.3281 1107.4177 443.8481C1107.4177 198.2381 861.3277 -0.0019 553.7077 -0.0019C246.0977 -0.0019 -0.0023 198.2381 -0.0023 443.8481C-0.0023 600.0981 96.1877 737.3081 252.9277 821.2881C260.2577 825.1981 262.6977 832.5181 258.7877 839.8481C231.4477 884.7681 182.6177 938.4781 164.0577 962.8881C145.0177 987.3081 155.7577 1018.0681 193.3577 1018.0681ZM990.2377 1058.1081C1005.3677 1058.1081 1017.5777 1045.8981 1017.5777 1030.7581V624.5081C1017.5777 608.8881 1005.3677 596.6781 990.2377 596.6781C974.6077 596.6781 962.3977 608.8881 962.3977 624.5081V1030.7581C962.3977 1046.3881 974.1177 1058.1081 990.2377 1058.1081ZM1104.0077 1009.2781C1120.1177 1009.2781 1131.8377 997.0681 1131.8377 981.9381V672.3681C1131.8377 657.2281 1120.1177 645.0181 1104.0077 645.0181C1088.8677 645.0181 1077.1477 657.2281 1077.1477 672.3681V981.9381C1077.1477 997.0681 1088.8677 1009.2781 1104.0077 1009.2781ZM875.4877 973.6281C891.1177 973.6281 902.8277 961.4281 902.8277 945.7981V708.4981C902.8277 692.8681 891.1177 680.6681 875.4877 680.6681C859.8677 680.6681 848.1477 692.8681 848.1477 708.4981V945.7981C848.1477 961.4281 859.8677 973.6281 875.4877 973.6281ZM1219.2377 916.9881C1234.8677 916.9881 1246.5777 905.7581 1246.5777 889.6481V764.1581C1246.5777 749.0281 1234.8677 736.8181 1219.2377 736.8181C1203.6177 736.8181 1191.4077 749.5081 1191.4077 764.1581V889.6481C1191.4077 905.2781 1203.6177 916.9881 1219.2377 916.9881ZM760.7377 891.5981C776.3677 891.5981 788.5777 879.3981 788.5777 864.2581V790.0381C788.5777 774.8981 776.3677 762.6981 760.7377 762.6981C745.6077 762.6981 733.3977 774.8981 733.3977 790.0381V864.2581C733.3977 879.3981 745.6077 891.5981 760.7377 891.5981Z"/>
</svg>