<?xml version="1.0" encoding="UTF-8" standalone="no"?>
<svg xmlns="http://www.w3.org/2000/svg"
     width="949.21875" height="945.80078125"
     viewBox="0 0 949.21875 945.80078125"
     fill="currentColor">
  <path d="M580.5706 642.5772H881.3506L590.8206 72.7572C568.3606 28.3172 520.5106 -0.0028 474.6106 -0.0028C429.2006 -0.0028 380.8606 28.3172 358.4006 72.7572L240.7206 303.2272L437.9906 499.9972V234.8672C437.9906 210.4472 452.6406 194.8272 476.5606 194.8272C500.9806 194.8272 515.6206 210.4472 515.6206 234.8672V577.1472ZM393.5506 642.5772H504.3906L83.5006 221.6772C66.8906 205.5672 45.4106 205.0772 28.3206 221.6772C10.7406 238.7672 11.7206 261.2272 28.3206 277.8272ZM67.8706 642.5772H320.8006L153.3206 475.0972ZM136.7206 945.7972H812.5006C898.4406 945.7972 949.2206 885.2572 949.2206 814.4572C949.2206 789.5472 942.8706 763.1872 930.1806 737.7972L915.0406 708.9872H34.1806L19.0406 738.2772C6.3506 762.6972 0.0006 789.5472 0.0006 814.4572C0.0006 885.2572 50.7806 945.7972 136.7206 945.7972Z"/>
</svg>