<?xml version="1.0" encoding="UTF-8" standalone="no"?>
<svg xmlns="http://www.w3.org/2000/svg"
     width="996.09375" height="996.09375"
     viewBox="0 0 996.09375 996.09375"
     fill="currentColor">
  <path d="M498.0477 996.0959C770.5077 996.0959 996.0977 770.0159 996.0977 498.0459C996.0977 225.5859 770.0177 -0.0041 497.5577 -0.0041C225.5877 -0.0041 -0.0023 225.5859 -0.0023 498.0459C-0.0023 770.0159 226.0777 996.0959 498.0477 996.0959ZM498.0477 595.2159C448.7277 595.2159 414.5477 556.6359 414.5477 505.3759V289.5459C414.5477 238.7659 448.7277 201.1759 498.0477 201.1759C547.3677 201.1759 581.5477 238.7659 581.5477 289.5459V505.3759C581.5477 556.6359 547.3677 595.2159 498.0477 595.2159ZM370.1177 800.2959C355.4677 800.2959 342.7777 788.0859 342.7777 773.4359C342.7777 758.7859 355.4677 746.0959 370.1177 746.0959H471.1877V695.3159C371.0977 684.0859 303.7077 607.9059 303.7077 505.3759V440.4259C303.7077 426.2659 315.9177 414.0659 330.0777 414.0659C344.7277 414.0659 356.9377 426.2659 356.9377 440.4259V505.3759C356.9377 587.8859 415.0377 645.9959 498.0477 645.9959C581.0577 645.9959 639.6477 587.8859 639.6477 505.3759V440.4259C639.6477 426.2659 651.3677 414.0659 666.0177 414.0659C680.1777 414.0659 692.8677 426.2659 692.8677 440.4259V505.3759C692.8677 607.9059 625.4877 683.5959 525.8777 695.3159V746.0959H626.4677C641.1177 746.0959 653.3177 758.7859 653.3177 773.4359C653.3177 787.5959 640.6277 800.2959 626.4677 800.2959Z"/>
</svg>