<?xml version="1.0" encoding="UTF-8" standalone="no"?>
<svg xmlns="http://www.w3.org/2000/svg"
     width="1034.66796875" height="1044.921875"
     viewBox="0 0 1034.66796875 1044.921875"
     fill="currentColor">
  <path d="M507.8083 498.538C507.8083 610.838 580.0783 689.938 685.0583 689.938C790.5283 689.938 862.7883 610.838 862.7883 498.538V191.408C862.7883 78.618 790.5283 -0.002 685.0583 -0.002C580.0783 -0.002 507.8083 78.618 507.8083 191.408ZM581.5383 498.538V191.408C581.5383 119.138 622.5583 72.758 685.0583 72.758C747.5583 72.758 789.0583 119.138 789.0583 191.408V498.538C789.0583 570.798 747.5583 617.188 685.0583 617.188C622.5583 617.188 581.5383 570.798 581.5383 498.538ZM89.8483 258.298C138.6683 258.298 178.2183 219.238 178.2183 169.438C178.2183 120.608 138.6683 81.058 89.8483 81.058C40.0383 81.058 -0.0017 120.608 -0.0017 169.438C-0.0017 219.238 39.5483 258.298 89.8483 258.298ZM89.8483 513.188C138.6683 513.188 178.2183 474.118 178.2183 424.318C178.2183 374.508 138.6683 334.958 89.8483 334.958C39.5483 334.958 -0.0017 374.508 -0.0017 424.318C-0.0017 474.118 39.5483 513.188 89.8483 513.188ZM335.9383 516.118C335.9383 707.518 462.3983 841.798 648.4383 857.418V971.188H467.2883C446.7783 971.188 430.1783 987.798 430.1783 1008.298C430.1783 1028.808 446.7783 1044.918 467.2883 1044.918H903.3183C923.8283 1044.918 940.4283 1028.808 940.4283 1008.298C940.4283 987.798 923.8283 971.188 903.3183 971.188H722.1683V857.418C908.1983 841.798 1034.6683 707.518 1034.6683 516.118V416.988C1034.6683 396.488 1018.5583 380.368 998.0483 380.368C977.5383 380.368 960.9383 396.488 960.9383 416.988V513.188C960.9383 679.688 852.5383 790.038 685.0583 790.038C518.0683 790.038 409.6683 679.688 409.6683 513.188V416.988C409.6683 396.488 393.0683 380.368 372.5583 380.368C352.0483 380.368 335.9383 396.488 335.9383 416.988ZM89.8483 768.558C138.6683 768.558 178.2183 728.518 178.2183 678.708C178.2183 629.878 138.6683 590.328 89.8483 590.328C40.0383 590.328 -0.0017 629.878 -0.0017 678.708C-0.0017 729.008 39.5483 768.558 89.8483 768.558ZM89.8483 1022.458C138.6683 1022.458 178.2183 982.908 178.2183 934.078C178.2183 884.278 138.6683 845.218 89.8483 845.218C39.5483 845.218 -0.0017 884.278 -0.0017 934.078C-0.0017 982.908 40.0383 1022.458 89.8483 1022.458Z"/>
</svg>