<?xml version="1.0" encoding="UTF-8" standalone="no"?>
<svg xmlns="http://www.w3.org/2000/svg"
     width="996.09375" height="996.09375"
     viewBox="0 0 996.09375 996.09375"
     fill="currentColor">
  <path d="M498.0477 996.0959C770.5077 996.0959 996.0977 770.0159 996.0977 498.0459C996.0977 225.5859 770.0177 -0.0041 497.5577 -0.0041C225.5877 -0.0041 -0.0023 225.5859 -0.0023 498.0459C-0.0023 770.0159 226.0777 996.0959 498.0477 996.0959ZM581.0577 478.5159L414.0577 310.5459V290.0359C414.0577 238.7659 448.2377 201.1759 497.5577 201.1759C546.8777 201.1759 581.0577 238.7659 581.0577 290.0359ZM704.5877 721.6759L268.5577 285.6459C259.2777 276.8559 259.2777 261.7159 268.5577 252.9259C277.3477 244.1359 291.5077 244.1359 301.2677 252.9259L736.8177 688.9659C745.6077 698.2459 745.6077 712.4059 736.8177 721.6759C728.0277 730.4659 713.8677 730.4659 704.5877 721.6759ZM560.0577 632.3259L599.6077 671.8759C578.1277 684.5659 552.7377 692.8759 525.3877 695.7959V746.0959H625.9777C640.6277 746.0959 653.3177 759.2759 653.3177 773.9259C653.3177 788.0859 640.1377 800.2959 625.9777 800.2959H369.6277C354.9777 800.2959 342.2877 788.5759 342.2877 773.9259C342.2877 759.2759 354.9777 746.0959 369.6277 746.0959H470.7077V695.7959C370.6077 684.5659 303.2277 607.9059 303.2277 505.3759V440.9159C303.2277 426.7559 314.9377 414.0659 329.5877 414.0659C344.2377 414.0659 356.4477 426.7559 356.4477 440.9159V505.3759C356.4477 587.8859 414.5477 645.9959 497.5577 645.9959C521.4877 645.9959 542.4777 641.1159 560.0577 632.3259ZM679.6877 576.6559L635.2577 532.2259C637.2077 524.4159 638.6677 515.1359 638.6677 505.3759V440.9159C638.6677 426.7559 650.8777 414.0659 665.5277 414.0659C679.6877 414.0659 692.3877 426.7559 692.3877 440.9159V505.3759C692.3877 531.7359 687.9877 555.1759 679.6877 576.6559ZM414.0577 485.8359L519.5277 591.3059C512.6977 593.7459 505.8577 595.2159 497.5577 595.2159C448.2377 595.2159 414.0577 556.6359 414.0577 505.8559Z"/>
</svg>