<?xml version="1.0" encoding="UTF-8" standalone="no"?>
<svg xmlns="http://www.w3.org/2000/svg"
     width="1034.66796875" height="1040.0390625"
     viewBox="0 0 1034.66796875 1040.0390625"
     fill="currentColor">
  <path d="M685.0583 680.1752C782.7183 680.1752 848.1483 607.4252 848.1483 503.4152V176.7552C848.1483 72.2652 782.7183 -0.0048 685.0583 -0.0048C587.8883 -0.0048 522.4583 72.2652 522.4583 176.7552V503.4152C522.4583 607.4252 587.8883 680.1752 685.0583 680.1752ZM89.8483 253.4152C138.6683 253.4152 178.2183 214.3552 178.2183 164.5552C178.2183 115.7252 138.6683 76.1752 89.8483 76.1752C40.0383 76.1752 -0.0017 115.7252 -0.0017 164.5552C-0.0017 214.3552 39.5483 253.4152 89.8483 253.4152ZM89.8483 508.3052C138.6683 508.3052 178.2183 469.2352 178.2183 419.4352C178.2183 369.6252 138.6683 330.0752 89.8483 330.0752C39.5483 330.0752 -0.0017 369.6252 -0.0017 419.4352C-0.0017 469.2352 39.5483 508.3052 89.8483 508.3052ZM335.9383 511.2352C335.9383 702.6352 462.3983 836.9152 648.4383 852.5352V966.3052H467.2883C446.7783 966.3052 430.1783 982.9152 430.1783 1003.4152C430.1783 1023.9252 446.7783 1040.0352 467.2883 1040.0352H903.3183C923.8283 1040.0352 940.4283 1023.9252 940.4283 1003.4152C940.4283 982.9152 923.8283 966.3052 903.3183 966.3052H722.1683V852.5352C908.1983 836.9152 1034.6683 702.6352 1034.6683 511.2352V412.1052C1034.6683 391.6052 1018.5583 375.4852 998.0483 375.4852C977.5383 375.4852 960.9383 391.6052 960.9383 412.1052V508.3052C960.9383 674.8052 852.5383 785.1552 685.0583 785.1552C518.0683 785.1552 409.6683 674.8052 409.6683 508.3052V412.1052C409.6683 391.6052 393.0683 375.4852 372.5583 375.4852C352.0483 375.4852 335.9383 391.6052 335.9383 412.1052ZM89.8483 763.6752C138.6683 763.6752 178.2183 723.6352 178.2183 673.8252C178.2183 624.9952 138.6683 585.4452 89.8483 585.4452C40.0383 585.4452 -0.0017 624.9952 -0.0017 673.8252C-0.0017 724.1252 39.5483 763.6752 89.8483 763.6752ZM89.8483 1017.5752C138.6683 1017.5752 178.2183 978.0252 178.2183 929.1952C178.2183 879.3952 138.6683 840.3352 89.8483 840.3352C39.5483 840.3352 -0.0017 879.3952 -0.0017 929.1952C-0.0017 978.0252 40.0383 1017.5752 89.8483 1017.5752Z"/>
</svg>