<?xml version="1.0" encoding="UTF-8" standalone="no"?>
<svg xmlns="http://www.w3.org/2000/svg"
     width="698.73046875" height="1040.0390625"
     viewBox="0 0 698.73046875 1040.0390625"
     fill="currentColor">
  <path d="M349.6125 680.1752C446.7725 680.1752 512.2025 607.4252 512.2025 503.4152V176.7552C512.2025 72.2652 446.7725 -0.0048 349.6125 -0.0048C251.9525 -0.0048 186.5225 72.2652 186.5225 176.7552V503.4152C186.5225 607.4252 251.9525 680.1752 349.6125 680.1752ZM0.0025 511.2352C0.0025 702.6352 126.4625 836.9152 312.5025 852.5352V966.3052H131.3525C110.8425 966.3052 94.2425 982.9152 94.2425 1003.4152C94.2425 1023.9252 110.8425 1040.0352 131.3525 1040.0352H567.3825C587.8925 1040.0352 604.4925 1023.9252 604.4925 1003.4152C604.4925 982.9152 587.8925 966.3052 567.3825 966.3052H386.2325V852.5352C572.7525 836.9152 698.7325 702.6352 698.7325 511.2352V412.1052C698.7325 391.6052 682.6125 375.4852 662.1125 375.4852C641.6025 375.4852 625.0025 391.6052 625.0025 412.1052V508.3052C625.0025 674.8052 516.6025 785.1552 349.6125 785.1552C182.1325 785.1552 73.7325 674.8052 73.7325 508.3052V412.1052C73.7325 391.6052 57.6125 375.4852 36.6225 375.4852C16.1125 375.4852 0.0025 391.6052 0.0025 412.1052Z"/>
</svg>