<?xml version="1.0" encoding="UTF-8" standalone="no"?>
<svg xmlns="http://www.w3.org/2000/svg"
     width="898.92578125" height="898.92578125"
     viewBox="0 0 898.92578125 898.92578125"
     fill="currentColor">
  <path d="M153.3183 898.9295H745.6083C848.1483 898.9295 898.9283 848.1495 898.9283 747.5595V151.3695C898.9283 50.7795 848.1483 -0.0005 745.6083 -0.0005H153.3183C51.2683 -0.0005 -0.0017 50.2895 -0.0017 151.3695V747.5595C-0.0017 848.6295 51.2683 898.9295 153.3183 898.9295ZM154.2983 820.3095C105.4683 820.3095 78.6183 794.4295 78.6183 743.6495V155.2695C78.6183 104.4895 105.4683 78.6095 154.2983 78.6095H744.6283C792.9683 78.6095 820.3083 104.4895 820.3083 155.2695V743.6495C820.3083 794.4295 792.9683 820.3095 744.6283 820.3095ZM449.7083 542.9695C497.5583 542.9695 530.7583 505.8595 530.7583 456.0595V246.5795C530.7583 197.2695 497.5583 160.6395 449.7083 160.6395C401.8583 160.6395 368.6483 197.2695 368.6483 246.5795V456.0595C368.6483 505.8595 401.8583 542.9695 449.7083 542.9695ZM325.6883 742.1895H574.2183C587.8883 742.1895 600.5883 729.4895 600.5883 715.8195C600.5883 701.6595 588.3783 689.4495 574.2183 689.4495H476.5583V640.1395C573.7283 628.9095 638.6683 555.1795 638.6683 456.0595V393.0695C638.6683 379.3895 626.4683 367.6795 612.7883 367.6795C598.6283 367.6795 586.9183 379.3895 586.9183 393.0695V456.0595C586.9183 536.1295 530.7583 592.2895 449.7083 592.2895C369.1383 592.2895 312.9883 536.1295 312.9883 456.0595V393.0695C312.9883 379.3895 301.2683 367.6795 287.1083 367.6795C272.9483 367.6795 261.2283 379.3895 261.2283 393.0695V456.0595C261.2283 555.1795 326.6583 629.3895 423.8283 640.1395V689.4495H325.6883C311.5283 689.4495 299.3183 701.6595 299.3183 715.8195C299.3183 729.9795 311.5283 742.1895 325.6883 742.1895Z"/>
</svg>