<?xml version="1.0" encoding="UTF-8" standalone="no"?>
<svg xmlns="http://www.w3.org/2000/svg"
     width="898.92578125" height="898.92578125"
     viewBox="0 0 898.92578125 898.92578125"
     fill="currentColor">
  <path d="M153.3183 898.9295H745.6083C848.1483 898.9295 898.9283 848.1495 898.9283 747.5595V151.3695C898.9283 50.7795 848.1483 -0.0005 745.6083 -0.0005H153.3183C51.2683 -0.0005 -0.0017 50.2895 -0.0017 151.3695V747.5595C-0.0017 848.6295 51.2683 898.9295 153.3183 898.9295ZM449.7083 545.8995C400.3883 545.8995 366.2083 507.3195 366.2083 456.0595V240.2295C366.2083 189.4495 400.3883 151.8595 449.7083 151.8595C499.0283 151.8595 533.1983 189.4495 533.1983 240.2295V456.0595C533.1983 507.3195 499.0283 545.8995 449.7083 545.8995ZM321.7783 750.9795C307.1283 750.9795 294.4383 738.7695 294.4383 724.1195C294.4383 709.4695 307.1283 696.7795 321.7783 696.7795H422.8483V645.9995C322.7583 634.7695 255.3683 558.5895 255.3683 456.0595V391.1095C255.3683 376.9495 268.0683 364.7495 282.2283 364.7495C296.8783 364.7495 308.5983 376.9495 308.5983 391.1095V456.0595C308.5983 538.5695 366.6983 596.6795 449.7083 596.6795C533.1983 596.6795 591.3083 538.5695 591.3083 456.0595V391.1095C591.3083 376.9495 603.0283 364.7495 617.6783 364.7495C631.8383 364.7495 644.5283 376.9495 644.5283 391.1095V456.0595C644.5283 558.5895 577.6383 634.2795 477.5383 645.9995V696.7795H578.1283C592.7783 696.7795 605.4683 709.4695 605.4683 724.1195C605.4683 738.2795 592.2883 750.9795 578.1283 750.9795Z"/>
</svg>