<?xml version="1.0" encoding="UTF-8" standalone="no"?>
<svg xmlns="http://www.w3.org/2000/svg"
     width="996.09375" height="996.09375"
     viewBox="0 0 996.09375 996.09375"
     fill="currentColor">
  <path d="M498.0477 996.0959C770.5077 996.0959 996.0977 770.0159 996.0977 498.0459C996.0977 225.5859 770.0177 -0.0041 497.5577 -0.0041C225.5877 -0.0041 -0.0023 225.5859 -0.0023 498.0459C-0.0023 770.0159 226.0777 996.0959 498.0477 996.0959ZM498.0477 913.0859C267.5777 913.0859 83.4977 728.5159 83.4977 498.0459C83.4977 267.5759 267.0877 83.0059 497.5577 83.0059C728.0277 83.0059 913.0877 267.5759 913.0877 498.0459C913.0877 728.5159 728.5177 913.0859 498.0477 913.0859ZM578.6177 479.0059V295.8959C578.6177 246.5859 545.4077 209.9559 497.5577 209.9559C449.7077 209.9559 416.5077 246.5859 416.5077 295.8959V316.4059ZM698.7277 714.3559C707.5177 723.1459 721.1877 723.6359 729.4877 714.3559C738.2777 706.0559 738.2777 691.8959 729.4877 683.1059L307.1277 260.2559C297.8477 251.4659 284.1777 251.4659 275.8777 260.2559C266.5977 269.0459 266.5977 283.2059 275.8777 291.5059ZM558.5977 627.9259C541.5077 636.7159 520.9977 641.6059 497.5577 641.6059C416.9877 641.6059 360.8377 585.4459 360.8377 505.3759V442.3859C360.8377 428.7059 349.1177 416.9959 334.9577 416.9959C320.7977 416.9959 309.0777 428.7059 309.0777 442.3859V505.3759C309.0777 604.4959 374.5077 678.7059 471.6777 689.4559V738.7659H373.5377C359.3777 738.7659 347.1677 750.9759 347.1677 765.1359C347.1677 779.2959 359.3777 791.5059 373.5377 791.5059H622.0677C635.7377 791.5059 648.4377 778.8059 648.4377 765.1359C648.4377 750.9759 636.2277 738.7659 622.0677 738.7659H524.4177V689.4559C551.2677 686.5259 575.6877 678.2259 596.6777 666.0159ZM674.3177 574.7059C682.1277 553.2259 686.5277 530.2759 686.5277 505.3759V442.3859C686.5277 428.7059 674.3177 416.9959 660.6477 416.9959C646.4877 416.9959 634.7677 428.7059 634.7677 442.3859V505.3759C634.7677 514.6459 633.2977 523.4359 631.3477 531.7359ZM416.5077 485.8359V505.3759C416.5077 555.1759 449.7077 592.2859 497.5577 592.2859C505.8577 592.2859 512.6977 590.3359 519.0477 587.8859Z"/>
</svg>