<?xml version="1.0" encoding="UTF-8" standalone="no"?>
<svg xmlns="http://www.w3.org/2000/svg"
     width="830.5061468529726" height="1044.921875"
     viewBox="0 0 830.5061468529726 1044.921875"
     fill="currentColor">
  <path d="M585.3242 191.408C585.3242 78.618 513.0642 -0.002 408.0842 -0.002C311.4042 -0.002 243.0442 66.408 232.3042 164.058V183.598L304.0742 254.878V191.408C304.0742 119.138 345.5842 72.758 408.0842 72.758C470.5842 72.758 511.5942 119.138 511.5942 191.408V450.688C511.5942 454.588 511.5942 458.498 511.1042 461.918L582.3942 533.208C584.3542 521.968 585.3242 510.258 585.3242 498.538ZM766.4842 905.758C781.1242 920.408 805.0542 920.408 819.7042 905.758C833.8642 890.628 834.3542 867.188 819.7042 852.538L64.3342 97.658C49.6842 83.498 25.2642 83.008 10.6242 97.658C-3.5358 112.308 -3.5358 136.718 10.6242 150.878ZM58.4742 516.118C58.4742 707.518 184.9342 841.798 370.9742 857.418V971.188H189.8242C169.3142 971.188 152.7142 987.798 152.7142 1008.298C152.7142 1028.808 169.3142 1044.918 189.8242 1044.918H625.8542C646.3642 1044.918 662.9642 1028.808 662.9642 1008.298C662.9642 987.798 646.3642 971.188 625.8542 971.188H444.7042V857.418C499.8742 853.028 549.1942 837.888 592.1642 813.968L539.4242 761.718C501.8342 779.788 457.8842 790.038 408.0842 790.038C240.6042 790.038 132.2042 679.688 132.2042 513.188V416.988C132.2042 396.488 116.0842 380.368 95.0942 380.368C74.5842 380.368 58.4742 396.488 58.4742 416.988ZM666.3842 616.698L723.5142 673.828C745.4842 627.928 757.2042 574.708 757.2042 516.118V416.988C757.2042 396.488 741.0842 380.368 720.5842 380.368C700.0742 380.368 683.4742 396.488 683.4742 416.988V513.188C683.4742 550.778 677.6142 585.448 666.3842 616.698ZM408.0842 689.938C426.6342 689.938 443.7242 687.008 459.3542 681.638L384.6442 606.448C380.7342 608.398 376.3442 608.888 371.9442 608.888C343.1442 602.538 322.6342 579.588 315.7942 549.808L315.3042 537.598L230.3442 452.638V498.538C230.3442 610.838 302.6142 689.938 408.0842 689.938Z"/>
</svg>