<?xml version="1.0" encoding="UTF-8" standalone="no"?>
<svg xmlns="http://www.w3.org/2000/svg"
     width="996.09375" height="996.09375"
     viewBox="0 0 996.09375 996.09375"
     fill="currentColor">
  <path d="M498.0477 996.0959C770.5077 996.0959 996.0977 770.0159 996.0977 498.0459C996.0977 225.5859 770.0177 -0.0041 497.5577 -0.0041C225.5877 -0.0041 -0.0023 225.5859 -0.0023 498.0459C-0.0023 770.0159 226.0777 996.0959 498.0477 996.0959ZM498.5377 277.8359C479.0077 277.8359 463.8677 262.6959 463.8677 242.6759C463.8677 223.1459 479.0077 207.5159 498.5377 207.5159C518.0677 207.5159 533.6877 223.1459 533.6877 242.6759C533.6877 262.6959 518.0677 277.8359 498.5377 277.8359ZM608.8877 307.6159C591.3077 297.3659 585.9377 275.8759 596.1877 258.7859C605.9577 242.1859 627.4377 236.8159 644.0477 246.5859C661.1377 255.8559 666.9877 277.8359 656.7377 294.9259C647.4577 312.0159 626.4677 317.3859 608.8877 307.6159ZM388.6677 307.6159C371.0977 317.3859 350.0977 312.0159 340.8177 294.9259C330.5677 276.8559 336.4277 255.8559 353.5177 246.5859C370.1177 236.8159 392.0877 242.1859 400.8777 259.2759C411.6177 275.8759 405.7577 297.3659 388.6677 307.6159ZM498.0477 671.8759C402.3477 671.8759 324.2177 593.7459 324.2177 498.0459C324.2177 402.3459 402.3477 324.2159 498.0477 324.2159C593.7477 324.2159 671.8777 402.3459 671.8777 498.0459C671.8777 593.7459 593.7477 671.8759 498.0477 671.8759ZM689.4577 388.6759C679.6877 370.6059 685.0577 349.6059 702.1477 340.3359C720.2177 329.5859 741.2077 335.9359 750.4877 353.0259C760.2577 369.6259 754.8877 391.6059 737.3077 400.8759C721.1877 411.1359 699.2177 405.2759 689.4577 388.6759ZM308.1077 388.6759C297.8477 405.2759 276.3677 411.1359 259.2777 400.8759C242.6777 391.1159 237.3077 369.6259 247.0677 353.0259C256.3477 335.9359 278.3177 329.5859 295.4077 340.3359C312.4977 349.6059 317.8677 370.6059 308.1077 388.6759ZM719.2377 498.0459C719.2377 478.5159 734.3777 463.3759 754.3977 463.3759C773.9277 463.3759 789.5477 478.5159 789.5477 498.0459C789.5477 517.5759 773.9277 533.2059 754.3977 533.2059C734.3777 533.2059 719.2377 517.5759 719.2377 498.0459ZM278.3177 498.5359C278.3177 517.5759 263.1877 533.2059 243.1677 533.2059C223.6377 533.2059 208.0077 517.5759 208.0077 498.0459C208.0077 478.5159 223.6377 463.3759 243.1677 463.3759C263.1877 463.3759 278.3177 479.0059 278.3177 498.5359ZM308.1077 607.9059C317.8677 625.9759 312.4977 646.9759 295.4077 656.2459C277.3477 666.5059 256.3477 660.6459 247.0677 643.5559C237.3077 626.9559 242.6777 604.9759 259.7677 595.7059C276.3677 585.4459 297.8477 590.8159 308.1077 607.9059ZM689.4577 608.3959C699.7077 590.8159 721.1877 585.4459 737.7977 595.7059C754.8877 605.4659 760.2577 626.9559 750.4877 643.5559C741.2077 660.6459 719.2377 666.5059 702.1477 656.2459C685.0577 646.9759 679.6877 625.9759 689.4577 608.3959ZM608.3977 688.9659C626.4677 679.1959 647.4577 684.5659 656.7377 701.6559C666.5077 719.7259 661.1377 740.7259 644.0477 749.9959C627.4377 759.7659 605.4677 754.3959 596.1877 736.8159C585.9377 720.7059 591.3077 698.7259 608.3977 688.9659ZM388.6677 688.9659C405.7577 699.2159 411.6177 720.7059 400.8777 737.3059C391.5977 754.3959 370.1177 759.7659 353.5177 749.9959C336.4277 740.7259 330.0777 718.7459 340.8177 701.6559C350.0977 684.5659 371.0977 679.1959 388.6677 688.9659ZM498.5377 718.7459C518.0677 718.7459 533.6877 733.8859 533.6877 753.9059C533.6877 773.4359 518.0677 789.0659 498.5377 789.0659C479.0077 789.0659 463.8677 773.4359 463.8677 753.9059C463.8677 733.8859 479.0077 718.7459 498.5377 718.7459Z"/>
</svg>