<?xml version="1.0" encoding="UTF-8" standalone="no"?>
<svg xmlns="http://www.w3.org/2000/svg"
     width="996.09375" height="996.09375"
     viewBox="0 0 996.09375 996.09375"
     fill="currentColor">
  <path d="M498.0477 996.0959C770.5077 996.0959 996.0977 770.0159 996.0977 498.0459C996.0977 225.5859 770.0177 -0.0041 497.5577 -0.0041C225.5877 -0.0041 -0.0023 225.5859 -0.0023 498.0459C-0.0023 770.0159 226.0777 996.0959 498.0477 996.0959ZM498.0477 913.0859C267.5777 913.0859 83.4977 728.5159 83.4977 498.0459C83.4977 267.5759 267.0877 83.0059 497.5577 83.0059C728.0277 83.0059 913.0877 267.5759 913.0877 498.0459C913.0877 728.5159 728.5177 913.0859 498.0477 913.0859ZM498.5377 285.6459C518.5577 285.6459 533.6877 270.0159 533.6877 250.4859C533.6877 230.9559 518.5577 214.8459 498.5377 214.8459C479.0077 214.8459 463.3777 230.9559 463.3777 250.4859C463.3777 270.0159 479.0077 285.6459 498.5377 285.6459ZM604.4877 313.9659C622.0677 324.2159 644.0477 318.3559 652.8277 301.2659C663.0877 284.6659 657.2277 262.6959 640.1377 253.4159C623.5377 243.1659 602.0477 248.5359 592.2877 265.6259C582.0277 282.7159 587.8877 304.1959 604.4877 313.9659ZM393.0677 313.9659C409.6677 304.1959 415.5277 282.7159 405.2777 266.1159C395.9977 248.5359 374.0277 243.1659 357.4177 253.4159C339.8477 262.6959 334.4777 284.1759 344.2377 301.2659C353.5177 318.3559 374.9977 324.2159 393.0677 313.9659ZM498.0477 666.5059C590.8177 666.5059 666.5077 590.8159 666.5077 498.0459C666.5077 405.2759 590.8177 329.5859 498.0477 329.5859C405.2777 329.5859 329.5877 405.2759 329.5877 498.0459C329.5877 590.8159 405.2777 666.5059 498.0477 666.5059ZM314.4577 392.5759C324.7077 374.5159 318.8477 353.0259 301.7577 343.7459C284.6677 333.4959 263.1877 339.3559 253.9077 356.9359C243.1677 373.5359 249.0277 395.0159 266.1177 404.7859C283.2077 415.0359 304.6877 409.1759 314.4577 392.5759ZM683.1077 392.5759C692.8677 409.1759 714.3577 415.0359 730.9577 404.7859C748.0477 395.5059 753.9077 373.5359 743.6477 356.9359C734.3777 339.3559 712.8877 333.4959 695.7977 343.7459C678.7077 353.0259 672.8477 374.5159 683.1077 392.5759ZM711.4277 498.0459C711.4277 517.5759 727.0477 533.2059 746.5777 533.2059C766.1177 533.2059 781.7377 518.0659 781.7377 498.0459C781.7377 478.5159 766.1177 462.8859 746.5777 462.8859C727.0477 462.8859 711.4277 478.5159 711.4277 498.0459ZM286.1377 498.5359C286.1377 478.5159 270.5077 462.8859 250.9777 462.8859C231.4477 462.8859 215.3277 478.5159 215.3277 498.0459C215.3277 518.0659 231.4477 533.2059 250.9777 533.2059C270.5077 533.2059 286.1377 518.0659 286.1377 498.5359ZM683.1077 604.0059C672.8477 621.5859 678.7077 643.5559 695.7977 652.3459C712.3977 662.5959 734.3777 657.2259 743.6477 639.6459C753.9077 623.0459 748.0477 601.5659 731.4477 591.7959C714.3577 581.5459 692.8677 587.4059 683.1077 604.0059ZM314.4577 604.0059C304.6877 587.4059 283.2077 581.5459 266.5977 591.7959C249.0277 601.0759 243.1677 623.0459 253.9077 639.6459C263.1877 657.2259 284.1777 662.5959 301.7577 652.3459C318.8477 643.5559 324.7077 621.5859 314.4577 604.0059ZM604.4877 682.6159C587.8877 692.3859 582.0277 713.8659 592.2877 730.4659C601.5577 747.5559 623.5377 753.4159 640.1377 743.1659C657.2277 733.8859 662.5977 712.4059 652.8277 695.3159C644.0477 678.2259 622.0677 672.3659 604.4877 682.6159ZM393.0677 682.6159C374.9977 672.3659 353.5177 678.2259 344.2377 695.3159C333.9877 711.9159 339.8477 733.8859 357.4177 743.1659C374.0277 753.4159 395.5077 747.5559 405.2777 730.9559C415.5277 713.8659 409.6677 692.3859 393.0677 682.6159ZM498.5377 710.9359C479.0077 710.9359 463.3777 726.5659 463.3777 746.0959C463.3777 765.6259 479.0077 781.2459 498.5377 781.2459C518.5577 781.2459 533.6877 765.6259 533.6877 746.0959C533.6877 726.5659 518.5577 710.9359 498.5377 710.9359Z"/>
</svg>