<?xml version="1.0" encoding="UTF-8" standalone="no"?>
<svg xmlns="http://www.w3.org/2000/svg"
     width="1158.69140625" height="754.8828125"
     viewBox="0 0 1158.69140625 754.8828125"
     fill="currentColor">
  <path d="M114.7483 754.8822H1043.9483C1112.7883 754.8822 1158.6883 708.9822 1158.6883 640.1322V114.7422C1158.6883 45.9022 1112.7883 0.0022 1043.9483 0.0022H114.7483C45.8983 0.0022 -0.0017 45.9022 -0.0017 114.7422V640.1322C-0.0017 708.9822 45.8983 754.8822 114.7483 754.8822ZM115.7183 676.2722C93.2583 676.2722 78.6183 660.6422 78.6183 636.7222V118.1622C78.6183 94.2422 93.2583 78.6122 115.7183 78.6122H771.4883V676.2722ZM1042.9683 78.6122C1065.4283 78.6122 1080.0783 94.2422 1080.0783 118.1622V496.5822H825.6883V78.6122ZM182.1283 618.6522H662.5983C690.4283 618.6522 708.4983 600.5822 708.4983 572.7522V182.1322C708.4983 154.2922 690.4283 136.2322 662.5983 136.2322H182.1283C154.2983 136.2322 136.2283 154.2922 136.2283 182.1322V572.7522C136.2283 600.5822 154.2983 618.6522 182.1283 618.6522ZM882.3283 231.4422H1023.4383C1028.3183 231.4422 1032.7183 227.5422 1032.7183 222.6522V145.5122C1032.7183 140.6222 1028.3183 136.2322 1023.4383 136.2322H882.3283C877.4383 136.2322 873.0483 140.6222 873.0483 145.5122V222.6522C873.0483 227.5422 877.4383 231.4422 882.3283 231.4422ZM203.6183 564.4522C196.2883 564.4522 190.4283 559.0822 190.4283 551.2722V203.6122C190.4283 195.8022 196.2883 190.4322 203.6183 190.4322H641.1183C648.4383 190.4322 654.2983 195.8022 654.2983 203.6122V551.2722C654.2983 559.0822 648.4383 564.4522 641.1183 564.4522ZM897.9483 312.9922H1007.8083C1022.4583 312.9922 1032.7183 303.2222 1032.7183 288.5722C1032.7183 273.4422 1022.4583 263.6722 1007.8083 263.6722H897.9483C883.2983 263.6722 873.0483 273.4422 873.0483 288.5722C873.0483 303.2222 883.2983 312.9922 897.9483 312.9922ZM897.9483 395.5122H1007.8083C1022.4583 395.5122 1032.7183 385.2522 1032.7183 370.6022C1032.7183 355.9522 1022.4583 346.1922 1007.8083 346.1922H897.9483C883.2983 346.1922 873.0483 355.9522 873.0483 370.6022C873.0483 385.2522 883.2983 395.5122 897.9483 395.5122ZM1080.0783 636.7222C1080.0783 660.6422 1065.4283 676.2722 1042.9683 676.2722H825.6883V550.7822H1080.0783Z"/>
</svg>