<?xml version="1.0" encoding="UTF-8" standalone="no"?>
<svg xmlns="http://www.w3.org/2000/svg"
     width="898.92578125" height="898.92578125"
     viewBox="0 0 898.92578125 898.92578125"
     fill="currentColor">
  <path d="M153.3183 898.9295H745.6083C848.1483 898.9295 898.9283 848.1495 898.9283 747.5595V151.3695C898.9283 50.7795 848.1483 -0.0005 745.6083 -0.0005H153.3183C51.2683 -0.0005 -0.0017 50.2895 -0.0017 151.3695V747.5595C-0.0017 848.6295 51.2683 898.9295 153.3183 898.9295ZM289.5483 630.8595C270.9983 630.8595 257.8083 618.1595 257.8083 600.0995V314.4495C257.8083 295.4095 270.5083 282.7195 288.0883 282.7195C305.1783 282.7195 317.8683 293.9495 317.8683 315.9195V321.7795C333.0083 293.9495 356.4483 281.2495 385.2583 281.2495C416.9883 281.2495 442.3783 294.9195 456.0583 323.7295L517.5783 173.8295C522.4583 162.5995 529.7883 155.7595 541.5083 155.7595C555.1783 155.7595 565.9183 165.5295 565.9183 178.7095C565.9183 183.5895 564.4483 188.4795 562.9883 192.3795L524.4183 285.1595C531.2483 282.7195 538.5783 281.2495 546.3883 281.2495C604.9783 281.2495 642.5783 322.2695 642.5783 389.6495V598.6295C642.5783 618.1595 629.3983 630.8595 611.3283 630.8595C593.2583 630.8595 580.5683 618.1595 580.5683 598.6295V394.5295C580.5683 359.8595 562.4983 337.8895 531.7383 337.8895C500.4883 337.8895 481.4483 360.8395 481.4483 396.4795V598.6295C481.4483 618.1595 468.7483 630.8595 450.6883 630.8595C432.6183 630.8595 419.4383 618.1595 419.4383 598.6295V554.6895L358.3983 723.6295C354.0083 735.3495 345.6983 742.1895 334.4683 742.1895C320.7983 742.1895 310.5483 731.9295 310.5483 718.7495C310.5483 713.8695 311.5283 708.9795 313.4783 704.5895L419.4383 411.6195V391.1095C419.4383 359.8595 399.8983 337.3995 372.0683 337.3995C339.8483 337.3995 320.7983 362.3095 320.7983 398.9295V598.6295C320.7983 618.1595 307.6183 630.8595 289.5483 630.8595Z"/>
</svg>