<?xml version="1.0" encoding="UTF-8" standalone="no"?>
<svg xmlns="http://www.w3.org/2000/svg"
     width="996.09375" height="996.09375"
     viewBox="0 0 996.09375 996.09375"
     fill="currentColor">
  <path d="M498.0477 996.0959C770.5077 996.0959 996.0977 770.0159 996.0977 498.0459C996.0977 225.5859 770.0177 -0.0041 497.5577 -0.0041C225.5877 -0.0041 -0.0023 225.5859 -0.0023 498.0459C-0.0023 770.0159 226.0777 996.0959 498.0477 996.0959ZM498.0477 913.0859C267.5777 913.0859 83.4977 728.5159 83.4977 498.0459C83.4977 267.5759 267.0877 83.0059 497.5577 83.0059C728.0277 83.0059 913.0877 267.5759 913.0877 498.0459C913.0877 728.5159 728.5177 913.0859 498.0477 913.0859ZM342.2877 674.3159C359.8677 674.3159 372.0677 662.1059 372.0677 643.5559V450.1959C372.0677 414.0659 391.1177 390.1359 422.3677 390.1359C449.2177 390.1359 468.2577 411.6259 468.2577 442.3859V461.9159L365.7277 746.0959C363.7677 750.4859 362.7977 754.8859 362.7977 759.7659C362.7977 772.4559 372.5577 782.2259 385.7377 782.2259C396.9777 782.2259 404.7877 775.8759 409.1777 764.6459L468.2577 600.0959V643.5559C468.2577 662.1059 480.4677 674.3159 498.0477 674.3159C516.1177 674.3159 528.3177 662.1059 528.3177 643.5559V447.7559C528.3177 412.5959 546.8777 390.6259 577.1477 390.6259C606.9377 390.6259 624.5077 411.6259 624.5077 445.7959V643.5559C624.5077 662.1059 636.7177 674.3159 654.2977 674.3159C671.8777 674.3159 684.5677 662.1059 684.5677 643.5559V440.9159C684.5677 375.4859 647.9477 335.9359 591.3077 335.9359C583.0077 335.9359 576.1677 337.4059 569.8277 339.8459L606.9377 249.5159C608.3977 245.6059 609.8677 241.2059 609.8677 236.3259C609.8677 223.6359 599.1177 214.3559 585.9377 214.3559C575.1977 214.3559 567.8677 220.7059 563.4777 231.4459L503.9077 376.9559C489.7477 349.1259 465.8177 335.9359 434.5677 335.9359C407.2277 335.9359 384.2777 348.1459 369.6277 374.9959V369.1359C369.6277 348.1459 357.4177 337.4059 340.8177 337.4059C323.7277 337.4059 311.5277 349.6059 311.5277 367.6759V644.5359C311.5277 662.1059 324.2177 674.3159 342.2877 674.3159Z"/>
</svg>