<?xml version="1.0" encoding="UTF-8" standalone="no"?>
<svg xmlns="http://www.w3.org/2000/svg"
     width="898.92578125" height="898.92578125"
     viewBox="0 0 898.92578125 898.92578125"
     fill="currentColor">
  <path d="M153.3183 898.9295H745.6083C848.1483 898.9295 898.9283 848.1495 898.9283 747.5595V151.3695C898.9283 50.7795 848.1483 -0.0005 745.6083 -0.0005H153.3183C51.2683 -0.0005 -0.0017 50.2895 -0.0017 151.3695V747.5595C-0.0017 848.6295 51.2683 898.9295 153.3183 898.9295ZM154.2983 820.3095C105.4683 820.3095 78.6183 794.4295 78.6183 743.6495V155.2695C78.6183 104.4895 105.4683 78.6095 154.2983 78.6095H744.6283C792.9683 78.6095 820.3083 104.4895 820.3083 155.2695V743.6495C820.3083 794.4295 792.9683 820.3095 744.6283 820.3095ZM294.4383 624.9995C312.0083 624.9995 324.7083 612.7895 324.7083 594.2395V400.8795C324.7083 364.7495 343.2583 340.8195 374.5083 340.8195C401.3683 340.8195 420.4083 362.3095 420.4083 393.0695V412.5995L317.8683 696.7795C315.9183 701.1695 314.9383 705.5695 314.9383 710.4495C314.9383 723.1395 324.7083 732.9095 337.8883 732.9095C349.1183 732.9095 356.9383 726.5595 361.3283 715.3295L420.4083 550.7795V594.2395C420.4083 612.7895 433.1083 624.9995 450.6883 624.9995C468.2583 624.9995 480.4683 612.7895 480.4683 594.2395V398.4395C480.4683 363.2795 499.0283 341.3095 529.2983 341.3095C559.0783 341.3095 576.6583 362.3095 576.6583 396.4795V594.2395C576.6583 612.7895 588.8683 624.9995 606.4483 624.9995C624.0283 624.9995 636.7183 612.7895 636.7183 594.2395V391.5995C636.7183 326.1695 600.0983 286.6195 543.4583 286.6195C535.6483 286.6195 528.3183 288.0895 521.9683 290.5295L559.0783 200.1995C560.5483 196.2895 562.0083 191.8895 562.0083 187.0095C562.0083 174.3195 551.7583 165.0395 538.5783 165.0395C527.3483 165.0395 520.0183 171.3895 515.6283 182.1295L456.0583 327.6395C442.3783 299.8095 417.9683 286.6195 387.2083 286.6195C359.3783 286.6195 336.4283 298.8295 321.7783 325.6795V319.8195C321.7783 298.8295 309.5683 288.0895 292.9683 288.0895C275.8783 288.0895 263.6683 300.2895 263.6683 318.3595V595.2195C263.6683 612.7895 276.3683 624.9995 294.4383 624.9995Z"/>
</svg>