<?xml version="1.0" encoding="UTF-8" standalone="no"?>
<svg xmlns="http://www.w3.org/2000/svg"
     width="700.68359375" height="1122.55859375"
     viewBox="0 0 700.68359375 1122.55859375"
     fill="currentColor">
  <path d="M43.4583 873.0486C70.7983 873.0486 87.8883 854.4886 87.8883 828.1286V472.1686C87.8883 385.7386 131.3483 315.9186 204.5883 315.9186C273.9283 315.9186 306.1483 369.6286 306.1483 441.4086V464.3586L48.3383 1075.1986C45.4083 1080.5686 43.9483 1087.8886 43.9483 1094.2386C43.9483 1111.8186 56.6383 1122.5586 73.7283 1122.5586C91.3083 1122.5586 99.6083 1112.3086 105.9583 1097.1686L306.1483 623.5386V828.1286C306.1483 854.4886 322.7583 873.0486 349.6083 873.0486C376.9483 873.0486 394.0383 854.4886 394.0383 828.1286V462.3986C394.0383 379.3986 436.5283 315.9186 509.7683 315.9186C582.5183 315.9186 612.7883 369.1386 612.7883 449.2186V828.1286C612.7883 854.4886 629.3983 873.0486 656.2483 873.0486C683.5983 873.0486 700.6883 854.4886 700.6883 828.1286V429.6886C700.6883 316.4086 639.1583 238.2786 531.7383 238.2786C506.8383 238.2786 483.8883 242.6786 463.3783 251.4686L549.3183 47.8486C552.2483 41.9886 553.7083 34.6686 553.7083 28.8086C553.7083 11.2286 541.0183 -0.0014 523.4383 -0.0014C507.3283 -0.0014 498.0483 10.2586 491.6983 25.3886L363.2783 330.0786C341.7983 271.9686 295.4083 238.2786 226.0783 238.2786C152.3483 238.2786 102.0483 285.1586 84.9583 355.4686H83.0083V284.6686C83.0083 258.7886 64.9383 240.7186 41.5083 240.7186C16.5983 240.7186 -0.0017 258.7886 -0.0017 284.6686V828.1286C-0.0017 854.4886 16.5983 873.0486 43.4583 873.0486Z"/>
</svg>