<?xml version="1.0" encoding="UTF-8" standalone="no"?>
<svg xmlns="http://www.w3.org/2000/svg"
     width="1434.08203125" height="898.92578125"
     viewBox="0 0 1434.08203125 898.92578125"
     fill="currentColor">
  <path d="M153.3183 898.9261H998.0483C1100.5883 898.9261 1151.3683 848.6361 1151.3683 748.0461V275.8761C1151.3683 175.2961 1100.5883 124.9961 998.0483 124.9961H930.6683V59.5661C930.6683 22.4561 909.1783 -0.0039 871.5783 -0.0039H727.5383C690.4283 -0.0039 668.9483 22.4561 668.9483 59.5661V124.9961H482.9083V59.5661C482.9083 22.4561 461.4283 -0.0039 423.8283 -0.0039H279.7883C242.1883 -0.0039 221.1883 22.4561 221.1883 59.5661V124.9961H153.3183C51.2683 124.9961 -0.0017 175.2961 -0.0017 275.8761V748.0461C-0.0017 848.6361 51.2683 898.9261 153.3183 898.9261ZM1370.1183 560.5461C1394.0383 560.5461 1411.1283 543.9461 1412.1083 519.0461L1421.8783 173.3361C1422.8483 142.0861 1402.3483 121.0961 1370.1183 121.0961C1337.8883 121.0961 1317.3783 142.0861 1318.3583 173.3361L1328.6183 519.0461C1329.5883 543.9461 1346.1883 560.5461 1370.1183 560.5461ZM78.6183 743.6561V280.2761C78.6183 229.4961 105.4683 203.6161 154.2983 203.6161H997.0683C1045.4083 203.6161 1072.7583 229.4961 1072.7583 280.2761V743.6561C1072.7583 794.4361 1045.4083 820.3161 997.0683 820.3161H154.2983C105.4683 820.3161 78.6183 794.4361 78.6183 743.6561ZM799.3183 659.1761C819.3383 659.1761 834.9583 643.5561 834.9583 623.5361V547.8561H910.6483C930.6683 547.8561 946.7783 532.2261 946.7783 512.2061C946.7783 491.6961 930.6683 476.0761 910.6483 476.0761H834.9583V400.3861C834.9583 380.3661 819.3383 364.2561 799.3183 364.2561C779.2983 364.2561 763.1883 380.3661 763.1883 400.3861V476.0761H687.4983C667.4783 476.0761 651.8583 491.6961 651.8583 512.2061C651.8583 532.2261 667.4783 547.8561 687.4983 547.8561H763.1883V623.5361C763.1883 643.5561 779.2983 659.1761 799.3183 659.1761ZM249.5083 547.8561H453.1283C473.1483 547.8561 488.7683 532.2261 488.7683 512.2061C488.7683 491.6961 473.1483 476.0761 453.1283 476.0761H249.5083C229.4883 476.0761 213.3783 491.6961 213.3783 512.2061C213.3783 532.2261 229.4883 547.8561 249.5083 547.8561ZM1370.1183 777.3461C1404.7883 777.3461 1434.0783 749.0261 1434.0783 715.8161C1434.0783 682.1261 1405.2783 654.2961 1370.1183 654.2961C1334.9583 654.2961 1306.1483 682.1261 1306.1483 715.8161C1306.1483 749.0261 1335.4483 777.3461 1370.1183 777.3461Z"/>
</svg>