<?xml version="1.0" encoding="UTF-8" standalone="no"?>
<svg xmlns="http://www.w3.org/2000/svg"
     width="1107.3672103163326" height="1107.3672103163324"
     viewBox="0 0 1107.3672103163326 1107.3672103163324"
     fill="currentColor">
  <path d="M54.7573 661.6849L445.8673 1052.7949C518.1273 1125.0649 589.4173 1125.5549 661.1973 1054.2649L1054.2673 660.7049C1125.5573 589.4249 1125.0673 517.6449 1052.7973 445.3749L662.1773 54.7549C589.9073 -17.5151 518.6173 -18.4851 446.8473 53.2849L53.2873 446.3549C-18.4927 518.1349 -17.5127 589.4249 54.7573 661.6849ZM111.3973 607.4849C76.7273 572.3349 75.7473 535.7049 111.8773 499.5749L499.5773 111.8849C535.7073 75.7449 572.3273 76.2349 607.4873 111.3949L996.1573 500.0649C1030.8273 534.7349 1031.8073 571.8449 995.6673 607.9749L607.9773 995.6749C571.8473 1031.8049 534.2473 1030.8249 500.0673 996.6449ZM362.3673 595.2749H745.1773C772.5273 595.2749 791.5673 580.6349 791.5673 554.7549C791.5673 528.3849 773.9873 513.2449 745.1773 513.2449H362.3673C334.0473 513.2449 315.4973 528.3849 315.4973 554.7549C315.4973 580.6349 335.0273 595.2749 362.3673 595.2749Z"/>
</svg>