<?xml version="1.0" encoding="UTF-8" standalone="no"?>
<svg xmlns="http://www.w3.org/2000/svg"
     width="1361.328125" height="898.0039538761918"
     viewBox="0 0 1361.328125 898.0039538761918"
     fill="currentColor">
  <path d="M-0.0017 406.2487C-0.0017 604.0088 111.3283 711.4288 305.6683 719.2388C298.3383 738.2787 292.9683 759.7688 292.9683 785.6487C292.9683 824.7088 305.1783 854.0088 330.5683 886.2288C353.0283 915.0388 397.9483 885.7388 374.0283 854.4888C354.4883 828.1288 346.6783 812.0088 346.6783 781.7388C346.6783 758.7888 354.0083 738.7688 363.7683 719.7288H539.0583C531.7383 738.2787 526.3683 759.7688 526.3683 785.6487C526.3683 824.7088 538.5783 854.0088 563.9683 886.2288C586.4283 915.0388 630.3683 885.7388 606.9383 854.4888C586.9183 828.1288 579.5883 812.0088 579.5883 781.7388C579.5883 758.7888 586.9183 738.7688 596.1883 719.7288H771.4883C764.1583 738.2787 758.7883 759.7688 758.7883 785.6487C758.7883 824.7088 770.9983 854.0088 796.3883 886.2288C818.8483 915.0388 863.2783 885.7388 840.3283 854.4888C820.3083 828.1288 812.9883 812.0088 812.9883 781.7388C812.9883 758.7888 819.8283 738.7688 829.0983 719.7288H1070.7983C1145.9983 719.7288 1209.9583 727.0488 1269.5283 742.1888C1320.7983 754.8788 1361.3283 733.8888 1361.3283 681.6388V447.7588C1361.3283 414.5488 1337.3983 390.1388 1303.7083 390.1388H1177.2483C1136.7183 390.1388 1116.6983 372.5587 1120.6083 334.4688L1135.2583 191.4088C1147.4583 72.2687 1079.5883 -0.0013 946.7783 -0.0013C792.9683 0.4887 509.2783 6.3487 347.1683 25.3887C124.9983 52.7387 -0.0017 188.4788 -0.0017 406.2487ZM78.6183 406.2487C78.6183 233.8888 176.7583 124.9987 354.0083 104.4887C514.1583 86.4288 793.4583 78.6087 946.7783 78.6087C1031.2483 78.6087 1065.4283 112.7888 1057.6183 182.6187L1019.0383 529.2988C1009.7683 611.3288 974.6083 641.1088 884.7683 641.1088H868.6483C875.4883 622.0688 880.3683 601.0788 880.3683 575.6788C880.3683 492.1888 819.3383 470.2188 816.8983 374.5088H860.8383C879.3983 374.5088 887.2083 355.9588 877.9283 342.7688L809.0783 240.7188C804.1983 233.3988 797.8483 229.9788 790.0383 229.9788C781.7383 229.9788 776.8583 232.9088 771.4883 240.7188L702.6383 342.7688C693.8483 355.9588 701.6583 374.5088 719.2383 374.5088H763.1883C765.1383 496.0888 826.6583 511.2288 826.6583 575.6788C826.6583 601.0788 820.3083 621.5788 811.5283 641.1088H635.7383C642.5783 622.0688 647.4583 601.0788 647.4583 575.6788C647.4583 492.1888 586.9183 470.2188 584.4683 374.5088H627.4383C645.9983 374.5088 654.2983 355.9588 645.0183 342.7688L576.1683 240.7188C570.7983 233.3988 565.4283 229.9788 557.1283 229.9788C549.3183 229.9788 543.4583 233.3988 538.0883 240.7188L469.2383 342.7688C460.4483 355.9588 468.7483 374.5088 486.8183 374.5088H530.7583C532.7183 496.0888 593.7483 511.2288 593.7483 575.6788C593.7483 601.0788 587.3983 621.5788 578.6183 641.1088H403.3183C410.1583 622.0688 415.0383 601.0788 415.0383 575.6788C415.0383 492.1888 354.0083 470.2188 351.5583 374.5088H395.0183C413.0883 374.5088 421.3883 356.4488 411.6183 342.7688L343.2583 240.7188C337.8883 232.9088 332.5183 229.9788 324.2183 229.9788C316.4083 229.9788 310.5483 233.3988 305.1783 240.7188L236.8183 342.7688C228.0283 355.9588 235.8383 374.5088 253.4183 374.5088H297.8483C299.8083 496.0888 361.3283 511.2288 361.3283 575.6788C361.3283 601.0788 354.9783 621.5788 345.6983 641.1088H327.6383C170.8983 641.1088 78.6183 560.0588 78.6183 406.2487Z"/>
</svg>