<?xml version="1.0" encoding="UTF-8" standalone="no"?>
<svg xmlns="http://www.w3.org/2000/svg"
     width="963.37890625" height="968.75"
     viewBox="0 0 963.37890625 968.75"
     fill="currentColor">
  <path d="M755.3677 654.2941C491.2077 654.2941 322.2677 488.7741 322.2677 224.1241C322.2677 169.4341 335.4477 91.3041 353.0277 50.7841C357.4177 39.5541 358.3977 32.7141 358.3977 27.8341C358.3977 14.6441 348.6377 0.0041 329.5877 0.0041C324.2177 0.0041 312.4977 1.4641 301.7577 5.3741C121.0977 77.6341 -0.0023 271.9741 -0.0023 476.5641C-0.0023 763.6741 218.7477 968.7541 504.8877 968.7541C715.3277 968.7541 897.4577 841.3041 958.0077 682.1241C962.3977 670.8941 963.3777 659.1841 963.3777 654.7841C963.3777 636.7141 948.2377 624.5141 934.5677 624.5141C928.2277 624.5141 922.8477 625.9741 913.5777 628.9041C875.9777 641.1141 815.4277 654.2941 755.3677 654.2941Z"/>
</svg>