<?xml version="1.0" encoding="UTF-8" standalone="no"?>
<svg xmlns="http://www.w3.org/2000/svg"
     width="977.05078125" height="1014.16015625"
     viewBox="0 0 977.05078125 1014.16015625"
     fill="currentColor">
  <path d="M555.6683 237.3058C561.5283 237.3058 564.4483 233.8858 565.4283 228.5158C580.5683 146.9758 580.0783 145.0158 665.0383 128.9058C670.4083 127.9258 674.3183 124.5158 674.3183 118.6558C674.3183 112.7958 670.4083 109.3758 665.0383 108.3958C580.0783 91.3058 583.0083 89.3558 565.4283 8.7858C564.4483 3.4158 561.5283 -0.0042 555.6683 -0.0042C549.8083 -0.0042 546.3883 3.4158 545.4083 8.7858C528.3183 89.3558 531.2483 91.3058 446.2883 108.3958C440.4283 109.3758 437.0083 112.7958 437.0083 118.6558C437.0083 124.5158 440.4283 127.9258 446.2883 128.9058C531.2483 145.9958 530.2783 146.9758 545.4083 228.5158C546.3883 233.8858 549.8083 237.3058 555.6683 237.3058ZM426.7583 1014.1558C605.4683 1014.1558 750.4883 924.3158 815.9183 770.9958C824.7083 750.4858 821.7783 733.8858 812.4983 724.6058C804.1983 715.8158 789.0583 714.3558 771.9683 720.7058C734.8683 735.3558 690.4283 744.1358 634.2783 744.1358C415.5283 744.1358 275.3883 607.4258 275.3883 393.5558C275.3883 334.4758 286.6183 275.3858 301.7583 244.6258C311.0383 225.5858 310.5483 208.4958 301.7583 198.7258C292.4783 187.9858 275.8783 184.5658 253.4183 193.3558C103.5183 254.3958 -0.0017 411.1358 -0.0017 593.2658C-0.0017 831.0558 175.2883 1014.1558 426.7583 1014.1558ZM789.0583 567.8758C798.3383 567.8758 804.6883 561.5258 805.6683 551.7558C821.7783 421.3858 828.1283 417.9658 960.4483 396.4858C970.6983 395.0158 977.0483 389.6458 977.0483 380.3758C977.0483 371.0958 970.6983 365.2358 962.3983 363.7658C829.0983 338.3758 821.7783 338.8658 805.6683 208.4958C804.6883 198.7258 798.3383 192.3858 789.0583 192.3858C780.2783 192.3858 773.9283 198.7258 772.4583 208.0058C755.8583 340.3358 750.9783 344.7258 615.7183 363.7658C607.4183 364.7458 601.0783 371.0958 601.0783 380.3758C601.0783 389.1558 607.4183 395.0158 615.7183 396.4858C750.9783 422.3658 755.3683 422.3658 772.4583 552.7358C773.9283 561.5258 780.2783 567.8758 789.0583 567.8758ZM427.7383 939.4558C219.7283 939.4558 74.7083 787.5958 74.7083 587.4058C74.7083 464.8458 131.8383 355.9558 222.6583 286.6258C210.4483 318.8458 203.6183 367.1858 203.6183 414.0658C203.6183 654.7858 369.6283 815.9158 615.7183 815.9158C659.1783 815.9158 699.2183 810.0558 720.2183 803.2258C659.1783 887.6958 550.2883 939.4558 427.7383 939.4558Z"/>
</svg>