<?xml version="1.0" encoding="UTF-8" standalone="no"?>
<svg xmlns="http://www.w3.org/2000/svg"
     width="996.09375" height="996.09375"
     viewBox="0 0 996.09375 996.09375"
     fill="currentColor">
  <path d="M498.0477 996.0977C770.5077 996.0977 996.0977 770.5077 996.0977 498.0477C996.0977 226.0777 770.0177 -0.0023 497.5577 -0.0023C225.5877 -0.0023 -0.0023 226.0777 -0.0023 498.0477C-0.0023 770.5077 226.0777 996.0977 498.0477 996.0977ZM641.1177 468.7477C635.2577 468.7477 630.8577 463.8677 629.8877 458.0077C618.6477 368.6477 614.2577 367.1877 520.9977 349.6077C514.6477 349.1177 510.7377 344.7277 510.7377 337.8877C510.7377 332.0277 514.6477 327.6377 520.9977 327.1477C614.2577 313.9677 617.1877 309.0777 629.8877 218.7477C630.8577 212.3977 635.2577 208.0077 641.1177 208.0077C646.9777 208.0077 651.3677 212.3977 652.3477 218.7477C665.5277 307.6177 668.9477 309.0777 761.2277 327.1477C767.0877 327.6377 771.4877 332.0277 771.4877 337.8877C771.4877 345.2177 767.0877 349.1177 760.2577 349.6077C668.4577 363.2777 663.5777 367.6777 652.3477 458.0077C651.3677 463.8677 646.9777 468.7477 641.1177 468.7477ZM490.7277 789.5477C335.9377 789.5477 217.7777 678.7077 217.7777 523.4377C217.7777 413.0877 283.2077 307.6177 380.8577 269.0477C402.8277 260.2577 416.0177 274.4177 407.7177 292.9677C399.8977 315.9177 391.5977 356.9377 391.5977 386.7177C391.5977 529.7877 483.3977 619.6277 625.9777 619.6277C658.2077 619.6277 691.8977 612.7977 711.9177 605.9577C732.4177 599.1177 743.6477 614.7477 734.8677 634.7677C701.6577 720.2177 604.0077 789.5477 490.7277 789.5477Z"/>
</svg>