<?xml version="1.0" encoding="UTF-8" standalone="no"?>
<svg xmlns="http://www.w3.org/2000/svg"
     width="1126.953125" height="1075.1029826977"
     viewBox="0 0 1126.953125 1075.1029826977"
     fill="currentColor">
  <path d="M271.4883 580.961H880.8583C896.4883 561.431 909.1783 539.461 919.9183 515.041C928.2183 496.001 926.2683 479.401 916.5083 469.141C907.7183 460.361 893.0683 458.891 875.9783 465.241C843.2583 477.931 804.6883 484.281 757.3283 484.281C568.8483 484.281 448.7283 367.581 448.7283 183.501C448.7283 134.671 457.5183 82.431 471.1883 55.081C479.9783 37.991 479.0083 21.391 470.2183 10.161C461.4283 -0.579 443.3583 -3.509 423.3383 4.791C290.0383 58.991 199.7083 198.151 199.7083 357.821C199.7083 442.781 225.0983 519.931 271.4883 580.961ZM104.4883 699.611H1096.1883C1113.2783 699.611 1126.9483 686.431 1126.9483 668.851C1126.9483 651.271 1113.2783 638.091 1096.1883 638.091H104.4883C86.9183 638.091 73.7283 651.271 73.7283 668.851C73.7283 686.431 86.9183 699.611 104.4883 699.611ZM30.7583 887.601H1022.4583C1039.5483 887.601 1053.2183 873.931 1053.2183 856.351C1053.2183 838.771 1039.5483 825.591 1022.4583 825.591H30.7583C13.6683 825.591 -0.0017 838.771 -0.0017 856.351C-0.0017 873.931 13.6683 887.601 30.7583 887.601ZM104.4883 1075.101H1096.1883C1113.2783 1075.101 1126.9483 1061.921 1126.9483 1044.341C1126.9483 1026.271 1113.2783 1013.091 1096.1883 1013.091H104.4883C86.9183 1013.091 73.7283 1026.271 73.7283 1044.341C73.7283 1061.921 86.9183 1075.101 104.4883 1075.101Z"/>
</svg>