<?xml version="1.0" encoding="UTF-8" standalone="no"?>
<svg xmlns="http://www.w3.org/2000/svg"
     width="996.09375" height="996.09375"
     viewBox="0 0 996.09375 996.09375"
     fill="currentColor">
  <path d="M498.0477 996.0977C770.5077 996.0977 996.0977 770.5077 996.0977 498.0477C996.0977 226.0777 770.0177 -0.0023 497.5577 -0.0023C225.5877 -0.0023 -0.0023 226.0777 -0.0023 498.0477C-0.0023 770.5077 226.0777 996.0977 498.0477 996.0977ZM326.6577 542.4777C300.2977 505.8577 284.6677 460.9377 284.6677 410.6477C284.6677 316.4077 337.3977 234.8677 415.5277 202.6377C427.7377 197.7577 438.4777 199.2177 443.8477 205.5677C448.2377 212.3977 449.2177 221.6777 443.8477 231.9377C435.5477 248.0477 430.6677 278.8077 430.6677 308.1077C430.6677 416.5077 501.9577 485.8377 613.2777 485.8377C640.6277 485.8377 664.0577 481.9377 683.1077 474.1177C693.3577 470.2177 701.1677 471.6777 706.5477 476.0777C712.3977 482.4177 713.3777 492.1877 708.9877 502.9277C702.6377 517.5777 695.3077 531.2477 685.5477 542.4777ZM250.9777 614.7477C240.7277 614.7477 233.3977 607.4177 233.3977 597.1677C233.3977 586.9177 240.7277 579.5877 250.9777 579.5877H791.5077C801.7577 579.5877 809.0777 586.9177 809.0777 597.1677C809.0777 607.4177 801.7577 614.7477 791.5077 614.7477ZM204.0977 684.0777C193.8477 684.0777 186.0377 676.2677 186.0377 666.0177C186.0377 656.2477 193.8477 648.4377 204.0977 648.4377H744.1377C754.3977 648.4377 761.7177 656.2477 761.7177 666.0177C761.7177 676.2677 754.3977 684.0777 744.1377 684.0777ZM250.9777 752.9277C240.7277 752.9277 233.3977 745.6077 233.3977 735.3477C233.3977 725.0977 240.7277 717.7777 250.9777 717.7777H791.5077C801.7577 717.7777 809.0777 725.0977 809.0777 735.3477C809.0777 745.6077 801.7577 752.9277 791.5077 752.9277Z"/>
</svg>