<?xml version="1.0" encoding="UTF-8" standalone="no"?>
<svg xmlns="http://www.w3.org/2000/svg"
     width="996.09375" height="996.09375"
     viewBox="0 0 996.09375 996.09375"
     fill="currentColor">
  <path d="M498.0477 996.0959C770.5077 996.0959 996.0977 770.0159 996.0977 498.0459C996.0977 225.5859 770.0177 -0.0041 497.5577 -0.0041C225.5877 -0.0041 -0.0023 225.5859 -0.0023 498.0459C-0.0023 770.0159 226.0777 996.0959 498.0477 996.0959ZM498.0477 913.0859C267.5777 913.0859 83.4977 728.5159 83.4977 498.0459C83.4977 267.5759 267.0877 83.0059 497.5577 83.0059C728.0277 83.0059 913.0877 267.5759 913.0877 498.0459C913.0877 728.5159 728.5177 913.0859 498.0477 913.0859ZM636.7177 469.2359C642.5777 469.2359 646.4877 464.3559 647.4577 458.4959C658.2077 371.5859 663.0877 367.1859 751.9577 354.0059C758.7877 353.0259 763.1877 349.6059 763.1877 342.7759C763.1877 336.9159 758.7877 332.5159 752.9277 332.0359C663.5777 314.9459 660.1577 313.4759 647.4577 227.0459C646.4877 221.1959 642.5777 216.7959 636.7177 216.7959C630.8577 216.7959 626.9577 221.1959 625.9777 227.0459C613.2777 314.4559 610.8377 319.3359 520.5077 332.0359C514.1577 332.5159 510.2577 336.9159 510.2577 342.7759C510.2577 349.1259 514.1577 353.0259 520.5077 354.0059C610.8377 371.0959 614.7477 372.5559 625.9777 458.4959C626.9577 464.3559 630.8577 469.2359 636.7177 469.2359ZM491.2077 780.7659C601.0777 780.7659 695.7977 713.3759 728.0277 629.8859C736.3277 611.3259 725.5877 595.7059 705.5677 602.5359C686.5277 609.3759 653.8077 616.2059 622.0677 616.2059C483.8877 616.2059 395.0177 528.8059 395.0177 390.1359C395.0177 360.8359 402.8277 320.7959 410.6477 298.8259C418.4577 280.2759 405.7577 267.0859 384.2777 275.8759C289.5477 312.4959 226.0777 415.0359 226.0777 522.4559C226.0777 672.8559 340.8177 780.7659 491.2077 780.7659Z"/>
</svg>