<?xml version="1.0" encoding="UTF-8" standalone="no"?>
<svg xmlns="http://www.w3.org/2000/svg"
     width="942.87109375" height="1113.76953125"
     viewBox="0 0 942.87109375 1113.76953125"
     fill="currentColor">
  <path d="M689.9427 207.5195H579.1027V205.0795L692.8727 55.1795C703.1227 41.4995 707.0327 33.6895 707.0327 24.8995C707.0327 9.2795 695.3127 -0.0005 678.7127 -0.0005H522.4627C507.3227 -0.0005 496.5827 10.2495 496.5827 25.3895C496.5827 41.0195 507.3227 50.7795 522.4627 50.7795H626.9527V53.2195L511.7227 202.6395C501.4627 215.8195 498.0427 223.1395 498.0427 233.3995C498.0427 247.5595 508.7927 257.8095 525.3927 257.8095H689.9427C705.0827 257.8095 715.8227 248.5395 715.8227 232.4195C715.8227 217.2895 705.0827 207.5195 689.9427 207.5195ZM918.4527 394.5295H840.3327V392.5795L921.3827 286.1295C930.6627 273.9295 934.5727 266.5995 934.5727 257.3195C934.5727 243.1595 923.3427 234.3795 908.2027 234.3795H788.5727C774.9027 234.3795 764.6527 244.1395 764.6527 257.8095C764.6527 273.4395 774.9027 282.7195 788.5727 282.7195H858.8827V284.6695L778.8127 390.1395C769.5327 401.8595 766.1127 409.6695 766.1127 419.4295C766.1127 432.6195 776.3627 442.3795 791.5027 442.3795H918.4527C933.1027 442.3795 942.8727 433.5895 942.8727 418.4595C942.8727 403.8095 933.1027 394.5295 918.4527 394.5295ZM426.2727 1113.7695C605.4727 1113.7695 750.0027 1023.9295 815.9227 870.6095C824.7027 850.0995 821.7727 833.4995 812.5027 824.2195C803.7127 815.4295 789.0627 813.9695 771.4827 820.7995C734.8627 834.9595 689.9427 843.7495 633.7927 843.7495C415.5227 843.7495 274.9027 707.0295 274.9027 493.1595C274.9027 434.0795 286.1327 374.9995 301.2727 344.2395C311.0327 325.1995 310.0627 308.1095 301.7627 298.3395C292.4827 287.5995 275.8827 284.1795 252.9327 292.9695C103.0227 353.9995 0.0027 510.7395 0.0027 692.8695C0.0027 930.6595 174.8027 1113.7695 426.2727 1113.7695ZM427.2427 1039.0595C219.2427 1039.0595 74.2227 887.2095 74.2227 687.0095C74.2227 564.4495 131.3527 455.5695 222.1727 386.2295C210.4527 418.4595 203.6127 466.7995 203.6127 513.6695C203.6127 754.3895 369.6327 915.5295 615.2327 915.5295C659.1827 915.5295 699.2227 909.6695 719.7227 902.8295C658.6927 987.3095 549.8027 1039.0595 427.2427 1039.0595ZM703.1227 561.0395H636.7227V559.0795L705.5627 467.7695C714.3527 455.5695 718.2627 448.7295 718.2627 440.4295C718.2627 426.7595 707.5227 418.4595 692.8727 418.4595H587.8927C574.7027 418.4595 564.9427 427.2495 564.9427 440.9195C564.9427 455.5695 574.7027 463.8695 587.8927 463.8695H646.4827V466.3095L578.6127 557.1295C569.8227 568.3595 566.4027 575.6795 566.4027 584.9595C566.4027 597.6595 576.1727 606.9295 590.3327 606.9295H703.1227C716.7927 606.9295 726.0727 597.6595 726.0727 583.9795C726.0727 570.3095 716.7927 561.0395 703.1227 561.0395Z"/>
</svg>