<?xml version="1.0" encoding="UTF-8" standalone="no"?>
<svg xmlns="http://www.w3.org/2000/svg"
     width="996.09375" height="996.09375"
     viewBox="0 0 996.09375 996.09375"
     fill="currentColor">
  <path d="M-0.0023 498.0459C-0.0023 770.0159 226.0777 996.0959 498.0477 996.0959C770.5077 996.0959 996.0977 770.0159 996.0977 498.0459C996.0977 225.5859 770.0177 -0.0041 497.5577 -0.0041C225.5877 -0.0041 -0.0023 225.5859 -0.0023 498.0459ZM913.0877 498.0459C913.5777 728.5159 728.5177 913.0859 498.0477 913.0859C482.9077 913.0859 467.7777 912.1059 452.6377 910.1559C589.3577 826.6559 666.0177 681.6359 666.0177 498.0459C666.0177 313.9659 588.8677 168.4559 451.1677 85.9359C466.7977 83.9859 481.9377 83.0059 497.5577 83.0059C728.0277 83.0059 912.5977 267.5759 913.0877 498.0459Z"/>
</svg>