<?xml version="1.0" encoding="UTF-8" standalone="no"?>
<svg xmlns="http://www.w3.org/2000/svg"
     width="996.09375" height="996.09375"
     viewBox="0 0 996.09375 996.09375"
     fill="currentColor">
  <path d="M498.0477 996.0977C770.5077 996.0977 996.0977 770.5077 996.0977 498.0477C996.0977 226.0777 770.0177 -0.0023 497.5577 -0.0023C225.5877 -0.0023 -0.0023 226.0777 -0.0023 498.0477C-0.0023 770.5077 226.0777 996.0977 498.0477 996.0977ZM444.3377 421.3877L534.6677 303.2177C556.1477 275.3877 587.3977 275.8777 608.3977 303.2177L698.2377 421.3877C674.3177 428.2177 658.2077 446.2877 643.0677 446.2877C624.0277 446.2877 606.9377 417.9677 571.2877 417.9677C535.6477 417.9677 518.0677 446.2877 499.0277 446.2877C483.3977 446.2877 467.7777 428.2177 444.3377 421.3877ZM193.8477 660.1577C153.8077 660.1577 144.0477 621.5777 166.5077 593.2577L327.6377 392.5777C349.6077 366.2077 378.4177 366.2077 399.8977 392.5777L410.6477 405.2777L280.2777 574.7077C260.2577 601.5577 258.7877 635.2577 271.9777 660.1577ZM339.3577 660.1577C300.7777 660.1577 291.0177 622.5577 310.5477 597.1677L422.3677 450.6877C440.4277 441.4077 464.8477 475.5877 499.0277 475.5877C537.1077 475.5877 551.2677 447.2677 571.2877 447.2677C591.3077 447.2677 605.4677 475.5877 643.0677 475.5877C676.7577 475.5877 702.1477 441.4077 719.7277 450.6877L831.0577 597.1677C851.0777 622.5577 841.3077 660.1577 803.2277 660.1577Z"/>
</svg>