<?xml version="1.0" encoding="UTF-8" standalone="no"?>
<svg xmlns="http://www.w3.org/2000/svg"
     width="939.453125" height="1141.845703125"
     viewBox="0 0 939.453125 1141.845703125"
     fill="currentColor">
  <path d="M73.2383 411.7419H866.2083C933.5983 411.7419 939.9383 336.5519 899.4183 306.2719L537.5983 28.9319C486.3283 -9.6481 453.1283 -9.6481 401.8583 28.9319L40.0383 306.2719C-0.4917 336.5519 5.8583 411.7419 73.2383 411.7419ZM151.3683 338.9919C139.6483 338.9919 136.2283 325.3219 145.5083 317.9919L439.9383 92.4119C456.0583 80.2019 483.3983 80.6919 499.0283 92.4119L793.9483 317.9919C803.2183 325.3219 799.8083 338.9919 788.0883 338.9919ZM41.5083 613.4019H897.9483C920.4083 613.4019 939.4483 593.8719 939.4483 570.9219C939.4483 547.9719 920.4083 527.9519 897.9483 527.9519H41.5083C19.0383 527.9519 -0.0017 547.9719 -0.0017 570.9219C-0.0017 593.8719 19.0383 613.4019 41.5083 613.4019ZM73.2383 730.1019C5.8583 730.1019 -0.4917 804.8119 40.0383 835.5719L401.8583 1112.9119C453.1283 1151.4919 486.3283 1151.4919 537.5983 1112.9119L899.4183 835.5719C939.9383 804.8119 933.5983 730.1019 866.2083 730.1019ZM151.3683 802.8519H788.0883C799.8083 802.8519 803.2183 816.0419 793.9483 823.8519L499.0283 1049.4419C483.3983 1061.1619 456.0583 1061.6419 439.9383 1049.4419L145.5083 823.8519C136.2283 816.0419 139.6483 802.8519 151.3683 802.8519Z"/>
</svg>