<?xml version="1.0" encoding="UTF-8" standalone="no"?>
<svg xmlns="http://www.w3.org/2000/svg"
     width="1717.3977163319519" height="863.0378136059683"
     viewBox="0 0 1717.3977163319519 863.0378136059683"
     fill="currentColor">
  <path d="M936.5503 379.1555C980.4903 379.1555 1020.0403 312.7455 1100.1203 312.7455C1180.6903 312.7455 1220.2403 379.1555 1264.1803 379.1555C1300.3103 379.1555 1334.0103 332.7655 1391.1403 318.6055L1185.0803 47.6055C1137.2303 -15.3845 1063.9903 -16.3545 1015.1603 47.6055L809.1003 318.6055C866.7203 333.2555 900.9003 379.1555 936.5503 379.1555ZM335.9603 503.6655C374.0503 503.6655 408.7103 445.5555 478.5403 445.5555C536.6403 445.5555 572.7803 486.5755 586.9403 486.5755C591.8203 486.5755 596.2103 484.6155 601.1003 481.2055L671.9003 388.4255L563.0103 253.6655C512.7203 191.1655 445.3303 191.6555 394.5503 253.6655L232.4403 454.8355C279.8103 466.5555 307.6403 503.6655 335.9603 503.6655ZM571.8003 863.0355H1628.9303C1717.8003 863.0355 1739.2803 775.1455 1695.3303 717.5255L1439.4703 381.5955C1432.1503 378.6655 1424.8303 376.7055 1417.0103 376.7055C1376.9703 381.1055 1342.8003 440.1855 1264.1803 440.1855C1180.6903 440.1855 1146.9903 373.7755 1100.1203 373.7755C1053.7303 373.7755 1020.0403 440.1855 936.5503 440.1855C857.4403 440.1855 823.2603 380.6155 782.2503 376.7055C775.4103 376.2255 768.0903 378.6655 760.7603 381.5955L505.3903 718.0155C461.4503 775.6355 482.9303 863.0355 571.8003 863.0355ZM90.3503 863.0355H439.4703C405.7803 810.3055 407.7403 736.5755 452.1703 677.4955L561.0603 534.4255C541.5303 522.7055 525.9003 510.9855 509.7903 510.9855C467.3103 510.9855 438.0103 545.6555 367.2103 545.6555C295.9203 545.6555 266.6203 510.9855 224.1403 510.9855C209.4903 510.9855 197.2903 511.4755 185.0803 513.4255L27.8503 708.2555C-24.3897 773.1955 -2.9097 863.0355 90.3503 863.0355Z"/>
</svg>