<?xml version="1.0" encoding="UTF-8" standalone="no"?>
<svg xmlns="http://www.w3.org/2000/svg"
     width="1252.799642164606" height="618.65234375"
     viewBox="0 0 1252.799642164606 618.65234375"
     fill="currentColor">
  <path d="M27.3541 261.2328C213.3841 493.1628 387.7041 618.6528 626.4741 618.6528C864.7541 618.6528 1039.5541 493.1628 1225.1041 261.2328C1275.3941 198.2428 1252.4441 141.1128 1194.3441 134.2728C1018.0741 113.2828 971.1941 0.0028 826.6641 0.0028C712.4041 0.0028 644.5341 89.8428 626.4741 89.8428C607.9141 89.8428 540.0441 0.0028 425.7841 0.0028C281.2541 0.0028 234.8741 113.2828 58.1141 134.2728C0.4941 141.1128 -22.4559 198.2428 27.3541 261.2328ZM139.1641 249.5128C114.2641 234.3728 129.4041 206.5428 152.3541 217.2828C221.1941 250.0028 292.4841 246.5828 382.3341 236.8128C406.2541 233.8828 430.1841 230.4728 454.1041 230.4728C528.3241 230.4728 568.3641 256.3428 595.2241 272.4628C612.8041 282.7128 618.6541 284.6728 626.4741 284.6728C634.2841 284.6728 640.1441 282.7128 657.7241 272.4628C684.5741 256.8328 724.1241 230.4728 798.3441 230.4728C822.2741 230.4728 846.1941 233.8828 870.6141 236.8128C959.9641 249.0228 1031.7441 250.0028 1100.5941 217.2828C1123.5441 206.5428 1138.6741 234.3728 1113.2841 249.5128C1000.4941 318.3628 872.0741 295.4128 817.8741 294.9228C704.1041 294.9228 691.9041 354.0028 626.4741 354.0028C561.0441 354.0028 548.8341 294.9228 434.5741 294.9228C380.8641 295.4128 251.9641 319.3328 139.1641 249.5128Z"/>
</svg>