<?xml version="1.0" encoding="UTF-8" standalone="no"?>
<svg xmlns="http://www.w3.org/2000/svg"
     width="1653.3203125" height="809.5703125"
     viewBox="0 0 1653.3203125 809.5703125"
     fill="currentColor">
  <path d="M43.9483 809.5742C72.2683 809.5742 87.8883 790.5242 87.8883 763.1842V150.8742H91.3083L221.1883 739.7442C228.5183 771.9742 248.0483 796.8742 281.7383 796.8742C315.4283 796.8742 334.4683 771.9742 341.7983 738.2842L471.6783 150.8742H475.0983V763.1842C475.0983 789.5542 489.2583 809.5742 518.5583 809.5742C547.3683 809.5742 562.9883 791.9942 562.9883 763.1842V73.2442C562.9883 32.2242 534.6683 0.0042 488.7683 0.0042C447.7583 0.0042 423.8283 21.9742 415.0383 63.4742L284.1783 667.9642H281.2483L147.4583 63.4742C138.6683 21.9742 115.2383 0.0042 73.7283 0.0042C27.8283 0.0042 -0.0017 32.2242 -0.0017 73.2442V763.1842C-0.0017 789.0642 13.6683 809.5742 43.9483 809.5742ZM1272.4583 809.5742C1305.6683 809.5742 1319.8283 786.1342 1319.8283 756.8342V437.9842H1557.6183V756.8342C1557.6183 788.0842 1573.7283 809.5742 1604.9783 809.5742C1636.2283 809.5742 1653.3183 788.0842 1653.3183 756.8342V52.7342C1653.3183 20.9942 1636.2283 0.0042 1604.9783 0.0042C1573.7283 0.0042 1557.6183 20.9942 1557.6183 52.7342V354.0042H1319.8283V52.7342C1319.8283 22.9442 1305.6683 0.0042 1272.4583 0.0042C1241.2083 0.0042 1225.0983 20.9942 1225.0983 52.7342V756.8342C1225.0983 788.0842 1241.2083 809.5742 1272.4583 809.5742ZM756.8383 806.6442C785.6483 806.6442 804.1983 790.0342 804.1983 757.3242V513.6742H903.3183C1037.1083 513.6742 1105.9583 395.9942 1105.9583 261.7142C1105.9583 128.4142 1037.1083 10.7442 907.7183 10.7442H755.3683C725.5883 10.7442 708.9883 30.2742 708.9883 60.5442V757.3242C708.9883 788.0842 725.5883 806.6442 756.8383 806.6442ZM804.1983 431.6442V93.2642H883.7883C975.0983 93.2642 1012.2083 168.9442 1012.2083 261.7142C1012.2083 354.4942 976.0783 431.6442 883.7883 431.6442Z"/>
</svg>