<?xml version="1.0" encoding="UTF-8" standalone="no"?>
<svg xmlns="http://www.w3.org/2000/svg"
     width="996.09375" height="996.09375"
     viewBox="0 0 996.09375 996.09375"
     fill="currentColor">
  <path d="M498.0477 996.0959C770.5077 996.0959 996.0977 770.0159 996.0977 498.0459C996.0977 225.5859 770.0177 -0.0041 497.5577 -0.0041C225.5877 -0.0041 -0.0023 225.5859 -0.0023 498.0459C-0.0023 770.0159 226.0777 996.0959 498.0477 996.0959ZM173.8277 651.3659C154.2977 651.3659 145.9977 639.1559 145.9977 622.0659V387.6959C145.9977 361.3259 160.6477 344.7259 190.4277 344.7259C213.8677 344.7259 229.0077 354.0059 233.3977 379.3959L270.0177 559.0859H270.5077L306.6377 379.3959C311.5277 353.5159 327.1477 344.7259 350.0977 344.7259C382.3277 344.7259 395.0177 365.7259 395.0177 387.6959V622.0659C395.0177 639.1559 386.7177 651.3659 367.1877 651.3659C347.1677 651.3659 339.3577 639.1559 339.3577 622.0659V437.9859H337.8877L300.7777 616.6959C297.8477 633.2959 287.5977 645.9959 270.5077 645.9959C253.4177 645.9959 244.1377 634.7659 240.7277 616.6959L203.1277 437.9859H200.6877V622.0659C200.6877 640.1359 191.8977 651.3659 173.8277 651.3659ZM692.3877 651.3659C670.8977 651.3659 660.6477 639.1559 660.6477 618.1659V377.9259C660.6477 356.9359 670.8977 344.7259 692.3877 344.7259C713.3777 344.7259 723.6377 357.4259 723.6377 377.9259V470.2159H787.1077V377.9259C787.1077 356.9359 798.3377 344.7259 818.8477 344.7259C839.8477 344.7259 850.0977 356.4459 850.0977 377.9259V618.1659C850.0977 640.6259 838.3777 651.3659 818.8477 651.3659C797.8477 651.3659 787.1077 638.6759 787.1077 618.1659V521.9759H723.6377V618.1659C723.6377 636.7159 714.3577 651.3659 692.3877 651.3659ZM475.0977 650.3859C456.0577 650.3859 442.8677 640.1359 442.8677 618.1659V382.8159C442.8677 361.3259 454.0977 349.1259 475.0977 349.1259H539.0577C591.7977 349.1259 620.6077 394.5359 620.6077 451.1759C620.6077 505.3759 591.7977 553.2259 534.1777 553.2259H506.3477V618.1659C506.3477 638.6759 495.6077 650.3859 475.0977 650.3859ZM506.3477 504.3959H520.9977C550.7777 504.3959 558.1077 480.4659 558.1077 451.1759C558.1077 419.4359 548.8277 398.4359 521.4877 398.4359H506.3477Z"/>
</svg>