<?xml version="1.0" encoding="UTF-8" standalone="no"?>
<svg xmlns="http://www.w3.org/2000/svg"
     width="936.5234375" height="1032.2265625"
     viewBox="0 0 936.5234375 1032.2265625"
     fill="currentColor">
  <path d="M335.4483 1032.2223H429.1983C635.7383 1032.2223 764.6483 923.8323 764.6483 750.0023V741.2123H793.9483C880.8583 741.2123 936.5283 682.6123 936.5283 595.2123V399.9023C936.5283 312.0123 880.8583 253.9023 793.9483 253.9023H764.6483V135.2523C764.6483 47.8523 601.5583 0.0023 382.3283 0.0023C163.0883 0.0023 -0.0017 47.8523 -0.0017 135.2523V750.0023C-0.0017 923.8323 129.3983 1032.2223 335.4483 1032.2223ZM382.3283 162.1123C211.4283 162.1123 93.2583 143.5523 93.2583 115.7223C93.2583 87.8923 211.4283 68.8523 382.3283 68.8523C553.2183 68.8523 671.3883 87.8923 671.3883 115.7223C671.3883 143.5523 553.2183 162.1123 382.3283 162.1123ZM793.9483 327.6323C843.2583 327.6323 862.7883 347.6523 862.7883 399.9023V595.2123C862.7883 646.9723 843.2583 667.4823 793.9483 667.4823H764.6483V327.6323Z"/>
</svg>