<?xml version="1.0" encoding="UTF-8" standalone="no"?>
<svg xmlns="http://www.w3.org/2000/svg"
     width="649.659511154586" height="649.78160014941"
     viewBox="0 0 649.659511154586 649.78160014941"
     fill="currentColor">
  <path d="M12.6379 637.1474C29.2379 654.2374 58.0479 653.7474 74.6479 637.1474L324.6479 386.6574L575.1379 637.1474C591.7379 653.7474 620.0579 654.2374 636.6579 637.1474C654.2379 620.0574 653.7479 591.7374 636.6579 575.1374L386.6579 324.6474L636.6579 74.6474C653.7479 58.0474 654.2379 29.2374 636.6579 12.6374C620.0579 -4.4526 591.7379 -3.9626 575.1379 12.6374L324.6479 263.1274L74.6479 12.6374C58.0479 -3.9626 29.2379 -4.4526 12.6379 12.6374C-4.4521 29.2374 -3.9621 58.0474 12.6379 74.6474L263.1279 324.6474L12.6379 575.1374C-3.9621 591.7374 -4.4521 620.0574 12.6379 637.1474Z"/>
</svg>