<?xml version="1.0" encoding="UTF-8" standalone="no"?>
<svg xmlns="http://www.w3.org/2000/svg"
     width="996.09375" height="996.09375"
     viewBox="0 0 996.09375 996.09375"
     fill="currentColor">
  <path d="M498.0477 996.0959C770.5077 996.0959 996.0977 770.0159 996.0977 498.0459C996.0977 225.5859 770.0177 -0.0041 497.5577 -0.0041C225.5877 -0.0041 -0.0023 225.5859 -0.0023 498.0459C-0.0023 770.0159 226.0777 996.0959 498.0477 996.0959ZM333.9877 703.1259C311.5277 703.1259 293.9477 685.0559 293.9477 662.5959C293.9477 651.8559 297.8477 641.6059 305.6677 634.2759L440.9177 498.5359L305.6677 363.2859C297.8477 355.4659 293.9477 345.7059 293.9477 334.9559C293.9477 312.0159 311.5277 294.9259 333.9877 294.9259C345.2177 294.9259 354.0077 298.8259 361.8177 306.1559L498.0477 441.8959L635.2577 305.6659C643.5577 297.3659 652.3477 293.9459 663.0877 293.9459C685.5477 293.9459 703.6177 311.5259 703.6177 333.9859C703.6177 345.2159 700.1977 354.0059 691.4077 362.7959L555.6677 498.5359L690.9177 633.7859C699.2177 641.1159 703.1277 651.3659 703.1277 662.5959C703.1277 685.0559 685.0577 703.1259 662.1077 703.1259C650.8777 703.1259 640.6277 699.2159 633.2977 691.4059L498.0477 555.6659L363.2777 691.4059C355.4677 699.2159 345.2177 703.1259 333.9877 703.1259Z"/>
</svg>