<?xml version="1.0" encoding="UTF-8" standalone="no"?>
<svg xmlns="http://www.w3.org/2000/svg"
     width="996.09375" height="996.09375"
     viewBox="0 0 996.09375 996.09375"
     fill="currentColor">
  <path d="M498.0477 996.0959C770.5077 996.0959 996.0977 770.0159 996.0977 498.0459C996.0977 225.5859 770.0177 -0.0041 497.5577 -0.0041C225.5877 -0.0041 -0.0023 225.5859 -0.0023 498.0459C-0.0023 770.0159 226.0777 996.0959 498.0477 996.0959ZM498.0477 913.0859C267.5777 913.0859 83.4977 728.5159 83.4977 498.0459C83.4977 267.5759 267.0877 83.0059 497.5577 83.0059C728.0277 83.0059 913.0877 267.5759 913.0877 498.0459C913.0877 728.5159 728.5177 913.0859 498.0477 913.0859ZM715.3277 259.7659C670.8977 215.3359 611.3277 217.2859 565.4277 263.1859L711.9177 409.6659C758.2977 363.7659 759.7677 304.1959 715.3277 259.7659ZM504.8877 375.9759L272.4577 625.9759C260.7377 638.6759 260.2577 654.2959 270.0177 666.5059L240.2377 704.5859C235.3477 711.4259 235.8377 720.2159 242.1877 726.0759L249.5077 733.3959C255.3677 739.2559 263.6677 740.2359 270.9977 734.8659L309.5677 705.0759C321.2877 714.8459 336.9177 714.3559 349.1177 703.1259L470.7077 590.3359V722.1659C470.7077 737.7959 482.9077 750.4859 499.0277 750.4859C514.6477 750.4859 527.3477 737.7959 527.3477 722.1659V537.5959L598.6377 471.1959C629.8877 474.6059 660.6477 461.9159 687.0077 434.5659L540.5277 288.0859C513.6677 315.4259 501.4677 345.2159 504.8877 375.9759ZM309.5677 650.3859L523.4377 423.3359C526.8577 428.7059 530.7577 433.5959 536.1377 439.4559C540.5277 444.3359 545.8977 448.7259 551.2677 452.1459L325.1977 666.5059Z"/>
</svg>