<?xml version="1.0" encoding="UTF-8" standalone="no"?>
<svg xmlns="http://www.w3.org/2000/svg"
     width="1165.52734375" height="1025.5126953125"
     viewBox="0 0 1165.52734375 1025.5126953125"
     fill="currentColor">
  <path d="M-0.0017 482.0521C-0.0017 502.0721 15.6283 521.1221 41.9883 521.1221C55.6683 521.1221 66.8983 513.7921 77.1483 505.4921L565.9183 95.3321C576.6583 85.5721 589.8483 85.5721 600.5883 95.3321L1089.3583 505.4921C1099.1183 513.7921 1110.3483 521.1221 1124.0283 521.1221C1146.9683 521.1221 1165.5283 506.9621 1165.5283 483.5221C1165.5283 468.8721 1160.6483 459.1021 1150.3883 450.3221L1013.6683 335.0821V139.7721C1013.6683 118.2821 999.9983 104.6121 978.5183 104.6121H926.2683C905.2783 104.6121 891.1183 118.2821 891.1183 139.7721V232.0521L642.0883 23.0721C605.9583 -7.6879 561.0383 -7.6879 524.4183 23.0721L15.6283 450.3221C4.8783 459.1021 -0.0017 470.8221 -0.0017 482.0521ZM152.3483 917.6021C152.3483 985.4721 193.3583 1025.5121 262.2083 1025.5121H904.2983C973.1483 1025.5121 1013.6683 985.4721 1013.6683 917.6021V530.8821L612.3083 194.4621C593.7483 178.8321 571.7783 179.3221 553.7083 194.4621L152.3483 530.8821ZM708.4983 566.0421L597.1683 593.3821C586.4283 595.8221 582.5183 599.7321 582.5183 617.3121V780.8821C582.5183 849.2421 536.6183 898.0721 469.2383 898.0721C421.3883 898.0721 391.1183 868.7721 391.1183 828.2421C391.1183 782.3521 426.7583 756.4721 470.2183 745.2421L513.6683 734.0121C537.5983 727.6621 539.5483 723.2621 539.5483 702.2721V487.9121C539.5483 460.0821 544.9183 455.2021 568.3583 449.3421L706.5383 415.1621C731.9383 408.8121 738.2783 417.1121 738.2783 435.1821V527.9521C738.2783 555.7821 730.9583 560.6721 708.4983 566.0421Z"/>
</svg>