<?xml version="1.0" encoding="UTF-8" standalone="no"?>
<svg xmlns="http://www.w3.org/2000/svg"
     width="1124.0234375" height="973.14453125"
     viewBox="0 0 1124.0234375 973.14453125"
     fill="currentColor">
  <path d="M443.3583 596.6755C443.3583 671.3855 501.4683 724.1255 582.5183 724.1255C654.7883 724.1255 762.2083 670.8955 762.2083 527.8355V32.7155C762.2083 14.6455 747.5583 -0.0045 729.4883 -0.0045C711.4283 -0.0045 696.2883 14.6455 696.2883 32.7155V391.6055C696.2883 415.5255 687.0083 431.1555 665.5283 435.5455L587.8883 451.6555C489.2583 472.1655 443.3583 521.9755 443.3583 596.6755ZM-0.0017 845.7055C-0.0017 920.8955 58.1083 973.1455 139.1583 973.1455C211.4283 973.1455 318.8483 919.9255 318.8483 777.3455V281.7355C318.8483 264.1555 304.1983 249.0255 286.1283 249.0255C268.0683 249.0255 252.9283 264.1555 252.9283 281.7355V640.6255C252.9283 664.5555 243.6483 680.6655 222.1683 684.5655L144.5283 700.6855C45.8983 721.6755 -0.0017 770.9955 -0.0017 845.7055ZM805.1783 845.7055C805.1783 920.8955 862.7883 973.1455 944.3383 973.1455C1016.1183 973.1455 1124.0283 919.9255 1124.0283 777.3455V281.7355C1124.0283 264.1555 1108.8883 249.0255 1091.3083 249.0255C1073.2383 249.0255 1058.1083 264.1555 1058.1083 281.7355V640.6255C1058.1083 665.0355 1048.3383 680.6655 1027.3483 684.5655L949.2183 701.1755C851.0783 721.6755 805.1783 771.4855 805.1783 845.7055Z"/>
</svg>