<?xml version="1.0" encoding="UTF-8" standalone="no"?>
<svg xmlns="http://www.w3.org/2000/svg"
     width="595.703125" height="980.8316071020445"
     viewBox="0 0 595.703125 980.8316071020445"
     fill="currentColor">
  <path d="M595.6983 222.0375V38.4475C595.6983 12.5675 574.7083 -4.0325 549.8083 0.8475L298.8283 55.5375C267.5783 62.3775 250.4883 79.4675 250.4883 106.8075L251.4683 649.7775C253.9083 673.7075 242.6783 689.3275 221.1883 693.7175L143.5583 709.8375C45.8983 730.3475 -0.0017 780.1475 -0.0017 853.8775C-0.0017 928.5875 57.6183 980.8275 138.6683 980.8275C210.4483 980.8275 317.8683 928.0975 317.8683 786.0075V339.2275C317.8683 313.3475 322.7583 307.9775 345.6983 303.0975L568.8483 254.2675C585.4483 250.8475 595.6983 238.1575 595.6983 222.0375Z"/>
</svg>