<?xml version="1.0" encoding="UTF-8" standalone="no"?>
<svg xmlns="http://www.w3.org/2000/svg"
     width="1165.52734375" height="1025.5126953125"
     viewBox="0 0 1165.52734375 1025.5126953125"
     fill="currentColor">
  <path d="M250.9783 1025.5121H911.6183C980.9583 1025.5121 1021.4883 985.9621 1021.4883 917.6021V448.3621L1089.3583 505.4921C1099.1183 513.7921 1110.3483 521.1221 1124.0283 521.1221C1146.9683 521.1221 1165.5283 506.9621 1165.5283 483.5221C1165.5283 468.8721 1160.6483 459.1021 1150.3883 450.3221L1021.4883 341.9221V139.7721C1021.4883 118.2821 1007.8083 104.6121 986.3283 104.6121H934.0783C913.0883 104.6121 898.9283 118.2821 898.9283 139.7721V238.8921L642.0883 23.0721C605.9583 -7.6879 561.0383 -7.6879 524.4183 23.0721L15.6283 450.3221C4.8783 459.1021 -0.0017 470.8221 -0.0017 482.0521C-0.0017 502.0721 15.6283 521.1221 41.9883 521.1221C55.6683 521.1221 66.8983 513.7921 77.1483 505.4921L140.6283 451.7821V917.6021C140.6283 985.9621 181.1483 1025.5121 250.9783 1025.5121ZM267.5783 946.9021C236.3283 946.9021 219.2383 929.3221 219.2383 897.5821V385.8621L565.9183 95.3321C576.6583 85.5721 589.8483 85.5721 600.5883 95.3321L942.8683 382.4421V897.5821C942.8683 929.3221 925.7783 946.9021 895.0183 946.9021ZM721.1883 512.8221C745.1183 506.9621 751.9483 501.5821 751.9483 472.7821V376.1021C751.9483 357.5421 745.6083 349.2421 719.2383 355.5921L575.1983 391.2321C550.7783 397.0921 545.4083 402.4621 545.4083 431.7621V653.9321C545.4083 675.9021 543.9483 679.8121 518.5583 686.6421L473.6283 698.8521C428.7083 710.5721 391.1183 736.9421 391.1183 785.2821C391.1183 827.2721 422.3683 857.5421 472.1683 857.5421C542.4783 857.5421 590.3283 807.2521 590.3283 735.4721V566.0421C590.3283 547.4821 594.2383 543.0921 605.4683 540.6521Z"/>
</svg>