<?xml version="1.0" encoding="UTF-8" standalone="no"?>
<svg xmlns="http://www.w3.org/2000/svg"
     width="1382.8125" height="508.7890625"
     viewBox="0 0 1382.8125 508.7890625"
     fill="currentColor">
  <path d="M377.4377 508.793C508.7877 508.793 621.0977 465.823 691.4077 388.673C761.7177 465.823 874.0277 508.793 1005.3677 508.793C1217.7777 508.793 1382.8077 379.883 1382.8077 213.863C1382.8077 144.533 1354.0077 103.513 1303.2277 103.513C1282.2277 103.513 1264.1577 112.303 1247.5577 130.373C1227.0477 152.833 1195.7977 168.453 1160.1577 168.453C1037.5977 168.453 1009.2777 0.003 808.5977 0.003C763.6677 0.003 723.6377 12.693 691.4077 35.643C659.1777 12.693 619.1377 0.003 574.2177 0.003C373.5377 0.003 345.2177 168.453 222.6577 168.453C187.0077 168.453 155.7577 152.833 135.2577 130.373C118.6477 112.303 100.5877 103.513 79.5877 103.513C28.8077 103.513 -0.0023 144.533 -0.0023 213.863C-0.0023 379.883 165.0377 508.793 377.4377 508.793ZM377.4377 430.173C209.4777 430.173 78.6177 334.473 78.6177 213.383C78.6177 199.703 90.8177 198.733 98.6377 204.103C127.9277 231.933 174.8077 247.073 222.6577 247.073C308.1077 247.073 364.7477 199.223 413.0877 157.713C462.8877 115.723 504.8877 78.613 574.2177 78.613C620.6077 78.613 656.7377 99.123 675.2977 132.813C682.6177 146.973 700.1977 147.463 707.0277 132.813C725.5877 99.123 762.2077 78.613 808.5977 78.613C877.9277 78.613 919.9177 115.723 969.7277 157.713C1018.0677 199.223 1074.7077 247.073 1160.1577 247.073C1208.0077 247.073 1254.8877 231.443 1285.6477 202.153C1293.9477 196.293 1304.1977 196.773 1304.1977 213.383C1304.1977 334.473 1173.3377 430.173 1005.3677 430.173C860.3477 430.173 751.9577 372.073 710.9377 277.833C703.1277 259.763 679.6877 259.273 671.8777 277.833C631.3477 372.073 522.9477 430.173 377.4377 430.173Z"/>
</svg>