<?xml version="1.0" encoding="UTF-8" standalone="no"?>
<svg xmlns="http://www.w3.org/2000/svg"
     width="898.92578125" height="898.92578125"
     viewBox="0 0 898.92578125 898.92578125"
     fill="currentColor">
  <path d="M153.3183 898.9295H745.6083C848.1483 898.9295 898.9283 848.1495 898.9283 747.5595V151.3695C898.9283 50.7795 848.1483 -0.0005 745.6083 -0.0005H153.3183C51.2683 -0.0005 -0.0017 50.2895 -0.0017 151.3695V747.5595C-0.0017 848.6295 51.2683 898.9295 153.3183 898.9295ZM297.8483 679.6895C274.4183 679.6895 260.7383 664.0595 260.7383 639.1595V250.9795C260.7383 225.0995 274.8983 208.4995 299.8083 208.4995C316.4083 208.4995 327.6383 214.8395 340.3283 232.9095L559.5683 546.8795H562.9883V249.0195C562.9883 224.6095 577.1483 208.4995 600.0983 208.4995C624.5083 208.4995 638.6683 223.6295 638.6683 249.0195V637.6995C638.6683 664.5495 623.5383 679.6895 598.6283 679.6895C582.0283 679.6895 571.7783 673.8295 558.5983 655.2695L339.3583 346.6795H335.9383V639.1595C335.9383 665.0395 321.7783 679.6895 297.8483 679.6895Z"/>
</svg>