<?xml version="1.0" encoding="UTF-8" standalone="no"?>
<svg xmlns="http://www.w3.org/2000/svg"
     width="898.92578125" height="898.92578125"
     viewBox="0 0 898.92578125 898.92578125"
     fill="currentColor">
  <path d="M153.3183 898.9295H745.6083C848.1483 898.9295 898.9283 848.1495 898.9283 747.5595V151.3695C898.9283 50.7795 848.1483 -0.0005 745.6083 -0.0005H153.3183C51.2683 -0.0005 -0.0017 50.2895 -0.0017 151.3695V747.5595C-0.0017 848.6295 51.2683 898.9295 153.3183 898.9295ZM154.2983 820.3095C105.4683 820.3095 78.6183 794.4295 78.6183 743.6495V155.2695C78.6183 104.4895 105.4683 78.6095 154.2983 78.6095H744.6283C792.9683 78.6095 820.3083 104.4895 820.3083 155.2695V743.6495C820.3083 794.4295 792.9683 820.3095 744.6283 820.3095ZM245.1183 456.5395C245.1183 469.7295 254.8783 480.4695 268.5583 480.4695H295.4083V659.6695C295.4083 678.7095 308.5983 691.4095 327.1483 691.4095C345.6983 691.4095 358.3983 678.7095 358.3983 659.6695V480.4695H428.7083L520.9983 663.5695C529.7883 681.1495 542.9683 691.8895 563.4783 691.8895C587.3983 691.8895 603.0283 676.2695 603.0283 652.3395V480.9595H630.8583C644.0383 480.9595 654.7883 469.7295 654.7883 456.5395C654.7883 442.3795 644.0383 432.6195 630.8583 432.6195H603.0283V251.9495C603.0283 232.9095 590.3283 220.2195 571.7783 220.2195C553.2183 220.2195 540.0383 232.9095 540.0383 251.9495V432.6195H470.6983L377.4383 248.0495C369.1383 230.4695 355.4683 219.7295 334.9583 219.7295C311.0383 219.7295 295.4083 235.3495 295.4083 258.7895V432.1295H268.5583C255.3683 432.1295 245.1183 442.3795 245.1183 456.5395ZM358.3983 432.1295V333.0095L404.2983 432.1295ZM494.6283 480.9595H540.0383V579.5895Z"/>
</svg>