<?xml version="1.0" encoding="UTF-8" standalone="no"?>
<svg xmlns="http://www.w3.org/2000/svg"
     width="996.09375" height="996.09375"
     viewBox="0 0 996.09375 996.09375"
     fill="currentColor">
  <path d="M498.0477 996.0959C770.5077 996.0959 996.0977 770.0159 996.0977 498.0459C996.0977 225.5859 770.0177 -0.0041 497.5577 -0.0041C225.5877 -0.0041 -0.0023 225.5859 -0.0023 498.0459C-0.0023 770.0159 226.0777 996.0959 498.0477 996.0959ZM498.0477 913.0859C267.5777 913.0859 83.4977 728.5159 83.4977 498.0459C83.4977 267.5759 267.0877 83.0059 497.5577 83.0059C728.0277 83.0059 913.0877 267.5759 913.0877 498.0459C913.0877 728.5159 728.5177 913.0859 498.0477 913.0859ZM292.9677 505.8559C292.9677 519.0459 302.7377 529.7859 316.4077 529.7859H343.2577V708.9859C343.2577 728.0259 356.4477 740.7259 374.9977 740.7259C393.5577 740.7259 406.2477 728.0259 406.2477 708.9859V529.7859H476.5577L568.8477 712.8859C577.1477 730.4659 590.8177 741.2059 611.3277 741.2059C635.2577 741.2059 650.8777 725.5859 650.8777 701.6559V530.2759H678.7077C691.8977 530.2759 702.1477 519.0459 702.1477 505.8559C702.1477 491.6959 691.8977 481.9359 678.7077 481.9359H650.8777V301.2659C650.8777 282.2259 638.1877 269.5359 619.1377 269.5359C600.5877 269.5359 587.8877 282.2259 587.8877 301.2659V481.9359H518.0677L425.2977 297.3659C416.9877 279.7859 403.3177 269.0459 382.8077 269.0459C358.8877 269.0459 343.2577 284.6659 343.2577 308.1059V481.4459H316.4077C303.2277 481.4459 292.9677 491.6959 292.9677 505.8559ZM406.2477 481.4459V382.3259L452.1477 481.4459ZM542.4777 530.2759H587.8877V628.9059Z"/>
</svg>