<?xml version="1.0" encoding="UTF-8" standalone="no"?>
<svg xmlns="http://www.w3.org/2000/svg"
     width="996.09375" height="996.09375"
     viewBox="0 0 996.09375 996.09375"
     fill="currentColor">
  <path d="M498.0477 996.0977C770.5077 996.0977 996.0977 770.5077 996.0977 498.0477C996.0977 226.0777 770.0177 -0.0023 497.5577 -0.0023C225.5877 -0.0023 -0.0023 226.0777 -0.0023 498.0477C-0.0023 770.5077 226.0777 996.0977 498.0477 996.0977ZM314.9377 748.5377C333.4977 738.2777 339.3577 725.0977 339.3577 700.1977V320.3077C339.3577 271.9677 363.2777 248.0477 412.1077 248.0477H685.0577C733.8877 248.0477 758.2977 271.9677 758.2977 320.3077V676.2677C758.2977 725.0977 733.8877 748.5377 685.0577 748.5377ZM434.0777 388.1877H663.0877C672.8477 388.1877 679.1977 381.3477 679.1977 372.0677C679.1977 363.7677 672.8477 357.4177 663.0877 357.4177H434.0777C424.8077 357.4177 418.4577 363.7677 418.4577 372.0677C418.4577 381.3477 424.8077 388.1877 434.0777 388.1877ZM236.3277 475.5877C236.3277 448.2377 253.9077 431.6377 282.2277 431.6377H293.9477V684.0777C293.9477 701.1677 281.2477 712.3977 265.1377 712.3977C248.5377 712.3977 236.3277 701.6577 236.3277 684.0777ZM434.0777 470.7077H663.0877C672.8477 470.7077 679.1977 463.8677 679.1977 455.0777C679.1977 445.7977 672.8477 439.4577 663.0877 439.4577H434.0777C424.8077 439.4577 418.4577 445.7977 418.4577 455.0777C418.4577 463.8677 424.8077 470.7077 434.0777 470.7077ZM579.0977 554.1977H663.0877C672.8477 554.1977 679.1977 547.3677 679.1977 539.0577C679.1977 530.2777 672.8477 523.4377 663.0877 523.4377H579.0977C569.8277 523.4377 563.4777 530.2777 563.4777 539.0577C563.4777 547.3677 569.8277 554.1977 579.0977 554.1977ZM444.8277 637.2077H503.4177C520.9977 637.2077 531.7377 626.9577 531.7377 609.3777V551.2677C531.7377 533.6877 520.9977 523.4377 503.4177 523.4377H444.8277C428.2277 523.4377 417.9677 533.6877 417.9677 551.2677V609.3777C417.9677 626.9577 428.2277 637.2077 444.8277 637.2077ZM579.0977 637.2077H663.0877C672.8477 637.2077 679.1977 630.8577 679.1977 621.5777C679.1977 612.7977 672.8477 605.9577 663.0877 605.9577H579.0977C569.8277 605.9577 563.4777 612.7977 563.4777 621.5777C563.4777 630.8577 569.8277 637.2077 579.0977 637.2077Z"/>
</svg>