<?xml version="1.0" encoding="UTF-8" standalone="no"?>
<svg xmlns="http://www.w3.org/2000/svg"
     width="982.421875" height="958.49609375"
     viewBox="0 0 982.421875 958.49609375"
     fill="currentColor">
  <path d="M215.8177 943.8461C253.4177 943.8461 291.9877 931.1561 326.6577 908.2061C365.7277 937.4961 417.9677 958.4961 491.2077 958.4961C564.4577 958.4961 616.2077 937.4961 655.7577 908.2061C690.4277 931.1561 729.0077 943.8461 766.5977 943.8461C896.4877 943.8461 982.4177 861.8161 982.4177 738.2861C982.4177 620.6061 897.4577 532.7161 768.0677 518.5561C723.6377 402.3461 688.4777 274.4161 660.1577 151.8561C637.6977 52.7361 582.0277 -0.0039 491.2077 -0.0039C400.3877 -0.0039 344.7277 52.7361 322.2677 151.8561C293.9477 274.4161 258.7877 402.3461 214.3577 518.5561C84.9577 532.7161 -0.0023 620.6061 -0.0023 738.2861C-0.0023 861.8161 85.9377 943.8461 215.8177 943.8461ZM291.5077 783.2061C269.5277 759.2761 254.3977 745.1161 228.0277 745.1161C190.9177 745.1161 170.4077 772.4561 170.4077 800.7861C170.4077 829.1061 192.8677 856.4461 231.4477 856.4461C244.1377 856.4461 255.3677 853.0261 265.1377 846.6761C268.0677 850.0961 270.5077 853.0261 273.4377 856.4461C255.3677 864.7461 236.3277 869.1361 216.3077 869.1361C139.1577 869.1361 81.5477 816.8961 81.5477 743.1661C81.5477 636.2261 170.8977 582.5161 272.9477 598.1461C332.0277 468.2661 362.3077 311.5261 395.9977 171.3861C410.6477 111.3261 437.9877 78.6161 491.2077 78.6161C544.4377 78.6161 571.7777 111.3261 585.9377 171.3861C620.1177 311.5261 650.3877 468.2661 709.4777 598.1461C811.5277 582.5161 900.8777 636.2261 900.8777 743.1661C900.8777 816.8961 843.2577 869.1361 766.1177 869.1361C746.0977 869.1361 727.0477 864.7461 708.9877 856.4461C711.9177 853.0261 714.3577 850.0961 716.7977 846.6761C727.0477 853.0261 738.2777 856.4461 750.4877 856.4461C789.5477 856.4461 812.0077 829.1061 812.0077 800.7861C812.0077 772.4561 791.0177 745.1161 754.3977 745.1161C728.0277 745.1161 712.8877 759.2761 690.9177 783.2061C630.3677 848.1461 575.6877 876.4661 491.2077 876.4661C406.7377 876.4661 351.5577 848.6361 291.5077 783.2061Z"/>
</svg>