<?xml version="1.0" encoding="UTF-8" standalone="no"?>
<svg xmlns="http://www.w3.org/2000/svg"
     width="888.671875" height="888.18359375"
     viewBox="0 0 888.671875 888.18359375"
     fill="currentColor">
  <path d="M831.5383 57.615C781.7383 7.815 711.4283 -0.005 627.9283 -0.005H259.2783C177.2483 -0.005 106.9383 7.815 57.1283 57.615C7.3283 107.425 -0.0017 177.245 -0.0017 258.785V627.925C-0.0017 711.425 7.3283 780.765 57.1283 830.565C106.9383 880.375 177.2483 888.185 260.2583 888.185H627.9283C711.4283 888.185 781.7383 880.375 831.5383 830.565C881.3483 780.765 888.6683 711.425 888.6683 627.925V260.255C888.6683 176.755 881.3483 106.935 831.5383 57.615ZM444.3383 714.845C298.3383 714.845 174.8083 591.305 174.8083 444.825C174.8083 297.855 297.3683 174.805 444.3383 174.805C590.8183 174.805 714.3583 298.335 714.3583 444.825C714.3583 591.795 591.7983 714.845 444.3383 714.845ZM336.4283 283.205L606.4483 552.735C626.9483 521.485 640.1383 484.375 640.1383 444.825C640.1383 338.375 550.7783 249.025 444.3383 249.025C404.7883 249.025 367.6783 261.715 336.4283 283.205ZM249.0283 444.825C249.0283 551.265 338.3783 640.625 444.3383 640.625C484.3783 640.625 521.4883 627.925 552.2483 606.445L282.7183 336.915C262.2083 368.165 249.0283 405.275 249.0283 444.825Z"/>
</svg>