<?xml version="1.0" encoding="UTF-8" standalone="no"?>
<svg xmlns="http://www.w3.org/2000/svg"
     width="973.14453125" height="898.92578125"
     viewBox="0 0 973.14453125 898.92578125"
     fill="currentColor">
  <path d="M153.3183 898.9295H820.3083C922.3683 898.9295 973.1483 848.1495 973.1483 747.5595V151.3695C973.1483 50.7795 922.3683 -0.0005 820.3083 -0.0005H153.3183C51.2683 -0.0005 -0.0017 50.2895 -0.0017 151.3695V747.5595C-0.0017 848.6295 51.2683 898.9295 153.3183 898.9295ZM145.9983 820.3095C102.5383 820.3095 78.6183 797.3595 78.6183 751.9495V291.4995C78.6183 246.5795 102.5383 223.1395 145.9983 223.1395H826.6583C870.1183 223.1395 894.5283 246.5795 894.5283 291.4995V751.9495C894.5283 797.3595 870.1183 820.3095 826.6583 820.3095ZM230.9583 404.7895H743.6483C760.7383 404.7895 773.9283 391.1095 773.9283 374.0195C773.9283 357.4195 760.7383 344.7295 743.6483 344.7295H230.9583C212.8883 344.7295 200.1983 357.4195 200.1983 374.0195C200.1983 391.1095 212.8883 404.7895 230.9583 404.7895ZM230.9583 551.7595H743.6483C760.7383 551.7595 773.9283 539.0595 773.9283 522.4595C773.9283 504.8795 760.7383 491.6995 743.6483 491.6995H230.9583C212.8883 491.6995 200.1983 504.8795 200.1983 522.4595C200.1983 539.0595 212.8883 551.7595 230.9583 551.7595ZM230.9583 698.7295H556.6383C573.7283 698.7295 586.9183 686.0395 586.9183 669.4295C586.9183 652.3395 573.7283 638.6695 556.6383 638.6695H230.9583C212.8883 638.6695 200.1983 652.3395 200.1983 669.4295C200.1983 686.0395 212.8883 698.7295 230.9583 698.7295Z"/>
</svg>