<?xml version="1.0" encoding="UTF-8" standalone="no"?>
<svg xmlns="http://www.w3.org/2000/svg"
     width="973.14453125" height="898.92578125"
     viewBox="0 0 973.14453125 898.92578125"
     fill="currentColor">
  <path d="M153.3183 898.9295H820.3083C922.3683 898.9295 973.1483 848.1495 973.1483 747.5595V151.3695C973.1483 50.7795 922.3683 -0.0005 820.3083 -0.0005H153.3183C51.2683 -0.0005 -0.0017 50.2895 -0.0017 151.3695V747.5595C-0.0017 848.6295 51.2683 898.9295 153.3183 898.9295ZM145.9983 820.3095C102.5383 820.3095 78.6183 797.3595 78.6183 751.9495V291.4995C78.6183 246.5795 102.5383 223.1395 145.9983 223.1395H826.6583C870.1183 223.1395 894.5283 246.5795 894.5283 291.4995V751.9495C894.5283 797.3595 870.1183 820.3095 826.6583 820.3095Z"/>
</svg>