<?xml version="1.0" encoding="UTF-8" standalone="no"?>
<svg xmlns="http://www.w3.org/2000/svg"
     width="996.09375" height="996.09375"
     viewBox="0 0 996.09375 996.09375"
     fill="currentColor">
  <path d="M498.0477 996.0959C770.5077 996.0959 996.0977 770.0159 996.0977 498.0459C996.0977 225.5859 770.0177 -0.0041 497.5577 -0.0041C225.5877 -0.0041 -0.0023 225.5859 -0.0023 498.0459C-0.0023 770.0159 226.0777 996.0959 498.0477 996.0959ZM368.1677 744.1359C347.6577 744.1359 332.5177 726.5659 336.4277 705.5659L356.9377 606.4459H311.5277C294.9177 606.4459 282.7177 594.2359 282.7177 576.6559C282.7177 557.6159 296.8777 542.9659 316.8977 542.9659H370.6077L391.5977 440.9159H347.6577C330.5677 440.9159 318.3577 428.2259 318.3577 411.1359C318.3577 391.6059 332.5177 376.9559 352.5377 376.9559H405.2777L426.7577 273.9259C430.6677 254.8859 443.3577 244.6259 463.8677 244.6259C484.3777 244.6259 499.0277 262.6959 494.6277 283.2059L475.5877 376.9559H568.8477L590.8177 273.9259C594.7277 254.8859 607.4177 244.6259 626.9577 244.6259C647.9477 244.6259 662.5977 262.2059 659.1777 283.2059L639.1577 376.9559H684.0777C700.6877 376.9559 712.8877 389.6459 712.8877 406.7359C712.8877 426.2659 698.7277 440.9159 678.7077 440.9159H625.9777L604.4877 542.9659H648.4377C665.0377 542.9659 677.2477 555.6659 677.2477 572.7559C677.2477 591.7959 663.0877 606.4459 643.0677 606.4459H590.8177L568.3577 715.3359C564.4577 733.8859 551.2677 744.1359 530.7577 744.1359C510.2577 744.1359 495.6077 726.5659 499.9977 705.5659L520.5077 606.9359H427.2477L403.8077 715.3359C400.3877 733.8859 388.1877 744.1359 368.1677 744.1359ZM436.0377 548.8259H536.6177L561.0377 435.5459H459.4777Z"/>
</svg>