<?xml version="1.0" encoding="UTF-8" standalone="no"?>
<svg xmlns="http://www.w3.org/2000/svg"
     width="929.6875" height="707.51953125"
     viewBox="0 0 929.6875 707.51953125"
     fill="currentColor">
  <path d="M759.7683 333.9867C859.8683 333.9867 929.6883 265.6267 929.6883 166.9967C929.6883 68.8467 859.8683 -0.0033 759.7683 -0.0033C662.5983 -0.0033 595.2183 68.8467 595.2183 166.9967C595.2183 265.6267 663.0883 333.9867 759.7683 333.9867ZM41.5083 707.5167C67.8683 707.5167 83.4983 690.9167 83.4983 664.5467V157.2267L433.1083 674.8067C450.1983 699.2167 463.3783 707.5167 484.8683 707.5167C513.1883 707.5167 529.7883 689.9367 529.7883 659.6667V46.3867C529.7883 19.5267 514.1583 2.4367 487.7883 2.4367C462.3983 2.4367 446.2883 19.5267 446.2883 46.3867V553.2267L96.6783 35.1567C79.5883 10.2567 67.3783 2.4367 44.9183 2.4367C17.5783 2.4367 -0.0017 21.4867 -0.0017 50.2967V664.5467C-0.0017 690.9167 16.5983 707.5167 41.5083 707.5167ZM759.7683 269.0467C708.0083 269.0467 671.8783 227.0467 671.8783 166.9967C671.8783 106.9367 708.0083 65.4267 759.7683 65.4267C814.9383 65.4267 852.5383 106.9367 852.5383 166.9967C852.5383 227.0467 814.4483 269.0467 759.7683 269.0467ZM643.0683 456.0567H882.3283C905.7583 456.0567 923.8283 441.4067 923.8283 417.4767C923.8283 393.5567 905.7583 377.9267 882.3283 377.9267H643.0683C619.6283 377.9267 602.5383 393.5567 602.5383 417.4767C602.5383 441.4067 619.6283 456.0567 643.0683 456.0567Z"/>
</svg>