<?xml version="1.0" encoding="UTF-8" standalone="no"?>
<svg xmlns="http://www.w3.org/2000/svg"
     width="996.09375" height="996.09375"
     viewBox="0 0 996.09375 996.09375"
     fill="currentColor">
  <path d="M498.0477 996.0959C770.5077 996.0959 996.0977 770.0159 996.0977 498.0459C996.0977 225.5859 770.0177 -0.0041 497.5577 -0.0041C225.5877 -0.0041 -0.0023 225.5859 -0.0023 498.0459C-0.0023 770.0159 226.0777 996.0959 498.0477 996.0959ZM498.0477 913.0859C267.5777 913.0859 83.4977 728.5159 83.4977 498.0459C83.4977 267.5759 267.0877 83.0059 497.5577 83.0059C728.0277 83.0059 913.0877 267.5759 913.0877 498.0459C913.0877 728.5159 728.5177 913.0859 498.0477 913.0859ZM497.5577 727.0459C622.5577 727.0459 708.9877 631.3459 708.9877 493.6559C708.9877 355.4659 622.5577 259.7659 497.5577 259.7659C373.0477 259.7659 286.6177 355.4659 286.6177 493.6559C286.6177 631.3459 373.0477 727.0459 497.5577 727.0459ZM497.5577 665.5259C416.9877 665.5259 364.2577 597.6559 364.2577 493.6559C364.2577 389.1559 416.9877 321.2859 497.5577 321.2859C578.1277 321.2859 630.8577 389.1559 630.8577 493.6559C630.8577 597.6559 578.1277 665.5259 497.5577 665.5259Z"/>
</svg>