<?xml version="1.0" encoding="UTF-8" standalone="no"?>
<svg xmlns="http://www.w3.org/2000/svg"
     width="898.92578125" height="898.92578125"
     viewBox="0 0 898.92578125 898.92578125"
     fill="currentColor">
  <path d="M153.3183 898.9295H745.6083C848.1483 898.9295 898.9283 848.1495 898.9283 747.5595V151.3695C898.9283 50.7795 848.1483 -0.0005 745.6083 -0.0005H153.3183C51.2683 -0.0005 -0.0017 50.2895 -0.0017 151.3695V747.5595C-0.0017 848.6295 51.2683 898.9295 153.3183 898.9295ZM154.2983 820.3095C105.4683 820.3095 78.6183 794.4295 78.6183 743.6495V155.2695C78.6183 104.4895 105.4683 78.6095 154.2983 78.6095H744.6283C792.9683 78.6095 820.3083 104.4895 820.3083 155.2695V743.6495C820.3083 794.4295 792.9683 820.3095 744.6283 820.3095ZM449.7083 677.7295C574.7083 677.7295 661.1283 582.0295 661.1283 444.3395C661.1283 306.1495 574.7083 210.4495 449.7083 210.4495C325.1983 210.4495 238.7683 306.1495 238.7683 444.3395C238.7683 582.0295 325.1983 677.7295 449.7083 677.7295ZM449.7083 616.2095C369.1383 616.2095 316.4083 548.3395 316.4083 444.3395C316.4083 339.8395 369.1383 271.9695 449.7083 271.9695C530.2783 271.9695 583.0083 339.8395 583.0083 444.3395C583.0083 548.3395 530.2783 616.2095 449.7083 616.2095Z"/>
</svg>