<?xml version="1.0" encoding="UTF-8" standalone="no"?>
<svg xmlns="http://www.w3.org/2000/svg"
     width="982.4811471210264" height="877.6525875555783"
     viewBox="0 0 982.4811471210264 877.6525875555783"
     fill="currentColor">
  <path d="M37.6279 840.2719C78.1579 880.3119 125.0279 889.5919 152.3779 861.2719L337.4279 675.2319C368.1979 645.4519 382.8379 617.1319 387.7279 586.8519L399.4479 517.0319L491.2379 425.2319L583.5279 517.0319L594.7579 586.8519C599.6379 617.1319 614.2879 645.4519 645.0479 675.2319L830.1079 861.2719C857.4479 889.5919 904.8179 880.3119 944.8579 840.2719C985.3779 799.7419 994.1679 752.8719 966.3379 725.5219L780.3079 539.9819C750.0279 509.7019 722.1979 494.5719 691.9279 490.1719L621.6079 478.4519L529.8179 386.6619L807.1579 109.3119L831.0879 133.2419C842.3179 143.9819 858.9179 143.4919 869.6579 133.2419C880.3979 122.0119 880.8879 105.4119 869.6579 94.6619L783.2279 8.2419C771.9979 -2.9881 755.3979 -2.4981 744.6579 8.2419C733.9179 18.9819 733.4279 35.5819 744.6579 46.3219L768.5879 70.7419L491.2379 348.0819L213.8979 70.7419L237.8179 46.3219C249.0579 35.5819 248.5679 18.9819 237.8179 8.2419C227.0779 -2.4981 210.4779 -2.9881 199.2479 8.2419L112.8179 94.6619C102.0779 105.4119 102.5679 122.0119 112.8179 133.2419C124.0579 143.4919 140.6579 143.9819 151.3979 133.2419L175.3179 109.3119L452.6679 386.6619L360.8679 478.4519L290.5579 490.1719C260.7679 494.5719 232.4479 509.7019 202.1779 539.9819L16.1479 725.5219C-11.6921 752.8719 -2.9021 799.7419 37.6279 840.2719Z"/>
</svg>