<?xml version="1.0" encoding="UTF-8" standalone="no"?>
<svg xmlns="http://www.w3.org/2000/svg"
     width="983.88671875" height="946.2890625"
     viewBox="0 0 983.88671875 946.2890625"
     fill="currentColor">
  <path d="M343.7483 946.2936H640.1383C702.1483 946.2936 731.4483 926.2736 763.6683 891.6036L943.3583 692.3836C975.5883 656.7336 983.8883 633.3036 983.8883 584.9636V361.8136C983.8883 312.9836 975.5883 290.0436 943.3583 254.3936L763.6683 55.1736C731.4483 20.5036 702.1483 0.0036 640.1383 0.0036H343.7483C281.7383 0.0036 251.9483 20.5036 220.2183 55.1736L40.5283 254.3936C8.2983 290.0436 -0.0017 312.9836 -0.0017 361.8136V584.9636C-0.0017 633.3036 8.2983 656.7336 40.5283 692.3836L220.2183 891.6036C251.9483 926.2736 281.7383 946.2936 343.7483 946.2936ZM893.5583 473.1436V575.6836C893.5583 611.3236 889.1583 623.5336 869.6283 645.0236L703.6183 828.1236C676.2683 857.4236 662.5983 868.1636 613.7683 868.1636H370.1183C321.2883 868.1636 307.1283 857.4236 280.2783 828.1236L113.7683 645.0236C94.7283 623.5336 90.3283 611.3236 90.3283 575.6836V473.1436Z"/>
</svg>