<?xml version="1.0" encoding="UTF-8" standalone="no"?>
<svg xmlns="http://www.w3.org/2000/svg"
     width="1003.41796875" height="965.8203125"
     viewBox="0 0 1003.41796875 965.8203125"
     fill="currentColor">
  <path d="M353.5183 965.8192H649.8983C711.9183 965.8192 741.2083 945.7992 773.4383 911.1292L962.8883 702.1492C994.6283 666.9892 1003.4183 643.0692 1003.4183 594.7292V371.5792C1003.4183 322.7492 994.6283 299.3192 962.8883 264.1592L773.4383 55.1792C741.2083 20.5092 711.9183 -0.0008 649.8983 -0.0008H353.5183C291.5083 -0.0008 261.7183 20.5092 229.9783 55.1792L40.5283 264.1592C8.2983 299.3192 -0.0017 322.7492 -0.0017 371.5792V594.7292C-0.0017 643.0692 8.2983 666.9892 40.5283 702.1492L229.9783 911.1292C261.7183 945.7992 291.5083 965.8192 353.5183 965.8192Z"/>
</svg>