<?xml version="1.0" encoding="UTF-8" standalone="no"?>
<svg xmlns="http://www.w3.org/2000/svg"
     width="1724.6738488080468" height="769.53125"
     viewBox="0 0 1724.6738488080468 769.53125"
     fill="currentColor">
  <path d="M27.8928 277.3447L278.3828 662.5947C308.1728 708.0047 348.2128 724.1247 408.2628 724.1247H830.1428C904.3628 724.1247 952.2128 705.0747 986.3928 662.1047L1315.0028 240.7247L1504.4628 190.9147L1571.8428 248.5347C1611.8828 283.2047 1664.1228 231.9347 1623.6028 195.8047L1549.8728 131.3447C1534.2428 117.6747 1520.0828 112.3047 1488.8328 120.6047L899.4828 277.3447L819.4028 199.7047C797.4328 178.7147 773.9928 173.3447 744.2028 173.3447H615.3028V71.2847H724.1828C743.7128 71.2847 760.3228 55.1747 760.3228 35.6447C760.3228 16.1147 743.7128 0.0047 724.1828 0.0047H435.6128C416.0828 0.0047 399.4828 16.1147 399.4828 35.6447C399.4828 55.1747 416.0828 71.2847 435.6128 71.2847H544.0128V173.3447H408.2628C394.1028 173.3447 381.4128 174.3147 369.6928 176.7547L153.3828 95.2147C37.1728 51.2647 -45.8372 165.5247 27.8928 277.3447ZM75.2628 222.1647C50.8428 183.5947 79.1628 144.0447 122.1328 159.6647L286.6828 223.1447C269.5928 246.5847 260.3228 278.8047 260.3228 319.8247V506.8347ZM1604.0728 769.5347C1669.9828 769.5347 1724.6728 717.2847 1724.6728 650.8747C1724.6728 613.2847 1706.1228 577.6347 1687.5628 543.4547L1615.3028 409.1747C1612.8528 404.2947 1608.4628 401.8547 1604.0728 401.8547C1598.6928 401.8547 1595.7628 404.2947 1593.3228 409.6647L1520.0828 543.4547C1502.0128 577.6347 1483.4628 613.2847 1483.4628 650.8747C1483.4628 717.2847 1537.6628 769.5347 1604.0728 769.5347Z"/>
</svg>