<?xml version="1.0" encoding="UTF-8" standalone="no"?>
<svg xmlns="http://www.w3.org/2000/svg"
     width="996.09375" height="996.09375"
     viewBox="0 0 996.09375 996.09375"
     fill="currentColor">
  <path d="M632.3277 20.0159C589.3577 7.3259 544.4377 -0.0041 497.5577 -0.0041C225.5877 -0.0041 -0.0023 225.5859 -0.0023 498.0459C-0.0023 544.9259 7.3277 591.3059 20.5077 634.2759L279.7877 549.8059C275.3877 533.2059 273.4377 516.1159 273.4377 498.0459C273.4377 375.4859 375.4877 274.4159 499.0277 274.4159C515.6277 274.4159 531.7377 276.8559 547.3677 280.2759ZM886.2277 189.9459C831.5477 119.6259 757.3277 64.4559 671.8777 33.6959L587.3977 293.9459C618.1677 306.1559 645.9977 326.1759 666.9877 352.0459ZM964.3577 329.1059C951.1677 291.5059 933.1077 256.3459 911.1377 223.6359L692.3877 385.7459C697.7577 394.5359 702.1477 403.8059 705.0777 413.5759ZM498.5377 673.8259C595.2177 673.8259 673.3377 594.7259 673.3377 498.0459C673.3377 402.8359 594.7277 324.2159 498.5377 324.2159C402.3477 324.2159 323.2377 403.3159 323.2377 498.0459C323.2377 595.7059 401.8577 673.8259 498.5377 673.8259ZM366.6977 977.0459C408.6877 989.2559 453.1277 996.0959 498.0477 996.0959C770.5077 996.0959 996.0977 770.0159 996.0977 498.0459C996.0977 453.1259 989.7477 410.1559 978.0277 369.1359L718.2577 453.1259C721.6777 467.7759 723.1477 482.4259 723.1477 498.0459C723.1477 622.5559 622.5577 723.1459 498.5377 723.6359C481.9377 723.6359 466.3077 722.1659 450.6877 718.2659ZM498.5377 617.6759C433.1077 617.6759 379.3977 563.9659 379.3977 499.0259C379.3977 434.0859 433.1077 380.3759 498.5377 380.3759C563.4777 380.3759 617.1877 434.0859 617.1877 498.5359C617.1877 563.9659 563.4777 617.6759 498.5377 617.6759ZM498.5377 563.4759C533.6877 563.9659 562.4977 534.6659 562.4977 498.5359C562.4977 463.8659 533.6877 434.5659 499.0277 434.5659C462.3977 434.5659 434.0777 464.3559 434.0777 498.5359C434.0777 534.6659 462.3977 562.9859 498.5377 563.4759ZM34.6677 673.8259C48.3377 710.4459 66.4077 745.1159 87.8877 777.3459L306.6377 615.7259C301.7577 607.4259 297.8477 598.6359 293.9477 589.3559ZM113.7677 811.0359C168.4577 879.8859 242.6777 934.0859 326.6577 963.3759L410.6477 705.0759C380.8577 693.3559 353.5177 673.8259 333.0077 649.4159Z"/>
</svg>