<?xml version="1.0" encoding="UTF-8" standalone="no"?>
<svg xmlns="http://www.w3.org/2000/svg"
     width="1123.53515625" height="817.3828125"
     viewBox="0 0 1123.53515625 817.3828125"
     fill="currentColor">
  <path d="M193.3583 366.2122H930.1783C976.0783 366.2122 1018.0683 376.4622 1054.1983 395.0222L937.4983 113.2822C907.2283 39.5522 843.2583 0.0022 758.7883 0.0022H364.7483C280.2783 0.0022 216.3083 39.5522 186.0383 113.2822L68.8483 395.0222C105.4683 376.4622 147.4583 366.2122 193.3583 366.2122ZM193.3583 817.3822H930.1783C1044.4383 817.3822 1123.5383 738.7722 1123.5383 625.4922C1123.5383 512.2022 1044.4383 433.1022 930.1783 433.1022H193.3583C79.0983 433.1022 -0.0017 512.2022 -0.0017 625.4922C-0.0017 738.7722 79.0983 817.3822 193.3583 817.3822ZM181.1483 625.4922C181.1483 605.9522 196.7783 589.8422 216.7983 589.8422H906.7383C926.7583 589.8422 942.3783 605.9522 942.3783 625.4922C942.3783 645.0222 926.7583 661.6222 906.7383 661.6222H216.7983C196.7783 661.6222 181.1483 645.0222 181.1483 625.4922Z"/>
</svg>