<?xml version="1.0" encoding="UTF-8" standalone="no"?>
<svg xmlns="http://www.w3.org/2000/svg"
     width="1015.13671875" height="842.7734375"
     viewBox="0 0 1015.13671875 842.7734375"
     fill="currentColor">
  <path d="M114.7483 842.7758H900.3883C969.2383 842.7758 1015.1383 796.3858 1015.1383 728.0258V114.7458C1015.1383 46.3858 969.2383 -0.0042 900.3883 -0.0042H114.7483C45.8983 -0.0042 -0.0017 46.3858 -0.0017 114.7458V728.0258C-0.0017 796.3858 45.8983 842.7758 114.7483 842.7758ZM78.6183 118.6558C78.6183 94.7258 93.2583 78.6158 115.7183 78.6158H899.8983C921.8783 78.6158 936.5283 94.7258 936.5283 118.6558V228.0258H78.6183ZM214.8483 196.7758C238.2783 196.7758 257.3283 177.7358 257.3283 153.8058C257.3283 130.3758 238.2783 111.3258 214.8483 111.3258C190.9183 111.3258 171.8783 130.3758 171.8783 153.8058C171.8783 177.7358 190.9183 196.7758 214.8483 196.7758ZM340.3283 196.7758C364.2583 196.7758 383.2983 177.7358 383.2983 153.8058C383.2983 130.3758 364.2583 111.3258 340.3283 111.3258C316.8983 111.3258 297.8483 130.3758 297.8483 153.8058C297.8483 177.7358 316.8983 196.7758 340.3283 196.7758ZM466.3083 196.7758C489.7483 196.7758 508.7883 177.7358 508.7883 153.8058C508.7883 130.3758 489.7483 111.3258 466.3083 111.3258C442.3783 111.3258 423.3383 130.3758 423.3383 153.8058C423.3383 177.7358 442.3783 196.7758 466.3083 196.7758ZM695.3083 178.7158H827.1483C841.7983 178.7158 851.5583 168.4558 851.5583 153.8058C851.5583 139.1558 841.7983 129.3958 827.1483 129.3958H695.3083C680.6683 129.3958 670.4083 139.1558 670.4083 153.8058C670.4083 168.4558 680.6683 178.7158 695.3083 178.7158ZM115.7183 764.1558C93.2583 764.1558 78.6183 748.0458 78.6183 724.1258V291.9958H936.5283V724.1258C936.5283 748.0458 921.8783 764.1558 899.8983 764.1558ZM205.5683 703.6158H810.0583C837.8883 703.6158 855.4683 686.0358 855.4683 658.2058V393.0658C855.4683 365.2358 837.8883 347.1658 810.0583 347.1658H205.5683C177.7383 347.1658 159.6683 365.2358 159.6683 393.0658V658.2058C159.6683 686.0358 177.7383 703.6158 205.5683 703.6158ZM214.3583 414.5458C214.3583 406.7358 219.7283 401.3658 227.0483 401.3658H788.5783C795.8983 401.3658 801.2683 406.7358 801.2683 414.5458V456.0558H214.3583ZM227.0483 649.4158C219.7283 649.4158 214.3583 644.0458 214.3583 636.7158V510.2558H801.2683V636.7158C801.2683 644.0458 795.8983 649.4158 788.5783 649.4158Z"/>
</svg>