<?xml version="1.0" encoding="UTF-8" standalone="no"?>
<svg xmlns="http://www.w3.org/2000/svg"
     width="898.92578125" height="898.92578125"
     viewBox="0 0 898.92578125 898.92578125"
     fill="currentColor">
  <path d="M153.3183 898.9295H745.6083C848.1483 898.9295 898.9283 848.1495 898.9283 747.5595V151.3695C898.9283 50.7795 848.1483 -0.0005 745.6083 -0.0005H153.3183C51.2683 -0.0005 -0.0017 50.2895 -0.0017 151.3695V747.5595C-0.0017 848.6295 51.2683 898.9295 153.3183 898.9295ZM341.7983 679.6895C315.9183 679.6895 301.7583 660.6395 301.7583 633.7895V260.2495C301.7583 232.9095 315.4283 214.3595 341.7983 214.3595H481.9383C579.5883 214.3595 645.9983 276.8595 645.9983 369.6295C645.9983 462.3995 580.5683 523.9295 481.4483 523.9295H382.8083V633.7895C382.8083 661.6195 368.6483 679.6895 341.7983 679.6895ZM382.8083 462.3995H470.6983C529.7883 462.3995 565.9183 426.7595 565.9183 369.6295C565.9183 312.0095 529.2983 276.3695 470.6983 276.3695H382.8083Z"/>
</svg>