<?xml version="1.0" encoding="UTF-8" standalone="no"?>
<svg xmlns="http://www.w3.org/2000/svg"
     width="1038.5876450516366" height="1160.860683688837"
     viewBox="0 0 1038.5876450516366 1160.860683688837"
     fill="currentColor">
  <path d="M61.5898 1099.0231C143.1298 1180.5731 238.3498 1181.5431 318.4198 1101.4631C377.5098 1042.3831 439.5198 903.2231 485.4198 848.5331L589.4198 953.0331C627.5098 991.6031 673.3998 991.6031 710.5098 954.4931L773.4998 891.0131C803.2898 860.7431 809.1498 826.5631 791.0798 794.3331L998.5998 586.8231C1052.7998 532.6231 1051.8198 467.6731 996.1598 412.0131L612.8598 28.2231C561.5898 -23.0469 472.7198 -3.0269 454.6498 76.5631C415.0998 248.9231 408.2698 288.4831 357.4898 365.6231C328.1898 352.9331 296.9398 360.2531 269.5998 387.1131L206.6098 450.5831C169.4998 487.6931 169.0098 533.1031 207.5798 571.6831L312.0798 675.6831C257.8798 721.5831 118.7198 783.1031 59.6398 842.1931C-20.4402 922.2631 -19.9502 1017.9731 61.5898 1099.0231ZM689.5198 540.4331C714.4198 565.3331 847.7198 492.5831 901.4298 432.0331L936.5898 467.1931C959.0498 489.6531 959.0498 516.9931 938.0498 537.9931L739.3198 737.2131L418.5198 416.4031C476.1398 329.9831 486.3898 268.4631 527.4098 117.0931C533.7598 92.1931 554.2598 85.8431 570.8698 101.9531L798.3998 329.0031C786.6898 410.0631 743.2298 469.6331 690.9798 521.8731C684.6398 528.2231 685.1198 536.0331 689.5198 540.4331ZM274.4798 494.0431L314.0298 455.4731C326.7198 442.7731 340.3998 442.2831 353.0898 454.9831L706.1198 807.5231C718.3298 820.2131 718.3298 833.8931 705.1398 847.0731L667.0598 885.6431C654.3598 899.3231 639.7098 899.8031 627.0198 886.1331L510.3198 768.9431C492.2498 750.8831 468.8098 752.8331 448.3098 772.8531C410.2198 810.4531 343.3298 971.0931 265.6898 1048.2431C218.8098 1095.6031 162.1698 1095.6031 113.3498 1047.2631C65.4898 998.9231 65.0098 941.8031 112.3698 894.9231C190.0098 817.7731 350.6498 750.8831 388.2498 712.7931C407.7798 691.8031 410.2198 668.3631 392.1498 650.7831L274.4798 533.5931C261.7798 520.9031 261.7798 506.7431 274.4798 494.0431ZM188.0498 1034.0831C221.2598 1034.0831 248.1098 1006.7431 248.1098 973.5331C248.1098 940.3331 221.2598 913.4831 188.0498 913.4831C154.8498 913.4831 127.5098 940.3331 127.5098 973.5331C127.5098 1006.7431 154.8498 1034.0831 188.0498 1034.0831Z"/>
</svg>