<?xml version="1.0" encoding="UTF-8" standalone="no"?>
<svg xmlns="http://www.w3.org/2000/svg"
     width="1176.26953125" height="978.02734375"
     viewBox="0 0 1176.26953125 978.02734375"
     fill="currentColor">
  <path d="M631.8377 978.0314C837.3977 978.0314 974.6077 905.2714 974.6077 797.8514C974.6077 701.6614 892.5777 680.1714 892.5777 623.5314C892.5777 545.4114 1176.2677 529.7814 1176.2677 329.1014C1176.2677 130.8614 971.6777 0.0014 667.9677 0.0014C269.0477 0.0014 -0.0023 199.2214 -0.0023 497.5614C-0.0023 784.6714 255.3677 978.0314 631.8377 978.0314ZM631.8377 894.5314C301.2677 894.5314 83.4977 735.3514 83.4977 497.5614C83.4977 248.5314 314.9377 83.4914 667.9677 83.4914C924.3177 83.4914 1092.7777 183.1014 1092.7777 329.1014C1092.7777 499.5114 807.1277 476.5614 807.1277 624.0214C807.1277 707.5214 891.1177 733.8914 891.1177 791.5014C891.1177 853.5114 789.0577 894.5314 631.8377 894.5314ZM672.3677 329.1014C718.2577 329.1014 754.3977 292.4814 754.3977 246.5814C754.3977 201.1714 718.2577 164.5514 672.3677 164.5514C627.4377 164.5514 589.8477 201.1714 589.8477 246.5814C589.8477 292.4814 627.4377 329.1014 672.3677 329.1014ZM424.8077 408.2014C481.4477 408.2014 527.3477 362.7914 527.3477 305.1714C527.3477 249.0214 480.9577 204.1014 424.8077 204.1014C367.6777 204.1014 321.7777 249.0214 321.7777 305.1714C321.7777 362.7914 367.6777 408.2014 424.8077 408.2014ZM895.5077 360.3514C932.1277 360.3514 961.4277 330.5614 961.4277 293.4614C961.4277 256.8314 932.1277 227.0514 895.5077 227.0514C858.3977 227.0514 828.1277 256.8314 828.1277 293.4614C828.1277 330.5614 858.3977 360.3514 895.5077 360.3514ZM246.5777 564.4514C291.5077 564.4514 327.6377 527.3414 327.6377 482.4214C327.6377 437.5014 291.5077 401.3714 246.5777 401.3714C202.1477 401.3714 165.5277 437.5014 165.5277 482.4214C165.5277 527.3414 202.1477 564.4514 246.5777 564.4514ZM591.7977 779.3014C666.0177 779.3014 727.0477 718.2614 727.0477 643.5514C727.0477 569.8214 666.0177 508.7914 591.7977 508.7914C517.5777 508.7914 456.5477 569.8214 456.5477 643.5514C456.5477 718.2614 517.5777 779.3014 591.7977 779.3014ZM591.7977 722.6514C548.3377 722.6514 513.1877 687.5014 513.1877 643.5514C513.1877 595.2114 550.2977 566.4014 590.8177 565.9214C632.3277 565.4314 670.4077 593.7514 670.4077 643.5514C670.4077 687.5014 635.7377 722.6514 591.7977 722.6514Z"/>
</svg>