<?xml version="1.0" encoding="UTF-8" standalone="no"?>
<svg xmlns="http://www.w3.org/2000/svg"
     width="1060.039275522456" height="982.4848391474368"
     viewBox="0 0 1060.039275522456 982.4848391474368"
     fill="currentColor">
  <path d="M922.3852 17.3549C897.4852 35.4149 625.9952 221.4549 459.4952 368.4249C569.8452 403.0949 656.2652 489.0349 691.4252 600.8449C839.3752 434.3449 1024.9252 163.3449 1042.9852 137.9549C1100.6052 57.3949 1000.0152 -40.2651 922.3852 17.3549ZM461.9352 597.9149C497.5752 633.5649 524.4352 680.9249 530.7852 719.5049C570.3352 713.1549 602.0752 694.5949 635.2752 661.3949C640.6452 656.5149 645.5252 651.1449 650.4152 645.2849C628.9252 527.6049 530.7852 430.9249 415.0552 409.4449C409.1952 414.3249 403.8252 419.6949 398.4552 425.0649C365.2552 458.2749 347.1852 490.9849 340.8452 529.5549C378.9252 535.9049 426.7752 562.2749 461.9352 597.9149ZM10.7652 863.5449C92.3052 980.7349 272.4852 1020.7749 387.7152 940.6949C487.3252 871.3549 509.2952 763.9349 443.3752 670.1849C384.2952 585.2249 277.3652 561.2949 207.0552 611.5949C125.9952 669.2049 158.7152 748.3049 108.9052 783.4649C67.4052 813.2549 38.5952 794.6949 14.6652 810.8049C-0.9548 820.5749 -6.8148 839.1249 10.7652 863.5449Z"/>
</svg>