<?xml version="1.0" encoding="UTF-8" standalone="no"?>
<svg xmlns="http://www.w3.org/2000/svg"
     width="1074.9578416275888" height="998.8935549412864"
     viewBox="0 0 1074.9578416275888 998.8935549412864"
     fill="currentColor">
  <path d="M15.0576 881.5441C105.8776 1004.1041 296.3076 1037.3041 414.4776 949.4141C480.8776 900.0941 513.1076 832.2241 505.7776 763.3741C552.6576 755.0741 594.1576 729.1941 639.5676 683.3041C796.3076 527.0541 1035.5676 176.9541 1056.5676 147.6541C1118.0876 62.2041 1012.6176 -42.2859 926.6776 17.7741C897.8676 38.2841 547.2876 277.0541 391.0376 434.7641C345.6276 480.6641 319.2576 522.1641 310.4676 569.0441C275.3176 567.5741 239.6676 578.8041 207.9276 602.7341C131.7576 659.8641 158.6176 741.8941 116.1376 773.6341C79.0276 801.4641 44.3576 785.8341 17.4976 806.3441C-2.0324 821.9741 -8.3824 850.2941 15.0576 881.5441ZM964.2776 87.1041C980.8776 74.9041 999.4376 92.4841 986.7376 110.5441C975.5076 127.1441 780.6876 411.3241 630.7776 578.3241C608.3176 518.7441 555.5876 465.5241 496.5076 443.0641C664.9576 293.6541 945.2376 100.7841 964.2776 87.1041ZM462.3276 658.3941C439.8676 628.1241 413.9876 605.1741 386.6376 590.5241C390.5476 559.7641 407.6376 529.4941 440.8376 495.8041C498.9476 502.6341 571.2076 574.9041 578.5376 633.4941C541.9176 668.6541 513.1076 683.7841 481.3676 687.6941C475.9976 677.9241 469.6476 668.1641 462.3276 658.3941ZM114.6676 873.7341C108.3176 866.8941 108.8076 860.0541 113.2076 855.6641C120.0376 849.3141 147.3876 847.3641 168.3776 826.3641C215.7476 779.4941 199.6276 710.6441 254.3176 668.1641C299.7276 632.0341 362.7176 645.2141 405.1976 699.9041C453.0476 761.9141 436.4476 837.5941 370.5276 888.3741C296.7976 946.4841 183.0276 945.9941 114.6676 873.7341Z"/>
</svg>