<?xml version="1.0" encoding="UTF-8" standalone="no"?>
<svg xmlns="http://www.w3.org/2000/svg"
     width="996.09375" height="996.09375"
     viewBox="0 0 996.09375 996.09375"
     fill="currentColor">
  <path d="M498.0477 996.0923C770.5077 996.0923 996.0977 770.0223 996.0977 498.0423C996.0977 225.5823 770.0177 0.0023 497.5577 0.0023C225.5877 0.0023 -0.0023 225.5823 -0.0023 498.0423C-0.0023 770.0223 226.0777 996.0923 498.0477 996.0923ZM509.2777 814.9423C483.3977 814.9423 475.5877 794.4323 466.7977 766.1123L421.3877 618.1623C416.5077 598.6323 417.4777 589.3523 428.7077 578.1223L715.3277 269.0423C718.7477 265.1323 718.7477 260.7423 715.3277 257.8123C712.3977 255.8623 708.4977 254.8823 704.5877 258.3023L396.9777 546.8723C384.7677 557.6123 374.9977 557.6123 356.9377 552.2423L204.5877 506.3523C177.2477 498.0423 158.2077 489.2623 158.2077 463.8623C158.2077 443.3623 176.2677 428.7123 199.7077 420.4123L683.5977 234.8623C696.7777 229.9823 707.5177 227.0523 717.2877 227.0523C735.3477 227.0523 746.0977 238.2823 746.0977 256.3523C746.0977 266.1123 743.6477 276.8523 738.7677 290.0423L554.6877 771.4823C544.4377 798.3423 529.7877 814.9423 509.2777 814.9423Z"/>
</svg>