<?xml version="1.0" encoding="UTF-8" standalone="no"?>
<svg xmlns="http://www.w3.org/2000/svg"
     width="1022.94921875" height="1022.94921875"
     viewBox="0 0 1022.94921875 1022.94921875"
     fill="currentColor">
  <path d="M611.333 1022.9492C646.483 1022.9492 671.383 992.6792 689.453 945.7992L1009.273 110.3492C1018.063 87.8892 1022.953 67.8692 1022.953 51.2692C1022.953 19.5292 1003.423 -0.0008 971.683 -0.0008C955.083 -0.0008 935.063 4.8792 912.593 13.6692L72.753 335.4492C31.743 351.0692 0.003 375.9792 0.003 411.6192C0.003 456.5392 34.183 471.6792 81.053 485.8392L433.593 589.3592L536.133 937.4992C550.783 986.8192 565.923 1022.9492 611.333 1022.9492ZM455.563 515.1392L118.653 412.1092C110.843 409.6692 108.403 407.7192 108.403 404.2992C108.403 400.8792 110.353 398.4392 117.673 395.5092L777.833 145.5092C816.893 130.8592 854.493 111.3292 890.623 94.7292C858.403 121.0892 818.363 152.3392 791.503 179.1992ZM619.143 915.5292C615.233 915.5292 613.283 912.1092 610.843 904.2992L507.813 567.3792L843.753 231.4492C870.113 205.0792 902.833 164.0592 928.713 130.8592C912.113 167.9692 892.093 205.5692 877.443 245.1192L627.443 905.2692C624.513 912.5992 622.563 915.5292 619.143 915.5292Z"/>
</svg>