<?xml version="1.0" encoding="UTF-8" standalone="no"?>
<svg xmlns="http://www.w3.org/2000/svg"
     width="754.39453125" height="910.64453125"
     viewBox="0 0 754.39453125 910.64453125"
     fill="currentColor">
  <path d="M-0.0023 243.6478C-0.0023 390.6278 103.5177 487.7978 260.7377 487.7978H339.8477V865.7178C339.8477 893.0678 356.9377 910.6478 384.7677 910.6478C412.1077 910.6478 430.1777 893.0678 430.1777 865.7178V90.3278H536.1377V865.7178C536.1377 893.0678 553.2277 910.6478 580.5677 910.6478C608.3977 910.6478 626.4677 893.0678 626.4677 865.7178V90.3278H708.9877C736.8177 90.3278 754.3977 71.7778 754.3977 44.4378C754.3977 17.0878 736.8177 -0.0022 708.9877 -0.0022H258.2977C102.5377 -0.0022 -0.0023 96.6778 -0.0023 243.6478Z"/>
</svg>