<?xml version="1.0" encoding="UTF-8" standalone="no"?>
<svg xmlns="http://www.w3.org/2000/svg"
     width="996.09375" height="996.09375"
     viewBox="0 0 996.09375 996.09375"
     fill="currentColor">
  <path d="M498.0477 996.0959C770.5077 996.0959 996.0977 770.0159 996.0977 498.0459C996.0977 225.5859 770.0177 -0.0041 497.5577 -0.0041C225.5877 -0.0041 -0.0023 225.5859 -0.0023 498.0459C-0.0023 770.0159 226.0777 996.0959 498.0477 996.0959ZM498.0477 913.0859C267.5777 913.0859 83.4977 728.5159 83.4977 498.0459C83.4977 267.5759 267.0877 83.0059 497.5577 83.0059C728.0277 83.0059 913.0877 267.5759 913.0877 498.0459C913.0877 728.5159 728.5177 913.0859 498.0477 913.0859ZM392.5777 721.6759C418.4577 721.6759 432.1277 704.5859 432.1277 677.7359V570.7959H528.3177C623.5377 570.7959 687.4977 511.2259 687.4977 421.3859C687.4977 331.5459 623.0477 270.9959 528.8077 270.9959H392.0877C367.1877 270.9959 354.0077 288.5759 354.0077 314.9459V677.7359C354.0077 703.6159 367.6777 721.6759 392.5777 721.6759ZM432.1277 511.2259V330.5659H517.5777C574.7077 330.5659 610.3477 365.2359 610.3477 421.3859C610.3477 476.5659 575.1977 511.2259 517.5777 511.2259Z"/>
</svg>