<?xml version="1.0" encoding="UTF-8" standalone="no"?>
<svg xmlns="http://www.w3.org/2000/svg"
     width="1236.8317518839722" height="1200.6814145376509"
     viewBox="0 0 1236.8317518839722 1200.6814145376509"
     fill="currentColor">
  <path d="M438.4936 106.9355C467.7936 106.9355 492.2036 83.0055 492.2036 53.2255C492.2036 23.9255 467.7936 -0.0045 438.4936 -0.0045C408.2136 -0.0045 384.7836 23.9255 384.7836 53.2255C384.7836 83.0055 408.2136 106.9355 438.4936 106.9355ZM740.2536 191.4055C791.5236 191.4055 832.0436 150.3955 832.0436 99.6055C832.0436 47.8555 791.5236 7.8155 740.2536 7.8155C688.9836 7.8155 648.4536 47.8555 648.4536 99.6055C648.4536 150.3955 688.9836 191.4055 740.2536 191.4055ZM1138.6836 134.7655C1162.1236 134.7655 1181.1636 115.7255 1181.1636 91.7955C1181.1636 67.8755 1162.1236 48.3355 1138.6836 48.3355C1114.7636 48.3355 1095.7136 67.8755 1095.7136 91.7955C1095.7136 115.7255 1114.7636 134.7655 1138.6836 134.7655ZM997.5736 166.5055L906.2636 257.8155C893.5736 270.9955 893.5736 292.4755 906.2636 305.6655C919.9336 318.8455 941.4236 318.8455 954.6036 305.6655L1045.9136 214.8455C1058.6136 201.6555 1058.6136 179.6855 1045.9136 166.5055C1032.7336 153.8055 1010.7536 153.8055 997.5736 166.5055ZM774.9136 917.9655C837.9036 891.6055 843.2736 829.5855 819.3536 760.2555C884.7836 758.7855 949.7236 764.1555 1013.6836 776.3655C1032.2436 780.2755 1047.8636 762.2055 1048.3536 743.6555C1048.8436 724.6055 1033.2136 712.8955 1015.6436 709.4755C939.9536 694.8255 865.2536 689.9455 790.0536 693.8455C764.6636 647.4655 730.9736 601.0755 696.7936 563.4755L864.2736 395.9955C876.4836 383.3055 876.4836 361.8155 864.2736 348.1455C850.6036 335.9355 829.1136 335.9355 816.4236 348.1455L648.9436 515.6255C610.3636 480.4655 564.4636 445.8055 518.5736 420.4055C521.9836 346.1955 517.1036 272.4655 502.9436 198.2455C499.5236 180.1755 487.8036 165.0355 468.7636 165.0355C450.7036 165.5255 432.1436 180.6655 436.0536 200.1955C448.2536 262.6955 453.6336 326.6555 452.6536 390.6255C386.7336 368.6555 327.6536 376.4655 297.8636 441.4055L8.3136 1083.0055C-23.9064 1154.7855 42.9836 1223.6355 115.2536 1193.3555ZM647.4736 345.2155C671.4036 345.2155 690.4436 325.6855 690.4436 301.7555C690.4436 278.3155 671.4036 258.7855 647.4736 258.7855C624.0436 258.7855 604.0236 278.3155 604.0236 301.7555C604.0236 325.6855 624.0436 345.2155 647.4736 345.2155ZM973.1636 592.7755C1016.6136 592.7755 1051.2836 559.0855 1051.2836 515.6255C1051.2836 472.6555 1016.6136 437.9855 973.1636 437.9855C930.1936 437.9855 896.5036 472.6555 896.5036 515.6255C896.5036 559.0855 930.1936 592.7755 973.1636 592.7755ZM366.7136 456.0555C380.8736 441.4055 410.1736 442.8755 448.7436 458.4955C445.8136 488.7655 441.4236 519.5355 436.0536 549.8055C431.6536 568.8455 450.7036 583.4955 468.2736 583.9855C486.8336 583.9855 499.0436 569.3355 502.4536 551.2655C506.3636 531.7355 509.2936 512.2055 511.7336 493.1655C540.0536 511.2255 569.8436 534.6655 600.6036 563.4755L567.3936 596.6755C554.7036 609.8655 554.7036 631.8355 567.3936 645.0155C580.5836 657.7155 602.5536 657.7155 615.7336 645.0155L648.9436 611.3255C678.2336 642.0855 701.6736 672.3655 720.7136 700.1955C701.1836 703.1255 681.6536 706.0555 662.1236 709.4755C644.5436 713.3755 629.4136 725.5855 629.8936 743.6555C629.8936 761.7155 644.5436 780.7655 664.0736 776.8555C694.3536 770.9955 725.1136 766.6055 755.3836 764.1555C772.4736 804.1955 774.4336 834.9655 759.7836 849.1255C727.0636 882.3255 615.7336 834.4755 498.5536 716.7955C381.3636 600.0955 334.0036 488.2855 366.7136 456.0555ZM1183.1236 572.7555C1212.9036 572.7555 1236.8336 548.8255 1236.8336 518.5555C1236.8336 489.2555 1212.9036 465.3355 1183.1236 465.3355C1152.8436 465.3355 1129.4136 489.2555 1129.4136 518.5555C1129.4136 548.8255 1152.8436 572.7555 1183.1236 572.7555ZM69.8436 1109.3755L313.4936 568.8455C337.9036 630.8555 387.2236 701.1755 450.7036 765.1355C513.2036 827.1455 581.5536 875.4855 642.5936 900.3955L89.3736 1130.3755C72.7736 1137.2055 62.0236 1126.9555 69.8436 1109.3755ZM1164.5636 822.7555C1194.3536 822.7555 1218.2736 799.3155 1218.2736 769.0455C1218.2736 739.2555 1194.3536 715.3355 1164.5636 715.3355C1134.7836 715.3355 1110.8536 739.2555 1110.8536 769.0455C1110.8536 799.3155 1134.7836 822.7555 1164.5636 822.7555Z"/>
</svg>