<?xml version="1.0" encoding="UTF-8" standalone="no"?>
<svg xmlns="http://www.w3.org/2000/svg"
     width="1151.3671875" height="898.92578125"
     viewBox="0 0 1151.3671875 898.92578125"
     fill="currentColor">
  <path d="M153.3183 898.9278H998.0483C1100.5883 898.9278 1151.3683 848.6378 1151.3683 748.0478V151.3678C1151.3683 50.7778 1100.5883 -0.0022 998.0483 -0.0022H153.3183C51.2683 -0.0022 -0.0017 50.7778 -0.0017 151.3678V748.0478C-0.0017 848.6378 51.2683 898.9278 153.3183 898.9278ZM434.0783 645.9978C408.6883 645.9978 397.4583 632.3278 397.4583 612.7978V285.6478C397.4583 266.5978 408.6883 252.9278 434.0783 252.9278H483.3983C508.2983 252.9278 519.5283 266.5978 519.5283 285.6478V612.7978C519.5283 632.3278 508.2983 645.9978 483.3983 645.9978ZM669.4383 645.9978C644.5283 645.9978 632.8083 632.3278 632.8083 612.7978V285.6478C632.8083 266.5978 644.5283 252.9278 669.4383 252.9278H719.2383C743.6483 252.9278 754.8783 266.5978 754.8783 285.6478V612.7978C754.8783 632.3278 743.6483 645.9978 719.2383 645.9978Z"/>
</svg>