<?xml version="1.0" encoding="UTF-8" standalone="no"?>
<svg xmlns="http://www.w3.org/2000/svg"
     width="1027.34375" height="999.51171875"
     viewBox="0 0 1027.34375 999.51171875"
     fill="currentColor">
  <path d="M236.8183 170.8991C236.8183 267.0891 288.5783 341.3091 354.0083 341.3091C420.4083 341.3091 471.6783 266.5991 471.6783 170.8991C471.6783 74.2191 420.4083 -0.0009 354.0083 -0.0009C288.5783 -0.0009 236.8183 74.2191 236.8183 170.8991ZM556.1483 170.8991C556.1483 266.5991 606.9383 341.3091 673.3383 341.3091C738.7683 341.3091 790.5283 267.0891 790.5283 170.8991C790.5283 74.2191 738.7683 -0.0009 673.3383 -0.0009C606.9383 -0.0009 556.1483 74.2191 556.1483 170.8991ZM-0.0017 452.6391C-0.0017 549.3191 50.7783 623.5391 116.6983 623.5391C182.6183 623.5391 233.8883 549.3191 233.8883 452.6391C233.8883 356.4491 182.6183 281.7391 116.6983 281.7391C50.7783 281.7391 -0.0017 356.4491 -0.0017 452.6391ZM793.4583 452.6391C793.4583 549.3191 844.7283 623.5391 910.6483 623.5391C976.5583 623.5391 1027.3483 549.3191 1027.3483 452.6391C1027.3483 356.4491 976.5583 281.7391 910.6483 281.7391C844.7283 281.7391 793.4583 356.4491 793.4583 452.6391ZM146.4883 830.5691C146.4883 929.1991 212.8883 999.5091 310.5483 999.5091C358.8883 999.5091 394.0383 985.8391 427.7383 974.1191C455.0783 964.3591 481.4483 955.5691 513.6683 955.5691C545.4083 955.5691 571.7783 964.3591 599.6083 974.1191C633.2983 985.8391 667.9683 999.5091 716.3083 999.5091C814.4483 999.5091 880.8583 929.1991 880.8583 830.5691C880.8583 746.5791 830.5683 704.0991 782.2283 664.5491C755.3683 643.0691 729.4883 622.5591 711.9183 595.2191C697.2683 573.2391 685.0583 549.3191 674.8083 526.8591C639.6483 451.6591 611.8183 380.8591 513.6683 380.8591C415.0383 380.8591 387.6983 451.6591 352.5383 526.3691C341.7983 549.3191 330.0783 572.7491 315.9183 594.2391C297.8483 621.5791 271.4883 643.0691 245.1183 664.5491C196.7783 704.0991 146.4883 747.0691 146.4883 830.5691Z"/>
</svg>