<?xml version="1.0" encoding="UTF-8" standalone="no"?>
<svg xmlns="http://www.w3.org/2000/svg"
     width="996.09375" height="996.09375"
     viewBox="0 0 996.09375 996.09375"
     fill="currentColor">
  <path d="M498.0477 996.0959C770.5077 996.0959 996.0977 770.0159 996.0977 498.0459C996.0977 225.5859 770.0177 -0.0041 497.5577 -0.0041C225.5877 -0.0041 -0.0023 225.5859 -0.0023 498.0459C-0.0023 770.0159 226.0777 996.0959 498.0477 996.0959ZM353.0277 312.0159C353.0277 261.7159 380.3677 223.6359 414.5477 223.6359C449.2177 223.6359 476.0777 262.2059 476.0777 312.0159C476.0777 362.3059 449.2177 401.8559 414.5477 401.8559C380.3677 401.8559 353.0277 362.3059 353.0277 312.0159ZM519.5277 312.0159C519.5277 262.2059 546.3877 223.6359 580.5677 223.6359C615.2377 223.6359 642.5777 261.7159 642.5777 312.0159C642.5777 362.3059 615.2377 401.8559 580.5677 401.8559C546.3877 401.8559 519.5277 362.3059 519.5277 312.0159ZM229.0077 459.9559C229.0077 409.1759 255.8577 370.1159 290.5277 370.1159C324.7077 370.1159 352.0477 409.1759 352.0477 459.9559C352.0477 510.2559 324.7077 548.8259 290.5277 548.8259C255.8577 548.8259 229.0077 510.2559 229.0077 459.9559ZM643.5577 459.9559C643.5577 409.1759 670.8977 370.1159 705.0777 370.1159C739.2577 370.1159 766.1177 409.1759 766.1177 459.9559C766.1177 510.2559 739.2577 548.8259 705.0777 548.8259C670.8977 548.8259 643.5577 510.2559 643.5577 459.9559ZM306.1477 656.7359C306.1477 613.2859 332.5177 590.8159 357.4177 569.8259C371.0977 559.0859 384.7677 548.3359 395.0177 533.2059C401.8577 521.9759 407.7177 509.7659 414.0577 498.0459C431.6377 458.9859 446.2877 422.3659 497.5577 422.3659C549.3177 422.3659 563.4777 458.4959 581.5477 498.0459C587.3977 509.7659 593.2577 522.4559 600.5877 533.6959C610.8377 548.3359 624.5077 559.0859 638.1877 569.8259C663.0877 590.8159 689.4577 613.2859 689.4577 656.7359C689.4577 708.4959 654.7877 744.6259 603.5177 744.6259C578.6177 744.6259 560.5477 738.2859 542.4777 731.9359C528.3177 726.5659 514.1577 722.6559 497.5577 722.6559C480.9577 722.6559 467.2877 726.5659 452.6377 731.9359C435.0577 738.2859 416.9877 744.6259 391.5977 744.6259C340.3277 744.6259 306.1477 708.4959 306.1477 656.7359Z"/>
</svg>