<?xml version="1.0" encoding="UTF-8" standalone="no"?>
<svg xmlns="http://www.w3.org/2000/svg"
     width="946.2890625" height="970.21484375"
     viewBox="0 0 946.2890625 970.21484375"
     fill="currentColor">
  <path d="M-0.0017 712.4066C-0.0017 797.3666 41.5083 837.8866 124.5083 837.8866H214.3583C233.3983 852.5366 260.7383 865.2366 294.4383 874.9966L221.1883 908.6866C191.8983 921.8766 194.8283 970.2166 238.7683 970.2166H707.5183C751.4683 970.2166 754.3983 921.8766 725.0983 908.6866L651.8583 874.9966C685.5483 865.2366 712.8883 852.5366 731.9383 837.8866H821.7783C904.7883 837.8866 946.2883 797.3666 946.2883 712.4066V125.4866C946.2883 40.0366 904.2983 -0.0034 820.7983 -0.0034H125.4883C41.9883 -0.0034 -0.0017 40.0366 -0.0017 125.4866ZM78.6183 632.3266V126.9566C78.6183 92.2866 93.2583 78.6166 126.9483 78.6166H819.3383C853.0283 78.6166 867.6783 92.2866 867.6783 126.9566V632.3266C867.6783 666.5066 853.0283 680.1766 819.3383 680.1766H126.9483C93.2583 680.1766 78.6183 666.5066 78.6183 632.3266ZM262.6983 287.1066C262.6983 317.3866 279.2983 347.1666 293.9483 359.8666C297.8483 363.2766 302.2483 364.7466 306.6383 364.7466C314.9383 364.7466 321.2883 358.3966 321.2883 350.5866C321.2883 344.2366 317.8683 340.8166 313.4783 336.4266C299.3183 322.2666 293.4583 304.6866 293.4583 287.1066C293.4583 269.0466 300.2883 252.4366 313.4783 237.7966C317.8683 232.9066 321.2883 229.4966 321.2883 223.1466C321.2883 215.3366 314.9383 208.9866 306.6383 208.9866C302.7383 208.9866 297.8483 210.9366 293.9483 214.3566C274.8983 230.4666 262.6983 256.8366 262.6983 287.1066ZM204.5883 269.0466C217.7783 269.0466 228.0283 258.2966 228.0283 245.6066C228.0283 232.4266 217.7783 221.6766 204.5883 221.6766C191.4083 221.6766 181.1483 232.4266 181.1483 245.6066C181.1483 258.2966 191.4083 269.0466 204.5883 269.0466ZM204.5883 356.9366C217.7783 356.9366 228.0283 346.1866 228.0283 333.0066C228.0283 320.3166 217.7783 309.5666 204.5883 309.5666C191.4083 309.5666 181.1483 320.3166 181.1483 333.0066C181.1483 346.1866 191.4083 356.9366 204.5883 356.9366ZM199.2183 466.7966H520.0183C530.2783 466.7966 537.1083 459.9566 537.1083 448.7266C537.1083 438.4766 530.2783 432.1266 520.0183 432.1266H199.2183C188.4783 432.1266 181.1483 438.4766 181.1483 448.7266C181.1483 459.9566 188.4783 466.7966 199.2183 466.7966ZM199.2183 549.3166H427.7383C437.4983 549.3166 445.3083 541.9966 445.3083 531.2466C445.3083 520.9966 437.4983 514.6466 427.7383 514.6466H199.2183C188.4783 514.6466 181.1483 520.9966 181.1483 531.2466C181.1483 541.9966 188.4783 549.3166 199.2183 549.3166ZM749.0283 787.1066C731.4483 787.1066 715.8183 771.4866 715.8183 752.9266C715.8183 735.3466 731.4483 719.7266 749.0283 719.7266C768.0683 719.7266 783.1983 735.3466 783.1983 752.9266C783.1983 771.4866 768.0683 787.1066 749.0283 787.1066Z"/>
</svg>