<?xml version="1.0" encoding="UTF-8" standalone="no"?>
<svg xmlns="http://www.w3.org/2000/svg"
     width="1172.36328125" height="1036.1328125"
     viewBox="0 0 1172.36328125 1036.1328125"
     fill="currentColor">
  <path d="M39.5483 1036.1355C61.0383 1036.1355 78.6183 1018.5555 78.6183 997.0655V39.0655C78.6183 17.5755 61.0383 -0.0045 39.5483 -0.0045C17.5783 -0.0045 -0.0017 17.5755 -0.0017 39.0655V997.0655C-0.0017 1018.5555 17.5783 1036.1355 39.5483 1036.1355ZM520.9983 854.9755L1001.9483 961.4255C1022.9483 965.8155 1036.6183 948.2455 1036.6183 927.2455V897.4655H1093.7483V997.0655C1093.7483 1018.5555 1111.3283 1036.1355 1133.2983 1036.1355C1154.7883 1036.1355 1172.3683 1018.5555 1172.3683 997.0655V39.0655C1172.3683 17.5755 1154.7883 -0.0045 1133.2983 -0.0045C1111.3283 -0.0045 1093.7483 17.5755 1093.7483 39.0655V140.1355H1036.6183V111.3255C1036.6183 90.3355 1022.9483 72.2655 1001.9483 77.1455L520.9983 183.5955C501.4683 187.9855 492.6783 200.6855 492.6783 215.8155V291.0155C492.6783 312.9855 504.3983 324.7055 527.3483 321.7755L1001.9483 266.1155C1022.9483 263.6755 1036.6183 252.4455 1036.6183 231.9355V204.1055H1093.7483V371.5855H1036.6183V343.2655C1036.6183 322.2655 1023.4383 306.6455 1001.9483 309.0855L520.9983 365.2355C503.4183 367.1855 492.6783 380.3755 492.6783 398.4355V466.3055C492.6783 485.8355 504.3983 498.0455 520.9983 498.0455H1001.9483C1022.9483 498.0455 1036.6183 484.3755 1036.6183 463.8655V435.5455H1093.7483V602.5355H1036.6183V574.7055C1036.6183 554.1955 1022.9483 540.5255 1001.9483 540.5255H520.9983C504.3983 540.5255 492.6783 552.7355 492.6783 572.2655V640.1355C492.6783 658.2055 503.4183 670.8955 520.9983 673.3355L1001.9483 729.4955C1023.4383 731.9355 1036.6183 716.3055 1036.6183 695.3155V666.5055H1093.7483V833.4955H1036.6183V806.1555C1036.6183 786.1355 1022.9483 774.9055 1001.9483 772.4655L527.3483 716.7955C504.3983 713.8655 492.6783 725.5855 492.6783 747.5555V822.7555C492.6783 837.8955 501.4683 850.5855 520.9983 854.9755Z"/>
</svg>