<?xml version="1.0" encoding="UTF-8" standalone="no"?>
<svg xmlns="http://www.w3.org/2000/svg"
     width="854.4921875" height="1091.30859375"
     viewBox="0 0 854.4921875 1091.30859375"
     fill="currentColor">
  <path d="M-0.0017 124.9955H122.5583V55.1755C122.5583 20.0155 104.4883 -0.0045 72.7583 -0.0045H48.8283C17.5783 -0.0045 -0.0017 20.9955 -0.0017 55.1755ZM492.6783 1091.3055H734.8683C805.6683 1091.3055 854.4883 1042.4855 854.4883 971.6755V127.4455C854.4883 56.1555 805.6683 6.8355 734.8683 6.8355H492.6783C421.8783 6.8355 373.5383 55.6655 373.5383 126.9555V971.1955C373.5383 1042.4855 421.8783 1091.3055 492.6783 1091.3055ZM505.8583 1020.0155C468.7483 1020.0155 444.8283 996.0955 444.8283 960.4455V138.1855C444.8283 102.5355 468.7483 78.6155 505.8583 78.6155H722.1683C758.7883 78.6155 782.7183 102.5355 782.7183 138.1855V139.6455H574.7083C564.9383 139.6455 556.6383 147.4655 556.6383 158.2055C556.6383 167.9655 564.4483 176.7555 574.2183 176.7555H782.7183V218.2655H652.3483C642.0883 218.2655 634.7683 225.5855 634.7683 236.8155C634.7683 246.5855 641.5983 254.3955 651.8583 254.3955H782.7183V296.8755H652.3483C642.0883 296.8755 634.7683 304.1955 634.7683 315.4255C634.7683 325.1955 641.5983 333.0055 651.8583 333.0055H782.7183V374.5155H652.3483C642.0883 374.5155 634.7683 381.8355 634.7683 392.5755C634.7683 403.3155 641.5983 411.1355 651.8583 411.1355H782.7183V452.6355H652.3483C642.0883 452.6355 634.7683 460.4455 634.7683 471.6755C634.7683 480.9555 641.5983 489.2555 651.8583 489.2555H782.7183V531.2455H574.7083C564.9383 531.2455 556.6383 538.5755 556.6383 549.3155C556.6383 559.5655 564.4483 566.8955 574.2183 566.8955H782.7183V609.3755H652.3483C642.0883 609.3755 634.7683 616.6955 634.7683 627.4455C634.7683 637.6955 641.5983 645.9955 651.8583 645.9955H782.7183V687.9855H652.3483C642.0883 687.9855 634.7683 694.8255 634.7683 706.0555C634.7683 715.8155 641.5983 724.1255 651.8583 724.1255H782.7183V765.6255H652.3483C642.0883 765.6255 634.7683 773.4355 634.7683 783.6955C634.7683 793.4555 641.5983 801.7555 651.8583 801.7555H782.7183V843.7455H652.3483C642.0883 843.7455 634.7683 850.5855 634.7683 861.3255C634.7683 872.0655 641.5983 879.8855 651.8583 879.8855H782.7183V921.3855H574.7083C564.9383 921.3855 556.6383 929.1955 556.6383 939.9455C556.6383 949.7055 564.4483 958.0055 574.2183 958.0055H782.7183V959.9655C782.7183 995.6055 758.7883 1020.0155 722.1683 1020.0155ZM-0.0017 971.1955L44.4383 1080.5655C49.3183 1091.7955 67.3783 1092.7755 72.7583 1081.0555L122.5583 971.1955V182.1255H-0.0017Z"/>
</svg>