<?xml version="1.0" encoding="UTF-8" standalone="no"?>
<svg xmlns="http://www.w3.org/2000/svg"
     width="615.3311827133764" height="922.36328125"
     viewBox="0 0 615.3311827133764 922.36328125"
     fill="currentColor">
  <path d="M39.3407 922.3666C62.2907 922.3666 73.5207 910.1566 77.4307 890.1366L166.2907 437.4966H448.5207L537.3907 890.1366C541.2907 910.1566 552.5207 922.3666 575.4707 922.3666C608.1907 922.3666 619.4207 899.9066 614.0507 873.5366L522.7407 408.6866C516.8807 377.9266 491.0007 355.4666 461.2207 355.4666H458.7707L350.3807 32.2266C343.0507 11.7166 329.3807 -0.0034 308.3807 -0.0034C286.4107 -0.0034 271.2707 11.7166 264.4407 32.2266L156.0407 355.4666H154.0907C124.3007 355.4666 98.4207 377.9266 92.5607 408.6866L1.2507 873.5366C-4.1193 899.9066 7.6007 922.3666 39.3407 922.3666Z"/>
</svg>