<?xml version="1.0" encoding="UTF-8" standalone="no"?>
<svg xmlns="http://www.w3.org/2000/svg"
     width="996.09375" height="996.09375"
     viewBox="0 0 996.09375 996.09375"
     fill="currentColor">
  <path d="M498.0477 996.0959C770.5077 996.0959 996.0977 770.0159 996.0977 498.0459C996.0977 225.5859 770.0177 -0.0041 497.5577 -0.0041C225.5877 -0.0041 -0.0023 225.5859 -0.0023 498.0459C-0.0023 770.0159 226.0777 996.0959 498.0477 996.0959ZM498.0477 913.0859C267.5777 913.0859 83.4977 728.5159 83.4977 498.0459C83.4977 267.5759 267.0877 83.0059 497.5577 83.0059C728.0277 83.0059 913.0877 267.5759 913.0877 498.0459C913.0877 728.5159 728.5177 913.0859 498.0477 913.0859ZM690.9177 361.3259L726.0777 325.6859C741.6977 309.0859 743.1677 291.5059 728.5177 276.8559L717.2877 265.6259C702.6377 250.9759 684.5677 252.4459 668.9477 268.0659L633.2977 303.2259ZM341.3077 709.4759L661.6177 390.1359L604.0077 332.5159L284.1777 651.3659L256.3477 716.3059C251.4677 728.5159 263.1877 738.7659 273.9277 734.8659Z"/>
</svg>