<?xml version="1.0" encoding="UTF-8" standalone="no"?>
<svg xmlns="http://www.w3.org/2000/svg"
     width="778.169066408285" height="772.887270387129"
     viewBox="0 0 778.169066408285 772.887270387129"
     fill="currentColor">
  <path d="M709.0822 154.1987L758.4022 105.8587C783.3022 80.9487 784.7622 54.5887 762.3022 31.6387L745.7022 15.5187C723.2422 -6.9413 696.3822 -4.5013 671.9722 19.4287L622.1722 68.2587ZM706.1522 695.6987C720.8022 710.3487 745.2122 710.3487 759.3722 695.6987C773.5322 680.5587 774.0222 657.1287 759.3722 642.4787L145.6022 28.7087C130.9522 14.0587 106.0522 13.5687 91.8922 28.7087C77.2422 42.8687 77.2422 67.7687 91.8922 81.9287ZM529.8822 332.4187L666.1122 196.1887L580.6622 110.2487L444.4322 246.9687ZM133.4022 728.4187L396.5822 465.2287L310.6422 379.7787L47.4622 642.9687L1.0722 751.3587C-3.8078 763.0787 8.8822 776.7587 20.6022 771.8687Z"/>
</svg>