<?xml version="1.0" encoding="UTF-8" standalone="no"?>
<svg xmlns="http://www.w3.org/2000/svg"
     width="1057.2393390025438" height="1032.5927734375"
     viewBox="0 0 1057.2393390025438 1032.5927734375"
     fill="currentColor">
  <path d="M1047.8222 479.3709C1070.2822 408.5709 1052.7022 351.9309 993.6222 308.9609L619.6022 34.0609C558.5622 -11.3491 498.5022 -11.3491 436.9822 34.0609L62.9622 308.9609C4.3622 351.9309 -13.2178 409.0609 9.7322 481.3209L152.8022 927.1209C174.7722 996.9509 223.6022 1032.5909 297.8222 1032.5909H759.2522C833.4622 1032.5909 881.8022 996.9509 904.2622 927.1209ZM528.7822 78.9809V953.9809H297.8222C258.2722 953.9809 238.7422 940.3109 226.5322 903.2009L83.9522 456.9109C71.2622 418.8209 78.5822 395.8709 110.8122 371.9509L484.3422 96.5609C500.4622 84.3509 515.1022 78.9809 528.7822 78.9809Z"/>
</svg>