<?xml version="1.0" encoding="UTF-8" standalone="no"?>
<svg xmlns="http://www.w3.org/2000/svg"
     width="1057.1575615859838" height="1032.5927734375"
     viewBox="0 0 1057.1575615859838 1032.5927734375"
     fill="currentColor">
  <path d="M9.3412 479.3709L153.3812 927.1209C175.3512 996.9509 223.6912 1032.5909 297.9112 1032.5909H759.8212C834.0412 1032.5909 882.3812 996.9509 904.3512 927.1209L1047.4212 481.3209C1070.3712 409.0609 1052.7912 351.9309 994.2012 308.9609L620.1712 34.0609C558.6512 -11.3491 499.0812 -11.3491 437.5612 34.0609L63.5312 308.9609C4.9412 351.9309 -13.1288 408.5709 9.3412 479.3709ZM528.8712 78.9809C542.5412 78.9809 556.7012 84.3509 572.8112 96.5609L946.3512 371.9509C978.5712 395.8709 985.9012 418.8209 973.6912 456.9109L830.6212 903.2009C818.4212 940.3109 799.3712 953.9809 759.8212 953.9809H528.8712Z"/>
</svg>