<?xml version="1.0" encoding="UTF-8" standalone="no"?>
<svg xmlns="http://www.w3.org/2000/svg"
     width="1151.3671875" height="898.92578125"
     viewBox="0 0 1151.3671875 898.92578125"
     fill="currentColor">
  <path d="M153.3183 898.9278H998.0483C1100.5883 898.9278 1151.3683 848.6378 1151.3683 748.0478V151.3678C1151.3683 50.7778 1100.5883 -0.0022 998.0483 -0.0022H153.3183C51.2683 -0.0022 -0.0017 50.7778 -0.0017 151.3678V748.0478C-0.0017 848.6378 51.2683 898.9278 153.3183 898.9278ZM154.2983 820.3078C105.4683 820.3078 78.6183 794.4378 78.6183 743.6478V155.7578C78.6183 104.9778 105.4683 78.6178 154.2983 78.6178H997.0683C1045.4083 78.6178 1072.7583 104.9778 1072.7583 155.7578V743.6478C1072.7583 794.4378 1045.4083 820.3078 997.0683 820.3078H904.2983C863.2783 698.7278 733.3983 612.7978 576.1683 612.7978C418.4583 612.7978 288.5783 698.7278 248.0483 820.3078ZM576.1683 531.2478C669.4383 532.2278 743.1683 452.6378 743.1683 348.1478C743.1683 249.9978 669.4383 168.9478 576.1683 168.9478C482.9083 168.9478 408.6883 249.9978 409.1783 348.1478C409.6683 452.6378 482.9083 530.2778 576.1683 531.2478Z"/>
</svg>