<?xml version="1.0" encoding="UTF-8" standalone="no"?>
<svg xmlns="http://www.w3.org/2000/svg"
     width="821.2890625" height="1046.875"
     viewBox="0 0 821.2890625 1046.875"
     fill="currentColor">
  <path d="M-0.0017 1008.2966C-0.0017 1031.7366 15.6283 1046.8766 39.0583 1046.8766H782.2283C805.6683 1046.8766 821.2883 1031.7366 821.2883 1008.2966V39.0666C821.2883 15.6266 805.6683 -0.0034 782.2283 -0.0034H39.0583C15.6283 -0.0034 -0.0017 15.6266 -0.0017 39.0666ZM78.6183 954.1066V93.2666C78.6183 82.5166 82.5183 78.6166 92.7783 78.6166H728.5183C738.7683 78.6166 742.6783 82.5166 742.6783 93.2666V954.1066C742.6783 964.8466 738.7683 968.2666 728.5183 968.2666H92.7783C82.5183 968.2666 78.6183 964.8466 78.6183 954.1066ZM131.3483 887.2066C131.3483 905.2766 141.5983 916.0166 159.6683 916.0166H661.6183C679.6883 916.0166 689.9383 905.2766 689.9383 887.2066V160.1566C689.9383 142.0866 679.6883 131.3466 661.6183 131.3466H159.6683C141.5983 131.3466 131.3483 142.0866 131.3483 160.1566ZM410.1583 658.2066C294.9183 658.2066 219.2383 718.7466 180.6683 776.3666V191.8966C180.6683 184.5666 184.0783 180.6666 191.4083 180.6666H629.8783C637.2083 180.6666 640.6283 184.5666 640.6283 191.8966V777.8366C602.0483 719.7266 526.3683 658.2066 410.1583 658.2066ZM410.1583 616.6966C482.4183 617.1866 540.0383 556.1566 540.0383 475.0966C540.0383 398.9266 482.4183 335.9366 410.1583 335.9366C338.3783 335.9366 280.2783 398.9266 280.2783 475.0966C280.2783 556.1566 338.3783 616.2066 410.1583 616.6966Z"/>
</svg>