<?xml version="1.0" encoding="UTF-8" standalone="no"?>
<svg xmlns="http://www.w3.org/2000/svg"
     width="1227.5390625" height="848.6328125"
     viewBox="0 0 1227.5390625 848.6328125"
     fill="currentColor">
  <path d="M964.8477 848.6363C1112.3077 848.6363 1227.5377 740.7262 1227.5377 606.4463C1227.5377 503.9063 1168.4577 415.0363 1073.2377 374.9962C1074.2177 157.2263 917.4777 -0.0037 717.7777 -0.0037C585.4477 -0.0037 491.2077 70.7962 432.6177 156.2463C312.4977 121.0963 181.6377 212.4063 179.1977 349.1163C68.8477 366.6963 -0.0023 465.3363 -0.0023 584.4762C-0.0023 728.0263 125.4877 848.6363 292.4777 848.6363ZM647.9477 534.6663C574.2177 533.6963 515.6277 467.7763 515.1377 389.1563C515.1377 311.5263 574.2177 247.5563 647.9477 247.5563C721.1877 247.5563 780.7577 311.5263 780.7577 389.1563C780.7577 467.7763 721.1877 535.6463 647.9477 534.6663ZM373.0477 762.2063C408.2077 683.1063 500.4877 595.2162 647.9477 595.2162C795.4077 595.2162 887.6977 683.1063 922.8477 762.2063Z"/>
</svg>