<?xml version="1.0" encoding="UTF-8" standalone="no"?>
<svg xmlns="http://www.w3.org/2000/svg"
     width="1151.3671875" height="898.92578125"
     viewBox="0 0 1151.3671875 898.92578125"
     fill="currentColor">
  <path d="M153.3183 898.9278H998.0483C1100.5883 898.9278 1151.3683 848.6378 1151.3683 748.0478V151.3678C1151.3683 50.7778 1100.5883 -0.0022 998.0483 -0.0022H153.3183C51.2683 -0.0022 -0.0017 50.7778 -0.0017 151.3678V748.0478C-0.0017 848.6378 51.2683 898.9278 153.3183 898.9278ZM201.6583 661.1278C153.3183 661.1278 129.8783 637.2078 129.8783 590.3278V309.5678C129.8783 262.2078 153.3183 238.7678 201.6583 238.7678H479.9783C528.3183 238.7678 552.2483 262.6978 552.2483 309.5678V590.3278C552.2483 637.2078 528.3183 661.1278 479.9783 661.1278ZM838.8683 655.7578C715.8183 655.7578 633.2983 573.7278 633.2983 450.1978C633.2983 327.1478 716.3083 243.1678 837.3983 243.1678C954.0983 243.1678 1036.1283 319.3378 1036.1283 429.1978C1036.1283 509.2778 999.0283 561.5278 942.3783 561.5278C917.4783 561.5278 895.9983 550.7778 885.2583 531.7378C870.6083 550.7778 849.6083 561.5278 825.1983 561.5278C770.5083 561.5278 732.4183 516.5978 732.4183 450.6878C732.4183 386.7178 770.5083 340.3278 823.7283 340.3278C847.6583 340.3278 864.2583 348.6278 876.4683 362.3078V358.3978C879.3983 348.6278 889.6483 340.3278 900.8783 340.3278C915.5283 340.3278 926.2683 352.0478 926.2683 367.1878V492.1878C926.2683 506.3478 932.1283 512.6978 947.2683 512.6978C971.1883 512.6978 986.3283 481.9378 986.3283 432.1278C986.3283 348.6278 926.2683 292.4778 837.3983 292.4778C748.0483 292.4778 686.5283 356.9378 686.5283 450.6878C686.5283 546.3878 746.5783 604.9778 844.7283 604.9778C875.9783 604.9778 890.1383 599.1178 905.2783 596.6778C912.1083 595.7078 916.5083 594.2378 921.3883 594.2378C934.5683 594.2378 943.8483 604.4878 943.8483 617.1878C943.8483 630.3678 935.5483 638.6678 921.8783 644.5278C902.3483 652.3478 871.0983 655.7578 838.8683 655.7578ZM340.8183 490.7178C384.7683 490.7178 419.9183 453.1278 419.9183 404.2978C419.9183 357.9078 384.7683 320.3078 340.8183 320.3078C296.8783 320.3078 262.2083 357.9078 262.2083 404.2978C262.2083 453.1278 296.8783 490.7178 340.8183 490.7178ZM833.0083 510.2578C860.3483 510.2578 877.9283 486.8178 877.9283 448.2378C877.9283 412.1078 860.8383 390.1378 833.4983 390.1378C806.1483 390.1378 789.0583 412.1078 789.0583 449.7078C789.0583 487.7978 805.6683 510.2578 833.0083 510.2578ZM188.4783 613.7678H493.6483C478.5183 568.3578 421.8783 526.3678 341.3083 526.3678C259.7683 526.3678 203.6183 568.3578 188.4783 613.7678Z"/>
</svg>