<?xml version="1.0" encoding="UTF-8" standalone="no"?>
<svg xmlns="http://www.w3.org/2000/svg"
     width="1917.48046875" height="877.9296875"
     viewBox="0 0 1917.48046875 877.9296875"
     fill="currentColor">
  <path d="M411.1283 425.7831C515.6283 425.7831 606.4483 332.0331 606.4483 209.9631C606.4483 89.3531 515.6283 0.0031 411.1283 0.0031C306.6383 0.0031 215.8183 91.3131 215.8183 210.9331C215.8183 332.0331 306.1483 425.7831 411.1283 425.7831ZM958.9883 425.7831C1063.9683 425.7831 1154.2983 332.0331 1154.2983 209.9631C1154.2983 89.3531 1063.4783 0.0031 958.9883 0.0031C854.9783 0.0031 763.6683 91.3131 764.1583 210.9331C764.1583 332.0331 854.4883 425.7831 958.9883 425.7831ZM1506.8383 425.7831C1611.8183 425.7831 1702.1483 332.0331 1702.1483 209.9631C1702.1483 89.3531 1611.3283 0.0031 1506.8383 0.0031C1402.3483 0.0031 1311.5283 91.3131 1311.5283 210.9331C1311.5283 332.0331 1401.8583 425.7831 1506.8383 425.7831ZM104.0083 877.9331H717.2883C794.4383 877.9331 821.7783 855.9531 821.7783 812.9931C821.7783 687.0131 664.0583 513.1831 410.6483 513.1831C157.7183 513.1831 -0.0017 687.0131 -0.0017 812.9931C-0.0017 855.9531 27.3483 877.9331 104.0083 877.9331ZM958.9883 513.1831C875.9783 513.1831 802.7383 532.2231 742.6783 562.5031C828.1283 628.9031 883.2983 717.7731 883.2983 812.9931C883.2983 838.3831 877.9283 860.3531 866.6983 877.9331H1265.6283C1342.2883 877.9331 1369.6283 855.9531 1369.6283 812.9931C1369.6283 687.0131 1211.9183 513.1831 958.9883 513.1831ZM1506.3483 513.1831C1423.3383 513.1831 1350.5883 532.2231 1290.5283 562.0131C1376.4683 628.4131 1431.6383 717.7731 1431.6383 812.9931C1431.6383 838.3831 1425.7783 860.3531 1415.0383 877.9331H1812.9883C1890.1383 877.9331 1917.4783 855.9531 1917.4783 812.9931C1917.4783 687.0131 1759.7683 513.1831 1506.3483 513.1831Z"/>
</svg>