<?xml version="1.0" encoding="UTF-8" standalone="no"?>
<svg xmlns="http://www.w3.org/2000/svg"
     width="996.09375" height="996.09375"
     viewBox="0 0 996.09375 996.09375"
     fill="currentColor">
  <path d="M498.0477 996.0959C770.5077 996.0959 996.0977 770.0159 996.0977 498.0459C996.0977 225.5859 770.0177 -0.0041 497.5577 -0.0041C225.5877 -0.0041 -0.0023 225.5859 -0.0023 498.0459C-0.0023 770.0159 226.0777 996.0959 498.0477 996.0959ZM498.0477 664.0659C351.0777 664.0659 238.2777 716.7959 188.4777 775.3859C123.0477 701.6559 83.4977 604.9759 83.4977 498.0459C83.4977 267.5759 267.0877 83.0059 497.5577 83.0059C728.0277 83.0059 913.0877 267.5759 913.0877 498.0459C913.0877 604.9759 873.5377 702.1459 807.6177 775.3859C758.2977 716.7959 645.0177 664.0659 498.0477 664.0659ZM498.0477 581.0559C592.2877 582.0359 665.5277 501.9559 665.5277 396.9759C665.5277 298.3359 591.7977 216.7959 498.0477 216.7959C404.2977 216.7959 330.0777 298.3359 330.5677 396.9759C331.0577 501.9559 404.2977 580.0759 498.0477 581.0559Z"/>
</svg>