<?xml version="1.0" encoding="UTF-8" standalone="no"?>
<svg xmlns="http://www.w3.org/2000/svg"
     width="1615.72265625" height="1017.1122486797183"
     viewBox="0 0 1615.72265625 1017.1122486797183"
     fill="currentColor">
  <path d="M1462.8883 677.7557C1480.9583 689.9657 1503.4183 685.5657 1516.5983 667.0157C1579.0983 581.0757 1615.7183 462.9157 1615.7183 342.3057C1615.7183 221.7057 1579.5883 102.5657 1516.5983 17.5957C1503.4183 -0.9543 1480.9583 -5.3443 1462.8883 6.8557C1444.8283 19.0657 1441.8983 42.0157 1456.0583 62.0357C1509.2783 137.2257 1540.0383 238.3057 1540.0383 342.3057C1540.0383 446.3157 1508.2983 546.8957 1456.0583 622.5857C1442.3783 642.5957 1444.8283 665.5457 1462.8883 677.7557ZM1281.7383 550.3157C1298.3383 561.5457 1321.2883 558.1257 1334.4683 539.0857C1372.0683 489.7657 1394.5283 417.0157 1394.5283 342.3057C1394.5283 267.5957 1372.0683 195.3357 1334.4683 145.5257C1321.2883 126.4857 1298.3383 123.0657 1281.7383 134.2957C1262.2083 147.9757 1258.7883 172.3857 1274.4183 192.4057C1302.7383 231.4657 1318.8483 285.6657 1318.8483 342.3057C1318.8483 398.9457 1302.2483 452.6557 1274.4183 492.2057C1259.2783 512.7157 1262.2083 536.1557 1281.7383 550.3157ZM920.4083 564.9657C1025.3883 564.9657 1115.7183 471.2157 1115.7183 349.1457C1115.7183 228.5357 1024.8983 139.1857 920.4083 139.1857C815.9183 139.1857 725.0983 230.4957 725.0983 350.1157C725.0983 471.2157 815.4283 564.9657 920.4083 564.9657ZM358.3983 576.1957C449.2183 576.1957 528.3183 494.1657 528.3183 388.2057C528.3183 283.2257 448.7283 205.5857 358.3983 205.5857C267.5783 205.5857 187.4983 285.1757 187.9883 389.1857C187.9883 494.1657 267.0883 576.1957 358.3983 576.1957ZM85.9383 1017.1157H457.0283C406.2483 943.3857 468.2583 794.9457 573.2383 713.8857C519.0383 677.7557 449.2183 650.9057 357.9083 650.9057C137.6983 650.9057 -0.0017 813.4957 -0.0017 948.7557C-0.0017 992.6957 24.4183 1017.1157 85.9383 1017.1157ZM613.2783 1017.1157H1227.0483C1303.7083 1017.1157 1331.0583 995.1357 1331.0583 952.1757C1331.0583 826.1957 1173.3383 652.3657 919.9183 652.3657C666.9883 652.3657 509.2783 826.1957 509.2783 952.1757C509.2783 995.1357 536.6183 1017.1157 613.2783 1017.1157Z"/>
</svg>