<?xml version="1.0" encoding="UTF-8" standalone="no"?>
<svg xmlns="http://www.w3.org/2000/svg"
     width="1331.0546875" height="1106.1408870501918"
     viewBox="0 0 1331.0546875 1106.1408870501918"
     fill="currentColor">
  <path d="M1210.4483 1095.1596C1225.0983 1109.7996 1249.5083 1109.7996 1263.6683 1095.1596C1278.3183 1080.5096 1278.8083 1057.0696 1263.6683 1041.9296L232.9083 11.1696C217.7783 -3.9704 194.3383 -3.4804 179.1983 11.1696C165.0383 25.3296 165.0383 50.2296 179.1983 64.3896ZM920.4083 503.3596C1024.8983 503.3596 1115.2383 409.6096 1115.2383 287.5396C1115.2383 166.9296 1024.4183 77.5796 920.4083 77.5796C815.9183 77.5796 724.6083 168.8896 725.0983 288.5096C725.0983 409.6096 815.4283 503.3596 920.4083 503.3596ZM187.9883 327.5796C187.9883 432.5596 267.0883 514.5896 357.9083 514.5896C407.7183 514.5896 453.6183 489.6896 484.3783 450.1396L235.3483 201.1096C206.5383 233.3396 187.4983 277.7696 187.9883 327.5796ZM85.9383 955.5096H456.5383C405.7583 881.7796 467.7783 733.3396 573.2383 652.2796C518.5583 616.1496 448.7283 589.2996 357.9083 589.2996C137.6983 589.2996 -0.0017 751.8896 -0.0017 887.1496C-0.0017 931.0896 23.9283 955.5096 85.9383 955.5096ZM1253.4183 951.1096L1274.4183 950.6196C1314.4483 943.2996 1331.0583 923.7696 1331.0583 890.5696C1331.0583 764.5896 1173.3383 590.7596 919.9183 590.7596C911.6183 590.7596 902.8283 591.7396 895.5083 592.7096ZM509.2783 890.5696C509.2783 933.5296 536.6183 955.5096 613.2783 955.5096H990.2383L684.5683 649.8396C572.7583 711.3696 509.2783 810.4896 509.2783 890.5696Z"/>
</svg>