<?xml version="1.0" encoding="UTF-8" standalone="no"?>
<svg xmlns="http://www.w3.org/2000/svg"
     width="1192.87109375" height="877.9296875"
     viewBox="0 0 1192.87109375 877.9296875"
     fill="currentColor">
  <path d="M411.1283 425.7831C515.6283 425.7831 606.4483 332.0331 606.4483 209.9631C606.4483 89.3531 515.6283 0.0031 411.1283 0.0031C306.6383 0.0031 215.8183 91.3131 215.8183 210.9331C215.8183 332.0331 306.1483 425.7831 411.1283 425.7831ZM819.8283 418.4531C830.5683 418.4531 840.3283 414.0631 847.6583 406.2531L986.3283 267.5731L1124.9983 406.2531C1132.3283 413.5731 1142.0883 418.4531 1153.3183 418.4531C1174.8083 418.4531 1192.3783 400.3931 1192.3783 378.9031C1192.3783 367.6731 1187.9883 358.8831 1180.6683 351.0731L1041.9883 212.4031L1181.1483 72.7531C1188.9683 64.4531 1192.8683 56.1531 1192.8683 45.4131C1192.8683 23.9231 1175.2883 6.3431 1153.8083 6.3431C1143.5583 6.3431 1134.7683 10.2531 1126.4683 18.5531L986.3283 157.7131L846.6783 19.0431C839.3583 11.2331 830.5683 7.3231 819.8283 7.3231C797.8483 7.3231 780.7583 24.4131 780.7583 45.9031C780.7583 56.6431 784.6683 65.9131 792.4783 73.2431L931.1483 212.4031L792.4783 351.5631C784.6683 358.8831 780.7583 368.1631 780.7583 378.9031C780.7583 400.3931 797.8483 418.4531 819.8283 418.4531ZM83.4983 877.9331H738.2783C790.5283 877.9331 821.7783 853.5131 821.7783 812.9931C821.7783 687.0131 664.0583 513.1831 410.6483 513.1831C157.7183 513.1831 -0.0017 687.0131 -0.0017 812.9931C-0.0017 853.5131 31.2483 877.9331 83.4983 877.9331Z"/>
</svg>