<?xml version="1.0" encoding="UTF-8" standalone="no"?>
<svg xmlns="http://www.w3.org/2000/svg"
     width="996.09375" height="996.09375"
     viewBox="0 0 996.09375 996.09375"
     fill="currentColor">
  <path d="M498.0477 996.0977C770.5077 996.0977 996.0977 770.5077 996.0977 498.0477C996.0977 226.0777 770.0177 -0.0023 497.5577 -0.0023C225.5877 -0.0023 -0.0023 226.0777 -0.0023 498.0477C-0.0023 770.5077 226.0777 996.0977 498.0477 996.0977ZM159.1777 446.7777C159.1777 364.2577 218.7477 304.1977 301.2677 304.1977H509.7677C592.7777 304.1977 651.8577 364.2577 651.8577 446.7777C651.8577 529.7877 592.7777 588.8677 509.7677 588.8677H443.3577C427.7377 574.2177 426.2677 549.3177 431.6377 534.1777H507.3277C559.0777 534.1777 594.7277 499.0277 594.7277 446.7777C594.7277 395.0177 559.0777 358.8877 507.3277 358.8877H304.1977C252.9277 358.8877 216.7977 395.0177 216.7977 446.7777C216.7977 499.0277 252.4377 534.1777 304.1977 534.1777H315.4277C313.4777 550.7777 314.9377 575.6877 317.8677 588.8677H301.2677C218.2577 588.8677 159.1777 529.7877 159.1777 446.7777ZM343.2577 553.2177C343.2577 470.7077 402.3477 411.1377 484.8677 411.1377H551.7577C566.8977 424.8077 568.8477 451.6577 562.4977 465.8177H487.7977C436.0377 465.8177 400.3877 501.4677 400.3877 553.2177C400.3877 604.9777 436.0377 641.1177 487.7977 641.1177H690.4277C742.1877 641.1177 777.8277 604.9777 777.8277 553.2177C777.8277 501.4677 742.6777 465.8177 690.4277 465.8177H679.6877C682.1277 441.8977 679.6877 425.7777 677.2477 411.1377H693.8477C776.3677 411.1377 835.4477 470.7077 835.4477 553.2177C835.4477 636.2277 776.3677 695.7977 693.8477 695.7977H484.8677C402.3477 695.7977 343.2577 636.2277 343.2577 553.2177Z"/>
</svg>