<?xml version="1.0" encoding="UTF-8" standalone="no"?>
<svg xmlns="http://www.w3.org/2000/svg"
     width="1759.765625" height="801.7578125"
     viewBox="0 0 1759.765625 801.7578125"
     fill="currentColor">
  <path d="M361.8183 400.878C464.3583 400.878 549.3183 309.568 549.3183 197.758C549.3183 87.398 465.3283 -0.002 361.8183 -0.002C258.7883 -0.002 174.3183 88.868 174.8083 198.238C174.8083 310.058 259.2783 400.878 361.8183 400.878ZM1398.4383 403.318C1500.9783 403.318 1585.9383 312.008 1585.9383 200.198C1585.9383 89.848 1501.9483 2.438 1398.4383 2.438C1295.4083 2.438 1210.9383 91.308 1211.4283 200.688C1211.4283 312.498 1295.8983 403.318 1398.4383 403.318ZM361.8183 327.148C302.2483 327.148 252.9283 271.488 252.9283 198.238C252.4383 127.438 301.2683 73.728 361.8183 73.728C422.3683 73.728 471.1883 126.468 471.1883 197.758C471.1883 270.508 421.8783 327.148 361.8183 327.148ZM1398.4383 329.588C1338.8683 329.588 1289.5483 273.928 1289.5483 200.688C1289.0583 129.878 1337.8883 76.168 1398.4383 76.168C1458.9883 76.168 1507.8083 128.908 1507.8083 200.198C1507.8083 272.948 1458.4983 329.588 1398.4383 329.588ZM687.9883 428.218C724.1183 428.218 752.9283 399.418 752.9283 363.278C752.9283 327.638 724.1183 298.828 687.9883 298.828C652.3483 298.828 623.5383 327.638 623.5383 363.278C623.5383 399.418 652.3483 428.218 687.9883 428.218ZM879.8783 428.218C915.5283 428.218 944.3383 399.418 944.3383 363.278C944.3383 327.638 915.5283 298.828 879.8783 298.828C843.7483 298.828 815.4283 327.638 815.4283 363.278C815.4283 399.418 843.7483 428.218 879.8783 428.218ZM1070.7983 428.218C1106.9383 428.218 1135.7383 399.418 1135.7383 363.278C1135.7383 327.638 1106.9383 298.828 1070.7983 298.828C1035.1583 298.828 1006.3483 327.638 1006.3483 363.278C1006.3483 399.418 1035.1583 428.218 1070.7983 428.218ZM107.4183 799.318H615.7183C686.5283 799.318 723.1483 776.368 723.1483 726.558C723.1483 614.258 592.7783 451.168 361.3283 451.168C130.3683 451.168 -0.0017 614.258 -0.0017 726.558C-0.0017 776.368 36.1283 799.318 107.4183 799.318ZM1144.0383 801.758H1652.3483C1723.1483 801.758 1759.7683 778.808 1759.7683 729.008C1759.7683 616.698 1629.3983 453.618 1397.9483 453.618C1166.9883 453.618 1036.6183 616.698 1036.6183 729.008C1036.6183 778.808 1072.7583 801.758 1144.0383 801.758ZM88.3783 725.588C81.0583 725.588 78.1283 722.658 78.1283 716.798C78.1283 652.348 170.4083 524.898 361.3283 524.898C552.2483 524.898 644.5283 652.348 644.5283 716.798C644.5283 722.658 641.5983 725.588 634.7683 725.588ZM1124.9983 728.028C1117.6783 728.028 1114.7483 725.098 1114.7483 719.238C1114.7483 654.788 1207.5183 527.348 1397.9483 527.348C1588.8683 527.348 1681.1483 654.788 1681.1483 719.238C1681.1483 725.098 1678.2183 728.028 1671.3883 728.028Z"/>
</svg>