<?xml version="1.0" encoding="UTF-8" standalone="no"?>
<svg xmlns="http://www.w3.org/2000/svg"
     width="858.88671875" height="1046.38671875"
     viewBox="0 0 858.88671875 1046.38671875"
     fill="currentColor">
  <path d="M429.1983 354.0083C521.9683 354.0083 594.7283 274.8983 594.7283 174.3183C594.7283 77.1483 521.4883 -0.0017 429.1983 -0.0017C336.9183 -0.0017 263.6683 77.6383 264.1583 175.2883C264.1583 275.3883 336.4283 354.0083 429.1983 354.0083ZM429.1983 285.1583C375.9783 285.1583 336.9183 239.2583 336.9183 175.2883C336.9183 113.7683 376.4683 68.8483 429.1983 68.8483C481.9383 68.8483 521.9683 113.7683 521.9683 174.3183C521.9683 238.7683 482.4183 285.1583 429.1983 285.1583ZM159.6683 708.0083H698.7283C739.2583 708.0083 762.6983 684.5683 762.6983 646.9683C762.6983 546.8783 635.7383 401.3683 429.1983 401.3683C222.1683 401.3683 95.6983 546.8783 95.6983 646.9683C95.6983 684.5683 118.6483 708.0083 159.6683 708.0083ZM183.1083 639.1583C172.8483 639.1583 168.4583 635.7383 169.4383 628.4183C178.7083 570.7983 269.0383 470.2183 429.1983 470.2183C588.8683 470.2183 679.6883 570.7983 688.9683 628.4183C689.9383 635.7383 685.0583 639.1583 675.2883 639.1583ZM39.0583 1046.3883H819.8283C841.3083 1046.3883 858.8883 1028.8083 858.8883 1007.3283C858.8883 985.8383 841.3083 967.7783 819.8283 967.7783H789.5483V854.0083C789.5483 802.7383 765.6283 774.8983 710.4483 774.8983H148.4383C93.7483 774.8983 69.3383 802.7383 69.3383 854.0083V967.7783H39.0583C17.5783 967.7783 -0.0017 985.8383 -0.0017 1007.3283C-0.0017 1028.8083 17.5783 1046.3883 39.0583 1046.3883ZM333.4983 940.4283C316.8983 940.4283 305.1783 927.7383 305.1783 911.1283C305.1783 895.0183 316.8983 882.8083 333.4983 882.8083H526.3683C542.4783 882.8083 554.6883 895.0183 554.6883 911.1283C554.6883 927.7383 542.4783 940.4283 526.3683 940.4283Z"/>
</svg>