<?xml version="1.0" encoding="UTF-8" standalone="no"?>
<svg xmlns="http://www.w3.org/2000/svg"
     width="858.88671875" height="1049.31640625"
     viewBox="0 0 858.88671875 1049.31640625"
     fill="currentColor">
  <path d="M429.1983 357.418C520.9983 358.398 593.7483 279.788 593.7483 176.758C593.7483 80.568 520.9983 -0.002 429.1983 -0.002C338.3783 -0.002 264.6483 80.568 264.6483 176.758C264.6483 279.788 337.8883 356.938 429.1983 357.418ZM140.6283 710.938H718.2583C748.0483 710.938 764.1583 691.408 764.1583 665.038C764.1583 587.888 652.3483 416.018 429.1983 416.018C205.5683 416.018 94.2383 587.888 94.2383 665.038C94.2383 691.408 110.8383 710.938 140.6283 710.938ZM39.0583 1049.318H819.8283C841.3083 1049.318 858.8883 1031.738 858.8883 1010.258C858.8883 988.768 841.3083 970.708 819.8283 970.708H789.5483V856.938C789.5483 805.668 765.6283 777.828 710.4483 777.828H148.4383C93.7483 777.828 69.3383 805.668 69.3383 856.938V970.708H39.0583C17.5783 970.708 -0.0017 988.768 -0.0017 1010.258C-0.0017 1031.738 17.5783 1049.318 39.0583 1049.318ZM333.4983 943.358C316.8983 943.358 305.1783 930.668 305.1783 914.058C305.1783 897.948 316.8983 885.738 333.4983 885.738H526.3683C542.4783 885.738 554.6883 897.948 554.6883 914.058C554.6883 930.668 542.4783 943.358 526.3683 943.358Z"/>
</svg>