<?xml version="1.0" encoding="UTF-8" standalone="no"?>
<svg xmlns="http://www.w3.org/2000/svg"
     width="1003.41796875" height="1061.5234375"
     viewBox="0 0 1003.41796875 1061.5234375"
     fill="currentColor">
  <path d="M193.8483 62.9908H810.0583C807.1283 21.4808 783.6883 0.0008 738.2783 0.0008H265.1383C220.2183 0.0008 196.7783 21.4808 193.8483 62.9908ZM93.2583 198.2408H910.6483C903.3183 153.8108 882.3283 129.3908 833.4983 129.3908H170.4083C121.5783 129.3908 100.5883 153.8108 93.2583 198.2408ZM148.4383 1061.5208H854.9783C953.1283 1061.5208 1003.4183 1011.7208 1003.4183 914.5508V423.3408C1003.4183 326.1708 953.1283 276.8508 854.9783 276.8508H148.4383C49.3183 276.8508 -0.0017 326.1708 -0.0017 423.3408V914.5508C-0.0017 1011.7208 49.3183 1061.5208 148.4383 1061.5208ZM501.4683 739.2608C420.4083 738.2808 356.4483 670.9008 355.9583 580.0808C355.4683 493.6508 420.4083 423.3408 501.4683 423.3408C583.0083 423.3408 647.4583 493.6508 647.4583 580.0808C647.4583 670.9008 583.0083 740.2308 501.4683 739.2608ZM219.2383 981.9308C257.8083 881.8408 368.1683 810.5508 501.4683 810.5508C635.2583 810.5508 745.6083 881.8408 784.1783 981.9308Z"/>
</svg>