<?xml version="1.0" encoding="UTF-8" standalone="no"?>
<svg xmlns="http://www.w3.org/2000/svg"
     width="1628.41796875" height="1030.2958424297183"
     viewBox="0 0 1628.41796875 1030.2958424297183"
     fill="currentColor">
  <path d="M1475.5883 677.7557C1493.6483 689.9657 1516.1183 685.5657 1529.2983 667.0157C1591.7983 581.0757 1628.4183 462.9157 1628.4183 342.3057C1628.4183 221.7057 1592.2883 102.5657 1529.2983 17.5957C1516.1183 -0.9543 1493.6483 -5.3443 1475.5883 6.8557C1458.0083 19.0657 1454.5883 42.0157 1468.7483 62.0357C1522.4583 137.2257 1552.7383 238.3057 1552.7383 342.3057C1552.7383 446.3157 1521.4883 546.8957 1468.7483 622.5857C1455.0783 642.5957 1458.0083 665.5457 1475.5883 677.7557ZM933.5983 571.7957C1049.8083 571.7957 1144.5283 468.2857 1144.5283 342.3057C1144.5283 217.7957 1050.2883 119.1657 933.5983 119.1657C817.8683 119.1657 722.6583 219.2557 722.6583 343.2857C723.1483 468.7757 817.8683 571.7957 933.5983 571.7957ZM1294.9183 550.3157C1311.0383 561.5457 1333.9883 558.1257 1347.1683 539.0857C1384.7683 489.7657 1407.2283 417.0157 1407.2283 342.3057C1407.2283 267.5957 1384.7683 195.3357 1347.1683 145.5257C1333.9883 126.4857 1311.0383 123.0657 1294.9183 134.2957C1274.8983 147.9757 1271.9683 172.3857 1287.1083 192.4057C1315.4283 231.4657 1331.5383 285.6657 1331.5383 342.3057C1331.5383 398.9457 1314.9383 452.6557 1287.1083 492.2057C1272.4583 512.7157 1274.8983 536.1557 1294.9183 550.3157ZM371.0983 582.5457C471.6783 582.5457 554.1983 492.2057 554.1983 381.3657C554.1983 272.9757 472.6583 185.5657 371.0983 185.5657C270.5083 185.5657 187.4983 274.4357 187.9883 382.3457C188.4783 492.6957 270.5083 582.5457 371.0983 582.5457ZM933.5983 498.0657C862.3083 498.0657 801.2683 429.7057 801.2683 343.2857C801.2683 258.3257 861.3283 192.8957 933.5983 192.8957C1006.3483 192.8957 1065.9183 257.3457 1065.9183 342.3057C1065.9183 428.7357 1005.8583 498.0657 933.5983 498.0657ZM371.0983 509.7857C311.5283 509.7857 260.7383 452.6557 260.7383 382.3457C260.7383 313.4957 311.0383 258.3257 371.0983 258.3257C432.6183 258.3257 481.9383 312.5257 481.9383 381.3657C481.9383 452.6557 431.1483 509.7857 371.0983 509.7857ZM99.6083 1030.2957H482.9083C459.4683 1017.1157 441.4083 987.8157 444.8283 958.0257H87.3983C77.6383 958.0257 72.7583 954.1257 72.7583 944.8457C72.7583 823.7557 210.9383 710.4757 370.6083 710.4757C432.1283 710.4757 487.3083 725.1157 534.6683 752.9557C550.2883 733.4257 567.8683 716.3357 589.8483 701.1957C526.8583 659.6857 451.1683 638.2057 370.6083 638.2057C166.0183 638.2057 -0.0017 786.6457 -0.0017 949.2457C-0.0017 1003.4357 33.1983 1030.2957 99.6083 1030.2957ZM626.9483 1030.2957H1240.2383C1321.2883 1030.2957 1359.8683 1005.8857 1359.8683 952.1757C1359.8683 824.2457 1198.2383 639.1857 933.5983 639.1857C668.4583 639.1857 506.8383 824.2457 506.8383 952.1757C506.8383 1005.8857 545.4083 1030.2957 626.9483 1030.2957ZM603.5183 956.5657C590.8183 956.5657 585.4483 953.1457 585.4483 942.8957C585.4483 862.8157 709.4683 712.9157 933.5983 712.9157C1157.2283 712.9157 1281.2483 862.8157 1281.2483 942.8957C1281.2483 953.1457 1276.3683 956.5657 1263.6683 956.5657Z"/>
</svg>