<?xml version="1.0" encoding="UTF-8" standalone="no"?>
<svg xmlns="http://www.w3.org/2000/svg"
     width="1780.76171875" height="800.29296875"
     viewBox="0 0 1780.76171875 800.29296875"
     fill="currentColor">
  <path d="M372.5583 389.1597C467.7783 389.1597 550.7783 303.2197 550.7783 191.4097C550.7783 81.5397 467.2883 -0.0003 372.5583 -0.0003C276.8583 -0.0003 193.3583 83.0097 193.8483 192.3797C193.8483 303.2197 276.8583 389.1597 372.5583 389.1597ZM1409.1783 389.1597C1504.3983 389.1597 1587.3983 303.2197 1587.3983 191.4097C1587.3983 81.5397 1503.9083 -0.0003 1409.1783 -0.0003C1313.4783 -0.0003 1229.9783 83.0097 1230.4683 192.3797C1230.4683 303.2197 1313.4783 389.1597 1409.1783 389.1597ZM698.7283 427.7297C734.8683 427.7297 763.6683 398.9297 763.6683 362.7897C763.6683 327.1497 734.8683 298.3397 698.7283 298.3397C663.0883 298.3397 634.2783 327.1497 634.2783 362.7897C634.2783 398.9297 663.0883 427.7297 698.7283 427.7297ZM890.6283 427.7297C926.2683 427.7297 955.0783 398.9297 955.0783 362.7897C955.0783 327.1497 926.2683 298.3397 890.6283 298.3397C854.4883 298.3397 826.1683 327.1497 826.1683 362.7897C826.1683 398.9297 854.4883 427.7297 890.6283 427.7297ZM1081.5383 427.7297C1117.6783 427.7297 1146.4883 398.9297 1146.4883 362.7897C1146.4883 327.1497 1117.6783 298.3397 1081.5383 298.3397C1045.8983 298.3397 1017.0883 327.1497 1017.0883 362.7897C1017.0883 398.9297 1045.8983 427.7297 1081.5383 427.7297ZM77.1483 800.2897H666.9883C715.8183 800.2897 744.1383 777.8297 744.1383 739.7497C744.1383 625.4897 602.5383 466.3097 372.0683 466.3097C141.5983 466.3097 -0.0017 625.4897 -0.0017 739.7497C-0.0017 777.8297 27.8283 800.2897 77.1483 800.2897ZM1113.7683 800.2897H1703.6183C1752.4383 800.2897 1780.7583 777.8297 1780.7583 739.7497C1780.7583 625.4897 1639.1583 466.3097 1408.6883 466.3097C1178.2183 466.3097 1036.6183 625.4897 1036.6183 739.7497C1036.6183 777.8297 1064.4483 800.2897 1113.7683 800.2897Z"/>
</svg>