<?xml version="1.0" encoding="UTF-8" standalone="no"?>
<svg xmlns="http://www.w3.org/2000/svg"
     width="1867.1875" height="911.1328125"
     viewBox="0 0 1867.1875 911.1328125"
     fill="currentColor">
  <path d="M933.5983 452.6327C1049.8083 452.6327 1144.5283 349.1227 1144.5283 223.1427C1144.5283 98.6327 1051.2683 0.0027 933.5983 0.0027C817.8683 0.0027 722.6583 100.0927 723.1483 224.1227C723.1483 349.6127 817.8683 452.6327 933.5983 452.6327ZM371.0983 463.3827C471.6783 463.3827 554.1983 373.0427 554.1983 262.2027C554.1983 153.8127 472.6583 66.4027 371.0983 66.4027C270.5083 66.4027 187.4983 155.2727 187.9883 263.1827C187.9883 373.5327 270.5083 463.3827 371.0983 463.3827ZM1496.0983 463.3827C1596.6783 463.3827 1679.1983 373.5327 1679.1983 263.1827C1679.6883 155.2727 1596.6783 66.4027 1496.0983 66.4027C1394.5283 66.4027 1312.9883 153.8127 1312.9883 262.2027C1312.9883 373.0427 1395.5083 463.3827 1496.0983 463.3827ZM933.5983 378.9027C862.3083 378.9027 801.7583 310.5427 801.7583 224.1227C801.2683 139.1627 861.3283 73.7327 933.5983 73.7327C1006.8383 73.7327 1065.9183 138.1827 1065.9183 223.1427C1065.9183 309.5727 1005.8583 378.9027 933.5983 378.9027ZM371.0983 390.6227C311.0383 390.6227 260.7383 333.4927 260.7383 263.1827C260.7383 194.3327 310.5483 139.1627 371.0983 139.1627C432.6183 139.1627 481.9383 193.3627 481.9383 262.2027C481.9383 333.4927 431.1483 390.6227 371.0983 390.6227ZM1496.0983 390.6227C1436.0383 390.6227 1385.2583 333.4927 1385.2583 262.2027C1385.2583 193.3627 1434.5683 139.1627 1496.0983 139.1627C1556.6383 139.1627 1606.4483 194.3327 1606.4483 263.1827C1606.4483 333.4927 1555.6683 390.6227 1496.0983 390.6227ZM99.1183 911.1327H482.4183C458.9883 897.9527 441.4083 868.6527 444.8283 838.8627H87.3983C77.1483 838.8627 72.7583 834.9627 72.7583 825.6827C72.7583 704.5927 210.9383 591.3127 370.6083 591.3127C431.6383 591.3127 487.3083 605.9527 534.6683 633.7927C549.8083 614.2627 567.8683 597.1727 589.8483 582.0327C526.8583 540.5227 451.1683 519.0427 370.6083 519.0427C166.0183 519.0427 -0.0017 667.4827 -0.0017 830.0827C-0.0017 884.2727 33.1983 911.1327 99.1183 911.1327ZM1768.0683 911.1327C1833.9883 911.1327 1867.1883 884.2727 1867.1883 830.0827C1867.1883 667.4827 1701.1683 519.0427 1496.5783 519.0427C1416.0183 519.0427 1340.3283 540.5227 1277.3483 582.0327C1299.3183 597.1727 1317.3783 614.2627 1332.5183 633.7927C1379.8783 605.9527 1435.0583 591.3127 1496.5783 591.3127C1656.2483 591.3127 1794.4383 704.5927 1794.4383 825.6827C1794.4383 834.9627 1790.0383 838.8627 1779.7883 838.8627H1422.3683C1425.7783 868.6527 1407.7183 897.9527 1384.7683 911.1327ZM626.9483 911.1327H1240.2383C1321.2883 911.1327 1360.3483 886.7227 1360.3483 833.0127C1360.3483 705.0827 1198.7283 520.0227 933.5983 520.0227C668.4583 520.0227 506.8383 705.0827 506.8383 833.0127C506.8383 886.7227 545.4083 911.1327 626.9483 911.1327ZM603.5183 837.4027C590.8183 837.4027 585.4483 833.9827 585.4483 823.7327C585.4483 743.6527 709.4683 593.7527 933.5983 593.7527C1157.7183 593.7527 1281.7383 743.6527 1281.7383 823.7327C1281.7383 833.9827 1276.3683 837.4027 1263.6683 837.4027Z"/>
</svg>