<?xml version="1.0" encoding="UTF-8" standalone="no"?>
<svg xmlns="http://www.w3.org/2000/svg"
     width="996.09375" height="996.09375"
     viewBox="0 0 996.09375 996.09375"
     fill="currentColor">
  <path d="M498.0477 996.0959C770.5077 996.0959 996.0977 770.0159 996.0977 498.0459C996.0977 225.5859 770.0177 -0.0041 497.5577 -0.0041C225.5877 -0.0041 -0.0023 225.5859 -0.0023 498.0459C-0.0023 770.0159 226.0777 996.0959 498.0477 996.0959ZM498.0477 913.0859C267.5777 913.0859 83.4977 728.5159 83.4977 498.0459C83.4977 267.5759 267.0877 83.0059 497.5577 83.0059C728.0277 83.0059 913.0877 267.5759 913.0877 498.0459C913.0877 728.5159 728.5177 913.0859 498.0477 913.0859ZM622.5577 473.1459C673.8277 473.1459 717.2877 426.7559 717.2877 367.1859C717.2877 308.5959 673.3377 265.6259 622.5577 265.6259C571.2877 265.6259 527.3477 310.0559 527.3477 367.6759C527.8277 426.7559 571.2877 473.1459 622.5577 473.1459ZM348.6377 478.0259C393.0677 478.0259 431.1477 437.9859 431.1477 386.2259C431.1477 335.4459 393.0677 297.3659 348.6377 297.3659C304.6877 297.3659 265.6277 336.4259 265.6277 386.7159C266.1177 437.9859 304.1977 478.0259 348.6377 478.0259ZM215.8177 692.3859H396.9777C372.0677 657.2259 402.3477 584.4759 453.6177 545.4059C426.7577 527.8359 392.5777 514.6459 348.6377 514.6459C241.2077 514.6459 174.3177 593.7459 174.3177 659.1759C174.3177 680.6659 186.0377 692.3859 215.8177 692.3859ZM473.1477 692.3859H771.4877C809.0777 692.3859 822.2677 681.6359 822.2677 660.6459C822.2677 599.6059 745.6077 515.1359 622.5577 515.1359C499.0277 515.1359 421.8777 599.6059 421.8777 660.6459C421.8777 681.6359 435.5477 692.3859 473.1477 692.3859Z"/>
</svg>