<?xml version="1.0" encoding="UTF-8" standalone="no"?>
<svg xmlns="http://www.w3.org/2000/svg"
     width="1181.15234375" height="1167.48046875"
     viewBox="0 0 1181.15234375 1167.48046875"
     fill="currentColor">
  <path d="M39.0583 620.6031H175.2883V770.5031C175.2883 852.0531 227.0483 900.3931 324.2183 917.4831L553.7083 957.5231V1128.9031C553.7083 1152.8331 567.3783 1167.4831 590.8183 1167.4831C613.2783 1167.4831 627.4383 1152.8331 627.4383 1128.9031V970.7031L856.9383 1010.7431C950.1983 1027.3431 1005.8583 968.7531 1005.8583 864.2531V620.6031H1142.0883C1166.5083 620.6031 1181.1483 606.4431 1181.1483 583.9831C1181.1483 560.5431 1166.5083 546.8731 1142.0883 546.8731H1005.8583V303.7131C1005.8583 193.8431 954.0983 139.6531 856.9383 156.7431L627.4383 197.2631V39.0631C627.4383 14.6531 613.2783 0.0031 590.8183 0.0031C567.3783 0.0031 553.7083 14.6531 553.7083 39.0631V209.9631L324.2183 250.4931C227.0483 267.5731 175.2883 314.9431 175.2883 396.9731V546.8731H39.0583C14.6483 546.8731 -0.0017 560.5431 -0.0017 583.9831C-0.0017 606.4431 14.6483 620.6031 39.0583 620.6031ZM860.8383 230.4731C907.2283 222.6531 932.1283 248.5331 932.1283 302.7331V546.8731H627.4383V270.5031ZM249.0283 395.9931C249.0283 354.9831 273.9283 331.5431 320.3083 323.7331L553.7083 283.2031V546.8731H249.0283ZM320.3083 843.7531C273.9283 835.9331 249.0283 812.5031 249.0283 771.4831V620.6031H553.7083V884.2731ZM860.8383 937.5031L627.4383 896.9731V620.6031H932.1283V865.2331C932.1283 916.9931 905.7583 944.8231 860.8383 937.5031Z"/>
</svg>