<?xml version="1.0" encoding="UTF-8" standalone="no"?>
<svg xmlns="http://www.w3.org/2000/svg"
     width="1359.86328125" height="904.296875"
     viewBox="0 0 1359.86328125 904.296875"
     fill="currentColor">
  <path d="M933.5983 452.6367C1049.8083 452.6367 1144.5283 349.1167 1144.5283 223.1467C1144.5283 98.1467 1050.2883 -0.0033 933.5983 -0.0033C817.3783 -0.0033 722.1683 100.0967 722.6583 224.1167C723.1483 349.6067 817.3783 452.6367 933.5983 452.6367ZM371.0983 456.5467C471.6783 456.5467 554.1983 366.2067 554.1983 255.3667C554.1983 146.9767 472.6583 59.5667 371.0983 59.5667C270.5083 59.5667 187.4983 148.4367 187.9883 256.3467C187.9883 366.6967 270.5083 456.5467 371.0983 456.5467ZM933.5983 378.9067C862.3083 378.9067 801.2683 310.5467 801.2683 224.1167C800.7783 139.1567 860.8383 73.7267 933.5983 73.7267C1006.3483 73.7267 1065.9183 138.1867 1065.9183 223.1467C1065.9183 309.5667 1005.3683 378.9067 933.5983 378.9067ZM371.0983 383.7867C311.0383 383.7867 260.7383 326.6567 260.7383 256.3467C260.7383 187.4967 310.5483 132.3267 371.0983 132.3267C432.6183 132.3267 481.9383 186.5267 481.9383 255.3667C481.9383 326.6567 431.1483 383.7867 371.0983 383.7867ZM99.1183 904.2967H482.4183C458.9883 891.1167 441.4083 861.8167 444.8283 832.0267H87.3983C77.1483 832.0267 72.7583 828.1267 72.7583 818.8467C72.7583 697.7567 210.9383 584.4767 370.6083 584.4767C431.6383 584.4767 487.3083 599.1167 534.6683 626.9567C549.8083 607.4267 567.8683 590.3367 589.8483 575.1967C526.8583 533.6867 451.1683 512.2067 370.6083 512.2067C166.0183 512.2067 -0.0017 660.6467 -0.0017 823.2467C-0.0017 877.4367 33.1983 904.2967 99.1183 904.2967ZM626.4683 904.2967H1239.7483C1321.2883 904.2967 1359.8683 879.8867 1359.8683 826.1767C1359.8683 698.2467 1198.2383 513.1867 933.1083 513.1867C668.4583 513.1867 506.8383 698.2467 506.8383 826.1767C506.8383 879.8867 545.4083 904.2967 626.4683 904.2967ZM603.0283 830.5667C590.3283 830.5667 585.4483 827.1467 585.4483 816.8967C585.4483 736.8167 709.4683 586.9167 933.1083 586.9167C1157.2283 586.9167 1281.2483 736.8167 1281.2483 816.8967C1281.2483 827.1467 1275.8783 830.5667 1263.1883 830.5667Z"/>
</svg>