<?xml version="1.0" encoding="UTF-8" standalone="no"?>
<svg xmlns="http://www.w3.org/2000/svg"
     width="1151.3671875" height="898.92578125"
     viewBox="0 0 1151.3671875 898.92578125"
     fill="currentColor">
  <path d="M153.3183 898.9278H998.0483C1100.5883 898.9278 1151.3683 848.6378 1151.3683 748.0478V151.3678C1151.3683 50.7778 1100.5883 -0.0022 998.0483 -0.0022H153.3183C51.2683 -0.0022 -0.0017 50.7778 -0.0017 151.3678V748.0478C-0.0017 848.6378 51.2683 898.9278 153.3183 898.9278ZM576.1683 530.7578C482.9083 529.7878 409.6683 452.6378 409.1783 348.1478C408.6883 249.9978 482.9083 168.9478 576.1683 168.9478C669.4383 168.9478 743.1683 249.9978 743.1683 348.1478C743.1683 452.6378 669.4383 531.7378 576.1683 530.7578ZM247.0683 825.6878C284.1783 701.6578 416.0183 612.7978 576.1683 612.7978C735.8383 612.7978 867.6783 701.6578 905.2783 825.6878Z"/>
</svg>