<?xml version="1.0" encoding="UTF-8" standalone="no"?>
<svg xmlns="http://www.w3.org/2000/svg"
     width="996.09375" height="996.09375"
     viewBox="0 0 996.09375 996.09375"
     fill="currentColor">
  <path d="M498.0477 996.0977C770.5077 996.0977 996.0977 770.5077 996.0977 498.0477C996.0977 226.0777 770.0177 -0.0023 497.5577 -0.0023C225.5877 -0.0023 -0.0023 226.0777 -0.0023 498.0477C-0.0023 770.5077 226.0777 996.0977 498.0477 996.0977ZM626.9577 473.1477C574.2177 473.1477 529.2977 425.2977 528.8077 364.2577C528.8077 305.1777 574.2177 258.7877 626.9577 258.7877C679.1977 258.7877 724.6077 303.7077 724.6077 363.7677C724.6077 425.2977 679.6877 473.1477 626.9577 473.1477ZM344.7277 478.0277C298.8277 478.0277 259.2777 437.0077 259.2777 383.7877C258.7877 332.0277 299.3177 291.9877 344.7277 291.9877C390.1377 291.9877 429.6877 331.0577 429.6877 383.2977C429.6877 437.0077 390.1377 478.0277 344.7277 478.0277ZM207.5177 699.7077C176.7577 699.7077 164.5477 687.0077 164.5477 664.5477C164.5477 597.1677 233.8877 515.6277 344.7277 515.6277C389.6477 515.6277 424.8077 529.2977 452.6377 547.3677C399.8977 587.8877 368.6477 662.5977 394.0477 699.7077ZM473.1477 699.7077C434.0777 699.7077 419.9177 687.9877 419.9177 666.9877C419.9177 603.5177 499.5077 516.5977 626.9577 516.5977C753.9077 516.5977 833.0077 603.5177 833.0077 666.9877C833.0077 687.9877 819.3377 699.7077 780.2777 699.7077Z"/>
</svg>