<?xml version="1.0" encoding="UTF-8" standalone="no"?>
<svg xmlns="http://www.w3.org/2000/svg"
     width="856.4453125" height="1133.30078125"
     viewBox="0 0 856.4453125 1133.30078125"
     fill="currentColor">
  <path d="M191.4083 62.987H665.0383C662.1083 21.487 638.1883 -0.003 593.2583 -0.003H262.6983C217.7783 -0.003 194.3383 21.487 191.4083 62.987ZM106.4483 198.247H749.5083C742.1883 153.807 721.1883 129.397 672.3683 129.397H183.5983C134.7683 129.397 113.7683 153.807 106.4483 198.247ZM153.3183 1133.297H717.7783C805.1783 1133.297 856.4483 1082.517 856.4483 981.937V428.227C856.4483 327.637 804.6883 276.857 703.1283 276.857H153.3183C51.2683 276.857 -0.0017 327.147 -0.0017 428.227V981.937C-0.0017 1082.517 51.2683 1133.297 153.3183 1133.297ZM271.9683 836.917C172.3683 836.917 101.0783 896.977 78.6183 962.407V432.127C78.6183 381.837 105.4683 355.467 154.2983 355.467H701.6583C749.9983 355.467 777.8283 381.837 777.8283 432.127V928.707C740.7183 878.417 673.8283 837.887 583.9883 837.887C443.3583 837.887 355.4683 938.967 355.4683 1018.067C355.4683 1034.177 358.8883 1046.387 364.7483 1054.687H303.2183C300.2883 1042.967 298.8283 1030.757 298.8283 1018.067C298.8283 958.987 327.1483 903.807 373.0483 861.817C346.1883 845.217 312.4983 836.917 271.9683 836.917ZM583.9883 778.807C642.0883 778.807 691.8983 726.567 691.8983 659.177C691.8983 592.287 642.0883 542.967 583.9883 542.967C525.8783 542.967 475.0983 593.747 475.5883 660.157C475.5883 726.567 525.8783 778.807 583.9883 778.807ZM271.9683 785.647C322.7583 785.647 366.2083 740.237 366.2083 680.667C366.2083 622.557 322.2683 579.587 271.9683 579.587C221.1883 579.587 177.2483 623.537 177.2483 681.157C177.7383 740.237 221.1883 785.647 271.9683 785.647Z"/>
</svg>