<?xml version="1.0" encoding="UTF-8" standalone="no"?>
<svg xmlns="http://www.w3.org/2000/svg"
     width="1282.5927734375" height="904.296875"
     viewBox="0 0 1282.5927734375 904.296875"
     fill="currentColor">
  <path d="M641.6006 452.6367C757.3206 452.6367 852.5406 349.1167 852.5406 223.1467C852.5406 98.1467 758.3006 -0.0033 641.6006 -0.0033C525.3906 -0.0033 430.1806 100.0967 430.6606 224.1167C430.6606 349.6067 525.3906 452.6367 641.6006 452.6367ZM641.6006 378.9067C570.3106 378.9067 509.2806 310.5467 509.2806 224.1167C508.7906 139.1567 568.8506 73.7267 641.6006 73.7267C714.3506 73.7267 773.9306 138.1867 773.9306 223.1467C773.9306 309.5667 713.3806 378.9067 641.6006 378.9067ZM914.5506 223.1467C914.5506 244.6267 931.1506 261.2267 952.6406 261.2267H1078.6106V321.7767C1078.6106 354.9767 1111.3306 367.1867 1138.1806 346.6767L1269.0406 249.5067C1287.1106 236.3267 1287.1106 211.4267 1269.0406 198.2467L1138.1806 100.0967C1112.3006 80.5667 1078.6106 90.8167 1078.6106 125.9767V185.0567H952.6406C931.1506 185.0567 914.5506 202.1467 914.5506 223.1467ZM13.1806 249.5067L144.0406 346.6767C171.3906 367.1867 203.6106 354.9767 203.6106 321.7767V261.2267H329.5906C351.0706 261.2267 368.1606 244.6267 368.1606 223.1467C368.1606 202.1467 351.0706 185.0567 329.5906 185.0567H203.6106V125.9767C203.6106 90.8167 170.4106 80.5667 144.0406 100.0967L13.1806 198.2467C-4.3994 211.4267 -4.3994 236.3267 13.1806 249.5067ZM334.4706 904.2967H947.7506C1029.3006 904.2967 1067.8706 879.8867 1067.8706 826.1767C1067.8706 698.2467 906.2506 513.1867 641.1106 513.1867C376.4606 513.1867 214.8406 698.2467 214.8406 826.1767C214.8406 879.8867 253.4206 904.2967 334.4706 904.2967ZM311.0306 830.5667C298.3406 830.5667 293.4606 827.1467 293.4606 816.8967C293.4606 736.8167 417.4806 586.9167 641.1106 586.9167C865.2306 586.9167 989.2606 736.8167 989.2606 816.8967C989.2606 827.1467 983.8906 830.5667 971.1906 830.5667Z"/>
</svg>