<?xml version="1.0" encoding="UTF-8" standalone="no"?>
<svg xmlns="http://www.w3.org/2000/svg"
     width="1402.83203125" height="794.921875"
     viewBox="0 0 1402.83203125 794.921875"
     fill="currentColor">
  <path d="M283.6877 567.8686H323.2377C320.3077 542.4786 317.8677 514.6486 321.2877 489.2586H289.0577C168.9477 489.2586 83.4977 404.7886 83.4977 283.6886C83.4977 163.5786 169.4377 78.6086 289.0577 78.6086H722.1677C841.7977 78.6086 927.7377 163.5786 927.7377 283.6886C927.7377 404.7886 841.7977 489.2586 722.1677 489.2586H550.7777C543.9477 508.2986 546.3877 545.4086 561.5277 567.8686H727.5377C893.0677 567.8686 1011.2277 451.6586 1011.2277 283.6886C1011.2277 116.2086 893.0677 -0.0014 727.5377 -0.0014H283.6877C118.1677 -0.0014 -0.0023 116.2086 -0.0023 283.6886C-0.0023 451.6586 118.1677 567.8686 283.6877 567.8686ZM675.2977 794.9186H1119.1377C1284.6677 794.9186 1402.8277 678.7086 1402.8277 510.7386C1402.8277 343.2586 1284.6677 227.0486 1119.1377 227.0486H1079.0977C1082.0277 251.9486 1084.4777 280.2686 1081.5477 305.6686H1113.2777C1233.3977 305.6686 1319.3377 390.1386 1319.3377 510.7386C1319.3377 631.3486 1233.3977 716.3086 1113.2777 716.3086H680.6677C561.0377 716.3086 475.0977 631.3486 475.0977 510.7386C475.0977 390.1386 560.5477 305.6686 680.6677 305.6686H852.0477C858.8877 286.6186 856.4477 249.5086 840.8177 227.0486H675.2977C509.2777 227.0486 391.5977 343.2586 391.5977 510.7386C391.5977 678.7086 509.2777 794.9186 675.2977 794.9186Z"/>
</svg>