<?xml version="1.0" encoding="UTF-8" standalone="no"?>
<svg xmlns="http://www.w3.org/2000/svg"
     width="1948.2421875" height="911.1328125"
     viewBox="0 0 1948.2421875 911.1328125"
     fill="currentColor">
  <path d="M426.7583 452.6327C542.4783 452.6327 637.6983 349.1227 637.6983 223.1427C637.6983 98.6327 543.9483 0.0027 426.7583 0.0027C310.5483 0.0027 215.3283 100.0927 215.8183 224.1227C215.8183 349.6127 310.5483 452.6327 426.7583 452.6327ZM974.1183 452.6327C1090.3283 452.6327 1185.0583 349.1227 1185.0583 223.1427C1185.0583 98.6327 1091.3083 0.0027 974.1183 0.0027C857.9083 0.0027 762.6983 100.0927 763.1883 224.1227C763.6683 349.6127 857.9083 452.6327 974.1183 452.6327ZM1521.4883 452.6327C1637.6983 452.6327 1732.4183 349.1227 1732.4183 223.1427C1732.4183 98.6327 1638.6683 0.0027 1521.4883 0.0027C1405.7583 0.0027 1310.5483 100.0927 1310.5483 224.1227C1311.0383 349.6127 1405.7583 452.6327 1521.4883 452.6327ZM426.7583 378.9027C354.9783 378.9027 294.4383 310.5427 294.4383 224.1227C293.9483 139.1627 354.0083 73.7327 426.7583 73.7327C499.5083 73.7327 559.0783 138.1827 559.0783 223.1427C559.0783 309.5727 498.5383 378.9027 426.7583 378.9027ZM974.1183 378.9027C902.8283 378.9027 841.7983 310.5427 841.7983 224.1227C841.3083 139.1627 901.3683 73.7327 974.1183 73.7327C1046.8783 73.7327 1106.4483 138.1827 1106.4483 223.1427C1106.4483 309.5727 1045.8983 378.9027 974.1183 378.9027ZM1521.4883 378.9027C1450.1983 378.9027 1389.1583 310.5427 1389.1583 224.1227C1389.1583 139.1627 1449.2183 73.7327 1521.4883 73.7327C1594.2383 73.7327 1653.8083 138.1827 1653.8083 223.1427C1653.8083 309.5727 1593.7483 378.9027 1521.4883 378.9027ZM119.6283 911.1327H733.3983C814.4483 911.1327 853.0283 886.7227 853.0283 833.0127C853.0283 705.0827 691.4083 520.0227 426.7583 520.0227C161.6183 520.0227 -0.0017 705.0827 -0.0017 833.0127C-0.0017 886.7227 38.5783 911.1327 119.6283 911.1327ZM973.6283 520.0227C892.0883 520.0227 820.3083 538.0827 759.7683 566.4027C782.2283 583.4927 803.2183 601.5627 821.2883 621.0927C864.7483 604.4927 916.0183 593.7527 973.6283 593.7527C1197.7583 593.7527 1321.7783 743.6527 1321.7783 823.7327C1321.7783 833.9827 1316.4083 837.4027 1303.7083 837.4027H913.5783C913.0883 863.7727 908.1983 888.6727 892.5783 911.1327H1280.2783C1361.8183 911.1327 1400.3883 886.7227 1400.3883 833.0127C1400.3883 705.0827 1238.7683 520.0227 973.6283 520.0227ZM1521.4883 520.0227C1439.9383 520.0227 1367.6783 538.0827 1307.1283 566.8927C1330.0783 583.4927 1350.5883 601.5627 1368.6483 622.0727C1412.1083 604.4927 1463.8683 593.7527 1521.4883 593.7527C1745.6083 593.7527 1869.6283 743.6527 1869.6283 823.7327C1869.6283 833.9827 1864.2583 837.4027 1851.5583 837.4027H1460.9383C1460.4483 863.7727 1455.5683 888.6727 1439.4483 911.1327H1828.1283C1909.6683 911.1327 1948.2383 886.7227 1948.2383 833.0127C1948.2383 705.0827 1786.6183 520.0227 1521.4883 520.0227ZM96.6783 837.4027C83.9883 837.4027 78.6183 833.9827 78.6183 823.7327C78.6183 743.6527 202.6383 593.7527 426.7583 593.7527C650.3883 593.7527 774.4183 743.6527 774.4183 823.7327C774.4183 833.9827 769.5283 837.4027 756.8383 837.4027Z"/>
</svg>