<?xml version="1.0" encoding="UTF-8" standalone="no"?>
<svg xmlns="http://www.w3.org/2000/svg"
     width="1151.3671875" height="898.92578125"
     viewBox="0 0 1151.3671875 898.92578125"
     fill="currentColor">
  <path d="M153.3183 898.9278H998.0483C1100.5883 898.9278 1151.3683 848.6378 1151.3683 748.0478V151.3678C1151.3683 50.7778 1100.5883 -0.0022 998.0483 -0.0022H153.3183C51.2683 -0.0022 -0.0017 50.7778 -0.0017 151.3678V748.0478C-0.0017 848.6378 51.2683 898.9278 153.3183 898.9278ZM154.2983 820.3078C105.4683 820.3078 78.6183 794.4378 78.6183 743.6478V155.7578C78.6183 104.9778 105.4683 78.6178 154.2983 78.6178H997.0683C1045.4083 78.6178 1072.7583 104.9778 1072.7583 155.7578V743.6478C1072.7583 794.4378 1045.4083 820.3078 997.0683 820.3078ZM372.5583 447.2678C432.1283 447.7578 479.4883 397.4578 479.4883 330.5678C479.4883 268.0678 432.1283 216.3078 372.5583 216.3078C313.4783 216.3078 265.6283 268.0678 265.6283 330.5678C265.6283 397.4578 313.4783 447.2678 372.5583 447.2678ZM690.9183 288.5778H957.5183C974.6083 288.5778 987.7883 275.3878 987.7883 258.2978C987.7883 241.6978 974.6083 228.5178 957.5183 228.5178H690.9183C673.3383 228.5178 660.1583 241.6978 660.1583 258.2978C660.1583 275.3878 673.3383 288.5778 690.9183 288.5778ZM690.9183 479.9778H957.5183C974.6083 479.9778 987.7883 466.3078 987.7883 449.2178C987.7883 432.6178 974.6083 419.9178 957.5183 419.9178H690.9183C673.3383 419.9178 660.1583 432.6178 660.1583 449.2178C660.1583 466.3078 673.3383 479.9778 690.9183 479.9778ZM182.1283 670.8978H563.4783C579.5883 670.8978 587.3983 660.1578 587.3983 645.5078C587.3983 599.6078 518.5583 481.4478 372.5583 481.4478C226.5583 481.4478 158.1983 599.6078 158.1983 645.5078C158.1983 660.1578 166.0183 670.8978 182.1283 670.8978ZM690.9183 670.8978H957.5183C974.6083 670.8978 987.7883 658.2078 987.7883 641.5978C987.7883 624.5078 974.6083 610.8378 957.5183 610.8378H690.9183C673.3383 610.8378 660.1583 624.5078 660.1583 641.5978C660.1583 658.2078 673.3383 670.8978 690.9183 670.8978Z"/>
</svg>