<?xml version="1.0" encoding="UTF-8" standalone="no"?>
<svg xmlns="http://www.w3.org/2000/svg"
     width="996.09375" height="996.09375"
     viewBox="0 0 996.09375 996.09375"
     fill="currentColor">
  <path d="M498.0477 996.0977C770.5077 996.0977 996.0977 770.5077 996.0977 498.0477C996.0977 226.0777 770.0177 -0.0023 497.5577 -0.0023C225.5877 -0.0023 -0.0023 226.0777 -0.0023 498.0477C-0.0023 770.5077 226.0777 996.0977 498.0477 996.0977ZM498.0477 482.9077C426.7577 482.4177 368.6477 422.3677 368.6477 341.3077C368.6477 266.1177 426.7577 203.6177 498.0477 203.6177C569.3377 203.6177 627.4377 266.1177 627.4377 341.3077C627.4377 422.3677 569.3377 483.3977 498.0477 482.9077ZM268.0677 753.9077C247.5577 753.9077 238.2777 740.7177 238.2777 722.1677C238.2777 667.4777 321.2877 524.4177 498.0477 524.4177C674.8077 524.4177 757.8077 667.4777 757.8077 722.1677C757.8077 740.7177 748.5377 753.9077 728.0277 753.9077Z"/>
</svg>