<?xml version="1.0" encoding="UTF-8" standalone="no"?>
<svg xmlns="http://www.w3.org/2000/svg"
     width="898.92578125" height="898.92578125"
     viewBox="0 0 898.92578125 898.92578125"
     fill="currentColor">
  <path d="M153.3183 898.9295H745.6083C848.1483 898.9295 898.9283 848.1495 898.9283 747.5595V151.3695C898.9283 50.7795 848.1483 -0.0005 745.6083 -0.0005H153.3183C51.2683 -0.0005 -0.0017 50.2895 -0.0017 151.3695V747.5595C-0.0017 848.6295 51.2683 898.9295 153.3183 898.9295ZM154.2983 820.3095C105.4683 820.3095 78.6183 794.4295 78.6183 743.6495V155.2695C78.6183 104.4895 105.4683 78.6095 154.2983 78.6095H744.6283C792.9683 78.6095 820.3083 104.4895 820.3083 155.2695V743.6495C820.3083 794.4295 792.9683 820.3095 744.6283 820.3095ZM270.9983 371.5795C270.9983 385.2495 281.2483 395.9995 294.9183 395.9995H324.7083V661.1295C324.7083 680.1795 338.8683 693.3595 356.9383 693.3595C375.4883 693.3595 388.6683 680.1795 388.6683 661.1295V523.4395H474.1183C555.6683 523.4395 614.7483 472.1695 624.0283 395.9995H646.4883C660.6483 395.9995 670.4083 385.2495 670.4083 371.5795C670.4083 357.4195 660.6483 347.6595 646.4883 347.6595H623.0483C611.8183 274.4095 554.1983 226.5595 474.1183 226.5595H355.9583C336.9183 226.5595 324.7083 239.2595 324.7083 258.7895V347.6595H294.9183C281.2483 347.6595 270.9983 357.4195 270.9983 371.5795ZM389.1583 347.6595V284.1795H463.3783C514.6483 284.1795 548.3383 307.1295 557.6183 347.6595ZM389.1583 465.8195V395.9995H559.0783C551.2683 439.9395 517.0883 465.8195 463.3783 465.8195Z"/>
</svg>