<?xml version="1.0" encoding="UTF-8" standalone="no"?>
<svg xmlns="http://www.w3.org/2000/svg"
     width="898.92578125" height="898.92578125"
     viewBox="0 0 898.92578125 898.92578125"
     fill="currentColor">
  <path d="M153.3183 898.9295H745.6083C848.1483 898.9295 898.9283 848.1495 898.9283 747.5595V151.3695C898.9283 50.7795 848.1483 -0.0005 745.6083 -0.0005H153.3183C51.2683 -0.0005 -0.0017 50.2895 -0.0017 151.3695V747.5595C-0.0017 848.6295 51.2683 898.9295 153.3183 898.9295ZM265.1383 369.1395C265.1383 354.4895 275.3883 344.7295 289.5483 344.7295H320.3083V252.9295C320.3083 232.9095 333.0083 219.7295 353.0283 219.7295H474.6083C557.6183 219.7295 616.6983 269.0395 628.4183 344.7295H652.8283C667.4783 344.7295 677.2483 354.4895 677.2483 369.1395C677.2483 383.2995 667.4783 394.5295 652.8283 394.5295H629.3983C620.1183 473.1395 559.0783 526.3695 474.6083 526.3695H386.7183V667.9695C386.7183 687.4995 373.0483 701.1695 354.0083 701.1695C334.9583 701.1695 320.3083 687.4995 320.3083 667.9695V394.5295H289.5483C275.3883 394.5295 265.1383 383.2995 265.1383 369.1395ZM387.2083 344.7295H560.5483C551.2683 302.7295 516.5983 279.2995 463.8683 279.2995H387.2083ZM387.2083 466.3095H463.8683C519.0383 466.3095 554.1983 439.9395 562.0083 394.5295H387.2083Z"/>
</svg>