<?xml version="1.0" encoding="UTF-8" standalone="no"?>
<svg xmlns="http://www.w3.org/2000/svg"
     width="996.09375" height="996.09375"
     viewBox="0 0 996.09375 996.09375"
     fill="currentColor">
  <path d="M498.0477 996.0959C770.5077 996.0959 996.0977 770.0159 996.0977 498.0459C996.0977 225.5859 770.0177 -0.0041 497.5577 -0.0041C225.5877 -0.0041 -0.0023 225.5859 -0.0023 498.0459C-0.0023 770.0159 226.0777 996.0959 498.0477 996.0959ZM498.0477 913.0859C267.5777 913.0859 83.4977 728.5159 83.4977 498.0459C83.4977 267.5759 267.0877 83.0059 497.5577 83.0059C728.0277 83.0059 913.0877 267.5759 913.0877 498.0459C913.0877 728.5159 728.5177 913.0859 498.0477 913.0859ZM318.8477 420.8959C318.8477 434.5659 329.0977 445.3159 342.7777 445.3159H372.5577V710.4459C372.5577 729.4959 386.7177 742.6759 404.7877 742.6759C423.3377 742.6759 436.5277 729.4959 436.5277 710.4459V572.7559H521.9777C603.5177 572.7559 662.5977 521.4859 671.8777 445.3159H694.3377C708.0077 445.3159 718.2577 434.5659 718.2577 420.8959C718.2577 406.7359 708.0077 396.9759 694.3377 396.9759H670.8977C659.1777 323.7259 602.0477 275.8759 521.9777 275.8759H403.8077C384.7677 275.8759 372.5577 288.5759 372.5577 308.1059V396.9759H342.7777C329.0977 396.9759 318.8477 406.7359 318.8477 420.8959ZM437.0077 396.9759V333.4959H511.2277C562.4977 333.4959 595.7077 356.4459 605.4677 396.9759ZM437.0077 515.1359V445.3159H606.9377C599.1177 489.2559 564.9377 515.1359 511.2277 515.1359Z"/>
</svg>