<?xml version="1.0" encoding="UTF-8" standalone="no"?>
<svg xmlns="http://www.w3.org/2000/svg"
     width="996.09375" height="996.09375"
     viewBox="0 0 996.09375 996.09375"
     fill="currentColor">
  <path d="M498.0477 996.0959C770.5077 996.0959 996.0977 770.0159 996.0977 498.0459C996.0977 225.5859 770.0177 -0.0041 497.5577 -0.0041C225.5877 -0.0041 -0.0023 225.5859 -0.0023 498.0459C-0.0023 770.0159 226.0777 996.0959 498.0477 996.0959ZM312.9877 469.7259C312.9877 454.5859 323.2377 444.3359 337.3977 444.3359H368.1677V412.5959H337.3977C323.2377 412.5959 312.9877 401.3659 312.9877 387.2059C312.9877 372.5559 323.2377 362.7959 337.3977 362.7959H368.1677V302.7359C368.1677 282.2259 380.8577 269.0459 400.8777 269.0459H522.4577C591.3077 269.0459 643.5577 305.6659 666.5077 362.7959H700.6877C714.8477 362.7959 725.0977 372.5559 725.0977 387.2059C725.0977 401.3659 714.8477 412.5959 700.6877 412.5959H677.7377C678.2277 418.9459 678.2277 423.3359 678.2277 428.7059C678.2277 433.5959 678.2277 439.4559 677.2477 444.3359H700.6877C714.8477 444.3359 725.0977 454.5859 725.0977 469.7259C725.0977 483.3959 714.8477 494.1359 700.6877 494.1359H666.9877C644.0477 552.2459 591.3077 589.3559 522.4577 589.3559H434.5677V717.7759C434.5677 736.8159 420.8977 750.4859 401.8577 750.4859C382.8077 750.4859 368.1677 736.8159 368.1677 717.7759V494.1359H337.3977C323.2377 494.1359 312.9877 483.3959 312.9877 469.7259ZM435.0577 362.7959H592.2877C575.6877 341.3059 548.3377 329.1059 512.2077 329.1059H435.0577ZM435.0577 444.3359H612.3077C613.2777 439.4559 613.2777 433.5959 613.2777 428.7059C613.2777 422.8559 613.2777 417.4759 612.3077 412.5959H435.0577ZM435.0577 528.8059H512.2077C548.3377 528.8059 575.6877 516.6059 592.7777 494.1359H435.0577Z"/>
</svg>