<?xml version="1.0" encoding="UTF-8" standalone="no"?>
<svg xmlns="http://www.w3.org/2000/svg"
     width="996.09375" height="996.09375"
     viewBox="0 0 996.09375 996.09375"
     fill="currentColor">
  <path d="M498.0477 996.0959C770.5077 996.0959 996.0977 770.0159 996.0977 498.0459C996.0977 225.5859 770.0177 -0.0041 497.5577 -0.0041C225.5877 -0.0041 -0.0023 225.5859 -0.0023 498.0459C-0.0023 770.0159 226.0777 996.0959 498.0477 996.0959ZM498.0477 913.0859C267.5777 913.0859 83.4977 728.5159 83.4977 498.0459C83.4977 267.5759 267.0877 83.0059 497.5577 83.0059C728.0277 83.0059 913.0877 267.5759 913.0877 498.0459C913.0877 728.5159 728.5177 913.0859 498.0477 913.0859ZM318.3577 470.2159C318.3577 483.3959 328.6177 494.1359 342.2877 494.1359H372.0677V710.9359C372.0677 729.4959 386.2277 742.6759 404.2977 742.6759C422.8477 742.6759 436.0377 729.4959 436.0377 710.9359V585.9359H521.4877C587.8877 585.9359 639.1577 550.2959 661.1377 494.1359H693.8477C707.5177 494.1359 717.7777 483.3959 717.7777 470.2159C717.7777 455.5659 707.5177 445.7959 693.8477 445.7959H671.3877C672.3677 440.9159 672.3677 435.5459 672.3677 430.6659C672.3677 425.2959 672.3677 420.8959 671.8777 415.0359H693.8477C707.5177 415.0359 717.7777 404.2959 717.7777 390.6259C717.7777 376.4659 707.5177 366.6959 693.8477 366.6959H660.6477C638.6677 311.5259 587.8877 275.8759 521.4877 275.8759H403.3177C384.2777 275.8759 372.0677 288.5759 372.0677 308.5959V366.6959H342.2877C328.6177 366.6959 318.3577 376.4659 318.3577 390.6259C318.3577 404.2959 328.6177 415.0359 342.2877 415.0359H372.0677V445.7959H342.2877C328.6177 445.7959 318.3577 455.5659 318.3577 470.2159ZM436.5277 366.6959V333.9859H511.2277C546.3877 333.9859 573.2377 345.7059 589.3577 366.6959ZM436.5277 445.7959V415.0359H608.3977C609.3777 419.9259 609.3777 424.8059 609.3777 430.6659C609.3777 435.5459 609.3777 440.9159 608.3977 445.7959ZM436.5277 527.8359V494.1359H589.8477C573.2377 515.6259 546.3877 527.8359 511.2277 527.8359Z"/>
</svg>