<?xml version="1.0" encoding="UTF-8" standalone="no"?>
<svg xmlns="http://www.w3.org/2000/svg"
     width="996.09375" height="996.09375"
     viewBox="0 0 996.09375 996.09375"
     fill="currentColor">
  <path d="M498.0477 996.0977C770.5077 996.0977 996.0977 770.5077 996.0977 498.0477C996.0977 226.0777 770.0177 -0.0023 497.5577 -0.0023C225.5877 -0.0023 -0.0023 226.0777 -0.0023 498.0477C-0.0023 770.5077 226.0777 996.0977 498.0477 996.0977ZM520.0177 505.8577C504.3977 505.8577 493.1677 495.6077 493.1677 480.9577C493.1677 472.6577 495.6077 466.7977 501.4677 460.9377L624.0277 338.3777L658.6877 306.1477L592.2877 309.5677H548.8277C534.1777 309.5677 522.9477 298.8277 522.4577 284.6677C521.4877 270.0177 533.6877 257.3277 548.8277 257.3277H713.8677C731.4477 257.3277 741.6977 267.5777 741.6977 285.6477V449.7077C741.6977 464.8477 729.4877 477.0477 714.3577 476.5577C700.1977 475.0977 689.9377 463.8677 689.9377 449.7077V407.7177L692.8677 340.3277L660.6477 375.9777L538.0877 499.0277C534.1777 503.9077 527.3477 505.8577 520.0177 505.8577ZM341.3077 655.2777C224.1177 537.5977 148.9277 388.1877 237.7977 299.8077C239.7477 297.8477 241.6977 295.8977 244.1377 293.9477C277.8277 269.0477 308.5977 263.1877 329.5877 292.9677L391.5977 380.3677C413.0877 410.1577 407.7177 428.2177 385.2577 451.6577L365.7277 473.1477C358.8877 479.4877 360.8377 488.7677 364.7477 494.1377C374.5077 510.7377 399.4177 541.9877 426.7577 569.8277C455.0777 597.6577 484.3777 621.5777 502.4377 631.8377C508.7877 636.2277 519.0477 636.7177 524.4177 630.8577L544.9177 610.8377C567.3877 588.8677 586.4277 583.4977 615.7277 604.4877C657.2277 632.8077 682.1277 650.3877 705.0777 667.4777C734.3777 689.4577 728.5177 723.6377 705.5677 749.5077C702.6377 752.9277 700.1977 755.8577 696.7777 759.2777C608.3977 847.6577 458.4977 772.9477 341.3077 655.2777Z"/>
</svg>