<?xml version="1.0" encoding="UTF-8" standalone="no"?>
<svg xmlns="http://www.w3.org/2000/svg"
     width="959.9609375" height="958.49609375"
     viewBox="0 0 959.9609375 958.49609375"
     fill="currentColor">
  <path d="M587.8936 408.6913C597.6536 408.6913 605.9536 405.2713 613.2836 397.9513L823.7336 187.0113L898.4336 105.9612L890.1336 249.0213V321.7813C890.1336 340.8213 904.7836 355.4713 923.8236 356.4413C943.3636 357.4213 959.9636 341.8013 959.9636 321.7813V39.0612C959.9636 13.1812 947.2636 0.0013 921.8736 0.0013H638.1836C617.6736 0.0013 602.0536 16.6013 603.0236 36.6213C604.0036 55.6613 618.6536 69.8212 638.1836 69.8212H711.9136L855.4736 62.0113L773.4336 136.7213L562.9836 347.6513C555.1736 355.4713 551.2736 364.2613 551.2736 374.5113C551.2736 393.5513 567.3836 408.6913 587.8936 408.6913ZM709.9636 958.4913C795.4136 958.4913 851.5636 935.5513 900.8836 879.8813C904.7836 875.9813 908.6936 871.5813 912.1136 867.6713C941.4036 834.9612 955.0736 802.7313 955.0736 771.9713C955.0736 736.8213 934.5736 704.1012 891.1136 673.8313L749.0236 575.1913C705.0736 544.9213 653.8136 541.5013 612.7936 582.0313L575.1936 619.6313C563.9636 630.8613 554.2036 631.3512 543.4536 624.5113C517.0936 607.9113 463.8636 561.5213 427.7336 525.3913C389.6436 487.7913 353.0236 445.8013 333.4936 415.0413C327.1436 403.8112 327.6336 394.5313 338.8636 383.3013L375.9736 345.7013C416.9936 304.6912 413.5736 252.9313 383.3036 209.4713L284.6636 67.3813C254.3936 23.9212 221.6836 3.9013 186.5236 3.4212C155.7636 2.9312 123.5336 17.0912 90.8236 46.3913C86.4236 50.2912 82.5236 53.7112 78.6136 57.1313C22.9536 106.9312 0.0036 163.0812 0.0036 247.5612C0.0036 387.2113 85.9336 557.1313 243.6536 714.8412C400.3936 871.5813 570.8036 958.4913 709.9636 958.4913ZM710.4536 883.3013C585.9336 885.7413 426.2736 790.0413 299.8036 664.0613C172.3636 537.1112 72.2636 372.0713 74.7036 247.5612C75.6836 193.8513 94.7236 147.4612 132.8136 114.2613C136.2336 111.3312 138.6736 108.8913 142.0936 106.4412C156.7336 93.7513 172.3636 86.9113 186.5236 86.9113C200.6836 86.9113 213.3836 92.2813 222.6536 106.9312L317.3836 249.0213C327.6336 264.1613 328.6136 281.2513 313.4736 296.3913L270.5036 339.3513C236.8136 373.0513 239.2536 414.0612 263.6736 446.7813C291.5036 484.3713 339.8436 539.0613 377.4436 576.1713C414.5536 613.7713 473.6336 666.5013 511.7236 694.8213C544.4336 719.2413 585.4536 721.6813 619.1436 687.9913L662.1136 645.0213C677.2436 629.8813 693.8436 630.8613 709.4736 640.6213L851.5636 735.3512C866.2136 745.1213 871.5836 757.3213 871.5836 771.9713C871.5836 786.1313 864.7436 801.7613 852.0536 816.4013C849.1236 819.8213 847.1636 822.2613 844.2336 825.6813C811.0336 863.7713 764.6436 882.3213 710.4536 883.3013Z"/>
</svg>