<?xml version="1.0" encoding="UTF-8" standalone="no"?>
<svg xmlns="http://www.w3.org/2000/svg"
     width="1076.171875" height="1010.25390625"
     viewBox="0 0 1076.171875 1010.25390625"
     fill="currentColor">
  <path d="M300.2883 1010.2519C324.2183 1010.2519 340.8183 997.5619 370.6083 971.1919L539.0583 821.2919H852.5383C998.0483 821.2919 1076.1683 740.7219 1076.1683 597.6519V223.6319C1076.1683 80.5619 998.0483 0.0019 852.5383 0.0019H223.6283C78.1283 0.0019 -0.0017 80.0819 -0.0017 223.6319V597.6519C-0.0017 741.2119 78.1283 821.2919 223.6283 821.2919H247.0683V948.2419C247.0683 985.8419 266.1183 1010.2519 300.2883 1010.2519ZM320.3083 920.9019V779.2919C320.3083 752.9319 310.0583 742.6719 283.6883 742.6719H223.6283C124.9983 742.6719 78.6183 692.3819 78.6183 597.1719V223.6319C78.6183 128.4219 124.9983 78.6119 223.6283 78.6119H852.5383C950.6883 78.6119 997.5583 128.4219 997.5583 223.6319V597.1719C997.5583 692.3819 950.6883 742.6719 852.5383 742.6719H536.1283C508.7883 742.6719 495.1183 746.5819 476.5583 765.6219ZM419.4383 524.9019C533.6883 639.1619 678.7083 711.4219 764.6483 625.9719C767.5783 622.5619 770.0183 619.6319 772.9483 616.2119C794.9183 591.3119 801.2683 558.5919 772.4583 536.6219C749.9983 520.5119 726.5583 503.9019 686.0383 476.0719C657.2283 455.5619 638.6683 460.4519 616.6983 482.4219L597.6583 501.4619C591.7983 507.3219 582.0283 506.3519 575.6883 502.4419C558.5983 492.1919 529.7883 469.2419 502.4383 441.8919C475.5883 415.0419 451.6583 384.7619 442.3783 368.6519C438.9683 363.2819 436.5283 354.4919 442.8683 348.1419L462.3983 327.6319C484.3783 304.6919 488.7683 287.1119 468.2583 258.3019L408.1983 173.3419C388.1883 144.5319 358.3983 150.3919 325.1983 174.3119C322.7583 176.2719 320.7983 178.2219 318.8483 180.1719C232.9083 266.1119 305.6683 411.1319 419.4383 524.9019Z"/>
</svg>