<?xml version="1.0" encoding="UTF-8" standalone="no"?>
<svg xmlns="http://www.w3.org/2000/svg"
     width="929.19921875" height="925.29296875"
     viewBox="0 0 929.19921875 925.29296875"
     fill="currentColor">
  <path d="M556.6453 408.2006C566.4053 408.2006 574.7053 405.2706 582.0353 397.9506L792.4853 187.0106L867.1853 105.9606L859.3753 249.0206V321.7806C859.3753 340.8206 873.5353 355.4706 892.5753 356.4406C912.1053 357.4206 929.1953 341.8006 929.1953 321.7806V39.0606C929.1953 13.1806 916.5053 0.0006 890.6253 0.0006H606.9353C586.9153 0.0006 570.8053 16.6006 571.7753 36.6206C572.7553 55.6606 587.8953 69.8206 606.9353 69.8206H680.6653L824.2153 62.0106L742.1853 136.7206L532.2253 347.6606C523.9253 355.4706 520.0153 364.2606 520.0153 374.5106C520.0153 393.5506 536.1353 408.2006 556.6453 408.2006ZM248.0453 675.2906C389.1553 816.4106 560.5453 925.2906 700.6853 925.2906C763.6753 925.2906 818.8453 903.3206 863.2853 854.4906C889.1553 825.6806 905.2753 791.9906 905.2753 758.7906C905.2753 734.3706 895.9953 710.9406 873.0453 694.3406L723.1453 587.8906C700.1953 572.2606 681.1553 564.4506 663.5753 564.4506C641.6053 564.4506 621.5853 577.1506 599.1253 599.1206L564.4553 633.3006C559.0853 638.6706 552.2453 641.1106 545.8953 641.1106C538.5753 641.1106 531.2453 638.1806 526.3653 635.7406C496.0953 619.6306 444.3353 575.1906 395.9953 527.3406C348.1453 479.4906 303.7153 427.7306 288.0853 397.4606C285.6453 392.0906 282.7153 385.2506 282.7153 377.9306C282.7153 371.5806 284.6653 365.2306 290.0353 359.8606L324.7053 324.2206C346.1953 301.7606 359.3753 282.2306 359.3753 259.7606C359.3753 242.1906 351.0753 223.1406 334.9653 200.1906L229.9853 52.2506C212.8953 28.8106 188.9653 18.5506 162.5953 18.5506C130.3753 18.5506 97.1653 33.2006 68.3553 61.0306C20.9953 106.4406 -0.0047 162.6006 -0.0047 224.6106C-0.0047 364.7506 106.9353 534.6706 248.0453 675.2906Z"/>
</svg>