<?xml version="1.0" encoding="UTF-8" standalone="no"?>
<svg xmlns="http://www.w3.org/2000/svg"
     width="1005.9814453125" height="1003.5400390625"
     viewBox="0 0 1005.9814453125 1003.5400390625"
     fill="currentColor">
  <path d="M772.4653 11.3477C757.3253 26.4877 757.3253 51.3877 772.4653 67.0177L938.9653 233.5177C954.1053 249.1477 979.4953 249.1477 994.6253 233.5177C1009.7653 218.3877 1009.7653 193.4777 994.6253 178.3477L828.1253 11.3477C812.4953 -3.7823 787.1053 -3.7823 772.4653 11.3477ZM247.5553 753.5377C388.6753 894.6577 560.5453 1003.5377 700.6853 1003.5377C763.6753 1003.5377 818.8453 981.5677 863.2853 932.7377C889.1553 903.9277 905.2753 870.2377 905.2753 837.0377C905.2753 812.6177 895.9953 789.1877 872.5553 772.5877L723.1453 666.1377C700.1953 650.5077 681.1553 642.6977 663.5753 642.6977C641.1153 642.6977 621.5853 655.3977 599.1253 677.3677L564.4553 711.5477C559.0853 716.9177 552.2453 719.3577 545.8953 719.3577C538.0853 719.3577 531.2453 716.4277 525.8753 713.9877C496.0953 697.8777 444.3353 653.4377 395.9953 605.5877C348.1453 557.7377 303.7153 505.9777 288.0853 475.7077C285.1553 470.3377 282.7153 463.4977 282.7153 456.1777C282.7153 449.8277 284.6653 443.4777 290.0353 438.1077L324.2153 402.4677C346.1953 380.0077 358.8853 360.4777 358.8853 338.0077C358.8853 320.4377 351.0753 301.3877 334.9653 278.4377L229.9853 130.4977C212.8953 107.0577 188.9653 96.7977 162.5953 96.7977C130.3753 96.7977 96.6753 111.4477 68.3553 139.2777C20.9953 184.6877 -0.0047 240.8477 -0.0047 302.8577C-0.0047 442.9977 106.9353 612.9177 247.5553 753.5377ZM724.1253 282.3477C750.4853 307.2477 792.4853 307.7377 818.3553 281.3677C844.2353 255.4977 844.2353 213.4977 818.3553 187.6177C792.4853 161.2577 749.9953 161.2577 724.1253 187.1377C697.7553 213.4977 697.7553 255.0077 724.1253 282.3477ZM548.3353 234.9877C532.7153 250.1177 532.7153 275.5077 548.3353 290.6477L714.8453 457.6377C729.9853 472.7777 755.3753 472.7777 770.5053 457.6377C785.6453 442.5077 785.6453 417.1177 770.5053 401.9777L603.5153 234.9877C588.3753 219.8477 563.4753 219.8477 548.3353 234.9877ZM499.9953 505.4977C526.3653 531.8577 568.3553 531.8577 594.7253 505.4977C621.0953 479.1277 621.0953 437.1377 594.7253 411.7477C568.3553 384.8877 526.3653 384.8877 499.9953 410.7677C474.1253 437.1377 474.1253 479.1277 499.9953 505.4977Z"/>
</svg>