<?xml version="1.0" encoding="UTF-8" standalone="no"?>
<svg xmlns="http://www.w3.org/2000/svg"
     width="1030.2734375" height="967.28515625"
     viewBox="0 0 1030.2734375 967.28515625"
     fill="currentColor">
  <path d="M773.9253 461.4228C789.5553 461.4228 801.2653 449.2228 801.2653 434.0828V28.3228C801.2653 12.2028 789.5553 0.0028 773.9253 0.0028C758.3053 0.0028 746.5853 12.2028 746.5853 28.3228V434.0828C746.5853 449.7028 757.8153 461.4228 773.9253 461.4228ZM887.6953 412.5928C903.8053 412.5928 916.0153 400.8828 916.0153 385.2528V75.6828C916.0153 60.5428 903.8053 48.8328 887.6953 48.8328C873.0453 48.8328 860.8353 60.5428 860.8353 75.6828V385.2528C860.8353 400.8828 873.0453 412.5928 887.6953 412.5928ZM247.5553 717.2828C388.6753 858.4028 560.5453 967.2828 700.6853 967.2828C763.6753 967.2828 818.8453 945.3128 863.2853 896.4828C889.1553 867.6728 905.2753 833.9828 905.2753 800.7828C905.2753 776.3628 895.9953 752.9328 872.5553 736.3328L723.1453 629.8828C700.1953 614.2528 681.1553 606.4428 663.5753 606.4428C641.1153 606.4428 621.5853 619.1428 599.1253 641.1128L564.4553 675.2928C559.0853 680.6628 552.2453 683.1028 545.8953 683.1028C538.0853 683.1028 531.2453 680.1728 525.8753 677.7328C496.0953 661.6228 444.3353 617.1828 395.9953 569.3328C348.1453 521.4828 303.7153 469.7228 288.0853 439.4528C285.1553 434.0828 282.7153 427.2428 282.7153 419.9228C282.7153 413.5728 284.6653 407.2228 290.0353 401.8528L324.2153 366.2128C346.1953 343.7528 358.8853 324.2228 358.8853 301.7528C358.8853 284.1828 351.0753 265.1328 334.9653 242.1828L229.9853 94.2428C212.8953 70.8028 188.9653 60.5428 162.5953 60.5428C130.3753 60.5428 96.6753 75.1928 68.3553 103.0228C20.9953 148.4328 -0.0047 204.5928 -0.0047 266.6028C-0.0047 406.7428 106.9353 576.6628 247.5553 717.2828ZM659.1753 376.9528C674.8053 376.9528 687.0153 364.7428 687.0153 349.1228V111.8128C687.0153 96.6828 674.8053 84.4728 659.1753 84.4728C644.0453 84.4728 631.8353 96.6828 631.8353 111.8128V349.1228C631.8353 364.7428 644.0453 376.9528 659.1753 376.9528ZM1002.9253 320.8028C1019.0453 320.8028 1030.2753 309.0828 1030.2753 292.9728V167.9728C1030.2753 152.3428 1019.0453 140.1328 1002.9253 140.1328C987.3053 140.1328 975.5853 152.8328 975.5853 167.9728V292.9728C975.5853 308.5928 987.3053 320.8028 1002.9253 320.8028ZM544.4353 294.9228C560.5453 294.9228 572.2653 282.7128 572.2653 268.0628V193.3628C572.2653 178.2228 560.5453 166.0128 544.4353 166.0128C529.2953 166.0128 517.5753 178.2228 517.5753 193.3628V268.0628C517.5753 282.7128 529.2953 294.9228 544.4353 294.9228Z"/>
</svg>