<?xml version="1.0" encoding="UTF-8" standalone="no"?>
<svg xmlns="http://www.w3.org/2000/svg"
     width="996.09375" height="996.09375"
     viewBox="0 0 996.09375 996.09375"
     fill="currentColor">
  <path d="M498.0477 996.0977C770.5077 996.0977 996.0977 770.5077 996.0977 498.0477C996.0977 226.0777 770.0177 -0.0023 497.5577 -0.0023C225.5877 -0.0023 -0.0023 226.0777 -0.0023 498.0477C-0.0023 770.5077 226.0777 996.0977 498.0477 996.0977ZM375.9777 615.7177C258.2977 498.5377 183.5977 349.1177 271.9777 260.2577C273.9277 258.2977 275.8777 256.3477 278.8077 254.3977C312.4977 229.4877 343.7477 223.6377 364.2577 253.4177L426.2677 340.8177C447.2677 370.6077 442.8677 388.6677 419.4377 412.5977L399.8977 433.5977C393.5577 440.4277 395.9977 449.2177 398.9277 455.0777C409.1777 472.1677 433.5977 502.4377 461.4277 530.2777C489.7477 558.5977 519.0477 582.0277 536.6177 592.7777C543.4577 596.6777 553.7077 597.6577 559.0777 591.7977L579.0977 572.2677C601.5577 549.8077 621.0977 544.9177 650.8777 565.4277C691.4077 594.2377 716.3077 611.3277 739.7477 628.4177C769.0477 650.3877 762.6977 684.5677 740.2377 709.9577C737.3077 713.3777 734.8677 716.7977 731.4477 720.2177C643.0677 808.5977 493.1677 733.8877 375.9777 615.7177Z"/>
</svg>