<?xml version="1.0" encoding="UTF-8" standalone="no"?>
<svg xmlns="http://www.w3.org/2000/svg"
     width="905.2734375" height="906.73828125"
     viewBox="0 0 905.2734375 906.73828125"
     fill="currentColor">
  <path d="M248.0453 656.7359C389.1553 797.8559 560.5453 906.7359 700.6853 906.7359C763.6753 906.7359 818.8453 884.7659 863.2853 835.9359C889.1553 807.1259 905.2753 773.4359 905.2753 740.2359C905.2753 715.8159 895.9953 692.3859 873.0453 675.7859L723.1453 569.3359C700.1953 553.7059 681.1553 545.8959 663.5753 545.8959C641.6053 545.8959 621.5853 558.5959 599.1253 580.5659L564.4553 614.7459C559.0853 620.1159 552.2453 622.5559 545.8953 622.5559C538.5753 622.5559 531.2453 619.6259 526.3653 617.1859C496.0953 601.0759 444.3353 556.6359 395.9953 508.7859C348.1453 460.9359 303.7153 409.1759 288.0853 378.9059C285.6453 373.5359 282.7153 366.6959 282.7153 359.3759C282.7153 353.0259 284.6653 346.6759 290.0353 341.3059L324.7053 305.6659C346.1953 283.2059 359.3753 263.6759 359.3753 241.2059C359.3753 223.6359 351.0753 204.5859 334.9653 181.6359L229.9853 33.6959C212.8953 10.2559 188.9653 -0.0041 162.5953 -0.0041C130.3753 -0.0041 97.1653 14.6459 68.3553 42.4759C20.9953 87.8859 -0.0047 144.0459 -0.0047 206.0559C-0.0047 346.1959 106.9353 516.1159 248.0453 656.7359Z"/>
</svg>