<?xml version="1.0" encoding="UTF-8" standalone="no"?>
<svg xmlns="http://www.w3.org/2000/svg"
     width="1181.640625" height="485.3515625"
     viewBox="0 0 1181.640625 485.3515625"
     fill="currentColor">
  <path d="M-0.0023 379.8803C-0.0023 437.5003 34.6677 485.3503 95.7077 485.3503C107.4177 485.3503 125.4877 484.3703 150.8777 479.9803L323.7277 454.1003C395.0177 443.8503 414.5477 414.5503 414.5477 353.5203C414.5477 334.9603 414.5477 317.3803 415.0377 298.8303C415.0377 283.6903 421.8777 277.3403 433.1077 274.4103C504.8877 258.3003 676.7577 258.3003 748.5377 274.4103C759.7677 277.3403 766.5977 283.6903 766.5977 298.8303C767.0877 317.3803 767.0877 334.9603 767.0877 353.5203C767.0877 414.5503 786.6177 443.8503 857.9077 454.1003L1030.7577 479.9803C1056.1477 484.3703 1074.2177 485.3503 1085.9377 485.3503C1146.9777 485.3503 1181.6377 437.5003 1181.6377 379.8803V339.8403C1181.6377 112.7903 927.7377 0.0003 590.8177 0.0003C254.3977 0.0003 -0.0023 112.7903 -0.0023 339.8403ZM79.0977 368.1603V343.7503C79.0977 147.4603 331.5477 73.7303 590.8177 73.7303C850.0977 73.7303 1102.5377 147.4603 1102.5377 343.7503V368.1603C1102.5377 392.0903 1091.3077 413.0903 1066.4077 413.0903C1059.5677 413.0903 1052.2477 412.1103 1038.5777 409.6703L874.5077 378.9103C858.3977 375.4903 846.1877 367.1903 846.1877 343.2603V282.2303C846.1877 233.8903 828.6177 214.3603 803.2277 207.0303C724.6077 184.5703 457.0277 184.5703 378.4177 207.0303C353.0277 214.3603 335.4477 233.8903 335.4477 282.2303V343.2603C335.4477 367.1903 323.2377 375.4903 307.1277 378.9103L143.0677 409.6703C129.3977 412.1103 122.5577 413.0903 115.2377 413.0903C90.3277 413.0903 79.0977 392.0903 79.0977 368.1603Z"/>
</svg>