<?xml version="1.0" encoding="UTF-8" standalone="no"?>
<svg xmlns="http://www.w3.org/2000/svg"
     width="1934.5703125" height="694.6762149664099"
     viewBox="0 0 1934.5703125 694.6762149664099"
     fill="currentColor">
  <path d="M1934.5677 347.4318C1934.5677 220.9718 1889.1577 103.7818 1808.1077 15.8918C1789.0577 -4.6182 1761.7177 -5.1082 1746.0977 13.4518C1730.4677 31.0218 1735.3477 53.9718 1752.9277 73.9918C1818.3577 146.7518 1854.9777 242.4518 1854.9777 347.4318C1854.9777 452.4118 1818.3577 548.1118 1752.9277 620.8718C1735.3477 640.8918 1730.4677 663.8418 1746.0977 681.4218C1761.7177 699.4818 1789.0577 699.4818 1808.1077 678.9718C1889.1577 590.5918 1934.5677 473.9018 1934.5677 347.4318ZM-0.0023 347.4318C-0.0023 473.9018 45.8977 590.5918 126.9577 678.9718C145.5077 699.4818 172.8477 699.4818 188.4777 681.4218C204.0977 663.8418 199.2177 640.8918 181.6377 620.8718C116.2077 548.1118 79.5877 452.4118 79.5877 347.4318C79.5877 242.4518 116.2077 146.7518 181.6377 73.9918C199.2177 53.9718 204.0977 31.0218 188.4777 13.4518C172.8477 -5.1082 145.5077 -4.6182 126.9577 15.8918C45.8977 103.7818 -0.0023 220.9718 -0.0023 347.4318ZM393.5577 383.0818C395.5077 422.1418 407.7177 457.2918 430.6677 480.7318C448.2377 497.8218 471.6777 508.0818 499.5077 503.1918L680.6677 472.4318C708.0077 468.0418 727.0477 459.7418 739.2577 447.5318C755.3677 431.9018 760.2577 408.4718 760.2577 377.2218L760.7377 328.3918C760.7377 320.5818 764.1577 314.7218 768.5577 309.8318C773.4377 303.9718 780.7577 301.5318 786.1377 300.0718C819.3377 292.2618 887.2077 284.4418 967.2877 284.4418C1047.8477 284.4418 1115.2377 292.2618 1148.4377 300.0718C1153.8077 301.5318 1161.1377 303.9718 1166.0177 309.8318C1170.8977 314.7218 1174.3177 320.5818 1174.3177 328.3918V377.2218C1174.3177 408.4718 1179.1977 431.9018 1195.3077 447.5318C1207.5177 459.7418 1226.5577 468.0418 1253.9077 472.4318L1435.0577 503.1918C1462.8877 508.0818 1486.8177 497.8218 1503.9077 480.7318C1526.8577 457.2918 1539.0577 422.1418 1541.0177 383.0818C1543.9477 317.1618 1521.4877 262.9618 1476.5577 218.5218C1377.4377 119.4018 1178.7077 74.9718 967.2877 74.4818C755.8577 74.9718 557.1277 119.4018 458.0077 218.5218C413.5777 262.9618 390.6277 317.1618 393.5577 383.0818ZM195.7977 347.4318C195.7977 419.2118 220.2177 486.1018 262.6977 538.8418C279.7877 560.8118 309.0777 560.3218 325.1977 542.2618C340.8177 524.6818 334.4777 502.7018 318.8477 481.7118C289.5477 445.0918 275.3877 398.2118 275.3877 347.4318C275.3877 296.1618 290.0377 248.8018 318.8477 213.1518C334.4777 192.1618 340.8177 170.1818 325.1977 152.6118C309.0777 134.0518 279.7877 134.0518 262.6977 156.0218C220.2177 208.7618 195.7977 275.6518 195.7977 347.4318ZM1739.2577 347.4318C1739.2577 275.6518 1714.3577 208.7618 1671.8777 156.0218C1654.7877 134.0518 1625.4877 134.0518 1609.3777 152.6118C1593.7477 170.1818 1600.0977 192.1618 1615.7277 213.1518C1645.0177 249.2918 1659.6677 296.6518 1659.6677 347.4318C1659.6677 398.2118 1645.0177 445.0918 1615.7277 481.7118C1600.0977 502.7018 1593.7477 524.6818 1609.3777 542.2618C1625.4877 560.3218 1654.7877 560.8118 1671.8777 538.8418C1714.3577 486.1018 1739.2577 419.2118 1739.2577 347.4318Z"/>
</svg>