<?xml version="1.0" encoding="UTF-8" standalone="no"?>
<svg xmlns="http://www.w3.org/2000/svg"
     width="996.09375" height="996.09375"
     viewBox="0 0 996.09375 996.09375"
     fill="currentColor">
  <path d="M498.0477 996.0959C770.5077 996.0959 996.0977 770.0159 996.0977 498.0459C996.0977 225.5859 770.0177 -0.0041 497.5577 -0.0041C225.5877 -0.0041 -0.0023 225.5859 -0.0023 498.0459C-0.0023 770.0159 226.0777 996.0959 498.0477 996.0959ZM287.5977 722.1659C237.7977 722.1659 211.9177 696.7759 211.9177 646.9759V351.0759C211.9177 301.2659 237.7977 276.3659 287.5977 276.3659H707.5177C757.8077 276.3659 783.2077 301.2659 783.2077 351.0759V646.9759C783.2077 696.2859 757.8077 722.1659 707.5177 722.1659ZM393.5577 505.3759C426.2677 505.3759 453.1277 478.5159 453.1277 445.3159C453.1277 412.5959 426.2677 385.7459 393.5577 385.7459C360.3477 385.7459 333.4977 412.5959 333.4977 445.3159C333.4977 478.5159 360.3477 505.3759 393.5577 505.3759ZM289.5477 676.2659H705.5677C725.5877 676.2659 737.3077 664.0659 737.3077 644.5359V600.5859L632.8077 505.3759C621.5777 495.1159 607.4177 489.2559 594.2377 489.7459C580.0777 489.2559 566.8977 495.1159 555.1777 505.3759L439.9377 607.9059L393.0677 565.9159C382.3277 556.6359 370.1177 551.7559 358.3977 551.7559C347.6577 551.7559 335.9377 556.6359 325.1977 565.4259L257.8077 622.5559V644.5359C257.8077 664.0659 269.5277 676.2659 289.5477 676.2659Z"/>
</svg>