<?xml version="1.0" encoding="UTF-8" standalone="no"?>
<svg xmlns="http://www.w3.org/2000/svg"
     width="996.09375" height="996.09375"
     viewBox="0 0 996.09375 996.09375"
     fill="currentColor">
  <path d="M498.0477 996.0959C770.5077 996.0959 996.0977 770.0159 996.0977 498.0459C996.0977 225.5859 770.0177 -0.0041 497.5577 -0.0041C225.5877 -0.0041 -0.0023 225.5859 -0.0023 498.0459C-0.0023 770.0159 226.0777 996.0959 498.0477 996.0959ZM498.0477 913.0859C267.5777 913.0859 83.4977 728.5159 83.4977 498.0459C83.4977 267.5759 267.0877 83.0059 497.5577 83.0059C728.0277 83.0059 913.0877 267.5759 913.0877 498.0459C913.0877 728.5159 728.5177 913.0859 498.0477 913.0859ZM293.9477 715.3359H701.1677C749.9977 715.3359 774.4177 690.4259 774.4177 642.5759V355.4659C774.4177 307.1259 749.9977 283.2059 701.1677 283.2059H293.9477C245.6077 283.2059 220.7077 307.1259 220.7077 355.4659V642.5759C220.7077 690.9159 245.6077 715.3359 293.9477 715.3359ZM396.9777 504.8859C364.7477 504.8859 338.3777 479.0059 338.3777 446.7759C338.3777 415.5259 364.7477 389.1559 396.9777 389.1559C428.2277 389.1559 454.0977 415.5259 454.0977 446.7759C454.0977 479.0059 428.2277 504.8859 396.9777 504.8859ZM295.8977 670.8959C276.3677 670.8959 265.1377 659.1759 265.1377 640.1359V618.6559L330.5677 563.4759C340.8177 554.6859 352.0477 549.8059 362.7977 549.8059C374.0277 549.8059 385.7377 554.6859 396.4877 563.9659L441.4077 604.4959L553.7077 504.8859C564.9377 495.1159 577.6377 489.7459 591.3077 489.7459C604.0077 489.7459 617.6777 495.1159 628.4177 505.3759L729.9777 597.6559V640.1359C729.9777 659.1759 718.7477 670.8959 699.2177 670.8959Z"/>
</svg>