<?xml version="1.0" encoding="UTF-8" standalone="no"?>
<svg xmlns="http://www.w3.org/2000/svg"
     width="1151.3671875" height="898.92578125"
     viewBox="0 0 1151.3671875 898.92578125"
     fill="currentColor">
  <path d="M153.3183 898.9278H998.0483C1100.5883 898.9278 1151.3683 848.6378 1151.3683 748.0478V151.3678C1151.3683 50.7778 1100.5883 -0.0022 998.0483 -0.0022H153.3183C51.2683 -0.0022 -0.0017 50.7778 -0.0017 151.3678V748.0478C-0.0017 848.6378 51.2683 898.9278 153.3183 898.9278ZM366.2083 461.9178C299.8083 461.9178 245.6083 407.7178 245.6083 341.3078C245.6083 275.3878 299.8083 220.7078 366.2083 220.7078C432.1283 220.7078 486.3283 275.3878 486.3283 341.3078C486.3283 407.7178 432.1283 461.9178 366.2083 461.9178ZM154.2983 820.7978C106.9383 820.7978 78.6183 792.4778 78.6183 744.6278V714.8478L228.5183 583.9878C249.9983 564.9378 273.4383 555.1778 294.9183 555.1778C318.8483 555.1778 343.7483 564.9378 365.2383 584.9578L458.4983 668.9478L691.8983 461.9178C715.8183 440.4278 742.6783 430.6678 770.5083 430.6678C797.3683 430.6678 825.1983 440.9178 848.1483 462.3978L1072.7583 670.4078V745.6078C1072.7583 792.4778 1043.9483 820.7978 997.5583 820.7978Z"/>
</svg>