<?xml version="1.0" encoding="UTF-8" standalone="no"?>
<svg xmlns="http://www.w3.org/2000/svg"
     width="1220.703125" height="975.5859375"
     viewBox="0 0 1220.703125 975.5859375"
     fill="currentColor">
  <path d="M125.4883 810.0622H1095.2183C1177.7383 810.0622 1220.6983 767.5822 1220.6983 684.5722V125.0022C1220.6983 42.4822 1177.7383 0.0022 1095.2183 0.0022H125.4883C42.9683 0.0022 -0.0017 42.4822 -0.0017 125.0022V684.5722C-0.0017 767.5822 42.9683 810.0622 125.4883 810.0622ZM78.6183 126.4622C78.6183 94.2422 94.7283 78.6122 126.9483 78.6122H1093.7483C1125.9783 78.6122 1142.0883 94.2422 1142.0883 126.4622V640.6222L874.0283 389.1622C852.5383 369.1422 827.1483 359.3722 800.2883 359.3722C773.9283 359.3722 749.5083 368.6522 727.0483 388.6722L486.8183 603.0322L376.9483 503.9022C356.9383 485.3522 334.4683 476.0722 311.5283 476.0722C289.0583 476.0722 268.0683 485.3522 248.5383 503.4222L78.6183 656.7422ZM397.9483 395.0222C460.4483 395.0222 512.2083 343.2622 512.2083 278.8122C512.2083 216.3122 460.4483 164.0622 397.9483 164.0622C334.4683 164.0622 282.2283 216.3122 282.2283 278.8122C282.2283 343.2622 334.4683 395.0222 397.9483 395.0222ZM364.7483 975.5822H855.9583C877.4383 975.5822 895.5083 958.0122 895.5083 936.0322C895.5083 914.0622 877.4383 896.4822 855.9583 896.4822H364.7483C343.2583 896.4822 325.1983 914.0622 325.1983 936.0322C325.1983 958.0122 343.2583 975.5822 364.7483 975.5822Z"/>
</svg>