<?xml version="1.0" encoding="UTF-8" standalone="no"?>
<svg xmlns="http://www.w3.org/2000/svg"
     width="1151.3671875" height="898.92578125"
     viewBox="0 0 1151.3671875 898.92578125"
     fill="currentColor">
  <path d="M39.0583 -0.0022C15.6283 -0.0022 -0.0017 15.6278 -0.0017 39.0578V860.3478C-0.0017 883.7878 15.6283 898.9278 39.0583 898.9278H1112.7883C1136.2283 898.9278 1151.3683 883.7878 1151.3683 860.3478V39.0578C1151.3683 15.6278 1136.2283 -0.0022 1112.7883 -0.0022ZM92.7783 78.6178H1058.5983C1069.3383 78.6178 1072.7583 82.5178 1072.7583 92.7778V806.1478C1072.7583 816.8978 1069.3383 820.3078 1058.5983 820.3078H92.7783C82.5183 820.3078 78.6183 816.8978 78.6183 806.1478V92.7778C78.6183 82.5178 82.5183 78.6178 92.7783 78.6178ZM160.1583 131.3478C141.5983 131.3478 131.3483 141.5978 131.3483 159.6678V739.7478C131.3483 757.3278 141.5983 768.0678 160.1583 768.0678H991.6983C1009.7683 768.0678 1020.5083 757.3278 1020.5083 739.7478V159.6678C1020.5083 141.5978 1009.7683 131.3478 991.6983 131.3478ZM191.4083 180.6678H959.9583C967.2883 180.6678 971.1883 184.5678 971.1883 191.8978V641.5978L757.8083 442.3778C740.7183 426.2678 721.1883 418.9478 700.6883 418.9478C679.1983 418.9478 660.1583 425.2978 643.0683 441.4078L470.6983 595.7078L400.3883 531.7378C384.7683 517.0878 366.6983 510.2578 348.6283 510.2578C332.0283 510.2578 315.9183 517.0878 299.8083 531.2478L180.6683 639.1578V191.8978C180.6683 184.5678 184.0783 180.6678 191.4083 180.6678ZM408.6883 445.7978C458.0083 445.7978 498.5383 405.2778 498.5383 355.9578C498.5383 306.6378 458.0083 266.1178 408.6883 266.1178C359.3783 266.1178 318.8483 306.6378 318.8483 355.9578C318.8483 405.2778 359.3783 445.7978 408.6883 445.7978Z"/>
</svg>