<?xml version="1.0" encoding="UTF-8" standalone="no"?>
<svg xmlns="http://www.w3.org/2000/svg"
     width="965.2271515871597" height="964.9912444371427"
     viewBox="0 0 965.2271515871597 964.9912444371427"
     fill="currentColor">
  <path d="M76.3385 888.6536C179.8485 991.6836 324.8685 992.6636 439.6185 877.9136L878.5785 438.9536C992.8385 324.6936 991.8585 179.6736 888.8385 76.1536C785.3185 -26.8664 640.2985 -27.3564 526.0385 86.8936L87.0785 525.3736C-27.6715 640.1236 -26.6915 785.1436 76.3385 888.6536ZM581.2185 143.0536C660.3185 63.4636 763.3485 54.6736 837.5685 127.9136C911.2985 200.6636 902.9985 303.6936 821.9385 384.2636L629.5585 576.6436L388.3485 335.9236ZM128.0885 837.3836C54.3585 764.1436 63.6385 661.6036 143.2285 581.0436L336.5885 387.6836L577.7985 628.8936L384.4385 822.2536C305.3385 901.3536 201.8185 910.6336 128.0885 837.3836Z"/>
</svg>