<?xml version="1.0" encoding="UTF-8" standalone="no"?>
<svg xmlns="http://www.w3.org/2000/svg"
     width="996.09375" height="996.09375"
     viewBox="0 0 996.09375 996.09375"
     fill="currentColor">
  <path d="M498.0477 996.0977C770.5077 996.0977 996.0977 770.5077 996.0977 498.0477C996.0977 226.0777 770.0177 -0.0023 497.5577 -0.0023C225.5877 -0.0023 -0.0023 226.0777 -0.0023 498.0477C-0.0023 770.5077 226.0777 996.0977 498.0477 996.0977ZM491.2077 501.4677L335.9377 346.1877L416.9877 264.1577C465.8177 215.3277 528.8077 214.3577 576.1677 261.7177C623.5377 307.6177 623.0477 371.5777 573.7277 419.9177ZM462.3977 531.2477L379.8877 613.2777C331.0577 661.6177 268.5577 663.0877 221.1877 616.6977C174.8077 569.8277 176.2677 506.8377 225.0977 458.0077L306.6377 374.9977ZM791.9877 596.6777H519.5277C529.2977 531.2477 586.4277 479.4877 655.2777 479.4877C725.0977 479.4877 782.7177 531.2477 791.9877 596.6777ZM791.9877 637.6977C782.7177 703.1277 725.5877 754.8877 655.2777 754.8877C585.9377 754.8877 529.2977 703.1277 519.5277 637.6977Z"/>
</svg>