<?xml version="1.0" encoding="UTF-8" standalone="no"?>
<svg xmlns="http://www.w3.org/2000/svg"
     width="996.09375" height="996.09375"
     viewBox="0 0 996.09375 996.09375"
     fill="currentColor">
  <path d="M498.0477 996.0977C770.5077 996.0977 996.0977 770.5077 996.0977 498.0477C996.0977 226.0777 770.0177 -0.0023 497.5577 -0.0023C225.5877 -0.0023 -0.0023 226.0777 -0.0023 498.0477C-0.0023 770.5077 226.0777 996.0977 498.0477 996.0977ZM714.3577 281.7377C772.9477 337.8877 771.9777 415.0377 711.4277 475.0977L607.4177 579.0977L416.9877 388.1877L520.5077 284.6677C579.5877 224.1177 656.2477 224.6077 714.3577 281.7377ZM280.7577 715.3277C223.6377 658.6877 224.6077 581.5477 284.6677 521.4877L388.1877 417.4777L578.6177 607.4177L475.0977 711.4277C415.5277 770.9977 338.3777 771.9677 280.7577 715.3277Z"/>
</svg>