<?xml version="1.0" encoding="UTF-8" standalone="no"?>
<svg xmlns="http://www.w3.org/2000/svg"
     width="996.09375" height="996.09375"
     viewBox="0 0 996.09375 996.09375"
     fill="currentColor">
  <path d="M498.0477 996.0959C770.5077 996.0959 996.0977 770.0159 996.0977 498.0459C996.0977 225.5859 770.0177 -0.0041 497.5577 -0.0041C225.5877 -0.0041 -0.0023 225.5859 -0.0023 498.0459C-0.0023 770.0159 226.0777 996.0959 498.0477 996.0959ZM498.0477 913.0859C267.5777 913.0859 83.4977 728.5159 83.4977 498.0459C83.4977 267.5759 267.0877 83.0059 497.5577 83.0059C728.0277 83.0059 913.0877 267.5759 913.0877 498.0459C913.0877 728.5159 728.5177 913.0859 498.0477 913.0859ZM708.0077 288.0859C651.3677 232.4259 577.1477 232.4259 520.0177 290.5259L419.4377 391.1159L604.0077 576.1759L705.0777 475.5859C763.6677 417.4759 764.6477 342.2859 708.0077 288.0859ZM287.1077 708.9859C343.2577 763.6759 417.9677 762.6959 475.5877 704.5859L576.1677 604.0059L391.5977 419.4359L291.0177 520.5059C232.9077 579.1059 231.9377 653.3159 287.1077 708.9859Z"/>
</svg>