<?xml version="1.0" encoding="UTF-8" standalone="no"?>
<svg xmlns="http://www.w3.org/2000/svg"
     width="1155.700805016617" height="1010.681273766617"
     viewBox="0 0 1155.700805016617 1010.681273766617"
     fill="currentColor">
  <path d="M69.2744 739.1974C162.5344 831.4774 284.1144 831.9674 375.9144 740.1774L740.1744 375.9174C831.9744 284.1174 831.9744 161.0674 739.1944 69.2774C646.4244 -23.0126 524.3544 -23.0126 432.5544 68.7874L68.7844 432.5574C-23.0056 524.3574 -23.0056 647.3974 69.2744 739.1974ZM483.3344 129.8174C543.8844 68.7874 624.9344 66.8374 683.0444 125.4274C741.6344 184.0174 739.6844 264.5874 678.6544 325.6274L530.7044 473.5674L334.9044 278.2574ZM125.4244 683.0474C67.3244 624.9374 69.2744 543.8874 129.8244 483.3374L278.7444 334.4074L474.5444 529.7274L325.6244 678.6474C264.5844 739.6874 184.0244 741.6374 125.4244 683.0474ZM888.6144 1010.6774C1036.5644 1010.6774 1155.7044 891.5374 1155.7044 744.0774C1155.7044 598.0874 1036.0744 478.4574 888.6144 478.4574C742.1244 478.4574 622.4944 598.0874 622.4944 744.0774C622.4944 891.0574 742.1244 1010.6774 888.6144 1010.6774ZM888.6144 557.0674C978.9444 557.0674 1054.6244 620.5474 1072.6944 704.5274H705.5044C723.5744 620.5474 799.2544 557.0674 888.6144 557.0674ZM888.6144 932.0674C798.7644 932.0674 723.5744 868.5874 705.5044 784.1174H1072.6944C1054.6244 869.0774 979.4344 932.0674 888.6144 932.0674Z"/>
</svg>