<?xml version="1.0" encoding="UTF-8" standalone="no"?>
<svg xmlns="http://www.w3.org/2000/svg"
     width="1150.357809741062" height="981.0545086014465"
     viewBox="0 0 1150.357809741062 981.0545086014465"
     fill="currentColor">
  <path d="M563.9325 511.817L717.2525 358.497C808.5625 267.677 810.0225 149.997 723.1125 63.577C635.7125 -23.343 518.5225 -20.903 428.1925 69.437L274.8725 222.757ZM512.6625 563.577L223.1125 274.027L69.7925 427.827C-21.5175 518.657 -22.9775 636.327 63.9325 722.757C151.3325 809.667 268.5225 807.717 358.8525 717.387ZM1150.3625 689.067C1133.2725 565.037 1026.3325 468.847 896.9425 468.847C767.5425 468.847 661.1025 565.037 644.0125 689.067ZM1150.3625 760.347H644.0125C661.5925 884.867 767.5425 981.057 896.9425 981.057C1027.3125 981.057 1133.2725 884.867 1150.3625 760.347Z"/>
</svg>