<?xml version="1.0" encoding="UTF-8" standalone="no"?>
<svg xmlns="http://www.w3.org/2000/svg"
     width="758.30078125" height="1138.18359375"
     viewBox="0 0 758.30078125 1138.18359375"
     fill="currentColor">
  <path d="M71.7823 773.44H335.9423V1001.46C335.9423 1076.17 367.1923 1138.18 379.3923 1138.18C391.1123 1138.18 422.3623 1076.17 422.3623 1001.46V773.44H686.5223C730.4723 773.44 758.3023 746.09 758.3023 704.59C758.3023 601.56 675.7823 498.05 548.3423 447.75L532.2223 218.75C594.2423 178.22 652.8323 132.32 677.7323 99.12C690.9223 82.52 696.7823 65.92 696.7823 51.76C696.7823 21.97 673.8323 0 639.6523 0H119.1423C84.4723 0 62.0123 21.97 62.0123 51.76C62.0123 65.92 67.8723 82.52 80.5623 99.12C105.4723 132.32 164.5523 178.22 226.0723 218.75L209.9623 447.75C82.5223 498.05 0.0023 601.56 0.0023 704.59C0.0023 746.09 27.8323 773.44 71.7823 773.44ZM379.3923 416.02C348.1423 416.02 317.8723 418.95 289.5523 424.8L304.2023 182.62C304.6923 175.78 303.7123 173.34 298.8323 170.9C225.5823 133.3 168.9423 88.87 165.0423 79.1C161.1323 72.75 165.0423 68.85 170.4123 68.85H587.8923C593.2623 68.85 597.1723 72.75 593.2623 79.1C589.3523 88.87 532.7123 133.3 459.4723 170.9C455.0823 173.34 453.6123 175.78 454.5923 182.62L469.2423 424.8C440.4323 418.95 410.6423 416.02 379.3923 416.02ZM91.3123 699.71C80.0823 699.71 75.1923 693.36 77.1523 680.18C87.8923 592.29 200.1923 487.3 379.3923 487.3C558.1023 487.3 670.4123 592.29 681.1523 680.18C683.1023 693.36 678.2223 699.71 666.9923 699.71Z"/>
</svg>