<?xml version="1.0" encoding="UTF-8" standalone="no"?>
<svg xmlns="http://www.w3.org/2000/svg"
     width="957.8254573626918" height="1138.18359375"
     viewBox="0 0 957.8254573626918 1138.18359375"
     fill="currentColor">
  <path d="M181.0309 51.76C181.0309 65.92 186.8909 82.52 199.5809 99.12C224.4909 132.32 283.5709 178.22 345.0909 218.75L341.1909 272.46L413.4509 344.73L423.2209 182.62C423.7109 175.78 422.7309 173.34 417.8509 170.9C344.6009 133.3 287.9609 88.87 284.0609 79.1C280.1509 72.75 284.0609 68.85 289.4309 68.85H706.9109C712.2809 68.85 716.1909 72.75 712.2809 79.1C708.3709 88.87 651.7309 133.3 578.4909 170.9C574.1009 173.34 572.6309 175.78 573.6109 182.62L588.2609 424.8C559.4509 418.95 529.6609 416.02 498.4109 416.02H485.2309L560.9109 492.68C696.1709 506.35 795.2909 616.7 795.2909 694.82C795.2909 697.27 795.2909 699.71 795.2909 702.15L848.0209 762.7C864.1309 752.93 877.3209 732.91 877.3209 704.59C877.3209 601.56 794.8009 497.56 667.3609 447.75L651.2409 218.75C713.2609 178.22 771.8509 132.32 796.7509 99.12C809.9409 82.52 815.8009 65.92 815.8009 51.76C815.8009 21.97 792.8509 0 758.6709 0H238.1609C203.4909 0 181.0309 21.97 181.0309 51.76ZM10.6209 134.77L893.4309 1016.6C908.5709 1031.25 932.4909 1031.25 946.6509 1016.6C961.3009 1001.95 961.7909 978.03 946.6509 963.38L64.3309 81.54C49.6809 66.89 25.2709 66.41 10.6209 81.54C-3.5391 95.7 -3.5391 120.12 10.6209 134.77ZM119.0209 704.59C119.0209 746.09 146.8509 773.44 190.8009 773.44H454.9609V1001.46C454.9609 1076.17 486.2109 1138.18 498.4109 1138.18C510.1309 1138.18 541.3809 1076.17 541.3809 1001.46V779.3H569.2109L489.6209 699.71H210.3309C199.1009 699.71 194.2109 693.36 196.1709 680.18C202.0309 625.49 247.9209 567.38 320.1909 530.27L268.9209 479C176.6309 533.2 119.0209 618.65 119.0209 704.59Z"/>
</svg>