<?xml version="1.0" encoding="UTF-8" standalone="no"?>
<svg xmlns="http://www.w3.org/2000/svg"
     width="898.92578125" height="898.92578125"
     viewBox="0 0 898.92578125 898.92578125"
     fill="currentColor">
  <path d="M153.3183 898.9295H745.6083C848.1483 898.9295 898.9283 848.1495 898.9283 747.5595V151.3695C898.9283 50.7795 848.1483 -0.0005 745.6083 -0.0005H153.3183C51.2683 -0.0005 -0.0017 50.2895 -0.0017 151.3695V747.5595C-0.0017 848.6295 51.2683 898.9295 153.3183 898.9295ZM154.2983 820.3095C105.4683 820.3095 78.6183 794.4295 78.6183 743.6495V155.2695C78.6183 104.4895 105.4683 78.6095 154.2983 78.6095H744.6283C792.9683 78.6095 820.3083 104.4895 820.3083 155.2695V743.6495C820.3083 794.4295 792.9683 820.3095 744.6283 820.3095ZM257.8083 541.4995C257.8083 562.9895 271.9683 576.1695 293.9483 576.1695H419.9183V663.5695C419.9183 716.7995 441.4083 760.7395 450.1983 760.7395C458.9883 760.7395 480.4683 716.7995 480.4683 663.5695V576.1695H606.4483C628.9083 576.1695 642.5783 562.9895 642.5783 541.4995C642.5783 489.7495 600.5883 434.0795 531.2483 409.1795L522.9483 294.4295C558.5983 274.4095 587.8883 251.4695 601.0783 234.8595C607.4183 226.0695 610.8383 217.2895 610.8383 209.4695C610.8383 194.3395 599.1183 183.5895 581.5383 183.5895H318.8483C301.2683 183.5895 289.5483 194.3395 289.5483 209.4695C289.5483 217.2895 292.9683 226.5595 300.2883 235.3495C313.4783 251.9495 342.2883 274.8995 377.4383 294.4295L369.6283 409.1795C299.8083 434.0795 257.8083 489.7495 257.8083 541.4995Z"/>
</svg>