<?xml version="1.0" encoding="UTF-8" standalone="no"?>
<svg xmlns="http://www.w3.org/2000/svg"
     width="1265.13671875" height="1022.94921875"
     viewBox="0 0 1265.13671875 1022.94921875"
     fill="currentColor">
  <path d="M153.3183 796.8713H479.0083V871.5813C479.0083 972.1713 530.2783 1022.9513 632.3283 1022.9513H1112.3083C1213.8683 1022.9513 1265.1383 972.1713 1265.1383 871.5813V555.1713C1265.1383 454.5913 1213.8683 403.8112 1112.3083 403.8112H1018.5583V151.3713C1018.5583 50.7813 967.2883 0.0013 865.7183 0.0013H153.3183C50.7783 0.0013 -0.0017 50.7813 -0.0017 151.3713V645.5113C-0.0017 746.0912 50.7783 796.8713 153.3183 796.8713ZM154.2983 718.2613C105.4683 718.2613 78.6183 691.8913 78.6183 641.1113V155.7613C78.6183 104.9813 105.4683 78.6113 154.2983 78.6113H864.2583C912.5983 78.6113 939.9383 104.9813 939.9383 155.7613V403.8112H632.3283C530.2783 403.8112 479.0083 454.1013 479.0083 555.1713V718.2613ZM186.5283 366.7013C188.4783 381.3513 207.5183 397.9513 226.5583 378.9013L280.7583 325.1912L360.3483 405.2713C372.0683 416.9913 391.5983 416.9913 403.3183 405.2713C415.0383 393.5513 415.0383 374.0213 403.3183 362.3013L323.2383 282.2313L376.9483 228.0313C395.9983 209.4713 379.8783 190.4312 364.7483 188.4813L188.4783 161.1313C179.6883 159.6712 171.8783 162.6013 166.0183 167.9713C160.6483 173.3412 157.7183 181.6413 159.1783 189.9412Z"/>
</svg>