<?xml version="1.0" encoding="UTF-8" standalone="no"?>
<svg xmlns="http://www.w3.org/2000/svg"
     width="1265.13671875" height="1022.94921875"
     viewBox="0 0 1265.13671875 1022.94921875"
     fill="currentColor">
  <path d="M632.3283 336.9113H1018.5583V151.3713C1018.5583 50.7813 967.2883 0.0013 865.7183 0.0013H153.3183C50.7783 0.0013 -0.0017 50.7813 -0.0017 151.3713V645.5113C-0.0017 746.0912 50.7783 796.8713 153.3183 796.8713H412.1083V555.1713C412.1083 417.4813 493.1683 336.9113 632.3283 336.9113ZM632.3283 1022.9513H1112.3083C1213.8683 1022.9513 1265.1383 972.1713 1265.1383 871.5813V555.1713C1265.1383 454.5913 1213.8683 403.8112 1112.3083 403.8112H632.3283C530.2783 403.8112 479.0083 454.1013 479.0083 555.1713V871.5813C479.0083 972.1713 530.2783 1022.9513 632.3283 1022.9513Z"/>
</svg>