<?xml version="1.0" encoding="UTF-8" standalone="no"?>
<svg xmlns="http://www.w3.org/2000/svg"
     width="1265.13671875" height="1022.94921875"
     viewBox="0 0 1265.13671875 1022.94921875"
     fill="currentColor">
  <path d="M153.3183 796.8713H479.0083V871.5813C479.0083 972.1713 530.2783 1022.9513 632.3283 1022.9513H1112.3083C1213.8683 1022.9513 1265.1383 972.1713 1265.1383 871.5813V555.1713C1265.1383 454.5913 1213.8683 403.8112 1112.3083 403.8112H1018.5583V151.3713C1018.5583 50.7813 967.2883 0.0013 865.7183 0.0013H153.3183C50.7783 0.0013 -0.0017 50.7813 -0.0017 151.3713V645.5113C-0.0017 746.0912 50.7783 796.8713 153.3183 796.8713ZM154.2983 718.2613C105.4683 718.2613 78.6183 691.8913 78.6183 641.1113V155.7613C78.6183 104.9813 105.4683 78.6113 154.2983 78.6113H864.2583C912.5983 78.6113 939.9383 104.9813 939.9383 155.7613V403.8112H632.3283C530.2783 403.8112 479.0083 454.1013 479.0083 555.1713V718.2613ZM384.2783 208.0113C382.3283 192.8713 363.2783 176.2713 344.2383 195.8012L290.0383 249.5113L210.4483 169.4312C198.7283 157.7112 179.1983 157.7112 167.4783 169.4312C155.7583 181.1513 155.7583 200.6812 167.4783 212.4013L247.5583 291.9913L193.8483 346.1912C174.3183 365.2313 190.9183 384.2813 206.0583 386.2313L382.3283 413.5713C391.1183 415.0413 398.9283 412.1113 404.7883 406.7413C410.1583 400.8813 413.0883 393.0713 411.6183 384.2813Z"/>
</svg>