<?xml version="1.0" encoding="UTF-8" standalone="no"?>
<svg xmlns="http://www.w3.org/2000/svg"
     width="1178.7109375" height="935.05859375"
     viewBox="0 0 1178.7109375 935.05859375"
     fill="currentColor">
  <path d="M90.3283 522.4642H171.3883C229.0083 522.4642 261.2283 491.2142 261.2283 435.0542V404.7842H429.6883L482.9083 305.1742C506.8383 259.7642 543.4583 235.8442 589.8483 235.8442C635.7383 235.8442 671.8783 259.7642 696.2883 305.1742L750.4883 404.7842H917.4783V435.0542C917.4783 491.2142 949.7083 522.4642 1007.8083 522.4642H1088.3783C1146.9683 522.4642 1178.7083 491.2142 1178.7083 435.0542V87.4042C1178.7083 31.2542 1146.9683 0.0042 1088.3783 0.0042H1007.8083C949.7083 0.0042 917.4783 31.2542 917.4783 87.4042V114.7442H261.2283V87.4042C261.2283 31.2542 229.0083 0.0042 171.3883 0.0042H90.3283C32.2283 0.0042 -0.0017 31.2542 -0.0017 87.4042V435.0542C-0.0017 491.2142 32.2283 522.4642 90.3283 522.4642ZM589.8483 935.0542C711.4283 935.0542 808.1083 840.3342 808.1083 721.6842C808.1083 656.7342 775.3883 592.2842 748.0483 541.5042L638.1883 336.9142C625.4883 313.4742 611.3283 302.7342 589.8483 302.7342C568.3583 302.7342 554.1983 313.4742 541.5083 336.4242L432.1283 541.5042C404.7883 592.2842 372.0683 656.7342 372.0683 721.6842C372.0683 840.3342 468.7483 935.0542 589.8483 935.0542Z"/>
</svg>