<?xml version="1.0" encoding="UTF-8" standalone="no"?>
<svg xmlns="http://www.w3.org/2000/svg"
     width="627.44140625" height="1033.69140625"
     viewBox="0 0 627.44140625 1033.69140625"
     fill="currentColor">
  <path d="M-0.0017 906.7389C-0.0017 982.9089 53.2183 1033.6889 132.8083 1033.6889H494.6283C574.2183 1033.6889 627.4383 982.9089 627.4383 906.7389V126.9489C627.4383 50.7789 574.2183 -0.0011 494.6283 -0.0011H132.8083C53.2183 -0.0011 -0.0017 50.7789 -0.0017 126.9489ZM78.6183 894.0389V139.6489C78.6183 100.5889 101.5583 78.6089 143.0683 78.6089H484.8683C525.8783 78.6089 548.8283 100.5889 548.8283 139.6489V894.0389C548.8283 933.1089 525.8783 955.0789 484.8683 955.0789H143.0683C101.5583 955.0789 78.6183 933.1089 78.6183 894.0389ZM184.5683 893.0689H443.3583C469.2383 893.0689 486.8183 875.4889 486.8183 848.6289V790.5289C486.8183 763.1789 469.2383 746.0889 443.3583 746.0889H184.5683C158.1983 746.0889 141.1183 763.1789 141.1183 790.5289V848.6289C141.1183 875.4889 158.1983 893.0689 184.5683 893.0689Z"/>
</svg>