<?xml version="1.0" encoding="UTF-8" standalone="no"?>
<svg xmlns="http://www.w3.org/2000/svg"
     width="815.91796875" height="1100.09765625"
     viewBox="0 0 815.91796875 1100.09765625"
     fill="currentColor">
  <path d="M135.2583 1100.102H680.6683C761.7183 1100.102 815.9183 1048.342 815.9183 971.192V129.392C815.9183 52.242 761.7183 0.002 680.6683 0.002H135.2583C54.1983 0.002 -0.0017 52.242 -0.0017 129.392V971.192C-0.0017 1048.342 54.1983 1100.102 135.2583 1100.102ZM145.0183 1021.482C103.0283 1021.482 78.6183 998.042 78.6183 958.012V142.582C78.6183 102.542 103.0283 78.612 145.0183 78.612H670.8983C712.3983 78.612 737.3083 102.542 737.3083 142.582V958.012C737.3083 998.042 712.3983 1021.482 670.8983 1021.482ZM220.6983 449.702H595.6983C621.5783 449.702 639.1583 432.622 639.1583 405.272V299.802C639.1583 272.462 621.5783 255.372 595.6983 255.372H220.6983C194.8283 255.372 177.2483 272.462 177.2483 299.802V405.272C177.2483 432.622 194.8283 449.702 220.6983 449.702ZM220.6983 843.752H595.6983C621.5783 843.752 639.1583 826.172 639.1583 799.312V693.362C639.1583 666.502 621.5783 648.922 595.6983 648.922H220.6983C194.8283 648.922 177.2483 666.502 177.2483 693.362V799.312C177.2483 826.172 194.8283 843.752 220.6983 843.752Z"/>
</svg>