<?xml version="1.0" encoding="UTF-8" standalone="no"?>
<svg xmlns="http://www.w3.org/2000/svg"
     width="1034.1796875" height="628.41796875"
     viewBox="0 0 1034.1796875 628.41796875"
     fill="currentColor">
  <path d="M126.9483 628.4222H906.7383C982.9083 628.4222 1034.1783 574.7022 1034.1783 495.1122V132.8122C1034.1783 53.2222 983.3983 0.0022 907.2283 0.0022H127.4383C51.2683 0.0022 -0.0017 53.2222 -0.0017 132.8122V495.1122C-0.0017 574.7022 50.7783 628.4222 126.9483 628.4222ZM139.6483 549.8022C100.5883 549.8022 78.6183 526.3622 78.6183 485.3522V143.0622C78.6183 102.0522 100.5883 78.6122 139.6483 78.6122H894.5283C933.5983 78.6122 955.5683 102.0522 955.5683 143.0622V485.3522C955.5683 526.3622 933.5983 549.8022 894.0383 549.8022ZM216.7983 406.7422H432.6183C458.9883 406.7422 476.0783 389.6522 476.0783 362.3022V265.1322C476.0783 238.2822 458.9883 220.7022 432.6183 220.7022H216.7983C190.9183 220.7022 173.3383 238.2822 173.3383 265.1322V362.3022C173.3383 389.6522 190.9183 406.7422 216.7983 406.7422ZM601.5583 406.7422H817.3783C843.2583 406.7422 860.8383 389.6522 860.8383 362.3022V265.1322C860.8383 238.2822 843.2583 220.7022 817.3783 220.7022H601.5583C575.6883 220.7022 558.1083 238.2822 558.1083 265.1322V362.3022C558.1083 389.6522 575.6883 406.7422 601.5583 406.7422Z"/>
</svg>