<?xml version="1.0" encoding="UTF-8" standalone="no"?>
<svg xmlns="http://www.w3.org/2000/svg"
     width="627.44140625" height="1033.69140625"
     viewBox="0 0 627.44140625 1033.69140625"
     fill="currentColor">
  <path d="M-0.0017 906.7389C-0.0017 982.9089 53.2183 1033.6889 132.8083 1033.6889H494.6283C574.2183 1033.6889 627.4383 982.9089 627.4383 906.7389V126.9489C627.4383 50.7789 574.2183 -0.0011 494.6283 -0.0011H132.8083C53.2183 -0.0011 -0.0017 50.7789 -0.0017 126.9489ZM78.6183 894.0389V139.6489C78.6183 100.5889 101.5583 78.6089 143.0683 78.6089H484.8683C525.8783 78.6089 548.8283 100.5889 548.8283 139.6489V894.0389C548.8283 933.1089 525.8783 955.0789 484.8683 955.0789H143.0683C101.5583 955.0789 78.6183 933.1089 78.6183 894.0389ZM183.5983 575.6789C183.5983 582.5189 185.0583 589.3589 189.9383 594.2389L293.4583 696.7789C299.3183 702.6389 306.6383 706.0589 313.9683 706.0589C320.7983 706.0589 328.1283 702.6389 333.9883 696.7789L437.4983 594.2389C442.3783 589.3589 444.3383 582.5189 444.3383 575.6789C444.3383 560.0589 433.5983 549.8089 418.4583 549.8089C410.6483 549.3189 404.7883 552.7389 399.4183 557.6189L365.2383 591.7989L338.3783 625.4889L340.3283 562.9889V425.2889C340.3283 410.1589 329.5883 398.9289 313.9683 398.9289C298.3383 398.9289 287.1083 410.1589 287.1083 425.2889V562.9889L289.5483 625.4889L262.6983 591.7989L228.0283 557.6189C222.6583 552.7389 216.7983 549.3189 208.9883 549.8089C194.3383 549.8089 183.5983 560.0589 183.5983 575.6789ZM184.5683 893.0689H443.3583C469.2383 893.0689 486.8183 875.4889 486.8183 848.6289V790.5289C486.8183 763.1789 469.2383 746.0889 443.3583 746.0889H184.5683C158.1983 746.0889 141.1183 763.1789 141.1183 790.5289V848.6289C141.1183 875.4889 158.1983 893.0689 184.5683 893.0689Z"/>
</svg>