<?xml version="1.0" encoding="UTF-8" standalone="no"?>
<svg xmlns="http://www.w3.org/2000/svg"
     width="842.6513671875" height="842.529296875"
     viewBox="0 0 842.6513671875 842.529296875"
     fill="currentColor">
  <path d="M733.2784 785.8859C748.4084 800.5359 772.3384 800.5359 786.4984 785.8859C801.1484 771.2359 801.6384 747.3159 786.4984 732.6659L64.3284 10.9859C49.6784 -3.6641 25.7584 -3.6641 10.6184 10.9859C-3.5416 25.1459 -3.5416 50.0459 10.6184 64.2059ZM688.3584 552.0059L787.9684 494.3859C828.4884 470.4559 842.6484 454.8359 842.6484 428.9559C842.6484 403.0759 828.4884 387.4559 787.9684 364.0159L218.6284 34.4259C201.0484 24.6559 185.9084 17.3359 167.3584 15.8659L353.8784 203.3659L734.2484 423.5859C736.6984 425.0459 738.6484 426.5159 738.6484 428.9559C738.6484 431.3959 736.6984 433.3459 734.2484 434.3259L630.7384 494.8759ZM515.9884 651.6159L458.3784 593.9959L193.7284 747.3159C191.7684 748.2959 189.8184 749.2659 187.8684 749.2659C184.9384 749.2659 182.9884 747.3159 182.9884 743.4059V318.6059L104.3684 239.5059V772.2159C104.3684 814.6959 126.8284 842.5259 162.9684 842.5259C182.4984 842.5259 199.0984 834.7159 218.6284 823.4859Z"/>
</svg>