<?xml version="1.0" encoding="UTF-8" standalone="no"?>
<svg xmlns="http://www.w3.org/2000/svg"
     width="1164.0625" height="983.88671875"
     viewBox="0 0 1164.0625 983.88671875"
     fill="currentColor">
  <path d="M112.3083 810.5484H427.7383V904.7884H424.8083C403.3183 904.7884 385.2583 922.3584 385.2583 944.3384C385.2583 966.3084 403.3183 983.8884 424.8083 983.8884H739.2583C760.7383 983.8884 778.3183 966.3084 778.3183 944.3384C778.3183 922.3584 760.7383 904.7884 739.2583 904.7884H736.3283V810.5484H1051.2683C1121.5783 810.5484 1164.0583 768.0684 1164.0583 697.7584V112.3084C1164.0583 41.9884 1121.5783 -0.0016 1051.2683 -0.0016H112.3083C42.4783 -0.0016 -0.0017 41.9884 -0.0017 112.3084V697.7584C-0.0017 768.0684 42.4783 810.5484 112.3083 810.5484ZM113.7683 731.9384C92.2883 731.9384 78.6183 718.2584 78.6183 696.7784V113.7684C78.6183 91.7984 92.2883 78.6084 113.7683 78.6084H1050.2883C1071.7783 78.6084 1085.4483 91.7984 1085.4483 113.7684V696.7784C1085.4483 718.2584 1071.7783 731.9384 1050.2883 731.9384ZM460.9383 561.0384C460.9383 581.5384 481.9383 588.8684 498.5383 579.5884L760.2583 425.2884C776.3683 415.5284 775.8783 394.5284 759.7683 385.2584L498.5383 231.4484C481.9383 221.6784 460.9383 229.0084 460.9383 249.5084Z"/>
</svg>