<?xml version="1.0" encoding="UTF-8" standalone="no"?>
<svg xmlns="http://www.w3.org/2000/svg"
     width="842.6513671875" height="842.529296875"
     viewBox="0 0 842.6513671875 842.529296875"
     fill="currentColor">
  <path d="M733.2784 785.8859C748.4084 800.5359 772.3384 800.5359 786.4984 785.8859C801.1484 771.2359 801.6384 747.3159 786.4984 732.6659L64.3284 10.9859C49.6784 -3.6641 25.7584 -3.6641 10.6184 10.9859C-3.5416 25.1459 -3.5416 50.0459 10.6184 64.2059ZM688.3584 552.0059L787.9684 494.3859C828.4884 470.4559 842.6484 454.8359 842.6484 428.9559C842.6484 403.0759 828.4884 387.4559 787.9684 364.0159L218.6284 34.4259C201.5384 24.1659 186.8884 16.3559 169.7984 16.3559C165.4084 16.3559 161.9884 20.2659 161.4984 25.6359ZM515.9884 651.6159L104.3684 239.9859V772.2159C104.3684 814.6959 126.8284 842.5259 162.9684 842.5259C182.4984 842.5259 199.0984 834.7159 218.6284 823.4859Z"/>
</svg>