<?xml version="1.0" encoding="UTF-8" standalone="no"?>
<svg xmlns="http://www.w3.org/2000/svg"
     width="996.09375" height="996.09375"
     viewBox="0 0 996.09375 996.09375"
     fill="currentColor">
  <path d="M498.0477 996.0959C770.5077 996.0959 996.0977 770.0159 996.0977 498.0459C996.0977 225.5859 770.0177 -0.0041 497.5577 -0.0041C225.5877 -0.0041 -0.0023 225.5859 -0.0023 498.0459C-0.0023 770.0159 226.0777 996.0959 498.0477 996.0959ZM498.0477 913.0859C267.5777 913.0859 83.4977 728.5159 83.4977 498.0459C83.4977 267.5759 267.0877 83.0059 497.5577 83.0059C728.0277 83.0059 913.0877 267.5759 913.0877 498.0459C913.0877 728.5159 728.5177 913.0859 498.0477 913.0859ZM233.8877 681.6359L477.5377 523.9259C496.5777 510.7459 496.5777 485.8359 477.5377 473.6359L233.8877 314.9459C213.8677 302.2459 187.0077 312.9859 187.0077 335.4459V661.6259C187.0077 684.5659 212.3977 695.3159 233.8877 681.6359ZM561.5277 681.1559H607.4177C630.8577 681.1559 641.1177 668.4559 641.1177 650.3859V345.7059C641.1177 327.1459 630.8577 314.9459 607.4177 314.9459H561.5277C538.5777 314.9459 527.3477 327.1459 527.3477 345.7059V650.3859C527.3477 668.4559 538.5777 681.1559 561.5277 681.1559ZM730.9577 681.1559H776.8577C799.3177 681.1559 810.0577 668.4559 810.0577 650.3859V345.7059C810.0577 327.1459 799.3177 314.9459 776.8577 314.9459H730.9577C708.0077 314.9459 696.7777 327.1459 696.7777 345.7059V650.3859C696.7777 668.4559 708.0077 681.1559 730.9577 681.1559Z"/>
</svg>