<?xml version="1.0" encoding="UTF-8" standalone="no"?>
<svg xmlns="http://www.w3.org/2000/svg"
     width="1214.84375" height="989.2578125"
     viewBox="0 0 1214.84375 989.2578125"
     fill="currentColor">
  <path d="M153.3183 763.188H241.2083V837.888C241.2083 938.968 291.9883 989.258 394.5283 989.258H1061.5283C1163.0883 989.258 1214.8483 938.478 1214.8483 837.888V377.438C1214.8483 276.858 1163.0883 226.078 1061.5283 226.078H968.2583V151.368C968.2583 50.778 916.5083 -0.002 814.9383 -0.002H153.3183C50.7783 -0.002 -0.0017 50.778 -0.0017 151.368V611.818C-0.0017 712.888 50.7783 763.188 153.3183 763.188ZM154.2983 684.568C105.4683 684.568 78.6183 658.688 78.6183 607.908V155.758C78.6183 104.978 105.4683 78.618 154.2983 78.618H813.4783C861.8183 78.618 889.6483 104.978 889.6483 155.758V226.078H394.5283C291.9883 226.078 241.2083 276.858 241.2083 377.438V684.568ZM395.5083 910.648C346.6783 910.648 319.8283 884.768 319.8283 833.988V381.838C319.8283 331.058 346.6783 304.688 395.5083 304.688H1060.0583C1108.3983 304.688 1136.2283 331.058 1136.2283 381.838V833.988C1136.2283 884.768 1108.3983 910.648 1060.0583 910.648ZM501.9483 607.908C501.9483 631.348 519.0383 647.948 543.9483 647.948H687.4983V791.988C687.4983 816.408 703.6183 833.498 727.5383 833.498C751.9483 833.498 769.0383 816.408 769.0383 791.988V647.948H913.0883C937.4983 647.948 954.5883 631.348 954.5883 607.908C954.5883 583.008 937.4983 566.408 913.0883 566.408H769.0383V422.848C769.0383 397.458 751.9483 380.858 727.5383 380.858C703.6183 380.858 687.4983 397.948 687.4983 422.848V566.408H543.9483C518.5583 566.408 501.9483 583.008 501.9483 607.908Z"/>
</svg>