<?xml version="1.0" encoding="UTF-8" standalone="no"?>
<svg xmlns="http://www.w3.org/2000/svg"
     width="1107.3672103163326" height="1107.3672103163324"
     viewBox="0 0 1107.3672103163326 1107.3672103163324"
     fill="currentColor">
  <path d="M54.7573 661.6849L445.8673 1052.7949C518.1273 1125.0649 589.4173 1125.5549 661.1973 1054.2649L1054.2673 660.7049C1125.5573 589.4249 1125.0673 517.6449 1052.7973 445.3749L662.1773 54.7549C589.9073 -17.5151 518.6173 -18.4851 446.8473 53.2849L53.2873 446.3549C-18.4927 518.1349 -17.5127 589.4249 54.7573 661.6849ZM315.0073 554.2649C315.0073 528.8749 333.0773 511.2949 358.4673 511.2949H511.2973V358.4649C511.2973 333.0749 528.3873 315.0049 552.7973 315.0049C578.6773 315.0049 595.7673 333.0749 595.7673 358.4649V511.2949H749.0873C774.4773 511.2949 792.0573 528.8749 792.0573 554.2649C792.0573 579.1649 773.9873 595.7649 749.0873 595.7649H595.7673V749.0849C595.7673 774.4749 578.6773 792.0549 552.7973 792.0549C528.3873 792.0549 511.2973 773.9949 511.2973 749.0849V595.7649H358.4673C333.0773 595.7649 315.0073 579.1649 315.0073 554.2649Z"/>
</svg>