<?xml version="1.0" encoding="UTF-8" standalone="no"?>
<svg xmlns="http://www.w3.org/2000/svg"
     width="996.09375" height="996.09375"
     viewBox="0 0 996.09375 996.09375"
     fill="currentColor">
  <path d="M498.0477 996.0959C770.5077 996.0959 996.0977 770.0159 996.0977 498.0459C996.0977 225.5859 770.0177 -0.0041 497.5577 -0.0041C225.5877 -0.0041 -0.0023 225.5859 -0.0023 498.0459C-0.0023 770.0159 226.0777 996.0959 498.0477 996.0959ZM498.0477 913.0859C267.5777 913.0859 83.4977 728.5159 83.4977 498.0459C83.4977 267.5759 267.0877 83.0059 497.5577 83.0059C728.0277 83.0059 913.0877 267.5759 913.0877 498.0459C913.0877 728.5159 728.5177 913.0859 498.0477 913.0859ZM328.1277 404.2959C328.1277 422.8559 343.2577 437.9859 362.3077 437.9859H464.8477V540.5259C464.8477 558.5959 479.9777 574.2159 498.5377 574.2159C517.0877 574.2159 532.7177 558.5959 532.7177 540.5259V437.9859H634.2777C652.8277 437.9859 668.4577 422.8559 668.4577 404.2959C668.4577 385.7459 652.8277 370.1159 634.2777 370.1159H532.7177V267.5759C532.7177 249.0259 517.0877 233.8859 498.5377 233.8859C479.9777 233.8859 464.8477 249.0259 464.8477 267.5759V370.1159H362.3077C343.2577 370.1159 328.1277 385.7459 328.1277 404.2959ZM328.1277 695.7959C328.1277 712.8859 343.2577 729.9759 362.7977 729.9759H633.7877C652.8277 729.9759 668.4577 712.8859 668.4577 695.7959C668.4577 677.7359 652.8277 662.1059 633.7877 662.1059H362.7977C343.2577 662.1059 328.1277 677.7359 328.1277 695.7959Z"/>
</svg>