<?xml version="1.0" encoding="UTF-8" standalone="no"?>
<svg xmlns="http://www.w3.org/2000/svg"
     width="1318.359375" height="945.3125"
     viewBox="0 0 1318.359375 945.3125"
     fill="currentColor">
  <path d="M745.6083 592.2839H1165.0383C1267.0883 592.2839 1318.3583 541.5039 1318.3583 440.9139V151.3639C1318.3583 50.2939 1267.0883 0.0039 1165.0383 0.0039H745.6083C643.5583 0.0039 592.7783 50.2939 592.7783 151.3639V440.9139C592.7783 541.5039 643.5583 592.2839 745.6083 592.2839ZM-0.0017 329.5939H525.3883V141.1139H486.8183C453.6183 141.1139 433.5983 133.3039 409.1783 112.3039L379.3983 87.8939C347.1683 60.5439 322.2683 51.7539 273.9283 51.7539H134.7683C49.3183 51.7539 -0.0017 100.5839 -0.0017 198.7339ZM955.5683 451.1739C937.4983 451.1739 925.7783 439.4539 925.7783 421.3839V326.1739H830.0783C812.4983 326.1739 800.2883 314.4539 800.2883 295.8939C800.2883 277.8339 812.4983 266.1139 830.0783 266.1139H925.7783V170.8939C925.7783 152.8339 937.4983 140.6239 955.5683 140.6239C973.6283 140.6239 985.3483 152.8339 985.3483 170.8939V266.1139H1080.5683C1098.6283 266.1139 1110.8383 277.8339 1110.8383 295.8939C1110.8383 314.4539 1098.6283 326.1739 1080.5683 326.1739H985.3483V421.3839C985.3483 439.4539 973.6283 451.1739 955.5683 451.1739ZM153.3183 945.3139H970.2183C1057.6183 945.3139 1108.8883 884.7639 1108.8883 784.1839V658.6939H745.6083C606.9383 658.6939 525.3883 578.6139 525.3883 440.9139V393.5539H-0.0017V793.9439C-0.0017 895.0239 51.2683 945.3139 153.3183 945.3139Z"/>
</svg>