<?xml version="1.0" encoding="UTF-8" standalone="no"?>
<svg xmlns="http://www.w3.org/2000/svg"
     width="996.09375" height="996.09375"
     viewBox="0 0 996.09375 996.09375"
     fill="currentColor">
  <path d="M498.0477 996.0977C770.5077 996.0977 996.0977 770.5077 996.0977 498.0477C996.0977 226.0777 770.0177 -0.0023 497.5577 -0.0023C225.5877 -0.0023 -0.0023 226.0777 -0.0023 498.0477C-0.0023 770.5077 226.0777 996.0977 498.0477 996.0977ZM358.3977 437.0077C338.8677 437.0077 323.2377 420.8977 323.2377 401.8577C323.2377 382.8077 338.8677 366.6977 358.3977 366.6977H463.8677V260.7377C463.8677 242.1877 479.9777 226.0777 499.0277 226.0777C518.0677 226.0777 534.6677 241.6977 534.6677 260.7377V366.6977H639.1577C658.2077 366.6977 674.3177 382.8077 674.3177 401.8577C674.3177 420.8977 658.2077 437.0077 639.1577 437.0077H534.6677V542.4777C534.6677 561.5277 518.0677 577.6377 499.0277 577.6377C479.9777 577.6377 463.8677 561.0377 463.8677 542.4777V437.0077ZM358.8877 737.7977C338.8677 737.7977 323.2377 720.7077 323.2377 703.1277C323.2377 684.0777 338.8677 667.4777 358.8877 667.4777H638.6677C658.2077 667.4777 674.3177 684.0777 674.3177 703.1277C674.3177 720.7077 658.2077 737.7977 638.6677 737.7977Z"/>
</svg>