<?xml version="1.0" encoding="UTF-8" standalone="no"?>
<svg xmlns="http://www.w3.org/2000/svg"
     width="996.09375" height="996.09375"
     viewBox="0 0 996.09375 996.09375"
     fill="currentColor">
  <path d="M498.0477 996.0959C770.5077 996.0959 996.0977 770.0159 996.0977 498.0459C996.0977 225.5859 770.0177 -0.0041 497.5577 -0.0041C225.5877 -0.0041 -0.0023 225.5859 -0.0023 498.0459C-0.0023 770.0159 226.0777 996.0959 498.0477 996.0959ZM259.7677 498.5359C259.7677 473.1459 277.3477 455.5659 302.7377 455.5659H455.5677V302.7359C455.5677 277.3459 472.6577 259.2759 497.5577 259.2759C522.9477 259.2759 540.5277 277.3459 540.5277 302.7359V455.5659H693.8477C718.7477 455.5659 736.8177 473.1459 736.8177 498.5359C736.8177 523.4359 718.7477 540.0359 693.8477 540.0359H540.5277V693.3559C540.5277 718.7459 522.9477 736.3259 497.5577 736.3259C472.6577 736.3259 455.5677 718.2659 455.5677 693.3559V540.0359H302.7377C277.3477 540.0359 259.7677 523.4359 259.7677 498.5359Z"/>
</svg>