<?xml version="1.0" encoding="UTF-8" standalone="no"?>
<svg xmlns="http://www.w3.org/2000/svg"
     width="1151.3671875" height="898.92578125"
     viewBox="0 0 1151.3671875 898.92578125"
     fill="currentColor">
  <path d="M153.3183 898.9278H998.0483C1100.5883 898.9278 1151.3683 848.6378 1151.3683 748.0478V151.3678C1151.3683 50.7778 1100.5883 -0.0022 998.0483 -0.0022H153.3183C51.2683 -0.0022 -0.0017 50.7778 -0.0017 151.3678V748.0478C-0.0017 848.6378 51.2683 898.9278 153.3183 898.9278ZM337.3983 450.1978C337.3983 424.8078 355.4683 407.2278 380.8583 407.2278H533.6883V254.3978C533.6883 229.0078 550.7783 210.9378 575.1983 210.9378C601.0783 210.9378 618.6483 229.0078 618.6483 254.3978V407.2278H771.4883C796.8783 407.2278 814.4483 424.8078 814.4483 450.1978C814.4483 475.0978 796.8783 491.6978 771.4883 491.6978H618.6483V645.0178C618.6483 670.4078 601.0783 687.9878 575.1983 687.9878C550.7783 687.9878 533.6883 669.9178 533.6883 645.0178V491.6978H380.8583C355.4683 491.6978 337.3983 475.0978 337.3983 450.1978Z"/>
</svg>