<?xml version="1.0" encoding="UTF-8" standalone="no"?>
<svg xmlns="http://www.w3.org/2000/svg"
     width="805.6640625" height="805.6640625"
     viewBox="0 0 805.6640625 805.6640625"
     fill="currentColor">
  <path d="M-0.0017 402.8311C-0.0017 426.7611 20.0183 446.2911 43.4583 446.2911H359.3783V762.2111C359.3783 785.6411 378.9083 805.6611 402.8283 805.6611C426.7583 805.6611 446.7783 785.6411 446.7783 762.2111V446.2911H762.2083C785.6483 446.2911 805.6683 426.7611 805.6683 402.8311C805.6683 378.9111 785.6483 358.8911 762.2083 358.8911H446.7783V43.4611C446.7783 20.0211 426.7583 0.0011 402.8283 0.0011C378.9083 0.0011 359.3783 20.0211 359.3783 43.4611V358.8911H43.4583C20.0183 358.8911 -0.0017 378.9111 -0.0017 402.8311Z"/>
</svg>