<?xml version="1.0" encoding="UTF-8" standalone="no"?>
<svg xmlns="http://www.w3.org/2000/svg"
     width="1107.3672103163326" height="1107.3672103163324"
     viewBox="0 0 1107.3672103163326 1107.3672103163324"
     fill="currentColor">
  <path d="M54.7573 661.6849L445.8673 1052.7949C518.1273 1125.0649 589.4173 1125.5549 661.1973 1054.2649L1054.2673 660.7049C1125.5573 589.4249 1125.0673 517.6449 1052.7973 445.3749L662.1773 54.7549C589.9073 -17.5151 518.6173 -18.4851 446.8473 53.2849L53.2873 446.3549C-18.4927 518.1349 -17.5127 589.4249 54.7573 661.6849ZM111.3973 607.4849C76.7273 572.3349 75.7473 535.7049 111.8773 499.5749L499.5773 111.8849C535.7073 75.7449 572.3273 76.2349 607.4873 111.3949L996.1573 500.0649C1030.8273 534.7349 1031.8073 571.8449 995.6673 607.9749L607.9773 995.6749C571.8473 1031.8049 534.2473 1030.8249 500.0673 996.6449ZM327.2173 553.7749C327.2173 577.7049 344.3073 593.8149 369.2073 593.8149H512.7573V737.8549C512.7573 762.2749 529.3573 779.3649 552.7973 779.3649C577.6973 779.3649 594.3073 762.7649 594.3073 737.8549V593.8149H738.3473C762.7573 593.8149 779.8473 577.7049 779.8473 553.7749C779.8473 529.3649 763.2473 512.2749 738.3473 512.2749H594.3073V368.7149C594.3073 343.8149 577.6973 326.7249 552.7973 326.7249C529.3573 326.7249 512.7573 343.8149 512.7573 368.7149V512.2749H369.2073C344.3073 512.2749 327.2173 529.3649 327.2173 553.7749Z"/>
</svg>