<?xml version="1.0" encoding="UTF-8" standalone="no"?>
<svg xmlns="http://www.w3.org/2000/svg"
     width="1318.359375" height="945.3125"
     viewBox="0 0 1318.359375 945.3125"
     fill="currentColor">
  <path d="M153.3183 945.3139H970.2183C1057.6183 945.3139 1108.8883 894.5339 1108.8883 793.9439V592.2839H1165.0383C1267.0883 592.2839 1318.3583 541.5039 1318.3583 440.9139V151.3639C1318.3583 50.2939 1267.0883 0.0039 1165.0383 0.0039H745.6083C646.9683 0.0039 596.1883 46.8739 592.7783 141.1139H486.8183C453.6183 141.1139 433.5983 133.3039 409.1783 112.3039L379.3983 87.8939C347.1683 60.5439 322.2683 51.7539 273.9283 51.7539H134.7683C49.3183 51.7539 -0.0017 100.5839 -0.0017 198.7339V793.9439C-0.0017 895.0239 51.2683 945.3139 153.3183 945.3139ZM743.1683 518.5539C693.8483 518.5539 666.5083 492.1839 666.5083 440.4339V151.3639C666.5083 100.0939 693.8483 73.7339 743.1683 73.7339H1167.9683C1216.7983 73.7339 1244.6283 100.0939 1244.6283 151.3639V440.4339C1244.6283 492.1839 1216.7983 518.5539 1168.9483 518.5539ZM78.6183 203.1239C78.6183 154.7839 104.0083 129.8839 150.8783 129.8839H253.9083C286.1283 129.8839 305.6683 138.1839 330.5683 159.1839L360.3483 184.0839C392.0883 210.4539 417.9683 219.7239 466.3083 219.7239H592.7783V324.7039H78.6183ZM955.5683 452.1439C973.6283 452.1439 985.3483 440.4339 985.3483 422.3639V327.1439H1080.5683C1098.6283 327.1439 1110.8383 315.4339 1110.8383 296.8739C1110.8383 278.8039 1098.6283 267.0939 1080.5683 267.0939H985.3483V171.8739C985.3483 153.8039 973.6283 141.6039 955.5683 141.6039C937.4983 141.6039 925.7783 153.8039 925.7783 171.8739V267.0939H830.0783C812.4983 267.0939 800.2883 278.8039 800.2883 296.8739C800.2883 315.4339 812.4983 327.1439 830.0783 327.1439H925.7783V422.3639C925.7783 440.4339 937.4983 452.1439 955.5683 452.1439ZM745.6083 592.2839H1030.2783V790.5239C1030.2783 840.8239 1002.4383 866.7039 954.0983 866.7039H154.2983C105.4683 866.7039 78.6183 840.8239 78.6183 790.0439V398.4339H592.7783V440.9139C592.7783 541.5039 643.5583 592.2839 745.6083 592.2839Z"/>
</svg>