<?xml version="1.0" encoding="UTF-8" standalone="no"?>
<svg xmlns="http://www.w3.org/2000/svg"
     width="923.828125" height="922.36328125"
     viewBox="0 0 923.828125 922.36328125"
     fill="currentColor">
  <path d="M495.6083 480.9566L778.8083 62.0166C785.6483 52.7366 788.0883 44.4366 788.0883 34.6666C788.0883 15.1366 770.9983 -0.0034 750.9783 -0.0034C733.8883 -0.0034 724.6083 5.3666 710.9383 25.3866L430.6683 441.4066L146.9683 859.3766C140.6283 868.6566 137.2083 876.4666 137.2083 887.2066C137.2083 908.2066 154.7883 922.3666 176.2683 922.3666C192.3783 922.3666 201.6583 915.5266 214.3583 897.4566ZM-0.0017 245.1166C-0.0017 264.1566 15.1383 279.2966 34.6683 279.2966H133.7883V378.9066C133.7883 398.4366 149.4183 413.0866 167.9683 413.0866C187.4983 413.0866 202.6383 397.9466 202.6383 378.9066V279.2966H302.2483C321.2883 279.2966 336.9183 264.1566 336.9183 245.1166C336.9183 226.0766 321.2883 210.4466 302.2483 210.4466H202.6383V110.8366C202.6383 91.7966 187.0083 76.1766 167.9683 76.1766C148.9283 76.1766 133.7883 91.7966 133.7883 110.8366V210.4466H34.6683C15.1383 210.4466 -0.0017 226.0766 -0.0017 245.1166ZM586.9183 710.9366C586.9183 729.9766 602.0483 745.6066 621.0983 745.6066H889.1583C908.1983 745.6066 923.8283 729.9766 923.8283 710.9366C923.8283 691.8966 908.1983 676.7566 889.1583 676.7566H621.0983C602.0483 676.7566 586.9183 691.8966 586.9183 710.9366Z"/>
</svg>