<?xml version="1.0" encoding="UTF-8" standalone="no"?>
<svg xmlns="http://www.w3.org/2000/svg"
     width="858.88671875" height="1056.640625"
     viewBox="0 0 858.88671875 1056.640625"
     fill="currentColor">
  <path d="M117.6783 333.0028C117.6783 430.6628 178.7083 499.0228 294.9183 531.2528L540.5283 600.5828C621.0983 623.5328 662.1083 665.0428 662.1083 723.6328V747.0728C594.2383 764.6528 543.9483 826.1728 543.9483 899.9028C543.9483 986.3328 614.7483 1056.6428 701.6583 1056.6428C788.5783 1056.6428 858.8883 986.3328 858.8883 899.9028C858.8883 826.1728 808.5983 764.6528 740.7183 747.0728V723.6328C740.7183 626.4628 680.1783 558.1028 563.9683 525.8828L318.3583 456.5428C238.2783 434.0828 196.2883 391.6028 196.2883 333.0028V310.0628C264.6483 292.4828 314.4483 230.9528 314.4483 157.2228C314.4483 70.8028 244.1383 0.0028 157.2283 0.0028C70.3083 0.0028 -0.0017 70.8028 -0.0017 157.2228C-0.0017 230.9528 50.2883 292.4828 117.6783 310.0628ZM157.2283 238.2828C112.3083 238.2828 76.6583 202.6328 76.6583 157.2228C76.6583 111.8128 112.3083 76.6628 157.2283 76.6628C202.6383 76.6628 237.7883 111.8128 237.7883 157.2228C237.7883 202.6328 203.1283 238.2828 157.2283 238.2828Z"/>
</svg>