<?xml version="1.0" encoding="UTF-8" standalone="no"?>
<svg xmlns="http://www.w3.org/2000/svg"
     width="996.09375" height="996.09375"
     viewBox="0 0 996.09375 996.09375"
     fill="currentColor">
  <path d="M498.0477 996.0959C770.5077 996.0959 996.0977 770.0159 996.0977 498.0459C996.0977 225.5859 770.0177 -0.0041 497.5577 -0.0041C225.5877 -0.0041 -0.0023 225.5859 -0.0023 498.0459C-0.0023 770.0159 226.0777 996.0959 498.0477 996.0959ZM498.0477 913.0859C267.5777 913.0859 83.4977 728.5159 83.4977 498.0459C83.4977 267.5759 267.0877 83.0059 497.5577 83.0059C728.0277 83.0059 913.0877 267.5759 913.0877 498.0459C913.0877 728.5159 728.5177 913.0859 498.0477 913.0859ZM418.9477 400.3859C436.5277 375.4859 466.7977 361.8159 496.5777 361.8159C526.8577 361.8159 557.1277 375.4859 574.2177 400.3859C590.8177 380.8559 615.7277 369.6259 642.0877 369.6259C658.2077 369.6259 673.8277 373.5359 687.0077 381.3459C694.3377 370.1159 698.7277 356.4459 698.7277 342.2859C698.7277 301.2659 672.3677 271.9759 634.2777 271.4859C624.5077 248.0459 605.9577 232.4259 580.0777 232.4259C563.4777 232.4259 548.8277 237.7959 537.5977 248.5359C531.2477 247.0659 522.9477 246.5859 516.1177 248.0459C505.8577 224.6059 483.3977 209.9559 458.0077 209.9559C423.8277 209.9559 401.8577 230.4659 397.4577 251.4659C379.3977 249.5159 363.2777 266.6059 363.2777 282.7159C327.1477 281.7359 297.3677 311.5259 297.3677 348.1459C297.3677 359.8659 299.8077 370.1159 305.6677 381.3459C318.8477 374.0259 334.9577 369.6259 351.5577 369.6259C377.9277 369.6259 402.8277 380.8559 418.9477 400.3859ZM467.2877 776.3659H526.3677L555.1777 457.0359C558.5977 413.5759 522.4577 396.4859 496.5777 396.4859C471.1877 396.4859 435.0577 413.5759 438.4777 457.0359ZM403.3177 776.3659H433.5977L404.2977 451.6559C401.8577 420.4059 377.4377 404.2959 351.5577 404.2959C320.3077 404.2959 290.0377 428.2259 298.8277 474.1259L346.1877 722.6559C352.5377 756.3459 368.6477 776.3659 403.3177 776.3659ZM590.3277 776.3659C624.9977 776.3659 641.1177 756.3459 647.4577 722.6559L694.8277 474.1259C703.6177 428.2259 673.3377 404.2959 642.0877 404.2959C616.2077 404.2959 591.7977 420.4059 589.3577 451.6559L560.0577 776.3659Z"/>
</svg>