<?xml version="1.0" encoding="UTF-8" standalone="no"?>
<svg xmlns="http://www.w3.org/2000/svg"
     width="894.0721044045049" height="1234.86328125"
     viewBox="0 0 894.0721044045049 1234.86328125"
     fill="currentColor">
  <path d="M225.1274 1156.7348H520.0474C535.6774 1164.5548 552.2774 1169.9248 570.3374 1171.3848C592.8074 1208.9848 636.2574 1234.8648 684.1074 1234.8648C731.4774 1234.8648 775.4174 1208.0048 795.9274 1166.9948C854.0374 1153.3248 894.0674 1102.0548 894.0674 1042.4848C894.0674 988.7648 860.8674 943.3548 815.9474 920.4148C813.9974 882.3248 796.4174 851.0748 769.5574 830.5648L831.5674 501.4648C842.3174 444.8248 825.7174 397.9448 792.9974 365.7248C814.4774 339.8448 827.6674 306.6448 827.6674 270.0148C827.6674 186.0348 773.9574 126.9548 696.3174 125.0048C675.8074 77.6348 638.2174 45.8948 584.9874 45.8948C551.7874 45.8948 521.0274 57.6148 497.5874 79.1048C485.3774 75.6848 468.7774 74.7048 454.6174 77.6348C433.6274 30.2748 387.2374 0.0048 334.9874 0.0048C265.6574 0.0048 220.2474 42.4848 211.4574 84.9648C174.3474 81.5448 143.0974 115.7248 143.0974 148.9248C68.3874 146.4848 7.3574 208.0048 7.3574 282.7148C7.3574 315.9148 18.5874 346.1948 38.1174 370.1148C7.8374 401.8548 -7.2926 446.7748 3.4474 501.4648L106.4774 1046.8748C119.6574 1117.1848 155.3074 1156.7348 225.1274 1156.7348ZM417.5074 295.4148C352.0774 295.4148 299.3474 324.7048 271.9974 369.6248C244.6574 337.8948 206.0874 320.3148 162.1374 320.3148C139.6774 320.3148 118.1974 324.2148 99.1474 331.0548C85.4774 319.8248 77.1774 302.2448 77.1774 282.7148C77.1774 236.8148 126.9774 206.0548 179.7174 222.6548C172.8774 172.8548 223.6574 135.7448 273.4674 160.1548C258.3274 103.0248 294.4674 70.8048 334.9874 70.8048C374.5374 70.8048 414.5774 101.0748 406.7674 159.1748C438.5074 138.1848 491.7274 142.5748 518.5874 163.0848C531.2774 133.7848 557.6474 116.6948 588.4074 116.6948C632.3574 116.6948 655.3074 151.8548 653.8374 200.6848C714.3874 190.9148 757.8374 218.2648 757.8374 274.9048C757.8374 296.3848 746.6074 315.9148 730.0074 329.1048C711.9474 323.7348 692.8974 320.3148 672.8774 320.3148C628.9374 320.3148 590.3574 337.8948 563.0174 369.6248C535.6774 324.7048 482.9374 295.4148 417.5074 295.4148ZM373.5674 1083.9848L317.8974 473.1448C312.0374 409.6648 351.5874 368.1648 417.5074 368.1648C483.4274 368.1648 522.9774 409.6648 517.1174 473.1448L472.1974 971.1948C458.5274 991.6948 450.7174 1016.1148 450.7174 1041.9948C450.7174 1056.6448 453.1574 1070.8048 457.5474 1083.9848ZM588.8974 476.0748C593.7774 421.8748 629.4274 393.0648 672.8774 393.0648C726.1074 393.0648 772.9774 432.1248 760.2874 497.5548L700.7174 804.1948C695.3374 803.7148 689.9674 803.2248 684.1074 803.2248C613.7974 803.2248 557.1574 848.1448 552.7674 915.5248C551.7874 915.5248 550.3174 916.0148 549.3474 916.5048ZM227.5674 1083.9848C200.7174 1083.9848 185.0874 1070.3148 180.2074 1043.4548L74.7374 497.5548C62.0374 432.1248 108.9174 393.0648 162.1374 393.0648C205.5974 393.0648 241.2374 421.8748 245.6374 476.0748L300.8074 1083.9848ZM684.1074 1171.8748C646.5174 1171.8748 611.8474 1148.4348 613.7974 1104.4948C563.9974 1120.1148 513.2174 1094.2348 513.2174 1041.9948C513.2174 988.7648 555.2074 958.9848 616.7274 969.2348C600.6174 923.8248 624.5374 866.2148 684.1074 866.2148C741.7274 866.2148 769.0674 921.3848 753.4474 972.6548C798.8574 967.7748 829.6174 997.0748 829.6174 1044.9248C829.6174 1086.9148 799.8374 1111.8148 751.0074 1107.4248C752.4674 1145.0148 718.7774 1171.8748 684.1074 1171.8748Z"/>
</svg>