<?xml version="1.0" encoding="UTF-8" standalone="no"?>
<svg xmlns="http://www.w3.org/2000/svg"
     width="996.09375" height="996.09375"
     viewBox="0 0 996.09375 996.09375"
     fill="currentColor">
  <path d="M498.0477 996.0977C770.5077 996.0977 996.0977 770.5077 996.0977 498.0477C996.0977 226.0777 770.0177 -0.0023 497.5577 -0.0023C225.5877 -0.0023 -0.0023 226.0777 -0.0023 498.0477C-0.0023 770.5077 226.0777 996.0977 498.0477 996.0977ZM416.5077 397.4577C399.8977 377.4377 374.0277 365.7177 347.1677 365.7177C330.0777 365.7177 313.4777 370.6077 299.8077 377.9277C293.4577 366.6977 291.0177 355.9577 291.0177 343.7477C291.0177 305.6677 321.7777 275.8777 359.3777 276.8577C359.3777 259.7677 374.9977 242.1877 394.0477 244.1377C398.9277 222.1677 421.3877 201.6577 456.5477 201.6577C482.9077 201.6577 506.3477 216.3077 516.5977 240.2377C523.9277 238.7677 532.2277 239.2577 538.0877 241.2077C550.2977 230.4677 565.4277 224.1177 582.5177 224.1177C609.3777 224.1177 628.4177 240.2377 638.6677 264.6477C677.7377 265.1377 705.0777 295.4077 705.0777 337.8877C705.0777 352.0477 700.6877 366.2077 692.8677 377.9277C679.1977 370.1177 663.0877 365.7177 646.4877 365.7177C619.6277 365.7177 593.2577 377.4377 576.6577 397.4577C559.0777 372.0677 527.8277 357.9077 496.5777 357.9077C465.8177 357.9077 434.5677 372.0677 416.5077 397.4577ZM466.3077 785.1577L436.5277 456.0577C433.1077 411.1377 469.7277 393.5577 496.5777 393.5577C523.4377 393.5577 560.5477 411.1377 557.1277 456.0577L527.3477 785.1577ZM400.3877 785.1577C364.7477 785.1577 348.1477 764.6477 341.3077 729.9777L292.4777 473.6377C283.6877 426.2677 314.9377 401.8577 347.1677 401.8577C373.5377 401.8577 398.9277 418.4577 401.3677 450.6877L431.6377 785.1577ZM593.2577 785.1577H562.0077L592.2877 450.6877C594.7277 418.4577 620.1177 401.8577 646.4877 401.8577C678.7077 401.8577 709.9577 426.2677 701.1677 473.6377L652.3477 729.9777C645.5077 764.6477 628.9077 785.1577 593.2577 785.1577Z"/>
</svg>