<?xml version="1.0" encoding="UTF-8" standalone="no"?>
<svg xmlns="http://www.w3.org/2000/svg"
     width="898.92578125" height="898.92578125"
     viewBox="0 0 898.92578125 898.92578125"
     fill="currentColor">
  <path d="M153.3183 898.9295H745.6083C848.1483 898.9295 898.9283 848.1495 898.9283 747.5595V151.3695C898.9283 50.7795 848.1483 -0.0005 745.6083 -0.0005H153.3183C51.2683 -0.0005 -0.0017 50.2895 -0.0017 151.3695V747.5595C-0.0017 848.6295 51.2683 898.9295 153.3183 898.9295ZM154.2983 820.3095C105.4683 820.3095 78.6183 794.4295 78.6183 743.6495V155.2695C78.6183 104.4895 105.4683 78.6095 154.2983 78.6095H744.6283C792.9683 78.6095 820.3083 104.4895 820.3083 155.2695V743.6495C820.3083 794.4295 792.9683 820.3095 744.6283 820.3095ZM258.7883 677.7295H640.1383C666.5083 677.7295 686.0383 658.1995 686.0383 631.8395V265.6295C686.0383 239.2595 666.5083 219.7295 640.1383 219.7295H258.7883C232.4183 219.7295 212.8883 239.2595 212.8883 265.6295V631.8395C212.8883 658.1995 232.4183 677.7295 258.7883 677.7295ZM356.4483 450.1995C342.2883 450.1995 331.0583 439.4495 331.0583 424.3195V340.8195C331.0583 326.1695 342.2883 314.4495 356.4483 314.4495C371.0983 314.4495 382.8083 326.1695 382.8083 340.8195V424.3195C382.8083 439.4495 371.0983 450.1995 356.4483 450.1995ZM541.9883 450.1995C527.3483 450.1995 516.1183 439.4495 516.1183 424.3195V340.8195C516.1183 326.1695 527.3483 314.4495 541.9883 314.4495C556.1483 314.4495 567.8683 326.1695 567.8683 340.8195V424.3195C567.8683 439.4495 556.1483 450.1995 541.9883 450.1995ZM418.4583 598.6295C409.1783 598.6295 404.7883 594.2395 404.7883 584.9595V555.6595C404.7883 530.2695 423.8283 510.7395 449.7083 510.7395C474.6083 510.7395 494.1383 530.2695 494.1383 555.6595V584.9595C494.1383 594.2395 489.7483 598.6295 480.4683 598.6295Z"/>
</svg>