<?xml version="1.0" encoding="UTF-8" standalone="no"?>
<svg xmlns="http://www.w3.org/2000/svg"
     width="898.92578125" height="898.92578125"
     viewBox="0 0 898.92578125 898.92578125"
     fill="currentColor">
  <path d="M153.3183 898.9295H745.6083C848.1483 898.9295 898.9283 848.1495 898.9283 747.5595V151.3695C898.9283 50.7795 848.1483 -0.0005 745.6083 -0.0005H153.3183C51.2683 -0.0005 -0.0017 50.2895 -0.0017 151.3695V747.5595C-0.0017 848.6295 51.2683 898.9295 153.3183 898.9295ZM279.2983 293.4595H619.6283C651.8583 293.4595 664.0583 307.6195 680.6683 324.7095L770.0183 415.0395C788.0883 433.1095 788.0883 463.3795 770.0183 481.4495L680.6683 572.7495C664.0583 589.8395 646.9683 603.9995 619.6283 603.9995H279.2983C251.9483 603.9995 234.8683 589.8395 218.2583 572.7495L128.9083 481.4495C110.8383 463.3795 111.3283 433.1095 128.9083 415.0395L218.2583 324.7095C234.8683 307.6195 247.0683 293.4595 279.2983 293.4595ZM268.0683 398.9295C241.2083 398.9295 218.2583 421.8795 218.2583 448.7295C218.2583 475.5895 241.2083 498.0495 268.0683 498.0495C294.9183 498.0495 317.8683 475.5895 317.8683 448.7295C317.8683 421.8795 294.9183 398.9295 268.0683 398.9295ZM630.8583 398.9295C604.0083 398.9295 581.5383 421.8795 581.5383 448.7295C581.5383 475.5895 604.0083 498.0495 630.8583 498.0495C657.7183 498.0495 680.6683 475.5895 680.6683 448.7295C680.6683 421.8795 657.7183 398.9295 630.8583 398.9295ZM449.7083 435.0595C422.3683 435.0595 399.8983 458.0095 399.8983 484.8595C399.8983 511.7195 422.3683 534.6695 449.7083 534.6695C476.5583 534.6695 499.0283 511.7195 499.0283 484.8595C499.0283 458.0095 476.5583 435.0595 449.7083 435.0595Z"/>
</svg>