<?xml version="1.0" encoding="UTF-8" standalone="no"?>
<svg xmlns="http://www.w3.org/2000/svg"
     width="541.9921875" height="1065.4296875"
     viewBox="0 0 541.9921875 1065.4296875"
     fill="currentColor">
  <path d="M150.3883 1065.4339H391.5983C490.7183 1065.4339 541.9883 1014.6439 541.9883 916.9939V148.9239C541.9883 51.2739 490.7183 0.0039 391.5983 0.0039H150.3883C51.7583 0.0039 -0.0017 51.2739 -0.0017 148.9239V916.9939C-0.0017 1014.6439 51.7583 1065.4339 150.3883 1065.4339ZM271.4883 336.9139C229.4883 336.9139 195.3083 303.2239 195.3083 260.7439C195.3083 219.7239 229.4883 186.0339 271.4883 186.0339C312.9883 186.0339 347.1683 219.7239 347.1683 260.7439C347.1683 303.2239 312.9883 336.9139 271.4883 336.9139ZM271.4883 608.3939C229.4883 608.3939 195.3083 574.7039 195.3083 532.7139C195.3083 491.2139 229.4883 457.0339 271.4883 457.0339C312.9883 457.0339 347.1683 491.2139 347.1683 532.7139C347.1683 574.7039 312.9883 608.3939 271.4883 608.3939ZM271.4883 879.8839C229.4883 879.8839 195.3083 845.7039 195.3083 804.2039C195.3083 762.6939 229.4883 729.0039 271.4883 729.0039C312.9883 729.0039 347.1683 762.6939 347.1683 804.2039C347.1683 845.7039 312.9883 879.8839 271.4883 879.8839Z"/>
</svg>