<?xml version="1.0" encoding="UTF-8" standalone="no"?>
<svg xmlns="http://www.w3.org/2000/svg"
     width="929.6875" height="898.92578125"
     viewBox="0 0 929.6875 898.92578125"
     fill="currentColor">
  <path d="M153.3183 898.9295H776.3683C878.4183 898.9295 929.6883 848.1495 929.6883 747.5595V151.3695C929.6883 50.7795 878.4183 -0.0005 776.3683 -0.0005H153.3183C51.2683 -0.0005 -0.0017 50.2895 -0.0017 151.3695V747.5595C-0.0017 848.6295 51.2683 898.9295 153.3183 898.9295ZM464.8483 387.6995C413.0883 387.6995 371.0983 346.1895 371.0983 293.9495C371.0983 242.1895 413.0883 200.1995 464.8483 200.1995C516.5983 200.1995 558.5983 242.1895 558.5983 293.9495C558.5983 346.1895 516.5983 387.6995 464.8483 387.6995ZM292.4783 697.7495C250.4883 697.7495 216.3083 663.5695 216.3083 621.5795C216.3083 580.0795 250.4883 546.3895 292.4783 546.3895C333.9883 546.3895 367.6783 580.0795 367.6783 621.5795C367.6783 663.5695 333.9883 697.7495 292.4783 697.7495ZM637.6983 697.7495C595.6983 697.7495 562.0083 663.5695 562.0083 621.5795C562.0083 580.0795 595.6983 546.3895 637.6983 546.3895C678.7083 546.3895 713.3783 580.0795 713.3783 621.5795C713.3783 663.5695 678.7083 697.7495 637.6983 697.7495Z"/>
</svg>