<?xml version="1.0" encoding="UTF-8" standalone="no"?>
<svg xmlns="http://www.w3.org/2000/svg"
     width="929.6875" height="898.92578125"
     viewBox="0 0 929.6875 898.92578125"
     fill="currentColor">
  <path d="M153.3183 898.9295H776.3683C878.4183 898.9295 929.6883 848.1495 929.6883 747.5595V151.3695C929.6883 50.7795 878.4183 -0.0005 776.3683 -0.0005H153.3183C51.2683 -0.0005 -0.0017 50.2895 -0.0017 151.3695V747.5595C-0.0017 848.6295 51.2683 898.9295 153.3183 898.9295ZM154.2983 820.3095C105.4683 820.3095 78.6183 794.4295 78.6183 743.6495V155.2695C78.6183 104.4895 105.4683 78.6095 154.2983 78.6095H774.8983C823.2383 78.6095 851.0783 104.4895 851.0783 155.2695V743.6495C851.0783 794.4295 823.2383 820.3095 774.8983 820.3095ZM444.8283 391.1095H484.3783C500.9783 391.1095 511.7183 379.8795 511.7183 363.2795V220.6995C511.7183 204.0995 500.9783 192.8695 484.3783 192.8695H444.8283C428.7083 192.8695 417.4783 204.0995 417.4783 220.6995V363.2795C417.4783 379.8795 428.7083 391.1095 444.8283 391.1095ZM229.9783 679.1995H357.4183C374.0283 679.1995 384.7683 668.4595 384.7683 651.8595V612.3095C384.7683 595.6995 374.0283 584.9595 357.4183 584.9595H229.9783C213.3783 584.9595 202.6383 596.1895 202.6383 612.3095V651.8595C202.6383 668.4595 213.3783 679.1995 229.9783 679.1995ZM572.2683 679.1995H699.2183C716.3083 679.1995 727.0483 668.4595 727.0483 651.8595V612.3095C727.0483 596.1895 715.8183 584.9595 699.2183 584.9595H572.2683C555.6683 584.9595 544.4383 595.6995 544.4383 612.3095V651.8595C544.4383 668.4595 555.6683 679.1995 572.2683 679.1995Z"/>
</svg>