<?xml version="1.0" encoding="UTF-8" standalone="no"?>
<svg xmlns="http://www.w3.org/2000/svg"
     width="898.92578125" height="898.92578125"
     viewBox="0 0 898.92578125 898.92578125"
     fill="currentColor">
  <path d="M153.3183 898.9295H745.6083C848.1483 898.9295 898.9283 848.1495 898.9283 747.5595V151.3695C898.9283 50.7795 848.1483 -0.0005 745.6083 -0.0005H153.3183C51.2683 -0.0005 -0.0017 50.2895 -0.0017 151.3695V747.5595C-0.0017 848.6295 51.2683 898.9295 153.3183 898.9295ZM154.2983 820.3095C105.4683 820.3095 78.6183 794.4295 78.6183 743.6495V155.2695C78.6183 104.4895 105.4683 78.6095 154.2983 78.6095H744.6283C792.9683 78.6095 820.3083 104.4895 820.3083 155.2695V743.6495C820.3083 794.4295 792.9683 820.3095 744.6283 820.3095ZM289.5483 277.8295C259.2783 277.8295 246.0983 289.5495 232.4183 307.1295L148.4383 417.4795C133.7883 436.0395 133.7883 459.9595 148.4383 478.9995L232.4183 590.3295C246.0983 607.9095 263.6683 619.1395 289.5483 619.1395H609.3783C635.2583 619.1395 652.8283 607.9095 666.5083 590.3295L750.4883 478.9995C765.1383 459.9595 765.1383 436.0395 750.4883 417.4795L666.5083 307.1295C652.8283 289.5495 639.6483 277.8295 609.3783 277.8295ZM278.8083 401.8595C304.1983 401.8595 325.6883 423.3395 325.6883 448.7295C325.6883 474.1195 304.1983 495.1195 278.8083 495.1195C253.9083 495.1195 232.4183 474.1195 232.4183 448.7295C232.4183 423.3395 253.9083 401.8595 278.8083 401.8595ZM620.1183 401.8595C645.0183 401.8595 666.5083 423.3395 666.5083 448.7295C666.5083 474.1195 645.0183 495.1195 620.1183 495.1195C594.7283 495.1195 573.7283 474.1195 573.7283 448.7295C573.7283 423.3395 594.7283 401.8595 620.1183 401.8595ZM449.7083 459.4695C475.0983 459.4695 496.0983 480.9595 496.0983 505.8595C496.0983 531.2495 475.0983 552.7295 449.7083 552.7295C423.8283 552.7295 402.8283 531.2495 402.8283 505.8595C402.8283 480.9595 423.8283 459.4695 449.7083 459.4695Z"/>
</svg>