<?xml version="1.0" encoding="UTF-8" standalone="no"?>
<svg xmlns="http://www.w3.org/2000/svg"
     width="929.6875" height="898.92578125"
     viewBox="0 0 929.6875 898.92578125"
     fill="currentColor">
  <path d="M153.3183 898.9295H776.3683C878.4183 898.9295 929.6883 848.1495 929.6883 747.5595V151.3695C929.6883 50.7795 878.4183 -0.0005 776.3683 -0.0005H153.3183C51.2683 -0.0005 -0.0017 50.2895 -0.0017 151.3695V747.5595C-0.0017 848.6295 51.2683 898.9295 153.3183 898.9295ZM154.2983 820.3095C105.4683 820.3095 78.6183 794.4295 78.6183 743.6495V155.2695C78.6183 104.4895 105.4683 78.6095 154.2983 78.6095H774.8983C823.2383 78.6095 851.0783 104.4895 851.0783 155.2695V743.6495C851.0783 794.4295 823.2383 820.3095 774.8983 820.3095ZM464.8483 391.5995C504.8783 391.5995 538.0883 358.8895 538.0883 318.3595C538.0883 277.8295 504.8783 245.1195 464.8483 245.1195C424.3183 245.1195 391.1183 277.8295 391.1183 318.3595C391.1183 358.8895 424.3183 391.5995 464.8483 391.5995ZM297.8483 652.3395C337.8883 652.3395 370.6083 619.6295 370.6083 579.0995C370.6083 539.0595 337.8883 505.8595 297.8483 505.8595C256.8383 505.8595 224.1183 539.0595 224.1183 579.0995C224.1183 619.6295 256.8383 652.3395 297.8483 652.3395ZM632.3283 652.3395C672.3683 652.3395 705.5683 619.6295 705.5683 579.0995C705.5683 539.0595 672.3683 505.8595 632.3283 505.8595C591.7983 505.8595 559.0783 539.0595 559.0783 579.0995C559.0783 619.6295 591.7983 652.3395 632.3283 652.3395Z"/>
</svg>