<?xml version="1.0" encoding="UTF-8" standalone="no"?>
<svg xmlns="http://www.w3.org/2000/svg"
     width="984.86328125" height="1027.83203125"
     viewBox="0 0 984.86328125 1027.83203125"
     fill="currentColor">
  <path d="M492.6777 116.207C524.8977 116.207 550.2977 90.327 550.2977 58.107C550.2977 25.877 524.8977 -0.003 492.6777 -0.003C459.9577 -0.003 434.5677 25.877 434.5677 58.107C434.5677 90.327 459.9577 116.207 492.6777 116.207ZM151.3677 316.897C183.5977 316.897 209.4777 291.507 209.4777 258.787C209.4777 226.567 183.5977 201.167 151.3677 201.167C119.1377 201.167 93.2577 226.567 93.2577 258.787C93.2577 291.507 119.1377 316.897 151.3677 316.897ZM833.4977 316.897C865.7277 316.897 891.5977 291.507 891.5977 258.787C891.5977 226.567 865.7277 201.167 833.4977 201.167C801.2677 201.167 775.3877 226.567 775.3877 258.787C775.3877 291.507 801.2677 316.897 833.4977 316.897ZM492.6777 342.777C524.8977 342.777 550.2977 317.387 550.2977 285.157C550.2977 252.437 524.8977 227.047 492.6777 227.047C459.9577 227.047 434.5677 252.437 434.5677 285.157C434.5677 317.387 459.9577 342.777 492.6777 342.777ZM58.1077 540.527C90.3277 540.527 115.7277 515.137 115.7277 482.907C115.7277 450.687 90.3277 424.807 58.1077 424.807C25.8777 424.807 -0.0023 450.687 -0.0023 482.907C-0.0023 515.137 25.3877 540.527 58.1077 540.527ZM927.2477 540.527C959.4777 540.527 984.8677 515.137 984.8677 482.907C984.8677 450.687 958.9877 424.807 926.7577 424.807C894.5277 424.807 869.1377 450.687 869.1377 482.907C869.1377 515.137 894.5277 540.527 927.2477 540.527ZM492.6777 570.317C524.8977 570.317 550.2977 544.437 550.2977 512.207C550.2977 479.977 524.8977 454.097 492.6777 454.097C459.9577 454.097 434.5677 479.977 434.5677 512.207C434.5677 544.437 459.9577 570.317 492.6777 570.317ZM95.2177 768.067C127.4377 768.067 153.3177 742.677 153.3177 710.447C153.3177 678.227 127.4377 652.347 95.2177 652.347C62.9877 652.347 37.1077 678.227 37.1077 710.447C37.1077 742.677 62.9877 768.067 95.2177 768.067ZM889.6477 768.067C921.8777 768.067 947.7577 742.677 947.7577 710.447C947.7577 678.227 921.8777 652.347 889.6477 652.347C857.4177 652.347 831.5477 678.227 831.5477 710.447C831.5477 742.677 857.4177 768.067 889.6477 768.067ZM251.4677 956.057C283.6877 956.057 309.5677 930.667 309.5677 898.437C309.5677 866.207 283.6877 840.327 251.4677 840.327C219.2377 840.327 193.3577 866.207 193.3577 898.437C193.3577 930.667 219.2377 956.057 251.4677 956.057ZM733.3977 956.057C765.6277 956.057 791.5077 930.667 791.5077 898.437C791.5077 866.207 765.6277 840.327 733.3977 840.327C701.1677 840.327 675.7777 866.207 675.7777 898.437C675.7777 930.667 701.1677 956.057 733.3977 956.057ZM492.6777 1027.837C524.8977 1027.837 550.2977 1001.957 550.2977 969.727C550.2977 937.497 524.8977 911.617 492.6777 911.617C459.9577 911.617 434.5677 937.497 434.5677 969.727C434.5677 1001.957 459.9577 1027.837 492.6777 1027.837Z"/>
</svg>