<?xml version="1.0" encoding="UTF-8" standalone="no"?>
<svg xmlns="http://www.w3.org/2000/svg"
     width="929.6875" height="898.92578125"
     viewBox="0 0 929.6875 898.92578125"
     fill="currentColor">
  <path d="M153.3183 898.9295H776.3683C878.4183 898.9295 929.6883 848.1495 929.6883 747.5595V151.3695C929.6883 50.7795 878.4183 -0.0005 776.3683 -0.0005H153.3183C51.2683 -0.0005 -0.0017 50.2895 -0.0017 151.3695V747.5595C-0.0017 848.6295 51.2683 898.9295 153.3183 898.9295ZM444.3383 389.6495C427.7383 389.6495 416.0183 377.9295 416.0183 360.8395V213.8695C416.0183 196.7795 427.7383 185.5495 444.3383 185.5495H484.8683C501.9483 185.5495 513.1883 196.7795 513.1883 213.8695V360.8395C513.1883 377.9295 501.9483 389.6495 484.8683 389.6495ZM223.1483 686.5195C205.5683 686.5195 194.8283 675.7795 194.8283 658.6895V617.6795C194.8283 601.0695 205.5683 589.3595 223.1483 589.3595H354.0083C371.0983 589.3595 382.3283 600.5895 382.3283 617.6795V658.6895C382.3283 675.7795 371.0983 686.5195 354.0083 686.5195ZM575.6883 686.5195C558.5983 686.5195 546.8783 675.7795 546.8783 658.6895V617.6795C546.8783 600.5895 558.5983 589.3595 575.6883 589.3595H706.0583C723.6283 589.3595 734.8683 601.0695 734.8683 617.6795V658.6895C734.8683 675.7795 724.1183 686.5195 706.0583 686.5195Z"/>
</svg>