<?xml version="1.0" encoding="UTF-8" standalone="no"?>
<svg xmlns="http://www.w3.org/2000/svg"
     width="898.92578125" height="898.92578125"
     viewBox="0 0 898.92578125 898.92578125"
     fill="currentColor">
  <path d="M153.3183 898.9295H745.6083C848.1483 898.9295 898.9283 848.1495 898.9283 747.5595V151.3695C898.9283 50.7795 848.1483 -0.0005 745.6083 -0.0005H153.3183C51.2683 -0.0005 -0.0017 50.2895 -0.0017 151.3695V747.5595C-0.0017 848.6295 51.2683 898.9295 153.3183 898.9295ZM257.3283 685.5495C229.9783 685.5495 209.9583 665.5295 209.9583 638.1795V260.2495C209.9583 232.9095 229.9783 212.8895 257.3283 212.8895H644.5283C671.8783 212.8895 691.8983 232.9095 691.8983 260.2495V638.1795C691.8983 665.5295 671.8783 685.5495 644.5283 685.5495ZM438.9683 412.5995H461.9183C474.1183 412.5995 483.3983 404.7895 483.3983 392.0895V309.5695C483.3983 297.3595 474.1183 289.0595 461.9183 289.0595H438.9683C426.7583 289.0595 418.4583 297.3595 418.4583 309.5695V392.0895C418.4583 404.7895 426.7583 412.5995 438.9683 412.5995ZM304.6883 604.9795H383.2983C395.0183 604.9795 403.3183 596.6795 403.3183 584.4695V561.0395C403.3183 548.8295 395.0183 540.0395 383.2983 540.0395H304.6883C291.9883 540.0395 283.6883 548.8295 283.6883 561.0395V584.4695C283.6883 596.6795 291.9883 604.9795 304.6883 604.9795ZM519.5283 604.9795H597.1683C609.8683 604.9795 618.1683 596.6795 618.1683 584.4695V561.0395C618.1683 548.8295 609.8683 540.0395 597.1683 540.0395H519.5283C506.8383 540.0395 498.5383 548.8295 498.5383 561.0395V584.4695C498.5383 596.6795 506.8383 604.9795 519.5283 604.9795Z"/>
</svg>