<?xml version="1.0" encoding="UTF-8" standalone="no"?>
<svg xmlns="http://www.w3.org/2000/svg"
     width="996.09375" height="996.09375"
     viewBox="0 0 996.09375 996.09375"
     fill="currentColor">
  <path d="M498.0477 996.0959C770.5077 996.0959 996.0977 770.0159 996.0977 498.0459C996.0977 225.5859 770.0177 -0.0041 497.5577 -0.0041C225.5877 -0.0041 -0.0023 225.5859 -0.0023 498.0459C-0.0023 770.0159 226.0777 996.0959 498.0477 996.0959ZM280.2777 566.4059C227.5377 566.4059 185.5477 523.4359 185.5477 471.1959C185.5477 418.4559 227.5377 375.9759 280.2777 375.9759C333.0077 375.9759 375.4877 418.4559 375.4877 471.1959C375.4877 523.4359 333.0077 566.4059 280.2777 566.4059ZM715.8177 566.4059C663.0877 566.4059 620.6077 523.4359 620.6077 471.1959C620.6077 418.4559 663.0877 375.9759 715.8177 375.9759C768.5577 375.9759 810.5477 418.4559 810.5477 471.1959C810.5477 523.4359 768.5577 566.4059 715.8177 566.4059ZM498.0477 800.7859C445.7977 800.7859 402.8277 758.7859 402.8277 706.0559C402.8277 653.3159 445.7977 610.8359 498.0477 610.8359C550.2977 610.8359 593.2577 653.3159 593.2577 706.0559C593.2577 758.7859 550.2977 800.7859 498.0477 800.7859Z"/>
</svg>