<?xml version="1.0" encoding="UTF-8" standalone="no"?>
<svg xmlns="http://www.w3.org/2000/svg"
     width="996.09375" height="996.09375"
     viewBox="0 0 996.09375 996.09375"
     fill="currentColor">
  <path d="M498.0477 996.0959C770.5077 996.0959 996.0977 770.0159 996.0977 498.0459C996.0977 225.5859 770.0177 -0.0041 497.5577 -0.0041C225.5877 -0.0041 -0.0023 225.5859 -0.0023 498.0459C-0.0023 770.0159 226.0777 996.0959 498.0477 996.0959ZM498.0477 331.0559C462.8877 331.0559 433.5977 301.7559 433.5977 266.6059C433.5977 231.4459 462.8877 202.1459 498.0477 202.1459C533.2077 202.1459 562.4977 231.4459 562.4977 266.6059C562.4977 301.7559 533.2077 331.0559 498.0477 331.0559ZM277.3477 596.6759C225.0977 596.6759 182.6177 553.7059 182.6177 501.4659C182.6177 449.2159 225.0977 406.2459 277.3477 406.2459C330.5677 406.2459 372.5577 449.2159 372.5577 501.4659C372.5577 553.7059 330.5677 596.6759 277.3477 596.6759ZM718.7477 596.6759C665.5277 596.6759 623.5377 553.7059 623.5377 501.4659C623.5377 449.2159 665.5277 406.2459 718.7477 406.2459C770.9977 406.2459 813.4777 449.2159 813.4777 501.4659C813.4777 553.7059 770.9977 596.6759 718.7477 596.6759Z"/>
</svg>