<?xml version="1.0" encoding="UTF-8" standalone="no"?>
<svg xmlns="http://www.w3.org/2000/svg"
     width="898.92578125" height="898.92578125"
     viewBox="0 0 898.92578125 898.92578125"
     fill="currentColor">
  <path d="M153.3183 898.9295H745.6083C848.1483 898.9295 898.9283 848.1495 898.9283 747.5595V151.3695C898.9283 50.7795 848.1483 -0.0005 745.6083 -0.0005H153.3183C51.2683 -0.0005 -0.0017 50.2895 -0.0017 151.3695V747.5595C-0.0017 848.6295 51.2683 898.9295 153.3183 898.9295ZM154.2983 820.3095C105.4683 820.3095 78.6183 794.4295 78.6183 743.6495V155.2695C78.6183 104.4895 105.4683 78.6095 154.2983 78.6095H744.6283C792.9683 78.6095 820.3083 104.4895 820.3083 155.2695V743.6495C820.3083 794.4295 792.9683 820.3095 744.6283 820.3095ZM284.1783 298.3395C253.4183 298.3395 241.6983 312.0095 225.5883 328.6095L138.6683 416.0195C121.5783 433.5895 121.0983 462.8895 138.6683 480.4695L225.5883 568.8495C241.6983 585.4495 257.8083 599.1195 284.1783 599.1195H614.7483C641.1183 599.1195 657.2283 585.4495 673.3383 568.8495L760.2583 480.4695C777.8283 462.8895 777.8283 433.5895 760.2583 416.0195L673.3383 328.6095C657.2283 312.0095 645.5083 298.3395 614.7483 298.3395ZM273.4383 400.3895C299.8083 400.3895 321.7783 422.8495 321.7783 448.7295C321.7783 474.6095 299.8083 496.5795 273.4383 496.5795C247.5583 496.5795 225.5883 474.6095 225.5883 448.7295C225.5883 422.8495 247.5583 400.3895 273.4383 400.3895ZM625.4883 400.3895C651.3683 400.3895 673.3383 422.8495 673.3383 448.7295C673.3383 474.6095 651.3683 496.5795 625.4883 496.5795C599.1183 496.5795 577.6383 474.6095 577.6383 448.7295C577.6383 422.8495 599.1183 400.3895 625.4883 400.3895ZM449.7083 435.5495C475.5883 435.5495 497.5583 457.5195 497.5583 483.8895C497.5583 509.7695 475.5883 531.7395 449.7083 531.7395C423.3383 531.7395 401.3683 509.7695 401.3683 483.8895C401.3683 457.5195 423.3383 435.5495 449.7083 435.5495Z"/>
</svg>