<?xml version="1.0" encoding="UTF-8" standalone="no"?>
<svg xmlns="http://www.w3.org/2000/svg"
     width="541.9921875" height="1065.4296875"
     viewBox="0 0 541.9921875 1065.4296875"
     fill="currentColor">
  <path d="M150.3883 1065.4339H391.5983C490.7183 1065.4339 541.9883 1014.6439 541.9883 916.9939V148.9239C541.9883 51.2739 490.7183 0.0039 391.5983 0.0039H150.3883C51.7583 0.0039 -0.0017 51.2739 -0.0017 148.9239V916.9939C-0.0017 1014.6439 51.7583 1065.4339 150.3883 1065.4339ZM151.8583 986.8139C105.9583 986.8139 78.6183 960.4539 78.6183 913.0839V152.8339C78.6183 104.9839 105.9583 78.6139 151.8583 78.6139H390.1383C436.0383 78.6139 463.3783 104.9839 463.3783 152.8339V913.0839C463.3783 960.4539 436.0383 986.8139 390.1383 986.8139ZM271.4883 342.7739C311.5283 342.7739 344.7283 310.0539 344.7283 269.0439C344.7283 229.0039 311.5283 196.2939 271.4883 196.2939C230.9583 196.2939 197.7583 229.0039 197.7583 269.0439C197.7583 310.0539 230.9583 342.7739 271.4883 342.7739ZM271.4883 605.9539C311.5283 605.9539 344.7283 573.2439 344.7283 532.7139C344.7283 492.6739 311.5283 459.4739 271.4883 459.4739C230.9583 459.4739 197.7583 492.6739 197.7583 532.7139C197.7583 573.2439 230.9583 605.9539 271.4883 605.9539ZM271.4883 869.6239C311.5283 869.6239 344.7283 836.4239 344.7283 795.8939C344.7283 755.8639 311.5283 723.1439 271.4883 723.1439C230.9583 723.1439 197.7583 755.8639 197.7583 795.8939C197.7583 836.4239 230.9583 869.6239 271.4883 869.6239Z"/>
</svg>