<?xml version="1.0" encoding="UTF-8" standalone="no"?>
<svg xmlns="http://www.w3.org/2000/svg"
     width="898.92578125" height="898.92578125"
     viewBox="0 0 898.92578125 898.92578125"
     fill="currentColor">
  <path d="M153.3183 898.9295H745.6083C848.1483 898.9295 898.9283 848.1495 898.9283 747.5595V151.3695C898.9283 50.7795 848.1483 -0.0005 745.6083 -0.0005H153.3183C51.2683 -0.0005 -0.0017 50.2895 -0.0017 151.3695V747.5595C-0.0017 848.6295 51.2683 898.9295 153.3183 898.9295ZM161.6183 495.6095V402.3395C161.6183 383.2995 174.8083 370.6095 193.8483 370.6095H215.8183V346.1895C215.8183 259.7695 328.1283 180.1795 449.7083 180.1795C570.7983 180.1795 683.1083 259.7695 683.1083 346.1895V370.6095H705.0783C724.1183 370.6095 737.3083 383.2995 737.3083 402.3395V495.6095C737.3083 514.6495 724.1183 527.3395 705.0783 527.3395H683.1083V551.2695C683.1083 638.1795 570.7983 717.7695 449.7083 717.7695C328.1283 717.7695 215.8183 638.1795 215.8183 551.2695V527.3395H193.8483C174.8083 527.3395 161.6183 514.6495 161.6183 495.6095ZM324.2183 507.8095C356.9383 507.8095 383.2983 481.4495 383.2983 448.7295C383.2983 416.4995 356.9383 390.1395 324.2183 390.1395C291.9883 390.1395 265.1383 416.4995 265.1383 448.7295C265.1383 481.4495 291.9883 507.8095 324.2183 507.8095ZM574.7083 507.8095C606.9383 507.8095 633.7883 481.4495 633.7883 448.7295C633.7883 416.4995 606.9383 390.1395 574.7083 390.1395C542.4783 390.1395 515.6283 416.4995 515.6283 448.7295C515.6283 481.4495 542.4783 507.8095 574.7083 507.8095Z"/>
</svg>