<?xml version="1.0" encoding="UTF-8" standalone="no"?>
<svg xmlns="http://www.w3.org/2000/svg"
     width="929.6875" height="898.92578125"
     viewBox="0 0 929.6875 898.92578125"
     fill="currentColor">
  <path d="M153.3183 898.9295H776.3683C878.4183 898.9295 929.6883 848.1495 929.6883 747.5595V151.3695C929.6883 50.7795 878.4183 -0.0005 776.3683 -0.0005H153.3183C51.2683 -0.0005 -0.0017 50.2895 -0.0017 151.3695V747.5595C-0.0017 848.6295 51.2683 898.9295 153.3183 898.9295ZM154.2983 820.3095C105.4683 820.3095 78.6183 794.4295 78.6183 743.6495V155.2695C78.6183 104.4895 105.4683 78.6095 154.2983 78.6095H774.8983C823.2383 78.6095 851.0783 104.4895 851.0783 155.2695V743.6495C851.0783 794.4295 823.2383 820.3095 774.8983 820.3095ZM688.4783 433.1095L716.7983 404.7895C728.0283 393.5595 728.0283 378.4195 715.8183 366.2095L601.5583 251.9495C589.8483 240.2295 574.7083 240.2295 562.9883 251.4695L535.1583 279.7895C522.9483 291.4995 522.9483 306.6395 535.1583 318.8495L649.4183 433.1095C661.1283 444.8195 676.2683 444.8195 688.4783 433.1095ZM212.8883 405.2695L241.2083 433.1095C252.9283 444.8195 268.5583 444.8195 280.2783 433.1095L394.5283 318.8495C406.7383 306.6395 406.7383 291.4995 394.5283 279.7895L366.6983 251.4695C354.9783 240.2295 340.3283 240.2295 328.1283 251.9495L213.3783 366.2095C201.6583 377.9295 201.6583 393.5595 212.8883 405.2695ZM444.8283 693.8495H484.3783C500.9783 693.8495 511.7183 683.1095 511.7183 666.0195V523.4395C511.7183 506.8395 500.9783 495.6095 484.3783 495.6095H444.8283C428.7083 495.6095 417.4783 506.8395 417.4783 523.4395V666.0195C417.4783 682.6195 428.2183 693.8495 444.8283 693.8495Z"/>
</svg>