<?xml version="1.0" encoding="UTF-8" standalone="no"?>
<svg xmlns="http://www.w3.org/2000/svg"
     width="898.92578125" height="898.92578125"
     viewBox="0 0 898.92578125 898.92578125"
     fill="currentColor">
  <path d="M153.3183 898.9295H745.6083C848.1483 898.9295 898.9283 848.1495 898.9283 747.5595V151.3695C898.9283 50.7795 848.1483 -0.0005 745.6083 -0.0005H153.3183C51.2683 -0.0005 -0.0017 50.2895 -0.0017 151.3695V747.5595C-0.0017 848.6295 51.2683 898.9295 153.3183 898.9295ZM154.2983 820.3095C105.4683 820.3095 78.6183 794.4295 78.6183 743.6495V155.2695C78.6183 104.4895 105.4683 78.6095 154.2983 78.6095H744.6283C792.9683 78.6095 820.3083 104.4895 820.3083 155.2695V743.6495C820.3083 794.4295 792.9683 820.3095 744.6283 820.3095ZM364.2583 732.4195H534.6683C561.5283 732.4195 580.5683 713.3795 580.5683 686.5195V210.9395C580.5683 184.5695 561.5283 165.5295 534.6683 165.5295H364.2583C337.3983 165.5295 318.3583 184.5695 318.3583 210.9395V686.5195C318.3583 713.3795 337.3983 732.4195 364.2583 732.4195ZM449.7083 338.8695C422.3683 338.8695 399.8983 316.8895 399.8983 289.5495C399.8983 262.2095 422.3683 240.2295 449.7083 240.2295C476.5583 240.2295 499.0283 262.2095 499.0283 289.5495C499.0283 316.8895 476.5583 338.8695 449.7083 338.8695ZM449.7083 498.0495C422.3683 498.0495 399.8983 476.0695 399.8983 448.7295C399.8983 421.3895 422.3683 399.4095 449.7083 399.4095C476.5583 399.4095 499.0283 421.3895 499.0283 448.7295C499.0283 476.0695 476.5583 498.0495 449.7083 498.0495ZM449.7083 657.2295C422.3683 657.2295 399.8983 635.2495 399.8983 607.9095C399.8983 580.0795 422.3683 558.5895 449.7083 558.5895C476.5583 558.5895 499.0283 580.0795 499.0283 607.9095C499.0283 635.2495 476.5583 657.2295 449.7083 657.2295Z"/>
</svg>