<?xml version="1.0" encoding="UTF-8" standalone="no"?>
<svg xmlns="http://www.w3.org/2000/svg"
     width="898.92578125" height="898.92578125"
     viewBox="0 0 898.92578125 898.92578125"
     fill="currentColor">
  <path d="M153.3183 898.9295H745.6083C848.1483 898.9295 898.9283 848.1495 898.9283 747.5595V151.3695C898.9283 50.7795 848.1483 -0.0005 745.6083 -0.0005H153.3183C51.2683 -0.0005 -0.0017 50.2895 -0.0017 151.3695V747.5595C-0.0017 848.6295 51.2683 898.9295 153.3183 898.9295ZM257.3283 685.5495C229.9783 685.5495 209.9583 665.5295 209.9583 638.1795V260.2495C209.9583 232.9095 229.9783 212.8895 257.3283 212.8895H644.5283C671.8783 212.8895 691.8983 232.9095 691.8983 260.2495V638.1795C691.8983 665.5295 671.8783 685.5495 644.5283 685.5495ZM599.6083 441.8895L617.6783 424.3195C625.9783 415.5295 625.9783 405.2695 617.6783 396.9695L545.4083 324.7095C537.5983 316.4095 526.3683 315.9195 518.0683 324.2195L499.9983 342.2895C491.2083 351.0695 491.2083 362.3095 499.9983 370.6095L572.2683 441.8895C580.5683 450.6795 591.7983 451.1695 599.6083 441.8895ZM284.1783 424.3195L302.2483 441.8895C310.0583 451.1695 320.7983 451.1695 329.5883 441.8895L401.3683 370.6095C410.1583 362.3095 410.6483 351.0695 401.3683 342.2895L383.7883 324.7095C375.4883 316.4095 364.7483 316.4095 356.4483 325.1995L284.1783 396.9695C275.8783 405.2695 275.8783 415.5295 284.1783 424.3195ZM437.9883 612.3095H463.3783C475.0983 612.3095 483.3983 604.9795 483.3983 593.2595V503.9095C483.3983 492.1895 474.6083 483.8895 463.3783 483.8895H437.9883C426.7583 483.8895 418.4583 492.1895 418.4583 503.9095V593.2595C418.4583 604.4895 426.7583 612.3095 437.9883 612.3095Z"/>
</svg>