<?xml version="1.0" encoding="UTF-8" standalone="no"?>
<svg xmlns="http://www.w3.org/2000/svg"
     width="929.6875" height="898.92578125"
     viewBox="0 0 929.6875 898.92578125"
     fill="currentColor">
  <path d="M153.3183 898.9295H776.3683C878.4183 898.9295 929.6883 848.1495 929.6883 747.5595V151.3695C929.6883 50.7795 878.4183 -0.0005 776.3683 -0.0005H153.3183C51.2683 -0.0005 -0.0017 50.2895 -0.0017 151.3695V747.5595C-0.0017 848.6295 51.2683 898.9295 153.3183 898.9295ZM154.2983 820.3095C105.4683 820.3095 78.6183 794.4295 78.6183 743.6495V155.2695C78.6183 104.4895 105.4683 78.6095 154.2983 78.6095H774.8983C823.2383 78.6095 851.0783 104.4895 851.0783 155.2695V743.6495C851.0783 794.4295 823.2383 820.3095 774.8983 820.3095ZM295.4083 444.3395C319.3383 444.3395 338.8683 425.7795 338.8683 400.8795V249.5095C338.8683 225.5895 319.3383 206.0595 295.4083 206.0595C270.9983 206.0595 252.4383 225.5895 252.4383 249.5095V400.8795C252.4383 425.7795 270.9983 444.3395 295.4083 444.3395ZM633.2983 444.3395C657.7183 444.3395 677.2483 425.7795 677.2483 400.8795V249.5095C677.2483 225.5895 657.7183 206.0595 633.2983 206.0595C608.8883 206.0595 590.3283 225.5895 590.3283 249.5095V400.8795C590.3283 425.7795 608.8883 444.3395 633.2983 444.3395ZM406.7383 720.2195H522.9483C538.0883 720.2195 545.8983 712.8895 545.8983 697.7495V642.5795C545.8983 597.1695 510.2583 561.0395 464.8483 561.0395C418.9483 561.0395 383.7883 597.1695 383.7883 642.5795V697.7495C383.7883 712.8895 391.5983 720.2195 406.7383 720.2195Z"/>
</svg>