<?xml version="1.0" encoding="UTF-8" standalone="no"?>
<svg xmlns="http://www.w3.org/2000/svg"
     width="1282.2265625" height="763.18359375"
     viewBox="0 0 1282.2265625 763.18359375"
     fill="currentColor">
  <path d="M345.2106 -0.005C278.3206 -0.005 233.8906 23.925 191.4106 77.635L33.2006 284.665C-11.2294 342.285 -10.7394 418.455 32.7106 475.585L190.9206 684.575C229.9806 735.835 282.7106 763.185 345.2106 763.185H937.0106C999.5106 763.185 1052.2506 735.835 1091.3106 684.575L1249.5106 475.585C1292.9706 418.455 1293.4606 342.285 1249.0206 284.665L1090.8206 77.635C1048.3406 23.925 1003.9106 -0.005 937.0106 -0.005ZM306.1506 291.995C354.0006 291.995 393.5506 331.545 393.5506 379.395C393.5506 427.245 354.0006 467.285 306.1506 467.285C257.8106 467.285 218.7506 427.245 218.7506 379.395C218.7506 331.545 257.8106 291.995 306.1506 291.995ZM976.0706 291.995C1024.4106 291.995 1063.4806 331.545 1063.4806 379.395C1063.4806 427.245 1024.4106 467.285 976.0706 467.285C928.2206 467.285 888.6706 427.245 888.6706 379.395C888.6706 331.545 928.2206 291.995 976.0706 291.995ZM641.1106 411.625C688.9606 411.625 728.5206 451.175 728.5206 499.025C728.5206 547.365 688.9606 586.425 641.1106 586.425C593.2606 586.425 553.7106 547.365 553.7106 499.025C553.7106 451.175 593.2606 411.625 641.1106 411.625Z"/>
</svg>