<?xml version="1.0" encoding="UTF-8" standalone="no"?>
<svg xmlns="http://www.w3.org/2000/svg"
     width="996.09375" height="996.09375"
     viewBox="0 0 996.09375 996.09375"
     fill="currentColor">
  <path d="M498.0477 996.0959C770.5077 996.0959 996.0977 770.0159 996.0977 498.0459C996.0977 225.5859 770.0177 -0.0041 497.5577 -0.0041C225.5877 -0.0041 -0.0023 225.5859 -0.0023 498.0459C-0.0023 770.0159 226.0777 996.0959 498.0477 996.0959ZM498.0477 913.0859C267.5777 913.0859 83.4977 728.5159 83.4977 498.0459C83.4977 267.5759 267.0877 83.0059 497.5577 83.0059C728.0277 83.0059 913.0877 267.5759 913.0877 498.0459C913.0877 728.5159 728.5177 913.0859 498.0477 913.0859ZM286.6177 566.8959C337.8877 566.8959 378.9077 525.3859 378.9077 474.6059C378.9077 423.8259 337.8877 382.3259 286.6177 382.3259C235.8377 382.3259 194.8277 423.8259 194.8277 474.6059C194.8277 525.3859 235.8377 566.8959 286.6177 566.8959ZM709.4777 566.8959C760.2577 566.8959 801.2677 525.3859 801.2677 474.6059C801.2677 423.8259 760.2577 382.3259 709.4777 382.3259C658.2077 382.3259 617.1877 423.8259 617.1877 474.6059C617.1877 525.3859 658.2077 566.8959 709.4777 566.8959ZM498.0477 794.4359C548.8277 794.4359 590.3277 753.4159 590.3277 702.6359C590.3277 651.3659 548.8277 610.3559 498.0477 610.3559C447.2677 610.3559 405.7577 651.3659 405.7577 702.6359C405.7577 753.4159 447.2677 794.4359 498.0477 794.4359Z"/>
</svg>