<?xml version="1.0" encoding="UTF-8" standalone="no"?>
<svg xmlns="http://www.w3.org/2000/svg"
     width="898.92578125" height="898.92578125"
     viewBox="0 0 898.92578125 898.92578125"
     fill="currentColor">
  <path d="M153.3183 898.9295H745.6083C848.1483 898.9295 898.9283 848.1495 898.9283 747.5595V151.3695C898.9283 50.7795 848.1483 -0.0005 745.6083 -0.0005H153.3183C51.2683 -0.0005 -0.0017 50.2895 -0.0017 151.3695V747.5595C-0.0017 848.6295 51.2683 898.9295 153.3183 898.9295ZM154.2983 820.3095C105.4683 820.3095 78.6183 794.4295 78.6183 743.6495V155.2695C78.6183 104.4895 105.4683 78.6095 154.2983 78.6095H744.6283C792.9683 78.6095 820.3083 104.4895 820.3083 155.2695V743.6495C820.3083 794.4295 792.9683 820.3095 744.6283 820.3095ZM258.7883 677.7295H640.1383C666.5083 677.7295 686.0383 658.1995 686.0383 631.8395V265.6295C686.0383 239.2595 666.5083 219.7295 640.1383 219.7295H258.7883C232.4183 219.7295 212.8883 239.2595 212.8883 265.6295V631.8395C212.8883 658.1995 232.4183 677.7295 258.7883 677.7295ZM450.1983 398.9295C422.8483 398.9295 400.3883 376.9495 400.3883 349.1195C400.3883 322.2695 422.8483 300.2895 450.1983 300.2895C477.0483 300.2895 499.5083 322.2695 499.5083 349.1195C499.5083 376.9495 477.0483 398.9295 450.1983 398.9295ZM343.2583 597.1695C316.4083 597.1695 293.9483 575.1995 293.9483 547.8495C293.9483 520.5095 316.4083 498.5395 343.2583 498.5395C370.6083 498.5395 393.0683 520.5095 393.0683 547.8495C393.0683 575.1995 370.6083 597.1695 343.2583 597.1695ZM556.6383 597.1695C529.2983 597.1695 506.8383 575.1995 506.8383 547.8495C506.8383 520.5095 529.2983 498.5395 556.6383 498.5395C583.9883 498.5395 605.9583 520.5095 605.9583 547.8495C605.9583 575.1995 583.9883 597.1695 556.6383 597.1695Z"/>
</svg>