<?xml version="1.0" encoding="UTF-8" standalone="no"?>
<svg xmlns="http://www.w3.org/2000/svg"
     width="929.6875" height="898.92578125"
     viewBox="0 0 929.6875 898.92578125"
     fill="currentColor">
  <path d="M153.3183 898.9295H776.3683C878.4183 898.9295 929.6883 848.1495 929.6883 747.5595V151.3695C929.6883 50.7795 878.4183 -0.0005 776.3683 -0.0005H153.3183C51.2683 -0.0005 -0.0017 50.2895 -0.0017 151.3695V747.5595C-0.0017 848.6295 51.2683 898.9295 153.3183 898.9295ZM154.2983 820.3095C105.4683 820.3095 78.6183 794.4295 78.6183 743.6495V155.2695C78.6183 104.4895 105.4683 78.6095 154.2983 78.6095H774.8983C823.2383 78.6095 851.0783 104.4895 851.0783 155.2695V743.6495C851.0783 794.4295 823.2383 820.3095 774.8983 820.3095ZM464.8483 362.7895C504.8783 362.7895 538.0883 330.0795 538.0883 289.0595C538.0883 249.0195 504.8783 216.3095 464.8483 216.3095C424.3183 216.3095 391.1183 249.0195 391.1183 289.0595C391.1183 330.0795 424.3183 362.7895 464.8483 362.7895ZM297.8483 681.1495C337.8883 681.1495 370.6083 647.9495 370.6083 607.4195C370.6083 567.3795 337.8883 534.1795 297.8483 534.1795C256.8383 534.1795 224.1183 567.3795 224.1183 607.4195C224.1183 647.9495 256.8383 681.1495 297.8483 681.1495ZM632.3283 681.1495C672.3683 681.1495 705.5683 647.9495 705.5683 607.4195C705.5683 567.3795 672.3683 534.1795 632.3283 534.1795C591.7983 534.1795 559.0783 567.3795 559.0783 607.4195C559.0783 647.9495 591.7983 681.1495 632.3283 681.1495Z"/>
</svg>