<?xml version="1.0" encoding="UTF-8" standalone="no"?>
<svg xmlns="http://www.w3.org/2000/svg"
     width="1282.2265625" height="763.18359375"
     viewBox="0 0 1282.2265625 763.18359375"
     fill="currentColor">
  <path d="M345.2106 -0.005C278.3206 -0.005 233.8906 23.925 191.4106 77.635L33.2006 284.665C-11.2294 342.285 -10.7394 418.455 32.7106 475.585L190.9206 684.575C229.9806 735.835 282.7106 763.185 345.2106 763.185H937.0106C999.5106 763.185 1052.2506 735.835 1091.3106 684.575L1249.5106 475.585C1292.9706 418.455 1293.4606 342.285 1249.0206 284.665L1090.8206 77.635C1048.3406 23.925 1003.9106 -0.005 937.0106 -0.005ZM345.2106 78.615H937.0106C979.9806 78.615 1000.9806 89.355 1028.8106 125.485L1187.0106 332.515C1210.4506 361.815 1209.9606 398.435 1187.5006 427.735L1028.8106 637.205C1004.3906 668.945 975.5906 684.575 937.0106 684.575H345.2106C307.1306 684.575 278.3206 668.945 253.4206 637.205L94.7306 427.735C72.2706 398.435 72.2706 361.815 95.2106 332.515L253.4206 125.485C281.7406 89.355 302.7306 78.615 345.2106 78.615ZM316.4106 296.385C269.5306 296.385 231.4406 334.965 231.4406 381.345C231.4406 427.735 269.5306 466.305 316.4106 466.305C362.7906 466.305 400.8806 427.735 400.8806 381.345C400.8806 334.965 362.7906 296.385 316.4106 296.385ZM965.8206 296.385C919.4306 296.385 881.3506 334.965 881.3506 381.345C881.3506 427.735 919.4306 466.305 965.8206 466.305C1012.6906 466.305 1050.7806 427.735 1050.7806 381.345C1050.7806 334.965 1012.6906 296.385 965.8206 296.385ZM641.1106 412.595C594.7306 412.595 556.1506 450.685 556.1506 497.075C556.1506 543.945 594.7306 582.035 641.1106 582.035C687.5006 582.035 726.0706 543.945 726.0706 497.075C726.0706 450.685 687.5006 412.595 641.1106 412.595Z"/>
</svg>