<?xml version="1.0" encoding="UTF-8" standalone="no"?>
<svg xmlns="http://www.w3.org/2000/svg"
     width="898.92578125" height="898.92578125"
     viewBox="0 0 898.92578125 898.92578125"
     fill="currentColor">
  <path d="M153.3183 898.9295H745.6083C848.1483 898.9295 898.9283 848.1495 898.9283 747.5595V151.3695C898.9283 50.7795 848.1483 -0.0005 745.6083 -0.0005H153.3183C51.2683 -0.0005 -0.0017 50.2895 -0.0017 151.3695V747.5595C-0.0017 848.6295 51.2683 898.9295 153.3183 898.9295ZM154.2983 820.3095C105.4683 820.3095 78.6183 794.4295 78.6183 743.6495V155.2695C78.6183 104.4895 105.4683 78.6095 154.2983 78.6095H744.6283C792.9683 78.6095 820.3083 104.4895 820.3083 155.2695V743.6495C820.3083 794.4295 792.9683 820.3095 744.6283 820.3095ZM449.7083 705.0795C591.7983 705.0795 705.5683 590.8195 705.5683 448.7295C705.5683 306.6395 591.7983 192.3795 449.7083 192.3795C307.1283 192.3795 193.3583 306.6395 193.3583 448.7295C193.3583 590.8195 307.1283 705.0795 449.7083 705.0795ZM449.7083 356.9295C428.7083 356.9295 412.5983 340.3295 412.5983 319.8195C412.5983 298.8295 428.7083 282.2295 449.7083 282.2295C470.2183 282.2295 486.8183 298.8295 486.8183 319.8195C486.8183 340.3295 470.2183 356.9295 449.7083 356.9295ZM578.6183 505.8595C547.3683 505.8595 520.9983 479.9795 520.9983 448.7295C520.9983 417.4795 547.3683 391.5995 578.6183 391.5995C609.3783 391.5995 635.7383 417.4795 635.7383 448.7295C635.7383 479.9795 609.3783 505.8595 578.6183 505.8595ZM320.7983 506.8395C289.5483 506.8395 263.1883 480.9595 263.1883 449.7095C263.1883 418.4595 289.5483 392.5795 320.7983 392.5795C352.0483 392.5795 377.9283 418.4595 377.9283 449.7095C377.9283 480.9595 352.0483 506.8395 320.7983 506.8395Z"/>
</svg>