<?xml version="1.0" encoding="UTF-8" standalone="no"?>
<svg xmlns="http://www.w3.org/2000/svg"
     width="1110.3515625" height="1038.57421875"
     viewBox="0 0 1110.3515625 1038.57421875"
     fill="currentColor">
  <path d="M-0.0023 609.3703C-0.0023 646.0003 24.8977 670.9003 62.0077 670.9003H104.4877V717.2803C104.4877 885.2503 320.7977 1038.5703 555.1777 1038.5703C789.5477 1038.5703 1005.8577 885.2503 1005.8577 717.2803V670.9003H1048.3377C1085.4477 670.9003 1110.3477 646.0003 1110.3477 609.3703V429.6903C1110.3477 392.5803 1085.4477 367.6803 1048.3377 367.6803H1005.8577V321.7803C1005.8577 153.8103 789.5477 0.0003 555.1777 0.0003C320.7977 0.0003 104.4877 153.8103 104.4877 321.7803V367.6803H62.0077C24.8977 367.6803 -0.0023 392.5803 -0.0023 429.6903ZM321.2877 614.7503C269.0477 614.7503 226.5577 571.7803 226.5577 519.5303C226.5577 467.2803 269.0477 424.3203 321.2877 424.3203C374.5077 424.3203 416.5077 467.2803 416.5077 519.5303C416.5077 571.7803 374.5077 614.7503 321.2877 614.7503ZM788.5777 614.7503C735.8377 614.7503 693.8477 571.7803 693.8477 519.5303C693.8477 467.2803 735.8377 424.3203 788.5777 424.3203C841.3077 424.3203 883.7877 467.2803 883.7877 519.5303C883.7877 571.7803 841.3077 614.7503 788.5777 614.7503Z"/>
</svg>