<?xml version="1.0" encoding="UTF-8" standalone="no"?>
<svg xmlns="http://www.w3.org/2000/svg"
     width="1356.93359375" height="906.73828125"
     viewBox="0 0 1356.93359375 906.73828125"
     fill="currentColor">
  <path d="M-0.0017 552.7306C-0.0017 625.0006 37.1083 661.6206 110.3483 661.6206H281.2483C354.0083 661.6206 394.5283 680.1806 440.9183 743.1606C520.9983 850.5906 643.0683 906.7406 770.0183 906.7406H952.6383C988.7683 906.7406 1011.2283 884.2806 1011.2283 849.1206V721.1906H1277.8283C1321.2883 721.1906 1356.9383 685.5506 1356.9383 642.0906C1356.9383 598.6306 1321.2883 562.9906 1277.8283 562.9906H1011.2283V343.7506H1277.8283C1321.2883 343.7506 1356.9383 308.1006 1356.9383 264.6506C1356.9383 221.1906 1321.2883 185.5506 1277.8283 185.5506H1011.2283V56.1506C1011.2283 21.9706 988.2783 0.0006 952.6383 0.0006H770.0183C643.0683 0.0006 520.5083 55.6606 440.9183 163.5706C394.5283 227.0506 354.0083 245.6006 281.2483 245.6006H110.3483C37.1083 245.6006 -0.0017 281.7406 -0.0017 354.0006Z"/>
</svg>