<?xml version="1.0" encoding="UTF-8" standalone="no"?>
<svg xmlns="http://www.w3.org/2000/svg"
     width="898.92578125" height="898.92578125"
     viewBox="0 0 898.92578125 898.92578125"
     fill="currentColor">
  <path d="M153.3183 898.9295H745.6083C848.1483 898.9295 898.9283 848.1495 898.9283 747.5595V151.3695C898.9283 50.7795 848.1483 -0.0005 745.6083 -0.0005H153.3183C51.2683 -0.0005 -0.0017 50.2895 -0.0017 151.3695V747.5595C-0.0017 848.6295 51.2683 898.9295 153.3183 898.9295ZM154.2983 820.3095C105.4683 820.3095 78.6183 794.4295 78.6183 743.6495V155.2695C78.6183 104.4895 105.4683 78.6095 154.2983 78.6095H744.6283C792.9683 78.6095 820.3083 104.4895 820.3083 155.2695V743.6495C820.3083 794.4295 792.9683 820.3095 744.6283 820.3095ZM294.9183 672.3595H604.0083C618.1683 672.3595 631.8383 667.9695 642.0883 657.7195C696.2883 606.9295 733.3983 529.7895 733.3983 449.2195C733.3983 368.6495 696.2883 291.4995 642.0883 241.2095C631.8383 230.9595 618.1683 226.5595 604.0083 226.5595H294.9183C280.7583 226.5595 267.5783 230.4695 257.3283 239.7495C203.1283 290.5295 165.5283 368.1595 165.5283 449.2195C165.5283 529.7895 202.6383 606.9295 256.8383 657.7195C267.0883 667.9695 280.7583 672.3595 294.9183 672.3595ZM330.5683 562.9895C315.4283 562.9895 303.2183 550.7795 303.2183 535.1595V362.7895C303.2183 347.1695 315.4283 335.4495 330.5683 335.4495C346.1883 335.4495 358.3983 347.1695 358.3983 362.7895V535.1595C358.3983 550.7795 346.1883 562.9895 330.5683 562.9895ZM568.3583 562.9895C552.7383 562.9895 541.0183 550.7795 541.0183 535.1595V362.7895C541.0183 347.1695 552.7383 335.4495 568.3583 335.4495C583.9883 335.4495 595.6983 347.1695 595.6983 362.7895V535.1595C595.6983 550.7795 583.9883 562.9895 568.3583 562.9895Z"/>
</svg>