<?xml version="1.0" encoding="UTF-8" standalone="no"?>
<svg xmlns="http://www.w3.org/2000/svg"
     width="1097.16796875" height="1048.828125"
     viewBox="0 0 1097.16796875 1048.828125"
     fill="currentColor">
  <path d="M193.3583 112.7975H903.8083V104.4875C903.8083 32.2275 847.6583 -0.0025 768.5583 -0.0025H328.6183C252.9283 -0.0025 193.3583 32.2275 193.3583 104.4875ZM145.0183 861.8175H156.2483V590.8175C156.2483 520.9975 199.2183 478.0275 269.0383 478.0275H828.1283C897.9483 478.0275 940.9183 520.9975 940.9183 590.8175V861.8175H951.6583C1046.8783 861.8175 1097.1683 813.9675 1097.1683 718.7475V321.2875C1097.1683 226.0775 1046.8783 177.7375 951.6583 177.7375H145.0183C55.1783 177.7375 -0.0017 226.0775 -0.0017 321.2875V718.7475C-0.0017 813.9675 50.2883 861.8175 145.0183 861.8175ZM786.1283 339.3575C786.1283 305.6675 814.9383 276.3675 849.6083 276.3675C882.8083 276.3675 912.1083 305.6675 912.1083 339.3575C912.1083 374.0275 882.8083 401.3675 849.6083 401.8575C814.9383 401.8575 786.1283 374.5075 786.1283 339.3575ZM223.1483 982.9075C223.1483 1022.4575 249.5083 1048.8275 288.5783 1048.8275H808.5983C848.1483 1048.8275 874.0283 1022.4575 874.0283 982.9075V590.8175C874.0283 562.9875 855.9583 544.9175 828.1283 544.9175H269.0383C241.6983 544.9175 223.1483 562.9875 223.1483 590.8175ZM389.6483 740.7275C371.5783 740.7275 357.9083 726.5575 357.9083 708.4975C357.9083 691.4075 371.5783 678.2275 389.6483 678.2275H708.4983C726.5583 678.2275 739.7483 691.4075 739.7483 708.4975C739.7483 726.5575 726.5583 740.7275 708.4983 740.7275ZM389.6483 915.5275C371.5783 915.5275 357.9083 901.8575 357.9083 884.7675C357.9083 866.6975 371.5783 853.0275 389.6483 853.0275H708.4983C726.5583 853.0275 739.7483 866.6975 739.7483 884.7675C739.7483 901.8575 726.5583 915.5275 708.4983 915.5275Z"/>
</svg>