<?xml version="1.0" encoding="UTF-8" standalone="no"?>
<svg xmlns="http://www.w3.org/2000/svg"
     width="1097.16796875" height="1048.828125"
     viewBox="0 0 1097.16796875 1048.828125"
     fill="currentColor">
  <path d="M193.3583 112.7975H903.8083V104.4875C903.8083 32.2275 847.6583 -0.0025 768.5583 -0.0025H328.6183C252.9283 -0.0025 193.3583 32.2275 193.3583 104.4875ZM145.0183 861.8175H156.2483V590.8175C156.2483 520.0175 198.2383 478.0275 269.0383 478.0275H828.1283C898.9283 478.0275 940.9183 520.0175 940.9183 590.8175V861.8175H951.6583C1046.8783 861.8175 1097.1683 813.9675 1097.1683 718.7475V321.2875C1097.1683 226.0775 1046.8783 177.7375 951.6583 177.7375H145.0183C55.1783 177.7375 -0.0017 226.0775 -0.0017 321.2875V718.7475C-0.0017 813.9675 50.2883 861.8175 145.0183 861.8175ZM786.1283 339.3575C786.1283 305.6675 814.9383 276.3675 849.6083 276.3675C882.8083 276.3675 912.1083 305.6675 912.1083 339.3575C912.1083 374.0275 882.8083 401.3675 849.6083 401.8575C814.9383 401.8575 786.1283 374.5075 786.1283 339.3575ZM223.1483 982.9075C223.1483 1022.4575 249.5083 1048.8275 288.5783 1048.8275H808.5983C848.1483 1048.8275 874.0283 1022.4575 874.0283 982.9075V590.8175C874.0283 562.9875 855.9583 544.9175 828.1283 544.9175H269.0383C241.6983 544.9175 223.1483 562.9875 223.1483 590.8175ZM392.5783 706.0575C368.6483 706.0575 348.6283 687.0075 348.6283 662.1075C348.6283 637.6975 368.6483 618.6475 392.5783 618.6475C416.9883 618.6475 437.0083 637.6975 437.0083 662.1075C437.0083 687.0075 416.9883 706.0575 392.5783 706.0575ZM705.0783 706.0575C680.6683 706.0575 661.1283 687.0075 661.1283 662.1075C661.1283 637.6975 680.6683 618.6475 705.0783 618.6475C729.4883 618.6475 749.0283 637.6975 749.0283 662.1075C749.0283 687.0075 729.4883 706.0575 705.0783 706.0575ZM392.5783 840.3275C368.6483 840.3275 348.6283 821.2875 348.6283 796.8775C348.6283 771.9775 368.6483 752.9275 392.5783 752.9275C416.9883 752.9275 437.0083 771.9775 437.0083 796.8775C437.0083 821.2875 416.9883 840.3275 392.5783 840.3275ZM705.0783 840.3275C680.6683 840.3275 661.1283 821.2875 661.1283 796.8775C661.1283 771.9775 680.6683 752.9275 705.0783 752.9275C729.4883 752.9275 749.0283 771.9775 749.0283 796.8775C749.0283 821.2875 729.4883 840.3275 705.0783 840.3275ZM392.5783 975.0975C368.6483 975.0975 348.6283 956.0575 348.6283 931.1475C348.6283 906.7375 368.6483 887.6975 392.5783 887.6975C416.9883 887.6975 437.0083 906.7375 437.0083 931.1475C437.0083 956.0575 416.9883 975.0975 392.5783 975.0975ZM705.0783 975.0975C680.6683 975.0975 661.1283 956.0575 661.1283 931.1475C661.1283 906.7375 680.6683 887.6975 705.0783 887.6975C729.4883 887.6975 749.0283 906.7375 749.0283 931.1475C749.0283 956.0575 729.4883 975.0975 705.0783 975.0975Z"/>
</svg>