<?xml version="1.0" encoding="UTF-8" standalone="no"?>
<svg xmlns="http://www.w3.org/2000/svg"
     width="1097.16796875" height="1048.33984375"
     viewBox="0 0 1097.16796875 1048.33984375"
     fill="currentColor">
  <path d="M193.3583 112.7975H903.8083V104.4875C903.8083 32.2275 847.6583 -0.0025 768.5583 -0.0025H328.6183C252.9283 -0.0025 193.3583 32.2275 193.3583 104.4875ZM272.4583 1048.3375H824.7083C886.7183 1048.3375 917.9683 1020.5075 917.9683 955.5675V861.8175H951.6583C1046.8783 861.8175 1097.1683 813.9675 1097.1683 718.7475V321.2875C1097.1683 226.0775 1046.8783 177.7375 951.6583 177.7375H145.0183C55.1783 177.7375 -0.0017 226.0775 -0.0017 321.2875V718.7475C-0.0017 813.9675 50.2883 861.8175 145.0183 861.8175H179.1983V955.5675C179.1983 1020.5075 210.4483 1048.3375 272.4583 1048.3375ZM786.1283 339.3575C786.1283 305.6675 814.9383 276.3675 849.6083 276.3675C882.8083 276.3675 912.1083 305.6675 912.1083 339.3575C912.1083 374.0275 882.8083 401.3675 849.6083 401.8575C814.9383 401.8575 786.1283 374.5075 786.1283 339.3575ZM311.5283 975.0975C285.1583 975.0975 272.4583 962.3975 272.4583 936.0375V573.2375C272.4583 547.3675 285.6483 534.6675 311.5283 534.6675H786.1283C812.0083 534.6675 824.7083 547.3675 824.7083 573.2375V936.0375C824.7083 962.3975 812.0083 975.0975 786.1283 975.0975ZM392.5783 665.5275C416.9883 665.5275 437.0083 646.4875 437.0083 621.5775C437.0083 597.1675 416.9883 578.1275 392.5783 578.1275C368.6483 578.1275 348.6283 597.1675 348.6283 621.5775C348.6283 646.4875 368.6483 665.5275 392.5783 665.5275ZM705.0783 665.5275C729.4883 665.5275 749.0283 646.4875 749.0283 621.5775C749.0283 597.1675 729.4883 578.1275 705.0783 578.1275C680.6683 578.1275 661.1283 597.1675 661.1283 621.5775C661.1283 646.4875 680.6683 665.5275 705.0783 665.5275ZM392.5783 799.8075C416.9883 799.8075 437.0083 780.7575 437.0083 756.3475C437.0083 731.9375 416.9883 712.3975 392.5783 712.3975C368.6483 712.3975 348.6283 731.9375 348.6283 756.3475C348.6283 780.7575 368.6483 799.8075 392.5783 799.8075ZM705.0783 799.8075C729.4883 799.8075 749.0283 780.7575 749.0283 756.3475C749.0283 731.9375 729.4883 712.3975 705.0783 712.3975C680.6683 712.3975 661.1283 731.9375 661.1283 756.3475C661.1283 780.7575 680.6683 799.8075 705.0783 799.8075ZM392.5783 934.5675C416.9883 934.5675 437.0083 915.5275 437.0083 890.6275C437.0083 866.2075 416.9883 847.1675 392.5783 847.1675C368.6483 847.1675 348.6283 866.2075 348.6283 890.6275C348.6283 915.5275 368.6483 934.5675 392.5783 934.5675ZM705.0783 934.5675C729.4883 934.5675 749.0283 915.5275 749.0283 890.6275C749.0283 866.2075 729.4883 847.1675 705.0783 847.1675C680.6683 847.1675 661.1283 866.2075 661.1283 890.6275C661.1283 915.5275 680.6683 934.5675 705.0783 934.5675Z"/>
</svg>