<?xml version="1.0" encoding="UTF-8" standalone="no"?>
<svg xmlns="http://www.w3.org/2000/svg"
     width="1103.02734375" height="1051.7578125"
     viewBox="0 0 1103.02734375 1051.7578125"
     fill="currentColor">
  <path d="M145.5083 906.7372H196.7783V958.4972C196.7783 1023.4372 228.0283 1051.7572 290.0383 1051.7572H812.9883C874.9983 1051.7572 906.2483 1023.4372 906.2483 958.4972V906.7372H958.0083C1052.7383 906.7372 1103.0283 858.8872 1103.0283 763.6672V306.6372C1103.0283 211.9172 1052.7383 163.5772 958.0083 163.5772H909.6683V137.6972C909.6683 42.4772 862.3083 -0.0028 771.4883 -0.0028H331.5383C245.6083 -0.0028 193.3583 42.4772 193.3583 137.6972V163.5772H145.5083C55.1783 163.5772 -0.0017 211.9172 -0.0017 306.6372V763.6672C-0.0017 858.8872 50.2883 906.7372 145.5083 906.7372ZM269.0383 132.3272C269.0383 91.3072 290.0383 71.2872 330.5683 71.2872H772.4583C813.4783 71.2872 833.9883 91.3072 833.9883 132.3272V163.5772H269.0383ZM812.9883 466.7972H290.0383C230.9583 466.7972 196.7783 495.1172 196.7783 560.0572V833.0072H144.5283C101.0783 833.0072 79.0983 810.5472 79.0983 767.5772V302.7372C79.0983 259.7672 101.0783 237.3072 144.5283 237.3072H958.9883C1001.9483 237.3072 1024.4183 259.7672 1024.4183 302.7372V767.5772C1024.4183 810.5472 1001.9483 833.0072 958.9883 833.0072H906.2483V560.0572C906.2483 495.1172 874.9983 466.7972 812.9883 466.7972ZM788.0883 353.0272C788.0883 387.2072 816.4083 414.0672 849.6083 414.0672C882.3283 414.0672 910.1583 387.2072 910.1583 353.0272C910.1583 320.7972 882.3283 292.4772 849.6083 292.4772C816.4083 292.4772 788.0883 320.7972 788.0883 353.0272ZM314.4483 978.0272C288.5783 978.0272 275.3883 965.3272 275.3883 938.9672V579.0972C275.3883 552.7372 288.5783 540.5272 314.4483 540.5272H789.0583C815.4283 540.5272 827.6383 552.7372 827.6383 579.0972V938.9672C827.6383 965.3272 815.4283 978.0272 789.0583 978.0272ZM382.3283 704.0972H722.1683C739.2583 704.0972 751.9483 690.9172 751.9483 673.3372C751.9483 656.7372 739.2583 644.0472 722.1683 644.0472H382.3283C364.7483 644.0472 351.5583 656.7372 351.5583 673.3372C351.5583 690.9172 364.7483 704.0972 382.3283 704.0972ZM382.3283 874.5072H722.1683C739.2583 874.5072 751.9483 861.3272 751.9483 844.7272C751.9483 827.6372 739.2583 814.4572 722.1683 814.4572H382.3283C364.7483 814.4572 351.5583 827.6372 351.5583 844.7272C351.5583 861.3272 364.7483 874.5072 382.3283 874.5072Z"/>
</svg>