<?xml version="1.0" encoding="UTF-8" standalone="no"?>
<svg xmlns="http://www.w3.org/2000/svg"
     width="848.14453125" height="563.4765625"
     viewBox="0 0 848.14453125 563.4765625"
     fill="currentColor">
  <path d="M44.4383 563.4778C57.1283 563.4778 67.8683 559.5678 76.1683 550.7778L424.3183 194.8278L771.9683 550.7778C780.2783 559.0778 791.0183 563.4778 803.7083 563.4778C829.5883 563.4778 848.1483 544.4378 848.1483 519.0478C848.1483 506.3478 843.2583 496.0978 834.9583 487.3078L457.0283 100.0978C450.6883 93.7478 443.3583 89.3578 434.5683 87.3978H790.0383C815.4283 87.3978 833.0083 68.8478 833.0083 43.4578C833.0083 18.0678 815.4283 -0.0022 790.0383 -0.0022H57.1283C32.2283 -0.0022 15.1383 18.0678 15.1383 43.4578C15.1383 68.8478 32.2283 87.3978 57.1283 87.3978H413.5783C405.2783 89.3578 397.9483 93.7478 391.1183 100.0978L13.1883 487.3078C4.3983 496.0978 -0.0017 506.3478 -0.0017 519.0478C-0.0017 544.4378 19.0383 563.4778 44.4383 563.4778Z"/>
</svg>