<?xml version="1.0" encoding="UTF-8" standalone="no"?>
<svg xmlns="http://www.w3.org/2000/svg"
     width="708.0078125" height="929.6875"
     viewBox="0 0 708.0078125 929.6875"
     fill="currentColor">
  <path d="M-0.0017 716.7928C-0.0017 728.5128 5.3683 739.2528 13.1883 747.0728L172.8483 906.2528C188.4783 922.3628 205.5683 929.6828 223.1483 929.6828C240.2383 929.6828 256.8383 921.8728 272.4583 906.2528L432.6183 746.5828C440.9183 738.2828 445.7983 727.5428 445.7983 716.3128C445.7983 694.3328 428.2183 677.7328 408.6883 677.7328C394.0383 677.7328 384.7683 683.1028 376.4683 690.9228L334.4683 732.9128L259.7683 818.3628L264.6483 660.6428V290.0428C264.6483 166.5028 333.0083 83.4928 446.2883 83.4928C552.2483 83.4928 625.9783 157.2228 625.9783 268.0628C625.9783 375.0028 553.7083 450.1928 454.0983 450.1928C419.4383 450.1928 410.6483 442.8728 393.5583 442.8728C372.5583 442.8728 355.4683 457.0328 355.4683 479.0028C355.4683 493.6528 362.7883 504.8828 373.5383 513.1828C392.0883 527.8328 423.3383 533.2028 451.6583 533.2028C606.9383 533.2028 708.0083 424.8028 708.0083 268.0628C708.0083 106.9328 601.5583 0.0028 446.2883 0.0028C288.0883 0.0028 180.6683 105.4728 180.6683 293.4528V661.1328L185.5483 818.3628L110.8383 733.4028L68.8483 691.4028C61.0383 683.5928 51.7583 678.2228 37.1083 678.2228C17.0883 678.2228 -0.0017 694.8228 -0.0017 716.7928Z"/>
</svg>