<?xml version="1.0" encoding="UTF-8" standalone="no"?>
<svg xmlns="http://www.w3.org/2000/svg"
     width="996.09375" height="996.09375"
     viewBox="0 0 996.09375 996.09375"
     fill="currentColor">
  <path d="M498.0477 996.0959C770.5077 996.0959 996.0977 770.0159 996.0977 498.0459C996.0977 225.5859 770.0177 -0.0041 497.5577 -0.0041C225.5877 -0.0041 -0.0023 225.5859 -0.0023 498.0459C-0.0023 770.0159 226.0777 996.0959 498.0477 996.0959ZM498.0477 913.0859C267.5777 913.0859 83.4977 728.5159 83.4977 498.0459C83.4977 267.5759 267.0877 83.0059 497.5577 83.0059C728.0277 83.0059 913.0877 267.5759 913.0877 498.0459C913.0877 728.5159 728.5177 913.0859 498.0477 913.0859ZM283.6877 633.2959C283.6877 640.6259 287.5977 648.9259 293.4577 655.2759L387.6977 749.0259C398.9277 759.2759 410.1577 764.6459 420.8977 764.6459C432.1277 764.6459 443.3577 759.7659 454.0977 749.0259L548.8277 654.7859C555.1777 647.9459 558.5977 640.6259 558.5977 633.2959C558.5977 617.1859 545.8977 604.4959 530.2777 604.4959C520.5077 604.4959 513.6677 607.4259 506.8377 614.2559L482.9077 639.1559L449.2177 677.2459L451.6577 600.0959V401.8559C451.6577 328.1259 487.3077 287.1059 552.7377 287.1059C612.7977 287.1059 653.3177 328.6159 652.8277 390.1359C652.3477 450.1959 613.2777 491.6959 557.1277 491.6959C543.4577 491.6959 536.6177 488.2859 527.8277 488.2859C512.2077 488.2859 500.4877 499.5159 500.4877 514.1559C500.4877 522.9459 503.9077 530.2759 509.2777 535.6459C519.0477 545.4059 536.6177 550.2959 555.1777 550.2959C649.8977 550.2959 712.3977 486.3259 712.3977 390.1359C712.3977 292.4759 647.4577 226.0759 552.7377 226.0759C453.6177 226.0759 390.1377 292.4759 390.1377 396.9759V600.5859L392.5777 677.2459L359.3777 639.6459L334.9577 614.7459C328.1277 607.4259 320.3077 604.4959 311.5277 604.4959C295.8977 604.4959 283.6877 617.1859 283.6877 633.2959Z"/>
</svg>