<?xml version="1.0" encoding="UTF-8" standalone="no"?>
<svg xmlns="http://www.w3.org/2000/svg"
     width="1195.3125" height="943.84765625"
     viewBox="0 0 1195.3125 943.84765625"
     fill="currentColor">
  <path d="M-0.0017 796.8753C-0.0017 893.5553 51.2683 943.8453 149.4183 943.8453H749.5083C847.1683 943.8453 898.4383 893.5553 898.4383 796.8753V624.5153C898.4383 616.6953 903.8083 612.7953 913.0883 619.1453C943.8483 641.1153 979.4883 656.7353 1020.5083 656.7353C1112.7883 656.7353 1195.3083 582.5153 1195.3083 473.6353C1195.3083 365.2353 1112.7883 291.0153 1020.5083 291.0153C979.4883 291.0153 943.8483 306.6453 913.0883 328.6153C903.8083 334.9653 898.4383 331.0553 898.4383 323.2453V146.9753C898.4383 50.2953 847.1683 -0.0047 749.5083 -0.0047H149.4183C51.2683 -0.0047 -0.0017 50.2953 -0.0017 146.9753V362.7953C-0.0017 403.8053 26.8583 428.2253 60.5483 428.2253C79.0983 428.2253 98.1483 420.4053 117.1883 402.8353C141.1183 381.3453 167.9683 368.1653 196.7783 368.1653C252.4383 368.1653 299.3183 409.6653 299.3183 472.6553C299.3183 535.6453 252.4383 577.1453 196.7783 577.1453C167.9683 577.1453 141.1183 563.4753 117.1883 541.9953C98.1483 524.9053 79.0983 517.0853 60.5483 517.0853C26.8583 517.0853 -0.0017 541.5053 -0.0017 582.0353ZM78.6183 792.9653V630.3753C78.6183 607.4253 90.3283 616.2153 99.6083 622.0653C129.3983 641.1153 162.1083 655.2753 200.6883 655.2753C292.4783 655.2753 375.4883 581.5453 375.4883 472.6553C375.4883 363.7653 292.4783 290.0353 200.6883 290.0353C162.1083 290.0353 129.3983 304.1953 99.6083 323.2453C90.3283 329.1053 78.6183 337.8953 78.6183 314.9453V150.8753C78.6183 104.4953 105.4683 78.6153 150.8783 78.6153H748.0483C793.4583 78.6153 819.8283 104.4953 819.8283 150.8753V362.7953C819.8283 403.8053 846.6783 429.6853 880.3683 429.6853C898.9283 429.6853 917.9683 421.8753 937.0083 404.2953C960.9383 382.8153 987.7883 369.1453 1016.5983 369.1453C1072.2683 369.1453 1119.1383 410.6453 1119.1383 473.6353C1119.1383 537.1053 1072.2683 578.6153 1016.5983 578.6153C987.7883 578.6153 960.9383 564.9453 937.0083 543.4553C917.9683 525.8753 898.9283 518.0653 880.3683 518.0653C846.6783 518.0653 819.8283 543.9453 819.8283 584.9653V792.9653C819.8283 839.8453 793.4583 865.2353 748.0483 865.2353H150.8783C105.4683 865.2353 78.6183 839.8453 78.6183 792.9653Z"/>
</svg>