<?xml version="1.0" encoding="UTF-8" standalone="no"?>
<svg xmlns="http://www.w3.org/2000/svg"
     width="996.09375" height="996.09375"
     viewBox="0 0 996.09375 996.09375"
     fill="currentColor">
  <path d="M498.0477 996.0959C770.5077 996.0959 996.0977 770.0159 996.0977 498.0459C996.0977 225.5859 770.0177 -0.0041 497.5577 -0.0041C225.5877 -0.0041 -0.0023 225.5859 -0.0023 498.0459C-0.0023 770.0159 226.0777 996.0959 498.0477 996.0959ZM498.0477 913.0859C267.5777 913.0859 83.4977 728.5159 83.4977 498.0459C83.4977 267.5759 267.0877 83.0059 497.5577 83.0059C728.0277 83.0059 913.0877 267.5759 913.0877 498.0459C913.0877 728.5159 728.5177 913.0859 498.0477 913.0859ZM497.5577 727.0459C525.8777 727.0459 552.2477 722.1659 575.6877 712.8859L609.8677 758.7859C619.1377 771.9759 628.4177 776.3659 640.6277 776.3659C657.7177 776.3659 669.4377 764.6459 669.4377 747.5559C669.4377 738.7659 666.9877 732.9059 657.7177 720.7059L628.4177 681.6359C678.7077 641.1159 708.9877 574.7059 708.9877 493.6559C708.9877 355.9559 622.5577 259.7659 497.5577 259.7659C372.5577 259.7659 286.1377 355.9559 286.1377 493.6559C286.1377 630.8559 372.5577 727.0459 497.5577 727.0459ZM497.5577 665.5259C416.9877 665.5259 364.2577 597.6559 364.2577 493.6559C364.2577 389.1559 416.9877 321.2859 497.5577 321.2859C578.1277 321.2859 631.3477 389.1559 631.3477 493.6559C631.3477 550.2959 615.2377 596.6759 586.9177 625.9759L559.0777 588.3759C551.2677 578.1259 543.9477 574.7059 532.7177 574.7059C516.5977 574.7059 503.4177 586.9159 503.4177 602.5359C503.4177 610.8359 505.8577 617.6759 512.6977 626.9559L536.6177 659.6659C524.8977 663.5759 511.7177 665.5259 497.5577 665.5259Z"/>
</svg>