<?xml version="1.0" encoding="UTF-8" standalone="no"?>
<svg xmlns="http://www.w3.org/2000/svg"
     width="898.92578125" height="898.92578125"
     viewBox="0 0 898.92578125 898.92578125"
     fill="currentColor">
  <path d="M93.2583 409.1795H315.9183C377.9283 409.1795 409.1783 377.9295 409.1783 313.4795V95.2195C409.1783 30.7595 377.9283 -0.0005 315.9183 -0.0005H93.2583C31.2483 -0.0005 -0.0017 30.7595 -0.0017 95.2195V313.4795C-0.0017 377.9295 31.2483 409.1795 93.2583 409.1795ZM583.4983 409.1795H805.6683C867.6783 409.1795 898.9283 377.9295 898.9283 313.4795V95.2195C898.9283 30.7595 867.6783 -0.0005 805.6683 -0.0005H583.4983C520.9983 -0.0005 489.7483 30.7595 489.7483 95.2195V313.4795C489.7483 377.9295 520.9983 409.1795 583.4983 409.1795ZM94.2383 340.3295C77.1483 340.3295 68.8483 331.5395 68.8483 313.4795V95.2195C68.8483 77.6395 77.1483 68.8495 94.2383 68.8495H314.4483C331.5383 68.8495 340.3283 77.6395 340.3283 95.2195V313.4795C340.3283 331.5395 331.5383 340.3295 314.4483 340.3295ZM584.4683 340.3295C566.8983 340.3295 558.5983 331.5395 558.5983 313.4795V95.2195C558.5983 77.6395 566.8983 68.8495 584.4683 68.8495H804.6883C821.7783 68.8495 830.0783 77.6395 830.0783 95.2195V313.4795C830.0783 331.5395 821.7783 340.3295 804.6883 340.3295ZM162.5983 255.8595H246.0983C252.9283 255.8595 255.8583 252.9295 255.8583 244.6295V163.5695C255.8583 155.7595 252.9283 152.8295 246.0983 152.8295H162.5983C155.2783 152.8295 152.8283 155.7595 152.8283 163.5695V244.6295C152.8283 252.9295 155.2783 255.8595 162.5983 255.8595ZM655.2783 255.8595H738.7683C746.0983 255.8595 749.0283 252.9295 749.0283 244.6295V163.5695C749.0283 155.7595 746.0983 152.8295 738.7683 152.8295H655.2783C648.4383 152.8295 645.9983 155.7595 645.9983 163.5695V244.6295C645.9983 252.9295 648.4383 255.8595 655.2783 255.8595ZM93.2583 898.9295H315.9183C377.9283 898.9295 409.1783 868.1595 409.1783 803.7095V584.9595C409.1783 520.9995 377.9283 489.7495 315.9183 489.7495H93.2583C31.2483 489.7495 -0.0017 520.9995 -0.0017 584.9595V803.7095C-0.0017 868.1595 31.2483 898.9295 93.2583 898.9295ZM522.9483 616.2095H606.4483C613.2783 616.2095 616.2083 613.2795 616.2083 604.9795V523.9295C616.2083 516.1095 613.2783 513.1795 606.4483 513.1795H522.9483C515.6283 513.1795 513.1883 516.1095 513.1883 523.9295V604.9795C513.1883 613.2795 515.6283 616.2095 522.9483 616.2095ZM782.2283 616.2095H865.7183C872.5583 616.2095 875.4883 613.2795 875.4883 604.9795V523.9295C875.4883 516.1095 872.5583 513.1795 865.7183 513.1795H782.2283C774.8983 513.1795 772.4583 516.1095 772.4583 523.9295V604.9795C772.4583 613.2795 774.8983 616.2095 782.2283 616.2095ZM94.2383 830.0795C77.1483 830.0795 68.8483 821.2895 68.8483 803.7095V585.4495C68.8483 567.3795 77.1483 558.5895 94.2383 558.5895H314.4483C331.5383 558.5895 340.3283 567.3795 340.3283 585.4495V803.7095C340.3283 821.2895 331.5383 830.0795 314.4483 830.0795ZM162.5983 746.0895H246.0983C252.9283 746.0895 255.8583 743.1595 255.8583 734.3795V653.8095C255.8583 645.9995 252.9283 643.0695 246.0983 643.0695H162.5983C155.2783 643.0695 152.8283 645.9995 152.8283 653.8095V734.3795C152.8283 743.1595 155.2783 746.0895 162.5983 746.0895ZM653.8083 746.0895H737.3083C744.1383 746.0895 747.0683 743.1595 747.0683 734.3795V653.8095C747.0683 645.9995 744.1383 643.0695 737.3083 643.0695H653.8083C646.4883 643.0695 644.0383 645.9995 644.0383 653.8095V734.3795C644.0383 743.1595 646.4883 746.0895 653.8083 746.0895ZM522.9483 875.4895H606.4483C613.2783 875.4895 616.2083 872.5595 616.2083 864.2595V783.1995C616.2083 775.3895 613.2783 772.4595 606.4483 772.4595H522.9483C515.6283 772.4595 513.1883 775.3895 513.1883 783.1995V864.2595C513.1883 872.5595 515.6283 875.4895 522.9483 875.4895ZM782.2283 875.4895H865.7183C872.5583 875.4895 875.4883 872.5595 875.4883 864.2595V783.1995C875.4883 775.3895 872.5583 772.4595 865.7183 772.4595H782.2283C774.8983 772.4595 772.4583 775.3895 772.4583 783.1995V864.2595C772.4583 872.5595 774.8983 875.4895 782.2283 875.4895Z"/>
</svg>