<?xml version="1.0" encoding="UTF-8" standalone="no"?>
<svg xmlns="http://www.w3.org/2000/svg"
     width="888.671875" height="888.18359375"
     viewBox="0 0 888.671875 888.18359375"
     fill="currentColor">
  <path d="M831.5383 57.615C781.7383 7.815 711.4283 -0.005 627.9283 -0.005H259.2783C177.2483 -0.005 106.9383 7.815 57.1283 57.615C7.3283 107.425 -0.0017 177.245 -0.0017 258.785V627.925C-0.0017 711.425 7.3283 780.765 57.1283 830.565C106.9383 880.375 177.2483 888.185 260.2583 888.185H627.9283C711.4283 888.185 781.7383 880.375 831.5383 830.565C881.3483 780.765 888.6683 711.425 888.6683 627.925V260.255C888.6683 176.755 881.3483 106.935 831.5383 57.615ZM434.5683 548.825C408.1983 548.825 394.0383 535.155 394.0383 508.785V502.445C394.0383 452.635 420.8983 426.265 457.0283 400.875C500.9783 370.115 522.4583 353.515 522.4583 319.335C522.4583 281.245 492.1883 255.375 446.7783 255.375C413.5783 255.375 387.2083 271.975 369.1383 301.265L360.3483 313.475C351.0783 325.195 340.3283 333.495 323.2383 333.495C306.1483 333.495 288.0883 321.285 288.0883 298.825C288.0883 290.035 290.0383 281.735 292.4783 273.925C306.6383 227.535 363.2783 187.015 450.1983 187.015C536.1283 187.015 610.3483 231.445 610.3483 315.425C610.3483 375.975 575.1983 405.275 526.3683 437.495C491.6983 460.445 475.0983 478.515 475.0983 506.835V512.695C475.0983 532.715 459.9583 548.825 434.5683 548.825ZM433.1083 698.735C404.2983 698.735 378.4183 675.295 378.4183 646.485C378.4183 617.675 403.8083 593.745 433.1083 593.745C462.8883 593.745 487.7883 617.185 487.7883 646.485C487.7883 675.785 462.3983 698.735 433.1083 698.735Z"/>
</svg>