<?xml version="1.0" encoding="UTF-8" standalone="no"?>
<svg xmlns="http://www.w3.org/2000/svg"
     width="1076.171875" height="1013.18359375"
     viewBox="0 0 1076.171875 1013.18359375"
     fill="currentColor">
  <path d="M290.0383 1013.1819C309.0783 1013.1819 323.2383 1003.4219 346.1883 981.9319L522.4583 820.8019H852.5383C998.0483 820.8019 1076.1683 740.7219 1076.1683 597.6519V223.6319C1076.1683 80.5619 998.0483 0.0019 852.5383 0.0019H223.6283C78.1283 0.0019 -0.0017 80.0819 -0.0017 223.6319V597.6519C-0.0017 741.2119 78.1283 820.8019 223.6283 820.8019H246.5783V962.8919C246.5783 993.1619 262.2083 1013.1819 290.0383 1013.1819ZM528.3183 514.6519C501.9483 514.6519 487.7883 500.9719 487.7883 474.6119V468.2619C487.7883 418.4619 515.1383 392.0919 550.7783 366.7019C595.2183 335.9419 616.2083 319.3319 616.2083 285.1519C616.2083 247.0719 586.4283 221.1919 540.5283 221.1919C507.3283 221.1919 480.9583 237.7919 462.8883 267.0919L454.0983 279.2919C444.8283 291.0119 434.0783 299.3119 416.9883 299.3119C399.8983 299.3119 381.8383 287.1119 381.8383 264.6519C381.8383 255.8619 383.7883 247.5619 386.2283 239.7419C400.3883 193.3619 457.0283 152.8319 543.9483 152.8319C629.8783 152.8319 704.5883 197.2619 704.5883 281.2519C704.5883 341.7919 669.4383 371.0919 620.6083 403.3219C585.4483 426.2719 568.8483 444.3319 568.8483 472.6519V478.5119C568.8483 498.5319 553.7083 514.6519 528.3183 514.6519ZM526.8583 664.5519C498.0483 664.5519 472.6583 641.6019 472.6583 612.3019C472.6583 583.4919 497.5583 560.0619 526.8583 560.0619C556.6383 560.0619 581.5383 583.0119 581.5383 612.3019C581.5383 642.0919 556.1483 664.5519 526.8583 664.5519Z"/>
</svg>