<?xml version="1.0" encoding="UTF-8" standalone="no"?>
<svg xmlns="http://www.w3.org/2000/svg"
     width="898.92578125" height="898.92578125"
     viewBox="0 0 898.92578125 898.92578125"
     fill="currentColor">
  <path d="M-0.0017 257.3195H78.6183V155.2695C78.6183 104.4895 105.4683 78.6095 154.2983 78.6095H255.3683V-0.0005H153.3183C51.2683 -0.0005 -0.0017 50.2895 -0.0017 151.3695ZM322.2683 78.6095H576.6583V-0.0005H322.2683ZM820.3083 257.3195H898.9283V151.3695C898.9283 50.7795 847.6583 -0.0005 745.6083 -0.0005H643.5583V78.6095H744.6283C792.9683 78.6095 820.3083 104.4895 820.3083 155.2695ZM439.9383 549.8095C464.8483 549.8095 479.4883 534.1795 479.4883 515.1395V509.2795C479.4883 481.9295 495.6083 464.3595 529.2983 441.8895C576.6583 410.6395 610.3483 382.3195 610.3483 323.7295C610.3483 242.6795 538.0883 198.7295 455.0783 198.7295C371.5783 198.7295 316.4083 238.7695 302.7383 283.6895C300.2883 291.4995 298.8283 299.3195 298.8283 307.6195C298.8283 329.5895 315.9183 341.3095 332.0283 341.3095C349.1183 341.3095 359.3783 333.4995 368.1683 321.7795L376.9483 310.0595C394.0383 281.7395 419.9183 265.1395 452.1483 265.1395C496.5783 265.1395 525.3883 290.5295 525.3883 327.6395C525.3883 360.8395 504.8783 376.9495 462.3983 406.7395C427.2483 431.1495 400.8783 457.0295 400.8783 504.8795V511.2295C400.8783 536.6195 415.0383 549.8095 439.9383 549.8095ZM820.3083 574.7095H898.9283V324.2195H820.3083ZM-0.0017 574.7095H78.6183V324.2195H-0.0017ZM438.9683 695.3095C467.2883 695.3095 491.6983 672.8495 491.6983 644.5295C491.6983 616.2095 467.7783 593.7495 438.9683 593.7495C410.1583 593.7495 386.2283 616.6995 386.2283 644.5295C386.2283 672.3595 410.6483 695.3095 438.9683 695.3095ZM643.5583 898.9295H745.6083C847.6583 898.9295 898.9283 848.1495 898.9283 747.5595V641.5995H820.3083V743.6495C820.3083 794.4295 792.9683 820.3095 744.6283 820.3095H643.5583ZM153.3183 898.9295H255.3683V820.3095H154.2983C105.4683 820.3095 78.6183 794.4295 78.6183 743.6495V641.5995H-0.0017V747.5595C-0.0017 848.6295 51.2683 898.9295 153.3183 898.9295ZM322.2683 898.9295H576.6583V820.3095H322.2683Z"/>
</svg>