<?xml version="1.0" encoding="UTF-8" standalone="no"?>
<svg xmlns="http://www.w3.org/2000/svg"
     width="1324.70703125" height="930.17578125"
     viewBox="0 0 1324.70703125 930.17578125"
     fill="currentColor">
  <path d="M241.6983 663.0814C275.8783 663.0814 291.5083 639.6514 291.5083 608.4014V591.8014C292.4783 527.3414 315.4283 500.4914 393.5583 446.7814C477.5383 390.1414 530.7583 324.7114 530.7583 230.4714C530.7583 83.9814 411.6183 0.0014 263.1883 0.0014C152.8283 0.0014 56.1483 52.2414 14.6483 146.4814C4.3983 169.4314 -0.0017 191.8914 -0.0017 210.4514C-0.0017 238.2814 16.1183 257.8114 45.8983 257.8114C70.7983 257.8114 87.3983 243.1614 94.7283 219.2414C119.6283 126.4614 181.1483 91.3114 259.7683 91.3114C354.9783 91.3114 429.6883 145.0214 429.6883 229.9814C429.6883 299.8014 386.2283 338.8714 323.7283 382.8114C247.0683 436.0314 190.9183 493.1614 190.9183 579.1014V609.8614C190.9183 641.1114 208.0083 663.0814 241.6983 663.0814ZM1324.7083 461.9114C1324.7083 350.1014 1235.3483 260.7414 1124.0283 260.7414C1040.5283 260.7414 966.7983 309.5714 936.5283 386.7214H636.2283C627.4383 386.7214 620.1183 389.6514 613.2783 396.4814L561.5283 447.7514C554.1983 454.5914 553.2183 468.2614 561.5283 476.5614L658.6883 574.2214C666.9883 583.0114 679.6883 582.5214 688.4783 574.2214L744.1383 517.5814L823.7283 596.6814C831.5383 604.9814 843.7483 604.9814 852.5383 596.1914L930.1783 520.0214C968.7483 611.3314 1039.5483 663.5714 1124.0283 663.5714C1234.8683 663.5714 1324.7083 573.2414 1324.7083 461.9114ZM1144.0383 471.6814C1144.0383 441.4014 1168.9483 416.0114 1199.7083 416.0114C1230.9583 416.0114 1255.3683 440.4314 1255.3683 471.6814C1255.3683 502.4414 1230.4683 527.3414 1199.7083 527.3414C1168.9483 527.3414 1144.0383 502.4414 1144.0383 471.6814ZM241.6983 930.1714C280.7583 930.1714 311.5283 898.9214 311.5283 860.8414C311.5283 822.2614 280.7583 791.5014 241.6983 791.5014C203.6183 791.5014 172.3683 822.2614 172.3683 860.8414C172.3683 898.9214 203.6183 930.1714 241.6983 930.1714Z"/>
</svg>