<?xml version="1.0" encoding="UTF-8" standalone="no"?>
<svg xmlns="http://www.w3.org/2000/svg"
     width="996.09375" height="996.09375"
     viewBox="0 0 996.09375 996.09375"
     fill="currentColor">
  <path d="M498.0477 996.0959C770.5077 996.0959 996.0977 770.0159 996.0977 498.0459C996.0977 225.5859 770.0177 -0.0041 497.5577 -0.0041C225.5877 -0.0041 -0.0023 225.5859 -0.0023 498.0459C-0.0023 770.0159 226.0777 996.0959 498.0477 996.0959ZM487.7977 602.5359C461.9177 602.5359 447.2677 588.8659 447.2677 562.4959V556.1559C447.2677 506.3459 474.6077 479.9759 510.7377 454.5859C554.6877 423.8259 575.6877 407.2259 575.6877 373.0459C575.6877 334.9559 545.8977 309.0859 500.4877 309.0859C466.7977 309.0859 440.9177 325.6859 422.8477 354.9759L414.0577 367.1859C404.7877 378.9059 393.5577 387.2059 376.4677 387.2059C359.8677 387.2059 341.7977 374.9959 341.7977 352.5359C341.7977 343.7459 343.7477 335.4459 346.1877 327.6359C359.8677 281.2459 416.5077 240.7259 503.4177 240.7259C589.3577 240.7259 664.0577 285.1559 664.0577 369.1359C664.0577 429.6859 628.9077 458.9859 580.0777 491.2059C544.9177 514.1559 528.8077 532.2259 528.8077 560.5459V566.4059C528.8077 586.4259 513.1877 602.5359 487.7977 602.5359ZM486.8177 752.4459C457.5177 752.4459 432.1277 729.0059 432.1277 700.1959C432.1277 671.3859 457.0277 647.4559 486.8177 647.4559C516.5977 647.4559 541.5077 670.8959 541.5077 700.1959C541.5077 729.4959 516.1177 752.4459 486.8177 752.4459Z"/>
</svg>