<?xml version="1.0" encoding="UTF-8" standalone="no"?>
<svg xmlns="http://www.w3.org/2000/svg"
     width="530.76171875" height="930.17578125"
     viewBox="0 0 530.76171875 930.17578125"
     fill="currentColor">
  <path d="M241.6983 663.0814C275.8783 663.0814 291.5083 639.6514 291.5083 608.4014V591.8014C292.4783 527.3414 315.4283 500.4914 393.5583 446.7814C477.5383 390.1414 530.7583 324.7114 530.7583 230.4714C530.7583 83.9814 411.6183 0.0014 263.1883 0.0014C152.8283 0.0014 56.1483 52.2414 14.6483 146.4814C4.3983 169.4314 -0.0017 191.8914 -0.0017 210.4514C-0.0017 238.2814 16.1183 257.8114 45.8983 257.8114C70.7983 257.8114 87.3983 243.1614 94.7283 219.2414C119.6283 126.4614 181.1483 91.3114 259.7683 91.3114C354.9783 91.3114 429.6883 145.0214 429.6883 229.9814C429.6883 299.8014 386.2283 338.8714 323.7283 382.8114C247.0683 436.0314 190.9183 493.1614 190.9183 579.1014V609.8614C190.9183 641.1114 208.0083 663.0814 241.6983 663.0814ZM241.6983 930.1714C280.7583 930.1714 311.5283 898.9214 311.5283 860.8414C311.5283 822.2614 280.7583 791.5014 241.6983 791.5014C203.6183 791.5014 172.3683 822.2614 172.3683 860.8414C172.3683 898.9214 203.6183 930.1714 241.6983 930.1714Z"/>
</svg>