<?xml version="1.0" encoding="UTF-8" standalone="no"?>
<svg xmlns="http://www.w3.org/2000/svg"
     width="1198.73046875" height="792.96875"
     viewBox="0 0 1198.73046875 792.96875"
     fill="currentColor">
  <path d="M156.738 792.9734H681.148C779.298 792.9734 837.888 736.3234 837.888 638.1834V154.2934C837.888 56.6434 784.178 0.0034 686.038 0.0034H156.738C62.988 0.0034 -0.002 56.6434 -0.002 154.2934V638.1834C-0.002 736.3234 58.598 792.9734 156.738 792.9734ZM904.298 540.5234L1082.028 694.3334C1098.628 708.9834 1118.168 718.2634 1135.738 718.2634C1173.828 718.2634 1198.728 690.4334 1198.728 650.3934V142.5734C1198.728 102.5434 1173.828 74.7034 1135.738 74.7034C1118.168 74.7034 1098.628 83.9834 1082.028 98.6334L904.298 251.9534ZM405.758 493.1634C381.838 493.1634 369.138 480.9534 369.138 456.5434V450.6834C369.138 406.2534 393.558 382.3234 426.268 358.8834C465.818 331.5434 485.348 316.4034 485.348 285.1534C485.348 250.4834 458.498 227.5434 416.988 227.5434C386.718 227.5434 364.748 242.1834 349.608 266.6034C334.958 284.1834 330.568 298.3434 304.688 298.3434C289.548 298.3434 272.948 287.1134 272.948 266.6034C272.948 258.7934 274.418 250.9734 276.858 243.6534C290.528 201.6634 340.818 165.0434 419.438 165.0434C497.558 165.0434 565.428 205.5634 565.428 281.7334C565.428 336.4234 533.688 363.2834 489.748 392.5734C457.518 413.5734 442.868 429.2034 442.868 455.0734V460.4534C442.868 479.0034 428.708 493.1634 405.758 493.1634ZM404.298 629.3934C377.928 629.3934 355.468 607.9134 355.468 582.0334C355.468 555.6634 377.438 534.1834 404.298 534.1834C431.148 534.1834 453.618 555.6634 453.618 582.0334C453.618 608.3934 430.668 629.3934 404.298 629.3934Z"/>
</svg>