<?xml version="1.0" encoding="UTF-8" standalone="no"?>
<svg xmlns="http://www.w3.org/2000/svg"
     width="898.92578125" height="898.92578125"
     viewBox="0 0 898.92578125 898.92578125"
     fill="currentColor">
  <path d="M153.3183 898.9295H745.6083C848.1483 898.9295 898.9283 848.1495 898.9283 747.5595V151.3695C898.9283 50.7795 848.1483 -0.0005 745.6083 -0.0005H153.3183C51.2683 -0.0005 -0.0017 50.2895 -0.0017 151.3695V747.5595C-0.0017 848.6295 51.2683 898.9295 153.3183 898.9295ZM439.4483 553.2195C413.5783 553.2195 399.4183 539.5495 399.4183 513.1795V506.8395C399.4183 457.0295 426.2683 430.6595 462.3983 405.2695C506.3483 374.5095 527.3483 357.9095 527.3483 323.7295C527.3483 285.6395 497.5583 259.7695 452.1483 259.7695C418.9483 259.7695 392.5783 276.3695 374.5083 305.6595L365.7183 317.8695C356.4483 329.5895 345.6983 337.8895 328.1283 337.8895C311.5283 337.8895 293.4583 325.6795 293.4583 303.2195C293.4583 294.4295 295.4083 286.1295 297.8483 278.3195C312.0083 231.9295 368.6483 191.4095 455.0783 191.4095C541.0183 191.4095 615.7183 235.8395 615.7183 319.8195C615.7183 380.3695 580.5683 409.6695 531.7383 441.8895C497.0683 464.8395 480.4683 482.9095 480.4683 511.2295V517.0895C480.4683 537.1095 465.3283 553.2195 439.4483 553.2195ZM438.4783 703.1295C409.1783 703.1295 383.7883 679.6895 383.7883 650.8795C383.7883 622.0695 408.6883 598.1395 438.4783 598.1395C468.2583 598.1395 493.1683 621.5795 493.1683 650.8795C493.1683 680.1795 467.7783 703.1295 438.4783 703.1295Z"/>
</svg>