<?xml version="1.0" encoding="UTF-8" standalone="no"?>
<svg xmlns="http://www.w3.org/2000/svg"
     width="1107.3672103163326" height="1107.3672103163324"
     viewBox="0 0 1107.3672103163326 1107.3672103163324"
     fill="currentColor">
  <path d="M54.7573 661.6849L445.8673 1052.7949C518.1273 1125.0649 589.4173 1125.5549 661.1973 1054.2649L1054.2673 660.7049C1125.5573 589.4249 1125.0673 517.6449 1052.7973 445.3749L662.1773 54.7549C589.9073 -17.5151 518.6173 -18.4851 446.8473 53.2849L53.2873 446.3549C-18.4927 518.1349 -17.5127 589.4249 54.7573 661.6849ZM543.5173 658.2649C517.1573 658.2649 502.9973 644.5949 502.9973 618.2249V611.8849C502.9973 562.0749 530.3373 535.7049 565.9873 510.3149C610.4173 479.5549 631.4173 462.9549 631.4173 428.7749C631.4173 390.6849 601.6273 364.8149 555.7273 364.8149C522.5273 364.8149 496.6473 381.4149 478.5773 410.7049L469.7873 422.9149C460.5173 434.6349 449.2873 442.9349 432.1973 442.9349C415.1073 442.9349 397.0373 430.7249 397.0373 408.2649C397.0373 399.4749 398.9873 391.1749 401.9173 383.3649C415.5973 336.9749 472.2373 296.4549 559.1473 296.4549C645.0873 296.4549 719.7873 340.8849 719.7873 424.8649C719.7873 485.4149 684.6373 514.7149 635.8073 546.9349C600.6473 569.8849 584.0473 587.9549 584.0473 616.2749V622.1349C584.0473 642.1549 568.9173 658.2649 543.5173 658.2649ZM542.0573 808.1749C513.2473 808.1749 487.8573 784.7349 487.8573 755.9249C487.8573 727.1149 512.7573 703.1849 542.0573 703.1849C571.8473 703.1849 596.7473 726.6249 596.7473 755.9249C596.7473 785.2249 571.3573 808.1749 542.0573 808.1749Z"/>
</svg>