<?xml version="1.0" encoding="UTF-8" standalone="no"?>
<svg xmlns="http://www.w3.org/2000/svg"
     width="1074.70703125" height="676.7578125"
     viewBox="0 0 1074.70703125 676.7578125"
     fill="currentColor">
  <path d="M-0.0017 234.8597C-0.0017 364.7497 96.6783 468.2597 220.2183 468.2597C278.3183 468.2597 333.4983 445.3097 374.0283 400.3897H387.2083C358.8883 492.6797 272.9483 569.8197 166.5083 601.5597C150.8783 606.4497 139.6483 610.8397 132.8083 616.6997C124.9983 623.0497 121.0983 630.8597 121.0983 642.0897C121.0983 662.5997 136.2283 676.7597 158.6883 676.7597C174.8083 676.7597 186.0383 673.8297 207.5183 666.9897C274.4183 645.0197 335.4483 606.4497 382.3283 557.1297C447.7583 488.7697 488.2783 397.4597 488.2783 289.0597C488.2783 105.9597 372.0683 -0.0003 235.8383 -0.0003C101.5583 -0.0003 -0.0017 102.5397 -0.0017 234.8597ZM586.4283 234.8597C586.4283 364.7497 682.6183 468.2597 806.6383 468.2597C864.7483 468.2597 919.4383 445.3097 960.4483 400.3897H973.1483C945.3083 492.6797 859.3783 569.8197 752.4383 601.5597C736.8183 606.4497 726.0783 610.8397 719.2383 616.6997C711.4283 623.0497 707.0283 630.8597 707.0283 642.0897C707.0283 662.5997 722.6583 676.7597 745.6083 676.7597C760.7383 676.7597 772.4583 673.8297 793.4583 666.9897C860.8383 645.0197 921.3883 606.4497 967.7783 557.1297C1034.1783 488.7697 1074.7083 397.4597 1074.7083 289.0597C1074.7083 105.9597 958.4983 -0.0003 822.2683 -0.0003C687.9883 -0.0003 586.4283 102.5397 586.4283 234.8597Z"/>
</svg>