<?xml version="1.0" encoding="UTF-8" standalone="no"?>
<svg xmlns="http://www.w3.org/2000/svg"
     width="1201.3600788319552" height="910.64453125"
     viewBox="0 0 1201.3600788319552 910.64453125"
     fill="currentColor">
  <path d="M478.9508 910.642C499.4508 910.642 515.5708 893.552 515.5708 873.042V37.112C515.5708 16.602 499.4508 0.002 478.9508 0.002C458.4408 0.002 441.8408 16.602 441.8408 37.112V873.042C441.8408 893.552 458.4408 910.642 478.9508 910.642ZM722.6008 910.642C743.1108 910.642 759.2208 893.552 759.2208 873.042V37.112C759.2208 16.602 743.1108 0.002 722.6008 0.002C702.0908 0.002 685.4908 16.602 685.4908 37.112V873.042C685.4908 893.552 702.0908 910.642 722.6008 910.642ZM1018.5008 604.982L1180.1208 497.072C1208.9308 477.542 1207.9508 435.542 1180.1208 416.502L1018.5008 306.642C980.9008 281.252 942.3208 295.412 942.3208 340.332V571.782C942.3208 615.232 982.8508 628.902 1018.5008 604.982ZM182.5608 604.982C218.6908 628.422 259.7108 615.232 259.2208 571.782V340.332C259.7108 295.412 220.1608 281.252 182.5608 306.642L21.4308 416.502C-6.4092 436.032 -7.8692 477.542 21.4308 497.072Z"/>
</svg>