<?xml version="1.0" encoding="UTF-8" standalone="no"?>
<svg xmlns="http://www.w3.org/2000/svg"
     width="1074.70703125" height="676.7578125"
     viewBox="0 0 1074.70703125 676.7578125"
     fill="currentColor">
  <path d="M488.2783 441.8897C488.2783 312.0097 392.0883 208.4997 268.0683 208.4997C209.9583 208.4997 154.7883 231.4497 114.2583 276.3697H101.0783C129.3983 184.0797 215.3283 106.9297 322.2683 75.1997C337.3983 70.3097 348.6283 65.9197 355.4683 60.0597C363.2783 53.7097 367.6783 45.8997 367.6783 34.6697C367.6783 14.1597 352.0483 -0.0003 329.0983 -0.0003C313.9683 -0.0003 302.2483 2.9297 281.2483 9.7697C213.8683 31.7397 153.3183 70.3097 106.4483 119.6297C40.5283 187.9897 -0.0017 279.2997 -0.0017 387.6997C-0.0017 570.7997 116.2083 676.7597 252.4383 676.7597C386.7183 676.7597 488.2783 574.2197 488.2783 441.8897ZM1074.7083 441.8897C1074.7083 312.0097 978.0283 208.4997 854.4883 208.4997C796.3883 208.4997 740.7183 231.4497 700.6883 276.3697H687.4983C715.8183 184.0797 801.7583 106.9297 908.1983 75.1997C923.3383 70.3097 935.0583 65.9197 941.8983 60.0597C949.7083 53.7097 953.6183 45.8997 953.6183 34.6697C953.6183 14.1597 938.4783 -0.0003 915.5283 -0.0003C899.8983 -0.0003 888.6683 2.9297 867.1883 9.7697C800.2883 31.7397 739.2583 70.3097 692.3783 119.6297C626.9483 187.9897 586.4283 279.2997 586.4283 387.6997C586.4283 570.7997 702.6383 676.7597 838.8683 676.7597C973.1483 676.7597 1074.7083 574.2197 1074.7083 441.8897Z"/>
</svg>