<?xml version="1.0" encoding="UTF-8" standalone="no"?>
<svg xmlns="http://www.w3.org/2000/svg"
     width="996.09375" height="996.09375"
     viewBox="0 0 996.09375 996.09375"
     fill="currentColor">
  <path d="M498.0477 996.0959C770.5077 996.0959 996.0977 770.0159 996.0977 498.0459C996.0977 225.5859 770.0177 -0.0041 497.5577 -0.0041C225.5877 -0.0041 -0.0023 225.5859 -0.0023 498.0459C-0.0023 770.0159 226.0777 996.0959 498.0477 996.0959ZM368.6477 729.0059C343.2577 729.0059 329.0977 710.4459 329.0977 683.5959V309.5659C329.0977 282.2259 342.7777 263.6759 368.1677 263.6759H513.1877C615.2377 263.6759 680.1777 321.2859 680.1777 412.1059C680.1777 474.6059 642.0877 527.3459 583.0077 546.8759L658.2077 665.0359C664.5477 675.2959 667.4777 683.1059 667.4777 694.3359C667.4777 714.8459 652.3477 729.0059 630.8577 729.0059C612.7977 729.0059 602.5377 721.6759 590.3277 702.1459L503.4177 558.5959H409.6677V683.5959C409.6677 711.4259 395.0177 729.0059 368.6477 729.0059ZM409.6677 499.5159H501.4677C562.0077 499.5159 600.5877 468.7459 600.5877 414.0659C600.5877 357.9059 561.0377 325.6859 503.4177 325.6859H409.6677Z"/>
</svg>