<?xml version="1.0" encoding="UTF-8" standalone="no"?>
<svg xmlns="http://www.w3.org/2000/svg"
     width="1239.74609375" height="1364.6240234375"
     viewBox="0 0 1239.74609375 1364.6240234375"
     fill="currentColor">
  <path d="M497.0677 144.4042C477.0477 171.2642 488.7677 203.9842 522.4577 203.9842H717.7777C752.9277 203.9842 763.1877 170.2842 743.6477 144.4042L645.9977 13.5542C632.3277 -4.5158 607.4177 -4.5158 594.2377 13.5542ZM619.6277 1364.6242C961.9177 1364.6242 1239.7477 1087.2842 1239.7477 744.9942C1239.7477 472.5342 1063.4777 240.6042 818.3577 158.0842C822.2677 185.9142 814.9377 213.7442 797.8477 234.2542C1009.2777 307.9842 1161.1377 508.6642 1161.1377 744.9942C1161.1377 1043.8242 918.4577 1286.0142 619.6277 1286.0142C320.7977 1286.0142 78.6177 1043.8242 78.6177 744.9942C78.6177 508.1742 230.9577 307.4942 442.3877 234.2542C425.7777 213.2542 417.9677 185.4242 421.8777 157.5942C176.7577 239.6242 -0.0023 472.0442 -0.0023 744.9942C-0.0023 1087.2842 277.3477 1364.6242 619.6277 1364.6242ZM619.6277 1173.7042C856.9377 1173.7042 1048.8277 981.8142 1048.8277 744.9942C1048.8277 508.1742 856.9377 315.7942 619.6277 315.7942C382.8077 315.7942 190.9177 508.1742 190.9177 744.9942C190.9177 981.8142 382.8077 1173.7042 619.6277 1173.7042ZM619.6277 1095.0942C426.2677 1095.0942 269.5277 938.3542 269.5277 744.9942C269.5277 551.6342 426.2677 394.4042 619.6277 394.4042C813.4777 394.4042 970.2177 551.6342 970.2177 744.9942C970.2177 938.3542 813.4777 1095.0942 619.6277 1095.0942ZM500.9777 957.3942C525.3877 957.3942 538.5777 941.7742 538.5777 916.3842V800.6542H624.9977L705.5677 932.9842C716.3077 951.0542 726.0777 957.3942 742.1877 957.3942C762.2077 957.3942 775.8777 944.7042 775.8777 926.1442C775.8777 915.8942 773.4377 908.0842 767.5777 899.2942L697.7577 789.9142C752.4377 771.8542 787.5977 723.5142 787.5977 665.8942C787.5977 582.3942 728.0277 529.1742 633.7877 529.1742H500.9777C477.0477 529.1742 464.3577 546.2642 464.3577 571.1642V916.3842C464.3577 940.7942 477.0477 957.3942 500.9777 957.3942ZM538.5777 746.4642V585.8142H624.9977C678.2277 585.8142 714.3577 615.6042 714.3577 667.8442C714.3577 718.1442 679.1977 746.4642 623.0477 746.4642Z"/>
</svg>