<?xml version="1.0" encoding="UTF-8" standalone="no"?>
<svg xmlns="http://www.w3.org/2000/svg"
     width="1239.74609375" height="1364.4415449834496"
     viewBox="0 0 1239.74609375 1364.4415449834496"
     fill="currentColor">
  <path d="M619.6277 -0.002C277.3477 -0.002 -0.0023 277.348 -0.0023 619.628C-0.0023 892.578 176.7577 1124.508 421.8777 1207.028C417.9677 1178.708 425.7777 1151.368 442.3877 1130.368C230.9577 1057.128 78.6177 856.448 78.6177 619.628C78.6177 320.798 320.7977 78.618 619.6277 78.618C918.4577 78.618 1161.1377 320.798 1161.1377 619.628C1161.1377 855.468 1009.2777 1056.638 797.8477 1130.368C814.9377 1150.878 822.2677 1178.218 818.3577 1206.548C1063.4777 1123.538 1239.7477 892.088 1239.7477 619.628C1239.7477 277.348 961.9177 -0.002 619.6277 -0.002ZM619.6277 190.428C382.8077 190.428 190.9177 382.808 190.9177 619.628C190.9177 856.448 382.8077 1048.338 619.6277 1048.338C856.9377 1048.338 1048.8277 856.448 1048.8277 619.628C1048.8277 382.808 856.9377 190.428 619.6277 190.428ZM619.6277 269.038C813.4777 269.038 970.2177 426.268 970.2177 619.628C970.2177 812.988 813.4777 969.728 619.6277 969.728C426.2677 969.728 269.5277 812.988 269.5277 619.628C269.5277 426.268 426.2677 269.038 619.6277 269.038ZM500.9777 832.028C525.3877 832.028 538.5777 816.408 538.5777 791.018V675.288H624.9977L705.5677 807.618C716.3077 825.688 726.0777 832.028 742.1877 832.028C762.2077 832.028 775.8777 819.338 775.8777 800.778C775.8777 790.528 773.4377 782.718 767.5777 773.928L697.7577 664.548C752.4377 646.488 787.5977 598.148 787.5977 540.528C787.5977 457.028 728.0277 403.808 633.7877 403.808H500.9777C477.0477 403.808 464.3577 420.898 464.3577 445.798V791.018C464.3577 815.428 477.0477 832.028 500.9777 832.028ZM538.5777 621.098V460.448H624.9977C678.2277 460.448 714.3577 490.238 714.3577 542.478C714.3577 592.778 679.1977 621.098 623.0477 621.098ZM497.0677 1220.218L594.2377 1351.078C607.4177 1369.138 632.3277 1368.648 645.9977 1351.078L743.6477 1220.218C763.1877 1194.338 752.9277 1160.648 717.7777 1160.648H522.4577C488.7677 1160.648 477.0477 1193.358 497.0677 1220.218Z"/>
</svg>