<?xml version="1.0" encoding="UTF-8" standalone="no"?>
<svg xmlns="http://www.w3.org/2000/svg"
     width="1364.6240234375" height="1239.2578125"
     viewBox="0 0 1364.6240234375 1239.2578125"
     fill="currentColor">
  <path d="M619.6277 -0.002C277.3477 -0.002 -0.0023 277.348 -0.0023 619.628C-0.0023 961.918 277.3477 1239.258 619.6277 1239.258C892.0877 1239.258 1123.5377 1062.988 1206.5477 818.358C1178.2277 822.268 1150.8777 814.458 1130.3677 797.848C1056.6377 1009.278 855.9577 1160.648 619.6277 1160.648C320.7977 1160.648 78.6177 918.458 78.6177 619.628C78.6177 320.798 320.7977 78.618 619.6277 78.618C856.4477 78.618 1057.1277 230.468 1130.3677 442.378C1151.3677 425.288 1178.7077 417.968 1207.0277 421.878C1124.5077 176.758 892.5777 -0.002 619.6277 -0.002ZM619.6277 1048.338C856.4477 1048.338 1048.8277 856.448 1048.8277 619.628C1048.8277 382.808 856.4477 190.428 619.6277 190.428C382.8077 190.428 190.4277 382.808 190.4277 619.628C190.4277 856.448 382.8077 1048.338 619.6277 1048.338ZM619.6277 969.728C426.2677 969.728 269.0477 812.988 269.0477 619.628C269.0477 426.268 426.2677 269.038 619.6277 269.038C812.9877 269.038 970.2177 426.268 970.2177 619.628C970.2177 812.988 812.9877 969.728 619.6277 969.728ZM500.9777 832.028C525.3877 832.028 538.5777 816.408 538.5777 791.018V675.288H624.9977L705.5677 807.618C716.3077 825.688 726.0777 832.028 742.1877 832.028C762.2077 832.028 775.8777 819.338 775.8777 800.778C775.8777 790.528 773.4377 782.718 767.5777 773.928L697.7577 664.548C752.4377 646.488 787.5977 598.148 787.5977 540.528C787.5977 457.028 728.0277 403.808 633.7877 403.808H500.9777C477.0477 403.808 464.3577 420.898 464.3577 445.798V791.018C464.3577 815.428 477.0477 832.028 500.9777 832.028ZM538.5777 621.098V460.448H624.9977C678.2277 460.448 714.3577 490.238 714.3577 542.478C714.3577 592.778 679.1977 621.098 623.0477 621.098ZM1220.2177 496.578C1193.3577 476.078 1160.6477 488.278 1160.6477 521.968V717.778C1160.6477 752.438 1194.3377 762.698 1220.2177 743.168L1351.0777 645.508C1369.1377 632.328 1369.1377 607.418 1351.0777 594.238Z"/>
</svg>