<?xml version="1.0" encoding="UTF-8" standalone="no"?>
<svg xmlns="http://www.w3.org/2000/svg"
     width="1006.8359375" height="865.72265625"
     viewBox="0 0 1006.8359375 865.72265625"
     fill="currentColor">
  <path d="M503.4177 658.6944C808.1077 658.6944 1006.8377 523.9244 1006.8377 329.1044C1006.8377 134.7644 807.6177 0.0044 502.9277 0.0044C198.7277 0.0044 -0.0023 134.7644 -0.0023 329.1044C-0.0023 523.9244 198.7277 658.6944 503.4177 658.6944ZM503.4177 574.7044C254.8877 574.7044 88.3777 475.0944 88.3777 329.1044C88.3777 183.1044 254.8877 83.9844 502.9277 83.9844C751.4677 83.9844 918.4577 183.1044 918.4577 329.1044C918.4577 475.0944 751.9577 574.7044 503.4177 574.7044ZM421.8777 475.0944C440.4277 475.0944 452.1477 462.4044 452.1477 442.3844V369.6244H501.9577L555.6677 457.0344C563.9677 470.7044 571.7777 475.5844 583.9877 475.5844C599.1177 475.5844 611.8177 464.8444 611.8177 449.2144C611.8177 441.4044 609.3777 435.0544 604.9777 428.7144L561.0377 359.8644C596.6777 345.7044 618.1677 312.9844 618.1677 274.4144C618.1677 215.8244 575.6877 178.2244 511.2277 178.2244H421.8777C404.2977 178.2244 393.0677 190.9144 393.0677 211.4244V442.3844C393.0677 462.4044 404.2977 475.0944 421.8777 475.0944ZM452.1477 323.2444V226.0744H504.8877C539.0577 226.0744 559.5677 245.1144 559.5677 275.3944C559.5677 305.6644 539.5477 323.2444 503.9077 323.2444ZM503.4177 865.7244C622.0677 865.7244 692.3877 810.0544 692.3877 716.3044V696.7744C634.2777 708.9844 571.2877 715.3344 503.4177 715.3344C435.5477 715.3344 372.5577 708.9844 314.9377 696.7744V716.3044C314.9377 810.0544 385.2577 865.7244 503.4177 865.7244Z"/>
</svg>