<?xml version="1.0" encoding="UTF-8" standalone="no"?>
<svg xmlns="http://www.w3.org/2000/svg"
     width="1180.6640625" height="898.92578125"
     viewBox="0 0 1180.6640625 898.92578125"
     fill="currentColor">
  <path d="M419.9177 898.9295H761.2277C1051.7577 898.9295 1180.6677 765.6295 1180.6677 491.6995V151.3695C1180.6677 50.7795 1129.3977 -0.0005 1027.3477 -0.0005H153.3177C51.2677 -0.0005 -0.0023 50.2895 -0.0023 151.3695V491.6995C-0.0023 765.6295 128.9077 898.9295 419.9177 898.9295ZM419.9177 819.3395C182.6177 819.3395 78.6177 715.3295 78.6177 496.5795V155.2695C78.6177 104.4895 105.4677 78.6095 154.2977 78.6095H1026.3677C1074.7077 78.6095 1102.0477 104.4895 1102.0477 155.2695V496.5795C1102.0477 715.3295 998.0477 819.3395 760.7377 819.3395ZM465.3277 673.8295C491.2077 673.8295 504.8877 657.7195 504.8877 630.3695V509.2795H595.7077L680.6677 648.4395C692.3877 666.9895 702.1477 673.8295 719.2377 673.8295C740.2377 673.8295 754.8877 660.1595 754.8877 640.6295C754.8877 629.8795 752.4377 622.0695 746.0977 612.3095L672.8477 498.0495C729.9777 478.9995 767.5777 427.7295 767.5777 366.6995C767.5777 279.2995 704.5877 223.1395 605.4677 223.1395H465.3277C440.4277 223.1395 427.2477 241.2095 427.2477 267.0895V630.3695C427.2477 656.7395 440.4277 673.8295 465.3277 673.8295ZM504.8877 452.1495V282.7195H596.1877C652.3477 282.7195 689.9377 313.9695 689.9377 368.6495C689.9377 422.3595 653.3177 452.1495 594.2377 452.1495Z"/>
</svg>