<?xml version="1.0" encoding="UTF-8" standalone="no"?>
<svg xmlns="http://www.w3.org/2000/svg"
     width="1180.6640625" height="898.92578125"
     viewBox="0 0 1180.6640625 898.92578125"
     fill="currentColor">
  <path d="M419.9177 898.9295H761.2277C1051.7577 898.9295 1180.6677 765.6295 1180.6677 491.6995V151.3695C1180.6677 50.7795 1129.3977 -0.0005 1027.3477 -0.0005H153.3177C51.2677 -0.0005 -0.0023 50.2895 -0.0023 151.3695V491.6995C-0.0023 765.6295 128.9077 898.9295 419.9177 898.9295ZM461.4277 681.1495C435.5477 681.1495 421.8777 663.0895 421.8777 635.7395V261.7195C421.8777 234.8595 435.5477 215.8195 460.9377 215.8195H605.9577C708.0077 215.8195 772.9477 273.9295 772.9477 364.2595C772.9477 427.2495 734.3777 479.9795 675.7777 499.5095L750.9777 617.1895C757.3277 627.4395 759.7677 635.2495 759.7677 646.4795C759.7677 666.9895 744.6277 681.1495 723.1477 681.1495C705.0777 681.1495 695.3077 673.8295 683.1077 654.7895L595.7077 511.2295H501.9577V635.7395C501.9577 664.0595 487.7977 681.1495 461.4277 681.1495ZM501.9577 452.1495H594.2377C654.7877 452.1495 692.8677 421.3895 692.8677 366.2095C692.8677 310.0595 653.8077 277.8295 596.1877 277.8295H501.9577Z"/>
</svg>