<?xml version="1.0" encoding="UTF-8" standalone="no"?>
<svg xmlns="http://www.w3.org/2000/svg"
     width="1033.203125" height="1022.4609375"
     viewBox="0 0 1033.203125 1022.4609375"
     fill="currentColor">
  <path d="M643.5583 0.0013H153.3183C51.2683 0.0013 -0.0017 50.7813 -0.0017 151.3713V645.0213C-0.0017 745.6012 51.2683 796.3913 153.3183 796.3913H643.5583C745.6083 796.3913 796.3883 746.0912 796.3883 645.0213V151.3713C796.3883 50.2912 745.6083 0.0013 643.5583 0.0013ZM269.0383 628.9013C243.6483 628.9013 229.4883 610.8412 229.4883 583.9813V209.9612C229.4883 182.6213 243.1683 163.5712 269.0383 163.5712H414.0583C516.1183 163.5712 580.5683 221.6813 580.5683 312.5013C580.5683 375.0013 542.4783 427.7313 483.8883 447.2613L559.0783 565.4313C564.9383 575.1913 567.8683 583.4913 567.8683 594.2413C567.8683 615.2313 552.7383 628.9013 531.2483 628.9013C513.1883 628.9013 503.4183 621.5813 491.2083 602.5413L403.8083 458.9813H310.0583V583.9813C310.0583 611.8213 295.8983 628.9013 269.0383 628.9013ZM310.0583 399.9013H401.8583C462.3983 399.9013 500.9783 369.1413 500.9783 314.4512C500.9783 257.8112 461.4283 225.5812 403.8083 225.5812H310.0583ZM1033.1983 376.9513C1033.1983 276.3713 982.4183 226.0712 880.3683 226.0712H863.2783V645.0213C863.2783 783.2013 782.2283 863.2813 643.5583 863.2813H236.8183V871.0913C236.8183 971.6813 288.0883 1022.4613 390.1383 1022.4613H880.3683C982.4183 1022.4613 1033.1983 972.1713 1033.1983 871.0913Z"/>
</svg>