<?xml version="1.0" encoding="UTF-8" standalone="no"?>
<svg xmlns="http://www.w3.org/2000/svg"
     width="1180.6640625" height="898.92578125"
     viewBox="0 0 1180.6640625 898.92578125"
     fill="currentColor">
  <path d="M419.9177 898.9295H761.2277C1051.7577 898.9295 1180.6677 765.6295 1180.6677 491.6995V151.3695C1180.6677 50.7795 1129.3977 -0.0005 1027.3477 -0.0005H153.3177C51.2677 -0.0005 -0.0023 50.2895 -0.0023 151.3695V491.6995C-0.0023 765.6295 128.9077 898.9295 419.9177 898.9295ZM419.9177 819.3395C182.6177 819.3395 78.6177 715.3295 78.6177 496.5795V155.2695C78.6177 104.4895 105.4677 78.6095 154.2977 78.6095H1026.3677C1074.7077 78.6095 1102.0477 104.4895 1102.0477 155.2695V496.5795C1102.0477 715.3295 998.0477 819.3395 760.7377 819.3395ZM854.4877 679.1995C879.8877 679.1995 894.0477 663.0895 894.0477 635.2495V262.6995C894.0477 234.3795 878.9077 218.2595 852.5377 218.2595C834.4777 218.2595 821.7777 223.1395 801.2677 237.7895L713.3777 297.3595C702.6377 304.6895 698.2377 312.4995 698.2377 324.7095C698.2377 339.8395 709.9577 353.5195 725.5877 353.5195C732.9077 353.5195 738.2777 352.5395 749.5077 345.2195L812.4977 303.2195H815.9177V635.2495C815.9177 663.0895 830.5677 679.1995 854.4877 679.1995ZM328.6177 673.8295C354.0077 673.8295 368.1677 657.7195 368.1677 630.3695V509.2795H458.9877L543.4577 648.4395C555.1777 666.9895 565.4277 673.8295 582.5177 673.8295C603.5177 673.8295 618.1677 660.1595 618.1677 640.6295C618.1677 629.8795 615.2377 622.0695 608.8877 612.3095L535.6477 498.0495C593.2577 478.9995 630.3677 427.7295 630.3677 366.6995C630.3677 279.2995 567.3877 223.1395 468.7477 223.1395H328.1277C303.2277 223.1395 290.0377 241.2095 290.0377 267.0895V630.3695C290.0377 656.7395 303.7077 673.8295 328.6177 673.8295ZM368.1677 452.1495V282.7195H458.9877C515.1377 282.7195 553.2277 313.9695 553.2277 368.6495C553.2277 422.3595 516.1177 452.1495 457.0277 452.1495Z"/>
</svg>