<?xml version="1.0" encoding="UTF-8" standalone="no"?>
<svg xmlns="http://www.w3.org/2000/svg"
     width="1180.6640625" height="898.92578125"
     viewBox="0 0 1180.6640625 898.92578125"
     fill="currentColor">
  <path d="M419.9177 -0.0005C128.9077 -0.0005 -0.0023 133.2995 -0.0023 406.7395V747.5595C-0.0023 848.6295 51.2677 898.9295 153.3177 898.9295H1027.3477C1129.3977 898.9295 1180.6677 848.1495 1180.6677 747.5595V406.7395C1180.6677 133.2995 1051.7577 -0.0005 761.2277 -0.0005ZM695.7977 676.2695C673.8277 676.2695 660.1577 663.0895 660.1577 643.0695C660.1577 632.3195 664.5477 623.0495 673.8277 613.2795L834.4777 443.8495C863.7677 412.5995 894.5277 381.8395 894.5277 345.2195C894.5277 303.2195 863.2777 275.8795 815.4277 275.8795C766.5977 275.8795 740.7277 308.1095 727.0477 338.3795C717.7777 352.5395 708.4977 363.7695 690.9177 363.7695C671.3877 363.7695 658.2077 351.0695 658.2077 331.5395C658.2077 324.7095 658.6877 318.8495 660.6477 311.0395C677.2477 254.8795 740.2377 211.4295 812.0077 211.4295C905.2777 211.4295 966.7977 262.2095 966.7977 338.8695C966.7977 395.0195 936.0377 435.5495 891.1177 482.4195L771.4877 606.4495V610.3495H949.7077C969.7277 610.3495 983.8877 622.0695 983.8877 643.0695C983.8877 663.0895 969.7277 676.2695 949.7077 676.2695ZM282.7177 682.1295C256.8377 682.1295 243.1677 664.0595 243.1677 636.7195V262.6995C243.1677 235.8395 256.8377 217.2895 282.7177 217.2895H427.2477C529.7877 217.2895 594.7277 274.8995 594.7277 365.2295C594.7277 428.2195 556.1477 480.9595 497.0677 500.9795L572.7577 618.1595C579.0977 628.4195 581.5477 636.2295 581.5477 647.4595C581.5477 667.9695 566.4077 682.1295 544.9177 682.1295C526.8577 682.1295 517.0877 674.8095 504.8877 655.7595L417.4777 512.6995H323.7277V636.7195C323.7277 665.5295 309.5677 682.1295 282.7177 682.1295ZM323.7277 453.1295H415.5277C476.5577 453.1295 514.1577 422.8495 514.1577 367.1895C514.1577 311.0395 475.5877 278.8095 417.9677 278.8095H323.7277Z"/>
</svg>