<?xml version="1.0" encoding="UTF-8" standalone="no"?>
<svg xmlns="http://www.w3.org/2000/svg"
     width="1180.6640625" height="898.92578125"
     viewBox="0 0 1180.6640625 898.92578125"
     fill="currentColor">
  <path d="M419.9177 -0.0005C128.9077 -0.0005 -0.0023 133.2995 -0.0023 406.7395V747.5595C-0.0023 848.6295 51.2677 898.9295 153.3177 898.9295H1027.3477C1129.3977 898.9295 1180.6677 848.1495 1180.6677 747.5595V406.7395C1180.6677 133.2995 1051.7577 -0.0005 761.2277 -0.0005ZM419.9177 79.5895H760.7377C998.0477 79.5895 1102.0477 183.1095 1102.0477 402.3395V743.6495C1102.0477 794.4295 1074.7077 820.3095 1026.3677 820.3095H154.2977C105.4677 820.3095 78.6177 794.4295 78.6177 743.6495V402.3395C78.6177 183.1095 182.6177 79.5895 419.9177 79.5895ZM685.5477 669.4295H931.6377C950.6877 669.4295 964.3577 656.7395 964.3577 637.2095C964.3577 617.1895 950.6877 605.4695 931.6377 605.4695H758.2977V602.0495L874.5077 481.4495C917.9677 435.5495 947.7577 396.4795 947.7577 342.2895C947.7577 268.0695 888.1877 218.7495 797.8477 218.7495C728.5177 218.7495 667.4777 260.7395 651.3677 315.4295C649.4177 322.7495 648.9277 328.6095 648.9277 334.9595C648.9277 353.9995 661.6177 366.2095 680.6677 366.2095C697.7577 366.2095 706.5477 355.4695 715.3277 341.7995C728.5177 312.0095 753.9077 280.7595 801.2677 280.7595C847.6577 280.7595 878.4177 307.6195 878.4177 348.1395C878.4177 383.7895 848.6377 413.5695 819.8277 443.8495L664.0577 608.3995C655.2777 617.6795 650.8777 626.9495 650.8777 637.2095C650.8777 656.7395 664.0577 669.4295 685.5477 669.4295ZM285.1577 674.8095C311.0377 674.8095 324.7077 658.6895 324.7077 631.3495V510.2495H415.5277L500.4877 649.4095C512.2077 667.9695 521.9777 674.8095 539.0577 674.8095C560.0577 674.8095 574.7077 661.1295 574.7077 641.5995C574.7077 630.8595 572.2677 623.0495 565.9177 613.2795L492.6777 499.0195C549.8077 479.9795 587.3977 428.7095 587.3977 367.6795C587.3977 280.2695 524.4177 224.1195 425.2977 224.1195H285.1577C260.2577 224.1195 247.0677 242.1895 247.0677 268.0695V631.3495C247.0677 657.7195 260.2577 674.8095 285.1577 674.8095ZM324.7077 453.1295V283.6895H416.0177C472.1677 283.6895 509.7677 314.9395 509.7677 369.6295C509.7677 423.3395 473.1477 453.1295 414.0577 453.1295Z"/>
</svg>