<?xml version="1.0" encoding="UTF-8" standalone="no"?>
<svg xmlns="http://www.w3.org/2000/svg"
     width="1151.3671875" height="1115.7243776130176"
     viewBox="0 0 1151.3671875 1115.7243776130176"
     fill="currentColor">
  <path d="M153.3183 1115.7264H998.0483C1100.5883 1115.7264 1151.3683 1065.4364 1151.3683 964.8464V368.1664C1151.3683 267.5764 1100.5883 216.7964 998.0483 216.7964H944.3383L282.7183 1.9564C262.2083 -4.8836 239.7483 6.8364 233.3983 27.3464C226.5583 47.8564 238.2783 70.3164 258.7883 77.1464L689.4483 216.7964H153.3183C51.2683 216.7964 -0.0017 267.5764 -0.0017 368.1664V964.8464C-0.0017 1065.4364 51.2683 1115.7264 153.3183 1115.7264ZM154.2983 1037.1064C105.4683 1037.1064 78.6183 1011.2364 78.6183 960.4464V372.5564C78.6183 321.7764 105.4683 295.4164 154.2983 295.4164H931.6383L932.6183 295.8964V295.4164H997.0683C1045.4083 295.4164 1072.7583 321.7764 1072.7583 372.5564V960.4464C1072.7583 1011.2364 1045.4083 1037.1064 997.0683 1037.1064ZM460.9383 460.9364C480.4683 460.9364 496.0983 444.3364 496.0983 423.8264C496.0983 404.2964 480.4683 388.1864 460.9383 388.1864C441.4083 388.1864 425.2883 404.2964 425.2883 423.8264C425.2883 444.3364 441.4083 460.9364 460.9383 460.9364ZM896.9683 556.1564C938.9683 555.1764 973.1483 521.9764 973.1483 480.4664C973.1483 438.4764 938.9683 404.2964 896.9683 403.8064C854.9783 403.3264 820.3083 438.4764 820.3083 480.4664C820.3083 521.9764 854.9783 556.6464 896.9683 556.1564ZM581.5383 495.1164C602.0483 495.1164 617.1883 478.5164 617.1883 458.9864C617.1883 438.4764 602.0483 422.8564 581.5383 422.8564C562.0083 422.8564 546.8783 438.4764 546.8783 458.9864C546.8783 478.5164 562.0083 495.1164 581.5383 495.1164ZM339.8483 495.1164C359.3783 495.1164 374.5083 478.5164 374.5083 458.9864C374.5083 438.4764 359.3783 422.8564 339.8483 422.8564C319.3383 422.8564 304.1983 438.4764 304.1983 458.9864C304.1983 478.5164 319.3383 495.1164 339.8483 495.1164ZM672.8483 582.0364C692.3783 582.0364 708.9883 566.4064 708.9883 546.8764C708.9883 526.3664 692.3783 509.7664 672.8483 509.7664C653.3183 509.7664 637.6983 526.3664 637.6983 546.8764C637.6983 566.4064 653.3183 582.0364 672.8483 582.0364ZM249.0283 582.0364C268.5583 582.0364 283.6883 566.4064 283.6883 546.8764C283.6883 526.3664 268.5583 509.7664 249.0283 509.7664C229.0083 509.7664 212.3983 526.3664 212.3983 546.8764C212.3983 566.4064 229.0083 582.0364 249.0283 582.0364ZM460.9383 584.9664C480.4683 584.9664 496.0983 568.8464 496.0983 549.3164C496.0983 529.2964 480.4683 512.6964 460.9383 512.6964C441.4083 512.6964 425.2883 529.2964 425.2883 549.3164C425.2883 568.8464 441.4083 584.9664 460.9383 584.9664ZM574.2183 633.7864C594.2383 633.7864 609.3783 617.1864 609.3783 598.1464C609.3783 578.6164 594.2383 562.5064 574.2183 562.5064C554.6883 562.5064 538.0883 578.6164 538.0883 598.1464C538.0883 617.1864 554.6883 633.7864 574.2183 633.7864ZM347.1683 633.7864C366.6983 633.7864 383.2983 617.1864 383.2983 598.1464C383.2983 578.6164 366.6983 562.5064 347.1683 562.5064C327.6383 562.5064 312.0083 578.6164 312.0083 598.1464C312.0083 617.1864 327.6383 633.7864 347.1683 633.7864ZM896.9683 778.3264C938.9683 778.3264 973.1483 743.6564 973.1483 701.6664C973.1483 659.6664 938.9683 625.4864 896.9683 625.4864C854.9783 625.4864 820.3083 659.6664 820.3083 701.6664C820.3083 743.6564 854.9783 778.3264 896.9683 778.3264ZM703.6183 699.2164C723.1483 699.2164 738.7683 683.1064 738.7683 663.5764C738.7683 643.5564 723.1483 627.9264 703.6183 627.9264C683.5983 627.9264 667.9683 643.5564 667.9683 663.5764C667.9683 683.1064 683.5983 699.2164 703.6183 699.2164ZM218.2583 699.2164C237.7883 699.2164 253.4183 683.1064 253.4183 663.5764C253.4183 643.5564 237.7883 627.9264 218.2583 627.9264C198.7283 627.9264 182.6183 643.5564 182.6183 663.5764C182.6183 683.1064 198.7283 699.2164 218.2583 699.2164ZM460.9383 701.6664C480.4683 701.6664 496.0983 685.5464 496.0983 666.0164C496.0983 646.4864 480.4683 630.3764 460.9383 630.3764C441.4083 630.3764 425.2883 646.4864 425.2883 666.0164C425.2883 685.5464 441.4083 701.6664 460.9383 701.6664ZM574.2183 769.5364C594.2383 769.5364 609.3783 753.9064 609.3783 734.3764C609.3783 713.8664 594.2383 697.7564 574.2183 697.7564C554.6883 697.7564 538.0883 713.8664 538.0883 734.3764C538.0883 753.9064 554.6883 769.5364 574.2183 769.5364ZM347.1683 769.5364C366.6983 769.5364 383.2983 753.9064 383.2983 734.3764C383.2983 713.8664 366.6983 697.7564 347.1683 697.7564C327.6383 697.7564 312.0083 713.8664 312.0083 734.3764C312.0083 753.9064 327.6383 769.5364 347.1683 769.5364ZM672.8483 816.8964C692.3783 816.8964 708.9883 800.2964 708.9883 780.2764C708.9883 760.2564 692.3783 744.6264 672.8483 744.6264C653.3183 744.6264 637.6983 760.2564 637.6983 780.2764C637.6983 800.2964 653.3183 816.8964 672.8483 816.8964ZM249.0283 816.8964C268.5583 816.8964 283.6883 800.2964 283.6883 780.2764C283.6883 760.2564 268.5583 744.6264 249.0283 744.6264C229.0083 744.6264 212.3983 760.2564 212.3983 780.2764C212.3983 800.2964 229.0083 816.8964 249.0283 816.8964ZM460.9383 819.3364C480.4683 819.3364 496.0983 802.7364 496.0983 782.7164C496.0983 763.1864 480.4683 747.0764 460.9383 747.0764C441.4083 747.0764 425.2883 763.1864 425.2883 782.7164C425.2883 802.7364 441.4083 819.3364 460.9383 819.3364ZM581.5383 906.7364C602.0483 906.7364 617.1883 890.6264 617.1883 870.6064C617.1883 851.0764 602.0483 834.4764 581.5383 834.4764C562.0083 834.4764 546.8783 851.0764 546.8783 870.6064C546.8783 890.6264 562.0083 906.7364 581.5383 906.7364ZM339.8483 906.7364C359.3783 906.7364 374.5083 890.6264 374.5083 870.6064C374.5083 851.0764 359.3783 834.4764 339.8483 834.4764C319.3383 834.4764 304.1983 851.0764 304.1983 870.6064C304.1983 890.6264 319.3383 906.7364 339.8483 906.7364ZM460.9383 943.8464C480.4683 943.8464 496.0983 927.7364 496.0983 908.2064C496.0983 887.6964 480.4683 871.0964 460.9383 871.0964C441.4083 871.0964 425.2883 887.6964 425.2883 908.2064C425.2883 927.7364 441.4083 943.8464 460.9383 943.8464Z"/>
</svg>