<?xml version="1.0" encoding="UTF-8" standalone="no"?>
<svg xmlns="http://www.w3.org/2000/svg"
     width="1180.6640625" height="898.92578125"
     viewBox="0 0 1180.6640625 898.92578125"
     fill="currentColor">
  <path d="M419.9177 898.9295H761.2277C1051.7577 898.9295 1180.6677 765.6295 1180.6677 491.6995V151.3695C1180.6677 50.7795 1129.3977 -0.0005 1027.3477 -0.0005H153.3177C51.2677 -0.0005 -0.0023 50.2895 -0.0023 151.3695V491.6995C-0.0023 765.6295 128.9077 898.9295 419.9177 898.9295ZM691.8977 675.7795C663.5777 675.7795 646.9777 659.1795 646.9777 630.8595V260.7395C646.9777 231.9295 663.5777 215.3295 691.8977 215.3295H840.3277C926.7577 215.3295 982.9077 260.2495 982.9077 329.0995C982.9077 379.3895 952.1477 418.4595 902.3477 430.6595V433.5895C969.2377 442.3795 1010.2577 484.8595 1010.2577 546.3895C1010.2577 625.4895 943.3577 675.7795 839.3577 675.7795ZM255.8577 681.1495C230.4677 681.1495 216.7977 663.0895 216.7977 635.7395V261.7195C216.7977 234.8595 229.9777 215.8195 255.8577 215.8195H400.8777C502.9277 215.8195 568.3577 273.9295 568.3577 364.2595C568.3577 427.2495 529.2977 479.9795 470.7077 499.5095L545.8977 617.1895C552.2477 627.4395 555.1777 635.2495 555.1777 646.4795C555.1777 666.9895 539.5477 681.1495 518.0677 681.1495C500.4877 681.1495 490.2377 673.8295 478.0277 654.7895L390.6277 511.2295H296.8777V635.7395C296.8777 664.0595 282.7177 681.1495 255.8577 681.1495ZM725.5877 410.6395H801.2677C868.6477 410.6395 905.2777 386.2295 905.2777 341.3095C905.2777 300.2895 874.5077 275.3895 823.7277 275.3895H725.5877ZM296.8777 452.1495H388.6677C449.7077 452.1495 487.7977 421.3895 487.7977 366.2095C487.7977 310.0595 448.7277 277.8295 390.6277 277.8295H296.8777ZM725.5877 616.2095H807.1277C890.6277 616.2095 929.6877 593.2595 929.6877 543.4595C929.6877 494.6295 893.5577 466.3095 832.5177 466.3095H725.5877Z"/>
</svg>