<?xml version="1.0" encoding="UTF-8" standalone="no"?>
<svg xmlns="http://www.w3.org/2000/svg"
     width="1451.66015625" height="636.71875"
     viewBox="0 0 1451.66015625 636.71875"
     fill="currentColor">
  <path d="M-0.0023 318.3584C-0.0023 494.1384 142.5777 636.7184 318.3577 636.7184H1133.2977C1309.5677 636.7184 1451.6577 494.1384 1451.6577 318.3584C1451.6577 142.0884 1309.5677 -0.0016 1133.2977 -0.0016C957.5177 -0.0016 814.9377 142.5784 814.9377 318.3584C814.9377 412.5984 856.9377 497.0684 924.8077 553.2184H526.8577C594.7277 497.0684 636.7177 412.5984 636.7177 318.3584C636.7177 142.0884 494.1377 -0.0016 318.3577 -0.0016C142.0877 -0.0016 -0.0023 142.5784 -0.0023 318.3584ZM83.4977 317.8684C83.4977 188.4784 188.9677 83.0084 318.8477 83.0084C448.2377 83.0084 553.2277 188.4784 553.2277 317.8684C553.2277 447.7584 448.2377 553.2184 318.8477 553.2184C188.9677 553.2184 83.4977 447.7584 83.4977 317.8684ZM898.4377 317.8684C898.4377 188.4784 1003.4177 83.0084 1132.8077 83.0084C1262.6977 83.0084 1368.1677 188.4784 1368.1677 317.8684C1368.1677 447.7584 1262.6977 553.2184 1132.8077 553.2184C1003.4177 553.2184 898.4377 447.7584 898.4377 317.8684Z"/>
</svg>