<?xml version="1.0" encoding="UTF-8" standalone="no"?>
<svg xmlns="http://www.w3.org/2000/svg"
     width="996.09375" height="996.09375"
     viewBox="0 0 996.09375 996.09375"
     fill="currentColor">
  <path d="M498.0477 996.0959C770.5077 996.0959 996.0977 770.0159 996.0977 498.0459C996.0977 225.5859 770.0177 -0.0041 497.5577 -0.0041C225.5877 -0.0041 -0.0023 225.5859 -0.0023 498.0459C-0.0023 770.0159 226.0777 996.0959 498.0477 996.0959ZM498.0477 913.0859C267.5777 913.0859 83.4977 728.5159 83.4977 498.0459C83.4977 267.5759 267.0877 83.0059 497.5577 83.0059C728.0277 83.0059 913.0877 267.5759 913.0877 498.0459C913.0877 728.5159 728.5177 913.0859 498.0477 913.0859ZM185.5477 498.0459C185.5477 576.6559 249.0277 640.6259 327.6377 640.6259H667.9677C746.5777 640.6259 810.0577 576.6559 810.0577 498.0459C810.0577 419.4359 746.5777 355.4659 667.9677 355.4659C589.3577 355.4659 525.3877 419.4359 525.3877 498.0459C525.3877 530.7659 536.6177 562.0159 557.6177 586.4259H437.9877C458.9877 562.0159 470.2177 530.7659 470.2177 498.0459C470.2177 419.4359 406.7377 355.4659 327.6377 355.4659C249.0277 355.4659 185.5477 419.4359 185.5477 498.0459ZM239.7477 497.5559C239.7477 449.2159 279.7877 409.6659 328.1277 409.6659C376.4677 409.6659 416.0177 449.2159 416.0177 497.5559C416.0177 546.8759 376.9577 586.4259 328.1277 586.4259C279.2977 586.4259 239.7477 546.3859 239.7477 497.5559ZM579.5877 497.5559C579.5877 449.2159 619.1377 409.6659 667.4777 409.6659C715.8177 409.6659 755.8577 449.2159 755.8577 497.5559C755.8577 546.3859 716.3077 586.4259 667.4777 586.4259C618.6477 586.4259 579.5877 546.8759 579.5877 497.5559Z"/>
</svg>