<?xml version="1.0" encoding="UTF-8" standalone="no"?>
<svg xmlns="http://www.w3.org/2000/svg"
     width="1055.17578125" height="1208.984375"
     viewBox="0 0 1055.17578125 1208.984375"
     fill="currentColor">
  <path d="M527.8283 388.1841C537.5983 388.1841 545.8983 384.2741 556.1483 375.0041L718.2583 223.6341C726.5583 216.3041 731.4483 207.5241 731.4483 196.2841C731.4483 176.2741 715.8183 161.6241 695.3083 161.6241C685.5483 161.6241 676.2683 166.0141 668.9483 173.3441L605.4683 236.8141L563.4783 280.7641L566.4083 198.7341V37.5941C566.4083 17.0941 548.8283 0.0041 527.8283 0.0041C506.8383 0.0041 488.7683 17.0941 488.7683 37.5941V198.7341L492.1883 280.7641L450.1983 236.8141L386.2283 173.3441C378.9083 166.0141 369.1383 161.6241 359.3783 161.6241C338.8683 161.6241 323.7283 176.2741 323.7283 196.2841C323.7283 207.5241 328.6183 216.3041 336.9183 223.6341L499.0283 375.0041C509.7683 384.2741 517.5783 388.1841 527.8283 388.1841ZM138.1883 759.7641H916.9883C998.5383 759.7641 1055.1783 704.5941 1055.1783 629.3941V579.5941C1055.1783 504.3941 998.5383 449.2141 916.9883 449.2141H138.1883C56.6383 449.2141 -0.0017 504.3941 -0.0017 579.5941V629.3941C-0.0017 704.5941 56.6383 759.7641 138.1883 759.7641ZM148.4383 686.0341C104.4883 686.0341 77.6383 656.7341 77.6383 617.1841V591.7941C77.6383 552.2441 104.4883 522.9541 148.4383 522.9541H906.7383C950.6883 522.9541 977.5383 552.2441 977.5383 591.7941V617.1841C977.5383 656.7341 950.6883 686.0341 906.7383 686.0341ZM527.8283 1208.9841C548.8283 1208.9841 566.4083 1191.8941 566.4083 1171.3841V1010.2541L563.4783 928.2241L605.4683 972.1641L668.9483 1035.6441C676.2683 1042.9641 685.5483 1047.3641 695.3083 1047.3641C715.8183 1047.3641 731.4483 1033.2041 731.4483 1012.6941C731.4483 1001.4641 726.5583 993.1641 718.2583 985.3541L556.1483 833.9841C545.8983 824.7041 537.5983 821.2841 527.8283 821.2841C517.5783 821.2841 509.7683 824.7041 499.0283 833.9841L336.9183 985.3541C328.6183 993.1641 323.7283 1001.4641 323.7283 1012.6941C323.7283 1033.2041 338.8683 1047.3641 359.3783 1047.3641C369.1383 1047.3641 378.9083 1042.9641 386.2283 1035.6441L450.1983 972.1641L492.1883 928.2241L488.7683 1010.2541V1171.3841C488.7683 1191.8941 506.8383 1208.9841 527.8283 1208.9841Z"/>
</svg>