<?xml version="1.0" encoding="UTF-8" standalone="no"?>
<svg xmlns="http://www.w3.org/2000/svg"
     width="1151.3671875" height="898.92578125"
     viewBox="0 0 1151.3671875 898.92578125"
     fill="currentColor">
  <path d="M153.3183 898.9284H998.0483C1100.5883 898.9284 1151.3683 848.1484 1151.3683 747.5584V151.3684C1151.3683 50.7784 1100.5883 -0.0016 998.0483 -0.0016H153.3183C51.2683 -0.0016 -0.0017 50.2884 -0.0017 151.3684V747.5584C-0.0017 848.6284 51.2683 898.9284 153.3183 898.9284ZM154.2983 820.3084C105.4683 820.3084 78.6183 793.9484 78.6183 743.6484V155.2684C78.6183 104.4884 105.4683 78.6084 154.2983 78.6084H997.0683C1045.4083 78.6084 1072.7583 104.4884 1072.7583 155.2684V743.6484C1072.7583 793.9484 1045.4083 820.3084 997.0683 820.3084ZM187.9883 443.3584H532.7183C563.4783 443.3584 575.6883 430.6684 575.6883 399.4184V183.5984C575.6883 152.3484 563.4783 139.6484 532.7183 139.6484H187.9883C157.7183 139.6484 145.5083 152.3484 145.5083 183.5984V399.4184C145.5083 430.6684 157.7183 443.3584 187.9883 443.3584Z"/>
</svg>