<?xml version="1.0" encoding="UTF-8" standalone="no"?>
<svg xmlns="http://www.w3.org/2000/svg"
     width="1032.765321371105" height="1223.9784735423234"
     viewBox="0 0 1032.765321371105 1223.9784735423234"
     fill="currentColor">
  <path d="M420.9488 183.9357H764.6988L755.4188 128.7657C737.8388 27.6857 678.7588 -13.3243 579.6388 3.7657L126.5188 83.3557C27.3988 100.9357 -13.6212 160.0157 3.9588 261.0857L118.6988 912.4557C129.9288 976.4157 158.2488 1015.4857 203.1788 1031.5957V403.6657C203.1788 264.5057 282.7688 183.9357 420.9488 183.9357ZM1032.7688 403.6657C1032.7688 301.6157 982.4688 250.3457 881.3988 250.3457H420.9488C320.3588 250.3457 269.5788 301.6157 269.5788 403.6657V1070.6557C269.5788 1172.7057 320.3588 1223.9757 420.9488 1223.9757H881.3988C981.9888 1223.9757 1032.7688 1172.7057 1032.7688 1070.6557Z"/>
</svg>