<?xml version="1.0" encoding="UTF-8" standalone="no"?>
<svg xmlns="http://www.w3.org/2000/svg"
     width="1133.30078125" height="1046.875"
     viewBox="0 0 1133.30078125 1046.875"
     fill="currentColor">
  <path d="M151.3683 1046.8766H669.9183C770.9983 1046.8766 821.2883 996.0966 821.2883 894.0466V667.4766H742.6783V892.5766C742.6783 941.4066 716.7983 968.2666 666.0183 968.2666H155.2783C104.4883 968.2666 78.6183 941.4066 78.6183 892.5766V154.7866C78.6183 105.9566 104.4883 78.6166 155.2783 78.6166H666.0183C716.7983 78.6166 742.6783 105.9566 742.6783 154.7866V379.3966H821.2883V153.3166C821.2883 51.7566 770.9983 -0.0034 669.9183 -0.0034H151.3683C50.2883 -0.0034 -0.0017 51.7566 -0.0017 153.3166V894.0466C-0.0017 996.0966 50.2883 1046.8766 151.3683 1046.8766ZM451.6583 562.0166H953.1283L1026.3683 559.0866L991.6983 592.2866L913.0883 666.0166C905.2783 672.8466 901.3683 683.1066 901.3683 692.3866C901.3683 712.8866 915.5283 728.0266 935.5483 728.0266C945.7983 728.0266 953.6183 724.1166 961.4283 716.7966L1120.6083 551.7566C1130.3683 541.9966 1133.2983 533.2066 1133.2983 523.4366C1133.2983 513.1866 1130.3683 504.8866 1120.6083 495.1166L961.4283 330.0766C953.6183 322.7566 945.7983 318.3566 935.5483 318.3566C915.5283 318.3566 901.3683 333.0066 901.3683 353.5166C901.3683 363.2766 905.2783 373.5366 913.0883 380.3666L991.6983 454.5866L1026.3683 487.7966L953.1283 484.3766H451.6583C431.1483 484.3766 414.0583 502.4366 414.0583 523.4366C414.0583 544.4366 431.1483 562.0166 451.6583 562.0166Z"/>
</svg>