<?xml version="1.0" encoding="UTF-8" standalone="no"?>
<svg xmlns="http://www.w3.org/2000/svg"
     width="1151.3671875" height="898.92578125"
     viewBox="0 0 1151.3671875 898.92578125"
     fill="currentColor">
  <path d="M153.3183 898.9278H998.0483C1100.5883 898.9278 1151.3683 848.6378 1151.3683 748.0478V151.3678C1151.3683 50.7778 1100.5883 -0.0022 998.0483 -0.0022H153.3183C51.2683 -0.0022 -0.0017 50.7778 -0.0017 151.3678V748.0478C-0.0017 848.6378 51.2683 898.9278 153.3183 898.9278ZM154.2983 820.3078C105.4683 820.3078 78.6183 794.4378 78.6183 743.6478V155.7578C78.6183 104.9778 105.4683 78.6178 154.2983 78.6178H997.0683C1045.4083 78.6178 1072.7583 104.9778 1072.7583 155.7578V743.6478C1072.7583 794.4378 1045.4083 820.3078 997.0683 820.3078ZM617.6783 753.9078H963.3783C994.1383 753.9078 1006.3483 741.2078 1006.3483 709.9578V189.4578C1006.3483 158.2078 994.1383 145.5078 963.3783 145.5078H617.6783C586.9183 145.5078 574.7083 158.2078 574.7083 189.4578V709.9578C574.7083 741.2078 586.9183 753.9078 617.6783 753.9078ZM166.5083 449.2178C166.9883 466.7978 181.1483 482.4178 198.2383 482.4178H334.9583L407.2283 479.4878L366.6983 518.0678L313.9683 570.3078C307.6183 576.1678 304.6883 584.9578 304.6883 593.2578C304.6883 610.8378 316.8983 623.5378 333.4983 623.5378C343.2583 623.5378 350.5883 619.6278 356.9383 611.8178L486.8183 473.1478C495.1183 464.3578 497.5583 458.0078 497.5583 449.2178C497.5583 440.9178 495.1183 434.0778 486.8183 425.2978L356.9383 286.6178C350.5883 279.2978 343.2583 275.3878 333.4983 275.3878C316.8983 275.3878 304.6883 288.0878 304.6883 305.6678C304.6883 313.9678 307.6183 322.7578 313.9683 328.6178L366.6983 380.3678L407.2283 418.9478L334.9583 416.5078H198.2383C181.1483 416.5078 166.0183 431.6378 166.5083 449.2178Z"/>
</svg>