<?xml version="1.0" encoding="UTF-8" standalone="no"?>
<svg xmlns="http://www.w3.org/2000/svg"
     width="1244.6450477789256" height="1024.464540121105"
     viewBox="0 0 1244.6450477789256 1024.464540121105"
     fill="currentColor">
  <path d="M204.6044 412.6447C204.6044 274.9547 285.6644 194.8747 424.8244 194.8747H969.2544L957.0444 126.5147C939.4644 27.3947 880.8744 -13.6253 780.2944 3.9547L128.4344 118.7047C27.8444 136.7647 -13.6556 195.3647 3.9244 294.4847L84.0044 748.0947C98.1644 827.1947 138.2044 868.7047 204.6044 873.5847ZM424.8244 1024.4647H1091.8144C1193.3744 1024.4647 1244.6444 973.6847 1244.6444 873.0947V412.6447C1244.6444 312.0647 1193.3744 261.2847 1091.8144 261.2847H424.8244C322.2844 261.2847 271.5044 312.0647 271.5044 412.6447V873.0947C271.5044 974.1747 322.2844 1024.4647 424.8244 1024.4647Z"/>
</svg>