<?xml version="1.0" encoding="UTF-8" standalone="no"?>
<svg xmlns="http://www.w3.org/2000/svg"
     width="1180.6640625" height="898.92578125"
     viewBox="0 0 1180.6640625 898.92578125"
     fill="currentColor">
  <path d="M419.9183 -0.0005C128.9083 -0.0005 -0.0017 133.2995 -0.0017 406.7395V747.5595C-0.0017 848.6295 51.2683 898.9295 153.3183 898.9295H1027.3483C1129.3983 898.9295 1180.6683 848.1495 1180.6683 747.5595V406.7395C1180.6683 133.2995 1051.7583 -0.0005 761.2283 -0.0005ZM419.9183 79.5895H760.7383C998.0483 79.5895 1102.0483 183.1095 1102.0483 402.3395V743.6495C1102.0483 794.4295 1074.7083 820.3095 1026.3683 820.3095H154.2983C105.4683 820.3095 78.6183 794.4295 78.6183 743.6495V402.3395C78.6183 183.1095 182.6183 79.5895 419.9183 79.5895Z"/>
</svg>