<?xml version="1.0" encoding="UTF-8" standalone="no"?>
<svg xmlns="http://www.w3.org/2000/svg"
     width="898.92578125" height="898.92578125"
     viewBox="0 0 898.92578125 898.92578125"
     fill="currentColor">
  <path d="M153.3183 898.9284H745.6083C848.1483 898.9284 898.9283 848.6284 898.9283 748.0484V151.3684C898.9283 50.7784 848.1483 -0.0016 745.6083 -0.0016H153.3183C51.2683 -0.0016 -0.0017 50.7784 -0.0017 151.3684V748.0484C-0.0017 848.6284 51.2683 898.9284 153.3183 898.9284ZM154.2983 820.3084C105.4683 820.3084 78.6183 794.4384 78.6183 743.6484V155.7584C78.6183 104.9784 105.4683 78.6084 154.2983 78.6084H744.6283C792.9683 78.6084 820.3083 104.9784 820.3083 155.7584V743.6484C820.3083 794.4384 792.9683 820.3084 744.6283 820.3084ZM243.6483 378.4184C243.6483 317.8684 275.3883 285.6484 336.9183 285.6484L625.9783 286.1284V280.7584C625.9783 236.3284 604.0083 213.8684 559.0783 213.8684H232.4183C187.9883 213.8684 165.5283 235.8384 165.5283 280.7584V507.3284C165.5283 551.2684 187.9883 573.2384 232.4183 573.2384H243.6483ZM339.8483 676.2684H666.0183C710.9383 676.2684 733.3983 654.7884 733.3983 609.8584V381.3484C733.3983 337.8884 710.9383 315.4284 666.0183 315.4284H339.8483C294.9183 315.4284 272.4583 337.8884 272.4583 381.3484V609.8584C272.4583 654.7884 294.9183 676.2684 339.8483 676.2684Z"/>
</svg>