<?xml version="1.0" encoding="UTF-8" standalone="no"?>
<svg xmlns="http://www.w3.org/2000/svg"
     width="1143.06640625" height="1046.875"
     viewBox="0 0 1143.06640625 1046.875"
     fill="currentColor">
  <path d="M151.3683 1046.8783H669.9183C770.9983 1046.8783 821.2883 995.6083 821.2883 893.5583V571.2883H460.4483C434.5683 571.2883 412.5983 549.3183 412.5983 522.9483C412.5983 496.5783 434.5683 474.1183 460.4483 474.1183H821.2883V152.8283C821.2883 51.2683 770.9983 -0.0017 669.9183 -0.0017H151.3683C50.2883 -0.0017 -0.0017 51.2683 -0.0017 152.8283V893.5583C-0.0017 995.6083 50.2883 1046.8783 151.3683 1046.8783ZM783.1983 522.9483C783.1983 543.9483 800.2883 561.5283 820.7983 561.5283H962.8883L1036.1283 558.5983L1001.4683 591.7983L922.8483 665.5283C915.0383 672.3583 911.1283 682.6183 911.1283 691.8983C911.1283 712.3983 925.2883 727.5383 945.3083 727.5383C955.5683 727.5383 963.3783 723.6283 971.1883 716.3083L1130.3683 551.2683C1140.1383 541.5083 1143.0683 532.7183 1143.0683 522.9483C1143.0683 512.6983 1140.1383 504.3983 1130.3683 494.6283L971.1883 329.5883C963.3783 322.2683 955.5683 317.8683 945.3083 317.8683C925.2883 317.8683 911.1283 332.5183 911.1283 353.0283C911.1283 362.7883 915.0383 373.0483 922.8483 379.8783L1001.4683 454.0983L1036.1283 487.3083L962.8883 483.8883H820.7983C800.2883 483.8883 783.1983 501.9483 783.1983 522.9483Z"/>
</svg>