<?xml version="1.0" encoding="UTF-8" standalone="no"?>
<svg xmlns="http://www.w3.org/2000/svg"
     width="1353.515625" height="886.71875"
     viewBox="0 0 1353.515625 886.71875"
     fill="currentColor">
  <path d="M97.6583 423.8302H564.9383C629.8783 423.8302 662.5983 391.1102 662.5983 323.7302V99.6102C662.5983 32.2302 629.8783 0.0002 564.9383 0.0002H97.6583C32.7183 0.0002 -0.0017 32.2302 -0.0017 99.6102V323.7302C-0.0017 391.1102 32.7183 423.8302 97.6583 423.8302ZM916.5083 822.7502H1255.3683C1320.7983 822.7502 1353.5183 790.0402 1353.5183 722.6602V169.4302C1353.5183 102.0502 1320.7983 69.3402 1255.3683 69.3402H916.5083C851.0783 69.3402 818.3583 102.0502 818.3583 169.4302V722.6602C818.3583 790.0402 851.0783 822.7502 916.5083 822.7502ZM215.8183 886.7202H624.5083C689.9383 886.7202 722.6583 854.0002 722.6583 787.1102V625.4902C722.6583 558.1102 689.9383 525.3902 624.5083 525.3902H215.8183C150.3883 525.3902 117.6783 558.1102 117.6783 625.4902V787.1102C117.6783 854.0002 150.3883 886.7202 215.8183 886.7202Z"/>
</svg>