<?xml version="1.0" encoding="UTF-8" standalone="no"?>
<svg xmlns="http://www.w3.org/2000/svg"
     width="1055.17578125" height="898.92578125"
     viewBox="0 0 1055.17578125 898.92578125"
     fill="currentColor">
  <path d="M112.3083 409.1795H942.8683C1017.5783 409.1795 1055.1783 372.5595 1055.1783 297.3595V110.8395C1055.1783 36.1295 1017.5783 -0.0005 942.8683 -0.0005H112.3083C37.5983 -0.0005 -0.0017 36.1295 -0.0017 110.8395V297.3595C-0.0017 372.5595 37.5983 409.1795 112.3083 409.1795ZM118.1683 335.4495C89.3583 335.4495 73.7283 320.3095 73.7283 290.0395V119.1395C73.7283 88.3795 89.3583 73.7295 118.1683 73.7295H936.5283C965.8183 73.7295 981.4483 88.3795 981.4483 119.1395V290.0395C981.4483 320.3095 965.8183 335.4495 936.5283 335.4495ZM112.3083 898.9295H942.8683C1017.5783 898.9295 1055.1783 862.7895 1055.1783 787.5995V600.5895C1055.1783 526.3695 1017.5783 489.7495 942.8683 489.7495H112.3083C37.5983 489.7495 -0.0017 526.3695 -0.0017 600.5895V787.5995C-0.0017 862.7895 37.5983 898.9295 112.3083 898.9295ZM118.1683 825.1995C89.3583 825.1995 73.7283 810.0595 73.7283 779.7895V608.8895C73.7283 578.1295 89.3583 563.4795 118.1683 563.4795H936.5283C965.8183 563.4795 981.4483 578.1295 981.4483 608.8895V779.7895C981.4483 810.0595 965.8183 825.1995 936.5283 825.1995Z"/>
</svg>