<?xml version="1.0" encoding="UTF-8" standalone="no"?>
<svg xmlns="http://www.w3.org/2000/svg"
     width="1180.6640625" height="898.92578125"
     viewBox="0 0 1180.6640625 898.92578125"
     fill="currentColor">
  <path d="M419.9183 898.9295H761.2283C1051.7583 898.9295 1180.6683 765.6295 1180.6683 491.6995V151.3695C1180.6683 50.7795 1129.3983 -0.0005 1027.3483 -0.0005H153.3183C51.2683 -0.0005 -0.0017 50.2895 -0.0017 151.3695V491.6995C-0.0017 765.6295 128.9083 898.9295 419.9183 898.9295ZM419.9183 819.3395C182.6183 819.3395 78.6183 715.3295 78.6183 496.5795V155.2695C78.6183 104.4895 105.4683 78.6095 154.2983 78.6095H1026.3683C1074.7083 78.6095 1102.0483 104.4895 1102.0483 155.2695V496.5795C1102.0483 715.3295 998.0483 819.3395 760.7383 819.3395Z"/>
</svg>