<?xml version="1.0" encoding="UTF-8" standalone="no"?>
<svg xmlns="http://www.w3.org/2000/svg"
     width="1098.6328125" height="1165.0390625"
     viewBox="0 0 1098.6328125 1165.0390625"
     fill="currentColor">
  <path d="M549.3183 388.1814C570.3083 388.1814 587.8883 371.0914 587.8883 350.5814V188.9614L584.9583 107.4214L626.9483 150.8814L690.4283 214.8414C697.7583 222.1714 707.5183 226.5614 716.7983 226.5614C737.7883 226.5614 752.9283 211.9114 752.9283 191.8914C752.9283 180.6614 748.5383 171.8714 740.2383 164.5514L577.6383 13.1814C567.3783 3.9014 559.5683 0.0014 549.3183 0.0014C539.0583 0.0014 531.2483 3.9014 520.9983 13.1814L358.3983 164.5514C350.0983 171.8714 345.6983 180.6614 345.6983 191.8914C345.6983 211.9114 360.3483 226.5614 381.3483 226.5614C390.6283 226.5614 400.8783 222.1714 408.1983 214.8414L471.6783 150.8814L513.6683 107.4214L510.2583 188.9614V350.5814C510.2583 371.0914 528.3183 388.1814 549.3183 388.1814ZM138.1883 910.1514H297.8483V836.4214H148.4383C104.4883 836.4214 77.6383 807.1314 77.6383 767.0914V397.9514C77.6383 357.9114 104.4883 329.1014 148.4383 329.1014H297.8483V255.3714H138.1883C56.6383 255.3714 -0.0017 310.5514 -0.0017 385.7414V779.7814C-0.0017 854.4914 56.6383 910.1514 138.1883 910.1514ZM960.4483 910.1514C1041.9883 910.1514 1098.6283 854.4914 1098.6283 779.7814V385.7414C1098.6283 310.5514 1041.9883 255.3714 960.4483 255.3714H800.7783V329.1014H950.1983C994.1383 329.1014 1020.9983 357.9114 1020.9983 397.9514V767.0914C1020.9983 807.1314 994.1383 836.4214 950.1983 836.4214H800.7783V910.1514ZM549.3183 1165.0414C559.5683 1165.0414 567.3783 1161.1314 577.6383 1151.8514L740.2383 1000.4914C748.5383 993.1614 752.9283 984.3714 752.9283 973.1414C752.9283 953.1214 738.2783 938.9614 717.2883 938.9614C708.0083 938.9614 697.7583 942.8714 690.4283 950.1914L626.9483 1014.1614L584.9583 1057.6214L587.8883 976.0714V814.9414C587.8883 793.9414 570.3083 776.8514 549.3183 776.8514C528.3183 776.8514 510.2583 793.9414 510.2583 814.9414V976.0714L513.6683 1057.6214L471.6783 1014.1614L408.1983 950.1914C400.8783 942.8714 391.1183 938.9614 381.8383 938.9614C360.8383 938.9614 345.6983 953.1214 345.6983 973.1414C345.6983 984.3714 350.0983 993.1614 358.3983 1000.4914L520.9983 1151.8514C531.2483 1161.1314 539.0583 1165.0414 549.3183 1165.0414Z"/>
</svg>