<?xml version="1.0" encoding="UTF-8" standalone="no"?>
<svg xmlns="http://www.w3.org/2000/svg"
     width="759.765625" height="1053.7109375"
     viewBox="0 0 759.765625 1053.7109375"
     fill="currentColor">
  <path d="M48.8298 490.7184H122.5598V134.7684C122.5598 95.2184 145.0198 71.2884 188.4798 71.2884H570.7998C614.2598 71.2884 637.2098 95.2184 637.2098 134.7684V172.8484H710.9398V124.5084C710.9398 51.2684 660.1598 -0.0016 580.5698 -0.0016H178.7098C99.1198 -0.0016 48.3398 51.2684 48.3398 124.5084ZM518.0698 232.9084C498.0498 232.9084 487.2998 248.5384 487.2998 264.1584C487.2998 279.7884 498.5398 295.8984 519.5298 295.8984H595.6998L653.8098 292.4784L597.6598 345.2184L521.4798 420.8984C514.1598 428.7084 510.7398 437.0084 510.7398 444.8284C510.7398 464.3584 528.8098 481.9384 548.3398 481.9384C556.1498 481.9384 564.4498 479.0084 571.7798 471.6784L647.4598 395.5084L699.7098 339.3584L696.7798 396.9684V475.0984C696.7798 496.5784 712.8898 507.3284 728.5198 507.3284C744.1398 507.3284 759.7698 497.0684 759.7698 476.5584V273.4384C759.7698 247.0684 745.1198 232.9084 719.2398 232.9084ZM40.5298 820.7984H241.6998C262.2098 820.7984 272.4598 804.6884 272.4598 789.0584C272.4598 772.9484 261.7198 757.3284 240.2298 757.3284H164.0598L105.9598 760.7384L162.1098 708.0084L238.2798 632.3284C245.6098 624.9984 249.0198 616.6984 249.0198 608.3984C249.0198 588.8684 230.9598 571.7784 211.4298 571.7784C203.6098 571.7784 195.3098 574.2184 187.9898 581.5384L112.2998 658.1984L60.0598 713.8684L62.9898 656.2484V578.1284C62.9898 556.6384 46.8798 545.8984 31.2498 545.8984C15.6298 545.8984 -0.0002 556.1484 -0.0002 576.6584V779.7884C-0.0002 806.1484 14.6498 820.7984 40.5298 820.7984ZM179.1998 1053.7084H581.0498C660.6398 1053.7084 711.4298 1001.9484 711.4298 928.7084V562.4984H637.6998V918.4584C637.6998 958.4984 614.7498 982.4184 571.2898 982.4184H188.9698C145.5098 982.4184 122.5598 958.4984 122.5598 918.4584V880.3684H48.8298V928.7084C48.8298 1001.9484 99.6098 1053.7084 179.1998 1053.7084Z"/>
</svg>