<?xml version="1.0" encoding="UTF-8" standalone="no"?>
<svg xmlns="http://www.w3.org/2000/svg"
     width="989.2578125" height="1214.84375"
     viewBox="0 0 989.2578125 1214.84375"
     fill="currentColor">
  <path d="M763.1883 153.3209C763.1883 51.2709 712.8883 0.0009 611.8183 0.0009H151.3683C50.2883 0.0009 -0.0017 51.2709 -0.0017 153.3209V814.9409C-0.0017 916.9909 50.7783 968.2609 151.3683 968.2609H226.0783V1061.5209C226.0783 1163.5709 276.8583 1214.8409 377.4383 1214.8409H837.8883C938.4783 1214.8409 989.2583 1163.5709 989.2583 1061.5209V394.5309C989.2583 292.4809 938.9683 241.2109 837.8883 241.2109H763.1883ZM155.2783 889.6509C104.4883 889.6509 78.6183 861.8209 78.6183 813.9609V154.7809C78.6183 105.9609 104.4883 78.6109 155.2783 78.6109H607.9083C658.6883 78.6109 684.5683 105.9609 684.5683 154.7809V241.2109H377.4383C276.3683 241.2109 226.0783 292.4809 226.0783 394.5309V889.6509ZM910.6483 396.0009V1060.5509C910.6483 1108.4009 884.7683 1136.2309 833.9883 1136.2309H381.3483C330.5683 1136.2309 304.6883 1108.4009 304.6883 1060.5509V396.0009C304.6883 347.1709 330.5683 319.8209 381.3483 319.8209H833.9883C884.7683 319.8209 910.6483 347.1709 910.6483 396.0009Z"/>
</svg>