<?xml version="1.0" encoding="UTF-8" standalone="no"?>
<svg xmlns="http://www.w3.org/2000/svg"
     width="923.828125" height="1225.4051250838527"
     viewBox="0 0 923.828125 1225.4051250838527"
     fill="currentColor">
  <path d="M587.8883 154.0497L497.0683 18.3097C480.9583 -6.5903 445.7983 -5.6103 429.6883 18.3097L337.3983 154.0497C315.9183 185.2997 327.6383 218.5097 365.2383 218.5097H560.0583C596.6783 218.5097 607.9083 184.3297 587.8883 154.0497ZM153.3183 932.3797H770.5083C873.0483 932.3797 923.8283 881.5897 923.8283 781.0097V444.5797C923.8283 343.9997 873.0483 293.2097 770.5083 293.2097H153.3183C50.7783 293.2097 -0.0017 343.5097 -0.0017 444.5797V781.0097C-0.0017 882.0797 50.7783 932.3797 153.3183 932.3797ZM154.2983 853.7597C105.4683 853.7597 78.6183 827.3897 78.6183 777.0997V448.4897C78.6183 397.7097 105.4683 371.8297 154.2983 371.8297H769.5283C817.8683 371.8297 845.2183 397.7097 845.2183 448.4897V777.0997C845.2183 827.3897 817.8683 853.7597 769.5283 853.7597ZM587.8883 1071.0497C607.9083 1041.2597 596.6783 1007.0797 560.0583 1007.0797H365.2383C327.6383 1007.0797 315.9183 1039.7997 337.3983 1071.0497L429.6883 1207.2797C445.7983 1231.1997 480.9583 1231.6897 497.0683 1207.2797Z"/>
</svg>