<?xml version="1.0" encoding="UTF-8" standalone="no"?>
<svg xmlns="http://www.w3.org/2000/svg"
     width="1310.05859375" height="1117.1875"
     viewBox="0 0 1310.05859375 1117.1875"
     fill="currentColor">
  <path d="M153.3183 488.2828H501.4683C603.5183 488.2828 654.7883 437.5028 654.7883 336.9128V150.8828C654.7883 50.2928 603.5183 0.0028 501.4683 0.0028H153.3183C51.2683 0.0028 -0.0017 50.2928 -0.0017 150.8828V336.9128C-0.0017 437.5028 51.2683 488.2828 153.3183 488.2828ZM154.2983 409.6728C105.4683 409.6728 78.6183 383.3028 78.6183 332.5228V155.2728C78.6183 104.4928 105.4683 78.6128 154.2983 78.6128H500.4883C548.8283 78.6128 576.1683 104.4928 576.1683 155.2728V332.5228C576.1683 383.3028 548.8283 409.6728 500.4883 409.6728ZM1044.4383 537.5928C1059.5683 558.5928 1076.6583 558.1028 1091.7983 537.5928L1182.6183 414.0628C1202.6383 387.2028 1194.8283 359.8628 1158.6883 359.8628H1094.2383V349.6128C1094.2383 209.4728 999.9983 116.2128 860.3483 116.2128H787.1083C770.5083 116.2128 756.8383 130.3728 756.8383 146.9728C756.8383 163.5728 770.5083 177.2428 787.1083 177.2428H859.8683C963.8683 177.2428 1037.5983 244.1428 1037.5983 350.0928V359.8628H978.0283C942.8683 359.8628 934.5683 387.2028 954.5883 414.0628ZM449.2183 1000.9728H522.4583C539.0583 1000.9728 553.2183 986.8128 553.2183 970.2128C553.2183 953.6128 539.0583 939.9428 522.4583 939.9428H449.7083C345.6983 939.9428 271.9683 872.5628 271.9683 766.6028V757.3228H332.0283C366.6983 757.3228 374.9983 729.9828 355.4683 702.6328L265.1383 579.5928C249.9983 558.5928 232.9083 559.0828 217.7783 579.5928L127.4383 702.6328C106.9383 729.9828 115.2383 757.3228 150.8783 757.3228H215.3283V767.0928C215.3283 907.7128 309.5683 1000.9728 449.2183 1000.9728ZM808.1083 1117.1828H1156.7383C1258.2983 1117.1828 1310.0583 1066.4028 1310.0583 965.8228V780.2728C1310.0583 679.6828 1258.2983 628.9028 1156.7383 628.9028H808.1083C706.5383 628.9028 654.7883 679.2028 654.7883 780.2728V965.8228C654.7883 1066.8928 706.5383 1117.1828 808.1083 1117.1828ZM809.5683 1038.5728C760.7383 1038.5728 733.3983 1012.6928 733.3983 961.9128V784.1828C733.3983 733.8828 760.7383 707.5228 809.5683 707.5228H1155.2783C1203.6183 707.5228 1231.4483 733.8828 1231.4483 784.1828V961.9128C1231.4483 1012.6928 1203.6183 1038.5728 1155.2783 1038.5728Z"/>
</svg>