<?xml version="1.0" encoding="UTF-8" standalone="no"?>
<svg xmlns="http://www.w3.org/2000/svg"
     width="1220.8261200404227" height="948.73046875"
     viewBox="0 0 1220.8261200404227 948.73046875"
     fill="currentColor">
  <path d="M293.0298 153.3202V795.4102C293.0298 897.9502 343.8098 948.7302 444.3998 948.7302H776.4298C876.5298 948.7302 927.3098 897.9502 927.3098 795.4102V153.3202C927.3098 50.7802 877.0098 0.0002 776.4298 0.0002H444.3998C343.8098 0.0002 293.0298 50.7802 293.0298 153.3202ZM371.6398 154.3002C371.6398 105.4702 398.0098 78.6102 448.7898 78.6102H772.0298C822.8198 78.6102 848.6898 105.4702 848.6898 154.3002V794.4302C848.6898 842.2902 822.8198 870.1202 772.0298 870.1202H448.7898C398.0098 870.1202 371.6398 842.2902 371.6398 794.4302ZM154.3598 600.1002C184.1398 620.1202 218.3198 609.3702 218.3198 572.7502V377.9302C218.3198 339.8402 185.6098 328.1202 154.3598 349.6102L18.1298 441.8902C-5.8002 458.0102 -6.2902 493.1602 18.1298 509.7702ZM1066.4698 600.1002L1202.6998 509.7702C1227.1098 493.1602 1226.6198 458.0102 1202.6998 441.8902L1066.4698 349.6102C1035.2198 328.1202 1002.4998 339.8402 1002.4998 377.9302V572.7502C1002.4998 609.3702 1036.6798 620.1202 1066.4698 600.1002Z"/>
</svg>