<?xml version="1.0" encoding="UTF-8" standalone="no"?>
<svg xmlns="http://www.w3.org/2000/svg"
     width="821.2890625" height="1046.875"
     viewBox="0 0 821.2890625 1046.875"
     fill="currentColor">
  <path d="M-0.0017 894.0466C-0.0017 996.0966 50.2883 1046.8766 151.3683 1046.8766H669.9183C770.9983 1046.8766 821.2883 996.0966 821.2883 894.0466V153.3166C821.2883 51.7566 770.9983 -0.0034 669.9183 -0.0034H151.3683C50.2883 -0.0034 -0.0017 51.7566 -0.0017 153.3166ZM78.6183 892.5766V154.7866C78.6183 105.9566 104.4883 78.6166 155.2783 78.6166H666.0183C716.7983 78.6166 742.6783 105.9566 742.6783 154.7866V892.5766C742.6783 941.4066 716.7983 968.2666 666.0183 968.2666H155.2783C104.4883 968.2666 78.6183 941.4066 78.6183 892.5766ZM188.9683 901.8566H366.6983C397.9483 901.8566 410.6483 889.6466 410.6483 858.8866V566.4066C410.6483 535.6466 397.9483 523.4366 366.6983 523.4366H188.9683C158.1983 523.4366 145.5083 535.6466 145.5083 566.4066V858.8866C145.5083 889.6466 158.1983 901.8566 188.9683 901.8566Z"/>
</svg>