<?xml version="1.0" encoding="UTF-8" standalone="no"?>
<svg xmlns="http://www.w3.org/2000/svg"
     width="1197.75390625" height="948.73046875"
     viewBox="0 0 1197.75390625 948.73046875"
     fill="currentColor">
  <path d="M292.9683 153.3202V795.4102C292.9683 897.9502 343.7483 948.7302 444.3383 948.7302H775.8783C876.4683 948.7302 927.2483 897.9502 927.2483 795.4102V153.3202C927.2483 50.7802 876.9483 0.0002 775.8783 0.0002H444.3383C343.2583 0.0002 292.9683 50.7802 292.9683 153.3202ZM371.5783 154.3002C371.5783 105.4702 397.9483 78.6102 448.2383 78.6102H771.9683C822.2683 78.6102 848.6283 105.4702 848.6283 154.3002V794.4302C848.6283 842.2902 822.2683 870.1202 771.9683 870.1202H448.2383C397.9483 870.1202 371.5783 842.2902 371.5783 794.4302ZM1133.7883 600.1002C1164.0583 620.1202 1197.7583 609.3702 1197.7583 572.7502V377.9302C1197.7583 339.8402 1165.0383 328.1202 1133.7883 349.6102L998.0483 441.8902C973.6283 458.0102 973.1483 493.1602 998.0483 509.7702ZM63.9683 600.1002L200.1983 509.7702C224.6083 493.1602 224.1183 458.0102 200.1983 441.8902L63.9683 349.6102C32.7183 328.1202 -0.0017 339.8402 -0.0017 377.9302V572.7502C-0.0017 609.3702 34.1783 620.1202 63.9683 600.1002Z"/>
</svg>