<?xml version="1.0" encoding="UTF-8" standalone="no"?>
<svg xmlns="http://www.w3.org/2000/svg"
     width="1032.765321371105" height="1223.9784735423234"
     viewBox="0 0 1032.765321371105 1223.9784735423234"
     fill="currentColor">
  <path d="M1032.7688 403.6657C1032.7688 301.6157 982.4688 250.3457 881.3988 250.3457H776.4188L755.4188 128.7657C737.8388 27.6857 678.7588 -13.3243 579.6388 3.7657L126.5188 83.3557C27.3988 100.9357 -13.6212 160.0157 3.9588 261.0857L118.6988 912.4557C134.8188 1004.2557 185.5988 1046.7357 269.5788 1040.3857V1070.6557C269.5788 1172.7057 320.3588 1223.9757 420.9488 1223.9757H881.3988C981.9888 1223.9757 1032.7688 1172.7057 1032.7688 1070.6557ZM195.8488 897.3157L81.5888 248.3957C73.2888 200.0557 93.7988 169.2957 144.0888 160.5057L589.4088 81.8857C639.2088 73.0957 669.4888 95.0757 677.7888 143.4157L697.3188 250.3457H420.9488C320.3588 250.3457 269.5788 301.6157 269.5788 403.6657V960.7957C228.5688 962.7457 203.1788 939.7957 195.8488 897.3157ZM954.1488 405.1357V1069.6857C954.1488 1117.5357 928.2688 1145.3657 877.4888 1145.3657H425.3388C374.5588 1145.3657 348.1988 1117.5357 348.1988 1069.6857V405.1357C348.1988 356.3057 374.5588 328.9557 425.3388 328.9557H877.4888C928.2688 328.9557 954.1488 356.3057 954.1488 405.1357Z"/>
</svg>