<?xml version="1.0" encoding="UTF-8" standalone="no"?>
<svg xmlns="http://www.w3.org/2000/svg"
     width="678.7109375" height="1104.98046875"
     viewBox="0 0 678.7109375 1104.98046875"
     fill="currentColor">
  <path d="M-0.0017 367.1852H678.7083V102.0552C678.7083 40.5252 639.1583 -0.0048 580.0783 -0.0048H98.1483C39.5483 -0.0048 -0.0017 40.5252 -0.0017 102.0552ZM135.2583 275.3952C121.0983 275.3952 110.3483 265.1352 110.3483 250.4852V139.1552C110.3483 124.9952 120.6083 114.7452 135.2583 114.7452C149.4183 114.7452 159.6683 124.5152 159.6683 139.1552V250.4852C159.6683 264.6452 149.8983 275.3952 135.2583 275.3952ZM-0.0017 909.1752H678.7083V424.3152H-0.0017ZM135.2583 657.7152C121.0983 657.7152 110.3483 647.9452 110.3483 633.3052V521.9752C110.3483 507.8152 120.6083 497.5552 135.2583 497.5552C149.4183 497.5552 159.6683 507.3252 159.6683 521.9752V633.3052C159.6683 647.4652 149.8983 657.7152 135.2583 657.7152ZM-0.0017 966.3052V1002.9252C-0.0017 1064.4552 39.5483 1104.9852 98.1483 1104.9852H580.0783C639.1583 1104.9852 678.7083 1064.4552 678.7083 1002.9252V966.3052Z"/>
</svg>