<?xml version="1.0" encoding="UTF-8" standalone="no"?>
<svg xmlns="http://www.w3.org/2000/svg"
     width="703.125" height="1104.98046875"
     viewBox="0 0 703.125 1104.98046875"
     fill="currentColor">
  <path d="M112.7883 1104.9834H589.8483C657.7183 1104.9834 703.1283 1058.5934 703.1283 988.2834V116.7034C703.1283 46.3834 657.7183 0.0034 589.8483 0.0034H112.7883C45.4083 0.0034 -0.0017 46.3834 -0.0017 116.7034V988.2834C-0.0017 1058.5934 45.4083 1104.9834 112.7883 1104.9834ZM78.6183 117.6734C78.6183 94.2334 93.7483 78.6134 116.6983 78.6134H586.4283C608.8883 78.6134 624.5083 94.2334 624.5083 117.6734V368.6534H78.6183ZM169.4383 293.4534C184.0783 293.4534 193.8483 283.2034 193.8483 268.5534V160.6434C193.8483 145.9934 184.0783 135.7434 169.4383 135.7434C154.7883 135.7434 144.5283 145.9934 144.5283 160.6434V268.5534C144.5283 283.2034 154.7883 293.4534 169.4383 293.4534ZM78.6183 891.1134V432.6134H624.5083V891.1134ZM169.4383 636.7234C184.0783 636.7234 193.8483 626.9534 193.8483 612.3034V503.9034C193.8483 489.2534 184.0783 479.4934 169.4383 479.4934C154.7883 479.4934 144.5283 489.2534 144.5283 503.9034V612.3034C144.5283 626.9534 154.7883 636.7234 169.4383 636.7234ZM116.6983 1026.3634C93.7483 1026.3634 78.6183 1011.2334 78.6183 987.7934V955.0734H624.5083V987.7934C624.5083 1011.2334 608.8883 1026.3634 586.4283 1026.3634Z"/>
</svg>