<?xml version="1.0" encoding="UTF-8" standalone="no"?>
<svg xmlns="http://www.w3.org/2000/svg"
     width="996.09375" height="996.09375"
     viewBox="0 0 996.09375 996.09375"
     fill="currentColor">
  <path d="M498.0477 996.0959C770.5077 996.0959 996.0977 770.0159 996.0977 498.0459C996.0977 225.5859 770.0177 -0.0041 497.5577 -0.0041C225.5877 -0.0041 -0.0023 225.5859 -0.0023 498.0459C-0.0023 770.0159 226.0777 996.0959 498.0477 996.0959ZM174.3177 496.5859V466.7959C174.3177 384.7659 231.9377 333.0059 321.7777 333.0059H444.3377V271.4859C444.3377 256.8359 453.6177 247.5559 468.7477 247.5559C475.5877 247.5559 481.9377 249.5159 487.3077 253.9059L597.1677 345.2159C610.3477 355.4659 610.3477 371.0959 597.1677 381.8359L487.3077 473.1459C481.9377 477.0459 475.5877 479.4959 468.7477 479.4959C453.6177 479.4959 444.3377 470.7059 444.3377 456.0559V393.0659H315.9177C266.5977 393.0659 234.3777 424.8059 234.3777 471.1959V496.5859C234.3777 513.1859 220.7077 526.8559 204.0977 526.8559C187.4977 526.8559 174.3177 513.1859 174.3177 496.5859ZM745.6077 443.8459C726.0777 443.8459 713.3777 431.1559 713.3777 411.6259V310.5459L717.7777 307.1259H713.3777V310.5459L687.9877 331.0559C683.1077 334.9559 677.7377 336.4259 672.3677 336.4259C659.6677 336.4259 650.3877 327.1459 650.3877 315.4259C650.3877 307.1259 652.8277 301.2659 660.1577 295.4059L699.2177 266.1159C713.8677 254.3959 724.6077 250.4859 739.7477 250.4859C761.7177 250.4859 776.8577 265.1359 776.8577 288.0859V411.6259C776.8577 431.1559 764.6477 443.8459 745.6077 443.8459ZM775.8777 526.8559V556.6359C775.8777 638.1859 718.2577 690.4259 627.9277 690.4259H442.8677V752.9259C442.8677 767.5759 434.0777 776.3659 418.4577 776.3659C411.6177 776.3659 405.2777 774.4159 399.8977 770.0159L290.0377 679.1959C277.3477 668.9459 276.8577 652.3459 289.5477 642.5759L399.8977 551.2659C405.2777 546.8759 411.6177 544.9259 418.4577 544.9259C433.5977 544.9259 442.8677 553.7059 442.8677 568.3559V630.3759H633.7877C683.1077 630.3759 715.3277 599.1259 715.3277 552.2459V526.8559C715.3277 510.2559 729.0077 497.0659 745.6077 497.0659C762.2077 497.0659 775.8777 510.2559 775.8777 526.8559Z"/>
</svg>