<?xml version="1.0" encoding="UTF-8" standalone="no"?>
<svg xmlns="http://www.w3.org/2000/svg"
     width="1044.43359375" height="883.7890625"
     viewBox="0 0 1044.43359375 883.7890625"
     fill="currentColor">
  <path d="M1001.4683 325.683C1028.3183 325.683 1044.4383 309.083 1044.4383 281.743V54.203C1044.4383 21.483 1022.9483 0.003 991.6983 0.003C966.3083 0.003 950.6883 8.303 930.6683 23.923L865.2383 73.733C854.9783 82.033 852.0483 89.353 852.0483 99.123C852.0483 113.773 863.2783 125.003 880.3683 125.003C887.2083 125.003 894.0383 123.043 900.3883 117.673L952.6383 76.173H957.5183V281.743C957.5183 309.083 974.1183 325.683 1001.4683 325.683ZM41.5083 465.823C64.9383 465.823 83.0083 447.753 83.0083 424.313V377.933C83.0083 293.943 140.1383 239.253 228.5183 239.253H504.8783V354.003C504.8783 373.533 516.5983 384.763 536.6183 384.763C545.4083 384.763 554.1983 381.343 561.5283 375.493L746.0983 222.653C762.2083 209.473 762.6983 189.943 746.0983 176.273L561.5283 22.953C554.1983 17.093 545.4083 14.163 536.6183 14.163C516.5983 14.163 504.8783 24.903 504.8783 44.923V158.203H236.3283C93.2583 158.203 -0.0017 239.743 -0.0017 372.073V424.313C-0.0017 447.753 17.5783 465.823 41.5083 465.823ZM1000.9783 431.153C977.0483 431.153 959.4683 448.733 959.4683 472.653V519.043C959.4683 603.023 902.3483 657.223 813.4783 657.223H432.6183V543.943C432.6183 523.923 421.3883 513.183 401.3683 513.183C392.0883 513.183 383.2983 516.113 375.9783 521.973L191.4083 674.803C175.7783 688.473 175.2883 708.003 191.4083 721.193L375.9783 874.513C383.2983 880.373 392.0883 883.793 401.3683 883.793C421.3883 883.793 432.6183 872.563 432.6183 853.023V738.773H805.6683C949.2183 738.773 1042.4783 657.223 1042.4783 524.903V472.653C1042.4783 448.733 1024.4183 431.153 1000.9783 431.153Z"/>
</svg>