<?xml version="1.0" encoding="UTF-8" standalone="no"?>
<svg xmlns="http://www.w3.org/2000/svg"
     width="996.09375" height="996.09375"
     viewBox="0 0 996.09375 996.09375"
     fill="currentColor">
  <path d="M498.0477 996.0959C770.5077 996.0959 996.0977 770.0159 996.0977 498.0459C996.0977 225.5859 770.0177 -0.0041 497.5577 -0.0041C225.5877 -0.0041 -0.0023 225.5859 -0.0023 498.0459C-0.0023 770.0159 226.0777 996.0959 498.0477 996.0959ZM182.6177 452.1459C182.6177 366.6959 243.6477 311.0359 337.3977 311.0359H529.7877V248.5359C529.7877 231.9359 540.5277 221.1959 557.1277 221.1959C563.9677 221.1959 572.2677 224.1259 578.1277 229.0059L691.8977 324.2159C706.0577 335.9359 706.0577 354.0059 691.8977 365.7259L578.1277 460.4459C572.2677 465.3359 563.9677 467.7759 557.1277 467.7759C540.5277 467.7759 529.7877 457.5159 529.7877 439.9459V377.9259H332.0277C283.2077 377.9259 249.9977 408.6959 249.9977 455.5659V483.3959C249.9977 501.4659 235.3477 516.6059 215.8177 516.6059C197.7577 516.6059 182.6177 501.4659 182.6177 483.3959ZM813.9677 545.4059C813.9677 631.3459 752.9277 687.0159 659.1777 687.0159H466.7977V749.5159C466.7977 766.6059 456.5477 777.3459 439.4577 777.3459C432.6177 777.3459 424.8077 774.4159 418.9477 769.5359L304.6877 674.3159C290.5277 662.5959 290.5277 644.0459 304.6877 632.3259L418.9477 538.0859C424.3177 533.6959 432.6177 530.7659 439.4577 530.7659C456.5477 530.7659 466.7977 541.0159 466.7977 558.1059V620.1159H664.5477C713.3777 620.1159 746.5777 589.3559 746.5777 541.9959V514.6459C746.5777 495.6059 760.7377 481.4459 780.7577 481.4459C799.8077 481.4459 813.9677 495.6059 813.9677 514.6459Z"/>
</svg>