<?xml version="1.0" encoding="UTF-8" standalone="no"?>
<svg xmlns="http://www.w3.org/2000/svg"
     width="1042.48046875" height="869.62890625"
     viewBox="0 0 1042.48046875 869.62890625"
     fill="currentColor">
  <path d="M41.5083 451.6628C64.9383 451.6628 83.0083 433.5928 83.0083 410.1528V363.7728C83.0083 279.7828 140.1383 225.0928 228.5183 225.0928H609.3783V339.8428C609.3783 359.3728 621.0983 370.6028 641.1183 370.6028C649.8983 370.6028 659.1783 367.1828 666.0183 361.3328L850.5883 208.4928C866.2083 195.8028 867.1883 175.7828 850.5883 162.1128L666.0183 8.7928C659.1783 2.9328 649.8983 0.0028 641.1183 0.0028C621.0983 0.0028 609.3783 10.7428 609.3783 30.7628V144.0428H236.3283C93.2583 144.0428 -0.0017 225.5828 -0.0017 357.9128V410.1528C-0.0017 433.5928 17.5783 451.6628 41.5083 451.6628ZM1000.9783 416.9928C977.0483 416.9928 959.4683 434.5728 959.4683 458.4928V504.8828C959.4683 588.8628 902.3483 643.0628 813.4783 643.0628H432.6183V529.7828C432.6183 509.7628 421.3883 499.0228 401.3683 499.0228C392.0883 499.0228 383.2983 501.9528 375.9783 507.8128L191.4083 660.6428C175.7783 674.3128 175.2883 693.8428 191.4083 707.0328L375.9783 860.3528C383.2983 866.2128 392.0883 869.6328 401.3683 869.6328C421.3883 869.6328 432.6183 858.4028 432.6183 838.8628V724.6128H805.6683C949.2183 724.6128 1042.4783 643.0628 1042.4783 510.7428V458.4928C1042.4783 434.5728 1024.4183 416.9928 1000.9783 416.9928Z"/>
</svg>