<?xml version="1.0" encoding="UTF-8" standalone="no"?>
<svg xmlns="http://www.w3.org/2000/svg"
     width="996.09375" height="996.09375"
     viewBox="0 0 996.09375 996.09375"
     fill="currentColor">
  <path d="M498.0477 996.0977C770.5077 996.0977 996.0977 770.5077 996.0977 498.0477C996.0977 226.0777 770.0177 -0.0023 497.5577 -0.0023C225.5877 -0.0023 -0.0023 226.0777 -0.0023 498.0477C-0.0023 770.5077 226.0777 996.0977 498.0477 996.0977ZM269.0477 445.3077L569.8277 266.1177C607.9077 244.1377 660.1577 258.7877 660.1577 312.4977V683.1077C660.1577 736.8177 607.9077 751.4677 569.8277 729.4877L268.0677 551.2677C229.0077 527.3477 228.0277 470.2177 269.0477 445.3077ZM347.1677 494.1377C344.2377 496.0977 343.2577 500.4877 347.6577 502.9277L569.3377 633.7877C574.7077 637.2077 578.6177 634.7677 578.6177 629.8877V365.7177C578.6177 360.8377 574.7077 358.8877 569.3377 361.8177Z"/>
</svg>