<?xml version="1.0" encoding="UTF-8" standalone="no"?>
<svg xmlns="http://www.w3.org/2000/svg"
     width="1030.2734375" height="896.484375"
     viewBox="0 0 1030.2734375 896.484375"
     fill="currentColor">
  <path d="M696.7783 896.4888C707.5183 896.4888 720.2183 891.5988 728.5183 883.2988L1015.6283 601.5588C1025.3883 592.2887 1030.2783 580.5688 1030.2783 568.8488C1030.2783 556.6388 1025.3883 545.4088 1015.6283 536.1288L728.5183 254.3987C720.2183 246.0888 707.5183 240.7188 696.7783 240.7188C670.8983 240.7188 653.8083 258.7888 653.8083 283.6888C653.8083 296.3887 657.7183 306.1487 665.5283 313.9688L806.1483 451.1688L898.9283 530.2688L784.1783 525.3888H161.1283C109.3783 525.3888 86.9183 502.9288 86.9183 449.7088V161.1287C86.9183 109.3787 109.3783 86.9188 161.1283 86.9188H434.5683C461.4283 86.9188 479.0083 67.3787 479.0083 43.4588C479.0083 19.5287 461.4283 -0.0013 434.5683 -0.0013H161.1283C47.3683 -0.0013 -0.0017 47.3587 -0.0017 161.1287V449.7088C-0.0017 560.0587 47.3683 612.3088 161.1283 612.3088H784.1783L898.9283 607.4188L806.1483 686.5188L665.5283 823.7288C657.7183 831.5388 653.8083 840.8188 653.8083 853.5188C653.8083 878.9088 670.8983 896.4888 696.7783 896.4888Z"/>
</svg>