<?xml version="1.0" encoding="UTF-8" standalone="no"?>
<svg xmlns="http://www.w3.org/2000/svg"
     width="760.25390625" height="1000"
     viewBox="0 0 760.25390625 1000"
     fill="currentColor">
  <path d="M379.8806 999.9991C406.7406 999.9991 419.9206 981.9291 447.7506 944.8291L739.2606 555.6591C752.4406 537.5991 760.2506 519.5291 760.2506 499.9991C760.2506 479.9791 752.4406 462.3991 739.2606 444.3391L447.7506 54.6891C419.9206 18.0691 406.7406 -0.0009 379.8806 -0.0009C353.0306 -0.0009 339.8406 18.0691 312.5006 54.6891L21.0006 444.3391C7.3206 462.3991 0.0006 479.9791 0.0006 499.9991C0.0006 519.5291 7.3206 537.5991 21.0006 555.6591L312.5006 944.8291C339.8406 981.9291 353.0306 999.9991 379.8806 999.9991Z"/>
</svg>