<?xml version="1.0" encoding="UTF-8" standalone="no"?>
<svg xmlns="http://www.w3.org/2000/svg"
     width="1407.249964446413" height="730.95703125"
     viewBox="0 0 1407.249964446413 730.95703125"
     fill="currentColor">
  <path d="M40.0461 730.9552H103.5261C132.8161 730.9552 147.4661 716.7952 155.7661 695.8052C245.1261 474.1252 335.4561 251.9552 425.2961 30.2752C432.1361 14.1552 424.3261 -0.0048 407.2361 -0.0048H375.4961C358.4061 -0.0048 347.6661 8.3052 340.3361 22.9452C228.5261 240.7252 117.6861 458.4952 5.8661 676.7552C-7.8039 701.6552 1.9561 730.9552 40.0461 730.9552ZM1303.7161 730.9552H1367.6861C1405.2761 730.9552 1415.0461 701.6552 1401.3761 676.7552C1290.5361 458.4952 1178.7161 240.7252 1067.3861 22.9452C1059.5761 8.3052 1048.8361 -0.0048 1031.7461 -0.0048H1000.0061C982.9161 -0.0048 975.5961 14.1552 981.9361 30.2752C1071.7861 251.9552 1162.1161 474.1252 1251.4661 695.8052C1259.7761 716.7952 1274.4161 730.9552 1303.7161 730.9552ZM692.3861 133.3052H713.8761C733.8961 133.3052 749.5161 118.1652 749.5161 97.6552V35.6452C749.5161 15.1352 733.8961 -0.0048 713.8761 -0.0048H692.3861C672.3661 -0.0048 656.7461 15.1352 656.7461 35.6452V97.6552C656.7461 118.1652 672.3661 133.3052 692.3861 133.3052ZM692.3861 411.6252H713.8761C733.8961 411.6252 749.5161 396.9752 749.5161 376.4652V272.9452C749.5161 252.4452 733.8961 237.7952 713.8761 237.7952H692.3861C672.3661 237.7952 656.7461 252.4452 656.7461 272.9452V376.4652C656.7461 396.9752 672.3661 411.6252 692.3861 411.6252ZM692.3861 730.9552H713.8761C733.8961 730.9552 749.5161 715.8252 749.5161 695.3152V555.1752C749.5161 534.6652 733.8961 520.0152 713.8761 520.0152H692.3861C672.3661 520.0152 656.7461 534.6652 656.7461 555.1752V695.3152C656.7461 715.8252 672.3661 730.9552 692.3861 730.9552Z"/>
</svg>