<?xml version="1.0" encoding="UTF-8" standalone="no"?>
<svg xmlns="http://www.w3.org/2000/svg"
     width="1231.979713739445" height="730.95703125"
     viewBox="0 0 1231.979713739445 730.95703125"
     fill="currentColor">
  <path d="M752.9053 126.9552C771.4553 126.9552 781.2253 122.5552 789.5253 107.4252C798.8053 90.8252 812.4753 67.3852 836.8853 30.2752C847.6353 14.1552 836.8853 -0.0048 820.2853 -0.0048H805.6353C791.9653 -0.0048 784.6453 2.4452 776.3453 11.2352C759.2553 28.8052 737.2753 56.1552 715.7953 88.3752C703.5853 106.4452 711.8853 126.9552 733.8653 126.9552ZM89.8153 730.9552C123.9953 730.9552 133.7653 713.3752 137.6753 690.9152C181.6153 447.7552 282.6853 249.0252 497.5353 30.2752C509.7453 17.5752 499.9753 -0.0048 485.3253 -0.0048H463.3553C451.1453 -0.0048 441.3853 2.4452 423.8053 16.6052C249.9753 153.8052 70.2853 369.6252 1.4353 687.0152C-3.9347 709.9652 5.3453 730.9552 35.6153 730.9552ZM1199.6853 730.9552C1227.0253 730.9552 1237.7653 711.4252 1228.9753 687.0152C1147.9253 471.6752 1131.8153 268.0652 1186.4953 28.8052C1190.8953 9.2752 1179.1753 -0.0048 1164.0353 -0.0048H1144.9953C1128.8853 -0.0048 1118.6253 5.3752 1113.7453 20.5052C1039.5253 248.0452 1043.4353 478.5152 1100.0753 702.1452C1103.9753 719.2352 1115.6953 730.9552 1140.6053 730.9552ZM662.0853 366.2152C683.0853 366.2152 692.3553 355.9552 697.2453 338.3752C702.1253 315.9152 710.9153 284.6652 721.6553 252.4452C729.9553 229.4952 716.7753 218.7452 698.2153 218.7452H668.4353C649.8753 218.7452 642.0653 224.6052 634.2553 240.2352C623.9953 264.1552 610.8153 297.8552 598.6053 332.0352C592.7453 350.5852 599.5853 366.2152 623.0253 366.2152ZM613.2553 730.9552C635.2253 730.9552 647.4353 720.2152 647.4353 696.7752C648.9053 621.5852 653.7853 549.8052 660.1353 500.9752C664.0353 472.6552 653.2953 464.3552 630.3453 464.3552H601.0453C583.4753 464.3552 570.7753 471.6752 565.8953 491.2152C552.2253 545.4052 543.9253 630.3752 541.9653 696.2852C541.4753 719.2352 552.7053 730.9552 574.6853 730.9552Z"/>
</svg>