<?xml version="1.0" encoding="UTF-8" standalone="no"?>
<svg xmlns="http://www.w3.org/2000/svg"
     width="1553.22265625" height="730.95703125"
     viewBox="0 0 1553.22265625 730.95703125"
     fill="currentColor">
  <path d="M205.5683 730.9552H269.5283C298.8283 730.9552 313.4783 716.7952 321.7783 695.8052L590.8183 30.2752C597.6583 14.1552 590.3283 -0.0048 573.2383 -0.0048H541.0183C524.4183 -0.0048 513.6683 8.3052 506.3483 22.9452L171.3883 676.7552C158.1983 701.6552 167.9683 730.9552 205.5683 730.9552ZM1283.6883 730.9552H1347.6583C1385.7383 730.9552 1395.0183 701.6552 1381.8383 676.7552L1047.3683 22.9452C1040.0383 8.3052 1028.8083 -0.0048 1012.2083 -0.0048H979.9783C962.8883 -0.0048 955.5683 14.1552 962.3983 30.2752L1231.9383 695.8052C1240.2383 716.7952 1254.3983 730.9552 1283.6883 730.9552ZM41.9883 403.3252L201.6583 306.1552C222.1683 293.4552 222.1683 269.5352 201.6583 256.3452L41.9883 158.6952C20.0183 145.5052 -0.0017 155.7652 -0.0017 181.1552V381.3452C-0.0017 407.2252 20.0183 416.5052 41.9883 403.3252ZM1511.2283 403.3252C1533.1983 416.5052 1553.2183 407.2252 1553.2183 381.3452V181.1552C1553.2183 155.7652 1533.1983 145.5052 1511.2283 158.6952L1351.5583 256.3452C1331.0583 269.5352 1331.0583 293.4552 1351.5583 306.1552Z"/>
</svg>