<?xml version="1.0" encoding="UTF-8" standalone="no"?>
<svg xmlns="http://www.w3.org/2000/svg"
     width="1036.62109375" height="997.0703125"
     viewBox="0 0 1036.62109375 997.0703125"
     fill="currentColor">
  <path d="M0.0034 39.0642C0.0034 60.5442 18.0634 78.6142 39.5534 78.6142H997.0734C1018.5534 78.6142 1036.6234 60.5442 1036.6234 39.0642C1036.6234 17.5742 1018.5534 0.0042 997.0734 0.0042H39.5534C18.0634 0.0042 0.0034 17.5742 0.0034 39.0642ZM39.5534 191.8942C57.6134 191.8942 72.7534 176.7542 72.7534 158.6942C72.7534 140.1342 57.6134 125.4842 39.5534 125.4842C20.9934 125.4842 5.8634 140.1342 5.8634 158.6942C5.8634 176.7542 20.9934 191.8942 39.5534 191.8942ZM167.4834 285.1542H961.9134C982.4234 285.1542 997.0734 270.5042 997.0734 250.0042V166.0142C997.0734 145.9942 982.4234 130.8642 961.9134 130.8642H167.4834C146.9734 130.8642 131.8334 145.9942 131.8334 166.0142V250.0042C131.8334 270.5042 146.9734 285.1542 167.4834 285.1542ZM39.5534 305.1742C57.6134 305.1742 72.7534 289.5542 72.7534 271.4842C72.7534 253.4142 57.6134 238.2842 39.5534 238.2842C20.9934 238.2842 5.8634 253.4142 5.8634 271.4842C5.8634 289.5542 20.9934 305.1742 39.5534 305.1742ZM39.5534 417.9642C57.6134 417.9642 72.7534 402.8342 72.7534 384.7642C72.7534 366.2142 57.6134 351.5642 39.5534 351.5642C20.9934 351.5642 5.8634 366.2142 5.8634 384.7642C5.8634 402.8342 20.9934 417.9642 39.5534 417.9642ZM214.3534 496.0942H914.5534C935.0634 496.0942 950.1934 480.9542 950.1934 460.9342V351.5642H179.2034V460.9342C179.2034 480.9542 193.8434 496.0942 214.3534 496.0942ZM39.5534 531.2542C57.6134 531.2542 72.7534 515.6242 72.7534 497.5542C72.7534 479.4942 57.6134 464.3542 39.5534 464.3542C20.9934 464.3542 5.8634 479.4942 5.8634 497.5542C5.8634 515.6242 20.9934 531.2542 39.5534 531.2542ZM39.5534 644.0442C57.6134 644.0442 72.7534 628.9042 72.7534 610.8442C72.7534 592.2842 57.6134 577.6342 39.5534 577.6342C20.9934 577.6342 5.8634 592.2842 5.8634 610.8442C5.8634 628.9042 20.9934 644.0442 39.5534 644.0442ZM39.5534 757.3242C57.6134 757.3242 72.7534 741.6942 72.7534 723.6342C72.7534 705.5642 57.6134 690.4342 39.5534 690.4342C20.9934 690.4342 5.8634 705.5642 5.8634 723.6342C5.8634 741.6942 20.9934 757.3242 39.5534 757.3242ZM39.5534 997.0742C60.5434 997.0742 78.6134 979.4942 78.6134 958.0042V842.7742C78.6134 821.2842 61.0334 803.7142 39.5534 803.7142C18.0634 803.7142 0.0034 821.2842 0.0034 842.7742V958.0042C0.0034 979.4942 18.0634 997.0742 39.5534 997.0742Z"/>
</svg>