<?xml version="1.0" encoding="UTF-8" standalone="no"?>
<svg xmlns="http://www.w3.org/2000/svg"
     width="1036.62109375" height="997.0703125"
     viewBox="0 0 1036.62109375 997.0703125"
     fill="currentColor">
  <path d="M0.0034 39.0642C0.0034 60.5442 18.0634 78.6142 39.5534 78.6142H997.0734C1018.5534 78.6142 1036.6234 60.5442 1036.6234 39.0642C1036.6234 17.5742 1018.5534 0.0042 997.0734 0.0042H39.5534C18.0634 0.0042 0.0034 17.5742 0.0034 39.0642ZM39.5534 191.8942C57.6134 191.8942 72.7534 176.7542 72.7534 158.6942C72.7534 140.1342 57.6134 125.4842 39.5534 125.4842C20.9934 125.4842 5.8634 140.1342 5.8634 158.6942C5.8634 176.7542 20.9934 191.8942 39.5534 191.8942ZM167.4834 375.4842H961.9134C982.4234 375.4842 997.0734 360.8442 997.0734 340.3342V166.0142C997.0734 145.9942 982.4234 130.8642 961.9134 130.8642H167.4834C146.9734 130.8642 131.8334 145.9942 131.8334 166.0142V340.3342C131.8334 360.8442 146.9734 375.4842 167.4834 375.4842ZM39.5534 305.1742C57.6134 305.1742 72.7534 289.5542 72.7534 271.4842C72.7534 253.4142 57.6134 238.2842 39.5534 238.2842C20.9934 238.2842 5.8634 253.4142 5.8634 271.4842C5.8634 289.5542 20.9934 305.1742 39.5534 305.1742ZM39.5534 417.9642C57.6134 417.9642 72.7534 402.8342 72.7534 384.7642C72.7534 366.2142 57.6134 351.5642 39.5534 351.5642C20.9934 351.5642 5.8634 366.2142 5.8634 384.7642C5.8634 402.8342 20.9934 417.9642 39.5534 417.9642ZM167.4834 686.5242H961.9134C982.4234 686.5242 997.0734 671.3842 997.0734 651.3642V477.0542C997.0734 456.5442 982.4234 441.8942 961.9134 441.8942H167.4834C146.9734 441.8942 131.8334 456.5442 131.8334 477.0542V651.3642C131.8334 671.3842 146.9734 686.5242 167.4834 686.5242ZM39.5534 657.7142C60.5434 657.7142 78.6134 640.1342 78.6134 618.6542V503.9042C78.6134 482.4242 61.0334 464.3542 39.5534 464.3542C18.0634 464.3542 0.0034 482.4242 0.0034 503.9042V618.6542C0.0034 640.1342 18.0634 657.7142 39.5534 657.7142ZM167.4834 997.0742H961.9134C982.4234 997.0742 997.0734 982.4242 997.0734 962.4042V787.5942C997.0734 767.5742 982.4234 752.9342 961.9134 752.9342H167.4834C146.9734 752.9342 131.8334 767.5742 131.8334 787.5942V962.4042C131.8334 982.4242 146.9734 997.0742 167.4834 997.0742Z"/>
</svg>