<?xml version="1.0" encoding="UTF-8" standalone="no"?>
<svg xmlns="http://www.w3.org/2000/svg"
     width="776.3682023047793" height="1090.33203125"
     viewBox="0 0 776.3682023047793 1090.33203125"
     fill="currentColor">
  <path d="M-0.0017 390.1355C-0.0017 504.8855 50.7783 608.8855 130.8583 680.1755L131.3483 1048.8255C131.3483 1078.1255 146.4883 1090.3355 166.5083 1090.3355C183.5983 1090.3355 196.2883 1080.5655 209.4683 1067.3855L368.1683 909.1755C376.9483 901.3655 382.8083 898.4355 388.6683 898.4355C394.5283 898.4355 400.8783 901.3655 409.1783 909.1755L567.8683 1067.3855C581.5383 1081.0555 594.7283 1090.3355 610.8383 1090.3355C631.8383 1090.3355 646.4883 1078.1255 646.4883 1048.8255V678.7155C725.5883 607.9055 775.8783 504.3955 776.3683 390.1355C776.8583 175.2955 601.0783 -0.0045 388.1883 -0.0045C174.8083 -0.0045 -0.0017 175.2955 -0.0017 390.1355ZM79.5883 390.1355C79.5883 216.7955 214.8483 77.6355 388.6683 77.6355C562.0083 77.6355 697.2683 216.7955 697.7583 390.1355C698.2383 562.9855 562.0083 702.1455 388.6683 701.6555C214.8483 701.1755 79.5883 562.9855 79.5883 390.1355Z"/>
</svg>