<?xml version="1.0" encoding="UTF-8" standalone="no"?>
<svg xmlns="http://www.w3.org/2000/svg"
     width="978.515625" height="1077.1836523943603"
     viewBox="0 0 978.515625 1077.1836523943603"
     fill="currentColor">
  <path d="M947.7583 436.5574C964.3583 436.5574 978.5183 422.8874 978.5183 406.2874V333.0474C978.5183 193.3974 885.2583 99.1574 745.1183 99.1574H734.8683V34.7074C734.8683 -1.4326 707.5183 -9.2426 680.1783 10.7774L557.1283 101.1074C536.1283 116.2474 536.1283 133.8274 557.1283 148.9574L680.1783 238.8074C707.5183 258.8274 734.8683 250.5274 734.8683 215.3674V155.7974H744.6283C850.5883 155.7974 917.4783 229.0374 917.4783 333.5274V406.2874C917.4783 422.8874 931.1483 436.5574 947.7583 436.5574ZM125.4883 1077.1874H609.3783C692.8683 1077.1874 734.8683 1037.1474 734.8683 951.6974V468.7874C734.8683 383.3374 692.8683 343.2974 609.3783 343.2974H125.4883C41.9883 343.2974 -0.0017 383.3374 -0.0017 468.7874V951.6974C-0.0017 1037.1474 41.9883 1077.1874 125.4883 1077.1874Z"/>
</svg>