<?xml version="1.0" encoding="UTF-8" standalone="no"?>
<svg xmlns="http://www.w3.org/2000/svg"
     width="898.92578125" height="898.92578125"
     viewBox="0 0 898.92578125 898.92578125"
     fill="currentColor">
  <path d="M153.3183 898.9295H745.6083C848.1483 898.9295 898.9283 848.1495 898.9283 747.5595V151.3695C898.9283 50.7795 848.1483 -0.0005 745.6083 -0.0005H153.3183C51.2683 -0.0005 -0.0017 50.2895 -0.0017 151.3695V747.5595C-0.0017 848.6295 51.2683 898.9295 153.3183 898.9295ZM364.7483 700.6795C345.2183 700.6795 331.5383 687.0095 331.5383 667.4795V616.6995H287.1083C272.4583 616.6995 262.6983 606.4495 262.6983 591.7995C262.6983 577.6395 272.4583 566.8895 287.1083 566.8895H331.5383V518.0695H286.6183C271.9683 518.0695 261.7183 506.8395 261.7183 492.6795C261.7183 478.5195 271.9683 467.7695 286.6183 467.7695H331.5383V251.4695C331.5383 231.4495 344.2383 217.7695 364.2583 217.7695H483.8883C577.6383 217.7695 636.7183 281.2495 636.7183 367.6795C636.7183 455.0795 577.1483 517.5795 483.3983 517.5795H397.4583V566.8895H514.6483C529.2983 566.8895 539.0583 577.6395 539.0583 591.7995C539.0583 606.4495 529.2983 616.6995 514.6483 616.6995H397.4583V667.4795C397.4583 687.0095 383.7883 700.6795 364.7483 700.6795ZM397.9483 458.4995L472.1683 459.4695C536.6183 459.4695 570.3083 424.3195 570.3083 368.1595C570.3083 312.9895 537.1083 278.3195 472.1683 278.3195H397.9483Z"/>
</svg>