<?xml version="1.0" encoding="UTF-8" standalone="no"?>
<svg xmlns="http://www.w3.org/2000/svg"
     width="996.09375" height="996.09375"
     viewBox="0 0 996.09375 996.09375"
     fill="currentColor">
  <path d="M498.0477 996.0959C770.5077 996.0959 996.0977 770.0159 996.0977 498.0459C996.0977 225.5859 770.0177 -0.0041 497.5577 -0.0041C225.5877 -0.0041 -0.0023 225.5859 -0.0023 498.0459C-0.0023 770.0159 226.0777 996.0959 498.0477 996.0959ZM498.0477 913.0859C267.5777 913.0859 83.4977 728.5159 83.4977 498.0459C83.4977 267.5759 267.0877 83.0059 497.5577 83.0059C728.0277 83.0059 913.0877 267.5759 913.0877 498.0459C913.0877 728.5159 728.5177 913.0859 498.0477 913.0859ZM415.0377 742.1859C433.5977 742.1859 446.2877 729.0059 446.2877 709.9559V660.6459H560.5477C574.7077 660.6459 583.9877 650.3859 583.9877 636.2259C583.9877 622.5559 574.7077 612.3059 560.5477 612.3059H446.2877V564.4559H529.7877C621.0977 564.4559 678.7077 503.9059 678.7077 419.4359C678.7077 335.4459 621.5777 273.9259 530.2777 273.9259H414.5477C395.5077 273.9259 382.8077 287.1059 382.8077 306.6359V516.6059H339.3577C324.7077 516.6059 315.4277 526.8559 315.4277 540.5259C315.4277 554.1959 324.7077 564.9459 339.3577 564.9459H382.8077V612.3059H339.8477C325.6877 612.3059 315.9177 622.5559 315.9177 636.2259C315.9177 650.3859 325.6877 660.6459 339.8477 660.6459H382.8077V709.9559C382.8077 729.0059 396.4877 742.1859 415.0377 742.1859ZM446.7777 507.3259V332.5159H519.0477C582.5177 332.5159 614.7477 366.2059 614.7477 419.9259C614.7477 474.1259 582.0277 508.2959 519.0477 508.2959Z"/>
</svg>