<?xml version="1.0" encoding="UTF-8" standalone="no"?>
<svg xmlns="http://www.w3.org/2000/svg"
     width="1194.3359375" height="529.296875"
     viewBox="0 0 1194.3359375 529.296875"
     fill="currentColor">
  <path d="M1194.3383 131.3492C1194.3383 44.9192 1149.4183 -0.0008 1062.0083 -0.0008H132.3283C44.9183 -0.0008 -0.0017 44.4292 -0.0017 131.3492V397.9492C-0.0017 484.3792 45.4083 529.2992 132.8083 529.2992H1062.0083C1149.8983 529.2992 1194.3383 484.3792 1194.3383 397.9492ZM145.0183 80.5692V308.1092C145.0183 319.3392 137.2083 328.1292 125.4883 328.1292C114.2583 328.1292 105.4683 319.8192 105.4683 308.5892V80.5692ZM239.7483 80.5692V222.1692C239.7483 233.8892 231.9383 242.1892 219.7283 242.1892C208.9883 242.1892 200.1983 234.3792 200.1983 222.6592V80.5692ZM334.4683 80.5692V222.1692C334.4683 233.8892 326.1683 242.1892 314.4483 242.1892C303.7083 242.1892 294.9183 234.3792 294.9183 222.6592V80.5692ZM428.2183 80.5692V222.1692C428.2183 233.8892 420.4083 242.1892 408.6883 242.1892C397.4583 242.1892 388.6683 234.3792 388.6683 222.6592V80.5692ZM522.9483 80.5692V222.1692C522.9483 233.8892 515.1383 242.1892 502.9283 242.1892C492.1883 242.1892 483.3983 234.3792 483.3983 222.6592V80.5692ZM617.1883 80.5692V308.1092C617.1883 319.3392 609.3783 328.1292 597.1683 328.1292C586.4283 328.1292 577.6383 319.8192 577.6383 308.5892V80.5692ZM711.9183 80.5692V222.1692C711.9183 233.8892 703.6183 242.1892 691.8983 242.1892C681.1483 242.1892 672.3683 234.3792 672.3683 222.6592V80.5692ZM806.1483 80.5692V222.1692C806.1483 233.8892 798.3383 242.1892 786.6183 242.1892C775.3883 242.1892 766.5983 234.3792 766.5983 222.6592V80.5692ZM900.3883 80.5692V222.1692C900.3883 233.8892 892.5783 242.1892 880.3683 242.1892C869.6283 242.1892 860.8383 234.3792 860.8383 222.6592V80.5692ZM995.1183 80.5692V222.1692C995.1183 233.8892 986.8183 242.1892 975.0983 242.1892C964.3583 242.1892 955.5683 234.3792 955.5683 222.6592V80.5692ZM1088.8683 80.5692V308.1092C1088.8683 319.3392 1081.0583 328.1292 1069.3383 328.1292C1058.1083 328.1292 1049.3183 319.8192 1049.3183 308.5892V80.5692Z"/>
</svg>