<?xml version="1.0" encoding="UTF-8" standalone="no"?>
<svg xmlns="http://www.w3.org/2000/svg"
     width="1194.3359375" height="529.296875"
     viewBox="0 0 1194.3359375 529.296875"
     fill="currentColor">
  <path d="M1194.3383 131.3492C1194.3383 44.9192 1148.9283 -0.0008 1061.5283 -0.0008H131.8383C44.4383 -0.0008 -0.0017 44.9192 -0.0017 131.3492V397.9492C-0.0017 484.3792 44.9183 529.2992 132.3283 529.2992H1062.0083C1149.4183 529.2992 1194.3383 484.3792 1194.3383 397.9492ZM1115.2383 145.5092V383.7892C1115.2383 427.7392 1091.7983 450.6792 1049.3183 450.6792H144.0383C102.5383 450.6792 78.6183 427.7392 78.6183 383.7892V145.5092C78.6183 101.5592 102.5383 78.6092 144.5283 78.6092H146.9683V308.5892C146.9683 319.8192 155.7583 328.1292 166.9883 328.1292C178.7083 328.1292 186.5283 319.3392 186.5283 308.1092V78.6092H233.3983V222.6592C233.3983 234.3792 242.1883 242.1892 252.9283 242.1892C265.1383 242.1892 272.9483 233.8892 272.9483 222.1692V78.6092H318.8483V222.6592C318.8483 234.3792 328.1283 242.1892 338.8683 242.1892C350.5883 242.1892 358.8883 233.8892 358.8883 222.1692V78.6092H404.7883V222.6592C404.7883 234.3792 413.5783 242.1892 424.8083 242.1892C436.5283 242.1892 444.3383 233.8892 444.3383 222.1692V78.6092H491.2083V222.6592C491.2083 234.3792 499.9983 242.1892 510.7383 242.1892C522.9483 242.1892 530.7583 233.8892 530.7583 222.1692V78.6092H577.6383V308.5892C577.6383 319.8192 586.4283 328.1292 597.1683 328.1292C609.3783 328.1292 617.1883 319.3392 617.1883 308.1092V78.6092H663.5783V222.6592C663.5783 234.3792 672.3683 242.1892 683.1083 242.1892C694.8283 242.1892 703.1283 233.8892 703.1283 222.1692V78.6092H749.5083V222.6592C749.5083 234.3792 758.2983 242.1892 769.5283 242.1892C781.2483 242.1892 789.0583 233.8892 789.0583 222.1692V78.6092H835.4483V222.6592C835.4483 234.3792 844.2383 242.1892 854.9783 242.1892C867.1883 242.1892 874.9983 233.8892 874.9983 222.1692V78.6092H921.8783V222.6592C921.8783 234.3792 930.6683 242.1892 941.4083 242.1892C953.1283 242.1892 961.4283 233.8892 961.4283 222.1692V78.6092H1007.8083V308.5892C1007.8083 319.8192 1016.5983 328.1292 1027.8283 328.1292C1039.5483 328.1292 1047.3683 319.3392 1047.3683 308.1092V78.6092H1049.8083C1091.7983 78.6092 1115.2383 101.5592 1115.2383 145.5092Z"/>
</svg>