<?xml version="1.0" encoding="UTF-8" standalone="no"?>
<svg xmlns="http://www.w3.org/2000/svg"
     width="996.09375" height="996.09375"
     viewBox="0 0 996.09375 996.09375"
     fill="currentColor">
  <path d="M498.0477 996.0959C770.5077 996.0959 996.0977 770.0159 996.0977 498.0459C996.0977 225.5859 770.0177 -0.0041 497.5577 -0.0041C225.5877 -0.0041 -0.0023 225.5859 -0.0023 498.0459C-0.0023 770.0159 226.0777 996.0959 498.0477 996.0959ZM498.0477 913.0859C267.5777 913.0859 83.4977 728.5159 83.4977 498.0459C83.4977 267.5759 267.0877 83.0059 497.5577 83.0059C728.0277 83.0059 913.0877 267.5759 913.0877 498.0459C913.0877 728.5159 728.5177 913.0859 498.0477 913.0859ZM348.1477 741.6959C364.7477 741.6959 376.4677 729.9759 376.4677 710.4459V544.9259H398.9277L459.4777 721.6759C464.8477 736.8159 474.1177 741.6959 486.8177 741.6959C502.4377 741.6959 513.6677 729.4959 513.6677 713.3759C513.6677 707.0359 512.6977 702.1459 509.7677 694.8259L453.1277 533.2059C492.1877 513.1859 514.1577 462.8859 514.1577 404.7859C514.1577 312.9859 478.0277 268.0659 406.7377 268.0659H349.1177C332.0277 268.0659 320.7977 280.2759 320.7977 300.2959V708.9859C320.7977 729.0059 331.5477 741.6959 348.1477 741.6959ZM376.4677 489.2559V324.2159H402.8277C440.4277 324.2159 457.5177 352.0459 457.5177 406.2459C457.5177 461.4259 440.4277 489.2559 401.3677 489.2559ZM619.1377 742.1859C673.3377 742.1859 708.9877 703.1259 708.9877 642.5759C708.9877 593.7459 691.8977 564.9459 644.5277 539.0659L625.9777 528.8059C600.0977 514.6459 589.3577 500.4859 589.3577 477.0459C589.3577 450.6859 599.6077 435.0559 618.6477 435.0559C641.5977 435.0559 647.9477 451.6559 650.8777 483.3959C652.3477 502.4459 660.6477 514.1559 677.2477 514.1559C694.3377 514.1559 704.0977 501.9559 704.0977 482.4259C704.0977 477.5359 703.6177 473.1459 703.1277 468.2659C698.2377 419.4359 669.4377 381.8359 619.1377 381.8359C568.3577 381.8359 534.1777 420.4059 534.1777 479.0059C534.1777 525.8759 553.2277 557.1259 598.6377 581.0559L618.1677 591.3059C643.0677 604.0059 653.3177 620.6059 653.3177 646.4859C653.3177 674.8059 641.5977 689.9459 619.1377 689.9459C596.1877 689.9459 585.4477 671.3859 583.4977 641.1159C582.0277 621.5859 572.2677 610.3559 556.1477 610.3559C539.5477 610.3559 529.7877 622.5559 529.7877 642.0859C529.7877 647.9459 529.7877 653.3159 530.7577 658.6959C536.6177 708.4959 568.3577 742.1859 619.1377 742.1859Z"/>
</svg>