<?xml version="1.0" encoding="UTF-8" standalone="no"?>
<svg xmlns="http://www.w3.org/2000/svg"
     width="1077.63671875" height="885.7421875"
     viewBox="0 0 1077.63671875 885.7421875"
     fill="currentColor">
  <path d="M44.9183 885.2531C72.7583 885.2531 90.3283 866.7031 90.3283 838.3831V515.6231H235.8383C241.6983 515.6231 248.5383 515.1331 254.3983 515.1331L444.3383 855.9531C456.5383 877.9331 468.2583 885.7431 489.7483 885.7431C516.1183 885.7431 534.6683 867.6731 534.6683 843.7531C534.6683 833.4931 532.2283 824.2231 525.3883 811.5231L348.1483 500.9731C462.3983 468.7531 530.7583 376.9531 530.7583 254.3931C530.7583 99.1231 421.8783 0.0031 253.4183 0.0031H46.3883C17.5783 0.0031 -0.0017 18.5531 -0.0017 48.3431V838.3831C-0.0017 867.1831 17.5783 885.2531 44.9183 885.2531ZM90.3283 435.0631V81.0531H241.6983C364.2583 81.0531 437.0083 145.9931 437.0083 257.3231C437.0083 370.1131 366.6983 435.0631 245.6083 435.0631ZM841.3083 875.0031C978.0283 875.0031 1077.6383 799.3131 1077.6383 691.8931C1077.6383 603.0231 1031.7383 554.6831 906.7383 524.4131L812.0083 500.9731C733.3983 481.9331 699.7083 451.1731 699.7083 402.3431C699.7083 342.2831 754.8783 299.8031 836.9183 299.8031C907.2283 299.8031 953.6183 332.0331 978.5183 395.0231C987.7883 414.0631 1000.9783 420.9031 1019.0383 420.9031C1040.5283 420.9031 1054.6883 406.7431 1054.6883 385.2531C1054.6883 380.8631 1054.1983 375.4931 1053.2183 369.6331C1036.1283 286.1331 950.6883 227.0531 836.9183 227.0531C705.5683 227.0531 613.2783 302.7331 613.2783 407.2231C613.2783 495.1131 668.9483 548.3431 786.6183 576.1731L881.3483 599.1231C961.4283 618.1631 989.7483 646.9731 989.7483 698.7331C989.7483 761.2331 931.6383 802.2431 841.3083 802.2431C756.3483 802.2431 706.5383 765.6231 683.1083 703.6131C674.8083 687.5031 663.0883 676.7531 644.0383 676.7531C621.0983 676.7531 606.9383 691.4031 606.4483 712.8931C606.4483 718.2631 606.9383 721.1931 607.9083 726.5631C623.5383 810.0631 708.0083 875.0031 841.3083 875.0031Z"/>
</svg>