<?xml version="1.0" encoding="UTF-8" standalone="no"?>
<svg xmlns="http://www.w3.org/2000/svg"
     width="898.92578125" height="898.92578125"
     viewBox="0 0 898.92578125 898.92578125"
     fill="currentColor">
  <path d="M153.3183 898.9295H745.6083C848.1483 898.9295 898.9283 848.1495 898.9283 747.5595V151.3695C898.9283 50.7795 848.1483 -0.0005 745.6083 -0.0005H153.3183C51.2683 -0.0005 -0.0017 50.2895 -0.0017 151.3695V747.5595C-0.0017 848.6295 51.2683 898.9295 153.3183 898.9295ZM295.4083 700.1995C278.3183 700.1995 267.0883 687.0095 267.0883 666.0195V244.6295C267.0883 223.6295 278.8083 210.9395 296.8783 210.9395H355.9583C429.6883 210.9395 466.7983 257.3195 466.7983 352.0495C466.7983 412.1095 444.3383 464.3595 403.8083 484.8595L462.8883 651.3695C465.3283 659.1795 466.3083 664.0595 466.3083 670.8995C466.3083 687.4995 455.0783 700.1995 438.4783 700.1995C425.2883 700.1995 415.5283 694.8195 410.1583 679.1995L347.6583 497.0695H324.7083V667.4795C324.7083 687.9895 312.4983 700.1995 295.4083 700.1995ZM324.7083 439.4495H350.0983C390.6283 439.4495 408.1983 410.6395 408.1983 353.9995C408.1983 297.8495 390.6283 269.0395 352.0483 269.0395H324.7083ZM575.1983 700.6795C522.4583 700.6795 489.7483 665.5295 483.8883 614.2595C482.9083 608.8895 482.9083 603.0295 482.9083 597.1695C482.9083 577.1495 493.1683 564.4495 510.7383 564.4495C527.3483 564.4495 537.1083 576.1695 538.5783 596.1895C541.0183 627.4395 551.7583 646.4795 575.6883 646.4795C598.1483 646.4795 610.3483 630.8595 610.3483 601.5595C610.3483 575.1995 599.6083 558.1095 574.2183 544.9195L554.1983 534.1795C507.3283 509.7695 487.7883 477.5395 487.7883 428.7095C487.7883 368.6495 522.9483 328.6095 575.1983 328.6095C627.4383 328.6095 656.7383 367.1895 662.1083 417.4795C662.5983 422.8495 663.0883 427.2495 663.0883 432.6195C663.0883 452.6395 652.8283 465.3295 635.2583 465.3295C618.1683 465.3295 609.3783 453.1295 607.9083 433.5895C604.9783 400.8795 598.1483 383.7895 574.7083 383.7895C555.1783 383.7895 544.4383 399.8995 544.4383 426.7595C544.4383 451.1695 555.6683 465.8195 582.5183 479.9795L602.0483 490.7195C650.3883 517.5795 667.9683 547.3595 667.9683 597.6595C667.9683 660.1595 631.3483 700.6795 575.1983 700.6795Z"/>
</svg>