<?xml version="1.0" encoding="UTF-8" standalone="no"?>
<svg xmlns="http://www.w3.org/2000/svg"
     width="996.09375" height="996.09375"
     viewBox="0 0 996.09375 996.09375"
     fill="currentColor">
  <path d="M498.0477 996.0959C770.5077 996.0959 996.0977 770.0159 996.0977 498.0459C996.0977 225.5859 770.0177 -0.0041 497.5577 -0.0041C225.5877 -0.0041 -0.0023 225.5859 -0.0023 498.0459C-0.0023 770.0159 226.0777 996.0959 498.0477 996.0959ZM493.1677 734.3759C401.3677 734.3759 340.3277 689.9459 322.2677 642.0859C317.8677 632.8159 316.4077 624.5159 316.4077 616.6959C316.4077 594.7259 330.5677 580.5659 353.0277 580.5659C371.0977 580.5659 381.8377 589.3559 391.1177 607.9059C408.6877 647.9459 445.3077 668.4559 498.0477 668.4559C553.2277 668.4559 595.7077 644.0459 595.7077 599.6059C595.7077 564.4559 575.1977 549.3159 515.6277 532.7159L442.3877 511.7159C364.2577 490.2359 323.2377 454.1059 323.2377 390.6259C323.2377 310.0559 395.0177 252.9259 498.0477 252.9259C583.4977 252.9259 644.0477 291.9959 662.5977 345.7059C666.5077 354.4959 667.9677 363.2859 667.9677 369.6259C667.9677 393.0659 652.8277 404.7859 631.8377 404.7859C612.7977 404.7859 602.0477 395.5059 594.7277 378.9059C577.6377 336.9159 545.8977 316.8959 495.1177 316.8959C441.8977 316.8959 407.2277 343.7459 407.2277 385.7459C407.2277 416.5059 427.2477 435.0559 475.5877 447.7559L542.9677 465.8159C631.3477 489.2559 680.1777 526.3659 680.1777 592.7759C680.1777 679.6859 605.9577 734.3759 493.1677 734.3759Z"/>
</svg>