<?xml version="1.0" encoding="UTF-8" standalone="no"?>
<svg xmlns="http://www.w3.org/2000/svg"
     width="996.09375" height="996.09375"
     viewBox="0 0 996.09375 996.09375"
     fill="currentColor">
  <path d="M498.0477 996.0959C770.5077 996.0959 996.0977 770.0159 996.0977 498.0459C996.0977 225.5859 770.0177 -0.0041 497.5577 -0.0041C225.5877 -0.0041 -0.0023 225.5859 -0.0023 498.0459C-0.0023 770.0159 226.0777 996.0959 498.0477 996.0959ZM498.0477 913.0859C267.5777 913.0859 83.4977 728.5159 83.4977 498.0459C83.4977 267.5759 267.0877 83.0059 497.5577 83.0059C728.0277 83.0059 913.0877 267.5759 913.0877 498.0459C913.0877 728.5159 728.5177 913.0859 498.0477 913.0859ZM293.4577 744.1359L573.7277 607.4259C589.3577 599.6059 600.0977 588.8659 607.9077 573.7259L744.1377 293.9459C759.7677 260.7459 735.8377 234.8659 701.6577 251.9559L422.3677 388.1859C407.2277 395.0159 396.9777 405.2759 388.6677 421.8759L251.4677 702.1459C235.8377 734.3759 261.2277 759.7659 293.4577 744.1359ZM498.0477 558.1059C464.8477 558.1059 438.4777 531.2459 438.4777 498.5359C438.4777 465.3359 464.8477 438.4759 498.0477 438.4759C531.2477 438.4759 558.1077 465.3359 558.1077 498.5359C558.1077 531.2459 531.2477 558.1059 498.0477 558.1059Z"/>
</svg>