<?xml version="1.0" encoding="UTF-8" standalone="no"?>
<svg xmlns="http://www.w3.org/2000/svg"
     width="1121.0776895500258" height="1248.046875"
     viewBox="0 0 1121.0776895500258 1248.046875"
     fill="currentColor">
  <path d="M4.1071 995.1213L46.0971 1139.1613C50.4871 1154.3013 56.3471 1166.9913 63.1871 1177.7313C55.8671 1178.7113 48.5371 1179.2013 40.7271 1179.2013H38.2871C19.2371 1179.2013 3.6171 1194.3313 3.6171 1213.3813C3.6171 1232.4212 19.2371 1248.0513 38.2871 1248.0513H40.7271C193.0671 1248.0513 205.7671 1148.9212 284.8671 1148.9212C362.5071 1148.9212 383.4971 1248.0513 516.7971 1248.0513C650.0971 1248.0513 671.0971 1148.9212 748.7371 1148.9212C827.8371 1148.9212 840.5271 1248.0513 992.8771 1248.0513H1042.6771C1061.7171 1248.0513 1076.8571 1232.4212 1076.8571 1213.3813C1076.8571 1194.3313 1061.7171 1179.2013 1042.6771 1179.2013H992.8771C979.2071 1179.2013 966.9971 1177.7313 955.7671 1174.8013C970.4171 1160.6413 984.0871 1144.0413 999.7071 1125.9813L1105.1771 1004.8813C1139.8471 964.3513 1114.9471 910.1513 1058.3071 910.1513H534.3771V783.2013H706.7371C853.7171 783.2013 935.7471 708.0113 935.7471 586.4213C935.7471 384.2813 731.1571 157.2313 534.3771 49.3212V33.2012C534.3771 15.1413 519.7271 0.0013 501.6671 0.0013C483.5971 0.0013 468.4571 15.1413 468.4571 33.2012V63.4813C465.0471 231.4412 313.6771 532.7113 94.9271 691.4013C47.0771 726.0713 73.9271 783.2013 121.7771 783.2013H468.4571V910.1513H65.6271C12.8971 910.1513 -10.0529 946.2913 4.1071 995.1213ZM534.3771 123.0512C538.7771 125.4913 543.1671 127.9312 547.5571 130.8613C697.9571 346.1912 663.7771 605.9613 534.3771 703.6112ZM869.8271 576.1713C869.8271 661.1313 809.7671 716.8013 707.7171 716.8013H607.6171C720.4171 602.5413 743.3671 400.8813 653.0271 207.0313C769.2371 307.1313 869.8271 448.2413 869.8271 576.1713ZM185.2571 716.8013C179.3971 716.8013 177.4471 710.9413 181.8371 707.5213C295.6071 622.0713 403.5171 460.4513 468.4571 303.2213V716.8013ZM412.7971 1133.7913C381.0571 1109.8613 341.0171 1080.0813 284.8671 1080.0813C230.6671 1080.0813 191.1171 1108.4012 159.3771 1131.3513C150.0971 1137.6913 141.7971 1144.0413 133.0071 1149.4113C120.3171 1142.0913 111.5271 1129.3913 106.1571 1110.8413L73.4371 989.7413C70.9971 981.9313 73.9271 976.5613 82.2271 976.5613H1029.9871C1038.2871 976.5613 1040.7271 983.4013 1034.8671 989.7413L929.3971 1110.3513C917.6771 1123.5313 907.4271 1135.2513 891.7971 1143.5513C885.9371 1139.6512 880.0771 1135.7413 874.2171 1131.3513C842.4871 1108.4012 802.9371 1080.0813 748.7371 1080.0813C692.5771 1080.0813 652.5471 1109.8613 620.8071 1133.7913C587.1171 1159.1813 560.7471 1179.2013 516.7971 1179.2013C472.8571 1179.2013 446.4871 1159.1813 412.7971 1133.7913Z"/>
</svg>