<?xml version="1.0" encoding="UTF-8" standalone="no"?>
<svg xmlns="http://www.w3.org/2000/svg"
     width="996.09375" height="996.09375"
     viewBox="0 0 996.09375 996.09375"
     fill="currentColor">
  <path d="M498.0477 996.0959C770.5077 996.0959 996.0977 770.0159 996.0977 498.0459C996.0977 225.5859 770.0177 -0.0041 497.5577 -0.0041C225.5877 -0.0041 -0.0023 225.5859 -0.0023 498.0459C-0.0023 770.0159 226.0777 996.0959 498.0477 996.0959ZM498.0477 913.0859C267.5777 913.0859 83.4977 728.5159 83.4977 498.0459C83.4977 267.5759 267.0877 83.0059 497.5577 83.0059C728.0277 83.0059 913.0877 267.5759 913.0877 498.0459C913.0877 728.5159 728.5177 913.0859 498.0477 913.0859ZM315.4277 765.1359H652.8277C669.4377 765.1359 681.6377 759.7659 692.3877 747.5559L767.0877 663.0859C783.6877 644.5359 771.4877 618.1659 745.1177 618.1659H514.6477V556.6359H587.8877C659.6677 556.6359 703.1277 518.0659 703.1277 456.0559C703.1277 366.6959 610.8377 263.1859 514.6477 209.9559V186.0359C514.6477 173.8259 504.8877 164.0659 492.1877 164.0659C479.9777 164.0659 470.2177 173.8259 470.2177 186.0359V206.0559C470.2177 287.5959 395.9977 434.5659 289.0577 511.7159C266.1177 528.8059 278.8077 556.6359 301.7577 556.6359H470.2177V618.1659H270.9977C248.0477 618.1659 236.3277 634.7659 243.6477 658.6959L264.6477 730.9559C270.9977 752.4459 287.1077 765.1359 315.4277 765.1359ZM514.1577 515.1359V256.3459C543.9477 285.1559 568.3577 343.2659 568.3577 400.3859C568.3577 444.3359 551.2677 489.2559 514.1577 515.1359Z"/>
</svg>