<?xml version="1.0" encoding="UTF-8" standalone="no"?>
<svg xmlns="http://www.w3.org/2000/svg"
     width="1021.484375" height="924.3214795061954"
     viewBox="0 0 1021.484375 924.3214795061954"
     fill="currentColor">
  <path d="M0.9806 815.9197C0.9806 835.9397 9.2806 850.5897 26.8506 860.3497L124.5106 917.4797C137.2106 925.2897 146.0006 926.7597 163.0906 916.9897L258.3006 861.8197C275.8806 852.0497 279.3006 843.7497 278.8106 827.6397L279.3006 755.8597L512.2106 638.6697L742.1906 754.3897L742.6806 828.1297C742.1906 844.2397 745.6006 852.5397 763.1806 862.3097L858.4006 917.4797C875.4906 927.2497 884.2806 925.7797 896.9706 917.9697L994.6306 860.8397C1012.2106 851.0697 1020.5106 836.4297 1020.5106 816.4097L1021.4806 703.1297C1021.4806 689.4497 1019.0406 679.6897 1002.4406 670.4097L905.7606 614.2597C889.1606 604.9797 878.4206 607.4197 865.7206 614.2597L767.5806 671.3897C765.1406 672.8497 762.6906 674.3197 760.7406 676.2697L551.7606 571.2897V290.0397L634.2806 242.6797C647.9506 234.8597 653.8106 227.5397 653.8106 207.5197V97.1697C653.8106 77.6397 647.9506 70.7997 635.2506 63.4797L536.6206 7.3197C519.0406 -2.4403 502.4406 -2.4403 485.3506 7.3197L386.7206 63.4797C374.5106 70.3097 367.6806 77.6397 367.6806 97.1697V207.5197C367.6806 227.5397 375.0006 235.3497 387.6906 242.6797L473.1406 291.4997V571.2897L262.6906 676.7597C259.7706 674.7997 257.3206 672.8497 253.9106 670.8997L155.7606 613.7697C143.0706 606.9297 132.3206 604.4897 115.7206 613.7697L19.0406 669.9197C2.4406 679.1997 0.0006 688.9697 0.0006 702.6397Z"/>
</svg>