<?xml version="1.0" encoding="UTF-8" standalone="no"?>
<svg xmlns="http://www.w3.org/2000/svg"
     width="965.4916750552607" height="1031.73828125"
     viewBox="0 0 965.4916750552607 1031.73828125"
     fill="currentColor">
  <path d="M7.1557 871.5823C-18.2343 973.1423 24.7357 1031.7423 122.8857 1031.7423H842.6057C940.7557 1031.7423 983.7257 973.1423 958.3357 871.5823L850.4257 435.5423C832.3557 363.7723 780.5957 322.2623 707.8457 322.2623H521.8057V272.4623C579.4257 255.3723 622.3957 202.1523 622.3957 139.6523C622.3957 63.4723 558.4257 0.0023 482.7457 0.0023C406.5757 0.0023 343.0957 63.4723 343.0957 139.6523C343.0957 202.1523 386.0657 255.3723 443.1957 272.4623V322.2623H257.6457C184.8957 322.2623 132.6457 363.7723 115.0657 435.5423ZM482.7457 210.4523C444.1757 210.4523 411.4557 178.2223 411.4557 139.6523C411.4557 101.0723 443.6857 67.8723 482.7457 67.8723C521.3157 67.8723 554.0357 101.0723 554.0357 139.6523C554.0357 178.2223 521.8057 210.4523 482.7457 210.4523Z"/>
</svg>