<?xml version="1.0" encoding="UTF-8" standalone="no"?>
<svg xmlns="http://www.w3.org/2000/svg"
     width="1147.4609375" height="899.4140625"
     viewBox="0 0 1147.4609375 899.4140625"
     fill="currentColor">
  <path d="M-0.0017 748.5378C-0.0017 849.1178 51.2683 899.4178 153.3183 899.4178H994.1383C1095.6983 899.4178 1147.4583 848.6378 1147.4583 748.5378V588.3778C1147.4583 556.1478 1137.6983 520.0178 1111.8183 492.1878L926.7583 295.4078C912.5983 280.2778 899.4183 267.5778 886.2283 256.8378C896.9683 248.5378 908.1983 237.7978 920.8983 224.6078L1074.2183 69.8278C1099.1183 44.9178 1086.9183 -0.0022 1043.4583 -0.0022H104.0083C60.5483 -0.0022 48.3383 44.9178 73.2383 69.8278L226.5583 224.6078C239.2583 237.7978 250.4883 248.5378 261.2283 256.8378C248.0483 267.5778 234.8683 280.2778 220.6983 295.4078L35.6483 492.1878C9.7683 520.0178 -0.0017 556.1478 -0.0017 588.3778ZM108.8883 532.7178L285.1583 336.4278C310.0583 309.0778 328.1283 293.9478 357.4183 293.9478H789.5483C818.8483 293.9478 837.3983 308.5978 862.3083 336.4278L1038.5783 532.7178C1051.7583 547.8478 1044.4383 570.3078 1020.0183 570.3078H127.4383C103.0283 570.3078 95.6983 547.8478 108.8883 532.7178ZM286.1283 410.6478C290.5283 423.3378 303.2183 428.2178 315.4283 423.8278L470.2183 367.6778C482.4183 363.2778 489.2583 351.0778 484.3783 338.8678C479.9783 326.1678 467.2883 321.7778 455.5683 326.1678L300.2883 382.3278C287.5983 386.7178 281.7383 398.9278 286.1283 410.6478ZM278.8083 499.9978C282.7183 511.7178 295.8983 517.0878 308.1083 512.6978L532.7183 430.6678C545.4083 426.2678 551.2683 414.5478 546.8783 401.8578C542.4783 389.6478 530.2783 384.2778 517.5783 389.1578L292.9683 471.1878C280.2783 475.5878 274.4183 487.3078 278.8083 499.9978ZM779.7883 734.3778C779.7883 718.7478 791.5083 707.5178 807.6183 707.5178H942.3783C958.0083 707.5178 969.7283 718.7478 969.7283 734.3778C969.7283 749.9978 958.0083 760.7378 942.3783 760.7378H807.6183C792.4783 760.7378 779.7883 749.9978 779.7883 734.3778Z"/>
</svg>