<?xml version="1.0" encoding="UTF-8" standalone="no"?>
<svg xmlns="http://www.w3.org/2000/svg"
     width="996.09375" height="996.09375"
     viewBox="0 0 996.09375 996.09375"
     fill="currentColor">
  <path d="M498.0477 996.0959C770.5077 996.0959 996.0977 770.0159 996.0977 498.0459C996.0977 225.5859 770.0177 -0.0041 497.5577 -0.0041C225.5877 -0.0041 -0.0023 225.5859 -0.0023 498.0459C-0.0023 770.0159 226.0777 996.0959 498.0477 996.0959ZM498.0477 913.0859C267.5777 913.0859 83.4977 728.5159 83.4977 498.0459C83.4977 267.5759 267.0877 83.0059 497.5577 83.0059C728.0277 83.0059 913.0877 267.5759 913.0877 498.0459C913.0877 728.5159 728.5177 913.0859 498.0477 913.0859ZM462.3977 426.7559L418.9477 403.3159C403.3177 395.0159 401.8577 388.6759 401.8577 368.1659C401.8577 315.9159 360.3477 274.9059 309.0777 274.9059C257.3277 274.9059 216.3077 316.4059 216.3077 368.1659C216.3077 419.4359 257.3277 460.4459 309.0777 460.4459C351.5577 460.4459 358.8877 442.8759 377.9277 442.8759C381.8377 442.8759 385.2577 444.3359 390.6277 446.7759L432.1277 468.2659C438.9677 450.6859 448.7277 437.0159 462.3977 426.7559ZM309.0777 422.8559C278.8077 422.8559 254.3977 398.4359 254.3977 368.1659C254.3977 337.4059 278.8077 312.9859 309.0777 312.9859C339.3577 312.9859 363.7677 337.4059 363.7677 368.1659C363.7677 398.4359 339.3577 422.8559 309.0777 422.8559ZM309.0777 721.1959C360.3477 721.1959 401.8577 680.1759 401.8577 627.9259C401.8577 608.3959 402.8277 601.0759 416.0177 593.7459L803.7077 388.1859C794.9177 354.0059 758.2977 346.6759 699.7077 367.6759L504.3977 437.9859C477.0477 447.7559 463.8677 461.4259 457.5177 487.3059L452.6377 503.9059C449.7077 515.6259 444.3377 520.9959 426.7577 530.2759L390.6277 549.3159C385.2577 552.2459 381.8377 552.7359 377.9277 552.7359C358.8877 552.7359 351.5577 535.6459 309.0777 535.6459C257.3277 535.6459 216.3077 576.1759 216.3077 627.9259C216.3077 679.6859 257.3277 721.1959 309.0777 721.1959ZM509.2777 504.3959C499.5077 504.3959 491.2077 496.0959 491.2077 485.8359C491.2077 475.5859 499.5077 467.2859 509.2777 467.2859C519.5277 467.2859 528.3177 475.5859 528.3177 485.8359C528.3177 496.0959 519.5277 504.3959 509.2777 504.3959ZM532.7177 565.9159L699.7077 628.9059C757.8077 650.3859 794.9177 642.5759 803.7077 607.4259L628.4177 515.1359ZM309.0777 683.1059C278.8077 683.1059 254.3977 658.6959 254.3977 627.9259C254.3977 597.6559 278.8077 573.2459 309.0777 573.2459C339.3577 573.2459 363.7677 597.6559 363.7677 627.9259C363.7677 658.6959 339.3577 683.1059 309.0777 683.1059Z"/>
</svg>