<?xml version="1.0" encoding="UTF-8" standalone="no"?>
<svg xmlns="http://www.w3.org/2000/svg"
     width="1251.953125" height="979.98046875"
     viewBox="0 0 1251.953125 979.98046875"
     fill="currentColor">
  <path d="M181.1483 979.9769C268.0683 979.9769 340.8183 918.4569 357.9083 835.9369H708.0083C728.5183 835.9369 741.2083 830.0769 759.2783 810.5469L974.1183 575.1969L989.2583 637.6969C930.1783 667.4769 889.6483 728.5169 889.6483 799.3169C889.6483 898.9269 971.1883 979.9769 1070.7983 979.9769C1170.8983 979.9769 1251.9483 898.9269 1251.9483 799.3169C1251.9483 699.2169 1170.8983 618.1669 1070.7983 618.1669C1066.4083 618.1669 1062.4983 618.1669 1058.1083 618.6569L912.1083 31.7369C906.7383 10.7469 890.6283 -0.0031 860.3483 -0.0031H720.2183C699.7083 -0.0031 683.1083 16.5969 683.1083 37.1069C683.1083 57.6169 699.7083 73.7269 720.2183 73.7269H846.6783C851.0783 73.7269 853.0283 75.1969 854.0083 78.6169L951.6583 482.9069L708.4983 756.3469C704.0983 761.2269 701.6583 762.2069 696.2883 762.2069H357.9083C340.8183 680.1769 268.0683 618.1669 181.1483 618.1669C81.0583 618.1669 -0.0017 699.2169 -0.0017 799.3169C-0.0017 898.9269 81.0583 979.9769 181.1483 979.9769ZM181.1483 850.5869C194.8283 850.5869 207.5183 845.2169 216.7983 835.9369H290.0383C274.4183 881.8369 231.9383 913.5769 181.1483 914.0669C117.1883 914.0669 65.9183 862.7969 65.9183 799.3169C65.9183 735.3469 117.1883 684.0869 181.1483 684.0869C231.9383 684.0869 274.4183 716.7969 290.0383 762.2069H217.2883C208.0083 753.4169 195.3083 747.5569 181.1483 747.5569C151.8583 747.5569 129.8783 770.5069 129.3983 799.3169C128.9083 827.6369 151.3683 850.5869 181.1483 850.5869ZM1070.7983 850.5869C1099.1183 850.5869 1122.5583 827.6369 1122.5583 799.3169C1122.5583 777.8369 1109.8683 759.7669 1091.7983 751.9569L1074.7083 684.0869C1136.7183 686.0369 1186.0383 736.8169 1186.0383 799.3169C1186.0383 862.7969 1134.7683 914.0669 1070.7983 914.0669C1007.3283 914.0669 955.5683 862.7969 955.5683 799.3169C955.5683 759.7669 975.5883 725.0969 1005.3683 704.5869L1023.4383 778.8069C1020.9983 785.1569 1019.5283 791.9969 1019.0383 799.3169C1018.5583 827.6369 1041.5083 850.5869 1070.7983 850.5869Z"/>
</svg>