<?xml version="1.0" encoding="UTF-8" standalone="no"?>
<svg xmlns="http://www.w3.org/2000/svg"
     width="1187.5" height="1187.5"
     viewBox="0 0 1187.5 1187.5"
     fill="currentColor">
  <path d="M35.1577 628.9108H134.2777C151.3677 855.4708 332.5177 1037.6008 558.5977 1054.6908V1152.3408C558.5977 1171.8708 574.2177 1187.5008 593.7477 1187.5008C613.2777 1187.5008 628.4177 1171.8708 628.4177 1152.3408V1054.6908C854.9777 1037.6008 1036.1377 855.4708 1053.2277 628.9108H1152.3477C1171.8777 628.9108 1187.4977 613.2808 1187.4977 593.7508C1187.4977 574.2208 1171.8777 559.0808 1152.3477 559.0808H1053.2277C1036.1377 332.5208 854.9777 150.3908 628.4177 133.3008V35.1608C628.4177 15.6208 613.2777 0.0008 593.7477 0.0008C574.2177 0.0008 558.5977 15.6208 558.5977 35.1608V133.3008C332.5177 150.3908 151.3677 332.5208 134.2777 559.0808H35.1577C15.6277 559.0808 -0.0023 574.2208 -0.0023 593.7508C-0.0023 613.2808 15.6277 628.9108 35.1577 628.9108ZM593.7477 400.8808C613.2777 400.8808 628.4177 385.2508 628.4177 365.7208V212.8908C812.0077 229.4908 955.0777 373.5308 970.7077 559.0808H821.7777C802.2477 559.0808 786.6177 574.2208 786.6177 593.7508C786.6177 613.2808 802.2477 628.9108 821.7777 628.9108H970.7077C955.0777 813.9608 812.0077 958.0108 628.4177 974.6108V821.7808C628.4177 802.2508 613.2777 787.1108 593.7477 787.1108C574.2177 787.1108 558.5977 802.2508 558.5977 821.7808V974.6108C375.4877 958.0108 232.4177 813.9608 216.7977 628.9108H365.7277C385.2577 628.9108 400.8777 613.2808 400.8777 593.7508C400.8777 574.2208 385.2577 559.0808 365.7277 559.0808H216.7977C232.4177 373.5308 375.4877 229.4908 558.5977 212.8908V365.7208C558.5977 385.2508 574.2177 400.8808 593.7477 400.8808Z"/>
</svg>