<?xml version="1.0" encoding="UTF-8" standalone="no"?>
<svg xmlns="http://www.w3.org/2000/svg"
     width="1202.5625030332212" height="1201.0405246981518"
     viewBox="0 0 1202.5625030332212 1201.0405246981518"
     fill="currentColor">
  <path d="M436.0806 483.34C412.6406 507.27 412.1506 538.03 436.0806 562.44L640.1806 767.03C664.1106 790.96 695.3606 789.49 719.2806 765.57L772.5106 711.86C754.4406 685 756.3906 650.82 780.3206 627.38C804.2406 603.95 837.9406 601.51 864.7906 620.06L1148.9706 335.39C1220.2606 264.1 1219.7706 189.88 1151.4106 121.04L1081.1006 51.21C1012.2506 -17.64 937.0606 -17.15 866.2606 53.17L582.0806 337.35C601.1206 363.71 598.6806 398.38 574.7506 422.31C551.3106 445.26 517.1306 447.21 489.7906 429.63ZM710.0106 381.29L943.4006 146.92C950.7306 139.1 964.4006 140.57 972.7006 146.92C981.0006 154.24 979.5406 167.42 972.2106 174.75L737.8406 409.12C729.5406 416.94 717.8206 416.45 710.9806 409.61C702.6806 400.82 702.1906 389.1 710.0106 381.29ZM793.9906 463.81L1026.9006 231.39C1035.6906 223.58 1047.9006 223.09 1055.2206 231.39C1062.0606 239.2 1062.0606 251.9 1055.2206 258.73L821.8206 493.11C814.0106 501.41 801.3106 499.94 793.9906 493.11C784.7106 483.83 784.7106 473.09 793.9906 463.81ZM96.7206 935.98L6.8806 1100.53C-0.9294 1115.18 -3.3694 1127.38 6.3906 1136.66L64.0106 1194.77C74.2606 1204.53 85.9806 1201.6 100.1406 1194.77L265.6706 1104.44C282.2706 1095.65 292.5306 1078.56 293.0106 1063.91L295.4506 1010.69L543.0106 763.13L438.5206 658.15L190.4706 905.7L138.2306 908.63C122.6006 908.63 105.5106 919.38 96.7206 935.98Z"/>
</svg>