<?xml version="1.0" encoding="UTF-8" standalone="no"?>
<svg xmlns="http://www.w3.org/2000/svg"
     width="1222.1433002949482" height="1222.145006848145"
     viewBox="0 0 1222.1433002949482 1222.145006848145"
     fill="currentColor">
  <path d="M119.5951 918.8333L7.2951 1085.8233C-1.4949 1098.5133 -2.9549 1111.7033 6.3151 1120.4933L101.5351 1216.1933C110.8051 1224.9833 123.5051 1223.5133 136.6851 1215.2133L303.6851 1102.9133C318.3251 1093.1433 328.0951 1078.4933 330.5351 1061.8933L338.3451 1010.6233L599.0951 750.3733L641.0851 791.8733C665.9851 816.7733 697.7251 817.2633 723.1151 791.3833L802.2151 712.7733C783.1751 690.3133 784.1451 659.0633 805.1451 638.0633C826.1451 617.0733 856.9051 616.0933 879.3651 635.1333L1166.9651 348.0233C1239.7151 275.2733 1240.6951 196.6633 1168.9151 124.3933L1097.6251 53.5933C1024.8751 -18.6667 947.2351 -17.6967 873.9951 55.5433L587.3751 343.1433C606.4151 365.6033 605.4351 396.8533 584.4451 417.3633C562.9551 437.8733 532.1951 438.8433 509.7351 419.8033L430.6351 498.9033C405.2451 524.7833 405.7351 556.5233 430.6351 581.4233L472.1351 622.9333L211.3951 884.1633L160.1251 891.9733C144.0151 893.9233 128.8751 904.1833 119.5951 918.8333ZM493.1351 523.8133L523.8951 493.0433C560.5151 500.8633 593.2351 489.1433 622.5251 459.8433C652.3151 430.5433 663.0551 397.3433 654.7551 362.1833L921.8451 95.5833C963.8351 53.5933 1010.7151 53.5933 1051.7251 95.0933L1127.4151 170.2933C1168.9151 211.7933 1168.9151 258.6733 1126.9251 300.6633L860.3251 567.7533C825.1651 559.4533 791.9651 570.1933 762.1751 599.9833C732.8751 628.7933 721.6451 661.9933 728.9751 698.6133L698.7051 728.8833C688.4451 739.1433 675.7551 740.1133 664.5251 729.3733L492.6451 557.5033C481.9051 546.7633 482.8751 534.0633 493.1351 523.8133ZM756.8051 371.9533C748.5051 379.7633 748.5051 391.9733 757.2951 400.7633C764.1251 407.5933 777.3151 408.5733 784.6351 400.7633L986.2951 197.1533C994.1151 189.8233 994.5951 178.1033 986.2951 169.8033C979.4651 162.9733 966.7651 161.9933 958.9551 169.8033ZM822.2351 437.8733C814.4251 445.1933 814.9151 458.3833 822.2351 465.7033C830.5351 473.5133 842.7451 473.5133 850.5551 465.7033L1052.7051 264.0433C1060.5151 256.2333 1060.5151 244.0233 1052.7051 235.7233C1045.3751 227.9133 1032.1951 228.8833 1024.8751 235.7233ZM66.3751 1096.5633L174.7751 953.9833L235.3251 943.7333L514.1251 664.9233L557.5851 708.3833L278.7751 987.1833L268.0351 1047.2433L125.4551 1155.6433Z"/>
</svg>