<?xml version="1.0" encoding="UTF-8" standalone="no"?>
<svg xmlns="http://www.w3.org/2000/svg"
     width="1036.62109375" height="1037.109375"
     viewBox="0 0 1036.62109375 1037.109375"
     fill="currentColor">
  <path d="M126.4683 0.0037C164.5483 21.4837 176.7583 50.2938 176.7583 102.5438V909.6638C176.7583 978.5138 216.3083 1018.0638 276.3683 1018.0638C332.0283 1018.0638 369.1383 979.9838 369.1383 913.5738V778.8038C369.1383 712.4037 399.4183 678.2238 466.3083 678.2238H936.5283V153.3238C936.5283 51.2737 885.7383 0.0037 785.1583 0.0037ZM-0.0017 236.3238C-0.0017 265.6237 19.5283 284.6638 49.8083 284.6638H110.3483V126.9538C110.3483 96.1938 84.4683 73.2437 55.1783 73.2437C25.8783 72.7537 -0.0017 95.7038 -0.0017 126.9538ZM365.2383 254.8837C365.2383 238.2838 378.4183 225.0938 395.9983 225.0938H731.9383C749.5083 225.0938 762.2083 238.2838 762.2083 254.8837C762.2083 271.9738 749.5083 285.1537 731.9383 285.1537H395.9983C378.4183 285.1537 365.2383 271.9738 365.2383 254.8837ZM365.2383 426.2738C365.2383 409.1837 378.4183 395.5038 395.9983 395.5038H571.2883C588.8683 395.5038 601.5583 409.1837 601.5583 426.2738C601.5583 442.8738 588.8683 455.5638 571.2883 455.5638H395.9983C378.4183 455.5638 365.2383 442.8738 365.2383 426.2738ZM389.1583 1037.1138H882.8083C975.5883 1037.1138 1036.6183 973.6338 1036.6183 877.4438V793.4538C1036.6183 764.1637 1017.0883 744.6338 986.8183 744.6338H485.8383C455.5683 744.6338 435.5483 764.1637 435.5483 793.4538V889.1638C435.5483 945.3138 428.2183 995.1138 389.1583 1037.1138Z"/>
</svg>