<?xml version="1.0" encoding="UTF-8" standalone="no"?>
<svg xmlns="http://www.w3.org/2000/svg"
     width="1041.50390625" height="1037.109375"
     viewBox="0 0 1041.50390625 1037.109375"
     fill="currentColor">
  <path d="M-0.0017 236.3238C-0.0017 265.6237 19.5283 284.6638 49.8083 284.6638H176.7583V883.7938C176.7583 986.3238 227.0483 1037.1138 329.5883 1037.1138H887.6983C980.4683 1037.1138 1041.5083 973.6338 1041.5083 877.4438V744.6338C1041.5083 715.3338 1021.9683 696.2938 991.6983 696.2938H951.1683V153.3238C951.1683 51.2737 900.3883 0.0037 799.8083 0.0037H127.9283C51.7583 0.0037 -0.0017 51.7537 -0.0017 133.3038ZM255.3683 884.2738V133.3038C255.3683 113.2838 253.4183 94.7238 249.5083 78.6137H795.4083C846.1883 78.6137 872.5583 105.4638 872.5583 154.2938V696.2938H453.1283C422.8483 696.2938 402.8283 715.3338 402.8283 744.6338V884.2738C402.8283 928.7138 372.0683 958.4938 329.5883 958.4938C286.1283 958.4938 255.3683 927.2438 255.3683 884.2738ZM78.6183 206.0538V133.3038C78.6183 99.1237 99.6083 78.6137 127.9283 78.6137C157.2283 78.6137 176.7583 99.1237 176.7583 133.3038V206.0538ZM395.9983 285.1537H731.9383C749.5083 285.1537 762.2083 271.9738 762.2083 254.8837C762.2083 238.2838 749.5083 225.0938 731.9383 225.0938H395.9983C378.4183 225.0938 365.2383 238.2838 365.2383 254.8837C365.2383 271.9738 378.4183 285.1537 395.9983 285.1537ZM395.9983 455.5638H571.2883C588.8683 455.5638 601.5583 442.8738 601.5583 426.2738C601.5583 409.1837 588.8683 395.5038 571.2883 395.5038H395.9983C378.4183 395.5038 365.2383 409.1837 365.2383 426.2738C365.2383 442.8738 378.4183 455.5638 395.9983 455.5638ZM462.3983 958.4938C474.6083 937.0138 481.4483 910.6438 481.4483 878.9038V774.9037H962.8883V877.4438C962.8883 925.7838 932.6183 958.4938 887.6983 958.4938Z"/>
</svg>