<?xml version="1.0" encoding="UTF-8" standalone="no"?>
<svg xmlns="http://www.w3.org/2000/svg"
     width="1186.5234375" height="846.6796875"
     viewBox="0 0 1186.5234375 846.6796875"
     fill="currentColor">
  <path d="M153.3183 846.6789H680.1783C782.7183 846.6789 833.4983 795.8989 833.4983 695.3089V151.3689C833.4983 50.7789 782.7183 -0.0011 680.1783 -0.0011H153.3183C51.2683 -0.0011 -0.0017 50.2889 -0.0017 151.3689V695.3089C-0.0017 795.8989 51.2683 846.6789 153.3183 846.6789ZM1040.0383 556.1489C1053.2183 571.7789 1076.6583 571.7789 1092.2883 554.1989C1153.3183 485.8389 1186.5283 397.4589 1186.5283 300.7789C1186.5283 204.0989 1153.3183 115.2389 1092.2883 46.8789C1077.1483 29.7889 1054.1983 29.7889 1041.0183 44.4289C1027.3483 59.5689 1030.7583 78.6089 1045.4083 95.6989C1094.2383 151.3689 1119.6283 222.6589 1119.6283 300.7789C1119.6283 378.4189 1094.2383 450.1989 1045.4083 505.3689C1030.7583 522.4589 1027.3483 541.0189 1040.0383 556.1489ZM154.2983 768.0689C105.4683 768.0689 78.6183 741.6989 78.6183 690.9189V155.2689C78.6183 104.9789 105.4683 78.6089 154.2983 78.6089H679.1983C727.0483 78.6089 754.8783 104.9789 754.8783 155.2689V690.9189C754.8783 741.6989 727.0483 768.0689 679.1983 768.0689ZM928.2183 450.6789C941.4083 465.8189 966.3083 466.7989 980.9583 447.2689C1012.2083 406.2489 1030.7583 355.4689 1030.7583 300.7789C1030.7583 246.0889 1012.2083 194.8289 980.9583 154.2989C966.3083 134.7689 941.8983 135.2489 928.7083 150.3889C914.5483 165.0389 919.9183 183.1089 932.6183 200.6789C953.6183 230.4689 963.8683 264.1589 963.8683 300.7789C963.8683 336.9189 953.6183 371.0889 932.6183 400.8789C920.4083 417.9689 914.5483 436.0389 928.2183 450.6789ZM394.0383 445.7989C410.6483 445.7989 423.8283 433.1089 423.8283 416.4989V185.5489C423.8283 168.9489 410.6483 156.2489 394.0383 156.2489C377.4383 156.2489 364.7483 168.9489 364.7483 185.5489V416.4989C364.7483 433.1089 377.4383 445.7989 394.0383 445.7989ZM518.0683 445.7989C534.6683 445.7989 547.8483 433.1089 547.8483 416.4989V185.5489C547.8483 168.9489 534.6683 156.2489 518.0683 156.2489C501.4683 156.2489 488.7683 168.9489 488.7683 185.5489V416.4989C488.7683 433.1089 501.4683 445.7989 518.0683 445.7989ZM642.5783 445.7989C659.1783 445.7989 671.8783 433.1089 671.8783 416.4989V185.5489C671.8783 168.9489 659.1783 156.2489 642.5783 156.2489C625.9783 156.2489 612.7883 168.9489 612.7883 185.5489V416.4989C612.7883 433.1089 625.9783 445.7989 642.5783 445.7989Z"/>
</svg>