<?xml version="1.0" encoding="UTF-8" standalone="no"?>
<svg xmlns="http://www.w3.org/2000/svg"
     width="1186.5234375" height="846.6796875"
     viewBox="0 0 1186.5234375 846.6796875"
     fill="currentColor">
  <path d="M153.3183 846.6789H680.1783C782.7183 846.6789 833.4983 795.8989 833.4983 695.3089V151.3689C833.4983 50.7789 782.7183 -0.0011 680.1783 -0.0011H153.3183C51.2683 -0.0011 -0.0017 50.2889 -0.0017 151.3689V695.3089C-0.0017 795.8989 51.2683 846.6789 153.3183 846.6789ZM1040.0383 556.1489C1053.2183 571.7789 1076.6583 571.7789 1092.2883 554.1989C1153.3183 485.8389 1186.5283 397.4589 1186.5283 300.7789C1186.5283 204.0989 1153.3183 115.2389 1092.2883 46.8789C1077.1483 29.7889 1054.1983 29.7889 1041.0183 44.4289C1027.3483 59.5689 1030.7583 78.6089 1045.4083 95.6989C1094.2383 151.3689 1119.6283 222.6589 1119.6283 300.7789C1119.6283 378.4189 1094.2383 450.1989 1045.4083 505.3689C1030.7583 522.4589 1027.3483 541.0189 1040.0383 556.1489ZM928.2183 450.6789C941.4083 465.8189 966.3083 466.7989 980.9583 447.2689C1012.2083 406.2489 1030.7583 355.4689 1030.7583 300.7789C1030.7583 246.0889 1012.2083 194.8289 980.9583 154.2989C966.3083 134.7689 941.8983 135.2489 928.7083 150.3889C914.5483 165.0389 919.9183 183.1089 932.6183 200.6789C953.6183 230.4689 963.8683 264.1589 963.8683 300.7789C963.8683 336.9189 953.6183 371.0889 932.6183 400.8789C920.4083 417.9689 914.5483 436.0389 928.2183 450.6789ZM390.1383 450.6789C372.5583 450.6789 359.3783 437.4989 359.3783 419.9189V182.1289C359.3783 164.5489 372.5583 151.3689 390.1383 151.3689C407.2283 151.3689 420.8983 164.5489 420.8983 182.1289V419.9189C420.8983 437.4989 407.2283 450.6789 390.1383 450.6789ZM518.0683 450.6789C500.9783 450.6789 487.7883 437.4989 487.7883 419.9189V182.1289C487.7883 164.5489 500.9783 151.3689 518.0683 151.3689C535.1583 151.3689 548.8283 164.5489 548.8283 182.1289V419.9189C548.8283 437.4989 535.1583 450.6789 518.0683 450.6789ZM646.4883 450.6789C629.3983 450.6789 615.7183 437.4989 615.7183 419.9189V182.1289C615.7183 164.5489 629.3983 151.3689 646.4883 151.3689C664.0583 151.3689 677.2483 164.5489 677.2483 182.1289V419.9189C677.2483 437.4989 664.0583 450.6789 646.4883 450.6789Z"/>
</svg>