<?xml version="1.0" encoding="UTF-8" standalone="no"?>
<svg xmlns="http://www.w3.org/2000/svg"
     width="1151.3671875" height="898.92578125"
     viewBox="0 0 1151.3671875 898.92578125"
     fill="currentColor">
  <path d="M153.3183 898.9278H998.0483C1100.5883 898.9278 1151.3683 848.6378 1151.3683 748.0478V151.3678C1151.3683 50.7778 1100.5883 -0.0022 998.0483 -0.0022H153.3183C51.2683 -0.0022 -0.0017 50.7778 -0.0017 151.3678V748.0478C-0.0017 848.6378 51.2683 898.9278 153.3183 898.9278ZM78.6183 155.7578C78.6183 104.9778 105.4683 78.6178 154.2983 78.6178H997.0683C1045.4083 78.6178 1072.7583 104.9778 1072.7583 155.7578V277.3478H78.6183ZM900.8783 240.7178C934.5683 239.7478 962.8883 211.9178 962.8883 178.2178C962.8883 144.0478 934.5683 115.2378 900.8783 115.2378C867.6783 115.2378 838.8683 144.0478 838.8683 178.2178C838.8683 211.9178 867.6783 241.2078 900.8783 240.7178ZM78.6183 548.8278V351.0778H1072.7583V548.8278ZM900.8783 511.2278C934.5683 510.2578 962.8883 482.4178 962.8883 448.7278C962.8883 414.5478 934.5683 385.7378 900.8783 385.7378C867.6783 385.7378 838.8683 414.5478 838.8683 448.7278C838.8683 482.4178 867.6783 511.7178 900.8783 511.2278ZM154.2983 820.3078C105.4683 820.3078 78.6183 794.4378 78.6183 743.6478V622.5578H1072.7583V743.6478C1072.7583 794.4378 1045.4083 820.3078 997.0683 820.3078ZM900.8783 781.7378C934.5683 780.7578 962.8883 752.9278 962.8883 719.2378C962.8883 685.0578 934.5683 656.2478 900.8783 656.2478C867.6783 656.2478 838.8683 685.0578 838.8683 719.2378C838.8683 752.9278 867.6783 782.2278 900.8783 781.7378Z"/>
</svg>