<?xml version="1.0" encoding="UTF-8" standalone="no"?>
<svg xmlns="http://www.w3.org/2000/svg"
     width="1456.54296875" height="833.984375"
     viewBox="0 0 1456.54296875 833.984375"
     fill="currentColor">
  <path d="M39.5477 822.2666C61.0377 822.2666 78.6177 805.1766 78.6177 783.2066C78.6177 395.0166 369.6277 78.6166 728.0277 78.6166C1085.9377 78.6166 1377.9277 395.0166 1377.9277 783.2066C1377.9277 805.1766 1395.0177 822.2666 1416.5077 822.2666C1438.4777 822.2666 1456.5477 805.1766 1456.5477 783.2066C1456.5477 352.0466 1128.9077 -0.0034 728.0277 -0.0034C326.6577 -0.0034 -0.0023 352.0466 -0.0023 783.2066C-0.0023 805.1766 17.5777 822.2666 39.5477 822.2666ZM729.0077 494.1366C809.5677 494.1366 879.8877 421.8766 879.8877 328.1266C879.8877 235.3466 808.5977 166.0166 729.0077 166.0166C647.9477 166.0166 577.6377 236.8166 578.1277 329.0966C578.1277 421.8766 647.9477 494.1366 729.0077 494.1366ZM265.6277 822.2666C287.1077 822.2666 306.1477 805.1766 306.1477 783.6866C306.1477 620.1166 389.1577 472.6566 519.5277 392.0866C511.7177 362.7966 509.7677 335.4466 514.1577 305.6666C340.8177 391.5966 226.5577 577.6366 226.5577 783.6866C226.5577 805.1766 243.6477 822.2666 265.6277 822.2666ZM1190.9177 822.2666C1212.3977 822.2666 1230.4677 805.1766 1230.4677 783.6866C1230.4677 578.1266 1117.1877 393.5566 944.8277 306.6366C947.7577 334.9566 945.7977 364.2566 938.4777 393.0666C1067.8677 473.6366 1150.8777 620.6066 1150.8777 783.6866C1150.8777 805.1766 1169.4377 822.2666 1190.9177 822.2666ZM482.4177 833.9866H974.6077C1015.6277 833.9866 1041.5077 814.4566 1041.5077 781.7366C1041.5077 684.0866 920.8977 551.7566 729.0077 551.7566C536.1377 551.7566 416.0177 684.0866 416.0177 781.7366C416.0177 814.4566 440.9177 833.9866 482.4177 833.9866Z"/>
</svg>