<?xml version="1.0" encoding="UTF-8" standalone="no"?>
<svg xmlns="http://www.w3.org/2000/svg"
     width="1456.54296875" height="988.1591796875"
     viewBox="0 0 1456.54296875 988.1591796875"
     fill="currentColor">
  <path d="M1165.0377 977.1775C1179.6877 991.8175 1204.0977 991.8175 1218.2577 977.1775C1232.4177 962.5275 1232.9077 939.0875 1218.2577 923.9475L306.1477 11.3475C291.0177 -3.7825 267.5777 -3.7825 252.4377 11.3475C238.2777 25.5175 238.2777 49.9275 252.4377 64.5775ZM1416.5077 829.2275C1438.4777 829.2275 1456.5477 812.6175 1456.5477 790.1575C1456.5477 359.4975 1128.9077 6.9575 728.0277 6.9575C627.4377 6.9575 531.7377 28.9275 444.8277 69.4575L504.8877 129.5175C574.2177 101.6875 649.4177 86.0575 728.0277 86.0575C1085.9377 86.0575 1377.9277 402.4675 1377.9277 790.1575C1377.9277 812.6175 1395.0177 829.2275 1416.5077 829.2275ZM830.5677 455.6875C860.8377 426.8775 879.8877 383.9075 879.8877 335.0875C879.8877 242.7975 808.5977 173.4575 729.0077 173.4575C681.6377 173.4575 638.6677 198.3675 611.8177 236.4475ZM39.5477 829.2275C61.0377 829.2275 78.6177 812.6175 78.6177 790.1575C78.6177 561.1575 180.1777 358.0275 336.4277 229.6175L281.2477 173.4575C110.3477 316.5275 -0.0023 540.1575 -0.0023 790.1575C-0.0023 812.6175 17.5777 829.2275 39.5477 829.2275ZM1212.3977 822.8775C1223.1477 816.5275 1230.4677 804.3175 1230.4677 790.6475C1230.4677 585.5675 1117.1877 400.5175 944.8277 313.5975C947.7577 341.9175 945.7977 371.2175 938.4777 400.0275C1060.0577 475.7075 1140.6277 609.4975 1149.8977 760.3775ZM265.6277 829.2275C287.1077 829.2275 306.1477 812.6175 306.1477 790.6475C306.1477 630.0075 386.7177 485.9575 512.2077 404.9075L456.5477 348.7575C316.4077 443.9675 226.5577 609.4975 226.5577 790.6475C226.5577 812.6175 243.6477 829.2275 265.6277 829.2275ZM482.4177 840.9375H948.2377L671.3877 564.0875C512.2077 586.0575 416.0177 701.2975 416.0177 788.6975C416.0177 821.4075 440.9177 840.9375 482.4177 840.9375Z"/>
</svg>