<?xml version="1.0" encoding="UTF-8" standalone="no"?>
<svg xmlns="http://www.w3.org/2000/svg"
     width="1205.078125" height="925.29296875"
     viewBox="0 0 1205.078125 925.29296875"
     fill="currentColor">
  <path d="M199.7083 374.0197H412.5983C413.0883 248.0497 506.3483 145.0197 624.5083 136.2297V68.3597C624.5083 22.9497 601.0783 -0.0003 554.1983 -0.0003H199.7083C153.3183 -0.0003 129.8783 22.9497 129.8783 68.3597V305.6597C129.8783 351.5597 153.3183 374.0197 199.7083 374.0197ZM640.1383 552.7297C726.0783 552.7297 800.7783 475.5897 800.7783 374.9997C800.7783 275.8797 726.0783 202.1497 640.1383 202.1497C554.1983 202.1497 479.0083 277.3397 479.0083 375.9797C479.0083 475.5897 554.1983 552.7297 640.1383 552.7297ZM990.7183 633.7897H1134.7683C1181.6383 633.7897 1205.0783 610.8397 1205.0783 565.4297V280.7597C1205.0783 235.3497 1181.6383 212.3997 1134.7683 212.3997H990.7183C944.3383 212.3997 920.8983 235.3497 920.8983 280.7597V565.4297C920.8983 610.8397 944.3383 633.7897 990.7183 633.7897ZM69.8283 726.5597H168.4583C214.8483 726.5597 238.2783 703.6097 238.2783 657.7197V556.6397C238.2783 511.2297 214.8483 488.2797 168.4583 488.2797H69.8283C23.4383 488.2797 -0.0017 510.7397 -0.0017 556.6397V657.7197C-0.0017 703.6097 23.4383 726.5597 69.8283 726.5597ZM370.1183 925.2897H909.6683C952.6383 925.2897 978.5183 905.2697 978.5183 872.0697C978.5183 768.0697 848.6283 624.5097 640.1383 624.5097C431.1483 624.5097 301.2683 768.0697 301.2683 872.0697C301.2683 905.2697 327.1483 925.2897 370.1183 925.2897Z"/>
</svg>