<?xml version="1.0" encoding="UTF-8" standalone="no"?>
<svg xmlns="http://www.w3.org/2000/svg"
     width="996.09375" height="996.09375"
     viewBox="0 0 996.09375 996.09375"
     fill="currentColor">
  <path d="M498.0477 996.0977C770.5077 996.0977 996.0977 770.5077 996.0977 498.0477C996.0977 226.0777 770.0177 -0.0023 497.5577 -0.0023C225.5877 -0.0023 -0.0023 226.0777 -0.0023 498.0477C-0.0023 770.5077 226.0777 996.0977 498.0477 996.0977ZM458.4977 286.1377C457.5177 287.1077 381.8377 358.3977 342.7777 402.8277C324.2177 422.8477 314.4577 449.2177 316.8977 476.5577C318.8477 505.3677 332.0277 532.2277 354.9777 553.2177C386.7177 579.5877 447.7577 585.4477 485.8377 551.2677C509.7677 530.7577 536.1377 500.4877 537.1077 500.4877C556.1477 479.0077 588.8677 478.0277 609.3777 498.0477C629.3977 516.5977 630.8577 548.8277 611.8177 569.8277C610.8377 570.3077 580.5677 603.0277 553.7077 626.4677C517.0877 660.6477 468.7477 676.7577 419.4377 676.7577C372.0677 676.7577 324.7077 661.1377 289.0577 629.8877C244.1377 591.3077 217.7777 539.0577 213.8677 482.9077C210.4477 427.7377 229.0077 374.5077 267.5777 333.0077C309.0777 287.1077 384.2777 215.8177 386.7177 211.9177C407.2277 192.8677 439.4577 194.8277 458.9877 214.3577C479.4877 234.3777 478.5177 265.6277 458.4977 286.1377ZM537.1077 720.2177C537.5977 719.2377 613.7677 648.4377 652.3477 604.9777C670.8977 583.9877 681.1477 557.6177 678.2277 530.7577C676.7577 501.4677 663.0877 474.6077 640.1377 453.6177C608.3977 427.7377 547.3677 421.3877 509.7677 455.5677C485.8377 475.0977 458.9877 506.3477 458.4977 506.8377C439.4577 527.3477 406.7377 528.8077 386.2277 508.7877C365.7277 490.7177 364.2577 458.4977 383.7877 437.0077C384.2777 436.5277 414.5477 403.8077 441.4077 380.3677C478.5177 346.1877 526.3677 330.0777 575.6877 330.0777C623.5377 330.0777 670.4077 345.7077 707.5177 376.9577C751.4677 414.5477 777.8277 467.7777 781.7377 523.9277C784.6677 579.5877 766.1177 632.3277 728.0277 673.8277C686.5277 719.2377 611.8177 791.0177 608.3977 794.9177C587.8877 813.9677 556.1477 812.9877 536.1377 792.4777C516.1177 772.4577 516.5977 741.2077 537.1077 720.2177Z"/>
</svg>