<?xml version="1.0" encoding="UTF-8" standalone="no"?>
<svg xmlns="http://www.w3.org/2000/svg"
     width="996.09375" height="996.09375"
     viewBox="0 0 996.09375 996.09375"
     fill="currentColor">
  <path d="M498.0477 996.0959C770.5077 996.0959 996.0977 770.0159 996.0977 498.0459C996.0977 225.5859 770.0177 -0.0041 497.5577 -0.0041C225.5877 -0.0041 -0.0023 225.5859 -0.0023 498.0459C-0.0023 770.0159 226.0777 996.0959 498.0477 996.0959ZM498.0477 913.0859C267.5777 913.0859 83.4977 728.5159 83.4977 498.0459C83.4977 267.5759 267.0877 83.0059 497.5577 83.0059C728.0277 83.0059 913.0877 267.5759 913.0877 498.0459C913.0877 728.5159 728.5177 913.0859 498.0477 913.0859ZM411.6177 699.2159C411.6177 722.1659 425.7777 736.8159 449.2177 736.8159H550.2977C632.8077 736.8159 668.9477 698.2459 668.9477 600.5859V300.7859C668.9477 283.2059 657.7177 270.9959 640.1377 270.9959C622.5577 270.9959 610.8377 282.7159 610.8377 300.7859V600.5859C610.8377 663.0859 593.2577 673.8259 538.5777 673.8259H469.7277V431.1559C469.7277 412.5959 458.0077 401.3659 441.4077 401.3659C423.8277 401.3659 411.6177 412.5959 411.6177 431.1559ZM310.5477 712.4059C310.5477 729.9759 323.7277 742.1859 340.8177 742.1859C357.9077 742.1859 369.1377 729.4959 369.1377 711.9159V338.3759H434.0777C487.3077 338.3759 510.7377 354.4959 510.7377 410.6459V580.5659C510.7377 599.1259 522.9477 610.8359 540.0377 610.8359C557.1277 610.8359 568.8477 599.1259 568.8477 580.5659V402.3459C568.8477 314.4559 529.2977 275.8759 448.2377 275.8759H349.1177C326.1677 275.8759 310.5477 291.0159 310.5477 313.9659Z"/>
</svg>