<?xml version="1.0" encoding="UTF-8" standalone="no"?>
<svg xmlns="http://www.w3.org/2000/svg"
     width="996.09375" height="996.09375"
     viewBox="0 0 996.09375 996.09375"
     fill="currentColor">
  <path d="M498.0477 996.0959C770.5077 996.0959 996.0977 770.0159 996.0977 498.0459C996.0977 225.5859 770.0177 -0.0041 497.5577 -0.0041C225.5877 -0.0041 -0.0023 225.5859 -0.0023 498.0459C-0.0023 770.0159 226.0777 996.0959 498.0477 996.0959ZM409.1777 705.0759V428.7059C409.1777 409.6659 421.8777 397.9459 439.9377 397.9459C457.0277 397.9459 469.2377 409.6659 469.2377 428.7059V679.1959H540.0377C596.6777 679.1959 614.7477 667.9659 614.7477 603.5159V294.4359C614.7477 275.3859 626.9577 263.1859 645.0177 263.1859C663.0877 263.1859 674.8077 275.8759 674.8077 294.4359V603.5159C674.8077 704.5859 637.6977 744.1359 552.2477 744.1359H447.7577C423.8277 744.1359 409.1777 729.0059 409.1777 705.0759ZM304.6877 718.7459V308.1059C304.6877 284.1759 320.7977 268.5559 344.7277 268.5559H446.7777C530.7577 268.5559 571.2877 308.1059 571.2877 398.9259V583.0059C571.2877 602.0459 559.5677 614.2559 541.5077 614.2559C523.9277 614.2559 511.2277 602.0459 511.2277 583.0059V407.7159C511.2277 349.6059 487.3077 333.4959 432.1277 333.4959H365.2377V718.2659C365.2377 736.8159 353.5177 749.9959 335.9377 749.9959C318.3577 749.9959 304.6877 737.3059 304.6877 718.7459Z"/>
</svg>