<?xml version="1.0" encoding="UTF-8" standalone="no"?>
<svg xmlns="http://www.w3.org/2000/svg"
     width="898.92578125" height="898.92578125"
     viewBox="0 0 898.92578125 898.92578125"
     fill="currentColor">
  <path d="M153.3183 898.9295H745.6083C848.1483 898.9295 898.9283 848.1495 898.9283 747.5595V151.3695C898.9283 50.7795 848.1483 -0.0005 745.6083 -0.0005H153.3183C51.2683 -0.0005 -0.0017 50.2895 -0.0017 151.3695V747.5595C-0.0017 848.6295 51.2683 898.9295 153.3183 898.9295ZM360.8383 655.7595V379.3895C360.8383 360.3495 373.5383 348.6295 391.5983 348.6295C408.6883 348.6295 420.8983 360.3495 420.8983 379.3895V629.8795H491.6983C548.3383 629.8795 566.4083 618.6495 566.4083 554.1995V245.1195C566.4083 226.0695 578.6183 213.8695 596.6783 213.8695C614.7483 213.8695 626.4683 226.5595 626.4683 245.1195V554.1995C626.4683 655.2695 589.8483 694.8195 503.9083 694.8195H399.4183C375.4883 694.8195 360.8383 679.6895 360.8383 655.7595ZM256.3483 669.4295V258.7895C256.3483 234.8595 272.4583 219.2395 296.3883 219.2395H398.4383C482.4183 219.2395 522.9483 258.7895 522.9483 349.6095V533.6895C522.9483 552.7295 511.2283 564.9395 493.1683 564.9395C475.5883 564.9395 462.8883 552.7295 462.8883 533.6895V358.3995C462.8883 300.2895 438.9683 284.1795 383.7883 284.1795H316.8983V668.9495C316.8983 687.4995 305.1783 700.6795 287.5983 700.6795C270.0183 700.6795 256.3483 687.9895 256.3483 669.4295Z"/>
</svg>