<?xml version="1.0" encoding="UTF-8" standalone="no"?>
<svg xmlns="http://www.w3.org/2000/svg"
     width="987.1223577904726" height="986.328125"
     viewBox="0 0 987.1223577904726 986.328125"
     fill="currentColor">
  <path d="M922.9138 975.3424C937.5638 989.9924 961.9738 989.9924 976.1338 975.3424C990.7838 960.6924 990.7838 936.7724 976.1338 922.1224L64.5138 10.9824C49.8638 -3.6576 25.9438 -3.6576 10.8038 10.9824C-3.8462 25.1424 -3.3562 49.5624 10.8038 64.2124ZM876.5238 741.4524C905.8238 696.5324 917.5438 646.2424 917.5438 582.2724V214.1124C917.5438 163.8224 896.0538 147.7024 855.0438 130.6124C797.9138 107.1824 615.2938 40.7724 558.6538 21.2424C545.4738 16.8424 531.8038 14.4024 518.1238 14.4024C504.4538 14.4024 490.7838 17.3324 478.0938 21.2424C433.1638 36.3724 323.7938 75.9324 242.2538 106.6924ZM118.7138 255.1224V582.2724C118.7138 757.5724 212.9538 822.0224 485.9038 975.8324C498.5938 982.6624 510.3138 985.1124 518.1238 985.1124C525.9438 985.1124 538.1438 982.1824 550.3538 975.8324C624.5738 936.7724 685.1238 902.5924 733.9438 871.3424Z"/>
</svg>