<?xml version="1.0" encoding="UTF-8" standalone="no"?>
<svg xmlns="http://www.w3.org/2000/svg"
     width="811.5234375" height="986.328125"
     viewBox="0 0 811.5234375 986.328125"
     fill="currentColor">
  <path d="M811.5273 576.6595V203.1295C811.5273 151.8595 789.5473 135.2495 748.0473 118.1595C690.4273 94.7295 504.3973 23.9295 446.7773 7.3195C433.5973 3.9095 419.4373 -0.0005 405.7573 -0.0005C392.0873 -0.0005 377.9273 2.9295 365.2373 7.3195C307.1273 27.3395 121.0973 94.2395 63.4773 118.1595C22.4573 135.7395 -0.0027 151.8595 -0.0027 203.1295V576.6595C-0.0027 754.8795 95.2173 820.7995 373.0473 976.5595C385.7373 983.3995 397.9473 986.3295 405.7573 986.3295C413.5773 986.3295 426.2673 983.3995 438.4773 976.5595C715.8173 820.3095 811.5273 754.8795 811.5273 576.6595ZM395.5073 895.9995C389.6473 894.5295 383.2973 891.1095 375.4873 886.2295C150.3873 749.0195 77.6373 709.4695 77.6373 558.5895V218.2595C77.6373 201.6595 80.5673 194.8195 94.2373 189.9395C169.9173 164.0595 312.4973 112.3095 386.2273 83.0095C390.1373 81.5395 393.0673 80.5695 395.5073 80.0795Z"/>
</svg>