<?xml version="1.0" encoding="UTF-8" standalone="no"?>
<svg xmlns="http://www.w3.org/2000/svg"
     width="1050.29296875" height="906.25"
     viewBox="0 0 1050.29296875 906.25"
     fill="currentColor">
  <path d="M374.5106 906.2538H675.7806C744.1406 906.2538 780.7606 866.2138 780.7606 801.7538V583.0038H979.0006C1019.0406 583.0038 1050.2906 558.5938 1050.2906 521.4838C1050.2906 498.5338 1038.5706 481.4438 1021.0006 463.8638L585.4506 29.7838C566.4106 10.7437 546.8706 0.0037 524.9006 0.0037C503.4206 0.0037 483.4006 10.7437 464.8406 29.7838L29.3006 463.8638C10.2506 482.4238 0.0006 498.5338 0.0006 521.4838C0.0006 558.5938 31.2506 583.0038 70.8006 583.0038H269.5306V801.7538C269.5306 866.2138 306.1506 906.2538 374.5106 906.2538ZM382.3206 830.5638C363.7706 830.5638 351.0706 817.8738 351.0706 799.8038V525.8838C351.0706 513.6737 346.6806 509.2738 334.9606 509.2738H109.3706C105.9606 509.2738 104.0006 507.8138 104.0006 505.3738C104.0006 503.4138 104.9806 501.9538 106.9306 499.5138L514.6506 94.2337C518.5506 90.3338 521.9706 89.3537 524.9006 89.3537C528.3206 89.3537 531.7406 90.3338 535.1606 94.2337L942.8706 499.5138C945.3106 501.9538 945.8006 503.4138 945.8006 505.3738C945.8006 507.8138 944.3406 509.2738 940.4306 509.2738H715.3306C703.6106 509.2738 699.2206 513.6737 699.2206 525.8838V799.8038C699.2206 817.3838 686.0306 830.5638 667.9706 830.5638Z"/>
</svg>