<?xml version="1.0" encoding="UTF-8" standalone="no"?>
<svg xmlns="http://www.w3.org/2000/svg"
     width="1050.29296875" height="906.25"
     viewBox="0 0 1050.29296875 906.25"
     fill="currentColor">
  <path d="M374.5106 906.2538H675.7806C744.1406 906.2538 780.7606 866.2138 780.7606 801.7538V583.0038H979.0006C1019.0406 583.0038 1050.2906 558.5938 1050.2906 521.4838C1050.2906 498.5338 1038.5706 481.4438 1021.0006 463.8638L585.4506 29.7838C566.4106 10.7437 546.8706 0.0037 524.9006 0.0037C503.4206 0.0037 483.4006 10.7437 464.8406 29.7838L29.3006 463.8638C10.2506 482.4238 0.0006 498.5338 0.0006 521.4838C0.0006 558.5938 31.2506 583.0038 70.8006 583.0038H269.5306V801.7538C269.5306 866.2138 306.1506 906.2538 374.5106 906.2538Z"/>
</svg>