<?xml version="1.0" encoding="UTF-8" standalone="no"?>
<svg xmlns="http://www.w3.org/2000/svg"
     width="985.83984375" height="1064.8193359375"
     viewBox="0 0 985.83984375 1064.8193359375"
     fill="currentColor">
  <path d="M68.3583 835.3307L452.6383 1053.1007C479.9783 1068.7207 505.8583 1068.7207 533.6883 1053.1007L917.4783 835.3307C962.3983 809.4507 985.8383 784.0607 985.8383 714.2307V327.5107C985.8383 276.7307 967.2883 245.4807 926.2683 221.5607L580.5683 25.2707C521.4883 -8.4193 464.3583 -8.4193 405.2783 25.2707L60.0583 221.5607C18.5583 245.4807 -0.0017 276.7307 -0.0017 327.5107V714.2307C-0.0017 784.0607 23.9283 809.4507 68.3583 835.3307ZM722.6583 362.1807L344.2383 148.3107L437.9883 95.0907C475.5883 73.6107 510.2583 73.1207 548.3383 95.0907L870.1183 278.6907ZM493.1683 492.0607L116.2083 278.6907L267.0883 192.2607L644.0383 406.6207ZM112.3083 770.8707C83.9883 754.7607 74.2183 738.6507 74.2183 711.7907V343.1407L454.5883 560.4207V965.7007ZM874.0283 770.8707L531.2483 965.7007V560.4207L911.6183 343.1407V711.7907C911.6183 738.6507 901.8583 754.7607 874.0283 770.8707Z"/>
</svg>