<?xml version="1.0" encoding="UTF-8" standalone="no"?>
<svg xmlns="http://www.w3.org/2000/svg"
     width="996.09375" height="996.09375"
     viewBox="0 0 996.09375 996.09375"
     fill="currentColor">
  <path d="M498.0477 996.0959C770.5077 996.0959 996.0977 770.0159 996.0977 498.0459C996.0977 225.5859 770.0177 -0.0041 497.5577 -0.0041C225.5877 -0.0041 -0.0023 225.5859 -0.0023 498.0459C-0.0023 770.0159 226.0777 996.0959 498.0477 996.0959ZM646.9777 398.4359L396.9777 256.3459L450.6877 226.0759C466.7977 216.7959 482.9077 211.9159 498.0477 211.9159C513.6677 211.9159 529.7877 216.7959 545.8977 226.0759L730.9577 332.0359C736.8177 334.9559 742.1877 338.3759 745.6077 342.2859ZM498.0477 482.9059L250.4877 342.2859C253.9077 338.3759 258.7877 334.9559 265.1377 332.0359L361.8177 276.8559L610.3477 418.9459ZM516.1177 784.1759V514.1559L762.6977 373.0459C764.6477 378.9059 765.1377 385.7459 765.1377 393.0659V598.1459C765.1377 636.2259 750.9777 649.9059 727.5377 664.0659L520.9977 781.7359C519.5277 782.7159 518.0677 783.6959 516.1177 784.1759ZM479.9777 784.1759C478.0277 783.6959 476.5577 782.7159 474.6077 781.7359L268.5577 664.0659C244.6277 649.9059 231.9377 636.2259 231.9377 598.1459V393.0659C231.9377 385.7459 231.9377 378.9059 233.3977 373.0459L479.9777 514.1559Z"/>
</svg>