<?xml version="1.0" encoding="UTF-8" standalone="no"?>
<svg xmlns="http://www.w3.org/2000/svg"
     width="1420.8984375" height="1062.5"
     viewBox="0 0 1420.8984375 1062.5"
     fill="currentColor">
  <path d="M1202.1506 346.1897L1385.7406 241.6997C1378.4206 234.3797 1369.6306 228.5197 1358.8906 222.6597L1014.1606 26.3697C984.3706 9.2797 954.5906 -0.0003 925.7806 -0.0003C896.4806 -0.0003 866.7006 9.2797 836.9106 26.3697L737.7906 82.5197ZM925.7806 502.9297L1134.2806 384.7697L671.8706 120.6097L492.6806 222.6597C481.9306 228.5197 473.1406 234.3797 465.3306 241.6997ZM434.0806 299.7997C431.1506 310.5497 430.1806 322.2697 430.1806 336.9097V492.6797H575.6806C633.7906 492.6797 667.4806 526.8597 667.4806 585.9397C667.4806 645.0197 633.7906 679.1997 575.6806 679.1997H430.1806V717.2897C430.1806 788.0897 455.0806 814.4497 500.0006 840.3297L882.8106 1058.1097C885.7406 1060.0597 888.6706 1061.5197 892.0906 1062.4997V561.5197ZM958.9806 1062.4997C962.4006 1061.5197 965.3306 1060.0597 968.7506 1058.1097L1351.0706 840.3297C1396.4806 814.4497 1420.9006 788.0897 1420.9006 717.2897V336.9097C1420.9006 322.2697 1419.9206 310.5497 1416.9906 299.7997L958.9806 561.5197ZM617.6806 585.9397C617.6806 560.5497 599.6106 542.4797 574.7106 542.4797H246.5806L127.4406 546.3897L229.4906 453.6097L296.8706 394.0397C307.6206 384.7697 311.0306 372.5597 311.0306 360.8397C311.0306 336.4297 292.4806 318.8497 268.0706 318.8497C256.8406 318.8497 246.5806 322.7497 236.8206 332.0297L15.1406 553.2197C5.3706 562.4997 0.0006 573.7297 0.0006 585.9397C0.0006 598.1397 5.3706 609.3797 15.1406 618.6497L235.3506 838.3797C246.0906 849.1197 256.8406 853.0297 268.0706 853.0297C292.4806 853.0297 311.0306 835.4497 311.0306 811.0397C311.0306 799.3197 308.1006 787.1097 296.8706 777.8297L229.4906 718.2597L127.4406 625.4897L246.5806 629.3897H574.7106C599.6106 629.3897 617.6806 611.3297 617.6806 585.9397Z"/>
</svg>