<?xml version="1.0" encoding="UTF-8" standalone="no"?>
<svg xmlns="http://www.w3.org/2000/svg"
     width="1132.708281893291" height="1059.32376016378"
     viewBox="0 0 1132.708281893291 1059.32376016378"
     fill="currentColor">
  <path d="M706.54 22.698L519.53 537.838C513.18 555.908 521.97 575.438 540.04 581.788C558.11 588.618 577.64 578.858 583.98 561.768L771.97 46.628C778.32 28.558 769.04 9.028 750.98 2.198C733.4 -4.642 712.89 5.128 706.54 22.698ZM491.7 519.288L672.85 20.258C578.61 -3.662 488.77 15.378 422.36 73.968L413.09 70.558C352.54 48.578 295.9 80.318 269.53 152.098L56.15 739.008C43.95 773.188 52.73 804.928 78.61 824.948L0 1040.768L50.78 1059.328L129.39 843.018C162.11 844.478 189.45 826.418 201.66 792.718L352.05 377.688C376.95 437.258 425.29 487.058 491.7 519.288ZM1132.32 131.588C1128.91 111.568 1111.82 97.408 1092.29 99.848C1072.27 101.808 1058.59 121.338 1061.52 139.888C1063.96 159.908 1081.54 173.578 1101.07 170.648C1121.09 168.698 1135.25 150.148 1132.32 131.588ZM1000 148.678C998.05 128.658 979 114.988 959.47 117.428C940.43 120.848 925.78 138.428 928.22 158.938C931.15 176.998 949.22 191.158 969.24 189.208C988.77 186.278 1002.93 168.208 1000 148.678ZM868.16 165.768C864.26 146.238 847.66 133.538 827.15 136.468C806.64 139.398 792.97 155.518 795.9 175.538C798.34 195.068 815.92 208.738 836.43 206.788C856.93 203.858 870.12 185.788 868.16 165.768ZM806.64 344.968C813.48 326.898 803.22 305.908 784.67 299.558C766.11 292.718 745.12 301.508 738.28 320.558C731.45 339.598 740.72 361.568 759.77 368.408C778.81 375.238 799.32 364.988 806.64 344.968ZM931.64 391.848C938.48 373.288 928.71 352.778 909.67 345.948C891.11 339.108 871.58 347.898 864.75 367.428C857.91 385.498 866.7 406.008 885.74 412.838C904.79 419.678 924.8 410.398 931.64 391.848ZM1057.62 436.768C1064.45 418.208 1054.69 397.698 1036.13 390.868C1017.09 384.028 996.09 393.308 989.26 411.858C982.42 430.418 991.7 452.878 1010.74 459.718C1029.79 466.548 1050.78 455.808 1057.62 436.768ZM736.82 524.168C752.44 510.008 753.42 488.038 740.23 472.898C726.07 457.268 703.13 455.318 688.48 469.968C673.83 485.108 672.85 507.078 687.01 521.728C700.68 535.398 722.66 537.838 736.82 524.168ZM827.64 622.798C842.77 608.638 843.26 585.688 829.1 570.068C816.41 556.878 793.95 555.908 778.81 569.578C764.65 582.758 763.67 605.708 776.37 619.378C791.02 634.028 812.99 635.988 827.64 622.798ZM917.48 720.458C931.15 706.788 933.11 685.788 919.92 669.678C906.25 655.028 883.3 655.028 869.14 669.188C855.47 682.368 853.03 704.348 866.21 718.988C879.88 734.128 903.32 734.128 917.48 720.458Z"/>
</svg>