<?xml version="1.0" encoding="UTF-8" standalone="no"?>
<svg xmlns="http://www.w3.org/2000/svg"
     width="996.09375" height="996.09375"
     viewBox="0 0 996.09375 996.09375"
     fill="currentColor">
  <path d="M498.0477 996.0959C770.5077 996.0959 996.0977 770.0159 996.0977 498.0459C996.0977 225.5859 770.0177 -0.0041 497.5577 -0.0041C225.5877 -0.0041 -0.0023 225.5859 -0.0023 498.0459C-0.0023 770.0159 226.0777 996.0959 498.0477 996.0959ZM498.0477 913.0859C267.5777 913.0859 83.4977 728.5159 83.4977 498.0459C83.4977 267.5759 267.0877 83.0059 497.5577 83.0059C728.0277 83.0059 913.0877 267.5759 913.0877 498.0459C913.0877 728.5159 728.5177 913.0859 498.0477 913.0859ZM195.7977 628.9059C195.7977 645.5059 208.9877 657.7159 227.0477 657.7159H285.1577C329.0977 657.7159 355.9577 645.0159 388.1877 607.9059L443.8477 542.9659L499.5077 607.9059C531.7377 645.0159 559.0777 657.7159 603.0277 657.7159H647.9477V712.8859C647.9477 727.5359 657.2277 736.8159 671.8777 736.8159C678.7077 736.8159 685.0577 734.3759 689.9377 730.4659L786.1377 650.8759C797.8477 641.1159 797.8477 624.5159 786.6177 615.2359L690.4277 535.6459C686.0377 530.7659 679.1977 528.3159 671.8777 528.3159C657.7177 528.3159 647.9477 538.0859 647.9477 552.7359V600.0959H604.9777C578.1277 600.0959 562.4977 591.7959 541.9877 567.8759L482.4177 498.0459L541.9877 428.2259C562.4977 404.2959 578.1277 395.9959 604.9777 395.9959H647.9477V444.8259C647.9477 459.4759 657.7177 469.2359 671.8777 469.2359C679.1977 469.2359 686.0377 466.7959 690.4277 461.9159L786.1377 383.2959C797.3677 374.0259 797.8477 356.9359 786.6177 347.1659L689.9377 267.0859C685.0577 263.1859 678.7077 260.7459 671.8777 260.7459C657.2277 260.7459 647.9477 270.0159 647.9477 284.6659V338.3759H603.0277C559.0777 338.3759 531.7377 351.0759 499.5077 388.1859L443.8477 453.1259L388.1877 388.1859C355.9577 351.0759 329.0977 338.3759 285.1577 338.3759H227.0477C208.9877 338.3759 195.7977 350.5859 195.7977 367.1859C195.7977 383.2959 209.4777 395.9959 227.0477 395.9959H286.1377C310.0577 395.9959 325.6877 404.2959 346.1877 428.2259L405.7577 498.0459L346.1877 567.8759C325.1977 592.2859 310.0577 600.0959 286.1377 600.0959H227.0477C209.4777 600.0959 195.7977 612.7959 195.7977 628.9059Z"/>
</svg>