<?xml version="1.0" encoding="UTF-8" standalone="no"?>
<svg xmlns="http://www.w3.org/2000/svg"
     width="1151.3671875" height="898.92578125"
     viewBox="0 0 1151.3671875 898.92578125"
     fill="currentColor">
  <path d="M153.3183 898.9295H998.0483C1100.5883 898.9295 1151.3683 848.1495 1151.3683 747.5595V151.3695C1151.3683 50.7795 1100.5883 -0.0005 998.0483 -0.0005H153.3183C51.2683 -0.0005 -0.0017 50.2895 -0.0017 151.3695V747.5595C-0.0017 848.6295 51.2683 898.9295 153.3183 898.9295ZM154.2983 820.3095C105.4683 820.3095 78.6183 794.4295 78.6183 743.6495V155.2695C78.6183 104.4895 105.4683 78.6095 154.2983 78.6095H372.0683V820.3095ZM997.0683 78.6095C1045.4083 78.6095 1072.7583 104.4895 1072.7583 155.2695V743.6495C1072.7583 794.4295 1045.4083 820.3095 997.0683 820.3095H448.7283V78.6095ZM278.3183 259.7695C292.9683 259.7695 306.1483 246.5795 306.1483 232.4195C306.1483 217.7695 292.9683 205.0795 278.3183 205.0795H173.3383C158.6883 205.0795 145.9983 217.7695 145.9983 232.4195C145.9983 246.5795 158.6883 259.7695 173.3383 259.7695ZM278.3183 386.2295C292.9683 386.2295 306.1483 373.0495 306.1483 358.3995C306.1483 343.7495 292.9683 331.5395 278.3183 331.5395H173.3383C158.6883 331.5395 145.9983 343.7495 145.9983 358.3995C145.9983 373.0495 158.6883 386.2295 173.3383 386.2295ZM278.3183 512.2095C292.9683 512.2095 306.1483 499.9995 306.1483 485.3495C306.1483 470.6995 292.9683 458.0095 278.3183 458.0095H173.3383C158.6883 458.0095 145.9983 470.6995 145.9983 485.3495C145.9983 499.9995 158.6883 512.2095 173.3383 512.2095Z"/>
</svg>