<?xml version="1.0" encoding="UTF-8" standalone="no"?>
<svg xmlns="http://www.w3.org/2000/svg"
     width="1151.3671875" height="898.92578125"
     viewBox="0 0 1151.3671875 898.92578125"
     fill="currentColor">
  <path d="M153.3183 898.9295H998.0483C1100.5883 898.9295 1151.3683 848.1495 1151.3683 747.5595V151.3695C1151.3683 50.7795 1100.5883 -0.0005 998.0483 -0.0005H153.3183C51.2683 -0.0005 -0.0017 50.2895 -0.0017 151.3695V747.5595C-0.0017 848.6295 51.2683 898.9295 153.3183 898.9295ZM154.2983 820.3095C105.4683 820.3095 78.6183 794.4295 78.6183 743.6495V155.2695C78.6183 104.4895 105.4683 78.6095 154.2983 78.6095H372.0683V820.3095ZM997.0683 78.6095C1045.4083 78.6095 1072.7583 104.4895 1072.7583 155.2695V743.6495C1072.7583 794.4295 1045.4083 820.3095 997.0683 820.3095H448.7283V78.6095ZM179.6883 312.0095H271.9683C284.1783 312.0095 293.9483 303.2195 293.9483 290.0395V198.7295C293.9483 185.0595 284.6683 176.2695 271.9683 176.2695H179.6883C166.0183 176.2695 156.7383 185.0595 156.7383 198.7295V290.0395C156.7383 303.2195 166.5083 312.0095 179.6883 312.0095ZM179.6883 517.0895H271.9683C284.1783 517.0895 293.9483 507.3195 293.9483 495.1195V402.8295C293.9483 390.1395 284.6683 380.3695 271.9683 380.3695H179.6883C166.0183 380.3695 156.7383 390.1395 156.7383 402.8295V495.1195C156.7383 507.3195 166.5083 517.0895 179.6883 517.0895ZM179.6883 721.1895H271.9683C284.1783 721.1895 293.9483 712.3995 293.9483 699.2195V607.9095C293.9483 594.7295 284.6683 585.4495 271.9683 585.4495H179.6883C166.0183 585.4495 156.7383 594.7295 156.7383 607.9095V699.2195C156.7383 712.3995 166.5083 721.1895 179.6883 721.1895Z"/>
</svg>