<?xml version="1.0" encoding="UTF-8" standalone="no"?>
<svg xmlns="http://www.w3.org/2000/svg"
     width="1151.3671875" height="898.92578125"
     viewBox="0 0 1151.3671875 898.92578125"
     fill="currentColor">
  <path d="M153.3183 898.9295H998.0483C1100.5883 898.9295 1151.3683 848.1495 1151.3683 747.5595V151.3695C1151.3683 50.7795 1100.5883 -0.0005 998.0483 -0.0005H153.3183C51.2683 -0.0005 -0.0017 50.2895 -0.0017 151.3695V747.5595C-0.0017 848.6295 51.2683 898.9295 153.3183 898.9295ZM154.2983 820.3095C105.4683 820.3095 78.6183 794.4295 78.6183 743.6495V155.2695C78.6183 104.4895 105.4683 78.6095 154.2983 78.6095H704.0983V820.3095ZM997.0683 78.6095C1045.4083 78.6095 1072.7583 104.4895 1072.7583 155.2695V743.6495C1072.7583 794.4295 1045.4083 820.3095 997.0683 820.3095H780.7583V78.6095ZM973.1483 312.0095C986.3283 312.0095 995.6083 303.2195 995.6083 290.0395V198.7295C995.6083 185.0595 986.8183 176.2695 973.1483 176.2695H880.8583C868.1683 176.2695 858.8883 185.0595 858.8883 198.7295V290.0395C858.8883 303.2195 868.6483 312.0095 880.8583 312.0095ZM973.1483 517.0895C986.3283 517.0895 995.6083 507.3195 995.6083 495.1195V402.8295C995.6083 390.1395 986.8183 380.3695 973.1483 380.3695H880.8583C868.1683 380.3695 858.8883 390.1395 858.8883 402.8295V495.1195C858.8883 507.3195 868.6483 517.0895 880.8583 517.0895ZM973.1483 721.1895C986.3283 721.1895 995.6083 712.3995 995.6083 699.2195V607.9095C995.6083 594.7295 986.8183 585.4495 973.1483 585.4495H880.8583C868.1683 585.4495 858.8883 594.7295 858.8883 607.9095V699.2195C858.8883 712.3995 868.6483 721.1895 880.8583 721.1895Z"/>
</svg>