<?xml version="1.0" encoding="UTF-8" standalone="no"?>
<svg xmlns="http://www.w3.org/2000/svg"
     width="1151.3671875" height="898.92578125"
     viewBox="0 0 1151.3671875 898.92578125"
     fill="currentColor">
  <path d="M153.3183 898.9295H998.0483C1100.5883 898.9295 1151.3683 848.1495 1151.3683 747.5595V151.3695C1151.3683 50.7795 1100.5883 -0.0005 998.0483 -0.0005H153.3183C51.2683 -0.0005 -0.0017 50.2895 -0.0017 151.3695V747.5595C-0.0017 848.6295 51.2683 898.9295 153.3183 898.9295ZM154.2983 820.3095C105.4683 820.3095 78.6183 794.4295 78.6183 743.6495V155.2695C78.6183 104.4895 105.4683 78.6095 154.2983 78.6095H704.0983V820.3095ZM997.0683 78.6095C1045.4083 78.6095 1072.7583 104.4895 1072.7583 155.2695V743.6495C1072.7583 794.4295 1045.4083 820.3095 997.0683 820.3095H780.7583V78.6095ZM874.5083 259.7695H979.0083C994.1383 259.7695 1006.8383 246.5795 1006.8383 232.4195C1006.8383 217.7695 994.1383 205.0795 979.0083 205.0795H874.5083C859.8683 205.0795 846.6783 217.7695 846.6783 232.4195C846.6783 246.5795 859.8683 259.7695 874.5083 259.7695ZM874.5083 386.2295H979.0083C994.1383 386.2295 1006.8383 373.0495 1006.8383 358.3995C1006.8383 343.7495 994.1383 331.5395 979.0083 331.5395H874.5083C859.8683 331.5395 846.6783 343.7495 846.6783 358.3995C846.6783 373.0495 859.8683 386.2295 874.5083 386.2295ZM874.5083 512.2095H979.0083C994.1383 512.2095 1006.8383 499.9995 1006.8383 485.3495C1006.8383 470.6995 994.1383 458.0095 979.0083 458.0095H874.5083C859.8683 458.0095 846.6783 470.6995 846.6783 485.3495C846.6783 499.9995 859.8683 512.2095 874.5083 512.2095Z"/>
</svg>