<?xml version="1.0" encoding="UTF-8" standalone="no"?>
<svg xmlns="http://www.w3.org/2000/svg"
     width="1000.4891134902734" height="1027.83203125"
     viewBox="0 0 1000.4891134902734 1027.83203125"
     fill="currentColor">
  <path d="M103.5183 622.5592L412.1083 622.0692V949.2192H263.6683C242.1883 949.2192 224.1183 967.2892 224.1183 988.7692C224.1183 1010.2492 242.1883 1027.8292 263.6683 1027.8292H639.6483C661.1283 1027.8292 679.1983 1010.2492 679.1983 988.7692C679.1983 967.2892 661.1283 949.2192 639.6483 949.2192H490.7183V622.0692H740.7183C785.1583 622.0692 805.1783 608.8892 830.0783 584.9592L960.4483 460.4492C1013.1883 410.1592 1014.6483 360.8392 959.9583 308.1092L830.0783 184.5692C805.1783 160.1592 785.1583 146.9692 741.2083 146.9692H490.7183V39.5492C490.7183 18.0692 472.6583 -0.0008 451.1683 -0.0008C429.6883 -0.0008 412.1083 18.0692 412.1083 39.5492V146.9692H103.5183C37.1083 146.9692 -0.0017 183.1092 -0.0017 248.5392V520.5092C-0.0017 585.9392 37.1083 622.5592 103.5183 622.5592ZM105.4683 543.9492C90.3283 543.9492 80.5683 533.6892 80.5683 518.0692V250.9792C80.5683 235.3492 90.3283 225.5892 105.4683 225.5892H738.7683C757.8083 225.5892 764.6483 229.9792 773.9283 238.2792L907.7183 365.2392C920.4083 376.9492 920.4083 391.5992 907.7183 403.3192L773.4383 531.2492C764.1583 539.5492 757.8083 543.9492 738.2783 543.9492Z"/>
</svg>