<?xml version="1.0" encoding="UTF-8" standalone="no"?>
<svg xmlns="http://www.w3.org/2000/svg"
     width="996.09375" height="996.09375"
     viewBox="0 0 996.09375 996.09375"
     fill="currentColor">
  <path d="M498.0477 996.0959C770.5077 996.0959 996.0977 770.0159 996.0977 498.0459C996.0977 225.5859 770.0177 -0.0041 497.5577 -0.0041C225.5877 -0.0041 -0.0023 225.5859 -0.0023 498.0459C-0.0023 770.0159 226.0777 996.0959 498.0477 996.0959ZM498.0477 913.0859C267.5777 913.0859 83.4977 728.5159 83.4977 498.0459C83.4977 267.5759 267.0877 83.0059 497.5577 83.0059C728.0277 83.0059 913.0877 267.5759 913.0877 498.0459C913.0877 728.5159 728.5177 913.0859 498.0477 913.0859ZM414.0577 434.5659H470.2177V474.6059H348.1477C333.9877 474.6059 324.2177 478.5159 314.9377 486.8159L267.5777 532.7159C249.0277 550.2959 249.0277 567.3859 267.5777 584.9559L314.9377 630.3759C324.2177 639.1559 334.4777 643.0659 348.1477 643.0659H470.2177V722.6559H409.6677C395.0177 722.6559 383.2977 734.3759 383.2977 749.5159C383.2977 764.6459 395.0177 776.8559 409.6677 776.8559H583.9877C599.1177 776.8559 611.3277 764.6459 611.3277 749.5159C611.3277 734.3759 599.1177 722.6559 583.9877 722.6559H524.4177V643.0659H580.0777C602.0477 643.0659 615.2377 630.3759 615.2377 607.9059V509.2759C615.2377 486.8159 602.0477 474.6059 580.0777 474.6059H524.4177V434.5659H645.9977C659.6677 434.5659 669.9177 430.6659 679.1977 421.8759L727.0477 376.4659C745.1177 359.3759 745.1177 342.2859 726.5577 324.2159L679.1977 278.3159C669.9177 270.0159 660.1577 266.1159 645.9977 266.1159H524.4177V225.5859C524.4177 210.9359 512.2077 198.2459 497.0677 198.2459C481.9377 198.2459 470.2177 210.9359 470.2177 225.5859V266.1159H414.0577C392.0877 266.1159 378.9077 278.3159 378.9077 301.2659V399.9059C378.9077 421.8759 392.0877 434.5659 414.0577 434.5659Z"/>
</svg>