<?xml version="1.0" encoding="UTF-8" standalone="no"?>
<svg xmlns="http://www.w3.org/2000/svg"
     width="1467.28515625" height="1075.1953125"
     viewBox="0 0 1467.28515625 1075.1953125"
     fill="currentColor">
  <path d="M39.0583 896.4861H357.4183C354.4883 911.6261 353.0283 926.2661 353.0283 940.4261C353.0283 1019.0461 397.4583 1075.1961 489.2583 1075.1961C593.7483 1075.1961 679.6883 1006.8361 738.2783 896.4861H1427.7383C1449.2183 896.4861 1467.2883 878.4161 1467.2883 856.9361C1467.2883 835.4461 1449.2183 817.8761 1427.7383 817.8761H772.9483C802.2483 736.3261 819.8283 639.6461 823.2383 534.6661C854.0083 527.8361 886.2283 524.4161 919.4383 524.4161C936.5283 524.4161 946.2883 531.7361 946.2883 544.4361C946.2883 586.9161 923.3383 620.1161 923.3383 662.5961C923.3383 699.7061 950.1983 722.1661 986.3283 722.1661C1085.4483 722.1661 1204.5883 552.7361 1244.6283 552.7361C1280.7583 552.7361 1235.8383 705.0761 1358.3983 705.0761C1378.9083 705.0761 1404.7883 699.7061 1424.8083 686.5261C1436.5283 678.7061 1444.8283 666.9961 1444.8283 651.8561C1444.8283 633.2961 1432.6183 618.1661 1413.5783 618.1661C1396.4883 618.1661 1382.3283 632.3261 1365.7183 632.3261C1312.9883 632.3261 1363.2783 470.2161 1266.1183 470.2161C1180.6683 470.2161 1048.3383 635.2561 1014.1583 635.2561C1010.2583 635.2561 1006.8383 632.8161 1006.8383 626.9561C1006.8383 609.3761 1028.3183 569.3361 1028.3183 530.2761C1028.3183 481.4461 987.7883 450.1961 924.8083 450.1961C889.6483 450.1961 855.9583 453.6161 823.2383 459.9561C812.4983 202.1461 690.4283 -0.0039 503.9083 -0.0039C378.4183 -0.0039 281.2483 106.9361 281.2483 243.1661C281.2483 402.3461 385.2583 538.5761 514.1583 628.9061C454.5883 687.4961 408.6883 754.3961 381.8383 817.8761H39.0583C17.5783 817.8761 -0.0017 835.4461 -0.0017 856.9361C-0.0017 878.4161 17.5783 896.4861 39.0583 896.4861ZM355.9583 243.1661C355.9583 147.9461 420.4083 74.2161 503.9083 74.2161C650.3883 74.2161 745.1183 256.3461 749.5083 479.9761C682.1283 503.4161 620.6083 539.0661 567.3783 581.5461C465.3283 511.2261 355.9583 395.0161 355.9583 243.1661ZM25.3883 706.0561C38.0883 718.7461 57.1283 718.2661 69.8283 706.0561L131.3483 645.0161L192.3783 706.0561C205.0783 718.7461 224.1183 718.7461 236.8183 706.0561C249.9983 693.3561 249.9983 673.8261 236.8183 661.1361L175.7783 600.5861L236.8183 539.5461C249.9983 526.8561 249.9983 507.8161 236.8183 495.1161C224.1183 481.9361 205.0783 482.4261 192.3783 495.1161L131.3483 555.6661L69.8283 495.1161C57.1283 481.9361 38.0883 481.9361 25.3883 495.1161C12.2083 507.8161 12.2083 527.3461 25.3883 539.5461L86.4283 600.5861L25.3883 661.1361C12.2083 674.3161 12.2083 693.3561 25.3883 706.0561ZM620.1183 690.4261C626.9483 693.3561 632.8083 694.8261 638.6683 694.8261C658.1983 694.8261 672.8483 679.1961 672.8483 662.1061C672.8483 650.3861 666.5083 638.6761 652.3483 631.8361C645.9983 628.4161 638.6683 624.9961 631.8383 621.0961C666.9883 596.1961 705.5683 574.2161 747.5583 557.6161C742.1883 655.2761 722.6583 745.1161 693.3583 817.8761H459.9583C484.8683 767.5761 524.4183 714.3561 575.1983 666.9961C590.3283 675.2961 605.4683 683.1061 620.1183 690.4261ZM429.1983 926.2661C429.1983 916.9961 430.1783 906.7361 432.1283 896.4861H652.8283C610.8383 961.9161 557.6183 1000.9761 498.0483 1000.9761C451.1683 1000.9761 429.1983 970.2161 429.1983 926.2661Z"/>
</svg>