<?xml version="1.0" encoding="UTF-8" standalone="no"?>
<svg xmlns="http://www.w3.org/2000/svg"
     width="880.859375" height="1027.83203125"
     viewBox="0 0 880.859375 1027.83203125"
     fill="currentColor">
  <path d="M212.8883 988.7692C212.8883 1010.2492 230.9583 1027.8292 252.4383 1027.8292H628.4183C650.3883 1027.8292 667.9683 1010.2492 667.9683 988.7692C667.9683 967.2892 650.3883 949.2192 628.4183 949.2192H479.4883V622.5592H777.3483C843.7483 622.5592 880.8583 585.9392 880.8583 520.5092V219.2392C880.8583 153.8092 843.7483 117.6792 777.3483 117.6792H479.4883V39.5492C479.4883 18.0692 461.9183 -0.0008 440.4283 -0.0008C418.9483 -0.0008 400.8783 18.0692 400.8783 39.5492V117.6792H103.5183C37.1083 117.6792 -0.0017 153.8092 -0.0017 219.2392V520.5092C-0.0017 585.9392 37.1083 622.5592 103.5183 622.5592H400.8783V949.2192H252.4383C230.9583 949.2192 212.8883 967.2892 212.8883 988.7692ZM323.2383 479.9792C286.1283 479.9792 276.3683 455.0792 297.3683 426.2692L412.1083 262.6992C428.2183 239.2592 453.1283 239.2592 469.7283 262.6992L584.4683 426.7592C604.4883 455.0792 594.2383 479.9792 558.5983 479.9792Z"/>
</svg>