<?xml version="1.0" encoding="UTF-8" standalone="no"?>
<svg xmlns="http://www.w3.org/2000/svg"
     width="996.09375" height="996.09375"
     viewBox="0 0 996.09375 996.09375"
     fill="currentColor">
  <path d="M498.0477 996.0959C770.5077 996.0959 996.0977 770.0159 996.0977 498.0459C996.0977 225.5859 770.0177 -0.0041 497.5577 -0.0041C225.5877 -0.0041 -0.0023 225.5859 -0.0023 498.0459C-0.0023 770.0159 226.0777 996.0959 498.0477 996.0959ZM498.0477 913.0859C267.5777 913.0859 83.4977 728.5159 83.4977 498.0459C83.4977 267.5759 267.0877 83.0059 497.5577 83.0059C728.0277 83.0059 913.0877 267.5759 913.0877 498.0459C913.0877 728.5159 728.5177 913.0859 498.0477 913.0859ZM253.9077 500.4859C253.9077 536.6259 273.9277 556.6359 310.5477 556.6359H470.7077V735.3559H393.0677C378.4177 735.3559 365.7277 748.0459 365.7277 762.6959C365.7277 777.3459 378.4177 789.5459 393.0677 789.5459H602.0477C616.6977 789.5459 629.3977 776.8559 629.3977 762.6959C629.3977 748.0459 616.6977 735.3559 602.0477 735.3559H524.8977V556.6359H684.5677C721.1877 556.6359 741.6977 536.6259 741.6977 500.4859V334.4759C741.6977 298.3359 721.1877 278.3159 684.5677 278.3159H524.8977V233.3959C524.8977 218.7459 512.2077 206.5459 497.5577 206.5459C482.9077 206.5459 470.7077 218.7459 470.7077 233.3959V278.3159H310.5477C273.9277 278.3159 253.9077 298.3359 253.9077 334.4759ZM417.9677 449.2159L482.4177 357.4259C490.7277 345.2159 504.8877 344.7259 513.6677 357.4259L577.6377 449.2159C588.3777 464.8459 583.0077 478.0259 563.9677 478.0259H432.6177C412.1077 478.0259 407.2277 464.8459 417.9677 449.2159Z"/>
</svg>