<?xml version="1.0" encoding="UTF-8" standalone="no"?>
<svg xmlns="http://www.w3.org/2000/svg"
     width="821.2890625" height="1046.875"
     viewBox="0 0 821.2890625 1046.875"
     fill="currentColor">
  <path d="M151.3683 1046.8783H669.9183C770.9983 1046.8783 821.2883 995.6083 821.2883 894.0383V346.6783C821.2883 298.3383 812.4983 274.4183 785.1583 246.5783L577.6383 39.5483C549.3183 10.7383 521.4883 -0.0017 477.5383 -0.0017H151.3683C50.7783 -0.0017 -0.0017 51.7583 -0.0017 153.3183V894.0383C-0.0017 996.0983 50.2883 1046.8783 151.3683 1046.8783ZM177.7383 582.0283V520.9983C177.7383 478.5183 203.6183 452.6383 245.1183 452.6383H459.4683V885.7383H365.7183V611.3283C365.7183 593.2583 354.9783 582.0283 336.4283 582.0283ZM513.6683 885.7383V452.6383H576.6583C618.1683 452.6383 644.5283 478.5183 644.5283 520.9983V817.8683C644.5283 859.8583 618.1683 885.7383 576.6583 885.7383ZM177.7383 817.8683V636.2283H303.7083C308.5983 636.2283 311.5283 638.6683 311.5283 643.5583V885.7383H245.1183C203.6183 885.7383 177.7383 859.8583 177.7383 817.8683Z"/>
</svg>