<?xml version="1.0" encoding="UTF-8" standalone="no"?>
<svg xmlns="http://www.w3.org/2000/svg"
     width="1157.71484375" height="1078.125"
     viewBox="0 0 1157.71484375 1078.125"
     fill="currentColor">
  <path d="M-0.0017 733.395C-0.0017 793.455 49.3183 842.775 109.3783 842.775C151.8583 842.775 189.4483 817.385 207.0283 781.245L943.3583 996.585C955.0783 1043.455 998.0483 1078.125 1048.8283 1078.125C1108.3983 1078.125 1157.7183 1029.295 1157.7183 969.235C1157.7183 923.825 1129.3983 884.765 1090.3283 868.655L1069.3383 376.465C1111.3283 361.815 1141.5983 321.775 1141.5983 274.415C1141.5983 214.355 1092.7783 165.525 1033.1983 165.525C993.1683 165.525 958.4983 187.015 938.9683 218.265L532.2283 106.935C530.7583 47.855 482.4183 -0.005 423.8283 -0.005C363.7683 -0.005 314.4483 49.315 314.4483 109.375C314.4483 141.605 328.6183 170.415 351.0783 190.915L124.5083 626.465C119.1383 624.995 114.2583 624.515 109.3783 624.515C49.3183 624.515 -0.0017 673.335 -0.0017 733.395ZM188.4783 659.175L415.5283 216.795C453.6183 221.675 490.2383 203.615 509.7683 173.335L926.2683 287.595C929.6883 330.075 960.4483 366.695 1000.9783 378.905L1018.0683 864.255C985.8383 873.535 959.4683 897.465 947.7583 928.225L214.8483 712.895C211.9183 691.895 203.1283 674.805 188.4783 659.175Z"/>
</svg>