<?xml version="1.0" encoding="UTF-8" standalone="no"?>
<svg xmlns="http://www.w3.org/2000/svg"
     width="996.09375" height="996.09375"
     viewBox="0 0 996.09375 996.09375"
     fill="currentColor">
  <path d="M498.0477 996.0959C770.5077 996.0959 996.0977 770.0159 996.0977 498.0459C996.0977 225.5859 770.0177 -0.0041 497.5577 -0.0041C225.5877 -0.0041 -0.0023 225.5859 -0.0023 498.0459C-0.0023 770.0159 226.0777 996.0959 498.0477 996.0959ZM498.0477 913.0859C267.5777 913.0859 83.4977 728.5159 83.4977 498.0459C83.4977 267.5759 267.0877 83.0059 497.5577 83.0059C728.0277 83.0059 913.0877 267.5759 913.0877 498.0459C913.0877 728.5159 728.5177 913.0859 498.0477 913.0859ZM327.6377 709.9559C341.3077 709.9559 351.5577 704.5859 362.3077 693.8459L690.4277 360.8359C700.6877 350.5859 707.0277 338.3759 707.0277 327.1459C707.0277 304.1959 688.4777 286.6259 666.0177 286.6259C654.2977 286.6259 643.0677 291.9959 632.3277 302.7359L304.6877 635.7459C293.9477 646.4859 288.0877 658.2059 288.0877 669.9259C288.0877 691.8959 304.1977 709.9559 327.6377 709.9559Z"/>
</svg>