<?xml version="1.0" encoding="UTF-8" standalone="no"?>
<svg xmlns="http://www.w3.org/2000/svg"
     width="996.09375" height="996.09375"
     viewBox="0 0 996.09375 996.09375"
     fill="currentColor">
  <path d="M498.0477 996.0977C770.5077 996.0977 996.0977 770.5077 996.0977 498.0477C996.0977 226.0777 770.0177 -0.0023 497.5577 -0.0023C225.5877 -0.0023 -0.0023 226.0777 -0.0023 498.0477C-0.0023 770.5077 226.0777 996.0977 498.0477 996.0977ZM187.4977 498.0477C187.4977 328.1277 328.6177 187.0077 498.0477 187.0077C668.4577 187.0077 809.5677 328.1277 809.5677 498.0477C809.5677 668.4577 668.9477 809.0777 498.5377 809.0777C328.6177 809.0777 187.4977 668.4577 187.4977 498.0477ZM260.7377 498.0477C260.7377 526.3677 265.6277 553.7077 274.8977 578.6177H722.6577C731.9377 553.7077 736.8177 526.3677 736.8177 498.0477C736.3277 365.2377 630.3677 259.7677 498.0477 259.7677C365.7277 259.7677 260.7377 365.2377 260.7377 498.0477ZM312.0077 645.5077C354.9777 700.6877 422.3677 736.3277 498.5377 736.3277C574.7077 736.3277 642.5777 700.6877 686.0377 645.5077Z"/>
</svg>