<?xml version="1.0" encoding="UTF-8" standalone="no"?>
<svg xmlns="http://www.w3.org/2000/svg"
     width="983.88671875" height="831.54296875"
     viewBox="0 0 983.88671875 831.54296875"
     fill="currentColor">
  <path d="M666.9883 234.8681C717.7783 234.8681 760.7383 202.1481 777.3483 157.2281H946.2883C966.3083 157.2281 983.8883 139.6481 983.8883 117.6781C983.8883 95.6981 966.3083 78.6181 946.2883 78.6181H777.3483C761.2283 33.1981 717.7783 -0.0019 666.9883 -0.0019C616.2083 -0.0019 572.2683 33.1981 556.1483 78.6181H39.0583C17.0883 78.6181 -0.0017 95.6981 -0.0017 117.6781C-0.0017 139.6481 17.0883 157.2281 39.0583 157.2281H556.6383C572.7583 202.1481 616.2083 234.8681 666.9883 234.8681ZM666.9883 174.8081C634.7683 174.8081 609.8683 149.4181 609.8683 117.1881C609.8683 84.9581 634.7683 60.0581 666.9883 60.0581C699.2183 60.0581 724.1183 84.9581 724.1183 117.1881C724.1183 149.4181 699.2183 174.8081 666.9883 174.8081ZM37.1083 376.4681C17.0883 376.4681 -0.0017 394.0381 -0.0017 416.0181C-0.0017 437.9881 17.0883 455.0781 37.1083 455.0781H211.9183C228.0283 500.9781 271.4883 533.6881 322.2683 533.6881C373.0483 533.6881 416.5083 500.9781 433.1083 455.0781H944.3383C966.3083 455.0781 983.8883 437.9881 983.8883 416.0181C983.8883 394.0381 966.3083 376.4681 944.3383 376.4681H432.6183C416.5083 331.5381 373.0483 298.8281 322.2683 298.8281C271.4883 298.8281 228.0283 331.5381 211.9183 376.4681ZM322.2683 473.1481C290.5283 473.1481 265.1383 447.7581 265.1383 416.0181C265.1383 383.7881 290.5283 358.8881 322.2683 358.8881C354.4883 358.8881 379.3983 383.7881 379.3983 416.0181C379.3983 447.7581 354.4883 473.1481 322.2683 473.1481ZM666.9883 831.5381C717.7783 831.5381 761.2283 798.8281 777.3483 753.4181H946.2883C966.3083 753.4181 983.8883 736.3281 983.8883 714.3581C983.8883 692.3781 966.3083 674.8081 946.2883 674.8081H777.3483C761.2283 629.3981 717.7783 597.1681 666.9883 597.1681C616.2083 597.1681 572.7583 629.3981 556.6383 674.8081H39.0583C17.0883 674.8081 -0.0017 692.3781 -0.0017 714.3581C-0.0017 736.3281 17.0883 753.4181 39.0583 753.4181H556.1483C572.7583 798.8281 616.2083 831.5381 666.9883 831.5381ZM666.9883 771.4881C634.7683 771.4881 609.8683 746.0981 609.8683 714.3581C609.8683 681.6381 634.7683 657.2281 666.9883 657.2281C699.2183 657.2281 724.1183 681.6381 724.1183 714.3581C724.1183 746.0981 699.2183 771.4881 666.9883 771.4881Z"/>
</svg>