<?xml version="1.0" encoding="UTF-8" standalone="no"?>
<svg xmlns="http://www.w3.org/2000/svg"
     width="1191.40625" height="890.13671875"
     viewBox="0 0 1191.40625 890.13671875"
     fill="currentColor">
  <path d="M440.9183 557.1259C516.5983 557.1259 560.0583 514.1559 560.0583 439.9459V117.6759C560.0583 42.9659 516.5983 -0.0041 440.9183 -0.0041H119.1383C43.4583 -0.0041 -0.0017 42.9659 -0.0017 117.6759V439.9459C-0.0017 514.1559 43.4583 557.1259 119.1383 557.1259ZM1075.1983 550.7859C1148.9283 550.7859 1191.4083 509.2759 1191.4083 436.0359V121.0959C1191.4083 47.8559 1148.9283 6.3459 1075.1983 6.3459H760.7383C687.0083 6.3459 644.0383 48.3359 644.0383 121.0959V436.0359C644.0383 508.7859 687.0083 550.7859 760.7383 550.7859ZM439.9383 479.9759H120.1183C90.8183 479.9759 77.1483 465.8159 77.1483 436.5259V120.6059C77.1483 91.3059 90.8183 77.1459 120.1183 77.1459H439.9383C468.7483 77.1459 482.9083 91.3059 482.9083 120.6059V436.5259C482.9083 465.8159 468.7483 479.9759 439.9383 479.9759ZM37.1083 733.3959C17.0883 733.3959 -0.0017 750.9759 -0.0017 772.9459C-0.0017 794.9259 17.0883 812.0159 37.1083 812.0159H169.4383C185.5483 857.4259 229.0083 890.1359 279.7883 890.1359C330.5683 890.1359 374.0283 857.4259 390.1383 812.0159H1151.8583C1173.8283 812.0159 1191.4083 794.9259 1191.4083 772.9459C1191.4083 750.9759 1173.8283 733.3959 1151.8583 733.3959H390.1383C374.0283 687.9859 330.5683 655.2759 279.7883 655.2759C229.0083 655.2759 185.5483 687.9859 169.4383 733.3959ZM279.7883 830.0759C247.5583 830.0759 222.6583 804.6859 222.6583 772.4559C222.6583 740.2359 247.5583 715.3359 279.7883 715.3359C311.5283 715.3359 336.9183 740.2359 336.9183 772.4559C336.9183 804.6859 311.5283 830.0759 279.7883 830.0759Z"/>
</svg>