<?xml version="1.0" encoding="UTF-8" standalone="no"?>
<svg xmlns="http://www.w3.org/2000/svg"
     width="996.09375" height="1090.7726005955958"
     viewBox="0 0 996.09375 1090.7726005955958"
     fill="currentColor">
  <path d="M-0.0023 592.7248C-0.0023 865.1848 226.0777 1090.7748 498.0477 1090.7748C770.5077 1090.7748 996.0977 865.1848 996.0977 592.7248C996.0977 352.4948 820.7977 148.8748 592.2877 103.9548V34.6248C592.2877 -0.0452 568.3577 -9.3252 541.9877 9.7148L386.2277 118.6048C363.7677 134.2248 363.2777 157.6648 386.2277 173.7848L541.5077 283.1548C568.3577 302.6848 592.2877 293.4048 592.2877 258.2548V188.9148C776.8577 230.9048 912.5977 394.9748 912.5977 592.7248C912.5977 823.1948 728.5177 1007.7648 498.0477 1007.7648C267.5777 1007.7648 82.5177 823.1948 83.0077 592.7248C83.4977 454.0548 150.8777 331.4948 254.8877 257.2748C274.8977 242.1348 281.2477 219.1948 269.0477 198.6848C256.8377 178.6648 229.9777 173.2948 208.4977 189.8948C83.0077 281.2048 -0.0023 428.6648 -0.0023 592.7248ZM265.6277 513.1348H484.8677C498.0477 551.7148 535.1577 579.5448 578.1277 579.5448C621.0977 579.5448 657.7177 551.7148 671.3877 513.1348H732.4177C749.0277 513.1348 763.6677 498.9748 763.6677 480.9048C763.6677 463.3348 749.0277 448.6848 732.4177 448.6848H671.3877C658.2077 409.6248 621.0977 381.7848 578.1277 381.7848C534.6677 381.7848 497.5577 409.6248 484.3777 448.6848H265.6277C247.0677 448.6848 232.4177 463.3348 232.4177 480.9048C232.4177 498.9748 247.0677 513.1348 265.6277 513.1348ZM578.1277 529.2448C550.2977 529.2448 529.7877 507.7648 529.7877 480.4248C529.7877 452.5848 550.2977 432.0848 578.1277 432.0848C604.9777 432.0848 626.4677 452.5848 626.4677 480.4248C626.4677 507.7648 604.9777 529.2448 578.1277 529.2448ZM263.6677 777.2948H325.1977C338.3777 815.8748 375.4877 843.7048 417.9677 843.7048C461.4277 843.7048 498.5377 815.8748 511.7177 777.2948H730.4677C749.0277 777.2948 763.6677 762.6448 763.6677 744.5848C763.6677 727.0048 749.0277 712.8448 730.4677 712.8448H512.2077C499.0277 673.7848 461.9177 645.4648 417.9677 645.4648C374.9977 645.4648 337.8877 673.7848 324.7077 712.8448H263.6677C247.0677 712.8448 232.4177 727.0048 232.4177 744.5848C232.4177 762.6448 247.0677 777.2948 263.6677 777.2948ZM417.9677 793.4048C391.1177 793.4048 369.6277 771.9248 369.6277 744.0948C369.6277 716.7448 391.1177 695.7548 417.9677 695.7548C445.7977 695.7548 467.2877 716.7448 467.2877 744.0948C467.2877 771.9248 445.7977 793.4048 417.9677 793.4048Z"/>
</svg>