<?xml version="1.0" encoding="UTF-8" standalone="no"?>
<svg xmlns="http://www.w3.org/2000/svg"
     width="1101.07421875" height="1101.07421875"
     viewBox="0 0 1101.07421875 1101.07421875"
     fill="currentColor">
  <path d="M550.2977 0.0037C530.7577 0.0037 515.6277 15.6237 515.6277 35.1537V208.4937C515.6277 228.0237 530.7577 243.6537 550.2977 243.6537C570.3077 243.6537 585.4477 228.0237 585.4477 208.4937V35.1537C585.4477 15.6237 570.3077 0.0037 550.2977 0.0037ZM275.3877 73.2437C257.8077 83.4937 252.9277 104.4937 262.6977 121.5838L349.1177 271.9738C359.3777 289.0638 379.8877 294.9238 396.9777 284.6638C414.5477 274.9037 419.4377 253.9037 410.1577 237.3038L323.2377 86.4238C312.9877 69.8238 292.4777 63.9638 275.3877 73.2437ZM826.1677 73.7337C808.5977 63.9638 788.0877 69.8238 777.8277 86.4238L691.4077 237.3038C681.6377 253.9037 686.5277 274.9037 704.0977 285.1537C721.1877 294.4338 741.6977 289.0638 751.9577 271.9738L838.8677 121.5838C848.1477 104.4937 843.2577 83.4937 826.1677 73.7337ZM74.2177 274.9037C63.9677 292.4838 69.8277 312.9838 86.9177 323.2438L237.3077 410.1538C254.3977 419.4338 274.8977 414.5538 285.1577 397.4638C294.4377 379.8837 289.0577 359.3737 271.9777 349.1237L121.5777 262.2038C104.4877 252.9338 83.4977 257.8138 74.2177 274.9037ZM1027.8277 275.3937C1017.5777 257.8138 996.5777 252.9338 979.4877 262.2038L829.0977 349.1237C812.0077 359.3737 806.1477 379.8837 816.8977 397.4638C826.1677 414.0638 847.1677 419.4338 863.7677 410.1538L1014.6477 323.2438C1031.2477 312.9838 1037.1077 292.4838 1027.8277 275.3937ZM1101.0777 550.2938C1101.0777 530.7638 1085.9377 515.6238 1065.9177 515.6238H892.5777C873.0477 515.6238 857.4177 530.7638 857.4177 550.2938C857.4177 570.3138 873.0477 585.4538 892.5777 585.4538H1065.9177C1085.9377 585.4538 1101.0777 570.3138 1101.0777 550.2938ZM-0.0023 550.2938C-0.0023 570.3138 15.6277 585.4538 35.1577 585.4538H208.4977C228.5177 585.4538 243.6477 570.3138 243.6477 550.2938C243.6477 530.7638 228.5177 515.6238 208.4977 515.6238H35.1577C15.6277 515.6238 -0.0023 530.7638 -0.0023 550.2938ZM1027.3477 825.6838C1037.5977 808.5938 1031.2477 788.0838 1014.6477 777.8338L863.7677 690.9137C847.1677 681.6438 826.1677 686.5238 816.4077 703.6138C806.6377 721.1938 812.0077 741.7038 829.0977 751.9538L979.4877 838.8638C996.5777 848.1438 1017.5777 843.2638 1027.3477 825.6838ZM74.2177 825.6838C83.4977 843.2638 104.4877 848.1438 121.5777 838.8638L271.9777 751.9538C289.0577 741.7038 294.9177 721.1938 285.1577 704.1038C274.8977 686.5238 254.3977 681.6438 237.3077 690.9137L86.9177 777.8338C69.8277 788.0838 63.9677 808.5938 74.2177 825.6838ZM825.6877 1027.3438C843.2577 1017.5738 848.1477 996.5838 838.8677 979.4938L751.9577 829.1038C742.1877 812.0138 721.1877 806.1537 704.0977 815.9137C686.5277 826.1738 681.6377 846.6838 691.4077 863.7738L777.8277 1014.1638C788.0877 1031.2538 808.5977 1037.1138 825.6877 1027.3438ZM275.3877 1027.3438C292.4777 1037.1138 312.9877 1031.2538 323.2377 1014.1638L410.1577 863.7738C419.4377 846.6838 414.5477 826.1738 397.4577 816.4037C379.8877 806.6438 359.3777 812.0138 349.1177 829.1038L262.6977 979.4938C252.9277 996.5838 257.8077 1017.5738 275.3877 1027.3438ZM550.2977 1101.0738C570.3077 1101.0738 585.4477 1085.4538 585.4477 1065.9138V892.5738C585.4477 873.0438 570.3077 857.4238 550.2977 857.4238C530.7577 857.4238 515.6277 873.0438 515.6277 892.5738V1065.9138C515.6277 1085.4538 530.7577 1101.0738 550.2977 1101.0738Z"/>
</svg>