<?xml version="1.0" encoding="UTF-8" standalone="no"?>
<svg xmlns="http://www.w3.org/2000/svg"
     width="996.09375" height="996.09375"
     viewBox="0 0 996.09375 996.09375"
     fill="currentColor">
  <path d="M498.0477 996.0959C770.5077 996.0959 996.0977 770.0159 996.0977 498.0459C996.0977 225.5859 770.0177 -0.0041 497.5577 -0.0041C225.5877 -0.0041 -0.0023 225.5859 -0.0023 498.0459C-0.0023 770.0159 226.0777 996.0959 498.0477 996.0959ZM498.0477 690.9159C392.0877 690.9159 304.6877 604.4959 304.6877 497.5559C304.6877 392.0859 392.0877 305.6659 498.0477 305.6659C603.5177 305.6659 690.9177 392.0859 690.9177 497.5559C690.9177 604.4959 603.5177 690.9159 498.0477 690.9159ZM498.5377 611.3259C559.5677 611.3259 610.3477 560.0559 610.3477 497.5559C610.3477 436.5259 559.5677 385.7459 498.5377 385.7459C437.0077 385.7459 385.7377 436.5259 385.7377 497.5559C385.7377 560.0559 436.5277 611.3259 498.5377 611.3259Z"/>
</svg>