<?xml version="1.0" encoding="UTF-8" standalone="no"?>
<svg xmlns="http://www.w3.org/2000/svg"
     width="1166.9921875" height="857.421875"
     viewBox="0 0 1166.9921875 857.421875"
     fill="currentColor">
  <path d="M0 414.0583C0 510.7383 67.87 594.2383 176.27 612.7883C170.41 630.8583 166.99 650.3883 166.99 670.8983C166.99 778.3183 248.05 857.4183 359.86 857.4183H948.24C1079.59 857.4183 1166.99 767.0883 1166.99 652.3483C1166.5 556.6383 1102.05 476.0783 1009.28 451.6583C999.02 348.6283 923.34 265.1383 825.68 244.1383C812.01 156.2483 736.82 90.3283 646.48 90.3283C622.07 90.3283 600.59 93.2583 582.03 98.1483C525.88 31.2483 465.33 -0.0017 391.11 -0.0017C270.02 0.4883 168.95 93.7483 155.76 213.8683C63.48 237.7883 0 319.3383 0 414.0583ZM73.73 414.0583C73.73 345.6983 125 289.5483 187.99 282.2283C217.77 278.8083 229 265.1383 229 233.8883C227.54 147.4583 301.76 73.7283 391.11 73.7283C450.68 74.2183 499.51 104.0083 532.23 156.7383C543.95 176.2683 561.52 180.6683 586.43 172.8483C599.61 168.4583 619.63 164.0583 641.11 164.0583C690.43 164.0583 733.4 195.7983 748.05 240.7183C683.11 248.5383 625.49 282.7183 586.43 334.9583C568.85 331.0583 549.32 327.6383 530.27 327.6383C436.04 328.1283 356.93 394.5283 338.87 485.3483C291.5 490.7183 250 511.2283 219.24 542.4783C130.86 537.5983 73.73 484.3783 73.73 414.0583ZM359.86 783.6883C289.06 783.6883 240.72 737.7883 240.72 670.8983C240.72 607.4183 291.99 557.6183 357.91 556.6383C391.6 555.6683 405.76 545.4083 408.2 516.5983C413.57 449.7083 464.36 401.3683 530.27 401.3683C549.32 401.3683 560.55 404.2983 580.57 412.1083C606.93 422.3583 622.56 417.9683 633.3 396.4883C658.69 345.6983 714.36 312.9883 776.86 312.4983C865.23 312.4983 936.52 385.2583 936.52 474.1183C936.52 507.8083 946.29 518.5583 979.49 522.4583C1043.95 529.7883 1093.26 586.4283 1093.26 652.3483C1093.26 730.9583 1034.67 783.6883 948.24 783.6883Z"/>
</svg>