<?xml version="1.0" encoding="UTF-8" standalone="no"?>
<svg xmlns="http://www.w3.org/2000/svg"
     width="1406.7927273069151" height="730.95703125"
     viewBox="0 0 1406.7927273069151 730.95703125"
     fill="currentColor">
  <path d="M322.2543 129.8852H357.4043C379.3843 129.8852 388.6543 121.5852 395.9843 103.0252L424.7943 30.2752C431.6243 14.1552 424.3043 -0.0048 407.2143 -0.0048H374.9843C358.3843 -0.0048 348.1343 8.3052 340.3143 22.9452L301.7443 97.1652C293.9343 111.8152 301.7443 129.8852 322.2543 129.8852ZM1049.3043 129.8852H1084.4543C1104.9643 129.8852 1112.7743 111.8152 1104.9643 97.1652L1066.3943 22.9452C1059.0643 8.3052 1048.3243 -0.0048 1031.7243 -0.0048H999.4943C982.4043 -0.0048 975.0843 14.1552 981.9243 30.2752L1010.7243 103.0252C1018.0543 121.5852 1027.3343 129.8852 1049.3043 129.8852ZM703.6043 694.8252C719.2243 694.8252 729.9643 683.5952 729.9643 666.9952V613.2852L771.9543 637.2052C786.6043 645.5052 801.2543 642.0852 808.5843 628.9052C815.9043 616.6952 811.0243 601.5652 797.3543 593.2652L729.9643 555.6652V521.4852L724.5943 427.2452L805.1643 478.5152L833.4843 495.6052V573.2452C833.4843 588.8652 843.2443 600.5852 857.8943 600.5852C873.0343 600.5852 882.7943 589.8452 882.7943 573.2452L883.2843 523.9252L930.1643 551.2652C943.8343 559.5752 958.9743 556.1552 967.2743 542.4852C975.0843 528.3252 971.1743 513.1852 957.0143 504.8852L910.1443 478.0252L951.6443 453.6152C965.8043 444.8252 971.1743 431.1552 963.8543 418.4552C956.0443 405.7652 940.4143 402.3452 926.7443 410.1552L860.3343 449.2152L831.0443 432.1252L745.5943 389.6452L831.0443 347.1652L860.3343 329.5852L926.7443 369.1452C940.4143 376.4652 956.5243 373.5352 963.8543 361.3252C971.1743 347.6552 965.8043 334.4752 951.6443 325.1952L910.1443 300.7852L957.0143 274.4152C971.1743 266.1152 975.0843 251.4652 967.2743 236.8152C959.9443 223.1452 943.8343 219.7252 930.1643 227.5352L883.2843 254.8852L882.7943 206.0552C882.7943 189.9452 873.0343 178.2252 858.3843 178.2252C843.2443 178.2252 833.4843 190.4252 833.4843 206.0552V283.2052L805.1643 300.2952L724.5943 352.0552L729.9643 257.8152V223.6352L797.3543 186.0352C811.0243 177.7352 815.9043 162.5952 808.5843 150.3952C801.2543 137.2052 786.6043 133.7852 771.9543 142.0852L729.9643 166.0152V112.3052C729.9643 95.2152 719.2243 84.4752 703.6043 84.4752C687.9743 84.4752 676.7443 95.7052 676.7443 112.3052V166.5052L634.2643 142.0852C619.6143 134.2752 605.4543 137.2052 598.1343 150.3952C590.8043 162.5952 595.6843 177.7352 609.3643 185.5452L676.7443 223.6352V257.8152L682.1143 352.0552L602.5243 300.7852L573.2243 283.2052L573.7143 206.0552C573.7143 190.4252 563.4643 178.2252 548.8143 178.2252C533.6743 178.2252 523.9143 189.4552 523.9143 206.0552L523.4243 254.8852L476.5443 227.5352C462.3843 219.2352 446.7643 223.6352 439.4343 236.8152C431.1343 250.9752 436.0243 266.1152 449.6943 274.4152L496.5643 300.7852L455.0643 325.1952C440.9043 333.9852 436.0243 347.1652 442.8543 361.3252C450.1843 373.5352 466.2943 376.9552 480.4543 369.1452L546.3743 330.0752L576.1543 347.1652L661.1143 389.6452L576.1543 432.1252L546.3743 449.2152L480.4543 410.1552C466.2943 402.3452 450.1843 405.2752 443.3443 417.4852C436.5143 431.1552 440.4143 445.3152 455.0643 453.6152L496.5643 478.0252L449.6943 504.8852C436.0243 513.1852 431.6243 528.3252 439.4343 542.4852C447.2543 556.1552 462.3843 559.5752 476.5443 551.2652L523.4243 524.4152L523.9143 573.2452C523.9143 589.8452 533.6743 600.5852 548.8143 600.5852C563.4643 600.5852 573.7143 588.8652 573.7143 573.2452L573.2243 495.6052L602.5243 478.5152L682.1143 427.2452L676.7443 521.4852V555.6652L609.3643 593.7452C595.6843 601.5652 590.8043 616.6952 598.1343 628.9052C605.4543 642.0852 619.6143 645.0152 634.2643 637.2052L676.7443 612.7952V666.9952C676.7443 683.1052 687.9743 694.8252 703.6043 694.8252ZM188.4643 401.3652H242.6643C265.1243 401.3652 278.3043 393.5552 286.6043 372.5552L329.0843 268.0652C335.9243 250.9752 325.1843 234.3752 306.1343 234.3752H257.7943C241.1943 234.3752 227.5243 242.6752 219.7143 257.8152L165.5143 363.2852C155.7443 381.8352 167.4643 401.3652 188.4643 401.3652ZM1164.5343 401.3652H1218.2443C1239.2443 401.3652 1250.9643 381.8352 1241.6843 363.2852L1187.4843 257.8152C1179.1843 242.6752 1165.5143 234.3752 1148.9143 234.3752H1100.5743C1081.5243 234.3752 1070.7843 250.9752 1077.6243 268.0652L1120.1043 372.5552C1128.8943 393.5552 1141.5843 401.3652 1164.5343 401.3652ZM39.5343 730.9552H103.5043C132.7943 730.9552 147.4443 716.7952 155.2643 695.8052L214.8343 549.8052C223.6143 528.3252 209.9443 507.3252 186.5143 507.3252H131.3343C100.5743 507.3252 85.4343 519.0452 74.6943 539.5552L5.3543 676.7552C-7.3357 701.6552 1.9343 730.9552 39.5343 730.9552ZM1303.2043 730.9552H1367.1743C1405.2643 730.9552 1414.0443 701.6552 1401.3543 676.7552L1332.0143 539.5552C1321.2743 519.0452 1306.1343 507.3252 1275.3743 507.3252H1220.6843C1196.7643 507.3252 1183.0943 528.3252 1191.8843 549.8052L1251.4543 695.8052C1259.7543 716.7952 1273.9143 730.9552 1303.2043 730.9552Z"/>
</svg>