<?xml version="1.0" encoding="UTF-8" standalone="no"?>
<svg xmlns="http://www.w3.org/2000/svg"
     width="996.09375" height="996.09375"
     viewBox="0 0 996.09375 996.09375"
     fill="currentColor">
  <path d="M498.0477 996.0959C770.5077 996.0959 996.0977 770.0159 996.0977 498.0459C996.0977 225.5859 770.0177 -0.0041 497.5577 -0.0041C225.5877 -0.0041 -0.0023 225.5859 -0.0023 498.0459C-0.0023 770.0159 226.0777 996.0959 498.0477 996.0959ZM525.3877 322.7559V194.3359L648.9277 94.2359C720.7077 121.5859 783.2077 167.4759 831.5477 226.0759L785.1577 378.9059L662.1077 428.7059ZM210.9377 378.9059L164.5477 225.5859C212.3977 167.4759 274.8977 121.5859 345.7077 94.2359L471.1877 195.3159V322.7559L333.9877 428.7059ZM66.4077 499.5159L191.4077 429.6859L318.3577 480.9559L369.6277 639.6459L301.2677 727.0459L135.2577 729.4959C91.7977 662.5959 66.8977 583.9859 66.4077 499.5159ZM694.3377 729.0059L625.9777 641.1159L677.7377 480.9559L804.6877 429.6859L929.6877 499.5159C929.6877 583.4959 903.8077 664.0659 859.8677 731.4459ZM498.0477 929.6859C456.5477 929.6859 416.5077 923.8259 378.4177 912.5959L343.2577 761.2259L404.2977 683.1059H589.8477L652.3477 763.1859L617.6777 912.5959C579.5877 923.8259 539.5477 929.6859 498.0477 929.6859Z"/>
</svg>