<?xml version="1.0" encoding="UTF-8" standalone="no"?>
<svg xmlns="http://www.w3.org/2000/svg"
     width="996.09375" height="996.09375"
     viewBox="0 0 996.09375 996.09375"
     fill="currentColor">
  <path d="M498.0477 996.0959C770.5077 996.0959 996.0977 770.0159 996.0977 498.0459C996.0977 225.5859 770.0177 -0.0041 497.5577 -0.0041C225.5877 -0.0041 -0.0023 225.5859 -0.0023 498.0459C-0.0023 770.0159 226.0777 996.0959 498.0477 996.0959ZM498.0477 913.0859C267.5777 913.0859 83.4977 728.5159 83.4977 498.0459C83.4977 267.5759 267.0877 83.0059 497.5577 83.0059C728.0277 83.0059 913.0877 267.5759 913.0877 498.0459C913.0877 728.5159 728.5177 913.0859 498.0477 913.0859ZM271.9777 658.2059C332.5177 658.2059 368.6477 621.0959 368.6477 566.4059C368.6477 520.9959 350.0977 499.9959 300.7777 473.1459L282.2277 462.8859C254.3977 447.7559 245.6077 437.0159 245.6077 419.9259C245.6077 404.7859 256.3477 394.0459 271.9777 394.0459C287.5977 394.0459 295.8977 404.7859 300.2977 426.2659C301.7577 433.1059 304.6877 436.5259 311.0377 436.5259H353.0277C359.8677 436.5259 364.2577 432.1259 364.2577 425.2959C363.7677 374.0259 333.9877 335.9359 271.9777 335.9359C212.3977 335.9359 177.2477 373.5359 177.2477 426.7559C177.2477 471.6759 196.2877 496.5859 243.1677 521.4859L261.2277 531.2459C291.0177 546.8759 300.2977 554.6859 300.2977 573.2459C300.2977 591.7959 291.9877 600.0959 272.4577 600.0959C252.9277 600.0959 242.6777 589.3559 239.7477 566.8959C238.7677 560.5459 234.8677 557.1259 229.0077 557.1259H184.5677C177.7377 557.1259 172.8477 562.0159 173.3377 568.8459C173.8277 624.5159 207.5177 658.2059 271.9777 658.2059ZM725.0977 658.2059C785.6477 658.2059 821.7777 621.0959 821.7777 566.4059C821.7777 520.9959 803.7077 499.9959 753.9077 473.1459L735.3477 462.8859C707.5177 447.7559 698.7277 437.0159 698.7277 419.9259C698.7277 404.7859 709.4777 394.0459 725.0977 394.0459C740.7277 394.0459 749.5077 404.7859 753.4177 426.2659C754.8877 433.1059 757.8077 436.5259 764.1577 436.5259H806.1477C812.9877 436.5259 817.3877 432.1259 817.3877 425.2959C816.8977 374.0259 787.1077 335.9359 725.0977 335.9359C665.5277 335.9359 630.3677 373.5359 630.3677 426.7559C630.3677 471.6759 649.4177 496.5859 696.2877 521.4859L714.3577 531.2459C744.1377 547.3659 753.4177 554.6859 753.4177 573.2459C753.4177 591.7959 745.6077 600.0959 725.5877 600.0959C706.0577 600.0959 695.7977 589.3559 692.8677 566.8959C691.8977 560.5459 687.9877 557.1259 682.1277 557.1259H637.2077C630.8577 557.1259 625.9777 562.0159 625.9777 568.8459C626.9577 624.5159 660.6477 658.2059 725.0977 658.2059ZM498.0477 658.2059C570.3077 658.2059 608.8877 604.0059 608.8877 498.0459C608.8877 393.0659 570.7977 335.9359 498.0477 335.9359C424.3177 335.9359 386.2277 393.0659 386.2277 498.0459C386.2277 604.0059 424.8077 658.2059 498.0477 658.2059ZM498.0477 597.6559C470.2177 597.6559 456.5477 569.3359 456.5477 498.0459C456.5477 426.7559 470.2177 397.4559 498.0477 397.4559C524.4177 397.4559 537.5977 426.7559 537.5977 498.0459C537.5977 569.3359 524.4177 597.6559 498.0477 597.6559Z"/>
</svg>