<?xml version="1.0" encoding="UTF-8" standalone="no"?>
<svg xmlns="http://www.w3.org/2000/svg"
     width="951.171875" height="950.1953125"
     viewBox="0 0 951.171875 950.1953125"
     fill="currentColor">
  <path d="M475.5906 950.1967C493.6506 950.1967 508.3006 937.0167 511.2306 917.4767C553.2206 592.2867 599.1206 545.8967 916.9906 510.7467C937.0106 508.7867 951.1706 494.1367 951.1706 475.0967C951.1706 456.0567 937.0106 441.4067 916.9906 438.9667C599.1206 404.2967 553.2206 357.9067 511.2306 32.2267C508.3006 12.6967 493.6506 -0.0033 475.5906 -0.0033C457.5206 -0.0033 442.8706 12.6967 439.9406 32.2267C397.9506 357.9067 352.0506 404.2967 34.1806 438.9667C14.1606 441.4067 0.0006 456.0567 0.0006 475.0967C0.0006 494.1367 14.1606 508.7867 34.1806 510.7467C352.0506 552.7367 395.0206 592.7767 439.9406 917.4767C442.8706 937.0167 457.5206 950.1967 475.5906 950.1967Z"/>
</svg>