<?xml version="1.0" encoding="UTF-8" standalone="no"?>
<svg xmlns="http://www.w3.org/2000/svg"
     width="1220.703125" height="975.5859375"
     viewBox="0 0 1220.703125 975.5859375"
     fill="currentColor">
  <path d="M125.4883 810.0622H1095.2183C1178.7083 810.0622 1220.6983 770.5122 1220.6983 684.5722V125.0022C1220.6983 39.5522 1178.7083 0.0022 1095.2183 0.0022H125.4883C41.9883 0.0022 -0.0017 39.5522 -0.0017 125.0022V684.5722C-0.0017 770.5122 41.9883 810.0622 125.4883 810.0622ZM635.7383 607.4222C624.9983 607.4222 618.1683 601.0722 616.6983 590.8222C595.2183 443.8522 576.1683 411.1322 421.8783 395.5122C411.6183 394.0422 405.2783 386.7222 405.2783 376.9522C405.2783 367.6722 411.6183 359.8622 421.8783 358.4022C575.6883 337.8922 588.8683 311.0322 616.6983 162.6022C619.1383 152.8322 625.9783 146.4822 635.7383 146.4822C645.0183 146.4822 652.3483 153.3222 653.8083 163.0822C675.7783 308.5922 695.7983 337.8922 849.1183 358.4022C858.8883 359.8622 865.7183 367.6722 865.7183 376.9522C865.7183 386.7222 858.8883 394.0422 849.1183 395.5122C695.3083 416.0122 681.6383 443.8522 653.8083 591.3122C651.8583 601.0722 645.0183 607.4222 635.7383 607.4222ZM437.4983 689.9422C429.6883 689.9422 425.7783 684.5722 423.3383 676.7622C408.6883 604.9822 415.0383 601.5622 335.9383 589.8422C327.6383 588.3822 323.2383 583.4922 323.2383 575.6822C323.2383 568.8522 327.6383 562.9922 334.9583 562.0122C415.0383 548.8322 408.6883 545.4122 423.3383 474.1222C425.7783 466.3122 430.1783 460.9422 437.4983 460.9422C444.8283 460.9422 449.7083 466.7922 451.6583 474.1222C465.3283 545.4122 460.4483 548.8322 540.5283 562.0122C547.3683 562.9922 552.2483 568.8522 552.2483 575.6822C552.2483 582.5222 547.3683 588.3822 540.5283 589.8422C460.4483 601.5622 465.3283 604.9822 451.6583 678.2222C449.7083 685.0622 444.3383 689.9422 437.4983 689.9422ZM364.7483 975.5822H855.9583C877.4383 975.5822 895.5083 958.0122 895.5083 936.0322C895.5083 914.0622 877.4383 896.4822 855.9583 896.4822H364.7483C343.2583 896.4822 325.1983 914.0622 325.1983 936.0322C325.1983 958.0122 343.2583 975.5822 364.7483 975.5822Z"/>
</svg>