<?xml version="1.0" encoding="UTF-8" standalone="no"?>
<svg xmlns="http://www.w3.org/2000/svg"
     width="1220.703125" height="975.5859375"
     viewBox="0 0 1220.703125 975.5859375"
     fill="currentColor">
  <path d="M125.4883 810.0622H1095.2183C1177.7383 810.0622 1220.6983 767.5822 1220.6983 684.5722V125.0022C1220.6983 42.4822 1177.7383 0.0022 1095.2183 0.0022H125.4883C42.9683 0.0022 -0.0017 42.4822 -0.0017 125.0022V684.5722C-0.0017 767.5822 42.9683 810.0622 125.4883 810.0622ZM126.9483 731.4422C94.7283 731.4422 78.6183 715.3322 78.6183 683.5922V126.4622C78.6183 94.2422 94.7283 78.6122 126.9483 78.6122H1093.7483C1125.9783 78.6122 1142.0883 94.2422 1142.0883 126.4622V683.5922C1142.0883 715.3322 1125.9783 731.4422 1093.7483 731.4422ZM634.2783 602.0522C643.5583 602.0522 649.8983 595.7022 651.8583 586.4222C678.7083 442.8722 691.8983 416.0122 841.3083 395.9922C851.0783 394.5322 857.4183 387.6922 857.4183 378.4222C857.4183 369.1422 851.0783 361.8122 841.3083 360.3522C692.3783 340.3322 673.3383 312.0122 651.8583 170.9022C650.3883 161.1322 643.5583 154.7822 634.2783 154.7822C624.9983 154.7822 618.1683 160.6422 616.2083 170.4122C588.8683 314.4522 576.1683 340.3322 426.7583 360.3522C416.9883 361.8122 410.6483 369.1422 410.6483 378.4222C410.6483 387.6922 416.9883 394.5322 426.7583 395.9922C576.6583 411.1322 595.2183 442.8722 616.2083 585.9422C617.6783 595.7022 624.0283 602.0522 634.2783 602.0522ZM441.8983 681.6422C448.7283 681.6422 454.0983 677.2422 455.5683 670.4122C469.2383 599.6122 464.3583 596.1922 541.9883 584.4722C548.8283 583.4922 553.2183 577.6322 553.2183 570.8022C553.2183 564.4522 548.8283 558.5922 541.9883 557.6122C464.3583 544.9222 469.2383 541.5022 455.5683 472.6522C454.0983 465.3322 449.2183 459.9622 441.8983 459.9622C435.0583 459.9622 430.6683 464.8422 428.7083 472.6522C414.5483 541.5022 420.4083 544.9222 342.7783 557.6122C335.4483 558.5922 331.5383 564.4522 331.5383 570.8022C331.5383 578.6122 335.4483 583.4922 343.7483 584.4722C420.4083 596.1922 414.5483 599.6122 428.7083 668.9422C430.6683 676.7622 434.5683 681.6422 441.8983 681.6422ZM364.7483 975.5822H855.9583C877.4383 975.5822 895.5083 958.0122 895.5083 936.0322C895.5083 914.0622 877.4383 896.4822 855.9583 896.4822H364.7483C343.2583 896.4822 325.1983 914.0622 325.1983 936.0322C325.1983 958.0122 343.2583 975.5822 364.7483 975.5822Z"/>
</svg>