<?xml version="1.0" encoding="UTF-8" standalone="no"?>
<svg xmlns="http://www.w3.org/2000/svg"
     width="1076.171875" height="1013.18359375"
     viewBox="0 0 1076.171875 1013.18359375"
     fill="currentColor">
  <path d="M290.0383 1013.1819C309.0783 1013.1819 323.2383 1003.4219 346.1883 981.9319L522.4583 820.8019H852.5383C998.0483 820.8019 1076.1683 740.7219 1076.1683 597.6519V223.6319C1076.1683 80.5619 998.0483 0.0019 852.5383 0.0019H223.6283C78.1283 0.0019 -0.0017 80.0819 -0.0017 223.6319V597.6519C-0.0017 741.2119 78.1283 820.8019 223.6283 820.8019H246.5783V962.8919C246.5783 993.1619 262.2083 1013.1819 290.0383 1013.1819ZM522.4583 636.7219C509.7683 636.7219 499.9983 632.3219 488.2783 621.0919L378.9083 516.6019C376.9483 515.1319 374.5083 514.6519 372.0683 514.6519H298.3383C263.6683 514.6519 244.1383 495.1219 244.1383 458.4919V362.3019C244.1383 325.6819 263.6683 306.1519 298.3383 306.1519H372.0683C374.5083 306.1519 376.9483 305.6619 378.9083 304.2019L488.2783 200.6819C501.4683 188.4719 509.2783 183.1019 521.4883 183.1019C538.5783 183.1019 551.2683 196.7819 551.2683 213.3819V607.9119C551.2683 624.5119 538.5783 636.7219 522.4583 636.7219ZM725.5883 589.8419C712.3983 582.0319 710.4483 565.4319 719.7283 552.2419C747.5583 515.6219 762.6983 462.8919 762.6983 409.6719C762.6983 355.9619 747.5583 305.1719 720.2183 266.6019C710.9383 253.9019 713.3783 238.2819 725.5883 229.0019C737.3083 220.7019 752.9283 223.6319 761.7183 236.3319C796.3883 285.1519 814.9383 346.6819 814.9383 409.6719C814.9383 474.1219 795.4083 535.6419 761.2283 583.4919C753.4183 595.2119 738.2783 598.1419 725.5883 589.8419ZM636.2283 523.4419C623.5383 513.6719 621.0983 498.5319 630.3683 484.8619C643.5583 465.8219 651.8583 437.9919 651.8583 409.6719C651.8583 380.3719 644.0383 352.5419 630.3683 334.9619C621.0983 321.7819 623.5383 306.1519 636.2283 296.3819C647.4583 287.6019 663.5783 291.0119 672.3683 302.7319C692.3783 330.5619 704.5883 370.1219 704.5883 409.6719C704.5883 451.1719 692.8683 490.2319 672.3683 517.0919C663.0883 528.3219 647.4583 532.2219 636.2283 523.4419Z"/>
</svg>