<?xml version="1.0" encoding="UTF-8" standalone="no"?>
<svg xmlns="http://www.w3.org/2000/svg"
     width="1189.94140625" height="861.328125"
     viewBox="0 0 1189.94140625 861.328125"
     fill="currentColor">
  <path d="M526.3683 861.3248C558.5983 861.3248 581.5383 838.3748 581.5383 806.6448V57.6148C581.5383 25.8748 558.5983 0.0048 525.3883 0.0048C502.4383 0.0048 486.8183 9.7648 462.3983 33.6948L253.9083 229.0048C250.9783 231.9348 246.5783 233.3948 241.6983 233.3948H102.0483C35.6483 233.3948 -0.0017 270.0148 -0.0017 340.3348V521.9748C-0.0017 592.7748 35.6483 628.9048 102.0483 628.9048H241.6983C246.5783 628.9048 250.9783 630.3748 253.9083 633.3048L462.3983 830.5648C484.3783 852.0548 503.4183 861.3248 526.3683 861.3248ZM737.3083 430.1748C737.3083 454.1048 754.3983 470.2148 779.2983 470.2148H922.8483V614.2548C922.8483 638.6748 939.4483 655.7648 963.3783 655.7648C987.7883 655.7648 1004.8783 639.1648 1004.8783 614.2548V470.2148H1148.9283C1173.3383 470.2148 1189.9383 454.1048 1189.9383 430.1748C1189.9383 405.7648 1173.3383 388.6748 1148.9283 388.6748H1004.8783V245.1148C1004.8783 220.2148 987.7883 203.1248 963.3783 203.1248C939.4483 203.1248 922.8483 220.2148 922.8483 245.1148V388.6748H779.2983C754.3983 388.6748 737.3083 405.7648 737.3083 430.1748Z"/>
</svg>