<?xml version="1.0" encoding="UTF-8" standalone="no"?>
<svg xmlns="http://www.w3.org/2000/svg"
     width="996.09375" height="996.09375"
     viewBox="0 0 996.09375 996.09375"
     fill="currentColor">
  <path d="M498.0477 996.0959C770.5077 996.0959 996.0977 770.0159 996.0977 498.0459C996.0977 225.5859 770.0177 -0.0041 497.5577 -0.0041C225.5877 -0.0041 -0.0023 225.5859 -0.0023 498.0459C-0.0023 770.0159 226.0777 996.0959 498.0477 996.0959ZM498.0477 913.0859C267.5777 913.0859 83.4977 728.5159 83.4977 498.0459C83.4977 267.5759 267.0877 83.0059 497.5577 83.0059C728.0277 83.0059 913.0877 267.5759 913.0877 498.0459C913.0877 728.5159 728.5177 913.0859 498.0477 913.0859ZM481.9377 717.7759C498.0477 717.7759 509.7677 706.0559 509.7677 689.9459V307.1259C509.7677 291.0159 498.0477 277.8359 481.4477 277.8359C469.7277 277.8359 461.9177 283.2059 449.2177 294.9259L342.7777 395.5059C341.3077 396.9759 338.8677 397.4559 336.4277 397.4559H264.6477C231.4477 397.4559 212.8877 416.0159 212.8877 451.6559V544.9259C212.8877 580.0759 231.4477 598.6359 264.6477 598.6359H336.4277C338.8677 598.6359 341.3077 599.6059 342.7777 601.0759L449.2177 702.6359C460.4477 712.8859 470.2177 717.7759 481.9377 717.7759ZM679.1977 672.3659C691.8977 680.1759 706.0577 677.7359 714.3577 666.0159C747.0677 619.6259 765.6277 560.0559 765.6277 497.5559C765.6277 436.5259 748.0477 376.9559 714.3577 329.5859C705.5677 317.3859 690.9177 314.4559 679.1977 322.2659C667.4777 331.0559 665.5277 346.1959 674.3177 358.8859C700.6877 395.9959 715.3277 445.3159 715.3277 497.5559C715.3277 549.3159 700.6877 600.5859 674.3177 636.2259C665.0377 648.9259 666.5077 664.5459 679.1977 672.3659ZM592.7777 607.9059C603.5177 616.2059 619.1377 612.7959 627.9277 601.5659C647.9477 575.6859 659.1777 537.1059 659.1777 497.5559C659.1777 458.9859 647.4577 420.4059 627.9277 394.0459C619.6277 382.3259 603.5177 379.3959 592.7777 387.6959C580.5677 396.9759 578.1277 412.1059 587.3977 424.8059C600.0977 441.8959 608.3977 469.2359 608.3977 497.5559C608.3977 524.9059 600.0977 552.2459 586.9177 570.7959C578.1277 583.9859 580.0777 598.1459 592.7777 607.9059Z"/>
</svg>