<?xml version="1.0" encoding="UTF-8" standalone="no"?>
<svg xmlns="http://www.w3.org/2000/svg"
     width="1208.0078125" height="861.328125"
     viewBox="0 0 1208.0078125 861.328125"
     fill="currentColor">
  <path d="M99.1183 628.9048H239.2583C243.6483 628.9048 247.5583 630.3748 250.9783 633.3048L471.1883 830.5648C494.6283 851.5648 512.6983 861.3248 536.1283 861.3248C567.3783 861.3248 591.3083 838.3748 591.3083 806.6448V57.6148C591.3083 25.8748 567.3783 0.0048 535.1583 0.0048C511.7183 0.0048 496.5783 10.7448 471.1883 33.6948L250.9783 229.0048C247.5583 231.9348 243.6483 233.3948 239.2583 233.3948H99.1183C32.7183 233.3948 -0.0017 267.0848 -0.0017 337.8948V524.9048C-0.0017 595.7048 33.1983 628.9048 99.1183 628.9048ZM102.5383 557.6148C84.4683 557.6148 76.1683 549.3148 76.1683 531.2548V331.5448C76.1683 312.9848 84.4683 304.6848 102.5383 304.6848H258.7883C271.4883 304.6848 281.2483 302.2448 292.4783 291.9948L500.4883 103.0248C502.9283 100.5848 505.3683 99.1248 508.7883 99.1248C512.2083 99.1248 515.1383 101.5648 515.1383 105.9548V754.8848C515.1383 759.2748 512.2083 762.2048 508.7883 762.2048C506.3483 762.2048 503.4183 760.7448 500.4883 758.3048L292.4783 570.3148C281.2483 560.5448 271.4883 557.6148 258.7883 557.6148ZM778.8083 471.1948H1161.6183C1188.9683 471.1948 1208.0083 456.5448 1208.0083 430.6648C1208.0083 404.2948 1190.4283 389.1648 1161.6183 389.1648H778.8083C750.4883 389.1648 731.9383 404.2948 731.9383 430.6648C731.9383 456.5448 751.4683 471.1948 778.8083 471.1948Z"/>
</svg>