<?xml version="1.0" encoding="UTF-8" standalone="no"?>
<svg xmlns="http://www.w3.org/2000/svg"
     width="996.09375" height="996.09375"
     viewBox="0 0 996.09375 996.09375"
     fill="currentColor">
  <path d="M498.0477 996.0977C770.5077 996.0977 996.0977 770.5077 996.0977 498.0477C996.0977 226.0777 770.0177 -0.0023 497.5577 -0.0023C225.5877 -0.0023 -0.0023 226.0777 -0.0023 498.0477C-0.0023 770.5077 226.0777 996.0977 498.0477 996.0977ZM481.9377 725.0977C469.7277 725.0977 459.4777 720.2177 447.7577 708.9877L338.3777 604.4877C336.9177 603.0277 333.9877 602.5377 331.5477 602.5377H257.8077C223.6377 602.5377 204.0977 583.0077 204.0977 546.3877V450.1977C204.0977 413.5777 223.6377 394.0477 257.8077 394.0477H331.5477C333.9877 394.0477 336.9177 393.5577 338.3777 392.0877L447.7577 288.5777C460.9377 276.3677 469.2377 270.9977 480.9577 270.9977C498.5377 270.9977 510.7377 284.6677 510.7377 301.2677V696.2877C510.7377 712.3977 498.5377 725.0977 481.9377 725.0977ZM685.0577 677.7377C671.8777 669.9177 670.4077 653.3177 679.6877 640.1377C707.0277 603.5177 722.1677 550.7777 722.1677 498.0477C722.1677 443.8477 707.0277 393.0677 679.6877 354.4877C670.8977 341.7977 672.8477 326.1677 685.0577 317.3877C697.2677 308.5977 712.3977 311.5277 721.1877 324.2177C756.3477 373.0477 774.4177 434.5677 774.4177 498.0477C774.4177 562.0077 754.8877 623.5377 721.1877 671.3877C712.8877 683.1077 698.2377 686.0377 685.0577 677.7377ZM596.1877 611.3277C583.0077 601.5577 580.5677 586.4277 589.8477 572.7577C603.5177 553.7077 611.8177 525.8777 611.8177 498.0477C611.8177 468.2577 603.5177 440.4277 590.3277 423.3377C580.5677 409.6677 583.4977 394.0477 596.1877 384.2777C606.9377 375.4877 623.5377 379.3977 632.3277 390.6277C652.3477 418.4577 664.5477 458.0077 664.5477 498.0477C664.5477 539.0577 652.8277 578.1277 632.3277 604.9777C623.0477 616.6977 606.9377 620.1177 596.1877 611.3277Z"/>
</svg>