<?xml version="1.0" encoding="UTF-8" standalone="no"?>
<svg xmlns="http://www.w3.org/2000/svg"
     width="996.09375" height="996.09375"
     viewBox="0 0 996.09375 996.09375"
     fill="currentColor">
  <path d="M498.0477 996.0959C770.5077 996.0959 996.0977 770.0159 996.0977 498.0459C996.0977 225.5859 770.0177 -0.0041 497.5577 -0.0041C225.5877 -0.0041 -0.0023 225.5859 -0.0023 498.0459C-0.0023 770.0159 226.0777 996.0959 498.0477 996.0959ZM498.0477 913.0859C267.5777 913.0859 83.4977 728.5159 83.4977 498.0459C83.4977 267.5759 267.0877 83.0059 497.5577 83.0059C728.0277 83.0059 913.0877 267.5759 913.0877 498.0459C913.0877 728.5159 728.5177 913.0859 498.0477 913.0859ZM728.0277 759.2759C736.3277 767.5759 750.9777 767.5759 759.2777 759.2759C768.0677 750.4859 768.0677 736.8159 759.2777 728.0259L267.5777 235.8359C258.7877 227.0459 244.6277 227.0459 235.8377 235.8359C227.0477 244.6259 227.5377 258.7859 235.8377 267.0859ZM463.3777 378.9059L612.7977 528.3159V307.1259C612.7977 291.0159 601.0777 277.8359 584.4777 277.8359C572.7577 277.8359 564.9377 283.2059 552.2477 294.9259ZM367.6777 598.6359H439.4577C441.8977 598.6359 443.8477 599.6059 445.7977 601.0759L552.2477 702.6359C563.4777 712.8859 573.2377 717.7759 584.9577 717.7759C593.2577 717.7759 599.1177 713.8659 603.5177 708.4959L608.8877 691.8959L333.4977 416.5059H329.5877C321.7777 423.3359 315.9177 436.5259 315.9177 451.6559V544.9259C315.9177 580.0759 334.4777 598.6359 367.6777 598.6359Z"/>
</svg>