<?xml version="1.0" encoding="UTF-8" standalone="no"?>
<svg xmlns="http://www.w3.org/2000/svg"
     width="868.1640625" height="861.328125"
     viewBox="0 0 868.1640625 861.328125"
     fill="currentColor">
  <path d="M99.1242 628.9048H239.2542C243.6542 628.9048 247.5542 630.3748 250.9742 633.3048L471.1942 830.5648C494.1442 851.5648 512.6942 861.3248 535.6442 861.3248C567.3842 861.3248 590.8242 838.3748 590.8242 806.6448V57.6148C590.8242 25.8748 567.3842 0.0048 534.6642 0.0048C511.7142 0.0048 496.5842 10.7448 471.1942 33.6948L250.9742 229.0048C247.5542 231.9348 243.6542 233.3948 239.2542 233.3948H99.1242C32.7142 233.3948 0.0042 267.0848 0.0042 337.8948V524.9048C0.0042 595.7048 33.2042 628.9048 99.1242 628.9048ZM102.5342 557.6148C84.4742 557.6148 76.1742 549.3148 76.1742 531.2548V331.5448C76.1742 312.9848 84.4742 304.6848 102.5342 304.6848H258.7842C271.4842 304.6848 281.2542 302.2448 292.4842 291.9948L500.4842 103.0248C502.9342 100.5848 505.3742 99.1248 508.7842 99.1248C512.2042 99.1248 515.1342 101.5648 515.1342 105.9548V754.8848C515.1342 759.2748 512.2042 762.2048 508.7842 762.2048C506.3442 762.2048 503.4142 760.7448 500.4842 758.3048L292.4842 570.3148C281.2542 560.5448 271.4842 557.6148 258.7842 557.6148ZM755.8642 638.6748C771.9742 649.9048 794.9242 646.4848 808.1042 627.4448C845.7042 578.1248 868.1642 505.3748 868.1642 430.6648C868.1642 355.9548 845.7042 283.6948 808.1042 233.8848C794.9242 214.8448 771.9742 210.9348 755.8642 222.6548C735.8442 236.3248 732.9142 260.7448 748.0442 280.7648C776.3642 319.8248 792.4842 374.0248 792.4842 430.6648C792.4842 487.3048 775.8742 541.0148 748.0442 580.5648C733.3942 601.0748 735.8442 624.5148 755.8642 638.6748Z"/>
</svg>