<?xml version="1.0" encoding="UTF-8" standalone="no"?>
<svg xmlns="http://www.w3.org/2000/svg"
     width="1089.84375" height="861.328125"
     viewBox="0 0 1089.84375 861.328125"
     fill="currentColor">
  <path d="M526.3642 861.3248C558.5942 861.3248 581.5442 838.3748 581.5442 806.6448V57.6148C581.5442 25.8748 558.5942 0.0048 525.3942 0.0048C502.4442 0.0048 487.3042 10.2548 462.4042 33.6948L253.9042 229.0048C250.9742 231.9348 246.5842 233.3948 241.7042 233.3948H102.0542C35.6442 233.3948 0.0042 270.0148 0.0042 340.3348V521.9748C0.0042 592.7748 35.6442 628.9048 102.0542 628.9048H241.7042C246.5842 628.9048 250.9742 630.3748 253.9042 633.3048L462.4042 830.5648C484.3742 852.0548 503.4142 861.3248 526.3642 861.3248ZM937.0142 765.6248C955.0742 777.8348 977.5342 773.4348 990.7242 754.8848C1053.2242 668.9448 1089.8442 550.7848 1089.8442 430.1748C1089.8442 309.5748 1053.7142 190.4248 990.7242 105.4648C977.5342 86.9148 955.0742 82.5148 937.0142 94.7248C918.9442 106.9348 916.0142 129.8848 930.1742 149.9048C983.3942 225.0948 1014.1642 326.1748 1014.1642 430.1748C1014.1642 534.1748 982.4242 634.2748 930.1742 710.4448C916.5042 730.4648 918.9442 753.4148 937.0142 765.6248ZM756.3442 638.1848C772.4642 649.4148 795.4142 645.9948 808.5942 626.9548C846.1942 577.6348 868.6542 504.8848 868.6542 430.1748C868.6542 355.4648 846.1942 283.2048 808.5942 233.3948C795.4142 214.3548 772.4642 210.4448 756.3442 222.1648C736.3242 235.8348 733.3942 260.2548 748.5342 280.2748C776.8542 319.3348 792.9642 373.5348 792.9642 430.1748C792.9642 486.8148 776.3642 540.5248 748.5342 580.0748C733.8842 600.5848 736.3242 624.0248 756.3442 638.1848Z"/>
</svg>