<?xml version="1.0" encoding="UTF-8" standalone="no"?>
<svg xmlns="http://www.w3.org/2000/svg"
     width="581.54296875" height="861.328125"
     viewBox="0 0 581.54296875 861.328125"
     fill="currentColor">
  <path d="M526.3642 861.3248C558.5942 861.3248 581.5442 838.3748 581.5442 806.6448V57.6148C581.5442 25.8748 558.5942 0.0048 525.3942 0.0048C502.9342 0.0048 487.3042 9.7648 462.4042 33.6948L254.3942 229.0048C250.9742 231.9348 247.0742 233.3948 242.1842 233.3948H102.0542C36.1342 233.3948 0.0042 270.0148 0.0042 340.3348V521.9748C0.0042 592.7748 36.1342 628.9048 102.0542 628.9048H242.1842C247.0742 628.9048 250.9742 630.3748 254.3942 633.3048L462.4042 830.5648C484.8642 852.0548 503.9042 861.3248 526.3642 861.3248Z"/>
</svg>