<?xml version="1.0" encoding="UTF-8" standalone="no"?>
<svg xmlns="http://www.w3.org/2000/svg"
     width="1310.546875" height="943.1238347412728"
     viewBox="0 0 1310.546875 943.1238347412728"
     fill="currentColor">
  <path d="M1120.1142 936.464C1136.7142 948.674 1160.6442 943.794 1173.8242 924.264C1259.2742 800.724 1310.5442 643.984 1310.5442 471.624C1310.5442 298.774 1257.8142 143.014 1173.8242 18.984C1160.6442 -1.036 1136.7142 -5.426 1120.1142 6.784C1101.5642 19.474 1099.1242 42.424 1112.3042 62.444C1187.9842 174.264 1235.8442 314.884 1235.8442 471.624C1235.8442 627.874 1187.9842 769.474 1112.3042 880.804C1099.1242 900.824 1101.5642 923.774 1120.1142 936.464ZM99.1242 670.354H239.2542C243.6542 670.354 247.5542 671.824 250.9742 674.754L471.1942 872.014C494.6242 893.014 512.6942 902.774 536.1342 902.774C567.3842 902.774 591.3042 879.824 591.3042 848.094V99.064C591.3042 67.324 567.3842 41.454 535.1542 41.454C511.7142 41.454 496.5842 52.194 471.1942 75.144L250.9742 270.454C247.5542 273.384 243.6542 274.844 239.2542 274.844H99.1242C32.7142 274.844 0.0042 308.534 0.0042 379.344V566.354C0.0042 637.154 33.2042 670.354 99.1242 670.354ZM937.0142 807.074C955.0742 819.284 977.5342 814.884 990.7242 796.334C1053.2242 710.394 1089.8442 592.234 1089.8442 471.624C1089.8442 351.024 1053.7142 231.874 990.7242 146.914C977.5342 128.364 955.0742 123.964 937.0142 136.174C918.9442 148.384 916.0142 171.334 930.1742 191.354C983.3942 266.544 1014.1642 367.624 1014.1642 471.624C1014.1642 575.624 982.4242 675.724 930.1742 751.894C916.5042 771.914 918.9442 794.864 937.0142 807.074ZM102.5342 599.064C84.4742 599.064 76.1742 590.764 76.1742 572.704V372.994C76.1742 354.434 84.4742 346.134 102.5342 346.134H258.7842C271.4842 346.134 281.2542 343.694 292.4842 333.444L500.4842 144.474C502.9342 142.034 505.3742 140.574 508.7842 140.574C512.2042 140.574 515.1342 143.014 515.1342 147.404V796.334C515.1342 800.724 512.2042 803.654 508.7842 803.654C506.3442 803.654 503.4142 802.194 500.4842 799.754L292.4842 611.764C281.2542 601.994 271.4842 599.064 258.7842 599.064ZM756.3442 679.634C772.4642 690.864 795.4142 687.444 808.5942 668.404C846.1942 619.084 868.6542 546.334 868.6542 471.624C868.6542 396.914 846.1942 324.654 808.5942 274.844C795.4142 255.804 772.4642 251.894 756.3442 263.614C736.3242 277.284 733.3942 301.704 748.5342 321.724C776.8542 360.784 792.9642 414.984 792.9642 471.624C792.9642 528.264 776.3642 581.974 748.5342 621.524C733.8842 642.034 736.3242 665.474 756.3442 679.634Z"/>
</svg>