<?xml version="1.0" encoding="UTF-8" standalone="no"?>
<svg xmlns="http://www.w3.org/2000/svg"
     width="996.09375" height="996.09375"
     viewBox="0 0 996.09375 996.09375"
     fill="currentColor">
  <path d="M498.0477 996.0977C770.5077 996.0977 996.0977 770.5077 996.0977 498.0477C996.0977 226.0777 770.0177 -0.0023 497.5577 -0.0023C225.5877 -0.0023 -0.0023 226.0777 -0.0023 498.0477C-0.0023 770.5077 226.0777 996.0977 498.0477 996.0977ZM735.3477 767.5777L228.0277 260.7377C219.7277 251.4677 219.2377 236.8177 228.0277 228.0277C237.3077 218.7477 251.9577 218.7477 261.2277 228.0277L768.0677 734.8677C776.8577 744.1377 776.8577 758.2977 768.0677 767.5777C759.2777 776.3677 744.1377 775.8777 735.3477 767.5777ZM462.8877 374.9977L554.1977 288.5777C567.3877 276.3677 575.6877 270.9977 587.8877 270.9977C604.9777 270.9977 617.1877 284.6677 617.1877 301.2677V529.2977ZM364.2577 602.5377C330.0777 602.5377 310.5477 583.0077 310.5477 546.3877V450.1977C310.5477 434.5677 316.8977 421.8777 324.7077 414.5477H328.6177L612.7977 698.2377L607.4177 715.8177C603.0277 720.7077 596.6777 725.0977 588.3777 725.0977C576.1677 725.0977 565.9177 720.2177 554.1977 708.9877L444.8277 604.4877C442.8677 603.0277 440.9177 602.5377 437.9877 602.5377Z"/>
</svg>