<?xml version="1.0" encoding="UTF-8" standalone="no"?>
<svg xmlns="http://www.w3.org/2000/svg"
     width="1189.94140625" height="861.328125"
     viewBox="0 0 1189.94140625 861.328125"
     fill="currentColor">
  <path d="M99.1183 628.9048H239.2583C243.6483 628.9048 247.5583 630.3748 250.9783 633.3048L471.1883 830.5648C494.6283 851.5648 512.6983 861.3248 536.1283 861.3248C567.3783 861.3248 591.3083 838.3748 591.3083 806.6448V57.6148C591.3083 25.8748 567.3783 0.0048 535.1583 0.0048C511.7183 0.0048 496.5783 10.7448 471.1883 33.6948L250.9783 229.0048C247.5583 231.9348 243.6483 233.3948 239.2583 233.3948H99.1183C32.7183 233.3948 -0.0017 267.0848 -0.0017 337.8948V524.9048C-0.0017 595.7048 33.1983 628.9048 99.1183 628.9048ZM102.5383 557.6148C84.4683 557.6148 76.1683 549.3148 76.1683 531.2548V331.5448C76.1683 312.9848 84.4683 304.6848 102.5383 304.6848H258.7883C271.4883 304.6848 281.2483 302.2448 292.4783 291.9948L500.4883 103.0248C502.9283 100.5848 505.3683 99.1248 508.7883 99.1248C512.2083 99.1248 515.1383 101.5648 515.1383 105.9548V754.8848C515.1383 759.2748 512.2083 762.2048 508.7883 762.2048C506.3483 762.2048 503.4183 760.7448 500.4883 758.3048L292.4783 570.3148C281.2483 560.5448 271.4883 557.6148 258.7883 557.6148ZM737.3083 430.1748C737.3083 454.1048 754.3983 470.2148 779.2983 470.2148H922.8483V614.2548C922.8483 638.6748 939.4483 655.7648 963.3783 655.7648C987.7883 655.7648 1004.8783 639.1648 1004.8783 614.2548V470.2148H1148.9283C1173.3383 470.2148 1189.9383 454.1048 1189.9383 430.1748C1189.9383 405.7648 1173.3383 388.6748 1148.9283 388.6748H1004.8783V245.1148C1004.8783 220.2148 987.7883 203.1248 963.3783 203.1248C939.4483 203.1248 922.8483 220.2148 922.8483 245.1148V388.6748H779.2983C754.3983 388.6748 737.3083 405.7648 737.3083 430.1748Z"/>
</svg>