<?xml version="1.0" encoding="UTF-8" standalone="no"?>
<svg xmlns="http://www.w3.org/2000/svg"
     width="996.09375" height="996.09375"
     viewBox="0 0 996.09375 996.09375"
     fill="currentColor">
  <path d="M498.0477 996.0959C770.5077 996.0959 996.0977 770.0159 996.0977 498.0459C996.0977 225.5859 770.0177 -0.0041 497.5577 -0.0041C225.5877 -0.0041 -0.0023 225.5859 -0.0023 498.0459C-0.0023 770.0159 226.0777 996.0959 498.0477 996.0959ZM498.0477 913.0859C267.5777 913.0859 83.4977 728.5159 83.4977 498.0459C83.4977 267.5759 267.0877 83.0059 497.5577 83.0059C728.0277 83.0059 913.0877 267.5759 913.0877 498.0459C913.0877 728.5159 728.5177 913.0859 498.0477 913.0859ZM497.5577 263.6759C523.4377 263.6759 545.4077 241.6959 545.4077 215.8159C545.4077 188.9659 523.4377 167.4759 497.5577 167.4759C471.1877 167.4759 449.7077 188.9659 449.7077 215.8159C449.7077 241.6959 471.1877 263.6759 497.5577 263.6759ZM419.9177 573.2459C459.4777 611.8159 513.6677 603.0259 546.3877 557.1259L737.3077 290.5259C754.8877 266.1159 729.0077 240.7259 704.5877 257.8159L435.5477 446.2859C389.1577 478.5159 380.8577 533.2059 419.9177 573.2459ZM299.3177 349.6059C325.6877 349.6059 347.1677 327.6359 347.1677 301.7559C347.1677 274.9059 325.6877 253.9059 299.3177 253.9059C272.9477 253.9059 251.4677 274.9059 251.4677 301.7559C251.4677 327.6359 272.9477 349.6059 299.3177 349.6059ZM216.3077 545.8959C243.1677 545.8959 264.6477 524.4159 264.6477 498.0459C264.6477 471.6759 243.1677 450.1959 216.3077 450.1959C190.4277 450.1959 168.4577 471.6759 168.4577 498.0459C168.4577 524.4159 190.4277 545.8959 216.3077 545.8959ZM778.8077 545.8959C804.6877 545.8959 826.6577 524.4159 826.6577 498.0459C826.6577 471.6759 804.6877 450.1959 778.8077 450.1959C751.9577 450.1959 730.9577 471.6759 730.9577 498.0459C730.9577 524.4159 751.9577 545.8959 778.8077 545.8959ZM300.2977 742.6759C326.6577 742.6759 348.1477 720.7059 348.1477 694.3359C348.1477 667.9659 326.6577 646.4859 300.2977 646.4859C273.9277 646.4859 252.4377 667.9659 252.4377 694.3359C252.4377 720.7059 273.9277 742.6759 300.2977 742.6759ZM694.8277 742.6759C721.1877 742.6759 742.6777 720.7059 742.6777 694.3359C742.6777 667.9659 721.1877 646.4859 694.8277 646.4859C668.4577 646.4859 646.9777 667.9659 646.9777 694.3359C646.9777 720.7059 668.4577 742.6759 694.8277 742.6759Z"/>
</svg>