<?xml version="1.0" encoding="UTF-8" standalone="no"?>
<svg xmlns="http://www.w3.org/2000/svg"
     width="1319.3359375" height="898.92578125"
     viewBox="0 0 1319.3359375 898.92578125"
     fill="currentColor">
  <path d="M-0.0017 747.5595C-0.0017 848.6295 51.2683 898.9295 153.3183 898.9295H624.0283V677.7295C507.3283 663.5695 428.2183 574.2195 428.2183 449.2195C428.2183 323.2395 507.3283 233.8895 624.0283 220.6995V-0.0005H153.3183C51.2683 -0.0005 -0.0017 50.2895 -0.0017 151.3695V212.3995H170.4083C234.8683 212.3995 272.4583 249.9995 272.4583 313.9695V584.4695C272.4583 648.4395 234.8683 686.0395 170.4083 686.0395H-0.0017ZM692.8683 898.9295H1166.5083C1268.5583 898.9295 1319.3383 848.1495 1319.3383 747.5595V686.0395H1149.4183C1084.4683 686.0395 1047.3683 648.4395 1047.3683 584.4695V313.9695C1047.3683 249.9995 1084.4683 212.3995 1149.4183 212.3995H1319.3383V151.3695C1319.3383 50.7795 1268.5583 -0.0005 1166.5083 -0.0005H692.8683V221.6795C809.0783 236.8195 887.6983 326.6595 888.6683 449.2195C890.1383 574.2195 811.0383 663.0895 692.8683 677.7295ZM-0.0017 617.1895H169.4383C190.9183 617.1895 203.6183 604.4895 203.6183 582.5195V315.9195C203.6183 293.9495 190.9183 281.2495 169.4383 281.2495H-0.0017ZM1116.2083 582.5195C1116.2083 604.4895 1128.9083 617.1895 1149.8983 617.1895H1319.3383V281.2495H1149.8983C1128.9083 281.2495 1116.2083 293.9495 1116.2083 315.9195ZM493.1683 448.7295C493.1683 533.6895 546.3883 597.1695 624.0283 610.8395V288.0895C546.3883 301.7595 493.1683 364.2595 493.1683 448.7295ZM692.8683 610.8395C770.5083 597.1695 823.2383 533.6895 823.7283 448.7295C824.2183 364.2595 770.9983 301.2695 692.8683 288.0895Z"/>
</svg>