<?xml version="1.0" encoding="UTF-8" standalone="no"?>
<svg xmlns="http://www.w3.org/2000/svg"
     width="1027.34375" height="796.875"
     viewBox="0 0 1027.34375 796.875"
     fill="currentColor">
  <path d="M-0.0017 757.3283C-0.0017 779.2983 17.5783 796.8783 39.0583 796.8783H987.7883C1009.2783 796.8783 1027.3483 779.2983 1027.3483 757.3283C1027.3483 735.8383 1009.2783 718.2583 987.7883 718.2583H588.8683V490.7183H625.9783C662.1083 490.7183 687.0083 465.8183 687.0083 429.1983V340.8183C687.0083 304.6883 662.1083 279.7883 625.9783 279.7883H588.8683V206.5383H625.9783C662.1083 206.5383 687.0083 181.1483 687.0083 145.0183V103.5183C687.0083 42.4783 643.0683 -0.0017 578.6183 -0.0017H448.2383C383.7883 -0.0017 339.8483 42.4783 339.8483 103.5183V145.0183C339.8483 181.1483 364.7483 206.5383 400.8783 206.5383H438.4783V279.7883H401.3683C365.2383 279.7883 339.8483 304.6883 339.8483 340.8183V429.1983C339.8483 465.8183 365.2383 490.7183 401.3683 490.7183H438.4783V718.2583H39.0583C17.5783 718.2583 -0.0017 735.8383 -0.0017 757.3283Z"/>
</svg>