<?xml version="1.0" encoding="UTF-8" standalone="no"?>
<svg xmlns="http://www.w3.org/2000/svg"
     width="1110.3515625" height="1327.63671875"
     viewBox="0 0 1110.3515625 1327.63671875"
     fill="currentColor">
  <path d="M433.1083 719.2333C454.0983 719.2333 472.1683 702.1533 472.1683 681.6433V179.6833L469.2383 106.9333L501.9483 141.6033L576.1683 220.2133C583.0083 228.0233 592.7783 231.9333 602.5383 231.9333C622.5583 231.9333 638.1883 217.7733 638.1883 197.7533C638.1883 187.0133 633.7883 179.2033 626.4683 171.8733L461.4283 12.6933C451.6583 2.9333 443.3583 0.0033 433.1083 0.0033C423.3383 0.0033 415.0383 2.9333 404.7883 12.6933L239.7483 171.8733C232.4183 179.2033 228.5183 187.0133 228.5183 197.7533C228.5183 217.7733 243.1683 231.9333 263.6683 231.9333C272.9483 231.9333 283.6883 228.0233 290.5283 220.2133L364.2583 141.6033L397.4583 106.9333L394.5283 179.6833V681.6433C394.5283 702.1533 412.1083 719.2333 433.1083 719.2333ZM153.3183 1101.5633H285.1583V1176.2733C285.1583 1276.8533 336.4283 1327.6333 438.4783 1327.6333H957.0283C1059.0783 1327.6333 1110.3483 1277.3433 1110.3483 1176.2733V689.4533C1110.3483 588.3833 1059.0783 538.0833 957.0283 538.0833H866.6983V463.3833C866.6983 362.7933 815.4283 312.0133 713.3783 312.0133H577.1483V390.6233H711.9183C760.2583 390.6233 788.0883 416.5033 788.0883 467.2833V946.2933C788.0883 997.0733 760.2583 1022.9533 711.9183 1022.9533H154.2983C105.4683 1022.9533 78.6183 997.0733 78.6183 946.2933V467.2833C78.6183 416.5033 105.4683 390.6233 154.2983 390.6233H289.5483V312.0133H153.3183C51.2683 312.0133 -0.0017 362.3033 -0.0017 463.3833V950.1933C-0.0017 1051.2733 51.2683 1101.5633 153.3183 1101.5633ZM439.9383 1249.0233C391.5983 1249.0233 363.7683 1223.1433 363.7683 1172.3633V1101.5633H713.3783C815.4283 1101.5633 866.6983 1050.7833 866.6983 950.1933V616.7033H956.0583C1004.8783 616.7033 1031.7383 642.5733 1031.7383 693.3633V1172.3633C1031.7383 1223.1433 1004.8783 1249.0233 956.0583 1249.0233Z"/>
</svg>