<?xml version="1.0" encoding="UTF-8" standalone="no"?>
<svg xmlns="http://www.w3.org/2000/svg"
     width="1079.1015625" height="999.0234375"
     viewBox="0 0 1079.1015625 999.0234375"
     fill="currentColor">
  <path d="M524.9006 999.0208C544.9206 999.0208 561.0306 984.3708 567.8706 970.7008L305.6606 518.0708C301.7606 511.2308 298.8306 504.8808 298.8306 499.5108C298.8306 494.1408 301.7606 487.7908 305.6606 480.9608L567.8706 28.3208C561.0306 14.6508 544.9206 0.0008 524.9006 0.0008C509.7706 0.0008 492.6806 8.7908 481.9306 26.8508L234.3706 446.2908C221.6806 466.8008 213.3806 481.4408 213.3806 499.5108C213.3806 517.0908 221.6806 532.2308 234.3706 552.7308L482.4206 972.1708C493.6506 990.7208 509.7706 999.0208 524.9006 999.0208ZM769.0406 998.5308C795.9006 998.5308 813.4806 982.9108 836.4306 943.8508L1059.0806 561.5208C1072.7506 538.0908 1079.1006 519.0408 1079.1006 499.5108C1079.1006 479.4908 1072.7506 460.9408 1059.0806 437.5008L836.4306 55.1708C813.4806 16.1108 795.9006 0.4908 769.0406 0.4908C742.1906 0.4908 724.6106 16.1108 701.1706 55.1708L479.0006 437.5008C464.8406 460.9408 458.9806 479.4908 458.9806 499.5108C458.9806 519.0408 465.3306 538.0908 479.0006 561.5208L701.1706 943.8508C724.6106 982.9108 742.1906 998.5308 769.0406 998.5308ZM286.1306 73.7308C303.7106 73.7308 317.8706 59.5708 317.8706 41.9908C317.8706 23.9208 303.7106 9.7608 286.1306 9.7608C268.0706 9.7608 253.9106 23.9208 253.9106 41.9908C253.9106 59.5708 268.0706 73.7308 286.1306 73.7308ZM235.3506 164.0608C253.4206 164.0608 267.5806 149.9008 267.5806 132.3208C267.5806 114.2608 253.4206 100.1008 235.3506 100.1008C217.7706 100.1008 203.6106 114.2608 203.6106 132.3208C203.6106 149.9008 217.7706 164.0608 235.3506 164.0608ZM184.5706 255.3708C202.6406 255.3708 216.8006 240.7208 216.8006 223.1408C216.8006 205.5708 202.6406 190.9208 184.5706 190.9208C166.9906 190.9208 152.8306 205.5708 152.8306 223.1408C152.8306 240.7208 166.9906 255.3708 184.5706 255.3708ZM133.3006 345.2108C151.3706 345.2108 165.5306 331.0508 165.5306 312.9908C165.5306 295.4108 151.3706 281.2508 133.3006 281.2508C115.7206 281.2508 101.5606 295.4108 101.5606 312.9908C101.5606 331.0508 115.7206 345.2108 133.3006 345.2108ZM83.0106 436.0308C100.5906 436.0308 114.7506 421.8708 114.7506 404.3008C114.7506 386.2308 100.5906 372.0708 83.0106 372.0708C65.4306 372.0708 50.7806 386.2308 50.7806 404.3008C50.7806 421.8708 65.4306 436.0308 83.0106 436.0308ZM32.2306 526.3708C49.8006 526.3708 63.9606 512.2108 63.9606 494.6308C63.9606 476.5608 49.8006 462.4008 32.2306 462.4008C14.1606 462.4008 0.0006 476.5608 0.0006 494.6308C0.0006 512.2108 14.1606 526.3708 32.2306 526.3708ZM83.0106 616.7008C100.5906 616.7008 114.7506 602.5408 114.7506 584.9608C114.7506 566.8908 100.5906 552.7308 83.0106 552.7308C65.4306 552.7308 50.7806 566.8908 50.7806 584.9608C50.7806 602.5408 65.4306 616.7008 83.0106 616.7008ZM133.3006 708.0108C151.3706 708.0108 165.5306 693.3608 165.5306 675.7808C165.5306 658.2008 151.3706 643.5508 133.3006 643.5508C115.7206 643.5508 101.5606 658.2008 101.5606 675.7808C101.5606 693.3608 115.7206 708.0108 133.3006 708.0108ZM184.5706 797.8508C202.6406 797.8508 216.8006 783.2008 216.8006 765.6208C216.8006 748.0508 202.6406 733.4008 184.5706 733.4008C166.9906 733.4008 152.8306 748.0508 152.8306 765.6208C152.8306 783.2008 166.9906 797.8508 184.5706 797.8508ZM235.3506 888.1808C253.4206 888.1808 267.5806 874.0208 267.5806 855.9608C267.5806 838.3808 253.4206 824.2208 235.3506 824.2208C217.7706 824.2208 203.6106 838.3808 203.6106 855.9608C203.6106 874.0208 217.7706 888.1808 235.3506 888.1808ZM286.1306 979.0008C303.7106 979.0008 317.8706 964.8408 317.8706 946.7808C317.8706 928.7108 303.7106 914.5508 286.1306 914.5508C268.0706 914.5508 253.9106 928.7108 253.9106 946.7808C253.9106 964.8408 268.0706 979.0008 286.1306 979.0008Z"/>
</svg>