<?xml version="1.0" encoding="UTF-8" standalone="no"?>
<svg xmlns="http://www.w3.org/2000/svg"
     width="1053.22265625" height="1028.80859375"
     viewBox="0 0 1053.22265625 1028.80859375"
     fill="currentColor">
  <path d="M34.1783 73.7323H1019.0383C1039.0583 73.7323 1053.2183 58.1023 1053.2183 36.6223C1053.2183 15.1323 1039.0583 0.0023 1019.0383 0.0023H34.1783C13.6683 0.0023 -0.0017 15.1323 -0.0017 36.6223C-0.0017 58.1023 13.6683 73.7323 34.1783 73.7323ZM93.2583 468.2623H203.6183C265.6283 468.2623 296.8783 437.0123 296.8783 372.5623V266.6023C296.8783 202.1523 265.6283 171.3823 203.6183 171.3823H93.2583C31.2483 171.3823 -0.0017 202.1523 -0.0017 266.6023V372.5623C-0.0017 437.0123 31.2483 468.2623 93.2583 468.2623ZM471.1883 468.2623H581.5383C643.5583 468.2623 674.8083 437.0123 674.8083 372.5623V266.6023C674.8083 202.1523 643.5583 171.3823 581.5383 171.3823H471.1883C409.1783 171.3823 377.9283 202.1523 377.9283 266.6023V372.5623C377.9283 437.0123 409.1783 468.2623 471.1883 468.2623ZM849.1183 468.2623H958.9883C1020.9983 468.2623 1052.2483 437.0123 1052.2483 372.5623V266.6023C1052.2483 202.1523 1020.9983 171.3823 958.9883 171.3823H849.1183C786.6183 171.3823 755.3683 202.1523 755.3683 266.6023V372.5623C755.3683 437.0123 786.6183 468.2623 849.1183 468.2623ZM94.2383 399.4123C77.1483 399.4123 68.8483 390.6223 68.8483 372.5623V266.1123C68.8483 249.0223 77.1483 240.2323 94.2383 240.2323H202.1483C219.2383 240.2323 228.0283 249.0223 228.0283 266.1123V372.5623C228.0283 390.6223 219.2383 399.4123 202.1483 399.4123ZM472.1683 399.4123C455.0783 399.4123 446.7783 390.6223 446.7783 372.5623V266.1123C446.7783 249.0223 455.0783 240.2323 472.1683 240.2323H580.5683C597.6583 240.2323 605.9583 249.0223 605.9583 266.1123V372.5623C605.9583 390.6223 597.6583 399.4123 580.5683 399.4123ZM849.6083 399.4123C832.5183 399.4123 824.2183 390.6223 824.2183 372.5623V266.1123C824.2183 249.0223 832.5183 240.2323 849.6083 240.2323H958.0083C975.0983 240.2323 983.3983 249.0223 983.3983 266.1123V372.5623C983.3983 390.6223 975.0983 399.4123 958.0083 399.4123ZM34.1783 634.2723H1019.0383C1039.0583 634.2723 1053.2183 619.1423 1053.2183 597.6523C1053.2183 576.1723 1039.0583 560.5423 1019.0383 560.5423H34.1783C13.6683 560.5423 -0.0017 576.1723 -0.0017 597.6523C-0.0017 619.1423 13.6683 634.2723 34.1783 634.2723ZM93.7483 1028.8123H204.0983C266.1183 1028.8123 297.3683 998.0423 297.3683 933.5923V827.1523C297.3683 762.6923 266.1183 731.9323 204.0983 731.9323H93.7483C31.7383 731.9323 0.4883 762.6923 0.4883 827.1523V933.5923C0.4883 998.0423 31.7383 1028.8123 93.7483 1028.8123ZM471.6783 1028.8123H582.0283C644.0383 1028.8123 675.2883 998.0423 675.2883 933.5923V827.1523C675.2883 762.6923 644.0383 731.9323 582.0283 731.9323H471.6783C409.6683 731.9323 378.4183 762.6923 378.4183 827.1523V933.5923C378.4183 998.0423 409.6683 1028.8123 471.6783 1028.8123ZM849.6083 1028.8123H959.4683C1021.9683 1028.8123 1053.2183 998.0423 1053.2183 933.5923V827.1523C1053.2183 762.6923 1021.9683 731.9323 959.4683 731.9323H849.6083C787.5983 731.9323 756.3483 762.6923 756.3483 827.1523V933.5923C756.3483 998.0423 787.5983 1028.8123 849.6083 1028.8123ZM94.7283 959.9623C77.6383 959.9623 69.3383 951.1723 69.3383 933.5923V827.6323C69.3383 809.5723 77.6383 800.7823 94.7283 800.7823H202.6383C219.7283 800.7823 228.5183 809.5723 228.5183 827.6323V933.5923C228.5183 951.1723 219.7283 959.9623 202.6383 959.9623ZM473.1483 959.9623C455.5683 959.9623 447.2683 951.1723 447.2683 933.5923V827.6323C447.2683 809.5723 455.5683 800.7823 473.1483 800.7823H581.0583C598.1483 800.7823 606.4483 809.5723 606.4483 827.6323V933.5923C606.4483 951.1723 598.1483 959.9623 581.0583 959.9623ZM850.0983 959.9623C833.4983 959.9623 825.1983 951.1723 825.1983 933.5923V827.6323C825.1983 809.5723 833.4983 800.7823 850.0983 800.7823H958.4983C976.0783 800.7823 984.3783 809.5723 984.3783 827.6323V933.5923C984.3783 951.1723 976.0783 959.9623 958.4983 959.9623Z"/>
</svg>