<?xml version="1.0" encoding="UTF-8" standalone="no"?>
<svg xmlns="http://www.w3.org/2000/svg"
     width="1151.3671875" height="898.92578125"
     viewBox="0 0 1151.3671875 898.92578125"
     fill="currentColor">
  <path d="M153.3183 898.9278H998.0483C1100.5883 898.9278 1151.3683 848.6378 1151.3683 748.0478V151.3678C1151.3683 50.7778 1100.5883 -0.0022 998.0483 -0.0022H153.3183C51.2683 -0.0022 -0.0017 50.7778 -0.0017 151.3678V748.0478C-0.0017 848.6378 51.2683 898.9278 153.3183 898.9278ZM199.7083 661.1278C151.8583 661.1278 127.9283 637.2078 127.9283 590.3278V309.5678C127.9283 262.2078 151.8583 238.7678 199.7083 238.7678H478.0283C526.8583 238.7678 550.2883 262.6978 550.2883 309.5678V590.3278C550.2883 637.2078 526.8583 661.1278 478.0283 661.1278ZM835.9383 655.7578C712.8883 655.7578 630.3683 573.7278 630.3683 450.1978C630.3683 327.1478 713.3783 243.1678 834.4683 243.1678C951.6583 243.1678 1033.1983 319.3378 1033.1983 429.1978C1033.1983 509.2778 996.0983 561.5278 939.4483 561.5278C914.5483 561.5278 893.0683 550.7778 882.3283 531.7378C868.1683 550.7778 846.6783 561.5278 822.7583 561.5278C767.5783 561.5278 729.9783 516.5978 729.9783 450.6878C729.9783 386.7178 767.5783 340.3278 821.2883 340.3278C844.7283 340.3278 861.8183 348.6278 873.5383 362.3078V358.3978C876.4683 348.6278 886.7183 340.3278 897.9483 340.3278C912.5983 340.3278 923.3383 352.0478 923.3383 367.1878V492.1878C923.3383 506.3478 929.1983 512.6978 944.3383 512.6978C968.2583 512.6978 983.3983 481.9378 983.3983 432.1278C983.3983 348.6278 923.3383 292.4778 834.4683 292.4778C745.1183 292.4778 683.5983 356.9378 683.5983 450.6878C683.5983 546.3878 744.1383 604.9778 841.7983 604.9778C873.0483 604.9778 887.6983 599.1178 902.3483 596.6778C909.6683 595.7078 913.5783 594.2378 918.9483 594.2378C931.6383 594.2378 941.4083 604.4878 941.4083 617.1878C941.4083 630.3678 932.6183 638.6678 918.9483 644.5278C899.4183 652.3478 868.6483 655.7578 835.9383 655.7578ZM205.0783 604.9778H473.1483C486.8183 604.9778 494.1383 598.6278 494.1383 585.4478V314.4578C494.1383 301.2678 486.8183 294.9178 473.1483 294.9178H205.0783C190.9183 294.9178 184.0783 300.7778 184.0783 314.4578V585.4478C184.0783 598.6278 190.9183 604.9778 205.0783 604.9778ZM830.5683 510.2578C857.9083 510.2578 874.9983 486.8178 874.9983 448.2378C874.9983 412.1078 857.9083 390.1378 831.0583 390.1378C803.2183 390.1378 786.1283 412.1078 786.1283 449.7078C786.1283 487.7978 803.2183 510.2578 830.5683 510.2578Z"/>
</svg>