<?xml version="1.0" encoding="UTF-8" standalone="no"?>
<svg xmlns="http://www.w3.org/2000/svg"
     width="966.064453125" height="964.4752044530708"
     viewBox="0 0 966.064453125 964.4752044530708"
     fill="currentColor">
  <path d="M918.4553 115.3538L953.6153 79.2238C970.2153 61.6438 970.2153 38.2038 953.6153 22.0938L942.3853 10.3738C927.2453 -4.7662 903.3253 -2.8062 887.2053 12.8138L851.5653 47.9738ZM331.0553 648.0738L426.2653 606.5638L882.3253 150.9938L815.4253 85.0838L359.8653 540.6438L315.9153 632.4438C312.0153 640.7438 321.7753 651.9738 331.0553 648.0738ZM153.3253 964.4738H726.5653C814.4553 964.4738 865.2353 913.6938 865.2353 813.1038V291.1338L786.6253 369.7438V809.2038C786.6253 859.9838 759.2753 885.8638 725.5853 885.8638H154.7853C105.9553 885.8638 78.6153 859.9838 78.6153 809.2038V255.0038C78.6153 204.2238 105.9553 177.8538 154.7853 177.8538H599.6053L678.2253 99.2438H153.3253C51.7553 99.2438 -0.0047 150.0238 -0.0047 250.6038V813.1038C-0.0047 914.1838 51.7553 964.4738 153.3253 964.4738Z"/>
</svg>