<?xml version="1.0" encoding="UTF-8" standalone="no"?>
<svg xmlns="http://www.w3.org/2000/svg"
     width="866.69921875" height="1054.19921875"
     viewBox="0 0 866.69921875 1054.19921875"
     fill="currentColor">
  <path d="M-0.0017 902.8316C-0.0017 1003.4216 51.2683 1054.2016 153.3183 1054.2016H713.3783C815.4283 1054.2016 866.6983 1003.4216 866.6983 902.8316V425.2916C866.6983 324.7116 815.4283 273.9216 713.3783 273.9216H472.1683V38.0816C472.1683 17.5816 454.5883 0.0016 433.5983 0.0016C412.5983 0.0016 394.5283 17.5816 394.5283 38.0816V273.9216H153.3183C51.2683 273.9216 -0.0017 324.7116 -0.0017 425.2916ZM433.1083 739.2616C423.3383 739.2616 415.0383 736.3316 404.7883 726.5616L239.7483 566.8916C232.4183 559.5716 228.5183 551.7616 228.5183 541.5016C228.5183 521.4816 243.1683 507.3216 263.6683 507.3216C272.9483 507.3216 283.6883 511.2316 290.5283 519.0416L373.5383 606.9316L397.4583 632.3216L394.5283 559.0816V308.1016C394.5283 286.1316 410.1583 270.9916 433.1083 270.9916C456.0583 270.9916 472.1683 286.1316 472.1683 308.1016V559.0816L469.2383 632.3216L492.6783 606.9316L576.1683 519.0416C583.0083 511.2316 592.7783 507.3216 602.5383 507.3216C622.5583 507.3216 638.1883 521.4816 638.1883 541.5016C638.1883 551.7616 633.7883 559.5716 626.4683 566.8916L461.4283 726.5616C451.6583 736.3316 443.3583 739.2616 433.1083 739.2616Z"/>
</svg>