<?xml version="1.0" encoding="UTF-8" standalone="no"?>
<svg xmlns="http://www.w3.org/2000/svg"
     width="996.09375" height="996.09375"
     viewBox="0 0 996.09375 996.09375"
     fill="currentColor">
  <path d="M498.0477 996.0945C770.5077 996.0945 996.0977 770.0145 996.0977 498.0445C996.0977 225.5845 770.0177 0.0045 497.5577 0.0045C225.5877 0.0045 -0.0023 225.5845 -0.0023 498.0445C-0.0023 770.0145 226.0777 996.0945 498.0477 996.0945ZM311.5277 751.4645C271.9777 751.4645 245.1177 720.7045 245.1177 675.7845V310.0545C245.1177 271.4845 271.9777 244.6245 311.5277 244.6245H685.5477C731.4477 244.6245 751.9577 265.1345 751.9577 310.0545V675.7845C751.9577 726.5645 731.4477 751.4645 685.5477 751.4645ZM343.2577 677.2445H653.8077C667.9677 677.2445 677.7377 667.9645 677.7377 652.8345V343.2645C677.7377 328.6145 667.9677 318.8445 653.8077 318.8445H343.2577C329.0977 318.8445 319.3377 328.6145 319.3377 343.2645V652.8345C319.3377 667.9645 329.0977 677.2445 343.2577 677.2445Z"/>
</svg>