<?xml version="1.0" encoding="UTF-8" standalone="no"?>
<svg xmlns="http://www.w3.org/2000/svg"
     width="1110.3515625" height="1279.78515625"
     viewBox="0 0 1110.3515625 1279.78515625"
     fill="currentColor">
  <path d="M433.1083 732.9117C443.3583 732.9117 451.6583 729.4917 461.4283 719.7217L626.4683 560.5517C633.7883 553.2217 638.1883 545.4117 638.1883 534.6717C638.1883 515.1317 622.5583 500.4917 602.5383 500.4917C592.7783 500.4917 583.0083 504.3917 576.1683 512.2117L501.9483 591.3117L469.2383 625.4917L472.1683 552.7317V37.6017C472.1683 17.0917 454.0983 0.0017 433.1083 0.0017C412.1083 0.0017 394.5283 17.0917 394.5283 37.6017V552.7317L397.4583 625.9717L364.2583 591.3117L290.5283 512.2117C283.6883 504.3917 272.9483 500.4917 263.6683 500.4917C243.1683 500.4917 228.5183 515.1317 228.5183 534.6717C228.5183 545.4117 232.4183 553.2217 239.7483 560.5517L404.7883 719.7217C415.0383 729.4917 423.3383 732.9117 433.1083 732.9117ZM153.3183 1053.7117H285.1583V1128.4217C285.1583 1229.0017 336.4283 1279.7817 438.4783 1279.7817H957.0283C1059.0783 1279.7817 1110.3483 1229.4917 1110.3483 1128.4217V641.6017C1110.3483 540.5317 1059.0783 490.2317 957.0283 490.2317H866.6983V415.5317C866.6983 314.9417 815.4283 264.1617 713.3783 264.1617H577.1483V342.7717H711.9183C760.2583 342.7717 788.0883 368.6517 788.0883 419.4317V898.4417C788.0883 949.2217 760.2583 975.1017 711.9183 975.1017H154.2983C105.4683 975.1017 78.6183 949.2217 78.6183 898.4417V419.4317C78.6183 368.6517 105.4683 342.7717 154.2983 342.7717H289.5483V264.1617H153.3183C51.2683 264.1617 -0.0017 314.4517 -0.0017 415.5317V902.3417C-0.0017 1003.4217 51.2683 1053.7117 153.3183 1053.7117ZM439.9383 1201.1717C391.5983 1201.1717 363.7683 1175.2917 363.7683 1124.5117V1053.7117H713.3783C815.4283 1053.7117 866.6983 1002.9317 866.6983 902.3417V568.8517H956.0583C1004.8783 568.8517 1031.7383 594.7217 1031.7383 645.5117V1124.5117C1031.7383 1175.2917 1004.8783 1201.1717 956.0583 1201.1717Z"/>
</svg>