<?xml version="1.0" encoding="UTF-8" standalone="no"?>
<svg xmlns="http://www.w3.org/2000/svg"
     width="866.69921875" height="1102.05078125"
     viewBox="0 0 866.69921875 1102.05078125"
     fill="currentColor">
  <path d="M433.1083 360.3531C454.0983 360.3531 472.1683 342.7731 472.1683 322.2631V180.1731L469.2383 106.9331L501.9483 141.6031L576.1683 220.7031C583.0083 228.5131 592.7783 232.4231 602.5383 232.4231C622.5583 232.4231 638.1883 217.7731 638.1883 197.7531C638.1883 187.5031 633.7883 179.6831 626.4683 172.3631L461.4283 13.1831C451.6583 3.4131 443.3583 0.0031 433.1083 0.0031C423.3383 0.0031 415.0383 3.4131 404.7883 13.1831L239.7483 172.3631C232.4183 179.6831 228.5183 187.5031 228.5183 197.7531C228.5183 217.7731 243.1683 232.4231 263.6683 232.4231C272.9483 232.4231 283.6883 228.5131 290.5283 220.7031L364.2583 141.6031L397.4583 106.9331L394.5283 180.1731V322.2631C394.5283 342.7731 412.1083 360.3531 433.1083 360.3531ZM153.3183 1102.0531H713.3783C815.4283 1102.0531 866.6983 1051.2731 866.6983 950.6831V473.1431C866.6983 372.5631 815.4283 321.7731 713.3783 321.7731H481.9383V683.1031C481.9383 708.9831 459.4683 730.4731 433.1083 730.4731C406.7383 730.4731 384.7683 708.9831 384.7683 683.1031V321.7731H153.3183C51.2683 321.7731 -0.0017 372.5631 -0.0017 473.1431V950.6831C-0.0017 1051.2731 51.2683 1102.0531 153.3183 1102.0531Z"/>
</svg>