<?xml version="1.0" encoding="UTF-8" standalone="no"?>
<svg xmlns="http://www.w3.org/2000/svg"
     width="996.09375" height="996.09375"
     viewBox="0 0 996.09375 996.09375"
     fill="currentColor">
  <path d="M498.0477 996.0977C770.5077 996.0977 996.0977 770.5077 996.0977 498.0477C996.0977 226.0777 770.0177 -0.0023 497.5577 -0.0023C225.5877 -0.0023 -0.0023 226.0777 -0.0023 498.0477C-0.0023 770.5077 226.0777 996.0977 498.0477 996.0977ZM742.1877 298.3377L698.7277 255.3677L720.7077 233.8877C731.4477 222.6577 747.5577 222.6577 757.8077 232.9077L764.1577 239.2577C773.9277 249.0277 774.4177 263.6677 763.1877 274.8977ZM343.2577 738.2777C287.5977 738.2777 258.2977 709.4677 258.2977 654.2977V360.8377C258.2977 305.6677 287.5977 276.3677 343.2577 276.3677H606.9377L554.1977 329.0977H344.2377C322.2677 329.0977 311.0377 339.8477 311.0377 363.2777V651.3677C311.0377 674.8077 322.2677 685.5477 344.2377 685.5477H641.5977C656.2477 685.5477 667.4777 674.8077 667.4777 651.3677V444.3377L719.7277 392.0877V654.2977C719.7277 709.4677 690.4277 738.2777 642.0877 738.2777ZM438.4777 572.7577C428.7077 576.6577 418.4577 566.8977 422.8477 557.1277L446.2877 508.7877L676.7577 277.8277L720.7077 320.3077L489.2577 551.7577Z"/>
</svg>