<?xml version="1.0" encoding="UTF-8" standalone="no"?>
<svg xmlns="http://www.w3.org/2000/svg"
     width="1035.64453125" height="1036.1328125"
     viewBox="0 0 1035.64453125 1036.1328125"
     fill="currentColor">
  <path d="M113.2783 1036.1372C162.1083 1036.1372 203.1283 1005.3672 219.2383 962.4072H816.4083C832.5183 1005.3672 874.0283 1036.1372 922.8483 1036.1372C985.3483 1036.1372 1035.6483 985.3472 1035.6483 922.8472C1035.6483 874.0272 1005.3683 832.5172 961.9183 816.8972V219.7272C1005.3683 203.6172 1035.6483 162.1072 1035.6483 113.2772C1035.6483 50.7772 985.3483 -0.0028 922.8483 -0.0028C874.0283 -0.0028 832.5183 30.7572 816.4083 74.2172H219.2383C203.1283 30.7572 162.1083 -0.0028 113.2783 -0.0028C50.2883 -0.0028 -0.0017 50.7772 -0.0017 113.2772C-0.0017 162.1072 30.7583 203.6172 73.7283 219.2372V816.8972C30.7583 832.5172 -0.0017 874.0272 -0.0017 922.8472C-0.0017 985.3472 50.2883 1036.1372 113.2783 1036.1372ZM219.2383 883.7872C208.0083 852.5372 183.1083 828.1272 152.3483 816.8972V219.7272C183.1083 208.0072 208.0083 183.5972 219.2383 152.8272H816.4083C828.1283 183.5972 852.5383 208.0072 883.2983 219.2372V816.8972C852.5383 828.1272 828.1283 852.5372 816.4083 883.7872ZM311.0383 666.9872H367.1883V723.6372C367.1883 762.6972 389.6483 784.6672 428.2183 784.6672H727.5383C766.1183 784.6672 788.5783 762.6972 788.5783 723.6372V430.1772C788.5783 391.5972 765.6283 369.6272 726.0783 369.6272H671.3883V312.4972C671.3883 273.9272 648.9283 251.4672 609.8683 251.4672H311.0383C272.4583 251.4672 249.9983 273.9272 249.9983 312.4972V605.9572C249.9983 644.5272 272.4583 666.9872 311.0383 666.9872ZM330.5683 603.0272C319.8283 603.0272 313.9683 597.1672 313.9683 586.4272V332.0272C313.9683 321.7772 319.8283 315.4272 330.5683 315.4272H590.8183C601.5583 315.4272 607.4183 321.7772 607.4183 332.0272V369.6272H428.2183C389.6483 369.6272 367.1883 391.5972 367.1883 430.1772V603.0272ZM447.7583 720.7072C437.0083 720.7072 431.1483 714.8472 431.1483 704.5872V449.7072C431.1483 439.4572 437.0083 433.5972 447.7583 433.5972H706.5383C718.2583 433.5972 724.6083 439.4572 724.6083 449.7072V704.5872C724.6083 714.8472 718.7483 720.7072 708.0083 720.7072Z"/>
</svg>