<?xml version="1.0" encoding="UTF-8" standalone="no"?>
<svg xmlns="http://www.w3.org/2000/svg"
     width="898.92578125" height="898.92578125"
     viewBox="0 0 898.92578125 898.92578125"
     fill="currentColor">
  <path d="M449.7083 394.0395L827.6383 16.1095C805.6683 4.8795 778.3183 -0.0005 745.6083 -0.0005H153.3183C120.6083 -0.0005 93.7483 4.8795 71.2883 15.6295ZM394.0383 449.2195L16.1183 71.2895C5.3683 92.7695 -0.0017 119.6295 -0.0017 151.3695V747.5595C-0.0017 779.2995 5.3683 805.6595 16.1183 827.6395ZM504.8783 449.2195L882.8083 827.6395C894.0383 805.6595 898.9283 779.2995 898.9283 747.5595V151.3695C898.9283 119.6295 894.0383 92.7695 882.8083 71.2895ZM449.7083 504.8795L71.2883 882.8095C93.7483 893.5595 120.6083 898.9295 153.3183 898.9295H745.6083C778.3183 898.9295 805.6683 893.5595 827.6383 882.8095Z"/>
</svg>