<?xml version="1.0" encoding="UTF-8" standalone="no"?>
<svg xmlns="http://www.w3.org/2000/svg"
     width="906.73828125" height="906.73828125"
     viewBox="0 0 906.73828125 906.73828125"
     fill="currentColor">
  <path d="M147.9483 87.8858C172.8483 87.8858 192.3783 68.3558 192.3783 44.4358C192.3783 20.0158 172.8483 -0.0042 147.9483 -0.0042C124.5083 -0.0042 104.4883 20.0158 104.4883 44.4358C104.4883 67.8758 124.5083 87.8858 147.9483 87.8858ZM300.7783 87.8858C325.1983 87.8858 345.2183 68.3558 345.2183 44.4358C345.2183 20.0158 325.1983 -0.0042 300.7783 -0.0042C276.8583 -0.0042 256.8383 20.0158 256.8383 44.4358C256.8383 67.8758 276.8583 87.8858 300.7783 87.8858ZM453.6183 87.8858C477.5383 87.8858 497.5583 68.3558 497.5583 44.4358C497.5583 20.0158 477.5383 -0.0042 453.6183 -0.0042C429.1983 -0.0042 409.1783 20.0158 409.1783 44.4358C409.1783 67.8758 429.1983 87.8858 453.6183 87.8858ZM605.9583 87.8858C629.8783 87.8858 649.8983 68.3558 649.8983 44.4358C649.8983 20.0158 629.8783 -0.0042 605.9583 -0.0042C581.5383 -0.0042 561.5283 20.0158 561.5283 44.4358C561.5283 67.8758 581.5383 87.8858 605.9583 87.8858ZM758.2983 87.8858C782.2283 87.8858 802.2483 68.3558 802.2483 44.4358C802.2483 20.0158 782.2283 -0.0042 758.2983 -0.0042C733.8883 -0.0042 713.8683 20.0158 713.8683 44.4358C713.8683 67.8758 733.8883 87.8858 758.2983 87.8858ZM862.7883 192.3858C886.7183 192.3858 906.7383 172.3658 906.7383 147.9458C906.7383 124.0258 886.7183 104.0058 862.7883 104.0058C838.8683 104.0058 818.8483 124.0258 818.8483 147.9458C818.8483 172.3658 838.3783 192.3858 862.7883 192.3858ZM43.9483 192.3858C67.8683 192.3858 87.8883 172.3658 87.8883 147.9458C87.8883 124.0258 67.8683 104.0058 43.9483 104.0058C20.0183 104.0058 -0.0017 124.0258 -0.0017 147.9458C-0.0017 172.3658 20.0183 192.3858 43.9483 192.3858ZM862.7883 344.7258C886.7183 344.7258 906.7383 324.7058 906.7383 300.2958C906.7383 276.3658 886.7183 256.3458 862.7883 256.3458C838.8683 256.3458 818.8483 276.3658 818.8483 300.2958C818.8483 324.7058 838.3783 344.7258 862.7883 344.7258ZM43.9483 344.7258C67.8683 344.7258 87.8883 324.7058 87.8883 300.2958C87.8883 276.3658 67.8683 256.3458 43.9483 256.3458C20.0183 256.3458 -0.0017 276.3658 -0.0017 300.2958C-0.0017 324.7058 20.0183 344.7258 43.9483 344.7258ZM862.7883 497.0658C886.7183 497.0658 906.7383 477.0458 906.7383 453.1258C906.7383 428.7158 886.7183 408.6958 862.7883 408.6958C838.8683 408.6958 818.8483 428.7158 818.8483 453.1258C818.8483 477.0458 838.3783 497.0658 862.7883 497.0658ZM43.9483 497.0658C67.8683 497.0658 87.8883 477.0458 87.8883 453.1258C87.8883 428.7158 67.8683 408.6958 43.9483 408.6958C20.0183 408.6958 -0.0017 428.7158 -0.0017 453.1258C-0.0017 477.0458 20.0183 497.0658 43.9483 497.0658ZM862.7883 649.9058C886.7183 649.9058 906.7383 629.8858 906.7383 605.9558C906.7383 581.5458 886.7183 561.5258 862.7883 561.5258C838.8683 561.5258 818.8483 581.5458 818.8483 605.9558C818.8483 629.8858 838.3783 649.9058 862.7883 649.9058ZM43.9483 649.9058C67.8683 649.9058 87.8883 629.8858 87.8883 605.9558C87.8883 581.5458 67.8683 561.5258 43.9483 561.5258C20.0183 561.5258 -0.0017 581.5458 -0.0017 605.9558C-0.0017 629.8858 20.0183 649.9058 43.9483 649.9058ZM862.7883 802.2458C886.7183 802.2458 906.7383 782.2258 906.7383 758.2958C906.7383 733.8858 886.7183 713.8658 862.7883 713.8658C838.8683 713.8658 818.8483 733.8858 818.8483 758.2958C818.8483 782.2258 838.3783 802.2458 862.7883 802.2458ZM43.9483 802.2458C67.8683 802.2458 87.8883 782.2258 87.8883 758.2958C87.8883 733.8858 67.8683 713.8658 43.9483 713.8658C20.0183 713.8658 -0.0017 733.8858 -0.0017 758.2958C-0.0017 782.2258 20.0183 802.2458 43.9483 802.2458ZM758.2983 906.7358C782.2283 906.7358 802.2483 887.2058 802.2483 863.2858C802.2483 838.8658 782.2283 818.8458 758.2983 818.8458C733.8883 818.8458 713.8683 838.8658 713.8683 863.2858C713.8683 886.7158 733.8883 906.7358 758.2983 906.7358ZM605.9583 906.7358C629.8783 906.7358 649.8983 887.2058 649.8983 863.2858C649.8983 838.8658 629.8783 818.8458 605.9583 818.8458C581.5383 818.8458 561.5283 838.8658 561.5283 863.2858C561.5283 886.7158 581.5383 906.7358 605.9583 906.7358ZM453.6183 906.7358C477.5383 906.7358 497.5583 887.2058 497.5583 863.2858C497.5583 838.8658 477.5383 818.8458 453.6183 818.8458C429.1983 818.8458 409.1783 838.8658 409.1783 863.2858C409.1783 886.7158 429.1983 906.7358 453.6183 906.7358ZM300.7783 906.7358C325.1983 906.7358 345.2183 887.2058 345.2183 863.2858C345.2183 838.8658 325.1983 818.8458 300.7783 818.8458C276.8583 818.8458 256.8383 838.8658 256.8383 863.2858C256.8383 886.7158 276.8583 906.7358 300.7783 906.7358ZM147.9483 906.7358C172.8483 906.7358 192.3783 887.2058 192.3783 863.2858C192.3783 838.8658 172.8483 818.8458 147.9483 818.8458C124.5083 818.8458 104.4883 838.8658 104.4883 863.2858C104.4883 886.7158 124.5083 906.7358 147.9483 906.7358Z"/>
</svg>