<?xml version="1.0" encoding="UTF-8" standalone="no"?>
<svg xmlns="http://www.w3.org/2000/svg"
     width="1131.34765625" height="875.48828125"
     viewBox="0 0 1131.34765625 875.48828125"
     fill="currentColor">
  <path d="M150.8783 627.9322H980.4683C1081.5383 627.9322 1131.3483 578.6122 1131.3483 479.0022V148.9222C1131.3483 48.8322 1081.5383 0.0022 980.4683 0.0022H150.8783C50.2883 0.0022 -0.0017 48.8322 -0.0017 148.9222V479.0022C-0.0017 578.6122 50.2883 627.9322 150.8783 627.9322ZM151.8583 549.3122C104.0083 549.3122 78.6183 524.9022 78.6183 475.1022V152.8322C78.6183 103.0322 104.0083 78.1222 151.8583 78.1222H979.4883C1027.3483 78.1222 1052.7383 103.0322 1052.7383 152.8322V475.1022C1052.7383 524.9022 1027.3483 549.3122 979.4883 549.3122ZM48.8283 875.4922H151.8583C166.0183 875.4922 177.2483 864.7422 177.2483 850.5822V748.5322C177.2483 733.4022 166.5083 722.6522 151.8583 722.6522H48.8283C33.1983 722.6522 22.9483 733.4022 22.9483 748.5322V850.5822C22.9483 864.7422 33.6883 875.4922 48.8283 875.4922ZM281.7383 875.4922H384.7683C398.9283 875.4922 410.1583 864.7422 410.1583 850.5822V748.5322C410.1583 733.4022 399.4183 722.6522 384.7683 722.6522H281.7383C266.1183 722.6522 255.8583 733.4022 255.8583 748.5322V850.5822C255.8583 864.7422 266.5983 875.4922 281.7383 875.4922ZM514.6483 875.4922H617.6783C631.8383 875.4922 643.0683 864.7422 643.0683 850.5822V748.5322C643.0683 733.4022 632.3283 722.6522 617.6783 722.6522H514.6483C499.0283 722.6522 488.7683 733.4022 488.7683 748.5322V850.5822C488.7683 864.7422 499.5083 875.4922 514.6483 875.4922ZM747.5583 875.4922H850.5883C864.7483 875.4922 875.9783 864.7422 875.9783 850.5822V748.5322C875.9783 733.4022 865.2383 722.6522 850.5883 722.6522H747.5583C731.9383 722.6522 721.6783 733.4022 721.6783 748.5322V850.5822C721.6783 864.7422 732.4183 875.4922 747.5583 875.4922ZM980.4683 875.4922H1083.4983C1097.6583 875.4922 1108.8883 864.7422 1108.8883 850.5822V748.5322C1108.8883 733.4022 1098.1483 722.6522 1083.4983 722.6522H980.4683C964.8483 722.6522 954.5883 733.4022 954.5883 748.5322V850.5822C954.5883 864.7422 965.3283 875.4922 980.4683 875.4922Z"/>
</svg>