<?xml version="1.0" encoding="UTF-8" standalone="no"?>
<svg xmlns="http://www.w3.org/2000/svg"
     width="1225.09765625" height="838.37890625"
     viewBox="0 0 1225.09765625 838.37890625"
     fill="currentColor">
  <path d="M27.3483 190.9227H163.0883C180.6683 190.9227 190.9183 180.1727 190.9183 163.0827V28.3227C190.9183 10.2527 180.6683 0.0027 163.0883 0.0027H27.3483C10.7383 0.0027 -0.0017 11.2327 -0.0017 28.3227V163.0827C-0.0017 179.2027 10.7383 190.9227 27.3483 190.9227ZM483.8883 824.7027H1076.6583C1175.7783 824.7027 1225.0983 775.8827 1225.0983 678.7127V160.1527C1225.0983 62.9927 1175.7783 14.1627 1076.6583 14.1627H483.8883C385.7383 14.1627 335.9383 62.9927 335.9383 160.1527V678.7127C335.9383 775.8827 385.7383 824.7027 483.8883 824.7027ZM484.8683 747.0727C438.9683 747.0727 413.5783 722.1727 413.5783 674.3127V164.5527C413.5783 116.2127 438.9683 91.7927 484.8683 91.7927H1075.6883C1121.0983 91.7927 1147.4583 116.2127 1147.4583 164.5527V674.3127C1147.4583 722.1727 1121.0983 747.0727 1075.6883 747.0727ZM27.3483 514.6527H163.0883C180.6683 514.6527 190.9183 504.3927 190.9183 487.3027V352.5427C190.9183 333.9827 180.6683 323.7327 163.0883 323.7327H27.3483C10.7383 323.7327 -0.0017 334.9627 -0.0017 352.5427V487.3027C-0.0017 503.4227 10.7383 514.6527 27.3483 514.6527ZM27.3483 838.3827H163.5783C180.6683 838.3827 190.9183 828.1227 190.9183 811.0327V676.2727C190.9183 657.7127 180.6683 647.4627 163.5783 647.4627H27.3483C10.7383 647.4627 -0.0017 658.6927 -0.0017 676.2727V811.0327C-0.0017 827.1527 10.7383 838.3827 27.3483 838.3827Z"/>
</svg>