<?xml version="1.0" encoding="UTF-8" standalone="no"?>
<svg xmlns="http://www.w3.org/2000/svg"
     width="957.51953125" height="937.98828125"
     viewBox="0 0 957.51953125 937.98828125"
     fill="currentColor">
  <path d="M84.4683 276.8556H192.3783C245.6083 276.8556 276.8583 245.6056 276.8583 190.4256V86.4256C276.8583 31.2456 245.6083 -0.0044 192.3783 -0.0044H84.4683C31.2483 -0.0044 -0.0017 31.2456 -0.0017 86.4256V190.4256C-0.0017 245.6056 31.2483 276.8556 84.4683 276.8556ZM424.3183 276.8556H532.7183C585.9383 276.8556 616.6983 245.6056 616.6983 190.4256V86.4256C616.6983 31.2456 585.9383 -0.0044 532.7183 -0.0044H424.3183C371.0983 -0.0044 340.3283 31.2456 340.3283 86.4256V190.4256C340.3283 245.6056 371.0983 276.8556 424.3183 276.8556ZM765.1383 276.8556H873.0483C926.2683 276.8556 957.5183 245.6056 957.5183 190.4256V86.4256C957.5183 31.2456 926.2683 -0.0044 873.0483 -0.0044H765.1383C711.9183 -0.0044 680.6683 31.2456 680.6683 86.4256V190.4256C680.6683 245.6056 711.9183 276.8556 765.1383 276.8556ZM84.4683 607.4256H192.3783C245.6083 607.4256 276.8583 576.6556 276.8583 521.4856V416.9956C276.8583 361.8156 245.6083 330.5656 192.3783 330.5656H84.4683C31.2483 330.5656 -0.0017 361.8156 -0.0017 416.9956V521.4856C-0.0017 576.6556 31.2483 607.4256 84.4683 607.4256ZM424.3183 607.4256H532.7183C585.9383 607.4256 616.6983 576.6556 616.6983 521.4856V416.9956C616.6983 361.8156 585.9383 330.5656 532.7183 330.5656H424.3183C371.0983 330.5656 340.3283 361.8156 340.3283 416.9956V521.4856C340.3283 576.6556 371.0983 607.4256 424.3183 607.4256ZM765.1383 607.4256H873.0483C926.2683 607.4256 957.5183 576.6556 957.5183 521.4856V416.9956C957.5183 361.8156 926.2683 330.5656 873.0483 330.5656H765.1383C711.9183 330.5656 680.6683 361.8156 680.6683 416.9956V521.4856C680.6683 576.6556 711.9183 607.4256 765.1383 607.4256ZM84.4683 937.9856H192.3783C245.6083 937.9856 276.8583 906.7356 276.8583 851.5656V747.5556C276.8583 692.3856 245.6083 661.1356 192.3783 661.1356H84.4683C31.2483 661.1356 -0.0017 692.3856 -0.0017 747.5556V851.5656C-0.0017 906.7356 31.2483 937.9856 84.4683 937.9856ZM424.3183 937.9856H532.7183C585.9383 937.9856 616.6983 906.7356 616.6983 851.5656V747.5556C616.6983 692.3856 585.9383 661.1356 532.7183 661.1356H424.3183C371.0983 661.1356 340.3283 692.3856 340.3283 747.5556V851.5656C340.3283 906.7356 371.0983 937.9856 424.3183 937.9856ZM765.1383 937.9856H873.0483C926.2683 937.9856 957.5183 906.7356 957.5183 851.5656V747.5556C957.5183 692.3856 926.2683 661.1356 873.0483 661.1356H765.1383C711.9183 661.1356 680.6683 692.3856 680.6683 747.5556V851.5656C680.6683 906.7356 711.9183 937.9856 765.1383 937.9856Z"/>
</svg>