<?xml version="1.0" encoding="UTF-8" standalone="no"?>
<svg xmlns="http://www.w3.org/2000/svg"
     width="996.09375" height="996.09375"
     viewBox="0 0 996.09375 996.09375"
     fill="currentColor">
  <path d="M498.0477 996.0959C770.5077 996.0959 996.0977 770.0159 996.0977 498.0459C996.0977 225.5859 770.0177 -0.0041 497.5577 -0.0041C225.5877 -0.0041 -0.0023 225.5859 -0.0023 498.0459C-0.0023 770.0159 226.0777 996.0959 498.0477 996.0959ZM498.0477 913.0859C267.5777 913.0859 83.4977 728.5159 83.4977 498.0459C83.4977 267.5759 267.0877 83.0059 497.5577 83.0059C728.0277 83.0059 913.0877 267.5759 913.0877 498.0459C913.0877 728.5159 728.5177 913.0859 498.0477 913.0859ZM316.8977 743.6559H679.1977C723.6377 743.6559 743.6477 719.7259 743.6477 670.4059V315.9159C743.6477 272.4559 723.6377 252.4459 679.1977 252.4459H316.8977C278.3177 252.4459 252.4377 278.3159 252.4377 315.9159V670.4059C252.4377 713.8659 278.3177 743.6559 316.8977 743.6559ZM347.1677 672.3659C333.4977 672.3659 323.7277 662.5959 323.7277 648.4359V347.6559C323.7277 333.4959 333.4977 323.7259 347.1677 323.7259H648.9277C662.5977 323.7259 672.3677 333.4959 672.3677 347.6559V648.4359C672.3677 662.5959 662.5977 672.3659 648.9277 672.3659Z"/>
</svg>