<?xml version="1.0" encoding="UTF-8" standalone="no"?>
<svg xmlns="http://www.w3.org/2000/svg"
     width="898.92578125" height="898.92578125"
     viewBox="0 0 898.92578125 898.92578125"
     fill="currentColor">
  <path d="M93.2583 409.1795H315.9183C377.9283 409.1795 409.1783 377.9295 409.1783 313.4795V95.2195C409.1783 30.7595 377.9283 -0.0005 315.9183 -0.0005H93.2583C31.2483 -0.0005 -0.0017 30.7595 -0.0017 95.2195V313.4795C-0.0017 377.9295 31.2483 409.1795 93.2583 409.1795ZM583.4983 409.1795H805.6683C867.6783 409.1795 898.9283 377.9295 898.9283 313.4795V95.2195C898.9283 30.7595 867.6783 -0.0005 805.6683 -0.0005H583.4983C520.9983 -0.0005 489.7483 30.7595 489.7483 95.2195V313.4795C489.7483 377.9295 520.9983 409.1795 583.4983 409.1795ZM94.2383 340.3295C77.1483 340.3295 68.8483 331.5395 68.8483 313.4795V95.2195C68.8483 77.6395 77.1483 68.8495 94.2383 68.8495H314.4483C331.5383 68.8495 340.3283 77.6395 340.3283 95.2195V313.4795C340.3283 331.5395 331.5383 340.3295 314.4483 340.3295ZM584.4683 340.3295C566.8983 340.3295 558.5983 331.5395 558.5983 313.4795V95.2195C558.5983 77.6395 566.8983 68.8495 584.4683 68.8495H804.6883C821.7783 68.8495 830.0783 77.6395 830.0783 95.2195V313.4795C830.0783 331.5395 821.7783 340.3295 804.6883 340.3295ZM93.2583 898.9295H315.9183C377.9283 898.9295 409.1783 868.1595 409.1783 803.7095V584.9595C409.1783 520.9995 377.9283 489.7495 315.9183 489.7495H93.2583C31.2483 489.7495 -0.0017 520.9995 -0.0017 584.9595V803.7095C-0.0017 868.1595 31.2483 898.9295 93.2583 898.9295ZM583.4983 898.9295H805.6683C867.6783 898.9295 898.9283 868.1595 898.9283 803.7095V584.9595C898.9283 520.9995 867.6783 489.7495 805.6683 489.7495H583.4983C520.9983 489.7495 489.7483 520.9995 489.7483 584.9595V803.7095C489.7483 868.1595 520.9983 898.9295 583.4983 898.9295ZM94.2383 830.0795C77.1483 830.0795 68.8483 821.2895 68.8483 803.7095V585.4495C68.8483 567.3795 77.1483 558.5895 94.2383 558.5895H314.4483C331.5383 558.5895 340.3283 567.3795 340.3283 585.4495V803.7095C340.3283 821.2895 331.5383 830.0795 314.4483 830.0795ZM584.4683 830.0795C566.8983 830.0795 558.5983 821.2895 558.5983 803.7095V585.4495C558.5983 567.3795 566.8983 558.5895 584.4683 558.5895H804.6883C821.7783 558.5895 830.0783 567.3795 830.0783 585.4495V803.7095C830.0783 821.2895 821.7783 830.0795 804.6883 830.0795Z"/>
</svg>