<?xml version="1.0" encoding="UTF-8" standalone="no"?>
<svg xmlns="http://www.w3.org/2000/svg"
     width="1042.96875" height="749.0234375"
     viewBox="0 0 1042.96875 749.0234375"
     fill="currentColor">
  <path d="M41.9883 165.5225H123.0483C154.2983 165.5225 165.5283 154.2925 165.5283 123.5325V42.4825C165.5283 11.2325 154.2983 0.0025 123.0483 0.0025H41.9883C11.2283 0.0025 -0.0017 11.2325 -0.0017 42.4825V123.5325C-0.0017 154.2925 11.2283 165.5225 41.9883 165.5225ZM333.9883 165.5225H415.0383C445.7983 165.5225 457.0283 154.2925 457.0283 123.5325V42.4825C457.0283 11.2325 445.7983 0.0025 415.0383 0.0025H333.9883C302.7383 0.0025 291.5083 11.2325 291.5083 42.4825V123.5325C291.5083 154.2925 302.7383 165.5225 333.9883 165.5225ZM625.4883 165.5225H706.5383C737.3083 165.5225 748.5383 154.2925 748.5383 123.5325V42.4825C748.5383 11.2325 737.3083 0.0025 706.5383 0.0025H625.4883C594.7283 0.0025 583.4983 11.2325 583.4983 42.4825V123.5325C583.4983 154.2925 594.7283 165.5225 625.4883 165.5225ZM916.9883 165.5225H998.0483C1029.2983 165.5225 1040.5283 154.2925 1040.5283 123.5325V42.4825C1040.5283 11.2325 1029.2983 0.0025 998.0483 0.0025H916.9883C886.2283 0.0025 874.9983 11.2325 874.9983 42.4825V123.5325C874.9983 154.2925 886.2283 165.5225 916.9883 165.5225ZM44.4383 457.0325H125.4883C156.7383 457.0325 167.9683 445.8025 167.9683 415.0425V333.9825C167.9683 303.2225 156.7383 291.9925 125.4883 291.9925H44.4383C13.6683 291.9925 2.4383 303.2225 2.4383 333.9825V415.0425C2.4383 445.8025 13.6683 457.0325 44.4383 457.0325ZM336.4283 457.0325H417.4783C448.2383 457.0325 459.4683 445.8025 459.4683 415.0425V333.9825C459.4683 303.2225 448.2383 291.9925 417.4783 291.9925H336.4283C305.1783 291.9925 293.9483 303.2225 293.9483 333.9825V415.0425C293.9483 445.8025 305.1783 457.0325 336.4283 457.0325ZM627.9283 457.0325H708.9883C739.7483 457.0325 750.9783 445.8025 750.9783 415.0425V333.9825C750.9783 303.2225 739.7483 291.9925 708.9883 291.9925H627.9283C597.1683 291.9925 585.9383 303.2225 585.9383 333.9825V415.0425C585.9383 445.8025 597.1683 457.0325 627.9283 457.0325ZM919.9183 457.0325H1000.4883C1031.7383 457.0325 1042.9683 445.8025 1042.9683 415.0425V333.9825C1042.9683 303.2225 1031.7383 291.9925 1000.4883 291.9925H919.9183C888.6683 291.9925 877.4383 303.2225 877.4383 333.9825V415.0425C877.4383 445.8025 888.6683 457.0325 919.9183 457.0325ZM44.4383 749.0225H125.4883C156.7383 749.0225 167.9683 737.7925 167.9683 706.5425V625.9725C167.9683 594.7225 156.7383 583.4925 125.4883 583.4925H44.4383C13.6683 583.4925 2.4383 594.7225 2.4383 625.9725V706.5425C2.4383 737.7925 13.6683 749.0225 44.4383 749.0225ZM336.4283 749.0225H417.4783C448.2383 749.0225 459.4683 737.7925 459.4683 706.5425V625.9725C459.4683 594.7225 448.2383 583.4925 417.4783 583.4925H336.4283C305.1783 583.4925 293.9483 594.7225 293.9483 625.9725V706.5425C293.9483 737.7925 305.1783 749.0225 336.4283 749.0225ZM627.9283 749.0225H708.9883C739.7483 749.0225 750.9783 737.7925 750.9783 706.5425V625.9725C750.9783 594.7225 739.7483 583.4925 708.9883 583.4925H627.9283C597.1683 583.4925 585.9383 594.7225 585.9383 625.9725V706.5425C585.9383 737.7925 597.1683 749.0225 627.9283 749.0225ZM919.9183 749.0225H1000.4883C1031.7383 749.0225 1042.9683 737.7925 1042.9683 706.5425V625.9725C1042.9683 594.7225 1031.7383 583.4925 1000.4883 583.4925H919.9183C888.6683 583.4925 877.4383 594.7225 877.4383 625.9725V706.5425C877.4383 737.7925 888.6683 749.0225 919.9183 749.0225Z"/>
</svg>