<?xml version="1.0" encoding="UTF-8" standalone="no"?>
<svg xmlns="http://www.w3.org/2000/svg"
     width="1053.22265625" height="1022.94921875"
     viewBox="0 0 1053.22265625 1022.94921875"
     fill="currentColor">
  <path d="M34.1783 73.7323H1019.0383C1039.0583 73.7323 1053.2183 58.1023 1053.2183 36.6223C1053.2183 15.1323 1039.0583 0.0023 1019.0383 0.0023H34.1783C13.6683 0.0023 -0.0017 15.1323 -0.0017 36.6223C-0.0017 58.1023 13.6683 73.7323 34.1783 73.7323ZM95.2183 462.4023H201.6583C261.2283 462.4023 291.0183 432.6123 291.0183 370.6023V268.5523C291.0183 206.5423 261.2283 177.2423 201.6583 177.2423H95.2183C35.6483 177.2423 5.8583 206.5423 5.8583 268.5523V370.6023C5.8583 432.6123 35.6483 462.4023 95.2183 462.4023ZM473.1483 462.4023H579.5883C639.1583 462.4023 668.9483 432.6123 668.9483 370.6023V268.5523C668.9483 206.5423 639.1583 177.2423 579.5883 177.2423H473.1483C413.5783 177.2423 383.7883 206.5423 383.7883 268.5523V370.6023C383.7883 432.6123 413.5783 462.4023 473.1483 462.4023ZM851.0783 462.4023H957.0283C1016.5983 462.4023 1046.3883 432.6123 1046.3883 370.6023V268.5523C1046.3883 206.5423 1016.5983 177.2423 957.0283 177.2423H851.0783C791.0183 177.2423 761.2283 206.5423 761.2283 268.5523V370.6023C761.2283 432.6123 791.0183 462.4023 851.0783 462.4023ZM34.1783 634.2723H1019.0383C1039.0583 634.2723 1053.2183 619.1423 1053.2183 597.6523C1053.2183 576.1723 1039.0583 560.5423 1019.0383 560.5423H34.1783C13.6683 560.5423 -0.0017 576.1723 -0.0017 597.6523C-0.0017 619.1423 13.6683 634.2723 34.1783 634.2723ZM95.6983 1022.9523H202.1483C261.7183 1022.9523 291.5083 993.6523 291.5083 931.6423V829.1023C291.5083 767.0923 261.7183 737.7923 202.1483 737.7923H95.6983C36.1283 737.7923 6.3483 767.0923 6.3483 829.1023V931.6423C6.3483 993.6523 36.1283 1022.9523 95.6983 1022.9523ZM473.6283 1022.9523H580.0783C639.6483 1022.9523 669.4383 993.6523 669.4383 931.6423V829.1023C669.4383 767.0923 639.6483 737.7923 580.0783 737.7923H473.6283C414.0583 737.7923 384.2783 767.0923 384.2783 829.1023V931.6423C384.2783 993.6523 414.0583 1022.9523 473.6283 1022.9523ZM851.5583 1022.9523H957.5183C1017.5783 1022.9523 1047.3683 993.6523 1047.3683 931.6423V829.1023C1047.3683 767.0923 1017.5783 737.7923 957.5183 737.7923H851.5583C791.9883 737.7923 762.2083 767.0923 762.2083 829.1023V931.6423C762.2083 993.6523 791.9883 1022.9523 851.5583 1022.9523Z"/>
</svg>