<?xml version="1.0" encoding="UTF-8" standalone="no"?>
<svg xmlns="http://www.w3.org/2000/svg"
     width="996.09375" height="996.09375"
     viewBox="0 0 996.09375 996.09375"
     fill="currentColor">
  <path d="M498.0477 996.0959C770.5077 996.0959 996.0977 770.0159 996.0977 498.0459C996.0977 225.5859 770.0177 -0.0041 497.5577 -0.0041C225.5877 -0.0041 -0.0023 225.5859 -0.0023 498.0459C-0.0023 770.0159 226.0777 996.0959 498.0477 996.0959ZM498.0477 913.0859C267.5777 913.0859 83.4977 728.5159 83.4977 498.0459C83.4977 267.5759 267.0877 83.0059 497.5577 83.0059C728.0277 83.0059 913.0877 267.5759 913.0877 498.0459C913.0877 728.5159 728.5177 913.0859 498.0477 913.0859ZM497.5577 543.4559C511.2277 543.4559 521.9777 533.2059 521.9777 520.0159V272.9459L520.9977 249.9959L542.4777 272.9459L564.4577 295.8959C568.3577 300.2959 574.2177 302.7359 581.5477 302.7359C594.7277 302.7359 604.0077 293.9459 604.0077 281.2459C604.0077 275.3859 602.0477 269.5359 596.6777 265.1359L515.1377 186.0359C509.2777 180.1759 503.4177 177.7359 497.5577 177.7359C491.6977 177.7359 485.8377 180.6659 480.4677 186.0359L398.4377 264.6459C393.0677 270.0159 391.5977 275.3859 391.5977 281.2459C391.5977 293.9459 400.8777 302.7359 413.5777 302.7359C420.4077 302.7359 426.7577 300.2959 430.6677 295.8959L452.6377 272.9459L474.6077 249.9959L473.6377 272.9459V520.0159C473.6377 533.2059 484.3777 543.4559 497.5577 543.4559ZM359.8677 735.3559H636.2277C689.4577 735.3559 717.2877 708.0059 717.2877 655.2759V414.5459C717.2877 361.8159 689.4577 334.9559 636.2277 334.9559H563.9677V384.2759H635.7377C657.2277 384.2759 667.9677 395.0159 667.9677 416.9959V653.8059C667.9677 675.2959 657.2277 686.5259 635.7377 686.5259H360.3477C338.8677 686.5259 328.1277 675.7859 328.1277 653.8059V416.9959C328.1277 395.0159 338.8677 384.2759 360.3477 384.2759H432.6177V334.9559H359.8677C307.1277 334.9559 279.2977 362.3059 278.8077 414.5459V655.2759C279.2977 707.5159 307.1277 735.3559 359.8677 735.3559Z"/>
</svg>