<?xml version="1.0" encoding="UTF-8" standalone="no"?>
<svg xmlns="http://www.w3.org/2000/svg"
     width="896.97265625" height="896.97265625"
     viewBox="0 0 896.97265625 896.97265625"
     fill="currentColor">
  <path d="M41.5083 83.003C64.4483 83.003 83.0083 64.453 83.0083 41.503C83.0083 18.553 64.4483 0.003 41.5083 0.003C18.5583 0.003 -0.0017 18.553 -0.0017 41.503C-0.0017 64.453 18.5583 83.003 41.5083 83.003ZM177.2483 83.003C200.1983 83.003 218.7483 64.453 218.7483 41.503C218.7483 18.553 200.1983 0.003 177.2483 0.003C154.2983 0.003 135.7383 18.553 135.7383 41.503C135.7383 64.453 154.2983 83.003 177.2483 83.003ZM312.4983 83.003C335.4483 83.003 354.0083 64.453 354.0083 41.503C354.0083 18.553 335.4483 0.003 312.4983 0.003C289.5483 0.003 270.9983 18.553 270.9983 41.503C270.9983 64.453 289.5483 83.003 312.4983 83.003ZM448.2383 83.003C471.1883 83.003 489.7483 64.453 489.7483 41.503C489.7483 18.553 471.1883 0.003 448.2383 0.003C425.7783 0.003 406.7383 18.553 406.7383 41.503C406.7383 64.453 425.7783 83.003 448.2383 83.003ZM584.4683 83.003C606.9383 83.003 625.9783 64.453 625.9783 41.503C625.9783 18.553 606.9383 0.003 584.4683 0.003C561.5283 0.003 542.9683 18.553 542.9683 41.503C542.9683 64.453 561.5283 83.003 584.4683 83.003ZM719.7283 83.003C742.1883 83.003 760.7383 64.453 760.7383 41.503C760.7383 18.553 742.1883 0.003 719.7283 0.003C696.7783 0.003 678.2183 18.553 678.2183 41.503C678.2183 64.453 696.7783 83.003 719.7283 83.003ZM855.4683 83.003C878.4183 83.003 896.9683 64.453 896.9683 41.503C896.9683 18.553 878.4183 0.003 855.4683 0.003C832.5183 0.003 813.9683 18.553 813.9683 41.503C813.9683 64.453 832.5183 83.003 855.4683 83.003ZM41.5083 218.753C64.4483 218.753 83.0083 200.193 83.0083 177.243C83.0083 154.293 64.4483 135.743 41.5083 135.743C18.5583 135.743 -0.0017 154.293 -0.0017 177.243C-0.0017 200.193 18.5583 218.753 41.5083 218.753ZM855.4683 219.243C878.4183 219.243 896.9683 200.683 896.9683 177.733C896.9683 154.783 878.4183 136.233 855.4683 136.233C832.5183 136.233 813.9683 154.783 813.9683 177.733C813.9683 200.683 832.5183 219.243 855.4683 219.243ZM175.2883 680.173C175.2883 703.613 190.4283 719.243 213.8683 719.243H683.5983C707.0283 719.243 722.1683 703.613 722.1683 680.173V214.843C722.1683 191.403 707.0283 176.273 683.5983 176.273H213.8683C190.4283 176.273 175.2883 191.403 175.2883 214.843ZM253.9083 626.463V269.043C253.9083 258.303 257.3283 254.883 268.0683 254.883H629.3983C640.1383 254.883 643.5583 258.303 643.5583 269.043V626.463C643.5583 636.723 640.1383 640.623 629.3983 640.623H268.0683C257.3283 640.623 253.9083 636.723 253.9083 626.463ZM41.5083 353.023C64.4483 353.023 83.0083 334.473 83.0083 312.013C83.0083 289.063 64.4483 270.503 41.5083 270.503C18.5583 270.503 -0.0017 289.063 -0.0017 312.013C-0.0017 334.473 18.5583 353.023 41.5083 353.023ZM855.4683 353.513C878.4183 353.513 896.9683 334.963 896.9683 312.503C896.9683 289.553 878.4183 270.993 855.4683 270.993C832.5183 270.993 813.9683 289.553 813.9683 312.503C813.9683 334.963 832.5183 353.513 855.4683 353.513ZM41.5083 489.253C64.4483 489.253 83.0083 470.703 83.0083 447.753C83.0083 424.803 64.4483 406.253 41.5083 406.253C18.5583 406.253 -0.0017 424.803 -0.0017 447.753C-0.0017 470.703 18.5583 489.253 41.5083 489.253ZM855.4683 489.743C878.4183 489.743 896.9683 471.193 896.9683 448.243C896.9683 425.293 878.4183 406.743 855.4683 406.743C832.5183 406.743 813.9683 425.293 813.9683 448.243C813.9683 471.193 832.5183 489.743 855.4683 489.743ZM41.5083 625.003C64.4483 625.003 83.0083 606.443 83.0083 583.493C83.0083 560.543 64.4483 541.993 41.5083 541.993C18.5583 541.993 -0.0017 560.543 -0.0017 583.493C-0.0017 606.443 18.5583 625.003 41.5083 625.003ZM855.4683 625.493C878.4183 625.493 896.9683 606.933 896.9683 583.983C896.9683 561.033 878.4183 542.483 855.4683 542.483C832.5183 542.483 813.9683 561.033 813.9683 583.983C813.9683 606.933 832.5183 625.493 855.4683 625.493ZM41.5083 760.253C64.4483 760.253 83.0083 741.703 83.0083 718.753C83.0083 695.803 64.4483 677.243 41.5083 677.243C18.5583 677.243 -0.0017 695.803 -0.0017 718.753C-0.0017 741.703 18.5583 760.253 41.5083 760.253ZM855.4683 760.743C878.4183 760.743 896.9683 742.183 896.9683 719.243C896.9683 696.293 878.4183 677.733 855.4683 677.733C832.5183 677.733 813.9683 696.293 813.9683 719.243C813.9683 742.183 832.5183 760.743 855.4683 760.743ZM41.5083 896.973C64.4483 896.973 83.0083 877.933 83.0083 855.473C83.0083 832.523 64.4483 813.963 41.5083 813.963C18.5583 813.963 -0.0017 832.523 -0.0017 855.473C-0.0017 877.933 18.5583 896.973 41.5083 896.973ZM855.4683 896.973C878.4183 896.973 896.9683 877.933 896.9683 855.473C896.9683 832.523 878.4183 813.963 855.4683 813.963C832.5183 813.963 813.9683 832.523 813.9683 855.473C813.9683 877.933 832.5183 896.973 855.4683 896.973ZM719.7283 896.973C742.1883 896.973 760.7383 877.933 760.7383 855.473C760.7383 832.523 742.1883 813.963 719.7283 813.963C696.7783 813.963 678.2183 832.523 678.2183 855.473C678.2183 877.933 696.7783 896.973 719.7283 896.973ZM584.4683 896.973C606.9383 896.973 625.9783 877.933 625.9783 855.473C625.9783 832.523 606.9383 813.963 584.4683 813.963C561.5283 813.963 542.9683 832.523 542.9683 855.473C542.9683 877.933 561.5283 896.973 584.4683 896.973ZM448.2383 896.973C471.1883 896.973 489.7483 877.933 489.7483 855.473C489.7483 832.523 471.1883 813.963 448.2383 813.963C425.7783 813.963 406.7383 832.523 406.7383 855.473C406.7383 877.933 425.7783 896.973 448.2383 896.973ZM312.4983 896.973C335.4483 896.973 354.0083 877.933 354.0083 855.473C354.0083 832.523 335.4483 813.963 312.4983 813.963C289.5483 813.963 270.9983 832.523 270.9983 855.473C270.9983 877.933 289.5483 896.973 312.4983 896.973ZM177.2483 896.973C200.1983 896.973 218.7483 877.933 218.7483 855.473C218.7483 832.523 200.1983 813.963 177.2483 813.963C154.2983 813.963 135.7383 832.523 135.7383 855.473C135.7383 877.933 154.2983 896.973 177.2483 896.973Z"/>
</svg>