<?xml version="1.0" encoding="UTF-8" standalone="no"?>
<svg xmlns="http://www.w3.org/2000/svg"
     width="898.92578125" height="898.92578125"
     viewBox="0 0 898.92578125 898.92578125"
     fill="currentColor">
  <path d="M153.3183 898.9295H745.6083C848.1483 898.9295 898.9283 848.1495 898.9283 747.5595V151.3695C898.9283 50.7795 848.1483 -0.0005 745.6083 -0.0005H153.3183C51.2683 -0.0005 -0.0017 50.2895 -0.0017 151.3695V747.5595C-0.0017 848.6295 51.2683 898.9295 153.3183 898.9295ZM78.6183 155.2695C78.6183 104.4895 105.4683 78.6095 154.2983 78.6095H410.1583V410.1595H78.6183ZM744.6283 78.6095C792.9683 78.6095 820.3083 104.4895 820.3083 155.2695V410.1595H488.7683V78.6095ZM154.2983 820.3095C105.4683 820.3095 78.6183 794.4295 78.6183 743.6495V488.7695H410.1583V820.3095ZM820.3083 743.6495C820.3083 794.4295 792.9683 820.3095 744.6283 820.3095H488.7683V488.7695H820.3083Z"/>
</svg>