<?xml version="1.0" encoding="UTF-8" standalone="no"?>
<svg xmlns="http://www.w3.org/2000/svg"
     width="996.09375" height="996.09375"
     viewBox="0 0 996.09375 996.09375"
     fill="currentColor">
  <path d="M498.0477 996.0923C770.5077 996.0923 996.0977 770.0223 996.0977 498.0423C996.0977 225.5823 770.0177 0.0023 497.5577 0.0023C225.5877 0.0023 -0.0023 225.5823 -0.0023 498.0423C-0.0023 770.0223 226.0777 996.0923 498.0477 996.0923ZM490.7277 546.3823C477.0477 546.3823 465.8177 535.6423 465.8177 521.9723V267.5823L466.7977 243.1623L444.3377 267.5823L421.8777 290.5223C417.9677 295.4123 411.1377 297.8523 404.2977 297.8523C391.1177 297.8523 381.3477 289.0623 381.3477 275.8823C381.3477 269.5323 382.8077 264.1623 388.6677 258.7923L473.1477 177.2423C478.5177 171.3823 484.3777 168.9423 490.7277 168.9423C496.5777 168.9423 502.9277 171.3823 508.7877 177.2423L592.7777 258.7923C598.6377 263.6723 600.5877 269.0423 600.5877 275.8823C600.5877 289.0623 590.8177 297.8523 577.1477 297.8523C569.8277 297.8523 563.4777 295.4123 559.5677 291.0123L537.1077 267.5823L515.1377 243.1623L516.1177 267.5823V521.9723C516.1177 535.6423 504.8877 546.3823 490.7277 546.3823ZM348.6377 744.1423C294.4377 744.1423 265.6277 715.3323 265.1377 661.1323V413.5723C265.6277 359.3723 294.4377 331.0523 348.6377 331.0523H423.8277V382.3223H349.1177C327.1477 382.3223 316.4077 393.0623 316.4077 415.5223V659.6723C316.4077 682.6123 327.1477 693.3623 349.1177 693.3623H633.2977C655.2777 693.3623 666.0177 682.1323 666.0177 659.6723V415.5223C666.0177 393.0623 655.2777 382.3223 633.2977 382.3223H559.0777V331.0523H633.7877C688.4777 331.0523 717.2877 358.8823 717.2877 413.5723V661.1323C717.2877 715.8223 688.4777 744.1423 633.7877 744.1423Z"/>
</svg>