<?xml version="1.0" encoding="UTF-8" standalone="no"?>
<svg xmlns="http://www.w3.org/2000/svg"
     width="866.69921875" height="1054.19921875"
     viewBox="0 0 866.69921875 1054.19921875"
     fill="currentColor">
  <path d="M433.1083 732.9116C443.3583 732.9116 451.6583 729.9816 461.4283 720.2116L626.4683 560.5516C633.7883 553.2216 638.1883 545.4116 638.1883 535.1516C638.1883 515.1416 622.5583 500.9716 602.5383 500.9716C592.7783 500.9716 583.0083 504.8816 576.1683 512.6916L501.9483 591.3116L469.2383 625.9716L472.1683 552.7316V38.0816C472.1683 17.5816 454.0983 0.0016 433.1083 0.0016C412.1083 0.0016 394.5283 17.5816 394.5283 38.0816V552.7316L397.4583 625.9716L364.2583 591.3116L290.5283 512.6916C283.6883 504.8816 272.9483 500.9716 263.6683 500.9716C243.1683 500.9716 228.5183 515.1416 228.5183 535.1516C228.5183 545.4116 232.4183 553.2216 239.7483 560.5516L404.7883 720.2116C415.0383 729.9816 423.3383 732.9116 433.1083 732.9116ZM153.3183 1054.2016H713.3783C815.4283 1054.2016 866.6983 1003.4216 866.6983 902.8316V415.5316C866.6983 314.9416 815.4283 264.1616 713.3783 264.1616H577.1483V342.7716H711.9183C760.2583 342.7716 788.0883 369.1416 788.0883 419.9216V898.4416C788.0883 949.2216 760.2583 975.5816 711.9183 975.5816H154.2983C105.4683 975.5816 78.6183 949.2216 78.6183 898.4416V419.9216C78.6183 369.1416 105.4683 342.7716 154.2983 342.7716H289.5483V264.1616H153.3183C51.2683 264.1616 -0.0017 314.9416 -0.0017 415.5316V902.8316C-0.0017 1003.4216 51.2683 1054.2016 153.3183 1054.2016Z"/>
</svg>