<?xml version="1.0" encoding="UTF-8" standalone="no"?>
<svg xmlns="http://www.w3.org/2000/svg"
     width="963.37890625" height="1107.4344853621824"
     viewBox="0 0 963.37890625 1107.4344853621824"
     fill="currentColor">
  <path d="M520.0183 1089.4494L902.3483 868.2494C950.1983 840.9094 963.3783 813.0794 963.3783 761.3194V306.2394C963.3783 237.3894 901.8583 219.8194 853.5183 247.1594L755.8583 303.7994V184.1694C755.8583 115.3194 694.3383 97.2594 645.9983 125.0894L561.0383 173.9194V71.8694C561.0383 2.5294 499.5083 -15.0506 451.1683 12.2994L60.0583 238.3694C16.5983 263.7594 -0.0017 292.5694 -0.0017 343.3494V785.7294C-0.0017 867.7694 49.3183 894.1294 117.6783 854.5794L194.8283 810.1494V898.5294C194.8283 980.0694 243.6483 1006.4394 312.4983 967.3794L402.3483 915.1294V1020.5994C402.3483 1102.1394 451.6583 1128.9994 520.0183 1089.4494ZM79.5883 774.0194V346.2794C79.5883 325.2894 85.4483 318.4494 101.0783 309.1694L473.1483 94.3294C478.0283 91.3994 481.4483 93.8394 481.4483 98.7194V219.8194L254.8783 350.6794C210.9383 376.5594 194.8283 405.3594 194.8283 455.6594V715.9094L86.9183 777.9194C82.5183 780.3594 79.5883 778.8994 79.5883 774.0194ZM402.3483 577.7294V820.8894L281.7383 890.2294C277.3483 892.6694 274.4183 891.1994 274.4183 886.3194V458.5894C274.4183 437.5894 280.2783 430.7494 295.8983 421.4794L667.9683 206.6294C672.8483 203.6994 676.2683 206.6294 676.2683 211.0294V349.6994L462.3983 473.2294C418.9483 498.6294 402.3483 527.4294 402.3483 577.7294ZM503.4183 543.5494L875.4883 328.6994C880.3683 326.2594 883.7883 328.6994 883.7883 333.0994V759.8594C883.7883 779.3894 879.8783 787.1994 863.2783 796.9694L489.2583 1012.7894C484.8683 1015.2294 481.9383 1013.2694 481.9383 1008.3894V580.6594C481.9383 559.6594 487.7883 552.8194 503.4183 543.5494Z"/>
</svg>