<?xml version="1.0" encoding="UTF-8" standalone="no"?>
<svg xmlns="http://www.w3.org/2000/svg"
     width="1151.3671875" height="898.92578125"
     viewBox="0 0 1151.3671875 898.92578125"
     fill="currentColor">
  <path d="M153.3183 898.9278H998.0483C1100.5883 898.9278 1151.3683 848.6378 1151.3683 748.0478V151.3678C1151.3683 50.7778 1100.5883 -0.0022 998.0483 -0.0022H153.3183C51.2683 -0.0022 -0.0017 50.7778 -0.0017 151.3678V748.0478C-0.0017 848.6378 51.2683 898.9278 153.3183 898.9278ZM154.2983 820.3078C105.4683 820.3078 78.6183 794.4378 78.6183 743.6478V155.7578C78.6183 104.9778 105.4683 78.6178 154.2983 78.6178H997.0683C1045.4083 78.6178 1072.7583 104.9778 1072.7583 155.7578V743.6478C1072.7583 794.4378 1045.4083 820.3078 997.0683 820.3078ZM218.7483 654.7878H488.7683C535.6483 654.7878 558.5983 631.8378 558.5983 586.4278V313.4778C558.5983 268.0678 535.6483 245.1178 488.7683 245.1178H218.7483C172.3683 245.1178 148.9283 267.5778 148.9283 313.4778V586.4278C148.9283 631.8378 172.3683 654.7878 218.7483 654.7878ZM816.4083 649.4178C848.1483 649.4178 877.9283 646.4878 896.9683 638.6678C910.1583 633.2978 918.4583 624.9978 918.4583 612.3078C918.4583 600.0978 909.1783 590.3278 896.9683 590.3278C891.5983 590.3278 887.6983 591.7978 881.3483 592.7778C866.6983 594.7278 852.0483 600.5878 821.7783 600.5878C727.0483 600.5878 668.4583 543.4578 668.4583 450.6878C668.4583 359.3778 728.0283 296.8778 814.9383 296.8778C901.3683 296.8778 959.4683 351.5578 959.4683 432.6178C959.4683 480.9578 944.8283 511.2278 921.3883 511.2278C906.7383 511.2278 901.3683 504.8778 901.3683 490.7178V369.6278C901.3683 354.9778 890.6283 343.7478 876.4683 343.7478C866.2083 343.7478 855.9583 351.5578 853.0283 361.3278V365.2378C841.7983 351.5578 825.1983 343.7478 802.2483 343.7478C750.4883 343.7478 713.8683 388.6678 713.8683 450.6878C713.8683 514.6478 750.4883 558.1078 803.7083 558.1078C826.6583 558.1078 847.6583 547.8478 861.3283 529.2978C872.0683 547.8478 892.5783 558.1078 916.9883 558.1078C971.6783 558.1078 1007.8083 507.3278 1007.8083 429.6878C1007.8083 323.2378 928.7083 249.5078 814.9383 249.5078C697.2683 249.5078 616.6983 331.0578 616.6983 450.1978C616.6983 569.8278 696.7783 649.4178 816.4083 649.4178ZM233.3983 590.8178C219.7283 590.8178 212.8883 584.4678 212.8883 571.7778V328.1278C212.8883 314.9378 219.7283 309.0778 233.3983 309.0778H474.1183C487.7883 309.0778 494.6283 315.4278 494.6283 328.1278V571.7778C494.6283 584.4678 487.7883 590.8178 474.1183 590.8178ZM811.0383 508.7878C784.6683 508.7878 768.0683 486.8178 768.0683 449.7078C768.0683 413.0878 784.6683 391.5978 811.5283 391.5978C837.8883 391.5978 854.4883 413.0878 854.4883 448.2378C854.4883 485.8378 837.8883 508.7878 811.0383 508.7878Z"/>
</svg>