<?xml version="1.0" encoding="UTF-8" standalone="no"?>
<svg xmlns="http://www.w3.org/2000/svg"
     width="998.53515625" height="1083.984375"
     viewBox="0 0 998.53515625 1083.984375"
     fill="currentColor">
  <path d="M499.508 618.6508C519.048 618.6508 538.088 612.3008 561.528 598.6308L943.358 376.9508C982.908 354.0008 998.048 335.9408 998.048 309.0808C998.048 282.7108 982.908 264.6508 943.358 241.7008L561.528 20.0208C538.088 6.3508 519.048 0.0008 499.508 0.0008C479.488 0.0008 460.938 6.3508 437.008 20.0208L55.178 241.7008C15.628 264.6508 0.488 282.7108 0.488 309.0808C0.488 335.9408 15.628 354.0008 55.178 376.9508L437.008 598.6308C460.938 612.3008 479.488 618.6508 499.508 618.6508ZM499.508 859.3708C517.088 859.3708 532.228 851.0708 552.738 838.8708L972.168 591.3108C990.238 580.0808 998.538 563.9608 998.538 548.8308C998.538 528.8108 983.888 512.2108 970.218 505.8608L518.068 767.0908C510.738 771.0008 504.878 773.9208 499.508 773.9208C493.648 773.9208 487.798 771.0008 480.468 767.0908L28.318 505.8608C14.648 512.2108 -0.002 528.8108 -0.002 548.8308C-0.002 563.9608 8.788 580.5708 26.858 591.3108L445.798 838.8708C466.798 851.0708 481.448 859.3708 499.508 859.3708ZM499.508 1083.9808C517.088 1083.9808 532.228 1075.6808 552.738 1063.4808L972.168 815.9208C989.748 805.6608 998.538 788.5708 998.538 773.4408C998.538 753.4208 983.888 737.3008 970.218 730.4708L518.068 992.1908C510.738 996.0908 504.878 999.0208 499.508 999.0208C493.648 999.0208 487.798 996.0908 480.468 992.1908L28.318 730.4708C14.648 737.3008 -0.002 753.4208 -0.002 773.4408C-0.002 788.5708 8.788 805.6608 26.858 815.9208L445.798 1063.4808C466.798 1075.6808 481.448 1083.9808 499.508 1083.9808Z"/>
</svg>