<?xml version="1.0" encoding="UTF-8" standalone="no"?>
<svg xmlns="http://www.w3.org/2000/svg"
     width="996.09375" height="996.09375"
     viewBox="0 0 996.09375 996.09375"
     fill="currentColor">
  <path d="M498.0477 996.0959C770.5077 996.0959 996.0977 770.0159 996.0977 498.0459C996.0977 225.5859 770.0177 -0.0041 497.5577 -0.0041C225.5877 -0.0041 -0.0023 225.5859 -0.0023 498.0459C-0.0023 770.0159 226.0777 996.0959 498.0477 996.0959ZM498.0477 913.0859C267.5777 913.0859 83.4977 728.5159 83.4977 498.0459C83.4977 267.5759 267.0877 83.0059 497.5577 83.0059C728.0277 83.0059 913.0877 267.5759 913.0877 498.0459C913.0877 728.5159 728.5177 913.0859 498.0477 913.0859ZM735.3477 304.1959L755.8577 281.2459C766.5977 270.0159 766.1177 255.3759 756.8377 245.6059L750.4877 240.2359C740.7277 229.9759 725.0977 230.9559 714.3577 241.2059L693.3577 261.7159ZM348.6377 730.4659H638.1877C685.0577 730.4659 713.3777 702.6359 713.3777 648.9259V394.5359L663.0877 445.3159V646.4859C663.0877 668.9459 651.8577 679.6859 637.6977 679.6859H349.1177C328.1277 679.6859 316.8977 668.9459 316.8977 646.4859V366.6959C316.8977 344.2359 328.1277 333.0059 349.1177 333.0059H553.7077L604.4877 282.2259H348.6377C294.4377 282.2259 266.1177 311.0359 266.1177 364.7459V648.9259C266.1177 702.6359 294.4377 730.4659 348.6377 730.4659ZM440.9177 569.8259L490.2377 549.3159L714.3577 325.1959L671.8777 283.6959L448.2377 507.8159L425.7777 554.1959C421.3877 563.9659 431.6377 573.2459 440.9177 569.8259Z"/>
</svg>