<?xml version="1.0" encoding="UTF-8" standalone="no"?>
<svg xmlns="http://www.w3.org/2000/svg"
     width="898.92578125" height="898.92578125"
     viewBox="0 0 898.92578125 898.92578125"
     fill="currentColor">
  <path d="M153.3183 898.9295H745.6083C848.1483 898.9295 898.9283 848.1495 898.9283 747.5595V151.3695C898.9283 50.7795 848.1483 -0.0005 745.6083 -0.0005H153.3183C51.2683 -0.0005 -0.0017 50.2895 -0.0017 151.3695V747.5595C-0.0017 848.6295 51.2683 898.9295 153.3183 898.9295ZM154.2983 78.6095H744.6283C750.9783 78.6095 757.3283 79.0995 763.1883 80.0795L449.7083 394.0395L135.7383 80.0795C141.5983 79.0995 147.9483 78.6095 154.2983 78.6095ZM78.6183 743.6495V155.2695C78.6183 148.4395 79.0983 141.5995 80.0783 135.7395L394.0383 449.2195L80.0783 763.1795C79.0983 757.3195 78.6183 750.4895 78.6183 743.6495ZM820.3083 155.2695V743.6495C820.3083 750.4895 819.8283 757.3195 818.8483 763.1795L504.8783 449.2195L818.8483 135.7395C819.8283 141.5995 820.3083 148.4395 820.3083 155.2695ZM154.2983 820.3095C147.9483 820.3095 141.5983 819.8195 135.7383 818.8495L449.7083 504.8795L763.1883 818.8495C757.3283 819.8195 751.4683 820.3095 744.6283 820.3095Z"/>
</svg>