<?xml version="1.0" encoding="UTF-8" standalone="no"?>
<svg xmlns="http://www.w3.org/2000/svg"
     width="898.92578125" height="898.92578125"
     viewBox="0 0 898.92578125 898.92578125"
     fill="currentColor">
  <path d="M43.4583 86.4278C67.3783 86.4278 86.4283 66.8978 86.4283 42.9678C86.4283 19.0478 67.3783 -0.0022 43.4583 -0.0022C19.5283 -0.0022 -0.0017 19.0478 -0.0017 42.9678C-0.0017 66.8978 19.5283 86.4278 43.4583 86.4278ZM178.7083 86.4278C202.6383 86.4278 222.1683 66.8978 222.1683 42.9678C222.1683 19.0478 202.6383 -0.0022 178.7083 -0.0022C154.7883 -0.0022 135.7383 19.0478 135.7383 42.9678C135.7383 66.8978 154.7883 86.4278 178.7083 86.4278ZM313.9683 86.4278C337.8883 86.4278 357.4183 66.8978 357.4183 42.9678C357.4183 19.0478 337.8883 -0.0022 313.9683 -0.0022C290.0383 -0.0022 270.9983 19.0478 270.9983 42.9678C270.9983 66.8978 290.0383 86.4278 313.9683 86.4278ZM449.7083 86.4278C473.6283 86.4278 492.6783 66.8978 492.6783 42.9678C492.6783 19.0478 473.6283 -0.0022 449.7083 -0.0022C425.7783 -0.0022 406.2483 19.0478 406.2483 42.9678C406.2483 66.8978 425.7783 86.4278 449.7083 86.4278ZM584.9583 86.4278C608.8883 86.4278 628.4183 66.8978 628.4183 42.9678C628.4183 19.0478 608.8883 -0.0022 584.9583 -0.0022C561.0383 -0.0022 541.9883 19.0478 541.9883 42.9678C541.9883 66.8978 561.0383 86.4278 584.9583 86.4278ZM720.2183 86.4278C744.1383 86.4278 763.6683 66.8978 763.6683 42.9678C763.6683 19.0478 744.1383 -0.0022 720.2183 -0.0022C696.2883 -0.0022 677.2483 19.0478 677.2483 42.9678C677.2483 66.8978 696.2883 86.4278 720.2183 86.4278ZM855.9583 86.4278C879.8783 86.4278 898.9283 66.8978 898.9283 42.9678C898.9283 19.0478 879.8783 -0.0022 855.9583 -0.0022C832.0283 -0.0022 812.4983 19.0478 812.4983 42.9678C812.4983 66.8978 832.0283 86.4278 855.9583 86.4278ZM855.9583 221.6778C879.8783 221.6778 898.9283 202.6378 898.9283 178.7078C898.9283 154.7878 879.8783 135.2578 855.9583 135.2578C832.0283 135.2578 812.4983 154.7878 812.4983 178.7078C812.4983 202.6378 832.0283 221.6778 855.9583 221.6778ZM449.7083 221.6778C473.6283 221.6778 492.6783 202.6378 492.6783 178.7078C492.6783 154.7878 473.6283 135.2578 449.7083 135.2578C425.7783 135.2578 406.2483 154.7878 406.2483 178.7078C406.2483 202.6378 425.7783 221.6778 449.7083 221.6778ZM43.4583 221.6778C67.3783 221.6778 86.4283 202.6378 86.4283 178.7078C86.4283 154.7878 67.3783 135.2578 43.4583 135.2578C19.5283 135.2578 -0.0017 154.7878 -0.0017 178.7078C-0.0017 202.6378 19.5283 221.6778 43.4583 221.6778ZM855.9583 356.9378C879.8783 356.9378 898.9283 337.8878 898.9283 313.9678C898.9283 290.0378 879.8783 270.5078 855.9583 270.5078C832.0283 270.5078 812.4983 290.0378 812.4983 313.9678C812.4983 337.8878 832.0283 356.9378 855.9583 356.9378ZM449.7083 356.9378C473.6283 356.9378 492.6783 337.8878 492.6783 313.9678C492.6783 290.0378 473.6283 270.5078 449.7083 270.5078C425.7783 270.5078 406.2483 290.0378 406.2483 313.9678C406.2483 337.8878 425.7783 356.9378 449.7083 356.9378ZM43.4583 356.9378C67.3783 356.9378 86.4283 337.8878 86.4283 313.9678C86.4283 290.0378 67.3783 270.5078 43.4583 270.5078C19.5283 270.5078 -0.0017 290.0378 -0.0017 313.9678C-0.0017 337.8878 19.5283 356.9378 43.4583 356.9378ZM720.2183 492.6778C744.1383 492.6778 763.6683 473.1478 763.6683 449.2178C763.6683 425.2978 744.1383 406.2478 720.2183 406.2478C696.2883 406.2478 677.2483 425.2978 677.2483 449.2178C677.2483 473.1478 696.2883 492.6778 720.2183 492.6778ZM43.4583 492.6778C67.3783 492.6778 86.4283 473.1478 86.4283 449.2178C86.4283 425.2978 67.3783 406.2478 43.4583 406.2478C19.5283 406.2478 -0.0017 425.2978 -0.0017 449.2178C-0.0017 473.1478 19.5283 492.6778 43.4583 492.6778ZM855.9583 492.6778C879.8783 492.6778 898.9283 473.1478 898.9283 449.2178C898.9283 425.2978 879.8783 406.2478 855.9583 406.2478C832.0283 406.2478 812.4983 425.2978 812.4983 449.2178C812.4983 473.1478 832.0283 492.6778 855.9583 492.6778ZM449.7083 492.6778C473.6283 492.6778 492.6783 473.1478 492.6783 449.2178C492.6783 425.2978 473.6283 406.2478 449.7083 406.2478C425.7783 406.2478 406.2483 425.2978 406.2483 449.2178C406.2483 473.1478 425.7783 492.6778 449.7083 492.6778ZM178.7083 492.6778C202.6383 492.6778 222.1683 473.1478 222.1683 449.2178C222.1683 425.2978 202.6383 406.2478 178.7083 406.2478C154.7883 406.2478 135.7383 425.2978 135.7383 449.2178C135.7383 473.1478 154.7883 492.6778 178.7083 492.6778ZM313.9683 492.6778C337.8883 492.6778 357.4183 473.1478 357.4183 449.2178C357.4183 425.2978 337.8883 406.2478 313.9683 406.2478C290.0383 406.2478 270.9983 425.2978 270.9983 449.2178C270.9983 473.1478 290.0383 492.6778 313.9683 492.6778ZM584.9583 492.6778C608.8883 492.6778 628.4183 473.1478 628.4183 449.2178C628.4183 425.2978 608.8883 406.2478 584.9583 406.2478C561.0383 406.2478 541.9883 425.2978 541.9883 449.2178C541.9883 473.1478 561.0383 492.6778 584.9583 492.6778ZM43.4583 627.9278C67.3783 627.9278 86.4283 608.8878 86.4283 584.9578C86.4283 561.0378 67.3783 541.5078 43.4583 541.5078C19.5283 541.5078 -0.0017 561.0378 -0.0017 584.9578C-0.0017 608.8878 19.5283 627.9278 43.4583 627.9278ZM855.9583 627.9278C879.8783 627.9278 898.9283 608.8878 898.9283 584.9578C898.9283 561.0378 879.8783 541.5078 855.9583 541.5078C832.0283 541.5078 812.4983 561.0378 812.4983 584.9578C812.4983 608.8878 832.0283 627.9278 855.9583 627.9278ZM449.7083 627.9278C473.6283 627.9278 492.6783 608.8878 492.6783 584.9578C492.6783 561.0378 473.6283 541.5078 449.7083 541.5078C425.7783 541.5078 406.2483 561.0378 406.2483 584.9578C406.2483 608.8878 425.7783 627.9278 449.7083 627.9278ZM43.4583 763.1878C67.3783 763.1878 86.4283 744.1378 86.4283 720.2178C86.4283 696.2878 67.3783 676.7578 43.4583 676.7578C19.5283 676.7578 -0.0017 696.2878 -0.0017 720.2178C-0.0017 744.1378 19.5283 763.1878 43.4583 763.1878ZM855.9583 763.1878C879.8783 763.1878 898.9283 744.1378 898.9283 720.2178C898.9283 696.2878 879.8783 676.7578 855.9583 676.7578C832.0283 676.7578 812.4983 696.2878 812.4983 720.2178C812.4983 744.1378 832.0283 763.1878 855.9583 763.1878ZM449.7083 763.1878C473.6283 763.1878 492.6783 744.1378 492.6783 720.2178C492.6783 696.2878 473.6283 676.7578 449.7083 676.7578C425.7783 676.7578 406.2483 696.2878 406.2483 720.2178C406.2483 744.1378 425.7783 763.1878 449.7083 763.1878ZM584.9583 898.9278C608.8883 898.9278 628.4183 879.3978 628.4183 855.4678C628.4183 831.5478 608.8883 812.4978 584.9583 812.4978C561.0383 812.4978 541.9883 831.5478 541.9883 855.4678C541.9883 879.3978 561.0383 898.9278 584.9583 898.9278ZM449.7083 898.9278C473.6283 898.9278 492.6783 879.3978 492.6783 855.4678C492.6783 831.5478 473.6283 812.4978 449.7083 812.4978C425.7783 812.4978 406.2483 831.5478 406.2483 855.4678C406.2483 879.3978 425.7783 898.9278 449.7083 898.9278ZM720.2183 898.9278C744.1383 898.9278 763.6683 879.3978 763.6683 855.4678C763.6683 831.5478 744.1383 812.4978 720.2183 812.4978C696.2883 812.4978 677.2483 831.5478 677.2483 855.4678C677.2483 879.3978 696.2883 898.9278 720.2183 898.9278ZM178.7083 898.9278C202.6383 898.9278 222.1683 879.3978 222.1683 855.4678C222.1683 831.5478 202.6383 812.4978 178.7083 812.4978C154.7883 812.4978 135.7383 831.5478 135.7383 855.4678C135.7383 879.3978 154.7883 898.9278 178.7083 898.9278ZM43.4583 898.9278C67.3783 898.9278 86.4283 879.3978 86.4283 855.4678C86.4283 831.5478 67.3783 812.4978 43.4583 812.4978C19.5283 812.4978 -0.0017 831.5478 -0.0017 855.4678C-0.0017 879.3978 19.5283 898.9278 43.4583 898.9278ZM855.9583 898.9278C879.8783 898.9278 898.9283 879.3978 898.9283 855.4678C898.9283 831.5478 879.8783 812.4978 855.9583 812.4978C832.0283 812.4978 812.4983 831.5478 812.4983 855.4678C812.4983 879.3978 832.0283 898.9278 855.9583 898.9278ZM313.9683 898.9278C337.8883 898.9278 357.4183 879.3978 357.4183 855.4678C357.4183 831.5478 337.8883 812.4978 313.9683 812.4978C290.0383 812.4978 270.9983 831.5478 270.9983 855.4678C270.9983 879.3978 290.0383 898.9278 313.9683 898.9278Z"/>
</svg>