<?xml version="1.0" encoding="UTF-8" standalone="no"?>
<svg xmlns="http://www.w3.org/2000/svg"
     width="990.3564453125" height="989.929949550192"
     viewBox="0 0 990.3564453125 989.929949550192"
     fill="currentColor">
  <path d="M926.1464 978.946C940.7964 993.596 965.2064 993.596 979.3664 978.946C994.0164 964.296 994.0164 940.366 979.3664 925.726L64.3264 11.166C49.6864 -3.474 25.7564 -3.964 10.6164 11.166C-3.5436 25.326 -3.5436 49.746 10.6164 64.396ZM791.3864 46.326H199.0964C192.7464 46.326 186.8864 46.816 181.5164 47.796L943.2364 809.026C944.2164 804.136 944.7064 799.256 944.7064 793.886V197.696C944.7064 97.106 893.9164 46.326 791.3864 46.326ZM199.0964 945.256H791.3864C798.2164 945.256 804.0764 944.766 810.4264 943.786L47.2364 181.576C46.2664 186.466 45.7764 191.346 45.7764 197.696V793.886C45.7764 894.956 97.0464 945.256 199.0964 945.256Z"/>
</svg>