<?xml version="1.0" encoding="UTF-8" standalone="no"?>
<svg xmlns="http://www.w3.org/2000/svg"
     width="996.09375" height="996.09375"
     viewBox="0 0 996.09375 996.09375"
     fill="currentColor">
  <path d="M498.0477 996.0959C770.5077 996.0959 996.0977 770.0159 996.0977 498.0459C996.0977 225.5859 770.0177 -0.0041 497.5577 -0.0041C225.5877 -0.0041 -0.0023 225.5859 -0.0023 498.0459C-0.0023 770.0159 226.0777 996.0959 498.0477 996.0959ZM353.5177 758.2959C324.2177 780.7659 292.9677 757.8159 304.6877 723.1459L361.3277 552.7359L215.3277 448.7259C187.9877 428.7059 197.2677 389.6459 234.3777 390.1359L413.5777 391.6059L468.2577 220.2159C479.0077 186.5259 517.0877 186.5259 527.8277 220.2159L582.5177 391.6059L761.7177 390.1359C799.3177 389.6459 807.6177 429.1959 780.7577 448.2459L634.7677 552.7359L691.8977 723.1459C703.1277 757.8159 672.3677 780.7659 642.5777 758.2959L498.0477 652.8359Z"/>
</svg>