<?xml version="1.0" encoding="UTF-8" standalone="no"?>
<svg xmlns="http://www.w3.org/2000/svg"
     width="996.09375" height="996.09375"
     viewBox="0 0 996.09375 996.09375"
     fill="currentColor">
  <path d="M498.0477 996.0959C770.5077 996.0959 996.0977 770.0159 996.0977 498.0459C996.0977 225.5859 770.0177 -0.0041 497.5577 -0.0041C225.5877 -0.0041 -0.0023 225.5859 -0.0023 498.0459C-0.0023 770.0159 226.0777 996.0959 498.0477 996.0959ZM498.0477 913.0859C267.5777 913.0859 83.4977 728.5159 83.4977 498.0459C83.4977 267.5759 267.0877 83.0059 497.5577 83.0059C728.0277 83.0059 913.0877 267.5759 913.0877 498.0459C913.0877 728.5159 728.5177 913.0859 498.0477 913.0859ZM357.4177 749.9959L497.5577 646.9759L637.6977 749.9959C666.5077 771.4859 696.2877 749.0259 685.5477 715.8159L629.8877 550.2959L771.4877 449.2159C797.3677 430.1759 789.5477 392.0859 753.4177 392.5759L579.5877 394.0459L526.3677 227.5359C516.1177 195.3159 479.0077 195.3159 468.7477 227.5359L415.5277 394.0459L241.6977 392.5759C206.0577 392.0859 197.2677 429.6859 223.6377 449.2159L365.2377 550.2959L310.0577 715.8159C298.8277 749.0259 329.0977 771.4859 357.4177 749.9959Z"/>
</svg>