<?xml version="1.0" encoding="UTF-8" standalone="no"?>
<svg xmlns="http://www.w3.org/2000/svg"
     width="932.6171875" height="1022.94921875"
     viewBox="0 0 932.6171875 1022.94921875"
     fill="currentColor">
  <path d="M462.3977 1022.9495H468.7477C536.6177 1022.9495 562.4977 1001.4695 562.4977 934.0795V676.2695L785.1577 805.1795C806.6377 816.4095 823.7277 823.7295 839.3577 823.7295C866.2077 823.7295 884.7677 805.1795 907.2277 771.4795L910.6477 766.1095C925.2977 744.1395 932.6177 724.1195 932.6177 707.5195C932.6177 680.1795 913.5777 659.6695 879.8877 641.1095L650.3877 508.2995L879.3977 381.8395C913.5777 363.7695 931.1477 343.7495 931.1477 316.4095C931.1477 299.8095 923.8277 280.7595 911.6177 258.7895L908.2077 252.4395C886.2277 216.7995 866.2077 198.7295 839.8477 198.7295C824.2177 198.7295 806.1477 206.0595 784.6677 217.2895L562.4977 346.1895V88.8695C562.4977 21.4795 536.6177 -0.0005 468.7477 -0.0005H462.3977C394.5277 -0.0005 368.6477 21.4795 368.6477 88.8695V345.6995L146.9777 217.2895C125.4877 205.0795 105.4677 197.2695 88.8677 197.2695C62.0077 197.2695 40.0377 215.8195 22.9477 253.4195L20.0177 258.7895C9.2777 281.2495 2.4377 300.7795 2.4377 317.3795C2.4377 343.2595 18.5577 363.2795 52.7377 382.3195L281.7377 508.2995L52.2477 641.1095C18.5577 659.6695 -0.0023 679.6895 -0.0023 706.5395C-0.0023 723.1395 7.8077 743.1595 20.5077 765.6295L23.4377 770.0195C43.9477 805.6595 63.4777 824.2195 91.3077 824.2195C106.9377 824.2195 125.4877 816.4095 146.4877 805.1795L368.6477 676.7595V934.0795C368.6477 1001.4695 394.5277 1022.9495 462.3977 1022.9495Z"/>
</svg>