<?xml version="1.0" encoding="UTF-8" standalone="no"?>
<svg xmlns="http://www.w3.org/2000/svg"
     width="898.92578125" height="898.92578125"
     viewBox="0 0 898.92578125 898.92578125"
     fill="currentColor">
  <path d="M153.3183 898.9295H745.6083C848.1483 898.9295 898.9283 848.1495 898.9283 747.5595V151.3695C898.9283 50.7795 848.1483 -0.0005 745.6083 -0.0005H153.3183C51.2683 -0.0005 -0.0017 50.2895 -0.0017 151.3695V747.5595C-0.0017 848.6295 51.2683 898.9295 153.3183 898.9295ZM154.2983 820.3095C105.4683 820.3095 78.6183 794.4295 78.6183 743.6495V155.2695C78.6183 104.4895 105.4683 78.6095 154.2983 78.6095H744.6283C792.9683 78.6095 820.3083 104.4895 820.3083 155.2695V743.6495C820.3083 794.4295 792.9683 820.3095 744.6283 820.3095ZM309.5683 700.6795L449.7083 597.6595L589.8483 700.6795C618.6483 722.1695 648.4383 699.7095 637.6983 666.4995L582.0283 500.9795L723.6283 399.8995C749.5083 380.8595 741.6983 342.7695 705.5683 343.2595L531.7383 344.7295L478.5183 178.2195C468.2583 145.9995 431.1483 145.9995 420.8983 178.2195L367.6783 344.7295L193.8483 343.2595C158.1983 342.7695 149.4183 380.3695 175.7783 399.8995L317.3783 500.9795L262.2083 666.4995C250.9783 699.7095 281.2483 722.1695 309.5683 700.6795Z"/>
</svg>