<?xml version="1.0" encoding="UTF-8" standalone="no"?>
<svg xmlns="http://www.w3.org/2000/svg"
     width="1084.3794872613928" height="1036.3054330604036"
     viewBox="0 0 1084.3794872613928 1036.3054330604036"
     fill="currentColor">
  <path d="M421.9176 260.7434L800.3376 638.1834L1047.4076 460.4534C1077.6876 438.9634 1089.8876 416.5034 1082.0776 392.0934C1074.2676 368.6534 1051.3176 356.9334 1013.7176 357.4234L693.8976 359.3734L596.7276 54.2034C585.0076 18.0634 567.4276 0.0034 542.0376 0.0034C517.1376 0.0034 499.5576 18.0634 487.8376 54.2034ZM964.3976 990.7234C979.0476 1005.3734 1003.4676 1005.3734 1017.6276 990.7234C1031.7876 975.5834 1032.2776 952.1534 1017.6276 937.5034L227.0976 149.4134C212.4476 134.7634 188.0376 134.2734 173.3876 149.4134C159.2276 163.5734 159.2276 187.9834 173.3876 202.6334ZM247.1176 358.3934L70.8476 357.4234C33.2476 356.9334 10.2976 368.6534 2.4876 392.0934C-5.8124 416.5034 6.8876 438.9634 37.1576 460.4534L297.8976 647.9534L195.8476 951.6634C183.6376 987.3034 188.0376 1012.2034 208.0576 1027.3434C228.0776 1042.9734 253.4676 1037.5934 283.7376 1015.6234L542.0376 825.6834L800.8276 1015.6234C831.0976 1037.5934 856.0076 1042.9734 876.5076 1027.3434C883.8376 1021.9734 888.7176 1015.1334 886.2776 995.1134Z"/>
</svg>