<?xml version="1.0" encoding="UTF-8" standalone="no"?>
<svg xmlns="http://www.w3.org/2000/svg"
     width="1076.171875" height="1010.25390625"
     viewBox="0 0 1076.171875 1010.25390625"
     fill="currentColor">
  <path d="M300.2883 1010.2519C324.2183 1010.2519 340.8183 997.5619 370.6083 971.1919L539.0583 821.2919H852.5383C998.0483 821.2919 1076.1683 740.7219 1076.1683 597.6519V223.6319C1076.1683 80.5619 998.0483 0.0019 852.5383 0.0019H223.6283C78.1283 0.0019 -0.0017 80.0819 -0.0017 223.6319V597.6519C-0.0017 741.2119 78.1283 821.2919 223.6283 821.2919H247.0683V948.2419C247.0683 985.8419 266.1183 1010.2519 300.2883 1010.2519ZM320.3083 920.9019V779.2919C320.3083 752.9319 310.0583 742.6719 283.6883 742.6719H223.6283C124.9983 742.6719 78.6183 692.3819 78.6183 597.1719V223.6319C78.6183 128.4219 124.9983 78.6119 223.6283 78.6119H852.5383C950.6883 78.6119 997.5583 128.4219 997.5583 223.6319V597.1719C997.5583 692.3819 950.6883 742.6719 852.5383 742.6719H536.1283C508.7883 742.6719 495.1183 746.5819 476.5583 765.6219ZM434.5683 594.7219L538.5783 518.5519L642.5783 594.7219C662.5983 609.8619 686.5283 596.1919 677.2483 569.3319L636.7183 447.2619L743.1683 370.6019C764.6483 354.9819 755.3683 330.0819 730.9583 330.0819H599.1183L560.0583 208.4919C552.7383 185.0619 524.4183 185.0619 517.0883 208.4919L477.5383 330.0819H345.6983C321.2883 330.0819 311.5283 354.9819 333.4983 370.6019L440.4283 447.2619L399.4183 569.3319C390.1383 596.1919 414.0583 609.8619 434.5683 594.7219Z"/>
</svg>