<?xml version="1.0" encoding="UTF-8" standalone="no"?>
<svg xmlns="http://www.w3.org/2000/svg"
     width="1278.3203125" height="996.09375"
     viewBox="0 0 1278.3203125 996.09375"
     fill="currentColor">
  <path d="M498.0483 996.0959C770.5083 996.0959 996.0983 770.0159 996.0983 498.0459C996.0983 225.5859 770.0183 -0.0041 497.5583 -0.0041C225.5883 -0.0041 -0.0017 225.5859 -0.0017 498.0459C-0.0017 770.0159 226.0783 996.0959 498.0483 996.0959ZM154.7883 268.0659C226.5583 156.7359 353.0283 83.0059 497.0683 83.0059C641.1183 83.0059 767.5783 156.7359 839.8483 267.5759C859.8683 295.4059 850.0983 326.6559 817.3783 326.6559H177.2483C145.0183 326.6559 134.7683 295.4059 154.7883 268.0659ZM1214.3583 608.8859C1238.2783 608.8859 1255.3683 592.2859 1256.3483 567.3859L1266.5983 221.6759C1267.5783 190.4259 1246.5783 169.4359 1214.3583 169.4359C1182.1283 169.4359 1161.6183 190.4259 1162.5983 221.6759L1172.8483 567.3859C1173.8283 592.2859 1190.4283 608.8859 1214.3583 608.8859ZM497.5583 630.8559C437.0083 630.8559 389.1583 582.5159 389.1583 521.9759C389.1583 462.4059 437.0083 414.0659 497.5583 414.0659C557.6183 414.0659 605.9583 462.4059 605.9583 521.9759C605.9583 582.5159 557.6183 630.8559 497.5583 630.8559ZM97.6583 606.9359C88.8683 576.6559 105.9583 562.9859 131.3483 566.4059C270.9983 582.5159 379.3983 705.0759 374.9983 848.6359C374.5083 873.5359 355.9583 890.1359 329.5883 877.4459C214.3583 825.6859 129.3983 727.0459 97.6583 606.9359ZM897.4583 606.9359C865.7183 727.0459 781.2483 825.6859 665.5283 877.4459C639.6483 890.1359 620.6083 873.5359 620.1183 848.6359C615.7183 705.5659 723.6283 582.5159 863.7683 566.4059C889.1583 562.9859 906.2483 576.6559 897.4583 606.9359ZM1214.3583 825.6859C1249.5083 825.6859 1278.3183 797.3659 1278.3183 764.1559C1278.3183 730.4659 1249.9983 702.6359 1214.3583 702.6359C1179.1983 702.6359 1150.3883 730.4659 1150.3883 764.1559C1150.3883 797.3659 1179.6883 825.6859 1214.3583 825.6859Z"/>
</svg>