<?xml version="1.0" encoding="UTF-8" standalone="no"?>
<svg xmlns="http://www.w3.org/2000/svg"
     width="1406.7927273069151" height="730.95703125"
     viewBox="0 0 1406.7927273069151 730.95703125"
     fill="currentColor">
  <path d="M322.2543 129.8852H357.4043C379.3843 129.8852 388.6543 121.5852 395.9843 103.0252L424.7943 30.2752C431.6243 14.1552 424.3043 -0.0048 407.2143 -0.0048H374.9843C358.3843 -0.0048 348.1343 8.3052 340.3143 22.9452L301.7443 97.1652C293.9343 111.8152 301.7443 129.8852 322.2543 129.8852ZM1049.3043 129.8852H1084.4543C1104.9643 129.8852 1112.7743 111.8152 1104.9643 97.1652L1066.3943 22.9452C1059.0643 8.3052 1048.3243 -0.0048 1031.7243 -0.0048H999.4943C982.4043 -0.0048 975.0843 14.1552 981.9243 30.2752L1010.7243 103.0252C1018.0543 121.5852 1027.3343 129.8852 1049.3043 129.8852ZM704.0843 688.4752C867.6643 688.4752 1003.4043 553.2252 1003.4043 389.6452C1003.4043 225.5852 867.1743 90.3352 703.6043 90.3352C540.5143 90.3352 404.7743 225.5852 404.7743 389.6452C404.7743 553.2252 540.5143 688.4752 704.0843 688.4752ZM506.3343 257.8152C548.3243 192.8752 620.1043 150.8752 703.6043 150.8752C787.0943 150.8752 858.8743 192.8752 900.8643 257.3252C910.6343 270.9952 907.2143 282.7152 892.0743 282.7152H515.1243C499.9843 282.7152 497.0543 270.9952 506.3343 257.8152ZM188.4643 401.3652H242.6643C265.1243 401.3652 278.3043 393.5552 286.6043 372.5552L329.0843 268.0652C335.9243 250.9752 325.1843 234.3752 306.1343 234.3752H257.7943C241.1943 234.3752 227.5243 242.6752 219.7143 257.8152L165.5143 363.2852C155.7443 381.8352 167.4643 401.3652 188.4643 401.3652ZM1164.5343 401.3652H1218.2443C1239.2443 401.3652 1250.9643 381.8352 1241.6843 363.2852L1187.4843 257.8152C1179.1843 242.6752 1165.5143 234.3752 1148.9143 234.3752H1100.5743C1081.5243 234.3752 1070.7843 250.9752 1077.6243 268.0652L1120.1043 372.5552C1128.8943 393.5552 1141.5843 401.3652 1164.5343 401.3652ZM703.6043 461.9152C670.3943 461.9152 645.9843 437.0152 645.9843 404.2952C645.9843 371.0952 670.3943 346.1952 703.6043 346.1952C736.3143 346.1952 761.2143 371.0952 761.2143 404.2952C761.2143 437.0152 736.3143 461.9152 703.6043 461.9152ZM934.0643 452.1452C915.5143 521.4852 867.1743 578.1252 800.2743 607.4252C788.0743 613.7652 782.2143 608.3952 781.7243 596.1952C779.2843 513.6752 839.8343 444.3352 919.9043 435.5452C932.1143 433.5952 937.4843 438.4752 934.0643 452.1452ZM474.1043 452.1452C469.7143 438.4752 475.0843 434.0852 486.8043 435.5452C567.3643 444.3352 628.4043 513.1852 625.4743 596.1952C625.4743 608.3952 619.1243 613.7652 606.9243 607.4252C540.0243 578.1252 492.1743 521.4852 474.1043 452.1452ZM39.5343 730.9552H103.5043C132.7943 730.9552 147.4443 716.7952 155.2643 695.8052L214.8343 549.8052C223.6143 528.3252 209.9443 507.3252 186.5143 507.3252H131.3343C100.5743 507.3252 85.4343 519.0452 74.6943 539.5552L5.3543 676.7552C-7.3357 701.6552 1.9343 730.9552 39.5343 730.9552ZM1303.2043 730.9552H1367.1743C1405.2643 730.9552 1414.0443 701.6552 1401.3543 676.7552L1332.0143 539.5552C1321.2743 519.0452 1306.1343 507.3252 1275.3743 507.3252H1220.6843C1196.7643 507.3252 1183.0943 528.3252 1191.8843 549.8052L1251.4543 695.8052C1259.7543 716.7952 1273.9143 730.9552 1303.2043 730.9552Z"/>
</svg>