<?xml version="1.0" encoding="UTF-8" standalone="no"?>
<svg xmlns="http://www.w3.org/2000/svg"
     width="1138.18359375" height="996.09375"
     viewBox="0 0 1138.18359375 996.09375"
     fill="currentColor">
  <path d="M498.0477 996.0959C576.6577 996.0959 652.3477 976.5659 719.2377 942.8759C718.7477 937.9859 718.7477 933.5959 718.7477 928.7159V848.1459C702.1477 858.8859 684.5677 869.1359 665.5277 877.4459C639.1577 890.1359 620.6077 873.5359 620.1177 848.6359C617.1877 741.6959 676.2677 646.9759 764.1577 598.6359C776.3677 480.4659 859.3777 409.6659 961.9177 409.6659C970.7077 409.6659 979.9777 410.6459 988.2777 412.5959C947.2677 180.1759 740.7277 -0.0041 497.5577 -0.0041C225.0977 -0.0041 -0.0023 225.5859 -0.0023 498.0459C-0.0023 770.0159 225.5877 996.0959 498.0477 996.0959ZM154.2977 268.0659C226.0777 156.7359 352.5377 83.0059 497.0677 83.0059C641.1177 83.0059 767.5777 156.7359 839.8477 267.5759C859.3777 295.4059 850.0977 326.6559 816.8977 326.6559H177.2477C144.5277 326.6559 134.7677 295.4059 154.2977 268.0659ZM497.0677 630.8559C437.0077 630.8559 388.6677 582.5159 388.6677 521.9759C388.6677 462.4059 437.0077 414.0659 497.0677 414.0659C557.1277 414.0659 605.4677 462.4059 605.4677 521.9759C605.4677 582.5159 557.1277 630.8559 497.0677 630.8559ZM785.1577 932.1259C785.1577 968.2659 801.7577 985.3559 835.4477 985.3559H1088.3777C1122.0677 985.3559 1138.1877 968.2659 1138.1877 932.1259V737.3059C1138.1877 703.1259 1124.0277 686.5259 1095.2177 684.5659V626.4659C1095.2177 536.6259 1041.5077 476.5659 961.9177 476.5659C882.3277 476.5659 828.6177 536.6259 828.6177 626.4659V684.5659C799.8077 686.5259 785.1577 703.1259 785.1577 737.3059ZM879.3977 684.0859V621.0959C879.3977 563.9659 912.5977 525.8759 961.9177 525.8759C1011.2277 525.8759 1044.4377 563.9659 1044.4377 621.0959V684.0859ZM97.1677 606.9359C88.8677 576.6559 105.9577 562.9859 131.3477 566.4059C270.9977 582.5159 379.3977 705.0759 374.5077 848.6359C374.5077 873.5359 355.4677 890.1359 329.5877 877.4459C213.8677 825.6859 129.3977 727.0459 97.1677 606.9359Z"/>
</svg>