<?xml version="1.0" encoding="UTF-8" standalone="no"?>
<svg xmlns="http://www.w3.org/2000/svg"
     width="1182.5805141681699" height="1081.54296875"
     viewBox="0 0 1182.5805141681699 1081.54296875"
     fill="currentColor">
  <path d="M593.2577 105.9552C583.4977 120.6052 592.7777 139.1552 610.8377 139.1552H648.9277C651.8577 251.4652 708.0077 266.1152 708.0077 323.2452C708.0077 398.9252 645.0177 429.1952 645.0177 518.5552C645.0177 554.1952 656.7377 582.0352 680.6677 612.7952C703.6177 642.0852 746.5777 611.3252 723.6377 581.0552C704.5877 555.6652 699.2177 541.0152 699.2177 514.6452C699.2177 448.7352 762.2077 412.1052 762.2077 323.2452C762.2077 246.0952 707.0277 224.1252 703.6177 139.1552H741.6977C759.7677 139.1552 769.0477 120.6052 759.2777 105.9552L695.7977 11.2352C690.4277 3.4152 684.0777 -0.0048 676.2677 -0.0048C667.9677 -0.0048 661.6177 3.9052 657.2277 11.2352ZM802.2477 105.9552C792.4777 120.1152 802.2477 139.1552 819.8277 139.1552H858.8877C861.8177 251.4652 917.4777 266.1152 917.4777 323.2452C917.4777 398.9252 854.9777 429.1952 854.9777 518.5552C854.9777 555.1752 866.2077 583.0052 890.1377 612.7952C913.0877 642.0852 956.0577 611.3252 933.1077 581.0552C915.0377 556.1552 908.6877 541.9952 908.6877 514.6452C908.6877 448.7352 971.6777 412.1052 971.6777 323.2452C971.6777 245.6052 916.0177 224.1252 912.5977 139.1552H951.1677C969.7277 139.1552 979.0077 120.6052 968.7477 105.9552L905.2777 11.2352C899.8977 3.4152 893.5577 -0.0048 885.7377 -0.0048C877.9277 -0.0048 871.5777 3.9052 866.6977 11.2352ZM1012.2077 105.9552C1002.4377 120.1152 1011.7177 139.1552 1029.7877 139.1552H1068.3577C1071.2877 251.4652 1126.9577 266.1152 1126.9577 323.2452C1126.9577 398.9252 1064.4577 429.1952 1064.4577 518.5552C1064.4577 555.1752 1076.1677 583.0052 1099.6077 612.7952C1123.0477 642.0852 1165.5277 611.3252 1143.0677 581.0552C1124.5077 556.1552 1118.1677 541.9952 1118.1677 514.6452C1118.1677 448.7352 1181.1477 412.1052 1181.1477 323.2452C1181.1477 245.6052 1125.4877 224.1252 1122.0677 139.1552H1161.1377C1178.7077 139.1552 1188.4777 120.1152 1178.7077 105.9552L1114.7477 11.2352C1109.3777 3.9052 1103.5177 -0.0048 1095.2177 -0.0048C1087.3977 -0.0048 1081.0577 3.9052 1075.6877 11.2352ZM498.0477 1081.5452C741.6977 1081.5452 948.7277 899.4152 987.7977 666.0152C964.8477 689.4552 929.6877 701.6552 896.9777 691.4052C887.2077 722.6552 864.2577 749.0252 835.4477 762.6952C807.6177 851.5652 744.1377 922.3652 659.6677 958.9852C634.2777 950.6852 624.5077 916.5052 638.6677 881.8352C639.1577 817.3852 668.4577 758.7852 713.3777 719.2352C670.8977 706.0552 627.9277 674.8052 602.5377 632.3252C591.7977 680.6652 549.3177 716.3052 497.0677 716.3052C437.0077 716.3052 388.6677 667.9652 388.6677 607.4252C388.6677 547.8552 437.0077 499.5152 497.0677 499.5152C526.3677 499.5152 552.2477 511.2352 570.7977 529.7852C569.3377 487.3052 580.5677 447.2652 596.6777 412.1052H177.2477C144.5277 412.1052 134.7677 380.8552 154.2977 353.5152C226.0777 242.1852 352.5377 168.4552 497.0677 168.4552C509.2777 168.4552 521.4877 168.9452 534.1777 169.9252C519.5277 148.4352 517.0877 116.6952 531.2477 86.4252C520.0177 85.9352 508.7877 85.4452 497.5577 85.4452C225.0977 85.4452 -0.0023 311.0352 -0.0023 583.4952C-0.0023 855.4652 225.5877 1081.5452 498.0477 1081.5452ZM97.1677 692.3852C88.8677 662.1052 105.9577 648.4352 131.3477 651.8552C270.9977 667.9652 379.3977 790.5252 374.5077 934.0852C374.5077 958.9852 355.4677 975.5852 329.5877 962.8952C213.8677 911.1352 129.3977 812.4952 97.1677 692.3852Z"/>
</svg>