<?xml version="1.0" encoding="UTF-8" standalone="no"?>
<svg xmlns="http://www.w3.org/2000/svg"
     width="666.9921875" height="886.23046875"
     viewBox="0 0 666.9921875 886.23046875"
     fill="currentColor">
  <path d="M41.9883 886.2267H624.5083C648.9283 886.2267 666.9883 870.1167 666.9883 845.7067C666.9883 820.7967 648.9283 805.6667 624.5083 805.6667H154.7883V803.2267C224.6083 779.7867 275.3883 694.3367 275.3883 588.3767C275.3883 547.3667 269.5283 512.2067 261.7183 479.0067H520.0183C540.0383 479.0067 555.6683 463.3767 555.6683 443.3567C555.6683 423.3367 540.0383 407.7167 520.0183 407.7167H243.1683C232.4183 367.1867 223.6283 324.7067 223.6283 273.4367C223.6283 160.1567 302.2483 83.0067 438.4783 83.0067C521.4883 83.0067 559.0783 105.4667 585.9383 105.4667C610.8383 105.4667 622.5583 90.8167 622.5583 69.3367C622.5583 48.8267 610.3483 34.6667 583.0083 23.4367C540.0383 6.3467 489.7483 -0.0033 431.1483 -0.0033C243.6483 -0.0033 127.9283 109.3767 127.9283 280.2767C127.9283 322.7567 136.2283 365.7267 146.4883 407.7167H42.4783C22.4583 407.7167 6.3483 423.3367 6.3483 443.3567C6.3483 463.3767 22.4583 479.0067 42.4783 479.0067H165.0383C175.2883 519.0467 183.5983 557.1267 183.5983 592.2867C183.5983 702.6367 116.6983 774.9067 38.5783 796.8767C11.7183 805.1767 -0.0017 819.3367 -0.0017 844.2367C-0.0017 868.6567 17.5783 886.2267 41.9883 886.2267Z"/>
</svg>