<?xml version="1.0" encoding="UTF-8" standalone="no"?>
<svg xmlns="http://www.w3.org/2000/svg"
     width="996.09375" height="996.09375"
     viewBox="0 0 996.09375 996.09375"
     fill="currentColor">
  <path d="M498.0477 996.0959C770.5077 996.0959 996.0977 770.5059 996.0977 498.0459C996.0977 226.0759 770.0177 -0.0041 497.5577 -0.0041C225.5877 -0.0041 -0.0023 226.0759 -0.0023 498.0459C-0.0023 770.5059 226.0777 996.0959 498.0477 996.0959ZM338.8677 726.0759C320.7977 726.0759 309.0777 714.8459 309.0777 696.2859C309.0777 679.6859 317.3877 669.4359 335.4477 664.0659C373.0477 653.3159 405.7577 618.1659 405.7577 564.4559C405.7577 548.3359 402.8277 531.7359 398.4377 514.1559H338.8677C322.7577 514.1559 310.5477 503.4159 310.5477 487.3059C310.5477 470.7059 322.7577 459.9559 338.8677 459.9559H385.2577C380.3677 440.4259 376.9577 420.4059 376.9577 400.3859C376.9577 305.1759 440.4277 245.1159 543.9477 245.1159C575.1977 245.1159 603.5177 249.0259 626.9577 257.8159C645.9977 265.1359 652.3477 275.8759 652.3477 290.0359C652.3477 305.6659 644.0477 316.4059 624.9977 316.4059C610.8377 316.4059 590.8177 304.6859 547.8477 304.6859C481.9377 304.6859 442.8677 341.7959 442.8677 395.9959C442.8677 420.4059 447.2677 440.9159 451.6577 459.9559H590.3277C606.4477 459.9559 618.1677 470.7059 618.1677 487.3059C618.1677 503.4159 606.4477 514.1559 590.3277 514.1559H464.8477C468.2577 528.8059 470.2177 544.4359 470.2177 562.0159C470.2177 604.9759 452.6377 645.0159 426.7577 666.9959H645.0177C663.0877 666.9959 675.7777 678.7059 675.7777 696.7759C675.7777 714.8459 663.0877 726.0759 645.0177 726.0759Z"/>
</svg>