<?xml version="1.0" encoding="UTF-8" standalone="no"?>
<svg xmlns="http://www.w3.org/2000/svg"
     width="1306.640625" height="1056.640625"
     viewBox="0 0 1306.640625 1056.640625"
     fill="currentColor">
  <path d="M-0.0017 198.2386C-0.0017 386.7186 160.6483 660.6486 320.7983 690.9186C327.6383 926.2686 416.5083 1056.6386 568.8483 1056.6386C717.2883 1056.6386 794.4383 938.4786 835.4483 700.1986C866.6983 522.4586 909.6683 466.7986 980.9583 466.7986C1057.6183 466.7986 1097.6583 540.0386 1108.3983 688.9686C1043.9483 707.5186 997.5583 767.0886 997.5583 836.9186C997.5583 922.8486 1066.8983 991.6986 1152.3483 991.6986C1237.3083 991.6986 1306.6383 922.8486 1306.6383 836.9186C1306.6383 763.6686 1254.8783 702.1486 1186.0383 686.5186C1167.4783 487.7886 1105.9583 388.1786 980.9583 388.1786C861.8183 388.1786 797.3683 469.2386 758.2983 682.6186C723.6283 874.5086 680.1783 978.0286 563.9683 978.0286C463.3783 978.0286 405.2783 874.5086 399.4183 691.4086C560.5483 662.1086 722.1683 387.2086 722.1683 198.2386C722.1683 90.3286 668.9483 35.1586 565.9183 35.1586H551.7583C538.5783 14.1586 515.6283 -0.0014 489.2583 -0.0014C449.2183 -0.0014 416.0183 33.1986 416.0183 73.7286C416.0183 114.2586 449.2183 147.4586 489.2583 147.4586C515.1383 147.4586 538.0883 133.7886 550.7783 113.7686H569.8283C619.1383 113.7686 643.5583 143.0686 643.5583 197.2686C643.5583 352.0486 499.9983 615.2386 360.8383 615.2386C221.6783 615.2386 78.6183 352.0486 78.6183 197.2686C78.6183 143.0686 103.0283 113.7686 151.8583 113.7686H169.9183C183.1083 133.7886 206.0583 147.4586 231.9383 147.4586C271.9683 147.4586 305.1783 114.2586 305.1783 73.7286C305.1783 33.1986 271.9683 -0.0014 231.9383 -0.0014C205.5683 -0.0014 182.1283 14.1586 169.4383 35.1586H155.7583C53.2183 35.1586 -0.0017 90.3286 -0.0017 198.2386ZM1152.3483 922.8486C1104.9783 922.8486 1065.9183 884.2786 1065.9183 836.9186C1065.9183 789.0586 1104.9783 750.9786 1152.3483 750.9786C1199.7083 750.9786 1238.2783 789.0586 1238.2783 836.9186C1238.2783 884.2786 1199.7083 922.8486 1152.3483 922.8486Z"/>
</svg>