<?xml version="1.0" encoding="UTF-8" standalone="no"?>
<svg xmlns="http://www.w3.org/2000/svg"
     width="996.09375" height="996.09375"
     viewBox="0 0 996.09375 996.09375"
     fill="currentColor">
  <path d="M498.0477 996.0977C770.5077 996.0977 996.0977 770.5077 996.0977 498.0477C996.0977 226.0777 770.0177 -0.0023 497.5577 -0.0023C225.5877 -0.0023 -0.0023 226.0777 -0.0023 498.0477C-0.0023 770.5077 226.0777 996.0977 498.0477 996.0977ZM172.3677 347.1677C172.3677 290.5277 202.1477 259.7677 256.8377 259.7677H259.2777C267.0877 249.5077 279.7877 242.6777 293.9477 242.6777C317.8677 242.6777 337.8877 262.6977 337.8877 287.1077C337.8877 311.0377 317.8677 331.5477 293.9477 331.5477C279.7877 331.5477 267.5777 325.1977 259.7677 315.4277H254.8877C236.3277 315.4277 228.0277 324.7077 228.0277 347.1677C228.0277 430.1777 301.7577 542.4777 356.9377 542.4777C411.6177 542.4777 485.8377 430.1777 485.8377 347.1677C485.8377 325.1977 477.0477 315.4277 458.4977 315.4277H453.1277C445.3077 325.1977 433.1077 331.5477 419.9177 331.5477C395.0177 331.5477 375.4877 311.0377 375.4877 287.1077C375.4877 262.6977 395.0177 242.6777 419.9177 242.6777C433.5977 242.6777 446.2877 249.5077 454.0977 259.7677H456.5477C512.2077 259.7677 541.5077 290.5277 541.5077 347.1677C541.5077 450.1977 459.9577 574.2177 384.2777 594.7277C387.6977 674.8077 413.5777 718.7477 455.5677 718.7477C503.9077 718.7477 524.4177 678.7077 541.5077 582.5177C561.5277 476.0777 595.2177 432.1277 658.6877 432.1277C721.6777 432.1277 755.3677 479.9777 766.1177 579.0977C800.2977 589.3577 825.6877 621.5777 825.6877 658.6877C825.6877 705.0777 788.0877 742.6777 741.2077 742.6777C694.3377 742.6777 657.7177 705.5677 657.7177 658.6877C657.7177 623.0477 680.1777 592.7777 711.4277 581.0577C706.0577 516.1177 688.4777 487.3077 658.6877 487.3077C627.4377 487.3077 609.8677 516.1177 596.1877 593.7477C575.1977 718.2577 532.7177 774.4177 457.5177 774.4177C379.3977 774.4177 333.9877 708.9877 329.0977 594.7277C253.4177 573.7277 172.3677 449.2177 172.3677 347.1677ZM708.0077 658.6877C708.0077 677.2477 722.6577 692.8677 741.2077 692.8677C759.7677 692.8677 775.3877 677.2477 775.3877 658.6877C775.3877 640.1377 760.2577 624.9977 741.2077 624.9977C722.6577 624.9977 708.0077 640.1377 708.0077 658.6877Z"/>
</svg>