<?xml version="1.0" encoding="UTF-8" standalone="no"?>
<svg xmlns="http://www.w3.org/2000/svg"
     width="996.09375" height="996.09375"
     viewBox="0 0 996.09375 996.09375"
     fill="currentColor">
  <path d="M498.0477 996.0959C770.5077 996.0959 996.0977 770.0159 996.0977 498.0459C996.0977 225.5859 770.0177 -0.0041 497.5577 -0.0041C225.5877 -0.0041 -0.0023 225.5859 -0.0023 498.0459C-0.0023 770.0159 226.0777 996.0959 498.0477 996.0959ZM498.0477 913.0859C267.5777 913.0859 83.4977 728.5159 83.4977 498.0459C83.4977 267.5759 267.0877 83.0059 497.5577 83.0059C728.0277 83.0059 913.0877 267.5759 913.0877 498.0459C913.0877 728.5159 728.5177 913.0859 498.0477 913.0859ZM458.9877 766.6059C531.7377 766.6059 572.7577 711.9159 593.2577 591.3059C606.4477 515.6259 623.5377 487.7959 653.8077 487.7959C682.6177 487.7959 699.2177 515.1359 704.5877 578.1259C674.3177 589.8459 652.8277 619.6259 652.8277 654.2959C652.8277 699.7059 688.4777 735.8359 733.8877 735.8359C779.2977 735.8359 815.9177 699.2159 815.9177 654.2959C815.9177 617.6759 791.0177 586.9159 757.8077 576.6559C748.0477 480.4659 714.8477 434.5659 653.8077 434.5659C592.2877 434.5659 559.5677 477.0459 540.5277 580.0759C523.9277 673.8259 503.9077 712.8859 457.0277 712.8859C416.0177 712.8859 391.1177 669.9259 387.2077 592.2859C461.4277 571.7759 540.0377 451.1759 540.0377 352.0459C540.0377 296.8759 511.7177 267.0859 458.0077 267.0859H455.5677C447.7577 256.8359 435.5477 250.4859 422.3677 250.4859C398.4377 250.4859 379.3977 269.5359 379.3977 293.4559C379.3977 316.8959 398.4377 336.4259 422.3677 336.4259C435.0577 336.4259 447.2677 330.0759 455.0777 320.3159H459.9577C478.0277 320.3159 486.3277 330.5659 486.3277 352.0459C486.3277 432.6159 414.5477 541.5059 361.3277 541.5059C307.6177 541.5059 235.8377 432.6159 235.8377 352.0459C235.8377 330.0759 244.1377 320.3159 262.2077 320.3159H266.1177C274.4177 330.0759 286.1377 336.4259 299.8077 336.4259C323.2377 336.4259 342.2877 316.8959 342.2877 293.4559C342.2877 269.5359 323.2377 250.4859 299.8077 250.4859C286.1377 250.4859 273.9277 256.8359 266.1177 267.0859H264.1577C210.9377 267.0859 182.1277 296.8759 182.1277 352.0459C182.1277 451.1759 260.2577 571.2859 334.4777 591.7959C338.8677 702.6359 383.2977 766.6059 458.9877 766.6059ZM733.8877 687.4959C715.8177 687.4959 701.6577 672.3659 701.6577 654.2959C701.6577 635.7459 715.8177 621.5859 733.8877 621.5859C752.4377 621.5859 767.0877 635.7459 767.0877 654.2959C767.0877 672.3659 751.9577 687.4959 733.8877 687.4959Z"/>
</svg>