<?xml version="1.0" encoding="UTF-8" standalone="no"?>
<svg xmlns="http://www.w3.org/2000/svg"
     width="996.09375" height="1094.7265625"
     viewBox="0 0 996.09375 1094.7265625"
     fill="currentColor">
  <path d="M498.0477 1094.7288C770.5077 1094.7288 996.0977 868.6488 996.0977 596.6788C996.0977 482.9088 956.5477 377.4388 890.6277 292.9688L928.7077 254.3987C939.9377 243.1688 946.2877 228.0287 946.2877 214.8388C946.2877 187.4987 924.3177 165.5287 895.9977 165.5287C879.3977 165.5287 867.6777 170.4088 855.9577 181.6387L818.8477 217.7687C744.6277 154.2988 651.3677 112.3088 549.8077 101.5588V53.7088C549.8077 24.4188 526.8577 -0.0013 497.5577 -0.0013C469.2377 -0.0013 445.3077 24.4188 445.3077 53.7088V101.5588C196.7777 127.9288 -0.0023 342.2888 -0.0023 596.6788C-0.0023 868.6488 226.0777 1094.7288 498.0477 1094.7288ZM498.0477 675.7787C454.0977 675.7787 419.4377 640.6288 419.4377 597.1688C419.4377 566.4088 437.0077 540.0387 463.8677 525.8788V283.6888C463.8677 264.6487 478.5177 249.9987 497.5577 249.9987C516.5977 249.9987 531.7377 264.6487 531.7377 283.6888V526.3688C559.0777 539.5487 576.6577 566.4088 576.6577 597.1688C576.6577 640.6288 541.5077 675.7787 498.0477 675.7787Z"/>
</svg>