<?xml version="1.0" encoding="UTF-8" standalone="no"?>
<svg xmlns="http://www.w3.org/2000/svg"
     width="938.96484375" height="958.49609375"
     viewBox="0 0 938.96484375 958.49609375"
     fill="currentColor">
  <path d="M-0.0017 256.343H938.9683V102.053C938.9683 40.523 899.4183 0.003 840.3283 0.003H98.1483C39.5483 0.003 -0.0017 40.523 -0.0017 102.053ZM200.1983 188.963C172.3683 188.963 149.4183 166.993 149.4183 139.653C149.4183 111.813 172.3683 89.843 200.1983 89.843C227.0483 89.843 249.9983 111.813 249.9983 139.653C249.9983 166.993 227.0483 188.963 200.1983 188.963ZM379.3983 188.963C351.5583 188.963 328.6183 166.993 328.6183 139.653C328.6183 111.813 351.5583 89.843 379.3983 89.843C406.2483 89.843 429.1983 111.813 429.1983 139.653C429.1983 166.993 406.2483 188.963 379.3983 188.963ZM558.1083 188.963C530.7583 188.963 507.8083 166.993 507.8083 139.653C507.8083 111.813 530.7583 89.843 558.1083 89.843C585.4483 89.843 608.3983 111.813 608.3983 139.653C608.3983 166.993 585.4483 188.963 558.1083 188.963ZM737.3083 188.963C710.4483 188.963 687.4983 166.993 687.4983 139.653C687.4983 111.813 710.4483 89.843 737.3083 89.843C765.1383 89.843 788.0883 111.813 788.0883 139.653C788.0883 166.993 765.1383 188.963 737.3083 188.963ZM98.1483 870.603H100.0983V919.433C100.0983 942.873 116.2083 958.493 139.6483 958.493C163.0883 958.493 178.7083 942.873 178.7083 919.433V870.603H759.7683V919.433C759.7683 942.873 775.8783 958.493 799.3183 958.493C822.7583 958.493 838.3783 942.873 838.3783 919.433V870.603H840.3283C899.4183 870.603 938.9683 830.083 938.9683 768.553V310.543H-0.0017V768.553C-0.0017 830.083 39.5483 870.603 98.1483 870.603ZM171.8783 749.513C143.5583 749.513 124.9983 730.953 124.9983 702.633V443.363C124.9983 414.553 143.5583 395.993 171.8783 395.993H767.0883C795.4083 395.993 814.4483 414.553 814.4483 443.363V702.633C814.4483 730.953 795.4083 749.513 767.0883 749.513ZM191.8983 695.313H747.5583C754.3983 695.313 760.2583 689.453 760.2583 682.133V463.863C760.2583 456.053 754.3983 450.193 747.5583 450.193H191.8983C184.5683 450.193 179.1983 456.053 179.1983 463.863V682.133C179.1983 689.453 184.5683 695.313 191.8983 695.313Z"/>
</svg>