<?xml version="1.0" encoding="UTF-8" standalone="no"?>
<svg xmlns="http://www.w3.org/2000/svg"
     width="958.49609375" height="958.49609375"
     viewBox="0 0 958.49609375 958.49609375"
     fill="currentColor">
  <path d="M139.6483 958.4913C163.0883 958.4913 178.7083 942.8713 178.7083 919.4313V870.6013H779.2983V919.4313C779.2983 942.8713 795.4083 958.4913 818.8483 958.4913C842.2883 958.4913 857.9083 942.8713 857.9083 919.4313V870.1213C918.9483 863.7713 958.4983 819.8213 958.4983 755.8613V114.7413C958.4983 45.9013 912.5983 0.0013 843.2583 0.0013H114.7483C45.8983 0.0013 -0.0017 45.9013 -0.0017 114.7413V755.8613C-0.0017 819.8213 39.5483 863.7713 100.0983 870.1213V919.4313C100.0983 942.8713 116.2083 958.4913 139.6483 958.4913ZM78.6183 118.1613C78.6183 94.7313 93.2583 78.6113 115.7183 78.6113H842.7783C864.7483 78.6113 879.8783 94.7313 879.8783 118.1613V256.8312H78.6183ZM225.5883 215.3312C251.9483 215.3312 273.9283 193.8513 273.9283 167.4813C273.9283 140.6213 251.9483 119.1413 225.5883 119.1413C198.7283 119.1413 176.7583 140.6213 176.7583 167.4813C176.7583 193.8513 198.7283 215.3312 225.5883 215.3312ZM394.5283 215.3312C420.8983 215.3312 442.8683 193.8513 442.8683 167.4813C442.8683 140.6213 420.8983 119.1413 394.5283 119.1413C367.6783 119.1413 345.6983 140.6213 345.6983 167.4813C345.6983 193.8513 367.6783 215.3312 394.5283 215.3312ZM563.4783 215.3312C589.8483 215.3312 611.8183 193.8513 611.8183 167.4813C611.8183 140.6213 589.8483 119.1413 563.4783 119.1413C536.6183 119.1413 514.6483 140.6213 514.6483 167.4813C514.6483 193.8513 536.6183 215.3312 563.4783 215.3312ZM732.4183 215.3312C759.2783 215.3312 781.2483 193.8513 781.2483 167.4813C781.2483 140.6213 759.2783 119.1413 732.4183 119.1413C706.0583 119.1413 684.0783 140.6213 684.0783 167.4813C684.0783 193.8513 706.0583 215.3312 732.4183 215.3312ZM115.7183 791.9913C93.2583 791.9913 78.6183 776.3713 78.6183 752.4413V320.8013H879.8783V752.4413C879.8783 776.3713 864.7483 791.9913 842.7783 791.9913ZM190.9183 734.3713H767.5783C795.4083 734.3713 813.4783 716.3113 813.4783 688.9613V424.3213C813.4783 396.4813 795.4083 378.4213 767.5783 378.4213H190.9183C163.0883 378.4213 145.5083 396.4813 145.5083 424.3213V688.9613C145.5083 716.3113 163.0883 734.3713 190.9183 734.3713ZM212.3983 680.1713C205.0783 680.1713 199.7083 674.8013 199.7083 667.4813V445.8013C199.7083 438.4813 205.0783 432.6213 212.3983 432.6213H746.5783C753.4183 432.6213 759.2783 438.4813 759.2783 445.8013V667.4813C759.2783 674.8013 753.4183 680.1713 746.5783 680.1713Z"/>
</svg>