<?xml version="1.0" encoding="UTF-8" standalone="no"?>
<svg xmlns="http://www.w3.org/2000/svg"
     width="1011.71875" height="1060.546875"
     viewBox="0 0 1011.71875 1060.546875"
     fill="currentColor">
  <path d="M288.0883 1060.5497C354.9783 1060.5497 409.1783 1015.6297 423.3383 953.1297H757.8083C771.9683 1009.2797 822.7583 1050.7797 882.8083 1050.7797C954.0983 1050.7797 1011.7183 993.1597 1011.7183 921.3897C1011.7183 850.0997 954.0983 792.4797 882.8083 792.4797C861.8183 792.4797 841.7983 797.3597 824.2183 806.6397L717.7783 700.1997H744.6283C962.8883 700.1997 1006.8383 530.7597 1006.8383 391.5997C1006.8383 170.8997 851.5583 -0.0003 620.6083 -0.0003C583.4983 -0.0003 557.6183 26.8597 557.6183 65.9197V356.9297H374.5083L181.6383 164.0597C170.4083 152.8297 158.1983 147.9497 142.5783 147.9497H36.6183C16.5983 147.9497 -0.0017 164.5497 -0.0017 184.5697C-0.0017 204.5897 16.5983 221.6797 36.6183 221.6797H135.7383L270.9983 356.9297H159.6683C140.6283 356.9297 125.4883 372.0697 125.4883 391.1097C125.4883 410.1597 140.6283 425.7797 159.6683 425.7797H171.3883L192.3783 537.5997C210.9383 638.6697 295.4083 700.1997 433.1083 700.1997H453.1283L354.4883 798.8297C334.9583 788.5697 312.4983 782.7197 288.0883 782.7197C209.9583 782.7197 149.4183 843.7497 149.4183 921.3897C149.4183 999.5097 209.9583 1060.5497 288.0883 1060.5497ZM626.4683 93.2597C626.4683 80.0797 635.7383 71.2897 648.9283 71.2897C755.8583 71.2897 919.4383 151.8597 936.0383 356.9297H626.4683ZM433.1083 631.3497C332.0283 631.3497 273.4383 590.8197 260.7383 524.8997L240.7183 425.7797H936.5283C930.1783 523.4397 892.0883 631.3497 744.6283 631.3497ZM423.3383 889.1597C419.9183 874.9997 414.5483 861.8197 407.7183 850.0997L557.6183 700.1997H613.7683L770.5083 856.9297C765.1383 867.1897 760.7383 877.9297 757.8083 889.1597ZM288.0883 996.0897C246.5783 996.0897 213.3783 962.8897 213.3783 921.3897C213.3783 879.3897 246.5783 846.6797 288.0883 846.6797C330.0783 846.6797 362.7883 879.3897 362.7883 921.3897C362.7883 962.8897 330.0783 996.0897 288.0883 996.0897ZM882.8083 996.0897C841.3083 996.0897 807.6183 962.8897 807.6183 921.3897C807.6183 879.3897 841.3083 846.6797 882.8083 846.6797C924.8083 846.6797 957.5183 879.3897 957.5183 921.3897C957.5183 962.8897 924.8083 996.0897 882.8083 996.0897Z"/>
</svg>