<?xml version="1.0" encoding="UTF-8" standalone="no"?>
<svg xmlns="http://www.w3.org/2000/svg"
     width="1130.37109375" height="946.2890625"
     viewBox="0 0 1130.37109375 946.2890625"
     fill="currentColor">
  <path d="M150.8783 946.2936C50.2883 946.2936 -0.0017 897.4636 -0.0017 797.3636V322.2636C-0.0017 222.1636 50.2883 173.3436 150.8783 173.3436H317.3783V134.7636C317.3783 42.9736 370.6083 0.0036 454.0983 0.0036H675.7783C764.1583 0.0036 812.4983 42.9736 812.4983 134.7636V173.3436H979.4883C1080.5683 173.3436 1130.3683 222.1636 1130.3683 322.2636V797.3636C1130.3683 897.4636 1080.5683 946.2936 979.4883 946.2936H947.7583V173.3436H869.1383V946.2936H260.7383V173.3436H182.1283V946.2936ZM393.0683 129.3936V173.3436H736.8183V129.3936C736.8183 92.2836 715.3283 71.2936 677.2483 71.2936H453.1283C415.0383 71.2936 393.0683 92.2836 393.0683 129.3936Z"/>
</svg>