<?xml version="1.0" encoding="UTF-8" standalone="no"?>
<svg xmlns="http://www.w3.org/2000/svg"
     width="969.7265625" height="896.484375"
     viewBox="0 0 969.7265625 896.484375"
     fill="currentColor">
  <path d="M-0.0017 294.9245C-0.0017 502.9345 174.3183 707.5145 449.7083 883.3045C459.9583 889.6445 474.6083 896.4845 484.8683 896.4845C495.1183 896.4845 509.7683 889.6445 520.5083 883.3045C795.4083 707.5145 969.7283 502.9345 969.7283 294.9245C969.7283 122.0745 851.0783 0.0045 692.8683 0.0045C602.5383 0.0045 529.2983 42.9645 484.8683 108.8845C441.4083 43.4545 367.1883 0.0045 276.8583 0.0045C118.6483 0.0045 -0.0017 122.0745 -0.0017 294.9245ZM78.6183 294.9245C78.6183 165.0345 162.5983 78.6145 275.8783 78.6145C367.6783 78.6145 420.4083 135.7445 451.6583 184.5745C464.8483 204.1045 473.1483 209.4745 484.8683 209.4745C496.5783 209.4745 503.9083 203.6145 518.0683 184.5745C551.7583 136.7145 602.5383 78.6145 693.8483 78.6145C807.1283 78.6145 891.1183 165.0345 891.1183 294.9245C891.1183 476.5645 699.2183 672.3645 495.1183 808.1045C490.2383 811.5245 486.8183 813.9645 484.8683 813.9645C482.9083 813.9645 479.4883 811.5245 475.0983 808.1045C270.5083 672.3645 78.6183 476.5645 78.6183 294.9245Z"/>
</svg>