<?xml version="1.0" encoding="UTF-8" standalone="no"?>
<svg xmlns="http://www.w3.org/2000/svg"
     width="564.453125" height="898.92578125"
     viewBox="0 0 564.453125 898.92578125"
     fill="currentColor">
  <path d="M65.4283 898.9278H520.0183C544.9183 898.9278 563.9683 883.2978 563.9683 857.9078C563.9683 833.0078 544.9183 816.4078 520.0183 816.4078H103.0283V812.0078L367.1883 491.6978C379.8783 476.0778 386.7183 460.4478 386.7183 444.8278C386.7183 428.7078 379.8783 412.5978 366.6983 397.4578L103.5183 86.9178V82.5178H520.0183C545.4083 82.5178 564.4483 65.9178 564.4483 41.0178C564.4483 15.6278 545.4083 -0.0022 520.0183 -0.0022H65.9183C23.9283 -0.0022 0.4883 28.8078 0.4883 61.0378C0.4883 77.6378 6.8383 95.2178 19.5283 109.8678L301.2683 441.8978V447.2678L18.5583 789.0578C6.3483 803.7078 -0.0017 821.2878 -0.0017 837.8878C-0.0017 870.1178 23.4383 898.9278 65.4283 898.9278Z"/>
</svg>