<?xml version="1.0" encoding="UTF-8" standalone="no"?>
<svg xmlns="http://www.w3.org/2000/svg"
     width="996.09375" height="996.09375"
     viewBox="0 0 996.09375 996.09375"
     fill="currentColor">
  <path d="M498.0477 996.0959C770.5077 996.0959 996.0977 770.0159 996.0977 498.0459C996.0977 225.5859 770.0177 -0.0041 497.5577 -0.0041C225.5877 -0.0041 -0.0023 225.5859 -0.0023 498.0459C-0.0023 770.0159 226.0777 996.0959 498.0477 996.0959ZM498.0477 913.0859C267.5777 913.0859 83.4977 728.5159 83.4977 498.0459C83.4977 267.5759 267.0877 83.0059 497.5577 83.0059C728.0277 83.0059 913.0877 267.5759 913.0877 498.0459C913.0877 728.5159 728.5177 913.0859 498.0477 913.0859ZM497.5577 300.2959C512.6977 300.2959 524.8977 286.6259 524.8977 270.5059V207.0359C524.8977 190.4259 512.2077 178.2259 497.5577 178.2259C482.9077 178.2259 470.7077 190.4259 470.7077 207.0359V270.5059C470.7077 287.1059 482.4177 300.2959 497.5577 300.2959ZM625.4877 368.6559C636.2277 378.9059 653.3177 378.9059 665.0377 366.6959L709.4777 321.7759C721.6777 309.5659 722.1677 293.4559 711.9177 282.2259C701.1677 271.4859 683.5977 271.4859 671.8777 283.2059L626.4677 328.6159C614.2577 340.8159 614.2577 357.9059 625.4877 368.6559ZM370.1177 368.6559C381.3477 357.9059 380.3677 340.3359 368.6477 328.6159L323.2377 283.2059C311.0377 270.9959 293.9477 271.9759 283.6877 282.2259C272.9477 292.9659 273.4377 309.5659 285.6477 321.7759L330.5677 366.6959C342.2877 378.4159 359.3777 379.3959 370.1177 368.6559ZM360.3477 541.0159H634.7677C639.6477 526.8559 643.0677 511.2259 643.0677 496.0959C643.0677 416.5059 577.1477 350.0959 497.5577 350.0959C418.4577 350.0959 352.0477 416.5059 352.0477 496.0959C352.0477 511.2259 355.4677 526.8559 360.3477 541.0159ZM317.3877 489.7459C317.3877 474.6059 304.1977 462.4059 287.5977 462.4059H224.6077C208.0077 462.4059 195.3077 475.0959 195.3077 489.7459C195.3077 504.3959 208.0077 516.6059 224.6077 516.6059H287.5977C304.6877 516.6059 317.3877 504.8859 317.3877 489.7459ZM677.7377 489.7459C677.7377 504.8859 690.9177 516.6059 707.5177 516.6059H770.9977C787.5977 516.6059 799.8077 504.3959 799.8077 489.7459C799.8077 475.0959 787.5977 462.4059 770.9977 462.4059H707.5177C690.9177 462.4059 677.7377 474.6059 677.7377 489.7459ZM258.2977 610.8359H782.7177C792.4777 610.8359 799.8077 603.5159 799.8077 593.7459C799.8077 583.4959 792.4777 576.1759 782.7177 576.1759H258.2977C248.5377 576.1759 241.2077 583.9859 241.2077 593.7459C241.2077 603.5159 248.5377 610.8359 258.2977 610.8359ZM212.8877 677.7359H736.8177C746.5777 677.7359 753.9077 670.4059 753.9077 660.6459C753.9077 650.3859 746.5777 643.0659 736.8177 643.0659H212.8877C203.1277 643.0659 195.3077 650.8759 195.3077 660.6459C195.3077 670.4059 203.1277 677.7359 212.8877 677.7359ZM258.2977 744.6259H782.7177C792.4777 744.6259 799.8077 737.3059 799.8077 727.5359C799.8077 717.2859 792.4777 709.9559 782.7177 709.9559H258.2977C248.5377 709.9559 241.2077 717.7759 241.2077 727.5359C241.2077 737.3059 248.5377 744.6259 258.2977 744.6259Z"/>
</svg>