<?xml version="1.0" encoding="UTF-8" standalone="no"?>
<svg xmlns="http://www.w3.org/2000/svg"
     width="996.09375" height="996.09375"
     viewBox="0 0 996.09375 996.09375"
     fill="currentColor">
  <path d="M498.0477 996.0977C770.5077 996.0977 996.0977 770.5077 996.0977 498.0477C996.0977 226.0777 770.0177 -0.0023 497.5577 -0.0023C225.5877 -0.0023 -0.0023 226.0777 -0.0023 498.0477C-0.0023 770.5077 226.0777 996.0977 498.0477 996.0977ZM497.5577 295.4077C481.9377 295.4077 469.7277 281.7377 469.7277 264.1577V199.7077C469.7277 182.1277 482.4177 169.4377 497.5577 169.4377C512.6977 169.4377 525.8777 182.1277 525.8777 199.7077V264.1577C525.8777 281.2477 513.1877 295.4077 497.5577 295.4077ZM629.3977 365.7177C617.6777 354.4877 617.6777 336.9177 630.3677 324.7077L677.2477 278.3177C688.9677 265.6277 707.5177 265.6277 718.7477 276.8577C729.0077 288.0877 728.5177 304.6877 715.8177 317.8677L670.4077 364.2577C658.2077 376.4677 640.6277 376.9577 629.3977 365.7177ZM366.2077 365.7177C354.9777 377.4377 337.3977 375.9777 325.1977 364.2577L279.2977 317.8677C266.5977 304.6877 266.1177 287.5977 276.8577 276.8577C287.5977 266.1177 305.1777 265.1377 317.8677 278.3177L364.7477 324.7077C376.9577 336.4277 377.9277 354.4877 366.2077 365.7177ZM355.9577 542.9677C351.0777 528.8077 347.6577 513.1877 347.6577 497.0677C347.6577 415.0377 416.0177 346.6777 497.5577 346.6777C579.5877 346.6777 647.4577 415.0377 647.4577 497.0677C647.4577 513.1877 644.0477 528.8077 639.1577 542.9677ZM312.4977 490.7177C312.4977 506.8377 298.8277 519.0477 280.7577 519.0477H216.3077C199.2177 519.0477 186.0377 505.8577 186.0377 490.7177C186.0377 475.5877 199.2177 462.8877 216.3077 462.8877H280.7577C298.3377 462.8877 312.4977 474.6077 312.4977 490.7177ZM683.1077 490.7177C683.1077 474.6077 696.7777 462.8877 714.3577 462.8877H779.2977C796.3877 462.8877 809.0777 475.5877 809.0777 490.7177C809.0777 506.3477 796.3877 519.0477 779.2977 519.0477H714.3577C696.7777 519.0477 683.1077 506.3477 683.1077 490.7177ZM250.9777 615.2377C240.7277 615.2377 233.3977 607.9077 233.3977 597.6577C233.3977 587.3977 240.7277 580.0777 250.9777 580.0777H791.5077C801.7577 580.0777 809.0777 587.3977 809.0777 597.6577C809.0777 607.9077 801.7577 615.2377 791.5077 615.2377ZM204.0977 684.5677C193.8477 684.5677 186.0377 676.7577 186.0377 666.5077C186.0377 656.7377 193.8477 648.9277 204.0977 648.9277H744.1377C754.3977 648.9277 761.7177 656.7377 761.7177 666.5077C761.7177 676.7577 754.3977 684.5677 744.1377 684.5677ZM250.9777 753.4177C240.7277 753.4177 233.3977 746.0977 233.3977 735.8377C233.3977 725.5877 240.7277 718.2577 250.9777 718.2577H791.5077C801.7577 718.2577 809.0777 725.5877 809.0777 735.8377C809.0777 746.0977 801.7577 753.4177 791.5077 753.4177Z"/>
</svg>