<?xml version="1.0" encoding="UTF-8" standalone="no"?>
<svg xmlns="http://www.w3.org/2000/svg"
     width="996.09375" height="996.09375"
     viewBox="0 0 996.09375 996.09375"
     fill="currentColor">
  <path d="M498.0477 996.0959C770.5077 996.0959 996.0977 770.0159 996.0977 498.0459C996.0977 225.5859 770.0177 -0.0041 497.5577 -0.0041C225.5877 -0.0041 -0.0023 225.5859 -0.0023 498.0459C-0.0023 770.0159 226.0777 996.0959 498.0477 996.0959ZM498.0477 913.0859C267.5777 913.0859 83.4977 728.5159 83.4977 498.0459C83.4977 267.5759 267.0877 83.0059 497.5577 83.0059C728.0277 83.0059 913.0877 267.5759 913.0877 498.0459C913.0877 728.5159 728.5177 913.0859 498.0477 913.0859ZM497.5577 298.8259C512.6977 298.8259 524.8977 285.1559 524.8977 269.0459V206.0559C524.8977 188.9659 512.2077 176.7559 497.5577 176.7559C482.9077 176.7559 470.7077 188.9659 470.7077 206.0559V269.0459C470.7077 285.6459 482.4177 298.8259 497.5577 298.8259ZM625.4877 367.1859C636.2277 377.9259 653.3177 377.4459 665.0377 365.7259L709.4777 320.7959C721.6777 308.1059 722.1677 291.9959 711.9177 280.7659C701.1677 270.0159 683.5977 270.0159 671.8777 282.2259L626.4677 327.6359C614.2577 339.3559 614.2577 356.4459 625.4877 367.1859ZM370.1177 367.1859C381.3477 356.4459 380.3677 338.8659 368.6477 327.6359L323.2377 282.2259C311.0377 269.5359 293.9477 270.5059 283.6877 280.7659C272.9477 291.5059 273.4377 308.1059 285.6477 320.7959L330.5677 365.7259C342.2877 376.9559 359.3777 378.4159 370.1177 367.1859ZM360.3477 539.5459H634.7677C639.6477 525.3859 643.0677 509.7659 643.0677 494.6259C643.0677 415.0359 577.1477 348.6359 497.5577 348.6359C418.4577 348.6359 352.0477 415.0359 352.0477 494.6259C352.0477 509.7659 355.4677 525.3859 360.3477 539.5459ZM317.3877 488.2859C317.3877 473.1459 304.1977 461.4259 287.5977 461.4259H224.6077C208.0077 461.4259 195.3077 473.6359 195.3077 488.2859C195.3077 502.9259 208.0077 515.6259 224.6077 515.6259H287.5977C304.6877 515.6259 317.3877 503.9059 317.3877 488.2859ZM677.7377 488.2859C677.7377 503.4159 690.9177 515.6259 707.5177 515.6259H770.9977C787.5977 515.6259 799.8077 503.4159 799.8077 488.2859C799.8077 473.6359 787.5977 461.4259 770.9977 461.4259H707.5177C690.9177 461.4259 677.7377 473.1459 677.7377 488.2859ZM224.1177 628.4159H771.4877C786.1377 628.4159 799.8077 616.6959 799.8077 601.5659C799.8077 585.9359 786.6177 575.1959 771.4877 575.1959H224.1177C208.9877 575.1959 195.3077 586.4259 195.3077 601.5659C195.3077 616.6959 209.4777 628.4159 224.1177 628.4159ZM258.2977 715.3359C271.4877 715.3359 281.7377 704.5859 281.7377 691.8959C281.7377 679.1959 271.4877 668.4559 258.2977 668.4559C245.6077 668.4559 235.3477 679.1959 235.3477 691.8959C235.3477 704.5859 245.6077 715.3359 258.2977 715.3359ZM378.4177 715.3359C391.1177 715.3359 401.8577 704.5859 401.8577 691.8959C401.8577 679.1959 391.1177 668.4559 378.4177 668.4559C365.7277 668.4559 354.9777 679.1959 354.9777 691.8959C354.9777 704.5859 365.7277 715.3359 378.4177 715.3359ZM498.0477 715.3359C511.2277 715.3359 521.4877 704.5859 521.4877 691.8959C521.4877 679.1959 511.2277 668.4559 498.0477 668.4559C485.3477 668.4559 475.0977 679.1959 475.0977 691.8959C475.0977 704.5859 485.3477 715.3359 498.0477 715.3359ZM618.1677 715.3359C630.8577 715.3359 641.1177 704.5859 641.1177 691.8959C641.1177 679.1959 630.8577 668.4559 618.1677 668.4559C605.4677 668.4559 594.7277 679.1959 594.7277 691.8959C594.7277 704.5859 605.4677 715.3359 618.1677 715.3359ZM737.7977 715.3359C750.4877 715.3359 761.2277 704.5859 761.2277 691.8959C761.2277 679.1959 750.4877 668.4559 737.7977 668.4559C725.0977 668.4559 714.3577 679.1959 714.3577 691.8959C714.3577 704.5859 725.0977 715.3359 737.7977 715.3359ZM317.8677 780.7659C331.0577 780.7659 341.3077 770.5059 341.3077 757.8159C341.3077 745.1159 331.0577 734.3759 317.8677 734.3759C305.1777 734.3759 294.9177 745.1159 294.9177 757.8159C294.9177 770.5059 305.1777 780.7659 317.8677 780.7659ZM437.9877 780.7659C450.6877 780.7659 461.4277 770.5059 461.4277 757.8159C461.4277 745.1159 450.6877 734.3759 437.9877 734.3759C425.2977 734.3759 414.5477 745.1159 414.5477 757.8159C414.5477 770.5059 425.2977 780.7659 437.9877 780.7659ZM557.6177 780.7659C570.7977 780.7659 581.0577 770.5059 581.0577 757.8159C581.0577 745.1159 570.7977 734.3759 557.6177 734.3759C544.9177 734.3759 534.6677 745.1159 534.6677 757.8159C534.6677 770.5059 544.9177 780.7659 557.6177 780.7659ZM677.7377 780.7659C690.4277 780.7659 700.6877 770.5059 700.6877 757.8159C700.6877 745.1159 690.4277 734.3759 677.7377 734.3759C664.5477 734.3759 654.2977 745.1159 654.2977 757.8159C654.2977 770.5059 664.5477 780.7659 677.7377 780.7659Z"/>
</svg>