<?xml version="1.0" encoding="UTF-8" standalone="no"?>
<svg xmlns="http://www.w3.org/2000/svg"
     width="1126.953125" height="1173.828125"
     viewBox="0 0 1126.953125 1173.828125"
     fill="currentColor">
  <path d="M563.4783 207.5214C585.4483 207.0314 603.0283 188.4814 603.0283 163.5714V43.4614C603.0283 18.0614 585.4483 0.0014 563.4783 0.0014C541.5083 0.0014 523.9283 18.0614 523.9283 43.4614V163.5714C523.9283 188.4814 541.5083 208.0114 563.4783 207.5214ZM815.4283 311.5214C830.5683 326.6614 856.4483 326.6614 874.5083 308.5914L959.4683 223.6314C977.5383 205.5614 977.0483 180.6614 961.4283 165.0414C946.7783 149.4114 921.3883 149.4114 902.8283 167.4814L817.8683 252.4414C800.2883 270.5114 799.8083 296.3914 815.4283 311.5214ZM311.5283 311.5214C326.6583 295.9014 326.6583 270.5114 308.5983 252.4414L223.6283 167.4814C205.5683 149.4114 180.6683 149.9014 165.0383 165.0414C149.4183 180.1714 149.4183 205.5614 167.4783 223.6314L252.4383 308.5914C270.5083 326.6614 296.3883 327.1514 311.5283 311.5214ZM828.1283 562.5014C828.1283 418.4614 708.0083 297.8514 563.4783 297.8514C418.9483 297.8514 298.8283 418.4614 298.8283 562.5014C298.8283 597.6514 306.6383 631.3514 319.3383 661.1314H807.1283C820.3083 631.3514 828.1283 597.6514 828.1283 562.5014ZM43.4583 590.3314H163.5783C188.9683 590.3314 208.0083 572.7514 207.5183 550.7814C207.0283 529.3014 188.9683 511.2314 163.5783 511.2314H43.4583C18.0683 511.2314 -0.0017 528.8114 -0.0017 550.7814C-0.0017 572.7514 18.0683 590.3314 43.4583 590.3314ZM963.3783 590.3314H1083.4983C1108.8883 590.8214 1126.9483 572.7514 1126.9483 550.7814C1126.9483 529.3014 1108.8883 511.2314 1083.4983 511.2314H963.3783C937.9883 511.2314 918.9483 528.8114 919.4383 550.7814C919.9183 572.7514 937.9883 590.3314 963.3783 590.3314ZM66.4083 779.7814H1058.1083C1075.6883 779.7814 1088.8683 766.6014 1088.8683 749.0214C1088.8683 731.4414 1075.6883 718.2614 1058.1083 718.2614H66.4083C49.3183 718.2614 35.6483 731.4414 35.6483 749.0214C35.6483 766.6014 49.3183 779.7814 66.4083 779.7814ZM110.3483 937.5014C123.5383 937.5014 134.7683 926.2714 134.7683 912.6014C134.7683 898.9214 123.5383 887.6914 110.3483 887.6914C96.1883 887.6914 85.4483 898.9214 85.4483 912.6014C85.4483 926.2714 96.1883 937.5014 110.3483 937.5014ZM316.4083 937.5014C330.0783 937.5014 341.3083 926.2714 341.3083 912.6014C341.3083 898.9214 330.0783 887.6914 316.4083 887.6914C302.7383 887.6914 291.5083 898.9214 291.5083 912.6014C291.5083 926.2714 302.7383 937.5014 316.4083 937.5014ZM522.9483 937.5014C536.1283 937.5014 547.3683 926.2714 547.3683 912.6014C547.3683 898.9214 536.1283 887.6914 522.9483 887.6914C508.7883 887.6914 498.0483 898.9214 498.0483 912.6014C498.0483 926.2714 508.7883 937.5014 522.9483 937.5014ZM729.0083 937.5014C742.6783 937.5014 753.9083 926.2714 753.9083 912.6014C753.9083 898.9214 742.6783 887.6914 729.0083 887.6914C715.3283 887.6914 704.0983 898.9214 704.0983 912.6014C704.0983 926.2714 715.3283 937.5014 729.0083 937.5014ZM935.5483 937.5014C948.7283 937.5014 959.9583 926.2714 959.9583 912.6014C959.9583 898.9214 948.7283 887.6914 935.5483 887.6914C921.3883 887.6914 910.6483 898.9214 910.6483 912.6014C910.6483 926.2714 921.3883 937.5014 935.5483 937.5014ZM47.8483 1056.1514C61.5283 1056.1514 72.7583 1044.9214 72.7583 1030.7614C72.7583 1017.5814 61.5283 1006.3514 47.8483 1006.3514C34.1783 1006.3514 22.9483 1017.5814 22.9483 1030.7614C22.9483 1044.9214 34.1783 1056.1514 47.8483 1056.1514ZM254.3983 1056.1514C267.5783 1056.1514 278.8083 1044.9214 278.8083 1030.7614C278.8083 1017.5814 267.5783 1006.3514 254.3983 1006.3514C240.2383 1006.3514 229.0083 1017.5814 229.0083 1030.7614C229.0083 1044.9214 240.2383 1056.1514 254.3983 1056.1514ZM460.4483 1056.1514C474.1183 1056.1514 485.3483 1044.9214 485.3483 1030.7614C485.3483 1017.5814 474.1183 1006.3514 460.4483 1006.3514C446.7783 1006.3514 435.5483 1017.5814 435.5483 1030.7614C435.5483 1044.9214 446.7783 1056.1514 460.4483 1056.1514ZM666.9883 1056.1514C680.1783 1056.1514 691.4083 1044.9214 691.4083 1030.7614C691.4083 1017.5814 680.1783 1006.3514 666.9883 1006.3514C652.8283 1006.3514 641.5983 1017.5814 641.5983 1030.7614C641.5983 1044.9214 652.8283 1056.1514 666.9883 1056.1514ZM873.0483 1056.1514C886.7183 1056.1514 897.9483 1044.9214 897.9483 1030.7614C897.9483 1017.5814 886.7183 1006.3514 873.0483 1006.3514C859.3783 1006.3514 848.1483 1017.5814 848.1483 1030.7614C848.1483 1044.9214 859.3783 1056.1514 873.0483 1056.1514ZM1079.5883 1056.1514C1092.7783 1056.1514 1104.0083 1044.9214 1104.0083 1030.7614C1104.0083 1017.5814 1092.7783 1006.3514 1079.5883 1006.3514C1065.4283 1006.3514 1054.1983 1017.5814 1054.1983 1030.7614C1054.1983 1044.9214 1065.4283 1056.1514 1079.5883 1056.1514ZM191.8983 1173.8314C205.5683 1173.8314 216.3083 1162.6014 216.3083 1148.4414C216.3083 1135.2514 205.5683 1124.0214 191.8983 1124.0214C177.7383 1124.0214 166.9883 1135.2514 166.9883 1148.4414C166.9883 1162.6014 177.7383 1173.8314 191.8983 1173.8314ZM398.4383 1173.8314C411.6183 1173.8314 422.8483 1162.6014 422.8483 1148.4414C422.8483 1135.2514 411.6183 1124.0214 398.4383 1124.0214C384.2783 1124.0214 373.0483 1135.2514 373.0483 1148.4414C373.0483 1162.6014 384.2783 1173.8314 398.4383 1173.8314ZM604.4883 1173.8314C618.1683 1173.8314 628.9083 1162.6014 628.9083 1148.4414C628.9083 1135.2514 618.1683 1124.0214 604.4883 1124.0214C590.3283 1124.0214 579.5883 1135.2514 579.5883 1148.4414C579.5883 1162.6014 590.3283 1173.8314 604.4883 1173.8314ZM811.0383 1173.8314C824.2183 1173.8314 835.4483 1162.6014 835.4483 1148.4414C835.4483 1135.2514 824.2183 1124.0214 811.0383 1124.0214C796.8783 1124.0214 785.6483 1135.2514 785.6483 1148.4414C785.6483 1162.6014 796.8783 1173.8314 811.0383 1173.8314ZM1017.0883 1173.8314C1030.7583 1173.8314 1041.5083 1162.6014 1041.5083 1148.4414C1041.5083 1135.2514 1030.7583 1124.0214 1017.0883 1124.0214C1002.9283 1124.0214 992.1883 1135.2514 992.1883 1148.4414C992.1883 1162.6014 1002.9283 1173.8314 1017.0883 1173.8314Z"/>
</svg>