<?xml version="1.0" encoding="UTF-8" standalone="no"?>
<svg xmlns="http://www.w3.org/2000/svg"
     width="979.4921875" height="979.4921875"
     viewBox="0 0 979.4921875 979.4921875"
     fill="currentColor">
  <path d="M489.7477 114.2552C520.9977 114.2552 546.8777 88.3752 546.8777 57.1252C546.8777 25.8752 520.9977 -0.0048 489.7477 -0.0048C458.4977 -0.0048 432.6177 25.8752 432.6177 57.1252C432.6177 88.3752 458.4977 114.2552 489.7477 114.2552ZM183.5977 240.7252C215.3277 240.7252 240.7277 214.8452 240.7277 183.5952C240.7277 152.3452 215.3277 126.4652 183.5977 126.4652C152.3477 126.4652 126.4677 152.3452 126.4677 183.5952C126.4677 214.8452 152.3477 240.7252 183.5977 240.7252ZM795.8977 240.7252C827.1477 240.7252 853.0277 214.8452 853.0277 183.5952C853.0277 152.3452 827.1477 126.4652 795.8977 126.4652C764.6477 126.4652 738.7677 152.3452 738.7677 183.5952C738.7677 214.8452 764.6477 240.7252 795.8977 240.7252ZM489.7477 738.2852C625.4877 738.2852 738.7677 625.4852 738.7677 489.7452C738.7677 353.5152 625.4877 240.7252 489.7477 240.7252C354.0077 240.7252 241.2077 353.5152 241.2077 489.7452C241.2077 625.4852 354.0077 738.2852 489.7477 738.2852ZM57.1277 546.8752C88.3777 546.8752 114.2577 520.9952 114.2577 489.7452C114.2577 458.0052 88.3777 432.6152 57.1277 432.6152C25.8777 432.6152 -0.0023 458.0052 -0.0023 489.7452C-0.0023 520.9952 25.8777 546.8752 57.1277 546.8752ZM922.3677 546.8752C953.6177 546.8752 979.4877 520.9952 979.4877 489.7452C979.4877 458.0052 953.6177 432.6152 922.3677 432.6152C891.1177 432.6152 865.2377 458.0052 865.2377 489.7452C865.2377 520.9952 891.1177 546.8752 922.3677 546.8752ZM795.8977 853.0252C827.1477 853.0252 853.0277 827.1452 853.0277 795.8952C853.0277 764.1552 827.1477 738.7652 795.8977 738.7652C764.6477 738.7652 738.7677 764.1552 738.7677 795.8952C738.7677 827.1452 764.6477 853.0252 795.8977 853.0252ZM183.5977 853.0252C215.3277 853.0252 240.7277 827.1452 240.7277 795.8952C240.7277 764.1552 215.3277 738.7652 183.5977 738.7652C152.3477 738.7652 126.4677 764.1552 126.4677 795.8952C126.4677 827.1452 152.3477 853.0252 183.5977 853.0252ZM489.7477 979.4952C520.9977 979.4952 546.8777 953.6152 546.8777 922.3652C546.8777 890.6252 520.9977 865.2352 489.7477 865.2352C458.4977 865.2352 432.6177 890.6252 432.6177 922.3652C432.6177 953.6152 458.4977 979.4952 489.7477 979.4952Z"/>
</svg>