<?xml version="1.0" encoding="UTF-8" standalone="no"?>
<svg xmlns="http://www.w3.org/2000/svg"
     width="996.09375" height="996.09375"
     viewBox="0 0 996.09375 996.09375"
     fill="currentColor">
  <path d="M498.0477 996.0959C770.5077 996.0959 996.0977 770.0159 996.0977 498.0459C996.0977 225.5859 770.0177 -0.0041 497.5577 -0.0041C225.5877 -0.0041 -0.0023 225.5859 -0.0023 498.0459C-0.0023 770.0159 226.0777 996.0959 498.0477 996.0959ZM498.0477 913.0859C267.5777 913.0859 83.4977 728.5159 83.4977 498.0459C83.4977 267.5759 267.0877 83.0059 497.5577 83.0059C728.0277 83.0059 913.0877 267.5759 913.0877 498.0459C913.0877 728.5159 728.5177 913.0859 498.0477 913.0859ZM524.8977 326.6559V263.6759C524.8977 246.5859 512.2077 234.3759 497.5577 234.3759C482.9077 234.3759 470.7077 246.5859 470.7077 263.6759V326.6559C470.7077 343.2659 482.4177 356.4459 497.5577 356.4459C512.6977 356.4459 524.8977 342.7759 524.8977 326.6559ZM625.4877 424.8059C636.2277 435.5459 653.3177 435.5459 665.0377 423.3359L709.4777 378.4159C721.6777 366.2059 722.1677 349.6059 711.9177 338.8659C701.1677 327.6359 683.5977 327.6359 671.8777 339.8459L626.4677 385.2559C614.2577 396.9759 614.2577 414.0659 625.4877 424.8059ZM330.5677 423.3359C341.7977 435.0559 359.3777 436.0359 370.1177 424.8059C381.3477 414.0659 380.3677 396.4859 368.6477 385.2559L323.2377 339.8459C311.0377 327.1459 294.4377 328.6159 283.6877 338.8659C273.4377 349.6059 273.4377 366.2059 285.6477 378.4159ZM643.0677 552.2459C643.0677 472.6559 577.1477 406.2459 497.5577 406.2459C418.4577 406.2459 352.0477 472.6559 352.0477 552.2459C352.0477 567.8759 355.4677 583.0059 360.3477 597.1659H634.7677C639.6477 583.0059 643.0677 567.8759 643.0677 552.2459ZM224.6077 573.2459H287.5977C304.6877 573.2459 317.3877 561.5259 317.3877 545.8959C317.3877 530.7659 304.1977 519.0459 287.5977 519.0459H224.6077C208.0077 519.0459 195.3077 531.2459 195.3077 545.8959C195.3077 560.5459 208.0077 573.2459 224.6077 573.2459ZM707.5177 573.2459H770.9977C787.5977 573.2459 799.8077 561.0359 799.8077 545.8959C799.8077 531.2459 787.5977 519.0459 770.9977 519.0459H707.5177C690.9177 519.0459 677.7377 530.7659 677.7377 545.8959C677.7377 561.0359 690.9177 573.2459 707.5177 573.2459ZM224.1177 686.0359H771.4877C786.1377 686.0359 799.8077 674.3159 799.8077 659.1759C799.8077 644.0459 786.6177 632.8159 771.4877 632.8159H224.1177C208.9877 632.8159 195.3077 644.0459 195.3077 659.1759C195.3077 674.3159 209.4777 686.0359 224.1177 686.0359Z"/>
</svg>