<?xml version="1.0" encoding="UTF-8" standalone="no"?>
<svg xmlns="http://www.w3.org/2000/svg"
     width="996.09375" height="996.09375"
     viewBox="0 0 996.09375 996.09375"
     fill="currentColor">
  <path d="M498.0477 996.0977C770.5077 996.0977 996.0977 770.5077 996.0977 498.0477C996.0977 226.0777 770.0177 -0.0023 497.5577 -0.0023C225.5877 -0.0023 -0.0023 226.0777 -0.0023 498.0477C-0.0023 770.5077 226.0777 996.0977 498.0477 996.0977ZM525.8777 322.2677C525.8777 339.3577 513.1877 353.5177 497.5577 353.5177C481.9377 353.5177 469.7277 339.3577 469.7277 322.2677V257.8077C469.7277 239.7477 482.4177 227.5377 497.5577 227.5377C512.6977 227.5377 525.8777 239.7477 525.8777 257.8077ZM629.3977 424.3177C617.6777 412.5977 617.6777 395.5077 630.3677 382.8077L677.2477 335.9377C688.9677 323.2377 707.5177 323.7277 718.7477 334.9577C729.0077 346.6777 728.5177 363.2777 715.8177 375.9777L670.4077 421.8777C658.2077 434.5677 640.6277 434.5677 629.3977 424.3177ZM325.1977 421.8777L279.2977 375.9777C266.5977 363.2777 266.5977 346.6777 276.8577 334.9577C288.0877 324.7077 305.1777 322.7577 317.8677 335.9377L364.7477 382.8077C376.9577 394.5277 377.9277 412.5977 366.2077 424.3177C354.9777 435.0577 336.9177 434.0777 325.1977 421.8777ZM647.4577 555.1777C647.4577 570.7977 644.0477 586.4277 639.1577 601.5577H355.9577C351.0777 586.4277 347.6577 570.7977 347.6577 555.1777C347.6577 472.6577 416.0177 404.7877 497.5577 404.7877C579.5877 404.7877 647.4577 472.6577 647.4577 555.1777ZM216.3077 576.6577C199.2177 576.6577 186.0377 563.9677 186.0377 548.3377C186.0377 533.2077 199.2177 520.5077 216.3077 520.5077H280.7577C298.3377 520.5077 312.4977 532.7177 312.4977 548.3377C312.4977 564.4577 298.8277 576.6577 280.7577 576.6577ZM714.3577 576.6577C696.7777 576.6577 683.1077 564.4577 683.1077 548.3377C683.1077 532.7177 696.7777 520.5077 714.3577 520.5077H779.2977C796.3877 520.5077 809.0777 533.2077 809.0777 548.3377C809.0777 563.9677 796.3877 576.6577 779.2977 576.6577ZM215.8177 692.8677C200.6877 692.8677 186.0377 681.1477 186.0377 665.0377C186.0377 649.4177 200.1977 637.6977 215.8177 637.6977H779.7877C795.4077 637.6977 809.0777 649.4177 809.0777 665.0377C809.0777 681.1477 794.9177 692.8677 779.7877 692.8677Z"/>
</svg>