<?xml version="1.0" encoding="UTF-8" standalone="no"?>
<svg xmlns="http://www.w3.org/2000/svg"
     width="1126.953125" height="1155.2734375"
     viewBox="0 0 1126.953125 1155.2734375"
     fill="currentColor">
  <path d="M563.4783 207.5214C585.4483 207.0314 603.0283 188.4814 603.0283 163.5714V43.4614C603.0283 18.0614 585.4483 0.0014 563.4783 0.0014C541.5083 0.0014 523.9283 18.0614 523.9283 43.4614V163.5714C523.9283 188.4814 541.5083 208.0114 563.4783 207.5214ZM815.4283 311.5214C830.5683 326.6614 856.4483 326.6614 874.5083 308.5914L959.4683 223.6314C977.5383 205.5614 977.0483 180.6614 961.4283 165.0414C946.7783 149.4114 921.3883 149.4114 902.8283 167.4814L817.8683 252.4414C800.2883 270.5114 799.8083 296.3914 815.4283 311.5214ZM311.5283 311.5214C326.6583 295.9014 326.6583 270.5114 308.5983 252.4414L223.6283 167.4814C205.5683 149.4114 180.6683 149.9014 165.0383 165.0414C149.4183 180.1714 149.4183 205.5614 167.4783 223.6314L252.4383 308.5914C270.5083 326.6614 296.3883 327.1514 311.5283 311.5214ZM828.1283 562.5014C828.1283 418.4614 708.0083 297.8514 563.4783 297.8514C418.9483 297.8514 298.8283 418.4614 298.8283 562.5014C298.8283 597.6514 306.6383 631.3514 319.3383 661.1314H807.1283C820.3083 631.3514 828.1283 597.6514 828.1283 562.5014ZM43.4583 590.3314H163.5783C188.9683 590.3314 208.0083 572.7514 207.5183 550.7814C207.0283 529.3014 188.9683 511.2314 163.5783 511.2314H43.4583C18.0683 511.2314 -0.0017 528.8114 -0.0017 550.7814C-0.0017 572.7514 18.0683 590.3314 43.4583 590.3314ZM963.3783 590.3314H1083.4983C1108.8883 590.8214 1126.9483 572.7514 1126.9483 550.7814C1126.9483 529.3014 1108.8883 511.2314 1083.4983 511.2314H963.3783C937.9883 511.2314 918.9483 528.8114 919.4383 550.7814C919.9183 572.7514 937.9883 590.3314 963.3783 590.3314ZM104.4883 779.7814H1096.1883C1113.2783 779.7814 1126.9483 766.6014 1126.9483 749.0214C1126.9483 731.4414 1113.2783 718.2614 1096.1883 718.2614H104.4883C86.9183 718.2614 73.7283 731.4414 73.7283 749.0214C73.7283 766.6014 86.9183 779.7814 104.4883 779.7814ZM30.7583 967.7714H1022.4583C1039.5483 967.7714 1053.2183 954.1014 1053.2183 936.5214C1053.2183 918.9414 1039.5483 905.7614 1022.4583 905.7614H30.7583C13.6683 905.7614 -0.0017 918.9414 -0.0017 936.5214C-0.0017 954.1014 13.6683 967.7714 30.7583 967.7714ZM104.4883 1155.2714H1096.1883C1113.2783 1155.2714 1126.9483 1142.0914 1126.9483 1124.5114C1126.9483 1106.4414 1113.2783 1093.2614 1096.1883 1093.2614H104.4883C86.9183 1093.2614 73.7283 1106.4414 73.7283 1124.5114C73.7283 1142.0914 86.9183 1155.2714 104.4883 1155.2714Z"/>
</svg>