<?xml version="1.0" encoding="UTF-8" standalone="no"?>
<svg xmlns="http://www.w3.org/2000/svg"
     width="1251.46484375" height="1019.04296875"
     viewBox="0 0 1251.46484375 1019.04296875"
     fill="currentColor">
  <path d="M625.9783 398.4347C647.4583 398.4347 665.5283 379.3947 665.5283 355.4647V172.3647L659.6683 98.6347L695.7983 140.1347L756.8383 202.1447C764.1583 208.9847 773.4383 213.3747 782.7183 213.3747C802.2483 213.3747 816.4083 199.7047 816.4083 180.6647C816.4083 170.4147 812.9883 162.5947 804.6883 154.7847L652.3483 12.6947C642.0883 3.4147 634.7683 0.0047 625.9783 0.0047C616.6983 0.0047 609.3783 3.4147 599.1183 12.6947L446.7783 154.7847C438.4783 162.5947 435.0583 170.4147 435.0583 180.6647C435.0583 199.7047 449.2183 213.3747 468.7483 213.3747C478.0283 213.3747 487.3083 208.9847 494.6283 202.1447L560.5483 135.2547L591.7983 98.6347L585.9383 172.3647V355.4647C585.9383 379.3947 604.0083 398.4347 625.9783 398.4347ZM877.4383 532.7147C893.0683 547.8547 918.9483 547.8547 936.5283 529.7847L1021.4883 444.8247C1040.0383 426.7547 1039.0583 401.8547 1023.9283 386.2347C1008.7883 370.6047 983.3983 370.6047 965.3283 388.6747L880.3683 473.6347C862.3083 491.2147 861.8183 517.5747 877.4383 532.7147ZM314.9383 529.7847C332.5183 547.8547 358.8883 548.3447 374.0283 532.7147C389.1583 517.0947 389.1583 491.2147 371.0983 473.6347L286.1283 388.6747C268.0683 370.6047 243.1683 371.0947 227.5383 386.2347C211.9183 401.3647 211.4283 426.7547 229.9783 444.8247ZM890.1383 783.6947C890.1383 639.6447 770.5083 519.0447 625.9783 519.0447C480.9583 519.0447 361.3283 639.6447 361.3283 783.6947C361.3283 819.3347 368.6483 853.5147 382.3283 883.7847H869.1383C882.8083 853.5147 890.1383 819.3347 890.1383 783.6947ZM105.9583 811.5247H226.0783C251.4683 811.5247 270.5083 793.9447 270.0183 771.9747C269.5283 750.0047 250.9783 732.4247 226.0783 732.4247H105.9583C80.5683 732.4247 62.4983 750.0047 62.4983 771.9747C62.4983 793.9447 80.5683 811.5247 105.9583 811.5247ZM1025.3883 811.5247H1145.5083C1170.8983 811.5247 1188.9683 793.9447 1188.9683 771.9747C1188.9683 750.0047 1170.8983 732.4247 1145.5083 732.4247H1025.3883C1000.4883 732.4247 980.9583 750.0047 981.4483 771.9747C981.9383 793.9447 1000.4883 811.5247 1025.3883 811.5247ZM42.4783 1019.0447H1208.9883C1231.9383 1019.0447 1251.4683 1001.4647 1251.4683 979.9847C1251.4683 958.4947 1231.9383 940.9147 1208.9883 940.9147H42.4783C19.5283 940.9147 -0.0017 958.4947 -0.0017 979.9847C-0.0017 1001.4647 19.5283 1019.0447 42.4783 1019.0447Z"/>
</svg>