<?xml version="1.0" encoding="UTF-8" standalone="no"?>
<svg xmlns="http://www.w3.org/2000/svg"
     width="996.09375" height="996.09375"
     viewBox="0 0 996.09375 996.09375"
     fill="currentColor">
  <path d="M498.0477 996.0959C770.5077 996.0959 996.0977 770.0159 996.0977 498.0459C996.0977 225.5859 770.0177 -0.0041 497.5577 -0.0041C225.5877 -0.0041 -0.0023 225.5859 -0.0023 498.0459C-0.0023 770.0159 226.0777 996.0959 498.0477 996.0959ZM498.0477 913.0859C267.5777 913.0859 83.4977 728.5159 83.4977 498.0459C83.4977 267.5759 267.0877 83.0059 497.5577 83.0059C728.0277 83.0059 913.0877 267.5759 913.0877 498.0459C913.0877 728.5159 728.5177 913.0859 498.0477 913.0859ZM497.5577 396.9759C511.7177 396.9759 522.9477 384.7659 522.9477 370.1159V280.2759L521.4877 262.2059L527.8277 268.5559L557.6177 299.3159C561.5277 303.7059 568.8477 306.6359 574.7077 306.6359C587.3977 306.6359 596.6777 296.8759 596.6777 284.6659C596.6777 278.3159 595.2177 272.9459 588.8677 267.0859L514.6477 197.7559C508.7877 192.3859 503.4177 189.9459 497.5577 189.9459C491.6977 189.9459 486.3277 192.3859 480.4677 197.7559L406.2477 267.0859C400.3877 272.9459 398.4377 278.3159 398.4377 284.6659C398.4377 296.8759 407.7177 306.6359 420.4077 306.6359C426.2677 306.6359 433.1077 303.7059 437.9877 299.3159L471.1877 266.6059L473.6377 263.6759L472.1677 280.2759V370.1159C472.1677 384.7659 483.3977 396.9759 497.5577 396.9759ZM617.1877 460.9359C626.9577 470.7059 642.5777 470.7059 653.8077 459.4759L695.7977 416.9959C706.5477 405.7659 707.0277 390.6259 697.2677 380.3759C687.4977 370.1159 671.3877 370.6059 660.1577 381.3459L618.1677 423.8259C606.9377 435.0559 606.4477 450.6859 617.1877 460.9359ZM341.7977 459.4759C352.5377 470.2159 369.1377 471.1959 378.9077 460.9359C389.1577 450.6859 387.6977 434.5659 377.4377 423.8259L334.9577 381.3459C323.7277 370.1159 307.6177 371.0959 297.8477 380.3759C288.0877 390.6259 288.0877 405.7659 299.3177 416.9959ZM633.2977 579.5859C633.2977 505.3759 571.7777 443.3559 497.5577 443.3559C423.8277 443.3559 361.8177 505.3759 361.8177 579.5859C361.8177 594.2359 364.7477 608.3959 369.6277 622.5559H625.4877C630.3677 608.3959 633.2977 594.2359 633.2977 579.5859ZM242.6777 599.1259H302.2477C317.3877 599.1259 329.5877 588.3759 329.5877 573.7259C329.5877 559.5659 317.3877 548.8259 302.2477 548.8259H242.6777C227.0477 548.8259 215.3277 560.0559 215.3277 573.7259C215.3277 587.4059 227.0477 599.1259 242.6777 599.1259ZM693.3577 599.1259H752.4377C768.5577 599.1259 779.7877 587.8859 779.7877 573.7259C779.7877 560.0559 768.5577 548.8259 752.4377 548.8259H693.3577C678.2277 548.8259 665.5277 559.5659 665.5277 573.7259C665.5277 588.3759 678.2277 599.1259 693.3577 599.1259ZM242.1877 702.1459H752.9277C767.0877 702.1459 779.7877 691.4059 779.7877 677.2459C779.7877 663.0859 767.5777 652.3459 752.9277 652.3459H242.1877C228.0277 652.3459 215.3277 663.0859 215.3277 677.2459C215.3277 691.4059 228.5177 702.1459 242.1877 702.1459Z"/>
</svg>