<?xml version="1.0" encoding="UTF-8" standalone="no"?>
<svg xmlns="http://www.w3.org/2000/svg"
     width="1251.46484375" height="1019.04296875"
     viewBox="0 0 1251.46484375 1019.04296875"
     fill="currentColor">
  <path d="M625.9783 0.0047C604.0083 0.0047 585.9383 19.5347 585.9383 43.4547V226.0747L591.7983 299.8047L560.5483 263.1847L494.6283 196.7747C487.3083 189.4547 478.0283 185.5447 468.7483 185.5447C449.2183 185.5447 435.0583 198.7347 435.0583 218.2647C435.0583 228.5147 438.4783 236.3247 446.7783 243.6547L599.1183 385.7447C609.3783 395.0147 616.6983 398.4347 625.9783 398.4347C634.7683 398.4347 642.0883 395.0147 652.3483 385.7447L804.6883 243.6547C812.9883 236.3247 816.4083 228.5147 816.4083 218.2647C816.4083 198.7347 802.2483 185.5447 782.7183 185.5447C773.4383 185.5447 764.1583 189.4547 756.8383 196.7747L695.7983 258.3047L659.6683 299.8047L665.5283 226.0747V43.4547C665.5283 19.5347 647.4583 0.0047 625.9783 0.0047ZM877.4383 534.1747C893.0683 549.3147 918.9483 549.3147 936.5283 531.2547L1021.4883 446.2847C1040.0383 428.2247 1039.0583 403.3247 1023.9283 387.6947C1008.7883 372.0747 983.3983 372.0747 965.3283 390.1347L880.3683 475.0947C862.3083 492.6747 861.8183 519.0447 877.4383 534.1747ZM374.0283 534.1747C389.1583 518.5547 389.1583 492.6747 371.0983 475.0947L286.1283 390.1347C268.0683 372.0747 243.1683 372.5547 227.5383 387.6947C211.9183 402.8347 211.4283 428.2247 229.9783 446.2847L314.9383 531.2547C332.5183 549.3147 358.8883 549.8047 374.0283 534.1747ZM42.4783 1019.0447H1208.9883C1231.9383 1019.0447 1251.4683 1001.4647 1251.4683 979.9847C1251.4683 958.4947 1231.9383 940.9147 1208.9883 940.9147H841.7983C874.0283 897.4647 892.5783 843.7547 892.5783 786.1347C892.5783 639.6447 771.4883 518.5547 625.9783 518.5547C479.9783 518.5547 358.8883 639.6447 358.8883 786.1347C358.8883 843.7547 377.4383 897.4647 409.6683 940.9147H42.4783C19.5283 940.9147 -0.0017 958.4947 -0.0017 979.9847C-0.0017 1001.4647 19.5283 1019.0447 42.4783 1019.0447ZM437.0083 786.1347C437.0083 682.6147 522.4583 597.1647 625.9783 597.1647C729.0083 597.1647 814.4483 682.6147 814.4483 786.1347C814.4483 850.5847 780.7583 907.7147 730.9583 940.9147H520.5083C470.6983 907.7147 437.0083 850.5847 437.0083 786.1347ZM105.9583 812.9847H226.0783C251.4683 812.9847 270.5083 795.4147 270.0183 773.4347C269.5283 751.4647 250.9783 733.8847 226.0783 733.8847H105.9583C80.5683 733.8847 62.4983 751.4647 62.4983 773.4347C62.4983 795.4147 80.5683 812.9847 105.9583 812.9847ZM1025.3883 812.9847H1145.5083C1170.8983 812.9847 1188.9683 795.4147 1188.9683 773.4347C1188.9683 751.4647 1170.8983 733.8847 1145.5083 733.8847H1025.3883C1000.4883 733.8847 980.9583 751.4647 981.4483 773.4347C981.9383 795.4147 1000.4883 812.9847 1025.3883 812.9847Z"/>
</svg>