<?xml version="1.0" encoding="UTF-8" standalone="no"?>
<svg xmlns="http://www.w3.org/2000/svg"
     width="996.09375" height="996.09375"
     viewBox="0 0 996.09375 996.09375"
     fill="currentColor">
  <path d="M498.0477 996.0977C770.5077 996.0977 996.0977 770.5077 996.0977 498.0477C996.0977 226.0777 770.0177 -0.0023 497.5577 -0.0023C225.5877 -0.0023 -0.0023 226.0777 -0.0023 498.0477C-0.0023 770.5077 226.0777 996.0977 498.0477 996.0977ZM498.0477 182.1277C512.6977 182.1277 524.4177 194.8277 524.4177 209.9577V302.2477L522.9477 320.7977L529.2977 314.4577L560.0577 282.7177C563.9677 278.3177 571.2877 275.3877 577.6377 275.3877C590.8177 275.3877 600.0977 285.1577 600.0977 297.8477C600.0977 304.6877 598.6377 310.0577 592.2877 316.4077L515.6277 387.6977C509.7677 393.0677 503.9077 395.5077 498.0477 395.5077C492.1877 395.5077 486.3277 393.0677 480.4677 387.6977L403.8077 316.4077C397.9477 310.0577 395.9977 304.6877 395.9977 297.8477C395.9977 285.1577 405.2777 275.3877 418.4577 275.3877C424.8077 275.3877 431.6377 278.3177 436.5277 283.2077L470.7077 316.4077L473.1477 319.3377L471.6777 302.2477V209.9577C471.6777 194.8277 483.3977 182.1277 498.0477 182.1277ZM621.0977 461.4277C610.3477 451.1677 610.8377 434.5677 622.5577 422.8477L665.5277 379.3977C677.2477 368.1677 693.8477 367.6777 704.0977 378.4177C713.8677 389.1577 713.3777 404.7877 702.1477 416.9877L659.1777 460.4477C647.4577 471.6777 631.3477 471.6777 621.0977 461.4277ZM337.3977 460.4477L293.9477 416.9877C282.2277 404.7877 282.2277 389.1577 291.9877 378.4177C302.2477 368.6477 318.8477 367.6777 330.5677 379.3977L374.0277 422.8477C384.7677 434.0777 386.2277 451.1677 375.9777 461.4277C365.7277 472.1677 348.6377 471.1877 337.3977 460.4477ZM638.1877 583.4977C638.1877 598.6377 635.2577 613.7677 629.8877 627.9277H366.2077C360.8377 613.7677 357.9077 598.6377 357.9077 583.4977C357.9077 507.3277 421.8777 443.8477 498.0477 443.8477C574.7077 443.8477 638.1877 507.3277 638.1877 583.4977ZM235.3477 604.0077C219.2377 604.0077 207.0277 592.2877 207.0277 578.1277C207.0277 563.9677 219.2377 551.7577 235.3477 551.7577H296.3877C312.4977 551.7577 324.7077 563.4777 324.7077 578.1277C324.7077 592.7777 312.4977 604.0077 296.3877 604.0077ZM700.1977 604.0077C684.0777 604.0077 671.3877 592.7777 671.3877 578.1277C671.3877 563.4777 684.0777 551.7577 700.1977 551.7577H760.7377C777.3477 551.7577 789.0577 563.4777 789.0577 578.1277C789.0577 592.2877 777.3477 604.0077 760.7377 604.0077ZM234.8677 710.4477C220.7077 710.4477 207.0277 699.2177 207.0277 684.5677C207.0277 669.9177 220.2177 658.6877 234.8677 658.6877H761.2277C776.3677 658.6877 789.0577 669.9177 789.0577 684.5677C789.0577 699.2177 775.8777 710.4477 761.2277 710.4477Z"/>
</svg>