<?xml version="1.0" encoding="UTF-8" standalone="no"?>
<svg xmlns="http://www.w3.org/2000/svg"
     width="1731.93359375" height="776.3671875"
     viewBox="0 0 1731.93359375 776.3671875"
     fill="currentColor">
  <path d="M654.7883 378.9017C586.4283 378.9017 539.5483 354.9817 497.5583 299.8017L434.0783 216.3117L500.9783 174.3117L427.7383 78.6117C386.7183 24.4117 338.3783 2.9317 264.1583 2.9317H144.0383C122.5583 2.9317 104.9783 20.5117 104.9783 41.9917C104.9783 63.4717 122.5583 81.5417 144.0383 81.5417H264.1583C318.3583 81.5417 338.8683 90.8217 366.2083 126.4617L434.0783 216.3117L431.1483 217.7717L249.0283 240.2317C82.5183 260.7417 -0.0017 336.9117 -0.0017 470.7017V554.6917C-0.0017 634.2817 46.8783 682.1317 124.5083 682.1317H204.0983C202.1483 670.4117 200.6883 658.6917 200.6883 645.9917C200.6883 541.9917 284.6683 458.4917 388.1883 458.4917C492.1883 458.4917 575.6883 541.9917 575.6883 645.9917C575.6883 658.6917 574.7083 670.4117 572.2683 682.1317H1185.5483C1183.5983 670.4117 1182.1283 658.6917 1182.1283 645.9917C1182.1283 542.4817 1266.5983 458.4917 1369.6283 458.4917C1473.6283 458.4917 1557.1283 541.9917 1557.1283 645.9917C1557.1283 658.6917 1556.1483 670.4117 1553.7083 682.1317H1607.9083C1693.3583 682.1317 1731.9383 638.1817 1731.9383 541.5017V333.0117C1731.9383 271.9717 1709.4683 202.1517 1670.8983 146.4817L1648.9283 114.2617C1592.7783 32.7117 1523.9283 0.0017 1410.6483 0.0017H1029.2983C828.1283 0.0017 747.5583 19.5317 627.9283 94.2417L500.9783 174.3117L560.0583 250.9717C590.3283 290.0417 608.8883 300.2917 654.7883 300.2917H768.5583V258.7917C768.5583 224.1217 798.8283 213.8717 824.7083 230.9617L946.7783 309.5717C971.1883 325.1917 970.6983 354.4917 946.7783 369.6317L824.2183 448.7317C798.8283 465.3317 768.5583 455.0817 768.5583 420.9017V378.9017ZM388.1883 776.3717C461.4283 776.3717 519.0383 718.7517 519.0383 645.9917C519.0383 573.2417 460.9383 515.1317 388.1883 515.1317C315.9183 515.1317 257.8083 573.2417 257.8083 645.9917C257.8083 718.2617 315.9183 776.3717 388.1883 776.3717ZM1369.6283 776.3717C1442.3783 776.3717 1500.4883 718.2617 1500.4883 645.9917C1500.4883 573.2417 1442.3783 515.1317 1369.6283 515.1317C1297.8483 515.1317 1239.2583 573.7317 1239.2583 645.9917C1239.2583 718.2617 1297.3683 776.3717 1369.6283 776.3717Z"/>
</svg>