<?xml version="1.0" encoding="UTF-8" standalone="no"?>
<svg xmlns="http://www.w3.org/2000/svg"
     width="1846.19140625" height="937.98828125"
     viewBox="0 0 1846.19140625 937.98828125"
     fill="currentColor">
  <path d="M124.5083 826.663H230.4683C252.9283 892.093 313.9683 937.993 388.1883 937.993C462.3983 937.993 523.9283 892.093 546.3883 826.663H1211.9183C1234.3783 892.093 1295.4083 937.993 1369.6283 937.993C1443.8483 937.993 1505.3683 892.093 1527.8283 826.663H1607.9083C1693.3583 826.663 1731.9383 782.713 1731.9383 686.033V477.543C1731.9383 416.503 1708.9883 346.683 1670.8983 291.013L1648.9283 258.793C1630.8583 232.423 1610.8383 210.933 1588.8683 194.333L1694.8283 85.933C1706.0583 74.703 1719.7283 70.313 1735.3483 70.313H1809.5683C1832.0283 70.313 1846.1883 55.663 1846.1883 34.663C1846.1883 13.673 1832.0283 0.003 1809.5683 0.003H1743.6483C1702.1483 0.003 1666.0183 11.723 1638.1883 40.043L1521.4883 159.183C1489.7483 149.413 1453.1283 144.533 1410.6483 144.533H1029.2983C828.1283 144.533 747.5583 164.063 627.9283 238.773L431.1483 362.303L249.0283 384.763C82.5183 405.273 -0.0017 481.443 -0.0017 615.233V699.223C-0.0017 778.813 46.8783 826.663 124.5083 826.663ZM1369.6283 604.003C1283.6883 604.003 1215.3283 665.523 1204.0983 748.043H553.7083C542.9683 665.523 474.1183 604.003 388.1883 604.003C302.2483 604.003 233.3983 665.523 222.6583 748.043H128.9083C97.1683 748.043 78.6183 726.563 78.6183 689.453V615.233C78.6183 527.833 137.2083 478.513 259.2783 462.893L458.0083 437.993L669.9183 306.153C777.8283 238.773 841.7983 223.143 1029.2983 223.143H1410.6483C1495.1183 223.143 1544.4383 246.093 1583.9883 303.713L1605.9583 335.453C1635.7383 378.413 1653.3183 431.153 1653.3183 477.543V690.913C1653.3183 729.983 1638.1883 748.043 1603.5183 748.043H1535.1583C1524.4183 665.523 1455.5683 604.003 1369.6283 604.003ZM388.1883 859.373C338.3783 859.373 299.8083 820.803 299.8083 770.993C299.8083 721.193 338.3783 682.613 388.1883 682.613C437.9883 682.613 476.5583 721.193 476.5583 770.993C476.5583 820.803 437.9883 859.373 388.1883 859.373ZM1369.6283 859.373C1319.8283 859.373 1281.2483 820.803 1281.2483 770.993C1281.2483 721.193 1319.8283 682.613 1369.6283 682.613C1419.4383 682.613 1458.0083 721.193 1458.0083 770.993C1458.0083 820.803 1419.4383 859.373 1369.6283 859.373Z"/>
</svg>