<?xml version="1.0" encoding="UTF-8" standalone="no"?>
<svg xmlns="http://www.w3.org/2000/svg"
     width="1731.93359375" height="988.28125"
     viewBox="0 0 1731.93359375 988.28125"
     fill="currentColor">
  <path d="M964.8483 453.6158C939.9383 453.6158 922.3683 436.0358 921.3883 410.1558L915.5283 214.8458C945.3083 212.8858 977.5383 212.4058 1014.1583 211.9158L1018.5583 53.7158C1019.5283 21.4858 998.0483 -0.0042 964.8483 -0.0042C931.6383 -0.0042 910.1583 21.4858 911.1283 53.7158L915.5283 214.8458C791.9883 222.6558 722.1683 247.0658 627.9283 306.1558L431.1483 429.6858L249.0283 452.1458C82.5183 472.6558 -0.0017 548.8258 -0.0017 682.6158V766.6058C-0.0017 846.1958 46.8783 894.0458 124.5083 894.0458H204.0983C202.1483 882.3258 200.6883 870.6058 200.6883 857.9058C200.6883 753.9058 284.6683 670.4058 388.1883 670.4058C492.1883 670.4058 575.6883 753.9058 575.6883 857.9058C575.6883 870.6058 574.7083 882.3258 572.2683 894.0458H1185.5483C1183.5983 882.3258 1182.1283 870.6058 1182.1283 857.9058C1182.1283 754.3958 1266.5983 670.4058 1369.6283 670.4058C1473.6283 670.4058 1557.1283 753.9058 1557.1283 857.9058C1557.1283 870.6058 1556.1483 882.3258 1553.7083 894.0458H1607.9083C1693.3583 894.0458 1731.9383 850.0958 1731.9383 753.4158V544.9258C1731.9383 483.8858 1709.4683 414.0658 1670.8983 358.3958L1648.9283 326.1758C1592.7783 244.6258 1523.9283 211.9158 1410.6483 211.9158H1029.2983C1023.9283 211.9158 1019.0383 211.9158 1014.1583 211.9158L1007.8083 410.1558C1006.8383 436.0358 989.7483 453.6158 964.8483 453.6158ZM964.8483 677.7358C928.7083 677.7358 898.4383 647.9458 898.4383 613.2858C898.4383 578.6158 927.7383 549.8058 964.8483 549.8058C1001.4683 549.8058 1031.2483 578.6158 1031.2483 613.2858C1031.2483 647.9458 1000.9783 677.7358 964.8483 677.7358ZM388.1883 988.2858C461.4283 988.2858 519.0383 930.6658 519.0383 857.9058C519.0383 785.1558 460.9383 727.0458 388.1883 727.0458C315.9183 727.0458 257.8083 785.1558 257.8083 857.9058C257.8083 930.1758 315.9183 988.2858 388.1883 988.2858ZM1369.6283 988.2858C1442.3783 988.2858 1500.4883 930.1758 1500.4883 857.9058C1500.4883 785.1558 1442.3783 727.0458 1369.6283 727.0458C1297.8483 727.0458 1239.2583 785.6458 1239.2583 857.9058C1239.2583 930.1758 1297.3683 988.2858 1369.6283 988.2858Z"/>
</svg>