<?xml version="1.0" encoding="UTF-8" standalone="no"?>
<svg xmlns="http://www.w3.org/2000/svg"
     width="1846.19140625" height="920.8984375"
     viewBox="0 0 1846.19140625 920.8984375"
     fill="currentColor">
  <path d="M1670.8983 291.013L1648.9283 258.793C1630.8583 232.423 1610.8383 210.933 1588.8683 194.333L1694.8283 85.933C1706.0583 74.703 1719.7283 70.313 1735.3483 70.313H1809.5683C1832.0283 70.313 1846.1883 55.663 1846.1883 34.663C1846.1883 13.673 1832.0283 0.003 1809.5683 0.003H1743.6483C1702.1483 0.003 1666.0183 11.723 1638.1883 40.043L1521.4883 159.183C1489.7483 149.413 1453.1283 144.533 1410.6483 144.533H1029.2983C828.1283 144.533 747.5583 164.063 627.9283 238.773L431.1483 362.303L249.0283 384.763C82.5183 405.273 -0.0017 481.443 -0.0017 615.233V699.223C-0.0017 778.813 46.8783 826.663 124.5083 826.663H204.0983C202.1483 814.943 200.6883 803.223 200.6883 790.523C200.6883 686.523 284.6683 603.023 388.1883 603.023C492.1883 603.023 575.6883 686.523 575.6883 790.523C575.6883 803.223 574.7083 814.943 572.2683 826.663H1185.5483C1183.5983 814.943 1182.1283 803.223 1182.1283 790.523C1182.1283 687.013 1266.5983 603.023 1369.6283 603.023C1473.6283 603.023 1557.1283 686.523 1557.1283 790.523C1557.1283 803.223 1556.1483 814.943 1553.7083 826.663H1607.9083C1693.3583 826.663 1731.9383 782.713 1731.9383 686.033V477.543C1731.9383 416.503 1709.4683 346.683 1670.8983 291.013ZM388.1883 920.903C461.4283 920.903 519.0383 863.283 519.0383 790.523C519.0383 717.773 460.9383 659.663 388.1883 659.663C315.9183 659.663 257.8083 717.773 257.8083 790.523C257.8083 862.793 315.9183 920.903 388.1883 920.903ZM1369.6283 920.903C1442.3783 920.903 1500.4883 862.793 1500.4883 790.523C1500.4883 717.773 1442.3783 659.663 1369.6283 659.663C1297.8483 659.663 1239.2583 718.263 1239.2583 790.523C1239.2583 862.793 1297.3683 920.903 1369.6283 920.903Z"/>
</svg>