<?xml version="1.0" encoding="UTF-8" standalone="no"?>
<svg xmlns="http://www.w3.org/2000/svg"
     width="1056.8126770800716" height="1126.953125"
     viewBox="0 0 1056.8126770800716 1126.953125"
     fill="currentColor">
  <path d="M-0.0017 333.0056H418.4583V121.5856C418.4583 46.8756 370.6083 -0.0044 294.4383 -0.0044H128.9083C49.8083 -0.0044 -0.0017 46.8756 -0.0017 121.5856ZM484.8683 387.6956L718.2583 522.4656L823.7283 339.3556C860.8383 274.9056 843.2583 209.9656 776.8583 171.8756L634.2783 89.3556C579.5883 57.6156 526.3683 62.0156 488.7683 98.1456C488.2783 109.3756 486.8183 120.6056 484.8683 132.3256ZM811.0383 836.4256L993.6483 730.9556C1058.1083 693.8456 1074.7083 628.4156 1036.6183 562.0156L954.5883 419.4356C937.0083 388.6756 914.0583 369.1356 888.1883 360.3556C885.2583 366.6956 881.8383 372.0656 878.9083 377.9256L712.8883 666.0156ZM-0.0017 727.0556H418.4583V399.4156H-0.0017ZM484.8683 926.2656L685.0583 580.0756L484.8683 464.8456ZM515.6283 1006.8356L752.9283 869.6256L673.8283 732.4256ZM128.9083 1126.9556H294.4383C370.6083 1126.9556 418.4583 1079.5856 418.4583 1004.8856V793.9456H-0.0017V1004.8856C-0.0017 1079.5856 49.8083 1126.9556 128.9083 1126.9556Z"/>
</svg>