<?xml version="1.0" encoding="UTF-8" standalone="no"?>
<svg xmlns="http://www.w3.org/2000/svg"
     width="997.55859375" height="921.875"
     viewBox="0 0 997.55859375 921.875"
     fill="currentColor">
  <path d="M229.0083 445.3148H769.0383C895.0183 445.3148 997.5583 355.4648 997.5583 222.6548C997.5583 89.8448 895.0183 0.0048 769.0383 0.0048H229.0083C103.0283 0.0048 -0.0017 89.8448 -0.0017 222.6548C-0.0017 355.4648 103.0283 445.3148 229.0083 445.3148ZM229.0083 371.5848C146.9683 371.5848 73.7283 311.5248 73.7283 222.6548C73.7283 133.7848 146.9683 73.7348 229.0083 73.7348H769.0383C850.5883 73.7348 923.8283 133.7848 923.8283 222.6548C923.8283 311.5248 850.5883 371.5848 769.0383 371.5848ZM229.0083 338.3748C293.4583 338.8648 344.7283 286.1348 345.2183 221.6748C345.6983 157.7148 293.4583 106.4448 229.0083 106.4448C164.5483 106.4448 113.2783 158.2048 113.2783 222.1648C113.2783 286.6248 164.5483 337.8948 229.0083 338.3748ZM208.9883 921.8748H789.0583C904.7883 921.8748 997.5583 840.8248 997.5583 721.1948C997.5583 601.5648 904.7883 520.5048 789.0583 520.5048H208.9883C93.2583 520.5048 -0.0017 601.5648 -0.0017 721.1948C-0.0017 840.8248 93.2583 921.8748 208.9883 921.8748ZM801.2683 848.1448C730.9583 847.6548 674.8083 791.0148 674.8083 720.7048C674.8083 650.8748 730.9583 594.2348 801.2683 594.2348C871.5783 594.2348 928.7083 650.3948 928.2183 720.2148C927.7383 791.0148 871.5783 848.6348 801.2683 848.1448Z"/>
</svg>