<?xml version="1.0" encoding="UTF-8" standalone="no"?>
<svg xmlns="http://www.w3.org/2000/svg"
     width="898.92578125" height="898.92578125"
     viewBox="0 0 898.92578125 898.92578125"
     fill="currentColor">
  <path d="M153.3183 898.9295H745.6083C848.1483 898.9295 898.9283 848.1495 898.9283 747.5595V151.3695C898.9283 50.7795 848.1483 -0.0005 745.6083 -0.0005H153.3183C51.2683 -0.0005 -0.0017 50.2895 -0.0017 151.3695V747.5595C-0.0017 848.6295 51.2683 898.9295 153.3183 898.9295ZM154.2983 820.3095C105.4683 820.3095 78.6183 794.4295 78.6183 743.6495V155.2695C78.6183 104.4895 105.4683 78.6095 154.2983 78.6095H744.6283C792.9683 78.6095 820.3083 104.4895 820.3083 155.2695V743.6495C820.3083 794.4295 792.9683 820.3095 744.6283 820.3095ZM319.3383 703.6095H579.5883C600.0983 703.6095 615.2383 688.4795 615.2383 667.9695V230.9595C615.2383 209.4695 600.0983 194.8195 579.5883 194.8195H319.3383C298.8283 194.8195 283.6883 209.4695 283.6883 230.9595V667.9695C283.6883 688.4795 298.8283 703.6095 319.3383 703.6095ZM354.9783 404.2995C345.6983 404.2995 338.8683 396.9695 338.8683 387.2095V266.5995C338.8683 256.3495 345.6983 249.9995 354.9783 249.9995H543.9483C553.7083 249.9995 560.0583 256.3495 560.0583 266.5995V387.2095C560.0583 396.9695 553.7083 404.2995 543.9483 404.2995ZM354.9783 648.4395C345.6983 648.4395 338.8683 642.0895 338.8683 631.8395V511.2295C338.8683 501.4695 345.6983 494.6295 354.9783 494.6295H543.9483C553.7083 494.6295 560.0583 501.4695 560.0583 511.2295V631.8395C560.0583 642.0895 553.7083 648.4395 543.9483 648.4395Z"/>
</svg>