<?xml version="1.0" encoding="UTF-8" standalone="no"?>
<svg xmlns="http://www.w3.org/2000/svg"
     width="1117.6790489082064" height="1101.9975180560255"
     viewBox="0 0 1117.6790489082064 1101.9975180560255"
     fill="currentColor">
  <path d="M10.2586 1092.7686C23.4386 1105.4686 44.4386 1104.9786 57.6186 1091.7986L249.0286 899.8986L273.4386 924.3186C323.2486 973.6286 391.1186 972.1686 443.3586 919.9186L926.2686 437.0086L979.0086 489.2586C994.1486 504.3986 1019.0486 504.3986 1034.1786 489.2586C1049.8086 474.1186 1049.8086 448.7286 1034.1786 433.5986L981.9386 381.3486L1001.9586 361.3286C1017.0886 346.1886 1017.5786 321.2886 1001.9586 306.1486L931.1586 235.3486L992.1886 174.3186L1050.7886 232.9086C1065.9186 248.0486 1090.8286 248.0486 1105.9586 232.9086C1121.5886 217.2886 1121.5886 192.3786 1105.9586 177.2486L940.4286 11.7186C925.2986 -3.9014 900.3986 -3.9014 884.7686 11.7186C869.6286 26.8586 869.6286 51.7586 884.7686 66.8986L943.8486 125.4886L882.8186 186.5186L798.8286 102.5386C783.6986 87.3986 758.3086 87.3986 743.1686 102.5386L723.1486 122.5586L671.3886 70.7986C655.2786 54.1986 630.8586 55.1786 615.7286 70.7986C600.5886 85.9386 599.6086 109.8586 615.7286 125.9786L666.9986 177.7386L184.0886 661.1286C130.8586 714.8486 129.3986 782.2286 179.6886 831.5386L201.6586 853.5186L10.2586 1044.9186C-2.9214 1058.1086 -3.9014 1079.5886 10.2586 1092.7686ZM323.2486 862.3086L241.2186 780.7586C221.1986 761.2286 221.1986 735.3486 240.7286 715.8186L302.7386 654.2986L378.9086 730.4686C388.6786 740.2386 401.8586 739.7486 411.6286 729.9786C419.9286 721.6786 419.4386 707.0286 411.1386 698.2386L334.4786 622.5586L403.8086 552.7386L480.4686 629.3986C489.7486 638.6686 503.4186 638.6686 512.6986 629.3986C521.4886 620.6086 520.5086 606.4486 512.2086 597.6586L435.5486 520.9986L505.8586 451.1686L582.0386 527.8286C591.3086 536.6186 604.9886 537.1086 614.2586 527.8286C623.0486 519.0386 623.0486 504.8786 613.7686 495.6086L537.5986 419.4286L606.9386 350.0986L683.5986 426.7586C692.8786 435.5486 706.0586 435.5486 715.3386 426.7586C724.1286 418.4586 723.6386 403.3186 715.3386 394.5286L638.6786 317.8686L723.1486 233.8886L870.6086 381.3486L388.1886 864.2586C369.1486 883.2986 343.2686 882.3286 323.2486 862.3086Z"/>
</svg>