<?xml version="1.0" encoding="UTF-8" standalone="no"?>
<svg xmlns="http://www.w3.org/2000/svg"
     width="996.09375" height="996.09375"
     viewBox="0 0 996.09375 996.09375"
     fill="currentColor">
  <path d="M498.0477 996.0959C770.5077 996.0959 996.0977 770.0159 996.0977 498.0459C996.0977 225.5859 770.0177 -0.0041 497.5577 -0.0041C225.5877 -0.0041 -0.0023 225.5859 -0.0023 498.0459C-0.0023 770.0159 226.0777 996.0959 498.0477 996.0959ZM496.5777 730.9559C470.7077 730.9559 457.0277 711.9159 457.0277 685.0559V332.0359H333.0077C313.4777 332.0359 299.3177 318.8459 299.3177 298.8259C299.3177 277.8359 313.4777 265.6259 333.0077 265.6259H662.5977C682.1277 265.6259 696.7777 277.8359 696.7777 298.8259C696.7777 318.8459 682.1277 332.0359 662.5977 332.0359H537.5977V685.0559C537.5977 712.8859 523.4377 730.9559 496.5777 730.9559Z"/>
</svg>