<?xml version="1.0" encoding="UTF-8" standalone="no"?>
<svg xmlns="http://www.w3.org/2000/svg"
     width="996.09375" height="996.09375"
     viewBox="0 0 996.09375 996.09375"
     fill="currentColor">
  <path d="M498.0477 996.0959C770.5077 996.0959 996.0977 770.0159 996.0977 498.0459C996.0977 225.5859 770.0177 -0.0041 497.5577 -0.0041C225.5877 -0.0041 -0.0023 225.5859 -0.0023 498.0459C-0.0023 770.0159 226.0777 996.0959 498.0477 996.0959ZM498.0477 913.0859C267.5777 913.0859 83.4977 728.5159 83.4977 498.0459C83.4977 267.5759 267.0877 83.0059 497.5577 83.0059C728.0277 83.0059 913.0877 267.5759 913.0877 498.0459C913.0877 728.5159 728.5177 913.0859 498.0477 913.0859ZM496.0977 723.6359C521.9777 723.6359 535.6477 706.5459 535.6477 679.6859V336.9159H657.2277C675.7777 336.9159 689.9377 324.2159 689.9377 304.6859C689.9377 284.6659 675.7777 272.9459 657.2277 272.9459H337.3977C318.8477 272.9459 305.1777 284.6659 305.1777 304.6859C305.1777 324.2159 318.8477 336.9159 337.3977 336.9159H458.0077V679.6859C458.0077 705.5659 471.1877 723.6359 496.0977 723.6359Z"/>
</svg>