<?xml version="1.0" encoding="UTF-8" standalone="no"?>
<svg xmlns="http://www.w3.org/2000/svg"
     width="898.92578125" height="898.92578125"
     viewBox="0 0 898.92578125 898.92578125"
     fill="currentColor">
  <path d="M153.3183 898.9295H745.6083C848.1483 898.9295 898.9283 848.1495 898.9283 747.5595V151.3695C898.9283 50.7795 848.1483 -0.0005 745.6083 -0.0005H153.3183C51.2683 -0.0005 -0.0017 50.2895 -0.0017 151.3695V747.5595C-0.0017 848.6295 51.2683 898.9295 153.3183 898.9295ZM448.7283 681.6395C422.3683 681.6395 408.6883 662.5995 408.6883 635.7395V282.7195H285.1583C265.6283 282.7195 250.9783 269.5295 250.9783 249.5095C250.9783 228.5195 265.6283 216.3095 285.1583 216.3095H614.2583C633.7883 216.3095 648.4383 228.5195 648.4383 249.5095C648.4383 269.5295 633.7883 282.7195 614.2583 282.7195H489.2583V635.7395C489.2583 663.5695 475.0983 681.6395 448.7283 681.6395Z"/>
</svg>