<?xml version="1.0" encoding="UTF-8" standalone="no"?>
<svg xmlns="http://www.w3.org/2000/svg"
     width="898.92578125" height="898.92578125"
     viewBox="0 0 898.92578125 898.92578125"
     fill="currentColor">
  <path d="M153.3183 898.9295H745.6083C848.1483 898.9295 898.9283 848.1495 898.9283 747.5595V151.3695C898.9283 50.7795 848.1483 -0.0005 745.6083 -0.0005H153.3183C51.2683 -0.0005 -0.0017 50.2895 -0.0017 151.3695V747.5595C-0.0017 848.6295 51.2683 898.9295 153.3183 898.9295ZM345.6983 709.9595L196.2883 559.5695C165.5283 529.2995 165.5283 499.5095 196.7783 468.2595L437.4983 224.6095C456.5383 205.0795 470.2183 190.9195 500.4883 190.9195H599.1183C621.5783 190.9195 634.7683 200.6795 650.3883 215.8195L693.8483 258.7895C709.4683 274.4095 715.3283 287.5995 715.3283 310.5495V404.7895C715.3283 436.0395 700.6883 449.2195 681.6383 468.2595L437.9883 709.4695C406.7383 740.7195 376.4683 740.2295 345.6983 709.9595ZM539.5483 366.6995C553.2183 380.8595 575.6883 380.8595 589.8483 366.2095C604.0083 352.0495 604.0083 329.5895 589.8483 315.9195C575.6883 301.7595 553.2183 301.7595 539.5483 315.9195C525.3883 330.0795 525.3883 353.0295 539.5483 366.6995Z"/>
</svg>