<?xml version="1.0" encoding="UTF-8" standalone="no"?>
<svg xmlns="http://www.w3.org/2000/svg"
     width="1090.9430141856446" height="1090.7594357372718"
     viewBox="0 0 1090.9430141856446 1090.7594357372718"
     fill="currentColor">
  <path d="M352.178 216.7969L874.148 738.7669L1051.878 561.0369C1088.498 524.4169 1090.948 503.4169 1090.948 452.1469V266.5969C1090.948 214.8469 1078.738 198.7269 1041.628 161.6169L929.318 49.3169C892.698 12.6969 876.588 -0.0031 824.828 -0.0031H638.798C587.528 -0.0031 567.018 2.4369 530.398 39.0669ZM942.998 995.6069C958.128 1010.2569 982.058 1010.2569 996.218 995.6069C1010.378 980.9569 1010.868 957.0269 996.218 942.3869L148.558 94.7269C133.908 80.0769 109.988 79.5869 94.848 94.7269C80.688 108.8869 80.688 133.2969 94.848 147.9469ZM742.798 390.6269C704.228 390.6269 675.908 360.8369 675.908 323.7269C675.908 286.1369 704.228 256.8369 742.798 256.8369C780.888 256.8369 809.698 286.1369 809.698 323.7269C809.698 360.8369 780.888 390.6269 742.798 390.6269ZM738.888 874.9969L216.918 352.0469L52.858 515.6269C-16.972 585.4469 -18.432 657.7169 53.348 729.0069L362.428 1037.5969C434.208 1108.8869 505.978 1107.9069 575.808 1038.0869Z"/>
</svg>