<?xml version="1.0" encoding="UTF-8" standalone="no"?>
<svg xmlns="http://www.w3.org/2000/svg"
     width="996.09375" height="996.09375"
     viewBox="0 0 996.09375 996.09375"
     fill="currentColor">
  <path d="M498.0477 996.0977C770.5077 996.0977 996.0977 770.5077 996.0977 498.0477C996.0977 226.0777 770.0177 -0.0023 497.5577 -0.0023C225.5877 -0.0023 -0.0023 226.0777 -0.0023 498.0477C-0.0023 770.5077 226.0777 996.0977 498.0477 996.0977ZM394.0477 759.7677L244.1377 608.8877C213.8677 578.6177 213.8677 548.8277 245.1177 517.5777L485.3477 273.9277C504.8877 254.8877 518.5577 240.2377 548.8277 240.2377H646.9777C669.9177 240.2377 683.1077 249.9977 698.2377 265.6277L742.1877 308.5977C757.8077 323.7277 763.6677 336.9177 763.6677 360.3477V454.0977C763.6677 485.3477 749.0277 498.5377 729.9777 518.0677L486.3277 759.2777C455.0777 790.0377 424.8077 790.0377 394.0477 759.7677ZM587.8877 416.5077C601.5577 430.1777 623.5377 430.1777 638.1877 416.0177C652.3477 401.8577 652.3477 379.3977 638.1877 365.2377C624.0277 351.0777 601.5577 351.0777 587.8877 365.2377C573.7277 379.8877 573.7277 402.3477 587.8877 416.5077Z"/>
</svg>