<?xml version="1.0" encoding="UTF-8" standalone="no"?>
<svg xmlns="http://www.w3.org/2000/svg"
     width="1286.1328125" height="869.656559849089"
     viewBox="0 0 1286.1328125 869.656559849089"
     fill="currentColor">
  <path d="M994.6283 801.0373C954.0983 840.5873 1007.3283 894.7873 1049.3183 856.7073C1100.0983 808.8473 1129.8783 739.0273 1136.7183 659.9273H1247.0683C1268.0683 659.9273 1286.1283 642.3473 1286.1283 620.8673C1286.1283 599.8673 1268.0683 581.3173 1247.0683 581.3173H1136.2283C1132.8083 546.1573 1125.4883 510.0273 1113.7683 473.8873H1247.0683C1268.0683 473.8873 1286.1283 456.7973 1286.1283 435.3173C1286.1283 414.3173 1268.0683 395.2773 1247.0683 395.2773H1084.4683C1071.7783 359.1473 1063.4783 323.4973 1059.5683 288.8273L1247.0683 288.3473C1267.5783 288.3473 1286.1283 270.7673 1286.1283 249.2773C1286.1283 227.7973 1268.0683 209.7273 1247.0683 209.7273H1058.5983C1063.9683 152.5973 1083.4983 102.7973 1117.1883 68.6173C1158.6883 29.0673 1105.4683 -25.1327 1062.9883 12.9573C1011.7183 61.2973 982.4183 131.1173 975.5883 209.7273H863.2783C868.6483 236.0973 872.5583 262.9573 875.4883 288.8273H976.5583C979.9783 323.9873 987.3083 359.6373 998.5383 395.2773H882.3283C882.8083 409.9273 882.8083 459.7273 882.3283 473.8873H1027.8283C1041.0183 510.5073 1049.3183 546.6473 1053.2183 581.3173L875.4883 581.7973C872.5583 607.1873 868.6483 633.5573 863.2783 660.4173L1054.1983 659.9273C1048.8283 717.0573 1028.8083 766.3673 994.6283 801.0373ZM815.9183 434.8273C816.8983 340.5873 809.0783 250.2573 783.1983 157.4873C752.9283 56.8973 696.2883 20.7673 577.6383 20.7673H550.2883C259.2783 20.7673 -0.0017 211.6873 -0.0017 434.8273C-0.0017 657.9773 259.2783 847.9173 550.2883 847.9173H577.6383C696.7783 847.9173 753.4183 812.2673 783.1983 711.6873C809.0783 619.3973 816.8983 529.0673 815.9183 434.8273ZM737.3083 434.8273C737.7883 539.8073 729.0083 615.4873 707.5183 690.1973C690.4283 747.8173 655.2783 769.7873 577.6383 769.7873H550.2883C304.6883 769.7873 78.6183 613.0473 78.6183 434.8273C78.6183 256.6073 304.6883 98.8873 550.2883 98.8873H577.6383C654.2983 98.8873 689.9383 120.8673 707.5183 179.4573C729.0083 254.1673 737.7883 329.8473 737.3083 434.8273Z"/>
</svg>