<?xml version="1.0" encoding="UTF-8" standalone="no"?>
<svg xmlns="http://www.w3.org/2000/svg"
     width="1038.2481040605776" height="1194.3359375"
     viewBox="0 0 1038.2481040605776 1194.3359375"
     fill="currentColor">
  <path d="M940.0194 603.5142L787.1894 534.1842C825.7694 479.9842 848.7094 414.0642 848.7094 342.2842C848.7094 335.4442 848.7094 329.1042 848.2294 322.2642C929.7694 313.9642 993.2494 245.1142 993.2494 161.1342C993.2494 72.2642 920.9794 0.0042 831.6194 0.0042C777.9094 0.0042 730.0594 26.3642 700.7694 67.3842C648.5194 32.2242 586.0194 12.2042 518.6394 12.2042C451.2494 12.2042 388.7494 32.2242 336.5094 67.3842C307.2094 26.3642 259.3594 0.0042 205.6494 0.0042C116.2894 0.0042 44.0294 72.2642 44.0294 161.1342C44.0294 245.1142 107.4994 313.9642 189.0494 322.2642C188.5594 329.1042 188.5594 335.4442 188.5594 342.2842C188.5594 414.0642 211.5094 480.4642 250.5694 534.6642L98.2294 603.5142C12.7794 642.0942 -23.3606 744.1442 15.7094 828.6142C35.7294 870.6042 70.3894 900.8742 112.3894 915.0342C138.2694 820.8042 209.5494 753.9042 295.9794 753.9042C405.3594 753.9042 490.7994 861.3242 490.7994 995.6042C490.7994 1055.1742 473.7094 1109.3742 445.8794 1151.8542C491.7794 1158.2042 545.9794 1157.7142 592.3694 1151.8542C564.5294 1109.3742 547.4494 1055.1742 547.4494 995.6042C547.4494 861.3242 632.8894 753.9042 742.2694 753.9042C828.6994 753.9042 899.9794 820.8042 925.8594 915.0342C967.8594 900.8742 1002.5194 870.6042 1022.5394 828.6142C1061.6094 744.1442 1025.4694 642.0942 940.0194 603.5142ZM205.6494 69.8242C237.8694 69.8242 266.1994 86.4242 282.3094 112.3042C244.7094 150.3942 215.8994 198.7342 201.2494 251.9542C197.8394 251.9542 194.9094 251.4642 192.4594 250.9742C148.0294 244.6242 114.3394 207.0342 114.3394 161.1342C114.3394 110.8442 155.3594 69.8242 205.6494 69.8242ZM831.6194 69.8242C881.9194 69.8242 922.9294 110.8442 922.9294 161.1342C922.9294 206.5442 889.2394 245.1142 844.8094 250.9742C841.8794 251.4642 837.9694 251.9542 836.0194 251.9542C821.3694 198.7342 792.5594 150.3942 754.9594 112.3042C771.0794 86.4242 799.3994 69.8242 831.6194 69.8242ZM391.1994 320.3142C368.7294 320.3142 349.1994 301.2742 349.1994 277.8342C349.1994 254.3942 368.7294 235.3542 391.1994 235.3542C414.6294 235.3542 433.6794 254.3942 433.6794 277.8342C433.6794 301.2742 414.6294 320.3142 391.1994 320.3142ZM646.5694 320.3142C623.1294 320.3142 604.0894 301.2742 604.0894 277.8342C604.0894 254.3942 623.1294 235.3542 646.5694 235.3542C669.0294 235.3542 688.5594 254.3942 688.5594 277.8342C688.5594 301.2742 669.0294 320.3142 646.5694 320.3142ZM519.6094 631.3442C435.6294 631.3442 368.7294 563.9642 368.7294 480.4642C368.7294 397.4642 436.1194 329.5942 519.6094 329.5942C602.6194 329.5942 670.4894 396.9742 670.4894 480.4642C670.4894 563.4742 602.1294 631.3442 519.6094 631.3442ZM518.6394 499.5142C547.9294 499.5142 594.8094 455.5642 594.8094 443.3642C594.8094 423.3442 562.5794 395.5042 518.6394 395.5042C474.6894 395.5042 440.9994 423.3442 440.9994 443.3642C440.9994 455.5642 489.8294 499.5142 518.6394 499.5142ZM295.9794 1194.3342C380.4494 1194.3342 446.3694 1105.4642 446.3694 995.6042C446.3694 887.2042 380.4494 798.3442 295.9794 798.3442C211.5094 798.3442 145.5894 887.2042 145.5894 995.6042C145.5894 1105.4642 211.5094 1194.3342 295.9794 1194.3342ZM742.2694 1194.3342C826.7394 1194.3342 892.6594 1105.4642 892.6594 995.6042C892.6594 887.2042 826.7394 798.3442 742.2694 798.3442C657.7994 798.3442 591.8794 887.2042 591.8794 995.6042C591.8794 1105.4642 657.7994 1194.3342 742.2694 1194.3342Z"/>
</svg>