<?xml version="1.0" encoding="UTF-8" standalone="no"?>
<svg xmlns="http://www.w3.org/2000/svg"
     width="1038.2481040605776" height="1215.8203125"
     viewBox="0 0 1038.2481040605776 1215.8203125"
     fill="currentColor">
  <path d="M300.8594 1215.8198C346.7594 1215.8198 388.7494 1194.3398 420.4894 1158.1998C487.3894 1169.4298 549.8894 1169.4298 617.2694 1157.7198C649.4994 1193.8498 690.9994 1215.8198 737.3894 1215.8198C839.4394 1215.8198 919.5194 1110.3498 919.5194 978.5198C919.5194 961.4298 918.0494 944.8198 915.6094 928.7098C961.5094 916.0198 1001.0594 884.2798 1022.5394 838.3798C1061.6094 753.9098 1025.4694 651.8598 940.0194 613.2798L795.9794 547.8498C835.0394 492.6798 858.4794 424.7998 858.4794 352.0498C858.4794 346.6798 857.9894 338.8698 857.4994 332.0298C939.0494 322.2698 1000.0794 251.9498 1000.0794 167.9698C1000.0794 75.6798 924.3994 -0.0002 831.6194 -0.0002C779.3794 -0.0002 730.5494 24.4098 699.7894 64.9398C645.5894 30.7598 582.5994 12.2098 518.6394 12.2098C454.6694 12.2098 391.6794 30.7598 337.4794 64.9398C306.7194 24.4098 257.8894 -0.0002 205.6494 -0.0002C112.8694 -0.0002 37.1894 75.6798 37.1894 167.9698C37.1894 251.9498 98.2294 322.2698 179.7694 332.0298C179.2794 338.8698 178.7894 346.6798 178.7894 352.0498C178.7894 425.2898 202.2294 492.6798 241.7794 548.3398L98.2294 613.2798C12.7794 651.8598 -23.3606 753.9098 15.7094 838.3798C37.1894 884.2798 76.7394 916.0198 122.6394 928.7098C120.1994 944.8198 118.7294 961.4298 118.7294 978.5198C118.7294 1110.3498 198.8094 1215.8198 300.8594 1215.8198ZM249.1094 352.0498C249.1094 335.4498 250.0794 310.5498 261.7994 268.5498L256.4294 263.6698C239.3394 268.0698 221.7594 269.5298 205.6494 269.5298C150.4694 269.5298 106.0394 224.6098 106.0394 169.4298C106.0394 114.7498 150.4694 70.3098 205.6494 70.3098C257.4094 70.3098 300.3694 110.8398 303.7894 161.1298C304.2794 165.5298 303.7894 170.8998 303.2994 175.2898L313.5594 178.2198C366.7794 116.2098 439.0494 82.0298 518.6394 82.0298C598.2294 82.0298 670.4894 116.2098 723.7094 178.2198L733.9694 175.2898C733.4794 170.8998 732.9894 165.5298 733.4794 161.1298C736.8994 110.8398 779.8694 70.3098 831.6194 70.3098C886.7994 70.3098 931.2294 114.7498 931.2294 169.4298C931.2294 224.6098 886.7994 269.5298 831.6194 269.5298C815.5094 269.5298 797.9294 268.0698 780.8394 263.6698L775.4694 268.5498C787.1894 310.5498 788.1694 335.4498 788.1694 352.0498C788.1694 442.3798 743.2494 522.9498 674.3994 571.7798C681.7194 553.2198 685.6294 533.1998 685.6294 512.2098C685.6294 420.8998 610.9194 346.1898 519.6094 346.1898C428.2994 346.1898 353.5994 421.3898 353.5994 512.2098C353.5994 533.6898 357.4994 554.1998 364.8294 573.2398C294.9994 524.4098 249.1094 443.3598 249.1094 352.0498ZM400.9594 330.0798C424.3994 330.0798 443.4394 311.0398 443.4394 287.5998C443.4394 264.1598 424.3994 245.1198 400.9594 245.1198C378.4994 245.1198 358.9694 264.1598 358.9694 287.5998C358.9694 311.0398 378.4994 330.0798 400.9594 330.0798ZM636.7994 330.0798C659.2594 330.0798 678.7894 311.0398 678.7894 287.5998C678.7894 264.1598 659.2594 245.1198 636.7994 245.1198C613.3594 245.1198 594.3194 264.1598 594.3194 287.5998C594.3194 311.0398 613.3594 330.0798 636.7994 330.0798ZM519.6094 617.6798C461.5094 617.6798 414.1394 570.3098 414.1394 512.2098C414.1394 454.5898 461.5094 407.2298 519.6094 407.2298C577.2294 407.2298 624.5894 454.5898 624.5894 512.2098C624.5894 570.3098 577.2294 617.6798 519.6094 617.6798ZM518.6394 527.3398C545.4894 527.3398 589.4394 486.8198 589.4394 476.0698C589.4394 457.5198 559.1594 431.6398 518.6394 431.6398C477.6194 431.6398 446.3694 457.5198 446.3694 476.0698C446.3694 486.8198 491.7794 527.3398 518.6394 527.3398ZM518.6394 691.8898C606.5294 691.8898 687.0894 658.1998 747.6394 602.5398L910.2394 677.2498C961.5094 700.6798 981.5294 758.2998 959.0694 808.5898C946.8594 835.9398 923.4194 854.4898 896.5694 862.2998C865.3194 790.5298 806.2294 742.1898 737.3894 742.1898C635.8194 742.1898 555.2594 848.1398 555.2594 978.5198C555.2594 1020.0198 563.5594 1059.0798 577.7194 1092.7698C538.6594 1097.6598 499.5894 1097.6598 460.5294 1093.2598C474.6894 1059.0798 482.9894 1020.0198 482.9894 978.5198C482.9894 848.1398 402.4294 742.1898 300.8594 742.1898C232.0194 742.1898 172.9294 790.5298 141.6794 862.2998C114.8294 854.4898 91.3894 835.9398 79.1794 808.5898C56.7194 758.2998 76.7394 700.6798 128.0094 677.2498L290.1194 603.0298C350.6694 658.1998 430.7494 691.8898 518.6394 691.8898ZM300.8594 1142.0898C242.2694 1142.0898 192.4594 1068.3598 192.4594 978.5198C192.4594 889.1598 242.2694 815.9198 300.8594 815.9198C359.4594 815.9198 409.2594 889.1598 409.2594 978.5198C409.2594 1068.3598 359.4594 1142.0898 300.8594 1142.0898ZM737.3894 1142.0898C678.7894 1142.0898 628.9894 1068.3598 628.9894 978.5198C628.9894 889.1598 678.7894 815.9198 737.3894 815.9198C795.9794 815.9198 845.7794 889.1598 845.7794 978.5198C845.7794 1068.3598 795.9794 1142.0898 737.3894 1142.0898Z"/>
</svg>