<?xml version="1.0" encoding="UTF-8" standalone="no"?>
<svg xmlns="http://www.w3.org/2000/svg"
     width="996.09375" height="996.09375"
     viewBox="0 0 996.09375 996.09375"
     fill="currentColor">
  <path d="M498.0477 996.0959C770.5077 996.0959 996.0977 770.0159 996.0977 498.0459C996.0977 225.5859 770.0177 -0.0041 497.5577 -0.0041C225.5877 -0.0041 -0.0023 225.5859 -0.0023 498.0459C-0.0023 770.0159 226.0777 996.0959 498.0477 996.0959ZM498.0477 913.0859C267.5777 913.0859 83.4977 728.5159 83.4977 498.0459C83.4977 267.5759 267.0877 83.0059 497.5577 83.0059C728.0277 83.0059 913.0877 267.5759 913.0877 498.0459C913.0877 728.5159 728.5177 913.0859 498.0477 913.0859ZM497.5577 356.9359C580.5677 356.9359 607.9077 364.7459 607.9077 387.6959V394.5359C607.9077 420.8959 614.7477 438.4759 648.4377 441.8959L740.2377 451.6559C774.8977 455.0759 793.9477 446.2859 793.9477 409.1759C793.9477 305.6659 666.9877 253.9059 497.5577 253.9059C328.6177 253.9059 201.6577 305.6659 201.6577 409.1759C201.6577 446.2859 221.1877 455.0759 256.3477 451.6559L347.1677 441.8959C380.8577 438.4759 388.1877 420.8959 388.1877 394.5359V387.2059C388.1877 366.6959 421.8777 356.9359 497.5577 356.9359ZM274.4177 593.7459H319.3377C336.9177 593.7459 347.1677 584.4759 347.1677 565.9159V519.5359C347.1677 502.4459 336.9177 492.1859 319.3377 492.1859H274.4177C255.8577 492.1859 245.1177 502.4459 245.1177 519.5359V565.9159C245.1177 584.4759 255.8577 593.7459 274.4177 593.7459ZM407.7177 593.7459H453.6177C471.1877 593.7459 481.9377 584.4759 481.9377 565.9159V519.5359C481.9377 502.4459 471.1877 492.1859 453.6177 492.1859H407.7177C389.1577 492.1859 379.8877 502.4459 379.8877 519.5359V565.9159C379.8877 584.4759 389.1577 593.7459 407.7177 593.7459ZM541.5077 593.7459H586.4277C604.9777 593.7459 615.2377 584.4759 615.2377 565.9159V519.5359C615.2377 502.4459 604.9777 492.1859 586.4277 492.1859H541.5077C523.9277 492.1859 513.1877 502.4459 513.1877 519.5359V565.9159C513.1877 584.4759 523.9277 593.7459 541.5077 593.7459ZM675.2977 593.7459H720.7077C738.2777 593.7459 749.0277 584.4759 749.0277 565.9159V519.5359C749.0277 502.4459 738.2777 492.1859 720.7077 492.1859H675.2977C656.7377 492.1859 646.9777 502.4459 646.9777 519.5359V565.9159C646.9777 584.4759 656.7377 593.7459 675.2977 593.7459ZM273.4377 728.0259H318.8477C336.9177 728.0259 347.1677 717.7759 347.1677 699.7059V653.8059C347.1677 636.2259 336.9177 625.4859 318.8477 625.4859H273.4377C255.8577 625.4859 245.1177 636.2259 245.1177 653.8059V699.7059C245.1177 717.7759 255.8577 728.0259 273.4377 728.0259ZM407.2277 728.0259H587.8877C605.4677 728.0259 615.2377 717.7759 615.2377 699.7059V653.8059C615.2377 636.2259 605.4677 625.4859 587.8877 625.4859H407.2277C389.1577 625.4859 379.8877 636.2259 379.8877 653.8059V699.7059C379.8877 717.7759 389.1577 728.0259 407.2277 728.0259ZM675.7777 728.0259H721.1877C739.2577 728.0259 749.0277 717.7759 749.0277 699.7059V653.8059C749.0277 636.2259 739.2577 625.4859 721.1877 625.4859H675.7777C657.7177 625.4859 646.9777 636.2259 646.9777 653.8059V699.7059C646.9777 717.7759 657.7177 728.0259 675.7777 728.0259Z"/>
</svg>