<?xml version="1.0" encoding="UTF-8" standalone="no"?>
<svg xmlns="http://www.w3.org/2000/svg"
     width="1400.0248961497189" height="904.3825059485333"
     viewBox="0 0 1400.0248961497189 904.3825059485333"
     fill="currentColor">
  <path d="M872.1979 840.037C923.9479 788.767 907.8379 750.197 855.5879 707.227L718.8679 596.387C667.6079 554.877 634.8879 571.967 597.7779 606.147L589.4779 614.457C556.7679 644.727 508.4279 619.827 396.6079 508.007C292.6079 403.517 260.3779 344.437 289.6779 315.137L297.9779 306.347C335.0879 269.727 349.2479 236.527 308.2279 185.737L196.8979 48.047C154.9079 -4.203 115.8479 -19.823 64.5779 31.447C-77.0221 173.047 26.4879 418.167 255.9779 648.147C485.9579 878.127 731.5679 981.147 872.1979 840.037ZM484.0079 216.017H571.8979C606.0779 216.017 625.6079 196.487 625.6079 161.817V73.437C625.6079 38.767 606.0779 19.237 571.8979 19.237H484.0079C448.8579 19.237 428.8379 38.767 428.8379 73.437V161.817C428.8379 196.487 448.8579 216.017 484.0079 216.017ZM741.8179 216.017H829.7079C863.8879 216.017 883.9079 196.487 883.9079 161.817V73.437C883.9079 38.767 863.8879 19.237 829.7079 19.237H741.8179C707.1579 19.237 686.6479 38.767 686.6479 73.437V161.817C686.6479 196.487 707.1579 216.017 741.8179 216.017ZM999.1479 216.017H1087.0379C1121.7079 216.017 1141.7279 196.487 1141.7279 161.817V73.437C1141.7279 38.767 1121.7079 19.237 1087.0379 19.237H999.1479C964.4779 19.237 944.9479 38.767 944.9479 73.437V161.817C944.9479 196.487 964.4779 216.017 999.1479 216.017ZM1256.4679 216.017H1344.8479C1379.5179 216.017 1400.0279 196.487 1400.0279 161.817V73.437C1400.0279 38.767 1379.5179 19.237 1344.8479 19.237H1256.4679C1222.2879 19.237 1203.2479 38.767 1203.2479 73.437V161.817C1203.2479 196.487 1222.2879 216.017 1256.4679 216.017ZM482.5479 474.317H570.4379C605.5879 474.317 625.6079 454.787 625.6079 420.117V331.247C625.6079 297.067 605.5879 277.047 570.4379 277.047H482.5479C448.3679 277.047 428.8379 297.067 428.8379 331.247V420.117C428.8379 454.787 448.3679 474.317 482.5479 474.317ZM740.3579 474.317H1088.4979C1123.1679 474.317 1142.2079 454.787 1142.2079 420.117V331.247C1142.2079 297.067 1123.1679 277.047 1088.4979 277.047H740.3579C705.6879 277.047 686.6479 297.067 686.6479 331.247V420.117C686.6479 454.787 705.6879 474.317 740.3579 474.317ZM1258.4279 474.317H1346.3179C1380.9779 474.317 1400.0279 454.787 1400.0279 420.117V331.247C1400.0279 297.067 1380.9779 277.047 1346.3179 277.047H1258.4279C1223.7579 277.047 1203.7379 297.067 1203.7379 331.247V420.117C1203.7379 454.787 1223.7579 474.317 1258.4279 474.317Z"/>
</svg>