<?xml version="1.0" encoding="UTF-8" standalone="no"?>
<svg xmlns="http://www.w3.org/2000/svg"
     width="996.09375" height="996.09375"
     viewBox="0 0 996.09375 996.09375"
     fill="currentColor">
  <path d="M498.0477 996.0959C770.5077 996.0959 996.0977 770.0159 996.0977 498.0459C996.0977 225.5859 770.0177 -0.0041 497.5577 -0.0041C225.5877 -0.0041 -0.0023 225.5859 -0.0023 498.0459C-0.0023 770.0159 226.0777 996.0959 498.0477 996.0959ZM498.0477 913.0859C267.5777 913.0859 83.4977 728.5159 83.4977 498.0459C83.4977 267.5759 267.0877 83.0059 497.5577 83.0059C728.0277 83.0059 913.0877 267.5759 913.0877 498.0459C913.0877 728.5159 728.5177 913.0859 498.0477 913.0859ZM322.2677 299.8059C322.2677 313.4759 332.5177 324.2159 345.7077 324.2159H648.4377C662.5977 324.2159 672.3677 313.4759 672.3677 299.8059C672.3677 285.6459 662.5977 275.8759 648.4377 275.8759H345.7077C332.5177 275.8759 322.2677 285.6459 322.2677 299.8059ZM323.2377 393.5559C323.2377 410.6459 334.4777 421.8759 351.5577 421.8759H465.8177V711.9159C465.8177 731.4459 479.4877 744.1359 498.0477 744.1359C516.5977 744.1359 529.2977 731.4459 529.2977 711.9159V421.8759H643.0677C660.6477 421.8759 671.8777 410.6459 671.8777 393.5559C671.8777 376.9559 660.6477 365.7259 643.0677 365.7259H351.5577C334.4777 365.7259 323.2377 376.9559 323.2377 393.5559Z"/>
</svg>