<?xml version="1.0" encoding="UTF-8" standalone="no"?>
<svg xmlns="http://www.w3.org/2000/svg"
     width="898.92578125" height="898.92578125"
     viewBox="0 0 898.92578125 898.92578125"
     fill="currentColor">
  <path d="M153.3183 898.9295H745.6083C848.1483 898.9295 898.9283 848.1495 898.9283 747.5595V151.3695C898.9283 50.7795 848.1483 -0.0005 745.6083 -0.0005H153.3183C51.2683 -0.0005 -0.0017 50.2895 -0.0017 151.3695V747.5595C-0.0017 848.6295 51.2683 898.9295 153.3183 898.9295ZM269.0383 244.1395C269.0383 229.4895 279.2983 219.7295 292.9683 219.7295H605.9583C620.1183 219.7295 629.8783 229.4895 629.8783 244.1395C629.8783 258.2995 620.1183 269.5295 605.9583 269.5295H292.9683C279.2983 269.5295 269.0383 258.2995 269.0383 244.1395ZM270.0183 340.8195C270.0183 323.7295 281.2483 312.0095 299.3183 312.0095H600.0983C618.1683 312.0095 629.3983 323.7295 629.3983 340.8195C629.3983 358.8895 618.1683 370.6095 600.0983 370.6095H482.4183V669.4295C482.4183 689.9395 469.2383 702.6395 450.1983 702.6395C431.1483 702.6395 416.9883 689.9395 416.9883 669.4295V370.6095H299.3183C281.2483 370.6095 270.0183 358.8895 270.0183 340.8195Z"/>
</svg>