<?xml version="1.0" encoding="UTF-8" standalone="no"?>
<svg xmlns="http://www.w3.org/2000/svg"
     width="996.09375" height="996.09375"
     viewBox="0 0 996.09375 996.09375"
     fill="currentColor">
  <path d="M498.0477 996.0959C770.5077 996.0959 996.0977 770.0159 996.0977 498.0459C996.0977 225.5859 770.0177 -0.0041 497.5577 -0.0041C225.5877 -0.0041 -0.0023 225.5859 -0.0023 498.0459C-0.0023 770.0159 226.0777 996.0959 498.0477 996.0959ZM317.3877 293.4559C317.3877 278.8059 327.6377 269.0459 341.3077 269.0459H653.8077C668.4577 269.0459 678.2277 278.8059 678.2277 293.4559C678.2277 307.6159 668.4577 318.8459 653.8077 318.8459H341.3077C327.6377 318.8459 317.3877 307.6159 317.3877 293.4559ZM318.3577 390.1359C318.3577 373.0459 329.5877 361.3259 347.6577 361.3259H647.9477C666.5077 361.3259 677.7377 373.0459 677.7377 390.1359C677.7377 408.2059 666.5077 419.9259 647.9477 419.9259H530.7577V718.7459C530.7577 739.2559 517.5777 751.9559 498.5377 751.9559C479.4877 751.9559 465.3277 739.2559 465.3277 718.7459V419.9259H347.6577C329.5877 419.9259 318.3577 408.2059 318.3577 390.1359Z"/>
</svg>