<?xml version="1.0" encoding="UTF-8" standalone="no"?>
<svg xmlns="http://www.w3.org/2000/svg"
     width="996.09375" height="996.09375"
     viewBox="0 0 996.09375 996.09375"
     fill="currentColor">
  <path d="M498.0477 996.0959C770.5077 996.0959 996.0977 770.0159 996.0977 498.0459C996.0977 225.5859 770.0177 -0.0041 497.5577 -0.0041C225.5877 -0.0041 -0.0023 225.5859 -0.0023 498.0459C-0.0023 770.0159 226.0777 996.0959 498.0477 996.0959ZM498.0477 913.0859C267.5777 913.0859 83.4977 728.5159 83.4977 498.0459C83.4977 267.5759 267.0877 83.0059 497.5577 83.0059C728.0277 83.0059 913.0877 267.5759 913.0877 498.0459C913.0877 728.5159 728.5177 913.0859 498.0477 913.0859ZM497.0677 761.2259C504.3977 761.2259 512.2077 761.2259 519.5277 760.2559C512.6977 740.7259 509.7677 720.2159 509.7677 698.7259C509.7677 588.3759 598.6377 498.5359 709.4777 498.5359C726.5577 498.5359 742.6777 500.9759 759.2777 505.3759V499.5159C759.2777 355.9559 640.1377 237.3059 497.0677 237.3059C489.7477 237.3059 483.3977 237.7959 476.0777 238.2859C482.4177 257.3259 485.3477 277.3459 485.3477 298.8259C485.3477 409.1759 395.9977 498.5359 285.6477 498.5359C268.5577 498.5359 251.4677 496.5859 235.3477 492.1859C235.3477 494.6259 235.3477 497.0659 235.3477 499.5159C235.3477 642.5759 354.0077 761.2259 497.0677 761.2259ZM239.2577 455.5659C253.4177 459.4759 269.0477 461.4259 285.6477 461.4259C377.9277 461.4259 448.2377 391.6059 448.2377 298.8259C448.2377 279.2959 445.3077 261.2259 438.9677 244.1359C336.9177 267.5759 257.3277 351.5659 239.2577 455.5659ZM556.6377 754.3959C658.2077 729.9759 738.2777 645.9959 755.3677 542.4759C740.7277 538.0859 726.0777 535.6459 709.4777 535.6459C616.6977 535.6459 546.8777 605.9559 546.8777 698.7259C546.8777 718.7459 549.8077 737.3059 556.6377 754.3959Z"/>
</svg>