<?xml version="1.0" encoding="UTF-8" standalone="no"?>
<svg xmlns="http://www.w3.org/2000/svg"
     width="996.09375" height="996.09375"
     viewBox="0 0 996.09375 996.09375"
     fill="currentColor">
  <path d="M498.0477 996.0959C770.5077 996.0959 996.0977 770.0159 996.0977 498.0459C996.0977 225.5859 770.0177 -0.0041 497.5577 -0.0041C225.5877 -0.0041 -0.0023 225.5859 -0.0023 498.0459C-0.0023 770.0159 226.0777 996.0959 498.0477 996.0959ZM497.0677 769.5359C349.6077 769.5359 227.0477 646.9759 227.0477 499.5159C227.0477 497.0659 227.0477 494.6259 227.0477 492.1859C243.6477 496.5859 261.2277 498.5359 278.8077 498.5359C393.0677 498.5359 484.8677 406.2459 484.8677 292.4759C484.8677 270.5059 481.9377 249.5159 475.5877 229.9759C482.9077 229.4959 489.7477 229.0059 497.0677 229.0059C644.5277 229.0059 767.5777 351.5659 767.5777 499.5159V505.3759C750.4877 500.9759 733.8877 498.5359 716.3077 498.5359C601.5577 498.5359 510.2577 591.3059 510.2577 705.0759C510.2577 727.0459 513.1877 748.5359 520.0177 768.5559C512.6977 769.5359 504.3977 769.5359 497.0677 769.5359ZM230.9577 454.1059C249.9977 347.1659 332.0277 260.2559 437.0077 236.3259C443.8477 253.9059 446.7777 272.4559 446.7777 292.4759C446.7777 388.1859 374.0277 460.4459 278.8077 460.4459C261.7177 460.4459 245.6077 458.0059 230.9577 454.1059ZM558.5977 762.2059C551.2677 744.6259 548.3377 725.5859 548.3377 705.0759C548.3377 609.3759 620.6077 536.6259 716.3077 536.6259C733.3977 536.6259 748.5377 539.0659 763.6677 543.9459C746.0977 650.3859 663.0877 737.3059 558.5977 762.2059Z"/>
</svg>