<?xml version="1.0" encoding="UTF-8" standalone="no"?>
<svg xmlns="http://www.w3.org/2000/svg"
     width="996.09375" height="996.09375"
     viewBox="0 0 996.09375 996.09375"
     fill="currentColor">
  <path d="M498.0477 996.0959C770.5077 996.0959 996.0977 770.0159 996.0977 498.0459C996.0977 225.5859 770.0177 -0.0041 497.5577 -0.0041C225.5877 -0.0041 -0.0023 225.5859 -0.0023 498.0459C-0.0023 770.0159 226.0777 996.0959 498.0477 996.0959ZM498.0477 913.0859C267.5777 913.0859 83.4977 728.5159 83.4977 498.0459C83.4977 267.5759 267.0877 83.0059 497.5577 83.0059C728.0277 83.0059 913.0877 267.5759 913.0877 498.0459C913.0877 728.5159 728.5177 913.0859 498.0477 913.0859ZM237.3077 739.2559L253.9077 756.3459C265.6277 768.0659 282.7177 768.0659 294.4377 756.3459L391.1177 659.1759C399.8977 649.9059 402.3477 638.1859 397.4577 627.9259C454.5877 577.6359 494.6277 572.7559 562.4977 570.7959C614.2577 569.3359 666.5077 552.7359 708.9877 510.7459C781.2477 437.9859 790.0377 329.5859 727.0477 267.0859C664.0577 204.5859 555.6677 212.8859 483.3977 284.6659C441.8977 327.1459 423.8277 380.3759 423.8277 431.1559C422.8477 498.0459 416.5077 539.0659 366.6977 596.1959C355.9577 590.8159 343.7477 592.7759 334.4777 602.0459L237.3077 699.7059C226.0777 711.4259 225.5877 727.5359 237.3077 739.2559ZM570.3077 277.3459C593.2577 267.5759 617.1877 264.6459 639.1577 268.0659L600.0977 307.1259ZM696.2877 297.3659C704.0977 305.1759 710.4477 313.9659 715.3277 323.2459L666.0177 373.0459L624.9977 332.0359L675.7777 281.2459C683.1077 285.6459 689.9377 291.0159 696.2877 297.3659ZM514.6477 315.4259C521.9777 307.6159 530.2777 300.7859 538.5777 294.9259L575.1977 332.0359L531.7377 375.9759L494.6277 338.8659C500.4877 330.5659 506.8377 322.7559 514.6477 315.4259ZM556.1477 400.3859L600.0977 356.9359L641.1177 397.9459L597.6577 441.8959ZM690.9177 397.9459L726.5577 362.3059C728.5177 382.3259 725.0977 403.3159 716.7977 423.8259ZM476.5577 370.1159L506.8377 400.3859L466.7977 440.4259C462.8877 417.9659 466.3077 394.0459 476.5577 370.1159ZM678.7077 479.9759C670.8977 487.3059 663.5777 494.1359 655.2777 499.5159L622.0677 466.3059L666.0177 422.8559L699.2177 456.0559C693.3577 464.3559 686.5277 472.1659 678.7077 479.9759ZM496.0977 498.0459C489.7477 491.6959 484.3777 484.3759 479.9777 477.0459L531.7377 425.2959L572.7577 466.7959L522.9477 517.0859C513.1877 512.2059 503.9077 505.8559 496.0977 498.0459ZM560.5477 527.8359L597.6577 491.2059L623.5377 517.5759C602.5377 526.3659 581.0577 529.7859 560.5477 527.8359Z"/>
</svg>