<?xml version="1.0" encoding="UTF-8" standalone="no"?>
<svg xmlns="http://www.w3.org/2000/svg"
     width="996.09375" height="996.09375"
     viewBox="0 0 996.09375 996.09375"
     fill="currentColor">
  <path d="M498.0477 996.0977C770.5077 996.0977 996.0977 770.5077 996.0977 498.0477C996.0977 226.0777 770.0177 -0.0023 497.5577 -0.0023C225.5877 -0.0023 -0.0023 226.0777 -0.0023 498.0477C-0.0023 770.5077 226.0777 996.0977 498.0477 996.0977ZM373.5377 708.9877C345.2177 708.9877 336.9177 683.1077 348.1477 661.1377L363.2777 631.8377H177.2477C153.3177 631.8377 145.5077 608.8877 154.7877 590.3277L301.7577 295.8977C306.6377 285.1577 316.8977 278.3177 327.6377 278.3177C338.3777 278.3177 348.1477 285.1577 354.0077 295.8977L442.8677 472.6577L549.8077 257.8077C555.6677 245.1177 567.3877 237.3077 580.0777 237.3077C593.2577 237.3077 604.4877 245.6077 610.8377 258.2977L812.0077 661.1377C822.7577 683.1077 814.9377 708.9877 785.6477 708.9877ZM244.6277 593.7477H300.7777L327.6377 477.5377L354.4877 593.7477H382.3277L396.9777 564.4577L338.3777 441.4077C336.4277 436.0377 331.5477 434.0777 327.6377 434.0777C322.7577 434.0777 319.8277 436.0377 317.8677 441.4077ZM464.8477 671.8777H543.4577L580.0777 509.7677L616.6977 671.8777H695.3077L594.7277 459.4677C591.3077 453.1277 585.9377 449.7077 580.0777 449.7077C573.7277 449.7077 568.3577 453.1277 565.4277 459.4677Z"/>
</svg>