<?xml version="1.0" encoding="UTF-8" standalone="no"?>
<svg xmlns="http://www.w3.org/2000/svg"
     width="1404.6453154289459" height="995.1171875"
     viewBox="0 0 1404.6453154289459 995.1171875"
     fill="currentColor">
  <path d="M56.6588 831.5469H447.2888L416.5188 893.5569C393.0888 939.9369 410.1788 995.1169 470.7188 995.1169H1340.3488C1400.8988 995.1169 1417.9888 939.9369 1394.5488 893.5569L970.7188 43.4569C957.0488 16.1169 932.1488 -0.0031 905.7788 -0.0031C878.9288 -0.0031 854.0188 16.1169 840.8388 43.4569L615.2488 495.1169L429.7088 123.5369C417.9888 101.0769 396.9888 85.9369 373.5488 85.9369C350.1188 85.9369 329.1188 101.0769 317.3988 123.5369L8.3188 743.1669C-11.7012 782.7169 4.4088 831.5469 56.6588 831.5469ZM502.9488 920.4069C492.6988 920.4069 490.7388 912.5969 495.1388 903.3169L898.9488 93.7469C901.8688 87.8869 909.1988 87.8869 912.1288 93.7469L1315.9388 903.3169C1320.8188 913.0869 1318.8688 920.4069 1309.5888 920.4069H1151.8688L936.5388 468.2569C929.7088 454.0969 917.9888 447.2669 905.7788 447.2669C893.0888 447.2669 881.3688 454.0969 874.5288 468.2569L659.6888 920.4069ZM91.8188 756.8369C87.4188 756.8369 86.4488 753.4169 88.3988 749.9969L369.6488 184.5669C371.1088 181.1569 375.9988 181.1569 377.4588 184.5669L573.7488 578.1269L519.5488 687.4969L396.4988 428.7069C391.6188 417.9669 382.8288 413.0869 373.5488 413.0869C364.7688 413.0869 356.4588 417.9669 351.5788 428.7069L194.8388 756.8369ZM373.5488 505.8569L431.6588 756.8369H315.4488ZM905.7788 574.2169L985.3688 920.4069H825.6988Z"/>
</svg>