<?xml version="1.0" encoding="UTF-8" standalone="no"?>
<svg xmlns="http://www.w3.org/2000/svg"
     width="1151.3671875" height="898.92578125"
     viewBox="0 0 1151.3671875 898.92578125"
     fill="currentColor">
  <path d="M153.3183 898.9278H998.0483C1100.5883 898.9278 1151.3683 848.6378 1151.3683 748.0478V151.3678C1151.3683 50.7778 1100.5883 -0.0022 998.0483 -0.0022H153.3183C51.2683 -0.0022 -0.0017 50.7778 -0.0017 151.3678V748.0478C-0.0017 848.6378 51.2683 898.9278 153.3183 898.9278ZM203.1283 379.3978L324.2183 305.6678L203.1283 232.9078C163.0883 208.4978 196.7783 148.9278 240.7183 176.2678L385.2583 266.5978C412.5983 284.1778 414.0583 327.1478 385.2583 345.2178L240.7183 436.0378C196.7783 463.3778 163.5783 402.8278 203.1283 379.3978ZM415.5283 435.0578C415.5283 416.9878 429.6883 402.3478 447.7583 402.3478H639.6483C658.1983 402.3478 672.3683 416.9878 672.3683 435.0578C672.3683 453.1278 658.1983 467.7778 639.6483 467.7778H447.7583C429.6883 467.7778 415.5283 453.1278 415.5283 435.0578Z"/>
</svg>