<?xml version="1.0" encoding="UTF-8" standalone="no"?>
<svg xmlns="http://www.w3.org/2000/svg"
     width="868.1640625" height="844.7265625"
     viewBox="0 0 868.1640625 844.7265625"
     fill="currentColor">
  <path d="M41.0183 721.1889C66.8983 721.1889 79.5883 711.4289 88.8683 684.0789L151.8583 511.7189H439.9383L502.9283 684.0789C512.2083 711.4289 524.8983 721.1889 550.2883 721.1889C576.1683 721.1889 592.7783 705.5689 592.7783 681.1489C592.7783 672.8489 591.3083 665.0389 587.3983 654.7889L358.3983 44.9189C347.1683 15.1389 327.1483 -0.0011 295.8983 -0.0011C265.6283 -0.0011 245.1183 14.6489 234.3783 44.4289L5.3683 655.2689C1.4683 665.5289 -0.0017 673.3389 -0.0017 681.6389C-0.0017 706.0589 15.6283 721.1889 41.0183 721.1889ZM175.7783 437.4989L294.4383 108.8889H296.8783L415.5283 437.4989ZM832.0283 844.7289C854.0083 844.7289 868.1683 830.5689 868.1683 810.0589V476.0789C868.1683 451.6589 853.0283 437.0089 829.0983 437.0089C807.6183 437.0089 796.8783 444.8289 782.7183 455.0789L704.5883 508.2989C690.9183 518.0689 685.0583 526.3689 685.0583 537.1089C685.0583 553.2189 697.2683 565.4289 712.3983 565.4289C722.1683 565.4289 728.5183 562.4989 738.2783 555.6689L794.9183 517.5789H796.3883V810.0589C796.3883 830.5689 811.0383 844.7289 832.0283 844.7289Z"/>
</svg>