<?xml version="1.0" encoding="UTF-8" standalone="no"?>
<svg xmlns="http://www.w3.org/2000/svg"
     width="983.88671875" height="840.8203125"
     viewBox="0 0 983.88671875 840.8203125"
     fill="currentColor">
  <path d="M36.6183 73.7341H946.2883C966.7983 73.7341 983.8883 57.6141 983.8883 36.6241C983.8883 16.1141 966.7983 0.0041 946.2883 0.0041H36.6183C16.1183 0.0041 -0.0017 16.1141 -0.0017 36.6241C-0.0017 57.6141 16.1183 73.7341 36.6183 73.7341ZM217.2883 329.5941H766.1183C786.6183 329.5941 803.2183 313.4741 803.2183 292.4841C803.2183 271.9741 786.6183 255.8641 766.1183 255.8641H217.2883C196.2883 255.8641 180.1783 271.9741 180.1783 292.4841C180.1783 313.4741 196.2883 329.5941 217.2883 329.5941ZM36.6183 585.4541H946.2883C966.7983 585.4541 983.8883 568.8441 983.8883 548.3441C983.8883 527.8341 966.7983 511.7141 946.2883 511.7141H36.6183C16.1183 511.7141 -0.0017 527.8341 -0.0017 548.3441C-0.0017 568.8441 16.1183 585.4541 36.6183 585.4541ZM217.2883 840.8241H766.1183C786.6183 840.8241 803.2183 824.7041 803.2183 804.2041C803.2183 783.6941 786.6183 767.0941 766.1183 767.0941H217.2883C196.2883 767.0941 180.1783 783.6941 180.1783 804.2041C180.1783 824.7041 196.2883 840.8241 217.2883 840.8241Z"/>
</svg>