<?xml version="1.0" encoding="UTF-8" standalone="no"?>
<svg xmlns="http://www.w3.org/2000/svg"
     width="1112.3046875" height="721.19140625"
     viewBox="0 0 1112.3046875 721.19140625"
     fill="currentColor">
  <path d="M560.5483 721.1889C585.9383 721.1889 599.1183 711.4289 608.3983 684.0789L671.3883 511.7189H959.4683L1022.4583 684.0789C1031.7383 711.4289 1044.4383 721.1889 1069.8283 721.1889C1095.6983 721.1889 1112.3083 705.5689 1112.3083 681.1489C1112.3083 672.8489 1110.8383 665.0389 1106.9383 654.7889L877.9283 44.9189C866.6983 15.1389 846.6783 -0.0011 815.4283 -0.0011C785.1583 -0.0011 764.6483 14.6489 753.9083 44.4289L524.8983 655.2689C520.9983 665.5289 519.5283 673.3389 519.5283 681.6389C519.5283 706.0589 535.1583 721.1889 560.5483 721.1889ZM695.3083 437.4989L813.9683 108.8889H816.4083L935.0583 437.4989ZM40.5283 719.7289C60.5483 719.7289 73.7283 709.4689 81.5383 685.5489L122.0683 565.9189H312.9883L353.5183 685.5489C361.3283 710.4489 374.5083 719.7289 395.0183 719.7289C419.4383 719.7289 436.0383 704.5889 436.0383 682.6189C436.0383 672.8489 433.5983 663.5789 429.6883 653.3189L277.8283 249.9989C266.5983 220.2189 246.0983 204.5889 217.2883 204.5889C188.9683 204.5889 168.4583 219.2389 157.2283 249.9989L5.3683 653.3189C1.4683 662.5989 -0.0017 672.3589 -0.0017 682.6189C-0.0017 705.0789 15.6283 719.7289 40.5283 719.7289ZM143.5583 502.4389L211.9183 298.8289H223.1483L291.5083 502.4389Z"/>
</svg>