<?xml version="1.0" encoding="UTF-8" standalone="no"?>
<svg xmlns="http://www.w3.org/2000/svg"
     width="983.88671875" height="840.8203125"
     viewBox="0 0 983.88671875 840.8203125"
     fill="currentColor">
  <path d="M36.6183 73.7341H946.2883C966.7983 73.7341 983.8883 57.6141 983.8883 36.6241C983.8883 16.1141 966.7983 0.0041 946.2883 0.0041H36.6183C16.1183 0.0041 -0.0017 16.1141 -0.0017 36.6241C-0.0017 57.6141 16.1183 73.7341 36.6183 73.7341ZM397.4583 329.5941H946.2883C966.7983 329.5941 983.8883 313.4741 983.8883 292.4841C983.8883 271.9741 966.7983 255.8641 946.2883 255.8641H397.4583C376.4683 255.8641 360.3483 271.9741 360.3483 292.4841C360.3483 313.4741 376.4683 329.5941 397.4583 329.5941ZM36.6183 585.4541H946.2883C966.7983 585.4541 983.8883 568.8441 983.8883 548.3441C983.8883 527.8341 966.7983 511.7141 946.2883 511.7141H36.6183C16.1183 511.7141 -0.0017 527.8341 -0.0017 548.3441C-0.0017 568.8441 16.1183 585.4541 36.6183 585.4541ZM397.4583 840.8241H946.2883C966.7983 840.8241 983.8883 824.7041 983.8883 804.2041C983.8883 783.6941 966.7983 767.0941 946.2883 767.0941H397.4583C376.4683 767.0941 360.3483 783.6941 360.3483 804.2041C360.3483 824.7041 376.4683 840.8241 397.4583 840.8241Z"/>
</svg>