<?xml version="1.0" encoding="UTF-8" standalone="no"?>
<svg xmlns="http://www.w3.org/2000/svg"
     width="983.88671875" height="840.8203125"
     viewBox="0 0 983.88671875 840.8203125"
     fill="currentColor">
  <path d="M36.6183 73.7341H585.4483C605.9583 73.7341 622.5583 57.6141 622.5583 36.6241C622.5583 16.1141 605.9583 0.0041 585.4483 0.0041H36.6183C16.1183 0.0041 -0.0017 16.1141 -0.0017 36.6241C-0.0017 57.6141 16.1183 73.7341 36.6183 73.7341ZM731.4483 73.7341H946.2883C966.7983 73.7341 983.8883 57.6141 983.8883 36.6241C983.8883 16.1141 966.7983 0.0041 946.2883 0.0041H731.4483C710.9383 0.0041 694.8283 16.1141 694.8283 36.6241C694.8283 57.6141 710.9383 73.7341 731.4483 73.7341ZM37.1083 329.5941H140.1383C161.1283 329.5941 177.2483 313.4741 177.2483 292.4841C177.2483 271.9741 161.1283 255.8641 140.1383 255.8641H37.1083C16.5983 255.8641 -0.0017 271.9741 -0.0017 292.4841C-0.0017 313.4741 16.5983 329.5941 37.1083 329.5941ZM286.6183 329.5941H543.4583C564.4483 329.5941 580.5683 313.4741 580.5683 292.4841C580.5683 271.9741 564.4483 255.8641 543.4583 255.8641H286.6183C266.1183 255.8641 249.5083 271.9741 249.5083 292.4841C249.5083 313.4741 266.1183 329.5941 286.6183 329.5941ZM689.9383 329.5941H946.7783C967.2883 329.5941 983.8883 313.4741 983.8883 292.4841C983.8883 271.9741 967.2883 255.8641 946.7783 255.8641H689.9383C669.4383 255.8641 652.3483 271.9741 652.3483 292.4841C652.3483 313.4741 669.4383 329.5941 689.9383 329.5941ZM37.1083 585.4541H251.9483C272.4583 585.4541 289.0583 568.8441 289.0583 548.3441C289.0583 527.8341 272.4583 511.7141 251.9483 511.7141H37.1083C16.5983 511.7141 -0.0017 527.8341 -0.0017 548.3441C-0.0017 568.8441 16.5983 585.4541 37.1083 585.4541ZM398.4383 585.4541H946.7783C967.2883 585.4541 983.8883 568.8441 983.8883 548.3441C983.8883 527.8341 967.2883 511.7141 946.7783 511.7141H398.4383C377.4383 511.7141 360.8383 527.8341 360.8383 548.3441C360.8383 568.8441 377.4383 585.4541 398.4383 585.4541ZM36.6183 840.8241H559.0783C579.5883 840.8241 596.1883 824.7041 596.1883 804.2041C596.1883 783.6941 579.5883 767.0941 559.0783 767.0941H36.6183C16.1183 767.0941 -0.0017 783.6941 -0.0017 804.2041C-0.0017 824.7041 16.1183 840.8241 36.6183 840.8241Z"/>
</svg>