<?xml version="1.0" encoding="UTF-8" standalone="no"?>
<svg xmlns="http://www.w3.org/2000/svg"
     width="1137.20703125" height="725.09765625"
     viewBox="0 0 1137.20703125 725.09765625"
     fill="currentColor">
  <path d="M41.0183 721.1889C66.8983 721.1889 79.5883 711.4289 88.8683 684.0789L151.8583 511.7189H439.9383L502.9283 684.0789C512.2083 711.4289 524.8983 721.1889 550.2883 721.1889C576.1683 721.1889 592.7783 705.5689 592.7783 681.1489C592.7783 672.8489 591.3083 665.0389 587.3983 654.7889L358.3983 44.9189C347.1683 15.1389 327.1483 -0.0011 295.8983 -0.0011C265.6283 -0.0011 245.1183 14.6489 234.3783 44.4289L5.3683 655.2689C1.4683 665.5289 -0.0017 673.3389 -0.0017 681.6389C-0.0017 706.0589 15.6283 721.1889 41.0183 721.1889ZM175.7783 437.4989L294.4383 108.8889H296.8783L415.5283 437.4989ZM878.9083 724.6089C962.3983 724.6089 1025.8783 685.0589 1055.6683 614.7489H1058.5983V684.0789C1058.5983 709.4689 1074.7083 725.0989 1097.6583 725.0989C1121.0983 725.0989 1137.2083 708.9889 1137.2083 683.5889V220.6989C1137.2083 195.7989 1121.0983 178.2189 1097.6583 178.2189C1074.7083 178.2189 1058.5983 195.7989 1058.5983 220.6989V289.5489H1055.6683C1025.8783 220.6989 959.4683 179.1989 878.9083 179.1989C746.5783 179.1989 658.1983 289.0589 658.1983 452.1489C658.1983 616.2089 746.5783 724.6089 878.9083 724.6089ZM898.4383 653.3189C803.2183 653.3189 742.6783 575.6789 742.6783 452.1489C742.6783 328.6089 803.2183 250.4889 898.4383 250.4889C993.6483 250.4889 1056.1483 331.0589 1056.1483 453.1289C1056.1483 575.1989 994.6283 653.3189 898.4383 653.3189Z"/>
</svg>