<?xml version="1.0" encoding="UTF-8" standalone="no"?>
<svg xmlns="http://www.w3.org/2000/svg"
     width="983.88671875" height="841.30859375"
     viewBox="0 0 983.88671875 841.30859375"
     fill="currentColor">
  <path d="M134.7683 361.8123C196.7783 361.8123 248.0483 320.3123 248.0483 254.3923C248.0483 191.8923 205.5683 150.8823 147.4583 150.8823C117.6783 150.8823 94.7283 162.6023 80.5683 185.0623C95.6983 115.7223 147.9483 70.3123 219.2383 66.8923C237.7883 65.9223 251.4683 52.7323 251.4683 34.1823C251.4683 11.7223 232.9083 0.0023 208.9883 0.0023C98.6283 0.0023 1.4683 93.7523 1.4683 217.2823C1.4683 305.1723 60.0583 361.8123 134.7683 361.8123ZM433.5983 361.8123C495.6083 361.8123 547.3683 320.3123 547.3683 254.3923C547.3683 191.8923 504.8783 150.8823 446.2883 150.8823C416.9883 150.8823 394.0383 162.6023 379.8783 185.0623C395.0183 115.7223 447.2683 69.8223 517.5783 66.8923C536.6183 65.9223 550.7783 52.7323 550.7783 34.1823C550.7783 11.7223 532.7183 0.0023 507.8083 0.0023C398.4383 0.0023 300.2883 93.7523 300.2883 217.2823C300.2883 305.1723 359.3783 361.8123 433.5983 361.8123ZM670.8983 74.2223H946.2883C966.7983 74.2223 983.8883 58.1023 983.8883 37.1123C983.8883 16.6023 966.7983 0.4923 946.2883 0.4923H670.8983C650.3883 0.4923 634.2783 16.6023 634.2783 37.1123C634.2783 58.1023 650.3883 74.2223 670.8983 74.2223ZM670.8983 330.0823H946.2883C966.7983 330.0823 983.8883 313.9623 983.8883 292.9723C983.8883 272.4623 966.7983 256.3523 946.2883 256.3523H670.8983C650.3883 256.3523 634.2783 272.4623 634.2783 292.9723C634.2783 313.9623 650.3883 330.0823 670.8983 330.0823ZM36.6183 585.9423H946.2883C966.7983 585.9423 983.8883 569.3323 983.8883 548.8323C983.8883 528.3223 966.7983 512.2023 946.2883 512.2023H36.6183C16.1183 512.2023 -0.0017 528.3223 -0.0017 548.8323C-0.0017 569.3323 16.1183 585.9423 36.6183 585.9423ZM36.6183 841.3123H946.2883C966.7983 841.3123 983.8883 825.1923 983.8883 804.6923C983.8883 784.1823 966.7983 767.5823 946.2883 767.5823H36.6183C16.1183 767.5823 -0.0017 784.1823 -0.0017 804.6923C-0.0017 825.1923 16.1183 841.3123 36.6183 841.3123Z"/>
</svg>