<?xml version="1.0" encoding="UTF-8" standalone="no"?>
<svg xmlns="http://www.w3.org/2000/svg"
     width="983.88671875" height="840.8203125"
     viewBox="0 0 983.88671875 840.8203125"
     fill="currentColor">
  <path d="M36.6183 73.7341H946.2883C966.7983 73.7341 983.8883 57.6141 983.8883 36.6241C983.8883 16.1141 966.7983 0.0041 946.2883 0.0041H36.6183C16.1183 0.0041 -0.0017 16.1141 -0.0017 36.6241C-0.0017 57.6141 16.1183 73.7341 36.6183 73.7341ZM36.6183 329.5941H585.9383C606.4483 329.5941 623.0483 313.4741 623.0483 292.4841C623.0483 271.9741 606.4483 255.8641 585.9383 255.8641H36.6183C16.1183 255.8641 -0.0017 271.9741 -0.0017 292.4841C-0.0017 313.4741 16.1183 329.5941 36.6183 329.5941ZM36.6183 585.4541H946.2883C966.7983 585.4541 983.8883 568.8441 983.8883 548.3441C983.8883 527.8341 966.7983 511.7141 946.2883 511.7141H36.6183C16.1183 511.7141 -0.0017 527.8341 -0.0017 548.3441C-0.0017 568.8441 16.1183 585.4541 36.6183 585.4541ZM36.6183 840.8241H585.9383C606.4483 840.8241 623.0483 824.7041 623.0483 804.2041C623.0483 783.6941 606.4483 767.0941 585.9383 767.0941H36.6183C16.1183 767.0941 -0.0017 783.6941 -0.0017 804.2041C-0.0017 824.7041 16.1183 840.8241 36.6183 840.8241Z"/>
</svg>