<?xml version="1.0" encoding="UTF-8" standalone="no"?>
<svg xmlns="http://www.w3.org/2000/svg"
     width="1291.50390625" height="940.7051880146561"
     viewBox="0 0 1291.50390625 940.7051880146561"
     fill="currentColor">
  <path d="M344.7238 73.7336H1254.3938C1274.9038 73.7336 1291.5038 57.6136 1291.5038 37.1136C1291.5038 16.1136 1274.9038 0.0036 1254.3938 0.0036H344.7238C324.2238 0.0036 308.1038 16.1136 308.1038 37.1136C308.1038 57.6136 324.2238 73.7336 344.7238 73.7336ZM344.7238 324.7036H1254.3938C1274.9038 324.7036 1291.5038 308.5936 1291.5038 288.0836C1291.5038 267.0936 1274.9038 250.9736 1254.3938 250.9736H344.7238C324.2238 250.9736 308.1038 267.0936 308.1038 288.0836C308.1038 308.5936 324.2238 324.7036 344.7238 324.7036ZM344.7238 575.6836H1254.3938C1274.9038 575.6836 1291.5038 559.5736 1291.5038 539.0636C1291.5038 518.0636 1274.9038 501.9536 1254.3938 501.9536H344.7238C324.2238 501.9536 308.1038 518.0636 308.1038 539.0636C308.1038 559.5736 324.2238 575.6836 344.7238 575.6836ZM51.2738 934.0836L214.3538 834.9636C239.7438 819.8236 240.2338 790.5236 214.3538 775.3936L51.2738 676.2736C25.8838 660.1536 0.0037 672.3636 0.0037 703.1236V906.7336C0.0037 936.5236 24.9038 949.7036 51.2738 934.0836ZM369.6338 883.7936H1229.9838C1270.9938 883.7936 1291.5038 863.2836 1291.5038 823.2436V787.1136C1291.5038 746.0936 1270.9938 725.5836 1229.9838 725.5836H369.6338C328.6138 725.5836 308.1038 746.0936 308.1038 787.1136V823.2436C308.1038 863.2836 328.6138 883.7936 369.6338 883.7936Z"/>
</svg>