<?xml version="1.0" encoding="UTF-8" standalone="no"?>
<svg xmlns="http://www.w3.org/2000/svg"
     width="983.88671875" height="840.8203125"
     viewBox="0 0 983.88671875 840.8203125"
     fill="currentColor">
  <path d="M36.6183 73.7261H946.2883C966.7983 73.7261 983.8883 57.1261 983.8883 36.6161C983.8883 16.1161 966.7983 -0.0039 946.2883 -0.0039H36.6183C16.1183 -0.0039 -0.0017 16.1161 -0.0017 36.6161C-0.0017 57.1261 16.1183 73.7261 36.6183 73.7261ZM36.6183 329.1061H946.2883C966.7983 329.1061 983.8883 312.9861 983.8883 292.4761C983.8883 271.9761 966.7983 255.3661 946.2883 255.3661H36.6183C16.1183 255.3661 -0.0017 271.9761 -0.0017 292.4761C-0.0017 312.9861 16.1183 329.1061 36.6183 329.1061ZM0.4883 506.8361V617.1861C0.4883 686.5261 49.3183 729.0061 118.1683 729.0061H262.2083V779.7861C262.2083 819.3361 299.8083 834.4761 330.5683 809.5661L462.8883 703.6161C482.9083 687.9861 482.9083 660.1561 462.8883 644.0461L330.5683 538.5761C300.7783 515.1361 262.2083 529.7861 262.2083 568.3561V617.1861H128.9083C117.6783 617.1861 112.3083 610.8361 112.3083 600.0961V506.8361C112.3083 467.2861 91.7983 442.3861 56.1483 442.3861C20.5083 442.3861 0.4883 467.2861 0.4883 506.8361ZM612.3083 584.9561H946.2883C966.7983 584.9561 983.8883 568.8461 983.8883 548.3361C983.8883 527.3461 966.7983 511.2261 946.2883 511.2261H612.3083C591.7983 511.2261 575.6883 527.3461 575.6883 548.3361C575.6883 568.8461 591.7983 584.9561 612.3083 584.9561ZM612.3083 840.8161H946.2883C966.7983 840.8161 983.8883 824.7061 983.8883 804.1961C983.8883 783.2061 966.7983 767.0861 946.2883 767.0861H612.3083C591.7983 767.0861 575.6883 783.2061 575.6883 804.1961C575.6883 824.7061 591.7983 840.8161 612.3083 840.8161Z"/>
</svg>