<?xml version="1.0" encoding="UTF-8" standalone="no"?>
<svg xmlns="http://www.w3.org/2000/svg"
     width="917.96875" height="721.6796875"
     viewBox="0 0 917.96875 721.6796875"
     fill="currentColor">
  <path d="M471.6783 711.9155H877.4383C901.8583 711.9155 917.9683 696.2855 917.9683 672.8555C917.9683 649.4155 901.8583 633.3055 877.4383 633.3055H552.2483V630.8555L743.1683 443.8455C858.3983 331.0555 893.5583 272.4655 893.5583 197.7555C893.5583 85.4455 794.4383 -0.0045 662.1083 -0.0045C558.1083 -0.0045 469.2383 56.6455 439.4483 142.5755C433.5983 158.6955 431.1483 172.8555 431.1483 185.0555C431.1483 209.4755 445.7983 225.5855 469.7283 225.5855C492.6783 225.5855 502.4383 214.8455 509.7683 190.4255C513.6683 175.2955 519.0383 161.1355 526.8583 148.9255C552.7383 104.9755 601.0783 77.6355 662.1083 77.6355C740.7183 77.6355 804.1983 133.3055 804.1983 202.6355C804.1983 258.7855 780.7583 296.3855 684.5683 392.0855L456.0583 620.6055C435.5483 640.6255 428.7083 653.3155 428.7083 670.8955C428.7083 696.2855 445.7983 711.9155 471.6783 711.9155ZM249.0283 721.6755C275.8783 721.6755 293.4583 704.1055 293.4583 677.2455V53.2255C293.4583 21.4855 273.4383 3.9055 243.1683 3.9055C220.6983 3.9055 208.4983 10.7455 187.9883 23.9255L25.3883 129.3955C6.3483 142.0855 -0.0017 153.3155 -0.0017 169.4355C-0.0017 189.4555 14.6483 204.1055 36.1283 204.1055C49.3183 204.1055 55.6683 200.1955 64.4483 194.3355L203.6183 106.9355H205.5683V677.2455C205.5683 704.1055 222.1683 721.6755 249.0283 721.6755Z"/>
</svg>