<?xml version="1.0" encoding="UTF-8" standalone="no"?>
<svg xmlns="http://www.w3.org/2000/svg"
     width="1490.72265625" height="722.65625"
     viewBox="0 0 1490.72265625 722.65625"
     fill="currentColor">
  <path d="M471.6783 711.9155H877.4383C901.8583 711.9155 917.9683 696.2855 917.9683 672.8555C917.9683 649.4155 901.8583 633.3055 877.4383 633.3055H552.2483V630.8555L743.1683 443.8455C858.3983 331.0555 893.5583 272.4655 893.5583 197.7555C893.5583 85.4455 794.4383 -0.0045 662.1083 -0.0045C558.1083 -0.0045 469.2383 56.6455 439.4483 142.5755C433.5983 158.6955 431.1483 172.8555 431.1483 185.0555C431.1483 209.4755 445.7983 225.5855 469.7283 225.5855C492.6783 225.5855 502.4383 214.8455 509.7683 190.4255C513.6683 175.2955 519.0383 161.1355 526.8583 148.9255C552.7383 104.9755 601.0783 77.6355 662.1083 77.6355C740.7183 77.6355 804.1983 133.3055 804.1983 202.6355C804.1983 258.7855 780.7583 296.3855 684.5683 392.0855L456.0583 620.6055C435.5483 640.6255 428.7083 653.3155 428.7083 670.8955C428.7083 696.2855 445.7983 711.9155 471.6783 711.9155ZM1233.8883 722.6555C1383.2983 722.6555 1490.7183 635.2555 1490.7183 516.1155C1490.7183 419.4355 1420.8983 355.9555 1310.0583 348.6355V346.6755C1402.8283 331.0555 1460.4483 269.0455 1460.4483 182.1255C1460.4483 76.6555 1364.7483 -0.0045 1231.4483 -0.0045C1130.8583 -0.0045 1049.8083 44.4355 1015.1383 117.1855C1005.8583 135.2555 1001.9483 151.8555 1001.9483 170.8955C1001.9483 193.8455 1017.5783 209.4755 1040.0383 209.4755C1062.0083 209.4755 1071.7783 200.1955 1079.0983 177.7355C1100.0983 113.7655 1154.2983 77.1455 1228.5183 77.1455C1315.9183 77.1455 1372.0683 123.0455 1372.0683 193.3555C1372.0683 266.6055 1312.0083 314.9455 1224.6083 314.9455H1170.8983C1147.4583 314.9455 1132.3283 329.1055 1132.3283 351.5655C1132.3283 373.5355 1147.4583 388.1855 1170.8983 388.1855H1225.5883C1333.9883 388.1855 1398.4383 434.0855 1398.4383 515.6255C1398.4383 590.8155 1331.0583 643.5555 1234.3783 643.5555C1149.8983 643.5555 1089.8483 606.4455 1067.8683 541.9955C1060.0583 520.9955 1048.3383 511.2255 1027.3483 511.2255C1002.4383 511.2255 985.8383 527.3455 985.8383 552.7355C985.8383 569.8255 990.2383 585.4455 999.5083 602.5355C1040.0383 679.6855 1124.9983 722.6555 1233.8883 722.6555ZM249.0283 721.6755C275.8783 721.6755 293.4583 704.1055 293.4583 677.2455V53.2255C293.4583 21.4855 273.4383 3.9055 243.1683 3.9055C220.6983 3.9055 208.4983 10.7455 187.9883 23.9255L25.3883 129.3955C6.3483 142.0855 -0.0017 153.3155 -0.0017 169.4355C-0.0017 189.4555 14.6483 204.1055 36.1283 204.1055C49.3183 204.1055 55.6683 200.1955 64.4483 194.3355L203.6183 106.9355H205.5683V677.2455C205.5683 704.1055 222.1683 721.6755 249.0283 721.6755Z"/>
</svg>