<?xml version="1.0" encoding="UTF-8" standalone="no"?>
<svg xmlns="http://www.w3.org/2000/svg"
     width="436.03515625" height="515.13671875"
     viewBox="0 0 436.03515625 515.13671875"
     fill="currentColor">
  <path d="M40.5283 515.1402C60.5483 515.1402 73.7283 504.8802 81.5383 480.9602L122.0683 361.3302H312.9883L353.5183 480.9602C361.3283 505.8602 374.5083 515.1402 395.0183 515.1402C419.4383 515.1402 436.0383 500.0002 436.0383 478.0302C436.0383 468.2602 433.5983 458.9802 429.6883 448.7302L277.8283 45.4102C266.5983 15.6202 246.0983 0.0002 217.2883 0.0002C188.9683 0.0002 168.4583 14.6502 157.2283 45.4102L5.3683 448.7302C1.4683 458.0102 -0.0017 467.7702 -0.0017 478.0302C-0.0017 500.4902 15.6283 515.1402 40.5283 515.1402ZM143.5583 297.8502L211.9183 94.2402H223.1483L291.5083 297.8502Z"/>
</svg>