<?xml version="1.0" encoding="UTF-8" standalone="no"?>
<svg xmlns="http://www.w3.org/2000/svg"
     width="1119.140625" height="725.09765625"
     viewBox="0 0 1119.140625 725.09765625"
     fill="currentColor">
  <path d="M41.0183 721.1889C66.8983 721.1889 79.5883 711.4289 88.8683 684.0789L151.8583 511.7189H439.9383L502.9283 684.0789C512.2083 711.4289 524.8983 721.1889 550.2883 721.1889C576.1683 721.1889 592.7783 705.5689 592.7783 681.1489C592.7783 672.8489 591.3083 665.0389 587.3983 654.7889L358.3983 44.9189C347.1683 15.1389 327.1483 -0.0011 295.8983 -0.0011C265.6283 -0.0011 245.1183 14.6489 234.3783 44.4289L5.3683 655.2689C1.4683 665.5289 -0.0017 673.3389 -0.0017 681.6389C-0.0017 706.0589 15.6283 721.1889 41.0183 721.1889ZM175.7783 437.4989L294.4383 108.8889H296.8783L415.5283 437.4989ZM861.8183 724.6089C937.0083 724.6089 1007.3283 683.5889 1037.5983 620.1189H1039.5483V684.5689C1039.5483 708.9889 1056.1483 725.0989 1079.0983 725.0989C1102.5383 725.0989 1119.1383 708.9889 1119.1383 682.6189V356.9289C1119.1383 250.4889 1041.0183 181.6389 916.9883 181.6389C825.1983 181.6389 748.5383 222.1689 720.6983 285.1589C715.3283 297.3589 711.4283 309.0789 711.4283 319.3389C711.4283 340.8189 727.5383 354.9789 748.5383 354.9789C763.6683 354.9789 775.3883 349.1189 782.7183 335.4489C810.0583 278.8089 851.5583 252.4389 915.0383 252.4389C991.2083 252.4389 1036.6183 294.9189 1036.6183 363.2789V405.2689L878.9083 414.0589C755.3683 420.8989 686.5283 478.0289 686.5283 568.8489C686.5283 662.1089 758.2983 724.6089 861.8183 724.6089ZM881.8383 656.7389C815.9183 656.7389 770.9983 620.6089 770.9983 566.8989C770.9983 515.1389 812.4983 480.4689 889.1583 475.5889L1036.6183 466.3089V518.0689C1036.6183 595.6989 967.7783 656.7389 881.8383 656.7389Z"/>
</svg>