<?xml version="1.0" encoding="UTF-8" standalone="no"?>
<svg xmlns="http://www.w3.org/2000/svg"
     width="1648.7257271452972" height="1097.6943938457218"
     viewBox="0 0 1648.7257271452972 1097.6943938457218"
     fill="currentColor">
  <path d="M589.8987 953.9934C670.4587 932.0134 735.3987 896.8634 783.7387 849.9834C823.7787 962.2934 918.5087 1041.8834 1059.1287 1079.9634C1299.3687 1143.9334 1481.9887 1032.6034 1549.3687 781.6234L1641.1687 440.3134C1665.5787 348.0334 1630.9087 287.9734 1536.6687 262.5834L1053.2687 133.1934C959.5187 108.2834 900.4387 141.9734 875.0487 235.2434L841.3587 358.7734L773.9787 108.7734C749.0787 16.4934 689.0187 -17.2066 595.2687 8.1934L111.3787 136.6034C17.1387 161.5134 -17.0413 220.5934 7.8587 314.3434L98.6787 656.1334C165.5787 907.1134 348.1987 1017.9534 589.8987 953.9934ZM568.8987 876.3534C376.9987 926.6434 231.4987 837.2934 177.2987 635.1434L86.4787 296.7634C74.7587 253.3034 90.3787 225.9634 133.3487 213.7534L614.7987 84.8534C657.7687 73.1334 686.0887 89.7334 697.3187 133.6734L787.6487 472.0534C841.8487 674.6934 760.7887 825.0834 568.8987 876.3534ZM1079.1487 1002.3334C945.8487 965.7034 864.7987 880.7434 848.6787 761.6034C882.3787 694.7134 893.6087 614.1434 880.9087 523.3234L951.7087 259.1634C963.4287 215.7034 990.7687 199.5934 1033.7387 211.3134L1515.1887 339.7334C1558.6487 351.4534 1573.7787 379.2834 1562.0587 423.7134L1471.2387 761.6034C1417.5287 964.2434 1272.0187 1053.1134 1079.1487 1002.3334ZM592.8287 386.6034C627.9787 377.3334 644.5787 393.9334 659.7187 390.5134C670.4587 387.5834 674.8587 373.9134 669.9687 356.3334C659.2287 312.8734 613.3287 286.9934 570.3587 299.6934C525.9287 310.4334 499.0787 355.8434 511.2787 398.3234C516.6487 416.3934 526.9087 426.1534 537.6487 423.2234C552.2987 418.8334 558.1587 395.8834 592.8287 386.6034ZM303.7587 465.2234C338.9187 455.9434 356.0087 472.0534 370.6587 468.6334C380.9087 466.1934 385.7887 452.5234 380.9087 434.9434C370.1687 391.4934 323.7787 365.1234 280.8087 377.8134C236.8687 388.5634 210.0087 434.4534 222.2187 476.9434C227.5887 495.0034 238.3287 504.2834 248.5887 501.8434C263.2387 497.4434 269.0887 474.4934 303.7587 465.2234ZM1043.5087 564.3434C1079.6387 574.5934 1116.7487 553.1134 1126.9987 516.4934C1136.7687 479.8634 1115.2887 442.2734 1078.1787 432.0134C1042.5287 422.2534 1004.9287 444.2234 994.6787 480.8434C985.3987 517.4634 1006.8887 554.5734 1043.5087 564.3434ZM1330.1287 641.0034C1366.2587 650.2734 1403.3687 628.7934 1413.6287 592.1734C1423.3887 555.5534 1401.9087 518.4434 1365.2887 508.6734C1328.6687 498.4234 1291.5587 520.3934 1282.2787 556.5234C1272.0187 593.1534 1293.5087 630.7434 1330.1287 641.0034ZM542.5287 776.2534C645.5587 747.9334 711.4787 669.8134 714.8987 573.1334C715.3787 548.2234 694.3887 538.9534 673.3887 555.0634C606.9887 601.9434 536.6687 620.4934 503.4687 629.7734C469.7787 638.5634 399.9487 658.0934 317.9187 650.2734C292.0387 646.8634 277.8787 665.9034 291.5587 685.9234C343.3087 768.9334 439.0187 803.1134 542.5287 776.2534ZM1124.5587 828.0134C1178.7587 842.1734 1222.2187 866.5834 1272.9987 912.4834C1292.0387 930.5534 1317.4287 918.8334 1315.9687 892.9534C1313.0387 807.0134 1249.0787 735.7234 1155.3287 711.3134C1061.5787 685.9234 970.7487 716.1934 924.8587 788.4634C911.1787 809.4534 927.2987 832.8934 953.1787 827.0334C1018.1187 812.8734 1070.8487 812.8734 1124.5587 828.0134Z"/>
</svg>