<?xml version="1.0" encoding="UTF-8" standalone="no"?>
<svg xmlns="http://www.w3.org/2000/svg"
     width="996.09375" height="996.09375"
     viewBox="0 0 996.09375 996.09375"
     fill="currentColor">
  <path d="M498.0477 996.0977C770.5077 996.0977 996.0977 770.5077 996.0977 498.0477C996.0977 226.0777 770.0177 -0.0023 497.5577 -0.0023C225.5877 -0.0023 -0.0023 226.0777 -0.0023 498.0477C-0.0023 770.5077 226.0777 996.0977 498.0477 996.0977ZM435.5477 680.1777C329.0977 708.4977 248.5377 659.6677 218.7477 548.8277L179.1977 397.4577C167.9677 355.9577 182.6177 329.5877 224.1177 318.8477L438.4777 261.7177C479.0077 251.4677 505.8577 266.1177 517.0877 306.6377L557.6177 457.5177C587.8877 568.8477 541.5077 651.3677 435.5477 680.1777ZM784.6677 375.4877C825.6877 385.7377 840.8177 412.5977 829.5877 453.1277L789.5477 604.0077C759.7677 714.8477 679.1977 763.6677 572.7577 735.8377C542.4777 727.5377 516.1177 714.3577 496.5777 697.2677C533.6877 678.2177 562.0077 650.8777 579.5877 617.6777C586.9177 618.6477 594.7277 620.1177 602.0477 622.5577C624.9977 628.9077 644.0477 638.6677 665.0377 657.7177C670.8977 664.5477 679.1977 660.6477 679.1977 651.3677C677.7377 617.1877 651.8577 587.8877 613.7677 578.6177C608.8877 577.1477 602.5377 576.6577 597.6577 575.6877C607.9077 537.5977 607.4177 494.1377 594.2377 447.7577L558.5977 314.9377C562.0077 315.4277 566.4077 315.9177 570.3077 317.8677ZM437.9877 425.7777C452.6377 420.8977 460.4477 429.6877 468.7477 427.7377C471.1877 425.7777 474.1177 420.8977 471.6777 415.0377C467.2877 395.5077 447.7577 385.7377 428.7077 389.6477C410.1577 394.0477 398.4377 415.0377 403.3177 432.6177C405.7577 437.9877 409.6677 442.3877 412.5977 441.4077C419.9177 440.4277 422.3677 429.6877 437.9877 425.7777ZM306.1477 461.4277C320.7977 456.5477 328.6177 465.3277 336.9177 462.8877C340.3277 461.4277 341.7977 456.0577 340.3277 449.7077C333.9877 432.1277 315.9177 420.8977 296.8777 425.7777C278.3177 430.1777 266.1177 449.7077 272.4577 468.7477C274.4177 474.1177 277.8277 478.5177 280.7577 477.5377C288.5777 476.5577 290.0377 465.8177 306.1477 461.4277ZM693.3577 539.0577C708.0077 543.4577 723.1477 534.1777 727.5377 519.5277C731.4477 504.8877 723.1477 489.7477 708.0077 485.8377C692.8677 481.9377 677.7377 490.2377 674.3177 504.8877C669.9177 520.0177 678.7077 536.1377 693.3577 539.0577ZM415.0377 602.5377C460.4477 590.8177 490.2377 555.6677 491.6977 512.6977C492.6777 503.9077 485.8377 499.9977 478.0277 504.8877C454.0977 521.4877 422.8477 534.1777 398.4377 540.5277C374.0277 547.3677 340.3277 552.2477 311.0377 549.8077C302.7377 549.3177 298.3377 555.1777 303.2277 562.9877C326.1677 599.1177 370.1177 614.7477 415.0377 602.5377Z"/>
</svg>