<?xml version="1.0" encoding="UTF-8" standalone="no"?>
<svg xmlns="http://www.w3.org/2000/svg"
     width="1161.7277235257195" height="1209.8684894029484"
     viewBox="0 0 1161.7277235257195 1209.8684894029484"
     fill="currentColor">
  <path d="M88.8622 593.861C135.7322 770.621 247.5522 870.721 396.9622 877.551C408.1922 848.261 424.3122 816.031 452.6322 790.641C475.0922 761.831 503.9022 739.861 536.6122 726.191C540.5222 692.011 549.8022 658.801 561.5222 631.461C539.5422 649.531 510.7322 664.171 478.0222 672.961C394.0322 694.451 308.1022 669.551 261.2222 595.331C249.9922 577.261 262.2022 561.151 283.6822 564.081C347.6522 571.401 409.1722 556.751 446.2822 546.011C480.9522 536.241 540.5222 518.181 590.3222 482.531C609.3722 468.371 627.4322 476.191 626.9422 497.671C626.4622 515.251 624.5022 530.871 620.1122 544.551C659.6622 494.741 715.3222 425.891 772.9422 360.461L702.6322 100.211C679.6822 16.711 622.0622 -15.509 536.6122 6.951L102.5322 122.671C17.5722 145.131 -15.6278 201.771 6.8322 286.731ZM1013.6622 205.681C986.8122 229.121 818.8422 390.741 688.9622 564.081C803.2122 579.211 903.3122 648.551 957.0222 752.551C1074.2122 563.101 1141.1122 346.791 1153.8022 311.641C1190.9122 208.121 1089.8422 141.221 1013.6622 205.681ZM525.3822 327.751C493.1622 335.561 488.2722 357.531 474.1122 361.441C464.3522 363.881 454.5822 355.581 449.7022 338.491C437.9822 298.451 463.3722 257.441 504.3922 246.691C544.4322 235.951 586.4222 258.901 596.6722 299.431C601.5522 315.541 597.1622 328.241 586.9122 330.681C573.7222 334.101 557.6122 318.471 525.3822 327.751ZM257.3222 400.011C225.5822 408.801 220.2122 429.801 206.5322 434.191C196.7722 436.641 187.0022 427.851 182.1222 410.271C170.8922 370.721 195.3022 329.701 236.8122 318.961C275.8722 307.241 318.8422 330.681 329.0922 371.691C333.4922 388.781 329.5822 400.501 318.8422 403.431C305.6622 406.851 289.5422 392.201 257.3222 400.011ZM730.9522 789.661C771.9622 818.471 806.6322 860.461 819.8222 897.571C857.9022 883.901 886.7122 859.491 911.6122 823.841C916.0122 817.491 920.8922 810.661 924.8022 803.821C883.2922 691.521 769.5222 613.391 651.8522 612.421C646.4822 618.761 641.1122 626.091 636.2222 633.411C611.8122 669.061 599.1122 705.681 599.6022 743.761C638.1822 743.281 689.9322 760.851 730.9522 789.661ZM332.5122 1129.511C433.1022 1230.581 617.6722 1238.881 717.7722 1139.761C803.2122 1054.801 806.1422 945.421 725.0922 863.881C652.3422 790.641 542.4722 785.761 481.9322 847.281C412.1022 918.081 458.4922 990.351 415.5222 1033.801C379.3922 1070.421 347.1622 1057.241 327.6322 1076.281C313.4722 1089.471 312.4922 1109.491 332.5122 1129.511Z"/>
</svg>