<?xml version="1.0" encoding="UTF-8" standalone="no"?>
<svg xmlns="http://www.w3.org/2000/svg"
     width="1166.7153507157361" height="1211.3580291373178"
     viewBox="0 0 1166.7153507157361 1211.3580291373178"
     fill="currentColor">
  <path d="M88.8639 593.861C141.1039 790.641 272.4539 892.201 448.7239 878.531C431.1439 930.781 447.2639 980.581 420.4039 1009.391C388.1739 1042.591 351.5539 1033.801 329.0939 1058.711C312.4939 1077.751 310.5439 1106.561 338.8639 1132.921C450.1939 1237.901 643.0639 1237.901 744.1339 1130.481C801.2639 1070.421 821.2839 998.161 802.2439 931.751C846.6739 915.151 883.2939 882.441 920.4039 829.701C1046.8739 648.061 1147.4539 343.861 1158.6839 311.641C1195.7939 207.631 1097.1639 130.971 1008.7839 205.681C991.6939 220.811 892.5739 316.031 790.5239 430.781C789.0539 422.961 787.1039 415.151 784.6639 407.341L702.6339 100.211C679.6839 16.711 622.0639 -15.509 536.6139 6.951L102.5339 122.671C17.5739 145.131 -15.6261 201.771 6.8339 286.731ZM166.4939 573.351L84.9539 268.671C75.6739 233.021 88.8639 208.611 124.5039 199.331L556.6339 83.121C592.2839 73.841 616.2039 88.001 625.9739 124.621L707.5139 428.331C715.3239 457.141 719.7239 484.971 721.6739 510.851C689.4439 549.921 658.6839 589.961 631.8339 628.041C595.2039 680.781 576.6539 726.191 576.1639 774.041C563.4739 775.991 551.2639 778.921 539.5439 784.291L539.0539 778.431C526.3639 783.311 520.5039 784.781 513.6639 786.731C342.2839 831.651 214.3539 753.041 166.4939 573.351ZM1057.6139 267.691C1071.7739 252.551 1092.7639 266.711 1083.9739 286.731C1075.6739 305.291 998.0439 549.431 892.5739 727.161C859.8539 672.471 799.3139 629.511 737.2939 617.791C864.2539 454.701 1041.4939 284.291 1057.6139 267.691ZM536.1239 351.191C567.3739 342.401 583.0039 357.531 595.6939 354.121C605.9539 351.671 609.8539 339.471 605.4639 323.841C595.2039 284.291 554.6839 262.321 515.6239 272.571C476.0639 283.311 451.6539 322.871 462.8839 361.441C467.7639 378.041 477.0439 386.341 486.3239 383.901C499.9939 379.991 504.8739 359.001 536.1239 351.191ZM276.3639 421.011C307.6139 413.691 323.2339 427.851 335.9339 424.431C346.1839 421.991 350.0939 410.271 345.6939 393.671C335.9339 354.121 294.4239 331.171 256.3439 342.891C216.3039 353.141 192.3739 392.691 203.1239 431.261C208.0039 448.351 217.7639 456.651 227.0439 454.211C240.2239 450.311 245.6039 429.801 276.3639 421.011ZM487.7839 684.681C573.2339 661.241 628.4139 596.791 630.8539 516.221C631.3439 495.721 614.7439 488.391 596.1839 501.581C548.3339 535.761 491.2039 553.331 457.5139 562.611C421.8739 572.871 363.2739 587.031 301.7539 580.681C280.7539 577.751 268.5439 593.371 279.7839 610.461C322.2639 678.331 402.8239 707.631 487.7839 684.681ZM741.2039 835.561C713.8639 809.681 684.0739 791.621 654.2939 781.851C652.8239 751.091 665.0339 718.371 691.8839 679.311C749.9939 676.381 833.9739 734.491 851.0639 791.131C821.7739 832.141 795.4039 852.161 765.1339 861.441C758.2939 852.651 749.9939 843.861 741.2039 835.561ZM436.0339 1108.511C428.2139 1102.651 427.7239 1095.811 431.1439 1090.441C437.0039 1083.121 463.8639 1076.771 480.9539 1052.361C519.0339 997.671 491.6939 933.221 538.0839 880.971C576.6539 838.001 640.6239 839.961 691.8839 886.831C750.4839 939.561 746.5739 1016.711 690.4239 1078.241C628.4139 1148.061 516.1039 1167.101 436.0339 1108.511Z"/>
</svg>