<?xml version="1.0" encoding="UTF-8" standalone="no"?>
<svg xmlns="http://www.w3.org/2000/svg"
     width="1026.3671875" height="1106.93359375"
     viewBox="0 0 1026.3671875 1106.93359375"
     fill="currentColor">
  <path d="M513.1883 886.23C603.0283 886.23 674.8083 814.45 674.8083 724.61C674.8083 662.11 639.1583 612.3 591.7983 585.94C574.2183 576.17 566.4083 562.01 566.4083 536.62V52.73C566.4083 23.93 542.4783 0 513.6683 0C484.3783 0 460.9383 23.93 460.9383 52.73V536.62C460.9383 561.04 452.1483 574.71 434.0783 584.96C387.2083 611.33 352.0483 662.11 352.0483 724.61C352.0483 814.45 423.8283 886.23 513.1883 886.23ZM699.2183 105.96H805.1783C822.2683 105.96 833.9883 92.77 833.9883 77.64C833.9883 62.5 822.2683 48.83 805.1783 48.83H699.2183C682.1283 48.83 670.4083 62.5 670.4083 77.64C670.4083 92.77 682.1283 105.96 699.2183 105.96ZM699.2183 243.16H805.1783C822.2683 243.16 833.9883 229.49 833.9883 214.36C833.9883 199.22 822.2683 186.04 805.1783 186.04H699.2183C682.1283 186.04 670.4083 199.22 670.4083 214.36C670.4083 229.49 682.1283 243.16 699.2183 243.16ZM699.2183 379.88H805.1783C822.2683 379.88 833.9883 366.7 833.9883 351.56C833.9883 336.43 822.2683 323.24 805.1783 323.24H699.2183C682.1283 323.24 670.4083 336.43 670.4083 351.56C670.4083 366.7 682.1283 379.88 699.2183 379.88ZM699.2183 517.09H805.1783C822.2683 517.09 833.9883 503.91 833.9883 488.77C833.9883 473.63 822.2683 460.45 805.1783 460.45H699.2183C682.1283 460.45 670.4083 473.63 670.4083 488.77C670.4083 503.91 682.1283 517.09 699.2183 517.09ZM-0.0017 853.52C-0.0017 872.56 15.1383 887.7 34.6683 887.7H37.1083C188.9683 887.7 202.1483 788.57 281.2483 788.57C286.6183 788.57 291.5083 790.04 295.4083 792.48C289.5483 773.93 287.5983 750.98 287.5983 723.14C283.1983 721.68 278.8083 720.21 273.9283 720.21C223.1483 720.21 186.0383 749.51 155.7583 771C119.1383 797.36 89.3583 818.85 37.1083 818.85H34.6683C15.1383 818.85 -0.0017 834.47 -0.0017 853.52ZM1026.3683 853.52C1026.3683 834.47 1010.7383 818.85 991.6983 818.85H989.2583C936.5283 818.85 907.2283 797.36 870.6083 771C840.3283 749.51 803.2183 720.21 753.4183 720.21C748.5383 720.21 744.1383 721.68 740.7183 723.14C742.6783 738.77 737.3083 773.93 730.9583 792.48C734.8683 790.04 739.7483 788.57 745.6083 788.57C824.2183 789.55 837.3983 887.7 989.2583 887.7H991.6983C1010.7383 887.7 1026.3683 872.56 1026.3683 853.52ZM-0.0017 1072.75C-0.0017 1091.8 15.1383 1106.93 34.6683 1106.93H37.1083C188.9683 1106.93 202.1483 1007.81 281.2483 1007.81C358.8883 1007.81 379.8783 1106.93 513.1883 1106.93C645.9983 1106.93 667.4783 1007.81 745.1183 1007.81C824.2183 1007.81 836.9183 1106.93 989.2583 1106.93H991.6983C1010.7383 1106.93 1026.3683 1091.8 1026.3683 1072.75C1026.3683 1053.71 1010.7383 1038.09 991.6983 1038.09H989.2583C936.5283 1038.09 907.2283 1016.6 870.6083 990.23C838.8683 967.29 799.3183 938.96 745.1183 938.96C688.9683 938.96 648.9283 969.24 617.1883 992.68C583.4983 1018.55 556.6383 1038.09 513.1883 1038.09C469.2383 1038.09 442.8683 1018.55 409.1783 992.68C377.4383 969.24 337.3983 938.96 281.2483 938.96C227.0483 938.96 187.4983 967.29 155.7583 990.23C119.1383 1016.6 89.3583 1038.09 37.1083 1038.09H34.6683C15.1383 1038.09 -0.0017 1053.71 -0.0017 1072.75Z"/>
</svg>