<?xml version="1.0" encoding="UTF-8" standalone="no"?>
<svg xmlns="http://www.w3.org/2000/svg"
     width="909.1703337329068" height="1124.0234375"
     viewBox="0 0 909.1703337329068 1124.0234375"
     fill="currentColor">
  <path d="M892.5783 521.4803L826.1683 483.4003L885.2583 449.2203C897.9483 441.8903 902.8283 427.2503 895.9983 415.0403C888.6683 401.8603 873.5383 399.9003 859.8683 407.7103L776.8583 455.0803L631.3483 372.5603L778.3183 289.5503L861.3283 337.4003C874.5083 345.2103 889.1583 342.7703 897.4583 330.0803C903.8083 317.3803 898.9283 302.7303 886.7183 295.9003L827.6383 261.7203L893.0683 224.6103C908.1983 215.8203 913.5783 200.6803 905.2783 186.5203C897.9483 172.8503 881.3483 169.9203 868.1683 177.7303L801.7583 216.3103V148.9303C801.7583 133.7903 791.5083 122.5603 777.8283 122.5603C762.2083 122.5603 752.9283 133.7903 752.9283 150.3903L752.4383 245.1203L606.9383 330.5703L608.3983 160.6403L690.9183 112.7903C704.5883 104.4903 709.9583 90.8203 702.6383 77.6403C695.3083 65.4303 680.6683 62.5003 667.9683 69.8203L608.8883 104.0003L609.3783 29.7803C609.3783 13.1803 599.1183 0.0003 583.0083 0.0003C566.4083 0.0003 556.6383 13.1803 556.6383 29.7803L557.1283 104.0003L498.0483 69.8203C485.3483 62.5003 470.2183 65.4303 463.3783 77.6403C456.0583 90.8203 461.4283 104.4903 475.0983 112.7903L557.6183 160.6403L559.0783 330.5703L466.3083 275.8803V333.5003L534.1783 372.5603L466.3083 411.1303V469.2403L559.0783 414.5503L557.6183 583.5003L482.9083 626.4603C488.7683 639.6503 501.4683 655.7603 513.6683 665.0403L557.1283 640.1403L556.6383 715.3303C556.6383 732.4203 566.4083 745.1203 583.0083 745.1203C599.1183 745.1203 609.3783 731.9303 609.3783 715.3303L608.8883 640.6203L667.4783 674.3203C680.1783 681.6403 694.8283 678.7103 702.1483 666.5003C709.9583 653.3203 704.0983 639.6503 690.4283 631.3503L608.3983 583.5003L606.9383 414.5503L751.4683 499.5103V594.7303C751.4683 609.8603 761.2283 621.5803 776.3683 622.0703C790.0383 622.0703 800.2883 609.8603 800.2883 596.1903L800.7783 528.3203L866.2083 566.8903C880.8583 575.1903 896.9683 573.2403 905.2783 559.0803C913.5783 544.9203 907.2283 529.3003 892.5783 521.4803ZM255.8583 1124.0203C396.4883 1124.0203 510.2583 1009.7703 510.2583 869.1403C510.2583 794.9203 479.9783 729.9803 421.3883 677.2503C411.1283 667.9703 408.6883 662.1103 408.6883 647.4603L409.1783 206.0503C409.1783 106.9303 346.6783 39.0603 255.8583 39.0603C164.0583 39.0603 101.0783 106.9303 101.0783 206.0503L101.5583 647.4603C101.5583 662.1103 99.6083 667.9703 88.8683 677.2503C30.7583 729.9803 -0.0017 794.9203 -0.0017 869.1403C-0.0017 1009.7703 114.2583 1124.0203 255.8583 1124.0203ZM255.8583 1053.2203C153.8083 1053.2203 71.7783 970.2103 71.7783 869.1403C71.7783 808.1103 100.5883 752.9303 152.3483 718.2603C167.4783 708.0103 173.3383 698.7303 173.3383 678.7103V208.9803C173.3383 150.3903 207.0283 110.8403 255.8583 110.8403C303.7083 110.8403 337.3983 150.3903 337.3983 208.9803V678.7103C337.3983 698.7303 343.2583 708.0103 358.3983 718.2603C410.1583 752.9303 438.9683 808.1103 438.9683 869.1403C438.9683 970.2103 356.4483 1053.2203 255.8583 1053.2203ZM255.3683 987.3003C320.7983 987.3003 373.5383 934.5703 373.5383 868.6503C373.5383 822.7503 347.6583 785.1603 310.0583 764.6503C294.4383 756.3503 289.0583 750.4903 289.0583 726.5603V628.9103C289.0583 605.4703 273.9283 590.3303 255.3683 590.3303C236.3283 590.3303 221.6783 605.4703 221.6783 628.9103V726.5603C221.6783 750.4903 216.3083 756.3503 200.6883 764.6503C163.0883 785.1603 137.2083 822.7503 137.2083 868.6503C137.2083 934.5703 189.9383 987.3003 255.3683 987.3003Z"/>
</svg>