<?xml version="1.0" encoding="UTF-8" standalone="no"?>
<svg xmlns="http://www.w3.org/2000/svg"
     width="635.25390625" height="1084.9609375"
     viewBox="0 0 635.25390625 1084.9609375"
     fill="currentColor">
  <path d="M255.8583 1084.9578C396.4883 1084.9578 510.2583 970.7078 510.2583 830.0778C510.2583 755.8578 479.9783 690.9178 421.3883 638.1878C411.1283 628.9078 408.6883 623.0478 408.6883 608.3978L409.1783 166.9878C409.1783 67.8678 346.6783 -0.0022 255.8583 -0.0022C164.0583 -0.0022 101.0783 67.8678 101.0783 166.9878L101.5583 608.3978C101.5583 623.0478 99.6083 628.9078 88.8683 638.1878C30.7583 690.9178 -0.0017 755.8578 -0.0017 830.0778C-0.0017 970.7078 114.2583 1084.9578 255.8583 1084.9578ZM255.8583 1014.1578C153.8083 1014.1578 71.7783 931.1478 71.7783 830.0778C71.7783 769.0478 100.5883 713.8678 152.3483 679.1978C167.4783 668.9478 173.3383 659.6678 173.3383 639.6478V169.9178C173.3383 111.3278 207.0283 71.7778 255.8583 71.7778C303.7083 71.7778 337.3983 111.3278 337.3983 169.9178V639.6478C337.3983 659.6678 343.2583 668.9478 358.3983 679.1978C410.1583 713.8678 438.9683 769.0478 438.9683 830.0778C438.9683 931.1478 356.4483 1014.1578 255.8583 1014.1578ZM255.3683 948.2378C320.7983 948.2378 373.5383 895.5078 373.5383 829.5878C373.5383 783.6878 347.6583 746.0978 310.0583 725.5878C294.4383 717.2878 289.0583 711.4278 289.0583 687.4978V158.6878C289.0583 135.2578 273.9283 120.1178 255.3683 120.1178C236.3283 120.1178 221.6783 135.2578 221.6783 158.6878V687.4978C221.6783 711.4278 216.3083 717.2878 200.6883 725.5878C163.0883 746.0978 137.2083 783.6878 137.2083 829.5878C137.2083 895.5078 189.9383 948.2378 255.3683 948.2378ZM500.4883 179.1978H606.4483C623.5383 179.1978 635.2583 166.0178 635.2583 150.8778C635.2583 135.7378 623.5383 122.5578 606.4483 122.5578H500.4883C483.3983 122.5578 471.6783 135.7378 471.6783 150.8778C471.6783 166.0178 483.3983 179.1978 500.4883 179.1978ZM500.4883 316.4078H606.4483C623.5383 316.4078 635.2583 303.2178 635.2583 288.0878C635.2583 272.9478 623.5383 259.7678 606.4483 259.7678H500.4883C483.3983 259.7678 471.6783 272.9478 471.6783 288.0878C471.6783 303.2178 483.3983 316.4078 500.4883 316.4078ZM500.4883 453.6178H606.4483C623.5383 453.6178 635.2583 440.4278 635.2583 425.2978C635.2583 410.1578 623.5383 396.4878 606.4483 396.4878H500.4883C483.3983 396.4878 471.6783 410.1578 471.6783 425.2978C471.6783 440.4278 483.3983 453.6178 500.4883 453.6178ZM500.4883 590.8178H606.4483C623.5383 590.8178 635.2583 577.6378 635.2583 562.4978C635.2583 546.8778 623.5383 533.6878 606.4483 533.6878H500.4883C483.3983 533.6878 471.6783 546.8778 471.6783 562.4978C471.6783 577.6378 483.3983 590.8178 500.4883 590.8178Z"/>
</svg>