<?xml version="1.0" encoding="UTF-8" standalone="no"?>
<svg xmlns="http://www.w3.org/2000/svg"
     width="996.09375" height="996.09375"
     viewBox="0 0 996.09375 996.09375"
     fill="currentColor">
  <path d="M498.0477 996.0977C770.5077 996.0977 996.0977 770.5077 996.0977 498.0477C996.0977 226.0777 770.0177 -0.0023 497.5577 -0.0023C225.5877 -0.0023 -0.0023 226.0777 -0.0023 498.0477C-0.0023 770.5077 226.0777 996.0977 498.0477 996.0977ZM529.2977 252.9277C514.6477 252.9277 502.9277 240.7177 502.9277 226.5577V168.9477C502.9277 155.2777 514.6477 143.0677 529.2977 143.0677C544.4377 143.0677 555.6677 155.2777 555.6677 168.9477V226.5577C555.6677 240.7177 544.4377 252.9277 529.2977 252.9277ZM649.4177 302.7377C639.1577 292.4777 638.6677 275.8777 649.4177 265.6277L690.4277 224.6077C700.1977 214.3577 716.3077 214.3577 726.5577 224.6077C737.3077 234.8677 736.8177 251.9577 727.0477 261.7177L687.0077 302.7377C676.7577 312.4977 659.1777 312.4977 649.4177 302.7377ZM402.8277 833.0077C324.7077 833.0077 262.2077 770.5077 262.2077 692.8677C262.2077 652.3477 278.8077 616.2077 310.5477 587.3977C316.4077 583.0077 317.3877 579.5877 317.3877 572.7577V331.5477C317.3877 276.8577 351.5577 238.7677 402.8277 238.7677C453.1277 238.7677 487.7977 276.8577 487.7977 331.5477L487.3077 572.7577C487.3077 579.5877 488.2777 583.0077 493.6477 587.3977C525.8777 616.2077 542.9677 652.3477 542.9677 692.8677C542.9677 770.5077 480.4677 833.0077 402.8277 833.0077ZM402.8277 791.5077C456.5477 791.5077 500.9777 748.0477 500.9777 692.8677C500.9777 659.6677 485.3477 630.8577 457.5177 611.8177C448.2377 605.9577 445.3077 600.5877 445.3077 588.8677V333.4977C445.3077 302.2477 428.2277 281.2477 402.8277 281.2477C375.9777 281.2477 358.8877 302.2477 358.8877 333.4977V588.8677C358.8877 600.5877 355.9577 605.9577 346.6777 611.8177C319.3377 630.8577 304.1977 659.6677 304.1977 692.8677C304.1977 748.0477 347.1677 791.5077 402.8277 791.5077ZM524.8977 555.1777L525.3877 331.5477C525.3877 317.3877 523.4377 303.7077 518.5577 290.5277C522.4577 290.0377 525.8777 289.5477 529.2977 289.5477C603.0277 289.5477 662.1077 349.1177 662.1077 422.8477C662.1077 499.0277 600.5877 557.1277 524.8977 555.1777ZM402.3477 758.2977C366.2077 758.2977 336.9177 729.4877 336.9177 692.3877C336.9177 667.4777 351.5577 646.4877 371.5777 635.2577C380.8577 630.8577 383.2977 627.9277 383.2977 615.2377V355.9577C383.2977 342.2877 391.1177 333.9877 402.3477 333.9877C413.0877 333.9877 421.8777 342.2877 421.8777 355.9577V615.2377C421.8777 627.9277 424.3177 630.8577 432.1277 635.2577C453.6177 646.9677 468.2577 667.4777 468.2577 692.3877C468.2577 729.0077 438.9677 758.2977 402.3477 758.2977ZM724.6077 449.2177C710.4477 449.2177 698.7277 436.5277 698.7277 422.8477C698.7277 408.6877 710.4477 395.9977 724.6077 395.9977H781.7377C796.3877 395.9977 808.1077 408.6877 808.1077 422.8477C808.1077 436.5277 796.3877 449.2177 781.7377 449.2177ZM690.4277 621.0977L649.4177 580.0777C638.6677 570.3077 639.1577 553.2177 649.4177 543.4577C659.6677 533.2077 676.2677 533.2077 686.5277 543.4577L727.0477 583.9877C737.3077 593.2577 737.3077 610.8377 726.5577 621.0977C716.3077 630.8577 700.1977 630.3677 690.4277 621.0977Z"/>
</svg>