<?xml version="1.0" encoding="UTF-8" standalone="no"?>
<svg xmlns="http://www.w3.org/2000/svg"
     width="1207.51953125" height="845.21484375"
     viewBox="0 0 1207.51953125 845.21484375"
     fill="currentColor">
  <path d="M-0.0017 647.9506C-0.0017 670.4106 8.7883 684.5706 28.3183 693.8506C82.5183 720.7006 112.7883 751.4606 146.4883 817.8706C156.7383 835.9406 171.8783 845.2106 191.8983 845.2106H1015.6283C1035.1583 845.2106 1050.2883 835.9406 1060.5483 817.8706C1094.2383 751.4606 1124.5083 720.7006 1179.1983 693.8506C1198.7283 684.5706 1207.5183 670.4106 1207.5183 647.9506V197.7506C1207.5183 174.8006 1198.7283 160.6406 1179.1983 151.8506C1124.5083 125.0006 1094.2383 93.7506 1060.5483 27.8306C1050.2883 9.2806 1035.1583 0.0006 1015.6283 0.0006H191.8983C171.8783 0.0006 156.7383 9.2806 146.4883 27.8306C112.7883 93.7506 82.5183 125.0006 28.3183 151.8506C8.7883 160.6406 -0.0017 174.8006 -0.0017 197.7506ZM200.6883 645.5106V200.1906C200.6883 173.8306 218.7483 155.7606 245.1183 155.7606H961.9183C988.7683 155.7606 1006.3483 173.8306 1006.3483 200.1906V645.5106C1006.3483 672.3606 988.7683 689.9406 961.9183 689.9406H245.1183C218.7483 689.9406 200.6883 672.3606 200.6883 645.5106ZM262.6983 313.9606H328.1283V216.8006H273.4383C266.1183 216.8006 262.6983 221.1906 262.6983 228.0306ZM879.3983 313.9606H944.8283V228.0306C944.8283 221.1906 941.4083 216.8006 934.0783 216.8006H879.3983ZM389.6483 628.9106H817.8683V216.8006H389.6483ZM262.6983 471.1906H328.1283V375.0006H262.6983ZM879.3983 471.1906H944.8283V375.0006H879.3983ZM262.6983 617.6806C262.6983 625.0006 266.1183 628.9106 273.4383 628.9106H328.1283V532.2306H262.6983ZM879.3983 628.9106H934.0783C941.4083 628.9106 944.8283 625.0006 944.8283 617.6806V532.2306H879.3983Z"/>
</svg>