<?xml version="1.0" encoding="UTF-8" standalone="no"?>
<svg xmlns="http://www.w3.org/2000/svg"
     width="1207.51953125" height="845.21484375"
     viewBox="0 0 1207.51953125 845.21484375"
     fill="currentColor">
  <path d="M-0.0017 647.9506C-0.0017 670.4106 8.7883 684.5706 28.3183 693.8506C82.5183 720.7006 112.7883 751.4606 146.4883 817.8706C156.7383 835.9406 171.8783 845.2106 191.8983 845.2106H1015.6283C1035.1583 845.2106 1050.2883 835.9406 1060.5483 817.8706C1094.2383 751.4606 1124.5083 720.7006 1179.1983 693.8506C1198.7283 684.5706 1207.5183 670.4106 1207.5183 647.9506V197.7506C1207.5183 174.8006 1198.7283 160.6406 1179.1983 151.8506C1124.5083 125.0006 1094.2383 93.7506 1060.5483 27.8306C1050.2883 9.2806 1035.1583 0.0006 1015.6283 0.0006H191.8983C171.8783 0.0006 156.7383 9.2806 146.4883 27.8306C112.7883 93.7506 82.5183 125.0006 28.3183 151.8506C8.7883 160.6406 -0.0017 174.8006 -0.0017 197.7506ZM78.6183 636.7206V208.9806C137.6983 184.5706 175.7783 145.0206 206.5383 78.6106H1000.9783C1031.2483 145.0206 1069.8283 184.5706 1128.9083 208.9806V636.7206C1069.8283 661.1306 1031.2483 700.6806 1000.9783 766.6006H206.5383C175.7783 700.6806 137.6983 661.1306 78.6183 636.7206ZM212.8883 638.6706C212.8883 664.5506 230.4683 681.6406 255.8583 681.6406H951.1683C977.0483 681.6406 994.1383 664.5506 994.1383 638.6706V207.0306C994.1383 181.6406 977.0483 164.0606 951.1683 164.0606H255.8583C230.4683 164.0606 212.8883 181.6406 212.8883 207.0306ZM271.9683 317.3806V233.8906C271.9683 227.0506 275.8783 223.1406 283.1983 223.1406H336.4283V317.3806ZM871.0983 317.3806V223.1406H924.3183C931.6383 223.1406 935.0583 227.0506 935.0583 233.8906V317.3806ZM395.5083 622.5606V223.1406H812.0083V622.5606ZM271.9683 469.7306V376.4606H336.4283V469.7306ZM871.0983 469.7306V376.4606H935.0583V469.7306ZM271.9683 611.8206V528.8106H336.4283V622.5606H283.1983C275.8783 622.5606 271.9683 619.1406 271.9683 611.8206ZM871.0983 622.5606V528.8106H935.0583V611.8206C935.0583 619.1406 931.6383 622.5606 924.3183 622.5606Z"/>
</svg>