<?xml version="1.0" encoding="UTF-8" standalone="no"?>
<svg xmlns="http://www.w3.org/2000/svg"
     width="996.09375" height="996.09375"
     viewBox="0 0 996.09375 996.09375"
     fill="currentColor">
  <path d="M498.0477 996.0959C770.5077 996.0959 996.0977 770.0159 996.0977 498.0459C996.0977 225.5859 770.9977 -0.0041 498.5377 -0.0041C472.6577 -0.0041 459.9577 15.6259 459.9577 41.0159V229.9759C459.9577 251.4659 474.6077 268.0659 495.6077 268.0659C517.0877 268.0659 531.7377 251.4659 531.7377 229.9759V84.4759C746.5777 101.5659 912.5977 278.8059 912.5977 498.0459C912.5977 728.5159 728.5177 913.0859 498.0477 913.0859C267.5777 913.0859 82.5177 728.5159 83.0077 498.0459C83.4977 395.0159 120.1177 301.7559 181.6377 229.9759C196.2877 210.9359 197.2677 187.9859 181.1477 170.8959C165.0377 153.8059 138.1877 155.2759 120.1177 176.7559C45.8977 263.6759 -0.0023 376.4659 -0.0023 498.0459C-0.0023 770.0159 226.0777 996.0959 498.0477 996.0959ZM576.1677 568.3559C614.7477 527.8359 606.9377 473.6359 560.5477 441.4059L302.2477 260.7459C277.8277 243.6559 252.4377 269.5359 269.5277 293.4559L449.7077 551.7559C482.4177 598.1459 536.6177 606.4459 576.1677 568.3559Z"/>
</svg>