<?xml version="1.0" encoding="UTF-8" standalone="no"?>
<svg xmlns="http://www.w3.org/2000/svg"
     width="996.09375" height="996.09375"
     viewBox="0 0 996.09375 996.09375"
     fill="currentColor">
  <path d="M498.0477 996.0959C770.5077 996.0959 996.0977 770.0159 996.0977 498.0459C996.0977 225.5859 770.0177 -0.0041 497.5577 -0.0041C225.5877 -0.0041 -0.0023 225.5859 -0.0023 498.0459C-0.0023 770.0159 226.0777 996.0959 498.0477 996.0959ZM498.0477 913.0859C267.5777 913.0859 83.4977 728.5159 83.4977 498.0459C83.4977 267.5759 267.0877 83.0059 497.5577 83.0059C728.0277 83.0059 913.0877 267.5759 913.0877 498.0459C913.0877 728.5159 728.5177 913.0859 498.0477 913.0859ZM498.0477 775.3859C649.8977 775.3859 775.3877 649.9059 775.3877 498.0459C775.3877 346.1959 649.8977 220.7059 498.5377 220.7059C478.0277 220.7059 467.7777 233.8859 467.7777 251.9559V329.1059C467.7777 345.7059 479.4877 359.3759 497.0677 359.3759C514.1577 359.3759 526.3677 345.7059 526.3677 329.1059V286.6259C632.3277 299.8059 710.9377 387.6959 710.9377 498.0459C710.9377 617.6759 618.1677 711.4259 498.0477 711.4259C378.4177 711.4259 284.6677 617.6759 284.6677 498.0459C284.6677 444.3359 303.7077 397.4559 335.4477 359.8659C346.1877 346.6759 347.6577 328.1259 334.9577 315.4259C321.7777 301.7559 300.7777 303.2259 287.5977 318.8459C246.0977 366.6959 220.7077 430.1759 220.7077 498.0459C220.7077 649.9059 346.1877 775.3859 498.0477 775.3859ZM544.4377 540.0359C567.8677 515.1359 563.4777 481.9359 535.1577 462.4059L407.7177 376.9559C388.6677 364.7459 368.6477 383.7859 381.3477 402.8359L467.2877 530.2759C486.3277 559.0859 520.0177 563.4759 544.4377 540.0359Z"/>
</svg>