<?xml version="1.0" encoding="UTF-8" standalone="no"?>
<svg xmlns="http://www.w3.org/2000/svg"
     width="1668.45703125" height="898.92578125"
     viewBox="0 0 1668.45703125 898.92578125"
     fill="currentColor">
  <path d="M466.3083 898.9295H1202.1483C1304.1983 898.9295 1355.4683 848.1495 1355.4683 747.5595V151.3695C1355.4683 50.7795 1304.1983 -0.0005 1202.1483 -0.0005H466.3083C364.7483 -0.0005 313.4783 50.2895 313.4783 151.3695V747.5595C313.4783 848.6295 364.7483 898.9295 466.3083 898.9295ZM552.7383 820.3095V78.6095H1116.2083V820.3095ZM403.3183 605.4695V293.4595C403.3183 277.3395 416.9883 264.1595 433.1083 264.1595C449.2183 264.1595 462.3983 277.3395 462.3983 293.4595V605.4695C462.3983 621.5795 449.2183 634.7695 433.1083 634.7695C416.9883 634.7695 403.3183 621.5795 403.3183 605.4695ZM1206.0583 605.4695V293.4595C1206.0583 277.3395 1219.7283 264.1595 1235.8383 264.1595C1251.9483 264.1595 1265.1383 277.3395 1265.1383 293.4595V605.4695C1265.1383 621.5795 1251.9483 634.7695 1235.8383 634.7695C1219.7283 634.7695 1206.0583 621.5795 1206.0583 605.4695ZM76.6583 599.1195L208.9883 491.2095C235.8383 468.7495 234.8683 433.1095 208.9883 411.1295L76.6583 300.7795C41.9883 271.9695 -0.0017 289.5495 -0.0017 334.4695V566.4095C-0.0017 609.8595 43.4583 625.9795 76.6583 599.1195ZM1591.7983 599.1195C1624.9983 625.9795 1668.4583 609.8595 1668.4583 566.4095V334.4695C1668.4583 289.5495 1626.4683 271.9695 1591.7983 300.7795L1459.4683 411.1295C1434.0783 433.1095 1432.6183 468.7495 1459.4683 491.2095Z"/>
</svg>