<?xml version="1.0" encoding="UTF-8" standalone="no"?>
<svg xmlns="http://www.w3.org/2000/svg"
     width="996.09375" height="996.09375"
     viewBox="0 0 996.09375 996.09375"
     fill="currentColor">
  <path d="M498.0477 996.0959C770.5077 996.0959 996.0977 770.0159 996.0977 498.0459C996.0977 225.5859 770.0177 -0.0041 497.5577 -0.0041C225.5877 -0.0041 -0.0023 225.5859 -0.0023 498.0459C-0.0023 770.0159 226.0777 996.0959 498.0477 996.0959ZM498.0477 913.0859C267.5777 913.0859 83.4977 728.5159 83.4977 498.0459C83.4977 267.5759 267.0877 83.0059 497.5577 83.0059C728.0277 83.0059 913.0877 267.5759 913.0877 498.0459C913.0877 728.5159 728.5177 913.0859 498.0477 913.0859ZM330.5677 246.5859H665.5277C677.2477 246.5859 687.0077 236.8159 687.0077 225.5859C687.0077 214.3559 677.2477 204.5859 665.5277 204.5859H330.5677C318.8477 204.5859 309.5677 214.3559 309.5677 225.5859C309.5677 236.8159 318.8477 246.5859 330.5677 246.5859ZM498.0477 392.0859C557.6177 392.0859 609.3777 399.9059 645.5077 415.0359L655.7577 276.3659H340.3277L350.5877 415.0359C387.2077 400.3859 438.4777 392.0859 498.0477 392.0859ZM498.0477 549.8059C602.5377 549.8059 676.7577 522.9459 676.7577 485.3559C676.7577 448.2459 601.5577 421.8759 498.0477 421.8759C395.0177 421.8759 319.3377 448.2459 319.3377 485.3559C319.3377 522.9459 395.0177 549.8059 498.0477 549.8059ZM489.2577 670.8959H506.8377C591.7977 670.8959 656.7377 622.0659 672.8477 540.0359C637.2077 564.4559 575.1977 578.6159 498.0477 578.6159C421.3877 578.6159 358.8877 564.4559 323.2377 539.5459C338.8677 622.0659 404.2977 670.8959 489.2577 670.8959ZM498.0477 824.7059C540.0377 824.7059 595.2177 813.4759 619.6277 790.0359C625.9777 783.2059 625.9777 774.4159 623.5377 764.6459L598.1477 681.1559C570.7977 693.8459 538.5777 700.6859 506.8377 700.6859H488.2777C457.5177 700.6859 425.2977 693.8459 397.9477 681.6359L372.5577 764.6459C370.1177 774.4159 370.1177 783.2059 376.9577 790.0359C400.8777 813.4759 456.0577 824.7059 498.0477 824.7059Z"/>
</svg>