<?xml version="1.0" encoding="UTF-8" standalone="no"?>
<svg xmlns="http://www.w3.org/2000/svg"
     width="714.35546875" height="1179.6875"
     viewBox="0 0 714.35546875 1179.6875"
     fill="currentColor">
  <path d="M39.0583 78.6163H675.2883C696.7783 78.6163 714.3583 60.5462 714.3583 39.0662C714.3583 17.5762 696.7783 -0.0037 675.2883 -0.0037H39.0583C17.5783 -0.0037 -0.0017 17.5762 -0.0017 39.0662C-0.0017 60.5462 17.5783 78.6163 39.0583 78.6163ZM639.1583 402.3463L658.1983 132.8162H56.1483L75.6883 402.3463C145.5083 373.5363 243.6483 357.9063 357.4183 357.9063C471.1883 357.9063 569.3383 373.5363 639.1583 402.3463ZM357.4183 654.2963C555.1783 654.2963 696.7783 604.0063 696.7783 532.7162C696.7783 461.9163 554.1983 412.1063 357.4183 412.1063C160.6483 412.1063 17.5783 461.9163 17.5783 532.7162C17.5783 604.0063 160.6483 654.2963 357.4183 654.2963ZM340.8183 886.7163H373.5383C537.5983 886.7163 663.0883 791.0163 691.4083 631.8363C624.9983 679.1963 506.3483 706.0563 357.4183 706.0563C208.9883 706.0563 89.3583 679.1963 23.4383 631.3463C50.7783 791.0163 176.7583 886.7163 340.8183 886.7163ZM357.4183 1179.6863C436.5283 1179.6863 541.9883 1158.2063 588.3783 1111.8163C601.0783 1099.1163 601.5583 1082.5163 596.1883 1064.9463L548.3383 905.2763C495.1183 928.7063 434.5683 940.9163 374.0283 940.9163H338.8683C279.2983 940.9163 219.2383 929.1963 166.0183 906.2463L118.1683 1064.9463C112.7883 1082.5163 113.7683 1099.1163 125.9783 1111.8163C172.8483 1158.2063 277.8283 1179.6863 357.4183 1179.6863Z"/>
</svg>