<?xml version="1.0" encoding="UTF-8" standalone="no"?>
<svg xmlns="http://www.w3.org/2000/svg"
     width="926.7578125" height="1068.4044103626056"
     viewBox="0 0 926.7578125 1068.4044103626056"
     fill="currentColor">
  <path d="M455.5677 440.2885C754.8877 440.2885 926.7577 364.6085 926.7577 261.5785C926.7577 166.8485 790.0377 108.7485 594.7277 108.7485C448.2377 108.7485 333.9877 137.0685 247.5577 177.5985C224.1177 188.8285 218.7477 212.2585 227.5377 228.8585C236.8177 247.4185 261.2277 252.2985 280.7577 243.9985C358.8877 211.2885 457.5177 179.5485 590.3277 179.5485C754.8877 179.5485 850.0977 218.6085 850.0977 261.0885C850.0977 310.8985 701.6577 367.0485 452.1477 367.0485C207.0277 367.0485 76.1677 318.7085 76.1677 226.4185C76.1677 172.2185 125.9777 115.0985 267.5777 69.6785C291.5077 61.8685 301.7577 42.8285 294.9177 22.8085C288.0877 2.7885 270.0177 -5.0215 243.1677 3.2785C79.0977 52.1085 -0.0023 137.5585 -0.0023 228.3785C-0.0023 367.0485 156.7377 440.2885 455.5677 440.2885ZM470.2177 601.4185C623.0477 601.4185 763.6677 576.0285 863.2777 535.5085C881.8377 527.6885 891.1177 508.1585 881.8377 491.0685C873.0477 474.4685 855.4677 471.5385 833.4977 479.8385C743.1677 514.5085 611.8177 537.9485 470.2177 537.9485C365.7277 537.9485 245.6077 524.7585 151.8577 497.4185C129.8877 491.0685 111.8177 497.9085 106.4477 516.4585C101.0777 534.5285 110.3477 551.6185 132.8077 558.4485C233.8877 586.7685 360.3477 601.4185 470.2177 601.4185ZM503.4177 760.5985C631.3477 759.6285 751.4677 741.0685 861.3277 703.4685C887.2077 694.6785 891.1177 674.1785 884.7677 659.0385C877.9277 641.9485 860.3477 636.5785 835.4477 644.8785C727.0477 680.0385 619.1377 696.6385 503.4177 696.6385C454.0977 696.6385 402.8277 693.2185 362.7977 687.8485C338.8677 684.9185 324.2177 694.1985 321.2877 711.7685C317.8677 729.3485 327.1477 745.9485 352.5377 750.3485C390.1377 757.1785 442.8677 761.0885 503.4177 760.5985ZM458.9877 910.5085C547.8477 920.7585 654.7877 918.3185 746.5777 893.4185C768.5577 887.5585 776.8577 868.0185 771.4877 850.9285C765.6277 832.8685 748.5377 826.0285 725.0977 831.8885C645.9977 852.3985 554.6877 859.2385 469.7277 848.4885C446.2877 846.0485 430.1777 856.7885 427.7377 874.8585C425.2977 892.9285 434.5677 907.5785 458.9877 910.5085ZM425.7777 1065.2885C456.5477 1069.6885 492.6777 1069.1985 524.4177 1065.2885C546.8777 1062.3585 557.1277 1048.1985 555.6677 1030.1285C553.7077 1014.0185 541.0177 1002.2985 517.0877 1005.2285C490.2377 1008.6485 458.4977 1008.6485 431.1477 1005.7185C409.1777 1002.7885 395.5077 1014.5085 393.0677 1030.1285C391.1177 1046.7385 401.3677 1062.8485 425.7777 1065.2885Z"/>
</svg>