<?xml version="1.0" encoding="UTF-8" standalone="no"?>
<svg xmlns="http://www.w3.org/2000/svg"
     width="996.09375" height="996.09375"
     viewBox="0 0 996.09375 996.09375"
     fill="currentColor">
  <path d="M498.0477 996.0959C770.5077 996.0959 996.0977 770.0159 996.0977 498.0459C996.0977 225.5859 770.0177 -0.0041 497.5577 -0.0041C225.5877 -0.0041 -0.0023 225.5859 -0.0023 498.0459C-0.0023 770.0159 226.0777 996.0959 498.0477 996.0959ZM498.0477 913.0859C267.5777 913.0859 83.4977 728.5159 83.4977 498.0459C83.4977 267.5759 267.0877 83.0059 497.5577 83.0059C728.0277 83.0059 913.0877 267.5759 913.0877 498.0459C913.0877 728.5159 728.5177 913.0859 498.0477 913.0859ZM493.6477 453.6159C657.2277 453.6159 754.8877 412.1059 754.8877 351.5659C754.8877 296.3859 677.2477 263.6759 569.3377 263.6759C489.2577 263.6759 425.7777 278.8059 378.4177 301.2659C362.7977 308.5959 359.3777 324.7059 365.2377 335.9359C371.5777 348.6359 387.6977 352.0459 400.8777 346.1959C442.8677 328.6159 495.1177 311.5259 567.3877 311.5259C655.2777 311.5259 703.6177 331.0559 703.6177 351.0759C703.6177 374.9959 625.9777 404.2959 491.6977 404.2959C358.8877 404.2959 292.4777 378.9059 292.4777 332.5159C292.4777 304.6859 317.3877 275.3859 392.5777 251.9559C407.7177 246.5859 415.5277 233.3959 411.1377 219.7259C406.2477 206.5459 394.0477 201.1759 376.4677 206.0559C286.1377 233.3959 240.7277 281.7359 240.7277 333.4959C240.7277 412.5959 330.0777 453.6159 493.6477 453.6159ZM501.4677 541.0159C585.4477 541.0159 663.0877 527.3459 717.2877 504.3959C730.4677 499.5159 736.3277 485.8359 730.4677 473.6359C724.1177 462.4059 711.4277 459.4759 697.2677 464.8459C648.9277 483.8859 578.1277 496.0959 501.4677 496.0959C444.3377 496.0959 380.3677 489.2559 329.5877 474.6059C315.4277 470.7059 302.7377 475.5859 298.8277 488.2859C295.4077 500.9759 302.2477 513.6759 316.8977 517.5759C371.5777 533.2059 441.8977 541.0159 501.4677 541.0159ZM519.5277 626.9559C590.3277 626.4659 656.2477 616.6959 716.3077 596.6759C732.9077 590.3359 736.3277 575.6859 731.9377 565.4259C727.5377 553.2259 714.8477 549.3159 699.2177 554.6859C640.6277 573.7259 582.0277 583.0059 519.5277 583.0059C492.6777 583.0059 465.3277 581.0559 443.8477 578.1259C428.2277 576.1759 418.4577 583.0059 415.5277 594.7259C413.0877 606.9359 419.9177 618.6559 436.5277 622.0659C457.5177 625.4859 486.8177 627.4459 519.5277 626.9559ZM495.1177 708.9859C543.9477 714.3559 603.0277 713.3759 653.8077 699.2159C668.4577 694.8259 674.3177 681.6359 670.4077 670.4059C666.0177 657.7159 654.2977 652.3459 638.6677 656.7359C596.1877 667.9659 547.3677 671.3859 501.9577 665.0359C486.8177 664.0659 475.5877 671.3859 473.6377 684.0859C472.6577 696.2859 479.0077 707.0359 495.1177 708.9859ZM476.5577 792.9659C494.1377 794.9259 513.6677 794.9259 531.7377 792.9659C546.8777 790.5259 553.7077 780.7659 553.2277 768.5559C551.2677 757.3259 542.4777 748.5359 526.3677 750.4859C511.7177 752.4459 496.0977 752.9259 481.4477 750.4859C465.8177 748.5359 456.5477 757.8159 455.0777 768.0659C453.6177 779.7859 459.9577 790.5259 476.5577 792.9659Z"/>
</svg>