<?xml version="1.0" encoding="UTF-8" standalone="no"?>
<svg xmlns="http://www.w3.org/2000/svg"
     width="996.09375" height="996.09375"
     viewBox="0 0 996.09375 996.09375"
     fill="currentColor">
  <path d="M498.0477 996.0977C770.5077 996.0977 996.0977 770.5077 996.0977 498.0477C996.0977 226.0777 770.0177 -0.0023 497.5577 -0.0023C225.5877 -0.0023 -0.0023 226.0777 -0.0023 498.0477C-0.0023 770.5077 226.0777 996.0977 498.0477 996.0977ZM493.6477 452.1477C324.7077 452.1477 232.9077 410.1577 232.9077 328.1277C232.9077 274.8977 279.2977 225.0977 372.5577 196.7777C391.1177 191.8977 403.8077 197.2677 408.6877 211.4277C413.0877 225.5877 405.2777 239.2577 389.6477 244.6277C312.0077 269.0477 286.1377 299.3177 286.1377 327.1477C286.1377 374.9977 354.4877 401.3677 491.6977 401.3677C629.8877 401.3677 709.9577 371.0977 709.9577 346.6777C709.9577 325.6877 660.1577 305.6677 569.3377 305.6677C495.1177 305.6677 441.4077 323.2377 397.9477 341.3077C384.2777 347.6577 367.6777 344.2377 361.3277 331.0577C354.9777 319.8277 358.3977 303.2177 374.5077 295.4077C423.3377 271.9677 488.7677 256.3477 571.7777 256.3477C682.6177 256.3477 762.6977 290.0377 762.6977 347.1677C762.6977 409.1777 662.1077 452.1477 493.6477 452.1477ZM501.4677 542.4777C440.4277 542.4777 367.6777 534.1777 311.5277 518.0677C296.3877 514.1577 289.0577 500.9777 292.4777 488.2777C296.8777 474.6077 310.0577 469.7277 324.7077 474.1177C376.9577 489.2577 442.8677 496.5777 501.4677 496.5777C580.5677 496.5777 653.3177 483.3977 703.1277 464.3577C717.7777 458.4977 730.9577 460.9377 737.7977 473.1477C743.6477 485.8377 737.7977 499.5077 724.1177 504.8877C667.9677 528.3177 588.3777 542.4777 501.4677 542.4777ZM520.0177 631.3477C486.3277 631.8377 456.0577 629.8877 434.5677 625.9777C417.4777 622.5577 410.6477 610.3477 413.0877 598.1477C416.0177 585.9377 426.2677 579.0977 442.3877 580.5677C464.3577 583.4977 492.6777 585.9377 520.0177 585.9377C584.4777 585.9377 645.0177 576.1677 705.5677 556.1477C721.6777 551.2677 734.8677 555.1777 739.2577 567.3877C743.6477 578.1277 740.2377 593.7477 723.1477 599.6077C661.1377 620.6077 593.2577 630.8577 520.0177 631.3477ZM495.1177 716.3077C478.5177 713.3777 471.6777 702.6377 472.6577 689.9377C474.6077 676.7577 486.3277 668.9477 501.9577 670.4077C548.8277 676.7577 599.1177 673.3377 643.0677 661.6177C659.1777 657.7177 671.3877 662.5977 675.7777 675.7777C679.6877 687.4977 673.8277 701.1677 658.6877 706.0577C606.4477 720.2177 545.4077 721.6777 495.1177 716.3077ZM476.0777 802.7377C458.9877 800.2977 452.1477 788.5777 453.6177 776.8577C455.0777 765.6277 464.8477 756.3477 480.9577 758.7877C496.0977 760.7377 512.2077 760.2577 527.3477 758.2977C543.9477 756.3477 553.2277 765.1377 555.1777 776.8577C555.6677 789.5477 548.3377 800.2977 532.7177 802.2477C514.1577 804.1977 494.1377 804.6877 476.0777 802.7377Z"/>
</svg>