<?xml version="1.0" encoding="UTF-8" standalone="no"?>
<svg xmlns="http://www.w3.org/2000/svg"
     width="1608.88671875" height="805.6678338009905"
     viewBox="0 0 1608.88671875 805.6678338009905"
     fill="currentColor">
  <path d="M587.8883 312.9919C722.6583 312.5019 834.4683 265.1419 922.8483 168.4619C833.0083 54.2019 737.3083 0.4919 591.3083 0.0019C445.7983 -0.4881 351.5583 46.3919 256.3483 170.4119C346.1883 267.5819 462.3983 313.4819 587.8883 312.9919ZM1204.0983 548.3419C1272.9483 516.6019 1304.6883 477.0519 1398.4383 477.0519C1525.8783 477.0519 1608.8883 431.1519 1608.8883 358.8919C1608.8883 192.3819 1520.5083 79.1019 1387.6983 79.1019C1272.4583 79.1019 1200.6883 147.9519 1172.8483 258.7919C1152.3483 335.4519 1125.4883 363.7719 1100.5883 385.2619C1124.0283 419.4419 1164.0583 489.7519 1204.0983 548.3419ZM900.3883 606.9419C944.8283 596.1919 983.8883 589.8519 1041.0183 589.8519C1087.8883 589.8519 1133.2983 582.5219 1155.7583 569.8319C1102.0483 500.0019 1005.8583 293.9519 955.5683 215.8219C905.2783 268.0719 823.7283 318.8519 767.5783 340.8219C776.3683 428.7119 824.7083 530.7619 900.3883 606.9419ZM270.9983 609.3819C344.2383 539.0619 403.8083 428.2219 413.0883 342.2919C347.6583 317.8719 267.5783 271.0019 220.6983 220.7019C197.7583 256.3519 173.3383 294.9219 151.8583 337.8919C106.4483 428.7119 54.6883 470.7019 21.4883 501.9519C8.2983 514.1619 -0.0017 528.3219 -0.0017 547.3719C-0.0017 575.6919 30.2783 591.3119 83.4983 591.3119H142.0883C197.2683 591.3119 234.8683 598.1519 270.9983 609.3819ZM1399.4183 310.0619C1375.9783 310.0619 1357.4183 291.0219 1357.4183 268.0719C1357.4183 245.6119 1375.9783 226.5619 1399.4183 226.5619C1421.8783 226.5619 1440.9183 245.6119 1440.9183 268.0719C1440.9183 291.0219 1421.8783 310.0619 1399.4183 310.0619ZM586.9183 721.6819C698.7283 721.6819 777.3483 663.0919 843.2583 630.3719C768.5583 559.5719 720.6983 455.0819 713.3783 358.8919C672.8483 370.1219 631.8383 375.4919 589.3583 375.4919C546.8783 375.9819 505.8583 370.1219 466.3083 359.8719C458.4983 449.7119 409.6683 558.6019 334.9583 632.8119C398.4383 657.7219 475.0983 721.6819 586.9183 721.6819ZM136.7183 804.6919C221.6783 804.6919 308.5983 767.0919 349.6083 709.9619C301.7583 678.2219 241.2083 648.4419 183.5983 646.0019C157.7183 652.8319 128.9083 654.3019 99.1183 660.1619C57.1283 667.9719 19.0383 685.0619 19.0383 725.5919C19.0383 776.8619 70.3083 804.6919 136.7183 804.6919ZM1020.5083 805.6719C1086.9183 805.6719 1138.1883 777.8319 1138.1883 726.5619C1138.1883 686.5319 1100.0983 654.7919 1058.1083 651.3719C1027.8283 649.9019 1004.3983 649.4219 973.6283 647.4619C917.4783 650.3919 856.9383 680.1819 807.6183 710.9419C848.6283 768.5619 935.5483 805.6719 1020.5083 805.6719Z"/>
</svg>