<?xml version="1.0" encoding="UTF-8" standalone="no"?>
<svg xmlns="http://www.w3.org/2000/svg"
     width="1075.9133954704619" height="1058.3173211069845"
     viewBox="0 0 1075.9133954704619 1058.3173211069845"
     fill="currentColor">
  <path d="M34.7691 403.3159C48.9291 408.6959 66.9991 402.3459 73.8291 383.7859C152.4491 164.0659 340.4291 54.6859 531.3491 54.6859C618.2691 54.6859 686.6291 72.2659 744.7291 105.4659C761.3291 115.2359 779.8891 115.2359 787.2091 99.1259C795.0191 82.0359 786.2391 71.2859 774.0291 63.4759C699.8091 17.0859 624.6091 -0.0041 531.3491 -0.0041C310.6491 -0.0041 110.4491 117.6759 20.6091 356.9359C11.3291 381.3459 20.6091 398.4359 34.7691 403.3159ZM1050.3991 580.5659C1066.0191 580.5659 1077.2491 567.8759 1075.7891 550.7859C1053.8091 352.0459 988.3791 226.5659 875.5891 127.9259C861.4291 115.2359 844.3391 119.1359 836.0391 128.9059C826.7591 139.1559 825.7891 155.2759 840.4291 168.4559C936.6291 258.2959 1006.4491 374.5159 1023.0491 551.7559C1024.9991 567.8759 1034.7691 580.5659 1050.3991 580.5659ZM112.8991 835.9359C122.1691 848.6359 140.7291 852.0459 154.3991 840.3359C189.5591 810.5459 207.1291 762.6959 207.1291 712.8859C207.1291 645.5059 177.8391 611.3259 177.8391 527.3459C177.8391 335.9359 337.0191 176.7559 528.4191 176.7559C759.3791 176.7559 908.3091 365.7259 908.7891 644.5359C908.7891 753.4159 890.7291 830.5659 872.6591 874.9959C866.3091 890.1359 872.1691 906.2459 884.8691 913.0859C898.5391 918.9459 917.5791 914.0659 923.4391 897.9459C942.4891 846.1959 963.4791 761.2259 963.4791 644.0459C963.4791 333.0059 792.0891 122.0659 528.4191 122.0659C306.7391 122.0659 123.1491 306.1559 123.1491 527.3459C123.1491 607.4259 153.4191 661.6259 153.9091 712.4059C153.9091 745.6059 141.6991 777.3459 118.7491 797.3659C107.0391 807.1259 105.0791 824.7059 112.8991 835.9359ZM332.6191 662.1059C320.4091 628.9059 300.3991 586.9159 300.3991 530.2759C300.3991 400.3859 401.4691 299.3159 531.3491 299.3159C581.1591 299.3159 596.7791 304.6859 640.2391 325.6859C655.3791 332.5159 669.0491 328.1259 674.4191 317.3859C681.7391 303.7059 677.8391 287.1059 661.2391 277.3459C629.0091 258.2959 579.6891 244.1359 531.3491 244.1359C371.1991 244.1359 245.2191 370.1159 245.2191 530.2759C245.2191 591.7959 261.8191 641.6059 278.9091 683.1059C285.7491 699.2159 300.3991 707.0359 317.9691 699.7059C332.6191 693.8459 337.9891 678.2259 332.6191 662.1059ZM716.8991 391.1159C764.2591 459.9559 787.6991 555.1759 787.6991 670.4059C787.6991 793.4559 753.5191 909.6659 700.2991 976.0759C691.5091 987.7959 690.5291 1004.3959 701.2691 1015.1359C712.9891 1025.8759 733.0091 1025.3859 742.7791 1012.2059C802.3491 931.6359 841.4091 803.7059 841.4091 668.4559C841.4091 520.5059 809.6691 432.6159 765.2391 361.8159C754.9891 346.1959 737.8991 341.3059 724.2191 348.6359C710.0591 356.4459 705.6691 374.5159 716.8991 391.1159ZM330.6691 991.2159C410.7491 926.7559 454.6891 824.2159 454.1991 710.4459C453.7191 624.5159 422.9491 571.2859 422.9491 524.4159C422.9491 462.8859 466.4091 421.8759 529.8891 421.8759C627.5391 421.8759 659.2791 533.2059 662.2091 665.0359C666.6091 817.3859 611.4291 946.2859 539.1591 1009.7659C527.4491 1019.5359 524.9991 1034.6659 532.8191 1046.8759C542.0891 1060.0559 561.1391 1062.4959 573.8291 1050.7859C649.9991 981.4459 714.4591 829.1059 713.4791 661.1359C712.9891 497.0659 666.6091 367.1859 529.8891 367.1859C439.0691 367.1859 369.2391 427.7359 369.2391 519.5359C369.2391 574.7059 398.5391 642.5759 399.0291 710.4459C399.5191 807.1259 363.3791 894.0459 296.4891 948.2459C283.3091 958.9859 281.3491 974.6059 289.6491 986.8159C299.9091 1000.9759 317.4891 1002.4459 330.6691 991.2159ZM56.2491 694.3359C70.4091 689.9459 77.2491 675.2959 73.3391 658.6959C61.1391 609.3759 53.8091 557.1259 56.2491 488.7659C56.7391 470.7059 46.9791 460.9359 32.3291 459.9559C13.2891 458.4959 3.0291 470.2159 1.5691 485.3559C-2.8309 540.5259 1.5691 606.4459 20.6091 674.3159C25.4891 690.9159 41.1191 699.2159 56.2491 694.3359ZM577.7391 762.2059C591.4091 696.2859 586.0391 611.8159 562.1091 538.5759C555.7691 520.5059 541.6091 512.6959 526.4691 517.5759C512.3091 522.4559 503.5191 535.6459 508.8891 552.7359C531.3491 623.5359 535.2591 693.3559 524.0291 754.8859C521.0991 769.5359 526.9591 783.6959 544.0491 786.1359C559.6691 789.0659 574.3191 779.7859 577.7391 762.2059ZM228.1291 926.7559C264.2591 908.2059 313.5791 844.7259 327.2491 794.4359C331.1591 780.7659 324.8091 764.1559 309.6691 759.2759C295.9991 754.3959 281.3491 762.6959 275.9791 778.3159C262.7991 821.2859 239.8491 853.5159 203.7191 877.9259C186.1391 890.1359 183.6991 905.2759 189.0691 916.5059C194.9291 928.7159 210.5491 935.5459 228.1291 926.7559ZM444.9291 1030.2759C483.4991 1002.4459 531.3491 938.4759 549.9091 875.9759C553.3291 865.2359 550.8791 847.1659 535.2591 841.7959C518.6591 835.9359 504.4991 844.2359 500.0991 856.9359C475.1991 922.3659 444.4391 960.9359 411.7191 986.3259C399.5191 996.0959 396.0991 1012.2059 404.3991 1024.9059C412.2091 1038.5759 431.2491 1040.5259 444.9291 1030.2759Z"/>
</svg>