<?xml version="1.0" encoding="UTF-8" standalone="no"?>
<svg xmlns="http://www.w3.org/2000/svg"
     width="1217.28515625" height="774.90234375"
     viewBox="0 0 1217.28515625 774.90234375"
     fill="currentColor">
  <path d="M-0.0017 625.4861C-0.0017 725.0961 50.2883 774.9061 151.3683 774.9061H1065.9183C1166.9883 774.9061 1217.2883 725.0961 1217.2883 625.4861V149.4161C1217.2883 49.8061 1166.9883 -0.0039 1065.9183 -0.0039H269.5283C186.0383 -0.0039 137.6983 48.3361 112.7883 123.5361L16.5983 415.5261C4.8783 449.7061 -0.0017 478.5161 -0.0017 517.0861ZM477.0483 378.9061V228.5161C477.0483 199.2161 494.6283 182.1261 523.4383 182.1261H975.5883C1004.8783 182.1261 1021.9683 199.2161 1021.9683 228.5161V378.9061C1021.9683 406.7361 1004.8783 423.8261 975.5883 423.8261H523.4383C494.6283 423.8261 477.0483 406.7361 477.0483 378.9061ZM174.8083 423.8261C147.4583 423.8261 132.8083 401.8561 144.0383 367.1861L193.3583 217.2861C200.1983 195.7961 210.9383 182.1261 245.6083 182.1261H301.2683C330.0783 182.1261 347.6583 199.2161 347.6583 228.5161V378.9061C347.6583 406.7361 330.0783 423.8261 301.2683 423.8261Z"/>
</svg>