<?xml version="1.0" encoding="UTF-8" standalone="no"?>
<svg xmlns="http://www.w3.org/2000/svg"
     width="1217.28515625" height="774.90234375"
     viewBox="0 0 1217.28515625 774.90234375"
     fill="currentColor">
  <path d="M-0.0017 625.4861C-0.0017 725.0961 50.2883 774.9061 151.3683 774.9061H1065.9183C1166.9883 774.9061 1217.2883 725.0961 1217.2883 625.4861V149.4161C1217.2883 49.8061 1166.9883 -0.0039 1065.9183 -0.0039H151.3683C50.2883 -0.0039 -0.0017 49.8061 -0.0017 149.4161ZM178.7083 378.9061V228.5161C178.7083 199.2161 196.2883 182.1261 225.0983 182.1261H992.1883C1020.9983 182.1261 1038.5783 199.2161 1038.5783 228.5161V378.9061C1038.5783 406.7361 1020.9983 423.8261 992.1883 423.8261H225.0983C196.2883 423.8261 178.7083 406.7361 178.7083 378.9061Z"/>
</svg>