<?xml version="1.0" encoding="UTF-8" standalone="no"?>
<svg xmlns="http://www.w3.org/2000/svg"
     width="1339.35546875" height="774.90234375"
     viewBox="0 0 1339.35546875 774.90234375"
     fill="currentColor">
  <path d="M-0.0017 625.4861C-0.0017 725.0961 50.2883 774.9061 151.3683 774.9061H1092.7783C1254.8783 774.9061 1339.3583 680.1761 1339.3583 568.3561C1339.3583 499.9961 1308.5983 425.7861 1242.6783 360.8361L1042.9683 162.5961C916.5083 37.5961 834.9583 -0.0039 685.5483 -0.0039H151.3683C50.2883 -0.0039 -0.0017 49.8061 -0.0017 149.4161ZM516.5983 393.5561V213.8661C516.5983 184.5661 533.6883 167.4761 562.9883 167.4761H696.7783C835.9383 167.4761 901.3683 185.5461 970.6983 253.9061L1083.0083 365.7261C1113.7683 396.4861 1095.6983 438.4761 1062.4983 438.4761H562.9883C533.6883 438.4761 516.5983 421.3861 516.5983 393.5561Z"/>
</svg>