<?xml version="1.0" encoding="UTF-8" standalone="no"?>
<svg xmlns="http://www.w3.org/2000/svg"
     width="996.09375" height="996.09375"
     viewBox="0 0 996.09375 996.09375"
     fill="currentColor">
  <path d="M498.0477 996.0959C770.5077 996.0959 996.0977 770.0159 996.0977 498.0459C996.0977 225.5859 770.0177 -0.0041 497.5577 -0.0041C225.5877 -0.0041 -0.0023 225.5859 -0.0023 498.0459C-0.0023 770.0159 226.0777 996.0959 498.0477 996.0959ZM498.0477 913.0859C267.5777 913.0859 83.4977 728.5159 83.4977 498.0459C83.4977 267.5759 267.0877 83.0059 497.5577 83.0059C728.0277 83.0059 913.0877 267.5759 913.0877 498.0459C913.0877 728.5159 728.5177 913.0859 498.0477 913.0859ZM333.9877 797.3659H347.1677C354.0077 797.3659 357.9077 794.9259 361.3277 789.5459L374.9977 767.0859H621.0977L634.7677 789.5459C638.1877 794.9259 642.0877 797.3659 648.9277 797.3659H662.1077C673.3377 797.3659 678.2277 786.6259 671.8777 776.3659L620.6077 692.8759H630.3677C672.8477 692.8759 697.2677 664.0659 697.2677 623.5359V453.6159C697.2677 390.1359 688.9677 328.1259 679.1977 289.0659C669.4377 248.5359 642.0877 218.7459 600.5877 214.3559C585.4477 212.4059 545.8977 208.9859 497.5577 208.9859C449.2177 208.9859 409.6677 212.4059 394.5277 214.3559C353.0277 218.7459 325.6877 248.5359 315.9177 289.0659C306.1477 328.1259 297.8477 390.1359 297.8477 453.6159V623.5359C297.8477 664.0659 322.2677 692.8759 364.7477 692.8759H375.4877L323.7277 776.3659C317.3877 786.6259 322.7577 797.3659 333.9877 797.3659ZM437.0077 283.2059C428.2277 283.2059 422.3677 277.3459 422.3677 268.5559C422.3677 260.2559 428.2277 254.3959 437.0077 254.3959H558.1077C566.8977 254.3959 573.2377 260.2559 573.2377 268.5559C573.2377 277.3459 566.8977 283.2059 558.1077 283.2059ZM497.5577 536.1359C442.3877 535.6459 392.0877 533.2059 366.6977 530.2759C352.0477 528.8059 346.6777 519.5359 346.6777 505.8559V451.1759C346.6777 403.8059 352.0477 364.7459 355.4677 347.6559C357.9077 336.9159 364.7477 329.5859 374.5077 328.1259C401.3677 325.1959 434.5677 323.2459 497.5577 323.2459C560.5477 322.7559 593.7477 325.1959 619.6277 328.1259C630.3677 329.5859 637.2077 336.9159 639.6477 347.6559C643.0677 364.7459 648.4377 403.8059 648.4377 451.1759V505.8559C648.4377 519.5359 643.0677 528.8059 628.4177 530.2759C590.3277 534.1759 540.0377 536.1359 497.5577 536.1359ZM607.4177 643.5559C588.8677 643.5559 574.7077 629.3959 574.7077 610.3559C574.7077 591.7959 588.8677 577.6359 607.4177 577.6359C625.9777 577.6359 640.6277 591.7959 640.6277 610.3559C640.6277 629.3959 625.4877 643.5559 607.4177 643.5559ZM387.2077 643.0659C368.6477 643.0659 354.9777 629.8859 354.9777 610.3559C354.9777 591.7959 368.6477 578.1259 387.2077 578.1259C406.2477 578.1259 419.9177 591.7959 419.9177 610.3559C419.9177 629.8859 405.7577 643.0659 387.2077 643.0659ZM396.9777 731.4459L420.8977 692.8759H575.1977L599.1177 731.4459Z"/>
</svg>