<?xml version="1.0" encoding="UTF-8" standalone="no"?>
<svg xmlns="http://www.w3.org/2000/svg"
     width="996.09375" height="996.09375"
     viewBox="0 0 996.09375 996.09375"
     fill="currentColor">
  <path d="M498.0477 996.0977C770.5077 996.0977 996.0977 770.5077 996.0977 498.0477C996.0977 226.0777 770.0177 -0.0023 497.5577 -0.0023C225.5877 -0.0023 -0.0023 226.0777 -0.0023 498.0477C-0.0023 770.5077 226.0777 996.0977 498.0477 996.0977ZM291.9877 627.9277V451.6577C291.9877 387.2077 300.7777 323.2377 310.5477 282.2277C320.7977 241.2077 349.1177 210.4477 392.0877 205.5677C407.2277 203.6177 448.2377 200.1977 498.0477 200.1977C547.8477 200.1977 588.8677 203.6177 604.0077 205.5677C646.9777 210.4477 675.2977 241.2077 685.5477 282.2277C695.3077 323.2377 704.0977 387.2077 704.0977 451.6577V627.9277C704.0977 674.8077 678.7077 699.2177 624.9977 699.2177L677.7377 785.1577C684.5677 795.4077 679.1977 807.1277 667.9677 807.1277H654.2977C646.9777 807.1277 643.0677 804.6877 639.6477 798.8277L624.9977 775.8777H372.0677L357.4177 798.8277C354.0077 804.6877 350.0977 807.1277 342.7777 807.1277H329.5877C317.8677 807.1277 312.0077 795.4077 318.8477 785.1577L372.5577 699.2177C320.7977 698.7277 291.9877 677.7377 291.9877 627.9277ZM420.4077 261.7177C420.4077 270.0177 426.7577 276.8577 435.5477 276.8577H560.5477C569.3377 276.8577 576.1677 270.0177 576.1677 261.7177C576.1677 252.4377 569.3377 247.0677 560.5477 247.0677H435.5477C426.7577 247.0677 420.4077 252.4377 420.4077 261.7177ZM342.2877 506.3477C342.2877 520.5077 348.1477 529.7877 362.7977 531.2477C389.1577 534.1777 440.9177 537.1077 498.0477 537.5977C541.9877 537.5977 593.7477 535.6477 633.2977 531.2477C647.9477 529.7877 653.8077 520.5077 653.8077 506.3477V449.7077C653.8077 400.3877 647.9477 360.8377 644.5277 343.2577C642.0877 332.0277 635.2577 324.7077 624.0277 323.2377C597.1677 320.3077 562.9877 317.3877 498.0477 317.8677C433.1077 317.8677 398.9277 320.3077 371.0977 323.2377C360.8377 324.7077 354.0077 332.0277 351.5577 343.2577C348.1477 360.8377 342.2877 400.3877 342.2877 449.7077ZM577.6377 614.2577C577.6377 633.2977 592.2877 648.4377 611.3277 648.4377C629.8877 648.4377 645.5077 633.2977 645.5077 614.2577C645.5077 594.7277 630.3677 580.0777 611.3277 580.0777C592.2877 580.0777 577.6377 594.7277 577.6377 614.2577ZM351.0777 614.2577C351.0777 633.7877 365.2377 647.9477 384.2777 647.9477C403.3177 647.9477 417.9677 633.7877 417.9677 614.2577C417.9677 594.7277 403.8077 580.5677 384.2777 580.5677C365.2377 580.5677 351.0777 594.7277 351.0777 614.2577ZM394.5277 738.7677H602.5377L578.1277 699.2177H418.9477Z"/>
</svg>