<?xml version="1.0" encoding="UTF-8" standalone="no"?>
<svg xmlns="http://www.w3.org/2000/svg"
     width="1125.48828125" height="1308.10546875"
     viewBox="0 0 1125.48828125 1308.10546875"
     fill="currentColor">
  <path d="M-0.0017 1269.047C-0.0017 1290.527 17.5783 1308.107 39.0583 1308.107C61.0383 1308.107 78.6183 1290.527 78.6183 1269.047V503.907C78.6183 227.047 247.5583 78.617 562.9883 78.617C877.9283 78.617 1046.8783 227.047 1046.8783 503.907V1269.047C1046.8783 1290.527 1064.9383 1308.107 1086.4283 1308.107C1107.9083 1308.107 1125.4883 1290.527 1125.4883 1269.047V503.907C1125.4883 175.777 929.6883 -0.003 562.9883 -0.003C195.7983 -0.003 -0.0017 175.777 -0.0017 503.907ZM333.9883 1083.987H346.6783L261.2283 1221.677C249.9983 1239.747 260.7383 1260.257 281.2483 1260.257H304.1983C316.4083 1260.257 323.2383 1255.857 330.5683 1245.117L353.0283 1208.497H773.9283L796.3883 1245.117C803.2183 1255.857 811.0383 1260.257 823.2383 1260.257H845.6983C865.7183 1260.257 876.4683 1239.257 865.7183 1221.677L780.2783 1083.987H791.5083C867.1883 1083.987 911.1283 1031.737 911.1283 958.987V666.507C911.1283 557.127 896.4883 450.197 880.3683 383.297C862.3083 308.107 810.5483 258.787 740.2383 250.487C713.8683 247.557 645.5083 241.697 562.9883 241.697C480.4683 241.697 411.6183 247.557 385.2583 250.487C314.9383 258.787 263.1883 308.107 245.1183 383.297C229.0083 450.197 214.3583 557.127 214.3583 666.507V958.987C214.3583 1031.737 258.2983 1083.987 333.9883 1083.987ZM460.9383 379.397C443.3583 379.397 431.6383 367.677 431.6383 350.097C431.6383 332.517 443.3583 320.797 460.9383 320.797H664.5483C682.1283 320.797 693.8483 332.517 693.8483 350.097C693.8483 367.677 682.1283 379.397 664.5483 379.397ZM562.9883 804.687C468.7483 804.197 381.8383 799.807 338.3783 794.437C318.3583 791.997 308.5983 779.787 308.5983 757.327V663.087C308.5983 581.547 317.3783 515.627 323.7283 485.837C327.1483 468.747 337.3983 458.987 352.5383 457.027C398.4383 451.167 454.5883 448.247 562.9883 448.247C670.4083 448.247 727.0483 451.167 771.4883 456.547C787.5983 458.987 798.3383 468.747 801.7583 485.837C808.1083 515.627 816.8983 581.547 816.8983 663.087V757.327C816.8983 780.277 807.1283 791.997 787.1083 794.437C721.6783 803.227 635.7383 804.197 562.9883 804.687ZM373.0483 996.577C338.8683 996.577 313.9683 971.187 313.9683 936.527C313.9683 902.347 338.8683 877.437 373.0483 877.437C407.7183 877.437 433.1083 902.347 433.1083 936.527C433.1083 971.187 406.7383 996.577 373.0483 996.577ZM751.9483 996.577C717.7783 996.577 692.3783 971.187 692.3783 936.527C692.3783 902.347 717.7783 877.437 751.9483 877.437C786.6183 877.437 811.5283 902.347 811.5283 936.527C811.5283 971.187 785.6483 996.577 751.9483 996.577ZM394.0383 1143.067L430.6683 1083.987H696.2883L732.9083 1143.067Z"/>
</svg>