<?xml version="1.0" encoding="UTF-8" standalone="no"?>
<svg xmlns="http://www.w3.org/2000/svg"
     width="821.2890625" height="1209.47265625"
     viewBox="0 0 821.2890625 1209.47265625"
     fill="currentColor">
  <path d="M136.7183 994.6302H159.6683L52.2483 1166.9902C39.5483 1187.5002 51.2683 1209.4702 74.2183 1209.4702H101.5583C115.2383 1209.4702 122.5583 1204.5902 129.8783 1192.8702L158.1983 1147.9502H665.0383L692.8683 1192.8702C700.1983 1204.5902 708.0083 1209.4702 721.6783 1209.4702H749.0283C771.4883 1209.4702 781.7383 1187.0102 769.5283 1166.9902L663.5783 994.6302H684.5683C771.4883 994.6302 821.2883 935.0602 821.2883 851.5602V501.4602C821.2883 371.5802 804.6883 244.6302 784.6683 164.0602C764.6483 81.0502 708.4983 19.0402 622.0683 9.7702C590.8183 6.3502 509.2783 0.0002 410.6483 0.0002C312.0083 0.0002 229.9783 6.3502 199.2183 9.7702C112.3083 19.0402 56.6383 81.0502 36.6183 164.0602C16.5983 244.6302 -0.0017 371.5802 -0.0017 501.4602V851.5602C-0.0017 935.0602 49.8083 994.6302 136.7183 994.6302ZM285.6483 151.8602C267.5783 151.8602 255.8583 139.6502 255.8583 121.5802C255.8583 103.5202 267.5783 92.2802 285.6483 92.2802H535.1583C553.7083 92.2802 565.4283 103.5202 565.4283 121.5802C565.4283 139.6502 553.7083 151.8602 535.1583 151.8602ZM410.6483 672.3602C297.3683 671.3902 193.3583 666.5002 140.6283 660.1602C111.3283 656.2502 100.0983 637.2102 100.0983 609.8602V497.5602C100.0983 398.9302 110.8383 319.3402 118.6483 284.6702C123.5383 263.1802 136.7183 247.5602 157.7183 245.1202C212.8883 238.2802 280.7583 234.8602 410.6483 234.3702C540.0383 233.8902 607.9083 238.2802 661.6183 245.1202C683.5983 247.5602 697.2683 263.1802 702.1483 284.6702C709.9583 319.3402 720.6983 398.9302 720.6983 497.5602V609.8602C720.6983 637.7002 709.4683 656.7402 680.1783 660.1602C601.5583 668.4602 497.5583 672.3602 410.6483 672.3602ZM636.7183 892.5802C598.1483 892.5802 568.8483 863.7702 568.8483 825.2002C568.8483 787.1102 598.1483 757.8102 636.7183 757.8102C674.8083 757.8102 704.0983 787.1102 704.0983 825.2002C704.0983 863.7702 674.3183 892.5802 636.7183 892.5802ZM183.5983 892.0902C145.0183 892.0902 117.1883 864.2602 117.1883 825.2002C117.1883 786.6202 145.0183 758.3002 183.5983 758.3002C222.6583 758.3002 250.9783 786.6202 250.9783 825.2002C250.9783 864.2602 221.6783 892.0902 183.5983 892.0902ZM203.6183 1074.7102L252.9283 994.6302H570.3083L619.6283 1074.7102Z"/>
</svg>