<?xml version="1.0" encoding="UTF-8" standalone="no"?>
<svg xmlns="http://www.w3.org/2000/svg"
     width="998.1569777894247" height="1167.96875"
     viewBox="0 0 998.1569777894247 1167.96875"
     fill="currentColor">
  <path d="M994.1942 857.9148L856.0142 297.3648C838.4342 225.5848 793.0242 188.4748 722.7142 188.4748H536.1842V39.0648C536.1842 14.6448 522.0242 0.0048 499.5642 0.0048C476.6142 0.0048 462.4542 14.6448 462.4542 39.0648V188.4748H536.1842V979.4948H889.2142C969.7842 979.4948 1011.7742 931.1548 994.1942 857.9148ZM108.4542 979.4948H462.4542V1128.9048C462.4542 1152.8348 476.6142 1167.9648 499.5642 1167.9648C522.0242 1167.9648 536.1842 1152.8348 536.1842 1128.9048V979.4948H462.4542V188.4748H275.4442C204.6442 188.4748 159.2342 225.5848 141.6542 297.3648L3.9642 857.9148C-13.6158 931.1548 28.3742 979.4948 108.4542 979.4948Z"/>
</svg>