<?xml version="1.0" encoding="UTF-8" standalone="no"?>
<svg xmlns="http://www.w3.org/2000/svg"
     width="997.0686914829441" height="1167.96875"
     viewBox="0 0 997.0686914829441 1167.96875"
     fill="currentColor">
  <path d="M4.9643 852.5348C-14.5657 930.6648 24.0143 979.4948 111.4143 979.4948H462.0043V1128.9048C462.0043 1152.8348 476.1643 1167.9648 499.1143 1167.9648C521.5743 1167.9648 535.7343 1152.8348 535.7343 1128.9048V979.4948H885.3443C973.2343 979.4948 1011.3143 930.6648 992.2743 852.5348L856.5343 301.2648C838.4643 227.5348 797.4543 188.4748 718.3443 188.4748H535.7343V39.0648C535.7343 14.6448 521.5743 0.0048 499.1143 0.0048C476.1643 0.0048 462.0043 14.6448 462.0043 39.0648V188.4748H278.8943C199.3043 188.4748 158.7743 227.5348 140.2243 301.2648ZM79.1843 852.5348L210.5343 311.5248C218.8343 277.8348 238.8543 262.2048 275.4743 262.2048H462.0043V905.7648H118.7343C87.4843 905.7648 71.3743 884.7648 79.1843 852.5348ZM721.7643 262.2048C758.3843 262.2048 778.4043 277.8348 786.7043 311.5248L917.5643 852.5348C925.8643 884.7648 909.7543 905.7648 878.0143 905.7648H535.7343V262.2048Z"/>
</svg>