<?xml version="1.0" encoding="UTF-8" standalone="no"?>
<svg xmlns="http://www.w3.org/2000/svg"
     width="1181.15234375" height="856.4713569955768"
     viewBox="0 0 1181.15234375 856.4713569955768"
     fill="currentColor">
  <path d="M1181.1483 428.5495C1181.1483 405.1095 1166.5083 391.4395 1142.0883 391.4395H1005.8583V130.6995C1005.8583 37.4395 942.3783 -13.8305 847.1683 3.2595L318.8483 96.0295C225.0983 112.1395 175.2883 162.4395 175.2883 241.5395V391.4395H1005.8583V465.1695H1142.0883C1166.5083 465.1695 1181.1483 451.0095 1181.1483 428.5495ZM39.0583 465.1695H175.2883V615.0695C175.2883 693.6895 225.0983 744.4695 318.8483 761.0695L847.1683 853.3595C942.3783 869.9595 1005.8583 819.1795 1005.8583 725.9095V465.1695H175.2883V391.4395H39.0583C14.6483 391.4395 -0.0017 405.1095 -0.0017 428.5495C-0.0017 451.0095 14.6483 465.1695 39.0583 465.1695Z"/>
</svg>