<?xml version="1.0" encoding="UTF-8" standalone="no"?>
<svg xmlns="http://www.w3.org/2000/svg"
     width="996.09375" height="996.09375"
     viewBox="0 0 996.09375 996.09375"
     fill="currentColor">
  <path d="M498.0477 996.0959C770.5077 996.0959 996.0977 770.0159 996.0977 498.0459C996.0977 225.5859 770.0177 -0.0041 497.5577 -0.0041C225.5877 -0.0041 -0.0023 225.5859 -0.0023 498.0459C-0.0023 770.0159 226.0777 996.0959 498.0477 996.0959ZM498.0477 913.0859C267.5777 913.0859 83.4977 728.5159 83.4977 498.0459C83.4977 267.5759 267.0877 83.0059 497.5577 83.0059C728.0277 83.0059 913.0877 267.5759 913.0877 498.0459C913.0877 728.5159 728.5177 913.0859 498.0477 913.0859ZM683.5977 597.6559L694.3377 348.1459H732.9077C744.6277 348.1459 753.9077 338.8659 754.3977 327.6359C754.8877 315.9159 744.6277 306.6359 732.9077 306.6359H616.2077V267.0859C616.2077 226.5659 589.3577 201.1759 546.3877 201.1759H447.7577C405.2777 201.1759 378.4177 226.5659 378.4177 267.0859V282.7159H368.6477L489.2577 403.3159V394.0459C491.2077 392.0859 493.6477 391.1159 496.5777 391.1159C507.8077 391.1159 515.1377 397.9459 515.1377 408.2059V429.1959L569.3377 483.3959L572.2677 408.2059C572.2677 397.4559 579.5877 391.1159 590.3277 391.1159C601.0777 391.1159 607.9077 397.9459 607.4177 408.2059L603.5177 517.0859ZM716.3077 746.5859C725.5877 755.3759 738.7677 754.8859 747.0677 746.0959C756.3477 737.3059 756.3477 723.6359 747.0677 714.8459L287.1077 254.8859C278.3177 245.6059 264.1577 245.6059 255.8577 254.8859C247.0677 263.1859 247.0677 276.8559 255.8577 286.1359ZM427.7377 306.6359V269.5359C427.7377 256.8359 437.0077 248.5359 450.1977 248.5359H543.4577C556.6377 248.5359 565.9177 256.8359 565.9177 269.5359V306.6359ZM371.5777 785.6459H624.0277C645.9977 785.6459 664.0577 775.3859 670.4077 759.7659L671.8777 754.8859L598.6377 682.1259L597.1677 696.7759C595.7077 705.0759 588.3777 709.9559 580.0777 709.9559C568.8477 709.9559 562.9877 703.1259 562.9877 693.3559L564.4577 647.9459L515.1377 598.6359V693.3559C515.1377 703.1259 507.3277 709.9559 496.5777 709.9559C485.8377 709.9559 479.0077 703.1259 479.0077 693.3559V562.0159L423.8277 507.3259L430.1777 693.3559C430.6677 703.1259 424.3177 709.9559 413.5777 709.9559C403.3177 709.9559 395.9977 703.1259 395.9977 693.3559L387.6977 470.7059L302.7377 385.7459L317.8677 734.3759C319.3377 767.0859 338.3777 785.6459 371.5777 785.6459Z"/>
</svg>