<?xml version="1.0" encoding="UTF-8" standalone="no"?>
<svg xmlns="http://www.w3.org/2000/svg"
     width="945.80078125" height="1075.1953125"
     viewBox="0 0 945.80078125 1075.1953125"
     fill="currentColor">
  <path d="M36.623 267.5742H110.353L141.603 980.9542C144.043 1041.5042 180.663 1075.1942 240.723 1075.1942H705.083C765.623 1075.1942 802.243 1041.5042 804.683 980.9542L836.423 267.5742H909.183C929.203 267.5742 945.803 250.4842 945.803 230.4642C945.803 210.4442 929.203 193.8442 909.183 193.8442H691.403V119.1442C691.403 45.4142 643.063 0.0042 564.943 0.0042H379.883C301.753 0.0042 253.423 45.4142 253.423 119.1442V193.8442H36.623C17.093 193.8442 0.003 210.4442 0.003 230.4642C0.003 250.9742 17.093 267.5742 36.623 267.5742ZM341.793 124.0242C341.793 99.6142 358.883 83.0042 385.253 83.0042H560.063C586.423 83.0042 603.513 99.6142 603.513 124.0242V193.8442H341.793ZM318.363 935.5442C300.783 935.5442 288.573 924.3142 288.083 906.7342L272.953 375.0042C272.463 357.9142 284.673 346.1942 303.713 346.1942C320.803 346.1942 333.493 357.4242 333.983 374.5142L348.633 906.7342C349.123 923.8242 336.913 935.5442 318.363 935.5442ZM473.143 935.5442C454.593 935.5442 441.403 923.8242 441.403 906.7342V375.0042C441.403 357.9142 454.593 346.1942 473.143 346.1942C491.703 346.1942 504.393 357.9142 504.393 375.0042V906.7342C504.393 923.8242 491.703 935.5442 473.143 935.5442ZM627.443 935.5442C608.883 935.5442 596.683 923.8242 597.173 906.7342L611.813 375.0042C612.303 357.4242 625.003 346.1942 642.093 346.1942C660.643 346.1942 673.343 357.9142 672.853 375.0042L657.713 906.7342C657.223 924.3142 645.023 935.5442 627.443 935.5442Z"/>
</svg>