<?xml version="1.0" encoding="UTF-8" standalone="no"?>
<svg xmlns="http://www.w3.org/2000/svg"
     width="996.09375" height="996.09375"
     viewBox="0 0 996.09375 996.09375"
     fill="currentColor">
  <path d="M498.0477 996.0959C770.5077 996.0959 996.0977 770.0159 996.0977 498.0459C996.0977 225.5859 770.0177 -0.0041 497.5577 -0.0041C225.5877 -0.0041 -0.0023 225.5859 -0.0023 498.0459C-0.0023 770.0159 226.0777 996.0959 498.0477 996.0959ZM498.0477 913.0859C267.5777 913.0859 83.4977 728.5159 83.4977 498.0459C83.4977 267.5759 267.0877 83.0059 497.5577 83.0059C728.0277 83.0059 913.0877 267.5759 913.0877 498.0459C913.0877 728.5159 728.5177 913.0859 498.0477 913.0859ZM371.5777 785.6459H624.0277C656.7377 785.6459 676.7577 767.0859 678.2277 734.3759L694.8277 348.1459H733.3977C745.1177 348.1459 753.9077 338.8659 754.3977 327.6359C754.8877 315.9159 745.1177 306.6359 733.3977 306.6359H616.2077V267.0859C616.2077 226.5659 589.3577 201.1759 546.3877 201.1759H447.7577C405.2777 201.1759 378.9077 226.5659 378.9077 267.0859V306.6359H261.2277C249.9977 306.6359 240.2377 315.9159 240.2377 327.6359C240.2377 338.8659 249.9977 348.1459 261.2277 348.1459H301.2677L318.3577 734.3759C319.3377 767.0859 338.3777 785.6459 371.5777 785.6459ZM428.2277 306.6359V269.5359C428.2277 256.8359 437.4977 248.5359 450.6877 248.5359H543.4577C556.6377 248.5359 565.9177 256.8359 565.9177 269.5359V306.6359ZM413.5777 709.9559C403.8077 709.9559 395.9977 703.1259 395.9977 693.3559L385.7377 408.2059C385.7377 397.9459 392.0877 391.1159 403.8077 391.1159C413.5777 391.1159 421.3877 397.4559 421.3877 408.2059L430.6677 693.3559C430.6677 703.1259 424.3177 709.9559 413.5777 709.9559ZM497.0677 709.9559C486.3277 709.9559 479.0077 703.1259 479.0077 693.3559V408.2059C479.0077 397.9459 485.8377 391.1159 497.0677 391.1159C507.8077 391.1159 515.1377 397.9459 515.1377 408.2059V693.3559C515.1377 703.1259 507.8077 709.9559 497.0677 709.9559ZM580.0777 709.9559C569.3377 709.9559 562.9877 703.1259 562.9877 693.3559L572.2677 408.2059C572.7577 397.4559 580.0777 391.1159 590.3277 391.1159C601.5577 391.1159 607.9077 397.9459 607.9077 408.2059L597.6577 693.3559C597.6577 703.1259 589.8477 709.9559 580.0777 709.9559Z"/>
</svg>