<?xml version="1.0" encoding="UTF-8" standalone="no"?>
<svg xmlns="http://www.w3.org/2000/svg"
     width="945.6787109375" height="1075.1953125"
     viewBox="0 0 945.6787109375 1075.1953125"
     fill="currentColor">
  <path d="M814.3309 760.2542L835.8109 267.5742H909.0609C929.0809 267.5742 945.6809 250.4842 945.6809 230.4642C945.6809 210.4442 929.0809 193.8442 909.0609 193.8442H691.2809V119.1442C691.2809 45.4142 642.9409 0.0042 564.8209 0.0042H379.2709C301.6309 0.0042 253.3009 45.4142 253.3009 119.1442V181.1542H234.7409L443.7209 390.1342V363.7742C448.1209 352.5342 458.8609 346.1942 472.5309 346.1942C491.0909 346.1942 504.2709 357.9142 504.2709 375.0042V450.6842L606.8109 553.2242L611.6909 375.0042C612.1809 357.4242 624.8809 346.1942 641.9709 346.1942C660.5209 346.1942 672.7309 357.9142 672.2409 375.0042L665.8909 612.3042ZM881.2209 1012.6942C895.8709 1027.3442 919.8009 1027.3442 934.4509 1012.6942C948.6109 997.5542 949.1009 974.1242 934.4509 959.4742L64.3309 88.8642C49.6809 74.2142 25.2709 74.2142 10.6209 88.8642C-3.5391 103.0242 -3.5391 127.9342 10.6209 142.0942ZM341.6709 193.8442V124.0242C341.6709 99.6142 358.2809 83.0042 385.1309 83.0042H559.9409C586.3009 83.0042 603.3909 99.6142 603.3909 124.0242V193.8442ZM240.6009 1075.1942H704.9609C749.8809 1075.1942 782.5909 1054.6842 795.2909 1020.9942L795.7809 1010.2542L658.5709 873.0442L657.5909 906.7342C657.5909 924.3142 644.9009 935.5442 627.3209 935.5442C608.7609 935.5442 596.5609 923.8242 597.0509 906.7342L599.4909 813.4742L504.2709 718.2642V906.7342C504.2709 923.8242 491.0909 935.5442 472.5309 935.5442C453.9809 935.5442 441.2809 923.8242 441.2809 906.7342V655.7642L338.7409 552.7342L348.5109 906.7342C349.0009 923.8242 336.7909 935.5442 318.2409 935.5442C300.1709 935.5442 287.9609 924.3142 287.4709 906.7342L276.2409 490.2342L112.6709 327.6342L141.4809 980.9542C143.9209 1041.5042 180.0509 1075.1942 240.6009 1075.1942Z"/>
</svg>