<?xml version="1.0" encoding="UTF-8" standalone="no"?>
<svg xmlns="http://www.w3.org/2000/svg"
     width="996.09375" height="996.09375"
     viewBox="0 0 996.09375 996.09375"
     fill="currentColor">
  <path d="M498.0477 996.0977C770.5077 996.0977 996.0977 770.5077 996.0977 498.0477C996.0977 226.0777 770.0177 -0.0023 497.5577 -0.0023C225.5877 -0.0023 -0.0023 226.0777 -0.0023 498.0477C-0.0023 770.5077 226.0777 996.0977 498.0477 996.0977ZM368.1677 794.9177C333.9877 794.9177 313.9677 775.8777 312.9877 741.6977L295.4077 343.7477H254.3977C242.6777 343.7477 232.9077 334.4677 232.9077 322.7577C232.9077 310.5477 242.6777 300.7777 254.3977 300.7777H375.4877V260.2577C375.4877 218.7477 402.8277 191.8977 446.7777 191.8977H548.3377C592.7777 191.8977 620.6077 218.7477 620.6077 260.2577V300.7777H741.2077C753.4177 300.7777 763.1877 310.5477 762.6977 322.7577C762.2077 334.4677 753.4177 343.7477 741.2077 343.7477H701.6577L684.5677 741.6977C683.1077 775.8777 662.1077 794.9177 628.4177 794.9177ZM426.7577 300.7777H568.3577V263.1877C568.3577 249.9977 559.0777 241.2077 545.4077 241.2077H449.7077C436.0377 241.2077 426.7577 249.9977 426.7577 263.1877ZM411.6177 716.7977C422.3677 716.7977 429.1977 709.4677 429.1977 699.7077L419.4377 405.7577C419.4377 395.0177 411.6177 388.1877 401.3677 388.1877C389.1577 388.1877 382.8077 395.0177 382.8077 405.7577L393.0677 699.7077C393.0677 709.4677 401.3677 716.7977 411.6177 716.7977ZM497.5577 716.7977C508.7877 716.7977 516.1177 709.4677 516.1177 699.7077V405.7577C516.1177 395.0177 508.7877 388.1877 497.5577 388.1877C485.8377 388.1877 479.0077 395.0177 479.0077 405.7577V699.7077C479.0077 709.4677 486.3277 716.7977 497.5577 716.7977ZM583.0077 716.7977C593.2577 716.7977 601.5577 709.4677 601.5577 699.7077L611.8177 405.7577C611.8177 395.0177 605.4677 388.1877 593.7477 388.1877C583.0077 388.1877 575.6877 395.0177 575.1977 405.7577L565.4277 699.7077C565.4277 709.4677 572.2677 716.7977 583.0077 716.7977Z"/>
</svg>