<?xml version="1.0" encoding="UTF-8" standalone="no"?>
<svg xmlns="http://www.w3.org/2000/svg"
     width="1151.3671875" height="1123.53515625"
     viewBox="0 0 1151.3671875 1123.53515625"
     fill="currentColor">
  <path d="M153.3183 669.4316H998.0483C1100.5883 669.4316 1151.3683 619.6316 1151.3683 524.9016V327.1516C1151.3683 282.7116 1148.4383 252.4416 1123.5383 229.0016L950.6883 65.4316C897.4583 15.6216 859.3783 0.0016 787.1083 0.0016H364.2583C292.4783 0.0016 253.9083 15.6216 201.1683 65.4316L27.8283 229.0016C2.9283 252.4416 -0.0017 282.7116 -0.0017 327.1516V524.9016C-0.0017 619.6316 51.2683 669.4316 153.3183 669.4316ZM575.6883 450.1916C506.8383 450.1916 462.3983 390.6216 462.3983 333.9816V332.0316C462.3983 311.5216 450.1983 292.4816 424.8083 292.4816H114.7483C86.9183 292.4816 77.6383 279.7816 100.0983 258.7916L261.2283 106.9316C291.0183 79.1016 310.5483 68.3616 356.9383 68.3616H794.4383C841.3083 68.3616 860.3483 79.1016 890.1383 106.9316L1051.2683 258.7916C1074.7083 280.7616 1063.9683 292.4816 1037.1083 292.4816H726.5583C701.1683 292.4816 689.4483 311.5216 689.4483 332.0316V333.9816C689.4483 390.6216 645.0183 450.1916 575.6883 450.1916ZM153.3183 1123.5316H998.0483C1100.0983 1123.5316 1151.3683 1072.7516 1151.3683 972.1716V792.4816C1151.3683 764.6516 1133.2983 738.2816 1104.0083 738.2816H726.5583C701.1683 738.2816 689.4483 757.3216 689.4483 777.3416V779.3016C689.4483 835.9416 645.0183 895.9916 575.6883 895.9916C506.8383 895.9916 462.3983 835.9416 462.3983 779.3016V777.3416C462.3983 757.3216 450.1983 738.2816 424.8083 738.2816H47.3683C18.0683 738.2816 -0.0017 764.6516 -0.0017 792.4816V972.1716C-0.0017 1072.7516 51.2683 1123.5316 153.3183 1123.5316Z"/>
</svg>