<?xml version="1.0" encoding="UTF-8" standalone="no"?>
<svg xmlns="http://www.w3.org/2000/svg"
     width="1151.3671875" height="833.49609375"
     viewBox="0 0 1151.3671875 833.49609375"
     fill="currentColor">
  <path d="M153.3183 833.4947H998.0483C1100.5883 833.4947 1151.3683 782.7147 1151.3683 682.1247V412.5947C1151.3683 368.6547 1144.5283 348.1447 1123.5383 319.8247L955.0783 91.7947C901.8583 19.0447 872.5583 0.0047 785.6483 0.0047H365.7183C278.8083 0.0047 249.9983 19.0447 196.7783 91.7947L27.8283 319.8247C7.3283 348.1447 -0.0017 368.6547 -0.0017 412.5947V682.1247C-0.0017 783.2047 51.2683 833.4947 153.3183 833.4947ZM575.6883 550.7847C502.4383 550.7847 455.5683 487.3047 455.5683 427.2447V425.7847C455.5683 403.8047 442.3783 383.3047 415.0383 383.3047H104.0083C87.8883 383.3047 84.4683 369.6247 92.2883 358.8847L272.9483 110.8447C295.4083 79.5947 324.2183 68.3547 359.8683 68.3547H791.5083C827.1483 68.3547 855.9583 79.5947 878.4183 110.8447L1059.0783 358.8847C1066.4083 369.6247 1063.4783 383.3047 1047.3683 383.3047H736.3283C708.9883 383.3047 696.2883 403.8047 696.2883 425.7847V427.2447C696.2883 487.3047 649.4183 550.7847 575.6883 550.7847ZM780.7583 140.1347H370.6083C357.4183 140.1347 347.1683 150.3947 347.1683 163.5747C347.1683 176.7547 357.4183 187.0147 370.6083 187.0147H780.7583C793.9483 187.0147 804.1983 176.7547 804.1983 163.5747C804.1983 150.3947 793.9483 140.1347 780.7583 140.1347ZM845.6983 250.4847H305.6683C291.9883 250.4847 281.2483 262.6947 281.2483 275.8747C281.2483 289.0647 291.9883 300.2947 305.6683 300.2947H845.6983C859.3783 300.2947 870.1183 289.0647 870.1183 275.8747C870.1183 262.6947 859.3783 250.4847 845.6983 250.4847Z"/>
</svg>