<?xml version="1.0" encoding="UTF-8" standalone="no"?>
<svg xmlns="http://www.w3.org/2000/svg"
     width="1151.3671875" height="1131.8359375"
     viewBox="0 0 1151.3671875 1131.8359375"
     fill="currentColor">
  <path d="M575.6883 719.7283C596.6783 719.7283 614.7483 702.1483 614.7483 681.6383V180.1783L611.3283 107.4183L644.5283 141.5983L718.2583 220.6983C725.0983 228.5183 735.3483 232.4183 745.1183 232.4183C765.1383 232.4183 780.2783 217.7783 780.2783 198.2383C780.2783 187.4983 776.3683 179.6883 769.0383 172.3583L604.0083 13.1883C594.2383 3.4183 585.9383 -0.0017 575.6883 -0.0017C565.9183 -0.0017 557.1283 3.4183 547.3683 13.1883L382.3283 172.3583C374.9983 179.6883 371.0983 187.4983 371.0983 198.2383C371.0983 217.7783 385.7383 232.4183 405.7583 232.4183C415.5283 232.4183 425.7783 228.5183 433.1083 220.6983L506.8383 141.5983L540.0383 106.9383L537.1083 180.1783V681.6383C537.1083 702.1483 554.6883 719.7283 575.6883 719.7283ZM153.3183 1131.8383H998.0483C1100.5883 1131.8383 1151.3683 1081.0583 1151.3683 980.4683V691.4083C1151.3683 646.9683 1145.9983 624.9983 1123.5383 598.6283L969.7283 408.1983C909.1783 334.4683 887.2083 317.3783 800.2883 317.3783H704.5883V386.2283H806.1483C841.7983 386.2283 864.2583 392.5783 892.5783 427.7383L1051.7583 626.9483C1071.7783 651.8583 1064.4483 661.6183 1037.5983 661.6183H726.5583C701.1683 661.6183 689.4483 681.1483 689.4483 701.1683V703.1283C689.4483 759.7683 645.0183 819.3383 575.6883 819.3383C506.8383 819.3383 462.3983 759.7683 462.3983 703.1283V701.1683C462.3983 681.1483 450.1983 661.6183 424.8083 661.6183H114.7483C86.4283 661.6183 81.0583 650.3883 100.0983 626.9483L257.8083 429.1983C287.1083 393.0683 309.5683 386.2283 345.2183 386.2283H447.2683V317.3783H351.0783C264.1583 317.3783 243.1683 333.9883 181.1483 409.6683L27.8283 598.6283C6.3483 624.5083 -0.0017 646.9683 -0.0017 691.4083V980.4683C-0.0017 1081.0583 51.2683 1131.8383 153.3183 1131.8383ZM154.2983 1053.2183C105.4683 1053.2183 78.6183 1026.8583 78.6183 976.0783V733.3983H388.1883C399.8983 824.7083 476.5583 892.0883 575.6883 892.0883C674.8083 892.0883 751.4683 824.2183 763.1883 733.3983H1072.7583V976.0783C1072.7583 1026.8583 1045.4083 1053.2183 997.0683 1053.2183Z"/>
</svg>