<?xml version="1.0" encoding="UTF-8" standalone="no"?>
<svg xmlns="http://www.w3.org/2000/svg"
     width="1151.3671875" height="833.49609375"
     viewBox="0 0 1151.3671875 833.49609375"
     fill="currentColor">
  <path d="M153.3183 833.4947H998.0483C1100.5883 833.4947 1151.3683 782.7147 1151.3683 682.1247V393.0647C1151.3683 349.1247 1145.5083 327.1447 1123.5383 300.2947L955.0783 91.7947C897.9483 21.4847 872.5583 0.0047 785.6483 0.0047H365.7183C278.8083 0.0047 253.9083 21.4847 196.7783 91.7947L27.8283 300.2947C6.3483 327.1447 -0.0017 349.1247 -0.0017 393.0647V682.1247C-0.0017 783.2047 51.2683 833.4947 153.3183 833.4947ZM575.6883 521.4847C506.8383 521.4847 462.3983 461.4247 462.3983 404.7847V403.3247C462.3983 382.8147 450.1983 363.7647 424.8083 363.7647H103.0283C86.9183 363.7647 83.4983 349.6047 91.7983 339.3547L272.9483 110.8447C296.8783 80.5647 324.2183 68.3547 359.8683 68.3547H791.5083C827.1483 68.3547 854.4883 80.5647 878.4183 110.8447L1060.0583 339.3547C1067.8683 349.6047 1064.9383 363.7647 1048.8283 363.7647H726.5583C701.1683 363.7647 689.4483 382.8147 689.4483 403.3247V404.7847C689.4483 461.4247 645.0183 521.4847 575.6883 521.4847ZM780.7583 140.1347H370.6083C357.4183 140.1347 347.1683 150.3947 347.1683 163.5747C347.1683 176.7547 357.4183 187.0147 370.6083 187.0147H780.7583C793.9483 187.0147 804.1983 176.7547 804.1983 163.5747C804.1983 150.3947 793.9483 140.1347 780.7583 140.1347ZM845.6983 250.4847H305.6683C291.9883 250.4847 281.2483 262.6947 281.2483 275.8747C281.2483 289.0647 291.9883 300.2947 305.6683 300.2947H845.6983C859.3783 300.2947 870.1183 289.0647 870.1183 275.8747C870.1183 262.6947 859.3783 250.4847 845.6983 250.4847ZM154.2983 754.8847C105.4683 754.8847 78.6183 729.0047 78.6183 678.2247V435.0547H388.1883C399.8983 526.3647 476.5583 593.7547 575.6883 593.7547C674.8083 593.7547 751.4683 525.8747 763.1883 435.0547H1072.7583V678.2247C1072.7583 729.0047 1045.4083 754.8847 997.0683 754.8847Z"/>
</svg>