<?xml version="1.0" encoding="UTF-8" standalone="no"?>
<svg xmlns="http://www.w3.org/2000/svg"
     width="996.09375" height="996.09375"
     viewBox="0 0 996.09375 996.09375"
     fill="currentColor">
  <path d="M498.0477 996.0959C770.5077 996.0959 996.0977 770.0159 996.0977 498.0459C996.0977 225.5859 770.0177 -0.0041 497.5577 -0.0041C225.5877 -0.0041 -0.0023 225.5859 -0.0023 498.0459C-0.0023 770.0159 226.0777 996.0959 498.0477 996.0959ZM208.4977 569.8259C208.4977 542.4759 220.2177 513.6759 244.6277 487.7959C225.0977 466.3059 216.7977 441.8959 216.7977 416.5059C216.7977 363.2859 257.8077 313.4759 309.0777 307.6159C311.5277 255.3759 369.1377 218.7459 423.8277 218.7459C452.1477 218.7459 478.0277 228.0259 497.5577 248.0459C517.0877 228.0259 543.4577 218.7459 571.2877 218.7459C626.4677 218.7459 684.0777 255.3759 686.0377 307.6159C737.3077 313.4759 778.3177 363.2859 778.3177 416.5059C778.3177 441.8959 770.0177 466.3059 750.4877 487.7959C774.8977 513.6759 787.1077 542.4759 787.1077 569.8259C787.1077 623.0459 749.9977 660.1559 698.2377 660.1559C682.1277 660.1559 663.5777 656.2459 644.5277 646.4859C630.3677 659.1759 596.1877 676.7559 557.1277 678.2259C564.9377 643.0659 589.3577 593.7459 604.0077 566.8959C594.2377 565.9159 585.9377 563.9659 578.1277 561.0359C550.7777 616.2059 528.8077 666.0159 528.8077 699.2159C528.8077 731.4459 532.7177 770.9959 532.7177 784.6659C532.7177 794.9259 518.5577 802.2459 497.5577 802.2459C476.5577 802.2459 462.3977 794.9259 462.3977 784.6659C462.3977 770.9959 466.3077 731.4459 466.3077 699.2159C466.3077 664.0659 442.3877 609.8659 416.0177 561.0359C409.1777 563.9659 400.3877 565.9159 391.1177 566.8959C405.7577 593.7459 430.6677 643.0659 437.9877 678.2259C398.9277 676.7559 364.7477 659.1759 350.5877 646.4859C331.5477 656.2459 313.4777 660.1559 296.8777 660.1559C245.1177 660.1559 208.4977 623.0459 208.4977 569.8259ZM479.0077 608.3959L478.5177 531.7359C469.2377 529.2959 460.9377 524.9059 453.1277 519.5359C450.6877 525.8759 447.7577 532.7159 443.8477 538.5759C459.4777 564.9459 470.2177 586.4259 479.0077 608.3959ZM516.1177 607.9059C524.8977 586.9159 535.6477 566.8959 550.7777 538.0859C547.3677 532.2259 544.4377 525.8759 541.9877 519.5359C533.6877 525.3859 525.3877 529.7859 515.1377 532.2259Z"/>
</svg>