<?xml version="1.0" encoding="UTF-8" standalone="no"?>
<svg xmlns="http://www.w3.org/2000/svg"
     width="1023.4375" height="927.734375"
     viewBox="0 0 1023.4375 927.734375"
     fill="currentColor">
  <path d="M133.3006 927.7377H890.1406C973.1406 927.7377 1023.4406 870.1177 1023.4406 795.4077C1023.4406 772.4577 1016.6006 748.5377 1004.3906 727.0477L625.4906 66.8977C600.1006 22.4577 556.6406 -0.0023 511.7206 -0.0023C466.8006 -0.0023 422.8506 22.4577 397.9506 66.8977L19.0406 727.0477C5.8606 749.0277 0.0006 772.4577 0.0006 795.4077C0.0006 870.1177 50.2906 927.7377 133.3006 927.7377ZM133.7906 851.0777C99.6106 851.0777 79.1006 824.7077 79.1006 794.9177C79.1006 785.6477 81.0506 773.9277 86.4306 763.6677L464.8406 104.0077C475.1006 85.9377 493.6506 78.1277 511.7206 78.1277C529.7806 78.1277 547.8506 85.9377 558.1006 104.0077L936.5206 764.1577C941.8906 774.4177 944.3406 785.6477 944.3406 794.9177C944.3406 824.7077 922.8506 851.0777 889.1606 851.0777Z"/>
</svg>