<?xml version="1.0" encoding="UTF-8" standalone="no"?>
<svg xmlns="http://www.w3.org/2000/svg"
     width="996.09375" height="996.09375"
     viewBox="0 0 996.09375 996.09375"
     fill="currentColor">
  <path d="M498.0477 996.0959C770.5077 996.0959 996.0977 770.0159 996.0977 498.0459C996.0977 225.5859 770.0177 -0.0041 497.5577 -0.0041C225.5877 -0.0041 -0.0023 225.5859 -0.0023 498.0459C-0.0023 770.0159 226.0777 996.0959 498.0477 996.0959ZM498.0477 913.0859C267.5777 913.0859 83.4977 728.5159 83.4977 498.0459C83.4977 267.5759 267.0877 83.0059 497.5577 83.0059C728.0277 83.0059 913.0877 267.5759 913.0877 498.0459C913.0877 728.5159 728.5177 913.0859 498.0477 913.0859ZM251.4677 593.2659C219.7277 648.4359 244.6277 702.1459 307.1277 702.1459H689.4577C751.4677 702.1459 776.8577 648.4359 744.6277 593.2659L559.5677 271.4859C529.2977 218.7459 467.7777 217.2859 436.0377 271.9759ZM315.4277 619.1359L489.7477 314.9459C493.6477 307.6159 501.9577 308.1059 505.8577 314.9459L681.1477 619.1359C685.5477 626.4659 683.5977 634.2759 673.3377 634.2759H322.7577C312.9877 634.2759 310.5477 626.4659 315.4277 619.1359Z"/>
</svg>