<?xml version="1.0" encoding="UTF-8" standalone="no"?>
<svg xmlns="http://www.w3.org/2000/svg"
     width="1020.99609375" height="925.29296875"
     viewBox="0 0 1020.99609375 925.29296875"
     fill="currentColor">
  <path d="M0.0006 790.5263C0.0006 865.7263 51.7606 925.2963 134.7706 925.2963H886.2306C969.2406 925.2963 1021.0006 865.7263 1021.0006 790.5263C1021.0006 768.0663 1015.1406 745.1163 1002.9306 724.1163L626.4606 68.3563C601.0706 23.9262 556.1506 -0.0037 510.7406 -0.0037C464.8406 -0.0037 419.9206 23.9262 394.5306 68.3563L18.0706 724.6063C5.8606 745.6063 0.0006 768.0663 0.0006 790.5263ZM230.4706 507.8163L461.4306 105.4662C472.1706 86.9162 491.7006 78.1263 510.7406 78.1263C529.7806 78.1263 548.3406 86.4262 559.0806 105.4662L789.0606 507.8163Z"/>
</svg>