<?xml version="1.0" encoding="UTF-8" standalone="no"?>
<svg xmlns="http://www.w3.org/2000/svg"
     width="1285.691746092121" height="1063.9699273996541"
     viewBox="0 0 1285.691746092121 1063.9699273996541"
     fill="currentColor">
  <path d="M394.4598 1063.9659H891.0398C981.3798 1063.9659 1025.3198 1020.5159 1026.7898 930.6659L1033.1298 451.1759L1152.7598 478.5159C1198.1698 488.7759 1227.4698 470.2159 1238.6998 423.3459L1282.1598 250.0059C1293.8798 203.6159 1276.2998 171.3959 1231.8598 152.8359L888.1098 6.3559C868.5798 -2.4341 850.5198 -1.9441 832.4498 6.8459C767.9998 37.6059 715.7498 53.2259 642.9998 53.2259C569.7498 53.2259 517.5098 37.6059 453.0598 6.8459C434.9898 -1.9441 416.9198 -2.4341 397.3898 6.3559L53.6398 152.8359C9.2098 171.3959 -7.8802 203.6159 3.3498 250.0059L46.8098 423.3459C58.0398 470.2159 87.3298 488.7759 132.7398 478.5159L252.8598 451.1759L258.7198 930.6659C260.1798 1020.5159 304.1298 1063.9659 394.4598 1063.9659ZM642.9998 205.5759C559.4998 205.5759 500.9098 162.6059 475.9998 91.8059C527.2698 111.3359 584.8898 122.0759 642.9998 122.0759C700.6098 122.0759 758.7198 111.3359 809.4998 91.8059C785.0898 161.6259 727.4698 205.5759 642.9998 205.5759Z"/>
</svg>