<?xml version="1.0" encoding="UTF-8" standalone="no"?>
<svg xmlns="http://www.w3.org/2000/svg"
     width="1290.8363348254152" height="1069.153895927169"
     viewBox="0 0 1290.8363348254152 1069.153895927169"
     fill="currentColor">
  <path d="M397.5171 1069.1584H893.6171C977.5971 1069.1584 1030.3371 1016.9084 1031.7971 933.4084L1038.1471 456.8484L1154.8471 483.7084C1201.7171 494.4484 1231.9971 474.9184 1244.1971 426.5784L1287.1671 253.2384C1299.3771 205.3884 1280.8171 172.1784 1235.8971 153.1384L896.0571 8.1184C870.6671 -3.1116 853.5771 -2.1316 832.5771 7.6284C769.0971 37.9084 717.3471 53.5284 645.5671 53.5284C573.2971 53.5284 522.0271 37.9084 458.0671 7.6284C437.5571 -2.1316 419.9771 -3.1116 394.5871 8.1184L55.2371 153.1384C9.8271 172.1784 -8.2429 205.3884 3.4771 253.2384L46.9371 426.5784C58.6571 474.9184 88.9271 494.4484 136.2871 483.7084L252.9871 456.8484L259.3371 933.4084C260.3171 1016.9084 313.0471 1069.1584 397.5171 1069.1584ZM398.4971 993.9584C358.9471 993.9584 335.0171 969.5484 334.5271 929.5084L327.6971 385.0684C327.6971 373.3484 318.4171 365.0484 305.2371 367.9784L134.3371 406.0684C125.0571 408.0184 118.7071 404.1184 116.7571 396.2984L78.1871 242.4984C75.2571 230.2884 78.6771 225.8884 88.4371 221.9884L408.7471 84.7784C433.6571 193.6684 533.2571 270.8184 645.5671 270.8184C757.3871 270.8184 856.9971 193.6684 882.3871 84.7784L1202.6971 221.9884C1211.9771 225.8884 1215.8771 230.2884 1212.9471 242.4984L1173.8871 396.2984C1171.9371 404.1184 1166.0771 408.0184 1156.7971 406.0684L985.8971 367.9784C972.2271 365.0484 963.4371 373.3484 963.4371 385.0684L956.5971 929.5084C956.1171 969.5484 932.1871 993.9584 892.6371 993.9584ZM645.5671 124.3284C701.7171 124.3284 750.5471 115.0484 798.3971 96.4984C771.0571 155.5784 711.4871 195.6184 645.5671 195.6184C579.1571 195.6184 520.0771 155.5784 492.7371 96.4984C540.5871 115.0484 589.4171 124.3284 645.5671 124.3284Z"/>
</svg>