<?xml version="1.0" encoding="UTF-8" standalone="no"?>
<svg xmlns="http://www.w3.org/2000/svg"
     width="996.09375" height="996.09375"
     viewBox="0 0 996.09375 996.09375"
     fill="currentColor">
  <path d="M498.0477 996.0959C770.5077 996.0959 996.0977 770.0159 996.0977 498.0459C996.0977 225.5859 770.0177 -0.0041 497.5577 -0.0041C225.5877 -0.0041 -0.0023 225.5859 -0.0023 498.0459C-0.0023 770.0159 226.0777 996.0959 498.0477 996.0959ZM498.0477 913.0859C267.5777 913.0859 83.4977 728.5159 83.4977 498.0459C83.4977 267.5759 267.0877 83.0059 497.5577 83.0059C728.0277 83.0059 913.0877 267.5759 913.0877 498.0459C913.0877 728.5159 728.5177 913.0859 498.0477 913.0859ZM497.5577 739.2559C516.1177 739.2559 529.2977 726.5659 529.2977 706.5459V597.1659L612.3077 560.0559C623.5377 554.6859 628.9077 547.3659 628.9077 536.6259C628.9077 522.9459 619.1377 513.1859 605.4677 513.1859C601.0777 513.1859 596.6777 514.6459 592.7777 516.1159L529.2977 545.4059V499.0259L612.3077 461.4259C623.5377 456.5459 628.9077 449.2159 628.9077 438.4759C628.9077 424.8059 619.6277 414.5459 605.4677 414.5459C601.5577 414.5459 597.1677 416.0159 593.2577 417.4759L529.2977 447.2659V333.0059H645.5077C663.5777 333.0059 676.2677 320.7959 676.2677 303.2259C676.2677 285.6459 663.5777 273.9259 645.5077 273.9259H349.1177C331.0577 273.9259 318.3577 285.6459 318.3577 303.2259C318.3577 320.7959 331.0577 333.0059 349.1177 333.0059H465.3277V473.6359L383.2977 510.2559C371.5777 516.1159 366.6977 522.9459 366.6977 533.2059C366.6977 546.8759 375.9777 557.1259 390.1377 557.1259C394.0477 557.1259 398.4377 555.6659 402.3477 554.1959L465.3277 524.9059V571.7759L383.2977 608.8859C371.5777 614.2559 366.6977 621.0959 366.6977 631.8359C366.6977 645.5059 375.9777 655.2759 390.1377 655.2759C394.0477 655.2759 398.4377 654.2959 402.3477 652.3459L465.3277 623.5359V706.5459C465.3277 726.5659 478.5177 739.2559 497.5577 739.2559Z"/>
</svg>