<?xml version="1.0" encoding="UTF-8" standalone="no"?>
<svg xmlns="http://www.w3.org/2000/svg"
     width="671.875" height="887.6953125"
     viewBox="0 0 671.875 887.6953125"
     fill="currentColor">
  <path d="M126.4683 645.508C89.8483 660.648 113.2783 719.728 152.3483 704.098L289.0583 646.968V841.308C289.0583 867.188 310.0583 887.698 335.9383 887.698C361.8183 887.698 382.3283 867.188 382.3283 841.308V608.398L545.4083 540.528C579.0983 526.858 562.4983 465.328 516.1183 484.378L382.3283 539.548V416.508L545.4083 348.628C579.0983 334.958 562.4983 272.948 516.1183 292.478L382.3283 347.658V83.988H627.4383C652.3483 83.988 671.8783 67.378 671.8783 41.988C671.8783 16.598 652.3483 -0.002 627.4383 -0.002H44.4383C19.0383 -0.002 -0.0017 16.598 -0.0017 41.988C-0.0017 67.378 19.0383 83.988 44.4383 83.988H289.0583V386.228L126.4683 453.618C89.8483 468.748 113.2783 527.348 152.3483 511.718L289.0583 455.078V578.128Z"/>
</svg>