<?xml version="1.0" encoding="UTF-8" standalone="no"?>
<svg xmlns="http://www.w3.org/2000/svg"
     width="996.09375" height="996.09375"
     viewBox="0 0 996.09375 996.09375"
     fill="currentColor">
  <path d="M498.0477 996.0959C770.5077 996.0959 996.0977 770.0159 996.0977 498.0459C996.0977 225.5859 770.0177 -0.0041 497.5577 -0.0041C225.5877 -0.0041 -0.0023 225.5859 -0.0023 498.0459C-0.0023 770.0159 226.0777 996.0959 498.0477 996.0959ZM498.0477 747.0659C478.5177 747.0659 464.8477 733.8859 464.8477 713.3759V627.9259L399.8977 657.7159C395.9977 659.6659 391.1177 660.6459 387.2077 660.6459C372.5577 660.6459 362.7977 650.3859 362.7977 636.2259C362.7977 625.4859 368.1677 618.1659 379.8877 612.7959L464.8477 574.2159V526.3659L399.8977 556.1559C395.9977 558.1059 391.1177 559.5659 387.2077 559.5659C372.5577 559.5659 362.7977 548.8259 362.7977 534.6659C362.7977 523.9259 368.1677 517.0859 379.8877 510.7459L464.8477 473.1459V328.1259H344.7277C326.1677 328.1259 312.9877 315.4259 312.9877 297.3659C312.9877 279.2959 326.1677 267.0859 344.7277 267.0859H650.8777C669.4377 267.0859 682.6177 279.2959 682.6177 297.3659C682.6177 315.4259 669.4377 328.1259 650.8777 328.1259H530.7577V445.7959L596.6777 415.0359C601.0777 413.5759 605.4677 412.1059 609.3777 412.1059C624.0277 412.1059 633.7877 422.8559 633.7877 437.0159C633.7877 447.7559 627.9277 455.5659 616.6977 460.4459L530.7577 499.5159V546.8759L596.1877 517.0859C600.5877 515.1359 604.9777 513.6759 609.3777 513.6759C623.5377 513.6759 633.7877 523.9259 633.7877 538.0859C633.7877 549.3159 627.9277 556.6359 616.6977 562.4959L530.7577 600.5859V713.3759C530.7577 733.8859 517.0877 747.0659 498.0477 747.0659Z"/>
</svg>