<?xml version="1.0" encoding="UTF-8" standalone="no"?>
<svg xmlns="http://www.w3.org/2000/svg"
     width="898.92578125" height="898.92578125"
     viewBox="0 0 898.92578125 898.92578125"
     fill="currentColor">
  <path d="M153.3183 898.9295H745.6083C848.1483 898.9295 898.9283 848.1495 898.9283 747.5595V151.3695C898.9283 50.7795 848.1483 -0.0005 745.6083 -0.0005H153.3183C51.2683 -0.0005 -0.0017 50.2895 -0.0017 151.3695V747.5595C-0.0017 848.6295 51.2683 898.9295 153.3183 898.9295ZM449.7083 697.7495C430.1783 697.7495 416.5083 684.5695 416.5083 664.0595V578.6095L352.0483 608.3995C347.6583 610.3495 342.7783 611.3295 338.8683 611.3295C324.2183 611.3295 314.4483 601.0695 314.4483 586.9095C314.4483 576.1695 319.8283 568.8495 331.5383 563.4795L416.5083 524.8995V477.0495L352.0483 506.8395C347.6583 508.7895 342.7783 510.2495 338.8683 510.2495C324.2183 510.2495 314.4483 499.5095 314.4483 485.3495C314.4483 474.6095 319.8283 467.7695 331.5383 461.4295L416.5083 423.8295V278.8095H296.3883C277.8283 278.8095 264.6483 266.1095 264.6483 248.0495C264.6483 229.9795 277.8283 217.7695 296.3883 217.7695H602.5383C621.0983 217.7695 634.2783 229.9795 634.2783 248.0495C634.2783 266.1095 621.0983 278.8095 602.5383 278.8095H482.4183V396.4795L548.3383 365.7195C553.2183 364.2595 557.1283 362.7895 561.0383 362.7895C575.6883 362.7895 585.4483 373.5395 585.4483 387.6995C585.4483 398.4395 579.5883 406.2495 568.3583 411.1295L482.4183 450.1995V497.5595L547.8483 467.7695C552.2483 465.8195 557.1283 464.3595 561.5283 464.3595C575.6883 464.3595 585.4483 474.6095 585.4483 488.7695C585.4483 499.9995 579.5883 507.3195 568.3583 513.1795L482.4183 551.2695V664.0595C482.4183 684.5695 468.7483 697.7495 449.7083 697.7495Z"/>
</svg>