<?xml version="1.0" encoding="UTF-8" standalone="no"?>
<svg xmlns="http://www.w3.org/2000/svg"
     width="635.7421875" height="881.8359375"
     viewBox="0 0 635.7421875 881.8359375"
     fill="currentColor">
  <path d="M30.2783 540.5253C36.1283 540.5253 42.4783 538.5753 48.3383 536.6253L145.5083 495.6053V823.7353C145.5083 859.8653 167.4783 881.8353 203.1283 881.8353H212.3983C477.5383 881.8353 635.7383 674.8053 635.7383 508.3053C635.7383 482.4253 622.0683 462.8953 593.7483 462.8953C565.4283 462.8953 552.7383 479.4953 548.8283 508.3053C532.2283 655.2753 416.5083 789.5553 238.7683 790.0353V456.5453L442.8683 370.6053C458.9883 364.2553 465.3283 354.4953 465.3283 339.3553C465.3283 321.2853 453.1283 308.5953 435.0583 308.5953C429.1983 308.5953 422.8483 310.0553 417.4783 312.4953L238.7683 387.6953V264.6453L442.8683 178.7153C458.9883 172.3653 465.3283 162.5953 465.3283 147.4653C465.3283 129.3953 453.1283 116.6953 435.0583 116.6953C429.1983 116.6953 422.8483 118.1653 417.4783 120.6053L238.7683 195.8053V48.3353C238.7683 19.5353 219.7283 -0.0047 191.8983 -0.0047C164.0583 -0.0047 145.5083 19.0453 145.5083 48.3353V234.8653L22.4583 286.6253C6.3483 292.9653 -0.0017 302.7353 -0.0017 317.8753C-0.0017 335.4453 12.2083 348.6353 30.2783 348.6353C36.1283 348.6353 42.4783 347.1653 48.3383 344.7253L145.5083 303.7153V426.7553L22.4583 478.5153C6.3483 484.8653 -0.0017 494.6253 -0.0017 509.7653C-0.0017 527.8353 12.2083 540.5253 30.2783 540.5253Z"/>
</svg>