<?xml version="1.0" encoding="UTF-8" standalone="no"?>
<svg xmlns="http://www.w3.org/2000/svg"
     width="1220.703125" height="975.5859375"
     viewBox="0 0 1220.703125 975.5859375"
     fill="currentColor">
  <path d="M125.4883 810.0622H1095.2183C1177.7383 810.0622 1220.6983 767.5822 1220.6983 684.5722V125.0022C1220.6983 42.4822 1177.7383 0.0022 1095.2183 0.0022H125.4883C42.9683 0.0022 -0.0017 42.4822 -0.0017 125.0022V684.5722C-0.0017 767.5822 42.9683 810.0622 125.4883 810.0622ZM126.9483 731.4422C94.7283 731.4422 78.6183 715.3322 78.6183 683.5922V126.4622C78.6183 94.2422 94.7283 78.6122 126.9483 78.6122H1093.7483C1125.9783 78.6122 1142.0883 94.2422 1142.0883 126.4622V683.5922C1142.0883 715.3322 1125.9783 731.4422 1093.7483 731.4422ZM364.7483 975.5822H855.9583C877.4383 975.5822 895.5083 958.0122 895.5083 936.0322C895.5083 914.0622 877.4383 896.4822 855.9583 896.4822H364.7483C343.2583 896.4822 325.1983 914.0622 325.1983 936.0322C325.1983 958.0122 343.2583 975.5822 364.7483 975.5822Z"/>
</svg>