<?xml version="1.0" encoding="UTF-8" standalone="no"?>
<svg xmlns="http://www.w3.org/2000/svg"
     width="1387.20703125" height="1020.99609375"
     viewBox="0 0 1387.20703125 1020.99609375"
     fill="currentColor">
  <path d="M125.4883 810.0622H578.1283V731.4422H126.9483C93.2583 731.4422 78.6183 717.7722 78.6183 683.5922V126.4622C78.6183 91.7922 93.2583 78.6122 126.9483 78.6122H1092.7783C1125.9783 78.6122 1140.6283 91.7922 1140.6283 126.4622V570.3122H1219.2383V125.0022C1219.2383 39.5522 1177.7383 0.0022 1094.2383 0.0022H125.4883C41.9883 0.0022 -0.0017 39.5522 -0.0017 125.0022V684.5722C-0.0017 770.5122 41.9883 810.0622 125.4883 810.0622ZM748.5383 1020.9922H1283.6883C1352.0483 1020.9922 1387.2083 986.3322 1387.2083 916.5022V741.7022C1387.2083 671.3822 1352.0483 636.7222 1283.6883 636.7222H748.5383C678.7083 636.7222 645.0183 671.3822 645.0183 738.7722V916.5022C645.0183 986.3322 678.7083 1020.9922 748.5383 1020.9922ZM1226.5583 854.4922C1195.3083 854.4922 1170.4083 829.1022 1170.4083 797.8522C1170.4083 767.0922 1195.3083 742.1922 1226.5583 742.1922C1257.3283 742.1922 1282.2283 767.0922 1282.2283 797.8522C1282.2283 829.1022 1257.3283 854.4922 1226.5583 854.4922ZM364.7483 975.5822H585.9383C580.0783 953.6122 578.6183 937.0122 578.6183 896.4822H364.7483C343.2583 896.4822 325.1983 914.0622 325.1983 936.0322C325.1983 958.0122 343.2583 975.5822 364.7483 975.5822Z"/>
</svg>