<?xml version="1.0" encoding="UTF-8" standalone="no"?>
<svg xmlns="http://www.w3.org/2000/svg"
     width="996.09375" height="996.09375"
     viewBox="0 0 996.09375 996.09375"
     fill="currentColor">
  <path d="M498.0477 996.0959C770.5077 996.0959 996.0977 770.0159 996.0977 498.0459C996.0977 225.5859 770.0177 -0.0041 497.5577 -0.0041C225.5877 -0.0041 -0.0023 225.5859 -0.0023 498.0459C-0.0023 770.0159 226.0777 996.0959 498.0477 996.0959ZM498.0477 913.0859C267.5777 913.0859 83.4977 728.5159 83.4977 498.0459C83.4977 267.5759 267.0877 83.0059 497.5577 83.0059C728.0277 83.0059 913.0877 267.5759 913.0877 498.0459C913.0877 728.5159 728.5177 913.0859 498.0477 913.0859ZM280.2777 668.4559H714.3577C758.7877 668.4559 784.1777 643.5559 784.1777 599.1259V350.5859C784.1777 305.6659 759.2777 280.7659 714.3577 280.7659H280.2777C235.8377 280.7659 210.4477 305.6659 210.4477 350.5859V599.1259C210.4477 643.5559 236.3277 668.4559 280.2777 668.4559ZM285.6477 606.9359C275.3877 606.9359 272.4577 604.0059 272.4577 593.7459V355.9559C272.4577 345.2159 275.3877 342.2859 285.6477 342.2859H708.9877C719.2377 342.2859 722.6577 345.7059 722.6577 355.9559V593.7459C722.6577 603.5159 719.2377 606.9359 708.9877 606.9359ZM371.0977 767.5759H624.9977C641.5977 767.5759 655.2777 753.4159 655.2777 736.3259C655.2777 720.2159 641.1177 706.0559 624.9977 706.0559H371.0977C354.4877 706.0559 339.8477 720.2159 339.8477 736.3259C339.8477 753.4159 354.0077 767.5759 371.0977 767.5759Z"/>
</svg>