<?xml version="1.0" encoding="UTF-8" standalone="no"?>
<svg xmlns="http://www.w3.org/2000/svg"
     width="996.09375" height="996.09375"
     viewBox="0 0 996.09375 996.09375"
     fill="currentColor">
  <path d="M498.0477 996.0959C770.5077 996.0959 996.0977 770.0159 996.0977 498.0459C996.0977 225.5859 770.0177 -0.0041 497.5577 -0.0041C225.5877 -0.0041 -0.0023 225.5859 -0.0023 498.0459C-0.0023 770.0159 226.0777 996.0959 498.0477 996.0959ZM273.9277 672.8559C228.5177 672.8559 202.1477 647.4559 202.1477 601.5659V345.2159C202.1477 298.8259 228.0277 272.9459 273.9277 272.9459H721.6777C768.0677 272.9459 793.4577 298.8259 793.4577 345.2159V601.5659C793.4577 647.4559 767.5777 672.8559 721.6777 672.8559ZM279.7877 609.3759H715.8177C726.5577 609.3759 729.9777 605.9559 729.9777 595.7059V350.5859C729.9777 340.3359 726.5577 336.9159 715.8177 336.9159H279.7877C269.0477 336.9159 266.1177 339.8459 266.1177 350.5859V595.7059C266.1177 606.4459 269.0477 609.3759 279.7877 609.3759ZM367.6777 775.3859C350.0977 775.3859 335.4477 760.7459 335.4477 742.6759C335.4477 726.0759 350.5877 711.4259 367.6777 711.4259H629.3977C645.9977 711.4259 660.6477 726.0759 660.6477 742.6759C660.6477 760.7459 646.4877 775.3859 629.3977 775.3859Z"/>
</svg>