<?xml version="1.0" encoding="UTF-8" standalone="no"?>
<svg xmlns="http://www.w3.org/2000/svg"
     width="996.09375" height="996.09375"
     viewBox="0 0 996.09375 996.09375"
     fill="currentColor">
  <path d="M498.0477 996.0959C770.5077 996.0959 996.0977 770.0159 996.0977 498.0459C996.0977 225.5859 770.0177 -0.0041 497.5577 -0.0041C225.5877 -0.0041 -0.0023 225.5859 -0.0023 498.0459C-0.0023 770.0159 226.0777 996.0959 498.0477 996.0959ZM498.0477 913.0859C267.5777 913.0859 83.4977 728.5159 83.4977 498.0459C83.4977 267.5759 267.0877 83.0059 497.5577 83.0059C728.0277 83.0059 913.0877 267.5759 913.0877 498.0459C913.0877 728.5159 728.5177 913.0859 498.0477 913.0859ZM497.5577 727.0459C611.8177 727.0459 688.4777 661.1359 688.4777 558.5959V309.0859C688.4777 281.7359 674.3177 265.1359 648.9277 265.1359C624.9977 265.1359 610.3477 281.7359 610.3477 309.0859V551.2659C610.3477 619.6259 565.9177 662.5959 497.5577 662.5959C429.1977 662.5959 384.2777 619.6259 384.2777 551.2659V309.0859C384.2777 281.7359 370.1177 265.1359 344.7277 265.1359C320.7977 265.1359 306.6377 281.7359 306.6377 309.0859V558.5959C306.6377 661.1359 383.2977 727.0459 497.5577 727.0459Z"/>
</svg>