<?xml version="1.0" encoding="UTF-8" standalone="no"?>
<svg xmlns="http://www.w3.org/2000/svg"
     width="898.92578125" height="898.92578125"
     viewBox="0 0 898.92578125 898.92578125"
     fill="currentColor">
  <path d="M153.3183 898.9295H745.6083C848.1483 898.9295 898.9283 848.1495 898.9283 747.5595V151.3695C898.9283 50.7795 848.1483 -0.0005 745.6083 -0.0005H153.3183C51.2683 -0.0005 -0.0017 50.2895 -0.0017 151.3695V747.5595C-0.0017 848.6295 51.2683 898.9295 153.3183 898.9295ZM154.2983 820.3095C105.4683 820.3095 78.6183 794.4295 78.6183 743.6495V155.2695C78.6183 104.4895 105.4683 78.6095 154.2983 78.6095H744.6283C792.9683 78.6095 820.3083 104.4895 820.3083 155.2695V743.6495C820.3083 794.4295 792.9683 820.3095 744.6283 820.3095ZM449.7083 677.7295C563.9683 677.7295 640.6283 611.8195 640.6283 509.2795V259.7695C640.6283 232.4195 626.4683 215.8195 601.0783 215.8195C577.1483 215.8195 562.4983 232.4195 562.4983 259.7695V501.9495C562.4983 570.3095 518.0683 613.2795 449.7083 613.2795C381.3483 613.2795 336.4283 570.3095 336.4283 501.9495V259.7695C336.4283 232.4195 322.2683 215.8195 297.3683 215.8195C272.9483 215.8195 258.7883 232.4195 258.7883 259.7695V509.2795C258.7883 611.8195 335.4483 677.7295 449.7083 677.7295Z"/>
</svg>