<?xml version="1.0" encoding="UTF-8" standalone="no"?>
<svg xmlns="http://www.w3.org/2000/svg"
     width="898.92578125" height="898.92578125"
     viewBox="0 0 898.92578125 898.92578125"
     fill="currentColor">
  <path d="M153.3183 898.9295H745.6083C848.1483 898.9295 898.9283 848.1495 898.9283 747.5595V151.3695C898.9283 50.7795 848.1483 -0.0005 745.6083 -0.0005H153.3183C51.2683 -0.0005 -0.0017 50.2895 -0.0017 151.3695V747.5595C-0.0017 848.6295 51.2683 898.9295 153.3183 898.9295ZM449.7083 685.0595C331.5383 685.0595 252.4383 617.1895 252.4383 511.2295V253.9095C252.4383 225.5895 267.0883 208.4995 292.4783 208.4995C318.3583 208.4995 333.0083 225.5895 333.0083 253.9095V503.4195C333.0083 574.2195 379.3983 618.1595 449.7083 618.1595C520.0183 618.1595 565.9183 574.2195 565.9183 503.4195V253.9095C565.9183 225.5895 581.0583 208.4995 605.9583 208.4995C632.3283 208.4995 646.9683 225.5895 646.9683 253.9095V511.2295C646.9683 617.1895 567.8683 685.0595 449.7083 685.0595Z"/>
</svg>