<?xml version="1.0" encoding="UTF-8" standalone="no"?>
<svg xmlns="http://www.w3.org/2000/svg"
     width="996.09375" height="996.09375"
     viewBox="0 0 996.09375 996.09375"
     fill="currentColor">
  <path d="M498.0477 996.0959C770.5077 996.0959 996.0977 770.0159 996.0977 498.0459C996.0977 225.5859 770.0177 -0.0041 497.5577 -0.0041C225.5877 -0.0041 -0.0023 225.5859 -0.0023 498.0459C-0.0023 770.0159 226.0777 996.0959 498.0477 996.0959ZM498.0477 913.0859C267.5777 913.0859 83.4977 728.5159 83.4977 498.0459C83.4977 267.5759 267.0877 83.0059 497.5577 83.0059C728.0277 83.0059 913.0877 267.5759 913.0877 498.0459C913.0877 728.5159 728.5177 913.0859 498.0477 913.0859ZM498.0477 726.5659C525.8777 726.5659 543.4577 711.9159 555.6677 680.1759L691.8977 323.2459C694.8277 315.4259 695.7977 310.0559 695.7977 302.7359C695.7977 280.7659 679.1977 265.6259 656.2477 265.6259C634.7677 265.6259 623.0477 275.8759 614.7477 298.8259L499.0277 633.2959H495.6077L379.8877 298.8259C372.0677 275.8759 359.8677 265.6259 338.3777 265.6259C315.4277 265.6259 298.8277 281.2459 298.8277 302.7359C298.8277 310.0559 300.2977 315.4259 302.7377 323.2459L439.9377 680.6659C452.6377 713.8659 468.2577 726.5659 498.0477 726.5659Z"/>
</svg>