<?xml version="1.0" encoding="UTF-8" standalone="no"?>
<svg xmlns="http://www.w3.org/2000/svg"
     width="1076.171875" height="1013.18359375"
     viewBox="0 0 1076.171875 1013.18359375"
     fill="currentColor">
  <path d="M290.0383 1013.1819C309.0783 1013.1819 323.2383 1003.4219 346.1883 981.9319L522.4583 820.8019H852.5383C998.0483 820.8019 1076.1683 740.7219 1076.1683 597.6519V223.6319C1076.1683 80.5619 998.0483 0.0019 852.5383 0.0019H223.6283C78.1283 0.0019 -0.0017 80.0819 -0.0017 223.6319V597.6519C-0.0017 741.2119 78.1283 820.8019 223.6283 820.8019H246.5783V962.8919C246.5783 993.1619 262.2083 1013.1819 290.0383 1013.1819ZM328.1283 613.2819C278.3183 613.2819 248.0483 583.9819 248.0483 534.1819V286.6219C248.0483 236.3319 280.2783 207.5219 328.1283 207.5219H596.6783C647.4583 207.5219 674.3183 236.3319 674.3183 286.6219V534.1819C674.3183 583.9819 644.5283 613.2819 594.2383 613.2819ZM702.6383 479.0019V341.7919L800.7783 257.3219C809.5683 250.9719 819.8283 246.0919 828.6183 246.0919C848.1483 246.0919 860.8383 259.7619 860.8383 280.2719V540.0419C860.8383 561.0319 848.1483 575.1919 828.6183 575.1919C819.8283 575.1919 810.0583 570.3119 800.7783 562.9919Z"/>
</svg>