<?xml version="1.0" encoding="UTF-8" standalone="no"?>
<svg xmlns="http://www.w3.org/2000/svg"
     width="1281.1279296875" height="1039.2463558001918"
     viewBox="0 0 1281.1279296875 1039.2463558001918"
     fill="currentColor">
  <path d="M975.4609 1028.2552C990.1109 1042.9052 1014.5309 1042.9052 1028.6909 1028.2552C1042.8509 1013.1252 1043.3309 989.6852 1028.6909 975.0352L64.3309 11.1652C49.6809 -3.4748 25.2709 -3.9648 10.6209 11.1652C-3.5391 25.3352 -3.5391 50.2352 10.6209 64.3952ZM773.8009 116.6352H252.8109L326.0509 189.8852H760.1309C839.7209 189.8852 885.6209 231.3852 885.6209 316.3452V715.7552C885.6209 727.4752 884.1509 735.7752 881.2209 745.0552L949.5809 813.4152C958.8609 791.4452 964.2309 764.0952 964.2309 737.2452V664.0052L1148.8009 820.2552C1168.3309 836.3652 1189.8209 847.5952 1209.8409 847.5952C1252.8109 847.5952 1281.1309 815.8552 1281.1309 770.4452V265.5652C1281.1309 220.1552 1252.8109 188.4152 1209.8409 188.4152C1189.8209 188.4152 1168.3309 199.6452 1148.8009 215.7552L964.2309 372.0052V304.6252C964.2309 185.9752 892.9409 116.6352 773.8009 116.6352ZM263.5509 919.3752H782.5909L709.3509 845.6452H277.2209C197.1409 845.6452 151.7309 804.1352 151.7309 719.6652V291.9352L73.1209 212.8352V730.8952C73.1209 850.0352 144.4109 919.3752 263.5509 919.3752ZM1185.4209 753.8452L964.2309 571.2252V464.7852L1185.4209 282.1652C1189.8209 278.7452 1192.7509 276.3052 1197.1409 276.3052C1203.0009 276.3052 1205.4409 281.1852 1205.4409 288.0252V747.9852C1205.4409 754.8252 1203.0009 759.2152 1197.1409 759.2152C1192.7509 759.2152 1189.8209 756.7752 1185.4209 753.8452Z"/>
</svg>