<?xml version="1.0" encoding="UTF-8" standalone="no"?>
<svg xmlns="http://www.w3.org/2000/svg"
     width="996.09375" height="996.09375"
     viewBox="0 0 996.09375 996.09375"
     fill="currentColor">
  <path d="M498.0477 996.0959C770.5077 996.0959 996.0977 770.0159 996.0977 498.0459C996.0977 225.5859 770.0177 -0.0041 497.5577 -0.0041C225.5877 -0.0041 -0.0023 225.5859 -0.0023 498.0459C-0.0023 770.0159 226.0777 996.0959 498.0477 996.0959ZM498.0477 913.0859C267.5777 913.0859 83.4977 728.5159 83.4977 498.0459C83.4977 267.5759 267.0877 83.0059 497.5577 83.0059C728.0277 83.0059 913.0877 267.5759 913.0877 498.0459C913.0877 728.5159 728.5177 913.0859 498.0477 913.0859ZM292.9677 695.3159H551.2677C600.0977 695.3159 628.9077 666.9959 628.9077 618.6559V378.4159C628.9077 330.0759 602.5377 302.2459 553.7077 302.2459H292.9677C246.5777 302.2459 215.3277 330.0759 215.3277 378.4159V618.6559C215.3277 666.9959 244.6277 695.3159 292.9677 695.3159ZM656.2477 565.4259L751.4677 645.9959C760.2577 653.3159 769.5277 658.2059 778.3177 658.2059C797.3677 658.2059 809.5677 644.5359 809.5677 624.0259V372.5559C809.5677 352.5359 797.3677 338.8659 778.3177 338.8659C769.5277 338.8659 759.7677 343.7459 751.4677 350.5859L656.2477 431.6359Z"/>
</svg>