<?xml version="1.0" encoding="UTF-8" standalone="no"?>
<svg xmlns="http://www.w3.org/2000/svg"
     width="996.09375" height="996.09375"
     viewBox="0 0 996.09375 996.09375"
     fill="currentColor">
  <path d="M498.0477 996.0977C770.5077 996.0977 996.0977 770.5077 996.0977 498.0477C996.0977 226.0777 770.0177 -0.0023 497.5577 -0.0023C225.5877 -0.0023 -0.0023 226.0777 -0.0023 498.0477C-0.0023 770.5077 226.0777 996.0977 498.0477 996.0977ZM288.0877 701.1677C237.7977 701.1677 208.0077 671.8777 208.0077 622.5577V374.5077C208.0077 324.2177 239.7477 295.4077 288.0877 295.4077H556.6377C607.4177 295.4077 633.7877 324.2177 633.7877 374.5077V622.5577C633.7877 671.8777 604.4877 701.1677 554.1977 701.1677ZM662.1077 566.8977V429.6877L760.7377 345.7077C769.0477 338.8677 779.7877 333.9877 788.5777 333.9877C807.6177 333.9877 820.3077 347.6577 820.3077 368.6477V627.9277C820.3077 649.4177 807.6177 663.0877 788.5777 663.0877C779.7877 663.0877 769.5277 658.2077 760.7377 650.8777Z"/>
</svg>