<?xml version="1.0" encoding="UTF-8" standalone="no"?>
<svg xmlns="http://www.w3.org/2000/svg"
     width="1456.54296875" height="668.45703125"
     viewBox="0 0 1456.54296875 668.45703125"
     fill="currentColor">
  <path d="M727.5383 604.9808C765.6283 604.9808 801.2683 598.1408 834.4683 586.4208H1094.7283V628.4208C1094.7283 652.3408 1110.3483 668.4608 1134.7683 668.4608H1307.6183C1332.0283 668.4608 1348.1483 652.3408 1348.1483 628.4208V582.5208C1419.4383 569.8208 1456.5383 520.5108 1456.5383 437.5008V166.9908C1456.5383 68.3608 1405.2783 18.0708 1305.1783 18.0708H832.5183C800.2883 6.3508 764.6483 0.0008 727.5383 0.0008C690.4283 0.0008 655.2783 6.3508 623.0483 18.0708H150.8783C51.7583 18.0708 -0.0017 68.3608 -0.0017 166.9908V437.5008C-0.0017 520.5108 37.1083 569.3408 108.3983 582.5208V628.4208C108.3983 652.3408 124.5083 668.4608 148.4383 668.4608H321.7783C346.1883 668.4608 361.8183 652.3408 361.8183 628.4208V586.4208H621.0983C654.2983 598.1408 689.9383 604.9808 727.5383 604.9808ZM727.5383 531.2508C599.1183 531.2508 499.5083 431.6408 499.5083 302.7308C499.5083 173.3408 599.1183 73.7308 727.5383 73.7308C856.9383 73.7308 956.5383 173.3408 956.5383 302.7308C956.5383 431.6408 856.9383 531.2508 727.5383 531.2508ZM1030.2783 302.7308C1030.2783 222.1708 1000.9783 150.3908 951.6583 96.6808H1305.1783C1349.6083 96.6808 1377.9283 124.0208 1377.9283 166.9908V437.5008C1377.9283 480.9608 1349.6083 507.8108 1305.1783 507.8108H952.1483C1000.9783 454.5908 1030.2783 382.8108 1030.2783 302.7308ZM150.8783 507.8108C106.4483 507.8108 78.6183 480.9608 78.6183 437.5008V166.9908C78.6183 124.0208 106.4483 96.6808 150.8783 96.6808H503.9083C455.0783 150.3908 425.7783 222.1708 425.7783 302.7308C425.7783 382.8108 455.0783 454.5908 503.4183 507.8108ZM727.5383 479.0008C826.6583 479.0008 904.2983 401.3708 904.2983 302.7308C904.2983 204.1008 826.6583 125.9808 727.5383 125.9808C628.9083 125.9808 551.2683 204.1008 551.2683 302.7308C551.2683 401.3708 628.9083 479.0008 727.5383 479.0008ZM1097.6583 203.6108C1097.6583 223.6308 1111.8183 237.7908 1131.8383 237.7908H1254.3983C1274.4183 237.7908 1289.0583 223.6308 1289.0583 203.6108C1289.0583 183.5908 1274.4183 168.9408 1254.3983 168.9408H1131.8383C1111.8183 168.9408 1097.6583 183.5908 1097.6583 203.6108ZM727.5383 415.0408C664.5483 415.0408 615.2383 365.7208 615.2383 302.7308C615.2383 239.7508 664.5483 189.9408 727.5383 189.9408C790.5283 189.9408 840.3283 239.7508 840.3283 302.7308C840.3283 365.7208 790.5283 415.0408 727.5383 415.0408ZM1097.6583 322.2608C1097.6583 342.2808 1111.8183 356.9308 1131.8383 356.9308H1254.3983C1274.4183 356.9308 1289.0583 342.2808 1289.0583 322.2608C1289.0583 302.2508 1274.4183 288.0908 1254.3983 288.0908H1131.8383C1111.8183 288.0908 1097.6583 302.2508 1097.6583 322.2608Z"/>
</svg>