<?xml version="1.0" encoding="UTF-8" standalone="no"?>
<svg xmlns="http://www.w3.org/2000/svg"
     width="956.0546875" height="955.56640625"
     viewBox="0 0 956.0546875 955.56640625"
     fill="currentColor">
  <path d="M39.0583 310.5498C64.9383 310.5498 78.6183 295.8998 78.6183 270.5098V155.2698C78.6183 104.4898 105.4683 78.6098 154.2983 78.6098H272.4583C298.3383 78.6098 312.4983 64.4498 312.4983 39.0598C312.4983 13.6698 298.3383 -0.0002 272.4583 -0.0002H153.3183C51.2683 -0.0002 -0.0017 50.2898 -0.0017 150.8798V270.5098C-0.0017 295.8998 14.1583 310.5498 39.0583 310.5498ZM916.5083 310.5498C942.3783 310.5498 956.0583 295.8998 956.0583 270.5098V150.8798C956.0583 50.2898 904.7883 -0.0002 802.7383 -0.0002H683.1083C657.7183 -0.0002 643.5583 13.6698 643.5583 39.0598C643.5583 64.4498 657.7183 78.6098 683.1083 78.6098H801.2683C849.6083 78.6098 877.4383 104.4898 877.4383 155.2698V270.5098C877.4383 295.8998 891.5983 310.5498 916.5083 310.5498ZM153.3183 955.5698H272.4583C298.3383 955.5698 312.4983 941.4098 312.4983 916.4998C312.4983 891.1098 298.3383 876.9498 272.4583 876.9498H154.2983C105.4683 876.9498 78.6183 851.0698 78.6183 800.2898V685.0598C78.6183 659.1798 64.4483 645.0198 39.0583 645.0198C13.6683 645.0198 -0.0017 659.1798 -0.0017 685.0598V804.1998C-0.0017 905.2698 51.2683 955.5698 153.3183 955.5698ZM683.1083 955.5698H802.7383C904.7883 955.5698 956.0583 904.7898 956.0583 804.1998V685.0598C956.0583 659.1798 941.8983 645.0198 916.5083 645.0198C891.1183 645.0198 877.4383 659.1798 877.4383 685.0598V800.2898C877.4383 851.0698 849.6083 876.9498 801.2683 876.9498H683.1083C657.7183 876.9498 643.5583 891.1098 643.5583 916.4998C643.5583 941.4098 657.7183 955.5698 683.1083 955.5698Z"/>
</svg>