<?xml version="1.0" encoding="UTF-8" standalone="no"?>
<svg xmlns="http://www.w3.org/2000/svg"
     width="996.09375" height="996.09375"
     viewBox="0 0 996.09375 996.09375"
     fill="currentColor">
  <path d="M498.0477 996.0959C770.5077 996.0959 996.0977 770.0159 996.0977 498.0459C996.0977 225.5859 770.0177 -0.0041 497.5577 -0.0041C225.5877 -0.0041 -0.0023 225.5859 -0.0023 498.0459C-0.0023 770.0159 226.0777 996.0959 498.0477 996.0959ZM339.8477 247.5559H406.2477C428.2277 247.5559 442.8677 262.2059 442.8677 284.6659C442.8677 305.6659 428.2277 320.7959 406.2477 320.7959H350.0977C327.1477 320.7959 316.8977 331.5459 316.8977 354.4959V409.1759C316.8977 431.6359 302.7377 446.2859 280.2777 446.2859C258.2977 446.2859 243.6477 431.1559 243.6477 409.1759V342.2859C243.6477 280.2759 276.3677 247.5559 339.8477 247.5559ZM648.9277 247.5559C712.3977 247.5559 745.1177 280.2759 745.1177 342.2859V409.1759C745.1177 431.1559 730.4677 446.2859 708.4977 446.2859C686.0377 446.2859 671.8777 431.6359 671.8777 409.1759V354.4959C671.8777 331.5459 661.6177 320.7959 638.6677 320.7959H582.5177C560.5477 320.7959 545.8977 305.6659 545.8977 284.6659C545.8977 262.2059 560.5477 247.5559 582.5177 247.5559ZM339.8477 749.0259C276.3677 749.0259 243.6477 716.7959 243.6477 654.7859V587.8859C243.6477 565.4259 258.2977 550.7859 280.2777 550.7859C302.7377 550.7859 316.8977 564.9459 316.8977 587.8859V642.0859C316.8977 665.5259 327.1477 675.7859 350.0977 675.7859H406.2477C428.2277 675.7859 442.8677 691.4059 442.8677 712.4059C442.8677 734.3759 428.2277 749.0259 406.2477 749.0259ZM648.9277 749.0259H582.5177C560.5477 749.0259 545.8977 734.3759 545.8977 712.4059C545.8977 691.4059 560.5477 675.7859 582.5177 675.7859H638.6677C661.6177 675.7859 671.8777 665.5259 671.8777 642.0859V587.8859C671.8777 564.9459 686.0377 550.7859 708.4977 550.7859C730.4677 550.7859 745.1177 565.4259 745.1177 587.8859V654.7859C745.1177 716.7959 712.3977 749.0259 648.9277 749.0259Z"/>
</svg>