<?xml version="1.0" encoding="UTF-8" standalone="no"?>
<svg xmlns="http://www.w3.org/2000/svg"
     width="996.09375" height="996.09375"
     viewBox="0 0 996.09375 996.09375"
     fill="currentColor">
  <path d="M498.0477 996.0959C770.5077 996.0959 996.0977 770.0159 996.0977 498.0459C996.0977 225.5859 770.0177 -0.0041 497.5577 -0.0041C225.5877 -0.0041 -0.0023 225.5859 -0.0023 498.0459C-0.0023 770.0159 226.0777 996.0959 498.0477 996.0959ZM498.0477 913.0859C267.5777 913.0859 83.4977 728.5159 83.4977 498.0459C83.4977 267.5759 267.0877 83.0059 497.5577 83.0059C728.0277 83.0059 913.0877 267.5759 913.0877 498.0459C913.0877 728.5159 728.5177 913.0859 498.0477 913.0859ZM343.7477 255.3759C282.7177 255.3759 250.9777 287.1059 250.9777 347.1659V412.1059C250.9777 433.1059 265.1377 447.7559 286.1377 447.7559C307.6177 447.7559 321.2877 433.5959 321.2877 412.1059V358.8859C321.2877 336.4259 331.5477 325.6859 354.0077 325.6859H408.2077C429.6877 325.6859 443.8477 311.5259 443.8477 291.0159C443.8477 269.5359 429.6877 255.3759 408.2077 255.3759ZM644.0477 255.3759H579.5877C558.1077 255.3759 543.9477 269.5359 543.9477 291.0159C543.9477 311.5259 558.1077 325.6859 579.5877 325.6859H633.7877C656.2477 325.6859 666.5077 336.4259 666.5077 358.8859V412.1059C666.5077 433.5959 680.1777 447.7559 701.6577 447.7559C722.6577 447.7559 736.8177 433.1059 736.8177 412.1059V347.1659C736.8177 287.1059 705.0777 255.3759 644.0477 255.3759ZM343.7477 741.6959H408.2077C429.6877 741.6959 443.8477 727.0459 443.8477 706.0559C443.8477 685.5459 429.6877 670.8959 408.2077 670.8959H354.0077C331.5477 670.8959 321.2877 660.6459 321.2877 637.6959V584.9559C321.2877 562.9859 307.6177 549.3159 286.1377 549.3159C265.1377 549.3159 250.9777 563.4759 250.9777 584.9559V649.9059C250.9777 709.9559 282.7177 741.6959 343.7477 741.6959ZM644.0477 741.6959C705.0777 741.6959 736.8177 709.9559 736.8177 649.9059V584.9559C736.8177 563.4759 722.6577 549.3159 701.6577 549.3159C680.1777 549.3159 666.5077 562.9859 666.5077 584.9559V637.6959C666.5077 660.6459 656.2477 670.8959 633.7877 670.8959H579.5877C558.1077 670.8959 543.9477 685.5459 543.9477 706.0559C543.9477 727.0459 558.1077 741.6959 579.5877 741.6959Z"/>
</svg>