<?xml version="1.0" encoding="UTF-8" standalone="no"?>
<svg xmlns="http://www.w3.org/2000/svg"
     width="994.62890625" height="996.1576003024223"
     viewBox="0 0 994.62890625 996.1576003024223"
     fill="currentColor">
  <path d="M662.1077 253.9059C705.5677 174.8059 720.2177 101.5659 693.8477 41.5059C632.8077 15.1359 565.9177 -0.0041 496.0977 -0.0041C354.0077 -0.0041 224.1177 62.0159 133.7877 160.1559C309.0777 91.3059 543.4577 160.6459 662.1077 253.9059ZM570.7977 771.9759C857.9077 547.3659 928.2277 302.2459 914.0577 228.5159C874.9977 169.4359 824.2177 118.6559 764.6477 80.0759C782.7177 222.6559 663.5777 396.4859 505.3677 539.0659C508.2977 617.1859 533.2077 701.1759 570.7977 771.9759ZM463.8677 491.2059C530.2777 430.6659 585.9377 369.6259 627.4377 309.5659C493.1677 203.1259 213.8677 132.8159 54.1977 271.9759C23.4377 329.1059 4.3977 393.5559 -0.0023 462.4059C116.6977 383.7859 309.5677 426.7559 463.8677 491.2059ZM743.6477 929.1959C892.5777 842.7759 994.6277 680.6659 994.6277 498.0459C994.6277 438.9659 983.3977 381.8359 963.8677 329.1059C931.6377 460.9359 831.0577 653.3159 604.0077 826.6559C645.0177 885.2559 694.3377 925.2959 743.6477 929.1959ZM160.6477 481.4459C92.7777 479.4959 35.1577 496.0959 -0.0023 539.0659C17.0877 742.1859 160.6477 913.5759 350.5877 972.1659C259.7677 866.6959 164.5477 681.6359 160.6477 481.4459ZM442.3877 551.7559C370.6077 520.9959 294.4377 497.0659 224.6077 488.2859C233.8877 748.0459 401.3677 967.2859 481.9377 996.0959C547.3677 997.0659 607.4177 986.8159 660.6477 967.2859C540.5277 895.9959 449.2177 703.6159 442.3877 551.7559Z"/>
</svg>