<?xml version="1.0" encoding="UTF-8" standalone="no"?>
<svg xmlns="http://www.w3.org/2000/svg"
     width="898.92578125" height="898.92578125"
     viewBox="0 0 898.92578125 898.92578125"
     fill="currentColor">
  <path d="M153.3183 898.9295H745.6083C848.1483 898.9295 898.9283 848.1495 898.9283 747.5595V151.3695C898.9283 50.7795 848.1483 -0.0005 745.6083 -0.0005H153.3183C51.2683 -0.0005 -0.0017 50.2895 -0.0017 151.3695V747.5595C-0.0017 848.6295 51.2683 898.9295 153.3183 898.9295ZM154.2983 820.3095C105.4683 820.3095 78.6183 794.4295 78.6183 743.6495V155.2695C78.6183 104.4895 105.4683 78.6095 154.2983 78.6095H744.6283C792.9683 78.6095 820.3083 104.4895 820.3083 155.2695V743.6495C820.3083 794.4295 792.9683 820.3095 744.6283 820.3095ZM318.8483 677.2495C344.7283 677.2495 362.3083 664.0595 368.1683 639.6495L447.2683 331.5395H451.1683L530.2783 639.6495C536.1283 664.0595 553.7083 677.2495 579.5883 677.2495C605.4683 677.2495 622.0683 663.5695 628.4183 638.6695L725.5883 268.0695C727.0483 262.6995 727.5383 257.8095 727.5383 253.4195C727.5383 231.4495 712.8883 216.3095 689.9383 216.3095C666.9883 216.3095 656.2483 227.0495 650.3883 254.8795L577.1483 565.4295H573.7283L491.6983 249.5095C485.8383 227.5395 472.1683 217.2895 449.2183 217.2895C426.2683 217.2895 412.1083 227.5395 406.7383 249.5095L324.7083 565.4295H321.2883L248.5383 254.8795C242.6783 227.0495 231.9383 216.3095 208.9883 216.3095C186.0383 216.3095 171.3883 231.4495 171.3883 253.4195C171.3883 257.8095 171.8783 262.6995 173.3383 268.0695L270.0183 638.6695C276.3683 663.5695 292.9683 677.2495 318.8483 677.2495Z"/>
</svg>