<?xml version="1.0" encoding="UTF-8" standalone="no"?>
<svg xmlns="http://www.w3.org/2000/svg"
     width="996.09375" height="996.09375"
     viewBox="0 0 996.09375 996.09375"
     fill="currentColor">
  <path d="M-0.0023 498.0459C-0.0023 770.0159 226.0777 996.0959 498.0477 996.0959C770.5077 996.0959 996.0977 770.0159 996.0977 498.0459C996.0977 225.5859 770.0177 -0.0041 497.5577 -0.0041C225.5877 -0.0041 -0.0023 225.5859 -0.0023 498.0459ZM149.8977 271.4859C223.1477 157.7159 350.5877 83.0059 497.5577 83.0059C644.5277 83.0059 772.4577 157.7159 845.7077 271.4859ZM83.4977 498.0459C83.4977 443.8459 93.7477 392.5759 112.7977 345.2159H883.7877C902.8277 392.5759 913.0877 443.8459 913.0877 498.0459C913.5777 728.5159 728.5177 913.0859 498.0477 913.0859C267.5777 913.0859 83.4977 728.5159 83.4977 498.0459Z"/>
</svg>