<?xml version="1.0" encoding="UTF-8" standalone="no"?>
<svg xmlns="http://www.w3.org/2000/svg"
     width="821.2890625" height="1046.875"
     viewBox="0 0 821.2890625 1046.875"
     fill="currentColor">
  <path d="M151.3683 1046.8766H669.9183C770.5083 1046.8766 821.2883 995.6066 821.2883 894.0466V153.3166C821.2883 51.2666 770.9983 -0.0034 669.9183 -0.0034H524.8983C508.2983 -0.0034 497.5583 11.7166 497.5583 29.2966C497.5583 80.0766 462.3983 115.7266 410.6483 115.7266C358.8883 115.7266 323.2383 80.0766 323.2383 29.2966C323.2383 11.7166 312.4983 -0.0034 295.8983 -0.0034H151.3683C50.2883 -0.0034 -0.0017 51.2666 -0.0017 153.3166V894.0466C-0.0017 995.6066 50.7783 1046.8766 151.3683 1046.8766ZM155.2783 968.2666C104.4883 968.2666 78.6183 940.9166 78.6183 892.5766V154.7866C78.6183 105.9566 104.4883 78.6166 155.2783 78.6166H253.9083C272.4583 148.4366 331.5383 191.8966 410.6483 191.8966C489.7483 191.8966 548.8283 148.4366 567.3783 78.6166H666.0183C716.7983 78.6166 742.6783 105.9566 742.6783 154.7866V892.5766C742.6783 940.9166 716.7983 968.2666 666.0183 968.2666ZM225.5883 363.7666H596.1883C613.2783 363.7666 625.9783 350.5866 625.9783 333.0066C625.9783 316.4066 613.2783 303.2266 596.1883 303.2266H225.5883C208.0083 303.2266 195.3083 316.4066 195.3083 333.0066C195.3083 350.5866 208.0083 363.7666 225.5883 363.7666ZM225.5883 537.1066H400.8783C418.4583 537.1066 431.1483 523.9266 431.1483 507.3266C431.1483 490.2366 418.4583 477.0466 400.8783 477.0466H225.5883C208.0083 477.0466 195.3083 490.2366 195.3083 507.3266C195.3083 523.9266 208.0083 537.1066 225.5883 537.1066Z"/>
</svg>