<?xml version="1.0" encoding="UTF-8" standalone="no"?>
<svg xmlns="http://www.w3.org/2000/svg"
     width="875" height="932.6171875"
     viewBox="0 0 875 932.6171875"
     fill="currentColor">
  <path d="M219.2383 932.6211H591.3083C728.5183 932.6211 810.5483 849.1211 810.5483 709.4711V415.0411H823.7283C854.9783 415.0411 874.9983 393.5511 874.9983 359.8611V278.3211C874.9983 243.6511 854.9783 222.1711 823.7283 222.1711H810.5483C810.5483 83.0111 728.5183 0.0011 591.3083 0.0011H219.2383C82.0283 0.0011 -0.0017 83.0111 -0.0017 222.6611V709.4711C-0.0017 849.1211 82.0283 932.6211 219.2383 932.6211ZM215.8183 854.0011C129.8783 854.0011 78.6183 801.7611 78.6183 712.8911V221.6811C78.6183 133.3011 129.8783 81.0511 215.8183 81.0511H594.7283C681.1483 81.0511 731.9383 133.3011 731.9383 221.6811V712.8911C731.9383 801.7611 681.1483 854.0011 594.7283 854.0011ZM352.5383 500.4911C376.9483 520.9911 399.4183 520.9911 422.8483 500.4911L624.5083 324.7111C639.1583 311.5211 639.1583 288.5711 624.9983 273.9211C610.8383 259.7611 589.3583 259.7611 573.2383 273.9211L387.2083 435.0611L273.9283 338.8711C259.2783 326.1711 235.8383 328.6111 223.1483 343.2611C209.9583 358.8911 212.3983 381.8311 228.0283 395.0211Z"/>
</svg>