<?xml version="1.0" encoding="UTF-8" standalone="no"?>
<svg xmlns="http://www.w3.org/2000/svg"
     width="1026.3671875" height="944.6418890404725"
     viewBox="0 0 1026.3671875 944.6418890404725"
     fill="currentColor">
  <path d="M919.4383 933.6559C934.0783 948.3059 958.4983 948.3059 972.6583 933.6559C986.8183 918.5159 987.3083 895.0859 972.6583 880.4359L103.5183 10.8059C88.8683 -3.3541 64.4483 -3.8441 49.8083 10.8059C35.6483 25.4559 35.6483 49.8659 49.8083 64.0259ZM1026.3683 196.8359C1026.3683 177.7959 1010.7383 162.6559 991.6983 162.6559H989.2583C936.5283 162.6559 907.2283 140.6859 870.6083 114.8059C838.8683 91.8559 799.3183 63.5359 745.1183 63.5359C688.9683 63.5359 648.9283 93.3259 617.1883 117.2459C583.4983 142.6359 556.6383 162.6559 513.1883 162.6559C469.2383 162.6559 442.8683 142.6359 409.1783 117.2459C377.4383 93.3259 337.3983 63.5359 281.2483 63.5359C267.0883 63.5359 253.9083 65.4959 241.6983 68.9059L323.2383 149.9659C325.6883 151.4259 329.5883 153.3859 332.5183 154.8459C382.3283 177.7959 417.9683 231.5059 513.1883 231.5059C645.9983 231.5059 667.4783 132.3859 745.1183 132.3859C824.2183 132.3859 836.9183 231.5059 989.2583 231.5059H991.6983C1010.7383 231.5059 1026.3683 215.8859 1026.3683 196.8359ZM1026.3683 502.0159C1026.3683 482.9759 1010.7383 467.3459 991.6983 467.3459H989.2583C936.5283 467.3459 907.2283 445.8659 870.6083 419.4959C838.8683 396.5459 799.3183 368.2259 745.1183 368.2259C688.9683 368.2259 648.9283 398.4959 617.1883 421.9359C612.7883 425.3559 608.8883 428.7759 604.4883 431.2159L655.2783 482.4859C684.0783 459.5359 707.5183 437.0759 745.1183 437.0759C824.2183 437.0759 836.9183 536.1959 989.2583 536.1959H991.6983C1010.7383 536.1959 1026.3683 521.0559 1026.3683 502.0159ZM-0.0017 502.0159C-0.0017 521.0559 15.1383 536.1959 34.6683 536.1959H37.1083C188.9683 536.1959 202.1483 437.0759 281.2483 437.0759C314.4483 437.0759 330.0783 461.4859 363.7683 468.8159L289.0583 394.1059C282.7183 392.1559 276.8583 388.2459 271.4883 384.3359C264.1583 379.4559 256.8383 373.5959 246.0983 373.5959C223.6283 373.5959 179.6883 401.9159 155.7583 419.4959C119.1383 445.8659 89.3583 467.3459 37.1083 467.3459H34.6683C15.1383 467.3459 -0.0017 482.9759 -0.0017 502.0159ZM-0.0017 806.7059C-0.0017 825.7459 15.1383 841.3659 34.6683 841.3659H37.1083C188.9683 841.3659 202.1483 742.2459 281.2483 742.2459C358.8883 742.2459 379.8783 841.3659 513.1883 841.3659C598.1483 841.3659 636.7183 799.3759 676.7583 771.5459L625.9783 720.7659C589.3583 746.1559 561.5283 772.5259 513.1883 772.5259C469.2383 772.5259 442.8683 752.5059 409.1783 726.6259C377.4383 703.1859 337.3983 673.4059 281.2483 673.4059C227.0483 673.4059 187.4983 701.2359 155.7583 724.6759C119.1383 750.5459 89.3583 772.5259 37.1083 772.5259H34.6683C15.1383 772.5259 -0.0017 787.6559 -0.0017 806.7059Z"/>
</svg>