<?xml version="1.0" encoding="UTF-8" standalone="no"?>
<svg xmlns="http://www.w3.org/2000/svg"
     width="1026.3671875" height="758.30078125"
     viewBox="0 0 1026.3671875 758.30078125"
     fill="currentColor">
  <path d="M513.1883 167.9719C645.9983 167.9719 667.4783 68.8519 745.1183 68.8519C824.2183 68.8519 836.9183 167.9719 989.2583 167.9719H991.6983C1010.7383 167.9719 1026.3683 152.3419 1026.3683 133.3019C1026.3683 114.2619 1010.7383 99.1219 991.6983 99.1219H989.2583C936.5283 99.1219 907.2283 77.1519 870.6083 51.2719C838.8683 28.3219 799.3183 0.0019 745.1183 0.0019C688.9683 0.0019 648.9283 29.7819 617.1883 53.7119C583.4983 79.1019 556.6383 99.1219 513.1883 99.1219C469.2383 99.1219 442.8683 79.1019 409.1783 53.7119C377.4383 29.7819 337.3983 0.0019 281.2483 0.0019C227.0483 0.0019 187.4983 28.3219 155.7583 51.2719C119.1383 77.1519 89.3583 99.1219 37.1083 99.1219H34.6683C15.1383 99.1219 -0.0017 114.2619 -0.0017 133.3019C-0.0017 152.3419 15.1383 167.9719 34.6683 167.9719H37.1083C188.9683 167.9719 202.1483 68.8519 281.2483 68.8519C358.8883 68.8519 379.8783 167.9719 513.1883 167.9719ZM513.1883 462.8919C645.9983 462.8919 667.4783 363.7719 745.1183 363.7719C824.2183 363.7719 836.9183 462.8919 989.2583 462.8919H991.6983C1010.7383 462.8919 1026.3683 447.7519 1026.3683 428.7119C1026.3683 409.6719 1010.7383 394.0419 991.6983 394.0419H989.2583C936.5283 394.0419 907.2283 372.5619 870.6083 346.1919C838.8683 323.2419 799.3183 294.9219 745.1183 294.9219C688.9683 294.9219 648.9283 325.1919 617.1883 348.6319C583.4983 374.0219 556.6383 394.0419 513.1883 394.0419C469.2383 394.0419 442.8683 374.0219 409.1783 348.6319C377.4383 325.1919 337.3983 294.9219 281.2483 294.9219C227.0483 294.9219 187.4983 323.2419 155.7583 346.1919C119.1383 372.5619 89.3583 394.0419 37.1083 394.0419H34.6683C15.1383 394.0419 -0.0017 409.6719 -0.0017 428.7119C-0.0017 447.7519 15.1383 462.8919 34.6683 462.8919H37.1083C188.9683 462.8919 202.1483 363.7719 281.2483 363.7719C358.8883 363.7719 379.8783 462.8919 513.1883 462.8919ZM513.1883 758.3019C645.9983 758.3019 667.4783 659.1819 745.1183 659.1819C824.2183 659.1819 836.9183 758.3019 989.2583 758.3019H991.6983C1010.7383 758.3019 1026.3683 742.6719 1026.3683 723.6319C1026.3683 704.5919 1010.7383 689.4519 991.6983 689.4519H989.2583C936.5283 689.4519 907.2283 667.4819 870.6083 641.6019C838.8683 618.1619 799.3183 590.3319 745.1183 590.3319C688.9683 590.3319 648.9283 620.1219 617.1883 643.5519C583.4983 669.4319 556.6383 689.4519 513.1883 689.4519C469.2383 689.4519 442.8683 669.4319 409.1783 643.5519C377.4383 620.1219 337.3983 590.3319 281.2483 590.3319C227.0483 590.3319 187.4983 618.1619 155.7583 641.6019C119.1383 667.4819 89.3583 689.4519 37.1083 689.4519H34.6683C15.1383 689.4519 -0.0017 704.5919 -0.0017 723.6319C-0.0017 742.6719 15.1383 758.3019 34.6683 758.3019H37.1083C188.9683 758.3019 202.1483 659.1819 281.2483 659.1819C358.8883 659.1819 379.8783 758.3019 513.1883 758.3019Z"/>
</svg>