<?xml version="1.0" encoding="UTF-8" standalone="no"?>
<svg xmlns="http://www.w3.org/2000/svg"
     width="996.09375" height="996.09375"
     viewBox="0 0 996.09375 996.09375"
     fill="currentColor">
  <path d="M498.0477 996.0977C770.5077 996.0977 996.0977 770.5077 996.0977 498.0477C996.0977 226.0777 770.0177 -0.0023 497.5577 -0.0023C225.5877 -0.0023 -0.0023 226.0777 -0.0023 498.0477C-0.0023 770.5077 226.0777 996.0977 498.0477 996.0977ZM288.5777 498.0477C288.5777 382.8077 322.7577 271.4877 384.2777 182.1277C395.9977 164.5477 416.9877 160.6477 433.1077 172.3677C449.2177 184.0777 451.6577 204.5877 439.9377 221.6777C386.2277 297.3677 356.4477 395.5077 356.4477 498.0477C356.4477 599.1177 386.7177 698.2377 439.9377 774.4177C451.6577 791.0177 449.2177 811.5277 433.1077 823.7277C417.4777 834.4677 396.4877 830.5677 384.2777 813.4777C322.7577 725.5877 288.5777 613.2777 288.5777 498.0477ZM445.7977 498.0477C445.7977 412.5977 470.7077 331.0577 515.6277 270.0177C527.8277 253.4177 547.8477 249.5077 563.9677 260.7377C579.0977 271.4877 583.0077 292.9677 570.7977 310.5477C535.1577 359.8677 514.6477 427.7377 514.6477 498.0477C514.6477 567.8677 535.1577 635.7377 570.7977 685.0577C583.0077 702.6377 579.0977 724.1177 563.9677 734.8677C547.8477 746.5777 527.8277 742.1877 515.6277 726.0777C470.7077 663.0877 445.7977 581.5477 445.7977 498.0477ZM603.5177 498.0477C603.5177 446.7777 619.1377 394.5277 645.9977 356.9377C657.2277 341.7977 678.2277 337.3977 693.8477 347.6577C711.4277 359.8677 714.8477 381.8377 701.1677 399.8977C683.1077 423.8277 672.3677 459.9577 672.3677 498.0477C672.3677 534.6677 683.1077 570.7977 701.1677 595.7077C714.3577 613.7677 710.9377 634.7677 693.8477 647.4577C678.2277 658.2077 656.7377 653.8077 645.9977 638.1877C619.1377 603.0277 603.5177 550.7777 603.5177 498.0477Z"/>
</svg>