<?xml version="1.0" encoding="UTF-8" standalone="no"?>
<svg xmlns="http://www.w3.org/2000/svg"
     width="1151.3671875" height="898.92578125"
     viewBox="0 0 1151.3671875 898.92578125"
     fill="currentColor">
  <path d="M263.6683 215.8178L176.2683 429.6878H-0.0017V151.3678C-0.0017 50.7778 51.2683 -0.0022 153.3183 -0.0022H998.0483C1100.5883 -0.0022 1151.3683 50.7778 1151.3683 151.3678V429.6878H958.0083C938.4783 429.6878 928.2183 438.9678 921.8783 456.0578L885.7383 558.1078L771.9683 214.3578C763.6683 187.9878 723.6283 187.4978 712.3983 215.8178L624.5083 429.6878H509.7683C489.7483 429.6878 479.4883 438.9678 473.6283 456.0578L437.0083 558.1078L323.7283 214.3578C314.9383 187.9878 275.3883 187.4978 263.6683 215.8178ZM153.3183 898.9278C51.2683 898.9278 -0.0017 848.6378 -0.0017 748.0478V492.6778H186.5283C215.8183 492.6778 225.0983 483.3978 232.4183 466.3078L293.9483 316.4078L407.7183 680.1778C416.0183 707.0278 458.9883 706.0578 467.7783 678.7078L526.8583 492.6778H642.0883C662.1083 492.6778 671.3883 483.3978 678.2183 466.3078L742.6783 316.4078L855.9583 680.1778C864.2583 707.0278 907.7183 706.0578 916.5083 678.7078L975.5883 492.6778H1151.3683V748.0478C1151.3683 848.6378 1100.5883 898.9278 998.0483 898.9278Z"/>
</svg>