<?xml version="1.0" encoding="UTF-8" standalone="no"?>
<svg xmlns="http://www.w3.org/2000/svg"
     width="1051.26953125" height="1029.78515625"
     viewBox="0 0 1051.26953125 1029.78515625"
     fill="currentColor">
  <path d="M367.1883 1020.0147C390.1383 1020.0147 407.2283 1002.4447 407.2283 980.4647V39.5547C407.2283 17.5747 390.1383 0.0047 367.1883 0.0047C345.2183 0.0047 328.6183 17.5747 328.6183 39.5547V980.4647C328.6183 1002.4447 345.2183 1020.0147 367.1883 1020.0147ZM657.2283 619.1447C680.6683 605.9547 711.4283 604.4947 735.8383 615.7247V147.4647C735.8383 125.9747 718.2583 107.9147 696.2883 107.9147C673.8283 107.9147 657.2283 125.9747 657.2283 147.4647ZM203.1283 823.2447C225.5883 823.2447 243.1683 805.6647 243.1683 783.6947V236.3247C243.1683 214.3547 225.5883 196.2847 203.1283 196.2847C181.1483 196.2847 164.5483 214.3547 164.5483 236.3247V783.6947C164.5483 805.6647 181.1483 823.2447 203.1283 823.2447ZM532.2283 763.6747C554.1983 763.6747 571.2883 746.5847 571.2883 724.6047V295.4147C571.2883 273.4347 554.1983 255.8547 532.2283 255.8547C509.2783 255.8547 492.6783 273.4347 492.6783 295.4147V724.6047C492.6783 746.5847 509.2783 763.6747 532.2283 763.6747ZM39.0583 623.5347C61.5283 623.5347 78.6183 605.9547 78.6183 583.9847V436.0347C78.6183 414.0647 61.5283 395.9947 39.0583 395.9947C16.5983 395.9947 -0.0017 414.0647 -0.0017 436.0347V583.9847C-0.0017 605.9547 16.5983 623.5347 39.0583 623.5347ZM862.7883 830.5647C910.6483 830.5647 943.8483 793.4547 943.8483 744.1447V552.2447C943.8483 502.9247 910.6483 466.3047 862.7883 466.3047C814.9383 466.3047 781.7383 502.9247 781.7383 552.2447V744.1447C781.7383 793.4547 814.9383 830.5647 862.7883 830.5647ZM738.7683 1029.7847H987.3083C1002.9283 1029.7847 1013.1883 1019.0447 1013.1883 1003.4147C1013.1883 987.7947 1002.9283 977.0547 987.3083 977.0547H889.1583V928.2247C986.3283 916.5047 1051.2683 842.7747 1051.2683 743.6547V700.6847C1051.2683 687.0147 1039.5483 674.8047 1025.8783 674.8047C1011.7183 674.8047 999.5083 687.0147 999.5083 700.6847V743.6547C999.5083 823.7347 943.3583 879.8847 862.7883 879.8847C781.7383 879.8847 726.0783 823.7347 726.0783 743.6547V700.6847C726.0783 687.0147 713.8683 674.8047 699.7083 674.8047C686.0383 674.8047 674.3183 687.0147 674.3183 700.6847V743.6547C674.3183 842.7747 739.2583 916.9947 836.4283 928.2247V977.0547H738.7683C723.1483 977.0547 711.9183 987.7947 711.9183 1003.4147C711.9183 1019.0447 723.1483 1029.7847 738.7683 1029.7847Z"/>
</svg>