<?xml version="1.0" encoding="UTF-8" standalone="no"?>
<svg xmlns="http://www.w3.org/2000/svg"
     width="996.09375" height="996.09375"
     viewBox="0 0 996.09375 996.09375"
     fill="currentColor">
  <path d="M498.0477 996.0977C770.5077 996.0977 996.0977 770.5077 996.0977 498.0477C996.0977 226.0777 770.0177 -0.0023 497.5577 -0.0023C225.5877 -0.0023 -0.0023 226.0777 -0.0023 498.0477C-0.0023 770.5077 226.0777 996.0977 498.0477 996.0977ZM709.4777 498.0477C709.4777 613.2777 675.7777 725.5877 613.7677 813.4777C601.5577 830.5677 580.5677 834.4677 565.4277 823.7277C549.3177 811.5277 546.3877 791.0177 558.1077 774.4177C611.8177 698.2377 641.5977 599.1177 641.5977 498.0477C641.5977 395.5077 612.3077 297.3677 558.1077 221.6777C546.3877 204.5877 549.3177 184.0777 565.4277 172.3677C581.0577 160.6477 602.0477 164.5477 613.7677 182.1277C675.7777 271.4877 709.4777 382.8077 709.4777 498.0477ZM552.2477 498.0477C552.2477 581.5477 527.3477 663.0877 482.4177 726.0777C470.2177 742.1877 450.1977 746.5777 434.5677 734.8677C418.9477 724.1177 415.0377 702.6377 427.2477 685.0577C462.8877 635.7377 483.3977 567.8677 483.3977 498.0477C483.3977 427.7377 462.8877 359.8677 427.2477 310.5477C415.0377 292.9677 418.9477 271.4877 434.5677 260.7377C450.1977 249.5077 470.2177 253.4177 482.4177 270.0177C527.3477 331.0577 552.2477 412.5977 552.2477 498.0477ZM394.5277 498.0477C394.5277 550.7777 378.9077 603.0277 352.5377 638.1877C341.3077 653.8077 320.3077 658.2077 304.6877 647.4577C287.5977 634.7677 284.1777 613.7677 296.8777 595.7077C314.9377 570.7977 325.6877 534.6677 325.6877 498.0477C325.6877 459.9577 314.9377 423.8277 296.8777 399.8977C283.6877 381.8377 287.1077 359.8677 304.6877 347.6577C320.3077 337.3977 340.8177 341.7977 352.5377 356.9377C378.9077 394.5277 394.5277 446.7777 394.5277 498.0477Z"/>
</svg>