<?xml version="1.0" encoding="UTF-8" standalone="no"?>
<svg xmlns="http://www.w3.org/2000/svg"
     width="1151.3671875" height="898.92578125"
     viewBox="0 0 1151.3671875 898.92578125"
     fill="currentColor">
  <path d="M153.3183 898.9278H998.0483C1100.5883 898.9278 1151.3683 848.6378 1151.3683 748.0478V151.3678C1151.3683 50.7778 1100.5883 -0.0022 998.0483 -0.0022H153.3183C51.2683 -0.0022 -0.0017 50.7778 -0.0017 151.3678V748.0478C-0.0017 848.6378 51.2683 898.9278 153.3183 898.9278ZM154.2983 820.3078C105.4683 820.3078 78.6183 794.4378 78.6183 743.6478V155.7578C78.6183 104.9778 105.4683 78.6178 154.2983 78.6178H997.0683C1045.4083 78.6178 1072.7583 104.9778 1072.7583 155.7578V429.1978H958.4983C938.4783 429.1978 928.2183 438.9678 922.3683 455.5678L886.2283 557.6178L772.4583 213.8678C763.6683 187.4978 724.1183 187.4978 712.8883 215.3278L624.9983 429.1978H509.7683C490.2383 429.1978 479.9783 438.9678 473.6283 455.5678L437.4983 557.6178L323.7283 213.8678C315.4283 187.4978 275.3883 187.4978 264.1583 215.3278L176.2683 429.1978H79.0983V492.1878H196.2883C216.3083 492.1878 225.5883 482.9078 232.4183 465.8178L294.4383 315.9178L407.7183 679.6878C416.0183 706.5478 459.4683 706.0578 468.2583 678.2178L527.3483 492.1878H642.5783C662.5983 492.1878 671.3883 482.9078 678.7083 465.8178L742.6783 315.9178L856.4483 679.6878C864.7483 706.5478 908.1983 706.0578 916.5083 678.2178L976.0783 492.1878H1072.7583V743.6478C1072.7583 794.4378 1045.4083 820.3078 997.0683 820.3078Z"/>
</svg>