<?xml version="1.0" encoding="UTF-8" standalone="no"?>
<svg xmlns="http://www.w3.org/2000/svg"
     width="1197.75390625" height="1112.548828125"
     viewBox="0 0 1197.75390625 1112.548828125"
     fill="currentColor">
  <path d="M35.1606 639.773H178.2206C191.4106 639.773 203.6106 631.953 207.0306 617.793L221.1906 554.813L290.0406 873.653C296.3906 902.953 344.2406 902.953 348.6306 873.173L408.2006 481.563L478.0306 1085.573C482.4206 1121.703 534.1806 1121.213 537.1106 1085.573L601.0706 365.353L665.5306 1085.083C668.4606 1121.703 720.2106 1121.703 724.6106 1085.083L794.4306 481.563L854.0006 873.653C858.8906 903.443 906.2506 903.443 912.6006 873.653L980.4706 558.713L995.6006 617.793C1000.0006 633.913 1011.2306 639.773 1024.4106 639.773H1163.0906C1182.6206 639.773 1197.7506 624.633 1197.7506 605.593C1197.7506 586.543 1182.6206 570.923 1163.0906 570.923H1045.9006L1006.8406 419.553C998.0506 386.843 955.5706 386.843 948.2406 419.553L888.1806 704.713L819.3406 255.003C813.9606 219.363 764.6506 220.333 760.2506 255.493L698.7306 789.183L631.3506 27.463C627.9306 -9.157 574.7106 -9.157 571.2906 27.463L503.9106 789.183L442.3806 255.493C437.9906 219.363 388.6706 219.363 383.3006 255.003L314.4506 704.713L254.3906 419.553C247.5606 389.283 204.1006 389.283 195.8006 419.553L156.7406 570.923H35.1606C15.1406 570.923 0.0006 586.543 0.0006 605.593C0.0006 624.633 15.1406 639.773 35.1606 639.773Z"/>
</svg>