<?xml version="1.0" encoding="UTF-8" standalone="no"?>
<svg xmlns="http://www.w3.org/2000/svg"
     width="1149.90234375" height="1020.01953125"
     viewBox="0 0 1149.90234375 1020.01953125"
     fill="currentColor">
  <path d="M367.1883 1020.0147C389.6483 1020.0147 407.2283 1002.4447 407.2283 980.4647V39.5547C407.2283 17.5747 389.6483 0.0047 367.1883 0.0047C345.2183 0.0047 328.6183 17.5747 328.6183 39.5547V980.4647C328.6183 1002.4447 345.2183 1020.0147 367.1883 1020.0147ZM656.7383 546.8747C678.7083 520.9947 705.0783 499.5147 735.3483 484.8647V147.4647C735.3483 125.9747 718.2583 107.9147 696.2883 107.9147C673.3383 107.9147 656.7383 125.9747 656.7383 147.4647ZM203.1283 823.2447C225.5883 823.2447 242.6783 805.6647 242.6783 783.6947V236.3247C242.6783 214.3547 225.5883 196.2847 203.1283 196.2847C181.1483 196.2847 164.0583 214.3547 164.0583 236.3247V783.6947C164.0583 805.6647 181.1483 823.2447 203.1283 823.2447ZM531.7383 763.6747C554.1983 763.6747 571.2883 746.5847 571.2883 724.6047V295.4147C571.2883 273.4347 554.1983 255.8547 531.7383 255.8547C509.2783 255.8547 492.6783 273.4347 492.6783 295.4147V724.6047C492.6783 746.5847 509.2783 763.6747 531.7383 763.6747ZM821.2883 458.9847C847.6583 455.5647 873.5383 456.0547 899.8983 460.9347V393.5547C899.8983 372.0747 882.3283 354.0047 860.3483 354.0047C837.8883 354.0047 821.2883 372.0747 821.2883 393.5547ZM38.5783 623.5347C61.5283 623.5347 78.6183 605.9547 78.6183 583.9847V436.0347C78.6183 414.0647 61.5283 395.9947 38.5783 395.9947C16.5983 395.9947 -0.0017 414.0647 -0.0017 436.0347V583.9847C-0.0017 605.9547 16.5983 623.5347 38.5783 623.5347ZM852.5383 913.5747C891.1183 913.5747 926.7583 902.8347 957.5183 883.7847L1076.6583 1002.4447C1086.4283 1012.2047 1096.6783 1017.0947 1110.3483 1017.0947C1133.2983 1017.0947 1149.8983 1000.0047 1149.8983 976.0747C1149.8983 965.3347 1144.0383 955.0747 1136.2283 946.7747L1016.5983 826.1747C1037.5983 794.9247 1049.8083 757.3247 1049.8083 716.3047C1049.8083 607.9147 961.4283 519.5347 852.5383 519.5347C744.6283 519.5347 655.7583 608.3947 655.7583 716.3047C655.7583 824.7047 744.6283 913.5747 852.5383 913.5747ZM852.5383 848.1447C780.7583 848.1447 721.1883 788.5747 721.1883 716.3047C721.1883 645.0147 780.7583 585.4447 852.5383 585.4447C924.8083 585.4447 983.8883 644.5347 983.8883 716.3047C983.8883 788.5747 924.8083 848.1447 852.5383 848.1447Z"/>
</svg>