<?xml version="1.0" encoding="UTF-8" standalone="no"?>
<svg xmlns="http://www.w3.org/2000/svg"
     width="996.09375" height="996.09375"
     viewBox="0 0 996.09375 996.09375"
     fill="currentColor">
  <path d="M498.0477 996.0959C770.5077 996.0959 996.0977 770.0159 996.0977 498.0459C996.0977 225.5859 770.0177 -0.0041 497.5577 -0.0041C225.5877 -0.0041 -0.0023 225.5859 -0.0023 498.0459C-0.0023 770.0159 226.0777 996.0959 498.0477 996.0959ZM498.0477 913.0859C267.5777 913.0859 83.4977 728.5159 83.4977 498.0459C83.4977 267.5759 267.0877 83.0059 497.5577 83.0059C728.0277 83.0059 913.0877 267.5759 913.0877 498.0459C913.0877 728.5159 728.5177 913.0859 498.0477 913.0859ZM294.4377 497.5559C294.4377 609.8659 327.6377 718.2659 387.2077 804.1959C399.4177 819.8259 419.4377 824.2159 434.5677 813.4759C450.1977 802.2459 452.6377 782.2259 440.9177 765.6259C389.6477 692.3859 359.8677 595.7059 359.8677 497.5559C359.8677 398.4359 389.1577 303.2259 440.9177 229.4959C452.6377 213.3759 450.1977 192.8759 434.5677 181.6359C418.9477 170.8959 398.9277 174.8059 387.2077 191.4059C327.6377 277.8359 294.4377 386.2259 294.4377 497.5559ZM447.2677 497.5559C447.2677 579.1059 471.1877 658.2059 514.6477 718.7459C526.3677 734.8659 545.8977 738.2859 561.5277 727.5359C576.1677 717.2859 579.5877 696.7759 567.8677 679.6859C533.2077 631.8359 513.6677 565.9159 513.6677 497.5559C513.6677 429.6859 533.2077 363.7659 567.8677 315.9159C579.5877 298.8259 576.1677 278.3159 561.5277 268.0659C545.8977 256.8359 526.3677 260.7459 514.6477 276.3659C471.1877 335.9359 447.2677 414.5459 447.2677 497.5559ZM600.0977 497.5559C600.0977 548.8259 615.2377 599.6059 641.1177 633.7859C651.8577 648.9259 672.3677 653.3159 687.4977 643.0659C704.0977 630.8559 707.0277 610.3559 694.3377 592.7759C676.7577 568.8459 666.5077 533.2059 666.5077 497.5559C666.5077 460.9359 676.7577 425.2959 694.3377 402.8359C707.5177 385.2559 704.5877 363.7659 687.4977 352.0459C672.3677 342.2859 652.3477 346.6759 641.1177 361.3259C615.2377 397.4559 600.0977 447.7559 600.0977 497.5559Z"/>
</svg>