<?xml version="1.0" encoding="UTF-8" standalone="no"?>
<svg xmlns="http://www.w3.org/2000/svg"
     width="784.66796875" height="983.88671875"
     viewBox="0 0 784.66796875 983.88671875"
     fill="currentColor">
  <path d="M221.6783 983.8866H563.4783C584.9583 983.8866 602.5383 966.3066 602.5383 944.8266C602.5383 923.3366 584.9583 905.2766 563.4783 905.2766H432.1283V783.6866C629.8783 763.6766 784.6683 596.6766 784.6683 392.5766C784.6683 175.7766 608.8883 -0.0034 392.5783 -0.0034C175.7783 -0.0034 -0.0017 175.7766 -0.0017 392.5766C-0.0017 596.6766 154.7883 763.6766 353.5183 783.6866V905.2766H222.1683C200.6883 905.2766 182.6183 923.3366 182.6183 944.8266C182.6183 966.3066 200.1983 983.8866 221.6783 983.8866ZM392.5783 627.9266C261.7183 627.9266 157.7183 523.9266 157.7183 392.5766C157.7183 261.7166 261.7183 157.7166 392.5783 157.7166C523.9283 157.7166 626.9483 261.7166 626.9483 392.5766C626.9483 523.9266 523.9283 627.9266 392.5783 627.9266ZM392.5783 501.9566C453.6183 501.9566 501.4683 453.6166 501.4683 392.5766C501.4683 331.5466 453.6183 283.2066 392.5783 283.2066C331.5383 283.2066 283.1983 331.5466 283.1983 392.5766C283.1983 453.6166 331.5383 501.9566 392.5783 501.9566Z"/>
</svg>