<?xml version="1.0" encoding="UTF-8" standalone="no"?>
<svg xmlns="http://www.w3.org/2000/svg"
     width="996.09375" height="996.09375"
     viewBox="0 0 996.09375 996.09375"
     fill="currentColor">
  <path d="M498.0477 996.0959C770.5077 996.0959 996.0977 770.0159 996.0977 498.0459C996.0977 225.5859 770.0177 -0.0041 497.5577 -0.0041C225.5877 -0.0041 -0.0023 225.5859 -0.0023 498.0459C-0.0023 770.0159 226.0777 996.0959 498.0477 996.0959ZM498.0477 913.0859C267.5777 913.0859 83.4977 728.5159 83.4977 498.0459C83.4977 267.5759 267.0877 83.0059 497.5577 83.0059C728.0277 83.0059 913.0877 267.5759 913.0877 498.0459C913.0877 728.5159 728.5177 913.0859 498.0477 913.0859ZM226.5577 466.3059C232.9077 473.6359 244.1377 473.1459 251.4677 465.3359C314.9377 396.9759 400.8777 360.3559 497.5577 360.3559C594.2377 360.3559 681.1477 396.9759 745.1177 465.8159C751.9577 472.6559 762.2077 473.1459 768.5577 465.8159L805.1777 428.2259C811.0377 422.3659 811.5277 414.0659 806.6377 407.2259C740.2377 326.1759 618.1677 271.4859 497.5577 271.4859C377.4377 271.4859 254.8877 326.1759 188.9677 407.2259C183.5977 414.0659 184.5677 422.3659 189.9377 428.2259ZM337.8877 577.6359C345.2177 585.4459 354.9777 584.9559 363.2777 576.6559C395.9977 540.0359 447.7577 516.6059 497.5577 517.0859C547.3677 516.6059 599.1177 540.0359 633.2977 577.1459C640.6277 585.4459 650.3877 585.4459 657.2277 577.6359L698.7277 536.6259C704.5877 530.7659 705.5677 521.9759 699.7077 515.6259C655.2777 461.9159 577.6377 427.7359 497.5577 427.7359C417.9677 427.7359 339.8477 461.9159 295.8977 515.6259C290.0377 522.4559 290.5277 530.2759 297.3677 536.6259ZM497.5577 725.0959C504.8877 725.0959 509.7677 722.1659 521.9777 711.4259L587.3977 648.4359C592.7777 642.5759 593.7477 634.2759 588.8677 627.9259C569.3377 601.5659 533.2077 583.9859 497.5577 583.9859C461.4277 583.9859 425.7777 602.0459 405.7577 630.3759C401.3677 635.7459 402.8277 642.5759 408.6877 648.4359L473.6377 711.4259C485.3477 721.6759 490.2377 725.0959 497.5577 725.0959Z"/>
</svg>