<?xml version="1.0" encoding="UTF-8" standalone="no"?>
<svg xmlns="http://www.w3.org/2000/svg"
     width="1124.347657282552" height="811.5234375"
     viewBox="0 0 1124.347657282552 811.5234375"
     fill="currentColor">
  <path d="M73.8095 341.7925C83.5695 351.0725 97.2395 351.0725 106.5195 341.3125C226.6395 213.8625 384.8395 146.4825 562.0895 146.4825C740.3095 146.4825 899.4895 214.3525 1018.6295 341.7925C1027.4195 350.5825 1040.5995 350.1025 1050.3695 340.8225L1117.7495 273.4325C1126.5395 264.6525 1126.0495 253.9025 1119.2195 245.6025C1004.4695 104.0025 788.6495 0.0025 562.0895 0.0025C336.0095 0.0025 119.2195 104.0025 4.9595 245.6025C-1.8805 253.9025 -1.8805 264.6525 6.4195 273.4325ZM276.4395 545.9025C287.1795 556.1525 300.3695 554.6825 310.1295 543.9425C368.7295 479.0025 464.4295 431.6425 562.0895 432.1325C660.7195 431.6425 756.4195 480.4725 815.9895 545.4125C824.7795 555.6625 836.9895 555.1725 847.7295 545.4125L923.4095 470.2125C931.2295 462.4025 932.1995 451.6625 924.8795 442.8725C851.1495 352.5425 714.4295 284.6725 562.0895 284.6725C409.7395 284.6725 273.0195 352.5425 199.2895 442.8725C191.9695 451.6625 192.4595 461.4225 200.7595 470.2125ZM562.0895 811.5225C572.8295 811.5225 582.1095 806.6425 601.1495 788.0825L720.2895 673.8325C727.6095 666.5025 729.5695 655.7625 722.7295 646.9725C690.9895 605.9525 630.9295 570.3125 562.0895 570.3125C491.2895 570.3125 431.2295 607.4225 399.4895 649.9025C394.6095 657.7125 396.5595 666.5025 404.3695 673.8325L523.0195 788.0825C542.0695 806.1525 551.3395 811.5225 562.0895 811.5225Z"/>
</svg>