<?xml version="1.0" encoding="UTF-8" standalone="no"?>
<svg xmlns="http://www.w3.org/2000/svg"
     width="1394.04296875" height="930.6640625"
     viewBox="0 0 1394.04296875 930.6640625"
     fill="currentColor">
  <path d="M696.7783 -0.0006C584.9583 -0.0006 476.0783 33.1994 390.6283 92.7694C374.5083 104.9794 370.6083 124.9994 380.8583 140.1394C392.5783 155.7594 412.5983 158.1994 428.7083 146.4794C502.4383 95.2194 598.6283 65.4294 696.7783 65.4294C796.3883 65.4294 891.5983 94.7294 965.3283 146.4794C981.4483 158.1994 1001.4683 155.7594 1012.6983 140.1394C1023.9283 124.5094 1020.0183 104.4894 1003.4183 92.7694C916.9883 33.1994 808.5983 -0.0006 696.7783 -0.0006ZM696.7783 152.8294C615.7183 152.8294 536.6183 176.7594 475.5883 220.2194C459.9583 231.9294 456.0583 251.4694 467.2883 267.0894C477.5383 281.7394 498.0483 285.1594 515.1383 273.4394C562.9883 239.2594 628.9083 219.2394 696.7783 219.2394C765.1383 219.2394 831.0583 239.2594 878.9083 273.4394C895.9983 285.1594 916.5083 281.7394 926.7583 267.0894C937.9883 251.4694 934.0783 231.9294 917.9683 220.2194C858.8883 176.7594 779.7883 152.8294 696.7783 152.8294ZM696.7783 305.6594C645.9983 305.6594 595.2183 320.7994 561.0383 346.6794C545.8983 357.4194 541.5083 377.9294 551.7583 393.0694C563.9683 409.6694 584.4683 412.5994 602.0483 400.3894C625.9783 382.3194 661.1283 372.0694 696.7783 372.0694C733.8883 372.0694 769.0383 382.3194 791.9883 400.3894C809.5683 413.0894 830.5683 410.1594 842.7783 393.0694C852.5383 377.9294 848.1483 357.9094 833.4983 346.6794C797.3683 320.7994 746.5783 305.6594 696.7783 305.6594ZM135.7383 930.6594H1258.2983C1341.7983 930.6594 1394.0383 879.3994 1394.0383 796.8794V641.1094C1394.0383 558.5894 1341.7983 507.3194 1258.2983 507.3194H135.7383C52.2483 507.3194 -0.0017 558.5894 -0.0017 641.1094V796.8794C-0.0017 879.3994 52.2483 930.6594 135.7383 930.6594ZM610.8383 784.1794C574.7083 784.1794 544.9183 754.3994 544.9183 718.2594C544.9183 683.1094 574.7083 653.3194 610.8383 653.3194C646.4883 653.3194 676.2683 683.1094 676.2683 718.2594C676.2683 754.3994 646.4883 784.1794 610.8383 784.1794ZM801.2683 784.1794C765.1383 784.1794 735.3483 754.3994 735.3483 718.2594C735.3483 683.1094 765.1383 653.3194 801.2683 653.3194C836.9183 653.3194 866.6983 683.1094 866.6983 718.2594C866.6983 754.3994 836.9183 784.1794 801.2683 784.1794ZM991.6983 784.1794C955.5683 784.1794 925.7783 754.3994 925.7783 718.2594C925.7783 683.1094 955.5683 653.3194 991.6983 653.3194C1027.3483 653.3194 1057.1283 683.1094 1057.1283 718.2594C1057.1283 754.3994 1027.3483 784.1794 991.6983 784.1794ZM1182.1283 784.1794C1145.9983 784.1794 1116.2083 754.3994 1116.2083 718.7494C1116.2083 683.1094 1145.9983 653.3194 1182.1283 653.3194C1218.2583 653.3194 1248.0483 683.1094 1248.0483 718.7494C1248.0483 754.3994 1218.2583 784.1794 1182.1283 784.1794ZM185.0583 733.3994C164.0583 733.3994 149.4183 718.7494 149.4183 698.2394C149.4183 677.2494 164.0583 662.1094 185.0583 662.1094H355.9583C376.4683 662.1094 391.5983 677.2494 391.5983 698.2394C391.5983 718.7494 376.4683 733.3994 355.9583 733.3994Z"/>
</svg>