<?xml version="1.0" encoding="UTF-8" standalone="no"?>
<svg xmlns="http://www.w3.org/2000/svg"
     width="898.92578125" height="898.92578125"
     viewBox="0 0 898.92578125 898.92578125"
     fill="currentColor">
  <path d="M153.3183 898.9295H745.6083C848.1483 898.9295 898.9283 848.1495 898.9283 747.5595V151.3695C898.9283 50.7795 848.1483 -0.0005 745.6083 -0.0005H153.3183C51.2683 -0.0005 -0.0017 50.2895 -0.0017 151.3695V747.5595C-0.0017 848.6295 51.2683 898.9295 153.3183 898.9295ZM170.8983 416.0195L133.2983 377.4395C126.9483 371.0895 125.9783 362.7895 131.3483 355.4695C199.7083 271.4795 325.6883 215.8195 450.1983 215.8195C574.2183 215.8195 700.1983 271.4795 768.5583 355.4695C774.4183 362.7895 773.4383 371.0895 767.0883 377.4395L729.4883 415.5295C722.1683 422.8495 711.9183 423.3395 704.5883 416.0195C639.1583 344.7295 549.8083 307.6195 450.1983 307.6195C350.5883 307.6195 262.2083 345.2195 196.2883 415.5295C188.4783 423.8295 177.2483 423.8295 170.8983 416.0195ZM285.6483 531.2495L243.1683 488.2795C237.3083 481.9295 236.3283 473.6295 241.6983 467.2895C287.5983 411.6195 367.6783 375.9795 450.1983 375.9795C532.2283 375.9795 612.7883 411.6195 658.1983 467.2895C664.0583 473.1395 663.5783 482.4195 657.2283 488.2795L614.7483 531.2495C606.9383 539.0595 597.1683 539.0595 589.3583 530.7595C554.6883 492.1895 500.9783 467.7695 450.1983 468.7495C398.4383 467.7695 345.6983 492.1895 311.5283 530.2695C303.2183 539.5495 293.4583 539.0595 285.6483 531.2495ZM450.1983 683.1095C442.3783 683.1095 436.5283 680.1795 425.2883 668.4595L357.9083 603.5195C352.5383 598.1395 351.0783 590.8195 354.9783 584.9595C375.9783 556.1495 413.0883 537.1095 450.1983 537.1095C486.8183 537.1095 523.9283 555.6595 543.9483 582.5195C549.3183 588.8695 548.3383 598.1395 542.4783 603.5195L475.5883 668.4595C463.3783 680.6595 458.0083 683.1095 450.1983 683.1095Z"/>
</svg>