<?xml version="1.0" encoding="UTF-8" standalone="no"?>
<svg xmlns="http://www.w3.org/2000/svg"
     width="1004.0287120332044" height="1036.1328125"
     viewBox="0 0 1004.0287120332044 1036.1328125"
     fill="currentColor">
  <path d="M0.3661 995.6055C0.3661 1017.5755 18.4361 1036.1355 40.8961 1036.1355H956.9161C979.3761 1036.1355 997.4461 1017.5755 997.4461 995.6055C997.4461 973.1455 979.3761 955.0755 956.9161 955.0755H930.5461V623.5355H940.3161C983.7661 623.5355 1010.1361 589.3555 1002.8161 538.5755L933.9661 74.2155C927.1261 29.7855 901.7361 -0.0045 855.8361 -0.0045H148.3161C102.4261 -0.0045 77.0361 29.7855 70.1961 74.2155L1.3461 538.5755C-6.4639 589.3555 20.3861 623.5355 63.8461 623.5355H65.7961V955.0755H40.8961C18.4361 955.0755 0.3661 973.1455 0.3661 995.6055ZM122.4461 276.8555L148.8061 93.7455C150.2761 84.4755 155.1561 78.6155 163.9461 78.6155H465.7061L463.7461 276.8555ZM536.9961 78.6155H840.2161C849.0061 78.6155 853.8861 84.4755 855.3561 93.7455L881.7161 276.8555H538.4561ZM86.3061 527.3455L112.6761 343.2655H463.2661L462.2861 544.9255H101.4461C91.6761 544.9255 84.3561 537.1055 86.3061 527.3455ZM538.9461 343.2655H890.9961L917.8561 527.3455C919.3161 537.1055 912.4761 544.9255 902.2261 544.9255H540.4061ZM144.4161 955.0755V623.5355H851.9361V955.0755Z"/>
</svg>