<?xml version="1.0" encoding="UTF-8" standalone="no"?>
<svg xmlns="http://www.w3.org/2000/svg"
     width="1415.9137702302585" height="1039.0625"
     viewBox="0 0 1415.9137702302585 1039.0625"
     fill="currentColor">
  <path d="M985.0152 464.3603C1080.7152 464.3603 1144.6852 402.3403 1144.6852 309.5703C1144.6852 263.1803 1125.1452 222.6603 1111.4752 192.8703C1086.5752 138.1803 1044.5852 70.3103 1008.9352 15.1403C1002.1052 4.8803 994.7752 0.0003 985.0152 0.0003C975.7352 0.0003 967.9252 4.8803 961.0852 15.1403C925.9352 70.3103 883.9352 138.1803 859.0352 192.8703C845.3652 222.6603 825.8352 263.1803 825.8352 309.5703C825.8352 402.3403 889.3052 464.3603 985.0152 464.3603ZM708.1552 750.9803C804.3452 750.9803 916.6552 779.7803 1000.1452 823.7303C1022.6152 835.4503 1047.5152 831.0503 1062.1652 812.0103L1394.6852 388.1803C1427.3952 346.1903 1422.0252 301.7603 1380.5252 269.5303C1326.8052 228.5203 1254.5452 190.4303 1169.0952 160.1603C1185.6952 188.9603 1202.2952 238.7703 1206.2052 271.4803C1243.8052 287.6003 1278.9552 306.6403 1311.1852 327.6403C1324.3652 336.4303 1325.8352 347.6603 1316.0652 360.3503L1027.4952 728.0303C1017.7252 740.2303 1012.3552 741.2103 1000.1452 736.3303C900.5352 695.8003 797.0252 672.3603 708.1552 672.3603C676.9052 672.3603 643.7052 675.2903 609.5252 680.6603L340.4852 218.2603C456.2052 181.1503 581.2052 161.1303 708.1552 161.1303C737.9452 161.1303 768.7052 162.6003 798.9752 165.0403C799.9552 162.1103 823.8752 113.7703 838.5252 88.8703C795.5552 84.9603 751.6152 82.5203 708.1552 82.5203C561.6752 82.5203 419.0952 105.9603 297.0252 143.5503L245.7552 55.1803C235.5052 37.1103 213.0352 29.7803 191.0652 41.0203C171.0452 51.2703 166.6552 76.1703 177.3952 94.7303L220.8552 169.9203C147.1252 198.2403 83.6452 232.4203 35.3052 269.5303C-6.1948 301.7603 -11.5648 346.1903 21.6352 388.1803L354.1552 812.0103C368.8052 831.0503 393.2152 835.4503 415.6752 823.7303C460.5952 800.2903 514.3052 780.7603 568.9952 768.0703L622.2152 859.8603C607.0852 878.9103 598.2952 903.3203 598.2952 929.2003C598.2952 989.7503 647.1252 1039.0603 708.1552 1039.0603C767.7252 1039.0603 818.0252 989.2603 818.0252 929.2003C818.0252 868.1603 768.2152 818.8503 708.1552 818.8503C702.2952 818.8503 696.4352 819.3403 690.5752 820.3103L652.0052 753.9103C671.0452 751.9503 690.0952 750.9803 708.1552 750.9803ZM388.8252 728.0303L99.7552 360.3503C90.4852 347.6603 91.9452 336.4303 105.1252 327.6403C154.9352 295.9003 208.6452 268.5503 265.2852 245.6103L528.4652 698.2403C490.8752 708.5003 453.2752 721.1903 416.1652 736.3303C403.9552 741.2103 398.5852 740.2303 388.8252 728.0303ZM708.1552 974.1203C682.7652 974.1203 662.7452 954.1003 662.7452 929.2003C662.7452 903.8103 682.7652 882.8103 708.1552 882.8103C732.5752 882.8103 754.0552 904.3003 754.0552 929.2003C754.0552 954.1003 732.5752 974.1203 708.1552 974.1203Z"/>
</svg>