<?xml version="1.0" encoding="UTF-8" standalone="no"?>
<svg xmlns="http://www.w3.org/2000/svg"
     width="1415.9137702302585" height="1044.522290024977"
     viewBox="0 0 1415.9137702302585 1044.522290024977"
     fill="currentColor">
  <path d="M490.3852 992.6756C466.9452 960.9356 458.1552 941.4056 458.1552 905.7656C458.1552 832.0356 518.2152 787.1056 534.3252 703.6156C592.4352 686.5256 653.9552 676.2656 708.1552 676.2656C721.8252 676.2656 735.9852 677.2456 750.6352 678.2256C742.3352 764.1556 671.0452 804.6856 671.0452 910.6456C671.0452 956.5456 685.6952 991.6956 715.9652 1030.7656C742.8252 1064.4556 795.5552 1030.2756 767.7252 992.6756C743.8052 960.9356 735.0152 941.4056 735.0152 905.7656C735.0152 827.1456 802.8852 781.2456 814.1152 687.4956C878.5652 699.7056 943.5052 721.6756 994.2852 749.0256C997.2152 750.9756 1000.1452 751.9556 1003.5652 752.9256C979.6452 798.3356 948.3952 839.8456 948.3952 910.6456C948.3952 956.5456 962.5552 991.6956 992.8252 1030.7656C1019.6852 1064.4556 1072.9052 1030.2756 1044.5852 992.6756C1020.6552 960.9356 1012.3552 941.4056 1012.3552 905.7656C1012.3552 829.1056 1076.8052 783.6956 1089.9952 693.8456L1394.6852 305.6656C1427.3952 263.6756 1422.0252 219.2356 1380.5252 187.0156C1243.8052 81.5456 983.0552 -0.0044 708.1552 -0.0044C433.2552 -0.0044 172.0252 81.5456 35.3052 187.0156C-6.1948 219.2356 -11.5648 263.6756 21.6352 305.6656L360.0152 737.3056C374.6652 756.3456 399.0752 761.2256 421.5352 749.0256C433.7452 742.6756 446.4352 736.3256 460.1152 730.4656C436.6752 785.6456 394.1952 828.6156 394.1952 910.6456C394.1952 956.5456 408.3552 991.6956 439.1152 1030.7656C465.4852 1064.4556 518.7052 1030.2756 490.3852 992.6756ZM326.8052 383.3056C316.0652 398.9256 325.3452 420.8956 346.8252 420.8956H399.0752C401.0252 553.7156 462.5552 580.0756 473.2952 642.5756C455.2252 648.9256 437.1652 655.7656 419.5852 663.0856C409.8152 666.9956 404.9352 666.5056 397.6152 657.2256L99.7552 277.8356C90.4852 265.1356 91.9452 253.9056 105.1252 244.6256C273.0952 138.6756 487.9452 78.6156 708.1552 78.6156C927.8852 78.6156 1143.2152 138.6756 1311.1852 244.6256C1323.8752 253.9056 1325.8352 265.1356 1316.0652 277.8356L1075.8352 584.4756C1054.3452 536.6256 1019.1952 499.5156 1017.2352 420.8956H1068.9952C1090.4852 420.8956 1100.2452 398.9256 1089.0152 383.3056L1007.4752 262.2056C1001.6152 253.4156 994.2852 249.0256 985.0152 249.0256C975.7352 249.0256 968.4152 253.4156 962.5552 262.2056L881.0052 383.3056C870.2652 398.9256 879.5452 420.8956 901.0252 420.8956H953.2752C955.2252 556.1556 1018.7052 581.0556 1027.4952 645.5056L1021.1452 653.8056C1011.8652 666.0156 1006.0052 666.9956 993.8052 662.1056C932.2752 636.2256 868.3152 617.1856 807.2752 606.9356C788.2352 546.3856 742.3352 511.2256 739.8952 420.8956H792.1452C813.6252 420.8956 822.9052 398.9256 812.1652 383.3056L730.6152 262.2056C724.7552 253.4156 717.4352 249.0256 708.1552 249.0256C698.8752 249.0256 691.5552 253.4156 685.6952 262.2056L603.6652 383.3056C592.9252 398.9256 602.1952 420.8956 623.6852 420.8956H675.9352C677.8852 519.0456 711.5752 559.0856 733.5452 598.6356C724.7552 598.1456 716.4552 597.6556 708.1552 597.6556C655.4252 597.6556 595.8552 606.4456 534.8152 623.0456C519.6852 552.2456 465.4852 519.0456 463.0352 420.8956H515.2852C536.7752 420.8956 546.0452 398.9256 535.3052 383.3056L453.2752 262.2056C447.4152 253.4156 440.0952 249.0256 430.8152 249.0256C421.5352 249.0256 414.2152 253.4156 408.3552 262.2056Z"/>
</svg>