<?xml version="1.0" encoding="UTF-8" standalone="no"?>
<svg xmlns="http://www.w3.org/2000/svg"
     width="1196.2890625" height="944.1460906111745"
     viewBox="0 0 1196.2890625 944.1460906111745"
     fill="currentColor">
  <path d="M1133.2983 158.0092C1153.3183 146.2992 1159.6683 119.9292 1142.0883 98.9292C1105.9583 54.4992 1058.5983 20.3192 1008.2983 3.7192C979.9783 -6.5408 955.5683 5.1792 950.6883 29.5992C945.7983 51.0792 959.4683 69.1492 980.4683 76.9592C1019.0383 90.6292 1052.7383 114.5592 1079.5883 146.7792C1093.7483 163.8692 1114.7483 169.2392 1133.2983 158.0092ZM62.9883 158.0092C81.5383 169.2392 102.5383 163.8692 116.6983 146.7792C143.5583 114.5592 177.2483 90.6292 215.8183 76.9592C236.8183 69.1492 249.9983 51.0792 245.6083 29.5992C240.2383 5.1792 216.3083 -6.5408 187.4983 3.7192C137.6983 20.3192 90.3283 54.4992 54.1983 98.9292C36.6183 119.9292 42.9683 146.2992 62.9883 158.0092ZM542.4783 157.0392C562.4983 145.3192 567.3783 119.4392 550.2883 98.4392C514.1583 54.0092 466.7983 20.3192 417.4783 4.2092C386.7183 -7.0308 363.7683 7.1392 359.3783 30.5692C355.9583 51.5692 368.1683 69.1492 389.1583 76.9592C427.2483 90.6292 460.9383 114.5592 487.3083 146.2992C502.9283 164.8492 523.4383 168.2692 542.4783 157.0392ZM653.8083 157.0392C672.8483 168.2692 692.8683 164.8492 708.9883 146.2992C734.8683 114.5592 769.0383 90.6292 806.6383 76.9592C828.1283 69.1492 840.3283 51.5692 836.4283 30.5692C832.5183 7.1392 809.5683 -7.0308 778.8083 4.2092C729.4883 20.3192 681.6383 54.0092 645.5083 98.4392C628.9083 119.4392 633.2983 145.3192 653.8083 157.0392ZM598.1483 421.6892C619.6283 421.6892 637.2083 403.6192 637.2083 382.1392V257.6192C637.2083 236.1392 619.6283 218.5592 598.1483 218.5592C576.6583 218.5592 558.5983 236.1392 558.5983 257.6192V382.1392C558.5983 403.6192 576.6583 421.6892 598.1483 421.6892ZM153.3183 944.1492H1042.9683C1145.5083 944.1492 1196.2883 893.3692 1196.2883 792.7792V426.5692C1196.2883 325.9792 1145.5083 275.1992 1042.9683 275.1992H709.4683V353.8092H1041.5083C1089.8483 353.8092 1117.6783 379.6892 1117.6783 430.4692V788.3892C1117.6783 839.1692 1089.8483 865.5292 1041.5083 865.5292H154.2983C105.4683 865.5292 78.6183 839.1692 78.6183 788.3892V430.4692C78.6183 379.6892 105.4683 353.8092 154.2983 353.8092H486.8183V275.1992H153.3183C51.2683 275.1992 -0.0017 325.4892 -0.0017 426.5692V792.7792C-0.0017 893.3692 51.2683 944.1492 153.3183 944.1492ZM598.1483 690.2392C619.6283 690.2392 637.2083 672.6592 637.2083 651.1792V526.6692C637.2083 505.1792 619.6283 487.1192 598.1483 487.1192C576.6583 487.1192 558.5983 505.1792 558.5983 526.6692V651.1792C558.5983 672.6592 576.6583 690.2392 598.1483 690.2392Z"/>
</svg>