<?xml version="1.0" encoding="UTF-8" standalone="no"?>
<svg xmlns="http://www.w3.org/2000/svg"
     width="1261.71875" height="812.01171875"
     viewBox="0 0 1261.71875 812.01171875"
     fill="currentColor">
  <path d="M-0.0017 771.4891C-0.0017 793.9491 18.5583 812.0091 40.5283 812.0091H1221.1883C1243.6483 812.0091 1261.7183 793.9491 1261.7183 771.4891C1261.7183 749.0191 1243.6483 730.9591 1221.1883 730.9591H1194.8283V72.7491C1194.8283 29.2991 1165.0383 -0.0009 1119.6283 -0.0009H140.6283C95.6983 -0.0009 65.4283 29.2991 65.4283 72.7491V730.9591H40.5283C18.5583 730.9591 -0.0017 749.0191 -0.0017 771.4891ZM144.5283 374.0191V92.2891C144.5283 84.4691 149.4183 78.6091 156.7383 78.6091H598.1483V374.0191ZM662.1083 374.0191V78.6091H1104.0083C1111.3283 78.6091 1116.2083 84.4691 1116.2083 92.2891V374.0191ZM144.5283 730.9591V437.9891H598.1483V730.9591ZM662.1083 730.9591V437.9891H1116.2083V730.9591Z"/>
</svg>