<?xml version="1.0" encoding="UTF-8" standalone="no"?>
<svg xmlns="http://www.w3.org/2000/svg"
     width="835.44921875" height="1036.1328125"
     viewBox="0 0 835.44921875 1036.1328125"
     fill="currentColor">
  <path d="M-0.0017 936.5255C-0.0017 996.0955 41.0183 1036.1355 102.0483 1036.1355H733.3983C794.9183 1036.1355 835.4483 996.0955 835.4483 936.5255V99.6055C835.4483 40.0355 794.9183 -0.0045 733.3983 -0.0045H102.0483C41.0183 -0.0045 -0.0017 40.0355 -0.0017 99.6055ZM78.6183 931.6455V104.4955C78.6183 88.8655 88.8683 78.6155 103.5183 78.6155H731.9383C747.0683 78.6155 756.8383 88.8655 756.8383 104.4955V931.6455C756.8383 947.2655 747.0683 957.5155 731.9383 957.5155H103.5183C88.8683 957.5155 78.6183 947.2655 78.6183 931.6455ZM152.3483 302.2455H683.5983C692.8683 302.2455 700.1983 294.9255 700.1983 286.1355V151.8555C700.1983 142.5755 692.8683 135.2555 683.5983 135.2555H152.3483C143.0683 135.2555 135.7383 142.5755 135.7383 151.8555V286.1355C135.7383 294.9255 143.0683 302.2455 152.3483 302.2455ZM343.7483 242.1855C329.5883 242.1855 319.8283 232.9055 319.8283 218.7455C319.8283 204.5855 329.5883 195.3155 343.7483 195.3155H492.1883C506.3483 195.3155 515.6283 204.5855 515.6283 218.7455C515.6283 232.9055 506.3483 242.1855 492.1883 242.1855Z"/>
</svg>