<?xml version="1.0" encoding="UTF-8" standalone="no"?>
<svg xmlns="http://www.w3.org/2000/svg"
     width="1479.00390625" height="1003.8735362727191"
     viewBox="0 0 1479.00390625 1003.8735362727191"
     fill="currentColor">
  <path d="M153.3183 741.1798H462.8883L511.7183 824.6698C496.5783 843.7198 487.3083 867.6398 487.3083 894.0098C487.3083 954.5598 536.6183 1003.8698 597.1683 1003.8698C657.2283 1003.8698 707.5183 954.0698 707.5183 894.0098C707.5183 832.9798 657.7183 783.6598 597.1683 783.6598C591.3083 783.6598 585.4483 784.1498 579.5883 784.6398L554.1983 741.1798H1042.9683C1145.5083 741.1798 1196.2883 690.3998 1196.2883 589.8098V223.5998C1196.2883 123.0098 1145.5083 72.2298 1042.9683 72.2298H165.0383L134.2783 19.4998C124.0283 1.4298 101.5583 -5.8902 79.5883 5.3398C59.5683 15.0998 55.1783 40.4898 66.4083 59.0498L80.5683 83.9498C26.8583 103.9698 -0.0017 150.3598 -0.0017 223.5998V589.8098C-0.0017 690.3998 51.2683 741.1798 153.3183 741.1798ZM1041.5083 150.8498C1089.8483 150.8498 1117.6783 177.2098 1117.6783 227.9898V585.4198C1117.6783 636.1998 1089.8483 662.5698 1041.5083 662.5698H508.7883L210.9383 150.8498ZM154.2983 662.5698C105.4683 662.5698 78.6183 636.1998 78.6183 585.4198V227.9898C78.6183 189.4198 93.7483 165.4898 122.5583 155.7298L416.9883 662.5698ZM1415.0383 609.8298C1438.9683 609.8298 1455.5683 593.2298 1456.5383 568.3298L1466.7983 222.6198C1467.7783 191.3698 1446.7783 170.3798 1415.0383 170.3798C1382.8083 170.3798 1361.8183 191.3698 1362.7883 222.6198L1373.0483 568.3298C1374.0283 593.2298 1391.1183 609.8298 1415.0383 609.8298ZM1415.0383 826.6298C1449.7083 826.6298 1479.0083 798.3098 1479.0083 765.0998C1479.0083 731.4098 1450.1983 703.5798 1415.0383 703.5798C1379.3983 703.5798 1350.5883 731.4098 1350.5883 765.0998C1350.5883 798.3098 1379.8783 826.6298 1415.0383 826.6298ZM597.1683 938.9298C572.2683 938.9298 551.7583 918.4198 551.7583 894.0098C551.7583 868.6198 572.2683 847.6198 597.1683 847.6198C622.0683 847.6198 643.0683 868.6198 643.0683 894.0098C643.0683 918.4198 622.0683 938.9298 597.1683 938.9298Z"/>
</svg>