<?xml version="1.0" encoding="UTF-8" standalone="no"?>
<svg xmlns="http://www.w3.org/2000/svg"
     width="1196.2890625" height="1024.4140625"
     viewBox="0 0 1196.2890625 1024.4140625"
     fill="currentColor">
  <path d="M797.8483 464.8406C893.5583 464.8406 957.0283 402.8306 957.0283 310.0606C957.0283 263.6706 937.4983 223.1406 923.8283 193.3606C898.9283 138.6706 856.9383 70.8006 821.7783 15.6206C814.9383 5.3706 807.1283 0.0006 797.8483 0.0006C788.0883 0.0006 780.7583 5.3706 773.9283 15.6206C738.2783 70.8006 696.7783 138.6706 671.3883 193.3606C657.7183 223.1406 638.1883 263.6706 638.1883 310.0606C638.1883 402.8306 702.1483 464.8406 797.8483 464.8406ZM153.3183 764.1606H462.8883L510.7383 846.1906C496.0983 865.2306 487.3083 888.6706 487.3083 914.5506C487.3083 974.6106 536.6183 1024.4106 597.1683 1024.4106C657.2283 1024.4106 707.5183 974.6106 707.5183 914.5506C707.5183 853.5106 657.7183 803.7106 597.1683 803.7106C590.8183 803.7106 584.9583 804.2006 578.6183 805.6606L554.6883 764.1606H1042.9683C1145.5083 764.1606 1196.2883 713.3806 1196.2883 612.7906V244.1406C1196.2883 143.5506 1145.5083 92.7706 1042.9683 92.7706H946.7783C960.9383 118.6506 975.5883 146.4806 987.3083 171.3906H1041.5083C1089.8483 171.3906 1117.6783 197.2606 1117.6783 248.0506V608.8906C1117.6783 659.6706 1089.8483 685.5506 1041.5083 685.5506H508.7883L208.0083 171.3906H608.3983C620.1183 146.0006 634.7683 118.6506 648.4383 92.7706H162.1083L131.3483 40.0406C121.0983 21.9706 98.6283 14.6506 76.6583 25.8806C56.6383 35.6406 52.2483 61.0306 62.9883 79.5906L78.1283 105.4706C26.3683 125.9806 -0.0017 172.3606 -0.0017 244.1406V612.7906C-0.0017 713.8706 51.2683 764.1606 153.3183 764.1606ZM154.2983 685.5506C105.4683 685.5506 78.6183 659.6706 78.6183 608.8906V248.0506C78.6183 210.9406 93.2583 187.0106 120.1183 177.2506L416.9883 685.5506ZM597.1683 958.9806C572.2683 958.9806 551.7583 938.9606 551.7583 914.5506C551.7583 889.1606 572.2683 868.1606 597.1683 868.1606C622.0683 868.1606 643.0683 889.1606 643.0683 914.5506C643.0683 938.9606 622.0683 958.9806 597.1683 958.9806Z"/>
</svg>