<?xml version="1.0" encoding="UTF-8" standalone="no"?>
<svg xmlns="http://www.w3.org/2000/svg"
     width="1415.9137702302585" height="1003.3852550227191"
     viewBox="0 0 1415.9137702302585 1003.3852550227191"
     fill="currentColor">
  <path d="M708.1552 715.2998C804.3452 715.2998 916.6552 744.1098 1000.1452 788.0498C1022.6152 799.7698 1047.5152 795.3798 1062.1652 776.3298L1394.6852 352.5098C1427.3952 310.5098 1422.0252 266.0798 1380.5252 233.8498C1244.2852 128.3898 983.0552 46.8398 708.1552 46.8398C561.6752 46.8398 419.0952 70.2798 297.0252 107.8798L245.7552 19.4998C235.5052 1.4298 213.0352 -5.8902 191.0652 5.3398C171.0452 15.0998 166.6552 40.4898 177.3952 59.0498L220.8552 133.7598C147.1252 162.5698 83.6452 196.7398 35.3052 233.8498C-6.1948 266.0798 -11.5648 310.5098 21.6352 352.5098L354.1552 776.3298C368.8052 795.3798 393.2152 799.7698 415.6752 788.0498C460.5952 764.6198 514.3052 745.0798 568.9952 732.3898L622.2152 824.1898C607.0852 843.2298 598.2952 867.1598 598.2952 893.5198C598.2952 954.0698 647.1252 1003.3898 708.1552 1003.3898C767.7252 1003.3898 818.0252 953.5798 818.0252 893.5198C818.0252 832.4898 768.2152 783.1698 708.1552 783.1698C702.2952 783.1698 696.4352 783.6598 690.5752 784.1498L652.0052 718.2298C671.0452 716.2798 690.0952 715.2998 708.1552 715.2998ZM708.1552 636.6898C676.9052 636.6898 643.7052 639.6198 609.5252 644.9898L340.4852 182.5798C456.2052 145.4798 581.2052 125.4598 708.1552 125.4598C927.8852 125.4598 1143.2152 185.5098 1311.1852 291.4698C1324.3652 300.7498 1325.8352 311.9798 1316.0652 324.6698L1027.4952 692.3498C1017.7252 704.5598 1012.3552 705.5298 1000.1452 700.6498C900.5352 660.1198 797.0252 636.6898 708.1552 636.6898ZM388.8252 692.3498L99.7552 324.6698C90.4852 311.9798 91.9452 300.7498 105.1252 291.4698C154.9352 260.2198 208.6452 232.8798 265.2852 209.9298L528.4652 662.5698C490.8752 672.8198 453.2752 685.5098 416.1652 700.6498C403.9552 705.5298 398.5852 704.5598 388.8252 692.3498ZM708.1552 938.4398C682.7652 938.4398 662.7452 917.9398 662.7452 893.5198C662.7452 868.1298 682.7652 847.1398 708.1552 847.1398C732.5752 847.1398 754.0552 868.1298 754.0552 893.5198C754.0552 917.9398 732.5752 938.4398 708.1552 938.4398Z"/>
</svg>