<?xml version="1.0" encoding="UTF-8" standalone="no"?>
<svg xmlns="http://www.w3.org/2000/svg"
     width="1415.9137702302585" height="975.308185800874"
     viewBox="0 0 1415.9137702302585 975.308185800874"
     fill="currentColor">
  <path d="M1243.3152 158.2994C1263.3352 146.0894 1269.6852 120.2094 1252.1052 98.7294C1215.9652 54.2894 1168.6052 20.5994 1118.3152 3.5094C1089.5052 -6.2506 1065.5752 4.9794 1060.6952 29.3894C1055.8152 51.3594 1069.4852 69.4294 1090.4852 77.2394C1129.0552 90.9094 1162.7452 114.8394 1189.1152 146.5794C1203.7652 163.6694 1224.7552 169.0394 1243.3152 158.2994ZM173.0052 158.2994C191.5552 169.0394 212.5552 163.6694 226.7152 146.5794C253.5652 114.8394 287.2552 90.9094 325.8352 77.2394C346.8252 69.4294 360.0152 51.3594 355.6152 29.3894C350.2452 4.9794 326.3252 -6.2506 297.5152 3.5094C247.7052 20.5994 200.3452 54.2894 164.2152 98.7294C146.6352 120.2094 152.9852 146.0894 173.0052 158.2994ZM652.4952 157.3194C672.5152 145.1094 677.3952 119.7194 660.3052 98.2394C624.1752 53.8094 576.8052 20.5994 527.4952 3.9994C496.7352 -6.7406 473.7852 6.9294 469.3852 30.3694C465.9652 51.8494 478.1752 69.4294 499.1752 77.2394C537.2552 90.9094 570.9452 114.8394 597.3152 146.0894C612.9452 164.6494 633.4452 168.0594 652.4952 157.3194ZM763.8252 157.3194C782.8652 168.0594 802.8852 164.6494 818.9952 146.0894C844.8752 114.8394 878.5652 90.9094 916.6552 77.2394C938.1352 69.4294 950.3452 51.8494 946.4352 30.3694C942.5352 6.9294 919.5852 -6.7406 888.8252 3.9994C839.5052 20.5994 791.6552 53.8094 755.5252 98.2394C738.9152 119.7194 743.3152 145.1094 763.8252 157.3194ZM708.1552 429.7794C729.6452 429.7794 747.2152 412.1994 747.2152 390.7194V265.7194C747.2152 244.2394 729.6452 226.6594 708.1552 226.6594C686.6752 226.6594 668.6052 244.2394 668.6052 265.7194V390.7194C668.6052 412.1994 686.6752 429.7794 708.1552 429.7794ZM708.1552 896.0894C804.3452 896.0894 916.6552 924.8994 1000.1452 968.8394C1022.6152 980.5594 1047.5152 976.1694 1062.1652 957.1294L1394.6852 533.2994C1427.3952 491.3094 1422.0252 446.8694 1380.5252 414.6494C1262.3552 323.8194 1051.4152 250.0894 819.4852 232.5194V311.6194C999.1752 327.7294 1171.5352 384.3694 1311.1852 472.7494C1324.3652 481.5394 1325.8352 492.7694 1316.0652 505.4694L1027.4952 873.1394C1017.7252 885.3494 1012.3552 886.3294 1000.1452 881.4394C900.5352 840.9094 797.0252 817.4794 708.1552 817.4794C618.8052 817.4794 515.7752 840.9094 416.1652 881.4394C403.9552 886.3294 398.5852 885.3494 388.8252 873.1394L99.7552 505.4694C90.4852 492.7694 91.9452 481.5394 105.1252 472.7494C244.2852 384.3694 417.1452 327.7294 596.8252 311.6194V232.0294C364.8952 250.0894 153.4652 323.3394 35.3052 414.6494C-6.1948 446.8694 -11.5648 491.3094 21.6352 533.2994L354.1552 957.1294C368.8052 976.1694 393.2152 980.5594 415.6752 968.8394C499.1752 924.8994 611.9652 896.0894 708.1552 896.0894ZM708.1552 698.8194C729.6452 698.8194 747.2152 680.7594 747.2152 659.2694V534.7594C747.2152 513.2794 729.6452 495.2094 708.1552 495.2094C686.6752 495.2094 668.6052 513.2794 668.6052 534.7594V659.2694C668.6052 680.7594 686.6752 698.8194 708.1552 698.8194Z"/>
</svg>