<?xml version="1.0" encoding="UTF-8" standalone="no"?>
<svg xmlns="http://www.w3.org/2000/svg"
     width="1152.83203125" height="1161.4312468611743"
     viewBox="0 0 1152.83203125 1161.4312468611743"
     fill="currentColor">
  <path d="M61.5283 154.5959C80.0783 166.3159 101.0783 160.9459 115.2383 143.8559C141.1183 113.5759 172.8483 90.1459 209.4683 77.9359C230.4683 69.1459 243.6483 51.0759 239.2583 29.5959C233.8883 5.1859 209.9583 -6.5341 181.6383 3.7159C133.2983 19.3459 87.3983 52.5459 52.7383 95.5159C34.6683 116.5059 41.5083 142.8759 61.5283 154.5959ZM1091.3083 154.5959C1111.3283 142.8759 1118.1683 116.5059 1100.0983 95.5159C1065.4283 52.5459 1019.5283 19.3459 971.1883 3.7159C942.8683 -6.5341 918.9483 5.1859 913.5783 29.5959C908.6883 51.0759 922.3683 69.1459 943.3583 77.9359C979.9783 90.1459 1011.7183 113.5759 1037.5983 143.8559C1051.7583 160.9459 1072.7583 166.3159 1091.3083 154.5959ZM523.9283 153.6159C543.9483 141.8959 548.3383 116.0259 532.2283 95.0259C497.0683 52.0559 451.1683 19.3459 403.3183 4.2059C373.0483 -7.0241 350.0983 7.1359 345.2183 30.5759C342.2883 51.5659 354.0083 69.1459 375.4883 77.9359C411.1283 90.1459 443.3583 113.5759 468.7483 143.3659C483.8883 161.9159 504.3983 164.8459 523.9283 153.6159ZM628.9083 153.6159C647.9483 164.8459 668.4583 161.9159 684.0783 143.3659C708.9883 113.5759 741.2083 90.1459 777.3483 77.9359C798.8283 69.1459 810.5483 51.5659 807.6183 30.5759C802.7383 7.1359 779.7883 -7.0241 749.5083 4.2059C701.6583 19.3459 655.2783 52.0559 620.6083 95.0259C604.4883 116.0259 608.3983 141.8959 628.9083 153.6159ZM148.9283 904.1059H442.3783L491.2083 987.6059C477.0483 1006.1559 468.2583 1029.1059 468.2583 1054.0059C468.2583 1113.0959 516.5983 1161.4359 575.1983 1161.4359C633.7883 1161.4359 683.1083 1112.6059 683.1083 1054.0059C683.1083 994.9259 634.2783 946.5859 575.1983 946.5859C569.8283 946.5859 564.4483 946.5859 559.5683 947.5659L534.1783 904.1059H1003.9083C1103.0283 904.1059 1152.8283 854.7859 1152.8283 757.1359V420.2159C1152.8283 323.0559 1103.0283 273.2459 1003.9083 273.2459H681.1483V351.8559H1002.9283C1048.3383 351.8559 1074.2183 376.2759 1074.2183 424.6159V752.7359C1074.2183 801.0759 1048.3383 825.4959 1002.9283 825.4959H488.2783L212.3983 351.8559H471.6783V273.2459H166.5083L139.1583 226.3759C128.9083 208.3059 106.9383 201.4659 84.9583 211.7259C64.9383 222.4659 60.5483 247.3659 71.2883 265.9259L81.5383 283.5059C27.3483 302.5459 -0.0017 348.4459 -0.0017 420.2159V757.1359C-0.0017 854.7859 50.2883 904.1059 148.9283 904.1059ZM576.1683 408.0159C597.6583 408.0159 615.7183 390.4359 615.7183 368.9459V248.8359C615.7183 227.3459 597.6583 209.2859 576.1683 209.2859C555.1783 209.2859 536.6183 227.3459 536.6183 248.8359V368.9459C536.6183 390.4359 555.1783 408.0159 576.1683 408.0159ZM149.8983 825.4959C103.5183 825.4959 78.6183 801.0759 78.6183 752.7359V424.6159C78.6183 386.5259 94.2383 363.0959 123.5383 355.2759L396.9683 825.4959ZM576.1683 666.3159C597.6583 666.3159 615.7183 648.2459 615.7183 626.7659V507.1359C615.7183 485.6459 597.6583 467.0959 576.1683 467.0959C555.1783 467.0959 536.6183 485.6459 536.6183 507.1359V626.7659C536.6183 648.2459 555.1783 666.3159 576.1683 666.3159ZM575.1983 1095.5159C552.2483 1095.5159 533.6883 1076.9559 533.6883 1054.0059C533.6883 1030.5759 552.2483 1011.5259 575.1983 1011.5259C598.6283 1011.5259 617.6783 1030.5759 617.6783 1054.0059C617.6783 1076.9559 598.6283 1095.5159 575.1983 1095.5159Z"/>
</svg>