<?xml version="1.0" encoding="UTF-8" standalone="no"?>
<svg xmlns="http://www.w3.org/2000/svg"
     width="1002.3850661057693" height="866.2109375"
     viewBox="0 0 1002.3850661057693 866.2109375"
     fill="currentColor">
  <path d="M44.3737 293.4563C114.6937 270.9963 187.4437 259.2763 256.7837 259.2763C346.6237 259.2763 412.5437 273.9263 497.5037 273.9263C585.3937 273.9263 640.0837 214.3563 640.0837 136.7162C640.0837 57.1263 579.0437 -0.0037 503.8537 -0.0037C448.1837 -0.0037 399.3537 35.1563 378.8537 81.5462C371.0337 97.6563 373.9637 116.2062 391.0537 124.9963C406.6837 132.8162 425.7237 127.9262 435.9837 108.3963C446.7237 83.4963 473.0837 63.9662 503.8537 63.9662C544.3737 63.9662 576.1137 92.2863 576.1137 136.7162C576.1137 181.1563 545.3537 210.4462 497.5037 210.4462C416.4437 210.4462 349.5537 195.7962 256.7837 195.7962C177.1937 195.7962 96.6237 209.9562 24.8437 232.9063C4.3337 238.7663 -3.4763 256.3463 1.4037 272.9462C6.2937 290.0363 22.4037 299.8063 44.3737 293.4563ZM808.0537 521.9762C921.8237 521.9762 1002.3837 449.7063 1002.3837 348.6363C1002.3837 249.0263 925.7237 176.7563 830.5137 176.7563C742.1337 176.7563 676.7037 238.2763 664.9837 318.8463C662.0537 339.3563 673.2837 355.4663 690.8637 357.9063C708.9237 360.3563 724.5537 349.1163 728.4637 326.1763C736.7637 274.9063 779.2437 240.2363 830.5137 240.2363C890.0837 240.2363 938.4237 284.6663 938.4237 348.6363C938.4237 413.5763 887.1537 458.4963 808.0537 458.4963C659.1237 458.4963 498.4837 373.5363 303.1637 373.5363C202.5837 373.5363 110.7837 389.6463 24.8437 419.9263C4.8237 427.2463 -3.4763 444.3363 1.4037 460.9363C6.2937 478.0263 22.8937 488.2763 44.3737 480.9563C123.9637 450.6863 206.9737 437.4963 303.1637 437.4963C497.9937 437.4963 643.4937 521.9762 808.0537 521.9762ZM497.9937 866.2063C573.1837 866.2063 631.2937 810.5463 631.2937 730.9563C631.2937 615.7262 513.6137 551.2663 296.8237 551.2663C205.9937 551.2663 107.8537 568.8463 24.8437 597.1663C4.8237 604.4963 -3.4763 621.5863 1.4037 638.1863C6.2937 655.2763 22.8937 665.5263 44.3737 658.2063C122.0137 630.3663 208.9237 615.2363 296.8237 615.2363C474.0637 615.2363 567.8137 659.6663 567.8137 730.9563C567.8137 775.3863 536.5637 802.7363 497.9937 802.7363C459.4137 802.7363 435.9837 776.8563 429.1437 735.8362C426.2137 717.7763 413.0337 702.6363 392.0337 704.1063C370.0637 705.5663 361.2737 724.1163 364.2037 744.1363C372.9937 812.0163 423.2837 866.2063 497.9937 866.2063Z"/>
</svg>