<?xml version="1.0" encoding="UTF-8" standalone="no"?>
<svg xmlns="http://www.w3.org/2000/svg"
     width="1065.8604889460196" height="966.30859375"
     viewBox="0 0 1065.8604889460196 966.30859375"
     fill="currentColor">
  <path d="M92.2595 966.3109H753.3895C800.2595 966.3109 831.9995 939.9409 843.7195 896.4809L1060.5195 115.7209C1080.0495 45.9009 1044.8895 0.0009 973.5995 0.0009H312.4695C265.5995 0.0009 234.3495 26.3709 222.1395 69.3309L5.3395 850.5909C-14.1905 919.9209 20.9695 966.3109 92.2595 966.3109ZM200.1695 437.5009L291.9595 109.8609C297.3395 89.8409 310.0295 79.1009 329.5595 79.1009H603.9795L503.8795 437.5009ZM583.9595 437.5009L684.5395 79.1009H958.4695C978.9795 79.1009 987.7595 89.3509 982.3895 108.8909L890.5995 437.5009ZM83.4695 857.4209L179.1695 515.1409H482.3895L378.3895 887.2109H107.3895C86.8895 887.2109 78.0995 876.9509 83.4695 857.4209ZM459.4395 887.2109L562.9595 515.1409H869.1095L773.8995 856.4409C768.5295 875.9809 755.8295 887.2109 736.2995 887.2109Z"/>
</svg>