<?xml version="1.0" encoding="UTF-8" standalone="no"?>
<svg xmlns="http://www.w3.org/2000/svg"
     width="1658.4402861516578" height="1003.3852550227191"
     viewBox="0 0 1658.4402861516578 1003.3852550227191"
     fill="currentColor">
  <path d="M707.7548 715.2998C803.9448 715.2998 916.7448 744.1098 1000.2348 788.0498C1022.6948 799.7698 1047.1148 795.3798 1061.7648 776.3298L1394.2848 352.5098C1427.4848 310.5098 1422.1148 266.0798 1380.6048 233.8498C1243.8848 128.3898 982.6548 46.8398 707.7548 46.8398C561.2748 46.8398 418.6948 70.2798 296.6248 107.8798L245.3548 19.4998C235.1048 1.4298 212.6348 -5.8902 190.6648 5.3398C170.6448 15.0998 166.2548 40.4898 176.9948 59.0498L220.9448 133.7598C146.7248 162.5698 83.2448 196.7398 35.3948 233.8498C-6.1152 266.0798 -11.4852 310.5098 21.2348 352.5098L353.7548 776.3298C368.4048 795.3798 393.3048 799.7698 415.7648 788.0498C460.6848 764.6198 513.9048 745.0798 568.5948 732.3898L622.3048 824.1898C607.1748 843.2298 597.8948 867.1598 597.8948 893.5198C597.8948 954.0698 647.2148 1003.3898 707.7548 1003.3898C767.8148 1003.3898 817.6248 953.5798 817.6248 893.5198C817.6248 832.4898 768.3048 783.1698 707.7548 783.1698C701.8948 783.1698 696.0348 783.6598 690.1748 784.1498L652.0948 718.2298C671.1348 716.2798 689.6948 715.2998 707.7548 715.2998ZM707.7548 636.6898C676.5048 636.6898 643.3048 639.6198 609.1248 644.9898L340.5648 182.5798C455.8048 145.4798 581.2948 125.4598 707.7548 125.4598C927.4848 125.4598 1142.8148 185.5098 1310.7848 291.4698C1323.9648 300.7498 1325.4348 311.9798 1316.1548 324.6698L1027.0948 692.3498C1017.3248 704.5598 1011.9548 705.5298 999.7448 700.6498C900.1348 660.1198 797.1148 636.6898 707.7548 636.6898ZM1594.4748 609.8298C1618.4048 609.8298 1635.0048 593.2298 1635.9748 568.3298L1646.2348 222.6198C1647.2148 191.3698 1626.7048 170.3798 1594.4748 170.3798C1562.2448 170.3798 1541.2548 191.3698 1542.2248 222.6198L1552.4848 568.3298C1553.4648 593.2298 1570.5448 609.8298 1594.4748 609.8298ZM388.4248 692.3498L99.8448 324.6698C90.0848 311.9798 92.0348 300.7498 104.7248 291.4698C154.5348 260.2198 208.2448 232.8798 264.8848 209.9298L528.0648 662.5698C490.9648 672.8198 453.3648 685.5098 415.7648 700.6498C403.5548 705.5298 398.1848 704.5598 388.4248 692.3498ZM1594.4748 826.6298C1629.1448 826.6298 1658.4448 798.3098 1658.4448 765.0998C1658.4448 731.4098 1629.6348 703.5798 1594.4748 703.5798C1558.8348 703.5798 1530.5148 731.4098 1530.5148 765.0998C1530.5148 798.3098 1559.3148 826.6298 1594.4748 826.6298ZM707.7548 938.4398C682.8548 938.4398 662.3448 917.9398 662.3448 893.5198C662.3448 868.1298 682.8548 847.1398 707.7548 847.1398C732.6548 847.1398 753.6548 868.1298 753.6548 893.5198C753.6548 917.9398 732.6548 938.4398 707.7548 938.4398Z"/>
</svg>