<?xml version="1.0" encoding="UTF-8" standalone="no"?>
<svg xmlns="http://www.w3.org/2000/svg"
     width="996.09375" height="996.09375"
     viewBox="0 0 996.09375 996.09375"
     fill="currentColor">
  <path d="M498.0477 996.0977C770.5077 996.0977 996.0977 770.5077 996.0977 498.0477C996.0977 226.0777 770.0177 -0.0023 497.5577 -0.0023C225.5877 -0.0023 -0.0023 226.0777 -0.0023 498.0477C-0.0023 770.5077 226.0777 996.0977 498.0477 996.0977ZM219.7277 416.9877C203.6177 421.8777 189.4577 414.0577 186.0377 400.3877C181.1477 387.2077 187.4977 372.5577 204.0977 368.1677C249.5077 354.0077 300.2977 344.2377 350.0977 344.2377C408.6877 344.2377 450.1977 353.5177 500.9777 353.5177C527.8277 353.5177 543.9477 338.3777 543.9477 313.4777C543.9477 288.0877 526.8577 273.4377 504.8877 273.4377C487.3077 273.4377 473.6377 284.1777 467.2877 298.3377C459.4777 313.9677 444.3377 317.8677 432.1277 311.5277C417.9677 305.1777 415.5277 289.0577 421.3877 277.3477C434.5677 246.0977 467.2877 222.6577 504.8877 222.6577C554.1977 222.6577 595.7077 260.7377 595.7077 313.4777C595.7077 365.2377 558.1077 404.2977 500.9777 404.2977C447.2677 404.2977 405.7577 395.9977 350.0977 395.9977C306.6377 395.9977 262.6977 402.3477 219.7277 416.9877ZM693.8477 559.5677C589.8477 559.5677 499.5077 506.3477 379.3977 506.3477C319.8277 506.3477 269.0477 514.6477 220.2177 533.2077C203.6177 539.0577 189.4577 531.2477 186.0377 517.0877C181.1477 504.3977 187.9877 490.2377 203.6177 484.3777C257.8077 465.8177 316.4077 454.5877 379.3977 454.5877C502.4377 454.5877 602.5377 507.8077 693.8477 507.8077C740.7277 507.8077 769.5277 483.8877 769.5277 445.7977C769.5277 408.2077 742.6777 383.7877 708.0077 383.7877C678.2277 383.7877 654.7877 403.3177 650.3877 433.1077C646.9777 450.1977 634.2777 459.4677 620.1177 457.5177C606.4477 455.5677 596.1877 442.8677 599.6077 425.7777C606.4477 373.0477 650.3877 332.5177 708.0077 332.5177C770.5077 332.5177 820.7977 380.3677 820.7977 445.7977C820.7977 511.7177 768.0677 559.5677 693.8477 559.5677ZM500.9777 773.4377C451.1677 773.4377 416.9877 737.7977 411.6177 692.8677C409.6677 678.7077 416.5077 662.5977 435.0577 661.6177C451.1677 660.1577 461.9177 672.8477 463.8677 685.5477C467.7777 709.9577 479.4877 722.6577 500.9777 722.6577C522.4577 722.6577 538.5777 708.9877 538.5777 683.5977C538.5777 643.0677 484.8677 617.1877 375.4877 617.1877C320.7977 617.1877 268.0677 626.9577 220.2177 644.0477C203.6177 649.8977 189.4577 641.1177 186.0377 627.4377C180.6677 614.7477 188.4777 600.5877 203.1277 595.2177C255.8577 577.1477 318.8477 565.9177 375.4877 565.9177C513.1877 565.9177 589.8477 607.4177 589.8477 683.5977C589.8477 736.8177 550.7777 773.4377 500.9777 773.4377Z"/>
</svg>