<?xml version="1.0" encoding="UTF-8" standalone="no"?>
<svg xmlns="http://www.w3.org/2000/svg"
     width="1462.40234375" height="1036.1328125"
     viewBox="0 0 1462.40234375 1036.1328125"
     fill="currentColor">
  <path d="M258.7883 995.6055C258.7883 1017.5755 276.8583 1036.1355 299.3183 1036.1355H1164.0583C1186.5283 1036.1355 1205.0783 1017.5755 1205.0783 995.6055C1205.0783 988.7655 1203.1283 982.4255 1200.6883 977.0555L1393.5583 993.1655C1439.9383 997.5555 1462.3983 966.3055 1462.3983 926.2655V85.9355C1462.3983 45.8955 1439.9383 15.1355 1393.5583 19.0455L1126.9483 41.5055L1125.9783 32.7155C1115.2383 12.2055 1091.3083 -0.0045 1062.9883 -0.0045H399.4183C370.1183 -0.0045 347.1683 12.2055 336.4283 32.7155L335.4483 41.5055L68.3583 19.0455C22.4583 15.1355 -0.0017 45.8955 -0.0017 85.9355V926.2655C-0.0017 966.3055 22.4583 997.5555 68.3583 993.1655L263.1883 977.0555C260.2583 982.4255 258.7883 988.7655 258.7883 995.6055ZM402.8283 91.7955C402.8283 83.9855 408.1983 78.6155 415.5283 78.6155H709.4683V955.0755H402.8283ZM1046.8783 78.6155C1054.1983 78.6155 1059.0783 83.9855 1059.0783 91.7955V955.0755H773.4383V78.6155ZM74.7083 304.6855V103.0255C74.7083 96.6755 79.0983 94.2355 84.9583 94.7255L324.2183 111.3255V318.8455L83.0083 312.9855C78.1283 312.9855 74.7083 309.0855 74.7083 304.6855ZM1138.1883 318.8455V111.3255L1377.4383 94.7255C1383.2983 94.2355 1387.6983 96.6755 1387.6983 103.0255V304.6855C1387.6983 309.0855 1384.2783 312.9855 1379.3983 312.9855ZM74.7083 615.7255V396.9755C74.7083 392.0855 78.1283 388.6755 83.0083 388.6755L324.2183 394.5355V618.1655L83.0083 624.0255C78.1283 624.0255 74.7083 620.1155 74.7083 615.7255ZM1138.1883 618.1655V394.5355L1378.9083 388.6755C1384.2783 388.6755 1387.6983 392.0855 1387.6983 396.9755V615.7255C1387.6983 620.1155 1384.2783 624.0255 1378.9083 624.0255ZM74.7083 909.1755V708.0055C74.7083 703.6155 78.1283 699.7055 83.0083 699.7055L324.2183 693.8455V901.3655L84.9583 917.9655C79.0983 918.4555 74.7083 916.0155 74.7083 909.1755ZM1138.1883 901.3655V693.8455L1379.3983 699.7055C1384.2783 699.7055 1387.6983 703.6155 1387.6983 708.0055V909.1755C1387.6983 916.0155 1383.2983 918.4555 1377.4383 917.9655Z"/>
</svg>