<?xml version="1.0" encoding="UTF-8" standalone="no"?>
<svg xmlns="http://www.w3.org/2000/svg"
     width="996.09375" height="996.09375"
     viewBox="0 0 996.09375 996.09375"
     fill="currentColor">
  <path d="M498.0477 996.0959C770.5077 996.0959 996.0977 770.0159 996.0977 498.0459C996.0977 225.5859 770.0177 -0.0041 497.5577 -0.0041C225.5877 -0.0041 -0.0023 225.5859 -0.0023 498.0459C-0.0023 770.0159 226.0777 996.0959 498.0477 996.0959ZM498.0477 913.0859C267.5777 913.0859 83.4977 728.5159 83.4977 498.0459C83.4977 267.5759 267.0877 83.0059 497.5577 83.0059C728.0277 83.0059 913.0877 267.5759 913.0877 498.0459C913.0877 728.5159 728.5177 913.0859 498.0477 913.0859ZM683.5977 324.2159C691.4077 324.2159 696.7777 316.8959 696.2877 309.0859L694.8277 279.7859L718.7477 296.3859C725.0977 300.7859 734.3777 298.8259 738.2777 292.4759C743.1677 286.6259 740.7277 276.3659 731.9377 272.4559L706.0577 259.7659L731.9377 246.0959C740.2377 241.6959 742.1877 233.8859 738.7677 227.0459C735.3477 220.2159 725.0977 218.7459 718.7477 222.6559L694.8277 239.7459L696.2877 210.9359C696.7777 202.1459 691.4077 195.3159 683.5977 195.3159C674.8077 195.3159 668.9477 202.1459 669.4377 210.4459L671.3877 239.7459L646.4877 222.6559C640.1377 218.7459 631.3477 219.7259 627.9277 227.0459C624.0277 232.9059 625.4877 241.6959 633.7877 246.5859L659.6677 259.7659L633.7877 272.4559C624.9977 276.3659 624.0277 285.6459 626.9577 291.9959C630.3677 299.3159 640.1377 300.7859 646.4877 296.3859L671.3877 279.7859L669.9177 309.0859C669.4377 316.8959 674.8077 324.2159 683.5977 324.2159ZM209.4777 441.8959C250.9777 428.2259 293.9477 421.3859 335.9377 421.3859C390.1377 421.3859 430.1777 430.1759 482.4177 430.1759C538.0877 430.1759 574.2177 391.6059 574.2177 341.7959C574.2177 290.5259 534.1777 253.9059 486.3277 253.9059C449.7077 253.9059 417.9677 276.3659 405.2777 306.6359C399.8977 318.3559 402.3477 333.9859 416.0177 340.3359C427.7377 346.1959 442.3877 341.7959 449.7077 327.1459C456.0577 313.4759 469.2377 303.2259 486.3277 303.2259C507.8077 303.2259 524.4177 316.8959 524.4177 341.7959C524.4177 366.2059 508.7877 380.8559 482.4177 380.8559C433.1077 380.8559 393.0677 371.5859 335.9377 371.5859C287.5977 371.5859 238.2777 380.8559 194.3377 395.0159C178.2277 399.4159 172.3677 413.0859 176.7577 426.2659C180.1777 439.4559 193.8477 447.2659 209.4777 441.8959ZM669.4377 580.5659C741.6977 580.5659 792.9677 534.1759 792.9677 469.7259C792.9677 406.7359 744.1377 360.3559 683.5977 360.3559C627.4377 360.3559 584.9577 399.4159 578.1277 451.1759C575.1977 466.7959 584.9577 479.4959 598.1477 480.9559C611.8177 482.9059 624.0277 474.6059 627.4377 457.5159C631.8377 429.1959 654.2977 410.1559 683.5977 410.1559C717.2877 410.1559 743.1677 433.5959 743.1677 469.7259C743.1677 506.8359 715.3277 530.2759 669.4377 530.2759C581.0577 530.2759 483.8877 479.0059 364.2577 479.0059C303.2277 479.0059 246.5777 489.7459 193.8477 507.8159C178.7077 513.1859 172.3677 526.8559 176.7577 539.5459C180.1777 552.7359 193.8477 560.5459 209.9577 555.1759C257.3277 537.1059 306.1477 528.8059 364.2577 528.8059C480.9577 528.8059 568.8477 580.5659 669.4377 580.5659ZM482.4177 788.0859C530.7577 788.0859 568.8477 751.9559 568.8477 700.6859C568.8477 626.9559 494.1377 586.4259 360.8377 586.4259C305.6677 586.4259 244.6277 597.1659 193.3577 614.7459C179.1977 620.6059 171.8777 633.7859 176.7577 645.9959C180.1777 659.1759 193.8477 667.9659 209.9577 662.5959C256.3477 645.5059 307.6177 635.7459 360.8377 635.7459C466.7977 635.7459 519.0477 661.1359 519.0477 700.6859C519.0477 725.0959 503.4177 738.2859 482.4177 738.2859C461.4277 738.2859 450.1977 726.0759 446.2877 702.6359C444.3377 689.9459 434.0777 677.7359 418.4577 679.1959C400.8777 680.1759 394.0477 695.7959 395.9977 709.9559C401.3677 752.9259 434.0777 788.0859 482.4177 788.0859ZM673.8277 720.7059C678.7077 720.7059 682.6177 715.8159 682.1277 710.9359L681.1477 697.7559L691.8977 706.0559C695.3077 708.9859 702.6377 707.0359 704.5877 703.6159C708.0077 699.7059 707.0277 691.8959 701.1677 689.4559L688.4777 684.0859L701.1677 677.7359C706.5477 674.8059 707.0277 669.4359 705.0777 665.5259C703.1277 660.6459 695.7977 659.1759 691.8977 661.6259L681.1477 670.8959L682.1277 657.2259C682.6177 651.3659 678.7077 647.4559 673.8277 647.4559C667.9677 647.4559 663.5777 651.3659 664.0577 656.7359L665.5277 670.8959L653.8077 661.6259C650.3877 659.1759 644.0477 660.1559 641.5977 665.5259C639.6477 668.4559 639.1577 674.8059 645.5077 678.2259L657.7177 684.0859L645.5077 689.4559C639.1577 692.3859 639.6477 698.7259 641.1177 702.6359C642.5777 707.5159 650.3877 708.9859 653.8077 706.0559L665.5277 697.7559L664.5477 710.9359C664.0577 715.8159 667.9677 720.7059 673.8277 720.7059Z"/>
</svg>