<?xml version="1.0" encoding="UTF-8" standalone="no"?>
<svg xmlns="http://www.w3.org/2000/svg"
     width="713.8671875" height="1163.0859375"
     viewBox="0 0 713.8671875 1163.0859375"
     fill="currentColor">
  <path d="M356.4483 1163.082C533.1983 1163.082 639.6483 1119.142 639.6483 1043.942C639.6483 975.102 547.8483 932.132 393.5583 925.782V716.312C587.3983 702.632 713.8683 578.612 713.8683 396.972C713.8683 296.382 671.3883 164.062 609.8683 69.822C581.0583 24.902 487.7883 0.002 356.9383 0.002C225.0983 0.002 132.3283 24.902 103.0283 69.822C41.5083 164.062 -0.0017 296.382 -0.0017 396.972C-0.0017 579.102 126.4683 702.632 320.3083 716.312V925.782C165.5283 931.642 73.7283 975.102 73.7283 1043.942C73.7283 1119.142 179.6883 1163.082 356.4483 1163.082ZM356.9383 120.602C245.6083 120.602 170.8983 107.912 170.8983 93.262C170.8983 79.102 246.0983 66.892 356.9383 66.892C467.7783 66.892 542.9683 79.102 542.9683 93.262C542.9683 107.912 467.7783 120.602 356.9383 120.602Z"/>
</svg>