<?xml version="1.0" encoding="UTF-8" standalone="no"?>
<svg xmlns="http://www.w3.org/2000/svg"
     width="713.8671875" height="1163.0859375"
     viewBox="0 0 713.8671875 1163.0859375"
     fill="currentColor">
  <path d="M356.4483 1163.082C533.1983 1162.602 640.1383 1119.142 640.1383 1043.942C640.1383 974.612 547.8483 932.132 393.5583 926.272V716.312C587.3983 702.632 713.8683 579.102 713.8683 396.972C713.8683 296.382 671.3883 164.062 609.8683 69.822C581.0583 24.902 487.7883 0.002 356.9383 0.002C225.0983 0.002 132.3283 24.902 103.0283 69.822C41.5083 164.062 -0.0017 296.382 -0.0017 396.972C-0.0017 579.102 126.4683 702.632 320.3083 716.312V926.272C165.5283 931.642 73.7283 974.612 73.7283 1043.942C73.7283 1119.142 179.6883 1162.602 356.4483 1163.082ZM356.9383 118.162C258.7883 118.162 170.8983 104.492 170.8983 93.262C170.8983 83.012 260.2583 69.332 356.9383 69.332C453.1283 69.332 542.9683 83.012 542.9683 93.262C542.9683 104.492 454.0983 118.162 356.9383 118.162ZM356.4483 644.042C182.1283 644.042 73.7283 548.832 73.7283 396.972C73.7283 324.222 99.1183 229.982 141.1183 150.882C183.5983 173.832 260.7383 187.012 356.9383 187.012C452.1483 187.012 529.2983 173.832 571.7783 150.882C614.2583 229.982 640.1383 324.222 640.1383 396.972C640.1383 548.832 530.7583 644.042 356.4483 644.042ZM356.4483 1044.922C376.4683 1044.922 393.5583 1027.832 393.5583 1008.302V997.562C496.5783 1000.972 561.5283 1020.022 561.5283 1043.942C561.5283 1071.292 480.9583 1091.312 356.4483 1091.312C231.9383 1091.312 152.3483 1071.292 152.3483 1043.942C152.3483 1020.022 217.2883 1000.972 320.3083 997.072V1008.302C320.3083 1028.322 336.9183 1044.922 356.4483 1044.922Z"/>
</svg>