<?xml version="1.0" encoding="UTF-8" standalone="no"?>
<svg xmlns="http://www.w3.org/2000/svg"
     width="898.92578125" height="898.92578125"
     viewBox="0 0 898.92578125 898.92578125"
     fill="currentColor">
  <path d="M153.3183 898.9295H745.6083C848.1483 898.9295 898.9283 848.1495 898.9283 747.5595V151.3695C898.9283 50.7795 848.1483 -0.0005 745.6083 -0.0005H153.3183C51.2683 -0.0005 -0.0017 50.2895 -0.0017 151.3695V747.5595C-0.0017 848.6295 51.2683 898.9295 153.3183 898.9295ZM154.2983 820.3095C105.4683 820.3095 78.6183 794.4295 78.6183 743.6495V155.2695C78.6183 104.4895 105.4683 78.6095 154.2983 78.6095H744.6283C792.9683 78.6095 820.3083 104.4895 820.3083 155.2695V743.6495C820.3083 794.4295 792.9683 820.3095 744.6283 820.3095ZM240.2383 439.4495C240.2383 452.6395 250.4883 463.8695 263.6683 463.8695H293.4583L325.1983 661.1295C328.1283 680.1795 342.2883 690.9195 359.8683 690.9195C377.4383 690.9195 391.5983 681.1495 395.0183 661.6195L427.7383 463.3795H471.6783L505.3683 661.6195C508.7883 681.1495 522.9483 690.9195 540.5283 690.9195C557.6183 690.9195 572.2683 680.1795 575.1983 661.1295L605.9583 463.3795H635.2583C649.4183 463.3795 659.1783 452.1495 659.1783 438.9695C659.1783 424.8095 649.4183 415.0395 635.2583 415.0395H613.7683L637.6983 260.7395C638.6683 255.8595 639.6483 251.9495 639.6483 246.5795C639.6483 229.4895 626.4683 219.2395 609.3783 219.2395C594.2383 219.2395 581.0583 228.0295 578.6183 245.1195L556.6383 415.0395H514.1583L485.8383 250.9795C482.9083 230.9595 467.2883 219.7295 449.2183 219.7295C430.6683 219.7295 416.0183 230.9595 412.5983 251.4695L384.7683 415.5295H343.2583L322.2683 245.6095C319.8283 228.5195 306.6383 219.7295 291.0183 219.7295C273.4383 219.7295 260.2583 230.4695 260.2583 247.5595C260.2583 253.4195 261.2283 258.2995 261.7183 262.6995L285.6483 415.5295H263.6683C250.4883 415.5295 240.2383 425.2895 240.2383 439.4495ZM436.5283 415.5295L449.7083 319.8195L463.8683 415.5295ZM349.6083 462.8895H377.9283L361.3283 577.6395ZM520.9983 462.8895H551.7583L538.5783 580.5695Z"/>
</svg>