<?xml version="1.0" encoding="UTF-8" standalone="no"?>
<svg xmlns="http://www.w3.org/2000/svg"
     width="1085.44921875" height="888.671875"
     viewBox="0 0 1085.44921875 888.671875"
     fill="currentColor">
  <path d="M31.2483 471.6827H152.3483L228.0283 836.9127C234.3783 868.6527 259.2783 888.6727 291.9883 888.6727C323.7283 888.6727 347.1683 869.1427 354.9783 838.8627L455.0783 471.6827H629.8783L729.9783 838.8627C737.3083 869.1427 761.2283 888.6727 792.4783 888.6727C825.1983 888.6727 850.5883 868.6527 856.9383 836.9127L932.1283 471.6827H1053.7083C1071.7783 471.6827 1085.4483 457.5227 1085.4483 439.4527C1085.4483 420.9027 1071.7783 407.7127 1053.7083 407.7127H945.3083L1015.6283 68.3627C1017.0883 59.5727 1018.5583 51.2727 1018.5583 42.4827C1018.5583 16.1127 997.5583 0.0027 971.1883 0.0027C947.2683 0.0027 929.1983 14.6527 924.8083 38.5727L855.9583 407.7127H690.9183L592.2883 42.4827C585.9383 17.5827 570.7983 1.9527 542.9683 1.9527C514.6483 1.9527 499.0283 19.0427 492.1883 44.4327L394.0383 407.7127H229.0083L160.1583 38.5727C155.7583 15.1327 137.6983 0.0027 113.2783 0.0027C86.9183 0.0027 66.4083 16.1127 66.4083 42.4827C66.4083 50.7827 67.3783 59.0827 68.8483 67.8727L139.1583 407.7127H31.2483C13.6683 407.7127 -0.0017 420.9027 -0.0017 439.4527C-0.0017 457.5227 13.6683 471.6827 31.2483 471.6827ZM540.0383 160.6427H544.9183L612.3083 407.7127H472.6583ZM294.9183 760.2527L240.7183 471.6827H376.9483L298.8283 760.2527ZM786.1283 760.2527L708.0083 471.6827H843.7483L790.0383 760.2527Z"/>
</svg>