<?xml version="1.0" encoding="UTF-8" standalone="no"?>
<svg xmlns="http://www.w3.org/2000/svg"
     width="1160.2052851886192" height="1149.3418323173173"
     viewBox="0 0 1160.2052851886192 1149.3418323173173"
     fill="currentColor">
  <path d="M76.3529 1083.6092C161.3129 1167.5892 275.0829 1168.5692 358.5829 1084.5792C437.6829 1004.5092 447.9429 916.6092 586.1229 738.3892L799.5029 951.2792L806.3329 995.2292C808.7829 1012.8092 820.0129 1028.4292 834.6529 1038.1992L987.4929 1141.7092C1003.1129 1151.9692 1018.2529 1151.9692 1028.9929 1141.2192L1116.3929 1053.8192C1126.6529 1043.0792 1125.1829 1027.4492 1115.4229 1012.3192L1013.3729 859.9692C1003.1129 844.8392 987.4929 834.0892 969.9129 831.6492L925.9629 824.8192L702.8229 601.6692C722.8429 580.1892 743.8329 557.7292 767.2729 534.2892C871.7629 583.6092 998.2329 567.0092 1082.2129 483.5092C1170.1029 395.6192 1185.2429 256.9492 1119.8129 144.6392L1072.4529 192.4892L987.0029 277.4492C973.8129 290.6392 957.2129 291.6092 943.0529 277.4492L883.4829 217.3992C869.3229 202.7492 867.8629 185.6592 881.0429 172.4692L966.4929 87.9992L1014.3429 40.1492C903.0129 -24.7908 764.8329 -10.1408 676.9429 78.2392C598.8129 156.3592 578.8029 271.1092 616.3929 371.1992L323.9129 76.7692C255.0629 8.4092 181.8229 8.4092 114.9329 75.3092L49.9929 140.2492C-16.9071 207.1392 -16.9071 280.3792 51.4529 348.7392L337.5829 634.3892C213.0729 717.3992 141.3029 735.4592 75.3829 800.8892C-9.0971 884.3892 -8.1171 998.6492 76.3529 1083.6092ZM831.7229 256.4592L903.9929 328.2392C940.1229 364.3692 986.5129 365.3392 1020.6929 330.6792L1092.9629 257.9192C1103.2129 323.8392 1083.6829 390.2492 1036.3129 438.0992C953.8029 520.6192 817.0829 516.7092 729.6729 430.2892C642.7629 343.3692 639.3429 205.6792 722.3529 123.6492C769.7129 76.7692 836.1229 56.7492 900.5729 66.5192L829.2829 138.2892C793.1529 173.9392 794.1329 219.8392 831.7229 256.4592ZM95.4029 297.9592C59.7529 262.3192 60.2429 225.2092 95.4029 189.5592L164.2429 120.2292C198.9129 85.0692 237.0029 85.5592 272.6429 120.7192L584.6529 432.7292C509.4629 503.5292 446.4729 555.7692 391.7829 595.8092ZM400.5729 392.1992C407.4129 399.5192 420.1029 398.5492 426.4529 392.1992C433.7829 383.8992 433.7829 372.6692 426.9429 365.8292L244.3229 183.6992C237.0029 176.3792 225.2829 176.8692 218.9329 183.6992C211.6129 191.0292 212.1029 202.2592 218.9329 209.0892ZM340.5129 451.7692C347.8429 459.0892 359.5629 459.0892 366.3929 451.7692C373.2329 444.9292 373.7229 433.6992 366.3929 426.3792L183.7829 243.7592C177.4329 237.8992 165.2229 236.9292 157.9029 243.7592C151.0629 251.5792 150.5729 263.2892 157.9029 270.1292ZM683.7829 475.6992C693.5429 484.9692 703.3129 494.2492 714.0529 502.0592C376.1629 848.7392 426.4529 918.5692 308.7829 1035.7592C254.5829 1090.4392 181.3329 1090.9292 124.6929 1035.2692C68.5429 978.1392 69.5229 905.3792 123.2329 851.1792C241.3929 733.5092 311.2229 783.7992 657.9029 445.9092C665.7129 456.1692 674.5029 465.9292 683.7829 475.6992ZM877.6229 977.6492L867.8629 922.9592L629.5829 684.6792C638.3729 674.4292 647.1529 663.6792 656.9229 652.9392L897.6429 893.1792L952.3329 902.4492L1045.5929 1026.4792L1001.1629 1070.9092ZM215.5129 1005.9692C248.7229 1005.9692 276.0629 978.6292 276.0629 945.4192C276.0629 912.2192 248.7229 885.3592 215.5129 885.3592C182.3129 885.3592 155.4629 912.2192 155.4629 945.4192C155.4629 978.6292 182.3129 1005.9692 215.5129 1005.9692Z"/>
</svg>