<?xml version="1.0" encoding="UTF-8" standalone="no"?>
<svg xmlns="http://www.w3.org/2000/svg"
     width="1160.2052851886192" height="1147.084595958791"
     viewBox="0 0 1160.2052851886192 1147.084595958791"
     fill="currentColor">
  <path d="M76.3529 1083.6092C161.3129 1167.5892 275.0829 1168.5692 358.5829 1084.5792C439.6329 1002.5492 448.4229 912.7092 595.8829 725.6992L814.6329 944.4492L817.0829 996.1992C817.5629 1011.3392 827.8229 1028.4292 844.4229 1036.7292L1007.9929 1126.0892C1022.6429 1133.4092 1034.3629 1135.8492 1044.1329 1126.0892L1101.2629 1068.9592C1110.5329 1059.6792 1108.5829 1047.9592 1100.2829 1032.3392L1011.9029 869.7392C1003.1129 853.6292 986.5129 842.8792 970.4029 842.3992L918.6429 839.9492L692.0829 613.3892C714.5429 588.4892 739.4429 562.1192 767.2729 534.2892C871.7629 583.6092 998.2329 567.0092 1082.2129 483.5092C1170.1029 395.6192 1185.2429 256.9492 1119.8129 144.6392L1072.4529 192.4892L987.0029 277.4492C973.8129 290.6392 957.2129 291.6092 943.0529 277.4492L883.4829 217.3992C869.3229 202.7492 867.8629 185.6592 881.0429 172.4692L966.4929 87.9992L1014.3429 40.1492C903.0129 -24.7908 764.8329 -10.1408 676.9429 78.2392C598.8129 156.3592 578.8029 271.1092 616.3929 371.1992L323.9129 76.7692C255.0629 8.4092 181.8229 8.4092 114.9329 75.3092L49.9929 140.2492C-16.9071 207.1392 -16.9071 280.3792 51.4529 348.7392L337.5829 634.3892C213.0729 717.3992 141.3029 735.4592 75.3829 800.8892C-9.0971 884.3892 -8.1171 998.6492 76.3529 1083.6092ZM831.7229 256.4592L903.9929 328.2392C940.1229 364.3692 986.5129 365.3392 1020.6929 330.6792L1092.9629 257.9192C1103.2129 323.8392 1083.6829 390.2492 1036.3129 438.0992C953.8029 520.6192 817.0829 516.7092 729.6729 430.2892C642.7629 343.3692 639.3429 205.6792 722.3529 123.6492C769.7129 76.7692 836.1229 56.7492 900.5729 66.5192L829.2829 138.2892C793.1529 173.9392 794.1329 219.8392 831.7229 256.4592ZM407.4129 397.0792L214.0529 202.2592C206.7229 194.9292 206.2429 183.2192 214.0529 175.3992C220.8829 168.0792 233.5829 167.5892 241.3929 175.3992L435.2429 368.7592C442.5629 376.0892 442.5629 388.2892 434.7529 397.0792C428.4029 403.9192 414.7329 404.8992 407.4129 397.0792ZM343.4429 460.0692L149.6029 267.1992C141.7829 259.3892 142.2729 247.1792 149.6029 238.8792C157.4129 231.5592 170.1029 232.5292 176.9429 238.8792L371.2829 433.2192C379.0929 441.0292 378.6029 452.7492 371.2829 460.0692C363.9529 467.8792 351.2629 467.8792 343.4429 460.0692ZM683.7829 475.6992C693.5429 484.9692 703.3129 494.2492 714.0529 502.0592C376.1629 848.7392 426.4529 918.5692 308.7829 1035.7592C254.5829 1090.4392 181.3329 1090.9292 124.6929 1035.2692C68.5429 978.1392 69.5229 905.3792 123.2329 851.1792C241.3929 733.5092 311.2229 783.7992 657.9029 445.9092C665.7129 456.1692 674.5029 465.9292 683.7829 475.6992ZM215.5129 1005.9692C248.7229 1005.9692 276.0629 978.6292 276.0629 945.4192C276.0629 912.2192 248.7229 885.3592 215.5129 885.3592C182.3129 885.3592 155.4629 912.2192 155.4629 945.4192C155.4629 978.6292 182.3129 1005.9692 215.5129 1005.9692Z"/>
</svg>