<?xml version="1.0" encoding="UTF-8" standalone="no"?>
<svg xmlns="http://www.w3.org/2000/svg"
     width="996.09375" height="996.09375"
     viewBox="0 0 996.09375 996.09375"
     fill="currentColor">
  <path d="M498.0477 996.0959C770.5077 996.0959 996.0977 770.0159 996.0977 498.0459C996.0977 225.5859 770.0177 -0.0041 497.5577 -0.0041C225.5877 -0.0041 -0.0023 225.5859 -0.0023 498.0459C-0.0023 770.0159 226.0777 996.0959 498.0477 996.0959ZM348.6377 729.0059C327.1477 729.0059 311.0377 713.8659 311.0377 693.8459C311.0377 683.5959 313.4777 676.7559 319.8277 667.4759L447.7577 490.7259L327.1477 324.7059C318.8477 313.4759 316.4077 306.6359 316.4077 295.4059C316.4077 274.9059 334.4777 257.8159 355.9577 257.8159C373.0477 257.8159 382.8077 264.1559 394.5277 280.2759L501.4677 435.5459H503.9077L609.3777 280.7659C620.1177 264.1559 630.3677 257.8159 645.9977 257.8159C667.4777 257.8159 684.0777 273.4359 684.0777 293.4559C684.0777 302.7359 681.6377 311.0359 674.3177 320.3159L547.3677 493.1659L673.3377 665.5259C680.1777 674.3159 683.1077 681.6359 683.1077 691.8959C683.1077 713.8659 666.0177 729.0059 643.0677 729.0059C627.4377 729.0059 618.1677 723.1459 605.4677 705.5659L497.0677 550.7859H495.1177L386.2277 705.5659C373.0477 723.1459 364.7477 729.0059 348.6377 729.0059Z"/>
</svg>