<?xml version="1.0" encoding="UTF-8" standalone="no"?>
<svg xmlns="http://www.w3.org/2000/svg"
     width="898.92578125" height="898.92578125"
     viewBox="0 0 898.92578125 898.92578125"
     fill="currentColor">
  <path d="M153.3183 898.9295H745.6083C848.1483 898.9295 898.9283 848.1495 898.9283 747.5595V151.3695C898.9283 50.7795 848.1483 -0.0005 745.6083 -0.0005H153.3183C51.2683 -0.0005 -0.0017 50.2895 -0.0017 151.3695V747.5595C-0.0017 848.6295 51.2683 898.9295 153.3183 898.9295ZM300.2883 679.6895C278.8083 679.6895 262.6983 664.5495 262.6983 644.5295C262.6983 634.2795 265.1383 627.4395 271.9683 618.1595L399.4183 441.4095L278.8083 275.3895C270.9983 264.1595 268.0683 257.3195 268.0683 246.0895C268.0683 225.5895 286.1283 208.4995 307.6183 208.4995C324.7083 208.4995 334.4683 214.8395 346.1883 230.9595L453.1283 386.2295H456.0583L561.0383 231.4495C571.7783 214.8395 582.0283 208.4995 597.6583 208.4995C619.1383 208.4995 636.2283 224.1195 636.2283 244.1395C636.2283 253.4195 633.2983 261.7195 625.9783 270.9995L499.0283 443.8495L624.9983 616.2095C631.8383 624.9995 634.7683 632.3195 634.7683 642.5795C634.7683 664.5495 618.1683 679.6895 595.2183 679.6895C579.0983 679.6895 569.8283 673.8295 557.1283 656.2495L448.7283 501.4695H446.7783L337.8883 656.2495C325.1983 673.8295 316.4083 679.6895 300.2883 679.6895Z"/>
</svg>