<?xml version="1.0" encoding="UTF-8" standalone="no"?>
<svg xmlns="http://www.w3.org/2000/svg"
     width="1057.12890625" height="876.46484375"
     viewBox="0 0 1057.12890625 876.46484375"
     fill="currentColor">
  <path d="M185.0583 876.4694C230.9583 876.4694 254.8783 844.2394 268.0683 802.2494L490.2383 86.9094H1010.2583C1038.0883 86.9094 1057.1283 69.8194 1057.1283 42.9694C1057.1283 17.0894 1038.0883 -0.0006 1010.2583 -0.0006H489.2583C439.4483 -0.0006 416.9883 18.5594 403.8083 61.5194L190.4283 762.2094H182.1283L90.3283 438.4794C82.5183 411.6194 67.8683 398.9294 44.9183 398.9294C19.0383 398.9294 -0.0017 417.4794 -0.0017 441.4094C-0.0017 451.1694 2.4383 459.9594 4.3983 467.2894L107.9083 807.6194C120.1183 847.1694 142.0883 876.4694 185.0583 876.4694ZM583.0083 776.8594C601.0783 776.8594 610.3483 770.5094 624.0283 751.4694L739.7483 587.8894H741.6983L856.4483 751.4694C870.6083 770.5094 879.8783 776.8594 897.4583 776.8594C921.8783 776.8594 939.9383 760.2494 939.9383 737.3094C939.9383 726.5594 937.4983 717.7694 930.1783 708.4994L795.8983 525.8794L931.1483 342.2894C938.4783 332.0294 941.4083 323.2394 941.4083 313.4794C941.4083 291.9894 923.8283 275.3894 900.3883 275.3894C883.2983 275.3894 873.0483 281.2494 860.3483 299.3194L749.5083 463.8694H747.0683L632.8083 298.8294C620.6083 281.2494 609.8683 275.3894 591.7983 275.3894C568.3583 275.3894 548.8283 293.4594 548.8283 315.4294C548.8283 327.6394 551.7583 335.4494 560.5483 346.6794L688.9683 523.4394L552.7383 711.4294C545.4083 721.1894 543.4583 728.0294 543.4583 739.2594C543.4583 760.2494 560.5483 776.8594 583.0083 776.8594Z"/>
</svg>