<?xml version="1.0" encoding="UTF-8" standalone="no"?>
<svg xmlns="http://www.w3.org/2000/svg"
     width="1012.20703125" height="1012.20703125"
     viewBox="0 0 1012.20703125 1012.20703125"
     fill="currentColor">
  <path d="M244.1377 73.2467C241.6977 74.2167 242.6777 78.1267 245.6077 77.6367C255.3677 75.6867 267.5777 74.2167 279.2977 74.2167C321.7777 74.2167 361.3277 85.4467 411.1377 104.9767C432.6177 112.7967 450.6877 121.0967 468.2577 130.3667C483.3977 138.1867 495.6077 145.0167 502.4377 148.4367C504.8877 149.9067 507.3277 149.9067 509.7677 148.4367C516.5977 145.0167 528.3177 138.1867 543.9477 130.3667C561.5277 121.0967 579.5877 112.7967 600.5877 104.9767C650.8777 85.4467 690.4277 74.2167 732.9077 74.2167C744.6277 74.2167 756.8377 75.6867 766.5977 77.6367C769.5277 78.1267 770.5077 74.2167 768.0677 73.2467C729.0077 50.7767 689.4577 32.7167 646.9777 20.9967C604.0077 6.8367 557.1277 -0.0033 505.8577 -0.0033C455.0777 -0.0033 408.2077 6.8367 365.2377 20.9967C322.7577 32.7167 282.7177 50.7767 244.1377 73.2467ZM199.2177 520.5067C254.3977 432.1267 304.6877 356.9367 366.6977 281.7367C367.6777 280.7567 367.6777 278.8067 366.6977 277.3467C337.8877 249.0267 311.5277 224.6067 289.0577 207.0267C255.3677 181.1567 205.5677 143.0667 166.0177 143.0667C157.7177 143.0667 153.3177 144.0467 150.8777 146.4867C105.4677 190.9167 66.8977 248.0467 40.5277 308.1067C13.6677 373.0467 -0.0023 437.4967 -0.0023 506.3467C-0.0023 618.6567 34.1777 720.7067 103.0277 812.4967C104.0077 813.9667 106.4477 812.9867 105.9577 811.0367C103.5177 804.1967 102.0477 791.5067 102.0477 780.2767C102.0477 754.8867 106.4477 727.5367 114.7477 702.1467C139.1577 631.3467 165.0377 574.7067 199.2177 520.5067ZM645.5077 281.7367C707.5177 356.9367 757.8077 432.1267 812.4977 520.5067C847.1677 574.7067 873.0477 631.3467 897.4577 702.1467C905.7577 727.5367 910.1577 754.8867 910.1577 780.2767C910.1577 791.5067 908.6877 804.1967 906.2477 811.0367C905.7577 812.9867 908.2077 813.9667 909.1777 812.4967C978.0277 720.7067 1012.2077 618.6567 1012.2077 506.3467C1012.2077 437.4967 998.5377 373.0467 971.6777 308.1067C945.3077 248.0467 906.7377 190.9167 861.3277 146.4867C858.8877 144.0467 854.4877 143.0667 846.1877 143.0667C806.6377 143.0667 756.8377 181.1567 723.1477 207.0267C700.6877 224.6067 674.3177 249.0267 645.5077 277.3467C644.5277 278.8067 644.5277 280.7567 645.5077 281.7367ZM157.7177 847.1667C157.7177 862.7967 162.5977 874.9967 180.6677 892.0867C257.8077 963.8667 380.3677 1012.2067 505.8577 1012.2067C631.8377 1012.2067 753.9077 963.8667 831.5477 892.0867C849.6077 874.9967 854.4877 862.7967 854.4877 847.1667C854.4877 828.6167 848.6377 807.1267 836.9177 783.6867C813.9677 731.4467 770.9977 671.3867 730.4677 623.5367C661.1377 543.4567 586.4277 465.8167 511.7177 410.1567C509.2777 408.2067 507.8077 407.2267 505.8577 407.2267C504.3977 407.2267 502.9277 408.2067 500.4877 410.1567C425.7777 465.8167 351.0777 543.4567 281.7377 623.5367C241.2077 671.3867 198.2377 731.4467 175.2977 783.6867C163.0877 807.1267 157.7177 828.6167 157.7177 847.1667Z"/>
</svg>