<?xml version="1.0" encoding="UTF-8" standalone="no"?>
<svg xmlns="http://www.w3.org/2000/svg"
     width="821.2890625" height="1046.875"
     viewBox="0 0 821.2890625 1046.875"
     fill="currentColor">
  <path d="M-0.0017 894.0466C-0.0017 996.0966 50.2883 1046.8766 151.3683 1046.8766H669.9183C770.9983 1046.8766 821.2883 996.0966 821.2883 894.0466V153.3166C821.2883 51.7566 770.9983 -0.0034 669.9183 -0.0034H151.3683C50.2883 -0.0034 -0.0017 51.7566 -0.0017 153.3166ZM78.6183 892.5766V154.7866C78.6183 105.9566 104.4883 78.6166 155.2783 78.6166H666.0183C716.7983 78.6166 742.6783 105.9566 742.6783 154.7866V892.5766C742.6783 941.4066 716.7983 968.2666 666.0183 968.2666H155.2783C104.4883 968.2666 78.6183 941.4066 78.6183 892.5766ZM244.6283 729.9766C255.3683 729.9766 265.1383 725.5866 272.4583 717.7766L411.1283 579.0966L549.8083 717.7766C557.1283 725.0966 566.8983 729.9766 577.6383 729.9766C599.6083 729.9766 617.1883 712.4066 617.1883 690.4266C617.1883 679.1966 612.7883 670.4066 605.4683 662.5966L466.3083 523.9266L605.9583 384.2766C613.7683 375.9766 617.6783 367.6766 617.6783 356.9366C617.6783 335.4466 600.0983 317.8666 578.1283 317.8666C568.3583 317.8666 559.5683 321.7766 551.2683 330.0766L411.1283 469.2366L271.4883 330.5666C264.1583 322.7566 255.3683 318.8466 244.6283 318.8466C222.6583 318.8466 205.5683 335.9366 205.5683 357.4266C205.5683 368.1666 209.4683 377.4366 217.2883 384.7666L355.9583 523.9266L217.2883 663.0866C209.4683 670.4066 205.5683 679.6866 205.5683 690.4266C205.5683 712.4066 222.6583 729.9766 244.6283 729.9766Z"/>
</svg>