<?xml version="1.0" encoding="UTF-8" standalone="no"?>
<svg xmlns="http://www.w3.org/2000/svg"
     width="888.671875" height="888.18359375"
     viewBox="0 0 888.671875 888.18359375"
     fill="currentColor">
  <path d="M831.5383 57.615C781.7383 7.815 711.4283 -0.005 627.9283 -0.005H259.2783C177.2483 -0.005 106.9383 7.815 57.1283 57.615C7.3283 107.425 -0.0017 177.245 -0.0017 258.785V627.925C-0.0017 711.425 7.3283 780.765 57.1283 830.565C106.9383 880.375 177.2483 888.185 260.2583 888.185H627.9283C711.4283 888.185 781.7383 880.375 831.5383 830.565C881.3483 780.765 888.6683 711.425 888.6683 627.925V260.255C888.6683 176.755 881.3483 106.935 831.5383 57.615ZM280.2783 649.415C258.2983 649.415 240.2383 631.345 240.2383 608.885C240.2383 598.145 244.1383 587.895 251.9483 580.565L387.6983 444.825L251.9483 309.575C244.1383 301.755 240.2383 291.995 240.2383 281.245C240.2383 258.305 258.2983 241.215 280.2783 241.215C291.5083 241.215 300.7783 245.115 308.1083 252.445L444.3383 388.185L581.5383 251.955C589.8483 243.655 599.1183 240.235 609.8683 240.235C631.8383 240.235 649.8983 257.815 649.8983 280.275C649.8983 291.505 646.4883 300.295 638.1883 309.085L501.9483 444.825L637.6983 580.075C645.5083 587.405 649.4183 597.655 649.4183 608.885C649.4183 631.345 631.3483 649.415 608.8883 649.415C597.6583 649.415 586.9183 645.505 579.5883 637.695L444.3383 501.955L309.5683 637.695C302.2483 645.505 291.5083 649.415 280.2783 649.415Z"/>
</svg>