<?xml version="1.0" encoding="UTF-8" standalone="no"?>
<svg xmlns="http://www.w3.org/2000/svg"
     width="774.29331889941" height="774.1712299045857"
     viewBox="0 0 774.29331889941 774.1712299045857"
     fill="currentColor">
  <path d="M12.6379 761.5354C29.7279 778.1354 58.0479 778.1354 74.6479 761.5354L387.1479 449.0354L699.6479 761.5354C716.2479 778.1354 745.0579 778.6254 761.6579 761.5354C778.2579 744.4454 778.2579 716.6154 761.6579 700.0154L449.1579 387.0254L761.6579 74.5254C778.2579 57.9254 778.7479 29.6054 761.6579 13.0054C744.5679 -4.0846 716.2479 -4.0846 699.6479 13.0054L387.1479 325.5054L74.6479 13.0054C58.0479 -4.0846 29.2379 -4.5746 12.6379 13.0054C-3.9621 30.0954 -3.9621 57.9254 12.6379 74.5254L325.1379 387.0254L12.6379 700.0154C-3.9621 716.6154 -4.4521 744.9354 12.6379 761.5354Z"/>
</svg>