<?xml version="1.0" encoding="UTF-8" standalone="no"?>
<svg xmlns="http://www.w3.org/2000/svg"
     width="1108.7650103031888" height="1109.2532915531885"
     viewBox="0 0 1108.7650103031888 1109.2532915531885"
     fill="currentColor">
  <path d="M258.7268 977.9657H364.1968C374.4468 977.9657 381.7768 980.8957 389.0968 988.2157L464.2968 1062.9257C525.8168 1124.9357 582.9468 1124.4557 644.4668 1062.9257L719.6668 988.2157C726.9868 980.8957 734.3168 977.9657 744.5668 977.9657H850.0368C937.4368 977.9657 977.9668 937.9257 977.9668 850.0357V744.5657C977.9668 734.3157 980.8968 727.4757 988.2168 719.6657L1062.4368 644.4657C1124.4468 582.9457 1123.9668 526.3057 1062.4368 464.2957L988.2168 389.0957C980.8968 381.7757 977.9668 374.4557 977.9668 364.6857V258.7257C977.9668 171.8157 937.9268 130.7957 850.0368 130.7957H744.5668C734.3168 130.7957 726.9868 128.3557 719.6668 121.0357L644.4668 46.3257C582.9468 -15.6843 525.8168 -15.1943 464.2968 46.3257L389.0968 121.0357C381.7768 128.3557 374.4468 130.7957 364.1968 130.7957H258.7268C171.3268 130.7957 130.7968 170.8357 130.7968 258.7257V364.6857C130.7968 374.4557 128.3568 381.7757 121.0368 389.0957L46.3268 464.2957C-15.6832 526.3057 -15.1932 582.9457 46.3268 644.4657L121.0368 719.6657C128.3568 727.4757 130.7968 734.3157 130.7968 744.5657V850.0357C130.7968 937.4357 171.3268 977.9657 258.7268 977.9657ZM258.7268 900.3257C215.2668 900.3257 208.4368 893.4957 208.4368 850.0357V718.6857C208.4368 704.0357 204.0368 692.8057 193.2968 682.0657L101.0168 590.2757C70.2468 559.0257 70.2468 550.2357 101.0168 518.9857L193.2968 427.1857C204.0368 416.4457 208.4368 405.2157 208.4368 390.0757V258.7257C208.4368 214.7857 214.7868 208.4357 258.7268 208.4357H390.0768C405.2168 208.4357 416.4468 204.5257 427.1868 193.2957L518.9868 101.0157C550.2368 70.2557 559.0168 70.2557 589.7868 101.0157L682.0668 193.2957C692.3268 204.5257 704.0368 208.4357 718.6868 208.4357H850.0368C893.4968 208.4357 900.3268 215.2757 900.3268 258.7257V390.0757C900.3268 405.2157 905.2168 416.4457 915.9568 427.1857L1008.2368 518.9857C1038.9968 550.2357 1038.9968 559.0257 1008.2368 590.2757L915.9568 682.0657C905.2168 692.8057 900.3268 704.0357 900.3268 718.6857V850.0357C900.3268 893.4957 893.4968 900.3257 850.0368 900.3257H718.6868C704.0368 900.3257 692.3268 904.7257 682.0668 915.9557L589.7868 1008.2357C559.0168 1039.0057 550.2368 1039.0057 518.9868 1008.2357L427.1868 915.9557C416.4468 904.7257 405.2168 900.3257 390.0768 900.3257ZM388.1268 761.1657C399.3568 761.1657 409.1168 756.7757 416.4468 748.9657L554.6268 610.2857L693.7868 748.9657C701.1068 756.2857 710.3868 761.1657 721.6168 761.1657C743.1068 761.1657 760.6768 743.1057 760.6768 721.6157C760.6768 710.3857 756.7768 701.5957 748.9668 693.7857L610.2868 555.1157L749.4468 415.4657C757.7468 407.1657 761.1668 398.8657 761.1668 388.1257C761.1668 366.1457 743.5868 349.0557 722.1068 349.0557C711.8568 349.0557 703.5568 352.9657 695.2468 361.2657L554.6268 500.4257L415.4668 361.7557C408.1468 353.9457 399.3568 350.0357 388.1268 350.0357C366.6368 350.0357 349.0568 366.6357 349.0568 388.6157C349.0568 399.3557 353.4568 408.6257 360.7768 415.9557L499.4468 555.1157L360.7768 694.2757C353.4568 701.5957 349.0568 710.8757 349.0568 721.6157C349.0568 743.1057 366.6368 761.1657 388.1268 761.1657Z"/>
</svg>