<?xml version="1.0" encoding="UTF-8" standalone="no"?>
<svg xmlns="http://www.w3.org/2000/svg"
     width="1151.3671875" height="898.92578125"
     viewBox="0 0 1151.3671875 898.92578125"
     fill="currentColor">
  <path d="M153.3183 898.9278H998.0483C1100.5883 898.9278 1151.3683 848.6378 1151.3683 748.0478V151.3678C1151.3683 50.7778 1100.5883 -0.0022 998.0483 -0.0022H153.3183C51.2683 -0.0022 -0.0017 50.7778 -0.0017 151.3678V748.0478C-0.0017 848.6378 51.2683 898.9278 153.3183 898.9278ZM412.1083 654.7878C389.6483 654.7878 371.5783 636.7178 371.5783 614.2578C371.5783 603.5178 375.9783 593.2578 383.2983 585.9378L519.0383 450.1978L383.2983 314.9378C375.9783 307.1278 371.5783 297.3678 371.5783 286.6178C371.5783 263.6678 389.6483 246.5778 412.1083 246.5778C423.3383 246.5778 432.1283 250.4878 439.9383 257.8078L576.1683 393.5578L713.3783 257.3278C721.6783 249.0278 730.4683 245.6078 741.2083 245.6078C763.6683 245.6078 781.2483 263.1878 781.2483 285.6478C781.2483 296.8778 778.3183 305.6678 769.5283 314.4578L633.7883 450.1978L769.0383 585.4478C777.3483 592.7778 780.7583 603.0278 780.7583 614.2578C780.7583 636.7178 763.1883 654.7878 740.2383 654.7878C729.0083 654.7878 718.7483 650.8778 711.4283 643.0678L576.1683 507.3278L441.4083 643.0678C433.5983 650.8778 423.3383 654.7878 412.1083 654.7878Z"/>
</svg>