<?xml version="1.0" encoding="UTF-8" standalone="no"?>
<svg xmlns="http://www.w3.org/2000/svg"
     width="1109.2532915531885" height="1109.2532915531885"
     viewBox="0 0 1109.2532915531885 1109.2532915531885"
     fill="currentColor">
  <path d="M258.7268 977.9657H364.6868C374.4468 977.9657 381.7768 980.8957 389.0968 988.2157L464.2968 1062.9257C525.8168 1124.9357 582.9468 1124.4557 644.4668 1062.9257L719.6668 988.2157C727.4768 980.8957 734.3168 977.9657 744.5668 977.9657H850.0368C937.4368 977.9657 977.9668 937.9257 977.9668 850.0357V744.5657C977.9668 734.3157 980.8968 727.4757 988.2168 719.6657L1062.9268 644.4657C1124.9368 582.9457 1124.4468 525.8157 1062.9268 464.2957L988.2168 389.0957C980.8968 381.7757 977.9668 374.4557 977.9668 364.6857V258.7257C977.9668 171.8157 937.9268 130.7957 850.0368 130.7957H744.5668C734.3168 130.7957 727.4768 128.3557 719.6668 121.0357L644.4668 46.3257C582.9468 -15.6843 525.8168 -15.1943 464.2968 46.3257L389.0968 121.0357C381.7768 128.3557 374.4468 130.7957 364.6868 130.7957H258.7268C171.3268 130.7957 130.7968 170.8357 130.7968 258.7257V364.6857C130.7968 374.4557 128.3568 381.7757 121.0368 389.0957L46.3268 464.2957C-15.6832 525.8157 -15.1932 582.9457 46.3268 644.4657L121.0368 719.6657C128.3568 727.4757 130.7968 734.3157 130.7968 744.5657V850.0357C130.7968 937.4357 171.3268 977.9657 258.7268 977.9657ZM390.5668 759.7057C368.1068 759.7057 350.5268 741.6357 350.5268 718.6857C350.5268 707.9457 354.4268 698.1857 362.2468 690.3657L497.4968 555.1157L362.2468 419.3757C354.4268 412.0457 350.5268 401.7957 350.5268 391.0557C350.5268 368.5957 368.1068 351.5057 390.5668 351.5057C401.7968 351.5057 410.5868 355.4057 418.3968 362.7357L554.6268 498.4757L691.8368 362.2457C700.1368 353.9457 708.9268 350.5257 719.6668 350.5257C742.1268 350.5257 760.1968 368.1057 760.1968 390.0757C760.1968 401.3057 756.7768 410.5857 748.4768 418.8857L612.2468 555.1157L747.9868 689.8757C755.7968 697.6957 759.7068 707.4557 759.7068 718.6857C759.7068 741.6357 741.6368 759.7057 718.6868 759.7057C707.4568 759.7057 697.2068 755.7957 689.8768 747.9857L554.6268 612.2457L419.8568 747.9857C412.0468 755.7957 401.7968 759.7057 390.5668 759.7057Z"/>
</svg>