<?xml version="1.0" encoding="UTF-8" standalone="no"?>
<svg xmlns="http://www.w3.org/2000/svg"
     width="798.828125" height="970.703125"
     viewBox="0 0 798.828125 970.703125"
     fill="currentColor">
  <path d="M399.4097 970.7081C407.2297 970.7081 419.4297 967.7781 431.6397 961.4281C709.4697 815.9181 798.8297 743.1681 798.8297 567.8681V199.7081C798.8297 149.4181 777.3397 133.2981 736.3297 116.2081C679.1997 92.7781 496.5797 26.3681 439.9397 6.8381C426.7597 2.4381 413.0897 -0.0019 399.4097 -0.0019C385.7397 -0.0019 372.0697 2.9281 359.3797 6.8381C302.2497 25.3881 119.6297 93.2581 62.4997 116.2081C21.9697 132.8081 -0.0003 149.4181 -0.0003 199.7081V567.8681C-0.0003 743.1681 94.2397 807.6181 367.1897 961.4281C379.8797 968.2581 391.5997 970.7081 399.4097 970.7081ZM235.3497 672.3681C212.8897 672.3681 195.3097 654.2981 195.3097 631.3481C195.3097 620.6081 199.2197 610.8381 207.0297 603.0281L342.2897 467.7781L207.0297 332.0281C199.2197 324.7081 195.3097 314.4481 195.3097 303.7081C195.3097 281.2481 212.8897 264.1581 235.3497 264.1581C246.5797 264.1581 255.3697 268.0681 263.1797 275.3881L399.4097 411.1281L536.6197 274.8981C544.9197 266.5981 553.7097 263.1881 564.4497 263.1881C586.9097 263.1881 604.9797 280.7581 604.9797 302.7381C604.9797 313.9681 601.5597 323.2381 593.2597 331.5381L457.0297 467.7781L592.7697 602.5381C600.5897 610.3481 604.4897 620.1181 604.4897 631.3481C604.4897 654.2981 586.4297 672.3681 563.4797 672.3681C552.2497 672.3681 541.9897 668.4581 534.6697 660.6481L399.4097 524.8981L264.6497 660.6481C256.8397 668.4581 246.5797 672.3681 235.3497 672.3681Z"/>
</svg>