<?xml version="1.0" encoding="UTF-8" standalone="no"?>
<svg xmlns="http://www.w3.org/2000/svg"
     width="1107.3672103163326" height="1107.3672103163324"
     viewBox="0 0 1107.3672103163326 1107.3672103163324"
     fill="currentColor">
  <path d="M54.7573 661.6849L445.8673 1052.7949C518.1273 1125.0649 589.4173 1125.5549 661.1973 1054.2649L1054.2673 660.7049C1125.5573 589.4249 1125.0673 517.6449 1052.7973 445.3749L662.1773 54.7549C589.9073 -17.5151 518.6173 -18.4851 446.8473 53.2849L53.2873 446.3549C-18.4927 518.1349 -17.5127 589.4249 54.7573 661.6849ZM389.2273 758.8549C367.2573 758.8549 349.1873 740.7849 349.1873 718.3249C349.1873 707.5849 353.5773 697.3349 360.9073 690.0049L496.6473 554.2649L360.9073 419.0149C353.5773 411.1949 349.1873 401.4349 349.1873 390.6849C349.1873 367.7449 367.2573 350.6549 389.2273 350.6549C400.9473 350.6549 409.7373 354.5549 417.5473 361.8849L553.7773 497.6249L690.9873 361.3949C699.2873 353.0949 708.0773 349.6749 718.8173 349.6749C741.2773 349.6749 758.8573 367.2549 758.8573 389.7149C758.8573 400.9449 755.9273 409.7349 747.1373 418.5249L611.3973 554.2649L746.6473 689.5149C754.9473 696.8449 758.3673 707.0949 758.3673 718.3249C758.3673 740.7849 740.7873 758.8549 717.8373 758.8549C706.6073 758.8549 696.3573 754.9449 689.0273 747.1349L553.7773 611.3949L419.0073 747.1349C411.1973 754.9449 400.9473 758.8549 389.2273 758.8549Z"/>
</svg>