<?xml version="1.0" encoding="UTF-8" standalone="no"?>
<svg xmlns="http://www.w3.org/2000/svg"
     width="821.2890625" height="1046.875"
     viewBox="0 0 821.2890625 1046.875"
     fill="currentColor">
  <path d="M-0.0017 894.0466C-0.0017 996.0966 50.2883 1046.8766 151.3683 1046.8766H669.9183C770.9983 1046.8766 821.2883 996.0966 821.2883 894.0466V153.3166C821.2883 51.7566 770.9983 -0.0034 669.9183 -0.0034H151.3683C50.2883 -0.0034 -0.0017 51.7566 -0.0017 153.3166ZM246.5783 729.0066C224.6083 729.0066 206.5383 710.9366 206.5383 687.9866C206.5383 677.2466 210.9383 667.4766 218.2583 659.6666L354.0083 524.4166L218.2583 388.6766C210.9383 380.8566 206.5383 371.0966 206.5383 360.3466C206.5383 337.8866 224.6083 320.3166 246.5783 320.3166C258.2983 320.3166 267.0883 324.7066 274.8983 332.0266L411.1283 467.7766L548.3383 331.5466C556.6383 323.2466 565.4283 319.3366 576.1683 319.3366C598.1483 319.3366 616.2083 337.4066 616.2083 359.3766C616.2083 370.6066 613.2783 379.3966 604.4883 388.1866L468.2583 524.4166L604.0083 659.1766C612.3083 666.9966 615.7183 676.7566 615.7183 687.9866C615.7183 710.9366 597.6583 729.0066 575.1983 729.0066C563.9683 729.0066 553.7083 724.6066 546.3883 717.2866L411.1283 581.0566L276.3683 717.2866C268.5583 724.6066 258.2983 729.0066 246.5783 729.0066Z"/>
</svg>