<?xml version="1.0" encoding="UTF-8" standalone="no"?>
<svg xmlns="http://www.w3.org/2000/svg"
     width="1107.3672103163326" height="1107.3672103163324"
     viewBox="0 0 1107.3672103163326 1107.3672103163324"
     fill="currentColor">
  <path d="M54.7573 661.6849L445.8673 1052.7949C518.1273 1125.0649 589.4173 1125.5549 661.1973 1054.2649L1054.2673 660.7049C1125.5573 589.4249 1125.0673 517.6449 1052.7973 445.3749L662.1773 54.7549C589.9073 -17.5151 518.6173 -18.4851 446.8473 53.2849L53.2873 446.3549C-18.4927 518.1349 -17.5127 589.4249 54.7573 661.6849ZM111.3973 607.4849C76.7273 572.3349 75.7473 535.7049 111.8773 499.5749L499.5773 111.8849C535.7073 75.7449 572.3273 76.2349 607.4873 111.3949L996.1573 500.0649C1030.8273 534.7349 1031.8073 571.8449 995.6673 607.9749L607.9773 995.6749C571.8473 1031.8049 534.2473 1030.8249 500.0673 996.6449ZM387.2673 760.3149C398.0173 760.3149 407.7773 755.9249 415.1073 748.1149L553.7773 609.4349L692.4473 748.1149C699.7673 755.4349 709.5373 760.3149 720.7673 760.3149C742.2573 760.3149 759.8273 742.7449 759.8273 720.7649C759.8273 709.5349 755.4373 700.7449 748.1073 692.9349L609.4373 554.2649L748.5973 414.6149C756.4173 406.3149 760.3173 398.0149 760.3173 387.2749C760.3173 365.7849 742.7373 348.2049 721.2573 348.2049C711.0073 348.2049 702.2173 352.1149 693.9173 360.4149L553.7773 499.5749L414.1273 360.9049C406.8073 353.0949 398.0173 349.1849 387.2673 349.1849C365.2973 349.1849 348.2073 366.2749 348.2073 387.7649C348.2073 398.5049 352.1173 407.7749 359.9273 415.1049L498.5973 554.2649L359.9273 693.4249C352.1173 700.7449 348.2073 710.0249 348.2073 720.7649C348.2073 742.7449 365.2973 760.3149 387.2673 760.3149Z"/>
</svg>