<?xml version="1.0" encoding="UTF-8" standalone="no"?>
<svg xmlns="http://www.w3.org/2000/svg"
     width="1227.5390625" height="848.6328125"
     viewBox="0 0 1227.5390625 848.6328125"
     fill="currentColor">
  <path d="M964.8477 848.6363C1112.3077 848.6363 1227.5377 740.7262 1227.5377 606.4463C1227.5377 503.9063 1168.4577 415.0363 1073.2377 374.9962C1074.2177 157.2263 917.4777 -0.0037 717.7777 -0.0037C585.4477 -0.0037 491.2077 70.7962 432.6177 156.2463C312.4977 121.0963 181.6377 212.4063 179.1977 349.1163C68.8477 366.6963 -0.0023 465.3363 -0.0023 584.4762C-0.0023 728.0263 125.4877 848.6363 292.4777 848.6363ZM964.8477 770.0163H292.4777C169.4377 770.0163 78.6177 684.0863 78.6177 584.4762C78.6177 486.8163 137.6977 409.1763 241.2077 409.1763C248.0477 409.1763 250.4877 405.7663 250.4877 399.4163C250.4877 249.0263 358.8877 204.5862 458.9877 237.3063C464.8477 239.2563 468.2577 237.7963 471.1877 232.4263C518.5577 147.9462 591.3077 78.6163 717.7777 78.6163C877.9277 78.6163 988.7677 205.5662 997.0677 350.5863C998.5377 373.0463 997.0677 399.4163 995.1177 422.3663C994.6277 428.7063 997.0677 432.1263 1002.9277 433.5963C1091.7977 453.1263 1148.9277 518.0663 1148.9277 606.4463C1148.9277 697.2663 1068.8477 770.0163 964.8477 770.0163ZM520.0177 628.9063L613.7677 535.1563L707.5177 628.9063C722.1677 643.0663 742.1877 640.1363 755.3677 627.9263C768.0677 615.2363 770.9977 594.7262 756.8377 580.5663L662.5977 486.3263L756.8377 392.0863C770.9977 377.9263 768.0677 357.9063 755.3677 344.7263C743.1677 332.0263 722.1677 329.1063 707.5177 343.7462L613.7677 437.4963L520.0177 343.7462C505.8577 329.5863 485.3477 332.5163 472.6577 344.7263C459.4777 357.4263 457.0277 377.9263 471.1877 392.0863L564.9377 486.3263L471.1877 580.5663C457.0277 594.7262 459.9577 614.7463 472.1677 627.4463C484.8677 640.6263 505.8577 643.0663 520.0177 628.9063Z"/>
</svg>