<?xml version="1.0" encoding="UTF-8" standalone="no"?>
<svg xmlns="http://www.w3.org/2000/svg"
     width="1151.3671875" height="833.49609375"
     viewBox="0 0 1151.3671875 833.49609375"
     fill="currentColor">
  <path d="M153.3183 833.4947H998.0483C1100.0983 833.4947 1151.3683 783.2047 1151.3683 682.1247V387.6947C1151.3683 320.8047 1135.7383 277.8347 1095.2183 237.3047L933.1083 69.8247C885.7383 20.9947 845.6983 0.0047 780.7583 0.0047H370.6083C306.1483 0.0047 265.6283 20.9947 218.7483 69.8247L56.1483 237.3047C16.1183 277.8347 -0.0017 320.8047 -0.0017 387.6947V682.1247C-0.0017 783.2047 51.2683 833.4947 153.3183 833.4947ZM115.2383 329.1047C98.1483 329.1047 93.2583 313.4747 103.5183 302.7347L282.7183 113.2847C312.9883 81.0547 334.4683 70.8047 374.5083 70.8047H776.8583C816.8983 70.8047 838.8683 81.0547 868.6483 113.2847L1048.3383 302.7347C1058.1083 313.4747 1053.7083 329.1047 1036.1283 329.1047ZM154.2983 754.8847C105.4683 754.8847 78.6183 729.0047 78.6183 678.2247V444.8247C78.6183 414.0647 92.2883 399.9047 122.0683 399.9047H1029.2983C1059.0783 399.9047 1072.7583 414.0647 1072.7583 444.8247V678.2247C1072.7583 729.0047 1045.8983 754.8847 997.0683 754.8847ZM576.6583 517.0947C596.1883 516.6047 613.2783 500.4847 613.2783 479.4947C613.2783 459.9647 596.1883 442.8747 576.6583 442.8747C555.6683 442.8747 539.0583 459.9647 539.0583 479.4947C539.0583 500.9747 555.6683 516.6047 576.6583 517.0947ZM198.2383 708.0047C212.8883 708.0047 226.0783 696.7747 226.0783 681.6447V473.6347C226.0783 458.9847 212.8883 446.7747 198.2383 446.7747C183.1083 446.7747 171.3883 458.9847 171.3883 473.6347V681.6447C171.3883 696.7747 183.1083 708.0047 198.2383 708.0047ZM312.9883 708.0047C328.1283 708.0047 340.8183 696.7747 340.8183 681.6447V473.6347C340.8183 458.9847 328.1283 446.7747 312.9883 446.7747C297.8483 446.7747 286.6183 458.9847 286.6183 473.6347V681.6447C286.6183 696.7747 297.8483 708.0047 312.9883 708.0047ZM427.7383 708.0047C442.8683 708.0047 455.5683 696.7747 455.5683 681.6447V473.6347C455.5683 458.9847 442.8683 446.7747 427.7383 446.7747C412.5983 446.7747 401.3683 458.9847 401.3683 473.6347V681.6447C401.3683 696.7747 412.5983 708.0047 427.7383 708.0047ZM718.7483 708.0047C733.8883 708.0047 746.5783 696.7747 746.5783 681.6447V473.6347C746.5783 458.9847 733.8883 446.7747 718.7483 446.7747C703.6183 446.7747 692.3783 458.9847 692.3783 473.6347V681.6447C692.3783 696.7747 703.6183 708.0047 718.7483 708.0047ZM833.4983 708.0047C848.6283 708.0047 861.8183 696.7747 861.8183 681.6447V473.6347C861.8183 458.9847 848.6283 446.7747 833.4983 446.7747C818.8483 446.7747 807.1283 458.9847 807.1283 473.6347V681.6447C807.1283 696.7747 818.8483 708.0047 833.4983 708.0047ZM948.7283 708.0047C963.3783 708.0047 976.5583 696.7747 976.5583 681.6447V473.6347C976.5583 458.9847 963.3783 446.7747 948.7283 446.7747C933.5983 446.7747 921.8783 458.9847 921.8783 473.6347V681.6447C921.8783 696.7747 933.5983 708.0047 948.7283 708.0047ZM576.6583 614.2547C596.1883 613.7647 613.2783 598.1447 613.2783 577.1447C613.2783 557.1247 596.1883 540.0347 576.6583 540.0347C555.6683 540.0347 539.0583 557.1247 539.0583 577.1447C539.0583 598.1447 555.6683 613.7647 576.6583 614.2547ZM576.6583 710.9347C596.1883 710.4447 613.2783 694.8247 613.2783 673.8247C613.2783 653.8047 596.1883 637.2047 576.6583 637.2047C555.6683 637.2047 539.0583 653.8047 539.0583 673.8247C539.0583 694.8247 555.6683 710.4447 576.6583 710.9347Z"/>
</svg>