<?xml version="1.0" encoding="UTF-8" standalone="no"?>
<svg xmlns="http://www.w3.org/2000/svg"
     width="996.09375" height="996.09375"
     viewBox="0 0 996.09375 996.09375"
     fill="currentColor">
  <path d="M498.0477 996.0959C770.5077 996.0959 996.0977 770.0159 996.0977 498.0459C996.0977 225.5859 770.0177 -0.0041 497.5577 -0.0041C225.5877 -0.0041 -0.0023 225.5859 -0.0023 498.0459C-0.0023 770.0159 226.0777 996.0959 498.0477 996.0959ZM498.0477 729.0059C472.1677 729.0059 458.0077 710.4459 458.0077 683.1059V553.2259L315.9177 316.8959C311.0377 308.5959 309.0777 300.7859 309.0777 293.4559C309.0777 273.9259 325.1977 257.8159 346.1877 257.8159C364.2577 257.8159 374.0277 264.1559 384.7677 283.2059L497.0677 476.5659H499.9977L613.2777 283.2059C623.5377 264.6459 632.8077 257.8159 650.3877 257.8159C671.8777 257.8159 687.0077 273.4359 687.0077 294.4359C687.0077 301.2659 685.0577 309.5659 680.1777 316.8959L539.0577 552.2459V683.1059C539.0577 711.9159 524.4177 729.0059 498.0477 729.0059Z"/>
</svg>