<?xml version="1.0" encoding="UTF-8" standalone="no"?>
<svg xmlns="http://www.w3.org/2000/svg"
     width="898.92578125" height="898.92578125"
     viewBox="0 0 898.92578125 898.92578125"
     fill="currentColor">
  <path d="M153.3183 898.9295H745.6083C848.1483 898.9295 898.9283 848.1495 898.9283 747.5595V151.3695C898.9283 50.7795 848.1483 -0.0005 745.6083 -0.0005H153.3183C51.2683 -0.0005 -0.0017 50.2895 -0.0017 151.3695V747.5595C-0.0017 848.6295 51.2683 898.9295 153.3183 898.9295ZM449.7083 679.6895C423.8283 679.6895 409.6683 661.1295 409.6683 633.7895V503.9095L267.5783 267.5795C262.6983 259.2795 260.7383 251.4695 260.7383 244.1395C260.7383 224.6095 276.8583 208.4995 297.8483 208.4995C315.9183 208.4995 325.6883 214.8395 336.4283 233.8895L448.7283 427.2495H452.1483L564.9383 233.8895C575.1983 215.3295 584.9583 208.4995 602.0483 208.4995C623.5383 208.4995 638.6683 224.1195 638.6683 245.1195C638.6683 251.9495 636.7183 260.2495 631.8383 267.5795L490.7183 502.9295V633.7895C490.7183 662.5995 476.0783 679.6895 449.7083 679.6895Z"/>
</svg>