<?xml version="1.0" encoding="UTF-8" standalone="no"?>
<svg xmlns="http://www.w3.org/2000/svg"
     width="898.92578125" height="898.92578125"
     viewBox="0 0 898.92578125 898.92578125"
     fill="currentColor">
  <path d="M153.3183 898.9295H745.6083C848.1483 898.9295 898.9283 848.1495 898.9283 747.5595V151.3695C898.9283 50.7795 848.1483 -0.0005 745.6083 -0.0005H153.3183C51.2683 -0.0005 -0.0017 50.2895 -0.0017 151.3695V747.5595C-0.0017 848.6295 51.2683 898.9295 153.3183 898.9295ZM154.2983 820.3095C105.4683 820.3095 78.6183 794.4295 78.6183 743.6495V155.2695C78.6183 104.4895 105.4683 78.6095 154.2983 78.6095H744.6283C792.9683 78.6095 820.3083 104.4895 820.3083 155.2695V743.6495C820.3083 794.4295 792.9683 820.3095 744.6283 820.3095ZM449.7083 672.3595C475.0983 672.3595 489.2583 655.7595 489.2583 628.4195V500.9795L626.4683 272.4595C630.8583 265.6295 632.8083 257.8095 632.8083 250.9795C632.8083 230.9595 618.1683 215.8195 597.6583 215.8195C581.0583 215.8195 571.7783 222.1695 561.5283 240.2295L452.1483 427.7295H448.7283L339.3583 240.2295C329.0983 221.6795 319.8283 215.8195 302.2483 215.8195C282.2283 215.8195 266.5983 231.4495 266.5983 249.9995C266.5983 257.3195 268.5583 264.6495 272.9483 272.4595L411.1283 501.9495V628.4195C411.1283 654.7895 424.8083 672.3595 449.7083 672.3595Z"/>
</svg>