<?xml version="1.0" encoding="UTF-8" standalone="no"?>
<svg xmlns="http://www.w3.org/2000/svg"
     width="996.09375" height="996.09375"
     viewBox="0 0 996.09375 996.09375"
     fill="currentColor">
  <path d="M498.0477 996.0959C770.5077 996.0959 996.0977 770.0159 996.0977 498.0459C996.0977 225.5859 770.0177 -0.0041 497.5577 -0.0041C225.5877 -0.0041 -0.0023 225.5859 -0.0023 498.0459C-0.0023 770.0159 226.0777 996.0959 498.0477 996.0959ZM498.0477 913.0859C267.5777 913.0859 83.4977 728.5159 83.4977 498.0459C83.4977 267.5759 267.0877 83.0059 497.5577 83.0059C728.0277 83.0059 913.0877 267.5759 913.0877 498.0459C913.0877 728.5159 728.5177 913.0859 498.0477 913.0859ZM497.5577 745.1159C516.1177 745.1159 528.8077 732.4259 528.8077 712.8859V642.0859H619.1377C633.2977 642.0859 643.0677 631.3459 643.0677 617.6759C643.0677 604.0059 633.2977 593.7459 619.1377 593.7459H528.8077V556.1559H619.1377C633.2977 556.1559 643.0677 545.8959 643.0677 532.2259C643.0677 518.0659 633.2977 507.8159 619.1377 507.8159H551.2677L669.9177 316.8959C674.3177 310.0559 675.7777 304.1959 675.7777 296.8759C675.7777 280.7659 662.5977 268.0659 645.0177 268.0659C633.2977 268.0659 624.0277 272.9459 617.6777 284.1759L498.0477 484.8659L378.4177 283.6959C371.5777 272.4559 362.7977 267.5759 350.5877 267.5759C333.0077 267.5759 319.8277 280.2759 319.8277 296.3859C319.8277 303.7059 321.7777 309.5659 325.6877 316.4059L444.8277 507.8159H377.9277C363.7677 507.8159 354.4877 518.0659 354.4877 532.2259C354.4877 545.8959 364.2577 556.1559 377.9277 556.1559H467.2877V593.7459H377.9277C363.7677 593.7459 354.4877 604.0059 354.4877 617.6759C354.4877 631.3459 364.2577 642.0859 377.9277 642.0859H467.2877V712.4059C467.2877 731.9359 479.4877 745.1159 497.5577 745.1159Z"/>
</svg>