<?xml version="1.0" encoding="UTF-8" standalone="no"?>
<svg xmlns="http://www.w3.org/2000/svg"
     width="898.92578125" height="898.92578125"
     viewBox="0 0 898.92578125 898.92578125"
     fill="currentColor">
  <path d="M153.3183 898.9295H745.6083C848.1483 898.9295 898.9283 848.1495 898.9283 747.5595V151.3695C898.9283 50.7795 848.1483 -0.0005 745.6083 -0.0005H153.3183C51.2683 -0.0005 -0.0017 50.2895 -0.0017 151.3695V747.5595C-0.0017 848.6295 51.2683 898.9295 153.3183 898.9295ZM154.2983 820.3095C105.4683 820.3095 78.6183 794.4295 78.6183 743.6495V155.2695C78.6183 104.4895 105.4683 78.6095 154.2983 78.6095H744.6283C792.9683 78.6095 820.3083 104.4895 820.3083 155.2695V743.6495C820.3083 794.4295 792.9683 820.3095 744.6283 820.3095ZM450.1983 695.7995C468.2583 695.7995 480.9583 683.1095 480.9583 663.5695V592.7695H571.7783C585.9383 592.7695 595.2183 582.0295 595.2183 568.3595C595.2183 554.6895 585.9383 544.4295 571.7783 544.4295H480.9583V506.8395H571.7783C585.9383 506.8395 595.2183 496.5795 595.2183 482.9095C595.2183 468.7495 585.9383 458.4995 571.7783 458.4995H503.4183L622.0683 267.5795C626.4683 260.7395 628.4183 254.8795 628.4183 247.5595C628.4183 231.4495 614.7483 218.7495 597.1683 218.7495C585.4483 218.7495 576.6583 223.6295 569.8283 234.8595L450.1983 435.5495L330.5683 234.3795C323.7283 223.1395 314.9383 218.2595 303.2183 218.2595C285.6483 218.2595 271.9683 230.9595 271.9683 247.0695C271.9683 254.3895 273.9283 260.2495 277.8283 267.0895L396.9683 458.4995H330.0783C315.9183 458.4995 306.6383 468.7495 306.6383 482.9095C306.6383 496.5795 316.4083 506.8395 330.0783 506.8395H419.4383V544.4295H330.0783C315.9183 544.4295 306.6383 554.6895 306.6383 568.3595C306.6383 582.0295 316.4083 592.7695 330.0783 592.7695H419.4383V663.0895C419.4383 682.6195 432.1283 695.7995 450.1983 695.7995Z"/>
</svg>