<?xml version="1.0" encoding="UTF-8" standalone="no"?>
<svg xmlns="http://www.w3.org/2000/svg"
     width="996.09375" height="996.09375"
     viewBox="0 0 996.09375 996.09375"
     fill="currentColor">
  <path d="M498.0477 996.0959C770.5077 996.0959 996.0977 770.0159 996.0977 498.0459C996.0977 225.5859 770.0177 -0.0041 497.5577 -0.0041C225.5877 -0.0041 -0.0023 225.5859 -0.0023 498.0459C-0.0023 770.0159 226.0777 996.0959 498.0477 996.0959ZM498.0477 752.9259C479.4877 752.9259 466.7977 739.2559 466.7977 718.7459V646.4859H374.5077C360.3477 646.4859 350.0977 635.7459 350.0977 621.5859C350.0977 607.4259 359.8677 596.6759 374.5077 596.6759H466.7977V558.1059H374.5077C360.3477 558.1059 350.0977 547.3659 350.0977 533.2059C350.0977 518.5559 359.8677 507.8159 374.5077 507.8159H443.3577L320.7977 310.5459C316.4077 303.2259 314.4577 297.3659 314.4577 289.5459C314.4577 272.9459 328.1277 259.7659 346.1877 259.7659C358.8877 259.7659 368.1677 264.6459 375.4877 276.3659L498.5377 483.8859L621.5777 276.8559C628.4177 265.6259 638.1877 260.2559 650.3877 260.2559C668.4577 260.2559 682.1277 273.4359 682.1277 290.0359C682.1277 297.8559 680.6677 303.7059 675.7777 311.0359L553.7077 507.8159H623.5377C638.1877 507.8159 648.4377 518.5559 648.4377 533.2059C648.4377 547.3659 638.1877 558.1059 623.5377 558.1059H530.2777V596.6759H623.5377C638.1877 596.6759 648.4377 607.4259 648.4377 621.5859C648.4377 635.7459 638.1877 646.4859 623.5377 646.4859H530.2777V719.2359C530.2777 739.7459 517.0877 752.9259 498.0477 752.9259Z"/>
</svg>