<?xml version="1.0" encoding="UTF-8" standalone="no"?>
<svg xmlns="http://www.w3.org/2000/svg"
     width="898.92578125" height="898.92578125"
     viewBox="0 0 898.92578125 898.92578125"
     fill="currentColor">
  <path d="M153.3183 898.9295H745.6083C848.1483 898.9295 898.9283 848.1495 898.9283 747.5595V151.3695C898.9283 50.7795 848.1483 -0.0005 745.6083 -0.0005H153.3183C51.2683 -0.0005 -0.0017 50.2895 -0.0017 151.3695V747.5595C-0.0017 848.6295 51.2683 898.9295 153.3183 898.9295ZM450.1983 703.6095C431.6383 703.6095 418.4583 689.9395 418.4583 669.4295V597.1695H326.1683C312.0083 597.1695 301.7583 586.4295 301.7583 572.2695C301.7583 558.1095 311.5283 547.3595 326.1683 547.3595H418.4583V508.7895H326.1683C312.0083 508.7895 301.7583 498.0495 301.7583 483.8895C301.7583 469.2395 311.5283 458.4995 326.1683 458.4995H395.0183L272.4583 261.2295C268.0683 253.9095 266.1183 248.0495 266.1183 240.2295C266.1183 223.6295 280.2783 210.4495 298.3383 210.4495C310.5483 210.4495 319.8283 215.3295 327.1483 227.0495L450.1983 434.5695L573.2383 227.5395C580.5683 216.3095 589.8483 210.9395 602.0483 210.9395C620.1183 210.9395 634.2783 224.1195 634.2783 240.7195C634.2783 248.5395 632.3283 254.3895 627.4383 261.7195L505.3683 458.4995H575.6883C590.3283 458.4995 600.0983 469.2395 600.0983 483.8895C600.0983 498.0495 590.3283 508.7895 575.6883 508.7895H481.9383V547.3595H575.6883C590.3283 547.3595 600.0983 558.1095 600.0983 572.2695C600.0983 586.4295 590.3283 597.1695 575.6883 597.1695H481.9383V669.9195C481.9383 690.4295 468.7483 703.6095 450.1983 703.6095Z"/>
</svg>