<?xml version="1.0" encoding="UTF-8" standalone="no"?>
<svg xmlns="http://www.w3.org/2000/svg"
     width="898.92578125" height="898.92578125"
     viewBox="0 0 898.92578125 898.92578125"
     fill="currentColor">
  <path d="M153.3183 898.9295H745.6083C848.1483 898.9295 898.9283 848.1495 898.9283 747.5595V151.3695C898.9283 50.7795 848.1483 -0.0005 745.6083 -0.0005H153.3183C51.2683 -0.0005 -0.0017 50.2895 -0.0017 151.3695V747.5595C-0.0017 848.6295 51.2683 898.9295 153.3183 898.9295ZM154.2983 820.3095C105.4683 820.3095 78.6183 794.4295 78.6183 743.6495V155.2695C78.6183 104.4895 105.4683 78.6095 154.2983 78.6095H744.6283C792.9683 78.6095 820.3083 104.4895 820.3083 155.2695V743.6495C820.3083 794.4295 792.9683 820.3095 744.6283 820.3095ZM309.0783 666.4995H595.2183C614.2583 666.4995 627.9283 654.2995 627.9283 634.7695C627.9283 614.7495 614.2583 602.5395 595.2183 602.5395H375.9783V598.6295L600.0983 287.5995C609.8683 274.4095 611.8183 267.5795 611.8183 256.3495C611.8183 235.8395 597.1683 221.6795 576.1683 221.6795H305.1783C286.1283 221.6795 272.4583 233.8895 272.4583 253.4195C272.4583 273.4395 286.1283 285.6395 305.1783 285.6395H511.7183V289.5495L287.1083 600.5895C276.8583 615.7195 273.9283 622.5595 273.9283 633.2995C273.9283 652.8295 288.5783 666.4995 309.0783 666.4995Z"/>
</svg>