<?xml version="1.0" encoding="UTF-8" standalone="no"?>
<svg xmlns="http://www.w3.org/2000/svg"
     width="1180.6640625" height="898.92578125"
     viewBox="0 0 1180.6640625 898.92578125"
     fill="currentColor">
  <path d="M419.9177 -0.0005C128.9077 -0.0005 -0.0023 133.2995 -0.0023 406.7395V747.5595C-0.0023 848.6295 51.2677 898.9295 153.3177 898.9295H1027.3477C1129.3977 898.9295 1180.6677 848.1495 1180.6677 747.5595V406.7395C1180.6677 133.2995 1051.7577 -0.0005 761.2277 -0.0005ZM419.9177 79.5895H760.7377C998.0477 79.5895 1102.0477 183.1095 1102.0477 402.3395V743.6495C1102.0477 794.4295 1074.7077 820.3095 1026.3677 820.3095H154.2977C105.4677 820.3095 78.6177 794.4295 78.6177 743.6495V402.3395C78.6177 183.1095 182.6177 79.5895 419.9177 79.5895ZM717.2877 669.4295H942.3877C960.9377 669.4295 974.6077 657.2295 974.6077 637.2095C974.6077 617.1895 960.9377 605.4695 942.3877 605.4695H756.8377V262.6995C756.8377 235.3495 743.1677 218.7495 717.2877 218.7495C691.8977 218.7495 678.7077 236.3295 678.7077 262.6995V625.4895C678.7077 651.3695 692.3877 669.4295 717.2877 669.4295ZM283.6877 669.4295H569.8277C588.8677 669.4295 602.5377 656.7395 602.5377 637.2095C602.5377 617.1895 588.8677 605.4695 569.8277 605.4695H350.5877V601.5595L574.7077 290.0395C584.4777 276.8595 586.4277 270.5095 586.4277 258.7895C586.4277 238.7695 571.7777 224.1195 550.7777 224.1195H279.7877C260.7377 224.1195 247.0677 236.8195 247.0677 256.3495C247.0677 276.3695 260.7377 288.0895 279.7877 288.0895H486.3277V291.9895L261.7177 603.0295C250.9777 618.1595 248.5377 625.4895 248.5377 636.2295C248.5377 655.7595 263.1877 669.4295 283.6877 669.4295Z"/>
</svg>