<?xml version="1.0" encoding="UTF-8" standalone="no"?>
<svg xmlns="http://www.w3.org/2000/svg"
     width="1180.6640625" height="898.92578125"
     viewBox="0 0 1180.6640625 898.92578125"
     fill="currentColor">
  <path d="M419.9177 -0.0005C128.9077 -0.0005 -0.0023 133.2995 -0.0023 406.7395V747.5595C-0.0023 848.6295 51.2677 898.9295 153.3177 898.9295H1027.3477C1129.3977 898.9295 1180.6677 848.1495 1180.6677 747.5595V406.7395C1180.6677 133.2995 1051.7577 -0.0005 761.2277 -0.0005ZM237.7977 676.2695C216.7977 676.2695 201.6577 661.6195 201.6577 642.0895C201.6577 630.3695 204.5877 623.5395 215.8177 607.4195L446.2877 287.1095V283.1995H233.8877C214.8477 283.1995 200.1977 270.9995 200.1977 250.4895C200.1977 229.9795 214.8477 216.7995 233.8877 216.7995H513.1877C535.1577 216.7995 550.7777 231.9295 550.7777 252.9295C550.7777 265.1395 548.3377 271.4795 538.0877 285.1595L307.1277 605.9595V609.8595H533.6877C552.7377 609.8595 566.8977 622.0695 566.8977 643.0695C566.8977 663.0895 552.7377 676.2695 533.6877 676.2695ZM679.6877 682.1295C653.8077 682.1295 639.6477 664.0595 639.6477 636.7195V262.6995C639.6477 235.8395 653.3177 216.7995 679.6877 216.7995H824.7077C926.7577 216.7995 991.2077 274.8995 991.2077 365.2295C991.2077 428.2195 953.1277 480.9595 894.5277 500.4895L969.7277 618.1595C975.5877 628.4195 978.5177 636.2295 978.5177 647.4595C978.5177 667.9695 963.3777 682.1295 941.8977 682.1295C923.8277 682.1295 914.0577 674.8095 901.8577 655.7595L814.4577 512.2095H720.7077V636.7195C720.7077 665.0395 706.5477 682.1295 679.6877 682.1295ZM720.7077 453.1295H812.4977C873.0477 453.1295 911.6177 422.3595 911.6177 367.1895C911.6177 311.0395 872.0677 278.8095 814.4577 278.8095H720.7077Z"/>
</svg>